<svg xmlns="http://www.w3.org/2000/svg" viewBox="0 0 38.55 24.66"><defs><style>.cls-1{isolation:isolate;}.cls-2{opacity:0.15;}.cls-2,.cls-3{mix-blend-mode:multiply;}.cls-4{fill:#fff;}</style></defs><title>convert-CUSTOMIZE-SVG-03</title><g class="cls-1"><g id="Layer_1" data-name="Layer 1"><g class="cls-2"><path d="M16.57,12.85a.57.57,0,0,1,0,.14.49.49,0,0,0,.5.77h.12c.06.33.15.65.2,1a4.52,4.52,0,0,1,0,1.68,1.21,1.21,0,0,1-.42.72.44.44,0,0,1-.72-.21,2.53,2.53,0,0,1-.06-.91c.07-.52.21-1,.32-1.56a1.14,1.14,0,0,1-.1.19,13.72,13.72,0,0,1-.85,1.25,1.89,1.89,0,0,1-.72.49c-.35.15-.55,0-.75-.3a31.24,31.24,0,0,0-3.35,7.79V23.6c0-.1,0-.2,0-.3a14.29,14.29,0,0,0-.2-3.13A52.82,52.82,0,0,0,7.9,11.53L7.2,9.76a.23.23,0,0,0-.09-.11c0,.38,0,.75,0,1.13A1.94,1.94,0,0,1,6.69,12a1.45,1.45,0,0,1-.41.33.58.58,0,0,1-.79-.36,2.12,2.12,0,0,1-.09-1.22c.13-.76.31-1.5.46-2.2l-.06.13a7.72,7.72,0,0,1-1.22,1.87,2,2,0,0,1-1.21.72.63.63,0,0,1-.73-.88,2.84,2.84,0,0,1,.73-1A14.58,14.58,0,0,1,5.5,7.6a.52.52,0,0,0,.18-.15l-.16.06A10.24,10.24,0,0,1,3,8.35a2.52,2.52,0,0,1-1.25,0A1.88,1.88,0,0,1,1.14,8a.56.56,0,0,1,.07-.94,2.64,2.64,0,0,1,.94-.33,10.13,10.13,0,0,1,2.58,0l.94.11h0s.11.09.12.14a.66.66,0,0,0,.82.59h.12a.83.83,0,0,1,0,.15,18.93,18.93,0,0,0,1,2.63,69.25,69.25,0,0,1,2.58,7.68c.14.54.26,1.08.41,1.62a30.48,30.48,0,0,1,3-11.17,1.88,1.88,0,0,1-.31,0,.32.32,0,0,1-.34-.47,1.27,1.27,0,0,1,.32-.49c.35-.33.73-.62,1.1-.93a.29.29,0,0,0,.09-.12l-.52.2A2.78,2.78,0,0,1,12.7,7a1.17,1.17,0,0,1-.32-.09c-.15-.08-.3-.2-.25-.37a.54.54,0,0,1,.28-.33,2,2,0,0,1,.66-.13,6.45,6.45,0,0,1,.76,0,6.06,6.06,0,0,0,.75,0A.69.69,0,0,1,14.43,6a8.72,8.72,0,0,1-1.21-.64,1.74,1.74,0,0,1-.49-.61.34.34,0,0,1,.06-.43.36.36,0,0,1,.44,0,2.94,2.94,0,0,1,.62.42c.27.25.5.53.75.81a.51.51,0,0,0,.18.14c-.1-.17-.2-.35-.29-.53A2.62,2.62,0,0,1,14.14,4a1.21,1.21,0,0,1,.1-.5.32.32,0,0,1,.59,0,2.28,2.28,0,0,1,.27.77,9.08,9.08,0,0,1,.11,1c.08-.32.13-.68.25-1a2.75,2.75,0,0,1,.43-.69.39.39,0,0,1,.5-.1.35.35,0,0,1,.16.46,4.57,4.57,0,0,1-.31.8c-.11.24-.26.45-.38.7L16,5.22a9.82,9.82,0,0,1,.93-.66,1.32,1.32,0,0,1,.56-.13.36.36,0,0,1,.38.22.34.34,0,0,1-.12.43,2,2,0,0,1-.52.36c-.56.23-1.13.42-1.68.63-.23-.25-.4-.3-.58-.19a.36.36,0,0,0-.16.42c0,.19.18.26.51.26a4.28,4.28,0,0,1,.14,2,1,1,0,0,1-.23.42c-.24.26-.57.18-.62-.17a3.1,3.1,0,0,1,0-.86c0-.27.12-.53.19-.81a25.22,25.22,0,0,0-2.89,7.05,27,27,0,0,0-.9,7.6,23.63,23.63,0,0,1,4.15-7.68c-.43.06-.88.16-1.34.18a1.42,1.42,0,0,1-.74-.22.44.44,0,0,1,.06-.82,2.36,2.36,0,0,1,.9-.2c.64,0,1.28.06,1.92.1a.5.5,0,0,0,.24,0l-.25-.1a6.09,6.09,0,0,1-1.68-.87,1.59,1.59,0,0,1-.62-.78.53.53,0,0,1,.09-.61.48.48,0,0,1,.6-.05,5.1,5.1,0,0,1,.89.63c.39.38.73.81,1.09,1.21l.16.16ZM15.68,14l.05.06.58-.4,0-.06Z"/><path d="M5.93,6.34c-.25-.45-.52-.9-.75-1.37a4.48,4.48,0,0,1-.61-2.26,1.64,1.64,0,0,1,.2-.65A.6.6,0,0,1,5.86,2,2.21,2.21,0,0,1,6.29,3.1c.09.66.14,1.33.2,2a1.31,1.31,0,0,1,0,.28c.15-.66.28-1.32.46-2a2.33,2.33,0,0,1,.63-1.15,2,2,0,0,1,.63-.4.55.55,0,0,1,.76.5,2.46,2.46,0,0,1-.12.85A8.26,8.26,0,0,1,7.69,5.32a2.27,2.27,0,0,0-.17.31l.15-.14A7.92,7.92,0,0,1,9.49,4.05a1.92,1.92,0,0,1,1.4-.26.6.6,0,0,1,.34,1,3.22,3.22,0,0,1-.82.65,12.77,12.77,0,0,1-3,1.1l-.31.08a.7.7,0,0,0-.62-.37.71.71,0,0,0-.32.07.15.15,0,0,1-.23,0Z"/><path d="M7.12,6.74l.56,0a8.18,8.18,0,0,1,2.79.2,3.66,3.66,0,0,1,.9.41,1.34,1.34,0,0,1,.4.48.58.58,0,0,1-.4.88,2.31,2.31,0,0,1-1.11-.07,12.2,12.2,0,0,1-2.45-1,.57.57,0,0,0-.23-.08,10.72,10.72,0,0,1,.84.67A15.36,15.36,0,0,1,9.66,9.48a1.7,1.7,0,0,1,.42,1.23.62.62,0,0,1-1,.55,2.52,2.52,0,0,1-.68-.62,12.19,12.19,0,0,1-1.59-3,.23.23,0,0,1,0-.16A.75.75,0,0,0,7.12,6.74Z"/><path d="M16.57,12.85l-.07-.09c-.24-.48-.5-.95-.72-1.43a2.21,2.21,0,0,1-.23-1.19,1.43,1.43,0,0,1,.17-.53.41.41,0,0,1,.72,0,2.06,2.06,0,0,1,.35.82,13,13,0,0,1,.16,1.4A.93.93,0,0,0,17,12c.07-.34.11-.69.21-1a6,6,0,0,1,.4-1,1,1,0,0,1,.59-.49.43.43,0,0,1,.6.42,2,2,0,0,1-.15.73c-.26.54-.57,1.05-.84,1.55l.12-.11c.43-.33.85-.68,1.3-1a1.17,1.17,0,0,1,1-.16.42.42,0,0,1,.24.69,2.42,2.42,0,0,1-.62.53,9.12,9.12,0,0,1-2.15.8c-.18,0-.34.12-.49-.09a.39.39,0,0,0-.47-.08A.65.65,0,0,1,16.57,12.85Z"/><path d="M17.73,13.65a9.1,9.1,0,0,1,.83.68,6.66,6.66,0,0,1,.84,1,1.43,1.43,0,0,1,.19.74.45.45,0,0,1-.72.39,2.13,2.13,0,0,1-.49-.46,8.89,8.89,0,0,1-1.16-2.17.2.2,0,0,1,0-.16.56.56,0,0,0,.16-.54,6.67,6.67,0,0,1,2.67.17,1.22,1.22,0,0,1,.71.5c.24.37.06.77-.38.76a4,4,0,0,1-1.09-.2c-.48-.17-.93-.41-1.39-.61l-.2-.11Z"/><path d="M5.92,6.33c.1.23-.13.36-.16.56H5.67c-.42-.17-.85-.33-1.27-.51a6.84,6.84,0,0,1-1.67-1A1.84,1.84,0,0,1,2,4.15a.61.61,0,0,1,.82-.67A2.64,2.64,0,0,1,4,4.23c.62.64,1.19,1.31,1.78,2l.16.15Z"/><path d="M16,6.58c.26.26.61.57.92.91a1,1,0,0,1,.28.85.32.32,0,0,1-.49.25,1.4,1.4,0,0,1-.33-.26,6.69,6.69,0,0,1-.94-1.72.32.32,0,0,1,0-.13l.2-.41a4.19,4.19,0,0,1,2.06.2,1,1,0,0,1,.41.34.32.32,0,0,1-.25.53,1.76,1.76,0,0,1-.65-.07C16.73,6.91,16.3,6.72,16,6.58Z"/><path d="M16.77,13.05s0,.1,0,.14a.47.47,0,0,0,0,.55.49.49,0,0,0,.52.22h.12c.06.32.14.65.2,1a4.52,4.52,0,0,1,0,1.68,1.23,1.23,0,0,1-.43.72.43.43,0,0,1-.71-.21,2.55,2.55,0,0,1-.06-.91c.07-.52.21-1,.32-1.57a.93.93,0,0,1-.1.2c-.28.42-.53.86-.85,1.25a1.89,1.89,0,0,1-.72.49c-.35.15-.55,0-.75-.3a30.88,30.88,0,0,0-3.35,7.79V23.8c0-.1,0-.2,0-.3a14.25,14.25,0,0,0-.2-3.13A52.82,52.82,0,0,0,8.1,11.73L7.4,10a.23.23,0,0,0-.09-.11c0,.37,0,.75,0,1.13a2,2,0,0,1-.41,1.18,1.27,1.27,0,0,1-.41.32.58.58,0,0,1-.79-.35A2.07,2.07,0,0,1,5.6,10.9c.13-.75.31-1.49.46-2.2A.43.43,0,0,1,6,8.84a7.69,7.69,0,0,1-1.21,1.87,2,2,0,0,1-1.21.72.63.63,0,0,1-.73-.88A2.73,2.73,0,0,1,3.57,9.5,14.58,14.58,0,0,1,5.7,7.8a.55.55,0,0,0,.18-.16l-.16.07a10.24,10.24,0,0,1-2.54.84,2.52,2.52,0,0,1-1.25,0,1.88,1.88,0,0,1-.59-.32.56.56,0,0,1,.07-.95,2.83,2.83,0,0,1,.94-.32A10.13,10.13,0,0,1,4.93,7l.94.11h0s.11.09.13.14a.67.67,0,0,0,.82.59l.12,0c0,.06,0,.11,0,.16a19.42,19.42,0,0,0,1,2.63,69.25,69.25,0,0,1,2.58,7.68c.14.53.26,1.08.4,1.62a30.64,30.64,0,0,1,3-11.17l-.31,0a.33.33,0,0,1-.34-.48,1.43,1.43,0,0,1,.32-.49c.35-.32.73-.61,1.1-.92a.29.29,0,0,0,.09-.12l-.52.2a2.9,2.9,0,0,1-1.36.23.92.92,0,0,1-.32-.1c-.16-.07-.31-.19-.26-.37a.57.57,0,0,1,.29-.32,2,2,0,0,1,.65-.13,4.81,4.81,0,0,1,.76,0,6.17,6.17,0,0,0,.75,0l-.15-.07a12.49,12.49,0,0,1-1.2-.64,2,2,0,0,1-.5-.61A.36.36,0,0,1,13,4.55a.36.36,0,0,1,.44,0,3.22,3.22,0,0,1,.62.42c.27.25.5.53.75.8a.49.49,0,0,0,.17.15l-.28-.53a2.53,2.53,0,0,1-.35-1.16,1.29,1.29,0,0,1,.1-.51.32.32,0,0,1,.59,0,2.28,2.28,0,0,1,.27.77,8.81,8.81,0,0,1,.11,1,8.4,8.4,0,0,1,.25-1,2.75,2.75,0,0,1,.43-.69.39.39,0,0,1,.5-.1.36.36,0,0,1,.16.46,4.89,4.89,0,0,1-.31.8c-.11.23-.27.45-.38.69.05,0,.09-.09.15-.13a9.69,9.69,0,0,1,.92-.66,1.36,1.36,0,0,1,.57-.13.36.36,0,0,1,.38.22.35.35,0,0,1-.12.43,2,2,0,0,1-.52.36c-.56.23-1.13.42-1.68.62-.23-.25-.4-.29-.59-.18A.35.35,0,0,0,15,6.5c0,.19.18.26.51.26a4.27,4.27,0,0,1,.14,2,1.15,1.15,0,0,1-.23.42A.34.34,0,0,1,14.81,9a3,3,0,0,1,0-.85A5.93,5.93,0,0,1,15,7.38a25.22,25.22,0,0,0-2.89,7.05,27,27,0,0,0-.9,7.6,23.69,23.69,0,0,1,4.14-7.68c-.42.06-.88.16-1.33.18a1.52,1.52,0,0,1-.74-.22.44.44,0,0,1,.06-.83,2.34,2.34,0,0,1,.9-.19c.64,0,1.28.06,1.92.1a.5.5,0,0,0,.24,0l-.25-.1a6.09,6.09,0,0,1-1.68-.87,1.59,1.59,0,0,1-.62-.78A.53.53,0,0,1,14,11a.47.47,0,0,1,.59,0,4.4,4.4,0,0,1,.9.63c.39.38.73.8,1.09,1.21l.16.16Zm-.89,1.18,0,.07.58-.41,0-.05Z"/><path d="M6.13,6.54c-.25-.46-.52-.9-.75-1.37a4.48,4.48,0,0,1-.61-2.26A1.74,1.74,0,0,1,5,2.25a.61.61,0,0,1,1.09-.07,2.21,2.21,0,0,1,.43,1.11c.09.67.14,1.34.2,2a1.31,1.31,0,0,1,0,.28c.15-.66.28-1.32.45-2a2.43,2.43,0,0,1,.64-1.15,2,2,0,0,1,.63-.4.54.54,0,0,1,.75.5,2.24,2.24,0,0,1-.11.85A8.26,8.26,0,0,1,7.89,5.52a1.31,1.31,0,0,0-.17.31l.15-.14A7.23,7.23,0,0,1,9.69,4.25,1.92,1.92,0,0,1,11.09,4a.6.6,0,0,1,.34,1,3.18,3.18,0,0,1-.82.64,12.52,12.52,0,0,1-3,1.11l-.32.08a.68.68,0,0,0-.61-.38.84.84,0,0,0-.32.08.15.15,0,0,1-.23,0Z"/><path d="M7.32,6.94l.56,0a8.18,8.18,0,0,1,2.79.2,3.66,3.66,0,0,1,.9.41A1.41,1.41,0,0,1,12,8a.59.59,0,0,1-.41.89,2.28,2.28,0,0,1-1.1-.07A12,12,0,0,1,8,7.77a.78.78,0,0,0-.23-.07c.28.22.58.42.83.66A14.15,14.15,0,0,1,9.86,9.68a1.65,1.65,0,0,1,.41,1.23.61.61,0,0,1-1,.55,2.72,2.72,0,0,1-.69-.62A12.9,12.9,0,0,1,7,7.86a.19.19,0,0,1,0-.16A.75.75,0,0,0,7.32,6.94Z"/><path d="M16.77,13.05,16.7,13c-.24-.48-.5-1-.72-1.43a2.36,2.36,0,0,1-.24-1.19,1.39,1.39,0,0,1,.18-.53.42.42,0,0,1,.72-.05,2.19,2.19,0,0,1,.35.82c.09.47.11.94.16,1.41a.93.93,0,0,0,0,.23,7.53,7.53,0,0,1,.21-1,6,6,0,0,1,.4-1,1,1,0,0,1,.59-.49.43.43,0,0,1,.6.41,1.86,1.86,0,0,1-.16.74c-.25.54-.56,1.05-.83,1.55l.12-.11c.43-.33.85-.69,1.29-1a1.23,1.23,0,0,1,1-.17.43.43,0,0,1,.24.7,2.2,2.2,0,0,1-.62.52,9.15,9.15,0,0,1-2.15.81c-.18.05-.34.11-.5-.09A.38.38,0,0,0,17,13,.58.58,0,0,1,16.77,13.05Z"/><path d="M17.93,13.85a7.69,7.69,0,0,1,.83.68,6.66,6.66,0,0,1,.84,1,1.43,1.43,0,0,1,.19.74.44.44,0,0,1-.72.38,1.74,1.74,0,0,1-.49-.45A8.56,8.56,0,0,1,17.42,14a.18.18,0,0,1,0-.16.54.54,0,0,0,.17-.54,6.67,6.67,0,0,1,2.67.17A1.25,1.25,0,0,1,21,14c.24.37.06.77-.38.75a3.62,3.62,0,0,1-1.09-.19c-.48-.17-.93-.41-1.39-.62l-.2-.1Z"/><path d="M6.12,6.53c.1.23-.13.36-.16.56H5.87C5.45,6.92,5,6.76,4.6,6.58a6.57,6.57,0,0,1-1.67-1,1.76,1.76,0,0,1-.76-1.24A.61.61,0,0,1,3,3.68a2.67,2.67,0,0,1,1.21.75c.61.63,1.19,1.3,1.78,2l.16.15Z"/><path d="M16.15,6.78c.26.26.61.57.92.91a.94.94,0,0,1,.28.85.31.31,0,0,1-.49.24,1,1,0,0,1-.33-.26,6.47,6.47,0,0,1-.94-1.71.21.21,0,0,1,0-.13l.2-.41a4.31,4.31,0,0,1,2.06.19,1.07,1.07,0,0,1,.41.35.32.32,0,0,1-.26.53,1.73,1.73,0,0,1-.64-.07C16.93,7.11,16.5,6.92,16.15,6.78Z"/></g><g class="cls-3"><path d="M16.43,12.71a1,1,0,0,1,0,.13.5.5,0,0,0,.5.78H17c.06.32.14.65.2,1a4.32,4.32,0,0,1,0,1.68,1.11,1.11,0,0,1-.42.71.42.42,0,0,1-.71-.2,2.55,2.55,0,0,1-.06-.91c.07-.52.21-1,.32-1.57a1.86,1.86,0,0,1-.1.2c-.28.42-.53.86-.85,1.25a1.89,1.89,0,0,1-.72.49c-.35.15-.55,0-.75-.3a30.88,30.88,0,0,0-3.35,7.79v-.27c0-.1,0-.2,0-.3a14.25,14.25,0,0,0-.2-3.13,52.82,52.82,0,0,0-2.62-8.64l-.7-1.77A.21.21,0,0,0,7,9.51c0,.37,0,.75,0,1.13a2,2,0,0,1-.41,1.18,1.27,1.27,0,0,1-.41.32.58.58,0,0,1-.79-.35,2.07,2.07,0,0,1-.09-1.23c.13-.75.31-1.49.46-2.2a.43.43,0,0,1-.07.14,7.69,7.69,0,0,1-1.21,1.87,2,2,0,0,1-1.21.72.63.63,0,0,1-.73-.88,2.73,2.73,0,0,1,.73-1.05,14.58,14.58,0,0,1,2.13-1.7.55.55,0,0,0,.18-.16l-.16.07a10.38,10.38,0,0,1-2.54.84,2.52,2.52,0,0,1-1.25,0A1.88,1.88,0,0,1,1,7.86a.56.56,0,0,1,.07-1A2.83,2.83,0,0,1,2,6.59a10.13,10.13,0,0,1,2.58,0l.94.11h0c.05,0,.11.09.13.14a.67.67,0,0,0,.82.59l.12,0c0,.06,0,.11,0,.16a19.42,19.42,0,0,0,1,2.63,69.25,69.25,0,0,1,2.58,7.68c.14.53.26,1.08.4,1.62a30.64,30.64,0,0,1,3-11.17l-.31,0a.33.33,0,0,1-.34-.48,1.43,1.43,0,0,1,.32-.49c.35-.32.73-.61,1.1-.92a.29.29,0,0,0,.09-.12l-.52.2a2.9,2.9,0,0,1-1.36.23.92.92,0,0,1-.32-.1c-.16-.07-.31-.19-.26-.37A.57.57,0,0,1,12.27,6a2,2,0,0,1,.65-.13,4.81,4.81,0,0,1,.76,0,6.17,6.17,0,0,0,.75,0l-.15-.07a12.49,12.49,0,0,1-1.2-.64,2,2,0,0,1-.5-.61.35.35,0,0,1,.07-.43.36.36,0,0,1,.44,0,3.22,3.22,0,0,1,.62.42c.27.25.5.53.75.8a.49.49,0,0,0,.17.15L14.35,5A2.67,2.67,0,0,1,14,3.85a1.5,1.5,0,0,1,.11-.51.32.32,0,0,1,.59,0,2.28,2.28,0,0,1,.27.77,8.81,8.81,0,0,1,.11,1,8.4,8.4,0,0,1,.25-1,2.75,2.75,0,0,1,.43-.69.39.39,0,0,1,.5-.1.36.36,0,0,1,.16.46,4.89,4.89,0,0,1-.31.8c-.11.23-.27.45-.38.69,0,0,.09-.09.15-.13a9.69,9.69,0,0,1,.92-.66,1.36,1.36,0,0,1,.57-.13.36.36,0,0,1,.38.22.35.35,0,0,1-.12.43,2,2,0,0,1-.52.36c-.56.23-1.13.42-1.68.62-.23-.25-.4-.29-.59-.18a.34.34,0,0,0-.15.42c0,.19.18.26.51.26a4.27,4.27,0,0,1,.14,2,1.15,1.15,0,0,1-.23.42.34.34,0,0,1-.63-.18,3,3,0,0,1,0-.85A5.93,5.93,0,0,1,14.68,7a25.22,25.22,0,0,0-2.89,7.05,27,27,0,0,0-.9,7.6A23.69,23.69,0,0,1,15,14c-.42.06-.88.16-1.33.18A1.52,1.52,0,0,1,13,14a.44.44,0,0,1,.06-.83,2.34,2.34,0,0,1,.9-.19c.64,0,1.28.06,1.92.1a.5.5,0,0,0,.24,0l-.25-.1a6.3,6.3,0,0,1-1.69-.87,1.57,1.57,0,0,1-.61-.78.53.53,0,0,1,.09-.61.47.47,0,0,1,.59-.05,4.4,4.4,0,0,1,.9.63c.39.38.73.8,1.09,1.21l.16.16Zm-.89,1.18.05.07.58-.41,0-.05Z"/><path d="M5.79,6.2c-.25-.46-.52-.9-.75-1.37a4.48,4.48,0,0,1-.61-2.26,1.92,1.92,0,0,1,.19-.66.62.62,0,0,1,1.1-.07A2.21,2.21,0,0,1,6.15,3c.09.67.14,1.34.2,2a1.31,1.31,0,0,1,0,.28c.15-.66.28-1.32.45-2a2.43,2.43,0,0,1,.64-1.15,1.88,1.88,0,0,1,.63-.4.54.54,0,0,1,.75.5,2.16,2.16,0,0,1-.11.84A8.15,8.15,0,0,1,7.55,5.18a1.31,1.31,0,0,0-.17.31l.15-.15A7.42,7.42,0,0,1,9.35,3.91a1.92,1.92,0,0,1,1.4-.26.6.6,0,0,1,.34,1.05,3.18,3.18,0,0,1-.82.64,13,13,0,0,1-3,1.11l-.32.08a.68.68,0,0,0-.61-.38A.84.84,0,0,0,6,6.23a.15.15,0,0,1-.23,0Z"/><path d="M7,6.6l.56,0a8.18,8.18,0,0,1,2.79.2,3.44,3.44,0,0,1,.89.41,1.33,1.33,0,0,1,.41.47.59.59,0,0,1-.41.89,2.28,2.28,0,0,1-1.1-.07,12,12,0,0,1-2.45-1,.88.88,0,0,0-.23-.07c.28.22.58.42.83.66A14.15,14.15,0,0,1,9.52,9.34a1.65,1.65,0,0,1,.41,1.23.61.61,0,0,1-1,.55,2.72,2.72,0,0,1-.69-.62,12.9,12.9,0,0,1-1.58-3,.19.19,0,0,1,0-.16A.75.75,0,0,0,7,6.6Z"/><path d="M16.43,12.71l-.07-.09c-.24-.48-.5-.95-.72-1.43A2.36,2.36,0,0,1,15.4,10a1.39,1.39,0,0,1,.18-.53.42.42,0,0,1,.72-.05,2.19,2.19,0,0,1,.35.82c.09.47.11.94.16,1.41a.93.93,0,0,0,0,.23,9.35,9.35,0,0,1,.2-1,7.12,7.12,0,0,1,.41-1,1,1,0,0,1,.59-.49.43.43,0,0,1,.6.41,1.86,1.86,0,0,1-.16.74c-.25.54-.56,1.05-.83,1.55l.12-.11c.43-.33.85-.69,1.29-1a1.23,1.23,0,0,1,1-.17.43.43,0,0,1,.24.7,2.2,2.2,0,0,1-.62.52,9.15,9.15,0,0,1-2.15.81c-.18.05-.34.11-.5-.09a.38.38,0,0,0-.47-.08A.58.58,0,0,1,16.43,12.71Z"/><path d="M17.59,13.51a7.69,7.69,0,0,1,.83.68,6.66,6.66,0,0,1,.84,1,1.43,1.43,0,0,1,.19.74.44.44,0,0,1-.72.38,1.74,1.74,0,0,1-.49-.45,8.56,8.56,0,0,1-1.16-2.17.18.18,0,0,1,0-.16.54.54,0,0,0,.17-.54,6.67,6.67,0,0,1,2.67.17,1.25,1.25,0,0,1,.71.5c.24.37.06.77-.38.75a3.62,3.62,0,0,1-1.09-.19c-.48-.17-.93-.41-1.39-.62l-.2-.1Z"/><path d="M5.78,6.19c.1.23-.13.36-.16.56H5.53c-.42-.17-.85-.33-1.27-.51a6.57,6.57,0,0,1-1.67-1A1.8,1.8,0,0,1,1.83,4a.61.61,0,0,1,.81-.67,2.67,2.67,0,0,1,1.21.75c.61.63,1.19,1.3,1.78,2l.16.15Z"/><path d="M15.81,6.43c.26.27.61.58.92.92A.94.94,0,0,1,17,8.2a.31.31,0,0,1-.49.24,1,1,0,0,1-.33-.26,6.47,6.47,0,0,1-.94-1.71.21.21,0,0,1,0-.13l.2-.41a4.31,4.31,0,0,1,2.06.19,1.07,1.07,0,0,1,.41.35.32.32,0,0,1-.26.53A1.73,1.73,0,0,1,17,6.93C16.59,6.77,16.16,6.58,15.81,6.43Z"/></g><path class="cls-4" d="M16.62,12.91a.42.42,0,0,1,0,.13.48.48,0,0,0,0,.56.49.49,0,0,0,.51.22h.12c.07.32.15.65.2,1a4.13,4.13,0,0,1,0,1.68,1.11,1.11,0,0,1-.42.71.42.42,0,0,1-.71-.2,2.34,2.34,0,0,1-.06-.91c.07-.52.21-1,.32-1.57,0,.07-.06.14-.1.2-.28.42-.53.86-.85,1.25a1.85,1.85,0,0,1-.73.49c-.34.15-.54,0-.74-.3a30.88,30.88,0,0,0-3.35,7.79,2.43,2.43,0,0,1,0-.27c0-.1,0-.2,0-.3a13.79,13.79,0,0,0-.21-3.14A51.11,51.11,0,0,0,8,11.59c-.22-.6-.46-1.18-.69-1.77a.27.27,0,0,0-.1-.12c0,.38,0,.76,0,1.14A1.92,1.92,0,0,1,6.74,12a1.14,1.14,0,0,1-.4.33A.58.58,0,0,1,5.55,12a2.08,2.08,0,0,1-.1-1.23c.14-.75.32-1.49.47-2.2l-.07.14a7.69,7.69,0,0,1-1.21,1.87,2,2,0,0,1-1.22.71.62.62,0,0,1-.72-.87,2.73,2.73,0,0,1,.73-1.05,14.58,14.58,0,0,1,2.13-1.7.67.67,0,0,0,.18-.16l-.16.07A10.38,10.38,0,0,1,3,8.41a2.56,2.56,0,0,1-1.26,0,1.94,1.94,0,0,1-.58-.32.56.56,0,0,1,.06-1,3,3,0,0,1,1-.32,9.7,9.7,0,0,1,2.58,0l.94.1h0s.11.09.12.14a.68.68,0,0,0,.83.59l.12,0c0,.06,0,.11,0,.16a18.8,18.8,0,0,0,1,2.62,68.72,68.72,0,0,1,2.58,7.69c.14.53.26,1.08.4,1.62a30.62,30.62,0,0,1,3-11.17l-.3,0c-.29,0-.46-.21-.34-.48a1.34,1.34,0,0,1,.32-.49c.35-.32.73-.62,1.09-.92a.24.24,0,0,0,.1-.12l-.52.2A2.9,2.9,0,0,1,12.76,7a.86.86,0,0,1-.32-.1c-.16-.07-.31-.19-.26-.37a.54.54,0,0,1,.29-.32,1.79,1.79,0,0,1,.65-.13,4.82,4.82,0,0,1,.76,0c.25,0,.49,0,.75,0l-.15-.07c-.4-.21-.83-.39-1.21-.64a2.12,2.12,0,0,1-.49-.61.34.34,0,0,1,.07-.43.35.35,0,0,1,.43,0,3.5,3.5,0,0,1,.63.43c.27.25.5.53.75.8a.5.5,0,0,0,.17.15l-.28-.53a2.67,2.67,0,0,1-.36-1.16,1.26,1.26,0,0,1,.11-.51.32.32,0,0,1,.59,0,2.52,2.52,0,0,1,.27.77,8.81,8.81,0,0,1,.11,1,8.4,8.4,0,0,1,.25-1A2.49,2.49,0,0,1,16,3.56a.41.41,0,0,1,.5-.11.38.38,0,0,1,.16.47,4.89,4.89,0,0,1-.31.8c-.11.23-.27.44-.38.69.05,0,.09-.09.15-.13A9.69,9.69,0,0,1,17,4.62a1.36,1.36,0,0,1,.57-.13.36.36,0,0,1,.38.21.36.36,0,0,1-.12.44,2,2,0,0,1-.52.36c-.56.22-1.13.42-1.68.62-.23-.25-.4-.3-.59-.18a.35.35,0,0,0-.16.42c.05.18.19.26.52.26a4.27,4.27,0,0,1,.14,2,1,1,0,0,1-.23.41.34.34,0,0,1-.63-.17,3,3,0,0,1,0-.85,5.93,5.93,0,0,1,.19-.81,25.47,25.47,0,0,0-2.9,7,27.36,27.36,0,0,0-.89,7.6,23.69,23.69,0,0,1,4.14-7.68,11.14,11.14,0,0,1-1.34.17,1.37,1.37,0,0,1-.73-.21.44.44,0,0,1,.06-.83,2.56,2.56,0,0,1,.9-.2c.64,0,1.28.07,1.92.11a.69.69,0,0,0,.24,0l-.25-.1a6.6,6.6,0,0,1-1.69-.87,1.62,1.62,0,0,1-.62-.79.53.53,0,0,1,.1-.6.47.47,0,0,1,.59,0,4.33,4.33,0,0,1,.89.63c.39.37.73.8,1.1,1.21l.16.15Zm-.88,1.18,0,.06.57-.4,0-.05Z"/><path class="cls-4" d="M6,6.4c-.26-.46-.53-.9-.76-1.37a4.47,4.47,0,0,1-.6-2.26,1.92,1.92,0,0,1,.19-.66A.61.61,0,0,1,5.92,2a2.31,2.31,0,0,1,.43,1.11c.09.67.13,1.33.2,2a1.31,1.31,0,0,1,0,.28c.15-.66.28-1.32.45-2A2.49,2.49,0,0,1,7.63,2.3a2,2,0,0,1,.64-.39.54.54,0,0,1,.75.5,2.4,2.4,0,0,1-.11.84A8.32,8.32,0,0,1,7.75,5.38a1.24,1.24,0,0,0-.17.3l.15-.14A7.42,7.42,0,0,1,9.55,4.11,1.91,1.91,0,0,1,11,3.85a.6.6,0,0,1,.34,1.05,3.42,3.42,0,0,1-.82.64,13.43,13.43,0,0,1-3,1.11l-.32.08a.69.69,0,0,0-.61-.38.84.84,0,0,0-.32.08.16.16,0,0,1-.23,0Z"/><path class="cls-4" d="M7.18,6.8l.56,0A8.43,8.43,0,0,1,10.53,7a3.3,3.3,0,0,1,.89.42,1.25,1.25,0,0,1,.41.47.58.58,0,0,1-.41.88,2.06,2.06,0,0,1-1.1-.07,11.43,11.43,0,0,1-2.45-1,.61.61,0,0,0-.24-.07,9.41,9.41,0,0,1,.84.66A15.6,15.6,0,0,1,9.72,9.54a1.69,1.69,0,0,1,.41,1.23.62.62,0,0,1-1,.55,3.08,3.08,0,0,1-.68-.62,12.53,12.53,0,0,1-1.58-3,.19.19,0,0,1,0-.16A.75.75,0,0,0,7.18,6.8Z"/><path class="cls-4" d="M16.62,12.91l-.06-.1c-.24-.47-.5-.94-.72-1.42a2.36,2.36,0,0,1-.24-1.19,1.19,1.19,0,0,1,.18-.53.41.41,0,0,1,.72-.05,2.29,2.29,0,0,1,.35.82c.09.46.11.94.16,1.41a1,1,0,0,0,0,.23,8.53,8.53,0,0,1,.2-1,7.12,7.12,0,0,1,.41-1,.94.94,0,0,1,.58-.49.44.44,0,0,1,.61.41,1.86,1.86,0,0,1-.16.74c-.26.53-.56,1-.83,1.54l.12-.11c.43-.33.84-.68,1.29-1a1.2,1.2,0,0,1,1-.16.43.43,0,0,1,.24.7,2.2,2.2,0,0,1-.62.52,9.15,9.15,0,0,1-2.15.81c-.18.05-.34.11-.5-.09a.38.38,0,0,0-.47-.08Z"/><path class="cls-4" d="M17.79,13.71a9,9,0,0,1,.83.67,7.29,7.29,0,0,1,.84,1,1.43,1.43,0,0,1,.19.74.44.44,0,0,1-.72.38,1.76,1.76,0,0,1-.49-.45,8.45,8.45,0,0,1-1.16-2.18.16.16,0,0,1,0-.15.52.52,0,0,0,.16-.54,6.55,6.55,0,0,1,2.68.17,1.25,1.25,0,0,1,.71.5c.24.37.06.77-.38.75a3.62,3.62,0,0,1-1.09-.19c-.48-.17-.93-.41-1.39-.62a1.24,1.24,0,0,1-.2-.1Z"/><path class="cls-4" d="M6,6.39c.1.23-.13.36-.16.55H5.73c-.42-.16-.85-.33-1.27-.51a6.37,6.37,0,0,1-1.67-1A1.8,1.8,0,0,1,2,4.21a.6.6,0,0,1,.81-.67,2.59,2.59,0,0,1,1.21.75c.61.63,1.19,1.3,1.78,2L6,6.4Z"/><path class="cls-4" d="M16,6.63c.27.26.62.58.93.92a.94.94,0,0,1,.28.85.32.32,0,0,1-.49.24,1,1,0,0,1-.33-.26,6.2,6.2,0,0,1-.94-1.71s0-.09,0-.13.11-.24.19-.41a4.34,4.34,0,0,1,2.07.19,1.24,1.24,0,0,1,.41.35.32.32,0,0,1-.26.53,1.74,1.74,0,0,1-.64-.08C16.79,7,16.35,6.78,16,6.63Z"/></g></g></svg>