<svg xmlns="http://www.w3.org/2000/svg" viewBox="0 0 38.55 24.66"><defs><style>.cls-1{isolation:isolate;}.cls-2{opacity:0.15;}.cls-2,.cls-3{mix-blend-mode:multiply;}.cls-4{fill:#fff;}</style></defs><title>convert-CUSTOMIZE-SVG-03</title><g class="cls-1"><g id="Layer_1" data-name="Layer 1"><g class="cls-2"><path d="M7.2,18a4.47,4.47,0,0,1,1.07,1.74,4,4,0,0,1,.18,1.49.66.66,0,0,1-.15.33c-.15.19-.34.37-.51.55l0,0c0-.4-.06-.8-.13-1.19-.11-.72-.24-1.43-.38-2.14A2,2,0,0,0,7,18.13c-.19-.29-.44-.27-.63,0a3.51,3.51,0,0,0-.56,1.71c0,.68,0,1.35-.08,2-.23-.12-.5-.24-.75-.39-.07,0-.09-.18-.11-.28a3.39,3.39,0,0,1,.42-2A12.46,12.46,0,0,1,6,18.06l.17-.22a2.35,2.35,0,0,0-.33,0L4.23,18c-.27,0-.24,0-.23-.21a4.71,4.71,0,0,0,0-1.06c0-.06-.21-.1-.33-.16-.11.45-.19.87-.3,1.28a8.11,8.11,0,0,1-.9,2.34,3.3,3.3,0,0,1-.6.74,2.55,2.55,0,0,1-.6.35l-.08-.08c.05-.06.08-.15.13-.17A1.46,1.46,0,0,0,2,20.55,5.35,5.35,0,0,0,2.79,19a10.16,10.16,0,0,0,.68-3.78c0-.07,0-.14,0-.24l-.3.2a1.63,1.63,0,0,1-1.83,0,.34.34,0,0,1-.14-.25c0-1.65,0-3.29,0-4.94a1.32,1.32,0,0,1,.07-.32c.07-.34.14-.67.22-1a2.31,2.31,0,0,1,.47-1,1.35,1.35,0,0,1,2-.15.41.41,0,0,0,.3.09A4.13,4.13,0,0,0,5,7.2c.17-.09.18-.24,0-.34a4.41,4.41,0,0,0-1.81-.93,2.27,2.27,0,0,0-1.7.36l-.32.22a.23.23,0,0,1,.1-.32,2.45,2.45,0,0,1,2.43-.31c.47.2.9.51,1.35.75a.58.58,0,0,0,.3.11,8.42,8.42,0,0,1,3.46.72.42.42,0,0,0,.27,0,3.43,3.43,0,0,1,1.58-.33,1.77,1.77,0,0,1,1.4.8,2.9,2.9,0,0,1-.26,3.62.46.46,0,0,0-.12.43c.08.48.13,1,.19,1.47a5.23,5.23,0,0,1,2.5-.93V11.18c-.07.09-.15.2-.23.29s-.49.26-.64.11-.11-.45.12-.66.26-.19.42-.31l-.4-.14c-.32-.12-.48-.4-.37-.61s.4-.23.68-.06c.12.07.23.16.37.26V9.87a2.74,2.74,0,0,1,.07-.5.33.33,0,0,1,.38-.27.35.35,0,0,1,.3.36.83.83,0,0,1,0,.35,2.44,2.44,0,0,1-.12.35c.34-.11.66-.34,1,0L16.58,8l0,0a3.61,3.61,0,0,1-.3.25.37.37,0,1,1-.52-.53A1.18,1.18,0,0,1,16,7.49a2.44,2.44,0,0,1,.34-.19,1.91,1.91,0,0,1-.26-.09,1.69,1.69,0,0,1-.45-.33.44.44,0,0,1,0-.4c.06-.09.25-.1.39-.14a.23.23,0,0,1,.15,0,.43.43,0,0,0,.48.06c.05-.13.08-.28.14-.41a.34.34,0,0,1,.4-.21.37.37,0,0,1,.28.38,3.41,3.41,0,0,1-.14.55,1,1,0,0,1-.07.15,4.22,4.22,0,0,1,.57-.13.41.41,0,0,1,.49.3.45.45,0,0,1-.39.44c-.13,0-.27,0-.44.05l.3.31c.21.25.22.55,0,.68s-.46,0-.64-.22A2.28,2.28,0,0,1,17,8l-.5,1.85h.87a3.36,3.36,0,0,1-.2-.43.38.38,0,0,1,.19-.5.39.39,0,0,1,.49.22,5.72,5.72,0,0,1,.22.55,1.81,1.81,0,0,1,.18-.27,1.5,1.5,0,0,1,.32-.3.34.34,0,0,1,.45,0,.33.33,0,0,1,0,.43c-.15.19-.32.35-.49.53a2.33,2.33,0,0,1,.39.11.89.89,0,0,1,.33.23.45.45,0,0,1,.05.37.3.3,0,0,1-.39.17,6.61,6.61,0,0,1-.68-.29,3.27,3.27,0,0,1,0,.35,1.27,1.27,0,0,1-.06.39.35.35,0,0,1-.4.27.36.36,0,0,1-.3-.37,3.44,3.44,0,0,1,0-.51,16.8,16.8,0,0,0-1.74,2l.13.09a1.47,1.47,0,0,1,.49,1.43,5.86,5.86,0,0,1-1.48,3.12,12.54,12.54,0,0,1-3,2.45c-.37.24-.75.45-1.14.66a6.4,6.4,0,0,1-.84.39c-.29.1-.58.16-.92.25v.89c0,.12-.05.19-.2.13s0-.26,0-.39c0-.72,0-1.44-.07-2.16,0-.14,0-.21.19-.16L9,21.06c.19,0,.37-.06.54-.11a8.57,8.57,0,0,0,2.1-1,12.9,12.9,0,0,0,3-2.33,7,7,0,0,0,1.31-2,.65.65,0,0,0,0-.2c-.13.2-.26.4-.4.59a3.34,3.34,0,0,1-1,.91,1.3,1.3,0,0,1-1,.14.27.27,0,0,0-.36.2s-.05.08-.07.13c-.41-.07-.49-.2-.3-.54a3.19,3.19,0,0,1-1.37-1.66,4.08,4.08,0,0,1-2.33,2c0,.11,0,.27,0,.32.24.25.09.51.08.76s0,.5-.08.75L9.12,19c-.37-.24-.75-.46-1.1-.72A1.09,1.09,0,0,0,7.2,18ZM1.29,9.94a7.29,7.29,0,0,1,2.35,6.38c.24.08.48.07.71.13.53.12,1.08.16,1.61.23.07,0,.14,0,.19-.05a6.35,6.35,0,0,1-.67-.73,3.34,3.34,0,0,1-.42-2.41A2.93,2.93,0,0,1,8,11a3.54,3.54,0,0,1,2.59,1.06s0,0,.07.05,0-.14,0-.18a1.92,1.92,0,0,1,.18-.22c.07.07.16.12.2.2a.61.61,0,0,1-.12.7,4.12,4.12,0,0,1-.83,3.77,5.62,5.62,0,0,0,.78-.76,4.05,4.05,0,0,0,.69-3.06,8.57,8.57,0,0,0-.92-2.93,3.93,3.93,0,0,0-.93-1.35A5.68,5.68,0,0,0,7,7.09C6.42,7,5.88,7,5.34,6.91a.79.79,0,0,1-.18.4,1.74,1.74,0,0,1-1.09.42.47.47,0,0,0-.26.08c-.6.42-1.18.86-1.78,1.26-.28.19-.58.34-.65.72A.4.4,0,0,1,1.29,9.94Zm7,6.87a2,2,0,0,0,1.92-.88,3.8,3.8,0,0,0,.7-2.42,1.94,1.94,0,0,0-1.06-1.76,5.58,5.58,0,0,0-1.14-.43,2.88,2.88,0,0,0-3.2,1.37,3.21,3.21,0,0,0-.17,2.45,1.9,1.9,0,0,0,1.15,1.37s.09,0,.09,0c0,.19.16.14.26.17.44.11.93,0,1.34.27h0ZM9.2,7.62c.31.25.59.48.88.7a.38.38,0,0,0,.21,0c.21,0,.42,0,.63,0a1,1,0,0,1,1,.8,1.23,1.23,0,0,1-.41,1.44.26.26,0,0,0-.09.19c.06.22.14.44.21.66h.05a2.67,2.67,0,0,0,.16-3.53,1.74,1.74,0,0,0-.72-.5A2.53,2.53,0,0,0,9.2,7.62Zm6.19,5,0,0,1.82-2.13c-.36.06-.71.1-.93-.27Zm-.07-.82-.51-.35c0,.2-.05.39-.08.59s0,.32.31.39Zm-.11-1,.38.35.17-.45Z"/><path d="M16.8,19.41l.23-.2c-.13-.31-.26-.61-.37-.92a1,1,0,0,1,0-.42.46.46,0,0,1,.19-.27.37.37,0,0,1,.31.13,1.59,1.59,0,0,1,.18.57,3.78,3.78,0,0,1,0,.75c0,.13,0,.2.1.17.25-.22.49-.45.75-.65a1.15,1.15,0,0,1,.47-.23.29.29,0,0,1,.29.08.36.36,0,0,1,0,.32,1.19,1.19,0,0,1-.37.34,4.26,4.26,0,0,1-.78.28c-.19,0-.26.13-.21.3.33.11.65.21,1,.34a.93.93,0,0,1,.36.29.33.33,0,0,1,.05.3.29.29,0,0,1-.26.12,1.07,1.07,0,0,1-.49-.17,4.45,4.45,0,0,1-.56-.51c-.11-.1-.19-.25-.38-.16s-.12,0-.19,0c-.06.25-.09.51-.17.76a2.1,2.1,0,0,1-.29.58c-.07.09-.29.17-.36.12A.45.45,0,0,1,16,21a.84.84,0,0,1,.16-.43,5.62,5.62,0,0,1,.55-.64.25.25,0,0,0,.05-.38l-.25,0-.86.05a.91.91,0,0,1-.37-.08c-.15-.05-.31-.14-.28-.33A.31.31,0,0,1,15.4,19a4.66,4.66,0,0,1,.84.19A5.85,5.85,0,0,1,16.8,19.41Z"/><path d="M12.3,21.86l.1-.14c-.07-.18-.16-.38-.23-.59s0-.41.13-.41.26.17.28.34,0,.35,0,.52a1.29,1.29,0,0,0,0,.19l.15-.1c.16-.14.3-.29.47-.42s.26-.14.36,0,0,.28-.15.34a6,6,0,0,1-.58.25.81.81,0,0,0-.14.12.88.88,0,0,0,.15.12c.18.08.37.13.55.22s.25.17.17.31-.26.11-.38,0a2,2,0,0,1-.39-.32.36.36,0,0,0-.43-.15c0,.14-.05.3-.1.46a1.62,1.62,0,0,1-.19.37c0,.06-.19.11-.22.08a.24.24,0,0,1-.1-.24,1.41,1.41,0,0,1,.22-.42c.07-.1.17-.17.24-.27a.23.23,0,0,0,0-.16s-.09,0-.14,0l-.63,0c-.16,0-.35,0-.37-.25s.21-.22.43-.15S12.05,21.76,12.3,21.86Z"/><path d="M9.69,4.9c-.15.18-.25.33-.37.46s-.2.18-.3.06,0-.23.11-.29a2.55,2.55,0,0,1,.39-.24.38.38,0,0,0,.1-.12L9.5,4.7a2.18,2.18,0,0,1-.45-.16c-.08,0-.1-.18-.15-.26s.22,0,.3,0a2.1,2.1,0,0,1,.33.26.67.67,0,0,0,.18.11,1.41,1.41,0,0,0,.06-.22c0-.14,0-.28,0-.42s.11-.1.17-.15.12.14.11.21A1.66,1.66,0,0,1,10,4.5c0,.06-.06.12-.08.18l0,0,.26-.11a2.47,2.47,0,0,1,.36-.11.5.5,0,0,1,.21.1c-.05.06-.1.17-.16.18a2.74,2.74,0,0,1-.5,0l-.16,0L10,5a4,4,0,0,1,.35.36s0,.13,0,.21-.18,0-.21,0-.17-.27-.27-.4S9.76,5,9.69,4.9Z"/><path d="M5.35,3.22A3,3,0,0,1,5.81,3c.12,0,.31-.1.35.07s-.15.21-.29.22-.25,0-.38,0a.35.35,0,0,0-.13.05.26.26,0,0,0,.07.11c.11.12.24.21.34.34s0,.16,0,.24-.2,0-.24-.06a2.64,2.64,0,0,1-.23-.35,1.31,1.31,0,0,0-.2-.21c0,.05-.11.1-.16.16s-.21.23-.32.33-.13,0-.19,0,0-.18,0-.21.3-.21.44-.32A.61.61,0,0,0,5,3.28a1.4,1.4,0,0,0-.17-.09A3.76,3.76,0,0,1,4.41,3c-.06,0-.07-.13-.1-.21s.19-.06.25,0A4.46,4.46,0,0,1,5,3.09a.69.69,0,0,0,.15.07A1,1,0,0,0,5.2,3a3.59,3.59,0,0,1,0-.47c0-.06.11-.11.18-.16s.11.15.1.22a1.85,1.85,0,0,1-.12.4c0,.06-.06.12-.08.18Z"/><path d="M5.84,11.11a.66.66,0,0,1-.64.67.62.62,0,0,1-.63-.64.66.66,0,0,1,.64-.68A.63.63,0,0,1,5.84,11.11Z"/><path d="M8.17,13.11c.11-.18.23-.33.32-.5a.19.19,0,0,1,.25-.09l1.07.25a.38.38,0,0,1,.3.23c.06.14.14.27.21.41l-.75.76a1.15,1.15,0,0,0-.16,1.14l.74-.31c.14.34.14.34-.16.48l-.82.41-.26-.56c-.31.14-.61.27-.9.42-.12.05-.19.05-.27-.05s-.35-.4-.55-.62l.37-.27c.12.14.25.28.37.43a.17.17,0,0,0,.25,0c.16-.1.34-.17.5-.28a.61.61,0,0,0,.23-.27.64.64,0,0,0-.14-.84A8,8,0,0,1,8.17,13.11Z"/><path d="M7.4,18.22A4.47,4.47,0,0,1,8.47,20a3.94,3.94,0,0,1,.18,1.48.74.74,0,0,1-.15.34c-.16.19-.34.37-.51.55l0,0c0-.4-.06-.8-.13-1.19-.11-.72-.24-1.44-.39-2.15a1.85,1.85,0,0,0-.27-.63c-.19-.29-.44-.27-.63,0A3.51,3.51,0,0,0,6,20.05c0,.67-.06,1.35-.08,2-.23-.12-.5-.24-.75-.39-.07,0-.1-.18-.11-.28a3.37,3.37,0,0,1,.42-2,11.19,11.19,0,0,1,.72-1.12L6.33,18A2.35,2.35,0,0,0,6,18l-1.56.22c-.27,0-.25,0-.23-.21a6.27,6.27,0,0,0,0-1.06c0-.06-.21-.11-.33-.16-.11.45-.19.87-.3,1.28a8.41,8.41,0,0,1-.9,2.34,3.54,3.54,0,0,1-.6.74,3,3,0,0,1-.6.35l-.08-.08c0-.06.07-.15.13-.17a1.46,1.46,0,0,0,.69-.51A5.73,5.73,0,0,0,3,19.18a10.16,10.16,0,0,0,.68-3.78c0-.07,0-.14,0-.24l-.3.2a1.65,1.65,0,0,1-1.84,0,.36.36,0,0,1-.13-.25c0-1.65,0-3.29,0-4.94a1.83,1.83,0,0,1,.07-.32c.08-.34.15-.67.22-1a2.44,2.44,0,0,1,.48-1,1.36,1.36,0,0,1,2-.16.38.38,0,0,0,.3.1,5,5,0,0,0,.75-.32c.17-.09.18-.24.05-.34a4.35,4.35,0,0,0-1.81-.93,2.27,2.27,0,0,0-1.7.36,3.05,3.05,0,0,0-.32.22.23.23,0,0,1,.1-.32,2.45,2.45,0,0,1,2.43-.31,14.89,14.89,0,0,1,1.35.75.68.68,0,0,0,.3.11A8.42,8.42,0,0,1,9,7.66a.42.42,0,0,0,.27,0,3.43,3.43,0,0,1,1.58-.33,1.78,1.78,0,0,1,1.4.8A2.91,2.91,0,0,1,12,11.73a.45.45,0,0,0-.12.43c.08.48.13,1,.19,1.47a5.23,5.23,0,0,1,2.5-.93V11.38a3.07,3.07,0,0,1-.24.29c-.21.22-.48.26-.63.11a.47.47,0,0,1,.11-.66c.13-.11.27-.2.43-.31l-.4-.14c-.32-.12-.48-.4-.37-.61s.4-.23.68-.07c.12.07.23.17.37.27a1.33,1.33,0,0,1,0-.2,4.1,4.1,0,0,1,.06-.49A.34.34,0,0,1,15,9.3a.35.35,0,0,1,.3.35,1.46,1.46,0,0,1,0,.36,2.44,2.44,0,0,1-.12.35c.34-.12.66-.34,1,0l.6-2.13-.05,0c-.1.08-.19.17-.3.25a.37.37,0,1,1-.52-.53,1.56,1.56,0,0,1,.28-.23c.09-.06.19-.1.34-.18a1.91,1.91,0,0,1-.26-.09,1.69,1.69,0,0,1-.45-.33.44.44,0,0,1,0-.4c.06-.09.25-.11.38-.14a.24.24,0,0,1,.16,0,.43.43,0,0,0,.48.06c.05-.14.08-.28.14-.41a.35.35,0,0,1,.67.17,2.59,2.59,0,0,1-.13.55s0,.09-.07.15A4.22,4.22,0,0,1,18,7a.41.41,0,0,1,.49.3.45.45,0,0,1-.39.44c-.13,0-.27,0-.44,0a4,4,0,0,1,.29.31c.22.25.23.55,0,.68s-.46,0-.64-.22a3,3,0,0,1-.18-.32l-.5,1.85h.87a3.36,3.36,0,0,1-.2-.43.4.4,0,0,1,.19-.51.4.4,0,0,1,.49.23c.08.17.14.35.22.55a1.92,1.92,0,0,1,.18-.28,1.28,1.28,0,0,1,.32-.29.34.34,0,0,1,.45.05.32.32,0,0,1,0,.43,5.89,5.89,0,0,1-.48.53,2,2,0,0,1,.38.11.69.69,0,0,1,.34.23.45.45,0,0,1,0,.37.31.31,0,0,1-.4.17,6.46,6.46,0,0,1-.67-.29,1.83,1.83,0,0,1,0,.34,1.33,1.33,0,0,1-.05.4A.37.37,0,0,1,18,12a.36.36,0,0,1-.29-.37,3.44,3.44,0,0,1,0-.51,17.83,17.83,0,0,0-1.75,2l.14.09a1.46,1.46,0,0,1,.49,1.42,5.86,5.86,0,0,1-1.48,3.13,12.54,12.54,0,0,1-3,2.45c-.37.24-.75.45-1.14.66a6,6,0,0,1-.85.39c-.28.1-.58.16-.92.25v.89c0,.12,0,.19-.19.13v-.4c0-.72,0-1.43-.07-2.15,0-.14,0-.21.19-.16l.1,1.46c.19,0,.37-.06.54-.11a9.13,9.13,0,0,0,2.1-1,12.9,12.9,0,0,0,3-2.33,7,7,0,0,0,1.31-2,.65.65,0,0,0,0-.2c-.14.2-.26.4-.41.59a3.19,3.19,0,0,1-1,.91,1.3,1.3,0,0,1-1,.14c-.2,0-.3,0-.36.2l-.07.12c-.41-.07-.49-.19-.31-.53a3.21,3.21,0,0,1-1.36-1.66,4.11,4.11,0,0,1-2.33,2c0,.11,0,.26,0,.32.24.24.09.51.08.76s-.05.5-.08.75l-.07,0c-.37-.24-.75-.46-1.1-.72A1.1,1.1,0,0,0,7.4,18.22ZM1.49,10.14a7.29,7.29,0,0,1,2.35,6.38c.24.08.48.07.71.13.53.12,1.07.16,1.61.23.07,0,.14,0,.18-.05a7.26,7.26,0,0,1-.66-.73,3.29,3.29,0,0,1-.42-2.41,2.91,2.91,0,0,1,3-2.46,3.55,3.55,0,0,1,2.6,1.06s0,0,.07.05,0-.14,0-.18a1.92,1.92,0,0,1,.18-.22c.07.07.16.12.2.2a.59.59,0,0,1-.12.69,4.14,4.14,0,0,1-.83,3.78,5.62,5.62,0,0,0,.78-.76,4.05,4.05,0,0,0,.69-3.06,8.57,8.57,0,0,0-.92-2.93A4.08,4.08,0,0,0,10,8.51,5.59,5.59,0,0,0,7.15,7.29c-.53-.09-1.07-.13-1.61-.18a.79.79,0,0,1-.18.4,1.68,1.68,0,0,1-1.09.41A.48.48,0,0,0,4,8c-.6.42-1.18.86-1.78,1.26-.28.19-.58.34-.65.72A.49.49,0,0,1,1.49,10.14Zm7,6.87a2,2,0,0,0,1.92-.88,3.79,3.79,0,0,0,.69-2.42,1.91,1.91,0,0,0-1-1.76,6.55,6.55,0,0,0-1.14-.44,2.9,2.9,0,0,0-3.2,1.38,3.25,3.25,0,0,0-.18,2.45,1.93,1.93,0,0,0,1.16,1.37s.09,0,.09,0c0,.19.16.14.26.17.44.11.93,0,1.34.27h0ZM9.4,7.82c.31.25.59.48.88.7a.36.36,0,0,0,.21.05c.21,0,.42,0,.63,0a1,1,0,0,1,1,.8,1.23,1.23,0,0,1-.41,1.44.25.25,0,0,0-.09.19c.06.22.14.44.21.66l0,0A2.66,2.66,0,0,0,12,8.1a1.74,1.74,0,0,0-.72-.5A2.53,2.53,0,0,0,9.4,7.82Zm6.19,5,.05,0,1.82-2.13c-.36.06-.71.1-.93-.28ZM15.52,12,15,11.68c0,.2,0,.39-.08.59s0,.32.31.39Zm-.11-1,.38.36.17-.45Z"/><path d="M17,19.61l.24-.2c-.13-.31-.26-.61-.37-.93a.94.94,0,0,1,0-.41c0-.1.11-.25.19-.27a.36.36,0,0,1,.3.12,1.54,1.54,0,0,1,.19.57,4.84,4.84,0,0,1,0,.76c0,.13,0,.2.1.17.25-.22.49-.45.75-.65a1.35,1.35,0,0,1,.46-.24.37.37,0,0,1,.3.08.35.35,0,0,1,0,.33.91.91,0,0,1-.37.33,3.37,3.37,0,0,1-.77.28c-.19.05-.26.13-.21.31.33.11.65.21,1,.34a1,1,0,0,1,.36.28.39.39,0,0,1,.05.31.29.29,0,0,1-.27.12,1.2,1.2,0,0,1-.48-.17,4.52,4.52,0,0,1-.56-.51c-.11-.11-.19-.25-.38-.16s-.13,0-.2,0a6.85,6.85,0,0,1-.16.76,2.13,2.13,0,0,1-.3.58c-.06.09-.28.17-.35.12a.47.47,0,0,1-.16-.37,1,1,0,0,1,.17-.42,4.87,4.87,0,0,1,.55-.64.25.25,0,0,0,.05-.38l-.25,0-.86,0a1.11,1.11,0,0,1-.37-.08c-.15-.05-.31-.15-.28-.33a.31.31,0,0,1,.36-.25,3.94,3.94,0,0,1,.84.19A4.7,4.7,0,0,1,17,19.61Z"/><path d="M12.5,22.06l.1-.14c-.07-.19-.16-.38-.23-.59s0-.41.13-.41.26.17.28.33,0,.36,0,.53a1.33,1.33,0,0,0,.05.19l.15-.1c.15-.14.3-.29.47-.42s.26-.14.35,0,0,.28-.14.34-.39.16-.58.25a.53.53,0,0,0-.15.11.91.91,0,0,0,.16.13c.18.08.37.13.55.22s.25.17.16.31-.25.11-.37,0a1.66,1.66,0,0,1-.39-.31.35.35,0,0,0-.43-.15,4.2,4.2,0,0,1-.11.45,1.21,1.21,0,0,1-.18.38c0,.06-.19.11-.23.08a.29.29,0,0,1-.1-.24,1.72,1.72,0,0,1,.23-.42c.07-.1.17-.18.24-.27a.23.23,0,0,0,0-.16s-.09-.05-.14,0c-.21,0-.42,0-.63,0s-.35,0-.37-.24.21-.22.42-.16S12.24,22,12.5,22.06Z"/><path d="M9.89,5.1c-.15.18-.25.33-.37.46s-.2.18-.3.06,0-.23.11-.29a2,2,0,0,1,.39-.24A.58.58,0,0,0,9.82,5L9.7,4.9a2.2,2.2,0,0,1-.45-.17c-.08,0-.11-.17-.15-.26a.74.74,0,0,1,.3,0,2.08,2.08,0,0,1,.32.27,1.86,1.86,0,0,0,.19.11A1.8,1.8,0,0,0,10,4.64c0-.14,0-.28,0-.42s.11-.1.17-.15.12.14.11.21a3.31,3.31,0,0,1-.12.42.91.91,0,0,1-.09.17l0,0,.26-.11a1.08,1.08,0,0,1,.36-.11.74.74,0,0,1,.21.09c0,.07-.1.18-.16.19a2.81,2.81,0,0,1-.5,0,.43.43,0,0,0-.16.05,1,1,0,0,0,.09.13,4,4,0,0,1,.35.36s0,.13,0,.2-.18,0-.21,0-.17-.27-.27-.4A2.2,2.2,0,0,0,9.89,5.1Z"/><path d="M5.55,3.42A3.76,3.76,0,0,1,6,3.22c.12,0,.31-.09.35.07s-.15.21-.29.23-.25,0-.38,0a.84.84,0,0,0-.14.06,1.05,1.05,0,0,0,.07.11A3.76,3.76,0,0,1,6,4c0,.05,0,.16,0,.24s-.2,0-.25-.06S5.6,4,5.52,3.85a2,2,0,0,0-.2-.21l-.17.16c-.1.11-.2.23-.31.33s-.13,0-.2,0,0-.18,0-.21.29-.21.44-.32l.15-.13a1.4,1.4,0,0,0-.17-.09,3.76,3.76,0,0,1-.46-.2c-.06,0-.07-.14-.1-.21s.19-.06.24,0a2.79,2.79,0,0,1,.43.34s.1,0,.15.07A.77.77,0,0,0,5.4,3.2a2.37,2.37,0,0,1,0-.46c0-.06.11-.11.17-.17s.12.16.11.23a2,2,0,0,1-.12.4l-.09.18Z"/><path d="M6,11.31A.66.66,0,0,1,5.4,12a.62.62,0,0,1-.63-.65.66.66,0,0,1,.64-.67A.63.63,0,0,1,6,11.31Z"/><path d="M8.37,13.31l.32-.5c.06-.11.13-.12.24-.09L10,13a.37.37,0,0,1,.29.22c.07.15.14.28.22.42l-.75.76a1.14,1.14,0,0,0-.16,1.14l.74-.32c.14.35.14.34-.16.49l-.82.41-.26-.56-.91.41c-.11.06-.18.06-.26,0s-.36-.4-.55-.61L7.75,15c.13.14.26.28.38.43s.14.1.25,0,.34-.16.5-.27a.61.61,0,0,0,.23-.27A.64.64,0,0,0,9,14.09,9.46,9.46,0,0,1,8.37,13.31Z"/></g><g class="cls-3"><path d="M7.06,17.88a4.47,4.47,0,0,1,1.07,1.74,3.94,3.94,0,0,1,.18,1.48.67.67,0,0,1-.15.33c-.16.2-.34.38-.51.56L7.6,22c0-.4-.06-.8-.13-1.19-.11-.72-.24-1.44-.39-2.15A1.85,1.85,0,0,0,6.81,18c-.19-.29-.44-.28-.63,0a3.51,3.51,0,0,0-.56,1.71c0,.67-.06,1.35-.08,2-.23-.12-.5-.24-.75-.39-.07,0-.1-.18-.11-.28a3.37,3.37,0,0,1,.42-2,11.19,11.19,0,0,1,.72-1.12L6,17.7a2.35,2.35,0,0,0-.34,0l-1.57.22c-.26,0-.24,0-.22-.21a6.27,6.27,0,0,0,0-1.06c0-.06-.21-.11-.34-.16-.1.45-.18.87-.29,1.28a8.41,8.41,0,0,1-.9,2.34,3.54,3.54,0,0,1-.6.74,3,3,0,0,1-.6.35L1,21.09c0-.06.07-.15.13-.17a1.46,1.46,0,0,0,.69-.51,5.44,5.44,0,0,0,.81-1.57,10,10,0,0,0,.69-3.78c0-.07,0-.14,0-.24L3,15a1.65,1.65,0,0,1-1.84,0A.36.36,0,0,1,1,14.74c0-1.65,0-3.29,0-4.94a1.83,1.83,0,0,1,.07-.32c.08-.34.15-.67.22-1a2.44,2.44,0,0,1,.48-1,1.36,1.36,0,0,1,2-.16.38.38,0,0,0,.3.1,5,5,0,0,0,.75-.32C5,7,5,6.82,4.89,6.72a4.35,4.35,0,0,0-1.81-.93,2.27,2.27,0,0,0-1.7.36,3.05,3.05,0,0,0-.32.22.23.23,0,0,1,.1-.32,2.45,2.45,0,0,1,2.43-.31,14.89,14.89,0,0,1,1.35.75.68.68,0,0,0,.3.11,8.42,8.42,0,0,1,3.46.72A.42.42,0,0,0,9,7.3,3.43,3.43,0,0,1,10.55,7a1.78,1.78,0,0,1,1.4.8,2.91,2.91,0,0,1-.26,3.62.45.45,0,0,0-.12.43c.08.48.13,1,.19,1.47a5.23,5.23,0,0,1,2.5-.93V11a3.07,3.07,0,0,1-.24.29c-.21.22-.48.26-.63.11a.47.47,0,0,1,.11-.66c.13-.11.27-.2.43-.31l-.4-.14c-.32-.13-.48-.4-.37-.61s.4-.23.68-.07c.12.07.23.17.37.27a1.33,1.33,0,0,1,0-.2,4.1,4.1,0,0,1,.06-.49A.33.33,0,0,1,14.65,9a.36.36,0,0,1,.31.35,1.46,1.46,0,0,1,0,.36,2.44,2.44,0,0,1-.12.35c.34-.12.66-.35,1,0l.6-2.13-.05,0c-.1.08-.19.17-.3.25a.37.37,0,1,1-.52-.53,1.56,1.56,0,0,1,.28-.23c.09-.06.19-.1.34-.18a1.91,1.91,0,0,1-.26-.09,1.69,1.69,0,0,1-.45-.33.44.44,0,0,1,0-.4c.06-.09.25-.11.38-.14a.24.24,0,0,1,.16,0,.43.43,0,0,0,.48.06c.05-.14.08-.28.14-.41a.35.35,0,0,1,.67.17,2.59,2.59,0,0,1-.13.55s0,.09-.07.15a4.22,4.22,0,0,1,.57-.13.41.41,0,0,1,.49.3.45.45,0,0,1-.39.44,2.76,2.76,0,0,1-.44,0c.11.12.21.22.29.32s.23.55,0,.68-.46,0-.64-.22a3,3,0,0,1-.18-.32l-.5,1.85h.87A3.36,3.36,0,0,1,17,9.3a.4.4,0,0,1,.19-.51.4.4,0,0,1,.49.23c.08.16.14.35.22.55a1.92,1.92,0,0,1,.18-.28A1.11,1.11,0,0,1,18.39,9a.34.34,0,0,1,.45.05.32.32,0,0,1,0,.43,5.89,5.89,0,0,1-.48.53,2,2,0,0,1,.38.11.69.69,0,0,1,.34.23.45.45,0,0,1,0,.37.31.31,0,0,1-.4.17,6.46,6.46,0,0,1-.67-.29,1.83,1.83,0,0,1,0,.34,1.33,1.33,0,0,1-.05.4.35.35,0,0,1-.7-.1,3.44,3.44,0,0,1,0-.51,17.83,17.83,0,0,0-1.75,2,.48.48,0,0,1,.14.09,1.48,1.48,0,0,1,.49,1.42,5.86,5.86,0,0,1-1.48,3.13,12.54,12.54,0,0,1-3,2.45q-.55.34-1.14.66a6,6,0,0,1-.85.39c-.28.1-.58.16-.92.25V22c0,.12,0,.19-.19.13v-.4c0-.72,0-1.43-.07-2.15,0-.14,0-.21.19-.16l.1,1.46c.19,0,.37-.06.54-.11a9.13,9.13,0,0,0,2.1-1,12.9,12.9,0,0,0,3-2.33,7,7,0,0,0,1.31-2,.65.65,0,0,0,0-.2c-.14.2-.26.4-.41.59a3.19,3.19,0,0,1-1,.91,1.3,1.3,0,0,1-1,.14c-.2,0-.3,0-.36.2l-.07.12c-.41-.07-.49-.19-.31-.53A3.21,3.21,0,0,1,11.36,15,4.11,4.11,0,0,1,9,17c0,.11,0,.26,0,.32.24.24.09.51.08.76s-.05.5-.08.75L9,18.88c-.37-.24-.75-.46-1.1-.72A1.1,1.1,0,0,0,7.06,17.88ZM1.15,9.8A7.29,7.29,0,0,1,3.5,16.18c.24.08.48.07.71.13.53.12,1.07.16,1.61.23.07,0,.14,0,.18-.05a7.26,7.26,0,0,1-.66-.73,3.29,3.29,0,0,1-.42-2.41,2.91,2.91,0,0,1,3-2.46A3.55,3.55,0,0,1,10.48,12s0,0,.07.05,0-.14,0-.18a1.92,1.92,0,0,1,.18-.22c.07.07.16.12.2.2a.59.59,0,0,1-.12.69A4.14,4.14,0,0,1,10,16.27a5.62,5.62,0,0,0,.78-.76,4.05,4.05,0,0,0,.69-3.06,8.57,8.57,0,0,0-.92-2.93,4.08,4.08,0,0,0-.93-1.35A5.69,5.69,0,0,0,6.81,6.94c-.53-.08-1.07-.12-1.61-.17a.79.79,0,0,1-.18.4,1.68,1.68,0,0,1-1.09.41.41.41,0,0,0-.26.09c-.6.42-1.18.86-1.78,1.26-.28.19-.58.34-.65.72A.49.49,0,0,1,1.15,9.8Zm7,6.87a2,2,0,0,0,1.92-.88,3.79,3.79,0,0,0,.69-2.42,1.91,1.91,0,0,0-1-1.76,6.55,6.55,0,0,0-1.14-.44,2.9,2.9,0,0,0-3.2,1.38A3.25,3.25,0,0,0,5.21,15a1.93,1.93,0,0,0,1.16,1.37s.09,0,.09,0c0,.19.16.14.26.17.44.11.93,0,1.34.27h0Zm.89-9.19c.31.25.59.48.88.7a.36.36,0,0,0,.21.05c.21,0,.42,0,.63,0a1,1,0,0,1,1,.8,1.23,1.23,0,0,1-.41,1.44.25.25,0,0,0-.09.19c.06.22.14.44.21.66l0,0a2.66,2.66,0,0,0,.16-3.52,1.74,1.74,0,0,0-.72-.5A2.49,2.49,0,0,0,9.06,7.48Zm6.19,5,.05,0,1.82-2.13c-.36.06-.71.1-.93-.28Zm-.07-.81-.51-.35c0,.2-.05.39-.08.59s0,.32.31.39Zm-.11-1,.38.36.17-.45Z"/><path d="M16.65,19.27l.24-.2c-.13-.31-.26-.61-.37-.93a.94.94,0,0,1,0-.41c0-.1.11-.25.19-.27a.36.36,0,0,1,.3.12,1.54,1.54,0,0,1,.19.57,4.84,4.84,0,0,1,0,.76c0,.13,0,.2.1.17.25-.22.49-.45.75-.65a1.35,1.35,0,0,1,.46-.24.37.37,0,0,1,.3.08.35.35,0,0,1,0,.33.91.91,0,0,1-.37.33,3.37,3.37,0,0,1-.77.28c-.19.05-.26.13-.21.31.33.11.65.21,1,.34a1,1,0,0,1,.36.28.39.39,0,0,1,.05.31.29.29,0,0,1-.27.12A1.2,1.2,0,0,1,18,20.4a4.52,4.52,0,0,1-.56-.51c-.11-.11-.19-.25-.38-.16s-.13,0-.2,0a6.85,6.85,0,0,1-.16.76,2.13,2.13,0,0,1-.3.58c-.06.09-.28.17-.35.12a.47.47,0,0,1-.16-.37,1,1,0,0,1,.17-.42,4.87,4.87,0,0,1,.55-.64.25.25,0,0,0,.05-.38l-.25,0-.86,0a1.23,1.23,0,0,1-.38-.08c-.14-.05-.3-.15-.27-.33a.31.31,0,0,1,.36-.25,3.94,3.94,0,0,1,.84.19A4.7,4.7,0,0,1,16.65,19.27Z"/><path d="M12.16,21.72l.1-.14c-.07-.19-.16-.38-.23-.59s0-.41.13-.41.26.17.28.33,0,.35,0,.53a1.33,1.33,0,0,0,.05.19l.15-.1c.15-.14.3-.29.47-.42s.26-.14.35,0,0,.28-.14.34-.39.16-.58.25a.53.53,0,0,0-.15.11.91.91,0,0,0,.16.13c.18.08.37.13.55.22s.25.16.16.31-.25.11-.37,0a1.66,1.66,0,0,1-.39-.31.35.35,0,0,0-.43-.15,4.2,4.2,0,0,1-.11.45,1.21,1.21,0,0,1-.18.38c0,.06-.19.11-.23.08a.29.29,0,0,1-.1-.24,1.72,1.72,0,0,1,.23-.42c.07-.1.17-.18.24-.27a.23.23,0,0,0,0-.16s-.09-.05-.14,0c-.21,0-.42,0-.63,0s-.35,0-.37-.24.21-.22.42-.16S11.9,21.62,12.16,21.72Z"/><path d="M9.55,4.75c-.15.19-.25.34-.37.47s-.2.18-.3.06,0-.23.11-.29a2,2,0,0,1,.39-.24.58.58,0,0,0,.1-.12l-.12-.07a2.2,2.2,0,0,1-.45-.17c-.08,0-.11-.17-.15-.26a.74.74,0,0,1,.3,0,2.08,2.08,0,0,1,.32.27,1.86,1.86,0,0,0,.19.11,1.8,1.8,0,0,0,.06-.22c0-.14,0-.28,0-.42s.11-.1.17-.15.12.14.11.21a3.31,3.31,0,0,1-.12.42.91.91,0,0,1-.09.17l0,0L10,4.47a1.08,1.08,0,0,1,.36-.11c.06,0,.14.06.21.09s-.1.18-.16.19a2.81,2.81,0,0,1-.5,0,.43.43,0,0,0-.16.05,1,1,0,0,0,.09.13,3,3,0,0,1,.35.36s0,.13,0,.2-.18,0-.21,0-.17-.27-.27-.4Z"/><path d="M5.21,3.08a3.76,3.76,0,0,1,.46-.2c.12,0,.31-.09.35.07s-.15.21-.29.23-.25,0-.38,0a.84.84,0,0,0-.14.06,1.05,1.05,0,0,0,.07.11,3.76,3.76,0,0,1,.35.34s0,.16,0,.24-.2,0-.25-.06-.14-.24-.22-.35A2,2,0,0,0,5,3.3l-.17.16c-.1.11-.2.23-.31.33s-.13,0-.2,0,0-.18,0-.21.29-.21.44-.32l.15-.13a1.4,1.4,0,0,0-.17-.09c-.15-.07-.32-.12-.46-.2s-.07-.14-.1-.21.19-.06.24,0A2.79,2.79,0,0,1,4.84,3S4.94,3,5,3a.77.77,0,0,0,.07-.16,2.37,2.37,0,0,1,0-.46c0-.06.11-.11.17-.17s.12.16.11.23a2,2,0,0,1-.12.4L5.16,3Z"/><path d="M5.7,11a.66.66,0,0,1-.64.67A.62.62,0,0,1,4.43,11a.66.66,0,0,1,.64-.67A.63.63,0,0,1,5.7,11Z"/><path d="M8,13l.32-.5c.06-.11.13-.12.24-.09l1.08.25a.37.37,0,0,1,.29.22,3.36,3.36,0,0,0,.22.42L9.43,14a1.17,1.17,0,0,0-.16,1.15l.74-.32c.14.35.14.34-.16.49L9,15.75l-.26-.56-.91.41c-.11.06-.18.06-.26,0s-.36-.4-.55-.61l.36-.27c.13.14.26.28.38.43s.14.1.25,0,.34-.16.5-.27a.61.61,0,0,0,.23-.27.64.64,0,0,0-.14-.84A9.46,9.46,0,0,1,8,13Z"/></g><path class="cls-4" d="M7.25,18.08a4.4,4.4,0,0,1,1.07,1.74,3.73,3.73,0,0,1,.19,1.48.67.67,0,0,1-.15.33c-.16.2-.34.38-.51.56l0,0c0-.4-.07-.8-.13-1.2-.11-.71-.24-1.43-.39-2.14A1.7,1.7,0,0,0,7,18.19c-.19-.29-.43-.28-.62,0a3.47,3.47,0,0,0-.56,1.71c-.06.67-.06,1.35-.08,2-.24-.12-.51-.24-.75-.39-.07,0-.1-.18-.11-.28a3.43,3.43,0,0,1,.41-2c.21-.39.48-.75.73-1.12l.17-.22a1.07,1.07,0,0,0-.34,0c-.52.06-1,.13-1.57.22-.27,0-.24,0-.22-.21a6.27,6.27,0,0,0,0-1.06c0-.07-.21-.11-.34-.17-.1.46-.18.88-.29,1.29a8.73,8.73,0,0,1-.9,2.34,3.89,3.89,0,0,1-.6.74,3.5,3.5,0,0,1-.6.35l-.08-.08c0-.06.07-.15.13-.17A1.5,1.5,0,0,0,2,20.61,5.23,5.23,0,0,0,2.84,19a9.79,9.79,0,0,0,.68-3.79,2.37,2.37,0,0,0,0-.24l-.3.2a1.63,1.63,0,0,1-1.84,0,.37.37,0,0,1-.14-.24V10a1.65,1.65,0,0,1,.07-.32c.08-.34.15-.68.22-1a2.55,2.55,0,0,1,.47-1,1.37,1.37,0,0,1,2-.16.34.34,0,0,0,.3.09A4.4,4.4,0,0,0,5,7.26a.2.2,0,0,0,0-.35A4.45,4.45,0,0,0,3.28,6a2.27,2.27,0,0,0-1.7.35l-.32.22a.22.22,0,0,1,.1-.31,2.45,2.45,0,0,1,2.43-.31,14.73,14.73,0,0,1,1.34.75,1,1,0,0,0,.31.11,8.34,8.34,0,0,1,3.45.72.39.39,0,0,0,.28,0,3.42,3.42,0,0,1,1.58-.32,1.78,1.78,0,0,1,1.4.8,2.91,2.91,0,0,1-.26,3.62.45.45,0,0,0-.12.43c.08.48.12,1,.19,1.46a5.32,5.32,0,0,1,2.5-.92V11.24l-.24.29c-.21.22-.48.26-.63.11A.47.47,0,0,1,13.7,11c.13-.11.27-.2.43-.31l-.4-.14c-.32-.13-.48-.4-.37-.61s.4-.23.68-.07a3.4,3.4,0,0,1,.37.27,1.33,1.33,0,0,1,0-.2,4.26,4.26,0,0,1,.06-.5.34.34,0,0,1,.38-.26.36.36,0,0,1,.31.35,1.46,1.46,0,0,1,0,.36c0,.11-.07.21-.12.35.33-.12.65-.35,1,0l.6-2.13-.05,0-.3.26a.41.41,0,0,1-.56,0,.4.4,0,0,1,0-.54A1.94,1.94,0,0,1,16,7.54l.35-.18a1.91,1.91,0,0,1-.26-.09,1.69,1.69,0,0,1-.45-.33.41.41,0,0,1,0-.4c.06-.09.25-.11.38-.14a.24.24,0,0,1,.16,0,.44.44,0,0,0,.48.06,2.83,2.83,0,0,1,.14-.41.33.33,0,0,1,.4-.21.34.34,0,0,1,.27.38,2.12,2.12,0,0,1-.14.55,1.56,1.56,0,0,1-.06.15,4.46,4.46,0,0,1,.56-.13c.27,0,.48.11.5.3a.46.46,0,0,1-.39.44,2.76,2.76,0,0,1-.44,0c.11.12.2.21.29.32s.23.55,0,.68-.46,0-.65-.22c-.06-.09-.11-.2-.18-.32l-.49,1.85h.87a2.39,2.39,0,0,1-.2-.43A.39.39,0,0,1,17.38,9a.4.4,0,0,1,.49.23c.08.16.14.35.22.55a1.92,1.92,0,0,1,.18-.28,1.31,1.31,0,0,1,.32-.3.35.35,0,0,1,.44.05.33.33,0,0,1,0,.44c-.14.18-.32.34-.49.53a2.09,2.09,0,0,1,.39.11.69.69,0,0,1,.34.23.48.48,0,0,1,.05.37.33.33,0,0,1-.4.17c-.23-.08-.44-.19-.67-.29,0,.1,0,.22,0,.34a1.37,1.37,0,0,1-.05.4.36.36,0,0,1-.7-.1c0-.15,0-.31,0-.52a18.91,18.91,0,0,0-1.74,2L16,13a1.51,1.51,0,0,1,.49,1.43A5.86,5.86,0,0,1,15,17.6a12.4,12.4,0,0,1-3,2.45c-.37.23-.75.45-1.13.66a6.48,6.48,0,0,1-.85.38,8.56,8.56,0,0,1-.92.26v.89c0,.12,0,.19-.19.13V22c0-.72,0-1.44-.07-2.16,0-.13,0-.2.19-.15l.1,1.46c.19,0,.37-.06.54-.11A9.37,9.37,0,0,0,11.72,20a13.08,13.08,0,0,0,3-2.32,7.33,7.33,0,0,0,1.31-2,.65.65,0,0,0,0-.2c-.14.2-.26.4-.41.59a3.19,3.19,0,0,1-1,.91,1.4,1.4,0,0,1-1,.14c-.21,0-.31,0-.37.19a.52.52,0,0,1-.06.13c-.42-.07-.49-.19-.31-.53a3.27,3.27,0,0,1-1.37-1.66,4,4,0,0,1-2.33,2c0,.11,0,.26,0,.32.24.24.09.51.07.76s-.05.5-.07.75l-.07,0c-.37-.24-.75-.46-1.11-.73A1.07,1.07,0,0,0,7.25,18.08ZM1.35,10A7.28,7.28,0,0,1,3.7,16.38a5.85,5.85,0,0,0,.71.12A14.53,14.53,0,0,0,6,16.74a.32.32,0,0,0,.18-.06A5.58,5.58,0,0,1,5.54,16a3.21,3.21,0,0,1-.42-2.4,2.9,2.9,0,0,1,3-2.46,3.43,3.43,0,0,1,2.59,1.06l.08,0a.5.5,0,0,1,0-.19c.05-.07.12-.14.18-.21a.76.76,0,0,1,.2.2.58.58,0,0,1-.13.69,4.14,4.14,0,0,1-.82,3.78A5.17,5.17,0,0,0,11,15.7a4,4,0,0,0,.69-3,8.69,8.69,0,0,0-.92-2.94,4.29,4.29,0,0,0-.93-1.35A5.81,5.81,0,0,0,7,7.14C6.48,7.05,5.93,7,5.4,7a.79.79,0,0,1-.18.4,1.73,1.73,0,0,1-1.09.41.53.53,0,0,0-.27.08c-.59.42-1.17.86-1.77,1.27-.28.19-.58.34-.65.72C1.43,9.9,1.38,9.94,1.35,10Zm7,6.87A2,2,0,0,0,10.29,16,3.75,3.75,0,0,0,11,13.57a1.92,1.92,0,0,0-1.05-1.76,6.55,6.55,0,0,0-1.14-.44,2.9,2.9,0,0,0-3.2,1.38,3.21,3.21,0,0,0-.18,2.45,2,2,0,0,0,1.16,1.37l.09,0c0,.19.16.14.26.17.44.11.93,0,1.34.27h0Zm.89-9.2c.31.25.59.49.88.71a.36.36,0,0,0,.21,0c.21,0,.42,0,.63,0a1,1,0,0,1,1,.8,1.23,1.23,0,0,1-.4,1.44.25.25,0,0,0-.09.19q.09.33.21.66l0,0A2.64,2.64,0,0,0,11.87,8a1.64,1.64,0,0,0-.71-.5A2.52,2.52,0,0,0,9.26,7.67Zm6.19,5,.05,0,1.81-2.13c-.36.06-.7.1-.92-.28Zm-.07-.81-.51-.35c0,.2-.06.39-.08.58s0,.33.31.4Zm-.11-1.05.38.36.17-.45Z"/><path class="cls-4" d="M16.85,19.47l.23-.2c-.12-.31-.26-.62-.36-.93a.82.82,0,0,1,0-.41.38.38,0,0,1,.19-.27.31.31,0,0,1,.3.12,1.48,1.48,0,0,1,.19.57,4.84,4.84,0,0,1,0,.76c0,.13,0,.2.1.17.25-.22.49-.45.75-.66a1.53,1.53,0,0,1,.46-.23.37.37,0,0,1,.3.08.35.35,0,0,1,0,.33.91.91,0,0,1-.37.33,3.37,3.37,0,0,1-.77.28c-.19.05-.26.13-.21.3.33.12.65.22,1,.35a.9.9,0,0,1,.36.28.39.39,0,0,1,.05.31.32.32,0,0,1-.27.12,1.25,1.25,0,0,1-.48-.17,4.61,4.61,0,0,1-.57-.51c-.1-.11-.18-.25-.37-.16s-.13,0-.2,0a6.91,6.91,0,0,1-.17.76,1.71,1.71,0,0,1-.29.57c-.07.09-.28.17-.35.13a.47.47,0,0,1-.16-.37.85.85,0,0,1,.17-.42,4.87,4.87,0,0,1,.55-.64.26.26,0,0,0,.05-.38l-.25,0c-.29,0-.58.05-.87.05a1,1,0,0,1-.37-.07c-.15-.06-.3-.15-.27-.33a.32.32,0,0,1,.36-.26,4.89,4.89,0,0,1,.84.2A3.52,3.52,0,0,1,16.85,19.47Z"/><path class="cls-4" d="M12.36,21.92l.1-.14a5.17,5.17,0,0,1-.23-.59c-.07-.21,0-.42.13-.41s.26.17.27.33a4.69,4.69,0,0,1,0,.53.77.77,0,0,0,0,.19,1.7,1.7,0,0,0,.14-.1c.16-.14.31-.3.47-.42s.27-.14.36,0,0,.27-.14.34-.39.16-.58.25a.53.53,0,0,0-.15.11,1,1,0,0,0,.16.13c.18.07.37.13.54.21s.26.17.17.32-.25.11-.37,0a1.37,1.37,0,0,1-.39-.32.36.36,0,0,0-.43-.14c0,.14-.06.3-.11.45a1.33,1.33,0,0,1-.18.38c-.05.05-.19.11-.23.08a.3.3,0,0,1-.1-.24,2,2,0,0,1,.23-.43c.07-.09.17-.17.24-.26a.19.19,0,0,0,0-.16s-.09,0-.13,0c-.22,0-.43,0-.64,0s-.34,0-.36-.24.21-.22.42-.16S12.1,21.82,12.36,21.92Z"/><path class="cls-4" d="M9.74,5a4.13,4.13,0,0,1-.36.46c-.08.09-.2.19-.3.07s0-.23.11-.29A2,2,0,0,1,9.58,5a.58.58,0,0,0,.1-.12l-.12-.07a3,3,0,0,1-.45-.17C9,4.55,9,4.42,9,4.33a.79.79,0,0,1,.31,0,2,2,0,0,1,.32.27l.18.11a1.11,1.11,0,0,0,.07-.22c0-.14,0-.29,0-.42S10,4,10,3.93s.12.14.11.2a2.58,2.58,0,0,1-.12.42c0,.07-.06.12-.09.18l0,0,.25-.11a1.21,1.21,0,0,1,.37-.11c.06,0,.14.06.21.09s-.1.18-.16.19-.34,0-.5,0a.43.43,0,0,0-.16,0,.54.54,0,0,0,.09.12c.11.13.24.23.35.36s0,.14,0,.21-.17,0-.2,0a3.51,3.51,0,0,1-.27-.4A2.41,2.41,0,0,0,9.74,5Z"/><path class="cls-4" d="M5.41,3.27c.15-.06.3-.14.46-.19s.31-.09.35.07-.15.21-.29.22a2.41,2.41,0,0,1-.38,0s-.09,0-.14.06a.41.41,0,0,0,.07.11,2.81,2.81,0,0,1,.35.34c0,.05,0,.16,0,.24s-.19,0-.24-.06-.14-.24-.22-.35a2,2,0,0,0-.2-.21L5,3.66A3.31,3.31,0,0,1,4.69,4S4.57,4,4.5,4s0-.18,0-.21.29-.21.44-.32l.15-.13a1.4,1.4,0,0,0-.17-.09,4.89,4.89,0,0,1-.46-.2c-.06,0-.07-.14-.1-.21s.19-.07.24,0,.28.22.43.33a.71.71,0,0,0,.15.08c0-.06.06-.11.06-.16s0-.31,0-.46.12-.11.18-.17.12.16.11.23a2.32,2.32,0,0,1-.13.4,1.42,1.42,0,0,1-.08.18Z"/><path class="cls-4" d="M5.9,11.17a.66.66,0,0,1-.64.67.62.62,0,0,1-.63-.65.66.66,0,0,1,.64-.67A.62.62,0,0,1,5.9,11.17Z"/><path class="cls-4" d="M8.22,13.16c.12-.17.23-.33.33-.49s.13-.12.24-.09c.36.09.71.17,1.07.24a.38.38,0,0,1,.3.23c.06.14.14.28.21.42l-.74.75a1.14,1.14,0,0,0-.16,1.15l.74-.32c.14.34.14.34-.16.49L9.23,16,9,15.38l-.9.42a.19.19,0,0,1-.27-.05c-.16-.2-.35-.4-.54-.61l.36-.27A5,5,0,0,1,8,15.3c.08.09.15.09.26,0s.34-.16.5-.27A.87.87,0,0,0,9,14.79.65.65,0,0,0,8.83,14,9.73,9.73,0,0,1,8.22,13.16Z"/></g></g></svg>