<svg xmlns="http://www.w3.org/2000/svg" viewBox="0 0 38.55 24.66"><defs><style>.cls-1{isolation:isolate;}.cls-2{opacity:0.15;}.cls-2,.cls-3{mix-blend-mode:multiply;}.cls-4{fill:#fff;}</style></defs><title>convert-CUSTOMIZE-SVG-03</title><g class="cls-1"><g id="Layer_1" data-name="Layer 1"><g class="cls-2"><path d="M34.92,2.9a2.94,2.94,0,0,1,1.25-.62,1,1,0,0,1,1.14.49,1.67,1.67,0,0,1,.09,1.58A3.66,3.66,0,0,1,36.05,6a10.91,10.91,0,0,1-1,.63.27.27,0,0,1-.23,0,5.3,5.3,0,0,1-2-1.58,2.87,2.87,0,0,1-.54-1.27,1.37,1.37,0,0,1,.92-1.53A1.28,1.28,0,0,1,34,2.4C34.31,2.54,34.6,2.72,34.92,2.9Z"/><path d="M3.7,2.9A3.19,3.19,0,0,1,5,2.27,1,1,0,0,1,6,2.67a1.62,1.62,0,0,1,.2,1.55A3.35,3.35,0,0,1,5,5.89a13.08,13.08,0,0,1-1.18.75.36.36,0,0,1-.25,0,5.32,5.32,0,0,1-2-1.59A2.92,2.92,0,0,1,1,3.76a1.34,1.34,0,0,1,.93-1.49,1.42,1.42,0,0,1,.86.13C3.1,2.55,3.39,2.73,3.7,2.9Z"/><path d="M34.92,19.64A3,3,0,0,1,36.2,19a1,1,0,0,1,1,.36A1.58,1.58,0,0,1,37.45,21a3.3,3.3,0,0,1-.91,1.38,5.76,5.76,0,0,1-1.5,1,.34.34,0,0,1-.26,0,5.13,5.13,0,0,1-2-1.62,2.51,2.51,0,0,1-.52-1.56,1.24,1.24,0,0,1,1-1.19,2,2,0,0,1,.83.13A7.53,7.53,0,0,1,34.92,19.64Z"/><path d="M29.14,19.66A3,3,0,0,1,30.43,19a1,1,0,0,1,1.09.43,1.68,1.68,0,0,1,.13,1.65,3,3,0,0,1-1,1.35,16.64,16.64,0,0,1-1.38.93.27.27,0,0,1-.25,0,5.32,5.32,0,0,1-2-1.57,2.79,2.79,0,0,1-.55-1.42,1.2,1.2,0,0,1,1.62-1.31,6.39,6.39,0,0,1,.93.49Z"/><path d="M3.7,19.64A2.92,2.92,0,0,1,5,19a1,1,0,0,1,1,.37,1.6,1.6,0,0,1,.22,1.56,3.54,3.54,0,0,1-1.4,1.81c-.32.23-.68.42-1,.62a.29.29,0,0,1-.24,0,5.32,5.32,0,0,1-2-1.62A2.75,2.75,0,0,1,1,20.49,1.31,1.31,0,0,1,2,19a1.88,1.88,0,0,1,.84.13A7.53,7.53,0,0,1,3.7,19.64Z"/><path d="M10.13,19.62A3,3,0,0,1,11.37,19a1,1,0,0,1,1.09.43,1.67,1.67,0,0,1,.12,1.67,3.66,3.66,0,0,1-1.39,1.67,10.43,10.43,0,0,1-1,.59.28.28,0,0,1-.25,0,5.33,5.33,0,0,1-2-1.55,2.75,2.75,0,0,1-.56-1.48A1.2,1.2,0,0,1,9,19.07,9.1,9.1,0,0,1,10.13,19.62Z"/><path d="M20.67,22.57c.31-.12.35-.2.25-.46-.17-.46-.17-.46-.65-.46H20c-.35.66-.28.78,0,.92H17.36c.28-.05.32-.26.32-.49V20.83c0-.22-.05-.43-.32-.48h1.75l0,.44c-.22-.55-.69-.39-1.12-.41v1c.38.05.47,0,.6-.33v.75c-.08-.31-.29-.41-.62-.35a7.37,7.37,0,0,0,.05.82.41.41,0,0,0,.19.24.72.72,0,0,0,1-.4s0-.07.06-.16v.62c.22,0,.31-.17.38-.33s.24-.59.36-.88l.41-1c.06.1.11.15.14.21.24.57.47,1.14.72,1.69a1.94,1.94,0,0,0,.3.38Zm0-1-.35-.85L20,21.6Z"/><path d="M25.12,3c.21,0,.47-.07.62,0s.19.36.28.55l.45,1.09.05.05.12-.26c.18-.43.37-.86.55-1.3A.21.21,0,0,1,27.44,3h.46c-.27.07-.31.27-.31.5,0,.41,0,.82,0,1.23s0,.35.31.5H27c.27-.06.31-.27.31-.5a13,13,0,0,0-.05-1.39l-.85,1.92L25.5,3.35c0,.1,0,.15,0,.19V4.75c0,.32,0,.36.3.5h-.66c.3-.08.29-.31.29-.55,0-.41,0-.83,0-1.24A.4.4,0,0,0,25.12,3Z"/><path d="M13.72,3c.41,0,.83,0,1.24,0a.51.51,0,0,1,.53.45c0,.3-.07.45-.41.59t0,0l.65,1.13a1.91,1.91,0,0,1-.34,0,.26.26,0,0,1-.15-.14c-.14-.25-.25-.51-.4-.75s-.21-.22-.45-.19c0,.25,0,.49,0,.74s.08.23.34.33h-1C14,5.18,14,5,14,4.77c0-.45,0-.89,0-1.33C14,3.18,14,3.13,13.72,3Zm.64,1c.35.06.55,0,.68-.22a.58.58,0,0,0,0-.62.57.57,0,0,0-.66-.16V4S14.36,4.05,14.36,4.09Z"/><path d="M13.9,21.49v.65a.39.39,0,0,0,.3.43h-.95c.25-.06.31-.23.31-.46,0-.45,0-.9,0-1.35,0-.26,0-.3-.28-.39.43,0,.87,0,1.31,0a.53.53,0,0,1,.48.56.47.47,0,0,1-.46.51A5.08,5.08,0,0,1,13.9,21.49Zm0-.08c.36.07.56,0,.69-.19a.59.59,0,0,0,0-.64.58.58,0,0,0-.67-.17Z"/><path d="M10.38,4.48a.54.54,0,0,0-.65-.4c0,.31,0,.62,0,.93,0,.09.16.17.24.24H9.06c.27,0,.3-.26.3-.48V3.5c0-.23,0-.42-.3-.48h1.7l0,.44c-.24-.47-.66-.42-1.08-.4V4c.32.08.5,0,.66-.41v.89Z"/><path d="M23.86,3l0,.44a.62.62,0,0,0-.48-.39c-.21,0-.42,0-.64,0V4c.37.06.47,0,.6-.33v.78c-.17-.37-.25-.42-.63-.37,0,.27,0,.54.06.81a.39.39,0,0,0,.18.24.72.72,0,0,0,1-.39.21.21,0,0,1,.08-.11l0,.61H22.11c.27-.07.31-.28.31-.52,0-.41,0-.82,0-1.23,0-.22,0-.42-.31-.48Z"/><path d="M30.18,4.64l0,.6H28.21c.26,0,.31-.24.31-.46,0-.43,0-.87,0-1.31A.4.4,0,0,0,28.21,3H30l0,.43c-.23-.53-.7-.38-1.12-.4V4c.35.07.47,0,.59-.33v.76a1.08,1.08,0,0,0-.21-.3A1.68,1.68,0,0,0,28.83,4c0,.32,0,.6.06.88a.42.42,0,0,0,.19.23.72.72,0,0,0,1-.42l0-.09Z"/><path d="M23.68,20.35h1.74l0,.44c-.23-.55-.7-.39-1.13-.41v1c.39.05.47,0,.61-.33v.75a.48.48,0,0,0-.63-.35,7,7,0,0,0,.05.8.46.46,0,0,0,.19.26.71.71,0,0,0,1-.4.15.15,0,0,1,.08-.1l0,.59-.07,0c-.62,0-1.24,0-1.88,0,.29,0,.33-.25.33-.48V20.83C24,20.6,23.94,20.4,23.68,20.35Z"/><path d="M17.22,22l0,.61H15.25a.39.39,0,0,0,.3-.44V20.77a.37.37,0,0,0-.3-.42h.95c-.25.06-.31.24-.31.46,0,.43,0,.86,0,1.29a.41.41,0,0,0,.43.44.66.66,0,0,0,.81-.52.43.43,0,0,1,0-.07Z"/><path d="M21,4.83c.2-.48.38-.91.54-1.33.07-.19.08-.37-.2-.48H22a.83.83,0,0,0-.48.56l-.63,1.5-.11.21a1.83,1.83,0,0,0-.1-.2c-.21-.55-.43-1.09-.64-1.63-.12-.3-.16-.34-.42-.44h.95c-.07.07-.18.13-.2.21a.62.62,0,0,0,.07.32C20.61,4,20.77,4.36,21,4.83Z"/><path d="M19.5,5.25h-.95c.3-.07.3-.3.3-.54V3.51c0-.23,0-.42-.3-.49h.94c-.32.08-.28.34-.29.58s0,.76,0,1.14C19.2,5,19.22,5.18,19.5,5.25Z"/><path d="M22.52,22.6l.08,0a.42.42,0,0,0,.44-.33.49.49,0,0,0-.2-.53c-.16-.11-.34-.18-.5-.28a.56.56,0,0,1-.31-.7.61.61,0,0,1,.69-.43,1.22,1.22,0,0,0-.27.09.39.39,0,0,0,.06.69c.18.12.39.19.57.32a.64.64,0,0,1,0,1.09,2.33,2.33,0,0,1-.53.16Z"/><path d="M17.33,5.23s-.06.06-.1.06A1.06,1.06,0,0,1,16,4a1.06,1.06,0,0,1,1-1,1.29,1.29,0,0,0-.63,1.25,1.12,1.12,0,0,0,.32.79.59.59,0,0,0,.63.18Z"/><path d="M12.39,5.26a1.34,1.34,0,0,0,0-2.24,1.15,1.15,0,0,1,1,1.09A1.2,1.2,0,0,1,12.39,5.26Z"/><path d="M11.85,3.05a1.35,1.35,0,0,0,.07,2.18c-.4,0-.88-.43-1-.93A1.16,1.16,0,0,1,11.85,3.05Z"/><path d="M17.33,5.23a1,1,0,0,0,.3-.2c.2-.26.08-.52-.3-.61h1c-.42.09-.29.39-.32.66l-.72.15Z"/><path d="M17.54,3l.45.08,0,.56Z"/><path d="M22.34,22.57l-.41-.07V22Z"/><path d="M22.94,20.4h.29V21Z"/><path d="M35.12,3.1a2.89,2.89,0,0,1,1.25-.62A1,1,0,0,1,37.51,3a1.65,1.65,0,0,1,.09,1.57,3.63,3.63,0,0,1-1.35,1.67,10.91,10.91,0,0,1-1,.63.31.31,0,0,1-.23,0,5.41,5.41,0,0,1-2-1.58A2.84,2.84,0,0,1,32.43,4a1.35,1.35,0,0,1,.91-1.52,1.3,1.3,0,0,1,.87.13C34.51,2.74,34.8,2.92,35.12,3.1Z"/><path d="M3.9,3.1a3.06,3.06,0,0,1,1.26-.63,1,1,0,0,1,1.06.4,1.63,1.63,0,0,1,.21,1.55A3.45,3.45,0,0,1,5.19,6.09,11.1,11.1,0,0,1,4,6.83a.31.31,0,0,1-.25,0,5.32,5.32,0,0,1-2-1.59A2.81,2.81,0,0,1,1.21,4a1.34,1.34,0,0,1,.93-1.49A1.28,1.28,0,0,1,3,2.6C3.3,2.75,3.59,2.93,3.9,3.1Z"/><path d="M35.12,19.83a2.91,2.91,0,0,1,1.28-.63,1,1,0,0,1,1,.36,1.58,1.58,0,0,1,.25,1.59,3.37,3.37,0,0,1-.91,1.38,5.64,5.64,0,0,1-1.51,1,.36.36,0,0,1-.25,0,5.32,5.32,0,0,1-2-1.62,2.58,2.58,0,0,1-.51-1.56,1.23,1.23,0,0,1,.95-1.19,1.86,1.86,0,0,1,.84.13A9.07,9.07,0,0,1,35.12,19.83Z"/><path d="M29.33,19.86a3.13,3.13,0,0,1,1.3-.65,1,1,0,0,1,1.09.43,1.68,1.68,0,0,1,.13,1.65,3,3,0,0,1-1,1.35,16.64,16.64,0,0,1-1.38.93.31.31,0,0,1-.25,0,5.42,5.42,0,0,1-2-1.57,2.71,2.71,0,0,1-.55-1.42,1.21,1.21,0,0,1,1.62-1.32,8.11,8.11,0,0,1,.92.49A.58.58,0,0,1,29.33,19.86Z"/><path d="M3.9,19.83a3,3,0,0,1,1.27-.63,1,1,0,0,1,1,.38,1.57,1.57,0,0,1,.23,1.56A3.52,3.52,0,0,1,5,22.94a10.91,10.91,0,0,1-1,.63.27.27,0,0,1-.23,0,5.26,5.26,0,0,1-2-1.63,2.67,2.67,0,0,1-.51-1.28,1.29,1.29,0,0,1,.94-1.47,1.88,1.88,0,0,1,.84.13A9.07,9.07,0,0,1,3.9,19.83Z"/><path d="M10.32,19.82a3,3,0,0,1,1.25-.61,1,1,0,0,1,1.09.43,1.67,1.67,0,0,1,.12,1.67A3.71,3.71,0,0,1,11.39,23a10.43,10.43,0,0,1-1,.59.31.31,0,0,1-.25,0,5.26,5.26,0,0,1-2-1.56,2.69,2.69,0,0,1-.56-1.47,1.19,1.19,0,0,1,1.58-1.28A9,9,0,0,1,10.32,19.82Z"/><path d="M20.87,22.77c.31-.12.35-.2.25-.46-.17-.46-.17-.46-.66-.46h-.24c-.35.66-.28.78,0,.91H17.56c.27-.05.31-.25.32-.48V21c0-.23-.05-.43-.32-.48h1.75l0,.44c-.23-.55-.7-.39-1.12-.41v1c.38.06.47,0,.6-.32V22c-.08-.31-.29-.41-.62-.35a7.37,7.37,0,0,0,0,.82.37.37,0,0,0,.19.24.72.72,0,0,0,1-.4s0-.08.06-.16v.62c.22,0,.31-.17.38-.34s.24-.58.36-.88l.41-1a1.51,1.51,0,0,1,.13.22c.25.57.48,1.13.73,1.69a1.94,1.94,0,0,0,.3.38Zm0-1L20.55,21l-.33.85Z"/><path d="M25.32,3.22c.21,0,.47-.08.62,0s.19.36.27.55c.16.36.31.73.46,1.09l0,0c0-.09.08-.17.11-.26.19-.43.38-.86.56-1.3a.21.21,0,0,1,.25-.16h.46c-.27.07-.32.27-.31.5,0,.41,0,.82,0,1.23s0,.35.31.49h-1c.27-.05.3-.26.3-.49,0-.46,0-.92,0-1.39l-.85,1.92L25.7,3.55c0,.1,0,.14,0,.19V5c0,.32,0,.36.3.49h-.66c.29-.07.29-.3.29-.54,0-.41,0-.83,0-1.25A.39.39,0,0,0,25.32,3.22Z"/><path d="M13.92,3.24c.41,0,.83,0,1.24,0a.51.51,0,0,1,.53.45c0,.3-.07.45-.42.59l0,0,.64,1.14a1.8,1.8,0,0,1-.33,0c-.06,0-.12-.08-.16-.14-.13-.25-.24-.51-.39-.75s-.21-.22-.45-.19c0,.25,0,.49,0,.74s.07.23.34.33h-1c.25-.06.3-.25.3-.47,0-.45,0-.89,0-1.34C14.21,3.38,14.16,3.33,13.92,3.24Zm.64,1c.34.06.55,0,.68-.22a.58.58,0,0,0,0-.62.58.58,0,0,0-.66-.16v.88S14.56,4.25,14.56,4.29Z"/><path d="M14.1,21.69v.65a.39.39,0,0,0,.3.43h-1a.39.39,0,0,0,.3-.46c0-.45,0-.9,0-1.35,0-.27-.05-.3-.28-.39.43,0,.87,0,1.31,0a.54.54,0,0,1,.48.55.49.49,0,0,1-.46.52C14.58,21.68,14.36,21.68,14.1,21.69Zm0-.08c.36.07.56,0,.69-.2a.6.6,0,0,0,0-.63.58.58,0,0,0-.67-.17Z"/><path d="M10.58,4.68a.56.56,0,0,0-.65-.41c0,.32,0,.63,0,.94,0,.09.16.17.23.24H9.26c.27-.06.3-.26.3-.48V3.7c0-.23,0-.42-.3-.48H11l0,.44c-.23-.48-.65-.42-1.07-.4v.93c.31.09.5,0,.66-.4v.89Z"/><path d="M24.06,3.22l0,.44a.62.62,0,0,0-.48-.39c-.21,0-.42,0-.64,0v1c.37,0,.46,0,.6-.33v.78c-.18-.37-.25-.42-.63-.37,0,.27,0,.54.05.81a.45.45,0,0,0,.19.24.71.71,0,0,0,1-.4.18.18,0,0,1,.08-.1l0,.61H22.31c.27-.07.31-.28.31-.52V3.7c0-.22,0-.43-.31-.48Z"/><path d="M30.38,4.84l0,.6H28.41c.26-.05.31-.24.31-.46V3.67c0-.21-.06-.4-.31-.45h1.74l0,.43c-.23-.54-.7-.38-1.12-.4v1c.35.07.47,0,.59-.33v.76a1.08,1.08,0,0,0-.21-.3A1.32,1.32,0,0,0,29,4.24c0,.32,0,.6.06.87a.41.41,0,0,0,.19.24.71.71,0,0,0,1-.42l0-.09Z"/><path d="M23.87,20.55h1.75l0,.44c-.22-.55-.69-.39-1.12-.41v1c.38,0,.47,0,.61-.33V22a.48.48,0,0,0-.63-.35,7,7,0,0,0,.05.8.38.38,0,0,0,.19.26.72.72,0,0,0,1-.4.19.19,0,0,1,.07-.11l0,.6-.07,0c-.63,0-1.25,0-1.88,0,.29-.05.33-.26.33-.48V21C24.19,20.8,24.14,20.6,23.87,20.55Z"/><path d="M17.42,22.16l0,.61H15.44a.39.39,0,0,0,.31-.44c0-.46,0-.91,0-1.36a.38.38,0,0,0-.3-.42h.94c-.25.05-.3.23-.3.46,0,.43,0,.86,0,1.29a.4.4,0,0,0,.43.44.66.66,0,0,0,.81-.52.43.43,0,0,1,0-.07Z"/><path d="M21.15,5l.54-1.33c.07-.19.08-.38-.2-.49h.73a.88.88,0,0,0-.49.57c-.2.5-.42,1-.63,1.5l-.1.21c0-.09-.08-.15-.1-.21-.22-.54-.43-1.08-.64-1.63-.12-.29-.16-.33-.42-.43h.95c-.07.06-.18.13-.2.21a.73.73,0,0,0,.06.32Z"/><path d="M19.7,5.45h-.95c.3-.07.3-.31.3-.54V3.7c0-.22,0-.42-.3-.48h.94c-.32.08-.29.34-.29.58s0,.76,0,1.14C19.4,5.17,19.42,5.38,19.7,5.45Z"/><path d="M22.72,22.8l.08,0a.43.43,0,0,0,.44-.33.49.49,0,0,0-.2-.53c-.16-.11-.34-.19-.5-.28a.56.56,0,0,1-.31-.71.61.61,0,0,1,.69-.42,2.13,2.13,0,0,0-.27.08.4.4,0,0,0,.06.7c.18.12.39.19.57.31a.65.65,0,0,1,0,1.1,2.33,2.33,0,0,1-.53.16Z"/><path d="M17.52,5.43s-.06.06-.09.06a1.06,1.06,0,0,1-1.22-1.3,1.06,1.06,0,0,1,1-1,1.28,1.28,0,0,0-.63,1.25,1.15,1.15,0,0,0,.31.79.64.64,0,0,0,.64.18Z"/><path d="M12.59,5.46a1.34,1.34,0,0,0,0-2.24,1.15,1.15,0,0,1,1,1.09A1.21,1.21,0,0,1,12.59,5.46Z"/><path d="M12.05,3.25a1.35,1.35,0,0,0,.07,2.18c-.4,0-.88-.43-1-.93A1.14,1.14,0,0,1,12.05,3.25Z"/><path d="M17.53,5.43a1.31,1.31,0,0,0,.3-.2c.2-.26.08-.52-.3-.61h1c-.42.09-.29.39-.32.66l-.73.15Z"/><path d="M17.74,3.23l.45.08,0,.55Z"/><path d="M22.54,22.76l-.41-.06v-.52Z"/><path d="M23.14,20.6h.29v.55Z"/></g><g class="cls-3"><path d="M34.78,2.76A3,3,0,0,1,36,2.13a1,1,0,0,1,1.14.5,1.65,1.65,0,0,1,.09,1.57,3.63,3.63,0,0,1-1.35,1.67c-.33.23-.68.43-1,.63a.31.31,0,0,1-.23,0,5.41,5.41,0,0,1-2-1.58,2.84,2.84,0,0,1-.53-1.28A1.35,1.35,0,0,1,33,2.13a1.3,1.3,0,0,1,.87.13C34.17,2.4,34.46,2.58,34.78,2.76Z"/><path d="M3.56,2.76a3.06,3.06,0,0,1,1.26-.63,1,1,0,0,1,1.06.4,1.63,1.63,0,0,1,.21,1.55A3.45,3.45,0,0,1,4.85,5.75a11.1,11.1,0,0,1-1.18.74.31.31,0,0,1-.25,0,5.32,5.32,0,0,1-2-1.59,2.81,2.81,0,0,1-.53-1.3A1.34,1.34,0,0,1,1.8,2.13a1.28,1.28,0,0,1,.86.13C3,2.41,3.25,2.59,3.56,2.76Z"/><path d="M34.78,19.49a2.91,2.91,0,0,1,1.28-.63,1,1,0,0,1,1,.35,1.6,1.6,0,0,1,.25,1.6,3.37,3.37,0,0,1-.91,1.38,5.64,5.64,0,0,1-1.51,1,.36.36,0,0,1-.25,0,5.32,5.32,0,0,1-2-1.62,2.58,2.58,0,0,1-.51-1.56,1.23,1.23,0,0,1,1-1.19,1.86,1.86,0,0,1,.84.13A9.07,9.07,0,0,1,34.78,19.49Z"/><path d="M29,19.52a3.13,3.13,0,0,1,1.3-.65,1,1,0,0,1,1.09.43A1.68,1.68,0,0,1,31.51,21a3,3,0,0,1-1,1.35,16.64,16.64,0,0,1-1.38.93.31.31,0,0,1-.25,0,5.42,5.42,0,0,1-2-1.57,2.71,2.71,0,0,1-.55-1.42A1.21,1.21,0,0,1,28,18.93a8.11,8.11,0,0,1,.92.49A.58.58,0,0,1,29,19.52Z"/><path d="M3.56,19.49a3,3,0,0,1,1.27-.63,1,1,0,0,1,1,.38,1.57,1.57,0,0,1,.23,1.56,3.52,3.52,0,0,1-1.4,1.8,10.91,10.91,0,0,1-1,.63.27.27,0,0,1-.23,0,5.26,5.26,0,0,1-2.05-1.63,2.67,2.67,0,0,1-.51-1.28,1.29,1.29,0,0,1,.94-1.47,1.88,1.88,0,0,1,.84.13A9.07,9.07,0,0,1,3.56,19.49Z"/><path d="M10,19.48a3,3,0,0,1,1.25-.61,1,1,0,0,1,1.09.43A1.67,1.67,0,0,1,12.44,21a3.71,3.71,0,0,1-1.39,1.67c-.31.22-.64.4-1,.59a.31.31,0,0,1-.25,0,5.26,5.26,0,0,1-2-1.56,2.69,2.69,0,0,1-.56-1.47,1.19,1.19,0,0,1,1.58-1.28A9,9,0,0,1,10,19.48Z"/><path d="M20.53,22.43c.31-.12.35-.2.25-.46-.17-.46-.17-.46-.66-.46h-.24c-.35.66-.28.78,0,.91H17.22c.27-.05.31-.25.32-.48V20.69c0-.23-.05-.43-.32-.48H19l0,.44c-.23-.55-.7-.39-1.12-.41v1c.38.06.47,0,.6-.32v.75c-.08-.31-.29-.41-.62-.35a7.37,7.37,0,0,0,0,.82.37.37,0,0,0,.19.24.72.72,0,0,0,1-.4s0-.08.06-.16v.62c.22,0,.31-.17.38-.34s.24-.58.36-.88l.41-1a1.51,1.51,0,0,1,.13.22c.25.57.48,1.13.73,1.69a1.94,1.94,0,0,0,.3.38Zm0-1-.35-.85-.33.85Z"/><path d="M25,2.88c.21,0,.47-.08.62,0s.19.36.27.55c.16.36.31.73.46,1.09l.05,0c0-.09.08-.17.11-.26.19-.43.38-.86.56-1.3a.21.21,0,0,1,.25-.16h.46c-.27.07-.32.27-.31.5,0,.41,0,.82,0,1.23s0,.35.31.49h-1c.27,0,.3-.26.3-.5,0-.45,0-.91,0-1.38l-.85,1.92-.86-1.93c0,.1,0,.14,0,.19V4.61c0,.32,0,.35.3.49H25c.29-.07.29-.3.29-.54,0-.41,0-.83,0-1.25A.39.39,0,0,0,25,2.88Z"/><path d="M13.58,2.9c.41,0,.83,0,1.24,0a.51.51,0,0,1,.53.45c0,.3-.07.45-.42.59l0,0,.64,1.14a1.8,1.8,0,0,1-.33,0c-.06,0-.12-.08-.16-.14-.13-.25-.24-.51-.39-.75S14.46,4,14.22,4c0,.25,0,.49,0,.74s.07.23.34.33h-1c.25-.06.3-.25.3-.47,0-.45,0-.89,0-1.34C13.87,3,13.82,3,13.58,2.9ZM14.22,4c.34.06.55,0,.68-.22a.58.58,0,0,0,0-.62A.58.58,0,0,0,14.21,3v.88S14.22,3.91,14.22,4Z"/><path d="M13.76,21.35V22a.39.39,0,0,0,.3.43h-1a.39.39,0,0,0,.3-.46c0-.45,0-.9,0-1.35,0-.27-.05-.3-.28-.39.43,0,.87,0,1.31,0a.54.54,0,0,1,.48.55.49.49,0,0,1-.46.52C14.24,21.34,14,21.34,13.76,21.35Zm0-.08c.36.07.56,0,.69-.2a.6.6,0,0,0,0-.63.58.58,0,0,0-.67-.17Z"/><path d="M10.24,4.33a.56.56,0,0,0-.65-.4c0,.32,0,.63,0,.94,0,.09.16.17.23.24H8.92c.27-.06.3-.26.3-.48V3.36c0-.23,0-.43-.3-.48h1.7l0,.44c-.23-.48-.65-.42-1.07-.4v.93c.31.09.5,0,.66-.4v.88Z"/><path d="M23.72,2.88l0,.44a.62.62,0,0,0-.48-.39c-.21,0-.42,0-.65,0v1c.38,0,.47,0,.6-.33v.78C23,4,23,3.9,22.59,4c0,.27,0,.54.05.81a.45.45,0,0,0,.19.24.71.71,0,0,0,1-.4.18.18,0,0,1,.08-.1l0,.61H22c.27-.07.31-.28.31-.52V3.36c0-.22,0-.43-.31-.48Z"/><path d="M30,4.5l0,.6H28.07c.26,0,.31-.24.31-.46V3.33c0-.21-.06-.4-.31-.45h1.74l0,.43c-.23-.54-.7-.38-1.12-.4v.95c.35.07.47,0,.59-.33v.76a.93.93,0,0,0-.22-.3,1.19,1.19,0,0,0-.4-.09c0,.32,0,.6.06.87a.41.41,0,0,0,.19.24.71.71,0,0,0,1-.42l0-.09Z"/><path d="M23.53,20.21h1.75l0,.44c-.23-.55-.69-.39-1.12-.41v1c.38,0,.47,0,.61-.32v.75a.48.48,0,0,0-.63-.35,7,7,0,0,0,.05.8.38.38,0,0,0,.19.26.72.72,0,0,0,1-.4.19.19,0,0,1,.07-.11l0,.6-.07,0c-.63,0-1.25,0-1.88,0,.29-.05.33-.26.33-.49V20.69C23.85,20.46,23.8,20.26,23.53,20.21Z"/><path d="M17.08,21.82l0,.61H15.1a.39.39,0,0,0,.31-.44c0-.46,0-.91,0-1.36a.38.38,0,0,0-.31-.42h1c-.25.05-.3.23-.3.46,0,.43,0,.86,0,1.29a.4.4,0,0,0,.43.44.66.66,0,0,0,.81-.52.16.16,0,0,1,0-.07Z"/><path d="M20.81,4.69l.54-1.33c.07-.19.08-.38-.2-.49h.73a.88.88,0,0,0-.49.57c-.2.5-.42,1-.63,1.5l-.1.21a1.25,1.25,0,0,1-.1-.21c-.22-.54-.43-1.08-.64-1.63C19.8,3,19.76,3,19.5,2.88h.95c-.07.06-.18.13-.2.21a.73.73,0,0,0,.06.32Z"/><path d="M19.36,5.11h-.95c.3-.07.3-.31.3-.54V3.36c0-.22,0-.42-.3-.48h.94c-.32.08-.29.34-.29.58s0,.76,0,1.14S19.08,5,19.36,5.11Z"/><path d="M22.38,22.45h.08a.43.43,0,0,0,.44-.33.48.48,0,0,0-.21-.53,4.76,4.76,0,0,0-.49-.28.56.56,0,0,1-.31-.71.61.61,0,0,1,.69-.42,2.13,2.13,0,0,0-.27.08.4.4,0,0,0,.06.7c.18.12.39.19.57.31a.65.65,0,0,1,0,1.1,2.33,2.33,0,0,1-.53.16Z"/><path d="M17.18,5.09s-.06.06-.09.06a1.06,1.06,0,0,1-1.22-1.3,1.06,1.06,0,0,1,1-1,1.28,1.28,0,0,0-.63,1.25,1.15,1.15,0,0,0,.31.79.64.64,0,0,0,.64.18Z"/><path d="M12.25,5.12a1.34,1.34,0,0,0,0-2.24,1.15,1.15,0,0,1,1,1.09A1.21,1.21,0,0,1,12.25,5.12Z"/><path d="M11.71,2.91a1.35,1.35,0,0,0,.07,2.18c-.4,0-.88-.43-1-.93A1.14,1.14,0,0,1,11.71,2.91Z"/><path d="M17.19,5.09a1.31,1.31,0,0,0,.3-.2c.2-.26.08-.52-.3-.61h1c-.42.09-.3.39-.32.66l-.73.15Z"/><path d="M17.4,2.89l.45.08,0,.55Z"/><path d="M22.2,22.42l-.41-.06v-.52Z"/><path d="M22.8,20.26h.29v.55Z"/></g><path class="cls-4" d="M35,3a3.12,3.12,0,0,1,1.26-.63,1.05,1.05,0,0,1,1.14.49,1.68,1.68,0,0,1,.09,1.58,3.63,3.63,0,0,1-1.35,1.67c-.33.23-.68.43-1,.63a.31.31,0,0,1-.23,0,5.26,5.26,0,0,1-2-1.59,2.81,2.81,0,0,1-.53-1.27,1.35,1.35,0,0,1,.91-1.52,1.27,1.27,0,0,1,.86.13C34.37,2.6,34.65,2.78,35,3Z"/><path class="cls-4" d="M3.76,3A2.94,2.94,0,0,1,5,2.33a1,1,0,0,1,1.06.4,1.58,1.58,0,0,1,.2,1.54A3.42,3.42,0,0,1,5,6a13.68,13.68,0,0,1-1.17.74.31.31,0,0,1-.25,0,5.35,5.35,0,0,1-2-1.6,2.63,2.63,0,0,1-.53-1.29A1.34,1.34,0,0,1,2,2.33a1.28,1.28,0,0,1,.86.13C3.16,2.61,3.45,2.79,3.76,3Z"/><path class="cls-4" d="M35,19.69a3,3,0,0,1,1.28-.63,1,1,0,0,1,1,.35A1.62,1.62,0,0,1,37.5,21a3.25,3.25,0,0,1-.9,1.38,5.64,5.64,0,0,1-1.51,1,.36.36,0,0,1-.25,0,5.32,5.32,0,0,1-2.05-1.62,2.58,2.58,0,0,1-.51-1.56,1.22,1.22,0,0,1,.95-1.19,1.86,1.86,0,0,1,.84.13A8,8,0,0,1,35,19.69Z"/><path class="cls-4" d="M29.19,19.71a3.35,3.35,0,0,1,1.29-.65,1,1,0,0,1,1.09.44,1.65,1.65,0,0,1,.13,1.65,2.94,2.94,0,0,1-1,1.35,16.64,16.64,0,0,1-1.38.93.31.31,0,0,1-.25,0,5.42,5.42,0,0,1-2-1.57,2.71,2.71,0,0,1-.55-1.42,1.2,1.2,0,0,1,1.61-1.32,8.25,8.25,0,0,1,.93.49Z"/><path class="cls-4" d="M3.76,19.69A3,3,0,0,1,5,19.06a1,1,0,0,1,1,.38A1.59,1.59,0,0,1,6.29,21a3.57,3.57,0,0,1-1.4,1.8,10.91,10.91,0,0,1-1,.63.27.27,0,0,1-.23,0,5.23,5.23,0,0,1-2-1.62,2.71,2.71,0,0,1-.51-1.28A1.28,1.28,0,0,1,2,19.07a1.77,1.77,0,0,1,.84.13A6.26,6.26,0,0,1,3.76,19.69Z"/><path class="cls-4" d="M10.18,19.68a3.19,3.19,0,0,1,1.25-.62,1,1,0,0,1,1.08.44,1.69,1.69,0,0,1,.13,1.67,3.77,3.77,0,0,1-1.39,1.67c-.31.22-.64.4-1,.59a.36.36,0,0,1-.25,0,5.36,5.36,0,0,1-2-1.56,2.81,2.81,0,0,1-.57-1.48,1.21,1.21,0,0,1,1.59-1.28A9.1,9.1,0,0,1,10.18,19.68Z"/><path class="cls-4" d="M20.73,22.62c.3-.11.34-.19.25-.45-.17-.47-.17-.47-.66-.47h-.25c-.34.67-.28.79,0,.92H17.42c.27-.05.31-.26.31-.49,0-.41,0-.83,0-1.24,0-.23,0-.43-.31-.49h1.75l0,.44c-.23-.54-.7-.38-1.12-.4v.95c.38.05.47,0,.6-.32v.75c-.08-.31-.29-.41-.63-.35,0,.27,0,.55.06.82a.37.37,0,0,0,.19.24.72.72,0,0,0,1-.4.88.88,0,0,1,.06-.17v.63c.22,0,.31-.17.38-.34s.24-.58.36-.88l.41-1a1.51,1.51,0,0,1,.13.22c.24.56.47,1.13.73,1.69a1.61,1.61,0,0,0,.3.37Zm0-1-.35-.85-.33.85Z"/><path class="cls-4" d="M25.18,3.08c.21,0,.47-.08.62,0s.19.35.27.55c.16.36.31.72.46,1.09l0,0,.11-.26c.19-.43.38-.87.56-1.3a.21.21,0,0,1,.25-.16H28c-.27.07-.32.26-.31.5,0,.41,0,.82,0,1.23s0,.35.31.49H27c.28-.06.31-.27.31-.5,0-.45,0-.91,0-1.39l-.85,1.93-.86-1.93c0,.09,0,.14,0,.19V4.81c0,.32,0,.35.3.49h-.66c.29-.07.29-.31.29-.54,0-.41,0-.83,0-1.25A.37.37,0,0,0,25.18,3.08Z"/><path class="cls-4" d="M13.78,3.1c.41,0,.83,0,1.24,0a.52.52,0,0,1,.53.46c0,.29-.08.45-.42.59,0,0,0,0,0,0l.64,1.14a1.92,1.92,0,0,1-.33,0,.26.26,0,0,1-.16-.13c-.13-.25-.24-.51-.39-.75s-.21-.22-.45-.19c0,.24,0,.49,0,.73s.07.24.34.34h-1c.25-.06.3-.25.3-.48,0-.44,0-.88,0-1.33C14.07,3.24,14,3.19,13.78,3.1Zm.64,1.05a.58.58,0,0,0,.68-.23.56.56,0,0,0,0-.61.6.6,0,0,0-.66-.17V4S14.42,4.11,14.42,4.15Z"/><path class="cls-4" d="M14,21.55v.64c0,.22.07.38.3.43h-.95c.24-.05.31-.23.3-.45V20.82c0-.27,0-.3-.28-.39.43,0,.87,0,1.31,0a.55.55,0,0,1,.48.56.49.49,0,0,1-.46.52C14.44,21.54,14.21,21.54,14,21.55Zm0-.08c.36.06.56,0,.68-.2a.59.59,0,0,0,0-.64.57.57,0,0,0-.66-.16Z"/><path class="cls-4" d="M10.44,4.53a.56.56,0,0,0-.65-.4c0,.31,0,.63,0,.94,0,.09.16.16.23.24H9.12c.27-.06.3-.26.3-.48V3.56c0-.23,0-.43-.3-.49h1.69l0,.45c-.24-.48-.65-.43-1.07-.4v.93c.31.09.5,0,.66-.4v.88Z"/><path class="cls-4" d="M23.92,3.08v.44a.6.6,0,0,0-.47-.4c-.21,0-.42,0-.65,0v.94c.37.06.47,0,.6-.32v.78c-.17-.38-.25-.42-.62-.37,0,.27,0,.54.05.81A.45.45,0,0,0,23,5.2a.72.72,0,0,0,1-.4.15.15,0,0,1,.08-.1l0,.61H22.17c.27-.08.31-.29.31-.52V3.56c0-.22,0-.43-.32-.48Z"/><path class="cls-4" d="M30.24,4.69l0,.61H28.27c.26,0,.3-.25.31-.46V3.53c0-.21-.06-.4-.31-.45H30l0,.43c-.23-.54-.7-.38-1.12-.4v.95c.35.07.47,0,.59-.33v.75a1.23,1.23,0,0,0-.22-.29,1.19,1.19,0,0,0-.4-.09c0,.32,0,.6.06.87a.41.41,0,0,0,.19.24.72.72,0,0,0,1-.42,1,1,0,0,0,0-.1Z"/><path class="cls-4" d="M23.73,20.4h1.75l0,.44c-.23-.55-.7-.38-1.12-.4v.95c.38.05.47,0,.6-.32v.75c-.08-.31-.29-.41-.62-.35a7,7,0,0,0,.05.8.41.41,0,0,0,.19.26.72.72,0,0,0,1-.4A.19.19,0,0,1,25.7,22l0,.6h-.08c-.62,0-1.24,0-1.88,0,.3-.05.33-.26.34-.49V20.88C24,20.66,24,20.46,23.73,20.4Z"/><path class="cls-4" d="M17.28,22l0,.6H15.3a.37.37,0,0,0,.3-.44V20.83a.37.37,0,0,0-.3-.42h.95c-.25.05-.3.23-.3.46,0,.42,0,.85,0,1.28a.42.42,0,0,0,.44.45.67.67,0,0,0,.81-.53l0-.06Z"/><path class="cls-4" d="M21,4.89l.54-1.34a.32.32,0,0,0-.2-.48h.73a.88.88,0,0,0-.49.57c-.2.5-.42,1-.63,1.5l-.1.21a1.25,1.25,0,0,1-.1-.21c-.22-.54-.43-1.09-.65-1.63-.12-.3-.15-.33-.42-.44h1c-.07.07-.18.14-.2.22a.61.61,0,0,0,.06.32Z"/><path class="cls-4" d="M19.56,5.31h-.95c.3-.08.3-.31.3-.54V3.56c0-.22,0-.42-.3-.48h.94c-.32.08-.29.34-.29.57V4.8C19.26,5,19.28,5.24,19.56,5.31Z"/><path class="cls-4" d="M22.58,22.65h.08a.42.42,0,0,0,.43-.33.47.47,0,0,0-.2-.54c-.16-.1-.33-.18-.5-.27a.56.56,0,0,1-.3-.71.6.6,0,0,1,.69-.42.77.77,0,0,0-.27.08.4.4,0,0,0,0,.7c.19.12.4.19.58.31a.65.65,0,0,1,0,1.1,2.46,2.46,0,0,1-.53.15Z"/><path class="cls-4" d="M17.38,5.29s-.06.06-.09.06a1.06,1.06,0,0,1-1.22-1.3,1.06,1.06,0,0,1,1-1,1.27,1.27,0,0,0-.63,1.25,1.11,1.11,0,0,0,.31.78.62.62,0,0,0,.64.19Z"/><path class="cls-4" d="M12.44,5.31a1.32,1.32,0,0,0,.05-2.23,1.16,1.16,0,0,1,1,1.08A1.19,1.19,0,0,1,12.44,5.31Z"/><path class="cls-4" d="M11.9,3.11A1.36,1.36,0,0,0,12,5.29c-.4,0-.88-.43-1-.93A1.15,1.15,0,0,1,11.9,3.11Z"/><path class="cls-4" d="M17.39,5.29c.1-.07.23-.11.3-.21.2-.25.08-.51-.3-.6h1c-.41.09-.29.39-.32.66l-.72.15Z"/><path class="cls-4" d="M17.6,3.09l.45.08,0,.55Z"/><path class="cls-4" d="M22.39,22.62l-.4-.06V22Z"/><path class="cls-4" d="M23,20.46h.29V21Z"/></g></g></svg>