<svg xmlns="http://www.w3.org/2000/svg" viewBox="0 0 38.55 24.66"><defs><style>.cls-1{isolation:isolate;}.cls-2{opacity:0.15;}.cls-2,.cls-3{mix-blend-mode:multiply;}.cls-4{fill:#fff;}</style></defs><title>convert-CUSTOMIZE-SVG-03</title><g class="cls-1"><g id="Layer_1" data-name="Layer 1"><g class="cls-2"><path d="M12.82,10.88l.52.45s.07-.06.06-.1c-.07-.22.08-.25.22-.24a9.28,9.28,0,0,1,1.06.08,12.64,12.64,0,0,1,2.59.51c.44.17.86.41,1.29.61a.35.35,0,0,1,.21.4c-.07.4-.16.79-.24,1.18,0,.13,0,.26-.06.41.3,0,.38.16.4.36a2.44,2.44,0,0,1-.4,1.74s0,0,0,.07a1.65,1.65,0,0,1-1.91,1.19l-.14,0L16,18c0,.07,0,.17,0,.23a2,2,0,0,1-1.85,1.13,3.12,3.12,0,0,1-.78-.17c-.1,0-.17-.15-.25-.22l-.71.12a7.81,7.81,0,0,1,.51,2.54h-.23c0-.41-.08-.82-.17-1.22s-.23-.83-.36-1.24c0-.07-.11-.12-.19-.17a6.79,6.79,0,0,1-.64,2.28h.06a.68.68,0,0,1,0,.27s-.14.07-.22.08h-.4a4.29,4.29,0,0,0,.7-1.58c.07-.34.11-.68.16-1,0-.15-.05-.19-.19-.19-1,0-2,.08-3,.07a10,10,0,0,1-2.36-.31c-.17,0-.39.1-.58.18,0,0-.06.1-.1.15l-.08,0c-.08-.21-.17-.42-.23-.64,0,0,.06-.14.12-.17s.29-.07.48-.12L6,17.33c-.13.16-.42.19-.36.46l-.74.34L5,18.4l-.08.41.25,0,.28.45c-.25.64-.26,1.51-1.16,1.9C4.2,20.86,4,21,3.85,21l.38.67H3.82l-.44-1.21-1.44,2.1h0c.08-.22.15-.44.24-.65s0-.24-.12-.29l-.14-.05c-.2,0-.26-.16-.3-.36a1.06,1.06,0,0,0-.42-.5C1,20.58,1,20.48,1,20.29s0-.11,0-.16a.92.92,0,0,0,.06-.76c-.06-.17,0-.23.18-.27.53-.14,1.06-.29,1.59-.41.18-.05.27-.12.2-.33a2.78,2.78,0,0,1-.39-.05,1.36,1.36,0,0,1-.33-.14l.15-.31,0,0a2.78,2.78,0,0,1-.64-3.07,6.3,6.3,0,0,1,1.28-2.12l.23-.26,0,0A4.26,4.26,0,0,1,1.72,9a15.55,15.55,0,0,1,.07-1.67A.43.43,0,0,0,1.7,7,2.91,2.91,0,0,1,.85,4.79a1.88,1.88,0,0,1,.87-1.44,3.74,3.74,0,0,1,1.84-.62,2.19,2.19,0,0,1,1.77.76.27.27,0,0,0,.22.07,6.21,6.21,0,0,1,4,.18.28.28,0,0,0,.37-.09,1.84,1.84,0,0,1,2-.52A4.39,4.39,0,0,1,13.52,4a1.71,1.71,0,0,1,.59,1.79,3.43,3.43,0,0,1-.72,1.63.31.31,0,0,0-.05.17A6.82,6.82,0,0,1,12.82,10.88ZM9.88,12.29c.12-.22.24-.41.32-.6a1.53,1.53,0,0,1,1.37-.95,2.9,2.9,0,0,1,.78,0c.2,0,.26,0,.32-.19a6.59,6.59,0,0,0,.42-3,.32.32,0,0,0-.1-.19,1.15,1.15,0,0,1-.44-.84.24.24,0,0,0-.05-.13,5.37,5.37,0,0,0-1.4-1.37c-.43-.28-.9-.51-1.3-.82a2.15,2.15,0,0,0-.73-.39,4.69,4.69,0,0,0-4.46.61c-.21.16-.49.24-.68.39A4.63,4.63,0,0,0,2.75,6.15a1.68,1.68,0,0,1-.6.77s-.07.13-.08.2A8,8,0,0,0,2,9.25a4,4,0,0,0,3.06,3.61,14.07,14.07,0,0,0,3.6.26.76.76,0,0,0,.66-.42C9.46,12.46,9.62,12.29,9.88,12.29Zm-.62.86h0l-.14.1a10.54,10.54,0,0,0-3,4.55c-.12.35,0,.55.35.65l.37.08a19.52,19.52,0,0,0,4.39.13,0,0,0,0,0,0,0c-.18-.24-.37-.48-.54-.73a.48.48,0,0,1,0-.62.24.24,0,0,0,.05-.13c0-.23,0-.46,0-.69,0-.38-.06-.77-.07-1.16a.24.24,0,0,0-.18-.24,1.61,1.61,0,0,1-1-1.13C9.32,13.68,9.3,13.41,9.26,13.15Zm-3,.68c-.86-.63-2.14-.63-3.53.45l-.18-.19c.28-.18.53-.36.79-.5a4.91,4.91,0,0,1,.83-.32A6.85,6.85,0,0,1,5,13.13l-1.38-.59A5.81,5.81,0,0,0,2,15.37a2.43,2.43,0,0,0,.49,2c0,.05.15.11.2.09a1.68,1.68,0,0,1,1.21.08l.5.21c.26-.47.25-.62-.05-1l-.13-.17a1.69,1.69,0,0,1-.13-.31c0-.05,0-.17.06-.17l1-.2L5.6,14ZM2.31,6.49c-.64-.78-.7-1.27-.26-1.8s1.14-.7,2-.19l1.14-.74A2,2,0,0,0,3.89,3a3.29,3.29,0,0,0-2,.57A1.6,1.6,0,0,0,1.11,4.7a2.73,2.73,0,0,0,.76,2.11ZM11,4.72a3.41,3.41,0,0,1,.62-.33,1.26,1.26,0,0,1,1.34.5,1,1,0,0,1,0,1.53.3.3,0,0,0-.06.43l.15.23c.09.14.17.14.28,0A3.5,3.5,0,0,0,13.9,5.4a1.31,1.31,0,0,0-.41-1.14,3.71,3.71,0,0,0-2.22-1A1.48,1.48,0,0,0,9.9,4ZM2.35,21.5l.31-.45a6.56,6.56,0,0,1,1.9-2c.15-.09.19-.19.08-.36a12.35,12.35,0,0,0-3.31.64.47.47,0,0,1,.08.54c0,.12-.09.25-.13.38a.25.25,0,0,0,.11.28,1.52,1.52,0,0,1,.43.52c.07.17.13.28.3.32A1,1,0,0,1,2.35,21.5ZM14.16,11.24l0,0c.2.26.41.52.6.78s.24.32.49.2a.42.42,0,0,1,.31,0,2.36,2.36,0,0,1,.65.34,1.75,1.75,0,0,0,1.12.44,1.16,1.16,0,0,1,1,.45h.07c.05-.28.11-.56.16-.84a.28.28,0,0,0-.17-.34L17.6,12a8.46,8.46,0,0,0-2.27-.55ZM12.1,16.06A1.76,1.76,0,0,0,12,17.21a1.23,1.23,0,0,0,.88,1,2.56,2.56,0,0,0,1.17.09.48.48,0,0,0,.45-.42.92.92,0,0,0-.18-.87c-.3.42-.66.69-1.17.52A1.44,1.44,0,0,1,12.1,16.06Zm-5.18-.73,1.64-2H5.88a1.49,1.49,0,0,1,.89.78A2.15,2.15,0,0,1,6.92,15.33Zm3.33-3.11c.3.26.36.25.67,0a4.92,4.92,0,0,1,.69-.51.75.75,0,0,1,.67-.06.59.59,0,0,0,.75-.28A1.81,1.81,0,0,0,11.79,11,1.49,1.49,0,0,0,10.25,12.22ZM11,16.9c.42.05.49,0,.57-.41a4.16,4.16,0,0,1,.26-.8.68.68,0,0,1,.52-.4.46.46,0,0,0,.37-.36c.09-.24,0-.3-.2-.27a2.06,2.06,0,0,0-1.4.75,1,1,0,0,0-.24.83Zm.62-4.77a1.68,1.68,0,0,0-.72.65,1.34,1.34,0,0,0,.36,2,.18.18,0,0,0,.16,0,2.19,2.19,0,0,1,1.32-.4v-.22c-.5.16-1,.21-1.3-.28A1.45,1.45,0,0,1,11.63,12.13ZM14.76,18h.07a2.26,2.26,0,0,0,.2-.26,1.93,1.93,0,0,0,.32-1.49.6.6,0,0,0-.37-.5,1.4,1.4,0,0,0-1.09.26A1.64,1.64,0,0,1,14.76,18Zm-.82-5.14a1.23,1.23,0,0,0-1.1-.86,1.28,1.28,0,0,0-1.15.76,1,1,0,0,0,.25,1l-.07-.23a.57.57,0,0,1,.49-.76,2.81,2.81,0,0,1,.65,0C13.32,12.78,13.63,12.85,13.94,12.9Zm.48,2.48a1.28,1.28,0,0,0-1.37-.09,1.25,1.25,0,0,0-.53,1.15,1,1,0,0,0,.83.74l-.17-.13a.55.55,0,0,1,0-.94,3.1,3.1,0,0,1,.59-.41C13.94,15.58,14.19,15.48,14.42,15.38Zm-3.74-.52,0-.07a1.59,1.59,0,0,1-.6-.94.77.77,0,0,1,.19-.8,1.08,1.08,0,0,0,.18-.26l-.28-.15L10,12.56c-.28-.07-.45,0-.47.33a4.85,4.85,0,0,0,0,.66,1.43,1.43,0,0,0,.79,1.21A1.8,1.8,0,0,0,10.68,14.86ZM13,18.73l0-.07a1.66,1.66,0,0,1-1.06-.42.75.75,0,0,1-.31-.72c0-.29,0-.31-.29-.27a1.67,1.67,0,0,0-.3.08.27.27,0,0,0-.14.44,2.5,2.5,0,0,0,.79.86,1.45,1.45,0,0,0,1.05.22A1.39,1.39,0,0,0,13,18.73Zm.21-4.1h.22a11,11,0,0,1,1.27.27,1.4,1.4,0,0,1,1,1.12s0,0,0,0h.06a3.85,3.85,0,0,0,0-.68.94.94,0,0,0-.75-.79,3.37,3.37,0,0,1-1.46-.35c-.1-.06-.17,0-.22.07Zm4.13,1.72a1.68,1.68,0,0,0,.46-1.61c-.06-.18-.15-.34-.36-.36a1.33,1.33,0,0,0-.85.22A1.46,1.46,0,0,1,17.34,16.35Zm-1.68,1.94a.6.6,0,0,0-.7.17.84.84,0,0,1-.82.27,1.69,1.69,0,0,0-.5,0c-.1,0-.17.13-.25.2s.09.11.14.13A1.71,1.71,0,0,0,15.66,18.29Zm-.51-5.12a.74.74,0,0,0-.22-.55,2.92,2.92,0,0,1-1-1.13.22.22,0,0,0-.16-.09c-.13,0-.25.12-.37.18a7.17,7.17,0,0,1,.78.78,6,6,0,0,1,.55.93Zm3,1.37h.06c0-.14,0-.27,0-.41a.83.83,0,0,0-.77-.8,5.91,5.91,0,0,1-1-.23c-.3-.1-.36-.09-.42.24C16.92,13.43,17.82,13.5,18.18,14.54Zm-4.11-.33c.17,0,.32,0,.47.09s.19,0,.28-.11a1,1,0,0,1,.37-.26.46.46,0,0,0,.36-.51A1.62,1.62,0,0,0,14.07,14.21Zm1.65.48L17,14a1,1,0,0,0-1.51.48l.15.12Zm-.26,3.16c.31,0,.51,0,.58-.31s.17-.82.24-1.22a1.17,1.17,0,0,0,0-.32A7.73,7.73,0,0,0,15.46,17.85ZM13.85,14a2.35,2.35,0,0,1,.22-.26c.13-.12.09-.2,0-.29a1.5,1.5,0,0,0-1-.35l.15.83Zm2.54,3.21a1.43,1.43,0,0,0,1.69-.67.47.47,0,0,0-.55.13.75.75,0,0,1-.76.26,1.56,1.56,0,0,0-.31,0Zm1.54-1.08c.28,0,.46-.06.51-.28s.14-.73.21-1.09a.55.55,0,0,0,0-.18h-.06Zm-1-.64-.34.33a.13.13,0,0,0,0,.11c0,.21,0,.41,0,.67a1.67,1.67,0,0,0,.38-.16A.8.8,0,0,0,16.9,15.53ZM4.78,19.29l-.08-.08-1,.85c-.18.16-.12.33,0,.52Zm10.65-6.16.32.09.26-.43a1.14,1.14,0,0,0-.77-.28Zm-2.89,0-.24.21.27.32c.06-.09.16-.17.16-.26S12.63,13.27,12.54,13.16Zm1.16,3.67c.07-.07.16-.14.15-.16a.58.58,0,0,0-.18-.29c-.09-.06-.33.14-.29.2A1.23,1.23,0,0,0,13.7,16.83ZM4.34,18.46v0l-1-.07c0,.21,0,.23.18.21Zm10.1-4.93a1.11,1.11,0,0,0-.19-.71l-.07.41Zm1.65,1.64h.42c0-.09,0-.22-.1-.25S16.18,15,16.09,15.17Zm-.86.47,0-.05-.41-.35C14.77,15.64,15.13,15.5,15.23,15.64Zm2.42-1.47,0,0-.36-.28.05.26Z"/><path d="M5.94,18.8a1,1,0,0,1,.29.19c.26.34.49.7.74,1.05a.18.18,0,0,1,0,.28c-.15.12-.36.18-.43.39,0,0-.11,0-.15,0a1.7,1.7,0,0,1-.78-1.63C5.6,18.87,5.78,18.88,5.94,18.8Z"/><path d="M4.38,10.17A2.38,2.38,0,0,1,6.51,7.69a4.32,4.32,0,0,1,2.17.12,2.3,2.3,0,0,1,1.7,1.92,2.48,2.48,0,0,1-1,2.58A3.39,3.39,0,0,1,5.07,12,2.27,2.27,0,0,1,4.38,10.17Zm.25,0A2,2,0,0,0,5.46,12a3.16,3.16,0,0,0,3.31.39,2.35,2.35,0,0,0,1.41-2.31A2.17,2.17,0,0,0,8.47,8,4,4,0,0,0,6.21,8,2.08,2.08,0,0,0,4.63,10.21Z"/><path d="M10.05,8.35a.56.56,0,0,1,.47-.62.56.56,0,0,1,.48.62c0,.34-.2.61-.48.61S10.05,8.7,10.05,8.35Z"/><path d="M4.74,8.33a2,2,0,0,1,0,.26A.47.47,0,0,1,4.24,9a.45.45,0,0,1-.42-.38,1.19,1.19,0,0,1,0-.53.42.42,0,0,1,.4-.32.45.45,0,0,1,.43.32A1.43,1.43,0,0,1,4.74,8.33Z"/><path d="M6.05,10.16l.33-.41a.24.24,0,0,1,.16-.07H8.23a.27.27,0,0,1,.19.1,4.66,4.66,0,0,1,.25.4c-.28.22-.54.46-.84.66s-.22.35-.2.57c0,.06.09.12.15.16.35.24.35.24.69,0l.32-.22.26.31-.9.6a.22.22,0,0,1-.17,0c-.15-.09-.3-.2-.45-.31a.21.21,0,0,0-.29,0,5.39,5.39,0,0,1-.5.33.19.19,0,0,1-.18,0l-.86-.58.24-.31c.19.13.36.24.53.37s.17.09.26,0a1.77,1.77,0,0,1,.17-.12.44.44,0,0,0,0-.74Z"/><path d="M13,11.08l.52.45s.07-.06.06-.1c-.08-.22.08-.25.22-.24a9.45,9.45,0,0,1,1.06.08,12.67,12.67,0,0,1,2.58.51c.45.17.87.41,1.3.61a.35.35,0,0,1,.21.4c-.07.4-.16.79-.24,1.18,0,.13,0,.26-.06.41.29,0,.38.15.4.36a2.44,2.44,0,0,1-.4,1.74s-.05,0-.05.07a1.67,1.67,0,0,1-1.92,1.19l-.13,0-.38.53c0,.07,0,.17,0,.23a2,2,0,0,1-1.85,1.13,3,3,0,0,1-.78-.17.88.88,0,0,1-.25-.22l-.71.12a7.55,7.55,0,0,1,.5,2.54h-.22c-.06-.42-.09-.83-.17-1.22s-.23-.83-.36-1.24c0-.07-.11-.13-.19-.17a6.79,6.79,0,0,1-.64,2.28h.06a.68.68,0,0,1,.05.27s-.14.07-.22.08H11a4.46,4.46,0,0,0,.7-1.58c.07-.34.11-.69.16-1,0-.15,0-.19-.2-.19-1,0-2,.08-3,.07a9.92,9.92,0,0,1-2.36-.31c-.17,0-.39.1-.58.17,0,0-.07.11-.1.16l-.08,0c-.08-.21-.17-.42-.23-.64,0,0,.06-.15.12-.17s.29-.07.47-.12l.22-.67c-.12.16-.41.19-.35.46l-.75.34.14.27L5.11,19l.24,0,.29.45c-.26.63-.27,1.51-1.16,1.89-.08-.27-.25-.16-.43-.13l.37.67H4l-.44-1.21L2.14,22.75h0c.08-.22.15-.44.24-.65s0-.24-.13-.29l-.13-.06c-.2,0-.26-.15-.31-.36a1,1,0,0,0-.41-.49c-.16-.12-.22-.22-.16-.41s0-.11,0-.16a.92.92,0,0,0,.06-.76c-.06-.17,0-.23.18-.27l1.59-.42c.18,0,.27-.11.2-.33a1.78,1.78,0,0,1-.39,0,1.4,1.4,0,0,1-.33-.15l.15-.3,0,0A2.76,2.76,0,0,1,2.1,15a6.44,6.44,0,0,1,1.28-2.13l.23-.25a.21.21,0,0,1,0-.06A4.24,4.24,0,0,1,1.92,9.18,15.44,15.44,0,0,1,2,7.51a.43.43,0,0,0-.09-.34A2.92,2.92,0,0,1,1,5a1.89,1.89,0,0,1,.88-1.44,3.74,3.74,0,0,1,1.84-.62,2.19,2.19,0,0,1,1.77.76.27.27,0,0,0,.22.07,6.18,6.18,0,0,1,3.94.18.3.3,0,0,0,.38-.09,1.84,1.84,0,0,1,2-.52,4.39,4.39,0,0,1,1.68.82,1.75,1.75,0,0,1,.59,1.79,3.43,3.43,0,0,1-.72,1.63.25.25,0,0,0-.05.17A6.82,6.82,0,0,1,13,11.08Zm-2.94,1.41c.12-.23.24-.41.32-.6a1.52,1.52,0,0,1,1.37-1,2.9,2.9,0,0,1,.78,0c.2,0,.26,0,.32-.19a6.87,6.87,0,0,0,.42-3,.35.35,0,0,0-.1-.19,1.17,1.17,0,0,1-.44-.84.21.21,0,0,0-.05-.13,5.52,5.52,0,0,0-1.4-1.37c-.44-.28-.9-.51-1.3-.82A2.15,2.15,0,0,0,9.27,4a4.71,4.71,0,0,0-4.47.61c-.2.16-.48.24-.67.38A4.67,4.67,0,0,0,3,6.35a1.68,1.68,0,0,1-.6.77c-.05,0-.07.13-.08.2a7.61,7.61,0,0,0-.08,2.13,4,4,0,0,0,3.06,3.61,14.07,14.07,0,0,0,3.6.26.76.76,0,0,0,.66-.42C9.66,12.66,9.82,12.49,10.08,12.49Zm-.62.85h0l-.13.1a10.65,10.65,0,0,0-3,4.55.43.43,0,0,0,.35.64,2.62,2.62,0,0,0,.38.09,19.52,19.52,0,0,0,4.39.12l0,0c-.18-.24-.37-.48-.54-.73a.5.5,0,0,1,0-.63.19.19,0,0,0,.05-.13c0-.22,0-.45-.05-.68,0-.39,0-.77-.06-1.16a.24.24,0,0,0-.18-.24,1.63,1.63,0,0,1-1.05-1.13C9.52,13.87,9.5,13.61,9.46,13.34Zm-3,.69c-.86-.63-2.14-.63-3.53.45l-.18-.19c.28-.18.52-.36.79-.5a4.81,4.81,0,0,1,.82-.32c.29-.08.58-.1.84-.15l-1.38-.59A5.73,5.73,0,0,0,2.2,15.57a2.44,2.44,0,0,0,.49,2s.15.11.19.09a1.71,1.71,0,0,1,1.22.08l.5.21c.26-.47.25-.62,0-1a1,1,0,0,1-.13-.17,2,2,0,0,1-.13-.31c0-.06,0-.17.06-.18l1-.19.48-1.93ZM2.51,6.68c-.64-.77-.71-1.26-.26-1.79s1.14-.7,2-.19L5.43,4a2,2,0,0,0-1.34-.78,3.27,3.27,0,0,0-2,.57A1.6,1.6,0,0,0,1.31,4.9,2.73,2.73,0,0,0,2.07,7ZM11.2,4.92a3.41,3.41,0,0,1,.62-.33,1.24,1.24,0,0,1,1.34.5,1,1,0,0,1,0,1.53.29.29,0,0,0-.05.42,1.14,1.14,0,0,0,.15.23c.09.15.17.15.28,0a3.5,3.5,0,0,0,.59-1.68,1.3,1.3,0,0,0-.41-1.13,3.71,3.71,0,0,0-2.22-1,1.47,1.47,0,0,0-1.37.72ZM2.54,21.7l.32-.45a6.34,6.34,0,0,1,1.9-2c.15-.09.19-.19.07-.36a12.5,12.5,0,0,0-3.31.64.45.45,0,0,1,.08.54l-.12.38c0,.12,0,.19.11.28a1.64,1.64,0,0,1,.43.52c.07.17.13.27.3.32A1,1,0,0,1,2.54,21.7ZM14.36,11.44l0,.05c.2.26.41.51.6.78s.24.32.49.2a.42.42,0,0,1,.31,0,2.36,2.36,0,0,1,.65.34,1.75,1.75,0,0,0,1.12.44,1.17,1.17,0,0,1,1,.45h.07c.05-.28.11-.56.16-.84a.29.29,0,0,0-.17-.35c-.26-.12-.5-.26-.75-.38a8.44,8.44,0,0,0-2.28-.55ZM12.3,16.26a1.76,1.76,0,0,0-.15,1.15,1.24,1.24,0,0,0,.87,1,2.58,2.58,0,0,0,1.17.09.47.47,0,0,0,.45-.43.88.88,0,0,0-.17-.86,1,1,0,0,1-1.18.52A1.43,1.43,0,0,1,12.3,16.26Zm-5.18-.73,1.64-2H6.08a1.39,1.39,0,0,1,.88.78A2.07,2.07,0,0,1,7.12,15.53Zm3.33-3.11c.3.26.35.25.66,0a5,5,0,0,1,.7-.51.69.69,0,0,1,.67-.06.59.59,0,0,0,.75-.28A1.77,1.77,0,0,0,12,11.17,1.49,1.49,0,0,0,10.45,12.42Zm.76,4.67c.42.06.49,0,.57-.41a4.3,4.3,0,0,1,.26-.79.66.66,0,0,1,.52-.4.46.46,0,0,0,.37-.36c.08-.24,0-.3-.21-.27a2.06,2.06,0,0,0-1.39.75,1,1,0,0,0-.24.83Zm.62-4.77a1.77,1.77,0,0,0-.72.66,1.34,1.34,0,0,0,.35,2,.21.21,0,0,0,.17,0,2.19,2.19,0,0,1,1.32-.4v-.23c-.5.17-1,.22-1.3-.28A1.45,1.45,0,0,1,11.83,12.32ZM15,18.24H15a2.43,2.43,0,0,0,.2-.25,1.93,1.93,0,0,0,.32-1.49c-.05-.22-.14-.44-.38-.5a1.39,1.39,0,0,0-1.08.26A1.65,1.65,0,0,1,15,18.24Zm-.82-5.15a1.22,1.22,0,0,0-1.1-.85,1.26,1.26,0,0,0-1.15.76.94.94,0,0,0,.25,1l-.07-.23a.57.57,0,0,1,.49-.76,2.81,2.81,0,0,1,.65,0C13.52,13,13.83,13,14.14,13.09Zm.48,2.48a1.3,1.3,0,0,0-1.37-.08,1.25,1.25,0,0,0-.53,1.15,1.05,1.05,0,0,0,.83.74l-.17-.13a.55.55,0,0,1-.05-.94,3.37,3.37,0,0,1,.58-.41C14.14,15.78,14.38,15.68,14.62,15.57Zm-3.74-.51,0-.07a1.62,1.62,0,0,1-.59-.94.77.77,0,0,1,.19-.8,1.08,1.08,0,0,0,.18-.26l-.28-.15a.77.77,0,0,0-.19-.08c-.28-.07-.45.05-.47.33a3.52,3.52,0,0,0,0,.65A1.45,1.45,0,0,0,10.55,15,1.8,1.8,0,0,0,10.88,15.06Zm2.32,3.87,0-.07a1.72,1.72,0,0,1-1.06-.42.76.76,0,0,1-.31-.72c0-.29,0-.32-.29-.27a1,1,0,0,0-.3.08.27.27,0,0,0-.15.44,2.63,2.63,0,0,0,.8.86,1.45,1.45,0,0,0,1.05.22A1.39,1.39,0,0,0,13.2,18.93Zm.21-4.1h.22a11,11,0,0,1,1.27.27,1.4,1.4,0,0,1,1,1.12s0,0,0,0H16a5.3,5.3,0,0,0,0-.69.94.94,0,0,0-.75-.78,3.25,3.25,0,0,1-1.46-.36c-.11-.06-.17,0-.22.07Zm4.13,1.72A1.68,1.68,0,0,0,18,14.94c-.06-.18-.15-.34-.37-.37a1.45,1.45,0,0,0-.84.22A1.48,1.48,0,0,1,17.54,16.55Zm-1.68,1.94a.6.6,0,0,0-.7.17.84.84,0,0,1-.82.27,1.46,1.46,0,0,0-.51,0c-.09,0-.16.13-.24.2s.08.11.14.13A1.72,1.72,0,0,0,15.86,18.49Zm-.51-5.12a.72.72,0,0,0-.22-.55,3,3,0,0,1-1-1.13s-.11-.1-.15-.09-.25.12-.37.17c.28.28.56.51.78.78a7.74,7.74,0,0,1,.55.94Zm3,1.37h.06c0-.14,0-.27,0-.41a.83.83,0,0,0-.77-.8,7,7,0,0,1-1-.23c-.3-.1-.36-.1-.42.24C17.12,13.63,18,13.69,18.38,14.74Zm-4.11-.33c.17,0,.32.05.47.09s.19,0,.27-.11a1,1,0,0,1,.37-.26.46.46,0,0,0,.37-.51A1.6,1.6,0,0,0,14.27,14.41Zm1.65.48,1.24-.7a1,1,0,0,0-1.51.48l.15.12ZM15.66,18c.3.05.51,0,.58-.31s.17-.81.24-1.22a1.13,1.13,0,0,0,0-.31A7.84,7.84,0,0,0,15.66,18ZM14,14.24a1.72,1.72,0,0,1,.23-.26c.13-.12.09-.21,0-.3a1.55,1.55,0,0,0-.95-.34l.15.82Zm2.55,3.2a1.42,1.42,0,0,0,1.69-.66.46.46,0,0,0-.55.13.75.75,0,0,1-.76.26,1.56,1.56,0,0,0-.31,0Zm1.54-1.07c.28,0,.45-.06.51-.28s.14-.73.21-1.1a.52.52,0,0,0,0-.17h-.06Zm-1-.64-.35.33a.22.22,0,0,0-.05.11c0,.2,0,.41.05.66a1.09,1.09,0,0,0,.38-.16A.78.78,0,0,0,17.1,15.73ZM5,19.49l-.07-.08-1,.85c-.18.16-.12.33,0,.52Zm10.65-6.16.33.09.26-.43a1.1,1.1,0,0,0-.77-.28Zm-2.88,0-.24.21.27.32c.06-.09.16-.18.16-.27S12.83,13.47,12.74,13.36ZM13.9,17c.07-.07.16-.14.15-.16a.59.59,0,0,0-.19-.29c-.08-.06-.32.14-.28.2S13.77,16.93,13.9,17ZM4.54,18.66v0l-1-.07c0,.21,0,.23.19.21Zm10.1-4.93a1.11,1.11,0,0,0-.19-.71l-.07.41Zm1.65,1.64h.41c0-.09,0-.22-.09-.25S16.38,15.15,16.29,15.37Zm-.86.47.05-.05-.41-.36C15,15.84,15.33,15.7,15.43,15.84Zm2.42-1.47,0,0-.36-.28,0,.26Z"/><path d="M6.14,19a1.24,1.24,0,0,1,.29.2c.25.34.49.7.74,1a.18.18,0,0,1,0,.28c-.16.12-.36.18-.43.39,0,0-.11,0-.16,0a1.72,1.72,0,0,1-.77-1.63C5.79,19.07,6,19.08,6.14,19Z"/><path d="M4.58,10.37A2.37,2.37,0,0,1,6.71,7.89,4.32,4.32,0,0,1,8.88,8a2.3,2.3,0,0,1,1.7,1.91,2.51,2.51,0,0,1-1,2.59,3.41,3.41,0,0,1-4.29-.34A2.27,2.27,0,0,1,4.58,10.37Zm.25,0a2,2,0,0,0,.83,1.77A3.15,3.15,0,0,0,9,12.57a2.34,2.34,0,0,0,1.4-2.31A2.15,2.15,0,0,0,8.67,8.2a4,4,0,0,0-2.26,0A2.07,2.07,0,0,0,4.83,10.41Z"/><path d="M10.24,8.55a.57.57,0,0,1,.48-.62.57.57,0,0,1,.48.62.55.55,0,0,1-.48.61A.55.55,0,0,1,10.24,8.55Z"/><path d="M4.94,8.53c0,.09,0,.18-.05.26a.48.48,0,0,1-.45.37A.47.47,0,0,1,4,8.78a1.19,1.19,0,0,1,0-.53.42.42,0,0,1,.4-.32.45.45,0,0,1,.43.32A2.86,2.86,0,0,1,4.94,8.53Z"/><path d="M6.25,10.36,6.58,10a.22.22,0,0,1,.16-.07H8.43a.3.3,0,0,1,.19.1,4.66,4.66,0,0,1,.25.4c-.28.22-.55.46-.84.65s-.22.36-.2.58c0,.05.09.12.15.16.35.24.35.24.69,0L9,11.55l.25.31-.9.6a.19.19,0,0,1-.16,0,4.5,4.5,0,0,1-.45-.31.2.2,0,0,0-.29,0,5.39,5.39,0,0,1-.5.33.19.19,0,0,1-.18,0l-.86-.58.24-.31c.19.13.36.24.53.37s.17.09.26,0l.17-.12a.43.43,0,0,0,0-.74Z"/></g><g class="cls-3"><path d="M12.68,10.74l.52.45s.07-.06.06-.1c-.08-.22.08-.25.22-.24a9.1,9.1,0,0,1,1,.08,12.64,12.64,0,0,1,2.59.51c.45.17.87.41,1.3.61a.35.35,0,0,1,.21.4c-.07.4-.16.79-.24,1.18,0,.13,0,.26-.06.41.29,0,.38.15.4.36a2.44,2.44,0,0,1-.4,1.74s0,0,0,.07a1.67,1.67,0,0,1-1.92,1.19l-.13,0-.38.53c0,.07,0,.17,0,.23A2,2,0,0,1,14,19.26a3,3,0,0,1-.78-.17.88.88,0,0,1-.25-.22l-.71.12a7.55,7.55,0,0,1,.5,2.54h-.22c-.06-.42-.09-.83-.17-1.22s-.23-.83-.36-1.24c0-.07-.11-.13-.19-.17a6.79,6.79,0,0,1-.64,2.28h.06a.68.68,0,0,1,0,.27s-.14.07-.22.08h-.4a4.43,4.43,0,0,0,.7-1.59c.07-.33.11-.68.16-1,0-.15,0-.19-.2-.19-1,0-2,.08-3,.07A9.86,9.86,0,0,1,6,18.49c-.17,0-.39.1-.58.17s-.07.11-.1.16l-.08,0c-.08-.21-.17-.42-.23-.64,0,0,.06-.15.12-.17s.29-.07.47-.12l.22-.67c-.12.16-.41.19-.35.46L4.71,18l.14.27-.08.41.24,0,.29.45C5,19.73,5,20.61,4.14,21c-.08-.27-.25-.16-.43-.13l.37.67h-.4l-.44-1.21L1.8,22.41h0c.08-.22.15-.44.24-.65s0-.24-.13-.29l-.13-.06c-.2,0-.26-.15-.31-.36A1,1,0,0,0,1,20.56c-.16-.12-.22-.22-.16-.41s0-.11,0-.16A.92.92,0,0,0,1,19.23c-.06-.17,0-.23.18-.27l1.59-.42c.18,0,.27-.11.2-.33a1.94,1.94,0,0,1-.4,0A1.54,1.54,0,0,1,2.22,18l.15-.3,0,0a2.76,2.76,0,0,1-.64-3.07A6.44,6.44,0,0,1,3,12.48l.23-.25a.21.21,0,0,1,0-.06A4.24,4.24,0,0,1,1.58,8.84a15.44,15.44,0,0,1,.07-1.67.43.43,0,0,0-.09-.34A2.92,2.92,0,0,1,.7,4.65a1.88,1.88,0,0,1,.87-1.44,3.81,3.81,0,0,1,1.85-.62,2.19,2.19,0,0,1,1.77.76.27.27,0,0,0,.22.07,6.11,6.11,0,0,1,3.94.18.3.3,0,0,0,.38-.09,1.84,1.84,0,0,1,2-.52,4.39,4.39,0,0,1,1.68.82A1.75,1.75,0,0,1,14,5.6a3.53,3.53,0,0,1-.72,1.63.25.25,0,0,0-.05.17A6.82,6.82,0,0,1,12.68,10.74ZM9.74,12.15c.12-.23.24-.41.32-.6a1.52,1.52,0,0,1,1.37-1,2.9,2.9,0,0,1,.78,0c.2,0,.26,0,.32-.19a6.87,6.87,0,0,0,.42-3,.31.31,0,0,0-.11-.19,1.19,1.19,0,0,1-.43-.84.21.21,0,0,0-.05-.13A5.69,5.69,0,0,0,11,4.91c-.44-.28-.9-.51-1.3-.82a2.15,2.15,0,0,0-.73-.39,4.69,4.69,0,0,0-4.47.61c-.2.16-.48.24-.67.38A4.67,4.67,0,0,0,2.61,6a1.68,1.68,0,0,1-.6.77s-.07.13-.09.2a8,8,0,0,0-.07,2.13,4,4,0,0,0,3.06,3.61,14.07,14.07,0,0,0,3.6.26.76.76,0,0,0,.66-.42C9.32,12.32,9.48,12.15,9.74,12.15ZM9.12,13h0l-.13.1a10.65,10.65,0,0,0-3,4.55.43.43,0,0,0,.35.64,2.62,2.62,0,0,0,.38.09,19.52,19.52,0,0,0,4.39.12l0,0c-.18-.24-.37-.48-.54-.73a.5.5,0,0,1,0-.63.19.19,0,0,0,.05-.13c0-.22,0-.45-.05-.68,0-.39,0-.77-.06-1.16a.24.24,0,0,0-.18-.24,1.63,1.63,0,0,1-1-1.13C9.18,13.53,9.16,13.27,9.12,13Zm-3,.69c-.86-.63-2.14-.63-3.53.45L2.41,14c.28-.18.52-.36.79-.5A4.81,4.81,0,0,1,4,13.13c.29-.08.58-.1.84-.15l-1.38-.59a5.73,5.73,0,0,0-1.62,2.84,2.44,2.44,0,0,0,.49,2s.15.11.19.09a1.71,1.71,0,0,1,1.22.08c.17.06.33.14.5.21.26-.47.25-.62,0-1a1,1,0,0,1-.13-.17A2,2,0,0,1,4,16.15c0-.06,0-.17.06-.18.3-.07.59-.12,1-.19l.48-1.93ZM2.17,6.34c-.64-.77-.71-1.26-.26-1.79s1.14-.7,2-.19l1.14-.74a2,2,0,0,0-1.34-.78,3.27,3.27,0,0,0-2,.57A1.6,1.6,0,0,0,1,4.56a2.73,2.73,0,0,0,.76,2.11Zm8.69-1.76a3.41,3.41,0,0,1,.62-.33,1.24,1.24,0,0,1,1.34.5,1,1,0,0,1,0,1.53.29.29,0,0,0,0,.42,1.14,1.14,0,0,0,.15.23c.09.15.17.15.28,0a3.5,3.5,0,0,0,.59-1.68,1.29,1.29,0,0,0-.41-1.13,3.71,3.71,0,0,0-2.22-1,1.47,1.47,0,0,0-1.37.72ZM2.2,21.36l.32-.45a6.34,6.34,0,0,1,1.9-2c.15-.09.19-.19.07-.36a12.5,12.5,0,0,0-3.31.64.45.45,0,0,1,.08.54l-.12.38c0,.12,0,.19.11.28a1.64,1.64,0,0,1,.43.52c.07.17.13.27.3.32A1,1,0,0,1,2.2,21.36ZM14,11.1l0,.05c.2.26.41.51.6.78s.24.32.49.2a.42.42,0,0,1,.31,0,2.12,2.12,0,0,1,.65.34,1.75,1.75,0,0,0,1.12.44,1.17,1.17,0,0,1,1,.45h.07c.05-.28.11-.56.16-.84a.29.29,0,0,0-.17-.35c-.26-.12-.5-.26-.75-.38a8.44,8.44,0,0,0-2.28-.55ZM12,15.92a1.76,1.76,0,0,0-.15,1.15,1.24,1.24,0,0,0,.87,1,2.58,2.58,0,0,0,1.17.09.47.47,0,0,0,.45-.43.86.86,0,0,0-.18-.86,1,1,0,0,1-1.17.52A1.43,1.43,0,0,1,12,15.92Zm-5.18-.73,1.64-2H5.74a1.39,1.39,0,0,1,.88.78A2.07,2.07,0,0,1,6.78,15.19Zm3.33-3.11c.3.26.35.25.66,0a5,5,0,0,1,.7-.51.69.69,0,0,1,.67-.06.59.59,0,0,0,.75-.28,1.77,1.77,0,0,0-1.25-.39A1.49,1.49,0,0,0,10.11,12.08Zm.76,4.67c.42.06.49,0,.57-.41a4.3,4.3,0,0,1,.26-.79.66.66,0,0,1,.52-.4.46.46,0,0,0,.37-.36c.08-.24,0-.3-.21-.27a2.06,2.06,0,0,0-1.39.75,1,1,0,0,0-.24.83ZM11.49,12a1.77,1.77,0,0,0-.72.66,1.34,1.34,0,0,0,.35,2,.21.21,0,0,0,.17,0,2.19,2.19,0,0,1,1.32-.4V14c-.5.17-1,.22-1.3-.28A1.45,1.45,0,0,1,11.49,12Zm3.13,5.92h.07a2.43,2.43,0,0,0,.2-.25,1.93,1.93,0,0,0,.32-1.49c-.05-.22-.14-.44-.38-.5a1.38,1.38,0,0,0-1.08.26A1.65,1.65,0,0,1,14.62,17.9Zm-.82-5.15a1.22,1.22,0,0,0-1.1-.85,1.27,1.27,0,0,0-1.15.75,1,1,0,0,0,.25,1l-.07-.23a.56.56,0,0,1,.49-.76,2.81,2.81,0,0,1,.65,0C13.18,12.64,13.49,12.7,13.8,12.75Zm.48,2.48a1.3,1.3,0,0,0-1.37-.08,1.25,1.25,0,0,0-.53,1.15,1.05,1.05,0,0,0,.83.74L13,16.91A.55.55,0,0,1,13,16a3.37,3.37,0,0,1,.58-.41C13.8,15.44,14,15.34,14.28,15.23Zm-3.74-.51,0-.07a1.62,1.62,0,0,1-.59-.94.77.77,0,0,1,.19-.8,1.08,1.08,0,0,0,.18-.26l-.28-.15a.77.77,0,0,0-.19-.08c-.28-.07-.45.05-.47.33a3.52,3.52,0,0,0,0,.65,1.45,1.45,0,0,0,.79,1.22A3.18,3.18,0,0,0,10.54,14.72Zm2.32,3.87,0-.07a1.69,1.69,0,0,1-1.06-.42.76.76,0,0,1-.31-.72c0-.29,0-.32-.29-.27a1,1,0,0,0-.3.08.27.27,0,0,0-.15.44,2.63,2.63,0,0,0,.8.86,1.45,1.45,0,0,0,1.05.22A1.39,1.39,0,0,0,12.86,18.59Zm.21-4.1h.22a11,11,0,0,1,1.27.27,1.4,1.4,0,0,1,1,1.12s0,0,0,0h.06a5.3,5.3,0,0,0,0-.69.94.94,0,0,0-.75-.78,3.22,3.22,0,0,1-1.46-.36c-.11-.06-.17,0-.22.07ZM17.2,16.2a1.66,1.66,0,0,0,.46-1.6c-.06-.18-.15-.34-.37-.37a1.45,1.45,0,0,0-.84.22A1.47,1.47,0,0,1,17.2,16.2Zm-1.68,1.95a.6.6,0,0,0-.7.17.84.84,0,0,1-.82.27,1.46,1.46,0,0,0-.51,0c-.09,0-.16.13-.24.2s.08.11.14.13A1.72,1.72,0,0,0,15.52,18.15ZM15,13a.72.72,0,0,0-.22-.55,3,3,0,0,1-1-1.13s-.11-.1-.15-.09-.25.12-.37.17a9.56,9.56,0,0,1,.78.78,7.74,7.74,0,0,1,.55.94Zm3,1.37h.06c0-.14,0-.27,0-.41a.83.83,0,0,0-.77-.8,7,7,0,0,1-1-.23c-.3-.1-.36-.1-.42.24C16.78,13.29,17.68,13.35,18,14.4Zm-4.11-.33c.17,0,.32,0,.47.09s.19,0,.27-.11a1,1,0,0,1,.37-.26.46.46,0,0,0,.37-.51A1.58,1.58,0,0,0,13.93,14.07Zm1.65.48,1.24-.7a1,1,0,0,0-1.51.48l.15.12Zm-.26,3.15c.3.05.51,0,.58-.31s.17-.81.24-1.22a1.13,1.13,0,0,0,0-.31A7.84,7.84,0,0,0,15.32,17.7ZM13.7,13.9a1.72,1.72,0,0,1,.23-.26c.13-.12.09-.21,0-.3A1.55,1.55,0,0,0,13,13l.15.82Zm2.55,3.2a1.42,1.42,0,0,0,1.69-.66.46.46,0,0,0-.55.13.75.75,0,0,1-.76.26,1.56,1.56,0,0,0-.31,0ZM17.79,16c.28,0,.45-.06.51-.28s.14-.73.21-1.1a.52.52,0,0,0,0-.17h-.06Zm-1-.64-.35.33a.22.22,0,0,0-.05.11c0,.2,0,.41.05.66a1.09,1.09,0,0,0,.38-.16A.78.78,0,0,0,16.76,15.39ZM4.63,19.15l-.07-.08-1,.85c-.18.16-.12.33,0,.52ZM15.28,13l.33.09.26-.43a1.1,1.1,0,0,0-.77-.28ZM12.4,13l-.24.21.27.32c.06-.09.16-.18.16-.27S12.49,13.13,12.4,13Zm1.16,3.67c.07-.07.16-.14.15-.16a.59.59,0,0,0-.19-.29c-.08-.06-.32.14-.28.2S13.43,16.59,13.56,16.69ZM4.2,18.32v0l-1-.07c0,.21,0,.23.19.21Zm10.1-4.93a1.11,1.11,0,0,0-.19-.71l-.07.41ZM16,15h.41c0-.09,0-.22-.09-.25S16,14.81,16,15Zm-.86.47.05-.05-.41-.36C14.63,15.5,15,15.36,15.09,15.5ZM17.51,14l0,0-.36-.28,0,.26Z"/><path d="M5.8,18.65a1.24,1.24,0,0,1,.29.2c.25.34.49.7.74,1a.18.18,0,0,1,0,.28c-.16.12-.36.18-.43.39,0,0-.11,0-.16,0a1.72,1.72,0,0,1-.77-1.63C5.45,18.73,5.64,18.74,5.8,18.65Z"/><path d="M4.24,10A2.37,2.37,0,0,1,6.37,7.55a4.32,4.32,0,0,1,2.17.12,2.3,2.3,0,0,1,1.7,1.91,2.51,2.51,0,0,1-1,2.59,3.41,3.41,0,0,1-4.29-.34A2.27,2.27,0,0,1,4.24,10Zm.25,0a2,2,0,0,0,.83,1.77,3.15,3.15,0,0,0,3.31.39A2.34,2.34,0,0,0,10,9.92a2.15,2.15,0,0,0-1.7-2.06,4,4,0,0,0-2.26,0A2.07,2.07,0,0,0,4.49,10.07Z"/><path d="M9.9,8.21a.56.56,0,0,1,.48-.62.57.57,0,0,1,.48.62.55.55,0,0,1-.48.61A.55.55,0,0,1,9.9,8.21Z"/><path d="M4.6,8.19c0,.09,0,.18,0,.26a.48.48,0,0,1-.45.37.47.47,0,0,1-.43-.38,1.19,1.19,0,0,1,0-.53.42.42,0,0,1,.4-.32.45.45,0,0,1,.43.32A2.86,2.86,0,0,1,4.6,8.19Z"/><path d="M5.91,10l.33-.41a.22.22,0,0,1,.16-.07H8.09a.3.3,0,0,1,.19.1,4.66,4.66,0,0,1,.25.4c-.28.22-.55.46-.84.65a.51.51,0,0,0-.2.57c0,.06.09.12.15.17.35.24.35.24.69,0l.32-.22.25.31c-.3.2-.6.41-.9.6a.19.19,0,0,1-.16,0,4.5,4.5,0,0,1-.45-.31.2.2,0,0,0-.29,0,5.39,5.39,0,0,1-.5.33.19.19,0,0,1-.18,0l-.86-.58.24-.31c.19.13.36.24.53.37s.17.09.26,0l.17-.12a.43.43,0,0,0,0-.74Z"/></g><path class="cls-4" d="M12.88,10.93l.52.46s.06-.06,0-.1c-.07-.22.09-.25.23-.24a9.1,9.1,0,0,1,1.05.08,12.64,12.64,0,0,1,2.59.51c.45.17.87.4,1.3.61a.35.35,0,0,1,.21.4c-.07.39-.16.78-.24,1.18a4,4,0,0,0-.06.41c.29,0,.38.15.4.36a2.44,2.44,0,0,1-.4,1.74l-.06.06a1.64,1.64,0,0,1-1.91,1.19l-.14,0-.37.53c0,.07,0,.17,0,.23a2,2,0,0,1-1.85,1.13,3,3,0,0,1-.78-.17,1.09,1.09,0,0,1-.26-.22l-.7.12a7.54,7.54,0,0,1,.5,2.53l-.12,0-.1,0c-.06-.41-.09-.82-.17-1.21s-.23-.83-.36-1.24c0-.07-.11-.13-.19-.18a6.85,6.85,0,0,1-.64,2.29h.06c0,.09.07.19,0,.27s-.13.07-.21.08h-.4a4.5,4.5,0,0,0,.7-1.59c.07-.33.11-.68.16-1,0-.15-.06-.19-.2-.19-1,0-2,.08-3,.06a9.51,9.51,0,0,1-2.37-.3c-.16-.05-.38.1-.57.17s-.07.11-.1.16l-.08,0c-.08-.21-.17-.42-.24-.64,0,0,.07-.15.13-.17a4,4,0,0,1,.47-.12L6,17.39c-.12.16-.41.19-.35.46l-.75.34.13.26L5,18.87l.24,0,.29.44c-.26.64-.27,1.52-1.16,1.9-.08-.28-.25-.16-.44-.13l.38.67h-.4l-.44-1.21L2,22.61H2c.08-.21.14-.43.24-.64s0-.24-.13-.29A.59.59,0,0,0,2,21.61c-.19,0-.25-.15-.3-.36a1,1,0,0,0-.41-.5c-.16-.11-.23-.22-.16-.4s0-.11,0-.16a1,1,0,0,0,.06-.76c-.07-.17,0-.23.17-.27.53-.14,1.06-.29,1.6-.42.18,0,.26-.11.2-.33a3,3,0,0,1-.4,0,2.3,2.3,0,0,1-.32-.15l.15-.3,0-.05A2.74,2.74,0,0,1,2,14.81a6.28,6.28,0,0,1,1.28-2.13c.07-.08.15-.16.22-.25l0-.06A4.21,4.21,0,0,1,1.78,9c0-.55,0-1.11.06-1.66A.39.39,0,0,0,1.76,7,2.88,2.88,0,0,1,.9,4.85a1.88,1.88,0,0,1,.87-1.44,3.71,3.71,0,0,1,1.85-.62,2.17,2.17,0,0,1,1.76.76.28.28,0,0,0,.23.07,6.18,6.18,0,0,1,3.94.17.28.28,0,0,0,.38-.08,1.82,1.82,0,0,1,2-.52A4.25,4.25,0,0,1,13.58,4a1.72,1.72,0,0,1,.58,1.79,3.52,3.52,0,0,1-.71,1.63.24.24,0,0,0,0,.16A6.79,6.79,0,0,1,12.88,10.93ZM9.94,12.35c.12-.23.23-.41.32-.61a1.5,1.5,0,0,1,1.37-.94,2.54,2.54,0,0,1,.78,0c.2,0,.26,0,.32-.19a6.87,6.87,0,0,0,.42-3A.37.37,0,0,0,13,7.45a1.26,1.26,0,0,1-.44-.84.18.18,0,0,0,0-.13,5.56,5.56,0,0,0-1.41-1.37c-.43-.28-.89-.51-1.29-.83a2.13,2.13,0,0,0-.73-.38,4.71,4.71,0,0,0-4.47.6c-.2.17-.48.25-.67.39A4.54,4.54,0,0,0,2.81,6.21c-.17.28-.28.6-.6.77a.31.31,0,0,0-.09.2,8,8,0,0,0-.07,2.13,4,4,0,0,0,3.06,3.61,15,15,0,0,0,3.6.26.76.76,0,0,0,.66-.42C9.52,12.52,9.68,12.35,9.94,12.35Zm-.63.85h0l-.13.11a10.65,10.65,0,0,0-3,4.55.43.43,0,0,0,.35.64l.37.09a19.62,19.62,0,0,0,4.4.12l0,0c-.19-.24-.38-.48-.55-.73a.51.51,0,0,1,0-.63.19.19,0,0,0,0-.13c0-.23,0-.45,0-.68,0-.39-.05-.77-.07-1.16a.21.21,0,0,0-.17-.24A1.61,1.61,0,0,1,9.44,14C9.38,13.73,9.36,13.47,9.31,13.2Zm-3,.69c-.86-.64-2.14-.63-3.53.44l-.18-.18c.28-.18.52-.36.79-.5a4.1,4.1,0,0,1,.82-.32,7,7,0,0,1,.83-.15l-1.37-.59a5.84,5.84,0,0,0-1.63,2.83,2.46,2.46,0,0,0,.5,2c0,.06.14.12.19.1A1.71,1.71,0,0,1,4,17.63c.17.06.33.14.49.21.26-.47.25-.63,0-1a1.77,1.77,0,0,1-.12-.17,2,2,0,0,1-.13-.31c0-.06,0-.17.06-.18.29-.07.59-.12,1-.19l.48-1.93ZM2.37,6.54c-.64-.77-.71-1.26-.26-1.79s1.13-.7,2-.19l1.15-.74A2,2,0,0,0,4,3a3.23,3.23,0,0,0-2,.57,1.59,1.59,0,0,0-.75,1.15,2.7,2.7,0,0,0,.76,2.11Zm8.69-1.76a3.11,3.11,0,0,1,.62-.33A1.24,1.24,0,0,1,13,5a1,1,0,0,1,0,1.53.3.3,0,0,0-.06.42l.15.23c.1.15.18.15.29,0A3.39,3.39,0,0,0,14,5.45a1.26,1.26,0,0,0-.4-1.13,3.71,3.71,0,0,0-2.23-1A1.46,1.46,0,0,0,10,4.07ZM2.4,21.55c.12-.15.22-.3.32-.44a6.3,6.3,0,0,1,1.89-2c.16-.09.2-.19.08-.36a12.5,12.5,0,0,0-3.31.64.44.44,0,0,1,.08.53l-.12.39c0,.12,0,.19.1.28a1.55,1.55,0,0,1,.44.52c.07.17.13.27.3.32A1.5,1.5,0,0,1,2.4,21.55ZM14.22,11.3l0,0c.2.26.41.51.6.78s.24.31.49.2a.42.42,0,0,1,.31,0,2.24,2.24,0,0,1,.65.34,1.66,1.66,0,0,0,1.11.43,1.21,1.21,0,0,1,1,.46h.07c0-.27.11-.55.16-.83a.29.29,0,0,0-.17-.35L17.65,12a8.37,8.37,0,0,0-2.27-.55Zm-2.06,4.82A1.83,1.83,0,0,0,12,17.27a1.26,1.26,0,0,0,.88,1,2.72,2.72,0,0,0,1.17.09A.48.48,0,0,0,14.5,18a.88.88,0,0,0-.18-.87,1,1,0,0,1-1.17.53A1.43,1.43,0,0,1,12.16,16.12ZM7,15.39l1.64-2H5.94a1.39,1.39,0,0,1,.88.78A2.07,2.07,0,0,1,7,15.39Zm3.33-3.11c.3.26.35.25.66,0a4.32,4.32,0,0,1,.7-.51.72.72,0,0,1,.67-.07.57.57,0,0,0,.75-.27,1.82,1.82,0,0,0-1.25-.4A1.51,1.51,0,0,0,10.31,12.28ZM11.07,17c.42.06.49,0,.57-.41a4.3,4.3,0,0,1,.26-.79.64.64,0,0,1,.51-.4.47.47,0,0,0,.38-.36c.08-.24,0-.3-.21-.28a2.07,2.07,0,0,0-1.39.76,1,1,0,0,0-.24.82C11,16.52,11,16.73,11.07,17Zm.62-4.77a1.77,1.77,0,0,0-.72.66,1.34,1.34,0,0,0,.35,2,.2.2,0,0,0,.17,0,2.18,2.18,0,0,1,1.32-.39v-.23c-.5.17-1,.22-1.3-.28A1.45,1.45,0,0,1,11.69,12.18Zm3.13,5.92h.07a2.43,2.43,0,0,0,.2-.25,1.93,1.93,0,0,0,.32-1.49c-.05-.22-.14-.44-.38-.5A1.42,1.42,0,0,0,14,16.1,1.67,1.67,0,0,1,14.82,18.1ZM14,13a1.23,1.23,0,0,0-1.1-.85,1.27,1.27,0,0,0-1.15.75,1,1,0,0,0,.25,1l-.07-.23a.56.56,0,0,1,.48-.76,2.37,2.37,0,0,1,.65,0C13.38,12.84,13.68,12.9,14,13Zm.48,2.48a1.28,1.28,0,0,0-1.37-.08,1.24,1.24,0,0,0-.53,1.15,1.05,1.05,0,0,0,.82.74,1.53,1.53,0,0,0-.16-.13.56.56,0,0,1-.06-.95,3.23,3.23,0,0,1,.59-.4C14,15.63,14.24,15.54,14.48,15.43Zm-3.74-.52,0-.06a1.62,1.62,0,0,1-.59-.94.77.77,0,0,1,.19-.8,1.32,1.32,0,0,0,.18-.26l-.28-.16-.2-.07a.33.33,0,0,0-.46.33,4.7,4.7,0,0,0,0,.65,1.48,1.48,0,0,0,.8,1.22A1.78,1.78,0,0,0,10.74,14.91Zm2.32,3.88,0-.07A1.69,1.69,0,0,1,12,18.3a.75.75,0,0,1-.31-.72c0-.29,0-.32-.29-.27a1,1,0,0,0-.3.08.27.27,0,0,0-.15.44,2.53,2.53,0,0,0,.8.86,1.48,1.48,0,0,0,1,.21A1.08,1.08,0,0,0,13.06,18.79Zm.21-4.11.21,0a10.74,10.74,0,0,1,1.28.26,1.43,1.43,0,0,1,1,1.13s0,0,0,0h0a5.3,5.3,0,0,0,0-.69,1,1,0,0,0-.75-.79,3.08,3.08,0,0,1-1.46-.35.14.14,0,0,0-.23.07C13.37,14.47,13.33,14.57,13.27,14.68ZM17.4,16.4a1.66,1.66,0,0,0,.46-1.6c-.06-.18-.15-.34-.37-.37a1.38,1.38,0,0,0-.84.22A1.48,1.48,0,0,1,17.4,16.4Zm-1.68,1.94a.62.62,0,0,0-.7.18.86.86,0,0,1-.83.27,1.68,1.68,0,0,0-.5,0c-.09,0-.16.14-.24.21a.58.58,0,0,0,.14.13A1.72,1.72,0,0,0,15.72,18.34Zm-.51-5.11a.72.72,0,0,0-.22-.55,3.12,3.12,0,0,1-1-1.13s-.11-.1-.15-.09a3.17,3.17,0,0,0-.37.17,9.56,9.56,0,0,1,.78.78,8.43,8.43,0,0,1,.55.93Zm3,1.37h.06v-.41a.85.85,0,0,0-.78-.81,6,6,0,0,1-1-.22c-.3-.11-.36-.1-.42.24C17,13.48,17.88,13.55,18.24,14.6Zm-4.12-.34.48.1c.13,0,.19,0,.27-.11a1,1,0,0,1,.37-.26.46.46,0,0,0,.37-.51A1.6,1.6,0,0,0,14.12,14.26Zm1.66.49L17,14a1,1,0,0,0-1.51.49l.15.11Zm-.26,3.15c.3.05.5,0,.58-.31s.17-.81.24-1.22a1.91,1.91,0,0,0,0-.32A8.05,8.05,0,0,0,15.52,17.9ZM13.9,14.1a1.72,1.72,0,0,1,.23-.26c.13-.12.08-.21,0-.3a1.53,1.53,0,0,0-.95-.34l.15.82Zm2.55,3.2a1.44,1.44,0,0,0,1.69-.66.45.45,0,0,0-.55.13.76.76,0,0,1-.76.26,1.08,1.08,0,0,0-.31,0ZM18,16.23c.28,0,.45-.06.51-.28s.14-.73.21-1.1c0,0,0-.11,0-.17h-.06Zm-1-.64-.35.33a.24.24,0,0,0-.05.1c0,.21,0,.42.05.67.13-.05.29-.07.37-.16A.78.78,0,0,0,17,15.59ZM4.83,19.34l-.07-.07-1,.85c-.18.16-.12.33,0,.52Zm10.65-6.15.33.08.25-.42a1.09,1.09,0,0,0-.76-.28Zm-2.88,0-.25.21.28.32c.06-.09.16-.18.16-.27S12.69,13.33,12.6,13.22Zm1.16,3.67c.07-.07.16-.14.15-.16a.59.59,0,0,0-.19-.29c-.08-.06-.32.13-.28.2S13.63,16.79,13.76,16.89ZM4.4,18.52v0l-1-.07c0,.21.05.23.19.21Zm10.1-4.93a1.11,1.11,0,0,0-.19-.71l-.07.41Zm1.65,1.64h.41c0-.09,0-.22-.09-.25S16.23,15,16.15,15.23Zm-.86.47.05,0-.42-.36C14.83,15.7,15.19,15.55,15.29,15.7Zm2.42-1.47,0,0-.36-.28.05.26Z"/><path class="cls-4" d="M6,18.85a1,1,0,0,1,.28.19c.26.35.5.7.75,1.05a.19.19,0,0,1-.06.29c-.15.12-.35.17-.42.39,0,0-.11,0-.16,0a1.73,1.73,0,0,1-.77-1.63C5.65,18.93,5.84,18.94,6,18.85Z"/><path class="cls-4" d="M4.44,10.22A2.36,2.36,0,0,1,6.57,7.75a4.21,4.21,0,0,1,2.17.12,2.3,2.3,0,0,1,1.7,1.91,2.52,2.52,0,0,1-1,2.59A3.42,3.42,0,0,1,5.12,12,2.28,2.28,0,0,1,4.44,10.22Zm.25,0A2,2,0,0,0,5.51,12a3.17,3.17,0,0,0,3.32.39,2.38,2.38,0,0,0,1.4-2.32A2.16,2.16,0,0,0,8.52,8.05a4,4,0,0,0-2.25,0A2.09,2.09,0,0,0,4.69,10.26Z"/><path class="cls-4" d="M10.1,8.41c0-.35.21-.62.48-.62a.56.56,0,0,1,.48.61.56.56,0,0,1-.48.62A.55.55,0,0,1,10.1,8.41Z"/><path class="cls-4" d="M4.79,8.38a1.59,1.59,0,0,1,0,.26A.48.48,0,0,1,4.3,9a.46.46,0,0,1-.43-.38,1.19,1.19,0,0,1,0-.53.4.4,0,0,1,.4-.32.46.46,0,0,1,.43.32C4.76,8.2,4.77,8.3,4.79,8.38Z"/><path class="cls-4" d="M6.11,10.22a4.91,4.91,0,0,1,.33-.41.22.22,0,0,1,.16-.07H8.29a.27.27,0,0,1,.18.1,2.51,2.51,0,0,1,.26.4,10.61,10.61,0,0,1-.85.65.52.52,0,0,0-.19.57c0,.06.09.12.14.16.35.25.35.25.7,0l.31-.22.26.31-.9.6a.19.19,0,0,1-.16,0A5.09,5.09,0,0,1,7.59,12a.2.2,0,0,0-.3,0,4.2,4.2,0,0,1-.49.33.23.23,0,0,1-.18,0l-.86-.58L6,11.41c.18.13.36.24.53.37s.16.09.26,0A1,1,0,0,1,7,11.66a.44.44,0,0,0,0-.74Z"/></g></g></svg>