<svg xmlns="http://www.w3.org/2000/svg" viewBox="0 0 38.55 24.66"><defs><style>.cls-1{isolation:isolate;}.cls-2{opacity:0.15;}.cls-2,.cls-3{mix-blend-mode:multiply;}.cls-4{fill:#fff;}</style></defs><title>convert-CUSTOMIZE-SVG-03</title><g class="cls-1"><g id="Layer_1" data-name="Layer 1"><g class="cls-2"><path d="M5.64,19.75c.21-.18.41-.36.63-.52a1.48,1.48,0,0,1,.92-.37c.18,0,.35,0,.42.23a.36.36,0,0,1-.16.45,7.75,7.75,0,0,1-.79.46,4,4,0,0,1-.58.21l-.72.21A1.82,1.82,0,0,0,5,20.23a.35.35,0,0,0-.4.32.34.34,0,0,0,.32.39c.18,0,.22.07.25.22a4,4,0,0,1,.11,1.65,1.59,1.59,0,0,1-.24.51.28.28,0,0,1-.38.14.51.51,0,0,1-.25-.33,4.94,4.94,0,0,1,0-.94c0-.21.1-.41.12-.63a1.32,1.32,0,0,1-.12.2,9.21,9.21,0,0,1-.73.92.83.83,0,0,1-.49.2.3.3,0,0,1-.33-.43,1.53,1.53,0,0,1,.33-.53c.3-.28.62-.53.94-.79a1.14,1.14,0,0,0,.19-.19c-.26.09-.52.2-.79.28a2.1,2.1,0,0,1-1.14.11l-.12,0c-.17-.07-.34-.17-.34-.39a.38.38,0,0,1,.36-.36,11.2,11.2,0,0,1,1.3-.08c.28,0,.57.06.86.09a10.38,10.38,0,0,1-1-.43,4.66,4.66,0,0,1-.76-.56.94.94,0,0,1-.23-.44.32.32,0,0,1,.43-.4,1.4,1.4,0,0,1,.48.26c.33.3.63.64.94,1a.61.61,0,0,0,.17.14,4.77,4.77,0,0,1-.24-.44c-.13-.37-.27-.74-.37-1.11a1,1,0,0,1,0-.46c0-.16.14-.3.33-.31A.35.35,0,0,1,4.7,18a7.77,7.77,0,0,1,.24.95,5.75,5.75,0,0,1,0,.69,10.36,10.36,0,0,1,.26-1A2.34,2.34,0,0,1,5.68,18a.37.37,0,0,1,.48-.1.41.41,0,0,1,.15.47,3.44,3.44,0,0,1-.55,1.18l-.14.22Z"/><path d="M26.27,4.86a2,2,0,0,1-.12.19,9.05,9.05,0,0,1-.66.87,1,1,0,0,1-.52.23c-.32,0-.5-.19-.35-.47A2.23,2.23,0,0,1,25.11,5c.33-.3.69-.56,1-.83a8.85,8.85,0,0,1-.91.31,5.25,5.25,0,0,1-1,.12.57.57,0,0,1-.59-.43c0-.2.16-.38.51-.41a11.7,11.7,0,0,1,1.45,0,4.62,4.62,0,0,1,.57.07c-.36-.16-.68-.28-1-.45a4.44,4.44,0,0,1-.78-.59.8.8,0,0,1-.19-.44A.29.29,0,0,1,24.63,2a1.56,1.56,0,0,1,.57.3c.38.35.73.73,1.08,1.09A4.48,4.48,0,0,1,26,2.9a8.92,8.92,0,0,1-.37-1.14.78.78,0,0,1,.08-.49.33.33,0,0,1,.63,0,4.85,4.85,0,0,1,.27.94,7,7,0,0,1,.06.77,8.25,8.25,0,0,1,.25-1,2.56,2.56,0,0,1,.44-.68.37.37,0,0,1,.62.4c-.14.34-.29.68-.45,1-.07.15-.18.28-.24.44l.25-.24a2.52,2.52,0,0,1,1.11-.68.83.83,0,0,1,.27,0c.16,0,.31.06.37.23a.33.33,0,0,1-.14.41,7.12,7.12,0,0,1-1,.55,7.8,7.8,0,0,1-1.07.33.24.24,0,0,1-.2,0c-.18-.14-.36-.19-.49,0a.52.52,0,0,0-.12.39.31.31,0,0,0,.4.25h.09a4.07,4.07,0,0,1,.12,2.05,1,1,0,0,1-.25.39.31.31,0,0,1-.55-.16,4.78,4.78,0,0,1,0-1,4.8,4.8,0,0,1,.15-.63Z"/><path d="M19.18,3.57c-.11.16-.2.35-.05.5a.57.57,0,0,0,.37.14c.19,0,.27-.15.29-.45a4.54,4.54,0,0,1,1.94.12,1.39,1.39,0,0,1,.49.34.42.42,0,0,1,.06.39.42.42,0,0,1-.33.18,1.82,1.82,0,0,1-.66-.1c-.35-.12-.68-.28-1-.43a.84.84,0,0,1-.16-.07c.3.29.64.58.93.91a1.59,1.59,0,0,1,.31.59.4.4,0,0,1-.16.51.37.37,0,0,1-.49-.11,6.36,6.36,0,0,1-.62-.85c-.18-.3-.31-.63-.48-1a5.21,5.21,0,0,1,.13.79,5.89,5.89,0,0,1,0,1.11.89.89,0,0,1-.26.46.31.31,0,0,1-.55-.15,3.29,3.29,0,0,1,0-.94c0-.25.12-.5.16-.76-.05.08-.09.17-.15.25a10.92,10.92,0,0,1-.73.92,1.09,1.09,0,0,1-.54.19.27.27,0,0,1-.3-.33.72.72,0,0,1,.17-.4c.31-.32.65-.62,1-.92.11-.1.25-.18.36-.3l-.5.19a2.78,2.78,0,0,1-1.3.23,1.2,1.2,0,0,1-.5-.2.3.3,0,0,1,0-.5,1.29,1.29,0,0,1,.53-.18c.54,0,1.09,0,1.63.06a.5.5,0,0,0,.17,0,5.58,5.58,0,0,1-.67-.28,8.11,8.11,0,0,1-1-.66A1,1,0,0,1,17,2.34a.29.29,0,0,1,.4-.34,1.23,1.23,0,0,1,.48.25c.34.31.66.66,1,1l.17.17Z"/><path d="M33.62,20.18c-.14.31-.11.52.12.61a1.25,1.25,0,0,0,.3.05,4.13,4.13,0,0,1,.16,1.88,1.15,1.15,0,0,1-.27.51.33.33,0,0,1-.59-.18,3.57,3.57,0,0,1,0-.8,3.38,3.38,0,0,1,.09-.41,1.85,1.85,0,0,0,.07-.41c0,.09-.1.19-.16.28a5.46,5.46,0,0,1-.53.71,1.08,1.08,0,0,1-.45.3.37.37,0,0,1-.48-.06.36.36,0,0,1,0-.49,11.64,11.64,0,0,1,.84-.88c.18-.17.39-.3.58-.48l-.28.11a3.48,3.48,0,0,1-1.45.32,1.18,1.18,0,0,1-.46-.14.33.33,0,0,1,0-.63,2.08,2.08,0,0,1,.74-.15c.46,0,.93.06,1.39.1h.15c-.33-.15-.65-.27-1-.42a3,3,0,0,1-.63-.42,1.59,1.59,0,0,1-.37-.59.31.31,0,0,1,.42-.39,1.44,1.44,0,0,1,.53.29c.3.26.56.56.83.84l.23.21Z"/><path d="M11.93,20.31a.41.41,0,0,0,0,.5.34.34,0,0,0,.43.11h0a4.6,4.6,0,0,1,.2,1.84,1,1,0,0,1-.31.63c-.23.19-.52.11-.56-.18a2.76,2.76,0,0,1,0-.86c0-.29.13-.58.2-.87-.16.26-.31.54-.49.79a1.46,1.46,0,0,1-.72.6.41.41,0,0,1-.47-.08.35.35,0,0,1,0-.47c.28-.33.59-.64.9-.94s.38-.29.56-.46l-.23.09a3.66,3.66,0,0,1-1.48.36,1.07,1.07,0,0,1-.5-.14.44.44,0,0,1-.2-.33.42.42,0,0,1,.22-.3,1.8,1.8,0,0,1,.68-.14c.41,0,.82,0,1.22.06a.71.71,0,0,0,.25,0l-.15-.07c-.43-.23-.87-.44-1.27-.7a1.32,1.32,0,0,1-.39-.56.45.45,0,0,1,.09-.38.42.42,0,0,1,.36-.05,3.68,3.68,0,0,1,.7.46c.24.21.43.47.65.7l.2.18Z"/><path d="M12.33,4.18A4.52,4.52,0,0,1,12.52,6a1.68,1.68,0,0,1-.24.55.31.31,0,0,1-.4.15.44.44,0,0,1-.23-.31,8.54,8.54,0,0,1,0-1c0-.2.1-.39.12-.6A2.25,2.25,0,0,1,11.7,5a8.44,8.44,0,0,1-.61.83,1.32,1.32,0,0,1-.52.29A.29.29,0,0,1,10.18,6a.58.58,0,0,1,0-.41,1.35,1.35,0,0,1,.33-.46c.3-.28.63-.53,1-.79a.77.77,0,0,0,.15-.16l-.28.11a3.22,3.22,0,0,1-1.49.31,1.09,1.09,0,0,1-.5-.19.3.3,0,0,1,0-.53,1.17,1.17,0,0,1,.51-.16c.55,0,1.09,0,1.63.06l.21,0a9.71,9.71,0,0,1-1-.44A3.52,3.52,0,0,1,10,2.87a1,1,0,0,1-.24-.48A.3.3,0,0,1,10.2,2a1,1,0,0,1,.44.22c.36.33.7.7,1,1l.15.14.11.16a.79.79,0,0,0-.11.29.35.35,0,0,0,.51.31Z"/><path d="M26.84,21c.06.52.13,1,.17,1.55a1.76,1.76,0,0,1-.09.5.77.77,0,0,1-.12.24c-.12.14-.25.27-.45.21a.44.44,0,0,1-.27-.42,3.65,3.65,0,0,1,.19-1.31,1,1,0,0,0,0-.25c-.07.13-.14.27-.22.39a6.2,6.2,0,0,1-.54.7,1.47,1.47,0,0,1-.48.29.36.36,0,0,1-.43-.1.35.35,0,0,1,0-.42,6,6,0,0,1,.61-.72c.26-.24.55-.45.82-.69-.26.09-.52.2-.78.28a2.15,2.15,0,0,1-1.12.11h-.05c-.26-.07-.44-.24-.44-.42a.44.44,0,0,1,.43-.38,8.88,8.88,0,0,1,1.15-.07c.31,0,.62.06.93.08l-.46-.18a3.18,3.18,0,0,1-1.18-.72,1.34,1.34,0,0,1-.29-.52.31.31,0,0,1,.43-.38,2,2,0,0,1,.64.39,10.72,10.72,0,0,1,.8.85l.17.15.09.16a.35.35,0,0,1,0,.11.36.36,0,0,0,.33.56.76.76,0,0,1,.16,0Z"/><path d="M19.59,20.9a5.4,5.4,0,0,1,.17,1.74,1.64,1.64,0,0,1-.23.64.52.52,0,0,1-.39.19.3.3,0,0,1-.27-.33,7.17,7.17,0,0,1,.08-1c0-.2.09-.38.11-.58a1.16,1.16,0,0,1-.14.24c-.2.28-.39.57-.61.83a1.07,1.07,0,0,1-.42.26.37.37,0,0,1-.47-.55,9.71,9.71,0,0,1,.76-.82c.22-.2.48-.36.71-.57l-.23.09a3.67,3.67,0,0,1-1.49.36,1.39,1.39,0,0,1-.52-.14.33.33,0,0,1,0-.63,1.72,1.72,0,0,1,.7-.14c.52,0,1,0,1.53.07-.19-.08-.43-.15-.64-.26a8.23,8.23,0,0,1-1-.66,1,1,0,0,1-.26-.51.31.31,0,0,1,.45-.36,1.87,1.87,0,0,1,.57.35c.31.29.59.62.89.93l.13.13.11.16c-.11.17-.17.34,0,.51a.34.34,0,0,0,.45.1Z"/><path d="M5.15,4.29c0,.32.13.64.15,1a4.34,4.34,0,0,1-.07,1c-.07.34-.32.52-.55.48s-.34-.24-.3-.6.16-.87.24-1.3a.81.81,0,0,0,0-.11c-.19.3-.34.58-.54.84A2.33,2.33,0,0,1,3.63,6a.93.93,0,0,1-.44.12.3.3,0,0,1-.3-.4,1.08,1.08,0,0,1,.23-.42c.37-.34.75-.66,1.13-1a1.07,1.07,0,0,0,.19-.18L3.9,4.4a2.91,2.91,0,0,1-1.3.23,1.07,1.07,0,0,1-.46-.17.31.31,0,0,1,0-.57,1.2,1.2,0,0,1,.48-.14c.54,0,1.08,0,1.63.06l.23,0c-.36-.16-.67-.28-1-.44A3.1,3.1,0,0,1,2.93,3a1.53,1.53,0,0,1-.34-.45.37.37,0,0,1,.05-.47.38.38,0,0,1,.47,0,5.13,5.13,0,0,1,.74.56c.27.26.51.56.76.84l.08.13a1.8,1.8,0,0,0-.08.21A.35.35,0,0,0,5,4.23a.89.89,0,0,1,.19.07Z"/><path d="M33.63,3.45a1,1,0,0,0-.1.32c0,.25.19.36.51.33A4.3,4.3,0,0,1,34.21,6a2,2,0,0,1-.22.52.32.32,0,0,1-.4.15.46.46,0,0,1-.25-.33,5.15,5.15,0,0,1,0-1c0-.2.1-.4.12-.62a1.86,1.86,0,0,1-.11.19,6.38,6.38,0,0,1-.67.88,1.14,1.14,0,0,1-.58.26.3.3,0,0,1-.32-.43,1.11,1.11,0,0,1,.22-.4c.36-.33.74-.65,1.12-1a1.25,1.25,0,0,0,.17-.16l-.61.23a2.57,2.57,0,0,1-1.26.19A1,1,0,0,1,31,4.32a.3.3,0,0,1,0-.53,1.29,1.29,0,0,1,.58-.16c.51,0,1,0,1.54.06h.2c-.34-.15-.66-.27-.95-.43a3.66,3.66,0,0,1-.72-.52,1,1,0,0,1-.25-.45.31.31,0,0,1,.38-.42,1.08,1.08,0,0,1,.47.22c.36.34.7.7,1,1l.15.15Z"/><path d="M33.62,20.18,33.49,20a4.36,4.36,0,0,1-.6-1.48,1.28,1.28,0,0,1,0-.55.49.49,0,0,1,.31-.27.29.29,0,0,1,.36.21,9.64,9.64,0,0,1,.26,1.06,5.2,5.2,0,0,1,.05.59,7.74,7.74,0,0,1,.27-1,2.09,2.09,0,0,1,.42-.64.38.38,0,0,1,.48-.1.37.37,0,0,1,.14.45,3.76,3.76,0,0,1-.27.73c-.11.24-.27.46-.38.71A2.37,2.37,0,0,1,35,19.3a7.39,7.39,0,0,1,.91-.52.7.7,0,0,1,.43,0,.31.31,0,0,1,.18.52,1.34,1.34,0,0,1-.46.37c-.56.22-1.13.42-1.7.62a.16.16,0,0,1-.13,0C34,20.06,33.83,20.09,33.62,20.18Z"/><path d="M26.38,20.28l-.09-.16c-.19-.4-.4-.79-.55-1.2a1.87,1.87,0,0,1-.08-.71.42.42,0,0,1,.34-.45c.19,0,.38.08.45.36.1.44.15.88.22,1.33a2,2,0,0,0,0,.23c.07-.3.11-.61.2-.9a3,3,0,0,1,.29-.63.69.69,0,0,1,.3-.26c.11,0,.3-.07.38,0a.44.44,0,0,1,.15.38,2.17,2.17,0,0,1-.22.65c-.14.28-.31.55-.49.86.23-.19.42-.37.62-.52a1.6,1.6,0,0,1,1-.4c.18,0,.35,0,.43.24a.36.36,0,0,1-.17.44,3.33,3.33,0,0,1-.7.42c-.43.17-.88.3-1.32.44-.05,0-.13,0-.14,0C26.83,20.16,26.6,20.24,26.38,20.28Z"/><path d="M19.18,3.57l-.13-.16c-.16-.33-.35-.65-.48-1a4.77,4.77,0,0,1-.15-.84.51.51,0,0,1,0-.21c.06-.16.14-.31.35-.33a.37.37,0,0,1,.37.27,4.18,4.18,0,0,1,.21.79,8.44,8.44,0,0,1,.07.89c.07-.3.12-.6.2-.89a2.48,2.48,0,0,1,.25-.58.75.75,0,0,1,.3-.31.52.52,0,0,1,.42,0,.41.41,0,0,1,.15.37,1.78,1.78,0,0,1-.19.62c-.15.3-.33.58-.52.92a3.55,3.55,0,0,1,.49-.42,9.84,9.84,0,0,1,.9-.5.46.46,0,0,1,.2,0c.18,0,.35,0,.42.23a.38.38,0,0,1-.15.45,2.55,2.55,0,0,1-.61.37c-.47.19-.95.34-1.43.49a.15.15,0,0,1-.15,0A.42.42,0,0,0,19.18,3.57Z"/><path d="M33.63,3.45l-.11-.15c-.17-.36-.36-.71-.51-1.07a1.41,1.41,0,0,1-.11-.95c.06-.18.14-.35.36-.37a.38.38,0,0,1,.39.3,7.91,7.91,0,0,1,.22,1,5.63,5.63,0,0,1,.05.59,10.13,10.13,0,0,1,.26-1,2.38,2.38,0,0,1,.44-.66A.36.36,0,0,1,35.08,1a.36.36,0,0,1,.15.45,3.57,3.57,0,0,1-.25.69,9.31,9.31,0,0,1-.49.82c.22-.18.39-.37.6-.51A8.62,8.62,0,0,1,36,2a.31.31,0,0,1,.19,0c.16,0,.33,0,.4.23a.38.38,0,0,1-.16.45,5.81,5.81,0,0,1-.88.49,11.22,11.22,0,0,1-1.12.36c-.06,0-.15,0-.18,0A.45.45,0,0,0,33.63,3.45Z"/><path d="M11.94,3.58l-.11-.16c-.17-.35-.36-.7-.51-1.06a1.36,1.36,0,0,1-.11-.95c0-.18.12-.35.34-.37a.37.37,0,0,1,.41.3,9.32,9.32,0,0,1,.22,1.05c0,.15,0,.32.06.48A8.07,8.07,0,0,1,12.45,2a3,3,0,0,1,.38-.68.64.64,0,0,1,.33-.19.28.28,0,0,1,.38.28,1.68,1.68,0,0,1-.12.59c-.16.35-.36.68-.55,1a5.17,5.17,0,0,1,.59-.48,6.8,6.8,0,0,1,.76-.39.49.49,0,0,1,.21,0c.17,0,.35,0,.41.24a.35.35,0,0,1-.16.44,5.28,5.28,0,0,1-.9.5,10.06,10.06,0,0,1-1.1.35c-.06,0-.15,0-.17,0A.43.43,0,0,0,11.94,3.58Z"/><path d="M4.69,3.58l-.08-.13c-.15-.29-.31-.58-.44-.88A1.77,1.77,0,0,1,4,1.44c0-.05,0-.12,0-.15s.2-.23.31-.24a.38.38,0,0,1,.33.19,7,7,0,0,1,.28,1C5,2.46,5,2.71,5,3A8.81,8.81,0,0,1,5.2,2a3.15,3.15,0,0,1,.31-.64.55.55,0,0,1,.27-.23.52.52,0,0,1,.39,0,.48.48,0,0,1,.14.38,3.15,3.15,0,0,1-.25.73c-.14.27-.31.52-.49.82a6.54,6.54,0,0,1,.61-.52A7.91,7.91,0,0,1,7,2.16a.52.52,0,0,1,.25,0c.15,0,.31.07.36.24a.35.35,0,0,1-.14.42,4.84,4.84,0,0,1-.79.47c-.4.16-.81.27-1.22.4a.3.3,0,0,1-.24-.06A.47.47,0,0,0,4.69,3.58Z"/><path d="M19.17,20.3l-.11-.16a6.76,6.76,0,0,1-.4-.81,6.83,6.83,0,0,1-.25-1,.58.58,0,0,1,0-.23c.06-.17.13-.34.35-.35a.35.35,0,0,1,.39.29,11.55,11.55,0,0,1,.24,1.17,3.85,3.85,0,0,1,0,.48c.09-.34.15-.69.25-1a1.85,1.85,0,0,1,.28-.54.9.9,0,0,1,.38-.28.3.3,0,0,1,.43.28,1.32,1.32,0,0,1-.11.55c-.18.38-.4.74-.61,1.12a2.68,2.68,0,0,1,.26-.23,9.26,9.26,0,0,1,.92-.62,1,1,0,0,1,.58-.06.32.32,0,0,1,.19.55,1.18,1.18,0,0,1-.32.27,6.48,6.48,0,0,1-1.85.7.14.14,0,0,1-.11,0A.4.4,0,0,0,19.17,20.3Z"/><path d="M11.93,20.31l-.13-.23a4.34,4.34,0,0,1-.6-1.46,1.4,1.4,0,0,1,.06-.61.43.43,0,0,1,.3-.24.46.46,0,0,1,.34.19,2.36,2.36,0,0,1,.29,1.14c0,.15,0,.31,0,.53a7.76,7.76,0,0,1,.28-1,2,2,0,0,1,.44-.65.34.34,0,0,1,.44-.08.34.34,0,0,1,.16.42,4.53,4.53,0,0,1-.3.8,7.17,7.17,0,0,1-.43.72c.26-.22.48-.42.72-.59a1.45,1.45,0,0,1,.91-.35.4.4,0,0,1,.4.23.35.35,0,0,1-.14.43A3.63,3.63,0,0,1,14,20c-.43.17-.88.3-1.32.44-.05,0-.13,0-.15,0A.4.4,0,0,0,11.93,20.31Z"/><path d="M19.59,20.91c.18-.08.2-.23.19-.45.43,0,.85,0,1.26,0a2.85,2.85,0,0,1,.87.22c.33.13.47.4.4.61s-.32.3-.67.2-.83-.3-1.24-.46a.67.67,0,0,0-.24-.07c.11.09.24.18.34.28a9.18,9.18,0,0,1,.72.82,1.11,1.11,0,0,1,.14.6.32.32,0,0,1-.49.25,1.11,1.11,0,0,1-.36-.32c-.29-.48-.55-1-.82-1.47a1.6,1.6,0,0,1-.1-.23Z"/><path d="M26.84,21l.25-.53c.35,0,.76,0,1.17,0a3.29,3.29,0,0,1,.81.19,1,1,0,0,1,.41.32.32.32,0,0,1-.23.55,1.22,1.22,0,0,1-.54-.06c-.38-.12-.75-.29-1.12-.44a1,1,0,0,0-.26-.09,3.88,3.88,0,0,1,.49.4,5.29,5.29,0,0,1,.67.83.91.91,0,0,1,.08.57.27.27,0,0,1-.4.21,1.32,1.32,0,0,1-.46-.38c-.27-.43-.5-.88-.74-1.33a2.1,2.1,0,0,1-.13-.26Z"/><path d="M5.64,20.93a5.27,5.27,0,0,1,.52.44,4.16,4.16,0,0,1,.61.72,1.13,1.13,0,0,1,.11.61.27.27,0,0,1-.41.23,1.23,1.23,0,0,1-.47-.4c-.3-.49-.55-1-.82-1.52a.23.23,0,0,1,0-.14c0-.12.11-.24.19-.4a4.07,4.07,0,0,1,2,.2,1.06,1.06,0,0,1,.4.36.29.29,0,0,1-.19.46,1.43,1.43,0,0,1-.62,0c-.39-.12-.76-.29-1.14-.45l-.22-.1Z"/><path d="M12.33,20.92a.4.4,0,0,0,.23-.44,4.55,4.55,0,0,1,1.91.11A1,1,0,0,1,15,21c.13.23.05.46-.21.5a1.41,1.41,0,0,1-.58,0c-.38-.13-.74-.29-1.12-.44a.65.65,0,0,0-.21-.07,6.8,6.8,0,0,1,.57.5,4,4,0,0,1,.54.69,1,1,0,0,1,.1.48.31.31,0,0,1-.49.28,1.24,1.24,0,0,1-.45-.43c-.27-.44-.49-.9-.73-1.35,0-.07-.09-.14-.13-.22Z"/><path d="M12.34,4.18c.18-.08.21-.14.23-.42a4.45,4.45,0,0,1,1.78.08A2.1,2.1,0,0,1,15,4.2a.34.34,0,0,1-.27.6,6.35,6.35,0,0,1-1-.23c-.3-.1-.58-.25-.88-.37a3.83,3.83,0,0,1,.44.36,5,5,0,0,1,.68.77,1.15,1.15,0,0,1,.15.61.3.3,0,0,1-.45.27,1.1,1.1,0,0,1-.4-.34c-.29-.48-.54-1-.82-1.47,0-.07-.07-.14-.11-.22Z"/><path d="M27.4,4.23a10.53,10.53,0,0,1,.83.81,2.21,2.21,0,0,1,.36.72.35.35,0,0,1-.15.44A.37.37,0,0,1,28,6.11a3.14,3.14,0,0,1-.49-.6c-.24-.41-.44-.84-.63-1.23l.22-.53a4.25,4.25,0,0,1,2,.17.89.89,0,0,1,.39.3.48.48,0,0,1,.07.38.44.44,0,0,1-.34.19,2.29,2.29,0,0,1-.68-.1C28.12,4.55,27.75,4.38,27.4,4.23Z"/><path d="M34.31,20.35a4.51,4.51,0,0,1,1.75.09,2,2,0,0,1,.6.34.33.33,0,0,1,.11.42.35.35,0,0,1-.39.2,4.27,4.27,0,0,1-.86-.19c-.3-.1-.6-.26-.91-.37.1.09.21.16.31.26s.49.5.72.77a.83.83,0,0,1,.19.65.31.31,0,0,1-.5.27,1.42,1.42,0,0,1-.45-.43c-.28-.47-.52-1-.76-1.45,0-.05,0-.12,0-.17S34.24,20.51,34.31,20.35Z"/><path d="M34.32,3.63a5.13,5.13,0,0,1,1.7.08,2.1,2.1,0,0,1,.65.37.32.32,0,0,1,.1.4.36.36,0,0,1-.37.2,2.5,2.5,0,0,1-1.13-.29,5.87,5.87,0,0,0-.63-.24c.12.1.24.18.35.29a6,6,0,0,1,.67.75,1.26,1.26,0,0,1,.16.61.3.3,0,0,1-.47.28A.94.94,0,0,1,35,5.75c-.3-.51-.58-1-.86-1.57a.2.2,0,0,1,0-.15Z"/><path d="M5.16,4.3a.58.58,0,0,1,0-.14l.2-.41a4.17,4.17,0,0,1,2,.17,1.1,1.1,0,0,1,.43.34.32.32,0,0,1-.26.54,2.45,2.45,0,0,1-.71-.11c-.32-.1-.62-.26-.93-.39a.71.71,0,0,0-.22-.07,5.71,5.71,0,0,1,.58.51,3.28,3.28,0,0,1,.53.65,1,1,0,0,1,.11.54.3.3,0,0,1-.48.26A1.33,1.33,0,0,1,6,5.76c-.25-.39-.45-.81-.67-1.22l-.14-.25Z"/><path d="M5.84,20c.21-.18.41-.36.62-.52a1.53,1.53,0,0,1,.93-.37c.18,0,.34,0,.42.23a.36.36,0,0,1-.16.44,5.78,5.78,0,0,1-.8.47,3.9,3.9,0,0,1-.57.21l-.72.21a2.14,2.14,0,0,0-.36-.19.35.35,0,0,0-.4.32.34.34,0,0,0,.32.39c.18,0,.22.06.25.22A4,4,0,0,1,5.48,23a1.7,1.7,0,0,1-.24.51.29.29,0,0,1-.38.14.48.48,0,0,1-.25-.33,4.94,4.94,0,0,1,0-.94,6.37,6.37,0,0,0,.11-.63.78.78,0,0,1-.11.2,10.92,10.92,0,0,1-.73.92.83.83,0,0,1-.49.2.31.31,0,0,1-.34-.44,1.51,1.51,0,0,1,.34-.52c.29-.28.62-.53.93-.8a.68.68,0,0,0,.2-.18c-.26.09-.52.2-.79.28a2.21,2.21,0,0,1-1.14.11l-.12,0c-.17-.08-.34-.17-.34-.39a.38.38,0,0,1,.36-.36,11.2,11.2,0,0,1,1.3-.08c.28,0,.57.06.86.09a10.45,10.45,0,0,1-1-.44A4.08,4.08,0,0,1,3,19.76a.92.92,0,0,1-.23-.45.32.32,0,0,1,.43-.39,1.14,1.14,0,0,1,.47.26c.33.3.64.64.95,1a.51.51,0,0,0,.16.13c-.07-.14-.17-.28-.23-.43-.14-.37-.27-.74-.38-1.12a1,1,0,0,1,0-.45A.39.39,0,0,1,4.52,18a.36.36,0,0,1,.38.26,7.77,7.77,0,0,1,.24.95,5.75,5.75,0,0,1,.05.69,10.36,10.36,0,0,1,.26-1,2.21,2.21,0,0,1,.43-.66.37.37,0,0,1,.48-.1.42.42,0,0,1,.15.47A3.44,3.44,0,0,1,6,19.71l-.15.22Z"/><path d="M26.47,5.05a1.32,1.32,0,0,1-.12.2,7.84,7.84,0,0,1-.66.86,1,1,0,0,1-.52.24c-.32.05-.5-.19-.36-.47a2.45,2.45,0,0,1,.5-.65c.32-.3.68-.56,1-.83-.3.1-.6.23-.92.31a4.33,4.33,0,0,1-.95.11.56.56,0,0,1-.59-.42c0-.2.16-.38.51-.41a11.67,11.67,0,0,1,1.45,0c.17,0,.35,0,.57.06-.36-.16-.68-.27-1-.44A4.44,4.44,0,0,1,24.64,3a.89.89,0,0,1-.2-.44.3.3,0,0,1,.38-.36,1.42,1.42,0,0,1,.57.3c.39.35.74.73,1.09,1.09a4.48,4.48,0,0,1-.26-.49A9.46,9.46,0,0,1,25.85,2a.84.84,0,0,1,.07-.49.33.33,0,0,1,.63,0,3.76,3.76,0,0,1,.27.94,7.1,7.1,0,0,1,.07.77,8.25,8.25,0,0,1,.25-1,2.56,2.56,0,0,1,.44-.68.37.37,0,0,1,.48-.08.37.37,0,0,1,.14.48c-.14.34-.29.68-.46,1a4.53,4.53,0,0,0-.23.44L27.76,3a2.59,2.59,0,0,1,1.11-.67.82.82,0,0,1,.27,0,.39.39,0,0,1,.37.24.33.33,0,0,1-.14.41,7.78,7.78,0,0,1-1,.55,9.48,9.48,0,0,1-1.07.33.24.24,0,0,1-.2,0c-.18-.14-.36-.19-.49-.05a.51.51,0,0,0-.12.39c0,.2.2.27.4.25H27a4.07,4.07,0,0,1,.12,2.05,1,1,0,0,1-.25.38.31.31,0,0,1-.55-.15,4.18,4.18,0,0,1,0-1,4.44,4.44,0,0,1,.15-.63Z"/><path d="M19.37,3.77c-.1.16-.19.34,0,.5a.55.55,0,0,0,.37.14c.19,0,.27-.15.29-.45a4.39,4.39,0,0,1,1.94.12,1.39,1.39,0,0,1,.49.34.41.41,0,0,1,.06.38.42.42,0,0,1-.34.19,1.86,1.86,0,0,1-.66-.1c-.34-.12-.67-.28-1-.43l-.15-.07c.3.29.64.58.93.91a1.75,1.75,0,0,1,.31.59.41.41,0,0,1-.16.51.37.37,0,0,1-.49-.11,6.36,6.36,0,0,1-.62-.85c-.18-.3-.31-.63-.48-1a7,7,0,0,1,.13.78,6,6,0,0,1,0,1.12.89.89,0,0,1-.26.46.31.31,0,0,1-.55-.15,3.29,3.29,0,0,1,0-.94c0-.25.11-.5.15-.76a1.57,1.57,0,0,1-.14.25,9.31,9.31,0,0,1-.74.92.94.94,0,0,1-.53.18.26.26,0,0,1-.3-.32.72.72,0,0,1,.17-.4c.31-.32.64-.62,1-.92a3.31,3.31,0,0,0,.36-.31l-.5.2a2.78,2.78,0,0,1-1.3.23,1.35,1.35,0,0,1-.5-.2.29.29,0,0,1,0-.5A1.16,1.16,0,0,1,17.32,4C17.86,4,18.4,4,19,4a.5.5,0,0,0,.17,0,5,5,0,0,1-.67-.28,6.62,6.62,0,0,1-1-.67.9.9,0,0,1-.24-.51.29.29,0,0,1,.4-.34,1.35,1.35,0,0,1,.48.24c.34.32.65.66,1,1l.17.17Z"/><path d="M33.82,20.38c-.15.31-.11.52.12.61a.91.91,0,0,0,.3,0,4.17,4.17,0,0,1,.16,1.89,1.15,1.15,0,0,1-.27.51.33.33,0,0,1-.59-.18,3.57,3.57,0,0,1,0-.8,3,3,0,0,1,.09-.41,1.84,1.84,0,0,0,.07-.42,2.69,2.69,0,0,1-.16.29,6.24,6.24,0,0,1-.53.71,1.37,1.37,0,0,1-.45.3.4.4,0,0,1-.49-.06.37.37,0,0,1,0-.49,11.64,11.64,0,0,1,.84-.88c.18-.17.39-.3.57-.48l-.27.11a3.32,3.32,0,0,1-1.45.31,1,1,0,0,1-.46-.13.33.33,0,0,1,0-.63,2.08,2.08,0,0,1,.74-.15c.46,0,.92.06,1.39.1h.15c-.34-.15-.65-.27-1-.42a3,3,0,0,1-.63-.42,1.55,1.55,0,0,1-.37-.6.31.31,0,0,1,.42-.39,1.55,1.55,0,0,1,.53.3c.29.26.56.56.83.84l.23.21Z"/><path d="M12.13,20.51a.41.41,0,0,0,0,.5.34.34,0,0,0,.43.11h0a4.58,4.58,0,0,1,.2,1.84,1,1,0,0,1-.31.63.33.33,0,0,1-.57-.18,3.54,3.54,0,0,1,0-.86,8.48,8.48,0,0,1,.21-.87c-.16.26-.32.53-.5.79a1.39,1.39,0,0,1-.71.6.41.41,0,0,1-.47-.08.34.34,0,0,1,0-.47,11.38,11.38,0,0,1,.9-.94c.17-.17.38-.29.56-.46l-.23.09a3.67,3.67,0,0,1-1.49.36,1,1,0,0,1-.49-.14.45.45,0,0,1-.21-.33.44.44,0,0,1,.23-.3,2,2,0,0,1,.68-.15c.41,0,.81.05,1.22.07a.67.67,0,0,0,.24,0l-.15-.06c-.42-.23-.86-.44-1.27-.7a1.39,1.39,0,0,1-.38-.56.44.44,0,0,1,.09-.38.38.38,0,0,1,.36,0,3.26,3.26,0,0,1,.7.46,8.68,8.68,0,0,1,.65.7l.2.18Z"/><path d="M12.53,4.38a4.52,4.52,0,0,1,.19,1.86,1.92,1.92,0,0,1-.24.55.31.31,0,0,1-.4.15.46.46,0,0,1-.23-.32,5.59,5.59,0,0,1,.05-1c0-.2.1-.39.12-.6a2.25,2.25,0,0,1-.12.21,9.83,9.83,0,0,1-.61.83,1.4,1.4,0,0,1-.52.29.29.29,0,0,1-.39-.12.58.58,0,0,1,0-.41,1.53,1.53,0,0,1,.34-.46c.3-.28.63-.53.95-.8a.41.41,0,0,0,.16-.16l-.28.11a3.23,3.23,0,0,1-1.49.32,1.09,1.09,0,0,1-.5-.19.3.3,0,0,1,0-.53A1.17,1.17,0,0,1,10.09,4c.54,0,1.08,0,1.63.06l.21,0a9.94,9.94,0,0,1-1-.44,3.4,3.4,0,0,1-.73-.53A1,1,0,0,1,10,2.59a.31.31,0,0,1,.41-.39,1.2,1.2,0,0,1,.45.23c.36.33.7.69,1,1l.15.14.1.16a1,1,0,0,0-.1.28.34.34,0,0,0,.5.32Z"/><path d="M27,21.17c.05.52.13,1,.17,1.55a1.82,1.82,0,0,1-.09.5.63.63,0,0,1-.13.24c-.11.14-.24.27-.44.21a.43.43,0,0,1-.27-.42,3.88,3.88,0,0,1,.18-1.31.7.7,0,0,0,.05-.25c-.07.13-.14.27-.22.39a6.2,6.2,0,0,1-.54.7,1.42,1.42,0,0,1-.49.29.35.35,0,0,1-.42-.1.33.33,0,0,1,0-.42,4.65,4.65,0,0,1,.61-.72c.25-.25.55-.45.82-.69-.26.09-.52.2-.78.28a2.18,2.18,0,0,1-1.13.11h0c-.26-.07-.44-.24-.44-.42a.44.44,0,0,1,.43-.38,8.88,8.88,0,0,1,1.15-.07c.31,0,.62.06.93.08l-.46-.18a3.18,3.18,0,0,1-1.18-.72,1.31,1.31,0,0,1-.29-.53.31.31,0,0,1,.43-.37,2,2,0,0,1,.64.39c.29.26.53.56.8.84a1.29,1.29,0,0,0,.17.16l.09.15,0,.12a.36.36,0,0,0,.33.56l.16,0Z"/><path d="M19.78,21.1A5.4,5.4,0,0,1,20,22.84a1.64,1.64,0,0,1-.23.64.49.49,0,0,1-.39.18c-.17,0-.27-.16-.27-.32a9.26,9.26,0,0,1,.07-1.05c0-.19.1-.37.12-.58a1.23,1.23,0,0,1-.14.25c-.2.28-.39.57-.61.83a1.24,1.24,0,0,1-.43.26.36.36,0,0,1-.46-.08.35.35,0,0,1,0-.47,8.28,8.28,0,0,1,.75-.82c.22-.2.48-.37.72-.57l-.23.09a3.67,3.67,0,0,1-1.49.36,1.34,1.34,0,0,1-.52-.14.34.34,0,0,1,0-.64,2.08,2.08,0,0,1,.7-.14c.52,0,1,.05,1.52.08a6.27,6.27,0,0,1-.63-.27,7.13,7.13,0,0,1-1-.65.93.93,0,0,1-.26-.51.31.31,0,0,1,.44-.36,1.77,1.77,0,0,1,.58.34c.31.3.59.63.88.94l.14.13.11.16a.4.4,0,0,0,0,.51.36.36,0,0,0,.45.1Z"/><path d="M5.35,4.49a7.66,7.66,0,0,1,.14,1,4.34,4.34,0,0,1-.06,1c-.07.34-.32.52-.55.48s-.34-.24-.3-.6.16-.87.24-1.31c0,0,0,0,0-.1a9.17,9.17,0,0,1-.54.83,2.14,2.14,0,0,1-.48.47.93.93,0,0,1-.44.12.3.3,0,0,1-.3-.4,1,1,0,0,1,.23-.42c.36-.34.75-.66,1.13-1a.75.75,0,0,0,.19-.17c-.18.07-.36.15-.54.21a2.79,2.79,0,0,1-1.3.24,1.16,1.16,0,0,1-.47-.17.32.32,0,0,1,0-.57A1.2,1.2,0,0,1,2.85,4C3.39,4,3.93,4,4.47,4l.24,0c-.36-.16-.67-.29-1-.44a2.83,2.83,0,0,1-.61-.41,1.37,1.37,0,0,1-.34-.45.37.37,0,0,1,0-.47.38.38,0,0,1,.47,0,5.13,5.13,0,0,1,.74.56c.27.26.51.56.76.84l.08.13A.9.9,0,0,0,4.81,4a.36.36,0,0,0,.35.44.76.76,0,0,1,.2.06Z"/><path d="M33.82,3.65a1.34,1.34,0,0,0-.09.31c0,.25.19.37.51.34a4.46,4.46,0,0,1,.17,1.85,1.72,1.72,0,0,1-.23.52.31.31,0,0,1-.4.15.49.49,0,0,1-.24-.33,5.15,5.15,0,0,1,.05-1c0-.21.1-.41.12-.62a1.08,1.08,0,0,1-.11.18,6.68,6.68,0,0,1-.67.89,1.14,1.14,0,0,1-.58.26A.31.31,0,0,1,32,5.81a1.13,1.13,0,0,1,.23-.4c.36-.33.74-.65,1.12-1a.81.81,0,0,0,.16-.16l-.6.23a2.59,2.59,0,0,1-1.26.19.88.88,0,0,1-.43-.19.29.29,0,0,1,0-.52,1.29,1.29,0,0,1,.58-.16c.51,0,1,0,1.53.06h.21c-.34-.15-.66-.27-1-.43A4.12,4.12,0,0,1,31.93,3a1,1,0,0,1-.25-.45.31.31,0,0,1,.38-.42,1.08,1.08,0,0,1,.47.22c.36.34.7.7,1,1.05l.15.14Z"/><path d="M33.82,20.38l-.13-.23a4.16,4.16,0,0,1-.6-1.48,1.14,1.14,0,0,1,0-.55.55.55,0,0,1,.3-.28.31.31,0,0,1,.37.22,9.64,9.64,0,0,1,.26,1.06,5.2,5.2,0,0,1,0,.59,9.68,9.68,0,0,1,.26-1A2.49,2.49,0,0,1,34.8,18a.39.39,0,0,1,.49-.09.36.36,0,0,1,.14.45,3.76,3.76,0,0,1-.27.73c-.11.24-.27.45-.38.7a3,3,0,0,1,.38-.33,8.89,8.89,0,0,1,.91-.51.63.63,0,0,1,.43,0,.3.3,0,0,1,.17.52,1.2,1.2,0,0,1-.45.36c-.56.23-1.13.42-1.7.63a.14.14,0,0,1-.13,0C34.22,20.25,34,20.29,33.82,20.38Z"/><path d="M26.58,20.47l-.09-.15c-.19-.4-.4-.79-.56-1.21a1.82,1.82,0,0,1-.07-.7A.42.42,0,0,1,26.2,18c.19,0,.38.08.45.36s.15.88.22,1.33a2,2,0,0,0,0,.23,9,9,0,0,1,.2-.9,3,3,0,0,1,.29-.63.69.69,0,0,1,.3-.26c.11,0,.3-.07.38,0a.44.44,0,0,1,.15.38,2.27,2.27,0,0,1-.22.65c-.14.28-.31.55-.5.86.24-.2.43-.37.63-.52a1.6,1.6,0,0,1,1-.4c.18,0,.35,0,.43.24a.37.37,0,0,1-.17.44,3.33,3.33,0,0,1-.7.42c-.44.17-.88.29-1.32.44a.37.37,0,0,1-.14,0C27,20.36,26.8,20.44,26.58,20.47Z"/><path d="M19.37,3.77l-.12-.16c-.16-.33-.35-.66-.48-1a5.81,5.81,0,0,1-.16-.85.51.51,0,0,1,0-.2c.06-.17.14-.31.34-.33a.35.35,0,0,1,.37.27,3.63,3.63,0,0,1,.22.78,8.64,8.64,0,0,1,.07.9c.07-.3.11-.6.2-.89a2.45,2.45,0,0,1,.24-.58.77.77,0,0,1,.31-.31.57.57,0,0,1,.42,0,.46.46,0,0,1,.15.38,2,2,0,0,1-.19.62c-.15.3-.33.58-.52.91a5.81,5.81,0,0,1,.49-.42c.29-.18.59-.33.9-.49a.33.33,0,0,1,.2,0c.18,0,.35,0,.42.23a.36.36,0,0,1-.15.44,2.59,2.59,0,0,1-.61.38c-.47.19-1,.33-1.43.49a.15.15,0,0,1-.15,0C19.77,3.66,19.58,3.69,19.37,3.77Z"/><path d="M33.82,3.65l-.1-.16c-.17-.35-.36-.7-.51-1.06a1.41,1.41,0,0,1-.11-1c.06-.18.14-.35.36-.37a.39.39,0,0,1,.39.3c.09.32.16.65.22,1a5.82,5.82,0,0,1,0,.6,10.13,10.13,0,0,1,.26-1,2.58,2.58,0,0,1,.43-.66.38.38,0,0,1,.47-.09.36.36,0,0,1,.15.45,3.57,3.57,0,0,1-.25.69c-.14.27-.31.53-.49.82.22-.18.39-.37.6-.51a6.9,6.9,0,0,1,.86-.43.31.31,0,0,1,.19,0c.16,0,.33,0,.39.23a.36.36,0,0,1-.15.45,5.81,5.81,0,0,1-.88.49,11.22,11.22,0,0,1-1.12.36c-.06,0-.15,0-.18,0C34.23,3.54,34,3.58,33.82,3.65Z"/><path d="M12.13,3.78,12,3.62c-.17-.35-.36-.7-.51-1.06a1.42,1.42,0,0,1-.12-.95c.06-.18.13-.35.35-.38a.39.39,0,0,1,.41.31c.09.34.16.7.22,1,0,.15,0,.32.06.47.07-.29.11-.59.21-.88A3.2,3.2,0,0,1,13,1.51a.58.58,0,0,1,.33-.19.28.28,0,0,1,.38.28,1.68,1.68,0,0,1-.12.59c-.16.35-.36.68-.55,1a5.17,5.17,0,0,1,.59-.48,5.45,5.45,0,0,1,.76-.39.37.37,0,0,1,.21,0c.17,0,.35.05.41.24a.35.35,0,0,1-.16.44,6.62,6.62,0,0,1-.9.5c-.36.14-.73.24-1.1.35a.22.22,0,0,1-.18,0C12.54,3.66,12.34,3.69,12.13,3.78Z"/><path d="M4.89,3.78l-.08-.13c-.15-.29-.31-.58-.44-.88a1.78,1.78,0,0,1-.2-1.13.3.3,0,0,1,0-.16c.09-.09.2-.22.31-.23a.4.4,0,0,1,.33.19,5.57,5.57,0,0,1,.27,1,4.28,4.28,0,0,1,.06.72c.07-.31.12-.62.21-.91a3.15,3.15,0,0,1,.31-.64A.55.55,0,0,1,6,1.37a.52.52,0,0,1,.39,0,.48.48,0,0,1,.14.38,2.77,2.77,0,0,1-.26.73,9,9,0,0,1-.48.81,6.34,6.34,0,0,1,.61-.51,7.91,7.91,0,0,1,.82-.42.52.52,0,0,1,.25,0c.15,0,.31.06.36.24A.36.36,0,0,1,7.67,3a4.84,4.84,0,0,1-.79.47,12.57,12.57,0,0,1-1.23.39.28.28,0,0,1-.23,0A.47.47,0,0,0,4.89,3.78Z"/><path d="M19.37,20.5l-.11-.16a6.84,6.84,0,0,1-.41-.81,8.1,8.1,0,0,1-.24-1,.56.56,0,0,1,0-.22c.06-.18.13-.34.35-.36a.37.37,0,0,1,.39.3,11,11,0,0,1,.24,1.17,3.77,3.77,0,0,1,0,.48c.08-.34.15-.69.25-1a1.82,1.82,0,0,1,.27-.54,1,1,0,0,1,.38-.28.3.3,0,0,1,.44.27,1.63,1.63,0,0,1-.11.55c-.18.39-.4.75-.61,1.13a1.86,1.86,0,0,1,.26-.23,7.8,7.8,0,0,1,.92-.62,1,1,0,0,1,.58-.06.32.32,0,0,1,.18.55,1.16,1.16,0,0,1-.31.27,6.48,6.48,0,0,1-1.85.7.11.11,0,0,1-.11,0A.41.41,0,0,0,19.37,20.5Z"/><path d="M12.13,20.51,12,20.28a4.34,4.34,0,0,1-.6-1.46,1.4,1.4,0,0,1,.06-.61.43.43,0,0,1,.3-.24.46.46,0,0,1,.34.19,2.34,2.34,0,0,1,.28,1.13c0,.16,0,.32,0,.54a9.73,9.73,0,0,1,.27-1,2.4,2.4,0,0,1,.44-.65.35.35,0,0,1,.45-.08.34.34,0,0,1,.16.42,6,6,0,0,1-.3.8A7.17,7.17,0,0,1,13,20c.26-.22.48-.42.72-.59a1.45,1.45,0,0,1,.91-.35.4.4,0,0,1,.4.22.36.36,0,0,1-.14.44,3.91,3.91,0,0,1-.74.44c-.42.17-.87.3-1.32.44,0,0-.12,0-.14,0A.4.4,0,0,0,12.13,20.51Z"/><path d="M19.78,21.11c.18-.08.21-.24.2-.46.42,0,.85,0,1.26,0a3.18,3.18,0,0,1,.87.22c.33.14.47.41.4.62s-.32.3-.67.19-.83-.29-1.24-.45a.66.66,0,0,0-.25-.07c.12.09.24.18.35.28a8,8,0,0,1,.72.82,1.11,1.11,0,0,1,.14.6.32.32,0,0,1-.49.25,1.11,1.11,0,0,1-.36-.32c-.29-.48-.55-1-.82-1.47,0-.07-.07-.15-.11-.23Z"/><path d="M27,21.18l.25-.53c.34,0,.76,0,1.17,0a2.89,2.89,0,0,1,.81.19,1,1,0,0,1,.41.32.32.32,0,0,1-.24.54,1.11,1.11,0,0,1-.54-.05c-.37-.13-.74-.29-1.11-.44a1.14,1.14,0,0,0-.26-.09,6.12,6.12,0,0,1,.49.4,5.94,5.94,0,0,1,.67.83.89.89,0,0,1,.08.56.28.28,0,0,1-.4.22,1.32,1.32,0,0,1-.46-.38c-.27-.43-.5-.89-.74-1.33a2.1,2.1,0,0,1-.13-.26Z"/><path d="M5.84,21.13a5.27,5.27,0,0,1,.52.44,4.65,4.65,0,0,1,.61.72,1.11,1.11,0,0,1,.11.6.28.28,0,0,1-.41.24,1.34,1.34,0,0,1-.48-.4c-.29-.49-.54-1-.81-1.52a.21.21,0,0,1,0-.15l.19-.39a4,4,0,0,1,2,.2,1.06,1.06,0,0,1,.4.36.29.29,0,0,1-.2.46,1.39,1.39,0,0,1-.61,0c-.39-.12-.76-.3-1.14-.45l-.22-.11Z"/><path d="M12.53,21.12a.4.4,0,0,0,.23-.44,4.56,4.56,0,0,1,1.91.11,1,1,0,0,1,.57.41.31.31,0,0,1-.21.5,1.26,1.26,0,0,1-.58,0c-.38-.12-.75-.28-1.12-.43a.65.65,0,0,0-.21-.07,6.68,6.68,0,0,1,.57.49,4.51,4.51,0,0,1,.54.7,1,1,0,0,1,.1.48.31.31,0,0,1-.49.28,1.33,1.33,0,0,1-.45-.43c-.27-.44-.49-.9-.73-1.35,0-.08-.09-.15-.13-.22Z"/><path d="M12.53,4.38c.19-.09.22-.15.23-.42A4.5,4.5,0,0,1,14.55,4a2.22,2.22,0,0,1,.63.36.31.31,0,0,1,.09.4.34.34,0,0,1-.37.2,6.51,6.51,0,0,1-1-.23c-.3-.1-.58-.26-.88-.37a5.2,5.2,0,0,1,.44.35,5.59,5.59,0,0,1,.68.78,1.13,1.13,0,0,1,.15.61.3.3,0,0,1-.45.27,1.1,1.1,0,0,1-.4-.34c-.29-.48-.55-1-.82-1.47l-.12-.22Z"/><path d="M27.59,4.43c.27.26.59.51.84.8a2.43,2.43,0,0,1,.36.72.37.37,0,0,1-.16.45.36.36,0,0,1-.46-.09,3.14,3.14,0,0,1-.49-.6c-.24-.41-.44-.85-.64-1.23L27.27,4a4.2,4.2,0,0,1,2,.17,1,1,0,0,1,.4.3.47.47,0,0,1,.07.38.44.44,0,0,1-.34.19,2,2,0,0,1-.68-.11C28.32,4.75,28,4.58,27.59,4.43Z"/><path d="M34.51,20.55a4.32,4.32,0,0,1,1.75.09,2.11,2.11,0,0,1,.6.34.32.32,0,0,1,.1.42.33.33,0,0,1-.38.2,5.08,5.08,0,0,1-.86-.19c-.31-.1-.6-.26-.92-.37a4,4,0,0,1,.32.26c.24.25.49.49.72.76a.89.89,0,0,1,.19.66.32.32,0,0,1-.5.27,1.42,1.42,0,0,1-.45-.43c-.28-.47-.52-1-.77-1.46a.23.23,0,0,1,0-.16C34.38,20.82,34.44,20.7,34.51,20.55Z"/><path d="M34.52,3.83a4.66,4.66,0,0,1,1.7.08,2.23,2.23,0,0,1,.65.37.33.33,0,0,1,.1.4.36.36,0,0,1-.37.2,2.46,2.46,0,0,1-1.13-.29c-.21-.08-.41-.18-.63-.24a3.17,3.17,0,0,1,.34.28,5.29,5.29,0,0,1,.67.76A1.14,1.14,0,0,1,36,6a.31.31,0,0,1-.48.28A1,1,0,0,1,35.17,6c-.3-.51-.58-1-.86-1.57a.2.2,0,0,1,0-.15C34.37,4.11,34.44,4,34.52,3.83Z"/><path d="M5.36,4.49a.61.61,0,0,1,0-.13c.05-.12.12-.24.2-.41a4.17,4.17,0,0,1,2,.17A1.07,1.07,0,0,1,8,4.46.31.31,0,0,1,7.73,5,2.14,2.14,0,0,1,7,4.89c-.32-.1-.62-.26-.93-.39a.81.81,0,0,0-.22-.07,7.2,7.2,0,0,1,.58.5A3.65,3.65,0,0,1,7,5.59a1.09,1.09,0,0,1,.11.54.3.3,0,0,1-.48.26A1.46,1.46,0,0,1,6.15,6c-.24-.39-.44-.81-.66-1.22l-.14-.25Z"/></g><g class="cls-3"><path d="M5.5,19.61c.21-.18.41-.36.62-.52a1.53,1.53,0,0,1,.93-.37c.18,0,.34,0,.42.23a.36.36,0,0,1-.16.44,5.78,5.78,0,0,1-.8.47,3.9,3.9,0,0,1-.57.21l-.72.21a2.14,2.14,0,0,0-.36-.19.35.35,0,0,0-.4.32.34.34,0,0,0,.32.39c.18,0,.22.06.25.22a4,4,0,0,1,.11,1.65,1.7,1.7,0,0,1-.24.51.29.29,0,0,1-.38.14A.48.48,0,0,1,4.27,23a4.94,4.94,0,0,1,.05-.94,6.37,6.37,0,0,0,.11-.63.78.78,0,0,1-.11.2,10.92,10.92,0,0,1-.73.92.83.83,0,0,1-.49.2.31.31,0,0,1-.34-.44,1.51,1.51,0,0,1,.34-.52c.29-.28.62-.53.93-.8a.68.68,0,0,0,.2-.18c-.26.09-.52.2-.79.28a2.21,2.21,0,0,1-1.14.11l-.12,0c-.17-.08-.34-.17-.34-.39a.38.38,0,0,1,.36-.36,11.2,11.2,0,0,1,1.3-.08c.28,0,.57.06.86.09a9.35,9.35,0,0,1-1-.44,4.08,4.08,0,0,1-.76-.55A.92.92,0,0,1,2.41,19a.32.32,0,0,1,.43-.39,1.14,1.14,0,0,1,.47.26c.33.3.64.64.95,1a.51.51,0,0,0,.16.13c-.07-.14-.17-.28-.23-.43-.14-.37-.27-.74-.38-1.12a1,1,0,0,1,0-.45.39.39,0,0,1,.33-.32.36.36,0,0,1,.38.26,7.77,7.77,0,0,1,.24.95,5.75,5.75,0,0,1,0,.69,8.18,8.18,0,0,1,.26-1,2,2,0,0,1,.43-.66.37.37,0,0,1,.48-.1.42.42,0,0,1,.15.47,3.44,3.44,0,0,1-.55,1.18l-.15.22Z"/><path d="M26.13,4.71a1.32,1.32,0,0,1-.12.2,7.84,7.84,0,0,1-.66.86,1,1,0,0,1-.53.24.31.31,0,0,1-.35-.47,2.45,2.45,0,0,1,.5-.65c.32-.3.68-.56,1-.83-.3.1-.6.23-.92.31a4.33,4.33,0,0,1-.95.11.55.55,0,0,1-.59-.42c0-.2.16-.38.51-.41a11.67,11.67,0,0,1,1.45,0c.17,0,.35,0,.57.06-.36-.16-.68-.27-1-.44a4.06,4.06,0,0,1-.78-.6.78.78,0,0,1-.2-.43.3.3,0,0,1,.38-.36,1.42,1.42,0,0,1,.57.3c.39.34.74.73,1.09,1.09a4.48,4.48,0,0,1-.26-.49,9.46,9.46,0,0,1-.37-1.14.84.84,0,0,1,.07-.49.33.33,0,0,1,.63,0,3.76,3.76,0,0,1,.27.94,7.1,7.1,0,0,1,.07.77,8.25,8.25,0,0,1,.25-1,2.56,2.56,0,0,1,.44-.68A.36.36,0,0,1,27.72,1a.37.37,0,0,1,.14.48c-.14.34-.29.68-.46,1a4.53,4.53,0,0,0-.23.44c.08-.08.16-.17.25-.25A2.59,2.59,0,0,1,28.53,2a.82.82,0,0,1,.27,0,.39.39,0,0,1,.37.24.33.33,0,0,1-.14.41,7.78,7.78,0,0,1-1,.55A9.48,9.48,0,0,1,27,3.53a.24.24,0,0,1-.2,0c-.18-.14-.36-.19-.49-.05a.51.51,0,0,0-.12.39c0,.2.2.27.4.25h.09a4.07,4.07,0,0,1,.12,2.05,1,1,0,0,1-.25.38A.31.31,0,0,1,26,6.36a4.18,4.18,0,0,1,0-1,4.44,4.44,0,0,1,.15-.63Z"/><path d="M19,3.43c-.1.16-.19.34,0,.5a.55.55,0,0,0,.37.14c.19,0,.27-.15.29-.45a4.39,4.39,0,0,1,1.94.12,1.39,1.39,0,0,1,.49.34.41.41,0,0,1,.06.38.42.42,0,0,1-.34.19,1.86,1.86,0,0,1-.66-.1c-.34-.12-.67-.28-1-.43L20,4.05c.3.29.64.58.93.91a1.75,1.75,0,0,1,.31.59.41.41,0,0,1-.16.51A.37.37,0,0,1,20.57,6,6.36,6.36,0,0,1,20,5.1c-.18-.3-.31-.63-.48-.95a7,7,0,0,1,.13.78,6,6,0,0,1,0,1.12.89.89,0,0,1-.26.46.31.31,0,0,1-.55-.15,3.29,3.29,0,0,1,0-.94c0-.25.11-.5.15-.76a1.57,1.57,0,0,1-.14.25,9.31,9.31,0,0,1-.74.92.94.94,0,0,1-.53.18.26.26,0,0,1-.3-.32.72.72,0,0,1,.17-.4c.31-.32.64-.62,1-.92a3.31,3.31,0,0,0,.36-.31l-.5.2a2.78,2.78,0,0,1-1.3.23,1.35,1.35,0,0,1-.5-.2.29.29,0,0,1,0-.5A1.16,1.16,0,0,1,17,3.61c.54,0,1.08,0,1.62.06a.55.55,0,0,0,.18,0,5,5,0,0,1-.67-.28,6.62,6.62,0,0,1-1-.67.9.9,0,0,1-.24-.51.29.29,0,0,1,.4-.34,1.35,1.35,0,0,1,.48.24c.34.32.65.66,1,1l.17.17Z"/><path d="M33.48,20c-.15.31-.11.52.12.61a1.28,1.28,0,0,0,.3,0,4.17,4.17,0,0,1,.16,1.89,1.15,1.15,0,0,1-.27.51.33.33,0,0,1-.59-.18,3.57,3.57,0,0,1,0-.8,3,3,0,0,1,.09-.41,1.84,1.84,0,0,0,.07-.42,2.69,2.69,0,0,1-.16.29,6.24,6.24,0,0,1-.53.71,1.37,1.37,0,0,1-.45.3.4.4,0,0,1-.49-.06.37.37,0,0,1,0-.49,11.64,11.64,0,0,1,.84-.88c.18-.17.39-.3.57-.48l-.27.11a3.32,3.32,0,0,1-1.45.31A1,1,0,0,1,31,21a.33.33,0,0,1,0-.63,2.08,2.08,0,0,1,.74-.15c.46,0,.92.06,1.39.1h.15c-.34-.15-.65-.27-.95-.42a3,3,0,0,1-.63-.42,1.55,1.55,0,0,1-.37-.6.31.31,0,0,1,.42-.39,1.55,1.55,0,0,1,.53.3c.29.26.56.56.83.84l.23.21Z"/><path d="M11.79,20.17a.41.41,0,0,0,0,.5.35.35,0,0,0,.43.11h0a4.77,4.77,0,0,1,.2,1.84,1,1,0,0,1-.31.63.33.33,0,0,1-.57-.18,3.54,3.54,0,0,1,0-.86,8.48,8.48,0,0,1,.21-.87c-.16.26-.32.53-.5.79a1.39,1.39,0,0,1-.71.6.41.41,0,0,1-.47-.08.34.34,0,0,1,0-.47,11.38,11.38,0,0,1,.9-.94c.17-.17.38-.29.56-.46l-.23.09a3.67,3.67,0,0,1-1.49.36,1,1,0,0,1-.49-.14.45.45,0,0,1-.21-.33.44.44,0,0,1,.23-.3A2,2,0,0,1,10,20.3c.41,0,.81.05,1.22.07a.67.67,0,0,0,.24,0l-.15-.06c-.42-.23-.86-.44-1.27-.7A1.39,1.39,0,0,1,9.66,19a.44.44,0,0,1,.09-.38.38.38,0,0,1,.36,0,3.26,3.26,0,0,1,.7.46,8.68,8.68,0,0,1,.65.7l.2.18Z"/><path d="M12.19,4a4.52,4.52,0,0,1,.19,1.86,1.92,1.92,0,0,1-.24.55.31.31,0,0,1-.4.15.46.46,0,0,1-.23-.32,5.59,5.59,0,0,1,.05-1c0-.2.1-.39.12-.6a2.25,2.25,0,0,1-.12.21,9.83,9.83,0,0,1-.61.83,1.4,1.4,0,0,1-.52.29A.29.29,0,0,1,10,5.89a.58.58,0,0,1,0-.41A1.53,1.53,0,0,1,10.37,5c.3-.28.63-.53,1-.8a.33.33,0,0,0,.15-.16l-.27.11a3.23,3.23,0,0,1-1.49.32,1.09,1.09,0,0,1-.5-.19.3.3,0,0,1,0-.53,1.17,1.17,0,0,1,.51-.16c.54,0,1.08,0,1.63.06l.21,0a9.94,9.94,0,0,1-1-.44,3.4,3.4,0,0,1-.73-.53,1,1,0,0,1-.25-.47.31.31,0,0,1,.41-.39,1.2,1.2,0,0,1,.45.23c.36.33.7.69,1,1.05l.15.14.1.16a1,1,0,0,0-.1.28.34.34,0,0,0,.5.32Z"/><path d="M26.7,20.83c.05.52.12,1,.17,1.55a1.82,1.82,0,0,1-.09.5.63.63,0,0,1-.13.24c-.11.14-.24.27-.44.21a.43.43,0,0,1-.27-.42,3.88,3.88,0,0,1,.18-1.31.7.7,0,0,0,.05-.25c-.07.13-.14.27-.22.39a6.2,6.2,0,0,1-.54.7,1.42,1.42,0,0,1-.49.29.35.35,0,0,1-.42-.1.33.33,0,0,1,0-.42,4.65,4.65,0,0,1,.61-.72c.25-.25.55-.45.82-.69-.26.09-.52.2-.78.28a2.18,2.18,0,0,1-1.13.11h0c-.26-.07-.44-.24-.44-.42a.44.44,0,0,1,.43-.38,8.88,8.88,0,0,1,1.15-.07c.31,0,.62.06.93.08l-.46-.18a3.32,3.32,0,0,1-1.18-.72,1.31,1.31,0,0,1-.29-.53.31.31,0,0,1,.43-.38,2.23,2.23,0,0,1,.64.4c.29.26.53.56.8.84a1.29,1.29,0,0,0,.17.16l.09.15,0,.12a.36.36,0,0,0,.33.56l.16,0Z"/><path d="M19.44,20.76a5.4,5.4,0,0,1,.18,1.74,1.64,1.64,0,0,1-.23.64.49.49,0,0,1-.39.18c-.17,0-.27-.16-.27-.32A9.26,9.26,0,0,1,18.8,22c0-.19.1-.37.12-.58a1.23,1.23,0,0,1-.14.25c-.2.28-.39.57-.61.83a1.24,1.24,0,0,1-.43.26.36.36,0,0,1-.46-.08.35.35,0,0,1,0-.47,8.28,8.28,0,0,1,.75-.82c.22-.2.48-.37.72-.57l-.23.09a3.67,3.67,0,0,1-1.49.36,1.34,1.34,0,0,1-.52-.14.34.34,0,0,1,0-.64,2.08,2.08,0,0,1,.7-.14c.52,0,1,.05,1.52.08a6.27,6.27,0,0,1-.63-.27,7.13,7.13,0,0,1-1-.65.93.93,0,0,1-.26-.51.31.31,0,0,1,.44-.36,1.77,1.77,0,0,1,.58.34c.31.3.59.63.88.94l.14.13.11.16a.4.4,0,0,0,0,.51.36.36,0,0,0,.45.1Z"/><path d="M5,4.15a7.66,7.66,0,0,1,.14,1,4.34,4.34,0,0,1-.06,1c-.07.34-.32.52-.55.48s-.34-.24-.3-.6.16-.87.24-1.31c0,0,0,0,0-.1A9.17,9.17,0,0,1,4,5.43a2.14,2.14,0,0,1-.48.47A.93.93,0,0,1,3.05,6a.3.3,0,0,1-.3-.4A1,1,0,0,1,3,5.2c.36-.34.75-.66,1.13-1A1,1,0,0,0,4.3,4c-.18.07-.36.15-.54.21a2.79,2.79,0,0,1-1.3.24A1.16,1.16,0,0,1,2,4.32a.32.32,0,0,1,0-.57,1.2,1.2,0,0,1,.48-.14c.54,0,1.08,0,1.62.06l.24,0c-.36-.16-.67-.29-1-.44a2.83,2.83,0,0,1-.61-.41,1.37,1.37,0,0,1-.34-.45.37.37,0,0,1,0-.47.38.38,0,0,1,.47,0,5.13,5.13,0,0,1,.74.56c.27.26.51.56.76.84l.08.13a.9.9,0,0,0-.08.21.36.36,0,0,0,.35.44.76.76,0,0,1,.2.06Z"/><path d="M33.48,3.31a1.34,1.34,0,0,0-.09.31c0,.25.19.37.51.34a4.46,4.46,0,0,1,.17,1.85,1.72,1.72,0,0,1-.23.52.31.31,0,0,1-.4.15.49.49,0,0,1-.24-.33,5.15,5.15,0,0,1,0-1c0-.21.1-.41.12-.62a1.08,1.08,0,0,1-.11.18,7.4,7.4,0,0,1-.67.89A1.18,1.18,0,0,1,32,5.9a.31.31,0,0,1-.33-.43,1.13,1.13,0,0,1,.23-.4c.36-.33.74-.65,1.11-1a.65.65,0,0,0,.17-.16l-.6.23a2.59,2.59,0,0,1-1.26.19.88.88,0,0,1-.43-.19.29.29,0,0,1,0-.52,1.44,1.44,0,0,1,.58-.17c.51,0,1,0,1.53.07h.21c-.34-.15-.66-.27-.95-.43a4.12,4.12,0,0,1-.72-.52,1,1,0,0,1-.25-.45.31.31,0,0,1,.38-.42,1.08,1.08,0,0,1,.47.22c.36.34.7.7,1,1l.15.14Z"/><path d="M33.48,20l-.13-.23a4.16,4.16,0,0,1-.6-1.48,1.14,1.14,0,0,1,0-.55.55.55,0,0,1,.3-.28.31.31,0,0,1,.37.22,9.64,9.64,0,0,1,.26,1.06,5.2,5.2,0,0,1,.05.59,9.68,9.68,0,0,1,.26-1,2.49,2.49,0,0,1,.42-.65.38.38,0,0,1,.48-.09.36.36,0,0,1,.15.45,3.76,3.76,0,0,1-.27.73c-.11.24-.27.45-.39.7a4,4,0,0,1,.39-.33,8.89,8.89,0,0,1,.91-.51.63.63,0,0,1,.43,0,.3.3,0,0,1,.17.52,1.2,1.2,0,0,1-.45.36c-.56.23-1.13.42-1.7.63a.14.14,0,0,1-.13,0C33.88,19.91,33.69,20,33.48,20Z"/><path d="M26.24,20.13,26.15,20c-.19-.4-.4-.79-.56-1.21a1.82,1.82,0,0,1-.07-.7.42.42,0,0,1,.33-.45.39.39,0,0,1,.45.36c.11.43.16.88.23,1.33a2,2,0,0,0,0,.23,9,9,0,0,1,.2-.9A3,3,0,0,1,27,18a.64.64,0,0,1,.3-.26c.11,0,.3-.07.38,0a.46.46,0,0,1,.15.37,2.56,2.56,0,0,1-.22.66c-.14.28-.31.54-.5.86.24-.2.43-.37.63-.52a1.6,1.6,0,0,1,1-.4c.18,0,.35,0,.43.24a.37.37,0,0,1-.17.44,3.16,3.16,0,0,1-.71.42c-.43.17-.87.29-1.31.44a.37.37,0,0,1-.14,0C26.68,20,26.46,20.1,26.24,20.13Z"/><path d="M19,3.43l-.12-.16c-.16-.33-.35-.66-.48-1a5.81,5.81,0,0,1-.16-.85.51.51,0,0,1,0-.2c.06-.17.14-.31.34-.33a.35.35,0,0,1,.37.27,3.63,3.63,0,0,1,.22.78,8.64,8.64,0,0,1,.07.9c.07-.3.11-.6.2-.89a2.45,2.45,0,0,1,.24-.58.77.77,0,0,1,.31-.31.57.57,0,0,1,.42,0,.45.45,0,0,1,.15.38,1.88,1.88,0,0,1-.19.61c-.15.31-.33.59-.52.92a4.41,4.41,0,0,1,.49-.42c.29-.18.59-.33.9-.49a.33.33,0,0,1,.2,0c.18,0,.35,0,.42.23a.36.36,0,0,1-.15.44,2.59,2.59,0,0,1-.61.38c-.47.19-1,.33-1.43.49a.15.15,0,0,1-.15,0C19.43,3.32,19.24,3.35,19,3.43Z"/><path d="M33.48,3.31l-.1-.16c-.17-.35-.36-.7-.51-1.06a1.41,1.41,0,0,1-.11-.95c.06-.18.14-.35.36-.37a.4.4,0,0,1,.39.3c.09.32.16.65.22,1a5.82,5.82,0,0,1,.05.6,8,8,0,0,1,.26-1A2.58,2.58,0,0,1,34.47,1a.38.38,0,0,1,.47-.09.36.36,0,0,1,.15.45,3.57,3.57,0,0,1-.25.69c-.14.27-.31.53-.49.82a6.78,6.78,0,0,1,.6-.51,6.9,6.9,0,0,1,.86-.43.31.31,0,0,1,.19,0c.16,0,.33.05.39.23a.36.36,0,0,1-.15.45,5.81,5.81,0,0,1-.88.49,10.62,10.62,0,0,1-1.13.36s-.14,0-.17,0C33.89,3.2,33.69,3.24,33.48,3.31Z"/><path d="M11.79,3.44l-.1-.16c-.17-.35-.36-.7-.51-1.06a1.42,1.42,0,0,1-.12-1c.06-.18.13-.35.35-.38a.39.39,0,0,1,.41.31c.09.34.16.69.22,1.05,0,.15,0,.32.06.47.07-.29.11-.59.21-.88a3,3,0,0,1,.38-.67A.58.58,0,0,1,13,1a.28.28,0,0,1,.38.28,1.68,1.68,0,0,1-.12.59c-.16.35-.36.68-.55,1a5.17,5.17,0,0,1,.59-.48A5.45,5.45,0,0,1,14.08,2a.37.37,0,0,1,.21,0c.17,0,.35,0,.41.24a.35.35,0,0,1-.16.44,6.62,6.62,0,0,1-.9.5c-.36.14-.73.24-1.1.35a.22.22,0,0,1-.18,0C12.2,3.32,12,3.35,11.79,3.44Z"/><path d="M4.55,3.44l-.08-.13C4.32,3,4.16,2.73,4,2.43a1.78,1.78,0,0,1-.2-1.13.3.3,0,0,1,0-.16c.09-.09.2-.22.31-.23a.4.4,0,0,1,.33.19,5.57,5.57,0,0,1,.27,1,4.28,4.28,0,0,1,.06.72c.07-.31.12-.62.21-.91a3.15,3.15,0,0,1,.31-.64A.55.55,0,0,1,5.64,1,.48.48,0,0,1,6,1a.48.48,0,0,1,.14.38,2.77,2.77,0,0,1-.26.73A9,9,0,0,1,5.43,3,6.34,6.34,0,0,1,6,2.44,7.91,7.91,0,0,1,6.86,2a.52.52,0,0,1,.25,0c.15,0,.31.06.36.24a.36.36,0,0,1-.14.42,4.84,4.84,0,0,1-.79.47,12.57,12.57,0,0,1-1.23.39.28.28,0,0,1-.23,0A.47.47,0,0,0,4.55,3.44Z"/><path d="M19,20.16,18.92,20a6.84,6.84,0,0,1-.41-.81,8.1,8.1,0,0,1-.24-1,.56.56,0,0,1,0-.22c.06-.18.13-.34.35-.36a.37.37,0,0,1,.39.3,11,11,0,0,1,.24,1.17,3.77,3.77,0,0,1,0,.48c.08-.34.15-.69.25-1a1.82,1.82,0,0,1,.27-.54,1,1,0,0,1,.38-.28.3.3,0,0,1,.44.27,1.63,1.63,0,0,1-.11.55c-.18.39-.4.75-.61,1.13a1.86,1.86,0,0,1,.26-.23,7.8,7.8,0,0,1,.92-.62,1,1,0,0,1,.58-.06.32.32,0,0,1,.18.55,1.16,1.16,0,0,1-.31.27,6.48,6.48,0,0,1-1.85.7.11.11,0,0,1-.11,0A.41.41,0,0,0,19,20.16Z"/><path d="M11.79,20.17l-.13-.23a4.42,4.42,0,0,1-.6-1.46,1.4,1.4,0,0,1,.06-.61.43.43,0,0,1,.3-.24.46.46,0,0,1,.34.19A2.34,2.34,0,0,1,12,19c0,.16,0,.32,0,.54a9.73,9.73,0,0,1,.27-1,2.4,2.4,0,0,1,.44-.65.35.35,0,0,1,.45-.08.34.34,0,0,1,.16.42,6,6,0,0,1-.3.8,7.17,7.17,0,0,1-.43.72c.26-.22.48-.42.72-.59a1.45,1.45,0,0,1,.91-.35.4.4,0,0,1,.4.22.36.36,0,0,1-.14.44,3.91,3.91,0,0,1-.74.44c-.42.17-.87.3-1.32.44,0,0-.12,0-.14,0A.4.4,0,0,0,11.79,20.17Z"/><path d="M19.44,20.77c.18-.08.21-.24.2-.46.42,0,.84,0,1.26,0a3.18,3.18,0,0,1,.87.22.54.54,0,0,1,.4.62c-.07.2-.32.3-.67.19s-.83-.29-1.24-.45a.66.66,0,0,0-.25-.07c.12.09.24.18.35.28a8,8,0,0,1,.72.82,1,1,0,0,1,.13.6.31.31,0,0,1-.48.25,1.11,1.11,0,0,1-.36-.32c-.29-.48-.55-1-.82-1.47,0-.07-.07-.15-.11-.23Z"/><path d="M26.7,20.84l.25-.53c.34,0,.76,0,1.17,0a2.89,2.89,0,0,1,.81.19,1,1,0,0,1,.41.32.32.32,0,0,1-.24.54,1.11,1.11,0,0,1-.54-.05c-.37-.13-.74-.29-1.11-.44a1.14,1.14,0,0,0-.26-.09,6.12,6.12,0,0,1,.49.4,5.94,5.94,0,0,1,.67.83.89.89,0,0,1,.08.56.27.27,0,0,1-.4.21,1.2,1.2,0,0,1-.46-.37c-.27-.43-.5-.89-.74-1.33a2.1,2.1,0,0,1-.13-.26Z"/><path d="M5.5,20.79a5.27,5.27,0,0,1,.52.44,4.65,4.65,0,0,1,.61.72,1.11,1.11,0,0,1,.11.6.28.28,0,0,1-.41.24,1.34,1.34,0,0,1-.48-.4c-.29-.49-.54-1-.81-1.52a.21.21,0,0,1,0-.15l.19-.39a4,4,0,0,1,2,.2,1.06,1.06,0,0,1,.4.36.29.29,0,0,1-.2.46,1.39,1.39,0,0,1-.61,0c-.39-.12-.76-.3-1.14-.45l-.22-.11Z"/><path d="M12.19,20.78a.4.4,0,0,0,.23-.45,4.73,4.73,0,0,1,1.91.12,1,1,0,0,1,.57.41.31.31,0,0,1-.21.5,1.26,1.26,0,0,1-.58,0c-.38-.12-.75-.29-1.12-.43a.65.65,0,0,0-.21-.07c.19.16.39.31.57.49a4.51,4.51,0,0,1,.54.7,1,1,0,0,1,.1.48.31.31,0,0,1-.49.28,1.33,1.33,0,0,1-.45-.43c-.27-.44-.49-.9-.73-1.35,0-.08-.09-.15-.13-.22Z"/><path d="M12.19,4c.19-.09.22-.15.23-.42a4.5,4.5,0,0,1,1.79.08,2,2,0,0,1,.63.36.31.31,0,0,1,.09.4.34.34,0,0,1-.37.2,6.23,6.23,0,0,1-1-.23c-.3-.1-.58-.26-.88-.37a5.2,5.2,0,0,1,.44.35,5.59,5.59,0,0,1,.68.78A1.13,1.13,0,0,1,14,5.8a.3.3,0,0,1-.45.27,1.1,1.1,0,0,1-.4-.34c-.29-.48-.55-1-.82-1.47L12.19,4Z"/><path d="M27.25,4.09a10.5,10.5,0,0,1,.84.8,2.43,2.43,0,0,1,.36.72.37.37,0,0,1-.16.45A.36.36,0,0,1,27.83,6a3.14,3.14,0,0,1-.49-.6c-.24-.41-.44-.85-.64-1.23l.23-.53a4.2,4.2,0,0,1,2,.17,1,1,0,0,1,.4.3.47.47,0,0,1,.07.38.44.44,0,0,1-.34.19,2,2,0,0,1-.68-.11C28,4.41,27.61,4.24,27.25,4.09Z"/><path d="M34.17,20.21a4.32,4.32,0,0,1,1.75.09,2.11,2.11,0,0,1,.6.34.35.35,0,0,1-.28.62,5.08,5.08,0,0,1-.86-.19c-.31-.1-.6-.26-.92-.37a4,4,0,0,1,.32.26c.24.25.49.49.72.76a.89.89,0,0,1,.19.66.32.32,0,0,1-.5.27,1.42,1.42,0,0,1-.45-.43c-.28-.47-.52-1-.77-1.46a.23.23,0,0,1,0-.16C34,20.48,34.1,20.36,34.17,20.21Z"/><path d="M34.18,3.49a4.66,4.66,0,0,1,1.7.08,2.23,2.23,0,0,1,.65.37.33.33,0,0,1,.1.4.36.36,0,0,1-.37.2,2.46,2.46,0,0,1-1.13-.29c-.21-.08-.41-.18-.63-.24a3.17,3.17,0,0,1,.34.28,5.29,5.29,0,0,1,.67.76,1.14,1.14,0,0,1,.17.61.31.31,0,0,1-.48.28,1,1,0,0,1-.37-.33c-.31-.51-.58-1-.86-1.57a.2.2,0,0,1,0-.15C34,3.77,34.1,3.65,34.18,3.49Z"/><path d="M5,4.15a.61.61,0,0,1,0-.13c0-.12.12-.24.2-.41a4.17,4.17,0,0,1,2,.17,1.07,1.07,0,0,1,.42.34.31.31,0,0,1-.25.53,2.14,2.14,0,0,1-.71-.1c-.32-.1-.62-.26-.93-.39a.81.81,0,0,0-.22-.07,7.2,7.2,0,0,1,.58.5,3.65,3.65,0,0,1,.53.66,1.09,1.09,0,0,1,.11.54.3.3,0,0,1-.48.26,1.46,1.46,0,0,1-.46-.43c-.24-.39-.44-.81-.66-1.22L5,4.15Z"/></g><path class="cls-4" d="M5.7,19.8c.2-.17.41-.35.62-.51a1.53,1.53,0,0,1,.93-.37.42.42,0,0,1,.42.23.36.36,0,0,1-.16.44,5.78,5.78,0,0,1-.8.47,3.9,3.9,0,0,1-.57.21l-.72.21a1.45,1.45,0,0,0-.37-.19A.36.36,0,1,0,5,21c.18,0,.22.06.25.22a4,4,0,0,1,.1,1.65,1.46,1.46,0,0,1-.23.51.29.29,0,0,1-.38.14.48.48,0,0,1-.25-.33,4.94,4.94,0,0,1,0-.94,6.37,6.37,0,0,0,.11-.63.78.78,0,0,1-.11.2,10.92,10.92,0,0,1-.73.92.83.83,0,0,1-.49.2A.31.31,0,0,1,3,22.5,1.51,1.51,0,0,1,3.3,22c.29-.29.62-.54.93-.8a.68.68,0,0,0,.2-.18c-.26.09-.52.19-.79.27a2,2,0,0,1-1.14.11l-.12,0C2.2,21.27,2,21.18,2,21a.36.36,0,0,1,.35-.36,11.51,11.51,0,0,1,1.31-.08c.28,0,.57.06.86.09-.33-.15-.66-.27-1-.44a3.47,3.47,0,0,1-.76-.56.85.85,0,0,1-.23-.44A.32.32,0,0,1,3,18.78a1.21,1.21,0,0,1,.47.26c.33.3.64.64,1,1a.51.51,0,0,0,.16.13,3,3,0,0,1-.23-.44c-.14-.36-.27-.73-.38-1.11a.87.87,0,0,1,0-.45.37.37,0,0,1,.33-.32.35.35,0,0,1,.37.25A8.42,8.42,0,0,1,5,19a5.68,5.68,0,0,1,.06.69,8.18,8.18,0,0,1,.26-1A2.36,2.36,0,0,1,5.73,18a.37.37,0,0,1,.48-.09.41.41,0,0,1,.16.47,3.44,3.44,0,0,1-.55,1.18l-.15.22Z"/><path class="cls-4" d="M26.32,4.91a.78.78,0,0,1-.11.2,9.42,9.42,0,0,1-.67.86.93.93,0,0,1-.52.24.31.31,0,0,1-.35-.48,2.4,2.4,0,0,1,.5-.64,11.22,11.22,0,0,1,1-.83c-.3.1-.6.23-.92.31a4.42,4.42,0,0,1-1,.11.54.54,0,0,1-.58-.42c0-.2.15-.38.5-.42a14.22,14.22,0,0,1,1.46,0c.17,0,.34,0,.57.06a10.17,10.17,0,0,1-1-.44,4.5,4.5,0,0,1-.78-.6.82.82,0,0,1-.2-.43.3.3,0,0,1,.38-.36,1.4,1.4,0,0,1,.57.29c.39.35.74.74,1.09,1.09A3.12,3.12,0,0,1,26.08,3a9.46,9.46,0,0,1-.37-1.14.84.84,0,0,1,.07-.49c.14-.32.49-.35.63,0a4,4,0,0,1,.27,1,5.19,5.19,0,0,1,.06.77A8.32,8.32,0,0,1,27,2a2.34,2.34,0,0,1,.44-.68.36.36,0,0,1,.48-.08.37.37,0,0,1,.14.47c-.14.35-.3.69-.46,1-.07.14-.17.27-.24.44l.26-.25a2.59,2.59,0,0,1,1.11-.67.82.82,0,0,1,.27,0c.16,0,.31.06.37.24a.34.34,0,0,1-.15.41,7.66,7.66,0,0,1-1,.55,9.48,9.48,0,0,1-1.07.33.28.28,0,0,1-.2,0c-.18-.14-.36-.19-.49,0a.51.51,0,0,0-.12.39c0,.2.2.27.4.25h.09A4,4,0,0,1,27,6.33a.85.85,0,0,1-.24.38.31.31,0,0,1-.55-.15,4.28,4.28,0,0,1,0-1,4.31,4.31,0,0,1,.15-.62Z"/><path class="cls-4" d="M19.23,3.63c-.1.16-.19.34,0,.5a.55.55,0,0,0,.37.14c.18,0,.27-.15.29-.45a4.4,4.4,0,0,1,1.94.12,1.28,1.28,0,0,1,.49.34.43.43,0,0,1,.06.38.44.44,0,0,1-.34.19,2.11,2.11,0,0,1-.66-.1c-.34-.12-.67-.28-1-.43l-.15-.07c.3.29.64.58.93.91a1.57,1.57,0,0,1,.3.59.4.4,0,0,1-.15.51.36.36,0,0,1-.49-.12,5.78,5.78,0,0,1-.62-.85c-.18-.3-.31-.63-.48-.94,0,.26.11.52.13.78a5.86,5.86,0,0,1,0,1.11.92.92,0,0,1-.26.47A.31.31,0,0,1,19,6.56a4.22,4.22,0,0,1,0-.94c0-.25.12-.5.16-.77a2.15,2.15,0,0,1-.14.26,9.31,9.31,0,0,1-.74.92.94.94,0,0,1-.54.18.26.26,0,0,1-.29-.32.79.79,0,0,1,.16-.4c.32-.32.65-.62,1-.92.11-.11.24-.19.35-.31l-.5.19a2.75,2.75,0,0,1-1.29.24,1.12,1.12,0,0,1-.5-.21.3.3,0,0,1,0-.5,1.14,1.14,0,0,1,.53-.17c.54,0,1.08,0,1.62.06a.56.56,0,0,0,.18,0,5,5,0,0,1-.67-.28,6.62,6.62,0,0,1-1-.67.84.84,0,0,1-.24-.51.29.29,0,0,1,.39-.34A1.18,1.18,0,0,1,18,2.3c.34.32.65.66,1,1l.17.18Z"/><path class="cls-4" d="M33.68,20.24c-.15.31-.11.52.11.61a1.37,1.37,0,0,0,.31,0,4.31,4.31,0,0,1,.16,1.89,1.15,1.15,0,0,1-.27.51.33.33,0,0,1-.59-.18,3.57,3.57,0,0,1,0-.8,3,3,0,0,1,.09-.41,1.94,1.94,0,0,0,.07-.42c-.06.1-.1.2-.16.29a7.27,7.27,0,0,1-.53.71,1.37,1.37,0,0,1-.45.3.4.4,0,0,1-.49-.06.36.36,0,0,1,0-.49,10,10,0,0,1,.84-.88c.18-.17.39-.3.57-.48l-.27.1a3.34,3.34,0,0,1-1.46.32,1,1,0,0,1-.45-.13.33.33,0,0,1,0-.63,2.08,2.08,0,0,1,.74-.15c.46,0,.92.06,1.39.1h.15c-.34-.15-.65-.27-1-.43a2.39,2.39,0,0,1-.63-.42,1.52,1.52,0,0,1-.37-.59.31.31,0,0,1,.42-.39,1.71,1.71,0,0,1,.53.29c.29.27.55.56.83.85l.23.21Z"/><path class="cls-4" d="M12,20.36c-.1.17-.16.34,0,.5a.34.34,0,0,0,.43.11h0a4.55,4.55,0,0,1,.19,1.83,1,1,0,0,1-.3.64.33.33,0,0,1-.57-.18,3.54,3.54,0,0,1,0-.86,8.67,8.67,0,0,1,.21-.88c-.16.27-.32.54-.5.8a1.36,1.36,0,0,1-.72.59.4.4,0,0,1-.47-.08.34.34,0,0,1,0-.47c.28-.32.58-.64.9-.94.17-.16.38-.28.56-.45l-.23.09a3.84,3.84,0,0,1-1.49.36,1.25,1.25,0,0,1-.5-.14.47.47,0,0,1-.2-.33.48.48,0,0,1,.23-.31,2,2,0,0,1,.68-.14c.4,0,.81,0,1.22.07a.67.67,0,0,0,.24,0l-.15-.06c-.42-.23-.87-.44-1.27-.71a1.29,1.29,0,0,1-.38-.55.44.44,0,0,1,.09-.38.38.38,0,0,1,.36-.05,3.26,3.26,0,0,1,.7.46c.23.21.43.46.65.69a1.71,1.71,0,0,0,.2.18Z"/><path class="cls-4" d="M12.39,4.24a4.5,4.5,0,0,1,.19,1.86,1.92,1.92,0,0,1-.24.55.3.3,0,0,1-.4.14.46.46,0,0,1-.24-.31,6.71,6.71,0,0,1,.06-1c0-.2.1-.39.12-.6a1.32,1.32,0,0,1-.12.2,7.4,7.4,0,0,1-.61.83,1.29,1.29,0,0,1-.52.3.29.29,0,0,1-.39-.12.58.58,0,0,1,0-.41,1.54,1.54,0,0,1,.33-.46c.31-.28.64-.53,1-.8a.39.39,0,0,0,.15-.16l-.27.11a3.24,3.24,0,0,1-1.5.32,1.18,1.18,0,0,1-.5-.19.3.3,0,0,1,0-.53A1.05,1.05,0,0,1,10,3.81c.54,0,1.08,0,1.62.06l.21,0c-.35-.16-.67-.28-1-.44a3.78,3.78,0,0,1-.73-.53,1,1,0,0,1-.25-.47.31.31,0,0,1,.41-.39,1.05,1.05,0,0,1,.45.22c.36.34.69.7,1,1.05l.15.15.1.16a.79.79,0,0,0-.1.28c0,.27.23.42.5.32Z"/><path class="cls-4" d="M26.89,21c.06.51.13,1,.17,1.55a1.4,1.4,0,0,1-.08.49.67.67,0,0,1-.13.25c-.11.14-.24.27-.44.2s-.25-.23-.27-.41a3.88,3.88,0,0,1,.18-1.31,1,1,0,0,0,.05-.25c-.08.13-.14.27-.23.39a6.12,6.12,0,0,1-.53.7,1.42,1.42,0,0,1-.49.29.35.35,0,0,1-.42-.1.33.33,0,0,1,0-.42,5.21,5.21,0,0,1,.6-.72c.26-.25.56-.45.83-.69-.26.09-.52.2-.79.28a2.23,2.23,0,0,1-1.12.11h0c-.26-.07-.44-.24-.44-.42s.15-.34.42-.38a8.92,8.92,0,0,1,1.16-.07c.31,0,.61.06.93.08l-.46-.18a3.32,3.32,0,0,1-1.18-.72,1.26,1.26,0,0,1-.29-.53.31.31,0,0,1,.43-.38,2.23,2.23,0,0,1,.64.4c.29.26.53.56.8.84l.16.16.1.15,0,.12a.35.35,0,0,0,.33.55l.16,0Z"/><path class="cls-4" d="M19.64,21a5.37,5.37,0,0,1,.18,1.74,1.64,1.64,0,0,1-.23.64.53.53,0,0,1-.39.18.28.28,0,0,1-.27-.32A9.26,9.26,0,0,1,19,22.15c0-.19.1-.38.12-.58a2,2,0,0,1-.14.25c-.2.28-.39.57-.61.83a1.34,1.34,0,0,1-.43.26.37.37,0,0,1-.46-.08.35.35,0,0,1,0-.47,7.29,7.29,0,0,1,.75-.82c.22-.2.48-.37.72-.57l-.23.08a3.68,3.68,0,0,1-1.49.37,1.16,1.16,0,0,1-.52-.15.33.33,0,0,1,0-.63,2.08,2.08,0,0,1,.7-.14c.51,0,1,.05,1.52.08a6.27,6.27,0,0,1-.63-.27,8.15,8.15,0,0,1-1-.65.87.87,0,0,1-.26-.51.3.3,0,0,1,.44-.36,1.77,1.77,0,0,1,.58.34c.31.3.59.62.88.94l.13.13.11.16c-.1.16-.17.33,0,.5a.33.33,0,0,0,.45.1Z"/><path class="cls-4" d="M5.21,4.34a7.93,7.93,0,0,1,.14,1,4.46,4.46,0,0,1-.06,1c-.07.34-.32.52-.55.48s-.34-.25-.3-.6.16-.87.24-1.31a.33.33,0,0,1,0-.1c-.19.3-.35.58-.54.83a2.14,2.14,0,0,1-.48.47.93.93,0,0,1-.44.12.3.3,0,0,1-.3-.4,1,1,0,0,1,.23-.42c.36-.34.75-.66,1.13-1a1.45,1.45,0,0,0,.19-.17c-.18.07-.36.15-.55.21a2.72,2.72,0,0,1-1.29.24,1.11,1.11,0,0,1-.47-.17.32.32,0,0,1,0-.57,1.06,1.06,0,0,1,.48-.14c.54,0,1.08,0,1.62,0l.24,0c-.36-.16-.67-.28-1-.43A2.83,2.83,0,0,1,3,3.05a1.37,1.37,0,0,1-.34-.45.36.36,0,0,1,.52-.49,4,4,0,0,1,.74.56c.27.26.51.56.76.84l.08.13a1.89,1.89,0,0,0-.09.21A.37.37,0,0,0,5,4.29a.6.6,0,0,1,.19.06Z"/><path class="cls-4" d="M33.68,3.51a1.34,1.34,0,0,0-.09.31c0,.25.19.37.51.34A4.63,4.63,0,0,1,34.27,6a1.57,1.57,0,0,1-.23.51.3.3,0,0,1-.4.15.45.45,0,0,1-.24-.32,5.15,5.15,0,0,1,.05-1c0-.21.1-.41.12-.62,0,.06-.07.13-.11.18a7.4,7.4,0,0,1-.67.89,1.09,1.09,0,0,1-.58.25.3.3,0,0,1-.33-.42,1,1,0,0,1,.23-.4c.36-.33.74-.65,1.11-1a.85.85,0,0,0,.17-.16l-.6.22a2.49,2.49,0,0,1-1.26.2,1,1,0,0,1-.44-.19.3.3,0,0,1,0-.52,1.38,1.38,0,0,1,.58-.17c.52,0,1,0,1.54.07h.2c-.34-.15-.65-.27-.94-.43a4.12,4.12,0,0,1-.72-.52,1,1,0,0,1-.25-.45.31.31,0,0,1,.38-.42,1,1,0,0,1,.47.22c.36.34.69.7,1,1l.15.14Z"/><path class="cls-4" d="M33.68,20.24,33.55,20a4.06,4.06,0,0,1-.6-1.48A1.14,1.14,0,0,1,33,18a.55.55,0,0,1,.3-.28.3.3,0,0,1,.37.22c.1.35.19.7.26,1.06a5,5,0,0,1,0,.58,9.48,9.48,0,0,1,.26-1,2.13,2.13,0,0,1,.42-.65.38.38,0,0,1,.48-.09.36.36,0,0,1,.15.45A4.93,4.93,0,0,1,35,19c-.11.23-.27.45-.39.7a4,4,0,0,1,.39-.33,7.33,7.33,0,0,1,.91-.51.63.63,0,0,1,.43,0,.3.3,0,0,1,.17.52,1.2,1.2,0,0,1-.45.36c-.56.23-1.13.42-1.7.62a.14.14,0,0,1-.13,0A.41.41,0,0,0,33.68,20.24Z"/><path class="cls-4" d="M26.44,20.33l-.1-.15c-.18-.4-.39-.79-.55-1.21a1.82,1.82,0,0,1-.07-.7.42.42,0,0,1,.33-.45c.2,0,.38.08.45.36s.16.88.23,1.32a1.94,1.94,0,0,0,0,.24,9,9,0,0,1,.2-.9,2.4,2.4,0,0,1,.29-.63.66.66,0,0,1,.29-.26.48.48,0,0,1,.39,0,.54.54,0,0,1,.15.38,2.56,2.56,0,0,1-.22.66c-.14.28-.31.54-.5.86.24-.2.42-.37.63-.52a1.54,1.54,0,0,1,1-.4c.18,0,.35,0,.42.24a.36.36,0,0,1-.16.44,3.4,3.4,0,0,1-.71.42c-.43.17-.87.29-1.32.43,0,0-.12,0-.13,0C26.88,20.22,26.66,20.29,26.44,20.33Z"/><path class="cls-4" d="M19.23,3.63l-.12-.16c-.16-.33-.35-.66-.48-1a4.46,4.46,0,0,1-.16-.84.48.48,0,0,1,0-.2c.06-.17.14-.31.34-.33a.35.35,0,0,1,.37.26,4.42,4.42,0,0,1,.22.79,8.66,8.66,0,0,1,.07.89c.06-.29.11-.59.19-.88A3,3,0,0,1,20,1.57a.81.81,0,0,1,.3-.31.6.6,0,0,1,.43,0,.48.48,0,0,1,.15.38,1.88,1.88,0,0,1-.19.61c-.15.31-.33.59-.52.92a5.53,5.53,0,0,1,.48-.42c.29-.18.6-.33.9-.49a.37.37,0,0,1,.21,0,.42.42,0,0,1,.42.23.36.36,0,0,1-.15.44,2.59,2.59,0,0,1-.61.38c-.47.18-.95.33-1.43.49-.05,0-.13,0-.15,0A.43.43,0,0,0,19.23,3.63Z"/><path class="cls-4" d="M33.68,3.51l-.1-.16c-.17-.35-.36-.7-.51-1.06A1.36,1.36,0,0,1,33,1.34c0-.18.13-.35.35-.37a.37.37,0,0,1,.39.3,8.2,8.2,0,0,1,.23,1c0,.19,0,.39,0,.6a8,8,0,0,1,.26-1,2.34,2.34,0,0,1,.43-.66.38.38,0,0,1,.47-.09.36.36,0,0,1,.15.45,3.26,3.26,0,0,1-.25.68c-.14.28-.31.54-.49.83a5.43,5.43,0,0,1,.6-.51A8.69,8.69,0,0,1,36,2.09a.39.39,0,0,1,.19,0c.16,0,.33,0,.39.23a.35.35,0,0,1-.15.44,6,6,0,0,1-.88.5,11.4,11.4,0,0,1-1.13.36s-.15,0-.17,0C34.09,3.4,33.89,3.44,33.68,3.51Z"/><path class="cls-4" d="M12,3.64l-.1-.16c-.17-.35-.36-.7-.51-1.06a1.42,1.42,0,0,1-.12-.95c.05-.18.13-.35.35-.38a.37.37,0,0,1,.4.31,9.18,9.18,0,0,1,.23,1c0,.16,0,.32,0,.48A8.7,8.7,0,0,1,12.51,2a2.93,2.93,0,0,1,.37-.67.61.61,0,0,1,.34-.19.28.28,0,0,1,.38.28,1.72,1.72,0,0,1-.12.59c-.16.35-.36.68-.55,1a5,5,0,0,1,.58-.49,6.88,6.88,0,0,1,.77-.38.37.37,0,0,1,.21,0,.41.41,0,0,1,.41.23.38.38,0,0,1-.16.45,6.56,6.56,0,0,1-.9.49,11,11,0,0,1-1.11.36.2.2,0,0,1-.17,0A.43.43,0,0,0,12,3.64Z"/><path class="cls-4" d="M4.75,3.64l-.08-.13c-.15-.3-.31-.58-.44-.89A1.81,1.81,0,0,1,4,1.5c0-.05,0-.12.06-.16s.2-.23.31-.23a.4.4,0,0,1,.33.19,5.57,5.57,0,0,1,.27,1A5.52,5.52,0,0,1,5.05,3c.07-.31.12-.62.21-.91a2.91,2.91,0,0,1,.31-.64.51.51,0,0,1,.27-.23c.12,0,.3-.07.38,0a.45.45,0,0,1,.15.38,2.77,2.77,0,0,1-.26.73c-.13.27-.3.51-.48.81a5.32,5.32,0,0,1,.61-.51,5.75,5.75,0,0,1,.82-.42.42.42,0,0,1,.25,0c.15,0,.31.06.36.24a.36.36,0,0,1-.14.41,3.74,3.74,0,0,1-.79.47,11,11,0,0,1-1.23.4.33.33,0,0,1-.23-.05A.47.47,0,0,0,4.75,3.64Z"/><path class="cls-4" d="M19.22,20.36l-.11-.16a8.69,8.69,0,0,1-.4-.81,8.1,8.1,0,0,1-.24-1,.47.47,0,0,1,0-.23c.06-.17.13-.33.35-.35a.37.37,0,0,1,.39.29c.1.39.17.78.24,1.17a4,4,0,0,1,0,.49c.08-.34.15-.69.25-1a1.82,1.82,0,0,1,.27-.54,1,1,0,0,1,.38-.28.29.29,0,0,1,.43.27,1.26,1.26,0,0,1-.11.55c-.17.38-.39.75-.6,1.13a2.61,2.61,0,0,1,.25-.23A7.91,7.91,0,0,1,21.3,19a1,1,0,0,1,.57-.06.31.31,0,0,1,.19.54,1.18,1.18,0,0,1-.31.28,6.48,6.48,0,0,1-1.85.7.11.11,0,0,1-.11,0C19.63,20.23,19.43,20.26,19.22,20.36Z"/><path class="cls-4" d="M12,20.36l-.13-.23a4.29,4.29,0,0,1-.6-1.45,1.46,1.46,0,0,1,.06-.62.4.4,0,0,1,.3-.23A.46.46,0,0,1,12,18a2.45,2.45,0,0,1,.28,1.13c0,.16,0,.32,0,.53a8.08,8.08,0,0,1,.27-1A2.62,2.62,0,0,1,13,18a.37.37,0,0,1,.45-.08.36.36,0,0,1,.16.43,6,6,0,0,1-.3.8,6.11,6.11,0,0,1-.43.71c.26-.21.48-.41.72-.58a1.38,1.38,0,0,1,.91-.35.4.4,0,0,1,.4.22.35.35,0,0,1-.14.43A3.75,3.75,0,0,1,14,20c-.43.17-.87.3-1.32.43,0,0-.12,0-.14,0A.41.41,0,0,0,12,20.36Z"/><path class="cls-4" d="M19.64,21c.18-.07.21-.23.2-.45.42,0,.84,0,1.26,0a3.37,3.37,0,0,1,.87.22.55.55,0,0,1,.4.62c-.07.2-.32.29-.67.19s-.83-.29-1.24-.45a.66.66,0,0,0-.25-.07,2.3,2.3,0,0,1,.34.28,8.07,8.07,0,0,1,.73.82,1.1,1.1,0,0,1,.13.6.3.3,0,0,1-.48.24.9.9,0,0,1-.36-.31c-.29-.48-.55-1-.82-1.47,0-.07-.07-.15-.11-.23Z"/><path class="cls-4" d="M26.9,21l.25-.52c.34,0,.76,0,1.16,0a2.88,2.88,0,0,1,.82.19,1,1,0,0,1,.4.32.31.31,0,0,1-.23.54,1.25,1.25,0,0,1-.54-.05c-.38-.13-.74-.29-1.11-.44a1.34,1.34,0,0,0-.26-.09,6.12,6.12,0,0,1,.49.4,5.94,5.94,0,0,1,.67.83,1,1,0,0,1,.08.56.27.27,0,0,1-.4.21,1.14,1.14,0,0,1-.46-.38c-.27-.42-.5-.88-.74-1.32L26.89,21Z"/><path class="cls-4" d="M5.69,21a5.52,5.52,0,0,1,.53.43,4.16,4.16,0,0,1,.6.73,1.22,1.22,0,0,1,.12.6.28.28,0,0,1-.41.24,1.26,1.26,0,0,1-.48-.4c-.29-.49-.55-1-.81-1.52a.21.21,0,0,1,0-.15c0-.12.11-.23.19-.39a3.85,3.85,0,0,1,2,.2.9.9,0,0,1,.39.36.28.28,0,0,1-.19.46,1.45,1.45,0,0,1-.62,0c-.38-.13-.76-.3-1.13-.45L5.71,21Z"/><path class="cls-4" d="M12.39,21c.19-.07.24-.23.23-.44a4.91,4.91,0,0,1,1.91.11,1,1,0,0,1,.57.41c.13.23.05.46-.21.5a1.14,1.14,0,0,1-.58,0c-.38-.12-.75-.29-1.12-.44A.73.73,0,0,0,13,21a6.55,6.55,0,0,1,.56.49,4.58,4.58,0,0,1,.55.7,1,1,0,0,1,.1.48.31.31,0,0,1-.49.28,1.46,1.46,0,0,1-.46-.43c-.26-.44-.48-.9-.72-1.36L12.39,21Z"/><path class="cls-4" d="M12.39,4.24c.19-.09.22-.15.23-.42a4.44,4.44,0,0,1,1.78.08,1.81,1.81,0,0,1,.63.36.32.32,0,0,1,.1.4.36.36,0,0,1-.37.2,6.64,6.64,0,0,1-1-.23c-.29-.1-.57-.26-.87-.37a4.7,4.7,0,0,1,.43.35,5.52,5.52,0,0,1,.69.77,1.19,1.19,0,0,1,.15.62.29.29,0,0,1-.45.26,1,1,0,0,1-.4-.33c-.29-.48-.55-1-.82-1.47l-.12-.22Z"/><path class="cls-4" d="M27.45,4.29a8.89,8.89,0,0,1,.83.8,2.34,2.34,0,0,1,.37.72.37.37,0,0,1-.16.45A.36.36,0,0,1,28,6.17a3.14,3.14,0,0,1-.49-.6c-.24-.41-.44-.85-.64-1.23l.23-.53a4.21,4.21,0,0,1,2,.17,1,1,0,0,1,.4.3.43.43,0,0,1,.06.38.41.41,0,0,1-.33.19,2,2,0,0,1-.68-.11C28.18,4.61,27.81,4.44,27.45,4.29Z"/><path class="cls-4" d="M34.37,20.41a4.32,4.32,0,0,1,1.75.09,1.85,1.85,0,0,1,.59.34.33.33,0,0,1,.11.42.34.34,0,0,1-.38.2,5.08,5.08,0,0,1-.86-.19c-.31-.11-.6-.26-.92-.37a1.94,1.94,0,0,1,.31.26c.25.25.5.49.73.76a.88.88,0,0,1,.19.65c0,.28-.27.43-.5.28a1.42,1.42,0,0,1-.45-.43c-.28-.48-.52-1-.77-1.46a.23.23,0,0,1,0-.16C34.24,20.68,34.3,20.56,34.37,20.41Z"/><path class="cls-4" d="M34.38,3.68a4.91,4.91,0,0,1,1.7.09,2.23,2.23,0,0,1,.65.37.31.31,0,0,1,.09.4c-.07.16-.2.19-.36.2a2.59,2.59,0,0,1-1.13-.29c-.21-.08-.41-.18-.63-.24.11.09.24.18.34.28a5.29,5.29,0,0,1,.67.76,1.14,1.14,0,0,1,.17.61.31.31,0,0,1-.48.28A1,1,0,0,1,35,5.81c-.3-.51-.57-1-.85-1.57a.2.2,0,0,1,0-.15C34.23,4,34.3,3.85,34.38,3.68Z"/><path class="cls-4" d="M5.21,4.35a.65.65,0,0,1,0-.13c0-.13.12-.24.2-.41a4.05,4.05,0,0,1,2,.17,1.14,1.14,0,0,1,.42.33.32.32,0,0,1-.26.54,2.37,2.37,0,0,1-.7-.1c-.32-.11-.62-.26-.93-.39a.81.81,0,0,0-.22-.07c.2.17.4.32.58.5a4.26,4.26,0,0,1,.53.66A1.22,1.22,0,0,1,7,6a.3.3,0,0,1-.48.26A1.46,1.46,0,0,1,6,5.82C5.77,5.43,5.56,5,5.34,4.6l-.13-.25Z"/></g></g></svg>