<svg xmlns="http://www.w3.org/2000/svg" viewBox="0 0 38.55 24.66"><defs><style>.cls-1{isolation:isolate;}.cls-2{opacity:0.15;}.cls-2,.cls-3{mix-blend-mode:multiply;}.cls-4{fill:#fff;}</style></defs><title>convert-CUSTOMIZE-SVG-03</title><g class="cls-1"><g id="Layer_1" data-name="Layer 1"><g class="cls-2"><path d="M31.47,20.31a5.69,5.69,0,0,1,.19-.88.89.89,0,0,1,.63-.57,2.53,2.53,0,0,0,1.11-.58.34.34,0,0,1,.55,0l.2.23a1.89,1.89,0,0,1,2,.28c.66.45.53,1.16.59,1.83a.55.55,0,0,1,.26.79,4,4,0,0,1-.35.72,1.63,1.63,0,0,1-1.6.79,1.43,1.43,0,0,1-1.25.67,2,2,0,0,1-1.59-.74c-.05-.36-.44-.48-.54-.8s-.26-.61-.36-.92a1.63,1.63,0,0,1-.06-.54C31.26,20.45,31.32,20.31,31.47,20.31Zm3.93-.25a5.44,5.44,0,0,1-.16.94,1,1,0,0,1-1.42.57c-.1-.06-.18-.13-.28-.2a1,1,0,0,0,.08.88.35.35,0,0,0,.41.22,4.76,4.76,0,0,0,1-.32A1.46,1.46,0,0,0,35.4,20.06Zm1,.39c0-.61,0-1.19-.62-1.52a1.7,1.7,0,0,0-1.39-.21c.11.36.22.42.53.48a.86.86,0,0,1,.49.25,3.67,3.67,0,0,1,.47.79C36.05,20.53,36.11,20.56,36.43,20.45Zm-3.22,1.87a1.66,1.66,0,0,1-.12-1.07c.12-.34.3-.66.47-1-.18,0-.38,0-.59,0a.5.5,0,0,0-.55.55A1.85,1.85,0,0,0,33.21,22.32Zm1.41-1.25a.83.83,0,0,0,.33-.82,1.06,1.06,0,0,0-.73-.87,1.2,1.2,0,0,0-1.17.34l.23.05c.25.07.51.12.75.2C34.66,20.2,34.78,20.42,34.62,21.07Zm.47,1.58a1.16,1.16,0,0,0,.18,0,1.26,1.26,0,0,0,.9-.4,4.59,4.59,0,0,0,.51-.81.57.57,0,0,0,0-.47c-.1-.18-.33-.14-.52-.12A.76.76,0,0,0,36,21,1,1,0,0,1,36,22,2.23,2.23,0,0,1,35.09,22.65ZM32,20.59c.13-1.2,1-1.53,2-1.84l-.26-.3a8.09,8.09,0,0,1-.71.44,7.21,7.21,0,0,1-.77.3l-.07,0A1.09,1.09,0,0,0,32,20.59Zm2.75,2.34c-.18-.19-.25-.2-.62,0a.88.88,0,0,1-1-.1.45.45,0,0,0-.56,0A1.46,1.46,0,0,0,34.71,22.93Zm-2.09-.6-1-1.53-.06,0A3.65,3.65,0,0,0,32,22.1C32.15,22.36,32.25,22.4,32.62,22.33Zm1.2-1.45.09.06.34-.2v-.08c-.1,0-.24-.12-.3-.08S33.86,20.78,33.82,20.88Zm-1.16-1.2-.28.37,0,0,.28-.15Z"/><path d="M25.72,19.21c0-.07,0-.18.05-.28,0-.26.18-.38.44-.33a2.51,2.51,0,0,0,1.19-.07,1.09,1.09,0,0,1,1.17.38,2.67,2.67,0,0,1,.28.41c.22-.11.38,0,.45.22a4,4,0,0,1,.29,1,1.47,1.47,0,0,1,0,1.07.07.07,0,0,0,0,.06,1.71,1.71,0,0,1-1.43,1.87c-.29,0-.58.11-.82-.11a1.61,1.61,0,0,1-1.69.22,3.42,3.42,0,0,1-.77-.48.53.53,0,0,1-.2-.78c-.24-.53-.68-1-.51-1.63a1.85,1.85,0,0,1,1.6-1.51Zm-.22,1.87h-.06c0,.15,0,.3.08.45a1.32,1.32,0,0,0,1.18,1.17,2.41,2.41,0,0,0,.95-.16c.45-.14.53-.31.4-.78a.66.66,0,0,0-.35-.49,1,1,0,0,1-1.49.66A1.52,1.52,0,0,1,25.5,21.08Zm-.69.94c.35-.12.36-.17.31-.52a4.25,4.25,0,0,1,0-.8.69.69,0,0,1,.34-.55.44.44,0,0,0,.14-.62,1.68,1.68,0,0,0-1.07.93C24.19,21.06,24.48,21.53,24.81,22ZM28.45,22a1.94,1.94,0,0,0,0-1.65c-.26-.45-.56-.53-1-.22a3.4,3.4,0,0,0-.38.32A1.66,1.66,0,0,1,28.45,22Zm-1.22-2.29a1.11,1.11,0,0,0-1.09.25,1.14,1.14,0,0,0-.2,1.19.85.85,0,0,0,.75.48c-.45-.28-.53-.53-.3-1a2.11,2.11,0,0,1,.21-.31C26.8,20.09,27,19.87,27.23,19.66Zm-.18,3.49A2.12,2.12,0,0,1,26,23c-.39-.14-.51-.47-.6-.86a3.13,3.13,0,0,0-.42.24c-.19.14-.2.31,0,.45a2.3,2.3,0,0,0,.62.41,2.44,2.44,0,0,0,.81.17A.75.75,0,0,0,27.05,23.15Zm1.61-3.33a1.24,1.24,0,0,0-.3-.73.85.85,0,0,0-.89-.29,8,8,0,0,1-1,.12,2.37,2.37,0,0,1-.43-.05l0,.41C27,19.05,27.9,18.86,28.66,19.82ZM27.5,23.16A1.4,1.4,0,0,0,29.25,22a.5.5,0,0,0-.48.34.75.75,0,0,1-.68.52.69.69,0,0,0-.32.08A1,1,0,0,0,27.5,23.16ZM29,21.59c.31-.09.4-.19.38-.45s-.11-.78-.17-1.16a.9.9,0,0,0-.08-.21h-.06Zm-1.83-.45,0-.09c-.06-.11-.08-.28-.26-.22s-.1.16-.14.24Zm.41-1.74.11.23.29,0v0Z"/><path d="M3.51,19.77c0-.09,0-.18,0-.28,0-.28.11-.43.38-.43A2.65,2.65,0,0,0,5,18.76,1.14,1.14,0,0,1,6.34,19a3.32,3.32,0,0,1,.25.27.3.3,0,0,1,.45.07,1.76,1.76,0,0,1,.32.45,4.12,4.12,0,0,1,.37,1.07,6,6,0,0,1,.11.95,1.79,1.79,0,0,1-1.51,1.8,2.68,2.68,0,0,1-.5,0,1.89,1.89,0,0,1-2.56.1c-.23-.14-.27-.32-.2-.65-.36-.47-.87-.83-.83-1.49a2,2,0,0,1,.9-1.64A1.58,1.58,0,0,1,3.51,19.77Zm2.35,1.62c0,.11,0,.21-.05.3a.82.82,0,0,1-.66.66,1.21,1.21,0,0,1-1.05-.24l-.56-.4,0-.07c.12.25.22.5.36.73A1.23,1.23,0,0,0,5.23,23a2,2,0,0,0,1.09-.54.37.37,0,0,0,.11-.2C6.4,21.91,6.2,21.47,5.86,21.39Zm-2.43-1.3a1.7,1.7,0,0,0-.87,1.15c-.2.65.21,1.05.61,1.46.34-.22.32-.21.2-.58a3.27,3.27,0,0,1-.17-.88.8.8,0,0,1,.19-.47A.51.51,0,0,0,3.43,20.09Zm3.29,1.78.07,0c0-.14,0-.29,0-.43a1.79,1.79,0,0,0-.6-1.28A.46.46,0,0,0,5.7,20a1.4,1.4,0,0,0-.63.64A1.68,1.68,0,0,1,6.72,21.87Zm-1.62-2A1.16,1.16,0,0,0,4,20.47a1.15,1.15,0,0,0,.18,1.17.75.75,0,0,0,.74.23A.58.58,0,0,1,4.45,21a3.9,3.9,0,0,1,.35-.71C4.89,20.16,5,20,5.1,19.88ZM3.77,22.74a2.83,2.83,0,0,0-.35.31c-.17.19-.15.35.08.46a6.67,6.67,0,0,0,.74.29,1.32,1.32,0,0,0,1.18-.22,1.89,1.89,0,0,0,.2-.2C4.85,23.56,4.16,23.65,3.77,22.74Zm0-3c.48-.13.93-.3,1.39-.39a1.47,1.47,0,0,1,1.3.43A1,1,0,0,0,6,19.08a.94.94,0,0,0-.65-.14,4.25,4.25,0,0,1-1.56.41Zm3.75,2.06a.48.48,0,0,0-.42.41.76.76,0,0,1-.56.65,1,1,0,0,0-.32.16A1.66,1.66,0,0,0,6,23.3,1.45,1.45,0,0,0,7.54,21.77Zm-.36-.34c.27-.13.35-.25.29-.49a7.81,7.81,0,0,0-.26-.82c-.06-.17-.16-.33-.24-.5l-.08,0Zm-1.87-.08v-.09c-.08-.09-.14-.25-.3-.16s-.06.18-.08.27Zm.19-1.57.3-.11v0l-.43-.05Z"/><path d="M21.83,21.54a.55.55,0,0,1-.15.77,2.59,2.59,0,0,1-1.17.61,1.65,1.65,0,0,1-1.32-.33,1.13,1.13,0,0,1-1.1,0,1.88,1.88,0,0,1-1.23-1.58c.13-.31-.11-.59,0-.9s.07-.62.14-.92a2.24,2.24,0,0,1,.24-.55.28.28,0,0,1,.43-.14,1.34,1.34,0,0,1,1-.85.66.66,0,0,1,.28,0,3,3,0,0,0,1.4.1.33.33,0,0,1,.41.28l0,.19c0,.06,0,.12,0,.16a1.82,1.82,0,0,1,1.49,1.17C22.62,20.34,22.17,20.92,21.83,21.54Zm-3.07-1.07a.94.94,0,0,0-.38.84.28.28,0,0,0,.17.31,4.81,4.81,0,0,0,.81.27,1.19,1.19,0,0,0,1.42-.71A6.43,6.43,0,0,0,21,20.4a.76.76,0,0,0,0-.15,3.07,3.07,0,0,1-.61.79,1,1,0,0,1-1.59-.48Zm2.13-1.76a.51.51,0,0,0,.19.68.76.76,0,0,1,.27.4,4.31,4.31,0,0,1,0,.95c0,.35,0,.37.32.47.28-.45.6-.89.33-1.46A1.72,1.72,0,0,0,20.89,18.71Zm-1.51.81c-.19-.12-.39-.27-.61-.39a.41.41,0,0,0-.49.08A1.75,1.75,0,0,0,18,21.12a1.57,1.57,0,0,1,.42-1C18.72,19.92,19,19.75,19.38,19.52Zm-.17-.68c.13.12.24.21.33.31a7.37,7.37,0,0,1,.59.79.52.52,0,0,1-.26.78l-.09.05a.8.8,0,0,0,.76-.51,1.06,1.06,0,0,0-.22-1.16A1.18,1.18,0,0,0,19.21,18.84Zm.16,3.5c.08.06.12.13.18.15a3,3,0,0,0,.6.17,1.68,1.68,0,0,0,1.13-.4c.16-.11.39-.21.36-.43s-.27-.31-.46-.4h-.1C20.88,22.37,20.17,22.4,19.37,22.34Zm1.1-3.86a1.29,1.29,0,0,1,0-.25q0-.19-.18-.15A2.53,2.53,0,0,1,19,18a.77.77,0,0,0-.74.19,1.16,1.16,0,0,0-.42.84C18.54,18.05,19.49,18.25,20.47,18.48ZM19,22.4c-.07-.33-.34-.33-.56-.36a.83.83,0,0,1-.71-.55.47.47,0,0,0-.47-.31A1.46,1.46,0,0,0,19,22.4Zm-1.49-1.61c0-.27,0-.53,0-.78s-.05-.68-.08-1.06a3.82,3.82,0,0,0-.29,1.48A.44.44,0,0,0,17.46,20.79Zm1.8-.52c.17.06.32.12.42,0s-.06-.19-.13-.22S19.34,20.14,19.26,20.27Zm-.77-1.52v0l.3,0,.1-.23Z"/><path d="M13.21,22.57a1.52,1.52,0,0,1-1.67.54,1.74,1.74,0,0,1-.5-.17c-.12-.08-.29-.23-.29-.35a.7.7,0,0,0-.33-.52,1.58,1.58,0,0,1,.05-2.46,2.48,2.48,0,0,1,.29-.17s0,0,0,0c-.09-.51,0-.54.45-.67a3,3,0,0,0,.78-.35,1,1,0,0,1,1.2.06c.07.05.14.12.22.19a.33.33,0,0,1,.49.09,2.62,2.62,0,0,1,.76,1.58c0,.09.1.16.12.25a1.64,1.64,0,0,1-1,1.88A3.74,3.74,0,0,1,13.21,22.57Zm-2.07-1.42a1.56,1.56,0,0,0,.86.9,1.51,1.51,0,0,0,1.54-.62.27.27,0,0,0,0-.12.8.8,0,0,0-.53-.67C13.12,21.68,11.89,21.93,11.14,21.15Zm-.4-1.39a1.55,1.55,0,0,0-.61,1.13c-.07.55.3.84.67,1.12.25-.19.24-.19.11-.46a5.12,5.12,0,0,1-.25-.65.68.68,0,0,1,.11-.58C10.92,20.13,10.92,20,10.74,19.76ZM12.3,20a4.73,4.73,0,0,1,.88.24,3.41,3.41,0,0,1,.63.56,1.54,1.54,0,0,0-.67-1.29.35.35,0,0,0-.41,0A1,1,0,0,0,12.3,20Zm-.18-.57a.89.89,0,0,0-.85,1,.77.77,0,0,0,.83.75.61.61,0,0,1-.35-.87A8.24,8.24,0,0,1,12.12,19.41ZM11.33,22c-.11.15-.21.25-.28.36a.2.2,0,0,0,.07.3,1.56,1.56,0,0,0,1.72-.12A.93.93,0,0,0,13,22.4a2,2,0,0,1-.9.17A.85.85,0,0,1,11.33,22Zm2-3c-.05-.06-.09-.13-.15-.19a.8.8,0,0,0-1.07-.17,5.21,5.21,0,0,1-.87.38c-.26.08-.27.07-.16.35A2.12,2.12,0,0,1,13.32,19Zm0,3.25a1.27,1.27,0,0,0,1.12-1.46.4.4,0,0,0-.28.38.68.68,0,0,1-.4.62,1.41,1.41,0,0,0-.29.18A1.17,1.17,0,0,0,13.36,22.26Zm.82-1.78a.36.36,0,0,0,.16-.47c-.07-.16-.14-.32-.22-.48s-.09-.17-.14-.26L13.81,19l-.06,0Zm-1.69.16v-.12a.75.75,0,0,0-.26,0s0,.12,0,.19Z"/><path d="M29.45,3.26l-.76,2a3.09,3.09,0,0,0-.17.54c0,.15-.12.17-.25.13-.38-.12-.45-.24-.33-.6s.16-.44.23-.66a.61.61,0,0,0,0-.19l-.08,0-.8.93c-.08.1-.12.23-.2.33a.41.41,0,0,1-.5.09c-.15-.08-.15-.22-.12-.36s.1-.56.13-.84c0-.08-.06-.18-.1-.27s-.15.1-.19.17l-.68,1.33a.67.67,0,0,1-.16.18c-.07-.07-.18-.13-.19-.2a.89.89,0,0,1,0-.49c.36-.64.74-1.28,1.13-1.91a.53.53,0,0,1,.68-.12.36.36,0,0,1,0,.34,2.49,2.49,0,0,0,0,1.12c.07-.07.12-.14.19-.2.48-.46,1-.91,1.44-1.37a.36.36,0,0,1,.55,0Z"/><path d="M15.06,3.5l-.37.36c-.34-.47-.74-.32-1.16-.12a2.08,2.08,0,0,0-.83.7.66.66,0,0,0,0,.9.78.78,0,0,0,1,0,1.21,1.21,0,0,0,.45-.62l-.51.07a.52.52,0,0,1-.25,0,.35.35,0,0,1-.16-.2s.1-.13.16-.15l.87-.16.57-.14a.27.27,0,0,1,.35.15c.1.15,0,.24-.08.31a2.87,2.87,0,0,0-.79.84,1.39,1.39,0,0,1-1.81.42.73.73,0,0,1-.48-.8A2.2,2.2,0,0,1,14.19,3,1,1,0,0,1,15.06,3.5Z"/><path d="M6.56,6.1c-.88,0-1.21-.47-1-1.3A2.27,2.27,0,0,1,7.37,3.11a1.08,1.08,0,0,1,1.09.36,1,1,0,0,1,.12,1.07,7.32,7.32,0,0,1-.61,1,.8.8,0,0,1-.4.27C7.24,5.93,6.9,6,6.56,6.1Zm1-2.48A1.55,1.55,0,0,0,6.15,5c0,.35.09.53.45.58a.8.8,0,0,0,.41,0A2.09,2.09,0,0,0,8.14,4.31a.45.45,0,0,0-.38-.67A.65.65,0,0,0,7.58,3.62Z"/><path d="M10.79,4.88c.15.1.35.21.52.34a1,1,0,0,1,.26.31.32.32,0,0,1-.26.45.14.14,0,0,1-.11-.09,2,2,0,0,0-.9-.83c-.11-.08-.45,0-.52.17s-.26.45-.41.66a.32.32,0,0,1-.6,0,.23.23,0,0,1,0-.18c.2-.3.43-.59.61-.9A6,6,0,0,0,9.78,4c0-.12,0-.26.07-.39s.08-.25.16-.28a2,2,0,0,1,1.52-.2,1.64,1.64,0,0,1,.3.14c.35.22.41.51.1.78S11.17,4.59,10.79,4.88Zm-.7-.42.06,0a2.24,2.24,0,0,0,1.43-.79c.09-.1,0-.17-.08-.18l-.77,0a.32.32,0,0,0-.2.12C10.37,3.93,10.23,4.2,10.09,4.46Z"/><path d="M22,4.07c.26,0,.51-.09.77-.11A.34.34,0,0,1,23,4a.9.9,0,0,1,.17.26,1,1,0,0,1-.24.14c-.34.11-.67.21-1,.3a.43.43,0,0,0-.33.29,4,4,0,0,1-.18.41L22,5.15,22.6,5a.22.22,0,0,1,.28.13c.16.32.13.38-.16.46L21.29,6a.56.56,0,0,1-.53-.14.25.25,0,0,1-.06-.22c.32-.76.64-1.51,1-2.27a.43.43,0,0,1,.38-.26L23.28,3c.16,0,.23,0,.24.21s0,.28-.21.3a5.6,5.6,0,0,1-.81.1C22.16,3.57,22.05,3.76,22,4.07Z"/><path d="M30.1,5.37,31.16,5c.12,0,.27-.08.38.07s.15.41-.15.51L30,6a.54.54,0,0,1-.53-.14.24.24,0,0,1-.05-.23c.29-.73.6-1.46.91-2.18a.56.56,0,0,1,.48-.36c.39,0,.78-.1,1.17-.16.16,0,.23,0,.24.2s0,.29-.2.31-.6.11-.9.12-.34.25-.44.49L31.47,4a.38.38,0,0,1,.24.07c.22.21.19.29-.09.38l-1,.29a.43.43,0,0,0-.36.3A3,3,0,0,1,30.1,5.37Z"/><path d="M4,4.07C4.3,4,4.55,4,4.79,4a.29.29,0,0,1,.35.16c.09.14.08.21-.08.26L4,4.7A.4.4,0,0,0,3.64,5c-.13.31-.28.61-.42.92-.06.13-.15.21-.3.15s-.25-.18-.19-.33c.33-.79.67-1.58,1-2.36A.4.4,0,0,1,4,3.15c.44-.08.88-.13,1.32-.2.15,0,.24,0,.25.2s0,.29-.22.32-.53.09-.79.09S4.09,3.75,4,4.07Z"/><path d="M16.76,3.74l-.74,0c.09-.47.28-.64.73-.65h1.08c.18,0,.22.1.22.23s.08.34-.16.4h0c-.41-.06-.59.2-.73.53s-.32.59-.47.89c0,.07-.06.14-.11.25l.51,0c0,.29-.09.49-.34.52-.49.06-1,.1-1.49.15,0-.14.08-.26.12-.37a.29.29,0,0,1,.34-.22A.28.28,0,0,0,16,5.3c.26-.5.53-1,.8-1.5Z"/><path d="M18.72,4.88a4.46,4.46,0,0,1,1.71-1.8l.08,0c.26.24.24.44-.06.64a1.26,1.26,0,0,1-.26.13,1.07,1.07,0,0,0-.62.48c-.26.41-.51.83-.75,1.25-.07.12-.13.25-.2.39L18,5.74a1.74,1.74,0,0,0,.16-.47c0-.55,0-1.11,0-1.67a.33.33,0,0,1,.08-.24,1.13,1.13,0,0,1,.32-.13,1.4,1.4,0,0,1,.06.28c0,.45,0,.91,0,1.37Z"/><path d="M32.53,6a.35.35,0,0,1-.31-.53,1.09,1.09,0,0,1,.38-.36.35.35,0,0,1,.47.09.34.34,0,0,1,0,.45A.77.77,0,0,1,32.53,6Z"/><path d="M35.34,6.05a.36.36,0,0,1-.27-.57,1.37,1.37,0,0,1,.35-.33.36.36,0,0,1,.48.08.34.34,0,0,1,0,.46A.8.8,0,0,1,35.34,6.05Z"/><path d="M33.92,6.05a.35.35,0,0,1-.34-.44.74.74,0,0,1,.48-.49.35.35,0,0,1,.43.15.33.33,0,0,1,0,.41A.82.82,0,0,1,33.92,6.05Z"/><path d="M31.67,20.51a5.69,5.69,0,0,1,.19-.88.89.89,0,0,1,.63-.57,2.58,2.58,0,0,0,1.11-.58.34.34,0,0,1,.55,0l.2.23a1.87,1.87,0,0,1,2,.28c.66.45.53,1.16.59,1.82a.57.57,0,0,1,.26.8,5.3,5.3,0,0,1-.35.72,1.63,1.63,0,0,1-1.6.79,1.43,1.43,0,0,1-1.25.67,2,2,0,0,1-1.6-.74c0-.36-.43-.48-.53-.8s-.26-.61-.37-.93a1.91,1.91,0,0,1-.05-.54C31.45,20.65,31.51,20.5,31.67,20.51Zm3.92-.25a5.39,5.39,0,0,1-.15.94,1,1,0,0,1-1.42.57l-.29-.2a1,1,0,0,0,.09.87.36.36,0,0,0,.41.23,4.76,4.76,0,0,0,1-.32A1.46,1.46,0,0,0,35.59,20.26Zm1,.39c0-.61,0-1.19-.62-1.52a1.7,1.7,0,0,0-1.39-.21c.11.36.21.42.53.48a.89.89,0,0,1,.49.25,4.12,4.12,0,0,1,.47.79C36.25,20.73,36.31,20.76,36.63,20.65Zm-3.22,1.87a1.66,1.66,0,0,1-.12-1.07c.12-.34.3-.66.47-1-.18,0-.38,0-.59,0a.51.51,0,0,0-.56.55A1.88,1.88,0,0,0,33.41,22.52Zm1.41-1.25a.83.83,0,0,0,.33-.82,1.07,1.07,0,0,0-.74-.87,1.18,1.18,0,0,0-1.16.34l.23,0c.25.07.51.11.75.2C34.86,20.4,35,20.62,34.82,21.27Zm.47,1.58a.57.57,0,0,0,.18,0,1.26,1.26,0,0,0,.9-.39,4.33,4.33,0,0,0,.51-.82.6.6,0,0,0,0-.47c-.1-.18-.34-.13-.52-.11l-.18.06a1,1,0,0,1-.08,1A2.12,2.12,0,0,1,35.29,22.85Zm-3.13-2.06c.12-1.2,1-1.53,2-1.84l-.25-.31a6.39,6.39,0,0,1-.71.45c-.25.12-.51.2-.77.3l-.07,0A1.09,1.09,0,0,0,32.16,20.79Zm2.75,2.33c-.18-.18-.25-.19-.63,0a.85.85,0,0,1-1-.09.45.45,0,0,0-.56,0A1.45,1.45,0,0,0,34.91,23.12Zm-2.09-.59-1-1.53-.06,0a3.65,3.65,0,0,0,.49,1.27C32.35,22.56,32.45,22.6,32.82,22.53ZM34,21.08l.09.06.34-.2v-.09c-.11,0-.24-.11-.3-.07S34.06,21,34,21.08Zm-1.16-1.2-.28.37,0,0,.28-.14Z"/><path d="M25.92,19.41c0-.08,0-.18,0-.28,0-.26.18-.39.44-.33a2.51,2.51,0,0,0,1.19-.07,1.09,1.09,0,0,1,1.17.38,2.67,2.67,0,0,1,.28.41.31.31,0,0,1,.45.21,4.23,4.23,0,0,1,.29,1,1.49,1.49,0,0,1,0,1.08.06.06,0,0,0,0,.06,1.72,1.72,0,0,1-1.43,1.87c-.29,0-.58.11-.82-.12a1.57,1.57,0,0,1-1.69.22,3.78,3.78,0,0,1-.77-.47.53.53,0,0,1-.2-.78c-.24-.53-.68-1-.51-1.63a2.07,2.07,0,0,1,1.13-1.4A2.51,2.51,0,0,1,25.92,19.41Zm-.22,1.87h-.06c0,.15,0,.3.08.45a1.32,1.32,0,0,0,1.18,1.17,2.64,2.64,0,0,0,1-.16c.45-.14.52-.32.4-.78a.66.66,0,0,0-.35-.49,1,1,0,0,1-1.49.66A1.51,1.51,0,0,1,25.7,21.28Zm-.69.93c.35-.11.36-.16.31-.51a4.25,4.25,0,0,1,0-.8.67.67,0,0,1,.34-.55.44.44,0,0,0,.14-.62,1.68,1.68,0,0,0-1.07.93C24.39,21.26,24.68,21.73,25,22.21Zm3.64-.06a1.91,1.91,0,0,0,0-1.65c-.26-.45-.56-.53-1-.22a3.25,3.25,0,0,0-.38.31A1.68,1.68,0,0,1,28.65,22.15Zm-1.23-2.29a1.09,1.09,0,0,0-1.08.25,1.14,1.14,0,0,0-.2,1.19.85.85,0,0,0,.75.48c-.45-.28-.53-.53-.3-1a1.69,1.69,0,0,1,.21-.31C27,20.29,27.22,20.07,27.42,19.86Zm-.17,3.49a2.23,2.23,0,0,1-1.06-.11c-.39-.14-.51-.47-.6-.86a3.13,3.13,0,0,0-.42.24c-.19.14-.2.3,0,.45a2.3,2.3,0,0,0,.62.41,2.44,2.44,0,0,0,.81.17A.8.8,0,0,0,27.25,23.35ZM28.86,20a1.24,1.24,0,0,0-.3-.73.87.87,0,0,0-.89-.3,6.41,6.41,0,0,1-1,.13,2.37,2.37,0,0,1-.43-.05l-.06.41C27.17,19.25,28.1,19.06,28.86,20ZM27.7,23.35a1.39,1.39,0,0,0,1.75-1.17.5.5,0,0,0-.48.34.74.74,0,0,1-.68.51.78.78,0,0,0-.33.09A1.13,1.13,0,0,0,27.7,23.35Zm1.49-1.56c.31-.09.4-.19.38-.45s-.11-.78-.17-1.17a.84.84,0,0,0-.08-.2h-.06Zm-1.83-.46,0-.08c-.06-.11-.08-.28-.26-.22s-.1.15-.14.24Zm.41-1.73.11.23.29,0v0Z"/><path d="M3.71,20a2.64,2.64,0,0,1,0-.28c0-.28.11-.43.38-.43A2.66,2.66,0,0,0,5.22,19a1.17,1.17,0,0,1,1.32.22c.09.09.16.18.25.28a.3.3,0,0,1,.45.07,1.9,1.9,0,0,1,.32.44A4.39,4.39,0,0,1,7.93,21,6.27,6.27,0,0,1,8,22a1.8,1.8,0,0,1-1.51,1.8,2.68,2.68,0,0,1-.5,0,1.89,1.89,0,0,1-2.56.1c-.23-.14-.27-.32-.2-.66-.36-.46-.87-.82-.83-1.48a2.06,2.06,0,0,1,.9-1.65A2.21,2.21,0,0,1,3.71,20Zm2.35,1.62c0,.11,0,.21,0,.3a.82.82,0,0,1-.66.66,1.27,1.27,0,0,1-1.06-.24l-.55-.4,0-.07c.12.24.22.5.36.72a1.21,1.21,0,0,0,1.28.63,2,2,0,0,0,1.1-.55.26.26,0,0,0,.1-.19A.93.93,0,0,0,6.06,21.59ZM3.63,20.28a1.71,1.71,0,0,0-.87,1.16c-.2.65.21,1,.61,1.45.33-.21.32-.2.2-.57a3.27,3.27,0,0,1-.17-.88A.8.8,0,0,1,3.59,21,.54.54,0,0,0,3.63,20.28Zm3.29,1.79L7,22a3.09,3.09,0,0,0,0-.43,1.74,1.74,0,0,0-.59-1.28.46.46,0,0,0-.49-.11,1.4,1.4,0,0,0-.63.64A1.68,1.68,0,0,1,6.92,22.07Zm-1.63-2a1.15,1.15,0,0,0-1.1.59,1.15,1.15,0,0,0,.17,1.17.77.77,0,0,0,.75.23c-.46-.14-.62-.4-.46-.86a4.45,4.45,0,0,1,.64-1.13ZM4,22.94a2.83,2.83,0,0,0-.35.31c-.17.19-.15.34.08.46a5.42,5.42,0,0,0,.74.29,1.32,1.32,0,0,0,1.18-.22c.07-.06.13-.14.2-.21C5.05,23.76,4.36,23.85,4,22.94Zm0-3a12.62,12.62,0,0,1,1.39-.39,1.44,1.44,0,0,1,1.3.43,1,1,0,0,0-1.14-.81A4.34,4.34,0,0,1,4,19.55ZM7.74,22a.47.47,0,0,0-.42.41.77.77,0,0,1-.56.65,1.17,1.17,0,0,0-.32.15,1.77,1.77,0,0,0-.23.32A1.46,1.46,0,0,0,7.74,22Zm-.36-.34c.27-.13.35-.25.29-.49a7.81,7.81,0,0,0-.26-.82c-.07-.17-.16-.33-.25-.5l-.07,0ZM5.5,21.55v-.09c-.08-.09-.14-.26-.3-.16s-.06.18-.09.27ZM5.7,20l.3-.11v0l-.43-.06Z"/><path d="M22,21.74a.55.55,0,0,1-.15.77,2.74,2.74,0,0,1-1.17.61,1.65,1.65,0,0,1-1.32-.33,1.16,1.16,0,0,1-1.1,0,1.88,1.88,0,0,1-1.23-1.58c.13-.31-.11-.59,0-.9s.07-.62.14-.92a2.49,2.49,0,0,1,.24-.56.29.29,0,0,1,.43-.13,1.34,1.34,0,0,1,1-.85.66.66,0,0,1,.28,0,3.31,3.31,0,0,0,1.4.1.31.31,0,0,1,.4.28,1.06,1.06,0,0,1,0,.19,1.15,1.15,0,0,1,0,.16,1.82,1.82,0,0,1,1.5,1.17C22.82,20.54,22.37,21.12,22,21.74ZM19,20.67a1,1,0,0,0-.39.84.3.3,0,0,0,.18.31,4.53,4.53,0,0,0,.81.27A1.19,1.19,0,0,0,21,21.38a5.36,5.36,0,0,0,.23-.78.38.38,0,0,0,0-.15,3.07,3.07,0,0,1-.61.79,1,1,0,0,1-1.6-.48S19,20.71,19,20.67Zm2.13-1.76a.51.51,0,0,0,.19.68.69.69,0,0,1,.26.4,4.92,4.92,0,0,1,0,.94c0,.36,0,.38.32.48.28-.45.6-.89.33-1.46A1.72,1.72,0,0,0,21.09,18.91Zm-1.51.81c-.19-.12-.39-.27-.61-.39a.41.41,0,0,0-.49.08,1.75,1.75,0,0,0-.27,1.91,1.57,1.57,0,0,1,.42-1A11.2,11.2,0,0,1,19.58,19.72ZM19.4,19c.14.13.25.22.34.32a7.37,7.37,0,0,1,.59.79c.18.34.06.58-.27.78L20,21a.77.77,0,0,0,.75-.51,1,1,0,0,0-.21-1.16A1.22,1.22,0,0,0,19.4,19Zm.17,3.51c.08.06.12.13.17.15a3.22,3.22,0,0,0,.61.16,1.63,1.63,0,0,0,1.13-.39c.15-.11.38-.21.35-.43s-.26-.31-.45-.4h-.11C21.08,22.57,20.37,22.59,19.57,22.54Zm1.09-3.86c0-.1,0-.17,0-.25s-.06-.18-.19-.15a2.5,2.5,0,0,1-1.27-.09.79.79,0,0,0-.74.18,1.2,1.2,0,0,0-.42.85C18.74,18.25,19.69,18.45,20.66,18.68ZM19.15,22.6c-.07-.33-.34-.33-.56-.36a.83.83,0,0,1-.71-.55.49.49,0,0,0-.48-.31A1.47,1.47,0,0,0,19.15,22.6ZM17.66,21c0-.27,0-.53,0-.78s-.05-.68-.08-1.07a3.87,3.87,0,0,0-.29,1.49A.45.45,0,0,0,17.66,21Zm1.8-.52c.17.06.32.12.42,0s-.06-.19-.13-.22S19.54,20.34,19.46,20.47ZM18.69,19v0L19,19l.11-.23Z"/><path d="M13.41,22.77a1.53,1.53,0,0,1-1.67.54,1.74,1.74,0,0,1-.5-.17c-.12-.08-.29-.23-.29-.35a.7.7,0,0,0-.33-.52,1.58,1.58,0,0,1,0-2.46,2.14,2.14,0,0,1,.3-.17v0c-.09-.51-.05-.54.45-.67a3.05,3.05,0,0,0,.78-.36,1.06,1.06,0,0,1,1.2.07c.07.05.14.12.22.19a.34.34,0,0,1,.49.09,2.56,2.56,0,0,1,.75,1.58c0,.09.11.16.12.25a1.62,1.62,0,0,1-1,1.88A4,4,0,0,1,13.41,22.77Zm-2.07-1.42a1.59,1.59,0,0,0,.86.9,1.51,1.51,0,0,0,1.54-.63.24.24,0,0,0,0-.12.82.82,0,0,0-.53-.66C13.31,21.88,12.09,22.13,11.34,21.35ZM10.94,20a1.55,1.55,0,0,0-.61,1.13c-.07.55.3.84.67,1.12.25-.19.24-.19.11-.46a4,4,0,0,1-.25-.65.65.65,0,0,1,.11-.58C11.12,20.32,11.11,20.2,10.94,20Zm1.55.22a3.77,3.77,0,0,1,.88.24A3.14,3.14,0,0,1,14,21a1.55,1.55,0,0,0-.67-1.3.38.38,0,0,0-.41,0A1.19,1.19,0,0,0,12.49,20.18Zm-.17-.57a.89.89,0,0,0-.85,1,.77.77,0,0,0,.82.75.61.61,0,0,1-.34-.87A8.24,8.24,0,0,1,12.32,19.61Zm-.79,2.6c-.12.15-.21.24-.28.35a.21.21,0,0,0,.07.31A1.56,1.56,0,0,0,13,22.75a.93.93,0,0,0,.13-.15,2,2,0,0,1-.9.17A.85.85,0,0,1,11.53,22.21Zm2-3a1.49,1.49,0,0,0-.15-.2.8.8,0,0,0-1.07-.16,4.74,4.74,0,0,1-.87.37c-.26.09-.27.08-.16.36A2.12,2.12,0,0,1,13.52,19.21Zm0,3.25A1.25,1.25,0,0,0,14.67,21a.4.4,0,0,0-.27.38A.68.68,0,0,1,14,22a1.41,1.41,0,0,0-.29.18A1,1,0,0,0,13.56,22.46Zm.81-1.78a.34.34,0,0,0,.16-.47c-.06-.16-.14-.32-.21-.48a2.15,2.15,0,0,0-.14-.26L14,19.23l-.06,0Zm-1.68.16v-.12a.78.78,0,0,0-.26,0s0,.12,0,.19Z"/><path d="M29.65,3.46l-.76,2a3.5,3.5,0,0,0-.17.55c0,.15-.12.17-.25.12-.38-.12-.45-.23-.33-.59s.16-.44.23-.66a.61.61,0,0,0,0-.19l-.08,0-.8.93c-.08.1-.13.23-.2.33a.41.41,0,0,1-.5.09c-.16-.08-.15-.22-.12-.36s.1-.56.13-.84c0-.08-.06-.18-.1-.27a.77.77,0,0,0-.19.17l-.68,1.33c0,.07-.11.12-.16.18s-.18-.13-.19-.2a.89.89,0,0,1,0-.49c.36-.65.74-1.28,1.12-1.91a.56.56,0,0,1,.69-.13.42.42,0,0,1,0,.35,2.48,2.48,0,0,0,0,1.12,1.8,1.8,0,0,1,.19-.2L29,3.41a.37.37,0,0,1,.55,0Z"/><path d="M15.25,3.7l-.36.35c-.34-.46-.75-.31-1.16-.12a2.19,2.19,0,0,0-.83.71.66.66,0,0,0,0,.9.78.78,0,0,0,1,0A1.2,1.2,0,0,0,14.38,5C14.19,5,14,5,13.87,5a.42.42,0,0,1-.25,0,.35.35,0,0,1-.16-.2s.09-.14.16-.15c.29-.07.58-.1.87-.16l.57-.15a.28.28,0,0,1,.35.16.2.2,0,0,1-.08.31,3,3,0,0,0-.8.84,1.39,1.39,0,0,1-1.81.42.74.74,0,0,1-.47-.8,2.2,2.2,0,0,1,2.13-2.09A.93.93,0,0,1,15.25,3.7Z"/><path d="M6.76,6.29c-.88,0-1.22-.46-1-1.29A2.26,2.26,0,0,1,7.57,3.31a1.06,1.06,0,0,1,1.09.36.94.94,0,0,1,.11,1.07,6.46,6.46,0,0,1-.61,1A.79.79,0,0,1,7.77,6C7.44,6.13,7.1,6.21,6.76,6.29Zm1-2.47A1.55,1.55,0,0,0,6.35,5.14c0,.36.09.53.45.58a.72.72,0,0,0,.41,0A2.16,2.16,0,0,0,8.34,4.51.45.45,0,0,0,8,3.84.65.65,0,0,0,7.78,3.82Z"/><path d="M11,5.08c.15.1.35.21.52.34a1,1,0,0,1,.26.31.32.32,0,0,1-.26.45.14.14,0,0,1-.11-.09,2.09,2.09,0,0,0-.9-.84.55.55,0,0,0-.52.17c-.14.23-.26.46-.41.67A.33.33,0,0,1,9,6a.22.22,0,0,1,0-.18c.2-.31.43-.59.61-.91a4.83,4.83,0,0,0,.37-.8c0-.12,0-.26.08-.39s.08-.25.16-.29a2.06,2.06,0,0,1,1.52-.19,1.64,1.64,0,0,1,.3.14c.35.22.4.5.1.78S11.36,4.79,11,5.08Zm-.71-.43.07.06a2.23,2.23,0,0,0,1.43-.8c.09-.09,0-.17-.08-.17-.26,0-.52,0-.77,0a.32.32,0,0,0-.2.12C10.57,4.13,10.43,4.39,10.28,4.65Z"/><path d="M22.19,4.26,23,4.15a.35.35,0,0,1,.23,0c.08.06.11.17.17.26a1.49,1.49,0,0,1-.24.14c-.34.11-.67.21-1,.3a.41.41,0,0,0-.33.29,4,4,0,0,1-.18.41l.62-.24.57-.16a.23.23,0,0,1,.28.13c.16.32.12.38-.16.46l-1.43.44A.56.56,0,0,1,21,6.08a.25.25,0,0,1-.06-.22c.32-.76.64-1.52,1-2.27a.46.46,0,0,1,.37-.27l1.24-.17c.16,0,.23.05.24.21s0,.28-.21.3a7.46,7.46,0,0,1-.81.1C22.36,3.77,22.25,4,22.19,4.26Z"/><path d="M30.3,5.57l1.06-.36c.12,0,.27-.09.38.07s.15.41-.16.5l-1.41.44a.53.53,0,0,1-.52-.14.29.29,0,0,1-.06-.24c.3-.73.61-1.45.92-2.17A.54.54,0,0,1,31,3.31c.39,0,.78-.1,1.17-.16.16,0,.23,0,.24.2s0,.29-.2.31-.6.11-.9.12-.34.25-.44.49l.81-.12a.33.33,0,0,1,.24.07c.22.21.19.29-.09.37s-.66.21-1,.29a.45.45,0,0,0-.35.31A3.8,3.8,0,0,1,30.3,5.57Z"/><path d="M4.23,4.27c.27,0,.52-.07.76-.12a.3.3,0,0,1,.35.16c.09.14.08.21-.08.26l-1.12.32a.41.41,0,0,0-.3.26c-.13.31-.28.61-.43.92-.06.13-.14.21-.29.15S2.87,6,2.93,5.89c.33-.79.67-1.58,1-2.36a.4.4,0,0,1,.24-.18c.44-.08.88-.13,1.31-.2.16,0,.25,0,.26.2s0,.29-.22.31-.53.09-.8.1S4.29,4,4.23,4.27Z"/><path d="M17,3.94l-.73,0c.09-.47.28-.64.73-.65s.72,0,1.07,0c.19,0,.23.1.23.23s.08.34-.16.4h0c-.41-.06-.59.2-.74.52s-.31.6-.46.9c0,.07-.06.14-.11.24l.51,0c0,.29-.09.48-.34.52-.49.06-1,.09-1.5.15l.13-.37a.29.29,0,0,1,.34-.22.27.27,0,0,0,.31-.16L17,4Z"/><path d="M18.92,5.08a4.49,4.49,0,0,1,1.71-1.81l.08.06c.26.24.24.43-.06.64a1.26,1.26,0,0,1-.26.13,1.09,1.09,0,0,0-.63.48c-.25.41-.5.83-.74,1.25-.07.12-.13.25-.2.39l-.59-.28a1.74,1.74,0,0,0,.16-.47c0-.56,0-1.11,0-1.67a.32.32,0,0,1,.08-.24,1,1,0,0,1,.32-.13,1.27,1.27,0,0,1,.06.28V5.07Z"/><path d="M32.72,6.24a.35.35,0,0,1-.3-.54,1.41,1.41,0,0,1,.37-.36.37.37,0,0,1,.48.1.35.35,0,0,1,0,.45A.79.79,0,0,1,32.72,6.24Z"/><path d="M35.54,6.24a.35.35,0,0,1-.27-.56,1.37,1.37,0,0,1,.35-.33.36.36,0,0,1,.48.08.35.35,0,0,1,0,.46A.84.84,0,0,1,35.54,6.24Z"/><path d="M34.12,6.24a.34.34,0,0,1-.34-.43.74.74,0,0,1,.48-.49.33.33,0,0,1,.42.15.32.32,0,0,1,0,.41A.77.77,0,0,1,34.12,6.24Z"/></g><g class="cls-3"><path d="M31.33,20.17a5.69,5.69,0,0,1,.19-.88.89.89,0,0,1,.63-.57,2.5,2.5,0,0,0,1.11-.59.34.34,0,0,1,.55,0l.2.23a1.89,1.89,0,0,1,2,.27c.66.45.53,1.17.59,1.83a.57.57,0,0,1,.26.8,5.3,5.3,0,0,1-.35.72,1.63,1.63,0,0,1-1.6.79,1.43,1.43,0,0,1-1.25.67,2,2,0,0,1-1.6-.74c0-.36-.43-.48-.53-.81s-.26-.6-.37-.92a1.91,1.91,0,0,1-.05-.54C31.11,20.31,31.17,20.16,31.33,20.17Zm3.92-.25a5.39,5.39,0,0,1-.15.94,1,1,0,0,1-1.42.57l-.29-.2a1,1,0,0,0,.09.87.36.36,0,0,0,.41.23,4.76,4.76,0,0,0,1-.32A1.46,1.46,0,0,0,35.25,19.92Zm1,.38c0-.6,0-1.18-.62-1.51a1.7,1.7,0,0,0-1.39-.21c.11.36.21.42.53.48a.83.83,0,0,1,.49.25,4.12,4.12,0,0,1,.47.79C35.91,20.39,36,20.42,36.29,20.3Zm-3.22,1.88a1.74,1.74,0,0,1-.13-1.07c.13-.34.31-.66.48-1-.18,0-.38,0-.59,0a.51.51,0,0,0-.56.55A1.88,1.88,0,0,0,33.07,22.18Zm1.41-1.25a.84.84,0,0,0,.33-.82,1.07,1.07,0,0,0-.74-.87,1.18,1.18,0,0,0-1.16.34l.23.05c.25.07.51.11.75.2C34.52,20.06,34.64,20.28,34.48,20.93ZM35,22.51a.57.57,0,0,0,.18,0,1.26,1.26,0,0,0,.9-.39,4.33,4.33,0,0,0,.51-.82.6.6,0,0,0,0-.47c-.1-.18-.34-.13-.52-.11l-.19.06a.94.94,0,0,1-.07,1A2.12,2.12,0,0,1,35,22.51Zm-3.13-2.06c.12-1.2,1-1.53,2-1.84l-.25-.31a6.39,6.39,0,0,1-.71.45c-.25.12-.51.2-.77.3l-.07,0A1.09,1.09,0,0,0,31.82,20.45Zm2.75,2.33c-.18-.18-.25-.19-.63,0a.85.85,0,0,1-.95-.09.45.45,0,0,0-.56,0A1.45,1.45,0,0,0,34.57,22.78Zm-2.09-.59-1-1.53-.06,0A3.65,3.65,0,0,0,31.87,22C32,22.22,32.11,22.26,32.48,22.19Zm1.2-1.45.09.06.34-.2v-.09c-.11,0-.24-.11-.3-.07S33.72,20.63,33.68,20.74Zm-1.16-1.2-.28.37,0,0,.28-.14Z"/><path d="M25.58,19.07c0-.08,0-.18.05-.28,0-.27.18-.39.44-.33a2.51,2.51,0,0,0,1.19-.07,1.09,1.09,0,0,1,1.17.38,2.67,2.67,0,0,1,.28.41c.22-.11.37,0,.45.21a4.23,4.23,0,0,1,.29,1,1.49,1.49,0,0,1,0,1.08.06.06,0,0,0,0,.06A1.72,1.72,0,0,1,28,23.36c-.29,0-.58.11-.82-.12a1.57,1.57,0,0,1-1.69.22,3.78,3.78,0,0,1-.77-.47.53.53,0,0,1-.2-.78c-.24-.53-.68-1-.51-1.63a2.07,2.07,0,0,1,1.13-1.4A2.51,2.51,0,0,1,25.58,19.07Zm-.22,1.87H25.3c0,.15,0,.3.08.45a1.32,1.32,0,0,0,1.18,1.17,2.64,2.64,0,0,0,1-.16c.45-.14.52-.32.4-.78a.66.66,0,0,0-.35-.49,1,1,0,0,1-1.49.66A1.51,1.51,0,0,1,25.36,20.94Zm-.69.93c.35-.11.36-.16.31-.51a4.25,4.25,0,0,1,0-.8.67.67,0,0,1,.34-.55.44.44,0,0,0,.14-.62,1.66,1.66,0,0,0-1.07.93C24.05,20.92,24.34,21.39,24.67,21.87Zm3.64-.06a1.91,1.91,0,0,0,0-1.65c-.26-.45-.56-.53-1-.22a3.25,3.25,0,0,0-.38.31A1.68,1.68,0,0,1,28.31,21.81Zm-1.23-2.29a1.09,1.09,0,0,0-1.08.25A1.14,1.14,0,0,0,25.8,21a.87.87,0,0,0,.75.48c-.45-.28-.53-.53-.3-1a1.69,1.69,0,0,1,.21-.31C26.66,20,26.88,19.73,27.08,19.52ZM26.91,23a2.23,2.23,0,0,1-1.06-.11c-.39-.14-.51-.47-.6-.86a3.13,3.13,0,0,0-.42.24c-.19.14-.2.3,0,.45a2.42,2.42,0,0,0,.61.41,2.55,2.55,0,0,0,.82.17A.8.8,0,0,0,26.91,23Zm1.61-3.33a1.24,1.24,0,0,0-.3-.73.87.87,0,0,0-.89-.3,6.41,6.41,0,0,1-1,.13,2.37,2.37,0,0,1-.43-.05l-.06.41C26.83,18.91,27.76,18.72,28.52,19.68ZM27.36,23a1.39,1.39,0,0,0,1.75-1.17.5.5,0,0,0-.48.34.76.76,0,0,1-.68.51.78.78,0,0,0-.33.09A1.13,1.13,0,0,0,27.36,23Zm1.49-1.56c.31-.09.4-.19.38-.45s-.11-.78-.17-1.17a.84.84,0,0,0-.08-.2h-.06ZM27,21l0-.08c-.06-.11-.08-.28-.26-.22s-.1.15-.15.24Zm.41-1.73.11.23.29,0v0Z"/><path d="M3.37,19.63a2.64,2.64,0,0,1,0-.28c0-.28.11-.43.38-.43a2.66,2.66,0,0,0,1.15-.31,1.17,1.17,0,0,1,1.32.22c.09.09.16.18.25.28a.3.3,0,0,1,.45.07,1.9,1.9,0,0,1,.32.44,4.39,4.39,0,0,1,.37,1.07,6.27,6.27,0,0,1,.11,1,1.8,1.8,0,0,1-1.51,1.8,2.68,2.68,0,0,1-.5,0,1.89,1.89,0,0,1-2.56.1c-.23-.14-.27-.32-.2-.66-.36-.46-.87-.82-.83-1.48A2.06,2.06,0,0,1,3,19.77,2.21,2.21,0,0,1,3.37,19.63Zm2.35,1.62c0,.11,0,.21,0,.3a.82.82,0,0,1-.66.66A1.27,1.27,0,0,1,4,22l-.55-.41,0-.06c.12.24.22.5.36.72a1.21,1.21,0,0,0,1.28.63,2,2,0,0,0,1.1-.55.26.26,0,0,0,.1-.19A.93.93,0,0,0,5.72,21.25ZM3.29,19.94a1.71,1.71,0,0,0-.87,1.16c-.2.65.21,1,.61,1.45.33-.21.32-.2.2-.57a3.27,3.27,0,0,1-.17-.88.8.8,0,0,1,.19-.47A.54.54,0,0,0,3.29,19.94Zm3.29,1.79.07,0a3.09,3.09,0,0,0,0-.43A1.74,1.74,0,0,0,6.05,20a.46.46,0,0,0-.49-.11,1.4,1.4,0,0,0-.63.64A1.68,1.68,0,0,1,6.58,21.73ZM5,19.74a1.15,1.15,0,0,0-1.1.59A1.15,1.15,0,0,0,4,21.5a.76.76,0,0,0,.74.23c-.46-.14-.61-.4-.45-.86A4.45,4.45,0,0,1,5,19.74ZM3.63,22.6a2.83,2.83,0,0,0-.35.31c-.17.19-.15.34.08.46a5.42,5.42,0,0,0,.74.29,1.32,1.32,0,0,0,1.18-.22c.07-.06.13-.14.2-.21C4.71,23.42,4,23.51,3.63,22.6Zm0-3A12.62,12.62,0,0,1,5,19.18a1.44,1.44,0,0,1,1.3.43A1,1,0,0,0,5.2,18.8a4.34,4.34,0,0,1-1.55.41ZM7.4,21.63A.47.47,0,0,0,7,22a.77.77,0,0,1-.56.65,1.17,1.17,0,0,0-.32.15,1.77,1.77,0,0,0-.23.32A1.46,1.46,0,0,0,7.4,21.63ZM7,21.29c.27-.13.35-.25.29-.49A7.81,7.81,0,0,0,7.07,20c-.07-.17-.16-.33-.25-.5l-.07,0Zm-1.88-.08v-.09C5.09,21,5,20.86,4.87,21s-.06.18-.09.27Zm.2-1.57.3-.11v0l-.43-.06Z"/><path d="M21.69,21.4a.55.55,0,0,1-.15.77,2.74,2.74,0,0,1-1.17.61,1.65,1.65,0,0,1-1.32-.33,1.16,1.16,0,0,1-1.1,0,1.88,1.88,0,0,1-1.23-1.58c.13-.31-.11-.59,0-.9s.07-.62.14-.92a2.49,2.49,0,0,1,.24-.56.29.29,0,0,1,.43-.13,1.34,1.34,0,0,1,1-.85.66.66,0,0,1,.28,0,3.31,3.31,0,0,0,1.4.1.31.31,0,0,1,.4.28,1.16,1.16,0,0,1,0,.18,1.49,1.49,0,0,1,0,.17,1.82,1.82,0,0,1,1.5,1.17C22.48,20.2,22,20.78,21.69,21.4Zm-3.07-1.07a1,1,0,0,0-.39.84.3.3,0,0,0,.18.31,4.53,4.53,0,0,0,.81.27A1.19,1.19,0,0,0,20.64,21a5.36,5.36,0,0,0,.23-.78.38.38,0,0,0,0-.15,3.07,3.07,0,0,1-.61.79,1,1,0,0,1-1.6-.48S18.64,20.37,18.62,20.33Zm2.13-1.76a.51.51,0,0,0,.19.68.69.69,0,0,1,.26.4,4.92,4.92,0,0,1,0,.94c0,.36,0,.38.32.48.28-.45.6-.89.33-1.46A1.72,1.72,0,0,0,20.75,18.57Zm-1.51.81c-.19-.12-.39-.27-.61-.39a.41.41,0,0,0-.49.08A1.75,1.75,0,0,0,17.87,21a1.57,1.57,0,0,1,.42-1A11.2,11.2,0,0,1,19.24,19.38Zm-.18-.69c.14.13.25.22.34.32a7.37,7.37,0,0,1,.59.79c.18.34.06.58-.27.78l-.08.05a.77.77,0,0,0,.75-.51A1,1,0,0,0,20.18,19,1.22,1.22,0,0,0,19.06,18.69Zm.17,3.51c.08.06.12.13.17.15a3.22,3.22,0,0,0,.61.16,1.63,1.63,0,0,0,1.13-.39c.15-.11.38-.21.35-.43s-.26-.31-.45-.4h-.11C20.74,22.23,20,22.25,19.23,22.2Zm1.09-3.86c0-.1,0-.17,0-.25s-.06-.18-.19-.15a2.5,2.5,0,0,1-1.27-.09.79.79,0,0,0-.74.18,1.2,1.2,0,0,0-.42.85C18.4,17.91,19.35,18.11,20.32,18.34Zm-1.51,3.92c-.07-.33-.34-.33-.56-.36a.83.83,0,0,1-.71-.55.49.49,0,0,0-.48-.31A1.47,1.47,0,0,0,18.81,22.26Zm-1.49-1.61c0-.27,0-.53,0-.78s-.05-.68-.08-1.07A3.87,3.87,0,0,0,17,20.29.45.45,0,0,0,17.32,20.65Zm1.8-.52c.17.06.31.12.42,0s-.06-.2-.13-.22S19.2,20,19.12,20.13Zm-.77-1.52v0l.29,0,.11-.22Z"/><path d="M13.07,22.43A1.53,1.53,0,0,1,11.4,23a1.74,1.74,0,0,1-.5-.17c-.12-.08-.29-.23-.29-.35a.7.7,0,0,0-.33-.52,1.58,1.58,0,0,1,0-2.46,2.14,2.14,0,0,1,.3-.17v0c-.09-.51,0-.54.45-.67a3.05,3.05,0,0,0,.78-.36,1.06,1.06,0,0,1,1.2.07c.07.05.14.12.22.19a.34.34,0,0,1,.49.09,2.56,2.56,0,0,1,.75,1.58c0,.09.11.16.12.25a1.63,1.63,0,0,1-1,1.88A3.6,3.6,0,0,1,13.07,22.43ZM11,21a1.59,1.59,0,0,0,.86.9,1.51,1.51,0,0,0,1.54-.63.24.24,0,0,0,0-.12.82.82,0,0,0-.53-.66C13,21.54,11.75,21.79,11,21Zm-.4-1.39A1.55,1.55,0,0,0,10,20.75c-.07.55.3.84.67,1.12.25-.19.24-.19.11-.46a4,4,0,0,1-.25-.65.65.65,0,0,1,.11-.58C10.78,20,10.77,19.86,10.6,19.62Zm1.55.22a3.77,3.77,0,0,1,.88.24,3.14,3.14,0,0,1,.64.56,1.55,1.55,0,0,0-.67-1.3.38.38,0,0,0-.41,0A1.19,1.19,0,0,0,12.15,19.84ZM12,19.27a.89.89,0,0,0-.85,1A.77.77,0,0,0,12,21a.61.61,0,0,1-.34-.87A8.24,8.24,0,0,1,12,19.27Zm-.79,2.6c-.12.15-.21.24-.28.35a.21.21,0,0,0,.07.31,1.56,1.56,0,0,0,1.72-.12.93.93,0,0,0,.13-.15,2,2,0,0,1-.9.17A.87.87,0,0,1,11.19,21.87Zm2-3a1.49,1.49,0,0,0-.15-.2A.8.8,0,0,0,12,18.51a4.74,4.74,0,0,1-.87.37c-.26.09-.27.08-.16.36A2.12,2.12,0,0,1,13.18,18.87Zm0,3.25a1.25,1.25,0,0,0,1.11-1.46.4.4,0,0,0-.27.38.68.68,0,0,1-.4.62,1.41,1.41,0,0,0-.29.18A1,1,0,0,0,13.22,22.12ZM14,20.34a.34.34,0,0,0,.16-.47c-.06-.16-.14-.32-.21-.48a2.15,2.15,0,0,0-.14-.26l-.17-.24-.06,0Zm-1.68.16v-.12a.78.78,0,0,0-.26,0s0,.12,0,.19Z"/><path d="M29.31,3.12l-.76,2a3.5,3.5,0,0,0-.17.55c0,.15-.12.17-.25.12-.38-.12-.45-.23-.33-.59s.16-.44.23-.66a.61.61,0,0,0,0-.19l-.08,0-.8.93a3.62,3.62,0,0,0-.2.33.41.41,0,0,1-.5.09c-.16-.08-.15-.22-.12-.37s.1-.55.13-.83c0-.08-.06-.18-.1-.27a1,1,0,0,0-.19.16c-.23.45-.45.9-.68,1.34,0,.07-.11.12-.16.18s-.18-.13-.19-.2a.89.89,0,0,1,0-.49c.36-.65.74-1.28,1.12-1.91A.56.56,0,0,1,27,3.17a.42.42,0,0,1,0,.35,2.48,2.48,0,0,0,0,1.12l.19-.21,1.44-1.36a.37.37,0,0,1,.55,0Z"/><path d="M14.91,3.36l-.36.35c-.34-.46-.75-.31-1.16-.12a2.19,2.19,0,0,0-.83.71.66.66,0,0,0,0,.9.78.78,0,0,0,1,0A1.2,1.2,0,0,0,14,4.62c-.2,0-.35.06-.51.07a.42.42,0,0,1-.25,0,.35.35,0,0,1-.16-.2s.09-.14.16-.15c.29-.07.58-.11.87-.16L14.72,4a.29.29,0,0,1,.35.16.2.2,0,0,1-.08.31,3,3,0,0,0-.8.84,1.39,1.39,0,0,1-1.81.42.74.74,0,0,1-.47-.8A2.2,2.2,0,0,1,14,2.85.93.93,0,0,1,14.91,3.36Z"/><path d="M6.42,6c-.88,0-1.22-.46-1-1.29A2.26,2.26,0,0,1,7.23,3a1.06,1.06,0,0,1,1.09.36A.94.94,0,0,1,8.43,4.4a6.46,6.46,0,0,1-.61,1,.79.79,0,0,1-.39.27C7.1,5.79,6.76,5.87,6.42,6Zm1-2.47A1.55,1.55,0,0,0,6,4.8c0,.36.09.53.45.58a.81.81,0,0,0,.41,0A2.16,2.16,0,0,0,8,4.17a.45.45,0,0,0-.38-.67A.65.65,0,0,0,7.44,3.48Z"/><path d="M10.65,4.74c.15.1.35.21.52.34a1,1,0,0,1,.26.31.32.32,0,0,1-.26.45.18.18,0,0,1-.12-.09,2,2,0,0,0-.89-.84.55.55,0,0,0-.52.17c-.14.23-.26.46-.41.67a.33.33,0,0,1-.6,0,.22.22,0,0,1,0-.18c.2-.31.43-.59.61-.91a4.83,4.83,0,0,0,.37-.8c0-.12,0-.27.08-.39s.08-.25.16-.29a2,2,0,0,1,1.51-.19,1.46,1.46,0,0,1,.31.14c.35.22.4.5.1.78S11,4.45,10.65,4.74Zm-.71-.43.07.06a2.23,2.23,0,0,0,1.43-.8c.09-.09,0-.17-.08-.17-.26,0-.52,0-.77,0a.32.32,0,0,0-.2.12C10.23,3.79,10.09,4.05,9.94,4.31Z"/><path d="M21.85,3.92l.78-.11a.35.35,0,0,1,.23,0c.08.06.11.17.17.26a1.49,1.49,0,0,1-.24.14c-.34.11-.67.21-1,.3a.4.4,0,0,0-.32.29,4,4,0,0,1-.18.41L21.89,5l.57-.16a.23.23,0,0,1,.28.13c.15.32.12.38-.16.46l-1.43.44a.56.56,0,0,1-.53-.14.25.25,0,0,1-.06-.22c.32-.76.64-1.52,1-2.27A.46.46,0,0,1,21.9,3l1.24-.17c.16,0,.23,0,.24.21s0,.28-.21.3a7.46,7.46,0,0,1-.81.1C22,3.43,21.91,3.62,21.85,3.92Z"/><path d="M30,5.23,31,4.87c.12,0,.27-.09.38.07s.15.41-.16.5l-1.41.44a.58.58,0,0,1-.52-.14.29.29,0,0,1-.06-.24c.3-.73.61-1.45.92-2.17A.54.54,0,0,1,30.65,3c.39,0,.78-.1,1.17-.16.16,0,.23,0,.24.2s0,.29-.2.31-.6.11-.9.12-.34.25-.44.49l.81-.12a.33.33,0,0,1,.24.07c.22.21.19.29-.09.37s-.66.21-1,.29a.45.45,0,0,0-.35.31A3.8,3.8,0,0,1,30,5.23Z"/><path d="M3.89,3.93c.27,0,.52-.07.76-.12A.3.3,0,0,1,5,4c.09.14.08.21-.08.26L3.8,4.55a.41.41,0,0,0-.3.26c-.13.31-.28.61-.43.92-.06.13-.14.21-.29.15s-.25-.18-.19-.33c.33-.79.67-1.58,1-2.36A.4.4,0,0,1,3.85,3c.44-.08.88-.13,1.31-.2.16,0,.25,0,.25.2s0,.29-.21.31-.53.09-.8.1S4,3.61,3.89,3.93Z"/><path d="M16.61,3.6l-.73,0c.09-.47.28-.64.73-.65s.72,0,1.07,0c.19,0,.23.1.23.23s.08.34-.16.4h0c-.41-.06-.59.2-.74.52s-.31.6-.46.9c0,.07-.06.14-.11.24l.51,0c0,.29-.09.48-.34.51-.49.07-1,.1-1.5.16l.13-.37a.29.29,0,0,1,.34-.22.28.28,0,0,0,.31-.16l.81-1.5Z"/><path d="M18.58,4.74a4.49,4.49,0,0,1,1.71-1.81l.08.06c.26.24.24.43-.06.64a1.26,1.26,0,0,1-.26.13,1.09,1.09,0,0,0-.63.48c-.25.41-.5.83-.74,1.25-.07.12-.13.25-.2.39l-.59-.28a1.74,1.74,0,0,0,.16-.47c0-.56,0-1.11,0-1.67a.32.32,0,0,1,.08-.24,1,1,0,0,1,.32-.13,1.27,1.27,0,0,1,.06.28V4.73Z"/><path d="M32.38,5.9a.35.35,0,0,1-.3-.54A1.41,1.41,0,0,1,32.45,5a.37.37,0,0,1,.48.1.35.35,0,0,1,0,.45A.83.83,0,0,1,32.38,5.9Z"/><path d="M35.2,5.9a.35.35,0,0,1-.27-.56A1.37,1.37,0,0,1,35.28,5a.36.36,0,0,1,.48.08.34.34,0,0,1,0,.46A.8.8,0,0,1,35.2,5.9Z"/><path d="M33.78,5.9a.34.34,0,0,1-.34-.43A.74.74,0,0,1,33.92,5a.33.33,0,0,1,.42.15.32.32,0,0,1,0,.41A.77.77,0,0,1,33.78,5.9Z"/></g><path class="cls-4" d="M31.53,20.37a5.69,5.69,0,0,1,.19-.88.89.89,0,0,1,.63-.57,2.6,2.6,0,0,0,1.11-.59c.19-.18.36-.15.55,0l.2.23a1.87,1.87,0,0,1,2,.27c.67.45.54,1.17.6,1.83a.56.56,0,0,1,.26.79,4.36,4.36,0,0,1-.35.72,1.62,1.62,0,0,1-1.61.8,1.41,1.41,0,0,1-1.24.67,2,2,0,0,1-1.6-.74c0-.36-.43-.48-.53-.81s-.26-.6-.37-.92a1.63,1.63,0,0,1-.05-.54C31.31,20.51,31.37,20.36,31.53,20.37Zm3.92-.25a4.63,4.63,0,0,1-.16.94,1,1,0,0,1-1.42.57l-.28-.21a1,1,0,0,0,.08.88.34.34,0,0,0,.41.22,4.31,4.31,0,0,0,1-.31A1.46,1.46,0,0,0,35.45,20.12Zm1,.38c0-.6,0-1.18-.62-1.52a1.74,1.74,0,0,0-1.39-.2.54.54,0,0,0,.53.48.88.88,0,0,1,.49.24,4.54,4.54,0,0,1,.47.8C36.11,20.58,36.17,20.62,36.49,20.5Zm-3.22,1.88a1.67,1.67,0,0,1-.13-1.07c.13-.34.31-.66.48-1a5.47,5.47,0,0,0-.59,0,.5.5,0,0,0-.56.55A1.89,1.89,0,0,0,33.27,22.38Zm1.41-1.25a.84.84,0,0,0,.33-.82,1.07,1.07,0,0,0-.74-.87,1.17,1.17,0,0,0-1.16.34l.23,0c.25.07.51.11.75.2C34.72,20.25,34.83,20.48,34.68,21.13Zm.47,1.58a.55.55,0,0,0,.17,0,1.27,1.27,0,0,0,.91-.39,4.33,4.33,0,0,0,.51-.82.6.6,0,0,0,0-.47c-.1-.18-.34-.13-.53-.11l-.18.05A1,1,0,0,1,36,22,2.12,2.12,0,0,1,35.15,22.71ZM32,20.65c.12-1.2,1-1.53,2-1.85l-.25-.3A8.28,8.28,0,0,1,33,19c-.25.12-.52.2-.77.3a.1.1,0,0,0-.07,0A1.09,1.09,0,0,0,32,20.65ZM34.77,23c-.18-.18-.25-.2-.63,0a.85.85,0,0,1-1-.09.45.45,0,0,0-.56,0A1.45,1.45,0,0,0,34.77,23Zm-2.09-.59-1.05-1.54-.05,0a3.65,3.65,0,0,0,.49,1.27C32.21,22.42,32.31,22.45,32.68,22.39Zm1.2-1.45L34,21l.34-.2v-.09c-.1,0-.24-.11-.29-.07S33.92,20.83,33.88,20.94Zm-1.17-1.21-.27.38,0,0,.28-.14Z"/><path class="cls-4" d="M25.78,19.26c0-.07,0-.17,0-.28.05-.26.19-.38.45-.32a2.41,2.41,0,0,0,1.19-.08,1.09,1.09,0,0,1,1.17.38,3.4,3.4,0,0,1,.28.42c.22-.11.37,0,.45.21a4.62,4.62,0,0,1,.29,1,1.55,1.55,0,0,1,0,1.08.11.11,0,0,0,0,.05,1.71,1.71,0,0,1-1.42,1.88c-.29,0-.58.11-.83-.12a1.58,1.58,0,0,1-1.69.22,4.07,4.07,0,0,1-.77-.47.53.53,0,0,1-.19-.78c-.24-.54-.68-1-.52-1.63a2.06,2.06,0,0,1,1.14-1.4A3.54,3.54,0,0,1,25.78,19.26Zm-.22,1.88H25.5c0,.15,0,.31.08.46a1.32,1.32,0,0,0,1.18,1.17,2.64,2.64,0,0,0,.95-.16c.45-.14.52-.32.4-.79a.66.66,0,0,0-.36-.49,1,1,0,0,1-1.48.66A1.49,1.49,0,0,1,25.56,21.14Zm-.7.93c.35-.12.36-.16.32-.51a4.25,4.25,0,0,1,0-.8.67.67,0,0,1,.34-.55.46.46,0,0,0,.14-.63,1.7,1.7,0,0,0-1.07.94C24.25,21.12,24.54,21.59,24.86,22.07ZM28.51,22a1.93,1.93,0,0,0,0-1.66.59.59,0,0,0-1-.22c-.12.09-.23.2-.37.32A1.68,1.68,0,0,1,28.51,22Zm-1.23-2.3A1.1,1.1,0,0,0,26.2,20a1.12,1.12,0,0,0-.2,1.18.84.84,0,0,0,.75.49c-.45-.28-.54-.54-.31-1a1.73,1.73,0,0,1,.22-.31Zm-.17,3.49a2.11,2.11,0,0,1-1.06-.1,1.07,1.07,0,0,1-.61-.86,3,3,0,0,0-.41.24c-.19.14-.2.3,0,.45a2.38,2.38,0,0,0,.61.4,2.32,2.32,0,0,0,.81.18A.79.79,0,0,0,27.11,23.2Zm1.6-3.32a1.21,1.21,0,0,0-.29-.73.85.85,0,0,0-.89-.3,6.41,6.41,0,0,1-1,.13,2.18,2.18,0,0,1-.43-.05l-.06.41C27,19.11,28,18.92,28.71,19.88Zm-1.16,3.33A1.4,1.4,0,0,0,29.31,22a.49.49,0,0,0-.48.34.76.76,0,0,1-.68.51.94.94,0,0,0-.33.08A2,2,0,0,0,27.55,23.21Zm1.5-1.56c.3-.1.4-.19.38-.45s-.11-.78-.17-1.17a1.67,1.67,0,0,0-.08-.2h-.06Zm-1.83-.46,0-.08c0-.11-.07-.28-.25-.23s-.1.16-.15.25Zm.41-1.73.11.22.29,0v0Z"/><path class="cls-4" d="M3.57,19.83a2.64,2.64,0,0,1,0-.29c0-.27.11-.42.38-.42a2.74,2.74,0,0,0,1.15-.31A1.16,1.16,0,0,1,6.4,19a3.53,3.53,0,0,1,.25.28c.17-.14.32-.07.45.07a1.71,1.71,0,0,1,.32.44,4.39,4.39,0,0,1,.37,1.07,6.27,6.27,0,0,1,.11,1,1.81,1.81,0,0,1-1.52,1.8,2.65,2.65,0,0,1-.49,0,1.89,1.89,0,0,1-2.56.11c-.23-.14-.27-.32-.21-.66-.35-.46-.86-.82-.82-1.48A2,2,0,0,1,3.2,20,1.59,1.59,0,0,1,3.57,19.83Zm2.35,1.62c0,.11,0,.2,0,.3a.82.82,0,0,1-.66.66,1.27,1.27,0,0,1-1.06-.24l-.55-.41,0-.06c.12.24.22.5.36.72a1.21,1.21,0,0,0,1.28.63,2,2,0,0,0,1.1-.55c0-.05.11-.13.1-.19A.93.93,0,0,0,5.92,21.45ZM3.48,20.14a1.7,1.7,0,0,0-.86,1.15c-.2.66.21,1.06.61,1.46.33-.21.31-.2.2-.57a3.27,3.27,0,0,1-.17-.88.72.72,0,0,1,.19-.47A.53.53,0,0,0,3.48,20.14Zm3.3,1.79.07,0a3.09,3.09,0,0,0,0-.43,1.71,1.71,0,0,0-.6-1.28.43.43,0,0,0-.48-.11,1.35,1.35,0,0,0-.63.64A1.68,1.68,0,0,1,6.78,21.93Zm-1.63-2a1.15,1.15,0,0,0-1.1.59,1.15,1.15,0,0,0,.17,1.17.75.75,0,0,0,.74.23.59.59,0,0,1-.46-.86,4.73,4.73,0,0,1,.36-.71A3.93,3.93,0,0,1,5.15,19.94ZM3.83,22.8a2.88,2.88,0,0,0-.36.31c-.16.18-.14.34.09.45a3.67,3.67,0,0,0,.74.29,1.32,1.32,0,0,0,1.18-.21c.07-.06.13-.14.2-.21C4.91,23.62,4.22,23.71,3.83,22.8Zm0-3a12,12,0,0,1,1.39-.39,1.44,1.44,0,0,1,1.3.43,1,1,0,0,0-.49-.68A1,1,0,0,0,5.4,19a4.34,4.34,0,0,1-1.55.41ZM7.6,21.83a.47.47,0,0,0-.42.41.77.77,0,0,1-.56.65A.94.94,0,0,0,6.3,23a2.08,2.08,0,0,0-.23.31A1.45,1.45,0,0,0,7.6,21.83Zm-.37-.34c.28-.13.36-.25.3-.49a7.81,7.81,0,0,0-.26-.82c-.07-.18-.17-.34-.25-.5L7,19.7Zm-1.87-.08v-.09c-.08-.1-.14-.26-.3-.16s-.06.18-.09.27Zm.2-1.57.3-.11v0l-.44-.06Z"/><path class="cls-4" d="M21.89,21.6a.56.56,0,0,1-.16.77,2.58,2.58,0,0,1-1.16.6,1.64,1.64,0,0,1-1.32-.32,1.13,1.13,0,0,1-1.1,0,1.87,1.87,0,0,1-1.24-1.58c.14-.3-.1-.59,0-.89s.07-.62.14-.92a2.1,2.1,0,0,1,.24-.56.29.29,0,0,1,.43-.13,1.31,1.31,0,0,1,1-.85.71.71,0,0,1,.29,0,3.31,3.31,0,0,0,1.4.1c.22-.05.35.06.4.28a1.16,1.16,0,0,1,0,.18,1.28,1.28,0,0,1,0,.17,1.8,1.8,0,0,1,1.5,1.17C22.68,20.4,22.23,21,21.89,21.6Zm-3.07-1.08a1,1,0,0,0-.39.85.29.29,0,0,0,.18.31,4.53,4.53,0,0,0,.81.27,1.19,1.19,0,0,0,1.42-.71,5.14,5.14,0,0,0,.23-.79.34.34,0,0,0,0-.14,3,3,0,0,1-.6.78,1,1,0,0,1-1.6-.47ZM21,18.77a.5.5,0,0,0,.19.67.8.8,0,0,1,.26.41,4.92,4.92,0,0,1,0,.94c0,.36,0,.38.32.48.28-.45.6-.89.33-1.47A1.72,1.72,0,0,0,21,18.77Zm-1.52.81c-.18-.12-.39-.27-.6-.39a.41.41,0,0,0-.49.08,1.75,1.75,0,0,0-.27,1.91,1.51,1.51,0,0,1,.42-1C18.77,20,19.09,19.8,19.43,19.58Zm-.17-.69a2.55,2.55,0,0,1,.33.32,4.92,4.92,0,0,1,.59.79c.18.33.07.58-.26.78l-.08,0a.79.79,0,0,0,.75-.51,1.06,1.06,0,0,0-.21-1.16A1.23,1.23,0,0,0,19.26,18.89Zm.17,3.5c.07.07.12.14.17.15a2.64,2.64,0,0,0,.61.17,1.68,1.68,0,0,0,1.13-.39c.15-.11.38-.21.35-.43s-.27-.31-.46-.4h-.1C20.94,22.43,20.23,22.45,19.43,22.39Zm1.09-3.85c0-.1,0-.17,0-.25s-.07-.18-.19-.15A2.6,2.6,0,0,1,19,18.05a.78.78,0,0,0-.74.18,1.2,1.2,0,0,0-.42.85C18.6,18.11,19.55,18.31,20.52,18.54ZM19,22.46c-.06-.33-.33-.34-.56-.36a.81.81,0,0,1-.7-.55.47.47,0,0,0-.48-.31A1.47,1.47,0,0,0,19,22.46Zm-1.48-1.61c0-.28,0-.53,0-.78s-.05-.68-.08-1.07a3.69,3.69,0,0,0-.29,1.49A.43.43,0,0,0,17.52,20.85Zm1.8-.52c.17.06.31.12.42,0s-.07-.2-.13-.22S19.4,20.2,19.32,20.33Zm-.77-1.52v0l.29,0,.11-.22Z"/><path class="cls-4" d="M13.27,22.63a1.51,1.51,0,0,1-1.67.53,1.72,1.72,0,0,1-.5-.16c-.13-.08-.29-.23-.29-.35a.68.68,0,0,0-.33-.52,1.58,1.58,0,0,1,0-2.46,2.14,2.14,0,0,1,.3-.17v0c-.09-.51-.05-.54.45-.67a3.05,3.05,0,0,0,.78-.36,1,1,0,0,1,1.2.07c.07,0,.14.12.22.19.18-.14.35-.06.49.09a2.56,2.56,0,0,1,.75,1.58c0,.08.11.16.12.25a1.63,1.63,0,0,1-1,1.88A3.86,3.86,0,0,1,13.27,22.63ZM11.2,21.21a1.6,1.6,0,0,0,.85.9,1.54,1.54,0,0,0,1.55-.63.24.24,0,0,0,0-.12.83.83,0,0,0-.54-.66C13.17,21.74,12,22,11.2,21.21Zm-.4-1.39A1.53,1.53,0,0,0,10.19,21c-.07.55.3.83.67,1.12.25-.19.24-.19.11-.47a3.54,3.54,0,0,1-.25-.64.62.62,0,0,1,.11-.58C11,20.18,11,20.06,10.8,19.82Zm1.55.22a3.91,3.91,0,0,1,.88.24,3.43,3.43,0,0,1,.64.56,1.54,1.54,0,0,0-.67-1.3.4.4,0,0,0-.42,0A1.23,1.23,0,0,0,12.35,20Zm-.17-.57a.88.88,0,0,0-.85,1,.76.76,0,0,0,.82.74.6.6,0,0,1-.34-.86A8.24,8.24,0,0,1,12.18,19.47Zm-.79,2.6c-.12.15-.21.24-.28.35a.2.2,0,0,0,.07.31,1.56,1.56,0,0,0,1.72-.12.7.7,0,0,0,.13-.16,1.91,1.91,0,0,1-.9.18A.89.89,0,0,1,11.39,22.07Zm2-3-.15-.2a.79.79,0,0,0-1.07-.16,5.54,5.54,0,0,1-.87.37c-.26.09-.28.08-.16.36A2.12,2.12,0,0,1,13.38,19.07Zm0,3.24a1.24,1.24,0,0,0,1.12-1.45.4.4,0,0,0-.27.38.68.68,0,0,1-.41.62,1,1,0,0,0-.28.18A1.47,1.47,0,0,0,13.41,22.31Zm.82-1.77a.34.34,0,0,0,.16-.47l-.21-.48a2.15,2.15,0,0,0-.14-.26l-.17-.24-.06,0Zm-1.68.15v-.12a2.34,2.34,0,0,0-.26,0s0,.13,0,.2Z"/><path class="cls-4" d="M29.51,3.32c-.26.69-.52,1.36-.76,2q-.11.27-.18.54c0,.15-.11.17-.24.13-.38-.12-.45-.23-.34-.6.07-.22.16-.43.24-.65a1.21,1.21,0,0,0,0-.19l-.08,0-.8.94c-.08.1-.13.22-.2.32a.4.4,0,0,1-.5.1c-.16-.08-.15-.22-.13-.37s.11-.55.14-.83a1,1,0,0,0-.1-.27c-.06,0-.15.09-.19.16-.23.45-.45.9-.68,1.34a.87.87,0,0,1-.16.17c-.07-.06-.18-.12-.19-.2a.71.71,0,0,1,0-.48c.35-.65.74-1.28,1.12-1.91a.56.56,0,0,1,.69-.13.42.42,0,0,1,0,.35,2.48,2.48,0,0,0,0,1.12l.19-.21,1.44-1.36a.36.36,0,0,1,.55,0Z"/><path class="cls-4" d="M15.11,3.56l-.37.35c-.33-.46-.74-.32-1.15-.12a2.18,2.18,0,0,0-.83.7.67.67,0,0,0,0,.91.78.78,0,0,0,1,0,1.24,1.24,0,0,0,.45-.63c-.2,0-.35.06-.51.07a.51.51,0,0,1-.25,0,.35.35,0,0,1-.16-.2s.09-.14.16-.15c.28-.07.58-.11.87-.16l.57-.15c.17,0,.26,0,.35.16s0,.24-.09.31a3.16,3.16,0,0,0-.79.84,1.39,1.39,0,0,1-1.81.41.72.72,0,0,1-.47-.79,2.2,2.2,0,0,1,2.13-2.09A.94.94,0,0,1,15.11,3.56Z"/><path class="cls-4" d="M6.62,6.15c-.88,0-1.22-.47-1-1.29A2.26,2.26,0,0,1,7.43,3.17a1,1,0,0,1,1.08.36A.92.92,0,0,1,8.63,4.6a7,7,0,0,1-.61,1,.79.79,0,0,1-.39.27C7.3,6,7,6.06,6.62,6.15Zm1-2.47A1.53,1.53,0,0,0,6.21,5c0,.36.09.53.45.58a.81.81,0,0,0,.41,0A2.16,2.16,0,0,0,8.2,4.37a.46.46,0,0,0-.38-.68Z"/><path class="cls-4" d="M10.84,4.94a4.22,4.22,0,0,1,.53.34,1,1,0,0,1,.25.31.3.3,0,0,1-.26.44s-.09,0-.11-.08a2,2,0,0,0-.89-.84.55.55,0,0,0-.52.17c-.14.22-.26.46-.41.67a.33.33,0,0,1-.6,0,.22.22,0,0,1,0-.18c.2-.31.43-.59.61-.91A5.8,5.8,0,0,0,9.83,4c.05-.12,0-.27.08-.39s.08-.25.16-.29a2,2,0,0,1,1.51-.19,1.09,1.09,0,0,1,.31.14c.35.22.4.5.1.78S11.22,4.65,10.84,4.94Zm-.7-.43.07.06a2.32,2.32,0,0,0,1.43-.8c.09-.09,0-.17-.08-.17-.26,0-.52,0-.78,0a.33.33,0,0,0-.19.12C10.43,4,10.29,4.25,10.14,4.51Z"/><path class="cls-4" d="M22.05,4.12,22.82,4a.32.32,0,0,1,.24,0,1.3,1.3,0,0,1,.17.26,1.23,1.23,0,0,1-.25.14c-.33.11-.67.21-1,.3a.4.4,0,0,0-.32.29c0,.12-.11.24-.18.4.24-.09.43-.17.62-.23l.57-.16a.22.22,0,0,1,.28.13c.15.31.12.38-.16.46l-1.44.44a.57.57,0,0,1-.52-.14.25.25,0,0,1-.06-.22l1-2.27a.47.47,0,0,1,.38-.27L23.33,3c.17,0,.24.05.25.2s0,.29-.21.31a7.35,7.35,0,0,1-.82.1C22.22,3.63,22.11,3.82,22.05,4.12Z"/><path class="cls-4" d="M30.16,5.43c.38-.13.71-.26,1.05-.36.13,0,.28-.09.39.07s.15.4-.16.5L30,6.08a.57.57,0,0,1-.52-.14.26.26,0,0,1-.06-.24c.3-.73.61-1.45.91-2.18a.56.56,0,0,1,.49-.35c.39,0,.78-.11,1.17-.16.15,0,.23,0,.24.2s0,.29-.2.31a6.91,6.91,0,0,1-.9.11c-.33,0-.34.26-.44.5L31.53,4a.3.3,0,0,1,.24.07c.21.21.19.28-.1.37s-.65.21-1,.29a.43.43,0,0,0-.35.31A3.8,3.8,0,0,1,30.16,5.43Z"/><path class="cls-4" d="M4.09,4.12c.26,0,.51-.06.76-.11a.3.3,0,0,1,.35.16c.09.14.08.21-.09.25-.37.11-.74.23-1.11.33A.41.41,0,0,0,3.7,5c-.13.31-.29.61-.43.92-.06.13-.14.21-.29.15s-.26-.18-.19-.33c.33-.79.67-1.58,1-2.36a.37.37,0,0,1,.24-.18c.44-.08.87-.14,1.31-.2.15,0,.24,0,.25.19s0,.3-.21.32-.53.09-.8.1S4.15,3.81,4.09,4.12Z"/><path class="cls-4" d="M16.81,3.79l-.73,0c.08-.47.28-.65.72-.65h1.08c.18,0,.22.1.23.23s.08.34-.16.4h0c-.42-.06-.59.19-.74.52s-.31.6-.47.9l-.1.24.51,0c0,.29-.1.48-.34.51-.49.06-1,.1-1.5.15l.13-.36a.28.28,0,0,1,.34-.22.3.3,0,0,0,.31-.16l.81-1.51Z"/><path class="cls-4" d="M18.77,4.93a4.48,4.48,0,0,1,1.72-1.8l.08.06c.26.23.24.43-.06.63a.87.87,0,0,1-.27.14,1.1,1.1,0,0,0-.62.48c-.25.41-.5.83-.74,1.25-.07.12-.13.25-.2.39l-.59-.28a1.51,1.51,0,0,0,.15-.47c0-.56,0-1.11,0-1.67a.36.36,0,0,1,.08-.24,1.2,1.2,0,0,1,.33-.13,2.61,2.61,0,0,1,.06.27V4.93Z"/><path class="cls-4" d="M32.58,6.1a.35.35,0,0,1-.3-.54,1.41,1.41,0,0,1,.37-.36.38.38,0,0,1,.48.1.35.35,0,0,1,0,.44A.8.8,0,0,1,32.58,6.1Z"/><path class="cls-4" d="M35.39,6.1a.35.35,0,0,1-.26-.56,1.1,1.1,0,0,1,.35-.33.35.35,0,0,1,.47.08.33.33,0,0,1,0,.46A.79.79,0,0,1,35.39,6.1Z"/><path class="cls-4" d="M34,6.1a.34.34,0,0,1-.34-.43.72.72,0,0,1,.48-.49.34.34,0,0,1,.42.14.33.33,0,0,1,0,.42A.77.77,0,0,1,34,6.1Z"/></g></g></svg>