<svg xmlns="http://www.w3.org/2000/svg" viewBox="0 0 38.55 24.66"><defs><style>.cls-1{isolation:isolate;}.cls-2{opacity:0.15;}.cls-2,.cls-3{mix-blend-mode:multiply;}.cls-4{fill:#fff;}</style></defs><title>convert-CUSTOMIZE-SVG-03</title><g class="cls-1"><g id="Layer_1" data-name="Layer 1"><g class="cls-2"><path d="M9.4,14.07a6,6,0,0,1-7.58-3A5.86,5.86,0,0,1,4,3.7a6,6,0,0,1,7.71,1.1,5.87,5.87,0,0,1-.43,8.1l.16.26,5.14,7.89a.39.39,0,0,1,.07.35,1.3,1.3,0,0,1-1.69,1,.42.42,0,0,1-.21-.19L10,15C9.79,14.67,9.6,14.37,9.4,14.07ZM8.16,9a1.12,1.12,0,0,0,.05-.13A.59.59,0,0,0,7.83,8a1.78,1.78,0,0,0-1.36,0,1.15,1.15,0,0,0-.8,1,1.84,1.84,0,0,0,1.15,1.87A2.61,2.61,0,0,0,8.23,11,2.42,2.42,0,0,0,10,9.92,2.74,2.74,0,0,0,10.41,8a3.12,3.12,0,0,0-1.47-2.4,3.91,3.91,0,0,0-2.55-.5,2.79,2.79,0,0,0-2.51,2,6.2,6.2,0,0,0-.12,2.71A3.77,3.77,0,0,0,6.06,13a6.78,6.78,0,0,0,2.88.55.82.82,0,0,0,.27-.06,5.23,5.23,0,0,0-2.93-10,5.21,5.21,0,0,0-4,7,5.11,5.11,0,0,0,4.59,3.38,9.9,9.9,0,0,0,1.33,0c-.48-.13-1-.2-1.43-.33A4.09,4.09,0,0,1,3.82,11a6.14,6.14,0,0,1-.18-4A2.91,2.91,0,0,1,5.81,4.94a4.23,4.23,0,0,1,1.7-.11A3.59,3.59,0,0,1,9.93,6.12a3.69,3.69,0,0,1,.75,2,2.75,2.75,0,0,1-.79,2.38,2.89,2.89,0,0,1-3,.67A2,2,0,0,1,5.48,9.6,1.54,1.54,0,0,1,5.89,8a2,2,0,0,1,2.29-.15.81.81,0,0,1,.17,1.22Zm4.91,9.58c.21.31.42.64.64,1a.15.15,0,0,0,.15,0c.23-.12.45-.26.69-.39l-.73-1.11Zm1.82,1.14-.75.49.71,1.09.76-.48ZM12.42,15.9l-.73-1.11-.74.48c.21.33.42.66.64,1a.18.18,0,0,0,.14,0C12,16.18,12.18,16,12.42,15.9Zm1.06,1.63-.72-1.1-.75.48L12.72,18Zm-2.89-2.8c.23-.14.43-.26.63-.4a.2.2,0,0,0,0-.18c-.17-.28-.35-.55-.53-.83L10,13.8Zm4.64,7.07a.56.56,0,0,0,.7-.46Z"/><path d="M9.6,14.27a6,6,0,0,1-7.58-3A5.86,5.86,0,0,1,4.15,3.9,6,6,0,0,1,11.86,5a5.87,5.87,0,0,1-.43,8.1l.16.26q2.57,3.95,5.14,7.88a.44.44,0,0,1,.07.35,1.3,1.3,0,0,1-1.69,1,.48.48,0,0,1-.21-.19l-4.72-7.25ZM8.36,9.17A1.12,1.12,0,0,0,8.41,9,.59.59,0,0,0,8,8.15a1.83,1.83,0,0,0-1.36,0,1.17,1.17,0,0,0-.8,1A1.84,1.84,0,0,0,7,11.06a2.7,2.7,0,0,0,1.41.16,2.46,2.46,0,0,0,1.8-1.1,2.78,2.78,0,0,0,.38-1.95A3.11,3.11,0,0,0,9.14,5.78a3.91,3.91,0,0,0-2.55-.5,2.79,2.79,0,0,0-2.51,2A6.16,6.16,0,0,0,4,10a3.78,3.78,0,0,0,2.31,3.14,6.94,6.94,0,0,0,2.88.55.88.88,0,0,0,.27-.06,5.23,5.23,0,0,0-2.93-10,5.21,5.21,0,0,0-4,7A5.11,5.11,0,0,0,7,14a10,10,0,0,0,1.33,0c-.49-.13-1-.2-1.43-.33A4.08,4.08,0,0,1,4,11.24a6.14,6.14,0,0,1-.18-4A2.93,2.93,0,0,1,6,5.13,4.41,4.41,0,0,1,7.71,5a3.56,3.56,0,0,1,2.42,1.29,3.77,3.77,0,0,1,.75,2,2.78,2.78,0,0,1-.79,2.38,2.9,2.9,0,0,1-3,.67A2,2,0,0,1,5.67,9.79,1.53,1.53,0,0,1,6.09,8.2a2,2,0,0,1,2.29-.15.81.81,0,0,1,.16,1.22Zm4.91,9.57c.21.32.42.65.64,1a.17.17,0,0,0,.15.05c.23-.12.45-.26.68-.4L14,18.26Zm1.82,1.15-.75.49.71,1.09L15.8,21ZM12.62,16.1,11.89,15l-.74.48c.21.33.42.66.64,1a.14.14,0,0,0,.14,0C12.16,16.37,12.37,16.24,12.62,16.1Zm1.06,1.63L13,16.62l-.75.49.71,1.09Zm-2.89-2.8c.23-.14.43-.26.62-.4a.19.19,0,0,0,.06-.18c-.17-.28-.36-.56-.54-.83l-.74.48ZM15.43,22a.56.56,0,0,0,.7-.46Z"/></g><g class="cls-3"><path d="M9.26,13.93a6,6,0,0,1-7.58-3A5.86,5.86,0,0,1,3.81,3.56a6,6,0,0,1,7.71,1.1,5.87,5.87,0,0,1-.43,8.1l.16.26Q13.82,17,16.39,20.9a.44.44,0,0,1,.07.35,1.3,1.3,0,0,1-1.69,1,.48.48,0,0,1-.21-.19L9.84,14.82ZM8,8.83a1.12,1.12,0,0,0,.05-.13.59.59,0,0,0-.38-.89,1.83,1.83,0,0,0-1.36,0,1.17,1.17,0,0,0-.8,1,1.84,1.84,0,0,0,1.15,1.88,2.7,2.7,0,0,0,1.41.16,2.46,2.46,0,0,0,1.8-1.1,2.78,2.78,0,0,0,.38-1.95A3.11,3.11,0,0,0,8.8,5.44a3.92,3.92,0,0,0-2.55-.5A2.79,2.79,0,0,0,3.74,7a6.16,6.16,0,0,0-.13,2.7,3.78,3.78,0,0,0,2.31,3.14,6.94,6.94,0,0,0,2.88.55.88.88,0,0,0,.27-.06,5.23,5.23,0,0,0-2.93-10,5.21,5.21,0,0,0-4,7A5.11,5.11,0,0,0,6.69,13.7a10,10,0,0,0,1.33,0c-.49-.13-1-.2-1.43-.33a4.07,4.07,0,0,1-2.91-2.44,6.11,6.11,0,0,1-.18-4A2.93,2.93,0,0,1,5.67,4.79a4.41,4.41,0,0,1,1.7-.1A3.56,3.56,0,0,1,9.79,6a3.77,3.77,0,0,1,.75,2,2.79,2.79,0,0,1-.79,2.39,2.9,2.9,0,0,1-3,.67A2,2,0,0,1,5.33,9.45a1.53,1.53,0,0,1,.42-1.59A2,2,0,0,1,8,7.71.81.81,0,0,1,8.2,8.93Zm4.91,9.57c.21.32.42.65.64,1a.17.17,0,0,0,.15.05c.23-.12.45-.26.68-.4l-.72-1.1Zm1.82,1.15L14,20l.71,1.09.75-.48Zm-2.47-3.79-.73-1.11-.74.48c.21.33.42.66.64,1a.14.14,0,0,0,.14,0C11.82,16,12,15.9,12.28,15.76Zm1.06,1.63-.72-1.11-.75.49.71,1.09Zm-2.89-2.8c.23-.14.43-.26.62-.4a.19.19,0,0,0,.06-.18c-.17-.28-.36-.56-.54-.83l-.75.48Zm4.64,7.07a.56.56,0,0,0,.7-.46Z"/></g><path class="cls-4" d="M9.46,14.12a6,6,0,0,1-7.59-3A5.84,5.84,0,0,1,4,3.76a6,6,0,0,1,7.7,1.09A5.88,5.88,0,0,1,11.29,13l.16.26Q14,17.17,16.59,21.1a.44.44,0,0,1,.07.35,1.31,1.31,0,0,1-1.69,1,.48.48,0,0,1-.21-.19L10,15ZM8.22,9a.89.89,0,0,1,0-.13A.59.59,0,0,0,7.89,8,1.83,1.83,0,0,0,6.53,8a1.14,1.14,0,0,0-.8,1,1.82,1.82,0,0,0,1.15,1.87,2.61,2.61,0,0,0,1.41.17,2.49,2.49,0,0,0,1.8-1.1,2.78,2.78,0,0,0,.38-2A3.15,3.15,0,0,0,9,5.63a4,4,0,0,0-2.55-.49,2.79,2.79,0,0,0-2.51,2,6,6,0,0,0-.13,2.7A3.78,3.78,0,0,0,6.12,13,6.94,6.94,0,0,0,9,13.57a.88.88,0,0,0,.27-.06,5.23,5.23,0,0,0-2.93-10,5.2,5.2,0,0,0-4,7A5.11,5.11,0,0,0,6.88,13.9a11.82,11.82,0,0,0,1.33,0c-.48-.14-1-.21-1.43-.34a4,4,0,0,1-2.9-2.43,6,6,0,0,1-.18-4A2.93,2.93,0,0,1,5.87,5a4.18,4.18,0,0,1,1.69-.1A3.58,3.58,0,0,1,10,6.17a3.8,3.8,0,0,1,.75,2,2.74,2.74,0,0,1-.8,2.38,2.84,2.84,0,0,1-3,.67A2,2,0,0,1,5.53,9.65a1.54,1.54,0,0,1,.41-1.59,2,2,0,0,1,2.3-.15A.82.82,0,0,1,8.4,9.13Zm4.91,9.57c.21.32.42.65.64,1,0,0,.11.08.14.06.23-.12.46-.26.69-.4l-.72-1.1Zm1.81,1.15-.74.49.71,1.09.75-.48ZM12.47,16l-.72-1.11-.75.48c.22.33.43.66.65,1a.13.13,0,0,0,.14,0Zm1.07,1.63-.72-1.11-.75.49.71,1.08Zm-2.89-2.8c.22-.14.43-.26.62-.4a.21.21,0,0,0,.06-.18c-.17-.28-.36-.56-.54-.83l-.75.47Zm4.64,7.06a.55.55,0,0,0,.7-.45Z"/></g></g></svg>