<svg xmlns="http://www.w3.org/2000/svg" viewBox="0 0 38.55 24.66"><defs><style>.cls-1{isolation:isolate;}.cls-2{opacity:0.15;}.cls-2,.cls-3{mix-blend-mode:multiply;}.cls-4{fill:#fff;}</style></defs><title>convert-CUSTOMIZE-SVG-03</title><g class="cls-1"><g id="Layer_1" data-name="Layer 1"><g class="cls-2"><path d="M12.11,18c-.18-.5-.35-1-.56-1.49A11.88,11.88,0,0,0,9.3,13.15.61.61,0,0,0,9,13a.92.92,0,0,0-1,.36,3.58,3.58,0,0,1-2.15,1.16,2.71,2.71,0,0,1-3-1.7,4.14,4.14,0,0,1-.26-2.12.59.59,0,0,0-.21-.58,3.94,3.94,0,0,1-1.3-2A2.72,2.72,0,0,1,3.05,4.76a4.47,4.47,0,0,1,2-.15.41.41,0,0,0,.4-.15A4.19,4.19,0,0,1,7.56,3.1,2.77,2.77,0,0,1,11,5.17,4.56,4.56,0,0,1,11.08,7a.35.35,0,0,0,.12.35,4.27,4.27,0,0,1,1.39,2.08,2.72,2.72,0,0,1-2,3.39c-.21.07-.42.11-.67.17a12.15,12.15,0,0,1,2.7,4.9,9,9,0,0,1,1.19-2.62A5.79,5.79,0,0,1,16,13.4a2.6,2.6,0,0,1,.65,1.73,4.52,4.52,0,0,1-.8,2.61A11.58,11.58,0,0,1,13,20.6l-.77.58v-.61c-1.71-.06-3.2-.51-4.1-2.09a5.11,5.11,0,0,1-.54-3.2A5.59,5.59,0,0,1,12.06,18Zm0,1.6C11.75,17.88,9.59,15.9,8.15,16a4,4,0,0,0,1,2.92A4.09,4.09,0,0,0,12.08,20l0-.06L8.84,16.8,9,16.62Zm3.33-4.12-.42.6a21.91,21.91,0,0,0-2,3.52,1.85,1.85,0,0,0-.11.37l.12-.07c.52-.49,1.07-1,1.56-1.49A5.07,5.07,0,0,0,16,15.67a2.51,2.51,0,0,0-.2-1.48c-1.2.59-2.83,3.36-2.72,4.6.34-.57.67-1.16,1-1.73s.75-1.15,1.13-1.73ZM4.93,5.17a3.52,3.52,0,0,0-2.29.42,2.06,2.06,0,0,0-1,2.2A3.46,3.46,0,0,0,2.7,9.61l.14.11A4.14,4.14,0,0,1,4.93,5.17Zm1-.4a4.25,4.25,0,0,1,4.55,2.08,3.69,3.69,0,0,0-.08-1.45A2.19,2.19,0,0,0,8.74,3.64,3,3,0,0,0,6,4.77Zm2.85,7.64a3.6,3.6,0,0,0,2-.27A2.12,2.12,0,0,0,12,9.44,3.7,3.7,0,0,0,11,8l-.14-.11A4.15,4.15,0,0,1,8.81,12.41Zm-1,.38a4.25,4.25,0,0,1-4.6-2.07,3.64,3.64,0,0,0,.36,2.15,2,2,0,0,0,2,1.12A3.36,3.36,0,0,0,7.8,12.79ZM4,8.52H3.2c-.05,0-.12.09-.12.14a2.81,2.81,0,0,0,0,.58.17.17,0,0,0,.13.13,4.14,4.14,0,0,0,.61,0s.12-.08.12-.12C4,9,4,8.79,4,8.52Zm.22.87h.76S5,9.31,5,9.27a4.12,4.12,0,0,0,0-.61.17.17,0,0,0-.13-.13,4.14,4.14,0,0,0-.61,0,.16.16,0,0,0-.12.12C4.16,8.88,4.17,9.12,4.17,9.39Zm2-.85H5.28v.85c.26,0,.5,0,.75,0,0,0,.1-.07.1-.11C6.14,9,6.14,8.8,6.14,8.54ZM5.26,6.13H6A.13.13,0,0,0,6.13,6c0-.25,0-.5,0-.77-.27,0-.5,0-.73,0,0,0-.14.08-.14.13C5.26,5.63,5.26,5.86,5.26,6.13Zm1.11,2.4v.85h.84V8.53Zm0-2.42h.83V5.27H6.38Zm1.09,0h.84V5.27H7.47ZM5.28,9.63v.83h.84V9.63Zm3-1.09H7.48v.84h.83Zm.26.84H9.4V8.54H8.57Zm-4.39-3v.82H5V6.37Zm1.1,0V7.2h.84V6.36Zm5.23,2.18H9.67v.84h.84ZM4.18,9.63v.82H5V9.63Zm0,1.92H5v-.82H4.18ZM5,7.46H4.19v.83H5Zm.25.83h.84V7.46H5.28Zm0,3.26h.85v-.83H5.27Zm2-5.18H6.38V7.2h.84Zm1.09,0H7.47v.82h.84Zm.26,0V7.2h.84V6.36Zm0,1.93H9.4V7.46H8.57ZM7.21,10.46V9.63H6.37v.83Zm1.1-.83H7.48v.83h.83Zm1.09.83V9.63H8.57v.83Zm-2.19,1.1v-.84H6.38v.84Zm1.36,0h.84v-.83H8.57Zm-2.19.25v.82h.84V11.8Zm1.93-1.08H7.48v.83h.83ZM7.48,7.45v.84h.83V7.45Zm-1.1,0v.84h.83V7.45Zm-2.45,0H3.29a.15.15,0,0,0-.1.06,1.39,1.39,0,0,0-.1.78h.84Zm6.59.84c0-.23,0-.44,0-.65s-.09-.18-.15-.18a5.17,5.17,0,0,0-.68,0v.84ZM9.67,10.5c.26,0,.55,0,.7-.11a.8.8,0,0,0,.13-.76H9.67Zm-5.74,0V9.63H3.08a1.44,1.44,0,0,0,0,.24c0,.1.13.18.15.29.07.31.06.31.37.31Zm1.33,1.31c0,.17,0,.3,0,.43a.18.18,0,0,0,.1.14c.24.09.49.16.77.25,0-.26,0-.49,0-.71,0,0-.07-.1-.12-.1Zm2.21.85.84-.29V11.8H7.47Zm2-6.51c0-.1,0-.22-.06-.26-.25-.19-.51-.36-.8-.56v.82Zm1,1.08c-.16-.26-.29-.5-.45-.71s-.17-.11-.3-.19v.9ZM4.16,6.05l0,.08H5A.11.11,0,0,0,5,6c0-.2,0-.4,0-.64A3,3,0,0,0,4.16,6.05Zm-.23.32-.05,0a3.14,3.14,0,0,0-.56.85h.61Zm5.75,4.35v.69l0,0,.52-.71ZM8.57,11.8v.47l.69-.43,0,0Zm-5.1-1.08.46.62v-.62ZM5,12.21c0-.15,0-.23,0-.31a.15.15,0,0,0-.12-.11H4.49l0,.06ZM6.38,5V5h.83V5Z"/><path d="M12.31,18.19c-.19-.5-.35-1-.56-1.49a11.7,11.7,0,0,0-2.26-3.35.53.53,0,0,0-.29-.14.9.9,0,0,0-1,.36,3.63,3.63,0,0,1-2.15,1.16,2.71,2.71,0,0,1-3-1.7,4.26,4.26,0,0,1-.27-2.12.59.59,0,0,0-.2-.58,3.94,3.94,0,0,1-1.3-2A2.71,2.71,0,0,1,3.25,5a4.47,4.47,0,0,1,2-.15.41.41,0,0,0,.4-.15A4.15,4.15,0,0,1,7.76,3.3a2.76,2.76,0,0,1,3.41,2.07,4.56,4.56,0,0,1,.11,1.84.35.35,0,0,0,.12.35,4.1,4.1,0,0,1,1.38,2.08A2.72,2.72,0,0,1,10.83,13l-.67.17a12.15,12.15,0,0,1,2.7,4.9,8.79,8.79,0,0,1,1.19-2.62,5.79,5.79,0,0,1,2.11-1.88,2.66,2.66,0,0,1,.65,1.73A4.53,4.53,0,0,1,16,17.94a11.37,11.37,0,0,1-2.76,2.86c-.24.19-.49.37-.78.58v-.61c-1.7-.06-3.2-.51-4.09-2.09a5,5,0,0,1-.54-3.2,5.57,5.57,0,0,1,4.42,2.74Zm0,1.6c-.36-1.72-2.51-3.69-4-3.61A4,4,0,0,0,9.4,19.1a4.07,4.07,0,0,0,2.88,1.08l0-.06L9,17l.14-.18Zm3.32-4.12c-.14.22-.28.41-.41.6a22.74,22.74,0,0,0-2,3.52c0,.1-.06.21-.11.37l.13-.07c.52-.49,1.07-1,1.56-1.49a5.17,5.17,0,0,0,1.43-2.73,2.51,2.51,0,0,0-.2-1.48c-1.21.59-2.83,3.36-2.72,4.6.34-.57.67-1.16,1-1.74s.75-1.14,1.13-1.72ZM5.13,5.37a3.57,3.57,0,0,0-2.29.41A2.08,2.08,0,0,0,1.85,8a3.5,3.5,0,0,0,1,1.82L3,9.92A4.13,4.13,0,0,1,5.13,5.37Zm1-.4a4.25,4.25,0,0,1,4.55,2.08,3.69,3.69,0,0,0-.08-1.45A2.19,2.19,0,0,0,8.94,3.84,3,3,0,0,0,6.16,5ZM9,12.61a3.6,3.6,0,0,0,2-.27,2.12,2.12,0,0,0,1.16-2.7,3.63,3.63,0,0,0-.95-1.45l-.14-.11A4.16,4.16,0,0,1,9,12.61ZM8,13a4.25,4.25,0,0,1-4.6-2.07,3.64,3.64,0,0,0,.36,2.15,2,2,0,0,0,2,1.11A3.31,3.31,0,0,0,8,13ZM4.14,8.72c-.27,0-.51,0-.74,0,0,0-.12.08-.13.13a3.85,3.85,0,0,0,0,.59.17.17,0,0,0,.13.13,3.11,3.11,0,0,0,.61,0s.12-.07.12-.11C4.15,9.23,4.14,9,4.14,8.72Zm.23.87h.76s.1-.07.1-.12a3.11,3.11,0,0,0,0-.61.18.18,0,0,0-.13-.12,3.11,3.11,0,0,0-.61,0,.16.16,0,0,0-.12.12C4.36,9.08,4.37,9.32,4.37,9.59Zm2-.85H5.48v.85h.75a.16.16,0,0,0,.1-.11C6.34,9.23,6.34,9,6.34,8.74ZM5.46,6.33h.77a.13.13,0,0,0,.1-.09c0-.26,0-.51,0-.77-.27,0-.51,0-.74,0a.17.17,0,0,0-.13.13C5.46,5.83,5.46,6.06,5.46,6.33Zm1.11,2.4v.85h.84V8.73Zm0-2.42h.84V5.47H6.57Zm1.1,0h.84V5.47H7.67ZM5.47,9.82v.84h.85V9.82Zm3-1.08H7.67v.84h.84Zm.26.84H9.6V8.74H8.77Zm-4.39-3v.83h.84V6.56Zm1.1,0V7.4h.84V6.56ZM10.7,8.74H9.87v.84h.83ZM4.38,9.83v.82h.84V9.83Zm0,1.92h.84v-.82H4.38Zm.85-4.09H4.38v.83h.85Zm.24.83h.85V7.65H5.47Zm0,3.26h.85v-.83H5.47Zm2-5.18H6.58v.82h.84Zm1.09,0H7.67v.82h.84Zm.26,0V7.4h.84V6.56Zm0,1.93H9.6V7.66H8.77ZM7.41,10.66V9.83H6.57v.83Zm1.1-.83H7.67v.83h.84Zm1.09.83V9.83H8.77v.83ZM7.41,11.75v-.83H6.58v.83Zm1.36,0h.84v-.83H8.77ZM6.58,12v.82h.83V12Zm1.93-1.08H7.68v.83h.83ZM7.68,7.65v.84h.83V7.65Zm-1.11,0v.84h.84V7.65Zm-2.44,0H3.49a.13.13,0,0,0-.1.06,1.39,1.39,0,0,0-.1.78h.84Zm6.59.85c0-.23,0-.44,0-.65a.27.27,0,0,0-.15-.19c-.23,0-.46,0-.68,0v.84ZM9.87,10.7c.26,0,.55,0,.7-.11a.8.8,0,0,0,.13-.76H9.87Zm-5.74,0V9.83H3.28a1.44,1.44,0,0,0,.05.24,2.64,2.64,0,0,1,.15.29c.07.31.06.31.37.31ZM5.46,12a2.94,2.94,0,0,0,0,.43.18.18,0,0,0,.1.14l.77.25c0-.27,0-.49,0-.71,0,0-.08-.1-.12-.1Zm2.21.85.84-.29V12H7.67Zm2-6.51c0-.1,0-.22-.06-.26-.25-.19-.51-.36-.8-.56v.82Zm1,1.08c-.16-.26-.29-.5-.45-.71s-.18-.11-.3-.19v.9ZM4.35,6.25l0,.08h.77s.08-.06.08-.09c0-.2,0-.4,0-.65A3.06,3.06,0,0,0,4.35,6.25Zm-.22.32,0,0a2.92,2.92,0,0,0-.56.85h.61Zm5.75,4.35v.69l0,0,.52-.71ZM8.77,12v.47L9.46,12l0,0Zm-5.1-1.08.46.62v-.62Zm1.57,1.49a1.41,1.41,0,0,0,0-.31S5.16,12,5.12,12a3.09,3.09,0,0,0-.43,0l0,.06ZM6.58,5.16v0h.83v0Z"/></g><g class="cls-3"><path d="M12,17.85c-.19-.5-.35-1-.56-1.49A11.7,11.7,0,0,0,9.15,13a.53.53,0,0,0-.29-.14.9.9,0,0,0-1,.36,3.63,3.63,0,0,1-2.15,1.16,2.71,2.71,0,0,1-3-1.7,4.26,4.26,0,0,1-.27-2.12.59.59,0,0,0-.2-.58A3.94,3.94,0,0,1,1,8,2.71,2.71,0,0,1,2.91,4.62a4.47,4.47,0,0,1,2-.15.41.41,0,0,0,.4-.15A4.15,4.15,0,0,1,7.42,3,2.76,2.76,0,0,1,10.83,5a4.56,4.56,0,0,1,.11,1.84.35.35,0,0,0,.12.35A4.1,4.1,0,0,1,12.44,9.3a2.72,2.72,0,0,1-1.95,3.39l-.67.17a12.15,12.15,0,0,1,2.7,4.9,8.79,8.79,0,0,1,1.19-2.62,5.79,5.79,0,0,1,2.11-1.88A2.66,2.66,0,0,1,16.47,15a4.53,4.53,0,0,1-.81,2.61,11.37,11.37,0,0,1-2.76,2.86c-.24.19-.49.37-.78.58v-.61c-1.7-.06-3.2-.51-4.09-2.09a5,5,0,0,1-.54-3.2,5.57,5.57,0,0,1,4.42,2.74Zm0,1.6c-.36-1.72-2.51-3.69-4-3.61a4,4,0,0,0,1.05,2.92,4.07,4.07,0,0,0,2.88,1.08l0-.06L8.7,16.66l.14-.18Zm3.32-4.12c-.14.22-.28.41-.41.6a22.74,22.74,0,0,0-2,3.52c0,.1-.06.21-.11.37l.13-.07c.52-.49,1.07-1,1.56-1.49a5.17,5.17,0,0,0,1.43-2.73,2.51,2.51,0,0,0-.2-1.48c-1.21.59-2.83,3.36-2.72,4.6.34-.57.67-1.16,1-1.74s.75-1.14,1.13-1.72ZM4.79,5a3.57,3.57,0,0,0-2.29.41,2.08,2.08,0,0,0-1,2.21A3.5,3.5,0,0,0,2.56,9.47l.14.11A4.13,4.13,0,0,1,4.79,5Zm1-.41a4.27,4.27,0,0,1,4.55,2.09,3.69,3.69,0,0,0-.08-1.45A2.19,2.19,0,0,0,8.6,3.5,3,3,0,0,0,5.82,4.62Zm2.85,7.65a3.6,3.6,0,0,0,2-.27,2.12,2.12,0,0,0,1.16-2.7,3.63,3.63,0,0,0-.95-1.45l-.14-.11A4.16,4.16,0,0,1,8.67,12.27Zm-1,.38a4.25,4.25,0,0,1-4.6-2.07,3.64,3.64,0,0,0,.36,2.15,2,2,0,0,0,2,1.11A3.31,3.31,0,0,0,7.66,12.65ZM3.8,8.38c-.27,0-.51,0-.74,0-.05,0-.12.08-.13.13a3.85,3.85,0,0,0,0,.59.17.17,0,0,0,.13.13,3.11,3.11,0,0,0,.61,0s.12-.07.12-.11C3.81,8.89,3.8,8.65,3.8,8.38ZM4,9.25h.77s.1-.07.1-.12a3.11,3.11,0,0,0,0-.61.18.18,0,0,0-.13-.12,3.11,3.11,0,0,0-.61,0A.16.16,0,0,0,4,8.51C4,8.74,4,9,4,9.25ZM6,8.4H5.14v.85h.75A.16.16,0,0,0,6,9.13C6,8.89,6,8.65,6,8.4ZM5.12,6h.77s.1-.06.1-.09c0-.26,0-.51,0-.77-.27,0-.51,0-.74,0a.17.17,0,0,0-.13.13C5.11,5.49,5.12,5.72,5.12,6Zm1.11,2.4v.85h.84V8.39ZM6.23,6h.84V5.13H6.23Zm1.1,0h.84V5.13H7.33ZM5.13,9.48v.83H6V9.48Zm3-1.08H7.33v.84h.84Zm.26.84h.83V8.4H8.43ZM4,6.22v.83h.84V6.22Zm1.1,0v.84H6V6.22ZM10.36,8.4H9.53v.84h.83ZM4,9.49v.82h.84V9.49Zm0,1.92h.84v-.82H4Zm.85-4.09H4v.83h.85Zm.24.83H6V7.31H5.13Zm0,3.26H6v-.83H5.13Zm2-5.18H6.24v.82h.84Zm1.09,0H7.33v.82h.84Zm.26,0v.84h.84V6.22Zm0,1.93h.83V7.32H8.43ZM7.07,10.32V9.49H6.23v.83Zm1.1-.83H7.33v.83h.84Zm1.09.83V9.49H8.43v.83ZM7.07,11.41v-.83H6.24v.83Zm1.36,0h.84v-.83H8.43Zm-2.19.25v.82h.83v-.82Zm1.93-1.08H7.34v.83h.83ZM7.34,7.31v.84h.83V7.31Zm-1.11,0v.84h.84V7.31Zm-2.44,0H3.15a.13.13,0,0,0-.1.06,1.39,1.39,0,0,0-.1.78h.84Zm6.59.85c0-.23,0-.44,0-.65a.27.27,0,0,0-.15-.19c-.23,0-.46,0-.68,0v.85Zm-.85,2.21c.25,0,.55,0,.7-.11a.8.8,0,0,0,.13-.76H9.53Zm-5.74,0V9.49H2.94A1.44,1.44,0,0,0,3,9.73a2.64,2.64,0,0,1,.15.29c.07.31.06.31.37.31Zm1.33,1.31a2.94,2.94,0,0,0,0,.43.18.18,0,0,0,.1.14l.77.25c0-.27,0-.49,0-.71,0,0-.08-.1-.12-.1Zm2.21.85.84-.29v-.55H7.33ZM9.29,6c0-.1,0-.22-.06-.26-.25-.19-.51-.36-.8-.56V6Zm1,1.08c-.16-.26-.29-.5-.45-.72a1.81,1.81,0,0,0-.3-.18v.9ZM4,5.91,4,6H4.8a.12.12,0,0,0,.09-.09c0-.2,0-.4,0-.65A3.06,3.06,0,0,0,4,5.91Zm-.22.32,0,0a2.92,2.92,0,0,0-.56.85h.61Zm5.75,4.35v.69l0,0,.52-.71ZM8.43,11.66v.47l.69-.43,0,0Zm-5.1-1.08.46.62v-.62ZM4.9,12.07a1.41,1.41,0,0,0,0-.31s-.07-.11-.11-.11a3.09,3.09,0,0,0-.43,0l0,.06ZM6.24,4.82v0h.83v0Z"/></g><path class="cls-4" d="M12.17,18.05c-.19-.5-.35-1-.56-1.49A11.89,11.89,0,0,0,9.35,13.2a.65.65,0,0,0-.29-.13.89.89,0,0,0-1,.36,3.66,3.66,0,0,1-2.15,1.16,2.71,2.71,0,0,1-3-1.7,4.15,4.15,0,0,1-.27-2.12.57.57,0,0,0-.21-.58,4,4,0,0,1-1.29-2A2.71,2.71,0,0,1,3.11,4.82a4.63,4.63,0,0,1,2-.16.39.39,0,0,0,.4-.14A4.09,4.09,0,0,1,7.62,3.16,2.76,2.76,0,0,1,11,5.22a4.45,4.45,0,0,1,.1,1.85.36.36,0,0,0,.13.35A4.1,4.1,0,0,1,12.64,9.5a2.72,2.72,0,0,1-2,3.39l-.67.16A12.38,12.38,0,0,1,12.72,18a8.91,8.91,0,0,1,1.18-2.62A5.9,5.9,0,0,1,16,13.46a2.66,2.66,0,0,1,.65,1.73,4.53,4.53,0,0,1-.81,2.61,11.37,11.37,0,0,1-2.76,2.86c-.24.19-.49.37-.78.58v-.61c-1.7-.07-3.2-.51-4.1-2.09a5.18,5.18,0,0,1-.54-3.2,5.57,5.57,0,0,1,4.43,2.74Zm0,1.59C11.8,17.93,9.65,16,8.21,16a4,4,0,0,0,1,2.92A4,4,0,0,0,12.13,20l0-.05L8.9,16.86,9,16.68Zm3.32-4.11-.41.6a22.19,22.19,0,0,0-2,3.51c0,.11-.06.22-.11.38l.12-.07c.53-.5,1.08-1,1.57-1.49a5.21,5.21,0,0,0,1.43-2.73,2.44,2.44,0,0,0-.21-1.48c-1.2.59-2.82,3.35-2.71,4.6.34-.57.66-1.16,1-1.74s.75-1.14,1.13-1.72ZM5,5.23a3.55,3.55,0,0,0-2.3.41,2.07,2.07,0,0,0-1,2.21,3.43,3.43,0,0,0,1,1.82,1,1,0,0,0,.14.11A4.13,4.13,0,0,1,5,5.23Zm1-.41a4.26,4.26,0,0,1,4.54,2.09,3.4,3.4,0,0,0-.08-1.46A2.18,2.18,0,0,0,8.79,3.7,3,3,0,0,0,6,4.82Zm2.85,7.65a3.52,3.52,0,0,0,2-.28A2.11,2.11,0,0,0,12,9.5a3.63,3.63,0,0,0-.95-1.45L11,7.94A4.16,4.16,0,0,1,8.87,12.47Zm-1,.38a4.25,4.25,0,0,1-4.6-2.07,3.56,3.56,0,0,0,.36,2.15,2,2,0,0,0,2,1.11A3.37,3.37,0,0,0,7.86,12.85ZM4,8.58c-.27,0-.51,0-.74,0,0,0-.12.08-.13.13a5.8,5.8,0,0,0,0,.59s.09.13.13.13a4.14,4.14,0,0,0,.61,0A.18.18,0,0,0,4,9.32C4,9.09,4,8.85,4,8.58Zm.22.87H5s.1-.07.1-.12a4.14,4.14,0,0,0,0-.61A.18.18,0,0,0,5,8.59a3.11,3.11,0,0,0-.61,0,.15.15,0,0,0-.12.11C4.22,8.94,4.22,9.18,4.22,9.45Zm2-.85H5.34v.85h.74a.15.15,0,0,0,.11-.11C6.2,9.09,6.19,8.85,6.19,8.6ZM5.32,6.18c.28,0,.52,0,.77,0,0,0,.1-.06.1-.1,0-.25,0-.5,0-.76-.26,0-.5,0-.73,0,0,0-.13.09-.13.13C5.31,5.69,5.32,5.92,5.32,6.18ZM6.43,8.59v.85h.84V8.59Zm0-2.42h.84V5.33H6.43Zm1.1,0h.84V5.33H7.53ZM5.33,9.68v.83h.85V9.68Zm3-1.08H7.53v.84h.84Zm.26.84h.83V8.59H8.63Zm-4.39-3v.83h.84V6.42Zm1.1,0v.83h.84V6.42Zm5.22,2.17H9.73v.85h.83ZM4.24,9.68v.83h.84V9.68Zm0,1.93h.85v-.83H4.23Zm.86-4.09H4.24v.83h.85Zm.24.83h.85V7.51H5.33Zm0,3.26h.85v-.83H5.33ZM7.27,6.43H6.44v.82h.83Zm1.1,0H7.53v.82h.84Zm.26,0v.83h.83V6.42Zm0,1.93h.84V7.52H8.62ZM7.27,10.52V9.68H6.43v.84Zm1.1-.83H7.53v.82h.84Zm1.09.83V9.68H8.63v.84ZM7.27,11.61v-.83H6.43v.83Zm1.36,0h.83v-.83H8.63Zm-2.19.24v.83h.83v-.83Zm1.93-1.07H7.54v.83h.83ZM7.54,7.51v.84h.83V7.51Zm-1.11,0v.84h.84V7.51ZM4,7.5H3.35a.12.12,0,0,0-.1.06,1.38,1.38,0,0,0-.1.78H4Zm6.58.85c0-.23,0-.45,0-.66a.3.3,0,0,0-.15-.18c-.23,0-.46,0-.69,0v.85Zm-.84,2.21c.25,0,.55,0,.7-.11a.8.8,0,0,0,.13-.76H9.73ZM4,10.53V9.69H3.14a.71.71,0,0,0,0,.23c0,.1.12.19.15.29.07.32.06.32.37.32Zm1.34,1.31a2.94,2.94,0,0,0,0,.43.19.19,0,0,0,.09.14l.77.25c0-.27,0-.49,0-.71,0,0-.08-.1-.12-.1Zm2.21.85.84-.3v-.54H7.53Zm2-6.52c0-.09,0-.21-.07-.25-.24-.2-.5-.36-.79-.56v.81Zm1,1.09c-.16-.26-.3-.5-.46-.72a1,1,0,0,0-.29-.18v.9ZM4.21,6.11l0,.07c.25,0,.51,0,.76,0a.14.14,0,0,0,.09-.09c0-.2,0-.4,0-.65A2.93,2.93,0,0,0,4.21,6.11ZM4,6.42l-.06,0a3.11,3.11,0,0,0-.55.85H4Zm5.75,4.35v.7h0l.52-.71ZM8.63,11.85v.48l.68-.43v-.05Zm-5.1-1.07L4,11.4v-.62ZM5.1,12.27a1.5,1.5,0,0,0,0-.32.16.16,0,0,0-.11-.1,3.09,3.09,0,0,0-.43,0l0,.06ZM6.44,5v.05h.83V5Z"/></g></g></svg>