<svg xmlns="http://www.w3.org/2000/svg" viewBox="0 0 38.55 24.66"><defs><style>.cls-1{isolation:isolate;}.cls-2{opacity:0.15;}.cls-2,.cls-3{mix-blend-mode:multiply;}.cls-4{fill:#fff;}</style></defs><title>convert-CUSTOMIZE-SVG-03</title><g class="cls-1"><g id="Layer_1" data-name="Layer 1"><g class="cls-2"><path d="M17.56,10a2.68,2.68,0,0,1,.34.92,2.06,2.06,0,0,0,1.3,1.5,1,1,0,0,1-.79-.16,1.63,1.63,0,0,1-.65-1c-.06-.2-.08-.41-.14-.62a6.22,6.22,0,0,0-.25-.68c-.05-.13-.14-.18-.3-.12-.29,1-.59,2-.89,3-.22.72-.44,1.44-.65,2.16a.24.24,0,0,1-.26.21,1.19,1.19,0,0,1-1.17-.53.48.48,0,0,1,0-.31c.19-.69.39-1.37.58-2.06l0-.18a8.16,8.16,0,0,1-2.63,1c-.12.58-.21,1.15-.36,1.71a4.38,4.38,0,0,1-1,1.9,2.39,2.39,0,0,1-1.09.7.35.35,0,0,0-.24.22,3.32,3.32,0,0,1-1,1.45,1.7,1.7,0,0,1-1.48.38.8.8,0,0,1-.33-.17,2.56,2.56,0,0,1-.83-1.66,5.48,5.48,0,0,1,0-.57c-.19-.05-.25,0-.25.21A2.47,2.47,0,0,1,4,19.39,1.47,1.47,0,0,1,2.24,19a2.86,2.86,0,0,1-.32-3.44,2.21,2.21,0,0,1,1-.8l3-1.37A.33.33,0,0,0,6,13.22c.07-.34.13-.68.19-1a.33.33,0,0,0,0-.22,3.43,3.43,0,0,1-.68-2,7.62,7.62,0,0,1,.37-3,3.23,3.23,0,0,1,.94-1.44.25.25,0,0,0,0-.19,2.18,2.18,0,0,1,2-2.53A1.66,1.66,0,0,1,10,3.27a2.14,2.14,0,0,0,1.15.5,4.32,4.32,0,0,1,1.51.53.36.36,0,0,0,.25,0A2.24,2.24,0,0,1,14,4.25a1.39,1.39,0,0,1,1,1.23,2,2,0,0,1-.57,1.67.49.49,0,0,0-.11.29c0,.24,0,.48,0,.71l1-.28a.49.49,0,0,1,.27,0c.23,0,.31-.09.36-.3.24-.88.5-1.76.76-2.64a.34.34,0,0,1,.19-.2,1.08,1.08,0,0,1,1.42.64.36.36,0,0,1,0,.25l-1,3.2a2.09,2.09,0,0,0-.08.32c.3-.3.55-.54,1-.42,0,.32-.29.44-.53.63a.91.91,0,0,1,.91.33,1.17,1.17,0,0,1-.35.13c-.27,0-.53,0-.8-.06,0,0,0,0-.06.06Zm-10.9,6.7c.43.16.82.33,1.23.45a2.76,2.76,0,0,0,1.48.08,2.55,2.55,0,0,0,1.68-1.5,8.37,8.37,0,0,0,.72-3.45.29.29,0,0,0-.07-.18,6.93,6.93,0,0,0-1.46-1.18.23.23,0,0,0-.14,0,2.33,2.33,0,0,0-.47.14c-.39.21-.77.43-1.15.68-.12.08-.2.13-.32,0a4.85,4.85,0,0,1-.29.41,2.18,2.18,0,0,1-.35.33.67.67,0,0,1-.91,0l-.17-.12-.18.95h.25a.84.84,0,0,1,.9.63,3.41,3.41,0,0,1,.14.55,1.9,1.9,0,0,1-.63,2ZM4.33,18.84c-.17-.15-.28-.24-.23-.45s.06-.53.1-.8a.81.81,0,0,1,.68-.73,2.89,2.89,0,0,1,.59-.08,2.05,2.05,0,0,0,1.84-1.62,2.43,2.43,0,0,0-.25-1.33.57.57,0,0,0-.39-.27,1.94,1.94,0,0,0-.79.14c-1,.42-1.95.86-2.9,1.33a2.24,2.24,0,0,0-.72.54,2.57,2.57,0,0,0,.28,3.33,1.13,1.13,0,0,0,1.06.3,2,2,0,0,0,1.52-1.61,4,4,0,0,0,.07-.5c-.5.05-.64.18-.72.62,0,.18,0,.36-.07.54S4.35,18.62,4.33,18.84Zm9.25-9.42A2.28,2.28,0,0,0,14,8.21,5.38,5.38,0,0,0,13.7,6a2.58,2.58,0,0,0-1.38-1.6A5.25,5.25,0,0,0,10.72,4c-.05,0-.12,0-.14,0a1.06,1.06,0,0,1-.85.35.72.72,0,0,0-.25.07c-.4.22-.78.46-1.19.66A.67.67,0,0,0,8,5.41c.28.48.56.89.77,1.34A4.5,4.5,0,0,1,9,9.34c0,.14,0,.22.15.27s.43.17.64.25l.74.26,0,0A1.56,1.56,0,0,1,9.8,8.82a2,2,0,0,1,2.29-2.3,2.36,2.36,0,0,1,1.47.79l.19-.1c0,.08.07.15.1.23a.12.12,0,0,1,0,.1.87.87,0,0,0,0,.53,1,1,0,0,1,0,.3C13.74,8.73,13.66,9.09,13.58,9.42ZM7.32,5.57l-.24.14a2.45,2.45,0,0,0-.9,1.2,7,7,0,0,0-.37,3.57,2.6,2.6,0,0,0,1,1.75.34.34,0,0,0,.44,0,2.53,2.53,0,0,0,.49-.49,5.71,5.71,0,0,0,.85-1.9c.08-.31.12-.63.19-1a1.2,1.2,0,0,1-1.46-.21.43.43,0,0,1-.14-.24c0-.35,0-.69,0-1C7.21,6.79,7.27,6.21,7.32,5.57Zm5.86,3.82h.06a6.49,6.49,0,0,0,.26-.74A1.22,1.22,0,0,0,13,7.18a3,3,0,0,0-.79-.36,1.71,1.71,0,0,0-2.1,2.09,1.18,1.18,0,0,0,.66.95l-.07.22.08,0a7.65,7.65,0,0,0,1.18.06,1.42,1.42,0,0,0,1.18-.68l-.8.29-.14-.36-.54.18a.26.26,0,0,1-.18,0c-.14-.17-.26-.35-.4-.54l.36-.21c.16.2.27.45.59.25s.33-.33.18-.57L12,8.22c-.24-.38-.24-.38.08-.7a.2.2,0,0,1,.18,0,7.92,7.92,0,0,1,.78.26s.07.06.1.09c.2.36.2.39-.12.65a2.65,2.65,0,0,0-.26.21,1,1,0,0,0-.23.55l.55-.15Zm2.55,0a1.08,1.08,0,0,0-.06.2c-.43,1.5-.86,3-1.28,4.5-.09.32-.05.44.24.6a1.53,1.53,0,0,0,.38.12c.16,0,.25,0,.3-.18.44-1.48.89-3,1.34-4.44l.15-.51ZM12,12.8a1.7,1.7,0,0,0,.26,0,9.32,9.32,0,0,0,2.43-1.09.28.28,0,0,0,.11-.15c.08-.29.16-.58.25-.89a1.72,1.72,0,0,1-1.16-1.18,2.69,2.69,0,0,1-1.33,1s-.09.05-.1.08c-.06.23-.11.47-.16.7a.39.39,0,0,1-.06.19c-.1.08,0,.16,0,.26s.15.35-.12.42c0,0,0,0,0,.07C12.05,12.36,12,12.56,12,12.8Zm4.88-3.52,0,0c.37-1.23.75-2.46,1.12-3.69a.32.32,0,0,0,0-.14.8.8,0,0,0-.94-.47.31.31,0,0,0-.16.16c-.07.19-.11.39-.17.59l-.84,3c0,.09-.08.18.06.24ZM8.23,17.64l-.56,1.52a2.63,2.63,0,0,0,1.44-1.64,4.5,4.5,0,0,1-2-.37l-.64-.29c-.15-.07-.49.09-.49.23a2.64,2.64,0,0,0,.54,1.74c.15.19.3.47.62.24a1.31,1.31,0,0,0,.34-.27,2.52,2.52,0,0,0,.16-.44q.15-.42.33-.87ZM10.29,3.89a1.7,1.7,0,0,0-2.12-.57,1.72,1.72,0,0,0-1,2c.14,0,.26,0,.38,0a.38.38,0,0,0,.23-.13c.06-.07.06-.17.1-.25a4.54,4.54,0,0,1,.42-.89.93.93,0,0,1,1.3-.15A.49.49,0,0,0,10.29,3.89Zm2.81.69a1,1,0,0,0,.81.44.63.63,0,0,1,.65.49.87.87,0,0,1-.23,1c-.19.16-.19.17-.07.39a1.55,1.55,0,0,0,.23-2A1.13,1.13,0,0,0,13.1,4.58Zm-1,6.12-1-.24-.18.52,1.13.24ZM9,9.9c0,.07,0,.12,0,.17-.07.3,0,.34.26.43l.4.12c.13,0,.22,0,.24-.13s.09-.26-.1-.33Zm1.16.61a1.91,1.91,0,0,1,.32.16c.22.14.26.13.33-.12l0-.15-.67-.07Zm-1.34.15-.24.57a1.21,1.21,0,0,0,.38-.17l.39-.22Zm3.16,1.17c0-.35-.08-.41-.47-.4l.38.35Z"/><path d="M6.5,21.44l-.58.08c-.14,0-.27,0-.29-.21s.06-.33.24-.34A4.08,4.08,0,0,1,6.5,21a4.23,4.23,0,0,1-.3-.42.32.32,0,0,1,.19-.49c.22-.09.37,0,.43.2a5.05,5.05,0,0,1,.06.68l.43-.38a.71.71,0,0,1,.14-.1c.22-.12.4-.1.5.07s0,.35-.19.46-.48.19-.7.28c.16.09.35.18.52.29s.24.19.11.37-.34.24-.49.09-.27-.33-.41-.5c0,.18,0,.37-.06.56s-.08.3-.28.26A.36.36,0,0,1,6.16,22a1.22,1.22,0,0,1,.14-.28A1.81,1.81,0,0,1,6.5,21.44Z"/><path d="M1.89,10.79c-.07-.11-.14-.2-.2-.31a.24.24,0,0,1,.16-.36c.18-.07.28,0,.31.18s0,.29,0,.46c.11-.1.21-.2.33-.29s.37-.14.45,0,0,.31-.23.41a3.27,3.27,0,0,1-.44.14,4.27,4.27,0,0,1,.38.22c.11.07.19.15.08.29s-.22.17-.34.06a3,3,0,0,1-.31-.37,2.34,2.34,0,0,1,0,.39c0,.12,0,.25-.23.21a.26.26,0,0,1-.18-.35,1.11,1.11,0,0,1,.09-.19l.14-.17a2,2,0,0,1-.38.06c-.12,0-.24,0-.26-.15s.07-.26.22-.26A1.87,1.87,0,0,1,1.89,10.79Z"/><path d="M17.74,2.43c.12.07.25.13.37.21s.21.16.08.3-.24.16-.36,0a3.07,3.07,0,0,1-.28-.35c0,.13,0,.26-.05.39s-.07.25-.23.19-.24-.16-.18-.32a2.08,2.08,0,0,1,.22-.38c-.12,0-.24.06-.36.07s-.26,0-.26-.19A.22.22,0,0,1,17,2.16l.38.06a1.21,1.21,0,0,1-.21-.31.36.36,0,0,1,0-.29.41.41,0,0,1,.28-.09.32.32,0,0,1,.16.22,2,2,0,0,1,0,.43c.13-.11.26-.23.4-.33s.28-.14.38,0,0,.29-.15.36A3.25,3.25,0,0,1,17.74,2.43Z"/><path d="M3.44,4.75a1.61,1.61,0,0,1-.18-.28.42.42,0,0,1,0-.31.28.28,0,0,1,.26-.11.44.44,0,0,1,.2.26,1.88,1.88,0,0,1,0,.42A2.62,2.62,0,0,1,4,4.49a1.37,1.37,0,0,1,.21-.15c.13,0,.25-.07.33.08a.22.22,0,0,1-.11.32A5.29,5.29,0,0,1,3.88,5l.35.2c.11.07.2.17.08.31s-.24.16-.36,0-.18-.22-.29-.35c0,.14,0,.27,0,.39s-.06.26-.23.21-.25-.16-.19-.32.13-.25.2-.39L3.1,5.1c-.14,0-.29,0-.3-.18s.13-.25.29-.24A1.67,1.67,0,0,1,3.44,4.75Z"/><path d="M13.18,22.33c.15-.12.28-.24.42-.34s.27-.11.37.05,0,.27-.14.34a3.86,3.86,0,0,1-.51.2c.13.08.26.14.38.22s.16.17.07.29-.21.17-.33.06a3.08,3.08,0,0,1-.33-.37c0,.13,0,.24,0,.36s0,.27-.23.23a.25.25,0,0,1-.19-.34,2.85,2.85,0,0,1,.21-.37,2.29,2.29,0,0,1-.34.07c-.13,0-.26,0-.28-.16a.23.23,0,0,1,.24-.26,1.81,1.81,0,0,1,.39.05c-.07-.11-.15-.2-.2-.3a.24.24,0,0,1,.16-.38c.16-.05.28,0,.31.21A3,3,0,0,1,13.18,22.33Z"/><path d="M14,3.79l-.14-.6.48-.11.14.6Z"/><path d="M15.31,17.48l.48-.11.14.6-.49.11Z"/><path d="M8.11,1.75l-.48.11-.15-.59L8,1.14Z"/><path d="M2.85,9.26l-.13-.6.48-.12.14.6Z"/><path d="M3.91,23.14l.51-.29.25.4-.53.3Z"/><path d="M2.3,19.56l.22.42L2,20.26l-.23-.41Z"/><path d="M17.56,10l-.11-.17A3,3,0,0,1,18.58,11a1.71,1.71,0,0,1-.37-.22c-.12-.14-.2-.32-.31-.47S17.68,10.08,17.56,10Z"/><path d="M9.92,21.66l-.45.23-.22-.43.45-.23Z"/><path d="M13.56,18.37l-.23.06-.07-.29.23-.06Z"/><path d="M14.54,19.12l-.08.24-.28-.08.05-.24Z"/><path d="M4.89,7.39l-.23.07-.07-.29.23-.07Z"/><path d="M6.4,4l-.07.23-.28-.08.06-.23Z"/><path d="M12.25,16,12,16l-.07-.28.23-.06Z"/><path d="M11.63,18.16l-.23.06L11.33,18C11.56,17.83,11.57,17.83,11.63,18.16Z"/><path d="M12.55,21.11l-.24,0-.06-.28.23-.05Z"/><path d="M3.26,20.93l.08.28-.24.07L3,21Z"/><path d="M1.76,22.69l-.23.07-.07-.29.22-.07Z"/><path d="M9.4,1.26l.24-.05.07.29-.23.06Z"/><path d="M15.69,20.9,16,21l-.07.23-.29-.08Z"/><path d="M5.92,15.52a.39.39,0,0,1-.41-.39.61.61,0,0,1,.62-.56.36.36,0,0,1,.4.38A.61.61,0,0,1,5.92,15.52Z"/><path d="M10.2,6.05a.38.38,0,0,1,.39.39.41.41,0,0,1-.42.43.39.39,0,0,1-.39-.4A.43.43,0,0,1,10.2,6.05Z"/><path d="M17.76,10.15a2.91,2.91,0,0,1,.34.92,2.07,2.07,0,0,0,1.3,1.5,1,1,0,0,1-.79-.16,1.66,1.66,0,0,1-.65-1c-.06-.2-.08-.41-.14-.62s-.16-.46-.25-.68-.14-.18-.3-.12c-.29,1-.59,2-.89,3-.22.72-.44,1.44-.65,2.16a.24.24,0,0,1-.26.21,1.19,1.19,0,0,1-1.17-.53.49.49,0,0,1-.05-.31c.19-.69.38-1.37.58-2.06l0-.18a8.16,8.16,0,0,1-2.63,1c-.12.58-.21,1.15-.36,1.71a4.38,4.38,0,0,1-1,1.9,2.47,2.47,0,0,1-1.09.7.32.32,0,0,0-.24.22,3.32,3.32,0,0,1-1,1.44,1.7,1.7,0,0,1-1.48.39.8.8,0,0,1-.33-.17A2.56,2.56,0,0,1,6,17.82c0-.19,0-.38-.06-.57-.19-.05-.24,0-.25.21a2.45,2.45,0,0,1-1.49,2.13,1.47,1.47,0,0,1-1.72-.4,2.87,2.87,0,0,1-.32-3.45,2.22,2.22,0,0,1,1-.8c1-.44,2-.9,3-1.36a.28.28,0,0,0,.13-.17c.07-.33.13-.67.19-1a.33.33,0,0,0,0-.22,3.51,3.51,0,0,1-.69-2A7.84,7.84,0,0,1,6,7.2,3.2,3.2,0,0,1,7,5.77a.26.26,0,0,0,0-.19A2.18,2.18,0,0,1,9,3.05a1.66,1.66,0,0,1,1.19.42,2.14,2.14,0,0,0,1.15.5,4.4,4.4,0,0,1,1.51.53.42.42,0,0,0,.25,0,2.09,2.09,0,0,1,1.08-.06,1.38,1.38,0,0,1,1,1.22,2,2,0,0,1-.58,1.68.56.56,0,0,0-.1.29c0,.24,0,.48,0,.71.35-.1.69-.2,1-.28a.68.68,0,0,1,.28,0c.23,0,.3-.08.36-.29q.36-1.32.75-2.64a.39.39,0,0,1,.2-.2,1.08,1.08,0,0,1,1.42.63.46.46,0,0,1,0,.26l-1,3.2c0,.08,0,.17-.09.31.3-.29.56-.53,1-.41,0,.32-.29.44-.52.63.35,0,.67,0,.91.33a1.17,1.17,0,0,1-.35.13c-.27,0-.54,0-.8-.06,0,0,0,0-.06.05ZM6.86,16.84c.43.17.82.34,1.23.46a2.76,2.76,0,0,0,1.48.08,2.57,2.57,0,0,0,1.68-1.5A8.54,8.54,0,0,0,12,12.43a.29.29,0,0,0-.07-.18,7.19,7.19,0,0,0-1.46-1.18.24.24,0,0,0-.14,0,2.35,2.35,0,0,0-.47.15,13.35,13.35,0,0,0-1.15.68c-.12.08-.21.13-.32,0-.1.15-.19.28-.29.41a2.18,2.18,0,0,1-.35.33.68.68,0,0,1-.91,0l-.17-.12-.18.94h.25a.85.85,0,0,1,.89.64,3.44,3.44,0,0,1,.15.55,1.9,1.9,0,0,1-.63,2ZM4.52,19c-.17-.15-.27-.24-.23-.45s.06-.53.11-.8a.83.83,0,0,1,.68-.74A2.88,2.88,0,0,1,5.67,17a2.06,2.06,0,0,0,1.84-1.62A2.43,2.43,0,0,0,7.26,14a.57.57,0,0,0-.39-.27,2.2,2.2,0,0,0-.8.13c-1,.43-1.94.87-2.9,1.33a2.23,2.23,0,0,0-.71.55,2.57,2.57,0,0,0,.28,3.33,1.14,1.14,0,0,0,1.06.3,2,2,0,0,0,1.52-1.61,4,4,0,0,0,.07-.5c-.5.05-.64.18-.72.61,0,.18,0,.37-.07.55S4.55,18.81,4.52,19Zm9.26-9.42a2.28,2.28,0,0,0,.44-1.22,5.2,5.2,0,0,0-.33-2.17,2.53,2.53,0,0,0-1.38-1.6,5.11,5.11,0,0,0-1.59-.46c-.05,0-.12,0-.15,0a1,1,0,0,1-.84.36.66.66,0,0,0-.25.07c-.4.22-.79.45-1.19.66a.67.67,0,0,0-.34.32c.27.47.56.89.76,1.34a4.42,4.42,0,0,1,.28,2.59c0,.14,0,.22.14.26s.43.18.65.26l.74.26,0-.05A1.56,1.56,0,0,1,10,9a2,2,0,0,1,2.28-2.3,2.42,2.42,0,0,1,1.48.78L14,7.41c0,.08.07.15.1.23a.12.12,0,0,1,0,.1.87.87,0,0,0,0,.53,1,1,0,0,1,0,.3C13.94,8.93,13.85,9.29,13.78,9.62ZM7.52,5.77l-.24.13a2.52,2.52,0,0,0-.9,1.21A7,7,0,0,0,6,10.68a2.6,2.6,0,0,0,1,1.75.34.34,0,0,0,.44,0A2.53,2.53,0,0,0,8,12a5.5,5.5,0,0,0,.84-1.9,8.71,8.71,0,0,0,.19-1,1.18,1.18,0,0,1-1.45-.21.43.43,0,0,1-.14-.24,9,9,0,0,1,0-1C7.41,7,7.47,6.4,7.52,5.77Zm5.86,3.81.06,0c.08-.25.19-.49.25-.74a1.21,1.21,0,0,0-.5-1.48A3,3,0,0,0,12.4,7,1.72,1.72,0,0,0,10.29,9.1a1.2,1.2,0,0,0,.67,1l-.07.22H11a6.57,6.57,0,0,0,1.18.07,1.42,1.42,0,0,0,1.18-.68l-.8.29-.14-.36c-.19.06-.36.13-.54.18a.26.26,0,0,1-.18,0c-.14-.17-.26-.35-.4-.54L11.63,9c.16.2.27.45.59.25s.33-.33.18-.57l-.16-.27C12,8,12,8,12.32,7.72a.22.22,0,0,1,.17-.06q.4.12.78.27a.18.18,0,0,1,.1.09c.21.36.2.39-.11.65a2.65,2.65,0,0,0-.26.21.92.92,0,0,0-.23.55l.55-.15Zm2.55.05a1.08,1.08,0,0,0-.06.2l-1.29,4.5c-.09.32,0,.44.25.6a1.53,1.53,0,0,0,.38.12c.15,0,.24,0,.3-.18.44-1.48.89-3,1.34-4.45l.15-.5ZM12.23,13a1.7,1.7,0,0,0,.26,0,9.32,9.32,0,0,0,2.43-1.09.25.25,0,0,0,.1-.15c.09-.29.17-.58.26-.89a1.75,1.75,0,0,1-1.17-1.18,2.62,2.62,0,0,1-1.32,1s-.09,0-.1.08c-.06.23-.11.46-.16.7,0,.06,0,.15-.06.19s-.06.16-.06.26.16.34-.12.41a.15.15,0,0,0,0,.08C12.25,12.56,12.24,12.76,12.23,13Zm4.88-3.52,0-.05c.38-1.23.75-2.46,1.13-3.7a.29.29,0,0,0,0-.13.79.79,0,0,0-.94-.47.25.25,0,0,0-.16.16c-.07.19-.12.39-.17.58l-.84,3c0,.09-.08.18.06.24ZM8.43,17.84l-.56,1.52a2.66,2.66,0,0,0,1.44-1.64,4.34,4.34,0,0,1-2-.38l-.64-.28c-.16-.07-.49.09-.49.23A2.64,2.64,0,0,0,6.75,19c.15.19.29.47.61.24A1.62,1.62,0,0,0,7.71,19a2.07,2.07,0,0,0,.15-.44l.34-.88ZM10.49,4.09a1.69,1.69,0,0,0-2.12-.57,1.71,1.71,0,0,0-1,2,2.48,2.48,0,0,0,.38,0,.48.48,0,0,0,.23-.13A1,1,0,0,0,8,5.14a5.52,5.52,0,0,1,.43-.88.92.92,0,0,1,1.3-.15A.49.49,0,0,0,10.49,4.09Zm2.81.68a.94.94,0,0,0,.81.44.65.65,0,0,1,.65.5.87.87,0,0,1-.23,1c-.19.16-.19.16-.07.39a1.55,1.55,0,0,0,.23-2A1.15,1.15,0,0,0,13.3,4.77Zm-1,6.13-1-.24-.18.52,1.13.24Zm-3.16-.8c0,.07,0,.12,0,.17-.07.3,0,.34.26.43l.4.12c.12,0,.21,0,.23-.13s.1-.27-.09-.33Zm1.16.61a1.37,1.37,0,0,1,.32.16c.22.14.26.13.33-.12a.77.77,0,0,0,0-.15l-.66-.07ZM9,10.86l-.24.57a1.33,1.33,0,0,0,.38-.17L9.5,11ZM12.13,12c0-.35-.08-.41-.47-.4L12,12Z"/><path d="M6.69,21.64l-.57.08c-.15,0-.27,0-.29-.21a.27.27,0,0,1,.24-.34,4.08,4.08,0,0,1,.63.06,4.23,4.23,0,0,1-.3-.42.31.31,0,0,1,.19-.49c.21-.09.37,0,.42.2a5.05,5.05,0,0,1,.07.68l.43-.39.14-.09c.22-.12.4-.1.5.07s0,.35-.19.46a7,7,0,0,1-.71.28c.17.09.36.18.53.29s.24.19.11.37-.34.24-.49.09a3.89,3.89,0,0,1-.41-.5c0,.18,0,.37-.06.56s-.08.3-.28.26a.36.36,0,0,1-.29-.43,1.43,1.43,0,0,1,.13-.28A3.11,3.11,0,0,1,6.69,21.64Z"/><path d="M2.09,11c-.07-.11-.15-.21-.2-.31a.24.24,0,0,1,.16-.36c.18-.07.27,0,.31.18s0,.29.05.45c.11-.09.21-.19.33-.28s.36-.14.45,0,0,.31-.23.41l-.44.14.38.21c.11.07.19.16.08.3s-.22.17-.34.06a3,3,0,0,1-.31-.37,2.45,2.45,0,0,1,0,.39c0,.12-.06.25-.23.2a.26.26,0,0,1-.19-.34c0-.07.07-.13.1-.19l.14-.17-.39.06c-.11,0-.23,0-.25-.16A.21.21,0,0,1,1.69,11,1.87,1.87,0,0,1,2.09,11Z"/><path d="M17.94,2.63l.37.2c.1.08.21.17.08.31a.23.23,0,0,1-.37,0,3.1,3.1,0,0,1-.27-.34c0,.13,0,.26-.05.39s-.07.24-.23.19a.24.24,0,0,1-.19-.33,3.6,3.6,0,0,1,.22-.37c-.11,0-.23.06-.35.07s-.27,0-.26-.19.1-.24.26-.23a2.58,2.58,0,0,1,.37.06,1.49,1.49,0,0,1-.2-.31.32.32,0,0,1,0-.29.35.35,0,0,1,.28-.09.32.32,0,0,1,.16.21,3.13,3.13,0,0,1,0,.44c.13-.11.26-.23.4-.33s.28-.14.38,0,0,.29-.15.36Z"/><path d="M3.64,4.94a1.26,1.26,0,0,1-.18-.27.42.42,0,0,1,0-.31c.05-.07.21-.14.27-.11a.44.44,0,0,1,.2.26,2,2,0,0,1,0,.42l.27-.25.21-.14c.12,0,.25-.07.33.08a.21.21,0,0,1-.11.31,5.27,5.27,0,0,1-.53.23c.11.07.23.12.34.2s.21.17.09.31-.24.16-.36,0a4.1,4.1,0,0,1-.29-.36c0,.15,0,.28,0,.4s-.06.26-.23.2a.23.23,0,0,1-.19-.32,2.81,2.81,0,0,1,.2-.38L3.3,5.3c-.15,0-.3,0-.3-.18s.13-.25.29-.24A2.86,2.86,0,0,1,3.64,4.94Z"/><path d="M13.38,22.52c.15-.12.28-.24.42-.33s.27-.12.37,0,0,.28-.14.35-.33.13-.51.2c.13.08.26.14.38.22s.16.17.06.29-.2.17-.32.06a3.08,3.08,0,0,1-.33-.37c0,.12,0,.24,0,.36s0,.27-.23.23a.25.25,0,0,1-.19-.34,3.35,3.35,0,0,1,.2-.37c-.11,0-.22.06-.33.07s-.26,0-.28-.16a.24.24,0,0,1,.24-.27,3.1,3.1,0,0,1,.39.06,2.7,2.7,0,0,1-.2-.31.23.23,0,0,1,.16-.37c.16-.06.28,0,.31.21A3,3,0,0,1,13.38,22.52Z"/><path d="M14.19,4l-.14-.6.48-.11.14.6Z"/><path d="M15.51,17.67l.48-.1.14.6-.49.11Z"/><path d="M8.31,2l-.48.11-.15-.59.48-.13Z"/><path d="M3.05,9.45l-.14-.6.48-.11.15.6Z"/><path d="M4.1,23.34l.52-.29.24.4-.52.3Z"/><path d="M2.49,19.76l.23.42-.52.28L2,20Z"/><path d="M17.76,10.15,17.65,10a3,3,0,0,1,1.12,1.25,1.61,1.61,0,0,1-.36-.22c-.12-.14-.2-.32-.31-.47A4,4,0,0,0,17.76,10.15Z"/><path d="M10.12,21.86l-.45.23-.22-.43.45-.23Z"/><path d="M13.76,18.57l-.23.06-.08-.29.24-.06Z"/><path d="M14.73,19.32l-.08.24-.27-.09,0-.23Z"/><path d="M5.09,7.59l-.24.06-.06-.28L5,7.3Z"/><path d="M6.6,4.16l-.07.23L6.24,4.3l.07-.22Z"/><path d="M12.45,16.18l-.25,0-.06-.28.23-.06Z"/><path d="M11.82,18.36l-.22.06-.07-.26C11.76,18,11.77,18,11.82,18.36Z"/><path d="M12.75,21.31l-.24,0-.06-.28.23-.05Z"/><path d="M3.46,21.12l.08.29-.24.07-.07-.29Z"/><path d="M2,22.89,1.73,23l-.08-.3.23-.06Z"/><path d="M9.6,1.46l.24-.05.07.29-.24.05Z"/><path d="M15.89,21.1l.29.09-.07.23-.29-.08Z"/><path d="M6.12,15.72a.38.38,0,0,1-.41-.39.63.63,0,0,1,.62-.57.37.37,0,0,1,.4.39A.62.62,0,0,1,6.12,15.72Z"/><path d="M10.4,6.25a.38.38,0,0,1,.39.39.42.42,0,0,1-.42.43.4.4,0,0,1-.39-.4A.42.42,0,0,1,10.4,6.25Z"/></g><g class="cls-3"><path d="M17.42,9.81a2.91,2.91,0,0,1,.34.92,2.07,2.07,0,0,0,1.3,1.5,1,1,0,0,1-.79-.16,1.72,1.72,0,0,1-.66-1c-.06-.2-.07-.41-.13-.62s-.16-.46-.25-.68-.14-.18-.3-.12c-.29,1-.59,2-.89,3-.22.72-.44,1.44-.65,2.16a.24.24,0,0,1-.26.21A1.19,1.19,0,0,1,14,14.46a.49.49,0,0,1-.05-.31c.19-.69.38-1.37.58-2.06l0-.18a8.16,8.16,0,0,1-2.63,1c-.12.58-.21,1.15-.36,1.71a4.38,4.38,0,0,1-1,1.9,2.47,2.47,0,0,1-1.09.7.32.32,0,0,0-.24.22,3.41,3.41,0,0,1-1,1.44,1.7,1.7,0,0,1-1.48.39.8.8,0,0,1-.33-.17,2.56,2.56,0,0,1-.83-1.66c0-.19,0-.38-.06-.57-.19-.05-.24,0-.25.21a2.45,2.45,0,0,1-1.49,2.13,1.47,1.47,0,0,1-1.72-.4,2.87,2.87,0,0,1-.33-3.45,2.31,2.31,0,0,1,1-.8c1-.44,2-.9,3-1.36a.28.28,0,0,0,.13-.17c.07-.33.13-.67.19-1a.33.33,0,0,0,0-.22,3.51,3.51,0,0,1-.69-2,7.84,7.84,0,0,1,.38-3,3.2,3.2,0,0,1,.94-1.43.26.26,0,0,0,.05-.19,2.19,2.19,0,0,1,2-2.54,1.71,1.71,0,0,1,1.19.43,2.14,2.14,0,0,0,1.15.5,4.4,4.4,0,0,1,1.51.53.42.42,0,0,0,.25,0,2,2,0,0,1,1.08-.06,1.38,1.38,0,0,1,1,1.22A2,2,0,0,1,14.27,7a.56.56,0,0,0-.1.29c0,.24,0,.48,0,.71.35-.1.69-.2,1-.28a.68.68,0,0,1,.28,0c.23,0,.3-.08.36-.29q.36-1.32.75-2.64a.39.39,0,0,1,.2-.2,1.07,1.07,0,0,1,1.42.63.46.46,0,0,1,0,.26l-1,3.2c0,.08,0,.17-.09.31.3-.29.56-.53,1-.41,0,.32-.29.44-.52.63.35,0,.67,0,.91.33a1.17,1.17,0,0,1-.35.13c-.27,0-.54,0-.8-.06,0,0,0,0-.06.05ZM6.52,16.5c.43.17.82.34,1.23.46A2.76,2.76,0,0,0,9.23,17a2.57,2.57,0,0,0,1.68-1.5,8.54,8.54,0,0,0,.72-3.45.29.29,0,0,0-.07-.18,6.87,6.87,0,0,0-1.46-1.18.24.24,0,0,0-.14,0,2.35,2.35,0,0,0-.47.15,13.35,13.35,0,0,0-1.15.68c-.12.08-.21.13-.32,0-.1.15-.19.28-.29.41a2.18,2.18,0,0,1-.35.33.68.68,0,0,1-.91,0l-.17-.12-.18.94h.25a.86.86,0,0,1,.89.64,3.44,3.44,0,0,1,.15.55,1.9,1.9,0,0,1-.63,2ZM4.18,18.7c-.17-.15-.27-.24-.23-.45s.06-.53.11-.8a.83.83,0,0,1,.68-.74,2.88,2.88,0,0,1,.59-.07A2.06,2.06,0,0,0,7.17,15a2.43,2.43,0,0,0-.25-1.33.57.57,0,0,0-.39-.27,2.17,2.17,0,0,0-.8.13c-1,.43-1.94.87-2.9,1.33a2.23,2.23,0,0,0-.71.55,2.57,2.57,0,0,0,.28,3.33,1.14,1.14,0,0,0,1.06.3A2,2,0,0,0,5,17.45a4,4,0,0,0,.07-.5c-.5.05-.64.18-.72.61,0,.18,0,.37-.07.55S4.21,18.47,4.18,18.7Zm9.26-9.42a2.31,2.31,0,0,0,.44-1.22,5.2,5.2,0,0,0-.33-2.17,2.56,2.56,0,0,0-1.38-1.6,5.19,5.19,0,0,0-1.59-.46.19.19,0,0,0-.15,0,1,1,0,0,1-.84.36.66.66,0,0,0-.25.07c-.4.22-.79.45-1.19.66a.63.63,0,0,0-.34.32c.27.47.56.89.76,1.34A4.42,4.42,0,0,1,8.85,9.2c0,.14,0,.22.14.26s.43.18.65.26l.74.26,0-.05a1.59,1.59,0,0,1-.76-1.25,2,2,0,0,1,2.29-2.3,2.42,2.42,0,0,1,1.48.78l.19-.09c0,.08.07.15.1.22a.14.14,0,0,1,0,.11.87.87,0,0,0,0,.53,1,1,0,0,1,0,.3C13.6,8.59,13.51,8.94,13.44,9.28ZM7.18,5.43l-.24.13A2.52,2.52,0,0,0,6,6.77a7,7,0,0,0-.37,3.57,2.6,2.6,0,0,0,1,1.75.34.34,0,0,0,.44,0,2.53,2.53,0,0,0,.49-.49,5.5,5.5,0,0,0,.84-1.9,8.71,8.71,0,0,0,.19-1,1.18,1.18,0,0,1-1.45-.21.43.43,0,0,1-.14-.24,9,9,0,0,1,0-1C7.07,6.65,7.13,6.06,7.18,5.43ZM13,9.24l.06,0c.08-.25.19-.49.25-.74A1.21,1.21,0,0,0,12.85,7a3,3,0,0,0-.79-.36A1.72,1.72,0,0,0,10,8.76a1.2,1.2,0,0,0,.67,1l-.07.22h.08a6.57,6.57,0,0,0,1.18.07A1.42,1.42,0,0,0,13,9.34l-.8.29-.14-.36c-.19.06-.36.13-.54.18a.26.26,0,0,1-.18,0c-.14-.17-.26-.35-.4-.54l.36-.21c.16.2.27.45.59.25s.33-.33.18-.57l-.16-.27c-.24-.38-.24-.39.08-.7a.22.22,0,0,1,.17-.06q.4.12.78.27a.18.18,0,0,1,.1.09c.21.36.2.39-.11.65a1.83,1.83,0,0,0-.26.21.92.92,0,0,0-.23.55L13,8.94Zm2.55,0a1.08,1.08,0,0,0-.06.2L14.24,14c-.09.32,0,.44.25.6a2.11,2.11,0,0,0,.38.12c.15,0,.24,0,.3-.18.44-1.48.89-3,1.34-4.45l.15-.5Zm-3.7,3.37a1.86,1.86,0,0,0,.26,0,9.47,9.47,0,0,0,2.43-1.09.25.25,0,0,0,.1-.15c.09-.29.17-.58.26-.89a1.75,1.75,0,0,1-1.17-1.18,2.62,2.62,0,0,1-1.32,1s-.09,0-.1.08c-.06.23-.11.46-.16.69,0,.07,0,.16-.06.2s-.06.16-.06.26.16.34-.12.41a.15.15,0,0,0,0,.08C11.91,12.22,11.9,12.42,11.89,12.66Zm4.88-3.52,0-.05c.38-1.23.75-2.46,1.13-3.7a.29.29,0,0,0,0-.13A.79.79,0,0,0,17,4.79a.25.25,0,0,0-.16.16c-.07.19-.12.39-.17.58l-.84,3c0,.09-.08.18.06.24ZM8.09,17.5,7.53,19A2.69,2.69,0,0,0,9,17.38,4.34,4.34,0,0,1,7,17l-.64-.28c-.16-.07-.49.09-.49.23a2.64,2.64,0,0,0,.54,1.74c.15.19.29.47.61.24a1.62,1.62,0,0,0,.35-.27,2.07,2.07,0,0,0,.15-.44l.34-.88ZM10.15,3.75A1.69,1.69,0,0,0,8,3.18a1.71,1.71,0,0,0-1,2,2.48,2.48,0,0,0,.38,0,.48.48,0,0,0,.23-.13,1,1,0,0,0,.09-.26,5.52,5.52,0,0,1,.43-.88.92.92,0,0,1,1.3-.15A.49.49,0,0,0,10.15,3.75ZM13,4.43a.94.94,0,0,0,.81.44.63.63,0,0,1,.64.5.85.85,0,0,1-.22,1c-.19.16-.19.16-.07.39a1.55,1.55,0,0,0,.23-2A1.15,1.15,0,0,0,13,4.43Zm-1,6.13-1-.24-.19.52,1.14.24Zm-3.16-.8c0,.07,0,.12,0,.17-.07.3,0,.34.26.43l.4.12c.12,0,.21,0,.23-.13s.1-.27-.09-.33Zm1.16.61a1.37,1.37,0,0,1,.32.16c.22.14.26.13.33-.12a.77.77,0,0,0,0-.15L10,10.19Zm-1.34.15-.24.57a1.33,1.33,0,0,0,.38-.17l.39-.22Zm3.16,1.17c0-.35-.08-.41-.47-.4l.38.35Z"/><path d="M6.35,21.3l-.57.08c-.15,0-.27,0-.29-.21a.27.27,0,0,1,.24-.34,4.21,4.21,0,0,1,.63.06,4.23,4.23,0,0,1-.3-.42A.31.31,0,0,1,6.25,20c.21-.09.37,0,.42.2a5.05,5.05,0,0,1,.07.68l.43-.39.14-.09c.22-.12.4-.1.5.07s0,.35-.19.46a7,7,0,0,1-.71.28c.17.09.36.18.53.29s.24.19.11.37-.34.24-.49.09a3.89,3.89,0,0,1-.41-.5c0,.18,0,.37-.06.56s-.08.3-.28.26A.36.36,0,0,1,6,21.83a1.43,1.43,0,0,1,.13-.28A3.11,3.11,0,0,1,6.35,21.3Z"/><path d="M1.75,10.65c-.07-.11-.15-.21-.2-.31A.24.24,0,0,1,1.71,10c.18-.07.27,0,.31.18s0,.29,0,.45c.11-.09.21-.19.33-.28s.36-.14.44,0,0,.31-.22.41l-.44.14.38.21c.11.07.19.16.08.3s-.22.17-.34.06A3,3,0,0,1,2,11.07a2.45,2.45,0,0,1,0,.39c0,.11-.06.25-.23.2a.26.26,0,0,1-.19-.34c0-.07.07-.13.1-.19L1.77,11,1.38,11c-.11,0-.23,0-.25-.16a.22.22,0,0,1,.22-.26A2.91,2.91,0,0,1,1.75,10.65Z"/><path d="M17.6,2.29l.37.2c.1.08.21.17.08.31a.23.23,0,0,1-.37,0,3.1,3.1,0,0,1-.27-.34c0,.13,0,.26-.05.39s-.07.24-.23.19a.24.24,0,0,1-.19-.33,2.77,2.77,0,0,1,.22-.37c-.11,0-.23.06-.35.07s-.27,0-.26-.19.1-.24.26-.23a2.58,2.58,0,0,1,.37.06,1.49,1.49,0,0,1-.2-.31.32.32,0,0,1,0-.29.35.35,0,0,1,.28-.09.32.32,0,0,1,.16.21,2.12,2.12,0,0,1,0,.44c.14-.11.27-.23.41-.33s.28-.14.38,0,0,.29-.15.36Z"/><path d="M3.3,4.6a1.26,1.26,0,0,1-.18-.27A.42.42,0,0,1,3.1,4a.3.3,0,0,1,.27-.11.44.44,0,0,1,.2.26,2,2,0,0,1,0,.42l.27-.25.21-.14c.12,0,.25-.07.33.07a.22.22,0,0,1-.11.32,5.27,5.27,0,0,1-.53.23,3,3,0,0,1,.34.2c.12.07.2.17.09.31s-.24.16-.36,0A4.1,4.1,0,0,1,3.52,5c0,.15,0,.28,0,.4s-.06.26-.23.2a.23.23,0,0,1-.19-.32,2.81,2.81,0,0,1,.2-.38L3,5c-.15,0-.3,0-.3-.18s.13-.25.29-.24A2.86,2.86,0,0,1,3.3,4.6Z"/><path d="M13,22.18c.15-.12.28-.24.42-.33s.27-.12.37,0,0,.28-.14.35-.33.13-.51.2c.13.08.26.14.38.22s.16.17.06.29-.2.17-.32.06a3.08,3.08,0,0,1-.33-.37c0,.12,0,.24,0,.36s0,.27-.23.23a.25.25,0,0,1-.19-.34,3.35,3.35,0,0,1,.2-.37c-.11,0-.22.06-.33.07s-.26,0-.28-.16a.24.24,0,0,1,.24-.27,3.1,3.1,0,0,1,.39.06,2.7,2.7,0,0,1-.2-.31.23.23,0,0,1,.16-.37c.16-.06.28,0,.31.21A3,3,0,0,1,13,22.18Z"/><path d="M13.85,3.65l-.14-.6.48-.11.14.6Z"/><path d="M15.17,17.33l.48-.1.14.6-.49.11Z"/><path d="M8,1.61l-.48.11-.15-.59L7.82,1Z"/><path d="M2.71,9.11l-.14-.6.48-.11L3.2,9Z"/><path d="M3.76,23l.52-.28.24.4-.52.3Z"/><path d="M2.15,19.42l.23.42-.52.28-.23-.42Z"/><path d="M17.42,9.81l-.11-.18a3,3,0,0,1,1.12,1.24,1.31,1.31,0,0,1-.36-.21c-.12-.14-.2-.32-.31-.47A4,4,0,0,0,17.42,9.81Z"/><path d="M9.78,21.52l-.45.23-.22-.43.45-.23Z"/><path d="M13.42,18.23l-.23.06L13.11,18l.24-.06Z"/><path d="M14.39,19l-.08.24L14,19.13l.05-.23Z"/><path d="M4.75,7.25l-.24.06L4.45,7,4.67,7Z"/><path d="M6.26,3.82l-.07.23L5.9,4,6,3.74Z"/><path d="M12.11,15.84l-.25,0-.06-.28.23-.06Z"/><path d="M11.48,18l-.22.06-.07-.26C11.42,17.68,11.42,17.69,11.48,18Z"/><path d="M12.41,21l-.24,0-.06-.28.23-.05Z"/><path d="M3.12,20.78l.08.29L3,21.14l-.07-.29Z"/><path d="M1.62,22.55l-.23.07-.08-.3.23-.06Z"/><path d="M9.26,1.12l.24-.05.07.28-.24.06Z"/><path d="M15.55,20.76l.29.09-.07.23L15.48,21Z"/><path d="M5.78,15.38A.38.38,0,0,1,5.37,15,.63.63,0,0,1,6,14.42a.37.37,0,0,1,.4.39A.62.62,0,0,1,5.78,15.38Z"/><path d="M10.06,5.91a.38.38,0,0,1,.39.39.42.42,0,0,1-.43.43.4.4,0,0,1-.38-.4A.42.42,0,0,1,10.06,5.91Z"/></g><path class="cls-4" d="M17.62,10a2.91,2.91,0,0,1,.34.92,2.07,2.07,0,0,0,1.3,1.5,1,1,0,0,1-.79-.17,1.67,1.67,0,0,1-.66-1c-.06-.2-.07-.42-.13-.62s-.16-.46-.25-.68a.2.2,0,0,0-.3-.12c-.29,1-.59,2-.89,3-.22.72-.44,1.44-.65,2.16a.25.25,0,0,1-.27.21,1.19,1.19,0,0,1-1.16-.54.45.45,0,0,1-.05-.3c.18-.69.38-1.37.57-2.06a.84.84,0,0,0,.05-.18,8.16,8.16,0,0,1-2.63,1c-.12.58-.22,1.15-.36,1.71a4.29,4.29,0,0,1-1,1.89,2.41,2.41,0,0,1-1.09.71.35.35,0,0,0-.25.22,3.3,3.3,0,0,1-1,1.44A1.67,1.67,0,0,1,7,19.5a.78.78,0,0,1-.33-.16,2.56,2.56,0,0,1-.83-1.67c0-.18,0-.37-.06-.57-.19,0-.24,0-.25.22A2.44,2.44,0,0,1,4,19.45a1.48,1.48,0,0,1-1.71-.4A2.87,2.87,0,0,1,2,15.6a2.34,2.34,0,0,1,1-.8c1-.44,2-.9,3-1.36a.26.26,0,0,0,.12-.17c.08-.33.14-.67.2-1a.32.32,0,0,0,0-.23,3.52,3.52,0,0,1-.68-2,7.84,7.84,0,0,1,.38-3,3.18,3.18,0,0,1,.93-1.43.24.24,0,0,0,.06-.2,2.18,2.18,0,0,1,2-2.53,1.71,1.71,0,0,1,1.19.43,2.05,2.05,0,0,0,1.15.49,4.5,4.5,0,0,1,1.5.54.46.46,0,0,0,.26,0,2,2,0,0,1,1.08-.06,1.38,1.38,0,0,1,1,1.22,2,2,0,0,1-.58,1.68.56.56,0,0,0-.1.29c0,.24,0,.48,0,.71l1-.29a.86.86,0,0,1,.27,0c.24,0,.31-.08.37-.29q.36-1.32.75-2.64a.41.41,0,0,1,.2-.21,1.09,1.09,0,0,1,1.42.64.46.46,0,0,1,0,.26l-1,3.2c0,.08-.05.16-.09.31.3-.29.56-.54,1-.41,0,.32-.29.43-.53.63a.89.89,0,0,1,.92.33,1.12,1.12,0,0,1-.36.13c-.26,0-.53,0-.79-.06,0,0,0,0-.06.05ZM6.71,16.7c.44.16.83.34,1.24.46a2.66,2.66,0,0,0,1.48.07,2.53,2.53,0,0,0,1.68-1.49,8.54,8.54,0,0,0,.72-3.45.29.29,0,0,0-.07-.18,6.87,6.87,0,0,0-1.46-1.18.24.24,0,0,0-.14,0,1.84,1.84,0,0,0-.47.15c-.39.21-.78.43-1.15.67-.12.08-.21.13-.32,0-.1.14-.19.28-.29.4a1.87,1.87,0,0,1-.35.34.68.68,0,0,1-.91,0l-.17-.12-.19.94h.26a.86.86,0,0,1,.89.63,3.75,3.75,0,0,1,.15.55,1.91,1.91,0,0,1-.63,2ZM4.38,18.89c-.17-.14-.27-.24-.23-.44s.06-.53.11-.8a.82.82,0,0,1,.68-.74,2.3,2.3,0,0,1,.58-.07,2.07,2.07,0,0,0,1.85-1.62,2.52,2.52,0,0,0-.25-1.33.56.56,0,0,0-.39-.27,2,2,0,0,0-.8.13C5,14.17,4,14.62,3,15.08a2.35,2.35,0,0,0-.71.54A2.57,2.57,0,0,0,2.6,19a1.14,1.14,0,0,0,1.06.3,2,2,0,0,0,1.52-1.62c0-.15,0-.32.07-.49-.5.05-.64.17-.72.61,0,.18,0,.36-.07.55S4.41,18.67,4.38,18.89Zm9.25-9.42a2.25,2.25,0,0,0,.45-1.21,5.34,5.34,0,0,0-.33-2.17,2.56,2.56,0,0,0-1.38-1.6A5,5,0,0,0,10.78,4s-.13,0-.15,0a1,1,0,0,1-.84.36.77.77,0,0,0-.26.07c-.39.22-.78.45-1.18.66A.6.6,0,0,0,8,5.47c.27.47.56.89.76,1.34A4.49,4.49,0,0,1,9.05,9.4c0,.14,0,.21.14.26s.43.18.65.26l.74.26,0-.06a1.56,1.56,0,0,1-.76-1.24,2,2,0,0,1,2.29-2.3,2.44,2.44,0,0,1,1.48.78l.19-.09a2,2,0,0,1,.09.22.14.14,0,0,1,0,.11.87.87,0,0,0,0,.53.93.93,0,0,1,0,.29C13.8,8.78,13.71,9.14,13.63,9.47ZM7.38,5.62l-.25.14A2.47,2.47,0,0,0,6.24,7a7,7,0,0,0-.37,3.58,2.56,2.56,0,0,0,1,1.75.34.34,0,0,0,.44,0,2.53,2.53,0,0,0,.49-.49,5.69,5.69,0,0,0,.84-1.9c.08-.31.12-.63.19-1a1.2,1.2,0,0,1-1.45-.21.42.42,0,0,1-.14-.25,8.85,8.85,0,0,1,0-1C7.27,6.85,7.33,6.26,7.38,5.62Zm5.86,3.82.06,0c.08-.25.19-.49.25-.74A1.21,1.21,0,0,0,13,7.24a2.63,2.63,0,0,0-.78-.36A1.72,1.72,0,0,0,10.15,9a1.22,1.22,0,0,0,.66,1l-.06.21.08,0a5.77,5.77,0,0,0,1.18.06,1.43,1.43,0,0,0,1.18-.68l-.8.3-.14-.36-.55.18a.23.23,0,0,1-.18,0c-.13-.16-.25-.34-.39-.53l.36-.21c.16.2.27.45.59.25s.33-.33.18-.57l-.17-.27c-.23-.38-.23-.39.08-.7a.25.25,0,0,1,.18-.06l.78.26a.24.24,0,0,1,.1.1c.21.36.2.39-.11.65a2.78,2.78,0,0,0-.27.21,1,1,0,0,0-.22.55l.54-.15Zm2.54.05-.06.19c-.42,1.51-.85,3-1.28,4.51-.09.32,0,.44.25.59a1.63,1.63,0,0,0,.37.13c.16,0,.25,0,.31-.18.44-1.49.89-3,1.34-4.45.05-.16.09-.33.14-.5Zm-3.69,3.37a1.86,1.86,0,0,0,.26,0,9.47,9.47,0,0,0,2.43-1.09.25.25,0,0,0,.1-.15c.09-.29.17-.58.26-.89A1.77,1.77,0,0,1,14,9.52a2.68,2.68,0,0,1-1.32,1,.16.16,0,0,0-.1.08c-.06.23-.11.46-.16.69,0,.07,0,.16-.07.2s-.05.16-.05.26.16.34-.12.41a.34.34,0,0,0,0,.08C12.11,12.42,12.1,12.62,12.09,12.86ZM17,9.34s0,0,0-.05c.38-1.23.75-2.47,1.12-3.7a.17.17,0,0,0,0-.14A.8.8,0,0,0,17.18,5a.27.27,0,0,0-.16.17c-.07.19-.12.39-.17.58l-.84,3c0,.1-.08.19.06.25ZM8.29,17.7l-.56,1.52a2.69,2.69,0,0,0,1.44-1.64,4.45,4.45,0,0,1-2-.38l-.64-.28c-.16-.07-.49.09-.49.23a2.53,2.53,0,0,0,.54,1.74c.15.19.29.47.61.24a1.39,1.39,0,0,0,.35-.28,2,2,0,0,0,.15-.43l.34-.88ZM10.35,4a1.7,1.7,0,0,0-2.13-.58,1.72,1.72,0,0,0-1,2,1.63,1.63,0,0,0,.38,0,.4.4,0,0,0,.23-.12A1,1,0,0,0,7.89,5a4.78,4.78,0,0,1,.43-.88A.92.92,0,0,1,9.62,4,.49.49,0,0,0,10.35,4Zm2.81.68a.94.94,0,0,0,.81.44.64.64,0,0,1,.64.49.86.86,0,0,1-.22,1c-.19.16-.19.16-.07.38A1.54,1.54,0,0,0,14.55,5,1.15,1.15,0,0,0,13.16,4.63Zm-1,6.13-1-.24L11,11l1.14.24ZM9,10l0,.16c-.07.31-.05.35.25.44l.41.12c.12,0,.21,0,.23-.13s.1-.27-.1-.33Zm1.15.6a3.42,3.42,0,0,1,.33.16c.22.15.26.13.33-.11,0,0,0-.1,0-.16l-.66-.06Zm-1.33.16-.24.57A1.46,1.46,0,0,0,9,11.12l.38-.22ZM12,11.88c0-.34-.08-.4-.47-.39l.37.34Z"/><path class="cls-4" d="M6.55,21.49,6,21.58c-.15,0-.28,0-.29-.21s.06-.33.24-.34a4.34,4.34,0,0,1,.63.06,3.2,3.2,0,0,1-.3-.43.3.3,0,0,1,.19-.48c.21-.09.37,0,.42.19a5.38,5.38,0,0,1,.07.69l.43-.39.14-.09c.22-.13.4-.1.5.06s0,.36-.19.47a7,7,0,0,1-.71.28c.16.09.35.17.53.29s.24.19.1.36-.33.25-.48.1a3.89,3.89,0,0,1-.41-.5c0,.18,0,.37-.06.56s-.08.3-.29.26A.36.36,0,0,1,6.22,22a1.43,1.43,0,0,1,.13-.28A2,2,0,0,1,6.55,21.49Z"/><path class="cls-4" d="M2,10.85c-.07-.11-.15-.21-.2-.31a.24.24,0,0,1,.16-.37c.18-.06.27,0,.3.19a3.1,3.1,0,0,1,0,.45l.34-.28c.19-.14.36-.14.44,0s0,.31-.22.4a4.53,4.53,0,0,1-.44.15l.38.21c.11.07.19.16.08.3s-.22.17-.34.06a3.79,3.79,0,0,1-.31-.37c0,.13,0,.26,0,.39s-.06.25-.23.2a.26.26,0,0,1-.19-.34,1.14,1.14,0,0,1,.1-.19L2,11.16l-.38.06c-.11,0-.24,0-.25-.16a.22.22,0,0,1,.21-.26A3.05,3.05,0,0,1,2,10.85Z"/><path class="cls-4" d="M17.8,2.49c.12.07.25.12.36.2s.22.16.09.31a.23.23,0,0,1-.37,0,3.1,3.1,0,0,1-.27-.34c0,.13,0,.26-.05.38s-.07.25-.24.2a.24.24,0,0,1-.18-.33,2.77,2.77,0,0,1,.22-.37c-.12,0-.23.05-.35.06s-.27,0-.27-.18A.22.22,0,0,1,17,2.22a2.58,2.58,0,0,1,.37.06A1.77,1.77,0,0,1,17.17,2a.34.34,0,0,1,0-.28.31.31,0,0,1,.28-.09c.07,0,.14.13.16.21a3.15,3.15,0,0,1,0,.44c.14-.11.26-.23.41-.33s.28-.14.38,0,0,.29-.15.36Z"/><path class="cls-4" d="M3.5,4.8a1.35,1.35,0,0,1-.19-.27.47.47,0,0,1,0-.31.29.29,0,0,1,.27-.11.39.39,0,0,1,.19.26,1.43,1.43,0,0,1,0,.42L4,4.54a1.1,1.1,0,0,1,.21-.14.22.22,0,0,1,.33.07.22.22,0,0,1-.11.32c-.17.09-.35.15-.53.23l.34.19c.12.08.2.17.09.32a.22.22,0,0,1-.36,0,2.17,2.17,0,0,1-.29-.36,2.35,2.35,0,0,1,0,.4c0,.11-.05.26-.22.2s-.26-.15-.19-.32a2.81,2.81,0,0,1,.2-.38c-.11,0-.21.05-.32.06s-.29,0-.29-.18a.25.25,0,0,1,.28-.25A3.21,3.21,0,0,1,3.5,4.8Z"/><path class="cls-4" d="M13.23,22.38c.16-.12.28-.24.43-.33s.27-.12.37,0,0,.28-.14.35-.33.13-.51.2c.13.08.26.14.38.22s.16.17.06.28-.21.18-.32.07a4.1,4.1,0,0,1-.33-.37c0,.12,0,.24,0,.35s0,.27-.23.24a.25.25,0,0,1-.19-.34,3.35,3.35,0,0,1,.2-.37l-.33.06c-.13,0-.26,0-.28-.16a.23.23,0,0,1,.24-.26,3.1,3.1,0,0,1,.39.06,1.8,1.8,0,0,1-.2-.31.23.23,0,0,1,.16-.37c.16-.06.28,0,.31.21A3,3,0,0,1,13.23,22.38Z"/><path class="cls-4" d="M14.05,3.85l-.14-.6.48-.11.14.6Z"/><path class="cls-4" d="M15.37,17.53l.47-.1L16,18l-.49.11Z"/><path class="cls-4" d="M8.16,1.8l-.47.12-.15-.59L8,1.2Z"/><path class="cls-4" d="M2.91,9.31l-.14-.6.48-.11.15.6Z"/><path class="cls-4" d="M4,23.19l.52-.29.24.41-.52.3Z"/><path class="cls-4" d="M2.35,19.62l.23.41-.52.29-.23-.42Z"/><path class="cls-4" d="M17.62,10l-.11-.18a3,3,0,0,1,1.12,1.24,1.31,1.31,0,0,1-.36-.21c-.12-.14-.2-.32-.31-.47A4.17,4.17,0,0,0,17.62,10Z"/><path class="cls-4" d="M10,21.72,9.53,22l-.22-.43.45-.23Z"/><path class="cls-4" d="M13.62,18.42l-.24.07-.07-.29.24-.07Z"/><path class="cls-4" d="M14.59,19.18l-.08.23-.28-.08.06-.23Z"/><path class="cls-4" d="M5,7.45l-.24.06-.06-.28.22-.07Z"/><path class="cls-4" d="M6.46,4l-.07.23L6.1,4.16l.07-.23Z"/><path class="cls-4" d="M12.31,16l-.25,0L12,15.79l.23,0Z"/><path class="cls-4" d="M11.68,18.21l-.22.07L11.39,18C11.62,17.88,11.62,17.89,11.68,18.21Z"/><path class="cls-4" d="M12.61,21.17l-.24,0-.06-.28.23-.06Z"/><path class="cls-4" d="M3.32,21l.07.29-.23.07-.07-.29Z"/><path class="cls-4" d="M1.81,22.75l-.23.06-.07-.29.23-.07Z"/><path class="cls-4" d="M9.46,1.31l.24,0,.07.28-.24.06Z"/><path class="cls-4" d="M15.75,21l.29.09-.07.23-.29-.09Z"/><path class="cls-4" d="M6,15.58a.4.4,0,0,1-.41-.39.65.65,0,0,1,.62-.57.37.37,0,0,1,.41.39A.63.63,0,0,1,6,15.58Z"/><path class="cls-4" d="M10.26,6.11a.37.37,0,0,1,.38.39.41.41,0,0,1-.42.43.4.4,0,0,1-.38-.4A.42.42,0,0,1,10.26,6.11Z"/></g></g></svg>