<svg xmlns="http://www.w3.org/2000/svg" viewBox="0 0 38.55 24.66"><defs><style>.cls-1{isolation:isolate;}.cls-2{opacity:0.15;}.cls-2,.cls-3{mix-blend-mode:multiply;}.cls-4{fill:#fff;}</style></defs><title>convert-CUSTOMIZE-SVG-03</title><g class="cls-1"><g id="Layer_1" data-name="Layer 1"><g class="cls-2"><path d="M6,10.24H3.82V7.12c-.38.08-.49-.07-.51-.68l.48,0V6.39L1.2,6c0-.06.06-.11.09-.16l2-2.77A.24.24,0,0,1,3.5,3l4.15.56.07,0L6.27,5.63l0,.06c.06-.05.14-.08.18-.14l.56-.79.28.76h.06l-.1.16h9.62V10h2v4.57H11v4.34H4.35V14.37H6ZM4.05,6.43l0,.09.5.1a2.7,2.7,0,0,1-.27.15c-.19.08-.23.2-.23.4C4,8,4,8.9,4,9.77V10H16.66V5.92H7A1,1,0,0,0,6.59,6c-.19.08-.38.18-.61.29l.23-.35,0-.05A.55.55,0,0,0,6,6c-.13.16-.24.35-.37.51a.31.31,0,0,1-.2.09L4.8,6.53Zm2.19,3.83v4.08h12.4V10.26ZM4.59,18.69h6.12V14.61H4.59ZM4.42,5c.15-.08.3-.16.44-.25s.06-.12,0-.16-.11-.1-.15-.09a2.7,2.7,0,0,0-.48.16.22.22,0,0,0-.08.2C4.22,5,4.33,5,4.42,5Z"/><path d="M15.71,17.34a2.47,2.47,0,0,1,.61,0,1.83,1.83,0,0,0,1.84-.31.94.94,0,0,1-.78.63,2.46,2.46,0,0,1-1.14-.16,2.41,2.41,0,0,0-.6-.08.27.27,0,0,0-.2.11s.05.13.1.18q1.53,1.5,3.09,3a.26.26,0,0,1,.05.39,1.93,1.93,0,0,1-.44.46c-.32.21-.48.17-.75-.08-1-.9-1.93-1.81-2.91-2.71a.36.36,0,0,0-.24-.09.37.37,0,0,1-.37-.34.37.37,0,0,0-.1-.24c-.73-.69-1.46-1.38-2.21-2.07a.36.36,0,0,1-.12-.42.92.92,0,0,1,1-.68.47.47,0,0,1,.24.13l2.07,2,.13.12c-.09-.33-.19-.62.07-.88.24.13.2.39.28.62.12-.27.24-.49.61-.54a2.35,2.35,0,0,1-.12.46c-.07.14-.17.26-.25.39s0,.05,0,.07ZM14.6,18.51l.17.13,2.86,2.68c.2.19.31.21.55,0a2,2,0,0,0,.25-.25c.08-.1.06-.18,0-.27l-3.06-2.95-.09-.07Zm.42-1a1.6,1.6,0,0,1-.21-.13c-.7-.68-1.41-1.35-2.1-2a.45.45,0,0,0-.5-.11.61.61,0,0,0-.43.45.26.26,0,0,0,.06.21l.67.64,1.72,1.61Z"/><path d="M12.2,2.88l.63.71-.38.35-.57-.68Z"/><path d="M8.58,2.41l.64.71-.36.34-.59-.67Z"/><path d="M2.73,17.24l-.57-.67.32-.4.64.71Z"/><path d="M14.36,19.91l-.35.32-.56-.64-.08.05.36-.44Z"/><path d="M8.49,21.08l.37-.44.63.7-.36.35Z"/><path d="M3.1,21.15l.37-.45.63.71-.36.34Z"/><path d="M3,12.83l.63.71-.37.34-.59-.66Z"/><path d="M2.92,11.69,2.56,12,2,11.36,2.29,11Z"/><path d="M17.29,3.59l-.36.34-.64-.6.37-.45Z"/><path d="M15.71,17.34l-.12,0a1.67,1.67,0,0,1,.89-.28l.36,0c-.09.17-.28.23-.63.24A4.42,4.42,0,0,0,15.71,17.34Z"/><path d="M2.54,19.73l.27.11-.11.27L2.42,20Z"/><path d="M1.73,9.84l.11-.27.26.11L2,10Z"/><path d="M14.56,16.1,14.29,16l.11-.26.27.1Z"/><path d="M4.71,13.44l.1-.28.27.11-.1.27Z"/><path d="M4.9,20,5,19.73l.27.11-.11.26Z"/><path d="M10.31,5l.11-.28.27.11-.11.27Z"/><path d="M15.44,4.5l.27.11-.11.27-.26-.11Z"/><path d="M18.12,8.23,18,8.5l-.28-.1.11-.28Z"/><path d="M3.68,15.21l-.26-.11.1-.27.28.11Z"/><path d="M12.56,17.75l.26.1-.1.27-.27-.1Z"/><path d="M15.21,21.56,15,21.45l.1-.27.27.11Z"/><path d="M2,14.11l-.12.27-.27-.1L1.76,14Z"/><path d="M7.22,20.73l.11-.28.27.11-.12.27Z"/><path d="M17.55,6.38l.11-.26.27.1-.12.28Z"/><path d="M13.17,21.41l.11-.27.26.11-.1.27Z"/><path d="M17.82,16.08l-.11.27-.27-.11.11-.26Z"/><path d="M1.73,8l.11-.26.26.1L2,8.15Z"/><path d="M18,18.64l-.11.26-.27-.1.11-.27Z"/><path d="M11,20.37l-.11.27-.27-.11.1-.27Z"/><path d="M18.68,3.54l-.11.27L18.3,3.7l.11-.27Z"/><path d="M4.44,11.23l-.11.27-.27-.1.11-.27Z"/><path d="M3.52,18.33l.28.11-.11.26-.27-.1Z"/><path d="M14.19,7.05h1.54l0,.37c-.21-.44-.6-.34-1-.35V8c.32,0,.39,0,.51-.29v.67a1,1,0,0,0-.19-.26A.93.93,0,0,0,14.79,8c0,.26,0,.48,0,.69S15,9,15.15,9c.38,0,.56-.07.78-.45l0,.47H14.2c.28-.07.29-.28.29-.49v-1C14.49,7.22,14.45,7.17,14.19,7.05Z"/><path d="M4.76,7h.91c-.32.1-.26.24-.15.39L5.91,8a.3.3,0,0,1,0,.13c0,.14,0,.27,0,.41s0,.4.25.47H5.31c.26-.07.34-.22.32-.41a1.26,1.26,0,0,0-.06-.52A8.35,8.35,0,0,0,5,7.2,1.27,1.27,0,0,0,4.76,7Z"/><path d="M13.52,8,13.13,9h-.06L13,8.8c-.18-.44-.35-.88-.52-1.32-.07-.18-.14-.37-.35-.44H13c-.31.11-.26.29-.18.49s.28.7.43,1.08L13.53,8Z"/><path d="M9.26,7.05H10c-.24.09-.24.28-.24.48v.81c0,.51.09.62.58.73A4.13,4.13,0,0,1,9.88,9a.48.48,0,0,1-.38-.49c0-.33,0-.65,0-1S9.5,7.22,9.26,7.05Z"/><path d="M8.1,9a1.19,1.19,0,0,0,0-2A1,1,0,0,1,9,8,1.06,1.06,0,0,1,8.1,9Z"/><path d="M7.74,9a1,1,0,0,1-.09-1.95,1.14,1.14,0,0,0-.47,1A1,1,0,0,0,7.74,9Z"/><path d="M11,8.76c0-.44,0-.88,0-1.33a1.4,1.4,0,0,0-.16-.38h.52c-.29.08-.31.27-.3.47v.91C11,8.54,11,8.66,11,8.76Z"/><path d="M11.58,7.71l.27-.32s0-.06,0-.06-.23-.07-.2-.21.13-.1.19-.15.16.19.15.29A.47.47,0,0,1,11.58,7.71Z"/><path d="M6.16,7.05h.51l-.62.82,0,0,.23-.35C6.4,7.27,6.39,7.21,6.16,7.05Z"/><path d="M13.53,8c0-.14.09-.29.14-.43s.11-.35-.12-.48H14c-.11.19-.22.4-.34.6s-.1.21-.16.31Z"/><path d="M8.16,11.16a3.09,3.09,0,0,1,.43,0,.31.31,0,0,1,.17.15c.16.37.31.75.46,1.13l.11.25c.15-.34.28-.65.42-1l0-.12c.2-.46.2-.46.77-.45-.3.11-.29.32-.29.53v1a.41.41,0,0,0,.24.43H9.74c.27-.08.24-.29.24-.49a11.44,11.44,0,0,0,0-1.16l-.73,1.67-.72-1.63H8.44v.23c0,.31,0,.63,0,.95s0,.35.24.42h-.6c.28-.07.31-.24.3-.44V11.6C8.37,11.42,8.37,11.24,8.16,11.16Z"/><path d="M12.87,13.13a.38.38,0,0,0,.24-.4c0-.37,0-.74,0-1.12s0-.29-.22-.43a9.15,9.15,0,0,1,1.17,0,1,1,0,0,1,.62,1.64.83.83,0,0,1-.69.29C13.61,13.14,13.24,13.13,12.87,13.13ZM13.4,12v.7c0,.17.08.33.25.34a1,1,0,0,0,.56-.11,1,1,0,0,0,.26-1.19.88.88,0,0,0-.93-.59c-.11,0-.14.05-.14.15Z"/><path d="M15.16,11.16h1.5l0,.35c-.19-.36-.52-.34-.84-.32a.21.21,0,0,0-.14.12c0,.25,0,.49,0,.74.33.06.42,0,.54-.26v.65a.46.46,0,0,0-.38-.33c-.1,0-.17,0-.16.14s0,.33,0,.5a.37.37,0,0,0,.35.34c.4.05.57-.06.8-.45l0,.47H15.11c.27-.06.31-.23.31-.43V11.6C15.42,11.35,15.39,11.3,15.16,11.16Z"/><path d="M12.65,13.12h-.81c.25-.13.27-.17.18-.43s-.3-.46-.72-.37a.16.16,0,0,0-.09.07,1.3,1.3,0,0,0-.14.42c0,.1.07.21.11.31h-.43a4.36,4.36,0,0,0,.29-.48c.18-.42.35-.86.52-1.29a1.73,1.73,0,0,1,.12-.25c.07.18.13.3.19.43.16.4.32.8.5,1.19A2.37,2.37,0,0,0,12.65,13.12Zm-.81-.84-.3-.76-.28.76Z"/><path d="M17.23,12.74l.36-.43.08.06.56.63-.36.35Z"/><path d="M6.83,15.76h2l0,.42c-.17-.4-.5-.4-.85-.38,0,.56,0,1.11,0,1.66,0,.09.12.17.18.25H7.4c.25-.09.27-.28.27-.48V15.82c-.45-.08-.64,0-.88.44Z"/><path d="M6.64,15.77a.33.33,0,0,0-.25.37c0,.4,0,.8,0,1.2a.35.35,0,0,0,.25.38h-.8c.23-.08.25-.26.25-.46v-1.1a.35.35,0,0,0-.26-.39Z"/><path d="M9.2,17.17c0-.39-.09-.78-.13-1.17,0-.12,0-.24.17-.24s.18.11.17.24c-.05.38-.11.77-.16,1.16Z"/><path d="M9.23,17.29c.07.12.15.19.15.26s-.1.11-.15.17-.16-.11-.17-.17S9.14,17.41,9.23,17.29Z"/><path d="M6.17,10.44H4V7.32c-.38.08-.49-.07-.51-.68l.48,0V6.59L1.4,6.21c0-.06.06-.11.09-.16l2-2.77a.26.26,0,0,1,.26-.13c1.38.2,2.76.38,4.15.57l.07,0L6.46,5.83l0,0a.75.75,0,0,0,.18-.13c.18-.25.36-.5.56-.8l.27.77h.07l-.1.16h9.62v4.34h2v4.58H11.17v4.33H4.55V14.57H6.17ZM4.25,6.63l0,.09.49.1A2.71,2.71,0,0,1,4.46,7c-.19.07-.23.2-.23.4,0,.86,0,1.73,0,2.6v.23H16.86V6.11H7.17a1,1,0,0,0-.38.09c-.19.08-.38.18-.61.29l.23-.35,0,0a1,1,0,0,0-.16.12c-.13.17-.24.35-.37.52a.28.28,0,0,1-.21.08c-.21,0-.41,0-.62-.08Zm2.19,3.83v4.08h12.4V10.46ZM4.79,18.89h6.12V14.81H4.79ZM4.62,5.23c.15-.09.3-.16.44-.25a.22.22,0,0,0,.05-.16A.18.18,0,0,0,5,4.73a2.08,2.08,0,0,0-.48.16.22.22,0,0,0-.08.2C4.42,5.15,4.53,5.17,4.62,5.23Z"/><path d="M15.91,17.54a2.36,2.36,0,0,1,.6,0,1.85,1.85,0,0,0,1.85-.32,1,1,0,0,1-.78.64,2.52,2.52,0,0,1-1.15-.16,2.33,2.33,0,0,0-.59-.08.24.24,0,0,0-.2.11s0,.13.09.18c1,1,2.06,2,3.1,3a.27.27,0,0,1,.05.4,1.93,1.93,0,0,1-.44.46c-.32.21-.48.17-.75-.08L14.78,19a.36.36,0,0,0-.24-.09.37.37,0,0,1-.37-.34.37.37,0,0,0-.1-.24c-.73-.69-1.47-1.39-2.21-2.07a.36.36,0,0,1-.12-.42.92.92,0,0,1,1-.68.43.43,0,0,1,.23.12l2.08,2,.13.12c-.09-.33-.19-.62.07-.88.24.13.2.39.28.61a.72.72,0,0,1,.61-.53,2.35,2.35,0,0,1-.12.46,4.28,4.28,0,0,1-.26.38s0,0,0,.08Zm-1.12,1.17.18.13,2.86,2.67c.2.2.31.21.55,0a3,3,0,0,0,.25-.25c.08-.1.05-.18,0-.27l-3.06-2.95a.36.36,0,0,0-.09-.08Zm.43-1L15,17.58c-.71-.68-1.41-1.35-2.1-2a.47.47,0,0,0-.5-.12.61.61,0,0,0-.43.46.26.26,0,0,0,.06.21c.21.22.45.43.67.64l1.72,1.6Z"/><path d="M12.4,3.08l.63.71-.38.35-.57-.68Z"/><path d="M8.78,2.6l.63.72-.36.33L8.47,3Z"/><path d="M2.93,17.44l-.57-.67.32-.4.64.71Z"/><path d="M14.56,20.1l-.35.33-.57-.64-.07.05.36-.45Z"/><path d="M8.69,21.28l.37-.45.63.71-.36.35Z"/><path d="M3.3,21.35l.37-.45.63.71L3.94,22Z"/><path d="M3.19,13l.63.7-.37.35-.59-.66Z"/><path d="M3.12,11.89l-.36.34-.58-.67.31-.38Z"/><path d="M17.49,3.79l-.36.34-.64-.6.37-.45Z"/><path d="M15.91,17.54l-.12,0a1.68,1.68,0,0,1,.89-.29,2,2,0,0,0,.36,0c-.09.18-.28.24-.63.25A3,3,0,0,0,15.91,17.54Z"/><path d="M2.74,19.93,3,20l-.11.26-.27-.1Z"/><path d="M1.93,10,2,9.77l.26.11-.1.27Z"/><path d="M14.76,16.3l-.27-.11.11-.26.27.1Z"/><path d="M4.9,13.63,5,13.36l.27.11-.1.27Z"/><path d="M5.1,20.2l.1-.27.28.11-.11.26Z"/><path d="M10.51,5.16l.11-.27.27.11-.11.27Z"/><path d="M15.64,4.7l.27.11-.11.27L15.53,5Z"/><path d="M18.31,8.43l-.09.27-.28-.11.11-.27Z"/><path d="M3.88,15.41l-.26-.11.1-.27.27.11Z"/><path d="M12.76,17.94l.26.11-.1.27-.27-.11Z"/><path d="M15.41,21.76l-.26-.11.1-.27.27.11Z"/><path d="M2.23,14.31l-.11.27-.27-.11L2,14.2Z"/><path d="M7.42,20.92l.11-.27.27.11L7.68,21Z"/><path d="M17.74,6.58l.11-.27.27.11L18,6.7Z"/><path d="M13.36,21.61l.11-.27.27.1-.1.27Z"/><path d="M18,16.28l-.11.27-.27-.11.11-.26Z"/><path d="M1.92,8.24,2,8l.26.11-.1.26Z"/><path d="M18.22,18.84l-.11.26L17.84,19l.1-.26Z"/><path d="M11.24,20.56l-.12.28-.26-.12.1-.26Z"/><path d="M18.88,3.74,18.77,4l-.27-.1.11-.27Z"/><path d="M4.64,11.43l-.11.27-.27-.1.11-.28Z"/><path d="M3.72,18.53l.27.11-.11.26-.26-.1Z"/><path d="M14.39,7.24h1.53l0,.38c-.21-.44-.6-.35-1-.35v.87c.32,0,.39,0,.51-.28v.67a1,1,0,0,0-.19-.26A.93.93,0,0,0,15,8.18c0,.26,0,.48,0,.69s.17.28.36.31c.38,0,.56-.07.78-.45l0,.47H14.4c.28-.07.29-.28.29-.49v-1C14.68,7.42,14.65,7.37,14.39,7.24Z"/><path d="M5,7.24h.91c-.32.1-.26.24-.16.39l.4.57a.3.3,0,0,1,0,.13v.4c0,.21,0,.41.25.48H5.51c.26-.07.34-.22.32-.41a1.24,1.24,0,0,0-.06-.52,8.35,8.35,0,0,0-.58-.88A1.14,1.14,0,0,0,5,7.24Z"/><path d="M13.72,8.16l-.4,1.05h-.05L13.17,9l-.51-1.32c-.07-.18-.14-.37-.35-.44h.85c-.31.11-.26.29-.18.48.15.36.28.71.43,1.09l.32-.65Z"/><path d="M9.46,7.24h.77c-.24.09-.25.29-.24.49v.8c0,.52.09.63.58.74a4.13,4.13,0,0,1-.49-.07.48.48,0,0,1-.38-.49c0-.33,0-.65,0-1S9.7,7.42,9.46,7.24Z"/><path d="M8.3,9.22a1.18,1.18,0,0,0,0-2,1,1,0,0,1,.85.94A1,1,0,0,1,8.3,9.22Z"/><path d="M7.94,9.22a1,1,0,0,1-.88-.89,1,1,0,0,1,.79-1.07,1.14,1.14,0,0,0-.47,1A1,1,0,0,0,7.94,9.22Z"/><path d="M11.16,9c0-.44,0-.88,0-1.33A1.17,1.17,0,0,0,11,7.25h.53c-.29.08-.31.27-.3.47v.9A3,3,0,0,1,11.16,9Z"/><path d="M11.78,7.91l.27-.33-.05,0c-.13,0-.24-.07-.2-.21s.13-.1.19-.15.15.19.15.28A.49.49,0,0,1,11.78,7.91Z"/><path d="M6.36,7.25h.51l-.62.82,0,0,.23-.35C6.6,7.47,6.59,7.41,6.36,7.25Z"/><path d="M13.73,8.16a3.59,3.59,0,0,1,.14-.43c.07-.18.11-.35-.12-.48h.47l-.34.6-.16.31Z"/><path d="M8.35,11.35a3.2,3.2,0,0,1,.44,0,.24.24,0,0,1,.16.15c.17.37.32.75.47,1.13l.11.25.41-1a.61.61,0,0,0,.05-.12c.2-.46.2-.46.77-.45-.3.1-.29.31-.29.53v1a.41.41,0,0,0,.24.43H9.94c.26-.08.23-.3.23-.5a11.14,11.14,0,0,0,0-1.15L9.4,13.35l-.72-1.63h0V12c0,.31,0,.63,0,1s0,.35.24.42h-.6a.36.36,0,0,0,.3-.44V11.8C8.57,11.62,8.57,11.44,8.35,11.35Z"/><path d="M13.07,13.32a.37.37,0,0,0,.24-.39c0-.37,0-.75,0-1.12s0-.29-.22-.43a9.15,9.15,0,0,1,1.17,0A1,1,0,0,1,14.88,13a.87.87,0,0,1-.69.29Zm.53-1.09v.7c0,.17.07.33.25.34a1.15,1.15,0,0,0,.56-.11A1,1,0,0,0,14.67,12a.89.89,0,0,0-.93-.59c-.11,0-.15,0-.14.15Z"/><path d="M15.36,11.36h1.5l0,.35c-.19-.36-.52-.34-.84-.33a.23.23,0,0,0-.14.13c0,.25,0,.49,0,.73.32.07.42,0,.53-.25v.65a.44.44,0,0,0-.38-.33c-.1,0-.16,0-.16.13s0,.34,0,.51a.37.37,0,0,0,.35.34c.4.05.57-.06.8-.46l0,.48H15.3c.28-.06.32-.23.32-.43V11.8C15.61,11.54,15.58,11.5,15.36,11.36Z"/><path d="M12.85,13.32H12c.25-.13.27-.17.18-.43s-.3-.46-.72-.37a.16.16,0,0,0-.09.07,1.25,1.25,0,0,0-.14.41c0,.11.07.22.1.32H11a4.36,4.36,0,0,0,.29-.48c.18-.43.34-.86.52-1.29a2.15,2.15,0,0,1,.11-.25c.08.18.14.3.19.43.17.4.33.8.51,1.19A2.37,2.37,0,0,0,12.85,13.32ZM12,12.47l-.3-.75-.28.75Z"/><path d="M17.43,12.94l.36-.43.08.06.56.63-.36.35Z"/><path d="M7,16H9l0,.42c-.17-.4-.5-.4-.86-.38,0,.56,0,1.11,0,1.66,0,.08.12.17.17.25H7.59c.26-.09.27-.28.27-.48V16c-.44-.08-.63,0-.87.44Z"/><path d="M6.84,16a.34.34,0,0,0-.26.36v1.21a.35.35,0,0,0,.26.37H6c.23-.07.25-.26.25-.45,0-.37,0-.73,0-1.1,0-.18,0-.34-.25-.39Z"/><path d="M9.4,17.37c-.05-.39-.09-.78-.13-1.17,0-.12,0-.24.17-.24s.18.11.17.23c0,.39-.11.78-.16,1.17Z"/><path d="M9.43,17.49c.07.12.15.19.14.26s-.09.11-.14.17-.16-.11-.17-.18S9.34,17.61,9.43,17.49Z"/></g><g class="cls-3"><path d="M5.83,10.1H3.67V7c-.37.08-.48-.07-.5-.68l.48,0V6.25l-2.6-.38.09-.16,2-2.77a.26.26,0,0,1,.26-.13c1.38.2,2.76.38,4.15.57l.07,0L6.12,5.49l0,0a.75.75,0,0,0,.18-.13l.56-.8.27.77h.07l-.1.16h9.61V9.87h2v4.58H10.83v4.33H4.21V14.23H5.83ZM3.91,6.29l0,.09.49.1a2.71,2.71,0,0,1-.26.15c-.19.07-.23.2-.23.4,0,.86,0,1.73,0,2.6v.23H16.52V5.77H6.83a1.1,1.1,0,0,0-.39.09c-.19.08-.37.18-.6.29l.23-.35L6,5.75a1,1,0,0,0-.16.12c-.13.17-.24.35-.37.52a.28.28,0,0,1-.21.08c-.21,0-.41,0-.62-.08ZM6.1,10.12V14.2H18.5V10.12ZM4.45,18.55h6.12V14.47H4.45ZM4.28,4.89c.15-.09.3-.16.44-.25a.22.22,0,0,0,0-.16.18.18,0,0,0-.15-.09,2.08,2.08,0,0,0-.48.16.22.22,0,0,0-.08.2C4.08,4.81,4.19,4.83,4.28,4.89Z"/><path d="M15.57,17.2a2.36,2.36,0,0,1,.6,0A1.85,1.85,0,0,0,18,16.92a1,1,0,0,1-.78.64,2.52,2.52,0,0,1-1.15-.16,2.33,2.33,0,0,0-.59-.08.24.24,0,0,0-.2.11s0,.13.09.18c1,1,2.06,2,3.09,3,.15.14.16.27.06.4a1.93,1.93,0,0,1-.44.46c-.32.21-.48.17-.75-.08l-2.91-2.71a.36.36,0,0,0-.24-.09.37.37,0,0,1-.37-.34.37.37,0,0,0-.1-.24c-.73-.69-1.47-1.39-2.21-2.07a.36.36,0,0,1-.12-.42.92.92,0,0,1,1-.68.43.43,0,0,1,.23.12l2.08,2,.13.12c-.09-.33-.19-.62.07-.88.24.13.2.38.28.61a.72.72,0,0,1,.61-.53,2.35,2.35,0,0,1-.12.46,4.28,4.28,0,0,1-.26.38s0,0,0,.08Zm-1.12,1.17.18.13,2.86,2.67c.2.2.31.21.55,0a3,3,0,0,0,.25-.25c.08-.1.05-.18,0-.27l-3.06-2.95a.36.36,0,0,0-.09-.08Zm.43-1-.21-.13c-.71-.68-1.41-1.35-2.1-2a.47.47,0,0,0-.5-.12.61.61,0,0,0-.43.46.26.26,0,0,0,.06.21c.21.22.45.43.67.64L14.09,18Z"/><path d="M12.06,2.74l.63.71-.38.35-.57-.68Z"/><path d="M8.44,2.26,9.07,3l-.36.33-.58-.66Z"/><path d="M2.59,17.1,2,16.43l.32-.4.64.71Z"/><path d="M14.22,19.76l-.35.33-.57-.64-.07,0,.36-.44Z"/><path d="M8.35,20.94l.37-.45.63.71L9,21.55Z"/><path d="M3,21l.37-.45.63.71-.36.34Z"/><path d="M2.85,12.69l.63.7-.37.35-.59-.66Z"/><path d="M2.78,11.55l-.36.34-.58-.67.31-.38Z"/><path d="M17.15,3.45l-.36.34-.64-.6.37-.45Z"/><path d="M15.57,17.2l-.12,0a1.68,1.68,0,0,1,.89-.29,2,2,0,0,0,.36,0c-.09.18-.28.24-.63.25A3,3,0,0,0,15.57,17.2Z"/><path d="M2.39,19.58l.27.12L2.55,20l-.27-.1Z"/><path d="M1.59,9.7l.11-.27L2,9.54l-.1.27Z"/><path d="M14.42,16l-.27-.11.11-.26.27.1Z"/><path d="M4.56,13.29,4.67,13l.27.11-.1.27Z"/><path d="M4.76,19.86l.1-.27.28.11L5,20Z"/><path d="M10.17,4.82l.11-.27.27.11-.11.27Z"/><path d="M15.3,4.36l.27.11-.11.27-.27-.11Z"/><path d="M18,8.09l-.09.27-.28-.11L17.71,8Z"/><path d="M3.54,15.07,3.28,15l.1-.27.27.11Z"/><path d="M12.42,17.6l.26.11-.1.27-.27-.11Z"/><path d="M15.07,21.42l-.26-.11.1-.27.27.11Z"/><path d="M1.89,14l-.11.27-.27-.11.11-.27Z"/><path d="M7.08,20.58l.11-.27.27.11-.12.27Z"/><path d="M17.4,6.24,17.51,6l.27.11-.11.28Z"/><path d="M13,21.27l.11-.27.27.1-.1.27Z"/><path d="M17.68,15.94l-.11.27-.27-.11.11-.26Z"/><path d="M1.58,7.9l.12-.27L2,7.74,1.86,8Z"/><path d="M17.88,18.5l-.11.26-.27-.11.1-.26Z"/><path d="M10.9,20.22l-.12.28-.26-.12.1-.26Z"/><path d="M18.54,3.4l-.11.26-.27-.1.11-.27Z"/><path d="M4.3,11.09l-.11.27-.27-.1L4,11Z"/><path d="M3.38,18.19l.27.11-.11.26-.26-.1Z"/><path d="M14.05,6.9h1.53l0,.38c-.21-.44-.6-.35-1-.35V7.8c.32,0,.39,0,.51-.28v.67A1,1,0,0,0,15,7.93a.93.93,0,0,0-.32-.09c0,.26,0,.48,0,.69s.17.28.36.31c.38,0,.56-.07.78-.45l0,.47h-1.7c.28-.07.29-.28.29-.49v-1C14.34,7.08,14.31,7,14.05,6.9Z"/><path d="M4.62,6.9h.91c-.32.1-.26.24-.16.39l.4.57a.3.3,0,0,1,0,.13v.4c0,.2,0,.41.25.48H5.17c.26-.07.34-.22.32-.41a1.24,1.24,0,0,0-.06-.52,8.35,8.35,0,0,0-.58-.88A1.14,1.14,0,0,0,4.62,6.9Z"/><path d="M13.38,7.82l-.4,1h-.05l-.1-.21-.51-1.32c-.07-.18-.14-.37-.35-.44h.85c-.31.11-.26.29-.18.48.15.36.28.71.42,1.09l.33-.65Z"/><path d="M9.12,6.9h.77c-.24.09-.25.29-.24.49v.8c0,.52.09.63.58.74a4.13,4.13,0,0,1-.49-.07.47.47,0,0,1-.38-.49c0-.33,0-.65,0-1S9.36,7.08,9.12,6.9Z"/><path d="M8,8.88a1.18,1.18,0,0,0,0-2,1,1,0,0,1,.85.94A1,1,0,0,1,8,8.88Z"/><path d="M7.59,8.88A1,1,0,0,1,6.72,8a1,1,0,0,1,.79-1.07,1.14,1.14,0,0,0-.47,1A1,1,0,0,0,7.59,8.88Z"/><path d="M10.82,8.62c0-.44,0-.88,0-1.33a1.17,1.17,0,0,0-.17-.38h.53c-.29.08-.31.27-.3.47v.9A3,3,0,0,1,10.82,8.62Z"/><path d="M11.44,7.57l.26-.33s0,0,0,0-.24-.07-.2-.21.12-.1.19-.15.15.19.15.28A.49.49,0,0,1,11.44,7.57Z"/><path d="M6,6.91h.51l-.62.82,0,0,.23-.35C6.26,7.13,6.25,7.07,6,6.91Z"/><path d="M13.39,7.82a3.59,3.59,0,0,1,.14-.43c.07-.18.11-.35-.12-.48h.47c-.11.19-.23.39-.34.6l-.16.31Z"/><path d="M8,11a3.23,3.23,0,0,1,.44,0,.24.24,0,0,1,.16.15c.17.37.32.75.47,1.13l.11.25.41-1a.61.61,0,0,0,.05-.12c.2-.46.2-.46.77-.45-.3.1-.29.31-.29.52v1a.41.41,0,0,0,.24.43H9.6c.26-.08.23-.3.23-.5a11.14,11.14,0,0,0,0-1.15L9.06,13l-.72-1.63H8.29v.23c0,.31,0,.63,0,1s0,.35.24.42h-.6a.36.36,0,0,0,.3-.44V11.46C8.23,11.28,8.22,11.1,8,11Z"/><path d="M12.73,13a.37.37,0,0,0,.24-.39c0-.37,0-.75,0-1.12s0-.29-.22-.43a9.15,9.15,0,0,1,1.17,0,1,1,0,0,1,.62,1.64.87.87,0,0,1-.69.29Zm.53-1.09v.7c0,.17.07.33.25.34a1.15,1.15,0,0,0,.56-.11,1,1,0,0,0,.26-1.19A.89.89,0,0,0,13.4,11c-.11,0-.15,0-.14.15Z"/><path d="M15,11h1.5l0,.35C16.35,11,16,11,15.7,11c0,0-.14.08-.14.13,0,.25,0,.49,0,.73.32.07.41,0,.53-.25v.65a.45.45,0,0,0-.38-.33c-.1,0-.16,0-.16.13s0,.34,0,.51a.37.37,0,0,0,.35.34c.4.05.57-.06.8-.46l0,.48H15c.28-.06.32-.23.32-.43V11.46C15.27,11.2,15.24,11.16,15,11Z"/><path d="M12.51,13H11.7c.25-.13.27-.17.17-.43s-.29-.46-.71-.37a.16.16,0,0,0-.09.07,1.25,1.25,0,0,0-.14.41c0,.11.07.22.1.32h-.42a4.36,4.36,0,0,0,.29-.48c.18-.43.34-.86.52-1.29a2.15,2.15,0,0,1,.11-.25c.08.18.14.3.19.43.17.4.33.8.51,1.19A2.37,2.37,0,0,0,12.51,13Zm-.81-.85-.3-.75-.28.75Z"/><path d="M17.09,12.6l.36-.43.08.06.56.63-.36.35Z"/><path d="M6.69,15.62h2l0,.42c-.17-.4-.5-.4-.86-.38,0,.56,0,1.11,0,1.66,0,.08.12.17.17.25H7.25c.26-.09.27-.28.27-.48V15.68c-.44-.08-.63,0-.87.44Z"/><path d="M6.5,15.63a.33.33,0,0,0-.26.36V17.2a.35.35,0,0,0,.26.37H5.7c.23-.07.25-.26.25-.45,0-.37,0-.74,0-1.1,0-.18,0-.34-.25-.39Z"/><path d="M9.06,17c-.05-.39-.09-.78-.13-1.17,0-.12,0-.24.17-.24s.18.11.17.23c0,.39-.11.78-.16,1.17Z"/><path d="M9.09,17.15c.07.12.15.19.14.26s-.09.11-.14.17-.16-.11-.17-.18S9,17.27,9.09,17.15Z"/></g><path class="cls-4" d="M6,10.3H3.87V7.18c-.37.08-.48-.08-.5-.68l.48,0V6.45l-2.6-.38c0-.07.06-.12.09-.16L3.3,3.14A.23.23,0,0,1,3.55,3l4.15.57.08,0L6.32,5.69l0,0a.76.76,0,0,0,.17-.13c.19-.25.36-.51.57-.8l.27.76h.07l-.1.16H17v4.34h2v4.58H11V19H4.41V14.43H6ZM4.11,6.49l0,.08.49.11a2.71,2.71,0,0,1-.26.15c-.19.07-.23.2-.23.39,0,.87,0,1.74,0,2.61v.23H16.72V6H7a1.06,1.06,0,0,0-.39.09c-.19.08-.37.17-.61.29L6.27,6l0,0a1,1,0,0,0-.16.12c-.13.17-.24.35-.38.52a.24.24,0,0,1-.2.08c-.21,0-.42-.06-.63-.09ZM6.3,10.32V14.4H18.7V10.32ZM4.65,18.75h6.12V14.67H4.65ZM4.48,5.08a4.38,4.38,0,0,0,.43-.24.17.17,0,0,0,0-.16.15.15,0,0,0-.14-.09,1.6,1.6,0,0,0-.48.16.22.22,0,0,0-.08.2C4.28,5,4.38,5,4.48,5.08Z"/><path class="cls-4" d="M15.77,17.4a2,2,0,0,1,.6,0,1.85,1.85,0,0,0,1.84-.32.92.92,0,0,1-.78.64,2.49,2.49,0,0,1-1.14-.16,2.35,2.35,0,0,0-.6-.08.24.24,0,0,0-.19.11s0,.13.09.18c1,1,2.06,2,3.09,3a.27.27,0,0,1,.06.4,1.79,1.79,0,0,1-.45.46c-.31.21-.47.17-.74-.08l-2.91-2.72a.41.41,0,0,0-.24-.08.38.38,0,0,1-.37-.34.4.4,0,0,0-.1-.24c-.73-.7-1.47-1.39-2.21-2.07a.35.35,0,0,1-.12-.42.92.92,0,0,1,1-.68.43.43,0,0,1,.23.12l2.07,2,.14.12c-.09-.33-.19-.62.07-.88.24.13.2.38.28.61a.72.72,0,0,1,.61-.53,3.61,3.61,0,0,1-.12.45c-.07.14-.18.26-.26.39s0,.05,0,.08Zm-1.12,1.17a1.4,1.4,0,0,1,.18.13l2.85,2.67c.21.2.32.21.55.05a1.54,1.54,0,0,0,.25-.26c.09-.09.06-.17,0-.26L15.39,18a.36.36,0,0,0-.09-.08Zm.43-1a1.21,1.21,0,0,1-.22-.14c-.7-.67-1.4-1.34-2.09-2a.47.47,0,0,0-.5-.12.61.61,0,0,0-.43.46.27.27,0,0,0,.05.21c.22.22.45.43.68.64l1.72,1.6Z"/><path class="cls-4" d="M12.26,2.94l.63.7L12.51,4l-.57-.68Z"/><path class="cls-4" d="M8.64,2.46l.63.72-.36.33-.58-.66Z"/><path class="cls-4" d="M2.79,17.3l-.58-.68.33-.39.63.7Z"/><path class="cls-4" d="M14.42,20l-.35.33-.57-.64-.08,0,.36-.44Z"/><path class="cls-4" d="M8.55,21.14l.37-.45.63.71-.36.35Z"/><path class="cls-4" d="M3.16,21.21l.37-.45.63.71-.36.34Z"/><path class="cls-4" d="M3,12.88l.64.71-.37.35-.59-.66Z"/><path class="cls-4" d="M3,11.75l-.36.33L2,11.42l.3-.38Z"/><path class="cls-4" d="M17.35,3.64,17,4l-.63-.61.37-.44Z"/><path class="cls-4" d="M15.77,17.4l-.12,0a1.68,1.68,0,0,1,.89-.29,2,2,0,0,0,.36,0c-.09.17-.28.24-.63.25A2.11,2.11,0,0,0,15.77,17.4Z"/><path class="cls-4" d="M2.59,19.78l.27.12-.11.26-.27-.1Z"/><path class="cls-4" d="M1.78,9.9l.12-.27.26.11L2.05,10Z"/><path class="cls-4" d="M14.62,16.16l-.27-.11.11-.27.27.11Z"/><path class="cls-4" d="M4.76,13.49l.11-.27.27.11L5,13.6Z"/><path class="cls-4" d="M5,20.06l.1-.28.27.11-.1.27Z"/><path class="cls-4" d="M10.37,5l.11-.27.27.11-.11.27Z"/><path class="cls-4" d="M15.5,4.56l.27.1-.11.27-.27-.1Z"/><path class="cls-4" d="M18.17,8.29l-.1.26-.27-.1.1-.27Z"/><path class="cls-4" d="M3.74,15.27l-.26-.11.1-.27.27.11Z"/><path class="cls-4" d="M12.61,17.8l.27.11-.1.27-.28-.11Z"/><path class="cls-4" d="M15.27,21.61l-.26-.1.1-.27.27.11Z"/><path class="cls-4" d="M2.09,14.17,2,14.43l-.27-.1.11-.27Z"/><path class="cls-4" d="M7.27,20.78l.11-.27.27.11-.11.27Z"/><path class="cls-4" d="M17.6,6.43l.11-.26.27.11-.11.27Z"/><path class="cls-4" d="M13.22,21.46l.11-.26.27.1-.11.27Z"/><path class="cls-4" d="M17.88,16.14l-.11.27-.27-.11.1-.26Z"/><path class="cls-4" d="M1.78,8.1l.11-.27.27.11-.1.26Z"/><path class="cls-4" d="M18.07,18.7,18,19l-.27-.11.1-.26Z"/><path class="cls-4" d="M11.1,20.42l-.12.27-.26-.11.1-.26Z"/><path class="cls-4" d="M18.74,3.59l-.11.27-.27-.1.11-.27Z"/><path class="cls-4" d="M4.5,11.29l-.11.27-.27-.1.11-.28Z"/><path class="cls-4" d="M3.58,18.39l.27.11-.11.26-.26-.1Z"/><path class="cls-4" d="M14.25,7.1h1.53l0,.38c-.21-.44-.6-.35-1-.35V8c.33.05.4,0,.52-.28v.67c-.07-.09-.11-.21-.19-.26A1,1,0,0,0,14.85,8c0,.26,0,.47,0,.69S15,9,15.2,9c.39.05.57-.06.79-.45l0,.48h-1.7c.28-.08.29-.28.29-.49s0-.69,0-1S14.51,7.23,14.25,7.1Z"/><path class="cls-4" d="M4.82,7.1h.91c-.32.09-.26.24-.16.39s.27.38.39.57a.19.19,0,0,1,0,.13v.4c0,.2,0,.41.24.48H5.37a.36.36,0,0,0,.32-.42,1.4,1.4,0,0,0-.06-.51,10.28,10.28,0,0,0-.58-.88A1.14,1.14,0,0,0,4.82,7.1Z"/><path class="cls-4" d="M13.58,8l-.4,1.05h0L13,8.86l-.51-1.32c-.07-.18-.14-.37-.36-.44H13c-.31.11-.26.29-.18.48.15.35.28.71.42,1.09L13.58,8Z"/><path class="cls-4" d="M9.32,7.1h.77c-.24.09-.25.29-.24.49v.8c0,.52.09.63.58.74a4.13,4.13,0,0,1-.49-.07.47.47,0,0,1-.38-.5c0-.32,0-.64,0-1S9.55,7.28,9.32,7.1Z"/><path class="cls-4" d="M8.16,9.08a1.19,1.19,0,0,0,0-2A1,1,0,0,1,9,8,1,1,0,0,1,8.16,9.08Z"/><path class="cls-4" d="M7.79,9.08a1,1,0,0,1-.87-.9,1,1,0,0,1,.79-1.06,1.14,1.14,0,0,0-.47,1A1,1,0,0,0,7.79,9.08Z"/><path class="cls-4" d="M11,8.82c0-.44,0-.89,0-1.33a1,1,0,0,0-.16-.38h.53c-.29.08-.31.26-.31.46s0,.61,0,.91A1.74,1.74,0,0,1,11,8.82Z"/><path class="cls-4" d="M11.64,7.77l.26-.33,0-.06c-.13,0-.24-.06-.2-.2s.12-.1.19-.15.15.19.15.28A.51.51,0,0,1,11.64,7.77Z"/><path class="cls-4" d="M6.22,7.1h.51l-.62.82h0c.07-.12.15-.24.23-.35S6.45,7.26,6.22,7.1Z"/><path class="cls-4" d="M13.58,8c.05-.14.09-.29.15-.43s.11-.35-.12-.48h.47c-.11.19-.23.39-.34.6a3,3,0,0,0-.16.31Z"/><path class="cls-4" d="M8.21,11.21a3.05,3.05,0,0,1,.43,0,.23.23,0,0,1,.17.15c.16.37.31.75.47,1.13l.11.25.41-1,0-.12c.2-.47.2-.47.76-.45-.29.1-.29.31-.28.52v1a.4.4,0,0,0,.24.42H9.8c.26-.07.23-.29.23-.49a11.14,11.14,0,0,0,0-1.15l-.73,1.67-.72-1.63h0v.22c0,.32,0,.64,0,1s0,.35.24.42h-.6a.39.39,0,0,0,.3-.45V11.66C8.43,11.48,8.42,11.3,8.21,11.21Z"/><path class="cls-4" d="M12.92,13.18a.35.35,0,0,0,.24-.39c0-.37,0-.75,0-1.12s0-.29-.21-.43a9.15,9.15,0,0,1,1.17,0,1,1,0,0,1,.62,1.64.88.88,0,0,1-.7.29Zm.54-1.09v.7c0,.17.07.33.25.34a1.2,1.2,0,0,0,.56-.11,1,1,0,0,0,.26-1.2.91.91,0,0,0-.93-.59c-.11,0-.15,0-.15.16S13.46,11.86,13.46,12.09Z"/><path class="cls-4" d="M15.22,11.22h1.5l0,.35c-.19-.36-.52-.34-.84-.33-.05,0-.14.08-.14.13,0,.24,0,.49,0,.73.33.07.42,0,.54-.25v.65a.45.45,0,0,0-.38-.33c-.1,0-.16,0-.16.13s0,.34,0,.51a.34.34,0,0,0,.35.33c.39,0,.57-.05.8-.45l0,.48H15.16a.37.37,0,0,0,.32-.43c0-.36,0-.72,0-1.08S15.44,11.36,15.22,11.22Z"/><path class="cls-4" d="M12.71,13.18H11.9c.25-.13.27-.18.17-.43s-.29-.46-.71-.37a.18.18,0,0,0-.1.07,1.51,1.51,0,0,0-.13.41c0,.11.07.21.1.32h-.42a5.55,5.55,0,0,0,.29-.48c.18-.43.34-.86.51-1.3l.12-.24c.08.18.14.3.19.43.17.39.33.79.51,1.18A2.11,2.11,0,0,0,12.71,13.18Zm-.81-.85-.3-.75-.28.75Z"/><path class="cls-4" d="M17.29,12.8l.36-.43.08.06.56.63-.36.35Z"/><path class="cls-4" d="M6.89,15.82h2l0,.42c-.17-.4-.5-.4-.86-.38,0,.56,0,1.11,0,1.65,0,.09.11.18.17.26H7.45c.26-.09.27-.28.27-.48V15.88c-.45-.09-.63,0-.87.44Z"/><path class="cls-4" d="M6.7,15.82a.35.35,0,0,0-.26.37V17.4a.34.34,0,0,0,.25.37H5.9c.22-.07.25-.26.25-.45,0-.37,0-.74,0-1.1,0-.18,0-.34-.25-.4Z"/><path class="cls-4" d="M9.26,17.22c0-.39-.09-.77-.13-1.17,0-.12,0-.23.16-.23s.19.11.18.23c-.05.39-.11.78-.16,1.17Z"/><path class="cls-4" d="M9.28,17.34c.08.13.16.2.15.27s-.09.11-.14.17-.16-.11-.17-.18S9.2,17.47,9.28,17.34Z"/></g></g></svg>