<svg xmlns="http://www.w3.org/2000/svg" viewBox="0 0 38.55 24.66"><defs><style>.cls-1{isolation:isolate;}.cls-2{opacity:0.15;}.cls-2,.cls-3{mix-blend-mode:multiply;}.cls-4{fill:#fff;}</style></defs><title>convert-CUSTOMIZE-SVG-03</title><g class="cls-1"><g id="Layer_1" data-name="Layer 1"><g class="cls-2"><path d="M8.2,12.35a.7.7,0,0,1-1-.38,1.34,1.34,0,0,1,0-.49c0-.22.22-.2.36-.29L6.14,8.68Q4.93,6.49,3.7,4.32a.33.33,0,0,1,0-.37A2,2,0,0,1,6.5,3a.42.42,0,0,1,.18.19L10.32,9.9a.4.4,0,0,0,.14.16c0-.07,0-.14,0-.21a3.07,3.07,0,0,1,0-1.28,1.36,1.36,0,0,1,.55-.85c.17-.13.24-.12.34.08a1.61,1.61,0,0,1,.06,1c0,.17-.07.33-.11.55L11.48,9a1.62,1.62,0,0,1,1.18-.63c.29,0,.39.09.26.35a1.91,1.91,0,0,1-.48.68,11.44,11.44,0,0,1-1,.72l-.22.14c.36,0,.66-.11,1-.14a3.8,3.8,0,0,1,1.77.18,1.09,1.09,0,0,0,.92,0,.81.81,0,0,1-.59.36,2.08,2.08,0,0,1-1.26-.16,3.62,3.62,0,0,0-1.6-.16,4.73,4.73,0,0,1,.85.16,3.7,3.7,0,0,1,1,.49,4.28,4.28,0,0,0,2.7.87,3.17,3.17,0,0,0,1.75-.46,2.35,2.35,0,0,1-2.22,1A4.66,4.66,0,0,1,13,11.26a3.27,3.27,0,0,0-1.78-.73l-.37.36.11.22,4.95,9.15a.33.33,0,0,1-.05.46,2.33,2.33,0,0,1-2.29.82.51.51,0,0,1-.37-.27C11.6,18.38,10,15.5,8.35,12.62A2.52,2.52,0,0,0,8.2,12.35Zm.24-.1,1.07,1.91,3.89,6.91a.45.45,0,0,0,.27.22,2,2,0,0,0,1.94-.66.24.24,0,0,0,.05-.33c-1.65-3-3.28-6.07-4.92-9.1L10.63,11Zm1.76-2c0-.08,0-.09,0-.1Q8.32,6.73,6.47,3.31a.39.39,0,0,0-.16-.15A1.77,1.77,0,0,0,4,3.93a.33.33,0,0,0,0,.38Q5.59,7.16,7.18,10l.64,1.13Z"/><path d="M18.74,12.65l-.4.36-.67-.64.39-.47Z"/><path d="M1.65,7.58l.4-.47.67.74-.39.37Z"/><path d="M3.42,21.32l.68.75-.39.37L3,21.79Z"/><path d="M2.5,12l-.68-.64.39-.47.68.75Z"/><path d="M13.18,3.61,12.51,3l.39-.47.68.75Z"/><path d="M8.71,20.71l.68.76-.4.35-.68-.64Z"/><path d="M2.17,17.1l-.68-.64L1.88,16l.68.75Z"/><path d="M9.68,4.92l.67.75L10,6l-.68-.64Z"/><path d="M16.8,7.68,16.13,7l.39-.48.68.76Z"/><path d="M16.43,18.48l-.4.36-.67-.64.39-.47Z"/><path d="M14.15,5.8l.29.12-.11.28L14,6.09Z"/><path d="M18.29,8.14l-.11.28-.29-.11L18,8Z"/><path d="M16.74,15.49l-.28-.12.11-.28.3.11Z"/><path d="M17.89,21.48,18,21.2l.28.12-.11.28Z"/><path d="M9,3.26l-.28-.12.11-.29L9.14,3Z"/><path d="M15.75,4.27l.29.12-.12.29-.29-.12Z"/><path d="M1.11,5.35l.29.12-.11.28L1,5.65Z"/><path d="M18,5.64l.12-.28.29.11-.12.29Z"/><path d="M13.82,8.66l.12-.29.29.11-.11.29Z"/><path d="M6.53,13.54l.28.11-.11.28-.29-.11Z"/><path d="M16.57,10.33l.29.11-.11.29-.29-.12Z"/><path d="M1.29,14.1,1,14l.11-.28.29.11Z"/><path d="M9.84,18.88l.28.12-.1.28-.3-.11Z"/><path d="M7.44,15.31l.29.12-.12.28-.28-.11Z"/><path d="M14.81,15.92l-.28-.11.11-.29.28.11Z"/><path d="M3.77,5l-.12.28L3.36,5.2l.12-.28Z"/><path d="M17.59,17l.28.12-.11.29-.29-.12Z"/><path d="M1.94,19.75l.29.12-.12.28-.28-.1Z"/><path d="M12.61,6.12l.3.12-.12.28L12.5,6.4Z"/><path d="M6.3,22l-.12.28-.29-.11L6,21.89Z"/><path d="M11.31,20.5l.28.13-.12.28-.28-.12Z"/><path d="M13.09,12.25l.29.12-.12.28L13,12.54Z"/><path d="M18.37,2.66l-.28-.12.12-.28.28.12Z"/><path d="M2.32,2.92,2,2.8l.12-.29.29.12Z"/><path d="M4.47,9.7l.12-.29.28.12-.11.28Z"/><path d="M3.36,15.07l.12-.29.28.12-.11.28Z"/><path d="M7.94,19.08l-.12.28-.28-.11.1-.28Z"/><path d="M4.58,12.06l-.12.28-.29-.11.12-.29Z"/><path d="M14.81,13.3l-.29-.11.12-.29.29.11Z"/><path d="M9.14,17.26,9,17.54l-.28-.11.11-.28Z"/><path d="M3.25,17.73l.12-.28.29.12-.12.28Z"/><path d="M5.89,17.14l.28.12-.12.28-.28-.1Z"/><path d="M4.47,20l.12-.29.28.12-.12.29Z"/><path d="M1.37,9.41l-.3-.11L1.19,9l.29.11Z"/><path d="M8.4,12.55a.69.69,0,0,1-1-.38,1.34,1.34,0,0,1,0-.49c0-.22.22-.2.35-.29L6.34,8.87Q5.13,6.7,3.89,4.52a.38.38,0,0,1,0-.37,2.05,2.05,0,0,1,2.81-1,.37.37,0,0,1,.18.19l3.65,6.73a.37.37,0,0,0,.14.17c0-.07,0-.14,0-.21a3.07,3.07,0,0,1,0-1.28,1.41,1.41,0,0,1,.55-.86c.17-.12.24-.11.33.08a1.57,1.57,0,0,1,.07,1c0,.17-.07.33-.12.55l.26-.31a1.59,1.59,0,0,1,1.18-.63c.29,0,.39.08.26.35a2.16,2.16,0,0,1-.48.68,11.44,11.44,0,0,1-1,.72l-.22.14c.36-.05.66-.11,1-.14a3.67,3.67,0,0,1,1.77.18,1.09,1.09,0,0,0,.92,0,.81.81,0,0,1-.59.36,2.13,2.13,0,0,1-1.27-.16,3.44,3.44,0,0,0-1.59-.16,4.9,4.9,0,0,1,.85.16,3.67,3.67,0,0,1,1,.48,4.14,4.14,0,0,0,2.7.87A3.08,3.08,0,0,0,18,11.59a2.38,2.38,0,0,1-2.22,1,4.73,4.73,0,0,1-2.55-1.15,3.28,3.28,0,0,0-1.78-.74l-.37.37.11.21,5,9.16a.33.33,0,0,1-.05.46,2.33,2.33,0,0,1-2.29.82.51.51,0,0,1-.37-.27L8.55,12.81A2.43,2.43,0,0,0,8.4,12.55Zm.24-.1,1.07,1.9q1.93,3.47,3.88,6.92a.47.47,0,0,0,.28.22,2,2,0,0,0,1.94-.66.24.24,0,0,0,0-.33Q13.39,16,10.93,11.4l-.1-.18Zm1.76-2a.6.6,0,0,0,0-.11L6.67,3.51a.41.41,0,0,0-.17-.15,1.76,1.76,0,0,0-2.31.77.32.32,0,0,0,0,.38l3.2,5.7c.21.37.41.74.64,1.13Z"/><path d="M18.94,12.84l-.4.36-.67-.64.39-.47Z"/><path d="M1.85,7.78l.39-.47.68.74-.39.37Z"/><path d="M3.62,21.52l.68.75-.39.37L3.23,22Z"/><path d="M2.69,12.17,2,11.53l.39-.47.68.75Z"/><path d="M13.38,3.81l-.67-.64.39-.47.68.75Z"/><path d="M8.91,20.91l.68.75-.4.36-.68-.64Z"/><path d="M2.37,17.3l-.68-.64.39-.47.68.75Z"/><path d="M9.87,5.12l.68.75-.39.36-.68-.64Z"/><path d="M17,7.87l-.67-.63.39-.48.68.75Z"/><path d="M16.63,18.68l-.4.36-.67-.64.39-.48Z"/><path d="M14.35,6l.29.11-.11.29-.3-.11Z"/><path d="M18.49,8.34l-.11.28-.3-.12.13-.28Z"/><path d="M16.94,15.69l-.28-.12.11-.28.3.11Z"/><path d="M18.09,21.68l.11-.28.29.12-.12.28Z"/><path d="M9.22,3.45l-.29-.12.12-.28.29.11Z"/><path d="M16,4.47l.29.12-.12.28-.29-.11Z"/><path d="M1.31,5.55l.29.12L1.49,6,1.2,5.84Z"/><path d="M18.2,5.84l.11-.29.3.12L18.49,6Z"/><path d="M14,8.86l.12-.29.28.11-.1.29Z"/><path d="M6.73,13.74l.28.11-.11.28L6.61,14Z"/><path d="M16.77,10.53l.29.11-.11.28-.29-.11Z"/><path d="M1.48,14.3l-.28-.12.11-.28L1.6,14Z"/><path d="M10,19.08l.29.12-.11.27-.29-.1Z"/><path d="M7.64,15.51l.29.12-.12.28-.28-.11Z"/><path d="M15,16.12,14.72,16l.12-.29.28.12Z"/><path d="M4,5.23l-.12.29L3.56,5.4l.12-.28Z"/><path d="M17.79,17.19l.28.12L18,17.6l-.29-.12Z"/><path d="M2.14,20l.29.12-.12.28L2,20.24Z"/><path d="M12.81,6.32l.29.12L13,6.72,12.7,6.6Z"/><path d="M6.49,22.2l-.11.28-.29-.11.12-.28Z"/><path d="M11.5,20.7l.29.13-.12.28L11.38,21Z"/><path d="M13.29,12.45l.29.12-.12.28-.29-.12Z"/><path d="M18.57,2.86l-.28-.12.12-.28.28.11Z"/><path d="M2.52,3.12,2.23,3l.12-.29.29.12Z"/><path d="M4.67,9.9l.12-.29.28.12L5,10Z"/><path d="M3.56,15.26,3.68,15,4,15.1l-.11.28Z"/><path d="M8.14,19.28,8,19.56l-.29-.11.11-.28Z"/><path d="M4.78,12.26l-.12.28-.29-.11.12-.29Z"/><path d="M15,13.5l-.29-.12.12-.28.28.11Z"/><path d="M9.34,17.46l-.12.28-.29-.11.12-.29Z"/><path d="M3.45,17.93l.12-.28.29.11-.12.29Z"/><path d="M6.09,17.34l.28.12-.12.28L6,17.63Z"/><path d="M4.67,20.24,4.79,20l.28.12L5,20.35Z"/><path d="M1.57,9.61l-.3-.11.12-.29.29.12Z"/></g><g class="cls-3"><path d="M8.06,12.21a.69.69,0,0,1-1-.38,1.34,1.34,0,0,1,0-.49c0-.22.22-.21.35-.29C6.94,10.2,6.47,9.37,6,8.53Q4.79,6.36,3.55,4.18a.38.38,0,0,1,0-.37,2.05,2.05,0,0,1,2.81-1A.37.37,0,0,1,6.53,3l3.65,6.73a.37.37,0,0,0,.14.17c0-.07,0-.14,0-.21a3.07,3.07,0,0,1,0-1.28,1.44,1.44,0,0,1,.54-.86c.18-.12.25-.11.34.08a1.57,1.57,0,0,1,.07,1c0,.17-.07.33-.12.55l.26-.31a1.59,1.59,0,0,1,1.18-.63c.29,0,.39.08.26.35a2.33,2.33,0,0,1-.48.68,11.44,11.44,0,0,1-1,.72l-.22.14c.36-.05.66-.11,1-.14a3.67,3.67,0,0,1,1.77.18,1.09,1.09,0,0,0,.92,0,.81.81,0,0,1-.59.36,2.13,2.13,0,0,1-1.27-.16,3.44,3.44,0,0,0-1.59-.16,4.9,4.9,0,0,1,.85.16,3.67,3.67,0,0,1,1,.48,4.14,4.14,0,0,0,2.7.87,3.08,3.08,0,0,0,1.75-.45,2.38,2.38,0,0,1-2.22,1,4.73,4.73,0,0,1-2.55-1.15,3.28,3.28,0,0,0-1.78-.74l-.37.37.11.21,4.95,9.16a.33.33,0,0,1,0,.46,2.33,2.33,0,0,1-2.29.82.51.51,0,0,1-.37-.27L8.21,12.47C8.16,12.39,8.12,12.3,8.06,12.21Zm.24-.1L9.37,14q1.94,3.47,3.88,6.92a.47.47,0,0,0,.28.22,2,2,0,0,0,1.94-.66.24.24,0,0,0,0-.33q-2.48-4.55-4.93-9.1l-.1-.18Zm1.76-2A.6.6,0,0,0,10,10L6.33,3.17A.41.41,0,0,0,6.16,3a1.76,1.76,0,0,0-2.31.77.32.32,0,0,0,0,.38L7,9.87c.21.37.41.74.64,1.13Z"/><path d="M18.6,12.5l-.4.36-.67-.64.39-.47Z"/><path d="M1.51,7.44,1.9,7l.68.74-.39.37Z"/><path d="M3.28,21.18l.68.75-.39.36-.68-.64Z"/><path d="M2.35,11.83l-.67-.64.39-.47.68.75Z"/><path d="M13,3.47l-.67-.64.39-.47.68.75Z"/><path d="M8.57,20.57l.67.75-.39.36L8.17,21Z"/><path d="M2,17l-.68-.64.39-.47.68.75Z"/><path d="M9.53,4.78l.68.75-.39.36-.68-.64Z"/><path d="M16.66,7.53,16,6.9l.39-.48.68.75Z"/><path d="M16.29,18.34l-.4.36-.67-.64.39-.48Z"/><path d="M14,5.66l.29.11-.11.29L13.89,6Z"/><path d="M18.15,8,18,8.28l-.3-.12.13-.28Z"/><path d="M16.6,15.35l-.28-.12.11-.28.3.11Z"/><path d="M17.75,21.34l.11-.28.29.11-.12.29Z"/><path d="M8.88,3.11,8.59,3l.12-.28L9,2.82Z"/><path d="M15.61,4.13l.29.12-.12.28-.29-.11Z"/><path d="M1,5.21l.29.12-.11.28L.86,5.5Z"/><path d="M17.86,5.5,18,5.21l.3.12-.12.28Z"/><path d="M13.68,8.52l.12-.29.28.11-.1.29Z"/><path d="M6.39,13.4l.28.11-.11.28-.29-.11Z"/><path d="M16.43,10.19l.29.11-.11.28-.29-.11Z"/><path d="M1.14,14l-.28-.12L1,13.56l.29.11Z"/><path d="M9.69,18.74l.29.12-.11.27L9.58,19Z"/><path d="M7.3,15.17l.29.12-.12.28-.28-.11Z"/><path d="M14.67,15.78l-.29-.12.12-.29.28.12Z"/><path d="M3.63,4.89l-.12.29-.29-.12.12-.28Z"/><path d="M17.45,16.85l.28.12-.11.29-.29-.12Z"/><path d="M1.8,19.61l.29.12L2,20l-.28-.11Z"/><path d="M12.47,6l.29.12-.11.28-.29-.12Z"/><path d="M6.15,21.86,6,22.14,5.75,22l.12-.28Z"/><path d="M11.16,20.36l.29.13-.12.28L11,20.65Z"/><path d="M13,12.11l.29.12-.12.28-.29-.12Z"/><path d="M18.23,2.52,18,2.4l.12-.28.28.11Z"/><path d="M2.18,2.78l-.29-.12L2,2.37l.29.12Z"/><path d="M4.33,9.55l.12-.28.28.12-.11.28Z"/><path d="M3.22,14.92l.12-.28.28.11L3.51,15Z"/><path d="M7.8,18.94l-.12.28-.29-.11.11-.28Z"/><path d="M4.44,11.92l-.12.28L4,12.09l.12-.29Z"/><path d="M14.67,13.16,14.38,13l.12-.28.28.11Z"/><path d="M9,17.12l-.12.28-.29-.11L8.71,17Z"/><path d="M3.11,17.59l.12-.28.29.11-.12.29Z"/><path d="M5.75,17l.28.12-.12.28-.28-.11Z"/><path d="M4.33,19.9l.12-.29.28.12L4.61,20Z"/><path d="M1.23,9.27l-.3-.11.12-.29L1.34,9Z"/></g><path class="cls-4" d="M8.26,12.41a.7.7,0,0,1-1-.38,1.38,1.38,0,0,1,0-.5c0-.21.21-.2.35-.28L6.2,8.73Q5,6.56,3.75,4.38a.38.38,0,0,1,0-.37A2.06,2.06,0,0,1,6.55,3a.47.47,0,0,1,.18.19L10.37,10a.47.47,0,0,0,.15.17,1.55,1.55,0,0,1,0-.21,2.91,2.91,0,0,1,0-1.28A1.44,1.44,0,0,1,11,7.77c.18-.12.25-.11.34.08a1.57,1.57,0,0,1,.07,1c0,.16-.07.33-.12.55a3.46,3.46,0,0,1,.26-.31,1.59,1.59,0,0,1,1.18-.63c.29,0,.38.08.26.35a2.47,2.47,0,0,1-.48.68,9.51,9.51,0,0,1-1,.71l-.23.15c.37-.06.67-.11,1-.14a3.69,3.69,0,0,1,1.77.18,1.1,1.1,0,0,0,.92,0,.84.84,0,0,1-.6.36,2,2,0,0,1-1.26-.17,3.58,3.58,0,0,0-1.59-.15,4.9,4.9,0,0,1,.85.16,3.67,3.67,0,0,1,1,.48,4.2,4.2,0,0,0,2.7.87,3.08,3.08,0,0,0,1.75-.45,2.4,2.4,0,0,1-2.23,1,4.65,4.65,0,0,1-2.54-1.16,3.38,3.38,0,0,0-1.78-.73l-.37.37.11.21,5,9.16a.34.34,0,0,1-.05.45,2.3,2.3,0,0,1-2.29.82.46.46,0,0,1-.37-.26L8.41,12.67Zm.23-.1,1.07,1.9c1.3,2.31,2.59,4.62,3.89,6.92a.56.56,0,0,0,.28.22,2,2,0,0,0,1.94-.67.23.23,0,0,0,.05-.32q-2.47-4.55-4.93-9.1l-.1-.18Zm1.77-2c0-.08,0-.1,0-.11L6.53,3.37a.31.31,0,0,0-.17-.15A1.78,1.78,0,0,0,4,4a.33.33,0,0,0,0,.38l3.2,5.7.63,1.13Z"/><path class="cls-4" d="M18.79,12.7l-.39.36-.68-.64.4-.47Z"/><path class="cls-4" d="M1.71,7.63l.39-.46.68.74-.39.37Z"/><path class="cls-4" d="M3.48,21.37l.67.76-.38.36-.68-.64Z"/><path class="cls-4" d="M2.55,12l-.67-.64.39-.47.68.75Z"/><path class="cls-4" d="M13.24,3.66,12.56,3l.4-.47.68.76Z"/><path class="cls-4" d="M8.76,20.77l.68.75-.39.36-.68-.64Z"/><path class="cls-4" d="M2.23,17.16l-.68-.64.39-.47.68.75Z"/><path class="cls-4" d="M9.73,5l.68.75-.4.36-.67-.64Z"/><path class="cls-4" d="M16.86,7.73l-.68-.64.4-.47.67.75Z"/><path class="cls-4" d="M16.49,18.54l-.4.36-.67-.65.39-.47Z"/><path class="cls-4" d="M14.21,5.85,14.5,6l-.11.28-.3-.1Z"/><path class="cls-4" d="M18.35,8.2l-.11.28-.3-.12.12-.28Z"/><path class="cls-4" d="M16.8,15.55l-.28-.12.11-.28.29.11Z"/><path class="cls-4" d="M17.94,21.54l.12-.28.29.11-.12.29Z"/><path class="cls-4" d="M9.08,3.31l-.29-.12.12-.28L9.2,3Z"/><path class="cls-4" d="M15.81,4.33l.29.11L16,4.73l-.29-.11Z"/><path class="cls-4" d="M1.17,5.41l.29.12-.11.28-.3-.11Z"/><path class="cls-4" d="M18.06,5.7l.11-.29.3.12-.12.28Z"/><path class="cls-4" d="M13.88,8.71,14,8.43l.28.11-.1.28Z"/><path class="cls-4" d="M6.58,13.59l.29.12L6.76,14l-.3-.11Z"/><path class="cls-4" d="M16.63,10.39l.29.11-.11.28-.29-.11Z"/><path class="cls-4" d="M1.34,14.16,1.06,14l.11-.29.29.12Z"/><path class="cls-4" d="M9.89,18.94l.29.12-.11.27-.29-.1Z"/><path class="cls-4" d="M7.5,15.36l.28.13-.11.28-.29-.11Z"/><path class="cls-4" d="M14.86,16l-.28-.12.11-.29.29.12Z"/><path class="cls-4" d="M3.83,5.09l-.12.29-.29-.12L3.53,5Z"/><path class="cls-4" d="M17.64,17.05l.28.11-.11.29-.28-.11Z"/><path class="cls-4" d="M2,19.81l.3.12-.12.28-.28-.11Z"/><path class="cls-4" d="M12.67,6.17l.29.12-.12.29-.28-.12Z"/><path class="cls-4" d="M6.35,22.05l-.11.29L6,22.23l.11-.29Z"/><path class="cls-4" d="M11.36,20.56l.29.12-.12.29-.29-.12Z"/><path class="cls-4" d="M13.15,12.3l.29.12-.12.29L13,12.59Z"/><path class="cls-4" d="M18.43,2.72l-.28-.12.12-.28.28.11Z"/><path class="cls-4" d="M2.37,3l-.28-.13.12-.28.29.12Z"/><path class="cls-4" d="M4.53,9.75l.12-.28.28.11-.11.29Z"/><path class="cls-4" d="M3.42,15.12l.11-.28.29.11-.11.29Z"/><path class="cls-4" d="M8,19.14l-.12.28-.29-.11L7.7,19Z"/><path class="cls-4" d="M4.63,12.12l-.11.27-.29-.1L4.34,12Z"/><path class="cls-4" d="M14.86,13.36l-.28-.12.11-.28.29.11Z"/><path class="cls-4" d="M9.2,17.32l-.12.28-.29-.11.12-.29Z"/><path class="cls-4" d="M3.3,17.79l.13-.28.28.11-.11.28Z"/><path class="cls-4" d="M5.94,17.2l.29.12-.12.28-.29-.11Z"/><path class="cls-4" d="M4.53,20.09l.12-.28.28.11-.12.29Z"/><path class="cls-4" d="M1.42,9.47l-.29-.11.12-.29.28.11Z"/></g></g></svg>