<svg xmlns="http://www.w3.org/2000/svg" viewBox="0 0 38.55 24.66"><defs><style>.cls-1{isolation:isolate;}.cls-2{opacity:0.15;}.cls-2,.cls-3{mix-blend-mode:multiply;}.cls-4{fill:#fff;}</style></defs><title>convert-CUSTOMIZE-SVG-03</title><g class="cls-1"><g id="Layer_1" data-name="Layer 1"><g class="cls-2"><path d="M15.23,11.7a3.75,3.75,0,0,1-1.35,1.62,2.86,2.86,0,0,1,.2.48c.11.45.2.9.31,1.35a.53.53,0,0,0,.17.28,1,1,0,0,0,1.49-.2,6.12,6.12,0,0,1,.71-.73,1.11,1.11,0,0,1,1.79.31,3.23,3.23,0,0,1,.32,2.63,1.45,1.45,0,0,1-1.4,1.12,16.88,16.88,0,0,1-3.76-.15,1,1,0,0,0-.79.14A3,3,0,0,1,11,19a.24.24,0,0,0-.18.09,2.79,2.79,0,0,0-.38.39.32.32,0,0,0-.1.25,2.91,2.91,0,0,0,.21.63,1.84,1.84,0,0,1-.71,2.51,1.44,1.44,0,0,1-1.46.05,2.06,2.06,0,0,1-1.15-2.39c.23-1,.53-2.06.8-3.09a.48.48,0,0,0,0-.29,3.63,3.63,0,0,1-.35-1.44c0-.39,0-.78-.06-1.17a.52.52,0,0,0-.15-.27.75.75,0,0,0-.28-.18,4.38,4.38,0,0,1-1.72-1.38c-.6-.73-1.17-1.48-1.73-2.24a1.78,1.78,0,0,1-.3-.74A1,1,0,0,1,4.7,8.59l.36.11C5,8.45,4.93,8.2,4.89,8A1.56,1.56,0,0,1,5.61,6.3a1.82,1.82,0,0,1,1.87-.09.22.22,0,0,0,.16,0,4.48,4.48,0,0,1,2.11-.55.34.34,0,0,0,.18-.09,1.29,1.29,0,0,1,1.37-.29,2.32,2.32,0,0,1,1,.65,1.4,1.4,0,0,1,.35,1.16.73.73,0,0,0,.07.35c.15.39.31.76.48,1.18l.43-.26A2,2,0,0,1,13.28,8a.28.28,0,0,1,.13-.43c-.29-.66-.58-1.32-.88-2S12,4.32,11.67,3.67a.33.33,0,0,1,0-.33A1.17,1.17,0,0,1,13.3,3a.42.42,0,0,1,.16.21c.48,1.11.95,2.23,1.43,3.34l.1.24c.08-.23.1-.45.38-.54v.53c.17-.13.33-.27.56-.19,0,.23,0,.23-.61.59,0,.15.11.16.22.14a2.44,2.44,0,0,1,1.53.16,2,2,0,0,0,.4.08.89.89,0,0,1-.78,0c-.19-.07-.37-.15-.56-.21a.57.57,0,0,0-.26,0,2.91,2.91,0,0,1,1,.58,2.26,2.26,0,0,0,2,.37l.13,0a1.27,1.27,0,0,1-1.33.34,3.43,3.43,0,0,1-1.23-.76,4.29,4.29,0,0,0-.66-.4.27.27,0,0,0-.39.12c.26.59.51,1.19.77,1.8.5,1.19,1,2.39,1.52,3.58a.23.23,0,0,1-.06.31,1.28,1.28,0,0,1-1.32.35.47.47,0,0,1-.24-.22c-.24-.5-.46-1-.68-1.5Zm-7.33,3A5.5,5.5,0,0,0,8.18,17a7.56,7.56,0,0,1,.52-.75.56.56,0,0,1,.85,0,4.5,4.5,0,0,1,.52.46A2.79,2.79,0,0,1,11,18.76a4.42,4.42,0,0,0,.63,0,2.45,2.45,0,0,0,1.6-.74,3.87,3.87,0,0,0,.91-2.85A4.76,4.76,0,0,0,13,12.38a.68.68,0,0,0-.29-.18c-.5-.17-1-.34-1.5-.46a.71.71,0,0,0-.67.11,2.77,2.77,0,0,0-.43.53c-.15.2-.25.42-.39.63a1,1,0,0,1-.25.19c-.05-.08-.11-.16-.16-.25l-.16-.29s0,0,0,.05a1.22,1.22,0,0,0,.07.17,3.09,3.09,0,0,1,.17,1.73c-.06.25-.16.48-.44.54a.69.69,0,0,1-.73-.24C8.05,14.83,8,14.75,7.9,14.66Zm3.59-4.1c.23-.06.44-.05.57-.16a1.89,1.89,0,0,0,.82-1.76,2.43,2.43,0,0,0-1.2-1.89,8.45,8.45,0,0,0-.82-.49,3.72,3.72,0,0,0-.9-.32,3.57,3.57,0,0,0-2.25.52s-.07.12-.12.16S7.31,7,7.13,7a1.13,1.13,0,0,0-.47.32A1.37,1.37,0,0,0,6.24,8.5.63.63,0,0,1,6,9.11c-.11.08-.1.17,0,.25a11.28,11.28,0,0,1,2.23,2.07,1.51,1.51,0,0,1,.31-.12A8.93,8.93,0,0,0,10.2,11c.06,0,.13,0,.19,0a3.43,3.43,0,0,0,.34-.06v-.06l-.18,0a1.29,1.29,0,0,1-1.23-.34,2.36,2.36,0,0,1-.67-1.85,2,2,0,0,1,2.7-1.39c.06,0,.12.08.17.08a.41.41,0,0,1,.49.36s0,.11.05.16a1.81,1.81,0,0,1-.48,2.55S11.54,10.5,11.49,10.56ZM7.43,21a1.92,1.92,0,0,0,1.41,1.83,1.09,1.09,0,0,0,.44,0,1.61,1.61,0,0,0,1.12-2.29,4.65,4.65,0,0,1-.28-.7.47.47,0,0,1,.21-.58,1,1,0,0,0,.32-1.35,4.09,4.09,0,0,0-1.23-1.53c-.23-.18-.4-.18-.59.05a2.22,2.22,0,0,0-.37.63c-.21.57-.39,1.15-.57,1.73A10.8,10.8,0,0,0,7.43,21ZM3.77,9.14a1.53,1.53,0,0,0-.11.25,1.09,1.09,0,0,0,.26.95c.63.83,1.26,1.66,1.93,2.46a4.6,4.6,0,0,0,1.1.91,4.14,4.14,0,0,1,1.34,1,.49.49,0,0,0,.47.18c.19,0,.25-.2.29-.36a1.16,1.16,0,0,0,0-.18A2.73,2.73,0,0,0,8.9,13a6.94,6.94,0,0,0-2-2.63.29.29,0,0,0-.32-.06,1.93,1.93,0,0,1-2-.44C4.31,9.62,4,9.39,3.77,9.14ZM14.4,15.65a4.83,4.83,0,0,1-.93,2.51,20.82,20.82,0,0,0,4,.17,2.3,2.3,0,0,1-.13-.55,10,10,0,0,1,0-1.45,7.29,7.29,0,0,1,.23-1.22.56.56,0,0,1,.55-.47c-.05,0-.06-.06-.09-.07a.84.84,0,0,0-1.06.07c-.3.27-.57.58-.85.88a1.12,1.12,0,0,1-1.27.32Zm-.46-7.47c0,.08.06.15.09.21l2.08,4.68c.15.34.3.43.67.34a1.85,1.85,0,0,0,.44-.18c.16-.08.18-.19.11-.36l-2.15-5a1.3,1.3,0,0,0-.08-.17Zm-5.08.67a2.62,2.62,0,0,0,.43,1.33,1.14,1.14,0,0,0,1.34.45,4.52,4.52,0,0,0,.47-.18,1.49,1.49,0,0,0,1-1.22,1.61,1.61,0,0,0-.68-1.57,1.73,1.73,0,0,0-2.52.85C8.89,8.63,8.88,8.76,8.86,8.85Zm6.06-1.64c-.05-.1-.07-.17-.1-.23-.5-1.18-1-2.35-1.48-3.53A.64.64,0,0,0,12.73,3a.88.88,0,0,0-.76.36.23.23,0,0,0,0,.28c.18.37.34.75.5,1.12.39.86.77,1.73,1.16,2.59,0,.06.13.15.18.14C14.15,7.43,14.52,7.32,14.92,7.21ZM13,9.7l-.5.7.24,0a8.15,8.15,0,0,0,.15,1,3,3,0,0,0,.51,1.08c.09.11.16.23.24.34.17.27.22.28.46.08a1.36,1.36,0,0,0,.24-.24c.21-.31.4-.63.62-.93a.68.68,0,0,0-.06-.88C13.82,11.24,13.38,11,13,9.7ZM7.4,6.45a1.56,1.56,0,0,0-1.15-.17,1.54,1.54,0,0,0-.89,2.4c.1.15.2.34.43.27S6,8.66,6,8.47s0-.22-.07-.33a3,3,0,0,1-.08-.41.83.83,0,0,1,1-1C7.15,6.82,7.24,6.77,7.4,6.45Zm5.19,4.78c-.05-.19-.08-.36-.13-.52a.22.22,0,0,0-.17-.05,7.54,7.54,0,0,0-.94.22c-.44.16-.35.1-.26.52l.05,0ZM10.16,5.72a1.8,1.8,0,0,0,.88.12.75.75,0,0,1,1,.67c0,.25.21.34.37.47.11-.49-.2-1-.84-1.32A1.12,1.12,0,0,0,10.16,5.72ZM8.77,11.94l1.31-.2L10,11.36l-1.27.25ZM10,12l-.63.09-.24.08a1.57,1.57,0,0,0,.12.3,4,4,0,0,0,.28.32Zm1.67-.4v.06l1.13.31a2.5,2.5,0,0,0-.15-.38.21.21,0,0,0-.17-.1C12.2,11.52,11.93,11.57,11.66,11.61Zm-1.36,0a1.46,1.46,0,0,1,.28-.11,1.78,1.78,0,0,1,.28,0l-.07-.29-.29,0h-.3Z"/><path d="M6.33,3.17c0,.13-.08.23-.12.34-.39,1-.77,2.05-1.15,3.08a.25.25,0,0,1-.24.19L1.1,7.2l-.57.06.07-.2C1,6,1.4,4.93,1.79,3.87A.27.27,0,0,1,2,3.67c1.36-.15,2.71-.32,4.06-.49ZM3.71,4.89a.68.68,0,0,0-.53.36c-.05.14,0,.2.15.2a.64.64,0,0,0,.51-.36C3.89,5,3.82,4.9,3.71,4.89Z"/><path d="M6.92,4.74l-1.11,1,0,0L6.41,4l.26.37C6.75,4.47,6.82,4.58,6.92,4.74Z"/><path d="M2.64,7.36l1.2-.14,0,0-.31.32a3.45,3.45,0,0,0-.26.28.27.27,0,0,1-.48-.06C2.75,7.67,2.7,7.53,2.64,7.36Z"/><path d="M8.2,7.79a.39.39,0,0,1,.37.39.38.38,0,0,1-.34.41.41.41,0,0,1-.37-.4A.39.39,0,0,1,8.2,7.79Z"/><path d="M9.91,17.7a2,2,0,0,1-.14.44.43.43,0,0,1-.29.19.38.38,0,0,1-.24-.24.87.87,0,0,1,.08-.77.44.44,0,0,1,.29-.18c.09,0,.18.14.24.23A1.22,1.22,0,0,1,9.91,17.7Z"/><path d="M11.82,9.17l-.36.5L11,9.37a.22.22,0,0,0-.07.06c-.32.35-.32.35-.75.16l-.24-.12c.11-.18.23-.31.46-.2s.29-.12.35-.24a.27.27,0,0,0-.09-.39,4.89,4.89,0,0,0-.51-.26C10,8.31,10,8.18,10,8.06s.05-.18.18-.19.45-.1.68-.12.54.22.39.55c-.09.17-.22.33-.16.55a.32.32,0,0,0,.37.25A1.22,1.22,0,0,1,11.82,9.17Z"/><path d="M15.42,11.89a3.63,3.63,0,0,1-1.34,1.63c.06.16.15.31.2.48.11.44.2.9.31,1.35a.53.53,0,0,0,.17.28,1,1,0,0,0,1.49-.2A5.44,5.44,0,0,1,17,14.7a1.11,1.11,0,0,1,1.79.31,3.27,3.27,0,0,1,.32,2.63,1.46,1.46,0,0,1-1.4,1.12,17.49,17.49,0,0,1-3.76-.15,1,1,0,0,0-.79.14,3,3,0,0,1-1.9.46.23.23,0,0,0-.18.09,2.79,2.79,0,0,0-.38.39c-.06.07-.12.17-.1.24a2.82,2.82,0,0,0,.21.64,1.83,1.83,0,0,1-.72,2.51,1.42,1.42,0,0,1-1.45,0,2.05,2.05,0,0,1-1.15-2.39c.23-1,.53-2.05.79-3.08a.41.41,0,0,0,0-.29,3.48,3.48,0,0,1-.35-1.45c0-.38,0-.77-.06-1.16a.52.52,0,0,0-.15-.27.75.75,0,0,0-.28-.18,4.47,4.47,0,0,1-1.72-1.38c-.6-.73-1.17-1.48-1.73-2.25a1.74,1.74,0,0,1-.3-.73A1,1,0,0,1,4.89,8.79l.36.11c0-.25-.12-.5-.16-.75A1.57,1.57,0,0,1,5.8,6.5a1.84,1.84,0,0,1,1.88-.09.18.18,0,0,0,.16,0A4.54,4.54,0,0,1,10,5.86a.27.27,0,0,0,.18-.08,1.29,1.29,0,0,1,1.37-.29,2.32,2.32,0,0,1,1,.65,1.4,1.4,0,0,1,.35,1.16.73.73,0,0,0,.07.35c.15.38.31.76.48,1.18l.43-.26a2,2,0,0,1-.36-.36.29.29,0,0,1,.14-.43c-.29-.66-.59-1.32-.88-2s-.57-1.3-.86-1.94a.33.33,0,0,1,0-.33,1.17,1.17,0,0,1,1.6-.38.53.53,0,0,1,.16.2c.48,1.12.95,2.24,1.42,3.35,0,.07.07.14.11.24.08-.23.1-.45.38-.54v.53c.17-.13.33-.27.56-.19,0,.23,0,.23-.61.59,0,.15.11.16.22.14a2.52,2.52,0,0,1,1.53.15,1.41,1.41,0,0,0,.4.08.85.85,0,0,1-.79,0l-.55-.2a.57.57,0,0,0-.26,0,3.09,3.09,0,0,1,1,.58,2.25,2.25,0,0,0,2,.38l.14,0a1.27,1.27,0,0,1-1.33.34,3.57,3.57,0,0,1-1.23-.76,4,4,0,0,0-.66-.4.27.27,0,0,0-.39.12l.77,1.8c.5,1.19,1,2.39,1.52,3.58a.23.23,0,0,1-.06.31,1.28,1.28,0,0,1-1.32.35.49.49,0,0,1-.25-.22c-.23-.5-.45-1-.67-1.5Zm-7.33,3a5.66,5.66,0,0,0,.28,2.32c.19-.27.34-.53.53-.75a.56.56,0,0,1,.85,0,3.72,3.72,0,0,1,.51.46,2.77,2.77,0,0,1,1,2.11,4.42,4.42,0,0,0,.63,0,2.45,2.45,0,0,0,1.6-.74,3.87,3.87,0,0,0,.91-2.85,4.82,4.82,0,0,0-1.2-2.79.81.81,0,0,0-.29-.19c-.5-.16-1-.33-1.5-.45a.7.7,0,0,0-.67.1,3.64,3.64,0,0,0-.44.53c-.14.21-.25.43-.39.63s-.16.14-.24.2-.11-.16-.16-.25l-.16-.29-.05,0,.06.18a3,3,0,0,1,.18,1.73.62.62,0,0,1-.44.54.69.69,0,0,1-.73-.24A2.73,2.73,0,0,0,8.09,14.86Zm3.6-4.1c.23-.06.44,0,.57-.16a1.92,1.92,0,0,0,.82-1.76A2.43,2.43,0,0,0,11.88,7a8.45,8.45,0,0,0-.82-.49,3.65,3.65,0,0,0-.91-.32,3.49,3.49,0,0,0-2.24.52s-.07.11-.12.16-.28.35-.46.41a1.13,1.13,0,0,0-.47.32A1.31,1.31,0,0,0,6.44,8.7a.61.61,0,0,1-.22.6c-.11.09-.1.18,0,.26a10.75,10.75,0,0,1,2.23,2.07,1.84,1.84,0,0,1,.32-.12,8.93,8.93,0,0,0,1.62-.32s.13,0,.19,0l.34-.06v-.06l-.18,0a1.29,1.29,0,0,1-1.23-.34,2.36,2.36,0,0,1-.67-1.85,2,2,0,0,1,2.7-1.39c.06,0,.12.08.17.08A.41.41,0,0,1,12.2,8a.38.38,0,0,0,.05.15,1.83,1.83,0,0,1-.48,2.56S11.74,10.7,11.69,10.76ZM7.63,21.19A1.93,1.93,0,0,0,9,23a1.3,1.3,0,0,0,.44,0,1.61,1.61,0,0,0,1.12-2.29,4.37,4.37,0,0,1-.28-.71.48.48,0,0,1,.21-.58,1,1,0,0,0,.32-1.34,4,4,0,0,0-1.24-1.53c-.23-.19-.39-.19-.58.05a2.22,2.22,0,0,0-.37.63c-.21.57-.39,1.14-.57,1.72A10.94,10.94,0,0,0,7.63,21.19ZM4,9.34c0,.06-.07.15-.1.25a1.13,1.13,0,0,0,.25.95c.64.83,1.26,1.66,1.94,2.46a4.34,4.34,0,0,0,1.1.9,4.31,4.31,0,0,1,1.34,1,.46.46,0,0,0,.47.17c.19,0,.25-.19.29-.35a1.06,1.06,0,0,0,0-.19A2.71,2.71,0,0,0,9.1,13.2a6.94,6.94,0,0,0-2-2.63.26.26,0,0,0-.32-.06,1.93,1.93,0,0,1-2-.44C4.51,9.82,4.24,9.59,4,9.34Zm10.64,6.5a4.86,4.86,0,0,1-.93,2.52,20.82,20.82,0,0,0,4,.17,2.42,2.42,0,0,1-.13-.55,10,10,0,0,1,0-1.45,6.4,6.4,0,0,1,.23-1.22.55.55,0,0,1,.54-.47l-.08-.07a.84.84,0,0,0-1.06.07,11.77,11.77,0,0,0-.85.88,1.12,1.12,0,0,1-1.27.32C14.91,16,14.77,15.92,14.6,15.84Zm-.46-7.46c0,.08.06.15.09.21q1,2.34,2.08,4.68c.15.34.29.42.67.34a1.54,1.54,0,0,0,.44-.19c.16-.07.18-.18.11-.35-.73-1.68-1.43-3.36-2.15-5a1.3,1.3,0,0,0-.08-.17Zm-5.08.67a2.62,2.62,0,0,0,.42,1.33,1.14,1.14,0,0,0,1.34.45,3.94,3.94,0,0,0,.48-.18,1.49,1.49,0,0,0,1-1.22,1.61,1.61,0,0,0-.68-1.57,1.73,1.73,0,0,0-2.52.85A2.73,2.73,0,0,0,9.06,9.05Zm6.06-1.64c0-.1-.07-.17-.1-.23-.5-1.18-1-2.35-1.49-3.53a.6.6,0,0,0-.6-.42.89.89,0,0,0-.76.35.24.24,0,0,0,0,.29c.18.37.34.74.5,1.12l1.15,2.59c0,.06.14.15.19.14Zm-2,2.49-.5.7.24,0a7.7,7.7,0,0,0,.15,1,3,3,0,0,0,.51,1.09,2.93,2.93,0,0,1,.24.34c.17.27.21.28.46.08a1.36,1.36,0,0,0,.24-.24c.21-.31.39-.64.62-.93a.68.68,0,0,0-.07-.88C14,11.44,13.58,11.17,13.16,9.9ZM7.6,6.64a1.6,1.6,0,0,0-1.15-.16,1.54,1.54,0,0,0-.89,2.4c.1.15.2.34.43.27s.22-.29.21-.48,0-.22-.07-.33a3.28,3.28,0,0,1-.08-.41A.83.83,0,0,1,7,7C7.34,7,7.44,7,7.6,6.64Zm5.19,4.79a4.81,4.81,0,0,0-.14-.52s-.11-.06-.16-.05a5.13,5.13,0,0,0-.94.22c-.44.16-.35.1-.26.52l.05,0ZM10.36,5.92a1.8,1.8,0,0,0,.88.12.75.75,0,0,1,1,.67c0,.25.21.34.37.47.11-.49-.2-1-.84-1.32A1.1,1.1,0,0,0,10.36,5.92ZM9,12.14l1.31-.2-.12-.38-1.27.25Zm1.22.06-.63.1-.24.08a1.57,1.57,0,0,0,.12.3,2.67,2.67,0,0,0,.28.32Zm1.67-.39v0l1.13.32a2.5,2.5,0,0,0-.15-.38.22.22,0,0,0-.17-.1C12.4,11.72,12.13,11.77,11.86,11.81Zm-1.36,0a1.46,1.46,0,0,1,.28-.11,1.78,1.78,0,0,1,.28-.05l-.07-.3a1.67,1.67,0,0,1-.29,0h-.3Z"/><path d="M6.53,3.37c0,.13-.09.23-.12.33-.39,1-.77,2.06-1.15,3.09A.25.25,0,0,1,5,7L1.3,7.4l-.57.06c0-.08,0-.14.07-.21C1.2,6.19,1.6,5.13,2,4.07a.27.27,0,0,1,.25-.2l4.05-.49ZM3.91,5.08a.68.68,0,0,0-.53.37c0,.14,0,.2.15.2A.64.64,0,0,0,4,5.29C4.09,5.15,4,5.1,3.91,5.08Z"/><path d="M7.12,4.94,6,5.94l0,0,.65-1.73.26.37Z"/><path d="M2.83,7.56,4,7.42l0,0c-.1.11-.21.21-.32.32s-.17.18-.25.28A.28.28,0,0,1,3,8C3,7.87,2.9,7.73,2.83,7.56Z"/><path d="M8.39,8a.4.4,0,0,1,.38.39.37.37,0,0,1-.34.4.39.39,0,0,1-.37-.39A.39.39,0,0,1,8.39,8Z"/><path d="M10.11,17.9a2.22,2.22,0,0,1-.14.44.45.45,0,0,1-.29.19c-.09,0-.21-.14-.25-.24a.91.91,0,0,1,.09-.77.4.4,0,0,1,.29-.18c.08,0,.18.14.24.23A1.22,1.22,0,0,1,10.11,17.9Z"/><path d="M12,9.37l-.35.5-.48-.3-.07.06c-.31.35-.31.35-.74.16l-.25-.12c.12-.19.24-.31.47-.2s.29-.12.35-.24a.27.27,0,0,0-.09-.39c-.17-.09-.34-.19-.51-.26s-.12-.2-.11-.32a.19.19,0,0,1,.17-.2c.23,0,.46-.09.69-.11s.54.22.38.54-.21.34-.15.56a.32.32,0,0,0,.37.25A1.16,1.16,0,0,1,12,9.37Z"/></g><g class="cls-3"><path d="M15.08,11.55a3.63,3.63,0,0,1-1.34,1.63c.06.16.15.31.2.48.11.44.2.9.31,1.35a.53.53,0,0,0,.17.28,1,1,0,0,0,1.49-.2,5.44,5.44,0,0,1,.71-.73,1.11,1.11,0,0,1,1.79.31,3.27,3.27,0,0,1,.32,2.63,1.46,1.46,0,0,1-1.4,1.12,17.49,17.49,0,0,1-3.76-.15,1,1,0,0,0-.79.13,3,3,0,0,1-1.9.47.25.25,0,0,0-.18.08,3.55,3.55,0,0,0-.38.4c-.06.07-.12.17-.1.24a2.82,2.82,0,0,0,.21.64,1.83,1.83,0,0,1-.72,2.51,1.42,1.42,0,0,1-1.45,0,2.05,2.05,0,0,1-1.15-2.39c.23-1,.53-2.05.79-3.08a.41.41,0,0,0,0-.29,3.48,3.48,0,0,1-.35-1.45c0-.38,0-.77-.07-1.16a.45.45,0,0,0-.14-.27A.75.75,0,0,0,7,14a4.47,4.47,0,0,1-1.72-1.38c-.6-.73-1.17-1.48-1.73-2.25a1.74,1.74,0,0,1-.3-.73A1,1,0,0,1,4.55,8.45l.36.11c0-.25-.13-.5-.16-.76a1.56,1.56,0,0,1,.71-1.64,1.84,1.84,0,0,1,1.88-.09.18.18,0,0,0,.16,0,4.54,4.54,0,0,1,2.11-.55.21.21,0,0,0,.17-.09,1.33,1.33,0,0,1,1.38-.28,2.32,2.32,0,0,1,1,.65A1.4,1.4,0,0,1,12.51,7a.73.73,0,0,0,.07.35c.15.38.31.76.48,1.18l.43-.26a2,2,0,0,1-.36-.36.29.29,0,0,1,.14-.43l-.88-2c-.28-.64-.57-1.29-.86-1.93a.33.33,0,0,1,0-.33,1.17,1.17,0,0,1,1.6-.38.53.53,0,0,1,.16.2c.48,1.12.95,2.23,1.42,3.35,0,.07.07.14.11.24.08-.23.1-.45.38-.54V6.6c.17-.13.33-.27.56-.19,0,.23,0,.23-.61.59,0,.15.1.16.22.14a2.52,2.52,0,0,1,1.53.15,1.41,1.41,0,0,0,.4.08.85.85,0,0,1-.79,0L16,7.2a.57.57,0,0,0-.26,0,3.09,3.09,0,0,1,1,.58,2.25,2.25,0,0,0,2,.38l.14,0a1.27,1.27,0,0,1-1.33.34,3.57,3.57,0,0,1-1.23-.76,4,4,0,0,0-.66-.4.27.27,0,0,0-.39.12c.25.59.51,1.19.76,1.8.51,1.19,1,2.39,1.53,3.58a.25.25,0,0,1-.06.31,1.28,1.28,0,0,1-1.32.35.49.49,0,0,1-.25-.22c-.23-.5-.45-1-.67-1.5Zm-7.33,3A5.66,5.66,0,0,0,8,16.84c.19-.27.34-.53.53-.75a.56.56,0,0,1,.85,0,3.72,3.72,0,0,1,.51.46,2.77,2.77,0,0,1,.95,2.11,4.42,4.42,0,0,0,.63,0,2.45,2.45,0,0,0,1.6-.74A3.87,3.87,0,0,0,14,15a4.82,4.82,0,0,0-1.2-2.79.7.7,0,0,0-.29-.19c-.5-.16-1-.33-1.5-.45a.7.7,0,0,0-.67.1,3.64,3.64,0,0,0-.44.53c-.14.21-.25.43-.39.63s-.16.14-.24.2l-.16-.25L9,12.52l-.05,0,.06.18a3,3,0,0,1,.18,1.73A.62.62,0,0,1,8.7,15,.68.68,0,0,1,8,14.77,2.73,2.73,0,0,0,7.75,14.52Zm3.6-4.1c.23-.06.44-.05.57-.16a1.94,1.94,0,0,0,.82-1.76,2.43,2.43,0,0,0-1.2-1.89,8.45,8.45,0,0,0-.82-.49,3.65,3.65,0,0,0-.91-.32,3.49,3.49,0,0,0-2.24.52c-.05,0-.07.11-.12.16s-.28.35-.46.41a1.13,1.13,0,0,0-.47.32A1.31,1.31,0,0,0,6.1,8.36a.61.61,0,0,1-.22.6c-.11.09-.1.18,0,.26a10.75,10.75,0,0,1,2.23,2.07,1.84,1.84,0,0,1,.32-.12,8.93,8.93,0,0,0,1.62-.32s.13,0,.19,0l.34-.06v-.06l-.18,0a1.29,1.29,0,0,1-1.23-.34A2.36,2.36,0,0,1,8.5,8.57a2,2,0,0,1,2.7-1.39.44.44,0,0,0,.17.08.41.41,0,0,1,.49.36.38.38,0,0,0,.05.15,1.83,1.83,0,0,1-.48,2.56S11.4,10.36,11.35,10.42ZM7.29,20.85A1.93,1.93,0,0,0,8.7,22.69a1.3,1.3,0,0,0,.44,0,1.61,1.61,0,0,0,1.12-2.29A4.37,4.37,0,0,1,10,19.7a.48.48,0,0,1,.21-.58,1,1,0,0,0,.32-1.34,4,4,0,0,0-1.24-1.53c-.23-.19-.39-.19-.58.05a2.22,2.22,0,0,0-.37.63c-.21.57-.39,1.14-.57,1.72A10.94,10.94,0,0,0,7.29,20.85ZM3.62,9c0,.06-.07.15-.1.25a1.13,1.13,0,0,0,.25.95C4.41,11,5,11.86,5.71,12.66a4.34,4.34,0,0,0,1.1.9,4.31,4.31,0,0,1,1.34,1,.46.46,0,0,0,.47.17c.19,0,.25-.19.29-.35s0-.12,0-.19a2.76,2.76,0,0,0-.19-1.39,7,7,0,0,0-2-2.62.26.26,0,0,0-.32-.06,1.93,1.93,0,0,1-2-.44C4.17,9.48,3.9,9.25,3.62,9Zm10.64,6.5A4.86,4.86,0,0,1,13.33,18a20.82,20.82,0,0,0,4,.17,2.42,2.42,0,0,1-.13-.55,10,10,0,0,1,0-1.45A6.4,6.4,0,0,1,17.43,15,.55.55,0,0,1,18,14.5l-.08-.07a.84.84,0,0,0-1.06.07c-.3.27-.58.58-.85.87a1.12,1.12,0,0,1-1.27.33C14.57,15.65,14.43,15.58,14.26,15.5ZM13.8,8c0,.08.06.15.09.21q1,2.34,2.08,4.67c.15.35.29.43.67.35a1.89,1.89,0,0,0,.44-.19c.16-.07.18-.18.11-.35-.73-1.68-1.43-3.36-2.15-5A1.3,1.3,0,0,0,15,7.52Zm-5.08.67A2.62,2.62,0,0,0,9.14,10a1.14,1.14,0,0,0,1.34.45,3.94,3.94,0,0,0,.48-.18,1.49,1.49,0,0,0,1-1.22,1.61,1.61,0,0,0-.68-1.57,1.73,1.73,0,0,0-2.52.85A1.63,1.63,0,0,0,8.72,8.71Zm6.06-1.64-.1-.23c-.5-1.18-1-2.35-1.49-3.53a.6.6,0,0,0-.6-.42.89.89,0,0,0-.76.35.24.24,0,0,0,0,.29c.18.37.34.74.5,1.12l1.15,2.59c0,.06.14.15.19.14Zm-2,2.49-.5.7.24,0a7.7,7.7,0,0,0,.15,1,2.9,2.9,0,0,0,.51,1.08c.09.11.16.23.24.35s.21.28.46.08a1.36,1.36,0,0,0,.24-.24c.21-.31.39-.64.62-.93a.68.68,0,0,0-.07-.88C13.68,11.1,13.24,10.83,12.82,9.56ZM7.26,6.3a1.61,1.61,0,0,0-1.15-.16,1.54,1.54,0,0,0-.89,2.4c.1.15.2.34.43.27s.22-.29.21-.48S5.81,8.11,5.79,8a3.1,3.1,0,0,1-.08-.42.83.83,0,0,1,1-.94C7,6.68,7.1,6.63,7.26,6.3Zm5.19,4.79a4.81,4.81,0,0,0-.14-.52s-.11-.06-.16-.05a5.13,5.13,0,0,0-.94.22c-.44.16-.35.1-.26.52l.05,0ZM10,5.58a1.8,1.8,0,0,0,.88.12.75.75,0,0,1,1,.67c0,.25.21.34.37.47.11-.49-.2-1-.84-1.32A1.1,1.1,0,0,0,10,5.58ZM8.63,11.8l1.31-.2-.12-.38-1.27.25Zm1.22.06-.63.1L9,12a2.71,2.71,0,0,0,.13.3,2.67,2.67,0,0,0,.28.32Zm1.67-.39v0l1.13.32a2.5,2.5,0,0,0-.15-.38.22.22,0,0,0-.17-.1C12.06,11.38,11.79,11.43,11.52,11.47Zm-1.36,0a1.46,1.46,0,0,1,.28-.11,1.08,1.08,0,0,1,.28-.05l-.07-.3a1.67,1.67,0,0,1-.29,0h-.3Z"/><path d="M6.19,3c-.05.13-.09.23-.12.33-.39,1-.77,2.06-1.15,3.09a.25.25,0,0,1-.24.19L1,7.06l-.57.06c0-.08,0-.14.07-.21.4-1.06.8-2.12,1.19-3.18a.27.27,0,0,1,.25-.2L6,3ZM3.57,4.74A.68.68,0,0,0,3,5.11c0,.14,0,.2.15.2A.64.64,0,0,0,3.7,5C3.75,4.81,3.68,4.76,3.57,4.74Z"/><path d="M6.78,4.6l-1.12,1,0,0,.65-1.72.26.37Z"/><path d="M2.49,7.22l1.2-.14,0,0-.32.32c-.08.09-.17.18-.25.28a.28.28,0,0,1-.48-.06C2.61,7.53,2.56,7.39,2.49,7.22Z"/><path d="M8.05,7.65A.4.4,0,0,1,8.43,8a.37.37,0,0,1-.35.4.39.39,0,0,1-.36-.39A.39.39,0,0,1,8.05,7.65Z"/><path d="M9.77,17.56a2.22,2.22,0,0,1-.14.44.45.45,0,0,1-.29.19c-.09,0-.21-.14-.25-.24a.91.91,0,0,1,.09-.77A.4.4,0,0,1,9.47,17c.08,0,.18.14.23.23A.9.9,0,0,1,9.77,17.56Z"/><path d="M11.67,9l-.35.51-.48-.3-.07.06c-.31.35-.31.35-.74.16l-.25-.12c.12-.19.23-.31.47-.2s.29-.13.35-.24a.27.27,0,0,0-.09-.39c-.17-.09-.34-.19-.51-.26s-.12-.2-.11-.32a.19.19,0,0,1,.17-.2c.23,0,.46-.09.69-.11s.53.22.38.54-.21.34-.15.56a.32.32,0,0,0,.37.25A1.58,1.58,0,0,1,11.67,9Z"/></g><path class="cls-4" d="M15.28,11.75a3.63,3.63,0,0,1-1.34,1.63,3.85,3.85,0,0,1,.19.47c.12.45.21.91.32,1.36a.53.53,0,0,0,.17.28,1,1,0,0,0,1.49-.2,5.44,5.44,0,0,1,.71-.73,1.11,1.11,0,0,1,1.79.3,3.3,3.3,0,0,1,.32,2.64,1.48,1.48,0,0,1-1.41,1.12,17.43,17.43,0,0,1-3.75-.15,1,1,0,0,0-.79.13,3,3,0,0,1-1.9.47.29.29,0,0,0-.19.08c-.13.13-.26.26-.38.4a.39.39,0,0,0-.1.24,2.85,2.85,0,0,0,.22.64,1.83,1.83,0,0,1-.72,2.51,1.45,1.45,0,0,1-1.45,0,2.06,2.06,0,0,1-1.15-2.39c.23-1,.53-2.06.79-3.09a.45.45,0,0,0,0-.28,3.49,3.49,0,0,1-.36-1.45c0-.38,0-.77-.06-1.16a.42.42,0,0,0-.14-.27.84.84,0,0,0-.28-.18,4.56,4.56,0,0,1-1.72-1.38c-.6-.73-1.17-1.49-1.73-2.25a1.8,1.8,0,0,1-.3-.73A1,1,0,0,1,4.75,8.65l.36.11C5.06,8.5,5,8.26,5,8a1.54,1.54,0,0,1,.71-1.64,1.84,1.84,0,0,1,1.88-.09.22.22,0,0,0,.16,0,4.42,4.42,0,0,1,2.11-.55A.22.22,0,0,0,10,5.63a1.33,1.33,0,0,1,1.38-.28,2.38,2.38,0,0,1,1,.65,1.36,1.36,0,0,1,.34,1.16.89.89,0,0,0,.08.35c.15.38.31.76.48,1.18l.43-.27a1.72,1.72,0,0,1-.36-.35.28.28,0,0,1,.14-.43c-.3-.66-.59-1.32-.88-2S12,4.37,11.73,3.73a.31.31,0,0,1,0-.33A1.17,1.17,0,0,1,13.36,3a.46.46,0,0,1,.16.2c.47,1.12,1,2.23,1.42,3.35l.11.24c.08-.23.1-.46.38-.54V6.8c.17-.13.33-.27.56-.19,0,.23,0,.23-.61.59,0,.15.1.15.22.14a2.52,2.52,0,0,1,1.53.15,1.88,1.88,0,0,0,.4.08.88.88,0,0,1-.79,0l-.55-.2a.6.6,0,0,0-.27,0,2.73,2.73,0,0,1,1,.58,2.27,2.27,0,0,0,2,.38.34.34,0,0,1,.14,0,1.27,1.27,0,0,1-1.33.34,3.57,3.57,0,0,1-1.23-.76,3.75,3.75,0,0,0-.66-.4.27.27,0,0,0-.39.12c.25.59.51,1.19.76,1.79.51,1.2,1,2.39,1.53,3.59a.25.25,0,0,1-.06.31,1.3,1.3,0,0,1-1.32.35.49.49,0,0,1-.25-.22c-.23-.5-.45-1-.67-1.51ZM8,14.72A5.5,5.5,0,0,0,8.23,17a7.59,7.59,0,0,1,.53-.75.56.56,0,0,1,.84-.05,4.69,4.69,0,0,1,.52.47,2.75,2.75,0,0,1,1,2.11c.21,0,.42,0,.62,0a2.48,2.48,0,0,0,1.61-.74,3.92,3.92,0,0,0,.91-2.85A4.8,4.8,0,0,0,13,12.44a.73.73,0,0,0-.3-.19c-.49-.16-1-.33-1.49-.45a.67.67,0,0,0-.67.1,3.64,3.64,0,0,0-.44.53c-.14.2-.25.43-.39.63a1,1,0,0,1-.24.2L9.32,13l-.16-.29-.05,0,.06.18a3,3,0,0,1,.18,1.72.63.63,0,0,1-.45.55A.71.71,0,0,1,8.18,15,2.73,2.73,0,0,0,8,14.72Zm3.6-4.1a1.85,1.85,0,0,0,.57-.16,1.94,1.94,0,0,0,.82-1.76,2.42,2.42,0,0,0-1.2-1.89,7.71,7.71,0,0,0-.82-.49A4.31,4.31,0,0,0,10,6a3.55,3.55,0,0,0-2.24.53s-.07.11-.12.16-.28.35-.46.41a1,1,0,0,0-.47.32A1.3,1.3,0,0,0,6.3,8.56a.61.61,0,0,1-.22.6c-.11.09-.1.18,0,.26a10.75,10.75,0,0,1,2.23,2.07c.12-.05.21-.1.31-.13A8.25,8.25,0,0,0,10.26,11c.05,0,.12,0,.19,0l.34-.06v-.07l-.18,0a1.29,1.29,0,0,1-1.23-.34A2.36,2.36,0,0,1,8.7,8.77a2,2,0,0,1,2.7-1.39s.12.08.17.07a.43.43,0,0,1,.49.37.38.38,0,0,0,0,.15,1.83,1.83,0,0,1-.48,2.56S11.6,10.56,11.55,10.62ZM7.48,21.05A1.94,1.94,0,0,0,8.9,22.88a1.3,1.3,0,0,0,.44,0,1.61,1.61,0,0,0,1.11-2.29,4.71,4.71,0,0,1-.27-.71.48.48,0,0,1,.21-.58A1,1,0,0,0,10.7,18a4.1,4.1,0,0,0-1.23-1.54c-.23-.18-.39-.18-.58.06a2.52,2.52,0,0,0-.38.63c-.2.56-.38,1.14-.56,1.72A11.74,11.74,0,0,0,7.48,21.05ZM3.82,9.2c0,.06-.07.15-.1.25a1.07,1.07,0,0,0,.25.94c.63.83,1.26,1.67,1.94,2.46a4,4,0,0,0,1.1.91,4.56,4.56,0,0,1,1.34,1,.44.44,0,0,0,.47.18c.19,0,.25-.19.29-.35s0-.13,0-.19A3,3,0,0,0,9,13.05a6.91,6.91,0,0,0-2-2.62.28.28,0,0,0-.32-.07,1.91,1.91,0,0,1-2-.43C4.37,9.68,4.1,9.45,3.82,9.2Zm10.64,6.5a4.88,4.88,0,0,1-.93,2.51,20.06,20.06,0,0,0,4,.18,3.18,3.18,0,0,1-.14-.55,14,14,0,0,1,0-1.45,7.12,7.12,0,0,1,.24-1.22.55.55,0,0,1,.54-.47l-.08-.07A.83.83,0,0,0,17,14.7c-.3.27-.58.57-.86.87a1.1,1.1,0,0,1-1.26.33A4.18,4.18,0,0,1,14.46,15.7ZM14,8.24c0,.08.06.14.09.21l2.07,4.67c.16.35.3.43.68.35a2.09,2.09,0,0,0,.44-.19c.16-.08.18-.18.1-.36q-1.08-2.51-2.14-5a1.4,1.4,0,0,0-.09-.17ZM8.92,8.9a2.47,2.47,0,0,0,.42,1.33,1.14,1.14,0,0,0,1.34.46c.16,0,.32-.12.48-.18a1.48,1.48,0,0,0,1-1.22,1.61,1.61,0,0,0-.67-1.57A1.73,1.73,0,0,0,9,8.57,1.66,1.66,0,0,0,8.92,8.9ZM15,7.27c0-.11-.07-.17-.09-.24-.5-1.17-1-2.34-1.49-3.52a.61.61,0,0,0-.61-.42.89.89,0,0,0-.75.35.24.24,0,0,0,0,.29c.17.37.33.74.5,1.12.38.86.76,1.72,1.15,2.58,0,.07.14.16.19.14C14.2,7.49,14.57,7.38,15,7.27ZM13,9.76l-.5.7.24,0a6.57,6.57,0,0,0,.15,1,2.76,2.76,0,0,0,.51,1.08c.09.11.16.23.24.35s.21.28.46.08a1.73,1.73,0,0,0,.23-.24c.22-.31.4-.64.62-.94a.67.67,0,0,0-.06-.87C13.88,11.3,13.44,11,13,9.76ZM7.46,6.5A1.63,1.63,0,0,0,6.3,6.34a1.54,1.54,0,0,0-.88,2.4c.09.15.2.33.43.26s.22-.28.2-.47S6,8.31,6,8.2s-.07-.28-.09-.42a.83.83,0,0,1,1-.94C7.2,6.88,7.3,6.82,7.46,6.5Zm5.19,4.79a4.81,4.81,0,0,0-.14-.52s-.11-.06-.16,0a5.83,5.83,0,0,0-.94.21c-.44.17-.35.11-.26.53l0,0ZM10.22,5.78a1.67,1.67,0,0,0,.88.11.75.75,0,0,1,1,.68c0,.24.22.34.38.47.1-.49-.2-1-.84-1.32A1.1,1.1,0,0,0,10.22,5.78ZM8.83,12l1.31-.2L10,11.41l-1.27.26Zm1.22.06-.63.1a1.44,1.44,0,0,0-.25.08,1.6,1.6,0,0,0,.13.3,2.55,2.55,0,0,0,.27.32Zm1.67-.39v.05l1.13.32a2.5,2.5,0,0,0-.15-.38.27.27,0,0,0-.17-.11Zm-1.36,0,.28-.12.28,0-.07-.3-.29,0h-.31Z"/><path class="cls-4" d="M6.39,3.23l-.13.33c-.38,1-.76,2.06-1.15,3.09a.23.23,0,0,1-.23.19l-3.72.42-.57.06c0-.08,0-.15.07-.21C1.05,6.05,1.45,5,1.85,3.93a.27.27,0,0,1,.25-.2l4.05-.49ZM3.77,4.94a.65.65,0,0,0-.53.37c-.06.14,0,.19.15.2a.64.64,0,0,0,.51-.36C4,5,3.88,5,3.77,4.94Z"/><path class="cls-4" d="M7,4.8l-1.12,1,0,0,.64-1.72c.11.14.19.26.27.37Z"/><path class="cls-4" d="M2.69,7.42l1.2-.14,0,0-.32.32a3.33,3.33,0,0,0-.25.28.27.27,0,0,1-.48-.06C2.81,7.72,2.76,7.58,2.69,7.42Z"/><path class="cls-4" d="M8.25,7.85a.4.4,0,0,1,.38.38.38.38,0,0,1-.35.41.4.4,0,0,1-.36-.4A.37.37,0,0,1,8.25,7.85Z"/><path class="cls-4" d="M10,17.75a1.7,1.7,0,0,1-.15.45.37.37,0,0,1-.28.18c-.09,0-.21-.13-.25-.23a.87.87,0,0,1,.09-.77.4.4,0,0,1,.29-.18c.08,0,.18.13.23.23A1.18,1.18,0,0,1,10,17.75Z"/><path class="cls-4" d="M11.87,9.22l-.35.5L11,9.42,11,9.48c-.32.35-.32.35-.74.16L10,9.53c.12-.19.23-.31.47-.2s.29-.13.35-.25a.26.26,0,0,0-.1-.38,4.74,4.74,0,0,0-.5-.26c-.17-.08-.12-.2-.11-.32a.18.18,0,0,1,.17-.2c.23,0,.46-.09.69-.11s.53.22.38.54-.21.33-.15.55a.32.32,0,0,0,.37.26A.84.84,0,0,1,11.87,9.22Z"/></g></g></svg>