<svg xmlns="http://www.w3.org/2000/svg" viewBox="0 0 38.55 24.66"><defs><style>.cls-1{isolation:isolate;}.cls-2{opacity:0.15;}.cls-2,.cls-3{mix-blend-mode:multiply;}.cls-4{fill:#fff;}</style></defs><title>convert-CUSTOMIZE-SVG-03</title><g class="cls-1"><g id="Layer_1" data-name="Layer 1"><g class="cls-2"><path d="M37.26,3.71l-.13.09-3.5,2.05a.24.24,0,0,1-.27,0q-2-1.33-4.1-2.65l-.07-.05.18-.11,3.43-2a.21.21,0,0,1,.26,0l4.11,2.59Zm-3.9,0a1.74,1.74,0,0,0,.32-.1c.13-.07.13-.17,0-.27A.74.74,0,0,0,33,3.3c-.13.08-.15.2,0,.27A1.43,1.43,0,0,0,33.36,3.72Z"/><path d="M29.18,20.41l3.76-2.2L37.27,21l-.17.11c-1.16.67-2.31,1.35-3.46,2-.1.05-.17.09-.29,0L29.3,20.5Zm4.18.55a1.74,1.74,0,0,0,.32-.1c.13-.07.13-.17,0-.27a.76.76,0,0,0-.72-.05c-.13.08-.15.2,0,.28A2,2,0,0,0,33.36,21Z"/><path d="M1.25,3.16,4.91,1a.19.19,0,0,1,.18,0L9.33,3.71l-.16.1L5.69,5.86a.23.23,0,0,1-.27,0L1.35,3.25Zm4.15.55a1.31,1.31,0,0,0,.27,0c.07,0,.16-.1.17-.16s-.08-.15-.14-.19a.73.73,0,0,0-.63,0c-.16.08-.18.22,0,.31A1.82,1.82,0,0,0,5.4,3.71Z"/><path d="M9.33,21l-.17.11-3.47,2c-.09.05-.15.09-.26,0-1.37-.89-2.74-1.76-4.11-2.64l-.06-.06.15-.1,3.45-2a.22.22,0,0,1,.27,0l4.1,2.6ZM5.41,21a1.44,1.44,0,0,0,.33-.09c.14-.07.14-.18,0-.28A.74.74,0,0,0,5,20.54c-.12.08-.14.2,0,.28A1.66,1.66,0,0,0,5.41,21Z"/><path d="M15.22,3.16l.55-.32,3.06-1.79a.21.21,0,0,1,.26,0L23.2,3.64l.1.07-.15.1-3.51,2a.24.24,0,0,1-.23,0q-2.07-1.31-4.12-2.63Zm4.16.56a2.07,2.07,0,0,0,.32-.09c.14-.07.15-.18,0-.28A.74.74,0,0,0,19,3.3c-.13.08-.15.2,0,.28A2.92,2.92,0,0,0,19.38,3.72Z"/><path d="M15.22,20.4l3.16-1.84c.2-.12.4-.31.59-.31s.39.21.58.33L23.3,21l-.14.09-3.5,2.05a.23.23,0,0,1-.27,0q-2-1.32-4.07-2.62Zm4.14.55a1.13,1.13,0,0,0,.3-.06c.06,0,.14-.1.14-.15a.22.22,0,0,0-.12-.18.69.69,0,0,0-.64,0c-.17.08-.18.21,0,.3A1.82,1.82,0,0,0,19.36,21Z"/><path d="M26.36,3s0,0,.05,0a7.83,7.83,0,0,0,1.18.1,2.18,2.18,0,0,0,.67-.21.73.73,0,0,1-.81.41c-.21,0-.42-.1-.63-.14a5.17,5.17,0,0,0-.55-.07l0,.07.15.18,2.3,2.21c.11.11.15.2.06.31a1.78,1.78,0,0,1-.4.42c-.25.16-.37.12-.59-.08l-2.17-2a2,2,0,0,0-.25-.14.9.9,0,0,1-.18-.16,3.85,3.85,0,0,0-.26-.34c-.51-.5-1-1-1.57-1.48a.28.28,0,0,1-.09-.31.72.72,0,0,1,.53-.55.5.5,0,0,1,.55.13c.44.45.89.87,1.34,1.3l.14.12.08-.5H26l.16.39.37-.35.08.05a1.46,1.46,0,0,1-.07.3,2.8,2.8,0,0,1-.2.32s0,0,0,0l0,0Zm-.71.9c.16.15.3.29.45.42L28,6c.13.12.27.09.44-.07s.08-.21,0-.32L27.12,4.44l-1.05-1Zm.2-.65c-.57-.56-1.13-1.09-1.68-1.62a.37.37,0,0,0-.63.15.21.21,0,0,0,0,.19l1.79,1.67Z"/><path d="M26.36,20.21s0,.05.05.05a9.41,9.41,0,0,0,1.18.11,2.51,2.51,0,0,0,.67-.22.73.73,0,0,1-.81.41c-.21,0-.42-.1-.63-.14l-.55-.07,0,.07.15.18,2.3,2.22c.11.1.15.2.06.3a1.78,1.78,0,0,1-.4.42c-.25.16-.37.12-.59-.08l-2.14-2a2.16,2.16,0,0,0-.3-.18.73.73,0,0,1-.16-.14,2.88,2.88,0,0,0-.26-.35c-.51-.5-1-1-1.57-1.47a.3.3,0,0,1-.09-.32.73.73,0,0,1,.57-.56.47.47,0,0,1,.5.13c.44.45.9.88,1.35,1.31l.14.12.08-.5H26l.16.39.37-.34.08,0a1.46,1.46,0,0,1-.07.3,2.8,2.8,0,0,1-.2.32s0,0,0,0l0,0Zm-.71.9c.79.74,1.55,1.46,2.32,2.17.12.11.28.06.43-.11s.07-.19,0-.29l-2.18-2.09-.13-.12Zm.2-.65-1.67-1.61a.36.36,0,0,0-.63.13.23.23,0,0,0,0,.2l1.79,1.67Z"/><path d="M12.75,20.24a8.27,8.27,0,0,0,1.21.12,1.87,1.87,0,0,0,.65-.23.75.75,0,0,1-.82.43c-.21,0-.42-.1-.64-.14l-.55-.07,0,.07a1,1,0,0,0,.14.16c.76.74,1.53,1.49,2.3,2.22.12.12.15.22.06.35a2,2,0,0,1-.37.39c-.25.16-.4.12-.62-.08l-2.18-2a2.25,2.25,0,0,0-.21-.12.72.72,0,0,1-.2-.14c-.1-.12-.17-.27-.28-.38-.5-.48-1-1-1.53-1.43A.31.31,0,0,1,9.58,19a.76.76,0,0,1,.84-.59.5.5,0,0,1,.19.12L12,19.87l.15.15.09-.5.11,0,.16.4.4-.39c.1.35-.12.52-.25.74h.11Zm2.17,2.85L12.4,20.67l-.4.44,0,0,2.26,2.12a.23.23,0,0,0,.31,0Zm-2.8-2.57c-.29-.33-.57-.65-.86-.95s-.53-.53-.8-.79a.36.36,0,0,0-.49.07c-.15.15-.14.24,0,.4l1,.95.69.65Z"/><path d="M12.75,3a7.74,7.74,0,0,0,1.17.12,2.17,2.17,0,0,0,.68-.22.74.74,0,0,1-.81.42c-.22,0-.42-.1-.64-.14a4.86,4.86,0,0,0-.55-.07l0,.07a1,1,0,0,0,.14.16c.76.74,1.53,1.49,2.3,2.22a.24.24,0,0,1,.06.35,2,2,0,0,1-.37.39c-.26.16-.4.12-.62-.08-.73-.68-1.45-1.37-2.18-2a1.13,1.13,0,0,0-.21-.12.72.72,0,0,1-.2-.14,3.73,3.73,0,0,0-.28-.38c-.5-.49-1-1-1.53-1.43a.34.34,0,0,1-.11-.36.75.75,0,0,1,.84-.56.63.63,0,0,1,.2.13l1.51,1.46.09-.5.11,0,.16.4.4-.39c.1.35-.12.52-.25.74h.11ZM12,3.88c.78.72,1.54,1.44,2.31,2.14a.29.29,0,0,0,.27,0,1.33,1.33,0,0,0,.29-.25L12.4,3.42Zm.2-.66c-.6-.58-1.17-1.14-1.75-1.69-.12-.12-.36-.06-.49.09A.24.24,0,0,0,10,2c.49.44,1,.89,1.44,1.34l.28.25Z"/><path d="M22.79,4.56c0,.21-.1.41-.12.61a1.33,1.33,0,0,0,.09.36L21,5.61l0-.05,1.76-1Z"/><path d="M34.94,5.55l1.79-1a3,3,0,0,1,0,.46c0,.18-.13.35.07.52l-.05,0L35,5.61Z"/><path d="M22.79,21.81c0,.2-.1.4-.12.6a1.33,1.33,0,0,0,.09.36L21,22.86l0-.06,1.76-1Z"/><path d="M36.77,21.8c-.05.21-.11.41-.14.62s.06.19.1.32a7.72,7.72,0,0,1-1.8.06l1.76-1Z"/><path d="M7,22.79l1.79-1a2,2,0,0,1,0,.51.4.4,0,0,0,.07.47A7.51,7.51,0,0,1,7,22.79Z"/><path d="M8.79,5.53,7,5.61l0-.06,1.77-1a1.8,1.8,0,0,1,0,.47c0,.18-.11.33.07.49Z"/><path d="M3,4.77l1.22.79-.64.07a2.63,2.63,0,0,0-.39.06.32.32,0,0,1-.37-.38C2.91,5.13,3,5,3,4.77Z"/><path d="M4.24,22.78,3.12,23c-.13,0-.29-.24-.27-.4a.05.05,0,0,0,0,0c0-.16.11-.33.17-.51Z"/><path d="M17,4.77l1.23.78c-.34,0-.63.07-.91.12s-.57-.1-.43-.53C16.93,5,17,4.91,17,4.77Z"/><path d="M18.21,22.78,17.08,23c-.13,0-.29-.25-.25-.41s.11-.34.18-.54Z"/><path d="M32.18,5.54c-.4.06-.76.13-1.12.17-.15,0-.31-.24-.25-.43s.1-.32.16-.51Z"/><path d="M31,22l1.23.79-.64.07-.38.05a.31.31,0,0,1-.37-.4C30.85,22.36,30.91,22.2,31,22Z"/><path d="M12.75,20.25l.87-.28,0,.07c-.25.25-.6.11-.89.2Z"/><path d="M12.75,3l.87-.28,0,.07c-.26.25-.61.1-.9.2Z"/><path d="M26.36,3l.89-.22,0,.09c-.28.19-.6.1-.91.13Z"/><path d="M26.36,20.21l.89-.21,0,.08c-.28.19-.6.1-.91.13Z"/><path d="M37.46,3.91,37.33,4c-1.17.68-2.34,1.36-3.5,2.05a.22.22,0,0,1-.27,0l-4.1-2.64-.07,0,.17-.11,3.43-2a.24.24,0,0,1,.27,0l4.11,2.6Zm-3.9,0a2,2,0,0,0,.32-.1c.13-.07.13-.17,0-.27a.74.74,0,0,0-.72,0c-.13.08-.15.2,0,.27A3.25,3.25,0,0,0,33.56,3.92Z"/><path d="M29.38,20.61l3.75-2.2,4.34,2.74-.17.11-3.47,2a.24.24,0,0,1-.28,0l-4-2.61Zm4.18.55a2,2,0,0,0,.32-.1c.13-.07.13-.17,0-.27a.74.74,0,0,0-.72-.05c-.13.08-.15.2,0,.27A1.63,1.63,0,0,0,33.56,21.16Z"/><path d="M1.45,3.36,5.11,1.23a.23.23,0,0,1,.18,0L9.53,3.9,9.37,4l-3.49,2a.2.2,0,0,1-.26,0L1.55,3.44S1.5,3.4,1.45,3.36Zm4.15.55a1.31,1.31,0,0,0,.27-.05c.07,0,.16-.11.16-.17S6,3.54,5.9,3.51a.73.73,0,0,0-.63,0c-.16.08-.18.22,0,.3A1.58,1.58,0,0,0,5.6,3.91Z"/><path d="M9.52,21.15l-.16.11-3.47,2c-.09.05-.16.09-.26,0L1.52,20.67s0,0-.06-.06l.15-.1,3.45-2a.21.21,0,0,1,.26,0l4.11,2.59Zm-3.91,0c.12,0,.23-.05.32-.09s.15-.18,0-.28a.74.74,0,0,0-.72-.05c-.13.08-.14.2,0,.28A2.92,2.92,0,0,0,5.61,21.16Z"/><path d="M15.42,3.36,16,3,19,1.25a.2.2,0,0,1,.26,0L23.4,3.84l.09.07-.14.1-3.51,2a.26.26,0,0,1-.24,0L15.49,3.43Zm4.15.56c.13,0,.24,0,.33-.09s.15-.18,0-.28a.71.71,0,0,0-.72,0c-.13.08-.15.2,0,.28S19.46,3.87,19.57,3.92Z"/><path d="M15.42,20.6l3.16-1.85c.2-.11.4-.3.59-.3s.38.21.57.33l3.76,2.36-.14.1-3.51,2.05a.2.2,0,0,1-.26,0l-4.07-2.61Zm4.14.55a1.76,1.76,0,0,0,.3-.06c.06,0,.14-.1.14-.16s-.06-.14-.12-.17a.68.68,0,0,0-.65,0c-.16.07-.17.21,0,.3A1.82,1.82,0,0,0,19.56,21.15Z"/><path d="M26.56,3.17l.05.05a9.24,9.24,0,0,0,1.18.1,2.2,2.2,0,0,0,.67-.22.73.73,0,0,1-.81.42c-.21,0-.42-.11-.64-.14a5,5,0,0,0-.54-.07l0,.07c0,.06.09.12.15.18l2.3,2.21c.11.1.15.2.06.31a1.78,1.78,0,0,1-.4.42c-.25.16-.38.12-.59-.08l-2.17-2a1.23,1.23,0,0,0-.25-.14,1,1,0,0,1-.19-.16c-.09-.11-.15-.24-.25-.34L23.53,2.28A.25.25,0,0,1,23.44,2,.75.75,0,0,1,24,1.41a.52.52,0,0,1,.55.14c.44.44.89.87,1.34,1.3L26,3l.09-.5h.11l.16.39.36-.35.09,0a1.46,1.46,0,0,1-.07.3c-.05.11-.14.21-.2.32s0,0,0,0l0,0Zm-.71.9c.16.15.3.29.45.42l1.85,1.73c.13.12.27.09.44-.07s.08-.21,0-.32L27.32,4.64l-1.06-1Zm.2-.65L24.37,1.8a.37.37,0,0,0-.63.15.19.19,0,0,0,0,.18L25.56,3.8Z"/><path d="M26.56,20.41l.05.05a7.72,7.72,0,0,0,1.18.1,2.18,2.18,0,0,0,.67-.21.74.74,0,0,1-.81.41c-.21,0-.42-.1-.64-.14a5,5,0,0,0-.54-.07l0,.07c0,.06.09.12.15.18L28.89,23c.11.11.15.2.06.31a1.78,1.78,0,0,1-.4.42c-.25.16-.38.12-.59-.08l-2.14-2a2.16,2.16,0,0,0-.3-.18l-.17-.14A2.22,2.22,0,0,0,25.1,21l-1.57-1.48a.25.25,0,0,1-.09-.31.73.73,0,0,1,.57-.56.46.46,0,0,1,.49.13c.45.45.91.88,1.36,1.31l.13.12.09-.5h.11l.16.39.36-.35.09.05a1.46,1.46,0,0,1-.07.3c-.05.11-.14.21-.2.32s0,0,0,0l0,0Zm-.71.9c.79.74,1.55,1.46,2.32,2.17.11.11.28.06.43-.11s.07-.19,0-.29L26.39,21l-.13-.11Zm.2-.65-1.67-1.61a.36.36,0,0,0-.63.13.24.24,0,0,0,0,.2l1.79,1.67Z"/><path d="M13,20.44a9.91,9.91,0,0,0,1.21.12,2.1,2.1,0,0,0,.65-.23.75.75,0,0,1-.82.43c-.22,0-.42-.1-.64-.14a4.86,4.86,0,0,0-.55-.07l0,.07.14.16c.77.74,1.53,1.49,2.31,2.22.12.11.15.22.06.34a1.61,1.61,0,0,1-.38.4c-.25.16-.39.12-.61-.08-.73-.68-1.45-1.37-2.18-2a.94.94,0,0,0-.22-.12.67.67,0,0,1-.19-.14,3.73,3.73,0,0,0-.28-.38c-.5-.49-1-1-1.53-1.43a.32.32,0,0,1-.11-.34.75.75,0,0,1,.83-.58.39.39,0,0,1,.19.12l1.38,1.32.15.14.09-.49.1,0,.17.4.4-.39c.09.35-.12.52-.25.74Zm2.17,2.85L12.6,20.86l-.4.44,0,0,2.27,2.13a.23.23,0,0,0,.31,0Zm-2.8-2.57c-.3-.33-.57-.65-.86-1s-.53-.52-.81-.78a.34.34,0,0,0-.48.06c-.15.16-.14.25,0,.4l1,1,.69.65Z"/><path d="M13,3.2a9.28,9.28,0,0,0,1.17.12,2.17,2.17,0,0,0,.68-.22.74.74,0,0,1-.81.42c-.22,0-.42-.11-.64-.14a4.86,4.86,0,0,0-.55-.07l0,.07.14.16,2.31,2.22c.12.11.15.22.06.34a1.41,1.41,0,0,1-.38.39c-.25.17-.39.13-.61-.08l-2.18-2a.94.94,0,0,0-.22-.12.85.85,0,0,1-.19-.14,3.73,3.73,0,0,0-.28-.38c-.5-.49-1-1-1.53-1.43A.34.34,0,0,1,9.78,2a.75.75,0,0,1,.83-.56.46.46,0,0,1,.21.13L12.33,3l.09-.5.1,0,.17.4.4-.39c.09.35-.12.52-.25.74Zm-.76.87c.77.73,1.53,1.44,2.3,2.15a.34.34,0,0,0,.28,0A1.33,1.33,0,0,0,15.06,6L12.6,3.62Zm.2-.65-1.76-1.7a.36.36,0,0,0-.48.1c-.12.14-.11.25,0,.39.49.44,1,.89,1.44,1.34l.28.25Z"/><path d="M23,4.76a4.38,4.38,0,0,0-.12.61,1.33,1.33,0,0,0,.09.36l-1.78.08,0,0,1.76-1Z"/><path d="M35.13,5.75l1.8-1a3,3,0,0,1,0,.46c0,.18-.13.35.06.52l0,.05-1.77.08Z"/><path d="M23,22a4.69,4.69,0,0,0-.12.61A1.33,1.33,0,0,0,23,23l-1.78.08,0-.05,1.76-1Z"/><path d="M37,22c0,.21-.11.41-.13.62s.06.19.1.32a8.3,8.3,0,0,1-1.8.06l1.76-1Z"/><path d="M7.2,23,9,22a1.6,1.6,0,0,1,0,.51.44.44,0,0,0,.07.47A7.42,7.42,0,0,1,7.2,23Z"/><path d="M9,5.73l-1.76.08,0-.06L9,4.72a1.8,1.8,0,0,1,0,.47c-.05.17-.11.33.07.48Z"/><path d="M3.24,5l1.22.78-.64.08-.39.06a.32.32,0,0,1-.37-.38C3.11,5.33,3.17,5.16,3.24,5Z"/><path d="M4.44,23l-1.12.18c-.13,0-.3-.25-.27-.4s0,0,0,0,.11-.33.16-.51Z"/><path d="M17.2,5l1.22.78c-.33,0-.62.07-.9.12s-.57-.11-.43-.53C17.13,5.22,17.16,5.1,17.2,5Z"/><path d="M18.41,23c-.4.07-.77.13-1.13.17-.13,0-.29-.24-.25-.4s.11-.34.17-.54Z"/><path d="M32.38,5.74c-.4.06-.76.13-1.12.17-.15,0-.31-.25-.25-.43s.1-.32.16-.51Z"/><path d="M31.17,22.21,32.4,23l-.64.07-.38.05a.31.31,0,0,1-.37-.4C31.05,22.56,31.11,22.4,31.17,22.21Z"/><path d="M13,20.44l.87-.27,0,.07c-.25.25-.6.1-.89.2Z"/><path d="M13,3.2l.87-.28,0,.08c-.25.25-.6.1-.89.2Z"/><path d="M26.56,3.17,27.45,3l0,.09c-.28.19-.6.09-.91.13Z"/><path d="M26.56,20.41l.89-.22,0,.09c-.28.19-.6.1-.91.13Z"/></g><g class="cls-3"><path d="M37.12,3.57,37,3.66c-1.17.68-2.34,1.36-3.5,2.05a.22.22,0,0,1-.27,0l-4.1-2.64L29.05,3l.17-.11,3.43-2a.24.24,0,0,1,.27,0L37,3.5Zm-3.9,0a2,2,0,0,0,.32-.1c.13-.07.13-.18,0-.27a.77.77,0,0,0-.72-.06c-.13.09-.15.21,0,.28A3.25,3.25,0,0,0,33.22,3.58Z"/><path d="M29,20.27l3.75-2.2,4.34,2.74-.17.11-3.47,2a.24.24,0,0,1-.28,0l-4.05-2.61Zm4.18.55a2,2,0,0,0,.32-.1c.13-.07.13-.17,0-.27a.74.74,0,0,0-.72-.05c-.13.08-.15.2,0,.27A1.63,1.63,0,0,0,33.22,20.82Z"/><path d="M1.11,3C2.35,2.3,3.55,1.59,4.77.89A.23.23,0,0,1,5,.89L9.19,3.56,9,3.67l-3.49,2a.2.2,0,0,1-.26,0C3.93,4.84,2.57,4,1.21,3.1,1.18,3.09,1.16,3.06,1.11,3Zm4.15.55a1.31,1.31,0,0,0,.27,0c.07,0,.16-.11.16-.17s-.07-.15-.13-.18a.73.73,0,0,0-.63,0c-.16.08-.18.22,0,.3A1.58,1.58,0,0,0,5.26,3.57Z"/><path d="M9.18,20.81,9,20.92,5.55,23c-.09.05-.16.09-.26,0-1.37-.89-2.74-1.76-4.11-2.64l-.06-.06.15-.1,3.45-2a.21.21,0,0,1,.26,0l4.11,2.59Zm-3.91,0c.12,0,.23-.05.32-.09s.15-.18,0-.28a.74.74,0,0,0-.72-.05c-.13.08-.14.2,0,.28A2.92,2.92,0,0,0,5.27,20.82Z"/><path d="M15.08,3l.54-.32L18.69.91a.2.2,0,0,1,.26,0L23.06,3.5l.09.07-.14.1-3.51,2a.26.26,0,0,1-.24,0L15.15,3.09Zm4.15.56c.13,0,.24-.05.33-.09s.15-.18,0-.28a.71.71,0,0,0-.72,0c-.13.08-.15.2,0,.28S19.12,3.53,19.23,3.58Z"/><path d="M15.08,20.26l3.16-1.85c.2-.11.4-.3.59-.3s.38.21.57.33l3.76,2.36-.14.1L19.51,23a.2.2,0,0,1-.26,0l-4.07-2.61Zm4.14.55a1.76,1.76,0,0,0,.3-.06c.06,0,.14-.1.14-.16s-.06-.14-.12-.17a.68.68,0,0,0-.65,0c-.16.07-.17.21,0,.3A1.82,1.82,0,0,0,19.22,20.81Z"/><path d="M26.22,2.83l.05,0a9.24,9.24,0,0,0,1.18.1,2.2,2.2,0,0,0,.67-.22.73.73,0,0,1-.81.42c-.21,0-.42-.11-.64-.14A5,5,0,0,0,26.13,3l0,.07c0,.06.09.12.15.18l2.3,2.21c.11.1.15.2.06.31a1.78,1.78,0,0,1-.4.42c-.25.16-.38.12-.59-.08l-2.17-2a1.23,1.23,0,0,0-.25-.14A1,1,0,0,1,25,3.76c-.09-.11-.15-.24-.25-.34L23.19,1.94a.25.25,0,0,1-.09-.31.74.74,0,0,1,.53-.56.52.52,0,0,1,.55.14c.44.44.89.87,1.34,1.3l.13.12.09-.5h.11l.16.39.36-.35.09,0a1.46,1.46,0,0,1-.07.3c-.05.11-.14.21-.2.32s0,0,0,0l0,0Zm-.71.9c.16.15.3.29.45.42l1.85,1.73c.13.12.27.09.43-.07s.09-.21,0-.32L27,4.3l-1.06-1Zm.2-.65L24,1.46a.37.37,0,0,0-.63.15.19.19,0,0,0,0,.18l1.78,1.67Z"/><path d="M26.22,20.07l.05.05a7.72,7.72,0,0,0,1.18.1,2.18,2.18,0,0,0,.67-.21.74.74,0,0,1-.81.41c-.21,0-.42-.1-.64-.14a5,5,0,0,0-.54-.07l0,.07c0,.06.09.12.15.18l2.3,2.21c.11.11.15.2.06.31a1.78,1.78,0,0,1-.4.42c-.25.16-.38.12-.59-.08l-2.14-2a2.16,2.16,0,0,0-.3-.18L25,21a2.22,2.22,0,0,0-.25-.35l-1.57-1.48a.25.25,0,0,1-.09-.31.72.72,0,0,1,.57-.56.46.46,0,0,1,.49.13c.45.45.91.87,1.36,1.31l.13.12.09-.5h.11l.16.39.36-.35.09.05a1.46,1.46,0,0,1-.07.3c-.05.11-.14.21-.2.32s0,0,0,0l0,0Zm-.71.9c.79.74,1.55,1.46,2.32,2.17.11.11.28.06.43-.11s.07-.19,0-.29l-2.17-2.1-.13-.11Zm.2-.65L24,18.71a.36.36,0,0,0-.63.13.24.24,0,0,0,0,.2l1.79,1.67Z"/><path d="M12.61,20.1a9.91,9.91,0,0,0,1.21.12,2.1,2.1,0,0,0,.65-.23.75.75,0,0,1-.82.43c-.22,0-.42-.1-.64-.14a4.86,4.86,0,0,0-.55-.07l0,.07.14.16,2.31,2.22c.12.11.15.22.06.34a1.41,1.41,0,0,1-.38.39c-.25.17-.39.13-.61-.07-.73-.68-1.45-1.37-2.18-2a.94.94,0,0,0-.22-.12.67.67,0,0,1-.19-.14,3.73,3.73,0,0,0-.28-.38c-.5-.49-1-1-1.53-1.43a.32.32,0,0,1-.11-.34.75.75,0,0,1,.83-.58.39.39,0,0,1,.19.12l1.38,1.32.15.14.09-.49.1,0,.16.4.41-.39c.09.35-.12.52-.25.74ZM14.78,23l-2.52-2.43-.4.44s0,0,0,0l2.27,2.13a.23.23,0,0,0,.31,0ZM12,20.38c-.3-.33-.57-.65-.86-1s-.54-.52-.81-.78a.34.34,0,0,0-.48.06c-.15.16-.14.25,0,.4l1,1,.69.64Z"/><path d="M12.61,2.86A9.28,9.28,0,0,0,13.78,3a2.17,2.17,0,0,0,.68-.22.74.74,0,0,1-.81.42c-.22,0-.42-.11-.64-.15s-.36,0-.55-.06l0,.07.14.16,2.31,2.22c.12.11.15.22.06.34a1.41,1.41,0,0,1-.38.39c-.25.17-.39.13-.61-.08L11.77,4a.94.94,0,0,0-.22-.12.67.67,0,0,1-.19-.14,3.73,3.73,0,0,0-.28-.38c-.5-.49-1-1-1.53-1.43a.34.34,0,0,1-.11-.36.75.75,0,0,1,.83-.56.46.46,0,0,1,.21.13L12,2.64l.09-.5.1,0,.17.4.4-.39c.09.35-.12.52-.25.74Zm-.76.87c.77.73,1.53,1.44,2.3,2.15a.34.34,0,0,0,.28,0c.11,0,.18-.16.29-.25L12.26,3.28Zm.2-.65-1.76-1.7a.36.36,0,0,0-.48.1c-.12.14-.11.25,0,.39.49.44,1,.89,1.44,1.34l.28.25Z"/><path d="M22.65,4.42a4.38,4.38,0,0,0-.12.61,1.33,1.33,0,0,0,.09.36l-1.78.08,0,0,1.76-1Z"/><path d="M34.79,5.41l1.8-1a3,3,0,0,1,0,.46c0,.18-.13.35.06.52l0,0-1.77.08Z"/><path d="M22.65,21.66a4.69,4.69,0,0,0-.12.61,1.33,1.33,0,0,0,.09.36l-1.78.08,0-.05,1.76-1Z"/><path d="M36.62,21.66c0,.21-.11.41-.13.62s.06.19.1.32a8.3,8.3,0,0,1-1.8.06l1.76-1Z"/><path d="M6.86,22.65l1.79-1a1.64,1.64,0,0,1,0,.52.44.44,0,0,0,.07.47A7.42,7.42,0,0,1,6.86,22.65Z"/><path d="M8.64,5.39l-1.76.08,0-.06,1.77-1a1.8,1.8,0,0,1,0,.47c0,.17-.11.33.07.48Z"/><path d="M2.9,4.63l1.22.78-.64.08a2.63,2.63,0,0,0-.39.06.32.32,0,0,1-.37-.38C2.77,5,2.83,4.82,2.9,4.63Z"/><path d="M4.1,22.64,3,22.82c-.13,0-.3-.25-.27-.4s0,0,0,0,.1-.33.16-.51Z"/><path d="M16.86,4.63l1.22.78c-.33,0-.62.07-.91.12s-.56-.11-.42-.53C16.79,4.88,16.82,4.76,16.86,4.63Z"/><path d="M18.07,22.64c-.4.07-.77.13-1.13.17-.13,0-.29-.24-.25-.4s.11-.34.17-.54Z"/><path d="M32,5.4l-1.12.17c-.15,0-.31-.25-.25-.43s.1-.32.16-.51Z"/><path d="M30.83,21.87l1.23.79-.64.07-.38.05a.31.31,0,0,1-.37-.4C30.71,22.22,30.77,22.06,30.83,21.87Z"/><path d="M12.61,20.1l.87-.27,0,.07c-.25.25-.6.1-.89.2Z"/><path d="M12.61,2.86l.87-.28,0,.08c-.25.25-.6.1-.89.2Z"/><path d="M26.22,2.83l.89-.22,0,.09c-.28.19-.6.09-.91.13Z"/><path d="M26.22,20.07l.89-.22,0,.09c-.28.19-.6.1-.91.13Z"/></g><path class="cls-4" d="M37.32,3.77l-.13.09L33.68,5.91a.21.21,0,0,1-.26,0L29.31,3.28l-.06,0,.17-.12c1.15-.66,2.29-1.33,3.43-2a.24.24,0,0,1,.27,0q2,1.3,4.11,2.6Zm-3.9,0a2,2,0,0,0,.32-.1c.13-.07.13-.18,0-.27A.74.74,0,0,0,33,3.35c-.14.09-.15.2,0,.28A3.25,3.25,0,0,0,33.42,3.78Z"/><path class="cls-4" d="M29.24,20.46,33,18.27,37.33,21l-.17.1-3.47,2a.22.22,0,0,1-.28,0c-1.35-.88-2.7-1.74-4-2.61Zm4.18.56a2,2,0,0,0,.32-.1c.13-.07.13-.18,0-.27a.74.74,0,0,0-.72,0c-.14.08-.15.2,0,.27A3.25,3.25,0,0,0,33.42,21Z"/><path class="cls-4" d="M1.3,3.22,5,1.09a.19.19,0,0,1,.18,0L9.39,3.76l-.17.11-3.48,2a.21.21,0,0,1-.26,0L1.41,3.3Zm4.16.55a.83.83,0,0,0,.27-.06c.06,0,.16-.1.16-.16s-.07-.15-.14-.18a.65.65,0,0,0-.62,0c-.16.07-.18.22,0,.3A2.28,2.28,0,0,0,5.46,3.77Z"/><path class="cls-4" d="M9.38,21l-.17.11-3.46,2a.23.23,0,0,1-.26,0L1.38,20.52l-.06-.05.15-.11,3.45-2a.2.2,0,0,1,.26,0l4.11,2.59ZM5.47,21c.12,0,.23-.05.32-.09s.15-.18,0-.28a.71.71,0,0,0-.72,0c-.13.08-.14.2,0,.28S5.35,21,5.47,21Z"/><path class="cls-4" d="M15.28,3.22l.54-.32,3.07-1.79a.2.2,0,0,1,.26,0L23.26,3.7l.09.07-.15.1-3.5,2a.29.29,0,0,1-.24,0c-1.37-.87-2.74-1.76-4.11-2.64Zm4.15.55a2,2,0,0,0,.33-.08c.14-.07.15-.18,0-.28a.74.74,0,0,0-.72-.06c-.14.09-.15.2,0,.28A1.66,1.66,0,0,0,19.43,3.77Z"/><path class="cls-4" d="M15.27,20.46l3.17-1.85c.19-.11.39-.31.59-.3s.38.21.57.33L23.35,21l-.14.1-3.5,2a.2.2,0,0,1-.26,0l-4.07-2.61Zm4.15.55a1.62,1.62,0,0,0,.29-.06c.07,0,.15-.1.15-.16s-.06-.14-.12-.17a.68.68,0,0,0-.65,0c-.16.07-.17.21,0,.29A1.89,1.89,0,0,0,19.42,21Z"/><path class="cls-4" d="M26.42,3s0,0,0,0a8,8,0,0,0,1.19.11A2.29,2.29,0,0,0,28.32,3a.77.77,0,0,1-.81.42c-.22,0-.42-.11-.64-.15s-.36,0-.55-.06l0,.06a1.3,1.3,0,0,0,.15.18c.76.75,1.53,1.49,2.3,2.22.11.1.14.2.06.31a1.78,1.78,0,0,1-.4.42c-.25.16-.38.12-.6-.09l-2.16-2a2.07,2.07,0,0,0-.25-.15A.7.7,0,0,1,25.21,4,3,3,0,0,0,25,3.62L23.39,2.14a.27.27,0,0,1-.09-.32.74.74,0,0,1,.53-.55.5.5,0,0,1,.55.14c.43.44.89.87,1.34,1.3l.13.12.09-.5h.11l.16.39.36-.35.09.05a1.63,1.63,0,0,1-.07.3,2.11,2.11,0,0,1-.21.31V3Zm-.71.9.44.42L28,6.08c.13.12.27.09.43-.07s.09-.22,0-.33L27.18,4.5l-1.06-1Zm.2-.65L24.23,1.65a.37.37,0,0,0-.63.16.19.19,0,0,0,0,.18c.58.56,1.18,1.11,1.78,1.67Z"/><path class="cls-4" d="M26.42,20.27s0,0,0,0a8,8,0,0,0,1.19.11,2.29,2.29,0,0,0,.67-.22.74.74,0,0,1-.81.42c-.22,0-.42-.11-.64-.14a4.86,4.86,0,0,0-.55-.07l0,.07c.05.06.09.12.15.18l2.3,2.21c.11.1.14.2.06.31a1.78,1.78,0,0,1-.4.42c-.25.16-.38.12-.6-.08l-2.13-2a1.83,1.83,0,0,0-.3-.18.8.8,0,0,1-.17-.15c-.09-.11-.15-.24-.25-.34l-1.57-1.48a.25.25,0,0,1-.09-.31.73.73,0,0,1,.57-.57.48.48,0,0,1,.49.14L25.72,20l.13.12.09-.5h.11l.16.39.36-.35.09,0a1.46,1.46,0,0,1-.07.3,2.92,2.92,0,0,1-.21.32v0l0,0Zm-.71.9c.78.74,1.55,1.45,2.32,2.17.11.11.28.05.43-.11s.06-.19,0-.29l-2.17-2.1-.13-.11Zm.2-.65-1.67-1.61a.36.36,0,0,0-.63.13.21.21,0,0,0,0,.2l1.78,1.66Z"/><path class="cls-4" d="M12.8,20.3a10.08,10.08,0,0,0,1.22.12,2.33,2.33,0,0,0,.64-.23.73.73,0,0,1-.81.43c-.22,0-.43-.11-.64-.14a5.17,5.17,0,0,0-.55-.07l0,.07.14.16,2.3,2.22c.13.11.16.22.06.34a1.38,1.38,0,0,1-.37.39c-.25.17-.39.13-.61-.08l-2.18-2a.94.94,0,0,0-.22-.12.67.67,0,0,1-.19-.14,2.88,2.88,0,0,0-.28-.38c-.5-.49-1-1-1.53-1.43a.32.32,0,0,1-.11-.34.74.74,0,0,1,.83-.58.39.39,0,0,1,.19.12L12,19.93l.16.14.09-.49.1,0,.16.4.41-.39c.09.35-.12.52-.25.74h.1ZM15,23.15l-2.52-2.43-.4.44s0,0,0,0l2.27,2.13a.23.23,0,0,0,.31,0Zm-2.8-2.58c-.3-.32-.57-.64-.87-.95s-.53-.52-.8-.78a.34.34,0,0,0-.48.06c-.15.16-.14.25,0,.4l1,1,.7.64Z"/><path class="cls-4" d="M12.81,3.06A9.28,9.28,0,0,0,14,3.18,2.17,2.17,0,0,0,14.66,3a.74.74,0,0,1-.81.42c-.22,0-.43-.11-.64-.15s-.37,0-.55-.06l0,.07.14.16,2.31,2.22c.12.11.15.22.05.34a1.53,1.53,0,0,1-.37.39c-.25.16-.39.13-.61-.08L12,4.23a1.51,1.51,0,0,0-.22-.11A1,1,0,0,1,11.56,4c-.1-.12-.17-.27-.28-.38-.5-.48-1-1-1.53-1.42a.34.34,0,0,1-.11-.36.75.75,0,0,1,.83-.56.39.39,0,0,1,.21.13l1.51,1.46.09-.51h.1l.16.39L13,2.33c.09.35-.12.52-.25.74Zm-.76.87c.77.73,1.53,1.44,2.3,2.15a.34.34,0,0,0,.28,0,1.65,1.65,0,0,0,.29-.26L12.46,3.48Zm.2-.65-1.76-1.7a.35.35,0,0,0-.48.1c-.12.14-.11.25,0,.39.48.43,1,.89,1.43,1.34l.28.25Z"/><path class="cls-4" d="M22.84,4.62a6,6,0,0,0-.11.61,1,1,0,0,0,.09.36L21,5.67l0-.06,1.75-1Z"/><path class="cls-4" d="M35,5.61l1.8-1.05a3,3,0,0,1,0,.46c0,.18-.13.35.06.52l0,0L35,5.67Z"/><path class="cls-4" d="M22.84,21.86a6,6,0,0,0-.11.61,1,1,0,0,0,.09.36L21,22.91l0-.05,1.75-1Z"/><path class="cls-4" d="M36.82,21.86a4.26,4.26,0,0,0-.13.62.82.82,0,0,0,.1.32,8.31,8.31,0,0,1-1.8.05l1.76-1Z"/><path class="cls-4" d="M7.06,22.85,8.85,21.8a1.64,1.64,0,0,1,0,.52.44.44,0,0,0,.07.47A7.42,7.42,0,0,1,7.06,22.85Z"/><path class="cls-4" d="M8.84,5.59l-1.76.08,0-.06,1.77-1a1.88,1.88,0,0,1,0,.48c-.05.17-.12.33.07.48Z"/><path class="cls-4" d="M3.09,4.83l1.23.78-.64.07-.39.06a.31.31,0,0,1-.37-.38C3,5.19,3,5,3.09,4.83Z"/><path class="cls-4" d="M4.3,22.84,3.18,23c-.13,0-.3-.24-.27-.39a.08.08,0,0,1,0,0c0-.16.1-.33.16-.51Z"/><path class="cls-4" d="M17.06,4.82l1.22.79c-.33,0-.62.07-.91.12S16.8,5.62,17,5.2C17,5.08,17,5,17.06,4.82Z"/><path class="cls-4" d="M18.27,22.84c-.41.06-.77.13-1.13.17-.14,0-.3-.24-.25-.4s.11-.35.17-.54Z"/><path class="cls-4" d="M32.24,5.6l-1.12.17c-.15,0-.31-.25-.26-.43L31,4.83Z"/><path class="cls-4" d="M31,22.07l1.23.79-.65.07a2.35,2.35,0,0,0-.37.05.32.32,0,0,1-.38-.4Z"/><path class="cls-4" d="M12.81,20.3l.87-.28,0,.08c-.25.25-.6.1-.9.2Z"/><path class="cls-4" d="M12.81,3.06l.87-.28,0,.08c-.25.25-.6.1-.89.2Z"/><path class="cls-4" d="M26.42,3l.88-.22,0,.09c-.27.18-.6.09-.9.13Z"/><path class="cls-4" d="M26.42,20.27l.88-.22,0,.09c-.27.19-.6.09-.9.13Z"/></g></g></svg>