<svg xmlns="http://www.w3.org/2000/svg" viewBox="0 0 38.55 24.66"><defs><style>.cls-1{isolation:isolate;}.cls-2{opacity:0.15;}.cls-2,.cls-3{mix-blend-mode:multiply;}.cls-4{fill:#fff;}</style></defs><title>convert-CUSTOMIZE-SVG-03</title><g class="cls-1"><g id="Layer_1" data-name="Layer 1"><g class="cls-2"><path d="M6.48,22l.3.47c.14.25.26.52.41.77a.29.29,0,0,0,.52,0A1.56,1.56,0,0,0,8,22.78c.28-.68.54-1.35.81-2a1.88,1.88,0,0,1,.12-.18,1,1,0,0,1,.14.17l.86,2.07c.11.25.19.52.51.6H9.2c.35-.19.37-.25.22-.61-.21-.52-.21-.52-.76-.52-.38,0-.38,0-.52.35a1.17,1.17,0,0,0-.09.24c-.08.26,0,.38.23.52,0,0,0,0-.07,0H6.9a.26.26,0,0,1-.19-.15c-.16-.29-.29-.59-.44-.88S6,22,5.67,22a9.17,9.17,0,0,0,0,1c0,.12.18.23.27.34H4.87c.36-.15.32-.47.32-.76,0-.52,0-1,0-1.55,0-.31-.06-.39-.35-.51l.08,0c.48,0,1,0,1.42,0a.69.69,0,0,1,.7.85A.66.66,0,0,1,6.48,22Zm-.82,0a.7.7,0,0,0,.78-.27.77.77,0,0,0,0-.8c-.19-.28-.46-.27-.76-.24Zm3.09-.8H8.7l-.39,1h.86Z"/><path d="M8.06,7H7.14A1.93,1.93,0,0,0,6.8,7c-.23,0-.32-.07-.41-.27a8.11,8.11,0,0,0-.45-.88.47.47,0,0,0-.52-.25c0,.35,0,.71,0,1.06,0,.12.18.22.26.32H4.61c.28-.11.32-.33.32-.58V4.7a.42.42,0,0,0-.36-.48s0,0,.07,0c.48,0,1,0,1.43,0a.7.7,0,0,1,.71.85.66.66,0,0,1-.54.51c.15.27.31.54.46.82A4.91,4.91,0,0,0,7,6.82a.28.28,0,0,0,.49,0,1.67,1.67,0,0,0,.28-.46l.8-2a1,1,0,0,1,.13-.18.79.79,0,0,1,.14.18l.89,2.13c.1.23.19.46.47.53H9c.08-.09.22-.16.24-.27a.7.7,0,0,0-.07-.36C9,5.88,9,5.88,8.4,5.88c-.38,0-.38,0-.52.35a.78.78,0,0,0,0,.14C7.7,6.71,7.74,6.81,8.06,7ZM5.39,4.25V5.57c.33,0,.6,0,.78-.26a.71.71,0,0,0,0-.78C6,4.23,5.72,4.22,5.39,4.25Zm3.11.52H8.45l-.39,1h.85Z"/><path d="M32,23.43H30.57c-.05,0-.12-.08-.15-.15-.17-.32-.32-.65-.5-1a.48.48,0,0,0-.54-.27,8.83,8.83,0,0,0,0,1c0,.13.19.25.27.36h-1.1c.37-.13.35-.44.35-.73,0-.52,0-1,0-1.57,0-.32-.07-.41-.39-.53l.19,0c.45,0,.9,0,1.35,0a.69.69,0,0,1,.68.91.71.71,0,0,1-.51.45l.48.87a2.88,2.88,0,0,0,.22.38.28.28,0,0,0,.49,0,1.38,1.38,0,0,0,.27-.45c.27-.66.52-1.33.79-2a1.58,1.58,0,0,1,.15-.24c.05.08.12.15.16.23l.87,2.06c.09.24.19.48.48.56H32.9c.37-.2.39-.26.23-.65s-.2-.49-.74-.49-.4,0-.55.38l-.06.17C31.68,23.13,31.72,23.24,32,23.43ZM29.38,22a.71.71,0,0,0,.76-.25.75.75,0,0,0,0-.8c-.18-.29-.47-.29-.77-.26Zm2.65.21h.85l-.44-1.07Z"/><path d="M28.28,4.21c.55,0,1.08,0,1.6,0a.65.65,0,0,1,.63.63c0,.35-.14.56-.55.72l.37.64c.09.17.17.35.27.52s.44.33.65,0a2.6,2.6,0,0,0,.24-.47c.25-.64.5-1.29.76-1.93a.57.57,0,0,1,.11-.16.7.7,0,0,1,.14.16l.9,2.15c.09.22.18.47.47.53H32.66c.36-.2.37-.25.21-.64s-.2-.5-.74-.5-.4,0-.54.38a1.18,1.18,0,0,0-.07.2c-.09.28-.05.39.24.55l-.17,0H30.43a.27.27,0,0,1-.28-.17,10,10,0,0,0-.49-1,.47.47,0,0,0-.53-.25,9,9,0,0,0,0,1c0,.13.18.24.26.34h-1.1c.38-.13.34-.44.34-.74,0-.52,0-1,0-1.55C28.64,4.41,28.57,4.31,28.28,4.21Zm.84,0V5.58c.31,0,.59,0,.77-.27a.71.71,0,0,0,0-.78C29.73,4.23,29.44,4.22,29.12,4.25Zm2.66,1.53h.85l-.44-1.07Z"/><path d="M14.86,2.52a.66.66,0,0,0,.61-.81c-.06-.4-.36-.59-.88-.53,0,.32,0,.64,0,1s0,.86,0,1.29.1.42.4.52H13.74c.37-.07.39-.35.39-.64,0-.56,0-1.11,0-1.67,0-.32-.07-.4-.37-.54h.52a9.76,9.76,0,0,1,1.08,0,.64.64,0,0,1,.63.62c0,.35-.13.57-.52.71,0,0,0,0,0,0l.38.67c.08.15.15.3.24.44.23.39.5.4.71,0s.35-.83.52-1.25.29-.75.45-1.12a.45.45,0,0,1,.11-.13.45.45,0,0,1,.11.13l.93,2.22c.1.24.22.45.51.49H18.12c.1-.07.25-.13.29-.23a.65.65,0,0,0-.05-.38c-.2-.54-.21-.53-.78-.53h-.17a.22.22,0,0,0-.27.19c0,.11-.09.21-.12.32-.13.35-.08.48.27.65h-1.5s-.11-.07-.14-.13c-.14-.27-.25-.57-.41-.83A3.54,3.54,0,0,0,14.86,2.52Zm3.25.2-.45-1.09-.41,1.09Z"/><path d="M15.11,18.92c.48-.12.69-.39.62-.83s-.35-.56-.87-.53a.88.88,0,0,0,0,.16v2.05c0,.36.08.46.46.58H14c.36-.14.42-.21.43-.57V18.09c0-.28-.06-.51-.38-.55.55,0,1.09,0,1.63,0a.62.62,0,0,1,.61.62.65.65,0,0,1-.52.7s0,0,0,0c.2.38.41.76.62,1.13s.49.39.68,0,.4-.91.59-1.38l.39-1a.91.91,0,0,1,.11-.16.75.75,0,0,1,.14.17c.3.7.59,1.4.88,2.1.11.25.2.53.54.57H18.29l.21-.07a.25.25,0,0,0,.18-.35,5.5,5.5,0,0,0-.25-.63.23.23,0,0,0-.14-.09H18c-.17,0-.43,0-.5.06a1.68,1.68,0,0,0-.25.68c0,.21.09.33.29.42h-1.4a.22.22,0,0,1-.22-.15,9.2,9.2,0,0,0-.4-.84A3.23,3.23,0,0,0,15.11,18.92Zm3.25.19L17.92,18l-.41,1.08Z"/><path d="M29,4a1.49,1.49,0,0,1-1.52-1.49A1.57,1.57,0,0,1,29,1a1.54,1.54,0,0,1,1.53,1.49A1.54,1.54,0,0,1,29,4ZM30,2.66a1.92,1.92,0,0,0-.38-1.27.88.88,0,0,0-1.3,0,1.88,1.88,0,0,0,0,2.34.87.87,0,0,0,1.28,0A1.48,1.48,0,0,0,30,2.66Z"/><path d="M29.22,20.42A1.49,1.49,0,0,1,27.69,19a1.57,1.57,0,0,1,1.57-1.53,1.55,1.55,0,0,1,1.53,1.5A1.53,1.53,0,0,1,29.22,20.42Zm1.07-1.36a1.88,1.88,0,0,0-.39-1.28.89.89,0,0,0-1.28-.05,1.87,1.87,0,0,0,0,2.37.88.88,0,0,0,1.25,0A1.55,1.55,0,0,0,30.29,19.06Z"/><path d="M5.25,4A1.49,1.49,0,0,1,3.72,2.56,1.56,1.56,0,0,1,5.29,1,1.54,1.54,0,0,1,6.82,2.52,1.54,1.54,0,0,1,5.25,4Zm-1-1.55a1.73,1.73,0,0,0,.27,1,.9.9,0,0,0,1.56,0A1.92,1.92,0,0,0,6,1.46a.88.88,0,0,0-1.44,0A1.79,1.79,0,0,0,4.22,2.48Z"/><path d="M5.49,20.42A1.49,1.49,0,0,1,4,18.94a1.58,1.58,0,0,1,1.57-1.52,1.5,1.5,0,1,1,0,3Zm1.08-1.37a1.87,1.87,0,0,0-.39-1.28.9.9,0,0,0-1.29,0,1.88,1.88,0,0,0,0,2.34.88.88,0,0,0,1.3,0A1.5,1.5,0,0,0,6.57,19.05Z"/><path d="M20.27,20.55c.34-.08.94.32,1.19.82a1.45,1.45,0,0,1-.39,1.74,1.59,1.59,0,0,1-2,.1,1.46,1.46,0,0,1,.78-2.65,1,1,0,0,0-.75.71,4.38,4.38,0,0,0-.12,1,1.27,1.27,0,0,0,.39.87.86.86,0,0,0,1.29,0,1.85,1.85,0,0,0,0-2.32A2.41,2.41,0,0,0,20.27,20.55Z"/><path d="M19.59,4.16a1,1,0,0,0-.7.71,1.76,1.76,0,0,0,.26,1.89.87.87,0,0,0,1.31,0,1.88,1.88,0,0,0,0-2.31A2.07,2.07,0,0,0,20,4.16c.25-.09.8.22,1.09.66a1.41,1.41,0,0,1-.17,1.77,1.58,1.58,0,0,1-2,.31,1.47,1.47,0,0,1-.69-1.71A1.49,1.49,0,0,1,19.59,4.16Z"/><path d="M12.54,19.3h1.1a1.3,1.3,0,0,0-.23.33,1.78,1.78,0,0,0,0,.46l-.33.14a1.78,1.78,0,0,1-1.59,0,1.35,1.35,0,0,1-.69-1.5A1.49,1.49,0,0,1,13,17.57c.13.05.24.1.37-.05v.88c-.06-.12-.09-.21-.14-.3-.2-.44-.47-.65-.89-.6a1.08,1.08,0,0,0-.54.25,1.84,1.84,0,0,0-.2,2.19.78.78,0,0,0,.82.4.75.75,0,0,0,.44-.25C13.06,19.8,13,19.46,12.54,19.3Z"/><path d="M13.07,1.13V2l-.14-.3A.87.87,0,0,0,12,1.1a.77.77,0,0,0-.57.27,1.87,1.87,0,0,0-.19,2.15.83.83,0,0,0,.85.44.61.61,0,0,0,.53-.48c.07-.29,0-.41-.34-.58h1.13c-.48.13-.25.53-.32.79l-.34.16a1.81,1.81,0,0,1-1.54,0,1.39,1.39,0,0,1-.72-1.54,1.51,1.51,0,0,1,2.16-1.18C12.82,1.22,12.94,1.28,13.07,1.13Z"/><path d="M37.35,19.3c-.38.19-.19.53-.25.79l-.34.15a1.79,1.79,0,0,1-1.55,0,1.1,1.1,0,0,1-.58-.58,1.75,1.75,0,0,1,.28-1.83,1.59,1.59,0,0,1,1.75-.3c.13.06.24.12.38,0v.87a4.48,4.48,0,0,0-.26-.49.83.83,0,0,0-1.38-.1,1.91,1.91,0,0,0-.16,2.11.83.83,0,0,0,.85.44.59.59,0,0,0,.55-.52c0-.27,0-.39-.38-.53Z"/><path d="M36,2.91H37.1c-.39.18-.19.54-.25.79l-.32.13a1.77,1.77,0,0,1-1.57,0,1.06,1.06,0,0,1-.59-.6,1.76,1.76,0,0,1,.29-1.82,1.63,1.63,0,0,1,1.75-.3,1.43,1.43,0,0,0,.38,0V2l-.14-.3a.88.88,0,0,0-.91-.62.79.79,0,0,0-.55.27A1.89,1.89,0,0,0,35,3.52a.87.87,0,0,0,.85.44.62.62,0,0,0,.54-.47C36.45,3.18,36.38,3.06,36,2.91Z"/><path d="M22.19,4.64V6.52a.48.48,0,0,0,.33.5h-.75c.31-.11.34-.35.33-.62V4.75c0-.26-.05-.47-.34-.57.22,0,.44,0,.66,0,.07,0,.13.08.17.14.47.58.92,1.16,1.38,1.74a.67.67,0,0,0,.23.21V4.71c0-.3-.09-.4-.42-.52h.84c-.29.1-.34.32-.34.58v2a1.5,1.5,0,0,1,0,.22l-.06,0-2-2.44Z"/><path d="M24.46,23.44l-2-2.47c0,.09,0,.14,0,.18,0,.59,0,1.18,0,1.76,0,.3.06.36.37.5H22c.3-.11.33-.35.33-.61q0-.82,0-1.65a.52.52,0,0,0-.35-.58c.22,0,.45,0,.67,0,.06,0,.12.08.17.14l1.38,1.74a.67.67,0,0,0,.23.21v-.79c0-.26,0-.52,0-.78s-.08-.4-.42-.51h.84c-.29.09-.33.31-.33.57,0,.68,0,1.36,0,2,0,.07,0,.14,0,.22Z"/><path d="M33.65,20.37l-2-2.45,0,.07c0,.63,0,1.25,0,1.87,0,.31.09.39.39.48h-.91c.36-.12.42-.2.42-.59V18c0-.32-.09-.42-.39-.54.24,0,.48,0,.71,0,.06,0,.13.08.17.14l1.47,1.86.14.14V18.09c0-.37-.08-.46-.44-.58h.9c-.33.06-.38.3-.38.59,0,.67,0,1.34,0,2v.22Z"/><path d="M33.4,4l-2-2.45s0,.05,0,.07c0,.62,0,1.24,0,1.86,0,.32.09.39.39.48h-.9c.35-.12.41-.2.41-.58,0-.57,0-1.14,0-1.72,0-.32-.08-.41-.39-.53.24,0,.48,0,.72,0,.06,0,.12.09.17.15l1.47,1.85.13.15V2.63c0-.31,0-.63,0-.94s-.07-.46-.44-.58h.91c-.33.07-.39.31-.38.59,0,.67,0,1.34,0,2v.23Z"/><path d="M9.68,4l-2-2.45s0,.05,0,.07c0,.63,0,1.25,0,1.88,0,.29.09.37.38.46h-.9c.35-.11.42-.2.42-.56q0-.87,0-1.74c0-.32-.09-.41-.39-.53.24,0,.48,0,.72,0,0,0,.11.08.15.13L9.5,3.06a2,2,0,0,0,.16.19c0-.62,0-1.18,0-1.75,0-.21-.16-.33-.37-.39h.85c-.36.07-.38.35-.38.63,0,.66,0,1.32,0,2v.23Z"/><path d="M9.93,19.66c0-.61,0-1.14,0-1.68a.44.44,0,0,0-.38-.47h.85c-.38.07-.38.36-.38.65V20.1a.59.59,0,0,1,0,.25c-.7-.78-1.34-1.61-2-2.43,0,0,0,.07,0,.09v1.78c0,.28.08.5.4.56H7.44a1.2,1.2,0,0,0,.31-.21.75.75,0,0,0,.08-.37c0-.57,0-1.15,0-1.73,0-.33-.08-.42-.39-.54.24,0,.48,0,.72,0,.05,0,.11.07.15.12l1.45,1.83Z"/><path d="M27,22.37h1.25c-.54.08-.31.51-.37.79a2.71,2.71,0,0,0-.3.13,1.78,1.78,0,0,1-1.56.07,1.21,1.21,0,0,1-.73-1,1.57,1.57,0,0,1,.74-1.69,2.07,2.07,0,0,1,.66-.17,1.29,1.29,0,0,0-.83,1A1.85,1.85,0,0,0,26,22.81a.88.88,0,0,0,1.08.58.75.75,0,0,0,.34-.27A.46.46,0,0,0,27,22.37Z"/><path d="M28,6c-.36.1-.36.1-.37.8l-.29.11A1.74,1.74,0,0,1,26,7,1.23,1.23,0,0,1,25.06,6a1.55,1.55,0,0,1,1-1.79,1.58,1.58,0,0,1,.38,0,1.29,1.29,0,0,0-.84,1,1.83,1.83,0,0,0,.07,1.3.89.89,0,0,0,1.05.6.56.56,0,0,0,.19-.09.61.61,0,0,0,.26-.61c0-.25-.23-.29-.43-.34Z"/><path d="M3,20.57a1,1,0,0,0-.67.53,1.84,1.84,0,0,0,.05,2,.79.79,0,0,0,.92.33.75.75,0,0,0,.33-.25c.25-.35.09-.68-.33-.77H4.57c-.55.07-.31.51-.38.79l-.3.13a1.76,1.76,0,0,1-1.55.07,1.2,1.2,0,0,1-.74-1,1.54,1.54,0,0,1,1-1.79A1.44,1.44,0,0,1,3,20.52Z"/><path d="M3.06,6H4.32c-.56.07-.32.51-.38.79-.2.09-.39.18-.59.25A1.67,1.67,0,0,1,2.29,7,1.22,1.22,0,0,1,1.35,6a1.54,1.54,0,0,1,1-1.8,1.08,1.08,0,0,1,.36,0A1.06,1.06,0,0,0,2,4.81a1.79,1.79,0,0,0,.14,1.9A.78.78,0,0,0,3.06,7l.17-.08a.61.61,0,0,0,.25-.61C3.45,6.06,3.25,6,3.06,6Z"/><path d="M36.22,23.42H35.09c.34-.12.34-.4.34-.69V20.67a.94.94,0,0,0-1.23.59c0-.21,0-.41,0-.62,0,0,.07-.07.11-.07l2.7,0,0,0,0,.68a1,1,0,0,0-1.23-.64s0,.06,0,.1c0,.71,0,1.42,0,2.13A.49.49,0,0,0,36.22,23.42Z"/><path d="M36,7H34.83c.35-.11.35-.4.35-.68,0-.62,0-1.24,0-1.87v-.2a1,1,0,0,0-1.23.6c0-.21,0-.42,0-.62a.16.16,0,0,1,.11-.07H36.8l0,0,0,.68a1,1,0,0,0-1.23-.64.29.29,0,0,0,0,.09V6.49A.49.49,0,0,0,36,7Z"/><path d="M12.24,7H11.11c.33-.1.35-.37.35-.64V4.45c0-.06,0-.12,0-.18a.94.94,0,0,0-1.22.6l0-.68h2.65c.16,0,.22,0,.22.22s0,.32,0,.54c-.35-.63-.58-.75-1.24-.67,0,0,0,.06,0,.09V6.49A.51.51,0,0,0,12.24,7Z"/><path d="M12.16,20.64v.59c0,.52,0,1,0,1.56s0,.43.35.62H11.37c.35-.11.34-.4.34-.7v-2c-.51-.06-1-.08-1.22.59l0-.67h2.86l0,.68C13.22,20.63,12.72,20.62,12.16,20.64Z"/><path d="M22.6,3.87V3.15h0a.83.83,0,0,0,.07.13,2.79,2.79,0,0,0,.24.45.59.59,0,0,0,.66.22A.49.49,0,0,0,24,3.52a.64.64,0,0,0-.25-.66c-.18-.12-.38-.22-.57-.33a.75.75,0,0,1-.4-1,.81.81,0,0,1,1.07-.4,3.82,3.82,0,0,0,.42.09v.73c-.06-.13-.09-.23-.13-.32-.12-.26-.26-.5-.6-.5a.44.44,0,0,0-.46.27.43.43,0,0,0,.08.53,1.77,1.77,0,0,0,.41.29,5.54,5.54,0,0,1,.53.3.8.8,0,0,1,.31.95.83.83,0,0,1-.78.58,4.72,4.72,0,0,1-.64-.1Z"/><path d="M24.52,17.58v.68h0a2.68,2.68,0,0,0-.12-.3c-.12-.26-.27-.48-.6-.48a.47.47,0,0,0-.45.27.45.45,0,0,0,.06.51,1.58,1.58,0,0,0,.39.29c.18.11.38.19.55.3a.85.85,0,0,1-.46,1.55,4.72,4.72,0,0,1-.64-.1l-.36,0v-.73h0s0,.09.07.13a2.25,2.25,0,0,0,.25.46.6.6,0,0,0,.66.21.49.49,0,0,0,.38-.41.62.62,0,0,0-.24-.66,6.24,6.24,0,0,0-.66-.38.7.7,0,0,1-.38-.74.74.74,0,0,1,.58-.68,2.32,2.32,0,0,1,.63.06Z"/><path d="M19.42,1.79l0-.68h2.85l.05.73s-.05,0-.05,0c-.14-.59-.52-.65-1.09-.65,0,0-.11.08-.11.13,0,.73,0,1.45,0,2.18A.45.45,0,0,0,21.5,4H20.19c.38-.12.46-.21.46-.57v-2c0-.15,0-.21-.19-.19s-.3,0-.44.05C19.69,1.27,19.55,1.51,19.42,1.79Z"/><path d="M22.57,17.51l.05.74s-.06,0-.06-.05c-.13-.58-.54-.63-1.08-.64a.18.18,0,0,0-.12.13c0,.73,0,1.46,0,2.2a.43.43,0,0,0,.39.45H20.52a1.16,1.16,0,0,0,.31-.22.78.78,0,0,0,.07-.38c0-.66,0-1.32,0-2a1,1,0,0,0,0-.18.91.91,0,0,0-1.19.65v-.73Z"/><path d="M27.28,17.55v.83h0c-.05-.11-.09-.22-.14-.32a.85.85,0,0,0-1.55-.14,1.83,1.83,0,0,0-.1,1.82,1,1,0,0,0,1.39.44,2,2,0,0,0,.43-.45.81.81,0,0,1-.76.66,1.65,1.65,0,0,1-1-.11A1.44,1.44,0,0,1,25,18.15a1.53,1.53,0,0,1,1.63-.7c.12,0,.23.08.35.1A1.7,1.7,0,0,0,27.28,17.55Z"/><path d="M3.33,3.3a.79.79,0,0,1-.76.7,1.78,1.78,0,0,1-.65,0A1.36,1.36,0,0,1,.81,2.4,1.43,1.43,0,0,1,2.2,1,5.1,5.1,0,0,1,3,1.15c.1,0,.2,0,.33,0V2c0-.14-.09-.24-.13-.33a.91.91,0,0,0-.7-.61.87.87,0,0,0-.9.48A1.82,1.82,0,0,0,1.5,3.36a1,1,0,0,0,1.39.43A2,2,0,0,0,3.33,3.3Z"/><path d="M27,3.28a.69.69,0,0,1-.54.66,2.09,2.09,0,0,1-.86.05,1.4,1.4,0,0,1-1.05-1.87,1.48,1.48,0,0,1,1.79-1.06c.1,0,.2.07.3.09s.22,0,.35,0V2c-.06-.13-.09-.23-.14-.33a.9.9,0,0,0-.7-.6.88.88,0,0,0-.9.48,1.84,1.84,0,0,0-.08,1.75,1,1,0,0,0,1.38.48A.85.85,0,0,0,27,3.28Z"/><path d="M3.57,17.55v.83h0l-.12-.3a.9.9,0,0,0-.69-.59.85.85,0,0,0-.89.45,1.81,1.81,0,0,0-.09,1.8,1,1,0,0,0,1.39.44,2,2,0,0,0,.44-.49c0,.32-.28.62-.75.7a2,2,0,0,1-.65,0A1.35,1.35,0,0,1,1.07,18.8a1.43,1.43,0,0,1,1.4-1.37,4.11,4.11,0,0,1,.77.12Z"/><path d="M14.16,4.12a.57.57,0,0,0,0,1l.43.22c.57.29.76.71.56,1.2A1,1,0,0,1,13.87,7a4.57,4.57,0,0,0-.46-.1V6.22h0c.06.14.11.28.18.41a.71.71,0,0,0,.66.42.53.53,0,0,0,.5-.39.66.66,0,0,0-.25-.73c-.2-.13-.42-.24-.63-.36a.77.77,0,0,1,0-1.35A1.14,1.14,0,0,1,14.16,4.12Z"/><path d="M13.66,23.34v-.78l.09.16a3,3,0,0,0,.26.47.6.6,0,0,0,.9.07.63.63,0,0,0-.11-.93c-.2-.15-.44-.25-.65-.38a.77.77,0,0,1,0-1.35.53.53,0,0,1,.26-.06.56.56,0,0,0-.35.53.64.64,0,0,0,.41.52c.19.1.39.18.57.29a.84.84,0,0,1,.39,1.05.91.91,0,0,1-1,.57c-.15,0-.29-.09-.45-.12Z"/><path d="M17.86,6.27a.85.85,0,0,1-.72.8,1.4,1.4,0,0,1-1.75-1,1.51,1.51,0,0,1,1-1.94,1,1,0,0,1,.34,0,1.2,1.2,0,0,0-.82.93A1.88,1.88,0,0,0,16,6.36a1.05,1.05,0,0,0,1.31.57A.93.93,0,0,0,17.86,6.27Z"/><path d="M18.12,22.67a.8.8,0,0,1-.62.76,1.43,1.43,0,0,1-1.85-.88,1.53,1.53,0,0,1,1-2,.85.85,0,0,1,.32,0A1.43,1.43,0,0,0,16.09,22a2.25,2.25,0,0,0,.11.63,1,1,0,0,0,1.29.69C17.79,23.26,17.92,23.12,18.12,22.67Z"/><path d="M18.09,20.56v.88c-.18-.36-.33-.76-.82-.87C17.56,20.44,17.8,20.79,18.09,20.56Z"/><path d="M17.83,5.05a1.41,1.41,0,0,0-.78-.92l.78.13Z"/><path d="M3.88,4.17v.91c-.2-.39-.32-.81-.84-.9C3.34,4,3.57,4.46,3.88,4.17Z"/><path d="M4.14,20.58v.92c-.19-.42-.33-.83-.85-.94C3.6,20.44,3.83,20.84,4.14,20.58Z"/><path d="M27.6,4.18v.93c-.19-.44-.34-.84-.85-.94C27.06,4.05,27.29,4.46,27.6,4.18Z"/><path d="M27.85,20.62v.88c-.19-.43-.33-.84-.81-.93l0-.06c.13,0,.26.07.38.12s.26.14.38-.07Z"/><path d="M15.32,21.31c-.14-.29-.24-.62-.6-.77l.6.11Z"/><path d="M14.48,4.13l.28.08a2.51,2.51,0,0,0,.31,0v.68C14.91,4.63,14.83,4.28,14.48,4.13Z"/><path d="M6.68,22.16l.3.47c.14.25.26.52.41.76a.29.29,0,0,0,.52,0A1.48,1.48,0,0,0,8.17,23c.28-.67.54-1.34.81-2a.94.94,0,0,1,.12-.18,1,1,0,0,1,.14.17L10.1,23c.11.24.19.52.51.6H9.4c.34-.19.36-.25.22-.61-.21-.52-.21-.52-.77-.52-.37,0-.37,0-.52.35a2.25,2.25,0,0,0-.08.24c-.08.26,0,.38.23.52l-.07,0H7.1a.26.26,0,0,1-.19-.15c-.16-.29-.29-.59-.45-.89a.54.54,0,0,0-.59-.35,9.2,9.2,0,0,0,0,1.05c0,.12.18.23.27.33H5.06c.37-.14.33-.46.33-.75,0-.52,0-1,0-1.55,0-.31-.06-.39-.35-.52l.08,0c.48,0,.95,0,1.42,0a.7.7,0,0,1,.7.86A.67.67,0,0,1,6.68,22.16Zm-.82,0c.31,0,.59,0,.77-.27a.75.75,0,0,0,0-.8c-.19-.28-.47-.27-.76-.25ZM9,21.36h0l-.39,1h.86Z"/><path d="M8.26,7.24H7.33a1.82,1.82,0,0,0-.33,0c-.23,0-.33-.07-.41-.27a9.1,9.1,0,0,0-.45-.88.49.49,0,0,0-.52-.26c0,.36,0,.72,0,1.07,0,.12.18.22.26.32H4.8a.54.54,0,0,0,.33-.59V4.9a.43.43,0,0,0-.36-.48l.06,0c.48,0,1,0,1.44,0A.7.7,0,0,1,7,5.25a.66.66,0,0,1-.54.51c.15.27.3.54.46.81A3.14,3.14,0,0,0,7.15,7a.28.28,0,0,0,.49,0,1.58,1.58,0,0,0,.28-.47c.27-.67.53-1.35.8-2a1.13,1.13,0,0,1,.12-.18A.84.84,0,0,1,9,4.56l.89,2.13c.1.22.19.46.47.53H9.18c.09-.09.22-.17.25-.27a.68.68,0,0,0-.07-.36c-.2-.51-.2-.51-.76-.51-.38,0-.38,0-.52.35L8,6.57C7.9,6.9,7.93,7,8.26,7.24ZM5.59,4.45V5.77c.32,0,.6,0,.78-.26a.71.71,0,0,0,0-.78C6.21,4.42,5.92,4.42,5.59,4.45ZM8.7,5h0L8.26,6h.85Z"/><path d="M32.18,23.63H30.77c-.05,0-.12-.09-.15-.15-.17-.32-.32-.65-.5-1a.49.49,0,0,0-.54-.27,8.85,8.85,0,0,0,0,1c0,.13.19.25.27.35h-1.1c.37-.12.34-.43.34-.72,0-.52,0-1.05,0-1.57,0-.32-.07-.41-.39-.53l.19,0c.45,0,.9,0,1.35,0a.7.7,0,0,1,.68.92.71.71,0,0,1-.51.45l.47.87c.08.13.14.26.23.38a.28.28,0,0,0,.49,0,1.74,1.74,0,0,0,.27-.45c.27-.66.52-1.33.79-2a1.58,1.58,0,0,1,.15-.24A1.14,1.14,0,0,1,33,21c.3.68.59,1.37.87,2.06.1.24.19.48.48.55H33.1c.37-.19.39-.25.23-.64s-.21-.49-.75-.49-.39,0-.54.37A1.27,1.27,0,0,0,32,23C31.88,23.33,31.92,23.44,32.18,23.63Zm-2.61-1.47c.31,0,.58,0,.77-.25a.77.77,0,0,0,0-.8.73.73,0,0,0-.78-.27Zm2.66.21h.85l-.44-1.07Z"/><path d="M28.47,4.41c.56,0,1.09,0,1.61,0a.66.66,0,0,1,.63.64c0,.35-.14.56-.56.72.13.21.25.42.37.63s.18.36.28.53c.2.32.44.33.65,0a2.27,2.27,0,0,0,.23-.47c.26-.64.51-1.29.77-1.93a.57.57,0,0,1,.11-.16.7.7,0,0,1,.14.16l.9,2.15c.09.22.18.46.47.53H32.85c.37-.2.38-.25.22-.64s-.2-.5-.74-.5-.4,0-.55.38l-.06.2c-.09.28,0,.39.24.55l-.17,0H30.62a.26.26,0,0,1-.27-.18c-.15-.33-.31-.66-.49-1a.47.47,0,0,0-.53-.25,9,9,0,0,0,0,1c0,.13.18.24.27.34h-1.1c.38-.13.34-.45.34-.74V4.93C28.84,4.6,28.77,4.51,28.47,4.41Zm.85,0V5.77c.3,0,.58,0,.77-.26a.71.71,0,0,0,0-.78C29.93,4.43,29.64,4.42,29.32,4.45ZM32,6h.86l-.44-1.07Z"/><path d="M15.05,2.72a.67.67,0,0,0,.62-.81c-.06-.4-.36-.59-.89-.53v1c0,.43,0,.86,0,1.29s.09.42.4.51H13.93c.37-.06.4-.34.4-.63,0-.56,0-1.11,0-1.67,0-.32-.08-.41-.38-.54h.53c.36,0,.72,0,1.08,0a.65.65,0,0,1,.63.63c0,.35-.13.57-.52.71h0l.39.68c.08.14.15.3.24.44.22.39.5.4.71,0s.35-.82.52-1.24.29-.75.44-1.12c0-.05.08-.09.12-.14a.67.67,0,0,1,.11.14l.93,2.22c.1.23.22.45.51.49H18.32c.09-.07.25-.13.29-.23a.65.65,0,0,0-.05-.38C18.35,3,18.35,3,17.78,3h-.17a.22.22,0,0,0-.27.19,2.88,2.88,0,0,1-.13.31c-.12.36-.07.48.28.66H16s-.1-.07-.13-.13c-.14-.28-.26-.57-.41-.83A3,3,0,0,0,15.05,2.72Zm3.26.19-.45-1.08-.41,1.08Z"/><path d="M15.31,19.12c.48-.13.69-.39.61-.83s-.34-.56-.86-.53a.88.88,0,0,0,0,.16v2c0,.36.07.46.45.57H14.14c.37-.13.43-.2.44-.56v-1.7c0-.27-.06-.51-.38-.54.54,0,1.09,0,1.63,0a.63.63,0,0,1,.61.62.65.65,0,0,1-.52.7h0c.21.38.41.76.63,1.14s.48.39.68,0,.4-.91.59-1.38.25-.65.39-1a.57.57,0,0,1,.11-.16.7.7,0,0,1,.14.16c.29.71.58,1.41.88,2.11.11.25.2.52.54.57H18.49l.21-.07a.25.25,0,0,0,.18-.35c-.07-.21-.16-.42-.25-.63a.23.23,0,0,0-.14-.09h-.32c-.17,0-.43,0-.5.05a1.78,1.78,0,0,0-.25.69c-.05.21.09.33.29.42h-1.4a.22.22,0,0,1-.22-.15,8.09,8.09,0,0,0-.4-.84A3.23,3.23,0,0,0,15.31,19.12Zm3.25.19-.44-1.08-.42,1.08Z"/><path d="M29.15,4.23a1.5,1.5,0,0,1-1.52-1.49A1.57,1.57,0,0,1,29.2,1.23a1.54,1.54,0,0,1,1.53,1.49A1.54,1.54,0,0,1,29.15,4.23Zm1.08-1.37a2,2,0,0,0-.38-1.28.89.89,0,0,0-1.3,0,1.87,1.87,0,0,0,0,2.34.88.88,0,0,0,1.28,0A1.5,1.5,0,0,0,30.23,2.86Z"/><path d="M29.42,20.62a1.49,1.49,0,0,1-1.53-1.47,1.57,1.57,0,0,1,1.57-1.53,1.5,1.5,0,1,1,0,3Zm1.07-1.37A1.92,1.92,0,0,0,30.1,18a.89.89,0,0,0-1.28-.05,1.86,1.86,0,0,0,0,2.37.88.88,0,0,0,1.25,0A1.55,1.55,0,0,0,30.49,19.25Z"/><path d="M5.45,4.23A1.49,1.49,0,0,1,3.92,2.76,1.56,1.56,0,0,1,5.49,1.23,1.54,1.54,0,0,1,7,2.72,1.55,1.55,0,0,1,5.45,4.23Zm-1-1.55a1.63,1.63,0,0,0,.27,1,.89.89,0,0,0,1.56,0,1.92,1.92,0,0,0-.06-2.06.87.87,0,0,0-1.44,0A1.72,1.72,0,0,0,4.42,2.68Z"/><path d="M5.69,20.62a1.49,1.49,0,0,1-1.52-1.49,1.57,1.57,0,0,1,1.57-1.51,1.5,1.5,0,1,1,0,3Zm1.08-1.37A2,2,0,0,0,6.38,18a.9.9,0,0,0-1.29,0,1.88,1.88,0,0,0,0,2.34.88.88,0,0,0,1.3,0A1.56,1.56,0,0,0,6.77,19.25Z"/><path d="M20.47,20.75c.34-.08.93.32,1.19.82a1.45,1.45,0,0,1-.39,1.74,1.58,1.58,0,0,1-2,.09,1.45,1.45,0,0,1,.77-2.64,1,1,0,0,0-.74.71,4.38,4.38,0,0,0-.12,1,1.25,1.25,0,0,0,.39.87.86.86,0,0,0,1.29,0,1.85,1.85,0,0,0,0-2.32A2,2,0,0,0,20.47,20.75Z"/><path d="M19.79,4.36a1,1,0,0,0-.7.7A1.76,1.76,0,0,0,19.35,7a.85.85,0,0,0,1.3,0,1.86,1.86,0,0,0,0-2.31,2.41,2.41,0,0,0-.41-.27c.25-.09.8.22,1.09.66a1.41,1.41,0,0,1-.17,1.77,1.57,1.57,0,0,1-1.95.3,1.45,1.45,0,0,1-.69-1.7A1.49,1.49,0,0,1,19.79,4.36Z"/><path d="M12.74,19.5h1.1a1.3,1.3,0,0,0-.23.33,1.71,1.71,0,0,0,0,.45l-.33.14a1.75,1.75,0,0,1-1.59,0A1.37,1.37,0,0,1,11,19a1.51,1.51,0,0,1,2.17-1.2c.12.06.24.11.36,0v.88l-.13-.3a.83.83,0,0,0-.89-.6A1.08,1.08,0,0,0,12,18a1.82,1.82,0,0,0-.2,2.19.77.77,0,0,0,.82.4.85.85,0,0,0,.44-.25C13.26,20,13.15,19.66,12.74,19.5Z"/><path d="M13.27,1.33v.88l-.14-.3a.86.86,0,0,0-.89-.61.81.81,0,0,0-.58.27,1.87,1.87,0,0,0-.18,2.15.85.85,0,0,0,.85.44.62.62,0,0,0,.53-.48c.07-.29,0-.41-.34-.58h1.13c-.48.13-.26.53-.32.79L13,4.05a1.82,1.82,0,0,1-1.53,0,1.37,1.37,0,0,1-.72-1.53,1.5,1.5,0,0,1,2.16-1.18C13,1.42,13.13,1.48,13.27,1.33Z"/><path d="M37.55,19.5c-.38.18-.19.53-.25.79l-.34.15a1.81,1.81,0,0,1-1.56,0,1.12,1.12,0,0,1-.58-.59,1.76,1.76,0,0,1,.29-1.82,1.59,1.59,0,0,1,1.75-.3c.13,0,.24.12.37,0v.87A2.81,2.81,0,0,0,37,18.1.83.83,0,0,0,35.6,18a1.91,1.91,0,0,0-.16,2.11.85.85,0,0,0,.85.44.61.61,0,0,0,.55-.53c0-.27,0-.38-.38-.52Z"/><path d="M36.21,3.11H37.3c-.39.18-.19.54-.25.79L36.73,4a1.84,1.84,0,0,1-1.57,0,1.14,1.14,0,0,1-.6-.6,1.78,1.78,0,0,1,.3-1.82,1.61,1.61,0,0,1,1.75-.3,1.38,1.38,0,0,0,.37,0v.83c0-.13-.09-.22-.13-.3a.86.86,0,0,0-.91-.62.75.75,0,0,0-.55.27,1.87,1.87,0,0,0-.2,2.15.87.87,0,0,0,.85.44.6.6,0,0,0,.53-.47C36.65,3.38,36.58,3.25,36.21,3.11Z"/><path d="M22.39,4.84V6.72a.45.45,0,0,0,.33.49H22c.3-.1.33-.34.33-.61V5c0-.26-.05-.47-.34-.57h.66c.06,0,.13.09.17.15l1.38,1.74a.79.79,0,0,0,.23.21V4.9c0-.3-.09-.39-.42-.51h.83c-.28.09-.33.32-.33.58V7a1.64,1.64,0,0,1,0,.22l-.06,0-2-2.43Z"/><path d="M24.65,23.64l-2-2.47c0,.09,0,.14,0,.18,0,.59,0,1.17,0,1.76,0,.3.06.36.37.5h-.79c.3-.11.33-.35.33-.61,0-.55,0-1.11,0-1.66a.5.5,0,0,0-.34-.57c.22,0,.45,0,.67,0,.06,0,.12.08.17.14l1.38,1.74a.64.64,0,0,0,.22.21v-.79c0-.26,0-.52,0-.78s-.08-.4-.42-.51h.84c-.29.09-.34.31-.33.57,0,.68,0,1.36,0,2a1.5,1.5,0,0,1,0,.22Z"/><path d="M33.85,20.57l-2-2.45s-.05.06-.05.07c0,.62,0,1.24,0,1.87,0,.31.09.38.39.48h-.9c.35-.12.41-.21.42-.59,0-.57,0-1.14,0-1.71,0-.33-.08-.42-.38-.54.23,0,.47,0,.71,0,.06,0,.12.08.17.14l1.47,1.86.14.14v-.74c0-.27,0-.55,0-.82s-.07-.46-.43-.58h.9c-.33.06-.38.3-.38.58,0,.68,0,1.35,0,2v.22Z"/><path d="M33.59,4.17l-2-2.44s0,.05,0,.07c0,.62,0,1.24,0,1.86,0,.31.09.39.39.48h-.91c.36-.12.42-.2.42-.58V1.84c0-.32-.08-.41-.39-.54.24,0,.48,0,.72,0,.06,0,.12.09.17.15l1.47,1.85.13.15V1.89c0-.36-.07-.46-.44-.58h.91c-.34.07-.39.31-.39.59V4.14Z"/><path d="M9.88,4.18l-2-2.45s0,.05,0,.07c0,.63,0,1.25,0,1.88,0,.29.09.37.38.46h-.9c.35-.12.42-.2.42-.56q0-.87,0-1.74c0-.32-.09-.42-.39-.54H8.1c.06,0,.12.08.16.13L9.7,3.26l.16.19c0-.62,0-1.19,0-1.75,0-.22-.16-.33-.37-.39h.85c-.36.07-.38.35-.38.63,0,.66,0,1.31,0,2v.23Z"/><path d="M10.12,19.86c0-.61,0-1.15,0-1.68a.44.44,0,0,0-.38-.47h.85c-.38.07-.38.36-.38.65V20.3a.81.81,0,0,1,0,.25c-.7-.78-1.34-1.61-2-2.43a.23.23,0,0,0,0,.09V20c0,.28.08.49.39.56H7.64A1.16,1.16,0,0,0,8,20.33.68.68,0,0,0,8,20c0-.58,0-1.15,0-1.73,0-.33-.09-.42-.39-.54h.72c.05,0,.11.08.15.13L10,19.65Z"/><path d="M27.22,22.57h1.26c-.54.07-.31.51-.37.79a2.08,2.08,0,0,0-.3.13,1.78,1.78,0,0,1-1.56.07,1.21,1.21,0,0,1-.73-1,1.56,1.56,0,0,1,.74-1.68,1.94,1.94,0,0,1,.66-.17,1.32,1.32,0,0,0-.84,1,1.88,1.88,0,0,0,.07,1.3.87.87,0,0,0,1.08.59.67.67,0,0,0,.33-.27C27.8,23,27.64,22.65,27.22,22.57Z"/><path d="M28.23,6.17c-.36.1-.36.1-.37.8a2.49,2.49,0,0,0-.29.11,1.83,1.83,0,0,1-1.41.15,1.23,1.23,0,0,1-.9-1.07,1.4,1.4,0,0,1,1.41-1.82,1.28,1.28,0,0,0-.84,1,1.85,1.85,0,0,0,.07,1.31A.87.87,0,0,0,27,7.2l.19-.08a.59.59,0,0,0,.25-.61c0-.25-.22-.29-.42-.34Z"/><path d="M3.21,20.77a.93.93,0,0,0-.67.53,1.84,1.84,0,0,0,0,2,.79.79,0,0,0,.92.33.75.75,0,0,0,.33-.25.46.46,0,0,0-.33-.77H4.77c-.55.07-.31.51-.38.79l-.3.13a1.76,1.76,0,0,1-1.55.07,1.2,1.2,0,0,1-.74-1,1.53,1.53,0,0,1,1-1.79,2.08,2.08,0,0,1,.36-.06Z"/><path d="M3.26,6.17H4.51c-.55.07-.31.51-.37.79-.2.09-.39.18-.59.25a1.67,1.67,0,0,1-1.06,0,1.25,1.25,0,0,1-1-1.07,1.55,1.55,0,0,1,1-1.8.87.87,0,0,1,.36,0A1.06,1.06,0,0,0,2.23,5a1.79,1.79,0,0,0,.14,1.9.78.78,0,0,0,.89.29l.17-.08a.61.61,0,0,0,.25-.61C3.65,6.26,3.45,6.23,3.26,6.17Z"/><path d="M36.41,23.62H35.28c.35-.12.35-.4.35-.69V20.87a.94.94,0,0,0-1.23.59c0-.21,0-.41,0-.62,0,0,.07-.07.11-.07h2.7l0,0,0,.68a1,1,0,0,0-1.23-.64.29.29,0,0,0,0,.09c0,.72,0,1.43,0,2.14A.5.5,0,0,0,36.41,23.62Z"/><path d="M36.16,7.22H35c.35-.11.35-.4.34-.68V4.47a1,1,0,0,0-1.23.6c0-.21,0-.42,0-.63,0,0,.07-.06.11-.06H37l0,0,0,.68a1,1,0,0,0-1.23-.64.24.24,0,0,0,0,.09V6.69A.49.49,0,0,0,36.16,7.22Z"/><path d="M12.44,7.22H11.31c.33-.1.35-.37.35-.65V4.65c0-.06,0-.12,0-.18a.94.94,0,0,0-1.22.6l0-.68h2.66c.16,0,.22,0,.22.21s0,.33,0,.55c-.35-.64-.59-.76-1.24-.67a.24.24,0,0,0,0,.09V6.69A.5.5,0,0,0,12.44,7.22Z"/><path d="M12.36,20.84v.58c0,.53,0,1,0,1.57s0,.43.35.62H11.57c.35-.11.34-.41.34-.7v-2c-.51-.06-1-.08-1.22.59l0-.68h2.85l0,.69C13.42,20.83,12.92,20.82,12.36,20.84Z"/><path d="M22.8,4.07V3.34h0l.06.14a2.85,2.85,0,0,0,.25.45.59.59,0,0,0,.66.22.51.51,0,0,0,.39-.43.63.63,0,0,0-.25-.65,6.48,6.48,0,0,0-.57-.33.75.75,0,0,1-.4-1A.81.81,0,0,1,24,1.3c.12,0,.26.05.42.09v.73l-.13-.32c-.12-.27-.27-.5-.61-.5a.44.44,0,0,0-.45.27.45.45,0,0,0,.07.53,2.09,2.09,0,0,0,.42.29c.17.1.37.18.53.29a.83.83,0,0,1,.31,1,.83.83,0,0,1-.78.58c-.22,0-.43-.07-.64-.1Z"/><path d="M24.72,17.78v.68h0a1.92,1.92,0,0,0-.11-.31.66.66,0,0,0-.61-.47.46.46,0,0,0-.44.27.44.44,0,0,0,.06.51,1.58,1.58,0,0,0,.39.29c.18.11.38.19.55.3a.85.85,0,0,1-.46,1.55,4.49,4.49,0,0,1-.64-.1l-.36-.05v-.72h0a.83.83,0,0,0,.07.13,2.55,2.55,0,0,0,.25.46.6.6,0,0,0,.66.21.5.5,0,0,0,.38-.42.6.6,0,0,0-.24-.65,6.24,6.24,0,0,0-.66-.38.7.7,0,0,1-.38-.74.72.72,0,0,1,.57-.68,2.35,2.35,0,0,1,.64.06Z"/><path d="M19.62,2l0-.68h2.85l0,.73,0,0c-.14-.6-.52-.65-1.1-.66,0,0-.1.09-.1.14,0,.72,0,1.45,0,2.18a.44.44,0,0,0,.39.47H20.39c.38-.12.46-.21.46-.57v-2c0-.15,0-.2-.19-.18s-.3,0-.44,0C19.89,1.46,19.75,1.71,19.62,2Z"/><path d="M22.77,17.71l0,.74-.06-.05c-.12-.59-.54-.64-1.07-.64a.18.18,0,0,0-.12.12c0,.74,0,1.47,0,2.2a.43.43,0,0,0,.39.46H20.72c.1-.07.24-.12.3-.22a.72.72,0,0,0,.08-.39c0-.65,0-1.31,0-2a1.15,1.15,0,0,0,0-.19.92.92,0,0,0-1.19.66v-.73Z"/><path d="M27.48,17.75v.82h0c-.05-.1-.09-.21-.14-.32a.87.87,0,0,0-.68-.56.85.85,0,0,0-.88.43A1.8,1.8,0,0,0,25.67,20a1,1,0,0,0,1.39.43c.19-.1.31-.32.42-.44a.79.79,0,0,1-.76.66,1.62,1.62,0,0,1-1-.11,1.21,1.21,0,0,1-.35-.24,1.63,1.63,0,0,1-.23-1.9,1.54,1.54,0,0,1,1.64-.7c.12,0,.23.08.35.1S27.35,17.75,27.48,17.75Z"/><path d="M3.53,3.5a.8.8,0,0,1-.76.7,1.58,1.58,0,0,1-.65,0A1.35,1.35,0,0,1,1,2.6,1.42,1.42,0,0,1,2.4,1.24a5.1,5.1,0,0,1,.77.11c.1,0,.2,0,.33,0v.88l-.13-.32a.91.91,0,0,0-.7-.61.87.87,0,0,0-.9.47A1.82,1.82,0,0,0,1.7,3.56,1,1,0,0,0,3.09,4,2.47,2.47,0,0,0,3.53,3.5Z"/><path d="M27.23,3.48a.69.69,0,0,1-.55.66,2,2,0,0,1-.85.05,1.4,1.4,0,0,1-1-1.87,1.48,1.48,0,0,1,1.79-1.06c.1,0,.2.07.3.09s.22,0,.35,0v.88c-.06-.13-.1-.23-.14-.33a.9.9,0,0,0-.7-.6.87.87,0,0,0-.9.48,1.82,1.82,0,0,0-.08,1.75A1,1,0,0,0,26.78,4,.9.9,0,0,0,27.23,3.48Z"/><path d="M3.76,17.75v.82l0,0c0-.1-.08-.21-.12-.3a.9.9,0,0,0-.69-.59.85.85,0,0,0-.89.45A1.81,1.81,0,0,0,2,20a1,1,0,0,0,1.39.44,2,2,0,0,0,.44-.5A.8.8,0,0,1,3,20.6a2,2,0,0,1-.65,0A1.35,1.35,0,0,1,1.27,19a1.43,1.43,0,0,1,1.4-1.37,4.11,4.11,0,0,1,.77.12C3.53,17.76,3.63,17.75,3.76,17.75Z"/><path d="M14.36,4.32a.57.57,0,0,0,0,1l.43.22c.57.29.76.71.55,1.19a1,1,0,0,1-1.3.45,2.85,2.85,0,0,0-.46-.1V6.42h0c.06.14.11.28.18.41a.7.7,0,0,0,.66.42.54.54,0,0,0,.5-.4.65.65,0,0,0-.25-.72c-.2-.14-.42-.24-.63-.36a.77.77,0,0,1,0-1.35A1.14,1.14,0,0,1,14.36,4.32Z"/><path d="M13.86,23.54v-.78l.09.16a2.68,2.68,0,0,0,.26.47.6.6,0,0,0,.9.07.63.63,0,0,0-.11-.93,7.08,7.08,0,0,0-.66-.38.77.77,0,0,1,0-1.35.44.44,0,0,1,.26-.06.56.56,0,0,0-.35.53.62.62,0,0,0,.41.52c.19.1.38.18.56.29a.83.83,0,0,1,.4,1.05.91.91,0,0,1-1,.57c-.15,0-.3-.09-.45-.12Z"/><path d="M18.06,6.47a.85.85,0,0,1-.72.8,1.43,1.43,0,0,1-1.76-1,1.51,1.51,0,0,1,1-1.93,1.23,1.23,0,0,1,.34,0,1.21,1.21,0,0,0-.82.93,1.85,1.85,0,0,0,.07,1.29,1.05,1.05,0,0,0,1.31.57A.93.93,0,0,0,18.06,6.47Z"/><path d="M18.31,22.87a.79.79,0,0,1-.61.76,1.44,1.44,0,0,1-1.85-.88,1.53,1.53,0,0,1,1-2,.92.92,0,0,1,.33,0,1.43,1.43,0,0,0-.89,1.48,2.51,2.51,0,0,0,.1.62,1,1,0,0,0,1.3.7C18,23.46,18.12,23.32,18.31,22.87Z"/><path d="M18.29,20.76v.87c-.18-.36-.33-.75-.82-.86C17.76,20.64,18,21,18.29,20.76Z"/><path d="M18,5.24a1.41,1.41,0,0,0-.78-.91l.78.13Z"/><path d="M4.08,4.37v.91c-.2-.39-.32-.82-.85-.91C3.54,4.23,3.77,4.65,4.08,4.37Z"/><path d="M4.34,20.78v.92c-.19-.42-.34-.83-.85-.94C3.8,20.64,4,21,4.34,20.78Z"/><path d="M27.8,4.37V5.3c-.19-.43-.34-.83-.85-.93C27.26,4.25,27.49,4.66,27.8,4.37Z"/><path d="M28.05,20.82v.88c-.19-.43-.33-.84-.82-.93l0-.06.38.11c.13.05.26.15.38-.06Z"/><path d="M15.52,21.51c-.15-.3-.24-.62-.6-.77l.6.11Z"/><path d="M14.68,4.33l.28.08a1.47,1.47,0,0,0,.31,0v.69C15.11,4.83,15,4.48,14.68,4.33Z"/></g><g class="cls-3"><path d="M6.34,21.82l.3.47c.14.25.26.52.41.76a.29.29,0,0,0,.52,0,1.48,1.48,0,0,0,.26-.46c.28-.67.54-1.34.81-2a.94.94,0,0,1,.12-.18,1,1,0,0,1,.14.17l.86,2.07c.11.24.19.52.51.6H9.06c.34-.19.36-.25.22-.61-.21-.52-.21-.52-.77-.52-.37,0-.37,0-.52.35a2.25,2.25,0,0,0-.08.24c-.08.26,0,.38.23.52l-.07,0H6.76a.26.26,0,0,1-.19-.15c-.16-.29-.29-.59-.45-.89a.54.54,0,0,0-.59-.35,9.2,9.2,0,0,0,0,1.05c0,.12.18.23.27.33H4.72c.37-.14.33-.46.33-.75,0-.52,0-1,0-1.55,0-.31-.06-.39-.35-.52l.08,0c.48,0,1,0,1.42,0a.69.69,0,0,1,.7.86A.67.67,0,0,1,6.34,21.82Zm-.82,0c.31,0,.59,0,.77-.27a.75.75,0,0,0,0-.8c-.19-.28-.47-.27-.76-.25ZM8.61,21h0l-.39,1H9Z"/><path d="M7.92,6.9H7a1.82,1.82,0,0,0-.33,0c-.23,0-.33-.07-.41-.27a9.1,9.1,0,0,0-.45-.88.49.49,0,0,0-.52-.26c0,.36,0,.72,0,1.07,0,.12.18.22.26.32H4.46a.54.54,0,0,0,.33-.59V4.56a.43.43,0,0,0-.36-.48l.06,0c.48,0,1,0,1.44,0a.7.7,0,0,1,.71.85.66.66,0,0,1-.54.51c.15.27.3.54.46.81a3.14,3.14,0,0,0,.25.44.28.28,0,0,0,.49,0,1.58,1.58,0,0,0,.28-.47c.27-.67.53-1.35.8-2A1.13,1.13,0,0,1,8.5,4a.84.84,0,0,1,.15.18l.89,2.13c.1.22.19.46.47.53H8.84c.09-.09.22-.17.25-.27A.68.68,0,0,0,9,6.25c-.2-.51-.2-.51-.76-.51-.38,0-.38,0-.52.35l-.06.14C7.56,6.56,7.59,6.67,7.92,6.9ZM5.25,4.11V5.43c.32,0,.6,0,.78-.26a.71.71,0,0,0,0-.78C5.87,4.08,5.58,4.08,5.25,4.11Zm3.11.52h0l-.39,1h.85Z"/><path d="M31.84,23.29H30.43c-.05,0-.12-.09-.15-.15-.17-.32-.32-.65-.5-1a.49.49,0,0,0-.54-.27,8.85,8.85,0,0,0,0,1c0,.13.19.25.27.35h-1.1c.37-.12.34-.43.34-.72,0-.52,0-1.05,0-1.57,0-.32-.07-.41-.39-.53l.19,0c.45,0,.9,0,1.35,0a.7.7,0,0,1,.68.92.71.71,0,0,1-.51.45c.15.29.31.58.47.87.08.13.14.26.23.38a.28.28,0,0,0,.49,0,1.74,1.74,0,0,0,.27-.45c.27-.66.52-1.33.79-2a1.58,1.58,0,0,1,.15-.24,1.14,1.14,0,0,1,.15.23c.3.68.59,1.37.87,2.06.1.24.19.48.48.55H32.76c.37-.19.39-.25.23-.64s-.21-.49-.75-.49-.39,0-.54.37a1.27,1.27,0,0,0-.06.18C31.54,23,31.58,23.1,31.84,23.29Zm-2.61-1.47c.31,0,.58,0,.77-.25a.77.77,0,0,0,0-.8.73.73,0,0,0-.78-.27Zm2.66.21h.85L32.3,21Z"/><path d="M28.13,4.07c.56,0,1.08,0,1.61,0a.66.66,0,0,1,.63.64c0,.35-.14.56-.56.72.13.21.25.42.37.63s.18.36.28.53c.2.32.44.33.65,0a2.27,2.27,0,0,0,.23-.47c.26-.64.51-1.29.77-1.93A.57.57,0,0,1,32.22,4a.7.7,0,0,1,.14.16l.9,2.15c.09.22.18.46.47.53H32.51c.36-.2.38-.25.22-.64s-.2-.5-.74-.5-.4,0-.55.38c0,.06,0,.13-.07.2-.08.28,0,.39.25.55l-.17,0H30.28A.26.26,0,0,1,30,6.72c-.15-.33-.31-.66-.49-1A.47.47,0,0,0,29,5.5a9,9,0,0,0,0,1c0,.13.18.24.27.34h-1.1c.38-.13.34-.45.34-.75V4.59C28.5,4.26,28.43,4.17,28.13,4.07Zm.85,0V5.43c.3,0,.58,0,.77-.26a.71.71,0,0,0,0-.78C29.59,4.09,29.3,4.08,29,4.11Zm2.65,1.53h.86l-.44-1.07Z"/><path d="M14.71,2.38a.67.67,0,0,0,.62-.81C15.27,1.17,15,1,14.44,1V2c0,.43,0,.86,0,1.29s.09.42.4.51H13.59c.37-.06.4-.34.4-.63,0-.56,0-1.11,0-1.67,0-.32-.08-.41-.38-.54h.53c.36,0,.72,0,1.08,0a.65.65,0,0,1,.63.63c0,.35-.13.57-.52.71h0l.39.68c.08.14.15.3.24.44.22.39.5.4.71,0s.35-.82.52-1.24.29-.75.44-1.12c0-.05.08-.09.12-.14s.09.09.11.14l.93,2.22c.1.23.22.45.51.49H18c.09-.07.25-.13.29-.23a.65.65,0,0,0-.05-.38c-.21-.54-.21-.54-.78-.54h-.17a.22.22,0,0,0-.27.19,2.88,2.88,0,0,1-.13.31c-.12.36-.07.48.28.66H15.64s-.1-.07-.13-.13c-.14-.28-.26-.57-.41-.83A3,3,0,0,0,14.71,2.38ZM18,2.57l-.45-1.08-.41,1.08Z"/><path d="M15,18.78c.48-.13.69-.39.61-.83s-.34-.56-.86-.53a.78.78,0,0,0,0,.16v2.05c0,.36.07.46.45.57H13.8c.37-.13.43-.2.44-.56v-1.7c0-.27-.06-.51-.38-.54.54,0,1.09,0,1.63,0a.63.63,0,0,1,.61.62.65.65,0,0,1-.52.7h0c.21.38.41.76.63,1.14s.48.39.68,0,.4-.91.59-1.38.25-.65.39-1a.57.57,0,0,1,.11-.16.7.7,0,0,1,.14.16c.29.7.58,1.41.88,2.11.11.25.2.52.54.57H18.15l.21-.07a.25.25,0,0,0,.18-.35c-.07-.21-.16-.42-.25-.63a.23.23,0,0,0-.14-.09h-.32c-.17,0-.43,0-.5.05a1.78,1.78,0,0,0-.25.69c0,.21.09.33.29.42H16a.22.22,0,0,1-.22-.15,8.09,8.09,0,0,0-.4-.84A3.23,3.23,0,0,0,15,18.78Zm3.25.19-.44-1.08L17.36,19Z"/><path d="M28.81,3.89A1.5,1.5,0,0,1,27.29,2.4,1.57,1.57,0,0,1,28.86.89a1.53,1.53,0,0,1,1.53,1.49A1.54,1.54,0,0,1,28.81,3.89Zm1.08-1.37a1.93,1.93,0,0,0-.38-1.28.89.89,0,0,0-1.3,0,1.87,1.87,0,0,0,0,2.34.88.88,0,0,0,1.28,0A1.5,1.5,0,0,0,29.89,2.52Z"/><path d="M29.08,20.28a1.49,1.49,0,0,1-1.53-1.47,1.57,1.57,0,0,1,1.57-1.53,1.5,1.5,0,1,1,0,3Zm1.07-1.37a1.92,1.92,0,0,0-.39-1.27.89.89,0,0,0-1.28-.05,1.86,1.86,0,0,0,0,2.37.88.88,0,0,0,1.25,0A1.55,1.55,0,0,0,30.15,18.91Z"/><path d="M5.11,3.89A1.49,1.49,0,0,1,3.58,2.41a1.55,1.55,0,0,1,3.1,0A1.55,1.55,0,0,1,5.11,3.89Zm-1-1.55a1.63,1.63,0,0,0,.27,1,.89.89,0,0,0,1.55,0,1.9,1.9,0,0,0-.05-2.06.89.89,0,0,0-1.45,0A1.83,1.83,0,0,0,4.08,2.34Z"/><path d="M5.35,20.28a1.49,1.49,0,0,1-1.52-1.49A1.57,1.57,0,0,1,5.4,17.28a1.5,1.5,0,1,1-.05,3Zm1.08-1.37A2,2,0,0,0,6,17.63a.9.9,0,0,0-1.29,0,1.88,1.88,0,0,0,0,2.34.88.88,0,0,0,1.3,0A1.58,1.58,0,0,0,6.43,18.91Z"/><path d="M20.13,20.41c.34-.08.93.32,1.19.82A1.45,1.45,0,0,1,20.93,23a1.58,1.58,0,0,1-2,.09,1.45,1.45,0,0,1,.77-2.64,1,1,0,0,0-.74.71,4.38,4.38,0,0,0-.12,1,1.25,1.25,0,0,0,.39.87.86.86,0,0,0,1.29,0,1.85,1.85,0,0,0,0-2.32A2,2,0,0,0,20.13,20.41Z"/><path d="M19.45,4a1,1,0,0,0-.7.7A1.76,1.76,0,0,0,19,6.61a.85.85,0,0,0,1.3,0,1.86,1.86,0,0,0,0-2.31A2.41,2.41,0,0,0,19.88,4c.25-.09.8.22,1.09.66a1.41,1.41,0,0,1-.17,1.77,1.57,1.57,0,0,1-1.95.3,1.45,1.45,0,0,1-.69-1.7A1.49,1.49,0,0,1,19.45,4Z"/><path d="M12.4,19.16h1.1a1.3,1.3,0,0,0-.23.33,1.37,1.37,0,0,0,0,.45l-.33.14a1.75,1.75,0,0,1-1.59,0,1.37,1.37,0,0,1-.7-1.5,1.51,1.51,0,0,1,2.17-1.2c.12.06.24.11.36,0v.88L13,18a.83.83,0,0,0-.89-.6,1.08,1.08,0,0,0-.54.25,1.82,1.82,0,0,0-.2,2.19.77.77,0,0,0,.82.4.85.85,0,0,0,.44-.25C12.92,19.66,12.81,19.32,12.4,19.16Z"/><path d="M12.93,1v.88l-.14-.3A.86.86,0,0,0,11.9,1a.81.81,0,0,0-.58.27,1.87,1.87,0,0,0-.18,2.15.85.85,0,0,0,.85.44.62.62,0,0,0,.53-.48c.07-.29,0-.41-.34-.58h1.13c-.48.13-.26.53-.32.79l-.35.16a1.82,1.82,0,0,1-1.53,0,1.37,1.37,0,0,1-.72-1.53A1.5,1.5,0,0,1,12.55,1C12.68,1.08,12.79,1.14,12.93,1Z"/><path d="M37.21,19.16c-.38.18-.19.53-.25.79a3.49,3.49,0,0,0-.34.15,1.81,1.81,0,0,1-1.56,0,1.12,1.12,0,0,1-.58-.59,1.76,1.76,0,0,1,.29-1.82,1.59,1.59,0,0,1,1.75-.3c.13,0,.24.12.37,0v.87a3.72,3.72,0,0,0-.25-.49.83.83,0,0,0-1.38-.1,1.91,1.91,0,0,0-.16,2.11.85.85,0,0,0,.85.44.61.61,0,0,0,.55-.53c0-.27,0-.38-.38-.52Z"/><path d="M35.87,2.77H37c-.39.18-.19.54-.25.79l-.32.13a1.84,1.84,0,0,1-1.57.05,1.14,1.14,0,0,1-.6-.6,1.78,1.78,0,0,1,.3-1.82A1.61,1.61,0,0,1,36.27,1a1.38,1.38,0,0,0,.37,0v.83c0-.13-.09-.22-.13-.3A.86.86,0,0,0,35.6,1a.79.79,0,0,0-.56.27,1.89,1.89,0,0,0-.19,2.15.87.87,0,0,0,.85.44.6.6,0,0,0,.53-.47C36.31,3,36.24,2.91,35.87,2.77Z"/><path d="M22.05,4.5V6.38a.45.45,0,0,0,.33.49h-.75c.3-.1.33-.34.33-.61V4.61c0-.26-.05-.47-.34-.57h.66c.06,0,.13.09.17.15l1.38,1.74a.79.79,0,0,0,.23.21V4.56c0-.3-.09-.39-.42-.51h.83c-.28.09-.33.32-.33.58v2a1.64,1.64,0,0,1,0,.22l-.06,0-2-2.43Z"/><path d="M24.31,23.3l-2-2.47c0,.09,0,.14,0,.18,0,.59,0,1.17,0,1.76,0,.3.06.36.37.5h-.79c.3-.11.33-.35.33-.61,0-.56,0-1.11,0-1.66a.5.5,0,0,0-.34-.57c.22,0,.45,0,.67,0,.06,0,.12.08.17.14l1.38,1.74a.64.64,0,0,0,.22.21v-.79c0-.26,0-.52,0-.78s-.08-.4-.42-.51h.84c-.29.09-.34.31-.33.57,0,.68,0,1.36,0,2a1.5,1.5,0,0,1,0,.22Z"/><path d="M33.51,20.23l-2-2.45s-.05.06-.05.07c0,.62,0,1.24,0,1.87,0,.31.09.38.39.48H31c.35-.12.41-.21.42-.59,0-.57,0-1.14,0-1.71,0-.33-.08-.42-.38-.54.23,0,.47,0,.71,0,.06,0,.12.08.17.14l1.47,1.86.14.14v-.74c0-.27,0-.55,0-.82s-.07-.46-.43-.58H34c-.33.06-.38.3-.38.58,0,.67,0,1.35,0,2v.22Z"/><path d="M33.25,3.83l-2-2.44s0,.05,0,.07c0,.62,0,1.24,0,1.86,0,.31.09.39.39.48h-.91c.36-.12.42-.2.42-.58V1.5c0-.32-.08-.41-.39-.54.24,0,.48,0,.72,0,.06,0,.12.09.17.14L33.12,3l.13.15V1.55c0-.36-.07-.46-.44-.58h.91c-.34.07-.39.31-.39.59V3.8Z"/><path d="M9.54,3.84l-2-2.45s-.05.05-.05.07c0,.63,0,1.25,0,1.88,0,.29.09.37.38.46H7c.35-.12.42-.2.42-.56q0-.87,0-1.74c0-.32-.09-.42-.39-.54h.71c.06,0,.11.08.16.13L9.36,2.92l.16.19c0-.62,0-1.19,0-1.75,0-.22-.16-.33-.37-.39H10c-.36.07-.38.35-.38.63,0,.66,0,1.31,0,2V3.8Z"/><path d="M9.78,19.52c0-.61,0-1.15,0-1.68a.44.44,0,0,0-.38-.47h.85c-.38.07-.38.36-.38.65,0,.64,0,1.29,0,1.94a.77.77,0,0,1,0,.25c-.7-.78-1.34-1.61-2-2.43a.23.23,0,0,0,0,.09v1.78c0,.28.08.49.39.56H7.3A1.16,1.16,0,0,0,7.61,20a.68.68,0,0,0,.08-.36c0-.58,0-1.15,0-1.73,0-.33-.09-.42-.39-.54H8c.05,0,.11.08.15.13l1.44,1.82Z"/><path d="M26.88,22.23h1.26c-.54.07-.31.51-.37.79a2.08,2.08,0,0,0-.3.13,1.78,1.78,0,0,1-1.56.07,1.19,1.19,0,0,1-.73-1,1.57,1.57,0,0,1,.73-1.68,2.06,2.06,0,0,1,.67-.17,1.32,1.32,0,0,0-.84,1,1.82,1.82,0,0,0,.07,1.3.87.87,0,0,0,1.08.59.67.67,0,0,0,.33-.27C27.46,22.63,27.3,22.31,26.88,22.23Z"/><path d="M27.89,5.83c-.36.1-.36.1-.37.8a2.49,2.49,0,0,0-.29.11,1.83,1.83,0,0,1-1.41.15,1.23,1.23,0,0,1-.9-1.07A1.4,1.4,0,0,1,26.33,4a1.28,1.28,0,0,0-.84,1,1.85,1.85,0,0,0,.07,1.31.87.87,0,0,0,1.05.59.56.56,0,0,0,.19-.09.57.57,0,0,0,.25-.6c0-.25-.22-.29-.42-.34Z"/><path d="M2.87,20.43A.91.91,0,0,0,2.2,21a1.84,1.84,0,0,0,0,2,.79.79,0,0,0,.92.33A.75.75,0,0,0,3.5,23a.46.46,0,0,0-.33-.77H4.43c-.55.07-.31.51-.38.79l-.3.13a1.76,1.76,0,0,1-1.55.07,1.2,1.2,0,0,1-.74-1,1.53,1.53,0,0,1,1-1.79,2.08,2.08,0,0,1,.36-.06Z"/><path d="M2.92,5.83H4.17c-.55.07-.31.51-.37.79-.2.09-.39.18-.59.25a1.67,1.67,0,0,1-1.06,0A1.25,1.25,0,0,1,1.2,5.83,1.55,1.55,0,0,1,2.25,4a.87.87,0,0,1,.36,0,1.06,1.06,0,0,0-.72.66A1.79,1.79,0,0,0,2,6.57a.78.78,0,0,0,.89.29l.17-.08a.62.62,0,0,0,.25-.61C3.31,5.92,3.11,5.89,2.92,5.83Z"/><path d="M36.07,23.28H34.94c.35-.12.35-.4.35-.69V20.53a.94.94,0,0,0-1.23.59c0-.21,0-.41,0-.62,0,0,.07-.07.11-.07h2.7l0,0,0,.68a1,1,0,0,0-1.23-.64.29.29,0,0,0,0,.09c0,.72,0,1.43,0,2.14A.5.5,0,0,0,36.07,23.28Z"/><path d="M35.82,6.88H34.69c.35-.11.35-.4.34-.69V4.13a1,1,0,0,0-1.23.6c0-.21,0-.42,0-.63,0,0,.07-.06.11-.06h2.71l0,0,0,.68a1,1,0,0,0-1.23-.64.24.24,0,0,0,0,.09V6.35A.49.49,0,0,0,35.82,6.88Z"/><path d="M12.1,6.88H11c.33-.1.35-.37.35-.65V4.31c0-.06,0-.12,0-.18a.94.94,0,0,0-1.22.6l0-.69h2.65c.17,0,.23,0,.23.21s0,.33,0,.55c-.34-.64-.58-.76-1.23-.67a.24.24,0,0,0,0,.09V6.35A.5.5,0,0,0,12.1,6.88Z"/><path d="M12,20.5v.58c0,.53,0,1.05,0,1.57s0,.43.35.62H11.23c.35-.11.34-.41.34-.7v-2c-.51-.06-1-.08-1.22.59l0-.68h2.85l0,.69C13.08,20.49,12.58,20.48,12,20.5Z"/><path d="M22.46,3.73V3h0l.06.14a2.85,2.85,0,0,0,.25.45.59.59,0,0,0,.66.22.51.51,0,0,0,.39-.43.63.63,0,0,0-.25-.65A6.48,6.48,0,0,0,23,2.39a.75.75,0,0,1-.4-1A.8.8,0,0,1,23.7,1c.12,0,.26.05.42.09v.73L24,1.46c-.12-.27-.27-.5-.61-.5a.44.44,0,0,0-.45.27.45.45,0,0,0,.07.53,2.09,2.09,0,0,0,.42.29c.17.1.36.18.53.29a.83.83,0,0,1,.31,1,.83.83,0,0,1-.78.58c-.22,0-.43-.07-.64-.1Z"/><path d="M24.38,17.44v.68h0a1.92,1.92,0,0,0-.11-.31.66.66,0,0,0-.61-.47.46.46,0,0,0-.44.27.44.44,0,0,0,.06.51,1.88,1.88,0,0,0,.39.29c.18.11.38.19.55.3a.85.85,0,0,1-.46,1.55,4.49,4.49,0,0,1-.64-.1l-.36-.05V19.4h0a.83.83,0,0,0,.07.13,2.55,2.55,0,0,0,.25.46.59.59,0,0,0,.66.21.5.5,0,0,0,.38-.42.6.6,0,0,0-.24-.65,6.24,6.24,0,0,0-.66-.38.7.7,0,0,1-.38-.74.72.72,0,0,1,.57-.68,2.35,2.35,0,0,1,.64.06Z"/><path d="M19.28,1.65l0-.68h2.85l0,.73s0,0,0,0C22,1.08,21.65,1,21.07,1c0,0-.1.09-.1.14,0,.72,0,1.45,0,2.18a.43.43,0,0,0,.39.47H20.05c.38-.12.46-.21.46-.58,0-.67,0-1.35,0-2,0-.15,0-.2-.19-.18s-.3,0-.44.05C19.55,1.12,19.41,1.37,19.28,1.65Z"/><path d="M22.43,17.37l0,.74-.06-.05c-.12-.59-.54-.64-1.07-.64a.18.18,0,0,0-.12.12c0,.74,0,1.47,0,2.2a.43.43,0,0,0,.39.46H20.38c.1-.07.24-.12.3-.22a.72.72,0,0,0,.08-.39c0-.65,0-1.31,0-2a1.15,1.15,0,0,0,0-.19.92.92,0,0,0-1.19.66v-.73Z"/><path d="M27.14,17.41v.82h0c-.05-.1-.09-.21-.14-.32a.87.87,0,0,0-.68-.56.85.85,0,0,0-.88.43,1.8,1.8,0,0,0-.09,1.82,1,1,0,0,0,1.39.43c.19-.1.31-.32.42-.44a.79.79,0,0,1-.76.66,1.62,1.62,0,0,1-1-.11,1.21,1.21,0,0,1-.35-.24,1.63,1.63,0,0,1-.23-1.9,1.54,1.54,0,0,1,1.64-.7c.12,0,.23.08.35.1S27,17.41,27.14,17.41Z"/><path d="M3.19,3.16a.8.8,0,0,1-.76.7,1.58,1.58,0,0,1-.65,0A1.35,1.35,0,0,1,.67,2.26,1.42,1.42,0,0,1,2.06.9,5.1,5.1,0,0,1,2.83,1c.1,0,.2,0,.33,0v.88L3,1.57A.91.91,0,0,0,2.33,1a.87.87,0,0,0-.9.47,1.82,1.82,0,0,0-.07,1.79,1,1,0,0,0,1.39.43A2.47,2.47,0,0,0,3.19,3.16Z"/><path d="M26.89,3.14a.69.69,0,0,1-.55.66,2,2,0,0,1-.85.05,1.4,1.4,0,0,1-1-1.87A1.48,1.48,0,0,1,26.23.92c.1,0,.2.07.3.09s.22,0,.35,0v.88c-.06-.13-.1-.23-.14-.33A.9.9,0,0,0,26,1a.87.87,0,0,0-.9.48,1.82,1.82,0,0,0-.08,1.75,1,1,0,0,0,1.38.48A.9.9,0,0,0,26.89,3.14Z"/><path d="M3.42,17.41v.82l0,0c0-.1-.08-.21-.12-.3a.9.9,0,0,0-.69-.59.85.85,0,0,0-.89.45,1.81,1.81,0,0,0-.09,1.8A1,1,0,0,0,3,20.05a2,2,0,0,0,.44-.5.8.8,0,0,1-.75.71,2,2,0,0,1-.65,0A1.35,1.35,0,0,1,.93,18.66a1.43,1.43,0,0,1,1.4-1.37,4.11,4.11,0,0,1,.77.12C3.19,17.42,3.29,17.41,3.42,17.41Z"/><path d="M14,4a.57.57,0,0,0,0,1.05l.43.22c.57.29.76.71.55,1.19a1,1,0,0,1-1.3.45,2.85,2.85,0,0,0-.46-.1V6.08h0c.06.14.11.28.18.41a.71.71,0,0,0,.66.42.54.54,0,0,0,.5-.4.65.65,0,0,0-.25-.72c-.2-.14-.42-.24-.63-.36a.77.77,0,0,1,0-1.35A1.14,1.14,0,0,1,14,4Z"/><path d="M13.52,23.2v-.78l.09.16a2.68,2.68,0,0,0,.26.47.6.6,0,0,0,.9.07.63.63,0,0,0-.11-.93,7.08,7.08,0,0,0-.66-.38.77.77,0,0,1,0-1.35.42.42,0,0,1,.25-.06.57.57,0,0,0-.34.53.62.62,0,0,0,.41.52c.19.1.38.18.56.29a.83.83,0,0,1,.4,1.05.91.91,0,0,1-1,.57l-.45-.12Z"/><path d="M17.72,6.13a.85.85,0,0,1-.72.8,1.43,1.43,0,0,1-1.76-1,1.51,1.51,0,0,1,1-1.93,1.23,1.23,0,0,1,.34,0,1.21,1.21,0,0,0-.82.93,1.85,1.85,0,0,0,.07,1.29,1.05,1.05,0,0,0,1.31.57A.93.93,0,0,0,17.72,6.13Z"/><path d="M18,22.53a.79.79,0,0,1-.61.76,1.44,1.44,0,0,1-1.85-.88,1.53,1.53,0,0,1,1-2,.88.88,0,0,1,.32,0A1.43,1.43,0,0,0,16,21.88a2.51,2.51,0,0,0,.1.62,1,1,0,0,0,1.3.7C17.65,23.12,17.78,23,18,22.53Z"/><path d="M18,20.42v.87c-.18-.36-.33-.75-.82-.86C17.42,20.3,17.66,20.65,18,20.42Z"/><path d="M17.69,4.9A1.41,1.41,0,0,0,16.91,4l.78.13Z"/><path d="M3.74,4v.91c-.2-.39-.32-.82-.85-.91C3.2,3.89,3.43,4.31,3.74,4Z"/><path d="M4,20.44v.92c-.19-.42-.34-.83-.85-.94C3.46,20.3,3.69,20.7,4,20.44Z"/><path d="M27.46,4V5c-.19-.43-.34-.83-.85-.93C26.92,3.91,27.15,4.31,27.46,4Z"/><path d="M27.71,20.48v.88c-.19-.43-.33-.84-.82-.93l0-.06.38.11c.13.05.26.15.38-.06Z"/><path d="M15.18,21.17c-.15-.3-.24-.62-.6-.77l.6.11Z"/><path d="M14.34,4l.28.08a1.47,1.47,0,0,0,.31,0v.68C14.77,4.49,14.69,4.14,14.34,4Z"/></g><path class="cls-4" d="M6.54,22c.1.17.21.31.3.47s.26.52.41.76a.29.29,0,0,0,.52,0A1.75,1.75,0,0,0,8,22.83c.28-.67.54-1.35.81-2A.71.71,0,0,1,9,20.63a.64.64,0,0,1,.13.17c.3.69.58,1.38.87,2.06.11.25.18.53.5.61H9.26c.34-.19.36-.25.22-.61-.21-.52-.21-.52-.77-.52-.38,0-.38,0-.52.35a1.69,1.69,0,0,0-.08.24c-.08.26,0,.38.23.52l-.07,0H7a.29.29,0,0,1-.2-.15c-.15-.29-.28-.6-.44-.89a.54.54,0,0,0-.59-.35,9.2,9.2,0,0,0,0,1.05c0,.12.18.23.27.33H4.92c.37-.14.32-.46.32-.76,0-.51,0-1,0-1.54,0-.31-.07-.39-.36-.52l.09,0c.47,0,1,0,1.42,0A.69.69,0,0,1,6.54,22Zm-.83,0c.32,0,.6,0,.78-.27a.75.75,0,0,0,0-.8.73.73,0,0,0-.77-.25Zm3.1-.8H8.76l-.39,1h.85Z"/><path class="cls-4" d="M8.11,7.09H6.85c-.22,0-.32-.07-.4-.26A9.1,9.1,0,0,0,6,6a.48.48,0,0,0-.52-.26c0,.36,0,.72,0,1.07,0,.12.18.22.26.32H4.66A.54.54,0,0,0,5,6.49V4.76a.44.44,0,0,0-.37-.49l.07,0c.48,0,1,0,1.44,0a.7.7,0,0,1,.71.85.67.67,0,0,1-.54.51l.45.81c.09.15.16.3.25.44a.29.29,0,0,0,.5,0,1.72,1.72,0,0,0,.28-.47c.27-.67.53-1.35.8-2a1.13,1.13,0,0,1,.12-.18.84.84,0,0,1,.15.18c.3.71.59,1.42.89,2.12.09.23.19.46.47.54H9c.09-.09.22-.17.25-.27a.66.66,0,0,0-.07-.36c-.2-.51-.2-.51-.76-.51-.38,0-.38,0-.52.35l-.06.14C7.76,6.76,7.79,6.87,8.11,7.09ZM5.45,4.31V5.63c.32,0,.6,0,.78-.26a.71.71,0,0,0,0-.78C6.07,4.28,5.78,4.28,5.45,4.31Zm3.11.52H8.5l-.38,1H9Z"/><path class="cls-4" d="M32,23.48H30.63c-.05,0-.12-.09-.15-.15-.17-.32-.32-.66-.5-1a.48.48,0,0,0-.54-.26,8.85,8.85,0,0,0,0,1c0,.13.18.24.27.35h-1.1c.37-.12.34-.43.34-.72,0-.53,0-1.05,0-1.57,0-.32-.08-.41-.4-.53l.2,0c.45,0,.9,0,1.35,0a.7.7,0,0,1,.68.92.67.67,0,0,1-.52.44l.48.87c.07.13.14.27.22.39a.29.29,0,0,0,.5,0,1.86,1.86,0,0,0,.27-.45c.27-.65.52-1.32.79-2a1.16,1.16,0,0,1,.14-.24.73.73,0,0,1,.16.23c.3.68.58,1.37.87,2.06.1.24.19.47.48.55H33c.37-.2.38-.25.22-.64s-.2-.49-.74-.49-.4,0-.54.37a1.34,1.34,0,0,0-.07.18A.42.42,0,0,0,32,23.48ZM29.43,22a.73.73,0,0,0,.77-.25.77.77,0,0,0,0-.8c-.19-.3-.47-.3-.78-.27Zm2.66.21h.85l-.44-1.07Z"/><path class="cls-4" d="M28.33,4.26c.55,0,1.08,0,1.61,0a.66.66,0,0,1,.63.63c0,.35-.14.57-.56.73l.37.63c.1.17.18.36.28.52.2.33.44.34.65,0a2.27,2.27,0,0,0,.23-.47c.26-.65.51-1.29.76-1.93a1.77,1.77,0,0,1,.12-.17,1,1,0,0,1,.14.17c.3.71.59,1.43.9,2.14.09.23.18.47.47.54H32.71c.36-.21.38-.25.22-.64s-.2-.5-.74-.5-.4,0-.55.38c0,.06-.05.13-.07.2-.08.28,0,.39.25.55l-.17,0H30.48a.24.24,0,0,1-.27-.17,10,10,0,0,0-.5-1c-.12-.22-.26-.26-.52-.24a9,9,0,0,0,0,1c0,.13.18.24.27.34h-1.1c.37-.13.34-.45.34-.75V4.79C28.7,4.46,28.63,4.37,28.33,4.26Zm.85,0V5.63c.3,0,.58,0,.76-.26a.69.69,0,0,0,0-.78C29.79,4.29,29.5,4.28,29.18,4.31Zm2.65,1.53h.86l-.45-1.08Z"/><path class="cls-4" d="M14.91,2.58a.67.67,0,0,0,.62-.81c-.06-.41-.36-.6-.89-.54v1c0,.43,0,.86,0,1.29s.09.42.4.51H13.79c.37-.06.39-.34.39-.63,0-.56,0-1.12,0-1.67,0-.32-.08-.41-.38-.54h.53c.36,0,.72,0,1.07,0a.65.65,0,0,1,.64.62c0,.36-.13.58-.53.72h0l.38.67c.09.15.16.31.24.45.23.39.51.4.72,0s.35-.83.52-1.24.29-.75.44-1.12c0-.06.08-.09.12-.14s.08.09.11.14L19,3.52c.1.23.22.44.51.49H18.18c.09-.07.25-.13.29-.23a.64.64,0,0,0,0-.38c-.21-.54-.21-.54-.78-.54a1,1,0,0,1-.17,0,.23.23,0,0,0-.28.19,1.66,1.66,0,0,1-.12.31c-.12.36-.08.48.28.66H15.84s-.11-.08-.13-.13c-.14-.28-.26-.57-.41-.84A3.39,3.39,0,0,0,14.91,2.58Zm3.25.19-.44-1.08-.41,1.08Z"/><path class="cls-4" d="M15.17,19c.48-.13.69-.39.61-.83s-.34-.56-.86-.53a.78.78,0,0,0,0,.16c0,.68,0,1.36,0,2,0,.36.07.45.45.57H14c.37-.13.43-.2.43-.56,0-.57,0-1.13,0-1.7,0-.27-.06-.51-.38-.54.54,0,1.09,0,1.63,0a.63.63,0,0,1,.61.62.66.66,0,0,1-.52.7h0c.21.38.41.76.63,1.14s.48.39.68,0,.4-.92.59-1.38.25-.66.39-1a.57.57,0,0,1,.11-.16.48.48,0,0,1,.13.16c.3.7.59,1.41.89,2.11.11.25.2.52.54.57H18.35l.21-.07a.26.26,0,0,0,.18-.35c-.07-.22-.16-.42-.25-.63a.23.23,0,0,0-.14-.09,1.71,1.71,0,0,0-.32,0c-.17,0-.43,0-.5,0a2,2,0,0,0-.26.69c0,.21.1.33.3.42h-.85c-.18,0-.37,0-.55,0s-.17-.05-.22-.16c-.13-.28-.25-.56-.4-.83A4.11,4.11,0,0,0,15.17,19Zm3.25.19L18,18.08l-.42,1.09Z"/><path class="cls-4" d="M29,4.08A1.48,1.48,0,0,1,27.49,2.6a1.58,1.58,0,0,1,1.57-1.52,1.54,1.54,0,0,1,1.53,1.5A1.52,1.52,0,0,1,29,4.08Zm1.08-1.36a1.88,1.88,0,0,0-.39-1.28.88.88,0,0,0-1.29,0,1.87,1.87,0,0,0,0,2.34.88.88,0,0,0,1.28,0A1.5,1.5,0,0,0,30.09,2.72Z"/><path class="cls-4" d="M29.28,20.48A1.5,1.5,0,0,1,27.74,19a1.57,1.57,0,0,1,1.58-1.53,1.5,1.5,0,1,1,0,3Zm1.07-1.37A2,2,0,0,0,30,17.83a.91.91,0,0,0-1.29,0,1.86,1.86,0,0,0,0,2.37.88.88,0,0,0,1.25,0A1.55,1.55,0,0,0,30.35,19.11Z"/><path class="cls-4" d="M5.31,4.08A1.49,1.49,0,0,1,3.77,2.61,1.57,1.57,0,0,1,5.35,1.08a1.56,1.56,0,0,1,1.53,1.5A1.55,1.55,0,0,1,5.31,4.08Zm-1-1.54a1.7,1.7,0,0,0,.26,1,.9.9,0,0,0,1.56,0,1.92,1.92,0,0,0,0-2.06.89.89,0,0,0-1.45,0A1.83,1.83,0,0,0,4.28,2.54Z"/><path class="cls-4" d="M5.55,20.48A1.48,1.48,0,0,1,4,19a1.57,1.57,0,0,1,1.56-1.51,1.5,1.5,0,1,1,0,3ZM6.63,19.1a2,2,0,0,0-.39-1.27A.89.89,0,0,0,5,17.8a1.88,1.88,0,0,0,0,2.34.88.88,0,0,0,1.3,0A1.54,1.54,0,0,0,6.63,19.1Z"/><path class="cls-4" d="M20.32,20.61c.34-.08.94.32,1.19.81a1.44,1.44,0,0,1-.38,1.75,1.61,1.61,0,0,1-2,.09,1.45,1.45,0,0,1,.78-2.64.92.92,0,0,0-.74.71,3.52,3.52,0,0,0-.12,1,1.25,1.25,0,0,0,.39.87.86.86,0,0,0,1.29,0,1.86,1.86,0,0,0,0-2.33A2.19,2.19,0,0,0,20.32,20.61Z"/><path class="cls-4" d="M19.64,4.22a1,1,0,0,0-.7.7,1.78,1.78,0,0,0,.27,1.89.85.85,0,0,0,1.3,0,1.85,1.85,0,0,0,0-2.3,2.41,2.41,0,0,0-.41-.27c.25-.1.8.22,1.09.65A1.44,1.44,0,0,1,21,6.65,1.59,1.59,0,0,1,19,7a1.45,1.45,0,0,1-.68-1.7A1.47,1.47,0,0,1,19.64,4.22Z"/><path class="cls-4" d="M12.6,19.36h1.1a1,1,0,0,0-.23.33,1.37,1.37,0,0,0,0,.45l-.33.14a1.78,1.78,0,0,1-1.59,0,1.36,1.36,0,0,1-.7-1.5A1.51,1.51,0,0,1,13,17.62c.12.06.24.11.36,0v.88l-.13-.31a.84.84,0,0,0-.9-.59,1,1,0,0,0-.53.25A1.84,1.84,0,0,0,11.6,20a.79.79,0,0,0,.83.4.85.85,0,0,0,.44-.25C13.12,19.86,13,19.52,12.6,19.36Z"/><path class="cls-4" d="M13.12,1.19v.88L13,1.77a.86.86,0,0,0-.89-.61.78.78,0,0,0-.58.27,1.87,1.87,0,0,0-.18,2.15.83.83,0,0,0,.85.43.6.6,0,0,0,.53-.47c.07-.29,0-.41-.34-.58h1.13c-.49.12-.26.53-.32.79l-.35.15a1.78,1.78,0,0,1-1.53,0,1.37,1.37,0,0,1-.72-1.53,1.5,1.5,0,0,1,2.16-1.18C12.88,1.28,13,1.34,13.12,1.19Z"/><path class="cls-4" d="M37.4,19.36c-.38.18-.19.53-.24.78l-.34.16a1.81,1.81,0,0,1-1.56,0,1.12,1.12,0,0,1-.58-.59A1.76,1.76,0,0,1,35,17.92a1.57,1.57,0,0,1,1.74-.3c.13.05.25.12.38,0v.87a4.66,4.66,0,0,0-.25-.5.84.84,0,0,0-1.38-.09A1.88,1.88,0,0,0,35.3,20a.85.85,0,0,0,.85.45.62.62,0,0,0,.55-.53c0-.27,0-.38-.38-.52Z"/><path class="cls-4" d="M36.06,3h1.1c-.4.18-.19.54-.26.78l-.31.14a1.84,1.84,0,0,1-1.57,0,1.14,1.14,0,0,1-.6-.6,1.78,1.78,0,0,1,.3-1.82,1.6,1.6,0,0,1,1.75-.3,1.35,1.35,0,0,0,.37,0v.83c-.05-.13-.09-.22-.13-.31a.87.87,0,0,0-.91-.61.82.82,0,0,0-.56.26,1.89,1.89,0,0,0-.19,2.15A.85.85,0,0,0,35.9,4a.62.62,0,0,0,.53-.47C36.51,3.24,36.44,3.11,36.06,3Z"/><path class="cls-4" d="M22.25,4.69V6.57a.46.46,0,0,0,.33.5h-.75c.3-.1.33-.34.33-.61V4.81c0-.26-.05-.48-.34-.57.22,0,.44,0,.66,0,.06,0,.12.09.17.15L24,6.13a.79.79,0,0,0,.23.21V5.5c0-.24,0-.49,0-.74s-.08-.39-.42-.51h.84c-.28.09-.33.32-.33.58,0,.67,0,1.35,0,2,0,.07,0,.14,0,.22l-.06,0-2-2.43Z"/><path class="cls-4" d="M24.51,23.5l-2-2.48c0,.1,0,.15,0,.19,0,.59,0,1.17,0,1.76,0,.3.06.35.36.5h-.78c.3-.11.33-.35.32-.62V21.2a.51.51,0,0,0-.34-.57c.22,0,.44,0,.67,0,.06,0,.12.08.16.14.47.58.92,1.16,1.38,1.74a.67.67,0,0,0,.23.21v-.79c0-.26,0-.52,0-.78s-.09-.4-.42-.52h.84c-.29.1-.34.32-.34.58,0,.68,0,1.36,0,2a1.5,1.5,0,0,1,0,.22Z"/><path class="cls-4" d="M33.71,20.43l-2-2.45s0,.05,0,.07c0,.62,0,1.24,0,1.86,0,.32.09.39.39.49h-.9c.35-.13.41-.21.41-.59,0-.57,0-1.14,0-1.72,0-.32-.08-.41-.39-.53h.72c.06,0,.12.09.17.15l1.47,1.85.13.15V19c0-.27,0-.55,0-.82s-.07-.47-.44-.58h.91c-.33.06-.38.3-.38.58,0,.67,0,1.34,0,2v.23Z"/><path class="cls-4" d="M33.45,4l-2-2.44s0,0,0,.07c0,.62,0,1.24,0,1.86,0,.31.09.39.39.48h-.91c.36-.12.42-.2.42-.58V1.7c0-.32-.08-.42-.39-.54.24,0,.48,0,.72,0,.06,0,.12.09.16.14l1.48,1.86.13.14V1.75c0-.36-.08-.46-.44-.58h.9c-.33.07-.38.31-.38.59V4Z"/><path class="cls-4" d="M9.74,4l-2-2.44s0,0,0,.07c0,.62,0,1.25,0,1.88,0,.29.1.37.39.46h-.9c.35-.12.41-.2.42-.57V1.7c0-.33-.09-.42-.4-.54.24,0,.48,0,.72,0,.06,0,.11.08.15.13.49.6,1,1.21,1.45,1.82l.16.19c0-.62,0-1.19,0-1.75a.41.41,0,0,0-.36-.39h.84c-.36.07-.37.35-.38.63V4Z"/><path class="cls-4" d="M10,19.72c0-.61,0-1.15,0-1.68a.44.44,0,0,0-.38-.47h.85c-.38.07-.38.36-.38.64,0,.65,0,1.3,0,1.95a.77.77,0,0,1,0,.25c-.7-.78-1.34-1.61-2-2.44a.49.49,0,0,0,0,.1c0,.59,0,1.18,0,1.78,0,.28.08.49.39.55H7.49c.11-.07.25-.11.31-.21a.62.62,0,0,0,.09-.36c0-.58,0-1.16,0-1.73,0-.33-.09-.43-.39-.54h.71c.06,0,.12.08.16.13l1.44,1.82C9.85,19.57,9.9,19.62,10,19.72Z"/><path class="cls-4" d="M27.08,22.42h1.26c-.54.08-.31.51-.37.8l-.31.13a1.76,1.76,0,0,1-1.55.07,1.19,1.19,0,0,1-.73-1,1.56,1.56,0,0,1,.73-1.68,2.06,2.06,0,0,1,.67-.17,1.32,1.32,0,0,0-.84,1,1.82,1.82,0,0,0,.07,1.3.88.88,0,0,0,1.08.59.73.73,0,0,0,.33-.27C27.65,22.82,27.5,22.51,27.08,22.42Z"/><path class="cls-4" d="M28.09,6c-.36.1-.36.1-.38.8a1.62,1.62,0,0,0-.28.11A1.83,1.83,0,0,1,26,7.09,1.23,1.23,0,0,1,25.12,6a1.54,1.54,0,0,1,1-1.79,1.17,1.17,0,0,1,.38,0,1.26,1.26,0,0,0-.84,1,1.91,1.91,0,0,0,.06,1.31.9.9,0,0,0,1.06.59A.66.66,0,0,0,27,7a.59.59,0,0,0,.25-.61c0-.24-.22-.29-.42-.33Z"/><path class="cls-4" d="M3.07,20.63a.92.92,0,0,0-.67.52,1.86,1.86,0,0,0,.05,2,.79.79,0,0,0,.92.33.81.81,0,0,0,.33-.25.46.46,0,0,0-.33-.77H4.63c-.56.07-.32.5-.38.79a2.68,2.68,0,0,0-.3.12,1.73,1.73,0,0,1-1.55.08,1.2,1.2,0,0,1-.74-1,1.52,1.52,0,0,1,1-1.78,2.38,2.38,0,0,1,.37-.06Z"/><path class="cls-4" d="M3.11,6H4.37c-.55.07-.31.51-.37.79l-.59.25a1.67,1.67,0,0,1-1.06,0A1.25,1.25,0,0,1,1.4,6,1.54,1.54,0,0,1,2.45,4.23a.87.87,0,0,1,.36,0,1.06,1.06,0,0,0-.72.66,1.75,1.75,0,0,0,.14,1.9.76.76,0,0,0,.88.29A.56.56,0,0,0,3.28,7a.6.6,0,0,0,.26-.61C3.51,6.11,3.31,6.08,3.11,6Z"/><path class="cls-4" d="M36.27,23.47H35.14c.35-.11.35-.39.35-.68,0-.62,0-1.24,0-1.86v-.21a1,1,0,0,0-1.23.6l0-.62a.16.16,0,0,1,.11-.07h2.71l0,0,0,.68A1,1,0,0,0,36,20.71a.29.29,0,0,0,0,.09v2.14A.5.5,0,0,0,36.27,23.47Z"/><path class="cls-4" d="M36,7.08H34.89c.35-.11.34-.4.34-.69V4.33a1,1,0,0,0-1.23.6c0-.21,0-.42,0-.63,0,0,.07-.06.11-.06h2.71l0,0,0,.68a1,1,0,0,0-1.23-.64.24.24,0,0,0,0,.09c0,.71,0,1.42,0,2.13A.5.5,0,0,0,36,7.08Z"/><path class="cls-4" d="M12.3,7.08H11.17c.33-.11.35-.37.35-.65,0-.64,0-1.28,0-1.92a1,1,0,0,0,0-.18.93.93,0,0,0-1.21.6l0-.69H13c.17,0,.23,0,.23.21s0,.33,0,.55c-.35-.64-.58-.76-1.23-.68a.36.36,0,0,0,0,.1V6.54A.51.51,0,0,0,12.3,7.08Z"/><path class="cls-4" d="M12.22,20.7v2.15c0,.38,0,.43.36.62H11.43c.35-.12.34-.41.34-.7V20.72c-.51,0-1-.08-1.23.6l0-.68h2.85l0,.69C13.28,20.69,12.78,20.68,12.22,20.7Z"/><path class="cls-4" d="M22.66,3.93V3.2h0l.06.14a3.09,3.09,0,0,0,.24.44.59.59,0,0,0,.66.23A.49.49,0,0,0,24,3.57a.6.6,0,0,0-.24-.65,6.48,6.48,0,0,0-.57-.33.75.75,0,0,1-.4-1,.8.8,0,0,1,1.07-.39c.12,0,.26.05.42.09V2l-.13-.32c-.12-.27-.27-.5-.61-.51a.47.47,0,0,0-.46.28A.45.45,0,0,0,23.2,2a2.6,2.6,0,0,0,.42.29c.17.1.36.18.53.29a.81.81,0,0,1,.3,1,.8.8,0,0,1-.77.58c-.22,0-.43-.07-.64-.1Z"/><path class="cls-4" d="M24.57,17.63v.68l0,0a1.63,1.63,0,0,0-.11-.31c-.12-.26-.28-.48-.61-.47a.45.45,0,0,0-.44.27.42.42,0,0,0,.06.51,1.88,1.88,0,0,0,.39.29c.18.11.38.18.55.3a.81.81,0,0,1,.33,1,.82.82,0,0,1-.79.58,4.49,4.49,0,0,1-.64-.1l-.37-.05V19.6h0l.06.13a4.17,4.17,0,0,0,.26.46.59.59,0,0,0,.66.21A.51.51,0,0,0,24.3,20a.62.62,0,0,0-.24-.65c-.21-.15-.44-.26-.66-.39A.68.68,0,0,1,23,18.2a.74.74,0,0,1,.58-.68,2,2,0,0,1,.64.06Z"/><path class="cls-4" d="M19.48,1.85l0-.68h2.85l.05.73-.06,0c-.13-.6-.52-.65-1.09-.66,0,0-.1.09-.1.14,0,.72,0,1.45,0,2.17a.44.44,0,0,0,.39.48H20.25c.38-.12.45-.22.46-.58,0-.67,0-1.35,0-2,0-.15,0-.2-.19-.18l-.44,0C19.75,1.32,19.61,1.57,19.48,1.85Z"/><path class="cls-4" d="M22.63,17.57l0,.74-.06,0c-.13-.59-.54-.64-1.08-.64a.19.19,0,0,0-.11.12v2.2a.45.45,0,0,0,.4.46H20.58c.09-.07.24-.12.3-.22a.74.74,0,0,0,.08-.39c0-.65,0-1.31,0-2,0-.06,0-.12,0-.18a.92.92,0,0,0-1.19.66v-.73Z"/><path class="cls-4" d="M27.34,17.61v.82h0c0-.1-.08-.21-.13-.32a.9.9,0,0,0-.68-.57.87.87,0,0,0-.88.44,1.8,1.8,0,0,0-.09,1.82,1,1,0,0,0,1.39.43,2.15,2.15,0,0,0,.42-.44.79.79,0,0,1-.76.66,1.7,1.7,0,0,1-1-.11,1.21,1.21,0,0,1-.35-.24,1.63,1.63,0,0,1-.23-1.9,1.53,1.53,0,0,1,1.64-.7c.12,0,.23.08.35.1S27.21,17.61,27.34,17.61Z"/><path class="cls-4" d="M3.39,3.36a.8.8,0,0,1-.76.7,2,2,0,0,1-.65,0A1.35,1.35,0,0,1,.87,2.46,1.41,1.41,0,0,1,2.26,1.1,4.2,4.2,0,0,1,3,1.21c.1,0,.2,0,.33,0v.88l-.13-.32a.92.92,0,0,0-.7-.61.86.86,0,0,0-.9.47,1.82,1.82,0,0,0-.08,1.78A1,1,0,0,0,3,3.85,2.47,2.47,0,0,0,3.39,3.36Z"/><path class="cls-4" d="M27.09,3.34a.71.71,0,0,1-.55.66,2.22,2.22,0,0,1-.85,0,1.39,1.39,0,0,1-1.05-1.87,1.47,1.47,0,0,1,1.78-1.06c.11,0,.21.07.31.08a2,2,0,0,0,.35,0v.88l-.14-.33a.88.88,0,0,0-.71-.6.86.86,0,0,0-.89.48,1.84,1.84,0,0,0-.09,1.75,1,1,0,0,0,1.39.48A.94.94,0,0,0,27.09,3.34Z"/><path class="cls-4" d="M3.62,17.61v.82h0c0-.1-.08-.2-.13-.3a.88.88,0,0,0-.69-.58A.83.83,0,0,0,1.9,18a1.79,1.79,0,0,0-.09,1.79,1,1,0,0,0,1.39.44,2,2,0,0,0,.44-.49.79.79,0,0,1-.76.7,1.78,1.78,0,0,1-.65,0,1.35,1.35,0,0,1-1.1-1.6,1.41,1.41,0,0,1,1.4-1.36,4.11,4.11,0,0,1,.77.12C3.39,17.62,3.49,17.61,3.62,17.61Z"/><path class="cls-4" d="M14.22,4.18c-.46.32-.46.77,0,1.05.14.08.29.14.43.21.57.3.76.72.55,1.2a1,1,0,0,1-1.3.45,2.85,2.85,0,0,0-.46-.1V6.28h0c.06.14.11.28.18.41a.69.69,0,0,0,.66.41.53.53,0,0,0,.5-.39A.66.66,0,0,0,14.58,6c-.2-.13-.41-.23-.62-.35a.77.77,0,0,1,0-1.35A1.14,1.14,0,0,1,14.22,4.18Z"/><path class="cls-4" d="M13.72,23.4v-.78l.09.15a2.77,2.77,0,0,0,.26.48.59.59,0,0,0,.89.07.62.62,0,0,0-.1-.93c-.21-.15-.44-.25-.66-.39a.77.77,0,0,1,0-1.35.66.66,0,0,1,.25-.06.57.57,0,0,0-.34.54c0,.26.2.4.41.52s.38.18.56.29a.83.83,0,0,1,.4,1,.89.89,0,0,1-1,.56c-.15,0-.3-.08-.45-.11Z"/><path class="cls-4" d="M17.92,6.33a.85.85,0,0,1-.73.8,1.42,1.42,0,0,1-1.75-1,1.51,1.51,0,0,1,1-1.93,1.16,1.16,0,0,1,.33,0,1.2,1.2,0,0,0-.81.93A1.85,1.85,0,0,0,16,6.42a1,1,0,0,0,1.3.56A.89.89,0,0,0,17.92,6.33Z"/><path class="cls-4" d="M18.17,22.73a.8.8,0,0,1-.61.76,1.44,1.44,0,0,1-1.85-.88,1.53,1.53,0,0,1,1-2,1.16,1.16,0,0,1,.32,0,1.44,1.44,0,0,0-.88,1.49,2.51,2.51,0,0,0,.1.62,1,1,0,0,0,1.3.69C17.85,23.32,18,23.18,18.17,22.73Z"/><path class="cls-4" d="M18.15,20.61v.88c-.18-.36-.33-.75-.82-.87C17.61,20.49,17.86,20.85,18.15,20.61Z"/><path class="cls-4" d="M17.89,5.1a1.44,1.44,0,0,0-.78-.91l.78.13Z"/><path class="cls-4" d="M3.94,4.23v.91c-.2-.39-.32-.82-.85-.91C3.4,4.09,3.63,4.51,3.94,4.23Z"/><path class="cls-4" d="M4.19,20.63v.93c-.19-.43-.33-.84-.84-.94C3.65,20.5,3.88,20.9,4.19,20.63Z"/><path class="cls-4" d="M27.66,4.23v.93c-.19-.43-.34-.83-.85-.94C27.12,4.1,27.35,4.51,27.66,4.23Z"/><path class="cls-4" d="M27.91,20.68v.88c-.19-.43-.33-.84-.82-.93l0-.06.38.11c.13.05.26.15.37-.06Z"/><path class="cls-4" d="M15.38,21.37c-.15-.3-.24-.62-.6-.78l.6.12Z"/><path class="cls-4" d="M14.53,4.18c.1,0,.19.07.29.09l.31,0V5C15,4.69,14.89,4.34,14.53,4.18Z"/></g></g></svg>