<svg xmlns="http://www.w3.org/2000/svg" viewBox="0 0 38.55 24.66"><defs><style>.cls-1{isolation:isolate;}.cls-2{opacity:0.15;}.cls-2,.cls-3{mix-blend-mode:multiply;}.cls-4{fill:#fff;}</style></defs><title>convert-CUSTOMIZE-SVG-03</title><g class="cls-1"><g id="Layer_1" data-name="Layer 1"><g class="cls-2"><path d="M6.43,14.38a4,4,0,0,1-1.3-1.72,5.54,5.54,0,0,1-.39-2.28c0-.4,0-.8.09-1.2a.38.38,0,0,0-.11-.33A3,3,0,0,1,3.9,6.49a1.92,1.92,0,0,1,.85-1.36,3.46,3.46,0,0,1,2-.65A1.85,1.85,0,0,1,8.07,5l.22.18V4.56l.2,0c.13,0,.25.09.39.11.5.08,1,.4,1.48.3s1-.26,1.49-.4l.78-.21v1c0,.05,0,.09.07.14a.3.3,0,0,0,.11-.07,1.92,1.92,0,0,1,2.24-.57,4.64,4.64,0,0,1,1.49.79,1.81,1.81,0,0,1,.6,1.84,3.72,3.72,0,0,1-.72,1.71.52.52,0,0,0-.05.28,6.55,6.55,0,0,1-.66,3.59,12.61,12.61,0,0,1-.89,1.26c.17.21.38.46.57.72a5.7,5.7,0,0,1,1.07,2.28,2.89,2.89,0,0,1-.5,2.31,2,2,0,0,1-.8.57.27.27,0,0,0-.1.45,4.46,4.46,0,0,1,.74,2,.2.2,0,0,1,0,.07h-.24A5.19,5.19,0,0,0,15,21.15c-.09.5-.19,1-.27,1.47,0,.2-.13.27-.34.19a6.82,6.82,0,0,0,.3-2.33h-1v.2l-1,.15.77,1.63L13,22.15l-.27.61-.39-1.85c-.18-.05-.23,0-.24.18l-.15,1.28c0,.09,0,.17,0,.31l-.32-.58-.53.35L11.59,21l-3,.42L8.35,20a4.77,4.77,0,0,1-.93.42,4.83,4.83,0,0,1-1,0c0,.37,0,.76.06,1.15s.15.8.22,1.21c-.16.06-.27,0-.31-.2s-.13-.73-.2-1.1a.59.59,0,0,0,0-.13l-.07,0-.42,1.46H5.43a5.69,5.69,0,0,1,.63-1.93,1.59,1.59,0,0,0,.08-.55s-.07-.08-.12-.1a2.22,2.22,0,0,1-1.27-2.06,4.4,4.4,0,0,1,.89-2.75C5.88,15.08,6.16,14.74,6.43,14.38Zm4-8.71H8.69a.57.57,0,0,0-.25.08A9.54,9.54,0,0,1,7,6.6.18.18,0,0,0,7,6.67a5.94,5.94,0,0,0-1.2,1.44,1.46,1.46,0,0,1-.55.7s-.06.09-.07.15a8,8,0,0,0,0,2.54A4,4,0,0,0,6.8,14.31a5.13,5.13,0,0,0,2.46.81,11.11,11.11,0,0,0,1.29,0,14.27,14.27,0,0,0,2-.07,3.84,3.84,0,0,0,3.11-2.35,6.91,6.91,0,0,0,.47-3.27c0-.06-.07-.12-.1-.17a2.79,2.79,0,0,1-.41-.7,1,1,0,0,0-.3-.58,12.78,12.78,0,0,0-1.13-1.08c-.3-.25-.66-.43-1-.65a6.54,6.54,0,0,0-.52-.4,1.45,1.45,0,0,0-.6-.19C11.5,5.66,10.94,5.67,10.38,5.67ZM13.31,19.5l-.38-2.71-4.67.65.52,3.65a.33.33,0,0,0,.1,0c.85-.12,1.71-.25,2.57-.35a.33.33,0,0,0,.34-.35c-.4,0-.4,0-.65-.38L11.08,20c-.22,0-.15-.17-.1-.3s.12-.33.17-.49.14-.34.35-.35a.38.38,0,0,0,.3-.15c.27-.29.51-.27.75,0a.39.39,0,0,0,.2.11c.16.05.28.13.25.33a.25.25,0,0,0,.06.13ZM6.65,14.58a6.23,6.23,0,0,0-1.57,2.8,2.46,2.46,0,0,0,.42,2.13,2,2,0,0,0,1.65.73A.28.28,0,0,0,7.44,20c.19-.58.4-1.14.6-1.72a.75.75,0,0,0,0-.3c0-.26-.06-.53-.1-.79l.18,0c.21,0,.29-.1.32-.29s.08-.54.13-.81l.67-.16c-.69-.58-2-.73-3.48.46l-.09-.09-.08-.11A3.86,3.86,0,0,1,8,15.2Zm6.51,1.91c.08.53.15,1.05.23,1.57a6.62,6.62,0,0,0,.43,2,.27.27,0,0,0,.25.21,2,2,0,0,0,1.64-.68,2.3,2.3,0,0,0,.5-2,6,6,0,0,0-1.63-3l-1.27.65a3.91,3.91,0,0,1,2.34,1l-.18.2a3.85,3.85,0,0,0-1.67-.85,2,2,0,0,0-1.78.39l.68.16,0,.45ZM8.25,5.55a1.9,1.9,0,0,0-1.44-.8,3.27,3.27,0,0,0-1.89.58,1.69,1.69,0,0,0-.73,1.08,2.75,2.75,0,0,0,.73,2.27l.42-.34C4.7,7.57,4.63,7,5.11,6.48s1.15-.72,2-.18Zm7.92,3.59a3.47,3.47,0,0,0,.73-1.92,1.47,1.47,0,0,0-.73-1.43c-.23-.14-.47-.28-.71-.4a2.6,2.6,0,0,0-1.39-.31A1.46,1.46,0,0,0,13,5.8l1.12.74a1.21,1.21,0,0,1,.76-.4A1.47,1.47,0,0,1,16.2,7a1.09,1.09,0,0,1-.29,1.32.33.33,0,0,0-.06.23C15.93,8.76,16.05,8.92,16.17,9.14ZM10,16.92c.39-.05.77-.1,1.16-.17.05,0,.11-.1.13-.17a1.53,1.53,0,0,1,.81-1.1s0,0,.07-.06H9C9.58,15.72,9.76,15.81,10,16.92Zm3.31,2.68a1.44,1.44,0,0,0-.22.19.36.36,0,0,0-.1.15c-.06.34-.09.39-.43.42,0,.15.09.21.24.19l.62-.1Z"/><path d="M5,3.33l5-1.07a.71.71,0,0,1,.29,0l4,.86c.15,0,.25,0,.3-.14a1,1,0,0,1,.1-.15l.44.25L15,3.28l.14.05-.07,0c-1.58.49-3.16,1-4.74,1.47a.39.39,0,0,1-.24,0l-5-1.47Zm5.88.14a1.38,1.38,0,0,0-1.39,0A1.49,1.49,0,0,0,10.84,3.47Z"/><path d="M19.16,8.23,18.42,8l.11-.43.73.18Z"/><path d="M5.07,3.15,4.65,3l.13-.52.43.09Z"/><path d="M16.87,15.06l-.12.53-.43-.1.12-.53Z"/><path d="M2.52,17.22l-.12.54L2,17.65l.12-.53Z"/><path d="M16.78,19.52l.46.27-.21.36-.46-.26Z"/><path d="M2.27,8.05l.21-.37.46.25-.2.37Z"/><path d="M3.54,13.5l-.2.37-.47-.25.2-.37Z"/><path d="M17.18,4.73l.21-.36.45.26-.2.36Z"/><path d="M1.78,10.5l.45.25L2,11.12l-.47-.25Z"/><path d="M4.52,21.62l.46.26-.21.36L4.31,22Z"/><path d="M4.93,14.94l.21-.37.46.26-.21.37Z"/><path d="M2.23,5.48l.4.21-.2.38L2,5.86Z"/><path d="M16.66,1.3l-.21.38-.39-.21.2-.38Z"/><path d="M18,18.14l.12-.43.41.1-.1.42Z"/><path d="M2.76,14.73l.06.21L2.58,15l-.08-.2Z"/><path d="M4.22,10,4,9.91l.06-.23C4.31,9.69,4.32,9.7,4.22,10Z"/><path d="M2.11,4.09l.21,0,0,.25-.2,0Z"/><path d="M18.13,13.21c.25-.12.26-.12.29.11l-.22.08Z"/><path d="M18.08,16.13l.07-.25.2,0-.06.27Z"/><path d="M3.28,18.89l-.06-.2.24-.08C3.61,18.83,3.44,18.85,3.28,18.89Z"/><path d="M17.59,11.29l-.21,0,.05-.24h.2Z"/><path d="M2.18,20.27l.07.2L2,20.55l-.06-.2Z"/><path d="M7.41,12.18A2.5,2.5,0,0,1,9.83,9.53a4.88,4.88,0,0,1,1.66.1,2.6,2.6,0,0,1,1.71,3.73,2.82,2.82,0,0,1-2,1.54,3.48,3.48,0,0,1-3.32-1.14A2.61,2.61,0,0,1,7.41,12.18Zm5.78,0a2.2,2.2,0,0,0-1.62-2.22,4,4,0,0,0-1.88-.11A2.11,2.11,0,0,0,7.85,11.2a2.36,2.36,0,0,0,.33,2.47,2.91,2.91,0,0,0,2.82,1A2.47,2.47,0,0,0,13.19,12.16Z"/><path d="M14,10.26a1.32,1.32,0,0,1-.07.3.46.46,0,0,1-.43.34.47.47,0,0,1-.42-.34.81.81,0,0,1,0-.63.44.44,0,0,1,.41-.29.42.42,0,0,1,.4.29C14,10,14,10.15,14,10.26Z"/><path d="M6.82,10.27c0-.36.21-.64.48-.64a.59.59,0,0,1,.47.66c0,.35-.21.61-.49.61S6.82,10.63,6.82,10.27Z"/><path d="M9.1,12.16a.78.78,0,0,1,.91-.54,8.66,8.66,0,0,0,1.14,0,.33.33,0,0,1,.38.22c.05.1.12.19.19.3-.31.26-.62.5-.91.76a.53.53,0,0,0-.14.28c-.09.39.29.44.48.63l.67-.47.26.33-1,.68-.69-.5-.73.49-1-.66L9,13.35l.66.47a1.77,1.77,0,0,1,.24-.17.41.41,0,0,0,.25-.49.53.53,0,0,0-.12-.25Z"/><path d="M6.63,14.58a4.13,4.13,0,0,1-1.31-1.72,5.73,5.73,0,0,1-.38-2.28c0-.4,0-.8.09-1.2a.38.38,0,0,0-.11-.33A3,3,0,0,1,4.1,6.69,1.93,1.93,0,0,1,5,5.32a3.5,3.5,0,0,1,2-.64,1.85,1.85,0,0,1,1.28.51c.06.06.13.1.22.18V4.76a1.06,1.06,0,0,1,.2,0l.38.11c.51.08,1,.4,1.49.29s1-.26,1.49-.39l.78-.21v1s0,.09.07.14A.3.3,0,0,0,13,5.7a1.91,1.91,0,0,1,2.24-.57,4.64,4.64,0,0,1,1.49.79,1.81,1.81,0,0,1,.6,1.84,3.76,3.76,0,0,1-.72,1.71.52.52,0,0,0-.05.28,6.55,6.55,0,0,1-.67,3.59A12,12,0,0,1,15,14.6c.16.2.38.46.57.72a5.55,5.55,0,0,1,1.06,2.28,2.84,2.84,0,0,1-.49,2.31,2.06,2.06,0,0,1-.8.57c-.2.11-.25.26-.1.45A4.46,4.46,0,0,1,16,23,.2.2,0,0,1,16,23h-.24a5.35,5.35,0,0,0-.55-1.68c-.09.51-.18,1-.26,1.48,0,.2-.14.27-.34.19a6.82,6.82,0,0,0,.3-2.33h-1v.2L13,21l.76,1.64-.56-.32-.27.62-.38-1.85c-.18-.05-.23,0-.24.18l-.15,1.28c0,.09,0,.17,0,.3l-.32-.57-.53.35.54-1.46-3,.42-.2-1.38a5.45,5.45,0,0,1-.93.42,4.92,4.92,0,0,1-1,0c0,.36,0,.76.07,1.15s.15.8.22,1.21c-.16.06-.27,0-.31-.2-.06-.37-.13-.73-.2-1.1,0,0,0-.09,0-.13l-.08,0L5.87,23H5.63a5.82,5.82,0,0,1,.62-1.93,1.23,1.23,0,0,0,.08-.55s-.07-.08-.11-.1A2.22,2.22,0,0,1,5,18.39a4.4,4.4,0,0,1,.89-2.75C6.08,15.28,6.36,14.94,6.63,14.58Zm4-8.71H8.88A.59.59,0,0,0,8.64,6a9.15,9.15,0,0,1-1.42.84s0,0-.08.06A6.4,6.4,0,0,0,6,8.31,1.46,1.46,0,0,1,5.4,9s-.06.09-.07.14a8.08,8.08,0,0,0,0,2.55A3.94,3.94,0,0,0,7,14.5a5.15,5.15,0,0,0,2.46.82,11.07,11.07,0,0,0,1.29,0,14.27,14.27,0,0,0,2-.07,3.85,3.85,0,0,0,3.1-2.35,6.81,6.81,0,0,0,.48-3.28c0-.05-.07-.11-.1-.16a2.66,2.66,0,0,1-.41-.7,1.11,1.11,0,0,0-.3-.59,14.29,14.29,0,0,0-1.13-1.07c-.3-.25-.66-.43-1-.65s-.33-.3-.52-.41a1.6,1.6,0,0,0-.6-.18C11.69,5.85,11.14,5.87,10.58,5.87ZM13.51,19.7,13.13,17l-4.67.65L9,21.29a.33.33,0,0,0,.1,0c.85-.12,1.71-.25,2.57-.35a.33.33,0,0,0,.34-.35c-.4,0-.4,0-.65-.38l-.06-.05c-.22,0-.15-.17-.11-.31s.13-.32.18-.48.14-.34.35-.35a.36.36,0,0,0,.29-.15.43.43,0,0,1,.75,0,.49.49,0,0,0,.2.11c.17.05.29.12.26.32a.25.25,0,0,0,.06.14ZM6.85,14.78a6.23,6.23,0,0,0-1.57,2.8,2.48,2.48,0,0,0,.41,2.13,2,2,0,0,0,1.66.73.28.28,0,0,0,.29-.22c.19-.58.4-1.14.6-1.72a.75.75,0,0,0,0-.3c0-.27-.06-.53-.1-.79l.18,0c.21,0,.29-.1.32-.3s.08-.53.12-.8l.68-.16c-.69-.58-2-.73-3.48.46l-.09-.09a.52.52,0,0,1-.08-.11,3.83,3.83,0,0,1,2.42-1Zm6.51,1.91c.08.53.15,1,.22,1.57a7.38,7.38,0,0,0,.43,2,.3.3,0,0,0,.26.21,2,2,0,0,0,1.64-.68,2.33,2.33,0,0,0,.5-2,6,6,0,0,0-1.63-3l-1.27.65a3.85,3.85,0,0,1,2.34,1l-.19.2A3.82,3.82,0,0,0,14,15.74a2.06,2.06,0,0,0-1.78.38l.68.16,0,.45ZM8.45,5.75A1.9,1.9,0,0,0,7,5a3.27,3.27,0,0,0-1.89.58,1.65,1.65,0,0,0-.73,1.08,2.72,2.72,0,0,0,.73,2.26l.42-.33c-.65-.77-.71-1.32-.24-1.86s1.16-.72,2-.18Zm7.92,3.59a3.47,3.47,0,0,0,.73-1.92A1.47,1.47,0,0,0,16.37,6c-.23-.14-.47-.29-.71-.41a2.69,2.69,0,0,0-1.39-.3A1.45,1.45,0,0,0,13.15,6l1.12.74a1.12,1.12,0,0,1,.76-.4,1.48,1.48,0,0,1,1.37.88,1.11,1.11,0,0,1-.29,1.33.27.27,0,0,0-.06.22A5.91,5.91,0,0,0,16.37,9.34Zm-6.16,7.78c.4-.06.78-.1,1.16-.17.06,0,.12-.11.14-.17a1.51,1.51,0,0,1,.81-1.1l.07-.06H9.21C9.78,15.92,10,16,10.21,17.12Zm3.32,2.68a2.38,2.38,0,0,0-.22.18.39.39,0,0,0-.1.16c-.06.34-.09.39-.43.42,0,.15.09.21.24.19l.62-.1Z"/><path d="M5.16,3.52l4.95-1.07a.72.72,0,0,1,.29,0l4,.86c.15,0,.24,0,.3-.14a1,1,0,0,1,.1-.15l.43.24-.06.2.14,0s0,0-.07,0L10.48,5.05a.39.39,0,0,1-.24,0l-5-1.47ZM11,3.66a1.43,1.43,0,0,0-1.39,0A1.46,1.46,0,0,0,11,3.66Z"/><path d="M19.35,8.43l-.73-.19.11-.43.73.18Z"/><path d="M5.27,3.35l-.42-.11L5,2.72l.43.09Z"/><path d="M17.07,15.26l-.12.53-.43-.1.12-.53Z"/><path d="M2.72,17.42,2.6,18l-.42-.11.12-.53Z"/><path d="M17,19.72l.45.26-.2.37-.46-.26Z"/><path d="M2.47,8.25l.21-.37.46.25-.2.37Z"/><path d="M3.74,13.7l-.2.37-.47-.26.2-.36Z"/><path d="M17.37,4.93l.22-.36.45.25-.2.37Z"/><path d="M2,10.7l.45.25-.19.37-.47-.26Z"/><path d="M4.72,21.82l.46.26L5,22.44l-.46-.26Z"/><path d="M5.13,15.14l.21-.37L5.8,15l-.21.37Z"/><path d="M2.43,5.68l.4.2-.2.38-.4-.2Z"/><path d="M16.86,1.5l-.21.37-.39-.2.2-.38Z"/><path d="M18.15,18.33l.11-.43.42.11-.11.42Z"/><path d="M3,14.93l.06.21-.24.07L2.7,15Z"/><path d="M4.42,10.16l-.19-.05,0-.23C4.51,9.89,4.51,9.9,4.42,10.16Z"/><path d="M2.31,4.29l.21,0,0,.24h-.2Z"/><path d="M18.32,13.41c.26-.12.27-.12.3.11l-.23.07Z"/><path d="M18.27,16.33l.08-.25.2.05-.07.26Z"/><path d="M3.48,19.09l-.07-.2.24-.08C3.8,19,3.64,19,3.48,19.09Z"/><path d="M17.79,11.49l-.21,0,.05-.25.2,0Z"/><path d="M2.38,20.47l.06.2-.25.08-.06-.2Z"/><path d="M7.61,12.38A2.49,2.49,0,0,1,10,9.73a4.88,4.88,0,0,1,1.66.1,2.61,2.61,0,0,1,1.71,3.73,2.78,2.78,0,0,1-2,1.53A3.48,3.48,0,0,1,8.07,14,2.56,2.56,0,0,1,7.61,12.38Zm5.77,0a2.16,2.16,0,0,0-1.62-2.21A4,4,0,0,0,9.88,10,2.14,2.14,0,0,0,8,11.39a2.39,2.39,0,0,0,.34,2.48,2.93,2.93,0,0,0,2.82,1A2.45,2.45,0,0,0,13.38,12.35Z"/><path d="M14.24,10.46a2.21,2.21,0,0,1-.07.3.44.44,0,0,1-.44.33c-.22,0-.33-.14-.41-.33a.77.77,0,0,1,0-.63.44.44,0,0,1,.4-.29.43.43,0,0,1,.41.29A3.18,3.18,0,0,1,14.24,10.46Z"/><path d="M7,10.47c0-.36.21-.64.48-.64a.58.58,0,0,1,.47.66c0,.35-.21.61-.49.6S7,10.82,7,10.47Z"/><path d="M9.3,12.36a.77.77,0,0,1,.91-.54,8.66,8.66,0,0,0,1.14,0,.34.34,0,0,1,.38.21,1.73,1.73,0,0,0,.19.31L11,13.1a.56.56,0,0,0-.13.28c-.09.4.28.44.48.64l.66-.47.27.33-1,.68-.7-.5-.72.49-1-.66.26-.34.66.46a2,2,0,0,1,.24-.16.41.41,0,0,0,.25-.49.47.47,0,0,0-.13-.25Z"/></g><g class="cls-3"><path d="M6.29,14.24A4.13,4.13,0,0,1,5,12.52a5.73,5.73,0,0,1-.38-2.28c0-.4.05-.8.09-1.2a.38.38,0,0,0-.11-.33,3,3,0,0,1-.82-2.36A1.91,1.91,0,0,1,4.61,5a3.5,3.5,0,0,1,2-.64,1.85,1.85,0,0,1,1.28.51c.06.06.13.1.22.18V4.42a1.06,1.06,0,0,1,.2,0l.38.11c.51.08,1,.4,1.49.29s1-.26,1.49-.39l.78-.21v1s0,.09.07.14a.3.3,0,0,0,.11-.07,1.91,1.91,0,0,1,2.24-.57,4.64,4.64,0,0,1,1.49.79A1.81,1.81,0,0,1,17,7.42a3.76,3.76,0,0,1-.72,1.71.5.5,0,0,0-.05.28A6.55,6.55,0,0,1,15.56,13a12,12,0,0,1-.88,1.26c.16.2.38.46.57.72a5.55,5.55,0,0,1,1.06,2.28,2.84,2.84,0,0,1-.49,2.31,2.06,2.06,0,0,1-.8.57c-.2.11-.25.26-.1.45a4.46,4.46,0,0,1,.74,2,.2.2,0,0,1,0,.07h-.24A5.35,5.35,0,0,0,14.86,21c-.09.51-.18,1-.26,1.48,0,.2-.14.27-.34.19a6.82,6.82,0,0,0,.3-2.33h-1v.2l-1,.14.76,1.64L12.84,22l-.27.62-.38-1.85c-.18-.05-.23,0-.24.18l-.15,1.28c0,.09,0,.17,0,.3L11.44,22l-.53.35.54-1.46-3,.42-.2-1.38a5.45,5.45,0,0,1-.93.42,5.73,5.73,0,0,1-1,0c0,.36,0,.76.07,1.15s.15.8.22,1.21c-.16.06-.27,0-.31-.2-.06-.37-.13-.73-.2-1.1a.59.59,0,0,1,0-.13l-.08,0-.41,1.46H5.29a5.82,5.82,0,0,1,.62-1.93A1.23,1.23,0,0,0,6,20.21s-.07-.08-.11-.1a2.22,2.22,0,0,1-1.27-2.06A4.4,4.4,0,0,1,5.5,15.3C5.74,14.94,6,14.6,6.29,14.24Zm4-8.71H8.54a.59.59,0,0,0-.24.09,9.15,9.15,0,0,1-1.42.84s0,0-.08.06A6.4,6.4,0,0,0,5.61,8a1.46,1.46,0,0,1-.55.7S5,8.76,5,8.81a8.08,8.08,0,0,0,0,2.55,3.94,3.94,0,0,0,1.72,2.8A5.15,5.15,0,0,0,9.12,15a11.07,11.07,0,0,0,1.29,0,14.27,14.27,0,0,0,2-.07,3.85,3.85,0,0,0,3.1-2.35A6.81,6.81,0,0,0,16,9.3c0-.05-.07-.11-.1-.16a2.66,2.66,0,0,1-.41-.7,1.11,1.11,0,0,0-.3-.59A14.29,14.29,0,0,0,14,6.78c-.3-.25-.66-.43-1-.65s-.33-.3-.52-.41a1.6,1.6,0,0,0-.6-.18C11.35,5.51,10.8,5.53,10.24,5.53Zm2.93,13.83-.38-2.71-4.67.65L8.64,21a.33.33,0,0,0,.1,0c.85-.12,1.71-.25,2.57-.35a.33.33,0,0,0,.34-.35c-.4,0-.4,0-.65-.38,0,0,0-.05-.06-.05-.22,0-.16-.17-.11-.31S11,19.19,11,19s.14-.34.35-.35a.36.36,0,0,0,.29-.15.43.43,0,0,1,.75,0,.49.49,0,0,0,.2.11c.17.05.28.12.26.32a.25.25,0,0,0,.06.14ZM6.51,14.44a6.23,6.23,0,0,0-1.57,2.8,2.48,2.48,0,0,0,.41,2.13A2,2,0,0,0,7,20.1a.28.28,0,0,0,.29-.22c.19-.58.4-1.14.6-1.72a.75.75,0,0,0,0-.3c0-.27-.06-.53-.1-.79L8,17c.21,0,.29-.1.32-.3s.08-.53.12-.8l.68-.16c-.69-.58-2-.73-3.48.46l-.09-.09A.52.52,0,0,1,5.47,16a3.83,3.83,0,0,1,2.42-1ZM13,16.35c.08.53.15,1,.22,1.57a7.38,7.38,0,0,0,.43,2,.3.3,0,0,0,.26.21,2,2,0,0,0,1.64-.68,2.33,2.33,0,0,0,.5-2,6,6,0,0,0-1.63-3l-1.27.65a3.85,3.85,0,0,1,2.34,1l-.19.2a4,4,0,0,0-1.66-.86,2.09,2.09,0,0,0-1.78.39l.68.16,0,.45ZM8.11,5.41A1.94,1.94,0,0,0,6.67,4.6a3.35,3.35,0,0,0-1.89.59,1.65,1.65,0,0,0-.73,1.08,2.72,2.72,0,0,0,.73,2.26L5.2,8.2C4.55,7.43,4.49,6.88,5,6.34s1.16-.72,2-.18ZM16,9a3.47,3.47,0,0,0,.73-1.92A1.47,1.47,0,0,0,16,5.65c-.23-.14-.47-.29-.71-.41a2.69,2.69,0,0,0-1.39-.3,1.45,1.45,0,0,0-1.12.72l1.12.74a1.12,1.12,0,0,1,.76-.4,1.48,1.48,0,0,1,1.37.88,1.11,1.11,0,0,1-.29,1.33.27.27,0,0,0-.06.22A5.91,5.91,0,0,0,16,9ZM9.87,16.78c.4-.06.78-.1,1.16-.17.06,0,.12-.11.14-.18A1.51,1.51,0,0,1,12,15.34l.07-.06H8.87C9.44,15.58,9.62,15.67,9.87,16.78Zm3.32,2.67-.22.19a.39.39,0,0,0-.1.16c-.06.34-.09.38-.43.42,0,.15.09.21.24.19l.62-.1Z"/><path d="M4.82,3.18,9.77,2.11a.72.72,0,0,1,.29,0L14,3c.15,0,.24,0,.3-.14a1,1,0,0,1,.1-.15l.43.24-.06.2.14,0s0,0-.07,0L10.14,4.71a.43.43,0,0,1-.25,0L4.94,3.24Zm5.88.14a1.43,1.43,0,0,0-1.39,0A1.46,1.46,0,0,0,10.7,3.32Z"/><path d="M19,8.09l-.73-.19.11-.43.73.18Z"/><path d="M4.93,3,4.51,2.9l.12-.52.44.09Z"/><path d="M16.73,14.92l-.12.53-.43-.1.12-.53Z"/><path d="M2.38,17.08l-.12.53-.42-.1L2,17Z"/><path d="M16.64,19.38l.45.26-.2.37-.46-.26Z"/><path d="M2.13,7.91l.21-.37.46.25-.2.37Z"/><path d="M3.4,13.36l-.2.37-.47-.26.2-.36Z"/><path d="M17,4.59l.22-.36.45.25-.2.37Z"/><path d="M1.64,10.36l.45.25L1.9,11l-.47-.26Z"/><path d="M4.38,21.48l.46.26-.21.36-.46-.26Z"/><path d="M4.79,14.8,5,14.43l.46.26-.21.37Z"/><path d="M2.09,5.34l.4.2-.2.38-.4-.2Z"/><path d="M16.52,1.16l-.21.37-.39-.2.2-.38Z"/><path d="M17.81,18l.11-.43.42.11-.11.42Z"/><path d="M2.62,14.59l.06.21-.24.07-.08-.2Z"/><path d="M4.08,9.82l-.19-.05,0-.23C4.17,9.55,4.17,9.56,4.08,9.82Z"/><path d="M2,4l.21,0-.05.24h-.2Z"/><path d="M18,13.07c.26-.12.27-.12.3.11l-.23.07Z"/><path d="M17.93,16l.08-.25.2,0-.07.26Z"/><path d="M3.14,18.75l-.07-.2.24-.08C3.46,18.69,3.3,18.7,3.14,18.75Z"/><path d="M17.45,11.15l-.21,0,.05-.25.2,0Z"/><path d="M2,20.13l.06.2-.25.08-.06-.2Z"/><path d="M7.27,12A2.49,2.49,0,0,1,9.69,9.39a4.88,4.88,0,0,1,1.66.1,2.61,2.61,0,0,1,1.71,3.73,2.78,2.78,0,0,1-2,1.53,3.48,3.48,0,0,1-3.33-1.14A2.56,2.56,0,0,1,7.27,12ZM13,12A2.16,2.16,0,0,0,11.42,9.8a4,4,0,0,0-1.88-.11A2.14,2.14,0,0,0,7.7,11.05,2.39,2.39,0,0,0,8,13.53a2.93,2.93,0,0,0,2.82,1A2.45,2.45,0,0,0,13,12Z"/><path d="M13.9,10.12a2.21,2.21,0,0,1-.07.3.44.44,0,0,1-.44.33c-.22,0-.33-.14-.41-.33a.77.77,0,0,1,0-.63.43.43,0,0,1,.81,0A3.18,3.18,0,0,1,13.9,10.12Z"/><path d="M6.68,10.13c0-.36.21-.64.48-.64a.58.58,0,0,1,.47.66c0,.35-.21.61-.49.6S6.68,10.48,6.68,10.13Z"/><path d="M9,12a.77.77,0,0,1,.91-.54,8.66,8.66,0,0,0,1.14,0,.34.34,0,0,1,.38.21,1.3,1.3,0,0,0,.19.31l-.92.75a.56.56,0,0,0-.13.28c-.09.4.28.44.48.64l.66-.47.27.33-1,.68-.7-.5-.73.49-1-.66.26-.34.66.46a2,2,0,0,1,.24-.16A.41.41,0,0,0,10,13a.47.47,0,0,0-.13-.25Z"/></g><path class="cls-4" d="M6.49,14.44a4,4,0,0,1-1.31-1.72,5.73,5.73,0,0,1-.38-2.28c0-.4,0-.8.08-1.2a.44.44,0,0,0-.1-.34A3,3,0,0,1,4,6.54,2,2,0,0,1,4.8,5.18a3.53,3.53,0,0,1,2.05-.64,1.81,1.81,0,0,1,1.28.51l.22.18V4.62a1.06,1.06,0,0,1,.2,0c.13,0,.25.08.38.1.5.09,1,.41,1.49.3s1-.26,1.49-.39l.78-.21c0,.36,0,.7,0,1,0,0,0,.09.07.14s.09,0,.11-.07A1.91,1.91,0,0,1,15.11,5a4.6,4.6,0,0,1,1.48.79,1.84,1.84,0,0,1,.61,1.84,3.76,3.76,0,0,1-.72,1.71.41.41,0,0,0-.05.27,6.52,6.52,0,0,1-.67,3.59,13.84,13.84,0,0,1-.88,1.27c.16.2.38.45.57.72a5.55,5.55,0,0,1,1.06,2.28,2.85,2.85,0,0,1-.49,2.3,2.06,2.06,0,0,1-.8.58.26.26,0,0,0-.1.45,4.46,4.46,0,0,1,.74,2s0,0,0,.07h-.24a5.35,5.35,0,0,0-.55-1.68c-.09.5-.18,1-.26,1.48,0,.19-.14.26-.34.19a7.08,7.08,0,0,0,.3-2.33h-1v.2l-1,.14.76,1.63L13,22.2l-.27.62L12.39,21c-.18,0-.23.05-.25.19,0,.43-.09.85-.14,1.28a2.64,2.64,0,0,1-.05.3l-.31-.57-.54.35.54-1.46-3,.41-.2-1.37a4.71,4.71,0,0,1-.93.41,4.88,4.88,0,0,1-1,0c0,.36,0,.76.07,1.15s.14.8.22,1.21c-.17.06-.28,0-.31-.2-.06-.37-.13-.73-.2-1.1l0-.14H6.14l-.41,1.45H5.49A5.84,5.84,0,0,1,6.11,21a1.23,1.23,0,0,0,.08-.55s-.07-.08-.11-.1a2.24,2.24,0,0,1-1.27-2.07A4.39,4.39,0,0,1,5.7,15.5C5.94,15.14,6.22,14.8,6.49,14.44Zm3.95-8.71c-.57,0-1.13,0-1.7,0a.75.75,0,0,0-.24.08,8.47,8.47,0,0,1-1.42.85s0,0-.08.06A6.72,6.72,0,0,0,5.8,8.17a1.38,1.38,0,0,1-.54.7A.17.17,0,0,0,5.19,9a8.08,8.08,0,0,0-.05,2.55,4,4,0,0,0,1.71,2.8,5.18,5.18,0,0,0,2.47.82,10.9,10.9,0,0,0,1.28,0,15.91,15.91,0,0,0,2-.07,3.85,3.85,0,0,0,3.11-2.35,6.81,6.81,0,0,0,.48-3.28A.69.69,0,0,0,16,9.33a2.69,2.69,0,0,1-.4-.69,1.19,1.19,0,0,0-.3-.59A14.29,14.29,0,0,0,14.21,7c-.3-.25-.66-.43-1-.65s-.34-.3-.53-.41a1.4,1.4,0,0,0-.59-.18C11.55,5.71,11,5.73,10.44,5.73Zm2.93,13.83L13,16.85l-4.67.64.51,3.66h.1c.86-.12,1.72-.25,2.58-.35a.33.33,0,0,0,.34-.35c-.4,0-.4,0-.66-.38,0,0,0-.05-.06-.05-.21-.05-.15-.18-.1-.31l.18-.48c0-.18.14-.34.35-.35a.35.35,0,0,0,.29-.16.43.43,0,0,1,.75,0,.41.41,0,0,0,.2.12c.17.05.28.12.26.32,0,0,0,.1.06.14ZM6.71,14.64a6.18,6.18,0,0,0-1.57,2.8,2.42,2.42,0,0,0,.41,2.12,2,2,0,0,0,1.66.74c.15,0,.23-.07.29-.23.19-.57.4-1.14.6-1.71a.79.79,0,0,0,0-.31c0-.26-.07-.52-.1-.78l.18,0c.21,0,.29-.1.31-.3s.09-.54.13-.8L9.32,16c-.69-.58-2-.73-3.48.46l-.09-.09a.52.52,0,0,1-.08-.11,3.83,3.83,0,0,1,2.42-1Zm6.51,1.91c.07.53.15,1.05.22,1.57a7.38,7.38,0,0,0,.43,2c.06.13.12.2.26.2a2,2,0,0,0,1.64-.67,2.38,2.38,0,0,0,.5-2,6,6,0,0,0-1.63-3l-1.28.65a3.85,3.85,0,0,1,2.35,1l-.19.19a4,4,0,0,0-1.66-.85,2.05,2.05,0,0,0-1.78.39l.67.16,0,.45ZM8.31,5.61A2,2,0,0,0,6.87,4.8,3.33,3.33,0,0,0,5,5.39a1.63,1.63,0,0,0-.73,1.07A2.73,2.73,0,0,0,5,8.73l.41-.33c-.64-.77-.7-1.32-.23-1.86s1.16-.72,2-.19ZM16.23,9.2A3.47,3.47,0,0,0,17,7.28a1.47,1.47,0,0,0-.73-1.43c-.24-.14-.47-.29-.72-.41a2.54,2.54,0,0,0-1.38-.3A1.46,1.46,0,0,0,13,5.86l1.12.74a1.14,1.14,0,0,1,.77-.4,1.45,1.45,0,0,1,1.37.88A1.12,1.12,0,0,1,16,8.41a.27.27,0,0,0-.06.22A5.91,5.91,0,0,0,16.23,9.2ZM10.07,17c.4-.06.78-.1,1.16-.17.06,0,.12-.11.14-.18a1.51,1.51,0,0,1,.81-1.09s0,0,.06-.07H9.07C9.64,15.78,9.81,15.87,10.07,17Zm3.31,2.67-.21.19c0,.05-.1.1-.11.16-.05.34-.09.38-.42.42q0,.22.24.18l.62-.09Z"/><path class="cls-4" d="M5,3.38,10,2.31a.76.76,0,0,1,.3,0l4,.86c.14,0,.24,0,.3-.14s.06-.09.09-.15l.44.24-.06.2.13,0a.18.18,0,0,1-.07.05L10.34,4.91a.53.53,0,0,1-.25,0l-5-1.47Zm5.87.14a1.41,1.41,0,0,0-1.38,0A1.44,1.44,0,0,0,10.89,3.52Z"/><path class="cls-4" d="M19.21,8.29l-.74-.19.11-.43.74.18Z"/><path class="cls-4" d="M5.13,3.21,4.71,3.1l.12-.52.43.09Z"/><path class="cls-4" d="M16.93,15.12l-.13.53-.42-.1L16.5,15Z"/><path class="cls-4" d="M2.58,17.28l-.12.53L2,17.71l.11-.53Z"/><path class="cls-4" d="M16.83,19.58l.46.26-.2.37L16.63,20Z"/><path class="cls-4" d="M2.33,8.11l.2-.37L3,8l-.2.36Z"/><path class="cls-4" d="M3.6,13.55l-.2.37-.47-.25.2-.37Z"/><path class="cls-4" d="M17.23,4.79l.21-.37.46.26-.2.37Z"/><path class="cls-4" d="M1.84,10.56l.45.24-.2.38-.46-.26Z"/><path class="cls-4" d="M4.58,21.68l.45.25-.21.37L4.37,22Z"/><path class="cls-4" d="M5,15l.21-.37.46.26-.21.36Z"/><path class="cls-4" d="M2.28,5.54l.41.2-.2.38-.4-.2Z"/><path class="cls-4" d="M16.72,1.36l-.21.37-.39-.2.2-.38Z"/><path class="cls-4" d="M18,18.19l.11-.43.41.11-.1.42Z"/><path class="cls-4" d="M2.82,14.79l.05.2-.24.08-.07-.2Z"/><path class="cls-4" d="M4.28,10,4.09,10l0-.23C4.37,9.74,4.37,9.76,4.28,10Z"/><path class="cls-4" d="M2.17,4.15l.21,0,0,.24h-.2Z"/><path class="cls-4" d="M18.18,13.27c.26-.12.27-.12.3.11l-.23.07Z"/><path class="cls-4" d="M18.13,16.18l.08-.24.2.05-.07.26Z"/><path class="cls-4" d="M3.34,19l-.07-.2.24-.08C3.66,18.89,3.5,18.9,3.34,19Z"/><path class="cls-4" d="M17.65,11.34l-.21,0,0-.25.21,0Z"/><path class="cls-4" d="M2.24,20.33l.06.2-.25.08L2,20.41Z"/><path class="cls-4" d="M7.47,12.24A2.49,2.49,0,0,1,9.89,9.59a4.88,4.88,0,0,1,1.66.1,2.6,2.6,0,0,1,1.71,3.72,2.79,2.79,0,0,1-2,1.54,3.48,3.48,0,0,1-3.33-1.14A2.56,2.56,0,0,1,7.47,12.24Zm5.77,0A2.17,2.17,0,0,0,11.62,10a3.86,3.86,0,0,0-1.88-.11A2.12,2.12,0,0,0,7.9,11.25a2.39,2.39,0,0,0,.33,2.48,3,3,0,0,0,2.83,1A2.46,2.46,0,0,0,13.24,12.21Z"/><path class="cls-4" d="M14.1,10.31c0,.12,0,.22-.07.31a.44.44,0,0,1-.85,0,.73.73,0,0,1,0-.63.45.45,0,0,1,.4-.3A.42.42,0,0,1,14,10,2.44,2.44,0,0,1,14.1,10.31Z"/><path class="cls-4" d="M6.87,10.33c0-.36.22-.65.49-.64a.59.59,0,0,1,.47.65c0,.36-.22.62-.49.61S6.88,10.68,6.87,10.33Z"/><path class="cls-4" d="M9.15,12.22a.77.77,0,0,1,.91-.54,7.36,7.36,0,0,0,1.15,0,.36.36,0,0,1,.38.22,1.86,1.86,0,0,0,.19.31c-.31.25-.62.49-.92.75a.56.56,0,0,0-.13.28c-.09.4.28.44.48.64l.66-.47.27.33-1,.67-.7-.5-.73.5-1-.67L9,13.4l.65.47c.09,0,.16-.12.25-.16a.4.4,0,0,0,.24-.5.46.46,0,0,0-.12-.24C9.76,12.71,9.45,12.46,9.15,12.22Z"/></g></g></svg>