<svg xmlns="http://www.w3.org/2000/svg" viewBox="0 0 38.55 24.66"><defs><style>.cls-1{isolation:isolate;}.cls-2{opacity:0.15;}.cls-2,.cls-3{mix-blend-mode:multiply;}.cls-4{fill:#fff;}</style></defs><title>convert-CUSTOMIZE-SVG-03</title><g class="cls-1"><g id="Layer_1" data-name="Layer 1"><g class="cls-2"><path d="M5.15,14.74a1,1,0,0,0-.1-.3,1.53,1.53,0,0,1-.3-.84,4.56,4.56,0,0,1,.52-2.29.28.28,0,0,0,0-.22,2.94,2.94,0,0,1-.5-2.45.71.71,0,0,0-.1-.55,1.88,1.88,0,0,1,1.2-2.77,1.26,1.26,0,0,1,.87.27,1.53,1.53,0,0,0-2,1,1.64,1.64,0,0,0,.38,1.77c.36-.14.44-.35.26-.68a1,1,0,0,1,.21-1.24.88.88,0,0,1,1.11-.09A1.6,1.6,0,0,1,7,6.55v-1A8.52,8.52,0,0,1,8,5.88a2.09,2.09,0,0,0,1.73,0,3.74,3.74,0,0,1,.57-.17l0,0c-.12.55.34.72.64,1a.43.43,0,0,0,.16,0c.44.07.59.29.5.73a1.06,1.06,0,0,0,0,.43c.6-.79,0-1.81-1.11-2,0-.15.1-.21.28-.17A1.52,1.52,0,0,1,12,7.84c0,.13-.1.26-.16.41a1.18,1.18,0,0,0,.76.09,1.56,1.56,0,0,0,1.26-1A1.88,1.88,0,0,0,14,5.7,2.78,2.78,0,0,0,11.85,4c-.08,0-.16,0-.24,0a1.05,1.05,0,0,1-.38-.09,1.93,1.93,0,0,1,1.9.36,6.25,6.25,0,0,1,.12-.65,1.9,1.9,0,0,1,2.93-1,2.53,2.53,0,0,1,1,1.91,9,9,0,0,1,0,1.26,2.75,2.75,0,0,1,1.54,3A2.43,2.43,0,0,1,16.65,11l.05.42-.41-.2c-.1.22-.19.43-.29.64l-1.42,2.84a.27.27,0,0,0,0,.3,4.19,4.19,0,0,1,.22.59.68.68,0,0,1-.32.83.53.53,0,0,1-.33,0c-.21,0-.44-.2-.62-.15s-.32.28-.48.43c0,0,0,0,0,0-.18-.06-.18-.17-.12-.32.13-.37.12-.36-.23-.53s-.88-.44-1.34-.67c0,.46-.05.92-.07,1.39s0,1.18-.07,1.77A3.8,3.8,0,0,0,11.47,20a7.21,7.21,0,0,1,.41,1.37c.17,1-.25,1.51-1.3,1.71a2.48,2.48,0,0,1-2.28-.86,2,2,0,0,1-.38-1.83c.11-.54.23-1.08.34-1.62,0-.06,0-.12,0-.15-.43-.12-.83-.24-1.24-.34a.15.15,0,0,0-.13,0,1.26,1.26,0,0,1-.79.06,12.27,12.27,0,0,1-2.41-1,.36.36,0,0,0-.4,0,1.35,1.35,0,0,1-1.06.15,1.77,1.77,0,0,1-.91-3,3.76,3.76,0,0,1,1-.71,1.4,1.4,0,0,1,.76,0,4.43,4.43,0,0,1,1.65.83l.31.22Zm2,3.29a2.46,2.46,0,0,0,3.05-.62A3.47,3.47,0,0,0,11,16a3,3,0,0,0,.1-.85,3.58,3.58,0,0,0-1.28-2.49.41.41,0,0,0-.35-.15,3.6,3.6,0,0,1-.57,0,.34.34,0,0,0-.31.16,6,6,0,0,1-.64.78,1.54,1.54,0,0,0-.37.47,1.6,1.6,0,0,1-1.66.95,4.12,4.12,0,0,1-.55-.15c-.08.16,0,.25.13.35A6,6,0,0,1,7,17,1.47,1.47,0,0,1,7.18,18ZM5.45,10.94c.24-.26.45-.52.69-.76A.87.87,0,0,1,6.49,10a1.08,1.08,0,0,1,1.42.66,2.11,2.11,0,0,1,.14,1.22l1.26-.11a1.4,1.4,0,0,1-.76-1.16,4.71,4.71,0,0,1,0-.92A1.33,1.33,0,0,1,9.45,8.5a1.84,1.84,0,0,1,1.87,0c.06,0,.11-.09.15-.09a.44.44,0,0,1,.15.05,2.6,2.6,0,0,0-1.27-1.93.53.53,0,0,1-.25.1H7.53a1,1,0,0,0-.34.07,3,3,0,0,0-1.34,1,.36.36,0,0,0-.11.17A.76.76,0,0,1,5,8.61,2.76,2.76,0,0,0,5.45,10.94Zm-2.64,5.7c.28.14.54.3.81.42.81.34,1.61.68,2.42,1a1.14,1.14,0,0,0,.58.05c.33-.05.45-.21.35-.52a4.58,4.58,0,0,0-.45-1A6.19,6.19,0,0,0,5,15,6.75,6.75,0,0,0,3.23,14a1.08,1.08,0,0,0-1,.12,4.81,4.81,0,0,0-.62.47,1.55,1.55,0,0,0-.5,1.63,1.66,1.66,0,0,0,1.29,1.12,1.05,1.05,0,0,0,.88-.18l-.56-.31ZM17,4.9a2.7,2.7,0,0,0-.67-1.82,1.74,1.74,0,0,0-1.89-.46,1.48,1.48,0,0,0-1,1.33.77.77,0,0,0,.2.78,2.27,2.27,0,0,1,.73,2,.23.23,0,0,0,.13.19,1.59,1.59,0,0,0,1.79-.26A2.36,2.36,0,0,0,17,4.9ZM11.07,16.7l-.1,0c-.07.3-.36.49-.33.85a3,3,0,0,1-.14.83,3.72,3.72,0,0,0,.22,2.28,3,3,0,0,1,.22.94,8.14,8.14,0,0,1,0,1c-.22,0-.25,0-.23-.19a3,3,0,0,0-.22-1.76,3.38,3.38,0,0,1-.26-1.8c0-.4.12-.79.19-1.21l-.09.06a2.71,2.71,0,0,1-1.66.86c-.06,0-.14.1-.15.17-.09.4-.17.81-.25,1.22a3.2,3.2,0,0,0-.13,1.34.7.7,0,0,0,.21.43,11.82,11.82,0,0,0,1.34.76,2.21,2.21,0,0,0,1.39.16.66.66,0,0,0,.54-.47,1.77,1.77,0,0,0,.08-.56,4,4,0,0,0-.41-1.52,3.53,3.53,0,0,1-.3-1.69C11,17.8,11,17.25,11.07,16.7Zm4.29-9.13c-.14.86-.27,1.69-.39,2.52a.33.33,0,0,0,.08.19,2,2,0,0,0,2.52.11,2.67,2.67,0,0,0,.21-3.88A2.32,2.32,0,0,0,17,6l-.11.23a2.07,2.07,0,0,1-1.05,1c-.18.07-.37.1-.25.37ZM11,11.68a19.56,19.56,0,0,0,2.46,2c.28-1.06-.05-4.67-.49-5l-.06.38h0l-.16-.48h-.81a4.05,4.05,0,0,1,.06,1.7A2.19,2.19,0,0,1,11,11.68Zm-4.73,3a9.79,9.79,0,0,1,.64-2.14,2.83,2.83,0,0,0,.13-2.12c-.13-.35-.37-.4-.68-.16l-.11.1A4.2,4.2,0,0,0,5,13.65,1.09,1.09,0,0,0,6.28,14.69Zm4-3.8.18-.1a.91.91,0,0,0,.17-.09.22.22,0,0,0,.08-.36c-.1-.13-.2-.24-.29-.37a.28.28,0,0,1,0-.17c0-.26.13-.31.4-.31a1.45,1.45,0,0,0,.36,0,.3.3,0,0,1,.37.23.29.29,0,0,1,0,.36l-.25.29a.45.45,0,0,0-.12.47l.43-.16s0,0,0-.08a2.09,2.09,0,0,0,.06-1.33,1.2,1.2,0,0,0-1-.78,2.31,2.31,0,0,0-1.24.28,1.08,1.08,0,0,0-.61.8,4.25,4.25,0,0,0-.05.8,1.24,1.24,0,0,0,.72,1.18,1.66,1.66,0,0,0,1.48-.2L10.74,11c-.54.23-.54.23-.92-.18a.08.08,0,0,0,0,0l.2-.16ZM10.92,12a4.48,4.48,0,0,0-.05,1.59.21.21,0,0,0,0,.07c.12.36.24.71.35,1.06s.39.42.62.59.22,0,.34-.07l.18-.05h.66c.14,0,.22,0,.23-.18a6.53,6.53,0,0,1,.14-.77.36.36,0,0,0-.15-.42C12.48,13.2,11.7,12.59,10.92,12Zm3.47,2.7L16,11.33l-.06,0-.15.12.09-.42-1-.5s0,0,0,.06c-.31,1.14-.63,2.29-.93,3.44a.18.18,0,0,0,0,.16Zm-.66-.83,0,0c.3-1.13.61-2.26.9-3.39a.33.33,0,0,0-.07-.25A2.63,2.63,0,0,1,14,9a10.93,10.93,0,0,1-.15-1.13l-.42.48.22.3-.33,0A13.45,13.45,0,0,1,13.73,13.85Zm1-3.88c0-.12.05-.22.06-.32.08-.61.16-1.22.23-1.84A.29.29,0,0,0,15,7.63c0-.06-.11-.1-.11-.15,0-.28-.26-.19-.4-.26s-.15.09-.19.16A2.53,2.53,0,0,0,14.76,10ZM6.53,14.62a1.91,1.91,0,0,0,1.1-1.82,2.18,2.18,0,0,1-.44,0c-.12,0-.18,0-.21.15l-.39,1.27A3.37,3.37,0,0,0,6.53,14.62ZM9.68,12c.05.11.07.26.14.28a5.79,5.79,0,0,0,.77.18l.07-.48H9.82Zm3.87,3.2c.44.17.32.18.54-.15a.83.83,0,0,0,.08-.12s0-.11,0-.14-.22-.28-.35-.45ZM9.48,12h-.8l0,.31h.76Zm4.88,3.09-.23.36.43.63A1.25,1.25,0,0,0,14.36,15.09ZM7.92,12.71l.4-.2c.2-.08.2-.22.12-.38C7.89,12.23,7.87,12.25,7.92,12.71Zm2.67.5c.06-.45,0-.53-.53-.6Zm-2.75.1.38-.46C7.86,13,7.86,13,7.84,13.31Z"/><path d="M5.07,4.61l1.68-.4,2.08-.5a1,1,0,0,1,.35,0l3.68.88.14,0-.72.25-3.17,1a.59.59,0,0,1-.32,0L5.07,4.65Z"/><path d="M18,16.85c.09-.13.16-.26.25-.37s.34-.18.49,0a1.15,1.15,0,0,1-.58,1.78,1.71,1.71,0,0,1-.95.07,1.21,1.21,0,0,1-1-1.05.38.38,0,0,1,0-.15c0-.18.06-.38.26-.45s.32.09.44.2A.92.92,0,0,1,17,17c.08-.16.14-.29.21-.4.19-.31.41-.32.62,0A2.5,2.5,0,0,1,18,16.85Z"/><path d="M13.3,19.16c.24-.63.26-.63.72-.25.05-.1.09-.2.15-.3s.2-.15.33,0a.88.88,0,0,1-.11,1.36,1,1,0,0,1-1.6-.36.39.39,0,0,1,0-.2.7.7,0,0,1,.14-.35c.06,0,.21,0,.32.07S13.26,19.13,13.3,19.16Z"/><path d="M17.93,18.52l.17-.08a11.71,11.71,0,0,1,.32,4.46h-.21A14.26,14.26,0,0,0,17.93,18.52Z"/><path d="M14.36,20.1a5.9,5.9,0,0,1,.28,2.78h-.2v-.17a7.27,7.27,0,0,0-.18-2.37C14.25,20.28,14.32,20.2,14.36,20.1Z"/><path d="M5.58,21.54,6,22.8V22h.22v.86H5.77l-.4-1.28Z"/><path d="M2,22l.19-.11.43.89V22.3h.23v.63h-.4s-.09-.06-.11-.1Z"/><path d="M16.32,22.78V22.3h.21v.63h-.39a.14.14,0,0,1-.1-.07L15.69,22l.19-.11.41.86Z"/><path d="M6.55,22.91H6.36a2.24,2.24,0,0,1,.33-1.18c.15.08.15.15.1.29S6.63,22.6,6.55,22.91Z"/><path d="M13.24,22.92l-.2,0a1.42,1.42,0,0,1,.35-.87l.11.13Z"/><path d="M3.33,22l.09.14-.26.74H3C2.9,22.8,3.11,22.23,3.33,22Z"/><path d="M17.1,22.06a2.11,2.11,0,0,1,0,.26c-.06.19-.14.38-.21.59h-.2a1.3,1.3,0,0,1,.34-.86Z"/><path d="M12.91,22.91H12.7V22.3h.21Z"/><path d="M7.7,8.84a.43.43,0,1,1,.41.48A.46.46,0,0,1,7.7,8.84Z"/><path d="M5.41,17a.81.81,0,0,1,.62.34.19.19,0,0,1-.18.31.67.67,0,0,1-.58-.32.27.27,0,0,1,0-.23C5.28,17,5.37,17,5.41,17Z"/><path d="M5.35,14.94a1.32,1.32,0,0,0-.1-.3A1.53,1.53,0,0,1,5,13.8a4.55,4.55,0,0,1,.51-2.29.25.25,0,0,0,0-.22A2.9,2.9,0,0,1,5,8.84a.75.75,0,0,0-.1-.55,1.89,1.89,0,0,1,1.2-2.78A1.38,1.38,0,0,1,7,5.78a1.54,1.54,0,0,0-2,1,1.64,1.64,0,0,0,.38,1.77c.36-.14.44-.35.26-.68a1,1,0,0,1,.21-1.24.88.88,0,0,1,1.11-.09,1.55,1.55,0,0,1,.24.22v-1a9.65,9.65,0,0,1,1.07.32,2.05,2.05,0,0,0,1.73,0,4.23,4.23,0,0,1,.58-.17l0,0c-.12.55.33.72.64,1a.38.38,0,0,0,.16,0c.44.07.58.28.5.72a1.11,1.11,0,0,0,0,.44c.59-.8,0-1.81-1.11-2,0-.15.1-.21.28-.17A1.52,1.52,0,0,1,12.23,8c0,.13-.1.26-.16.41a1.17,1.17,0,0,0,.76.09,1.55,1.55,0,0,0,1.26-1A1.89,1.89,0,0,0,14.2,5.9,2.78,2.78,0,0,0,12,4.22c-.07,0-.15,0-.23,0a1,1,0,0,1-.38-.09,1.93,1.93,0,0,1,1.9.36c0-.23.06-.44.11-.65a1.91,1.91,0,0,1,2.94-1,2.53,2.53,0,0,1,1,1.91,10.81,10.81,0,0,1,0,1.26A2.73,2.73,0,0,1,18.9,9a2.43,2.43,0,0,1-2.06,2.23l.06.42-.42-.21c-.09.23-.18.44-.28.65-.47.95-.94,1.89-1.42,2.83a.31.31,0,0,0,0,.31,3.28,3.28,0,0,1,.23.59.68.68,0,0,1-.33.83.49.49,0,0,1-.32,0c-.21,0-.44-.2-.62-.15s-.32.28-.48.43l0,0c-.18-.06-.18-.17-.12-.32.13-.37.12-.37-.23-.53l-1.34-.67c0,.45,0,.92-.07,1.38s-.05,1.19-.07,1.78a3.8,3.8,0,0,0,.28,1.55,7.21,7.21,0,0,1,.41,1.37c.17,1-.25,1.51-1.3,1.7a2.45,2.45,0,0,1-2.28-.85,2,2,0,0,1-.38-1.83l.33-1.62c0-.06,0-.12,0-.15l-1.24-.35a.25.25,0,0,0-.14,0,1.22,1.22,0,0,1-.78.06,12.27,12.27,0,0,1-2.41-1,.35.35,0,0,0-.4,0,1.36,1.36,0,0,1-1.06.15,1.77,1.77,0,0,1-.91-3,3.76,3.76,0,0,1,1-.71,1.39,1.39,0,0,1,.76-.05A4.51,4.51,0,0,1,5,14.75l.31.22Zm2,3.29a2.48,2.48,0,0,0,3.05-.62,3.47,3.47,0,0,0,.76-1.38,3,3,0,0,0,.1-.85A3.58,3.58,0,0,0,10,12.89a.39.39,0,0,0-.35-.15,2.71,2.71,0,0,1-.57,0,.35.35,0,0,0-.31.17,6,6,0,0,1-.64.78,1.47,1.47,0,0,0-.37.46,1.59,1.59,0,0,1-1.66,1A3.75,3.75,0,0,1,5.56,15c-.08.15,0,.25.12.35A5.91,5.91,0,0,1,7.23,17.2,1.46,1.46,0,0,1,7.38,18.23ZM5.65,11.14c.24-.27.45-.53.69-.76a.8.8,0,0,1,.35-.22,1.08,1.08,0,0,1,1.42.66A2.1,2.1,0,0,1,8.24,12l1.27-.11a1.4,1.4,0,0,1-.76-1.16,4.14,4.14,0,0,1,0-.93A1.3,1.3,0,0,1,9.64,8.7a1.86,1.86,0,0,1,1.88,0c.06,0,.1-.09.15-.09s.1,0,.15,0a2.6,2.6,0,0,0-1.27-1.93.56.56,0,0,1-.26.1H7.73a1.15,1.15,0,0,0-.35.07A3.11,3.11,0,0,0,6,7.89c0,.05-.1.11-.1.17a.76.76,0,0,1-.73.75A2.76,2.76,0,0,0,5.65,11.14ZM3,16.84c.27.14.54.3.81.42.81.34,1.61.68,2.42,1a1.26,1.26,0,0,0,.58,0c.33,0,.45-.21.35-.52a4,4,0,0,0-.46-1,6,6,0,0,0-1.47-1.54,6.41,6.41,0,0,0-1.82-1.07,1.09,1.09,0,0,0-1,.11,6.14,6.14,0,0,0-.63.48,1.54,1.54,0,0,0-.49,1.63A1.62,1.62,0,0,0,2.57,17.5a1,1,0,0,0,.88-.17L2.89,17ZM17.21,5.09a2.63,2.63,0,0,0-.66-1.81,1.73,1.73,0,0,0-1.89-.46,1.49,1.49,0,0,0-1.05,1.33.81.81,0,0,0,.21.78,2.24,2.24,0,0,1,.72,2c0,.06.07.16.14.19a1.58,1.58,0,0,0,1.79-.27A2.34,2.34,0,0,0,17.21,5.09Zm-5.94,11.8-.1,0c-.07.3-.36.48-.33.85a3.43,3.43,0,0,1-.14.83,3.72,3.72,0,0,0,.22,2.28,3,3,0,0,1,.21.94,6.53,6.53,0,0,1,0,1c-.22,0-.25-.05-.23-.19a3.12,3.12,0,0,0-.22-1.76,3.29,3.29,0,0,1-.26-1.8c.05-.4.12-.79.19-1.21l-.09.06a2.65,2.65,0,0,1-1.66.85.25.25,0,0,0-.15.18c-.1.4-.17.81-.25,1.22a3.2,3.2,0,0,0-.13,1.34.7.7,0,0,0,.21.43,11,11,0,0,0,1.34.76,2.17,2.17,0,0,0,1.38.16.66.66,0,0,0,.55-.47,1.81,1.81,0,0,0,.08-.56,4,4,0,0,0-.41-1.52,3.53,3.53,0,0,1-.31-1.69C11.19,18,11.23,17.45,11.27,16.89Zm4.28-9.12c-.13.86-.26,1.69-.38,2.52a.24.24,0,0,0,.08.19,2,2,0,0,0,2.52.1A2.66,2.66,0,0,0,18,6.71a2.32,2.32,0,0,0-.75-.51c0,.09-.08.16-.11.22a2,2,0,0,1-1.05,1c-.18.08-.37.11-.25.38Zm-4.34,4.11a18.86,18.86,0,0,0,2.46,2c.28-1.07-.05-4.67-.49-5l-.06.38h0l-.16-.48H12.1a3.89,3.89,0,0,1,.07,1.7A2.23,2.23,0,0,1,11.21,11.88Zm-4.73,3a10.44,10.44,0,0,1,.63-2.13,2.79,2.79,0,0,0,.14-2.12c-.14-.35-.38-.41-.68-.17l-.11.1a4.22,4.22,0,0,0-1.28,3.29A1.08,1.08,0,0,0,6.48,14.88Zm4-3.79.18-.1.17-.09a.22.22,0,0,0,.07-.36c-.09-.13-.19-.25-.28-.37a.28.28,0,0,1-.05-.17c.05-.26.13-.31.4-.31a2.16,2.16,0,0,0,.36,0,.3.3,0,0,1,.37.23.29.29,0,0,1-.05.36,3.33,3.33,0,0,0-.25.28.5.5,0,0,0-.13.48l.44-.17s0,0,0-.07a2.09,2.09,0,0,0,.06-1.33,1.23,1.23,0,0,0-1-.79A2.38,2.38,0,0,0,9.6,9a1.08,1.08,0,0,0-.6.79,3.68,3.68,0,0,0-.05.81,1.24,1.24,0,0,0,.71,1.18,1.68,1.68,0,0,0,1.49-.2l-.22-.33c-.53.23-.53.23-.91-.18a.08.08,0,0,0,0,0l.2-.16Zm.62,1.09a5,5,0,0,0,0,1.59l0,.07c.12.36.24.71.35,1.06s.39.41.62.58.22-.05.33-.07a1.62,1.62,0,0,1,.19,0h.66c.14,0,.21,0,.23-.18a5,5,0,0,1,.14-.77.35.35,0,0,0-.16-.42Zm3.48,2.69,1.64-3.34-.06,0-.15.12.08-.42-1-.5s0,0,0,.05c-.32,1.15-.63,2.3-.94,3.45a.22.22,0,0,0,0,.16C14.27,14.52,14.41,14.67,14.59,14.87Zm-.66-.82L14,14c.3-1.13.61-2.25.9-3.39a.31.31,0,0,0-.07-.24,2.58,2.58,0,0,1-.59-1.15c-.08-.38-.11-.76-.16-1.13l-.41.48.22.3-.33,0A13.45,13.45,0,0,1,13.93,14.05Zm1-3.88A2.71,2.71,0,0,0,15,9.85c.08-.61.16-1.23.23-1.84a.29.29,0,0,0-.05-.18c0-.06-.11-.1-.11-.15,0-.28-.26-.19-.4-.26s-.15.09-.19.16A2.53,2.53,0,0,0,15,10.17ZM6.73,14.82A1.91,1.91,0,0,0,7.83,13a3.42,3.42,0,0,1-.44,0c-.12,0-.18,0-.21.15l-.39,1.27A3.37,3.37,0,0,0,6.73,14.82Zm3.15-2.6c0,.11.07.26.14.28a7.71,7.71,0,0,0,.76.18l.07-.48H10Zm3.87,3.19c.43.18.32.19.54-.14a.57.57,0,0,0,.08-.13s0-.1,0-.13-.22-.28-.35-.45ZM9.68,12.2h-.8l0,.31h.76Zm4.88,3.09-.24.35.44.64A1.25,1.25,0,0,0,14.56,15.29ZM8.12,12.91l.39-.2c.21-.08.21-.22.13-.38C8.09,12.43,8.07,12.45,8.12,12.91Zm2.67.5c.06-.45,0-.53-.54-.6ZM8,13.51l.38-.46C8.06,13.15,8.06,13.15,8,13.51Z"/><path d="M5.27,4.81,7,4.4,9,3.91a.69.69,0,0,1,.35,0l3.68.88.14,0-.72.24c-1.06.35-2.11.71-3.17,1a.62.62,0,0,1-.33,0L5.27,4.85Z"/><path d="M18.21,17.05c.1-.14.17-.26.26-.37a.27.27,0,0,1,.49,0,1.16,1.16,0,0,1-.58,1.78,1.81,1.81,0,0,1-.95.07,1.22,1.22,0,0,1-1-1.05.38.38,0,0,1,0-.15c0-.18.06-.38.26-.45s.31.08.44.2a1.05,1.05,0,0,1,.08.13,4.5,4.5,0,0,1,.22-.4c.19-.31.41-.32.62,0A2.52,2.52,0,0,1,18.21,17.05Z"/><path d="M13.5,19.36c.24-.63.26-.64.72-.25,0-.1.09-.2.15-.3a.19.19,0,0,1,.33,0,.88.88,0,0,1-.11,1.36,1,1,0,0,1-1.6-.36.39.39,0,0,1-.05-.2.7.7,0,0,1,.14-.35c.05,0,.21,0,.32.07A.46.46,0,0,1,13.5,19.36Z"/><path d="M18.13,18.72l.16-.08a11.49,11.49,0,0,1,.33,4.46h-.21A14.24,14.24,0,0,0,18.13,18.72Z"/><path d="M14.56,20.29a6,6,0,0,1,.28,2.79h-.2V22.9a7.49,7.49,0,0,0-.18-2.36C14.45,20.48,14.51,20.4,14.56,20.29Z"/><path d="M5.78,21.73,6.19,23v-.76h.23v.86H6l-.4-1.28Z"/><path d="M2.18,22.23l.19-.11L2.8,23V22.5H3v.62c-.14,0-.27,0-.4,0s-.09-.06-.11-.11Z"/><path d="M16.52,23V22.5l.21,0v.63c-.14,0-.26,0-.39,0a.13.13,0,0,1-.1-.08c-.12-.26-.23-.52-.35-.8l.19-.11.41.86Z"/><path d="M6.75,23.11H6.56a2.21,2.21,0,0,1,.33-1.18c.15.07.15.15.1.29S6.83,22.8,6.75,23.11Z"/><path d="M13.43,23.12l-.19,0a1.4,1.4,0,0,1,.35-.86l.11.13Z"/><path d="M3.53,22.23l.09.13-.26.74H3.21C3.1,23,3.3,22.43,3.53,22.23Z"/><path d="M17.3,22.26a1.07,1.07,0,0,1,0,.25c-.05.2-.13.39-.2.59h-.21a1.36,1.36,0,0,1,.35-.85Z"/><path d="M13.1,23.1h-.21v-.6h.21Z"/><path d="M7.9,9a.43.43,0,1,1,.41.47A.44.44,0,0,1,7.9,9Z"/><path d="M5.61,17.17a.77.77,0,0,1,.61.34.19.19,0,0,1-.17.31.67.67,0,0,1-.58-.32.31.31,0,0,1,0-.23C5.48,17.21,5.57,17.19,5.61,17.17Z"/></g><g class="cls-3"><path d="M5,14.6a1.32,1.32,0,0,0-.1-.3,1.53,1.53,0,0,1-.3-.84,4.55,4.55,0,0,1,.51-2.29.25.25,0,0,0,0-.22,2.9,2.9,0,0,1-.5-2.45A.75.75,0,0,0,4.54,8a1.89,1.89,0,0,1,1.2-2.78,1.38,1.38,0,0,1,.87.27,1.54,1.54,0,0,0-2,1A1.64,1.64,0,0,0,5,8.2c.36-.14.44-.35.25-.68a1,1,0,0,1,.22-1.24.88.88,0,0,1,1.11-.09,1.55,1.55,0,0,1,.24.22v-1a9.65,9.65,0,0,1,1.07.32,2.05,2.05,0,0,0,1.73,0,4.56,4.56,0,0,1,.57-.17l0,0c-.12.55.33.72.64,1a.38.38,0,0,0,.16,0c.44.07.58.28.5.72a1.11,1.11,0,0,0,0,.44c.59-.8,0-1.81-1.11-2,0-.15.1-.21.28-.17A1.52,1.52,0,0,1,11.89,7.7c0,.13-.1.26-.16.41a1.17,1.17,0,0,0,.76.09,1.55,1.55,0,0,0,1.26-1,1.89,1.89,0,0,0,.11-1.67A2.78,2.78,0,0,0,11.7,3.88c-.07,0-.15,0-.23,0a1,1,0,0,1-.38-.09,1.93,1.93,0,0,1,1.9.36c0-.23.06-.44.11-.65a1.91,1.91,0,0,1,2.94-1,2.53,2.53,0,0,1,1,1.91,10.81,10.81,0,0,1,0,1.26,2.74,2.74,0,0,1,1.53,3,2.43,2.43,0,0,1-2.06,2.23l.06.42-.42-.21c-.09.23-.18.44-.28.65-.47.95-.94,1.89-1.42,2.83a.31.31,0,0,0,0,.31,3.28,3.28,0,0,1,.23.59.68.68,0,0,1-.33.83.5.5,0,0,1-.32,0c-.21,0-.44-.2-.62-.15s-.32.28-.48.43l0,0c-.18-.06-.18-.17-.12-.32.13-.37.12-.37-.23-.53l-1.34-.67c0,.45,0,.92-.07,1.38s0,1.19-.07,1.78a3.8,3.8,0,0,0,.28,1.55,7.21,7.21,0,0,1,.41,1.37c.17,1-.25,1.51-1.3,1.7A2.45,2.45,0,0,1,8.16,22a2,2,0,0,1-.38-1.83l.33-1.62c0-.06,0-.12,0-.15L6.9,18.09a.25.25,0,0,0-.14,0,1.22,1.22,0,0,1-.78.06,12.27,12.27,0,0,1-2.41-1,.35.35,0,0,0-.4,0,1.36,1.36,0,0,1-1.06.15,1.77,1.77,0,0,1-.91-3,3.76,3.76,0,0,1,1-.71A1.39,1.39,0,0,1,3,13.58a4.51,4.51,0,0,1,1.65.83l.31.22Zm2,3.29a2.48,2.48,0,0,0,3.05-.62,3.47,3.47,0,0,0,.76-1.38A3,3,0,0,0,11,15a3.58,3.58,0,0,0-1.28-2.49.39.39,0,0,0-.35-.15,3.62,3.62,0,0,1-.57,0,.35.35,0,0,0-.31.17,6,6,0,0,1-.64.78,1.47,1.47,0,0,0-.37.46,1.59,1.59,0,0,1-1.66,1,3.75,3.75,0,0,1-.55-.15c-.08.15,0,.25.12.35a5.91,5.91,0,0,1,1.55,1.89A1.46,1.46,0,0,1,7,17.89ZM5.31,10.8c.24-.27.45-.53.69-.76a.8.8,0,0,1,.35-.22,1.08,1.08,0,0,1,1.42.66A2.1,2.1,0,0,1,7.9,11.7l1.27-.11a1.42,1.42,0,0,1-.76-1.16,4.14,4.14,0,0,1,0-.93A1.3,1.3,0,0,1,9.3,8.36a1.86,1.86,0,0,1,1.88,0c.06,0,.1-.09.15-.09s.1,0,.15.05a2.6,2.6,0,0,0-1.27-1.93.56.56,0,0,1-.26.1H7.39A1.15,1.15,0,0,0,7,6.59a3.11,3.11,0,0,0-1.34,1s-.1.11-.1.17a.76.76,0,0,1-.73.75A2.76,2.76,0,0,0,5.31,10.8ZM2.67,16.5c.27.14.54.3.81.42.81.34,1.61.68,2.42,1a1.26,1.26,0,0,0,.58,0c.33,0,.45-.21.35-.52a4,4,0,0,0-.46-1A6.15,6.15,0,0,0,4.9,14.9a6.41,6.41,0,0,0-1.82-1.07,1.09,1.09,0,0,0-1,.11,6.14,6.14,0,0,0-.63.48,1.54,1.54,0,0,0-.49,1.63,1.62,1.62,0,0,0,1.29,1.11A1.05,1.05,0,0,0,3.11,17l-.56-.31ZM16.87,4.75a2.63,2.63,0,0,0-.66-1.81,1.73,1.73,0,0,0-1.89-.46,1.49,1.49,0,0,0-1.05,1.33.81.81,0,0,0,.21.78,2.24,2.24,0,0,1,.72,2c0,.06.07.16.14.19a1.58,1.58,0,0,0,1.79-.27A2.34,2.34,0,0,0,16.87,4.75Zm-5.94,11.8-.1,0c-.07.3-.36.48-.33.85a3.52,3.52,0,0,1-.14.83,3.72,3.72,0,0,0,.22,2.28,3,3,0,0,1,.21.94,8.16,8.16,0,0,1,0,1c-.22,0-.25-.05-.23-.19a3.12,3.12,0,0,0-.22-1.76,3.29,3.29,0,0,1-.26-1.8c0-.4.12-.79.19-1.21l-.09.06a2.65,2.65,0,0,1-1.66.85.25.25,0,0,0-.15.18c-.1.4-.17.81-.25,1.22A3.2,3.2,0,0,0,8,21.11a.7.7,0,0,0,.21.43,11,11,0,0,0,1.34.76,2.17,2.17,0,0,0,1.38.16.66.66,0,0,0,.55-.47,1.81,1.81,0,0,0,.08-.56,4,4,0,0,0-.41-1.52,3.53,3.53,0,0,1-.31-1.69C10.85,17.66,10.89,17.11,10.93,16.55Zm4.28-9.12c-.13.86-.26,1.69-.38,2.52a.24.24,0,0,0,.08.19,2,2,0,0,0,2.52.1,2.66,2.66,0,0,0,.21-3.87,2.32,2.32,0,0,0-.75-.51c0,.09-.08.16-.11.22a2.07,2.07,0,0,1-1.05,1c-.18.07-.37.11-.25.38Zm-4.34,4.11a19.4,19.4,0,0,0,2.45,2c.29-1.07,0-4.67-.48-5l-.07.38h0l-.16-.49h-.82a3.94,3.94,0,0,1,.07,1.71A2.23,2.23,0,0,1,10.87,11.54Zm-4.73,3a10.44,10.44,0,0,1,.63-2.13,2.79,2.79,0,0,0,.14-2.12c-.14-.35-.38-.41-.68-.17l-.11.1a4.22,4.22,0,0,0-1.28,3.29A1.08,1.08,0,0,0,6.14,14.54Zm4-3.79.18-.1.17-.09a.22.22,0,0,0,.07-.36c-.09-.13-.19-.25-.28-.37a.28.28,0,0,1,0-.17c0-.26.13-.31.4-.31a2.16,2.16,0,0,0,.36,0,.3.3,0,0,1,.37.23.29.29,0,0,1,0,.36,3.33,3.33,0,0,0-.25.28.5.5,0,0,0-.13.48l.44-.17s0,0,0-.07a2.09,2.09,0,0,0,.06-1.33,1.23,1.23,0,0,0-1-.79,2.38,2.38,0,0,0-1.25.29,1.08,1.08,0,0,0-.6.79,3.68,3.68,0,0,0-.05.81,1.24,1.24,0,0,0,.71,1.18,1.65,1.65,0,0,0,1.48-.2l-.21-.33c-.53.23-.53.23-.91-.18a.08.08,0,0,0,0,0l.2-.16Zm.62,1.09a5,5,0,0,0,0,1.59l0,.07c.12.36.24.71.35,1.06s.39.41.62.58.22-.05.33-.07a1.62,1.62,0,0,1,.19,0c.22,0,.44,0,.66,0s.21,0,.23-.18a5,5,0,0,1,.14-.77.37.37,0,0,0-.16-.42Zm3.48,2.69,1.64-3.34-.06,0-.15.12.08-.42-1-.5s0,0,0,.05c-.32,1.15-.63,2.3-.94,3.45a.22.22,0,0,0,0,.16C13.93,14.18,14.07,14.33,14.25,14.53Zm-.66-.82a.14.14,0,0,0,0-.06c.31-1.13.61-2.25.91-3.39a.31.31,0,0,0-.07-.24,2.58,2.58,0,0,1-.59-1.15c-.08-.38-.11-.76-.16-1.13l-.41.48.22.3-.33,0A13.45,13.45,0,0,1,13.59,13.71Zm1-3.88a2.71,2.71,0,0,0,.07-.32c.08-.61.16-1.23.23-1.84a.29.29,0,0,0-.05-.18c0-.06-.11-.1-.11-.16,0-.27-.26-.18-.4-.25s-.15.09-.19.16A2.53,2.53,0,0,0,14.61,9.83ZM6.39,14.48a1.91,1.91,0,0,0,1.1-1.82,3.42,3.42,0,0,1-.44,0c-.12,0-.18,0-.21.15l-.39,1.27A3.37,3.37,0,0,0,6.39,14.48Zm3.15-2.6c.05.11.07.26.14.28a7.71,7.71,0,0,0,.76.18l.07-.48H9.68Zm3.87,3.19c.43.18.32.19.54-.14A.57.57,0,0,0,14,14.8s0-.1,0-.13-.22-.28-.35-.45ZM9.34,11.86h-.8l0,.31h.76ZM14.22,15,14,15.3l.44.64A1.25,1.25,0,0,0,14.22,15ZM7.78,12.57c.14-.07.26-.15.39-.2s.21-.22.13-.38C7.75,12.09,7.73,12.11,7.78,12.57Zm2.67.5c.06-.45,0-.53-.54-.6Zm-2.75.1.38-.46C7.72,12.81,7.72,12.81,7.7,13.17Z"/><path d="M4.93,4.47l1.68-.41,2.08-.49a.69.69,0,0,1,.35,0l3.68.88.14,0-.72.24c-1.06.35-2.11.71-3.17,1a.62.62,0,0,1-.33,0L4.93,4.51Z"/><path d="M17.87,16.71c.1-.14.17-.26.26-.37a.27.27,0,0,1,.49,0A1.16,1.16,0,0,1,18,18.14a1.81,1.81,0,0,1-.95.07,1.22,1.22,0,0,1-1-1.05.38.38,0,0,1,0-.15c0-.18.06-.38.26-.45s.31.08.44.2a1.05,1.05,0,0,1,.08.13,4.5,4.5,0,0,1,.22-.4c.19-.31.41-.32.62,0A2.52,2.52,0,0,1,17.87,16.71Z"/><path d="M13.16,19c.24-.63.26-.64.72-.25,0-.1.09-.2.15-.3a.19.19,0,0,1,.33,0,.88.88,0,0,1-.11,1.36,1,1,0,0,1-1.6-.36c0-.07-.07-.14-.05-.2a.7.7,0,0,1,.14-.35s.21,0,.32.07A.46.46,0,0,1,13.16,19Z"/><path d="M17.79,18.38,18,18.3a11.49,11.49,0,0,1,.33,4.46h-.21A14.24,14.24,0,0,0,17.79,18.38Z"/><path d="M14.22,20a5.92,5.92,0,0,1,.28,2.78h-.2v-.17a7.49,7.49,0,0,0-.18-2.36C14.11,20.14,14.17,20.06,14.22,20Z"/><path d="M5.44,21.39l.41,1.27V21.9h.23v.86H5.63l-.4-1.28Z"/><path d="M1.84,21.89,2,21.78l.43.89v-.51h.23v.62c-.14,0-.27,0-.4,0a.2.2,0,0,1-.11-.11Z"/><path d="M16.18,22.63v-.47l.21,0v.63c-.14,0-.26,0-.39,0a.13.13,0,0,1-.1-.08c-.12-.26-.23-.52-.35-.8l.19-.11.41.86Z"/><path d="M6.41,22.77H6.22a2.21,2.21,0,0,1,.33-1.18c.15.07.15.15.1.29S6.49,22.46,6.41,22.77Z"/><path d="M13.09,22.78l-.19,0a1.4,1.4,0,0,1,.35-.86l.11.13Z"/><path d="M3.19,21.89l.09.13L3,22.76H2.87C2.76,22.65,3,22.09,3.19,21.89Z"/><path d="M17,21.92a1.07,1.07,0,0,1,0,.25c-.05.2-.13.38-.2.59h-.21a1.36,1.36,0,0,1,.35-.85Z"/><path d="M12.76,22.76h-.21v-.6h.21Z"/><path d="M7.56,8.7A.43.43,0,1,1,8,9.17.44.44,0,0,1,7.56,8.7Z"/><path d="M5.27,16.83a.77.77,0,0,1,.61.34.19.19,0,0,1-.17.31.67.67,0,0,1-.58-.32.27.27,0,0,1,0-.23C5.14,16.87,5.23,16.85,5.27,16.83Z"/></g><path class="cls-4" d="M5.21,14.79a1.25,1.25,0,0,0-.11-.29,1.61,1.61,0,0,1-.29-.85,4.51,4.51,0,0,1,.51-2.28c0-.06,0-.18,0-.22A2.9,2.9,0,0,1,4.84,8.7a.81.81,0,0,0-.1-.55,1.88,1.88,0,0,1,1.2-2.78,1.28,1.28,0,0,1,.86.27,1.53,1.53,0,0,0-2,1A1.62,1.62,0,0,0,5.2,8.4c.36-.14.43-.35.25-.68a1,1,0,0,1,.22-1.24.89.89,0,0,1,1.11-.1A2.49,2.49,0,0,1,7,6.61v-1a9.65,9.65,0,0,1,1.07.32,2.05,2.05,0,0,0,1.73,0,3.08,3.08,0,0,1,.57-.17l0,0c-.12.54.33.72.64,1a.38.38,0,0,0,.16,0c.44.06.58.28.5.72a1.11,1.11,0,0,0,0,.44c.59-.8,0-1.81-1.11-2,0-.16.1-.22.27-.18a1.53,1.53,0,0,1,1.18,2.1l-.16.41a1.11,1.11,0,0,0,.76.08,1.49,1.49,0,0,0,1.25-1,1.86,1.86,0,0,0,.12-1.67A2.78,2.78,0,0,0,11.9,4.08h-.23A1.24,1.24,0,0,1,11.29,4a1.94,1.94,0,0,1,1.9.36c0-.23.06-.45.11-.65a1.91,1.91,0,0,1,2.94-1,2.55,2.55,0,0,1,1,1.92,10.58,10.58,0,0,1,0,1.25,2.76,2.76,0,0,1,1.53,3,2.43,2.43,0,0,1-2.06,2.23l.06.41-.42-.2c-.09.22-.18.44-.28.65-.47.94-.94,1.89-1.42,2.83a.31.31,0,0,0,0,.31,4.24,4.24,0,0,1,.23.59.67.67,0,0,1-.33.82.44.44,0,0,1-.32,0c-.21,0-.44-.19-.62-.14s-.32.28-.48.43l0,0c-.17-.06-.17-.17-.11-.33.13-.36.12-.36-.23-.52l-1.35-.67c0,.45-.05.92-.07,1.38l-.06,1.78A3.88,3.88,0,0,0,11.52,20a7.56,7.56,0,0,1,.42,1.38c.16,1-.25,1.51-1.3,1.7a2.44,2.44,0,0,1-2.28-.85A1.93,1.93,0,0,1,8,20.4l.33-1.61a.5.5,0,0,0,0-.16L7.1,18.29a.24.24,0,0,0-.14,0,1.16,1.16,0,0,1-.78.05,11.47,11.47,0,0,1-2.41-1,.35.35,0,0,0-.4,0,1.36,1.36,0,0,1-1.06.15,1.77,1.77,0,0,1-.91-3,3.61,3.61,0,0,1,1-.71,1.22,1.22,0,0,1,.76-.05,4.51,4.51,0,0,1,1.65.83l.31.22Zm2,3.3a2.49,2.49,0,0,0,3.06-.62,3.54,3.54,0,0,0,.76-1.38,3,3,0,0,0,.1-.85,3.6,3.6,0,0,0-1.28-2.5.42.42,0,0,0-.35-.14,3.62,3.62,0,0,1-.57,0,.33.33,0,0,0-.31.17,5.38,5.38,0,0,1-.65.78,1.6,1.6,0,0,0-.36.46A1.6,1.6,0,0,1,6,15a3.44,3.44,0,0,1-.55-.15c-.08.15,0,.25.12.35a6,6,0,0,1,1.54,1.88A1.39,1.39,0,0,1,7.23,18.09ZM5.51,11c.24-.27.45-.53.69-.77A.89.89,0,0,1,6.55,10,1.09,1.09,0,0,1,8,10.68,2.18,2.18,0,0,1,8.1,11.9l1.27-.11a1.42,1.42,0,0,1-.76-1.16,4.82,4.82,0,0,1,0-.93A1.33,1.33,0,0,1,9.5,8.56a1.81,1.81,0,0,1,1.88,0c.06,0,.1-.09.15-.09s.1,0,.14,0a2.59,2.59,0,0,0-1.26-1.93.56.56,0,0,1-.26.1H7.59a1.35,1.35,0,0,0-.35.06,3.22,3.22,0,0,0-1.34,1,.36.36,0,0,0-.1.18.77.77,0,0,1-.73.75A2.77,2.77,0,0,0,5.51,11ZM2.86,16.7c.28.14.54.29.82.41.8.35,1.61.69,2.42,1a1.13,1.13,0,0,0,.58,0c.33,0,.45-.2.35-.51a4.09,4.09,0,0,0-.46-1A6.11,6.11,0,0,0,5.1,15.1,6.41,6.41,0,0,0,3.28,14a1.11,1.11,0,0,0-1,.11,7.21,7.21,0,0,0-.62.47,1.55,1.55,0,0,0-.49,1.63,1.61,1.61,0,0,0,1.29,1.12,1,1,0,0,0,.87-.17l-.56-.31ZM17.07,5a2.72,2.72,0,0,0-.66-1.82,1.74,1.74,0,0,0-1.89-.45,1.46,1.46,0,0,0-1,1.33.79.79,0,0,0,.21.78,2.24,2.24,0,0,1,.72,2c0,.06.07.16.13.19a1.61,1.61,0,0,0,1.8-.27A2.34,2.34,0,0,0,17.07,5Zm-6,11.8-.09,0c-.07.3-.36.48-.34.85a3,3,0,0,1-.13.83,3.58,3.58,0,0,0,.22,2.28,2.93,2.93,0,0,1,.21.94c0,.33,0,.67,0,1-.22,0-.25-.05-.23-.2a3.13,3.13,0,0,0-.22-1.76,3.24,3.24,0,0,1-.26-1.79c.05-.4.12-.79.18-1.22l-.08.07a2.65,2.65,0,0,1-1.66.85.25.25,0,0,0-.15.18c-.1.4-.17.81-.26,1.22a3.34,3.34,0,0,0-.13,1.33.77.77,0,0,0,.22.44,11,11,0,0,0,1.34.76,2.17,2.17,0,0,0,1.38.16.66.66,0,0,0,.55-.47,1.54,1.54,0,0,0,.07-.56,3.92,3.92,0,0,0-.41-1.53,3.61,3.61,0,0,1-.3-1.69C11.05,17.86,11.09,17.31,11.12,16.75Zm4.29-9.12c-.13.86-.26,1.69-.38,2.51a.24.24,0,0,0,.08.2,2,2,0,0,0,2.52.1,2.65,2.65,0,0,0,.2-3.87,2,2,0,0,0-.74-.51,1.45,1.45,0,0,1-.12.22,2,2,0,0,1-1,1c-.17.07-.37.1-.24.38Zm-4.34,4.1a20.33,20.33,0,0,0,2.45,2c.29-1.07,0-4.68-.48-5L13,9.11h0l-.16-.49H12A3.94,3.94,0,0,1,12,10.33,2.21,2.21,0,0,1,11.07,11.73Zm-4.73,3A10.25,10.25,0,0,1,7,12.61a2.74,2.74,0,0,0,.13-2.12c-.13-.35-.37-.41-.67-.17l-.11.1A4.22,4.22,0,0,0,5,13.71,1.08,1.08,0,0,0,6.34,14.74Zm4-3.8.18-.09.17-.09a.23.23,0,0,0,.07-.37L10.49,10a.19.19,0,0,1-.05-.17c.05-.26.13-.31.39-.31h.36c.2,0,.3,0,.38.23a.29.29,0,0,1-.05.36,2.18,2.18,0,0,0-.25.28.5.5,0,0,0-.13.48l.44-.17s0,0,0-.07a2.09,2.09,0,0,0,.05-1.33,1.21,1.21,0,0,0-1-.79,2.38,2.38,0,0,0-1.25.29,1.08,1.08,0,0,0-.6.79,3.62,3.62,0,0,0,0,.8,1.25,1.25,0,0,0,.71,1.19,1.66,1.66,0,0,0,1.48-.2l-.21-.33c-.53.23-.53.23-.91-.19v0l.2-.17ZM11,12a4.74,4.74,0,0,0-.05,1.59s0,.05,0,.08c.11.35.24.71.35,1.06s.39.41.62.58.22-.05.33-.07a1.62,1.62,0,0,1,.19,0,4.7,4.7,0,0,1,.65,0c.15,0,.22,0,.24-.18a6.51,6.51,0,0,1,.13-.77.36.36,0,0,0-.15-.42Zm3.48,2.7,1.63-3.34,0,0-.15.12.08-.42-1-.5,0,0L14,14.06a.22.22,0,0,0,0,.16C14.13,14.37,14.27,14.52,14.45,14.73Zm-.66-.82a.14.14,0,0,0,0-.06c.31-1.13.61-2.26.91-3.39a.31.31,0,0,0-.07-.24,2.58,2.58,0,0,1-.59-1.15C14,8.69,14,8.31,13.9,7.94l-.41.48.22.3-.33,0A13.63,13.63,0,0,1,13.79,13.91Zm1-3.89a2.22,2.22,0,0,0,.07-.31c.08-.61.16-1.23.23-1.84a.29.29,0,0,0,0-.18c0-.06-.11-.1-.11-.16,0-.27-.26-.18-.4-.25s-.16.08-.19.15A2.52,2.52,0,0,0,14.81,10ZM6.59,14.67a1.87,1.87,0,0,0,1.09-1.81c-.14,0-.29,0-.43,0A.17.17,0,0,0,7,13l-.39,1.28C6.62,14.43,6.61,14.55,6.59,14.67Zm3.15-2.59c0,.11.07.26.14.28a7.71,7.71,0,0,0,.76.18l.07-.49H9.88Zm3.87,3.19c.43.18.31.19.54-.14a.57.57,0,0,0,.08-.13s0-.1,0-.13l-.35-.45ZM9.54,12.06h-.8l0,.31h.77Zm4.87,3.09-.23.35.44.64A1.22,1.22,0,0,0,14.41,15.15ZM8,12.76c.13-.06.26-.14.39-.19s.21-.22.13-.39C8,12.29,7.93,12.31,8,12.76Zm2.67.5c.06-.44,0-.52-.54-.6Zm-2.75.11.38-.47C7.91,13,7.91,13,7.9,13.37Z"/><path class="cls-4" d="M5.13,4.67l1.68-.41,2.07-.49a.73.73,0,0,1,.36,0l3.67.88.15.05-.72.24L9.17,6a.53.53,0,0,1-.33,0L5.13,4.71Z"/><path class="cls-4" d="M18.07,16.9c.09-.13.17-.26.26-.37s.34-.18.48,0a1.15,1.15,0,0,1-.57,1.78,1.84,1.84,0,0,1-1,.07,1.23,1.23,0,0,1-1-1.05.38.38,0,0,1,0-.15c0-.18.06-.38.26-.45s.31.08.43.2a.92.92,0,0,1,.09.13c.09-.16.14-.29.22-.41.19-.3.41-.31.62,0Z"/><path class="cls-4" d="M13.36,19.21c.24-.62.25-.63.71-.24a2.8,2.8,0,0,1,.15-.3.2.2,0,0,1,.34,0A.88.88,0,0,1,14.45,20a1,1,0,0,1-1.6-.37.3.3,0,0,1,0-.2.7.7,0,0,1,.14-.34c.05,0,.21,0,.32.07Z"/><path class="cls-4" d="M18,18.58l.17-.08A11.49,11.49,0,0,1,18.48,23h-.21A13.94,13.94,0,0,0,18,18.58Z"/><path class="cls-4" d="M14.42,20.15a5.92,5.92,0,0,1,.28,2.78h-.2v-.17a7.58,7.58,0,0,0-.18-2.37C14.3,20.34,14.37,20.25,14.42,20.15Z"/><path class="cls-4" d="M5.64,21.59l.41,1.27V22.1h.23V23H5.83l-.4-1.28Z"/><path class="cls-4" d="M2,22.08l.2-.1.43.89v-.51l.22,0V23c-.13,0-.27,0-.39,0a.2.2,0,0,1-.11-.11C2.26,22.61,2.16,22.36,2,22.08Z"/><path class="cls-4" d="M16.38,22.83v-.47l.2,0V23c-.13,0-.25,0-.38,0a.12.12,0,0,1-.1-.08l-.36-.8.2-.11.41.86Z"/><path class="cls-4" d="M6.61,23H6.42a2.3,2.3,0,0,1,.32-1.18c.16.07.16.15.11.29S6.69,22.66,6.61,23Z"/><path class="cls-4" d="M13.29,23l-.19,0a1.34,1.34,0,0,1,.35-.86l.11.13Z"/><path class="cls-4" d="M3.38,22.09l.1.13L3.22,23H3.07C3,22.85,3.16,22.29,3.38,22.09Z"/><path class="cls-4" d="M17.16,22.12a1.07,1.07,0,0,1,0,.25c-.06.2-.13.38-.2.59h-.21a1.41,1.41,0,0,1,.35-.86Z"/><path class="cls-4" d="M13,23h-.21v-.6l.21,0Z"/><path class="cls-4" d="M7.75,8.9a.46.46,0,0,1,.46-.46.47.47,0,0,1,0,.93A.47.47,0,0,1,7.75,8.9Z"/><path class="cls-4" d="M5.47,17a.78.78,0,0,1,.61.35.19.19,0,0,1-.17.31.69.69,0,0,1-.58-.32.27.27,0,0,1,0-.23C5.34,17.07,5.43,17.05,5.47,17Z"/></g></g></svg>