<svg xmlns="http://www.w3.org/2000/svg" viewBox="0 0 38.55 24.66"><defs><style>.cls-1{isolation:isolate;}.cls-2{opacity:0.15;}.cls-2,.cls-3{mix-blend-mode:multiply;}.cls-4{fill:#fff;}</style></defs><title>convert-CUSTOMIZE-SVG-03</title><g class="cls-1"><g id="Layer_1" data-name="Layer 1"><g class="cls-2"><path d="M3.82,5c0-.29,0-.53,0-.77s-.37-.43-.54-.42l-1.58.12H1.3c0-.35,0-.7,0-1.05,0,0,.06-.1.1-.15.46-.46.92-.92,1.39-1.37A.27.27,0,0,1,3,1.23c.34,0,.69,0,1,0,0,.64-.08,1.28-.13,1.92a.64.64,0,0,0,.52.59h.65V3.33c0-.15,0-.31,0-.46a.35.35,0,0,1,.33-.31.33.33,0,0,1,.29.34V4.37H4.47V5.54l-.2,0L3,5.58c-.22,0-.4-.12-.4-.29S2.81,5,3,5,3.56,5,3.82,5Z"/><path d="M32.83,4.39c0-.52,0-1,0-1.48a.33.33,0,0,1,.29-.35.34.34,0,0,1,.32.35c0,.27,0,.55,0,.83.27,0,.51,0,.74,0s.45-.4.44-.6c0-.63-.09-1.27-.14-1.92h1a.34.34,0,0,1,.19.11L37.1,2.71a.37.37,0,0,1,.11.2c0,.33,0,.66,0,1l-.48,0-1.5-.11a.63.63,0,0,0-.54.51c0,.21,0,.42,0,.68.27,0,.53,0,.79,0s.4.14.4.31a.36.36,0,0,1-.4.3H34.07V4.39Z"/><path d="M34.5,23.43c0-.66.09-1.31.14-1.95a.71.71,0,0,0-.47-.57h-.71v.75a.54.54,0,0,1,0,.22c-.06.14-.17.27-.32.21s-.25-.19-.25-.29c0-.5,0-1,0-1.51h1.21V19.07c.53,0,1,0,1.54,0a.28.28,0,0,1,.28.29.32.32,0,0,1-.32.3H34.7c0,.28,0,.53,0,.77a.75.75,0,0,0,.56.41l1.56-.11c.13,0,.26,0,.4,0,0,.34,0,.67,0,1,0,.06-.06.12-.1.17l-1.4,1.39a.32.32,0,0,1-.2.1Z"/><path d="M4.46,19.07v1.2H5.68c0,.52,0,1,0,1.52a.29.29,0,0,1-.29.3.34.34,0,0,1-.32-.34c0-.27,0-.54,0-.84a6.34,6.34,0,0,0-.76,0c-.19,0-.44.4-.42.6.05.63.09,1.26.13,1.9H3c-.06,0-.12-.07-.17-.11-.46-.46-.92-.9-1.37-1.36a.49.49,0,0,1-.12-.3c0-.3,0-.6,0-.92l1.1.07c.3,0,.59.05.89.06a.65.65,0,0,0,.54-.51v-.64l-.22,0-.73-.06a.26.26,0,0,1-.18-.4.35.35,0,0,1,.23-.15C3.43,19.06,3.93,19.07,4.46,19.07Z"/><path d="M4,5.17c0-.28,0-.52,0-.76S3.64,4,3.47,4l-1.59.12H1.5c0-.35,0-.7,0-1.05,0-.05.06-.11.1-.15L3,1.54a.32.32,0,0,1,.18-.11c.34,0,.68,0,1,0,0,.64-.09,1.28-.14,1.91a.65.65,0,0,0,.52.6c.21,0,.41,0,.66,0,0-.14,0-.27,0-.41a3.69,3.69,0,0,1,0-.47.34.34,0,0,1,.33-.3.33.33,0,0,1,.29.33V4.57H4.66V5.74l-.2,0-1.22,0c-.22,0-.4-.12-.4-.29s.17-.31.4-.32Z"/><path d="M33,4.59V3.11a.34.34,0,0,1,.3-.35.34.34,0,0,1,.32.35c0,.27,0,.54,0,.83.27,0,.51,0,.74,0s.45-.4.44-.6c-.05-.64-.1-1.27-.14-1.92h1a.37.37,0,0,1,.2.11L37.3,2.91a.34.34,0,0,1,.11.19c0,.33,0,.66,0,1l-.47,0L35.44,4a.65.65,0,0,0-.55.51v.67h.78c.23,0,.41.15.4.32s-.17.29-.4.29H34.26V4.59Z"/><path d="M34.7,23.63c0-.66.09-1.31.14-2a.71.71,0,0,0-.47-.56h-.71v.75a.57.57,0,0,1,0,.22c-.06.14-.17.27-.32.21s-.25-.19-.25-.29c0-.5,0-1,0-1.51h1.22V19.27c.53,0,1,0,1.54,0a.28.28,0,0,1,.28.29.32.32,0,0,1-.33.3H34.9c0,.29,0,.54,0,.78s.39.42.55.41L37,21h.39c0,.34,0,.68,0,1,0,.06-.06.12-.1.17l-1.4,1.39a.32.32,0,0,1-.2.1Z"/><path d="M4.65,19.27v1.2H5.88c0,.52,0,1,0,1.52a.29.29,0,0,1-.29.3A.34.34,0,0,1,5.26,22c0-.27,0-.55,0-.84-.27,0-.52,0-.76,0s-.44.41-.42.61c0,.63.09,1.26.13,1.9h-1A.38.38,0,0,1,3,23.5c-.46-.45-.92-.9-1.37-1.36a.45.45,0,0,1-.12-.29c0-.3,0-.6,0-.93l1.1.08.89.06A.65.65,0,0,0,4,20.55v-.64l-.22,0-.73-.06a.26.26,0,0,1-.19-.4.39.39,0,0,1,.24-.15C3.63,19.26,4.13,19.27,4.65,19.27Z"/></g><g class="cls-3"><path d="M3.68,4.83c0-.28,0-.52,0-.76s-.37-.43-.54-.42l-1.59.11H1.16c0-.35,0-.7,0-1,0-.05.06-.11.1-.15L2.65,1.2a.32.32,0,0,1,.18-.11c.34,0,.68,0,1,0,0,.64-.09,1.28-.14,1.91a.65.65,0,0,0,.52.6h.66c0-.14,0-.27,0-.41a3.69,3.69,0,0,1,0-.47.34.34,0,0,1,.33-.3.33.33,0,0,1,.29.33V4.23H4.32V5.4l-.2,0-1.22,0c-.22,0-.4-.12-.4-.29s.17-.31.4-.32Z"/><path d="M32.69,4.25V2.77a.33.33,0,0,1,.3-.35.34.34,0,0,1,.32.35c0,.27,0,.54,0,.83h.74c.19,0,.45-.4.44-.6,0-.64-.1-1.27-.14-1.92h1a.37.37,0,0,1,.2.11L37,2.57a.34.34,0,0,1,.11.19c0,.33,0,.66,0,1l-.47,0-1.5-.11a.65.65,0,0,0-.55.51v.67h.78c.23,0,.41.15.4.32s-.18.29-.4.29H33.92V4.25Z"/><path d="M34.36,23.29c0-.66.09-1.31.14-2a.71.71,0,0,0-.47-.56h-.71v.75a.57.57,0,0,1,0,.22c-.06.14-.17.27-.32.21s-.25-.19-.25-.29c0-.5,0-1,0-1.51h1.22V18.93c.53,0,1,0,1.54,0a.28.28,0,0,1,.28.29.32.32,0,0,1-.33.3h-.84c0,.29,0,.54,0,.78s.39.42.55.41l1.57-.11h.39c0,.34,0,.68,0,1,0,.06-.06.12-.1.17l-1.4,1.39a.32.32,0,0,1-.2.1Z"/><path d="M4.31,18.93v1.2H5.54c0,.52,0,1,0,1.52a.29.29,0,0,1-.29.3.34.34,0,0,1-.32-.34c0-.27,0-.55,0-.84-.27,0-.52,0-.76,0s-.44.41-.42.61c0,.63.09,1.26.13,1.9H2.82a.33.33,0,0,1-.17-.12c-.46-.45-.92-.9-1.37-1.36a.45.45,0,0,1-.12-.29c0-.3,0-.6,0-.93l1.1.08.89.06a.65.65,0,0,0,.54-.51v-.64l-.22,0-.73-.06a.26.26,0,0,1-.19-.4.39.39,0,0,1,.24-.15C3.29,18.92,3.79,18.93,4.31,18.93Z"/></g><path class="cls-4" d="M3.87,5c0-.29,0-.52,0-.76s-.37-.43-.55-.42L1.74,4c-.12,0-.25,0-.38,0,0-.34,0-.69,0-1,0,0,.07-.11.11-.15L2.85,1.4A.32.32,0,0,1,3,1.29h1C4,1.93,4,2.56,3.93,3.2a.64.64,0,0,0,.52.6c.21,0,.41,0,.65,0,0-.14,0-.28,0-.41a3.69,3.69,0,0,1,0-.47.33.33,0,0,1,.33-.3A.34.34,0,0,1,5.74,3V4.43H4.52V5.6l-.2,0-1.23,0c-.22,0-.39-.12-.4-.29S2.87,5,3.1,5Z"/><path class="cls-4" d="M32.89,4.44V3a.33.33,0,0,1,.29-.35.34.34,0,0,1,.33.35c0,.27,0,.54,0,.83.28,0,.51,0,.75,0s.45-.4.44-.59c-.05-.64-.1-1.28-.14-1.92h1a.37.37,0,0,1,.2.11l1.38,1.37a.34.34,0,0,1,.11.19c0,.33,0,.66,0,1L36.8,4l-1.5-.11a.64.64,0,0,0-.55.5V5h.78c.23,0,.41.15.4.32s-.18.29-.4.29H34.12V4.44Z"/><path class="cls-4" d="M34.56,23.48c0-.65.09-1.3.14-1.95a.71.71,0,0,0-.47-.56h-.71v.74a.85.85,0,0,1,0,.23c-.06.14-.17.27-.32.2a.45.45,0,0,1-.26-.28c0-.5,0-1,0-1.51h1.22V19.13h1.54a.3.3,0,0,1,.28.3.33.33,0,0,1-.33.3h-.84c0,.29,0,.54,0,.78s.38.42.55.41l1.56-.12c.14,0,.27,0,.4,0,0,.34,0,.68,0,1,0,.05-.06.12-.11.17-.46.46-.92.93-1.39,1.39a.32.32,0,0,1-.2.1Z"/><path class="cls-4" d="M4.51,19.13v1.2H5.74c0,.52,0,1,0,1.52a.28.28,0,0,1-.3.29.32.32,0,0,1-.31-.33c0-.27,0-.55,0-.84-.27,0-.51,0-.75,0s-.44.41-.42.6c0,.64.09,1.27.13,1.91H3a.44.44,0,0,1-.17-.12c-.45-.45-.91-.9-1.36-1.36a.51.51,0,0,1-.13-.29c0-.3,0-.6,0-.93l1.1.07.88.07a.65.65,0,0,0,.55-.52v-.63l-.22,0-.73-.06a.26.26,0,0,1-.19-.4A.39.39,0,0,1,3,19.14C3.48,19.12,4,19.13,4.51,19.13Z"/></g></g></svg>