<svg xmlns="http://www.w3.org/2000/svg" viewBox="0 0 38.55 24.66"><defs><style>.cls-1{isolation:isolate;}.cls-2{opacity:0.15;}.cls-2,.cls-3{mix-blend-mode:multiply;}.cls-4{fill:#fff;}</style></defs><title>convert-CUSTOMIZE-SVG-03</title><g class="cls-1"><g id="Layer_1" data-name="Layer 1"><g class="cls-2"><path d="M37.25,17.7v4.41a1.61,1.61,0,0,1-1.76,1.76H3a1.74,1.74,0,0,1-1.17-.42,1.49,1.49,0,0,1-.53-1.21V17.7Zm-27.92.23.1.1,6.15,5.57s.09.09.14.09h.94L16,23.13l-5.6-5.08a.5.5,0,0,0-.21-.12Zm2,5.77-.11-.12L5.07,18a.42.42,0,0,0-.14-.09H4l.06.08,6.18,5.6a.3.3,0,0,0,.17.08ZM30,23.7l-.11-.13L23.76,18c-.05,0-.11-.1-.16-.1h-.91c0,.05.06.08.08.09q3.07,2.81,6.17,5.59a.3.3,0,0,0,.18.08ZM14.72,17.93l0,.05.07.05c2,1.81,4,3.6,6,5.43.39.36.8.18,1.2.22a.19.19,0,0,0-.05-.09L15.74,18a.26.26,0,0,0-.16-.09ZM27.34,23.7,27,23.34c-1.9-1.72-3.8-3.42-5.67-5.16-.4-.37-.81-.2-1.26-.26,0,0,0,.06,0,.06l6.21,5.64a.53.53,0,0,0,.17.08Zm8,0-.2-.19c-2-1.77-3.92-3.53-5.86-5.33-.4-.37-.8-.19-1.25-.26l0,.06,6.21,5.64a.3.3,0,0,0,.15.07ZM6.67,17.93l.08.09,6.18,5.6a.23.23,0,0,0,.15.07H14l-.09-.11L7.73,18s-.09-.09-.14-.09Zm5.34,0a.45.45,0,0,0,.1.1l6.15,5.58a.25.25,0,0,0,.16.08h.89l-.09-.11L13.07,18s-.09-.09-.14-.09Zm13.36,0,.05.08,6.18,5.6s.1.08.14.08h.92a.58.58,0,0,0-.1-.11L26.41,18a.28.28,0,0,0-.18-.09Zm-.7,5.77-.39-.36c-1.89-1.72-3.8-3.42-5.67-5.16-.4-.37-.81-.2-1.26-.26l.06.08,6.19,5.61a.4.4,0,0,0,.17.09ZM1.53,17.93,1.48,18a1.21,1.21,0,0,0,.17.25l5.91,5.36c.05,0,.11.1.16.1h.91l-.09-.11L2.39,18a.32.32,0,0,0-.17-.09Zm35.08,5.38a2,2,0,0,0,.2-.24c.2-.28.2-.28-.05-.51-1.61-1.46-3.23-2.91-4.82-4.39-.4-.37-.8-.18-1.2-.25l0,0ZM1.51,19.64c0,.28,0,.5,0,.71a.49.49,0,0,0,.14.3c1.07,1,2.16,2,3.24,3,0,0,.09.09.14.09H6Zm31.83-1.71,3.71,3.36c0-.28,0-.5,0-.72a.45.45,0,0,0-.12-.28L34.43,18a.34.34,0,0,0-.18-.09ZM3.29,23.67l-1.7-1.53s0,0-.05,0A1.43,1.43,0,0,0,3.29,23.67Zm33.76-4.8c0-.31,0-.56,0-.8a.2.2,0,0,0-.11-.14H36Z"/><path d="M1.32,6.87c0-1.54,0-3.06,0-4.57A1.57,1.57,0,0,1,2.86.78H35.51a2.06,2.06,0,0,1,.7.12,1.49,1.49,0,0,1,1,1.49V6.87Zm15.21-.19s-.05-.07-.07-.08L10.35,1.05A.43.43,0,0,0,10.19,1h-.9c.06.06.08.1.11.12l6.07,5.5a.31.31,0,0,0,.2.09Zm-5.32,0-.31-.29C9,4.66,7.08,3,5.19,1.2,4.8.84,4.4,1,4,1L4,1l6.13,5.55a.3.3,0,0,0,.17.08ZM22.64,1l.12.14,6,5.48s.09.09.14.09h.92l-.06-.07L23.69,1.05A.32.32,0,0,0,23.53,1ZM21.9,6.68l-.13-.11L15.69,1.05A.43.43,0,0,0,15.53,1h-.9a.58.58,0,0,0,.1.11l6.08,5.52s.1.08.14.08Zm-8,0-.14-.14C11.77,4.76,9.79,3,7.85,1.19,7.46.83,7.06,1,6.63,1c0,.06,0,.08,0,.09l6.13,5.55a.27.27,0,0,0,.18.08Zm13.34,0c-.05,0-.05-.07-.06-.07L21,1.06A.33.33,0,0,0,20.87,1H20l.11.12,6.07,5.51a.25.25,0,0,0,.16.08ZM28,1a.64.64,0,0,0,.12.12l6.06,5.5s.09.09.14.09h.92l-.07-.08L29,1.05a.37.37,0,0,0-.2-.09C28.56,1,28.29,1,28,1ZM12,1a.58.58,0,0,0,.1.11l6.09,5.52a.23.23,0,0,0,.14.08h.91c0-.06-.06-.08-.08-.09L13,1.05A.56.56,0,0,0,12.81,1C12.55,1,12.28,1,12,1ZM24.55,6.68a3.21,3.21,0,0,0-.29-.27c-1.9-1.73-3.82-3.44-5.7-5.19C18.16.85,17.75,1,17.3,1l.07.09L23.49,6.6a.33.33,0,0,0,.16.07Zm8,0c0-.06-.06-.08-.08-.09l-6.1-5.53A.33.33,0,0,0,26.21,1h-.9l.12.13,6.06,5.49a.26.26,0,0,0,.16.09Zm-24.08,0,0,0-.11-.09c-1.9-1.72-3.8-3.45-5.7-5.16-.36-.34-.42-.33-.78,0l-.07.09a.6.6,0,0,0,.08.08l5.55,5a.27.27,0,0,0,.16.08Zm28.58,0c0-.22,0-.39,0-.55a.5.5,0,0,0-.19-.45c-1.66-1.49-3.32-3-4.95-4.5C31.51.85,31.1,1,30.68,1c.36.36.72.69,1.09,1l5,4.56A1.57,1.57,0,0,0,37.05,6.72Zm-31.18,0L1.51,2.73c0,.25,0,.45,0,.64a.47.47,0,0,0,.19.42L4.78,6.57s.11.1.17.1ZM37.05,4.37c0-.27,0-.47,0-.67a.42.42,0,0,0-.16-.37L34.4,1.08S34.29,1,34.23,1h-.94ZM3.2,6.68,1.54,5.17A1.07,1.07,0,0,0,2,6.45a1.37,1.37,0,0,1,.18.16.28.28,0,0,0,.15.06ZM36.12,1.11l.77.69A1.06,1.06,0,0,0,36.12,1.11Z"/><path d="M37.45,17.9v4.41a1.61,1.61,0,0,1-1.76,1.76H3.22a1.73,1.73,0,0,1-1.17-.41,1.43,1.43,0,0,1-.53-1.21V17.9Zm-27.92.22.1.11,6.15,5.57s.09.09.13.09h.95l-.62-.56-5.6-5.08a.4.4,0,0,0-.22-.12Zm2,5.78-.11-.12L5.27,18.22s-.1-.09-.14-.09H4.21l.06.08,6.18,5.6a.3.3,0,0,0,.17.08Zm18.68,0-.12-.13L24,18.23c-.05,0-.11-.1-.16-.1h-.91l.08.09,6.17,5.59a.27.27,0,0,0,.18.08ZM14.92,18.13l0,.05a.18.18,0,0,1,.07.05c2,1.8,4,3.6,6,5.43.39.36.79.18,1.2.22a.15.15,0,0,0-.05-.09l-6.15-5.57a.33.33,0,0,0-.16-.09ZM27.54,23.9l-.39-.36c-1.9-1.72-3.8-3.42-5.67-5.16-.41-.37-.81-.2-1.26-.26l0,.06,6.21,5.63a.3.3,0,0,0,.17.08Zm8,0-.2-.19c-2-1.78-3.92-3.54-5.86-5.33-.4-.38-.81-.2-1.25-.26,0,.05,0,.06,0,.06l6.21,5.63a.25.25,0,0,0,.14.08ZM6.87,18.13l.08.09,6.18,5.6a.31.31,0,0,0,.14.07h.9l-.09-.11L7.93,18.22s-.09-.09-.14-.09Zm5.34,0a.45.45,0,0,0,.1.1l6.15,5.58a.25.25,0,0,0,.16.08h.89a.58.58,0,0,0-.1-.11l-6.14-5.58s-.1-.08-.14-.08Zm13.36,0,.05.09,6.18,5.6s.1.08.14.08h.92l-.1-.11-6.15-5.58a.33.33,0,0,0-.18-.08Zm-.7,5.78-.39-.36c-1.9-1.72-3.8-3.42-5.67-5.16-.4-.37-.81-.2-1.26-.26l.06.08,6.19,5.61a.3.3,0,0,0,.17.08ZM1.73,18.12l-.05.06a2.2,2.2,0,0,0,.17.25l5.91,5.36s.1.1.16.1h.91a.58.58,0,0,0-.1-.11L2.58,18.21a.25.25,0,0,0-.16-.08Zm35.08,5.39a2,2,0,0,0,.2-.24c.2-.28.2-.29,0-.52-1.61-1.46-3.23-2.9-4.82-4.38-.4-.37-.8-.18-1.2-.25l0,.05ZM1.71,19.84c0,.28,0,.5,0,.71a.54.54,0,0,0,.13.3L5.1,23.8s.09.09.13.09h.95Zm31.83-1.72,3.71,3.37c0-.28,0-.5,0-.72a.45.45,0,0,0-.12-.28l-2.49-2.27a.34.34,0,0,0-.18-.09Zm-30,5.75-1.7-1.54-.05,0A1.43,1.43,0,0,0,3.49,23.87Zm33.76-4.81c0-.3,0-.55,0-.79,0-.05-.07-.14-.11-.14h-.92Z"/><path d="M1.52,7.07c0-1.54,0-3.06,0-4.57A1.55,1.55,0,0,1,3.05,1H35.71a2.1,2.1,0,0,1,.7.12,1.49,1.49,0,0,1,1,1.48V7.07Zm15.2-.19-.06-.09L10.55,1.25a.32.32,0,0,0-.17-.09c-.28,0-.57,0-.89,0l.11.12,6.07,5.5a.31.31,0,0,0,.2.09Zm-5.32,0-.31-.28C9.19,4.86,7.28,3.15,5.39,1.4,5,1,4.59,1.22,4.15,1.15l.06.08,6.13,5.56a.27.27,0,0,0,.16.08ZM22.83,1.16,23,1.3,29,6.78s.09.09.14.09h.92A.26.26,0,0,1,30,6.79L23.89,1.25a.26.26,0,0,0-.16-.09C23.45,1.15,23.16,1.16,22.83,1.16ZM22.1,6.87,22,6.77,15.88,1.25a.26.26,0,0,0-.16-.09c-.28,0-.57,0-.89,0l.09.11L21,6.79s.09.08.14.08Zm-8,0a1.78,1.78,0,0,0-.14-.14C12,5,10,3.19,8,1.39c-.38-.36-.78-.17-1.21-.24,0,.06,0,.08,0,.08L13,6.79a.33.33,0,0,0,.18.08Zm13.34,0c-.05,0-.05-.06-.07-.07L21.23,1.26a.35.35,0,0,0-.16-.1c-.29,0-.58,0-.9,0l.1.12,6.08,5.5a.26.26,0,0,0,.16.09Zm.76-5.71.12.12,6.06,5.5s.09.09.14.09h.92l-.07-.08L29.23,1.25A.36.36,0,0,0,29,1.16C28.76,1.15,28.49,1.16,28.17,1.16Zm-16,0a.58.58,0,0,0,.1.11l6.08,5.52a.31.31,0,0,0,.15.08h.91s-.06-.07-.08-.08L13.21,1.25a.31.31,0,0,0-.2-.09C12.74,1.15,12.48,1.16,12.16,1.16ZM24.75,6.87l-.29-.26c-1.9-1.73-3.82-3.44-5.7-5.19-.4-.37-.81-.22-1.26-.26l.07.09,6.12,5.54a.27.27,0,0,0,.16.08Zm8,0-.08-.08-6.1-5.53a.47.47,0,0,0-.16-.1c-.29,0-.57,0-.9,0l.12.13,6.06,5.49a.26.26,0,0,0,.16.09Zm-24.08,0,0,0-.11-.1L2.89,1.57c-.36-.33-.42-.33-.78,0L2,1.68a.6.6,0,0,0,.08.08l5.55,5a.27.27,0,0,0,.16.08Zm28.58,0a5,5,0,0,1,0-.55.48.48,0,0,0-.2-.45c-1.65-1.49-3.32-3-4.94-4.5-.4-.37-.81-.22-1.23-.24.36.36.72.69,1.09,1l5,4.56A1.57,1.57,0,0,0,37.25,6.92Zm-31.18,0L1.71,2.92c0,.26,0,.45,0,.65A.42.42,0,0,0,1.9,4L5,6.77a.36.36,0,0,0,.18.1Zm31.18-2.3c0-.27,0-.47,0-.67a.42.42,0,0,0-.16-.37c-.83-.74-1.66-1.5-2.49-2.25-.05-.05-.11-.11-.17-.11-.29,0-.59,0-.94,0ZM3.4,6.87,1.74,5.37c-.1.54-.07,1,.43,1.28.07,0,.12.11.18.15a.21.21,0,0,0,.14.07ZM36.32,1.31l.77.69A1.07,1.07,0,0,0,36.32,1.31Z"/></g><g class="cls-3"><path d="M37.11,17.56V22a1.61,1.61,0,0,1-1.76,1.76H2.88a1.73,1.73,0,0,1-1.17-.41,1.43,1.43,0,0,1-.53-1.21V17.56Zm-27.92.22.1.11,6.15,5.57s.09.09.13.09h.95L15.9,23l-5.6-5.08a.4.4,0,0,0-.22-.12Zm2,5.78-.11-.12L4.93,17.88s-.1-.09-.14-.09H3.87l.06.08,6.18,5.6a.3.3,0,0,0,.16.08Zm18.68,0-.12-.13-6.11-5.54a.28.28,0,0,0-.16-.1h-.91l.08.09,6.17,5.59a.27.27,0,0,0,.18.08ZM14.58,17.79l0,.05a.18.18,0,0,1,.07.05c2,1.8,4,3.6,6,5.43.39.36.79.18,1.2.22a.15.15,0,0,0-.05-.09L15.6,17.88a.33.33,0,0,0-.16-.09ZM27.2,23.56l-.39-.36c-1.9-1.72-3.8-3.42-5.67-5.16-.41-.37-.81-.2-1.26-.26l0,.06,6.21,5.63a.3.3,0,0,0,.16.08Zm8,0-.2-.19c-2-1.78-3.92-3.54-5.86-5.33-.4-.38-.81-.2-1.25-.26,0,0,0,.06,0,.06l6.21,5.63a.25.25,0,0,0,.14.08ZM6.53,17.79l.08.09,6.18,5.6a.27.27,0,0,0,.14.07h.9l-.09-.11L7.59,17.88s-.09-.09-.14-.09Zm5.34,0a.45.45,0,0,0,.1.1l6.15,5.58a.25.25,0,0,0,.16.08h.89a.58.58,0,0,0-.1-.11l-6.14-5.58s-.1-.08-.14-.08Zm13.36,0,.05.09,6.18,5.6s.09.08.14.08h.92l-.1-.11-6.15-5.58a.33.33,0,0,0-.18-.08Zm-.7,5.78-.39-.36c-1.9-1.72-3.8-3.42-5.67-5.16-.4-.37-.81-.2-1.26-.26l.06.08,6.19,5.61a.3.3,0,0,0,.17.08ZM1.39,17.78l0,.06a2.2,2.2,0,0,0,.17.25l5.91,5.36s.1.1.16.1h.91a.58.58,0,0,0-.1-.11L2.24,17.87a.25.25,0,0,0-.16-.08Zm35.08,5.39a2,2,0,0,0,.2-.24c.2-.28.2-.29-.05-.52C35,21,33.39,19.51,31.8,18c-.4-.37-.8-.18-1.2-.25l0,0ZM1.37,19.5c0,.28,0,.5,0,.71a.54.54,0,0,0,.13.3l3.25,2.95s.09.09.13.09h1ZM33.2,17.78l3.71,3.37c0-.28,0-.5,0-.72a.45.45,0,0,0-.12-.28c-.83-.76-1.66-1.52-2.5-2.27a.28.28,0,0,0-.17-.09ZM3.15,23.53,1.45,22,1.4,22A1.43,1.43,0,0,0,3.15,23.53Zm33.76-4.81c0-.3,0-.55,0-.79,0-.05-.07-.14-.11-.14h-.92Z"/><path d="M1.18,6.73c0-1.54,0-3.06,0-4.57A1.57,1.57,0,0,1,2.71.64H35.37a2.1,2.1,0,0,1,.7.12,1.49,1.49,0,0,1,1,1.48V6.73Zm15.2-.2-.06-.08L10.21.91A.32.32,0,0,0,10,.82H9.15l.11.12,6.07,5.5a.31.31,0,0,0,.2.09Zm-5.32,0-.31-.28c-1.9-1.73-3.81-3.44-5.7-5.19C4.66.7,4.25.88,3.81.81l.06.08L10,6.45a.27.27,0,0,0,.16.08ZM22.49.82l.13.13,6.05,5.49s.09.09.14.09h.92a.26.26,0,0,1-.06-.08L23.55.91a.26.26,0,0,0-.16-.09Zm-.73,5.71-.13-.1L15.54.91a.26.26,0,0,0-.16-.09h-.89l.09.11,6.09,5.52s.09.08.14.08Zm-8,0-.14-.13c-2-1.78-3.94-3.55-5.89-5.35C7.32.69,6.92.88,6.49.81c0,.06,0,.08,0,.08l6.13,5.56a.33.33,0,0,0,.18.08Zm13.34,0L27,6.46,20.89.92a.35.35,0,0,0-.16-.1h-.9l.1.12L26,6.44a.26.26,0,0,0,.16.09ZM27.83.82,28,.94,34,6.44s.09.09.14.09h.92L35,6.45,28.89.91a.36.36,0,0,0-.21-.09Zm-16,0a.58.58,0,0,0,.1.11L18,6.45s.1.08.14.08h.92L19,6.44,12.87.91a.31.31,0,0,0-.2-.09ZM24.41,6.53l-.29-.26c-1.9-1.73-3.82-3.44-5.7-5.19C18,.71,17.61.86,17.16.82l.07.09,6.12,5.54a.27.27,0,0,0,.16.08Zm8,0s-.06-.07-.08-.08L26.23.92a.47.47,0,0,0-.16-.1h-.9l.12.13,6.06,5.49a.26.26,0,0,0,.16.09Zm-24.08,0,0,0-.11-.1L2.55,1.23c-.36-.33-.42-.33-.78,0l-.07.09.08.08,5.55,5a.27.27,0,0,0,.16.08Zm28.58,0a5,5,0,0,1,0-.55.48.48,0,0,0-.2-.45c-1.65-1.49-3.32-3-4.94-4.5C31.37.71,31,.86,30.54.84c.36.36.72.69,1.09,1l5,4.56A1.57,1.57,0,0,0,36.91,6.58Zm-31.18,0L1.37,2.58c0,.26,0,.45,0,.65a.42.42,0,0,0,.19.41L4.63,6.43a.36.36,0,0,0,.18.1Zm31.18-2.3c0-.27,0-.47,0-.67a.42.42,0,0,0-.16-.37L34.26.94s-.11-.11-.17-.11c-.29,0-.59,0-.94,0ZM3.06,6.53,1.4,5c-.1.54-.07,1,.43,1.28.07,0,.11.11.18.15a.21.21,0,0,0,.14.07ZM36,1l.77.69A1.07,1.07,0,0,0,36,1Z"/></g><path class="cls-4" d="M37.31,17.76v4.41a1.61,1.61,0,0,1-1.76,1.76H3.08a1.71,1.71,0,0,1-1.17-.41,1.47,1.47,0,0,1-.54-1.21c0-1.36,0-2.71,0-4.07v-.48ZM9.39,18a.84.84,0,0,0,.1.1l6.15,5.58s.09.09.13.09c.3,0,.6,0,.95,0l-.63-.56q-2.79-2.55-5.6-5.08a.35.35,0,0,0-.21-.12C10,18,9.72,18,9.39,18Zm2,5.78-.11-.12L5.12,18.08S5,18,5,18H4.06c0,.05.05.07.07.08l6.18,5.6a.3.3,0,0,0,.16.08Zm18.68,0-.12-.13-6.12-5.55a.27.27,0,0,0-.15-.09h-.92l.09.09L29,23.67a.33.33,0,0,0,.19.08ZM14.78,18l0,.06.07.05c2,1.8,4,3.6,6,5.42.39.37.79.18,1.2.23a.24.24,0,0,0-.05-.09L15.8,18.08a.33.33,0,0,0-.16-.09ZM27.4,23.76,27,23.4c-1.89-1.72-3.79-3.42-5.67-5.16-.4-.38-.81-.2-1.25-.27,0,.06,0,.07,0,.07l6.21,5.63a.27.27,0,0,0,.16.08Zm8,0-.2-.18c-2-1.78-3.92-3.54-5.86-5.33-.4-.38-.81-.2-1.25-.27,0,.06,0,.07,0,.07l6.21,5.63a.23.23,0,0,0,.14.08C34.77,23.76,35.06,23.75,35.4,23.75ZM6.73,18l.08.09L13,23.68a.27.27,0,0,0,.14.07c.29,0,.57,0,.9,0l-.1-.1L7.79,18.07S7.69,18,7.65,18Zm5.33,0,.11.1,6.14,5.57a.33.33,0,0,0,.16.09h.9a.58.58,0,0,0-.1-.11l-6.15-5.58S13,18,13,18Zm13.36,0,.06.08,6.18,5.6s.09.09.14.09c.29,0,.58,0,.91,0l-.09-.1-6.15-5.58a.33.33,0,0,0-.19-.08Zm-.69,5.78-.39-.36c-1.9-1.72-3.8-3.42-5.67-5.16-.4-.37-.81-.2-1.26-.27l.06.09,6.19,5.61a.3.3,0,0,0,.16.08ZM1.59,18,1.54,18a2.2,2.2,0,0,0,.17.25l5.91,5.36s.1.1.16.1c.29,0,.58,0,.91,0l-.1-.1L2.44,18.07A.25.25,0,0,0,2.28,18Zm35.08,5.39a3.11,3.11,0,0,0,.2-.25c.2-.27.2-.28,0-.51-1.61-1.46-3.24-2.9-4.83-4.39-.39-.36-.8-.18-1.2-.24V18ZM1.57,19.7c0,.28,0,.49,0,.7a.54.54,0,0,0,.13.31L5,23.66s.09.09.13.09c.3,0,.6,0,1,0ZM33.4,18l3.71,3.36c0-.27,0-.49,0-.71a.46.46,0,0,0-.13-.29c-.82-.76-1.65-1.51-2.49-2.26A.31.31,0,0,0,34.3,18Zm-30,5.75-1.7-1.54-.06,0A1.44,1.44,0,0,0,3.35,23.73ZM37.1,18.92c0-.3,0-.55,0-.79,0-.05-.07-.14-.11-.14h-.92Z"/><path class="cls-4" d="M1.38,6.93c0-1.54,0-3.06,0-4.58A1.57,1.57,0,0,1,2.91.84H35.57a2.39,2.39,0,0,1,.7.12,1.52,1.52,0,0,1,1,1.49V6.93Zm15.2-.2-.06-.08L10.4,1.11A.26.26,0,0,0,10.24,1c-.28,0-.57,0-.9,0l.12.12,6.06,5.5a.36.36,0,0,0,.2.09Zm-5.32,0L11,6.45C9.05,4.72,7.13,3,5.25,1.26,4.86.89,4.45,1.08,4,1l0,.08L10.2,6.65a.27.27,0,0,0,.16.08ZM22.69,1l.13.13,6.05,5.49s.09.09.14.09h.92l-.07-.08L23.75,1.11A.29.29,0,0,0,23.59,1C23.3,1,23,1,22.69,1ZM22,6.73l-.13-.1L15.74,1.11A.26.26,0,0,0,15.58,1c-.28,0-.57,0-.89,0l.09.11,6.09,5.52s.09.08.14.08Zm-8,0-.14-.13c-2-1.78-3.94-3.55-5.89-5.35C7.51.89,7.12,1.08,6.68,1l.06.08,6.13,5.56a.3.3,0,0,0,.18.08Zm13.33,0-.06-.07L21.08,1.11A.26.26,0,0,0,20.92,1c-.28,0-.57,0-.89,0l.1.12,6.07,5.5a.33.33,0,0,0,.16.09ZM28,1l.11.12,6.07,5.5s.09.09.14.09h.92c0-.05-.05-.07-.07-.08L29.09,1.11A.36.36,0,0,0,28.88,1C28.62,1,28.35,1,28,1ZM12,1l.1.11L18.2,6.65s.1.08.14.08h.92l-.08-.09L13.07,1.11a.31.31,0,0,0-.2-.09C12.6,1,12.34,1,12,1Zm12.6,5.71c-.13-.11-.21-.19-.29-.27C22.42,4.74,20.5,3,18.62,1.28c-.4-.37-.81-.22-1.26-.27l.07.1,6.12,5.54a.27.27,0,0,0,.16.08Zm8,0-.08-.08-6.1-5.54A.33.33,0,0,0,26.27,1c-.29,0-.58,0-.9,0,.06.06.08.1.12.13l6.05,5.49a.33.33,0,0,0,.16.09Zm-24.08,0,0,0-.11-.1L2.75,1.43c-.37-.33-.42-.33-.78,0l-.07.09L2,1.62l5.56,5a.25.25,0,0,0,.16.08Zm28.58,0a5,5,0,0,1,0-.55.48.48,0,0,0-.2-.45c-1.65-1.5-3.32-3-4.95-4.5-.4-.37-.8-.22-1.22-.24.35.36.72.69,1.08,1l5,4.56A2.86,2.86,0,0,0,37.11,6.78Zm-31.18,0-4.36-4c0,.26,0,.45,0,.64a.45.45,0,0,0,.18.42L4.83,6.63a.36.36,0,0,0,.18.1Zm31.18-2.3c0-.27,0-.47,0-.68A.41.41,0,0,0,37,3.39L34.46,1.14A.44.44,0,0,0,34.29,1c-.3,0-.59,0-.94,0ZM3.26,6.73,1.6,5.23c-.1.54-.07,1,.43,1.28.07,0,.11.11.18.15a.27.27,0,0,0,.14.07ZM36.18,1.17l.76.69A1,1,0,0,0,36.18,1.17Z"/></g></g></svg>