<svg xmlns="http://www.w3.org/2000/svg" viewBox="0 0 38.55 24.66"><defs><style>.cls-1{isolation:isolate;}.cls-2{opacity:0.15;}.cls-2,.cls-3{mix-blend-mode:multiply;}.cls-4{fill:#fff;}</style></defs><title>convert-CUSTOMIZE-SVG-03</title><g class="cls-1"><g id="Layer_1" data-name="Layer 1"><g class="cls-2"><path d="M34,18.31a2.88,2.88,0,0,1,2.84,3,2,2,0,0,1-1.92,1.93,2.89,2.89,0,0,1-3-3A2,2,0,0,1,34,18.31Zm.06.26a1.81,1.81,0,0,0-1.87,1.91,2.64,2.64,0,0,0,2.32,2.46,1.86,1.86,0,0,0,2.08-1.88A2.62,2.62,0,0,0,34.08,18.57Z"/><path d="M36.86,3.41a2.87,2.87,0,0,1-3.42,2.76A2,2,0,0,1,32,3.91,2.91,2.91,0,0,1,34.8,1.34,2,2,0,0,1,36.86,3.41Zm-4.65.7A1.82,1.82,0,0,0,34.16,6a2.64,2.64,0,0,0,2.35-1.89A1.86,1.86,0,0,0,35.1,1.63,2.58,2.58,0,0,0,32.21,4.11Z"/><path d="M4.48,6.43A2.9,2.9,0,0,1,1.66,3.51a2,2,0,0,1,2-2,2.87,2.87,0,0,1,2.94,3A2,2,0,0,1,4.48,6.43Zm-.05-.26A1.81,1.81,0,0,0,6.32,4.28a2.63,2.63,0,0,0-2.2-2.46,1.85,1.85,0,0,0-2.2,1.86A2.62,2.62,0,0,0,4.43,6.17Z"/><path d="M4.77,18.31a2,2,0,0,1,2,2.71,2.9,2.9,0,0,1-3,2.17A2,2,0,0,1,2,21.05a2.92,2.92,0,0,1,2.43-2.71A1.67,1.67,0,0,1,4.77,18.31Zm1.86,2.13a1.8,1.8,0,0,0-1.86-1.87,2.63,2.63,0,0,0-2.51,2.19A1.83,1.83,0,0,0,3.7,22.9,2.57,2.57,0,0,0,6.63,20.44Z"/><path d="M19.28,2.06c-.17.24-.34.33-.52.27A.34.34,0,0,1,18.48,2a1,1,0,0,1,.14-.49,6.77,6.77,0,0,1,.64-.72c.24.25.46.44.65.67a1,1,0,0,1,.17.4.41.41,0,0,1-.22.46.43.43,0,0,1-.51-.14Z"/><path d="M19.25,22.63c.05-.06.07-.13.12-.15a1,1,0,0,1,.42-.1.3.3,0,0,1,.26.34,1.49,1.49,0,0,1-.2.58,4.71,4.71,0,0,1-.51.61,1.83,1.83,0,0,1-.89-1,.44.44,0,0,1,.21-.49.42.42,0,0,1,.52.14Z"/><path d="M8.37,3.88l0,.09a.45.45,0,0,1-.43.37.47.47,0,0,1-.4-.45,1.82,1.82,0,0,1,.3-1.06A.17.17,0,0,1,8,2.78a8.58,8.58,0,0,1,.83.35A.76.76,0,0,1,9,3.44.35.35,0,0,1,9,3.88.4.4,0,0,1,8.5,4Z"/><path d="M17,2.12l-.12.15a.39.39,0,0,1-.44.1A.34.34,0,0,1,16.24,2a1.06,1.06,0,0,1,.09-.4,1.32,1.32,0,0,1,.26-.36c.5-.46.36-.45.88,0a1.25,1.25,0,0,1,.3.42.48.48,0,0,1-.13.66C17.45,2.45,17.25,2.38,17,2.12Z"/><path d="M14.75,1c.23.2.46.37.66.58a1.06,1.06,0,0,1,.2.43.36.36,0,0,1-.2.44.39.39,0,0,1-.47-.07.52.52,0,0,1-.1-.11c-.07.07-.12.18-.19.21a.74.74,0,0,1-.44,0C14,2.45,14,2.25,14,2.07A1.81,1.81,0,0,1,14.75,1Z"/><path d="M23.7,2.27l-.09.11a.41.41,0,0,1-.49.09A.4.4,0,0,1,22.91,2a1,1,0,0,1,.43-.66c.53-.4.41-.44.86.07a1.52,1.52,0,0,1,.29.53.44.44,0,0,1-.23.59C24.05,2.64,23.86,2.54,23.7,2.27Z"/><path d="M25.87,2.65q-.4.33-.66.09a.48.48,0,0,1,0-.69A5.74,5.74,0,0,1,26,1.47a.13.13,0,0,1,.12,0,1.75,1.75,0,0,1,.55.93.47.47,0,0,1-.26.56C26.21,3.05,26,2.94,25.87,2.65Z"/><path d="M30.16,3.89c-.28.16-.49.14-.63,0a.48.48,0,0,1,.1-.63,1.81,1.81,0,0,1,1-.44.14.14,0,0,1,.13.07,5.06,5.06,0,0,1,.29.91.48.48,0,0,1-.36.58C30.43,4.37,30.27,4.23,30.16,3.89Z"/><path d="M30.2,21.23c.11-.34.27-.48.49-.45a.47.47,0,0,1,.36.6,4.4,4.4,0,0,1-.29.89s-.1.08-.14.07a1.93,1.93,0,0,1-.92-.41l0,0a.47.47,0,0,1-.08-.63C29.72,21.09,29.93,21.07,30.2,21.23Z"/><path d="M28.15,22a1.48,1.48,0,0,1,.21-.26A.39.39,0,0,1,29,22a1,1,0,0,1-.18.68c-.12.18-.26.35-.41.55-.25-.17-.49-.32-.71-.48a.74.74,0,0,1-.18-.21.49.49,0,0,1,0-.67A.47.47,0,0,1,28.15,22Z"/><path d="M23.75,22.49l.06-.09a.43.43,0,0,1,.51-.19.44.44,0,0,1,.25.49,1.74,1.74,0,0,1-.71,1,.15.15,0,0,1-.13,0c-.22-.21-.45-.42-.66-.64A.68.68,0,0,1,23,22.7a.4.4,0,0,1,.72-.31A.36.36,0,0,1,23.75,22.49Z"/><path d="M17,22.56l.11-.13a.41.41,0,0,1,.46-.11.37.37,0,0,1,.24.39,1.19,1.19,0,0,1-.37.71c-.53.47-.39.47-.91,0a1.44,1.44,0,0,1-.28-.44.47.47,0,0,1,.16-.63C16.64,22.21,16.84,22.29,17,22.56Z"/><path d="M21.5,2.14h0c-.22.24-.41.31-.6.19a.46.46,0,0,1-.12-.65A5.9,5.9,0,0,1,21.44,1a.12.12,0,0,1,.14,0,1.91,1.91,0,0,1,.66.75.5.5,0,0,1-.14.66C21.91,2.47,21.69,2.39,21.5,2.14Z"/><path d="M12.44,1.38c.25.18.49.33.71.5a.88.88,0,0,1,.24.36.41.41,0,0,1-.12.53.45.45,0,0,1-.54-.08l-.07-.06a.61.61,0,0,0-.05.12.41.41,0,0,1-.46.23.36.36,0,0,1-.31-.4,2.33,2.33,0,0,1,.21-.68A3.9,3.9,0,0,1,12.44,1.38Z"/><path d="M10.07,1.93c.28.14.56.27.82.42a.76.76,0,0,1,.25.28.43.43,0,0,1-.06.54c-.15.14-.35.13-.59,0a.41.41,0,0,0-.05.09.4.4,0,0,1-.45.32.42.42,0,0,1-.36-.42A1.89,1.89,0,0,1,10.07,1.93Z"/><path d="M8.33,21.23l.11-.06a.41.41,0,0,1,.51.07.37.37,0,0,1,0,.49,1.42,1.42,0,0,1-.5.42c-.74.3-.65.34-.94-.41a1.1,1.1,0,0,1-.07-.41.5.5,0,0,1,.39-.55C8.08,20.76,8.26,20.92,8.33,21.23Z"/><path d="M14.79,22.48l.09-.11a.4.4,0,0,1,.7.37,1.62,1.62,0,0,1-.8.94.16.16,0,0,1-.13,0c-.2-.22-.4-.44-.58-.68A.66.66,0,0,1,14,22.6a.37.37,0,0,1,.28-.4.4.4,0,0,1,.44.16S14.75,22.43,14.79,22.48Z"/><path d="M28.06,3.14,28,3.2a.41.41,0,0,1-.51,0,.38.38,0,0,1-.06-.52,1.65,1.65,0,0,1,.53-.46c.66-.29.54-.33.86.32A1.27,1.27,0,0,1,28.9,3a.46.46,0,0,1-.36.54C28.33,3.59,28.16,3.45,28.06,3.14Z"/><path d="M12.54,22.32c.09-.07.15-.17.22-.18a.78.78,0,0,1,.43,0,.38.38,0,0,1,.15.45,1.34,1.34,0,0,1-.56.72c-.33.25-.33.25-.61-.05a1.33,1.33,0,0,1-.43-.76A.42.42,0,0,1,12,22c.18-.07.36,0,.5.23Z"/><path d="M21.51,22.56l.06-.09a.41.41,0,0,1,.5-.17.46.46,0,0,1,.24.5,1.28,1.28,0,0,1-.42.69l-.39.33c-.22-.23-.45-.44-.64-.67a.81.81,0,0,1-.15-.37.41.41,0,0,1,.22-.46.44.44,0,0,1,.5.13A.76.76,0,0,0,21.51,22.56Z"/><path d="M10.15,23.2a2.05,2.05,0,0,1-.58-.9.51.51,0,0,1,.32-.67.37.37,0,0,1,.41.19,1,1,0,0,1,.07.15c.08-.06.16-.15.25-.16a.52.52,0,0,1,.38.08.48.48,0,0,1,.12.41,1.26,1.26,0,0,1-.35.5A4.38,4.38,0,0,1,10.15,23.2Z"/><path d="M26,22.33a.93.93,0,0,0,.05-.1.41.41,0,0,1,.77.24,1.61,1.61,0,0,1-.69,1.05.22.22,0,0,1-.11,0,1.94,1.94,0,0,1-.74-.71.66.66,0,0,1-.06-.2.4.4,0,0,1,.7-.36Z"/><path d="M34.08,19.47a1.14,1.14,0,0,1,0,.28.6.6,0,0,0,.21.61.71.71,0,0,0,.69.24c.36-.05.73-.06,1.11-.08,0,.39,0,.77-.37,1a2,2,0,0,0-.36.36,1.2,1.2,0,0,1-1.16.49c0-.21,0-.44,0-.66a3.64,3.64,0,0,1,0-.57c.1-.39-.22-.55-.44-.71s-.42,0-.63,0c0,0-.07.1-.08.15a5.48,5.48,0,0,1-.05.57c0,.06-.1.12-.16.17s-.17-.12-.17-.19a5.2,5.2,0,0,1,.05-.88.31.31,0,0,1,.23-.18,6.47,6.47,0,0,1,.66-.06c0-.21,0-.42.05-.63s.07-.27.26-.27l.76-.05c.13,0,.25,0,.23.17a.28.28,0,0,1-.2.18A5.05,5.05,0,0,1,34.08,19.47Z"/><path d="M33.12,4.11l.55,0a.33.33,0,0,0,.16-.07.87.87,0,0,0,.42-.95,7.9,7.9,0,0,1-.09-1c.38.06.75,0,1,.35a2.76,2.76,0,0,0,.54.54c.35.26.3.63.35,1C35.6,4,35.16,4,34.72,4a.41.41,0,0,0-.3.1c-.42.39-.42.39-.33,1l.62,0c.13,0,.27,0,.26.2s-.16.18-.29.17l-.74,0a.22.22,0,0,1-.23-.22c0-.17,0-.33,0-.49s-.06-.23-.23-.22a2.07,2.07,0,0,1-.5,0,.28.28,0,0,1-.19-.19,7.54,7.54,0,0,1-.06-.82c0-.13,0-.22.16-.22s.19.07.19.19S33.1,3.87,33.12,4.11Z"/><path d="M4.36,2.34c0,.46-.05.89-.09,1.33A.33.33,0,0,0,4.4,4l.1.1c.2.33.52.25.81.22a.19.19,0,0,0,.11-.16c0-.19,0-.37,0-.55s.11-.18.18-.19.18.09.17.21c0,.28,0,.56-.05.85,0,.13-.09.19-.23.2l-.67.05a6,6,0,0,0,0,.61c0,.19-.09.29-.3.29l-.74,0c-.12,0-.23,0-.23-.17s.1-.19.23-.2l.66,0a.49.49,0,0,1,0-.13c.15-.43-.09-.71-.39-.95a.48.48,0,0,0-.24-.06l-1.05.08H2.47c0-.38,0-.75.36-1a3.86,3.86,0,0,0,.5-.49A.81.81,0,0,1,4,2.37Z"/><path d="M4.79,19.48l-.69-.06c-.13,0-.23,0-.23-.19s.11-.18.24-.17l.8.05c.16,0,.22.1.22.25s0,.42,0,.65l.63,0c.17,0,.26.06.27.24l.06.78c0,.13,0,.23-.17.24s-.19-.09-.2-.22,0-.43,0-.68a3.88,3.88,0,0,0-.59,0c-.08,0-.15.1-.23.16a.74.74,0,0,0-.3.82c.06.33.05.67.08,1-.24,0-.45,0-.65-.08a.37.37,0,0,1-.19-.11l-.75-.75a.63.63,0,0,1-.26-.5,2.66,2.66,0,0,0-.06-.45,6,6,0,0,1,1,.07.79.79,0,0,0,.93-.44C4.85,20,4.78,19.71,4.79,19.48Z"/><path d="M34.22,18.51a2.88,2.88,0,0,1,2.84,3,2,2,0,0,1-1.92,1.92,2.87,2.87,0,0,1-3-3A2,2,0,0,1,34.22,18.51Zm.06.26a1.82,1.82,0,0,0-1.88,1.91,2.66,2.66,0,0,0,2.33,2.46,1.84,1.84,0,0,0,2.07-1.88A2.6,2.6,0,0,0,34.28,18.77Z"/><path d="M37.06,3.6a2.87,2.87,0,0,1-3.43,2.76,2,2,0,0,1-1.47-2.25A2.93,2.93,0,0,1,35,1.53,2,2,0,0,1,37.06,3.6Zm-4.66.71a1.83,1.83,0,0,0,2,1.87,2.66,2.66,0,0,0,2.35-1.89A1.86,1.86,0,0,0,35.3,1.83,2.59,2.59,0,0,0,32.4,4.31Z"/><path d="M4.68,6.63A2.9,2.9,0,0,1,1.86,3.71a2,2,0,0,1,2-2,2.87,2.87,0,0,1,2.94,3A2,2,0,0,1,4.68,6.63Zm0-.26A1.81,1.81,0,0,0,6.52,4.48,2.62,2.62,0,0,0,4.32,2a1.85,1.85,0,0,0-2.2,1.86A2.62,2.62,0,0,0,4.63,6.37Z"/><path d="M5,18.51A2,2,0,0,1,7,21.22a2.9,2.9,0,0,1-3,2.17,2,2,0,0,1-1.79-2.14A2.91,2.91,0,0,1,4.6,18.54,1.72,1.72,0,0,1,5,18.51Zm1.87,2.13A1.8,1.8,0,0,0,5,18.77,2.63,2.63,0,0,0,2.46,21,1.83,1.83,0,0,0,3.9,23.1,2.57,2.57,0,0,0,6.83,20.64Z"/><path d="M19.48,2.26c-.17.23-.35.33-.52.27a.34.34,0,0,1-.28-.35.91.91,0,0,1,.14-.49A6.77,6.77,0,0,1,19.46,1c.24.25.46.44.65.67a.9.9,0,0,1,.17.4.42.42,0,0,1-.22.46.43.43,0,0,1-.51-.14Z"/><path d="M19.45,22.83c0-.06.07-.13.12-.15a1,1,0,0,1,.42-.1.3.3,0,0,1,.26.34,1.67,1.67,0,0,1-.2.58,5.69,5.69,0,0,1-.51.61,1.86,1.86,0,0,1-.89-1,.44.44,0,0,1,.21-.49.42.42,0,0,1,.52.14Z"/><path d="M8.56,4.08l0,.09a.44.44,0,0,1-.43.36.46.46,0,0,1-.4-.45A1.72,1.72,0,0,1,8,3a.16.16,0,0,1,.16,0A5.94,5.94,0,0,1,9,3.33a.73.73,0,0,1,.25.3.37.37,0,0,1-.08.45.38.38,0,0,1-.46.07Z"/><path d="M17.23,2.32a1,1,0,0,1-.11.15.4.4,0,0,1-.44.1.34.34,0,0,1-.24-.36.9.9,0,0,1,.09-.4,1.14,1.14,0,0,1,.26-.36c.49-.46.36-.46.88,0a1.25,1.25,0,0,1,.3.42.48.48,0,0,1-.13.66C17.65,2.65,17.45,2.58,17.23,2.32Z"/><path d="M15,1.21a7.42,7.42,0,0,1,.65.58.92.92,0,0,1,.21.43.37.37,0,0,1-.2.44.39.39,0,0,1-.47-.07L15,2.48c-.07.07-.12.18-.19.21a.74.74,0,0,1-.44,0c-.18-.06-.22-.26-.2-.44A1.81,1.81,0,0,1,15,1.21Z"/><path d="M23.9,2.47l-.1.11a.4.4,0,0,1-.48.09.41.41,0,0,1-.21-.45,1,1,0,0,1,.43-.65c.53-.41.41-.44.86.07a1.52,1.52,0,0,1,.29.53.46.46,0,0,1-.23.59C24.25,2.83,24.06,2.74,23.9,2.47Z"/><path d="M26.07,2.85q-.41.33-.66.09a.48.48,0,0,1,0-.69,5.44,5.44,0,0,1,.76-.58s.11,0,.13,0a1.71,1.71,0,0,1,.55.93.47.47,0,0,1-.26.56C26.41,3.25,26.22,3.14,26.07,2.85Z"/><path d="M30.36,4.09c-.28.16-.5.14-.63,0a.47.47,0,0,1,.1-.63,1.81,1.81,0,0,1,1-.44.14.14,0,0,1,.13.07,5.06,5.06,0,0,1,.29.91.48.48,0,0,1-.36.58C30.63,4.57,30.47,4.43,30.36,4.09Z"/><path d="M30.4,21.43c.11-.34.27-.48.48-.45a.47.47,0,0,1,.37.6,5.13,5.13,0,0,1-.29.89.18.18,0,0,1-.15.07,1.93,1.93,0,0,1-.91-.41l0,0a.47.47,0,0,1-.08-.63C29.92,21.28,30.13,21.27,30.4,21.43Z"/><path d="M28.35,22.16a1.48,1.48,0,0,1,.21-.26.39.39,0,0,1,.63.28,1,1,0,0,1-.18.68c-.12.19-.26.35-.41.56-.25-.17-.49-.32-.71-.48a.74.74,0,0,1-.18-.21.49.49,0,0,1,0-.67C27.91,21.92,28.14,22,28.35,22.16Z"/><path d="M24,22.69l.06-.1a.41.41,0,0,1,.51-.18.43.43,0,0,1,.24.49,1.68,1.68,0,0,1-.7,1,.15.15,0,0,1-.13,0c-.23-.21-.45-.42-.66-.65a.61.61,0,0,1-.11-.31.39.39,0,0,1,.23-.45.41.41,0,0,1,.49.14Z"/><path d="M17.23,22.76a.81.81,0,0,1,.11-.13.39.39,0,0,1,.46-.11.36.36,0,0,1,.24.39,1.12,1.12,0,0,1-.13.39,1.28,1.28,0,0,1-.24.32c-.53.47-.39.47-.91,0a1.44,1.44,0,0,1-.28-.44.47.47,0,0,1,.15-.63C16.83,22.41,17,22.49,17.23,22.76Z"/><path d="M21.7,2.34s0,0,0,0c-.22.24-.41.31-.6.19A.46.46,0,0,1,21,1.89a5.89,5.89,0,0,1,.67-.74.16.16,0,0,1,.15,0,2,2,0,0,1,.66.75.5.5,0,0,1-.14.66C22.11,2.67,21.89,2.59,21.7,2.34Z"/><path d="M12.64,1.58c.25.18.49.32.71.5a1.13,1.13,0,0,1,.24.36.42.42,0,0,1-.12.53.45.45,0,0,1-.54-.08l-.07-.06L12.8,3a.4.4,0,0,1-.45.23.36.36,0,0,1-.31-.4,2.49,2.49,0,0,1,.21-.69A3.66,3.66,0,0,1,12.64,1.58Z"/><path d="M10.26,2.13c.29.14.57.27.83.42a.85.85,0,0,1,.25.28.45.45,0,0,1-.06.54c-.16.13-.35.12-.59,0a.41.41,0,0,0,0,.09.41.41,0,0,1-.45.32.42.42,0,0,1-.36-.43A1.87,1.87,0,0,1,10.26,2.13Z"/><path d="M8.53,21.43l.11-.06a.39.39,0,0,1,.5.07.37.37,0,0,1,0,.49,1.42,1.42,0,0,1-.5.42c-.74.29-.65.34-.94-.41a1.14,1.14,0,0,1-.07-.41A.49.49,0,0,1,8.06,21C8.28,21,8.46,21.12,8.53,21.43Z"/><path d="M15,22.68l.1-.11a.39.39,0,0,1,.5-.1.41.41,0,0,1,.2.47,1.57,1.57,0,0,1-.8.93.13.13,0,0,1-.13,0,6.42,6.42,0,0,1-.58-.69.6.6,0,0,1-.09-.36.37.37,0,0,1,.28-.4.39.39,0,0,1,.44.16A.62.62,0,0,1,15,22.68Z"/><path d="M28.26,3.34l-.11.06a.39.39,0,0,1-.5,0,.39.39,0,0,1-.06-.52,1.46,1.46,0,0,1,.53-.46c.66-.29.54-.33.86.32a1.41,1.41,0,0,1,.12.51.46.46,0,0,1-.36.54C28.53,3.79,28.36,3.65,28.26,3.34Z"/><path d="M12.74,22.52c.08-.07.15-.17.22-.18a.78.78,0,0,1,.43,0,.36.36,0,0,1,.14.45,1.32,1.32,0,0,1-.55.72c-.33.25-.33.25-.61-.05a1.36,1.36,0,0,1-.43-.76.44.44,0,0,1,.26-.5.43.43,0,0,1,.51.23Z"/><path d="M21.71,22.76l.06-.09a.41.41,0,0,1,.5-.17.46.46,0,0,1,.24.49,1.3,1.3,0,0,1-.42.7L21.7,24c-.23-.23-.45-.44-.65-.67a.79.79,0,0,1-.14-.37.4.4,0,0,1,.22-.46.4.4,0,0,1,.49.13Z"/><path d="M10.35,23.4a2.05,2.05,0,0,1-.58-.9.64.64,0,0,1,0-.39.61.61,0,0,1,.31-.28.37.37,0,0,1,.41.19c0,.05,0,.1.07.15s.16-.15.24-.16a.54.54,0,0,1,.39.08.48.48,0,0,1,.12.41A1.34,1.34,0,0,1,11,23,4.38,4.38,0,0,1,10.35,23.4Z"/><path d="M26.19,22.52a.36.36,0,0,1,0-.09.42.42,0,0,1,.47-.2.42.42,0,0,1,.3.44,1.62,1.62,0,0,1-.69,1s-.08,0-.11,0a1.92,1.92,0,0,1-.74-.7,1.59,1.59,0,0,1-.07-.2.42.42,0,0,1,.19-.48.43.43,0,0,1,.52.12A.59.59,0,0,0,26.19,22.52Z"/><path d="M34.27,19.67a1.19,1.19,0,0,1,0,.28.6.6,0,0,0,.21.61.7.7,0,0,0,.69.23c.36,0,.73-.05,1.11-.08,0,.4,0,.78-.37,1a1.75,1.75,0,0,0-.36.36,1.2,1.2,0,0,1-1.16.48l0-.65a3.55,3.55,0,0,1,.05-.57c.1-.39-.22-.55-.44-.71s-.42,0-.63,0c0,0-.07.09-.08.15a5.48,5.48,0,0,1,0,.57c0,.06-.11.11-.16.17s-.18-.12-.18-.19a6.51,6.51,0,0,1,.06-.88c0-.08.14-.17.23-.18a6.47,6.47,0,0,1,.66-.06c0-.21,0-.42,0-.63s.08-.27.27-.27.51,0,.76-.06.25,0,.23.18a.28.28,0,0,1-.2.18C34.74,19.65,34.51,19.65,34.27,19.67Z"/><path d="M33.32,4.31l.55.05A.33.33,0,0,0,34,4.29a.87.87,0,0,0,.41-1c-.06-.32,0-.65-.08-1,.37.06.75,0,1,.35a2.76,2.76,0,0,0,.54.54c.35.26.3.63.35,1l-1.35-.08a.51.51,0,0,0-.29.1c-.42.4-.42.4-.34,1l.62,0c.14,0,.27,0,.26.2s-.15.18-.28.17l-.74,0a.22.22,0,0,1-.23-.22l0-.49c0-.16-.05-.23-.22-.23a1.67,1.67,0,0,1-.5,0A.3.3,0,0,1,33,4.47c0-.27,0-.55-.07-.83,0-.12,0-.21.17-.22s.18.08.19.2Z"/><path d="M4.56,2.53c0,.47,0,.9-.09,1.34a.34.34,0,0,0,.12.33.52.52,0,0,1,.11.1c.2.33.52.25.81.22,0,0,.1-.1.11-.17s0-.36,0-.54a.3.3,0,0,1,.17-.19C6,3.6,6,3.7,6,3.83c0,.28,0,.56,0,.84a.22.22,0,0,1-.23.21l-.68,0c0,.21,0,.41,0,.61s-.09.3-.3.3L4,5.88c-.12,0-.23,0-.23-.18s.1-.18.23-.19l.66,0a.53.53,0,0,1,0-.13c.14-.43-.09-.7-.4-.94A.41.41,0,0,0,4,4.33L3,4.41H2.67c0-.38,0-.76.36-1a3.24,3.24,0,0,0,.5-.48.81.81,0,0,1,.66-.34A2.6,2.6,0,0,0,4.56,2.53Z"/><path d="M5,19.68l-.69-.06c-.13,0-.23,0-.23-.19s.11-.18.23-.18l.8.06c.17,0,.23.09.23.24s0,.43,0,.66l.63.05c.17,0,.26.06.27.24l.06.78c0,.13,0,.23-.17.24S6,21.43,6,21.3s0-.43,0-.68a3.88,3.88,0,0,0-.59,0c-.08,0-.15.1-.23.15a.74.74,0,0,0-.3.83,8.47,8.47,0,0,1,.07,1c-.23,0-.44,0-.64-.08A.33.33,0,0,1,4,22.41c-.26-.24-.5-.5-.76-.74a.69.69,0,0,1-.26-.5,2.58,2.58,0,0,0,0-.45,6,6,0,0,1,1,.07A.8.8,0,0,0,5,20.35C5.05,20.18,5,19.91,5,19.68Z"/></g><g class="cls-3"><path d="M33.88,18.17a2.88,2.88,0,0,1,2.84,3,2,2,0,0,1-1.92,1.92,2.87,2.87,0,0,1-3-3A2,2,0,0,1,33.88,18.17Zm.06.26a1.82,1.82,0,0,0-1.88,1.91,2.66,2.66,0,0,0,2.33,2.46,1.84,1.84,0,0,0,2.07-1.88A2.6,2.6,0,0,0,33.94,18.43Z"/><path d="M36.72,3.26A2.87,2.87,0,0,1,33.29,6a2,2,0,0,1-1.47-2.25,2.93,2.93,0,0,1,2.84-2.58A2,2,0,0,1,36.72,3.26ZM32.06,4a1.84,1.84,0,0,0,2,1.88A2.66,2.66,0,0,0,36.37,4,1.86,1.86,0,0,0,35,1.49,2.59,2.59,0,0,0,32.06,4Z"/><path d="M4.34,6.29A2.9,2.9,0,0,1,1.52,3.37a2,2,0,0,1,2-2,2.87,2.87,0,0,1,2.94,3A2,2,0,0,1,4.34,6.29Zm0-.26A1.81,1.81,0,0,0,6.18,4.14,2.62,2.62,0,0,0,4,1.68a1.85,1.85,0,0,0-2.2,1.86A2.62,2.62,0,0,0,4.29,6Z"/><path d="M4.62,18.17a2,2,0,0,1,2.05,2.71,2.9,2.9,0,0,1-3,2.17,2,2,0,0,1-1.79-2.14A2.91,2.91,0,0,1,4.26,18.2,1.72,1.72,0,0,1,4.62,18.17ZM6.49,20.3a1.8,1.8,0,0,0-1.86-1.87,2.63,2.63,0,0,0-2.51,2.19,1.83,1.83,0,0,0,1.44,2.14A2.57,2.57,0,0,0,6.49,20.3Z"/><path d="M19.14,1.92c-.17.23-.35.33-.52.27a.34.34,0,0,1-.28-.35.91.91,0,0,1,.14-.49,6.77,6.77,0,0,1,.64-.72c.24.25.46.44.65.67a.9.9,0,0,1,.17.4.42.42,0,0,1-.22.46A.43.43,0,0,1,19.21,2Z"/><path d="M19.11,22.49c0-.06.07-.13.12-.15a1,1,0,0,1,.42-.1.28.28,0,0,1,.25.34,1.47,1.47,0,0,1-.19.58,5.69,5.69,0,0,1-.51.61,1.86,1.86,0,0,1-.89-1,.44.44,0,0,1,.21-.49.42.42,0,0,1,.52.14Z"/><path d="M8.22,3.74l0,.09a.44.44,0,0,1-.43.36.46.46,0,0,1-.4-.45,1.72,1.72,0,0,1,.3-1.05.16.16,0,0,1,.16,0A5.94,5.94,0,0,1,8.65,3a.68.68,0,0,1,.25.3.37.37,0,0,1-.08.45.38.38,0,0,1-.46.07Z"/><path d="M16.89,2a1,1,0,0,1-.11.15.4.4,0,0,1-.44.1.35.35,0,0,1-.25-.36,1.07,1.07,0,0,1,.1-.4,1.14,1.14,0,0,1,.26-.36c.49-.46.36-.46.88,0a1.25,1.25,0,0,1,.3.42.48.48,0,0,1-.13.66C17.31,2.31,17.11,2.24,16.89,2Z"/><path d="M14.61.87a7.42,7.42,0,0,1,.65.58.92.92,0,0,1,.21.43.37.37,0,0,1-.2.44.39.39,0,0,1-.47-.07l-.1-.11c-.07.07-.12.18-.19.2a.67.67,0,0,1-.44,0,.39.39,0,0,1-.2-.45A1.82,1.82,0,0,1,14.61.87Z"/><path d="M23.56,2.13l-.1.11a.4.4,0,0,1-.48.09.41.41,0,0,1-.21-.45,1,1,0,0,1,.43-.65c.53-.41.41-.44.86.07a1.52,1.52,0,0,1,.29.53.46.46,0,0,1-.23.59C23.91,2.49,23.72,2.4,23.56,2.13Z"/><path d="M25.73,2.51q-.4.33-.66.09a.48.48,0,0,1,0-.69,4.77,4.77,0,0,1,.76-.58s.11,0,.13,0a1.71,1.71,0,0,1,.55.93.47.47,0,0,1-.26.56C26.07,2.91,25.88,2.8,25.73,2.51Z"/><path d="M30,3.75c-.28.16-.5.14-.63,0a.47.47,0,0,1,.1-.63,1.81,1.81,0,0,1,1-.44.14.14,0,0,1,.13.07,5.06,5.06,0,0,1,.29.91.48.48,0,0,1-.36.58C30.29,4.23,30.13,4.09,30,3.75Z"/><path d="M30.06,21.09c.11-.34.27-.48.48-.45a.47.47,0,0,1,.37.6,5.13,5.13,0,0,1-.29.89.18.18,0,0,1-.15.07,1.93,1.93,0,0,1-.91-.41l0,0a.47.47,0,0,1-.08-.63C29.58,20.94,29.79,20.93,30.06,21.09Z"/><path d="M28,21.82a1.48,1.48,0,0,1,.21-.26.39.39,0,0,1,.63.28,1,1,0,0,1-.18.68c-.12.19-.26.35-.41.56-.25-.17-.49-.32-.71-.48a.91.91,0,0,1-.18-.21.49.49,0,0,1,0-.67C27.57,21.58,27.8,21.63,28,21.82Z"/><path d="M23.61,22.34l.06-.09a.41.41,0,0,1,.51-.18.43.43,0,0,1,.24.49,1.68,1.68,0,0,1-.7,1,.15.15,0,0,1-.13,0c-.23-.21-.45-.42-.66-.65a.61.61,0,0,1-.11-.31.39.39,0,0,1,.23-.45.41.41,0,0,1,.49.14Z"/><path d="M16.89,22.42a.81.81,0,0,1,.11-.13.39.39,0,0,1,.46-.11.36.36,0,0,1,.24.39,1.12,1.12,0,0,1-.13.39,1.28,1.28,0,0,1-.24.32c-.53.47-.39.47-.91,0a1.44,1.44,0,0,1-.28-.44.47.47,0,0,1,.15-.63C16.49,22.07,16.7,22.15,16.89,22.42Z"/><path d="M21.36,2h0c-.22.24-.41.31-.6.19a.46.46,0,0,1-.12-.65,5.89,5.89,0,0,1,.67-.74.16.16,0,0,1,.15,0,2,2,0,0,1,.66.75.5.5,0,0,1-.14.66C21.77,2.33,21.55,2.25,21.36,2Z"/><path d="M12.3,1.24c.25.18.49.32.71.5a1.13,1.13,0,0,1,.24.36.41.41,0,0,1-.13.53.43.43,0,0,1-.53-.08l-.07-.06-.06.12a.4.4,0,0,1-.45.23.36.36,0,0,1-.31-.4,2.49,2.49,0,0,1,.21-.69A3.66,3.66,0,0,1,12.3,1.24Z"/><path d="M9.92,1.79c.29.14.57.27.83.42a.85.85,0,0,1,.25.28.45.45,0,0,1-.06.54c-.16.13-.35.12-.59,0a.41.41,0,0,0,0,.09.41.41,0,0,1-.45.32A.42.42,0,0,1,9.49,3,1.87,1.87,0,0,1,9.92,1.79Z"/><path d="M8.19,21.09,8.3,21a.39.39,0,0,1,.5.07.37.37,0,0,1,0,.49,1.37,1.37,0,0,1-.51.42c-.73.29-.64.34-.93-.41a1.14,1.14,0,0,1-.07-.41.49.49,0,0,1,.39-.55C7.94,20.61,8.12,20.78,8.19,21.09Z"/><path d="M14.64,22.34l.1-.11a.39.39,0,0,1,.5-.1.41.41,0,0,1,.2.47,1.57,1.57,0,0,1-.8.93.13.13,0,0,1-.13,0,6.42,6.42,0,0,1-.58-.69.6.6,0,0,1-.09-.36.37.37,0,0,1,.27-.4.4.4,0,0,1,.45.16A.62.62,0,0,1,14.64,22.34Z"/><path d="M27.92,3l-.11.06a.39.39,0,0,1-.5,0,.39.39,0,0,1-.06-.52,1.46,1.46,0,0,1,.53-.46c.66-.29.54-.33.86.32a1.41,1.41,0,0,1,.12.51.46.46,0,0,1-.36.54C28.19,3.45,28,3.31,27.92,3Z"/><path d="M12.4,22.18c.08-.07.14-.17.22-.18a.78.78,0,0,1,.43,0,.36.36,0,0,1,.14.45,1.32,1.32,0,0,1-.55.72c-.33.25-.33.25-.61-.05a1.36,1.36,0,0,1-.43-.76.44.44,0,0,1,.26-.5.43.43,0,0,1,.51.23Z"/><path d="M21.37,22.42a.7.7,0,0,1,.06-.09.41.41,0,0,1,.5-.17.46.46,0,0,1,.24.49,1.3,1.3,0,0,1-.42.7l-.39.33c-.23-.23-.45-.44-.65-.67a.79.79,0,0,1-.14-.37.4.4,0,0,1,.22-.46.4.4,0,0,1,.49.13Z"/><path d="M10,23.06a2.05,2.05,0,0,1-.58-.9.64.64,0,0,1,0-.39.61.61,0,0,1,.31-.28.37.37,0,0,1,.41.19c0,.05,0,.1.07.15s.16-.15.24-.16a.54.54,0,0,1,.39.08.47.47,0,0,1,.12.4,1.3,1.3,0,0,1-.35.51A4.38,4.38,0,0,1,10,23.06Z"/><path d="M25.85,22.18a.36.36,0,0,1,0-.09.42.42,0,0,1,.47-.2.42.42,0,0,1,.3.44,1.62,1.62,0,0,1-.69,1s-.08,0-.11,0a1.92,1.92,0,0,1-.74-.7c0-.07-.05-.14-.07-.2a.42.42,0,0,1,.19-.48.43.43,0,0,1,.52.12Z"/><path d="M33.93,19.33a1.19,1.19,0,0,1,0,.28.6.6,0,0,0,.21.61.7.7,0,0,0,.69.23c.36,0,.73-.05,1.11-.08,0,.4,0,.78-.37,1a1.54,1.54,0,0,0-.36.36,1.2,1.2,0,0,1-1.16.48l0-.65a3.55,3.55,0,0,1,0-.57c.1-.39-.22-.55-.44-.71s-.42,0-.63,0c0,0-.07.09-.08.15a5.48,5.48,0,0,1-.05.57c0,.06-.11.11-.16.17s-.18-.12-.18-.19a6.51,6.51,0,0,1,.06-.88c0-.08.14-.17.23-.18a6.47,6.47,0,0,1,.66-.06c0-.21,0-.42,0-.63s.08-.27.27-.27.51,0,.76-.06.25,0,.23.18a.28.28,0,0,1-.2.18C34.4,19.31,34.17,19.31,33.93,19.33Z"/><path d="M33,4l.55,0A.33.33,0,0,0,33.69,4a.87.87,0,0,0,.41-1c-.06-.32-.05-.65-.08-1,.37.06.75,0,1,.35a2.76,2.76,0,0,0,.54.54c.35.26.3.63.35,1L34.57,3.8a.51.51,0,0,0-.29.1c-.42.4-.42.4-.34,1l.62,0c.14,0,.27,0,.26.2s-.15.18-.28.17l-.74,0a.22.22,0,0,1-.23-.23l0-.48c0-.16,0-.23-.22-.23a1.67,1.67,0,0,1-.5,0,.3.3,0,0,1-.19-.19c0-.27-.05-.55-.07-.83,0-.12,0-.21.17-.22s.18.08.19.2S33,3.73,33,4Z"/><path d="M4.22,2.19c0,.47,0,.9-.09,1.34a.34.34,0,0,0,.12.33.52.52,0,0,1,.11.1c.2.33.52.25.81.22,0,0,.1-.11.11-.17s0-.36,0-.54a.3.3,0,0,1,.17-.19c.13,0,.19.08.18.21s0,.56,0,.84a.22.22,0,0,1-.23.21l-.68,0c0,.21,0,.41,0,.61s-.09.3-.3.3l-.74,0c-.12,0-.23,0-.23-.18s.1-.18.23-.19l.66,0a.53.53,0,0,1,0-.13c.14-.43-.09-.7-.4-.94A.41.41,0,0,0,3.69,4l-1,.08H2.33c0-.38,0-.76.36-1a2.89,2.89,0,0,0,.5-.49.8.8,0,0,1,.66-.33A2.6,2.6,0,0,0,4.22,2.19Z"/><path d="M4.65,19.34,4,19.28c-.13,0-.23,0-.23-.19s.11-.18.23-.18l.8.06c.17,0,.23.09.23.24s0,.43,0,.66l.63.05c.17,0,.26.06.27.24l.06.78c0,.13,0,.23-.17.24s-.19-.09-.2-.22,0-.43,0-.68a3.92,3.92,0,0,0-.59,0c-.08,0-.15.1-.23.15a.74.74,0,0,0-.3.83,8.47,8.47,0,0,1,.07,1c-.23,0-.44,0-.64-.08a.33.33,0,0,1-.19-.12c-.26-.24-.5-.5-.76-.74a.69.69,0,0,1-.26-.5,4.12,4.12,0,0,0-.05-.45,6,6,0,0,1,1.05.07A.8.8,0,0,0,4.61,20C4.71,19.84,4.64,19.57,4.65,19.34Z"/></g><path class="cls-4" d="M34.07,18.36a2.9,2.9,0,0,1,2.85,3A2,2,0,0,1,35,23.25a2.87,2.87,0,0,1-3-3A2,2,0,0,1,34.07,18.36Zm.07.27a1.82,1.82,0,0,0-1.88,1.9A2.64,2.64,0,0,0,34.59,23a1.83,1.83,0,0,0,2.07-1.87A2.61,2.61,0,0,0,34.14,18.63Z"/><path class="cls-4" d="M36.92,3.46a2.87,2.87,0,0,1-3.43,2.76A2,2,0,0,1,32,4a2.94,2.94,0,0,1,2.85-2.57A2,2,0,0,1,36.92,3.46Zm-4.66.7a1.84,1.84,0,0,0,2,1.88,2.65,2.65,0,0,0,2.35-1.9,1.86,1.86,0,0,0-1.41-2.45A2.59,2.59,0,0,0,32.26,4.16Z"/><path class="cls-4" d="M4.54,6.49A2.91,2.91,0,0,1,1.72,3.57a2,2,0,0,1,2-2,2.87,2.87,0,0,1,2.94,3A2,2,0,0,1,4.54,6.49Zm0-.26a1.82,1.82,0,0,0,1.89-1.9,2.62,2.62,0,0,0-2.2-2.45A1.85,1.85,0,0,0,2,3.74,2.62,2.62,0,0,0,4.49,6.23Z"/><path class="cls-4" d="M4.82,18.36a2.06,2.06,0,0,1,2.05,2.72,2.9,2.9,0,0,1-3,2.17A2,2,0,0,1,2,21.11a2.92,2.92,0,0,1,2.42-2.72ZM6.68,20.5a1.79,1.79,0,0,0-1.86-1.87,2.62,2.62,0,0,0-2.5,2.19A1.83,1.83,0,0,0,3.75,23,2.57,2.57,0,0,0,6.68,20.5Z"/><path class="cls-4" d="M19.33,2.12c-.16.23-.34.33-.51.27A.34.34,0,0,1,18.54,2a1,1,0,0,1,.13-.5c.18-.24.41-.45.65-.71A7.84,7.84,0,0,1,20,1.5a.91.91,0,0,1,.18.4.4.4,0,0,1-.73.31Z"/><path class="cls-4" d="M19.31,22.69c0-.06.07-.14.12-.15a1,1,0,0,1,.42-.1.29.29,0,0,1,.25.34,1.65,1.65,0,0,1-.19.58,5.69,5.69,0,0,1-.51.61,1.86,1.86,0,0,1-.89-1,.44.44,0,0,1,.21-.49.42.42,0,0,1,.52.14Z"/><path class="cls-4" d="M8.42,3.94,8.4,4c-.08.23-.24.38-.43.36a.46.46,0,0,1-.4-.45,1.7,1.7,0,0,1,.3-1A.16.16,0,0,1,8,2.84a5.94,5.94,0,0,1,.82.35.68.68,0,0,1,.25.3A.37.37,0,0,1,9,3.94.39.39,0,0,1,8.55,4Z"/><path class="cls-4" d="M17.09,2.18a1,1,0,0,1-.11.15.42.42,0,0,1-.45.1.36.36,0,0,1-.24-.36,1.17,1.17,0,0,1,.1-.41,1.1,1.1,0,0,1,.26-.35c.49-.46.36-.46.88,0a1.66,1.66,0,0,1,.3.43.48.48,0,0,1-.13.66C17.51,2.51,17.31,2.44,17.09,2.18Z"/><path class="cls-4" d="M14.81,1.06a7.49,7.49,0,0,1,.65.59.93.93,0,0,1,.21.42.39.39,0,0,1-.67.37l-.11-.11c-.06.08-.11.19-.18.21a.74.74,0,0,1-.44,0,.38.38,0,0,1-.2-.45A1.84,1.84,0,0,1,14.81,1.06Z"/><path class="cls-4" d="M23.76,2.33a.93.93,0,0,1-.1.1.39.39,0,0,1-.48.1A.4.4,0,0,1,23,2.08a1,1,0,0,1,.43-.65c.53-.41.41-.44.86.07a1.52,1.52,0,0,1,.29.53.46.46,0,0,1-.23.59C24.11,2.69,23.91,2.59,23.76,2.33Z"/><path class="cls-4" d="M25.93,2.71c-.27.22-.49.25-.66.08a.46.46,0,0,1,0-.68,4.77,4.77,0,0,1,.76-.58s.11,0,.13,0a1.71,1.71,0,0,1,.55.93.46.46,0,0,1-.27.56C26.27,3.11,26.08,3,25.93,2.71Z"/><path class="cls-4" d="M30.22,4c-.28.16-.5.14-.64,0a.48.48,0,0,1,.11-.63,1.77,1.77,0,0,1,1-.44.15.15,0,0,1,.13.06,5.16,5.16,0,0,1,.29.92.46.46,0,0,1-.36.57C30.49,4.43,30.33,4.29,30.22,4Z"/><path class="cls-4" d="M30.26,21.29c.11-.34.27-.48.48-.45a.48.48,0,0,1,.37.6,4.77,4.77,0,0,1-.29.88s-.1.08-.15.07a1.92,1.92,0,0,1-.91-.4l0,0a.47.47,0,0,1-.08-.63C29.78,21.14,30,21.13,30.26,21.29Z"/><path class="cls-4" d="M28.21,22a1.11,1.11,0,0,1,.2-.26A.39.39,0,0,1,29,22a1,1,0,0,1-.17.68c-.12.18-.26.35-.41.56-.25-.17-.49-.32-.71-.48a.88.88,0,0,1-.18-.21.49.49,0,0,1,0-.67C27.77,21.78,28,21.82,28.21,22Z"/><path class="cls-4" d="M23.81,22.54l.06-.09a.41.41,0,0,1,.51-.18.44.44,0,0,1,.24.49,1.68,1.68,0,0,1-.7,1,.12.12,0,0,1-.13,0,6.65,6.65,0,0,1-.66-.64.53.53,0,0,1-.11-.31.39.39,0,0,1,.23-.45.41.41,0,0,1,.49.14Z"/><path class="cls-4" d="M17.09,22.61a.65.65,0,0,1,.11-.12.38.38,0,0,1,.46-.11.36.36,0,0,1,.23.39,1.12,1.12,0,0,1-.37.71c-.52.46-.38.47-.9,0a1.3,1.3,0,0,1-.29-.44.49.49,0,0,1,.16-.63C16.69,22.27,16.9,22.35,17.09,22.61Z"/><path class="cls-4" d="M21.55,2.2h0c-.21.24-.4.3-.59.19a.45.45,0,0,1-.12-.65A5.21,5.21,0,0,1,21.49,1a.16.16,0,0,1,.15,0,1.91,1.91,0,0,1,.66.75.5.5,0,0,1-.14.66C22,2.52,21.75,2.45,21.55,2.2Z"/><path class="cls-4" d="M12.5,1.44c.25.18.49.32.7.5a1,1,0,0,1,.25.36.41.41,0,0,1-.13.53.45.45,0,0,1-.54-.08l-.06-.06-.06.11a.38.38,0,0,1-.45.23.35.35,0,0,1-.31-.39A2.4,2.4,0,0,1,12.11,2,3,3,0,0,1,12.5,1.44Z"/><path class="cls-4" d="M10.12,2c.28.14.56.26.83.42a.85.85,0,0,1,.25.28.43.43,0,0,1-.07.54c-.15.13-.34.12-.59,0l0,.09a.41.41,0,0,1-.45.32.43.43,0,0,1-.37-.43A1.94,1.94,0,0,1,10.12,2Z"/><path class="cls-4" d="M8.39,21.29l.11-.06a.38.38,0,0,1,.5.07.36.36,0,0,1,0,.48,1.4,1.4,0,0,1-.51.43c-.73.29-.64.33-.93-.41a1.14,1.14,0,0,1-.07-.41.49.49,0,0,1,.39-.55C8.14,20.81,8.31,21,8.39,21.29Z"/><path class="cls-4" d="M14.84,22.54l.1-.12a.42.42,0,0,1,.5-.1.42.42,0,0,1,.2.47,1.62,1.62,0,0,1-.8.94.15.15,0,0,1-.13,0c-.2-.23-.41-.45-.59-.69a.71.71,0,0,1-.08-.36.37.37,0,0,1,.27-.4.4.4,0,0,1,.45.16A.62.62,0,0,1,14.84,22.54Z"/><path class="cls-4" d="M28.11,3.2l-.1.06a.41.41,0,0,1-.51,0,.4.4,0,0,1-.05-.52A1.46,1.46,0,0,1,28,2.25c.66-.29.54-.33.86.32a1.41,1.41,0,0,1,.12.5c0,.31-.13.51-.37.54S28.21,3.5,28.11,3.2Z"/><path class="cls-4" d="M12.6,22.37c.08-.07.14-.16.22-.17a.78.78,0,0,1,.43,0,.36.36,0,0,1,.14.45,1.35,1.35,0,0,1-.55.72c-.33.24-.33.24-.61,0a1.3,1.3,0,0,1-.43-.76.43.43,0,0,1,.26-.5.42.42,0,0,1,.51.23Z"/><path class="cls-4" d="M21.56,22.62l.07-.09a.41.41,0,0,1,.5-.17.45.45,0,0,1,.24.49,1.3,1.3,0,0,1-.42.7l-.39.33c-.23-.23-.45-.44-.65-.67a.93.93,0,0,1-.15-.37.42.42,0,0,1,.23-.46.4.4,0,0,1,.49.13A1,1,0,0,1,21.56,22.62Z"/><path class="cls-4" d="M10.21,23.26a2,2,0,0,1-.58-.91.61.61,0,0,1,0-.38.55.55,0,0,1,.3-.28.36.36,0,0,1,.42.19l.06.14c.09-.05.17-.15.25-.15a.55.55,0,0,1,.39.07.5.5,0,0,1,.12.41,1.22,1.22,0,0,1-.36.51A3.78,3.78,0,0,1,10.21,23.26Z"/><path class="cls-4" d="M26,22.38s0-.07.06-.09a.4.4,0,0,1,.76.23,1.57,1.57,0,0,1-.68,1.05s-.09,0-.12,0a1.85,1.85,0,0,1-.73-.71,1.46,1.46,0,0,1-.07-.19.42.42,0,0,1,.19-.48.44.44,0,0,1,.52.11Z"/><path class="cls-4" d="M34.13,19.53a2.16,2.16,0,0,1,0,.28.59.59,0,0,0,.21.61.7.7,0,0,0,.69.23c.36,0,.72,0,1.11-.08,0,.4,0,.78-.37,1a1.54,1.54,0,0,0-.36.36,1.23,1.23,0,0,1-1.16.48l0-.65a2.69,2.69,0,0,1,.05-.57c.09-.4-.22-.56-.45-.71s-.41,0-.62,0c0,0-.07.09-.08.15s0,.38,0,.56-.11.12-.17.18-.17-.13-.17-.19a5.33,5.33,0,0,1,.06-.89c0-.07.14-.16.23-.18s.42,0,.66-.05c0-.21,0-.42,0-.63s.08-.27.27-.27l.76-.06c.13,0,.25,0,.23.18a.28.28,0,0,1-.2.18C34.6,19.51,34.37,19.51,34.13,19.53Z"/><path class="cls-4" d="M33.18,4.17a5.48,5.48,0,0,0,.55,0c.05,0,.11,0,.16-.06a.87.87,0,0,0,.41-1c-.06-.32,0-.66-.08-1,.37.06.75,0,1,.35a2.26,2.26,0,0,0,.54.53c.35.26.3.64.35,1L34.77,4a.48.48,0,0,0-.29.1c-.42.4-.42.4-.34,1l.62,0c.13,0,.27,0,.26.2s-.15.18-.28.17l-.74,0a.21.21,0,0,1-.23-.22c0-.16,0-.32,0-.48s-.05-.23-.22-.23a1.67,1.67,0,0,1-.5,0,.32.32,0,0,1-.2-.19c0-.28,0-.55-.06-.83,0-.12,0-.21.17-.22s.18.08.19.2Z"/><path class="cls-4" d="M4.42,2.39c0,.47,0,.9-.09,1.33a.35.35,0,0,0,.12.34.52.52,0,0,1,.11.1c.2.33.51.25.81.22,0,0,.1-.11.11-.17s0-.37,0-.54a.25.25,0,0,1,.17-.19c.13,0,.19.08.18.21,0,.28,0,.56,0,.84a.22.22,0,0,1-.23.21l-.68,0c0,.21,0,.41,0,.61s-.08.3-.29.3l-.74,0c-.12,0-.23,0-.23-.18s.09-.18.22-.19l.67,0a.53.53,0,0,1,0-.13c.14-.43-.09-.7-.4-.94a.44.44,0,0,0-.23-.06l-1.05.07H2.53c0-.38,0-.76.36-1a3.29,3.29,0,0,0,.5-.49.82.82,0,0,1,.66-.34A1.67,1.67,0,0,0,4.42,2.39Z"/><path class="cls-4" d="M4.85,19.53l-.7-.05c-.12,0-.23,0-.22-.19s.11-.19.23-.18l.8.06c.16,0,.22.09.23.24s0,.42,0,.66c.21,0,.42,0,.63,0s.26.07.27.25,0,.52.06.78,0,.23-.17.24-.19-.09-.2-.22,0-.43,0-.68c-.2,0-.4,0-.59,0s-.15.11-.23.16a.74.74,0,0,0-.3.83c0,.33,0,.67.07,1l-.64-.07a.39.39,0,0,1-.19-.12c-.26-.24-.5-.5-.76-.74a.65.65,0,0,1-.26-.5,4.12,4.12,0,0,0,0-.45,6,6,0,0,1,1,.07.79.79,0,0,0,.92-.44C4.91,20,4.84,19.77,4.85,19.53Z"/></g></g></svg>