<svg xmlns="http://www.w3.org/2000/svg" viewBox="0 0 38.55 24.66"><defs><style>.cls-1{isolation:isolate;}.cls-2{opacity:0.15;}.cls-2,.cls-3{mix-blend-mode:multiply;}.cls-4{fill:#fff;}</style></defs><title>convert-CUSTOMIZE-SVG-03</title><g class="cls-1"><g id="Layer_1" data-name="Layer 1"><g class="cls-2"><path d="M10.24,19.11l.2,0,.11,1.73a6.6,6.6,0,0,0,.67-.14,9.1,9.1,0,0,0,2.13-1,17.83,17.83,0,0,0,3.21-2.32,8.46,8.46,0,0,0,2.07-2.92.69.69,0,0,0,.07-.29l-.1.16a13.11,13.11,0,0,1-.93,1.16,2.1,2.1,0,0,1-2.83.24,3.38,3.38,0,0,1-1.28-1.54c0-.06-.05-.12-.08-.17l-.05,0a4.7,4.7,0,0,1-2.73,2.33c0,.06.07.11.05.15s0,.3.14.38a.17.17,0,0,1,0,.13c0,.43-.08.87-.13,1.3a.71.71,0,0,1-.07.18,2.52,2.52,0,0,1-.29-.12l-1.2-.79a1,1,0,0,0-.78-.21c.16.2.33.39.48.59a4.65,4.65,0,0,1,1,3.25.46.46,0,0,1-.13.27c-.21.23-.43.45-.69.71A7.25,7.25,0,0,0,9,21.37c-.15-1-.3-2-.47-3a3.82,3.82,0,0,0-.26-.74A.82.82,0,0,0,8,17.29c-.25-.21-.41-.18-.59.08a3.92,3.92,0,0,0-.65,1.74,10.2,10.2,0,0,0-.07,2.71l-1-.51s-.05-.09-.05-.15a3.74,3.74,0,0,1,.19-1.93,6.44,6.44,0,0,1,1.15-2l.16-.19a1.48,1.48,0,0,0-.32,0c-.64.08-1.28.16-1.92.26-.31,0-.31.05-.24-.24a.87.87,0,0,0,0-.23V15.76l-.48-.12c-.05.3-.1.58-.16.86a12,12,0,0,1-1,2.92,7.26,7.26,0,0,1-.81,1.18,1.23,1.23,0,0,1-.88.46v-.21a1.93,1.93,0,0,0,1.19-1,10,10,0,0,0,1.08-2.68A10.67,10.67,0,0,0,4.07,14a2.45,2.45,0,0,0,0-.25l-.35.22a2,2,0,0,1-2.16,0,.34.34,0,0,1-.17-.31c0-1.77,0-3.53,0-5.3a2.71,2.71,0,0,1,.16-1.05,6.08,6.08,0,0,0,.16-.87,2.94,2.94,0,0,1,.53-1.23,1.59,1.59,0,0,1,2.38-.22A.45.45,0,0,0,5,5a5.59,5.59,0,0,0,.87-.38.22.22,0,0,0,0-.39,5.46,5.46,0,0,0-1.83-1,2.65,2.65,0,0,0-2.27.35l-.19.13-.18.13a.29.29,0,0,1,.12-.38,2.92,2.92,0,0,1,3-.29c.48.22.92.54,1.39.81a.81.81,0,0,0,.36.12,9.65,9.65,0,0,1,4,.84.32.32,0,0,0,.27,0,4,4,0,0,1,1.92-.4,2.1,2.1,0,0,1,1.61.94,3.39,3.39,0,0,1-.36,4.27.4.4,0,0,0-.1.38c.07.52.12,1,.18,1.57,0,.06,0,.12,0,.21a1.18,1.18,0,0,0,.25-.15A5.65,5.65,0,0,1,17,10.85a2.21,2.21,0,0,1,1.67.62,1.77,1.77,0,0,1,.5,1.63,7.08,7.08,0,0,1-2,4A15.56,15.56,0,0,1,14,19.56c-.46.29-.92.55-1.4.8a4.94,4.94,0,0,1-2,.68V22.3h-.21ZM7.3,15.63a2.42,2.42,0,0,1-1.09-1.2,4.22,4.22,0,0,1-.27-2.53,3.55,3.55,0,0,1,4.23-2.7,4.12,4.12,0,0,1,2.32,1.25.62.62,0,0,1,.07-.27c0-.09.12-.19.2-.21s.17.1.21.18a.71.71,0,0,1-.12.85,4.63,4.63,0,0,1-1.07,4.43A3.51,3.51,0,0,0,13,14.15,4.85,4.85,0,0,0,13.59,11a10.32,10.32,0,0,0-1.52-4.22,3.71,3.71,0,0,0-1.22-1.21A8,8,0,0,0,7.06,4.4a7,7,0,0,0-.79,0,1.1,1.1,0,0,1-.18.36,1.91,1.91,0,0,1-1.3.52.51.51,0,0,0-.34.11L1.9,7.15a.31.31,0,0,0-.09.11c-.09.2-.18.41-.26.62A8.42,8.42,0,0,1,4.26,15.3c.28.07.55.08.81.13A17.76,17.76,0,0,0,7,15.71,1,1,0,0,0,7.3,15.63Zm2.41.24h.1a2.33,2.33,0,0,0,2.16-1,4.39,4.39,0,0,0,.82-2.45,2.36,2.36,0,0,0-1-2.24A4,4,0,0,0,9,9.4a3.2,3.2,0,0,0-2.58,1.82,3.72,3.72,0,0,0-.2,2.46,2.35,2.35,0,0,0,1.47,1.86s.07,0,.06,0c0,.2.15.17.26.18s.46.05.69.1.6,0,.83.21c0,0,.08,0,.13,0Zm3.87-6.24.08-.06c.09-.12.18-.23.26-.35A3.05,3.05,0,0,0,14,5.68,1.77,1.77,0,0,0,13.17,5a3,3,0,0,0-2.4.19L11.85,6S12,6,12,6c.26,0,.52,0,.78,0a1.17,1.17,0,0,1,1.1.9,1.45,1.45,0,0,1-.48,1.72.26.26,0,0,0-.09.19C13.41,9.09,13.5,9.35,13.58,9.63Z"/><path d="M6.11,8.46a.74.74,0,0,1,.74.76A.78.78,0,0,1,6.1,10a.73.73,0,0,1-.74-.74A.78.78,0,0,1,6.11,8.46Z"/><path d="M10.73,14.8l-.3-.66c-.34.15-.67.29-1,.45A.3.3,0,0,1,9,14.5c-.17-.22-.37-.42-.57-.65l.41-.3c.16.17.32.33.47.5a.16.16,0,0,0,.25,0c.21-.12.42-.23.64-.33a.55.55,0,0,0,.25-.31.79.79,0,0,0-.17-1,8.84,8.84,0,0,1-.6-.77.2.2,0,0,1,0-.31A2.79,2.79,0,0,0,9.94,11a.2.2,0,0,1,.26-.11l1.36.32a.39.39,0,0,1,.21.17,6.12,6.12,0,0,1,.31.56,7.8,7.8,0,0,1-.71.7,1.67,1.67,0,0,0-.46.88.71.71,0,0,0,.09.63l.9-.38a2.25,2.25,0,0,1,.08.33.15.15,0,0,1-.08.14Z"/><path d="M10.44,19.31l.2,0L10.75,21c.23-.05.45-.08.67-.14a8.85,8.85,0,0,0,2.12-1,18,18,0,0,0,3.22-2.32,8.6,8.6,0,0,0,2.07-2.92.88.88,0,0,0,.06-.29,1.4,1.4,0,0,1-.1.16,13,13,0,0,1-.92,1.16,2.1,2.1,0,0,1-2.83.24,3.38,3.38,0,0,1-1.28-1.54,1.42,1.42,0,0,1-.08-.18l0,0a4.7,4.7,0,0,1-2.73,2.33c0,.06.06.11,0,.15a.27.27,0,0,0,.14.38.16.16,0,0,1,0,.13c0,.43-.08.87-.13,1.3a.71.71,0,0,1-.07.18,2.52,2.52,0,0,1-.29-.12c-.4-.26-.81-.52-1.2-.79a1,1,0,0,0-.78-.21c.16.2.33.38.48.59a4.67,4.67,0,0,1,.95,3.25.49.49,0,0,1-.13.27c-.21.23-.43.44-.69.71,0-.28,0-.5-.07-.73-.15-1-.3-2-.47-3a3.82,3.82,0,0,0-.26-.74.94.94,0,0,0-.23-.32c-.25-.21-.41-.18-.59.08A4.06,4.06,0,0,0,7,19.31,10.64,10.64,0,0,0,6.92,22l-1-.51s0-.09-.06-.15a3.74,3.74,0,0,1,.2-1.93,6.44,6.44,0,0,1,1.15-2l.16-.19a1.48,1.48,0,0,0-.32-.05c-.64.08-1.28.16-1.93.26-.3,0-.3.05-.23-.24a.89.89,0,0,0,0-.23V16l-.47-.12c0,.3-.1.58-.16.86a12.57,12.57,0,0,1-1,2.92,7.2,7.2,0,0,1-.8,1.18,1.27,1.27,0,0,1-.88.46v-.21a2,2,0,0,0,1.19-1,9.85,9.85,0,0,0,1.08-2.67,10.67,10.67,0,0,0,.41-3.22,2.45,2.45,0,0,0,0-.25l-.35.22a2,2,0,0,1-2.16,0,.32.32,0,0,1-.17-.31c0-1.76,0-3.53,0-5.29a2.68,2.68,0,0,1,.15-1,5,5,0,0,0,.17-.87,2.89,2.89,0,0,1,.53-1.23,1.58,1.58,0,0,1,2.38-.22.45.45,0,0,0,.37.09,5.49,5.49,0,0,0,.86-.38.22.22,0,0,0,0-.4,5.68,5.68,0,0,0-1.82-1A2.68,2.68,0,0,0,2,3.8l-.19.14-.19.13a.3.3,0,0,1,.13-.39,2.94,2.94,0,0,1,3-.28c.48.22.92.54,1.39.81a.77.77,0,0,0,.36.12,9.65,9.65,0,0,1,4,.84.36.36,0,0,0,.27,0,4,4,0,0,1,1.92-.4,2.1,2.1,0,0,1,1.61.94A3.39,3.39,0,0,1,14,10a.39.39,0,0,0-.1.37c.07.53.12,1.05.18,1.58,0,.06,0,.12,0,.21l.25-.15a5.65,5.65,0,0,1,2.87-.93,2.25,2.25,0,0,1,1.68.62,1.75,1.75,0,0,1,.5,1.63,7.11,7.11,0,0,1-2,4,15.62,15.62,0,0,1-3.22,2.5c-.45.28-.91.55-1.39.8a4.94,4.94,0,0,1-2,.68V22.5h-.21ZM7.5,15.83a2.42,2.42,0,0,1-1.09-1.2,4.22,4.22,0,0,1-.27-2.53,3.54,3.54,0,0,1,4.23-2.7,4.17,4.17,0,0,1,2.32,1.24,1,1,0,0,1,.06-.27.45.45,0,0,1,.21-.2c.06,0,.16.1.21.17a.71.71,0,0,1-.13.86A4.63,4.63,0,0,1,12,15.63a3.59,3.59,0,0,0,1.26-1.28,4.92,4.92,0,0,0,.55-3.19,10.32,10.32,0,0,0-1.52-4.22,3.71,3.71,0,0,0-1.22-1.21A8.17,8.17,0,0,0,7.26,4.59c-.27,0-.54,0-.79,0A1.1,1.1,0,0,1,6.29,5,1.91,1.91,0,0,1,5,5.47a.51.51,0,0,0-.34.11L2.1,7.35A.31.31,0,0,0,2,7.46c-.09.2-.18.41-.26.62A8.4,8.4,0,0,1,4.46,15.5c.28.07.55.07.81.13.63.14,1.28.2,1.92.28A1,1,0,0,0,7.5,15.83Zm2.41.24H10a2.33,2.33,0,0,0,2.16-1A4.39,4.39,0,0,0,13,12.58a2.36,2.36,0,0,0-1-2.24A3.94,3.94,0,0,0,9.18,9.6a3.17,3.17,0,0,0-2.57,1.82,3.72,3.72,0,0,0-.2,2.46,2.33,2.33,0,0,0,1.46,1.85l.07,0c0,.2.15.17.26.18s.46.05.69.09.6,0,.83.22c0,0,.08,0,.13,0Zm3.87-6.24.08-.06c.09-.12.18-.23.26-.36a3,3,0,0,0,.06-3.53,1.72,1.72,0,0,0-.81-.72,3,3,0,0,0-2.4.19c.37.3.72.59,1.08.87,0,0,.12,0,.18,0a6.78,6.78,0,0,1,.78,0,1.16,1.16,0,0,1,1.1.89,1.48,1.48,0,0,1-.48,1.73c-.05,0-.11.13-.09.19C13.61,9.29,13.7,9.55,13.78,9.83Z"/><path d="M6.31,8.66a.74.74,0,0,1,.74.76.8.8,0,0,1-.75.79.73.73,0,0,1-.74-.74A.78.78,0,0,1,6.31,8.66Z"/><path d="M10.93,15l-.3-.67c-.34.16-.67.3-1,.46a.3.3,0,0,1-.46-.09c-.17-.22-.37-.42-.57-.65l.41-.3c.16.17.32.33.47.5a.17.17,0,0,0,.25,0c.21-.12.42-.23.64-.33a.55.55,0,0,0,.25-.31.78.78,0,0,0-.18-1c-.22-.24-.39-.52-.59-.77a.2.2,0,0,1,0-.31,2.87,2.87,0,0,0,.28-.43.2.2,0,0,1,.26-.1l1.36.32a.35.35,0,0,1,.21.17,5,5,0,0,1,.31.56c-.24.24-.46.49-.71.7a1.67,1.67,0,0,0-.46.88.71.71,0,0,0,.09.63l.9-.38a2.25,2.25,0,0,1,.08.33.17.17,0,0,1-.08.14Z"/></g><g class="cls-3"><path d="M10.1,19l.2,0,.11,1.73c.23-.05.45-.08.67-.14a8.85,8.85,0,0,0,2.12-1,18,18,0,0,0,3.22-2.32,8.6,8.6,0,0,0,2.07-2.92.88.88,0,0,0,.06-.29,1.4,1.4,0,0,1-.1.16,13,13,0,0,1-.92,1.16,2.1,2.1,0,0,1-2.83.24A3.38,3.38,0,0,1,13.42,14a1.42,1.42,0,0,1-.08-.18l-.05,0a4.7,4.7,0,0,1-2.73,2.33c0,.06.06.11,0,.15a.27.27,0,0,0,.14.38.16.16,0,0,1,0,.13c0,.43-.08.87-.13,1.3a.71.71,0,0,1-.07.18,2.52,2.52,0,0,1-.29-.12c-.4-.26-.81-.52-1.2-.79a1,1,0,0,0-.78-.21c.16.2.33.38.48.59a4.67,4.67,0,0,1,1,3.25.49.49,0,0,1-.13.27c-.21.23-.43.44-.69.71,0-.28,0-.5-.07-.73-.15-1-.3-2-.47-3a3.82,3.82,0,0,0-.26-.74.94.94,0,0,0-.23-.32c-.25-.21-.41-.18-.59.08A4.06,4.06,0,0,0,6.64,19a10.2,10.2,0,0,0-.06,2.71l-1-.51s0-.09-.06-.15a3.74,3.74,0,0,1,.2-1.93,6.44,6.44,0,0,1,1.15-2L7,16.94a1.48,1.48,0,0,0-.32-.05c-.64.08-1.29.16-1.93.26-.3,0-.3.05-.23-.24a.89.89,0,0,0,0-.23V15.62l-.47-.12c0,.3-.1.58-.16.86a12.57,12.57,0,0,1-1,2.92,7.2,7.2,0,0,1-.8,1.18,1.27,1.27,0,0,1-.88.46v-.21a2,2,0,0,0,1.19-1A9.85,9.85,0,0,0,3.52,17a10.67,10.67,0,0,0,.41-3.22c0-.07,0-.14,0-.25l-.35.22a2,2,0,0,1-2.16,0,.32.32,0,0,1-.17-.31c0-1.76,0-3.53,0-5.29a2.68,2.68,0,0,1,.15-1,5,5,0,0,0,.17-.87A2.89,2.89,0,0,1,2.1,5,1.58,1.58,0,0,1,4.48,4.8a.45.45,0,0,0,.37.09,5.49,5.49,0,0,0,.86-.38.22.22,0,0,0,0-.4,5.68,5.68,0,0,0-1.82-1,2.68,2.68,0,0,0-2.27.35l-.19.14-.19.13a.3.3,0,0,1,.13-.39,2.94,2.94,0,0,1,3-.28c.48.22.92.54,1.38.81A.85.85,0,0,0,6.18,4a9.65,9.65,0,0,1,4,.84.36.36,0,0,0,.27,0,4,4,0,0,1,1.92-.4A2.1,2.1,0,0,1,14,5.36a3.39,3.39,0,0,1-.36,4.27.39.39,0,0,0-.1.37c.07.53.12,1.05.18,1.58,0,.06,0,.12,0,.21l.25-.15a5.56,5.56,0,0,1,2.87-.93,2.25,2.25,0,0,1,1.68.62,1.75,1.75,0,0,1,.5,1.63,7.11,7.11,0,0,1-2,4,15.62,15.62,0,0,1-3.22,2.5c-.45.28-.91.55-1.39.8a4.94,4.94,0,0,1-2,.68v1.26h-.21ZM7.16,15.49a2.42,2.42,0,0,1-1.09-1.2,4.22,4.22,0,0,1-.27-2.53A3.54,3.54,0,0,1,10,9.06a4.17,4.17,0,0,1,2.32,1.24,1,1,0,0,1,.06-.27.45.45,0,0,1,.21-.2c.06,0,.16.1.21.17a.71.71,0,0,1-.13.86,4.63,4.63,0,0,1-1.06,4.43A3.59,3.59,0,0,0,12.9,14a4.92,4.92,0,0,0,.55-3.19A10.32,10.32,0,0,0,11.93,6.6a3.71,3.71,0,0,0-1.22-1.21A8.21,8.21,0,0,0,6.92,4.25c-.27,0-.54,0-.79,0A1.1,1.1,0,0,1,6,4.61a1.91,1.91,0,0,1-1.3.52.51.51,0,0,0-.34.11L1.76,7a.23.23,0,0,0-.09.11c-.09.2-.18.41-.26.62a8.4,8.4,0,0,1,2.71,7.42c.28.07.55.07.81.13.63.14,1.28.2,1.92.28A1,1,0,0,0,7.16,15.49Zm2.41.24h.1a2.33,2.33,0,0,0,2.16-1,4.39,4.39,0,0,0,.82-2.45,2.35,2.35,0,0,0-1-2.24,3.94,3.94,0,0,0-2.84-.74,3.17,3.17,0,0,0-2.57,1.82,3.72,3.72,0,0,0-.2,2.46,2.33,2.33,0,0,0,1.46,1.85l.07,0c0,.2.15.17.26.18s.46.05.69.09.6,0,.83.22c0,0,.08,0,.13,0Zm3.87-6.24.08-.06c.09-.12.18-.23.26-.36a3,3,0,0,0,.06-3.53A1.72,1.72,0,0,0,13,4.82a3,3,0,0,0-2.4.19c.37.3.72.59,1.08.87,0,0,.12,0,.18,0a6.78,6.78,0,0,1,.78,0,1.16,1.16,0,0,1,1.1.89,1.48,1.48,0,0,1-.48,1.73s-.11.13-.09.19C13.27,9,13.36,9.21,13.44,9.49Z"/><path d="M6,8.32a.74.74,0,0,1,.74.76A.8.8,0,0,1,6,9.87a.73.73,0,0,1-.74-.74A.78.78,0,0,1,6,8.32Z"/><path d="M10.59,14.66l-.3-.67c-.34.16-.67.3-1,.46a.3.3,0,0,1-.46-.09c-.17-.23-.37-.42-.57-.65l.41-.3c.16.17.32.33.47.5a.17.17,0,0,0,.25,0c.21-.12.42-.23.64-.33a.55.55,0,0,0,.25-.31.78.78,0,0,0-.18-1c-.22-.24-.39-.52-.59-.77a.2.2,0,0,1,0-.31,4,4,0,0,0,.28-.43.2.2,0,0,1,.26-.1l1.36.32a.35.35,0,0,1,.21.17,5,5,0,0,1,.31.56c-.24.24-.46.49-.71.7a1.67,1.67,0,0,0-.46.88.71.71,0,0,0,.09.63l.9-.38a2.25,2.25,0,0,1,.08.33.17.17,0,0,1-.08.14Z"/></g><path class="cls-4" d="M10.3,19.17l.2,0,.11,1.73c.23-.05.45-.08.66-.14a8.74,8.74,0,0,0,2.13-1,17.61,17.61,0,0,0,3.22-2.33,8.6,8.6,0,0,0,2.07-2.91.88.88,0,0,0,.06-.29,1.4,1.4,0,0,1-.1.16,12.87,12.87,0,0,1-.92,1.15,2.08,2.08,0,0,1-2.83.24,3.36,3.36,0,0,1-1.29-1.54L13.53,14l0,0a4.76,4.76,0,0,1-2.73,2.33c0,.06.06.11.05.15s-.05.29.13.38,0,.08,0,.13c0,.43-.08.86-.13,1.3a1.57,1.57,0,0,1-.07.18c-.1-.05-.21-.07-.29-.12-.4-.26-.81-.52-1.2-.79a1,1,0,0,0-.79-.21c.17.2.34.38.49.58a4.71,4.71,0,0,1,.95,3.26.57.57,0,0,1-.13.27c-.21.23-.43.44-.69.71,0-.28,0-.51-.07-.73-.15-1-.3-2-.48-3a3.32,3.32,0,0,0-.25-.73.85.85,0,0,0-.24-.32c-.24-.21-.4-.18-.59.07a4.27,4.27,0,0,0-.65,1.75,10.19,10.19,0,0,0-.06,2.71c-.35-.18-.68-.34-1-.51,0,0,0-.1-.06-.15a3.74,3.74,0,0,1,.2-1.93,6.44,6.44,0,0,1,1.15-2l.16-.19a1.48,1.48,0,0,0-.32-.05c-.64.08-1.29.16-1.93.26-.3,0-.31,0-.23-.24a.88.88,0,0,0,0-.23V15.81l-.47-.11c-.06.3-.1.58-.16.86a12.57,12.57,0,0,1-1,2.92,7.89,7.89,0,0,1-.8,1.18,1.27,1.27,0,0,1-.88.46v-.21a2,2,0,0,0,1.19-1,9.91,9.91,0,0,0,1.08-2.68A10.59,10.59,0,0,0,4.13,14c0-.07,0-.13,0-.24L3.77,14a2,2,0,0,1-2.16,0,.3.3,0,0,1-.17-.31c0-1.76,0-3.53,0-5.29a2.88,2.88,0,0,1,.16-1,5,5,0,0,0,.17-.87A2.77,2.77,0,0,1,2.3,5.22,1.58,1.58,0,0,1,4.68,5,.43.43,0,0,0,5,5.08a4.46,4.46,0,0,0,.87-.37.22.22,0,0,0,0-.4,5.68,5.68,0,0,0-1.82-1,2.68,2.68,0,0,0-2.27.35l-.19.13-.19.14a.3.3,0,0,1,.13-.39,2.94,2.94,0,0,1,3-.28c.48.22.92.54,1.38.81a.81.81,0,0,0,.37.12,9.6,9.6,0,0,1,4,.84.45.45,0,0,0,.28,0,4,4,0,0,1,1.92-.4,2,2,0,0,1,1.6.94,3.38,3.38,0,0,1-.35,4.27.37.37,0,0,0-.1.37c.07.53.12,1.05.18,1.58a1.28,1.28,0,0,1,0,.21l.26-.15a5.56,5.56,0,0,1,2.87-.93,2.25,2.25,0,0,1,1.68.62,1.76,1.76,0,0,1,.5,1.62,7.14,7.14,0,0,1-2,4A15,15,0,0,1,14,19.61c-.45.29-.92.56-1.39.81a4.94,4.94,0,0,1-2,.68v1.26h-.21ZM7.36,15.69a2.46,2.46,0,0,1-1.09-1.2A4.22,4.22,0,0,1,6,12a3.54,3.54,0,0,1,4.23-2.7,4.17,4.17,0,0,1,2.32,1.24.9.9,0,0,1,.06-.27.45.45,0,0,1,.21-.2c.06,0,.16.1.2.17a.68.68,0,0,1-.12.85,4.64,4.64,0,0,1-1.06,4.44,3.67,3.67,0,0,0,1.26-1.28A4.92,4.92,0,0,0,13.65,11,10.33,10.33,0,0,0,12.12,6.8a3.71,3.71,0,0,0-1.21-1.22A8.2,8.2,0,0,0,7.12,4.45c-.27,0-.55,0-.79,0a1.1,1.1,0,0,1-.18.36,2,2,0,0,1-1.3.52.57.57,0,0,0-.34.1L2,7.21a.19.19,0,0,0-.08.11c-.1.2-.18.41-.27.61a8.44,8.44,0,0,1,2.72,7.43c.28.07.55.07.81.13.63.14,1.28.2,1.92.28C7.13,15.78,7.22,15.72,7.36,15.69Zm2.4.24h.11a2.33,2.33,0,0,0,2.16-1,4.3,4.3,0,0,0,.81-2.45,2.32,2.32,0,0,0-1-2.24A4,4,0,0,0,9,9.45a3.21,3.21,0,0,0-2.58,1.83,3.65,3.65,0,0,0-.19,2.46,2.33,2.33,0,0,0,1.46,1.85s.07,0,.07,0c0,.2.15.16.26.18s.46,0,.69.09.6,0,.83.22c0,0,.08,0,.12,0Zm3.88-6.24s.06,0,.07-.06A3.07,3.07,0,0,0,14,9.27,3,3,0,0,0,14,5.74,1.72,1.72,0,0,0,13.23,5a3,3,0,0,0-2.4.19l1.08.86s.11,0,.18,0a6.61,6.61,0,0,1,.77,0A1.16,1.16,0,0,1,14,7a1.47,1.47,0,0,1-.49,1.73c-.05,0-.1.13-.08.18C13.46,9.14,13.55,9.41,13.64,9.69Z"/><path class="cls-4" d="M6.16,8.52a.75.75,0,0,1,.75.76.8.8,0,0,1-.76.79.74.74,0,0,1-.74-.74A.79.79,0,0,1,6.16,8.52Z"/><path class="cls-4" d="M10.78,14.86l-.3-.67c-.33.16-.66.29-1,.46a.3.3,0,0,1-.46-.09,8.55,8.55,0,0,0-.57-.65l.41-.31.47.51a.18.18,0,0,0,.25,0c.21-.12.42-.24.64-.34a.5.5,0,0,0,.25-.3.8.8,0,0,0-.18-1c-.22-.23-.39-.51-.6-.76a.21.21,0,0,1,0-.31A4,4,0,0,0,10,11a.21.21,0,0,1,.26-.11c.45.12.9.21,1.35.33a.34.34,0,0,1,.22.17,5.85,5.85,0,0,1,.3.56c-.23.23-.45.49-.7.7a1.61,1.61,0,0,0-.46.87.73.73,0,0,0,.09.64L12,13.8a1.48,1.48,0,0,1,.09.33.17.17,0,0,1-.08.14C11.58,14.47,11.19,14.65,10.78,14.86Z"/></g></g></svg>