<svg xmlns="http://www.w3.org/2000/svg" viewBox="0 0 38.55 24.66"><defs><style>.cls-1{isolation:isolate;}.cls-2{opacity:0.15;}.cls-2,.cls-3{mix-blend-mode:multiply;}.cls-4{fill:#fff;}</style></defs><title>convert-CUSTOMIZE-SVG-03</title><g class="cls-1"><g id="Layer_1" data-name="Layer 1"><g class="cls-2"><path d="M33.29,19.41a.34.34,0,0,1,0-.14.56.56,0,0,1,0-.16H32.6l-1,.05a.26.26,0,0,1-.22-.07c0-.05,0-.15,0-.23a5.35,5.35,0,0,0,.24-.67.54.54,0,0,1,.91-.3c.25.23.45.51.68.76.08.09.11.28.31.19l0,0,.59.45c.08.07.24.09.17.26,0,0,.07.08.11.12l1,.85a2.55,2.55,0,0,1,.24.3c-.73-.06-.84.52-1.14.92A3.59,3.59,0,0,1,34,19.74c-.1.05-.23.06-.28.13a9.18,9.18,0,0,0-1.29,2.58,1.62,1.62,0,0,0,0,1.31c0,.09,0,.24-.07.38a.56.56,0,0,1-.35-.4,2,2,0,0,1,0-1.17,6.3,6.3,0,0,1,1.49-2.8.32.32,0,0,0,.07-.13,12.88,12.88,0,0,0-2.61.54A2,2,0,0,1,33.29,19.41Z"/><path d="M34,3.09c-.11.05-.22.06-.26.12a8.81,8.81,0,0,0-1.33,2.63,1.51,1.51,0,0,0,.08,1.28l-.08.36c-.19,0-.28-.19-.34-.35a2.08,2.08,0,0,1,0-1.21A6.4,6.4,0,0,1,33.61,3.1l.1-.13A13.19,13.19,0,0,0,31,3.56a2,2,0,0,1,2.23-.82l0-.27c-.21,0-.41,0-.62,0s-.71,0-1.06.06-.29-.09-.19-.3a4.08,4.08,0,0,0,.26-.69.53.53,0,0,1,.91-.28c.24.22.43.48.65.72s.12.3.33.23c0,0,0,0,0,0,.19.15.39.29.58.45s.26.08.18.27c0,0,.07.08.11.11l1,.85a2,2,0,0,1,.24.31c-.73-.06-.84.52-1.15,1A4.06,4.06,0,0,1,34,3.09Z"/><path d="M22.56,20.69c-.68-.06-.81.51-1.1,1a3.81,3.81,0,0,1-.56-2.06c-.15-.06-.24,0-.33.14a9.17,9.17,0,0,0-1.26,2.57,1.55,1.55,0,0,0,.09,1.27l-.1.37a.79.79,0,0,1-.4-.69,4,4,0,0,1,.27-1.53,6.5,6.5,0,0,1,1.31-2.17.2.2,0,0,0,.06-.11,11.59,11.59,0,0,0-2.67.57,2.08,2.08,0,0,1,2.29-.81l-.05-.29c-.24,0-.49,0-.74,0s-.61,0-.91.06c-.08,0-.2,0-.22-.07s0-.17,0-.25a5.35,5.35,0,0,0,.24-.67.53.53,0,0,1,.9-.29c.27.26.5.57.75.85.06.06.08.19.21.11s.05,0,.07,0l.7.53s.1.09.09.11,0,.16.1.21l1,.82a2.5,2.5,0,0,1,.22.24Z"/><path d="M19.38,7l-.07.32a.8.8,0,0,1-.41-.68,4,4,0,0,1,.27-1.53,7.23,7.23,0,0,1,1.37-2.29,11.43,11.43,0,0,0-2.63.56,2.05,2.05,0,0,1,2.25-.81l0-.27-.27,0-1.35.07c-.09,0-.22,0-.26-.07s0-.18,0-.26a5.16,5.16,0,0,0,.23-.66.53.53,0,0,1,.9-.29c.27.26.5.57.75.85.06.07.08.19.21.11s.05,0,.07,0l.7.52s.1.09.09.11,0,.16.1.21c.34.28.68.55,1,.84a3.22,3.22,0,0,1,.27.3c-.73-.06-.86.51-1.15,1A3.79,3.79,0,0,1,20.9,3c-.15-.06-.24,0-.33.14a9.17,9.17,0,0,0-1.26,2.57A1.78,1.78,0,0,0,19.38,7Z"/><path d="M7.44,19.43A13.68,13.68,0,0,0,4.8,20,2,2,0,0,1,7,19.22l0-.28a2.62,2.62,0,0,0-.28,0L5.4,19a.94.94,0,0,1-.29-.06,2.14,2.14,0,0,1,.06-.27c.07-.21.17-.41.22-.62a.53.53,0,0,1,.91-.31,9.68,9.68,0,0,1,.73.82c.06.07.08.21.23.13s0,0,.07,0l.67.51c.06,0,.17.06.09.18s.06.09.11.13l1,.81a1.79,1.79,0,0,1,.26.32c-.68,0-.81.54-1.07.95a3.13,3.13,0,0,1-.57-2,.26.26,0,0,0-.35.14,9.29,9.29,0,0,0-1.27,2.61,1.66,1.66,0,0,0,.06,1.18c0,.1,0,.26,0,.42a.64.64,0,0,1-.39-.5,2.57,2.57,0,0,1,.1-1.29,6.41,6.41,0,0,1,1.43-2.59l.06-.06S7.42,19.5,7.44,19.43Z"/><path d="M7.78,3c-.16-.05-.24,0-.33.14A9.29,9.29,0,0,0,6.18,5.72,1.66,1.66,0,0,0,6.24,6.9c0,.1,0,.26,0,.43a.82.82,0,0,1-.43-.78A4,4,0,0,1,6,5.14,6.45,6.45,0,0,1,7.34,3l.07-.08s0,0,0-.09a13.11,13.11,0,0,0-2.64.59A2,2,0,0,1,7,2.57L7,2.3l-.24,0-1.38.07c-.08,0-.22,0-.24-.06a.44.44,0,0,1,0-.27c.07-.21.18-.41.23-.63a.53.53,0,0,1,.91-.31c.27.25.49.55.73.82.06.07.09.21.24.13s0,0,.05,0L8,2.59s0,.1.05.14a.48.48,0,0,0,.09.14c.34.28.68.55,1,.84a1.08,1.08,0,0,1,.25.3c-.68,0-.82.54-1.1,1A3.49,3.49,0,0,1,7.78,3Z"/><path d="M14.84,22.49a.59.59,0,0,1-.6.59.61.61,0,0,1-.59-.6.59.59,0,0,1,.59-.57A.58.58,0,0,1,14.84,22.49Z"/><path d="M23.6,22.91a.57.57,0,0,1,.58-.59.58.58,0,0,1,.6.58.61.61,0,0,1-.6.59A.59.59,0,0,1,23.6,22.91Z"/><path d="M36.61,19a.58.58,0,1,1,0,1.16.58.58,0,1,1,0-1.16Z"/><path d="M10.46,23.67a.57.57,0,0,1-.58-.6.59.59,0,0,1,1.18,0A.58.58,0,0,1,10.46,23.67Z"/><path d="M2.72,2.18a.56.56,0,0,1,.59-.58.6.6,0,0,1,.59.58.61.61,0,0,1-.6.59A.57.57,0,0,1,2.72,2.18Z"/><path d="M14.67,6.09a.58.58,0,0,1-.59.59.6.6,0,0,1-.59-.6.61.61,0,0,1,.59-.58A.59.59,0,0,1,14.67,6.09Z"/><path d="M27.54,4.9a.59.59,0,0,1,.6.59.58.58,0,0,1-.6.58A.58.58,0,0,1,27,5.5.58.58,0,0,1,27.54,4.9Z"/><path d="M23.78,1.72a.6.6,0,0,1,.58.6.59.59,0,0,1-.59.56.57.57,0,0,1-.59-.58A.58.58,0,0,1,23.78,1.72Z"/><path d="M10.61,6.42A.57.57,0,0,1,10,7a.58.58,0,0,1,0-1.16A.56.56,0,0,1,10.61,6.42Z"/><path d="M2.58,3.51l.13,0,0-.19s0,0,0,0L3,3.68a.58.58,0,0,0,.82.19l.63-.35a.73.73,0,0,1,.2-.07,2.39,2.39,0,0,1-.81.75A.7.7,0,0,1,3,4.08a5.52,5.52,0,0,1-.43-.53Z"/><path d="M4.68,20.17a9.72,9.72,0,0,1-.78.66.71.71,0,0,1-1-.13c-.14-.15-.25-.33-.42-.55l.19,0,0-.22.26.35a.58.58,0,0,0,.85.19c.23-.11.45-.24.67-.36l.09,0Z"/><path d="M30.93,20.36c-.21.18-.4.38-.62.54a.81.81,0,0,1-1.26-.17,2.85,2.85,0,0,1-.21-.32l.18-.23.25.33a.58.58,0,0,0,.82.18l.66-.36.12,0Z"/><path d="M30.9,3.68a5.34,5.34,0,0,1-.65.61.77.77,0,0,1-1.14-.13c-.11-.13-.2-.28-.28-.39l.2-.24a3,3,0,0,0,.18.25.62.62,0,0,0,1,.21l.49-.28.19-.07Z"/><path d="M17.79,3.53a7.79,7.79,0,0,1-.77.65A.73.73,0,0,1,16,4a4.83,4.83,0,0,1-.38-.51l.18,0,0-.22c.1.12.17.23.25.33a.61.61,0,0,0,.92.19l.69-.38Z"/><path d="M15.76,20.19l.14-.2.25.34a.58.58,0,0,0,.82.18c.23-.11.46-.24.69-.37l.09,0,0,.05a7.69,7.69,0,0,1-.76.65.73.73,0,0,1-1-.16c-.13-.14-.23-.32-.35-.47Z"/><path d="M27.52,2.32a.32.32,0,0,1,0-.63.33.33,0,0,1,.33.32A.34.34,0,0,1,27.52,2.32Z"/><path d="M25.89,19.78a.29.29,0,0,1-.29.31.32.32,0,0,1-.33-.31.31.31,0,0,1,.31-.3A.3.3,0,0,1,25.89,19.78Z"/><path d="M3.31,6.1a.31.31,0,0,1,0,.62A.32.32,0,0,1,3,6.4.31.31,0,0,1,3.31,6.1Z"/><path d="M35.88,24a.33.33,0,0,1-.31.32.3.3,0,0,1-.31-.3.31.31,0,0,1,.3-.33A.33.33,0,0,1,35.88,24Z"/><path d="M36.19,2.18a.31.31,0,0,1-.31.31.32.32,0,0,1-.32-.32.33.33,0,0,1,.32-.3A.31.31,0,0,1,36.19,2.18Z"/><path d="M3.29,23a.29.29,0,0,1,.32.29.29.29,0,0,1-.3.31.3.3,0,1,1,0-.6Z"/><path d="M12.52,19.59a.32.32,0,0,1,.33-.29.3.3,0,0,1,.29.32.29.29,0,0,1-.32.29A.31.31,0,0,1,12.52,19.59Z"/><path d="M30,22.47a.3.3,0,0,1-.3.31.3.3,0,0,1-.31-.31.31.31,0,1,1,.61,0Z"/><path d="M25.26,7.34A.3.3,0,0,1,25,7a.29.29,0,0,1,.31-.3.31.31,0,0,1,.31.31A.32.32,0,0,1,25.26,7.34Z"/><path d="M21.58,23.29a.3.3,0,0,1-.31-.3.31.31,0,0,1,.29-.33.33.33,0,0,1,.32.31A.32.32,0,0,1,21.58,23.29Z"/><path d="M34.81,6.72a.31.31,0,0,1-.29-.32.32.32,0,0,1,.32-.3.31.31,0,0,1,0,.62Z"/><path d="M11.92,3.09a.31.31,0,1,1,.3-.31A.3.3,0,0,1,11.92,3.09Z"/><path d="M5.48,5.07c-.13.08-.2.16-.26.15a.23.23,0,0,1-.16-.17.22.22,0,0,1,.17-.15C5.29,4.89,5.35,5,5.48,5.07Z"/><path d="M16.09,19.32c-.12.07-.2.15-.26.15s-.12-.11-.17-.17.12-.15.18-.15S16,19.23,16.09,19.32Z"/><path d="M4.42,22.15c-.08-.11-.17-.18-.16-.24s.1-.12.15-.18.16.11.17.17S4.5,22,4.42,22.15Z"/><path d="M17.12,23.06c.08.11.17.18.16.25s-.1.11-.16.17-.15-.11-.16-.17S17,23.18,17.12,23.06Z"/><path d="M27,3.57c-.12.08-.19.17-.25.16s-.12-.1-.18-.16.12-.16.18-.17S26.88,3.48,27,3.57Z"/><path d="M23.43,5.82c-.12.08-.19.17-.25.17A.23.23,0,0,1,23,5.82c0-.05.09-.15.15-.16S23.31,5.74,23.43,5.82Z"/><path d="M10,19.55c-.08-.12-.17-.18-.17-.25s.1-.16.15-.16a.23.23,0,0,1,.17.15C10.17,19.35,10.09,19.42,10,19.55Z"/><path d="M12.34,21.13c-.12.08-.19.17-.25.16s-.12-.1-.17-.16.1-.15.17-.16S12.22,21.05,12.34,21.13Z"/><path d="M16.93,5.4c.09.1.18.17.18.23S17,5.8,17,5.8a.23.23,0,0,1-.17-.15C16.77,5.59,16.86,5.51,16.93,5.4Z"/><path d="M36.2,22.06c.08.12.16.2.16.25s-.11.16-.17.16-.15-.1-.16-.16S36.12,22.18,36.2,22.06Z"/><path d="M36.73,5.38c-.13.07-.2.16-.26.15s-.11-.11-.17-.17.12-.15.18-.15S36.61,5.29,36.73,5.38Z"/><path d="M23.15,19.22c.1.12.19.18.19.24s-.1.17-.16.17-.15-.08-.17-.15S23.08,19.35,23.15,19.22Z"/><path d="M27.14,22.22c.08.12.16.19.15.25s-.1.12-.16.17-.16-.11-.16-.17S27.05,22.34,27.14,22.22Z"/><path d="M28.27,19.41c-.12.08-.2.16-.26.15s-.11-.11-.17-.17.12-.15.18-.15S28.15,19.32,28.27,19.41Z"/><path d="M25,21.21c-.08-.13-.16-.2-.15-.26A.23.23,0,0,1,25,20.8a.22.22,0,0,1,.15.16C25.12,21,25,21.09,25,21.21Z"/><path d="M3,5.36c-.12.09-.19.17-.25.17s-.11-.1-.17-.16.1-.15.16-.16S2.85,5.28,3,5.36Z"/><path d="M10.26,1.55c-.12.09-.19.17-.25.17s-.12-.1-.18-.15.11-.16.17-.17S10.13,1.48,10.26,1.55Z"/><path d="M14.8,1.75c-.12.08-.19.16-.25.15s-.12-.11-.17-.17.11-.15.18-.15S14.69,1.66,14.8,1.75Z"/><path d="M12.24,4.87c-.09-.12-.19-.18-.18-.24a.23.23,0,0,1,.16-.17s.16.09.17.15S12.32,4.75,12.24,4.87Z"/><path d="M1.85,19.54c-.08-.11-.18-.18-.17-.24a.22.22,0,0,1,.16-.16s.16.09.16.15S1.93,19.43,1.85,19.54Z"/><path d="M8.19,23.5c-.12.08-.19.16-.25.15s-.12-.11-.17-.17.12-.14.18-.15S8.08,23.41,8.19,23.5Z"/><path d="M33.48,19.61a.63.63,0,0,1,0-.14.56.56,0,0,1,0-.16H32.8c-.35,0-.69.05-1,.06-.07,0-.18,0-.21-.07s0-.16,0-.23c.08-.23.18-.44.24-.67a.53.53,0,0,1,.91-.3c.25.23.45.51.68.76.08.09.11.27.3.19a.09.09,0,0,1,0,0c.2.15.41.29.6.45s.24.09.17.26c0,0,.06.08.11.11l1,.85a2.52,2.52,0,0,1,.25.31c-.73-.06-.84.51-1.14.92a3.51,3.51,0,0,1-.55-2c-.1,0-.23.06-.28.13a9.15,9.15,0,0,0-1.3,2.57A1.69,1.69,0,0,0,32.7,24c0,.08,0,.24-.07.38a.56.56,0,0,1-.35-.4,2,2,0,0,1,0-1.17A6.3,6.3,0,0,1,33.79,20a.4.4,0,0,0,.07-.13,13.12,13.12,0,0,0-2.62.54A2,2,0,0,1,33.48,19.61Z"/><path d="M34.22,3.29a.68.68,0,0,0-.27.12A9,9,0,0,0,32.63,6a1.51,1.51,0,0,0,.08,1.28l-.08.36a.48.48,0,0,1-.34-.35,2,2,0,0,1,0-1.21A6.35,6.35,0,0,1,33.81,3.3l.1-.14a13.91,13.91,0,0,0-2.68.6,2,2,0,0,1,2.23-.82l0-.28h-.63l-1.05.06c-.24,0-.29-.09-.19-.3a4,4,0,0,0,.25-.69.54.54,0,0,1,.92-.28c.23.21.42.48.65.72s.12.3.33.22l.05,0,.58.44c.08.07.25.09.18.28,0,0,.07.07.11.11l1,.85a2.38,2.38,0,0,1,.24.3c-.73-.06-.84.52-1.15,1A3.91,3.91,0,0,1,34.22,3.29Z"/><path d="M22.76,20.88c-.68-.05-.81.52-1.11,1a3.83,3.83,0,0,1-.55-2.05c-.15-.06-.24,0-.33.14a8.91,8.91,0,0,0-1.26,2.57,1.48,1.48,0,0,0,.09,1.27l-.1.36a.77.77,0,0,1-.4-.68A3.83,3.83,0,0,1,19.37,22a6.5,6.5,0,0,1,1.31-2.17.29.29,0,0,0,.06-.11,11.59,11.59,0,0,0-2.67.57,2.08,2.08,0,0,1,2.29-.81l-.05-.29c-.24,0-.49,0-.74,0s-.61,0-.91.06c-.08,0-.2,0-.22-.07a.37.37,0,0,1,0-.25,5.35,5.35,0,0,0,.24-.67.53.53,0,0,1,.9-.29c.27.26.5.56.75.85.05.06.08.18.21.1l.07,0,.7.53a.35.35,0,0,1,.09.1c-.08.13,0,.16.1.21.33.28.67.55,1,.83a2.61,2.61,0,0,1,.23.24Z"/><path d="M19.57,7.19l-.07.33a.79.79,0,0,1-.4-.69,3.76,3.76,0,0,1,.27-1.52A7.23,7.23,0,0,1,20.74,3a11.51,11.51,0,0,0-2.64.56,2,2,0,0,1,2.25-.81l0-.27a1.1,1.1,0,0,0-.26,0l-1.35.06c-.09,0-.22,0-.26-.06s0-.18,0-.26a5.75,5.75,0,0,0,.23-.66.53.53,0,0,1,.9-.29c.27.26.5.57.75.85.05.06.08.19.21.11s.05,0,.07,0l.7.53a.27.27,0,0,1,.09.11c-.08.13,0,.16.1.21l1,.83c.08.07.14.17.27.31-.73-.06-.86.51-1.16,1a3.87,3.87,0,0,1-.55-2.06c-.15-.06-.24,0-.33.14a9.17,9.17,0,0,0-1.26,2.57A1.81,1.81,0,0,0,19.57,7.19Z"/><path d="M7.64,19.63a13.68,13.68,0,0,0-2.64.6,2,2,0,0,1,2.24-.81l0-.28a2.62,2.62,0,0,0-.28,0l-1.32.06a1.67,1.67,0,0,1-.29-.06c0-.09,0-.19.07-.28a4.39,4.39,0,0,0,.21-.61.54.54,0,0,1,.92-.32c.26.25.48.55.72.83.07.07.09.21.24.12l.07,0,.67.5c.06.05.17.07.09.19s.06.09.1.13l1,.81a1.49,1.49,0,0,1,.26.32c-.68,0-.81.54-1.07.95a3.21,3.21,0,0,1-.58-2c-.15-.06-.25,0-.34.14a9,9,0,0,0-1.27,2.61,1.66,1.66,0,0,0,.06,1.18c0,.1,0,.26,0,.41a.61.61,0,0,1-.39-.5,2.58,2.58,0,0,1,.1-1.29,6.44,6.44,0,0,1,1.43-2.58l.06-.06S7.62,19.7,7.64,19.63Z"/><path d="M8,3.16c-.16-.05-.25,0-.33.15A9,9,0,0,0,6.38,5.92,1.66,1.66,0,0,0,6.44,7.1c0,.1,0,.26,0,.43A.81.81,0,0,1,6,6.74a3.78,3.78,0,0,1,.26-1.4,6.29,6.29,0,0,1,1.3-2.18l.07-.08s0,0,0-.09A13.81,13.81,0,0,0,5,3.57a2.05,2.05,0,0,1,2.24-.8l0-.27-.25,0-1.37.07c-.08,0-.22,0-.24-.06s0-.18,0-.27.18-.42.23-.63a.53.53,0,0,1,.91-.31c.27.25.49.55.73.82.06.07.09.21.23.12l.06,0,.72.54s0,.1,0,.14a.48.48,0,0,0,.09.14c.34.28.68.55,1,.84a1.09,1.09,0,0,1,.24.3c-.67,0-.81.54-1.09,1A3.5,3.5,0,0,1,8,3.16Z"/><path d="M15,22.69a.58.58,0,0,1-.59.59.59.59,0,1,1,0-1.18A.6.6,0,0,1,15,22.69Z"/><path d="M23.8,23.11a.57.57,0,0,1,.58-.6.59.59,0,0,1,.6.59.61.61,0,0,1-.6.59A.59.59,0,0,1,23.8,23.11Z"/><path d="M36.81,19.21a.58.58,0,0,1,.59.59.59.59,0,1,1-.59-.59Z"/><path d="M10.65,23.87a.58.58,0,0,1-.57-.6.59.59,0,0,1,.59-.57.59.59,0,1,1,0,1.17Z"/><path d="M2.92,2.37a.56.56,0,0,1,.59-.57.58.58,0,0,1,.58.58A.6.6,0,0,1,3.5,3,.58.58,0,0,1,2.92,2.37Z"/><path d="M14.87,6.29a.59.59,0,0,1-.59.59.6.6,0,0,1-.59-.6.61.61,0,0,1,.59-.58A.59.59,0,0,1,14.87,6.29Z"/><path d="M27.74,5.1a.59.59,0,0,1,.6.59.58.58,0,0,1-.6.58.59.59,0,1,1,0-1.17Z"/><path d="M24,1.92a.58.58,0,1,1,0,1.16.57.57,0,0,1-.59-.58A.56.56,0,0,1,24,1.92Z"/><path d="M10.81,6.62a.57.57,0,0,1-.6.57.59.59,0,0,1-.58-.58.58.58,0,0,1,.6-.58A.56.56,0,0,1,10.81,6.62Z"/><path d="M2.78,3.71l.13,0,0-.19.06,0,.23.31a.57.57,0,0,0,.82.18c.21-.1.42-.23.63-.34a.77.77,0,0,1,.19-.07,2.47,2.47,0,0,1-.8.75.7.7,0,0,1-.89-.12,5.66,5.66,0,0,1-.43-.54Z"/><path d="M4.87,20.37A8.11,8.11,0,0,1,4.1,21a.71.71,0,0,1-1-.13,6,6,0,0,1-.42-.55l.19,0,0-.22.27.35a.58.58,0,0,0,.85.19c.23-.11.45-.24.67-.36l.09,0Z"/><path d="M31.13,20.56c-.21.18-.4.37-.62.54a.82.82,0,0,1-1.27-.17,2.85,2.85,0,0,1-.21-.32l.19-.23.25.33a.58.58,0,0,0,.82.18c.22-.11.44-.24.66-.36l.11,0Z"/><path d="M31.1,3.88a6.25,6.25,0,0,1-.65.61.77.77,0,0,1-1.14-.13A2.65,2.65,0,0,1,29,4l.2-.24.18.25a.63.63,0,0,0,1,.21l.49-.28.19-.07Z"/><path d="M18,3.73a7.69,7.69,0,0,1-.76.65.73.73,0,0,1-1-.16,4.51,4.51,0,0,1-.38-.51l.18,0,0-.22.25.33a.6.6,0,0,0,.91.19c.24-.12.46-.26.69-.38Z"/><path d="M16,20.39l.14-.2.25.34a.58.58,0,0,0,.82.18c.23-.11.45-.25.68-.37l.1,0,0,.05a7.69,7.69,0,0,1-.76.65.73.73,0,0,1-1-.16c-.13-.15-.23-.32-.35-.48Z"/><path d="M27.72,2.51a.31.31,0,0,1,0-.62.31.31,0,1,1,0,.62Z"/><path d="M26.09,20a.3.3,0,0,1-.3.31.31.31,0,0,1-.32-.31.31.31,0,0,1,.62,0Z"/><path d="M3.51,6.3a.31.31,0,0,1,0,.62.32.32,0,0,1-.32-.32A.31.31,0,0,1,3.51,6.3Z"/><path d="M36.08,24.23a.32.32,0,0,1-.31.31.3.3,0,0,1-.32-.29.32.32,0,0,1,.31-.33A.33.33,0,0,1,36.08,24.23Z"/><path d="M36.39,2.38a.32.32,0,0,1-.31.31.32.32,0,0,1-.32-.32.33.33,0,0,1,.32-.3A.31.31,0,0,1,36.39,2.38Z"/><path d="M3.49,23.18a.31.31,0,1,1-.3.32A.31.31,0,0,1,3.49,23.18Z"/><path d="M12.72,19.79a.31.31,0,0,1,.33-.29.3.3,0,0,1,.29.32.29.29,0,0,1-.32.29A.32.32,0,0,1,12.72,19.79Z"/><path d="M30.17,22.66a.31.31,0,0,1-.3.32.3.3,0,0,1-.31-.31.31.31,0,0,1,.3-.32A.32.32,0,0,1,30.17,22.66Z"/><path d="M25.46,7.54a.31.31,0,0,1,0-.62.31.31,0,0,1,.31.31A.32.32,0,0,1,25.46,7.54Z"/><path d="M21.78,23.48a.29.29,0,0,1-.31-.3.3.3,0,0,1,.29-.32.33.33,0,0,1,.32.31A.3.3,0,0,1,21.78,23.48Z"/><path d="M35,6.92a.32.32,0,0,1-.29-.33A.3.3,0,0,1,35,6.3a.3.3,0,0,1,.29.32A.31.31,0,0,1,35,6.92Z"/><path d="M12.12,3.29a.31.31,0,1,1,0-.61.29.29,0,0,1,.31.29A.29.29,0,0,1,12.12,3.29Z"/><path d="M5.67,5.26c-.12.08-.2.17-.25.16a.23.23,0,0,1-.16-.17.22.22,0,0,1,.17-.15C5.48,5.09,5.55,5.18,5.67,5.26Z"/><path d="M16.29,19.51c-.12.08-.2.16-.26.15s-.12-.1-.17-.16.12-.15.18-.15S16.17,19.43,16.29,19.51Z"/><path d="M4.62,22.35c-.08-.12-.17-.19-.16-.24s.1-.12.15-.18.15.11.16.17S4.7,22.23,4.62,22.35Z"/><path d="M17.32,23.26c.08.11.17.18.16.24s-.1.12-.16.18-.15-.11-.16-.17S17.24,23.37,17.32,23.26Z"/><path d="M27.2,3.77c-.12.08-.19.17-.25.16s-.12-.11-.18-.16.11-.16.18-.17S27.08,3.68,27.2,3.77Z"/><path d="M23.63,6c-.12.09-.19.18-.25.17A.23.23,0,0,1,23.21,6s.1-.15.16-.16S23.5,5.94,23.63,6Z"/><path d="M10.21,19.74c-.08-.11-.17-.17-.17-.24a.22.22,0,0,1,.15-.16.22.22,0,0,1,.17.15C10.37,19.55,10.29,19.62,10.21,19.74Z"/><path d="M12.54,21.33c-.12.08-.19.16-.25.16s-.12-.1-.18-.16.11-.15.18-.16S12.42,21.25,12.54,21.33Z"/><path d="M17.13,5.59c.09.11.18.18.18.24s-.1.17-.16.17S17,5.91,17,5.85,17.05,5.71,17.13,5.59Z"/><path d="M36.4,22.26c.08.12.16.19.15.25a.22.22,0,0,1-.16.16c-.06,0-.15-.1-.16-.16S36.31,22.38,36.4,22.26Z"/><path d="M36.93,5.57c-.13.08-.2.16-.26.15s-.11-.1-.17-.16.12-.15.18-.15S36.81,5.49,36.93,5.57Z"/><path d="M23.35,19.42c.1.12.19.18.19.24a.27.27,0,0,1-.16.17c-.05,0-.15-.09-.17-.15S23.28,19.55,23.35,19.42Z"/><path d="M27.34,22.42c.07.12.16.19.15.25s-.1.11-.16.17-.16-.11-.16-.18S27.25,22.53,27.34,22.42Z"/><path d="M28.47,19.61c-.13.08-.2.16-.26.15s-.11-.11-.17-.17.12-.15.18-.15S28.35,19.52,28.47,19.61Z"/><path d="M25.15,21.41c-.08-.13-.16-.2-.15-.26s.11-.16.16-.15.15.1.16.16S25.23,21.29,25.15,21.41Z"/><path d="M3.17,5.56c-.12.08-.19.17-.25.16s-.12-.09-.17-.15.1-.15.16-.16S3.05,5.48,3.17,5.56Z"/><path d="M10.46,1.75c-.12.09-.19.17-.25.17s-.12-.1-.18-.15.1-.16.17-.17S10.33,1.67,10.46,1.75Z"/><path d="M15,2c-.12.07-.2.16-.25.15s-.12-.11-.18-.17.12-.15.19-.16S14.88,1.86,15,2Z"/><path d="M12.44,5.06c-.09-.11-.19-.17-.18-.23a.22.22,0,0,1,.16-.17c.05,0,.15.09.17.15S12.51,5,12.44,5.06Z"/><path d="M2.05,19.74c-.09-.11-.18-.18-.17-.24A.2.2,0,0,1,2,19.34s.15.09.16.15S2.12,19.62,2.05,19.74Z"/><path d="M8.39,23.7c-.12.08-.19.16-.25.15S8,23.74,8,23.68s.11-.14.18-.15S8.28,23.61,8.39,23.7Z"/></g><g class="cls-3"><path d="M33.14,19.27a.63.63,0,0,1,0-.14.56.56,0,0,1,0-.16h-.66c-.35,0-.69.05-1,.06-.07,0-.18,0-.21-.07s0-.16,0-.23c.08-.23.18-.44.24-.67a.53.53,0,0,1,.91-.3c.25.23.45.51.68.76.08.09.11.27.3.19a.09.09,0,0,1,.05,0c.2.15.41.29.6.45s.24.09.17.26c0,0,.06.08.11.11l1,.85a2.52,2.52,0,0,1,.25.31c-.73-.06-.84.51-1.14.92a3.51,3.51,0,0,1-.55-2c-.1,0-.23.06-.28.13a9.15,9.15,0,0,0-1.3,2.57,1.69,1.69,0,0,0,.06,1.32c0,.08,0,.24-.07.38a.56.56,0,0,1-.35-.4,2,2,0,0,1,0-1.17,6.3,6.3,0,0,1,1.49-2.8.4.4,0,0,0,.07-.13A13.12,13.12,0,0,0,30.9,20,2,2,0,0,1,33.14,19.27Z"/><path d="M33.88,3a.68.68,0,0,0-.27.12A9,9,0,0,0,32.29,5.7,1.51,1.51,0,0,0,32.37,7l-.08.36A.48.48,0,0,1,32,7a2,2,0,0,1,0-1.21A6.35,6.35,0,0,1,33.47,3l.1-.14a14.68,14.68,0,0,0-2.68.59,2,2,0,0,1,2.23-.81l0-.28h-.63c-.35,0-.7,0-1,.06s-.29-.09-.19-.3a4,4,0,0,0,.25-.69.54.54,0,0,1,.92-.28c.23.21.42.48.64.72s.12.3.34.22l0,0,.58.44c.08.07.25.09.18.28,0,0,.07.07.11.11l1,.85a2.38,2.38,0,0,1,.24.3c-.73-.06-.84.52-1.15,1A3.91,3.91,0,0,1,33.88,3Z"/><path d="M22.42,20.54c-.68-.05-.81.52-1.11,1a3.83,3.83,0,0,1-.55-2.05c-.15-.06-.24,0-.33.14a8.91,8.91,0,0,0-1.26,2.57,1.48,1.48,0,0,0,.09,1.27l-.1.36a.77.77,0,0,1-.4-.68A3.83,3.83,0,0,1,19,21.61a6.5,6.5,0,0,1,1.31-2.17.29.29,0,0,0,.06-.11,11.59,11.59,0,0,0-2.67.57A2.08,2.08,0,0,1,20,19.09L20,18.8c-.24,0-.49,0-.74,0s-.61,0-.91.06c-.08,0-.2,0-.22-.07a.37.37,0,0,1,0-.25,5.35,5.35,0,0,0,.24-.67.53.53,0,0,1,.9-.29c.27.26.5.56.75.85.05.06.08.18.21.1l.07,0,.7.53a.35.35,0,0,1,.09.1c-.08.13,0,.16.1.21.33.28.67.55,1,.83a2.61,2.61,0,0,1,.23.24Z"/><path d="M19.23,6.85l-.07.33a.79.79,0,0,1-.4-.69A3.76,3.76,0,0,1,19,5,7.23,7.23,0,0,1,20.4,2.68a11.51,11.51,0,0,0-2.64.56A2,2,0,0,1,20,2.43l0-.27a1.1,1.1,0,0,0-.26,0l-1.35.06c-.09,0-.22,0-.26-.06s0-.18,0-.26.18-.44.23-.66a.53.53,0,0,1,.9-.29c.27.26.5.57.75.85.05.06.08.19.21.11s.05,0,.07,0l.7.53a.27.27,0,0,1,.09.11c-.08.13,0,.16.1.21l1,.83a3.69,3.69,0,0,1,.27.31c-.73-.06-.86.51-1.16,1a3.89,3.89,0,0,1-.55-2.06c-.15-.06-.24,0-.33.14a9.17,9.17,0,0,0-1.26,2.57A1.81,1.81,0,0,0,19.23,6.85Z"/><path d="M7.3,19.29a13.68,13.68,0,0,0-2.64.6,2,2,0,0,1,2.24-.81l-.05-.28a2.62,2.62,0,0,0-.28,0l-1.32.06A1.67,1.67,0,0,1,5,18.79c0-.09,0-.19.07-.28a4.39,4.39,0,0,0,.21-.61.54.54,0,0,1,.92-.32c.26.25.48.55.72.83.07.07.09.21.24.12l.07,0,.67.5c.06.05.17.07.09.19s.06.09.1.13l1,.81a1.49,1.49,0,0,1,.26.32c-.68,0-.81.54-1.07.95a3.21,3.21,0,0,1-.58-2c-.15-.06-.25,0-.34.14A9,9,0,0,0,6,22.23a1.66,1.66,0,0,0,.06,1.18c.05.1,0,.26,0,.41a.61.61,0,0,1-.39-.5A2.58,2.58,0,0,1,5.78,22a6.44,6.44,0,0,1,1.43-2.58l.06-.06S7.28,19.36,7.3,19.29Z"/><path d="M7.64,2.82c-.16,0-.25,0-.33.15A9,9,0,0,0,6,5.58,1.66,1.66,0,0,0,6.1,6.76c.05.1,0,.26,0,.43a.81.81,0,0,1-.43-.79A3.78,3.78,0,0,1,5.9,5,6.29,6.29,0,0,1,7.2,2.82l.07-.08s0,0,0-.09a13.81,13.81,0,0,0-2.64.58,2,2,0,0,1,2.24-.8l-.05-.27a1,1,0,0,0-.25,0l-1.37.07c-.08,0-.22,0-.24-.06S5,2,5,1.88a5.25,5.25,0,0,0,.22-.63A.54.54,0,0,1,6.16.94c.27.25.49.55.73.82.06.07.09.21.23.12l.06,0,.72.54s0,.1,0,.14A.34.34,0,0,0,8,2.73l1,.83a1.33,1.33,0,0,1,.24.31c-.67,0-.81.54-1.09,1A3.5,3.5,0,0,1,7.64,2.82Z"/><path d="M14.69,22.35a.57.57,0,0,1-.59.58.59.59,0,0,1-.59-.59.61.61,0,0,1,.59-.58A.6.6,0,0,1,14.69,22.35Z"/><path d="M23.46,22.77a.57.57,0,0,1,.58-.6.59.59,0,0,1,.6.59.61.61,0,0,1-.6.59A.59.59,0,0,1,23.46,22.77Z"/><path d="M36.47,18.87a.58.58,0,0,1,.59.59.59.59,0,1,1-.59-.59Z"/><path d="M10.31,23.53a.58.58,0,0,1-.57-.6.59.59,0,0,1,.59-.57.59.59,0,1,1,0,1.17Z"/><path d="M2.58,2a.56.56,0,0,1,.59-.57A.58.58,0,0,1,3.75,2a.6.6,0,0,1-.59.59A.58.58,0,0,1,2.58,2Z"/><path d="M14.53,6a.59.59,0,0,1-.59.59.6.6,0,0,1-.59-.6.61.61,0,0,1,.59-.58A.59.59,0,0,1,14.53,6Z"/><path d="M27.4,4.76a.59.59,0,0,1,.6.59.58.58,0,0,1-.6.58.59.59,0,1,1,0-1.17Z"/><path d="M23.63,1.58a.58.58,0,1,1,0,1.16A.57.57,0,0,1,23,2.16.56.56,0,0,1,23.63,1.58Z"/><path d="M10.47,6.28a.57.57,0,0,1-.6.57.59.59,0,0,1-.58-.58.58.58,0,0,1,.6-.58A.56.56,0,0,1,10.47,6.28Z"/><path d="M2.44,3.37l.13,0,0-.19.06,0,.23.31a.57.57,0,0,0,.82.18c.21-.1.41-.23.63-.34a1.35,1.35,0,0,1,.19-.08,2.4,2.4,0,0,1-.8.76.7.7,0,0,1-.89-.12,5.66,5.66,0,0,1-.43-.54Z"/><path d="M4.53,20a8.11,8.11,0,0,1-.77.66.71.71,0,0,1-1-.13A6,6,0,0,1,2.38,20l.19,0,0-.22.27.35a.58.58,0,0,0,.85.19c.23-.11.45-.24.67-.36l.09,0Z"/><path d="M30.79,20.22c-.21.18-.4.37-.62.54a.82.82,0,0,1-1.27-.17,2.85,2.85,0,0,1-.21-.32l.19-.23.25.33a.58.58,0,0,0,.82.18c.22-.11.44-.24.66-.36l.11-.05Z"/><path d="M30.76,3.54a6.25,6.25,0,0,1-.65.61A.77.77,0,0,1,29,4a2.65,2.65,0,0,1-.28-.39l.2-.24.18.25a.63.63,0,0,0,1,.21l.5-.28.19-.07Z"/><path d="M17.64,3.39a7.69,7.69,0,0,1-.76.65.73.73,0,0,1-1-.16,4.51,4.51,0,0,1-.38-.51l.18,0,0-.22L16,3.5a.6.6,0,0,0,.91.19c.24-.12.46-.26.69-.39Z"/><path d="M15.62,20.05l.14-.2.25.34a.58.58,0,0,0,.82.18c.23-.11.45-.25.68-.37l.1,0,0,.05a7.69,7.69,0,0,1-.76.65.73.73,0,0,1-1-.16c-.13-.15-.23-.32-.35-.48Z"/><path d="M27.38,2.17a.31.31,0,0,1,0-.62.31.31,0,1,1,0,.62Z"/><path d="M25.75,19.64a.3.3,0,0,1-.3.31.31.31,0,0,1-.32-.31.3.3,0,0,1,.31-.3A.3.3,0,0,1,25.75,19.64Z"/><path d="M3.17,6a.31.31,0,0,1,0,.62.32.32,0,0,1-.32-.32A.31.31,0,0,1,3.17,6Z"/><path d="M35.74,23.89a.32.32,0,0,1-.31.31.3.3,0,0,1-.32-.29.32.32,0,0,1,.31-.33A.34.34,0,0,1,35.74,23.89Z"/><path d="M36.05,2a.32.32,0,0,1-.31.31A.32.32,0,0,1,35.42,2a.33.33,0,0,1,.32-.3A.31.31,0,0,1,36.05,2Z"/><path d="M3.15,22.84a.31.31,0,1,1-.3.32A.31.31,0,0,1,3.15,22.84Z"/><path d="M12.38,19.45a.31.31,0,0,1,.33-.29.31.31,0,1,1,0,.61A.32.32,0,0,1,12.38,19.45Z"/><path d="M29.83,22.32a.31.31,0,0,1-.31.32.3.3,0,0,1-.3-.31.31.31,0,0,1,.3-.32A.32.32,0,0,1,29.83,22.32Z"/><path d="M25.12,7.2a.31.31,0,0,1,0-.62.31.31,0,0,1,.31.31A.32.32,0,0,1,25.12,7.2Z"/><path d="M21.44,23.14a.3.3,0,0,1-.32-.3.32.32,0,0,1,.3-.32.33.33,0,0,1,.32.31A.3.3,0,0,1,21.44,23.14Z"/><path d="M34.67,6.58a.32.32,0,0,1-.29-.33A.3.3,0,0,1,34.7,6a.3.3,0,0,1,.29.32A.31.31,0,0,1,34.67,6.58Z"/><path d="M11.78,3a.31.31,0,1,1,0-.61.29.29,0,0,1,.31.29A.29.29,0,0,1,11.78,3Z"/><path d="M5.33,4.92c-.12.08-.2.17-.25.16a.23.23,0,0,1-.16-.17.22.22,0,0,1,.17-.15S5.21,4.84,5.33,4.92Z"/><path d="M16,19.17c-.13.08-.2.16-.26.15s-.12-.1-.17-.16.11-.15.18-.15S15.83,19.09,16,19.17Z"/><path d="M4.28,22c-.08-.12-.17-.19-.16-.24s.1-.12.15-.18.15.11.16.17S4.36,21.89,4.28,22Z"/><path d="M17,22.92c.08.11.17.18.16.24s-.1.12-.16.18-.15-.11-.16-.17S16.9,23,17,22.92Z"/><path d="M26.86,3.43c-.12.08-.19.17-.25.16s-.12-.11-.18-.16.11-.16.18-.17S26.74,3.34,26.86,3.43Z"/><path d="M23.29,5.67c-.12.09-.19.18-.25.17a.23.23,0,0,1-.17-.16s.1-.15.16-.16S23.16,5.59,23.29,5.67Z"/><path d="M9.87,19.4c-.08-.11-.17-.18-.17-.24A.22.22,0,0,1,9.85,19a.22.22,0,0,1,.17.15C10,19.21,10,19.28,9.87,19.4Z"/><path d="M12.2,21c-.12.08-.19.16-.25.16s-.12-.1-.18-.16.11-.15.18-.16S12.08,20.9,12.2,21Z"/><path d="M16.79,5.25c.09.11.18.18.18.24s-.1.17-.16.17-.17-.09-.17-.15S16.71,5.37,16.79,5.25Z"/><path d="M36.06,21.92c.08.12.16.19.15.25s-.1.16-.16.16-.15-.1-.16-.16S36,22,36.06,21.92Z"/><path d="M36.59,5.23c-.13.08-.2.16-.26.15s-.11-.1-.17-.16.12-.15.18-.15S36.47,5.15,36.59,5.23Z"/><path d="M23,19.08c.1.12.19.18.19.24a.27.27,0,0,1-.16.17c-.05,0-.15-.09-.17-.15S22.94,19.21,23,19.08Z"/><path d="M27,22.08c.07.12.16.19.15.25s-.1.11-.16.17-.16-.11-.16-.18S26.91,22.19,27,22.08Z"/><path d="M28.13,19.27c-.13.08-.2.16-.26.15s-.11-.11-.17-.17.12-.15.18-.15S28,19.18,28.13,19.27Z"/><path d="M24.81,21.07c-.08-.13-.16-.2-.15-.26s.11-.16.16-.15.15.1.16.16S24.89,21,24.81,21.07Z"/><path d="M2.83,5.22c-.12.08-.19.17-.25.16s-.12-.09-.17-.15.1-.15.16-.16S2.71,5.14,2.83,5.22Z"/><path d="M10.12,1.41c-.12.09-.19.17-.25.17s-.12-.1-.18-.15.1-.16.17-.17S10,1.33,10.12,1.41Z"/><path d="M14.66,1.61c-.12.07-.2.16-.25.15s-.12-.11-.18-.17.12-.15.19-.16S14.54,1.52,14.66,1.61Z"/><path d="M12.1,4.72c-.09-.11-.19-.17-.18-.23a.2.2,0,0,1,.16-.17c.05,0,.15.09.17.15S12.17,4.6,12.1,4.72Z"/><path d="M1.71,19.4c-.09-.11-.18-.18-.17-.24A.2.2,0,0,1,1.7,19c.05,0,.15.09.16.15S1.78,19.28,1.71,19.4Z"/><path d="M8.05,23.36c-.12.07-.19.16-.25.15s-.12-.11-.18-.17.12-.14.19-.15S7.94,23.27,8.05,23.36Z"/></g><path class="cls-4" d="M33.34,19.46c0-.06,0-.09-.05-.13s0-.08,0-.16c-.23,0-.45,0-.66,0s-.69,0-1,.06c-.07,0-.18,0-.21-.07s0-.16,0-.23c.08-.23.18-.45.24-.68a.53.53,0,0,1,.91-.29c.25.23.45.5.68.75.08.1.11.28.3.2l0,0,.6.46c.08.06.24.09.16.26,0,0,.07.08.12.11l1,.85a2.52,2.52,0,0,1,.25.31c-.73-.06-.84.51-1.14.92a3.44,3.44,0,0,1-.55-2.05c-.11.05-.23.06-.28.13a8.89,8.89,0,0,0-1.3,2.57,1.68,1.68,0,0,0,0,1.32c.05.08,0,.24-.06.38a.58.58,0,0,1-.35-.4,2,2,0,0,1,0-1.17,6.39,6.39,0,0,1,1.49-2.81.27.27,0,0,0,.07-.12,12.32,12.32,0,0,0-2.62.54A2,2,0,0,1,33.34,19.46Z"/><path class="cls-4" d="M34.08,3.14c-.11,0-.23.07-.27.13A8.9,8.9,0,0,0,32.49,5.9a1.48,1.48,0,0,0,.08,1.27l-.08.37a.48.48,0,0,1-.34-.35,2,2,0,0,1,0-1.21,6.16,6.16,0,0,1,1.51-2.82l.1-.14a13.28,13.28,0,0,0-2.69.59,2,2,0,0,1,2.23-.81V2.52h-.63l-1.05.06c-.24,0-.29-.08-.19-.29a4,4,0,0,0,.25-.69.54.54,0,0,1,.91-.29c.24.22.43.49.65.73s.12.3.34.22l.05,0,.58.44c.08.07.25.09.18.28,0,0,.07.07.11.11l1,.85c.07.07.13.16.24.3-.73-.06-.84.52-1.15,1A4,4,0,0,1,34.08,3.14Z"/><path class="cls-4" d="M22.62,20.74c-.69,0-.81.52-1.11,1A3.78,3.78,0,0,1,21,19.67c-.15-.05-.24,0-.33.15a8.91,8.91,0,0,0-1.26,2.57,1.49,1.49,0,0,0,.08,1.26l-.09.37a.77.77,0,0,1-.4-.68,3.83,3.83,0,0,1,.27-1.53,6.48,6.48,0,0,1,1.31-2.18.27.27,0,0,0,.06-.11,11.81,11.81,0,0,0-2.68.58,2.11,2.11,0,0,1,2.29-.82l0-.29h-.75l-.9.05c-.08,0-.2,0-.22-.06a.37.37,0,0,1,0-.25,6,6,0,0,0,.24-.67.53.53,0,0,1,.89-.3c.28.27.51.57.76.86.05.06.08.18.21.1s.05,0,.07,0l.7.53s.09.09.08.1,0,.16.11.21l1,.83a2.61,2.61,0,0,1,.23.24Z"/><path class="cls-4" d="M19.43,7.05l-.07.33a.79.79,0,0,1-.4-.69,3.83,3.83,0,0,1,.27-1.53A7.11,7.11,0,0,1,20.6,2.88,11.51,11.51,0,0,0,18,3.44a2,2,0,0,1,2.25-.81l0-.27a1.1,1.1,0,0,0-.26,0c-.45,0-.9.05-1.35.06a.35.35,0,0,1-.26-.06c0-.06,0-.18,0-.27s.18-.43.23-.65a.52.52,0,0,1,.89-.29c.28.26.51.57.76.85.05.06.08.19.21.1l.07,0,.7.53s.09.09.08.1,0,.16.11.21c.33.29.67.56,1,.84a3.69,3.69,0,0,1,.27.31c-.73-.06-.86.51-1.16,1A3.8,3.8,0,0,1,21,3c-.15-.06-.24,0-.33.14a9.17,9.17,0,0,0-1.26,2.57A1.76,1.76,0,0,0,19.43,7.05Z"/><path class="cls-4" d="M7.5,19.49a14.44,14.44,0,0,0-2.64.59,2,2,0,0,1,2.24-.8l0-.28-.29,0-1.31.07A1.67,1.67,0,0,1,5.16,19a2.86,2.86,0,0,1,.07-.28,4.39,4.39,0,0,0,.21-.61.53.53,0,0,1,.92-.32c.26.25.48.55.72.83.06.06.09.21.24.12s0,0,.07,0l.67.5c0,.05.17.07.08.19l.11.13,1,.8a1.54,1.54,0,0,1,.27.33c-.69,0-.81.54-1.07,1a3.15,3.15,0,0,1-.58-2c-.16-.06-.25,0-.34.14a9,9,0,0,0-1.27,2.61A1.63,1.63,0,0,0,6.3,23.6c0,.11,0,.27,0,.42a.64.64,0,0,1-.4-.5A2.47,2.47,0,0,1,6,22.23a6.26,6.26,0,0,1,1.43-2.58l.06-.06S7.48,19.56,7.5,19.49Z"/><path class="cls-4" d="M7.84,3c-.16,0-.25,0-.33.15A9,9,0,0,0,6.24,5.78,1.66,1.66,0,0,0,6.3,7c0,.1,0,.26,0,.43a.85.85,0,0,1-.43-.79A4,4,0,0,1,6.1,5.2,6.12,6.12,0,0,1,7.4,3l.07-.08s0,0,0-.09a13,13,0,0,0-2.63.58,2,2,0,0,1,2.23-.8l0-.27a1,1,0,0,0-.25,0c-.46,0-.91.05-1.37.06a.36.36,0,0,1-.25,0,.45.45,0,0,1,0-.27c.07-.21.17-.42.22-.63a.53.53,0,0,1,.92-.31c.26.25.48.54.72.82.07.07.1.21.24.12l.06,0,.71.54s0,.1.06.14a.34.34,0,0,0,.09.14l1,.83a1.33,1.33,0,0,1,.24.31c-.67,0-.81.54-1.09,1A3.52,3.52,0,0,1,7.84,3Z"/><path class="cls-4" d="M14.89,22.55a.57.57,0,0,1-.59.58.58.58,0,0,1-.59-.59A.61.61,0,0,1,14.3,22,.6.6,0,0,1,14.89,22.55Z"/><path class="cls-4" d="M23.66,23a.57.57,0,0,1,.58-.6.59.59,0,0,1,.59.59.58.58,0,0,1-.59.58A.57.57,0,0,1,23.66,23Z"/><path class="cls-4" d="M36.67,19.07a.58.58,0,0,1,.59.58.59.59,0,0,1-.61.58.58.58,0,0,1-.57-.58A.57.57,0,0,1,36.67,19.07Z"/><path class="cls-4" d="M10.51,23.73a.59.59,0,0,1,0-1.17.6.6,0,0,1,.59.59A.61.61,0,0,1,10.51,23.73Z"/><path class="cls-4" d="M2.77,2.23a.57.57,0,0,1,.6-.57A.58.58,0,0,1,4,2.24a.59.59,0,1,1-1.18,0Z"/><path class="cls-4" d="M14.73,6.14a.6.6,0,0,1-.59.6.61.61,0,0,1-.59-.6.59.59,0,0,1,.58-.58A.58.58,0,0,1,14.73,6.14Z"/><path class="cls-4" d="M27.6,5a.59.59,0,1,1,0,1.17A.59.59,0,1,1,27.6,5Z"/><path class="cls-4" d="M23.83,1.78a.58.58,0,1,1,0,1.16.57.57,0,0,1-.59-.58A.56.56,0,0,1,23.83,1.78Z"/><path class="cls-4" d="M10.67,6.47a.56.56,0,0,1-.6.57.57.57,0,0,1-.58-.57.58.58,0,0,1,.6-.58A.57.57,0,0,1,10.67,6.47Z"/><path class="cls-4" d="M2.64,3.56l.13,0,0-.18.06,0,.23.31a.57.57,0,0,0,.81.18c.22-.1.42-.23.63-.34,0,0,.11,0,.2-.08a2.4,2.4,0,0,1-.8.76A.71.71,0,0,1,3,4.14a4.43,4.43,0,0,1-.43-.54Z"/><path class="cls-4" d="M4.73,20.23a6.79,6.79,0,0,1-.77.65.69.69,0,0,1-1-.13c-.14-.15-.26-.33-.42-.54l.18,0L2.81,20c.11.14.18.25.27.35a.58.58,0,0,0,.85.19l.67-.36a.32.32,0,0,1,.09,0Z"/><path class="cls-4" d="M31,20.42c-.21.18-.4.37-.62.54a.82.82,0,0,1-1.27-.17,2.85,2.85,0,0,1-.21-.32l.19-.23.25.33a.57.57,0,0,0,.81.18c.23-.11.45-.24.67-.37l.11,0Z"/><path class="cls-4" d="M31,3.74a7.55,7.55,0,0,1-.65.61.77.77,0,0,1-1.14-.13,3.93,3.93,0,0,1-.29-.4l.2-.23.19.25a.62.62,0,0,0,1,.21l.5-.28.19-.08Z"/><path class="cls-4" d="M17.84,3.59a6.79,6.79,0,0,1-.77.65.73.73,0,0,1-1-.16c-.13-.15-.23-.32-.37-.51l.18,0,0-.22.25.33a.6.6,0,0,0,.91.19l.69-.39Z"/><path class="cls-4" d="M15.82,20.25l.14-.2.25.34a.57.57,0,0,0,.81.18c.24-.11.46-.25.69-.37l.1,0,0,.06a7.79,7.79,0,0,1-.77.65.72.72,0,0,1-1-.16c-.13-.15-.23-.32-.35-.48Z"/><path class="cls-4" d="M27.58,2.37a.31.31,0,1,1,.31-.31A.32.32,0,0,1,27.58,2.37Z"/><path class="cls-4" d="M26,19.83a.31.31,0,0,1-.3.32.32.32,0,0,1-.33-.31.33.33,0,0,1,.32-.31A.31.31,0,0,1,26,19.83Z"/><path class="cls-4" d="M3.36,6.15a.32.32,0,0,1,0,.63.32.32,0,0,1-.31-.33A.32.32,0,0,1,3.36,6.15Z"/><path class="cls-4" d="M35.93,24.09a.31.31,0,0,1-.62,0,.31.31,0,1,1,.62,0Z"/><path class="cls-4" d="M36.24,2.24a.29.29,0,0,1-.3.3.3.3,0,0,1-.32-.31.32.32,0,0,1,.32-.3A.3.3,0,0,1,36.24,2.24Z"/><path class="cls-4" d="M3.35,23a.31.31,0,1,1,0,.61A.32.32,0,0,1,3,23.36.33.33,0,0,1,3.35,23Z"/><path class="cls-4" d="M12.58,19.65a.31.31,0,0,1,.33-.29.3.3,0,0,1,.29.32.31.31,0,0,1-.62,0Z"/><path class="cls-4" d="M30,22.52a.3.3,0,0,1-.31.31.3.3,0,0,1-.31-.3.31.31,0,1,1,.62,0Z"/><path class="cls-4" d="M25.32,7.39a.29.29,0,0,1-.3-.31.3.3,0,0,1,.31-.3.32.32,0,0,1,.31.31A.31.31,0,0,1,25.32,7.39Z"/><path class="cls-4" d="M21.64,23.34a.31.31,0,0,1-.32-.3.32.32,0,0,1,.3-.32.3.3,0,0,1,.31.3A.29.29,0,0,1,21.64,23.34Z"/><path class="cls-4" d="M34.87,6.78a.31.31,0,0,1-.29-.33.32.32,0,0,1,.32-.3.32.32,0,0,1,0,.63Z"/><path class="cls-4" d="M12,3.14a.29.29,0,0,1-.32-.29.31.31,0,0,1,.61,0A.28.28,0,0,1,12,3.14Z"/><path class="cls-4" d="M5.53,5.12c-.12.08-.2.17-.26.16a.23.23,0,0,1-.15-.17c0-.05.1-.15.16-.16S5.41,5,5.53,5.12Z"/><path class="cls-4" d="M16.15,19.37c-.13.08-.2.16-.26.15s-.12-.1-.18-.16.12-.15.19-.15S16,19.29,16.15,19.37Z"/><path class="cls-4" d="M4.48,22.21c-.09-.12-.17-.19-.17-.25s.1-.12.16-.17.15.1.16.17S4.56,22.09,4.48,22.21Z"/><path class="cls-4" d="M17.18,23.11c.08.12.17.19.16.25s-.1.12-.16.18-.15-.11-.16-.17S17.1,23.23,17.18,23.11Z"/><path class="cls-4" d="M27.06,3.62c-.12.09-.19.17-.25.17s-.12-.11-.18-.16.11-.16.18-.17S26.94,3.54,27.06,3.62Z"/><path class="cls-4" d="M23.49,5.87c-.12.09-.19.18-.25.17a.23.23,0,0,1-.17-.16s.1-.15.16-.16S23.36,5.79,23.49,5.87Z"/><path class="cls-4" d="M10.07,19.6c-.08-.11-.17-.18-.17-.24a.26.26,0,0,1,.15-.17.23.23,0,0,1,.17.15C10.23,19.41,10.15,19.48,10.07,19.6Z"/><path class="cls-4" d="M12.4,21.18c-.12.09-.19.17-.25.17s-.12-.1-.18-.16.11-.15.17-.16S12.28,21.1,12.4,21.18Z"/><path class="cls-4" d="M17,5.45c.08.11.18.18.17.24a.17.17,0,0,1-.33,0C16.83,5.64,16.91,5.57,17,5.45Z"/><path class="cls-4" d="M36.26,22.12c.08.12.16.19.15.25s-.11.16-.16.16a.25.25,0,0,1-.16-.17C36.08,22.31,36.17,22.24,36.26,22.12Z"/><path class="cls-4" d="M36.79,5.43c-.13.08-.2.16-.26.15s-.11-.11-.17-.17.12-.14.18-.14S36.67,5.35,36.79,5.43Z"/><path class="cls-4" d="M23.21,19.28c.09.11.19.18.18.24a.23.23,0,0,1-.15.17.25.25,0,0,1-.17-.15C23.06,19.48,23.14,19.41,23.21,19.28Z"/><path class="cls-4" d="M27.19,22.28c.08.11.17.19.16.25s-.11.11-.16.17-.16-.11-.17-.18S27.11,22.39,27.19,22.28Z"/><path class="cls-4" d="M28.33,19.47c-.13.07-.2.15-.26.14s-.11-.1-.17-.16.12-.15.18-.16S28.21,19.38,28.33,19.47Z"/><path class="cls-4" d="M25,21.26c-.08-.12-.16-.19-.15-.25s.11-.16.16-.15.15.1.16.16S25.09,21.15,25,21.26Z"/><path class="cls-4" d="M3,5.42c-.12.08-.19.17-.25.16s-.12-.1-.18-.15.11-.16.17-.16S2.9,5.34,3,5.42Z"/><path class="cls-4" d="M10.31,1.61c-.12.09-.18.17-.24.17s-.12-.1-.18-.15.1-.16.16-.17S10.19,1.53,10.31,1.61Z"/><path class="cls-4" d="M14.86,1.81c-.12.07-.2.15-.26.14s-.11-.1-.17-.16.12-.15.18-.16S14.74,1.72,14.86,1.81Z"/><path class="cls-4" d="M12.3,4.92c-.09-.11-.19-.17-.18-.23a.23.23,0,0,1,.15-.18c.06,0,.16.1.18.16S12.37,4.8,12.3,4.92Z"/><path class="cls-4" d="M1.91,19.6c-.09-.11-.18-.18-.18-.24s.1-.16.16-.16.16.09.17.15S2,19.48,1.91,19.6Z"/><path class="cls-4" d="M8.25,23.55c-.12.08-.2.17-.26.16s-.11-.11-.17-.17.12-.15.19-.15S8.14,23.47,8.25,23.55Z"/></g></g></svg>