<svg xmlns="http://www.w3.org/2000/svg" viewBox="0 0 38.55 24.66"><defs><style>.cls-1{isolation:isolate;}.cls-2{opacity:0.15;}.cls-2,.cls-3{mix-blend-mode:multiply;}.cls-4{fill:#fff;}</style></defs><title>convert-CUSTOMIZE-SVG-03</title><g class="cls-1"><g id="Layer_1" data-name="Layer 1"><g class="cls-2"><path d="M3.19,18.9a.53.53,0,0,1-.52.53.54.54,0,0,1-.53-.5.53.53,0,0,1,.51-.54A.54.54,0,0,1,3.19,18.9Z"/><path d="M28.74,18.92a.52.52,0,0,1-.53.51.52.52,0,1,1,0-1A.53.53,0,0,1,28.74,18.92Z"/><path d="M35.88,18.39a.55.55,0,0,1,.53.53.54.54,0,0,1-.54.51.52.52,0,0,1,0-1Z"/><path d="M21.07,18.9a.52.52,0,0,1-.52.53.52.52,0,0,1,0-1A.52.52,0,0,1,21.07,18.9Z"/><path d="M10.33,18.39a.52.52,0,1,1-.52.52A.52.52,0,0,1,10.33,18.39Z"/><path d="M13.41,18.92a.53.53,0,0,1-.54.51.52.52,0,0,1,0-1A.53.53,0,0,1,13.41,18.92Z"/><path d="M7.78,4.91a.51.51,0,1,1,0-1,.49.49,0,0,1,.51.5A.5.5,0,0,1,7.78,4.91Z"/><path d="M17.48,18.92a.52.52,0,0,1,.51-.53.54.54,0,0,1,.53.52.53.53,0,0,1-.51.52A.52.52,0,0,1,17.48,18.92Z"/><path d="M16,4.39a.5.5,0,0,1-.52.52.49.49,0,0,1-.51-.5.49.49,0,0,1,.51-.52A.5.5,0,0,1,16,4.39Z"/><path d="M5.74,18.92a.52.52,0,0,1-.52.51.52.52,0,1,1,0-1A.52.52,0,0,1,5.74,18.92Z"/><path d="M25.66,21.22a.51.51,0,1,1-.52.5A.51.51,0,0,1,25.66,21.22Z"/><path d="M2.66,2.09a.52.52,0,0,1-.52-.52.53.53,0,0,1,1,0A.52.52,0,0,1,2.66,2.09Z"/><path d="M20.56,2.09A.52.52,0,0,1,20,1.58a.53.53,0,0,1,.51-.52.52.52,0,0,1,.53.51A.51.51,0,0,1,20.56,2.09Z"/><path d="M23.11,4.91a.5.5,0,0,1-.52-.52.5.5,0,0,1,.51-.5.49.49,0,0,1,.52.49A.5.5,0,0,1,23.11,4.91Z"/><path d="M28.21,2.09a.52.52,0,0,1-.52-.52.53.53,0,0,1,1,0A.52.52,0,0,1,28.21,2.09Z"/><path d="M12.88,1.06a.53.53,0,0,1,.53.53.52.52,0,0,1-.52.5.53.53,0,0,1-.53-.5A.53.53,0,0,1,12.88,1.06Z"/><path d="M18,22.24a.51.51,0,1,1,0-1,.51.51,0,1,1,0,1Z"/><path d="M18,2.09a.5.5,0,0,1-.51-.53.52.52,0,0,1,.52-.5.53.53,0,0,1,.52.51A.52.52,0,0,1,18,2.09Z"/><path d="M5.21,2.09a.51.51,0,0,1-.51-.51.52.52,0,1,1,.51.51Z"/><path d="M10.32,4.91a.51.51,0,0,1-.51-.53.5.5,0,0,1,.53-.49.51.51,0,1,1,0,1Z"/><path d="M10.32,2.09a.51.51,0,0,1-.51-.53.52.52,0,0,1,.53-.5.52.52,0,1,1,0,1Z"/><path d="M33.32,21.22a.51.51,0,1,1-.51.51A.5.5,0,0,1,33.32,21.22Z"/><path d="M30.76,22.24a.51.51,0,0,1,0-1,.51.51,0,1,1,0,1Z"/><path d="M25.14,18.9a.53.53,0,0,1,.52-.51.52.52,0,1,1,0,1A.53.53,0,0,1,25.14,18.9Z"/><path d="M2.67,21.22a.51.51,0,1,1,0,1,.51.51,0,1,1,0-1Z"/><path d="M35.89,21.22a.51.51,0,1,1,0,1,.51.51,0,0,1-.52-.5A.52.52,0,0,1,35.89,21.22Z"/><path d="M12.87,22.24a.51.51,0,0,1-.51-.51.52.52,0,0,1,.54-.51.51.51,0,0,1,.51.51A.52.52,0,0,1,12.87,22.24Z"/><path d="M35.87,4.91a.51.51,0,0,1-.51-.51.5.5,0,0,1,.53-.51.51.51,0,0,1,.52.51A.53.53,0,0,1,35.87,4.91Z"/><path d="M25.66,4.91a.52.52,0,0,1-.52-.52.51.51,0,0,1,.52-.5.51.51,0,1,1,0,1Z"/><path d="M28.21,4.91a.52.52,0,0,1-.52-.51.51.51,0,0,1,.54-.51.51.51,0,0,1,.51.51A.52.52,0,0,1,28.21,4.91Z"/><path d="M10.33,21.22a.51.51,0,0,1,.52.52.5.5,0,0,1-.51.5.51.51,0,1,1,0-1Z"/><path d="M7.77,1.06a.51.51,0,0,1,.52.5.52.52,0,0,1-1,0A.52.52,0,0,1,7.77,1.06Z"/><path d="M23.62,21.73a.52.52,0,1,1-.5-.51A.5.5,0,0,1,23.62,21.73Z"/><path d="M28.2,22.24a.52.52,0,0,1-.51-.51.53.53,0,0,1,.54-.51.52.52,0,0,1,.51.51A.51.51,0,0,1,28.2,22.24Z"/><path d="M18,4.91a.52.52,0,0,1-.52-.52.49.49,0,0,1,.51-.5.5.5,0,0,1,.53.51A.51.51,0,0,1,18,4.91Z"/><path d="M33.84,4.39a.5.5,0,0,1-.52.52.51.51,0,0,1-.51-.51.52.52,0,0,1,1,0Z"/><path d="M35.88,2.09a.52.52,0,0,1-.52-.52.53.53,0,0,1,.54-.51.54.54,0,0,1,.51.51A.52.52,0,0,1,35.88,2.09Z"/><path d="M20.55,22.24a.51.51,0,1,1,.52-.5A.51.51,0,0,1,20.55,22.24Z"/><path d="M12.89,3.89a.51.51,0,0,1,.52.5.53.53,0,0,1-1.05,0A.51.51,0,0,1,12.89,3.89Z"/><path d="M5.22,21.22a.51.51,0,1,1-.52.5A.51.51,0,0,1,5.22,21.22Z"/><path d="M16,1.58a.52.52,0,0,1-1,0,.5.5,0,0,1,.51-.51A.52.52,0,0,1,16,1.58Z"/><path d="M23.09,2.09a.52.52,0,1,1,.53-.49A.5.5,0,0,1,23.09,2.09Z"/><path d="M26.18,1.58a.51.51,0,0,1-.51.51.52.52,0,0,1-.53-.52.53.53,0,0,1,.52-.51A.52.52,0,0,1,26.18,1.58Z"/><path d="M33.32,2.09a.51.51,0,0,1-.51-.53.52.52,0,0,1,.52-.5.5.5,0,0,1,.51.53A.51.51,0,0,1,33.32,2.09Z"/><path d="M23.62,18.9a.52.52,0,0,1-.51.53.52.52,0,1,1,0-1A.51.51,0,0,1,23.62,18.9Z"/><path d="M31.29,4.39a.51.51,0,0,1-.52.52.5.5,0,0,1-.51-.51.52.52,0,0,1,1,0Z"/><path d="M16,18.92a.52.52,0,1,1-1,0,.51.51,0,0,1,.51-.51A.52.52,0,0,1,16,18.92Z"/><path d="M20.56,4.91a.51.51,0,1,1,0-1,.5.5,0,0,1,.53.51A.51.51,0,0,1,20.56,4.91Z"/><path d="M8.29,18.92a.51.51,0,0,1-.51.51.52.52,0,0,1-.52-.53.52.52,0,0,1,.51-.51A.52.52,0,0,1,8.29,18.92Z"/><path d="M2.66,4.91a.53.53,0,0,1-.52-.51.5.5,0,0,1,.53-.51.51.51,0,0,1,.52.5A.52.52,0,0,1,2.66,4.91Z"/><path d="M5.22,4.91a.52.52,0,0,1-.52-.52.52.52,0,1,1,.52.52Z"/><path d="M31.29,18.92a.53.53,0,0,1-.51.51.52.52,0,0,1-.52-.53.51.51,0,0,1,.51-.51A.52.52,0,0,1,31.29,18.92Z"/><path d="M33.84,18.91a.52.52,0,1,1-.5-.52A.51.51,0,0,1,33.84,18.91Z"/><path d="M30.78,1.06a.52.52,0,1,1,0,1,.5.5,0,0,1-.5-.53A.5.5,0,0,1,30.78,1.06Z"/><path d="M8.29,21.74a.52.52,0,0,1-1,0,.52.52,0,0,1,1,0Z"/><path d="M16,21.73a.5.5,0,0,1-.53.51.51.51,0,1,1,.53-.51Z"/><path d="M14.47,23.14a.37.37,0,0,1-.36.37.36.36,0,0,1-.36-.37.34.34,0,0,1,.36-.35A.35.35,0,0,1,14.47,23.14Z"/><path d="M24.76,23.14a.36.36,0,0,1-.35.37.37.37,0,0,1-.37-.36.35.35,0,0,1,.36-.36A.34.34,0,0,1,24.76,23.14Z"/><path d="M37.27,20.75a.37.37,0,0,1-.35-.37.34.34,0,0,1,.36-.35.35.35,0,0,1,.36.36A.38.38,0,0,1,37.27,20.75Z"/><path d="M35.06,20.38a.36.36,0,1,1-.72,0,.35.35,0,0,1,.35-.36A.34.34,0,0,1,35.06,20.38Z"/><path d="M16.69,20a.36.36,0,0,1,.36.36.39.39,0,0,1-.38.36.35.35,0,0,1-.34-.37A.34.34,0,0,1,16.69,20Z"/><path d="M4.17,20.38a.36.36,0,1,1-.72,0,.36.36,0,0,1,.72,0Z"/><path d="M1.25,20a.33.33,0,0,1,.34.36.36.36,0,0,1-.36.36.38.38,0,0,1-.36-.38A.36.36,0,0,1,1.25,20Z"/><path d="M16.69,6.17a.36.36,0,0,1-.37-.35.35.35,0,0,1,.36-.36.37.37,0,0,1,.37.35A.37.37,0,0,1,16.69,6.17Z"/><path d="M3.82,6.17a.36.36,0,0,1-.37-.35.34.34,0,0,1,.35-.36.34.34,0,0,1,.37.34A.36.36,0,0,1,3.82,6.17Z"/><path d="M34.71,6.17a.37.37,0,0,1-.37-.35.36.36,0,0,1,.72,0A.36.36,0,0,1,34.71,6.17Z"/><path d="M4.17,23.15a.36.36,0,1,1-.72,0,.36.36,0,0,1,.72,0Z"/><path d="M11.52,22.79a.34.34,0,0,1,.37.35.37.37,0,0,1-.35.37.37.37,0,0,1-.37-.36A.35.35,0,0,1,11.52,22.79Z"/><path d="M27,22.79a.36.36,0,0,1,.36.35.39.39,0,0,1-.36.37.36.36,0,0,1-.36-.36A.35.35,0,0,1,27,22.79Z"/><path d="M34.7,23.51a.37.37,0,0,1-.36-.36.35.35,0,0,1,.36-.36.34.34,0,0,1,.36.35A.37.37,0,0,1,34.7,23.51Z"/><path d="M1.23,5.46a.33.33,0,0,1,.36.35.34.34,0,0,1-.35.36.37.37,0,0,1-.37-.35A.35.35,0,0,1,1.23,5.46Z"/><path d="M11.54,20a.34.34,0,0,1,.35.36.36.36,0,1,1-.72,0A.34.34,0,0,1,11.54,20Z"/><path d="M14.11,20a.35.35,0,0,1,.36.36.37.37,0,0,1-.36.36.37.37,0,0,1-.36-.37A.34.34,0,0,1,14.11,20Z"/><path d="M21.82,20a.35.35,0,0,1,.37.35.37.37,0,0,1-.35.37.39.39,0,0,1-.38-.36A.36.36,0,0,1,21.82,20Z"/><path d="M24.76,20.39a.37.37,0,0,1-.37.36.38.38,0,0,1-.35-.38.35.35,0,0,1,.37-.34A.34.34,0,0,1,24.76,20.39Z"/><path d="M27,20.75a.37.37,0,0,1-.35-.37.36.36,0,0,1,.72,0A.37.37,0,0,1,27,20.75Z"/><path d="M11.53,3.41a.36.36,0,0,1-.36-.36.35.35,0,0,1,.37-.35.34.34,0,0,1,.35.36A.35.35,0,0,1,11.53,3.41Z"/><path d="M1.25,23.51a.38.38,0,0,1-.38-.35.36.36,0,0,1,.36-.37.34.34,0,0,1,.36.34A.35.35,0,0,1,1.25,23.51Z"/><path d="M27.34,3.05a.36.36,0,1,1-.72,0,.36.36,0,0,1,.72,0Z"/><path d="M9,23.51a.39.39,0,0,1-.36-.37A.37.37,0,0,1,9,22.79a.35.35,0,0,1,.36.36A.37.37,0,0,1,9,23.51Z"/><path d="M14.11,5.46a.35.35,0,0,1,.36.36.36.36,0,0,1-.72,0A.33.33,0,0,1,14.11,5.46Z"/><path d="M21.83,5.46a.34.34,0,0,1,.36.35.36.36,0,0,1-.36.36.37.37,0,0,1-.37-.36A.36.36,0,0,1,21.83,5.46Z"/><path d="M19.62,23.14a.37.37,0,0,1-.36.37.37.37,0,0,1-.37-.36.36.36,0,0,1,.36-.36A.35.35,0,0,1,19.62,23.14Z"/><path d="M24.76,5.82a.36.36,0,0,1-.36.35A.37.37,0,0,1,24,5.81a.35.35,0,0,1,.37-.35A.34.34,0,0,1,24.76,5.82Z"/><path d="M27,6.17a.35.35,0,0,1-.35-.37A.34.34,0,0,1,27,5.46a.34.34,0,0,1,.35.36A.37.37,0,0,1,27,6.17Z"/><path d="M32.12,5.46a.34.34,0,0,1,.36.35.35.35,0,0,1-.35.36.37.37,0,0,1-.37-.36A.36.36,0,0,1,32.12,5.46Z"/><path d="M37.28,23.51a.36.36,0,0,1-.36-.36.34.34,0,0,1,.35-.36.37.37,0,0,1,.37.35A.38.38,0,0,1,37.28,23.51Z"/><path d="M37.28,2.7a.36.36,0,0,1,.36.36.37.37,0,0,1-.36.35.35.35,0,0,1-.36-.36A.34.34,0,0,1,37.28,2.7Z"/><path d="M34.69,3.41A.35.35,0,0,1,34.34,3a.36.36,0,0,1,.72,0A.36.36,0,0,1,34.69,3.41Z"/><path d="M24.41,2.7a.34.34,0,0,1,.35.36.35.35,0,0,1-.35.35A.36.36,0,0,1,24,3.06.35.35,0,0,1,24.41,2.7Z"/><path d="M19.62,3.05a.37.37,0,0,1-.73,0,.35.35,0,0,1,.36-.34A.34.34,0,0,1,19.62,3.05Z"/><path d="M37.27,6.17a.35.35,0,0,1-.35-.37.33.33,0,0,1,.36-.34.35.35,0,0,1,.36.36A.37.37,0,0,1,37.27,6.17Z"/><path d="M14.47,3a.37.37,0,0,1-.36.37.35.35,0,0,1-.36-.36.33.33,0,0,1,.34-.35A.35.35,0,0,1,14.47,3Z"/><path d="M6.75,20.38a.37.37,0,0,1-.36.37A.36.36,0,0,1,6,20.41.34.34,0,0,1,6.37,20,.35.35,0,0,1,6.75,20.38Z"/><path d="M9,20.75a.39.39,0,0,1-.36-.37A.37.37,0,0,1,9,20a.35.35,0,0,1,.35.36A.38.38,0,0,1,9,20.75Z"/><path d="M6.38,23.51A.35.35,0,0,1,6,23.14a.34.34,0,0,1,.36-.35.36.36,0,0,1,.36.36A.38.38,0,0,1,6.38,23.51Z"/><path d="M18.89,20.38a.37.37,0,0,1,.73,0,.38.38,0,0,1-.37.37A.38.38,0,0,1,18.89,20.38Z"/><path d="M11.89,5.81a.35.35,0,0,1-.36.36.37.37,0,0,1-.36-.36.35.35,0,0,1,.36-.35A.34.34,0,0,1,11.89,5.81Z"/><path d="M9,6.17a.38.38,0,0,1-.36-.37.37.37,0,0,1,.73,0A.36.36,0,0,1,9,6.17Z"/><path d="M17.05,23.15a.39.39,0,0,1-.37.36.36.36,0,0,1-.36-.37.35.35,0,0,1,.37-.35A.36.36,0,0,1,17.05,23.15Z"/><path d="M6.75,5.8a.37.37,0,0,1-.36.37A.35.35,0,0,1,6,5.83a.33.33,0,0,1,.34-.37A.35.35,0,0,1,6.75,5.8Z"/><path d="M21.83,22.79a.35.35,0,0,1,.36.36.37.37,0,0,1-.37.36.39.39,0,0,1-.36-.37A.37.37,0,0,1,21.83,22.79Z"/><path d="M32.12,20a.34.34,0,0,1,.36.35.36.36,0,0,1-.35.37.38.38,0,0,1-.37-.36A.36.36,0,0,1,32.12,20Z"/><path d="M29.19,23.15a.35.35,0,0,1,.36-.36.37.37,0,0,1,.37.36.39.39,0,0,1-.35.36A.37.37,0,0,1,29.19,23.15Z"/><path d="M3.78,3.41A.36.36,0,0,1,3.45,3a.36.36,0,0,1,.72.06A.35.35,0,0,1,3.78,3.41Z"/><path d="M1.59,3.05a.35.35,0,0,1-.36.36A.37.37,0,0,1,.87,3a.35.35,0,0,1,.36-.34A.33.33,0,0,1,1.59,3.05Z"/><path d="M21.83,3.41a.37.37,0,0,1-.37-.36.37.37,0,0,1,.73,0A.35.35,0,0,1,21.83,3.41Z"/><path d="M9.32,3.05A.36.36,0,0,1,9,3.41a.37.37,0,0,1-.37-.36A.35.35,0,0,1,9,2.7.34.34,0,0,1,9.32,3.05Z"/><path d="M19.25,6.17a.37.37,0,0,1-.36-.37.35.35,0,0,1,.38-.34.34.34,0,0,1,.35.35A.36.36,0,0,1,19.25,6.17Z"/><path d="M32.48,23.14a.35.35,0,0,1-.35.37.38.38,0,0,1-.37-.36.36.36,0,0,1,.36-.36A.34.34,0,0,1,32.48,23.14Z"/><path d="M32.48,3.06a.35.35,0,0,1-.37.35.37.37,0,0,1-.35-.36.35.35,0,0,1,.37-.35A.33.33,0,0,1,32.48,3.06Z"/><path d="M29.56,6.17a.36.36,0,0,1-.37-.36.35.35,0,0,1,.34-.35.36.36,0,0,1,.39.34A.37.37,0,0,1,29.56,6.17Z"/><path d="M6.75,3a.37.37,0,0,1-.36.37A.35.35,0,0,1,6,3.07a.33.33,0,0,1,.34-.37A.35.35,0,0,1,6.75,3Z"/><path d="M29.92,20.39a.38.38,0,0,1-.38.36.36.36,0,0,1-.34-.38.34.34,0,0,1,.38-.34A.37.37,0,0,1,29.92,20.39Z"/><path d="M29.92,3.05a.37.37,0,0,1-.37.36A.35.35,0,0,1,29.2,3a.33.33,0,0,1,.35-.34A.35.35,0,0,1,29.92,3.05Z"/><path d="M17.05,3.05a.37.37,0,0,1-.37.36.36.36,0,0,1-.36-.36.34.34,0,0,1,.36-.35A.35.35,0,0,1,17.05,3.05Z"/><path d="M3.39,19.1a.53.53,0,0,1-.52.53.55.55,0,0,1-.53-.5.53.53,0,0,1,.51-.54A.54.54,0,0,1,3.39,19.1Z"/><path d="M28.94,19.11a.52.52,0,0,1-.53.52.52.52,0,1,1,0-1A.53.53,0,0,1,28.94,19.11Z"/><path d="M36.08,18.59a.52.52,0,0,1,.52.52.52.52,0,1,1-1,0A.52.52,0,0,1,36.08,18.59Z"/><path d="M21.27,19.1a.52.52,0,1,1-.53-.51A.52.52,0,0,1,21.27,19.1Z"/><path d="M10.53,18.59a.52.52,0,0,1,0,1,.52.52,0,0,1-.53-.52A.53.53,0,0,1,10.53,18.59Z"/><path d="M13.61,19.12a.53.53,0,1,1-.52-.53A.53.53,0,0,1,13.61,19.12Z"/><path d="M8,5.11a.51.51,0,0,1-.52-.52.52.52,0,0,1,1,0A.51.51,0,0,1,8,5.11Z"/><path d="M17.68,19.12a.52.52,0,0,1,.51-.53.52.52,0,0,1,0,1A.52.52,0,0,1,17.68,19.12Z"/><path d="M16.15,4.59a.49.49,0,0,1-.51.52.52.52,0,1,1,.51-.52Z"/><path d="M5.94,19.12a.52.52,0,1,1-.52-.53A.53.53,0,0,1,5.94,19.12Z"/><path d="M25.86,21.42a.51.51,0,1,1-.52.5A.51.51,0,0,1,25.86,21.42Z"/><path d="M2.86,2.29a.52.52,0,1,1,.53-.52A.52.52,0,0,1,2.86,2.29Z"/><path d="M20.75,2.29a.52.52,0,0,1-.52-.52.53.53,0,0,1,.51-.51.52.52,0,1,1,0,1Z"/><path d="M23.31,5.11a.52.52,0,1,1,0-1,.49.49,0,0,1,.52.5A.5.5,0,0,1,23.31,5.11Z"/><path d="M28.41,2.29a.52.52,0,0,1-.52-.53.53.53,0,0,1,1.05,0A.52.52,0,0,1,28.41,2.29Z"/><path d="M13.08,1.26a.53.53,0,0,1,.53.52.53.53,0,1,1-.53-.52Z"/><path d="M18.19,22.44a.51.51,0,1,1,0-1,.51.51,0,0,1,.52.51A.52.52,0,0,1,18.19,22.44Z"/><path d="M18.19,2.29a.5.5,0,0,1-.51-.53.51.51,0,0,1,.52-.5.53.53,0,0,1,.52.51A.52.52,0,0,1,18.19,2.29Z"/><path d="M5.41,2.29a.51.51,0,0,1-.51-.51.52.52,0,0,1,.53-.52.52.52,0,1,1,0,1Z"/><path d="M10.52,5.11a.52.52,0,1,1,0-1,.52.52,0,0,1,.51.51A.52.52,0,0,1,10.52,5.11Z"/><path d="M10.52,2.29a.52.52,0,1,1,.53-.52A.52.52,0,0,1,10.52,2.29Z"/><path d="M33.52,21.42a.49.49,0,0,1,.52.51.52.52,0,1,1-.52-.51Z"/><path d="M31,22.44a.49.49,0,0,1-.5-.51.49.49,0,0,1,.52-.51.5.5,0,0,1,.51.51A.51.51,0,0,1,31,22.44Z"/><path d="M25.34,19.1a.52.52,0,1,1,.52.53A.53.53,0,0,1,25.34,19.1Z"/><path d="M2.87,21.42a.51.51,0,1,1-.53.52A.52.52,0,0,1,2.87,21.42Z"/><path d="M36.09,21.42a.51.51,0,1,1-.53.51A.51.51,0,0,1,36.09,21.42Z"/><path d="M13.07,22.44a.53.53,0,0,1-.51-.51.53.53,0,0,1,1,0A.52.52,0,0,1,13.07,22.44Z"/><path d="M36.07,5.11a.52.52,0,1,1,.53-.52A.52.52,0,0,1,36.07,5.11Z"/><path d="M25.86,5.11a.52.52,0,0,1-.52-.53.52.52,0,1,1,.52.53Z"/><path d="M28.41,5.11a.52.52,0,1,1,0-1,.52.52,0,0,1,.51.51A.52.52,0,0,1,28.41,5.11Z"/><path d="M10.52,21.42a.5.5,0,0,1,.53.51.52.52,0,0,1-1,0A.5.5,0,0,1,10.52,21.42Z"/><path d="M8,1.26a.51.51,0,0,1,.52.5A.5.5,0,0,1,8,2.29a.51.51,0,0,1-.52-.5A.5.5,0,0,1,8,1.26Z"/><path d="M23.82,21.93a.52.52,0,0,1-1,0,.52.52,0,0,1,1,0Z"/><path d="M28.4,22.44a.53.53,0,0,1-.51-.51.52.52,0,0,1,.54-.51.51.51,0,0,1,.51.51A.52.52,0,0,1,28.4,22.44Z"/><path d="M18.2,5.11a.52.52,0,1,1,0-1,.52.52,0,0,1,.53.52A.53.53,0,0,1,18.2,5.11Z"/><path d="M34,4.59a.52.52,0,1,1-.51-.51A.5.5,0,0,1,34,4.59Z"/><path d="M36.08,2.29a.52.52,0,1,1,.52-.52A.51.51,0,0,1,36.08,2.29Z"/><path d="M20.75,22.44a.51.51,0,1,1,.52-.5A.51.51,0,0,1,20.75,22.44Z"/><path d="M13.09,4.08a.52.52,0,1,1-.53.52A.53.53,0,0,1,13.09,4.08Z"/><path d="M5.42,21.42a.51.51,0,1,1,0,1,.51.51,0,1,1,0-1Z"/><path d="M16.15,1.78a.49.49,0,0,1-.5.51.5.5,0,0,1-.52-.52.51.51,0,1,1,1,0Z"/><path d="M23.29,2.29a.5.5,0,0,1-.5-.54.52.52,0,0,1,1,.05A.51.51,0,0,1,23.29,2.29Z"/><path d="M26.38,1.78a.52.52,0,0,1-1,0,.53.53,0,0,1,.52-.51A.52.52,0,0,1,26.38,1.78Z"/><path d="M33.52,2.29A.5.5,0,0,1,33,1.76a.52.52,0,0,1,.52-.5.5.5,0,0,1,.51.53A.51.51,0,0,1,33.52,2.29Z"/><path d="M23.82,19.1a.52.52,0,1,1-.51-.51A.51.51,0,0,1,23.82,19.1Z"/><path d="M31.49,4.59a.51.51,0,0,1-.53.52.52.52,0,0,1,0-1A.51.51,0,0,1,31.49,4.59Z"/><path d="M16.15,19.12a.51.51,0,1,1-.51-.53A.5.5,0,0,1,16.15,19.12Z"/><path d="M20.76,5.11a.52.52,0,1,1,0-1,.52.52,0,1,1,0,1Z"/><path d="M8.49,19.12a.52.52,0,0,1-.51.51.52.52,0,0,1-.52-.53A.51.51,0,0,1,8,18.59.52.52,0,0,1,8.49,19.12Z"/><path d="M2.86,5.11a.53.53,0,0,1-.52-.51.53.53,0,0,1,1.05,0A.52.52,0,0,1,2.86,5.11Z"/><path d="M5.42,5.11a.52.52,0,1,1,.52-.53A.52.52,0,0,1,5.42,5.11Z"/><path d="M31.49,19.12a.53.53,0,0,1-.52.51.52.52,0,0,1,0-1A.52.52,0,0,1,31.49,19.12Z"/><path d="M34,19.11a.53.53,0,0,1-.51.52.52.52,0,1,1,.51-.52Z"/><path d="M31,1.26a.52.52,0,1,1,0,1,.51.51,0,0,1-.5-.53A.5.5,0,0,1,31,1.26Z"/><path d="M8.49,21.93a.52.52,0,1,1-1,0,.52.52,0,0,1,1,0Z"/><path d="M16.15,21.93a.49.49,0,0,1-.52.51.5.5,0,0,1-.5-.51.49.49,0,0,1,.52-.51A.49.49,0,0,1,16.15,21.93Z"/><path d="M14.67,23.34a.36.36,0,0,1-.36.36.36.36,0,0,1-.36-.36.34.34,0,0,1,.36-.35A.35.35,0,0,1,14.67,23.34Z"/><path d="M25,23.34A.36.36,0,1,1,24.6,23,.34.34,0,0,1,25,23.34Z"/><path d="M37.47,21a.37.37,0,0,1-.35-.37.34.34,0,0,1,.36-.35.35.35,0,0,1,.36.36A.39.39,0,0,1,37.47,21Z"/><path d="M35.26,20.58a.36.36,0,1,1-.72,0,.34.34,0,0,1,.35-.36A.35.35,0,0,1,35.26,20.58Z"/><path d="M16.89,20.23a.36.36,0,0,1,.36.36.39.39,0,0,1-.38.36.37.37,0,0,1-.35-.38A.34.34,0,0,1,16.89,20.23Z"/><path d="M4.37,20.58A.37.37,0,0,1,4,21a.37.37,0,0,1-.36-.37.36.36,0,0,1,.72,0Z"/><path d="M1.44,20.23a.33.33,0,0,1,.35.36.37.37,0,0,1-.37.36.38.38,0,0,1-.35-.38A.35.35,0,0,1,1.44,20.23Z"/><path d="M16.89,6.37A.36.36,0,0,1,16.52,6a.34.34,0,0,1,.35-.36.36.36,0,0,1,.38.34A.37.37,0,0,1,16.89,6.37Z"/><path d="M4,6.37A.35.35,0,0,1,3.65,6,.34.34,0,0,1,4,5.66.34.34,0,0,1,4.37,6,.36.36,0,0,1,4,6.37Z"/><path d="M34.91,6.37A.36.36,0,0,1,34.54,6a.33.33,0,0,1,.35-.36.34.34,0,0,1,.37.34A.37.37,0,0,1,34.91,6.37Z"/><path d="M4.37,23.35A.36.36,0,0,1,4,23.7a.35.35,0,0,1-.35-.36A.34.34,0,0,1,4,23,.35.35,0,0,1,4.37,23.35Z"/><path d="M11.72,23a.34.34,0,0,1,.37.34.35.35,0,0,1-.35.37.37.37,0,0,1-.37-.35A.34.34,0,0,1,11.72,23Z"/><path d="M27.17,23a.35.35,0,0,1,.37.35.37.37,0,0,1-.36.36.35.35,0,0,1-.36-.36A.34.34,0,0,1,27.17,23Z"/><path d="M34.9,23.7a.36.36,0,0,1-.36-.35A.35.35,0,0,1,34.9,23a.34.34,0,0,1,.36.35A.36.36,0,0,1,34.9,23.7Z"/><path d="M1.43,5.66A.33.33,0,0,1,1.79,6a.35.35,0,0,1-.35.37A.37.37,0,0,1,1.07,6,.35.35,0,0,1,1.43,5.66Z"/><path d="M11.74,20.23a.34.34,0,0,1,.35.36.37.37,0,0,1-.37.36.38.38,0,0,1-.35-.38A.34.34,0,0,1,11.74,20.23Z"/><path d="M14.31,20.23a.35.35,0,0,1,.36.35.38.38,0,0,1-.37.37.37.37,0,0,1-.35-.37A.34.34,0,0,1,14.31,20.23Z"/><path d="M22,20.23a.33.33,0,0,1,.36.34A.35.35,0,0,1,22,21a.39.39,0,0,1-.38-.36A.36.36,0,0,1,22,20.23Z"/><path d="M25,20.59a.37.37,0,0,1-.37.36.38.38,0,0,1-.35-.38.34.34,0,0,1,.37-.34A.33.33,0,0,1,25,20.59Z"/><path d="M27.17,21a.37.37,0,0,1-.35-.38.33.33,0,0,1,.37-.34.34.34,0,0,1,.35.36A.38.38,0,0,1,27.17,21Z"/><path d="M11.72,3.61a.36.36,0,0,1-.35-.37.35.35,0,0,1,.37-.35.36.36,0,0,1,.35.36A.36.36,0,0,1,11.72,3.61Z"/><path d="M1.44,23.7a.36.36,0,0,1-.37-.35A.35.35,0,0,1,1.42,23a.36.36,0,1,1,0,.71Z"/><path d="M27.54,3.25a.37.37,0,0,1-.37.36.36.36,0,0,1-.35-.37.35.35,0,0,1,.35-.35A.36.36,0,0,1,27.54,3.25Z"/><path d="M9.15,23.7a.37.37,0,0,1-.36-.36.37.37,0,1,1,.36.36Z"/><path d="M14.31,5.66a.34.34,0,0,1,.36.35.37.37,0,0,1-.37.36A.35.35,0,0,1,14,6,.33.33,0,0,1,14.31,5.66Z"/><path d="M22,5.66a.33.33,0,0,1,.36.35.35.35,0,0,1-.35.36A.38.38,0,0,1,21.66,6,.35.35,0,0,1,22,5.66Z"/><path d="M19.81,23.34a.35.35,0,0,1-.35.36.37.37,0,0,1-.37-.36.36.36,0,0,1,.36-.35A.34.34,0,0,1,19.81,23.34Z"/><path d="M25,6a.36.36,0,0,1-.36.36A.36.36,0,0,1,24.24,6,.36.36,0,0,1,25,6Z"/><path d="M27.17,6.37A.35.35,0,0,1,26.82,6a.33.33,0,0,1,.37-.34.34.34,0,0,1,.35.36A.37.37,0,0,1,27.17,6.37Z"/><path d="M32.32,5.66a.33.33,0,0,1,.36.35.35.35,0,0,1-.35.36A.37.37,0,0,1,32,6,.36.36,0,0,1,32.32,5.66Z"/><path d="M37.48,23.7a.34.34,0,0,1-.36-.35.33.33,0,0,1,.35-.36.36.36,0,0,1,.37.35A.37.37,0,0,1,37.48,23.7Z"/><path d="M37.48,2.89a.36.36,0,1,1,0,.72.35.35,0,0,1-.36-.36A.35.35,0,0,1,37.48,2.89Z"/><path d="M34.89,3.61a.36.36,0,0,1-.35-.37.36.36,0,1,1,.72,0A.36.36,0,0,1,34.89,3.61Z"/><path d="M24.6,2.89a.36.36,0,0,1,0,.72.36.36,0,1,1,0-.72Z"/><path d="M19.81,3.25a.36.36,0,0,1-.36.36.36.36,0,1,1,0-.72A.35.35,0,0,1,19.81,3.25Z"/><path d="M37.47,6.37A.35.35,0,0,1,37.12,6a.33.33,0,0,1,.36-.34.35.35,0,0,1,.36.36A.37.37,0,0,1,37.47,6.37Z"/><path d="M14.67,3.24a.37.37,0,0,1-.36.37A.36.36,0,0,1,14,3.25a.35.35,0,0,1,.34-.36A.36.36,0,0,1,14.67,3.24Z"/><path d="M7,20.57a.39.39,0,0,1-.36.38.36.36,0,0,1-.36-.35.34.34,0,0,1,.34-.37A.35.35,0,0,1,7,20.57Z"/><path d="M9.15,21a.38.38,0,0,1-.36-.37.37.37,0,0,1,.37-.35.35.35,0,0,1,.36.36A.38.38,0,0,1,9.15,21Z"/><path d="M6.57,23.7a.36.36,0,0,1,0-.71.36.36,0,1,1,0,.71Z"/><path d="M19.09,20.57a.35.35,0,0,1,.38-.34.34.34,0,0,1,.34.35.37.37,0,0,1-.36.37A.38.38,0,0,1,19.09,20.57Z"/><path d="M12.09,6a.36.36,0,0,1-.36.36A.37.37,0,0,1,11.37,6a.34.34,0,0,1,.36-.35A.34.34,0,0,1,12.09,6Z"/><path d="M9.15,6.37A.37.37,0,0,1,8.79,6a.37.37,0,0,1,.73,0A.36.36,0,0,1,9.15,6.37Z"/><path d="M17.25,23.35a.37.37,0,0,1-.38.35.35.35,0,0,1-.35-.36.34.34,0,0,1,.36-.35A.37.37,0,0,1,17.25,23.35Z"/><path d="M7,6a.38.38,0,0,1-.36.37A.35.35,0,0,1,6.23,6a.33.33,0,0,1,.34-.37A.35.35,0,0,1,7,6Z"/><path d="M22,23a.33.33,0,0,1,.35.36.34.34,0,0,1-.36.35.37.37,0,0,1-.36-.36A.36.36,0,0,1,22,23Z"/><path d="M32.32,20.23a.34.34,0,0,1,.36.35.37.37,0,0,1-.35.37.38.38,0,0,1-.37-.36A.36.36,0,0,1,32.32,20.23Z"/><path d="M29.39,23.35a.35.35,0,0,1,.36-.36.37.37,0,0,1,.37.36.38.38,0,0,1-.36.35A.36.36,0,0,1,29.39,23.35Z"/><path d="M4,3.61a.37.37,0,0,1-.33-.39A.34.34,0,0,1,4,2.9a.34.34,0,0,1,.33.38A.37.37,0,0,1,4,3.61Z"/><path d="M1.79,3.25a.35.35,0,0,1-.36.36.37.37,0,0,1-.36-.37.36.36,0,0,1,.36-.35A.35.35,0,0,1,1.79,3.25Z"/><path d="M22,3.61a.37.37,0,0,1-.37-.36A.36.36,0,0,1,22,2.89a.36.36,0,1,1,0,.72Z"/><path d="M9.52,3.25a.37.37,0,0,1-.37.36.37.37,0,0,1-.36-.36.36.36,0,0,1,.37-.36A.36.36,0,0,1,9.52,3.25Z"/><path d="M19.45,6.37A.37.37,0,0,1,19.09,6a.35.35,0,0,1,.38-.34.34.34,0,0,1,.34.35A.35.35,0,0,1,19.45,6.37Z"/><path d="M32.68,23.33a.35.35,0,0,1-.35.37.36.36,0,0,1-.37-.35.36.36,0,0,1,.35-.36A.34.34,0,0,1,32.68,23.33Z"/><path d="M32.68,3.26a.35.35,0,0,1-.37.35A.37.37,0,0,1,32,3.25a.36.36,0,0,1,.37-.36A.35.35,0,0,1,32.68,3.26Z"/><path d="M29.76,6.37A.35.35,0,0,1,29.39,6a.33.33,0,0,1,.34-.35.35.35,0,0,1,.38.34A.37.37,0,0,1,29.76,6.37Z"/><path d="M7,3.24a.37.37,0,0,1-.36.37.35.35,0,0,1-.36-.34.35.35,0,0,1,.34-.38A.37.37,0,0,1,7,3.24Z"/><path d="M30.12,20.59a.39.39,0,0,1-.38.36.37.37,0,0,1-.35-.39.35.35,0,0,1,.39-.33A.36.36,0,0,1,30.12,20.59Z"/><path d="M30.11,3.25a.37.37,0,0,1-.37.36.36.36,0,0,1-.35-.37.36.36,0,0,1,.36-.35A.35.35,0,0,1,30.11,3.25Z"/><path d="M17.25,3.25a.39.39,0,0,1-.37.36.36.36,0,0,1-.36-.36.35.35,0,0,1,.36-.36A.37.37,0,0,1,17.25,3.25Z"/></g><g class="cls-3"><path d="M3.05,18.76a.53.53,0,1,1-.54-.51A.54.54,0,0,1,3.05,18.76Z"/><path d="M28.6,18.77a.52.52,0,0,1-.53.52.52.52,0,1,1,0-1A.53.53,0,0,1,28.6,18.77Z"/><path d="M35.74,18.25a.52.52,0,0,1,.52.52.52.52,0,1,1-1,0A.52.52,0,0,1,35.74,18.25Z"/><path d="M20.93,18.76a.52.52,0,1,1-.53-.51A.52.52,0,0,1,20.93,18.76Z"/><path d="M10.19,18.25a.52.52,0,0,1,0,1,.52.52,0,1,1,0-1Z"/><path d="M13.27,18.78a.53.53,0,1,1-.52-.53A.53.53,0,0,1,13.27,18.78Z"/><path d="M7.64,4.77a.51.51,0,0,1-.52-.52.52.52,0,0,1,1,0A.51.51,0,0,1,7.64,4.77Z"/><path d="M17.34,18.78a.52.52,0,0,1,.51-.53.52.52,0,0,1,0,1A.52.52,0,0,1,17.34,18.78Z"/><path d="M15.81,4.25a.49.49,0,0,1-.51.52.52.52,0,1,1,.51-.52Z"/><path d="M5.6,18.78a.52.52,0,1,1-.52-.53A.53.53,0,0,1,5.6,18.78Z"/><path d="M25.52,21.08a.51.51,0,1,1-.52.5A.51.51,0,0,1,25.52,21.08Z"/><path d="M2.52,2A.52.52,0,0,1,2,1.43.53.53,0,0,1,2.54.92a.52.52,0,0,1,.51.51A.52.52,0,0,1,2.52,2Z"/><path d="M20.41,2a.52.52,0,0,1-.52-.52.52.52,0,0,1,.5-.51.52.52,0,1,1,0,1Z"/><path d="M23,4.77a.52.52,0,0,1,0-1,.49.49,0,0,1,.52.5A.5.5,0,0,1,23,4.77Z"/><path d="M28.07,2a.52.52,0,0,1-.52-.53.53.53,0,0,1,1.05,0A.52.52,0,0,1,28.07,2Z"/><path d="M12.74.92a.53.53,0,0,1,.53.52.53.53,0,1,1-.53-.52Z"/><path d="M17.85,22.1a.51.51,0,1,1,0-1,.51.51,0,0,1,.52.51A.52.52,0,0,1,17.85,22.1Z"/><path d="M17.85,2a.5.5,0,0,1-.51-.53.51.51,0,0,1,.52-.5.53.53,0,0,1,.52.51A.53.53,0,0,1,17.85,2Z"/><path d="M5.07,2a.51.51,0,0,1-.51-.51A.52.52,0,0,1,5.09.92a.52.52,0,1,1,0,1Z"/><path d="M10.18,4.77a.52.52,0,1,1,0-1,.52.52,0,0,1,.51.51A.52.52,0,0,1,10.18,4.77Z"/><path d="M10.18,2a.52.52,0,1,1,.53-.52A.52.52,0,0,1,10.18,2Z"/><path d="M33.18,21.08a.49.49,0,0,1,.52.51.52.52,0,1,1-.52-.51Z"/><path d="M30.62,22.1a.49.49,0,0,1-.5-.51.49.49,0,0,1,.52-.51.5.5,0,0,1,.51.51A.51.51,0,0,1,30.62,22.1Z"/><path d="M25,18.76a.52.52,0,1,1,.52.53A.53.53,0,0,1,25,18.76Z"/><path d="M2.53,21.08a.52.52,0,0,1,.52.5.52.52,0,0,1-.53.52.51.51,0,1,1,0-1Z"/><path d="M35.75,21.08a.51.51,0,1,1-.53.51A.5.5,0,0,1,35.75,21.08Z"/><path d="M12.73,22.1a.53.53,0,0,1-.51-.51.53.53,0,0,1,1,0A.52.52,0,0,1,12.73,22.1Z"/><path d="M35.73,4.77a.52.52,0,1,1,.53-.52A.52.52,0,0,1,35.73,4.77Z"/><path d="M25.52,4.77A.52.52,0,0,1,25,4.24a.52.52,0,1,1,.52.53Z"/><path d="M28.07,4.77a.52.52,0,0,1-.52-.51.53.53,0,0,1,.54-.52.52.52,0,0,1,.51.51A.52.52,0,0,1,28.07,4.77Z"/><path d="M10.18,21.08a.5.5,0,0,1,.53.51.52.52,0,0,1-1,0A.5.5,0,0,1,10.18,21.08Z"/><path d="M7.63.92a.51.51,0,0,1,.52.5.52.52,0,0,1-1,0A.5.5,0,0,1,7.63.92Z"/><path d="M23.48,21.59a.52.52,0,0,1-1,0,.52.52,0,0,1,1,0Z"/><path d="M28.06,22.1a.53.53,0,0,1-.51-.51.52.52,0,0,1,.54-.51.51.51,0,0,1,.51.51A.52.52,0,0,1,28.06,22.1Z"/><path d="M17.86,4.77a.52.52,0,0,1,0-1,.52.52,0,0,1,.53.52A.53.53,0,0,1,17.86,4.77Z"/><path d="M33.7,4.25a.52.52,0,1,1-.51-.51A.5.5,0,0,1,33.7,4.25Z"/><path d="M35.74,2a.52.52,0,1,1,.52-.52A.51.51,0,0,1,35.74,2Z"/><path d="M20.41,22.1a.51.51,0,1,1,.52-.5A.51.51,0,0,1,20.41,22.1Z"/><path d="M12.75,3.74a.52.52,0,1,1,0,1,.51.51,0,0,1-.52-.51A.52.52,0,0,1,12.75,3.74Z"/><path d="M5.08,21.08a.51.51,0,1,1,0,1,.51.51,0,1,1,0-1Z"/><path d="M15.81,1.44a.49.49,0,0,1-.5.51.5.5,0,0,1-.52-.52.51.51,0,1,1,1,0Z"/><path d="M23,2a.5.5,0,0,1-.5-.54.52.52,0,0,1,1,.05A.51.51,0,0,1,23,2Z"/><path d="M26,1.44a.52.52,0,0,1-1,0,.53.53,0,0,1,.52-.51A.52.52,0,0,1,26,1.44Z"/><path d="M33.18,2a.5.5,0,0,1-.51-.53.52.52,0,0,1,.52-.5.5.5,0,0,1,.51.53A.51.51,0,0,1,33.18,2Z"/><path d="M23.48,18.76a.52.52,0,1,1-1,0,.52.52,0,0,1,.52-.53A.51.51,0,0,1,23.48,18.76Z"/><path d="M31.15,4.25a.51.51,0,0,1-.53.52.52.52,0,0,1,0-1A.51.51,0,0,1,31.15,4.25Z"/><path d="M15.81,18.78a.51.51,0,1,1-.51-.53A.5.5,0,0,1,15.81,18.78Z"/><path d="M20.42,4.77a.52.52,0,1,1,0-1,.52.52,0,1,1,0,1Z"/><path d="M8.15,18.78a.52.52,0,0,1-.51.51.52.52,0,0,1-.52-.53.51.51,0,0,1,.51-.51A.52.52,0,0,1,8.15,18.78Z"/><path d="M2.52,4.77A.53.53,0,0,1,2,4.26a.53.53,0,0,1,1,0A.52.52,0,0,1,2.52,4.77Z"/><path d="M5.08,4.77a.52.52,0,1,1,.52-.53A.52.52,0,0,1,5.08,4.77Z"/><path d="M31.15,18.78a.53.53,0,0,1-.52.51.52.52,0,0,1,0-1A.52.52,0,0,1,31.15,18.78Z"/><path d="M33.7,18.77a.53.53,0,0,1-.51.52.52.52,0,1,1,.51-.52Z"/><path d="M30.64.92a.52.52,0,1,1,0,1,.51.51,0,0,1-.5-.53A.5.5,0,0,1,30.64.92Z"/><path d="M8.15,21.59a.52.52,0,1,1-1,0,.52.52,0,0,1,1,0Z"/><path d="M15.81,21.59a.49.49,0,0,1-.52.51.5.5,0,0,1-.5-.52.51.51,0,0,1,1,0Z"/><path d="M14.33,23a.36.36,0,0,1-.36.36.36.36,0,0,1-.36-.36.34.34,0,0,1,.36-.35A.35.35,0,0,1,14.33,23Z"/><path d="M24.62,23a.36.36,0,0,1-.72,0,.35.35,0,0,1,.36-.36A.34.34,0,0,1,24.62,23Z"/><path d="M37.13,20.61a.37.37,0,0,1-.35-.37.34.34,0,0,1,.36-.35.35.35,0,0,1,.36.36A.39.39,0,0,1,37.13,20.61Z"/><path d="M34.92,20.24a.36.36,0,1,1-.72,0,.34.34,0,0,1,.35-.36A.35.35,0,0,1,34.92,20.24Z"/><path d="M16.55,19.89a.36.36,0,0,1,.36.36.39.39,0,0,1-.38.36.37.37,0,0,1-.35-.38A.34.34,0,0,1,16.55,19.89Z"/><path d="M4,20.24a.38.38,0,0,1-.36.37.37.37,0,0,1-.36-.37.36.36,0,0,1,.72,0Z"/><path d="M1.1,19.89a.33.33,0,0,1,.35.36.37.37,0,0,1-.37.36.38.38,0,0,1-.35-.38A.35.35,0,0,1,1.1,19.89Z"/><path d="M16.55,6a.36.36,0,0,1-.37-.35.36.36,0,0,1,.72,0A.36.36,0,0,1,16.55,6Z"/><path d="M3.68,6a.35.35,0,0,1-.37-.35.34.34,0,0,1,.35-.36A.34.34,0,0,1,4,5.66.36.36,0,0,1,3.68,6Z"/><path d="M34.57,6a.36.36,0,0,1-.37-.35.33.33,0,0,1,.35-.36.34.34,0,0,1,.37.34A.37.37,0,0,1,34.57,6Z"/><path d="M4,23a.36.36,0,0,1-.37.35A.35.35,0,0,1,3.31,23a.34.34,0,0,1,.36-.35A.35.35,0,0,1,4,23Z"/><path d="M11.38,22.65a.34.34,0,0,1,.37.34.35.35,0,0,1-.35.37A.37.37,0,0,1,11,23,.34.34,0,0,1,11.38,22.65Z"/><path d="M26.83,22.65a.35.35,0,0,1,.37.35.37.37,0,0,1-.36.36.35.35,0,0,1-.36-.36A.34.34,0,0,1,26.83,22.65Z"/><path d="M34.56,23.36A.36.36,0,0,1,34.2,23a.35.35,0,0,1,.36-.36.34.34,0,0,1,.36.35A.36.36,0,0,1,34.56,23.36Z"/><path d="M1.09,5.32a.33.33,0,0,1,.36.34A.36.36,0,0,1,1.1,6a.37.37,0,0,1-.37-.35A.35.35,0,0,1,1.09,5.32Z"/><path d="M11.4,19.89a.34.34,0,0,1,.35.36.37.37,0,0,1-.37.36.38.38,0,0,1-.35-.38A.34.34,0,0,1,11.4,19.89Z"/><path d="M14,19.89a.35.35,0,0,1,.36.35.38.38,0,0,1-.37.37.37.37,0,0,1-.35-.37A.34.34,0,0,1,14,19.89Z"/><path d="M21.68,19.89a.33.33,0,0,1,.36.34.35.35,0,0,1-.34.38.39.39,0,0,1-.38-.36A.36.36,0,0,1,21.68,19.89Z"/><path d="M24.62,20.25a.37.37,0,0,1-.37.36.38.38,0,0,1-.35-.38.34.34,0,0,1,.37-.34A.33.33,0,0,1,24.62,20.25Z"/><path d="M26.83,20.61a.37.37,0,0,1-.35-.38.33.33,0,0,1,.37-.34.34.34,0,0,1,.35.36A.38.38,0,0,1,26.83,20.61Z"/><path d="M11.38,3.27A.36.36,0,0,1,11,2.9a.35.35,0,0,1,.37-.35.36.36,0,0,1,.35.36A.37.37,0,0,1,11.38,3.27Z"/><path d="M1.1,23.36A.36.36,0,0,1,.73,23a.35.35,0,0,1,.35-.36.36.36,0,1,1,0,.71Z"/><path d="M27.2,2.91a.37.37,0,0,1-.37.36.36.36,0,0,1,0-.72A.36.36,0,0,1,27.2,2.91Z"/><path d="M8.81,23.36A.37.37,0,0,1,8.45,23a.37.37,0,0,1,.73,0A.36.36,0,0,1,8.81,23.36Z"/><path d="M14,5.32a.34.34,0,0,1,.36.35A.37.37,0,0,1,14,6a.35.35,0,0,1-.35-.37A.33.33,0,0,1,14,5.32Z"/><path d="M21.68,5.32a.33.33,0,0,1,.36.35.35.35,0,0,1-.35.36.38.38,0,0,1-.37-.36A.35.35,0,0,1,21.68,5.32Z"/><path d="M19.47,23a.35.35,0,0,1-.35.36.37.37,0,0,1-.37-.36.36.36,0,0,1,.36-.35A.34.34,0,0,1,19.47,23Z"/><path d="M24.62,5.67a.36.36,0,0,1-.36.36.36.36,0,0,1-.36-.36.36.36,0,0,1,.72,0Z"/><path d="M26.83,6a.35.35,0,0,1-.35-.37.33.33,0,0,1,.37-.34.34.34,0,0,1,.35.36A.37.37,0,0,1,26.83,6Z"/><path d="M32,5.32a.33.33,0,0,1,.36.35A.35.35,0,0,1,32,6a.37.37,0,0,1-.37-.36A.36.36,0,0,1,32,5.32Z"/><path d="M37.14,23.36a.34.34,0,0,1-.36-.35.33.33,0,0,1,.35-.36.36.36,0,0,1,.37.35A.37.37,0,0,1,37.14,23.36Z"/><path d="M37.14,2.55a.36.36,0,1,1,0,.72.35.35,0,0,1-.36-.36A.35.35,0,0,1,37.14,2.55Z"/><path d="M34.55,3.27a.36.36,0,0,1-.35-.37.36.36,0,1,1,.72,0A.36.36,0,0,1,34.55,3.27Z"/><path d="M24.26,2.55a.35.35,0,0,1,.36.37.36.36,0,1,1-.36-.37Z"/><path d="M19.47,2.91a.36.36,0,0,1-.36.36.36.36,0,1,1,0-.72A.35.35,0,0,1,19.47,2.91Z"/><path d="M37.13,6a.35.35,0,0,1-.35-.37.33.33,0,0,1,.36-.34.35.35,0,0,1,.36.36A.37.37,0,0,1,37.13,6Z"/><path d="M14.33,2.9a.37.37,0,0,1-.36.37.36.36,0,0,1-.36-.36A.35.35,0,0,1,14,2.55.36.36,0,0,1,14.33,2.9Z"/><path d="M6.61,20.23a.39.39,0,0,1-.36.38.36.36,0,0,1-.36-.35.34.34,0,0,1,.34-.37A.35.35,0,0,1,6.61,20.23Z"/><path d="M8.81,20.61a.38.38,0,0,1-.36-.38.36.36,0,0,1,.37-.34.35.35,0,0,1,.36.36A.38.38,0,0,1,8.81,20.61Z"/><path d="M6.23,23.36A.34.34,0,0,1,5.89,23a.33.33,0,0,1,.36-.34.36.36,0,1,1,0,.71Z"/><path d="M18.75,20.23a.35.35,0,0,1,.38-.34.34.34,0,0,1,.34.35.37.37,0,0,1-.36.37A.38.38,0,0,1,18.75,20.23Z"/><path d="M11.75,5.67a.36.36,0,0,1-.36.36A.37.37,0,0,1,11,5.67a.34.34,0,0,1,.36-.35A.34.34,0,0,1,11.75,5.67Z"/><path d="M8.81,6a.37.37,0,0,1-.36-.37.37.37,0,0,1,.73,0A.36.36,0,0,1,8.81,6Z"/><path d="M16.91,23a.37.37,0,0,1-.38.35.35.35,0,0,1-.35-.36.34.34,0,0,1,.36-.35A.37.37,0,0,1,16.91,23Z"/><path d="M6.61,5.66A.38.38,0,0,1,6.25,6a.35.35,0,0,1-.36-.34.33.33,0,0,1,.34-.37A.35.35,0,0,1,6.61,5.66Z"/><path d="M21.69,22.65A.33.33,0,0,1,22,23a.34.34,0,0,1-.36.35.37.37,0,0,1-.36-.36A.36.36,0,0,1,21.69,22.65Z"/><path d="M32,19.89a.34.34,0,0,1,.36.35.37.37,0,0,1-.35.37.38.38,0,0,1-.37-.36A.35.35,0,0,1,32,19.89Z"/><path d="M29.05,23a.35.35,0,0,1,.36-.36.37.37,0,0,1,.37.36.38.38,0,0,1-.36.35A.36.36,0,0,1,29.05,23Z"/><path d="M3.64,3.27a.37.37,0,0,1-.33-.39.34.34,0,0,1,.39-.32A.34.34,0,0,1,4,2.94.37.37,0,0,1,3.64,3.27Z"/><path d="M1.45,2.91a.35.35,0,0,1-.36.36A.37.37,0,0,1,.73,2.9a.36.36,0,0,1,.36-.35A.35.35,0,0,1,1.45,2.91Z"/><path d="M21.69,3.27a.38.38,0,0,1-.37-.36.36.36,0,0,1,.35-.36.36.36,0,0,1,0,.72Z"/><path d="M9.18,2.91a.37.37,0,0,1-.37.36.37.37,0,0,1-.36-.36.36.36,0,0,1,.37-.36A.36.36,0,0,1,9.18,2.91Z"/><path d="M19.11,6a.37.37,0,0,1-.36-.37.35.35,0,0,1,.38-.34.34.34,0,0,1,.34.35A.36.36,0,0,1,19.11,6Z"/><path d="M32.34,23a.35.35,0,0,1-.35.37.36.36,0,0,1-.37-.35.36.36,0,0,1,.35-.36A.34.34,0,0,1,32.34,23Z"/><path d="M32.34,2.92a.35.35,0,0,1-.37.35.37.37,0,0,1-.35-.36A.36.36,0,0,1,32,2.55.35.35,0,0,1,32.34,2.92Z"/><path d="M29.42,6a.35.35,0,0,1-.37-.36.33.33,0,0,1,.34-.35.35.35,0,0,1,.38.34A.37.37,0,0,1,29.42,6Z"/><path d="M6.61,2.9a.37.37,0,0,1-.36.37.35.35,0,0,1-.36-.34.35.35,0,0,1,.34-.38A.37.37,0,0,1,6.61,2.9Z"/><path d="M29.78,20.25a.39.39,0,0,1-.38.36.37.37,0,0,1-.35-.39.35.35,0,0,1,.39-.33A.36.36,0,0,1,29.78,20.25Z"/><path d="M29.77,2.91a.37.37,0,0,1-.37.36.36.36,0,0,1-.35-.37.36.36,0,0,1,.36-.35A.35.35,0,0,1,29.77,2.91Z"/><path d="M16.9,2.91a.37.37,0,0,1-.36.36.36.36,0,0,1-.36-.36.35.35,0,0,1,.36-.36A.35.35,0,0,1,16.9,2.91Z"/></g><path class="cls-4" d="M3.25,19a.55.55,0,0,1-.52.53A.54.54,0,0,1,2.2,19a.53.53,0,0,1,.51-.54A.53.53,0,0,1,3.25,19Z"/><path class="cls-4" d="M28.8,19a.55.55,0,0,1-.54.52.54.54,0,0,1-.51-.54.53.53,0,0,1,1.05,0Z"/><path class="cls-4" d="M35.94,18.45a.52.52,0,0,1,.52.52.54.54,0,0,1-.53.52.52.52,0,0,1,0-1Z"/><path class="cls-4" d="M21.13,19a.53.53,0,0,1-.52.53.52.52,0,0,1-.52-.53.52.52,0,0,1,1,0Z"/><path class="cls-4" d="M10.39,18.45a.52.52,0,0,1,.52.52.54.54,0,0,1-.51.52.52.52,0,1,1,0-1Z"/><path class="cls-4" d="M13.46,19a.52.52,0,0,1-.53.52.53.53,0,0,1-.51-.52.52.52,0,0,1,.53-.52A.51.51,0,0,1,13.46,19Z"/><path class="cls-4" d="M7.83,5a.51.51,0,0,1-.51-.53.49.49,0,0,1,.51-.5.5.5,0,0,1,.52.5A.51.51,0,0,1,7.83,5Z"/><path class="cls-4" d="M17.53,19a.52.52,0,0,1,.52-.53.52.52,0,0,1,.52.52.52.52,0,0,1-1,0Z"/><path class="cls-4" d="M16,4.44a.51.51,0,1,1-1,0,.51.51,0,0,1,1,0Z"/><path class="cls-4" d="M5.8,19a.52.52,0,0,1-1,0,.52.52,0,0,1,.52-.51A.53.53,0,0,1,5.8,19Z"/><path class="cls-4" d="M25.72,21.28a.51.51,0,1,1,0,1,.51.51,0,0,1-.52-.53A.5.5,0,0,1,25.72,21.28Z"/><path class="cls-4" d="M2.72,2.15a.52.52,0,0,1-.52-.53.52.52,0,0,1,.54-.5.53.53,0,0,1,.51.51A.53.53,0,0,1,2.72,2.15Z"/><path class="cls-4" d="M20.61,2.15a.51.51,0,0,1-.52-.52.52.52,0,0,1,.5-.51.52.52,0,0,1,.54.5A.52.52,0,0,1,20.61,2.15Z"/><path class="cls-4" d="M23.17,5a.52.52,0,1,1,.51-.53A.51.51,0,0,1,23.17,5Z"/><path class="cls-4" d="M28.27,2.15a.52.52,0,0,1-.52-.53.53.53,0,0,1,1.05,0A.52.52,0,0,1,28.27,2.15Z"/><path class="cls-4" d="M12.94,1.12a.52.52,0,0,1,0,1,.53.53,0,0,1-.53-.51A.52.52,0,0,1,12.94,1.12Z"/><path class="cls-4" d="M18,22.3a.53.53,0,0,1-.51-.51.52.52,0,0,1,1,0A.51.51,0,0,1,18,22.3Z"/><path class="cls-4" d="M18.05,2.15a.52.52,0,1,1,0-1,.52.52,0,0,1,0,1Z"/><path class="cls-4" d="M5.27,2.15a.52.52,0,1,1,.53-.5A.52.52,0,0,1,5.27,2.15Z"/><path class="cls-4" d="M10.38,5a.53.53,0,0,1-.51-.54.51.51,0,0,1,.53-.49.52.52,0,0,1,.51.51A.52.52,0,0,1,10.38,5Z"/><path class="cls-4" d="M10.38,2.15a.52.52,0,1,1,0-1,.51.51,0,0,1,.51.51A.52.52,0,0,1,10.38,2.15Z"/><path class="cls-4" d="M33.38,21.28a.49.49,0,0,1,.52.51.52.52,0,1,1-.52-.51Z"/><path class="cls-4" d="M30.82,22.3a.51.51,0,0,1-.51-.51.5.5,0,0,1,.53-.51.49.49,0,0,1,.5.5A.5.5,0,0,1,30.82,22.3Z"/><path class="cls-4" d="M25.2,19a.52.52,0,0,1,1,0,.53.53,0,0,1-.52.51A.52.52,0,0,1,25.2,19Z"/><path class="cls-4" d="M2.73,21.28a.52.52,0,0,1,.52.5.53.53,0,0,1-.53.52.51.51,0,1,1,0-1Z"/><path class="cls-4" d="M35.94,21.28a.51.51,0,0,1,.52.5.52.52,0,0,1-1,0A.5.5,0,0,1,35.94,21.28Z"/><path class="cls-4" d="M12.93,22.3a.53.53,0,0,1-.51-.52.51.51,0,0,1,.54-.5.5.5,0,0,1,.5.51A.51.51,0,0,1,12.93,22.3Z"/><path class="cls-4" d="M35.93,5a.53.53,0,0,1-.51-.52A.51.51,0,0,1,36,3.94a.52.52,0,0,1,.51.51A.52.52,0,0,1,35.93,5Z"/><path class="cls-4" d="M25.72,5a.52.52,0,1,1,.52-.53A.52.52,0,0,1,25.72,5Z"/><path class="cls-4" d="M28.26,5a.52.52,0,1,1,0-1,.52.52,0,0,1,.52.51A.53.53,0,0,1,28.26,5Z"/><path class="cls-4" d="M10.38,21.28a.51.51,0,1,1,0,1,.52.52,0,0,1-.52-.52A.5.5,0,0,1,10.38,21.28Z"/><path class="cls-4" d="M7.83,1.12a.5.5,0,0,1,.52.49.51.51,0,0,1-.51.54.51.51,0,0,1-.52-.5A.5.5,0,0,1,7.83,1.12Z"/><path class="cls-4" d="M23.68,21.78a.5.5,0,0,1-.52.52.51.51,0,1,1,.52-.52Z"/><path class="cls-4" d="M28.26,22.3a.53.53,0,0,1-.51-.52.53.53,0,0,1,1.05,0A.52.52,0,0,1,28.26,22.3Z"/><path class="cls-4" d="M18.06,5a.52.52,0,1,1,0-1,.52.52,0,0,1,0,1Z"/><path class="cls-4" d="M33.9,4.45a.52.52,0,1,1-1,0,.52.52,0,0,1,1,0Z"/><path class="cls-4" d="M35.94,2.15a.52.52,0,1,1,.52-.52A.53.53,0,0,1,35.94,2.15Z"/><path class="cls-4" d="M20.61,22.3a.52.52,0,0,1-.52-.52.52.52,0,1,1,.52.52Z"/><path class="cls-4" d="M13,3.94a.52.52,0,0,1,0,1,.52.52,0,1,1,0-1Z"/><path class="cls-4" d="M5.28,21.28a.51.51,0,0,1,.52.5.52.52,0,1,1-1,0A.5.5,0,0,1,5.28,21.28Z"/><path class="cls-4" d="M16,1.64a.52.52,0,0,1-1,0,.51.51,0,0,1,.51-.51A.5.5,0,0,1,16,1.64Z"/><path class="cls-4" d="M23.15,2.15a.5.5,0,0,1-.5-.54.52.52,0,0,1,1,0A.51.51,0,0,1,23.15,2.15Z"/><path class="cls-4" d="M26.24,1.64a.52.52,0,0,1-1,0,.52.52,0,0,1,1,0Z"/><path class="cls-4" d="M33.38,2.15a.5.5,0,0,1-.51-.53.52.52,0,0,1,1,0A.51.51,0,0,1,33.38,2.15Z"/><path class="cls-4" d="M23.68,19a.52.52,0,0,1-.52.53.51.51,0,0,1-.51-.51.52.52,0,1,1,1,0Z"/><path class="cls-4" d="M31.34,4.45a.5.5,0,0,1-.52.52.52.52,0,1,1,0-1A.5.5,0,0,1,31.34,4.45Z"/><path class="cls-4" d="M16,19a.51.51,0,0,1-.51.51.52.52,0,1,1,0-1A.51.51,0,0,1,16,19Z"/><path class="cls-4" d="M20.62,5a.52.52,0,0,1-.53-.52.52.52,0,0,1,.51-.51.51.51,0,0,1,.53.52A.53.53,0,0,1,20.62,5Z"/><path class="cls-4" d="M8.35,19a.52.52,0,1,1-1,0,.52.52,0,1,1,1,0Z"/><path class="cls-4" d="M2.72,5a.53.53,0,0,1-.52-.51.52.52,0,0,1,.53-.52.52.52,0,1,1,0,1Z"/><path class="cls-4" d="M5.28,5a.52.52,0,0,1-.52-.53.51.51,0,0,1,.52-.5.51.51,0,0,1,.52.5A.52.52,0,0,1,5.28,5Z"/><path class="cls-4" d="M31.34,19a.51.51,0,0,1-.51.51.52.52,0,1,1,0-1A.51.51,0,0,1,31.34,19Z"/><path class="cls-4" d="M33.9,19a.52.52,0,1,1-1,0,.52.52,0,0,1,.53-.52A.51.51,0,0,1,33.9,19Z"/><path class="cls-4" d="M30.84,1.12a.5.5,0,0,1,.5.53.5.5,0,0,1-.52.5.51.51,0,0,1-.5-.54A.49.49,0,0,1,30.84,1.12Z"/><path class="cls-4" d="M8.35,21.79a.52.52,0,1,1-1,0,.52.52,0,0,1,1,0Z"/><path class="cls-4" d="M16,21.79a.52.52,0,1,1-.5-.51A.49.49,0,0,1,16,21.79Z"/><path class="cls-4" d="M14.52,23.2a.36.36,0,0,1-.36.36.35.35,0,0,1-.35-.36.34.34,0,0,1,.35-.36A.35.35,0,0,1,14.52,23.2Z"/><path class="cls-4" d="M24.82,23.2a.35.35,0,0,1-.35.36.36.36,0,1,1,0-.72A.35.35,0,0,1,24.82,23.2Z"/><path class="cls-4" d="M37.33,20.8a.34.34,0,0,1-.35-.36.36.36,0,0,1,.71,0A.36.36,0,0,1,37.33,20.8Z"/><path class="cls-4" d="M35.12,20.44a.36.36,0,0,1-.72,0,.33.33,0,0,1,.35-.36A.35.35,0,0,1,35.12,20.44Z"/><path class="cls-4" d="M16.75,20.09a.34.34,0,0,1,.35.36.37.37,0,0,1-.37.35.35.35,0,0,1-.35-.37A.34.34,0,0,1,16.75,20.09Z"/><path class="cls-4" d="M4.23,20.44a.37.37,0,0,1-.36.36.35.35,0,0,1-.36-.36.34.34,0,0,1,.36-.35A.35.35,0,0,1,4.23,20.44Z"/><path class="cls-4" d="M1.3,20.09a.34.34,0,0,1,.35.36.35.35,0,0,1-.37.35.37.37,0,0,1-.35-.37A.34.34,0,0,1,1.3,20.09Z"/><path class="cls-4" d="M16.74,6.23a.35.35,0,0,1-.36-.36.34.34,0,0,1,.35-.36.35.35,0,0,1,.37.35A.37.37,0,0,1,16.74,6.23Z"/><path class="cls-4" d="M3.88,6.23a.35.35,0,0,1-.37-.35.35.35,0,0,1,.35-.37.36.36,0,0,1,.37.35A.38.38,0,0,1,3.88,6.23Z"/><path class="cls-4" d="M34.77,6.23a.36.36,0,0,1-.37-.35.35.35,0,0,1,.35-.37.35.35,0,0,1,.37.35A.37.37,0,0,1,34.77,6.23Z"/><path class="cls-4" d="M4.23,23.21a.36.36,0,0,1-.37.35.35.35,0,0,1-.35-.36.35.35,0,0,1,.36-.36A.37.37,0,0,1,4.23,23.21Z"/><path class="cls-4" d="M11.58,22.84a.36.36,0,0,1,.37.35.35.35,0,0,1-.35.37.36.36,0,1,1,0-.72Z"/><path class="cls-4" d="M27,22.84a.36.36,0,0,1,.37.36.37.37,0,0,1-.36.36.35.35,0,0,1-.36-.36A.35.35,0,0,1,27,22.84Z"/><path class="cls-4" d="M34.76,23.56a.36.36,0,0,1-.36-.35.35.35,0,0,1,.35-.37.36.36,0,1,1,0,.72Z"/><path class="cls-4" d="M1.29,5.51a.34.34,0,0,1,.36.35.36.36,0,0,1-.35.37.37.37,0,0,1-.37-.36A.36.36,0,0,1,1.29,5.51Z"/><path class="cls-4" d="M11.6,20.09a.34.34,0,0,1,.35.36.36.36,0,0,1-.37.35.37.37,0,0,1-.36-.37A.35.35,0,0,1,11.6,20.09Z"/><path class="cls-4" d="M14.17,20.09a.34.34,0,0,1,.35.35.36.36,0,1,1-.71,0A.34.34,0,0,1,14.17,20.09Z"/><path class="cls-4" d="M21.88,20.09a.33.33,0,0,1,.36.34.35.35,0,0,1-.35.37.37.37,0,0,1-.37-.35A.35.35,0,0,1,21.88,20.09Z"/><path class="cls-4" d="M24.82,20.45a.36.36,0,0,1-.37.35.37.37,0,0,1-.35-.37.34.34,0,0,1,.37-.34A.34.34,0,0,1,24.82,20.45Z"/><path class="cls-4" d="M27,20.8a.35.35,0,0,1-.35-.37.33.33,0,0,1,.36-.34.35.35,0,0,1,.36.36A.37.37,0,0,1,27,20.8Z"/><path class="cls-4" d="M11.58,3.47a.37.37,0,0,1-.36-.37.37.37,0,0,1,.37-.35.35.35,0,0,1,.36.36A.37.37,0,0,1,11.58,3.47Z"/><path class="cls-4" d="M1.3,23.56a.36.36,0,0,1-.37-.35.36.36,0,0,1,.35-.37.35.35,0,0,1,.37.35A.35.35,0,0,1,1.3,23.56Z"/><path class="cls-4" d="M27.4,3.11a.37.37,0,0,1-.37.36.36.36,0,0,1-.35-.37A.34.34,0,0,1,27,2.75.36.36,0,0,1,27.4,3.11Z"/><path class="cls-4" d="M9,23.56a.36.36,0,0,1-.36-.36.37.37,0,0,1,.73,0A.36.36,0,0,1,9,23.56Z"/><path class="cls-4" d="M14.17,5.51a.34.34,0,0,1,.35.36.36.36,0,0,1-.36.36.35.35,0,0,1-.35-.37A.34.34,0,0,1,14.17,5.51Z"/><path class="cls-4" d="M21.88,5.51a.35.35,0,0,1,.36.36.35.35,0,0,1-.35.36.38.38,0,0,1-.37-.36A.36.36,0,0,1,21.88,5.51Z"/><path class="cls-4" d="M19.67,23.2a.36.36,0,0,1-.36.36A.36.36,0,0,1,19,23.2a.36.36,0,0,1,.36-.35A.34.34,0,0,1,19.67,23.2Z"/><path class="cls-4" d="M24.82,5.87a.36.36,0,1,1-.72,0,.35.35,0,0,1,.36-.35A.36.36,0,0,1,24.82,5.87Z"/><path class="cls-4" d="M27,6.23a.35.35,0,0,1-.35-.37A.34.34,0,0,1,27,5.51a.36.36,0,0,1,.36.37A.37.37,0,0,1,27,6.23Z"/><path class="cls-4" d="M32.18,5.51a.35.35,0,0,1,.36.36.36.36,0,0,1-.35.36.37.37,0,0,1-.37-.36A.35.35,0,0,1,32.18,5.51Z"/><path class="cls-4" d="M37.34,23.56a.36.36,0,1,1,0-.72.35.35,0,0,1,.36.36A.36.36,0,0,1,37.34,23.56Z"/><path class="cls-4" d="M37.34,2.75a.35.35,0,0,1,.35.37.36.36,0,1,1-.71,0A.34.34,0,0,1,37.34,2.75Z"/><path class="cls-4" d="M34.75,3.47a.36.36,0,0,1-.35-.37.35.35,0,0,1,.37-.35.36.36,0,0,1,.35.37A.37.37,0,0,1,34.75,3.47Z"/><path class="cls-4" d="M24.46,2.75a.35.35,0,0,1,.36.36.36.36,0,0,1-.35.36.37.37,0,0,1-.37-.36A.35.35,0,0,1,24.46,2.75Z"/><path class="cls-4" d="M19.67,3.11a.36.36,0,0,1-.36.36A.37.37,0,0,1,19,3.1a.36.36,0,0,1,.36-.35A.35.35,0,0,1,19.67,3.11Z"/><path class="cls-4" d="M37.32,6.23A.35.35,0,0,1,37,5.86a.34.34,0,0,1,.36-.35.35.35,0,0,1,.35.37A.36.36,0,0,1,37.32,6.23Z"/><path class="cls-4" d="M14.52,3.1a.36.36,0,1,1-.71,0,.36.36,0,1,1,.71,0Z"/><path class="cls-4" d="M6.81,20.43a.38.38,0,0,1-.36.37.34.34,0,0,1-.36-.34.33.33,0,0,1,.34-.37A.35.35,0,0,1,6.81,20.43Z"/><path class="cls-4" d="M9,20.8a.37.37,0,0,1-.36-.37A.36.36,0,0,1,9,20.09a.35.35,0,0,1,.36.36A.36.36,0,0,1,9,20.8Z"/><path class="cls-4" d="M6.43,23.56a.34.34,0,0,1-.34-.37.33.33,0,0,1,.36-.34.36.36,0,0,1,.36.36A.37.37,0,0,1,6.43,23.56Z"/><path class="cls-4" d="M19,20.43a.35.35,0,0,1,.38-.34.35.35,0,0,1,.34.35.36.36,0,1,1-.72,0Z"/><path class="cls-4" d="M12,5.87a.36.36,0,0,1-.36.36.37.37,0,0,1-.37-.36.36.36,0,0,1,.37-.36A.35.35,0,0,1,12,5.87Z"/><path class="cls-4" d="M9,6.23a.36.36,0,1,1,.37-.35A.37.37,0,0,1,9,6.23Z"/><path class="cls-4" d="M17.1,23.21a.36.36,0,0,1-.37.35.35.35,0,0,1-.35-.36.35.35,0,0,1,.36-.36A.37.37,0,0,1,17.1,23.21Z"/><path class="cls-4" d="M6.81,5.86a.38.38,0,0,1-.36.37.35.35,0,0,1-.36-.34.34.34,0,0,1,.34-.38A.37.37,0,0,1,6.81,5.86Z"/><path class="cls-4" d="M21.89,22.84a.35.35,0,0,1,.35.37.34.34,0,0,1-.36.35.37.37,0,0,1-.36-.36A.37.37,0,0,1,21.89,22.84Z"/><path class="cls-4" d="M32.18,20.09a.34.34,0,0,1,.36.35.35.35,0,0,1-.35.36.36.36,0,0,1-.37-.35A.35.35,0,0,1,32.18,20.09Z"/><path class="cls-4" d="M29.25,23.21a.36.36,0,0,1,.72,0,.37.37,0,0,1-.35.36A.36.36,0,0,1,29.25,23.21Z"/><path class="cls-4" d="M3.84,3.47a.37.37,0,0,1-.33-.39.35.35,0,0,1,.39-.33.36.36,0,0,1,.33.39A.38.38,0,0,1,3.84,3.47Z"/><path class="cls-4" d="M1.65,3.11a.36.36,0,0,1-.36.36A.37.37,0,0,1,.93,3.1a.36.36,0,0,1,.36-.35A.35.35,0,0,1,1.65,3.11Z"/><path class="cls-4" d="M21.89,3.47a.38.38,0,0,1-.37-.36.36.36,0,0,1,.35-.36.34.34,0,0,1,.37.35A.36.36,0,0,1,21.89,3.47Z"/><path class="cls-4" d="M9.38,3.11a.37.37,0,0,1-.73,0,.37.37,0,0,1,.73,0Z"/><path class="cls-4" d="M19.31,6.23A.37.37,0,0,1,19,5.86a.36.36,0,0,1,.38-.35.35.35,0,0,1,.34.36A.36.36,0,0,1,19.31,6.23Z"/><path class="cls-4" d="M32.54,23.19a.35.35,0,0,1-.35.37.36.36,0,1,1,0-.72A.36.36,0,0,1,32.54,23.19Z"/><path class="cls-4" d="M32.54,3.12a.36.36,0,0,1-.37.35.37.37,0,0,1-.35-.36.36.36,0,0,1,.36-.36A.35.35,0,0,1,32.54,3.12Z"/><path class="cls-4" d="M29.62,6.23a.36.36,0,0,1-.37-.36.35.35,0,0,1,.34-.36.36.36,0,1,1,0,.72Z"/><path class="cls-4" d="M6.81,3.1a.38.38,0,0,1-.37.37.35.35,0,0,1-.35-.34.34.34,0,0,1,.34-.38A.37.37,0,0,1,6.81,3.1Z"/><path class="cls-4" d="M30,20.45a.36.36,0,1,1-.72,0,.36.36,0,0,1,.72,0Z"/><path class="cls-4" d="M30,3.11a.37.37,0,0,1-.37.36.37.37,0,0,1-.35-.37.36.36,0,0,1,.36-.35A.35.35,0,0,1,30,3.11Z"/><path class="cls-4" d="M17.1,3.11a.37.37,0,0,1-.36.36.36.36,0,0,1-.36-.36.35.35,0,0,1,.36-.36A.35.35,0,0,1,17.1,3.11Z"/></g></g></svg>