<svg xmlns="http://www.w3.org/2000/svg" viewBox="0 0 38.55 24.66"><defs><style>.cls-1{isolation:isolate;}.cls-2{opacity:0.15;}.cls-2,.cls-3{mix-blend-mode:multiply;}.cls-4{fill:#fff;}</style></defs><title>convert-CUSTOMIZE-SVG-03</title><g class="cls-1"><g id="Layer_1" data-name="Layer 1"><g class="cls-2"><path d="M20.15,5.15l.66-.56c.16-.14.31-.15.4,0s.05.28-.08.38l-.78.68a.27.27,0,0,1-.4,0L19.28,5l-.64.54c-.19.17-.28.17-.47,0s-.5-.44-.76-.65-.19-.24-.06-.39.25-.09.38,0l.67.57.58-.5A.19.19,0,0,0,19,4.52c0-.25,0-.49,0-.74a.3.3,0,0,0-.12-.2L17.52,2.37l.75-.56s.1,0,.16,0c.56,0,1.13,0,1.69,0a.44.44,0,0,1,.25.08c.22.16.42.33.66.5-.35.31-.67.63-1,.89a1,1,0,0,0-.49,1,.64.64,0,0,0,.24.5C19.88,4.91,20,5,20.15,5.15Z"/><path d="M18.48,19.52c-.22.19-.44.37-.66.57a.26.26,0,0,1-.39,0c-.12-.15-.05-.28.08-.39l.78-.67a.26.26,0,0,1,.41,0c.21.19.44.37.67.57l.64-.56a.28.28,0,0,1,.44,0l.77.66c.13.11.19.24.08.39s-.23.12-.4,0l-.63-.54-.05,0-.57.51a.25.25,0,0,0,0,.09v.06a1.18,1.18,0,0,0,.53,1.28,9.19,9.19,0,0,1,1,.83c-.25.19-.48.38-.72.55a.45.45,0,0,1-.2,0H18.55a.57.57,0,0,1-.31-.1c-.21-.14-.4-.31-.62-.48l.7-.62c.22-.19.46-.39.68-.6a.53.53,0,0,0,.11-.24,1.21,1.21,0,0,0,0-.19C19.25,20.07,18.88,19.79,18.48,19.52Z"/><path d="M11.42,5.16,12,4.68a1.36,1.36,0,0,0,0-1.1l-1.38-1.2c.25-.2.49-.39.74-.57,0,0,.12,0,.18,0,.55,0,1.1,0,1.65,0a.58.58,0,0,1,.29.09c.21.15.41.32.64.5-.37.32-.71.66-1.09.94a1,1,0,0,0-.43.9.71.71,0,0,0,.31.64c.11.08.21.18.34.29l.65-.56c.16-.14.31-.15.41,0s0,.27-.08.38l-.79.68a.26.26,0,0,1-.39,0L12.29,5l-.67.58a.27.27,0,0,1-.41,0l-.78-.67c-.13-.11-.19-.24-.07-.39s.26-.09.38,0Z"/><path d="M25.46,19.53l-.65.55c-.12.12-.26.17-.39,0s-.06-.27.07-.38l.78-.68a.27.27,0,0,1,.41,0l.67.58.66-.57a.29.29,0,0,1,.43,0l.77.66c.12.11.19.23.08.38s-.23.13-.4,0l-.66-.57-.59.51a.25.25,0,0,0,0,.09s0,.06,0,.09a1.17,1.17,0,0,0,.55,1.27,8.9,8.9,0,0,1,1,.82l-.71.55a.37.37,0,0,1-.18,0H25.49a.58.58,0,0,1-.22-.08l-.72-.54a1.09,1.09,0,0,0,.19-.1c.42-.36.83-.71,1.24-1.08a.66.66,0,0,0,.12-.27s0-.09,0-.13C26.24,20.11,25.9,19.8,25.46,19.53Z"/><path d="M27.18,5.15l.65-.57c.17-.13.31-.14.41,0s0,.27-.09.38l-.77.66a.26.26,0,0,1-.41,0c-.21-.19-.44-.37-.67-.58l-.64.55c-.19.17-.28.17-.48,0l-.75-.65a.24.24,0,0,1-.05-.38c.12-.14.25-.08.36,0l.68.58.59-.5s0-.08,0-.11V4.47a1.17,1.17,0,0,0-.54-1.27,7.59,7.59,0,0,1-.92-.78s0,0,0-.06c.23-.18.47-.37.71-.54a.27.27,0,0,1,.16,0c.57,0,1.14,0,1.71,0a.45.45,0,0,1,.23.07c.22.16.43.34.67.52L26.71,3.54a.51.51,0,0,0-.18.38,1,1,0,0,0,.52,1.13S27.12,5.11,27.18,5.15Z"/><path d="M14.09,22.29l-.68.53a.39.39,0,0,1-.21.06H11.48a.33.33,0,0,1-.19-.06c-.23-.16-.45-.34-.69-.53l.9-.8.07,0c.57-.49.57-.49.53-1.25a.25.25,0,0,0,0-.17l-.58-.51-.68.59a.26.26,0,0,1-.35,0,.23.23,0,0,1,0-.37c.28-.26.58-.51.88-.76.11-.1.23-.06.34,0l.69.59.64-.55c.18-.16.27-.17.46,0l.75.65c.13.11.19.23.08.39s-.23.12-.4,0l-.61-.53-.06,0-.57.49a.18.18,0,0,0-.05.12c0,.26,0,.51,0,.77a.29.29,0,0,0,.12.18l1.19,1Z"/><path d="M34.25,19.51c-.2.18-.4.34-.58.51a.2.2,0,0,0-.06.15,5.45,5.45,0,0,0,0,.7.42.42,0,0,0,.15.23l1.36,1.19c-.25.2-.49.39-.74.57a.23.23,0,0,1-.12,0H32.5a.29.29,0,0,1-.16,0l-.72-.55c.42-.36.8-.72,1.21-1.05a.74.74,0,0,0,.31-.66.83.83,0,0,0-.39-.85c-.09-.06-.16-.14-.26-.22-.21.19-.43.37-.63.56s-.26.18-.41,0-.08-.25.09-.41l.75-.65a.27.27,0,0,1,.41,0l.67.58c.22-.19.45-.37.66-.57a.28.28,0,0,1,.44,0l.76.65c.12.1.2.22.08.38s-.22.13-.4,0Z"/><path d="M5.27,5l-.67.58a.27.27,0,0,1-.42,0L3.42,5c-.16-.14-.19-.27-.08-.39s.26-.09.38,0,.44.37.67.58L5,4.64a.21.21,0,0,0,0-.16,5,5,0,0,0,0-.67.45.45,0,0,0-.14-.24l-1.18-1-.18-.17.71-.55a.27.27,0,0,1,.16,0c.57,0,1.15,0,1.73,0a.46.46,0,0,1,.2.05L7,2.37l-.52.46c-.28.25-.58.49-.85.75a.45.45,0,0,0-.13.28c0,.79,0,.79.63,1.29l.58-.5c.06-.05.11-.13.17-.13s.24,0,.29.05a.3.3,0,0,1,0,.29,11.84,11.84,0,0,1-.92.81c-.12.1-.24,0-.34-.06Z"/><path d="M33.31,5l-.65.57a.29.29,0,0,1-.43,0c-.25-.23-.51-.45-.77-.67s-.2-.22-.08-.38.25-.1.38,0l.68.59.6-.53a.25.25,0,0,0,0-.16c0-.76,0-.76-.55-1.26l-.89-.77-.06-.07c.24-.19.47-.38.71-.55a.36.36,0,0,1,.21,0c.53,0,1.07,0,1.61,0a.83.83,0,0,1,.36.13c.2.13.38.29.59.45l-.2.19-1.18,1a.74.74,0,0,0-.12.27s0,.05,0,.08c0,.75,0,.75.64,1.2l.63-.54c.13-.12.26-.19.41,0s.08.26-.08.4l-.75.65a.28.28,0,0,1-.44,0Z"/><path d="M3.57,22.29c.42-.36.81-.72,1.22-1.05a.79.79,0,0,0,.31-.66.85.85,0,0,0-.39-.85,2.53,2.53,0,0,1-.26-.22L3.84,20c-.19.17-.33.19-.44.07s-.08-.25.11-.42.48-.41.72-.63a.29.29,0,0,1,.44,0l.66.57c.22-.19.44-.37.65-.57a.29.29,0,0,1,.45,0l.73.64c.13.1.23.22.1.39s-.22.13-.39,0l-.67-.57c-.2.18-.4.34-.58.51a.2.2,0,0,0-.06.15c0,.23,0,.47,0,.7a.4.4,0,0,0,.14.23l1.37,1.19c-.26.2-.5.39-.75.57,0,0-.09,0-.14,0H4.47a.37.37,0,0,1-.18,0Z"/><path d="M2.1,4.17c-.12.07-.24.15-.37.21a.5.5,0,0,1-.57,0A.56.56,0,0,1,1,3.74,2,2,0,0,1,1.35,3a3.74,3.74,0,0,1,.75-.53c.25.17.51.32.74.51a1.14,1.14,0,0,1,.4.7.64.64,0,0,1-.2.63.53.53,0,0,1-.6,0A3.79,3.79,0,0,1,2.1,4.17Z"/><path d="M36.55,4.17a2.73,2.73,0,0,1-.41.22.53.53,0,0,1-.75-.61,1.48,1.48,0,0,1,.68-1c.54-.36.41-.35,1,0a1.46,1.46,0,0,1,.66.89.62.62,0,0,1-.2.67.54.54,0,0,1-.63,0A2.16,2.16,0,0,1,36.55,4.17Z"/><path d="M2.09,20.49c.14-.07.27-.16.41-.22a.54.54,0,0,1,.75.61,1.48,1.48,0,0,1-.68,1c-.54.36-.41.36-.95,0A1.49,1.49,0,0,1,1,21a.62.62,0,0,1,.2-.67.52.52,0,0,1,.63,0Z"/><path d="M36.54,20.49c.13-.07.25-.15.38-.21a.5.5,0,0,1,.56,0,.63.63,0,0,1,.22.59,1.18,1.18,0,0,1-.4.73,7.71,7.71,0,0,1-.75.52,3.88,3.88,0,0,1-.74-.51,2.1,2.1,0,0,1-.4-.7.54.54,0,0,1,.19-.62.48.48,0,0,1,.59,0A3.9,3.9,0,0,1,36.54,20.49Z"/><path d="M15.89,4.17a2.74,2.74,0,0,1-.45.23.53.53,0,0,1-.72-.59,1.36,1.36,0,0,1,.61-1c.61-.43.48-.43,1.08,0a1.36,1.36,0,0,1,.59.8.63.63,0,0,1-.19.71c-.22.19-.45.09-.67,0Z"/><path d="M22.77,4.18c-.14.07-.27.16-.42.22a.5.5,0,0,1-.73-.52,1.2,1.2,0,0,1,.27-.69,4.16,4.16,0,0,1,.8-.64.15.15,0,0,1,.13,0,1.79,1.79,0,0,1,1.09,1.21.6.6,0,0,1-.21.61.47.47,0,0,1-.57,0C23,4.32,22.89,4.24,22.77,4.18Z"/><path d="M15.87,20.49a4.64,4.64,0,0,1,.44-.23.51.51,0,0,1,.72.51,1.07,1.07,0,0,1-.35.81,6.24,6.24,0,0,1-.71.53.16.16,0,0,1-.15,0,1.79,1.79,0,0,1-1.09-1.21.62.62,0,0,1,.21-.61.51.51,0,0,1,.58,0Z"/><path d="M22.76,20.49c.14-.08.27-.16.4-.22a.54.54,0,0,1,.76.61,1.41,1.41,0,0,1-.6.94c-.61.43-.49.43-1.1,0a1.42,1.42,0,0,1-.58-.78.65.65,0,0,1,.19-.73c.23-.18.46-.08.68,0Z"/><path d="M9,4.18a3.51,3.51,0,0,1-.43.22.51.51,0,0,1-.73-.51,1,1,0,0,1,.3-.74,7.43,7.43,0,0,1,.76-.6.2.2,0,0,1,.17,0,2,2,0,0,1,.92.79,1.32,1.32,0,0,1,.15.58.49.49,0,0,1-.71.49A2.92,2.92,0,0,1,9,4.18Z"/><path d="M29.65,4.18a3.48,3.48,0,0,1-.38.2.52.52,0,0,1-.77-.54,1,1,0,0,1,.32-.72,6.72,6.72,0,0,1,.73-.56.2.2,0,0,1,.17,0,2,2,0,0,1,1,.89.8.8,0,0,1,.06.69.47.47,0,0,1-.64.29A5.08,5.08,0,0,1,29.65,4.18Z"/><path d="M9,20.48a4,4,0,0,1,.41-.21.52.52,0,0,1,.74.53,1,1,0,0,1-.27.69,8,8,0,0,1-.79.62.18.18,0,0,1-.16,0,1.93,1.93,0,0,1-1-.95,1.13,1.13,0,0,1,0-.63.44.44,0,0,1,.62-.3A4.23,4.23,0,0,1,9,20.48Z"/><path d="M29.65,20.48c.15-.07.29-.16.45-.22a.48.48,0,0,1,.69.48,1.45,1.45,0,0,1-.2.67,1.91,1.91,0,0,1-.85.71.2.2,0,0,1-.15,0,1.88,1.88,0,0,1-1-.87,1.22,1.22,0,0,1-.08-.65.46.46,0,0,1,.67-.34C29.36,20.32,29.51,20.41,29.65,20.48Z"/><path d="M20.35,5.35,21,4.79c.17-.14.31-.15.41,0s.05.27-.08.38-.53.45-.78.68a.28.28,0,0,1-.4,0l-.67-.59-.64.55c-.2.17-.28.17-.47,0l-.76-.65c-.13-.11-.19-.24-.07-.39s.26-.09.39,0,.43.38.67.58l.58-.5a.21.21,0,0,0,.05-.13c0-.25,0-.49,0-.74a.3.3,0,0,0-.12-.2L17.72,2.57,18.46,2s.11,0,.17,0c.56,0,1.13,0,1.69,0a.46.46,0,0,1,.25.08l.65.5a12,12,0,0,1-1,.89,1,1,0,0,0-.49,1A.64.64,0,0,0,20,5C20.08,5.11,20.2,5.23,20.35,5.35Z"/><path d="M18.67,19.72l-.65.56c-.13.12-.26.16-.39,0s-.05-.27.07-.38.53-.44.79-.68a.28.28,0,0,1,.41,0c.21.2.43.38.66.58l.65-.56a.28.28,0,0,1,.44,0l.77.66c.13.11.19.23.08.39s-.23.12-.4,0l-.63-.54,0,0-.57.5a.23.23,0,0,0,0,.1v.06a1.16,1.16,0,0,0,.53,1.27,9.4,9.4,0,0,1,1,.84L20.6,23a.71.71,0,0,1-.2,0H18.74a.57.57,0,0,1-.3-.1c-.21-.14-.4-.31-.63-.48l.7-.62c.23-.2.47-.39.69-.6a.52.52,0,0,0,.11-.25c0-.05,0-.12,0-.19C19.45,20.27,19.08,20,18.67,19.72Z"/><path d="M11.61,5.35l.55-.47a1.39,1.39,0,0,0,0-1.11c-.45-.39-.91-.78-1.38-1.2L11.48,2s.12,0,.18,0q.83,0,1.65,0a.58.58,0,0,1,.29.09c.21.15.41.32.64.49-.37.33-.71.66-1.09,1a.93.93,0,0,0-.43.9.7.7,0,0,0,.3.64,2.92,2.92,0,0,1,.34.29L14,4.79c.16-.14.31-.16.4,0s.05.27-.07.38l-.79.68a.26.26,0,0,1-.39,0l-.68-.59-.67.58a.27.27,0,0,1-.41,0l-.78-.67c-.13-.11-.19-.24-.07-.39s.26-.09.38,0Z"/><path d="M25.65,19.72l-.64.56c-.12.11-.26.17-.39,0s-.06-.27.07-.38l.78-.68a.27.27,0,0,1,.41,0l.67.58.66-.57a.27.27,0,0,1,.42,0l.78.66c.12.11.19.23.08.38s-.23.13-.4,0l-.67-.57-.58.51a.25.25,0,0,0,0,.09s0,.06,0,.09a1.15,1.15,0,0,0,.55,1.26,10.34,10.34,0,0,1,1,.83l-.71.55a.53.53,0,0,1-.18,0H25.69a.51.51,0,0,1-.23-.07l-.71-.55a.67.67,0,0,0,.19-.09l1.24-1.09A.57.57,0,0,0,26.3,21s0-.09,0-.13C26.44,20.31,26.1,20,25.65,19.72Z"/><path d="M27.38,5.35,28,4.78c.16-.14.31-.14.41,0s0,.27-.09.38-.52.43-.77.66a.26.26,0,0,1-.41,0c-.22-.19-.44-.37-.67-.58l-.64.55c-.2.17-.28.17-.48,0l-.75-.65c-.13-.11-.18-.24-.06-.38s.25-.09.37,0l.68.58.59-.51a.58.58,0,0,0,.05-.11s0,0,0-.06a1.16,1.16,0,0,0-.55-1.27,9.61,9.61,0,0,1-.91-.78l0-.06c.24-.18.47-.37.72-.54a.27.27,0,0,1,.16,0q.86,0,1.71,0a.45.45,0,0,1,.23.07l.67.51L26.91,3.74a.49.49,0,0,0-.18.37,1,1,0,0,0,.52,1.14S27.32,5.31,27.38,5.35Z"/><path d="M14.29,22.49l-.68.52a.39.39,0,0,1-.21.06H11.68a.32.32,0,0,1-.19-.05c-.23-.16-.45-.34-.7-.53l.91-.8.07-.06c.57-.48.57-.48.53-1.24a.29.29,0,0,0-.05-.17l-.58-.51L11,20.3a.26.26,0,0,1-.35,0,.23.23,0,0,1,0-.37l.88-.76a.25.25,0,0,1,.35,0l.68.59.64-.56c.19-.16.28-.16.46,0s.5.44.76.65.19.23.07.38-.22.13-.39,0l-.61-.53-.06,0-.57.49a.27.27,0,0,0-.06.12c0,.26,0,.51,0,.76a.28.28,0,0,0,.12.19l1.19,1Z"/><path d="M34.45,19.71c-.21.17-.4.34-.59.51a.25.25,0,0,0,0,.15,5.3,5.3,0,0,0,0,.69.41.41,0,0,0,.15.24l1.36,1.19c-.26.19-.5.38-.74.57a.23.23,0,0,1-.12,0H32.7a.29.29,0,0,1-.16,0l-.72-.55c.41-.36.8-.72,1.21-1a.74.74,0,0,0,.31-.66.83.83,0,0,0-.39-.85c-.09-.06-.16-.14-.26-.22l-.64.56c-.12.11-.26.18-.4,0s-.09-.26.09-.41l.75-.65a.27.27,0,0,1,.41,0l.67.58c.22-.19.44-.37.66-.57a.28.28,0,0,1,.44,0l.75.65c.13.1.21.22.09.38s-.22.13-.4,0Z"/><path d="M5.47,5.23l-.67.58a.29.29,0,0,1-.43,0c-.24-.22-.5-.43-.75-.65s-.2-.28-.08-.4.26-.09.38,0l.67.58.59-.51a.24.24,0,0,0,.05-.16,5,5,0,0,0,0-.67.45.45,0,0,0-.14-.24l-1.18-1-.19-.17L4.44,2a.25.25,0,0,1,.15,0q.87,0,1.74,0A.3.3,0,0,1,6.52,2l.7.53L6.7,3c-.28.25-.58.49-.85.75a.47.47,0,0,0-.14.28c0,.78,0,.78.64,1.29l.58-.5c.05,0,.11-.13.16-.13s.25,0,.3,0a.3.3,0,0,1,0,.29c-.29.28-.6.55-.92.81-.12.1-.24,0-.34-.07Z"/><path d="M33.51,5.23c-.23.2-.45.38-.65.57a.29.29,0,0,1-.43,0l-.77-.67c-.13-.1-.21-.23-.08-.38s.25-.1.38,0l.68.58.6-.52a.27.27,0,0,0,0-.16c0-.76,0-.76-.55-1.26l-.9-.78,0-.07L32.49,2a.47.47,0,0,1,.21,0c.53,0,1.07,0,1.6,0a.66.66,0,0,1,.36.13,7.21,7.21,0,0,1,.6.45l-.2.19-1.18,1a.57.57,0,0,0-.12.26.28.28,0,0,0,0,.09c0,.74,0,.74.65,1.2L35,4.79c.13-.11.26-.18.41,0s.08.26-.08.4-.51.43-.75.65a.28.28,0,0,1-.44,0Z"/><path d="M3.77,22.49c.42-.37.81-.73,1.22-1a.81.81,0,0,0,.31-.66.84.84,0,0,0-.4-.85c-.08-.06-.16-.14-.25-.22L4,20.24c-.2.17-.33.19-.44.07s-.08-.26.11-.42l.72-.63a.29.29,0,0,1,.44,0l.65.57.66-.57a.29.29,0,0,1,.45,0c.24.22.49.42.73.63s.23.23.1.4-.22.13-.4,0l-.66-.57c-.2.17-.4.34-.58.51a.2.2,0,0,0-.06.15,5.3,5.3,0,0,0,0,.69.35.35,0,0,0,.14.24l1.36,1.19c-.25.2-.49.39-.74.57a.32.32,0,0,1-.14,0H4.67a.53.53,0,0,1-.18,0C4.25,22.87,4,22.68,3.77,22.49Z"/><path d="M2.3,4.37c-.12.07-.24.14-.37.2a.48.48,0,0,1-.57,0,.53.53,0,0,1-.2-.61,1.79,1.79,0,0,1,.39-.7,3.74,3.74,0,0,1,.75-.53c.25.17.51.32.74.51a1.16,1.16,0,0,1,.4.7.64.64,0,0,1-.2.63.53.53,0,0,1-.6,0A3.79,3.79,0,0,1,2.3,4.37Z"/><path d="M36.75,4.37a2.73,2.73,0,0,1-.41.22A.54.54,0,0,1,35.59,4a1.48,1.48,0,0,1,.68-1c.54-.36.41-.36.95,0a1.52,1.52,0,0,1,.66.9.65.65,0,0,1-.2.67.54.54,0,0,1-.63,0A2.16,2.16,0,0,1,36.75,4.37Z"/><path d="M2.29,20.69a4.1,4.1,0,0,1,.41-.22.54.54,0,0,1,.75.61,1.48,1.48,0,0,1-.68,1c-.54.36-.41.36-.95,0a1.48,1.48,0,0,1-.66-.9.63.63,0,0,1,.2-.67.54.54,0,0,1,.63,0C2.09,20.56,2.19,20.63,2.29,20.69Z"/><path d="M36.74,20.69c.12-.07.25-.15.38-.21a.48.48,0,0,1,.56,0,.6.6,0,0,1,.21.59,1.15,1.15,0,0,1-.39.73,8.46,8.46,0,0,1-.76.52,3.81,3.81,0,0,1-.73-.51,2,2,0,0,1-.4-.7.53.53,0,0,1,.19-.62.5.5,0,0,1,.59,0Z"/><path d="M16.09,4.37a3.84,3.84,0,0,1-.45.23A.53.53,0,0,1,14.92,4a1.36,1.36,0,0,1,.61-1c.61-.43.48-.43,1.08,0a1.39,1.39,0,0,1,.59.81.65.65,0,0,1-.19.71c-.22.19-.45.09-.67,0Z"/><path d="M23,4.37a3.42,3.42,0,0,1-.42.23.51.51,0,0,1-.73-.53,1.2,1.2,0,0,1,.27-.68,4.63,4.63,0,0,1,.8-.65.15.15,0,0,1,.13,0,1.81,1.81,0,0,1,1.09,1.21.61.61,0,0,1-.21.61.51.51,0,0,1-.58,0Z"/><path d="M16.07,20.69a4.64,4.64,0,0,1,.44-.23.51.51,0,0,1,.72.51,1.07,1.07,0,0,1-.35.81,7.27,7.27,0,0,1-.71.53.16.16,0,0,1-.15,0,1.79,1.79,0,0,1-1.09-1.21.61.61,0,0,1,.21-.61.5.5,0,0,1,.57,0Z"/><path d="M23,20.69l.41-.22a.54.54,0,0,1,.76.61,1.41,1.41,0,0,1-.6.94c-.62.43-.49.43-1.1,0a1.42,1.42,0,0,1-.58-.78.64.64,0,0,1,.19-.73c.23-.19.46-.08.68,0S22.87,20.64,23,20.69Z"/><path d="M9.19,4.38a4.51,4.51,0,0,1-.44.22A.51.51,0,0,1,8,4.09a1,1,0,0,1,.3-.74,6.26,6.26,0,0,1,.76-.6.2.2,0,0,1,.17,0,2,2,0,0,1,.91.79,1.21,1.21,0,0,1,.16.58.5.5,0,0,1-.71.49A2.92,2.92,0,0,1,9.19,4.38Z"/><path d="M29.84,4.38a2.64,2.64,0,0,1-.37.2A.52.52,0,0,1,28.7,4,1.06,1.06,0,0,1,29,3.32a8,8,0,0,1,.74-.56.2.2,0,0,1,.17,0,2,2,0,0,1,1,.89.8.8,0,0,1,.06.69.47.47,0,0,1-.64.29C30.16,4.55,30,4.46,29.84,4.38Z"/><path d="M9.19,20.68c.14-.07.27-.16.41-.22a.53.53,0,0,1,.74.54,1,1,0,0,1-.27.69c-.25.23-.53.42-.79.62a.18.18,0,0,1-.16,0,1.88,1.88,0,0,1-1-1,1.12,1.12,0,0,1,0-.63.44.44,0,0,1,.62-.29A4.23,4.23,0,0,1,9.19,20.68Z"/><path d="M29.85,20.68a3.74,3.74,0,0,1,.45-.22.48.48,0,0,1,.69.48,1.62,1.62,0,0,1-.2.67,2,2,0,0,1-.85.71.2.2,0,0,1-.15,0,1.88,1.88,0,0,1-1-.87,1.13,1.13,0,0,1-.08-.65.46.46,0,0,1,.67-.34A3.61,3.61,0,0,1,29.85,20.68Z"/></g><g class="cls-3"><path d="M20,5l.65-.56c.17-.14.31-.15.41,0s.05.27-.08.38-.53.45-.78.68a.28.28,0,0,1-.4,0l-.67-.59-.64.55c-.2.17-.28.17-.47,0l-.76-.65c-.13-.11-.19-.24-.07-.39s.26-.09.39,0,.43.38.67.58c.2-.17.39-.33.57-.5a.18.18,0,0,0,.06-.13c0-.25,0-.49,0-.74a.3.3,0,0,0-.12-.2L17.38,2.23l.74-.56s.11,0,.17,0c.56,0,1.13,0,1.69,0a.46.46,0,0,1,.25.08c.21.15.42.32.65.5a12,12,0,0,1-1,.89,1,1,0,0,0-.49,1,.64.64,0,0,0,.24.5C19.74,4.76,19.86,4.89,20,5Z"/><path d="M18.33,19.38l-.65.56c-.13.12-.26.16-.39,0s-.05-.27.07-.38.53-.44.79-.68a.27.27,0,0,1,.41,0c.21.2.43.38.66.58l.65-.56a.28.28,0,0,1,.44,0l.77.66c.13.11.19.23.08.39s-.23.12-.4,0l-.63-.54-.05,0-.57.5a.23.23,0,0,0,0,.1s0,0,0,.06A1.15,1.15,0,0,0,20,21.31a9.4,9.4,0,0,1,1,.84l-.72.55a.58.58,0,0,1-.19,0H18.4a.57.57,0,0,1-.3-.1c-.21-.15-.4-.31-.63-.48l.7-.62c.23-.2.47-.39.69-.6a.52.52,0,0,0,.11-.25c0-.05,0-.12,0-.19C19.1,19.93,18.74,19.65,18.33,19.38Z"/><path d="M11.27,5l.55-.47a1.39,1.39,0,0,0,0-1.11c-.45-.39-.91-.78-1.38-1.2l.74-.56s.12,0,.18,0q.82,0,1.65,0a.58.58,0,0,1,.29.09c.21.15.41.32.64.49-.37.33-.71.66-1.09,1a.93.93,0,0,0-.43.9.7.7,0,0,0,.3.64A2.92,2.92,0,0,1,13,5l.66-.56c.16-.14.31-.16.4,0s.05.27-.08.38l-.78.68a.26.26,0,0,1-.39,0l-.68-.59-.67.58a.27.27,0,0,1-.41,0l-.78-.67c-.13-.11-.19-.24-.07-.39s.26-.09.38,0Z"/><path d="M25.31,19.38l-.64.56c-.12.11-.26.17-.39,0s-.06-.27.07-.38l.78-.68a.27.27,0,0,1,.41,0l.67.58.66-.57a.27.27,0,0,1,.42,0l.78.66c.12.11.19.23.08.38s-.23.13-.4,0l-.67-.57-.58.51a.15.15,0,0,0,0,.09s0,.06,0,.09A1.15,1.15,0,0,0,27,21.32a10.34,10.34,0,0,1,1,.83l-.71.54a.28.28,0,0,1-.18,0H25.35a.51.51,0,0,1-.23-.07l-.71-.55A.67.67,0,0,0,24.6,22l1.24-1.09a.69.69,0,0,0,.12-.26s0-.09,0-.13C26.1,20,25.76,19.66,25.31,19.38Z"/><path d="M27,5l.65-.57c.16-.14.31-.14.41,0s0,.27-.09.38-.52.43-.77.66a.26.26,0,0,1-.41,0c-.22-.19-.44-.37-.67-.58l-.64.55c-.2.17-.28.17-.48,0l-.75-.65c-.13-.11-.18-.24-.06-.38s.25-.09.37,0l.68.58.59-.51a.28.28,0,0,0,0-.11s0,0,0-.06a1.16,1.16,0,0,0-.55-1.27,9.61,9.61,0,0,1-.91-.78l0-.06c.24-.18.47-.37.72-.54a.27.27,0,0,1,.16,0q.86,0,1.71,0a.45.45,0,0,1,.23.07l.67.51L26.57,3.4a.49.49,0,0,0-.18.37,1,1,0,0,0,.52,1.14S27,5,27,5Z"/><path d="M14,22.15l-.68.52a.39.39,0,0,1-.21.06H11.34a.32.32,0,0,1-.19-.05c-.23-.16-.45-.34-.7-.53l.91-.8.07-.06c.57-.48.57-.48.53-1.24a.24.24,0,0,0-.06-.17l-.57-.51-.68.59a.26.26,0,0,1-.35,0,.23.23,0,0,1,0-.37l.88-.76a.25.25,0,0,1,.35,0l.68.59.64-.56c.19-.16.28-.16.46,0s.5.43.76.65.19.23.07.38-.22.13-.39,0l-.61-.53-.06,0-.57.49a.2.2,0,0,0-.06.12c0,.26,0,.51,0,.76a.28.28,0,0,0,.12.19l1.19,1Z"/><path d="M34.11,19.37c-.21.17-.4.34-.59.51a.25.25,0,0,0-.05.15,5.3,5.3,0,0,0,0,.69.41.41,0,0,0,.15.24L35,22.15c-.26.19-.5.38-.74.57a.23.23,0,0,1-.12,0H32.36a.42.42,0,0,1-.16,0l-.72-.55c.41-.36.8-.72,1.21-1a.77.77,0,0,0,.31-.66.83.83,0,0,0-.39-.85c-.09-.06-.16-.14-.26-.22l-.64.56c-.12.11-.26.18-.4,0s-.09-.26.09-.41l.75-.65a.27.27,0,0,1,.41,0l.67.58c.22-.19.44-.37.66-.57a.28.28,0,0,1,.44,0l.75.65c.13.1.21.22.09.38s-.22.13-.4,0Z"/><path d="M5.13,4.89l-.67.58a.29.29,0,0,1-.43,0c-.24-.22-.5-.43-.75-.65s-.2-.28-.08-.4.26-.09.38,0L4.25,5l.59-.51a.24.24,0,0,0,0-.16,5,5,0,0,0,0-.67.45.45,0,0,0-.14-.24l-1.18-1-.19-.17.72-.55a.25.25,0,0,1,.15,0q.87,0,1.74,0a.3.3,0,0,1,.19.05l.7.53-.52.46c-.28.25-.58.49-.85.75a.47.47,0,0,0-.14.28c0,.78,0,.78.64,1.29l.58-.5s.11-.13.16-.13.25,0,.3,0a.3.3,0,0,1,0,.29c-.29.28-.61.55-.92.81-.12.1-.24,0-.34-.07S5.35,5.09,5.13,4.89Z"/><path d="M33.17,4.89l-.66.57a.27.27,0,0,1-.42,0l-.77-.67c-.13-.1-.21-.23-.08-.38s.25-.1.38,0L32.3,5l.6-.52a.27.27,0,0,0,0-.16c0-.76,0-.76-.55-1.26l-.9-.78,0-.07.71-.55a.47.47,0,0,1,.21,0c.53,0,1.07,0,1.6,0a.66.66,0,0,1,.36.13,7.21,7.21,0,0,1,.6.45l-.2.19-1.18,1a.71.71,0,0,0-.13.26.27.27,0,0,0,0,.09c0,.74,0,.74.65,1.2l.63-.55c.13-.11.26-.18.41,0s.08.26-.08.4-.51.43-.75.65a.28.28,0,0,1-.44,0Z"/><path d="M3.43,22.15c.42-.37.81-.73,1.22-1A.81.81,0,0,0,5,20.44a.84.84,0,0,0-.4-.85c-.08-.06-.16-.14-.25-.22l-.61.53c-.2.17-.33.19-.44.07s-.08-.26.11-.42l.72-.63a.29.29,0,0,1,.44,0l.65.57.66-.57a.29.29,0,0,1,.45,0c.24.22.49.42.73.63s.23.23.1.4-.22.13-.4,0l-.66-.57c-.2.17-.4.34-.58.51a.2.2,0,0,0-.06.15,5.3,5.3,0,0,0,0,.69.41.41,0,0,0,.15.24l1.36,1.19c-.25.2-.49.39-.74.57a.32.32,0,0,1-.14,0H4.33a.53.53,0,0,1-.18,0C3.91,22.53,3.68,22.34,3.43,22.15Z"/><path d="M2,4c-.12.07-.24.14-.37.2a.48.48,0,0,1-.57,0,.53.53,0,0,1-.2-.61,1.79,1.79,0,0,1,.39-.7A3.74,3.74,0,0,1,2,2.37c.25.17.51.32.74.51a1.21,1.21,0,0,1,.4.7.64.64,0,0,1-.2.63.53.53,0,0,1-.6,0A3.79,3.79,0,0,1,2,4Z"/><path d="M36.41,4a2.73,2.73,0,0,1-.41.22.54.54,0,0,1-.75-.61,1.48,1.48,0,0,1,.68-1c.54-.36.41-.36,1,0a1.52,1.52,0,0,1,.66.9.65.65,0,0,1-.2.67.54.54,0,0,1-.63,0A2.16,2.16,0,0,1,36.41,4Z"/><path d="M2,20.35a4.1,4.1,0,0,1,.41-.22.54.54,0,0,1,.75.61,1.48,1.48,0,0,1-.68,1c-.54.36-.41.36-1,0a1.48,1.48,0,0,1-.66-.9.63.63,0,0,1,.2-.67.54.54,0,0,1,.63,0C1.75,20.22,1.85,20.29,2,20.35Z"/><path d="M36.4,20.35c.12-.07.25-.15.38-.21a.48.48,0,0,1,.56,0,.6.6,0,0,1,.21.59,1.15,1.15,0,0,1-.39.73,8.46,8.46,0,0,1-.76.52,3.81,3.81,0,0,1-.73-.51,2,2,0,0,1-.4-.7.53.53,0,0,1,.19-.62.5.5,0,0,1,.59,0Z"/><path d="M15.75,4a3.84,3.84,0,0,1-.45.23.53.53,0,0,1-.72-.59,1.36,1.36,0,0,1,.61-1c.61-.43.48-.43,1.08,0a1.39,1.39,0,0,1,.59.81.65.65,0,0,1-.19.71c-.22.18-.45.09-.67,0Z"/><path d="M22.63,4a2.41,2.41,0,0,1-.42.22.5.5,0,0,1-.73-.52,1.2,1.2,0,0,1,.27-.68,4.63,4.63,0,0,1,.8-.65.15.15,0,0,1,.13,0A1.81,1.81,0,0,1,23.77,3.6a.61.61,0,0,1-.21.61.51.51,0,0,1-.58,0Z"/><path d="M15.73,20.35a4.64,4.64,0,0,1,.44-.23.51.51,0,0,1,.72.51,1.07,1.07,0,0,1-.35.81,7.27,7.27,0,0,1-.71.53.16.16,0,0,1-.15,0,1.79,1.79,0,0,1-1.09-1.21.59.59,0,0,1,.21-.61.5.5,0,0,1,.57,0Z"/><path d="M22.61,20.35l.41-.22a.54.54,0,0,1,.76.61,1.41,1.41,0,0,1-.6.94c-.62.43-.49.43-1.1,0a1.42,1.42,0,0,1-.58-.78.64.64,0,0,1,.19-.73c.23-.19.46-.08.68,0S22.53,20.3,22.61,20.35Z"/><path d="M8.85,4a4.51,4.51,0,0,1-.44.22.51.51,0,0,1-.72-.51A1,1,0,0,1,8,3a6.26,6.26,0,0,1,.76-.6.2.2,0,0,1,.17,0,2,2,0,0,1,.91.79,1.18,1.18,0,0,1,.16.58.5.5,0,0,1-.71.49A2.92,2.92,0,0,1,8.85,4Z"/><path d="M29.5,4a2.64,2.64,0,0,1-.37.2.52.52,0,0,1-.77-.54A1.06,1.06,0,0,1,28.67,3a8,8,0,0,1,.74-.56.2.2,0,0,1,.17,0,2,2,0,0,1,1,.89.8.8,0,0,1,.06.69.47.47,0,0,1-.64.29C29.82,4.21,29.67,4.12,29.5,4Z"/><path d="M8.85,20.34c.14-.07.27-.16.41-.22a.53.53,0,0,1,.74.54,1,1,0,0,1-.27.69c-.25.23-.53.42-.79.62a.18.18,0,0,1-.16,0,1.88,1.88,0,0,1-1-1,1.12,1.12,0,0,1,0-.63.44.44,0,0,1,.62-.29A4.23,4.23,0,0,1,8.85,20.34Z"/><path d="M29.51,20.34a3.74,3.74,0,0,1,.45-.22.48.48,0,0,1,.69.48,1.62,1.62,0,0,1-.2.67,1.89,1.89,0,0,1-.85.7.16.16,0,0,1-.15,0,1.88,1.88,0,0,1-1-.87,1.13,1.13,0,0,1-.08-.65.46.46,0,0,1,.67-.34A3.61,3.61,0,0,1,29.51,20.34Z"/></g><path class="cls-4" d="M20.21,5.21l.65-.56c.17-.14.31-.16.41,0s0,.27-.08.38l-.79.68a.26.26,0,0,1-.39,0l-.68-.59-.63.55c-.2.17-.28.17-.48,0L17.47,5c-.13-.12-.19-.25-.07-.39s.26-.09.39,0l.67.58c.19-.17.39-.33.57-.5a.21.21,0,0,0,0-.13,6.09,6.09,0,0,0,0-.74.3.3,0,0,0-.12-.2L17.58,2.43l.74-.56a.29.29,0,0,1,.16,0h1.7a.46.46,0,0,1,.25.08c.21.15.42.32.65.5a12.14,12.14,0,0,1-1,.89,1,1,0,0,0-.48,1.05.6.6,0,0,0,.23.5A3.87,3.87,0,0,1,20.21,5.21Z"/><path class="cls-4" d="M18.53,19.58l-.65.56c-.13.12-.26.16-.39,0s0-.27.07-.38l.79-.68a.27.27,0,0,1,.41,0l.66.58.65-.56a.28.28,0,0,1,.44,0l.77.66c.13.11.19.23.08.38s-.23.12-.4,0l-.63-.53,0,0-.57.5a.25.25,0,0,0,0,.09s0,0,0,.07a1.13,1.13,0,0,0,.53,1.27,9.4,9.4,0,0,1,1,.84l-.72.55a.42.42,0,0,1-.2,0q-.83,0-1.65,0a.54.54,0,0,1-.3-.1c-.21-.15-.4-.31-.63-.48l.7-.62c.23-.2.47-.39.68-.6a.45.45,0,0,0,.12-.25c0-.06,0-.13,0-.19C19.3,20.13,18.94,19.85,18.53,19.58Z"/><path class="cls-4" d="M11.47,5.21,12,4.74a1.38,1.38,0,0,0,0-1.11l-1.39-1.2.75-.56a.34.34,0,0,1,.18,0h1.65a.58.58,0,0,1,.29.09c.21.15.41.32.64.49-.37.33-.71.66-1.1.95a.94.94,0,0,0-.42.9.7.7,0,0,0,.3.64,2.19,2.19,0,0,1,.34.29l.66-.56c.16-.14.31-.16.4,0s.05.27-.08.38l-.78.68a.26.26,0,0,1-.39,0l-.68-.59-.67.58a.27.27,0,0,1-.41,0L10.48,5c-.13-.11-.19-.24-.06-.38s.26-.09.38,0Z"/><path class="cls-4" d="M25.51,19.58l-.64.56c-.13.11-.26.16-.39,0s-.07-.27.06-.39l.79-.67a.27.27,0,0,1,.41,0l.67.58c.22-.2.44-.38.66-.57a.27.27,0,0,1,.42,0l.77.67c.13.11.2.23.08.38s-.22.12-.39,0l-.67-.57-.58.51a.16.16,0,0,0-.05.09v.08a1.14,1.14,0,0,0,.55,1.27,10.34,10.34,0,0,1,1,.83l-.72.54a.24.24,0,0,1-.17,0c-.58,0-1.15,0-1.72,0a.48.48,0,0,1-.23-.07c-.22-.16-.42-.33-.71-.55a.6.6,0,0,0,.18-.09c.42-.36.84-.72,1.25-1.09a.69.69,0,0,0,.12-.26s0-.09,0-.13C26.3,20.17,26,19.86,25.51,19.58Z"/><path class="cls-4" d="M27.23,5.21l.66-.57c.16-.14.31-.14.4,0s0,.27-.09.37l-.76.67a.26.26,0,0,1-.41,0l-.68-.58-.63.55c-.2.17-.28.17-.48,0L24.49,5c-.13-.11-.18-.25-.06-.38s.25-.09.37,0,.44.37.67.58l.6-.51a.28.28,0,0,0,0-.11s0,0,0-.06a1.17,1.17,0,0,0-.55-1.27,9.61,9.61,0,0,1-.91-.78l0-.06.71-.55a.29.29,0,0,1,.16,0h1.72a.45.45,0,0,1,.23.07l.67.51c-.46.4-.9.79-1.35,1.17a.57.57,0,0,0-.18.37,1,1,0,0,0,.53,1.13Z"/><path class="cls-4" d="M14.15,22.35l-.68.52a.4.4,0,0,1-.22.06q-.86,0-1.71,0a.35.35,0,0,1-.2-.05l-.69-.53.91-.8.07-.06c.57-.48.57-.48.53-1.24a.24.24,0,0,0-.06-.17c-.18-.18-.37-.34-.57-.51l-.68.59a.26.26,0,0,1-.35,0,.21.21,0,0,1,0-.36l.88-.76a.23.23,0,0,1,.34,0l.69.59.64-.56c.19-.16.28-.16.46,0l.75.65c.13.11.19.23.08.38s-.22.12-.4,0l-.61-.52-.05,0-.57.49a.17.17,0,0,0-.06.12c0,.26,0,.51,0,.76a.27.27,0,0,0,.11.18L14,22.18Z"/><path class="cls-4" d="M34.3,19.57c-.2.17-.39.33-.58.51a.22.22,0,0,0,0,.14,5.45,5.45,0,0,0,0,.7.41.41,0,0,0,.15.24l1.36,1.18-.74.58s-.08,0-.13,0c-.58,0-1.17,0-1.75,0a.27.27,0,0,1-.16,0l-.72-.55c.41-.37.8-.73,1.21-1.05a.79.79,0,0,0,.31-.66.85.85,0,0,0-.39-.86,2.18,2.18,0,0,1-.26-.21l-.64.55c-.13.12-.26.19-.41.05s-.08-.26.1-.41l.75-.65a.26.26,0,0,1,.41,0l.67.58.66-.57a.28.28,0,0,1,.44,0c.24.22.5.43.75.65s.2.22.09.38-.22.13-.4,0Z"/><path class="cls-4" d="M5.33,5.09c-.23.2-.46.38-.67.57a.28.28,0,0,1-.43,0C4,5.44,3.73,5.23,3.48,5s-.2-.28-.09-.4.26-.09.39,0l.67.58c.2-.17.4-.34.59-.52a.25.25,0,0,0,0-.15c0-.22,0-.45,0-.68a.36.36,0,0,0-.14-.23c-.38-.35-.78-.69-1.18-1l-.18-.17.71-.55a.29.29,0,0,1,.16,0H6.19a.32.32,0,0,1,.19,0l.69.53c-.18.16-.34.31-.51.45s-.58.5-.86.76a.43.43,0,0,0-.13.28c0,.78,0,.78.64,1.28l.58-.5s.1-.12.16-.12.25,0,.3,0a.3.3,0,0,1,0,.29c-.29.28-.61.55-.92.81-.12.1-.24,0-.34-.07S5.55,5.29,5.33,5.09Z"/><path class="cls-4" d="M33.37,5.09l-.66.57a.27.27,0,0,1-.42,0L31.52,5c-.13-.11-.21-.23-.08-.38s.25-.11.38,0,.44.37.68.58c.2-.17.4-.34.59-.52a.3.3,0,0,0,0-.16c0-.76,0-.76-.55-1.26-.31-.25-.6-.52-.9-.78l-.05-.07.71-.55a.44.44,0,0,1,.2,0h1.61a.77.77,0,0,1,.36.12c.2.14.38.29.6.46l-.2.18-1.18,1a.71.71,0,0,0-.13.26.27.27,0,0,0,0,.09c0,.74,0,.74.65,1.2l.63-.55c.13-.11.26-.18.41,0s.08.25-.08.4-.51.43-.75.65a.29.29,0,0,1-.45,0Z"/><path class="cls-4" d="M3.63,22.35c.42-.37.8-.73,1.22-1.06a.79.79,0,0,0,.31-.65.85.85,0,0,0-.4-.86,2.18,2.18,0,0,1-.26-.21l-.6.53c-.2.17-.33.19-.44.07s-.08-.26.11-.43l.72-.62a.28.28,0,0,1,.44,0l.65.57L6,19.12a.28.28,0,0,1,.44,0l.74.63c.13.11.23.23.1.4s-.22.13-.4,0l-.66-.57c-.2.17-.4.34-.58.51a.18.18,0,0,0-.06.14,5.45,5.45,0,0,0,0,.7.41.41,0,0,0,.15.24l1.36,1.18-.74.58a.37.37,0,0,1-.15,0q-.86,0-1.71,0a.36.36,0,0,1-.18,0Z"/><path class="cls-4" d="M2.16,4.23c-.12.07-.24.14-.37.2a.5.5,0,0,1-.58,0A.56.56,0,0,1,1,3.8a2.23,2.23,0,0,1,.39-.71,4.63,4.63,0,0,1,.76-.52,8.87,8.87,0,0,1,.74.51,1.21,1.21,0,0,1,.4.7.63.63,0,0,1-.21.63.49.49,0,0,1-.59,0A3.72,3.72,0,0,1,2.16,4.23Z"/><path class="cls-4" d="M36.61,4.23a4.1,4.1,0,0,1-.41.22.54.54,0,0,1-.75-.61,1.43,1.43,0,0,1,.68-1c.54-.36.41-.36.94,0a1.49,1.49,0,0,1,.67.9.65.65,0,0,1-.2.67.54.54,0,0,1-.63,0Z"/><path class="cls-4" d="M2.15,20.55a2.73,2.73,0,0,1,.41-.22.53.53,0,0,1,.75.61,1.48,1.48,0,0,1-.68,1c-.54.36-.41.36-.95,0A1.48,1.48,0,0,1,1,21a.65.65,0,0,1,.19-.67.56.56,0,0,1,.64,0Z"/><path class="cls-4" d="M36.6,20.55c.12-.07.25-.15.38-.21a.48.48,0,0,1,.56,0,.62.62,0,0,1,.21.59,1.15,1.15,0,0,1-.39.73,8.46,8.46,0,0,1-.76.52,4.85,4.85,0,0,1-.74-.51,2,2,0,0,1-.39-.7.54.54,0,0,1,.19-.63.51.51,0,0,1,.59,0Z"/><path class="cls-4" d="M15.94,4.23a4.64,4.64,0,0,1-.44.23.52.52,0,0,1-.72-.59,1.34,1.34,0,0,1,.61-1c.6-.43.48-.43,1.08,0a1.48,1.48,0,0,1,.59.81.65.65,0,0,1-.19.71c-.22.18-.45.09-.67,0S16,4.28,15.94,4.23Z"/><path class="cls-4" d="M22.83,4.23a3.42,3.42,0,0,1-.42.22.5.5,0,0,1-.73-.52A1.23,1.23,0,0,1,22,3.24a5.52,5.52,0,0,1,.79-.64.17.17,0,0,1,.14,0A1.81,1.81,0,0,1,24,3.8a.61.61,0,0,1-.21.61.51.51,0,0,1-.58,0Z"/><path class="cls-4" d="M15.93,20.54a4.37,4.37,0,0,1,.43-.22.52.52,0,0,1,.73.51,1.1,1.1,0,0,1-.35.81,7.27,7.27,0,0,1-.71.53s-.12,0-.15,0A1.79,1.79,0,0,1,14.79,21a.59.59,0,0,1,.21-.61.48.48,0,0,1,.57,0Z"/><path class="cls-4" d="M22.81,20.55a3.32,3.32,0,0,1,.41-.22.53.53,0,0,1,.75.61,1.32,1.32,0,0,1-.6.93c-.61.44-.48.44-1.09,0a1.41,1.41,0,0,1-.58-.79.63.63,0,0,1,.19-.72c.22-.19.46-.09.67,0A2.07,2.07,0,0,1,22.81,20.55Z"/><path class="cls-4" d="M9,4.24c-.14.07-.28.16-.43.22A.51.51,0,0,1,7.89,4a1,1,0,0,1,.3-.75A7.34,7.34,0,0,1,9,2.61a.2.2,0,0,1,.17,0,2,2,0,0,1,.91.79,1.29,1.29,0,0,1,.16.58.5.5,0,0,1-.71.49A4.51,4.51,0,0,1,9,4.24Z"/><path class="cls-4" d="M29.7,4.24a2.64,2.64,0,0,1-.37.2.52.52,0,0,1-.77-.54,1,1,0,0,1,.31-.72,7.85,7.85,0,0,1,.73-.56.19.19,0,0,1,.18,0,2,2,0,0,1,1,.89.8.8,0,0,1,0,.69.46.46,0,0,1-.63.29C30,4.41,29.87,4.32,29.7,4.24Z"/><path class="cls-4" d="M9.05,20.54c.14-.07.27-.16.41-.22a.52.52,0,0,1,.74.53,1,1,0,0,1-.28.7,8,8,0,0,1-.79.62.16.16,0,0,1-.15,0,1.79,1.79,0,0,1-1-.95,1.12,1.12,0,0,1,0-.63.44.44,0,0,1,.62-.29A5.24,5.24,0,0,1,9.05,20.54Z"/><path class="cls-4" d="M29.71,20.54a4.51,4.51,0,0,1,.44-.22.49.49,0,0,1,.7.48,1.62,1.62,0,0,1-.2.67,1.94,1.94,0,0,1-.85.7.22.22,0,0,1-.16,0,1.87,1.87,0,0,1-1-.88,1.11,1.11,0,0,1-.08-.65.45.45,0,0,1,.66-.33A3.74,3.74,0,0,1,29.71,20.54Z"/></g></g></svg>