<svg xmlns="http://www.w3.org/2000/svg" viewBox="0 0 38.55 24.66"><defs><style>.cls-1{isolation:isolate;}.cls-2{opacity:0.15;}.cls-2,.cls-3{mix-blend-mode:multiply;}.cls-4{fill:#fff;}</style></defs><title>convert-CUSTOMIZE-SVG-03</title><g class="cls-1"><g id="Layer_1" data-name="Layer 1"><g class="cls-2"><path d="M22.92,2.16l.65-.55c.2-.17.27-.17.47,0l.65.56.61-.53c.25-.21.32-.2.56,0l.61.52L27,1.73c.38-.33.38-.33.77,0l.5.44.66-.57c.19-.15.28-.15.46,0l.63.53.05,0,.65-.56c.19-.16.27-.16.46,0l.66.56.64-.55c.2-.17.29-.18.49,0l.65.57.66-.58c.19-.16.27-.16.46,0l.66.57c.23-.2.46-.38.67-.57a.29.29,0,0,1,.45,0l.76.66c.16.14.19.29.07.4s-.26.08-.39,0l-.67-.58-.6.52a.21.21,0,0,0-.05.13c0,.25,0,.5,0,.75a.3.3,0,0,0,.12.2l1.41,1.23-.76.58s-.12,0-.18,0H34.57a.76.76,0,0,1-.33-.11c-.21-.15-.41-.32-.63-.49.46-.41.91-.82,1.38-1.21a.48.48,0,0,0,.16-.36,1,1,0,0,0-.52-1.15l-.14-.11-.66.57c-.19.17-.26.17-.45,0l-.67-.57-.59.51a.2.2,0,0,0-.06.11c0,.27,0,.54,0,.81,0,.06.07.13.13.18l1.22,1.07a2,2,0,0,1,.17.15c-.25.19-.48.38-.72.55a.29.29,0,0,1-.18.05H30.94a.27.27,0,0,1-.16,0L30,4.88c.43-.38.84-.75,1.26-1.1a.7.7,0,0,0,.29-.6.88.88,0,0,0-.42-.93A2.11,2.11,0,0,1,30.93,2c-.22.19-.42.38-.64.56s-.29.19-.52,0l-.63-.54c-.2.17-.4.33-.58.5a1.42,1.42,0,0,0,.06,1.09l1.26,1.1.14.14c-.24.19-.47.38-.71.55a.33.33,0,0,1-.2.05H27.4a.33.33,0,0,1-.2-.05c-.24-.17-.47-.36-.72-.55.45-.4.88-.79,1.33-1.16a.62.62,0,0,0,.2-.43,1,1,0,0,0-.52-1.14.91.91,0,0,1-.13-.1l-.64.55c-.22.19-.28.19-.5,0l-.64-.55c-.2.17-.4.33-.59.51a1.53,1.53,0,0,0,.07,1.09l1.23,1.07.17.16c-.26.2-.49.39-.74.57a.32.32,0,0,1-.18,0H23.83a.48.48,0,0,1-.25-.09l-.66-.5-.65.5a.48.48,0,0,1-.26.09H20.33a.64.64,0,0,1-.3-.11c-.22-.14-.42-.31-.65-.49l.19-.17c.41-.35.82-.7,1.21-1.06a.46.46,0,0,0,.13-.29c0-.79,0-.79-.61-1.29h-.05l-.62.54c-.21.19-.28.19-.49,0l-.65-.56c-.2.17-.4.33-.59.51A1.5,1.5,0,0,0,18,3.66l1.26,1.09.14.13c-.26.2-.49.39-.73.56a.28.28,0,0,1-.18,0H16.74a.34.34,0,0,1-.18,0c-.25-.18-.48-.37-.74-.57.37-.33.72-.67,1.1-.95a1,1,0,0,0,.45-1,.67.67,0,0,0-.28-.59A3.74,3.74,0,0,1,16.71,2l-.58.5c-.3.27-.33.27-.63,0L15,2.08l-.06,0c-.19.16-.39.33-.58.51a1.47,1.47,0,0,0,.07,1.07l1.29,1.13.12.11c-.25.19-.48.38-.73.56a.33.33,0,0,1-.2,0H13.18a.42.42,0,0,1-.2,0l-.73-.56.5-.44c.31-.27.62-.53.91-.8a.56.56,0,0,0,.12-.27.17.17,0,0,0,0-.1c0-.74,0-.78-.66-1.21l-.67.58a.28.28,0,0,1-.43,0l-.67-.58-.59.5a1.55,1.55,0,0,0,.06,1.1L12.15,4.8l.11.06-.78.6s-.11,0-.16,0H9.62a.48.48,0,0,1-.26-.09c-.23-.16-.44-.33-.67-.51.48-.42.94-.82,1.39-1.23a.44.44,0,0,0,.14-.3c0-.76,0-.76-.58-1.25l-.07-.05-.64.56c-.21.18-.27.18-.47,0L7.8,2.05l-.59.5a1.55,1.55,0,0,0,0,1.08L8.48,4.7l.2.18c-.26.2-.51.4-.76.58a.4.4,0,0,1-.19,0H6.08a.64.64,0,0,1-.3-.11c-.22-.15-.43-.32-.65-.49.46-.41.9-.8,1.36-1.19a.37.37,0,0,0,.16-.37V3.25c0-.72,0-.77-.65-1.19l-.57.49c-.3.26-.33.26-.62,0l-.58-.5-.58.5A1.52,1.52,0,0,0,3.7,3.64L5,4.76l.13.12c-.25.19-.48.38-.73.56a.27.27,0,0,1-.16,0H2.45a.27.27,0,0,1-.16,0l-.72-.56.48-.43L3,3.63a.68.68,0,0,0,.1-.21s0,0,0-.07a1.06,1.06,0,0,0-.67-1.27l-.57.49-.13.11a.23.23,0,0,1-.34,0,.21.21,0,0,1,0-.32c.29-.27.6-.54.91-.79.11-.1.23-.05.34,0l.69.59L4,1.61c.2-.16.29-.16.48,0l.65.57c.23-.21.46-.39.68-.59a.28.28,0,0,1,.43,0l.67.58.62-.53c.23-.2.31-.2.54,0l.62.53.66-.56c.2-.17.28-.17.48,0l.65.56.63-.54c.22-.19.3-.19.52,0l.63.53.65-.56c.2-.17.28-.17.48,0l.65.56.66-.57c.18-.15.28-.15.46,0l.66.57.67-.58c.19-.16.27-.16.46,0l.66.57.62-.53c.22-.2.3-.2.52,0l.64.54L20,1.65c.25-.22.3-.22.56,0l.57.5.06,0,.64-.56a.29.29,0,0,1,.45,0Zm-.86-.11c-.66.48-.66.48-.66,1.24a.37.37,0,0,0,0,.15.49.49,0,0,0,.08.18l1.29,1.13c.11.09.18.09.28,0l1.29-1.13a.28.28,0,0,0,.09-.18c0-.24,0-.49,0-.74a.29.29,0,0,0-.05-.13L23.79,2l-.65.6a.26.26,0,0,1-.42,0Z"/><path d="M37.13,19.71c-.49.42-.94.82-1.39,1.23a.41.41,0,0,0-.13.28c0,.79,0,.79.6,1.29l0,0,.61-.52.11-.1c.13-.08.25-.09.34,0a.21.21,0,0,1,0,.32c-.3.27-.6.54-.91.8A.25.25,0,0,1,36,23l-.69-.59-.66.56c-.19.16-.28.16-.47,0s-.43-.36-.65-.56c-.23.21-.46.4-.68.59a.28.28,0,0,1-.43,0l-.67-.58-.61.52c-.24.21-.31.21-.55,0L30,22.42l-.65.55c-.21.18-.28.18-.49,0l-.65-.55-.66.57a.29.29,0,0,1-.45,0l-.67-.58-.62.54c-.23.21-.3.21-.52,0l-.64-.54L24,23c-.22.19-.29.19-.52,0s-.42-.35-.63-.54l-.65.57c-.21.17-.28.17-.5,0l-.64-.55-.63.55c-.21.18-.29.18-.5,0l-.65-.56c-.22.2-.45.38-.66.58a.28.28,0,0,1-.44,0l-.68-.58-.65.56c-.19.16-.29.16-.48,0l-.63-.55-.6.51c-.25.22-.31.22-.55,0L14,22.42l-.66.57a.29.29,0,0,1-.45,0c-.22-.19-.44-.37-.67-.58l-.66.57c-.19.17-.27.17-.46,0l-.66-.57L9.77,23c-.18.15-.27.15-.46,0l-.65-.57L8,23c-.21.17-.28.17-.49,0l-.64-.55L6.23,23c-.2.17-.29.18-.49,0s-.43-.36-.65-.56L4.46,23c-.23.19-.29.2-.51,0l-.64-.55L2.65,23c-.18.16-.28.16-.46,0l-.77-.66c-.12-.11-.19-.24-.07-.39s.24-.11.37,0l.7.6L3,22s0-.07,0-.11,0,0,0-.06c0-.78,0-.78-.58-1.29l-1-.84.76-.58s.12,0,.18,0H4.13a.63.63,0,0,1,.32.12c.21.14.41.31.63.48L3.7,20.92a.46.46,0,0,0-.16.34,1.06,1.06,0,0,0,.54,1.18l.12.1L4.86,22c.19-.17.26-.17.45,0l.67.57c.2-.17.41-.34.6-.52A1.58,1.58,0,0,0,6.51,21L5.2,19.8l-.12-.08.78-.59a.27.27,0,0,1,.16,0H7.71A.51.51,0,0,1,8,19.2l.67.51c-.47.41-.91.8-1.36,1.18a.58.58,0,0,0-.19.4,1,1,0,0,0,.52,1.13l.14.12L8.35,22c.28-.25.33-.24.6,0l.6.51.6-.52a.48.48,0,0,0,0-.17c0-.79,0-.79-.57-1.3l-1-.84.76-.58s.12,0,.18,0h1.65a.76.76,0,0,1,.33.11c.21.15.41.32.63.49-.46.41-.9.8-1.35,1.18a.55.55,0,0,0-.18.37,1.11,1.11,0,0,0,.57,1.22.21.21,0,0,1,.08.06L12,22c.22-.19.28-.19.49,0l.65.56c.2-.17.4-.33.59-.51a1.61,1.61,0,0,0-.07-1.1L12.4,19.86l-.18-.16c.4-.21.62-.65,1.16-.6s1,0,1.44,0a1.86,1.86,0,0,1,.31.1l0,0c.2.14.4.4.59.4s.39-.28.6-.41a.86.86,0,0,1,.38-.13h1.61a.55.55,0,0,1,.3.11c.22.15.42.31.65.49l-.64.56c-.11.1-.22.2-.34.29-.59.51-.59.51-.55,1.3a.27.27,0,0,0,.08.19c.17.16.36.32.56.49l.64-.56c.21-.18.28-.18.49,0l.65.56.59-.51a.17.17,0,0,0,.06-.11c0-.27,0-.54,0-.81,0-.06-.07-.13-.12-.18l-1.26-1.1-.16-.1c.28-.22.51-.41.76-.59a.34.34,0,0,1,.18,0H22a.27.27,0,0,1,.18,0c.25.17.48.36.74.56-.39.34-.74.69-1.13,1a1,1,0,0,0-.42.89.72.72,0,0,0,.31.66,3.18,3.18,0,0,1,.36.3l.62-.54c.24-.21.3-.21.53,0l.63.55.61-.54a.14.14,0,0,0,0-.1s0-.05,0-.08a1.17,1.17,0,0,0-.57-1.28,9.4,9.4,0,0,1-1-.84c.25-.19.48-.38.73-.56a.27.27,0,0,1,.18,0h1.73a.34.34,0,0,1,.18,0l.73.56-.43.37c-.32.29-.66.57-1,.87a.4.4,0,0,0-.12.27c0,.79,0,.79.65,1.32.2-.18.4-.36.61-.53s.29-.22.55,0l.61.53c.21-.17.4-.33.59-.51a1.52,1.52,0,0,0-.06-1.09L26.55,19.8l-.12-.07c.28-.22.53-.42.78-.6,0,0,.11,0,.17,0h1.69a.54.54,0,0,1,.27.09l.66.51c-.48.42-.94.82-1.39,1.23a.56.56,0,0,0-.14.3A1,1,0,0,0,29,22.45l.11.09.64-.55c.22-.19.28-.2.5,0l.65.55.6-.52a.29.29,0,0,0,.05-.13c0-.25,0-.5,0-.74a.25.25,0,0,0-.11-.19l-1.22-1.08-.2-.17c.27-.2.51-.4.77-.58,0,0,.12,0,.18,0h1.65a.58.58,0,0,1,.31.11c.21.14.41.31.64.49l-.76.68-.66.57a1.37,1.37,0,0,0,0,1.12l.53.46.68-.59a.27.27,0,0,1,.42,0l.68.59c.2-.17.38-.32.56-.49s.06-.12.09-.18,0,0,0,0a1.19,1.19,0,0,0-.58-1.3,10.2,10.2,0,0,1-1-.82c.25-.19.48-.38.72-.55a.33.33,0,0,1,.2-.05h1.72a.32.32,0,0,1,.19.05C36.64,19.33,36.87,19.51,37.13,19.71ZM16.64,22.55l.54-.47A1.74,1.74,0,0,0,17.23,21l0,0-1.32-1.15a.16.16,0,0,0-.25,0,7.29,7.29,0,0,1-.85.73,1.18,1.18,0,0,0-.55,1.29.32.32,0,0,0,.06.17c.19.18.39.35.6.53l.66-.6A.26.26,0,0,1,16,22Z"/><path d="M23.12,2.36l.65-.55c.19-.17.27-.17.47,0l.65.56.61-.53c.25-.21.32-.21.56,0l.61.52.51-.44c.38-.33.38-.33.77,0l.5.44.66-.57c.18-.15.28-.15.46,0l.63.53.05,0,.65-.56c.19-.16.27-.16.46,0l.66.57.63-.55c.21-.18.3-.18.5,0l.65.56.66-.57c.19-.16.27-.16.46,0l.66.57.67-.58a.28.28,0,0,1,.44,0l.77.66c.16.14.18.29.07.4s-.26.08-.39,0l-.67-.59-.6.53a.21.21,0,0,0,0,.13c0,.25,0,.5,0,.74a.37.37,0,0,0,.13.2l1.41,1.24-.76.57s-.12,0-.18,0c-.55,0-1.1,0-1.66,0a.56.56,0,0,1-.32-.11c-.21-.14-.41-.31-.63-.48.46-.41.91-.82,1.37-1.21a.46.46,0,0,0,.17-.36,1,1,0,0,0-.52-1.15l-.14-.11L34,2.82c-.19.17-.26.17-.45,0l-.67-.58-.6.52a.22.22,0,0,0-.05.11c0,.27,0,.54,0,.81a.36.36,0,0,0,.13.17l1.23,1.08.17.15c-.25.19-.48.38-.72.55a.29.29,0,0,1-.18,0H31.13a.26.26,0,0,1-.15,0l-.74-.56c.43-.38.84-.75,1.26-1.1a.76.76,0,0,0,.29-.6.91.91,0,0,0-.42-.93,2.11,2.11,0,0,1-.24-.21l-.64.56c-.23.19-.29.19-.52,0l-.63-.55c-.2.18-.4.34-.58.51a1.47,1.47,0,0,0,0,1.09l1.27,1.1.14.14-.71.55a.33.33,0,0,1-.2,0H27.6a.33.33,0,0,1-.2,0c-.24-.17-.47-.36-.73-.55.46-.4.89-.79,1.34-1.17a.58.58,0,0,0,.2-.43,1,1,0,0,0-.52-1.13.57.57,0,0,1-.13-.1l-.64.55c-.22.19-.28.19-.5,0l-.64-.56c-.2.18-.4.34-.59.52a1.53,1.53,0,0,0,.07,1.09l1.23,1.07.17.16c-.26.2-.49.39-.74.57a.34.34,0,0,1-.18,0H24a.54.54,0,0,1-.25-.09l-.66-.5-.65.5a.62.62,0,0,1-.27.09c-.55,0-1.11,0-1.67,0a.64.64,0,0,1-.3-.11c-.22-.15-.42-.31-.65-.49l.19-.17c.41-.35.81-.7,1.21-1.07a.41.41,0,0,0,.13-.28c0-.79,0-.79-.62-1.29h0l-.62.54c-.21.19-.28.19-.49,0l-.65-.56c-.2.17-.41.33-.59.51a1.47,1.47,0,0,0,.07,1.09L19.43,5l.14.13-.74.56a.27.27,0,0,1-.18,0H16.94a.27.27,0,0,1-.18,0c-.25-.17-.48-.36-.74-.56.37-.33.71-.67,1.1-1a1,1,0,0,0,.44-1,.64.64,0,0,0-.27-.58,3.78,3.78,0,0,1-.39-.34l-.57.5C16,3,16,3,15.7,2.75l-.54-.47-.06,0c-.19.16-.39.33-.58.51a1.47,1.47,0,0,0,.07,1.07L15.88,5l.12.11c-.25.19-.48.38-.73.56a.33.33,0,0,1-.2,0H13.38a.33.33,0,0,1-.2,0c-.24-.17-.47-.35-.73-.55l.5-.44.91-.8A.74.74,0,0,0,14,3.57a.34.34,0,0,0,0-.1c0-.75,0-.78-.66-1.21l-.66.58a.28.28,0,0,1-.43,0l-.68-.59L11,2.75A1.52,1.52,0,0,0,11,3.84L12.35,5l.11.06-.78.6s-.11,0-.16,0H9.82a.66.66,0,0,1-.27-.09c-.22-.16-.43-.33-.66-.51.48-.42.94-.82,1.39-1.23a.44.44,0,0,0,.14-.3c0-.76,0-.76-.58-1.25l-.08,0-.63.56c-.21.18-.27.18-.48,0L8,2.24c-.2.18-.4.34-.58.51a1.55,1.55,0,0,0,0,1.08L8.68,4.9l.2.18-.76.58a.4.4,0,0,1-.19,0c-.55,0-1.1,0-1.65,0A.72.72,0,0,1,6,5.57c-.21-.15-.42-.32-.64-.5.46-.4.9-.8,1.35-1.18a.36.36,0,0,0,.17-.38V3.45c0-.73,0-.77-.65-1.19l-.57.49C5.33,3,5.3,3,5,2.75l-.58-.51c-.2.18-.4.34-.58.51a1.52,1.52,0,0,0,0,1.09L5.18,5l.13.13-.73.56a.27.27,0,0,1-.16,0H2.64a.26.26,0,0,1-.15,0l-.73-.56.48-.43c.32-.27.64-.54.94-.82a.51.51,0,0,0,.11-.22s0,0,0-.06a1.07,1.07,0,0,0-.67-1.28L2,2.77l-.12.11a.23.23,0,0,1-.34,0,.21.21,0,0,1,0-.32l.91-.8c.12-.1.24-.05.35.05l.69.59.65-.56c.2-.17.29-.16.48,0l.65.56L6,1.79a.27.27,0,0,1,.42,0l.68.58.62-.53c.23-.2.31-.2.54,0l.62.53.66-.56c.2-.17.27-.17.47,0l.66.56q.32-.29.63-.54c.22-.19.29-.19.52,0l.63.54.65-.56c.2-.17.27-.17.48,0l.65.56.66-.57a.29.29,0,0,1,.46,0l.66.57.67-.57c.18-.16.27-.16.46,0l.65.57.62-.54c.23-.19.31-.19.53,0l.64.54.61-.53c.25-.21.3-.21.55,0l.58.5.06,0L22,1.8a.3.3,0,0,1,.45,0Zm-.86-.11c-.66.48-.66.48-.66,1.24a.38.38,0,0,0,0,.15.37.37,0,0,0,.08.18L23,5a.17.17,0,0,0,.28,0l1.29-1.13a.28.28,0,0,0,.09-.17c0-.25,0-.49,0-.74a.17.17,0,0,0-.05-.13c-.19-.18-.39-.35-.6-.53l-.66.6a.26.26,0,0,1-.42,0Z"/><path d="M37.33,19.91c-.49.42-.95.82-1.39,1.23a.37.37,0,0,0-.13.28c0,.79,0,.79.6,1.29l0,0,.61-.53a.87.87,0,0,1,.11-.09.23.23,0,0,1,.34,0,.22.22,0,0,1,0,.32c-.3.27-.6.54-.91.79a.24.24,0,0,1-.34,0l-.69-.59-.66.56c-.19.16-.28.16-.47,0l-.65-.56-.68.59a.28.28,0,0,1-.43,0L32,22.62l-.61.52c-.24.21-.31.21-.56,0l-.61-.54-.65.56c-.21.18-.28.18-.49,0l-.65-.55-.66.57a.29.29,0,0,1-.45,0l-.67-.58-.62.54c-.24.2-.3.21-.53,0l-.63-.54-.63.54c-.22.19-.3.19-.52,0l-.64-.54c-.22.2-.43.38-.65.56s-.28.18-.49,0l-.64-.56-.64.56c-.2.17-.28.18-.49,0s-.43-.36-.65-.56c-.23.2-.45.38-.66.58a.28.28,0,0,1-.44,0l-.68-.58-.65.56c-.19.16-.29.16-.48,0L16,22.63l-.6.51c-.26.22-.31.22-.56,0l-.61-.53-.67.57a.28.28,0,0,1-.44,0l-.67-.58-.66.57c-.19.17-.27.17-.46,0l-.66-.57-.67.57c-.18.15-.27.15-.46,0l-.66-.57-.65.56c-.21.18-.28.18-.49,0l-.64-.56-.64.56c-.2.17-.29.17-.49,0l-.65-.56-.63.55c-.23.19-.29.19-.51,0l-.64-.55-.66.56c-.19.16-.28.16-.46,0l-.77-.67c-.12-.1-.19-.23-.07-.38s.24-.12.36,0l.71.61.6-.53s0-.07,0-.11V22c0-.78,0-.78-.58-1.29l-1-.84c.26-.2.5-.4.76-.58,0,0,.12,0,.18,0H4.32a.65.65,0,0,1,.33.11c.21.15.41.32.63.49L3.9,21.12a.46.46,0,0,0-.16.33,1.06,1.06,0,0,0,.54,1.19.9.9,0,0,1,.12.1l.66-.57c.19-.17.26-.17.45,0l.67.57c.2-.18.41-.34.59-.52a1.55,1.55,0,0,0-.06-1.08L5.4,20l-.12-.08c.28-.21.52-.41.77-.59,0,0,.11,0,.17,0H7.91a.51.51,0,0,1,.27.09c.22.16.43.33.66.51-.46.41-.9.8-1.35,1.18a.55.55,0,0,0-.19.4,1,1,0,0,0,.52,1.13l.14.12.59-.51c.28-.25.33-.25.6,0l.59.51c.21-.17.41-.34.6-.52a.27.27,0,0,0,.05-.18c0-.78,0-.78-.57-1.29l-1-.84.76-.58s.12,0,.18,0h1.65a.68.68,0,0,1,.33.11c.21.15.41.32.63.49-.46.4-.9.8-1.35,1.18a.53.53,0,0,0-.18.37,1.11,1.11,0,0,0,.57,1.22l.08.06.64-.56c.21-.18.27-.18.49,0l.65.56.59-.51a1.61,1.61,0,0,0-.07-1.1L12.6,20.06l-.18-.16c.4-.21.62-.65,1.16-.6s1,0,1.44,0a1,1,0,0,1,.31.1l.05,0c.2.14.4.4.59.4s.39-.28.6-.41a.86.86,0,0,1,.38-.13h1.61a.55.55,0,0,1,.3.11,6.82,6.82,0,0,1,.64.49l-.63.56-.34.29c-.59.51-.59.51-.55,1.3a.29.29,0,0,0,.07.18c.18.17.37.33.57.5l.64-.56c.21-.18.28-.18.49,0l.65.56.59-.51a.2.2,0,0,0,.06-.11c0-.27,0-.54,0-.81,0-.06-.07-.13-.12-.18L19.66,20l-.16-.11c.28-.21.51-.4.76-.58a.32.32,0,0,1,.18,0h1.71a.34.34,0,0,1,.18,0c.25.18.48.37.74.57-.39.34-.74.68-1.13,1a.94.94,0,0,0-.42.89.73.73,0,0,0,.31.66,4.35,4.35,0,0,1,.35.3l.62-.54c.25-.21.31-.21.54,0l.63.54c.2-.18.41-.35.61-.54,0,0,0-.06,0-.09a.21.21,0,0,0,0-.08,1.17,1.17,0,0,0-.56-1.28,12.49,12.49,0,0,1-1-.84c.26-.2.49-.39.74-.56a.27.27,0,0,1,.18,0h1.73a.37.37,0,0,1,.18,0l.72.56-.42.37c-.33.29-.66.57-1,.87a.38.38,0,0,0-.12.27c0,.79,0,.79.64,1.32l.62-.53c.25-.22.29-.22.55,0l.61.53c.21-.17.4-.33.59-.51a1.52,1.52,0,0,0-.06-1.09L26.75,20l-.12-.07c.28-.22.53-.42.78-.6,0,0,.11,0,.16,0h1.7a.54.54,0,0,1,.27.09c.22.16.43.33.66.51l-1.4,1.23a.76.76,0,0,0-.14.3,1.06,1.06,0,0,0,.54,1.21l.11.09.64-.55c.22-.19.28-.2.5,0s.42.36.64.55l.61-.52a.2.2,0,0,0,0-.13q0-.37,0-.75a.29.29,0,0,0-.11-.18l-1.22-1.08-.2-.17c.26-.2.51-.4.76-.58a.4.4,0,0,1,.19,0h1.65a.71.71,0,0,1,.31.1c.21.15.41.32.64.5l-.77.67-.65.57a1.39,1.39,0,0,0,0,1.13l.53.46.68-.59a.27.27,0,0,1,.42,0l.68.59c.19-.17.38-.32.56-.49s.06-.12.08-.18,0,0,0,0a1.19,1.19,0,0,0-.58-1.3,11.94,11.94,0,0,1-1-.82c.25-.19.48-.38.72-.55a.33.33,0,0,1,.2-.05H36.4a.42.42,0,0,1,.2,0Zm-20.5,2.84.55-.47a1.76,1.76,0,0,0,.05-1.09h0L16.09,20a.16.16,0,0,0-.25,0,7.29,7.29,0,0,1-.85.73,1.18,1.18,0,0,0-.55,1.29.48.48,0,0,0,.05.17l.61.52.65-.59a.26.26,0,0,1,.42,0Z"/></g><g class="cls-3"><path d="M22.78,2l.65-.55c.19-.17.27-.17.47,0l.65.56.61-.53c.25-.21.31-.21.56,0l.61.52.51-.44c.38-.33.38-.33.77,0l.5.44.66-.57c.18-.15.28-.15.46,0l.63.53.05,0,.65-.56c.19-.16.27-.16.46,0l.66.57.63-.55c.21-.18.3-.18.5,0l.65.56.66-.57c.19-.16.27-.16.46,0l.66.57.67-.58a.28.28,0,0,1,.44,0l.77.66c.16.14.18.29.07.4s-.26.08-.39,0l-.67-.59-.6.53a.21.21,0,0,0-.05.13c0,.25,0,.5,0,.74a.37.37,0,0,0,.13.2L37,4.74l-.76.57s-.12,0-.18,0c-.55,0-1.1,0-1.66,0a.56.56,0,0,1-.32-.11c-.21-.14-.41-.31-.63-.48.46-.41.91-.82,1.37-1.21A.46.46,0,0,0,35,3.17,1,1,0,0,0,34.49,2l-.14-.11-.66.57c-.19.17-.26.17-.45,0l-.67-.58-.6.52a.22.22,0,0,0,0,.11c0,.27,0,.54,0,.81a.36.36,0,0,0,.13.17l1.23,1.08.17.15c-.25.19-.48.38-.72.55a.29.29,0,0,1-.18,0H30.79a.26.26,0,0,1-.15,0c-.25-.18-.48-.37-.74-.57.43-.37.84-.74,1.26-1.09a.76.76,0,0,0,.29-.6A.91.91,0,0,0,31,2.11a1.5,1.5,0,0,1-.24-.21l-.64.56c-.23.19-.29.19-.52,0L29,1.9c-.2.18-.4.34-.58.51a1.47,1.47,0,0,0,0,1.09l1.27,1.1.14.14-.71.55a.33.33,0,0,1-.2,0H27.26a.33.33,0,0,1-.2,0c-.24-.17-.47-.36-.73-.55.46-.4.89-.79,1.34-1.17a.58.58,0,0,0,.2-.43A1,1,0,0,0,27.35,2a.57.57,0,0,1-.13-.1l-.64.55c-.22.19-.28.19-.5,0l-.64-.56c-.2.18-.4.34-.59.52a1.53,1.53,0,0,0,.07,1.09l1.23,1.07.17.16c-.26.2-.49.39-.74.57a.34.34,0,0,1-.18,0H23.69a.54.54,0,0,1-.25-.09l-.66-.5-.65.5a.62.62,0,0,1-.27.09H20.19a.54.54,0,0,1-.3-.1c-.22-.15-.42-.31-.65-.49l.19-.17c.41-.35.81-.7,1.21-1.07a.41.41,0,0,0,.13-.28c0-.79,0-.79-.62-1.29h0l-.62.54c-.22.19-.28.19-.49,0l-.65-.57c-.2.18-.41.34-.59.52a1.47,1.47,0,0,0,.07,1.09l1.26,1.1.14.13-.74.56a.27.27,0,0,1-.18,0H16.6a.27.27,0,0,1-.18,0c-.25-.17-.48-.36-.74-.56.37-.33.71-.67,1.1-1a1,1,0,0,0,.44-1A.64.64,0,0,0,17,2.24a3.78,3.78,0,0,1-.39-.34L16,2.4c-.3.27-.33.27-.63,0l-.54-.48h-.06c-.19.16-.39.33-.58.51a1.47,1.47,0,0,0,.07,1.07l1.29,1.13.12.11c-.25.19-.48.38-.73.56a.33.33,0,0,1-.2,0H13a.33.33,0,0,1-.2,0c-.24-.17-.47-.35-.73-.55l.5-.44.91-.8a.74.74,0,0,0,.12-.27.34.34,0,0,0,0-.1c0-.75,0-.78-.66-1.21l-.66.58a.28.28,0,0,1-.43,0l-.68-.59-.58.51a1.52,1.52,0,0,0,.06,1.09L12,4.66l.11.06-.78.6s-.11,0-.16,0H9.48a.66.66,0,0,1-.27-.09c-.22-.16-.43-.33-.66-.51.47-.42.94-.82,1.39-1.23a.44.44,0,0,0,.14-.3c0-.76,0-.76-.58-1.25l-.08-.05-.63.56c-.21.18-.27.18-.48,0L7.65,1.9c-.2.18-.4.34-.58.51a1.55,1.55,0,0,0,0,1.08L8.34,4.56l.2.18-.76.58a.4.4,0,0,1-.19,0H5.94a.72.72,0,0,1-.31-.11c-.21-.15-.42-.32-.64-.5.46-.4.9-.8,1.35-1.18a.36.36,0,0,0,.17-.38V3.11c0-.73,0-.77-.65-1.19l-.57.49c-.3.26-.33.26-.62,0L4.09,1.9c-.2.18-.4.34-.58.51A1.52,1.52,0,0,0,3.56,3.5L4.84,4.61,5,4.74l-.73.56a.27.27,0,0,1-.16,0H2.3a.26.26,0,0,1-.15,0l-.73-.56.48-.43c.32-.27.64-.54.94-.82A.51.51,0,0,0,3,3.27s0,0,0-.06a1.07,1.07,0,0,0-.67-1.28l-.58.5-.12.11a.23.23,0,0,1-.34,0,.21.21,0,0,1,0-.32l.91-.8c.12-.1.24,0,.35.05L3.2,2l.65-.56c.2-.17.29-.16.48,0L5,2l.68-.58a.27.27,0,0,1,.42,0L6.76,2l.62-.53c.23-.2.31-.2.54,0L8.54,2l.66-.56c.2-.17.27-.17.47,0l.66.56q.31-.28.63-.54c.22-.19.29-.19.52,0l.63.54.65-.56c.2-.17.27-.17.48,0l.65.56.66-.57a.29.29,0,0,1,.46,0l.66.57.67-.57c.18-.16.27-.16.46,0l.65.57.62-.54c.23-.19.31-.19.53,0l.64.54.61-.53c.25-.21.3-.21.55,0L21,2,21,2c.21-.19.43-.37.64-.57a.31.31,0,0,1,.45,0Zm-.86-.11c-.66.48-.66.48-.66,1.24a.38.38,0,0,0,0,.15.37.37,0,0,0,.08.18l1.29,1.13a.17.17,0,0,0,.28,0l1.29-1.13a.28.28,0,0,0,.09-.17c0-.25,0-.49,0-.74a.17.17,0,0,0-.05-.13c-.19-.18-.39-.35-.6-.53L23,2.5a.26.26,0,0,1-.42,0Z"/><path d="M37,19.57c-.49.42-1,.82-1.4,1.23a.4.4,0,0,0-.12.28c0,.79,0,.79.6,1.29l0,0,.61-.53a.87.87,0,0,1,.11-.09.23.23,0,0,1,.34,0,.22.22,0,0,1,0,.32c-.3.27-.6.54-.91.79a.24.24,0,0,1-.34,0l-.69-.59-.66.56c-.19.16-.28.16-.47,0l-.65-.56-.68.59a.28.28,0,0,1-.43,0l-.67-.58L31,22.8c-.24.21-.32.21-.56,0l-.61-.54-.65.56c-.21.18-.28.18-.49,0l-.65-.55-.66.57a.29.29,0,0,1-.45,0l-.67-.58-.62.54c-.24.2-.3.21-.53,0l-.63-.54-.63.54c-.22.19-.3.19-.52,0l-.64-.54c-.22.2-.43.38-.65.56s-.28.18-.49,0L21,22.27l-.64.56c-.2.17-.28.18-.49,0s-.43-.36-.65-.56c-.23.2-.45.38-.66.58a.28.28,0,0,1-.44,0l-.68-.58-.65.56c-.19.16-.29.16-.48,0l-.63-.55-.6.51c-.26.22-.31.22-.56,0l-.61-.53-.67.57a.28.28,0,0,1-.44,0l-.67-.58-.66.57c-.19.17-.27.17-.46,0l-.66-.57-.67.57c-.18.15-.27.15-.46,0l-.66-.57-.65.56c-.21.18-.28.18-.49,0l-.64-.56-.64.56c-.2.17-.29.17-.49,0L5,22.27l-.64.55c-.22.19-.28.19-.5,0l-.64-.55-.66.56c-.19.16-.28.16-.46,0l-.77-.67c-.12-.1-.19-.23-.07-.38s.24-.12.36,0l.71.61.6-.53s0-.07.05-.11V21.7c0-.78,0-.78-.58-1.29l-1-.84c.26-.2.5-.4.76-.58,0,0,.12,0,.18,0H4a.65.65,0,0,1,.33.11c.21.15.41.32.63.49L3.56,20.78a.46.46,0,0,0-.16.33,1.06,1.06,0,0,0,.54,1.19.9.9,0,0,1,.12.1l.66-.57c.19-.17.26-.17.45,0l.67.57c.2-.18.41-.34.59-.52a1.55,1.55,0,0,0-.06-1.08L5.06,19.66l-.12-.08c.28-.21.52-.41.77-.59,0,0,.11,0,.17,0H7.57a.51.51,0,0,1,.27.09c.22.16.43.33.66.51-.46.41-.9.8-1.35,1.18a.55.55,0,0,0-.19.4,1,1,0,0,0,.52,1.13l.14.12.59-.51c.28-.25.33-.25.6,0l.59.51c.21-.17.41-.34.6-.52a.27.27,0,0,0,.05-.18c0-.78,0-.78-.57-1.29l-1-.84L9.28,19s.12,0,.18,0h1.65a.62.62,0,0,1,.32.11c.22.15.42.32.64.49-.46.4-.9.8-1.35,1.18a.49.49,0,0,0-.18.37,1.11,1.11,0,0,0,.57,1.22l.08.06.64-.56c.21-.18.27-.18.49,0l.65.56.59-.51a1.61,1.61,0,0,0-.07-1.1l-1.23-1.07-.18-.16c.4-.21.62-.65,1.16-.6s1,0,1.44,0a1,1,0,0,1,.31.1l0,0c.2.14.4.4.59.4s.39-.28.6-.41a.86.86,0,0,1,.38-.13h1.61a.55.55,0,0,1,.3.11,6.82,6.82,0,0,1,.64.49l-.63.56-.34.29c-.59.51-.59.51-.55,1.3a.29.29,0,0,0,.07.18c.18.17.37.33.57.5l.64-.56c.21-.18.28-.18.49,0l.65.56.59-.51a.2.2,0,0,0,.06-.11c0-.27,0-.54,0-.81,0-.06-.07-.13-.12-.18l-1.26-1.1-.16-.11c.27-.21.51-.4.76-.58a.32.32,0,0,1,.18,0h1.71A.34.34,0,0,1,22,19c.25.18.48.37.74.57-.39.34-.74.68-1.13,1a.94.94,0,0,0-.42.89.73.73,0,0,0,.31.66,4.35,4.35,0,0,1,.35.3l.62-.54c.25-.21.31-.21.54,0l.63.54.61-.54s0-.06,0-.09a.21.21,0,0,0,0-.08,1.17,1.17,0,0,0-.56-1.28,12.49,12.49,0,0,1-1-.84c.26-.2.49-.39.74-.56a.27.27,0,0,1,.18,0h1.73a.37.37,0,0,1,.18,0l.72.56-.42.37c-.33.29-.66.57-1,.87a.37.37,0,0,0-.12.26c0,.8,0,.8.64,1.33l.62-.53c.25-.22.29-.22.55,0l.61.53c.2-.17.4-.33.59-.51a1.52,1.52,0,0,0-.06-1.09l-1.31-1.14-.12-.07c.28-.22.53-.42.78-.6,0,0,.11,0,.16,0h1.7a.54.54,0,0,1,.27.09c.22.16.43.33.66.51l-1.4,1.23a.64.64,0,0,0-.14.3,1.06,1.06,0,0,0,.54,1.21l.11.09.64-.55c.22-.2.28-.2.5,0s.42.36.64.55l.61-.52a.2.2,0,0,0,0-.13q0-.37,0-.75a.29.29,0,0,0-.11-.18l-1.22-1.08-.2-.17c.26-.2.51-.4.76-.58a.4.4,0,0,1,.19,0h1.65a.63.63,0,0,1,.3.1c.22.15.42.32.65.5l-.77.67-.65.57a1.39,1.39,0,0,0,0,1.13l.53.46.68-.59a.27.27,0,0,1,.42,0l.68.59c.19-.17.38-.32.56-.49s.06-.12.08-.18,0,0,0,0a1.19,1.19,0,0,0-.58-1.3,11.94,11.94,0,0,1-1-.82c.25-.19.48-.38.72-.55a.33.33,0,0,1,.2-.05h1.71a.42.42,0,0,1,.2,0Zm-20.5,2.84.55-.47a1.76,1.76,0,0,0,.05-1.09h0l-1.32-1.15c-.09-.09-.16-.08-.25,0a7.29,7.29,0,0,1-.85.73,1.17,1.17,0,0,0-.55,1.28.48.48,0,0,0,.05.18l.6.52c.24-.2.45-.4.66-.59a.26.26,0,0,1,.42,0Z"/></g><path class="cls-4" d="M23,2.22l.64-.56c.2-.17.28-.16.48,0l.65.56.61-.53c.24-.21.31-.21.56,0l.61.52L27,1.79c.38-.33.38-.33.76,0l.51.44L29,1.66a.29.29,0,0,1,.46,0l.63.54.05,0,.65-.56c.19-.16.27-.16.46,0l.66.57.63-.55c.21-.18.3-.18.5,0l.65.56.66-.57c.19-.16.27-.16.46,0l.66.57.67-.58a.29.29,0,0,1,.44,0l.77.67c.16.14.18.29.07.4s-.27.07-.39,0l-.67-.59c-.2.18-.41.35-.6.53a.21.21,0,0,0,0,.13c0,.25,0,.5,0,.74a.37.37,0,0,0,.13.2l1.41,1.23c-.26.2-.51.4-.76.58a.36.36,0,0,1-.18,0H34.62a.54.54,0,0,1-.32-.11c-.21-.14-.41-.31-.64-.49L35,3.73a.49.49,0,0,0,.17-.36,1,1,0,0,0-.52-1.15.75.75,0,0,1-.14-.12l-.66.58c-.19.16-.26.16-.46,0l-.66-.58-.6.52a.16.16,0,0,0-.05.11c0,.27,0,.54,0,.8,0,.07.08.13.13.18l1.23,1.07.17.16c-.25.19-.48.38-.72.55a.37.37,0,0,1-.18,0H31a.29.29,0,0,1-.16,0l-.73-.57c.43-.37.83-.74,1.26-1.09a.78.78,0,0,0,.29-.61.9.9,0,0,0-.42-.92A1.5,1.5,0,0,1,31,2.1l-.64.56c-.23.19-.3.19-.52,0L29.2,2.1c-.2.18-.4.34-.58.51a1.47,1.47,0,0,0,.05,1.09l1.26,1.1.15.14-.71.55a.42.42,0,0,1-.2,0H27.45a.32.32,0,0,1-.19,0c-.24-.17-.47-.36-.73-.56l1.34-1.16a.58.58,0,0,0,.2-.43,1,1,0,0,0-.53-1.13.9.9,0,0,1-.12-.1l-.64.55c-.22.19-.28.19-.5,0s-.42-.36-.64-.55c-.2.18-.4.34-.59.52a1.53,1.53,0,0,0,.07,1.09l1.23,1.07.17.16c-.26.2-.5.39-.74.56a.27.27,0,0,1-.18,0H23.89a.44.44,0,0,1-.25-.08L23,5c-.22.17-.43.34-.65.49a.44.44,0,0,1-.27.09H20.39a.54.54,0,0,1-.3-.1c-.22-.15-.42-.32-.65-.49l.19-.17c.4-.36.81-.7,1.21-1.07A.46.46,0,0,0,21,3.42c0-.79,0-.79-.62-1.29h0l-.62.54c-.22.19-.28.19-.49,0s-.43-.37-.65-.57c-.21.18-.41.34-.6.52A1.47,1.47,0,0,0,18,3.71l1.26,1.1.14.12c-.26.2-.49.39-.74.57a.34.34,0,0,1-.18,0H16.8a.27.27,0,0,1-.18,0c-.25-.18-.48-.37-.74-.57.37-.32.71-.66,1.1-.95a1,1,0,0,0,.44-1,.69.69,0,0,0-.27-.59,3.61,3.61,0,0,1-.39-.33l-.57.5c-.3.27-.33.27-.63,0L15,2.13h0c-.19.16-.39.33-.58.51a1.47,1.47,0,0,0,.07,1.07l1.29,1.12.12.12-.73.56a.42.42,0,0,1-.2,0H13.24a.33.33,0,0,1-.2,0c-.24-.17-.47-.36-.73-.55l.5-.44.91-.8a1,1,0,0,0,.12-.27.34.34,0,0,0,0-.1c0-.75,0-.78-.66-1.22l-.66.58a.27.27,0,0,1-.43,0l-.68-.59-.58.51a1.47,1.47,0,0,0,.06,1.09l1.32,1.16.11.06-.78.6a.44.44,0,0,1-.17,0H9.68a.53.53,0,0,1-.27-.08c-.22-.16-.43-.34-.66-.52.47-.41.94-.81,1.39-1.23a.4.4,0,0,0,.14-.29c0-.77,0-.77-.58-1.25l-.08-.05L9,2.67c-.2.17-.26.18-.47,0s-.43-.37-.66-.57c-.2.18-.4.34-.58.51a1.55,1.55,0,0,0,0,1.08L8.54,4.76l.19.18L8,5.52s-.12,0-.18,0H6.14a.57.57,0,0,1-.31-.1c-.22-.15-.42-.32-.65-.5.47-.4.91-.8,1.36-1.18a.36.36,0,0,0,.17-.38V3.31c0-.73,0-.77-.65-1.2l-.57.5c-.31.26-.33.26-.62,0L4.29,2.1c-.2.18-.4.34-.58.51a1.47,1.47,0,0,0,0,1.09L5,4.81l.13.13-.73.56a.29.29,0,0,1-.16,0H2.5a.33.33,0,0,1-.16,0l-.72-.55.48-.43c.32-.28.63-.54.94-.83.06,0,.07-.13.1-.21s0,0,0-.06a1.06,1.06,0,0,0-.68-1.28l-.57.5-.13.11a.24.24,0,0,1-.34,0,.23.23,0,0,1,0-.33l.91-.79c.12-.1.24-.05.35,0l.68.6.66-.56c.2-.17.28-.17.48,0l.65.56.68-.58a.27.27,0,0,1,.42,0L7,2.23l.62-.53c.23-.2.3-.21.54,0l.62.53.66-.57c.2-.16.27-.16.47,0l.65.56.63-.54c.23-.2.3-.19.53,0l.62.54L13,1.67c.2-.17.27-.17.47,0l.66.56.66-.57c.18-.15.27-.15.46,0l.66.57.67-.57c.18-.16.26-.16.45,0s.43.37.66.57l.62-.54c.23-.19.3-.2.53,0l.63.55.62-.53c.24-.21.3-.22.55,0s.39.33.58.5h.05c.22-.18.44-.36.65-.56a.3.3,0,0,1,.45,0Zm-.86-.11c-.66.47-.66.47-.66,1.24a.75.75,0,0,0,0,.15.35.35,0,0,0,.09.17L22.84,4.8a.17.17,0,0,0,.28,0l1.29-1.13a.28.28,0,0,0,.09-.17c0-.25,0-.49,0-.74a.19.19,0,0,0-.05-.13c-.19-.18-.39-.35-.6-.53l-.66.6c-.15.14-.26.14-.42,0Z"/><path class="cls-4" d="M37.18,19.77,35.79,21a.52.52,0,0,0-.13.28c0,.8,0,.8.61,1.3l0,0,.61-.53L37,22a.23.23,0,0,1,.34,0,.22.22,0,0,1,0,.32l-.91.79a.24.24,0,0,1-.34,0l-.69-.6-.66.57c-.19.16-.28.16-.48,0l-.64-.56-.68.59a.29.29,0,0,1-.43,0l-.67-.59-.61.53c-.24.21-.32.21-.56,0l-.62-.54-.64.56c-.22.18-.28.18-.49,0l-.65-.56-.66.58a.29.29,0,0,1-.45,0l-.67-.58-.63.54c-.23.2-.29.2-.52,0l-.63-.55-.63.55c-.22.19-.3.19-.53,0l-.63-.54c-.22.2-.43.38-.65.56s-.28.18-.49,0l-.64-.56-.64.56c-.2.17-.29.17-.49,0l-.65-.56c-.23.2-.45.38-.66.58a.3.3,0,0,1-.45,0c-.21-.2-.43-.38-.67-.59l-.65.57c-.2.16-.29.16-.48,0s-.42-.36-.64-.55l-.59.52c-.26.22-.31.22-.56,0l-.61-.53-.67.58a.28.28,0,0,1-.44,0l-.67-.58-.66.57c-.19.16-.27.17-.46,0l-.67-.58q-.33.3-.66.57c-.18.16-.28.16-.46,0l-.66-.57L8.06,23c-.21.18-.28.18-.49,0s-.42-.35-.64-.55L6.29,23c-.2.17-.29.17-.5,0l-.64-.56L4.51,23c-.22.19-.28.19-.5,0l-.65-.56L2.71,23c-.19.16-.28.16-.46,0l-.77-.67c-.12-.11-.2-.23-.08-.38a.23.23,0,0,1,.37,0l.7.61.61-.53s0-.07,0-.11V21.9c0-.78,0-.78-.58-1.29-.32-.27-.63-.55-1-.84.26-.2.5-.4.76-.58,0,0,.12,0,.18,0q.83,0,1.65,0a.68.68,0,0,1,.33.11c.21.15.41.32.63.49L3.76,21a.5.5,0,0,0-.16.34,1.06,1.06,0,0,0,.54,1.19.9.9,0,0,1,.12.1L4.92,22c.19-.16.25-.16.45,0L6,22.6c.2-.18.4-.34.59-.52A1.55,1.55,0,0,0,6.57,21L5.26,19.86l-.12-.08c.27-.21.52-.41.77-.59,0,0,.11,0,.17,0,.56,0,1.13,0,1.69,0a.46.46,0,0,1,.27.09c.22.15.43.33.66.51-.46.4-.9.8-1.35,1.18a.54.54,0,0,0-.19.39,1,1,0,0,0,.51,1.14l.15.12.59-.51c.28-.25.33-.25.6,0l.59.52c.2-.17.41-.34.6-.53a.23.23,0,0,0,.05-.17c0-.78,0-.78-.57-1.29l-1-.84c.26-.2.5-.4.75-.58a.4.4,0,0,1,.19,0q.83,0,1.65,0a.62.62,0,0,1,.32.11c.22.15.42.31.64.49-.46.4-.9.8-1.35,1.18a.47.47,0,0,0-.18.37,1.11,1.11,0,0,0,.57,1.22l.08.05L12,22c.21-.18.27-.19.48,0l.66.56c.2-.17.4-.34.59-.52A1.53,1.53,0,0,0,13.68,21l-1.23-1.07-.18-.17c.4-.21.63-.64,1.17-.59s1,0,1.44,0a.88.88,0,0,1,.3.1s0,0,.06,0c.19.15.39.41.59.4s.39-.27.6-.4a.75.75,0,0,1,.38-.13c.53,0,1.07,0,1.61,0a.67.67,0,0,1,.3.1c.21.15.41.32.64.5l-.64.56-.33.29c-.59.51-.6.51-.55,1.3a.29.29,0,0,0,.07.18c.18.17.37.33.57.5l.64-.56c.21-.18.28-.19.49,0l.65.56c.2-.18.4-.34.59-.52a.21.21,0,0,0,.06-.1c0-.27,0-.54,0-.81,0-.06-.07-.13-.13-.18-.41-.37-.83-.73-1.26-1.1,0,0-.09-.06-.15-.11l.75-.58a.36.36,0,0,1,.18,0c.58,0,1.15,0,1.72,0a.34.34,0,0,1,.18,0l.74.57c-.39.34-.74.68-1.14,1a.94.94,0,0,0-.41.89.73.73,0,0,0,.31.66,4.35,4.35,0,0,1,.35.3l.62-.54c.24-.21.31-.21.54,0l.62.54.62-.54a.25.25,0,0,0,0-.09.27.27,0,0,0,0-.09,1.15,1.15,0,0,0-.57-1.27,12.38,12.38,0,0,1-1-.84l.73-.57a.36.36,0,0,1,.18,0q.87,0,1.74,0a.37.37,0,0,1,.18,0l.72.56-.42.37c-.33.29-.66.57-1,.87a.37.37,0,0,0-.12.26c0,.8,0,.8.64,1.32l.62-.53c.25-.22.29-.21.55,0l.61.53c.2-.18.4-.34.58-.51a1.47,1.47,0,0,0,0-1.09l-1.31-1.14-.13-.08.79-.59s.11,0,.16,0c.57,0,1.13,0,1.7,0a.48.48,0,0,1,.26.09c.23.16.44.33.67.51-.48.42-.95.82-1.4,1.23a.6.6,0,0,0-.14.3,1,1,0,0,0,.54,1.2l.11.1.63-.55c.23-.2.28-.2.51,0l.64.56.6-.52a.22.22,0,0,0,.05-.14c0-.24,0-.49,0-.74a.34.34,0,0,0-.11-.19l-1.23-1.07-.19-.17c.26-.21.51-.4.76-.58.05,0,.12,0,.19,0q.82,0,1.65,0a.54.54,0,0,1,.3.1c.22.15.42.32.65.5l-.77.67L32.2,21a1.39,1.39,0,0,0,0,1.13l.54.46c.23-.2.46-.39.67-.59a.28.28,0,0,1,.43,0l.67.59.57-.49a.42.42,0,0,0,.08-.18s0,0,0-.05a1.16,1.16,0,0,0-.57-1.29,10.43,10.43,0,0,1-1-.82c.25-.19.48-.38.72-.55a.33.33,0,0,1,.2,0q.86,0,1.71,0a.33.33,0,0,1,.2,0ZM16.69,22.6c.19-.16.37-.31.54-.47a1.67,1.67,0,0,0,.06-1.08h0L16,19.89c-.09-.09-.16-.08-.25,0a7.29,7.29,0,0,1-.85.73,1.15,1.15,0,0,0-.55,1.28c0,.06,0,.14,0,.18l.6.52.66-.59A.26.26,0,0,1,16,22C16.24,22.21,16.46,22.4,16.69,22.6Z"/></g></g></svg>