<svg xmlns="http://www.w3.org/2000/svg" viewBox="0 0 38.55 24.66"><defs><style>.cls-1{isolation:isolate;}.cls-2{opacity:0.15;}.cls-2,.cls-3{mix-blend-mode:multiply;}.cls-4{fill:#fff;}</style></defs><title>convert-CUSTOMIZE-SVG-03</title><g class="cls-1"><g id="Layer_1" data-name="Layer 1"><g class="cls-2"><path d="M29.42,7h-.26c0-.09,0-.17,0-.25V3.65A.3.3,0,0,0,29,3.33a3.51,3.51,0,0,1-1.25-1.08A1.58,1.58,0,0,1,27.39,1,.83.83,0,0,1,28.62.36c.23.09.44.24.66.35A7.69,7.69,0,0,1,30,.33a.85.85,0,0,1,1.17.84,1.84,1.84,0,0,1-.6,1.38,6.58,6.58,0,0,1-1,.76.39.39,0,0,0-.21.38c0,1,0,2,0,3.05Z"/><path d="M6.74,1A5.19,5.19,0,0,1,7.48.63a.86.86,0,0,1,1.2.9,1.86,1.86,0,0,1-.62,1.33,9.39,9.39,0,0,1-1,.76.33.33,0,0,0-.17.3V7H6.63V3.92a.3.3,0,0,0-.17-.3,3.58,3.58,0,0,1-1.2-1,2,2,0,0,1-.42-1A1.06,1.06,0,0,1,5.06.86.74.74,0,0,1,5.9.58a2.25,2.25,0,0,1,.45.19A4.44,4.44,0,0,1,6.74,1Z"/><path d="M29.31,23.43a6.52,6.52,0,0,1-.74.38.88.88,0,0,1-1.21-1,1.83,1.83,0,0,1,.52-1.13,10.34,10.34,0,0,1,1.1-.88.33.33,0,0,0,.17-.32V17.75h.27V18c0,.84,0,1.68,0,2.52a.32.32,0,0,0,.19.33,3.71,3.71,0,0,1,1.18,1A1.9,1.9,0,0,1,31.21,23a.85.85,0,0,1-1.12.83,3.59,3.59,0,0,1-.62-.31A.74.74,0,0,1,29.31,23.43Z"/><path d="M6.64,17.75h.24c0,.07,0,.15,0,.22,0,.75,0,1.5,0,2.25a.32.32,0,0,0,.19.33,3.55,3.55,0,0,1,1.18,1,2,2,0,0,1,.42,1,1.09,1.09,0,0,1-.22.75.71.71,0,0,1-.85.26,7.65,7.65,0,0,1-.88-.41c-.13.08-.29.19-.47.28a.92.92,0,0,1-1,0,1.05,1.05,0,0,1-.34-1.13,2.54,2.54,0,0,1,1-1.44,2.3,2.3,0,0,1,.49-.32.35.35,0,0,0,.22-.38c0-.74,0-1.48,0-2.22C6.63,17.9,6.64,17.83,6.64,17.75Z"/><path d="M18.06,2.57c.25-.12.49-.28.76-.38A.84.84,0,0,1,20,3,1.77,1.77,0,0,1,19.4,4.4a9.17,9.17,0,0,1-1,.81c-.11.08-.16.14-.15.27V7h-.27c0-.48,0-1,0-1.43a.35.35,0,0,0-.22-.39,3.48,3.48,0,0,1-1.18-1,1.88,1.88,0,0,1-.39-1,.87.87,0,0,1,1.18-.95A6.38,6.38,0,0,1,18.06,2.57Z"/><path d="M17.93,17.75h.27v.91a.27.27,0,0,0,.17.3,3.75,3.75,0,0,1,1.21,1A1.9,1.9,0,0,1,20,21a.87.87,0,0,1-1.29.89,2.39,2.39,0,0,1-.49-.28c-.11-.08-.17-.06-.28,0a3.32,3.32,0,0,1-.59.31.88.88,0,0,1-1.19-1,2.35,2.35,0,0,1,1-1.58,5.34,5.34,0,0,1,.68-.45.25.25,0,0,0,.14-.26Z"/><path d="M35.75.8a3.42,3.42,0,0,1,.42-.22.52.52,0,0,1,.75.53,1.19,1.19,0,0,1-.38.81,4.66,4.66,0,0,1-.49.39.28.28,0,0,0-.15.27V7h-.28V2.61a.32.32,0,0,0-.17-.32,1.63,1.63,0,0,1-.84-1,.63.63,0,0,1,.21-.63.51.51,0,0,1,.6,0A2.59,2.59,0,0,1,35.75.8Z"/><path d="M35.77,23.36c-.14.07-.26.15-.4.21a.48.48,0,0,1-.55,0,.61.61,0,0,1-.21-.59,1.31,1.31,0,0,1,.44-.78,1.26,1.26,0,0,1,.31-.25.43.43,0,0,0,.26-.48c0-1.15,0-2.29,0-3.43v-.26h.28V21.5a.39.39,0,0,0,.2.39,1.54,1.54,0,0,1,.79,1,.64.64,0,0,1-.19.68.54.54,0,0,1-.63,0A2.16,2.16,0,0,1,35.77,23.36Z"/><path d="M10.87,7h-.26V6.76c0-.84,0-1.68,0-2.52A.29.29,0,0,0,10.45,4a1.85,1.85,0,0,1-.73-.71.82.82,0,0,1-.08-.77.47.47,0,0,1,.61-.28,4.44,4.44,0,0,1,.49.24,3.61,3.61,0,0,1,.44-.22.5.5,0,0,1,.71.48,1.09,1.09,0,0,1-.36.85,2.68,2.68,0,0,1-.49.4.31.31,0,0,0-.17.32V7Z"/><path d="M10.61,17.75h.26v.77c0,.48,0,1,0,1.44a.37.37,0,0,0,.12.23,8.07,8.07,0,0,1,.68.62.83.83,0,0,1,.17.84.47.47,0,0,1-.66.31c-.15-.06-.3-.15-.46-.23a4,4,0,0,1-.41.22.53.53,0,0,1-.74-.57,1.37,1.37,0,0,1,.74-1.08.55.55,0,0,0,.29-.58c0-.57,0-1.15,0-1.73Z"/><path d="M25.36,3.12a4.64,4.64,0,0,1,.44-.23.51.51,0,0,1,.71.5,1.09,1.09,0,0,1-.32.8,3.84,3.84,0,0,1-.54.44.3.3,0,0,0-.16.3V7h-.26V6.76c0-.6,0-1.21,0-1.82a.35.35,0,0,0-.17-.32,3.09,3.09,0,0,1-.65-.6,1.23,1.23,0,0,1-.2-.62.51.51,0,0,1,.72-.51A4.5,4.5,0,0,1,25.36,3.12Z"/><path d="M2.8,3.9l.35-.2a.51.51,0,0,1,.59,0,.56.56,0,0,1,.2.61A4,4,0,0,1,3.61,5a.63.63,0,0,1-.27.24c-.39.17-.44.48-.41.85a9,9,0,0,1,0,.9H2.66c0-.42,0-.84,0-1.27a.31.31,0,0,0-.17-.31,1.68,1.68,0,0,1-.83-1,.62.62,0,0,1,.2-.67.51.51,0,0,1,.63,0A3.07,3.07,0,0,1,2.8,3.9Z"/><path d="M25.36,21a3.42,3.42,0,0,1-.42.22.52.52,0,0,1-.74-.53,1.12,1.12,0,0,1,.34-.77,3.69,3.69,0,0,1,.53-.43.31.31,0,0,0,.16-.3c0-.49,0-1,0-1.48h.26c0,.44,0,.87,0,1.29a.56.56,0,0,0,.3.58,1.34,1.34,0,0,1,.72,1,.53.53,0,0,1-.81.57Z"/><path d="M2.8,20.26a3.1,3.1,0,0,1-.4.21.52.52,0,0,1-.76-.54A1.11,1.11,0,0,1,2,19.18a3.84,3.84,0,0,1,.54-.44.25.25,0,0,0,.14-.25c0-.24,0-.48,0-.73h.28c0,.23,0,.45,0,.67a.32.32,0,0,0,.18.34,1.62,1.62,0,0,1,.82,1,.62.62,0,0,1-.21.65.53.53,0,0,1-.6,0C3,20.4,2.91,20.32,2.8,20.26Z"/><path d="M22.31,1.06A2.09,2.09,0,0,1,22.6.9a.37.37,0,0,1,.53.4,1,1,0,0,1-.52.76.35.35,0,0,0-.17.33c0,1.44,0,2.89,0,4.33V7h-.26V2.44A.43.43,0,0,0,22,2a1.83,1.83,0,0,1-.43-.49.48.48,0,0,1,.07-.6c.14-.13.3-.12.56,0Z"/><path d="M22.32,23.11c-.12.06-.22.12-.32.16a.36.36,0,0,1-.5-.34.83.83,0,0,1,.44-.77.49.49,0,0,0,.24-.5c0-1.22,0-2.44,0-3.66v-.25h.26V18c0,1.25,0,2.51,0,3.76a.35.35,0,0,0,.17.33,1,1,0,0,1,.51.67.43.43,0,0,1-.15.46.38.38,0,0,1-.45,0Z"/><path d="M13.8,3.89A.94.94,0,0,1,14,3.77a.85.85,0,0,1,.42,0,.36.36,0,0,1,.16.42.92.92,0,0,1-.46.68.44.44,0,0,0-.22.43c0,.55,0,1.11,0,1.68h-.27V6.44c0-.41,0-.83,0-1.25a.31.31,0,0,0-.15-.27,2.5,2.5,0,0,1-.43-.43A.88.88,0,0,1,13,4.07a.35.35,0,0,1,.5-.33A3,3,0,0,1,13.8,3.89Z"/><path d="M32.67,4.09c.1,0,.2-.11.3-.15a.36.36,0,0,1,.52.35.89.89,0,0,1-.47.78.42.42,0,0,0-.21.43c0,.49,0,1,0,1.49h-.27V6.12a2.43,2.43,0,0,1,0-.27.85.85,0,0,0-.37-.94c-.15-.08-.22-.31-.3-.49A.34.34,0,0,1,32,4a.78.78,0,0,1,.43,0A.68.68,0,0,1,32.67,4.09Z"/><path d="M13.66,17.75h.27c0,.41,0,.8,0,1.19a.38.38,0,0,0,.16.31,2.48,2.48,0,0,1,.49.59.41.41,0,0,1-.11.54c-.17.15-.34.06-.5,0l-.15-.1a2.39,2.39,0,0,1-.32.16.36.36,0,0,1-.51-.36.88.88,0,0,1,.46-.76.45.45,0,0,0,.23-.46C13.65,18.48,13.66,18.12,13.66,17.75Z"/><path d="M32.68,20.06a.84.84,0,0,1-.26.14.62.62,0,0,1-.41,0,.57.57,0,0,1-.14-.41,1,1,0,0,1,.51-.71.3.3,0,0,0,.16-.31c0-.32,0-.64,0-1h.27c0,.34,0,.67,0,1a.35.35,0,0,0,.16.32,2.3,2.3,0,0,1,.47.56.44.44,0,0,1-.09.56c-.18.15-.35.06-.53,0A1.1,1.1,0,0,1,32.68,20.06Z"/><path d="M29.62,7.19h-.26c0-.09,0-.17,0-.25V3.84a.3.3,0,0,0-.18-.31,3.43,3.43,0,0,1-1.25-1.08,1.54,1.54,0,0,1-.33-1.27A.83.83,0,0,1,28.82.56c.23.09.44.24.66.35a7.69,7.69,0,0,1,.76-.38.85.85,0,0,1,1.17.84,1.87,1.87,0,0,1-.6,1.38,7.14,7.14,0,0,1-1,.76.39.39,0,0,0-.21.38c0,1,0,2,0,3.05Z"/><path d="M6.94,1.21A6.6,6.6,0,0,1,7.68.82a.87.87,0,0,1,1.2.91,1.88,1.88,0,0,1-.62,1.33,9.39,9.39,0,0,1-1,.76.32.32,0,0,0-.17.3V7.18H6.83V7c0-.94,0-1.89,0-2.83a.3.3,0,0,0-.17-.3,3.49,3.49,0,0,1-1.2-1,2,2,0,0,1-.42-1,1.08,1.08,0,0,1,.21-.76A.75.75,0,0,1,6.1.78,2.25,2.25,0,0,1,6.55,1,3.68,3.68,0,0,1,6.94,1.21Z"/><path d="M29.51,23.63a6.52,6.52,0,0,1-.74.38.87.87,0,0,1-1.21-1,1.73,1.73,0,0,1,.52-1.13,9.22,9.22,0,0,1,1.1-.88.35.35,0,0,0,.17-.32V18h.27v.23c0,.84,0,1.68,0,2.52a.32.32,0,0,0,.18.33A3.5,3.5,0,0,1,31,22a1.83,1.83,0,0,1,.43,1.21.85.85,0,0,1-1.12.82,4,4,0,0,1-.63-.3A1,1,0,0,1,29.51,23.63Z"/><path d="M6.84,18h.24c0,.07,0,.15,0,.22,0,.75,0,1.5,0,2.24a.32.32,0,0,0,.18.34,3.49,3.49,0,0,1,1.19,1,2.07,2.07,0,0,1,.42,1,1.09,1.09,0,0,1-.22.75.71.71,0,0,1-.85.26,7.65,7.65,0,0,1-.88-.41c-.13.08-.29.19-.47.28a.92.92,0,0,1-1,0,1.06,1.06,0,0,1-.34-1.13,2.54,2.54,0,0,1,1-1.44,3.32,3.32,0,0,1,.5-.33.33.33,0,0,0,.22-.37c0-.74,0-1.48,0-2.22A1.7,1.7,0,0,1,6.84,18Z"/><path d="M18.26,2.77c.25-.12.49-.28.76-.38a.84.84,0,0,1,1.16.83A1.79,1.79,0,0,1,19.6,4.6a9.56,9.56,0,0,1-1.06.81.29.29,0,0,0-.15.27c0,.49,0,1,0,1.5h-.27c0-.48,0-.95,0-1.42a.36.36,0,0,0-.22-.39,3.51,3.51,0,0,1-1.19-1,2.06,2.06,0,0,1-.39-1,.88.88,0,0,1,1.19-1A6.38,6.38,0,0,1,18.26,2.77Z"/><path d="M18.13,18h.27c0,.31,0,.61,0,.91a.3.3,0,0,0,.17.3,3.68,3.68,0,0,1,1.22,1,1.9,1.9,0,0,1,.4,1.07.87.87,0,0,1-1.29.89,2.69,2.69,0,0,1-.5-.28.2.2,0,0,0-.27,0,3.37,3.37,0,0,1-.59.32.87.87,0,0,1-1.19-1,2.38,2.38,0,0,1,1-1.58,6.36,6.36,0,0,1,.69-.46.26.26,0,0,0,.14-.25C18.12,18.58,18.13,18.28,18.13,18Z"/><path d="M36,1a2.41,2.41,0,0,1,.42-.22.52.52,0,0,1,.75.53,1.19,1.19,0,0,1-.38.81,3.92,3.92,0,0,1-.5.39.29.29,0,0,0-.14.27V7.19h-.28V6.94c0-1.38,0-2.75,0-4.13a.32.32,0,0,0-.17-.32,1.63,1.63,0,0,1-.84-1A.62.62,0,0,1,35,.82a.51.51,0,0,1,.59,0A2.77,2.77,0,0,1,36,1Z"/><path d="M36,23.56c-.13.07-.25.15-.39.21a.48.48,0,0,1-.55,0,.62.62,0,0,1-.21-.6,1.31,1.31,0,0,1,.44-.77,1.26,1.26,0,0,1,.31-.25.44.44,0,0,0,.26-.48c0-1.15,0-2.29,0-3.43V18h.28V21.7a.36.36,0,0,0,.2.39,1.57,1.57,0,0,1,.79,1,.62.62,0,0,1-.19.67.52.52,0,0,1-.63,0Z"/><path d="M11.07,7.19H10.8V7c0-.84,0-1.68,0-2.52a.29.29,0,0,0-.16-.29,1.9,1.9,0,0,1-.74-.72.82.82,0,0,1-.07-.76.47.47,0,0,1,.61-.28c.17.06.32.16.49.23a3,3,0,0,1,.44-.21.5.5,0,0,1,.71.48,1.09,1.09,0,0,1-.36.85,3.06,3.06,0,0,1-.49.4.3.3,0,0,0-.17.32V7.19Z"/><path d="M10.8,18h.27v.77c0,.48,0,1,0,1.44a.45.45,0,0,0,.13.23c.22.21.48.39.68.62a.83.83,0,0,1,.17.83.47.47,0,0,1-.66.31,3.21,3.21,0,0,1-.46-.22,3.17,3.17,0,0,1-.41.21.52.52,0,0,1-.74-.56,1.37,1.37,0,0,1,.74-1.08.56.56,0,0,0,.29-.58c0-.57,0-1.15,0-1.73Z"/><path d="M25.55,3.31c.16-.08.3-.16.45-.22a.51.51,0,0,1,.71.5,1.06,1.06,0,0,1-.33.8,3.75,3.75,0,0,1-.53.44.32.32,0,0,0-.17.3c0,.68,0,1.35,0,2.05l-.27,0V7c0-.61,0-1.21,0-1.82a.35.35,0,0,0-.17-.32,3.11,3.11,0,0,1-.65-.6,1.23,1.23,0,0,1-.2-.62.5.5,0,0,1,.72-.51C25.27,3.15,25.41,3.24,25.55,3.31Z"/><path d="M3,4.1l.35-.2a.5.5,0,0,1,.59,0,.56.56,0,0,1,.2.61,3.36,3.36,0,0,1-.34.65.6.6,0,0,1-.26.24.71.71,0,0,0-.41.85,9,9,0,0,1,0,.9H2.85c0-.42,0-.85,0-1.27a.33.33,0,0,0-.17-.32,1.63,1.63,0,0,1-.83-1,.63.63,0,0,1,.2-.67.54.54,0,0,1,.63,0Z"/><path d="M25.56,21.24a3.42,3.42,0,0,1-.42.22.52.52,0,0,1-.74-.53,1.1,1.1,0,0,1,.34-.77,3.49,3.49,0,0,1,.52-.43.3.3,0,0,0,.17-.3c0-.49,0-1,0-1.48h.27c0,.44,0,.87,0,1.29a.55.55,0,0,0,.3.58,1.34,1.34,0,0,1,.72,1,.53.53,0,0,1-.81.58Z"/><path d="M3,20.46a3.1,3.1,0,0,1-.4.21.52.52,0,0,1-.76-.54,1.11,1.11,0,0,1,.34-.75,3.84,3.84,0,0,1,.54-.44.27.27,0,0,0,.14-.25c0-.24,0-.48,0-.74h.29c0,.23,0,.46,0,.68a.34.34,0,0,0,.18.34,1.6,1.6,0,0,1,.83,1,.64.64,0,0,1-.21.65.53.53,0,0,1-.6,0C3.22,20.6,3.11,20.52,3,20.46Z"/><path d="M22.5,1.25c.11-.05.2-.11.3-.15a.37.37,0,0,1,.53.4,1,1,0,0,1-.52.76.33.33,0,0,0-.17.33c0,1.44,0,2.89,0,4.33v.26h-.26V6.93c0-1.43,0-2.86,0-4.3a.45.45,0,0,0-.19-.4,1.79,1.79,0,0,1-.43-.48.49.49,0,0,1,.07-.61c.14-.12.3-.11.56,0Z"/><path d="M22.52,23.31a2.22,2.22,0,0,1-.32.15.35.35,0,0,1-.5-.33.83.83,0,0,1,.44-.77.51.51,0,0,0,.24-.5c0-1.22,0-2.44,0-3.66V18h.26v.26c0,1.25,0,2.51,0,3.76a.35.35,0,0,0,.17.33,1,1,0,0,1,.51.67.44.44,0,0,1-.15.46.38.38,0,0,1-.45,0Z"/><path d="M14,4.09A.94.94,0,0,1,14.22,4a.85.85,0,0,1,.42,0c.16.07.18.25.16.42a.92.92,0,0,1-.46.68.42.42,0,0,0-.22.43c0,.55,0,1.11,0,1.68h-.26V5.39a.27.27,0,0,0-.14-.27,2.5,2.5,0,0,1-.43-.43.88.88,0,0,1-.11-.42.35.35,0,0,1,.5-.33A1.82,1.82,0,0,1,14,4.09Z"/><path d="M32.87,4.29a2.8,2.8,0,0,1,.3-.15.36.36,0,0,1,.52.35.93.93,0,0,1-.47.78A.42.42,0,0,0,33,5.7c0,.49,0,1,0,1.48h-.27V6.32a2.43,2.43,0,0,1,0-.27c0-.38,0-.71-.37-.94-.15-.08-.22-.31-.3-.49a.34.34,0,0,1,.15-.44.77.77,0,0,1,.43,0C32.73,4.18,32.79,4.25,32.87,4.29Z"/><path d="M13.86,18h.26c0,.41,0,.8,0,1.19a.38.38,0,0,0,.16.31,2.75,2.75,0,0,1,.49.59.42.42,0,0,1-.11.54c-.17.15-.34.06-.51,0l-.15-.1a3,3,0,0,1-.31.16.36.36,0,0,1-.51-.36.85.85,0,0,1,.46-.76.46.46,0,0,0,.23-.47C13.85,18.68,13.86,18.32,13.86,18Z"/><path d="M32.88,20.26a.84.84,0,0,1-.26.14.62.62,0,0,1-.41,0,.57.57,0,0,1-.14-.41,1,1,0,0,1,.51-.71.31.31,0,0,0,.16-.31c0-.32,0-.64,0-1H33c0,.34,0,.67,0,1a.36.36,0,0,0,.16.33,2.3,2.3,0,0,1,.47.56.44.44,0,0,1-.09.56c-.18.15-.36.06-.53,0A1.1,1.1,0,0,1,32.88,20.26Z"/></g><g class="cls-3"><path d="M29.28,6.85H29c0-.09,0-.17,0-.25V3.5a.3.3,0,0,0-.18-.31,3.55,3.55,0,0,1-1.26-1.08A1.57,1.57,0,0,1,27.25.84.83.83,0,0,1,28.48.22a6.71,6.71,0,0,1,.65.35c.25-.12.5-.28.77-.38A.85.85,0,0,1,31.07,1a1.87,1.87,0,0,1-.6,1.38,7.14,7.14,0,0,1-1,.76.39.39,0,0,0-.21.38c0,1,0,2,0,3.05Z"/><path d="M6.6.87A5.83,5.83,0,0,1,7.34.48a.87.87,0,0,1,1.2.91,1.92,1.92,0,0,1-.62,1.33,9.39,9.39,0,0,1-1,.76.32.32,0,0,0-.17.3V6.84H6.49V6.61c0-.94,0-1.89,0-2.83a.3.3,0,0,0-.18-.3,3.55,3.55,0,0,1-1.19-1,2,2,0,0,1-.42-1A1.08,1.08,0,0,1,4.91.71.75.75,0,0,1,5.76.44a1.79,1.79,0,0,1,.45.19A3.68,3.68,0,0,1,6.6.87Z"/><path d="M29.17,23.29a6.52,6.52,0,0,1-.74.38.87.87,0,0,1-1.21-1,1.73,1.73,0,0,1,.52-1.13,9.22,9.22,0,0,1,1.1-.88.35.35,0,0,0,.17-.32V17.61h.27v.23c0,.84,0,1.68,0,2.52a.32.32,0,0,0,.18.33,3.5,3.5,0,0,1,1.18,1,1.83,1.83,0,0,1,.43,1.21A.85.85,0,0,1,30,23.7a4,4,0,0,1-.63-.3A1,1,0,0,1,29.17,23.29Z"/><path d="M6.5,17.61h.24c0,.07,0,.15,0,.22v2.24a.32.32,0,0,0,.18.34,3.49,3.49,0,0,1,1.19,1,2.07,2.07,0,0,1,.42,1,1.05,1.05,0,0,1-.23.75.7.7,0,0,1-.84.26A7.65,7.65,0,0,1,6.59,23c-.13.08-.29.19-.47.28a.92.92,0,0,1-1,0,1.06,1.06,0,0,1-.34-1.13,2.54,2.54,0,0,1,1-1.44,3.32,3.32,0,0,1,.5-.33.33.33,0,0,0,.22-.37c0-.74,0-1.48,0-2.22A1.7,1.7,0,0,1,6.5,17.61Z"/><path d="M17.92,2.43c.25-.12.49-.28.76-.38a.84.84,0,0,1,1.16.83,1.79,1.79,0,0,1-.58,1.38,9.56,9.56,0,0,1-1.06.81.29.29,0,0,0-.15.27c0,.49,0,1,0,1.5h-.27c0-.48,0-1,0-1.42A.36.36,0,0,0,17.57,5a3.51,3.51,0,0,1-1.19-1A2.06,2.06,0,0,1,16,3a.87.87,0,0,1,1.19-.95A6.38,6.38,0,0,1,17.92,2.43Z"/><path d="M17.79,17.61h.27c0,.31,0,.61,0,.91a.3.3,0,0,0,.17.3,3.55,3.55,0,0,1,1.21,1,1.82,1.82,0,0,1,.41,1.07.87.87,0,0,1-1.29.89,2.69,2.69,0,0,1-.5-.28.2.2,0,0,0-.27,0,3.37,3.37,0,0,1-.59.32.87.87,0,0,1-1.19-1,2.38,2.38,0,0,1,1-1.58,6.36,6.36,0,0,1,.69-.46.26.26,0,0,0,.14-.25C17.78,18.24,17.79,17.94,17.79,17.61Z"/><path d="M35.61.66A2.41,2.41,0,0,1,36,.44a.52.52,0,0,1,.75.53,1.19,1.19,0,0,1-.38.81,3.92,3.92,0,0,1-.5.39.29.29,0,0,0-.14.27v4.4h-.28V6.6c0-1.38,0-2.75,0-4.13a.32.32,0,0,0-.17-.32,1.63,1.63,0,0,1-.84-1,.62.62,0,0,1,.21-.63.51.51,0,0,1,.59,0A2.77,2.77,0,0,1,35.61.66Z"/><path d="M35.62,23.22c-.13.07-.25.15-.39.21a.5.5,0,0,1-.56,0,.67.67,0,0,1-.21-.6,1.38,1.38,0,0,1,.45-.77,1.26,1.26,0,0,1,.31-.25.44.44,0,0,0,.26-.48c0-1.15,0-2.29,0-3.43v-.26h.28v3.76a.36.36,0,0,0,.2.39,1.57,1.57,0,0,1,.79,1,.62.62,0,0,1-.19.67.52.52,0,0,1-.63,0Z"/><path d="M10.73,6.85h-.27V6.62c0-.84,0-1.68,0-2.52a.29.29,0,0,0-.16-.29,1.9,1.9,0,0,1-.74-.72.82.82,0,0,1-.07-.76.47.47,0,0,1,.61-.28c.17.06.32.16.49.23A3,3,0,0,1,11,2.07a.5.5,0,0,1,.71.48,1.09,1.09,0,0,1-.36.85,3.06,3.06,0,0,1-.49.4.3.3,0,0,0-.17.32V6.85Z"/><path d="M10.46,17.61h.27v.77c0,.48,0,1,0,1.44a.45.45,0,0,0,.13.23c.22.21.48.39.68.62a.83.83,0,0,1,.17.83.47.47,0,0,1-.66.31,3.21,3.21,0,0,1-.46-.22,3.17,3.17,0,0,1-.41.21.52.52,0,0,1-.74-.56,1.37,1.37,0,0,1,.74-1.08.56.56,0,0,0,.29-.58c0-.57,0-1.15,0-1.73Z"/><path d="M25.21,3c.16-.08.3-.16.45-.22a.51.51,0,0,1,.71.49,1.06,1.06,0,0,1-.33.81,3.75,3.75,0,0,1-.53.44.32.32,0,0,0-.17.3c0,.68,0,1.35,0,2.05l-.27,0V6.62c0-.61,0-1.21,0-1.82a.35.35,0,0,0-.17-.32,3.11,3.11,0,0,1-.65-.6,1.24,1.24,0,0,1-.2-.63.5.5,0,0,1,.71-.5C24.93,2.81,25.07,2.9,25.21,3Z"/><path d="M2.66,3.76,3,3.56a.5.5,0,0,1,.59,0,.56.56,0,0,1,.2.61,3.36,3.36,0,0,1-.34.65.6.6,0,0,1-.26.24.71.71,0,0,0-.41.85,9,9,0,0,1,0,.9H2.51c0-.42,0-.85,0-1.27a.32.32,0,0,0-.18-.32,1.64,1.64,0,0,1-.82-1,.63.63,0,0,1,.2-.67.54.54,0,0,1,.63,0Z"/><path d="M25.22,20.9a3.42,3.42,0,0,1-.42.22.52.52,0,0,1-.74-.53,1.06,1.06,0,0,1,.34-.77,3.49,3.49,0,0,1,.52-.43.3.3,0,0,0,.17-.3c0-.49,0-1,0-1.48h.27c0,.44,0,.87,0,1.29a.55.55,0,0,0,.3.58,1.34,1.34,0,0,1,.72,1,.53.53,0,0,1-.81.58Z"/><path d="M2.66,20.12a2.65,2.65,0,0,1-.41.21.51.51,0,0,1-.75-.54A1.07,1.07,0,0,1,1.84,19a3.84,3.84,0,0,1,.54-.44.27.27,0,0,0,.14-.25c0-.24,0-.48,0-.74H2.8c0,.23,0,.46,0,.68a.34.34,0,0,0,.18.34,1.6,1.6,0,0,1,.83,1,.64.64,0,0,1-.21.65.53.53,0,0,1-.6,0C2.88,20.26,2.77,20.18,2.66,20.12Z"/><path d="M22.16.91c.11-.05.2-.11.3-.15a.37.37,0,0,1,.53.4,1,1,0,0,1-.52.76.32.32,0,0,0-.17.32v4.6H22V6.59c0-1.43,0-2.86,0-4.3a.47.47,0,0,0-.19-.4,1.79,1.79,0,0,1-.43-.48A.49.49,0,0,1,21.49.8c.14-.12.3-.11.56,0Z"/><path d="M22.18,23a2.22,2.22,0,0,1-.32.15.35.35,0,0,1-.5-.33A.83.83,0,0,1,21.8,22a.51.51,0,0,0,.24-.5c0-1.22,0-2.44,0-3.66v-.25h.26v.26c0,1.25,0,2.51,0,3.76a.35.35,0,0,0,.17.33,1,1,0,0,1,.51.67.45.45,0,0,1-.15.46.38.38,0,0,1-.45,0Z"/><path d="M13.66,3.75a.94.94,0,0,1,.22-.12.85.85,0,0,1,.42,0c.16.07.18.25.16.42a.92.92,0,0,1-.46.68.42.42,0,0,0-.22.43c0,.55,0,1.11,0,1.68h-.26V5.05a.27.27,0,0,0-.14-.27A2.5,2.5,0,0,1,13,4.35a.88.88,0,0,1-.11-.42.35.35,0,0,1,.5-.33A1.82,1.82,0,0,1,13.66,3.75Z"/><path d="M32.53,4a2.8,2.8,0,0,1,.3-.15.36.36,0,0,1,.52.35.93.93,0,0,1-.47.78.42.42,0,0,0-.21.43c0,.49,0,1,0,1.48H32.4V6a2.43,2.43,0,0,1,0-.27c0-.38,0-.71-.38-.94-.14-.08-.21-.31-.29-.49a.34.34,0,0,1,.15-.44.77.77,0,0,1,.43,0C32.39,3.84,32.45,3.91,32.53,4Z"/><path d="M13.52,17.61h.26c0,.41,0,.8,0,1.19a.38.38,0,0,0,.16.31,2.75,2.75,0,0,1,.49.59.42.42,0,0,1-.11.54c-.17.15-.34.06-.51,0l-.15-.1a3,3,0,0,1-.31.16.36.36,0,0,1-.51-.36.85.85,0,0,1,.46-.76.46.46,0,0,0,.23-.47C13.51,18.34,13.52,18,13.52,17.61Z"/><path d="M32.54,19.92a.84.84,0,0,1-.26.14.62.62,0,0,1-.41,0,.57.57,0,0,1-.14-.41,1,1,0,0,1,.51-.71.31.31,0,0,0,.16-.31c0-.32,0-.64,0-1h.27c0,.34,0,.67,0,1a.36.36,0,0,0,.16.33,2.3,2.3,0,0,1,.47.56.44.44,0,0,1-.09.56c-.18.15-.36.06-.53,0A1.1,1.1,0,0,1,32.54,19.92Z"/></g><path class="cls-4" d="M29.48,7.05h-.26a2.26,2.26,0,0,1,0-.26c0-1,0-2.06,0-3.09A.3.3,0,0,0,29,3.39a3.55,3.55,0,0,1-1.26-1.08A1.54,1.54,0,0,1,27.45,1,.82.82,0,0,1,28.67.42a4.59,4.59,0,0,1,.66.35c.25-.12.5-.28.76-.38a.85.85,0,0,1,1.17.84,1.83,1.83,0,0,1-.59,1.38,8,8,0,0,1-1,.76.36.36,0,0,0-.21.38v3.3Z"/><path class="cls-4" d="M6.8,1.06A7.39,7.39,0,0,1,7.54.68a.86.86,0,0,1,1.2.91,1.88,1.88,0,0,1-.62,1.32,8.41,8.41,0,0,1-1,.77A.3.3,0,0,0,7,4V7H6.69V6.81c0-.94,0-1.89,0-2.84a.29.29,0,0,0-.18-.29,3.81,3.81,0,0,1-1.2-1,2,2,0,0,1-.41-1A1.08,1.08,0,0,1,5.11.91.75.75,0,0,1,6,.64a2.82,2.82,0,0,1,.45.18Z"/><path class="cls-4" d="M29.37,23.49a7.49,7.49,0,0,1-.74.38.87.87,0,0,1-1.21-1,1.77,1.77,0,0,1,.51-1.13,9.22,9.22,0,0,1,1.1-.88.34.34,0,0,0,.18-.32c0-.83,0-1.67,0-2.5v-.26h.27v2.75a.3.3,0,0,0,.18.33,3.5,3.5,0,0,1,1.18,1,1.82,1.82,0,0,1,.42,1.21.84.84,0,0,1-1.11.82,5.18,5.18,0,0,1-.63-.3Z"/><path class="cls-4" d="M6.7,17.81h.24c0,.07,0,.15,0,.22,0,.75,0,1.49,0,2.24a.33.33,0,0,0,.19.33,3.5,3.5,0,0,1,1.18,1,2,2,0,0,1,.43,1,1.07,1.07,0,0,1-.23.75.71.71,0,0,1-.85.26c-.29-.11-.57-.26-.87-.41-.13.08-.29.19-.47.28a.92.92,0,0,1-1.05,0,1.06,1.06,0,0,1-.34-1.13,2.55,2.55,0,0,1,1-1.45,4.26,4.26,0,0,1,.5-.32.36.36,0,0,0,.22-.37c0-.74,0-1.48,0-2.22A1.7,1.7,0,0,1,6.7,17.81Z"/><path class="cls-4" d="M18.12,2.63a5.39,5.39,0,0,1,.76-.38A.84.84,0,0,1,20,3.08a1.79,1.79,0,0,1-.59,1.38,9.43,9.43,0,0,1-1.05.81.29.29,0,0,0-.15.26c0,.5,0,1,0,1.51H18c0-.48,0-1,0-1.42a.36.36,0,0,0-.22-.39,3.51,3.51,0,0,1-1.19-1,2.06,2.06,0,0,1-.39-1,.87.87,0,0,1,1.19-1A6.38,6.38,0,0,1,18.12,2.63Z"/><path class="cls-4" d="M18,17.81h.26c0,.31,0,.61,0,.91a.3.3,0,0,0,.17.3,3.55,3.55,0,0,1,1.21,1A1.82,1.82,0,0,1,20,21.09a.87.87,0,0,1-1.29.89,2.69,2.69,0,0,1-.5-.28c-.11-.09-.17-.06-.27,0a3.37,3.37,0,0,1-.59.32.88.88,0,0,1-1.19-1,2.3,2.3,0,0,1,1-1.58,6.36,6.36,0,0,1,.69-.46.26.26,0,0,0,.14-.25C18,18.44,18,18.13,18,17.81Z"/><path class="cls-4" d="M35.81.85c.14-.07.27-.16.41-.22a.53.53,0,0,1,.76.54,1.15,1.15,0,0,1-.38.8,3.25,3.25,0,0,1-.5.4.29.29,0,0,0-.15.26c0,1.4,0,2.79,0,4.18V7h-.28V6.8c0-1.38,0-2.75,0-4.13a.32.32,0,0,0-.17-.32,1.6,1.6,0,0,1-.84-1,.62.62,0,0,1,.21-.63.51.51,0,0,1,.59,0Z"/><path class="cls-4" d="M35.82,23.42c-.13.07-.26.15-.39.21a.48.48,0,0,1-.56,0,.62.62,0,0,1-.21-.59,1.37,1.37,0,0,1,.44-.77,1.07,1.07,0,0,1,.32-.25c.22-.1.26-.26.26-.49,0-1.14,0-2.28,0-3.43v-.25H36V18c0,1.17,0,2.35,0,3.52a.37.37,0,0,0,.21.38,1.61,1.61,0,0,1,.79,1,.62.62,0,0,1-.19.67.52.52,0,0,1-.63,0Z"/><path class="cls-4" d="M10.93,7.05h-.27V6.82c0-.84,0-1.69,0-2.53A.28.28,0,0,0,10.51,4a1.83,1.83,0,0,1-.74-.72.81.81,0,0,1-.07-.77.45.45,0,0,1,.6-.27,4.52,4.52,0,0,1,.5.23,4.51,4.51,0,0,1,.44-.22.51.51,0,0,1,.71.49,1.13,1.13,0,0,1-.36.85,2.33,2.33,0,0,1-.5.39.35.35,0,0,0-.17.33c0,.82,0,1.65,0,2.47Z"/><path class="cls-4" d="M10.66,17.81h.27v.77c0,.48,0,1,0,1.44a.39.39,0,0,0,.13.23c.22.21.48.39.68.62a.83.83,0,0,1,.17.83.47.47,0,0,1-.66.31,3.21,3.21,0,0,1-.46-.22,4.11,4.11,0,0,1-.42.21.52.52,0,0,1-.73-.57,1.38,1.38,0,0,1,.73-1.07.56.56,0,0,0,.3-.58c0-.58,0-1.15,0-1.73Z"/><path class="cls-4" d="M25.41,3.17A3.61,3.61,0,0,1,25.85,3a.51.51,0,0,1,.72.49,1.06,1.06,0,0,1-.33.8,2.75,2.75,0,0,1-.53.44.33.33,0,0,0-.17.31c0,.68,0,1.35,0,2.05l-.27,0V6.82c0-.61,0-1.21,0-1.82a.34.34,0,0,0-.18-.32,3.32,3.32,0,0,1-.64-.6,1.24,1.24,0,0,1-.2-.63A.5.5,0,0,1,25,3C25.13,3,25.27,3.1,25.41,3.17Z"/><path class="cls-4" d="M2.85,4a2.53,2.53,0,0,1,.36-.2.5.5,0,0,1,.59,0A.54.54,0,0,1,4,4.4a3.62,3.62,0,0,1-.33.65.75.75,0,0,1-.26.24A.71.71,0,0,0,3,6.14,8.94,8.94,0,0,1,3,7H2.71c0-.43,0-.85,0-1.27a.32.32,0,0,0-.18-.32,1.61,1.61,0,0,1-.82-1,.63.63,0,0,1,.19-.67.56.56,0,0,1,.64,0Z"/><path class="cls-4" d="M25.42,21.1a2.92,2.92,0,0,1-.43.22.52.52,0,0,1-.73-.53A1.08,1.08,0,0,1,24.6,20a4.15,4.15,0,0,1,.52-.42.31.31,0,0,0,.17-.31c0-.48,0-1,0-1.47h.27c0,.43,0,.86,0,1.29a.56.56,0,0,0,.29.58,1.32,1.32,0,0,1,.73,1,.53.53,0,0,1-.81.57A3.47,3.47,0,0,1,25.42,21.1Z"/><path class="cls-4" d="M2.86,20.32a3.19,3.19,0,0,1-.41.21A.51.51,0,0,1,1.7,20,1.05,1.05,0,0,1,2,19.24a3.25,3.25,0,0,1,.54-.44.25.25,0,0,0,.13-.25v-.74H3c0,.23,0,.46,0,.68a.33.33,0,0,0,.18.34,1.6,1.6,0,0,1,.83,1,.66.66,0,0,1-.21.65.53.53,0,0,1-.6,0Z"/><path class="cls-4" d="M22.36,1.11,22.65,1a.37.37,0,0,1,.54.4,1,1,0,0,1-.52.76.32.32,0,0,0-.17.32V7h-.26V6.79c0-1.43,0-2.87,0-4.3a.45.45,0,0,0-.19-.4,1.79,1.79,0,0,1-.43-.48A.49.49,0,0,1,21.69,1c.13-.12.3-.11.56,0Z"/><path class="cls-4" d="M22.38,23.17l-.32.15a.35.35,0,0,1-.5-.33.83.83,0,0,1,.44-.77.51.51,0,0,0,.24-.5c0-1.22,0-2.45,0-3.67v-.24h.26v4a.35.35,0,0,0,.17.33,1.05,1.05,0,0,1,.51.67.47.47,0,0,1-.15.46.38.38,0,0,1-.45,0Z"/><path class="cls-4" d="M13.86,4a.68.68,0,0,1,.22-.12.81.81,0,0,1,.41,0c.16.06.19.24.17.42a1,1,0,0,1-.46.67.44.44,0,0,0-.22.43c0,.56,0,1.12,0,1.69h-.26V6.5c0-.42,0-.83,0-1.25A.31.31,0,0,0,13.58,5a1.76,1.76,0,0,1-.43-.43A.72.72,0,0,1,13,4.13a.35.35,0,0,1,.5-.34C13.64,3.83,13.74,3.89,13.86,4Z"/><path class="cls-4" d="M32.73,4.15A2.8,2.8,0,0,1,33,4a.36.36,0,0,1,.52.35.91.91,0,0,1-.48.78.43.43,0,0,0-.21.43c0,.49,0,1,0,1.48H32.6V6.18a2.62,2.62,0,0,1,0-.28c0-.37,0-.7-.38-.93-.14-.08-.22-.31-.29-.49A.34.34,0,0,1,32.07,4a.81.81,0,0,1,.44,0C32.58,4,32.65,4.11,32.73,4.15Z"/><path class="cls-4" d="M13.72,17.81H14c0,.4,0,.8,0,1.19a.38.38,0,0,0,.16.31,2.8,2.8,0,0,1,.49.59.43.43,0,0,1-.11.54c-.17.14-.34.06-.51,0l-.15-.09a3,3,0,0,1-.31.16.37.37,0,0,1-.52-.36.88.88,0,0,1,.47-.76.45.45,0,0,0,.22-.47C13.71,18.54,13.72,18.18,13.72,17.81Z"/><path class="cls-4" d="M32.73,20.12c-.09.05-.17.13-.25.14s-.33,0-.41,0a.54.54,0,0,1-.14-.41,1,1,0,0,1,.51-.71.31.31,0,0,0,.16-.31c0-.32,0-.65,0-1l.27,0c0,.35,0,.67,0,1a.4.4,0,0,0,.17.33,2.45,2.45,0,0,1,.47.55.45.45,0,0,1-.09.56c-.18.16-.36.07-.53,0Z"/></g></g></svg>