<svg xmlns="http://www.w3.org/2000/svg" viewBox="0 0 38.55 24.66"><defs><style>.cls-1{isolation:isolate;}.cls-2{opacity:0.15;}.cls-2,.cls-3{mix-blend-mode:multiply;}.cls-4{fill:#fff;}</style></defs><title>convert-CUSTOMIZE-SVG-03</title><g class="cls-1"><g id="Layer_1" data-name="Layer 1"><g class="cls-2"><path d="M12.49,10.51a3.61,3.61,0,0,1,.25.3,3.79,3.79,0,0,1,.58,2.72,3.48,3.48,0,0,1-.63,1.78,3.22,3.22,0,0,1-2.37,1.3,6.56,6.56,0,0,1-1.77,0c-.82-.14-1-.32-1.19-1.13a2.24,2.24,0,0,1,.33-1.94,1.47,1.47,0,0,1,.1-.13c.25-.29.44-.28.61.07A1.75,1.75,0,0,0,9.67,14.5a1.92,1.92,0,0,0,.79,0,2.65,2.65,0,0,0,1.94-2.25,5.63,5.63,0,0,0,0-1.16v-.51Z"/><path d="M15.66,11.66c-.07.34-.18.75-.27,1.17a4.69,4.69,0,0,0-.09.64c0,.18-.11.26-.25.25a11.19,11.19,0,0,1-1.16-.18c-.07,0-.15-.14-.16-.23-.07-.34-.13-.69-.17-1a4.07,4.07,0,0,0-.51-1.59,1.2,1.2,0,0,0-.83-.6,1.27,1.27,0,0,1-.91-1.15c-.09-.63,0-.8.68-.74a4.15,4.15,0,0,1,2.31,1A3.47,3.47,0,0,1,15.56,11C15.6,11.16,15.62,11.37,15.66,11.66Z"/><path d="M5.5,12.73a3.25,3.25,0,0,1,.28-1.44,1.42,1.42,0,0,1,1.75-.89,4.67,4.67,0,0,1,1.63.68.24.24,0,0,1,.05.39,1.82,1.82,0,0,1-.35.27,3.65,3.65,0,0,0-1.71,2.09,3.69,3.69,0,0,0-.05.94c0,.31,0,.62,0,.93a.32.32,0,0,1-.17.26c-.06,0-.19-.05-.26-.12a2,2,0,0,1-.32-.39A4.73,4.73,0,0,1,5.5,12.73Z"/><path d="M9.52,9.1a2.56,2.56,0,0,1,2.59,2.24,2.15,2.15,0,0,1-1.06,2.39c-.17.11-.35.18-.52.28A1.39,1.39,0,0,1,9.4,14a.17.17,0,0,1-.12-.11s.05-.1.1-.12.19-.07.28-.13a5.52,5.52,0,0,0,.86-.56A.77.77,0,0,0,10.64,12a4,4,0,0,0-.72-.76A9.41,9.41,0,0,0,7.7,10a1.25,1.25,0,0,1-.24-.16,1,1,0,0,1,.22-.24A3.71,3.71,0,0,1,9.52,9.1Z"/><path d="M10.17,8.61a6.89,6.89,0,0,0-3,.55,2.91,2.91,0,0,0-1.72,2c-.06.22-.09.45-.15.67s-.09.14-.13.2A.66.66,0,0,1,5,11.84,2.93,2.93,0,0,1,6.24,7.9a.64.64,0,0,1,.28-.06A10.66,10.66,0,0,0,9,7.55c.27-.08.53-.22.8-.33.45-.19.61-.13.82.31a6,6,0,0,1,.31.8c.08.23,0,.3-.25.29Z"/><path d="M13.35,14.68c0-.18.06-.4.11-.62a.26.26,0,0,1,.33-.22,6.67,6.67,0,0,1,1.19.29.85.85,0,0,1,.39,1.39,5.77,5.77,0,0,1-1.85,1.83,3,3,0,0,1-1.9.45c-.26,0-.53,0-.79-.09s-.56-.4-.69-.73c-.07-.16,0-.26.24-.21a2.12,2.12,0,0,0,1.17-.08,3.56,3.56,0,0,0,1.2-.64A1.34,1.34,0,0,0,13.35,14.68Z"/><path d="M4.46,15.72c.47,0,.89,0,1.32,0a1,1,0,0,1,.75.46,1.52,1.52,0,0,0,1.13.7c.17,0,.35,0,.53,0s.65,0,1,0a.94.94,0,0,1,.79.62.38.38,0,0,1-.23.53,5,5,0,0,1-.93.27,3.79,3.79,0,0,1-4.07-2.09Z"/><path d="M3.58,11.89q.13-.6.27-1.17a.34.34,0,0,1,.08-.17c.06-.06.13-.15.19-.14s.12.1.15.18a1.84,1.84,0,0,1,.09.28c.11.35.22.7.34,1a.94.94,0,0,0,.18.36,1.85,1.85,0,0,1,.36,1,14.25,14.25,0,0,0,.45,1.58c.17.53.12.62-.42.57A1.23,1.23,0,0,1,4,14.25C3.82,13.48,3.71,12.69,3.58,11.89Z"/><path d="M2.27,10.68,2,10.62c-.18-.06-.35-.19-.34-.38a.61.61,0,0,1,.21-.42c.17-.13.26-.24.2-.46a.42.42,0,0,1,.17-.47.52.52,0,0,1,.56,0,1.49,1.49,0,0,1,.59,1.22.12.12,0,0,1,0,.09A1.83,1.83,0,0,1,2.27,10.68Z"/><path d="M13.8,19.72c0,.38-.21.56-.54.51a.39.39,0,0,0-.48.17.42.42,0,0,1-.48.22.53.53,0,0,1-.37-.45,1.55,1.55,0,0,1,.48-1.23s.05,0,.07,0a1.58,1.58,0,0,1,1.16.49A1.15,1.15,0,0,1,13.8,19.72Z"/><path d="M17.17,15.91c0,.13,0,.25,0,.38a.43.43,0,0,1-.58.42.88.88,0,0,1-.57-.56c-.3-.82-.28-.85.49-1.18a1.64,1.64,0,0,1,.7,0,.41.41,0,0,1,.37.35.43.43,0,0,1-.19.44Z"/><path d="M11.85,5.58a2,2,0,0,1,0-.2A.45.45,0,0,1,12.27,5a.61.61,0,0,1,.43.19c.14.16.25.27.49.21a.41.41,0,0,1,.49.21.5.5,0,0,1-.08.57,1.62,1.62,0,0,1-1.2.52.15.15,0,0,1-.09,0A1.71,1.71,0,0,1,11.85,5.58Z"/><path d="M2.67,14.7a1.72,1.72,0,0,1,1,.46.25.25,0,0,1,.06.15,1.7,1.7,0,0,1-.4,1,.64.64,0,0,1-.56.24c-.3,0-.44-.26-.37-.61,0-.12,0-.21-.08-.3-.3-.2-.39-.39-.32-.59S2.27,14.7,2.67,14.7Z"/><path d="M17.55,9.73a1.69,1.69,0,0,1,.25.2.91.91,0,0,1,.18.42c0,.19-.17.31-.36.37a1,1,0,0,1-.8-.09c-.66-.35-.68-.33-.42-1.07A1.65,1.65,0,0,1,16.84,9a.45.45,0,0,1,.55,0,.41.41,0,0,1,.19.47A2.85,2.85,0,0,1,17.55,9.73Z"/><path d="M6.51,20.18l-.39,0a.43.43,0,0,1-.39-.67A1.25,1.25,0,0,1,6.66,19c.39-.08.41-.07.63.27a1.38,1.38,0,0,1,.26.85.56.56,0,0,1-.38.54c-.24.07-.39-.08-.53-.25Z"/><path d="M6.84,5.32,7,5.07a.43.43,0,0,1,.47-.17.51.51,0,0,1,.36.45,1.16,1.16,0,0,1-.17.81c-.34.53-.26.5-.85.34a2.14,2.14,0,0,1-.67-.38A.49.49,0,0,1,6,5.83a.42.42,0,0,1,.49-.55C6.62,5.28,6.73,5.31,6.84,5.32Z"/><path d="M9.29,13.21c-.44,0-.63-.25-.53-.67a1.19,1.19,0,0,1,.1-.32A.67.67,0,0,1,10,12a1.46,1.46,0,0,1,.16.19.49.49,0,0,1-.27.81A4.37,4.37,0,0,1,9.29,13.21Z"/><path d="M9.63,5.68A.4.4,0,1,1,10,5.3.41.41,0,0,1,9.63,5.68Z"/><path d="M15,17.64a.4.4,0,1,1,0,.79.41.41,0,0,1-.41-.39A.43.43,0,0,1,15,17.64Z"/><path d="M4.31,18.38A.42.42,0,0,1,3.9,18a.4.4,0,0,1,.39-.39A.39.39,0,0,1,4.7,18,.4.4,0,0,1,4.31,18.38Z"/><path d="M3.85,7.51a.4.4,0,0,1,.41-.39.41.41,0,0,1,.39.4.42.42,0,0,1-.42.39A.39.39,0,0,1,3.85,7.51Z"/><path d="M17.3,12.33a.39.39,0,1,1,0,.78.39.39,0,0,1-.4-.4A.38.38,0,0,1,17.3,12.33Z"/><path d="M10,20.17a.4.4,0,1,1-.38-.4A.39.39,0,0,1,10,20.17Z"/><path d="M15,7.84a.37.37,0,0,1-.39-.38.4.4,0,1,1,.79,0A.37.37,0,0,1,15,7.84Z"/><path d="M2.13,12.33a.39.39,0,1,1,0,.78.39.39,0,1,1,0-.78Z"/><path d="M12.69,10.71c.08.1.17.19.25.3a3.78,3.78,0,0,1,.58,2.72,3.58,3.58,0,0,1-.63,1.78,3.18,3.18,0,0,1-2.37,1.29,6.18,6.18,0,0,1-1.77,0c-.82-.15-1-.32-1.19-1.14a2.25,2.25,0,0,1,.32-1.93L8,13.57c.25-.3.44-.29.61.07A1.76,1.76,0,0,0,9.86,14.7a1.9,1.9,0,0,0,.79,0,2.68,2.68,0,0,0,1.95-2.25,6.43,6.43,0,0,0,0-1.16v-.51Z"/><path d="M15.86,11.86c-.08.34-.18.75-.27,1.17a4.69,4.69,0,0,0-.09.64c0,.18-.12.26-.25.25a11.82,11.82,0,0,1-1.17-.18c-.06,0-.14-.14-.15-.23-.07-.34-.13-.69-.17-1a4.07,4.07,0,0,0-.51-1.59,1.19,1.19,0,0,0-.83-.6,1.28,1.28,0,0,1-.91-1.16c-.1-.62,0-.79.68-.73a4.11,4.11,0,0,1,2.31,1,3.32,3.32,0,0,1,1.25,1.78A6.52,6.52,0,0,1,15.86,11.86Z"/><path d="M5.69,12.93A3.1,3.1,0,0,1,6,11.49a1.42,1.42,0,0,1,1.75-.89,4.71,4.71,0,0,1,1.62.67.25.25,0,0,1,.06.4,1.45,1.45,0,0,1-.35.26A3.7,3.7,0,0,0,7.35,14a3.69,3.69,0,0,0,0,.94c0,.31,0,.62,0,.93a.39.39,0,0,1-.17.26c-.06,0-.19-.05-.26-.12a2,2,0,0,1-.32-.39A4.81,4.81,0,0,1,5.69,12.93Z"/><path d="M9.72,9.3a2.56,2.56,0,0,1,2.59,2.23,2.16,2.16,0,0,1-1.06,2.4l-.52.28a1.43,1.43,0,0,1-1.13,0,.19.19,0,0,1-.12-.11s0-.1.09-.12l.29-.13a6.35,6.35,0,0,0,.86-.56.77.77,0,0,0,.12-1.09,3.71,3.71,0,0,0-.72-.76A9.41,9.41,0,0,0,7.9,10.23a1.23,1.23,0,0,1-.25-.17,1.63,1.63,0,0,1,.22-.23A3.58,3.58,0,0,1,9.72,9.3Z"/><path d="M10.37,8.81a6.89,6.89,0,0,0-3,.55,2.91,2.91,0,0,0-1.72,2c-.06.23-.09.46-.15.68s-.09.13-.13.2A.66.66,0,0,1,5.19,12,2.93,2.93,0,0,1,6.43,8.1.58.58,0,0,1,6.72,8a10.66,10.66,0,0,0,2.45-.29c.27-.09.53-.22.8-.33.45-.19.61-.14.82.31a6,6,0,0,1,.31.8c.07.23,0,.3-.25.29A3.85,3.85,0,0,0,10.37,8.81Z"/><path d="M13.55,14.88c0-.18.06-.41.11-.62A.26.26,0,0,1,14,14a7.92,7.92,0,0,1,1.19.28.86.86,0,0,1,.39,1.4,6,6,0,0,1-1.85,1.83,3,3,0,0,1-1.9.45c-.26,0-.53,0-.79-.09s-.56-.4-.69-.73c-.07-.16,0-.26.24-.21a2.12,2.12,0,0,0,1.17-.08,3.66,3.66,0,0,0,1.2-.64A1.34,1.34,0,0,0,13.55,14.88Z"/><path d="M4.65,15.91c.47,0,.9,0,1.32,0a1,1,0,0,1,.76.45,1.53,1.53,0,0,0,1.13.71c.17,0,.35,0,.52,0,.33,0,.65,0,1,0a1,1,0,0,1,.79.62.38.38,0,0,1-.23.54,5.19,5.19,0,0,1-.93.27,3.81,3.81,0,0,1-4.07-2.09Z"/><path d="M3.78,12.09l.27-1.18a.3.3,0,0,1,.08-.16c.06-.06.13-.15.19-.14s.12.1.15.17a2.46,2.46,0,0,1,.09.29c.11.34.22.69.34,1a1.19,1.19,0,0,0,.17.36,1.75,1.75,0,0,1,.37,1A12.37,12.37,0,0,0,5.89,15c.17.53.12.62-.43.57a1.23,1.23,0,0,1-1.29-1.13C4,13.67,3.91,12.89,3.78,12.09Z"/><path d="M2.47,10.88l-.26-.06c-.19-.06-.35-.19-.34-.38A.61.61,0,0,1,2.08,10c.17-.13.26-.24.2-.46a.42.42,0,0,1,.17-.47A.54.54,0,0,1,3,9.1a1.52,1.52,0,0,1,.59,1.23.26.26,0,0,1-.05.09A1.89,1.89,0,0,1,2.47,10.88Z"/><path d="M14,19.92c0,.38-.21.56-.55.51a.38.38,0,0,0-.47.17.42.42,0,0,1-.48.22.53.53,0,0,1-.37-.45,1.55,1.55,0,0,1,.48-1.23l.07,0a1.59,1.59,0,0,1,1.15.5A1.23,1.23,0,0,1,14,19.92Z"/><path d="M17.37,16.1a2.61,2.61,0,0,1,0,.39.42.42,0,0,1-.57.42.88.88,0,0,1-.57-.56c-.31-.82-.28-.85.49-1.18a1.49,1.49,0,0,1,.7-.05.45.45,0,0,1,.37.36.43.43,0,0,1-.2.44Z"/><path d="M12.05,5.78a1.68,1.68,0,0,1,0-.2c.06-.21.19-.39.4-.39a.61.61,0,0,1,.43.19c.14.16.25.27.49.21a.41.41,0,0,1,.49.21.52.52,0,0,1-.08.57,1.62,1.62,0,0,1-1.2.52.12.12,0,0,1-.09,0A1.66,1.66,0,0,1,12.05,5.78Z"/><path d="M2.87,14.9a1.72,1.72,0,0,1,.95.46.19.19,0,0,1,.05.14,1.69,1.69,0,0,1-.39,1,.67.67,0,0,1-.56.24c-.3,0-.44-.26-.38-.61,0-.12.06-.21-.08-.3s-.38-.39-.31-.59S2.47,14.9,2.87,14.9Z"/><path d="M17.74,9.93a1,1,0,0,1,.25.2.84.84,0,0,1,.19.42c0,.19-.17.31-.36.37a1,1,0,0,1-.8-.09c-.66-.35-.68-.33-.42-1.07A1.53,1.53,0,0,1,17,9.21a.46.46,0,0,1,.55-.05.45.45,0,0,1,.19.48C17.77,9.73,17.76,9.82,17.74,9.93Z"/><path d="M6.7,20.38l-.38,0a.43.43,0,0,1-.39-.67,1.25,1.25,0,0,1,.93-.59c.39-.08.41-.07.63.27a1.35,1.35,0,0,1,.25.85.55.55,0,0,1-.37.54c-.25.07-.39-.08-.53-.25Z"/><path d="M7,5.52l.2-.25a.43.43,0,0,1,.47-.17.51.51,0,0,1,.36.45,1.08,1.08,0,0,1-.18.8c-.34.53-.25.51-.85.35a2.1,2.1,0,0,1-.66-.38A.52.52,0,0,1,6.22,6a.43.43,0,0,1,.49-.56Z"/><path d="M9.49,13.41c-.44,0-.63-.25-.54-.68a1.92,1.92,0,0,1,.11-.31.68.68,0,0,1,1.16-.19,1,1,0,0,1,.15.2.49.49,0,0,1-.26.81A6.29,6.29,0,0,1,9.49,13.41Z"/><path d="M9.83,5.87a.4.4,0,1,1,0-.79.39.39,0,0,1,.39.41A.38.38,0,0,1,9.83,5.87Z"/><path d="M15.17,17.84a.4.4,0,1,1,0,.79.41.41,0,0,1-.41-.4A.42.42,0,0,1,15.17,17.84Z"/><path d="M4.51,18.57a.4.4,0,0,1-.41-.39.4.4,0,0,1,.39-.39.39.39,0,0,1,.41.37A.38.38,0,0,1,4.51,18.57Z"/><path d="M4.05,7.71a.4.4,0,0,1,.41-.39.41.41,0,0,1,.39.4.41.41,0,0,1-.42.38A.38.38,0,0,1,4.05,7.71Z"/><path d="M17.5,12.53a.38.38,0,0,1,.4.37.39.39,0,0,1-.39.41.41.41,0,0,1-.41-.4A.4.4,0,0,1,17.5,12.53Z"/><path d="M10.23,20.37a.38.38,0,0,1-.39.38.39.39,0,1,1,0-.78A.38.38,0,0,1,10.23,20.37Z"/><path d="M15.22,8a.37.37,0,0,1-.38-.38.38.38,0,0,1,.4-.39.38.38,0,0,1,.39.41A.38.38,0,0,1,15.22,8Z"/><path d="M2.33,12.53a.39.39,0,1,1-.4.38A.39.39,0,0,1,2.33,12.53Z"/></g><g class="cls-3"><path d="M12.35,10.37c.08.1.17.19.25.3a3.78,3.78,0,0,1,.58,2.72,3.58,3.58,0,0,1-.63,1.78,3.18,3.18,0,0,1-2.37,1.29,6.18,6.18,0,0,1-1.77,0c-.82-.15-1-.33-1.19-1.14a2.25,2.25,0,0,1,.32-1.93l.11-.13c.25-.3.44-.29.61.07a1.76,1.76,0,0,0,1.26,1.06,1.9,1.9,0,0,0,.79,0,2.68,2.68,0,0,0,1.95-2.25,6.43,6.43,0,0,0,0-1.16V10.4Z"/><path d="M15.52,11.52c-.08.34-.18.75-.27,1.17a4.69,4.69,0,0,0-.09.64c0,.18-.12.26-.25.25a11.82,11.82,0,0,1-1.17-.18c-.06,0-.14-.14-.15-.23-.07-.34-.13-.69-.17-1a4.07,4.07,0,0,0-.51-1.59,1.19,1.19,0,0,0-.83-.6,1.28,1.28,0,0,1-.91-1.16c-.1-.62,0-.79.68-.73a4.11,4.11,0,0,1,2.31,1,3.32,3.32,0,0,1,1.25,1.78A6.52,6.52,0,0,1,15.52,11.52Z"/><path d="M5.35,12.59a3.1,3.1,0,0,1,.29-1.44,1.42,1.42,0,0,1,1.75-.89A4.71,4.71,0,0,1,9,10.93a.25.25,0,0,1,.06.4,1.45,1.45,0,0,1-.35.26A3.7,3.7,0,0,0,7,13.69a4.21,4.21,0,0,0-.06.94c0,.31,0,.62,0,.93a.39.39,0,0,1-.17.26c-.06,0-.19-.05-.26-.12a3.09,3.09,0,0,1-.33-.39A4.88,4.88,0,0,1,5.35,12.59Z"/><path d="M9.38,9A2.56,2.56,0,0,1,12,11.19a2.16,2.16,0,0,1-1.06,2.4l-.52.28a1.43,1.43,0,0,1-1.13,0,.19.19,0,0,1-.12-.11s0-.1.09-.12l.29-.13a6.35,6.35,0,0,0,.86-.56.77.77,0,0,0,.12-1.09,3.71,3.71,0,0,0-.72-.76A9.41,9.41,0,0,0,7.56,9.89a1.23,1.23,0,0,1-.25-.17,1.63,1.63,0,0,1,.22-.23A3.58,3.58,0,0,1,9.38,9Z"/><path d="M10,8.47A6.89,6.89,0,0,0,7,9,2.91,2.91,0,0,0,5.3,11c-.06.23-.09.46-.15.68s-.09.13-.13.2a.93.93,0,0,1-.18-.16A2.94,2.94,0,0,1,6.09,7.76a.58.58,0,0,1,.29-.06,10.66,10.66,0,0,0,2.45-.29c.27-.09.53-.22.8-.33.45-.19.61-.14.82.31a6,6,0,0,1,.31.8c.07.23,0,.3-.25.29A3.85,3.85,0,0,0,10,8.47Z"/><path d="M13.21,14.54c0-.18.06-.41.11-.62a.26.26,0,0,1,.33-.22,7.52,7.52,0,0,1,1.18.28.85.85,0,0,1,.4,1.4,6,6,0,0,1-1.85,1.83,3,3,0,0,1-1.9.45c-.26,0-.53,0-.79-.09s-.56-.41-.69-.73c-.07-.16,0-.26.24-.21a2.12,2.12,0,0,0,1.17-.08,3.66,3.66,0,0,0,1.2-.64A1.34,1.34,0,0,0,13.21,14.54Z"/><path d="M4.31,15.57c.47,0,.9,0,1.32,0a1,1,0,0,1,.76.45,1.53,1.53,0,0,0,1.13.71c.17,0,.35,0,.52,0,.33,0,.65,0,1,0a1,1,0,0,1,.78.62.37.37,0,0,1-.22.54,4.45,4.45,0,0,1-.93.26A3.79,3.79,0,0,1,4.58,16Z"/><path d="M3.44,11.75l.27-1.18a.3.3,0,0,1,.08-.16c.06-.06.13-.15.19-.15s.12.11.15.18a2.46,2.46,0,0,1,.09.29c.11.34.22.69.34,1a1.19,1.19,0,0,0,.17.36,1.75,1.75,0,0,1,.37,1,12.37,12.37,0,0,0,.45,1.58c.17.53.12.62-.43.57a1.23,1.23,0,0,1-1.29-1.13C3.68,13.33,3.57,12.54,3.44,11.75Z"/><path d="M2.13,10.53a1.47,1.47,0,0,1-.26,0c-.19-.06-.35-.19-.34-.38a.61.61,0,0,1,.21-.42c.17-.14.26-.24.2-.46a.42.42,0,0,1,.17-.47.52.52,0,0,1,.56,0A1.52,1.52,0,0,1,3.26,10a.26.26,0,0,1,0,.09A1.81,1.81,0,0,1,2.13,10.53Z"/><path d="M13.66,19.58c0,.38-.21.56-.55.51a.38.38,0,0,0-.47.17.42.42,0,0,1-.48.22.53.53,0,0,1-.37-.45,1.55,1.55,0,0,1,.48-1.23l.07,0a1.59,1.59,0,0,1,1.15.5A1.23,1.23,0,0,1,13.66,19.58Z"/><path d="M17,15.76a2.61,2.61,0,0,1,0,.39.42.42,0,0,1-.57.42.86.86,0,0,1-.57-.56c-.31-.82-.28-.85.49-1.18a1.49,1.49,0,0,1,.7-.05.45.45,0,0,1,.37.36.43.43,0,0,1-.2.44A1.88,1.88,0,0,1,17,15.76Z"/><path d="M11.71,5.44a1.68,1.68,0,0,1,0-.2c.06-.21.19-.39.4-.39a.61.61,0,0,1,.43.19c.14.16.25.27.49.21a.41.41,0,0,1,.49.21.52.52,0,0,1-.08.57,1.62,1.62,0,0,1-1.2.52.12.12,0,0,1-.09,0A1.66,1.66,0,0,1,11.71,5.44Z"/><path d="M2.53,14.56a1.72,1.72,0,0,1,1,.46.19.19,0,0,1,0,.14,1.69,1.69,0,0,1-.39,1,.67.67,0,0,1-.56.24c-.3,0-.44-.26-.38-.61,0-.12.06-.21-.08-.3-.29-.2-.38-.39-.31-.59S2.13,14.56,2.53,14.56Z"/><path d="M17.4,9.59a1,1,0,0,1,.25.2.84.84,0,0,1,.19.42c0,.19-.17.31-.36.37a1,1,0,0,1-.8-.09c-.66-.35-.68-.33-.42-1.07a1.62,1.62,0,0,1,.43-.55.48.48,0,0,1,.56,0,.45.45,0,0,1,.19.48C17.43,9.39,17.42,9.48,17.4,9.59Z"/><path d="M6.36,20l-.38,0a.43.43,0,0,1-.39-.67,1.25,1.25,0,0,1,.93-.59c.39-.08.41-.07.63.27a1.35,1.35,0,0,1,.25.85.55.55,0,0,1-.37.54c-.25.07-.39-.08-.53-.25Z"/><path d="M6.7,5.18l.2-.25a.43.43,0,0,1,.47-.17.51.51,0,0,1,.36.45,1.08,1.08,0,0,1-.18.8c-.34.53-.25.51-.85.35A2.1,2.1,0,0,1,6,6a.52.52,0,0,1-.16-.29.43.43,0,0,1,.49-.56Z"/><path d="M9.15,13.07c-.44,0-.63-.25-.54-.68a1.92,1.92,0,0,1,.11-.31.68.68,0,0,1,1.16-.19,1,1,0,0,1,.15.2.49.49,0,0,1-.26.81A6.29,6.29,0,0,1,9.15,13.07Z"/><path d="M9.49,5.53a.4.4,0,1,1,0-.79.39.39,0,0,1,.39.41A.38.38,0,0,1,9.49,5.53Z"/><path d="M14.83,17.5a.4.4,0,1,1,0,.79.41.41,0,0,1-.41-.4A.42.42,0,0,1,14.83,17.5Z"/><path d="M4.17,18.23a.4.4,0,0,1-.41-.39.4.4,0,0,1,.39-.39.39.39,0,0,1,.41.37A.38.38,0,0,1,4.17,18.23Z"/><path d="M3.71,7.37A.4.4,0,0,1,4.12,7a.41.41,0,0,1,.39.4.41.41,0,0,1-.42.38A.38.38,0,0,1,3.71,7.37Z"/><path d="M17.16,12.19a.38.38,0,0,1,.4.37.39.39,0,0,1-.39.41.41.41,0,0,1-.41-.4A.4.4,0,0,1,17.16,12.19Z"/><path d="M9.89,20a.38.38,0,0,1-.39.38.39.39,0,1,1,0-.78A.38.38,0,0,1,9.89,20Z"/><path d="M14.88,7.7a.37.37,0,0,1-.38-.38.38.38,0,0,1,.4-.39.39.39,0,0,1,.39.41A.38.38,0,0,1,14.88,7.7Z"/><path d="M2,12.19A.39.39,0,1,1,2,13a.39.39,0,1,1,0-.78Z"/></g><path class="cls-4" d="M12.55,10.57l.25.29a3.87,3.87,0,0,1,.58,2.73,3.6,3.6,0,0,1-.63,1.77,3.16,3.16,0,0,1-2.37,1.3,6.18,6.18,0,0,1-1.77,0c-.82-.15-1-.33-1.2-1.14a2.28,2.28,0,0,1,.33-1.93l.11-.13c.24-.3.44-.29.61.07a1.7,1.7,0,0,0,1.26,1.05,1.62,1.62,0,0,0,.79,0,2.65,2.65,0,0,0,2-2.25,7.38,7.38,0,0,0,0-1.15V10.6Z"/><path class="cls-4" d="M15.72,11.72c-.08.34-.18.75-.27,1.17a3.4,3.4,0,0,0-.09.64.23.23,0,0,1-.26.25,11.63,11.63,0,0,1-1.16-.18.37.37,0,0,1-.16-.23c-.06-.34-.12-.69-.16-1a4.12,4.12,0,0,0-.51-1.6,1.21,1.21,0,0,0-.83-.59A1.28,1.28,0,0,1,11.37,9c-.1-.62,0-.79.68-.74a4.19,4.19,0,0,1,2.31,1A3.32,3.32,0,0,1,15.61,11,6.52,6.52,0,0,1,15.72,11.72Z"/><path class="cls-4" d="M5.55,12.79a3.1,3.1,0,0,1,.29-1.44,1.41,1.41,0,0,1,1.74-.9,5,5,0,0,1,1.63.68.25.25,0,0,1,.06.4,1.58,1.58,0,0,1-.36.26,3.73,3.73,0,0,0-1.7,2.1,4.17,4.17,0,0,0-.06.94c0,.31,0,.62,0,.93A.39.39,0,0,1,7,16a.35.35,0,0,1-.26-.12,2.44,2.44,0,0,1-.33-.39A4.88,4.88,0,0,1,5.55,12.79Z"/><path class="cls-4" d="M9.58,9.16a2.56,2.56,0,0,1,2.59,2.23,2.16,2.16,0,0,1-1.07,2.4c-.16.1-.34.18-.52.28a1.41,1.41,0,0,1-1.12,0A.22.22,0,0,1,9.33,14s.06-.09.1-.11l.29-.13a6.35,6.35,0,0,0,.86-.56.78.78,0,0,0,.12-1.09,3.29,3.29,0,0,0-.73-.76,9.16,9.16,0,0,0-2.21-1.22,1.38,1.38,0,0,1-.25-.17c.08-.08.13-.18.22-.23A3.55,3.55,0,0,1,9.58,9.16Z"/><path class="cls-4" d="M10.22,8.67a6.87,6.87,0,0,0-3,.55,2.89,2.89,0,0,0-1.72,2c-.06.23-.09.46-.15.68a.81.81,0,0,1-.14.2c0-.06-.14-.1-.17-.17A3,3,0,0,1,6.29,8a.71.71,0,0,1,.29,0A10.14,10.14,0,0,0,9,7.6a7.68,7.68,0,0,0,.79-.32c.46-.19.62-.14.82.31a7,7,0,0,1,.32.8c.07.23,0,.3-.25.28Z"/><path class="cls-4" d="M13.41,14.73c0-.18.06-.4.11-.62a.26.26,0,0,1,.33-.21,7.52,7.52,0,0,1,1.18.28.86.86,0,0,1,.4,1.4,6.09,6.09,0,0,1-1.85,1.83,3,3,0,0,1-1.9.45c-.26,0-.53,0-.79-.09s-.56-.41-.7-.73c-.06-.16.05-.26.25-.21a2.22,2.22,0,0,0,1.17-.08,3.6,3.6,0,0,0,1.2-.65A1.33,1.33,0,0,0,13.41,14.73Z"/><path class="cls-4" d="M4.51,15.77c.47,0,.9,0,1.32,0a1.05,1.05,0,0,1,.76.45,1.51,1.51,0,0,0,1.13.71c.17,0,.35,0,.52,0,.33,0,.65,0,1,0a1,1,0,0,1,.79.62.37.37,0,0,1-.23.54,4.2,4.2,0,0,1-.92.26,3.8,3.8,0,0,1-4.08-2.09C4.7,16.09,4.62,16,4.51,15.77Z"/><path class="cls-4" d="M3.64,12c.09-.4.17-.79.26-1.18A.56.56,0,0,1,4,10.6c0-.06.13-.15.19-.14s.11.11.15.18.06.19.09.28c.11.35.22.7.34,1.05a1,1,0,0,0,.17.35,1.81,1.81,0,0,1,.37,1,12.8,12.8,0,0,0,.44,1.58c.18.53.12.62-.42.57A1.22,1.22,0,0,1,4,14.31C3.87,13.53,3.77,12.74,3.64,12Z"/><path class="cls-4" d="M2.33,10.73a1.47,1.47,0,0,1-.26-.05.43.43,0,0,1-.35-.38.69.69,0,0,1,.22-.43.39.39,0,0,0,.2-.46A.4.4,0,0,1,2.31,9a.52.52,0,0,1,.56,0,1.54,1.54,0,0,1,.59,1.23.26.26,0,0,1,0,.09A1.88,1.88,0,0,1,2.33,10.73Z"/><path class="cls-4" d="M13.86,19.78c0,.38-.22.56-.55.5a.39.39,0,0,0-.47.18.41.41,0,0,1-.49.21.53.53,0,0,1-.37-.44A1.54,1.54,0,0,1,12.47,19a.11.11,0,0,1,.07,0,1.64,1.64,0,0,1,1.15.49A1.45,1.45,0,0,1,13.86,19.78Z"/><path class="cls-4" d="M17.22,16c0,.14,0,.26,0,.39a.41.41,0,0,1-.57.41.83.83,0,0,1-.57-.55c-.31-.82-.28-.85.49-1.18a1.48,1.48,0,0,1,.7,0,.45.45,0,0,1,.37.36.43.43,0,0,1-.2.44C17.39,15.85,17.3,15.9,17.22,16Z"/><path class="cls-4" d="M11.91,5.64a.75.75,0,0,1,0-.2c.05-.21.19-.39.39-.39a.61.61,0,0,1,.44.19c.14.16.25.27.49.21a.41.41,0,0,1,.49.2.54.54,0,0,1-.08.58,1.66,1.66,0,0,1-1.2.52.12.12,0,0,1-.09,0A1.61,1.61,0,0,1,11.91,5.64Z"/><path class="cls-4" d="M2.73,14.76a1.63,1.63,0,0,1,.94.46.16.16,0,0,1,.06.14,1.66,1.66,0,0,1-.39,1,.65.65,0,0,1-.56.25c-.3,0-.44-.26-.38-.61,0-.12.06-.21-.08-.31s-.38-.38-.31-.58S2.32,14.76,2.73,14.76Z"/><path class="cls-4" d="M17.6,9.79c.09.07.2.11.25.2a.84.84,0,0,1,.19.42c0,.19-.17.31-.36.37a1,1,0,0,1-.8-.09c-.66-.35-.69-.33-.42-1.07a1.62,1.62,0,0,1,.43-.55A.48.48,0,0,1,17.45,9c.19.1.2.29.19.48S17.62,9.68,17.6,9.79Z"/><path class="cls-4" d="M6.56,20.24l-.38,0a.43.43,0,0,1-.39-.68A1.27,1.27,0,0,1,6.72,19c.39-.09.41-.07.63.27a1.35,1.35,0,0,1,.25.85.55.55,0,0,1-.37.54c-.25.07-.39-.09-.53-.25Z"/><path class="cls-4" d="M6.9,5.38a2.73,2.73,0,0,1,.2-.25A.45.45,0,0,1,7.57,5a.52.52,0,0,1,.36.45,1.14,1.14,0,0,1-.18.81c-.34.53-.25.51-.85.35a2.13,2.13,0,0,1-.66-.39.46.46,0,0,1-.16-.28c-.09-.35.12-.58.49-.56Z"/><path class="cls-4" d="M9.35,13.27c-.45,0-.63-.25-.54-.68a1.73,1.73,0,0,1,.11-.32.68.68,0,0,1,1.16-.18,1,1,0,0,1,.15.2.49.49,0,0,1-.26.81C9.77,13.17,9.55,13.21,9.35,13.27Z"/><path class="cls-4" d="M9.69,5.73a.4.4,0,1,1,0-.79.4.4,0,1,1,0,.79Z"/><path class="cls-4" d="M15,17.7a.4.4,0,1,1,0,.79.41.41,0,0,1-.41-.4A.42.42,0,0,1,15,17.7Z"/><path class="cls-4" d="M4.37,18.43A.4.4,0,0,1,4,18a.41.41,0,0,1,.39-.4.4.4,0,0,1,.4.38A.38.38,0,0,1,4.37,18.43Z"/><path class="cls-4" d="M3.91,7.57a.38.38,0,0,1,.4-.39.39.39,0,1,1,0,.78A.37.37,0,0,1,3.91,7.57Z"/><path class="cls-4" d="M17.36,12.39a.38.38,0,0,1,.4.37.38.38,0,0,1-.39.4.39.39,0,0,1-.41-.39A.4.4,0,0,1,17.36,12.39Z"/><path class="cls-4" d="M10.09,20.23a.39.39,0,0,1-.4.38.39.39,0,1,1,0-.78A.38.38,0,0,1,10.09,20.23Z"/><path class="cls-4" d="M15.08,7.9a.37.37,0,0,1-.38-.38.4.4,0,1,1,.79,0A.38.38,0,0,1,15.08,7.9Z"/><path class="cls-4" d="M2.19,12.39a.39.39,0,0,1,.4.4.39.39,0,0,1-.4.37.39.39,0,0,1-.4-.39A.38.38,0,0,1,2.19,12.39Z"/></g></g></svg>