<svg xmlns="http://www.w3.org/2000/svg" viewBox="0 0 38.55 24.66"><defs><style>.cls-1{isolation:isolate;}.cls-2{opacity:0.15;}.cls-2,.cls-3{mix-blend-mode:multiply;}.cls-4{fill:#fff;}</style></defs><title>convert-CUSTOMIZE-SVG-03</title><g class="cls-1"><g id="Layer_1" data-name="Layer 1"><g class="cls-2"><path d="M35.89,18.11H2.69a2,2,0,0,0-.33-1.25,1.31,1.31,0,0,0-1.18-.47V8.26a1.32,1.32,0,0,0,1.17-.48,1.94,1.94,0,0,0,.34-1.25h33.2a2,2,0,0,0,.32,1.24,1.3,1.3,0,0,0,1.18.49v8.12a1.31,1.31,0,0,0-1.17.48A2,2,0,0,0,35.89,18.11ZM3,17.82H35.63c.09-.94.48-1.62,1.5-1.74V8.56a1.59,1.59,0,0,1-1.47-1.47c0-.33,0-.28-.33-.28H3.14c-.15,0-.21,0-.22.19A1.62,1.62,0,0,1,1.44,8.57v7.51A1.66,1.66,0,0,1,3,17.82Z"/><path d="M34.92,3.48a3.17,3.17,0,0,1,.64-.21.66.66,0,0,1,.71.78,1.44,1.44,0,0,1-.47.88c-.22.21-.47.4-.71.59a.28.28,0,0,1-.22,0,3.17,3.17,0,0,1-1-1,1.69,1.69,0,0,1-.18-.47A.69.69,0,0,1,34,3.34a.78.78,0,0,1,.85.09Z"/><path d="M3.53,3.48a3.42,3.42,0,0,1,.61-.21.67.67,0,0,1,.74.81A1.5,1.5,0,0,1,4.39,5c-.21.2-.45.38-.68.56a.25.25,0,0,1-.22,0,3,3,0,0,1-1-1,1.43,1.43,0,0,1-.18-.47.67.67,0,0,1,.32-.75.73.73,0,0,1,.83.06Z"/><path d="M12.12,19.89l.1-.08a.71.71,0,0,1,.81-.06.67.67,0,0,1,.23.77,1.88,1.88,0,0,1-.74.95c-.41.33-.42.34-.83,0a4.26,4.26,0,0,1-.51-.53,1.38,1.38,0,0,1-.23-.51.58.58,0,0,1,.26-.68.67.67,0,0,1,.74,0A1.77,1.77,0,0,1,12.12,19.89Z"/><path d="M9.24,19.88a2.53,2.53,0,0,1,.36-.19.63.63,0,0,1,.83.76,1.34,1.34,0,0,1-.26.52,7.46,7.46,0,0,1-.79.7.23.23,0,0,1-.24,0,8.93,8.93,0,0,1-.84-.79,1,1,0,0,1-.21-.45.62.62,0,0,1,.29-.71.72.72,0,0,1,.78.08Z"/><path d="M32.07,19.89l.1-.08a.71.71,0,0,1,.81-.06.67.67,0,0,1,.24.77,2,2,0,0,1-.75.95c-.41.33-.41.34-.82,0a3.72,3.72,0,0,1-.52-.53,1.38,1.38,0,0,1-.23-.51.58.58,0,0,1,.26-.68.66.66,0,0,1,.74,0A1.36,1.36,0,0,1,32.07,19.89Z"/><path d="M29.21,19.89l.15-.11a.72.72,0,0,1,.77,0,.66.66,0,0,1,.24.74,1.69,1.69,0,0,1-.65.9c-.59.46-.44.47-1,0a2.42,2.42,0,0,1-.53-.62.71.71,0,0,1,.09-1A.73.73,0,0,1,29.21,19.89Z"/><path d="M26.36,19.9l.07-.07a.73.73,0,0,1,.85-.08.7.7,0,0,1,.22.82,2,2,0,0,1-.73.91c-.41.32-.41.32-.81,0a2.12,2.12,0,0,1-.74-.91.67.67,0,0,1,.22-.81.7.7,0,0,1,.84.07Z"/><path d="M23.48,19.87a2.86,2.86,0,0,1,.41-.19.63.63,0,0,1,.78.82,1.81,1.81,0,0,1-.7.93c-.53.41-.4.41-.93,0a1.77,1.77,0,0,1-.68-.91.65.65,0,0,1,.24-.77.71.71,0,0,1,.81.06Z"/><path d="M15,19.89l.09-.07a.7.7,0,0,1,.83-.06.67.67,0,0,1,.22.79,2.08,2.08,0,0,1-.79,1c-.35.27-.36.28-.71,0a4.79,4.79,0,0,1-.52-.49,1.38,1.38,0,0,1-.19-.28.74.74,0,0,1,.12-1A.72.72,0,0,1,15,19.89Z"/><path d="M6.41,19.89l.07-.05a.71.71,0,0,1,.86-.08.69.69,0,0,1,.2.82,1.79,1.79,0,0,1-.61.8c-.6.47-.45.47-1,0a1.76,1.76,0,0,1-.61-.79.7.7,0,0,1,.21-.82.71.71,0,0,1,.85.07Z"/><path d="M3.53,19.87a3.44,3.44,0,0,1,.39-.19.63.63,0,0,1,.79.82,1.74,1.74,0,0,1-.68.92c-.54.42-.41.42-1,0a1.78,1.78,0,0,1-.68-.9.66.66,0,0,1,.24-.77.71.71,0,0,1,.81.06A.32.32,0,0,1,3.53,19.87Z"/><path d="M34.92,19.9l.09-.08a.7.7,0,0,1,.82-.07.65.65,0,0,1,.23.79,2,2,0,0,1-.44.66c-.78.7-.61.7-1.42,0A1.21,1.21,0,0,1,34,21a2.49,2.49,0,0,1-.22-.43.67.67,0,0,1,.23-.77.68.68,0,0,1,.82.06Z"/><path d="M6.53,3.3h.78c-.46.18-.21.54-.31.83H8c.1-.41,0-.67-.22-.82h.75c-.22.07-.24.24-.24.43s0,.64,0,1,0,.38.24.46H7.78c.41-.23.18-.6.26-.92H7c.09.31-.17.69.27.91H6.53c.2-.07.23-.25.23-.43v-1C6.75,3.55,6.74,3.38,6.53,3.3Z"/><path d="M27.78,3.33a7.45,7.45,0,0,1,1.16,0,1,1,0,0,1,.53,1.56.8.8,0,0,1-.63.26c-.35,0-.7,0-1.07,0,.21,0,.25-.2.25-.37V3.69C28,3.52,28,3.37,27.78,3.33Zm.51,0c0,.5,0,1,0,1.49a.37.37,0,0,0,.24.25.56.56,0,0,0,.61-.19,1.07,1.07,0,0,0,.08-1.17A.82.82,0,0,0,28.29,3.36Z"/><path d="M17.1,19.74c.29,0,.49,0,.61.25a.53.53,0,0,1,0,.61,6.4,6.4,0,0,1-.56.6c-.07.07-.15.13-.22.21.28,0,.57.11.84-.12l-.07.34H16.61l.13-.15c.22-.28.47-.56.67-.86a.87.87,0,0,0,.11-.48C17.53,19.93,17.39,19.81,17.1,19.74Z"/><path d="M14.72,3.3h.75c-.24.09-.2.25-.13.43a10.44,10.44,0,0,1,.42,1.05c0,.11,0,.25-.08.38h-.07c-.17-.44-.33-.88-.51-1.31C15,3.65,15,3.39,14.72,3.3Z"/><path d="M21.38,20.16l.24-.42h0v1.39l.22,0c0,.21-.14,0-.17.09h-.06l.14.43h-.6c.29-.09.25-.26.24-.46h-.55c-.06,0-.15,0-.05-.08l.61.07c0-.27,0-.5,0-.73A1.28,1.28,0,0,0,21.38,20.16Z"/><path d="M19.68,21.62c0-.08.14-.18.14-.28,0-.44,0-.88,0-1.34l-.22,0,.46-.19v1.48c0,.16,0,.29.21.35Z"/><path d="M17.87,3.3l.36,0v1.1c0,.14,0,.29,0,.43s.06.24.09.36h-.45A2.62,2.62,0,0,0,17.87,3.3Z"/><path d="M10.43,5.67H10A2.32,2.32,0,0,0,10,4l.56.06a.75.75,0,0,0-.17.74c0,.2,0,.39,0,.59A1.54,1.54,0,0,0,10.43,5.67Z"/><path d="M12,4a.77.77,0,0,0-.17.74c0,.19,0,.37,0,.56a1.91,1.91,0,0,0,.1.34h-.47a2.3,2.3,0,0,0,0-1.71Z"/><path d="M19,4a.41.41,0,0,1,.54.4h-.77c-.06.5.2.75.64.65a.57.57,0,0,1-.64,0,.59.59,0,0,1-.26-.64.54.54,0,0,1,.5-.44l-.27.31,0,0h.54A.31.31,0,0,0,19,4Z"/><path d="M24.63,4a.42.42,0,0,1,.55.4h-.77c-.06.5.19.75.63.65a.57.57,0,0,1-.64,0,.59.59,0,0,1-.26-.64.54.54,0,0,1,.5-.44l-.27.31.05,0h.52C25,4.12,24.84,4,24.63,4Z"/><path d="M18.67,21.6a1.65,1.65,0,0,0,0-1.83.86.86,0,0,1,.23.13,1.22,1.22,0,0,1,0,1.58A.72.72,0,0,1,18.67,21.6Z"/><path d="M18.51,19.78a1.65,1.65,0,0,0,0,1.82.63.63,0,0,1-.2-.1,1.21,1.21,0,0,1,0-1.63A.61.61,0,0,1,18.51,19.78Z"/><path d="M21.3,4l.25-.33,0,.31.26,0V4l-.28,0c.06.38-.12.77.14,1.12-.28,0-.35,0-.35-.33s0-.44,0-.66A.65.65,0,0,0,21.3,4Z"/><path d="M26.09,5.16V4.93l.21.15a.22.22,0,1,0,.24-.36l-.28-.16a.29.29,0,0,1,0-.54c0,.08-.05.18,0,.24a.44.44,0,0,0,.21.17c.3.15.39.27.35.46s-.19.27-.53.27Z"/><path d="M13.28,5.45a.68.68,0,0,0,0-.62c-.13-.28-.23-.57-.35-.85h.38a1.2,1.2,0,0,0,0,.33,5.38,5.38,0,0,0,.24.55s0,0,0,.06l-.26.52Z"/><path d="M31.5,5.45a.71.71,0,0,0,0-.62c-.13-.28-.24-.57-.35-.85h.38a.91.91,0,0,0,0,.33,5.31,5.31,0,0,0,.23.55.21.21,0,0,1,0,.06c-.09.18-.18.35-.26.52Z"/><path d="M23.13,5.15h-.48a1,1,0,0,0,0-1.12L23,4c0,.1,0,.2,0,.3s0,.38,0,.57A1.18,1.18,0,0,0,23.13,5.15Z"/><path d="M19.82,4l.35,0c0,.11,0,.21,0,.31s0,.33,0,.49a2.62,2.62,0,0,0,.09.38h-.47A1,1,0,0,0,19.82,4Z"/><path d="M23.9,5.16h-.47c.27-.25.22-1-.08-1.17.32,0,.45.08.45.39a3.05,3.05,0,0,0,0,.43A2.58,2.58,0,0,0,23.9,5.16Z"/><path d="M21.06,5.15H20.6c.27-.24.21-1-.09-1.16.33,0,.45.08.45.4a3,3,0,0,0,0,.42A2.14,2.14,0,0,0,21.06,5.15Z"/><path d="M10.56,5.16A.57.57,0,0,0,11,4.55.52.52,0,0,0,10.57,4a.53.53,0,0,1,.58.24.63.63,0,0,1,0,.66A.58.58,0,0,1,10.56,5.16Z"/><path d="M12,4c.45,0,.68.19.68.58a.56.56,0,0,1-.64.58.57.57,0,0,0,.39-.61A.51.51,0,0,0,12,4Z"/><path d="M30.45,4c.25,0,.32.07.33.31v.55c0,.13,0,.24.25.18-.24.2-.37,0-.51,0a1.71,1.71,0,0,0-.07-1Z"/><path d="M17.23,4c.25,0,.32.07.33.31v.55c0,.13,0,.24.25.18-.24.2-.37,0-.5,0a1.71,1.71,0,0,0-.07-1Z"/><path d="M9.31,4c.25,0,.32.07.33.31v.55c0,.13,0,.24.25.18-.24.2-.37,0-.5,0a1.71,1.71,0,0,0-.08-1Z"/><path d="M22.46,5.16H22A1,1,0,0,0,22,4L22.3,4C22.41,4.37,22.2,4.79,22.46,5.16Z"/><path d="M9.11,5.15c-.21,0-.33-.07-.35-.23s.12-.29.44-.34c-.06.09-.16.17-.18.27A.8.8,0,0,0,9.11,5.15Z"/><path d="M30.36,4.58c-.27.25-.29.37-.07.56-.23,0-.36,0-.39-.21S30,4.62,30.36,4.58Z"/><path d="M17,5.15c-.22,0-.34-.07-.36-.23s.13-.29.42-.34a1.53,1.53,0,0,0-.16.34C16.93,5,17,5.07,17,5.15Z"/><path d="M25.51,4l.27-.33c-.08,0-.12,0-.14,0a.34.34,0,0,1-.11-.19s.12-.13.15-.12a.23.23,0,0,1,.15.17A.44.44,0,0,1,25.51,4Z"/><path d="M17,19.79a.45.45,0,0,0,.06.77.32.32,0,0,1-.39-.27A.42.42,0,0,1,17,19.79Z"/><path d="M16.08,3.3h.44L16.1,4C16.11,3.79,16.4,3.54,16.08,3.3Z"/><path d="M9.31,4A.26.26,0,0,0,9,4.19a.12.12,0,0,1-.11.07s-.08-.06-.08-.09,0-.11.07-.11l.43,0Z"/><path d="M30.45,4a.26.26,0,0,0-.31.18.12.12,0,0,1-.11.07S30,4.2,30,4.17s0-.11.07-.11l.43,0Z"/><path d="M17.24,4c-.15,0-.27,0-.32.18a.12.12,0,0,1-.11.07s-.08-.06-.07-.09,0-.11.06-.11l.43,0Z"/><path d="M14,4l-.22.38,0-.38Z"/><path d="M32.19,4,32,4.37,32,4Z"/><path d="M22.22,3.21c.06.08.12.12.12.17s-.06.08-.09.12-.12-.06-.13-.11S22.17,3.3,22.22,3.21Z"/><path d="M31.5,5.44c-.05.07-.08.17-.14.2s-.15,0-.23,0V5.56l.37-.11Z"/><path d="M13.28,5.44c0,.07-.07.17-.14.2s-.15,0-.23,0V5.56l.37-.11Z"/><path d="M36.09,18.31H2.89a2,2,0,0,0-.33-1.25,1.29,1.29,0,0,0-1.18-.47V8.46A1.32,1.32,0,0,0,2.55,8a2,2,0,0,0,.34-1.26h33.2A1.92,1.92,0,0,0,36.41,8a1.27,1.27,0,0,0,1.17.49v8.13a1.28,1.28,0,0,0-1.16.48A1.84,1.84,0,0,0,36.09,18.31ZM3.15,18H35.82c.1-.94.49-1.62,1.51-1.74V8.76a1.6,1.6,0,0,1-1.47-1.47c0-.34,0-.28-.33-.28H3.34c-.15,0-.21,0-.23.2A1.61,1.61,0,0,1,1.64,8.77v7.51C2.67,16.41,3.05,17.08,3.15,18Z"/><path d="M35.11,3.68a2.77,2.77,0,0,1,.65-.22.67.67,0,0,1,.71.79,1.39,1.39,0,0,1-.47.87,6.53,6.53,0,0,1-.71.59.26.26,0,0,1-.23,0,3.16,3.16,0,0,1-1-1,1.52,1.52,0,0,1-.18-.46.69.69,0,0,1,.32-.77.77.77,0,0,1,.85.09Z"/><path d="M3.73,3.68a4.18,4.18,0,0,1,.61-.22.68.68,0,0,1,.74.82,1.55,1.55,0,0,1-.49.87c-.21.2-.45.38-.68.56a.25.25,0,0,1-.22,0,3,3,0,0,1-1-1,1.3,1.3,0,0,1-.18-.46.67.67,0,0,1,.31-.75.74.74,0,0,1,.84.06Z"/><path d="M12.32,20.09a.39.39,0,0,1,.1-.08.71.71,0,0,1,.81-.06.67.67,0,0,1,.23.77,1.94,1.94,0,0,1-.74,1c-.41.33-.42.34-.83,0a3.59,3.59,0,0,1-.51-.52,1.59,1.59,0,0,1-.24-.51.59.59,0,0,1,.27-.68.66.66,0,0,1,.74,0Z"/><path d="M9.44,20.08a2.53,2.53,0,0,1,.36-.19.62.62,0,0,1,.82.76,1.11,1.11,0,0,1-.26.52,6.49,6.49,0,0,1-.78.7.26.26,0,0,1-.24,0,10.46,10.46,0,0,1-.84-.79,1,1,0,0,1-.21-.45.62.62,0,0,1,.29-.71.72.72,0,0,1,.78.08Z"/><path d="M32.27,20.09l.1-.08a.71.71,0,0,1,.81-.06.65.65,0,0,1,.23.77,1.88,1.88,0,0,1-.74,1c-.41.33-.42.34-.82,0a3.2,3.2,0,0,1-.52-.52,1.38,1.38,0,0,1-.23-.51.58.58,0,0,1,.26-.68.66.66,0,0,1,.74,0Z"/><path d="M29.41,20.09l.15-.11a.72.72,0,0,1,.77,0,.66.66,0,0,1,.24.74,1.69,1.69,0,0,1-.65.9c-.59.46-.44.46-1,0a2.68,2.68,0,0,1-.54-.62.68.68,0,1,1,1.05-.87Z"/><path d="M26.56,20.09l.07-.06a.72.72,0,0,1,.84-.08.68.68,0,0,1,.23.81,2,2,0,0,1-.73.92c-.41.32-.41.32-.82,0a2.1,2.1,0,0,1-.73-.91.67.67,0,0,1,.22-.81.7.7,0,0,1,.84.07Z"/><path d="M23.68,20.07a2.07,2.07,0,0,1,.41-.19.62.62,0,0,1,.77.82,1.74,1.74,0,0,1-.69.93c-.53.4-.4.41-.93,0a1.77,1.77,0,0,1-.68-.91A.65.65,0,0,1,22.8,20a.7.7,0,0,1,.81.06Z"/><path d="M15.17,20.09l.09-.07a.65.65,0,0,1,1,.73,2.08,2.08,0,0,1-.79,1c-.36.27-.36.28-.71,0a4.85,4.85,0,0,1-.52-.49,1.07,1.07,0,0,1-.19-.28.68.68,0,0,1,1.07-.85Z"/><path d="M6.61,20.09,6.68,20A.7.7,0,0,1,7.54,20a.68.68,0,0,1,.2.82,1.79,1.79,0,0,1-.61.8c-.6.47-.45.47-1,0a1.79,1.79,0,0,1-.61-.8A.69.69,0,0,1,5.68,20a.71.71,0,0,1,.84.06Z"/><path d="M3.73,20.07a3.44,3.44,0,0,1,.39-.19.63.63,0,0,1,.79.82,1.68,1.68,0,0,1-.68.91c-.55.43-.41.43-1,0a1.82,1.82,0,0,1-.67-.9A.66.66,0,0,1,2.84,20a.71.71,0,0,1,.81.06Z"/><path d="M35.12,20.09l.09-.07A.7.7,0,0,1,36,20a.63.63,0,0,1,.22.79,1.84,1.84,0,0,1-.43.66c-.78.7-.62.7-1.42,0a1.21,1.21,0,0,1-.21-.24,2.49,2.49,0,0,1-.22-.43A.65.65,0,0,1,34.2,20,.69.69,0,0,1,35,20Z"/><path d="M6.72,3.5h.79c-.46.18-.21.54-.31.83h1c.11-.41.05-.67-.22-.82h.76c-.22.06-.24.24-.24.43v1c0,.19,0,.38.24.45H8c.41-.22.18-.59.26-.91h-1c.1.31-.16.69.27.91H6.72c.21-.07.23-.25.24-.43,0-.33,0-.66,0-1S6.93,3.58,6.72,3.5Z"/><path d="M28,3.53a7.47,7.47,0,0,1,1.16,0,1,1,0,0,1,.53,1.56.83.83,0,0,1-.63.25,9.59,9.59,0,0,1-1.07,0c.2,0,.24-.21.25-.37V3.89C28.22,3.72,28.17,3.57,28,3.53Zm.51,0c0,.5,0,1,0,1.49a.4.4,0,0,0,.24.25.56.56,0,0,0,.61-.19,1.07,1.07,0,0,0,.08-1.17A.82.82,0,0,0,28.49,3.56Z"/><path d="M17.3,19.94a.61.61,0,0,1,.61.24.54.54,0,0,1,0,.62,8,8,0,0,1-.56.6,2.13,2.13,0,0,0-.22.21c.28,0,.56.11.84-.12l-.07.33H16.81l.13-.14c.22-.29.47-.56.67-.86a.87.87,0,0,0,.11-.48C17.73,20.13,17.59,20,17.3,19.94Z"/><path d="M14.92,3.5h.75c-.24.09-.21.25-.13.43.15.35.3.69.42,1.05,0,.11-.05.25-.08.38h-.07c-.17-.44-.33-.88-.51-1.31C15.22,3.85,15.19,3.59,14.92,3.5Z"/><path d="M21.58,20.36l.24-.42h0v1.39l.22,0c0,.21-.14,0-.17.09h-.06l.14.43h-.6c.29-.09.25-.27.24-.46h-.55c-.06,0-.15,0,0-.09l.6.07c0-.27,0-.49,0-.72A1.28,1.28,0,0,0,21.58,20.36Z"/><path d="M19.87,21.82c.05-.08.15-.18.15-.28,0-.44,0-.88,0-1.34l-.22,0,.46-.19v1.47a.31.31,0,0,0,.2.36Z"/><path d="M18.07,3.5l.36,0v1.1c0,.14,0,.28,0,.42s.06.25.09.37h-.45A2.62,2.62,0,0,0,18.07,3.5Z"/><path d="M10.63,5.86h-.47a2.3,2.3,0,0,0,0-1.71l.56.06a.74.74,0,0,0-.17.74c0,.2,0,.39,0,.58A1.39,1.39,0,0,0,10.63,5.86Z"/><path d="M12.19,4.22A.73.73,0,0,0,12,5c0,.2,0,.38,0,.57a1.33,1.33,0,0,0,.1.34h-.47a2.3,2.3,0,0,0,0-1.71Z"/><path d="M19.24,4.2a.41.41,0,0,1,.54.4H19c-.06.5.2.75.64.65a.57.57,0,0,1-.64,0,.6.6,0,0,1-.26-.65.54.54,0,0,1,.5-.43L19,4.5l.05,0h.54A.31.31,0,0,0,19.24,4.2Z"/><path d="M24.83,4.2a.42.42,0,0,1,.55.4H24.6c-.06.5.2.75.64.65a.57.57,0,0,1-.64,0,.6.6,0,0,1-.26-.65.54.54,0,0,1,.5-.43l-.27.3,0,0h.53C25.16,4.32,25,4.22,24.83,4.2Z"/><path d="M18.87,21.8a1.65,1.65,0,0,0,0-1.83.8.8,0,0,1,.22.13,1.21,1.21,0,0,1,0,1.58A.72.72,0,0,1,18.87,21.8Z"/><path d="M18.71,20a1.63,1.63,0,0,0,0,1.83.63.63,0,0,1-.2-.1,1.21,1.21,0,0,1,0-1.63A.64.64,0,0,1,18.71,20Z"/><path d="M21.5,4.18l.25-.33,0,.31.26,0v0h-.28c.06.38-.12.78.14,1.13-.28,0-.35,0-.35-.33s0-.44,0-.66A1.16,1.16,0,0,0,21.5,4.18Z"/><path d="M26.29,5.36V5.13l.21.15a.22.22,0,0,0,.32,0,.21.21,0,0,0-.09-.31c-.08-.06-.18-.1-.27-.16a.29.29,0,0,1,0-.54c0,.08-.06.18,0,.24a.44.44,0,0,0,.21.17c.3.15.39.27.35.46s-.19.27-.53.27Z"/><path d="M13.48,5.65a.7.7,0,0,0,0-.63c-.13-.27-.24-.56-.35-.84h.38a1.2,1.2,0,0,0,0,.33,5.31,5.31,0,0,0,.23.55.14.14,0,0,1,0,.06l-.26.52Z"/><path d="M31.7,5.65a.73.73,0,0,0,0-.63c-.13-.27-.24-.56-.35-.84h.38a1.22,1.22,0,0,0,0,.33c.07.19.16.37.24.55a.07.07,0,0,1,0,.06c-.08.17-.17.35-.26.52Z"/><path d="M23.33,5.35h-.48a1,1,0,0,0,0-1.12l.37-.05c0,.1,0,.2,0,.3s0,.38,0,.57A1.18,1.18,0,0,0,23.33,5.35Z"/><path d="M20,4.22l.35,0c0,.1,0,.21,0,.31s0,.33,0,.49a2.62,2.62,0,0,0,.09.38H20A1,1,0,0,0,20,4.22Z"/><path d="M24.1,5.35h-.47c.27-.24.21-1-.08-1.16.32,0,.45.08.45.39,0,.14,0,.29,0,.42S24.07,5.23,24.1,5.35Z"/><path d="M21.26,5.35H20.8c.27-.24.21-1-.09-1.16.32,0,.45.08.45.39a3.09,3.09,0,0,0,0,.43A2.14,2.14,0,0,0,21.26,5.35Z"/><path d="M10.76,5.35a.56.56,0,0,0,.43-.6.55.55,0,0,0-.42-.57.55.55,0,0,1,.58.25.63.63,0,0,1,0,.66A.55.55,0,0,1,10.76,5.35Z"/><path d="M12.24,4.18c.45,0,.68.2.68.58a.57.57,0,0,1-.64.59.57.57,0,0,0,.39-.62A.53.53,0,0,0,12.24,4.18Z"/><path d="M30.65,4.22c.25,0,.32.07.32.31s0,.36,0,.54,0,.25.25.19c-.24.2-.37,0-.51,0a1.71,1.71,0,0,0-.07-1Z"/><path d="M17.43,4.22c.25,0,.32.07.33.31v.54c0,.14,0,.25.25.18-.24.21-.37,0-.5,0a1.71,1.71,0,0,0-.07-1Z"/><path d="M9.51,4.22c.25,0,.32.07.33.31v.54c0,.14,0,.25.25.18-.24.21-.37,0-.51,0a1.71,1.71,0,0,0-.07-1Z"/><path d="M22.66,5.36h-.5a1,1,0,0,0,0-1.14l.32,0C22.61,4.57,22.39,5,22.66,5.36Z"/><path d="M9.31,5.35C9.1,5.36,9,5.28,9,5.12s.12-.29.44-.34c-.06.09-.16.17-.18.27A.93.93,0,0,0,9.31,5.35Z"/><path d="M30.55,4.78c-.26.25-.28.37-.07.56-.22,0-.36,0-.38-.21S30.23,4.82,30.55,4.78Z"/><path d="M17.24,5.35c-.22,0-.34-.07-.36-.24s.12-.28.42-.33a1.53,1.53,0,0,0-.16.34C17.12,5.18,17.2,5.27,17.24,5.35Z"/><path d="M25.7,4.14,26,3.82c-.08,0-.13,0-.14,0s-.11-.13-.11-.19.12-.13.15-.12a.28.28,0,0,1,.15.17A.43.43,0,0,1,25.7,4.14Z"/><path d="M17.22,20a.45.45,0,0,0,.05.77.31.31,0,0,1-.38-.27A.42.42,0,0,1,17.22,20Z"/><path d="M16.28,3.5h.44l-.42.72C16.31,4,16.6,3.74,16.28,3.5Z"/><path d="M9.51,4.21a.26.26,0,0,0-.31.18.14.14,0,0,1-.11.07S9,4.4,9,4.37s0-.11.07-.11a3.13,3.13,0,0,1,.43,0Z"/><path d="M30.65,4.21a.26.26,0,0,0-.31.18.16.16,0,0,1-.12.07s-.07-.06-.07-.09,0-.11.07-.11a3,3,0,0,1,.43,0Z"/><path d="M17.44,4.21c-.15,0-.27,0-.32.18a.14.14,0,0,1-.11.07s-.08-.06-.08-.09,0-.11.07-.11a3.13,3.13,0,0,1,.43,0Z"/><path d="M14.17,4.19,14,4.56l0-.37Z"/><path d="M32.39,4.18l-.22.39,0-.39Z"/><path d="M22.42,3.41c.06.08.12.12.12.17s-.06.08-.09.12-.12-.06-.13-.11S22.37,3.49,22.42,3.41Z"/><path d="M31.69,5.64c0,.07-.07.17-.13.2s-.16,0-.24,0V5.76l.37-.11Z"/><path d="M13.48,5.64c-.05.07-.08.17-.14.2s-.15,0-.23,0V5.76l.37-.11Z"/></g><g class="cls-3"><path d="M35.75,18H2.55a2,2,0,0,0-.33-1.25A1.29,1.29,0,0,0,1,16.25V8.12a1.32,1.32,0,0,0,1.17-.48,2,2,0,0,0,.34-1.26h33.2a1.92,1.92,0,0,0,.32,1.24,1.27,1.27,0,0,0,1.17.49v8.13a1.28,1.28,0,0,0-1.16.48A1.84,1.84,0,0,0,35.75,18ZM2.81,17.68H35.48c.1-.94.49-1.62,1.51-1.74V8.42A1.6,1.6,0,0,1,35.52,7c0-.34,0-.28-.33-.28H3c-.15,0-.21,0-.23.2A1.61,1.61,0,0,1,1.3,8.43v7.51C2.33,16.07,2.71,16.74,2.81,17.68Z"/><path d="M34.77,3.34a2.77,2.77,0,0,1,.65-.22.67.67,0,0,1,.71.79,1.39,1.39,0,0,1-.47.87,6.53,6.53,0,0,1-.71.59.26.26,0,0,1-.23,0,3.16,3.16,0,0,1-1-1A1.52,1.52,0,0,1,33.54,4a.69.69,0,0,1,.32-.77.77.77,0,0,1,.85.09S34.79,3.35,34.77,3.34Z"/><path d="M3.39,3.34A4.18,4.18,0,0,1,4,3.12a.68.68,0,0,1,.74.82,1.55,1.55,0,0,1-.49.87c-.21.2-.45.38-.68.56a.27.27,0,0,1-.23,0,3,3,0,0,1-1-1A1.3,1.3,0,0,1,2.15,4a.67.67,0,0,1,.31-.75.74.74,0,0,1,.84.06Z"/><path d="M12,19.75a.39.39,0,0,1,.1-.08.71.71,0,0,1,.81-.06.67.67,0,0,1,.23.77,1.94,1.94,0,0,1-.74.95c-.41.33-.42.34-.83,0A3.59,3.59,0,0,1,11,20.8a1.59,1.59,0,0,1-.24-.51.59.59,0,0,1,.27-.68.67.67,0,0,1,.74,0Z"/><path d="M9.1,19.74a2.53,2.53,0,0,1,.36-.19.62.62,0,0,1,.82.76,1.11,1.11,0,0,1-.26.52,6.49,6.49,0,0,1-.78.7.26.26,0,0,1-.24,0,10.46,10.46,0,0,1-.84-.79A1,1,0,0,1,8,20.3a.62.62,0,0,1,.29-.71.72.72,0,0,1,.78.08Z"/><path d="M31.93,19.75l.1-.08a.71.71,0,0,1,.81-.06.65.65,0,0,1,.23.77,1.88,1.88,0,0,1-.74.95c-.41.33-.42.34-.82,0A3.2,3.2,0,0,1,31,20.8a1.38,1.38,0,0,1-.23-.51.58.58,0,0,1,.26-.68.66.66,0,0,1,.74,0Z"/><path d="M29.07,19.75l.14-.11a.74.74,0,0,1,.78,0,.66.66,0,0,1,.24.74,1.66,1.66,0,0,1-.66.9c-.58.46-.43.46-1,0a2.68,2.68,0,0,1-.54-.62.68.68,0,1,1,1.05-.87Z"/><path d="M26.22,19.75l.07-.06a.72.72,0,0,1,.84-.08.68.68,0,0,1,.23.81,2,2,0,0,1-.73.91c-.41.33-.41.33-.82,0a2.1,2.1,0,0,1-.73-.91.67.67,0,0,1,.22-.81.7.7,0,0,1,.84.07Z"/><path d="M23.34,19.73a2.07,2.07,0,0,1,.41-.19.62.62,0,0,1,.77.82,1.74,1.74,0,0,1-.69.93c-.53.4-.4.41-.93,0a1.84,1.84,0,0,1-.69-.91.67.67,0,0,1,.25-.77.7.7,0,0,1,.81.06Z"/><path d="M14.83,19.75l.09-.07a.65.65,0,0,1,1.05.73,2.08,2.08,0,0,1-.79,1c-.36.27-.36.28-.71,0a4.85,4.85,0,0,1-.52-.49,1.07,1.07,0,0,1-.19-.28.68.68,0,0,1,1.07-.85Z"/><path d="M6.27,19.75l.07-.05a.69.69,0,0,1,.85-.08.67.67,0,0,1,.21.82,1.79,1.79,0,0,1-.61.8c-.6.47-.45.47-1,0a1.79,1.79,0,0,1-.61-.8.69.69,0,0,1,.21-.81.71.71,0,0,1,.84.06Z"/><path d="M3.39,19.73a3.44,3.44,0,0,1,.39-.19.63.63,0,0,1,.79.82,1.68,1.68,0,0,1-.68.91c-.55.43-.41.43-1,0a1.82,1.82,0,0,1-.67-.9.66.66,0,0,1,.24-.77.7.7,0,0,1,.81.06Z"/><path d="M34.78,19.75l.09-.07a.7.7,0,0,1,.82-.07.63.63,0,0,1,.22.79,1.84,1.84,0,0,1-.43.66c-.78.7-.62.7-1.42,0a1.21,1.21,0,0,1-.21-.24,2.49,2.49,0,0,1-.22-.43.65.65,0,0,1,.23-.77.69.69,0,0,1,.82.05Z"/><path d="M6.38,3.16h.79c-.46.18-.22.54-.31.83h1c.11-.41.05-.67-.22-.82h.76c-.22.06-.24.24-.24.43v1c0,.19,0,.38.24.45H7.64c.41-.22.18-.59.26-.91h-1c.1.31-.16.69.27.91H6.38c.21-.07.23-.25.24-.43,0-.33,0-.66,0-1C6.61,3.41,6.59,3.24,6.38,3.16Z"/><path d="M27.64,3.19a7.47,7.47,0,0,1,1.16,0,1,1,0,0,1,.53,1.56A.83.83,0,0,1,28.7,5a9.59,9.59,0,0,1-1.07,0c.2,0,.24-.21.25-.37V3.55C27.88,3.38,27.83,3.23,27.64,3.19Zm.51,0c0,.5,0,1,0,1.49A.4.4,0,0,0,28.4,5,.56.56,0,0,0,29,4.77a1.07,1.07,0,0,0,.08-1.17A.82.82,0,0,0,28.15,3.22Z"/><path d="M17,19.6a.62.62,0,0,1,.61.24.54.54,0,0,1,0,.62,8,8,0,0,1-.56.6,2.13,2.13,0,0,0-.22.21c.28,0,.56.11.84-.12l-.07.33H16.47l.12-.14c.23-.29.48-.56.68-.86a1,1,0,0,0,.11-.48C17.39,19.79,17.25,19.67,17,19.6Z"/><path d="M14.58,3.16h.75c-.24.09-.21.25-.13.43.15.35.3.69.42,1,0,.11,0,.25-.08.38h-.07c-.17-.44-.33-.88-.51-1.31C14.88,3.51,14.85,3.25,14.58,3.16Z"/><path d="M21.24,20l.24-.42h0V21l.22,0c0,.21-.14,0-.17.09h-.06l.14.43h-.6c.29-.09.25-.27.24-.46h-.55c-.06,0-.15,0,0-.09l.6.07c0-.27,0-.49,0-.72A1.28,1.28,0,0,0,21.24,20Z"/><path d="M19.53,21.48c0-.08.15-.18.15-.28,0-.44,0-.88,0-1.34l-.22,0,.46-.19c0,.5,0,1,0,1.47,0,.17,0,.3.21.36Z"/><path d="M17.73,3.16l.36,0v1.1c0,.14,0,.28,0,.42s.06.25.09.37h-.45A2.62,2.62,0,0,0,17.73,3.16Z"/><path d="M10.29,5.52H9.82a2.3,2.3,0,0,0,0-1.71l.56.06a.74.74,0,0,0-.17.74c0,.2,0,.39,0,.58A1.39,1.39,0,0,0,10.29,5.52Z"/><path d="M11.85,3.88a.71.71,0,0,0-.17.73c0,.2,0,.38,0,.57a1.33,1.33,0,0,0,.1.34H11.3a2.3,2.3,0,0,0,0-1.71Z"/><path d="M18.9,3.86a.41.41,0,0,1,.54.4h-.77c-.06.5.2.75.64.65a.57.57,0,0,1-.64,0,.6.6,0,0,1-.26-.65.54.54,0,0,1,.5-.43l-.28.3.05,0h.54A.31.31,0,0,0,18.9,3.86Z"/><path d="M24.49,3.86a.42.42,0,0,1,.55.4h-.78c-.06.5.2.75.64.65a.57.57,0,0,1-.64,0A.6.6,0,0,1,24,4.29a.54.54,0,0,1,.5-.43l-.27.3,0,0h.53C24.82,4,24.7,3.88,24.49,3.86Z"/><path d="M18.53,21.46a1.65,1.65,0,0,0,0-1.83.8.8,0,0,1,.22.13,1.21,1.21,0,0,1,0,1.58A.72.72,0,0,1,18.53,21.46Z"/><path d="M18.37,19.63a1.63,1.63,0,0,0,0,1.83.63.63,0,0,1-.2-.1,1.21,1.21,0,0,1,0-1.63A.64.64,0,0,1,18.37,19.63Z"/><path d="M21.16,3.84l.25-.33,0,.31.27,0v0h-.28c.06.38-.12.78.14,1.13-.28,0-.35,0-.35-.33s0-.44,0-.66A1.16,1.16,0,0,0,21.16,3.84Z"/><path d="M26,5V4.79l.21.15a.22.22,0,0,0,.32-.05.21.21,0,0,0-.09-.31c-.08-.06-.18-.1-.27-.16a.29.29,0,0,1,0-.54c0,.08-.06.18,0,.24a.44.44,0,0,0,.21.17c.3.15.39.27.35.46S26.5,5,26.16,5Z"/><path d="M13.14,5.31a.7.7,0,0,0,0-.63c-.13-.27-.24-.56-.35-.84h.38a1.2,1.2,0,0,0,0,.33,5.31,5.31,0,0,0,.23.55.14.14,0,0,1,0,.06l-.26.52Z"/><path d="M31.36,5.31a.73.73,0,0,0,0-.63c-.13-.27-.24-.56-.35-.84h.38a1.22,1.22,0,0,0,0,.33,5.38,5.38,0,0,0,.24.55.07.07,0,0,1,0,.06c-.08.17-.17.35-.26.52Z"/><path d="M23,5h-.48a1,1,0,0,0,0-1.12l.37-.05c0,.1,0,.2,0,.3s0,.38,0,.57A1.18,1.18,0,0,0,23,5Z"/><path d="M19.68,3.88l.35,0c0,.1,0,.21,0,.31s0,.33,0,.49a3,3,0,0,0,.09.38h-.47A1,1,0,0,0,19.68,3.88Z"/><path d="M23.76,5h-.47c.27-.24.21-1-.08-1.16.32,0,.45.08.45.39,0,.14,0,.29,0,.42S23.73,4.89,23.76,5Z"/><path d="M20.92,5h-.46c.27-.24.21-1-.09-1.16.32,0,.45.08.45.39a2.91,2.91,0,0,0,0,.42A2,2,0,0,0,20.92,5Z"/><path d="M10.42,5a.56.56,0,0,0,.43-.6.55.55,0,0,0-.42-.57.56.56,0,0,1,.58.24.65.65,0,0,1,0,.67A.55.55,0,0,1,10.42,5Z"/><path d="M11.9,3.84c.45,0,.68.2.68.58a.57.57,0,0,1-.64.59.57.57,0,0,0,.39-.62A.53.53,0,0,0,11.9,3.84Z"/><path d="M30.31,3.88c.25,0,.32.07.32.31s0,.36,0,.54,0,.25.25.19c-.24.2-.37,0-.51,0a1.7,1.7,0,0,0-.07-1Z"/><path d="M17.09,3.88c.25,0,.32.07.33.31v.54c0,.14,0,.25.25.18-.24.21-.37,0-.5,0a1.63,1.63,0,0,0-.08-1Z"/><path d="M9.17,3.88c.25,0,.32.07.33.31v.54c0,.14,0,.25.25.18-.24.21-.37,0-.51,0a1.7,1.7,0,0,0-.07-1Z"/><path d="M22.32,5h-.5a1,1,0,0,0,0-1.14l.32,0C22.26,4.23,22.05,4.65,22.32,5Z"/><path d="M9,5c-.21,0-.33-.07-.35-.23s.12-.29.44-.34a.8.8,0,0,0-.18.27A.93.93,0,0,0,9,5Z"/><path d="M30.21,4.44c-.26.25-.28.37-.07.56-.22,0-.36,0-.38-.21S29.89,4.48,30.21,4.44Z"/><path d="M16.9,5c-.22,0-.34-.07-.36-.24s.12-.28.42-.33a1.53,1.53,0,0,0-.16.34C16.78,4.84,16.86,4.93,16.9,5Z"/><path d="M25.36,3.8l.28-.32c-.08,0-.13,0-.14,0s-.11-.13-.11-.19.12-.14.15-.12a.28.28,0,0,1,.15.17A.43.43,0,0,1,25.36,3.8Z"/><path d="M16.88,19.65a.45.45,0,0,0,.05.77.31.31,0,0,1-.38-.27A.42.42,0,0,1,16.88,19.65Z"/><path d="M15.94,3.16h.44L16,3.88C16,3.65,16.26,3.4,15.94,3.16Z"/><path d="M9.17,3.87a.26.26,0,0,0-.31.18.14.14,0,0,1-.11.07S8.67,4.06,8.67,4s0-.11.07-.11a3.13,3.13,0,0,1,.43,0Z"/><path d="M30.31,3.87a.26.26,0,0,0-.31.18.16.16,0,0,1-.12.07s-.07-.06-.07-.09,0-.11.07-.11a3,3,0,0,1,.43,0Z"/><path d="M17.09,3.87a.26.26,0,0,0-.31.18.14.14,0,0,1-.11.07s-.08-.06-.08-.09,0-.11.07-.11a3.13,3.13,0,0,1,.43,0Z"/><path d="M13.83,3.85l-.22.37,0-.37Z"/><path d="M32.05,3.84l-.22.38,0-.38Z"/><path d="M22.08,3.07c.06.08.12.12.12.17s-.06.08-.09.12S22,3.3,22,3.25,22,3.15,22.08,3.07Z"/><path d="M31.35,5.3c0,.07-.07.17-.13.2s-.16,0-.24,0V5.42l.37-.11Z"/><path d="M13.14,5.3c-.05.07-.08.17-.14.2s-.15,0-.23,0V5.42l.37-.11Z"/></g><path class="cls-4" d="M36,18.17H2.75a2,2,0,0,0-.33-1.25,1.29,1.29,0,0,0-1.18-.47V8.32a1.34,1.34,0,0,0,1.17-.48,2,2,0,0,0,.33-1.26H36a1.87,1.87,0,0,0,.32,1.24,1.27,1.27,0,0,0,1.17.49v8.13a1.3,1.3,0,0,0-1.17.48A1.87,1.87,0,0,0,36,18.17ZM3,17.88H35.68a1.68,1.68,0,0,1,1.51-1.75V8.62a1.6,1.6,0,0,1-1.47-1.47c0-.34,0-.28-.33-.28H3.2c-.15,0-.21,0-.23.2A1.61,1.61,0,0,1,1.5,8.63v7.5C2.53,16.26,2.91,16.94,3,17.88Z"/><path class="cls-4" d="M35,3.54a2.87,2.87,0,0,1,.64-.22.67.67,0,0,1,.72.78,1.47,1.47,0,0,1-.47.88,5.79,5.79,0,0,1-.72.59.22.22,0,0,1-.22,0,2.93,2.93,0,0,1-1-1,1.86,1.86,0,0,1-.19-.46.7.7,0,0,1,.33-.77.78.78,0,0,1,.85.08S35,3.54,35,3.54Z"/><path class="cls-4" d="M3.59,3.54a2.52,2.52,0,0,1,.61-.22.68.68,0,0,1,.74.82A1.55,1.55,0,0,1,4.45,5a7.65,7.65,0,0,1-.69.56.25.25,0,0,1-.22,0,2.93,2.93,0,0,1-1-1,1.29,1.29,0,0,1-.19-.47.67.67,0,0,1,.32-.74.74.74,0,0,1,.84.06Z"/><path class="cls-4" d="M12.18,20l.1-.09a.71.71,0,0,1,.81-.05.67.67,0,0,1,.23.77,2,2,0,0,1-.74,1c-.41.33-.42.33-.83,0a2.79,2.79,0,0,1-.51-.52,1.59,1.59,0,0,1-.24-.51.61.61,0,0,1,.27-.69.68.68,0,0,1,.74,0Z"/><path class="cls-4" d="M9.3,19.94a2.09,2.09,0,0,1,.36-.19.62.62,0,0,1,.82.76,1.16,1.16,0,0,1-.26.52,6.49,6.49,0,0,1-.78.7.26.26,0,0,1-.24,0c-.29-.25-.58-.51-.85-.79a1.09,1.09,0,0,1-.2-.45.61.61,0,0,1,.29-.71.71.71,0,0,1,.77.08A.35.35,0,0,1,9.3,19.94Z"/><path class="cls-4" d="M32.13,20l.1-.09a.71.71,0,0,1,.81-.05.67.67,0,0,1,.23.77,2,2,0,0,1-.74,1c-.41.33-.42.33-.83,0a3.59,3.59,0,0,1-.51-.52,1.46,1.46,0,0,1-.23-.51.59.59,0,0,1,.26-.69.68.68,0,0,1,.74,0Z"/><path class="cls-4" d="M29.27,20l.14-.11a.7.7,0,0,1,.78,0,.65.65,0,0,1,.24.73,1.68,1.68,0,0,1-.66.91c-.58.46-.43.46-1,0a2.85,2.85,0,0,1-.53-.62.71.71,0,0,1,.1-1A.72.72,0,0,1,29.27,20Z"/><path class="cls-4" d="M26.42,20l.07-.06a.72.72,0,0,1,.84-.08.67.67,0,0,1,.23.81,2.1,2.1,0,0,1-.73.91c-.41.33-.41.33-.82,0a2.1,2.1,0,0,1-.73-.91.7.7,0,0,1,.21-.82.75.75,0,0,1,.85.07Z"/><path class="cls-4" d="M23.54,19.93a3,3,0,0,1,.41-.2.63.63,0,0,1,.77.83,1.83,1.83,0,0,1-.69.93c-.53.4-.4.41-.93,0a1.82,1.82,0,0,1-.69-.92.65.65,0,0,1,.24-.76.7.7,0,0,1,.81.06Z"/><path class="cls-4" d="M15,20l.09-.08a.71.71,0,0,1,.82-.06.69.69,0,0,1,.23.8,2.06,2.06,0,0,1-.79,1c-.36.28-.36.28-.71,0a4.85,4.85,0,0,1-.52-.49A1.07,1.07,0,0,1,14,20.8.68.68,0,1,1,15,20Z"/><path class="cls-4" d="M6.47,20l.06-.06a.66.66,0,0,1,1.07.75,1.76,1.76,0,0,1-.61.79c-.6.48-.45.48-1.06,0a1.77,1.77,0,0,1-.6-.8.66.66,0,0,1,.21-.81.7.7,0,0,1,.84.06Z"/><path class="cls-4" d="M3.59,19.93c.15-.07.26-.15.38-.19a.63.63,0,0,1,.8.81,1.75,1.75,0,0,1-.68.92c-.55.43-.41.43-1,0a1.75,1.75,0,0,1-.67-.89.66.66,0,0,1,.24-.77.7.7,0,0,1,.81.06Z"/><path class="cls-4" d="M35,20l.09-.07a.71.71,0,0,1,.83-.07.63.63,0,0,1,.22.79,1.84,1.84,0,0,1-.43.66c-.78.7-.62.69-1.42,0a1.21,1.21,0,0,1-.21-.24,2.49,2.49,0,0,1-.22-.43.68.68,0,0,1,.22-.78.73.73,0,0,1,.83.06Z"/><path class="cls-4" d="M6.58,3.36h.78c-.46.18-.21.54-.3.83h1c.11-.41,0-.68-.22-.82h.76c-.22.06-.24.24-.24.43v1c0,.2,0,.38.24.46H7.84c.41-.22.18-.59.25-.91h-1c.1.31-.17.69.27.91H6.58c.21-.08.23-.25.23-.43,0-.33,0-.66,0-1S6.79,3.44,6.58,3.36Z"/><path class="cls-4" d="M27.83,3.39A7.59,7.59,0,0,1,29,3.4,1,1,0,0,1,29.53,5a.84.84,0,0,1-.63.25,9.59,9.59,0,0,1-1.07,0,.34.34,0,0,0,.24-.38c0-.35,0-.71,0-1.07C28.07,3.58,28,3.43,27.83,3.39Zm.52,0c0,.49,0,1,0,1.49a.4.4,0,0,0,.24.25A.58.58,0,0,0,29.21,5a1.07,1.07,0,0,0,.07-1.17A.81.81,0,0,0,28.35,3.42Z"/><path class="cls-4" d="M17.16,19.8a.57.57,0,0,1,.6.24.52.52,0,0,1,0,.62,5.24,5.24,0,0,1-.56.6c-.06.07-.14.12-.21.21.28,0,.56.11.84-.12l-.08.33H16.67l.12-.14c.23-.29.48-.56.68-.86a1,1,0,0,0,.11-.48C17.59,20,17.44,19.87,17.16,19.8Z"/><path class="cls-4" d="M14.77,3.36h.76c-.24.09-.21.25-.13.43.14.35.3.69.42,1,0,.1-.05.25-.09.38h-.06c-.17-.43-.33-.87-.51-1.3C15.08,3.7,15.05,3.45,14.77,3.36Z"/><path class="cls-4" d="M21.44,20.21l.23-.41h0v1.38l.22,0c0,.2-.14,0-.17.09h-.06l.14.43h-.6c.29-.09.24-.27.23-.46h-.54c-.06,0-.15,0-.05-.09l.6.07c0-.27,0-.5,0-.72A1.37,1.37,0,0,0,21.44,20.21Z"/><path class="cls-4" d="M19.73,21.68c.05-.08.15-.18.15-.28,0-.44,0-.88,0-1.34l-.22,0,.46-.19c0,.5,0,1,0,1.47a.33.33,0,0,0,.21.36Z"/><path class="cls-4" d="M17.93,3.36l.36,0v1.1a2.94,2.94,0,0,0,0,.42,2.22,2.22,0,0,0,.09.37h-.45A2.62,2.62,0,0,0,17.93,3.36Z"/><path class="cls-4" d="M10.49,5.72H10A2.3,2.3,0,0,0,10,4l.55.06a.79.79,0,0,0-.17.74c0,.2,0,.39,0,.58A1.39,1.39,0,0,0,10.49,5.72Z"/><path class="cls-4" d="M12.05,4.08a.71.71,0,0,0-.17.73c0,.2,0,.38,0,.57a2.14,2.14,0,0,0,.09.34h-.47a2.25,2.25,0,0,0,0-1.71Z"/><path class="cls-4" d="M19.1,4.06a.41.41,0,0,1,.54.4h-.77c-.06.49.2.75.64.64a.57.57,0,0,1-.65,0,.59.59,0,0,1-.25-.64.54.54,0,0,1,.5-.43l-.28.3.05,0h.53A.3.3,0,0,0,19.1,4.06Z"/><path class="cls-4" d="M24.69,4.06a.41.41,0,0,1,.54.4h-.77c-.06.49.2.75.64.64a.55.55,0,0,1-.64,0,.58.58,0,0,1-.26-.64.54.54,0,0,1,.5-.43l-.28.3,0,0H25C25,4.17,24.9,4.08,24.69,4.06Z"/><path class="cls-4" d="M18.73,21.66a1.66,1.66,0,0,0,0-1.84A1.18,1.18,0,0,1,19,20a1.23,1.23,0,0,1,0,1.58A.72.72,0,0,1,18.73,21.66Z"/><path class="cls-4" d="M18.57,19.83a1.65,1.65,0,0,0,0,1.83c-.06,0-.14-.05-.19-.1a1.21,1.21,0,0,1,0-1.63A.52.52,0,0,1,18.57,19.83Z"/><path class="cls-4" d="M21.35,4l.26-.32,0,.31.27,0v0l-.28,0c.05.38-.12.78.14,1.13-.28,0-.35,0-.36-.34s0-.43,0-.65A.77.77,0,0,0,21.35,4Z"/><path class="cls-4" d="M26.15,5.22V5a1.45,1.45,0,0,0,.21.15.22.22,0,1,0,.23-.37l-.27-.15a.29.29,0,0,1,0-.54c0,.08-.06.18,0,.24a.48.48,0,0,0,.2.17c.3.15.4.27.36.46s-.19.27-.53.27Z"/><path class="cls-4" d="M13.34,5.51a.7.7,0,0,0,0-.63c-.13-.27-.24-.56-.35-.84h.38a.91.91,0,0,0,0,.33,5.31,5.31,0,0,0,.23.55.14.14,0,0,1,0,.06l-.26.52Z"/><path class="cls-4" d="M31.56,5.51a.7.7,0,0,0,0-.63c-.12-.27-.23-.56-.35-.84h.39a1.22,1.22,0,0,0,0,.33,5.38,5.38,0,0,0,.24.55.07.07,0,0,1,0,.06c-.08.17-.17.35-.26.52Z"/><path class="cls-4" d="M23.18,5.21h-.47a1,1,0,0,0,0-1.13l.37,0c0,.11,0,.21,0,.31a5.42,5.42,0,0,0,0,.57A1.27,1.27,0,0,0,23.18,5.21Z"/><path class="cls-4" d="M19.87,4.08l.36,0c0,.1,0,.21,0,.31a4,4,0,0,0,0,.49,1.89,1.89,0,0,0,.09.38h-.47A1,1,0,0,0,19.87,4.08Z"/><path class="cls-4" d="M24,5.21h-.47c.27-.24.21-1-.09-1.16.33,0,.46.07.46.39,0,.14,0,.28,0,.42A2.3,2.3,0,0,0,24,5.21Z"/><path class="cls-4" d="M21.12,5.21h-.47c.27-.24.22-1-.08-1.16.32,0,.45.07.45.39,0,.14,0,.29,0,.42S21.09,5.09,21.12,5.21Z"/><path class="cls-4" d="M10.62,5.21a.56.56,0,0,0,.43-.6A.54.54,0,0,0,10.63,4a.54.54,0,0,1,.58.24.67.67,0,0,1,0,.67A.55.55,0,0,1,10.62,5.21Z"/><path class="cls-4" d="M12.1,4c.45,0,.68.2.67.58a.56.56,0,0,1-.64.59.57.57,0,0,0,.4-.62A.52.52,0,0,0,12.1,4Z"/><path class="cls-4" d="M30.51,4.07c.25,0,.32.08.32.31s0,.37,0,.55,0,.25.24.18c-.23.21-.36,0-.5,0a1.7,1.7,0,0,0-.07-1Z"/><path class="cls-4" d="M17.29,4.07c.25,0,.32.08.33.31v.55c0,.14,0,.25.25.18-.24.21-.37,0-.51-.05a1.68,1.68,0,0,0-.07-1Z"/><path class="cls-4" d="M9.37,4.07c.25,0,.32.08.32.31s0,.37,0,.55,0,.25.25.18c-.24.21-.37,0-.51-.05a1.68,1.68,0,0,0-.07-1Z"/><path class="cls-4" d="M22.52,5.22H22a1,1,0,0,0,0-1.14l.32,0C22.46,4.42,22.25,4.85,22.52,5.22Z"/><path class="cls-4" d="M9.16,5.21c-.2,0-.32-.07-.34-.23s.12-.29.44-.34a.8.8,0,0,0-.18.27C9.06,5,9.13,5.11,9.16,5.21Z"/><path class="cls-4" d="M30.41,4.64c-.26.25-.28.37-.07.56-.22,0-.36,0-.38-.21S30.08,4.68,30.41,4.64Z"/><path class="cls-4" d="M17.1,5.21c-.22,0-.34-.07-.36-.24s.12-.28.42-.33A1.26,1.26,0,0,0,17,5C17,5,17.06,5.13,17.1,5.21Z"/><path class="cls-4" d="M25.56,4l.27-.33c-.07,0-.12,0-.13,0s-.12-.13-.11-.19.12-.14.15-.12a.29.29,0,0,1,.15.16A.43.43,0,0,1,25.56,4Z"/><path class="cls-4" d="M17.08,19.85a.45.45,0,0,0,.05.76.31.31,0,0,1-.38-.26A.42.42,0,0,1,17.08,19.85Z"/><path class="cls-4" d="M16.14,3.36h.44l-.42.71C16.16,3.85,16.46,3.6,16.14,3.36Z"/><path class="cls-4" d="M9.37,4.07a.26.26,0,0,0-.31.18s-.08.06-.12.06-.07,0-.07-.08,0-.11.07-.11.28,0,.43,0Z"/><path class="cls-4" d="M30.51,4.07a.26.26,0,0,0-.31.18s-.08.06-.12.06-.07,0-.07-.08,0-.11.07-.11.28,0,.43,0Z"/><path class="cls-4" d="M17.29,4.07a.26.26,0,0,0-.31.18.14.14,0,0,1-.11.06s-.08,0-.08-.08,0-.11.07-.11.29,0,.43,0Z"/><path class="cls-4" d="M14,4l-.22.38,0-.38Z"/><path class="cls-4" d="M32.25,4,32,4.42,32,4Z"/><path class="cls-4" d="M22.28,3.26a.61.61,0,0,1,.12.18s-.06.08-.09.12-.12-.07-.13-.11S22.23,3.35,22.28,3.26Z"/><path class="cls-4" d="M31.55,5.5c0,.07-.07.17-.13.2s-.16,0-.24,0V5.62l.37-.11Z"/><path class="cls-4" d="M13.34,5.5c-.05.07-.08.17-.14.2s-.15,0-.23,0V5.62l.37-.11Z"/></g></g></svg>