<svg xmlns="http://www.w3.org/2000/svg" viewBox="0 0 38.55 24.66"><defs><style>.cls-1{isolation:isolate;}.cls-2{opacity:0.15;}.cls-2,.cls-3{mix-blend-mode:multiply;}.cls-4{fill:#fff;}</style></defs><title>convert-CUSTOMIZE-SVG-03</title><g class="cls-1"><g id="Layer_1" data-name="Layer 1"><g class="cls-2"><path d="M6.27,17.67c-.2,0-.38-.15-.65-.1a1.13,1.13,0,0,1-1.35-1,6.27,6.27,0,0,1-.07-.88,1.16,1.16,0,0,1-1.56-.9,10.79,10.79,0,0,1-.07-1.16,1.13,1.13,0,0,1-1-.91,2.42,2.42,0,0,1,0-1.36A.46.46,0,0,1,1.85,11c.11,0,.17-.21.27-.34a1.15,1.15,0,0,1-.87-.87,2.56,2.56,0,0,1,0-1.4c.05-.16.1-.34.32-.35,0,0,.06,0,.08-.06l.42-.51a2.65,2.65,0,0,1-.11-1.32c0-.18.07-.43.19-.5s.32-.37.52-.51A.73.73,0,0,1,3.2,5C3.45,5,3.71,5,4,5c.1,0,.28.06.3.11,0,.25.21.28.42.29a1.47,1.47,0,0,1,.06-.14c0-.09.08-.23.14-.25.25-.07.31-.31.48-.45A.73.73,0,0,1,6,4.4a3.56,3.56,0,0,0,.73,0c.25,0,.29,0,.4.35A1.17,1.17,0,0,1,8,5.27a.18.18,0,0,0,.13.08,5.25,5.25,0,0,0,.56,0,3.87,3.87,0,0,0,.48,0c.25,0,.32,0,.4.23,0,0,0,.09,0,.1s.27.07.39.13.25.12.38,0a.23.23,0,0,1,.15-.07.33.33,0,0,0,.34-.29c0-.06.18-.1.28-.11a3.54,3.54,0,0,1,.86,0c.29,0,.41-.14.58-.29a3.91,3.91,0,0,1,.54-.28.34.34,0,0,0,.15-.14c.06-.2.18-.24.37-.23a2.81,2.81,0,0,0,.71,0,.78.78,0,0,1,.79.37c.06.07.16.11.22.19a4.38,4.38,0,0,1,.32.45c.17,0,.34,0,.39-.29,0-.06.19-.1.3-.11S16.8,5,17,5a.78.78,0,0,1,.81.37c.05.07.14.11.2.18a.75.75,0,0,1,.22.29A2,2,0,0,1,18.32,7a3.59,3.59,0,0,0-.08.53l.41.49A.15.15,0,0,0,18.7,8c.29,0,.33.26.37.47a1.74,1.74,0,0,1,0,1,2.83,2.83,0,0,0,0,.29,1.23,1.23,0,0,1-.89.9c.13.13.15.34.38.39a.48.48,0,0,1,.19.29,1.8,1.8,0,0,1,0,1.1,2.83,2.83,0,0,0,0,.29,1.17,1.17,0,0,1-1.08.92c0,.07,0,.13,0,.19a4.74,4.74,0,0,1-.09,1.07,1.12,1.12,0,0,1-1.52.8c0,.27-.06.55-.06.82a1.19,1.19,0,0,1-1,1c-.17,0-.35-.06-.52,0a4.84,4.84,0,0,0-.51.14c0,.26,0,.51-.06.74a1.17,1.17,0,0,1-1.49,1,.26.26,0,0,0-.15,0c-.24,0-.47.08-.7.09s-.2.05-.15.18a.4.4,0,0,1-.11.43,1.27,1.27,0,0,1-1.5.34.21.21,0,0,0-.11,0,1.13,1.13,0,0,1-1.45-.74c-.11-.3-.2-.33-.51-.27a1.14,1.14,0,0,1-1.38-1.11A2.85,2.85,0,0,0,6.27,17.67Zm9.21-5.14-.1-.21a.82.82,0,0,1,0-.73,1.26,1.26,0,0,1,.91-.75.19.19,0,0,0,.12-.11s0-.11-.06-.15a4,4,0,0,1-.4-.32.38.38,0,0,1-.12-.29.74.74,0,0,0-.12-.55.91.91,0,0,1,.08-1l.13-.18c-.38-.2-.8-.33-.88-.83a1.11,1.11,0,0,1-1,.08s-.06,0-.08,0a1.19,1.19,0,0,1-.87.09,1.18,1.18,0,0,1-1.39.9,9.22,9.22,0,0,0-.07,1,1.16,1.16,0,0,1-1.47,1.08.19.19,0,0,0-.15,0,1.26,1.26,0,0,1-1.52-.39.63.63,0,0,1-.1-.31c0-.11,0-.23,0-.32a1.08,1.08,0,0,1-.09-1.07,1.22,1.22,0,0,1-1.09-.91,1.26,1.26,0,0,1-.38,0,3.24,3.24,0,0,0-1-.07,2.65,2.65,0,0,1-.54-.13c-.05.34-.14.42-.87.81,0,0,0,0,0,0a1,1,0,0,1,.12,1.25c-.06.1,0,.26-.06.39a.93.93,0,0,1-.13.34,3,3,0,0,1-.38.3s-.09.11-.08.16.09.1.14.11a1.13,1.13,0,0,1,.81,1.65l0,.09s.11.06.12.1c0,.29.33.28.5.41a2.41,2.41,0,0,1,.58.57.86.86,0,0,1,.06.8h.12c.34-.06.34,0,.47.25a.25.25,0,0,0,.16.1,1.25,1.25,0,0,1,1,1.15,3.24,3.24,0,0,1,0,.35,6.15,6.15,0,0,0,.65-.05.29.29,0,0,1,.37.22.23.23,0,0,0,.13.14,1.12,1.12,0,0,1,.77.53c.13.23.3.22.51.19a2.8,2.8,0,0,1,.41,0,1.29,1.29,0,0,1,1-.73c.12-.38.13-.38.52-.32a4.68,4.68,0,0,0,.53,0,1.22,1.22,0,0,1,1.05-1.51c0-.41.3-.39.6-.29a1.21,1.21,0,0,1,.93-1.5.2.2,0,0,0,.12-.1C15.35,12.77,15.4,12.66,15.48,12.53ZM11.39,18c0,.64.55,1,1.23.73a.46.46,0,0,0,.27-.22.45.45,0,0,0-.16-.47C12.53,18.57,11.91,18.71,11.39,18Zm3.44-1.77c-.42.59-.72.58-1.36-.05a.83.83,0,0,0,1.18.75C15,16.85,15.11,16.55,14.83,16.25ZM13,6.16c.06.66.53,1,1.2.75a.53.53,0,0,0,.3-.22.46.46,0,0,0-.14-.48C14.09,6.82,13.46,6.74,13,6.16ZM10.46,9.31c-.31.59-.92.53-1.35-.05a.4.4,0,0,0,0,.11.84.84,0,0,0,1.18.64C10.67,9.9,10.74,9.61,10.46,9.31Zm-1.09,9.8c-.25.36-.22.65.22.72a2,2,0,0,0,.35.05.78.78,0,0,0,.78-.8C10.29,19.69,9.64,19.7,9.37,19.11ZM5.89,6.22c-.29.31-.22.59.15.7l.27,0a.77.77,0,0,0,.92-.79C6.68,6.79,6.24,6.81,5.89,6.22Zm-.45,10c-.25.36-.22.66.22.72a1.74,1.74,0,0,0,.39.05.76.76,0,0,0,.74-.8C6.4,16.77,5.74,16.85,5.44,16.23Zm-1.7-7c-.42.59-1.05.69-1.37.08-.18.2-.21.51,0,.6C2.86,10.2,3.61,10.18,3.74,9.25Zm12.8,0a.85.85,0,0,0,1.25.75c.09,0,.22-.13.24-.21a.41.41,0,0,0-.13-.47C17.59,9.94,16.93,9.82,16.54,9.25Zm-12-2.53a.92.92,0,0,1-.7.51.62.62,0,0,1-.65-.42c-.29.34-.2.61.2.69l.08,0A.79.79,0,0,0,4.49,6.72ZM15.8,6.8a.76.76,0,0,0,.58.75A1.91,1.91,0,0,0,17,7.49c.11,0,.28-.09.31-.18a.43.43,0,0,0-.12-.49C16.74,7.4,16.43,7.39,15.8,6.8Zm-5.23.28c0,.24.07.4.27.49s.18.16.28.22a.6.6,0,0,0,.28.13,1,1,0,0,0,.35-.06c.39-.1.47-.39.19-.69C11.59,7.82,11,7.63,10.57,7.08Zm-.9.07A1,1,0,0,1,9,7.58a.63.63,0,0,1-.66-.43c-.28.34-.2.61.19.72a.84.84,0,0,0,.27,0,1.41,1.41,0,0,0,.41-.07s.06-.15.11-.21.09-.13.15-.14S9.67,7.31,9.67,7.15Zm6.68,3.93a.89.89,0,0,0-.65,1.34s.09.08.12.07a.14.14,0,0,0,.1-.12c0-.11,0-.22,0-.33a.67.67,0,0,1,.3-.66C16.28,11.34,16.29,11.22,16.35,11.08Zm-7.14-3a.87.87,0,0,0-.57,1.43c.15,0,.16-.12.14-.24,0-.35,0-.68.31-.9C9.15,8.34,9.16,8.22,9.21,8.09ZM10.68,6a.87.87,0,0,0-.58,1.42c.14,0,.17-.09.16-.22,0-.35-.06-.7.32-.93C10.63,6.19,10.64,6.07,10.68,6ZM4,11.1l-.07,0c.06.09.09.21.17.27a.57.57,0,0,1,.26.44c0,.16,0,.32,0,.48s.06.11.09.17.11-.05.13-.1A.86.86,0,0,0,4,11.1Zm8.56-4.66c.15,0,.17-.1.16-.22,0-.36-.06-.71.32-.94.06,0,.06-.16.09-.27A.89.89,0,0,0,12.56,6.44ZM11.48,16.88a.87.87,0,0,0-.58,1.41c.17,0,.17-.12.16-.25,0-.34-.05-.68.31-.9C11.44,17.11,11.44,17,11.48,16.88ZM4.18,9.6c.2-.32.35-.58.2-.89a.93.93,0,0,0-.72-.56.53.53,0,0,0,.14.29.59.59,0,0,1,.26.44c0,.15,0,.31,0,.46A.83.83,0,0,0,4.18,9.6ZM16.63,8.16l-.06-.05a1.1,1.1,0,0,0-.7.68c-.12.29.05.52.21.79a.88.88,0,0,0,.14-.17,1.69,1.69,0,0,0,0-.23c0-.31,0-.6.31-.78C16.59,8.37,16.6,8.24,16.63,8.16ZM4.46,5.62l-.07,0c.05.09.09.22.17.27a.59.59,0,0,1,.26.48c0,.15,0,.29,0,.44s.06.12.1.18S5,7,5,6.92A.86.86,0,0,0,4.46,5.62ZM7.11,5c.07.13.1.26.18.31a.6.6,0,0,1,.28.49,2.64,2.64,0,0,1,0,.4c0,.13,0,.21.15.21A.87.87,0,0,0,7.11,5Zm8.78.57c-.79.26-1,.93-.57,1.44.17,0,.14-.13.14-.25,0-.34-.05-.68.32-.89C15.84,5.85,15.84,5.73,15.89,5.59ZM7.14,16.31c.31-.09.38-.17.37-.42A1,1,0,0,0,6.68,15c.07.13.12.23.18.32a2,2,0,0,1,.25.41A2.38,2.38,0,0,1,7.14,16.31Zm7.63-1.91v-.13a.75.75,0,0,1,.33-.76c.06,0,.07-.17.1-.26l-.06,0a2.91,2.91,0,0,0-.3.17.89.89,0,0,0-.42.86C14.47,14.43,14.56,14.5,14.77,14.4Zm-9.27,0c.25.09.28.08.35-.16a.91.91,0,0,0-.81-1c.07.12.11.24.19.29a.61.61,0,0,1,.26.5C5.5,14.16,5.5,14.28,5.5,14.4Zm8.08.64a1,1,0,0,0-.81.81c0,.3.06.41.39.44,0,0,0-.08,0-.12,0-.33,0-.64.31-.84C13.52,15.29,13.53,15.16,13.58,15Zm2-.24,0,.06c.09.05.22.08.27.16.16.25.37.15.56.09s.23-.13.25-.22a.41.41,0,0,0-.15-.46C16.22,14.85,16.12,14.88,15.56,14.8ZM1.85,9.49l.1,0a1.08,1.08,0,0,1,.73-.84c-.15-.15-.3-.29-.48-.22a.59.59,0,0,0-.29.36A4.91,4.91,0,0,0,1.85,9.49Zm7.83,9c-.34-.31-.56-.32-.71,0a1,1,0,0,0-.05.85A1.16,1.16,0,0,1,9.68,18.47Zm5.59-2h.09a4,4,0,0,0-.07-.7c0-.14-.17-.32-.29-.34s-.31.1-.47.16v.06A1.1,1.1,0,0,1,15.27,16.43Zm-11.45-2c-.19.2-.24.53-.08.61a1.69,1.69,0,0,0,.5.14c.07,0,.15-.1.22-.15A.39.39,0,0,0,4.57,15a1,1,0,0,0,.17-.12l0-.05C4.32,14.91,4,14.86,3.82,14.42Zm14.23-1.95a.88.88,0,0,0,0-.73.54.54,0,0,0-.29-.32c-.17-.06-.33.07-.47.22A1.16,1.16,0,0,1,18.05,12.47Zm-7.14-3a.88.88,0,0,0,0-.71.63.63,0,0,0-.29-.33c-.18-.06-.33.07-.47.22A1.17,1.17,0,0,1,10.91,9.47Zm-8.75,3h.09A1.07,1.07,0,0,1,3,11.64c-.35-.35-.66-.3-.77.13A3.16,3.16,0,0,0,2.16,12.46Zm11,5.8h.09a3.71,3.71,0,0,0,0-.67c0-.15-.17-.35-.29-.38s-.32.1-.48.15v.07A1.06,1.06,0,0,1,13.17,18.26ZM3.33,14.6a2.67,2.67,0,0,1,.3-.49,2.32,2.32,0,0,1,.46-.35c-.29-.27-.49-.3-.65-.07A1.09,1.09,0,0,0,3.33,14.6Zm4.51,2.82c-.36-.35-.64-.3-.77.12a1.17,1.17,0,0,0,0,.78A1.11,1.11,0,0,1,7.84,17.42ZM17.59,8.6v.07a1.25,1.25,0,0,1,.78.83,2.14,2.14,0,0,0,0-.67.56.56,0,0,0-.29-.37C17.94,8.42,17.76,8.54,17.59,8.6Zm-1.43,5.11v.07a1.24,1.24,0,0,1,.78.84,2.27,2.27,0,0,0,0-.69c0-.14-.17-.34-.3-.37S16.33,13.66,16.16,13.71ZM3.43,6.17c-.26-.28-.49-.31-.65-.11A1,1,0,0,0,2.7,7,1.08,1.08,0,0,1,3.43,6.17Zm2.33,9.41a2.5,2.5,0,0,0-.24-.16.29.29,0,0,0-.37,0,1,1,0,0,0-.13,1C5.05,16,5.39,15.78,5.76,15.58ZM16.85,6.17a1.22,1.22,0,0,1,.76.83,1.85,1.85,0,0,0,0-.62c-.09-.5-.38-.58-.76-.25C16.86,6.13,16.86,6.14,16.85,6.17ZM6.19,5.55c-.08-.06-.14-.13-.21-.14a.6.6,0,0,0-.37,0,.73.73,0,0,0-.16.91C5.61,5.92,5.65,5.88,6.19,5.55Zm8.63.77h.07a2.16,2.16,0,0,0,0-.57.7.7,0,0,0-.29-.4c-.18-.08-.34.08-.51.21A1.14,1.14,0,0,1,14.82,6.32ZM7.52,18a2.28,2.28,0,0,0-.12.29c0,.14-.09.31.1.38a5.21,5.21,0,0,0,.63.18l0-.37C7.84,18.5,7.66,18.32,7.52,18ZM3.37,12.72a.67.67,0,0,1-.69-.44c-.17.21-.22.52-.08.6A.71.71,0,0,0,3,13C3.12,13,3.22,12.85,3.37,12.72ZM8.65,6.5c-.05,0-.09-.09-.13-.1s-.32-.13-.41-.08a.43.43,0,0,0-.17.48.89.89,0,0,1-.06.31,1.81,1.81,0,0,0,0,.23h.06A1.09,1.09,0,0,1,8.65,6.5Zm3,0a1.2,1.2,0,0,1,.78.84.63.63,0,0,0,0-.24,3,3,0,0,0-.06-.32,1.16,1.16,0,0,0-.17-.46c0-.05-.24,0-.37.06S11.69,6.45,11.62,6.5ZM10.28,19.07a.59.59,0,0,0,.12-.78.57.57,0,0,0-.67-.23C10,18.35,10.4,18.54,10.28,19.07Zm4.2-3.89a.58.58,0,0,0-.72.32.49.49,0,0,0,.16.65C13.81,15.66,14.22,15.47,14.48,15.18ZM17,12.72l0,0c.11.08.22.22.34.24a.74.74,0,0,0,.4-.15c.13-.09.06-.42-.11-.57A.61.61,0,0,1,17,12.72ZM11.6,6.08c-.41,0-.65.09-.75.37a.5.5,0,0,0,.17.62C10.91,6.58,11.33,6.39,11.6,6.08Zm4.64.68a.55.55,0,0,1,.12-.58l.42-.44a.59.59,0,0,0-.7.32A.55.55,0,0,0,16.24,6.76ZM3.59,12.23a.58.58,0,0,0-.56-1C3.29,11.51,3.7,11.71,3.59,12.23ZM12.39,17a.57.57,0,0,0-.71.28.54.54,0,0,0,.14.69C11.72,17.5,12.11,17.29,12.39,17ZM9.57,9.25a.51.51,0,0,1,.11-.58c.13-.16.28-.29.42-.44a.59.59,0,0,0-.69.28A.57.57,0,0,0,9.57,9.25Zm8-1a.6.6,0,0,0-.71.35.52.52,0,0,0,.18.66.52.52,0,0,1,.11-.56C17.24,8.54,17.39,8.39,17.53,8.24ZM5.79,15.17c.61.66.61.66.58,1a.57.57,0,0,0,.13-.7A.6.6,0,0,0,5.79,15.17Zm-1.07-.81a.56.56,0,0,0,.14-.72.59.59,0,0,0-.71-.28C4.42,13.65,4.83,13.85,4.72,14.36ZM4,6.77A.59.59,0,0,0,4.18,6a.58.58,0,0,0-.69-.25C3.75,6,4.16,6.24,4,6.77Zm12.64,5.45c-.11-.51.31-.71.58-1-.38,0-.62.07-.73.33A.55.55,0,0,0,16.68,12.22ZM6.78,6.16a.59.59,0,0,0,.13-.77.56.56,0,0,0-.67-.23C6.5,5.44,6.91,5.64,6.78,6.16ZM3.29,9.26a.59.59,0,0,0,.1-.79.53.53,0,0,0-.66-.2C3,8.54,3.39,8.74,3.29,9.26Zm12.83,4.1a.58.58,0,0,0-.71.3.54.54,0,0,0,.15.69C15.44,13.85,15.85,13.65,16.12,13.36ZM8.69,6.08a3,3,0,0,1,.43.45,2.73,2.73,0,0,1,.19.52.59.59,0,0,0,.09-.66C9.29,6.14,9.06,6,8.69,6.08Zm5.36-.94a.6.6,0,0,0-.72.33.53.53,0,0,0,.15.67C13.37,5.64,13.78,5.45,14.05,5.14ZM7.93,17l.64.82c.11-.08.13-.3,0-.53A.58.58,0,0,0,7.93,17ZM7.4,6.64c-.06.54-.44.62-.87.68A1,1,0,0,0,7.68,7a.2.2,0,0,0,0-.18C7.6,6.73,7.51,6.71,7.4,6.64Zm5.47,0c-.13.11-.27.17-.29.26s.1.2.18.25a2.27,2.27,0,0,0,.54.27,1.13,1.13,0,0,0,.41,0V7.31C13.32,7.26,12.94,7.19,12.87,6.61ZM8.93,9.71c-.13.1-.26.15-.29.24s.1.19.18.25a1.76,1.76,0,0,0,.42.24.61.61,0,0,0,.58,0C9.37,10.36,9,10.26,8.93,9.71ZM3,10.43a1,1,0,0,0,1.15-.35.19.19,0,0,0,0-.19,1,1,0,0,0-.25-.13C3.84,10.3,3.43,10.36,3,10.43Zm7.88,9.12c-.07.55-.47.61-.88.68a1,1,0,0,0,1.16-.37.18.18,0,0,0,0-.16A1.5,1.5,0,0,0,10.9,19.55ZM16.34,8V7.91c-.47-.11-.5-.14-.77-.67-.09.08-.21.14-.25.23s.09.19.17.24A2.73,2.73,0,0,0,16,8,.66.66,0,0,0,16.34,8Zm-4.25,11.2c-.43-.05-.81-.14-.88-.7-.13.1-.26.16-.28.25s.09.19.17.25a1.93,1.93,0,0,0,.36.22A.67.67,0,0,0,12.09,19.17ZM3.92,8a.86.86,0,0,0,.27,0,1.19,1.19,0,0,0,.73-.42s0-.15,0-.2a.76.76,0,0,0-.24-.13C4.61,7.72,4.29,7.84,3.92,8Zm12.45,1.8c-.1.05-.19.07-.23.12a.23.23,0,0,0,0,.21,1,1,0,0,0,1.15.35C16.84,10.36,16.44,10.3,16.37,9.75Zm-13.8-4a1.67,1.67,0,0,1,1.52-.37.22.22,0,0,0-.16-.1c-.23,0-.47,0-.7,0S2.68,5.33,2.57,5.73Zm15.14,0c-.11-.39-.33-.53-.65-.49s-.48,0-.72,0a.37.37,0,0,0-.16.07l0,.06A1.57,1.57,0,0,1,17.71,5.73ZM13.29,17a.53.53,0,0,0-.59-.48h-.78c-.05,0-.09.07-.14.1C12.33,16.59,12.85,16.51,13.29,17Zm-4.82-.32,0-.07s-.11-.08-.16-.08c-.27,0-.54,0-.81,0A.5.5,0,0,0,7,17,1.57,1.57,0,0,1,8.47,16.65Zm1.87,1c-.05,0-.1-.1-.14-.11-.25,0-.51,0-.76,0a.56.56,0,0,0-.63.49A1.72,1.72,0,0,1,10.34,17.66Zm5.06-2.5c-.11-.39-.32-.52-.65-.49s-.49,0-.73,0c0,0-.1.06-.15.09l0,.05A1.55,1.55,0,0,1,15.4,15.16Zm-2-10.44,0,.08A1.55,1.55,0,0,1,15,5.12a.55.55,0,0,0-.66-.48c-.23,0-.47,0-.7,0A.7.7,0,0,0,13.43,4.72ZM3.26,13.33c.43-.47,1-.38,1.5-.36,0-.05-.08-.11-.12-.11l-.84,0A.54.54,0,0,0,3.26,13.33Zm3.15,1.44s-.09-.09-.14-.1H5.44a.49.49,0,0,0-.53.46C5.31,14.78,5.43,14.75,6.41,14.77ZM15.51,13l0,.06a1.58,1.58,0,0,1,1.49.32.56.56,0,0,0-.65-.48c-.24,0-.48,0-.72,0C15.61,12.87,15.56,12.92,15.51,13ZM6.8,4.8l0-.06s-.09-.09-.13-.09c-.29,0-.58,0-.86,0a.51.51,0,0,0-.51.47A1.53,1.53,0,0,1,6.8,4.8ZM11,8.21a.55.55,0,0,0-.62-.49c-.25,0-.5,0-.76,0,0,0-.09.06-.13.09l0,0A1.51,1.51,0,0,1,11,8.21Zm7.43,0a.53.53,0,0,0-.59-.47c-.25,0-.51,0-.76,0a.37.37,0,0,0-.16.07l0,.06A1.59,1.59,0,0,1,18.45,8.21Zm-16.63,0c.44-.48,1-.4,1.51-.38a.19.19,0,0,0-.15-.09c-.25,0-.49,0-.74,0A.55.55,0,0,0,1.82,8.23Zm2.8,8.46a.75.75,0,0,0,1,.61.61.61,0,0,0-.28-.11.61.61,0,0,1-.54-.35C4.76,16.78,4.68,16.74,4.62,16.69Zm11.07,0,0,0a4.26,4.26,0,0,1-.43.42c-.15.13-.41,0-.56.21A.83.83,0,0,0,15.69,16.73ZM8.56,19.56l0,.05a.79.79,0,0,0,1.07.54A2.68,2.68,0,0,1,9,20,2.45,2.45,0,0,1,8.56,19.56Zm9.6-8.36a.55.55,0,0,0-.63-.49c-.25,0-.49,0-.74,0-.05,0-.1,0-.15.08l0,.06A1.52,1.52,0,0,1,18.16,11.2Zm-7.87-.88,0,.07a.79.79,0,0,0,1-.67,2.26,2.26,0,0,1-.43.44A2.26,2.26,0,0,1,10.29,10.32Zm-6.67.55,0-.07a.37.37,0,0,0-.16-.07c-.25,0-.49,0-.74,0a.54.54,0,0,0-.62.48A1.53,1.53,0,0,1,3.62,10.87ZM16.3,15.45a.75.75,0,0,0,1-.62,2.8,2.8,0,0,1-.44.46A2.6,2.6,0,0,1,16.3,15.45ZM7.53,7.6l0,.05a.77.77,0,0,0,1.06.53A2.46,2.46,0,0,1,7.93,8,2,2,0,0,1,7.53,7.6Zm6.08,10.88c-.1.09-.19.13-.22.2a.62.62,0,0,1-.53.33,1.61,1.61,0,0,0-.29.09A.78.78,0,0,0,13.61,18.48Zm-5.86.63a2.69,2.69,0,0,0-.32-.1.57.57,0,0,1-.54-.34c0-.06-.12-.1-.18-.15A.76.76,0,0,0,7.75,19.11Zm4-10.92,0,.06a.81.81,0,0,0,1-.62.37.37,0,0,0-.2.14A.59.59,0,0,1,12,8.1,1.43,1.43,0,0,0,11.77,8.19Zm6.94,1.58c-.05.05-.13.09-.16.15a.61.61,0,0,1-.56.34.93.93,0,0,0-.26.1A.72.72,0,0,0,18.71,9.77ZM4,15.46a1.61,1.61,0,0,0-.29-.09A.6.6,0,0,1,3.16,15c0-.07-.11-.11-.21-.19A.77.77,0,0,0,4,15.46ZM2.52,10.41l0-.06a1.4,1.4,0,0,0-.29-.09A.6.6,0,0,1,1.74,10c0-.08-.12-.12-.18-.18A.78.78,0,0,0,2.52,10.41Zm15,2.82c.08.24.22.17.32.15a.81.81,0,0,0,.63-.69C18.17,13,18,13.33,17.51,13.23Zm-14.76.12v-.06c-.18-.06-.36-.1-.53-.17s-.15-.36-.42-.35a.93.93,0,0,0,.75.63A1.6,1.6,0,0,0,2.75,13.35Zm6.11,3.47c-.07.37.16.53.59.42Zm5.37-9.57,0,.06a.83.83,0,0,0,.75-.2S15,7,15,7Zm4.54,1.34-.07.85C18.91,9.33,19,8.93,18.77,8.59Zm-.37,3.82c.21-.11.25-.46.08-.85ZM2.25,6.07c-.17.39-.13.77.08.85Zm9.84-.35c.05-.14,0-.17-.15-.15s-.55,0-.82,0c0,0-.1.05-.15.08l0,0Zm-3.92,0H9.29l0-.06a.52.52,0,0,0-.16-.06l-.82,0C8.18,5.55,8.11,5.59,8.17,5.72ZM1.5,8.59c-.18.42-.14.76.07.83Zm3.07,7H4.48c0,.28-.14.57.07.81h.08ZM6.05,7.25,5.29,7C5.23,7.21,5.66,7.39,6.05,7.25ZM1.8,11.58H1.72c0,.28-.14.57.07.82h.08Zm6.77,7.66-.08-.85C8.32,18.8,8.35,19.13,8.57,19.24Zm7.22-3.7H15.7l-.06.81h.08C15.93,16.11,15.79,15.82,15.79,15.54Zm-4.45-7-.07.84C11.48,9.31,11.52,8.92,11.34,8.58ZM18,6.09,18,6.94C18.15,6.82,18.19,6.42,18,6.09ZM3,14.56l-.08-.85C2.75,14.09,2.79,14.43,3,14.56Zm3.66,2.78c-.18.34-.14.74.06.85Zm10.68-3.63-.06.83C17.48,14.44,17.53,14.05,17.34,13.71Zm-3.72,3.63-.07.85C13.75,18.08,13.79,17.68,13.62,17.34ZM9.66,6,9.6,6l.13.27L10,6.11ZM4.06,12.2l-.32.37C4,12.63,4,12.63,4.06,12.2Zm12.47.36-.29-.33C16.28,12.6,16.31,12.64,16.53,12.56Z"/><path d="M6.47,17.87c-.2,0-.38-.15-.65-.1a1.13,1.13,0,0,1-1.35-1,6.4,6.4,0,0,1-.07-.88A1.16,1.16,0,0,1,2.84,15a10.79,10.79,0,0,1-.07-1.16,1.13,1.13,0,0,1-1-.91,2.42,2.42,0,0,1,0-1.36c.05-.17.1-.32.32-.38s.17-.21.27-.34A1.18,1.18,0,0,1,1.44,10a2.56,2.56,0,0,1,0-1.4c.05-.16.1-.34.32-.35,0,0,.06,0,.08-.06l.42-.51a2.68,2.68,0,0,1-.11-1.33c0-.17.07-.42.19-.49s.32-.37.52-.51a.72.72,0,0,1,.55-.15c.25,0,.51,0,.76,0,.1,0,.28,0,.29.11,0,.25.22.28.43.29a1.47,1.47,0,0,1,.06-.14c0-.09.07-.23.14-.25.24-.07.3-.31.47-.45a.73.73,0,0,1,.61-.17,3,3,0,0,0,.73,0c.25,0,.29,0,.4.36a1.17,1.17,0,0,1,.86.51.18.18,0,0,0,.13.08,5.12,5.12,0,0,0,.56,0,3.87,3.87,0,0,0,.48,0c.25,0,.32,0,.39.23,0,0,0,.09,0,.1S10,6,10.14,6s.25.12.38,0A.23.23,0,0,1,10.67,6,.33.33,0,0,0,11,5.66c0-.06.18-.11.28-.11a3.54,3.54,0,0,1,.86,0c.29,0,.4-.14.58-.29A4.44,4.44,0,0,1,13.26,5a.33.33,0,0,0,.16-.15c.05-.2.18-.23.37-.22a2.81,2.81,0,0,0,.71,0,.77.77,0,0,1,.79.36c.06.08.16.12.22.19s.21.29.32.45c.17,0,.34,0,.39-.28,0-.06.19-.1.3-.11s.48,0,.71,0a.79.79,0,0,1,.81.37c.05.07.14.11.2.18a.86.86,0,0,1,.22.29,2,2,0,0,1,.06,1.12,3.67,3.67,0,0,0-.09.53l.42.49s0,.05,0,.05c.29,0,.33.27.37.48a1.74,1.74,0,0,1,0,1c0,.09,0,.19,0,.28a1.2,1.2,0,0,1-.88.91c.13.13.15.34.38.39s.16.18.19.29a1.88,1.88,0,0,1,0,1.1c0,.09,0,.19,0,.28a1.17,1.17,0,0,1-1.07.93c0,.07,0,.13,0,.19a4.74,4.74,0,0,1-.09,1.07,1.12,1.12,0,0,1-1.52.8c0,.27-.06.55-.06.82a1.2,1.2,0,0,1-1,1.05c-.17,0-.35-.06-.52-.05a3.23,3.23,0,0,0-.51.14,5.8,5.8,0,0,1-.07.74,1.16,1.16,0,0,1-1.48,1,.43.43,0,0,0-.16,0,5.36,5.36,0,0,1-.7.1c-.15,0-.19,0-.14.18a.4.4,0,0,1-.11.43,1.27,1.27,0,0,1-1.5.34.21.21,0,0,0-.11,0,1.13,1.13,0,0,1-1.45-.74c-.11-.3-.2-.33-.51-.27a1.14,1.14,0,0,1-1.38-1.11A2.85,2.85,0,0,0,6.47,17.87Zm9.21-5.14c0-.05-.07-.13-.1-.21a.82.82,0,0,1,0-.73,1.26,1.26,0,0,1,.91-.75.19.19,0,0,0,.12-.11.18.18,0,0,0-.07-.15c-.12-.11-.27-.2-.39-.32a.39.39,0,0,1-.12-.29.78.78,0,0,0-.12-.56.9.9,0,0,1,.08-1c0-.06.09-.12.13-.19-.38-.19-.8-.32-.88-.82a1.14,1.14,0,0,1-1,.08.08.08,0,0,0-.08,0,1.24,1.24,0,0,1-.87.09,1.18,1.18,0,0,1-1.39.9c0,.35-.08.69-.08,1a1.14,1.14,0,0,1-1.46,1.07.43.43,0,0,0-.16,0,1.25,1.25,0,0,1-1.52-.38.8.8,0,0,1-.09-.31c0-.11,0-.23,0-.32a1.08,1.08,0,0,1-.09-1.07,1.22,1.22,0,0,1-1.09-.91,1.26,1.26,0,0,1-.38,0,3.3,3.3,0,0,0-1-.07,2.82,2.82,0,0,1-.54-.13c0,.34-.13.42-.86.8,0,0,0,0,0,.06a1,1,0,0,1,.13,1.24c-.06.11,0,.27-.06.4a.88.88,0,0,1-.13.33,2.85,2.85,0,0,1-.38.31s-.09.11-.08.16A.2.2,0,0,0,4.2,11,1.13,1.13,0,0,1,5,12.69a.36.36,0,0,1,0,.09c.06,0,.12.06.13.1.05.29.33.28.5.41a2.57,2.57,0,0,1,.58.56.88.88,0,0,1,.06.81h.12c.34-.06.33-.06.47.25,0,0,.1.08.16.1a1.25,1.25,0,0,1,1,1.15,3.24,3.24,0,0,1-.05.35c.23,0,.44,0,.65-.05a.29.29,0,0,1,.37.22s.08.13.13.14a1.1,1.1,0,0,1,.76.52c.14.24.31.23.52.2a2.79,2.79,0,0,1,.41,0,1.29,1.29,0,0,1,1-.73c.12-.38.13-.38.52-.32a4.51,4.51,0,0,0,.52,0A1.23,1.23,0,0,1,13.83,15c0-.41.3-.39.6-.29a1.2,1.2,0,0,1,.93-1.5.31.31,0,0,0,.12-.11C15.55,13,15.6,12.86,15.68,12.73Zm-4.09,5.49c0,.64.55,1,1.22.73a.41.41,0,0,0,.27-.22.43.43,0,0,0-.15-.47C12.73,18.77,12.1,18.91,11.59,18.22ZM15,16.45c-.42.59-.72.57-1.36-.05.05.63.51.93,1.18.75C15.23,17.05,15.31,16.75,15,16.45ZM13.24,6.36c.06.66.53.95,1.2.75a.53.53,0,0,0,.3-.22.46.46,0,0,0-.14-.48C14.29,7,13.66,6.94,13.24,6.36ZM10.66,9.51c-.31.59-.92.52-1.35,0a.33.33,0,0,0,0,.1.83.83,0,0,0,1.17.64C10.87,10.1,10.94,9.81,10.66,9.51Zm-1.09,9.8c-.25.36-.22.65.22.72a2,2,0,0,0,.35,0,.79.79,0,0,0,.78-.8C10.48,19.88,9.84,19.89,9.57,19.31ZM6.08,6.42c-.28.31-.21.59.16.69a1.28,1.28,0,0,0,.27,0,.78.78,0,0,0,.92-.79C6.88,7,6.44,7,6.08,6.42Zm-.44,10c-.25.36-.22.65.21.72a2.91,2.91,0,0,0,.4.05A.77.77,0,0,0,7,16.4C6.6,17,5.94,17.05,5.64,16.43Zm-1.7-7c-.42.58-1,.69-1.37.08-.18.19-.21.51,0,.6C3.06,10.4,3.81,10.38,3.94,9.45Zm12.8,0A.84.84,0,0,0,18,10.2c.1,0,.23-.13.25-.22a.42.42,0,0,0-.14-.47C17.79,10.14,17.12,10,16.74,9.45Zm-12-2.53a.92.92,0,0,1-.7.51A.61.61,0,0,1,3.34,7c-.29.34-.21.61.19.68l.08,0A.8.8,0,0,0,4.69,6.92ZM16,7a.74.74,0,0,0,.58.74,1.56,1.56,0,0,0,.57,0c.12,0,.29-.09.32-.18A.41.41,0,0,0,17.34,7C16.94,7.59,16.63,7.59,16,7Zm-5.23.28c0,.24.07.4.27.48s.18.17.27.23a.69.69,0,0,0,.29.13A1,1,0,0,0,12,8.06c.39-.1.47-.39.19-.69C11.79,8,11.15,7.83,10.77,7.28Zm-.9.07a1,1,0,0,1-.67.42.62.62,0,0,1-.66-.42c-.28.33-.2.61.19.71a.65.65,0,0,0,.27,0A1.41,1.41,0,0,0,9.41,8c.05,0,.06-.15.11-.21s.09-.13.15-.14C9.88,7.66,9.87,7.51,9.87,7.35Zm6.68,3.93a.88.88,0,0,0-.65,1.34s.09.08.12.07a.23.23,0,0,0,.1-.12c0-.11,0-.22,0-.34a.68.68,0,0,1,.31-.65C16.48,11.54,16.49,11.42,16.55,11.28Zm-7.14-3a.87.87,0,0,0-.57,1.43C9,9.7,9,9.6,9,9.47c0-.34-.05-.67.31-.89C9.35,8.54,9.36,8.42,9.41,8.29Zm1.47-2.13a.87.87,0,0,0-.58,1.41c.14,0,.17-.08.16-.21,0-.36-.06-.71.31-.93C10.83,6.39,10.84,6.27,10.88,6.16ZM4.2,11.3l-.07,0c.06.09.09.21.17.27a.53.53,0,0,1,.25.44c0,.16,0,.32,0,.48s.06.11.09.16.11,0,.13-.09A.86.86,0,0,0,4.2,11.3Zm8.55-4.67c.16,0,.18-.09.16-.22,0-.35-.05-.71.33-.93.06,0,.06-.16.09-.27A.89.89,0,0,0,12.75,6.63ZM11.68,17.07a.88.88,0,0,0-.58,1.42c.17,0,.17-.13.16-.26,0-.34,0-.68.31-.89C11.63,17.31,11.64,17.18,11.68,17.07ZM4.38,9.8c.2-.32.35-.58.19-.89a.9.9,0,0,0-.71-.56A.47.47,0,0,0,4,8.63a.61.61,0,0,1,.26.45c0,.15,0,.31,0,.46A1.09,1.09,0,0,0,4.38,9.8ZM16.83,8.36l-.06,0a1.09,1.09,0,0,0-.7.67c-.12.3.05.53.21.8.06-.08.12-.12.13-.17a1,1,0,0,0,0-.24c0-.3,0-.59.31-.77C16.78,8.56,16.8,8.44,16.83,8.36ZM4.66,5.82l-.07,0a.83.83,0,0,0,.17.27A.62.62,0,0,1,5,6.61a3.23,3.23,0,0,0,0,.44c0,.06.06.12.1.18s.1-.07.12-.11A.86.86,0,0,0,4.66,5.82Zm2.65-.6c.07.13.1.25.18.31A.57.57,0,0,1,7.76,6a2.67,2.67,0,0,1,0,.4c0,.13,0,.21.15.21A.87.87,0,0,0,7.31,5.22Zm8.78.57c-.79.26-1,.93-.57,1.44.16,0,.14-.13.14-.25,0-.34-.05-.68.32-.89C16,6.05,16,5.92,16.09,5.79ZM7.34,16.5c.31-.09.38-.16.37-.42a1,1,0,0,0-.84-.84c.08.13.13.23.19.32a2.5,2.5,0,0,1,.25.41A2.29,2.29,0,0,1,7.34,16.5ZM15,14.6v-.13c0-.3,0-.59.33-.76.06,0,.07-.17.1-.26l-.06,0c-.1.06-.21.1-.31.17a.9.9,0,0,0-.41.86C14.67,14.63,14.76,14.7,15,14.6Zm-9.28,0c.26.1.29.08.36-.15a.93.93,0,0,0-.82-1c.08.13.12.25.2.3a.61.61,0,0,1,.26.5C5.7,14.36,5.69,14.48,5.69,14.59Zm8.09.65A1,1,0,0,0,13,16c0,.31.06.42.38.45a.49.49,0,0,0,0-.12c0-.33,0-.64.31-.84C13.72,15.49,13.73,15.36,13.78,15.24Zm2-.24,0,.06c.09,0,.22.08.27.16.16.25.37.15.56.09s.23-.13.25-.22a.41.41,0,0,0-.15-.46C16.42,15,16.32,15.08,15.76,15ZM2.05,9.68l.09,0a1.11,1.11,0,0,1,.74-.85c-.15-.14-.31-.28-.48-.21A.59.59,0,0,0,2.11,9,3.71,3.71,0,0,0,2.05,9.68Zm7.83,9c-.34-.32-.56-.32-.72,0a1,1,0,0,0,0,.85A1.16,1.16,0,0,1,9.88,18.67Zm5.59-2,.09,0a3.94,3.94,0,0,0-.07-.69c0-.14-.18-.33-.29-.35s-.32.1-.47.16v.07A1.1,1.1,0,0,1,15.47,16.63ZM4,14.62c-.19.2-.24.52-.08.6a1.45,1.45,0,0,0,.5.15c.07,0,.15-.1.22-.15a.39.39,0,0,0,.11-.06L4.94,15l0,0C4.52,15.11,4.19,15.06,4,14.62Zm14.23-1.95a.93.93,0,0,0,0-.73c-.06-.13-.17-.29-.29-.32s-.33.07-.47.22A1.14,1.14,0,0,1,18.25,12.67Zm-7.14-3a.88.88,0,0,0,0-.71.63.63,0,0,0-.29-.33c-.18-.06-.34.07-.47.22A1.17,1.17,0,0,1,11.11,9.67Zm-8.76,3h.1a1.07,1.07,0,0,1,.73-.83c-.35-.35-.66-.31-.77.13A3.93,3.93,0,0,0,2.35,12.66Zm11,5.8h.09a4.8,4.8,0,0,0-.05-.67c0-.15-.17-.35-.29-.38s-.32.09-.49.15v.07A1.06,1.06,0,0,1,13.37,18.46ZM3.53,14.8a3.33,3.33,0,0,1,.29-.49A2.73,2.73,0,0,1,4.29,14c-.29-.27-.49-.3-.65-.07A1.09,1.09,0,0,0,3.53,14.8ZM8,17.62c-.36-.35-.64-.31-.78.12a1.24,1.24,0,0,0,0,.78A1.08,1.08,0,0,1,8,17.62ZM17.79,8.8v.07a1.21,1.21,0,0,1,.77.83,1.67,1.67,0,0,0,0-.67c0-.15-.16-.34-.28-.37S18,8.74,17.79,8.8Zm-1.43,5.11V14a1.21,1.21,0,0,1,.77.83,1.72,1.72,0,0,0,0-.68.53.53,0,0,0-.29-.37C16.7,13.73,16.52,13.86,16.36,13.91ZM3.63,6.37c-.26-.28-.49-.31-.65-.11a1,1,0,0,0-.08,1A1.07,1.07,0,0,1,3.63,6.37ZM6,15.78a1.43,1.43,0,0,0-.24-.16.29.29,0,0,0-.37,0,1,1,0,0,0-.13,1C5.25,16.18,5.58,16,6,15.78ZM17.05,6.37a1.22,1.22,0,0,1,.76.83,1.85,1.85,0,0,0,0-.62c-.1-.5-.38-.58-.76-.26C17.06,6.33,17.06,6.34,17.05,6.37ZM6.39,5.74c-.09,0-.14-.12-.21-.13a.6.6,0,0,0-.37,0,.73.73,0,0,0-.16.91C5.8,6.12,5.85,6.08,6.39,5.74ZM15,6.52h.06a2.16,2.16,0,0,0,0-.57.62.62,0,0,0-.3-.4c-.17-.08-.33.08-.5.21A1.14,1.14,0,0,1,15,6.52ZM7.72,18.21a1.37,1.37,0,0,0-.12.29c0,.14-.09.31.1.38a4.73,4.73,0,0,0,.63.18l0-.37A.66.66,0,0,1,7.72,18.21Zm-4.15-5.3a.64.64,0,0,1-.69-.43c-.18.21-.22.52-.08.6a.71.71,0,0,0,.41.13C3.32,13.2,3.41,13.05,3.57,12.91ZM8.85,6.7c-.06,0-.09-.09-.13-.1s-.32-.14-.41-.08A.42.42,0,0,0,8.14,7a1,1,0,0,1-.06.32,1.66,1.66,0,0,0,0,.22l.06,0A1.09,1.09,0,0,1,8.85,6.7Zm3,0a1.22,1.22,0,0,1,.78.84.69.69,0,0,0,0-.25c0-.1,0-.21-.06-.32a1.21,1.21,0,0,0-.17-.46s-.25,0-.37.07S11.89,6.65,11.82,6.7ZM10.48,19.27a.59.59,0,0,0,.12-.78.55.55,0,0,0-.67-.23C10.19,18.55,10.6,18.74,10.48,19.27Zm4.2-3.9a.58.58,0,0,0-.72.33.5.5,0,0,0,.15.65C14,15.86,14.42,15.66,14.68,15.37Zm2.48-2.45V13c.11.08.22.22.33.24a.74.74,0,0,0,.41-.15c.13-.09.06-.42-.11-.57A.63.63,0,0,1,17.16,12.92ZM11.8,6.28c-.41,0-.65.08-.75.37a.5.5,0,0,0,.17.62C11.11,6.78,11.53,6.58,11.8,6.28ZM16.44,7a.54.54,0,0,1,.12-.57c.13-.15.28-.29.42-.44a.6.6,0,0,0-.71.32A.54.54,0,0,0,16.44,7ZM3.79,12.42a.58.58,0,0,0-.56-1C3.49,11.71,3.9,11.9,3.79,12.42Zm8.8,4.79a.57.57,0,0,0-.71.28.54.54,0,0,0,.14.69C11.92,17.69,12.31,17.49,12.59,17.21ZM9.77,9.45a.51.51,0,0,1,.11-.58,5.86,5.86,0,0,1,.42-.44.58.58,0,0,0-.53,1Zm8-1a.61.61,0,0,0-.71.36.52.52,0,0,0,.18.66.52.52,0,0,1,.11-.56C17.44,8.73,17.59,8.59,17.73,8.43ZM6,15.36c.6.67.6.67.58,1a.57.57,0,0,0,.13-.7A.62.62,0,0,0,6,15.36Zm-1.07-.8a.55.55,0,0,0,.13-.72.58.58,0,0,0-.7-.28C4.62,13.85,5,14.05,4.92,14.56ZM4.24,7a.58.58,0,0,0,.13-.76A.57.57,0,0,0,3.69,6C4,6.24,4.36,6.44,4.24,7Zm12.64,5.45c-.11-.51.31-.71.58-1a.61.61,0,0,0-.73.33A.55.55,0,0,0,16.88,12.42ZM7,6.36a.58.58,0,0,0,.12-.77.54.54,0,0,0-.67-.23C6.7,5.64,7.11,5.84,7,6.36ZM3.49,9.46a.59.59,0,0,0,.1-.79.53.53,0,0,0-.66-.2C3.2,8.74,3.59,8.94,3.49,9.46Zm12.83,4.1a.58.58,0,0,0-.71.3.54.54,0,0,0,.14.69C15.64,14.05,16.05,13.85,16.32,13.56ZM8.89,6.27a3,3,0,0,1,.42.46,2.54,2.54,0,0,1,.2.52.59.59,0,0,0,.09-.66A.61.61,0,0,0,8.89,6.27Zm5.36-.93a.6.6,0,0,0-.72.32.54.54,0,0,0,.15.68C13.57,5.84,14,5.64,14.25,5.34ZM8.13,17.19l.64.82c.11-.08.13-.3,0-.53A.58.58,0,0,0,8.13,17.19ZM7.6,6.84c-.06.54-.45.62-.88.68a1,1,0,0,0,1.16-.35.19.19,0,0,0,0-.18A.91.91,0,0,0,7.6,6.84Zm5.47,0c-.13.11-.27.17-.29.26s.1.19.18.25a2.27,2.27,0,0,0,.54.27,1.45,1.45,0,0,0,.41,0V7.51C13.52,7.46,13.13,7.38,13.07,6.81Zm-4,3.1c-.12.1-.25.15-.28.24s.1.19.18.25a1.76,1.76,0,0,0,.42.24.59.59,0,0,0,.57,0C9.57,10.55,9.2,10.45,9.12,9.91Zm-5.9.72a1.06,1.06,0,0,0,1.15-.35.21.21,0,0,0,0-.19A1.39,1.39,0,0,0,4.1,10C4,10.5,3.63,10.56,3.22,10.63Zm7.87,9.12c-.06.55-.46.61-.87.68a1,1,0,0,0,1.16-.37.16.16,0,0,0,0-.16A1,1,0,0,0,11.09,19.75ZM16.54,8.17V8.11C16.07,8,16,8,15.77,7.44c-.09.08-.21.14-.25.23s.09.18.17.24a2.65,2.65,0,0,0,.53.27A.7.7,0,0,0,16.54,8.17Zm-4.25,11.2c-.43-.06-.82-.14-.89-.7-.12.1-.25.16-.28.25s.1.18.18.25a1.65,1.65,0,0,0,.36.22A.67.67,0,0,0,12.29,19.37ZM4.12,8.15a.86.86,0,0,0,.27,0,1.27,1.27,0,0,0,.73-.42.24.24,0,0,0,0-.2.76.76,0,0,0-.24-.13C4.81,7.91,4.49,8,4.12,8.15ZM16.57,10c-.1.05-.19.07-.23.12s-.07.17,0,.2a1.05,1.05,0,0,0,1.16.36C17,10.56,16.63,10.5,16.57,10Zm-13.8-4a1.71,1.71,0,0,1,1.52-.38.22.22,0,0,0-.16-.09c-.23,0-.47,0-.7,0S2.88,5.53,2.77,5.93Zm15.13,0c-.1-.39-.32-.53-.65-.49s-.47,0-.71,0a.77.77,0,0,0-.16.07l0,.07A1.55,1.55,0,0,1,17.9,5.93ZM13.49,17.17a.54.54,0,0,0-.6-.49c-.25,0-.51,0-.77,0,0,0-.1.06-.14.1C12.53,16.79,13.05,16.71,13.49,17.17Zm-4.83-.33.05-.06c-.06,0-.11-.08-.16-.08-.27,0-.54,0-.82,0a.5.5,0,0,0-.53.47C7.62,16.7,8.14,16.79,8.66,16.84Zm1.87,1s-.09-.1-.13-.11c-.26,0-.51,0-.76,0a.55.55,0,0,0-.63.48A1.73,1.73,0,0,1,10.53,17.86Zm5.07-2.5c-.11-.39-.33-.53-.65-.5s-.49,0-.73,0c-.06,0-.1.06-.15.09l0,0A1.54,1.54,0,0,1,15.6,15.36Zm-2-10.45,0,.09a1.54,1.54,0,0,1,1.5.32.55.55,0,0,0-.66-.48c-.23,0-.47,0-.7,0A.55.55,0,0,0,13.63,4.91ZM3.46,13.52c.43-.46,1-.37,1.5-.35,0-.05-.08-.11-.12-.11L4,13A.52.52,0,0,0,3.46,13.52ZM6.61,15c-.05,0-.09-.09-.14-.1-.28,0-.56,0-.84,0a.5.5,0,0,0-.52.46C5.51,15,5.63,15,6.61,15Zm9.09-1.82,0,.06a1.57,1.57,0,0,1,1.5.32.56.56,0,0,0-.66-.48c-.23,0-.47,0-.71,0A.89.89,0,0,0,15.7,13.15ZM7,5l0,0S7,4.85,6.91,4.85c-.28,0-.57,0-.85,0a.51.51,0,0,0-.51.46A1.56,1.56,0,0,1,7,5ZM11.22,8.4a.55.55,0,0,0-.62-.48c-.25,0-.5,0-.76,0,0,0-.09,0-.13.08l0,.06A1.54,1.54,0,0,1,11.22,8.4Zm7.42,0a.52.52,0,0,0-.59-.47c-.25,0-.5,0-.75,0a.52.52,0,0,0-.16.06l0,.07A1.54,1.54,0,0,1,18.64,8.41ZM2,8.42C2.45,8,3,8,3.53,8.05A.19.19,0,0,0,3.38,8c-.25,0-.49,0-.74,0A.53.53,0,0,0,2,8.42Zm2.8,8.47a.75.75,0,0,0,1,.61.77.77,0,0,0-.28-.12A.58.58,0,0,1,5,17C5,17,4.88,16.94,4.82,16.89Zm11.07,0,0,0a4.26,4.26,0,0,1-.43.42c-.15.13-.41,0-.56.21A.84.84,0,0,0,15.89,16.93ZM8.76,19.76l0,0a.8.8,0,0,0,1.08.54,2.68,2.68,0,0,1-.61-.16A2.15,2.15,0,0,1,8.76,19.76Zm9.6-8.37a.55.55,0,0,0-.63-.48c-.25,0-.49,0-.74,0,0,0-.1.05-.15.07l0,.07A1.54,1.54,0,0,1,18.36,11.39Zm-7.87-.87,0,.07a.8.8,0,0,0,1-.68,2.1,2.1,0,0,1-.44.45A2.09,2.09,0,0,1,10.49,10.52Zm-6.68.55,0-.07a.37.37,0,0,0-.16-.07c-.25,0-.5,0-.74,0a.54.54,0,0,0-.62.48A1.51,1.51,0,0,1,3.81,11.07ZM16.5,15.65a.75.75,0,0,0,1-.62,2.36,2.36,0,0,1-.44.45A2.28,2.28,0,0,1,16.5,15.65ZM7.73,7.8l-.05,0a.77.77,0,0,0,1.05.53,2.73,2.73,0,0,1-.6-.16A2.28,2.28,0,0,1,7.73,7.8Zm6.08,10.88c-.1.09-.19.13-.23.19a.58.58,0,0,1-.52.34,1.61,1.61,0,0,0-.29.09A.78.78,0,0,0,13.81,18.68ZM8,19.31a2.69,2.69,0,0,0-.32-.1.59.59,0,0,1-.54-.34c0-.07-.12-.1-.19-.15A.78.78,0,0,0,8,19.31ZM12,8.39l0,.06a.82.82,0,0,0,1-.62.41.41,0,0,0-.2.13.58.58,0,0,1-.54.34A1.13,1.13,0,0,0,12,8.39Zm7,1.58a1.22,1.22,0,0,0-.17.15.58.58,0,0,1-.55.34,1.34,1.34,0,0,0-.26.09A.72.72,0,0,0,18.91,10ZM4.17,15.66a1.52,1.52,0,0,0-.28-.09.6.6,0,0,1-.53-.33c0-.07-.12-.11-.22-.2A.77.77,0,0,0,4.17,15.66ZM2.72,10.61l0-.06a1.61,1.61,0,0,0-.29-.09.59.59,0,0,1-.51-.32A.79.79,0,0,0,1.75,10,.79.79,0,0,0,2.72,10.61Zm15,2.82c.08.24.22.17.32.15a.8.8,0,0,0,.62-.69C18.36,13.17,18.17,13.53,17.71,13.43ZM3,13.55v-.06l-.53-.17C2.25,13.25,2.26,13,2,13a.9.9,0,0,0,.75.63A.78.78,0,0,0,3,13.55ZM9.05,17c-.06.37.17.52.6.42Zm5.37-9.57,0,.06a.84.84,0,0,0,.75-.2s0-.09,0-.1ZM19,8.79l-.07.85C19.11,9.53,19.15,9.13,19,8.79Zm-.37,3.82c.21-.11.25-.47.08-.85ZM2.45,6.27c-.18.39-.13.77.08.85Zm9.84-.35c.05-.15,0-.17-.16-.16l-.81,0c-.05,0-.1,0-.15.08l0,0Zm-3.92,0H9.49l0-.06c-.06,0-.11-.06-.16-.06l-.82,0C8.37,5.75,8.31,5.79,8.37,5.92ZM1.7,8.79c-.18.42-.14.76.07.83Zm3.07,7H4.68c0,.27-.15.57.07.81h.08ZM6.25,7.45l-.76-.24C5.43,7.41,5.85,7.59,6.25,7.45ZM2,11.77H1.92c0,.27-.15.57.07.82h.08Zm6.76,7.67-.07-.85C8.52,19,8.55,19.33,8.76,19.44ZM16,15.74H15.9l-.06.8h.08C16.13,16.3,16,16,16,15.74Zm-4.45-7-.07.84C11.68,9.51,11.72,9.12,11.54,8.78Zm6.68-2.5-.07.86C18.35,7,18.39,6.62,18.22,6.28Zm-15,8.48-.08-.86C3,14.28,3,14.63,3.2,14.76Zm3.65,2.78c-.17.33-.13.74.07.85Zm10.69-3.63-.06.83C17.68,14.64,17.72,14.25,17.54,13.91Zm-3.73,3.63-.06.85C14,18.27,14,17.87,13.81,17.54Zm-4-11.39-.06,0,.13.27.27-.15ZM4.26,12.4l-.32.37C4.16,12.83,4.16,12.83,4.26,12.4Zm12.47.36-.29-.33C16.48,12.8,16.51,12.84,16.73,12.76Z"/></g><g class="cls-3"><path d="M6.13,17.53c-.2,0-.38-.15-.65-.1a1.13,1.13,0,0,1-1.35-1,6.4,6.4,0,0,1-.07-.88,1.16,1.16,0,0,1-1.56-.9,10.79,10.79,0,0,1-.07-1.16,1.13,1.13,0,0,1-1-.91,2.42,2.42,0,0,1,0-1.36c.05-.17.1-.32.32-.38s.17-.21.27-.34a1.18,1.18,0,0,1-.88-.87,2.56,2.56,0,0,1,0-1.4c0-.16.1-.34.32-.35,0,0,.06,0,.08-.06l.42-.51A2.68,2.68,0,0,1,1.8,6c0-.17.07-.42.19-.49s.32-.37.52-.51a.72.72,0,0,1,.55-.15c.25,0,.51,0,.76,0,.1,0,.28,0,.29.11,0,.25.22.28.43.29a1.47,1.47,0,0,1,.06-.14c0-.09.07-.23.14-.25.24-.07.3-.32.47-.45a.73.73,0,0,1,.61-.17,3,3,0,0,0,.73,0c.25,0,.29,0,.4.36a1.17,1.17,0,0,1,.86.51.18.18,0,0,0,.13.08,5.12,5.12,0,0,0,.56,0,3.87,3.87,0,0,0,.48,0c.25,0,.32,0,.39.23,0,0,0,.09,0,.1s.27.07.39.13.25.12.38,0a.23.23,0,0,1,.15-.07.33.33,0,0,0,.34-.29c0-.06.18-.11.28-.11a3.54,3.54,0,0,1,.86,0c.29,0,.4-.14.58-.29a4.44,4.44,0,0,1,.53-.28.33.33,0,0,0,.16-.15c.05-.2.18-.23.37-.22a2.81,2.81,0,0,0,.71,0,.77.77,0,0,1,.79.36c.06.08.16.12.22.19s.21.29.32.45c.17,0,.34,0,.39-.28,0-.06.19-.1.3-.11s.48,0,.71,0a.79.79,0,0,1,.81.37c.05.07.14.11.2.18a.86.86,0,0,1,.22.29,2,2,0,0,1,.06,1.12,3.67,3.67,0,0,0-.09.53l.42.49s0,0,0,0c.29,0,.33.27.37.48a1.74,1.74,0,0,1,0,1c0,.09,0,.19,0,.28a1.2,1.2,0,0,1-.88.91c.13.13.15.34.38.39s.16.18.19.29a1.88,1.88,0,0,1,0,1.1c0,.09,0,.19,0,.28a1.17,1.17,0,0,1-1.07.93c0,.07,0,.13,0,.19a4.74,4.74,0,0,1-.09,1.07,1.12,1.12,0,0,1-1.52.8c0,.27-.06.55-.06.82a1.2,1.2,0,0,1-1,1.05c-.17,0-.35-.06-.52-.05a3.23,3.23,0,0,0-.51.14,5.8,5.8,0,0,1-.07.74,1.16,1.16,0,0,1-1.48,1,.43.43,0,0,0-.16,0,5.36,5.36,0,0,1-.7.1c-.15,0-.19.05-.14.18a.4.4,0,0,1-.11.43,1.27,1.27,0,0,1-1.5.34.21.21,0,0,0-.11,0,1.13,1.13,0,0,1-1.45-.74c-.11-.3-.2-.33-.51-.27a1.14,1.14,0,0,1-1.38-1.11A3.62,3.62,0,0,0,6.13,17.53Zm9.21-5.14c0-.05-.07-.13-.1-.21a.84.84,0,0,1,0-.74,1.27,1.27,0,0,1,.91-.74.19.19,0,0,0,.12-.11.18.18,0,0,0-.07-.15c-.12-.11-.28-.2-.39-.32a.39.39,0,0,1-.12-.29.78.78,0,0,0-.12-.56.9.9,0,0,1,.08-1c0-.06.09-.12.13-.19-.38-.19-.8-.32-.88-.82a1.14,1.14,0,0,1-1,.08.08.08,0,0,0-.08,0,1.24,1.24,0,0,1-.87.09,1.18,1.18,0,0,1-1.39.9c0,.35-.08.69-.08,1A1.14,1.14,0,0,1,10,10.46a.43.43,0,0,0-.16,0,1.25,1.25,0,0,1-1.52-.38.8.8,0,0,1-.09-.31c0-.11,0-.23,0-.32a1.08,1.08,0,0,1-.09-1.07A1.22,1.22,0,0,1,7,7.47a1.26,1.26,0,0,1-.38,0,3.3,3.3,0,0,0-1-.07,2.82,2.82,0,0,1-.54-.13c0,.34-.13.42-.86.8,0,0,0,0,0,.06a1,1,0,0,1,.13,1.24c-.06.11,0,.27-.06.4a.88.88,0,0,1-.13.33,3.93,3.93,0,0,1-.38.31s-.09.11-.08.16a.2.2,0,0,0,.14.11,1.13,1.13,0,0,1,.81,1.65.36.36,0,0,1,0,.09s.12.06.13.1c0,.29.33.28.5.41a2.57,2.57,0,0,1,.58.56.88.88,0,0,1,.06.81H6c.34-.06.33-.06.47.25,0,0,.1.08.16.09a1.27,1.27,0,0,1,.95,1.16,3.24,3.24,0,0,1,0,.35c.23,0,.44,0,.65-.05a.29.29,0,0,1,.37.22c0,.05.08.13.13.14a1.1,1.1,0,0,1,.76.52c.14.24.31.23.52.2a2.79,2.79,0,0,1,.41,0,1.29,1.29,0,0,1,1-.73c.12-.38.13-.38.52-.32a4.51,4.51,0,0,0,.52,0,1.23,1.23,0,0,1,1.06-1.51c0-.41.3-.39.6-.29a1.2,1.2,0,0,1,.93-1.5.31.31,0,0,0,.12-.11C15.21,12.63,15.26,12.52,15.34,12.39Zm-4.09,5.49c0,.64.55,1,1.22.73a.41.41,0,0,0,.27-.22.43.43,0,0,0-.15-.47C12.39,18.43,11.76,18.57,11.25,17.88Zm3.44-1.77c-.42.59-.72.57-1.36-.05.05.63.51.93,1.18.75C14.89,16.71,15,16.41,14.69,16.11ZM12.9,6c.06.66.53,1,1.2.75a.53.53,0,0,0,.3-.22.46.46,0,0,0-.14-.48C14,6.68,13.32,6.6,12.9,6ZM10.32,9.17C10,9.76,9.4,9.69,9,9.12a.33.33,0,0,0,0,.1.83.83,0,0,0,1.17.64C10.53,9.76,10.6,9.46,10.32,9.17ZM9.23,19c-.25.36-.22.65.22.72a2,2,0,0,0,.35,0,.79.79,0,0,0,.78-.8C10.14,19.54,9.5,19.55,9.23,19ZM5.74,6.08c-.29.31-.21.59.16.69a1.28,1.28,0,0,0,.27.05A.78.78,0,0,0,7.09,6C6.54,6.65,6.1,6.67,5.74,6.08Zm-.44,10c-.25.36-.22.65.21.72a2.91,2.91,0,0,0,.4.05.77.77,0,0,0,.74-.8C6.26,16.63,5.6,16.71,5.3,16.09Zm-1.7-7c-.42.58-1.05.69-1.37.08-.18.19-.21.51,0,.6C2.72,10.06,3.47,10,3.6,9.11Zm12.8,0a.84.84,0,0,0,1.24.75c.1,0,.23-.13.25-.22a.42.42,0,0,0-.14-.47C17.45,9.8,16.78,9.68,16.4,9.11Zm-12-2.53a.92.92,0,0,1-.7.51A.61.61,0,0,1,3,6.67c-.29.34-.21.61.19.68l.08,0A.8.8,0,0,0,4.35,6.58Zm11.31.08a.74.74,0,0,0,.58.74,1.56,1.56,0,0,0,.57-.05c.12,0,.29-.09.32-.18A.41.41,0,0,0,17,6.68C16.6,7.25,16.28,7.25,15.66,6.66Zm-5.23.28c0,.24.07.4.27.48s.18.17.27.23a.69.69,0,0,0,.29.13,1.35,1.35,0,0,0,.35-.06c.39-.1.47-.39.19-.69C11.45,7.68,10.81,7.49,10.43,6.94ZM9.53,7a1,1,0,0,1-.67.42A.62.62,0,0,1,8.2,7c-.28.33-.2.61.19.71a.86.86,0,0,0,.27,0,1.41,1.41,0,0,0,.41-.07s.06-.15.11-.21.09-.13.15-.14S9.53,7.17,9.53,7Zm6.68,3.93a.88.88,0,0,0-.65,1.34s.09.08.12.07a.23.23,0,0,0,.1-.12c0-.11,0-.22,0-.34a.68.68,0,0,1,.31-.65C16.14,11.2,16.15,11.08,16.21,10.94ZM9.07,8A.87.87,0,0,0,8.5,9.38c.15,0,.15-.12.14-.25,0-.34-.05-.67.31-.89C9,8.2,9,8.08,9.07,8Zm1.47-2.13A.87.87,0,0,0,10,7.23c.14,0,.17-.08.16-.21,0-.36-.06-.71.31-.93C10.49,6.05,10.5,5.93,10.54,5.82ZM3.86,11l-.07,0c.06.09.09.21.17.27a.53.53,0,0,1,.25.44c0,.16,0,.32,0,.48s.06.11.09.16.11,0,.13-.09A.86.86,0,0,0,3.86,11Zm8.55-4.67c.16,0,.18-.09.16-.22,0-.35-.05-.71.33-.93C13,5.11,13,5,13,4.87A.89.89,0,0,0,12.41,6.29ZM11.34,16.73a.88.88,0,0,0-.58,1.42c.17,0,.17-.13.16-.26,0-.34-.05-.68.31-.89C11.29,17,11.3,16.84,11.34,16.73ZM4,9.46c.2-.32.35-.58.19-.89A.9.9,0,0,0,3.52,8a.47.47,0,0,0,.14.28.61.61,0,0,1,.26.45c0,.15,0,.31,0,.46S4,9.34,4,9.46ZM16.49,8l-.07,0a1.09,1.09,0,0,0-.69.67c-.12.3,0,.53.21.8.06-.08.12-.12.13-.17a1,1,0,0,0,0-.24c0-.3,0-.59.31-.77C16.44,8.22,16.46,8.1,16.49,8ZM4.32,5.48l-.07,0a.83.83,0,0,0,.17.27.62.62,0,0,1,.26.48,3.23,3.23,0,0,0,0,.44c0,.06.06.12.09.18s.11-.07.13-.11A.86.86,0,0,0,4.32,5.48ZM7,4.88c.07.13.1.25.18.31a.57.57,0,0,1,.27.49,2.67,2.67,0,0,1,0,.4c0,.13,0,.21.15.21A.87.87,0,0,0,7,4.88Zm8.78.57c-.79.26-1,.93-.57,1.44.16,0,.14-.13.14-.25,0-.34-.05-.68.32-.89C15.7,5.71,15.7,5.58,15.75,5.45ZM7,16.16c.31-.09.38-.16.36-.42a1,1,0,0,0-.83-.84c.08.13.13.23.19.32a2.5,2.5,0,0,1,.25.41A2.29,2.29,0,0,1,7,16.16Zm7.63-1.9v-.13c0-.3,0-.59.33-.76.06,0,.07-.17.1-.26l-.06,0c-.1.06-.21.1-.31.17a.9.9,0,0,0-.41.86C14.33,14.29,14.42,14.36,14.63,14.26Zm-9.28,0c.26.1.29.08.36-.15a.93.93,0,0,0-.82-1c.08.13.12.25.2.3a.61.61,0,0,1,.26.5C5.36,14,5.35,14.14,5.35,14.25Zm8.09.65a1,1,0,0,0-.81.8c0,.31.06.42.38.45A.49.49,0,0,0,13,16c0-.33,0-.64.31-.84C13.38,15.15,13.39,15,13.44,14.9Zm2-.24,0,.06c.09,0,.22.08.27.16.16.25.37.15.56.08a.38.38,0,0,0,.25-.21.43.43,0,0,0-.15-.47C16.08,14.7,16,14.74,15.42,14.66ZM1.71,9.34l.09,0a1.11,1.11,0,0,1,.74-.85c-.15-.14-.31-.28-.48-.21a.59.59,0,0,0-.29.36A3.71,3.71,0,0,0,1.71,9.34Zm7.83,9C9.2,18,9,18,8.82,18.31a1,1,0,0,0,0,.85A1.14,1.14,0,0,1,9.54,18.33Zm5.59-2,.09,0a3.94,3.94,0,0,0-.07-.69c0-.14-.18-.33-.29-.35s-.32.1-.48.16l0,.07A1.1,1.1,0,0,1,15.13,16.29Zm-11.45-2c-.19.2-.24.52-.08.6a1.45,1.45,0,0,0,.5.15c.07,0,.15-.1.22-.15a.39.39,0,0,0,.11-.06l.17-.12,0-.06C4.18,14.77,3.85,14.72,3.68,14.28Zm14.23-1.95a.93.93,0,0,0,0-.73c-.06-.13-.17-.29-.29-.32s-.33.07-.47.22A1.14,1.14,0,0,1,17.91,12.33Zm-7.14-3a.88.88,0,0,0,0-.71.63.63,0,0,0-.29-.33c-.18-.06-.34.07-.47.22A1.17,1.17,0,0,1,10.77,9.33ZM2,12.32h.1a1.07,1.07,0,0,1,.73-.83c-.35-.35-.66-.31-.77.13A3.93,3.93,0,0,0,2,12.32Zm11,5.8h.09a4.8,4.8,0,0,0,0-.67c0-.15-.17-.35-.29-.38s-.32.09-.49.15v.07A1.06,1.06,0,0,1,13,18.12ZM3.19,14.46A3.33,3.33,0,0,1,3.48,14,2.73,2.73,0,0,1,4,13.62c-.29-.27-.49-.3-.65-.07A1.09,1.09,0,0,0,3.19,14.46ZM7.7,17.28c-.36-.35-.64-.31-.78.12a1.24,1.24,0,0,0,0,.78A1.07,1.07,0,0,1,7.7,17.28Zm9.75-8.82v.07a1.21,1.21,0,0,1,.77.83,1.67,1.67,0,0,0,0-.67c0-.15-.16-.34-.28-.37S17.62,8.4,17.45,8.46ZM16,13.57v.07a1.21,1.21,0,0,1,.77.83,1.72,1.72,0,0,0,0-.68.53.53,0,0,0-.29-.37C16.36,13.39,16.18,13.52,16,13.57ZM3.29,6c-.26-.28-.49-.31-.65-.11a1,1,0,0,0-.08,1A1.07,1.07,0,0,1,3.29,6Zm2.33,9.41a1.43,1.43,0,0,0-.24-.16.29.29,0,0,0-.37,0,1,1,0,0,0-.13,1C4.91,15.84,5.24,15.63,5.62,15.44ZM16.71,6a1.22,1.22,0,0,1,.76.83,1.85,1.85,0,0,0,0-.62c-.1-.5-.38-.58-.76-.26C16.72,6,16.72,6,16.71,6ZM6.05,5.4c-.09-.05-.14-.12-.21-.13a.6.6,0,0,0-.37,0,.73.73,0,0,0-.16.91C5.46,5.78,5.51,5.74,6.05,5.4Zm8.63.78h.06a2.16,2.16,0,0,0,0-.57.62.62,0,0,0-.3-.4c-.17-.08-.33.08-.5.21A1.14,1.14,0,0,1,14.68,6.18ZM7.38,17.87a1.37,1.37,0,0,0-.12.29c0,.14-.09.31.1.38a4.73,4.73,0,0,0,.63.18l0-.37A.66.66,0,0,1,7.38,17.87Zm-4.15-5.3a.64.64,0,0,1-.69-.43c-.18.21-.22.52-.08.6a.71.71,0,0,0,.41.13C3,12.85,3.07,12.71,3.23,12.57ZM8.51,6.36c-.06,0-.09-.09-.13-.1S8.06,6.12,8,6.18a.42.42,0,0,0-.17.47A1,1,0,0,1,7.74,7a1.66,1.66,0,0,0,0,.22h.06A1.09,1.09,0,0,1,8.51,6.36Zm3,0a1.22,1.22,0,0,1,.78.84,1,1,0,0,0,0-.25c0-.1,0-.21-.06-.32A1.21,1.21,0,0,0,12,6.17s-.25,0-.37.07S11.55,6.31,11.48,6.36ZM10.14,18.93a.59.59,0,0,0,.12-.78.55.55,0,0,0-.67-.23C9.85,18.21,10.26,18.4,10.14,18.93Zm4.2-3.9a.58.58,0,0,0-.72.33.5.5,0,0,0,.15.65C13.66,15.52,14.08,15.32,14.34,15Zm2.48-2.45v.05c.11.08.22.22.33.24a.74.74,0,0,0,.41-.15c.13-.09.06-.42-.11-.57A.63.63,0,0,1,16.82,12.58ZM11.46,5.94c-.41-.05-.65.08-.75.37a.5.5,0,0,0,.17.62C10.77,6.44,11.19,6.24,11.46,5.94Zm4.64.67A.54.54,0,0,1,16.22,6c.13-.15.28-.29.42-.44a.6.6,0,0,0-.71.32A.54.54,0,0,0,16.1,6.61ZM3.45,12.08a.58.58,0,0,0-.56-1C3.15,11.37,3.56,11.56,3.45,12.08Zm8.8,4.79a.57.57,0,0,0-.71.28.54.54,0,0,0,.14.69C11.58,17.35,12,17.15,12.25,16.87ZM9.43,9.11a.53.53,0,0,1,.11-.59c.13-.15.28-.29.42-.43a.58.58,0,0,0-.53,1Zm8-1a.61.61,0,0,0-.71.36.52.52,0,0,0,.18.66A.52.52,0,0,1,17,8.55C17.1,8.39,17.25,8.25,17.39,8.09ZM5.65,15c.6.67.6.67.58,1a.57.57,0,0,0,.13-.7A.62.62,0,0,0,5.65,15Zm-1.07-.8a.55.55,0,0,0,.13-.72.58.58,0,0,0-.7-.28C4.28,13.51,4.69,13.71,4.58,14.22ZM3.9,6.63A.58.58,0,0,0,4,5.87a.57.57,0,0,0-.68-.26C3.61,5.9,4,6.1,3.9,6.63Zm12.64,5.45c-.11-.51.31-.71.58-1a.61.61,0,0,0-.73.33A.55.55,0,0,0,16.54,12.08ZM6.64,6a.58.58,0,0,0,.12-.77A.54.54,0,0,0,6.09,5C6.36,5.3,6.77,5.5,6.64,6ZM3.15,9.12a.59.59,0,0,0,.1-.79.53.53,0,0,0-.66-.2C2.86,8.4,3.25,8.6,3.15,9.12ZM16,13.22a.58.58,0,0,0-.71.3.54.54,0,0,0,.14.69C15.3,13.71,15.71,13.51,16,13.22ZM8.55,5.93A3,3,0,0,1,9,6.39a2.54,2.54,0,0,1,.2.52.59.59,0,0,0,.09-.66A.61.61,0,0,0,8.55,5.93ZM13.91,5a.6.6,0,0,0-.72.32.54.54,0,0,0,.15.68C13.23,5.5,13.64,5.3,13.91,5ZM7.79,16.85l.64.82c.11-.08.13-.3,0-.53A.57.57,0,0,0,7.79,16.85ZM7.26,6.5c-.06.54-.45.62-.88.68a1,1,0,0,0,1.16-.35.19.19,0,0,0,0-.18A.91.91,0,0,0,7.26,6.5Zm5.47,0c-.13.11-.27.17-.29.26s.1.19.18.25a2.27,2.27,0,0,0,.54.27,1.45,1.45,0,0,0,.41,0V7.17C13.18,7.12,12.79,7,12.73,6.47Zm-4,3.1c-.12.1-.25.15-.28.24s.1.19.18.25a1.91,1.91,0,0,0,.41.24.6.6,0,0,0,.58,0C9.23,10.21,8.86,10.11,8.78,9.57Zm-5.9.72A1.06,1.06,0,0,0,4,9.94a.21.21,0,0,0,0-.19,1.39,1.39,0,0,0-.25-.14C3.7,10.16,3.29,10.22,2.88,10.29Zm7.87,9.12c-.06.55-.46.61-.87.68A1,1,0,0,0,11,19.72a.16.16,0,0,0,0-.16A1,1,0,0,0,10.75,19.41ZM16.2,7.83V7.77c-.47-.12-.5-.14-.77-.67-.09.08-.21.14-.25.23s.09.18.17.24a2.65,2.65,0,0,0,.53.27A.7.7,0,0,0,16.2,7.83ZM12,19c-.43-.06-.82-.14-.89-.7-.12.1-.25.16-.28.25s.1.18.18.25a1.65,1.65,0,0,0,.36.22A.67.67,0,0,0,12,19ZM3.78,7.81a.86.86,0,0,0,.27.05,1.27,1.27,0,0,0,.73-.42.21.21,0,0,0,0-.2c0-.06-.13-.08-.23-.13C4.47,7.57,4.15,7.7,3.78,7.81Zm12.45,1.8c-.1.05-.19.07-.23.12s-.07.17,0,.2a1.05,1.05,0,0,0,1.16.36C16.7,10.21,16.29,10.16,16.23,9.61Zm-13.8-4A1.71,1.71,0,0,1,4,5.21a.22.22,0,0,0-.16-.09c-.23,0-.47,0-.7,0S2.54,5.19,2.43,5.59Zm15.13,0c-.1-.39-.32-.53-.65-.49s-.47,0-.71,0a.77.77,0,0,0-.16.07l0,.07A1.55,1.55,0,0,1,17.56,5.59ZM13.15,16.83a.54.54,0,0,0-.6-.49c-.25,0-.51,0-.77,0,0,0-.1.06-.14.1C12.19,16.45,12.71,16.37,13.15,16.83ZM8.32,16.5l0-.06c-.06,0-.11-.08-.16-.08-.27,0-.54,0-.82,0a.5.5,0,0,0-.53.47C7.28,16.36,7.8,16.45,8.32,16.5Zm1.87,1s-.09-.1-.14-.11c-.25,0-.5,0-.75,0a.55.55,0,0,0-.63.48A1.73,1.73,0,0,1,10.19,17.52ZM15.26,15c-.11-.39-.33-.53-.65-.5s-.49,0-.74,0c0,0-.09.06-.14.09l0,0A1.54,1.54,0,0,1,15.26,15Zm-2-10.45,0,.09a1.54,1.54,0,0,1,1.5.32.55.55,0,0,0-.66-.48c-.23,0-.47,0-.7,0A.55.55,0,0,0,13.29,4.57ZM3.12,13.18c.43-.46,1-.37,1.5-.35,0-.05-.08-.11-.12-.11l-.84,0A.52.52,0,0,0,3.12,13.18Zm3.15,1.45s-.09-.09-.14-.1c-.28,0-.56,0-.84,0a.5.5,0,0,0-.52.46C5.17,14.63,5.29,14.61,6.27,14.63Zm9.09-1.82,0,.06a1.57,1.57,0,0,1,1.5.32.56.56,0,0,0-.66-.48c-.23,0-.47,0-.71,0A.89.89,0,0,0,15.36,12.81ZM6.66,4.65l0-.05s-.08-.09-.13-.09c-.28,0-.57,0-.85,0a.5.5,0,0,0-.51.46A1.56,1.56,0,0,1,6.66,4.65Zm4.22,3.41a.55.55,0,0,0-.62-.48c-.25,0-.51,0-.76,0,0,0-.09.05-.13.08l0,.06A1.54,1.54,0,0,1,10.88,8.06Zm7.42,0a.53.53,0,0,0-.59-.48c-.25,0-.5,0-.75,0a.44.44,0,0,0-.16.06l0,.07A1.54,1.54,0,0,1,18.3,8.07Zm-16.62,0c.43-.47,1-.39,1.51-.37A.19.19,0,0,0,3,7.62c-.25,0-.49,0-.74,0A.53.53,0,0,0,1.68,8.08Zm2.8,8.47a.75.75,0,0,0,1,.61A.77.77,0,0,0,5.19,17a.58.58,0,0,1-.54-.34C4.62,16.64,4.54,16.6,4.48,16.55Zm11.07,0,0,0a4.26,4.26,0,0,1-.43.42c-.15.13-.41,0-.56.21A.84.84,0,0,0,15.55,16.59ZM8.42,19.42l-.05,0A.8.8,0,0,0,9.45,20a2.68,2.68,0,0,1-.61-.16A2.15,2.15,0,0,1,8.42,19.42ZM18,11.05a.55.55,0,0,0-.63-.48c-.25,0-.49,0-.74,0,0,0-.1.05-.15.07l0,.07A1.54,1.54,0,0,1,18,11.05Zm-7.87-.87,0,.07a.8.8,0,0,0,1-.68,2.1,2.1,0,0,1-.44.45A2.09,2.09,0,0,1,10.15,10.18Zm-6.68.55,0-.07a.37.37,0,0,0-.16-.07c-.25,0-.5,0-.74,0a.54.54,0,0,0-.62.48A1.51,1.51,0,0,1,3.47,10.73Zm12.69,4.58a.75.75,0,0,0,1-.62,2.36,2.36,0,0,1-.44.45A2.28,2.28,0,0,1,16.16,15.31ZM7.39,7.46l0,0A.77.77,0,0,0,8.39,8a2.73,2.73,0,0,1-.6-.16A2.28,2.28,0,0,1,7.39,7.46Zm6.08,10.88a1.34,1.34,0,0,0-.23.19.58.58,0,0,1-.52.34,1.61,1.61,0,0,0-.29.09A.78.78,0,0,0,13.47,18.34ZM7.61,19a2.69,2.69,0,0,0-.32-.1.59.59,0,0,1-.54-.34c0-.07-.12-.1-.19-.15A.78.78,0,0,0,7.61,19Zm4-10.92,0,.06a.82.82,0,0,0,1-.62.41.41,0,0,0-.2.13A.58.58,0,0,1,11.9,8,1.13,1.13,0,0,0,11.62,8.05Zm7,1.58a1.22,1.22,0,0,0-.17.15.58.58,0,0,1-.55.34,1.14,1.14,0,0,0-.26.09A.72.72,0,0,0,18.57,9.63ZM3.83,15.32a1.52,1.52,0,0,0-.28-.09A.6.6,0,0,1,3,14.9c0-.07-.12-.11-.22-.2A.77.77,0,0,0,3.83,15.32ZM2.38,10.27l0-.06a1.61,1.61,0,0,0-.29-.09A.59.59,0,0,1,1.6,9.8a.79.79,0,0,0-.19-.17A.79.79,0,0,0,2.38,10.27Zm15,2.82c.08.24.22.17.32.15a.8.8,0,0,0,.62-.69C18,12.83,17.83,13.19,17.37,13.09ZM2.61,13.2v0c-.18-.06-.36-.11-.53-.18s-.15-.35-.42-.35a.9.9,0,0,0,.75.63A.54.54,0,0,0,2.61,13.2Zm6.1,3.48c-.06.37.17.52.6.42Zm5.37-9.57,0,.06a.84.84,0,0,0,.75-.2s0-.09,0-.1Zm4.55,1.34-.07.85C18.77,9.19,18.81,8.79,18.63,8.45Zm-.37,3.81c.21-.1.25-.46.08-.84ZM2.11,5.93c-.18.38-.13.77.08.85ZM12,5.58c.05-.15,0-.17-.16-.16l-.81,0c-.05,0-.1,0-.15.08l0,0ZM8,5.58H9.14l0-.06c-.06,0-.11-.06-.16-.06l-.82,0C8,5.41,8,5.45,8,5.58ZM1.36,8.45c-.18.42-.14.76.07.83Zm3.07,7H4.34c0,.27-.15.57.07.81h.08ZM5.91,7.11l-.76-.24C5.09,7.07,5.51,7.25,5.91,7.11ZM1.66,11.43H1.58c0,.27-.15.57.07.82h.08ZM8.42,19.1l-.07-.85C8.17,18.66,8.21,19,8.42,19.1Zm7.23-3.7h-.09l-.06.8h.08C15.79,16,15.64,15.67,15.65,15.4Zm-4.45-7-.07.84C11.34,9.17,11.38,8.78,11.2,8.44Zm6.67-2.5-.06.86C18,6.68,18.05,6.28,17.87,5.94Zm-15,8.48-.08-.86C2.61,13.94,2.65,14.29,2.86,14.42ZM6.51,17.2c-.17.33-.13.74.07.85ZM17.2,13.57l-.06.83C17.34,14.3,17.38,13.91,17.2,13.57ZM13.47,17.2l-.06.85C13.61,17.93,13.65,17.53,13.47,17.2Zm-4-11.39-.06,0,.13.27L9.86,6Zm-5.6,6.25-.32.37C3.82,12.49,3.82,12.49,3.92,12.06Zm12.47.36-.29-.33C16.14,12.46,16.17,12.5,16.39,12.42Z"/></g><path class="cls-4" d="M6.32,17.73c-.19,0-.37-.15-.64-.1a1.13,1.13,0,0,1-1.35-1,6.52,6.52,0,0,1-.07-.88,1.16,1.16,0,0,1-1.56-.91,10.56,10.56,0,0,1-.08-1.15,1.12,1.12,0,0,1-1-.91,2.37,2.37,0,0,1,0-1.37c0-.16.1-.31.32-.37s.17-.21.27-.34a1.18,1.18,0,0,1-.88-.87,2.5,2.5,0,0,1,0-1.41c.05-.15.1-.33.32-.34,0,0,.06,0,.08-.07l.42-.5A2.68,2.68,0,0,1,2,6.2c0-.17.07-.42.18-.49s.33-.37.53-.51a.7.7,0,0,1,.55-.15c.25,0,.5,0,.75,0s.29,0,.3.11c.05.24.22.28.43.28a.49.49,0,0,1,.06-.13c0-.09.07-.23.14-.25.24-.07.3-.32.47-.45A.77.77,0,0,1,6,4.45a2.55,2.55,0,0,0,.73,0c.25,0,.29,0,.4.36a1.16,1.16,0,0,1,.86.5.2.2,0,0,0,.13.09,5.15,5.15,0,0,0,.56,0,3.85,3.85,0,0,0,.48,0c.24,0,.32,0,.39.23,0,0,0,.09,0,.1a2.67,2.67,0,0,1,.4.13.29.29,0,0,0,.38,0,.23.23,0,0,1,.15-.07.33.33,0,0,0,.34-.29c0-.06.18-.11.28-.11a3.54,3.54,0,0,1,.86,0c.29,0,.4-.14.58-.29a4.44,4.44,0,0,1,.53-.28c.06,0,.14-.09.16-.15s.17-.24.36-.22a2.89,2.89,0,0,0,.72,0,.78.78,0,0,1,.79.36c0,.08.15.12.21.19s.21.29.33.45a.34.34,0,0,0,.39-.28c0-.06.19-.11.3-.11s.48,0,.71,0a.79.79,0,0,1,.81.37c.05.07.14.11.2.18a.86.86,0,0,1,.22.29A1.86,1.86,0,0,1,18.37,7c-.05.18-.05.37-.08.53L18.7,8s0,.06.06.06c.29,0,.33.27.37.48a1.84,1.84,0,0,1,0,1c0,.08,0,.19,0,.28a1.2,1.2,0,0,1-.89.9c.14.14.16.34.39.4.08,0,.16.18.19.29a1.87,1.87,0,0,1,0,1.1c0,.09,0,.19,0,.28a1.18,1.18,0,0,1-1.07.93c0,.07,0,.13,0,.19A6.35,6.35,0,0,1,17.65,15a1.12,1.12,0,0,1-1.52.8,7.54,7.54,0,0,0-.06.82,1.21,1.21,0,0,1-1,1.05c-.16,0-.34-.06-.51-.05a3.23,3.23,0,0,0-.51.14,5.8,5.8,0,0,1-.07.74,1.16,1.16,0,0,1-1.49,1s-.1,0-.15,0a5.36,5.36,0,0,1-.7.09c-.15,0-.19.06-.15.19a.37.37,0,0,1-.1.42,1.26,1.26,0,0,1-1.5.35.15.15,0,0,0-.11,0,1.11,1.11,0,0,1-1.45-.73c-.12-.3-.2-.33-.51-.27a1.15,1.15,0,0,1-1.38-1.11A2.89,2.89,0,0,0,6.32,17.73Zm9.21-5.15a2.16,2.16,0,0,1-.09-.2.78.78,0,0,1,0-.74,1.25,1.25,0,0,1,.91-.74.19.19,0,0,0,.12-.11.18.18,0,0,0-.07-.15,4.16,4.16,0,0,1-.39-.32.39.39,0,0,1-.12-.29.78.78,0,0,0-.12-.56.89.89,0,0,1,.08-1A2.14,2.14,0,0,1,16,8.29c-.38-.2-.8-.33-.89-.82a1.17,1.17,0,0,1-1,.08s-.05,0-.07,0a1.14,1.14,0,0,1-.87.09,1.18,1.18,0,0,1-1.39.91c0,.35-.08.69-.08,1a1.14,1.14,0,0,1-1.47,1.07.26.26,0,0,0-.15,0,1.25,1.25,0,0,1-1.52-.38.81.81,0,0,1-.1-.31,1.1,1.1,0,0,0,0-.32,1.08,1.08,0,0,1-.09-1.07,1.22,1.22,0,0,1-1.09-.91,1.27,1.27,0,0,1-.38,0,3.3,3.3,0,0,0-1-.08,1.77,1.77,0,0,1-.54-.13c0,.35-.13.43-.86.81,0,0,0,0,0,.06a1,1,0,0,1,.13,1.24A1.68,1.68,0,0,0,4.5,10a.73.73,0,0,1-.12.34c-.11.12-.26.2-.38.31s-.09.11-.08.16a.2.2,0,0,0,.14.11,1.13,1.13,0,0,1,.81,1.65s0,.06,0,.09.12.06.13.09c0,.3.32.29.5.41a2.85,2.85,0,0,1,.58.57.86.86,0,0,1,.06.8h.12c.34-.06.33-.06.47.25,0,.05.1.08.16.09A1.28,1.28,0,0,1,7.8,16a2.8,2.8,0,0,1,0,.34,4.54,4.54,0,0,0,.65,0,.29.29,0,0,1,.37.22s.07.13.13.14a1.1,1.1,0,0,1,.76.52c.14.23.3.23.52.2a2.66,2.66,0,0,1,.41,0,1.3,1.3,0,0,1,1-.72c.12-.38.14-.38.53-.32a4.51,4.51,0,0,0,.52,0,1.22,1.22,0,0,1,1.06-1.51c0-.41.29-.39.6-.3a1.21,1.21,0,0,1,.92-1.5.21.21,0,0,0,.13-.1A2.76,2.76,0,0,0,15.53,12.58Zm-4.09,5.5a.84.84,0,0,0,1.23.73.47.47,0,0,0,.27-.22.42.42,0,0,0-.15-.47C12.59,18.63,12,18.77,11.44,18.08Zm3.45-1.78c-.42.59-.72.58-1.36-.05.05.64.51.93,1.18.76C15.09,16.9,15.17,16.61,14.89,16.3ZM13.1,6.22c.05.66.53,1,1.2.75.11,0,.26-.12.29-.22a.45.45,0,0,0-.13-.48C14.15,6.88,13.52,6.8,13.1,6.22ZM10.52,9.37c-.31.59-.92.52-1.36,0v.1a.84.84,0,0,0,1.18.64C10.72,10,10.8,9.66,10.52,9.37Zm-1.09,9.8c-.26.36-.22.65.21.72a2.2,2.2,0,0,0,.36,0,.77.77,0,0,0,.78-.8C10.34,19.74,9.7,19.75,9.43,19.17ZM5.94,6.27c-.29.31-.22.6.16.7a1.28,1.28,0,0,0,.27,0,.78.78,0,0,0,.92-.79C6.74,6.85,6.29,6.87,5.94,6.27Zm-.44,10c-.25.35-.23.65.21.72a2.73,2.73,0,0,0,.4,0,.78.78,0,0,0,.74-.81C6.45,16.83,5.8,16.91,5.5,16.29Zm-1.7-7c-.42.58-1,.69-1.37.07-.18.2-.21.52,0,.61C2.92,10.26,3.67,10.24,3.8,9.31Zm12.8,0a.83.83,0,0,0,1.24.74.38.38,0,0,0,.25-.21A.44.44,0,0,0,18,9.37C17.65,10,17,9.88,16.6,9.31Zm-12-2.53a.93.93,0,0,1-.7.51.64.64,0,0,1-.66-.42c-.28.34-.2.61.2.68l.08,0C4,7.76,4.49,7.44,4.55,6.78Zm11.31.08a.73.73,0,0,0,.58.74,1.58,1.58,0,0,0,.57,0c.12,0,.29-.09.32-.18a.43.43,0,0,0-.13-.5C16.8,7.45,16.48,7.45,15.86,6.86Zm-5.23.28c0,.24.07.4.27.48s.17.16.27.23a.67.67,0,0,0,.29.12,1.06,1.06,0,0,0,.35,0c.39-.1.47-.39.19-.69C11.65,7.87,11,7.69,10.63,7.14Zm-.9.06a.94.94,0,0,1-.68.43c-.33,0-.51-.15-.65-.42-.28.33-.2.61.19.71a1.28,1.28,0,0,0,.27,0,1.42,1.42,0,0,0,.41-.08c.05,0,.06-.14.11-.2s.09-.13.14-.14C9.74,7.52,9.73,7.37,9.73,7.2Zm6.68,3.94a.88.88,0,0,0-.65,1.34s.09.08.12.07a.23.23,0,0,0,.1-.12c0-.11,0-.22,0-.34a.65.65,0,0,1,.31-.65C16.33,11.4,16.35,11.27,16.41,11.14Zm-7.14-3A.87.87,0,0,0,8.7,9.58c.15,0,.15-.12.14-.25,0-.34-.05-.68.31-.89C9.21,8.4,9.22,8.27,9.27,8.15ZM10.73,6a.86.86,0,0,0-.57,1.41c.14,0,.17-.08.16-.21,0-.36-.06-.71.31-.93C10.69,6.25,10.7,6.13,10.73,6ZM4.06,11.16,4,11.2c.06.09.09.21.17.26a.56.56,0,0,1,.25.44c0,.17,0,.33,0,.49a.39.39,0,0,0,.1.16s.1-.05.13-.09A.86.86,0,0,0,4.06,11.16Zm8.55-4.67c.16,0,.17-.09.16-.22,0-.35-.06-.71.33-.93.05,0,.06-.16.09-.27A.88.88,0,0,0,12.61,6.49ZM11.54,16.93A.87.87,0,0,0,11,18.34c.17,0,.16-.12.16-.25,0-.34,0-.68.31-.89C11.49,17.17,11.5,17,11.54,16.93ZM4.24,9.66c.2-.32.35-.58.19-.89a.93.93,0,0,0-.71-.57.47.47,0,0,0,.14.29.57.57,0,0,1,.25.45c0,.15,0,.31,0,.46S4.18,9.54,4.24,9.66ZM16.69,8.21l-.07,0a1.07,1.07,0,0,0-.69.67c-.12.3.05.53.21.8.06-.08.12-.12.13-.18a.91.91,0,0,0,0-.23c0-.3,0-.59.32-.77C16.64,8.42,16.65,8.3,16.69,8.21ZM4.51,5.68l-.06,0c0,.09.08.21.16.27a.56.56,0,0,1,.26.48c0,.14,0,.29,0,.44s.07.12.1.18A.75.75,0,0,0,5.1,7,.86.86,0,0,0,4.51,5.68Zm2.66-.61c.07.14.1.26.18.32a.57.57,0,0,1,.27.49,1.79,1.79,0,0,1,0,.4c0,.13,0,.2.16.21A.88.88,0,0,0,7.17,5.07ZM16,5.65c-.79.26-1,.93-.57,1.44.16,0,.14-.14.13-.25,0-.34,0-.68.32-.89C15.89,5.91,15.9,5.78,16,5.65ZM7.2,16.36c.31-.09.37-.16.36-.42a1,1,0,0,0-.83-.84c.08.13.13.23.18.32a1.77,1.77,0,0,1,.26.41A3,3,0,0,1,7.2,16.36Zm7.63-1.9v-.13c0-.3,0-.59.33-.77.06,0,.07-.16.1-.25l-.06,0a2.38,2.38,0,0,0-.31.17.9.9,0,0,0-.41.86C14.53,14.49,14.62,14.56,14.83,14.46Zm-9.28,0c.26.1.29.08.35-.15a.92.92,0,0,0-.81-1c.08.13.12.25.2.3a.64.64,0,0,1,.26.5C5.56,14.22,5.55,14.34,5.55,14.45Zm8.09.65a1,1,0,0,0-.81.8c0,.31.06.42.38.45,0,0,0-.08,0-.12,0-.33,0-.64.31-.84C13.57,15.35,13.59,15.22,13.64,15.1Zm2-.24,0,.06c.1.05.23.08.28.16.16.25.37.15.56.08a.38.38,0,0,0,.25-.21.44.44,0,0,0-.15-.47C16.27,14.9,16.18,14.94,15.62,14.86ZM1.91,9.54l.09,0a1.11,1.11,0,0,1,.74-.84c-.15-.14-.31-.29-.49-.21A.61.61,0,0,0,2,8.87,3.71,3.71,0,0,0,1.91,9.54Zm7.82,9c-.33-.32-.55-.32-.71,0a1,1,0,0,0,0,.85A1.13,1.13,0,0,1,9.73,18.53Zm5.6-2,.08,0a3.31,3.31,0,0,0-.06-.7c0-.13-.18-.32-.29-.34s-.32.1-.48.16l0,.07A1.1,1.1,0,0,1,15.33,16.49Zm-11.45-2c-.19.19-.24.52-.08.6a1.45,1.45,0,0,0,.5.15c.06,0,.14-.1.22-.15L4.63,15l.17-.12,0-.06C4.38,15,4,14.92,3.88,14.48Zm14.22-2a.89.89,0,0,0,0-.73.63.63,0,0,0-.29-.33c-.17-.05-.33.08-.47.23A1.13,1.13,0,0,1,18.1,12.53ZM11,9.53a.86.86,0,0,0,0-.72.63.63,0,0,0-.28-.32c-.18-.06-.34.07-.47.22A1.17,1.17,0,0,1,11,9.53Zm-8.76,3H2.3A1.08,1.08,0,0,1,3,11.7c-.34-.36-.65-.31-.76.13A3.93,3.93,0,0,0,2.21,12.52Zm11,5.79h.08a3.82,3.82,0,0,0,0-.68c0-.14-.17-.34-.29-.37s-.32.09-.49.15v.07A1.07,1.07,0,0,1,13.23,18.31ZM3.39,14.66a2.72,2.72,0,0,1,.29-.5,2.69,2.69,0,0,1,.47-.34c-.29-.28-.5-.3-.65-.07A1.05,1.05,0,0,0,3.39,14.66Zm4.5,2.82c-.35-.36-.63-.31-.77.12a1.31,1.31,0,0,0,0,.78A1.1,1.1,0,0,1,7.89,17.48Zm9.76-8.83v.08a1.23,1.23,0,0,1,.77.83,1.67,1.67,0,0,0,0-.67c0-.15-.16-.35-.28-.38S17.81,8.6,17.65,8.65Zm-1.43,5.12v.07a1.21,1.21,0,0,1,.77.83A1.72,1.72,0,0,0,17,14a.56.56,0,0,0-.29-.37C16.56,13.59,16.38,13.71,16.22,13.77ZM3.49,6.23C3.23,6,3,5.92,2.84,6.12a1,1,0,0,0-.08,1A1.07,1.07,0,0,1,3.49,6.23Zm2.33,9.41-.24-.17a.32.32,0,0,0-.38,0,1,1,0,0,0-.12,1C5.11,16,5.44,15.83,5.82,15.64ZM16.91,6.23a1.2,1.2,0,0,1,.76.83,2.17,2.17,0,0,0,0-.62c-.1-.5-.38-.59-.76-.26C16.92,6.19,16.92,6.19,16.91,6.23ZM6.25,5.6c-.09,0-.14-.12-.21-.13a.6.6,0,0,0-.37,0,.73.73,0,0,0-.16.91C5.66,6,5.71,5.94,6.25,5.6Zm8.63.78h.06a2.24,2.24,0,0,0,0-.58.63.63,0,0,0-.3-.39c-.17-.08-.33.07-.5.21A1.14,1.14,0,0,1,14.88,6.38ZM7.58,18.07a1.19,1.19,0,0,0-.12.29c0,.14-.09.31.1.38a4.73,4.73,0,0,0,.63.18l0-.37C7.89,18.55,7.72,18.38,7.58,18.07Zm-4.15-5.3a.64.64,0,0,1-.69-.43c-.18.21-.22.51-.08.6a.71.71,0,0,0,.41.13C3.18,13.05,3.27,12.91,3.43,12.77ZM8.7,6.56s-.08-.09-.12-.1-.33-.14-.42-.08A.42.42,0,0,0,8,6.85c0,.1,0,.21-.07.32s0,.15,0,.22H8A1.08,1.08,0,0,1,8.7,6.56Zm3,0a1.22,1.22,0,0,1,.78.84.69.69,0,0,0,0-.25,1.92,1.92,0,0,0,0-.32,1.33,1.33,0,0,0-.17-.46s-.25,0-.38.06S11.75,6.51,11.68,6.56ZM10.34,19.12a.59.59,0,0,0,.12-.77.56.56,0,0,0-.68-.23C10.05,18.4,10.46,18.6,10.34,19.12Zm4.2-3.89a.57.57,0,0,0-.72.33.5.5,0,0,0,.15.65C13.86,15.72,14.28,15.52,14.54,15.23ZM17,12.77v.06c.11.08.21.22.33.23a.66.66,0,0,0,.41-.14c.13-.09.06-.42-.11-.57A.61.61,0,0,1,17,12.77ZM11.66,6.13c-.41,0-.65.09-.75.38a.5.5,0,0,0,.17.62C11,6.64,11.38,6.44,11.66,6.13Zm4.64.68a.55.55,0,0,1,.12-.58c.13-.15.28-.29.42-.43a.59.59,0,0,0-.71.32A.54.54,0,0,0,16.3,6.81ZM3.65,12.28a.56.56,0,0,0,.13-.73.58.58,0,0,0-.69-.27C3.34,11.57,3.76,11.76,3.65,12.28Zm8.8,4.79a.57.57,0,0,0-.71.28.53.53,0,0,0,.14.69C11.78,17.55,12.17,17.35,12.45,17.07ZM9.63,9.31a.53.53,0,0,1,.11-.59c.13-.15.28-.29.41-.43a.57.57,0,0,0-.68.28A.57.57,0,0,0,9.63,9.31Zm8-1a.6.6,0,0,0-.71.36.51.51,0,0,0,.17.65.52.52,0,0,1,.12-.55C17.3,8.59,17.44,8.45,17.59,8.29ZM5.85,15.22c.6.67.6.67.58,1a.57.57,0,0,0,.13-.7A.62.62,0,0,0,5.85,15.22Zm-1.07-.81a.55.55,0,0,0,.13-.71.58.58,0,0,0-.7-.28C4.48,13.71,4.89,13.91,4.78,14.41ZM4.1,6.83a.6.6,0,0,0,.13-.76.56.56,0,0,0-.68-.26C3.81,6.1,4.22,6.3,4.1,6.83Zm12.64,5.44c-.11-.5.31-.7.58-1-.39,0-.62.08-.73.34A.54.54,0,0,0,16.74,12.27Zm-9.9-6A.59.59,0,0,0,7,5.44a.55.55,0,0,0-.67-.22C6.55,5.5,7,5.7,6.84,6.22ZM3.35,9.32a.6.6,0,0,0,.1-.8.56.56,0,0,0-.66-.2C3.06,8.6,3.45,8.8,3.35,9.32Zm12.83,4.1a.57.57,0,0,0-.71.3.54.54,0,0,0,.14.69C15.5,13.91,15.91,13.71,16.18,13.42ZM8.75,6.13a3,3,0,0,1,.42.46,2,2,0,0,1,.19.52.56.56,0,0,0,.09-.66A.6.6,0,0,0,8.75,6.13Zm5.36-.93a.6.6,0,0,0-.72.32.54.54,0,0,0,.15.68C13.42,5.7,13.83,5.5,14.11,5.2ZM8,17.05l.64.82c.11-.08.14-.3,0-.53A.56.56,0,0,0,8,17.05ZM7.46,6.7c-.06.54-.45.62-.88.68A1,1,0,0,0,7.73,7a.19.19,0,0,0,0-.18A.91.91,0,0,0,7.46,6.7Zm5.47,0c-.14.11-.27.17-.29.26s.09.19.18.25a2.27,2.27,0,0,0,.54.27,1.45,1.45,0,0,0,.41,0V7.37C13.38,7.32,13,7.24,12.93,6.67ZM9,9.76c-.12.1-.26.16-.28.25s.1.19.18.25a1.69,1.69,0,0,0,.41.24.6.6,0,0,0,.58,0C9.43,10.41,9.06,10.31,9,9.76Zm-5.9.73a1,1,0,0,0,1.14-.35.18.18,0,0,0,0-.19A1,1,0,0,0,4,9.81C3.9,10.36,3.49,10.41,3.08,10.49ZM11,19.6c-.06.55-.46.62-.87.69a1.06,1.06,0,0,0,1.16-.37.16.16,0,0,0,0-.16A1.74,1.74,0,0,0,11,19.6ZM16.39,8V8c-.47-.11-.5-.13-.77-.66-.09.08-.22.14-.25.23s.09.18.16.23a2.77,2.77,0,0,0,.54.28A.82.82,0,0,0,16.39,8Zm-4.24,11.2c-.43-.06-.82-.15-.89-.7-.12.1-.26.16-.28.25s.1.18.18.25a1.65,1.65,0,0,0,.36.22A.67.67,0,0,0,12.15,19.23ZM4,8a1.32,1.32,0,0,0,.26.05A1.26,1.26,0,0,0,5,7.64a.21.21,0,0,0,0-.2c0-.06-.14-.08-.23-.13C4.67,7.77,4.35,7.89,4,8Zm12.45,1.8c-.1,0-.19.07-.23.12s-.07.17,0,.2a1.07,1.07,0,0,0,1.16.36C16.9,10.41,16.49,10.36,16.43,9.81Zm-13.81-4a1.7,1.7,0,0,1,1.53-.38A.28.28,0,0,0,4,5.31c-.24,0-.47,0-.7,0S2.74,5.39,2.62,5.79Zm15.14,0a.55.55,0,0,0-.65-.48c-.23,0-.47,0-.71,0a.77.77,0,0,0-.16.07l0,.07A1.57,1.57,0,0,1,17.76,5.78ZM13.35,17a.54.54,0,0,0-.6-.48c-.26,0-.52,0-.77,0-.05,0-.1.06-.14.1C12.39,16.65,12.91,16.57,13.35,17ZM8.52,16.7l0-.06c-.05,0-.1-.08-.15-.08l-.82,0a.5.5,0,0,0-.53.47C7.48,16.56,8,16.65,8.52,16.7Zm1.87,1s-.09-.11-.14-.11c-.25,0-.5,0-.75,0a.54.54,0,0,0-.63.48C9.3,17.62,9.82,17.69,10.39,17.72Zm5.07-2.5c-.12-.4-.33-.53-.65-.5s-.49,0-.74,0c-.05,0-.1,0-.15.09l0,.05A1.54,1.54,0,0,1,15.46,15.22Zm-2-10.45,0,.08a1.56,1.56,0,0,1,1.5.33.56.56,0,0,0-.67-.48c-.22,0-.46,0-.69,0A.55.55,0,0,0,13.49,4.77ZM3.31,13.38c.44-.46,1-.37,1.51-.35,0-.06-.08-.11-.12-.11-.28,0-.57,0-.84,0A.54.54,0,0,0,3.31,13.38Zm3.16,1.45s-.09-.1-.14-.1c-.28,0-.56,0-.84,0a.51.51,0,0,0-.53.46C5.36,14.83,5.49,14.81,6.47,14.83ZM15.56,13l0,.06a1.6,1.6,0,0,1,1.5.33c-.11-.39-.32-.52-.66-.48s-.47,0-.71,0C15.67,12.92,15.61,13,15.56,13ZM6.86,4.85l0,0s-.08-.09-.13-.09c-.28,0-.57,0-.85,0a.5.5,0,0,0-.51.46A1.55,1.55,0,0,1,6.86,4.85Zm4.21,3.41a.54.54,0,0,0-.61-.48c-.25,0-.51,0-.76,0,0,0-.09,0-.13.08l0,0A1.54,1.54,0,0,1,11.07,8.26Zm7.43,0a.53.53,0,0,0-.59-.48c-.25,0-.5,0-.75,0a.44.44,0,0,0-.16.06L17,8A1.54,1.54,0,0,1,18.5,8.27Zm-16.62,0c.43-.48,1-.39,1.51-.37a.26.26,0,0,0-.15-.1c-.25,0-.5,0-.74,0A.53.53,0,0,0,1.88,8.28Zm2.8,8.47a.75.75,0,0,0,1,.61.72.72,0,0,0-.27-.12.6.6,0,0,1-.54-.34C4.82,16.84,4.74,16.8,4.68,16.75Zm11.07,0-.05-.05a3.42,3.42,0,0,1-.42.43c-.15.13-.42,0-.56.21A.84.84,0,0,0,15.75,16.79ZM8.61,19.62l0,0a.8.8,0,0,0,1.08.55A2.23,2.23,0,0,1,9,20,1.9,1.9,0,0,1,8.61,19.62Zm9.6-8.37a.54.54,0,0,0-.63-.48c-.24,0-.49,0-.73,0a.79.79,0,0,0-.16.08l0,.07A1.52,1.52,0,0,1,18.21,11.25Zm-7.86-.87,0,.07a.8.8,0,0,0,1-.68,2.7,2.7,0,0,1-.44.45A2.51,2.51,0,0,1,10.35,10.38Zm-6.68.55,0-.07a.41.41,0,0,0-.17-.07c-.24,0-.49,0-.73,0a.53.53,0,0,0-.62.48A1.51,1.51,0,0,1,3.67,10.93Zm12.69,4.58a.75.75,0,0,0,1-.62,2.36,2.36,0,0,1-.44.45A2.28,2.28,0,0,1,16.36,15.51ZM7.59,7.66l0,0a.77.77,0,0,0,1,.53A2.25,2.25,0,0,1,8,8.07,2,2,0,0,1,7.59,7.66Zm6.08,10.88c-.11.08-.19.12-.23.19a.58.58,0,0,1-.52.34,1.4,1.4,0,0,0-.29.09A.78.78,0,0,0,13.67,18.54Zm-5.86.63a2.69,2.69,0,0,0-.32-.1.63.63,0,0,1-.55-.34c0-.07-.12-.11-.18-.16A.78.78,0,0,0,7.81,19.17Zm4-10.92,0,.06a.81.81,0,0,0,1-.63c-.07,0-.16.08-.19.14a.6.6,0,0,1-.54.34A.92.92,0,0,0,11.82,8.25Zm7,1.58c-.06.05-.14.08-.17.15a.6.6,0,0,1-.56.34.84.84,0,0,0-.25.09A.72.72,0,0,0,18.77,9.83ZM4,15.52a1.52,1.52,0,0,0-.28-.09.62.62,0,0,1-.53-.33c0-.07-.12-.11-.22-.2A.78.78,0,0,0,4,15.52Zm-1.45-5,0-.07a1.57,1.57,0,0,0-.29-.08A.58.58,0,0,1,1.8,10a.63.63,0,0,0-.19-.17A.79.79,0,0,0,2.58,10.47Zm15,2.82c.08.24.22.17.32.15a.81.81,0,0,0,.62-.69C18.22,13,18,13.39,17.57,13.29ZM2.8,13.4v-.05c-.17-.06-.35-.11-.52-.18s-.15-.36-.42-.35a.89.89,0,0,0,.75.63A.46.46,0,0,0,2.8,13.4Zm6.11,3.48c-.06.37.17.52.6.41Zm5.37-9.57,0,.06a.85.85,0,0,0,.76-.2s0-.09,0-.1Zm4.55,1.34-.07.85C19,9.39,19,9,18.83,8.65Zm-.37,3.81c.21-.1.25-.46.07-.84ZM2.31,6.13c-.18.38-.13.77.08.85Zm9.84-.35c0-.15,0-.17-.16-.16l-.81,0a.6.6,0,0,0-.15.09l0,0Zm-3.92,0H9.34l0-.06c-.06,0-.11-.06-.16-.07-.28,0-.55,0-.82,0S8.17,5.65,8.23,5.78ZM1.55,8.65c-.18.42-.13.75.08.83Zm3.08,7H4.54c0,.27-.15.57.07.81h.08ZM6.11,7.31l-.76-.24C5.29,7.27,5.71,7.45,6.11,7.31ZM1.86,11.63H1.77c0,.27-.14.57.08.81h.07ZM8.62,19.3l-.07-.85C8.37,18.86,8.41,19.18,8.62,19.3Zm7.23-3.7h-.09l-.06.8h.08C16,16.16,15.84,15.87,15.85,15.6Zm-4.45-7-.07.84C11.54,9.36,11.58,9,11.4,8.64Zm6.67-2.5L18,7C18.21,6.88,18.25,6.48,18.07,6.14Zm-15,8.47L3,13.76C2.81,14.14,2.85,14.49,3.06,14.61ZM6.71,17.4c-.17.33-.13.74.07.84ZM17.4,13.76l-.06.84C17.54,14.5,17.58,14.1,17.4,13.76ZM13.67,17.4l-.06.85C13.81,18.13,13.85,17.73,13.67,17.4ZM9.72,6l-.06,0,.13.27.26-.16Zm-5.6,6.25-.32.37C4,12.69,4,12.69,4.12,12.26Zm12.47.36-.29-.33C16.34,12.66,16.37,12.69,16.59,12.62Z"/></g></g></svg>