<svg xmlns="http://www.w3.org/2000/svg" viewBox="0 0 38.55 24.66"><defs><style>.cls-1{isolation:isolate;}.cls-2{opacity:0.15;}.cls-2,.cls-3{mix-blend-mode:multiply;}.cls-4{fill:#fff;}</style></defs><title>convert-CUSTOMIZE-SVG-03</title><g class="cls-1"><g id="Layer_1" data-name="Layer 1"><g class="cls-2"><path d="M5.1,20.54a.52.52,0,0,1,.15-.76,4.26,4.26,0,0,1,.83-.52,1.47,1.47,0,0,1,1.36.15,1.51,1.51,0,0,1,1.87.51,1.56,1.56,0,0,1,.33.75c0,.3.16.57.11.88s-.06.61-.11.92a1,1,0,0,1-.14.35c-.08.14-.19.25-.32.2a7.57,7.57,0,0,1-.6.65.82.82,0,0,1-.75.13,2.11,2.11,0,0,0-1,0c-.28.08-.4,0-.47-.3l-.06-.22a1.73,1.73,0,0,1-1.45-1C4.47,21.62,4.84,21.09,5.1,20.54ZM8,21.3a.84.84,0,0,0,.27-.78.32.32,0,0,0-.13-.22,1.75,1.75,0,0,0-1.07-.24,1.33,1.33,0,0,0-1.11,1.5A4.62,4.62,0,0,1,6.32,21a.92.92,0,0,1,1.61.24Zm-2.7-.47c-.24.42-.49.83-.21,1.33A1.6,1.6,0,0,0,6.13,23a.45.45,0,0,0-.21-.58A.81.81,0,0,1,5.64,22a3.23,3.23,0,0,1,0-.82C5.59,20.91,5.6,20.91,5.28,20.83Zm2.16,1.31a2.89,2.89,0,0,0,.37.27c.39.23.65.15.84-.27a1.69,1.69,0,0,0,0-1.36s0,0-.08-.07A1.48,1.48,0,0,1,7.44,22.14ZM7,21.1a.75.75,0,0,0-.61.57.94.94,0,0,0,.32,1,1.06,1.06,0,0,0,.93.14,9.17,9.17,0,0,1-.7-.69C6.56,21.71,6.58,21.47,7,21.1Zm.27-1.49A1.75,1.75,0,0,0,7,19.5a1.42,1.42,0,0,0-1.41.35c-.13.11-.37.22-.28.42s.28.21.43.32H5.8C5.91,19.74,6.54,19.66,7.23,19.61Zm1.65,3c-.62.86-1.48.72-2.34.59l.08.33c.22,0,.42-.06.62-.06a4.46,4.46,0,0,1,.63.05A.87.87,0,0,0,8.88,22.62Zm.43-2.06a1.28,1.28,0,0,0-1.62-1c.07.26.29.26.47.27a.78.78,0,0,1,.73.46A.38.38,0,0,0,9.31,20.56Zm0,2a3.49,3.49,0,0,0,.14-1.34A.29.29,0,0,0,9.16,21a6.71,6.71,0,0,0,0,.78C9.2,22,9.27,22.28,9.33,22.59Zm-1.81-1,0-.09-.32,0,0,.07c.06.06.13.18.18.17S7.44,21.64,7.52,21.58Z"/><path d="M29.46,1.58a1.33,1.33,0,0,1,.7-.77,1,1,0,0,1,.58,0,2.2,2.2,0,0,0,1,0c.28-.08.41,0,.48.29l.06.23a1.71,1.71,0,0,1,1.45,1c.35.64,0,1.17-.28,1.72a.53.53,0,0,1-.16.77,4.33,4.33,0,0,1-.82.51,1.45,1.45,0,0,1-1.35-.15,1.52,1.52,0,0,1-1.89-.53,1.65,1.65,0,0,1-.32-.72,4.61,4.61,0,0,1-.11-.9c.06-.31.07-.63.11-1a.87.87,0,0,1,.1-.25C29.12,1.65,29.23,1.51,29.46,1.58Zm1.15,1.69a.87.87,0,0,0-.3.74.28.28,0,0,0,.2.31,5.71,5.71,0,0,0,.71.19C32,4.65,32.67,4,32.62,3a1.29,1.29,0,0,1-1.18,1C31,4,30.76,3.67,30.61,3.27Zm1.84-1.7a.41.41,0,0,0,.17.56.59.59,0,0,1,.33.44,7.4,7.4,0,0,1,0,.82c0,.29,0,.32.32.35.22-.41.48-.81.21-1.3A1.65,1.65,0,0,0,32.45,1.57Zm-1.3.86c-.2-.12-.35-.24-.52-.32a.43.43,0,0,0-.63.18,1.38,1.38,0,0,0-.22.91,3.71,3.71,0,0,0,.12.65H30C30,3.08,30.47,2.7,31.15,2.43Zm.49,1a.7.7,0,0,0,.58-.57.93.93,0,0,0-.34-1,.94.94,0,0,0-.91-.1c.14.12.28.22.4.34a2.64,2.64,0,0,1,.36.39A.59.59,0,0,1,31.64,3.46ZM32.8,4c-.23.86-.6.93-1.51,1,.12.06.2.11.28.14a1.63,1.63,0,0,0,1.66-.57.21.21,0,0,0,0-.34A2.7,2.7,0,0,0,32.8,4ZM29.69,2c.62-.86,1.48-.72,2.34-.59L32,1c-.23,0-.43.06-.63.06a4.46,4.46,0,0,1-.63-.05A.87.87,0,0,0,29.69,2ZM29.25,4a1.3,1.3,0,0,0,1.63,1c-.07-.27-.31-.26-.51-.27a.73.73,0,0,1-.67-.43A.42.42,0,0,0,29.25,4Zm0-2h-.07a3.4,3.4,0,0,0-.12,1.27c0,.17.13.27.35.29Zm1.76,1,.06.11L31.42,3l-.14-.21Z"/><path d="M19,5.16a1,1,0,0,1-.9.12,1.57,1.57,0,0,1-1.21-1.07c-.06-.16-.2-.32-.06-.51,0,0,0,0,0-.06a2.4,2.4,0,0,1,.05-1.71c.09-.31.21-.37.47-.36A1.28,1.28,0,0,1,18,.82a.89.89,0,0,1,.58,0,2.28,2.28,0,0,0,1,0c.28-.08.4,0,.47.3l.06.22A1.66,1.66,0,0,1,21.3,4a.51.51,0,0,1-.14.75,4.26,4.26,0,0,1-.83.52A1.43,1.43,0,0,1,19,5.16ZM20.44,3a1.29,1.29,0,0,1-1.2,1c-.45,0-.66-.29-.8-.66a.78.78,0,0,0-.28.81c0,.24.25.25.42.32a1.14,1.14,0,0,0,.25.06A1.29,1.29,0,0,0,20.44,3Zm-.17-1.41a.46.46,0,0,0,.22.59.75.75,0,0,1,.28.42,2.48,2.48,0,0,1,0,.77c0,.31,0,.36.31.39.24-.41.48-.82.22-1.3A1.62,1.62,0,0,0,20.27,1.57Zm-1.34.81c-.19-.1-.38-.21-.59-.31a.33.33,0,0,0-.4.09,1.55,1.55,0,0,0-.2,1.63,3.7,3.7,0,0,1,.39-.8A4.41,4.41,0,0,1,18.93,2.38Zm.49,1.11c.33-.1.56-.25.62-.56a.94.94,0,0,0-.25-1,1.05,1.05,0,0,0-1-.2l.18.16a7.94,7.94,0,0,1,.59.57C19.83,2.87,19.8,3.15,19.42,3.49ZM19.15,5a1.92,1.92,0,0,0,.25.12,1.41,1.41,0,0,0,1.39-.33c.15-.12.4-.23.32-.43s-.3-.22-.45-.33L20.6,4C20.48,4.85,19.85,4.92,19.15,5ZM17.5,2c.62-.9,1.49-.76,2.35-.64-.07-.42,0-.31-.36-.29a4.09,4.09,0,0,1-1,0,.77.77,0,0,0-.71.23A1,1,0,0,0,17.5,2Zm-.42,2a1.3,1.3,0,0,0,1.63,1c-.07-.26-.29-.26-.48-.27a.76.76,0,0,1-.71-.45A.43.43,0,0,0,17.08,4Zm.21-.39L17.12,2c-.07,0-.1.08-.1.13,0,.35-.07.71-.09,1.07C16.91,3.45,17,3.58,17.29,3.62ZM18.88,3l.05.09.33,0,0-.07c-.07-.06-.14-.18-.19-.17S19,2.94,18.88,3Z"/><path d="M21.28,23a1.31,1.31,0,0,1-.68.76,1,1,0,0,1-.61,0,2.16,2.16,0,0,0-1,0c-.29.08-.41,0-.48-.31l-.06-.21a1.7,1.7,0,0,1-1.42-1,1.17,1.17,0,0,1,0-1.16c.09-.19.18-.37.26-.57,0,0,0-.1,0-.14a.49.49,0,0,1,.08-.54,2.24,2.24,0,0,1,1.13-.7,1.52,1.52,0,0,1,1.19.22,1.16,1.16,0,0,1,1.07-.07,1.72,1.72,0,0,1,1.15,1.33c-.11.28.14.53.09.82s-.05.57-.09.86a1.53,1.53,0,0,1-.14.41C21.62,22.94,21.5,23.08,21.28,23Zm-3.16-1.43c.4-.72.69-.95,1.23-.94s.64.3.78.66a.79.79,0,0,0,.29-.81c-.05-.24-.26-.25-.43-.32l-.27-.07A1.29,1.29,0,0,0,18.12,21.57ZM18.31,23a.51.51,0,0,0-.23-.6A.7.7,0,0,1,17.8,22a2.43,2.43,0,0,1,0-.76c0-.32,0-.34-.31-.41-.23.41-.49.82-.21,1.32A1.61,1.61,0,0,0,18.31,23Zm1.27-.86c.23.14.41.25.6.35a.38.38,0,0,0,.5-.14,1.6,1.6,0,0,0,.09-1.68A1.53,1.53,0,0,1,19.58,22.15Zm-.44-1a.74.74,0,0,0-.61.55.94.94,0,0,0,.25,1,1.07,1.07,0,0,0,1,.2l-.19-.16a7.94,7.94,0,0,1-.59-.57C18.74,21.71,18.77,21.43,19.14,21.1ZM18,20.58a.77.77,0,0,1,.49-.76c.3-.1.61-.14.92-.21a1.85,1.85,0,0,0-.24-.11,1.4,1.4,0,0,0-1.39.34c-.14.11-.39.22-.3.42s.29.22.45.33Zm.73,2.63c.08.44.05.33.36.3a6.06,6.06,0,0,1,.74,0,2.44,2.44,0,0,0,.6,0,.91.91,0,0,0,.63-.91C20.45,23.47,19.59,23.35,18.72,23.21Zm2.78-2.64a1.31,1.31,0,0,0-1.64-1c.08.27.31.26.51.27a.73.73,0,0,1,.67.43A.44.44,0,0,0,21.5,20.57Zm-.16.4c0,.27,0,.53,0,.79s.1.51.15.8a.51.51,0,0,0,.06-.15c0-.36.07-.71.09-1.07A.32.32,0,0,0,21.34,21Zm-2,.54,0,.08c.07.06.15.17.22.16s.12-.13.18-.2l0-.06Z"/><path d="M9.13,4.05A.52.52,0,0,1,9,4.79a2.14,2.14,0,0,1-1.1.6,1.56,1.56,0,0,1-1.11-.23,1.18,1.18,0,0,1-1.08.07A1.56,1.56,0,0,1,4.59,3.91a2.65,2.65,0,0,1-.11-.85c0-.29,0-.58.09-.88a1.36,1.36,0,0,1,.13-.37c.11-.22.18-.25.43-.25A1.27,1.27,0,0,1,5.86.8a.94.94,0,0,1,.55,0,2.3,2.3,0,0,0,1,0c.29-.08.42,0,.49.33A1.8,1.8,0,0,1,8,1.3a1.73,1.73,0,0,1,1.45,1C9.77,3,9.37,3.5,9.13,4.05ZM8.28,3a1.29,1.29,0,0,1-1.1.95c-.49.06-.75-.23-.92-.67a.88.88,0,0,0-.29.8c0,.25.26.29.44.34a2.21,2.21,0,0,0,.51.11A1.09,1.09,0,0,0,8,4,1.68,1.68,0,0,0,8.28,3ZM8.1,1.57c-.07.33,0,.4.23.6a.8.8,0,0,1,.28.44,2.11,2.11,0,0,1,0,.71c0,.32,0,.36.31.43.24-.41.48-.83.21-1.32A1.59,1.59,0,0,0,8.1,1.57Zm-1.28.84-.66-.34a.31.31,0,0,0-.38.09,1.53,1.53,0,0,0-.17,1.69C5.85,2.93,5.89,2.89,6.82,2.41Zm.43,1.08a.79.79,0,0,0,.64-.61,1,1,0,0,0-.35-1,1,1,0,0,0-.79-.16c.19.23.41.49.62.76S7.64,3.15,7.25,3.49ZM8.43,4c-.12.86-.77.92-1.45,1a1.58,1.58,0,0,0,.26.13,1.4,1.4,0,0,0,1.39-.34c.13-.11.31-.27.31-.41S8.67,4.06,8.48,4ZM5.34,2c.61-.87,1.47-.73,2.35-.6L7.6,1c-.22,0-.41.06-.61.06s-.41,0-.61,0A.87.87,0,0,0,5.34,2ZM4.91,4A1.28,1.28,0,0,0,6.54,5c-.08-.26-.31-.25-.5-.26a.76.76,0,0,1-.69-.45A.44.44,0,0,0,4.91,4Zm.16-.4c0-.28,0-.54,0-.8S5,2.31,4.91,2a3.43,3.43,0,0,0-.15,1.29A.34.34,0,0,0,5.07,3.61Zm2-.54,0-.08c-.07-.06-.15-.17-.21-.16S6.78,3,6.71,3l0,.07Z"/><path d="M30.61,23.27A1.59,1.59,0,0,1,29.23,21c.07-.13.14-.27.2-.41a.19.19,0,0,0,0-.12.47.47,0,0,1,.08-.56,2.23,2.23,0,0,1,1.21-.7,1.55,1.55,0,0,1,1.09.22,1.49,1.49,0,0,1,1.8.42,1.88,1.88,0,0,1,.4.83,3.56,3.56,0,0,1,.11.86c0,.29-.05.59-.09.88a1.35,1.35,0,0,1-.11.34c-.09.18-.2.33-.44.27a1.34,1.34,0,0,1-.7.76,1,1,0,0,1-.58,0,2.2,2.2,0,0,0-1,0c-.29.08-.42,0-.49-.31A2.25,2.25,0,0,0,30.61,23.27Zm1.7-2a.92.92,0,0,0,.3-.73.3.3,0,0,0-.22-.32,4.79,4.79,0,0,0-.81-.2,1.28,1.28,0,0,0-1.27,1.53,1.29,1.29,0,0,1,1.09-1C31.89,20.58,32.14,20.87,32.31,21.31Zm-2.68-.48c-.27.44-.51.89-.17,1.41a1.57,1.57,0,0,0,1,.77.51.51,0,0,0-.23-.6A.65.65,0,0,1,30,22a2.7,2.7,0,0,1,0-.75C30,20.94,30,20.91,29.63,20.83ZM33,20.72a1.56,1.56,0,0,1-1.2,1.42,4.93,4.93,0,0,0,.44.3.48.48,0,0,0,.75-.23A1.69,1.69,0,0,0,33,20.72Zm-1.69.4a.72.72,0,0,0-.6.61,1,1,0,0,0,.33.93,1,1,0,0,0,.87.16c-.23-.26-.49-.52-.71-.81A.56.56,0,0,1,31.28,21.12Zm-1.14-.54c.11-.85.76-.92,1.45-.95a1.11,1.11,0,0,0-.27-.13,1.38,1.38,0,0,0-1.38.34c-.13.11-.31.28-.31.42s.27.27.47.33Zm.74,2.63.09.36a2.11,2.11,0,0,1,1.29,0,.89.89,0,0,0,1-.92C32.62,23.47,31.77,23.35,30.88,23.21Zm2.78-2.64a1.28,1.28,0,0,0-1.63-1c.08.26.31.25.5.26a.75.75,0,0,1,.69.45A.44.44,0,0,0,33.66,20.57Zm-.21.4.17,1.56h.07a3.12,3.12,0,0,0,.1-1.32C33.77,21.05,33.64,21,33.45,21Zm-1.59.61,0-.09-.34,0,0,.07c.07.06.14.18.19.17S31.79,21.64,31.86,21.58Z"/><path d="M2.79,19.39l.35.05c.38.08.4.09.44.47a2.29,2.29,0,0,1,0,.64.83.83,0,0,1-.15.35.48.48,0,0,1-.5.24.41.41,0,0,1-.34-.36.38.38,0,0,0-.35-.36.41.41,0,0,1-.38-.35.47.47,0,0,1,.26-.49c.21-.09.43-.15.65-.22Z"/><path d="M14.66,5.21c-.17-.06-.39-.12-.59-.21a.46.46,0,0,1-.26-.48.41.41,0,0,1,.36-.36.38.38,0,0,0,.37-.36.41.41,0,0,1,.34-.36.5.5,0,0,1,.49.23A1.43,1.43,0,0,1,15.44,5a.2.2,0,0,1-.13.08Z"/><path d="M24.12,20.5c0,.11-.06.22-.1.33a.44.44,0,0,1-.79.12,1.26,1.26,0,0,1-.19-1.1c.07-.32.08-.36.42-.4a3.31,3.31,0,0,1,.77,0,.78.78,0,0,1,.33.16.42.42,0,0,1-.11.78A1.59,1.59,0,0,1,24.12,20.5Z"/><path d="M35.81,5.22C35,5.12,35,5.1,35,4.28a1.33,1.33,0,0,1,.2-.62.44.44,0,0,1,.47-.22.39.39,0,0,1,.34.34c.05.22.13.35.37.38a.41.41,0,0,1,.37.36.45.45,0,0,1-.26.47A4.41,4.41,0,0,1,35.81,5.22Z"/><path d="M15.83,20.32a3.1,3.1,0,0,1-.26.61.43.43,0,0,1-.79-.1.61.61,0,0,1,0-.18.2.2,0,0,0-.19-.19c-.32-.06-.49-.2-.51-.4a.59.59,0,0,1,.45-.58,1.66,1.66,0,0,1,1.1,0,.26.26,0,0,1,.12.15C15.75,19.85,15.78,20.05,15.83,20.32Z"/><path d="M10.78,20.25c.12-.78.11-.8.89-.83a1.62,1.62,0,0,1,.67.17.44.44,0,0,1,.25.48.41.41,0,0,1-.36.35.38.38,0,0,0-.37.36.39.39,0,0,1-.34.36.47.47,0,0,1-.5-.25C10.92,20.69,10.86,20.46,10.78,20.25Z"/><path d="M23.71,5.18c-.87-.07-.88-.07-.92-.84a1.57,1.57,0,0,1,.2-.68.44.44,0,0,1,.46-.22c.2,0,.29.16.35.33a.74.74,0,0,1,0,.14.21.21,0,0,0,.21.21c.3,0,.47.2.49.4a.56.56,0,0,1-.41.56A2.69,2.69,0,0,1,23.71,5.18Z"/><path d="M26.83,5.21A4.11,4.11,0,0,1,26.21,5,.42.42,0,0,1,26,4.5a.38.38,0,0,1,.33-.33.42.42,0,0,0,.4-.4.37.37,0,0,1,.34-.33.51.51,0,0,1,.48.22A1.52,1.52,0,0,1,27.62,5a.22.22,0,0,1-.14.09C27.29,5.13,27.1,5.16,26.83,5.21Z"/><path d="M28,20.29a4.41,4.41,0,0,1-.23.62.45.45,0,0,1-.49.23.4.4,0,0,1-.33-.35.41.41,0,0,0-.38-.38.39.39,0,0,1-.35-.32.5.5,0,0,1,.21-.48,1.55,1.55,0,0,1,1.36-.09.34.34,0,0,1,.09.14C27.91,19.84,27.94,20,28,20.29Z"/><path d="M10.58,4.29a4.08,4.08,0,0,1,.23-.63.46.46,0,0,1,.5-.22.39.39,0,0,1,.32.35.4.4,0,0,0,.37.37.4.4,0,0,1,.36.34.48.48,0,0,1-.25.5,1.48,1.48,0,0,1-1.3.06c-.05,0-.09-.09-.1-.14S10.63,4.55,10.58,4.29Z"/><path d="M35.13,20.22c.12-.75.1-.76.86-.8a1.49,1.49,0,0,1,.68.17.44.44,0,0,1,.26.49.4.4,0,0,1-.36.34.4.4,0,0,0-.37.36.4.4,0,0,1-.35.36.46.46,0,0,1-.48-.24A5,5,0,0,1,35.13,20.22Z"/><path d="M3.39,4.35c-.06.76-.05.78-.82.81A1.63,1.63,0,0,1,1.89,5a.44.44,0,0,1-.25-.48A.39.39,0,0,1,2,4.16a.41.41,0,0,0,.38-.38.39.39,0,0,1,.33-.34.44.44,0,0,1,.47.22,4.93,4.93,0,0,1,.27.67Z"/><path d="M24.81,18.19a.27.27,0,0,1-.29-.27.28.28,0,0,1,.3-.29.3.3,0,0,1,.28.29A.29.29,0,0,1,24.81,18.19Z"/><path d="M13.76,7a.3.3,0,0,1-.29-.28.29.29,0,0,1,.31-.28.27.27,0,0,1,.27.29A.28.28,0,0,1,13.76,7Z"/><path d="M13.74,18.19a.28.28,0,0,1,0-.56.28.28,0,1,1,0,.56Z"/><path d="M37,18.19a.28.28,0,0,1-.29-.28.29.29,0,0,1,.3-.28.3.3,0,0,1,.28.29A.28.28,0,0,1,37,18.19Z"/><path d="M37,6.39a.29.29,0,0,1,.29.27A.29.29,0,0,1,37,7a.29.29,0,0,1-.28-.29A.28.28,0,0,1,37,6.39Z"/><path d="M3.85,22.33a.29.29,0,0,1-.29-.28.3.3,0,0,1,.29-.28.28.28,0,1,1,0,.56Z"/><path d="M34.73,2.81a.28.28,0,1,1,0-.56.29.29,0,0,1,.29.28A.29.29,0,0,1,34.73,2.81Z"/><path d="M1.6,6.39a.28.28,0,0,1,.28.28A.29.29,0,0,1,1.59,7a.28.28,0,0,1-.28-.3A.27.27,0,0,1,1.6,6.39Z"/><path d="M1.59,17.63a.29.29,0,0,1,.29.27.29.29,0,1,1-.57,0A.29.29,0,0,1,1.59,17.63Z"/><path d="M25.1,6.67a.3.3,0,0,1-.29.28.29.29,0,0,1-.29-.3.29.29,0,0,1,.58,0Z"/><path d="M3.8,2.54a.28.28,0,0,1-.29.27.3.3,0,0,1-.29-.28.29.29,0,0,1,.31-.28A.27.27,0,0,1,3.8,2.54Z"/><path d="M11,22.05a.27.27,0,0,1-.28.28.28.28,0,0,1-.29-.27.28.28,0,0,1,.29-.29A.28.28,0,0,1,11,22.05Z"/><path d="M16,21.77a.28.28,0,1,1-.28.28A.27.27,0,0,1,16,21.77Z"/><path d="M22.89,22.33a.28.28,0,1,1,0-.56.28.28,0,0,1,.28.28A.27.27,0,0,1,22.89,22.33Z"/><path d="M35.35,22.05a.29.29,0,0,1-.28.28.27.27,0,0,1-.3-.26.28.28,0,0,1,.29-.3A.29.29,0,0,1,35.35,22.05Z"/><path d="M28.14,2.53a.29.29,0,0,1-.29.28.27.27,0,0,1-.28-.3.27.27,0,0,1,.29-.26A.27.27,0,0,1,28.14,2.53Z"/><path d="M22.83,2.53a.28.28,0,0,1-.56,0,.28.28,0,1,1,.56,0Z"/><path d="M15.67,2.81a.28.28,0,0,1,0-.56.26.26,0,0,1,.28.29A.27.27,0,0,1,15.67,2.81Z"/><path d="M12.92,6.67a.27.27,0,0,1-.28.28.28.28,0,1,1,0-.56A.27.27,0,0,1,12.92,6.67Z"/><path d="M26.22,17.9a.28.28,0,0,1-.27.29.26.26,0,0,1-.29-.26.27.27,0,0,1,.27-.3A.28.28,0,0,1,26.22,17.9Z"/><path d="M25.94,7a.28.28,0,1,1,0-.56.28.28,0,1,1,0,.56Z"/><path d="M12.92,17.91a.27.27,0,0,1-.28.28.28.28,0,1,1,0-.56A.27.27,0,0,1,12.92,17.91Z"/><path d="M28.48,22a.29.29,0,0,1-.27.29.27.27,0,0,1-.3-.26.28.28,0,0,1,.28-.3A.29.29,0,0,1,28.48,22Z"/><path d="M10.66,2.52a.27.27,0,0,1-.27.29.29.29,0,0,1-.3-.28.28.28,0,0,1,.29-.28A.27.27,0,0,1,10.66,2.52Z"/><path d="M5.3,20.73A.51.51,0,0,1,5.45,20a3.74,3.74,0,0,1,.83-.52,1.42,1.42,0,0,1,1.35.15,1.51,1.51,0,0,1,1.88.51,1.57,1.57,0,0,1,.33.74c0,.31.16.58.11.89s-.06.61-.11.92A1.17,1.17,0,0,1,9.7,23c-.08.14-.19.25-.32.2a6.19,6.19,0,0,1-.6.64A.8.8,0,0,1,8,24a2.11,2.11,0,0,0-1,0c-.28.07-.4,0-.48-.3,0-.07,0-.15,0-.22a1.7,1.7,0,0,1-1.45-1C4.66,21.82,5,21.29,5.3,20.73Zm2.87.77a.84.84,0,0,0,.28-.78.36.36,0,0,0-.13-.22,1.76,1.76,0,0,0-1.07-.24,1.33,1.33,0,0,0-1.11,1.5,5.64,5.64,0,0,1,.38-.57.92.92,0,0,1,1.61.25S8.16,21.47,8.17,21.5ZM5.48,21c-.24.43-.49.84-.21,1.34a1.6,1.6,0,0,0,1.06.85.45.45,0,0,0-.21-.58.8.8,0,0,1-.28-.4,3.13,3.13,0,0,1,0-.81C5.79,21.11,5.8,21.11,5.48,21Zm2.15,1.32a3.88,3.88,0,0,0,.38.27c.39.23.65.14.84-.28a1.67,1.67,0,0,0,0-1.35s0,0-.08-.07A1.49,1.49,0,0,1,7.63,22.34Zm-.47-1a.74.74,0,0,0-.61.57.94.94,0,0,0,.32,1A1.06,1.06,0,0,0,7.8,23a9.42,9.42,0,0,1-.71-.7C6.76,21.91,6.78,21.67,7.16,21.3Zm.27-1.49-.24-.11a1.42,1.42,0,0,0-1.41.35c-.13.11-.37.22-.28.41s.28.22.43.33H6C6.11,19.94,6.74,19.86,7.43,19.81Zm1.65,3c-.62.86-1.48.72-2.34.59l.07.33c.23,0,.43-.06.63-.06a2.68,2.68,0,0,1,.63.05A.87.87,0,0,0,9.08,22.82Zm.43-2.06a1.28,1.28,0,0,0-1.62-1c.07.25.29.26.47.27a.78.78,0,0,1,.73.46A.39.39,0,0,0,9.51,20.76Zm0,2a3.44,3.44,0,0,0,.14-1.33.29.29,0,0,0-.31-.27,6.74,6.74,0,0,0,0,.78A5.62,5.62,0,0,0,9.53,22.78Zm-1.81-1,0-.09-.32,0,0,.06c.06.07.13.19.18.18S7.64,21.84,7.72,21.78Z"/><path d="M29.66,1.77a1.34,1.34,0,0,1,.7-.76,1,1,0,0,1,.58,0,2.34,2.34,0,0,0,1,0c.28-.08.41,0,.48.29l.06.23a1.72,1.72,0,0,1,1.45,1c.35.64,0,1.18-.28,1.73a.53.53,0,0,1-.16.77,4.33,4.33,0,0,1-.82.51,1.45,1.45,0,0,1-1.35-.15,1.54,1.54,0,0,1-1.9-.53,1.63,1.63,0,0,1-.31-.72A4.62,4.62,0,0,1,29,3.21c.05-.31.07-.62.11-.94a.87.87,0,0,1,.1-.25C29.32,1.85,29.43,1.71,29.66,1.77Zm1.14,1.7a.89.89,0,0,0-.29.74.29.29,0,0,0,.2.31c.23.07.47.14.71.19.8.13,1.45-.52,1.4-1.55a1.28,1.28,0,0,1-1.18,1C31.18,4.17,31,3.87,30.8,3.47Zm1.85-1.7c-.09.26,0,.44.17.55a.57.57,0,0,1,.32.45,5.49,5.49,0,0,1,0,.81c0,.3,0,.33.31.36.23-.41.49-.81.21-1.3A1.61,1.61,0,0,0,32.65,1.77Zm-1.3.86a4.61,4.61,0,0,0-.52-.32.43.43,0,0,0-.63.18,1.43,1.43,0,0,0-.23.9c0,.22.08.44.12.66h.08C30.18,3.28,30.67,2.9,31.35,2.63Zm.49,1a.7.7,0,0,0,.58-.58.91.91,0,0,0-.34-1,1,1,0,0,0-.91-.1,4.47,4.47,0,0,1,.4.34,3.33,3.33,0,0,1,.36.39A.59.59,0,0,1,31.84,3.66Zm1.16.5c-.23.85-.6.93-1.51,1a1.61,1.61,0,0,0,.28.13,1.63,1.63,0,0,0,1.66-.56.22.22,0,0,0,0-.35C33.27,4.29,33.14,4.23,33,4.16Zm-3.11-2c.62-.86,1.48-.72,2.34-.6l-.08-.32c-.22,0-.42.06-.62.06a4.34,4.34,0,0,1-.63-.05A.86.86,0,0,0,29.89,2.16Zm-.45,2.05a1.32,1.32,0,0,0,1.64,1c-.07-.27-.31-.26-.51-.27a.74.74,0,0,1-.67-.43A.44.44,0,0,0,29.44,4.21Zm0-2h-.07a3.4,3.4,0,0,0-.12,1.27c0,.17.13.27.35.29Zm1.76,1,.06.11.31-.09L31.48,3Z"/><path d="M19.15,5.36a1,1,0,0,1-.9.11A1.55,1.55,0,0,1,17,4.41c-.06-.16-.2-.32-.06-.51,0,0,0,0,0-.06A2.4,2.4,0,0,1,17,2.13c.09-.31.21-.38.47-.36A1.32,1.32,0,0,1,18.18,1a.86.86,0,0,1,.57,0A2.33,2.33,0,0,0,19.8,1c.28-.08.4,0,.47.3l.06.22A1.66,1.66,0,0,1,21.5,4.24c.16.33.14.52-.14.74a3.88,3.88,0,0,1-.83.53A1.42,1.42,0,0,1,19.15,5.36Zm1.49-2.18a1.29,1.29,0,0,1-1.2,1c-.45,0-.66-.29-.8-.66a.8.8,0,0,0-.29.81c0,.23.26.25.43.32a2.27,2.27,0,0,0,.25.06A1.29,1.29,0,0,0,20.64,3.18Zm-.17-1.42a.47.47,0,0,0,.22.6.81.81,0,0,1,.28.42,2.48,2.48,0,0,1,0,.77c0,.31,0,.36.31.39.24-.41.48-.82.22-1.3A1.66,1.66,0,0,0,20.47,1.76Zm-1.34.82c-.19-.1-.38-.21-.59-.31a.33.33,0,0,0-.4.09A1.55,1.55,0,0,0,17.94,4a3.3,3.3,0,0,1,.39-.8A4.41,4.41,0,0,1,19.13,2.58Zm.49,1.11a.77.77,0,0,0,.62-.56A.93.93,0,0,0,20,2.18,1.07,1.07,0,0,0,19,2l.19.16a7.94,7.94,0,0,1,.59.57C20,3.07,20,3.35,19.62,3.69Zm-.27,1.47a1.92,1.92,0,0,0,.25.12A1.42,1.42,0,0,0,21,5c.15-.12.39-.23.31-.43s-.29-.22-.45-.33l-.05,0C20.68,5.05,20,5.12,19.35,5.16Zm-1.65-3c.62-.9,1.49-.76,2.35-.64-.08-.42-.05-.32-.36-.29a4.67,4.67,0,0,1-1,0,.77.77,0,0,0-.71.23A1,1,0,0,0,17.7,2.2Zm-.42,2a1.3,1.3,0,0,0,1.63,1c-.07-.26-.29-.26-.49-.27a.76.76,0,0,1-.7-.45A.42.42,0,0,0,17.28,4.21Zm.21-.39-.17-1.58c-.07,0-.1.08-.1.13,0,.35-.07.71-.09,1.07S17.23,3.77,17.49,3.82Zm1.59-.62.05.09.33,0,0-.07c-.07-.06-.14-.18-.19-.17S19.15,3.14,19.08,3.2Z"/><path d="M21.48,23.2a1.31,1.31,0,0,1-.68.76.94.94,0,0,1-.62,0,2.25,2.25,0,0,0-1,0c-.29.08-.41,0-.49-.31a1.6,1.6,0,0,0-.05-.21,1.69,1.69,0,0,1-1.42-1,1.18,1.18,0,0,1,0-1.15c.09-.19.19-.37.27-.57a.21.21,0,0,0,0-.15.45.45,0,0,1,.08-.53,2.24,2.24,0,0,1,1.13-.7,1.49,1.49,0,0,1,1.18.22,1.18,1.18,0,0,1,1.08-.07A1.72,1.72,0,0,1,22,20.87c-.11.29.13.54.09.82s-.05.58-.09.87a1.53,1.53,0,0,1-.14.41C21.82,23.14,21.7,23.28,21.48,23.2Zm-3.16-1.43c.4-.72.69-.95,1.23-.94s.64.3.78.66a.78.78,0,0,0,.28-.81c0-.24-.25-.25-.42-.32l-.27-.07A1.29,1.29,0,0,0,18.32,21.77Zm.19,1.44a.51.51,0,0,0-.23-.6.7.7,0,0,1-.29-.42,2.68,2.68,0,0,1,0-.75c0-.33,0-.34-.31-.41-.23.41-.49.82-.21,1.31A1.58,1.58,0,0,0,18.51,23.21Zm1.27-.86c.23.13.41.25.6.35a.39.39,0,0,0,.5-.14A1.6,1.6,0,0,0,21,20.88,1.53,1.53,0,0,1,19.78,22.35Zm-.44-1.06c-.32.1-.55.25-.61.56a.94.94,0,0,0,.25.95,1.05,1.05,0,0,0,1,.2l-.18-.16a7.94,7.94,0,0,1-.59-.57C18.94,21.91,19,21.63,19.34,21.29Zm-1.16-.52a.77.77,0,0,1,.5-.75,7.21,7.21,0,0,1,.92-.21c-.07,0-.15-.08-.24-.11A1.42,1.42,0,0,0,18,20c-.14.12-.39.23-.31.43s.3.22.46.33Zm.74,2.64c.07.43,0,.33.36.3a6.06,6.06,0,0,1,.74,0,2,2,0,0,0,.6,0,.89.89,0,0,0,.63-.91C20.65,23.67,19.79,23.54,18.92,23.41Zm2.78-2.64a1.31,1.31,0,0,0-1.64-1c.08.27.31.26.51.27a.73.73,0,0,1,.67.43A.46.46,0,0,0,21.7,20.77Zm-.17.4c0,.27,0,.53,0,.78s.09.52.15.81a.51.51,0,0,0,.06-.15c0-.36.07-.71.09-1.07A.33.33,0,0,0,21.53,21.17Zm-2,.54,0,.08c.07.06.15.17.21.16s.13-.13.19-.2l0-.07Z"/><path d="M9.33,4.24A.53.53,0,0,1,9.19,5a2.25,2.25,0,0,1-1.1.6A1.61,1.61,0,0,1,7,5.36a1.18,1.18,0,0,1-1.08.07A1.56,1.56,0,0,1,4.79,4.11a2.4,2.4,0,0,1-.12-.85c0-.29,0-.59.1-.88A1.26,1.26,0,0,1,4.9,2c.11-.22.18-.25.42-.25A1.3,1.3,0,0,1,6.05,1a1,1,0,0,1,.56,0,2.29,2.29,0,0,0,1,0c.29-.08.42,0,.49.33,0,.06,0,.13.05.19a1.72,1.72,0,0,1,1.45,1C10,3.17,9.57,3.69,9.33,4.24ZM8.48,3.19a1.31,1.31,0,0,1-1.1.95c-.49.06-.75-.23-.92-.67a.88.88,0,0,0-.29.8c0,.25.25.28.44.34a2.89,2.89,0,0,0,.51.11A1.1,1.1,0,0,0,8.2,4.24,1.7,1.7,0,0,0,8.48,3.19ZM8.3,1.77c-.07.33,0,.4.23.6a.86.86,0,0,1,.28.44,2.41,2.41,0,0,1,0,.71c0,.32,0,.36.31.43.23-.41.48-.83.21-1.32A1.58,1.58,0,0,0,8.3,1.77ZM7,2.61c-.23-.13-.44-.25-.65-.35A.33.33,0,0,0,6,2.35a1.53,1.53,0,0,0-.17,1.7C6.05,3.12,6.08,3.09,7,2.61Zm.44,1.07a.77.77,0,0,0,.64-.6,1,1,0,0,0-.36-1A.94.94,0,0,0,7,2c.19.23.41.49.61.75A.6.6,0,0,1,7.45,3.68Zm1.17.52c-.11.86-.76.91-1.44.94a1.1,1.1,0,0,0,.26.14,1.4,1.4,0,0,0,1.39-.34c.13-.11.31-.28.31-.41s-.27-.27-.46-.34Zm-3.08-2c.6-.87,1.47-.73,2.35-.61L7.8,1.24c-.22,0-.42.06-.61.06a4.18,4.18,0,0,1-.61-.05A.88.88,0,0,0,5.54,2.17Zm-.43,2a1.28,1.28,0,0,0,1.62,1c-.07-.26-.3-.25-.49-.26a.75.75,0,0,1-.69-.45A.44.44,0,0,0,5.11,4.21Zm.16-.4a7.06,7.06,0,0,0,0-.8,7.63,7.63,0,0,0-.15-.78A3.43,3.43,0,0,0,5,3.52.33.33,0,0,0,5.27,3.81Zm2-.54,0-.08C7.25,3.13,7.17,3,7.11,3s-.13.13-.2.2l0,.06Z"/><path d="M30.81,23.47a1.59,1.59,0,0,1-1.38-2.29c.07-.14.14-.28.2-.42a.17.17,0,0,0,0-.11.47.47,0,0,1,.08-.57,2.33,2.33,0,0,1,1.2-.7,1.64,1.64,0,0,1,1.1.23,1.5,1.5,0,0,1,1.8.42,1.77,1.77,0,0,1,.39.82,3.26,3.26,0,0,1,.12.87c0,.29,0,.59-.09.88a1.38,1.38,0,0,1-.12.34c-.08.18-.19.33-.44.27A1.33,1.33,0,0,1,33,24a1,1,0,0,1-.58,0,2.24,2.24,0,0,0-1,0c-.28.08-.41,0-.48-.32C30.84,23.61,30.83,23.55,30.81,23.47Zm1.69-2a.86.86,0,0,0,.3-.73.3.3,0,0,0-.21-.33,4.64,4.64,0,0,0-.82-.19,1.27,1.27,0,0,0-1.26,1.52,1.27,1.27,0,0,1,1.09-1C32.08,20.78,32.34,21.07,32.5,21.51ZM29.82,21c-.26.45-.5.9-.16,1.41a1.56,1.56,0,0,0,1,.78.5.5,0,0,0-.23-.6.67.67,0,0,1-.28-.4,2.31,2.31,0,0,1,0-.74C30.16,21.14,30.15,21.1,29.82,21Zm3.35-.1A1.56,1.56,0,0,1,32,22.34a4.93,4.93,0,0,0,.44.3.47.47,0,0,0,.74-.23A1.66,1.66,0,0,0,33.17,20.92Zm-1.69.39a.72.72,0,0,0-.6.62.92.92,0,0,0,.33.92,1,1,0,0,0,.87.17c-.24-.27-.5-.52-.71-.81A.56.56,0,0,1,31.48,21.31Zm-1.14-.53c.11-.86.76-.92,1.45-1a1.11,1.11,0,0,0-.27-.13,1.38,1.38,0,0,0-1.38.34c-.14.11-.32.28-.31.41s.27.28.47.34Zm.74,2.63.09.36a2.11,2.11,0,0,1,1.29,0,.88.88,0,0,0,.95-.93C32.82,23.67,32,23.55,31.08,23.41Zm2.78-2.65a1.28,1.28,0,0,0-1.63-1c.08.25.31.24.5.26a.75.75,0,0,1,.69.44A.41.41,0,0,0,33.86,20.76Zm-.21.41.17,1.56h.07a3.06,3.06,0,0,0,.1-1.31C34,21.25,33.84,21.18,33.65,21.17Zm-1.59.61,0-.09-.34,0,0,.07c.07.06.14.18.19.17S32,21.84,32.06,21.78Z"/><path d="M3,19.59l.36.05c.38.07.4.09.44.46a2.83,2.83,0,0,1,0,.65.83.83,0,0,1-.15.35.48.48,0,0,1-.5.24A.41.41,0,0,1,2.79,21a.38.38,0,0,0-.35-.35.41.41,0,0,1-.38-.35.47.47,0,0,1,.26-.49A5,5,0,0,1,3,19.56Z"/><path d="M14.86,5.41a5.71,5.71,0,0,1-.6-.22A.44.44,0,0,1,14,4.72a.4.4,0,0,1,.36-.36A.39.39,0,0,0,14.74,4a.39.39,0,0,1,.34-.36.49.49,0,0,1,.49.23,1.46,1.46,0,0,1,.07,1.33.22.22,0,0,1-.14.08C15.31,5.33,15.12,5.36,14.86,5.41Z"/><path d="M24.31,20.7a1.7,1.7,0,0,1-.1.32.43.43,0,0,1-.78.13,1.27,1.27,0,0,1-.19-1.1c.06-.32.08-.36.42-.4a3.31,3.31,0,0,1,.77,0,.78.78,0,0,1,.33.16.43.43,0,0,1-.11.78C24.55,20.64,24.44,20.66,24.31,20.7Z"/><path d="M36,5.42c-.83-.11-.81-.12-.85-.94a1.37,1.37,0,0,1,.2-.63.45.45,0,0,1,.47-.21.39.39,0,0,1,.34.34.39.39,0,0,0,.37.38.41.41,0,0,1,.37.36.46.46,0,0,1-.26.47A4.88,4.88,0,0,1,36,5.42Z"/><path d="M16,20.51a2.88,2.88,0,0,1-.25.62A.43.43,0,0,1,15,21a1.06,1.06,0,0,1-.06-.19.19.19,0,0,0-.18-.18c-.33-.06-.49-.2-.51-.4a.58.58,0,0,1,.45-.58,1.63,1.63,0,0,1,1.09,0c.06,0,.11.09.13.15S16,20.25,16,20.51Z"/><path d="M11,20.45c.12-.78.11-.8.88-.83a1.63,1.63,0,0,1,.68.17.42.42,0,0,1,.24.48.39.39,0,0,1-.35.35.38.38,0,0,0-.37.36.4.4,0,0,1-.35.36.46.46,0,0,1-.49-.25C11.12,20.89,11.06,20.66,11,20.45Z"/><path d="M23.91,5.38C23,5.31,23,5.31,23,4.54a1.65,1.65,0,0,1,.19-.68.44.44,0,0,1,.47-.22c.2,0,.29.16.35.33a.57.57,0,0,1,0,.14.21.21,0,0,0,.21.21c.3,0,.46.2.48.4a.55.55,0,0,1-.4.56A3,3,0,0,1,23.91,5.38Z"/><path d="M27,5.41a6.53,6.53,0,0,1-.63-.24.45.45,0,0,1-.22-.47.37.37,0,0,1,.34-.33.43.43,0,0,0,.4-.4.37.37,0,0,1,.34-.33.5.5,0,0,1,.47.22,1.46,1.46,0,0,1,.08,1.33.21.21,0,0,1-.13.09Z"/><path d="M28.19,20.49a4.41,4.41,0,0,1-.23.62.46.46,0,0,1-.49.23.4.4,0,0,1-.33-.35.41.41,0,0,0-.39-.38.39.39,0,0,1-.34-.33.5.5,0,0,1,.21-.48A1.58,1.58,0,0,1,28,19.72a.25.25,0,0,1,.08.14C28.11,20,28.14,20.23,28.19,20.49Z"/><path d="M10.78,4.49A4.08,4.08,0,0,1,11,3.86a.46.46,0,0,1,.49-.22.4.4,0,0,1,.33.35.4.4,0,0,0,.37.37.4.4,0,0,1,.36.34.52.52,0,0,1-.25.5,1.48,1.48,0,0,1-1.3.06s-.09-.09-.11-.14S10.83,4.75,10.78,4.49Z"/><path d="M35.32,20.42c.13-.76.11-.77.87-.8a1.51,1.51,0,0,1,.68.16.46.46,0,0,1,.26.5.42.42,0,0,1-.36.34.39.39,0,0,0-.37.36.4.4,0,0,1-.35.36.46.46,0,0,1-.48-.24A5,5,0,0,1,35.32,20.42Z"/><path d="M3.59,4.55c-.06.76,0,.78-.83.81a1.71,1.71,0,0,1-.68-.17.46.46,0,0,1-.24-.48.39.39,0,0,1,.35-.35A.4.4,0,0,0,2.57,4a.4.4,0,0,1,.34-.34.43.43,0,0,1,.47.21,4,4,0,0,1,.26.68Z"/><path d="M25,18.39a.27.27,0,0,1-.28-.28.29.29,0,1,1,.57,0A.27.27,0,0,1,25,18.39Z"/><path d="M14,7.15a.3.3,0,0,1-.29-.28A.29.29,0,0,1,14,6.59a.27.27,0,0,1,.27.29A.29.29,0,0,1,14,7.15Z"/><path d="M13.94,18.39a.29.29,0,0,1-.27-.3.3.3,0,0,1,.31-.26.29.29,0,0,1,.27.31A.29.29,0,0,1,13.94,18.39Z"/><path d="M37.17,18.39a.27.27,0,0,1-.28-.28.28.28,0,0,1,.3-.28.28.28,0,0,1,.27.29A.27.27,0,0,1,37.17,18.39Z"/><path d="M37.18,6.59a.27.27,0,0,1,.28.27.28.28,0,0,1-.3.29.29.29,0,0,1-.27-.29A.28.28,0,0,1,37.18,6.59Z"/><path d="M4,22.53a.28.28,0,1,1,.3-.27A.29.29,0,0,1,4,22.53Z"/><path d="M34.92,3a.28.28,0,1,1,0-.55.29.29,0,0,1,.29.28A.28.28,0,0,1,34.92,3Z"/><path d="M1.8,6.59a.27.27,0,0,1,.28.28.29.29,0,0,1-.29.28.3.3,0,0,1-.29-.3A.28.28,0,0,1,1.8,6.59Z"/><path d="M1.79,17.83a.28.28,0,1,1-.29.28A.29.29,0,0,1,1.79,17.83Z"/><path d="M25.29,6.87a.29.29,0,0,1-.29.28.28.28,0,0,1-.28-.3.29.29,0,0,1,.57,0Z"/><path d="M4,2.74A.27.27,0,0,1,3.71,3a.28.28,0,0,1-.29-.27.29.29,0,0,1,.31-.28A.28.28,0,0,1,4,2.74Z"/><path d="M11.2,22.25a.27.27,0,0,1-.28.28.28.28,0,0,1-.29-.27.28.28,0,0,1,.29-.29A.27.27,0,0,1,11.2,22.25Z"/><path d="M16.22,22a.26.26,0,0,1,.28.28.27.27,0,0,1-.27.28.28.28,0,0,1-.29-.29A.27.27,0,0,1,16.22,22Z"/><path d="M23.09,22.53a.28.28,0,1,1,0-.56.28.28,0,1,1,0,.56Z"/><path d="M35.54,22.24a.29.29,0,0,1-.57,0,.27.27,0,0,1,.28-.3A.28.28,0,0,1,35.54,22.24Z"/><path d="M28.34,2.73a.28.28,0,0,1-.29.27.28.28,0,1,1,0-.55A.28.28,0,0,1,28.34,2.73Z"/><path d="M23,2.73a.27.27,0,0,1-.28.27.26.26,0,0,1-.28-.27.26.26,0,0,1,.29-.28A.27.27,0,0,1,23,2.73Z"/><path d="M15.87,3a.28.28,0,1,1,.29-.26A.26.26,0,0,1,15.87,3Z"/><path d="M13.11,6.87a.27.27,0,0,1-.27.28.28.28,0,0,1-.29-.29.27.27,0,0,1,.29-.27A.26.26,0,0,1,13.11,6.87Z"/><path d="M26.41,18.1a.27.27,0,0,1-.26.29.28.28,0,1,1,0-.56A.27.27,0,0,1,26.41,18.1Z"/><path d="M26.14,7.15a.28.28,0,1,1,0-.56.26.26,0,0,1,.29.28A.27.27,0,0,1,26.14,7.15Z"/><path d="M13.12,18.11a.29.29,0,0,1-.57,0,.29.29,0,0,1,.57,0Z"/><path d="M28.68,22.24a.29.29,0,0,1-.28.29.28.28,0,1,1,0-.56A.29.29,0,0,1,28.68,22.24Z"/><path d="M10.86,2.72a.25.25,0,0,1-.27.28.27.27,0,0,1-.3-.27.28.28,0,0,1,.28-.28A.27.27,0,0,1,10.86,2.72Z"/></g><g class="cls-3"><path d="M5,20.39a.51.51,0,0,1,.15-.75,3.74,3.74,0,0,1,.83-.52,1.42,1.42,0,0,1,1.35.15,1.51,1.51,0,0,1,1.88.51,1.53,1.53,0,0,1,.33.74c0,.31.16.58.11.89s-.06.61-.11.92a1.17,1.17,0,0,1-.14.35c-.08.14-.19.25-.32.2a6.19,6.19,0,0,1-.6.64.83.83,0,0,1-.75.14,2.11,2.11,0,0,0-1,0c-.28.07-.4,0-.48-.3,0-.07,0-.15,0-.22a1.7,1.7,0,0,1-1.45-1C4.32,21.48,4.7,21,5,20.39Zm2.87.77a.84.84,0,0,0,.28-.78A.36.36,0,0,0,8,20.16a1.76,1.76,0,0,0-1.07-.24,1.33,1.33,0,0,0-1.11,1.5,4.7,4.7,0,0,1,.38-.57.92.92,0,0,1,1.61.25S7.82,21.13,7.83,21.16Zm-2.69-.48c-.24.43-.49.84-.21,1.34A1.6,1.6,0,0,0,6,22.87a.45.45,0,0,0-.21-.58.8.8,0,0,1-.28-.4,3.13,3.13,0,0,1,0-.81C5.45,20.77,5.46,20.77,5.14,20.68ZM7.29,22a3.88,3.88,0,0,0,.38.27c.39.23.65.14.84-.28a1.67,1.67,0,0,0,0-1.35s0,0-.08-.07A1.49,1.49,0,0,1,7.29,22Zm-.47-1a.74.74,0,0,0-.61.57.94.94,0,0,0,.32,1,1.06,1.06,0,0,0,.93.14,9.42,9.42,0,0,1-.71-.7C6.42,21.57,6.44,21.33,6.82,21Zm.27-1.49-.24-.11a1.42,1.42,0,0,0-1.41.35c-.13.11-.37.22-.28.41s.28.22.43.33h.07C5.77,19.6,6.4,19.52,7.09,19.47Zm1.65,3c-.62.86-1.48.72-2.34.59l.07.33c.23,0,.43-.06.63-.06a2.68,2.68,0,0,1,.63.05A.87.87,0,0,0,8.74,22.48Zm.43-2.06a1.28,1.28,0,0,0-1.62-1c.07.25.29.26.47.27a.76.76,0,0,1,.72.46A.41.41,0,0,0,9.17,20.42Zm0,2a3.44,3.44,0,0,0,.14-1.33A.29.29,0,0,0,9,20.84a6.74,6.74,0,0,0,0,.78A5.62,5.62,0,0,0,9.19,22.44Zm-1.82-1,0-.09-.32,0,0,.06c.06.07.13.19.18.18S7.3,21.5,7.37,21.44Z"/><path d="M29.32,1.43A1.34,1.34,0,0,1,30,.67a1,1,0,0,1,.58,0,2.34,2.34,0,0,0,1,0c.28-.08.41,0,.48.29l.06.23a1.72,1.72,0,0,1,1.45,1c.35.64,0,1.18-.28,1.73a.53.53,0,0,1-.16.77,4.33,4.33,0,0,1-.82.51A1.45,1.45,0,0,1,31,5a1.54,1.54,0,0,1-1.9-.53,1.63,1.63,0,0,1-.31-.72,4.62,4.62,0,0,1-.11-.91c.05-.31.07-.62.11-.94a.87.87,0,0,1,.1-.25C29,1.51,29.09,1.37,29.32,1.43Zm1.14,1.7a.89.89,0,0,0-.29.74.3.3,0,0,0,.2.31c.23.07.47.14.71.19.8.13,1.45-.52,1.4-1.55a1.28,1.28,0,0,1-1.18,1C30.84,3.83,30.62,3.53,30.46,3.13Zm1.85-1.7c-.09.26,0,.44.17.55a.57.57,0,0,1,.32.45,5.49,5.49,0,0,1,0,.81c0,.3,0,.33.31.36.23-.41.49-.82.21-1.3A1.61,1.61,0,0,0,32.31,1.43ZM31,2.29A4.61,4.61,0,0,0,30.49,2a.43.43,0,0,0-.63.18,1.43,1.43,0,0,0-.23.9c0,.22.08.44.12.66h.08C29.84,2.94,30.33,2.56,31,2.29Zm.48,1a.7.7,0,0,0,.59-.58.91.91,0,0,0-.34-1,1,1,0,0,0-.91-.1,4.47,4.47,0,0,1,.4.34,3.33,3.33,0,0,1,.36.39A.58.58,0,0,1,31.49,3.32Zm1.17.5c-.23.85-.6.93-1.51,1a1.61,1.61,0,0,0,.28.13,1.63,1.63,0,0,0,1.66-.56A.22.22,0,0,0,33,4C32.93,4,32.8,3.89,32.66,3.82Zm-3.11-2c.62-.86,1.48-.72,2.34-.6L31.81.9c-.22,0-.42.06-.62.06a4.34,4.34,0,0,1-.63,0A.86.86,0,0,0,29.55,1.82ZM29.1,3.87a1.32,1.32,0,0,0,1.64,1c-.07-.27-.31-.26-.51-.27a.74.74,0,0,1-.67-.43A.44.44,0,0,0,29.1,3.87Zm0-2h-.07A3.4,3.4,0,0,0,29,3.18c0,.17.13.27.35.29Zm1.76,1L31,3l.31-.09-.14-.2Z"/><path d="M18.81,5a1,1,0,0,1-.9.11A1.55,1.55,0,0,1,16.7,4.07c-.06-.16-.2-.32-.06-.51,0,0,0,0,0-.06a2.4,2.4,0,0,1,.05-1.71c.09-.31.21-.38.47-.36a1.32,1.32,0,0,1,.69-.76.86.86,0,0,1,.57,0,2.33,2.33,0,0,0,1.05,0c.28-.08.4,0,.47.3l.06.22A1.67,1.67,0,0,1,21.16,3.9c.16.33.14.52-.14.74a3.88,3.88,0,0,1-.83.53A1.45,1.45,0,0,1,18.81,5ZM20.3,2.84a1.29,1.29,0,0,1-1.2,1c-.45,0-.66-.29-.8-.66A.8.8,0,0,0,18,4c0,.23.26.25.43.32a2.27,2.27,0,0,0,.25.06A1.29,1.29,0,0,0,20.3,2.84Zm-.17-1.42a.47.47,0,0,0,.22.6.81.81,0,0,1,.28.42,2.48,2.48,0,0,1,0,.77c0,.31,0,.36.31.39.24-.41.48-.82.22-1.3A1.66,1.66,0,0,0,20.13,1.42Zm-1.34.82c-.19-.1-.38-.22-.59-.31a.33.33,0,0,0-.4.09,1.55,1.55,0,0,0-.2,1.63,3.3,3.3,0,0,1,.39-.8A4.41,4.41,0,0,1,18.79,2.24Zm.49,1.11a.77.77,0,0,0,.62-.56.93.93,0,0,0-.25-.95,1.07,1.07,0,0,0-1-.2l.19.16a7.94,7.94,0,0,1,.59.57C19.69,2.73,19.66,3,19.28,3.35ZM19,4.82a1.92,1.92,0,0,0,.25.12,1.42,1.42,0,0,0,1.39-.33c.14-.12.39-.23.31-.43s-.29-.22-.45-.33l-.05,0C20.34,4.71,19.7,4.78,19,4.82Zm-1.65-3C18,1,18.85,1.1,19.71,1.22,19.63.8,19.66.9,19.35.93a4.67,4.67,0,0,1-1,0,.77.77,0,0,0-.71.23A1,1,0,0,0,17.36,1.86Zm-.43,2a1.31,1.31,0,0,0,1.64,1c-.07-.26-.29-.26-.49-.27a.76.76,0,0,1-.7-.45A.42.42,0,0,0,16.93,3.87Zm.22-.39L17,1.9c-.07,0-.1.08-.1.13,0,.35-.07.71-.09,1.06S16.89,3.43,17.15,3.48Zm1.59-.62.05.09.33,0,0-.07c-.07-.06-.14-.18-.19-.17S18.81,2.8,18.74,2.86Z"/><path d="M21.14,22.86a1.31,1.31,0,0,1-.68.76.94.94,0,0,1-.62,0,2.25,2.25,0,0,0-1,0c-.29.08-.41,0-.49-.31a1.6,1.6,0,0,0-.05-.21,1.69,1.69,0,0,1-1.42-1A1.18,1.18,0,0,1,16.83,21c.09-.19.19-.37.27-.57a.21.21,0,0,0,0-.15.45.45,0,0,1,.08-.53,2.24,2.24,0,0,1,1.13-.7,1.49,1.49,0,0,1,1.18.22,1.18,1.18,0,0,1,1.08-.07,1.72,1.72,0,0,1,1.15,1.32c-.11.29.13.54.09.82s-.05.58-.09.87a1.53,1.53,0,0,1-.14.41C21.48,22.8,21.36,22.94,21.14,22.86ZM18,21.43c.4-.72.69-.95,1.23-.94s.64.3.78.66a.78.78,0,0,0,.28-.81c0-.24-.25-.25-.42-.32L19.58,20A1.29,1.29,0,0,0,18,21.43Zm.19,1.44a.51.51,0,0,0-.23-.6.7.7,0,0,1-.29-.42,2.68,2.68,0,0,1,0-.75c0-.33,0-.34-.31-.41-.24.41-.49.82-.22,1.31A1.62,1.62,0,0,0,18.17,22.87ZM19.44,22c.23.13.41.25.6.35a.39.39,0,0,0,.5-.14,1.6,1.6,0,0,0,.09-1.68A1.53,1.53,0,0,1,19.44,22ZM19,21c-.32.1-.55.25-.61.56a.94.94,0,0,0,.25.95,1.05,1.05,0,0,0,1,.2l-.18-.16a6.45,6.45,0,0,1-.59-.58C18.6,21.57,18.63,21.29,19,21Zm-1.16-.52a.77.77,0,0,1,.5-.75c.3-.1.61-.15.92-.22l-.24-.1a1.42,1.42,0,0,0-1.39.33c-.14.12-.39.23-.31.43s.3.22.46.33Zm.74,2.64c.07.43.05.33.36.3a4.56,4.56,0,0,1,.74,0,2,2,0,0,0,.6,0,.89.89,0,0,0,.63-.91C20.31,23.33,19.45,23.2,18.58,23.07Zm2.78-2.64a1.31,1.31,0,0,0-1.64-1c.08.27.31.25.51.27a.73.73,0,0,1,.67.43A.46.46,0,0,0,21.36,20.43Zm-.17.4c0,.27,0,.53,0,.78s.09.52.15.81a.51.51,0,0,0,.06-.15c0-.36.07-.71.09-1.07A.33.33,0,0,0,21.19,20.83Zm-2,.54,0,.08c.07.06.15.17.21.16s.13-.13.19-.2l0-.07Z"/><path d="M9,3.9a.53.53,0,0,1-.14.75,2.25,2.25,0,0,1-1.1.6A1.61,1.61,0,0,1,6.64,5a1.18,1.18,0,0,1-1.08.07A1.56,1.56,0,0,1,4.45,3.77a2.4,2.4,0,0,1-.12-.85c0-.29,0-.59.1-.88a1,1,0,0,1,.13-.37c.11-.22.17-.25.42-.25A1.3,1.3,0,0,1,5.71.66a1,1,0,0,1,.56,0,2.29,2.29,0,0,0,1,0c.29-.08.42,0,.49.33,0,.06,0,.13.05.19a1.72,1.72,0,0,1,1.45,1C9.63,2.83,9.23,3.35,9,3.9Zm-.85-1A1.31,1.31,0,0,1,7,3.8c-.5.06-.75-.23-.92-.67a.88.88,0,0,0-.29.8c0,.25.25.28.44.34a2.89,2.89,0,0,0,.51.11A1.1,1.1,0,0,0,7.86,3.9,1.7,1.7,0,0,0,8.14,2.85ZM8,1.43c-.07.33,0,.4.23.6a.86.86,0,0,1,.28.44,2.41,2.41,0,0,1,0,.71c0,.32,0,.36.31.43C9,3.2,9.29,2.78,9,2.29A1.58,1.58,0,0,0,8,1.43Zm-1.29.84C6.44,2.14,6.23,2,6,1.92A.33.33,0,0,0,5.64,2a1.53,1.53,0,0,0-.17,1.7C5.71,2.78,5.74,2.75,6.67,2.27Zm.44,1.07a.76.76,0,0,0,.63-.6,1,1,0,0,0-.35-1,.94.94,0,0,0-.78-.15c.19.23.41.49.61.75A.6.6,0,0,1,7.11,3.34Zm1.17.52c-.11.86-.76.91-1.44.94a1.1,1.1,0,0,0,.26.14A1.4,1.4,0,0,0,8.49,4.6c.13-.11.31-.28.31-.41s-.27-.27-.46-.34Zm-3.08-2C5.8,1,6.67,1.1,7.55,1.22L7.46.9C7.24.92,7,1,6.85,1a4.18,4.18,0,0,1-.61,0A.87.87,0,0,0,5.2,1.83Zm-.43,2a1.28,1.28,0,0,0,1.62,1c-.07-.26-.3-.25-.49-.26a.75.75,0,0,1-.69-.45A.44.44,0,0,0,4.77,3.87Zm.16-.4a7.06,7.06,0,0,0,0-.8,7.63,7.63,0,0,0-.15-.78,3.43,3.43,0,0,0-.15,1.29A.33.33,0,0,0,4.93,3.47Zm2-.54,0-.08c-.07-.06-.15-.17-.21-.17s-.13.13-.2.2l0,.06Z"/><path d="M30.47,23.13a1.59,1.59,0,0,1-1.38-2.29c.07-.14.14-.28.2-.42s0-.07,0-.11a.47.47,0,0,1,.08-.57,2.33,2.33,0,0,1,1.2-.7,1.64,1.64,0,0,1,1.1.23,1.5,1.5,0,0,1,1.8.42,1.77,1.77,0,0,1,.39.82,3.26,3.26,0,0,1,.12.87c0,.29-.05.59-.09.88a1.38,1.38,0,0,1-.12.34c-.08.18-.19.33-.44.27a1.33,1.33,0,0,1-.69.76,1,1,0,0,1-.58,0,2.24,2.24,0,0,0-1,0c-.28.08-.41,0-.48-.32C30.5,23.27,30.49,23.21,30.47,23.13Zm1.69-2a.86.86,0,0,0,.3-.73.3.3,0,0,0-.21-.33,4.64,4.64,0,0,0-.82-.19,1.27,1.27,0,0,0-1.26,1.52,1.27,1.27,0,0,1,1.09-1C31.74,20.44,32,20.73,32.16,21.17Zm-2.68-.49c-.26.45-.5.9-.16,1.41a1.56,1.56,0,0,0,1,.78.5.5,0,0,0-.23-.6.67.67,0,0,1-.28-.4,2.35,2.35,0,0,1,0-.75C29.82,20.8,29.81,20.76,29.48,20.68Zm3.34-.1A1.54,1.54,0,0,1,31.63,22a4.93,4.93,0,0,0,.44.3.47.47,0,0,0,.74-.23A1.63,1.63,0,0,0,32.82,20.58ZM31.14,21a.72.72,0,0,0-.6.62.92.92,0,0,0,.33.92,1,1,0,0,0,.87.17c-.24-.27-.5-.52-.71-.81A.56.56,0,0,1,31.14,21ZM30,20.44c.11-.86.76-.92,1.45-1a1.11,1.11,0,0,0-.27-.13,1.38,1.38,0,0,0-1.38.34c-.14.11-.32.28-.31.41s.27.28.47.34Zm.74,2.63.09.36a2.11,2.11,0,0,1,1.29,0,.88.88,0,0,0,1-.93C32.48,23.33,31.63,23.21,30.74,23.07Zm2.78-2.65a1.28,1.28,0,0,0-1.63-1c.08.25.31.24.5.26a.75.75,0,0,1,.69.44A.41.41,0,0,0,33.52,20.42Zm-.21.41.17,1.56h.07a3.09,3.09,0,0,0,.1-1.32C33.63,20.91,33.5,20.84,33.31,20.83Zm-1.59.61,0-.09-.34,0,0,.07c.07.06.14.18.19.17S31.65,21.5,31.72,21.44Z"/><path d="M2.64,19.25,3,19.3c.38.07.4.09.44.46a2.83,2.83,0,0,1,0,.65.83.83,0,0,1-.15.35.48.48,0,0,1-.5.24.41.41,0,0,1-.34-.37.38.38,0,0,0-.35-.35.41.41,0,0,1-.38-.35A.47.47,0,0,1,2,19.44a5,5,0,0,1,.65-.22Z"/><path d="M14.52,5.07a5.71,5.71,0,0,1-.6-.22.45.45,0,0,1-.25-.47A.4.4,0,0,1,14,4a.4.4,0,0,0,.37-.36.39.39,0,0,1,.34-.36.49.49,0,0,1,.49.23,1.46,1.46,0,0,1,.07,1.33.25.25,0,0,1-.14.08C15,5,14.78,5,14.52,5.07Z"/><path d="M24,20.36a1.7,1.7,0,0,1-.1.32.43.43,0,0,1-.78.13,1.27,1.27,0,0,1-.19-1.1c.06-.32.08-.36.42-.4a3.31,3.31,0,0,1,.77,0,.78.78,0,0,1,.33.16.43.43,0,0,1-.11.78C24.21,20.3,24.1,20.32,24,20.36Z"/><path d="M35.67,5.08c-.83-.11-.81-.12-.85-.94a1.37,1.37,0,0,1,.2-.63.45.45,0,0,1,.47-.21.39.39,0,0,1,.34.34A.39.39,0,0,0,36.2,4a.41.41,0,0,1,.37.36.46.46,0,0,1-.26.47A4.88,4.88,0,0,1,35.67,5.08Z"/><path d="M15.68,20.17a2.88,2.88,0,0,1-.25.62.43.43,0,0,1-.79-.1.6.6,0,0,1-.06-.19.19.19,0,0,0-.18-.18c-.33-.06-.49-.2-.51-.4a.58.58,0,0,1,.45-.58,1.63,1.63,0,0,1,1.09,0c.06,0,.11.09.13.15S15.63,19.91,15.68,20.17Z"/><path d="M10.64,20.11c.12-.78.11-.8.88-.83a1.63,1.63,0,0,1,.68.17.42.42,0,0,1,.24.48.37.37,0,0,1-.35.34c-.22.05-.34.14-.37.37a.4.4,0,0,1-.35.36.46.46,0,0,1-.49-.25C10.78,20.54,10.72,20.32,10.64,20.11Z"/><path d="M23.57,5C22.7,5,22.68,5,22.65,4.2a1.65,1.65,0,0,1,.19-.68.44.44,0,0,1,.47-.22c.2,0,.29.16.35.33a.57.57,0,0,1,0,.14.21.21,0,0,0,.21.21c.3.05.46.2.48.4a.55.55,0,0,1-.4.56A3,3,0,0,1,23.57,5Z"/><path d="M26.69,5.07a6.53,6.53,0,0,1-.63-.24.45.45,0,0,1-.22-.47A.37.37,0,0,1,26.18,4a.43.43,0,0,0,.4-.4.37.37,0,0,1,.34-.33.5.5,0,0,1,.47.22,1.46,1.46,0,0,1,.08,1.33.21.21,0,0,1-.13.09Z"/><path d="M27.85,20.15a4.41,4.41,0,0,1-.23.62.46.46,0,0,1-.49.23.4.4,0,0,1-.33-.35.41.41,0,0,0-.39-.38.39.39,0,0,1-.34-.33.5.5,0,0,1,.21-.48,1.58,1.58,0,0,1,1.36-.08.25.25,0,0,1,.08.14C27.77,19.7,27.8,19.89,27.85,20.15Z"/><path d="M10.44,4.14a4.41,4.41,0,0,1,.23-.62.46.46,0,0,1,.49-.22.4.4,0,0,1,.33.35.4.4,0,0,0,.37.37.4.4,0,0,1,.36.34.52.52,0,0,1-.25.5,1.48,1.48,0,0,1-1.3.06c-.05,0-.09-.09-.11-.14S10.49,4.41,10.44,4.14Z"/><path d="M35,20.08c.13-.76.11-.77.87-.81a1.67,1.67,0,0,1,.68.17.44.44,0,0,1,.25.5.4.4,0,0,1-.35.34.39.39,0,0,0-.37.36.4.4,0,0,1-.35.36.46.46,0,0,1-.48-.24A5,5,0,0,1,35,20.08Z"/><path d="M3.25,4.21C3.19,5,3.2,5,2.42,5a1.71,1.71,0,0,1-.68-.17.46.46,0,0,1-.24-.48A.39.39,0,0,1,1.85,4a.4.4,0,0,0,.38-.38.39.39,0,0,1,.34-.34A.43.43,0,0,1,3,3.51a5,5,0,0,1,.26.68Z"/><path d="M24.66,18.05a.27.27,0,0,1-.28-.28.29.29,0,1,1,.28.28Z"/><path d="M13.62,6.81a.3.3,0,0,1-.29-.28.29.29,0,0,1,.31-.28.27.27,0,0,1,.27.29A.29.29,0,0,1,13.62,6.81Z"/><path d="M13.6,18.05a.29.29,0,0,1-.27-.3.3.3,0,0,1,.31-.26.29.29,0,0,1,.27.31A.29.29,0,0,1,13.6,18.05Z"/><path d="M36.83,18.05a.27.27,0,0,1-.28-.28.28.28,0,0,1,.3-.28.28.28,0,0,1,.27.29A.27.27,0,0,1,36.83,18.05Z"/><path d="M36.84,6.25a.27.27,0,0,1,.28.27.28.28,0,0,1-.3.29.29.29,0,0,1-.27-.29A.28.28,0,0,1,36.84,6.25Z"/><path d="M3.7,22.19a.28.28,0,1,1,.3-.27A.29.29,0,0,1,3.7,22.19Z"/><path d="M34.58,2.66a.28.28,0,1,1,0-.55.29.29,0,0,1,.29.27A.28.28,0,0,1,34.58,2.66Z"/><path d="M1.46,6.25a.27.27,0,0,1,.28.28.3.3,0,0,1-.29.28.3.3,0,0,1-.29-.3A.28.28,0,0,1,1.46,6.25Z"/><path d="M1.45,17.49a.28.28,0,0,1,.29.27.29.29,0,1,1-.29-.27Z"/><path d="M25,6.53a.29.29,0,0,1-.29.28.28.28,0,0,1-.28-.3.29.29,0,0,1,.57,0Z"/><path d="M3.66,2.4a.27.27,0,0,1-.29.26.28.28,0,0,1-.29-.27.29.29,0,0,1,.31-.28A.28.28,0,0,1,3.66,2.4Z"/><path d="M10.86,21.91a.27.27,0,0,1-.28.28.28.28,0,0,1-.29-.27.28.28,0,0,1,.29-.29A.27.27,0,0,1,10.86,21.91Z"/><path d="M15.88,21.63a.26.26,0,0,1,.28.28.27.27,0,0,1-.27.28.28.28,0,0,1-.29-.29A.27.27,0,0,1,15.88,21.63Z"/><path d="M22.75,22.19a.28.28,0,1,1,0-.56.28.28,0,0,1,0,.56Z"/><path d="M35.2,21.9a.29.29,0,0,1-.57,0,.27.27,0,0,1,.28-.3A.28.28,0,0,1,35.2,21.9Z"/><path d="M28,2.39a.28.28,0,0,1-.29.27.28.28,0,1,1,0-.55A.28.28,0,0,1,28,2.39Z"/><path d="M22.69,2.39a.27.27,0,0,1-.28.27.26.26,0,0,1-.28-.27.26.26,0,0,1,.29-.28A.27.27,0,0,1,22.69,2.39Z"/><path d="M15.53,2.66a.28.28,0,1,1,.29-.26A.26.26,0,0,1,15.53,2.66Z"/><path d="M12.77,6.53a.27.27,0,0,1-.27.28.28.28,0,0,1-.29-.29.27.27,0,0,1,.29-.27A.26.26,0,0,1,12.77,6.53Z"/><path d="M26.07,17.76a.27.27,0,0,1-.26.29.28.28,0,1,1,0-.56A.27.27,0,0,1,26.07,17.76Z"/><path d="M25.8,6.81a.28.28,0,0,1,0-.56.26.26,0,0,1,.29.28A.27.27,0,0,1,25.8,6.81Z"/><path d="M12.77,17.77a.27.27,0,0,1-.27.28.28.28,0,0,1-.29-.27.27.27,0,0,1,.29-.29A.26.26,0,0,1,12.77,17.77Z"/><path d="M28.34,21.9a.29.29,0,0,1-.28.29.28.28,0,1,1,0-.56A.28.28,0,0,1,28.34,21.9Z"/><path d="M10.52,2.38a.25.25,0,0,1-.27.28.27.27,0,0,1-.3-.28.28.28,0,0,1,.28-.27A.27.27,0,0,1,10.52,2.38Z"/></g><path class="cls-4" d="M5.15,20.59a.52.52,0,0,1,.16-.75,3.74,3.74,0,0,1,.83-.52,1.42,1.42,0,0,1,1.35.15A1.51,1.51,0,0,1,9.37,20a1.63,1.63,0,0,1,.33.74c0,.31.16.58.11.88s-.06.62-.11.92a1.07,1.07,0,0,1-.14.35c-.08.14-.19.26-.32.21a7.5,7.5,0,0,1-.6.64.85.85,0,0,1-.76.14,2.07,2.07,0,0,0-1,0c-.28.07-.4,0-.48-.3,0-.07,0-.15,0-.22a1.72,1.72,0,0,1-1.45-1C4.52,21.68,4.9,21.15,5.15,20.59ZM8,21.35a.8.8,0,0,0,.27-.78.28.28,0,0,0-.12-.21,1.78,1.78,0,0,0-1.08-.24A1.31,1.31,0,0,0,6,21.62a3.33,3.33,0,0,1,.38-.57A.92.92,0,0,1,8,21.3Zm-2.69-.47c-.24.43-.5.84-.21,1.33a1.57,1.57,0,0,0,1.06.85A.46.46,0,0,0,6,22.48a.75.75,0,0,1-.29-.39,4.35,4.35,0,0,1-.05-.81C5.65,21,5.66,21,5.34,20.88ZM7.49,22.2c.14.1.25.19.38.27.39.23.65.14.84-.28a1.71,1.71,0,0,0,0-1.35s0,0-.08-.07A1.49,1.49,0,0,1,7.49,22.2ZM7,21.15c-.31.1-.55.26-.6.58a.94.94,0,0,0,.32,1,1.09,1.09,0,0,0,.93.14,9.42,9.42,0,0,1-.71-.7C6.62,21.77,6.64,21.53,7,21.15Zm.28-1.48-.24-.11a1.41,1.41,0,0,0-1.41.35c-.13.11-.37.21-.29.41s.29.22.44.32h.07C6,19.8,6.6,19.72,7.29,19.67Zm1.65,3c-.63.86-1.48.73-2.34.6l.07.33c.23,0,.43-.06.63-.07a3.36,3.36,0,0,1,.63.06A.88.88,0,0,0,8.94,22.67Zm.43-2.05a1.28,1.28,0,0,0-1.62-1c.06.25.29.25.47.26a.77.77,0,0,1,.72.46A.4.4,0,0,0,9.37,20.62Zm0,2a3.29,3.29,0,0,0,.14-1.34.29.29,0,0,0-.3-.27,6.91,6.91,0,0,0,0,.79A7.2,7.2,0,0,0,9.38,22.64Zm-1.81-1,0-.09H7.21l0,.07c.07.07.13.19.19.18S7.5,21.7,7.57,21.64Z"/><path class="cls-4" d="M29.52,1.63a1.28,1.28,0,0,1,.7-.76,1,1,0,0,1,.58,0,2.34,2.34,0,0,0,1,0c.28-.08.41,0,.48.29a1.74,1.74,0,0,1,.05.22,1.72,1.72,0,0,1,1.45,1c.36.64,0,1.17-.27,1.72a.52.52,0,0,1-.16.77,4.14,4.14,0,0,1-.82.51,1.44,1.44,0,0,1-1.36-.14A1.53,1.53,0,0,1,29.3,4.7,1.52,1.52,0,0,1,29,4a4.43,4.43,0,0,1-.11-.9c.05-.31.07-.63.11-.94a.77.77,0,0,1,.1-.25C29.18,1.71,29.29,1.56,29.52,1.63Zm1.14,1.7a.85.85,0,0,0-.29.74.3.3,0,0,0,.2.31,5.68,5.68,0,0,0,.71.18c.8.14,1.45-.51,1.39-1.54A1.26,1.26,0,0,1,31.5,4C31,4,30.82,3.73,30.66,3.33Zm1.85-1.71c-.09.27,0,.45.17.56a.57.57,0,0,1,.32.44,7.63,7.63,0,0,1,0,.82c0,.29,0,.33.31.36.23-.41.48-.82.21-1.31A1.64,1.64,0,0,0,32.51,1.62Zm-1.3.87a4.61,4.61,0,0,0-.52-.32.42.42,0,0,0-.63.18,1.43,1.43,0,0,0-.23.9c0,.22.08.44.12.65H30C30,3.14,30.52,2.76,31.21,2.49Zm.48,1a.7.7,0,0,0,.59-.58.93.93,0,0,0-.34-1A.94.94,0,0,0,31,1.87c.13.11.28.22.4.34a3.33,3.33,0,0,1,.36.39A.59.59,0,0,1,31.69,3.52Zm1.17.5c-.24.85-.6.93-1.51,1a1.33,1.33,0,0,0,.28.13,1.63,1.63,0,0,0,1.66-.56.22.22,0,0,0,0-.35C33.13,4.15,33,4.09,32.86,4ZM29.75,2c.62-.86,1.47-.72,2.34-.6L32,1.1c-.22,0-.42.06-.62.06a4.6,4.6,0,0,1-.64,0A.86.86,0,0,0,29.75,2ZM29.3,4.07a1.32,1.32,0,0,0,1.64,1c-.08-.27-.31-.26-.51-.27a.74.74,0,0,1-.67-.43A.44.44,0,0,0,29.3,4.07Zm.05-2h-.07a3.4,3.4,0,0,0-.12,1.27c0,.17.13.27.35.29Zm1.76.95.06.12.31-.09-.14-.2Z"/><path class="cls-4" d="M19,5.21a1,1,0,0,1-.89.12A1.55,1.55,0,0,1,16.9,4.27c-.06-.16-.2-.33-.06-.52,0,0,0,0,0,0a2.45,2.45,0,0,1,0-1.71c.1-.32.21-.38.48-.37A1.33,1.33,0,0,1,18,.87a.93.93,0,0,1,.57,0,2.33,2.33,0,0,0,1.05,0c.28-.08.4,0,.47.3l.06.22A1.67,1.67,0,0,1,21.36,4.1a.5.5,0,0,1-.15.74,3.44,3.44,0,0,1-.83.53A1.43,1.43,0,0,1,19,5.21ZM20.5,3a1.27,1.27,0,0,1-1.2,1c-.45,0-.66-.28-.8-.65a.79.79,0,0,0-.29.81c.05.23.26.25.43.32l.25.06A1.29,1.29,0,0,0,20.5,3Zm-.18-1.42a.5.5,0,0,0,.22.6.77.77,0,0,1,.29.42,2.81,2.81,0,0,1,0,.77c0,.31,0,.36.31.39.23-.41.48-.82.21-1.3A1.64,1.64,0,0,0,20.32,1.62ZM19,2.44l-.59-.32a.34.34,0,0,0-.4.1,1.55,1.55,0,0,0-.2,1.63A3.18,3.18,0,0,1,18.19,3,4.5,4.5,0,0,1,19,2.44Zm.49,1.11c.32-.11.55-.26.62-.56a1,1,0,0,0-.25-1,1.09,1.09,0,0,0-1-.19L19,2a6.35,6.35,0,0,1,.58.58C19.89,2.93,19.85,3.21,19.48,3.55ZM19.21,5l.25.11a1.4,1.4,0,0,0,1.39-.33c.14-.11.39-.22.31-.42s-.29-.22-.45-.33h-.06C20.54,4.91,19.9,5,19.21,5Zm-1.66-3c.63-.91,1.5-.76,2.36-.64-.08-.42-.05-.32-.37-.29a4,4,0,0,1-1,0,.8.8,0,0,0-.71.24A1.09,1.09,0,0,0,17.55,2.06Zm-.42,2a1.31,1.31,0,0,0,1.64,1c-.07-.26-.29-.26-.49-.27a.75.75,0,0,1-.7-.45A.43.43,0,0,0,17.13,4.07Zm.22-.39L17.17,2.1q-.09.06-.09.12c0,.36-.07.72-.1,1.07S17.09,3.63,17.35,3.68Zm1.59-.62,0,.09.33,0,0-.07c-.06-.06-.13-.18-.18-.17S19,3,18.94,3.06Z"/><path class="cls-4" d="M21.34,23.06a1.34,1.34,0,0,1-.68.76.94.94,0,0,1-.62,0,2.41,2.41,0,0,0-1,0c-.29.08-.41,0-.49-.31,0-.06,0-.13-.05-.2a1.7,1.7,0,0,1-1.43-1,1.2,1.2,0,0,1,0-1.15c.09-.19.19-.38.27-.57a.21.21,0,0,0,0-.15.45.45,0,0,1,.08-.53,2.24,2.24,0,0,1,1.13-.7,1.52,1.52,0,0,1,1.18.21,1.25,1.25,0,0,1,1.08-.07,1.79,1.79,0,0,1,1.15,1.33c-.12.29.13.54.09.82s0,.58-.09.86a1.24,1.24,0,0,1-.15.42C21.67,23,21.56,23.13,21.34,23.06Zm-3.16-1.43c.4-.73.69-.95,1.23-.94s.64.3.77.66a.78.78,0,0,0,.29-.81c0-.24-.25-.26-.43-.32l-.26-.07A1.29,1.29,0,0,0,18.18,21.63Zm.19,1.44a.51.51,0,0,0-.23-.6.7.7,0,0,1-.29-.42,3.12,3.12,0,0,1,0-.75c0-.33,0-.34-.3-.41-.24.41-.49.82-.22,1.31A1.62,1.62,0,0,0,18.37,23.07Zm1.27-.86c.23.13.4.25.6.34a.39.39,0,0,0,.5-.13,1.6,1.6,0,0,0,.09-1.68A1.54,1.54,0,0,1,19.64,22.21Zm-.44-1.06a.76.76,0,0,0-.62.56.94.94,0,0,0,.26.95,1.08,1.08,0,0,0,1,.2l-.18-.16a6.47,6.47,0,0,1-.59-.58C18.8,21.77,18.83,21.48,19.2,21.15ZM18,20.63a.77.77,0,0,1,.5-.75c.3-.1.61-.15.92-.22l-.24-.1a1.42,1.42,0,0,0-1.39.33c-.14.11-.39.23-.31.43s.3.22.46.33Zm.73,2.64c.08.43.06.33.37.29a5.93,5.93,0,0,1,.73,0,2.53,2.53,0,0,0,.61,0,.89.89,0,0,0,.63-.91C20.51,23.53,19.65,23.4,18.77,23.27Zm2.79-2.65a1.31,1.31,0,0,0-1.64-1c.07.26.31.25.51.27a.73.73,0,0,1,.67.43A.43.43,0,0,0,21.56,20.62Zm-.17.4a6.85,6.85,0,0,0,0,.79,6.68,6.68,0,0,0,.15.81c0-.07.05-.11.06-.15,0-.36.07-.71.09-1.07A.34.34,0,0,0,21.39,21Zm-2,.55,0,.07c.07.06.15.18.21.17s.13-.13.19-.2l0-.07Z"/><path class="cls-4" d="M9.19,4.1a.53.53,0,0,1-.14.75,2.25,2.25,0,0,1-1.1.6,1.6,1.6,0,0,1-1.11-.23,1.18,1.18,0,0,1-1.08.06A1.54,1.54,0,0,1,4.65,4a2.43,2.43,0,0,1-.12-.85c0-.29,0-.59.09-.88a1.18,1.18,0,0,1,.14-.37c.11-.22.17-.25.42-.25A1.35,1.35,0,0,1,5.91.85a1,1,0,0,1,.56,0,2.41,2.41,0,0,0,1,0c.3-.08.43,0,.5.32a1.17,1.17,0,0,0,0,.2,1.72,1.72,0,0,1,1.45,1C9.83,3,9.43,3.55,9.19,4.1Zm-.85-1A1.32,1.32,0,0,1,7.23,4c-.49.06-.74-.23-.91-.67a.87.87,0,0,0-.29.8c0,.25.25.28.43.34a2.39,2.39,0,0,0,.52.1,1.06,1.06,0,0,0,1.08-.48A1.65,1.65,0,0,0,8.34,3.05ZM8.16,1.63c-.07.32,0,.4.22.59a.84.84,0,0,1,.29.45,2.39,2.39,0,0,1,0,.71c0,.32,0,.36.3.43.24-.42.49-.83.22-1.32A1.58,1.58,0,0,0,8.16,1.63Zm-1.29.84c-.24-.13-.44-.25-.65-.35a.35.35,0,0,0-.39.09,1.55,1.55,0,0,0-.16,1.7C5.91,3,5.94,2.94,6.87,2.47Zm.44,1.07a.78.78,0,0,0,.63-.6,1,1,0,0,0-.35-1,.94.94,0,0,0-.78-.15c.19.23.41.49.61.75S7.7,3.2,7.31,3.54Zm1.17.52C8.37,4.91,7.72,5,7,5a.94.94,0,0,0,.26.14A1.4,1.4,0,0,0,8.68,4.8c.14-.11.32-.28.32-.41s-.27-.28-.46-.34ZM5.4,2c.6-.87,1.47-.74,2.35-.61L7.66,1.1c-.22,0-.42.06-.61.06a4.07,4.07,0,0,1-.61,0A.87.87,0,0,0,5.4,2ZM5,4.07A1.29,1.29,0,0,0,6.59,5c-.07-.26-.3-.25-.5-.26a.76.76,0,0,1-.68-.45A.44.44,0,0,0,5,4.07Zm.17-.4a7,7,0,0,0,0-.8A5.69,5.69,0,0,0,5,2.09a3.39,3.39,0,0,0-.14,1.29A.34.34,0,0,0,5.13,3.67Zm2-.54,0-.08C7.11,3,7,2.88,7,2.88s-.14.13-.2.19l0,.07Z"/><path class="cls-4" d="M30.67,23.33A1.59,1.59,0,0,1,29.29,21c.07-.14.13-.28.19-.42s0-.08,0-.11a.47.47,0,0,1,.08-.57,2.33,2.33,0,0,1,1.2-.7,1.64,1.64,0,0,1,1.1.23,1.5,1.5,0,0,1,1.8.42,1.77,1.77,0,0,1,.39.82,3.2,3.2,0,0,1,.12.87c0,.29,0,.59-.09.88a1.38,1.38,0,0,1-.12.34c-.08.18-.2.33-.44.26a1.3,1.3,0,0,1-.7.77.93.93,0,0,1-.57,0,2.38,2.38,0,0,0-1,0c-.28.08-.41,0-.48-.31C30.7,23.47,30.69,23.4,30.67,23.33Zm1.69-2a.85.85,0,0,0,.3-.72.31.31,0,0,0-.21-.33,4.67,4.67,0,0,0-.82-.2,1.3,1.3,0,0,0-1.27,1.53,1.28,1.28,0,0,1,1.1-.95C31.94,20.64,32.2,20.92,32.36,21.36Zm-2.68-.48c-.26.45-.5.9-.17,1.41a1.56,1.56,0,0,0,1,.77.5.5,0,0,0-.23-.59.67.67,0,0,1-.28-.4,2.35,2.35,0,0,1,0-.75C30,21,30,21,29.68,20.88ZM33,20.77a1.54,1.54,0,0,1-1.19,1.43c.16.11.29.22.43.3a.48.48,0,0,0,.75-.23A1.65,1.65,0,0,0,33,20.77Zm-1.68.4a.71.71,0,0,0-.6.62.89.89,0,0,0,.33.92,1,1,0,0,0,.87.16c-.24-.26-.5-.51-.72-.8A.56.56,0,0,1,31.34,21.17Zm-1.14-.54c.11-.85.76-.91,1.45-.94a1.11,1.11,0,0,0-.27-.13A1.4,1.4,0,0,0,30,19.9c-.13.11-.31.28-.3.41s.27.28.46.33C30.16,20.65,30.17,20.64,30.2,20.63Zm.74,2.64.09.36a2.11,2.11,0,0,1,1.29,0,.88.88,0,0,0,1-.93C32.67,23.53,31.83,23.4,30.94,23.27Zm2.78-2.65a1.28,1.28,0,0,0-1.63-.95c.08.25.31.24.5.26a.75.75,0,0,1,.69.44A.4.4,0,0,0,33.72,20.62Zm-.21.41.17,1.55h.07a3.09,3.09,0,0,0,.1-1.32C33.83,21.11,33.7,21,33.51,21Zm-1.59.61,0-.09-.34,0,0,.07c.06.06.13.18.19.17S31.85,21.7,31.92,21.64Z"/><path class="cls-4" d="M2.84,19.45l.36.05c.38.07.4.08.44.46a2.83,2.83,0,0,1,0,.65.74.74,0,0,1-.15.34.47.47,0,0,1-.5.24.39.39,0,0,1-.34-.36.36.36,0,0,0-.35-.35.41.41,0,0,1-.38-.35.47.47,0,0,1,.26-.49c.21-.1.43-.15.64-.23Z"/><path class="cls-4" d="M14.72,5.27a5.71,5.71,0,0,1-.6-.22.46.46,0,0,1-.25-.47.4.4,0,0,1,.36-.36.4.4,0,0,0,.37-.36.38.38,0,0,1,.34-.36.49.49,0,0,1,.49.23,1.46,1.46,0,0,1,.07,1.33.25.25,0,0,1-.14.08Z"/><path class="cls-4" d="M24.17,20.56a3,3,0,0,1-.1.32.43.43,0,0,1-.78.13,1.27,1.27,0,0,1-.19-1.1c.06-.33.08-.36.41-.4a4,4,0,0,1,.77,0,.91.91,0,0,1,.34.17.43.43,0,0,1-.11.78C24.41,20.5,24.29,20.52,24.17,20.56Z"/><path class="cls-4" d="M35.87,5.28c-.83-.11-.81-.12-.86-.94a1.39,1.39,0,0,1,.21-.63.43.43,0,0,1,.47-.21.4.4,0,0,1,.34.33c0,.23.13.36.37.39a.39.39,0,0,1,.36.36.46.46,0,0,1-.25.47A5.47,5.47,0,0,1,35.87,5.28Z"/><path class="cls-4" d="M15.88,20.37a3.1,3.1,0,0,1-.25.62.44.44,0,0,1-.8-.11,1,1,0,0,1-.05-.18.19.19,0,0,0-.18-.18c-.33-.06-.49-.2-.51-.41a.58.58,0,0,1,.44-.57,1.6,1.6,0,0,1,1.1,0c.06,0,.11.09.12.15S15.83,20.1,15.88,20.37Z"/><path class="cls-4" d="M10.84,20.3c.12-.78.11-.79.88-.83a1.64,1.64,0,0,1,.68.18.42.42,0,0,1,.24.48.37.37,0,0,1-.35.34.41.41,0,0,0-.38.37.38.38,0,0,1-.34.36.48.48,0,0,1-.5-.25C11,20.74,10.92,20.52,10.84,20.3Z"/><path class="cls-4" d="M23.77,5.24c-.87-.07-.89-.07-.92-.85A1.65,1.65,0,0,1,23,3.72a.43.43,0,0,1,.47-.22c.2,0,.28.16.35.33s0,.09,0,.14.06.19.2.21c.31.05.47.2.49.4a.55.55,0,0,1-.4.56A3,3,0,0,1,23.77,5.24Z"/><path class="cls-4" d="M26.88,5.27c-.17-.07-.4-.13-.62-.24A.45.45,0,0,1,26,4.56a.37.37,0,0,1,.34-.33.44.44,0,0,0,.4-.4.37.37,0,0,1,.34-.33.49.49,0,0,1,.47.21,1.48,1.48,0,0,1,.08,1.34.21.21,0,0,1-.13.09Z"/><path class="cls-4" d="M28.05,20.34a4.08,4.08,0,0,1-.23.63.46.46,0,0,1-.49.22.36.36,0,0,1-.33-.34.41.41,0,0,0-.39-.38.38.38,0,0,1-.34-.33.48.48,0,0,1,.21-.48,1.58,1.58,0,0,1,1.36-.08.22.22,0,0,1,.08.13C28,19.9,28,20.08,28.05,20.34Z"/><path class="cls-4" d="M10.63,4.34a6.43,6.43,0,0,1,.24-.62.46.46,0,0,1,.49-.22.4.4,0,0,1,.33.35.4.4,0,0,0,.37.37.4.4,0,0,1,.36.33.52.52,0,0,1-.25.51,1.51,1.51,0,0,1-1.31.06S10.78,5,10.76,5,10.69,4.61,10.63,4.34Z"/><path class="cls-4" d="M35.18,20.28c.12-.76.11-.77.87-.81a1.67,1.67,0,0,1,.68.17.44.44,0,0,1,.25.49.38.38,0,0,1-.35.34.4.4,0,0,0-.37.37.42.42,0,0,1-.35.36.46.46,0,0,1-.48-.24A5,5,0,0,1,35.18,20.28Z"/><path class="cls-4" d="M3.45,4.41c-.06.76-.05.78-.83.81A1.57,1.57,0,0,1,1.94,5a.45.45,0,0,1-.24-.48.39.39,0,0,1,.35-.34.4.4,0,0,0,.38-.38.38.38,0,0,1,.34-.34.43.43,0,0,1,.47.21,5.46,5.46,0,0,1,.26.67Z"/><path class="cls-4" d="M24.86,18.25a.27.27,0,0,1-.28-.28.27.27,0,0,1,.29-.28.28.28,0,1,1,0,.56Z"/><path class="cls-4" d="M13.82,7a.28.28,0,1,1,0-.56.27.27,0,0,1,.27.28A.29.29,0,0,1,13.82,7Z"/><path class="cls-4" d="M13.8,18.25a.28.28,0,1,1,.31-.25A.29.29,0,0,1,13.8,18.25Z"/><path class="cls-4" d="M37,18.25a.3.3,0,0,1-.29-.28.29.29,0,0,1,.31-.28.27.27,0,0,1,.27.29A.28.28,0,0,1,37,18.25Z"/><path class="cls-4" d="M37,6.45a.27.27,0,0,1,.29.27A.3.3,0,0,1,37,7a.3.3,0,0,1-.28-.29A.27.27,0,0,1,37,6.45Z"/><path class="cls-4" d="M3.9,22.39a.28.28,0,1,1,0-.56.27.27,0,0,1,.29.29A.27.27,0,0,1,3.9,22.39Z"/><path class="cls-4" d="M34.78,2.86a.28.28,0,0,1-.29-.26.27.27,0,0,1,.29-.29.28.28,0,1,1,0,.55Z"/><path class="cls-4" d="M1.66,6.45a.28.28,0,0,1,.28.28.29.29,0,0,1-.58,0A.27.27,0,0,1,1.66,6.45Z"/><path class="cls-4" d="M1.65,17.69a.28.28,0,1,1-.29.28A.29.29,0,0,1,1.65,17.69Z"/><path class="cls-4" d="M25.15,6.73a.29.29,0,0,1-.29.28.28.28,0,0,1-.28-.3.27.27,0,0,1,.29-.26A.27.27,0,0,1,25.15,6.73Z"/><path class="cls-4" d="M3.86,2.59a.29.29,0,0,1-.58,0,.29.29,0,0,1,.31-.27A.27.27,0,0,1,3.86,2.59Z"/><path class="cls-4" d="M11.06,22.11a.27.27,0,0,1-.28.28.3.3,0,0,1-.3-.27.29.29,0,0,1,.3-.29A.27.27,0,0,1,11.06,22.11Z"/><path class="cls-4" d="M16.08,21.83a.27.27,0,0,1,.28.28.28.28,0,1,1-.56,0A.27.27,0,0,1,16.08,21.83Z"/><path class="cls-4" d="M23,22.39a.28.28,0,1,1,0-.56.28.28,0,0,1,0,.56Z"/><path class="cls-4" d="M35.4,22.1a.29.29,0,0,1-.27.29.28.28,0,0,1-.3-.26.27.27,0,0,1,.28-.3A.28.28,0,0,1,35.4,22.1Z"/><path class="cls-4" d="M28.2,2.59a.28.28,0,0,1-.29.27.27.27,0,0,1-.28-.29.26.26,0,0,1,.29-.26A.28.28,0,0,1,28.2,2.59Z"/><path class="cls-4" d="M22.89,2.59a.27.27,0,0,1-.28.27.26.26,0,0,1-.28-.27.26.26,0,0,1,.29-.28A.27.27,0,0,1,22.89,2.59Z"/><path class="cls-4" d="M15.73,2.86A.28.28,0,1,1,16,2.6.26.26,0,0,1,15.73,2.86Z"/><path class="cls-4" d="M13,6.73A.27.27,0,0,1,12.7,7a.28.28,0,0,1-.29-.3.29.29,0,0,1,.29-.27A.28.28,0,0,1,13,6.73Z"/><path class="cls-4" d="M26.27,18a.27.27,0,0,1-.26.29.28.28,0,0,1-.3-.26.27.27,0,0,1,.28-.3A.26.26,0,0,1,26.27,18Z"/><path class="cls-4" d="M26,7a.28.28,0,0,1-.29-.27A.27.27,0,0,1,26,6.45a.27.27,0,0,1,.29.28A.27.27,0,0,1,26,7Z"/><path class="cls-4" d="M13,18a.27.27,0,0,1-.27.28.28.28,0,0,1-.29-.27.27.27,0,0,1,.29-.29A.27.27,0,0,1,13,18Z"/><path class="cls-4" d="M28.53,22.1a.29.29,0,0,1-.57,0,.29.29,0,0,1,.57,0Z"/><path class="cls-4" d="M10.72,2.57a.29.29,0,1,1-.29-.26A.27.27,0,0,1,10.72,2.57Z"/></g></g></svg>