<svg xmlns="http://www.w3.org/2000/svg" viewBox="0 0 38.55 24.66"><defs><style>.cls-1{isolation:isolate;}.cls-2{opacity:0.15;}.cls-2,.cls-3{mix-blend-mode:multiply;}.cls-4{fill:#fff;}</style></defs><title>convert-CUSTOMIZE-SVG-03</title><g class="cls-1"><g id="Layer_1" data-name="Layer 1"><g class="cls-2"><path d="M37.17,21l.12.27-.35-.06a.2.2,0,0,0,0,.08c.07.83-.49,1.23-1.21,1.3a2.54,2.54,0,0,1-2.26-.91.89.89,0,0,0-.09.26c0,.07,0,.19.11.21s.14.1.15.21a.47.47,0,0,0,.1.24,2.54,2.54,0,0,0,2.84.85,7.19,7.19,0,0,1,.73-.22l-.15.32.11.06v.22c-.14,0-.31.12-.37-.16a1.06,1.06,0,0,1-1,.16,3.25,3.25,0,0,1-1.53-.39c.08.22.09.23.69.41a2.72,2.72,0,0,1-.57,0,1,1,0,0,1-.36-.22c-.12-.12-.2-.27-.32-.39s-.22-.07-.28.08a3.38,3.38,0,0,0-.11.34q-.08.27-.36.18a2.5,2.5,0,0,0,.27-1.41c-.24.11-.48.2-.7.32a.6.6,0,0,0-.32.47,1.68,1.68,0,0,1-.12.38.34.34,0,0,1-.45.25l.33-.59,0-.05a.39.39,0,0,1-.54,0c.08.24.1.45-.08.59a1.07,1.07,0,0,1-.33.11c0-.06,0-.08,0-.08a.51.51,0,0,0,.11-.68,1.65,1.65,0,0,0-1.36-1.08v.19a1.23,1.23,0,0,1-.89,1.29,2.83,2.83,0,0,1-3-.93c-.11-.14-.19-.31-.31-.46a1.51,1.51,0,0,0,.15.91c.17.27.34.53.53.81h-.52a.15.15,0,0,1-.12-.07,4.2,4.2,0,0,1-.59-1.39.89.89,0,0,1,.35-.89.72.72,0,0,0,0-1.08.32.32,0,0,0-.3,0,4.29,4.29,0,0,0-.95.73,3.55,3.55,0,0,0-.55,1.1,1.36,1.36,0,0,0,.4,1.45l.12.12a.28.28,0,0,0,0,.05,9.62,9.62,0,0,1-1.52-.06l-.27.09v-.4a1.92,1.92,0,0,1-1.07.35,6.55,6.55,0,0,1-1,0,1.1,1.1,0,0,1-.8-.49c-.33-.47-.33-.37-.73-.11a.86.86,0,0,0-.45.64h-.25l.13-.51c-.32.14-.38-.21-.61-.34a4.5,4.5,0,0,1,0,.52c0,.36-.07.37-.44.32a3.4,3.4,0,0,0-.09-.64,2.57,2.57,0,0,0-.34-.55,1.86,1.86,0,0,1-2.54.57,1.86,1.86,0,0,1-.95-2.43,2.26,2.26,0,0,0-.3,3c-.26.06-.26.06-.63-.47l0,.48c-.21.11-.34,0-.32-.34a5.48,5.48,0,0,0,.05-.57c-.43.49-.81,1-1.64.92A2.49,2.49,0,0,0,11.67,23,1.94,1.94,0,0,0,12,21.64c-.18.08-.35.13-.51.21a.59.59,0,0,0-.35.47,1,1,0,0,1-.71.81l-.62.25a.49.49,0,0,0-.33.39.19.19,0,0,1-.14.1A1.28,1.28,0,0,1,9,23.81a5.24,5.24,0,0,1-2.53-.2l.39.25c-.41.07-.44.05-.69-.29s-.34-.38-.71-.12a1.9,1.9,0,0,0-.33.3.26.26,0,0,1-.35.1l.12-.24c-.2,0-.39,0-.48-.23-.22.12-.49.15-.6.42a.18.18,0,0,1-.13.08H1.41s-.09-.07-.12-.14a3.78,3.78,0,0,0,2.76-.61,1.78,1.78,0,0,1-.82-1.22,1.58,1.58,0,0,1-1.84.89.2.2,0,0,1-.1-.12c0-.1,0-.2,0-.31a5.76,5.76,0,0,0,.59,0,5.59,5.59,0,0,0,.56-.12v-.08H1.94a1.57,1.57,0,0,1-.37,0c-.28-.07-.3-.1-.27-.41l.22.17c-.23-.4-.17-.64.26-.93l-.22-.2-.26.5c-.15-.79.51-1.14.88-1.71l-.87.09,0,0c0-.06.08-.16.13-.17a8.65,8.65,0,0,1,.88,0c.17,0,.26.1.17.34a1.44,1.44,0,0,1,1.34-.17A1.29,1.29,0,0,0,3,19.2a5.06,5.06,0,0,0-.87,0c-.28,0-.56.08-.85.13,0-.11,0-.19.1-.22a3.45,3.45,0,0,1,2.06,0,7.7,7.7,0,0,1,1,.57,1.68,1.68,0,0,0-.09-.27,2,2,0,0,0-2-1.14,1.43,1.43,0,0,0-.39.15l-.66.25c-.06-.14,0-.22.1-.27s.48-.21.73-.29a2,2,0,0,1,1.24.1A2.22,2.22,0,0,1,4.47,19c0-.19,0-.33.25-.3a2.3,2.3,0,0,1,.43.16.51.51,0,0,1,.48-.25,4.69,4.69,0,0,0,2-.52A1.87,1.87,0,0,1,8.87,18a2.16,2.16,0,0,1,1.34.85c0-.08.08-.22.14-.24a.51.51,0,0,1,.34,0,1.89,1.89,0,0,1,.78.73l.14.21.56-.28a4,4,0,0,1,1.95-.36.54.54,0,0,1,.52.3l.41-.6a.6.6,0,0,1,.82-.21c.41.15.81.33,1.23.44s.95.16,1.42.23l0-.08c0-.51,0-.63.56-.65a4.81,4.81,0,0,0,1.87-.5,2.05,2.05,0,0,1,1.73,0,2,2,0,0,1,.88.7c.05-.09.09-.23.16-.24a.45.45,0,0,1,.36.06,4.9,4.9,0,0,1,.73.71,8.14,8.14,0,0,1,.49.87.78.78,0,0,0,.27.27c0-.22-.09-.44-.12-.65s.06-.53.39-.55a8.87,8.87,0,0,0,2.78-.74,1.92,1.92,0,0,1,1,0,2.39,2.39,0,0,1,1.68,1.13.74.74,0,0,0,0-.16c0-.24.09-.36.32-.3a1.6,1.6,0,0,1,.75.52.23.23,0,0,0,.32.09,1.79,1.79,0,0,1,.48-.07c0-.15,0-.33-.08-.51a.35.35,0,0,1,.3-.45.5.5,0,0,1,.13,0A6,6,0,0,0,35.73,18a1.89,1.89,0,0,1,1.44.09s.07.13.1.19c-.39-.06-.76-.12-1.12-.16a.55.55,0,0,0-.28.06,6.44,6.44,0,0,1-2.23.61c-.31,0-.33,0-.29.35a3.45,3.45,0,0,0,.07.39c.57-.2,1.11-.42,1.66-.57a3.52,3.52,0,0,1,2,0c.14,0,.21.1.15.24a7.31,7.31,0,0,0-.92-.14,5.4,5.4,0,0,0-2.63.68.65.65,0,0,1-.17.08.86.86,0,0,1-.17,0l.16.42a2.61,2.61,0,0,1,2.27-1.05h.15c.22,0,.27.1.23.32.71-.32,1.09-.33,1.08,0-.85-.14-1.28.43-1.75,1.05.3,0,.53,0,.77.07s.59.12.88.2a.18.18,0,0,1,.11.13s0,.08-.08.12a2.47,2.47,0,0,0-1-.24.81.81,0,0,0,.1.09c.14.11.27.21.25.41s-.2.27-.36.32a4.43,4.43,0,0,1-.49.13v0h1c0-.06,0-.15,0-.25,0-.46,0-.46.48-.47Zm-31.83.38-.06,0a2,2,0,0,0,.07.55,2.68,2.68,0,0,0,2.07,1.66A3.49,3.49,0,0,0,9.84,23c.51-.33.49-.39.23-.93A1.29,1.29,0,0,0,9,21.3c0,.05,0,.08,0,.12a1.09,1.09,0,0,1-1,1.21,2.49,2.49,0,0,1-1.67-.2A2.11,2.11,0,0,1,5.34,21.41Zm13.38-.23h-.06a2.52,2.52,0,0,0,.08.56,2.67,2.67,0,0,0,2.35,1.67A4,4,0,0,0,23,22.86a.42.42,0,0,0,.27-.42,2,2,0,0,1,.12-.47.45.45,0,0,0,0-.16,1.26,1.26,0,0,0-1.08-.72v.1a1.07,1.07,0,0,1-.94,1.19,2.93,2.93,0,0,1-1,0A2.22,2.22,0,0,1,18.72,21.18Zm13.05,2a1.64,1.64,0,0,0,.09-.27,2.68,2.68,0,0,0-1.43-2.74,1.19,1.19,0,0,0-1,0,2.75,2.75,0,0,0-1.13,1.06s0,0,0,.08l.28,0a12.13,12.13,0,0,1,1.23.18,2.26,2.26,0,0,1,1.62,1.18A2.87,2.87,0,0,0,31.77,23.18ZM17.08,20.26a3.11,3.11,0,0,0-1.6-.35,1.94,1.94,0,0,0-1.85,1.42,1,1,0,0,0,.08.78A2.1,2.1,0,0,0,15,23a1.54,1.54,0,0,0,.43,0,.29.29,0,0,0-.13-.12,5.5,5.5,0,0,1-.64-.43.56.56,0,0,1,0-.89,2,2,0,0,1,.47-.35c.51-.22,1-.43,1.55-.6A.64.64,0,0,0,17.08,20.26Zm11.58-.33a3.33,3.33,0,0,0-1.76.4,1.35,1.35,0,0,0-.79,1.3,1.54,1.54,0,0,0,1,1.41,2.86,2.86,0,0,0,1.48.1,1.56,1.56,0,0,0,.43-.21.17.17,0,0,0-.14,0,5.77,5.77,0,0,1-1-.08.65.65,0,0,1-.51-.88,3.48,3.48,0,0,1,.44-.91C28.05,20.65,28.36,20.31,28.66,19.93Zm-11.77,1.5a1.39,1.39,0,0,0,.62,1.23c.17.14.33.29.5.42a.31.31,0,0,0,.21,0,.6.6,0,0,0,.22-.12c.36-.23.35-.24.16-.63a6.24,6.24,0,0,1-.4-.92.71.71,0,0,1,.23-.85.62.62,0,0,0,.15-.87.22.22,0,0,0-.34-.12A2.35,2.35,0,0,0,16.89,21.43Zm-12.14,2,.47-.29a.2.2,0,0,0,.09-.31c-.07-.12-.14-.25-.2-.38a5.45,5.45,0,0,1-.3-.76.77.77,0,0,1,.24-.84.57.57,0,0,0,.18-.8c-.11-.24-.21-.28-.45-.15a2.4,2.4,0,0,0-1,1A1.44,1.44,0,0,0,4.25,23C4.41,23.12,4.55,23.25,4.75,23.41Zm26.52-3.2a2,2,0,0,0-1.42-1.61,1.93,1.93,0,0,0-1.51,0,8.2,8.2,0,0,1-1.52.5,6.61,6.61,0,0,1-.88.11c-.08,0-.2.12-.2.17a7.22,7.22,0,0,0,.1.76L26,20.1a7.11,7.11,0,0,1,2.7-.81,2.9,2.9,0,0,1,2.39.79C31.16,20.13,31.22,20.16,31.27,20.21Zm-20.62,2,.06,0a.65.65,0,0,0,0-.2,2.27,2.27,0,0,0-1-2.15,1.16,1.16,0,0,0-1.61.06,3.19,3.19,0,0,0-.61.73,5.5,5.5,0,0,1,1.83.32C10,21.14,10.28,21.72,10.65,22.18ZM8,19.4a2.76,2.76,0,0,0-1.76.53,1.11,1.11,0,0,0-.43.7,1.37,1.37,0,0,0,.83,1.47,2.45,2.45,0,0,0,1.34.1,1.26,1.26,0,0,0,.26-.13,7.44,7.44,0,0,1-1-.15.56.56,0,0,1-.39-.76,3.89,3.89,0,0,1,.46-.91A9.16,9.16,0,0,1,8,19.4ZM36.15,22h-.49c-.89,0-1.2-.54-.76-1.32.24-.4.55-.76.83-1.14l.14-.17a2.62,2.62,0,0,0-1.83.58,1.1,1.1,0,0,0-.32,1.21,1.43,1.43,0,0,0,1.47,1.05A1.29,1.29,0,0,0,36.15,22ZM21.6,21.82a6.38,6.38,0,0,1-.89-.1.61.61,0,0,1-.5-.85,1.63,1.63,0,0,1,.2-.47c.25-.36.52-.71.79-1.06l.13-.16a2.81,2.81,0,0,0-1.53.34,1.23,1.23,0,0,0-.65.84,1.36,1.36,0,0,0,.92,1.53,2.48,2.48,0,0,0,1.21.08A1.33,1.33,0,0,0,21.6,21.82ZM21,20.34a3.18,3.18,0,0,1,2.7,1.06l.37-.48a.18.18,0,0,0,0-.16,2.22,2.22,0,0,0-1.13-1.36,1,1,0,0,0-.84-.08A2.42,2.42,0,0,0,21,20.34Zm-2.09-1,.17-.08a6.23,6.23,0,0,1,2.06-.67,2.68,2.68,0,0,1,2.44.69l.09.06c0-.06,0-.1,0-.14a1.9,1.9,0,0,0-2.53-1.18,7.51,7.51,0,0,1-1.24.41,8.09,8.09,0,0,1-.86.12c-.07,0-.18.1-.18.15S18.85,19.14,18.88,19.37Zm-7,2.05a.48.48,0,0,0,.45-.32,1.4,1.4,0,0,1,1.17-.92.88.88,0,0,0,.8-.65c.11-.29,0-.39-.26-.39a7.09,7.09,0,0,0-1.13.11,3.5,3.5,0,0,0-1.2.53c.11.25.22.47.32.7A.73.73,0,0,1,11.9,21.42Zm-1.63-1.85a1.84,1.84,0,0,0-1.21-1.31,1.48,1.48,0,0,0-1-.1,6.55,6.55,0,0,1-2.41.65.26.26,0,0,0-.19.11,1,1,0,0,0,.09.63c.53-.19,1-.4,1.52-.55a3.42,3.42,0,0,1,2.34,0A7.64,7.64,0,0,1,10.27,19.57Zm21.28-.36c0,.08,0,.12,0,.16a2.64,2.64,0,0,1,.23,1.3.29.29,0,0,0,.05.18,4.08,4.08,0,0,1,.47,1.26c0,.09.07.17.11.29.15-.09.27-.16.38-.24a.57.57,0,0,0,.27-.81c-.26-.54-.55-1.07-.85-1.58A1.39,1.39,0,0,0,31.55,19.21ZM1.86,20.69l.13,0,1.37.2a.17.17,0,0,0,.12-.05L4.1,20C3.36,19.31,2.47,19.63,1.86,20.69ZM18.63,19.4v-.07a1.52,1.52,0,0,0-.2-.06l-.88-.11a5.08,5.08,0,0,1-1.75-.53.47.47,0,0,0-.36,0,1.46,1.46,0,0,0-.51.7l.09,0a8.73,8.73,0,0,1,2.43.42.37.37,0,0,0,.24-.06A1,1,0,0,1,18.63,19.4Zm-8.09-.61v.08a2.57,2.57,0,0,1,.21,1.19c0,.06,0,.12.06.18.09.21.19.42.27.64s.13.43.19.67l.28-.17a.54.54,0,0,0,.25-.82c-.18-.39-.39-.78-.61-1.16A1.48,1.48,0,0,0,10.54,18.79Zm18.33,1.37a1.67,1.67,0,0,1,1.84-.11.76.76,0,0,0-.2-.17,2.81,2.81,0,0,0-1.79-.38,7,7,0,0,0-2.51.76,4.19,4.19,0,0,1-.46.16L26,21a1.88,1.88,0,0,1,.81-.84,3.47,3.47,0,0,1,1.87-.41C29,19.74,29.05,19.85,28.87,20.16Zm-5-1.63c.08.3.16.55.21.81a3.43,3.43,0,0,0,0,.56,4,4,0,0,0,.3.63l.66-.37A3.47,3.47,0,0,0,23.91,18.53Zm-8.15,2.6a7.88,7.88,0,0,0-.84.52c-.34.26-.33.54,0,.8a4.92,4.92,0,0,0,.68.37c.12.07.25.13.22.33a3.45,3.45,0,0,0,.54-.46.4.4,0,0,1,.63,0l.18.21a2.55,2.55,0,0,0-.92-1.07c0,.1.06.16.07.22.12.4-.06.67-.48.65a2.23,2.23,0,0,1-.71-.17c-.4-.16-.46-.51-.1-.75a3.74,3.74,0,0,1,.77-.3Zm13.73,1.66a3.15,3.15,0,0,0,.05-.56c0-.24.09-.36.33-.35a2.63,2.63,0,0,1,.39.06,3.3,3.3,0,0,0-1.45-.4,3.22,3.22,0,0,1,.37.28.35.35,0,0,1-.08.63,1.67,1.67,0,0,1-.91.17.47.47,0,0,1-.42-.59c0-.27.26-.37.45-.51l-.3-.25c-.07.15-.16.3-.22.46-.24.59,0,.92.6,1h.36a3.73,3.73,0,0,1,.46,0A2,2,0,0,1,29.49,22.79ZM9.63,19.44v-.07A4.11,4.11,0,0,0,9,19.11a4.65,4.65,0,0,0-3.06.54s0,.1,0,.16a.43.43,0,0,0,.19-.08A3,3,0,0,1,8,19.21c.24,0,.28.08.25.33A1.37,1.37,0,0,1,9.63,19.44Zm6.16,3c.27,0,.37-.15.3-.39s-.12-.35-.35-.38a.65.65,0,0,0-.63.3.17.17,0,0,0,.09.26C15.39,22.36,15.6,22.42,15.79,22.49Zm5.82-3.17A1.37,1.37,0,0,1,23,19.18c-.79-.69-2.59-.38-3.69.29a.3.3,0,0,0,.21,0A3.07,3.07,0,0,1,21.4,19C21.62,19,21.68,19.08,21.61,19.32Zm6.72,3.14a5.56,5.56,0,0,0,.61-.19c.06,0,.13-.17.1-.23a.56.56,0,0,0-.91-.15.48.48,0,0,0-.06.39C28.09,22.36,28.24,22.4,28.33,22.46Zm-11-2.54a8.15,8.15,0,0,0-2.28-.4,3.15,3.15,0,0,1-.42-.09l-.23.53a6.39,6.39,0,0,1,.78-.22,3.25,3.25,0,0,1,1.89.27C17.18,20.05,17.28,20.1,17.34,19.92Zm18.29,1.62a4,4,0,0,0,.49-.16.2.2,0,0,0,.08-.19.63.63,0,0,0-.54-.27.41.41,0,0,0-.32.39C35.36,21.48,35.46,21.53,35.63,21.54ZM2,21.71a3.18,3.18,0,0,0,.43-.13c.06,0,.09-.11.12-.17a2.39,2.39,0,0,0-.47-.31c-.17-.05-.31.09-.38.25S1.7,21.71,2,21.71Zm5.79-.14a3.25,3.25,0,0,0,.42-.12c.05,0,.11-.17.1-.17a1.32,1.32,0,0,0-.45-.3.5.5,0,0,0-.36.19C7.33,21.36,7.45,21.57,7.77,21.57ZM21,21.37a4.83,4.83,0,0,0,.53-.16c.05,0,.12-.14.1-.18a.48.48,0,0,0-.78-.14.42.42,0,0,0,0,.33C20.86,21.28,21,21.32,21,21.37Zm.09.19v0h1c0-.13,0-.29,0-.45s.09-.29.29-.29l.2,0,0-.05-1-.25,0,.05.1.08c.14.1.29.21.26.42s-.2.27-.37.33ZM9.25,21.11v-.05l-1-.25,0,.06.12.09c.13.1.28.22.22.39a.64.64,0,0,1-.33.32,2.81,2.81,0,0,1-.59.13v0H8.7c0-.11,0-.27,0-.43s.08-.3.29-.3Zm-7.33.82v0h1c0-.13,0-.3,0-.46a.25.25,0,0,1,.23-.28l.15,0v-.06L2.46,21a.28.28,0,0,0,.13.15c.32.26.29.54-.09.69A3.77,3.77,0,0,1,1.92,21.93Zm21.4,1.16a1.22,1.22,0,0,0-.28.17,1.22,1.22,0,0,0-.13.38s.09.12.14.12.39,0,.6-.07Zm9.77-2.41a.61.61,0,0,0,.06-.7c-.12-.28-.26-.3-.5-.1Zm-16.41.37-.64.22v.08l.57.38ZM4.75,18.94a3.3,3.3,0,0,1,.12.38c0,.23.14.33.37.3C5.2,19.32,5.13,19,4.75,18.94Zm2.59,1.67c-.32.44-.42,1-.09,1.08a1.29,1.29,0,0,1-.06-.48,2.08,2.08,0,0,1,.32-.45Zm28.12.13-.2-.18c-.32.39-.41,1-.06,1.06C35,21.26,35,21.05,35.46,20.74Zm-7.89,2.64A1.7,1.7,0,0,0,29.29,23C28.79,23.49,28.18,23.38,27.57,23.38ZM20.48,21l.42-.51-.2-.16C20.61,20.61,20.41,20.79,20.48,21Zm-4.92,2.18a2.07,2.07,0,0,1-1.73-.54A1.67,1.67,0,0,0,15.56,23.22Zm-2-2.42.35-.47-.49.08ZM10.31,23l.49-.31-.12.07-.17-.37C10.6,22.61,10.41,22.77,10.31,23Zm8.53-3.42,0,.06L19,20l.24-.35Zm-13.26.68.07,0a.72.72,0,0,0,0-.29c0-.07-.13-.11-.19-.16l-.05.05Zm15.59,3.43-.94-.13A1.15,1.15,0,0,0,21.17,23.65Zm4.66-2.19a.31.31,0,0,0,.06.54Zm6.33,1.35.25-.21-.25-.14Zm1-1.89.26.2-.06-.38Z"/><path d="M1.3,2.78V2.51A4.26,4.26,0,0,1,3,2.8c.6.22.85.78,1.22,1.22l.08,0a5.09,5.09,0,0,0,0-.56A2.2,2.2,0,0,0,3.14,1.57,1,1,0,0,0,2,1.65c-.24.17-.45.38-.68.58,0-.31-.1-.63.27-.87l-.26,0c-.07-.42,0-.52.44-.53a2.63,2.63,0,0,1,1.55.32c.19.12.36.26.58.38L3.55.8A3.65,3.65,0,0,1,4,.81.16.16,0,0,1,4.15.9a1.94,1.94,0,0,1,.19,1,.32.32,0,0,0,0,.16L4.8,3.21c0,.06,0,.11.07.16h.06c.63-.33.68-.49.37-1.13A3.68,3.68,0,0,0,4.3.82c.49-.11.58.32.85.55C5.27.91,5.53.66,6,.84c-.08.1-.17.19-.25.3a2.07,2.07,0,0,0-.19.32.9.9,0,0,0,0,.9.7.7,0,0,1-.06.88c.33,0,.34,0,.34.28a.4.4,0,0,0,.18.36,3,3,0,0,0,1.3.58,6,6,0,0,0,2,.08.66.66,0,0,0,.54-.41,1.17,1.17,0,0,0-.09-1.37L9.64,2.6l-.15.16a1.79,1.79,0,0,1-1.89.55A2,2,0,0,1,6.09,1.86,1.36,1.36,0,0,1,6.15.93.22.22,0,0,1,6.3.81a3.45,3.45,0,0,1,.46,0l-.16.4A.86.86,0,0,0,6.67,2a1.82,1.82,0,0,0,1.63.88l.08,0-.14-.07a4.91,4.91,0,0,1-.5-.28c-.51-.37-.52-.79,0-1.16A2.76,2.76,0,0,1,9.47.8c.51,0,1,0,1.54,0,.27,0,.54,0,.81,0a.2.2,0,0,1,.24.15l.15.57c0,.09,0,.18,0,.32a1.73,1.73,0,0,0,.39-1h.25l0,.41c0-.05.06-.08.08-.12.18-.27.37-.28.57,0,0,0,.07.08.1.08a1.21,1.21,0,0,0,.73-.24,1.71,1.71,0,0,1,.33-.17l0,.06,0,.16A2.08,2.08,0,0,1,15.88.8,3.11,3.11,0,0,1,17.27,1a4.73,4.73,0,0,1,.55.28.26.26,0,0,1,.13.21c0,.06-.12.11-.19.15s-.14,0-.2.09a3.3,3.3,0,0,1,.63,0,4.7,4.7,0,0,1,.63.22.42.42,0,0,0,.22,0A2.87,2.87,0,0,0,17.48.82a2.14,2.14,0,0,1,1.78.87L20,1.47,19.66.82h.55l.1.66c.59-.2,1.14-.4,1.69-.57A4.33,4.33,0,0,1,23.64.82a2.17,2.17,0,0,1,1.41.72l.05,0L24.78.8h.49a.14.14,0,0,1,.11.09,1.93,1.93,0,0,1,.18,1,.32.32,0,0,0,0,.16L26,3.23s0,.1.07.14h0c.63-.33.68-.49.37-1.13a3.74,3.74,0,0,0-1-1.41l0,0c.12,0,.25.08.38.1a2.16,2.16,0,0,0,.44,0l.92-.11,0,.07L27.09,1l-.28.22c-.34.33-.34.35-.13.77.07.14.14.29.2.44a.72.72,0,0,1-.1.84c.21,0,.32,0,.4.18s.31.19.48.23a1.61,1.61,0,0,0,.44,0v0A.69.69,0,0,1,28,3.55a4.38,4.38,0,0,1-.62-.4.53.53,0,0,1,0-.88A2.15,2.15,0,0,1,28,1.83c.64-.24,1.3-.43,1.95-.64l.16-.05L29.45.82a.9.9,0,0,1,.8.17.35.35,0,0,1,.12.22c0,.05-.12.1-.19.14a.73.73,0,0,0-.19.07,1.48,1.48,0,0,1,1.68.79A1.9,1.9,0,0,0,30.48.82a.8.8,0,0,1,.63.11A1.78,1.78,0,0,1,32,2.34a.3.3,0,0,0,0,.1c.4-.18.5-.88.25-1.6.23-.07.28-.06.32.16s.07.64.1.92a.38.38,0,0,1,.41-.27.17.17,0,0,0,0,0c0-.41.05-.51.47-.58L34.8.82a4.51,4.51,0,0,1,.52,0V.87c-.39.11-.79.22-1.19.31a6,6,0,0,1-.61.05c-.14,0-.22.08-.19.24s0,.33.08.53l.24-.11A6,6,0,0,1,36,1.25a8.05,8.05,0,0,1,1.09.11c.13,0,.2.1.12.26a3.09,3.09,0,0,0-2-.06c-.63.18-1.25.42-1.89.64l.14.43a2.65,2.65,0,0,1,2.28-1l.21,0c.17,0,.26.12.12.33a1.36,1.36,0,0,1,1.11-.21s0,.11.05.21a1.08,1.08,0,0,0-1,.16,2.67,2.67,0,0,0-.78.82c.27,0,.5,0,.72.06l.75.14c.19,0,.33.11.27.35a.59.59,0,0,0,0,.19l-.31-.05a.83.83,0,0,0,0,.13A1.06,1.06,0,0,1,36,4.91a2.52,2.52,0,0,1-2.27-.52,5.46,5.46,0,0,1-.54-.62,1.31,1.31,0,0,0,.1.64A2.69,2.69,0,0,0,36.85,5.7l.38-.15.05,0a2.25,2.25,0,0,0-.12.21.5.5,0,0,0,0,.12l.09,0a.74.74,0,0,1-.39.77,3.09,3.09,0,0,1-2.14.5,15.25,15.25,0,0,1-1.52-.35.29.29,0,0,1-.1,0c-.46-.19-.56-.47-.3-.94-.39.15-.45-.25-.7-.35l-.06,0a3.83,3.83,0,0,1-3.78,1,3,3,0,0,1-.66-.22c-.35-.16-.36-.43,0-.66l.28-.18-.24,0a1,1,0,0,1-1,.65A4.64,4.64,0,0,1,25.08,6a1.19,1.19,0,0,0-.42,0,.57.57,0,0,1-.54-.17,2.52,2.52,0,0,1-.4.4,3.14,3.14,0,0,1-2,.51A5.7,5.7,0,0,1,20,6.34a.82.82,0,0,1-.52-.44c-.25.18-.49.38-.75.53a4.07,4.07,0,0,1-3.47.25l-.08,0c-.3-.14-.36-.26-.28-.6a1.16,1.16,0,0,1-1,.34,3.58,3.58,0,0,1-2.47-.81.29.29,0,0,0-.24,0,4.12,4.12,0,0,1-3.21.17l-.19-.08c-.29-.15-.34-.25-.26-.59a1,1,0,0,1-.94.33c-.44,0-.87-.1-1.3-.14a.35.35,0,0,0-.22.06A3.41,3.41,0,0,1,3.4,6a.51.51,0,0,1-.52-.19,2.42,2.42,0,0,1-1.56.91c-.06-.15,0-.2.1-.25A9.7,9.7,0,0,0,2.35,6a.39.39,0,0,0,.21-.49,2.4,2.4,0,0,1-1.25.34V5.51a9.06,9.06,0,0,0,1.17-.28,5.78,5.78,0,0,0,1.11-.56c.29-.18.29-.29.16-.61a1.41,1.41,0,0,0-1.16-.9,1.09,1.09,0,0,1-.41,1.06,1.59,1.59,0,0,1-.88.28V4.11l.52-.2c-.52,0-.52,0-.52-.23h1a1.63,1.63,0,0,0,.05-.35c0-.31.1-.4.41-.35h.1V2.94l-1-.25,0,0c.09.08.18.14.26.22s.15.39-.06.49a4.94,4.94,0,0,1-.68.23c-.05-.16-.05-.23.1-.25a1.09,1.09,0,0,0,.31-.08c.22-.08.24-.2,0-.34A4.12,4.12,0,0,0,1.3,2.78ZM15.08,4.11a1,1,0,0,0,.74,0h-.74L14,3.51A2.17,2.17,0,0,0,15.08,4.11ZM17,3.59a2.07,2.07,0,0,1-3.57-.7L13.34,3c-.15.3-.31.59-.46.9a.25.25,0,0,0,0,.19A1.92,1.92,0,0,0,14,5.21a5.06,5.06,0,0,0,2.49.34c.61,0,.78-.23.92-.83,0,0,0-.08,0-.13A1.06,1.06,0,0,0,17,3.59Zm3.17-.31,0,0a2.43,2.43,0,0,0,.09.56,2.69,2.69,0,0,0,1.38,1.38,3.43,3.43,0,0,0,3.37-.67.39.39,0,0,0,.08-.1.33.33,0,0,0,0-.14,1.39,1.39,0,0,0-1.24-1.15v.15A1,1,0,0,1,23,4.41a2.45,2.45,0,0,1-1.42,0A2.27,2.27,0,0,1,20.15,3.28Zm-9.77,1,.11,0,.08,0a2.73,2.73,0,0,0,1.2-2.09A1.14,1.14,0,0,0,10.52.87,5,5,0,0,0,9,1.19l-.11.05.26.2a10.8,10.8,0,0,1,1,.81,1.37,1.37,0,0,1,.32,1.45A4.84,4.84,0,0,0,10.38,4.32Zm19.75.74a2,2,0,0,0,.9-.78A1.92,1.92,0,0,0,31.17,4a6.65,6.65,0,0,1,.26-.75,1.15,1.15,0,0,0-.81-1.55,2.88,2.88,0,0,0-1.27.11l-.63.2V2A2.2,2.2,0,0,0,29,2.2a3.07,3.07,0,0,1,1,.91,1.42,1.42,0,0,1,.23,1.32A4,4,0,0,0,30.13,5.06ZM17.66,1.4l-.11-.09A3.2,3.2,0,0,0,15.64.9a1.88,1.88,0,0,0-1.71,1.28,1,1,0,0,0,.2,1,2.1,2.1,0,0,0,.92.61,3.2,3.2,0,0,0,.62.09V3.86a3.18,3.18,0,0,1-.37-.18A1.8,1.8,0,0,1,15,3.44a.57.57,0,0,1,0-1,1.9,1.9,0,0,1,.45-.31c.54-.21,1.08-.41,1.63-.6C17.22,1.49,17.43,1.46,17.66,1.4Zm2.52.91-.05,0V2.2c-.05-.46-.26-.57-.65-.34a2.32,2.32,0,0,0-1.06,1.3,1.18,1.18,0,0,0,.37,1.42c.17.16.37.29.55.43s.17.17.25.17.2-.09.3-.15a.55.55,0,0,0,.19-.14.26.26,0,0,0,.05-.22,3.62,3.62,0,0,0-.19-.4,4.09,4.09,0,0,1-.29-.68.79.79,0,0,1,.3-.95C20.05,2.57,20.1,2.42,20.18,2.31Zm11.25,1.8A1.24,1.24,0,0,0,32,5.17a3.65,3.65,0,0,1,.48.38c.11.15.19.12.31,0L33,5.53c.38-.24.38-.26.17-.66A5.35,5.35,0,0,1,32.73,4,.74.74,0,0,1,33,3.18a.57.57,0,0,0,.15-.84.23.23,0,0,0-.31-.12A2.29,2.29,0,0,0,31.43,4.11Zm-4.75,1a2.57,2.57,0,0,0,.36.11,13.57,13.57,0,0,0,1.68.13c.76,0,.86-.1,1.09-.93v0a1,1,0,0,0-.46-1A1.85,1.85,0,0,1,27.18,4ZM22.45,2.46a6.92,6.92,0,0,1,1.76.32c.62.22.89.79,1.3,1.28a1.83,1.83,0,0,0,.08-.28,2.22,2.22,0,0,0-1.22-2.2,1.28,1.28,0,0,0-.69-.12A1.86,1.86,0,0,0,22.45,2.46Zm13.43-.65a3,3,0,0,0-1.56.36,1.08,1.08,0,0,0-.65,1.07,1.26,1.26,0,0,0,.78,1.14,2.57,2.57,0,0,0,1.4.13.65.65,0,0,0,.25-.12,8.85,8.85,0,0,1-1-.16.55.55,0,0,1-.38-.72,2.68,2.68,0,0,1,.6-1.08C35.49,2.23,35.67,2,35.88,1.81ZM22.75,1.36a2.77,2.77,0,0,0-1.64.4,1.16,1.16,0,0,0-.52.72A1.27,1.27,0,0,0,21.51,4a5.22,5.22,0,0,0,1.19.09c.11,0,.22-.1.31-.14a6.13,6.13,0,0,1-1-.14.56.56,0,0,1-.4-.77,3.6,3.6,0,0,1,.42-.8C22.26,1.91,22.51,1.65,22.75,1.36ZM12.21,4.5a2.6,2.6,0,0,1-.36,0,1.32,1.32,0,0,0-1.17.27A1.59,1.59,0,0,1,9.36,5C9.08,5,8.79,5,8.5,4.91a.77.77,0,0,0-.56.21c-.15.13-.14.23,0,.33l.15.07a3.77,3.77,0,0,0,3.13-.21A3.32,3.32,0,0,0,12.21,4.5Zm7.32,1L19,5.41a1.22,1.22,0,0,0-.91.27A1.47,1.47,0,0,1,16.78,6c-.15,0-.29-.06-.44-.07-.3,0-.61-.12-.89,0a2,2,0,0,0-.29.29,1.46,1.46,0,0,0,.33.24,3.85,3.85,0,0,0,2.53,0A3.37,3.37,0,0,0,19.53,5.49Zm12.35-.15a1.38,1.38,0,0,0-.22-.13,1.36,1.36,0,0,0-1.21.24,1.51,1.51,0,0,1-1.31.31,5.06,5.06,0,0,0-.52-.08c-.28,0-.57-.09-.82.11a1.38,1.38,0,0,0-.22.26c.09.07.16.18.26.2A6.56,6.56,0,0,0,29,6.49,3.43,3.43,0,0,0,31.88,5.34ZM16.29,2.25l.23.18a8.44,8.44,0,0,1,.81.64,1.54,1.54,0,0,1,.46,1.69,2.25,2.25,0,0,0-.07.52l.09,0,.72-.65a1.4,1.4,0,0,1-.45-1.29,2.83,2.83,0,0,1,.64-1.24C18.36,1.64,16.9,1.9,16.29,2.25Zm7.49,3.3a2.93,2.93,0,0,1-2,.31,1.1,1.1,0,0,1-.91-.53.6.6,0,0,0-.21-.21.19.19,0,0,0-.19,0,4.41,4.41,0,0,0-.64.5.26.26,0,0,0,.05.43.61.61,0,0,0,.27.15,13.26,13.26,0,0,0,1.35.33,2.85,2.85,0,0,0,2-.42C23.72,6,23.86,5.82,23.78,5.55ZM36.88,6A2.88,2.88,0,0,1,35,6.35a1.22,1.22,0,0,1-1-.56.55.55,0,0,0-.2-.2.23.23,0,0,0-.21,0A4.11,4.11,0,0,0,33,6c-.2.19-.15.39.08.54a.94.94,0,0,0,.23.1c.45.11.89.25,1.34.32a2.82,2.82,0,0,0,1.94-.4C36.87,6.4,36.92,6.31,36.88,6Zm-25.35-2,.56,0a.79.79,0,0,0,.77-.53,13.85,13.85,0,0,0,.47-1.37,1.15,1.15,0,0,0-.1-1,1.46,1.46,0,0,0-.09.16,3,3,0,0,1-.8,1.1.45.45,0,0,0-.1.18c-.2.41-.4.82-.59,1.23A2.27,2.27,0,0,0,11.53,4.06ZM26.87,3.5l-.48.18a.57.57,0,0,0-.38.43,1,1,0,0,1-.79.86,4.7,4.7,0,0,0-.7.29.32.32,0,0,0-.16.41c0,.07.21.11.32.1A3.13,3.13,0,0,0,26,5.3,1.91,1.91,0,0,0,26.87,3.5ZM5.64,3.5a3,3,0,0,0-.54.22.86.86,0,0,0-.31.4A1,1,0,0,1,4,5a3,3,0,0,0-.73.33c-.1.06-.11.25-.17.38.11,0,.23.11.33.1a3,3,0,0,0,1.34-.48A1.87,1.87,0,0,0,5.64,3.5Zm6.73,1.22-.73.64,0,0a3.3,3.3,0,0,0,2.54.76.76.76,0,0,0,.6-.38A3.09,3.09,0,0,1,12.37,4.72Zm16.14-.89c.22-.2.4-.34.56-.5a.39.39,0,0,1,.61,0c.09.08.16.18.25.27A2.25,2.25,0,0,0,29,2.5a1.83,1.83,0,0,0,.06.25.42.42,0,0,1-.37.55,1.55,1.55,0,0,1-1-.23.32.32,0,0,1-.07-.55,1.56,1.56,0,0,1,.5-.29,1.67,1.67,0,0,1,.39,0l-.06-.36a6.75,6.75,0,0,0-.87.54c-.3.22-.29.47,0,.7a4.56,4.56,0,0,0,.65.37C28.37,3.5,28.54,3.54,28.51,3.83ZM5.45,5.05A4.07,4.07,0,0,0,7,5.16a.67.67,0,0,0,.49-.34,6.14,6.14,0,0,1-.86-.12c-.28-.07-.54-.19-.82-.29ZM8.82,2.94V3c.17-.15.34-.29.49-.45a.4.4,0,0,1,.63,0l.2.22a2.37,2.37,0,0,0-1-1.08,2,2,0,0,1,.09.23c.12.36,0,.61-.41.63a1.78,1.78,0,0,1-.64-.1c-.32-.09-.48-.25-.47-.44a.75.75,0,0,1,.53-.52l.11,0,.36,0,0-.35c-.27.16-.55.29-.8.46s-.39.57,0,.85a6.63,6.63,0,0,0,.59.31A3.5,3.5,0,0,1,8.82,2.94ZM16.14,4l.52-.47a.39.39,0,0,1,.6,0l.22.24a2.48,2.48,0,0,0-1-1.08l.08.19c.14.42-.05.7-.51.67a2.24,2.24,0,0,1-.67-.15c-.41-.17-.46-.5-.09-.74a3,3,0,0,1,.76-.28L16,2.07c-.27.16-.55.29-.79.46-.39.28-.39.57,0,.84a4.83,4.83,0,0,0,.64.33A.35.35,0,0,1,16.14,4ZM27.22,5.58l-.94-.14a.12.12,0,0,0-.1,0l-.75.38v.06l1.13,0A.71.71,0,0,0,27.22,5.58ZM8.65,2.36C9,2.37,9.1,2.26,9,2s-.11-.33-.31-.35a.64.64,0,0,0-.62.22c-.11.12-.1.24.05.31A4.24,4.24,0,0,0,8.65,2.36Zm7.42,1c.27,0,.36-.13.29-.38s-.12-.33-.32-.36a.64.64,0,0,0-.62.23c-.1.12-.09.24.05.3S15.87,3.31,16.07,3.38Zm12.24-1a.57.57,0,0,0-.48.24c-.09.11-.08.23.05.28a4,4,0,0,0,.7.18.34.34,0,0,0,.21-.18A.45.45,0,0,0,28.31,2.4ZM20.37,2l.44-.29a3,3,0,0,1,2-.54c.21,0,.26.1.2.3l.05,0L23.51,1,23.2,1a5,5,0,0,0-1.9.37c-.35.13-.69.29-1,.44a.11.11,0,0,0,0,.06A.56.56,0,0,0,20.37,2ZM1.82,1.48A1.48,1.48,0,0,1,3.2,1.34,2.42,2.42,0,0,0,1.48,1c-.05,0-.1.07-.18.13C1.86,1.17,1.9,1.2,1.82,1.48Zm20.74,2a.39.39,0,0,0,.14,0c.16-.05.43,0,.41-.23s-.27-.22-.42-.33h0a.41.41,0,0,0-.4.36C22.24,3.37,22.32,3.44,22.56,3.43Zm13.12.47a1.05,1.05,0,0,0,.13,0c.16,0,.36,0,.41-.24s-.27-.3-.45-.33h0a.43.43,0,0,0-.41.36C35.34,3.84,35.43,3.9,35.68,3.9Zm.94.25c0-.12,0-.27,0-.43s.1-.27.28-.28a.74.74,0,0,1,.21,0V3.4l-1-.24a.32.32,0,0,0,.12.15c.13.1.28.22.22.38a.72.72,0,0,1-.32.3,2.62,2.62,0,0,1-.5.13v0ZM30.27,5.31l-.44-.23c-.14.19-.14.19-.8.45A1.28,1.28,0,0,0,30.27,5.31Zm-12.86,0c-.11.34-.47.34-.81.46a1.28,1.28,0,0,0,1.23-.21Zm-7.33-1c-.1.33-.46.34-.81.45a1.29,1.29,0,0,0,1.24-.21ZM14,5.48a2.44,2.44,0,0,1-1.4-1.28.52.52,0,0,0,.12.57A2.55,2.55,0,0,0,14,5.48Zm8.14-3c-.37.51-.39,1,0,1.07-.26-.32-.22-.63.22-.9ZM35.22,4c-.24-.39-.18-.59.24-.89L35.26,3C34.91,3.43,34.88,3.84,35.22,4Zm-14,1.34a2,2,0,0,0,1.35.33Zm13.17.49a1.53,1.53,0,0,0,1.25.29ZM14.17,1.3l-.47.07.12.39Zm10.25,0c-.37-.29-.66-.33-.76-.13Zm2.74,2.44a1.48,1.48,0,0,0,1,.12ZM5.91,4.05c0,.16.36.38.73.42Zm1.85-.93-.92-.49A1.8,1.8,0,0,0,7.76,3.12ZM30.69,5,31.1,5,31,4.72ZM24.08,3l-.5-.16,0,.22ZM10.9,4.31l.46-.1L11.25,4ZM26.61,1.05l-.44.07.17.24ZM18.68,5.2,18.59,5l-.34.31ZM11.62,1l.27.36,0,0L11.76.91ZM4.5,4.2l-.36,0,.26.21ZM12,2v.3l.29-.24-.15,0Zm-4,2.74c-.25,0-.25,0-.36.24Z"/><path d="M37.37,21.23l.12.27-.35-.06a.2.2,0,0,0,0,.08c.07.83-.49,1.23-1.21,1.3a2.56,2.56,0,0,1-2.26-.91.67.67,0,0,0-.09.26c0,.07.05.19.11.2s.14.11.15.22a.47.47,0,0,0,.1.24,2.54,2.54,0,0,0,2.84.85,4.36,4.36,0,0,1,.72-.22l-.14.31.11.06v.23c-.14,0-.31.12-.37-.16a1.07,1.07,0,0,1-1,.16,3.12,3.12,0,0,1-1.53-.4c.08.23.09.24.69.42a3.6,3.6,0,0,1-.57,0,.88.88,0,0,1-.36-.23c-.12-.11-.21-.26-.33-.38s-.22-.07-.27.08a3.38,3.38,0,0,0-.11.34q-.07.27-.36.18a2.5,2.5,0,0,0,.27-1.41c-.25.11-.48.19-.7.31a.63.63,0,0,0-.32.48,1.68,1.68,0,0,1-.12.38.34.34,0,0,1-.45.25l.33-.59-.05-.05a.39.39,0,0,1-.54,0c.08.24.1.45-.08.59a1.13,1.13,0,0,1-.34.11c0-.06,0-.08,0-.08a.51.51,0,0,0,.11-.68A1.69,1.69,0,0,0,30,22.26v.2a1.24,1.24,0,0,1-.89,1.29,2.83,2.83,0,0,1-3-.93c-.11-.15-.19-.31-.31-.46a1.51,1.51,0,0,0,.15.91c.16.26.34.53.53.81H26a.14.14,0,0,1-.11-.07,4.39,4.39,0,0,1-.59-1.39.89.89,0,0,1,.35-.89.73.73,0,0,0,0-1.08.32.32,0,0,0-.3,0,4.29,4.29,0,0,0-.95.73,3.34,3.34,0,0,0-.55,1.1,1.36,1.36,0,0,0,.4,1.45l.12.12v0A8.56,8.56,0,0,1,22.83,24l-.27.1v-.4a2,2,0,0,1-1.07.35,6.55,6.55,0,0,1-1,0,1.1,1.1,0,0,1-.8-.49c-.33-.47-.33-.38-.73-.11a.82.82,0,0,0-.45.64h-.25l.13-.51c-.32.14-.38-.21-.61-.34,0,.19,0,.36,0,.52,0,.35-.07.37-.44.32a3.29,3.29,0,0,0-.09-.64,2.57,2.57,0,0,0-.34-.55,1.86,1.86,0,0,1-2.54.57,1.87,1.87,0,0,1-1-2.44,2.29,2.29,0,0,0-.31,3.05c-.26.06-.26.06-.62-.47l0,.48c-.2.11-.33,0-.31-.34s0-.38,0-.57c-.43.48-.81,1-1.64.92a2.49,2.49,0,0,0,1.23-.84,1.94,1.94,0,0,0,.37-1.39c-.19.08-.35.13-.51.21a.58.58,0,0,0-.35.47,1,1,0,0,1-.71.81l-.63.25a.47.47,0,0,0-.32.38.18.18,0,0,1-.14.11A1.54,1.54,0,0,1,9.15,24a5.24,5.24,0,0,1-2.53-.2l.39.25c-.41.07-.44.05-.7-.29s-.33-.38-.7-.12a1.9,1.9,0,0,0-.33.3.26.26,0,0,1-.35.1l.12-.24c-.2,0-.39,0-.48-.23-.23.12-.49.15-.6.42a.17.17,0,0,1-.13.07H1.61s-.09-.06-.12-.13a3.74,3.74,0,0,0,2.75-.61,1.76,1.76,0,0,1-.81-1.23,1.58,1.58,0,0,1-1.84.9.22.22,0,0,1-.1-.13,1.5,1.5,0,0,1,0-.3,5.76,5.76,0,0,0,.59,0,5.59,5.59,0,0,0,.56-.12v-.09H2.14a1.65,1.65,0,0,1-.38-.05c-.28-.07-.29-.1-.26-.41l.22.17c-.23-.4-.17-.64.25-.93l-.21-.2-.26.5c-.15-.79.51-1.15.88-1.71l-.87.08-.05,0c.05-.06.09-.16.14-.17a8.65,8.65,0,0,1,.88-.05c.17,0,.26.1.17.34A1.41,1.41,0,0,1,4,19.72a1.32,1.32,0,0,0-.76-.32,4.22,4.22,0,0,0-.87,0c-.28,0-.56.08-.86.13,0-.11,0-.19.11-.22a3.45,3.45,0,0,1,2.06,0,7.7,7.7,0,0,1,1,.57,1.74,1.74,0,0,0-.09-.28,2,2,0,0,0-2-1.13,1.49,1.49,0,0,0-.4.15l-.65.25c-.07-.15,0-.22.1-.27s.48-.21.73-.29a2,2,0,0,1,1.24.09,2.19,2.19,0,0,1,1.08.8c0-.19,0-.33.25-.3a2.3,2.3,0,0,1,.43.16.51.51,0,0,1,.47-.25,4.88,4.88,0,0,0,2-.52,1.87,1.87,0,0,1,1.23-.1,2.12,2.12,0,0,1,1.34.85c.05-.09.08-.22.14-.24a.57.57,0,0,1,.34,0,2,2,0,0,1,.78.73l.14.22.56-.28a4,4,0,0,1,2-.36.54.54,0,0,1,.52.3l.41-.6a.59.59,0,0,1,.82-.21,11.22,11.22,0,0,0,1.23.43c.47.12.95.16,1.42.24l0-.08c-.05-.51,0-.63.56-.66a4.68,4.68,0,0,0,1.87-.49,2.05,2.05,0,0,1,1.73,0,1.88,1.88,0,0,1,.87.7c.06-.09.1-.23.17-.24a.42.42,0,0,1,.35.06,4.53,4.53,0,0,1,.74.71,6.66,6.66,0,0,1,.48.87.81.81,0,0,0,.28.27c0-.22-.09-.44-.13-.66s.07-.52.4-.54a8.62,8.62,0,0,0,2.78-.75,1.92,1.92,0,0,1,1,0,2.39,2.39,0,0,1,1.68,1.13c0-.1,0-.13,0-.17,0-.23.09-.35.32-.29a1.47,1.47,0,0,1,.75.52.24.24,0,0,0,.32.08,2.33,2.33,0,0,1,.48-.06c0-.15-.06-.33-.08-.51s0-.39.3-.45a.27.27,0,0,1,.12,0,6,6,0,0,0,2.24-.59,1.89,1.89,0,0,1,1.44.09c.05,0,.07.13.1.19-.39-.06-.76-.12-1.12-.16a.61.61,0,0,0-.29.06,6.32,6.32,0,0,1-2.23.61c-.3,0-.32,0-.29.35,0,.14.06.28.08.39.57-.2,1.11-.42,1.66-.58a3.61,3.61,0,0,1,2,0c.14,0,.2.1.15.23-.31,0-.62-.12-.92-.14a5.52,5.52,0,0,0-2.63.69l-.17.08a.86.86,0,0,1-.17,0l.16.42A2.6,2.6,0,0,1,36,19.34h.15c.22,0,.26.1.23.32.71-.32,1.09-.33,1.08,0-.85-.14-1.28.42-1.75,1a7.58,7.58,0,0,1,.76.06c.3.06.59.13.89.21,0,0,.09.08.11.13s-.05.08-.08.12a2.47,2.47,0,0,0-1-.24.81.81,0,0,0,.1.09c.13.1.27.21.25.41s-.2.27-.36.32a4.43,4.43,0,0,1-.49.13v0h1c0-.06,0-.15,0-.25,0-.46,0-.46.48-.48Zm-31.84.38,0,0a2,2,0,0,0,.07.55,2.65,2.65,0,0,0,2.07,1.65A3.41,3.41,0,0,0,10,23.17c.51-.33.5-.39.24-.93a1.32,1.32,0,0,0-1.07-.75c0,.06,0,.09,0,.12a1.09,1.09,0,0,1-1,1.22,2.47,2.47,0,0,1-1.67-.2A2.17,2.17,0,0,1,5.53,21.61Zm13.39-.23h-.06a2.52,2.52,0,0,0,.08.56,2.65,2.65,0,0,0,2.35,1.67,3.9,3.9,0,0,0,1.94-.56.41.41,0,0,0,.28-.42,2,2,0,0,1,.11-.47.32.32,0,0,0,0-.16,1.25,1.25,0,0,0-1.08-.72v.1a1.07,1.07,0,0,1-.94,1.19,2.93,2.93,0,0,1-1,0A2.22,2.22,0,0,1,18.92,21.38Zm13,2c0-.14.07-.21.09-.27a2.69,2.69,0,0,0-1.43-2.74,1.19,1.19,0,0,0-1,0,2.79,2.79,0,0,0-1.13,1.05s0,0,0,.09l.28,0c.41.06.83.08,1.23.17a2.27,2.27,0,0,1,1.62,1.19A2.87,2.87,0,0,0,32,23.38Zm-14.7-2.92a3.06,3.06,0,0,0-1.6-.35,1.93,1.93,0,0,0-1.84,1.42,1,1,0,0,0,.08.78,2.1,2.1,0,0,0,1.26.92,1.54,1.54,0,0,0,.43,0,.36.36,0,0,0-.13-.12,4.77,4.77,0,0,1-.64-.43.56.56,0,0,1,0-.89,1.48,1.48,0,0,1,.47-.35c.51-.22,1-.43,1.55-.61A.57.57,0,0,0,17.27,20.46Zm11.59-.33a3.2,3.2,0,0,0-1.76.4,1.33,1.33,0,0,0-.79,1.3,1.52,1.52,0,0,0,1,1.4,2.78,2.78,0,0,0,1.48.11,1.4,1.4,0,0,0,.44-.22.2.2,0,0,0-.14,0,5.77,5.77,0,0,1-1-.08.64.64,0,0,1-.51-.88,3.48,3.48,0,0,1,.44-.91C28.25,20.85,28.56,20.51,28.86,20.13Zm-11.77,1.5a1.38,1.38,0,0,0,.62,1.23l.5.41a.24.24,0,0,0,.2.05.57.57,0,0,0,.23-.12c.35-.24.35-.25.16-.63a6.36,6.36,0,0,1-.4-.93.7.7,0,0,1,.23-.84.63.63,0,0,0,.15-.88.22.22,0,0,0-.34-.11A2.35,2.35,0,0,0,17.09,21.63ZM5,23.61l.47-.29A.2.2,0,0,0,5.5,23c-.06-.13-.13-.25-.19-.38a5.45,5.45,0,0,1-.3-.76A.79.79,0,0,1,5.25,21a.56.56,0,0,0,.18-.79C5.32,20,5.22,20,5,20.08a2.37,2.37,0,0,0-1,1,1.44,1.44,0,0,0,.46,2.15C4.61,23.32,4.75,23.45,5,23.61Zm26.52-3.2a2,2,0,0,0-1.42-1.62,2,2,0,0,0-1.51.06,8.83,8.83,0,0,1-1.53.5,8.27,8.27,0,0,1-.87.11c-.08,0-.2.12-.2.17a7.22,7.22,0,0,0,.1.76l.19-.09a7.11,7.11,0,0,1,2.7-.81,2.87,2.87,0,0,1,2.38.79Zm-20.62,2,.06,0a.73.73,0,0,0,.05-.2A2.27,2.27,0,0,0,10,20a1.16,1.16,0,0,0-1.61.06,3.5,3.5,0,0,0-.62.73,5.51,5.51,0,0,1,1.84.32C10.23,21.34,10.48,21.91,10.85,22.38ZM8.15,19.6a2.82,2.82,0,0,0-1.76.52,1.11,1.11,0,0,0-.43.71,1.38,1.38,0,0,0,.83,1.47,2.51,2.51,0,0,0,1.33.1,1.13,1.13,0,0,0,.27-.13,7.86,7.86,0,0,1-1-.15A.56.56,0,0,1,7,21.36a4.17,4.17,0,0,1,.46-.92A10.67,10.67,0,0,1,8.15,19.6Zm28.2,2.58h-.49c-.89,0-1.2-.54-.76-1.32a12.71,12.71,0,0,1,.83-1.14l.14-.17a2.66,2.66,0,0,0-1.83.57,1.12,1.12,0,0,0-.32,1.22,1.43,1.43,0,0,0,1.47,1A1.24,1.24,0,0,0,36.35,22.18ZM21.8,22a8.35,8.35,0,0,1-.89-.1.62.62,0,0,1-.5-.86,1.54,1.54,0,0,1,.19-.46c.26-.36.53-.71.8-1.06l.12-.16a2.8,2.8,0,0,0-1.52.34,1.21,1.21,0,0,0-.65.84,1.36,1.36,0,0,0,.91,1.53,2.53,2.53,0,0,0,1.22.08A1.33,1.33,0,0,0,21.8,22Zm-.64-1.48a3.22,3.22,0,0,1,2.71,1.05c.12-.15.25-.31.37-.48a.16.16,0,0,0,0-.15,2.26,2.26,0,0,0-1.13-1.36,1,1,0,0,0-.84-.08A2.49,2.49,0,0,0,21.16,20.54Zm-2.08-1,.16-.07a6.38,6.38,0,0,1,2.06-.67,2.69,2.69,0,0,1,2.45.69l.09.06c0-.06,0-.1,0-.14a1.93,1.93,0,0,0-2.53-1.19,6.71,6.71,0,0,1-1.24.42c-.28.07-.57.07-.86.12-.07,0-.18.1-.18.15A4.85,4.85,0,0,0,19.08,19.56Zm-7,2.06a.5.5,0,0,0,.45-.32,1.4,1.4,0,0,1,1.17-.92.9.9,0,0,0,.8-.65c.11-.29.05-.4-.26-.39a7.09,7.09,0,0,0-1.13.11,3.5,3.5,0,0,0-1.2.53c.11.25.21.47.32.69A.74.74,0,0,1,12.1,21.62Zm-1.63-1.86a1.84,1.84,0,0,0-1.21-1.3,1.48,1.48,0,0,0-1-.1A6.75,6.75,0,0,1,5.82,19c-.07,0-.18.06-.19.11a1,1,0,0,0,.09.63c.53-.2,1-.4,1.52-.55a3.42,3.42,0,0,1,2.34,0C9.89,19.36,10.16,19.58,10.47,19.76Zm21.28-.35a1.16,1.16,0,0,0,0,.16,2.64,2.64,0,0,1,.23,1.3.31.31,0,0,0,.05.18,4,4,0,0,1,.47,1.26,1.46,1.46,0,0,0,.11.28,4.23,4.23,0,0,0,.38-.23.56.56,0,0,0,.26-.81C33,21,32.74,20.48,32.44,20A1.34,1.34,0,0,0,31.75,19.41ZM2.06,20.89l.13.05,1.37.2a.17.17,0,0,0,.12-.05l.62-.9C3.56,19.51,2.67,19.83,2.06,20.89ZM18.83,19.6v-.07a1.52,1.52,0,0,0-.2-.06l-.88-.11A5.2,5.2,0,0,1,16,18.83c-.1,0-.28-.09-.35,0a1.46,1.46,0,0,0-.51.7l.09,0a8.44,8.44,0,0,1,2.43.42.3.3,0,0,0,.23-.07A1.08,1.08,0,0,1,18.83,19.6ZM10.73,19a.37.37,0,0,1,0,.08A2.57,2.57,0,0,1,11,20.26c0,.06,0,.12.06.18s.19.42.27.64.12.42.19.66l.28-.16a.54.54,0,0,0,.25-.82c-.19-.4-.39-.78-.61-1.16A1.46,1.46,0,0,0,10.73,19Zm18.34,1.37a1.67,1.67,0,0,1,1.84-.12.94.94,0,0,0-.2-.16,2.81,2.81,0,0,0-1.79-.38,6.89,6.89,0,0,0-2.51.75,2.85,2.85,0,0,1-.46.17l.21.56a1.83,1.83,0,0,1,.81-.84,3.47,3.47,0,0,1,1.87-.41C29.2,19.94,29.25,20.05,29.07,20.36Zm-5-1.63a8.34,8.34,0,0,1,.22.81,5.25,5.25,0,0,0,0,.56,5.25,5.25,0,0,0,.31.63l.66-.37A3.43,3.43,0,0,0,24.1,18.73ZM16,21.33a7,7,0,0,0-.84.52c-.34.25-.34.54,0,.79a4,4,0,0,0,.67.38c.13.07.26.13.23.33a3,3,0,0,0,.54-.47.39.39,0,0,1,.62,0l.19.21A2.56,2.56,0,0,0,16.46,22c0,.1.05.16.07.21.12.4-.06.68-.48.66a2.46,2.46,0,0,1-.71-.17c-.4-.16-.46-.51-.1-.75a3.74,3.74,0,0,1,.77-.3ZM29.69,23a4.48,4.48,0,0,0,0-.56c0-.24.09-.37.33-.36a2.66,2.66,0,0,1,.39.07,3.2,3.2,0,0,0-1.45-.4c.15.11.27.18.37.27a.36.36,0,0,1-.09.64,1.64,1.64,0,0,1-.9.17.47.47,0,0,1-.42-.59c0-.27.26-.37.45-.51l-.3-.26c-.07.16-.16.31-.22.46-.24.6,0,.93.6,1a2.16,2.16,0,0,0,.36,0c.16,0,.31,0,.46,0A1.42,1.42,0,0,1,29.69,23ZM9.83,19.64v-.07a4.11,4.11,0,0,0-.66-.26,4.65,4.65,0,0,0-3.06.54s0,.1,0,.16a.49.49,0,0,0,.19-.08,2.92,2.92,0,0,1,1.94-.52c.24,0,.28.08.25.33A1.34,1.34,0,0,1,9.83,19.64ZM16,22.69c.27,0,.37-.15.3-.39s-.12-.36-.35-.38a.68.68,0,0,0-.64.3.18.18,0,0,0,.1.26C15.59,22.56,15.79,22.62,16,22.69Zm5.82-3.18a1.38,1.38,0,0,1,1.37-.13c-.78-.69-2.58-.38-3.68.29a.27.27,0,0,0,.2,0,3.1,3.1,0,0,1,1.9-.47C21.82,19.19,21.87,19.28,21.81,19.51Zm6.72,3.15a5.56,5.56,0,0,0,.61-.19.27.27,0,0,0,.1-.23.56.56,0,0,0-.91-.15.48.48,0,0,0-.06.39C28.29,22.56,28.44,22.6,28.53,22.66Zm-11-2.54a8.55,8.55,0,0,0-2.29-.41,2.12,2.12,0,0,1-.41-.08l-.24.52c.26-.07.52-.16.78-.21a3.28,3.28,0,0,1,1.9.27C17.38,20.25,17.48,20.3,17.54,20.12Zm18.29,1.62a4.66,4.66,0,0,0,.49-.16.22.22,0,0,0,.08-.19.64.64,0,0,0-.54-.28.43.43,0,0,0-.32.39C35.56,21.67,35.66,21.73,35.83,21.74Zm-33.65.17c.1,0,.27-.07.43-.13s.08-.11.12-.17a2,2,0,0,0-.47-.31c-.17-.05-.31.08-.38.24S1.89,21.9,2.18,21.91ZM8,21.77a2.34,2.34,0,0,0,.42-.13.29.29,0,0,0,.1-.16,1.42,1.42,0,0,0-.45-.3.48.48,0,0,0-.36.19C7.53,21.56,7.65,21.77,8,21.77Zm13.27-.2c.19-.06.37-.09.53-.16s.12-.14.1-.19a.48.48,0,0,0-.78-.13.47.47,0,0,0-.05.33C21.06,21.48,21.17,21.52,21.24,21.57Zm.09.19v0h1c0-.13,0-.29,0-.45s.1-.3.3-.29l.2,0,0-.05-1-.25,0,.05.1.07c.14.11.29.22.26.43s-.21.27-.37.33ZM9.45,21.31v0l-1-.25,0,.06.11.09c.14.1.29.22.23.39a.63.63,0,0,1-.33.31,2.82,2.82,0,0,1-.59.14v0H8.9c0-.12,0-.28,0-.43s.08-.3.29-.3Zm-7.34.82v0h1c0-.12,0-.29,0-.45a.25.25,0,0,1,.23-.28l.15,0v-.06l-.88-.2a.31.31,0,0,0,.13.16c.32.26.29.54-.09.68A3.92,3.92,0,0,1,2.11,22.13Zm21.41,1.16c-.1.06-.22.09-.28.17a1,1,0,0,0-.13.38s.09.12.14.11a4.07,4.07,0,0,0,.59-.06Zm9.77-2.41a.61.61,0,0,0,.06-.7c-.13-.28-.26-.31-.51-.1Zm-16.41.37-.64.22,0,.08.58.38ZM5,19.14a2.78,2.78,0,0,1,.12.38c0,.23.14.33.37.3C5.4,19.52,5.33,19.23,5,19.14Zm2.59,1.67c-.32.44-.43,1-.09,1.08a1.32,1.32,0,0,1-.06-.48A1.63,1.63,0,0,1,7.71,21Zm28.12.12-.2-.17c-.32.39-.41,1-.06,1.06C35.18,21.46,35.24,21.25,35.66,20.93Zm-7.89,2.65a1.67,1.67,0,0,0,1.71-.36C29,23.69,28.38,23.58,27.77,23.58Zm-7.09-2.34.42-.51-.2-.17C20.81,20.8,20.6,21,20.68,21.24Zm-4.92,2.18A2.1,2.1,0,0,1,14,22.88,1.67,1.67,0,0,0,15.76,23.42Zm-2-2.42.35-.47-.49.08Zm-3.24,2.16.49-.31-.12.07-.18-.37C10.8,22.81,10.61,23,10.51,23.16ZM19,19.74l0,.06.16.42.24-.35Zm-13.26.68h.07a.68.68,0,0,0,0-.28c0-.07-.13-.11-.19-.17l0,.05Zm15.58,3.43-.93-.13A1.12,1.12,0,0,0,21.36,23.85ZM26,21.66a.31.31,0,0,0,.06.54ZM32.36,23l.25-.21-.25-.14Zm1-1.89.26.2-.06-.38Z"/><path d="M1.49,3V2.71A4.28,4.28,0,0,1,3.23,3c.6.22.85.78,1.21,1.22l.09,0a5.46,5.46,0,0,0,0-.56A2.19,2.19,0,0,0,3.34,1.77a1,1,0,0,0-1.16.08c-.24.17-.45.38-.68.58,0-.31-.1-.63.27-.87l-.26,0C1.44,1.11,1.53,1,2,1a2.55,2.55,0,0,1,1.55.32c.18.11.36.26.58.38L3.75,1a3.69,3.69,0,0,1,.47,0,.16.16,0,0,1,.13.09,1.92,1.92,0,0,1,.19,1,.3.3,0,0,0,0,.16c.14.37.29.74.43,1.12l.07.16s0,0,.06,0c.63-.34.68-.49.37-1.13A3.72,3.72,0,0,0,4.5,1c.48-.12.58.31.85.55.12-.46.38-.71.89-.53a1.81,1.81,0,0,0-.25.3,2.07,2.07,0,0,0-.19.32.91.91,0,0,0,0,.9.68.68,0,0,1-.07.87c.33,0,.35,0,.35.29a.43.43,0,0,0,.17.36,2.91,2.91,0,0,0,1.31.57,5.93,5.93,0,0,0,2,.09.71.71,0,0,0,.55-.41A1.21,1.21,0,0,0,10,3c0-.06-.11-.1-.18-.17L9.69,3A1.78,1.78,0,0,1,7.8,3.5,2,2,0,0,1,6.28,2.06a1.48,1.48,0,0,1,.06-.93A.21.21,0,0,1,6.5,1,3.41,3.41,0,0,1,7,1l-.16.4a.85.85,0,0,0,.07.83,1.8,1.8,0,0,0,1.63.88l.08,0L8.44,3c-.17-.1-.35-.17-.5-.28-.51-.38-.52-.79,0-1.16A2.73,2.73,0,0,1,9.67,1c.51,0,1,0,1.54,0,.27,0,.54,0,.81,0a.21.21,0,0,1,.24.15c.05.19.1.38.14.57s0,.18,0,.32a1.78,1.78,0,0,0,.39-1h.25l0,.41c0-.05.06-.09.09-.12.18-.27.37-.28.57,0,0,0,.07.08.1.08a1.21,1.21,0,0,0,.73-.24A1.71,1.71,0,0,1,14.87,1l0,.06,0,.15A2.16,2.16,0,0,1,16.08,1a3.26,3.26,0,0,1,1.39.14l.55.28c.06,0,.14.15.13.21s-.12.12-.2.16-.13,0-.19.09a3.3,3.3,0,0,1,.63,0,4.7,4.7,0,0,1,.63.22.42.42,0,0,0,.22,0A2.87,2.87,0,0,0,17.68,1a2.11,2.11,0,0,1,1.78.87l.69-.22L19.86,1h.55l.1.67c.59-.2,1.13-.4,1.69-.57A4.33,4.33,0,0,1,23.84,1a2.2,2.2,0,0,1,1.41.72l.05,0L25,1a3.85,3.85,0,0,1,.48,0,.18.18,0,0,1,.12.09,1.91,1.91,0,0,1,.18,1,.32.32,0,0,0,0,.16l.43,1.14.06.14s.05,0,.06,0c.63-.34.68-.49.37-1.13a3.66,3.66,0,0,0-1-1.41l0-.06a2.59,2.59,0,0,0,.37.11,3.38,3.38,0,0,0,.45,0L27.51,1l0,.06a1.94,1.94,0,0,0-.24.15A2.09,2.09,0,0,0,27,1.4c-.34.32-.34.35-.14.77.08.14.14.29.21.43a.72.72,0,0,1-.11.85c.22,0,.32,0,.41.18s.31.18.48.23a1.55,1.55,0,0,0,.43,0V3.82l-.16-.07a4.93,4.93,0,0,1-.61-.4.54.54,0,0,1,0-.88A2.31,2.31,0,0,1,28.21,2c.64-.24,1.3-.43,1.95-.64l.15,0L29.65,1a.9.9,0,0,1,.8.17.29.29,0,0,1,.11.22c0,.05-.11.1-.18.13s-.13,0-.2.08a1.49,1.49,0,0,1,1.69.79A1.88,1.88,0,0,0,30.68,1a.8.8,0,0,1,.63.11,1.74,1.74,0,0,1,.84,1.41.38.38,0,0,0,0,.1c.4-.18.5-.88.24-1.61.24-.06.29-.05.33.17a7.72,7.72,0,0,1,.09.92c.07-.12.17-.31.42-.27a.17.17,0,0,0,0-.05c0-.41,0-.52.47-.58L35,1a4.51,4.51,0,0,1,.52,0v.05c-.4.1-.79.22-1.19.3a4.2,4.2,0,0,1-.61.06c-.14,0-.22.08-.19.24s.05.33.08.52l.24-.1a6,6,0,0,1,2.35-.64,6.83,6.83,0,0,1,1.09.11c.13,0,.2.09.12.25a3.09,3.09,0,0,0-2-.05c-.63.18-1.25.42-1.89.64l.14.43a2.63,2.63,0,0,1,2.28-1,.75.75,0,0,1,.21,0c.16,0,.25.11.12.32A1.39,1.39,0,0,1,37.42,2s0,.11,0,.2a1.12,1.12,0,0,0-1,.17,2.46,2.46,0,0,0-.78.82c.27,0,.49,0,.72.06s.5.09.75.14.33.11.26.35a1.2,1.2,0,0,0,0,.19l-.31,0a.69.69,0,0,0,0,.13,1,1,0,0,1-.88,1.14A2.51,2.51,0,0,1,34,4.59,5.46,5.46,0,0,1,33.42,4a1.2,1.2,0,0,0,.1.64,2.68,2.68,0,0,0,3.53,1.28l.37-.14.06,0a2.25,2.25,0,0,0-.12.21.25.25,0,0,0,0,.12l.09,0a.74.74,0,0,1-.4.77,3.05,3.05,0,0,1-2.13.5A15.25,15.25,0,0,1,33.38,7a.29.29,0,0,1-.1,0c-.46-.2-.56-.47-.3-.94-.39.15-.45-.25-.71-.35l-.06,0a3.81,3.81,0,0,1-3.77,1,2.84,2.84,0,0,1-.66-.22c-.35-.17-.36-.43-.05-.66L28,5.72l-.24,0a1,1,0,0,1-1,.65,5,5,0,0,1-1.53-.16,1.41,1.41,0,0,0-.41,0c-.22,0-.43,0-.54-.16a2.57,2.57,0,0,1-.41.4,3.11,3.11,0,0,1-2,.51,5.7,5.7,0,0,1-1.68-.38.82.82,0,0,1-.52-.44c-.25.18-.49.38-.75.53a4.08,4.08,0,0,1-3.48.24l-.07,0c-.31-.15-.36-.26-.28-.6a1.17,1.17,0,0,1-1,.34,3.67,3.67,0,0,1-2.48-.81.26.26,0,0,0-.23,0,4.16,4.16,0,0,1-3.21.17l-.2-.08c-.28-.15-.33-.25-.25-.59a1.05,1.05,0,0,1-.94.33c-.44,0-.87-.1-1.3-.15a.44.44,0,0,0-.22.07,3.31,3.31,0,0,1-1.75.67A.51.51,0,0,1,3.08,6a2.44,2.44,0,0,1-1.56.91c-.06-.15,0-.2.1-.25a9.7,9.7,0,0,0,.93-.41.38.38,0,0,0,.2-.5,2.28,2.28,0,0,1-1.24.35V5.71a9.48,9.48,0,0,0,1.17-.28,5.78,5.78,0,0,0,1.11-.56c.29-.18.29-.29.16-.61a1.4,1.4,0,0,0-1.16-.9,1.12,1.12,0,0,1-.41,1.06,1.58,1.58,0,0,1-.88.27V4.31L2,4.11c-.52,0-.52,0-.52-.23h1a1.63,1.63,0,0,0,0-.35c0-.31.1-.4.41-.36l.09,0,0,0L2,2.89v0a2.75,2.75,0,0,1,.26.22c.17.18.15.39-.07.49a6.59,6.59,0,0,1-.67.23c-.05-.16-.05-.23.1-.25a1.18,1.18,0,0,0,.31-.08c.22-.09.24-.2,0-.34A3.61,3.61,0,0,0,1.49,3ZM15.28,4.31a1,1,0,0,0,.74,0h-.74l-1.08-.6A2.13,2.13,0,0,0,15.28,4.31Zm1.9-.52a2.07,2.07,0,0,1-3.57-.7l-.07.14-.46.89a.28.28,0,0,0,0,.2A1.85,1.85,0,0,0,14.17,5.4a5.06,5.06,0,0,0,2.49.35c.61-.06.78-.23.91-.83l0-.13A1.06,1.06,0,0,0,17.18,3.79Zm3.17-.31-.05,0a2,2,0,0,0,.09.56,2.71,2.71,0,0,0,1.37,1.38,3.44,3.44,0,0,0,3.38-.67.39.39,0,0,0,.08-.1.22.22,0,0,0,0-.14A1.36,1.36,0,0,0,24,3.38c0,.05,0,.1,0,.14a1,1,0,0,1-.79,1.09,2.54,2.54,0,0,1-1.42,0A2.27,2.27,0,0,1,20.35,3.48Zm-9.77,1,.11,0,.08,0A2.73,2.73,0,0,0,12,2.37a1.14,1.14,0,0,0-1.25-1.3,5,5,0,0,0-1.48.32l-.11.05.26.2a9.15,9.15,0,0,1,1,.81,1.37,1.37,0,0,1,.32,1.45A3.54,3.54,0,0,0,10.58,4.52Zm19.75.74a2.09,2.09,0,0,0,.9-.79,1.55,1.55,0,0,0,.14-.32,6.65,6.65,0,0,1,.26-.75,1.16,1.16,0,0,0-.81-1.56A3,3,0,0,0,29.55,2l-.63.2v.06a2.27,2.27,0,0,0,.25.18,3.18,3.18,0,0,1,1,.91,1.42,1.42,0,0,1,.23,1.32A3.82,3.82,0,0,0,30.33,5.26ZM17.85,1.59c-.05,0-.07-.07-.1-.08a3.2,3.2,0,0,0-1.91-.41,1.88,1.88,0,0,0-1.71,1.28,1,1,0,0,0,.2,1,2,2,0,0,0,.92.61,3.09,3.09,0,0,0,.62.09V4.06c-.13-.06-.26-.11-.38-.18a2.08,2.08,0,0,1-.34-.24.57.57,0,0,1,0-1,1.72,1.72,0,0,1,.45-.31l1.62-.6C17.42,1.69,17.63,1.65,17.85,1.59Zm2.52.92,0,0V2.4c0-.46-.26-.57-.65-.34a2.33,2.33,0,0,0-1.06,1.29A1.18,1.18,0,0,0,19,4.78c.17.16.37.29.55.43s.17.17.25.17.2-.09.3-.15a.51.51,0,0,0,.18-.14.28.28,0,0,0,.06-.23,3.6,3.6,0,0,0-.2-.39,5.11,5.11,0,0,1-.28-.68.77.77,0,0,1,.3-1C20.25,2.77,20.3,2.62,20.37,2.51Zm11.25,1.8a1.27,1.27,0,0,0,.61,1.06,2.52,2.52,0,0,1,.47.38.21.21,0,0,0,.32,0l.13-.07c.38-.24.38-.26.17-.66a4.92,4.92,0,0,1-.39-.88.71.71,0,0,1,.23-.81.57.57,0,0,0,.15-.84A.23.23,0,0,0,33,2.42,2.33,2.33,0,0,0,31.62,4.31Zm-4.74,1a1.71,1.71,0,0,0,.36.1,11.9,11.9,0,0,0,1.68.14c.76,0,.86-.1,1.09-.94v0a1,1,0,0,0-.46-1,1.86,1.86,0,0,1-2.19.65ZM22.65,2.65A6.52,6.52,0,0,1,24.41,3c.62.22.89.79,1.3,1.28A1.83,1.83,0,0,0,25.79,4a2.22,2.22,0,0,0-1.22-2.2,1.2,1.2,0,0,0-.69-.13A1.89,1.89,0,0,0,22.65,2.65ZM36.07,2a3.12,3.12,0,0,0-1.56.35,1.11,1.11,0,0,0-.64,1.08,1.25,1.25,0,0,0,.78,1.14A2.54,2.54,0,0,0,36,4.71a.9.9,0,0,0,.26-.13,7,7,0,0,1-1-.15.55.55,0,0,1-.38-.72,2.68,2.68,0,0,1,.6-1.08C35.69,2.43,35.87,2.24,36.07,2ZM23,1.55A2.85,2.85,0,0,0,21.31,2a1.16,1.16,0,0,0-.52.72,1.27,1.27,0,0,0,.92,1.48,5.22,5.22,0,0,0,1.19.09c.11,0,.22-.1.31-.14a7.55,7.55,0,0,1-1-.14.56.56,0,0,1-.4-.77,3.6,3.6,0,0,1,.42-.8C22.46,2.11,22.71,1.85,23,1.55ZM12.41,4.7l-.36,0a1.31,1.31,0,0,0-1.17.27,1.59,1.59,0,0,1-1.32.3c-.28,0-.57-.07-.86-.11a.77.77,0,0,0-.56.21c-.15.13-.14.23,0,.33a.69.69,0,0,0,.15.07,3.77,3.77,0,0,0,3.13-.21A3.32,3.32,0,0,0,12.41,4.7Zm7.32,1-.58-.08a1.21,1.21,0,0,0-.91.27A1.52,1.52,0,0,1,17,6.21c-.14,0-.29-.06-.43-.07-.3,0-.61-.12-.89.05a2,2,0,0,0-.29.29c.11.08.2.2.32.23a3.82,3.82,0,0,0,2.54,0A3.42,3.42,0,0,0,19.73,5.69Zm12.35-.15a1.38,1.38,0,0,0-.22-.13,1.33,1.33,0,0,0-1.21.24A1.51,1.51,0,0,1,29.34,6a4.85,4.85,0,0,0-.53-.08c-.27,0-.57-.09-.81.11a1.38,1.38,0,0,0-.22.26.92.92,0,0,0,.25.2,6.86,6.86,0,0,0,1.18.24A3.43,3.43,0,0,0,32.08,5.54ZM16.49,2.45l.23.18a9.89,9.89,0,0,1,.81.64A1.51,1.51,0,0,1,18,5a3,3,0,0,0-.06.52l.09,0,.72-.65a1.41,1.41,0,0,1-.45-1.29,2.92,2.92,0,0,1,.64-1.25C18.56,1.84,17.09,2.1,16.49,2.45ZM24,5.74a2.9,2.9,0,0,1-2,.32,1.11,1.11,0,0,1-.91-.54.55.55,0,0,0-.2-.2.19.19,0,0,0-.19,0,5.16,5.16,0,0,0-.64.49.27.27,0,0,0,0,.44.7.7,0,0,0,.28.15,13.26,13.26,0,0,0,1.35.33,2.81,2.81,0,0,0,2-.42C23.91,6.16,24.06,6,24,5.74Zm13.1.47a2.76,2.76,0,0,1-1.84.33,1.19,1.19,0,0,1-1-.55.55.55,0,0,0-.2-.2.23.23,0,0,0-.21,0,3.12,3.12,0,0,0-.59.44c-.2.19-.16.38.08.53a.7.7,0,0,0,.23.11c.44.11.88.25,1.33.32a2.85,2.85,0,0,0,1.95-.4C37.07,6.6,37.12,6.51,37.08,6.21ZM11.73,4.26l.56,0a.79.79,0,0,0,.77-.53,13.85,13.85,0,0,0,.47-1.37,1.22,1.22,0,0,0-.1-1l-.1.15a2.83,2.83,0,0,1-.79,1.11s-.07.11-.11.18c-.19.41-.39.82-.59,1.23ZM27.06,3.7l-.48.18a.58.58,0,0,0-.37.42,1,1,0,0,1-.79.86,6.14,6.14,0,0,0-.7.3.32.32,0,0,0-.16.41c0,.07.21.11.32.1a3,3,0,0,0,1.32-.48A1.85,1.85,0,0,0,27.06,3.7ZM5.84,3.7a3,3,0,0,0-.54.22.86.86,0,0,0-.31.4,1,1,0,0,1-.79.84,2.76,2.76,0,0,0-.72.33c-.1.06-.12.25-.17.38.11,0,.23.11.33.1A3,3,0,0,0,5,5.49,1.87,1.87,0,0,0,5.84,3.7Zm6.73,1.22-.73.63s0,0,.05.06a3.3,3.3,0,0,0,2.54.76A.72.72,0,0,0,15,6,3.08,3.08,0,0,1,12.57,4.92ZM28.71,4c.22-.2.4-.34.56-.51a.39.39,0,0,1,.61,0c.09.08.16.18.25.27a2.31,2.31,0,0,0-.94-1.06,1.68,1.68,0,0,0,.06.24.41.41,0,0,1-.37.55,1.44,1.44,0,0,1-1-.23.31.31,0,0,1-.07-.54,1.56,1.56,0,0,1,.5-.29,1.67,1.67,0,0,1,.39-.05L28.65,2a9.41,9.41,0,0,0-.88.55c-.29.22-.29.47,0,.7a4.56,4.56,0,0,0,.65.37C28.57,3.7,28.74,3.74,28.71,4ZM5.65,5.25a4.07,4.07,0,0,0,1.55.11A.69.69,0,0,0,7.69,5a7.74,7.74,0,0,1-.86-.12A8,8,0,0,1,6,4.61ZM9,3.14v.09c.16-.15.34-.29.49-.45a.4.4,0,0,1,.63,0l.2.22a2.43,2.43,0,0,0-1-1.08,2,2,0,0,1,.09.23c.12.36,0,.61-.41.63a1.78,1.78,0,0,1-.64-.1C8.1,2.56,8,2.39,8,2.21a.73.73,0,0,1,.53-.52l.1,0,.37,0-.05-.35a8.8,8.8,0,0,0-.8.46c-.39.28-.39.57,0,.85a6.63,6.63,0,0,0,.59.31A3.5,3.5,0,0,1,9,3.14Zm7.31,1.09c.18-.16.36-.31.53-.48a.38.38,0,0,1,.59,0c.08.07.15.16.23.23a2.51,2.51,0,0,0-1-1.07,1.87,1.87,0,0,1,.07.18c.15.43,0,.71-.5.68a2,2,0,0,1-.67-.16c-.41-.16-.46-.5-.09-.74a3.23,3.23,0,0,1,.76-.27l-.06-.3a8.61,8.61,0,0,0-.79.46c-.39.27-.39.57,0,.84a5.49,5.49,0,0,0,.64.33C16.2,4,16.33,4,16.33,4.23ZM27.42,5.78l-.94-.15a.18.18,0,0,0-.1,0L25.63,6v0l1.13,0A.73.73,0,0,0,27.42,5.78ZM8.85,2.56c.35,0,.45-.1.38-.35s-.11-.33-.31-.36a.67.67,0,0,0-.63.23c-.1.12-.09.24.06.3A4.64,4.64,0,0,0,8.85,2.56Zm7.41,1c.28,0,.37-.14.3-.39s-.12-.33-.32-.35a.64.64,0,0,0-.62.22c-.1.13-.1.25.05.31S16.07,3.51,16.26,3.58Zm12.25-1a.57.57,0,0,0-.49.24c-.08.11-.08.23.05.28a3.5,3.5,0,0,0,.71.17c.06,0,.19-.1.21-.17A.45.45,0,0,0,28.51,2.6Zm-8-.41L21,1.9a3,3,0,0,1,2-.55c.21,0,.26.11.2.31l.05,0,.4-.5-.3,0a4.77,4.77,0,0,0-1.9.37c-.35.13-.69.29-1,.43a.25.25,0,0,0,0,.07ZM2,1.68A1.51,1.51,0,0,1,3.4,1.53,2.47,2.47,0,0,0,1.68,1.2c-.06,0-.1.07-.18.13C2.05,1.37,2.1,1.4,2,1.68Zm20.73,2a.41.41,0,0,0,.15,0c.16,0,.43,0,.4-.24s-.27-.21-.41-.32h0a.42.42,0,0,0-.41.35C22.44,3.57,22.52,3.64,22.75,3.63Zm13.13.47.13,0c.15,0,.36,0,.41-.24s-.27-.3-.46-.33h0a.43.43,0,0,0-.4.36C35.54,4,35.62,4.1,35.88,4.1Zm.94.24a2.68,2.68,0,0,0,0-.42c0-.2.11-.27.28-.29l.22,0v0l-1-.24a.32.32,0,0,0,.12.15c.13.1.28.21.22.38a.65.65,0,0,1-.32.29,2.05,2.05,0,0,1-.5.14v0ZM30.47,5.5,30,5.28c-.14.19-.14.19-.8.45A1.26,1.26,0,0,0,30.47,5.5Zm-12.86,0c-.12.34-.47.34-.81.46A1.28,1.28,0,0,0,18,5.76Zm-7.33-1c-.1.33-.46.34-.81.45a1.3,1.3,0,0,0,1.24-.21Zm3.94,1.15a2.46,2.46,0,0,1-1.4-1.29.53.53,0,0,0,.12.58A2.55,2.55,0,0,0,14.22,5.68Zm8.14-3c-.37.51-.39,1,0,1.07-.26-.32-.23-.63.22-.9ZM35.42,4.23c-.24-.38-.18-.58.24-.88l-.2-.17C35.11,3.63,35.08,4,35.42,4.23Zm-14,1.35a2,2,0,0,0,1.36.32Zm13.18.49a1.51,1.51,0,0,0,1.24.29ZM14.37,1.49l-.47.08L14,2Zm10.25,0c-.37-.29-.66-.33-.76-.13ZM27.36,4a1.48,1.48,0,0,0,1,.12ZM6.11,4.25c0,.16.36.38.72.42ZM8,3.32,7,2.83A1.87,1.87,0,0,0,8,3.32ZM30.88,5.24l.42-.09-.11-.23ZM24.27,3.16,23.78,3l-.05.22ZM11.1,4.51l.46-.1-.11-.23ZM26.81,1.25l-.44.07.17.24ZM18.88,5.39l-.09-.21-.35.31ZM11.82,1.22l.27.36,0,0L12,1.11ZM4.7,4.4l-.36,0,.26.21Zm7.54-2.17v.3l.29-.24-.15,0ZM8.27,5c-.25,0-.25,0-.37.23Z"/></g><g class="cls-3"><path d="M37,20.89l.12.27-.35-.06a.2.2,0,0,0,0,.08c.07.83-.49,1.23-1.21,1.29a2.52,2.52,0,0,1-2.26-.9.67.67,0,0,0-.09.26c0,.07,0,.19.11.2s.14.11.15.22a.47.47,0,0,0,.1.24,2.54,2.54,0,0,0,2.84.85,4.36,4.36,0,0,1,.72-.22l-.14.31.11.06v.22c-.14,0-.31.13-.37-.15a1.07,1.07,0,0,1-1,.16,3.12,3.12,0,0,1-1.53-.4c.08.23.09.23.69.42a3.6,3.6,0,0,1-.57,0A.88.88,0,0,1,34,23.5c-.12-.11-.21-.26-.33-.38s-.22-.07-.27.08a3.38,3.38,0,0,0-.11.34q-.08.27-.36.18a2.5,2.5,0,0,0,.27-1.41c-.25.11-.48.19-.7.31a.63.63,0,0,0-.32.48,1.68,1.68,0,0,1-.12.38.34.34,0,0,1-.45.25l.33-.59-.05-.05a.39.39,0,0,1-.54,0c.08.24.1.45-.08.59a1.13,1.13,0,0,1-.34.11c0-.06,0-.08,0-.08A.51.51,0,0,0,31,23a1.69,1.69,0,0,0-1.36-1.09v.2a1.24,1.24,0,0,1-.89,1.29,2.83,2.83,0,0,1-3-.93c-.11-.15-.19-.31-.31-.46a1.51,1.51,0,0,0,.15.91c.16.26.34.53.52.81h-.52a.14.14,0,0,1-.11-.07,4.17,4.17,0,0,1-.59-1.39.89.89,0,0,1,.35-.89.73.73,0,0,0,0-1.08.32.32,0,0,0-.3,0A4.29,4.29,0,0,0,24,21a3.34,3.34,0,0,0-.55,1.1,1.36,1.36,0,0,0,.4,1.45l.12.12v0a8.56,8.56,0,0,1-1.52-.07l-.27.1v-.4a2,2,0,0,1-1.07.35,6.55,6.55,0,0,1-1,0,1.1,1.1,0,0,1-.8-.49c-.33-.47-.33-.38-.73-.11a.82.82,0,0,0-.45.64h-.25l.13-.51c-.32.14-.38-.21-.61-.34,0,.19,0,.36,0,.52,0,.35-.07.37-.44.32a3.29,3.29,0,0,0-.09-.64,3,3,0,0,0-.34-.55A1.86,1.86,0,0,1,14,23.1a1.87,1.87,0,0,1-.95-2.44,2.29,2.29,0,0,0-.31,3.05c-.26.06-.26.06-.62-.47l0,.48c-.2.1-.33,0-.31-.34s0-.38,0-.57c-.43.48-.81,1-1.64.92a2.49,2.49,0,0,0,1.23-.84,1.94,1.94,0,0,0,.37-1.39c-.19.08-.35.13-.51.21a.58.58,0,0,0-.35.47,1,1,0,0,1-.71.81l-.63.25a.47.47,0,0,0-.32.38.18.18,0,0,1-.14.11,1.54,1.54,0,0,1-.43-.06,5.24,5.24,0,0,1-2.53-.2l.39.25c-.41.07-.44.05-.7-.29s-.33-.38-.7-.12a1.9,1.9,0,0,0-.33.3.26.26,0,0,1-.35.1l.12-.24c-.2,0-.39,0-.48-.23-.23.12-.49.15-.6.42a.17.17,0,0,1-.13.07H1.27c-.05,0-.09-.06-.12-.13A3.74,3.74,0,0,0,3.9,23a1.76,1.76,0,0,1-.81-1.23,1.58,1.58,0,0,1-1.84.9.22.22,0,0,1-.1-.13,1.53,1.53,0,0,1,0-.31c.21,0,.41,0,.6,0a5.59,5.59,0,0,0,.56-.12V22H1.8A1.65,1.65,0,0,1,1.42,22c-.28-.07-.29-.1-.26-.41l.22.17c-.24-.4-.17-.64.25-.93l-.21-.2-.26.5c-.15-.79.51-1.15.88-1.71l-.87.08,0,0c0-.06.09-.16.14-.17a8.49,8.49,0,0,1,.88-.05c.17,0,.26.1.17.34a1.41,1.41,0,0,1,1.34-.17,1.32,1.32,0,0,0-.76-.32A4.22,4.22,0,0,0,2,19c-.28,0-.56.08-.86.13,0-.11,0-.19.11-.22a3.45,3.45,0,0,1,2.06,0,7.7,7.7,0,0,1,1,.57,1.48,1.48,0,0,0-.09-.28,2,2,0,0,0-2-1.13,1.49,1.49,0,0,0-.4.15l-.65.25c-.07-.15,0-.22.1-.27S1.76,18,2,18a2,2,0,0,1,1.24.09,2.22,2.22,0,0,1,1.08.79c0-.18,0-.33.25-.29a2.3,2.3,0,0,1,.43.16.51.51,0,0,1,.47-.25,4.88,4.88,0,0,0,2-.52,1.87,1.87,0,0,1,1.23-.1,2.12,2.12,0,0,1,1.34.85c0-.09.08-.22.14-.24a.57.57,0,0,1,.34,0,2,2,0,0,1,.78.73l.14.22.55-.28a4,4,0,0,1,2-.36.54.54,0,0,1,.52.3l.41-.6a.59.59,0,0,1,.82-.21,11.22,11.22,0,0,0,1.23.43c.47.12.95.16,1.42.24l0-.08c-.05-.52,0-.63.56-.66a4.85,4.85,0,0,0,1.87-.49,2.05,2.05,0,0,1,1.73,0,1.88,1.88,0,0,1,.87.7c.06-.09.1-.23.17-.24a.42.42,0,0,1,.35.06,4.53,4.53,0,0,1,.74.71,6.66,6.66,0,0,1,.48.87.81.81,0,0,0,.28.27c0-.22-.09-.44-.13-.66s.07-.52.4-.54a8.62,8.62,0,0,0,2.78-.75,1.92,1.92,0,0,1,1,0,2.39,2.39,0,0,1,1.68,1.13c0-.1,0-.13,0-.17,0-.23.09-.35.32-.29a1.47,1.47,0,0,1,.75.52.24.24,0,0,0,.32.08A2.33,2.33,0,0,1,33,19.4c0-.15-.06-.33-.08-.51s0-.39.3-.45a.27.27,0,0,1,.12,0,6,6,0,0,0,2.24-.59,1.89,1.89,0,0,1,1.44.09s.07.13.1.19c-.39-.06-.76-.12-1.12-.16a.61.61,0,0,0-.29.06,6.32,6.32,0,0,1-2.23.61c-.3,0-.32,0-.29.35,0,.14.06.28.08.39.57-.2,1.11-.42,1.66-.58a3.61,3.61,0,0,1,2,0c.14,0,.2.1.15.23-.31,0-.62-.12-.92-.14a5.52,5.52,0,0,0-2.63.69l-.17.08a.86.86,0,0,1-.17,0l.16.42A2.6,2.6,0,0,1,35.64,19h.15c.22,0,.26.1.23.32.71-.32,1.09-.33,1.08,0-.85-.14-1.28.42-1.75,1.05.29,0,.53,0,.76.06s.59.13.89.21c0,0,.09.08.11.12s0,.09-.08.13a2.47,2.47,0,0,0-1-.24.81.81,0,0,0,.1.09c.13.1.27.21.25.41s-.2.27-.36.32a4.43,4.43,0,0,1-.49.13v0h1c0-.06,0-.15,0-.25,0-.46,0-.46.48-.48Zm-31.84.38-.05,0a2,2,0,0,0,.07.55,2.65,2.65,0,0,0,2.07,1.65,3.41,3.41,0,0,0,2.41-.66c.51-.33.5-.39.24-.93a1.32,1.32,0,0,0-1.07-.75c0,.06,0,.09,0,.12a1.09,1.09,0,0,1-1,1.22,2.47,2.47,0,0,1-1.67-.2A2.17,2.17,0,0,1,5.19,21.27ZM18.58,21h-.06a2.52,2.52,0,0,0,.08.56A2.65,2.65,0,0,0,21,23.28a3.9,3.9,0,0,0,1.94-.56.41.41,0,0,0,.28-.42,2,2,0,0,1,.11-.47.32.32,0,0,0,0-.16A1.25,1.25,0,0,0,22.24,21v.1a1.07,1.07,0,0,1-.94,1.19,2.93,2.93,0,0,1-1,0A2.22,2.22,0,0,1,18.58,21Zm13.05,2c0-.14.07-.21.09-.27A2.69,2.69,0,0,0,30.29,20a1.19,1.19,0,0,0-1,0,2.79,2.79,0,0,0-1.13,1.05s0,0,0,.09l.28,0c.41.06.83.08,1.23.17a2.27,2.27,0,0,1,1.62,1.19A2.87,2.87,0,0,0,31.63,23Zm-14.7-2.92a3.06,3.06,0,0,0-1.6-.35,1.93,1.93,0,0,0-1.84,1.42,1,1,0,0,0,.08.78,2.1,2.1,0,0,0,1.26.92,1.54,1.54,0,0,0,.43,0,.36.36,0,0,0-.13-.12,4.77,4.77,0,0,1-.64-.43.56.56,0,0,1,0-.89,1.48,1.48,0,0,1,.47-.35c.51-.22,1-.43,1.55-.61A.57.57,0,0,0,16.93,20.12Zm11.59-.33a3.2,3.2,0,0,0-1.76.4,1.33,1.33,0,0,0-.79,1.3,1.52,1.52,0,0,0,1,1.4,2.78,2.78,0,0,0,1.48.11,1.4,1.4,0,0,0,.44-.22.2.2,0,0,0-.14,0,5.77,5.77,0,0,1-1-.08.64.64,0,0,1-.51-.88,3.79,3.79,0,0,1,.43-.91C27.91,20.51,28.22,20.17,28.52,19.79Zm-11.77,1.5a1.38,1.38,0,0,0,.62,1.23l.5.41a.24.24,0,0,0,.2.05.57.57,0,0,0,.23-.12c.35-.24.35-.25.16-.63a6.36,6.36,0,0,1-.4-.93.7.7,0,0,1,.23-.84.63.63,0,0,0,.15-.88.23.23,0,0,0-.34-.12A2.38,2.38,0,0,0,16.75,21.29Zm-12.14,2L5.08,23a.2.2,0,0,0,.08-.31c-.07-.13-.13-.25-.19-.38a5.45,5.45,0,0,1-.3-.76.79.79,0,0,1,.24-.85.56.56,0,0,0,.18-.79c-.11-.24-.21-.28-.45-.15a2.37,2.37,0,0,0-1,1,1.44,1.44,0,0,0,.46,2.15C4.27,23,4.41,23.11,4.61,23.27Zm26.52-3.2a2,2,0,0,0-1.42-1.62,2,2,0,0,0-1.51.06,8.83,8.83,0,0,1-1.53.5,8.27,8.27,0,0,1-.87.11c-.08,0-.2.11-.2.17a7.58,7.58,0,0,0,.1.76l.19-.09a7.11,7.11,0,0,1,2.7-.81,2.87,2.87,0,0,1,2.38.79ZM10.51,22l.06,0a.73.73,0,0,0,0-.2,2.27,2.27,0,0,0-1-2.15,1.16,1.16,0,0,0-1.61.06,3.5,3.5,0,0,0-.62.73,5.51,5.51,0,0,1,1.84.32C9.89,21,10.14,21.57,10.51,22Zm-2.7-2.78a2.8,2.8,0,0,0-1.76.52,1.11,1.11,0,0,0-.43.71A1.38,1.38,0,0,0,6.45,22a2.51,2.51,0,0,0,1.33.1,1.13,1.13,0,0,0,.27-.13,7.86,7.86,0,0,1-1-.15A.56.56,0,0,1,6.68,21a4.17,4.17,0,0,1,.46-.92A9.1,9.1,0,0,1,7.81,19.26ZM36,21.84h-.49c-.89,0-1.2-.54-.76-1.32a12.71,12.71,0,0,1,.83-1.14l.14-.17a2.66,2.66,0,0,0-1.83.57A1.12,1.12,0,0,0,33.58,21a1.43,1.43,0,0,0,1.47,1A1.24,1.24,0,0,0,36,21.84Zm-14.55-.16a8.35,8.35,0,0,1-.89-.1.62.62,0,0,1-.5-.86,1.54,1.54,0,0,1,.19-.46c.26-.36.53-.71.8-1.07l.12-.15a2.8,2.8,0,0,0-1.52.34,1.21,1.21,0,0,0-.65.84,1.36,1.36,0,0,0,.91,1.53,2.53,2.53,0,0,0,1.22.08A1.33,1.33,0,0,0,21.46,21.68Zm-.64-1.48a3.22,3.22,0,0,1,2.71,1.05c.12-.15.25-.31.37-.48a.16.16,0,0,0,0-.15,2.26,2.26,0,0,0-1.13-1.36,1,1,0,0,0-.84-.08A2.49,2.49,0,0,0,20.82,20.2Zm-2.08-1,.16-.07A6.38,6.38,0,0,1,21,18.48a2.69,2.69,0,0,1,2.45.69l.09.06c0-.06,0-.1,0-.14A1.75,1.75,0,0,0,22.53,18,1.73,1.73,0,0,0,21,17.9a6.71,6.71,0,0,1-1.24.42c-.28.07-.57.07-.86.12-.07,0-.18.1-.18.15A4.85,4.85,0,0,0,18.74,19.22Zm-7,2.06a.5.5,0,0,0,.45-.32A1.4,1.4,0,0,1,13.38,20a.9.9,0,0,0,.8-.65c.11-.29.05-.4-.26-.39a7.09,7.09,0,0,0-1.13.11,3.5,3.5,0,0,0-1.2.53c.11.25.21.47.32.69A.74.74,0,0,1,11.76,21.28Zm-1.63-1.86a1.84,1.84,0,0,0-1.21-1.3,1.48,1.48,0,0,0-1-.1,6.8,6.8,0,0,1-2.42.65c-.06,0-.17.06-.18.11a1,1,0,0,0,.09.63c.53-.2,1-.4,1.52-.55a3.42,3.42,0,0,1,2.34,0C9.55,19,9.82,19.24,10.13,19.42Zm21.28-.35a1.16,1.16,0,0,0,0,.16,2.64,2.64,0,0,1,.23,1.3.31.31,0,0,0,0,.18A4,4,0,0,1,32.19,22a1.46,1.46,0,0,0,.11.28c.14-.09.27-.15.38-.23a.56.56,0,0,0,.26-.81c-.25-.54-.54-1.07-.84-1.58A1.34,1.34,0,0,0,31.41,19.07ZM1.72,20.55a.38.38,0,0,0,.13,0l1.37.21a.17.17,0,0,0,.12-.05l.62-.9C3.22,19.17,2.33,19.49,1.72,20.55Zm16.77-1.29v-.07a1.52,1.52,0,0,0-.2-.06L17.42,19a5.2,5.2,0,0,1-1.76-.53c-.1,0-.28-.09-.35,0a1.46,1.46,0,0,0-.51.7l.09,0a8.44,8.44,0,0,1,2.43.42.3.3,0,0,0,.23-.07A1.08,1.08,0,0,1,18.49,19.26Zm-8.1-.61a.37.37,0,0,1,0,.08,2.57,2.57,0,0,1,.21,1.19c0,.06,0,.12.06.18s.19.42.27.64.12.42.19.66l.28-.16a.54.54,0,0,0,.25-.82c-.19-.4-.39-.78-.61-1.16A1.46,1.46,0,0,0,10.39,18.65ZM28.73,20a1.67,1.67,0,0,1,1.84-.12.94.94,0,0,0-.2-.16,2.81,2.81,0,0,0-1.79-.38,6.89,6.89,0,0,0-2.51.75,2.85,2.85,0,0,1-.46.17l.21.56a1.83,1.83,0,0,1,.81-.84,3.47,3.47,0,0,1,1.87-.41C28.86,19.6,28.91,19.71,28.73,20Zm-5-1.63a8.34,8.34,0,0,1,.22.81,5.25,5.25,0,0,0,0,.56,5.25,5.25,0,0,0,.31.63L25,20A3.43,3.43,0,0,0,23.76,18.39ZM15.62,21a7,7,0,0,0-.84.52c-.34.25-.34.54,0,.79a4,4,0,0,0,.67.38c.13.07.26.13.23.33a3,3,0,0,0,.54-.47.39.39,0,0,1,.62,0l.19.21a2.56,2.56,0,0,0-.92-1.07c0,.1.05.16.07.21.12.4-.06.68-.48.66a2.46,2.46,0,0,1-.71-.17c-.4-.16-.46-.51-.1-.75a3.74,3.74,0,0,1,.77-.3Zm13.73,1.66a4.48,4.48,0,0,0,0-.56c0-.24.09-.37.33-.36s.26,0,.39.06a3.33,3.33,0,0,0-1.45-.39c.15.11.27.18.37.27a.36.36,0,0,1-.09.64,1.64,1.64,0,0,1-.9.17.47.47,0,0,1-.42-.59c0-.27.26-.37.45-.51l-.3-.26c-.07.16-.16.31-.22.46-.24.6,0,.93.6,1a2.16,2.16,0,0,0,.36,0c.16,0,.31,0,.46,0A1.42,1.42,0,0,1,29.35,22.65ZM9.49,19.3v-.07A4.11,4.11,0,0,0,8.84,19a4.65,4.65,0,0,0-3.06.54s0,.1,0,.16a.49.49,0,0,0,.19-.08,2.92,2.92,0,0,1,1.94-.52c.24,0,.28.08.25.33A1.34,1.34,0,0,1,9.49,19.3Zm6.16,3.05c.27,0,.37-.15.3-.39s-.12-.36-.35-.38a.66.66,0,0,0-.64.3.18.18,0,0,0,.1.26C15.25,22.22,15.45,22.28,15.65,22.35Zm5.82-3.18A1.38,1.38,0,0,1,22.84,19c-.78-.69-2.58-.38-3.68.29a.27.27,0,0,0,.2,0,3.1,3.1,0,0,1,1.9-.47C21.48,18.85,21.53,18.94,21.47,19.17Zm6.72,3.15a5.56,5.56,0,0,0,.61-.19.27.27,0,0,0,.1-.23.56.56,0,0,0-.91-.15.44.44,0,0,0-.06.39C28,22.22,28.1,22.26,28.19,22.32Zm-11-2.54a8.55,8.55,0,0,0-2.29-.41,2.12,2.12,0,0,1-.41-.08l-.24.52c.26-.07.52-.16.78-.21a3.28,3.28,0,0,1,1.9.27C17,19.91,17.14,20,17.2,19.78ZM35.49,21.4a4.66,4.66,0,0,0,.49-.16.22.22,0,0,0,.08-.19.64.64,0,0,0-.54-.28.43.43,0,0,0-.32.39C35.22,21.33,35.32,21.39,35.49,21.4Zm-33.65.17c.1,0,.27-.07.43-.13s.08-.11.12-.17A2,2,0,0,0,1.92,21c-.17-.05-.31.08-.38.24S1.55,21.56,1.84,21.57Zm5.79-.14a2.34,2.34,0,0,0,.42-.13.29.29,0,0,0,.1-.16,1.42,1.42,0,0,0-.45-.3.48.48,0,0,0-.36.19C7.19,21.22,7.31,21.43,7.63,21.43Zm13.27-.2c.19-.06.37-.09.53-.16s.12-.14.1-.19a.48.48,0,0,0-.78-.13.47.47,0,0,0-.05.33C20.72,21.14,20.83,21.18,20.9,21.23Zm.09.19v0h1c0-.13,0-.29,0-.45s.1-.3.3-.29l.2,0,0-.05-1-.25,0,.05.1.07c.14.11.29.22.26.43s-.21.27-.37.33ZM9.11,21v0l-1-.25,0,.06.11.09c.14.1.29.22.23.39a.63.63,0,0,1-.33.31,2.82,2.82,0,0,1-.59.14v0H8.56c0-.12,0-.28,0-.43s.08-.3.29-.3Zm-7.34.82v0h1c0-.12,0-.29,0-.45a.25.25,0,0,1,.23-.28l.15,0V21l-.88-.2a.31.31,0,0,0,.13.16c.32.26.29.53-.09.68A3.92,3.92,0,0,1,1.77,21.79ZM23.18,23c-.1.06-.22.09-.28.17a1,1,0,0,0-.13.38s.09.12.14.11a4.07,4.07,0,0,0,.59-.06ZM33,20.54a.61.61,0,0,0,.06-.7c-.13-.28-.26-.31-.51-.1Zm-16.41.37-.64.22,0,.08.58.38ZM4.61,18.8a2.78,2.78,0,0,1,.12.38c0,.23.14.33.37.3C5.06,19.18,5,18.89,4.61,18.8ZM7.2,20.47c-.32.44-.43,1-.09,1.08a1.32,1.32,0,0,1-.06-.48,1.63,1.63,0,0,1,.32-.45Zm28.12.12-.2-.17c-.32.39-.41,1-.06,1.06C34.84,21.12,34.9,20.91,35.32,20.59Zm-7.89,2.65a1.67,1.67,0,0,0,1.71-.36C28.65,23.35,28,23.24,27.43,23.24ZM20.34,20.9l.42-.51-.2-.17C20.47,20.46,20.26,20.65,20.34,20.9Zm-4.92,2.18a2.1,2.1,0,0,1-1.73-.54A1.67,1.67,0,0,0,15.42,23.08Zm-2-2.42.35-.47-.49.08Zm-3.24,2.16.49-.31-.13.07-.17-.37C10.46,22.47,10.27,22.62,10.17,22.82ZM18.7,19.4l0,.06.16.42.24-.35Zm-13.26.68h.07a.68.68,0,0,0,0-.28c0-.07-.13-.11-.2-.17l0,.05ZM21,23.51l-.93-.13A1.12,1.12,0,0,0,21,23.51Zm4.67-2.19a.31.31,0,0,0,.06.54ZM32,22.67l.25-.21L32,22.32Zm1-1.89.26.2-.06-.38Z"/><path d="M1.15,2.64V2.36a4.46,4.46,0,0,1,1.74.3c.6.22.85.78,1.21,1.22l.09,0a3.57,3.57,0,0,0,0-.56A2.16,2.16,0,0,0,3,1.43a1,1,0,0,0-1.16.08c-.24.17-.45.38-.68.58,0-.31-.1-.63.27-.87l-.26,0C1.1.77,1.19.67,1.6.66A2.57,2.57,0,0,1,3.16,1c.18.11.36.26.58.38L3.41.66a3.69,3.69,0,0,1,.47,0A.16.16,0,0,1,4,.76a1.92,1.92,0,0,1,.19,1,.3.3,0,0,0,0,.16c.14.37.29.74.43,1.12l.07.16s0,0,.06,0c.62-.34.68-.49.37-1.14a3.76,3.76,0,0,0-1-1.41c.48-.12.58.31.85.55C5.13.77,5.39.52,5.9.7a1.81,1.81,0,0,0-.25.3,2.07,2.07,0,0,0-.19.32.91.91,0,0,0,0,.9.68.68,0,0,1-.07.87c.33,0,.35,0,.35.29a.43.43,0,0,0,.17.36,2.91,2.91,0,0,0,1.31.57,5.93,5.93,0,0,0,2,.09A.71.71,0,0,0,9.77,4a1.21,1.21,0,0,0-.09-1.37c0-.06-.11-.1-.18-.17l-.15.17a1.78,1.78,0,0,1-1.89.54A2,2,0,0,1,5.94,1.72,1.48,1.48,0,0,1,6,.79.21.21,0,0,1,6.16.67a3.41,3.41,0,0,1,.46,0l-.16.4a.85.85,0,0,0,.07.83,1.8,1.8,0,0,0,1.63.88l.08,0L8.1,2.68c-.17-.1-.35-.17-.5-.28-.51-.38-.52-.79,0-1.16A2.73,2.73,0,0,1,9.33.65c.51,0,1,0,1.54,0,.27,0,.54,0,.81,0a.21.21,0,0,1,.24.15c.05.19.1.38.14.57s0,.18,0,.32a1.78,1.78,0,0,0,.39-1h.25l0,.41c0-.05.06-.09.09-.12.18-.27.37-.28.57,0,0,0,.07.08.1.08A1.21,1.21,0,0,0,14.2.79a1.71,1.71,0,0,1,.33-.17l0,.05,0,.16A2.16,2.16,0,0,1,15.74.66,3.11,3.11,0,0,1,17.13.8l.55.28c.06,0,.14.15.13.21s-.12.12-.2.16-.13,0-.19.09a3.3,3.3,0,0,1,.63,0,4.7,4.7,0,0,1,.63.22.42.42,0,0,0,.22,0A2.87,2.87,0,0,0,17.34.68a2.11,2.11,0,0,1,1.78.87l.69-.22L19.52.67h.55l.1.67c.59-.2,1.13-.4,1.69-.57A4.33,4.33,0,0,1,23.5.68a2.2,2.2,0,0,1,1.41.72l.05,0-.32-.7a3.85,3.85,0,0,1,.48,0,.18.18,0,0,1,.12.09,1.91,1.91,0,0,1,.18,1,.32.32,0,0,0,0,.16l.43,1.14.06.14s.05,0,.06,0c.63-.34.68-.49.37-1.13a3.66,3.66,0,0,0-1-1.41l0-.06a2.59,2.59,0,0,0,.37.11,3.38,3.38,0,0,0,.45,0l.92-.11,0,.06A1.94,1.94,0,0,0,27,.84a2.09,2.09,0,0,0-.28.22c-.34.32-.34.34-.14.76.08.15.14.3.21.44a.72.72,0,0,1-.11.85c.22,0,.32,0,.41.18s.31.18.48.23a1.55,1.55,0,0,0,.43,0v0l-.16-.07a4.93,4.93,0,0,1-.61-.4.54.54,0,0,1,0-.88,2.31,2.31,0,0,1,.69-.44c.64-.24,1.3-.43,1.95-.64L30,1,29.31.68a.9.9,0,0,1,.8.17.29.29,0,0,1,.11.22c0,.05-.11.1-.18.13s-.13,0-.2.08a1.49,1.49,0,0,1,1.69.79A1.88,1.88,0,0,0,30.34.68.8.8,0,0,1,31,.79a1.74,1.74,0,0,1,.84,1.41.38.38,0,0,0,0,.1c.4-.18.5-.88.24-1.61.24-.06.29,0,.33.17a7.72,7.72,0,0,1,.09.92c.07-.12.17-.31.42-.27a.17.17,0,0,0,0-.05c0-.41.05-.52.47-.58l1.25-.2a4.51,4.51,0,0,1,.52,0v0c-.4.1-.79.22-1.19.3a4.2,4.2,0,0,1-.61.06c-.14,0-.22.08-.19.24s0,.33.08.52l.24-.1a6,6,0,0,1,2.35-.64A6.83,6.83,0,0,1,37,1.22c.13,0,.2.09.12.25a3.09,3.09,0,0,0-2-.05c-.63.18-1.25.42-1.89.64l.14.43a2.63,2.63,0,0,1,2.28-1,.5.5,0,0,1,.21,0c.16,0,.25.11.12.32a1.39,1.39,0,0,1,1.11-.2s0,.11,0,.2a1.1,1.1,0,0,0-1,.17,2.46,2.46,0,0,0-.78.82c.27,0,.49,0,.72.06s.5.09.75.14.33.11.26.35a1.2,1.2,0,0,0,0,.19l-.31,0a.69.69,0,0,0,0,.13,1,1,0,0,1-.88,1.14,2.51,2.51,0,0,1-2.27-.51,5.46,5.46,0,0,1-.54-.62,1.2,1.2,0,0,0,.1.64,2.68,2.68,0,0,0,3.53,1.28l.37-.14.06,0a2.25,2.25,0,0,0-.12.21.25.25,0,0,0,0,.12l.09,0a.74.74,0,0,1-.4.77,3.05,3.05,0,0,1-2.13.5A15.25,15.25,0,0,1,33,6.68l-.1,0c-.46-.2-.56-.47-.3-.94-.39.15-.45-.25-.71-.35l-.06,0a3.81,3.81,0,0,1-3.77,1,2.84,2.84,0,0,1-.66-.22c-.35-.17-.36-.43-.05-.66l.28-.18-.24,0a1,1,0,0,1-1,.65,5,5,0,0,1-1.53-.16,1.41,1.41,0,0,0-.41,0c-.22,0-.43,0-.54-.16a3.09,3.09,0,0,1-.41.4,3.11,3.11,0,0,1-2,.51A5.7,5.7,0,0,1,19.9,6.2a.82.82,0,0,1-.52-.44c-.25.18-.49.38-.75.53a4.08,4.08,0,0,1-3.48.24l-.07,0c-.31-.15-.36-.26-.28-.6a1.17,1.17,0,0,1-1,.34,3.67,3.67,0,0,1-2.48-.81.24.24,0,0,0-.23,0,4.16,4.16,0,0,1-3.21.17l-.2-.08c-.28-.15-.33-.25-.25-.59a1.05,1.05,0,0,1-.94.33c-.44,0-.87-.1-1.3-.15A.44.44,0,0,0,5,5.16a3.31,3.31,0,0,1-1.75.67.51.51,0,0,1-.52-.18,2.44,2.44,0,0,1-1.56.91c-.06-.15,0-.2.1-.25a9.7,9.7,0,0,0,.93-.41.39.39,0,0,0,.2-.5,2.28,2.28,0,0,1-1.24.35V5.37a9.48,9.48,0,0,0,1.17-.28,5.78,5.78,0,0,0,1.11-.56c.29-.18.29-.29.16-.61A1.43,1.43,0,0,0,2.45,3,1.13,1.13,0,0,1,2,4.08a1.58,1.58,0,0,1-.88.27V4l.52-.2c-.52,0-.52,0-.52-.23h1a1.63,1.63,0,0,0,0-.35c0-.31.1-.4.41-.36l.09,0,0-.05-1-.25v0a2.75,2.75,0,0,1,.26.22c.17.18.15.39-.07.49a6.59,6.59,0,0,1-.67.23c-.05-.16-.05-.24.1-.25a1.18,1.18,0,0,0,.31-.08c.22-.09.24-.2,0-.34A3.61,3.61,0,0,0,1.15,2.64ZM14.94,4a1,1,0,0,0,.74,0h-.74l-1.08-.6A2.13,2.13,0,0,0,14.94,4Zm1.9-.52a2.07,2.07,0,0,1-3.57-.7l-.07.14-.46.89a.28.28,0,0,0,0,.2,1.85,1.85,0,0,0,1.09,1.08,5.06,5.06,0,0,0,2.49.35c.61-.06.78-.23.91-.83l0-.13A1.06,1.06,0,0,0,16.84,3.45ZM20,3.14l-.05,0a2,2,0,0,0,.09.56A2.71,2.71,0,0,0,21.42,5.1a3.44,3.44,0,0,0,3.38-.67.39.39,0,0,0,.08-.1.22.22,0,0,0,0-.14A1.36,1.36,0,0,0,23.68,3s0,.1,0,.14a1,1,0,0,1-.79,1.09,2.54,2.54,0,0,1-1.42,0A2.25,2.25,0,0,1,20,3.14Zm-9.77,1,.11,0,.08,0A2.73,2.73,0,0,0,11.63,2,1.14,1.14,0,0,0,10.38.73a5,5,0,0,0-1.48.32l-.11.05.26.2a9.15,9.15,0,0,1,1,.81,1.37,1.37,0,0,1,.32,1.45A3.54,3.54,0,0,0,10.24,4.18ZM30,4.92a2.09,2.09,0,0,0,.9-.79A1.55,1.55,0,0,0,31,3.81a6.65,6.65,0,0,1,.26-.75,1.16,1.16,0,0,0-.81-1.56,3,3,0,0,0-1.27.12l-.63.2v.06a2.27,2.27,0,0,0,.25.18,3.18,3.18,0,0,1,1,.91,1.42,1.42,0,0,1,.23,1.32A3.82,3.82,0,0,0,30,4.92ZM17.51,1.25c-.05,0-.07-.07-.1-.08A3.2,3.2,0,0,0,15.5.76,1.88,1.88,0,0,0,13.79,2a1,1,0,0,0,.2,1,2,2,0,0,0,.92.61,3.09,3.09,0,0,0,.62.09V3.72c-.13-.06-.26-.11-.38-.18a2.08,2.08,0,0,1-.34-.24.57.57,0,0,1,0-1A1.72,1.72,0,0,1,15.26,2l1.62-.6C17.08,1.35,17.29,1.31,17.51,1.25ZM20,2.17l0,0V2.06c0-.46-.26-.58-.65-.34A2.33,2.33,0,0,0,18.28,3a1.18,1.18,0,0,0,.37,1.43c.17.16.37.29.55.43s.17.17.25.17.2-.09.3-.15a.51.51,0,0,0,.18-.14A.28.28,0,0,0,20,4.52a3.6,3.6,0,0,0-.2-.39,5.11,5.11,0,0,1-.28-.68.77.77,0,0,1,.3-1C19.91,2.43,20,2.28,20,2.17ZM31.28,4A1.27,1.27,0,0,0,31.89,5a2.52,2.52,0,0,1,.47.38.21.21,0,0,0,.32,0l.13-.07c.38-.24.38-.26.17-.66a4.92,4.92,0,0,1-.39-.88A.71.71,0,0,1,32.82,3,.57.57,0,0,0,33,2.2a.23.23,0,0,0-.32-.12A2.33,2.33,0,0,0,31.28,4Zm-4.74,1a1.71,1.71,0,0,0,.36.1,11.9,11.9,0,0,0,1.68.14c.76,0,.86-.1,1.09-.94v0a1,1,0,0,0-.46-1A1.86,1.86,0,0,1,27,3.87ZM22.31,2.31a6.52,6.52,0,0,1,1.76.33c.62.22.89.79,1.3,1.28a1.83,1.83,0,0,0,.08-.28,2.22,2.22,0,0,0-1.22-2.2,1.2,1.2,0,0,0-.69-.13A1.89,1.89,0,0,0,22.31,2.31Zm13.42-.64A3,3,0,0,0,34.17,2a1.11,1.11,0,0,0-.64,1.08,1.25,1.25,0,0,0,.78,1.14,2.54,2.54,0,0,0,1.39.13A.9.9,0,0,0,36,4.24a7,7,0,0,1-1-.15.55.55,0,0,1-.38-.72,2.68,2.68,0,0,1,.6-1.08C35.35,2.09,35.53,1.9,35.73,1.67ZM22.61,1.21A2.83,2.83,0,0,0,21,1.62a1.16,1.16,0,0,0-.52.72,1.27,1.27,0,0,0,.92,1.48,5.22,5.22,0,0,0,1.19.09c.11,0,.22-.1.31-.14a7.55,7.55,0,0,1-1-.14.56.56,0,0,1-.4-.77,3.6,3.6,0,0,1,.42-.8C22.12,1.77,22.37,1.51,22.61,1.21ZM12.07,4.36l-.36-.05a1.31,1.31,0,0,0-1.17.27,1.55,1.55,0,0,1-1.32.29l-.86-.1A.77.77,0,0,0,7.8,5c-.15.13-.14.23,0,.33A.69.69,0,0,0,8,5.38a3.77,3.77,0,0,0,3.13-.21A3.32,3.32,0,0,0,12.07,4.36Zm7.32,1-.58-.08a1.21,1.21,0,0,0-.91.27,1.52,1.52,0,0,1-1.27.33c-.14,0-.29-.06-.43-.07-.3,0-.61-.12-.89,0a2,2,0,0,0-.29.29c.11.08.2.2.32.23a3.79,3.79,0,0,0,2.53,0A3.4,3.4,0,0,0,19.39,5.35ZM31.74,5.2a1.38,1.38,0,0,0-.22-.13,1.33,1.33,0,0,0-1.21.24A1.51,1.51,0,0,1,29,5.62a4.85,4.85,0,0,0-.53-.08c-.27,0-.57-.09-.81.11a1.38,1.38,0,0,0-.22.26.92.92,0,0,0,.25.2,6.86,6.86,0,0,0,1.18.24A3.43,3.43,0,0,0,31.74,5.2ZM16.15,2.11l.23.18a9.89,9.89,0,0,1,.81.64,1.51,1.51,0,0,1,.45,1.69,2.85,2.85,0,0,0-.06.52l.09.05.72-.65a1.42,1.42,0,0,1-.45-1.3A2.94,2.94,0,0,1,18.58,2C18.22,1.5,16.75,1.76,16.15,2.11ZM23.64,5.4a3,3,0,0,1-2,.32,1.11,1.11,0,0,1-.91-.54.55.55,0,0,0-.2-.2.19.19,0,0,0-.19,0,5.16,5.16,0,0,0-.64.49.27.27,0,0,0,0,.44.7.7,0,0,0,.28.15,12.65,12.65,0,0,0,1.35.33,2.82,2.82,0,0,0,2-.42C23.57,5.82,23.72,5.68,23.64,5.4Zm13.1.47a2.76,2.76,0,0,1-1.84.33,1.19,1.19,0,0,1-1-.55.66.66,0,0,0-.2-.21.26.26,0,0,0-.21,0,3.56,3.56,0,0,0-.59.43c-.2.2-.16.39.08.54a.7.7,0,0,0,.23.11c.44.11.88.25,1.33.32a2.85,2.85,0,0,0,2-.4C36.73,6.26,36.78,6.17,36.74,5.87ZM11.39,3.92l.56,0a.79.79,0,0,0,.77-.53A13.85,13.85,0,0,0,13.19,2a1.22,1.22,0,0,0-.1-1l-.1.15a2.83,2.83,0,0,1-.79,1.11.4.4,0,0,0-.11.18c-.19.41-.39.82-.59,1.23Zm15.33-.56c-.18.07-.33.11-.48.18a.58.58,0,0,0-.37.42,1,1,0,0,1-.79.86,6.14,6.14,0,0,0-.7.3.32.32,0,0,0-.16.41c0,.07.21.11.32.1a3,3,0,0,0,1.32-.48A1.85,1.85,0,0,0,26.72,3.36ZM5.5,3.36A3,3,0,0,0,5,3.58a.86.86,0,0,0-.31.4,1,1,0,0,1-.79.84,2.76,2.76,0,0,0-.72.33C3,5.21,3,5.4,3,5.53c.11,0,.23.11.33.1a3,3,0,0,0,1.34-.48A1.87,1.87,0,0,0,5.5,3.36Zm6.73,1.22-.73.63a.15.15,0,0,0,.05.06A3.3,3.3,0,0,0,14.09,6a.72.72,0,0,0,.59-.38A3.08,3.08,0,0,1,12.23,4.58Zm16.14-.89c.22-.2.4-.34.56-.51a.39.39,0,0,1,.61,0,3.08,3.08,0,0,1,.24.27,2.23,2.23,0,0,0-.93-1.06,1.68,1.68,0,0,0,.06.24.41.41,0,0,1-.37.55,1.44,1.44,0,0,1-1-.23.31.31,0,0,1-.07-.54,1.56,1.56,0,0,1,.5-.29,1.67,1.67,0,0,1,.39,0l-.06-.37a9.41,9.41,0,0,0-.88.55c-.29.22-.29.47,0,.7a4.56,4.56,0,0,0,.65.37C28.23,3.36,28.4,3.4,28.37,3.69ZM5.31,4.91A4.07,4.07,0,0,0,6.86,5a.69.69,0,0,0,.49-.34,7.74,7.74,0,0,1-.86-.12,8,8,0,0,1-.82-.29ZM8.68,2.8v.09c.16-.15.34-.29.49-.45a.4.4,0,0,1,.63,0l.2.22a2.43,2.43,0,0,0-1-1.08,2,2,0,0,1,.09.23c.12.36,0,.61-.41.63a2,2,0,0,1-.64-.1c-.33-.09-.48-.26-.47-.44a.73.73,0,0,1,.53-.52l.1,0,.37,0,0-.35a8.8,8.8,0,0,0-.8.46c-.39.28-.39.57,0,.85a6.63,6.63,0,0,0,.59.31A3.5,3.5,0,0,1,8.68,2.8ZM16,3.89c.18-.16.36-.31.53-.48a.38.38,0,0,1,.59,0c.08.07.15.16.23.23a2.51,2.51,0,0,0-1-1.07,1.87,1.87,0,0,1,.07.18c.15.43,0,.71-.5.68a2,2,0,0,1-.67-.16c-.41-.16-.46-.5-.09-.74A3.23,3.23,0,0,1,16,2.23l-.06-.3a8.61,8.61,0,0,0-.79.46c-.39.27-.39.57,0,.84a5.49,5.49,0,0,0,.64.33C15.86,3.62,16,3.68,16,3.89ZM27.08,5.44l-.94-.15a.18.18,0,0,0-.1,0l-.75.38v0l1.13,0A.73.73,0,0,0,27.08,5.44ZM8.51,2.22c.35,0,.45-.11.38-.35s-.11-.33-.31-.36A.67.67,0,0,0,8,1.74c-.1.12-.09.24.06.3A4.64,4.64,0,0,0,8.51,2.22Zm7.41,1c.28,0,.37-.14.3-.39s-.12-.33-.32-.35a.64.64,0,0,0-.62.22c-.1.13-.1.25.05.31S15.73,3.17,15.92,3.24Zm12.25-1a.57.57,0,0,0-.49.24c-.08.11-.08.23.05.28a3.5,3.5,0,0,0,.71.17c.06,0,.19-.1.21-.17A.45.45,0,0,0,28.17,2.26Zm-8-.41.45-.29a3,3,0,0,1,2-.55c.21,0,.26.11.2.31l.05,0,.4-.5-.3,0a4.77,4.77,0,0,0-1.9.37c-.35.13-.69.28-1,.43a.25.25,0,0,0,0,.07ZM1.68,1.34a1.51,1.51,0,0,1,1.38-.15A2.47,2.47,0,0,0,1.34.86c-.06,0-.1.07-.18.12C1.71,1,1.76,1.06,1.68,1.34Zm20.73,2a.41.41,0,0,0,.15,0c.16,0,.43,0,.4-.24s-.27-.21-.41-.32h0a.42.42,0,0,0-.41.35C22.1,3.23,22.18,3.3,22.41,3.29Zm13.13.47.13,0c.15-.05.36,0,.41-.24s-.27-.3-.46-.33h0a.43.43,0,0,0-.4.36C35.2,3.7,35.28,3.76,35.54,3.76Zm.94.24a2.68,2.68,0,0,0,0-.42c0-.2.11-.27.28-.29l.22,0V3.26L36,3a.32.32,0,0,0,.12.15c.13.1.28.21.22.38a.65.65,0,0,1-.32.29,2.05,2.05,0,0,1-.5.14V4ZM30.13,5.16l-.44-.22c-.14.19-.14.19-.8.45A1.26,1.26,0,0,0,30.13,5.16Zm-12.86,0c-.12.34-.47.34-.81.45a1.26,1.26,0,0,0,1.23-.2Zm-7.33-1c-.11.33-.46.34-.81.45a1.3,1.3,0,0,0,1.24-.21Zm3.94,1.15a2.49,2.49,0,0,1-1.4-1.29.53.53,0,0,0,.12.58A2.55,2.55,0,0,0,13.88,5.34Zm8.14-3c-.38.51-.39,1,0,1.07-.26-.32-.23-.63.22-.9ZM35.08,3.89c-.24-.38-.18-.58.24-.88l-.2-.17C34.77,3.29,34.74,3.7,35.08,3.89Zm-14,1.35a2,2,0,0,0,1.36.32Zm13.18.49A1.51,1.51,0,0,0,35.49,6ZM14,1.15l-.47.08.12.39Zm10.25,0c-.37-.29-.66-.33-.76-.13ZM27,3.62a1.43,1.43,0,0,0,1,.13ZM5.77,3.91c0,.16.36.38.72.42ZM7.62,3l-.93-.49A1.87,1.87,0,0,0,7.62,3ZM30.54,4.9,31,4.81l-.11-.23ZM23.93,2.82l-.49-.16-.05.22ZM10.76,4.17l.46-.1-.11-.23ZM26.47.91,26,1l.17.24ZM18.54,5.05l-.09-.21-.35.31ZM11.48.88l.27.36,0,0L11.62.77ZM4.36,4.06,4,4.1l.26.21ZM11.9,1.89v.3L12.19,2l-.15,0Zm-4,2.74c-.25,0-.25,0-.37.23Z"/></g><path class="cls-4" d="M37.23,21.09l.12.27L37,21.3s0,.06,0,.07a1.16,1.16,0,0,1-1.21,1.3,2.54,2.54,0,0,1-2.27-.9.87.87,0,0,0-.08.26.24.24,0,0,0,.11.2c.12,0,.14.11.15.22a.56.56,0,0,0,.1.24,2.52,2.52,0,0,0,2.83.84,5.82,5.82,0,0,1,.73-.21l-.14.31.11.06v.22c-.14,0-.31.12-.37-.16a1.09,1.09,0,0,1-1,.17,3.3,3.3,0,0,1-1.53-.4c.08.23.1.23.7.41a3.62,3.62,0,0,1-.57,0,.82.82,0,0,1-.36-.23c-.12-.11-.21-.26-.33-.38s-.22-.07-.27.08a3.38,3.38,0,0,0-.11.34c-.06.18-.17.24-.37.17a2.38,2.38,0,0,0,.28-1.4c-.25.11-.49.19-.7.31a.63.63,0,0,0-.32.48,1.68,1.68,0,0,1-.12.38.34.34,0,0,1-.45.24l.32-.58,0-.05a.39.39,0,0,1-.54,0c.07.25.1.46-.08.6a1.51,1.51,0,0,1-.34.11v-.08a.52.52,0,0,0,.12-.68,1.66,1.66,0,0,0-1.36-1.09v.2A1.24,1.24,0,0,1,29,23.61a2.83,2.83,0,0,1-3-.93c-.11-.15-.2-.31-.31-.47a1.53,1.53,0,0,0,.15.92c.16.26.34.52.52.8-.18,0-.35,0-.52,0a.14.14,0,0,1-.11-.07,4.17,4.17,0,0,1-.59-1.39.9.9,0,0,1,.35-.9.72.72,0,0,0,0-1.07.34.34,0,0,0-.31,0,4.23,4.23,0,0,0-.94.73,3.57,3.57,0,0,0-.56,1.1,1.36,1.36,0,0,0,.41,1.45,1.36,1.36,0,0,1,.12.12v.05a8.56,8.56,0,0,1-1.52-.07l-.27.09v-.39a2,2,0,0,1-1.07.35,6.55,6.55,0,0,1-1,0,1.07,1.07,0,0,1-.8-.49c-.33-.47-.33-.38-.73-.11a.82.82,0,0,0-.45.64h-.26l.14-.51c-.32.14-.39-.21-.61-.34a4.21,4.21,0,0,1,0,.51c0,.36-.06.38-.44.33a2.67,2.67,0,0,0-.08-.64,3,3,0,0,0-.34-.55,1.87,1.87,0,0,1-2.55.57,1.88,1.88,0,0,1-.94-2.44,2.27,2.27,0,0,0-.31,3c-.26.07-.26.07-.62-.47l0,.49c-.2.1-.33-.05-.31-.34s0-.38.05-.58c-.43.49-.82,1-1.64.92a2.46,2.46,0,0,0,1.23-.83,2,2,0,0,0,.37-1.39c-.19.08-.36.13-.51.21a.58.58,0,0,0-.35.46,1,1,0,0,1-.71.82c-.21.07-.42.17-.63.25a.47.47,0,0,0-.32.38.18.18,0,0,1-.14.11A1.54,1.54,0,0,1,9,23.87a5.23,5.23,0,0,1-2.53-.2l.39.25c-.41.06-.44,0-.7-.3s-.33-.38-.7-.11a1.57,1.57,0,0,0-.33.3.28.28,0,0,1-.35.1l.12-.24c-.2,0-.39,0-.48-.24-.23.13-.49.15-.6.43a.17.17,0,0,1-.14.07q-1.11,0-2.22,0c-.05,0-.09-.06-.12-.13a3.74,3.74,0,0,0,2.75-.61A1.76,1.76,0,0,1,3.29,22a1.56,1.56,0,0,1-1.84.89.18.18,0,0,1-.1-.12,1.53,1.53,0,0,1,0-.31c.21,0,.41,0,.6,0a5.59,5.59,0,0,0,.56-.12v-.09H2a2.32,2.32,0,0,1-.38-.05c-.28-.07-.29-.1-.27-.41l.23.17c-.24-.4-.18-.64.25-.93l-.22-.2-.25.49c-.15-.78.51-1.14.88-1.7l-.87.08-.05,0c.05-.05.09-.15.13-.16a8.85,8.85,0,0,1,.89-.05c.17,0,.26.1.17.33a1.44,1.44,0,0,1,1.34-.16,1.32,1.32,0,0,0-.77-.32,4.11,4.11,0,0,0-.86,0,6.63,6.63,0,0,0-.86.13c0-.11,0-.19.11-.22a3.3,3.3,0,0,1,2.06,0,9,9,0,0,1,1,.56,1.68,1.68,0,0,0-.09-.27,2,2,0,0,0-2-1.13,1.56,1.56,0,0,0-.39.15l-.65.25c-.07-.15,0-.22.1-.27s.48-.22.73-.29a2,2,0,0,1,1.24.09A2.22,2.22,0,0,1,4.53,19c0-.19,0-.33.24-.29a1.88,1.88,0,0,1,.43.16.51.51,0,0,1,.48-.25,4.8,4.8,0,0,0,2-.53A1.9,1.9,0,0,1,8.93,18a2.18,2.18,0,0,1,1.34.85c0-.09.07-.22.14-.24a.57.57,0,0,1,.34,0,1.87,1.87,0,0,1,.77.73l.15.21.55-.27a4,4,0,0,1,2-.36.54.54,0,0,1,.52.3c.13-.2.26-.41.41-.6a.58.58,0,0,1,.82-.21,10.53,10.53,0,0,0,1.23.43c.46.12.95.16,1.42.24l0-.08c-.05-.52,0-.64.56-.66A4.75,4.75,0,0,0,21,17.92a2.07,2.07,0,0,1,1.74,0,2,2,0,0,1,.87.69c.06-.08.1-.22.17-.23a.42.42,0,0,1,.35.06,4.51,4.51,0,0,1,.74.71,7.25,7.25,0,0,1,.48.86.83.83,0,0,0,.28.28c0-.22-.09-.44-.13-.66s.07-.53.4-.54a8.62,8.62,0,0,0,2.78-.75,2,2,0,0,1,1,0,2.44,2.44,0,0,1,1.68,1.14c0-.1,0-.13,0-.17,0-.23.09-.35.31-.29a1.49,1.49,0,0,1,.76.52.24.24,0,0,0,.32.08,3.25,3.25,0,0,1,.48-.07c0-.14-.06-.32-.08-.5a.35.35,0,0,1,.3-.46l.12,0A6,6,0,0,0,35.79,18a1.94,1.94,0,0,1,1.44.08c.05,0,.07.14.09.19l-1.11-.15a.58.58,0,0,0-.29.05,5.93,5.93,0,0,1-2.23.61c-.3,0-.32.05-.29.35s.06.29.08.4c.57-.2,1.11-.42,1.66-.58a3.49,3.49,0,0,1,2,0c.15,0,.21.1.16.23a7.9,7.9,0,0,0-.92-.14,5.52,5.52,0,0,0-2.63.69l-.18.08a.74.74,0,0,1-.17,0l.17.42a2.58,2.58,0,0,1,2.27-1.05H36c.22,0,.26.1.23.32.71-.32,1.08-.33,1.08,0-.85-.14-1.28.42-1.75,1,.29,0,.53,0,.76.07s.59.13.89.21a.18.18,0,0,1,.1.12s0,.08-.08.13a2.28,2.28,0,0,0-1-.24.81.81,0,0,0,.1.09c.13.1.27.21.24.41s-.19.27-.35.32a4.05,4.05,0,0,1-.5.12v0h1c0-.06,0-.16,0-.25,0-.46,0-.46.48-.48Zm-31.84.38,0,0a1.86,1.86,0,0,0,.07.54,2.64,2.64,0,0,0,2.07,1.66A3.41,3.41,0,0,0,9.89,23c.51-.33.5-.39.24-.93a1.33,1.33,0,0,0-1.07-.75s0,.09,0,.12a1.1,1.1,0,0,1-1,1.22,2.48,2.48,0,0,1-1.67-.21A2.11,2.11,0,0,1,5.39,21.47Zm13.38-.24-.05,0a2.61,2.61,0,0,0,.08.56,2.66,2.66,0,0,0,2.34,1.67,3.94,3.94,0,0,0,1.95-.56.42.42,0,0,0,.28-.42,1.89,1.89,0,0,1,.11-.47.32.32,0,0,0,0-.16,1.24,1.24,0,0,0-1.08-.72v.1a1.07,1.07,0,0,1-.93,1.19,3,3,0,0,1-1,0A2.26,2.26,0,0,1,18.77,21.23Zm13.06,2c0-.14.07-.21.09-.27a2.69,2.69,0,0,0-1.43-2.74,1.19,1.19,0,0,0-1,0,2.73,2.73,0,0,0-1.13,1.05s0,0,0,.09l.28,0c.41.06.83.08,1.23.17a2.24,2.24,0,0,1,1.61,1.19A3.63,3.63,0,0,0,31.83,23.24Zm-14.7-2.92a3.09,3.09,0,0,0-1.6-.35,1.93,1.93,0,0,0-1.84,1.42,1,1,0,0,0,.07.77,2.13,2.13,0,0,0,1.27.93,1.55,1.55,0,0,0,.43,0c0-.07-.09-.08-.13-.11a4.88,4.88,0,0,1-.65-.43.56.56,0,0,1,0-.89,1.48,1.48,0,0,1,.47-.35c.51-.22,1-.43,1.55-.61A.57.57,0,0,0,17.13,20.32ZM28.72,20a3.34,3.34,0,0,0-1.77.39,1.36,1.36,0,0,0-.78,1.3,1.53,1.53,0,0,0,1,1.41,2.76,2.76,0,0,0,1.48.11A1.4,1.4,0,0,0,29.1,23,.2.2,0,0,0,29,23a6.9,6.9,0,0,1-1-.08.64.64,0,0,1-.51-.88,3.79,3.79,0,0,1,.43-.91C28.11,20.71,28.41,20.37,28.72,20ZM17,21.49a1.39,1.39,0,0,0,.61,1.23l.51.41a.29.29,0,0,0,.2.05.68.68,0,0,0,.22-.12c.36-.24.36-.25.16-.63a6.31,6.31,0,0,1-.39-.93.71.71,0,0,1,.22-.84.63.63,0,0,0,.16-.88.23.23,0,0,0-.34-.12A2.38,2.38,0,0,0,17,21.49Zm-12.14,2,.47-.29a.21.21,0,0,0,.08-.32,2.58,2.58,0,0,1-.19-.37,5.45,5.45,0,0,1-.3-.76.77.77,0,0,1,.23-.85.56.56,0,0,0,.19-.79c-.12-.24-.21-.29-.45-.16a2.48,2.48,0,0,0-1,1,1.45,1.45,0,0,0,.47,2.15C4.47,23.17,4.61,23.31,4.81,23.47Zm26.52-3.21a2.14,2.14,0,0,0-2.94-1.55,8.73,8.73,0,0,1-1.52.5,8.27,8.27,0,0,1-.87.11c-.08,0-.2.11-.2.17a7.58,7.58,0,0,0,.1.76l.19-.09a7.11,7.11,0,0,1,2.69-.81,2.89,2.89,0,0,1,2.39.78Zm-20.62,2,.06,0a1.46,1.46,0,0,0,.05-.2,2.31,2.31,0,0,0-1-2.15,1.17,1.17,0,0,0-1.62.06,3,3,0,0,0-.61.73A5.51,5.51,0,0,1,9.47,21C10.08,21.2,10.34,21.77,10.71,22.24ZM8,19.46A2.78,2.78,0,0,0,6.24,20a1.11,1.11,0,0,0-.42.71,1.35,1.35,0,0,0,.83,1.46A2.41,2.41,0,0,0,8,22.26a.9.9,0,0,0,.26-.13,6.26,6.26,0,0,1-1-.16.55.55,0,0,1-.38-.75,4.61,4.61,0,0,1,.45-.92C7.52,20,7.76,19.76,8,19.46ZM36.21,22h-.49c-.89,0-1.2-.54-.76-1.31a11.42,11.42,0,0,1,.83-1.14l.14-.17A2.66,2.66,0,0,0,34.1,20a1.11,1.11,0,0,0-.32,1.21,1.43,1.43,0,0,0,1.46,1A1.27,1.27,0,0,0,36.21,22Zm-14.55-.15a8.06,8.06,0,0,1-.89-.1.62.62,0,0,1-.5-.86,1.44,1.44,0,0,1,.19-.46c.26-.36.53-.71.8-1.07l.12-.16a2.89,2.89,0,0,0-1.52.35,1.21,1.21,0,0,0-.65.84A1.35,1.35,0,0,0,20.12,22a2.53,2.53,0,0,0,1.22.08A1.54,1.54,0,0,0,21.66,21.88ZM21,20.4a3.22,3.22,0,0,1,2.71,1.05c.12-.16.25-.31.37-.48a.25.25,0,0,0,0-.15A2.26,2.26,0,0,0,23,19.46a1,1,0,0,0-.84-.08A2.49,2.49,0,0,0,21,20.4Zm-2.08-1,.16-.07a6.31,6.31,0,0,1,2.06-.67,2.67,2.67,0,0,1,2.45.69l.09.05a1.23,1.23,0,0,0,0-.13,1.93,1.93,0,0,0-2.53-1.19,7,7,0,0,1-1.24.42c-.28.07-.57.07-.86.12-.07,0-.18.1-.18.15A5.05,5.05,0,0,0,18.94,19.42Zm-7,2.06a.5.5,0,0,0,.45-.33,1.41,1.41,0,0,1,1.17-.91.9.9,0,0,0,.8-.66c.11-.28,0-.39-.26-.38a7.09,7.09,0,0,0-1.13.11,3.5,3.5,0,0,0-1.2.53l.31.69A.73.73,0,0,1,12,21.48Zm-1.64-1.86a1.84,1.84,0,0,0-1.2-1.31,1.48,1.48,0,0,0-1-.09,7,7,0,0,1-2.42.65c-.06,0-.17.06-.18.11a1,1,0,0,0,.09.62c.52-.19,1-.39,1.52-.54a3.36,3.36,0,0,1,2.34,0A6.31,6.31,0,0,1,10.32,19.62Zm21.29-.35a1.16,1.16,0,0,0,0,.16,2.76,2.76,0,0,1,.23,1.3.26.26,0,0,0,.05.17,4.18,4.18,0,0,1,.47,1.26,2.52,2.52,0,0,0,.1.29l.39-.23a.57.57,0,0,0,.26-.82,17.07,17.07,0,0,0-.85-1.57A1.28,1.28,0,0,0,31.61,19.27ZM1.91,20.75a.51.51,0,0,0,.14,0l1.37.2a.16.16,0,0,0,.12,0l.62-.9C3.41,19.37,2.53,19.69,1.91,20.75Zm16.78-1.3v-.06l-.21-.06-.88-.11a5.21,5.21,0,0,1-1.75-.53c-.1-.05-.28-.1-.35,0a1.46,1.46,0,0,0-.51.7l.08,0a8.72,8.72,0,0,1,2.43.41.27.27,0,0,0,.24-.06A1.11,1.11,0,0,1,18.69,19.45Zm-8.1-.6s0,.06,0,.08a2.7,2.7,0,0,1,.21,1.19.35.35,0,0,0,.06.18c.09.21.19.42.27.64s.12.42.19.66l.28-.16c.35-.23.43-.44.25-.82s-.39-.78-.61-1.16A1.51,1.51,0,0,0,10.59,18.85Zm18.34,1.37a1.67,1.67,0,0,1,1.84-.12,1.51,1.51,0,0,0-.2-.17,2.81,2.81,0,0,0-1.79-.37,6.89,6.89,0,0,0-2.51.75,3,3,0,0,1-.47.17L26,21a1.94,1.94,0,0,1,.81-.84,3.63,3.63,0,0,1,1.88-.42C29.06,19.8,29.11,19.91,28.93,20.22Zm-5-1.63c.08.3.17.55.22.81a5.25,5.25,0,0,0,0,.56,4.08,4.08,0,0,0,.31.63l.66-.37A3.38,3.38,0,0,0,24,18.59Zm-8.14,2.59c-.29.18-.59.33-.85.53a.44.44,0,0,0,0,.79,4.54,4.54,0,0,0,.68.38c.13.07.26.13.23.33a4.14,4.14,0,0,0,.54-.47.39.39,0,0,1,.62,0c.07.06.13.14.19.2a2.59,2.59,0,0,0-.92-1.06l.07.21c.12.4-.06.68-.48.65a2.16,2.16,0,0,1-.71-.16c-.41-.16-.46-.51-.1-.75a3.53,3.53,0,0,1,.77-.3Zm13.73,1.67c0-.17.05-.37.05-.56s.09-.37.33-.36l.39.06a3.48,3.48,0,0,0-1.45-.4c.15.12.27.19.37.28a.35.35,0,0,1-.09.63,1.48,1.48,0,0,1-.9.17.46.46,0,0,1-.42-.58c0-.27.26-.37.45-.51l-.3-.26c-.08.16-.16.31-.22.46-.25.59,0,.92.6,1h.36a3.55,3.55,0,0,1,.46,0A1.42,1.42,0,0,1,29.55,22.85ZM9.68,19.49l0-.06A5.52,5.52,0,0,0,9,19.16a4.7,4.7,0,0,0-3,.55s0,.1-.05.15a.31.31,0,0,0,.19-.08,3,3,0,0,1,1.94-.51c.24,0,.27.08.24.33A1.37,1.37,0,0,1,9.68,19.49Zm6.17,3.06c.26,0,.37-.15.29-.39s-.11-.36-.34-.38a.66.66,0,0,0-.64.3.18.18,0,0,0,.1.26C15.45,22.42,15.65,22.48,15.85,22.55Zm5.81-3.18A1.4,1.4,0,0,1,23,19.24c-.78-.69-2.58-.39-3.68.29a.33.33,0,0,0,.2,0,3.1,3.1,0,0,1,1.9-.47C21.68,19,21.73,19.14,21.66,19.37Zm6.73,3.15a4,4,0,0,0,.61-.2.25.25,0,0,0,.1-.23.57.57,0,0,0-.92-.14.52.52,0,0,0-.06.39C28.14,22.41,28.3,22.46,28.39,22.52ZM17.4,20a8.17,8.17,0,0,0-2.29-.41,2.12,2.12,0,0,1-.41-.08l-.24.52c.26-.07.52-.16.78-.21a3.35,3.35,0,0,1,1.9.26C17.24,20.11,17.34,20.15,17.4,20ZM35.68,21.6a4.16,4.16,0,0,0,.5-.16.2.2,0,0,0,.07-.2.6.6,0,0,0-.53-.27.42.42,0,0,0-.32.39C35.41,21.53,35.52,21.59,35.68,21.6ZM2,21.77c.1,0,.27-.07.43-.13s.08-.11.12-.17a2.07,2.07,0,0,0-.48-.31c-.16-.05-.3.08-.37.24S1.75,21.76,2,21.77Zm5.79-.14a2.34,2.34,0,0,0,.42-.13.29.29,0,0,0,.1-.16A1.27,1.27,0,0,0,7.9,21c-.11,0-.29.09-.37.19S7.51,21.63,7.83,21.63Zm13.27-.21a3.69,3.69,0,0,0,.53-.15c.05,0,.12-.14.1-.19A.48.48,0,0,0,21,21a.46.46,0,0,0-.05.33C20.91,21.34,21,21.38,21.1,21.42Zm.09.19v0h.95c0-.13,0-.29,0-.45s.1-.3.3-.29l.2,0v-.05l-1-.25,0,.05.1.07c.14.11.29.22.26.43s-.21.27-.37.32A3.69,3.69,0,0,1,21.19,21.61ZM9.31,21.17v-.05l-1-.25,0,.06.11.08c.14.1.29.23.22.4a.64.64,0,0,1-.32.31,3,3,0,0,1-.59.14v0H8.76c0-.12,0-.28,0-.44s.08-.29.29-.29ZM2,22v0H3c0-.13,0-.29,0-.45a.24.24,0,0,1,.23-.28l.14,0V21.2L2.52,21a.35.35,0,0,0,.12.16c.33.25.3.53-.08.68A3.92,3.92,0,0,1,2,22Zm21.41,1.16c-.11.06-.23.09-.28.17a1,1,0,0,0-.13.38s.09.11.14.11a4.07,4.07,0,0,0,.59-.06Zm9.77-2.42a.59.59,0,0,0,.06-.69c-.13-.28-.26-.31-.51-.1Zm-16.41.37-.64.23,0,.07.57.39ZM4.81,19a2.78,2.78,0,0,1,.12.38c0,.22.14.33.37.3C5.26,19.37,5.19,19.09,4.81,19ZM7.4,20.67c-.32.44-.43,1-.09,1.08a1.32,1.32,0,0,1-.06-.48,1.34,1.34,0,0,1,.32-.45Zm28.12.12-.2-.17c-.32.39-.41,1-.06,1.06C35,21.32,35.1,21.11,35.52,20.79Zm-7.89,2.65a1.69,1.69,0,0,0,1.71-.36C28.85,23.55,28.24,23.44,27.63,23.44Zm-7.09-2.35.42-.5-.2-.17C20.67,20.66,20.46,20.85,20.54,21.09Zm-4.92,2.19a2.1,2.1,0,0,1-1.73-.54A1.67,1.67,0,0,0,15.62,23.28Zm-2-2.42.35-.47-.49.07ZM10.37,23l.48-.31-.12.07-.17-.37C10.65,22.67,10.47,22.82,10.37,23ZM18.9,19.6l0,.06.16.41.25-.34Zm-13.26.68H5.7c0-.09.06-.2,0-.28s-.13-.11-.2-.17l0,.05Zm15.58,3.43-.93-.13A1.12,1.12,0,0,0,21.22,23.71Zm4.67-2.19a.31.31,0,0,0,.05.54Zm6.32,1.35.26-.21-.26-.14Zm1-1.89.27.2-.06-.38Z"/><path class="cls-4" d="M1.35,2.84V2.56a4.5,4.5,0,0,1,1.74.3c.6.21.85.77,1.21,1.22l.08,0a2.69,2.69,0,0,0,0-.56A2.16,2.16,0,0,0,3.2,1.63,1,1,0,0,0,2,1.7c-.24.18-.45.38-.69.59,0-.31-.1-.63.28-.87l-.26,0C1.3,1,1.38.87,1.8.86a2.59,2.59,0,0,1,1.55.31c.19.12.36.27.59.39L3.61.86c.16,0,.31,0,.47,0a.19.19,0,0,1,.13.1A1.92,1.92,0,0,1,4.4,2s0,.1,0,.16l.43,1.11a.87.87,0,0,0,.07.17H5c.63-.34.69-.49.38-1.14a3.76,3.76,0,0,0-1-1.41c.48-.12.58.31.84.55.13-.46.38-.71.9-.54a3.31,3.31,0,0,0-.25.3,2.79,2.79,0,0,0-.19.33.91.91,0,0,0,0,.9.7.7,0,0,1-.07.87c.33,0,.35,0,.35.29a.41.41,0,0,0,.17.36,3,3,0,0,0,1.3.57,5.74,5.74,0,0,0,2,.08A.66.66,0,0,0,10,4.18a1.16,1.16,0,0,0-.09-1.36,1.35,1.35,0,0,0-.17-.17l-.15.17a1.8,1.8,0,0,1-1.89.54A2,2,0,0,1,6.14,1.92,1.48,1.48,0,0,1,6.2,1,.26.26,0,0,1,6.36.86c.14,0,.29,0,.46,0-.06.14-.11.27-.16.4a.85.85,0,0,0,.07.83A1.8,1.8,0,0,0,8.36,3l.08,0a.6.6,0,0,1-.14-.07,3.05,3.05,0,0,1-.5-.28c-.51-.37-.52-.78,0-1.15A2.67,2.67,0,0,1,9.53.85c.51,0,1,0,1.54,0,.27,0,.54,0,.81,0a.21.21,0,0,1,.24.15c.05.19.1.38.14.57a2.13,2.13,0,0,1,0,.32,1.79,1.79,0,0,0,.4-1H13l0,.42L13,1.16c.18-.26.37-.27.56,0,0,0,.08.09.11.08A1.14,1.14,0,0,0,14.4,1a1,1,0,0,1,.33-.17l0,.05,0,.16A2.13,2.13,0,0,1,15.93.86a3.17,3.17,0,0,1,1.4.14l.55.28c.06,0,.14.15.13.21s-.12.12-.2.15-.13,0-.19.1a3.32,3.32,0,0,1,.63,0,5.25,5.25,0,0,1,.63.22.31.31,0,0,0,.21,0A2.85,2.85,0,0,0,17.54.88a2.11,2.11,0,0,1,1.78.87L20,1.53,19.72.87h.55l.1.66c.58-.19,1.13-.4,1.69-.56A4.32,4.32,0,0,1,23.7.88a2.14,2.14,0,0,1,1.4.71l.06,0-.32-.7c.16,0,.32,0,.48,0a.23.23,0,0,1,.12.1,1.9,1.9,0,0,1,.18,1,.38.38,0,0,0,0,.17c.14.38.28.76.43,1.13l.06.15h.06c.63-.34.68-.49.37-1.14a3.71,3.71,0,0,0-1-1.4l0-.06a1.78,1.78,0,0,0,.38.1,2.26,2.26,0,0,0,.45,0c.31,0,.61-.08.91-.12l0,.07a1.94,1.94,0,0,0-.24.15,2.09,2.09,0,0,0-.28.22c-.34.32-.35.34-.14.76l.21.44a.7.7,0,0,1-.11.84c.22,0,.32,0,.41.19s.31.18.48.23a2,2,0,0,0,.43,0V3.67A1,1,0,0,1,28,3.61a4.33,4.33,0,0,1-.61-.41.52.52,0,0,1,0-.87,2.31,2.31,0,0,1,.69-.44c.64-.24,1.3-.44,1.94-.65l.16,0L29.51.87a.93.93,0,0,1,.8.18.29.29,0,0,1,.11.22c0,.05-.11.1-.19.13s-.12,0-.19.08a1.5,1.5,0,0,1,1.69.78A1.86,1.86,0,0,0,30.53.88a.75.75,0,0,1,.63.11A1.73,1.73,0,0,1,32,2.4s0,.07,0,.1c.41-.18.51-.88.25-1.61.24-.06.29-.05.33.16A8.14,8.14,0,0,1,32.7,2c.07-.11.17-.3.42-.26,0,0,0,0,0-.05,0-.42,0-.52.47-.58l1.25-.2a2.9,2.9,0,0,1,.51,0l0,.06c-.4.1-.79.22-1.19.3a4.2,4.2,0,0,1-.61.06.19.19,0,0,0-.2.24c0,.16.06.33.09.52l.23-.1a5.77,5.77,0,0,1,2.36-.64,6.83,6.83,0,0,1,1.09.11c.13,0,.2.09.12.25a3.09,3.09,0,0,0-2,0c-.63.18-1.25.42-1.89.63l.14.43a2.61,2.61,0,0,1,2.27-1,.49.49,0,0,1,.21,0c.17,0,.26.11.13.32a1.33,1.33,0,0,1,1.1-.2s0,.11,0,.2a1.09,1.09,0,0,0-1,.16,2.67,2.67,0,0,0-.78.82c.26,0,.49,0,.72.07s.5.09.74.14.34.11.27.35a1.2,1.2,0,0,0,0,.19L37,3.69c0,.05,0,.09,0,.13A1,1,0,0,1,36.08,5a2.5,2.5,0,0,1-2.26-.51,5.33,5.33,0,0,1-.54-.62,1.2,1.2,0,0,0,.1.64,2.68,2.68,0,0,0,3.53,1.28l.37-.14,0,0-.11.22a.23.23,0,0,0,0,.12l.09,0a.74.74,0,0,1-.4.77,3.06,3.06,0,0,1-2.14.5c-.51-.07-1-.23-1.52-.35l-.1,0c-.45-.2-.55-.47-.29-.95-.39.16-.45-.24-.71-.34l-.06,0a3.83,3.83,0,0,1-3.77,1,2.84,2.84,0,0,1-.66-.22c-.35-.17-.37-.43-.05-.66l.27-.19-.23,0a1,1,0,0,1-1,.66A5,5,0,0,1,25.13,6a1.41,1.41,0,0,0-.41,0c-.22,0-.43,0-.55-.16a2.52,2.52,0,0,1-.4.4,3.17,3.17,0,0,1-2,.51,6.18,6.18,0,0,1-1.69-.38A.82.82,0,0,1,19.58,6c-.25.18-.49.38-.75.53a4.09,4.09,0,0,1-3.48.24l-.07,0c-.31-.15-.37-.27-.28-.6a1.21,1.21,0,0,1-1,.34,3.65,3.65,0,0,1-2.48-.81.24.24,0,0,0-.23,0,4.21,4.21,0,0,1-3.21.17.72.72,0,0,1-.2-.09c-.28-.14-.33-.24-.25-.58a1.05,1.05,0,0,1-.94.33c-.44,0-.87-.1-1.3-.15a.44.44,0,0,0-.22.07A3.32,3.32,0,0,1,3.45,6a.52.52,0,0,1-.52-.18,2.38,2.38,0,0,1-1.55.9c-.07-.14,0-.19.1-.25.31-.12.62-.25.92-.4a.38.38,0,0,0,.21-.5,2.2,2.2,0,0,1-1.25.34V5.57a9.63,9.63,0,0,0,1.18-.28,5.78,5.78,0,0,0,1.11-.56c.28-.18.29-.29.16-.61a1.43,1.43,0,0,0-1.16-.91,1.13,1.13,0,0,1-.41,1.07,1.58,1.58,0,0,1-.88.27V4.17L1.88,4c-.52,0-.52,0-.52-.23h1a2.66,2.66,0,0,0,.05-.35c0-.32.09-.4.4-.36l.1,0,0,0-1-.25v0c.08.07.18.14.26.22s.15.39-.07.49a4.78,4.78,0,0,1-.67.22c0-.15,0-.23.1-.24a1,1,0,0,0,.3-.08c.23-.09.25-.2,0-.34A3,3,0,0,0,1.35,2.84ZM15.14,4.16a1.1,1.1,0,0,0,.74,0h-.75l-1.07-.6A2,2,0,0,0,15.14,4.16ZM17,3.65A2.07,2.07,0,0,1,13.46,3l-.06.14c-.16.3-.32.59-.46.89a.25.25,0,0,0,0,.19A1.84,1.84,0,0,0,14,5.26a5,5,0,0,0,2.49.35c.6-.06.78-.24.91-.83l0-.13A1,1,0,0,0,17,3.65Zm3.18-.31-.05,0a1.73,1.73,0,0,0,.09.56A2.75,2.75,0,0,0,21.62,5.3,3.42,3.42,0,0,0,25,4.62l.08-.09a.32.32,0,0,0,0-.14,1.36,1.36,0,0,0-1.23-1.15s0,.09,0,.14a1,1,0,0,1-.79,1.08,2.37,2.37,0,0,1-1.42,0A2.2,2.2,0,0,1,20.21,3.34Zm-9.77,1,.11,0,.07,0a2.69,2.69,0,0,0,1.21-2.08A1.13,1.13,0,0,0,10.58.93a4.67,4.67,0,0,0-1.48.32L9,1.3c.11.09.19.14.25.2a7.48,7.48,0,0,1,1,.81,1.35,1.35,0,0,1,.33,1.44A3.82,3.82,0,0,0,10.44,4.38Zm19.75.74a2,2,0,0,0,.89-.79A.92.92,0,0,0,31.22,4a6.06,6.06,0,0,1,.27-.75,1.16,1.16,0,0,0-.81-1.56,3,3,0,0,0-1.27.12l-.63.2v.06a2.27,2.27,0,0,0,.25.18,3.18,3.18,0,0,1,1,.91,1.42,1.42,0,0,1,.23,1.32A3,3,0,0,0,30.19,5.12ZM17.71,1.45c-.05,0-.07-.07-.1-.08A3.21,3.21,0,0,0,15.7,1,1.87,1.87,0,0,0,14,2.23a1,1,0,0,0,.2,1,2,2,0,0,0,.92.61,3.09,3.09,0,0,0,.62.09V3.92c-.13-.06-.26-.11-.38-.18A2.93,2.93,0,0,1,15,3.5a.57.57,0,0,1,0-1,1.57,1.57,0,0,1,.45-.31c.53-.21,1.08-.41,1.62-.6C17.28,1.55,17.48,1.51,17.71,1.45Zm2.52.92,0,0V2.25c-.05-.45-.27-.57-.65-.33a2.39,2.39,0,0,0-1.07,1.29,1.19,1.19,0,0,0,.37,1.43c.18.15.37.29.56.43s.17.16.25.16a.68.68,0,0,0,.3-.14A.51.51,0,0,0,20.13,5a.32.32,0,0,0,.06-.23c-.05-.14-.14-.26-.2-.39a4.88,4.88,0,0,1-.28-.68A.77.77,0,0,1,20,2.7C20.11,2.63,20.16,2.48,20.23,2.37Zm11.25,1.8a1.3,1.3,0,0,0,.6,1.06,2.23,2.23,0,0,1,.48.38.21.21,0,0,0,.32,0L33,5.59c.38-.24.37-.26.17-.66a4.92,4.92,0,0,1-.39-.88A.71.71,0,0,1,33,3.24a.57.57,0,0,0,.15-.84.23.23,0,0,0-.32-.12A2.33,2.33,0,0,0,31.48,4.17Zm-4.74,1a1.61,1.61,0,0,0,.35.1,13.75,13.75,0,0,0,1.69.14c.76,0,.86-.1,1.09-.94v0a1,1,0,0,0-.45-1,1.86,1.86,0,0,1-2.19.65ZM22.51,2.51a6.52,6.52,0,0,1,1.76.33c.62.22.88.79,1.3,1.28a1.86,1.86,0,0,0,.07-.28,2.21,2.21,0,0,0-1.21-2.2,1.22,1.22,0,0,0-.69-.13A1.89,1.89,0,0,0,22.51,2.51Zm13.42-.64a3,3,0,0,0-1.56.35,1.13,1.13,0,0,0-.65,1.08,1.29,1.29,0,0,0,.79,1.14,2.54,2.54,0,0,0,1.39.13.9.9,0,0,0,.26-.13,8.5,8.5,0,0,1-1-.16.53.53,0,0,1-.38-.71,2.62,2.62,0,0,1,.6-1.08C35.55,2.29,35.73,2.1,35.93,1.87ZM22.81,1.41a2.83,2.83,0,0,0-1.64.41,1.12,1.12,0,0,0-.52.72A1.27,1.27,0,0,0,21.57,4a5.22,5.22,0,0,0,1.19.08c.11,0,.22-.09.31-.13a8,8,0,0,1-1-.15.54.54,0,0,1-.39-.76,4,4,0,0,1,.41-.8C22.32,2,22.56,1.71,22.81,1.41ZM12.26,4.56l-.35,0a1.31,1.31,0,0,0-1.17.27,1.55,1.55,0,0,1-1.32.29C9.13,5,8.85,5,8.56,5A.73.73,0,0,0,8,5.18c-.15.13-.15.22,0,.33l.16.07a3.73,3.73,0,0,0,3.13-.22A3.12,3.12,0,0,0,12.26,4.56Zm7.33,1L19,5.47a1.21,1.21,0,0,0-.91.27,1.53,1.53,0,0,1-1.27.33A3.21,3.21,0,0,0,16.4,6c-.3,0-.61-.13-.89,0a2.54,2.54,0,0,0-.29.28,1.17,1.17,0,0,0,.32.24,3.85,3.85,0,0,0,2.53,0A3.45,3.45,0,0,0,19.59,5.55ZM31.94,5.4a.89.89,0,0,0-.22-.13,1.35,1.35,0,0,0-1.22.24,1.5,1.5,0,0,1-1.31.31,3,3,0,0,0-.52-.08c-.27,0-.57-.09-.81.11a1.38,1.38,0,0,0-.22.26.92.92,0,0,0,.25.2,8,8,0,0,0,1.18.24A3.43,3.43,0,0,0,31.94,5.4ZM16.35,2.3l.23.19a8.12,8.12,0,0,1,.81.64,1.5,1.5,0,0,1,.45,1.68,4.51,4.51,0,0,0-.07.53l.1,0,.72-.64a1.4,1.4,0,0,1-.45-1.3,2.94,2.94,0,0,1,.64-1.24C18.42,1.69,17,2,16.35,2.3Zm7.49,3.3a3,3,0,0,1-2,.32A1.12,1.12,0,0,1,21,5.38a.66.66,0,0,0-.2-.21.27.27,0,0,0-.19,0,6.24,6.24,0,0,0-.65.5.27.27,0,0,0,0,.44.94.94,0,0,0,.28.15,12.65,12.65,0,0,0,1.35.33,2.78,2.78,0,0,0,2-.43A.43.43,0,0,0,23.84,5.6Zm13.09.47a2.79,2.79,0,0,1-1.83.33,1.19,1.19,0,0,1-1-.55.67.67,0,0,0-.2-.21.22.22,0,0,0-.21,0,3.19,3.19,0,0,0-.59.43c-.2.2-.16.39.08.54a.7.7,0,0,0,.23.11A12.21,12.21,0,0,0,34.7,7a2.8,2.8,0,0,0,1.95-.4C36.93,6.45,37,6.37,36.93,6.07ZM11.59,4.12l.56,0a.79.79,0,0,0,.77-.53,13.85,13.85,0,0,0,.47-1.37,1.22,1.22,0,0,0-.1-1l-.1.15a3,3,0,0,1-.79,1.11c-.05,0-.08.11-.11.17-.19.41-.39.82-.59,1.23Zm15.33-.56c-.18.07-.33.11-.48.18a.56.56,0,0,0-.37.42,1,1,0,0,1-.79.86,4.76,4.76,0,0,0-.7.3.32.32,0,0,0-.17.41.41.41,0,0,0,.33.09,2.88,2.88,0,0,0,1.32-.47A1.87,1.87,0,0,0,26.92,3.56ZM5.7,3.56a2,2,0,0,0-.54.22.76.76,0,0,0-.31.4A1,1,0,0,1,4.06,5a3.1,3.1,0,0,0-.72.32c-.1.07-.12.25-.17.38.11,0,.23.12.33.1a2.92,2.92,0,0,0,1.34-.47A1.89,1.89,0,0,0,5.7,3.56Zm6.73,1.22-.73.63.05.06a3.38,3.38,0,0,0,2.54.76.72.72,0,0,0,.59-.38A3.08,3.08,0,0,1,12.43,4.78Zm16.13-.89a6,6,0,0,0,.56-.51.39.39,0,0,1,.61,0,3.2,3.2,0,0,1,.25.27,2.23,2.23,0,0,0-.93-1.06,1.68,1.68,0,0,0,.06.24.41.41,0,0,1-.37.55,1.44,1.44,0,0,1-1-.23.31.31,0,0,1-.07-.54,1.56,1.56,0,0,1,.5-.29,1.27,1.27,0,0,1,.39,0l-.06-.37c-.31.19-.61.34-.88.54a.4.4,0,0,0,0,.71,5.32,5.32,0,0,0,.66.37C28.43,3.56,28.6,3.6,28.56,3.89ZM5.51,5.1a4.06,4.06,0,0,0,1.55.12.7.7,0,0,0,.48-.34,7.56,7.56,0,0,1-.85-.12,6.21,6.21,0,0,1-.82-.3ZM8.88,3v.09c.16-.15.34-.29.49-.45a.39.39,0,0,1,.62,0c.08.07.14.15.21.22a2.43,2.43,0,0,0-1-1.08L9.34,2c.11.36,0,.61-.41.63a2,2,0,0,1-.64-.1c-.33-.09-.48-.26-.47-.44a.73.73,0,0,1,.53-.52l.1,0,.37,0-.05-.35a8.74,8.74,0,0,0-.8.45c-.4.29-.39.58,0,.86.19.13.41.2.6.31A2.25,2.25,0,0,1,8.88,3Zm7.31,1.09c.18-.16.36-.31.53-.48a.38.38,0,0,1,.59,0,2.39,2.39,0,0,1,.22.23,2.51,2.51,0,0,0-1-1.08c0,.11.06.15.07.19.15.43,0,.71-.5.68a1.93,1.93,0,0,1-.67-.16c-.42-.16-.47-.5-.1-.74a3.59,3.59,0,0,1,.76-.27l-.05-.3a6.94,6.94,0,0,0-.8.46c-.38.27-.38.57,0,.84a6.25,6.25,0,0,0,.63.33C16.06,3.82,16.19,3.88,16.19,4.09ZM27.28,5.64l-.94-.15h-.1l-.75.39v.05l1.12,0A.74.74,0,0,0,27.28,5.64ZM8.71,2.42c.35,0,.44-.11.38-.35S9,1.74,8.78,1.71a.66.66,0,0,0-.63.22c-.1.13-.09.25.06.31A4.64,4.64,0,0,0,8.71,2.42Zm7.41,1c.28,0,.36-.14.3-.39s-.12-.33-.32-.35a.64.64,0,0,0-.62.22c-.11.13-.1.25,0,.31S15.92,3.37,16.12,3.44Zm12.25-1a.57.57,0,0,0-.49.24c-.08.11-.08.23.05.28a3.5,3.5,0,0,0,.71.17c.06,0,.19-.1.21-.17A.45.45,0,0,0,28.37,2.46Zm-7.95-.41.45-.29a3,3,0,0,1,2-.55c.21,0,.26.11.2.3l.05,0,.4-.5-.3,0a4.94,4.94,0,0,0-1.9.36l-1.05.44,0,.07ZM1.88,1.54a1.51,1.51,0,0,1,1.38-.15,2.43,2.43,0,0,0-1.72-.34c-.06,0-.1.07-.18.13C1.91,1.23,2,1.26,1.88,1.54Zm20.73,2a.41.41,0,0,0,.15,0c.15-.05.42,0,.4-.24s-.27-.22-.42-.32h0a.41.41,0,0,0-.4.35C22.3,3.42,22.38,3.5,22.61,3.49ZM35.74,4h.13c.15,0,.36,0,.41-.24s-.27-.31-.46-.33h0a.42.42,0,0,0-.4.36C35.39,3.9,35.48,4,35.74,4Zm.94.25c0-.12,0-.27,0-.42s.11-.28.28-.29l.22,0V3.45l-1-.23a.31.31,0,0,0,.12.15c.13.1.28.21.21.37a.57.57,0,0,1-.31.3,2.05,2.05,0,0,1-.5.14v0ZM30.32,5.36l-.44-.22c-.13.18-.13.18-.8.45A1.31,1.31,0,0,0,30.32,5.36Zm-12.86,0c-.11.34-.47.34-.8.45a1.24,1.24,0,0,0,1.23-.21Zm-7.32-1c-.11.32-.46.33-.81.45a1.33,1.33,0,0,0,1.24-.21Zm3.94,1.15a2.54,2.54,0,0,1-1.41-1.29.55.55,0,0,0,.13.58A2.62,2.62,0,0,0,14.08,5.54Zm8.14-3c-.38.51-.39,1,0,1.07-.26-.32-.23-.63.22-.9ZM35.28,4.09c-.24-.38-.18-.58.24-.88L35.32,3C35,3.49,34.94,3.9,35.28,4.09Zm-14,1.35a2,2,0,0,0,1.36.32Zm13.18.49a1.5,1.5,0,0,0,1.24.29ZM14.23,1.35l-.47.07.12.4Zm10.25,0c-.38-.29-.66-.33-.76-.13Zm2.74,2.43a1.43,1.43,0,0,0,1,.13ZM6,4.11c0,.16.36.38.72.42Zm1.85-.93-.93-.49A1.87,1.87,0,0,0,7.82,3.18ZM30.74,5.1,31.15,5l-.1-.23ZM24.13,3l-.5-.15,0,.22ZM11,4.36l.46-.09L11.3,4ZM26.67,1.11l-.45.07.18.24ZM18.73,5.25,18.64,5l-.34.31Zm-7-4.18.26.37.05,0L11.82,1ZM4.56,4.26l-.36,0,.25.22ZM12.1,2.08v.31l.29-.24-.15,0Zm-4,2.74c-.24,0-.24,0-.36.24Z"/></g></g></svg>