<svg xmlns="http://www.w3.org/2000/svg" viewBox="0 0 38.55 24.66"><defs><style>.cls-1{isolation:isolate;}.cls-2{opacity:0.15;}.cls-2,.cls-3{mix-blend-mode:multiply;}.cls-4{fill:#fff;}</style></defs><title>convert-CUSTOMIZE-SVG-03</title><g class="cls-1"><g id="Layer_1" data-name="Layer 1"><g class="cls-2"><path d="M31,3.83H10.5a.57.57,0,0,0-.44.18c-.44.46-.9.9-1.35,1.35a.46.46,0,0,1-.28.11c-2.07,0-4.15,0-6.22,0H2L3.6,3.9l0,0H2.25V3.27H3.54L2,1.73h.27c2,0,4.07,0,6.1,0a.5.5,0,0,1,.39.16q.62.64,1.26,1.26a.46.46,0,0,0,.27.11q10.28,0,20.53,0H31a1.31,1.31,0,0,1-.13-.16,5.25,5.25,0,0,1-.33-.49.87.87,0,0,1,.38-1.3A2.83,2.83,0,0,1,32.79,1a5.73,5.73,0,0,1,3.77,2.53,5.7,5.7,0,0,1-3.69,2.51,2.88,2.88,0,0,1-1.76-.17,2.36,2.36,0,0,1-.4-.24.74.74,0,0,1-.26-.92A9.1,9.1,0,0,1,31,3.83Z"/><path d="M7.54,21.35c.14.2.27.36.38.54a.92.92,0,0,1-.45,1.49,3.08,3.08,0,0,1-2,.15A5.79,5.79,0,0,1,2,21.08a5.91,5.91,0,0,1,1.65-1.69,4.65,4.65,0,0,1,2.83-.89,2.46,2.46,0,0,1,1.21.35A.85.85,0,0,1,8,20.07a6.53,6.53,0,0,1-.46.71H28a.53.53,0,0,0,.43-.17c.45-.46.91-.91,1.37-1.36a.41.41,0,0,1,.25-.11H36.5l-1.58,1.57,0,.06h1.33v.56H35l1.48,1.47,0,.05-.16,0H30.1a.45.45,0,0,1-.29-.12c-.43-.41-.85-.83-1.26-1.25a.48.48,0,0,0-.37-.15H7.54Z"/><path d="M31.15,4H10.7a.57.57,0,0,0-.44.18c-.45.46-.9.9-1.35,1.34a.42.42,0,0,1-.28.12H2.22L3.8,4.09l0,0H2.45V3.47H3.74L2.2,1.93h.27c2,0,4.07,0,6.1,0A.51.51,0,0,1,9,2.09c.41.43.83.84,1.26,1.26a.46.46,0,0,0,.27.11H31.2l-.13-.16c-.11-.17-.24-.32-.33-.49a.86.86,0,0,1,.38-1.3A2.76,2.76,0,0,1,33,1.22a5.69,5.69,0,0,1,3.77,2.53,5.73,5.73,0,0,1-3.69,2.51,3,3,0,0,1-1.76-.17,2,2,0,0,1-.4-.24.74.74,0,0,1-.26-.92A6.74,6.74,0,0,1,31.15,4Z"/><path d="M7.74,21.55c.14.19.27.36.38.53a.93.93,0,0,1-.46,1.5,3,3,0,0,1-2,.15,5.74,5.74,0,0,1-3.44-2.46,6,6,0,0,1,1.65-1.68,4.72,4.72,0,0,1,2.83-.9,2.47,2.47,0,0,1,1.21.36.85.85,0,0,1,.34,1.22,6.53,6.53,0,0,1-.46.71H28.23a.53.53,0,0,0,.43-.17c.45-.46.91-.91,1.37-1.36a.41.41,0,0,1,.25-.11h6.41l-1.57,1.56,0,.06h1.33v.57H35.24L36.72,23l0,0-.15,0H30.3A.45.45,0,0,1,30,23c-.43-.41-.85-.83-1.26-1.25a.49.49,0,0,0-.37-.16H7.74Z"/></g><g class="cls-3"><path d="M30.81,3.69H10.36a.57.57,0,0,0-.44.18c-.45.46-.9.9-1.35,1.34a.42.42,0,0,1-.28.12H1.88L3.46,3.75l0,0H2.11V3.13H3.4L1.86,1.59h.27c2,0,4.07,0,6.1,0a.51.51,0,0,1,.39.16c.41.43.83.84,1.26,1.26a.46.46,0,0,0,.27.11H30.86L30.73,3c-.11-.17-.24-.32-.33-.49a.86.86,0,0,1,.38-1.3A2.76,2.76,0,0,1,32.65.88a5.69,5.69,0,0,1,3.77,2.53,5.73,5.73,0,0,1-3.69,2.51A3,3,0,0,1,31,5.75a2,2,0,0,1-.4-.24.74.74,0,0,1-.26-.92A6.74,6.74,0,0,1,30.81,3.69Z"/><path d="M7.4,21.21c.14.19.27.36.38.53a.93.93,0,0,1-.46,1.5,3,3,0,0,1-2,.15,5.74,5.74,0,0,1-3.44-2.46,6,6,0,0,1,1.65-1.68,4.72,4.72,0,0,1,2.83-.9,2.47,2.47,0,0,1,1.21.36.85.85,0,0,1,.34,1.22,6.53,6.53,0,0,1-.46.71H27.89a.53.53,0,0,0,.43-.17c.45-.46.91-.91,1.37-1.36a.38.38,0,0,1,.25-.11h6.41l-1.57,1.56,0,.06h1.33v.57H34.9l1.48,1.47,0,0-.15,0H30a.45.45,0,0,1-.29-.12c-.43-.41-.85-.83-1.26-1.25A.49.49,0,0,0,28,21.2H7.4Z"/></g><path class="cls-4" d="M31,3.89H10.56a.52.52,0,0,0-.44.18c-.45.45-.9.9-1.36,1.34a.4.4,0,0,1-.27.12H2.08L3.65,4V3.9H2.31V3.33H3.59L2.06,1.79H8.43A.53.53,0,0,1,8.82,2c.41.43.83.84,1.26,1.25a.42.42,0,0,0,.27.12h20.7l-.12-.17a5.11,5.11,0,0,1-.33-.48A.87.87,0,0,1,31,1.36a2.79,2.79,0,0,1,1.86-.28,5.65,5.65,0,0,1,3.77,2.53,5.72,5.72,0,0,1-3.68,2.51A3,3,0,0,1,31.17,6a2.65,2.65,0,0,1-.4-.24.75.75,0,0,1-.27-.92A8.21,8.21,0,0,1,31,3.89Z"/><path class="cls-4" d="M7.59,21.41a5.49,5.49,0,0,1,.39.53.93.93,0,0,1-.46,1.5,3.11,3.11,0,0,1-2,.15A5.79,5.79,0,0,1,2,21.13a6.35,6.35,0,0,1,1.66-1.69,4.71,4.71,0,0,1,2.83-.89,2.41,2.41,0,0,1,1.2.36.84.84,0,0,1,.35,1.22c-.12.24-.3.45-.46.71H28.09a.54.54,0,0,0,.43-.17c.45-.46.9-.91,1.36-1.36a.43.43,0,0,1,.26-.11h6.41L35,20.77l0,.06h1.33v.57H35.1l1.47,1.47,0,.05h-.15q-3.12,0-6.23,0a.45.45,0,0,1-.29-.12q-.64-.61-1.26-1.26a.48.48,0,0,0-.37-.15H7.59Z"/></g></g></svg>