<svg xmlns="http://www.w3.org/2000/svg" viewBox="0 0 38.55 24.66"><defs><style>.cls-1{isolation:isolate;}.cls-2{opacity:0.15;}.cls-2,.cls-3{mix-blend-mode:multiply;}.cls-4{fill:#fff;}</style></defs><title>convert-CUSTOMIZE-SVG-03</title><g class="cls-1"><g id="Layer_1" data-name="Layer 1"><g class="cls-2"><path d="M10.28,20.74a1.79,1.79,0,0,1,.24.12,1.24,1.24,0,0,0,1.18.07,2.25,2.25,0,0,1,1.85,0l.07,0h0a2.21,2.21,0,0,1,.76-1.18c.6-.64,1.22-1.25,1.78-1.92a12.83,12.83,0,0,0,.89-1.33,4.54,4.54,0,0,1,2.09,3.53c0,.59,0,.6-.53.82a15.85,15.85,0,0,1-4.08,1.22,5.94,5.94,0,0,1-2.78-.2A2.57,2.57,0,0,1,10.28,20.74Z"/><path d="M4.9,15.44a2.51,2.51,0,0,1,1.48-2.22,3.82,3.82,0,0,0,1.41-1,2.52,2.52,0,0,0,.28-.44.58.58,0,0,1,.73-.15.34.34,0,0,1,0,.24,2.43,2.43,0,0,0-.42,1.27,9,9,0,0,0,.15,1c.12.85.26,1.71.35,2.57a3.47,3.47,0,0,1-.15,1.53c0,.09-.05.18-.19.17a5.1,5.1,0,0,1-2.73-1A2.42,2.42,0,0,1,4.9,15.44Z"/><path d="M8,9.43A2.46,2.46,0,0,1,9.53,8.35a6,6,0,0,1,1.85,0,14.59,14.59,0,0,0,1.62,0,1.07,1.07,0,0,0,.89-.53q.06.16.12.3a3.31,3.31,0,0,0,.87,1.4,2.8,2.8,0,0,1,1,1.67,5,5,0,0,1,0,.67l-.25-.14a9.09,9.09,0,0,0-2.4-1,3,3,0,0,0-.74-.06.89.89,0,0,0-.49.16c-.17.14-.29.09-.45,0L8.58,9.6A4.77,4.77,0,0,0,8,9.43Z"/><path d="M14.84,18.79c-.48-1.5-.48-1.5-1.13-2a4.21,4.21,0,0,0-.4-5.06c.37,0,.7,0,1,.07A4.54,4.54,0,0,1,17,13a.29.29,0,0,1,.11.22,9.62,9.62,0,0,1-1.72,5c-.13.17-.28.33-.43.49Z"/><path d="M7.38,9a4.85,4.85,0,0,0-1.69-.34,2.23,2.23,0,0,0-2.47,2.15c0,.28-.05.56-.11.86-.06-.27-.13-.54-.17-.81A3.46,3.46,0,0,1,3.7,8a3.92,3.92,0,0,1,.86-.71c.61-.38,1.25-.72,1.88-1.05.36-.19.76-.31.81-.82l3.43,1.86C9.51,7.76,8.25,8,7.38,9Z"/><path d="M2.9,14.57A4,4,0,0,0,3,15a.8.8,0,0,0,.13.19,27.94,27.94,0,0,0,4.28,4.28c.46.35,1,.66,1.45,1a.24.24,0,0,1,.13.25,3,3,0,0,0,0,.42.54.54,0,0,1-.59.55,2.09,2.09,0,0,1-.7-.15,7.15,7.15,0,0,1-1.95-1.28A.64.64,0,0,1,5.6,20,8.7,8.7,0,0,0,1.28,15.9c-.19-.08-.21-.17-.06-.31a2.35,2.35,0,0,1,.47-.36Z"/><path d="M5.5,13.18A3.29,3.29,0,0,1,8.58,10.6a6,6,0,0,1,2.14.35,8.82,8.82,0,0,0,1.16.23,4.79,4.79,0,0,0,.64,0,4.64,4.64,0,0,1-.5,6.71c.09-.47.21-.94.28-1.41A7.53,7.53,0,0,0,12,12.63a1.62,1.62,0,0,0-1.1-1.11,7.81,7.81,0,0,0-2-.48,2.09,2.09,0,0,0-.71.07,1.58,1.58,0,0,0-.53.35c-.43.43-.83.89-1.27,1.31A1.36,1.36,0,0,1,5.5,13.18Z"/><path d="M9.83,20.63c1.26,1.92,3.06,2.17,5.1,1.7a1.25,1.25,0,0,1-.2.91c0,.05-.15.07-.22.07H6.91a.39.39,0,0,1-.4-.21,4.38,4.38,0,0,1-.67-1.67l.67.36a3.14,3.14,0,0,0,1.27.36,2,2,0,0,0,2-1.3Z"/><path d="M11.68,14a5.1,5.1,0,0,0,0,2.13,1.61,1.61,0,0,1-.86,1.73,4.49,4.49,0,0,1-1.61.53c0-.23.06-.43.08-.63a6.44,6.44,0,0,0-.44-3.42.25.25,0,0,1,0-.22,1.69,1.69,0,0,1,.79-.58.72.72,0,0,1,.61,0A2.46,2.46,0,0,0,11.68,14Z"/><path d="M4.81,9.11a3.39,3.39,0,0,1,3.08.73c-.33.16-.66.32-1,.5a6.13,6.13,0,0,0-1.85,1.55,4.27,4.27,0,0,0-.77,3.76.11.11,0,0,1,0,.12c-.08-.12-.17-.25-.24-.38A4,4,0,0,1,3.66,13a16.43,16.43,0,0,1,.4-1.79,3.87,3.87,0,0,1,.25-.55c.15-.31.32-.62.44-.94A2.87,2.87,0,0,0,4.81,9.11Z"/><path d="M13.78,17.26a2.55,2.55,0,0,1,.1.56c0,.39-.08.78-.12,1.17s-.07.91-.1,1.4c-.53-.64-1.22-.47-1.84-.33a5.52,5.52,0,0,1-4.53-1.18s0,0,0-.07A6.84,6.84,0,0,0,13.78,17.26Z"/><path d="M5.78,23.31H4.05c-.5,0-.5,0-.67-.46A4,4,0,0,1,3.45,20c.1-.3.25-.59.39-.92l1.28,1.26a.19.19,0,0,1,0,.17,4.16,4.16,0,0,0,.62,2.71S5.78,23.28,5.78,23.31Z"/><path d="M3.44,18.49c-.3.65-.62,1.3-.92,2a3.21,3.21,0,0,0-.24.8,8.72,8.72,0,0,0-.06.93C2,22.1,1.71,22,1.45,21.9.87,21.66.87,21.65.87,21V18.09C1.72,18.42,2.53,18.89,3.44,18.49Z"/><path d="M2.63,10.66a17.58,17.58,0,0,0,.06,3.16l-1.06.28s-.11,0-.15-.08-.34-.31-.5-.48a.31.31,0,0,1-.11-.21V10.86c0-.06.06-.16.11-.17A5.68,5.68,0,0,1,2.63,10.66Z"/><path d="M16.35,11.22l.32.3c.31.29.64.56.92.87a8.56,8.56,0,0,1,.66.92.41.41,0,0,1,0,.29q-.26,1.17-.54,2.34a2.3,2.3,0,0,1-.22.48s-.09.07-.14.1a.54.54,0,0,1-.1-.16,3.31,3.31,0,0,1,0-.33,9.06,9.06,0,0,1,.14-1.94,3.29,3.29,0,0,0,0-.94,1,1,0,0,0-.58-.79,4.1,4.1,0,0,1-.4-.23C16,11.89,16,11.55,16.35,11.22Z"/><path d="M.87,16.37a3,3,0,0,1,2.57,1.55,4.79,4.79,0,0,1-1.9-.27c-.67-.23-.67-.23-.67-.93Z"/><path d="M9.61,11.93a1.4,1.4,0,0,1,2,.85.25.25,0,0,1,0,.19,2.74,2.74,0,0,1-.27.35C10.89,12.27,10.74,12.15,9.61,11.93Z"/><path d="M8.76,13.59A2.39,2.39,0,0,1,10,12.2,1.33,1.33,0,0,1,8.76,13.59Z"/><path d="M.88,15.46V14l.63.4a.14.14,0,0,1,0,.14Z"/><path d="M11,13a.66.66,0,0,1-.72-.16A.73.73,0,0,1,11,13Z"/><path d="M10.48,20.94l.24.11a1.24,1.24,0,0,0,1.18.08,2.23,2.23,0,0,1,1.84,0l.08,0h0A2.21,2.21,0,0,1,14.62,20c.59-.64,1.22-1.26,1.78-1.92a12.83,12.83,0,0,0,.89-1.33,4.54,4.54,0,0,1,2.09,3.53c0,.59,0,.59-.53.82a15.85,15.85,0,0,1-4.08,1.22,5.94,5.94,0,0,1-2.78-.2A2.61,2.61,0,0,1,10.48,20.94Z"/><path d="M5.09,15.64a2.56,2.56,0,0,1,1.49-2.23,3.69,3.69,0,0,0,1.41-1A2.52,2.52,0,0,0,8.27,12c.11-.2.57-.31.72-.15a.26.26,0,0,1,0,.23,2.38,2.38,0,0,0-.42,1.27,8.63,8.63,0,0,0,.14,1c.13.86.26,1.72.36,2.58a3.47,3.47,0,0,1-.15,1.53c0,.09-.06.18-.19.17a5.07,5.07,0,0,1-2.73-1A2.46,2.46,0,0,1,5.09,15.64Z"/><path d="M8.15,9.62A2.49,2.49,0,0,1,9.73,8.55a6,6,0,0,1,1.85,0,14.59,14.59,0,0,0,1.62,0A1,1,0,0,0,14.08,8l.13.31a3.44,3.44,0,0,0,.87,1.4,2.85,2.85,0,0,1,1,1.67,5,5,0,0,1,0,.67l-.25-.14a8.83,8.83,0,0,0-2.41-1,3,3,0,0,0-.73-.06.89.89,0,0,0-.49.16c-.17.14-.29.09-.45,0L8.78,9.8C8.59,9.72,8.38,9.69,8.15,9.62Z"/><path d="M15,19c-.48-1.5-.48-1.5-1.13-2A4.19,4.19,0,0,0,13.5,12c.38,0,.7,0,1,.07a4.62,4.62,0,0,1,2.62,1.17.38.38,0,0,1,.11.23,9.67,9.67,0,0,1-1.72,5c-.13.18-.29.33-.43.5Z"/><path d="M7.58,9.21a5.36,5.36,0,0,0-1.7-.34A2.23,2.23,0,0,0,3.42,11c0,.28,0,.56-.11.86a7.78,7.78,0,0,1-.17-.81A3.42,3.42,0,0,1,3.9,8.23a4.27,4.27,0,0,1,.86-.72c.61-.37,1.25-.71,1.88-1,.36-.19.76-.31.81-.82l3.42,1.86C9.71,8,8.45,8.19,7.58,9.21Z"/><path d="M3.09,14.77a3.79,3.79,0,0,0,.13.4.8.8,0,0,0,.13.19,28.26,28.26,0,0,0,4.27,4.27c.47.36,1,.67,1.46,1a.22.22,0,0,1,.12.25c0,.14,0,.28,0,.42a.54.54,0,0,1-.59.55,2.09,2.09,0,0,1-.7-.15,7.15,7.15,0,0,1-1.95-1.28.5.5,0,0,1-.13-.19A8.7,8.7,0,0,0,1.48,16.1c-.19-.09-.21-.17-.06-.31a2.35,2.35,0,0,1,.47-.36Z"/><path d="M5.7,13.38A3.29,3.29,0,0,1,8.78,10.8a6.23,6.23,0,0,1,2.14.34,6.33,6.33,0,0,0,1.15.23,3.59,3.59,0,0,0,.65,0,4.64,4.64,0,0,1-.5,6.71c.09-.47.21-.94.28-1.41a7.52,7.52,0,0,0-.31-3.82,1.62,1.62,0,0,0-1.1-1.11,7.91,7.91,0,0,0-2-.48,2.09,2.09,0,0,0-.71.07,1.33,1.33,0,0,0-.53.35c-.43.43-.83.89-1.27,1.31A1.36,1.36,0,0,1,5.7,13.38Z"/><path d="M10,20.83c1.25,1.92,3.05,2.17,5.1,1.7a1.25,1.25,0,0,1-.2.91s-.15.06-.22.06H11.49c-1.46,0-2.92,0-4.39,0a.42.42,0,0,1-.39-.21A4.45,4.45,0,0,1,6,21.63l.67.36A3.14,3.14,0,0,0,8,22.35a2,2,0,0,0,1.95-1.3Z"/><path d="M11.87,14.16a5.27,5.27,0,0,0,0,2.13A1.61,1.61,0,0,1,11,18a4.48,4.48,0,0,1-1.61.52c0-.22.06-.42.08-.63A6.42,6.42,0,0,0,9,14.5a.24.24,0,0,1,0-.23,1.64,1.64,0,0,1,.79-.57.72.72,0,0,1,.61,0A2.45,2.45,0,0,0,11.87,14.16Z"/><path d="M5,9.31A3.4,3.4,0,0,1,8.09,10c-.33.16-.67.32-1,.5a6,6,0,0,0-1.85,1.55,4.27,4.27,0,0,0-.77,3.76.14.14,0,0,1,0,.12c-.08-.13-.17-.25-.24-.38a4,4,0,0,1-.36-2.39,15.92,15.92,0,0,1,.4-1.79,3.87,3.87,0,0,1,.25-.55c.15-.31.32-.62.44-.94A2.36,2.36,0,0,0,5,9.31Z"/><path d="M14,17.46a2.46,2.46,0,0,1,.1.56c0,.39-.08.78-.12,1.17s-.07.91-.1,1.4c-.54-.64-1.22-.47-1.84-.33a5.56,5.56,0,0,1-4.53-1.18s0,0,0-.07A6.9,6.9,0,0,0,14,17.46Z"/><path d="M6,23.51H4.25c-.5,0-.5,0-.68-.47a4.06,4.06,0,0,1,.08-2.81c.1-.3.25-.59.39-.92.45.44.87.84,1.28,1.26a.23.23,0,0,1,0,.17A4.17,4.17,0,0,0,6,23.45Z"/><path d="M3.64,18.69c-.3.64-.62,1.29-.92,2a3.21,3.21,0,0,0-.24.8,8.71,8.71,0,0,0-.06.92,6,6,0,0,1-.77-.27c-.58-.24-.58-.25-.58-.87V18.29C1.92,18.62,2.73,19.09,3.64,18.69Z"/><path d="M2.83,10.86A17.6,17.6,0,0,0,2.89,14l-1.06.28c-.05,0-.11,0-.15-.08a5.79,5.79,0,0,1-.51-.48.35.35,0,0,1-.1-.21V11.06a.23.23,0,0,1,.1-.17A5.43,5.43,0,0,1,2.83,10.86Z"/><path d="M16.55,11.42l.32.3c.31.29.64.56.92.87a8.56,8.56,0,0,1,.66.92.38.38,0,0,1,0,.28c-.17.79-.35,1.57-.54,2.35a2.3,2.3,0,0,1-.22.48s-.09.07-.14.1a.54.54,0,0,1-.1-.16,1.86,1.86,0,0,1,0-.33,9,9,0,0,1,.14-1.94,3.78,3.78,0,0,0,0-.95,1,1,0,0,0-.58-.78,3.18,3.18,0,0,1-.4-.23C16.23,12.09,16.21,11.75,16.55,11.42Z"/><path d="M1.07,16.57a3,3,0,0,1,2.57,1.54,4.86,4.86,0,0,1-1.91-.26c-.66-.23-.66-.23-.66-.93Z"/><path d="M9.8,12.13a1.41,1.41,0,0,1,2,.85.25.25,0,0,1,0,.19,4.29,4.29,0,0,1-.28.35C11.09,12.47,10.94,12.35,9.8,12.13Z"/><path d="M9,13.79a2.36,2.36,0,0,1,1.2-1.39A1.33,1.33,0,0,1,9,13.79Z"/><path d="M1.08,15.66V14.23l.63.4a.14.14,0,0,1,0,.14Z"/><path d="M11.18,13.24a.65.65,0,0,1-.72-.17A.76.76,0,0,1,11.18,13.24Z"/></g><g class="cls-3"><path d="M10.14,20.6l.24.11a1.24,1.24,0,0,0,1.18.08,2.23,2.23,0,0,1,1.84,0l.08,0h0a2.21,2.21,0,0,1,.76-1.18c.59-.64,1.22-1.26,1.78-1.92A12.83,12.83,0,0,0,17,16.43,4.54,4.54,0,0,1,19,20c0,.59,0,.59-.53.82A15.85,15.85,0,0,1,14.43,22a5.94,5.94,0,0,1-2.78-.2A2.61,2.61,0,0,1,10.14,20.6Z"/><path d="M4.75,15.3a2.56,2.56,0,0,1,1.49-2.23,3.58,3.58,0,0,0,1.4-1,2.09,2.09,0,0,0,.29-.44c.11-.2.57-.31.72-.15a.26.26,0,0,1,0,.23A2.38,2.38,0,0,0,8.23,13a8.63,8.63,0,0,0,.14,1c.13.86.26,1.72.36,2.58a3.62,3.62,0,0,1-.15,1.53c0,.09-.06.18-.2.17a5.07,5.07,0,0,1-2.72-1A2.46,2.46,0,0,1,4.75,15.3Z"/><path d="M7.81,9.28A2.49,2.49,0,0,1,9.39,8.21a6,6,0,0,1,1.85,0,14.59,14.59,0,0,0,1.62,0,1,1,0,0,0,.88-.54l.13.31a3.44,3.44,0,0,0,.87,1.4,2.85,2.85,0,0,1,1,1.67,5,5,0,0,1,0,.67l-.25-.14a8.83,8.83,0,0,0-2.41-1,3,3,0,0,0-.73-.06.89.89,0,0,0-.49.16c-.17.14-.29.09-.45,0L8.44,9.46C8.25,9.38,8,9.35,7.81,9.28Z"/><path d="M14.7,18.65c-.48-1.5-.48-1.5-1.13-2a4.19,4.19,0,0,0-.41-5.06c.38,0,.7,0,1,.07a4.56,4.56,0,0,1,2.61,1.17.35.35,0,0,1,.12.23,9.67,9.67,0,0,1-1.72,5c-.13.18-.29.33-.43.5Z"/><path d="M7.24,8.87a5.36,5.36,0,0,0-1.7-.34,2.23,2.23,0,0,0-2.46,2.16c0,.28-.05.56-.11.86a7.78,7.78,0,0,1-.17-.81,3.42,3.42,0,0,1,.76-2.85,4.27,4.27,0,0,1,.86-.72c.61-.37,1.24-.71,1.88-1,.36-.19.76-.31.81-.82l3.42,1.86C9.37,7.62,8.11,7.85,7.24,8.87Z"/><path d="M2.75,14.43a3.79,3.79,0,0,0,.13.4A.8.8,0,0,0,3,15a28.26,28.26,0,0,0,4.27,4.27c.47.36,1,.67,1.46,1a.22.22,0,0,1,.12.25c0,.14,0,.28,0,.42a.54.54,0,0,1-.59.55,2.09,2.09,0,0,1-.7-.15,7.15,7.15,0,0,1-1.95-1.28.5.5,0,0,1-.13-.19,8.7,8.7,0,0,0-4.32-4.12c-.19-.09-.21-.18-.06-.31a2.35,2.35,0,0,1,.47-.36C2,14.85,2.37,14.64,2.75,14.43Z"/><path d="M5.36,13a3.29,3.29,0,0,1,3.08-2.58,6.23,6.23,0,0,1,2.14.34,6.33,6.33,0,0,0,1.15.23,3.59,3.59,0,0,0,.65,0,4.64,4.64,0,0,1-.5,6.71c.09-.47.21-.94.28-1.41a7.52,7.52,0,0,0-.31-3.82,1.62,1.62,0,0,0-1.1-1.11,7.91,7.91,0,0,0-2-.48,2.09,2.09,0,0,0-.71.07,1.33,1.33,0,0,0-.53.35c-.43.43-.83.89-1.27,1.31A1.36,1.36,0,0,1,5.36,13Z"/><path d="M9.69,20.49c1.25,1.92,3.05,2.17,5.1,1.7a1.25,1.25,0,0,1-.2.91s-.15.06-.22.06H11.15c-1.46,0-2.92,0-4.39,0A.42.42,0,0,1,6.37,23a4.45,4.45,0,0,1-.67-1.67l.67.36A3.14,3.14,0,0,0,7.64,22a2,2,0,0,0,2-1.3Z"/><path d="M11.53,13.82a5.27,5.27,0,0,0,0,2.13,1.61,1.61,0,0,1-.86,1.73,4.48,4.48,0,0,1-1.61.52c0-.22.06-.42.08-.63a6.42,6.42,0,0,0-.44-3.41.26.26,0,0,1,0-.23,1.71,1.71,0,0,1,.8-.57.72.72,0,0,1,.61,0A2.45,2.45,0,0,0,11.53,13.82Z"/><path d="M4.66,9a3.4,3.4,0,0,1,3.09.73c-.33.16-.67.32-1,.5a6,6,0,0,0-1.85,1.55,4.27,4.27,0,0,0-.77,3.76.14.14,0,0,1,0,.12c-.08-.13-.17-.25-.24-.38a4,4,0,0,1-.36-2.39,15.92,15.92,0,0,1,.4-1.79,3.87,3.87,0,0,1,.25-.55c.15-.31.32-.62.44-.94A2.36,2.36,0,0,0,4.66,9Z"/><path d="M13.64,17.12a3.16,3.16,0,0,1,.1.56c0,.39-.08.78-.12,1.17s-.07.91-.11,1.4c-.53-.64-1.21-.47-1.83-.33a5.56,5.56,0,0,1-4.53-1.18s0,0-.05-.07A6.9,6.9,0,0,0,13.64,17.12Z"/><path d="M5.64,23.17H3.91c-.5,0-.5,0-.68-.47a4.06,4.06,0,0,1,.08-2.81c.1-.3.25-.59.39-.92.45.44.87.84,1.28,1.26a.29.29,0,0,1,0,.17,4.17,4.17,0,0,0,.62,2.71Z"/><path d="M3.3,18.35c-.3.64-.62,1.29-.92,2a3.21,3.21,0,0,0-.24.8,8.71,8.71,0,0,0-.06.92,8,8,0,0,1-.77-.27c-.58-.24-.58-.25-.58-.87V18C1.58,18.28,2.39,18.75,3.3,18.35Z"/><path d="M2.48,10.52a19.67,19.67,0,0,0,.06,3.16l-1,.28c-.05,0-.11,0-.16-.08S1,13.57.83,13.4a.35.35,0,0,1-.1-.21V10.72a.23.23,0,0,1,.1-.17A5.37,5.37,0,0,1,2.48,10.52Z"/><path d="M16.21,11.08l.32.3c.31.29.64.56.92.87a8.56,8.56,0,0,1,.66.92.38.38,0,0,1,0,.28c-.17.79-.35,1.57-.54,2.35a2.3,2.3,0,0,1-.22.48s-.1.07-.14.1a.54.54,0,0,1-.1-.16,1.86,1.86,0,0,1,0-.33A9,9,0,0,1,17.24,14a3.78,3.78,0,0,0,0-.95,1,1,0,0,0-.58-.78c-.13-.08-.28-.14-.4-.23C15.89,11.75,15.87,11.41,16.21,11.08Z"/><path d="M.73,16.23A3,3,0,0,1,3.3,17.77a4.86,4.86,0,0,1-1.91-.26c-.66-.23-.66-.23-.66-.93Z"/><path d="M9.46,11.79a1.41,1.41,0,0,1,2,.85.25.25,0,0,1,0,.19,4.29,4.29,0,0,1-.28.35C10.75,12.13,10.6,12,9.46,11.79Z"/><path d="M8.61,13.45a2.41,2.41,0,0,1,1.21-1.39A1.33,1.33,0,0,1,8.61,13.45Z"/><path d="M.74,15.32V13.89l.63.4a.14.14,0,0,1,0,.14Z"/><path d="M10.84,12.9a.65.65,0,0,1-.72-.17A.76.76,0,0,1,10.84,12.9Z"/></g><path class="cls-4" d="M10.34,20.79l.24.12a1.24,1.24,0,0,0,1.18.08,2.19,2.19,0,0,1,1.84,0l.08,0h0a2.26,2.26,0,0,1,.75-1.17c.6-.64,1.22-1.26,1.79-1.92a14,14,0,0,0,.89-1.33,4.53,4.53,0,0,1,2.09,3.53c0,.59,0,.59-.53.82a15.44,15.44,0,0,1-4.08,1.21A5.86,5.86,0,0,1,11.84,22,2.61,2.61,0,0,1,10.34,20.79Z"/><path class="cls-4" d="M5,15.5a2.56,2.56,0,0,1,1.49-2.23,3.65,3.65,0,0,0,1.4-1,2.39,2.39,0,0,0,.29-.44c.11-.2.57-.31.72-.15a.24.24,0,0,1,0,.23,2.45,2.45,0,0,0-.41,1.27,7.14,7.14,0,0,0,.14,1c.12.86.26,1.72.36,2.58a3.73,3.73,0,0,1-.15,1.52c0,.1-.06.19-.2.17a5,5,0,0,1-2.72-1A2.43,2.43,0,0,1,5,15.5Z"/><path class="cls-4" d="M8,9.48A2.46,2.46,0,0,1,9.59,8.41a6,6,0,0,1,1.85,0c.54,0,1.08,0,1.62,0a1.05,1.05,0,0,0,.88-.54,3.21,3.21,0,0,1,.12.31,3.36,3.36,0,0,0,.88,1.39,2.81,2.81,0,0,1,1,1.68,4.83,4.83,0,0,1,0,.67l-.26-.14a8.77,8.77,0,0,0-2.4-1,3,3,0,0,0-.73-.06.82.82,0,0,0-.49.16c-.17.14-.29.09-.45,0L8.64,9.66A5.79,5.79,0,0,0,8,9.48Z"/><path class="cls-4" d="M14.9,18.85c-.48-1.5-.49-1.51-1.13-2a4.19,4.19,0,0,0-.41-5.06c.38,0,.7,0,1,.07A4.56,4.56,0,0,1,17,13.05a.35.35,0,0,1,.12.23,9.76,9.76,0,0,1-1.72,5c-.13.18-.29.33-.43.49Z"/><path class="cls-4" d="M7.44,9.07a5.41,5.41,0,0,0-1.7-.34,2.25,2.25,0,0,0-2.47,2.16,6.39,6.39,0,0,1-.11.85c-.05-.26-.13-.53-.16-.8a3.39,3.39,0,0,1,.76-2.85,4.5,4.5,0,0,1,.85-.72c.62-.37,1.25-.71,1.89-1,.36-.19.76-.31.81-.82l3.42,1.85C9.57,7.82,8.31,8,7.44,9.07Z"/><path class="cls-4" d="M3,14.62a4.06,4.06,0,0,0,.13.41.8.8,0,0,0,.13.19,28.26,28.26,0,0,0,4.27,4.27c.47.35,1,.67,1.46,1a.23.23,0,0,1,.12.26c0,.14,0,.28,0,.42a.54.54,0,0,1-.59.55,2.09,2.09,0,0,1-.7-.15,7.23,7.23,0,0,1-1.95-1.28.59.59,0,0,1-.13-.19A8.72,8.72,0,0,0,1.34,16c-.19-.08-.22-.17-.06-.31a2.73,2.73,0,0,1,.47-.35C2.15,15.05,2.57,14.83,3,14.62Z"/><path class="cls-4" d="M5.56,13.24a3.3,3.3,0,0,1,3.08-2.59,6.53,6.53,0,0,1,2.14.35,6.33,6.33,0,0,0,1.15.23,2.89,2.89,0,0,0,.65,0,4.64,4.64,0,0,1-.51,6.71c.1-.46.21-.93.28-1.4a7.52,7.52,0,0,0-.3-3.82A1.62,1.62,0,0,0,11,11.58a7.91,7.91,0,0,0-2-.48,2.09,2.09,0,0,0-.71.07,1.33,1.33,0,0,0-.53.35c-.43.43-.83.89-1.27,1.3A1.32,1.32,0,0,1,5.56,13.24Z"/><path class="cls-4" d="M9.89,20.69c1.25,1.92,3,2.16,5.1,1.7a1.32,1.32,0,0,1-.2.91c0,.05-.15.06-.23.06H11.35c-1.47,0-2.93,0-4.39,0a.42.42,0,0,1-.39-.21,4.29,4.29,0,0,1-.67-1.67l.67.36a3.14,3.14,0,0,0,1.27.36,2,2,0,0,0,1.95-1.3Z"/><path class="cls-4" d="M11.73,14a5.1,5.1,0,0,0,0,2.13,1.6,1.6,0,0,1-.87,1.73,4.55,4.55,0,0,1-1.61.52c0-.23.07-.43.09-.63a6.42,6.42,0,0,0-.44-3.41.26.26,0,0,1,0-.23,1.65,1.65,0,0,1,.8-.57.73.73,0,0,1,.61,0A2.45,2.45,0,0,0,11.73,14Z"/><path class="cls-4" d="M4.86,9.17A3.39,3.39,0,0,1,8,9.89c-.33.17-.67.32-1,.51A5.89,5.89,0,0,0,5.11,12a4.24,4.24,0,0,0-.77,3.76.2.2,0,0,1,0,.12c-.08-.13-.17-.25-.24-.38a3.88,3.88,0,0,1-.36-2.39,15.92,15.92,0,0,1,.4-1.79,3.87,3.87,0,0,1,.25-.55,9.8,9.8,0,0,0,.43-.94A2,2,0,0,0,4.86,9.17Z"/><path class="cls-4" d="M13.84,17.32a2.41,2.41,0,0,1,.09.55c0,.4-.08.79-.11,1.18s-.07.91-.11,1.39c-.53-.64-1.21-.46-1.83-.32a5.55,5.55,0,0,1-4.53-1.18s0,0,0-.07A6.9,6.9,0,0,0,13.84,17.32Z"/><path class="cls-4" d="M5.83,23.37H4.11c-.5,0-.5,0-.68-.47a4,4,0,0,1,.08-2.81c.1-.3.24-.59.38-.92l1.29,1.25a.34.34,0,0,1,0,.18,4.11,4.11,0,0,0,.62,2.71A.21.21,0,0,1,5.83,23.37Z"/><path class="cls-4" d="M3.5,18.55c-.31.64-.63,1.29-.92,1.95a3.8,3.8,0,0,0-.25.81,8.81,8.81,0,0,0-.05.92c-.23-.08-.51-.16-.78-.27-.58-.25-.57-.25-.57-.87V18.15C1.78,18.48,2.59,18.94,3.5,18.55Z"/><path class="cls-4" d="M2.68,10.72a19.67,19.67,0,0,0,.06,3.16l-1.06.28s-.11,0-.15-.08-.34-.31-.5-.48a.35.35,0,0,1-.1-.21c0-.82,0-1.65,0-2.47a.23.23,0,0,1,.1-.17A5.37,5.37,0,0,1,2.68,10.72Z"/><path class="cls-4" d="M16.41,11.28l.32.29c.31.29.63.57.91.88a7.74,7.74,0,0,1,.67.92.44.44,0,0,1,0,.28c-.17.79-.35,1.57-.55,2.35a2.26,2.26,0,0,1-.21.48s-.1.06-.15.1a.51.51,0,0,1-.09-.16,1.86,1.86,0,0,1,0-.33,9.69,9.69,0,0,1,.13-1.94,3.78,3.78,0,0,0,0-1,1,1,0,0,0-.58-.78c-.14-.08-.28-.14-.41-.23C16.09,12,16.07,11.61,16.41,11.28Z"/><path class="cls-4" d="M.93,16.43A3,3,0,0,1,3.5,18a4.86,4.86,0,0,1-1.91-.26c-.66-.23-.66-.23-.66-.93Z"/><path class="cls-4" d="M9.66,12a1.41,1.41,0,0,1,2,.84.25.25,0,0,1,0,.19,4.39,4.39,0,0,1-.28.36C11,12.33,10.8,12.21,9.66,12Z"/><path class="cls-4" d="M8.81,13.65A2.41,2.41,0,0,1,10,12.26,1.34,1.34,0,0,1,8.81,13.65Z"/><path class="cls-4" d="M.93,15.52V14.09l.64.4a.14.14,0,0,1,0,.14Z"/><path class="cls-4" d="M11,13.1a.65.65,0,0,1-.72-.17A.76.76,0,0,1,11,13.1Z"/></g></g></svg>