<svg xmlns="http://www.w3.org/2000/svg" viewBox="0 0 38.55 24.66"><defs><style>.cls-1{isolation:isolate;}.cls-2{opacity:0.15;}.cls-2,.cls-3{mix-blend-mode:multiply;}.cls-4{fill:#fff;}</style></defs><title>convert-FIX-SVG-03</title><g class="cls-1"><g id="Layer_1" data-name="Layer 1"><g class="cls-2"><path d="M15.78,11.31s.06-.09,0-.13c-.06-.2.06-.26.21-.26a6,6,0,0,1,.85,0c1,.16,2,.31,2.93.51a5.46,5.46,0,0,1,1.71.76.44.44,0,0,1,.24.46c-.08.43-.18.85-.26,1.28,0,.15-.05.31-.07.49.28-.07.36.09.41.27A2.34,2.34,0,0,1,21.77,16c-.07.31-.11.64-.39.82a1.1,1.1,0,0,1,0,.28,2,2,0,0,1-2.14,1.06.17.17,0,0,0-.22.1,3.44,3.44,0,0,1-.27.42,1.48,1.48,0,0,1-.1.38A2.28,2.28,0,0,1,17,20.17,2.15,2.15,0,0,1,15.84,20a1.53,1.53,0,0,1-.34-.26l-.77.13a8.71,8.71,0,0,1,.56,2.79H15c0-.35-.06-.71-.13-1.06-.13-.55-.29-1.1-.45-1.65,0-.08-.11-.13-.2-.19a7.71,7.71,0,0,1-.72,2.54c.2,0,.17.18.12.28s-.15.08-.24.09H13a13.25,13.25,0,0,0,.6-1.41,12,12,0,0,0,.29-1.45c0-.19-.06-.24-.23-.22a24.17,24.17,0,0,1-4.08,0c-.61-.06-1.21-.21-1.81-.31a.28.28,0,0,0-.15,0s0,0-.07,0c-.25,0-.41.09-.59.31-.07-.17-.13-.3-.19-.43a.89.89,0,0,0,0-.14c-.1-.26,0-.37.22-.43l.37,0,.25-.76c-.15.17-.46.2-.38.53a2.46,2.46,0,0,0-.41.13,2.43,2.43,0,0,0-.2.14,1.07,1.07,0,0,1-.23.07l.15.31-.09.44.33,0c0,.16,0,.38.31.36a5.28,5.28,0,0,1-.79,1.87A1.56,1.56,0,0,1,6,22c-.13.07-.26.1-.28-.13l-.39.06.42.75H5.26l-.48-1.34L3.19,23.67h0c.09-.25.17-.51.27-.76s0-.21-.11-.26l-.19-.08a.4.4,0,0,1-.33-.41.82.82,0,0,0-.38-.47A.48.48,0,0,1,2.2,21a.29.29,0,0,1,0-.1.94.94,0,0,0,0-.77c-.07-.19,0-.26.19-.3l1.77-.48a.39.39,0,0,0,.21-.08A.18.18,0,0,0,4.32,19c-.15,0-.3,0-.44,0s-.31-.22-.13-.43a1,1,0,0,1,.11-.1,3,3,0,0,1-.79-3.14,6.68,6.68,0,0,1,1.46-2.56l.26-.29s0,0,0-.05a4.32,4.32,0,0,1-1.43-1.79A6.21,6.21,0,0,1,2.94,7.7c0-.32.07-.65.09-1A.34.34,0,0,0,3,6.52a3,3,0,0,1-.88-2.88,2.07,2.07,0,0,1,1-1.2,4.18,4.18,0,0,1,2.06-.63,2.34,2.34,0,0,1,1.84.84.22.22,0,0,0,.25.09,6.74,6.74,0,0,1,4.39.19.26.26,0,0,0,.36-.09,2,2,0,0,1,2.19-.59,4.91,4.91,0,0,1,1.85.9,1.88,1.88,0,0,1,.65,2,3.66,3.66,0,0,1-.81,1.83.23.23,0,0,0,0,.16,7.46,7.46,0,0,1-.57,3.7v0Zm-3.79,1a2.08,2.08,0,0,1,.06-.24c.11-.21.24-.42.35-.62a1.6,1.6,0,0,1,.89-.75,2.59,2.59,0,0,1,1.38-.07c.23.05.29,0,.36-.21a7.36,7.36,0,0,0,.45-3.32c0-.07-.07-.13-.12-.2a2.5,2.5,0,0,1-.43-.73,1.45,1.45,0,0,0-.33-.64,5.71,5.71,0,0,0-1.36-1.23,10.87,10.87,0,0,1-1.41-.9,2.38,2.38,0,0,0-1-.45A4.15,4.15,0,0,0,10,2.81a4.6,4.6,0,0,0-3.48.63,2.28,2.28,0,0,1-1.1.62s0,0-.07.06A7.14,7.14,0,0,0,4,5.68a1.52,1.52,0,0,1-.6.75s-.07.11-.08.17c0,.3-.09.59-.11.89a6.36,6.36,0,0,0,.39,3A4.41,4.41,0,0,0,6.68,13a15.41,15.41,0,0,0,4,.27.83.83,0,0,0,.7-.47A.73.73,0,0,1,12,12.35Zm-.74.92-.2.17a11.73,11.73,0,0,0-1.68,1.84,11.57,11.57,0,0,0-1.65,3.2.47.47,0,0,0,.35.64c.42.09.84.17,1.27.22a25.78,25.78,0,0,0,3.93,0l.16,0c-.21-.28-.42-.53-.61-.8a.56.56,0,0,1,0-.72.14.14,0,0,0,0-.11,2.1,2.1,0,0,1-.06-.79c0-.43-.05-.86-.06-1.29a.22.22,0,0,0-.18-.23,1.77,1.77,0,0,1-1.13-1.12A7.7,7.7,0,0,1,11.25,13.27ZM3.88,14.35a4.68,4.68,0,0,1,1.3-.78,3.87,3.87,0,0,1,1.39-.28c-.45-.21-.93-.44-1.42-.65a.2.2,0,0,0-.17,0,6.45,6.45,0,0,0-1.71,3A2.67,2.67,0,0,0,3.8,18c.05.05.15.12.2.1a1.76,1.76,0,0,1,1.35.08l.54.22a.82.82,0,0,0-.08-1.15,1.57,1.57,0,0,1-.22-.38c-.1-.23-.06-.28.19-.32A2.5,2.5,0,0,1,6,16.47l.62-.09a8.26,8.26,0,0,0,.5-2.14L8,14.05a2.24,2.24,0,0,0-1.16-.46,3.78,3.78,0,0,0-2.75,1ZM3.6,5.94c-.7-.79-.78-1.4-.28-2a1.51,1.51,0,0,1,2.23-.21L6.79,3A2.09,2.09,0,0,0,5.42,2.1a3.51,3.51,0,0,0-2.3.61A1.77,1.77,0,0,0,2.27,4a3,3,0,0,0,.84,2.34ZM13.23,4a1.32,1.32,0,0,1,.92-.44,1.46,1.46,0,0,1,1.22.64,1.11,1.11,0,0,1,0,1.64.35.35,0,0,0-.05.5c.05.08.1.16.16.24s.18.16.29,0a3.65,3.65,0,0,0,.65-1.83,1.53,1.53,0,0,0-.72-1.52,10,10,0,0,0-1-.55,2.67,2.67,0,0,0-1.39-.27A1.66,1.66,0,0,0,12,3.22ZM6.16,19.4c-.44.05-.9.07-1.35.16-.7.14-1.4.33-2.09.5a.28.28,0,0,0-.13.15c.14.17.06.34,0,.5s-.09.28-.13.42a.23.23,0,0,0,.1.3c.25.2.54.39.54.77,0,0,.06.08.1.09a4.28,4.28,0,0,0,.43.19c.12-.16.24-.34.37-.5a6.81,6.81,0,0,1,2.07-2.17C6.25,19.71,6.29,19.61,6.16,19.4Zm15.15-5.67c.05-.35.12-.69.16-1a.3.3,0,0,0-.14-.24A11.11,11.11,0,0,0,20,11.81a13.41,13.41,0,0,0-2.58-.52c-.24,0-.49-.06-.73-.09l0,.06c.27.34.54.7.82,1,0,0,.16,0,.24,0a3.08,3.08,0,0,1,.61,0,1.62,1.62,0,0,1,.6.34,1.79,1.79,0,0,0,1.22.47A1.53,1.53,0,0,1,21.31,13.73ZM16.78,17.6a1.07,1.07,0,0,1-1.32.56,1.55,1.55,0,0,1-1-1.71,1.32,1.32,0,0,0-.23.83,1.49,1.49,0,0,0,.86,1.58,2.51,2.51,0,0,0,1.53.13.5.5,0,0,0,.26-.13A1.07,1.07,0,0,0,16.78,17.6Zm-6.33-4.05-2.94-.07A1.88,1.88,0,0,1,8.7,15.69Zm1.88-1.3c.35.31.42.29.77,0a6.55,6.55,0,0,1,.81-.57.69.69,0,0,1,.67,0,.63.63,0,0,0,.7-.13c.17-.13.17-.19,0-.31a2.22,2.22,0,0,0-1.26-.3,1.5,1.5,0,0,0-1.51,1A3.48,3.48,0,0,1,12.33,12.25Zm.85,5.17c.47.06.54,0,.63-.43a5.82,5.82,0,0,1,.3-.89.68.68,0,0,1,.54-.44.57.57,0,0,0,.46-.44c.07-.22,0-.29-.23-.27a2.23,2.23,0,0,0-1.5.78,1.35,1.35,0,0,0-.31.7A5.56,5.56,0,0,0,13.18,17.42Zm.71-5.28a1.35,1.35,0,0,0-.26.15A5.77,5.77,0,0,0,13,13a1.47,1.47,0,0,0,.48,2.13.17.17,0,0,0,.14,0,2.47,2.47,0,0,1,1.46-.45V14.5a5,5,0,0,1-.86,0,1.2,1.2,0,0,1-.81-1.28A2.15,2.15,0,0,1,13.89,12.14Zm2.49,4.28v.09a2.29,2.29,0,0,1,.89.91,2.46,2.46,0,0,1,.11,1.26,2.13,2.13,0,0,0,.36-.49,2,2,0,0,0,.2-1.54c-.12-.35-.34-.53-.66-.47A9.36,9.36,0,0,0,16.38,16.42ZM16.43,13a1.38,1.38,0,0,0-1.22-.94,1.43,1.43,0,0,0-1.26.82A1.09,1.09,0,0,0,14.22,14c0-.1-.06-.18-.08-.27a.63.63,0,0,1,.54-.84,2.22,2.22,0,0,1,.63,0C15.68,12.88,16.05,13,16.43,13ZM17,15.73a1.31,1.31,0,0,0-2.1.79,1,1,0,0,0,.89,1.21,1.92,1.92,0,0,1-.21-.16.6.6,0,0,1-.07-1,3.35,3.35,0,0,1,.57-.42C16.35,16,16.66,15.88,17,15.73Zm-4.34-2.85c-.21-.08-.4-.18-.6-.24a.32.32,0,0,0-.44.34,3.93,3.93,0,0,0,0,.84,1.55,1.55,0,0,0,.9,1.27,1.77,1.77,0,0,0,.33.08l0-.07a1.68,1.68,0,0,1-.65-1,.84.84,0,0,1,.21-.91A1.69,1.69,0,0,0,12.64,12.88Zm2.76,6.55,0-.05-.2,0a1.82,1.82,0,0,1-1.09-.55.73.73,0,0,1-.24-.65c0-.11,0-.23,0-.39a3.82,3.82,0,0,0-.59.12c-.29.09-.37.29-.19.54a5.08,5.08,0,0,0,.64.75,1.53,1.53,0,0,0,1.43.39A1.05,1.05,0,0,0,15.4,19.43Zm.23-4.52c.34,0,.66.06,1,.12a2,2,0,0,1,1.83,1.51,2.94,2.94,0,0,0,.07-.65,1.08,1.08,0,0,0-1-1,6.85,6.85,0,0,1-1.27-.28c-.39-.14-.33-.26-.58.21A.42.42,0,0,0,15.63,14.91Zm3.74-.08v.07a1.67,1.67,0,0,1,.86,1.89,2.74,2.74,0,0,0,.39-.65A1.47,1.47,0,0,0,20.67,15a.47.47,0,0,0-.56-.37C19.86,14.68,19.61,14.77,19.37,14.83Zm-1,4.13c-.31-.08-.52-.08-.64.07a1.2,1.2,0,0,1-1.29.39.58.58,0,0,0-.26,0,.74.74,0,0,0-.24.11c-.13.1-.12.19,0,.26A1.9,1.9,0,0,0,18.33,19Zm-.52-5.65c-.09-.2-.12-.42-.25-.54a4.07,4.07,0,0,1-1.12-1.32s-.12-.1-.16-.08-.28.13-.43.2a4.26,4.26,0,0,1,1.45,1.89Zm.9.14a12.62,12.62,0,0,1,1.44.35,1.39,1.39,0,0,1,1,1.08,1,1,0,0,0-.86-1.39,5.15,5.15,0,0,1-1.08-.26c-.29-.1-.28-.13-.42.15A.24.24,0,0,1,18.71,13.45Zm-.51.14a1.71,1.71,0,0,0-1.61.88,5.43,5.43,0,0,0,.56.09.34.34,0,0,0,.2-.08,2.83,2.83,0,0,1,.45-.32A.52.52,0,0,0,18.2,13.59Zm-.11,1.15.33.28c.23-.16.43-.32.66-.45s.47-.22.71-.33A1.1,1.1,0,0,0,18.09,14.74Zm0,3.74a.53.53,0,0,0,.67-.42,8.65,8.65,0,0,0,.22-1,4.6,4.6,0,0,0,0-.65A9.42,9.42,0,0,0,18.1,18.48Zm-2.42-4.29.64.09.36-.43a1.35,1.35,0,0,0-1.17-.55Zm3.46,3.63A1.59,1.59,0,0,0,21,17.07a.57.57,0,0,0-.63.17.79.79,0,0,1-.82.26C19.19,17.44,19.19,17.44,19.14,17.82Zm1.69-1.2c.35,0,.48-.07.57-.34a2.75,2.75,0,0,0,.11-.41,1.81,1.81,0,0,0,0-1Zm-1.53.51a1.52,1.52,0,0,0,.41-.15.89.89,0,0,0,0-1.06c-.13.13-.27.25-.39.38s0,.08,0,.13C19.27,16.64,19.28,16.86,19.3,17.13ZM5.14,21.49,6.34,20,6.27,20c-.36.3-.72.6-1.07.91A.41.41,0,0,0,5.14,21.49Zm13.28-8.12.28-.47a1.21,1.21,0,0,0-.84-.31l.21.68Zm-3.23.18c-.15-.08-.24-.17-.34-.16s-.16.11-.24.17l.3.32Zm1,3.81c.08-.09.16-.15.16-.2s0-.3-.21-.31-.32.09-.3.22S16,17.25,16.17,17.36ZM5.88,19.15v0L4.75,19c0,.23.06.25.23.23Zm11.06-5.47a.77.77,0,0,0-.18-.72l-.07.45Zm2.33,1.89c0-.15,0-.33-.18-.33s-.25.14-.24.18S19.08,15.57,19.27,15.57Zm-1.82,0c-.1.47.32.29.43.47l0,0Zm2.71-1.53.06.3.34.06,0,0Z"/><path d="M7.16,20.11c0-.34.07-.47.3-.54a.47.47,0,0,1,.53.24c.24.34.48.69.72,1,.12.17.1.29-.07.4s-.36.18-.42.4a.32.32,0,0,1-.19,0A1.88,1.88,0,0,1,7.16,20.11Z"/><path d="M20.57,6.8c-.2.22-.38.43-.59.62a.36.36,0,0,1-.44.11c-.17-.09-.17-.25-.16-.4a5.12,5.12,0,0,1,.14-.68c.11-.34.23-.68.35-1,0-.06.1-.1.15-.15s.12.12.13.19a.57.57,0,0,1-.06.25c-.14.41-.29.81-.41,1.23a.7.7,0,0,0,0,.35,1.08,1.08,0,0,0,.3-.16A3.69,3.69,0,0,0,20.76,6c0-.07.13-.18.16-.17S21,6,21,6.07a1.55,1.55,0,0,0-.1.93.94.94,0,0,0,.12.22.64.64,0,0,0,.22-.14,3.57,3.57,0,0,0,.58-1.54,1,1,0,0,1,.07-.31c0-.07.11-.11.17-.16s.08.14.07.2a3.44,3.44,0,0,1-.81,2c-.28.31-.56.23-.67-.18C20.6,7,20.59,6.9,20.57,6.8Z"/><path d="M25.47,6.49c.4-.09.77-.16,1.13-.25,0,0,.09-.11.11-.17.07-.22.11-.45.19-.67s.14-.2.2-.19.13.16.09.27a4,4,0,0,1-.23.87,3.78,3.78,0,0,0-.27.89c0,.08-.12.13-.18.19a.68.68,0,0,1-.09-.22c0-.21.06-.42.1-.65h-.16a5.19,5.19,0,0,1-.65.17.52.52,0,0,0-.49.48c0,.11,0,.29-.19.24s-.07-.21,0-.32c.19-.62.39-1.24.59-1.87,0-.06.1-.1.15-.15s.08.15.06.21c-.08.32-.18.64-.27,1A1.88,1.88,0,0,1,25.47,6.49Z"/><path d="M32.3,5.39a.39.39,0,0,1,.55.16.93.93,0,0,1,0,.87,1.52,1.52,0,0,1-1.2,1A.6.6,0,0,1,31,6.65a2.32,2.32,0,0,1,1-1.31c.08-.06.24,0,.36,0Zm-.68,1.8a1.29,1.29,0,0,0,1.1-1.33.54.54,0,0,0,0-.1c-.08-.22-.25-.26-.45-.13a.68.68,0,0,1-.15,0c-.07,0-.15,0-.19,0a2.36,2.36,0,0,0-.67,1C31.13,7,31.29,7.18,31.62,7.19Z"/><path d="M29.91,6.54a6,6,0,0,0,.84-1.33c0-.07.13-.12.19-.18a.58.58,0,0,1,.09.26.52.52,0,0,1-.13.28c-.52.68-1,1.35-1.57,2a.71.71,0,0,1-.15.15A1,1,0,0,1,29,7.8c0-.08,0-.18,0-.23a5.67,5.67,0,0,1,.48-.5c.14-.15.21-.25.08-.48a6.36,6.36,0,0,1-.39-1.11c0-.08.07-.19.1-.28s.18.1.21.18.1.4.16.61.12.36.18.55Z"/><path d="M33.28,6.85c0-.09.07-.27.12-.44s.16-.6.25-.89c0-.08.12-.13.18-.19s.13.18.11.26a3.22,3.22,0,0,1-.16.5,4.79,4.79,0,0,0-.2.81c0,.28.16.43.41.3a1.7,1.7,0,0,0,.57-.46A2.2,2.2,0,0,0,35,5.5a1.6,1.6,0,0,1,0-.23s0-.1.09-.1.09,0,.11.07a.4.4,0,0,1,.05.24,2.52,2.52,0,0,1-1,1.83.91.91,0,0,1-.3.14C33.59,7.56,33.28,7.33,33.28,6.85Z"/><path d="M23.09,7.1l.15.05a.91.91,0,0,0,1.19-.57c.05-.16,0-.22-.18-.24a3.2,3.2,0,0,1-.44,0c-.14,0-.32-.1-.38-.21a.45.45,0,0,1,.06-.4A1.55,1.55,0,0,1,24.54,5a.66.66,0,0,1,.33.07s.06.11.05.16-.1.06-.14.05c-.5-.14-.78.2-1.07.5-.12.13,0,.25.14.26a3.19,3.19,0,0,1,.54,0,.37.37,0,0,1,.27.55,1.3,1.3,0,0,1-1,.8,1.15,1.15,0,0,1-.5-.12c-.06,0-.09-.14-.14-.22Z"/><path d="M25.18,8.35a2.74,2.74,0,0,1-.07.5c-.11.34-.24.67-.38,1a.74.74,0,0,1-.24.26c-.16.13-.28.1-.36-.1A2.79,2.79,0,0,1,24,9.67a4.91,4.91,0,0,1-.41.48c-.08.07-.25.13-.31.09a.4.4,0,0,1-.14-.32c.11-.45.24-.9.37-1.36,0,0,.06-.06.08-.05s.09,0,.09.07a.83.83,0,0,1,0,.27c-.09.31-.21.62-.3.94a.87.87,0,0,0,.05.31c.08-.06.19-.1.24-.18.18-.27.33-.57.49-.85,0-.06,0-.13.08-.19h.08a1.93,1.93,0,0,1,0,.24c0,.23-.06.46-.07.69,0,.07,0,.14.08.27.1-.11.2-.18.23-.27.13-.36.24-.73.36-1.1l.12-.39Z"/><path d="M35.07,10.19a.5.5,0,0,1,0-.21c.11-.42.24-.83.36-1.25,0-.05.08-.13.12-.13a.22.22,0,0,1,.17.09,2.26,2.26,0,0,1,.13.33l.33.88h.09l.41-1.57h.06c0,.1.08.2.06.29-.12.45-.25.89-.39,1.33a.29.29,0,0,1-.2.19S36,10.05,36,10c-.15-.35-.29-.71-.44-1.08l-.4,1.3Z"/><path d="M19,8.81c-.15-.21-.3-.14-.46,0a1.47,1.47,0,0,0-.6.72.34.34,0,0,0,.1.42c.13.11.26.06.39,0a1,1,0,0,0,.48-.56l-.46.18a.31.31,0,0,1-.15,0s.05-.12.09-.13a2.46,2.46,0,0,1,.48-.16c.16,0,.25.06.22.23a1.13,1.13,0,0,1-.95.73.46.46,0,0,1-.39-.64,1.51,1.51,0,0,1,1-1,.42.42,0,0,1,.29.05s0,.13,0,.2Z"/><path d="M34.91,9.05a1.16,1.16,0,0,1-.94,1.1.45.45,0,0,1-.5-.62,1.56,1.56,0,0,1,.69-.93.74.74,0,0,1,.53,0C34.88,8.65,34.91,8.86,34.91,9.05Zm-.17.06c0-.19,0-.38-.21-.39a.62.62,0,0,0-.42.15,2.57,2.57,0,0,0-.43.64.44.44,0,0,0,0,.38.53.53,0,0,0,.43,0A1,1,0,0,0,34.74,9.11Z"/><path d="M33.3,9.08a1.16,1.16,0,0,1-.94,1.07.46.46,0,0,1-.5-.63,1.56,1.56,0,0,1,.69-.92.8.8,0,0,1,.53,0C33.24,8.63,33.31,8.83,33.3,9.08Zm-.17,0c0-.16,0-.33-.2-.34a.56.56,0,0,0-.42.13,2.92,2.92,0,0,0-.44.66c0,.1,0,.31,0,.36a.47.47,0,0,0,.4.06A1,1,0,0,0,33.13,9.07Z"/><path d="M25.78,8.6l.42,0c.16,0,.31-.12.52,0l-.21.09a2.41,2.41,0,0,1-.37.07c-.35,0-.46.27-.51.6l.74-.21,0,0a.61.61,0,0,1-.15.13l-.48.2c-.28.11-.28.11-.31.5l.81-.26a.68.68,0,0,1,0,.13l-.86.26s-.14-.1-.13-.14c.15-.48.31-.95.47-1.43l0,0Z"/><path d="M19.44,10l.79-.26,0,.05a.75.75,0,0,1-.16.15,5.39,5.39,0,0,1-.66.18c-.19,0-.26-.05-.21-.23.12-.4.24-.79.38-1.18,0-.11.07-.26.26-.13s.22,0,.34,0,.3-.13.48,0l-.21.08-.41.09c-.32.08-.4.19-.45.58l.73-.21,0,.06a1.67,1.67,0,0,1-.16.12,2.26,2.26,0,0,1-.49.19C19.48,9.56,19.45,9.74,19.44,10Z"/><path d="M30.43,9.9c.48.14.72,0,.93-.34.09-.17,0-.26-.16-.26s-.15,0-.21,0-.24,0-.29-.11a.35.35,0,0,1,0-.3,1.19,1.19,0,0,1,.8-.54.23.23,0,0,1,.18,0s.06.08.09.12-.1,0-.14,0a.83.83,0,0,0-.77.45s.06.14.11.16.16,0,.23,0a.61.61,0,0,1,.34.13.38.38,0,0,1,0,.33.83.83,0,0,1-1,.49.79.79,0,0,1-.18-.14Z"/><path d="M23.06,5.35a1.91,1.91,0,0,1-.06.21c-.15.55-.31,1.1-.46,1.64,0,0,0,.1,0,.12a.93.93,0,0,1-.19.11c0-.06-.08-.13-.06-.18.09-.4.19-.8.29-1.19a5.79,5.79,0,0,1,.21-.71.29.29,0,0,1,.18-.14S23,5.3,23.06,5.35Z"/><path d="M20.7,8.82c.28-.09.56-.2.85-.27a1.62,1.62,0,0,1,.54,0c.05,0,.1.06.16.1l-.16.06c-.16,0-.36-.05-.47,0s-.12.28-.16.43-.13.53-.21.79c0,.07-.09.12-.14.18a.56.56,0,0,1,0-.22c.07-.31.15-.61.23-.92l0-.18c-.23,0-.4.21-.61.16Z"/><path d="M28.23,10l.92-.38c.08.13,0,.19-.11.23a5.61,5.61,0,0,1-.65.23c-.27.09-.41,0-.36-.32,0-.11.07-.22.1-.32.08-.28.15-.56.24-.83,0-.05.07-.09.11-.14a.7.7,0,0,1,.09.17.51.51,0,0,1,0,.2c-.09.29-.17.58-.26.87A2.89,2.89,0,0,0,28.23,10Z"/><path d="M27.85,9.69c-.05.07-.09.16-.16.19a3.35,3.35,0,0,1-.63.22.38.38,0,0,1-.32,0,.43.43,0,0,1,0-.32c0-.19.13-.38.18-.56s.09-.37.15-.55.07-.08.11-.12a.6.6,0,0,1,.09.15.87.87,0,0,1,0,.22c-.09.29-.17.58-.26.87a2.6,2.6,0,0,0,0,.28l.92-.38Z"/><path d="M12.55,10.12a2.82,2.82,0,0,1-1.74,2.57A3.81,3.81,0,0,1,6.66,12a2.35,2.35,0,0,1-.77-1.79A3.81,3.81,0,0,1,6,9.15a2.35,2.35,0,0,1,1.6-1.69,4.55,4.55,0,0,1,3.23,0A2.63,2.63,0,0,1,12.55,10.12Zm-6.39,0A2.14,2.14,0,0,0,7,12a3.48,3.48,0,0,0,3.72.47,2.61,2.61,0,0,0,1.54-2.55,2.36,2.36,0,0,0-1.85-2.25,4.34,4.34,0,0,0-2.62,0A2.28,2.28,0,0,0,6.16,10.07Z"/><path d="M6.29,8.05a2.56,2.56,0,0,1-.16.4.45.45,0,0,1-.77,0,.76.76,0,0,1-.09-.78.51.51,0,0,1,.47-.37.53.53,0,0,1,.47.37C6.24,7.79,6.26,7.9,6.29,8.05Z"/><path d="M13.21,8a3.25,3.25,0,0,1-.11.37.47.47,0,0,1-.89,0,.79.79,0,0,1,0-.73.47.47,0,0,1,.89,0C13.15,7.75,13.17,7.88,13.21,8Z"/><path d="M10.62,10l-1,.78a.47.47,0,0,0,0,.77c.37.24.37.24.73,0l.36-.25.28.33-1,.67a.23.23,0,0,1-.16,0l-.56-.39a.16.16,0,0,0-.24,0c-.19.13-.38.26-.58.38a.2.2,0,0,1-.2,0l-1-.63.28-.35c.21.15.41.3.61.42a.33.33,0,0,0,.22,0c.05,0,.09-.07.14-.09a.49.49,0,0,0,.31-.59.43.43,0,0,0-.12-.22l-1-.84c.13-.16.25-.33.39-.48a.25.25,0,0,1,.15,0h1.88a.29.29,0,0,1,.2.11A4,4,0,0,1,10.62,10Z"/><path d="M16,11.5s.06-.08,0-.12c-.06-.2.06-.27.21-.27a4.85,4.85,0,0,1,.85.05c1,.16,2,.31,2.93.51a5.57,5.57,0,0,1,1.71.76.44.44,0,0,1,.24.46c-.08.42-.18.85-.26,1.28,0,.15-.05.31-.07.49.28-.07.36.09.41.26A2.38,2.38,0,0,1,22,16.16c-.07.31-.11.64-.39.82a.77.77,0,0,1,0,.28,2,2,0,0,1-2.13,1.06.17.17,0,0,0-.22.1,3.44,3.44,0,0,1-.27.42,1.6,1.6,0,0,1-.1.38,2.28,2.28,0,0,1-1.62,1.15A2.18,2.18,0,0,1,16,20.22,1.44,1.44,0,0,1,15.7,20l-.77.13a9.11,9.11,0,0,1,.56,2.8h-.26a9.62,9.62,0,0,0-.14-1.06c-.12-.55-.28-1.1-.44-1.65,0-.08-.11-.14-.21-.19a7.46,7.46,0,0,1-.71,2.54c.2,0,.17.18.12.28s-.15.08-.24.09h-.37a12.57,12.57,0,0,0,.6-1.42A13.57,13.57,0,0,0,14.12,20c0-.19,0-.24-.22-.22a25.27,25.27,0,0,1-4.08,0c-.61-.05-1.21-.2-1.81-.3a.45.45,0,0,0-.16,0s0,.05-.06.05c-.25-.05-.41.09-.59.31-.07-.17-.13-.3-.19-.43s0-.1,0-.14c-.1-.26-.05-.37.22-.43l.36,0,.25-.76c-.14.17-.45.2-.37.53a2.46,2.46,0,0,0-.41.13c-.07,0-.13.1-.2.13A1,1,0,0,1,6.6,19l.15.31-.09.44.33,0c0,.16,0,.38.31.35a5.25,5.25,0,0,1-.79,1.88,2.33,2.33,0,0,1-.35.27c-.13.07-.26.09-.28-.13l-.39.06.42.75H5.46L5,21.55,3.39,23.87h0c.09-.25.17-.51.27-.76s0-.21-.11-.26l-.19-.08A.4.4,0,0,1,3,22.35a.74.74,0,0,0-.37-.47.48.48,0,0,1-.23-.65.29.29,0,0,1,0-.1.9.9,0,0,0,0-.77c-.06-.19,0-.27.19-.31l1.78-.47c.07,0,.16,0,.2-.08a.18.18,0,0,0-.12-.29,3.13,3.13,0,0,1-.44,0c-.26-.05-.31-.21-.13-.42a1,1,0,0,1,.11-.1,3,3,0,0,1-.79-3.14,6.79,6.79,0,0,1,1.46-2.57L5,12.66l0-.05a4.31,4.31,0,0,1-1.43-1.79A6.22,6.22,0,0,1,3.14,7.9c0-.33.07-.65.09-1a.36.36,0,0,0-.09-.21,3,3,0,0,1-.87-2.88,2.07,2.07,0,0,1,1-1.2A4.15,4.15,0,0,1,5.28,2a2.34,2.34,0,0,1,1.84.84.22.22,0,0,0,.25.09,6.68,6.68,0,0,1,4.39.19A.26.26,0,0,0,12.11,3a2,2,0,0,1,2.2-.59,4.91,4.91,0,0,1,1.85.9,1.88,1.88,0,0,1,.65,2A3.66,3.66,0,0,1,16,7.14a.2.2,0,0,0,0,.15A7.5,7.5,0,0,1,15.39,11v0Zm-3.79,1.05a1.31,1.31,0,0,1,.06-.25c.11-.21.24-.41.35-.62a1.62,1.62,0,0,1,.89-.74,2.59,2.59,0,0,1,1.38-.07c.23.05.29,0,.36-.21a7.51,7.51,0,0,0,.45-3.32c0-.07-.07-.14-.12-.2a2.79,2.79,0,0,1-.44-.73,1.34,1.34,0,0,0-.32-.64,5.71,5.71,0,0,0-1.36-1.23A14.81,14.81,0,0,1,12,3.64a2.29,2.29,0,0,0-1-.45A4.17,4.17,0,0,0,10.21,3a4.63,4.63,0,0,0-3.49.64,2.2,2.2,0,0,1-1.09.62s0,0-.07,0A7.19,7.19,0,0,0,4.22,5.88a1.45,1.45,0,0,1-.6.74c-.05,0-.07.12-.08.18,0,.3-.09.59-.11.88a6.22,6.22,0,0,0,.39,3,4.38,4.38,0,0,0,3.06,2.52,15.83,15.83,0,0,0,4,.27.84.84,0,0,0,.7-.48A.72.72,0,0,1,12.19,12.55Zm-.74.92-.2.17a10.87,10.87,0,0,0-1.68,1.84,11.38,11.38,0,0,0-1.65,3.19.47.47,0,0,0,.35.65,10.85,10.85,0,0,0,1.27.21,24.53,24.53,0,0,0,3.93,0l.16,0c-.21-.28-.42-.53-.61-.8A.57.57,0,0,1,13,18s.05-.08,0-.11a1.86,1.86,0,0,1-.06-.78c0-.43,0-.86-.07-1.29a.22.22,0,0,0-.17-.24,1.72,1.72,0,0,1-1.13-1.11A7.7,7.7,0,0,1,11.45,13.47ZM4.08,14.55a4.78,4.78,0,0,1,1.29-.78,4.22,4.22,0,0,1,1.4-.29c-.45-.2-.93-.43-1.42-.64a.19.19,0,0,0-.18,0,6.47,6.47,0,0,0-1.7,3A2.67,2.67,0,0,0,4,18.19s.15.12.19.1a1.78,1.78,0,0,1,1.36.08l.54.22A.82.82,0,0,0,6,17.44a1.57,1.57,0,0,1-.22-.38c-.1-.24-.06-.28.19-.32a2.5,2.5,0,0,1,.26-.07l.62-.1a8.58,8.58,0,0,0,.49-2.14l.82-.19A2.33,2.33,0,0,0,7,13.78a3.83,3.83,0,0,0-2.75,1ZM3.8,6.14c-.7-.79-.78-1.4-.28-2A1.5,1.5,0,0,1,5.75,4L7,3.16a2.11,2.11,0,0,0-1.37-.87,3.68,3.68,0,0,0-2.31.61,1.82,1.82,0,0,0-.84,1.27,3,3,0,0,0,.84,2.34Zm9.63-1.91a1.26,1.26,0,0,1,.91-.44,1.49,1.49,0,0,1,1.23.63,1.13,1.13,0,0,1-.05,1.65.36.36,0,0,0-.06.5l.17.24c.09.14.18.16.28,0A3.57,3.57,0,0,0,16.57,5a1.55,1.55,0,0,0-.72-1.52c-.33-.2-.67-.39-1-.56a2.7,2.7,0,0,0-1.4-.26,1.63,1.63,0,0,0-1.26.78ZM6.36,19.59c-.44.05-.9.08-1.35.17-.71.14-1.4.32-2.09.5-.06,0-.14.14-.13.15.14.17.06.33,0,.5s-.09.28-.14.42a.25.25,0,0,0,.11.3c.25.2.53.39.54.77,0,0,.06.07.09.09l.44.19.37-.51A7,7,0,0,1,6.27,20C6.44,19.91,6.48,19.8,6.36,19.59ZM21.5,13.92c.06-.34.13-.68.17-1a.32.32,0,0,0-.14-.24A11.86,11.86,0,0,0,20.18,12a13.41,13.41,0,0,0-2.58-.52l-.74-.09,0,0c.27.35.54.71.82,1.05,0,.05.15.05.23.05a3.13,3.13,0,0,1,.62,0,1.38,1.38,0,0,1,.6.34,1.84,1.84,0,0,0,1.21.47A1.54,1.54,0,0,1,21.5,13.92ZM17,17.8a1.08,1.08,0,0,1-1.32.56,1.55,1.55,0,0,1-1-1.71,1.32,1.32,0,0,0-.23.83,1.49,1.49,0,0,0,.85,1.58,2.61,2.61,0,0,0,1.54.13.53.53,0,0,0,.26-.13A1.07,1.07,0,0,0,17,17.8Zm-6.33-4.06L7.7,13.67a1.9,1.9,0,0,1,1.2,2.22Zm1.87-1.29c.36.31.43.29.78,0a6.55,6.55,0,0,1,.81-.57.72.72,0,0,1,.67,0,.61.61,0,0,0,.7-.12c.17-.14.17-.19,0-.31a2.22,2.22,0,0,0-1.26-.3,1.49,1.49,0,0,0-1.51,1A3.69,3.69,0,0,1,12.52,12.45Zm.85,5.17c.48.06.55,0,.64-.43a4.66,4.66,0,0,1,.3-.89.68.68,0,0,1,.53-.44.54.54,0,0,0,.46-.44c.08-.23,0-.29-.22-.27a2.21,2.21,0,0,0-1.5.78,1.35,1.35,0,0,0-.31.7A5.63,5.63,0,0,0,13.37,17.62Zm.72-5.28a1.35,1.35,0,0,0-.26.15,5.1,5.1,0,0,0-.61.7,1.46,1.46,0,0,0,.47,2.12.17.17,0,0,0,.15,0,2.4,2.4,0,0,1,1.46-.45V14.7a4.15,4.15,0,0,1-.86,0,1.18,1.18,0,0,1-.81-1.28A2.15,2.15,0,0,1,14.09,12.34Zm2.49,4.28v.08a2.38,2.38,0,0,1,.89.92,2.35,2.35,0,0,1,.1,1.26,1.92,1.92,0,0,0,.37-.49,2,2,0,0,0,.19-1.55.56.56,0,0,0-.66-.46A7.49,7.49,0,0,0,16.58,16.62Zm.05-3.41a1.37,1.37,0,0,0-1.23-.94,1.42,1.42,0,0,0-1.25.82,1.09,1.09,0,0,0,.27,1.09c0-.1-.06-.19-.08-.27a.63.63,0,0,1,.54-.84,2.64,2.64,0,0,1,.63,0C15.88,13.08,16.24,13.15,16.63,13.21Zm.54,2.72a1.31,1.31,0,0,0-2.1.79,1,1,0,0,0,.9,1.21l-.21-.16a.6.6,0,0,1-.07-1,2.33,2.33,0,0,1,.57-.42C16.55,16.21,16.86,16.08,17.17,15.93Zm-4.33-2.85c-.22-.09-.4-.18-.6-.24a.32.32,0,0,0-.44.33,4.83,4.83,0,0,0,0,.85,1.6,1.6,0,0,0,.9,1.27,1.28,1.28,0,0,0,.34.07l0-.06a1.68,1.68,0,0,1-.65-1,.84.84,0,0,1,.21-.91A2.45,2.45,0,0,0,12.84,13.08Zm2.76,6.55,0-.05-.2,0A1.87,1.87,0,0,1,14.29,19a.73.73,0,0,1-.24-.65c0-.12,0-.23,0-.39a3.82,3.82,0,0,0-.59.12c-.29.09-.37.29-.19.53a4.68,4.68,0,0,0,.64.76,1.56,1.56,0,0,0,1.43.39A1.58,1.58,0,0,0,15.6,19.63Zm.23-4.52c.34,0,.65.06,1,.12a2,2,0,0,1,1.84,1.51,3,3,0,0,0,.07-.66,1.08,1.08,0,0,0-1-1,6.85,6.85,0,0,1-1.27-.28c-.4-.14-.34-.27-.58.21A.42.42,0,0,0,15.83,15.11ZM19.56,15v.07A1.65,1.65,0,0,1,20.42,17a2.78,2.78,0,0,0,.4-.65,1.52,1.52,0,0,0,.05-1.13.47.47,0,0,0-.56-.37A6.87,6.87,0,0,0,19.56,15Zm-1,4.13c-.31-.08-.52-.08-.64.07a1.19,1.19,0,0,1-1.3.38.7.7,0,0,0-.25,0,.48.48,0,0,0-.24.11c-.13.1-.12.19,0,.26A1.91,1.91,0,0,0,18.53,19.16ZM18,13.5a1.53,1.53,0,0,0-.24-.53,4.17,4.17,0,0,1-1.12-1.32c0-.05-.12-.1-.16-.08a3.26,3.26,0,0,0-.43.2,4.26,4.26,0,0,1,1.45,1.89Zm.91.15c.5.11,1,.19,1.44.34a1.4,1.4,0,0,1,.95,1.09,1,1,0,0,0-.86-1.4,4.46,4.46,0,0,1-1.08-.25c-.29-.1-.28-.13-.42.15C18.92,13.61,18.92,13.64,18.91,13.65Zm-.51.14a1.71,1.71,0,0,0-1.61.88c.19,0,.37.07.56.09a.34.34,0,0,0,.2-.08,2,2,0,0,1,.45-.32A.53.53,0,0,0,18.4,13.79Zm-.12,1.15.34.28c.23-.16.43-.32.66-.45s.47-.22.71-.34A1.12,1.12,0,0,0,18.28,14.94Zm0,3.74a.53.53,0,0,0,.67-.42c.09-.33.16-.67.22-1a4.69,4.69,0,0,0,0-.65A9.38,9.38,0,0,0,18.3,18.68Zm-2.42-4.29.64.09.35-.43a1.31,1.31,0,0,0-1.16-.55ZM19.34,18a1.59,1.59,0,0,0,1.85-.75.56.56,0,0,0-.63.17.81.81,0,0,1-.82.26C19.39,17.64,19.39,17.64,19.34,18ZM21,16.82c.35,0,.48-.07.57-.34s.08-.27.11-.41a1.72,1.72,0,0,0,0-1Zm-1.53.51a1.66,1.66,0,0,0,.41-.15.89.89,0,0,0,0-1.06l-.39.37a.2.2,0,0,0,0,.13C19.47,16.84,19.48,17.06,19.5,17.33ZM5.34,21.69l1.19-1.46-.07-.07-1.07.9A.43.43,0,0,0,5.34,21.69Zm13.28-8.12.28-.47a1.21,1.21,0,0,0-.84-.31l.2.68Zm-3.23.17c-.15-.07-.25-.16-.34-.16s-.16.11-.24.17l.3.33Zm1,3.82c.08-.09.16-.15.16-.2s0-.3-.21-.31-.32.09-.3.22S16.22,17.45,16.37,17.56ZM6.07,19.35v0L5,19.23c0,.23,0,.24.23.22Zm11.07-5.47a.77.77,0,0,0-.18-.72l-.07.45Zm2.33,1.89c0-.15,0-.33-.19-.33s-.24.14-.23.17C19.11,15.79,19.28,15.77,19.47,15.77Zm-1.82,0c-.1.48.32.3.42.48l.05-.05Zm2.71-1.52.06.3.33.06,0,0Z"/><path d="M7.36,20.31c0-.34.07-.47.3-.54a.47.47,0,0,1,.53.24l.72,1c.12.17.1.29-.07.4s-.36.18-.42.4a.35.35,0,0,1-.2,0A1.91,1.91,0,0,1,7.36,20.31Z"/><path d="M20.77,7c-.2.22-.39.43-.59.62a.37.37,0,0,1-.44.11.36.36,0,0,1-.16-.41,5.32,5.32,0,0,1,.14-.67c.11-.35.23-.68.35-1,0-.06.1-.1.15-.15a.8.8,0,0,1,.13.19.53.53,0,0,1-.06.24c-.14.42-.29.82-.42,1.24a.9.9,0,0,0,.05.35,1.08,1.08,0,0,0,.3-.16A3.87,3.87,0,0,0,21,6.17c0-.07.12-.18.16-.17s.09.16.06.26a1.5,1.5,0,0,0-.1.93,1,1,0,0,0,.12.23,1.18,1.18,0,0,0,.22-.14A3.56,3.56,0,0,0,22,5.73a1,1,0,0,1,.07-.3c0-.07.11-.11.17-.16s.08.14.07.2a3.23,3.23,0,0,1-.37,1.33,2.9,2.9,0,0,1-.44.69c-.28.31-.57.22-.67-.18C20.8,7.21,20.79,7.1,20.77,7Z"/><path d="M25.67,6.68c.4-.08.76-.15,1.13-.24.05,0,.09-.11.11-.17.07-.22.11-.45.19-.67s.14-.2.2-.19.12.15.09.27a3.49,3.49,0,0,1-.24.87,3.49,3.49,0,0,0-.26.89c0,.08-.12.13-.19.19s-.09-.15-.08-.23.06-.41.1-.64h-.16c-.22.05-.43.14-.65.17a.52.52,0,0,0-.49.48c0,.1,0,.29-.2.24s-.07-.21,0-.32c.19-.62.38-1.25.59-1.87,0-.06.1-.1.15-.15s.08.15.06.21c-.08.32-.18.64-.27,1C25.71,6.54,25.69,6.59,25.67,6.68Z"/><path d="M32.49,5.59a.39.39,0,0,1,.56.16.93.93,0,0,1,0,.87,1.55,1.55,0,0,1-1.21,1,.6.6,0,0,1-.71-.78,2.32,2.32,0,0,1,1-1.31c.08-.06.23,0,.35,0Zm-.67,1.79a1.27,1.27,0,0,0,1.1-1.32l0-.1a.27.27,0,0,0-.45-.14.25.25,0,0,1-.15,0c-.07,0-.15,0-.19,0a2.21,2.21,0,0,0-.67,1C31.33,7.19,31.49,7.38,31.82,7.38Z"/><path d="M30.11,6.73A6,6,0,0,0,31,5.41c0-.08.13-.12.19-.18s.1.18.09.26a.6.6,0,0,1-.13.28c-.52.68-1,1.35-1.57,2a.71.71,0,0,1-.15.15A1,1,0,0,1,29.2,8c0-.08,0-.18,0-.23s.31-.34.47-.51a.33.33,0,0,0,.09-.48,5.83,5.83,0,0,1-.39-1.11c0-.07.06-.18.1-.27s.18.1.2.18a5.9,5.9,0,0,1,.17.6c0,.19.12.37.18.56Z"/><path d="M33.48,7.05c0-.09.07-.27.12-.45s.16-.59.25-.88c0-.08.12-.13.18-.19s.13.18.11.26-.12.33-.16.5a4.36,4.36,0,0,0-.2.81c0,.28.16.42.41.3a1.81,1.81,0,0,0,.57-.46,2.23,2.23,0,0,0,.47-1.24,1.6,1.6,0,0,1,0-.23.19.19,0,0,1,.08-.11.19.19,0,0,1,.12.07.56.56,0,0,1,0,.25,2.54,2.54,0,0,1-1,1.83.91.91,0,0,1-.3.14C33.78,7.76,33.48,7.53,33.48,7.05Z"/><path d="M23.28,7.29l.16.06a.91.91,0,0,0,1.19-.57c.05-.16-.05-.23-.18-.24a3.2,3.2,0,0,1-.44,0c-.14,0-.32-.1-.38-.21a.48.48,0,0,1,.05-.4,1.64,1.64,0,0,1,1.06-.69.8.8,0,0,1,.33.08s.06.11.05.16-.1.06-.14,0c-.5-.14-.79.2-1.07.5-.12.13,0,.25.14.26a3.19,3.19,0,0,1,.54,0,.36.36,0,0,1,.27.55,1.3,1.3,0,0,1-1,.8,1.15,1.15,0,0,1-.5-.12c-.06,0-.09-.14-.14-.22Z"/><path d="M25.38,8.55a2.87,2.87,0,0,1-.07.5,9.4,9.4,0,0,1-.39,1,.71.71,0,0,1-.23.26c-.16.13-.28.1-.36-.1a3.37,3.37,0,0,1-.09-.34,3.9,3.9,0,0,1-.42.48c-.07.07-.24.13-.3.09a.37.37,0,0,1-.14-.32c.1-.46.24-.91.37-1.36,0,0,.06-.06.08,0a.16.16,0,0,1,.09.07.74.74,0,0,1,0,.26c-.1.32-.21.63-.3,1a.87.87,0,0,0,.05.31c.08-.06.19-.1.24-.18.18-.28.33-.57.49-.86,0,0,.05-.12.08-.18h.07a1.94,1.94,0,0,1,0,.24c0,.23-.06.46-.07.69a.67.67,0,0,0,.08.27c.1-.12.2-.18.23-.27.13-.37.24-.74.36-1.1,0-.13.08-.26.11-.4Z"/><path d="M35.27,10.39a.76.76,0,0,1,0-.21c.12-.42.24-.83.37-1.25,0,0,.08-.13.12-.13a.24.24,0,0,1,.17.09,3.24,3.24,0,0,1,.13.33c.11.3.22.59.32.88h.1l.41-1.56h.06c0,.1.08.2.06.29-.12.45-.25.89-.39,1.33a.34.34,0,0,1-.2.19s-.16-.08-.19-.16c-.15-.35-.29-.7-.44-1.07l-.4,1.3Z"/><path d="M19.2,9c-.15-.2-.31-.13-.46,0a1.42,1.42,0,0,0-.6.72.34.34,0,0,0,.1.42c.13.11.26.06.39,0a1,1,0,0,0,.48-.56,4.51,4.51,0,0,1-.46.17s-.1,0-.15,0,0-.12.08-.14l.48-.15c.16,0,.26.06.23.23a1.13,1.13,0,0,1-.95.73A.47.47,0,0,1,18,9.71a1.52,1.52,0,0,1,1-1,.49.49,0,0,1,.29.06s0,.13,0,.2Z"/><path d="M35.11,9.25a1.16,1.16,0,0,1-.94,1.1.46.46,0,0,1-.5-.63,1.56,1.56,0,0,1,.69-.92.74.74,0,0,1,.53,0C35.08,8.85,35.11,9.06,35.11,9.25Zm-.17.06c0-.19,0-.38-.21-.39a.61.61,0,0,0-.42.14,2.82,2.82,0,0,0-.43.65c-.05.1,0,.33,0,.38a.53.53,0,0,0,.43,0A1,1,0,0,0,34.94,9.31Z"/><path d="M33.5,9.27a1.16,1.16,0,0,1-.94,1.08.46.46,0,0,1-.5-.63,1.56,1.56,0,0,1,.69-.92.8.8,0,0,1,.53,0C33.44,8.82,33.5,9,33.5,9.27Zm-.17,0c0-.16,0-.33-.2-.35a.57.57,0,0,0-.42.14,2.72,2.72,0,0,0-.44.66c-.05.1,0,.31,0,.36a.46.46,0,0,0,.4.06A1,1,0,0,0,33.33,9.27Z"/><path d="M26,8.8l.43,0c.15,0,.31-.12.52,0a1.19,1.19,0,0,1-.21.08,2.74,2.74,0,0,1-.37.08c-.35,0-.47.27-.51.6l.73-.21,0,.05a.93.93,0,0,1-.15.13L26,9.7c-.28.12-.28.12-.3.51l.81-.27c0,.08,0,.13,0,.14l-.85.26s-.14-.11-.13-.14c.15-.48.31-.95.47-1.43l0,0Z"/><path d="M19.64,10.22l.78-.27,0,.06c-.06.05-.1.12-.16.14a3.93,3.93,0,0,1-.67.19c-.18,0-.25-.05-.2-.23.12-.4.24-.79.37-1.18,0-.11.08-.26.27-.13s.22,0,.34-.05.3-.13.48,0l-.21.07c-.13,0-.27.06-.41.09-.32.09-.4.2-.45.58l.73-.2,0,.06a1.67,1.67,0,0,1-.16.12,2.26,2.26,0,0,1-.49.19C19.67,9.76,19.65,9.94,19.64,10.22Z"/><path d="M30.62,10.1c.49.13.73.05.94-.34.09-.18,0-.26-.17-.26s-.14,0-.2,0-.24,0-.29-.11a.32.32,0,0,1,0-.3,1.21,1.21,0,0,1,.8-.55.38.38,0,0,1,.18,0,.43.43,0,0,1,.09.13l-.14,0a.84.84,0,0,0-.77.44.22.22,0,0,0,.11.17c.06,0,.15,0,.22,0a.61.61,0,0,1,.35.13.36.36,0,0,1,0,.32.83.83,0,0,1-1,.5.84.84,0,0,1-.18-.15Z"/><path d="M23.26,5.54c0,.1,0,.16-.06.22-.15.55-.31,1.1-.46,1.64,0,0,0,.1,0,.12a.67.67,0,0,1-.18.11c0-.06-.08-.13-.07-.19.09-.39.2-.79.3-1.18.06-.24.12-.48.2-.71a.28.28,0,0,1,.18-.14S23.22,5.5,23.26,5.54Z"/><path d="M20.9,9c.28-.1.56-.2.84-.28a2.55,2.55,0,0,1,.55,0c.05,0,.1.07.15.11a.44.44,0,0,1-.15,0c-.16,0-.37,0-.48,0s-.11.28-.15.43-.14.53-.21.79c0,.07-.09.12-.14.18s0-.15,0-.22c.07-.31.15-.62.23-.92l0-.18c-.23,0-.4.21-.61.16Z"/><path d="M28.43,10.23l.92-.39c.08.14,0,.2-.11.24l-.66.23c-.26.09-.41-.05-.35-.32,0-.11.07-.22.1-.32.08-.28.15-.56.24-.83,0-.05.07-.09.1-.14a.5.5,0,0,1,.1.17c0,.06,0,.13,0,.2-.09.29-.18.58-.26.87A2.51,2.51,0,0,0,28.43,10.23Z"/><path d="M28.05,9.89c-.05.06-.09.15-.16.18a4,4,0,0,1-.63.23.38.38,0,0,1-.32,0,.43.43,0,0,1-.05-.32,5.4,5.4,0,0,1,.18-.57c.05-.18.09-.36.14-.54s.08-.09.12-.13.08.1.08.16a.57.57,0,0,1,0,.22c-.09.29-.18.58-.26.87a2,2,0,0,0,0,.28L28,9.85Z"/><path d="M12.75,10.31A2.82,2.82,0,0,1,11,12.89a3.83,3.83,0,0,1-4.16-.68,2.38,2.38,0,0,1-.77-1.79,4.23,4.23,0,0,1,.11-1.07,2.39,2.39,0,0,1,1.6-1.7,4.61,4.61,0,0,1,3.23,0A2.63,2.63,0,0,1,12.75,10.31Zm-6.39,0a2.15,2.15,0,0,0,.85,1.89,3.48,3.48,0,0,0,3.72.47,2.61,2.61,0,0,0,1.54-2.55,2.36,2.36,0,0,0-1.85-2.25A4.34,4.34,0,0,0,8,7.87,2.28,2.28,0,0,0,6.36,10.27Z"/><path d="M6.49,8.25a2.56,2.56,0,0,1-.16.4.45.45,0,0,1-.77,0,.76.76,0,0,1-.09-.78.51.51,0,0,1,.46-.37.54.54,0,0,1,.48.36C6.44,8,6.45,8.1,6.49,8.25Z"/><path d="M13.4,8.2a2,2,0,0,1-.1.37.48.48,0,0,1-.44.3.47.47,0,0,1-.45-.3.82.82,0,0,1,0-.73.5.5,0,0,1,.46-.32.47.47,0,0,1,.44.32A2.12,2.12,0,0,1,13.4,8.2Z"/><path d="M10.82,10.22l-1,.78a.45.45,0,0,0,0,.76c.36.25.36.25.72,0l.37-.25.28.34-1,.67a.22.22,0,0,1-.17,0l-.55-.38a.17.17,0,0,0-.24,0c-.19.14-.38.27-.58.39a.23.23,0,0,1-.2,0c-.32-.2-.63-.41-1-.64l.27-.34c.22.15.41.29.62.42a.41.41,0,0,0,.22,0s.09-.07.14-.09a.47.47,0,0,0,.3-.59A.36.36,0,0,0,9,11L7.92,10.2c.13-.17.25-.33.38-.48a.25.25,0,0,1,.15-.05h1.89a.29.29,0,0,1,.2.11C10.64,9.91,10.71,10.06,10.82,10.22Z"/></g><g class="cls-3"><path d="M15.64,11.16s.06-.08,0-.12c-.06-.2.06-.27.21-.27a4.85,4.85,0,0,1,.85.05c1,.16,2,.31,2.93.51a5.57,5.57,0,0,1,1.71.76.44.44,0,0,1,.24.46c-.08.42-.18.85-.26,1.28,0,.15-.05.3-.07.49.28-.07.36.09.41.26a2.33,2.33,0,0,1-.07,1.23c-.07.32-.11.65-.39.83a.77.77,0,0,1,0,.28A2,2,0,0,1,19.08,18a.17.17,0,0,0-.22.1,2.64,2.64,0,0,1-.27.41,1.57,1.57,0,0,1-.1.39A2.28,2.28,0,0,1,16.87,20a2.18,2.18,0,0,1-1.18-.15,1.44,1.44,0,0,1-.33-.27l-.77.13a9.11,9.11,0,0,1,.56,2.8h-.26a9.62,9.62,0,0,0-.14-1.06c-.12-.55-.28-1.1-.44-1.65,0-.08-.11-.14-.21-.19a7.46,7.46,0,0,1-.71,2.54c.2,0,.17.18.12.28s-.15.08-.24.09H12.9a12.57,12.57,0,0,0,.6-1.42,13.57,13.57,0,0,0,.28-1.44c0-.19,0-.24-.22-.22a25.39,25.39,0,0,1-4.09,0c-.6-.05-1.2-.2-1.8-.3a.45.45,0,0,0-.16,0s0,.05-.06.05c-.25-.05-.41.09-.59.31-.07-.17-.13-.3-.19-.43s0-.1,0-.14c-.1-.26,0-.37.22-.43l.36,0,.25-.76c-.14.17-.46.2-.37.53a2.46,2.46,0,0,0-.41.13c-.07,0-.13.1-.2.13a1,1,0,0,1-.23.08l.15.31-.09.44.33,0c0,.16,0,.38.31.35a5.25,5.25,0,0,1-.79,1.88,2.33,2.33,0,0,1-.35.27c-.13.07-.26.09-.28-.13l-.39.06.42.75H5.12l-.48-1.34L3.05,23.53H3c.09-.25.18-.51.28-.76s0-.21-.11-.26L3,22.42A.4.4,0,0,1,2.66,22a.74.74,0,0,0-.37-.47.48.48,0,0,1-.23-.65.29.29,0,0,1,0-.1.9.9,0,0,0,0-.77c-.06-.19,0-.27.19-.31l1.78-.47c.07,0,.16,0,.2-.08a.18.18,0,0,0-.12-.29,3.13,3.13,0,0,1-.44,0c-.26,0-.31-.21-.13-.42a1,1,0,0,1,.11-.1,3,3,0,0,1-.79-3.14A6.79,6.79,0,0,1,4.39,12.6l.25-.28,0-.05a4.31,4.31,0,0,1-1.43-1.79A6.22,6.22,0,0,1,2.8,7.56c0-.33.07-.65.09-1a.36.36,0,0,0-.09-.21A3,3,0,0,1,1.93,3.5a2.07,2.07,0,0,1,1-1.2,4.15,4.15,0,0,1,2.06-.63,2.34,2.34,0,0,1,1.84.84A.22.22,0,0,0,7,2.6a6.68,6.68,0,0,1,4.39.19.26.26,0,0,0,.35-.09A2,2,0,0,1,14,2.11a4.91,4.91,0,0,1,1.85.9,1.88,1.88,0,0,1,.65,2,3.66,3.66,0,0,1-.81,1.83.2.2,0,0,0,0,.15,7.61,7.61,0,0,1-.57,3.71v0Zm-3.79,1.05a1.31,1.31,0,0,1,.06-.25c.11-.21.24-.41.35-.62a1.59,1.59,0,0,1,.89-.74,2.59,2.59,0,0,1,1.38-.07c.23.05.29,0,.36-.21A7.51,7.51,0,0,0,15.34,7c0-.07-.07-.14-.12-.2a2.79,2.79,0,0,1-.44-.73,1.34,1.34,0,0,0-.32-.64A5.71,5.71,0,0,0,13.1,4.2a14.81,14.81,0,0,1-1.42-.9,2.29,2.29,0,0,0-1-.45,4.17,4.17,0,0,0-.85-.19,4.63,4.63,0,0,0-3.49.64,2.2,2.2,0,0,1-1.09.62s0,0-.07.05A7.19,7.19,0,0,0,3.88,5.54a1.45,1.45,0,0,1-.6.74.23.23,0,0,0-.08.18c-.05.3-.09.59-.11.88a6.22,6.22,0,0,0,.39,3,4.38,4.38,0,0,0,3.06,2.52,15.83,15.83,0,0,0,4,.27.84.84,0,0,0,.7-.48A.72.72,0,0,1,11.85,12.21Zm-.74.92-.2.17a10.87,10.87,0,0,0-1.68,1.84,11.38,11.38,0,0,0-1.65,3.19.47.47,0,0,0,.35.65c.42.08.84.17,1.27.21a24.53,24.53,0,0,0,3.93,0l.16,0c-.21-.28-.42-.53-.61-.8a.57.57,0,0,1,0-.73s.05-.08,0-.11a1.87,1.87,0,0,1-.06-.78c0-.43-.05-.86-.07-1.29a.23.23,0,0,0-.17-.24,1.71,1.71,0,0,1-1.13-1.12A7.25,7.25,0,0,1,11.11,13.13ZM3.74,14.21A4.78,4.78,0,0,1,5,13.43a4.22,4.22,0,0,1,1.4-.29L5,12.5a.19.19,0,0,0-.18,0,6.47,6.47,0,0,0-1.7,3,2.67,2.67,0,0,0,.53,2.35s.15.12.19.1A1.78,1.78,0,0,1,5.21,18l.54.22a.82.82,0,0,0-.08-1.15,1.57,1.57,0,0,1-.22-.38c-.1-.24-.06-.28.19-.32a2.5,2.5,0,0,1,.26-.07l.62-.1A8.58,8.58,0,0,0,7,14.09l.82-.19a2.33,2.33,0,0,0-1.16-.46,3.83,3.83,0,0,0-2.75,1ZM3.46,5.8c-.7-.79-.78-1.4-.28-2a1.5,1.5,0,0,1,2.23-.21l1.24-.8A2.11,2.11,0,0,0,5.28,2,3.68,3.68,0,0,0,3,2.56a1.82,1.82,0,0,0-.84,1.27A3,3,0,0,0,3,6.17Zm9.63-1.91A1.26,1.26,0,0,1,14,3.45a1.49,1.49,0,0,1,1.23.63,1.13,1.13,0,0,1-.05,1.65.36.36,0,0,0-.06.5l.17.24c.09.14.17.16.28,0a3.57,3.57,0,0,0,.66-1.83,1.55,1.55,0,0,0-.72-1.52c-.33-.2-.67-.39-1-.56a2.7,2.7,0,0,0-1.4-.26,1.63,1.63,0,0,0-1.26.78ZM6,19.25c-.44.05-.9.08-1.35.17-.71.14-1.4.32-2.09.5-.06,0-.14.14-.13.15.14.17.06.33,0,.5s-.09.28-.14.42a.25.25,0,0,0,.11.3c.25.2.53.39.54.77,0,0,.06.07.09.09l.44.19.37-.51a7,7,0,0,1,2.06-2.16C6.1,19.57,6.14,19.46,6,19.25Zm15.14-5.67c.06-.34.13-.68.17-1a.32.32,0,0,0-.14-.24,11.86,11.86,0,0,0-1.35-.64,13.41,13.41,0,0,0-2.58-.52l-.74-.09,0,0c.27.35.54.71.82,1.05,0,.05.15.05.23.05a3.13,3.13,0,0,1,.62,0,1.38,1.38,0,0,1,.6.34,1.84,1.84,0,0,0,1.21.47A1.54,1.54,0,0,1,21.16,13.58Zm-4.52,3.88a1.08,1.08,0,0,1-1.32.56,1.54,1.54,0,0,1-1-1.71,1.32,1.32,0,0,0-.23.83,1.49,1.49,0,0,0,.85,1.58,2.61,2.61,0,0,0,1.54.13.47.47,0,0,0,.25-.13A1.05,1.05,0,0,0,16.64,17.46ZM10.31,13.4l-2.95-.07a1.89,1.89,0,0,1,1.2,2.21Zm1.87-1.29c.36.31.43.29.78,0a6.55,6.55,0,0,1,.81-.57.72.72,0,0,1,.67,0,.61.61,0,0,0,.7-.12c.17-.14.17-.19,0-.31a2.22,2.22,0,0,0-1.26-.3,1.49,1.49,0,0,0-1.51,1A3.69,3.69,0,0,1,12.18,12.11ZM13,17.28c.48.06.55,0,.64-.43A5.45,5.45,0,0,1,14,16a.71.71,0,0,1,.54-.44.54.54,0,0,0,.46-.44c.08-.23,0-.29-.22-.27a2.21,2.21,0,0,0-1.5.78,1.35,1.35,0,0,0-.31.7A5.63,5.63,0,0,0,13,17.28ZM13.75,12a1.35,1.35,0,0,0-.26.15,5.1,5.1,0,0,0-.61.7A1.46,1.46,0,0,0,13.35,15a.17.17,0,0,0,.15,0A2.4,2.4,0,0,1,15,14.54v-.19a3.58,3.58,0,0,1-.86,0,1.18,1.18,0,0,1-.81-1.28A2.15,2.15,0,0,1,13.75,12Zm2.49,4.28v.08a2.38,2.38,0,0,1,.89.92,2.35,2.35,0,0,1,.1,1.26,1.92,1.92,0,0,0,.37-.49,2,2,0,0,0,.19-1.55.56.56,0,0,0-.66-.46A7.49,7.49,0,0,0,16.24,16.28Zm.05-3.41a1.37,1.37,0,0,0-1.23-.94,1.42,1.42,0,0,0-1.25.82,1.09,1.09,0,0,0,.27,1.09c0-.1-.06-.19-.08-.27a.63.63,0,0,1,.54-.84,2.21,2.21,0,0,1,.63,0C15.54,12.74,15.9,12.81,16.29,12.87Zm.54,2.72a1.31,1.31,0,0,0-2.1.79,1,1,0,0,0,.9,1.21l-.21-.16a.6.6,0,0,1-.07-1,2.33,2.33,0,0,1,.57-.42C16.21,15.87,16.52,15.74,16.83,15.59ZM12.5,12.74c-.22-.09-.4-.18-.6-.24a.32.32,0,0,0-.44.33,4.83,4.83,0,0,0,0,.85,1.6,1.6,0,0,0,.9,1.27,1.28,1.28,0,0,0,.34.07l0-.06a1.68,1.68,0,0,1-.65-1,.84.84,0,0,1,.21-.91A2.45,2.45,0,0,0,12.5,12.74Zm2.76,6.55,0-.05-.2,0A1.87,1.87,0,0,1,14,18.66a.73.73,0,0,1-.24-.65c0-.12,0-.23,0-.39a3.82,3.82,0,0,0-.59.12c-.29.09-.37.29-.19.53a4.68,4.68,0,0,0,.64.76,1.59,1.59,0,0,0,1.43.39A1.58,1.58,0,0,0,15.26,19.29Zm.23-4.52c.34,0,.65.06,1,.12a2,2,0,0,1,1.84,1.51,3,3,0,0,0,.07-.66,1.08,1.08,0,0,0-1-1,6.85,6.85,0,0,1-1.27-.28c-.4-.14-.34-.27-.58.21A.42.42,0,0,0,15.49,14.77Zm3.73-.08v.07a1.65,1.65,0,0,1,.85,1.89,2.78,2.78,0,0,0,.4-.65,1.52,1.52,0,0,0,.05-1.13A.47.47,0,0,0,20,14.5,5.15,5.15,0,0,0,19.22,14.69Zm-1,4.13c-.3-.08-.51-.08-.63.07a1.19,1.19,0,0,1-1.3.38.7.7,0,0,0-.25,0,.48.48,0,0,0-.24.11c-.13.1-.12.19,0,.26A1.89,1.89,0,0,0,18.18,18.82Zm-.52-5.66a1.53,1.53,0,0,0-.24-.53,4.17,4.17,0,0,1-1.12-1.32c0-.05-.12-.1-.16-.08a3.26,3.26,0,0,0-.43.2,4.16,4.16,0,0,1,1.44,1.89Zm.91.15c.5.11,1,.19,1.44.34A1.4,1.4,0,0,1,21,14.74a1,1,0,0,0-.86-1.4A4.46,4.46,0,0,1,19,13.09c-.29-.1-.28-.13-.42.15A.17.17,0,0,0,18.57,13.31Zm-.51.14a1.71,1.71,0,0,0-1.61.88c.19,0,.37.07.56.09a.34.34,0,0,0,.2-.08,2,2,0,0,1,.45-.32A.53.53,0,0,0,18.06,13.45Zm-.12,1.15.34.28c.23-.16.43-.32.66-.45s.47-.22.71-.34A1.12,1.12,0,0,0,17.94,14.6Zm0,3.74a.53.53,0,0,0,.67-.42c.09-.33.16-.67.22-1a4.69,4.69,0,0,0,0-.65A9.38,9.38,0,0,0,18,18.34Zm-2.42-4.29.64.09.35-.43a1.31,1.31,0,0,0-1.16-.55ZM19,17.68a1.59,1.59,0,0,0,1.85-.75.56.56,0,0,0-.63.17.81.81,0,0,1-.82.26C19.05,17.29,19.05,17.3,19,17.68Zm1.69-1.2c.35,0,.48-.07.57-.34s.08-.27.11-.41a1.72,1.72,0,0,0,0-1ZM19.16,17a1.66,1.66,0,0,0,.41-.15.9.9,0,0,0,0-1.06l-.4.37a.28.28,0,0,0,0,.13C19.13,16.5,19.14,16.72,19.16,17ZM5,21.35l1.19-1.46-.07-.07-1.07.9A.43.43,0,0,0,5,21.35Zm13.28-8.12.28-.47a1.21,1.21,0,0,0-.84-.31l.2.68Zm-3.23.17c-.15-.07-.25-.16-.34-.16s-.16.11-.24.17l.3.33Zm1,3.82c.08-.09.16-.15.16-.2s0-.3-.21-.31-.32.09-.3.22S15.88,17.11,16,17.22ZM5.73,19v0l-1.13-.08c0,.23,0,.24.23.22ZM16.8,13.54a.77.77,0,0,0-.18-.72l-.07.45Zm2.33,1.89c0-.15,0-.33-.19-.33s-.24.14-.23.17C18.77,15.45,18.94,15.43,19.13,15.43Zm-1.82,0c-.1.48.32.3.42.48l.05-.05ZM20,13.92l.06.3.33.06,0,0Z"/><path d="M7,20c0-.34.07-.47.3-.54a.47.47,0,0,1,.53.24l.72,1c.12.17.1.29-.07.4s-.36.18-.42.4a.35.35,0,0,1-.2,0A1.91,1.91,0,0,1,7,20Z"/><path d="M20.43,6.66c-.2.22-.39.43-.59.62a.37.37,0,0,1-.44.11A.36.36,0,0,1,19.24,7a5.32,5.32,0,0,1,.14-.67c.11-.35.23-.68.35-1,0-.06.1-.1.15-.15s.11.12.12.19a.42.42,0,0,1-.05.24c-.14.42-.29.82-.42,1.24a.9.9,0,0,0,0,.35,1.08,1.08,0,0,0,.3-.16,3.87,3.87,0,0,0,.74-1.17c0-.07.12-.18.16-.17s.09.16.06.26a1.5,1.5,0,0,0-.1.93,1,1,0,0,0,.12.23,1.18,1.18,0,0,0,.22-.14,3.56,3.56,0,0,0,.58-1.55,1,1,0,0,1,.07-.3c0-.07.11-.11.17-.16s.08.14.07.2a3.23,3.23,0,0,1-.37,1.33,2.9,2.9,0,0,1-.44.69c-.28.31-.57.22-.67-.18C20.46,6.87,20.45,6.76,20.43,6.66Z"/><path d="M25.33,6.34c.4-.08.76-.15,1.13-.25.05,0,.09-.1.11-.16.07-.22.11-.45.19-.67s.14-.2.2-.19.12.15.09.27a3.49,3.49,0,0,1-.24.87,3.49,3.49,0,0,0-.26.89c0,.08-.12.13-.19.19s-.09-.15-.08-.23.06-.41.1-.64a.4.4,0,0,0-.16,0c-.22.05-.43.14-.65.17a.52.52,0,0,0-.49.48c0,.1,0,.29-.2.24s-.07-.21,0-.32c.19-.62.38-1.25.59-1.87,0-.06.1-.1.15-.15s.08.15.06.21c-.08.32-.18.64-.27.95C25.37,6.2,25.35,6.25,25.33,6.34Z"/><path d="M32.15,5.25a.38.38,0,0,1,.56.16.93.93,0,0,1,0,.87,1.55,1.55,0,0,1-1.21,1,.6.6,0,0,1-.71-.78,2.32,2.32,0,0,1,1-1.31c.08-.06.23,0,.35,0ZM31.48,7a1.27,1.27,0,0,0,1.1-1.32l0-.1a.27.27,0,0,0-.45-.14.25.25,0,0,1-.15,0c-.07,0-.15,0-.19,0a2.21,2.21,0,0,0-.67,1C31,6.85,31.15,7,31.48,7Z"/><path d="M29.77,6.39a6,6,0,0,0,.84-1.32c0-.08.13-.12.19-.18,0,.09.1.18.09.26a.6.6,0,0,1-.13.28c-.52.68-1,1.35-1.57,2a.5.5,0,0,1-.15.14.56.56,0,0,1-.18.07c0-.08,0-.18,0-.23s.31-.34.47-.51a.33.33,0,0,0,.09-.48A5.83,5.83,0,0,1,29,5.33c0-.07.06-.18.1-.27.07.06.18.1.2.18a5.9,5.9,0,0,1,.17.6c0,.19.12.37.18.56Z"/><path d="M33.14,6.71c0-.09.07-.27.11-.45s.17-.59.26-.88c0-.08.12-.13.18-.19s.13.18.11.26-.12.33-.16.5a4.36,4.36,0,0,0-.2.81c0,.28.16.42.41.3a1.81,1.81,0,0,0,.57-.46,2.23,2.23,0,0,0,.47-1.24,1.6,1.6,0,0,1,0-.23A.19.19,0,0,1,35,5a.19.19,0,0,1,.12.07.56.56,0,0,1,.05.25,2.54,2.54,0,0,1-1,1.83,1.17,1.17,0,0,1-.3.14C33.44,7.42,33.14,7.19,33.14,6.71Z"/><path d="M22.94,7,23.1,7a.9.9,0,0,0,1.18-.57c.06-.16,0-.23-.17-.24a3.2,3.2,0,0,1-.44,0c-.14,0-.32-.1-.38-.21a.48.48,0,0,1,.05-.4,1.64,1.64,0,0,1,1.06-.69.8.8,0,0,1,.33.08s.06.11.05.16-.1.06-.14,0c-.5-.14-.79.19-1.07.5-.12.13,0,.25.14.26a3.19,3.19,0,0,1,.54,0,.36.36,0,0,1,.27.55,1.3,1.3,0,0,1-1,.8,1.15,1.15,0,0,1-.5-.12c-.06,0-.09-.14-.14-.22Z"/><path d="M25,8.21a2.87,2.87,0,0,1-.07.5,9.4,9.4,0,0,1-.39,1,.71.71,0,0,1-.23.26c-.16.13-.28.1-.36-.1a3.37,3.37,0,0,1-.09-.34,3.9,3.9,0,0,1-.42.48c-.07.07-.24.13-.3.09A.37.37,0,0,1,23,9.78c.1-.46.24-.91.37-1.36,0,0,.06-.06.08-.05a.16.16,0,0,1,.09.07.74.74,0,0,1,0,.26c-.1.32-.21.63-.3,1a.87.87,0,0,0,.05.31c.08-.06.19-.1.24-.18.18-.28.33-.57.49-.86,0-.05,0-.12.08-.18h.07a1.94,1.94,0,0,1,0,.24c0,.23-.06.46-.07.69a.67.67,0,0,0,.08.27c.1-.12.2-.18.23-.27.13-.37.24-.74.36-1.1,0-.13.08-.26.11-.4Z"/><path d="M34.93,10.05a.82.82,0,0,1,0-.21c.12-.42.24-.83.37-1.25,0-.05.08-.13.12-.13a.24.24,0,0,1,.17.09,3.24,3.24,0,0,1,.13.33c.11.3.22.59.32.88h.1l.41-1.56h.06c0,.1.08.2.06.29-.12.45-.25.89-.39,1.33a.34.34,0,0,1-.2.19s-.16-.08-.19-.16c-.15-.35-.29-.7-.44-1.07l-.4,1.3Z"/><path d="M18.86,8.66c-.15-.2-.31-.13-.46,0a1.42,1.42,0,0,0-.6.72.34.34,0,0,0,.1.42c.13.11.26.06.39,0a1,1,0,0,0,.48-.56,4.51,4.51,0,0,1-.46.17s-.1,0-.15,0,0-.12.08-.14l.48-.15c.16,0,.26.06.23.23A1.13,1.13,0,0,1,18,10a.47.47,0,0,1-.39-.64,1.52,1.52,0,0,1,1-1,.49.49,0,0,1,.29.06s0,.13,0,.2Z"/><path d="M34.77,8.91a1.16,1.16,0,0,1-.94,1.1.46.46,0,0,1-.5-.63A1.56,1.56,0,0,1,34,8.46a.74.74,0,0,1,.53,0C34.74,8.51,34.77,8.72,34.77,8.91ZM34.6,9c0-.19,0-.38-.21-.39a.61.61,0,0,0-.42.14,2.82,2.82,0,0,0-.43.65c0,.1,0,.33,0,.38a.53.53,0,0,0,.43,0A1,1,0,0,0,34.6,9Z"/><path d="M33.16,8.93A1.16,1.16,0,0,1,32.22,10a.46.46,0,0,1-.5-.63,1.56,1.56,0,0,1,.69-.92.8.8,0,0,1,.53,0C33.1,8.48,33.16,8.69,33.16,8.93Zm-.17,0c0-.16,0-.33-.2-.35a.57.57,0,0,0-.42.14,2.72,2.72,0,0,0-.44.66c-.05.1,0,.31,0,.36a.46.46,0,0,0,.4.06A1,1,0,0,0,33,8.93Z"/><path d="M25.63,8.46l.43,0c.15,0,.31-.12.52,0a1.19,1.19,0,0,1-.21.08A2.74,2.74,0,0,1,26,8.6c-.35,0-.47.27-.51.6L26.22,9l0,0a.93.93,0,0,1-.15.13l-.49.19c-.28.12-.28.12-.3.51l.81-.27c0,.08,0,.13-.05.14l-.85.26s-.14-.11-.13-.14c.15-.48.31-.95.47-1.43l0,0Z"/><path d="M19.3,9.88l.78-.27,0,.06c-.06.05-.1.12-.16.14a3.93,3.93,0,0,1-.67.19c-.18,0-.25-.05-.2-.23.12-.4.24-.79.37-1.18,0-.11.08-.26.27-.13s.22,0,.34-.05.3-.13.48,0l-.21.07c-.13,0-.27.06-.41.09-.32.09-.41.2-.45.58l.73-.2,0,.06-.16.12a2.26,2.26,0,0,1-.49.19C19.33,9.42,19.31,9.6,19.3,9.88Z"/><path d="M30.28,9.76c.49.13.73.05.94-.34.09-.18,0-.26-.17-.26s-.14,0-.2,0-.24,0-.29-.11a.32.32,0,0,1,0-.3,1.21,1.21,0,0,1,.8-.55.38.38,0,0,1,.18,0,.43.43,0,0,1,.09.13l-.14,0a.84.84,0,0,0-.77.44.22.22,0,0,0,.11.17c.06,0,.15,0,.22,0a.61.61,0,0,1,.35.13.36.36,0,0,1,0,.32.83.83,0,0,1-1,.5.84.84,0,0,1-.18-.15Z"/><path d="M22.92,5.2c0,.1,0,.16-.06.22-.15.55-.31,1.1-.46,1.64,0,0,0,.1,0,.12a.67.67,0,0,1-.18.11c0-.06-.08-.13-.07-.19.09-.39.19-.79.3-1.18s.12-.48.2-.71a.28.28,0,0,1,.18-.14S22.88,5.16,22.92,5.2Z"/><path d="M20.56,8.68c.28-.1.56-.2.84-.28a2.55,2.55,0,0,1,.55,0c.05,0,.1.07.15.11a.44.44,0,0,1-.15,0c-.16,0-.37,0-.48,0s-.11.28-.15.43-.14.53-.21.79c0,.07-.09.12-.14.18s0-.16,0-.22c.07-.31.15-.62.23-.92l0-.18c-.23,0-.4.21-.61.16Z"/><path d="M28.09,9.89,29,9.5c.08.14,0,.2-.11.24l-.66.23c-.26.09-.41-.05-.35-.32,0-.11.07-.22.1-.32.08-.28.15-.56.24-.83,0-.05.07-.09.1-.14a.5.5,0,0,1,.1.17c0,.06,0,.13,0,.2-.09.29-.18.58-.26.87A2.51,2.51,0,0,0,28.09,9.89Z"/><path d="M27.71,9.55c-.05.06-.09.15-.16.18a4,4,0,0,1-.63.23.38.38,0,0,1-.32,0,.43.43,0,0,1-.05-.32A5.4,5.4,0,0,1,26.73,9c.05-.18.09-.36.14-.54S27,8.4,27,8.36s.08.1.08.16a.57.57,0,0,1,0,.22c-.09.29-.18.58-.26.87a2,2,0,0,0,0,.28l.92-.38Z"/><path d="M12.41,10a2.82,2.82,0,0,1-1.74,2.58,3.83,3.83,0,0,1-4.16-.68,2.4,2.4,0,0,1-.77-1.79A4.23,4.23,0,0,1,5.85,9a2.39,2.39,0,0,1,1.6-1.7,4.61,4.61,0,0,1,3.23,0A2.63,2.63,0,0,1,12.41,10ZM6,9.93a2.15,2.15,0,0,0,.85,1.89,3.5,3.5,0,0,0,3.72.47,2.61,2.61,0,0,0,1.54-2.55,2.36,2.36,0,0,0-1.85-2.25,4.34,4.34,0,0,0-2.62,0A2.28,2.28,0,0,0,6,9.93Z"/><path d="M6.15,7.9A2.31,2.31,0,0,1,6,8.31a.45.45,0,0,1-.77,0,.76.76,0,0,1-.09-.78.51.51,0,0,1,.46-.37.54.54,0,0,1,.48.36C6.1,7.65,6.11,7.76,6.15,7.9Z"/><path d="M13.06,7.86a2,2,0,0,1-.1.37.48.48,0,0,1-.89,0,.82.82,0,0,1,0-.73.5.5,0,0,1,.46-.32A.47.47,0,0,1,13,7.5,2.12,2.12,0,0,1,13.06,7.86Z"/><path d="M10.48,9.88l-1,.78a.45.45,0,0,0,0,.76c.36.25.36.25.72,0l.37-.25.28.34c-.34.23-.66.45-1,.66,0,0-.12,0-.17,0s-.37-.25-.55-.38a.17.17,0,0,0-.24,0c-.19.14-.38.27-.58.39a.23.23,0,0,1-.2,0c-.32-.2-.63-.41-1-.64l.27-.34c.22.15.41.29.62.42a.41.41,0,0,0,.22,0s.09-.07.14-.09a.47.47,0,0,0,.3-.59.36.36,0,0,0-.11-.22L7.58,9.86c.13-.17.25-.33.38-.48a.25.25,0,0,1,.15-.05H10a.29.29,0,0,1,.2.11C10.3,9.57,10.37,9.72,10.48,9.88Z"/></g><path class="cls-4" d="M15.84,11.36s.05-.08,0-.12c-.06-.2,0-.27.21-.27a4.68,4.68,0,0,1,.84,0c1,.15,2,.31,2.94.51a5.34,5.34,0,0,1,1.71.76.41.41,0,0,1,.23.45c-.07.43-.17.86-.25,1.28,0,.16,0,.31-.07.49.28-.06.36.1.41.27A2.44,2.44,0,0,1,21.83,16a1.21,1.21,0,0,1-.39.83.77.77,0,0,1,0,.28,2,2,0,0,1-2.14,1.06c-.1,0-.16,0-.21.1a3.24,3.24,0,0,1-.27.41,1.37,1.37,0,0,1-.1.38,2.22,2.22,0,0,1-1.62,1.15,2.08,2.08,0,0,1-1.18-.14,1.76,1.76,0,0,1-.33-.27l-.77.13a9.06,9.06,0,0,1,.56,2.8h-.26C15,22.39,15,22,15,21.68c-.12-.56-.28-1.1-.44-1.65,0-.08-.12-.14-.21-.19a7.26,7.26,0,0,1-.72,2.54c.2,0,.18.18.13.28s-.15.08-.24.08a2.38,2.38,0,0,1-.37,0,13.4,13.4,0,0,0,.6-1.42A13.57,13.57,0,0,0,14,19.89c0-.19-.05-.24-.22-.23a24.29,24.29,0,0,1-4.09,0c-.6-.05-1.2-.2-1.8-.3a.45.45,0,0,0-.16,0l-.06.05c-.25-.05-.41.09-.59.31-.08-.17-.14-.3-.19-.43a.7.7,0,0,1,0-.14c-.1-.26,0-.37.22-.43a2,2,0,0,1,.36,0L7.67,18c-.14.17-.46.2-.37.52-.15.05-.29.08-.41.13s-.13.1-.2.14l-.23.08.15.3-.09.45.32,0c0,.16,0,.38.31.35a5,5,0,0,1-.79,1.88,1.46,1.46,0,0,1-.34.26c-.13.08-.26.1-.29-.12l-.38,0,.42.76H5.32l-.48-1.34L3.25,23.73h0c.09-.26.17-.51.28-.76s0-.21-.11-.26a.77.77,0,0,0-.19-.08.4.4,0,0,1-.34-.41.78.78,0,0,0-.37-.47.49.49,0,0,1-.24-.65s0-.08,0-.11a.9.9,0,0,0,0-.77c-.07-.19,0-.26.19-.3l1.78-.47a.41.41,0,0,0,.2-.09.17.17,0,0,0-.12-.28,3.13,3.13,0,0,1-.44,0c-.27-.05-.32-.22-.14-.42l.12-.1a3,3,0,0,1-.8-3.14A6.81,6.81,0,0,1,4.59,12.8l.25-.28,0,0a4.31,4.31,0,0,1-1.43-1.79A6.23,6.23,0,0,1,3,7.76c0-.33.08-.65.1-1A.36.36,0,0,0,3,6.58,3,3,0,0,1,2.13,3.7a2,2,0,0,1,1-1.2,4.26,4.26,0,0,1,2.06-.64A2.38,2.38,0,0,1,7,2.71a.2.2,0,0,0,.25.08,6.75,6.75,0,0,1,4.39.2A.26.26,0,0,0,12,2.9a2.05,2.05,0,0,1,2.2-.6A5,5,0,0,1,16,3.21a1.88,1.88,0,0,1,.65,2A3.7,3.7,0,0,1,15.86,7a.2.2,0,0,0,0,.15,7.56,7.56,0,0,1-.57,3.7s0,0,0,0Zm-3.79,1a1.4,1.4,0,0,1,.06-.24c.11-.21.23-.41.35-.62a1.52,1.52,0,0,1,.89-.74,2.59,2.59,0,0,1,1.38-.07c.23,0,.29,0,.36-.21a7.53,7.53,0,0,0,.45-3.32c0-.07-.08-.14-.12-.2A3,3,0,0,1,15,6.27a1.44,1.44,0,0,0-.32-.64A5.71,5.71,0,0,0,13.3,4.4a12.25,12.25,0,0,1-1.42-.91,2.63,2.63,0,0,0-1-.45,4.94,4.94,0,0,0-.85-.18,4.59,4.59,0,0,0-3.49.64,2.23,2.23,0,0,1-1.1.62s0,0-.06,0A7.19,7.19,0,0,0,4.08,5.74c-.16.28-.28.59-.6.74a.28.28,0,0,0-.09.18c0,.29-.08.59-.11.88a6.36,6.36,0,0,0,.4,3A4.35,4.35,0,0,0,6.73,13a15,15,0,0,0,4,.27.79.79,0,0,0,.69-.47A.77.77,0,0,1,12.05,12.4Zm-.75.93-.19.16a11.75,11.75,0,0,0-3.33,5,.47.47,0,0,0,.35.65c.42.08.84.17,1.26.21a24.56,24.56,0,0,0,3.93,0l.16,0c-.21-.28-.42-.53-.6-.81a.55.55,0,0,1,0-.72s0-.08,0-.11a1.87,1.87,0,0,1-.06-.78c0-.43-.06-.86-.07-1.29,0-.14-.06-.19-.18-.24a1.72,1.72,0,0,1-1.12-1.12A10,10,0,0,1,11.3,13.33ZM3.94,14.41a4.78,4.78,0,0,1,1.29-.78,4.22,4.22,0,0,1,1.4-.29L5.21,12.7a.19.19,0,0,0-.18,0,6.47,6.47,0,0,0-1.7,3A2.64,2.64,0,0,0,3.86,18c0,.06.15.13.19.11a1.74,1.74,0,0,1,1.36.08c.19.06.37.15.54.22a.82.82,0,0,0-.08-1.15,1.45,1.45,0,0,1-.22-.38c-.1-.24-.06-.29.19-.33.09,0,.17-.05.26-.06l.61-.1a8.26,8.26,0,0,0,.5-2.14L8,14.1a2.33,2.33,0,0,0-1.16-.46,3.91,3.91,0,0,0-2.76,1ZM3.65,6c-.7-.79-.77-1.4-.27-2a1.49,1.49,0,0,1,2.22-.2L6.85,3a2.13,2.13,0,0,0-1.37-.87,3.68,3.68,0,0,0-2.31.61A1.79,1.79,0,0,0,2.33,4a3,3,0,0,0,.84,2.34Zm9.64-1.91a1.31,1.31,0,0,1,.91-.45,1.53,1.53,0,0,1,1.23.64,1.13,1.13,0,0,1,0,1.65.34.34,0,0,0-.06.49,2.2,2.2,0,0,0,.17.25c.09.14.17.15.28,0a3.66,3.66,0,0,0,.66-1.83,1.54,1.54,0,0,0-.72-1.52,8.45,8.45,0,0,0-1-.56,2.81,2.81,0,0,0-1.4-.27A1.64,1.64,0,0,0,12,3.28ZM6.22,19.45c-.44.05-.91.08-1.36.17-.7.14-1.39.32-2.09.5,0,0-.13.14-.12.15.14.17.06.33,0,.5s-.08.28-.13.42a.25.25,0,0,0,.11.3c.25.2.53.39.54.77,0,0,.05.07.09.09l.44.19L4.06,22a7,7,0,0,1,2.07-2.16C6.3,19.77,6.34,19.66,6.22,19.45Zm15.14-5.67c.06-.34.13-.68.16-1a.31.31,0,0,0-.13-.25c-.45-.22-.89-.46-1.35-.64a14.13,14.13,0,0,0-2.59-.51c-.24,0-.48-.06-.73-.09l0,.05c.27.35.54.71.82,1,0,.05.15.05.23.05a2.52,2.52,0,0,1,.62,0,1.61,1.61,0,0,1,.6.33,1.8,1.8,0,0,0,1.21.48A1.5,1.5,0,0,1,21.36,13.78Zm-4.52,3.88a1.09,1.09,0,0,1-1.32.56,1.57,1.57,0,0,1-1-1.71,1.38,1.38,0,0,0-.23.83,1.51,1.51,0,0,0,.86,1.58,2.58,2.58,0,0,0,1.53.13.53.53,0,0,0,.26-.13A1.07,1.07,0,0,0,16.84,17.66ZM10.51,13.6l-2.95-.07a1.89,1.89,0,0,1,1.2,2.21Zm1.87-1.3c.36.32.43.3.78,0a6.44,6.44,0,0,1,.8-.57.74.74,0,0,1,.68-.05.61.61,0,0,0,.7-.12c.17-.14.17-.19,0-.31a2.17,2.17,0,0,0-1.25-.3,1.49,1.49,0,0,0-1.51,1A3.69,3.69,0,0,1,12.38,12.3Zm.85,5.18c.47.05.54,0,.64-.43a5.89,5.89,0,0,1,.29-.9.72.72,0,0,1,.54-.43.55.55,0,0,0,.46-.44c.07-.23,0-.3-.22-.27a2.21,2.21,0,0,0-1.5.78,1.31,1.31,0,0,0-.31.69A4.85,4.85,0,0,0,13.23,17.48ZM14,12.2a1.1,1.1,0,0,0-.26.15,5.68,5.68,0,0,0-.61.69,1.46,1.46,0,0,0,.47,2.13.17.17,0,0,0,.15,0,2.48,2.48,0,0,1,1.46-.46v-.18a3.59,3.59,0,0,1-.86,0,1.2,1.2,0,0,1-.81-1.28A2.15,2.15,0,0,1,14,12.2Zm2.49,4.28v.08a2.46,2.46,0,0,1,.89.92,2.34,2.34,0,0,1,.1,1.26,2.18,2.18,0,0,0,.37-.49A2,2,0,0,0,18,16.7a.57.57,0,0,0-.66-.47C17,16.28,16.74,16.4,16.44,16.48Zm0-3.41a1.39,1.39,0,0,0-1.23-1A1.44,1.44,0,0,0,14,13,1.07,1.07,0,0,0,14.28,14c0-.1-.06-.19-.08-.27a.63.63,0,0,1,.54-.84,2.21,2.21,0,0,1,.63,0C15.74,12.94,16.1,13,16.49,13.07ZM17,15.79a1.31,1.31,0,0,0-2.1.79,1,1,0,0,0,.9,1.21l-.22-.16a.61.61,0,0,1-.07-1,2.39,2.39,0,0,1,.58-.42C16.41,16.07,16.71,15.94,17,15.79ZM12.7,12.94a4.68,4.68,0,0,0-.6-.24.33.33,0,0,0-.45.33,6,6,0,0,0,0,.85,1.58,1.58,0,0,0,.9,1.27,1.28,1.28,0,0,0,.34.07l0-.06a1.7,1.7,0,0,1-.65-1,.84.84,0,0,1,.21-.91A2.45,2.45,0,0,0,12.7,12.94Zm2.76,6.55,0,0-.2,0a1.93,1.93,0,0,1-1.1-.55.75.75,0,0,1-.23-.65c0-.12,0-.24,0-.39-.23,0-.42.06-.6.11s-.36.3-.18.54a5.09,5.09,0,0,0,.63.76,1.61,1.61,0,0,0,1.44.39A1.58,1.58,0,0,0,15.46,19.49ZM15.69,15c.33,0,.65,0,1,.12a2,2,0,0,1,1.83,1.51,2.48,2.48,0,0,0,.08-.66,1.08,1.08,0,0,0-1-1,6.85,6.85,0,0,1-1.27-.28c-.4-.14-.34-.27-.59.21Zm3.73-.08V15a1.64,1.64,0,0,1,.86,1.89,2.74,2.74,0,0,0,.39-.65,1.52,1.52,0,0,0,.06-1.13c-.11-.29-.26-.41-.56-.37A5.15,5.15,0,0,0,19.42,14.89Zm-1,4.12c-.31-.07-.51-.07-.63.08a1.2,1.2,0,0,1-1.3.38.7.7,0,0,0-.25,0,.6.6,0,0,0-.24.12c-.13.1-.12.19,0,.25A1.87,1.87,0,0,0,18.38,19Zm-.52-5.65c-.08-.19-.11-.42-.24-.53a4.17,4.17,0,0,1-1.12-1.32.19.19,0,0,0-.16-.09,4.25,4.25,0,0,0-.43.21,4.19,4.19,0,0,1,1.44,1.88Zm.91.15c.5.11,1,.19,1.44.34a1.4,1.4,0,0,1,.95,1.09,1,1,0,0,0-.86-1.4,5,5,0,0,1-1.08-.25c-.29-.1-.28-.13-.42.15A.17.17,0,0,0,18.77,13.51Zm-.51.14a1.7,1.7,0,0,0-1.61.87,5.3,5.3,0,0,0,.55.1.34.34,0,0,0,.21-.08,2,2,0,0,1,.45-.32A.53.53,0,0,0,18.26,13.65Zm-.12,1.15.34.28c.23-.16.43-.32.65-.45s.48-.23.72-.34A1.12,1.12,0,0,0,18.14,14.8Zm0,3.74a.52.52,0,0,0,.66-.42,9.18,9.18,0,0,0,.23-1,4.83,4.83,0,0,0,0-.66A9.45,9.45,0,0,0,18.16,18.54Zm-2.43-4.29.64.09.36-.43a1.31,1.31,0,0,0-1.17-.55Zm3.47,3.63a1.59,1.59,0,0,0,1.85-.75.55.55,0,0,0-.63.17.82.82,0,0,1-.82.26C19.25,17.49,19.24,17.5,19.2,17.88Zm1.69-1.2c.35,0,.48-.07.57-.34s.08-.27.11-.41a1.81,1.81,0,0,0,0-1Zm-1.53.51a1.35,1.35,0,0,0,.41-.16.9.9,0,0,0,0-1.05l-.4.37a.28.28,0,0,0,0,.13C19.33,16.7,19.34,16.91,19.36,17.19ZM5.2,21.55l1.19-1.46L6.32,20l-1.07.9A.43.43,0,0,0,5.2,21.55Zm13.28-8.12.28-.47a1.21,1.21,0,0,0-.84-.31l.2.68Zm-3.23.17c-.15-.07-.25-.16-.34-.16s-.16.11-.24.17l.3.33Zm1,3.82c.08-.09.17-.15.17-.2s0-.3-.21-.31-.32.09-.3.22S16.08,17.31,16.22,17.42ZM5.93,19.21v0l-1.13-.08c0,.23.05.24.22.22ZM17,13.74a.79.79,0,0,0-.18-.72l-.07.45Zm2.33,1.89c0-.16,0-.33-.19-.33s-.24.14-.23.17S19.14,15.63,19.33,15.63Zm-1.82,0c-.1.48.32.29.42.48l.05-.05Zm2.71-1.52.06.3.33.06,0,0Z"/><path class="cls-4" d="M7.22,20.16c0-.34.07-.46.29-.53a.48.48,0,0,1,.54.24c.24.34.47.68.72,1,.12.17.1.29-.07.4s-.36.18-.42.39a.27.27,0,0,1-.2,0A1.93,1.93,0,0,1,7.22,20.16Z"/><path class="cls-4" d="M20.63,6.86c-.2.21-.39.43-.59.62a.37.37,0,0,1-.44.11.36.36,0,0,1-.16-.41,5.47,5.47,0,0,1,.14-.68c.1-.34.23-.68.35-1,0-.06.09-.1.14-.15s.12.12.13.19a.42.42,0,0,1-.05.24c-.14.41-.29.82-.42,1.24a.9.9,0,0,0,.05.35,1.15,1.15,0,0,0,.29-.16A3.71,3.71,0,0,0,20.82,6c0-.07.12-.18.16-.17s.09.16.06.26a1.58,1.58,0,0,0-.11.93c0,.08.09.15.13.23a1.18,1.18,0,0,0,.22-.14,3.56,3.56,0,0,0,.58-1.55,1,1,0,0,1,.06-.3c0-.07.12-.11.18-.16a1,1,0,0,1,.07.2,3.23,3.23,0,0,1-.37,1.33,3.15,3.15,0,0,1-.45.69c-.28.31-.56.22-.66-.18C20.66,7.06,20.65,7,20.63,6.86Z"/><path class="cls-4" d="M25.53,6.54l1.13-.25s.09-.1.11-.16c.06-.23.11-.45.19-.67s.14-.2.2-.19.12.15.09.27A3.3,3.3,0,0,1,27,6.4a4.22,4.22,0,0,0-.27.9c0,.07-.12.13-.18.19s-.09-.15-.08-.23.06-.41.1-.65a.88.88,0,0,0-.17,0c-.21,0-.43.14-.65.17a.52.52,0,0,0-.49.48c0,.1,0,.29-.19.23s-.07-.2,0-.31c.2-.62.39-1.25.59-1.87,0-.06.1-.1.16-.16s.08.16.06.22c-.08.32-.18.64-.27,1A1.43,1.43,0,0,0,25.53,6.54Z"/><path class="cls-4" d="M32.35,5.44a.39.39,0,0,1,.56.17.92.92,0,0,1,0,.87,1.52,1.52,0,0,1-1.2,1A.61.61,0,0,1,31,6.71a2.37,2.37,0,0,1,1-1.32c.08,0,.23,0,.35,0Zm-.68,1.8a1.28,1.28,0,0,0,1.11-1.32l0-.1a.27.27,0,0,0-.45-.14s-.1,0-.16,0-.14,0-.18,0a2.21,2.21,0,0,0-.67,1C31.19,7,31.34,7.24,31.67,7.24Z"/><path class="cls-4" d="M30,6.59a6.1,6.1,0,0,0,.84-1.33c0-.07.12-.11.19-.17,0,.09.1.17.09.25a.64.64,0,0,1-.13.29c-.52.67-1.05,1.34-1.57,2a.5.5,0,0,1-.15.14.56.56,0,0,1-.18.07c0-.08,0-.18,0-.23s.31-.34.47-.51a.33.33,0,0,0,.09-.48,5.83,5.83,0,0,1-.39-1.11c0-.07.06-.18.1-.27.07.06.18.1.2.17s.11.41.17.61.12.37.18.55Z"/><path class="cls-4" d="M33.34,6.91c0-.09.07-.27.11-.45s.16-.59.26-.89c0-.07.12-.12.18-.18s.12.18.11.26a4,4,0,0,1-.17.49,5.74,5.74,0,0,0-.19.82c0,.28.15.42.41.29a1.64,1.64,0,0,0,.56-.45,2.24,2.24,0,0,0,.48-1.24,1.6,1.6,0,0,1,0-.23.19.19,0,0,1,.08-.11.14.14,0,0,1,.11.07.46.46,0,0,1,.06.25,2.56,2.56,0,0,1-1,1.83,1.09,1.09,0,0,1-.31.14C33.64,7.62,33.34,7.39,33.34,6.91Z"/><path class="cls-4" d="M23.14,7.15l.15.06a.91.91,0,0,0,1.19-.57c.05-.16,0-.23-.17-.24a3.34,3.34,0,0,1-.45,0c-.13,0-.31-.1-.37-.21a.44.44,0,0,1,.05-.4,1.64,1.64,0,0,1,1.05-.69.61.61,0,0,1,.34.08s.05.11.05.16-.1.06-.14,0c-.5-.14-.79.19-1.07.5-.12.13-.05.25.14.26a3.27,3.27,0,0,1,.54,0,.36.36,0,0,1,.27.55,1.3,1.3,0,0,1-1,.8,1,1,0,0,1-.49-.13c-.07,0-.09-.14-.14-.21Z"/><path class="cls-4" d="M25.24,8.4a2.85,2.85,0,0,1-.07.51c-.11.34-.25.67-.39,1a.67.67,0,0,1-.23.27c-.16.13-.28.1-.36-.1s-.06-.23-.09-.34a4.81,4.81,0,0,1-.42.48.34.34,0,0,1-.31.08.37.37,0,0,1-.13-.31c.1-.46.24-.91.37-1.36a.16.16,0,0,1,.08-.06s.08,0,.08.08a.74.74,0,0,1,0,.26c-.1.32-.21.63-.3.95a1.2,1.2,0,0,0,0,.31c.09-.06.2-.1.25-.18.17-.28.33-.57.49-.86l.08-.18h.07a1.94,1.94,0,0,1,0,.24c0,.23-.06.45-.08.68a1.25,1.25,0,0,0,.08.28c.11-.12.21-.18.24-.28.13-.36.24-.73.36-1.09,0-.13.07-.27.11-.4Z"/><path class="cls-4" d="M35.12,10.25c0-.07,0-.15,0-.21.12-.42.24-.84.37-1.25,0-.06.08-.13.11-.13a.2.2,0,0,1,.17.09,3.27,3.27,0,0,1,.14.33c.11.29.21.59.32.88h.1l.41-1.56h.06c0,.09.08.2,0,.29-.11.44-.24.89-.38,1.33a.34.34,0,0,1-.2.19s-.16-.09-.19-.16c-.16-.35-.29-.71-.44-1.07l-.4,1.29Z"/><path class="cls-4" d="M19.06,8.86c-.15-.2-.31-.14-.46,0a1.44,1.44,0,0,0-.6.71.34.34,0,0,0,.1.42c.13.11.25.07.38,0A1,1,0,0,0,19,9.4c-.18.07-.32.13-.46.17s-.1,0-.15,0,0-.12.08-.14a4.42,4.42,0,0,1,.48-.15c.16-.05.26.06.23.23a1.15,1.15,0,0,1-.95.73.47.47,0,0,1-.39-.64,1.52,1.52,0,0,1,1-1,.44.44,0,0,1,.29.06s0,.13,0,.19Z"/><path class="cls-4" d="M35,9.11A1.14,1.14,0,0,1,34,10.2a.45.45,0,0,1-.51-.62,1.62,1.62,0,0,1,.7-.92.69.69,0,0,1,.53,0C34.94,8.71,35,8.92,35,9.11Zm-.17.06c0-.2,0-.38-.22-.39a.6.6,0,0,0-.41.14,2.53,2.53,0,0,0-.43.65c-.05.1,0,.33,0,.37a.48.48,0,0,0,.42.05A1,1,0,0,0,34.8,9.17Z"/><path class="cls-4" d="M33.36,9.13a1.15,1.15,0,0,1-.94,1.07.45.45,0,0,1-.51-.62,1.62,1.62,0,0,1,.7-.92.74.74,0,0,1,.53,0C33.29,8.68,33.36,8.89,33.36,9.13Zm-.17,0c0-.16,0-.34-.21-.35a.53.53,0,0,0-.41.14,2.46,2.46,0,0,0-.44.66.4.4,0,0,0,0,.36.57.57,0,0,0,.41.06A1,1,0,0,0,33.19,9.13Z"/><path class="cls-4" d="M25.83,8.66l.42,0c.16,0,.32-.12.53,0a1.46,1.46,0,0,1-.22.09,2.33,2.33,0,0,1-.36.08c-.35,0-.47.26-.52.59l.74-.21,0,.06a.79.79,0,0,1-.15.12,5,5,0,0,1-.49.2c-.28.12-.28.12-.31.51l.82-.27c0,.08,0,.13,0,.13-.28.1-.56.19-.85.27,0,0-.14-.11-.13-.14.15-.48.31-1,.47-1.43,0,0,0,0,0,0Z"/><path class="cls-4" d="M19.5,10.07l.78-.26,0,.06c0,.05-.09.12-.15.14a3.93,3.93,0,0,1-.67.19c-.18,0-.25,0-.2-.23.11-.4.24-.79.37-1.19,0-.1.07-.25.27-.12s.22,0,.34-.05.3-.13.47,0a1.21,1.21,0,0,1-.2.07l-.41.09c-.32.09-.41.19-.45.58l.73-.21,0,.07a1,1,0,0,1-.16.12,2.82,2.82,0,0,1-.48.19C19.53,9.62,19.51,9.8,19.5,10.07Z"/><path class="cls-4" d="M30.48,10c.49.13.73,0,.94-.34.09-.18,0-.26-.17-.26s-.14,0-.2,0a.54.54,0,0,1-.3-.11.32.32,0,0,1,0-.3,1.18,1.18,0,0,1,.79-.55.42.42,0,0,1,.19,0s.06.08.09.12-.1,0-.14,0a.85.85,0,0,0-.77.45.2.2,0,0,0,.11.16c.06,0,.15,0,.22,0s.28.05.35.14a.36.36,0,0,1,0,.32.84.84,0,0,1-1,.5.84.84,0,0,1-.18-.15Z"/><path class="cls-4" d="M23.12,5.4c0,.1,0,.16-.06.22l-.47,1.64s0,.1,0,.12a.67.67,0,0,1-.18.11c0-.06-.08-.13-.07-.19.09-.4.19-.79.3-1.19.06-.23.12-.47.2-.7A.24.24,0,0,1,23,5.27S23.08,5.36,23.12,5.4Z"/><path class="cls-4" d="M20.76,8.88c.28-.1.56-.21.84-.28a2.46,2.46,0,0,1,.54,0c.06,0,.11.07.16.11a.44.44,0,0,1-.15.05c-.17,0-.37,0-.48,0s-.11.28-.16.43-.13.53-.21.79a.55.55,0,0,1-.13.18c0-.08-.05-.16,0-.22.06-.31.15-.62.23-.92l0-.19c-.24,0-.4.22-.62.17Z"/><path class="cls-4" d="M28.28,10.09l.93-.39c.08.14,0,.2-.11.24l-.66.23c-.26.09-.41-.05-.35-.32,0-.11.07-.22.1-.33.08-.27.15-.55.24-.82,0-.06.07-.1.1-.14a.47.47,0,0,1,.1.16.54.54,0,0,1-.05.21c-.08.29-.17.58-.25.87C28.31,9.87,28.31,9.94,28.28,10.09Z"/><path class="cls-4" d="M27.91,9.75c-.06.06-.1.15-.16.18a4,4,0,0,1-.63.23.38.38,0,0,1-.32,0,.45.45,0,0,1-.05-.33c0-.19.12-.37.18-.56s.09-.37.14-.55.08-.08.12-.12.08.1.08.15a.48.48,0,0,1-.05.23c-.08.29-.17.58-.25.87a2,2,0,0,0,0,.28l.91-.38Z"/><path class="cls-4" d="M12.61,10.17a2.84,2.84,0,0,1-1.74,2.58,3.85,3.85,0,0,1-4.16-.68,2.4,2.4,0,0,1-.77-1.8,4.2,4.2,0,0,1,.11-1.06,2.37,2.37,0,0,1,1.6-1.7,4.61,4.61,0,0,1,3.23,0A2.63,2.63,0,0,1,12.61,10.17Zm-6.39,0A2.15,2.15,0,0,0,7.07,12a3.5,3.5,0,0,0,3.72.47,2.62,2.62,0,0,0,1.54-2.55,2.38,2.38,0,0,0-1.85-2.26,4.5,4.5,0,0,0-2.62,0A2.29,2.29,0,0,0,6.22,10.13Z"/><path class="cls-4" d="M6.34,8.1a1.87,1.87,0,0,1-.15.41.45.45,0,0,1-.78,0,.81.81,0,0,1-.09-.78.52.52,0,0,1,.47-.37.51.51,0,0,1,.47.36A2.78,2.78,0,0,1,6.34,8.1Z"/><path class="cls-4" d="M13.26,8.06a2.24,2.24,0,0,1-.1.37.48.48,0,0,1-.89,0,.82.82,0,0,1,0-.73.48.48,0,0,1,.46-.32.48.48,0,0,1,.44.31A2.54,2.54,0,0,1,13.26,8.06Z"/><path class="cls-4" d="M10.68,10.08l-1,.77a.47.47,0,0,0,0,.77c.36.25.36.25.72,0l.37-.25.28.34-1,.66s-.12,0-.17,0-.37-.25-.55-.39a.18.18,0,0,0-.24,0c-.19.14-.39.27-.59.39a.23.23,0,0,1-.2,0l-1-.64.27-.34c.22.15.41.29.62.42a.33.33,0,0,0,.22,0c.05,0,.09-.06.14-.09a.46.46,0,0,0,.3-.58.46.46,0,0,0-.12-.23l-1-.83c.13-.17.25-.33.38-.48a.2.2,0,0,1,.15-.05H10.2a.33.33,0,0,1,.19.11C10.49,9.77,10.57,9.92,10.68,10.08Z"/></g></g></svg>