<svg xmlns="http://www.w3.org/2000/svg" viewBox="0 0 38.55 24.66"><defs><style>.cls-1{isolation:isolate;}.cls-2{opacity:0.15;}.cls-2,.cls-3{mix-blend-mode:multiply;}.cls-4{fill:#fff;}</style></defs><title>convert-FIX-SVG-03</title><g class="cls-1"><g id="Layer_1" data-name="Layer 1"><g class="cls-2"><path d="M27.51,17.89l1.19,3.95-3.94-1.19L24.44,24h-1a.39.39,0,0,1-.21-.11l-2.06-1.7-.1.17c-.27.5-.53,1-.79,1.5A.25.25,0,0,1,20,24q-.8,0-1.59,0a.26.26,0,0,1-.28-.17l-.87-1.65-.7.57-1.4,1.15A.33.33,0,0,1,15,24H14l-.32-3.32-3.94,1.2,1.19-4-4.1-.4,2.61-3.2L5.83,12.33l3.63-1.95L6.85,7.18l4.1-.4-1.19-4L13.7,4,14,.7h1s.1.06.15.1l2,1.62.13.08c.3-.55.6-1.1.88-1.65a.28.28,0,0,1,.29-.17c.52,0,1,0,1.55,0a.27.27,0,0,1,.28.17c.25.49.52,1,.78,1.47l.11.19c.67-.55,1.32-1.08,2-1.63a.74.74,0,0,1,.57-.2c.23,0,.46,0,.71,0L24.76,4l3.94-1.2-1.19,4,4.1.4L29,10.38l3.63,1.95L29,14.28l2.61,3.2Zm2.39-5.56L27,10.78l2.08-2.55-3.26-.32.94-3.15-3.13,1-.32-3.27L20.78,4.52l-1.55-2.9-1.55,2.9L15.15,2.44l-.32,3.27-3.14-1,.94,3.15-3.26.32,2.08,2.55L8.56,12.33l2.89,1.56L9.37,16.43l3.27.33-1,3.15,3.13-1,.33,3.28,2.53-2.09L19.23,23l1.55-2.9,2.54,2.09L23.64,19l3.14.95-1-3.15,3.26-.33L27,13.89Z"/><path d="M30.85,14.65l4.32-2.32L30.85,10,34,6.21l-4.88-.48L30.5,1,25.81,2.45,25.65.73c.42,0,.83,0,1.24,0s.81,0,1.22,0h3.8c-.21.68-.4,1.33-.6,2s-.39,1.29-.59,2l5.69.56L32.79,9.62l.18.11L37.2,12a.36.36,0,0,1,.25.34c0,.21-.12.26-.25.33L33,14.92l-.23.12,3.63,4.44L30.72,20,31.9,24H29.81c-.7,0-1.4,0-2.1,0s-1.36,0-2.07,0l.17-1.73,4.69,1.43-1.42-4.71L34,18.46Z"/><path d="M6.56,24,7.74,20l-5.69-.56L5.68,15,3,13.62l-1.76-.94c-.14-.07-.15-.18-.14-.31s0-.29.14-.39C2.67,11.25,4,10.51,5.42,9.77l.26-.15L2.05,5.19l5.69-.56L6.56.69h2.1c.7,0,1.4,0,2.1,0s1.36,0,2.06,0l-.17,1.74L8,1,9.38,5.73l-4.87.48L7.61,10,3.3,12.33l4.31,2.32-3.1,3.81,4.87.48L8,23.65l4.69-1.43.17,1.72H11.57l-1.2,0H6.56Z"/><path d="M37.43,4.12l-5.19-.51a1.24,1.24,0,0,0,0-.16c.26-.86.53-1.72.78-2.58,0-.14.1-.18.23-.18.31,0,.61,0,.94,0l-.6,2,3.8.38Z"/><path d="M37.42,21.61,33.63,22l.59,2h-1s-.1-.07-.11-.12c-.29-.91-.56-1.82-.85-2.77l5.19-.51Z"/><path d="M4.83,2.68l-.59-2H5.35l.88,2.9-5.07.5V3Z"/><path d="M5.35,24H4.25l.58-2-3.68-.37V20.56l5.08.49Z"/><path d="M34.57,15.4l2.87-1.54c0,.39,0,.75,0,1.11,0,.06-.08.14-.14.17-.34.2-.69.38-1.07.58l.13.17,1,1.21a.34.34,0,0,1,.09.18c0,.52,0,1,0,1.63Z"/><path d="M34.57,9.27l2.86-3.51c0,.59,0,1.12,0,1.64,0,.06,0,.11-.09.16L36.22,8.94c.35.19.68.39,1,.55a.3.3,0,0,1,.19.33c0,.32,0,.63,0,1Z"/><path d="M2.25,15.73c-.34-.19-.65-.36-1-.52A.23.23,0,0,1,1.14,15v-1L3.9,15.4,1.14,18.77V17.15c0-.07.06-.13.1-.18Z"/><path d="M1.14,10.75c0-.4,0-.76,0-1.13,0,0,.07-.12.13-.16l1-.52c-.31-.38-.61-.76-.92-1.12a.69.69,0,0,1-.2-.53c0-.44,0-.88,0-1.39L3.9,9.27Z"/><path d="M21,11.58v1.94h-.35V11.11c.36-.1.43-.07.6.23.32.56.63,1.11,1,1.65v-1.9h.37v2.42c-.4.07-.4.07-.59-.26l-1-1.68Z"/><path d="M18.82,16.68a3,3,0,0,1,0,.39,1.1,1.1,0,0,1-1.29.91,1.11,1.11,0,0,1-1-1.11,1.54,1.54,0,0,1,.28-1.14,1.18,1.18,0,0,1,1.3-.32,1,1,0,0,1,.74.94A2.88,2.88,0,0,1,18.82,16.68Zm-.38,0a3.12,3.12,0,0,0-.09-.46.69.69,0,0,0-.7-.54.71.71,0,0,0-.72.53,1.48,1.48,0,0,0,0,.93.71.71,0,0,0,.72.52.69.69,0,0,0,.69-.51A3.94,3.94,0,0,0,18.44,16.68Z"/><path d="M20.13,8a2.35,2.35,0,0,1,0,.35,1.1,1.1,0,0,1-1.27.94,1.12,1.12,0,0,1-1-1.13A1.55,1.55,0,0,1,18,7a1.23,1.23,0,0,1,1.33-.35,1.1,1.1,0,0,1,.75,1C20.12,7.75,20.12,7.84,20.13,8Zm-.37,0a4.75,4.75,0,0,0-.14-.57.73.73,0,0,0-1.34,0,1.35,1.35,0,0,0,0,1.13.73.73,0,0,0,1.32,0C19.68,8.33,19.71,8.13,19.76,8Z"/><path d="M14,17.9V15.45c.43,0,.84,0,1.26,0a.77.77,0,0,1,.68.53,1.71,1.71,0,0,1-.07,1.43.8.8,0,0,1-.76.48Zm.39-.3h.58a.58.58,0,0,0,.56-.38,1.39,1.39,0,0,0,0-1.13.52.52,0,0,0-.31-.29,5.71,5.71,0,0,0-.84-.07Z"/><path d="M22.25,6.72h.38a1,1,0,0,1,0,.17c0,.55,0,1.11,0,1.67a.68.68,0,0,1-.64.65,1.86,1.86,0,0,1-.33,0,.83.83,0,0,1-.94-.92c0-.5,0-1,0-1.48,0,0,0-.07,0-.12h.38a1.09,1.09,0,0,1,0,.19V8.14c0,.13,0,.26,0,.38a.45.45,0,0,0,.47.4c.34,0,.52-.08.59-.35a1.47,1.47,0,0,0,0-.36V6.77Z"/><path d="M20.16,13.53H20a.27.27,0,0,1-.37-.27c0-.22-.14-.29-.35-.27a4.56,4.56,0,0,1-.64,0c-.12,0-.19,0-.21.15l0,.08c-.11.33-.11.33-.49.29,0-.06,0-.12,0-.17.24-.7.5-1.39.73-2.1.07-.21.22-.17.36-.18s.24,0,.3.18c.23.7.48,1.38.73,2.07C20.13,13.38,20.14,13.44,20.16,13.53Zm-1.09-2.1H19l-.4,1.24h.85Z"/><path d="M17.51,11.77c-.24.05-.4.05-.53-.19a.64.64,0,0,0-1,0A1.41,1.41,0,0,0,15.91,13a.65.65,0,0,0,1.14-.05c.08-.15.09-.16.41-.11a1,1,0,0,1-1.19.78,1,1,0,0,1-.86-.76,1.77,1.77,0,0,1,.05-1.16.94.94,0,0,1,.8-.64,1,1,0,0,1,1.09.39A1.77,1.77,0,0,1,17.51,11.77Z"/><path d="M16.35,7.94c.16-.34.29-.63.42-.93s.16-.34.58-.28c-.18.33-.33.66-.52,1a1.71,1.71,0,0,0-.29,1.16,1.45,1.45,0,0,1,0,.3h-.41a4.34,4.34,0,0,1,0-.51,1.19,1.19,0,0,0-.2-.78c-.22-.36-.42-.75-.63-1.12.39-.1.44-.08.6.25Z"/><path d="M22.79,6.66c.3.12.45.27.42.6a8,8,0,0,0,0,1.2c0,1-.66,1.27-1.43,1.11a3.62,3.62,0,0,1-.35-.13,4.16,4.16,0,0,0,.72-.1.81.81,0,0,0,.64-.86c0-.53,0-1.05,0-1.58Z"/><path d="M21.18,15.76v-.31h1.94c.06.29.05.3-.23.3h-.53v2.14H22V15.76Z"/><path d="M18.46,15.48a1.21,1.21,0,0,1,.76.7,2.17,2.17,0,0,1,.09,1.26,1.22,1.22,0,0,1-1.42.95c-.39-.05-.4-.06-.6-.28.65.06,1.29.06,1.58-.65A1.65,1.65,0,0,0,18.46,15.48Z"/><path d="M23.57,16.08h-.4c-.29,0-.29,0-.29.28,0,.55,0,1.09,0,1.63v.24a1.05,1.05,0,0,1-.87-.16h.52V15.93h.77v-.45C23.59,15.57,23.61,15.62,23.57,16.08Z"/><path d="M22.83,11.1a.47.47,0,0,1,.4.54c0,.66,0,1.32,0,2v.28l-.82-.11v-.07h.43Z"/><path d="M19.92,6.85a1.06,1.06,0,0,1,.65,1,3,3,0,0,0,0,.52,1.11,1.11,0,0,1-1.27,1.2,1,1,0,0,1-.73-.21,7.33,7.33,0,0,0,.81,0,.87.87,0,0,0,.72-.53A1.69,1.69,0,0,0,19.92,6.85Z"/><path d="M17.6,6.69l.31.23c-.2.34-.37.69-.59,1A1.73,1.73,0,0,0,17,9.18c0,.1,0,.2,0,.34l-.76-.1V9.35h.49c0-.33,0-.63,0-.93a.68.68,0,0,1,.08-.31C17.06,7.64,17.32,7.17,17.6,6.69Z"/><path d="M20.36,15.45h.37v2.44h-.37Z"/><path d="M15.86,15.65c.39.16.5.35.43.7a1.89,1.89,0,0,0,.09,1,.45.45,0,0,1,0,.28,1,1,0,0,1-.92.65c-.34,0-.68,0-1,0a1.49,1.49,0,0,1-.4-.11v-.05H15a1,1,0,0,0,1-.66A1.76,1.76,0,0,0,15.86,15.65Z"/><path d="M21.15,16a.5.5,0,0,1,.18.46c0,.52,0,1,0,1.55v.25a1.35,1.35,0,0,1-.84-.12l.05,0c.41,0,.41,0,.41-.42V15.52H21l.06.23c0,.08.05.16.07.23Z"/><path d="M21.26,6.66c.38.13.38.13.38.48V8.78a.32.32,0,0,1-.35-.27,1.67,1.67,0,0,1,0-.32C21.26,7.69,21.26,7.18,21.26,6.66Z"/><path d="M19.58,11a1.48,1.48,0,0,1,.21.3c.24.65.47,1.31.69,2a1.84,1.84,0,0,1,.08.42l.28.14,0,.08-.92-.08v-.09h.52l-.93-2.68Z"/><path d="M16.19,13.75a1.19,1.19,0,0,0,1.48-1c.13.09.3.12.22.37A1.05,1.05,0,0,1,16.19,13.75Z"/><path d="M16.9,11.7c-.58.26-.7.56-.57,1.43a3,3,0,0,1-.25-.24,1.1,1.1,0,0,1,.08-1.18A.47.47,0,0,1,16.9,11.7Z"/><path d="M23.69,15.45h.48L24,17.17l-.06,0s-.1-.07-.1-.1C23.8,16.55,23.75,16,23.69,15.45Z"/><path d="M21.19,13.69V12.18a.87.87,0,0,1,.32.66c0,.34,0,.69,0,1a.64.64,0,0,1-.68-.17Z"/><path d="M24.34,15.49c.3.14.25.42.21.67s-.16.77-.25,1.15c0,0-.06.11-.09.11a1.87,1.87,0,0,1-.34,0v-.07l.26,0Z"/><path d="M18,13.72l0,0a.44.44,0,0,0,.58-.42s.11-.11.17-.12h.55c.06,0,.12.06.21.1l-.07.05a.48.48,0,0,0-.63.44.16.16,0,0,1-.12.11A1,1,0,0,1,18,13.72Z"/><path d="M18.07,12.17a1,1,0,0,1-.89-.23h.55l-.14-.49A.87.87,0,0,1,18.07,12.17Z"/><path d="M21.36,11.06a2.77,2.77,0,0,1,.82,1.38l-.07.05-.81-1.4Z"/><path d="M15.9,6.64c.52.27.68.58.47.93Z"/><path d="M23.79,18.07h.46v-.48c.29.17.11.4.19.61C24.21,18.18,24,18.27,23.79,18.07Z"/><path d="M23.76,17.56h.35v.33h-.35Z"/><path d="M21.15,16h0c.21-.12.63-.08.67.09A.94.94,0,0,1,21.15,16Z"/><path d="M18.05,16c-.59.16-.7.5-.48,1.53a1.87,1.87,0,0,1-.28-.2,1.1,1.1,0,0,1-.1-1.28A.54.54,0,0,1,18.05,16Z"/><path d="M18.81,8.78a.88.88,0,0,1-.46-1c0-.27.11-.53.42-.62a.63.63,0,0,1,.68.15c-.35.06-.63.2-.66.57A6.54,6.54,0,0,0,18.81,8.78Z"/><path d="M15.26,16.07h-.39v1.36h-.35v-1.5C14.87,15.84,15.12,15.88,15.26,16.07Z"/><path d="M19.06,11.94a2.77,2.77,0,0,1,.15.49s-.06.12-.12.14a.66.66,0,0,1-.25,0l.18-.64Z"/><path d="M27.71,18.08l1.19,4L25,20.84l-.32,3.32h-1a.35.35,0,0,1-.21-.12c-.69-.55-1.36-1.12-2.06-1.69l-.1.17c-.27.5-.54,1-.79,1.49a.26.26,0,0,1-.27.16c-.53,0-1.06,0-1.58,0a.27.27,0,0,1-.28-.17c-.28-.55-.57-1.08-.87-1.65l-.7.57-1.4,1.15a.33.33,0,0,1-.16.09c-.33,0-.66,0-1,0l-.32-3.31L10,22l1.19-4-4.1-.4,2.61-3.2L6,12.53l3.63-1.95L7.05,7.38l4.1-.4L10,3l3.94,1.2L14.22.9c.34,0,.69,0,1,0,.05,0,.1.07.15.11l2,1.61a.6.6,0,0,0,.13.09c.3-.55.59-1.1.88-1.65a.28.28,0,0,1,.29-.17c.52,0,1,0,1.55,0a.26.26,0,0,1,.27.16c.26.5.53,1,.79,1.48l.11.19c.66-.55,1.32-1.08,2-1.63a.71.71,0,0,1,.57-.2c.23,0,.46,0,.71,0L25,4.22,28.9,3,27.71,7l4.1.4-2.61,3.2,3.63,1.95-3.63,2,2.61,3.2Zm2.39-5.55L27.21,11l2.08-2.55L26,8.11,27,5l-3.13,1-.33-3.28L21,4.72l-1.55-2.9-1.55,2.9L15.34,2.63,15,5.91,11.89,5l.94,3.15-3.26.32L11.65,11,8.76,12.53l2.89,1.56L9.57,16.63l3.26.32-.95,3.15,3.14-1,.32,3.28,2.54-2.09,1.55,2.9L21,20.34l2.53,2.09.32-3.28,3.14,1L26,17l3.27-.33-2.08-2.54Z"/><path d="M31,14.85l4.32-2.32L31,10.21l3.11-3.8-4.87-.48L30.7,1.22,26,2.64,25.84.93h1.25l1.21,0h3.81c-.21.68-.41,1.33-.6,2s-.39,1.29-.59,2l5.69.56L33,9.82l.18.11L37.4,12.2a.36.36,0,0,1,.25.34c0,.2-.12.26-.26.33L33.2,15.12l-.22.12,3.63,4.44-5.69.56,1.18,3.92H30c-.7,0-1.39,0-2.09,0s-1.36,0-2.07,0L26,22.42l4.69,1.43-1.42-4.71,4.87-.48Z"/><path d="M6.76,24.16l1.18-3.92-5.69-.57,3.63-4.43L3.23,13.82l-1.75-.94a.25.25,0,0,1-.14-.31c0-.14-.05-.29.14-.39L5.62,10l.26-.14L2.25,5.39l5.69-.56L6.76.89h2.1c.7,0,1.4,0,2.09,0s1.37,0,2.07,0l-.17,1.74L8.16,1.22,9.58,5.93,4.7,6.41l3.11,3.8L3.49,12.53l4.32,2.32L4.7,18.66l4.88.48-1.42,4.7,4.69-1.42L13,24.14H11.77l-1.2,0H6.76Z"/><path d="M37.62,4.32l-5.18-.51c0-.06,0-.11,0-.16.26-.86.53-1.72.78-2.59a.2.2,0,0,1,.23-.17c.31,0,.61,0,.93,0l-.59,2,3.79.37Z"/><path d="M37.62,21.81l-3.8.38.59,2h-1s-.1-.07-.12-.12c-.28-.91-.55-1.83-.84-2.78l5.19-.51Z"/><path d="M5,2.88l-.59-2H5.55l.88,2.9-5.08.5V3.24Z"/><path d="M5.55,24.15H4.44l.59-2-3.68-.37V20.75l5.08.5Z"/><path d="M34.77,15.6l2.86-1.54c0,.39,0,.75,0,1.1a.25.25,0,0,1-.14.18l-1.07.58c0,.06.08.12.13.17l1,1.21a.34.34,0,0,1,.09.18c0,.52,0,1,0,1.62Z"/><path d="M34.77,9.47,37.63,6c0,.59,0,1.12,0,1.64a.33.33,0,0,1-.09.16L36.41,9.14c.36.19.69.38,1,.55a.32.32,0,0,1,.19.33c0,.31,0,.63,0,1Z"/><path d="M2.45,15.92l-1-.51a.25.25,0,0,1-.15-.25c0-.33,0-.66,0-1L4.09,15.6,1.34,19c0-.59,0-1.11,0-1.63a.33.33,0,0,1,.1-.18Z"/><path d="M1.34,11c0-.4,0-.77,0-1.13a.35.35,0,0,1,.14-.16l1-.52c-.32-.38-.61-.76-.92-1.12a.71.71,0,0,1-.2-.53c0-.44,0-.88,0-1.39L4.09,9.47Z"/><path d="M21.24,11.78v1.94h-.36V11.31c.37-.1.44-.07.61.23.31.55.63,1.1,1,1.65V11.28h.37v2.43c-.4.07-.4.07-.59-.26l-1-1.69Z"/><path d="M19,16.88a2.9,2.9,0,0,1,0,.38,1.1,1.1,0,0,1-1.29.92,1.11,1.11,0,0,1-1-1.11A1.49,1.49,0,0,1,17,15.93a1.18,1.18,0,0,1,1.3-.32,1,1,0,0,1,.74.94A2.88,2.88,0,0,1,19,16.88Zm-.38,0c0-.16-.05-.32-.09-.47a.69.69,0,0,0-.7-.53.71.71,0,0,0-.72.53,1.48,1.48,0,0,0,0,.93.73.73,0,0,0,.72.52.69.69,0,0,0,.69-.51A4.4,4.4,0,0,0,18.64,16.88Z"/><path d="M20.32,8.16a1.46,1.46,0,0,1,0,.35A1.11,1.11,0,0,1,19,9.45a1.12,1.12,0,0,1-1-1.13,1.55,1.55,0,0,1,.25-1.09,1.23,1.23,0,0,1,1.33-.36,1.13,1.13,0,0,1,.75,1A2.72,2.72,0,0,1,20.32,8.16Zm-.36,0a4.75,4.75,0,0,0-.14-.57.73.73,0,0,0-1.34,0,1.39,1.39,0,0,0,0,1.13.67.67,0,0,0,.68.41.65.65,0,0,0,.65-.41C19.88,8.53,19.91,8.33,20,8.15Z"/><path d="M14.15,18.1V15.65c.43,0,.84,0,1.26,0a.78.78,0,0,1,.67.53A1.73,1.73,0,0,1,16,17.62a.8.8,0,0,1-.76.48Zm.39-.3h.58a.58.58,0,0,0,.56-.38,1.43,1.43,0,0,0,0-1.13.56.56,0,0,0-.32-.3,5.49,5.49,0,0,0-.83-.06Z"/><path d="M22.45,6.91h.38c0,.07,0,.12,0,.17,0,.56,0,1.12,0,1.67a.69.69,0,0,1-.64.66,1.27,1.27,0,0,1-.34,0c-.62,0-.92-.29-.93-.91s0-1,0-1.49c0,0,0-.07,0-.12h.38c0,.06,0,.13,0,.19V8.34a1.58,1.58,0,0,0,0,.38.44.44,0,0,0,.47.4c.34,0,.52-.08.59-.35a1.47,1.47,0,0,0,0-.36V7S22.44,7,22.45,6.91Z"/><path d="M20.36,13.73h-.13c-.22,0-.35-.05-.37-.27s-.14-.29-.36-.27a4.42,4.42,0,0,1-.63,0c-.12,0-.19,0-.21.15l0,.08c-.11.33-.11.33-.49.29a1.21,1.21,0,0,1,.05-.18c.24-.69.5-1.39.73-2.09.07-.21.21-.17.36-.18s.24,0,.3.18c.23.69.48,1.38.72,2.07A1.91,1.91,0,0,1,20.36,13.73Zm-1.09-2.1h-.05l-.4,1.25h.84Z"/><path d="M17.71,12c-.24,0-.4,0-.53-.19a.64.64,0,0,0-1,0,1.41,1.41,0,0,0-.06,1.39.66.66,0,0,0,1.15,0c.08-.16.09-.16.41-.11a1,1,0,0,1-1.19.78,1,1,0,0,1-.86-.76,1.74,1.74,0,0,1,.05-1.17.94.94,0,0,1,.8-.63,1,1,0,0,1,1.09.39A1.77,1.77,0,0,1,17.71,12Z"/><path d="M16.55,8.14,17,7.21c.16-.34.16-.34.58-.28-.18.33-.33.66-.52,1a1.69,1.69,0,0,0-.29,1.15c0,.1,0,.2,0,.31h-.41a4.25,4.25,0,0,1,0-.51,1.32,1.32,0,0,0-.2-.78c-.22-.37-.42-.75-.63-1.13.39-.09.44-.07.59.26S16.39,7.79,16.55,8.14Z"/><path d="M23,6.86c.3.12.45.27.42.6a9.61,9.61,0,0,0,0,1.2c.05,1-.65,1.27-1.42,1.11a2.13,2.13,0,0,1-.35-.14,4.17,4.17,0,0,0,.72-.09A.82.82,0,0,0,23,8.68V6.86Z"/><path d="M21.38,16v-.31h1.94c.06.29.05.3-.24.3h-.52v2.14h-.39V16Z"/><path d="M18.66,15.68a1.18,1.18,0,0,1,.76.7,2.09,2.09,0,0,1,.08,1.26,1.2,1.2,0,0,1-1.41.95c-.39-.06-.41-.06-.61-.28.66.06,1.3.06,1.59-.65A1.66,1.66,0,0,0,18.66,15.68Z"/><path d="M23.77,16.28h-.41c-.29,0-.29,0-.29.28v1.87a1.09,1.09,0,0,1-.87-.16h.52V16.13h.77v-.45C23.79,15.77,23.81,15.81,23.77,16.28Z"/><path d="M23,11.3a.47.47,0,0,1,.4.53c0,.67,0,1.33,0,2v.28L22.6,14v-.08H23Z"/><path d="M20.12,7.05a1.06,1.06,0,0,1,.65,1,3.13,3.13,0,0,0,0,.53,1.11,1.11,0,0,1-1.28,1.2.9.9,0,0,1-.72-.22,7.29,7.29,0,0,0,.81,0A.87.87,0,0,0,20.3,9,1.71,1.71,0,0,0,20.12,7.05Z"/><path d="M17.79,6.88l.32.23c-.2.35-.38.7-.59,1a1.76,1.76,0,0,0-.33,1.25c0,.1,0,.2,0,.34l-.76-.1V9.54h.49c0-.32,0-.62,0-.92A.85.85,0,0,1,17,8.31C17.26,7.84,17.52,7.37,17.79,6.88Z"/><path d="M20.55,15.64h.37v2.45h-.37Z"/><path d="M16.06,15.85c.39.16.5.35.43.7a1.79,1.79,0,0,0,.09,1,.45.45,0,0,1,0,.28,1,1,0,0,1-.92.65c-.34,0-.68,0-1,0a1.4,1.4,0,0,1-.4-.11v0c.3,0,.6,0,.9,0a1,1,0,0,0,1-.66A1.76,1.76,0,0,0,16.06,15.85Z"/><path d="M21.35,16.18a.52.52,0,0,1,.18.46c0,.52,0,1,0,1.55v.25a1.34,1.34,0,0,1-.84-.12l0,0c.41,0,.41,0,.41-.42V15.72h.06l.06.23a1.55,1.55,0,0,0,.07.23Z"/><path d="M21.46,6.85c.38.14.38.14.38.49V9a.33.33,0,0,1-.35-.27,1.73,1.73,0,0,1,0-.32Z"/><path d="M19.78,11.21a1.48,1.48,0,0,1,.21.3c.24.65.47,1.31.69,2a1.84,1.84,0,0,1,.08.42L21,14l0,.08L20.1,14V14h.52l-.93-2.68Z"/><path d="M16.38,14a1.19,1.19,0,0,0,1.48-1c.14.09.31.11.23.36A1.06,1.06,0,0,1,16.38,14Z"/><path d="M17.09,11.9c-.57.26-.69.56-.56,1.42a1.94,1.94,0,0,1-.25-.23,1.12,1.12,0,0,1,.07-1.18A.46.46,0,0,1,17.09,11.9Z"/><path d="M23.89,15.65h.47l-.14,1.72-.06,0s-.1-.07-.1-.11C24,16.75,24,16.21,23.89,15.65Z"/><path d="M21.39,13.89V12.38a.89.89,0,0,1,.32.66c0,.34,0,.69,0,1a.63.63,0,0,1-.67-.17Z"/><path d="M24.54,15.69c.3.14.25.42.21.67s-.16.77-.25,1.15c0,0-.06.11-.09.11s-.23,0-.34,0v-.07l.26,0Z"/><path d="M18.19,13.92l0,0a.44.44,0,0,0,.58-.42c0-.05.11-.11.17-.12a3.37,3.37,0,0,1,.55,0c.06,0,.12.06.21.1l-.08,0c-.36-.08-.55.09-.62.44a.18.18,0,0,1-.13.11A1,1,0,0,1,18.19,13.92Z"/><path d="M18.27,12.37a1,1,0,0,1-.9-.23h.56l-.14-.49A.86.86,0,0,1,18.27,12.37Z"/><path d="M21.56,11.26a2.72,2.72,0,0,1,.82,1.38l-.07,0-.81-1.4Z"/><path d="M16.1,6.84c.52.27.67.57.47.93Z"/><path d="M24,18.27h.46v-.48c.29.17.11.4.18.61C24.41,18.38,24.2,18.47,24,18.27Z"/><path d="M24,17.76h.35v.33H24Z"/><path d="M21.35,16.18h0c.21-.12.63-.08.67.09A1,1,0,0,1,21.35,16.18Z"/><path d="M18.25,16.23c-.59.16-.7.5-.48,1.53a3,3,0,0,1-.28-.2,1.1,1.1,0,0,1-.11-1.28A.56.56,0,0,1,18.25,16.23Z"/><path d="M19,9a.88.88,0,0,1-.46-1c0-.27.11-.53.42-.63a.65.65,0,0,1,.68.16c-.36.06-.63.2-.66.57A6.58,6.58,0,0,0,19,9Z"/><path d="M15.46,16.27h-.39v1.36h-.35v-1.5C15.07,16,15.31,16.08,15.46,16.27Z"/><path d="M19.26,12.13a4.74,4.74,0,0,1,.15.5s-.07.12-.12.14a1,1,0,0,1-.25,0l.18-.63Z"/></g><g class="cls-3"><path d="M27.37,17.74l1.19,4-3.94-1.2-.32,3.32h-1a.35.35,0,0,1-.21-.12c-.69-.55-1.37-1.12-2.06-1.69l-.1.17c-.27.5-.54,1-.79,1.49a.27.27,0,0,1-.27.16c-.53,0-1.06,0-1.58,0a.27.27,0,0,1-.28-.17c-.28-.55-.57-1.09-.87-1.65l-.7.57-1.4,1.15a.33.33,0,0,1-.16.09c-.33,0-.66,0-1,0l-.32-3.31L9.62,21.7l1.19-4-4.1-.4,2.61-3.2-3.63-2,3.63-1.95L6.71,7l4.1-.4-1.19-4,3.94,1.2L13.88.56c.34,0,.69,0,1,0,.05,0,.1.07.15.11l2,1.61a.6.6,0,0,0,.13.09c.3-.55.59-1.1.88-1.65a.27.27,0,0,1,.29-.17c.52,0,1,0,1.55,0a.26.26,0,0,1,.27.16c.26.5.53,1,.79,1.48l.11.19c.66-.55,1.32-1.08,2-1.63a.71.71,0,0,1,.57-.2c.23,0,.46,0,.71,0l.33,3.33,3.94-1.2-1.19,4,4.1.4-2.61,3.2,3.63,1.95-3.63,2,2.61,3.2Zm2.39-5.55-2.89-1.55L29,8.09l-3.26-.32.94-3.15-3.13,1-.33-3.28L20.64,4.38l-1.55-2.9-1.55,2.9L15,2.29l-.32,3.28-3.13-1,.94,3.15-3.26.32,2.08,2.55L8.42,12.19l2.89,1.56L9.23,16.29l3.26.32-1,3.15,3.14-1L15,22.09,17.54,20l1.55,2.9L20.64,20l2.53,2.09.32-3.28,3.14,1-.95-3.14L29,16.29l-2.08-2.54Z"/><path d="M30.7,14.51,35,12.19,30.7,9.87l3.11-3.8-4.87-.48L30.36.88,25.67,2.3,25.5.59h1.25L28,.55h3.8c-.2.68-.4,1.33-.59,2s-.39,1.29-.59,2l5.69.56L32.65,9.48l.18.11,4.23,2.27a.36.36,0,0,1,.25.34c0,.2-.12.26-.26.33l-4.19,2.25-.22.12,3.63,4.44-5.69.56,1.18,3.92h-2.1c-.7,0-1.39,0-2.09,0s-1.36,0-2.07,0l.16-1.73,4.7,1.43L28.94,18.8l4.87-.48Z"/><path d="M6.42,23.82,7.6,19.9l-5.69-.57L5.54,14.9,2.89,13.48l-1.75-.94A.25.25,0,0,1,1,12.23c0-.14-.06-.29.14-.39L5.28,9.62l.26-.14L1.91,5.05,7.6,4.49,6.42.55h2.1c.7,0,1.4,0,2.09,0s1.37,0,2.07,0L12.51,2.3,7.82.88,9.24,5.59l-4.88.48,3.11,3.8L3.15,12.19l4.32,2.32L4.36,18.32l4.88.48L7.82,23.5l4.69-1.42.17,1.72H11.43l-1.2,0H6.42Z"/><path d="M37.28,4,32.1,3.47c0-.06,0-.11,0-.16.26-.86.53-1.72.78-2.59a.2.2,0,0,1,.23-.17c.31,0,.61,0,.93,0l-.59,2,3.79.37Z"/><path d="M37.28,21.47l-3.8.38.59,2h-1s-.1-.07-.12-.12c-.28-.91-.55-1.83-.84-2.78l5.19-.51Z"/><path d="M4.69,2.54,4.1.57H5.21l.88,2.9L1,4V2.9Z"/><path d="M5.21,23.81H4.1l.59-2L1,21.48V20.41l5.08.5Z"/><path d="M34.43,15.26l2.86-1.54c0,.39,0,.75,0,1.1a.31.31,0,0,1-.14.18l-1.07.58c.05.06.08.12.13.17l1,1.21a.34.34,0,0,1,.09.18c0,.52,0,1,0,1.62Z"/><path d="M34.43,9.13l2.86-3.51c0,.59,0,1.12,0,1.64a.33.33,0,0,1-.09.16L36.07,8.8c.36.19.69.38,1,.55a.32.32,0,0,1,.19.33c0,.31,0,.63,0,1Z"/><path d="M2.11,15.58l-1-.51A.25.25,0,0,1,1,14.82c0-.33,0-.66,0-1l2.75,1.48L1,18.63C1,18,1,17.52,1,17a.33.33,0,0,1,.1-.18Z"/><path d="M1,10.61c0-.4,0-.77,0-1.13a.35.35,0,0,1,.14-.16l1-.52C1.79,8.42,1.5,8,1.19,7.68A.71.71,0,0,1,1,7.15c0-.44,0-.88,0-1.39L3.75,9.13Z"/><path d="M20.9,11.44v1.94h-.36V11c.36-.1.44-.07.61.23.31.55.63,1.1,1,1.65V10.94h.37v2.43c-.4.07-.4.07-.59-.26l-1-1.69Z"/><path d="M18.68,16.54a2.9,2.9,0,0,1,0,.38,1.1,1.1,0,0,1-1.29.92,1.11,1.11,0,0,1-1-1.11,1.49,1.49,0,0,1,.28-1.14,1.18,1.18,0,0,1,1.3-.32,1,1,0,0,1,.74.94A2.88,2.88,0,0,1,18.68,16.54Zm-.38,0c0-.16-.05-.32-.09-.47a.69.69,0,0,0-.7-.53.71.71,0,0,0-.72.53,1.48,1.48,0,0,0,0,.93.73.73,0,0,0,.72.52A.69.69,0,0,0,18.2,17,4.4,4.4,0,0,0,18.3,16.54Z"/><path d="M20,7.82a1.46,1.46,0,0,1,0,.35,1.11,1.11,0,0,1-1.27.94,1.12,1.12,0,0,1-1-1.13,1.55,1.55,0,0,1,.25-1.09,1.23,1.23,0,0,1,1.33-.36,1.13,1.13,0,0,1,.75,1A2.72,2.72,0,0,1,20,7.82Zm-.36,0a4.75,4.75,0,0,0-.14-.57.73.73,0,0,0-1.34,0,1.39,1.39,0,0,0,0,1.13.67.67,0,0,0,.68.41.65.65,0,0,0,.65-.41C19.54,8.19,19.57,8,19.62,7.81Z"/><path d="M13.81,17.76V15.31c.43,0,.84,0,1.25,0a.78.78,0,0,1,.68.53,1.73,1.73,0,0,1-.06,1.44.8.8,0,0,1-.76.48Zm.39-.3h.58a.58.58,0,0,0,.56-.38,1.43,1.43,0,0,0,0-1.13.56.56,0,0,0-.32-.3,5.59,5.59,0,0,0-.83-.06Z"/><path d="M22.11,6.57h.38c0,.07,0,.12,0,.17,0,.56,0,1.12,0,1.67a.69.69,0,0,1-.64.66,1.27,1.27,0,0,1-.34,0c-.62,0-.92-.29-.93-.91s0-1,0-1.49c0,0,0-.07,0-.12h.38c0,.06,0,.13,0,.19V8a1.58,1.58,0,0,0,0,.38.44.44,0,0,0,.47.4c.34,0,.52-.09.59-.35a1.47,1.47,0,0,0,0-.36V6.63S22.1,6.61,22.11,6.57Z"/><path d="M20,13.39h-.13c-.22,0-.35-.05-.37-.27s-.14-.29-.36-.27a4.42,4.42,0,0,1-.63,0c-.12,0-.19,0-.21.15l0,.08c-.11.33-.11.33-.49.29a1.21,1.21,0,0,1,.05-.18c.24-.69.5-1.39.73-2.09.07-.21.21-.17.36-.18s.24,0,.3.18c.23.69.48,1.38.72,2.07A1.91,1.91,0,0,1,20,13.39Zm-1.09-2.1h-.05l-.4,1.25h.84Z"/><path d="M17.37,11.63c-.24,0-.4,0-.53-.19a.64.64,0,0,0-1,0,1.41,1.41,0,0,0-.06,1.39.66.66,0,0,0,1.15-.05c.08-.16.09-.16.41-.11a1,1,0,0,1-1.19.78,1,1,0,0,1-.86-.76,1.74,1.74,0,0,1,.05-1.17.93.93,0,0,1,.8-.63,1,1,0,0,1,1.09.39A1.77,1.77,0,0,1,17.37,11.63Z"/><path d="M16.21,7.8l.42-.93c.16-.34.16-.34.58-.28-.18.33-.33.66-.52,1a1.69,1.69,0,0,0-.29,1.15c0,.1,0,.2,0,.31H16a4.25,4.25,0,0,1,0-.51,1.32,1.32,0,0,0-.2-.78c-.22-.37-.42-.75-.63-1.13.39-.09.44-.07.59.26S16.05,7.45,16.21,7.8Z"/><path d="M22.65,6.52c.3.12.45.27.42.6a9.61,9.61,0,0,0,0,1.2c.05,1-.66,1.27-1.42,1.11a2.13,2.13,0,0,1-.35-.14A4.17,4.17,0,0,0,22,9.2a.82.82,0,0,0,.64-.86V6.52Z"/><path d="M21,15.62v-.31H23c.06.29.05.3-.24.3h-.52v2.14h-.39V15.62Z"/><path d="M18.31,15.34a1.18,1.18,0,0,1,.77.7,2.09,2.09,0,0,1,.08,1.26,1.2,1.2,0,0,1-1.41.95c-.39-.06-.41-.06-.61-.28.66.06,1.3.06,1.59-.65A1.65,1.65,0,0,0,18.31,15.34Z"/><path d="M23.43,15.94H23c-.29,0-.29,0-.29.28v1.87a1.09,1.09,0,0,1-.87-.16h.52V15.79h.77v-.45C23.45,15.43,23.47,15.47,23.43,15.94Z"/><path d="M22.68,11a.47.47,0,0,1,.41.53c0,.67,0,1.33,0,2v.28l-.82-.11v-.08h.42Z"/><path d="M19.78,6.71a1.06,1.06,0,0,1,.65,1,3.13,3.13,0,0,0,0,.53,1.11,1.11,0,0,1-1.28,1.2.9.9,0,0,1-.72-.22,7.29,7.29,0,0,0,.81,0A.87.87,0,0,0,20,8.67,1.71,1.71,0,0,0,19.78,6.71Z"/><path d="M17.45,6.54l.32.23c-.2.35-.38.7-.59,1A1.76,1.76,0,0,0,16.85,9c0,.1,0,.2,0,.34l-.76-.1V9.2h.49c0-.32,0-.62,0-.92A.85.85,0,0,1,16.67,8C16.92,7.49,17.18,7,17.45,6.54Z"/><path d="M20.21,15.3h.37v2.45h-.37Z"/><path d="M15.72,15.51c.39.16.5.35.43.7a1.79,1.79,0,0,0,.09,1,.53.53,0,0,1,0,.28,1,1,0,0,1-.92.65c-.34,0-.68,0-1,0a1.4,1.4,0,0,1-.4-.11v0c.3,0,.6,0,.9,0a1,1,0,0,0,1-.66A1.76,1.76,0,0,0,15.72,15.51Z"/><path d="M21,15.84a.52.52,0,0,1,.18.46c0,.52,0,1,0,1.55v.25a1.34,1.34,0,0,1-.84-.12l0,0c.41,0,.41,0,.41-.42V15.38h.06l.06.23a1.55,1.55,0,0,0,.07.23Z"/><path d="M21.12,6.51c.38.14.38.14.38.49V8.64a.33.33,0,0,1-.35-.27,1.73,1.73,0,0,1,0-.32Z"/><path d="M19.44,10.87a1.48,1.48,0,0,1,.21.3c.24.65.47,1.31.69,2a1.84,1.84,0,0,1,.08.42l.28.14,0,.08-.92-.08v-.09h.52l-.93-2.68Z"/><path d="M16,13.61a1.19,1.19,0,0,0,1.48-1c.14.09.31.11.23.36A1.06,1.06,0,0,1,16,13.61Z"/><path d="M16.75,11.56c-.57.26-.69.56-.56,1.42a1.94,1.94,0,0,1-.25-.23A1.12,1.12,0,0,1,16,11.56.47.47,0,0,1,16.75,11.56Z"/><path d="M23.55,15.31H24L23.88,17l-.06,0s-.1-.07-.1-.11C23.66,16.41,23.61,15.87,23.55,15.31Z"/><path d="M21.05,13.55V12a.89.89,0,0,1,.32.66c0,.34,0,.69,0,1a.63.63,0,0,1-.67-.17Z"/><path d="M24.2,15.35c.3.14.25.42.21.67s-.16.77-.25,1.15c0,0-.06.11-.1.11s-.22,0-.33,0v-.07l.26,0Z"/><path d="M17.85,13.58l0,0a.44.44,0,0,0,.58-.42c0-.05.11-.11.17-.12a3.37,3.37,0,0,1,.55,0c.06,0,.12.06.21.1l-.08.05c-.36-.08-.55.09-.62.44a.18.18,0,0,1-.13.11A1,1,0,0,1,17.85,13.58Z"/><path d="M17.93,12a1,1,0,0,1-.9-.23h.56l-.14-.49A.88.88,0,0,1,17.93,12Z"/><path d="M21.22,10.92A2.72,2.72,0,0,1,22,12.3l-.07,0L21.16,11Z"/><path d="M15.76,6.5c.52.27.67.57.47.93Z"/><path d="M23.65,17.93h.46v-.48c.29.17.11.4.18.61C24.07,18,23.86,18.13,23.65,17.93Z"/><path d="M23.62,17.42H24v.33h-.35Z"/><path d="M21,15.84h0c.21-.12.63-.08.67.08A.94.94,0,0,1,21,15.84Z"/><path d="M17.91,15.89c-.59.16-.7.5-.49,1.53-.11-.09-.2-.13-.27-.2A1.1,1.1,0,0,1,17,15.94.55.55,0,0,1,17.91,15.89Z"/><path d="M18.67,8.64a.88.88,0,0,1-.46-1c0-.27.11-.53.42-.63a.65.65,0,0,1,.68.16c-.36.06-.63.2-.66.57A6.58,6.58,0,0,0,18.67,8.64Z"/><path d="M15.12,15.93h-.39v1.36h-.35V15.78C14.73,15.7,15,15.74,15.12,15.93Z"/><path d="M18.92,11.79a4.74,4.74,0,0,1,.15.5s-.07.12-.12.14a1,1,0,0,1-.25,0l.18-.63Z"/></g><path class="cls-4" d="M27.57,17.94l1.19,4-3.94-1.2L24.49,24h-1c-.07,0-.15-.07-.22-.12L21.24,22.2l-.1.17c-.27.5-.54,1-.8,1.49a.25.25,0,0,1-.26.16H18.49a.26.26,0,0,1-.27-.17c-.28-.55-.57-1.09-.87-1.65l-.7.56-1.41,1.16a.26.26,0,0,1-.16.09h-1l-.32-3.31L9.82,21.9l1.19-4-4.1-.4,2.61-3.2L5.89,12.39l3.63-2L6.91,7.24l4.1-.4-1.19-4,3.94,1.2L14.08.76c.34,0,.68,0,1,0,.05,0,.1.07.15.11l2,1.61.13.09L18.23.92a.27.27,0,0,1,.29-.17c.51,0,1,0,1.54,0a.27.27,0,0,1,.28.16c.26.5.52,1,.79,1.48l.1.19C21.9,2,22.56,1.5,23.2,1a.74.74,0,0,1,.58-.2c.23,0,.46,0,.71,0l.33,3.33,3.94-1.2-1.19,4,4.1.4-2.62,3.2,3.63,2-3.63,1.95,2.62,3.2ZM30,12.39l-2.89-1.55,2.08-2.55L25.88,8l.95-3.15-3.14.95-.32-3.28L20.84,4.58l-1.55-2.9-1.55,2.9L15.2,2.49l-.32,3.28-3.13-.95L12.69,8l-3.26.32,2.08,2.55L8.62,12.39l2.89,1.55L9.43,16.49l3.26.32L11.74,20,14.88,19l.32,3.28,2.54-2.09,1.55,2.9,1.55-2.9,2.53,2.09L23.69,19l3.14.95-.95-3.15,3.27-.32-2.08-2.55Z"/><path class="cls-4" d="M30.9,14.71l4.32-2.32L30.9,10.07,34,6.27l-4.87-.49,1.42-4.7L25.87,2.5,25.7.79H27l1.21,0H32c-.2.68-.4,1.33-.59,2S31,4,30.78,4.69l5.68.56L32.84,9.68l.19.11,4.23,2.27c.14.07.24.14.24.33s-.11.26-.25.34L33.06,15l-.22.12,3.62,4.43-5.68.56L32,24h-2.1c-.7,0-1.4,0-2.1,0s-1.35,0-2.06,0l.16-1.73,4.69,1.42L29.13,19,34,18.52Z"/><path class="cls-4" d="M6.62,24,7.8,20.09l-5.69-.56L5.74,15.1,3.09,13.68c-.58-.32-1.16-.64-1.75-.94a.25.25,0,0,1-.14-.31c0-.14-.06-.29.14-.39,1.38-.73,2.76-1.48,4.14-2.22l.26-.14L2.11,5.25,7.8,4.69,6.61.75H8.72c.69,0,1.39,0,2.09,0s1.37,0,2.07,0L12.71,2.5,8,1.08l1.42,4.7-4.88.49,3.11,3.8L3.35,12.39l4.32,2.32-3.11,3.8L9.44,19,8,23.7l4.69-1.42L12.88,24H6.62Z"/><path class="cls-4" d="M37.48,4.18,32.3,3.67a.75.75,0,0,1,0-.16L33.12.92c0-.13.1-.18.23-.17.3,0,.61,0,.93,0l-.59,2,3.79.37Z"/><path class="cls-4" d="M37.48,21.67l-3.8.38.59,2h-1s-.1-.07-.12-.12c-.28-.91-.56-1.83-.84-2.78l5.19-.51Z"/><path class="cls-4" d="M4.89,2.74,4.3.77H5.41l.88,2.9-5.08.5V3.1Z"/><path class="cls-4" d="M5.41,24H4.3l.59-2L1.2,21.68V20.61l5.08.5Z"/><path class="cls-4" d="M34.62,15.45l2.87-1.54c0,.4,0,.76,0,1.11a.34.34,0,0,1-.14.18l-1.07.58c0,.06.08.12.12.17.33.4.67.8,1,1.21a.3.3,0,0,1,.1.18V19Z"/><path class="cls-4" d="M34.62,9.33l2.87-3.51V7.46s-.06.11-.09.16L36.27,9c.36.19.69.38,1,.55a.3.3,0,0,1,.19.33c0,.31,0,.63,0,1Z"/><path class="cls-4" d="M2.31,15.78l-1-.52A.23.23,0,0,1,1.19,15c0-.33,0-.67,0-1L4,15.45,1.2,18.82c0-.58,0-1.1,0-1.62A.34.34,0,0,1,1.29,17Z"/><path class="cls-4" d="M1.2,10.81c0-.4,0-.77,0-1.13,0-.06.08-.13.14-.16L2.3,9c-.31-.38-.6-.76-.91-1.12a.71.71,0,0,1-.2-.53c0-.44,0-.89,0-1.39L4,9.33Z"/><path class="cls-4" d="M21.1,11.64v1.94h-.36V11.17c.36-.1.44-.07.61.23.31.55.63,1.1,1,1.65V11.14h.37v2.43c-.4.06-.4.06-.59-.27l-1-1.68Z"/><path class="cls-4" d="M18.88,16.74a2.9,2.9,0,0,1,0,.38,1.17,1.17,0,0,1-2.31-.19,1.49,1.49,0,0,1,.28-1.14,1.18,1.18,0,0,1,1.3-.32,1.05,1.05,0,0,1,.74.94A2.5,2.5,0,0,1,18.88,16.74Zm-.38,0c0-.17-.05-.32-.09-.47a.74.74,0,0,0-1.42,0,1.41,1.41,0,0,0,0,.93.72.72,0,0,0,.72.52.69.69,0,0,0,.69-.52C18.45,17.05,18.46,16.89,18.5,16.74Z"/><path class="cls-4" d="M20.18,8a2.36,2.36,0,0,1,0,.35,1.17,1.17,0,0,1-2.31-.19,1.55,1.55,0,0,1,.25-1.09,1.23,1.23,0,0,1,1.33-.36,1.13,1.13,0,0,1,.75,1C20.17,7.81,20.18,7.9,20.18,8Zm-.36,0c-.05-.19-.08-.39-.14-.56A.67.67,0,0,0,19,7a.7.7,0,0,0-.69.44,1.37,1.37,0,0,0,0,1.12A.66.66,0,0,0,19,9a.64.64,0,0,0,.65-.41A3.7,3.7,0,0,0,19.82,8Z"/><path class="cls-4" d="M14,18V15.51c.43,0,.84,0,1.25,0a.76.76,0,0,1,.68.53,1.73,1.73,0,0,1-.06,1.44.83.83,0,0,1-.76.48Zm.39-.3H15a.6.6,0,0,0,.56-.38,1.43,1.43,0,0,0,0-1.13.56.56,0,0,0-.32-.3,4.51,4.51,0,0,0-.83-.06Z"/><path class="cls-4" d="M22.31,6.77h.38c0,.06,0,.12,0,.17,0,.56,0,1.12,0,1.67a.68.68,0,0,1-.63.66,2,2,0,0,1-.34,0,.83.83,0,0,1-.94-.92c0-.49,0-1,0-1.48a.57.57,0,0,1,0-.12h.38c0,.06,0,.13,0,.19V8.2a2.34,2.34,0,0,0,0,.38.47.47,0,0,0,.48.4c.34,0,.52-.09.59-.35a2.2,2.2,0,0,0,0-.36V6.83S22.3,6.81,22.31,6.77Z"/><path class="cls-4" d="M20.22,13.58h-.13c-.22.05-.35,0-.37-.26s-.14-.29-.36-.27a4.42,4.42,0,0,1-.63,0c-.12,0-.19,0-.21.15l0,.08c-.11.33-.11.33-.5.29l.06-.18c.24-.69.5-1.39.73-2.09.07-.21.21-.17.36-.18s.24,0,.3.18c.23.69.48,1.38.72,2.07C20.18,13.44,20.2,13.5,20.22,13.58Zm-1.09-2.09h-.05l-.4,1.25h.84Z"/><path class="cls-4" d="M17.57,11.83c-.24,0-.4,0-.54-.19a.64.64,0,0,0-1,0A1.43,1.43,0,0,0,16,13,.65.65,0,0,0,17.1,13c.09-.15.09-.15.42-.11a1,1,0,0,1-1.19.79,1,1,0,0,1-.86-.77,1.77,1.77,0,0,1,0-1.16,1,1,0,0,1,.81-.64,1.07,1.07,0,0,1,1.09.4A2.68,2.68,0,0,1,17.57,11.83Z"/><path class="cls-4" d="M16.41,8l.42-.93c.15-.34.15-.34.58-.28-.18.32-.33.66-.52,1a1.72,1.72,0,0,0-.29,1.16c0,.1,0,.2,0,.31h-.41a4.47,4.47,0,0,1,0-.52A1.25,1.25,0,0,0,16,7.93c-.22-.37-.41-.75-.62-1.13.39-.1.43-.08.59.26Z"/><path class="cls-4" d="M22.85,6.72c.3.12.45.27.42.6a9.59,9.59,0,0,0,0,1.2c0,1-.66,1.27-1.42,1.11a2.13,2.13,0,0,1-.35-.14,5.67,5.67,0,0,0,.72-.09.82.82,0,0,0,.64-.86V6.72Z"/><path class="cls-4" d="M21.24,15.82v-.31h1.94c.06.29.05.3-.24.3h-.52V18H22V15.82Z"/><path class="cls-4" d="M18.51,15.53a1.2,1.2,0,0,1,.77.7,2.12,2.12,0,0,1,.08,1.27,1.21,1.21,0,0,1-1.41.95c-.39-.06-.41-.06-.61-.29.66.07,1.3.07,1.58-.65A1.65,1.65,0,0,0,18.51,15.53Z"/><path class="cls-4" d="M23.63,16.14h-.41c-.29,0-.29,0-.29.28v1.87a1.16,1.16,0,0,1-.88-.16h.53V16h.76v-.44C23.65,15.63,23.67,15.67,23.63,16.14Z"/><path class="cls-4" d="M22.88,11.16a.47.47,0,0,1,.41.53c0,.66,0,1.33,0,2V14l-.82-.11v-.08h.42Z"/><path class="cls-4" d="M20,6.91c.36.23.68.49.65,1a3.13,3.13,0,0,0,0,.53,1.11,1.11,0,0,1-1.28,1.2c-.27,0-.55,0-.72-.22.25,0,.53,0,.81,0a.9.9,0,0,0,.72-.53A1.71,1.71,0,0,0,20,6.91Z"/><path class="cls-4" d="M17.65,6.74,18,7c-.2.35-.38.7-.6,1a1.81,1.81,0,0,0-.32,1.25c0,.1,0,.19,0,.34l-.77-.1V9.4h.49c0-.32,0-.62,0-.92a.89.89,0,0,1,.08-.32Z"/><path class="cls-4" d="M20.41,15.5h.37V18h-.37Z"/><path class="cls-4" d="M15.92,15.7c.39.17.5.35.43.7a1.92,1.92,0,0,0,.08,1,.54.54,0,0,1,0,.28.93.93,0,0,1-.93.64c-.33,0-.67,0-1,0a2.08,2.08,0,0,1-.41-.11l0-.06H15a1,1,0,0,0,1-.67A1.76,1.76,0,0,0,15.92,15.7Z"/><path class="cls-4" d="M21.2,16a.53.53,0,0,1,.19.46c0,.51,0,1,0,1.55v.24a1.25,1.25,0,0,1-.83-.11l.05,0c.41,0,.41,0,.41-.42V15.58h.06l.06.23.06.23Z"/><path class="cls-4" d="M21.32,6.71c.37.14.37.14.37.48V8.84a.32.32,0,0,1-.34-.27,1.73,1.73,0,0,1,0-.32Z"/><path class="cls-4" d="M19.64,11.07a1.42,1.42,0,0,1,.21.29c.24.66.46,1.32.69,2,0,.13.05.27.08.42l.28.13,0,.08L20,13.89v-.08h.53l-.93-2.68Z"/><path class="cls-4" d="M16.24,13.81a1.19,1.19,0,0,0,1.48-1c.13.09.31.11.23.36A1.06,1.06,0,0,1,16.24,13.81Z"/><path class="cls-4" d="M17,11.76c-.57.26-.69.55-.56,1.42a1.94,1.94,0,0,1-.25-.23,1.12,1.12,0,0,1,.07-1.19A.47.47,0,0,1,17,11.76Z"/><path class="cls-4" d="M23.75,15.51h.47l-.14,1.72-.06,0s-.1-.07-.11-.11C23.85,16.61,23.8,16.07,23.75,15.51Z"/><path class="cls-4" d="M21.25,13.75V12.24a.93.93,0,0,1,.32.66c0,.34,0,.69,0,1a.63.63,0,0,1-.67-.17Z"/><path class="cls-4" d="M24.4,15.55c.3.14.25.42.21.66s-.17.77-.26,1.16c0,0-.05.11-.09.11s-.22,0-.33,0v-.08l.27,0Z"/><path class="cls-4" d="M18.05,13.78l0,0a.44.44,0,0,0,.58-.42.22.22,0,0,1,.17-.12,3.37,3.37,0,0,1,.55,0c.06,0,.12,0,.21.1l-.08,0c-.36-.08-.55.09-.63.44a.19.19,0,0,1-.12.11A1,1,0,0,1,18.05,13.78Z"/><path class="cls-4" d="M18.13,12.23a1,1,0,0,1-.9-.23h.56l-.14-.49A.88.88,0,0,1,18.13,12.23Z"/><path class="cls-4" d="M21.42,11.11a2.79,2.79,0,0,1,.82,1.39l-.07,0-.81-1.39Z"/><path class="cls-4" d="M16,6.7c.52.27.67.57.47.93Z"/><path class="cls-4" d="M23.85,18.12h.46v-.47c.28.17.11.4.18.6C24.26,18.23,24.06,18.33,23.85,18.12Z"/><path class="cls-4" d="M23.82,17.61h.35v.33h-.35Z"/><path class="cls-4" d="M21.2,16h0c.22-.12.64-.08.68.08A1,1,0,0,1,21.2,16Z"/><path class="cls-4" d="M18.1,16.09c-.59.16-.7.5-.48,1.53-.11-.09-.2-.13-.27-.2a1.1,1.1,0,0,1-.11-1.28A.53.53,0,0,1,18.1,16.09Z"/><path class="cls-4" d="M18.87,8.84a.91.91,0,0,1-.47-1c.05-.26.12-.53.43-.62a.65.65,0,0,1,.68.16c-.36,0-.63.2-.66.57A6.58,6.58,0,0,0,18.87,8.84Z"/><path class="cls-4" d="M15.32,16.12h-.39v1.37h-.35V16C14.93,15.9,15.17,15.94,15.32,16.12Z"/><path class="cls-4" d="M19.12,12c.05.17.11.33.15.5s-.07.12-.12.14a1.12,1.12,0,0,1-.26,0l.19-.63Z"/></g></g></svg>