<svg xmlns="http://www.w3.org/2000/svg" viewBox="0 0 38.55 24.66"><defs><style>.cls-1{isolation:isolate;}.cls-2{opacity:0.15;}.cls-2,.cls-3{mix-blend-mode:multiply;}.cls-4{fill:#fff;}</style></defs><title>convert-FIX-SVG-03</title><g class="cls-1"><g id="Layer_1" data-name="Layer 1"><g class="cls-2"><path d="M12.6,13.39c.76,0,1.51,0,2.26.1a1.65,1.65,0,0,1,1.34,1.56,1.75,1.75,0,0,1-.62,1.6,1.65,1.65,0,0,1-1,.36,19.53,19.53,0,0,1-2,0s.08-.11.13-.11c.37-.06.43-.12.43-.5V14.08c0-.35-.05-.48-.42-.5-.05,0-.09-.07-.14-.1Zm1.06.21v2.79a.42.42,0,0,0,0,.2c.05.08.11.17.19.19a1.21,1.21,0,0,0,1.49-.58,2.36,2.36,0,0,0,.13-1.55,1.22,1.22,0,0,0-1.07-1A5,5,0,0,0,13.66,13.6Z"/><path d="M20.58,15.21a1.92,1.92,0,0,1-3.84,0,1.82,1.82,0,0,1,1.92-1.9A1.82,1.82,0,0,1,20.58,15.21Zm-.57,0a8.44,8.44,0,0,0-.25-1,1.07,1.07,0,0,0-1.08-.73,1.1,1.1,0,0,0-1.12.7,2.53,2.53,0,0,0,.05,2.15,1.22,1.22,0,0,0,2.09,0A3.33,3.33,0,0,0,20,15.21Z"/><path d="M14.56,9.5a1.84,1.84,0,0,1-1.94,1.89,1.84,1.84,0,0,1-1.89-1.92,1.82,1.82,0,0,1,1.94-1.86A1.81,1.81,0,0,1,14.56,9.5Zm-.56,0c-.09-.33-.14-.67-.26-1a1.06,1.06,0,0,0-1.08-.72,1.1,1.1,0,0,0-1.11.69,2.48,2.48,0,0,0,0,2.16,1.07,1.07,0,0,0,1.05.59,1.1,1.1,0,0,0,1-.59A3.32,3.32,0,0,0,14,9.48Z"/><path d="M30.91,10.4c0-.72,0-1.44,0-2.17a.32.32,0,0,0-.3-.34.66.66,0,0,1-.2-.11l0-.07h1.2l0,0c-.05,0-.09.1-.15.11-.27.07-.37.17-.37.45,0,.93,0,1.85,0,2.78v.21c-.17.08-.25,0-.33-.11L29.72,9.67,28.66,8.18l0,0c0,.81,0,1.62,0,2.43,0,.34.08.4.4.5a.45.45,0,0,1,.13.11l0,0H27.9l0,0c.05,0,.08-.1.13-.12.3-.07.4-.15.41-.45,0-.47,0-.95,0-1.42,0-.31,0-.62,0-.93s-.06-.41-.4-.47c-.06,0-.1-.06-.16-.08l0-.08h1c.05,0,.1.06.13.1C29.65,8.66,30.27,9.53,30.91,10.4Z"/><path d="M27.9,11.3H26.38l0-.06c.05,0,.09-.1.14-.1.32,0,.37-.11.24-.41s-.13-.5-.29-.61-.45,0-.68,0-.41,0-.62,0a.26.26,0,0,0-.17.12,5.31,5.31,0,0,0-.23.55c-.1.26,0,.37.25.38.1,0,.19,0,.13.16H23.84c.08-.08.11-.15.16-.15a.6.6,0,0,0,.51-.44c.39-1,.79-1.92,1.19-2.88,0-.08.11-.13.16-.19s.16.11.19.18c.42,1,.84,1.93,1.25,2.89a.61.61,0,0,0,.47.44S27.83,11.22,27.9,11.3ZM25.09,9.85h1.25l-.62-1.56Z"/><path d="M23.37,8a.25.25,0,0,1,0-.07l.17-.18a1,1,0,0,1,.06.22c0,.31,0,.61,0,.91,0,.05,0,.1-.06.15s-.1-.06-.12-.11-.11-.29-.18-.42a1.16,1.16,0,0,0-1.18-.66,1.09,1.09,0,0,0-1,.76,2.35,2.35,0,0,0-.06,1.65,1.2,1.2,0,0,0,1.05.92,1.59,1.59,0,0,0,1.5-.85l.17.1a1.79,1.79,0,0,1-2.3.91,1.88,1.88,0,0,1-1-2.53C21,7.63,22,7.34,23.37,8Z"/><path d="M16.51,7.77c-.5.08-.57.16-.57.61s0,1.14,0,1.72a3.31,3.31,0,0,0,.06.54.58.58,0,0,0,.51.5c.68.14,1.16-.05,1.2-.77s0-1.42,0-2.14c0-.25-.17-.35-.39-.39a.44.44,0,0,1-.15-.1.58.58,0,0,1,.17-.06h1a.34.34,0,0,1,.15.07.6.6,0,0,1-.13.09C18,7.93,18,8,18,8.37c0,.66,0,1.32,0,2a.93.93,0,0,1-1.05,1,3.92,3.92,0,0,1-.59,0,.89.89,0,0,1-.86-1c0-.65,0-1.3,0-1.95,0-.49-.05-.54-.6-.61.08-.07.13-.13.17-.13h1.4S16.47,7.74,16.51,7.77Z"/><path d="M6.88,7.7H8.3s.07,0,.12.09l-.06,0c-.41,0-.43.09-.22.45l.7,1.2.82-1.38c.08-.12,0-.2-.11-.23s-.16,0-.23,0-.09-.06-.13-.09l0,0h1.24l0,0c-.05,0-.09.11-.14.11a.73.73,0,0,0-.52.36c-.27.46-.55.9-.82,1.36a.4.4,0,0,0-.07.21v.94c0,.28.09.37.38.4.11,0,.19,0,.13.16H7.89l0,0s.09-.1.14-.1c.34-.06.4-.12.41-.45,0,0,0,0,0,0a2.19,2.19,0,0,0-.5-1.75,5.76,5.76,0,0,1-.46-.71A.65.65,0,0,0,7,7.86s-.09-.07-.14-.1Z"/><path d="M25.6,13.58h-.5c-.48,0-.6.09-.78.53a2.14,2.14,0,0,1-.13.19l-.08,0c0-.13,0-.27,0-.41s0-.27.05-.42h3.32l.08.82-.06,0a1.42,1.42,0,0,1-.12-.13c-.07-.11-.09-.24-.17-.32a.82.82,0,0,0-.38-.24,4.66,4.66,0,0,0-.75,0c0,.07,0,.14,0,.2v2.56c0,.39.06.44.44.51.05,0,.08.06.13.1l0,.05H25.06L25,17s.09-.1.14-.11c.35-.05.42-.12.43-.47v-2.8Z"/><path d="M24,17H22.45l-.05,0c.05,0,.08-.11.13-.11.37-.06.43-.12.43-.49V14.06c0-.36-.05-.42-.41-.48a.6.6,0,0,1-.15-.09l0-.06H24l0,0c-.05,0-.09.1-.14.11-.37.07-.41.12-.41.5v2.28c0,.37.06.44.42.49a.33.33,0,0,1,.14.1Z"/><path d="M36.39,18.89a.54.54,0,0,1-.52.54.53.53,0,1,1,.52-.54Z"/><path d="M3.18,18.91a.53.53,0,0,1-1.05,0,.54.54,0,0,1,.52-.51A.55.55,0,0,1,3.18,18.91Z"/><path d="M28.21,19.43a.55.55,0,0,1-.53-.53.53.53,0,0,1,.51-.52.53.53,0,1,1,0,1.05Z"/><path d="M20.54,18.38a.53.53,0,0,1,.52.53.52.52,0,0,1-1,0A.53.53,0,0,1,20.54,18.38Z"/><path d="M13.39,18.91a.53.53,0,0,1-.52.52.53.53,0,0,1,0-1.05A.52.52,0,0,1,13.39,18.91Z"/><path d="M10.32,18.38a.54.54,0,0,1,.52.53.52.52,0,0,1-1,0A.52.52,0,0,1,10.32,18.38Z"/><path d="M5.73,18.91a.52.52,0,0,1-1,0,.52.52,0,1,1,1,0Z"/><path d="M8.28,4.39a.52.52,0,1,1-1,0,.52.52,0,0,1,1,0Z"/><path d="M17.47,18.91a.52.52,0,0,1,.51-.53.52.52,0,0,1,.52.53.52.52,0,0,1-.51.51A.51.51,0,0,1,17.47,18.91Z"/><path d="M25.66,21.21a.51.51,0,0,1,.51.51.52.52,0,1,1-.51-.51Z"/><path d="M15.42,3.88a.49.49,0,0,1,.52.49.51.51,0,0,1-.5.54.5.5,0,0,1-.52-.52A.49.49,0,0,1,15.42,3.88Z"/><path d="M18,22.24a.52.52,0,1,1,0-1,.51.51,0,0,1,.52.52A.52.52,0,0,1,18,22.24Z"/><path d="M18,2.09a.52.52,0,0,1-.52-.5.51.51,0,0,1,.5-.54.52.52,0,0,1,0,1Z"/><path d="M23.61,4.39a.51.51,0,0,1-.53.52.51.51,0,0,1-.5-.52.52.52,0,0,1,1,0Z"/><path d="M2.65,2.09a.53.53,0,0,1-.52-.53.54.54,0,0,1,.52-.51.54.54,0,0,1,.53.52A.53.53,0,0,1,2.65,2.09Z"/><path d="M12.88,1.05a.52.52,0,0,1,.51.54.51.51,0,0,1-.53.49.51.51,0,0,1-.51-.51A.52.52,0,0,1,12.88,1.05Z"/><path d="M20.54,2.09A.53.53,0,0,1,20,1.56a.52.52,0,0,1,.51-.51.52.52,0,1,1,0,1Z"/><path d="M28.21,2.08a.51.51,0,0,1-.53-.51.53.53,0,0,1,1.05,0A.52.52,0,0,1,28.21,2.08Z"/><path d="M2.64,22.24a.52.52,0,1,1,.54-.52A.53.53,0,0,1,2.64,22.24Z"/><path d="M25.65,4.91a.52.52,0,0,1-.52-.53.51.51,0,0,1,.52-.5.51.51,0,0,1,.52.5A.52.52,0,0,1,25.65,4.91Z"/><path d="M28.2,4.91a.53.53,0,0,1-.52-.51.53.53,0,0,1,1.05,0A.53.53,0,0,1,28.2,4.91Z"/><path d="M35.86,4.91a.53.53,0,0,1-.51-.52.52.52,0,0,1,1,0A.52.52,0,0,1,35.86,4.91Z"/><path d="M25.13,18.9a.53.53,0,0,1,.51-.52.53.53,0,1,1-.51.52Z"/><path d="M30.76,22.24a.49.49,0,0,1-.51-.52.5.5,0,0,1,.51-.51.49.49,0,0,1,.51.5A.5.5,0,0,1,30.76,22.24Z"/><path d="M35.87,21.21a.52.52,0,1,1,0,1,.52.52,0,1,1,0-1Z"/><path d="M33.83,21.73a.51.51,0,0,1-.54.51.51.51,0,0,1-.49-.53.5.5,0,0,1,.53-.5A.51.51,0,0,1,33.83,21.73Z"/><path d="M10.31,2.08a.51.51,0,0,1-.51-.51.52.52,0,1,1,1,0A.52.52,0,0,1,10.31,2.08Z"/><path d="M5.2,2.09a.52.52,0,1,1,.53-.5A.52.52,0,0,1,5.2,2.09Z"/><path d="M10.32,22.24a.52.52,0,0,1-.52-.53.51.51,0,0,1,.52-.5.52.52,0,1,1,0,1Z"/><path d="M12.86,22.24a.53.53,0,0,1-.51-.52.52.52,0,0,1,.54-.51.52.52,0,0,1,0,1Z"/><path d="M10.31,4.91a.52.52,0,0,1-.51-.53.52.52,0,0,1,1,0A.52.52,0,0,1,10.31,4.91Z"/><path d="M13.39,4.39a.52.52,0,1,1-1,0,.52.52,0,0,1,.54-.51A.5.5,0,0,1,13.39,4.39Z"/><path d="M23.61,21.72a.52.52,0,1,1-.51-.51A.5.5,0,0,1,23.61,21.72Z"/><path d="M18,4.91a.51.51,0,0,1-.52-.53.5.5,0,0,1,.51-.5.5.5,0,0,1,.52.52A.52.52,0,0,1,18,4.91Z"/><path d="M20.52,22.24a.51.51,0,0,1-.5-.52.52.52,0,1,1,.5.52Z"/><path d="M28.19,22.24a.53.53,0,0,1-.51-.52.53.53,0,1,1,.51.52Z"/><path d="M33.31,4.91a.52.52,0,0,1-.51-.53.52.52,0,0,1,1,0A.51.51,0,0,1,33.31,4.91Z"/><path d="M35.87,2.09a.52.52,0,0,1-.52-.52.52.52,0,0,1,1,0A.53.53,0,0,1,35.87,2.09Z"/><path d="M8.28,1.57a.49.49,0,0,1-.52.51.5.5,0,0,1-.51-.51.52.52,0,1,1,1,0Z"/><path d="M5.73,21.73a.52.52,0,0,1-1,0,.52.52,0,0,1,1,0Z"/><path d="M15.94,1.57a.51.51,0,1,1-1,0,.5.5,0,0,1,.52-.52A.51.51,0,0,1,15.94,1.57Z"/><path d="M23.61,1.58a.52.52,0,0,1-1,0,.51.51,0,0,1,.51-.51A.52.52,0,0,1,23.61,1.58Z"/><path d="M25.64,1.05a.52.52,0,1,1-.51.54A.52.52,0,0,1,25.64,1.05Z"/><path d="M15.94,18.9a.52.52,0,0,1-.51.53.53.53,0,0,1-.51-.52.51.51,0,0,1,.51-.53A.52.52,0,0,1,15.94,18.9Z"/><path d="M33.32,2.08a.5.5,0,0,1-.52-.49.53.53,0,0,1,.51-.54.52.52,0,0,1,.52.52A.5.5,0,0,1,33.32,2.08Z"/><path d="M30.24,18.91a.52.52,0,1,1,1,0,.52.52,0,1,1-1,0Z"/><path d="M2.65,3.88a.52.52,0,0,1,.53.5.53.53,0,0,1-.53.53.52.52,0,0,1-.52-.53A.51.51,0,0,1,2.65,3.88Z"/><path d="M5.73,4.39a.52.52,0,1,1-.51-.51A.5.5,0,0,1,5.73,4.39Z"/><path d="M20.53,4.91A.52.52,0,0,1,20,4.4a.52.52,0,0,1,1,0A.53.53,0,0,1,20.53,4.91Z"/><path d="M30.75,4.91a.51.51,0,0,1-.5-.51.51.51,0,1,1,1,0A.5.5,0,0,1,30.75,4.91Z"/><path d="M23.61,18.9a.52.52,0,1,1-.51-.52A.52.52,0,0,1,23.61,18.9Z"/><path d="M8.28,18.9a.52.52,0,1,1-.51-.52A.52.52,0,0,1,8.28,18.9Z"/><path d="M33.83,18.89a.53.53,0,0,1-.52.54.53.53,0,1,1,.52-.54Z"/><path d="M31.27,1.56a.51.51,0,1,1-1,0,.51.51,0,1,1,1,0Z"/><path d="M7.75,22.24a.52.52,0,0,1,0-1,.52.52,0,1,1,0,1Z"/><path d="M15.94,21.72a.51.51,0,1,1-1,0,.49.49,0,0,1,.51-.52A.5.5,0,0,1,15.94,21.72Z"/><path d="M24.39,23.5a.36.36,0,0,1-.36-.36.35.35,0,0,1,.36-.36.35.35,0,0,1,.36.36A.36.36,0,0,1,24.39,23.5Z"/><path d="M14.1,22.78a.35.35,0,0,1,.35.37.36.36,0,0,1-.37.35.35.35,0,0,1-.34-.37A.34.34,0,0,1,14.1,22.78Z"/><path d="M1.58,20.37a.36.36,0,0,1-.35.37.37.37,0,0,1-.37-.35A.36.36,0,0,1,1.22,20,.34.34,0,0,1,1.58,20.37Z"/><path d="M37.25,20a.37.37,0,0,1,.38.35.37.37,0,0,1-.36.37.35.35,0,0,1-.36-.35A.34.34,0,0,1,37.25,20Z"/><path d="M3.79,20a.36.36,0,0,1,.37.35.37.37,0,0,1-.35.37.36.36,0,1,1,0-.72Z"/><path d="M4.16,23.14a.36.36,0,0,1-.36.36.36.36,0,0,1-.36-.36.34.34,0,0,1,.35-.36A.35.35,0,0,1,4.16,23.14Z"/><path d="M11.52,23.5a.39.39,0,0,1-.37-.36.37.37,0,0,1,.73,0A.35.35,0,0,1,11.52,23.5Z"/><path d="M35.05,20.38a.37.37,0,0,1-.37.36.36.36,0,0,1-.35-.37.34.34,0,0,1,.36-.35A.36.36,0,0,1,35.05,20.38Z"/><path d="M27.33,23.13a.37.37,0,0,1-.36.37.35.35,0,0,1-.36-.36.34.34,0,0,1,.35-.36A.37.37,0,0,1,27.33,23.13Z"/><path d="M35.05,5.8a.37.37,0,0,1-.35.37.37.37,0,0,1-.37-.36.34.34,0,0,1,.35-.36A.35.35,0,0,1,35.05,5.8Z"/><path d="M4.16,5.81a.37.37,0,0,1-.37.36.37.37,0,0,1-.35-.37.34.34,0,0,1,.37-.35A.36.36,0,0,1,4.16,5.81Z"/><path d="M16.68,5.45a.35.35,0,0,1,.35.36.37.37,0,0,1-.37.36.37.37,0,0,1-.35-.37A.35.35,0,0,1,16.68,5.45Z"/><path d="M17,20.37a.37.37,0,0,1-.35.37.36.36,0,1,1,.35-.37Z"/><path d="M34.7,23.5a.37.37,0,0,1-.37-.35.36.36,0,0,1,.35-.37.35.35,0,0,1,.37.35A.37.37,0,0,1,34.7,23.5Z"/><path d="M22.17,20.38a.36.36,0,0,1-.36.36.37.37,0,0,1-.36-.36.36.36,0,0,1,.37-.36A.34.34,0,0,1,22.17,20.38Z"/><path d="M27,5.45a.37.37,0,0,1,.37.35.38.38,0,0,1-.36.37.36.36,0,0,1-.36-.36A.34.34,0,0,1,27,5.45Z"/><path d="M24.4,6.17A.37.37,0,0,1,24,5.81a.36.36,0,0,1,.72,0A.37.37,0,0,1,24.4,6.17Z"/><path d="M22.17,5.8a.35.35,0,0,1-.35.37.38.38,0,0,1-.37-.36.36.36,0,0,1,.36-.36A.34.34,0,0,1,22.17,5.8Z"/><path d="M14.45,5.81a.36.36,0,0,1-.36.36.35.35,0,0,1-.35-.37.36.36,0,0,1,.71,0Z"/><path d="M27.33,3.05a.38.38,0,0,1-.38.36A.36.36,0,0,1,26.61,3,.35.35,0,0,1,27,2.69.36.36,0,0,1,27.33,3.05Z"/><path d="M11.53,2.69a.34.34,0,0,1,.35.36.37.37,0,0,1-.37.36A.36.36,0,0,1,11.16,3,.35.35,0,0,1,11.53,2.69Z"/><path d="M37.63,23.15a.38.38,0,0,1-.37.35.36.36,0,0,1,0-.72A.37.37,0,0,1,37.63,23.15Z"/><path d="M1.58,23.14a.35.35,0,0,1-.35.36.37.37,0,0,1-.37-.36.36.36,0,0,1,.36-.36A.35.35,0,0,1,1.58,23.14Z"/><path d="M1.23,6.17a.37.37,0,0,1-.37-.36.35.35,0,0,1,.36-.36.34.34,0,0,1,.36.35A.37.37,0,0,1,1.23,6.17Z"/><path d="M8.94,22.78a.36.36,0,0,1,.37.35A.37.37,0,0,1,9,23.5a.36.36,0,1,1,0-.72Z"/><path d="M27.33,20.38a.37.37,0,0,1-.37.36.35.35,0,0,1-.35-.36A.35.35,0,0,1,27,20,.36.36,0,0,1,27.33,20.38Z"/><path d="M24.75,20.37a.36.36,0,1,1-.72,0,.36.36,0,0,1,.36-.36A.34.34,0,0,1,24.75,20.37Z"/><path d="M19.24,22.78a.36.36,0,1,1,0,.72.37.37,0,0,1-.36-.36A.36.36,0,0,1,19.24,22.78Z"/><path d="M11.52,20.74a.37.37,0,0,1-.37-.36.37.37,0,0,1,.37-.36.35.35,0,0,1,.36.36A.36.36,0,0,1,11.52,20.74Z"/><path d="M14.09,20.74a.36.36,0,0,1-.35-.36.36.36,0,1,1,.71,0A.36.36,0,0,1,14.09,20.74Z"/><path d="M32.12,5.45a.35.35,0,0,1,.35.37.36.36,0,0,1-.37.35.37.37,0,0,1-.35-.37A.36.36,0,0,1,32.12,5.45Z"/><path d="M24.39,2.69a.35.35,0,0,1,.36.36.37.37,0,0,1-.37.36A.38.38,0,0,1,24,3.05.35.35,0,0,1,24.39,2.69Z"/><path d="M32.47,20.39a.35.35,0,0,1-.37.35.37.37,0,0,1-.35-.37.36.36,0,0,1,.72,0Z"/><path d="M19.6,3.05a.37.37,0,0,1-.37.36A.37.37,0,0,1,18.88,3a.36.36,0,0,1,.37-.34A.34.34,0,0,1,19.6,3.05Z"/><path d="M14.45,3.05a.36.36,0,1,1-.71,0,.36.36,0,0,1,.71,0Z"/><path d="M9.31,5.8a.37.37,0,0,1-.73,0,.36.36,0,0,1,.36-.36A.35.35,0,0,1,9.31,5.8Z"/><path d="M6.37,5.45a.36.36,0,0,1,.37.35.38.38,0,0,1-.37.37A.35.35,0,0,1,6,5.82.34.34,0,0,1,6.37,5.45Z"/><path d="M3.79,3.41A.37.37,0,0,1,3.44,3a.34.34,0,0,1,.36-.35.35.35,0,0,1,.36.36A.37.37,0,0,1,3.79,3.41Z"/><path d="M37.63,3.06a.38.38,0,0,1-.38.35A.36.36,0,0,1,36.91,3a.34.34,0,0,1,.36-.33A.36.36,0,0,1,37.63,3.06Z"/><path d="M6.74,23.14a.37.37,0,0,1-.36.36A.35.35,0,0,1,6,23.14a.33.33,0,0,1,.35-.36A.37.37,0,0,1,6.74,23.14Z"/><path d="M6.74,20.37a.38.38,0,0,1-.37.37A.35.35,0,0,1,6,20.4.34.34,0,0,1,6.36,20,.37.37,0,0,1,6.74,20.37Z"/><path d="M8.94,20a.36.36,0,0,1,.37.36.36.36,0,0,1-.36.36.37.37,0,0,1-.37-.36A.36.36,0,0,1,8.94,20Z"/><path d="M19.6,20.38a.36.36,0,0,1-.37.36.37.37,0,0,1-.35-.38.36.36,0,0,1,.36-.34A.35.35,0,0,1,19.6,20.38Z"/><path d="M17,23.13a.36.36,0,0,1-.36.37.35.35,0,0,1-.36-.36.34.34,0,0,1,.35-.36A.36.36,0,0,1,17,23.13Z"/><path d="M34.68,3.41A.37.37,0,0,1,34.33,3a.34.34,0,0,1,.37-.34.35.35,0,0,1,.35.37A.38.38,0,0,1,34.68,3.41Z"/><path d="M21.82,23.5a.37.37,0,0,1-.37-.36.37.37,0,0,1,.37-.36.34.34,0,0,1,.35.36A.35.35,0,0,1,21.82,23.5Z"/><path d="M37.27,6.17a.36.36,0,0,1-.36-.36.33.33,0,0,1,.35-.36.36.36,0,0,1,.37.35A.39.39,0,0,1,37.27,6.17Z"/><path d="M.86,3a.36.36,0,0,1,.39-.34.35.35,0,0,1,.33.39.36.36,0,0,1-.37.33A.37.37,0,0,1,.86,3Z"/><path d="M29.54,23.5a.36.36,0,0,1-.36-.37.35.35,0,0,1,.35-.35.36.36,0,1,1,0,.72Z"/><path d="M11.88,5.81a.36.36,0,1,1-.72,0,.35.35,0,0,1,.37-.35A.34.34,0,0,1,11.88,5.81Z"/><path d="M9,3.41a.38.38,0,0,1-.37-.36.35.35,0,0,1,.36-.36A.36.36,0,0,1,9.31,3,.37.37,0,0,1,9,3.41Z"/><path d="M21.82,3.41a.38.38,0,0,1-.37-.36.36.36,0,0,1,.35-.36.34.34,0,0,1,.37.34A.36.36,0,0,1,21.82,3.41Z"/><path d="M19.25,6.17a.37.37,0,0,1-.37-.36.36.36,0,0,1,.34-.36.35.35,0,0,1,.38.34A.37.37,0,0,1,19.25,6.17Z"/><path d="M32.11,23.5a.37.37,0,0,1-.36-.36.36.36,0,0,1,.36-.36.35.35,0,0,1,.36.36A.36.36,0,0,1,32.11,23.5Z"/><path d="M6.38,3.41A.36.36,0,0,1,6,3.05a.33.33,0,0,1,.33-.36A.36.36,0,0,1,6.74,3,.38.38,0,0,1,6.38,3.41Z"/><path d="M29.9,5.81a.37.37,0,0,1-.37.36.36.36,0,0,1-.35-.38.36.36,0,0,1,.72,0Z"/><path d="M32.47,3a.36.36,0,0,1-.36.37A.37.37,0,0,1,31.75,3a.35.35,0,0,1,.35-.35A.34.34,0,0,1,32.47,3Z"/><path d="M29.9,20.37a.36.36,0,1,1-.72,0,.36.36,0,0,1,.72,0Z"/><path d="M29.9,3.05a.37.37,0,0,1-.37.36A.37.37,0,0,1,29.18,3a.36.36,0,0,1,.72,0Z"/><path d="M17,3.05a.37.37,0,0,1-.36.36A.37.37,0,0,1,16.31,3a.34.34,0,0,1,.36-.35A.35.35,0,0,1,17,3.05Z"/><path d="M12.8,13.59c.75,0,1.51,0,2.26.09a1.67,1.67,0,0,1,1.34,1.56,1.79,1.79,0,0,1-.62,1.61,1.68,1.68,0,0,1-1,.36c-.65,0-1.31,0-2,0,0,0,.08-.11.13-.12.36-.05.43-.12.43-.49V14.28c0-.35-.05-.48-.42-.51-.05,0-.09-.06-.14-.09Zm1.06.21v2.79a.42.42,0,0,0,0,.2.5.5,0,0,0,.19.19,1.22,1.22,0,0,0,1.49-.58,2.36,2.36,0,0,0,.13-1.55,1.22,1.22,0,0,0-1.07-1A5,5,0,0,0,13.86,13.8Z"/><path d="M20.78,15.41a1.92,1.92,0,0,1-3.84,0,1.82,1.82,0,0,1,1.92-1.9A1.82,1.82,0,0,1,20.78,15.41Zm-.57,0a8.6,8.6,0,0,0-.25-1,1.07,1.07,0,0,0-1.08-.72,1.09,1.09,0,0,0-1.12.7,2.51,2.51,0,0,0,0,2.14,1.07,1.07,0,0,0,1,.6,1.11,1.11,0,0,0,1-.59A3.33,3.33,0,0,0,20.21,15.41Z"/><path d="M14.76,9.7a1.84,1.84,0,0,1-1.94,1.89,1.84,1.84,0,0,1-1.89-1.92,1.82,1.82,0,0,1,1.94-1.86A1.82,1.82,0,0,1,14.76,9.7Zm-.57,0a8.44,8.44,0,0,0-.25-1A1.07,1.07,0,0,0,12.86,8a1.1,1.1,0,0,0-1.11.69,2.48,2.48,0,0,0,.05,2.16,1.08,1.08,0,0,0,1,.59,1.09,1.09,0,0,0,1-.6A3.05,3.05,0,0,0,14.19,9.68Z"/><path d="M31.1,10.6V8.43a.32.32,0,0,0-.3-.34c-.07,0-.13-.08-.2-.12l0-.06h1.2l0,0c-.05,0-.1.1-.15.11-.27.07-.37.17-.37.45,0,.93,0,1.85,0,2.78v.21c-.17.08-.25,0-.33-.11L29.92,9.87,28.86,8.38l0,0c0,.81,0,1.62,0,2.43,0,.34.09.4.41.5.05,0,.09.07.13.11l0,.05H28.1l0,0s.08-.11.13-.12c.3-.08.4-.15.41-.45,0-.48,0-1,0-1.42V8.53c0-.36-.06-.41-.4-.47A.51.51,0,0,1,28.06,8l0-.07c.33,0,.67,0,1,0,.05,0,.1,0,.13.1C29.85,8.86,30.47,9.73,31.1,10.6Z"/><path d="M28.1,11.5H26.58l0-.06c.05,0,.09-.1.14-.1.32,0,.37-.11.24-.41s-.13-.51-.3-.61-.44,0-.67-.05-.41,0-.62,0a.21.21,0,0,0-.17.12,5.31,5.31,0,0,0-.23.55c-.1.26,0,.37.25.38.1,0,.19,0,.13.16H24c.08-.08.11-.15.15-.15a.61.61,0,0,0,.52-.44C25.1,9.93,25.5,9,25.9,8c0-.07.11-.12.16-.19s.15.12.19.19c.42,1,.83,1.92,1.25,2.89a.61.61,0,0,0,.47.44S28,11.42,28.1,11.5Zm-2.81-1.45h1.25l-.63-1.56Z"/><path d="M23.57,8.15a.25.25,0,0,1,0-.07l.17-.18a.9.9,0,0,1,.06.22c0,.3,0,.61,0,.91a.47.47,0,0,1-.06.15s-.1-.06-.12-.11-.11-.29-.18-.42A1.14,1.14,0,0,0,22.33,8a1.09,1.09,0,0,0-1,.76,2.35,2.35,0,0,0-.06,1.65,1.2,1.2,0,0,0,1.05.92,1.43,1.43,0,0,0,1.39-.67c0-.05.06-.11.11-.18l.17.1a1.8,1.8,0,0,1-2.31.91,1.89,1.89,0,0,1-1-2.54C21.15,7.83,22.19,7.54,23.57,8.15Z"/><path d="M16.7,8c-.49.08-.56.16-.56.61v1.71a5.17,5.17,0,0,0,.07.55.58.58,0,0,0,.5.5c.69.14,1.17-.05,1.21-.77s0-1.43,0-2.14c0-.25-.17-.35-.39-.39-.06,0-.1-.06-.15-.1a1.22,1.22,0,0,1,.17-.07h1a1,1,0,0,1,.15.07s-.08.08-.13.09c-.38.1-.4.12-.41.53,0,.67,0,1.33,0,2a.93.93,0,0,1-1.05,1,3.92,3.92,0,0,1-.59,0,.89.89,0,0,1-.86-1c0-.65,0-1.3,0-2,0-.49,0-.54-.6-.62.08-.06.13-.12.17-.12h1.39C16.63,7.88,16.66,7.94,16.7,8Z"/><path d="M7.08,7.9c.47,0,.95,0,1.42,0,0,0,.07,0,.12.09L8.56,8c-.41.05-.43.09-.22.45s.45.77.7,1.19l.82-1.37c.08-.13,0-.2-.12-.23s-.15,0-.23,0L9.38,8l0,0h1.24l0,0s-.09.1-.14.11a.7.7,0,0,0-.52.36c-.27.46-.55.9-.83,1.36a.51.51,0,0,0-.06.21q0,.47,0,.93c0,.29.09.38.38.41.1,0,.19,0,.13.16H8.09l0-.05s.09-.1.14-.11c.34-.05.4-.11.4-.44,0,0,0,0,0-.05a2.17,2.17,0,0,0-.5-1.74,5.76,5.76,0,0,1-.46-.71.65.65,0,0,0-.47-.33S7.09,8,7.05,8Z"/><path d="M25.79,13.78H25.3c-.48,0-.6.09-.79.53a.71.71,0,0,1-.12.18l-.08,0c0-.14,0-.27,0-.41s0-.28,0-.43h3.32l.09.83-.06,0a1.66,1.66,0,0,1-.13-.14c-.06-.1-.08-.23-.16-.31a.82.82,0,0,0-.38-.24,4.66,4.66,0,0,0-.75,0c0,.07,0,.13,0,.2v2.56c0,.38.05.44.44.5,0,0,.08.07.13.11l0,.05H25.26l0-.05c.05,0,.09-.1.14-.11.35-.05.42-.12.42-.47,0-.87,0-1.74,0-2.61Z"/><path d="M24.21,17.21H22.65l0,0s.08-.11.13-.12c.37-.05.43-.12.43-.48V14.26c0-.36-.05-.42-.41-.48a.6.6,0,0,1-.15-.09l0-.06H24.2l0,0s-.09.1-.14.11c-.37.07-.41.12-.42.5v2.28c0,.37.07.44.43.49a.42.42,0,0,1,.14.09Z"/><path d="M36.59,19.09a.53.53,0,1,1-.54-.51A.54.54,0,0,1,36.59,19.09Z"/><path d="M3.38,19.1a.54.54,0,0,1-.54.52.52.52,0,0,1,0-1A.54.54,0,0,1,3.38,19.1Z"/><path d="M28.41,19.62a.52.52,0,0,1,0-1,.54.54,0,0,1,.54.51A.53.53,0,0,1,28.41,19.62Z"/><path d="M20.74,18.58a.52.52,0,1,1,0,1,.52.52,0,0,1,0-1Z"/><path d="M13.59,19.11a.52.52,0,0,1-.53.51.52.52,0,0,1-.51-.53.52.52,0,0,1,1,0Z"/><path d="M10.52,18.58a.54.54,0,0,1,.52.53.52.52,0,0,1-1,0A.52.52,0,0,1,10.52,18.58Z"/><path d="M5.93,19.11a.53.53,0,0,1-.52.51.52.52,0,0,1,0-1A.53.53,0,0,1,5.93,19.11Z"/><path d="M8.48,4.59a.52.52,0,0,1-1,0A.49.49,0,0,1,8,4.08.51.51,0,0,1,8.48,4.59Z"/><path d="M17.66,19.11a.53.53,0,0,1,.52-.53.52.52,0,0,1,.52.53.52.52,0,0,1-.51.51A.53.53,0,0,1,17.66,19.11Z"/><path d="M25.85,21.41a.51.51,0,0,1,.52.51.5.5,0,0,1-.53.51.5.5,0,0,1-.51-.53A.5.5,0,0,1,25.85,21.41Z"/><path d="M15.62,4.08a.51.51,0,1,1-.51.51A.5.5,0,0,1,15.62,4.08Z"/><path d="M18.19,22.43a.5.5,0,0,1-.53-.51.52.52,0,0,1,1,0A.5.5,0,0,1,18.19,22.43Z"/><path d="M18.19,2.28a.51.51,0,0,1-.53-.49.52.52,0,1,1,1,0A.51.51,0,0,1,18.19,2.28Z"/><path d="M23.81,4.59a.5.5,0,0,1-.53.51.51.51,0,1,1,.53-.51Z"/><path d="M2.85,2.28a.51.51,0,0,1-.52-.52.53.53,0,0,1,1,0A.52.52,0,0,1,2.85,2.28Z"/><path d="M13.08,1.25a.53.53,0,0,1,.51.54.51.51,0,0,1-.53.49.51.51,0,0,1-.51-.51A.52.52,0,0,1,13.08,1.25Z"/><path d="M20.73,2.28a.53.53,0,0,1-.52-.52.53.53,0,0,1,.52-.51.52.52,0,0,1,.53.52A.51.51,0,0,1,20.73,2.28Z"/><path d="M28.41,2.28a.51.51,0,0,1-.53-.51.53.53,0,0,1,1.05,0A.52.52,0,0,1,28.41,2.28Z"/><path d="M2.84,22.43a.51.51,0,1,1,0-1,.51.51,0,1,1,0,1Z"/><path d="M25.85,5.1a.51.51,0,0,1-.52-.52.5.5,0,0,1,.52-.5.51.51,0,0,1,.52.5A.52.52,0,0,1,25.85,5.1Z"/><path d="M28.4,5.1a.52.52,0,0,1-.52-.5.51.51,0,0,1,.53-.52.52.52,0,0,1,.52.5A.52.52,0,0,1,28.4,5.1Z"/><path d="M36.06,5.1a.53.53,0,0,1-.52-.51.53.53,0,1,1,.52.51Z"/><path d="M25.33,19.1a.53.53,0,0,1,.51-.52.54.54,0,0,1,.53.53.53.53,0,0,1-.52.51A.52.52,0,0,1,25.33,19.1Z"/><path d="M31,22.43a.51.51,0,1,1,0-1,.51.51,0,1,1,0,1Z"/><path d="M36.07,21.41a.52.52,0,0,1,.52.51.5.5,0,0,1-.53.51.52.52,0,0,1-.52-.5A.52.52,0,0,1,36.07,21.41Z"/><path d="M34,21.93a.5.5,0,0,1-.54.5.49.49,0,0,1-.49-.52.5.5,0,0,1,.53-.5A.51.51,0,0,1,34,21.93Z"/><path d="M10.51,2.28A.51.51,0,0,1,10,1.77a.52.52,0,1,1,1,0A.52.52,0,0,1,10.51,2.28Z"/><path d="M5.4,2.28a.52.52,0,1,1,0-1,.54.54,0,0,1,.52.54A.51.51,0,0,1,5.4,2.28Z"/><path d="M10.52,22.43a.51.51,0,1,1,0-1,.52.52,0,0,1,.52.5A.51.51,0,0,1,10.52,22.43Z"/><path d="M13.06,22.43a.51.51,0,0,1-.51-.51.52.52,0,0,1,.54-.51.51.51,0,0,1,.5.52A.5.5,0,0,1,13.06,22.43Z"/><path d="M10.51,5.1A.51.51,0,0,1,10,4.58a.5.5,0,0,1,.52-.5.51.51,0,0,1,.52.5A.51.51,0,0,1,10.51,5.1Z"/><path d="M13.59,4.59a.52.52,0,1,1-.51-.51A.51.51,0,0,1,13.59,4.59Z"/><path d="M23.81,21.92a.52.52,0,0,1-1,0,.52.52,0,1,1,1,0Z"/><path d="M18.19,5.1a.52.52,0,0,1-.53-.52.52.52,0,0,1,1,0A.5.5,0,0,1,18.19,5.1Z"/><path d="M20.72,22.43a.52.52,0,0,1-.51-.51.53.53,0,0,1,1.05,0A.51.51,0,0,1,20.72,22.43Z"/><path d="M28.39,22.43a.51.51,0,1,1,0-1,.53.53,0,0,1,.51.52A.52.52,0,0,1,28.39,22.43Z"/><path d="M33.51,5.1A.5.5,0,0,1,33,4.57a.52.52,0,0,1,1,0A.5.5,0,0,1,33.51,5.1Z"/><path d="M36.07,2.28a.52.52,0,0,1-.53-.51.54.54,0,0,1,.54-.52.53.53,0,0,1,.51.51A.52.52,0,0,1,36.07,2.28Z"/><path d="M8.48,1.76a.52.52,0,1,1-1,0,.52.52,0,1,1,1,0Z"/><path d="M5.93,21.93a.51.51,0,0,1-.54.5.5.5,0,0,1-.5-.51.52.52,0,0,1,1,0Z"/><path d="M16.14,1.77a.49.49,0,0,1-.52.51.5.5,0,0,1-.51-.51.52.52,0,1,1,1,0Z"/><path d="M23.81,1.78a.52.52,0,0,1-1,0,.51.51,0,0,1,.51-.51A.52.52,0,0,1,23.81,1.78Z"/><path d="M25.84,1.25a.52.52,0,0,1,.53.52.51.51,0,0,1-.52.51.5.5,0,0,1-.52-.49A.53.53,0,0,1,25.84,1.25Z"/><path d="M16.14,19.09a.52.52,0,0,1-.51.53.52.52,0,1,1,0-1A.51.51,0,0,1,16.14,19.09Z"/><path d="M33.52,2.28A.5.5,0,0,1,33,1.79a.52.52,0,1,1,1,0A.5.5,0,0,1,33.52,2.28Z"/><path d="M30.44,19.1a.52.52,0,0,1,.53-.52.52.52,0,1,1-.53.52Z"/><path d="M2.85,4.08a.52.52,0,0,1,.53.5.53.53,0,0,1-.53.52.51.51,0,1,1,0-1Z"/><path d="M5.93,4.58a.51.51,0,0,1-.53.52.51.51,0,1,1,0-1A.51.51,0,0,1,5.93,4.58Z"/><path d="M20.73,5.1a.52.52,0,0,1-.52-.5.52.52,0,0,1,.53-.52.51.51,0,0,1,.52.5A.52.52,0,0,1,20.73,5.1Z"/><path d="M31,5.1a.51.51,0,0,1-.51-.51A.52.52,0,1,1,31,5.1Z"/><path d="M23.81,19.09a.52.52,0,0,1-.52.53.51.51,0,0,1-.51-.51.52.52,0,1,1,1,0Z"/><path d="M8.47,19.09a.5.5,0,0,1-.51.53.52.52,0,1,1,.51-.53Z"/><path d="M34,19.09a.52.52,0,0,1-.52.53.52.52,0,0,1,0-1A.53.53,0,0,1,34,19.09Z"/><path d="M31.47,1.76a.49.49,0,0,1-.52.52.52.52,0,1,1,0-1A.51.51,0,0,1,31.47,1.76Z"/><path d="M8,22.43a.49.49,0,0,1-.5-.53.52.52,0,1,1,.5.53Z"/><path d="M16.14,21.92a.49.49,0,0,1-.52.51.5.5,0,0,1-.51-.5.52.52,0,1,1,1,0Z"/><path d="M24.59,23.7a.36.36,0,0,1-.36-.36.35.35,0,0,1,.36-.36.35.35,0,0,1,.36.36A.36.36,0,0,1,24.59,23.7Z"/><path d="M14.3,23a.35.35,0,0,1,.35.37.36.36,0,0,1-.72,0A.35.35,0,0,1,14.3,23Z"/><path d="M1.78,20.57a.36.36,0,0,1-.35.37.37.37,0,0,1-.37-.36.35.35,0,0,1,.35-.36A.34.34,0,0,1,1.78,20.57Z"/><path d="M37.45,20.22a.35.35,0,0,1,.37.35.37.37,0,0,1-.35.37.37.37,0,0,1-.37-.35A.35.35,0,0,1,37.45,20.22Z"/><path d="M4,20.22a.35.35,0,0,1,.37.35.38.38,0,0,1-.36.37.36.36,0,0,1-.36-.35A.35.35,0,0,1,4,20.22Z"/><path d="M4.36,23.33A.37.37,0,0,1,4,23.7a.36.36,0,0,1-.36-.36A.34.34,0,0,1,4,23,.35.35,0,0,1,4.36,23.33Z"/><path d="M11.72,23.7a.39.39,0,0,1-.37-.36.36.36,0,0,1,.36-.36.36.36,0,0,1,0,.72Z"/><path d="M35.24,20.58a.36.36,0,0,1-.36.36.37.37,0,0,1-.36-.37.36.36,0,0,1,.37-.35A.33.33,0,0,1,35.24,20.58Z"/><path d="M27.53,23.33a.39.39,0,0,1-.36.37.35.35,0,0,1-.36-.36.33.33,0,0,1,.35-.36A.37.37,0,0,1,27.53,23.33Z"/><path d="M35.24,6a.36.36,0,0,1-.35.37A.38.38,0,0,1,34.52,6a.35.35,0,0,1,.36-.36A.34.34,0,0,1,35.24,6Z"/><path d="M4.36,6A.38.38,0,0,1,4,6.37.36.36,0,0,1,3.64,6,.34.34,0,0,1,4,5.65.35.35,0,0,1,4.36,6Z"/><path d="M16.87,5.65a.35.35,0,0,1,.36.36.38.38,0,0,1-.37.36A.37.37,0,0,1,16.51,6,.34.34,0,0,1,16.87,5.65Z"/><path d="M17.23,20.57a.37.37,0,0,1-.36.37.35.35,0,0,1-.36-.36.34.34,0,0,1,.35-.36A.35.35,0,0,1,17.23,20.57Z"/><path d="M34.89,23.7a.38.38,0,0,1-.37-.35.35.35,0,0,1,.36-.37.34.34,0,0,1,.36.35A.35.35,0,0,1,34.89,23.7Z"/><path d="M22.37,20.58a.36.36,0,0,1-.36.36.37.37,0,0,1-.36-.36.36.36,0,0,1,.37-.36A.34.34,0,0,1,22.37,20.58Z"/><path d="M27.16,5.65a.36.36,0,0,1,.37.35.38.38,0,0,1-.36.37A.36.36,0,0,1,26.81,6,.33.33,0,0,1,27.16,5.65Z"/><path d="M24.6,6.37A.37.37,0,0,1,24.23,6a.34.34,0,0,1,.35-.36A.35.35,0,0,1,25,6,.38.38,0,0,1,24.6,6.37Z"/><path d="M22.37,6a.35.35,0,0,1-.35.37A.37.37,0,0,1,21.65,6,.36.36,0,0,1,22,5.65.34.34,0,0,1,22.37,6Z"/><path d="M14.65,6a.36.36,0,1,1-.72,0,.35.35,0,0,1,.37-.35A.33.33,0,0,1,14.65,6Z"/><path d="M27.53,3.25a.37.37,0,0,1-.38.35.36.36,0,0,1,0-.71A.36.36,0,0,1,27.53,3.25Z"/><path d="M11.73,2.89a.33.33,0,0,1,.34.36.34.34,0,0,1-.36.35.36.36,0,1,1,0-.71Z"/><path d="M37.82,23.34a.36.36,0,1,1-.72,0,.35.35,0,0,1,.37-.35A.34.34,0,0,1,37.82,23.34Z"/><path d="M1.78,23.33a.35.35,0,0,1-.36.37.37.37,0,0,1-.36-.36A.36.36,0,0,1,1.42,23,.34.34,0,0,1,1.78,23.33Z"/><path d="M1.43,6.37A.38.38,0,0,1,1.06,6a.34.34,0,0,1,.35-.36A.35.35,0,0,1,1.78,6,.37.37,0,0,1,1.43,6.37Z"/><path d="M9.14,23a.36.36,0,0,1,0,.72.37.37,0,0,1-.37-.36A.36.36,0,0,1,9.14,23Z"/><path d="M27.53,20.58a.38.38,0,0,1-.37.36.35.35,0,0,1-.35-.37.34.34,0,0,1,.36-.35A.36.36,0,0,1,27.53,20.58Z"/><path d="M25,20.57a.36.36,0,1,1-.72,0,.36.36,0,0,1,.72,0Z"/><path d="M19.44,23a.36.36,0,0,1,0,.72.37.37,0,0,1-.36-.36A.36.36,0,0,1,19.44,23Z"/><path d="M11.72,20.94a.37.37,0,0,1-.37-.36.36.36,0,0,1,.37-.36.34.34,0,0,1,.35.36A.35.35,0,0,1,11.72,20.94Z"/><path d="M14.29,20.94a.37.37,0,0,1-.36-.37.36.36,0,0,1,.37-.35.34.34,0,0,1,.35.36A.37.37,0,0,1,14.29,20.94Z"/><path d="M32.32,5.65a.34.34,0,0,1,.35.36.37.37,0,0,1-.37.36A.38.38,0,0,1,32,6,.34.34,0,0,1,32.32,5.65Z"/><path d="M24.59,2.89a.35.35,0,0,1,.36.36.36.36,0,1,1-.36-.36Z"/><path d="M32.67,20.59a.36.36,0,0,1-.37.35.37.37,0,0,1-.35-.37.36.36,0,0,1,.72,0Z"/><path d="M19.8,3.25a.35.35,0,0,1-.37.35.36.36,0,0,1-.35-.38.35.35,0,0,1,.36-.33A.35.35,0,0,1,19.8,3.25Z"/><path d="M14.65,3.24a.35.35,0,0,1-.36.36.36.36,0,0,1-.36-.37.35.35,0,0,1,.36-.34A.34.34,0,0,1,14.65,3.24Z"/><path d="M9.5,6a.36.36,0,0,1-.35.37A.37.37,0,0,1,8.78,6a.36.36,0,0,1,.36-.36A.34.34,0,0,1,9.5,6Z"/><path d="M6.56,5.65A.37.37,0,0,1,6.94,6a.38.38,0,0,1-.37.37A.36.36,0,0,1,6.21,6,.35.35,0,0,1,6.56,5.65Z"/><path d="M4,3.6a.35.35,0,0,1-.35-.36A.34.34,0,0,1,4,2.89a.35.35,0,0,1,.36.36A.36.36,0,0,1,4,3.6Z"/><path d="M37.82,3.25a.36.36,0,1,1-.35-.36A.34.34,0,0,1,37.82,3.25Z"/><path d="M6.94,23.33a.38.38,0,0,1-.37.37.36.36,0,0,1-.36-.36A.35.35,0,0,1,6.57,23,.37.37,0,0,1,6.94,23.33Z"/><path d="M6.94,20.57a.38.38,0,0,1-.37.37.36.36,0,0,1-.36-.35.35.35,0,0,1,.35-.37A.37.37,0,0,1,6.94,20.57Z"/><path d="M9.14,20.22a.35.35,0,0,1,.36.36.36.36,0,0,1-.35.36.37.37,0,0,1-.37-.36A.36.36,0,0,1,9.14,20.22Z"/><path d="M19.8,20.58a.36.36,0,0,1-.37.36.37.37,0,0,1-.35-.38.36.36,0,0,1,.72,0Z"/><path d="M17.23,23.33a.37.37,0,0,1-.36.37.35.35,0,0,1-.36-.36.34.34,0,0,1,.35-.36A.37.37,0,0,1,17.23,23.33Z"/><path d="M34.88,3.6a.37.37,0,0,1-.36-.37.35.35,0,0,1,.38-.34.34.34,0,0,1,.34.36A.35.35,0,0,1,34.88,3.6Z"/><path d="M22,23.7a.37.37,0,0,1-.36-.36A.37.37,0,0,1,22,23a.34.34,0,0,1,.35.36A.35.35,0,0,1,22,23.7Z"/><path d="M37.47,6.37A.37.37,0,0,1,37.1,6a.35.35,0,0,1,.36-.36.35.35,0,0,1,.36.35A.37.37,0,0,1,37.47,6.37Z"/><path d="M1.06,3.22a.35.35,0,0,1,.39-.33.35.35,0,0,1,.33.38.36.36,0,0,1-.37.33A.37.37,0,0,1,1.06,3.22Z"/><path d="M29.74,23.7a.36.36,0,0,1-.36-.37.35.35,0,0,1,.35-.35.36.36,0,1,1,0,.72Z"/><path d="M12.07,6a.36.36,0,0,1-.36.36A.38.38,0,0,1,11.35,6a.36.36,0,0,1,.38-.35A.33.33,0,0,1,12.07,6Z"/><path d="M9.15,3.6a.36.36,0,0,1-.37-.35.35.35,0,0,1,.35-.36.36.36,0,1,1,0,.71Z"/><path d="M22,3.6a.36.36,0,0,1-.37-.36A.35.35,0,0,1,22,2.89a.33.33,0,0,1,.37.34A.35.35,0,0,1,22,3.6Z"/><path d="M19.45,6.37A.38.38,0,0,1,19.08,6a.36.36,0,0,1,.72,0A.37.37,0,0,1,19.45,6.37Z"/><path d="M32.31,23.7a.37.37,0,0,1-.36-.36.36.36,0,0,1,.36-.36.35.35,0,0,1,.36.36A.36.36,0,0,1,32.31,23.7Z"/><path d="M6.58,3.6a.36.36,0,0,1-.37-.35.34.34,0,0,1,.34-.36.35.35,0,0,1,.38.34A.36.36,0,0,1,6.58,3.6Z"/><path d="M30.1,6a.37.37,0,0,1-.38.36A.36.36,0,0,1,29.38,6a.36.36,0,0,1,.72,0Z"/><path d="M32.67,3.24a.36.36,0,0,1-.36.36A.36.36,0,0,1,32,3.24a.36.36,0,0,1,.72,0Z"/><path d="M30.1,20.57a.37.37,0,0,1-.36.37.36.36,0,0,1-.36-.37.35.35,0,0,1,.35-.35A.36.36,0,0,1,30.1,20.57Z"/><path d="M30.1,3.25a.36.36,0,0,1-.37.35.36.36,0,1,1,.37-.35Z"/><path d="M17.23,3.25a.36.36,0,0,1-.37.35.35.35,0,0,1-.35-.36.34.34,0,0,1,.36-.35A.36.36,0,0,1,17.23,3.25Z"/></g><g class="cls-3"><path d="M12.46,13.25c.75,0,1.51,0,2.25.09a1.66,1.66,0,0,1,1.35,1.56,1.79,1.79,0,0,1-.62,1.61,1.68,1.68,0,0,1-1,.36c-.65,0-1.31,0-2,0,0,0,.08-.11.13-.12.36-.05.43-.12.43-.49V13.94c0-.35-.05-.48-.42-.51-.05,0-.09-.06-.14-.09Zm1.06.21v2.79a.42.42,0,0,0,0,.2.5.5,0,0,0,.19.19,1.22,1.22,0,0,0,1.49-.58,2.36,2.36,0,0,0,.13-1.55,1.22,1.22,0,0,0-1.07-1A5,5,0,0,0,13.52,13.46Z"/><path d="M20.44,15.07a1.92,1.92,0,0,1-3.84,0,1.82,1.82,0,0,1,1.92-1.9A1.82,1.82,0,0,1,20.44,15.07Zm-.57,0a8.6,8.6,0,0,0-.25-1,1.07,1.07,0,0,0-1.08-.72,1.09,1.09,0,0,0-1.12.7,2.51,2.51,0,0,0,0,2.14,1.07,1.07,0,0,0,1,.6,1.11,1.11,0,0,0,1-.59A3.33,3.33,0,0,0,19.87,15.07Z"/><path d="M14.42,9.36a1.84,1.84,0,0,1-1.94,1.89,1.84,1.84,0,0,1-1.89-1.92,1.82,1.82,0,0,1,1.94-1.86A1.82,1.82,0,0,1,14.42,9.36Zm-.57,0a8.44,8.44,0,0,0-.25-1,1.05,1.05,0,0,0-1.08-.72,1.1,1.1,0,0,0-1.11.69,2.48,2.48,0,0,0,.05,2.16,1.08,1.08,0,0,0,1,.59,1.09,1.09,0,0,0,1-.6A3.05,3.05,0,0,0,13.85,9.34Z"/><path d="M30.76,10.26V8.09a.32.32,0,0,0-.3-.34c-.07,0-.13-.08-.2-.12l0-.06h1.2l0,0c-.05,0-.1.1-.15.11-.27.07-.37.17-.37.45C31,9.1,31,10,31,11v.21c-.17.08-.25,0-.33-.11L29.58,9.53,28.52,8l0,0c0,.81,0,1.62,0,2.43,0,.34.09.4.41.5.05,0,.09.07.13.11l0,.05H27.76l0,0s.08-.11.13-.12c.3-.08.39-.15.41-.45,0-.48,0-.95,0-1.42V8.19c0-.36-.06-.41-.4-.47a.51.51,0,0,1-.16-.09l0-.07h1c.05,0,.1.05.13.1C29.51,8.52,30.13,9.39,30.76,10.26Z"/><path d="M27.76,11.16H26.24l0-.06c.05,0,.09-.1.14-.1.32,0,.37-.11.24-.41s-.13-.51-.3-.61-.44,0-.67-.05-.41,0-.62,0a.25.25,0,0,0-.18.12c-.08.18-.15.36-.22.55s0,.37.25.38c.1,0,.19,0,.13.16H23.7c.08-.08.11-.15.15-.15a.61.61,0,0,0,.52-.44c.39-1,.79-1.93,1.19-2.89,0-.07.11-.12.16-.19s.15.12.19.19c.42,1,.83,1.92,1.25,2.89a.61.61,0,0,0,.47.44S27.69,11.08,27.76,11.16ZM25,9.71H26.2l-.63-1.56Z"/><path d="M23.23,7.81a.25.25,0,0,1,0-.07l.17-.18a.9.9,0,0,1,.06.22c0,.3,0,.61,0,.91a.47.47,0,0,1-.06.15s-.1-.06-.12-.11-.11-.29-.18-.43A1.15,1.15,0,0,0,22,7.65a1.09,1.09,0,0,0-1,.76A2.35,2.35,0,0,0,21,10.06,1.2,1.2,0,0,0,22,11a1.43,1.43,0,0,0,1.39-.67c0-.05.06-.11.11-.18l.17.1a1.8,1.8,0,0,1-2.31.91,1.89,1.89,0,0,1-1-2.54C20.81,7.49,21.85,7.2,23.23,7.81Z"/><path d="M16.36,7.63c-.49.08-.56.16-.56.61V10a5.17,5.17,0,0,0,.07.55.58.58,0,0,0,.5.5c.69.14,1.17-.05,1.21-.77s0-1.43,0-2.14c0-.25-.17-.35-.39-.39-.06,0-.1-.06-.15-.1s.11-.07.17-.07h1c.05,0,.1,0,.15.07s-.08.08-.13.09c-.38.1-.4.12-.41.53,0,.67,0,1.33,0,2a.93.93,0,0,1-1.05,1,3.92,3.92,0,0,1-.59,0,.89.89,0,0,1-.86-1c0-.65,0-1.3,0-2,0-.49,0-.55-.6-.62.08-.06.12-.12.17-.12h1.39C16.29,7.54,16.32,7.6,16.36,7.63Z"/><path d="M6.74,7.56H8.16s.07.05.12.09l-.06,0c-.41,0-.43.09-.22.45s.45.77.7,1.19L9.52,8c.08-.13,0-.2-.12-.23s-.15,0-.23,0L9,7.62l0,0h1.24l0,0s-.09.1-.14.11a.7.7,0,0,0-.52.36L8.86,9.44a.51.51,0,0,0-.06.21q0,.47,0,.93c0,.29.09.38.38.41.1,0,.19,0,.13.16H7.75l0-.05s.09-.1.14-.11c.33-.05.4-.11.4-.44a.09.09,0,0,1,0-.05,2.17,2.17,0,0,0-.5-1.74,5.76,5.76,0,0,1-.46-.71.65.65,0,0,0-.47-.33s-.09-.07-.13-.11Z"/><path d="M25.45,13.44H25c-.47,0-.59.09-.78.53a.71.71,0,0,1-.12.18l-.08,0c0-.14,0-.27,0-.41s0-.28,0-.43h3.32l.09.83-.06,0a1.66,1.66,0,0,1-.13-.14c-.06-.1-.08-.23-.16-.31a.82.82,0,0,0-.38-.24,4.66,4.66,0,0,0-.75,0c0,.07,0,.13,0,.19v2.57c0,.38.05.44.44.5,0,0,.08.07.13.11l0,.05H24.92l0-.05c.05,0,.09-.1.14-.11.35-.05.42-.12.42-.47v-2.8Z"/><path d="M23.87,16.87H22.31l0,0s.08-.11.13-.12c.37-.05.43-.12.43-.48V13.92c0-.36-.05-.42-.41-.48a.6.6,0,0,1-.15-.09l0-.06h1.57l0,0s-.09.1-.14.11c-.37.07-.41.12-.42.5v2.28c0,.37.07.44.43.49.05,0,.09.06.14.09Z"/><path d="M36.25,18.75a.53.53,0,1,1-.54-.51A.54.54,0,0,1,36.25,18.75Z"/><path d="M3,18.76a.54.54,0,0,1-.54.52.52.52,0,0,1,0-1A.54.54,0,0,1,3,18.76Z"/><path d="M28.07,19.28a.52.52,0,0,1,0-1,.52.52,0,1,1,0,1Z"/><path d="M20.4,18.24a.52.52,0,1,1-.53.52A.54.54,0,0,1,20.4,18.24Z"/><path d="M13.25,18.77a.52.52,0,0,1-.53.51.52.52,0,0,1-.51-.53.52.52,0,0,1,1,0Z"/><path d="M10.18,18.24a.54.54,0,0,1,.52.53.52.52,0,0,1-1,0A.52.52,0,0,1,10.18,18.24Z"/><path d="M5.59,18.77a.53.53,0,0,1-.52.51.52.52,0,0,1,0-1A.53.53,0,0,1,5.59,18.77Z"/><path d="M8.13,4.25a.49.49,0,0,1-.52.51.5.5,0,0,1-.5-.51.51.51,0,1,1,1,0Z"/><path d="M17.32,18.77a.53.53,0,0,1,.52-.53.52.52,0,0,1,.52.53.52.52,0,0,1-.51.51A.53.53,0,0,1,17.32,18.77Z"/><path d="M25.51,21.07a.51.51,0,0,1,.52.51.5.5,0,0,1-.53.51.5.5,0,0,1-.51-.53A.5.5,0,0,1,25.51,21.07Z"/><path d="M15.28,3.74a.51.51,0,1,1-.51.51A.5.5,0,0,1,15.28,3.74Z"/><path d="M17.85,22.09a.5.5,0,0,1-.53-.51.52.52,0,0,1,1,0A.5.5,0,0,1,17.85,22.09Z"/><path d="M17.85,1.94a.51.51,0,0,1-.53-.49.52.52,0,1,1,1,0A.51.51,0,0,1,17.85,1.94Z"/><path d="M23.47,4.25a.5.5,0,0,1-.53.51.51.51,0,1,1,.53-.51Z"/><path d="M2.51,1.94A.51.51,0,0,1,2,1.42.53.53,0,0,1,2.51.91.54.54,0,0,1,3,1.43.52.52,0,0,1,2.51,1.94Z"/><path d="M12.74.91a.53.53,0,0,1,.51.54.51.51,0,0,1-.53.49.51.51,0,0,1-.51-.51A.52.52,0,0,1,12.74.91Z"/><path d="M20.39,1.94a.53.53,0,0,1-.52-.52.53.53,0,0,1,.52-.51.52.52,0,0,1,.53.52A.51.51,0,0,1,20.39,1.94Z"/><path d="M28.07,1.94a.51.51,0,0,1-.53-.51.53.53,0,0,1,1.05,0A.52.52,0,0,1,28.07,1.94Z"/><path d="M2.5,22.09a.51.51,0,1,1,0-1,.51.51,0,1,1,0,1Z"/><path d="M25.51,4.76A.51.51,0,0,1,25,4.24a.5.5,0,0,1,.52-.5.51.51,0,0,1,.52.5A.52.52,0,0,1,25.51,4.76Z"/><path d="M28.06,4.76a.52.52,0,0,1-.52-.5.51.51,0,0,1,.53-.52.52.52,0,0,1,.52.5A.52.52,0,0,1,28.06,4.76Z"/><path d="M35.72,4.76a.53.53,0,0,1-.52-.51.53.53,0,1,1,.52.51Z"/><path d="M25,18.76a.53.53,0,0,1,.51-.52.54.54,0,0,1,.53.53.53.53,0,0,1-.52.51A.52.52,0,0,1,25,18.76Z"/><path d="M30.62,22.09a.51.51,0,1,1,0-1,.51.51,0,1,1,0,1Z"/><path d="M35.73,21.07a.52.52,0,0,1,.52.51.5.5,0,0,1-.53.51.52.52,0,0,1-.52-.5A.52.52,0,0,1,35.73,21.07Z"/><path d="M33.69,21.59a.5.5,0,0,1-.54.5.49.49,0,0,1-.49-.52.5.5,0,0,1,.53-.5A.51.51,0,0,1,33.69,21.59Z"/><path d="M10.17,1.94a.51.51,0,0,1-.51-.51.52.52,0,1,1,1,0A.52.52,0,0,1,10.17,1.94Z"/><path d="M5.06,1.94a.52.52,0,1,1,0-1,.54.54,0,0,1,.52.54A.51.51,0,0,1,5.06,1.94Z"/><path d="M10.18,22.09a.51.51,0,1,1,0-1,.52.52,0,0,1,.52.5A.51.51,0,0,1,10.18,22.09Z"/><path d="M12.72,22.09a.51.51,0,0,1-.51-.51.52.52,0,0,1,.54-.51.51.51,0,0,1,.5.52A.5.5,0,0,1,12.72,22.09Z"/><path d="M10.17,4.76a.51.51,0,0,1-.51-.53.5.5,0,0,1,.52-.49.52.52,0,0,1,.52.5A.51.51,0,0,1,10.17,4.76Z"/><path d="M13.25,4.25a.52.52,0,1,1-.51-.51A.51.51,0,0,1,13.25,4.25Z"/><path d="M23.47,21.58a.52.52,0,0,1-1,0,.52.52,0,1,1,1,0Z"/><path d="M17.85,4.76a.52.52,0,0,1-.53-.52.52.52,0,0,1,1,0A.5.5,0,0,1,17.85,4.76Z"/><path d="M20.38,22.09a.52.52,0,0,1-.51-.51.53.53,0,0,1,1.05,0A.51.51,0,0,1,20.38,22.09Z"/><path d="M28.05,22.09a.51.51,0,1,1,0-1,.53.53,0,0,1,.51.52A.52.52,0,0,1,28.05,22.09Z"/><path d="M33.17,4.76a.5.5,0,0,1-.51-.53.52.52,0,0,1,1,0A.5.5,0,0,1,33.17,4.76Z"/><path d="M35.73,1.94a.52.52,0,0,1-.53-.51.53.53,0,0,1,1,0A.52.52,0,0,1,35.73,1.94Z"/><path d="M8.13,1.42a.49.49,0,0,1-.51.52.5.5,0,0,1-.51-.51A.52.52,0,0,1,7.63.91.5.5,0,0,1,8.13,1.42Z"/><path d="M5.59,21.59a.51.51,0,0,1-.54.5.5.5,0,0,1-.5-.51.52.52,0,0,1,1,0Z"/><path d="M15.8,1.43a.49.49,0,0,1-.52.51.5.5,0,0,1-.51-.51.52.52,0,1,1,1,0Z"/><path d="M23.47,1.44a.52.52,0,0,1-1,0A.5.5,0,0,1,23,.91.52.52,0,0,1,23.47,1.44Z"/><path d="M25.5.91a.52.52,0,0,1,.53.52.52.52,0,0,1-.52.51A.5.5,0,0,1,25,1.45.53.53,0,0,1,25.5.91Z"/><path d="M15.8,18.75a.52.52,0,0,1-.51.53.52.52,0,1,1,0-1A.51.51,0,0,1,15.8,18.75Z"/><path d="M33.18,1.94a.49.49,0,0,1-.52-.49.52.52,0,1,1,1,0A.5.5,0,0,1,33.18,1.94Z"/><path d="M30.1,18.76a.52.52,0,0,1,.53-.52.52.52,0,1,1-.53.52Z"/><path d="M2.51,3.74a.52.52,0,0,1,.53.5.53.53,0,0,1-.53.52.51.51,0,1,1,0-1Z"/><path d="M5.59,4.24a.51.51,0,0,1-.53.52.51.51,0,1,1,0-1A.51.51,0,0,1,5.59,4.24Z"/><path d="M20.39,4.76a.52.52,0,0,1-.52-.5.52.52,0,0,1,.53-.52.51.51,0,0,1,.52.5A.52.52,0,0,1,20.39,4.76Z"/><path d="M30.61,4.76a.51.51,0,0,1-.51-.51.52.52,0,1,1,.51.51Z"/><path d="M23.47,18.75a.52.52,0,0,1-.52.53.51.51,0,0,1-.51-.51.52.52,0,1,1,1,0Z"/><path d="M8.13,18.75a.5.5,0,0,1-.51.53.52.52,0,1,1,.51-.53Z"/><path d="M33.69,18.75a.52.52,0,0,1-.52.53.52.52,0,0,1,0-1A.53.53,0,0,1,33.69,18.75Z"/><path d="M31.13,1.42a.49.49,0,0,1-.52.52.52.52,0,1,1,0-1A.51.51,0,0,1,31.13,1.42Z"/><path d="M7.61,22.09a.49.49,0,0,1-.5-.53.52.52,0,0,1,1,0A.5.5,0,0,1,7.61,22.09Z"/><path d="M15.8,21.58a.49.49,0,0,1-.52.51.5.5,0,0,1-.51-.5.52.52,0,1,1,1,0Z"/><path d="M24.25,23.36a.36.36,0,0,1-.36-.36.35.35,0,0,1,.36-.36.35.35,0,0,1,.36.36A.36.36,0,0,1,24.25,23.36Z"/><path d="M14,22.64a.35.35,0,0,1,.35.37.36.36,0,0,1-.72,0A.35.35,0,0,1,14,22.64Z"/><path d="M1.44,20.23a.36.36,0,0,1-.35.37.37.37,0,0,1-.37-.36.35.35,0,0,1,.35-.36A.35.35,0,0,1,1.44,20.23Z"/><path d="M37.11,19.88a.35.35,0,0,1,.37.35.37.37,0,0,1-.35.37.37.37,0,0,1-.37-.35A.35.35,0,0,1,37.11,19.88Z"/><path d="M3.65,19.88a.35.35,0,0,1,.37.35.38.38,0,0,1-.36.37.36.36,0,0,1-.36-.35A.35.35,0,0,1,3.65,19.88Z"/><path d="M4,23a.37.37,0,0,1-.36.37A.36.36,0,0,1,3.3,23a.34.34,0,0,1,.35-.36A.35.35,0,0,1,4,23Z"/><path d="M11.38,23.36A.38.38,0,0,1,11,23a.36.36,0,0,1,.36-.36.36.36,0,0,1,0,.72Z"/><path d="M34.9,20.24a.36.36,0,0,1-.36.36.37.37,0,0,1-.36-.37.36.36,0,0,1,.37-.35A.33.33,0,0,1,34.9,20.24Z"/><path d="M27.19,23a.39.39,0,0,1-.36.37.35.35,0,0,1-.36-.36.33.33,0,0,1,.35-.36A.37.37,0,0,1,27.19,23Z"/><path d="M34.9,5.66a.36.36,0,0,1-.35.37.38.38,0,0,1-.37-.36.35.35,0,0,1,.36-.36A.34.34,0,0,1,34.9,5.66Z"/><path d="M4,5.67A.38.38,0,0,1,3.65,6a.36.36,0,0,1-.35-.37.34.34,0,0,1,.36-.35A.35.35,0,0,1,4,5.67Z"/><path d="M16.53,5.31a.35.35,0,0,1,.36.36.38.38,0,0,1-.37.36.37.37,0,0,1-.35-.37A.34.34,0,0,1,16.53,5.31Z"/><path d="M16.89,20.23a.37.37,0,0,1-.36.37.35.35,0,0,1-.36-.36.34.34,0,0,1,.35-.36A.35.35,0,0,1,16.89,20.23Z"/><path d="M34.55,23.36a.38.38,0,0,1-.37-.35.35.35,0,0,1,.36-.37.34.34,0,0,1,.36.35A.35.35,0,0,1,34.55,23.36Z"/><path d="M22,20.24a.36.36,0,0,1-.36.36.37.37,0,0,1-.36-.36.36.36,0,0,1,.37-.36A.34.34,0,0,1,22,20.24Z"/><path d="M26.82,5.31a.36.36,0,0,1,.37.35.38.38,0,0,1-.36.37.36.36,0,0,1-.36-.36A.33.33,0,0,1,26.82,5.31Z"/><path d="M24.26,6a.37.37,0,0,1-.37-.36.34.34,0,0,1,.35-.36.35.35,0,0,1,.37.35A.38.38,0,0,1,24.26,6Z"/><path d="M22,5.66a.36.36,0,0,1-.35.37.37.37,0,0,1-.37-.36.36.36,0,0,1,.36-.36A.34.34,0,0,1,22,5.66Z"/><path d="M14.31,5.67a.36.36,0,1,1-.72,0A.35.35,0,0,1,14,5.31.34.34,0,0,1,14.31,5.67Z"/><path d="M27.19,2.91a.37.37,0,0,1-.38.35.36.36,0,0,1,0-.71A.36.36,0,0,1,27.19,2.91Z"/><path d="M11.38,2.55a.33.33,0,0,1,.35.36.34.34,0,0,1-.36.35A.36.36,0,0,1,11,2.9.36.36,0,0,1,11.38,2.55Z"/><path d="M37.48,23a.36.36,0,1,1-.72,0,.35.35,0,0,1,.37-.35A.34.34,0,0,1,37.48,23Z"/><path d="M1.44,23a.35.35,0,0,1-.36.37A.37.37,0,0,1,.72,23a.36.36,0,0,1,.36-.36A.34.34,0,0,1,1.44,23Z"/><path d="M1.09,6a.38.38,0,0,1-.37-.36.34.34,0,0,1,.35-.36.35.35,0,0,1,.37.35A.37.37,0,0,1,1.09,6Z"/><path d="M8.8,22.64a.36.36,0,0,1,0,.72A.37.37,0,0,1,8.44,23,.36.36,0,0,1,8.8,22.64Z"/><path d="M27.19,20.24a.38.38,0,0,1-.37.36.35.35,0,0,1-.35-.37.34.34,0,0,1,.36-.35A.36.36,0,0,1,27.19,20.24Z"/><path d="M24.61,20.23a.36.36,0,1,1-.72,0,.36.36,0,0,1,.72,0Z"/><path d="M19.1,22.64a.36.36,0,0,1,0,.72.37.37,0,0,1-.36-.36A.36.36,0,0,1,19.1,22.64Z"/><path d="M11.38,20.6a.37.37,0,0,1-.37-.36.36.36,0,0,1,.37-.36.34.34,0,0,1,.35.36A.35.35,0,0,1,11.38,20.6Z"/><path d="M14,20.6a.37.37,0,0,1-.36-.37.36.36,0,0,1,.37-.35.34.34,0,0,1,.35.36A.37.37,0,0,1,14,20.6Z"/><path d="M32,5.31a.34.34,0,0,1,.35.36A.37.37,0,0,1,32,6a.38.38,0,0,1-.35-.38A.34.34,0,0,1,32,5.31Z"/><path d="M24.25,2.55a.35.35,0,0,1,.36.36.36.36,0,1,1-.36-.36Z"/><path d="M32.33,20.25a.36.36,0,0,1-.37.35.37.37,0,0,1-.35-.37.36.36,0,0,1,.72,0Z"/><path d="M19.46,2.91a.35.35,0,0,1-.37.35.37.37,0,0,1-.35-.38.35.35,0,0,1,.36-.33A.35.35,0,0,1,19.46,2.91Z"/><path d="M14.31,2.9a.35.35,0,0,1-.36.36.37.37,0,0,1-.36-.37A.35.35,0,0,1,14,2.55.34.34,0,0,1,14.31,2.9Z"/><path d="M9.16,5.66A.37.37,0,0,1,8.81,6a.37.37,0,0,1-.37-.36.36.36,0,0,1,.36-.36A.34.34,0,0,1,9.16,5.66Z"/><path d="M6.22,5.31a.35.35,0,0,1,.37.35A.37.37,0,0,1,6.23,6a.36.36,0,0,1-.36-.35A.35.35,0,0,1,6.22,5.31Z"/><path d="M3.65,3.26A.35.35,0,0,1,3.3,2.9a.34.34,0,0,1,.36-.35A.35.35,0,0,1,4,2.91.36.36,0,0,1,3.65,3.26Z"/><path d="M37.48,2.91a.36.36,0,1,1-.35-.36A.34.34,0,0,1,37.48,2.91Z"/><path d="M6.6,23a.38.38,0,0,1-.37.37A.36.36,0,0,1,5.87,23a.35.35,0,0,1,.36-.36A.37.37,0,0,1,6.6,23Z"/><path d="M6.59,20.23a.37.37,0,0,1-.36.37.36.36,0,0,1-.36-.35.36.36,0,1,1,.72,0Z"/><path d="M8.8,19.88a.35.35,0,0,1,.36.36.36.36,0,0,1-.36.36.37.37,0,0,1-.36-.36A.36.36,0,0,1,8.8,19.88Z"/><path d="M19.46,20.24a.36.36,0,0,1-.37.36.37.37,0,0,1-.35-.38.36.36,0,0,1,.72,0Z"/><path d="M16.89,23a.37.37,0,0,1-.36.37.35.35,0,0,1-.36-.36.34.34,0,0,1,.35-.36A.37.37,0,0,1,16.89,23Z"/><path d="M34.54,3.26a.37.37,0,0,1-.36-.37.35.35,0,0,1,.38-.34.34.34,0,0,1,.34.36A.35.35,0,0,1,34.54,3.26Z"/><path d="M21.67,23.36a.37.37,0,0,1-.36-.36.37.37,0,0,1,.37-.36A.34.34,0,0,1,22,23,.35.35,0,0,1,21.67,23.36Z"/><path d="M37.13,6a.37.37,0,0,1-.37-.36.35.35,0,0,1,.36-.36.35.35,0,0,1,.36.35A.37.37,0,0,1,37.13,6Z"/><path d="M.72,2.88a.35.35,0,0,1,.39-.33.35.35,0,0,1,.33.38.36.36,0,0,1-.37.33A.37.37,0,0,1,.72,2.88Z"/><path d="M29.4,23.36A.36.36,0,0,1,29,23a.35.35,0,0,1,.35-.35.36.36,0,1,1,0,.72Z"/><path d="M11.73,5.67a.36.36,0,0,1-.36.36A.38.38,0,0,1,11,5.66a.36.36,0,0,1,.38-.35A.33.33,0,0,1,11.73,5.67Z"/><path d="M8.81,3.26a.36.36,0,0,1-.37-.35.36.36,0,0,1,.72,0A.35.35,0,0,1,8.81,3.26Z"/><path d="M21.68,3.26a.36.36,0,0,1-.37-.36.35.35,0,0,1,.35-.35.33.33,0,0,1,.37.34A.35.35,0,0,1,21.68,3.26Z"/><path d="M19.11,6a.38.38,0,0,1-.37-.36.36.36,0,0,1,.72,0A.37.37,0,0,1,19.11,6Z"/><path d="M32,23.36a.37.37,0,0,1-.36-.36.36.36,0,0,1,.36-.36.35.35,0,0,1,.36.36A.36.36,0,0,1,32,23.36Z"/><path d="M6.24,3.26a.36.36,0,0,1-.37-.35.34.34,0,0,1,.34-.36.35.35,0,0,1,.38.34A.36.36,0,0,1,6.24,3.26Z"/><path d="M29.76,5.67a.38.38,0,0,1-.38.36A.36.36,0,0,1,29,5.64a.36.36,0,0,1,.72,0Z"/><path d="M32.33,2.9a.36.36,0,0,1-.36.36.36.36,0,0,1-.36-.36.36.36,0,0,1,.72,0Z"/><path d="M29.76,20.23a.37.37,0,0,1-.36.37.36.36,0,0,1-.36-.37.35.35,0,0,1,.35-.35A.36.36,0,0,1,29.76,20.23Z"/><path d="M29.76,2.91a.36.36,0,0,1-.37.35.36.36,0,1,1,.37-.35Z"/><path d="M16.89,2.91a.37.37,0,0,1-.37.35.35.35,0,0,1-.35-.36.34.34,0,0,1,.36-.35A.36.36,0,0,1,16.89,2.91Z"/></g><path class="cls-4" d="M12.66,13.45c.75,0,1.51,0,2.25.09a1.66,1.66,0,0,1,1.35,1.56,1.79,1.79,0,0,1-.62,1.61,1.7,1.7,0,0,1-1,.36c-.66,0-1.31,0-2,0,0,0,.08-.11.13-.12.36-.06.42-.12.43-.49V14.13c0-.34,0-.47-.42-.5,0,0-.09-.06-.14-.09Zm1.06.21c0,.94,0,1.86,0,2.79a.48.48,0,0,0,0,.2c.05.07.11.16.18.18a1.23,1.23,0,0,0,1.5-.57,2.36,2.36,0,0,0,.13-1.55,1.22,1.22,0,0,0-1.07-1A5,5,0,0,0,13.72,13.66Z"/><path class="cls-4" d="M20.63,15.27a1.92,1.92,0,0,1-3.83,0,1.82,1.82,0,0,1,1.92-1.9A1.81,1.81,0,0,1,20.63,15.27Zm-.56,0a8.12,8.12,0,0,0-.25-1,1.05,1.05,0,0,0-1.08-.72,1.11,1.11,0,0,0-1.13.7,2.54,2.54,0,0,0,.06,2.14,1.07,1.07,0,0,0,1,.6,1.12,1.12,0,0,0,1.05-.59A3.33,3.33,0,0,0,20.07,15.27Z"/><path class="cls-4" d="M14.62,9.56a1.83,1.83,0,0,1-1.95,1.88,1.84,1.84,0,0,1-1.89-1.92,1.82,1.82,0,0,1,2-1.85A1.81,1.81,0,0,1,14.62,9.56Zm-.57,0a8.44,8.44,0,0,0-.25-1,1.06,1.06,0,0,0-1.08-.72,1.1,1.1,0,0,0-1.12.69,2.52,2.52,0,0,0,.06,2.16,1.08,1.08,0,0,0,1,.59,1.11,1.11,0,0,0,1.05-.6A3.32,3.32,0,0,0,14.05,9.54Z"/><path class="cls-4" d="M31,10.46V8.29c0-.2-.11-.3-.31-.34a.76.76,0,0,1-.19-.12l0-.06h1.2l0,0s-.09.1-.14.11c-.28.07-.37.17-.38.45v3c-.17.08-.26,0-.34-.12-.35-.5-.72-1-1.08-1.51s-.71-1-1.07-1.49l0,0c0,.81,0,1.62,0,2.43,0,.34.08.4.41.5.05,0,.08.07.13.11l0,0H28l0,0s.08-.11.13-.12c.29-.08.39-.15.41-.46,0-.47,0-.94,0-1.41V8.39c0-.36-.06-.41-.4-.47a.51.51,0,0,1-.16-.09l0-.08h1a.2.2,0,0,1,.13.1C29.71,8.72,30.33,9.59,31,10.46Z"/><path class="cls-4" d="M28,11.36H26.43l0-.06c.05,0,.09-.1.14-.11.32,0,.37-.1.24-.4s-.13-.51-.3-.62-.44,0-.68,0-.41,0-.61,0a.25.25,0,0,0-.18.12c-.08.18-.15.36-.22.54s0,.37.25.39c.1,0,.18,0,.13.16H23.9c.07-.08.11-.15.15-.16a.56.56,0,0,0,.51-.43l1.2-2.89c0-.07.11-.12.16-.19a1.14,1.14,0,0,1,.19.19l1.25,2.88c.09.22.2.41.46.44C27.86,11.2,27.89,11.27,28,11.36ZM25.14,9.91H26.4l-.63-1.56Z"/><path class="cls-4" d="M23.43,8a.16.16,0,0,1,0-.07l.16-.18A.63.63,0,0,1,23.7,8c0,.3,0,.61,0,.91a.47.47,0,0,1-.06.15.45.45,0,0,1-.13-.11c-.06-.14-.1-.29-.17-.43a1.15,1.15,0,0,0-1.18-.65,1.09,1.09,0,0,0-1,.75,2.43,2.43,0,0,0-.07,1.66,1.24,1.24,0,0,0,1.06.92,1.43,1.43,0,0,0,1.39-.67,1.45,1.45,0,0,0,.1-.18l.18.1a1.82,1.82,0,0,1-2.31.91,1.9,1.9,0,0,1-1-2.54C21,7.69,22.05,7.4,23.43,8Z"/><path class="cls-4" d="M16.56,7.83c-.49.08-.56.16-.56.61s0,1.14,0,1.71a4.68,4.68,0,0,0,.07.54.59.59,0,0,0,.5.51c.69.14,1.17-.06,1.21-.77s0-1.43,0-2.14c0-.25-.17-.35-.39-.39-.06,0-.1-.07-.15-.1s.11-.07.17-.07h1c.05,0,.1,0,.15.07s-.08.08-.13.09C18.05,8,18,8,18,8.42c0,.67,0,1.33,0,2a.93.93,0,0,1-1,1,2.88,2.88,0,0,1-.59,0,.88.88,0,0,1-.86-1c0-.65,0-1.3,0-1.95,0-.49,0-.55-.59-.62.08-.06.12-.13.17-.13h1.39S16.52,7.8,16.56,7.83Z"/><path class="cls-4" d="M6.94,7.75H8.36s.07,0,.12.08-.05,0-.07,0C8,8,8,8,8.2,8.35l.69,1.19.83-1.37c.07-.13,0-.2-.12-.23s-.15,0-.23,0a.57.57,0,0,1-.13-.1l0,0h1.24l0,0c-.05,0-.09.1-.14.11a.7.7,0,0,0-.52.36c-.28.45-.56.9-.83,1.35A.6.6,0,0,0,9,9.85q0,.47,0,.93c0,.28.09.38.38.41.1,0,.19,0,.13.16H8l0-.06s.09-.09.14-.1c.33,0,.4-.12.4-.45v0A2.12,2.12,0,0,0,8,9a6.62,6.62,0,0,1-.46-.71A.65.65,0,0,0,7,7.92S7,7.85,6.91,7.81Z"/><path class="cls-4" d="M25.65,13.64h-.5c-.47,0-.6.09-.78.53a1,1,0,0,1-.13.18l-.07,0c0-.14,0-.27,0-.41s0-.28,0-.43h3.32l.09.83-.06,0a1.66,1.66,0,0,1-.13-.14,1.54,1.54,0,0,0-.17-.31.68.68,0,0,0-.37-.24,4.66,4.66,0,0,0-.75,0c0,.07,0,.13,0,.19v2.57c0,.38,0,.44.43.5,0,0,.09.07.14.1l0,.06H25.12l0-.06s.09-.09.14-.1c.35-.05.42-.12.42-.48V13.64Z"/><path class="cls-4" d="M24.06,17.07H22.5l0,0s.08-.11.13-.12c.37-.06.43-.12.43-.49v-2.3c0-.37-.05-.42-.41-.49a.55.55,0,0,1-.15-.08l0-.06h1.58l0,0c-.05,0-.09.1-.14.11-.37.07-.42.11-.42.49v2.29c0,.37.07.44.43.49.05,0,.09.06.14.09Z"/><path class="cls-4" d="M36.45,19a.53.53,0,1,1-.54-.51A.54.54,0,0,1,36.45,19Z"/><path class="cls-4" d="M3.23,19a.53.53,0,0,1-.53.52A.52.52,0,1,1,3.23,19Z"/><path class="cls-4" d="M28.27,19.48a.52.52,0,0,1,0-1,.52.52,0,0,1,0,1Z"/><path class="cls-4" d="M20.6,18.44a.52.52,0,1,1-.53.52A.54.54,0,0,1,20.6,18.44Z"/><path class="cls-4" d="M13.45,19a.52.52,0,1,1-1,0,.52.52,0,0,1,1,0Z"/><path class="cls-4" d="M10.37,18.44a.53.53,0,0,1,.53.53.54.54,0,0,1-.51.51.52.52,0,1,1,0-1Z"/><path class="cls-4" d="M5.78,19a.52.52,0,1,1-1,0,.52.52,0,1,1,1,0Z"/><path class="cls-4" d="M8.33,4.45a.51.51,0,1,1-.5-.51A.49.49,0,0,1,8.33,4.45Z"/><path class="cls-4" d="M17.52,19a.53.53,0,0,1,.52-.53.52.52,0,1,1-.52.53Z"/><path class="cls-4" d="M25.71,21.27a.5.5,0,0,1,.51.51.49.49,0,0,1-.52.51.5.5,0,0,1-.51-.53A.5.5,0,0,1,25.71,21.27Z"/><path class="cls-4" d="M15.48,3.94a.49.49,0,0,1,.52.49.52.52,0,1,1-1,0A.49.49,0,0,1,15.48,3.94Z"/><path class="cls-4" d="M18,22.29a.51.51,0,1,1,.52-.5A.51.51,0,0,1,18,22.29Z"/><path class="cls-4" d="M18.05,2.14a.51.51,0,0,1-.53-.49A.53.53,0,0,1,18,1.11a.52.52,0,0,1,.53.52A.51.51,0,0,1,18.05,2.14Z"/><path class="cls-4" d="M23.67,4.45a.5.5,0,0,1-.53.51.51.51,0,1,1,.53-.51Z"/><path class="cls-4" d="M2.71,2.14a.51.51,0,0,1-.52-.52.52.52,0,0,1,.51-.51.52.52,0,1,1,0,1Z"/><path class="cls-4" d="M12.94,1.11a.53.53,0,0,1,.51.54.51.51,0,0,1-.53.49.52.52,0,1,1,0-1Z"/><path class="cls-4" d="M20.59,2.14a.52.52,0,0,1-.52-.52.53.53,0,0,1,1.05,0A.52.52,0,0,1,20.59,2.14Z"/><path class="cls-4" d="M28.27,2.14a.52.52,0,0,1-.53-.51.53.53,0,0,1,.52-.52.52.52,0,0,1,.52.5A.51.51,0,0,1,28.27,2.14Z"/><path class="cls-4" d="M2.7,22.29a.51.51,0,0,1-.51-.51.52.52,0,0,1,1,0A.51.51,0,0,1,2.7,22.29Z"/><path class="cls-4" d="M25.71,5a.5.5,0,0,1-.52-.52.52.52,0,0,1,1,0A.5.5,0,0,1,25.71,5Z"/><path class="cls-4" d="M28.26,5a.52.52,0,0,1-.52-.5.52.52,0,0,1,1,0A.52.52,0,0,1,28.26,5Z"/><path class="cls-4" d="M35.92,5a.52.52,0,0,1-.52-.51.53.53,0,1,1,.52.51Z"/><path class="cls-4" d="M25.19,19a.52.52,0,1,1,1,0,.54.54,0,0,1-.52.52A.52.52,0,0,1,25.19,19Z"/><path class="cls-4" d="M30.82,22.29a.5.5,0,0,1-.52-.52.52.52,0,0,1,1,0A.49.49,0,0,1,30.82,22.29Z"/><path class="cls-4" d="M35.93,21.27a.51.51,0,1,1-.53.52A.52.52,0,0,1,35.93,21.27Z"/><path class="cls-4" d="M33.89,21.79a.5.5,0,0,1-.54.5.49.49,0,0,1-.49-.52.5.5,0,0,1,.53-.5A.51.51,0,0,1,33.89,21.79Z"/><path class="cls-4" d="M10.37,2.14a.52.52,0,1,1,0-1,.53.53,0,0,1,.52.51A.52.52,0,0,1,10.37,2.14Z"/><path class="cls-4" d="M5.26,2.14a.52.52,0,0,1,0-1,.52.52,0,0,1,.51.54A.5.5,0,0,1,5.26,2.14Z"/><path class="cls-4" d="M10.37,22.29a.51.51,0,1,1,0-1,.51.51,0,1,1,0,1Z"/><path class="cls-4" d="M12.92,22.29a.51.51,0,1,1,.53-.51A.51.51,0,0,1,12.92,22.29Z"/><path class="cls-4" d="M10.37,5a.52.52,0,0,1-.52-.53.51.51,0,0,1,.53-.49.52.52,0,0,1,.52.5A.52.52,0,0,1,10.37,5Z"/><path class="cls-4" d="M13.45,4.45a.52.52,0,1,1-.51-.51A.5.5,0,0,1,13.45,4.45Z"/><path class="cls-4" d="M23.67,21.78a.5.5,0,0,1-.52.51.49.49,0,0,1-.51-.5.49.49,0,0,1,.52-.52A.51.51,0,0,1,23.67,21.78Z"/><path class="cls-4" d="M18,5a.52.52,0,0,1-.52-.52.5.5,0,0,1,.52-.5.51.51,0,1,1,0,1Z"/><path class="cls-4" d="M20.58,22.29a.52.52,0,0,1-.51-.51.53.53,0,0,1,1.05,0A.51.51,0,0,1,20.58,22.29Z"/><path class="cls-4" d="M28.25,22.29a.51.51,0,0,1-.51-.51.52.52,0,1,1,.51.51Z"/><path class="cls-4" d="M33.37,5a.5.5,0,0,1-.51-.53.49.49,0,0,1,.52-.49.5.5,0,0,1,.51.5A.51.51,0,0,1,33.37,5Z"/><path class="cls-4" d="M35.93,2.14a.52.52,0,0,1-.53-.52.53.53,0,0,1,1.05,0A.52.52,0,0,1,35.93,2.14Z"/><path class="cls-4" d="M8.33,1.62a.51.51,0,1,1-1,0,.51.51,0,1,1,1,0Z"/><path class="cls-4" d="M5.78,21.78a.52.52,0,0,1-1,0,.5.5,0,0,1,.53-.51A.5.5,0,0,1,5.78,21.78Z"/><path class="cls-4" d="M16,1.63a.52.52,0,0,1-1,0,.52.52,0,1,1,1,0Z"/><path class="cls-4" d="M23.67,1.63a.51.51,0,0,1-.51.51.5.5,0,0,1-.52-.52.5.5,0,0,1,.51-.51A.52.52,0,0,1,23.67,1.63Z"/><path class="cls-4" d="M25.7,1.11a.52.52,0,0,1,0,1,.5.5,0,0,1-.52-.49A.51.51,0,0,1,25.7,1.11Z"/><path class="cls-4" d="M16,19a.52.52,0,1,1-.51-.51A.51.51,0,0,1,16,19Z"/><path class="cls-4" d="M33.38,2.14a.49.49,0,0,1-.52-.49.52.52,0,1,1,1,0A.51.51,0,0,1,33.38,2.14Z"/><path class="cls-4" d="M30.3,19a.52.52,0,1,1,.51.52A.52.52,0,0,1,30.3,19Z"/><path class="cls-4" d="M2.71,3.94a.51.51,0,1,1-.52.5A.51.51,0,0,1,2.71,3.94Z"/><path class="cls-4" d="M5.78,4.44A.51.51,0,0,1,5.26,5a.51.51,0,1,1,.52-.52Z"/><path class="cls-4" d="M20.59,5a.51.51,0,1,1,0-1,.51.51,0,0,1,.52.5A.52.52,0,0,1,20.59,5Z"/><path class="cls-4" d="M30.81,5a.5.5,0,0,1-.51-.51.49.49,0,0,1,.52-.51.49.49,0,0,1,.51.5A.5.5,0,0,1,30.81,5Z"/><path class="cls-4" d="M23.67,19a.52.52,0,0,1-.52.53.52.52,0,0,1,0-1A.53.53,0,0,1,23.67,19Z"/><path class="cls-4" d="M8.33,19a.51.51,0,1,1-1,0,.51.51,0,1,1,1,0Z"/><path class="cls-4" d="M33.89,19a.52.52,0,0,1-.52.53.52.52,0,0,1,0-1A.53.53,0,0,1,33.89,19Z"/><path class="cls-4" d="M31.33,1.62a.52.52,0,1,1-1,0,.52.52,0,1,1,1,0Z"/><path class="cls-4" d="M7.81,22.29a.51.51,0,1,1,.52-.51A.49.49,0,0,1,7.81,22.29Z"/><path class="cls-4" d="M16,21.78a.52.52,0,1,1-.51-.51A.5.5,0,0,1,16,21.78Z"/><path class="cls-4" d="M24.45,23.56a.37.37,0,0,1-.36-.37.36.36,0,0,1,.72,0A.36.36,0,0,1,24.45,23.56Z"/><path class="cls-4" d="M14.16,22.84a.34.34,0,0,1,.35.36.36.36,0,1,1-.72,0A.35.35,0,0,1,14.16,22.84Z"/><path class="cls-4" d="M1.64,20.43a.37.37,0,0,1-.35.37.37.37,0,0,1-.37-.36.34.34,0,0,1,.35-.36A.35.35,0,0,1,1.64,20.43Z"/><path class="cls-4" d="M37.31,20.08a.35.35,0,0,1,.37.35.36.36,0,1,1-.72,0A.35.35,0,0,1,37.31,20.08Z"/><path class="cls-4" d="M3.85,20.08a.35.35,0,0,1,.37.35.38.38,0,0,1-.36.37.36.36,0,0,1-.36-.36A.34.34,0,0,1,3.85,20.08Z"/><path class="cls-4" d="M4.22,23.19a.38.38,0,0,1-.36.37.36.36,0,0,1-.36-.36.33.33,0,0,1,.35-.36A.36.36,0,0,1,4.22,23.19Z"/><path class="cls-4" d="M11.58,23.56a.38.38,0,0,1-.37-.36.36.36,0,0,1,.36-.36.34.34,0,0,1,.36.35A.36.36,0,0,1,11.58,23.56Z"/><path class="cls-4" d="M35.1,20.44a.36.36,0,0,1-.36.36.37.37,0,0,1-.36-.37.36.36,0,0,1,.37-.35A.34.34,0,0,1,35.1,20.44Z"/><path class="cls-4" d="M27.39,23.19a.39.39,0,0,1-.36.37.35.35,0,0,1-.36-.36.33.33,0,0,1,.35-.36A.37.37,0,0,1,27.39,23.19Z"/><path class="cls-4" d="M35.1,5.85a.35.35,0,0,1-.35.37.37.37,0,0,1-.37-.35.35.35,0,0,1,.36-.36A.33.33,0,0,1,35.1,5.85Z"/><path class="cls-4" d="M4.22,5.87a.37.37,0,0,1-.37.35.35.35,0,0,1-.35-.37.33.33,0,0,1,.36-.34A.35.35,0,0,1,4.22,5.87Z"/><path class="cls-4" d="M16.73,5.51a.35.35,0,0,1,.36.36.37.37,0,0,1-.37.35.35.35,0,0,1-.35-.36A.33.33,0,0,1,16.73,5.51Z"/><path class="cls-4" d="M17.09,20.43a.38.38,0,0,1-.36.37.36.36,0,0,1-.36-.36.34.34,0,0,1,.35-.36A.35.35,0,0,1,17.09,20.43Z"/><path class="cls-4" d="M34.75,23.56a.38.38,0,0,1-.37-.36.35.35,0,0,1,.36-.36.34.34,0,0,1,.36.35A.36.36,0,0,1,34.75,23.56Z"/><path class="cls-4" d="M22.23,20.44a.36.36,0,0,1-.36.36.37.37,0,0,1-.36-.37.35.35,0,0,1,.36-.35A.34.34,0,0,1,22.23,20.44Z"/><path class="cls-4" d="M27,5.51a.35.35,0,0,1,.38.34.38.38,0,0,1-.36.38.36.36,0,0,1-.36-.36A.33.33,0,0,1,27,5.51Z"/><path class="cls-4" d="M24.46,6.23a.37.37,0,0,1-.37-.36.33.33,0,0,1,.35-.36.34.34,0,0,1,.37.34A.38.38,0,0,1,24.46,6.23Z"/><path class="cls-4" d="M22.23,5.86a.37.37,0,0,1-.35.37.38.38,0,0,1-.37-.37.36.36,0,0,1,.36-.35A.34.34,0,0,1,22.23,5.86Z"/><path class="cls-4" d="M14.51,5.87a.36.36,0,1,1-.72,0,.36.36,0,0,1,.72,0Z"/><path class="cls-4" d="M27.39,3.11a.37.37,0,0,1-.38.35.35.35,0,0,1-.34-.38A.33.33,0,0,1,27,2.75.36.36,0,0,1,27.39,3.11Z"/><path class="cls-4" d="M11.58,2.75a.33.33,0,0,1,.35.36.34.34,0,0,1-.36.35.37.37,0,0,1-.36-.37A.35.35,0,0,1,11.58,2.75Z"/><path class="cls-4" d="M37.68,23.2a.36.36,0,1,1-.72,0,.35.35,0,0,1,.37-.35A.34.34,0,0,1,37.68,23.2Z"/><path class="cls-4" d="M1.64,23.19a.37.37,0,0,1-.36.37.37.37,0,0,1-.36-.36.35.35,0,0,1,.36-.36A.34.34,0,0,1,1.64,23.19Z"/><path class="cls-4" d="M1.29,6.23a.37.37,0,0,1-.37-.36.34.34,0,0,1,.35-.36.34.34,0,0,1,.37.34A.37.37,0,0,1,1.29,6.23Z"/><path class="cls-4" d="M9,22.84a.35.35,0,0,1,.36.35.36.36,0,0,1-.35.37.37.37,0,0,1-.37-.36A.36.36,0,0,1,9,22.84Z"/><path class="cls-4" d="M27.39,20.44a.39.39,0,0,1-.37.36.35.35,0,0,1-.35-.37.33.33,0,0,1,.36-.35A.36.36,0,0,1,27.39,20.44Z"/><path class="cls-4" d="M24.81,20.43a.36.36,0,1,1-.72,0,.36.36,0,0,1,.72,0Z"/><path class="cls-4" d="M19.3,22.84a.35.35,0,0,1,.36.36.36.36,0,0,1-.72,0A.36.36,0,0,1,19.3,22.84Z"/><path class="cls-4" d="M11.58,20.8a.38.38,0,0,1-.37-.37.35.35,0,0,1,.37-.35.34.34,0,0,1,.35.36A.36.36,0,0,1,11.58,20.8Z"/><path class="cls-4" d="M14.15,20.8a.37.37,0,0,1-.36-.37.36.36,0,0,1,.72,0A.37.37,0,0,1,14.15,20.8Z"/><path class="cls-4" d="M32.18,5.51a.34.34,0,0,1,.35.36.37.37,0,0,1-.37.36.4.4,0,0,1-.36-.38A.35.35,0,0,1,32.18,5.51Z"/><path class="cls-4" d="M24.45,2.75a.34.34,0,0,1,.36.35.36.36,0,0,1-.37.36.35.35,0,0,1-.35-.35A.34.34,0,0,1,24.45,2.75Z"/><path class="cls-4" d="M32.53,20.44a.37.37,0,0,1-.37.36.39.39,0,0,1-.36-.37.37.37,0,0,1,.38-.35A.34.34,0,0,1,32.53,20.44Z"/><path class="cls-4" d="M19.66,3.11a.36.36,0,1,1-.72,0,.36.36,0,0,1,.72,0Z"/><path class="cls-4" d="M14.51,3.1a.35.35,0,0,1-.36.36.37.37,0,0,1-.36-.37.35.35,0,0,1,.36-.34A.34.34,0,0,1,14.51,3.1Z"/><path class="cls-4" d="M9.36,5.86A.36.36,0,1,1,9,5.51.34.34,0,0,1,9.36,5.86Z"/><path class="cls-4" d="M6.42,5.51a.35.35,0,0,1,.37.35.36.36,0,0,1-.36.36.35.35,0,0,1-.36-.34A.34.34,0,0,1,6.42,5.51Z"/><path class="cls-4" d="M3.85,3.46A.34.34,0,0,1,3.5,3.1a.33.33,0,0,1,.36-.35.35.35,0,0,1,.36.36A.37.37,0,0,1,3.85,3.46Z"/><path class="cls-4" d="M37.68,3.11a.36.36,0,0,1-.38.35A.35.35,0,0,1,37,3.08a.33.33,0,0,1,.36-.33A.35.35,0,0,1,37.68,3.11Z"/><path class="cls-4" d="M6.79,23.19a.37.37,0,0,1-.36.37.36.36,0,0,1-.36-.36.35.35,0,0,1,.36-.36A.36.36,0,0,1,6.79,23.19Z"/><path class="cls-4" d="M6.79,20.43a.37.37,0,0,1-.36.37.36.36,0,0,1-.36-.35.35.35,0,0,1,.35-.37A.35.35,0,0,1,6.79,20.43Z"/><path class="cls-4" d="M9,20.08a.34.34,0,0,1,.36.35A.37.37,0,0,1,9,20.8a.37.37,0,0,1-.36-.36A.36.36,0,0,1,9,20.08Z"/><path class="cls-4" d="M19.66,20.44a.36.36,0,1,1-.72,0,.35.35,0,0,1,.36-.34A.36.36,0,0,1,19.66,20.44Z"/><path class="cls-4" d="M17.09,23.19a.39.39,0,0,1-.36.37.35.35,0,0,1-.36-.36.34.34,0,0,1,.35-.36A.36.36,0,0,1,17.09,23.19Z"/><path class="cls-4" d="M34.73,3.46a.37.37,0,0,1-.35-.37.35.35,0,0,1,.37-.34.33.33,0,0,1,.35.36A.35.35,0,0,1,34.73,3.46Z"/><path class="cls-4" d="M21.87,23.56a.37.37,0,0,1-.36-.37.36.36,0,0,1,.36-.35.35.35,0,0,1,.36.36A.36.36,0,0,1,21.87,23.56Z"/><path class="cls-4" d="M37.33,6.23A.37.37,0,0,1,37,5.87a.34.34,0,0,1,.35-.36.35.35,0,0,1,.37.35A.38.38,0,0,1,37.33,6.23Z"/><path class="cls-4" d="M.92,3.08a.35.35,0,0,1,.38-.33.35.35,0,0,1,.34.38.36.36,0,0,1-.72,0Z"/><path class="cls-4" d="M29.6,23.56a.36.36,0,0,1-.36-.37.34.34,0,0,1,.35-.35.35.35,0,0,1,.37.35A.37.37,0,0,1,29.6,23.56Z"/><path class="cls-4" d="M11.93,5.87a.36.36,0,0,1-.36.36.38.38,0,0,1-.36-.38.35.35,0,0,1,.37-.34A.33.33,0,0,1,11.93,5.87Z"/><path class="cls-4" d="M9,3.46a.37.37,0,0,1-.37-.35A.34.34,0,0,1,9,2.75a.34.34,0,0,1,.37.34A.35.35,0,0,1,9,3.46Z"/><path class="cls-4" d="M21.88,3.46a.36.36,0,0,1-.37-.36.35.35,0,0,1,.35-.35.34.34,0,0,1,.37.34A.35.35,0,0,1,21.88,3.46Z"/><path class="cls-4" d="M19.31,6.22a.37.37,0,0,1-.37-.35.36.36,0,0,1,.72,0A.35.35,0,0,1,19.31,6.22Z"/><path class="cls-4" d="M32.17,23.56a.37.37,0,0,1-.37-.36.37.37,0,0,1,.37-.36.35.35,0,0,1,.36.36A.36.36,0,0,1,32.17,23.56Z"/><path class="cls-4" d="M6.44,3.46a.35.35,0,0,1-.37-.36.34.34,0,0,1,.34-.35.35.35,0,0,1,.38.34A.37.37,0,0,1,6.44,3.46Z"/><path class="cls-4" d="M30,5.87a.37.37,0,0,1-.38.35.36.36,0,1,1,0-.71A.35.35,0,0,1,30,5.87Z"/><path class="cls-4" d="M32.53,3.09a.36.36,0,0,1-.36.37.37.37,0,0,1-.37-.36.36.36,0,0,1,.36-.35A.34.34,0,0,1,32.53,3.09Z"/><path class="cls-4" d="M30,20.43a.38.38,0,0,1-.36.37.36.36,0,0,1-.36-.37.34.34,0,0,1,.34-.35A.36.36,0,0,1,30,20.43Z"/><path class="cls-4" d="M30,3.11a.36.36,0,0,1-.38.35.35.35,0,0,1-.34-.38.36.36,0,0,1,.72,0Z"/><path class="cls-4" d="M17.09,3.1a.37.37,0,0,1-.37.36.35.35,0,0,1-.35-.36.33.33,0,0,1,.36-.35A.36.36,0,0,1,17.09,3.1Z"/></g></g></svg>