<svg xmlns="http://www.w3.org/2000/svg" viewBox="0 0 38.55 24.66"><defs><style>.cls-1{isolation:isolate;}.cls-2{opacity:0.15;}.cls-2,.cls-3{mix-blend-mode:multiply;}.cls-4{fill:#fff;}</style></defs><title>convert-FIX-SVG-03</title><g class="cls-1"><g id="Layer_1" data-name="Layer 1"><g class="cls-2"><path d="M24.71,14.29c-.27.4-.51.82-.81,1.19a2.8,2.8,0,0,1-2.15,1.05,1.55,1.55,0,0,1-.92-.26c-.34-.24-.66-.51-1-.79l-.19.1c.24.34.44.67.68,1A11.29,11.29,0,0,0,22.92,19a19.27,19.27,0,0,0,3.84,2.2,8.35,8.35,0,0,0,1,.27l.12-1.8h.24L28,23.23h-.26V21.75a8.78,8.78,0,0,1-3.47-1.5,15,15,0,0,1-3.63-2.85c-.45-.53-.85-1.08-1.3-1.66a8.11,8.11,0,0,1-5.4.85,3,3,0,0,0-.09,1.32c.06.42.18.83.28,1.25a7.35,7.35,0,0,1-1.74-1.6c-.3-.39-.56-.8-.85-1.19a.54.54,0,0,0-.27-.2,12.56,12.56,0,0,1-3.85-1.53A5.2,5.2,0,0,1,5.6,12.8a4,4,0,0,1-.46-2.14,5.25,5.25,0,0,1,3.53-5,10.64,10.64,0,0,1,3.69-.78,22,22,0,0,1,6.76.73,6,6,0,0,1,2.25,1,2.22,2.22,0,0,1,.48.53,8.5,8.5,0,0,1,1.2,2.78A3,3,0,0,1,23,11.41l1.2.65c.07-.55.12-1.12.21-1.68a.62.62,0,0,0-.15-.6,3.63,3.63,0,0,1-.93-2.25,3.28,3.28,0,0,1,1-2.61,2.27,2.27,0,0,1,2.16-.5c.41.09.81.26,1.21.38a.37.37,0,0,0,.23,0,10.2,10.2,0,0,1,4.25-.9.73.73,0,0,0,.4-.13,6,6,0,0,1,2.08-1.06,3.14,3.14,0,0,1,2.39.39c.18.11.11.25.12.41L37,3.44a2.78,2.78,0,0,0-2.91-.23,13.43,13.43,0,0,0-1.41.84c-.21.13-.21.32,0,.43a5.34,5.34,0,0,0,.93.38A.39.39,0,0,0,34,4.77,1.69,1.69,0,0,1,36.49,5a3.68,3.68,0,0,1,.68,2,3.32,3.32,0,0,1,0,.76c-.06-.14-.11-.28-.17-.41a.57.57,0,0,0-.12-.18C36,6.55,35.2,6,34.39,5.43a1.23,1.23,0,0,0-.76-.29,1.86,1.86,0,0,1-1.15-.49c-.12-.09-.17-.27-.28-.46-.36,0-.77,0-1.19.07a8.57,8.57,0,0,0-3.2.94,5.34,5.34,0,0,0-.89.6,3.5,3.5,0,0,0-.63.7,10.59,10.59,0,0,0-1.63,4,6,6,0,0,0,.18,3.41,4.11,4.11,0,0,0,1.5,1.87,5,5,0,0,1-1-4.6.69.69,0,0,1-.13-.85c0-.1.17-.15.25-.23.07.09.15.17.21.26s0,.12,0,.18h.05a4.29,4.29,0,0,1,3.5-1.32,3.58,3.58,0,0,1,3.44,3.18,4.3,4.3,0,0,1-.38,2.49A2.66,2.66,0,0,1,31.23,16c.1,0,.18.09.24.08.64-.07,1.27-.15,1.91-.24a2.74,2.74,0,0,0,.51-.18h.45a9,9,0,0,1,2.82-7.76,2.13,2.13,0,0,1,0,.22c0,2,0,4,0,5.93a.3.3,0,0,1-.2.31,2,2,0,0,1-2.17-.21L34.6,14c0,.09,0,.15,0,.22A11.34,11.34,0,0,0,35.11,18,10.3,10.3,0,0,0,36,20.27a2.52,2.52,0,0,0,1.12,1.16V22a1.36,1.36,0,0,0-1.33,1.26h-.24c-.11-.65.51-1.32,1.43-1.53a4.82,4.82,0,0,1-2-2.95c-.28-.83-.44-1.71-.65-2.57l0-.11a1.6,1.6,0,0,0-.33.07.19.19,0,0,0-.09.14c0,.38,0,.76,0,1.14a.25.25,0,0,0,0,.12,1.85,1.85,0,0,0,0,.23,1.22,1.22,0,0,1-.26,0l-2.09-.28a2.23,2.23,0,0,0-.32,0l.18.22a6,6,0,0,1,1.38,2.79,6.62,6.62,0,0,1,0,1.26.37.37,0,0,1-.18.25c-.29.16-.59.3-.92.46,0-.22,0-.41,0-.61a8.31,8.31,0,0,0-.37-3.21,4.27,4.27,0,0,0-.41-.83.42.42,0,0,0-.74,0,1.64,1.64,0,0,0-.28.56c-.18.83-.36,1.66-.51,2.5-.1.61-.13,1.22-.2,1.88L28.49,22s0-.1,0-.16a5,5,0,0,1,1.21-3.71l.3-.34a1.3,1.3,0,0,0-.72.15c-.46.32-.93.62-1.4.92a2.44,2.44,0,0,1-.31.14c0-.31-.06-.58-.09-.86s0-.39-.07-.59-.08-.28.11-.37.06-.17.07-.27a1.07,1.07,0,0,0,0-.21A4.93,4.93,0,0,1,24.71,14.29Zm-11,2a12.68,12.68,0,0,0,2.88.08,7.44,7.44,0,0,0,2.69-.9c0-.05,0-.09-.05-.13a5.29,5.29,0,0,1-.6-2.27,1.67,1.67,0,0,1,.3-1.16A2.51,2.51,0,0,1,21.4,11c.43.06.85.19,1.28.29a1.93,1.93,0,0,0,.12-1.18,8.3,8.3,0,0,0-1.11-2.72,1.78,1.78,0,0,0-.84-.81A13.37,13.37,0,0,0,19,5.88a20.85,20.85,0,0,0-4.45-.7,15,15,0,0,0-4.44.31A6.71,6.71,0,0,0,6.94,7.1,4.87,4.87,0,0,0,5.58,12a4,4,0,0,0,1.77,2.24,11.5,11.5,0,0,0,4.09,1.66.44.44,0,0,1,.32.23,8.36,8.36,0,0,0,1.68,2.11l.17.15c0-.37-.07-.72-.06-1.06S13.64,16.66,13.69,16.29Zm15,.2.22-.07a1.59,1.59,0,0,1,.41-.16c.41-.06.83-.09,1.24-.14a.33.33,0,0,0,.14-.1s.07-.11.12-.13a2.23,2.23,0,0,0,1.29-1.3,4.68,4.68,0,0,0,.31-1.52,3.42,3.42,0,0,0-3.8-3.61,4.51,4.51,0,0,0-2,.65,2.27,2.27,0,0,0-1.16,1.57,4.47,4.47,0,0,0,.85,3.57,2.36,2.36,0,0,0,1.53,1c.25,0,.51,0,.78.05ZM27.51,5a12.94,12.94,0,0,0-1.26-.32,2,2,0,0,0-1.95.7,3.09,3.09,0,0,0-.63,2.71,3.81,3.81,0,0,0,.86,1.62c.08-.25.14-.48.23-.7a.27.27,0,0,0-.1-.36,1.25,1.25,0,0,1-.56-.93,3.45,3.45,0,0,1,.1-.9,1.14,1.14,0,0,1,1-.88,6.72,6.72,0,0,1,.9,0c.11,0,.24,0,.31,0C26.75,5.6,27.1,5.31,27.51,5ZM19.2,14.51l0,0,.35.8.16-.11Z"/><path d="M4,3.22a.9.9,0,0,1,.75-.61.88.88,0,0,1,.94,1.08,2.75,2.75,0,0,1-.19.71A7.52,7.52,0,0,1,5,5.32a.32.32,0,0,1-.25.12,3.82,3.82,0,0,1-1.52-.62,1.17,1.17,0,0,1-.51-.72.84.84,0,0,1,1.06-1Z"/><path d="M4.29,20.64a2.81,2.81,0,0,1,.59-.31c.58-.14,1,.37.84,1a2.51,2.51,0,0,1-.78,1.19c-.36.34-.26.34-.68.09a5,5,0,0,1-.89-.7,1.09,1.09,0,0,1-.28-.49.7.7,0,0,1,.24-.78.78.78,0,0,1,.82-.07Z"/><path d="M18.86,20,19,20a.78.78,0,0,1,.91,0,.75.75,0,0,1,.2.86,1.8,1.8,0,0,1-.64.8c-.19.15-.4.26-.6.4a.22.22,0,0,1-.32,0,3.16,3.16,0,0,1-.87-1,1.44,1.44,0,0,1-.15-.6.65.65,0,0,1,.43-.63.75.75,0,0,1,.77.14Z"/><path d="M20.82,2.75a3.08,3.08,0,0,1,.45-.22.7.7,0,0,1,.84.93,1.88,1.88,0,0,1-.71,1c-.65.51-.46.52-1.1,0a2.56,2.56,0,0,1-.62-.76A.94.94,0,0,1,19.59,3a.69.69,0,0,1,1.1-.37Z"/><path d="M8.47,18.11a1.46,1.46,0,0,1,.2-.27.59.59,0,0,1,.64-.16.6.6,0,0,1,.42.53,2,2,0,0,1-.35,1.26c-.19.32-.2.34-.56.22a9,9,0,0,1-.9-.39.8.8,0,0,1-.23-.22.6.6,0,0,1-.08-.73.64.64,0,0,1,.68-.28Z"/><path d="M12.78,2.38a2.81,2.81,0,0,1,.45-.27c.43-.13.77.24.68.71a2.24,2.24,0,0,1-.67,1.11.2.2,0,0,1-.17,0l-.94-.58a.59.59,0,0,1-.15-.2.61.61,0,0,1,0-.71.61.61,0,0,1,.69-.11Z"/><path d="M4.15,15.31a.92.92,0,0,1,.15-.14.58.58,0,0,1,.62-.06.52.52,0,0,1,.26.56,1.91,1.91,0,0,1-.77,1.14s-.11,0-.15,0c-.28-.19-.55-.38-.81-.59a.83.83,0,0,1-.2-.34.49.49,0,0,1,.13-.58.55.55,0,0,1,.6-.08A.7.7,0,0,1,4.15,15.31Z"/><path d="M32.44,10.11a.82.82,0,0,1-.8-.83.77.77,0,0,1,.79-.79.8.8,0,0,1,.78.85A.75.75,0,0,1,32.44,10.11Z"/><path d="M27.9,2.35c.44-.1.74.1.67.46a.57.57,0,0,1-.22.34,7.81,7.81,0,0,1-.83.38s-.13,0-.14-.06a4.78,4.78,0,0,1-.36-.8.48.48,0,0,1,.28-.61C27.52,2,27.71,2.07,27.9,2.35Z"/><path d="M13.7,21.26h0c.36-.06.54,0,.63.23s0,.46-.28.65l-.06,0-.8.24a1.52,1.52,0,0,1-.39-1.11.37.37,0,0,1,.33-.34,1.08,1.08,0,0,1,.44.14C13.64,21.14,13.66,21.21,13.7,21.26Z"/><path d="M10.47,7.88,9.26,8.1a6.14,6.14,0,0,1-.17.63A.91.91,0,0,1,8.92,9c0-.08-.12-.16-.12-.24a1,1,0,0,1,.07-.39,3.89,3.89,0,0,1,.89-1.4,1.55,1.55,0,0,1,.39-.28.44.44,0,0,1,.67.41,10.54,10.54,0,0,1-.22,1.35,1.27,1.27,0,0,1-.15.41c0,.06-.13.09-.2.13s-.09-.16-.07-.23C10.26,8.45,10.36,8.19,10.47,7.88Zm-.93-.23,0,.06c.18,0,.36,0,.53-.06.44-.06.44-.07.43-.49s-.14-.35-.38-.21A2,2,0,0,0,9.54,7.65Z"/><path d="M13.55,11.2c.09,0,.19.05.28.09.25.1.32.31.13.49a1,1,0,0,1-1,.34c-.06,0-.12,0-.23,0s0-.2,0-.28c.11-.42.21-.83.31-1.25a.2.2,0,0,1,.23-.18,1.72,1.72,0,0,0,.48-.13.27.27,0,0,1,.12,0c.13.05.31.07.37.17a.29.29,0,0,1-.12.39C14,11,13.75,11.08,13.55,11.2ZM13,12a1,1,0,0,0,.74-.22c.14-.11.11-.24-.06-.31-.43-.17-.53-.12-.64.32C13,11.81,13,11.87,13,12Zm.25-.82c.24-.12.47-.23.68-.36s.07-.13.11-.2-.14-.1-.21-.09C13.38,10.56,13.31,10.62,13.25,11.14Z"/><path d="M11.55,8.69c.16,0,.31-.08.46-.14l.7-.3a.54.54,0,0,1,.18,0c0,.07,0,.19,0,.21-.45.17-.89.36-1.35.49-.18.05-.36-.19-.31-.38.1-.38.23-.76.34-1.13.06-.21.08-.42.15-.61s.14-.23.2-.22.14.17.11.29c-.08.29-.18.58-.27.87l-.24.86Z"/><path d="M13.58,8.69,14,8.56l.71-.31a.47.47,0,0,1,.17,0,1.5,1.5,0,0,1,0,.22.36.36,0,0,1-.12.08c-.36.13-.72.27-1.09.39a.33.33,0,0,1-.45-.4,4.71,4.71,0,0,1,.19-.64c.1-.36.19-.72.3-1.08,0-.08.12-.14.19-.21,0,.09.13.19.11.27-.07.3-.18.59-.26.89s-.16.58-.24.87Z"/><path d="M9.24,11.36c-.33.09-.62.15-.89.25-.08,0-.14.16-.18.26a1.79,1.79,0,0,0-.13.32H7.93a1,1,0,0,1,0-.24c.16-.53.33-1.07.5-1.6,0-.06.08-.1.12-.14s.07.13.06.18c-.06.27-.15.53-.22.79a1.06,1.06,0,0,0-.05.18l.94-.2s.08-.09.1-.15.1-.37.16-.54.11-.12.17-.17.09.16.07.23c-.09.3-.21.6-.31.9s-.05.35-.1.52-.11.13-.17.2a1.27,1.27,0,0,1-.07-.24C9.16,11.73,9.2,11.57,9.24,11.36Z"/><path d="M10.16,12l.89-.32,0,.07c-.06.06-.11.14-.18.17a5.11,5.11,0,0,1-.76.23c-.22,0-.31-.06-.25-.27.13-.45.27-.89.43-1.33,0-.12.1-.32.3-.12,0,0,.12,0,.18,0s.27-.08.41-.1.21,0,.32,0l0,.07a.55.55,0,0,1-.15.08l-.49.11c-.44.12-.44.13-.6.67l.86-.24.05.06a1,1,0,0,1-.19.16c-.18.08-.38.14-.57.21S10.16,11.57,10.16,12Z"/><path d="M15.58,11.74c-.06.06-.12.14-.2.16a4.54,4.54,0,0,1-.74.23c-.22,0-.31-.06-.25-.27.13-.45.27-.89.43-1.33,0-.11.09-.33.3-.12,0,0,.12,0,.18,0s.27-.08.41-.1H16l0,.08a.5.5,0,0,1-.14.08l-.51.12c-.43.11-.48.18-.57.66l.84-.24.05.06a.84.84,0,0,1-.18.15c-.19.09-.38.15-.57.22s-.32.14-.32.49c.34.1.58-.25.9-.23Z"/><path d="M15.89,11.87l.16,0a.75.75,0,0,0,1-.45c.06-.15,0-.19-.15-.2s-.25,0-.36,0a.53.53,0,0,1-.32-.18.43.43,0,0,1,.06-.34,1.41,1.41,0,0,1,.82-.55.38.38,0,0,1,.21,0c.07,0,.11.12.17.18a.75.75,0,0,1-.2,0,1.06,1.06,0,0,0-.85.49c-.05.13,0,.17.13.18h.36a.35.35,0,0,1,.29.57,1.18,1.18,0,0,1-.75.56A.43.43,0,0,1,15.89,11.87Z"/><path d="M7.16,10.56l-.53.2a.45.45,0,0,1-.16,0c0-.05,0-.13.08-.15A3,3,0,0,1,8,10.29c.06,0,.12.07.19.11a.88.88,0,0,1-.2.09c-.18,0-.4-.05-.53,0s-.13.31-.17.47c-.09.31-.16.63-.26.94,0,.06-.09.11-.14.16s-.08-.14-.06-.2c.08-.34.18-.68.27-1C7.14,10.79,7.14,10.7,7.16,10.56Z"/><path d="M18.44,10.56l-.54.19s-.11,0-.17,0,.05-.12.1-.14a3,3,0,0,1,1.42-.3.15.15,0,0,1,.1,0,1.31,1.31,0,0,1,.12.11s-.09.08-.14.08-.34,0-.5,0a.26.26,0,0,0-.16.13c-.12.45-.23.9-.35,1.35,0,0-.09.08-.13.11s-.09-.12-.08-.17c.07-.28.15-.55.22-.83S18.4,10.77,18.44,10.56Z"/><path d="M27.56,15.18l-1.29-.66s-.06-.1-.06-.15a2.8,2.8,0,0,1,.1-.36l.94.4a.66.66,0,0,0,.12-.55,2,2,0,0,0-.71-1.2,3.19,3.19,0,0,1-.45-.45s0-.14,0-.21v0a1.06,1.06,0,0,1,1-.78c.33,0,.64-.15,1-.21a.25.25,0,0,1,.2.07c.13.18.24.37.37.55a.18.18,0,0,1,0,.25c-.31.39-.61.78-.9,1.18a.44.44,0,0,0-.05.28,1,1,0,0,0,.72.91c.46.19.45.23.81-.14a3.58,3.58,0,0,0,.26-.28l.45.34c-.25.29-.5.55-.74.83-.08.1-.15.07-.24,0l-1.14-.53Z"/><path d="M24.91,14.48c-.27.41-.51.83-.81,1.2A2.83,2.83,0,0,1,22,16.73a1.55,1.55,0,0,1-.92-.26c-.34-.24-.66-.51-1-.79l-.18.1c.23.34.44.67.68,1a11.47,11.47,0,0,0,2.61,2.45A19.82,19.82,0,0,0,27,21.42c.3.12.62.17.95.27L28,19.88h.25l-.07,3.54H28V22a8.78,8.78,0,0,1-3.47-1.5,15,15,0,0,1-3.63-2.85c-.45-.53-.85-1.09-1.3-1.66a8.25,8.25,0,0,1-5.4.85,3,3,0,0,0-.09,1.32c.06.42.18.83.28,1.25a7.6,7.6,0,0,1-1.75-1.6c-.29-.39-.55-.8-.84-1.19a.48.48,0,0,0-.27-.2,12.46,12.46,0,0,1-3.85-1.53A5.12,5.12,0,0,1,5.8,13a4,4,0,0,1-.46-2.14,5.27,5.27,0,0,1,3.53-5,10.86,10.86,0,0,1,3.69-.77,22,22,0,0,1,6.76.73,6,6,0,0,1,2.25,1,2,2,0,0,1,.47.53,8.33,8.33,0,0,1,1.2,2.77,2.89,2.89,0,0,1-.06,1.5l1.2.65c.06-.56.11-1.12.21-1.68a.65.65,0,0,0-.15-.61,3.58,3.58,0,0,1-.93-2.24,3.26,3.26,0,0,1,1-2.61,2.27,2.27,0,0,1,2.16-.5A11.25,11.25,0,0,1,27.9,5a.37.37,0,0,0,.23,0,10,10,0,0,1,4.25-.9.73.73,0,0,0,.4-.13,6.07,6.07,0,0,1,2.07-1.06,3.11,3.11,0,0,1,2.4.39c.18.11.11.25.12.41l-.14-.08a2.76,2.76,0,0,0-2.91-.23,11.15,11.15,0,0,0-1.41.84c-.21.13-.21.31,0,.43a5,5,0,0,0,.93.38A.39.39,0,0,0,34.17,5a1.69,1.69,0,0,1,2.52.21,3.65,3.65,0,0,1,.68,2,3.2,3.2,0,0,1,0,.75c-.06-.13-.11-.27-.17-.4A.47.47,0,0,0,37,7.32L34.58,5.63a1.19,1.19,0,0,0-.75-.29,1.92,1.92,0,0,1-1.15-.49,1.82,1.82,0,0,1-.28-.47c-.36,0-.78,0-1.19.08A8.39,8.39,0,0,0,28,5.4a4.91,4.91,0,0,0-.89.59,3.86,3.86,0,0,0-.63.71,10.53,10.53,0,0,0-1.63,4A6,6,0,0,0,25,14.07a4.11,4.11,0,0,0,1.5,1.87,5,5,0,0,1-1-4.6.71.71,0,0,1-.13-.86c0-.09.16-.14.25-.22.07.09.15.17.21.26a.53.53,0,0,1,0,.18s0,0,0,0a4.35,4.35,0,0,1,3.51-1.31,3.57,3.57,0,0,1,3.43,3.18,4.22,4.22,0,0,1-.38,2.49,2.54,2.54,0,0,1-1.06,1.15c.11,0,.18.09.25.08l1.91-.24a3.38,3.38,0,0,0,.51-.18h.45A9,9,0,0,1,37.36,8.1c0,.12,0,.17,0,.23,0,2,0,4,0,5.93a.28.28,0,0,1-.2.3,2,2,0,0,1-2.17-.2l-.21-.15c0,.1,0,.16,0,.22a11.4,11.4,0,0,0,.52,3.76,10.3,10.3,0,0,0,.93,2.28,2.52,2.52,0,0,0,1.12,1.16v.54A1.36,1.36,0,0,0,36,23.43h-.24c-.11-.65.51-1.32,1.43-1.53A4.78,4.78,0,0,1,35.27,19c-.28-.83-.44-1.71-.65-2.57a.66.66,0,0,1,0-.11,1.6,1.6,0,0,0-.33.07.19.19,0,0,0-.09.14c0,.38,0,.76,0,1.14a.5.5,0,0,0,0,.12l0,.23a.71.71,0,0,1-.25,0c-.7-.08-1.4-.18-2.1-.27a1.32,1.32,0,0,0-.31,0l.18.22a6,6,0,0,1,1.38,2.79,6.62,6.62,0,0,1,0,1.26.36.36,0,0,1-.19.25c-.28.16-.58.3-.91.46,0-.22,0-.42,0-.61a8.31,8.31,0,0,0-.37-3.21,3.81,3.81,0,0,0-.42-.83.41.41,0,0,0-.73,0,1.78,1.78,0,0,0-.28.57c-.18.83-.37,1.66-.51,2.5-.1.6-.14,1.22-.21,1.88l-.82-.83s0-.1,0-.16a5,5,0,0,1,1.21-3.71,3.81,3.81,0,0,1,.3-.35,1.45,1.45,0,0,0-.73.16c-.45.32-.92.62-1.39.92a1.93,1.93,0,0,1-.31.13c0-.3-.07-.58-.1-.85s0-.39-.06-.59-.08-.28.11-.37.06-.18.07-.27a1,1,0,0,0,0-.21A4.94,4.94,0,0,1,24.91,14.48Zm-11,2a12.61,12.61,0,0,0,2.87.08,7.32,7.32,0,0,0,2.69-.9.5.5,0,0,0,0-.13,5.29,5.29,0,0,1-.6-2.27,1.66,1.66,0,0,1,.3-1.16,2.49,2.49,0,0,1,2.49-.89c.43.06.85.19,1.28.29A2,2,0,0,0,23,10.33,8.68,8.68,0,0,0,21.89,7.6a1.86,1.86,0,0,0-.84-.8,13.88,13.88,0,0,0-1.85-.72,20.94,20.94,0,0,0-4.46-.7,15,15,0,0,0-4.43.31A6.66,6.66,0,0,0,7.14,7.3a4.87,4.87,0,0,0-1.36,4.91,4,4,0,0,0,1.77,2.24,11.5,11.5,0,0,0,4.09,1.66.44.44,0,0,1,.32.23,8.36,8.36,0,0,0,1.68,2.11l.17.15c0-.38-.07-.72-.06-1.06S13.84,16.86,13.89,16.49Zm15,.2.21-.07a1.81,1.81,0,0,1,.42-.16c.41-.06.83-.09,1.24-.15.05,0,.1,0,.14-.09s.07-.11.12-.13a2.29,2.29,0,0,0,1.29-1.3,4.68,4.68,0,0,0,.31-1.52,3.42,3.42,0,0,0-3.8-3.61,4.51,4.51,0,0,0-2,.65,2.2,2.2,0,0,0-1.16,1.57,4.48,4.48,0,0,0,.84,3.57,2.4,2.4,0,0,0,1.54,1,6.57,6.57,0,0,0,.78,0ZM27.71,5.18a10.59,10.59,0,0,0-1.26-.32,2,2,0,0,0-2,.7,3.11,3.11,0,0,0-.62,2.71,3.7,3.7,0,0,0,.86,1.62c.08-.25.14-.48.22-.7a.27.27,0,0,0-.09-.36,1.25,1.25,0,0,1-.56-.93,3.41,3.41,0,0,1,.1-.9,1.13,1.13,0,0,1,1-.88,6.72,6.72,0,0,1,.9,0c.1,0,.24,0,.31,0C27,5.8,27.3,5.51,27.71,5.18ZM19.4,14.71l0,0,.34.8.17-.12Z"/><path d="M4.24,3.42A.9.9,0,0,1,5,2.81a.87.87,0,0,1,.93,1.08,2.49,2.49,0,0,1-.19.71,6.91,6.91,0,0,1-.51.92A.32.32,0,0,1,5,5.64,3.78,3.78,0,0,1,3.45,5a1.19,1.19,0,0,1-.51-.73A.83.83,0,0,1,4,3.34Z"/><path d="M4.49,20.84a2.41,2.41,0,0,1,.59-.31c.57-.14,1,.36.84,1a2.56,2.56,0,0,1-.78,1.19c-.36.34-.26.34-.68.09a6,6,0,0,1-.9-.7,1.07,1.07,0,0,1-.27-.49.69.69,0,0,1,.24-.78.78.78,0,0,1,.82-.07Z"/><path d="M19.06,20.23l.11-.08a.78.78,0,0,1,.91,0,.75.75,0,0,1,.2.86,1.8,1.8,0,0,1-.64.8c-.19.15-.4.26-.6.4a.22.22,0,0,1-.32,0,3.16,3.16,0,0,1-.87-1,1.44,1.44,0,0,1-.15-.61.64.64,0,0,1,.43-.62.75.75,0,0,1,.77.14A1.58,1.58,0,0,1,19.06,20.23Z"/><path d="M21,3a3.08,3.08,0,0,1,.45-.22.7.7,0,0,1,.84.93,1.92,1.92,0,0,1-.71,1c-.65.51-.46.52-1.1,0a2.69,2.69,0,0,1-.62-.76,1,1,0,0,1-.1-.64.7.7,0,0,1,1.11-.37Z"/><path d="M8.67,18.31a1.46,1.46,0,0,1,.2-.27.59.59,0,0,1,.64-.16.58.58,0,0,1,.41.53,1.89,1.89,0,0,1-.35,1.26c-.18.32-.19.34-.55.22a8.11,8.11,0,0,1-.91-.4.63.63,0,0,1-.22-.21.6.6,0,0,1-.08-.73.62.62,0,0,1,.67-.28Z"/><path d="M13,2.58a2.43,2.43,0,0,1,.45-.27c.42-.13.77.23.68.71a2.17,2.17,0,0,1-.67,1.1.17.17,0,0,1-.17,0c-.32-.19-.64-.38-.95-.58a.87.87,0,0,1-.15-.21.58.58,0,0,1,.05-.7.61.61,0,0,1,.69-.11Z"/><path d="M4.35,15.51a.92.92,0,0,1,.15-.14.56.56,0,0,1,.62-.06.52.52,0,0,1,.26.55A2,2,0,0,1,4.61,17s-.11,0-.15,0a9.9,9.9,0,0,1-.81-.59.73.73,0,0,1-.2-.34.49.49,0,0,1,.13-.58.57.57,0,0,1,.6-.09Z"/><path d="M32.64,10.31a.83.83,0,0,1-.81-.84.78.78,0,0,1,.8-.78.8.8,0,0,1,.78.84A.76.76,0,0,1,32.64,10.31Z"/><path d="M28.1,2.55c.44-.11.74.1.67.46a.62.62,0,0,1-.22.34,5.78,5.78,0,0,1-.84.37s-.12,0-.13-.05a4.09,4.09,0,0,1-.36-.8.48.48,0,0,1,.28-.61C27.72,2.18,27.91,2.27,28.1,2.55Z"/><path d="M13.89,21.46h0c.36-.05.54,0,.63.23s0,.47-.29.66l0,0-.81.24A1.51,1.51,0,0,1,13,21.52a.36.36,0,0,1,.33-.34,1,1,0,0,1,.44.14S13.86,21.41,13.89,21.46Z"/><path d="M10.67,8.08,9.46,8.3c0,.16-.1.4-.17.63a1.13,1.13,0,0,1-.17.23C9.08,9.08,9,9,9,8.92a1,1,0,0,1,.07-.39A3.89,3.89,0,0,1,10,7.13a1.39,1.39,0,0,1,.39-.28.43.43,0,0,1,.67.41,10.54,10.54,0,0,1-.22,1.35,1.56,1.56,0,0,1-.15.41c0,.06-.14.09-.21.13s-.08-.16-.06-.23C10.46,8.65,10.56,8.39,10.67,8.08Zm-.93-.23,0,.06c.17,0,.36,0,.53-.06.44-.07.44-.07.43-.49s-.14-.36-.38-.21A2,2,0,0,0,9.74,7.85Z"/><path d="M13.75,11.4c.09,0,.19,0,.28.09.25.1.32.31.13.49a1,1,0,0,1-1,.34c-.06,0-.12,0-.23,0s0-.2.05-.29c.1-.41.21-.82.31-1.24,0-.11.07-.19.22-.18A1.69,1.69,0,0,0,14,10.5a.27.27,0,0,1,.12,0c.13,0,.3.07.37.17s0,.29-.12.38S14,11.28,13.75,11.4Zm-.55.76a1,1,0,0,0,.74-.23c.14-.1.1-.23-.06-.3-.43-.17-.53-.12-.64.31C13.23,12,13.22,12.07,13.2,12.16Zm.25-.82c.24-.13.46-.23.68-.36.06,0,.07-.13.11-.2s-.15-.1-.21-.09C13.58,10.75,13.51,10.82,13.45,11.34Z"/><path d="M11.75,8.89c.15-.05.31-.08.46-.14l.69-.3a.61.61,0,0,1,.19,0c0,.07,0,.19,0,.21-.45.17-.89.36-1.36.49-.18,0-.35-.19-.3-.38.1-.38.23-.76.34-1.13A6.23,6.23,0,0,1,11.89,7c0-.08.14-.22.2-.21s.14.17.11.29c-.08.29-.19.57-.27.86s-.16.58-.24.87Z"/><path d="M13.78,8.89c.15-.05.31-.08.45-.14s.48-.21.72-.3a.47.47,0,0,1,.17,0,1.64,1.64,0,0,1,0,.22.36.36,0,0,1-.12.08c-.36.13-.72.27-1.09.39a.33.33,0,0,1-.45-.4c0-.22.12-.43.18-.65s.2-.72.31-1.07c0-.08.12-.14.19-.22,0,.1.13.2.11.28-.07.3-.18.59-.26.89s-.17.58-.25.86Z"/><path d="M9.44,11.56c-.33.09-.62.15-.9.25-.08,0-.13.16-.17.25a2.26,2.26,0,0,0-.13.33H8.13a.64.64,0,0,1,0-.24c.16-.53.32-1.07.5-1.61,0,0,.08-.09.12-.13s.07.13.06.18c-.07.26-.15.52-.23.79l0,.18.93-.2a.23.23,0,0,0,.1-.15c.06-.18.1-.37.17-.54s.11-.12.17-.17.08.16.07.23c-.09.3-.21.6-.31.9s0,.35-.1.51a.65.65,0,0,1-.17.2.75.75,0,0,1-.07-.23C9.36,11.93,9.4,11.77,9.44,11.56Z"/><path d="M10.35,12.18l.9-.32,0,.07c-.06.05-.11.14-.18.16a4.19,4.19,0,0,1-.76.24c-.22.05-.31-.06-.25-.28q.2-.66.42-1.32c.05-.12.1-.33.31-.13,0,0,.12,0,.18,0s.27-.08.41-.1.21,0,.32,0v.07a.39.39,0,0,1-.14.08l-.49.11c-.44.12-.44.12-.6.67l.86-.24,0,.06a.9.9,0,0,1-.19.15c-.18.08-.38.15-.57.22S10.36,11.77,10.35,12.18Z"/><path d="M15.78,11.94c-.07.06-.12.14-.2.16a4.87,4.87,0,0,1-.74.23c-.22.05-.31-.06-.25-.27.13-.45.27-.89.42-1.33.05-.12.1-.33.31-.13,0,0,.12,0,.18,0s.27-.08.41-.1h.32v.08a.35.35,0,0,1-.13.08c-.17,0-.35.07-.52.12-.42.11-.48.18-.56.66l.84-.24.05.06a.84.84,0,0,1-.18.15l-.57.22c-.3.11-.32.14-.33.49.35.1.58-.25.9-.23Z"/><path d="M16.09,12.07l.16,0a.75.75,0,0,0,1-.45c.06-.15,0-.19-.15-.21a2.14,2.14,0,0,1-.36,0,.53.53,0,0,1-.32-.18.36.36,0,0,1,.06-.34,1.38,1.38,0,0,1,.82-.55.31.31,0,0,1,.21,0,.93.93,0,0,1,.16.18.63.63,0,0,1-.19,0,1,1,0,0,0-.85.49c-.05.13,0,.17.13.18h.36a.34.34,0,0,1,.29.56,1.16,1.16,0,0,1-.76.57A.42.42,0,0,1,16.09,12.07Z"/><path d="M7.36,10.76,6.82,11s-.1,0-.16,0,0-.12.09-.14a3.07,3.07,0,0,1,1.46-.3c.07,0,.13.08.19.12a.46.46,0,0,1-.19.08c-.18,0-.4,0-.54,0s-.12.31-.16.47c-.09.31-.17.62-.26.93,0,.07-.09.12-.14.17s-.08-.14-.06-.2c.08-.34.18-.68.26-1A1.66,1.66,0,0,0,7.36,10.76Z"/><path d="M18.64,10.75c-.21.08-.37.15-.54.2a.55.55,0,0,1-.17,0c0-.05.05-.12.09-.14a3.07,3.07,0,0,1,1.43-.3.15.15,0,0,1,.1,0,.63.63,0,0,1,.12.11s-.09.08-.14.08-.34,0-.5,0a.21.21,0,0,0-.16.13c-.13.45-.23.9-.36,1.35,0,0-.08.07-.12.11s-.09-.12-.08-.17c.06-.28.15-.55.22-.83S18.6,11,18.64,10.75Z"/><path d="M27.76,15.37l-1.29-.65a.16.16,0,0,1-.06-.15c0-.12.06-.23.09-.36l.95.4a.7.7,0,0,0,.12-.55,2,2,0,0,0-.71-1.2,3.19,3.19,0,0,1-.45-.45s0-.14,0-.21v0a1,1,0,0,1,1-.78c.32,0,.64-.15,1-.21a.25.25,0,0,1,.2.07c.13.17.24.37.36.54a.18.18,0,0,1,0,.26c-.3.39-.6.78-.89,1.18a.44.44,0,0,0-.05.28,1,1,0,0,0,.72.91c.46.19.45.22.81-.14l.26-.28.45.34c-.25.28-.5.55-.74.83-.09.1-.15.07-.24,0l-1.15-.53Z"/></g><g class="cls-3"><path d="M24.57,14.14c-.27.41-.51.83-.81,1.2a2.83,2.83,0,0,1-2.15,1.05,1.55,1.55,0,0,1-.92-.26c-.34-.24-.66-.51-1-.79l-.18.1c.23.34.44.67.68,1a11.47,11.47,0,0,0,2.61,2.45,19.82,19.82,0,0,0,3.84,2.21c.3.12.62.17.95.27l.12-1.81h.25l-.07,3.54h-.26V21.61a8.78,8.78,0,0,1-3.47-1.5,15,15,0,0,1-3.63-2.85c-.45-.53-.85-1.09-1.3-1.66a8.25,8.25,0,0,1-5.4.85,3,3,0,0,0-.09,1.32c.06.42.18.83.28,1.25a7.6,7.6,0,0,1-1.75-1.6c-.29-.39-.55-.8-.84-1.2a.52.52,0,0,0-.27-.19A12.36,12.36,0,0,1,7.29,14.5a5.12,5.12,0,0,1-1.83-1.84A4,4,0,0,1,5,10.52a5.27,5.27,0,0,1,3.53-5,10.81,10.81,0,0,1,3.69-.77A22,22,0,0,1,19,5.48a6,6,0,0,1,2.25,1A2,2,0,0,1,21.7,7a8.33,8.33,0,0,1,1.2,2.77,2.89,2.89,0,0,1-.06,1.5l1.2.65c.06-.56.11-1.12.21-1.68a.65.65,0,0,0-.15-.61,3.58,3.58,0,0,1-.93-2.24,3.26,3.26,0,0,1,1-2.61,2.27,2.27,0,0,1,2.16-.5,11.25,11.25,0,0,1,1.21.38.37.37,0,0,0,.23,0A10,10,0,0,1,32,3.77a.73.73,0,0,0,.4-.13,6.07,6.07,0,0,1,2.07-1.06,3.11,3.11,0,0,1,2.4.39c.18.11.11.25.12.41l-.14-.08A2.76,2.76,0,0,0,34,3.07a11.15,11.15,0,0,0-1.41.84c-.21.13-.21.31,0,.43a5,5,0,0,0,.93.38.39.39,0,0,0,.32-.09,1.69,1.69,0,0,1,2.52.21,3.65,3.65,0,0,1,.68,2,3.2,3.2,0,0,1,0,.75c-.06-.13-.11-.27-.17-.4A.47.47,0,0,0,36.7,7c-.82-.57-1.64-1.12-2.46-1.7A1.23,1.23,0,0,0,33.49,5a1.92,1.92,0,0,1-1.15-.49A1.82,1.82,0,0,1,32.06,4c-.36,0-.78,0-1.19.08a8.39,8.39,0,0,0-3.2.94,5.37,5.37,0,0,0-.9.59,4.21,4.21,0,0,0-.62.71,10.53,10.53,0,0,0-1.63,4,6,6,0,0,0,.18,3.41,4.11,4.11,0,0,0,1.5,1.87,5,5,0,0,1-1-4.6.71.71,0,0,1-.13-.86c0-.09.16-.14.25-.22.07.09.15.17.21.26a.53.53,0,0,1,0,.18h0a4.35,4.35,0,0,1,3.51-1.31,3.57,3.57,0,0,1,3.43,3.18,4.22,4.22,0,0,1-.38,2.49,2.54,2.54,0,0,1-1.06,1.15c.11,0,.18.09.25.08.63-.07,1.27-.15,1.9-.24a3.16,3.16,0,0,0,.52-.18h.45A9,9,0,0,1,37,7.76c0,.12,0,.17,0,.23,0,2,0,4,0,5.93a.28.28,0,0,1-.2.3,2,2,0,0,1-2.17-.2l-.21-.15c0,.1,0,.16,0,.22A11.4,11.4,0,0,0,35,17.85a10.3,10.3,0,0,0,.93,2.28A2.52,2.52,0,0,0,37,21.29v.54a1.36,1.36,0,0,0-1.33,1.26h-.24c-.11-.65.51-1.32,1.43-1.53a4.78,4.78,0,0,1-2-2.95c-.28-.83-.44-1.71-.65-2.57a.66.66,0,0,1,0-.11,1.6,1.6,0,0,0-.33.07.19.19,0,0,0-.09.14c0,.38,0,.76,0,1.14a.5.5,0,0,0,0,.12l0,.23a.71.71,0,0,1-.25,0c-.7-.08-1.4-.18-2.1-.27a1.32,1.32,0,0,0-.31,0l.18.22a6,6,0,0,1,1.38,2.79,6.62,6.62,0,0,1,0,1.26.36.36,0,0,1-.19.25c-.28.16-.58.3-.91.46,0-.22,0-.42,0-.61a8.31,8.31,0,0,0-.37-3.21,3.81,3.81,0,0,0-.42-.83.41.41,0,0,0-.73,0,1.78,1.78,0,0,0-.28.57c-.18.83-.37,1.66-.51,2.5-.1.6-.14,1.22-.21,1.88l-.82-.83s0-.1,0-.16A5,5,0,0,1,29.52,18a3.81,3.81,0,0,1,.3-.35,1.36,1.36,0,0,0-.73.16c-.45.32-.92.62-1.39.92a1.93,1.93,0,0,1-.31.13c0-.3-.07-.58-.1-.85l-.06-.59c0-.14-.09-.28.11-.37s.06-.18.07-.27a1,1,0,0,0,0-.21A4.94,4.94,0,0,1,24.57,14.14Zm-11,2a12.61,12.61,0,0,0,2.87.08,7.15,7.15,0,0,0,2.69-.91.56.56,0,0,0,0-.12,5.29,5.29,0,0,1-.6-2.27,1.66,1.66,0,0,1,.3-1.16,2.49,2.49,0,0,1,2.49-.89c.43.06.85.19,1.28.29A2,2,0,0,0,22.66,10a8.68,8.68,0,0,0-1.11-2.73,1.86,1.86,0,0,0-.84-.8,13.88,13.88,0,0,0-1.85-.72A20.94,20.94,0,0,0,14.4,5,15,15,0,0,0,10,5.35,6.66,6.66,0,0,0,6.8,7a4.87,4.87,0,0,0-1.36,4.91,4,4,0,0,0,1.77,2.24,11.5,11.5,0,0,0,4.09,1.66.44.44,0,0,1,.32.23,8.36,8.36,0,0,0,1.68,2.11l.17.15c0-.38-.07-.72-.06-1.06S13.5,16.52,13.55,16.15Zm15,.2.21-.07a1.81,1.81,0,0,1,.42-.16c.41-.06.83-.09,1.24-.15.05,0,.1-.05.14-.09s.07-.11.12-.13A2.29,2.29,0,0,0,32,14.45a4.68,4.68,0,0,0,.31-1.52,3.42,3.42,0,0,0-3.8-3.61,4.51,4.51,0,0,0-2,.65,2.2,2.2,0,0,0-1.16,1.57,4.48,4.48,0,0,0,.84,3.57,2.4,2.4,0,0,0,1.54,1,6.57,6.57,0,0,0,.78,0ZM27.37,4.84a10.59,10.59,0,0,0-1.26-.32,2,2,0,0,0-2,.7,3.11,3.11,0,0,0-.62,2.71,3.7,3.7,0,0,0,.86,1.62c.08-.25.14-.48.22-.7a.27.27,0,0,0-.09-.36A1.25,1.25,0,0,1,24,7.56a3.41,3.41,0,0,1,.1-.9,1.13,1.13,0,0,1,1-.88,6.72,6.72,0,0,1,.9,0c.1,0,.24,0,.31,0C26.61,5.46,27,5.17,27.37,4.84Zm-8.32,9.53,0,0,.34.8.17-.12Z"/><path d="M3.9,3.08a.9.9,0,0,1,.75-.61.87.87,0,0,1,.93,1.08,2.49,2.49,0,0,1-.19.71,6.91,6.91,0,0,1-.51.92.32.32,0,0,1-.26.12,3.78,3.78,0,0,1-1.51-.62A1.19,1.19,0,0,1,2.6,4,.83.83,0,0,1,3.66,3Z"/><path d="M4.15,20.5a2.41,2.41,0,0,1,.59-.31c.57-.14,1,.36.84,1a2.56,2.56,0,0,1-.78,1.19c-.36.34-.26.34-.68.09a6,6,0,0,1-.9-.7A1.07,1.07,0,0,1,3,21.26a.69.69,0,0,1,.24-.78A.78.78,0,0,1,4,20.41Z"/><path d="M18.72,19.89l.11-.08a.78.78,0,0,1,.91,0,.75.75,0,0,1,.2.86,1.8,1.8,0,0,1-.64.8c-.19.15-.4.26-.6.4a.22.22,0,0,1-.32,0,3,3,0,0,1-.87-1,1.44,1.44,0,0,1-.15-.61.64.64,0,0,1,.43-.62.75.75,0,0,1,.77.14A1.58,1.58,0,0,1,18.72,19.89Z"/><path d="M20.68,2.61a3.08,3.08,0,0,1,.45-.22.7.7,0,0,1,.84.93,1.92,1.92,0,0,1-.71.95c-.65.51-.46.52-1.1,0a2.69,2.69,0,0,1-.62-.76,1,1,0,0,1-.1-.64.7.7,0,0,1,1.11-.37Z"/><path d="M8.33,18a1.46,1.46,0,0,1,.2-.27.59.59,0,0,1,.64-.16.58.58,0,0,1,.41.53,1.89,1.89,0,0,1-.35,1.26c-.18.32-.19.34-.55.22a8.11,8.11,0,0,1-.91-.4.63.63,0,0,1-.22-.21.6.6,0,0,1-.08-.73.62.62,0,0,1,.67-.28Z"/><path d="M12.64,2.24A2.43,2.43,0,0,1,13.09,2c.42-.13.77.23.68.71a2.17,2.17,0,0,1-.67,1.1.17.17,0,0,1-.17,0c-.32-.19-.64-.38-.95-.58A.87.87,0,0,1,11.83,3a.58.58,0,0,1,.05-.7.61.61,0,0,1,.69-.11Z"/><path d="M4,15.17A.92.92,0,0,1,4.16,15,.54.54,0,0,1,4.78,15a.52.52,0,0,1,.26.55,2,2,0,0,1-.77,1.15s-.11,0-.15,0a9.9,9.9,0,0,1-.81-.59.73.73,0,0,1-.2-.34.49.49,0,0,1,.13-.58.57.57,0,0,1,.6-.09Z"/><path d="M32.3,10a.83.83,0,0,1-.81-.84.78.78,0,0,1,.8-.78.8.8,0,0,1,.78.84A.76.76,0,0,1,32.3,10Z"/><path d="M27.76,2.21c.44-.11.74.1.67.46a.62.62,0,0,1-.22.34,5.78,5.78,0,0,1-.84.37s-.12,0-.13,0a4.09,4.09,0,0,1-.36-.8.48.48,0,0,1,.28-.61C27.38,1.84,27.57,1.93,27.76,2.21Z"/><path d="M13.55,21.12h0c.36-.05.54,0,.63.23s0,.47-.29.66l-.05,0-.81.24a1.51,1.51,0,0,1-.38-1.11.36.36,0,0,1,.33-.34.91.91,0,0,1,.43.14C13.49,21,13.52,21.07,13.55,21.12Z"/><path d="M10.33,7.74,9.12,8c0,.16-.1.4-.17.63a1.13,1.13,0,0,1-.17.23c0-.08-.12-.16-.12-.24a1,1,0,0,1,.07-.39,3.89,3.89,0,0,1,.89-1.4A1.39,1.39,0,0,1,10,6.51a.43.43,0,0,1,.67.41,10.54,10.54,0,0,1-.22,1.35,1.56,1.56,0,0,1-.15.41c0,.06-.14.09-.21.13S10,8.65,10,8.58C10.12,8.31,10.22,8.05,10.33,7.74ZM9.4,7.51l0,.06L10,7.51c.44-.07.44-.07.43-.49s-.14-.36-.38-.21A2,2,0,0,0,9.4,7.51Z"/><path d="M13.4,11.06a2.46,2.46,0,0,1,.29.09c.25.1.32.31.12.49a1,1,0,0,1-1,.34c-.06,0-.12,0-.23,0s0-.2.05-.29c.1-.41.21-.82.31-1.24,0-.11.07-.19.22-.18a1.78,1.78,0,0,0,.49-.13.27.27,0,0,1,.12,0c.13,0,.3.07.37.17s0,.29-.12.38S13.61,10.94,13.4,11.06Zm-.54.76a1,1,0,0,0,.74-.23c.14-.11.1-.23-.06-.3-.43-.17-.53-.12-.64.31C12.89,11.67,12.88,11.73,12.86,11.82Zm.25-.82c.24-.13.46-.23.68-.36.05,0,.07-.13.11-.2s-.15-.1-.21-.09C13.24,10.41,13.17,10.48,13.11,11Z"/><path d="M11.41,8.55c.15-.05.31-.08.46-.14l.69-.3a.61.61,0,0,1,.19,0c0,.07,0,.19,0,.21-.45.17-.89.36-1.36.49-.18,0-.35-.19-.3-.38.1-.38.23-.76.34-1.13a6.23,6.23,0,0,1,.15-.62c0-.09.14-.22.2-.21s.14.17.11.29c-.08.29-.19.57-.27.86s-.16.58-.24.87Z"/><path d="M13.44,8.55c.15-.05.31-.08.45-.14s.48-.21.72-.3a.47.47,0,0,1,.17,0,1.64,1.64,0,0,1,0,.22.36.36,0,0,1-.12.08c-.36.13-.72.27-1.09.39a.33.33,0,0,1-.45-.4c0-.22.12-.43.18-.65s.2-.72.31-1.07c0-.08.12-.15.19-.22,0,.1.13.2.11.28-.07.3-.18.59-.26.89s-.17.58-.25.86Z"/><path d="M9.1,11.22c-.33.09-.62.15-.9.25-.08,0-.13.16-.17.25a2.26,2.26,0,0,0-.13.33H7.79a.64.64,0,0,1,0-.24c.16-.53.32-1.07.5-1.61,0,0,.08-.09.12-.13s.07.13.06.18c-.07.26-.15.52-.23.79l0,.18.93-.2a.23.23,0,0,0,.1-.15c.06-.18.1-.37.17-.54s.11-.12.17-.17.08.16.07.23c-.09.3-.21.6-.31.9s-.05.35-.1.51a.65.65,0,0,1-.17.2A.75.75,0,0,1,9,11.76C9,11.59,9.06,11.43,9.1,11.22Z"/><path d="M10,11.84l.9-.32,0,.07c-.06.05-.11.14-.18.16A4.19,4.19,0,0,1,10,12c-.22,0-.31-.06-.25-.28q.2-.66.42-1.32c.05-.12.1-.33.31-.13,0,0,.12,0,.18,0s.27-.08.41-.1.21,0,.32,0v.07a.39.39,0,0,1-.14.08l-.49.11c-.44.12-.44.12-.6.67l.86-.24.05.06a.9.9,0,0,1-.19.15c-.18.08-.38.15-.57.22S10,11.43,10,11.84Z"/><path d="M15.44,11.6c-.07.06-.12.14-.2.16a4.87,4.87,0,0,1-.74.23c-.22,0-.31-.06-.25-.27.13-.45.27-.89.42-1.33.05-.12.09-.33.31-.13,0,0,.12,0,.18,0s.27-.08.41-.1h.32v.08a.35.35,0,0,1-.13.08c-.17,0-.35.07-.52.12-.42.11-.48.18-.57.66l.85-.24.05.06a.84.84,0,0,1-.18.15l-.57.22c-.3.11-.32.14-.33.49.35.1.58-.25.9-.23Z"/><path d="M15.75,11.73l.16,0a.75.75,0,0,0,1-.45c.06-.15,0-.19-.15-.21a2.14,2.14,0,0,1-.36,0,.53.53,0,0,1-.32-.18.36.36,0,0,1,.06-.34,1.38,1.38,0,0,1,.82-.55.31.31,0,0,1,.21,0,.93.93,0,0,1,.16.18.63.63,0,0,1-.19,0,1,1,0,0,0-.85.49c-.05.13,0,.17.13.18h.36a.34.34,0,0,1,.29.56,1.16,1.16,0,0,1-.76.57A.42.42,0,0,1,15.75,11.73Z"/><path d="M7,10.42l-.54.19s-.1,0-.16,0,0-.12.09-.14a3.07,3.07,0,0,1,1.46-.3c.07,0,.13.08.19.12a.46.46,0,0,1-.19.08c-.18,0-.4,0-.54,0s-.12.31-.16.47c-.09.31-.17.62-.26.93,0,.07-.09.12-.14.17s-.08-.14-.06-.2c.08-.34.18-.68.26-1A1.66,1.66,0,0,0,7,10.42Z"/><path d="M18.3,10.41c-.21.08-.37.15-.54.2a.38.38,0,0,1-.17,0s.05-.11.09-.13a3.07,3.07,0,0,1,1.43-.3.15.15,0,0,1,.1,0,.63.63,0,0,1,.12.11s-.09.08-.14.08-.34,0-.5,0a.21.21,0,0,0-.16.13c-.13.45-.23.9-.36,1.35,0,0-.08.07-.12.11s-.09-.12-.08-.17c.06-.28.15-.55.22-.83S18.26,10.62,18.3,10.41Z"/><path d="M27.42,15l-1.29-.65a.16.16,0,0,1-.06-.15c0-.12.06-.23.09-.36l.95.4a.7.7,0,0,0,.12-.55,2,2,0,0,0-.71-1.2,3.19,3.19,0,0,1-.45-.45s0-.14,0-.21v0a1,1,0,0,1,1-.78c.32,0,.64-.15,1-.21a.25.25,0,0,1,.2.07c.13.17.24.37.36.54a.18.18,0,0,1,0,.26c-.3.39-.6.78-.89,1.18a.44.44,0,0,0-.05.28,1,1,0,0,0,.72.91c.46.19.45.22.81-.14l.26-.28.45.34c-.25.28-.5.55-.74.83-.09.1-.15.07-.24,0l-1.15-.53Z"/></g><path class="cls-4" d="M24.77,14.34A13.06,13.06,0,0,1,24,15.53a2.77,2.77,0,0,1-2.15,1,1.45,1.45,0,0,1-.93-.26c-.33-.23-.65-.5-1-.78l-.18.1c.23.33.44.67.68,1A11.47,11.47,0,0,0,23,19.07a19.82,19.82,0,0,0,3.84,2.21c.3.11.62.17.95.27l.12-1.81h.25l-.08,3.54h-.25V21.81a8.73,8.73,0,0,1-3.47-1.51,14.72,14.72,0,0,1-3.63-2.84c-.45-.53-.86-1.09-1.31-1.67a8.09,8.09,0,0,1-5.39.85,3.2,3.2,0,0,0-.1,1.33c.07.42.19.83.28,1.25a7.38,7.38,0,0,1-1.74-1.61c-.3-.38-.55-.79-.84-1.19a.52.52,0,0,0-.27-.19A12.36,12.36,0,0,1,7.49,14.7a5.29,5.29,0,0,1-1.83-1.84,4,4,0,0,1-.46-2.14,5.25,5.25,0,0,1,3.53-5A10.81,10.81,0,0,1,12.41,5a22.07,22.07,0,0,1,6.77.73,5.88,5.88,0,0,1,2.25,1,2.35,2.35,0,0,1,.47.53A8.38,8.38,0,0,1,23.1,10a3.13,3.13,0,0,1-.06,1.5l1.19.65c.07-.56.12-1.13.22-1.68a.65.65,0,0,0-.16-.61,3.65,3.65,0,0,1-.92-2.24,3.23,3.23,0,0,1,1-2.61,2.27,2.27,0,0,1,2.16-.5,10.43,10.43,0,0,1,1.2.38.49.49,0,0,0,.24,0A10,10,0,0,1,32.23,4a.74.74,0,0,0,.41-.13,6.07,6.07,0,0,1,2.07-1.06,3.11,3.11,0,0,1,2.4.39c.18.11.11.25.12.41l-.15-.08a2.77,2.77,0,0,0-2.9-.24,13.66,13.66,0,0,0-1.42.85c-.2.13-.2.31,0,.43a5.85,5.85,0,0,0,.93.38A.39.39,0,0,0,34,4.83,1.69,1.69,0,0,1,36.55,5a3.65,3.65,0,0,1,.68,2,3.2,3.2,0,0,1,0,.75c-.06-.13-.11-.27-.17-.4a.4.4,0,0,0-.13-.18c-.81-.57-1.64-1.12-2.45-1.7a1.24,1.24,0,0,0-.75-.29,1.85,1.85,0,0,1-1.15-.48,1.82,1.82,0,0,1-.28-.47c-.36,0-.78,0-1.19.08a8.5,8.5,0,0,0-3.2.93,6.13,6.13,0,0,0-.9.6,3.51,3.51,0,0,0-.62.71,10.39,10.39,0,0,0-1.63,4,6,6,0,0,0,.18,3.42,4.11,4.11,0,0,0,1.5,1.87,5,5,0,0,1-1-4.6.69.69,0,0,1-.13-.86c0-.09.16-.15.25-.22.07.09.15.17.21.26a.53.53,0,0,1,0,.18h0a4.35,4.35,0,0,1,3.51-1.31,3.58,3.58,0,0,1,3.43,3.17,4.25,4.25,0,0,1-.38,2.5,2.54,2.54,0,0,1-1.06,1.15c.11,0,.18.09.25.08.63-.08,1.27-.15,1.9-.25a3.17,3.17,0,0,0,.52-.17h.45A9,9,0,0,1,37.21,8c0,.11,0,.17,0,.23,0,2,0,4,0,5.93a.28.28,0,0,1-.2.3,2,2,0,0,1-2.17-.2l-.21-.15a1.86,1.86,0,0,0,0,.22,11.44,11.44,0,0,0,.52,3.76,11,11,0,0,0,.92,2.28,2.59,2.59,0,0,0,1.13,1.16V22a1.36,1.36,0,0,0-1.33,1.26h-.24c-.12-.65.5-1.32,1.42-1.53a4.86,4.86,0,0,1-1.94-3c-.28-.84-.44-1.71-.66-2.57a1,1,0,0,0,0-.12,2.66,2.66,0,0,0-.33.08s-.09.09-.1.13c0,.38,0,.77,0,1.15a.5.5,0,0,0,0,.12l0,.23a1.1,1.1,0,0,1-.26,0l-2.09-.27a1.32,1.32,0,0,0-.31,0l.18.22a5.93,5.93,0,0,1,1.38,2.79,6.62,6.62,0,0,1,0,1.26.35.35,0,0,1-.19.24c-.28.17-.58.3-.91.47,0-.22,0-.42,0-.61a8.19,8.19,0,0,0-.36-3.22,4.23,4.23,0,0,0-.42-.82.41.41,0,0,0-.73,0,1.84,1.84,0,0,0-.28.56c-.19.83-.37,1.67-.51,2.51-.1.6-.14,1.22-.21,1.87L28.54,22s0-.1,0-.16a5,5,0,0,1,1.22-3.72l.29-.34a1.34,1.34,0,0,0-.72.16c-.45.32-.92.62-1.39.92-.08.05-.18.07-.31.13,0-.3-.07-.58-.1-.85l-.06-.59c0-.14-.09-.28.11-.37s.06-.18.07-.27a1,1,0,0,0,0-.21A5,5,0,0,1,24.77,14.34Zm-11,2a13.21,13.21,0,0,0,2.87.08,7.15,7.15,0,0,0,2.69-.91s0-.08,0-.12a5.29,5.29,0,0,1-.6-2.27A1.66,1.66,0,0,1,19,12a2.49,2.49,0,0,1,2.49-.89c.43.06.85.19,1.28.29a2.11,2.11,0,0,0,.12-1.18,8.68,8.68,0,0,0-1.11-2.73,2,2,0,0,0-.84-.81,16,16,0,0,0-1.85-.71,20.32,20.32,0,0,0-4.46-.7,14.66,14.66,0,0,0-4.43.31A6.65,6.65,0,0,0,7,7.15a4.88,4.88,0,0,0-1.36,4.91,3.92,3.92,0,0,0,1.77,2.25A11.64,11.64,0,0,0,11.49,16a.44.44,0,0,1,.33.23,8.55,8.55,0,0,0,1.67,2.11l.18.15a10,10,0,0,1-.06-1.06A9.76,9.76,0,0,1,13.75,16.35Zm15,.2.21-.08a2.35,2.35,0,0,1,.42-.15c.41-.06.83-.09,1.24-.15.05,0,.1-.05.14-.09s.07-.11.12-.13a2.27,2.27,0,0,0,1.28-1.3,4.45,4.45,0,0,0,.32-1.53,3.43,3.43,0,0,0-3.81-3.61,4.7,4.7,0,0,0-2,.66,2.22,2.22,0,0,0-1.15,1.57,4.48,4.48,0,0,0,.84,3.57,2.46,2.46,0,0,0,1.53,1,6.85,6.85,0,0,0,.79,0ZM27.57,5c-.44-.11-.85-.25-1.26-.31a2,2,0,0,0-2,.7,3.11,3.11,0,0,0-.63,2.71,3.83,3.83,0,0,0,.87,1.62c.08-.25.14-.48.22-.7a.27.27,0,0,0-.09-.36,1.28,1.28,0,0,1-.57-.93,3.41,3.41,0,0,1,.11-.9,1.13,1.13,0,0,1,1-.88,6.91,6.91,0,0,1,.91,0c.1,0,.24,0,.31,0C26.81,5.66,27.16,5.37,27.57,5Zm-8.32,9.54,0,0,.34.79.16-.11Z"/><path class="cls-4" d="M4.09,3.27a.92.92,0,0,1,.75-.6.87.87,0,0,1,.94,1.08,2.49,2.49,0,0,1-.19.71,6.91,6.91,0,0,1-.51.92.29.29,0,0,1-.26.11,3.63,3.63,0,0,1-1.51-.61,1.19,1.19,0,0,1-.51-.73.83.83,0,0,1,1.06-1Z"/><path class="cls-4" d="M4.35,20.69a2.35,2.35,0,0,1,.59-.3c.57-.14,1,.36.84,1A2.56,2.56,0,0,1,5,22.56c-.36.34-.26.34-.68.09a6,6,0,0,1-.9-.7,1.13,1.13,0,0,1-.27-.49.7.7,0,0,1,.23-.78.8.8,0,0,1,.83-.07Z"/><path class="cls-4" d="M18.91,20.09,19,20a.8.8,0,0,1,.91,0,.75.75,0,0,1,.21.87,1.93,1.93,0,0,1-.64.8c-.19.14-.4.26-.6.4a.23.23,0,0,1-.32,0,3.19,3.19,0,0,1-.88-1,1.6,1.6,0,0,1-.14-.61.63.63,0,0,1,.43-.62.77.77,0,0,1,.77.13Z"/><path class="cls-4" d="M20.88,2.81a2.65,2.65,0,0,1,.45-.22.7.7,0,0,1,.84.93,1.92,1.92,0,0,1-.71.95c-.65.51-.46.52-1.1,0a2.69,2.69,0,0,1-.62-.76,1,1,0,0,1-.1-.65.7.7,0,0,1,1.11-.36Z"/><path class="cls-4" d="M8.53,18.17a1.46,1.46,0,0,1,.2-.27.58.58,0,0,1,.63-.17.6.6,0,0,1,.42.54,1.87,1.87,0,0,1-.35,1.25c-.18.33-.19.35-.56.22a6.44,6.44,0,0,1-.9-.39.63.63,0,0,1-.22-.21.6.6,0,0,1-.08-.73.62.62,0,0,1,.67-.28A.72.72,0,0,1,8.53,18.17Z"/><path class="cls-4" d="M12.84,2.44a1.94,1.94,0,0,1,.44-.27c.43-.13.78.23.69.71A2.24,2.24,0,0,1,13.3,4a.18.18,0,0,1-.17,0c-.32-.19-.64-.38-1-.59a.53.53,0,0,1-.15-.2.56.56,0,0,1,.73-.81Z"/><path class="cls-4" d="M4.21,15.36a1.53,1.53,0,0,1,.15-.13A.54.54,0,0,1,5,15.17a.52.52,0,0,1,.26.55,2,2,0,0,1-.77,1.15.16.16,0,0,1-.15,0,9.56,9.56,0,0,1-.82-.6.81.81,0,0,1-.2-.34.49.49,0,0,1,.14-.57A.55.55,0,0,1,4,15.27Z"/><path class="cls-4" d="M32.5,10.17a.83.83,0,0,1-.81-.84.78.78,0,0,1,.79-.78.81.81,0,0,1,.79.84A.77.77,0,0,1,32.5,10.17Z"/><path class="cls-4" d="M28,2.4c.43-.1.74.11.66.46a.55.55,0,0,1-.21.35,6.3,6.3,0,0,1-.84.37s-.12,0-.14-.05a4.73,4.73,0,0,1-.35-.8.48.48,0,0,1,.28-.61C27.58,2,27.76,2.12,28,2.4Z"/><path class="cls-4" d="M13.75,21.32h0c.35-.06.53,0,.63.23a.55.55,0,0,1-.29.66.09.09,0,0,1,0,0l-.81.24a1.49,1.49,0,0,1-.38-1.1.37.37,0,0,1,.33-.35,1.2,1.2,0,0,1,.43.14A.42.42,0,0,1,13.75,21.32Z"/><path class="cls-4" d="M10.52,7.94l-1.2.22c0,.16-.1.4-.17.63A1.13,1.13,0,0,1,9,9c0-.08-.12-.16-.12-.25a.92.92,0,0,1,.07-.39A4.06,4.06,0,0,1,9.81,7a1.6,1.6,0,0,1,.4-.28.43.43,0,0,1,.67.41,12.65,12.65,0,0,1-.22,1.35,1.56,1.56,0,0,1-.15.41c0,.06-.14.09-.21.13s-.08-.17-.06-.23C10.31,8.51,10.42,8.25,10.52,7.94Zm-.93-.23,0,.06.54-.06c.44-.07.44-.07.43-.49s-.14-.36-.38-.21A2,2,0,0,0,9.59,7.71Z"/><path class="cls-4" d="M13.6,11.25l.28.09c.25.1.33.32.13.49a1,1,0,0,1-1,.35c-.05,0-.12,0-.22,0s0-.2.05-.29c.1-.41.21-.83.31-1.24,0-.11.06-.19.22-.19a2.33,2.33,0,0,0,.49-.12.25.25,0,0,1,.12,0c.13,0,.3.07.37.17s0,.29-.12.38S13.81,11.13,13.6,11.25Zm-.54.77a1,1,0,0,0,.74-.23c.14-.11.1-.23-.06-.3-.43-.17-.53-.12-.64.31C13.08,11.86,13.08,11.93,13.06,12Zm.25-.83c.24-.12.46-.22.68-.35,0,0,.07-.13.11-.21s-.15-.09-.21-.08C13.44,10.61,13.37,10.68,13.31,11.19Z"/><path class="cls-4" d="M11.61,8.75c.15-.05.31-.08.46-.14l.69-.3a1.21,1.21,0,0,1,.19,0c0,.08,0,.2,0,.21a13.9,13.9,0,0,1-1.36.5c-.18.05-.35-.19-.3-.39.1-.38.23-.75.33-1.13.06-.2.09-.41.16-.61s.14-.22.2-.21.14.17.11.29c-.09.29-.19.57-.27.86s-.16.58-.24.87Z"/><path class="cls-4" d="M13.64,8.74a3.33,3.33,0,0,0,.45-.13c.24-.09.48-.21.72-.31a.48.48,0,0,1,.17,0,.71.71,0,0,1,0,.21s-.07.07-.11.09c-.37.13-.72.27-1.09.39a.33.33,0,0,1-.45-.4c0-.22.12-.43.18-.65s.19-.72.31-1.07c0-.09.12-.15.18-.22,0,.09.14.2.12.28-.07.3-.18.59-.27.89l-.24.86Z"/><path class="cls-4" d="M9.3,11.42c-.33.09-.62.15-.9.25-.08,0-.13.16-.18.25s-.08.22-.12.33l-.11,0A.89.89,0,0,1,8,12c.17-.54.33-1.07.51-1.61,0-.05.08-.09.12-.13s.07.12.06.18c-.07.26-.15.52-.23.79l0,.18c.33-.07.63-.13.93-.21.05,0,.08-.09.1-.14s.1-.37.17-.55.11-.11.17-.17.08.17.06.24c-.09.3-.21.59-.3.9,0,.16,0,.35-.1.51s-.12.14-.17.2A.55.55,0,0,1,9.2,12,4.77,4.77,0,0,1,9.3,11.42Z"/><path class="cls-4" d="M10.21,12l.9-.31,0,.07c-.06.05-.11.14-.19.16a4.69,4.69,0,0,1-.75.24c-.22.05-.31-.06-.25-.28.13-.44.27-.89.42-1.32,0-.13.1-.33.31-.13,0,0,.12,0,.18,0s.27-.08.41-.1.21,0,.32,0v.07l-.14.08c-.16,0-.33.06-.49.11-.44.12-.45.12-.6.67l.86-.24,0,.06a.9.9,0,0,1-.19.15c-.18.08-.38.15-.57.22S10.22,11.62,10.21,12Z"/><path class="cls-4" d="M15.64,11.8c-.07,0-.12.13-.2.16a4.87,4.87,0,0,1-.74.23c-.22.05-.31-.06-.25-.27.13-.45.27-.89.42-1.33,0-.12.09-.33.3-.13,0,0,.13,0,.19,0s.27-.08.41-.1a1.61,1.61,0,0,1,.31,0l0,.08-.14.08-.51.11c-.42.12-.48.18-.57.67l.85-.25,0,.07a1.19,1.19,0,0,1-.18.15l-.58.22c-.29.11-.31.14-.32.48.34.11.58-.24.9-.22Z"/><path class="cls-4" d="M16,11.93l.16,0a.76.76,0,0,0,1-.45c.05-.15,0-.2-.15-.21a2.14,2.14,0,0,1-.36,0,.53.53,0,0,1-.32-.18.36.36,0,0,1,.06-.34,1.39,1.39,0,0,1,.82-.56.34.34,0,0,1,.2,0,.73.73,0,0,1,.17.18.64.64,0,0,1-.2,0,1,1,0,0,0-.84.49c0,.13,0,.17.13.18H17a.34.34,0,0,1,.29.56,1.16,1.16,0,0,1-.76.57A.42.42,0,0,1,16,11.93Z"/><path class="cls-4" d="M7.22,10.62l-.54.19s-.1,0-.16,0,0-.12.08-.14a3.13,3.13,0,0,1,1.47-.3c.07,0,.13.08.19.12a.46.46,0,0,1-.19.08c-.18,0-.4,0-.54,0s-.12.3-.17.47-.16.62-.25.93c0,.07-.09.11-.14.17S6.89,12,6.91,12c.08-.34.17-.68.26-1A1.82,1.82,0,0,0,7.22,10.62Z"/><path class="cls-4" d="M18.5,10.61c-.21.08-.37.15-.54.2a.35.35,0,0,1-.17,0s.05-.11.09-.13a3.07,3.07,0,0,1,1.43-.3.18.18,0,0,1,.1,0,.63.63,0,0,1,.12.11.5.5,0,0,1-.14.08c-.17,0-.34,0-.51,0a.2.2,0,0,0-.15.13c-.13.45-.24.9-.36,1.34,0,.05-.08.08-.12.12s-.09-.12-.08-.17c.06-.28.14-.56.21-.83S18.46,10.82,18.5,10.61Z"/><path class="cls-4" d="M27.62,15.23l-1.3-.65a.18.18,0,0,1-.05-.15c0-.12.06-.23.09-.36l.95.4a.71.71,0,0,0,.12-.55,2,2,0,0,0-.71-1.2,3.26,3.26,0,0,1-.46-.45s0-.14,0-.21,0,0,0,0a1.05,1.05,0,0,1,1-.78c.32,0,.64-.15,1-.21a.23.23,0,0,1,.2.07c.14.17.24.36.37.54a.18.18,0,0,1,0,.26c-.3.39-.6.78-.89,1.18a.44.44,0,0,0-.05.28,1,1,0,0,0,.71.91c.47.19.46.22.82-.14l.26-.28.45.34c-.26.28-.51.55-.74.83-.09.1-.16.07-.24,0l-1.15-.54Z"/></g></g></svg>