<svg xmlns="http://www.w3.org/2000/svg" viewBox="0 0 38.55 24.66"><defs><style>.cls-1{isolation:isolate;}.cls-2{opacity:0.15;}.cls-2,.cls-3{mix-blend-mode:multiply;}.cls-4{fill:#fff;}</style></defs><title>convert-FIX-SVG-03</title><g class="cls-1"><g id="Layer_1" data-name="Layer 1"><g class="cls-2"><path d="M9.73,22.35c-.06-.55-.1-1.05-.16-1.54A14.8,14.8,0,0,0,9,17.93a3.1,3.1,0,0,0-.25-.56,1,1,0,0,0-.29-.26.3.3,0,0,0-.45.1,4.36,4.36,0,0,0-.75,1.93,10.71,10.71,0,0,0-.09,2.59c0,.09,0,.19,0,.31-.27-.13-.52-.28-.79-.38a.52.52,0,0,1-.35-.53A5.1,5.1,0,0,1,7.13,17.7c.17-.24.35-.46.56-.73a1.47,1.47,0,0,0-.26,0c-.51,0-1,.09-1.51.15-.25,0-.49.1-.73.14A.38.38,0,0,1,5,17.16s0-.11,0-.17a.7.7,0,0,0,0-.14v-1.3l-.5-.13c-.06.32-.11.63-.18.94a12.16,12.16,0,0,1-1.29,3.56,5.12,5.12,0,0,1-.85,1,3.31,3.31,0,0,1-.73.38V21A2.14,2.14,0,0,0,2.8,19.88,11.7,11.7,0,0,0,4,16.7a11.29,11.29,0,0,0,.34-3.17s0-.09,0-.18L4,13.56a2.09,2.09,0,0,1-2.4,0,.35.35,0,0,1-.14-.25V7a1.47,1.47,0,0,1,.08-.35c.09-.39.18-.79.26-1.18A2.81,2.81,0,0,1,2.76,3.8a1.67,1.67,0,0,1,2.17.12A.37.37,0,0,0,5.35,4a6.44,6.44,0,0,0,.89-.38c.25-.13.26-.34,0-.49a12.73,12.73,0,0,0-1.55-.9,2.82,2.82,0,0,0-2.94.33l-.24.18h0a.31.31,0,0,1,.16-.4,3.18,3.18,0,0,1,3.39-.23c.48.23.91.55,1.37.83a.71.71,0,0,0,.31.1A10.35,10.35,0,0,1,11.12,4a.39.39,0,0,0,.26,0A4.75,4.75,0,0,1,13,3.53a2.27,2.27,0,0,1,2.26,1.06,3.62,3.62,0,0,1-.42,4.54.4.4,0,0,0-.11.37c.1.63.18,1.27.26,1.91a1.42,1.42,0,0,0,.23-.13,5.56,5.56,0,0,1,2.32-.91,2.82,2.82,0,0,1,1-.11,2.63,2.63,0,0,1,1.66.81,2,2,0,0,1,.41,1.6A8,8,0,0,1,18,17.38a18.3,18.3,0,0,1-3.23,2.38A11.65,11.65,0,0,1,12.28,21c-.3.1-.62.15-1,.24v1.12c0,.18-.06.24-.22.18L11,19.15l.22,0L11.33,21a4.67,4.67,0,0,0,.67-.14,10.39,10.39,0,0,0,2.65-1.31A27.09,27.09,0,0,0,17,17.92a9.45,9.45,0,0,0,3-3.84.45.45,0,0,0,0-.24l-.11.18a15.66,15.66,0,0,1-1,1.25,2.11,2.11,0,0,1-2.49.44A3.53,3.53,0,0,1,14.62,14l-.19-.4a5,5,0,0,1-2.92,2.53.79.79,0,0,0,0,.22c0,.11.09.22.13.34s.08.1.07.15c0,.47-.09.95-.14,1.42a.67.67,0,0,1-.08.18c-.12-.06-.25-.1-.36-.16A10.7,10.7,0,0,1,10,17.49a1.48,1.48,0,0,0-1-.33c.13.15.25.28.36.42a5.18,5.18,0,0,1,1.23,3.56.7.7,0,0,1-.23.54C10.17,21.88,10,22.1,9.73,22.35Zm-2-6.91v-.07a2.46,2.46,0,0,1-1.06-1.15,4.4,4.4,0,0,1-.26-3.11,3.81,3.81,0,0,1,4.48-2.6A4.44,4.44,0,0,1,13.4,9.83a3.07,3.07,0,0,1,.11-.36c.09-.19.25-.2.37,0a.77.77,0,0,1-.09,1,5,5,0,0,1-1.09,4.73,4,4,0,0,0,1.49-1.69,5.82,5.82,0,0,0,.36-3.4,11.2,11.2,0,0,0-1.66-4.3,3.47,3.47,0,0,0-1-1,10.28,10.28,0,0,0-1-.57,8.9,8.9,0,0,0-3-.8c-.42,0-.84,0-1.22-.08-.08.18-.1.34-.2.42a2.07,2.07,0,0,1-1.41.57.49.49,0,0,0-.34.1L2,6.3a.28.28,0,0,0-.08.11c-.1.23-.19.45-.29.67a9.08,9.08,0,0,1,2.92,8l.46,0c.17,0,.33.12.51.14.63.1,1.27.18,1.91.26A1.25,1.25,0,0,0,7.77,15.44Zm2.65.23h.08a2.47,2.47,0,0,0,2.31-1.05,4.73,4.73,0,0,0,.9-3.29,2.22,2.22,0,0,0-.88-1.7,4.28,4.28,0,0,0-3.23-.9,3.42,3.42,0,0,0-2.76,2A3.85,3.85,0,0,0,6.61,13a2.64,2.64,0,0,0,1.63,2.29s.08.06.08.08.08.13.15.13c.39.06.79.1,1.19.14.19,0,.37,0,.5.18s.12,0,.19.06ZM14.59,9c.1-.13.19-.23.26-.33a3.31,3.31,0,0,0,0-4.16,2,2,0,0,0-1.27-.71,3,3,0,0,0-1.22.09c-.28.08-.55.18-.83.27.37.28.71.52,1,.8A.62.62,0,0,0,13,5.1a3.35,3.35,0,0,1,1,0c.9.2,1.07,1.22,1,1.87a1.53,1.53,0,0,1-.59.88.32.32,0,0,0-.1.2C14.39,8.38,14.49,8.67,14.59,9Z"/><path d="M23.63,9.63a.68.68,0,0,1,.22-.12c.17,0,.23-.1.26-.26.12-.54.25-1.07.37-1.6l0,0c-.13,0-.29,0-.25-.2s.18-.13.28-.13a2.92,2.92,0,0,1,.73.07A1,1,0,0,1,25.73,9a1.84,1.84,0,0,1-.68.45,5.78,5.78,0,0,1-1,.27,1.4,1.4,0,0,1-.4,0Zm.73-.19a2.23,2.23,0,0,0,1.14-.56,1.06,1.06,0,0,0,.24-.39c.14-.4-.36-1-.8-.92a.16.16,0,0,0-.11.1C24.67,8.24,24.52,8.82,24.36,9.44Z"/><path d="M18.53,7.75c-.08,0-.12,0-.13,0-.21-.24-.42-.13-.62,0a2.29,2.29,0,0,0-.94,1c-.13.29-.08.52.14.65a.48.48,0,0,0,.34.08,1.55,1.55,0,0,0,1-.93c-.27.1-.49.19-.72.26-.06,0-.14,0-.21,0s0-.21.08-.23a6.14,6.14,0,0,1,.86-.27.25.25,0,0,1,.26.35,2.34,2.34,0,0,1-.33.6,1.7,1.7,0,0,1-.91.54.69.69,0,0,1-.85-.83,2.33,2.33,0,0,1,1.56-1.62.37.37,0,0,1,.45.14C18.55,7.5,18.53,7.63,18.53,7.75Z"/><path d="M20.3,7.48c.35-.19.71.06.75.51a1.7,1.7,0,0,1-1.28,1.74,1.31,1.31,0,0,1-.39,0,.66.66,0,0,1-.56-.91,2.87,2.87,0,0,1,1.07-1.43A.27.27,0,0,1,20.3,7.48Zm-.7,2,.19,0a1.53,1.53,0,0,0,1-1.23.82.82,0,0,0-.09-.38.27.27,0,0,0-.44-.09.58.58,0,0,1-.19,0c-.06,0-.13,0-.17,0a2.43,2.43,0,0,0-.79,1.13C19,9.27,19.18,9.47,19.6,9.47Z"/><path d="M23.6,8.17a1.73,1.73,0,0,1-1.5,1.6.68.68,0,0,1-.73-.93,2.74,2.74,0,0,1,1.05-1.41.25.25,0,0,1,.35,0s.08,0,.11,0a.54.54,0,0,1,.71.54A1,1,0,0,1,23.6,8.17Zm-1.45,1.3.18,0a1.5,1.5,0,0,0,1-1.23,1,1,0,0,0-.08-.38.28.28,0,0,0-.45-.09.43.43,0,0,1-.17,0c-.07,0-.16,0-.21,0a2.49,2.49,0,0,0-.76,1.1C21.55,9.26,21.72,9.47,22.15,9.47Z"/><path d="M35.32,8.61a2.15,2.15,0,0,0,.32-.18l.92-1c.06-.06.2-.16.23-.13s.11.21,0,.32-.45.47-.67.7a1.72,1.72,0,0,1-.19.17,1.3,1.3,0,0,1,.85,1,.41.41,0,0,1,0,.22.25.25,0,0,1-.17.1s-.12-.07-.14-.13a.64.64,0,0,1,0-.24c-.1-.48-.74-.85-1.09-.59a.35.35,0,0,0-.15.17c0,.17,0,.35-.07.52a.84.84,0,0,1-.16.24c0-.09-.14-.18-.12-.26,0-.32.12-.63.19-.95s.16-.67.26-1c0-.08.12-.19.19-.19s.12.15.1.24c-.06.28-.14.56-.22.84Z"/><path d="M28.48,13a6.57,6.57,0,0,0,1-1.53c0-.07.12-.11.19-.16s.13.17.12.24a1,1,0,0,1-.18.4c-.58.76-1.17,1.51-1.76,2.26a.77.77,0,0,1-.19.17.52.52,0,0,1-.18,0c0-.07,0-.15,0-.2a1.21,1.21,0,0,1,.18-.23c.17-.18.35-.36.52-.55a.25.25,0,0,0,0-.2c-.11-.29-.23-.58-.34-.86s-.1-.28-.14-.42-.06-.13,0-.18a1.08,1.08,0,0,1,.12-.24c.07,0,.18.08.21.15s.12.43.18.64.15.46.22.69Z"/><path d="M32.57,7.64a2.83,2.83,0,0,1-1.16,2,.81.81,0,0,1-.69.15.53.53,0,0,1-.42-.63c0-.23.12-.45.18-.68s.14-.56.23-.83c0-.08.12-.13.18-.2s.15.16.15.24A1.58,1.58,0,0,1,31,8a10.8,10.8,0,0,0-.32,1.11c-.05.32.16.46.47.33a1.5,1.5,0,0,0,.53-.37,2.75,2.75,0,0,0,.65-1.58.94.94,0,0,1,.12-.3c.06.11.12.22.17.33S32.57,7.59,32.57,7.64Z"/><path d="M32.69,9a1.79,1.79,0,0,1,.47-1A1.71,1.71,0,0,1,34,7.29a.34.34,0,0,1,.44.35.29.29,0,0,1,0,.13s-.11,0-.12-.08-.15-.15-.27-.09a2,2,0,0,0-1,1.21,1.07,1.07,0,0,0,0,.25c0,.25.13.37.37.32a6.83,6.83,0,0,0,.75-.29.65.65,0,0,1,.24,0c0,.08,0,.2-.07.24a1.63,1.63,0,0,1-1.1.37C32.91,9.67,32.69,9.33,32.69,9Z"/><path d="M32.65,13.57a2.88,2.88,0,0,1-.35.35.38.38,0,0,1-.5.05.45.45,0,0,1-.23-.48,7.66,7.66,0,0,1,.25-.94s.13-.09.18-.08a.2.2,0,0,1,.11.17c-.06.26-.16.5-.21.75a1.12,1.12,0,0,0,.06.35.94.94,0,0,0,.31-.1,1.54,1.54,0,0,0,.51-.94.53.53,0,0,1,0-.18,1.25,1.25,0,0,1,.17-.16.63.63,0,0,1,.13.2.41.41,0,0,1,0,.19c0,.35-.07.69-.13,1,0,.09-.08.23-.15.24s-.13-.11-.15-.21S32.66,13.68,32.65,13.57Z"/><path d="M23.63,13.62a1.42,1.42,0,0,1,.86-1.18c.42-.15.7.06.71.51a1.34,1.34,0,0,1-.94,1.17A.49.49,0,0,1,23.63,13.62Zm1.14-.94-.19.07a.9.9,0,0,0-.66.73c-.06.25.09.39.35.35A.83.83,0,0,0,24.77,12.68Z"/><path d="M29.64,13.6a1.42,1.42,0,0,1,.86-1.16c.42-.15.7.05.71.51a1.33,1.33,0,0,1-.93,1.17A.49.49,0,0,1,29.64,13.6Zm1.14-.93-.07.05-.11,0a.91.91,0,0,0-.66.74c-.07.26.09.4.36.35A.85.85,0,0,0,30.78,12.67Z"/><path d="M22.11,12.92a1,1,0,0,1-.17-.07s-.08-.09-.07-.12.07-.12.1-.11c.4.05.3-.29.39-.49,0,0,0-.07,0-.1s.09-.15.13-.22c.06.08.15.17.15.26a3,3,0,0,1-.12.5c.2,0,.38-.08.57-.1a.64.64,0,0,1,.23,0c-.06.07-.11.18-.18.2s-.4.09-.6.14-.13.08-.14.14a2.86,2.86,0,0,0-.09.51c0,.23.14.32.33.2a3,3,0,0,0,.4-.4l.14-.18c0,.07.06.1.06.14a1.06,1.06,0,0,1-.59.74.46.46,0,0,1-.64-.43,1.87,1.87,0,0,1,0-.34C22.06,13.14,22.09,13,22.11,12.92Z"/><path d="M28.42,9.52l.62-.2c.22-.08.44-.19.66-.27.05,0,.12,0,.18,0a.72.72,0,0,1-.05.21s-.08.06-.12.08c-.38.13-.75.27-1.13.39a.36.36,0,0,1-.48-.47c.13-.45.28-.9.41-1.35,0-.14.06-.3.12-.44s.13-.14.19-.21c0,.09.13.18.11.25a6,6,0,0,1-.19.73c-.1.34-.2.69-.29,1A.93.93,0,0,0,28.42,9.52Z"/><path d="M5.75,8.55a.83.83,0,0,1,.81-.84.8.8,0,0,1,.79.82.86.86,0,0,1-.83.85A.78.78,0,0,1,5.75,8.55Z"/><path d="M11.77,13.81l1-.43a1.28,1.28,0,0,1,.09.32.24.24,0,0,1-.1.19l-1.24.63-.33-.71-1,.47c-.37.16-.25.19-.53-.11s-.39-.43-.6-.67l.44-.33.49.53a.18.18,0,0,0,.28.05c.24-.14.5-.25.75-.39a.54.54,0,0,0,.17-.22A.91.91,0,0,0,11,12a8.78,8.78,0,0,1-.69-.89s0,0,0-.06c.14-.21.29-.44.45-.66a.22.22,0,0,1,.19-.07l1.54.36a.28.28,0,0,1,.17.13c.12.21.32.44.3.63s-.28.34-.44.51l-.09.09a1.8,1.8,0,0,0-.72,1.31A1.39,1.39,0,0,0,11.77,13.81Z"/><path d="M9.92,22.55C9.87,22,9.83,21.5,9.77,21a14.8,14.8,0,0,0-.55-2.88A3.1,3.1,0,0,0,9,17.57a1,1,0,0,0-.29-.26.31.31,0,0,0-.46.09,4.51,4.51,0,0,0-.74,1.94,10.69,10.69,0,0,0-.09,2.59c0,.09,0,.19,0,.31-.27-.13-.52-.28-.79-.38a.52.52,0,0,1-.35-.53A5.1,5.1,0,0,1,7.33,17.9c.16-.24.35-.46.56-.73a1,1,0,0,0-.26-.05l-1.52.15c-.24,0-.48.1-.72.14a.32.32,0,0,1-.21-.06s0-.1,0-.16a.7.7,0,0,0,0-.14v-1.3l-.5-.13c-.06.32-.11.63-.18.94a12.26,12.26,0,0,1-1.29,3.56,5.12,5.12,0,0,1-.85,1,3.31,3.31,0,0,1-.73.38v-.3A2.09,2.09,0,0,0,3,20.08,11.82,11.82,0,0,0,4.22,16.9a11.29,11.29,0,0,0,.34-3.17c0-.05,0-.1,0-.18l-.33.21a2.09,2.09,0,0,1-2.4,0,.35.35,0,0,1-.14-.25q0-3.12,0-6.25a1.51,1.51,0,0,1,.08-.34c.08-.39.17-.79.26-1.19A2.76,2.76,0,0,1,3,4a1.67,1.67,0,0,1,2.17.12.37.37,0,0,0,.42.11,6.44,6.44,0,0,0,.89-.38c.25-.13.25-.35,0-.49a12.73,12.73,0,0,0-1.55-.9A2.82,2.82,0,0,0,2,2.79L1.73,3s0,0,0,0a.32.32,0,0,1,.16-.41,3.22,3.22,0,0,1,3.39-.23c.48.24.91.56,1.37.83a.58.58,0,0,0,.31.11,10.38,10.38,0,0,1,4.39.91.36.36,0,0,0,.25,0,4.9,4.9,0,0,1,1.58-.44,2.31,2.31,0,0,1,2.27,1.07A3.62,3.62,0,0,1,15,9.33a.38.38,0,0,0-.11.37c.1.63.18,1.26.26,1.91.06,0,.15-.07.23-.13a5.57,5.57,0,0,1,2.31-.91,2.9,2.9,0,0,1,1-.11,2.53,2.53,0,0,1,1.65.81,1.93,1.93,0,0,1,.42,1.6,8,8,0,0,1-2.62,4.71A17.89,17.89,0,0,1,15,20a11.84,11.84,0,0,1-2.48,1.27c-.3.1-.62.15-1,.24v1.12c0,.18-.06.24-.22.18l-.09-3.41.22,0,.12,1.85A6.6,6.6,0,0,0,12.2,21a10.56,10.56,0,0,0,2.65-1.31,27.09,27.09,0,0,0,2.35-1.61,9.53,9.53,0,0,0,3-3.84.45.45,0,0,0,0-.24,1.88,1.88,0,0,1-.12.18,15.54,15.54,0,0,1-1,1.25,2.13,2.13,0,0,1-2.49.44,3.53,3.53,0,0,1-1.79-1.76l-.19-.4a5,5,0,0,1-2.93,2.53,1.5,1.5,0,0,0,0,.22c0,.11.09.22.13.33s.07.11.07.16c0,.47-.09,1-.14,1.42a.83.83,0,0,1-.08.18,3,3,0,0,1-.36-.17,9.24,9.24,0,0,1-1.11-.73,1.48,1.48,0,0,0-1-.33c.12.15.25.28.36.42a5.17,5.17,0,0,1,1.23,3.55.73.73,0,0,1-.23.55C10.37,22.07,10.17,22.3,9.92,22.55ZM8,15.64v-.07a2.41,2.41,0,0,1-1.06-1.15,4.46,4.46,0,0,1-.27-3.11,3.82,3.82,0,0,1,4.49-2.6A4.44,4.44,0,0,1,13.6,10a3.07,3.07,0,0,1,.11-.36c.09-.19.25-.2.37,0a.77.77,0,0,1-.09,1,5,5,0,0,1-1.1,4.73,4,4,0,0,0,1.5-1.69,5.83,5.83,0,0,0,.36-3.4A11.14,11.14,0,0,0,13.09,6a3.37,3.37,0,0,0-1-1,9.32,9.32,0,0,0-1-.57,9,9,0,0,0-3-.8c-.42-.05-.84-.06-1.22-.08-.08.18-.1.34-.2.42a2.07,2.07,0,0,1-1.42.57.51.51,0,0,0-.34.1c-.91.64-1.84,1.27-2.76,1.91a.48.48,0,0,0-.09.11l-.28.67a9.08,9.08,0,0,1,2.92,8l.46,0c.17,0,.33.12.51.14.63.1,1.27.18,1.9.26A1.26,1.26,0,0,0,8,15.64Zm2.64.23h.09A2.46,2.46,0,0,0,13,14.8a4.71,4.71,0,0,0,.9-3.29A2.19,2.19,0,0,0,13,9.82a4.27,4.27,0,0,0-3.23-.9,3.41,3.41,0,0,0-2.75,2,3.89,3.89,0,0,0-.23,2.28,2.64,2.64,0,0,0,1.63,2.29.19.19,0,0,1,.08.07c0,.15.08.13.14.14.4.06.8.1,1.2.14.18,0,.37,0,.5.18s.12,0,.19.06Zm4.18-6.68.26-.34a3.3,3.3,0,0,0,0-4.15A2,2,0,0,0,13.77,4a2.76,2.76,0,0,0-1.21.09c-.28.07-.55.18-.83.27.37.28.71.52,1,.79a.54.54,0,0,0,.48.15,3.77,3.77,0,0,1,1,0c.89.2,1.07,1.22,1,1.87a1.53,1.53,0,0,1-.59.88c0,.05-.12.15-.1.2C14.59,8.58,14.69,8.87,14.79,9.19Z"/><path d="M23.83,9.83a.68.68,0,0,1,.22-.12c.17,0,.23-.1.26-.26.11-.54.25-1.07.37-1.6,0,0,0,0,0,0s-.29,0-.26-.2.19-.13.29-.13a2.92,2.92,0,0,1,.73.07,1,1,0,0,1,.51,1.69,1.84,1.84,0,0,1-.67.45,5.78,5.78,0,0,1-1,.27,1.36,1.36,0,0,1-.4,0Zm.73-.19a2.16,2.16,0,0,0,1.13-.56,1,1,0,0,0,.25-.39c.14-.4-.37-1-.8-.92a.16.16,0,0,0-.11.1C24.87,8.44,24.72,9,24.56,9.64Z"/><path d="M18.73,8c-.08,0-.12,0-.13,0-.21-.24-.42-.13-.62,0a2.21,2.21,0,0,0-.95,1,.47.47,0,0,0,.15.65.48.48,0,0,0,.34.08,1.51,1.51,0,0,0,1-.93c-.26.1-.48.19-.71.26-.06,0-.14,0-.21,0s0-.21.07-.23a6.59,6.59,0,0,1,.86-.27.25.25,0,0,1,.27.35,2.34,2.34,0,0,1-.33.6,1.7,1.7,0,0,1-.91.54.68.68,0,0,1-.85-.83,2.31,2.31,0,0,1,1.56-1.62.37.37,0,0,1,.45.14C18.75,7.7,18.72,7.82,18.73,8Z"/><path d="M20.49,7.68c.36-.19.71.06.76.51A1.68,1.68,0,0,1,20,9.92a1.09,1.09,0,0,1-.4,0A.66.66,0,0,1,19,9.05a2.83,2.83,0,0,1,1.07-1.43A.26.26,0,0,1,20.49,7.68Zm-.69,2,.19,0a1.5,1.5,0,0,0,1-1.23A.76.76,0,0,0,20.9,8a.27.27,0,0,0-.44-.08.6.6,0,0,1-.2,0c-.05,0-.13,0-.16,0a2.45,2.45,0,0,0-.79,1.12C19.21,9.46,19.38,9.67,19.8,9.67Z"/><path d="M23.79,8.37A1.71,1.71,0,0,1,22.3,10,.68.68,0,0,1,21.57,9a2.81,2.81,0,0,1,1.05-1.42.26.26,0,0,1,.35,0,.21.21,0,0,0,.11,0,.54.54,0,0,1,.71.54A1,1,0,0,1,23.79,8.37Zm-1.45,1.3a.63.63,0,0,0,.19,0,1.49,1.49,0,0,0,1-1.22A.89.89,0,0,0,23.44,8,.27.27,0,0,0,23,7.94a.43.43,0,0,1-.17,0c-.07,0-.16,0-.21,0a2.46,2.46,0,0,0-.76,1.09C21.74,9.45,21.92,9.67,22.34,9.67Z"/><path d="M35.52,8.8a1.17,1.17,0,0,0,.32-.18c.31-.32.61-.65.92-1,.06-.06.2-.16.23-.14a.21.21,0,0,1,0,.33c-.22.24-.45.47-.67.7l-.19.17a1.3,1.3,0,0,1,.85,1,.41.41,0,0,1,0,.22.21.21,0,0,1-.16.1.22.22,0,0,1-.14-.13.92.92,0,0,1-.06-.25c-.09-.47-.73-.84-1.08-.58a.35.35,0,0,0-.15.17c0,.17,0,.35-.08.52a.83.83,0,0,1-.15.23c0-.08-.14-.17-.13-.25,0-.32.12-.63.2-1s.16-.67.25-1c0-.08.13-.19.19-.19s.13.15.11.24c-.06.28-.15.56-.22.83Z"/><path d="M28.68,13.23a6.57,6.57,0,0,0,1-1.53c0-.07.12-.11.18-.16s.14.17.12.24a.88.88,0,0,1-.17.4L28,14.44a1,1,0,0,1-.19.17.36.36,0,0,1-.18,0,.41.41,0,0,1,0-.19,1.06,1.06,0,0,1,.19-.23c.17-.18.35-.36.52-.55a.24.24,0,0,0,0-.2c-.1-.29-.22-.58-.33-.86l-.15-.42c0-.06-.05-.13,0-.18a1.15,1.15,0,0,1,.12-.25c.07.05.18.09.2.16s.13.43.19.64.15.46.22.69Z"/><path d="M32.77,7.84a2.81,2.81,0,0,1-1.16,2,.8.8,0,0,1-.7.16.53.53,0,0,1-.41-.64,5.54,5.54,0,0,1,.18-.67c.07-.28.14-.56.23-.83,0-.08.11-.13.17-.2.06.08.15.16.16.24a1.21,1.21,0,0,1-.1.36,10.75,10.75,0,0,0-.31,1.11c0,.32.16.46.47.33a1.5,1.5,0,0,0,.52-.37,2.69,2.69,0,0,0,.65-1.58,1,1,0,0,1,.13-.3l.17.33S32.77,7.78,32.77,7.84Z"/><path d="M32.89,9.17a1.81,1.81,0,0,1,.46-1,1.72,1.72,0,0,1,.89-.66.34.34,0,0,1,.44.35.29.29,0,0,1,0,.13s-.11,0-.12-.08-.15-.15-.27-.09a1.93,1.93,0,0,0-1,1.21.72.72,0,0,0,0,.25c0,.25.12.37.37.32a6.83,6.83,0,0,0,.75-.29.93.93,0,0,1,.24,0c0,.09,0,.2-.08.25a1.61,1.61,0,0,1-1.09.37C33.11,9.87,32.89,9.53,32.89,9.17Z"/><path d="M32.85,13.77l-.35.35a.38.38,0,0,1-.5.05.45.45,0,0,1-.23-.48,7.66,7.66,0,0,1,.25-.94.19.19,0,0,1,.18-.08s.12.12.1.17c-.06.25-.15.5-.2.75s0,.23.06.34a1,1,0,0,0,.3-.09A1.51,1.51,0,0,0,33,12.9a.48.48,0,0,1,0-.18.91.91,0,0,1,.17-.17.8.8,0,0,1,.13.21.42.42,0,0,1,0,.19c0,.34-.07.69-.13,1,0,.1-.08.24-.15.25s-.14-.11-.15-.21S32.86,13.88,32.85,13.77Z"/><path d="M23.83,13.82a1.4,1.4,0,0,1,.86-1.18c.42-.15.7,0,.7.51a1.32,1.32,0,0,1-.93,1.17A.48.48,0,0,1,23.83,13.82ZM25,12.88a1.06,1.06,0,0,1-.19.06.91.91,0,0,0-.66.74c-.06.25.09.39.35.35A.84.84,0,0,0,25,12.88Z"/><path d="M29.84,13.8a1.42,1.42,0,0,1,.86-1.16c.42-.15.7,0,.71.5a1.33,1.33,0,0,1-.93,1.18A.49.49,0,0,1,29.84,13.8ZM31,12.87l-.08.05-.1,0a.9.9,0,0,0-.66.74c-.07.26.09.4.36.35A.85.85,0,0,0,31,12.87Z"/><path d="M22.31,13.12a.75.75,0,0,1-.18-.08s-.07-.08-.06-.11.07-.12.1-.11c.4,0,.3-.29.39-.49,0,0,0-.07,0-.1s.1-.15.14-.23c.05.09.15.18.15.27a3,3,0,0,1-.12.5c.2,0,.38-.08.57-.1a.68.68,0,0,1,.23.05c-.06.07-.11.18-.19.2a5.63,5.63,0,0,1-.59.14.23.23,0,0,0-.14.13,2.36,2.36,0,0,0-.09.52c0,.23.14.32.33.2a3.78,3.78,0,0,0,.4-.4l.14-.18a.39.39,0,0,1,.06.14,1.06,1.06,0,0,1-.59.74.46.46,0,0,1-.64-.44,1.84,1.84,0,0,1,0-.33C22.26,13.34,22.29,13.23,22.31,13.12Z"/><path d="M28.62,9.71c.24-.07.43-.12.62-.19s.44-.19.66-.27c.05,0,.12,0,.18,0a.72.72,0,0,1,0,.21s-.08.06-.12.08c-.38.13-.75.27-1.14.39a.36.36,0,0,1-.47-.47c.13-.45.28-.9.41-1.35.05-.15.06-.31.12-.45s.12-.13.19-.2c0,.08.13.17.11.25a6.54,6.54,0,0,1-.19.73l-.3,1S28.63,9.59,28.62,9.71Z"/><path d="M6,8.74a.82.82,0,0,1,.81-.83.8.8,0,0,1,.79.82.87.87,0,0,1-.83.85A.79.79,0,0,1,6,8.74Z"/><path d="M12,14l1-.43a1.92,1.92,0,0,1,.09.32.27.27,0,0,1-.1.19l-1.24.63L11.39,14l-1,.46c-.38.17-.25.2-.54-.1l-.59-.67.44-.33c.16.18.33.35.48.53a.2.2,0,0,0,.29,0c.24-.14.5-.25.74-.39a.55.55,0,0,0,.18-.22.91.91,0,0,0-.19-1.18,8.78,8.78,0,0,1-.69-.89l0-.06c.14-.21.29-.45.45-.67a.24.24,0,0,1,.19-.06c.51.11,1,.23,1.54.36a.31.31,0,0,1,.17.13c.12.21.32.43.3.63s-.29.34-.44.51l-.1.09a1.82,1.82,0,0,0-.71,1.31A1.43,1.43,0,0,0,12,14Z"/></g><g class="cls-3"><path d="M9.58,22.21c-.05-.55-.09-1.05-.15-1.54a14.8,14.8,0,0,0-.55-2.88,2.58,2.58,0,0,0-.25-.56A1,1,0,0,0,8.34,17a.31.31,0,0,0-.46.09A4.51,4.51,0,0,0,7.14,19a10.69,10.69,0,0,0-.09,2.59v.31a8.34,8.34,0,0,0-.8-.38A.52.52,0,0,1,5.91,21,5.1,5.1,0,0,1,7,17.56c.16-.24.35-.46.55-.73a.85.85,0,0,0-.25,0l-1.52.15c-.24,0-.48.1-.72.14A.32.32,0,0,1,4.84,17s0-.1,0-.16a.7.7,0,0,0,0-.14v-1.3l-.5-.13c-.06.32-.11.63-.18.94a12.26,12.26,0,0,1-1.29,3.56,5.12,5.12,0,0,1-.85,1,3.31,3.31,0,0,1-.73.38v-.3a2.09,2.09,0,0,0,1.32-1.13,11.82,11.82,0,0,0,1.22-3.18,11.29,11.29,0,0,0,.34-3.17c0-.05,0-.1,0-.18l-.33.21a2.09,2.09,0,0,1-2.4,0,.35.35,0,0,1-.14-.25q0-3.12,0-6.25a1.51,1.51,0,0,1,.08-.34c.08-.39.17-.79.26-1.19a2.76,2.76,0,0,1,.94-1.7,1.67,1.67,0,0,1,2.17.12.37.37,0,0,0,.42.11,7,7,0,0,0,.89-.38c.25-.13.25-.35,0-.49a12.73,12.73,0,0,0-1.55-.9,2.82,2.82,0,0,0-2.94.33l-.24.17h0a.32.32,0,0,1,.16-.41A3.22,3.22,0,0,1,4.91,2c.48.24.91.56,1.37.83a.58.58,0,0,0,.31.11A10.38,10.38,0,0,1,11,3.83a.36.36,0,0,0,.25,0,4.9,4.9,0,0,1,1.58-.44,2.32,2.32,0,0,1,2.27,1.06A3.63,3.63,0,0,1,14.66,9a.38.38,0,0,0-.11.37c.1.63.18,1.26.26,1.91a1.79,1.79,0,0,0,.22-.13,5.67,5.67,0,0,1,2.32-.91,2.9,2.9,0,0,1,1-.11,2.53,2.53,0,0,1,1.65.81,1.93,1.93,0,0,1,.42,1.6,8,8,0,0,1-2.62,4.71,17.89,17.89,0,0,1-3.23,2.37,11.84,11.84,0,0,1-2.48,1.27c-.3.1-.62.15-1,.24v1.12c0,.18-.06.23-.22.18L10.85,19l.22,0,.12,1.85a6.6,6.6,0,0,0,.67-.14,10.56,10.56,0,0,0,2.65-1.31,27.09,27.09,0,0,0,2.35-1.61,9.53,9.53,0,0,0,3-3.84.45.45,0,0,0,0-.24,1.88,1.88,0,0,1-.12.18,15.54,15.54,0,0,1-1,1.25,2.13,2.13,0,0,1-2.49.44,3.53,3.53,0,0,1-1.79-1.76l-.19-.4a5,5,0,0,1-2.93,2.53,1.5,1.5,0,0,0,0,.22c0,.11.09.22.13.33s.07.11.07.16c0,.47-.09,1-.14,1.42a.83.83,0,0,1-.08.18,3,3,0,0,1-.36-.17,9.24,9.24,0,0,1-1.11-.73,1.48,1.48,0,0,0-1-.33c.12.15.25.28.36.42A5.17,5.17,0,0,1,10.49,21a.69.69,0,0,1-.23.54C10,21.73,9.83,22,9.58,22.21ZM7.63,15.3v-.07a2.41,2.41,0,0,1-1.06-1.15A4.46,4.46,0,0,1,6.3,11a3.82,3.82,0,0,1,4.49-2.6,4.44,4.44,0,0,1,2.47,1.32,3.07,3.07,0,0,1,.11-.36c.09-.19.25-.2.37,0a.75.75,0,0,1-.09,1A5,5,0,0,1,12.55,15a4,4,0,0,0,1.5-1.69,5.83,5.83,0,0,0,.36-3.4,11.14,11.14,0,0,0-1.66-4.3,3.37,3.37,0,0,0-1-1,9.32,9.32,0,0,0-1-.57,9,9,0,0,0-3-.8C7.4,3.19,7,3.18,6.6,3.16a1.37,1.37,0,0,1-.2.42A2.07,2.07,0,0,1,5,4.15a.51.51,0,0,0-.34.1L1.88,6.16a.48.48,0,0,0-.09.11l-.28.67a9.08,9.08,0,0,1,2.92,8l.46,0c.17,0,.33.12.51.14.63.1,1.27.18,1.9.26A1.26,1.26,0,0,0,7.63,15.3Zm2.64.23h.09a2.46,2.46,0,0,0,2.31-1.06,4.71,4.71,0,0,0,.9-3.29,2.19,2.19,0,0,0-.89-1.69,4.27,4.27,0,0,0-3.23-.9,3.41,3.41,0,0,0-2.75,2,3.89,3.89,0,0,0-.23,2.28A2.64,2.64,0,0,0,8.1,15.17s.08.06.07.07.09.13.15.14l1.2.14c.18,0,.37,0,.5.18s.12,0,.19.06Zm4.18-6.68.26-.34a3.3,3.3,0,0,0,0-4.15,2,2,0,0,0-1.28-.71,2.76,2.76,0,0,0-1.21.09c-.28.07-.55.18-.83.27.37.28.71.52,1,.79a.54.54,0,0,0,.48.15,3.77,3.77,0,0,1,1,0c.89.2,1.07,1.22,1,1.87a1.53,1.53,0,0,1-.59.88s-.12.15-.1.2C14.25,8.24,14.35,8.53,14.45,8.85Z"/><path d="M23.49,9.49a.68.68,0,0,1,.22-.12c.17,0,.23-.1.26-.26.11-.54.24-1.07.37-1.6,0,0,0,0,0,0s-.29,0-.26-.2.19-.13.29-.13a2.92,2.92,0,0,1,.73.07,1,1,0,0,1,.51,1.69,1.84,1.84,0,0,1-.67.45,5.78,5.78,0,0,1-1,.27,1.36,1.36,0,0,1-.4,0Zm.73-.19a2.16,2.16,0,0,0,1.13-.56,1,1,0,0,0,.25-.39c.14-.4-.37-1-.8-.92a.14.14,0,0,0-.11.1C24.53,8.1,24.38,8.68,24.22,9.3Z"/><path d="M18.39,7.61c-.08,0-.12,0-.13,0-.21-.24-.42-.13-.62,0a2.21,2.21,0,0,0-.95,1,.47.47,0,0,0,.15.65.48.48,0,0,0,.34.08,1.51,1.51,0,0,0,1-.93c-.26.09-.48.19-.71.26-.06,0-.14,0-.21,0s0-.21.07-.23a6.59,6.59,0,0,1,.86-.27.25.25,0,0,1,.27.35,2.34,2.34,0,0,1-.33.6,1.7,1.7,0,0,1-.91.54.68.68,0,0,1-.85-.83,2.31,2.31,0,0,1,1.56-1.62.37.37,0,0,1,.45.14C18.41,7.36,18.38,7.48,18.39,7.61Z"/><path d="M20.15,7.34c.36-.19.71.06.76.51a1.68,1.68,0,0,1-1.28,1.73,1.09,1.09,0,0,1-.4,0,.66.66,0,0,1-.55-.91,2.83,2.83,0,0,1,1.07-1.43A.26.26,0,0,1,20.15,7.34Zm-.69,2a.63.63,0,0,0,.19,0,1.47,1.47,0,0,0,1-1.22.76.76,0,0,0-.08-.39.27.27,0,0,0-.44-.08.6.6,0,0,1-.2,0c-.05,0-.13,0-.16,0A2.4,2.4,0,0,0,19,8.78C18.87,9.12,19,9.33,19.46,9.33Z"/><path d="M23.45,8A1.71,1.71,0,0,1,22,9.63a.68.68,0,0,1-.72-.93,2.81,2.81,0,0,1,1.05-1.42.26.26,0,0,1,.35,0,.21.21,0,0,0,.11,0,.54.54,0,0,1,.71.54A1,1,0,0,1,23.45,8ZM22,9.33a.63.63,0,0,0,.19,0,1.49,1.49,0,0,0,1-1.22.89.89,0,0,0-.09-.39.27.27,0,0,0-.44-.08.47.47,0,0,1-.17,0c-.07,0-.16,0-.21,0a2.46,2.46,0,0,0-.76,1.09C21.4,9.11,21.58,9.33,22,9.33Z"/><path d="M35.18,8.46a1.17,1.17,0,0,0,.32-.18c.31-.32.61-.65.92-1,.06-.06.2-.16.23-.14a.21.21,0,0,1,0,.33c-.22.24-.45.47-.67.7l-.19.17a1.3,1.3,0,0,1,.85,1,.41.41,0,0,1,0,.22.21.21,0,0,1-.16.1.2.2,0,0,1-.14-.13.92.92,0,0,1-.06-.25c-.09-.47-.73-.84-1.08-.58a.35.35,0,0,0-.15.17c0,.17,0,.35-.08.52a.83.83,0,0,1-.15.23c0-.08-.14-.17-.13-.25.05-.32.12-.63.2-.95s.16-.67.25-1c0-.08.13-.19.19-.19s.13.15.11.24c-.06.28-.15.56-.22.83Z"/><path d="M28.34,12.89a6.57,6.57,0,0,0,1-1.53c0-.07.12-.11.18-.16s.14.17.12.23a.88.88,0,0,1-.17.41L27.67,14.1a1,1,0,0,1-.19.17.36.36,0,0,1-.18,0,.41.41,0,0,1,0-.19,1.06,1.06,0,0,1,.19-.23c.17-.18.35-.36.52-.55a.26.26,0,0,0,0-.21c-.1-.28-.22-.57-.33-.85l-.15-.42c0-.06-.05-.13,0-.18a1.15,1.15,0,0,1,.12-.25c.07.05.18.09.2.16s.13.43.19.64.14.46.22.69Z"/><path d="M32.43,7.5a2.83,2.83,0,0,1-1.16,2,.8.8,0,0,1-.7.16A.53.53,0,0,1,30.16,9c0-.22.11-.45.17-.67s.15-.56.24-.83c0-.08.11-.13.17-.2.06.08.15.16.16.24a1.21,1.21,0,0,1-.1.36A10.75,10.75,0,0,0,30.49,9c0,.32.16.46.47.33A1.5,1.5,0,0,0,31.48,9a2.69,2.69,0,0,0,.65-1.58,1,1,0,0,1,.13-.3l.17.33S32.43,7.44,32.43,7.5Z"/><path d="M32.55,8.83a1.81,1.81,0,0,1,.46-1,1.72,1.72,0,0,1,.89-.66.34.34,0,0,1,.44.35.29.29,0,0,1-.05.13s-.11,0-.12-.08S34,7.4,33.9,7.46a1.93,1.93,0,0,0-1,1.21.72.72,0,0,0,0,.25c0,.25.12.37.37.32A6.83,6.83,0,0,0,34,9a.93.93,0,0,1,.24,0c0,.09,0,.2-.08.25a1.61,1.61,0,0,1-1.09.37C32.77,9.53,32.55,9.19,32.55,8.83Z"/><path d="M32.51,13.43c-.13.14-.24.25-.35.35a.38.38,0,0,1-.5.05.45.45,0,0,1-.23-.48,7.66,7.66,0,0,1,.25-.94.19.19,0,0,1,.18-.08c.05,0,.12.12.1.17-.06.25-.15.5-.2.75s0,.23.06.34a1,1,0,0,0,.3-.09,1.51,1.51,0,0,0,.52-.94.48.48,0,0,1,0-.18.91.91,0,0,1,.17-.17.8.8,0,0,1,.13.21.42.42,0,0,1,0,.19c0,.34-.07.69-.13,1,0,.1-.08.23-.15.25s-.14-.11-.15-.21S32.52,13.54,32.51,13.43Z"/><path d="M23.49,13.48a1.4,1.4,0,0,1,.86-1.18c.42-.15.7,0,.7.51A1.32,1.32,0,0,1,24.12,14,.48.48,0,0,1,23.49,13.48Zm1.14-.94a1.06,1.06,0,0,1-.19.06.91.91,0,0,0-.66.74c-.06.25.09.39.35.35A.84.84,0,0,0,24.63,12.54Z"/><path d="M29.5,13.46a1.42,1.42,0,0,1,.86-1.16c.42-.15.7,0,.71.5A1.33,1.33,0,0,1,30.14,14,.49.49,0,0,1,29.5,13.46Zm1.14-.93-.08.05-.1,0a.9.9,0,0,0-.66.74c-.07.26.09.4.36.35A.85.85,0,0,0,30.64,12.53Z"/><path d="M22,12.78a.75.75,0,0,1-.18-.08s-.07-.08-.06-.11.07-.12.1-.11c.4,0,.3-.29.39-.49,0,0,0-.07,0-.1s.1-.15.14-.23c.05.09.15.18.15.27a3,3,0,0,1-.12.5c.2,0,.38-.08.56-.1a.69.69,0,0,1,.24.05c-.06.07-.11.18-.19.2a5.63,5.63,0,0,1-.59.14.23.23,0,0,0-.14.13,2.36,2.36,0,0,0-.09.52c0,.22.14.32.33.2a3.78,3.78,0,0,0,.4-.4l.14-.18a.39.39,0,0,1,.06.14,1,1,0,0,1-.6.74.46.46,0,0,1-.63-.44,1.84,1.84,0,0,1,0-.33C21.92,13,22,12.89,22,12.78Z"/><path d="M28.28,9.37c.24-.07.43-.12.62-.19s.44-.19.66-.27c.05,0,.12,0,.18,0a.72.72,0,0,1,0,.21s-.08.06-.12.08c-.38.13-.75.27-1.14.38A.36.36,0,0,1,28,9.13c.13-.45.28-.9.41-1.35.05-.15.06-.31.12-.45s.12-.13.19-.2c0,.08.13.17.11.25a7.16,7.16,0,0,1-.19.73l-.3,1S28.29,9.25,28.28,9.37Z"/><path d="M5.61,8.4a.84.84,0,0,1,.81-.84.82.82,0,0,1,.79.83.87.87,0,0,1-.83.85A.79.79,0,0,1,5.61,8.4Z"/><path d="M11.63,13.66l1-.42a1.92,1.92,0,0,1,.09.32.27.27,0,0,1-.1.19l-1.24.63-.33-.71-1,.46c-.38.17-.25.2-.54-.1l-.59-.67L9.34,13c.16.18.33.35.48.53a.2.2,0,0,0,.29,0c.24-.14.5-.25.74-.39A.55.55,0,0,0,11,13a.91.91,0,0,0-.19-1.18,8.78,8.78,0,0,1-.69-.89s0,0,0-.06c.14-.21.29-.45.45-.67a.24.24,0,0,1,.19-.06c.51.11,1,.23,1.54.36a.31.31,0,0,1,.17.13c.12.21.32.43.3.63s-.29.34-.44.51l-.1.09a1.82,1.82,0,0,0-.71,1.31A1.34,1.34,0,0,0,11.63,13.66Z"/></g><path class="cls-4" d="M9.78,22.41c0-.55-.09-1.05-.15-1.54A14.66,14.66,0,0,0,9.08,18a2.58,2.58,0,0,0-.25-.56.76.76,0,0,0-.3-.26.3.3,0,0,0-.45.09,4.39,4.39,0,0,0-.74,1.94,10.21,10.21,0,0,0-.09,2.59v.31a7.24,7.24,0,0,0-.8-.38.52.52,0,0,1-.34-.53,5.15,5.15,0,0,1,1.08-3.44c.16-.23.35-.46.55-.72A.91.91,0,0,0,7.48,17c-.5,0-1,.09-1.51.15-.24,0-.48.1-.72.14A.32.32,0,0,1,5,17.21s0-.1,0-.16,0-.09,0-.14v-1.3l-.5-.13c-.07.32-.12.63-.19.93A11.78,11.78,0,0,1,3.12,20a4.86,4.86,0,0,1-.84,1,3.31,3.31,0,0,1-.73.38l0-.3a2.09,2.09,0,0,0,1.33-1.13,11.76,11.76,0,0,0,1.22-3.19,11.19,11.19,0,0,0,.34-3.16,1.62,1.62,0,0,0,0-.18l-.33.21a2.09,2.09,0,0,1-2.39,0,.32.32,0,0,1-.14-.25q0-3.12,0-6.25a2.29,2.29,0,0,1,.07-.34l.27-1.19a2.72,2.72,0,0,1,.94-1.7A1.67,1.67,0,0,1,5,4a.4.4,0,0,0,.42.11,7,7,0,0,0,.89-.38c.25-.14.25-.35,0-.5a14.18,14.18,0,0,0-1.55-.9,2.87,2.87,0,0,0-2.95.34l-.24.17s0,0,0,0a.34.34,0,0,1,.17-.41,3.22,3.22,0,0,1,3.39-.23c.48.23.91.56,1.37.83a.58.58,0,0,0,.31.11A10.38,10.38,0,0,1,11.18,4a.36.36,0,0,0,.25,0A4.9,4.9,0,0,1,13,3.58a2.29,2.29,0,0,1,2.27,1.06,3.61,3.61,0,0,1-.43,4.54.43.43,0,0,0-.1.38c.1.63.17,1.26.26,1.91l.22-.13a5.67,5.67,0,0,1,2.32-.91,2.9,2.9,0,0,1,1.05-.11,2.55,2.55,0,0,1,1.65.81,1.87,1.87,0,0,1,.41,1.59,7.84,7.84,0,0,1-2.61,4.71,17.94,17.94,0,0,1-3.23,2.38,11.84,11.84,0,0,1-2.48,1.27c-.3.1-.62.15-1,.24,0,.35,0,.73,0,1.12,0,.17-.07.23-.22.18l-.09-3.42h.22L11.39,21c.23-.05.45-.07.67-.14a10.84,10.84,0,0,0,2.64-1.31A25.27,25.27,0,0,0,17.06,18a9.5,9.5,0,0,0,3-3.83.38.38,0,0,0,0-.24.62.62,0,0,1-.11.17c-.34.42-.65.87-1,1.26a2.14,2.14,0,0,1-2.5.44A3.59,3.59,0,0,1,14.68,14l-.19-.4a5.07,5.07,0,0,1-2.93,2.53,1.25,1.25,0,0,0,0,.21,2,2,0,0,0,.13.34s.07.11.07.15c0,.48-.09.95-.15,1.43a.71.71,0,0,1-.07.18,3.17,3.17,0,0,1-.37-.17,10,10,0,0,1-1.1-.73,1.43,1.43,0,0,0-1-.33l.36.42a5.11,5.11,0,0,1,1.22,3.55.65.65,0,0,1-.22.54C10.23,21.93,10,22.16,9.78,22.41ZM7.83,15.5v-.07a2.41,2.41,0,0,1-1.06-1.15,4.46,4.46,0,0,1-.27-3.11A3.82,3.82,0,0,1,11,8.57a4.41,4.41,0,0,1,2.47,1.32,2.57,2.57,0,0,1,.11-.36c.09-.2.24-.2.37,0a.75.75,0,0,1-.09,1,5,5,0,0,1-1.1,4.74,4,4,0,0,0,1.5-1.69,5.74,5.74,0,0,0,.35-3.4A11.12,11.12,0,0,0,13,5.83a3.26,3.26,0,0,0-1-1,9.32,9.32,0,0,0-1-.57,9.22,9.22,0,0,0-3-.81c-.42,0-.85-.05-1.22-.07a1.5,1.5,0,0,1-.2.42,2.12,2.12,0,0,1-1.42.57.46.46,0,0,0-.34.1L2.08,6.36A.31.31,0,0,0,2,6.47c-.1.22-.19.45-.28.67a9.08,9.08,0,0,1,2.92,8l.46,0c.16,0,.33.11.51.14.63.1,1.27.18,1.9.26A1.88,1.88,0,0,0,7.83,15.5Zm2.64.23h.08a2.44,2.44,0,0,0,2.31-1.06,4.62,4.62,0,0,0,.9-3.29,2.19,2.19,0,0,0-.88-1.69,4.28,4.28,0,0,0-3.23-.9,3.41,3.41,0,0,0-2.75,2,3.8,3.8,0,0,0-.23,2.28A2.62,2.62,0,0,0,8.3,15.37s.08.06.07.07.09.13.15.14l1.2.14c.18,0,.36,0,.5.18s.12,0,.19.06ZM14.65,9l.26-.33a3.31,3.31,0,0,0,0-4.15,1.91,1.91,0,0,0-1.28-.71,2.76,2.76,0,0,0-1.21.09c-.28.07-.55.18-.83.27.37.28.71.52,1,.79a.56.56,0,0,0,.48.15,3.41,3.41,0,0,1,1,0c.89.19,1.07,1.22,1,1.87a1.56,1.56,0,0,1-.59.88c-.06,0-.12.14-.1.2C14.45,8.44,14.55,8.73,14.65,9Z"/><path class="cls-4" d="M23.68,9.69c.08,0,.15-.11.23-.12s.23-.11.26-.27c.11-.53.24-1.06.37-1.59,0,0,0,0,0,0s-.29,0-.26-.21.19-.13.29-.13a3.63,3.63,0,0,1,.73.08,1,1,0,0,1,.51,1.69,1.93,1.93,0,0,1-.67.45,5.78,5.78,0,0,1-1,.27,1.36,1.36,0,0,1-.4,0Zm.74-.19a2.2,2.2,0,0,0,1.13-.56,1.08,1.08,0,0,0,.25-.39.81.81,0,0,0-.8-.92.14.14,0,0,0-.11.09C24.73,8.3,24.58,8.88,24.42,9.5Z"/><path class="cls-4" d="M18.59,7.81c-.08,0-.12,0-.14,0-.2-.25-.41-.13-.61,0a2.16,2.16,0,0,0-.95,1,.47.47,0,0,0,.15.65.42.42,0,0,0,.34.07,1.49,1.49,0,0,0,1-.92c-.26.09-.48.19-.71.26-.07,0-.15,0-.22,0s0-.21.08-.22a5.35,5.35,0,0,1,.86-.27.24.24,0,0,1,.27.34,2,2,0,0,1-.34.61,1.6,1.6,0,0,1-.91.53A.68.68,0,0,1,16.55,9a2.32,2.32,0,0,1,1.56-1.61.37.37,0,0,1,.45.14C18.61,7.56,18.58,7.68,18.59,7.81Z"/><path class="cls-4" d="M20.35,7.53c.36-.18.71.07.76.52a1.68,1.68,0,0,1-1.28,1.73,1.36,1.36,0,0,1-.4,0,.66.66,0,0,1-.55-.91A2.79,2.79,0,0,1,20,7.48.27.27,0,0,1,20.35,7.53Zm-.69,2a.7.7,0,0,0,.19,0,1.47,1.47,0,0,0,1-1.22.76.76,0,0,0-.08-.39c-.09-.19-.27-.2-.44-.08a.6.6,0,0,1-.2,0c-.05,0-.13,0-.16,0A2.48,2.48,0,0,0,19.17,9C19.07,9.32,19.24,9.53,19.66,9.53Z"/><path class="cls-4" d="M23.65,8.23a1.69,1.69,0,0,1-1.5,1.59.67.67,0,0,1-.73-.92,2.88,2.88,0,0,1,1.06-1.42.27.27,0,0,1,.35,0,.16.16,0,0,0,.11,0,.54.54,0,0,1,.71.54A1,1,0,0,1,23.65,8.23ZM22.2,9.53a.63.63,0,0,0,.19,0,1.49,1.49,0,0,0,1-1.22.76.76,0,0,0-.08-.39c-.09-.19-.27-.2-.44-.08s-.12,0-.18,0-.15,0-.2,0A2.56,2.56,0,0,0,21.71,9C21.6,9.31,21.78,9.53,22.2,9.53Z"/><path class="cls-4" d="M35.38,8.66a1.17,1.17,0,0,0,.32-.18c.31-.32.61-.66.92-1,.06-.06.19-.16.22-.14a.2.2,0,0,1,0,.33c-.22.24-.45.47-.68.7L36,8.56a1.32,1.32,0,0,1,.85,1,.41.41,0,0,1,0,.22.22.22,0,0,1-.17.1c-.05,0-.11-.08-.14-.13a1.84,1.84,0,0,1-.05-.25c-.1-.47-.73-.84-1.08-.59a.47.47,0,0,0-.15.17c0,.17,0,.35-.08.52a.87.87,0,0,1-.15.24c-.05-.08-.14-.17-.13-.25,0-.32.12-.64.2-1s.15-.67.25-1c0-.08.13-.2.19-.2s.13.16.11.25c-.07.28-.15.55-.22.83Z"/><path class="cls-4" d="M28.54,13.08a6.47,6.47,0,0,0,.95-1.52c0-.07.13-.11.19-.16s.14.17.12.23a.84.84,0,0,1-.17.4c-.58.76-1.17,1.51-1.77,2.27a.73.73,0,0,1-.18.17.39.39,0,0,1-.19,0,.6.6,0,0,1,0-.19,1.06,1.06,0,0,1,.19-.23c.17-.19.35-.36.52-.56a.23.23,0,0,0,0-.2c-.1-.29-.22-.57-.33-.86-.06-.13-.1-.27-.15-.41a.3.3,0,0,1,0-.18,1.15,1.15,0,0,1,.12-.25c.07.05.18.09.2.15.08.21.12.43.19.65s.14.46.22.69Z"/><path class="cls-4" d="M32.63,7.7a2.83,2.83,0,0,1-1.16,2,.8.8,0,0,1-.7.16.54.54,0,0,1-.41-.64c0-.23.11-.45.17-.67s.15-.56.24-.83c0-.08.11-.14.17-.2s.15.15.16.24a1.21,1.21,0,0,1-.1.36,10.75,10.75,0,0,0-.31,1.11c-.05.32.16.46.47.33a1.64,1.64,0,0,0,.52-.37,2.69,2.69,0,0,0,.65-1.58,1,1,0,0,1,.13-.3c0,.11.11.22.17.33Z"/><path class="cls-4" d="M32.75,9a1.74,1.74,0,0,1,.46-1,1.68,1.68,0,0,1,.89-.66.34.34,0,0,1,.44.35.43.43,0,0,1,0,.13s-.11,0-.13-.08-.15-.16-.26-.09a2,2,0,0,0-1,1.21.71.71,0,0,0,0,.25c0,.25.12.37.36.32a5,5,0,0,0,.76-.3,1.79,1.79,0,0,1,.24,0c0,.09,0,.2-.08.25a1.55,1.55,0,0,1-1.09.36C33,9.73,32.75,9.39,32.75,9Z"/><path class="cls-4" d="M32.71,13.63c-.14.13-.24.25-.35.35a.39.39,0,0,1-.51,0,.47.47,0,0,1-.23-.49c.07-.31.16-.62.25-.93a.2.2,0,0,1,.19-.08.19.19,0,0,1,.1.17c-.06.25-.16.5-.21.75a1,1,0,0,0,.07.34,1,1,0,0,0,.3-.09,1.49,1.49,0,0,0,.51-.94.87.87,0,0,1,.05-.19,1.33,1.33,0,0,1,.17-.16.67.67,0,0,1,.13.21.42.42,0,0,1,0,.19c0,.34-.07.69-.13,1,0,.09-.08.23-.15.25s-.14-.11-.15-.21S32.72,13.74,32.71,13.63Z"/><path class="cls-4" d="M23.69,13.67a1.39,1.39,0,0,1,.86-1.17c.42-.15.7.05.7.51a1.32,1.32,0,0,1-.93,1.17A.48.48,0,0,1,23.69,13.67Zm1.14-.93-.19.06a.9.9,0,0,0-.66.74c-.06.25.09.39.34.35A.85.85,0,0,0,24.83,12.74Z"/><path class="cls-4" d="M29.7,13.66a1.42,1.42,0,0,1,.86-1.16c.42-.15.7.05.71.5a1.33,1.33,0,0,1-.93,1.18A.49.49,0,0,1,29.7,13.66Zm1.14-.94a.21.21,0,0,1-.08.06l-.1,0a.91.91,0,0,0-.67.74c-.06.25.1.4.36.35A.87.87,0,0,0,30.84,12.72Z"/><path class="cls-4" d="M22.17,13,22,12.9a.19.19,0,0,1-.07-.11s.07-.12.1-.12c.41.06.31-.29.4-.48,0,0,0-.08,0-.1s.09-.15.14-.23c.05.09.15.18.15.26a2.94,2.94,0,0,1-.13.51c.21,0,.39-.08.57-.1a1,1,0,0,1,.24,0c-.06.08-.11.19-.19.21a5.63,5.63,0,0,1-.59.14.23.23,0,0,0-.14.13,2.36,2.36,0,0,0-.09.52c0,.22.14.32.33.19a2.4,2.4,0,0,0,.39-.39,1.81,1.81,0,0,0,.15-.19.62.62,0,0,1,.06.14,1.06,1.06,0,0,1-.6.75.46.46,0,0,1-.63-.44,1.84,1.84,0,0,1,0-.33A1.8,1.8,0,0,1,22.17,13Z"/><path class="cls-4" d="M28.47,9.57c.25-.07.44-.12.63-.19s.43-.19.66-.27a.37.37,0,0,1,.18,0,1.29,1.29,0,0,1-.05.21.24.24,0,0,1-.12.07c-.38.14-.75.28-1.14.39a.36.36,0,0,1-.47-.46c.13-.45.28-.9.41-1.35.05-.15.06-.31.11-.45s.13-.13.2-.2c0,.08.12.17.11.24a6.7,6.7,0,0,1-.19.74l-.3,1C28.49,9.39,28.49,9.45,28.47,9.57Z"/><path class="cls-4" d="M5.81,8.6a.84.84,0,0,1,.8-.84.81.81,0,0,1,.79.83.85.85,0,0,1-.82.85A.79.79,0,0,1,5.81,8.6Z"/><path class="cls-4" d="M11.83,13.86l1-.42a1.25,1.25,0,0,1,.08.32.23.23,0,0,1-.09.19l-1.24.63-.33-.71-1,.46c-.38.17-.26.2-.54-.11s-.38-.43-.59-.66l.43-.33c.17.18.34.35.49.53a.2.2,0,0,0,.29.05c.24-.14.5-.25.74-.4a.46.46,0,0,0,.18-.21A.91.91,0,0,0,11,12a8.47,8.47,0,0,1-.69-.89s0,0,0-.06c.14-.22.28-.45.44-.67a.28.28,0,0,1,.2-.06c.51.11,1,.23,1.54.36a.3.3,0,0,1,.17.13c.12.21.32.43.3.63s-.29.34-.45.51l-.09.09a1.82,1.82,0,0,0-.71,1.3A1.39,1.39,0,0,0,11.83,13.86Z"/></g></g></svg>