<svg xmlns="http://www.w3.org/2000/svg" viewBox="0 0 38.55 24.66"><defs><style>.cls-1{isolation:isolate;}.cls-2{opacity:0.15;}.cls-2,.cls-3{mix-blend-mode:multiply;}.cls-4{fill:#fff;}</style></defs><title>convert-FIX-SVG-03</title><g class="cls-1"><g id="Layer_1" data-name="Layer 1"><g class="cls-2"><path d="M4.45,8.35c-.16-.24-.33-.45-.47-.67a2.81,2.81,0,0,1,.17-3.46.3.3,0,0,0,0-.18A1.67,1.67,0,0,1,5,2.28a1.63,1.63,0,0,1,2,.34.54.54,0,0,0,.36.16c.45.09.89.22,1.33.32a.25.25,0,0,0,.19,0,1,1,0,0,1,1.23.17,1.67,1.67,0,0,1,.56.9.86.86,0,0,1,0,.45.65.65,0,0,0,.26.85,3.5,3.5,0,0,1,.39.38,1.37,1.37,0,0,1,.17,2,4.4,4.4,0,0,1-.63.75l1.71.21-.08-.85,1.24-.25.72-.15a2.05,2.05,0,0,0,1.12-.79,4.59,4.59,0,0,0,.64-.94.64.64,0,0,1,.64-.38l.84,4.15-.61.19a1.5,1.5,0,0,0-1-.89,3.14,3.14,0,0,0-1.76.06,1.31,1.31,0,0,1-.24,2,4.91,4.91,0,0,1-1.73.65c-.59.13-1.19.22-1.8.33,0,.13,0,.29.06.46a3.6,3.6,0,0,1-.31,2,.43.43,0,0,0-.05.16c0,.74.05,1.47.1,2.21a.89.89,0,0,0,.46.73,3.92,3.92,0,0,1,.91.81,1.25,1.25,0,0,1-.55,2,5.62,5.62,0,0,1-.82.27c-.27.06-.56.09-.84.14,0,.13,0,.27,0,.4a1.39,1.39,0,0,1-1,1,7.08,7.08,0,0,1-2.66.4,2.54,2.54,0,0,1-.73-.13,1.23,1.23,0,0,1-.92-1c-.33-1.82-.69-3.64-1-5.46a3.22,3.22,0,0,1,.16-1.89.29.29,0,0,0,0-.16,3.4,3.4,0,0,1,0-2.16c.08-.31.21-.61.31-.92a.54.54,0,0,0,0-.28,2.67,2.67,0,0,1,0-1.16A1.41,1.41,0,0,1,4.45,8.35ZM6,22.33c.41,0,.73,0,1-.12a8.1,8.1,0,0,0,1.62-.45c.66-.29.77-.8.4-1.42a4.42,4.42,0,0,0-1-1.1,1.35,1.35,0,0,1-.4-.46,9.42,9.42,0,0,1-.52-1.37c-.19-.65-.29-1.32-.48-2A2.48,2.48,0,0,0,4.8,13.6a1,1,0,0,0-1.3.68,3.06,3.06,0,0,0-.13.6,5.14,5.14,0,0,0,.15,1.7c.3,1.59.61,3.19.91,4.79a.91.91,0,0,0,.63.75A7.38,7.38,0,0,0,6,22.33ZM9.68,10.16c-.34.3-.64.59-1,.85a5.19,5.19,0,0,1-2,1,2.57,2.57,0,0,1-2.79-1,4.36,4.36,0,0,0-.36,2.65,1.21,1.21,0,0,1,1.17-.4,2.68,2.68,0,0,1,1.89,1.36,4.48,4.48,0,0,1,.51,1.56c0,.15.09.18.22.15a4.06,4.06,0,0,0,1.53-.64,3.36,3.36,0,0,0,1.52-2.39A6,6,0,0,0,9.68,10.16Zm.68-5A3.6,3.6,0,0,0,7.29,3.07c-.15.46-.38.59-.7.36L5.78,4s-.11.12-.1.16A.85.85,0,0,1,5.29,5c-.28.24-.46.22-.67-.1-.1-.15-.19-.31-.3-.48a2.31,2.31,0,0,0-.56,1.3,3.14,3.14,0,0,0,.9,2.39.25.25,0,0,0,.19,0A4.65,4.65,0,0,1,6.38,8a.43.43,0,0,0,.25,0,5.21,5.21,0,0,1,2-.84.68.68,0,0,1,0-.21,6.3,6.3,0,0,1,.3-1,1.14,1.14,0,0,1,1.23-.73A1.33,1.33,0,0,0,10.36,5.14ZM6.19,8.28a2.83,2.83,0,0,0-1.83.47A1.21,1.21,0,0,0,4,9.27a2,2,0,0,0-.05,1.11,2,2,0,0,0,2.18,1.45A5.07,5.07,0,0,0,8.8,10.59s.09-.1.08-.11,0-.16.08-.22c.27-.36.57-.71.82-1.1a1.49,1.49,0,0,0,.24-1c0-.24-.06-.53-.35-.62A2.37,2.37,0,0,0,8,7.55a6.51,6.51,0,0,0-2,1.2l-.2-.21ZM10,15.06h0a4.37,4.37,0,0,1-2.09,1.45s-.11.11-.11.16q0,.72,0,1.44a1.16,1.16,0,0,0,.49,1,3.92,3.92,0,0,1,1.15,1.31.27.27,0,0,0,.22.1,3.17,3.17,0,0,0,1.54-.38c.67-.37.92-1,.37-1.62a3.79,3.79,0,0,0-.86-.74,1.12,1.12,0,0,1-.53-.75c0-.23-.08-.46-.1-.69C10,15.89,10,15.47,10,15.06ZM12.7,9.25c0-.18-.1-.2-.25-.22-.65-.06-1.3-.14-2-.22a2.14,2.14,0,0,1-.55,1s0,.14,0,.2c.17.45.35.9.5,1.36.06.16.12.23.28.2l2.13-.34a2,2,0,0,1-.38-.42A1,1,0,0,1,13,9.37c.06,0,.1-.09.15-.14l-.05-.05ZM10.22,7.51h.28c.06,0,.12,0,.18,0a.4.4,0,0,0,.21-.67c-.11-.13-.23-.25-.34-.39a.26.26,0,0,1-.06-.2.19.19,0,0,1,.25-.16c.14,0,.29,0,.44,0l0-.06c-.19-.17-.37-.35-.57-.5a.93.93,0,0,0-1.32.15,2.45,2.45,0,0,0-.43,1.38A1.93,1.93,0,0,1,10.22,7.51ZM6.9,3.21H7C7,3.13,7,3,6.94,3a1.37,1.37,0,0,0-2.05-.26A1.46,1.46,0,0,0,5,4.91a.69.69,0,0,0,.43-.79,2.74,2.74,0,0,1,0-.7A.7.7,0,0,1,6,2.78.77.77,0,0,1,6.9,3.21Zm3.48,1.31.07,0a1.48,1.48,0,0,0-.66-1.11.62.62,0,0,0-.74,0,9.53,9.53,0,0,0,.9.51c.28.12.39.22.4.52A.8.8,0,0,0,10.38,4.52Zm.17,3.89.5-.41s0-.11,0-.16a.37.37,0,0,0-.15,0c-.13.09-.25.22-.44.07ZM7.18,16.66l.22.82h0v-.85ZM11.3,7.45a.68.68,0,0,0,.21-.7h-.06Zm2.87,1.83,0-.08a.71.71,0,0,0-.72-.08Z"/><path d="M26.69,18.91c-.2.65-.35,1.3-.58,1.92a6.23,6.23,0,0,1-.69,1.23,1.22,1.22,0,0,1-.9.54A1.26,1.26,0,0,1,23,21.47a6,6,0,0,1,0-.95c0-.78,0-1.57,0-2.35,0-.06-.06-.11-.13-.22l-.2.56a2.46,2.46,0,0,1-.67,1,1.15,1.15,0,0,1-.87.3.69.69,0,0,1-.62-.44c-.11-.29-.18-.59-.27-.9l-.15.07a2.35,2.35,0,0,1-1.78.19,1.46,1.46,0,0,1-1.1-1.23.64.64,0,0,0-.28-.44A2.49,2.49,0,0,1,16,15.41a9.56,9.56,0,0,1-.14-1.3c0-.14,0-.21-.16-.27a1.37,1.37,0,0,1-.39-.29.74.74,0,0,1-.07-.92,1.26,1.26,0,0,1,1.23-.58.32.32,0,0,0,.25-.09,3.69,3.69,0,0,1,3.41-1.32,3.09,3.09,0,0,1,2.42,1.47s0,0,0,0c.49-.12.94-.27,1.41-.34a7.19,7.19,0,0,1,3.41.4,4.56,4.56,0,0,1,1.77,1.05.42.42,0,0,0,.3.06,5.28,5.28,0,0,1,1.73,0,2.09,2.09,0,0,1,1.56,1,.29.29,0,0,0,.18.12c.49.14,1,.26,1.46.41a2.57,2.57,0,0,1,1.7,1.88,2.39,2.39,0,0,1,0,1.3,8.63,8.63,0,0,1-.28.86,1.3,1.3,0,0,1-.79.78,2.62,2.62,0,0,1-2-.05A2,2,0,0,1,32,18.29c-.05-.14-.11-.19-.25-.19-.91,0-1.82.11-2.72.11a2,2,0,0,0-1.11.37A2.17,2.17,0,0,1,26.69,18.91Zm-7.64-1.66.08,0,1.47.45a.33.33,0,0,0,.17,0A4,4,0,0,0,22.9,14a3.24,3.24,0,0,0-1.41-2.58,3.5,3.5,0,0,0-5.32,3.43,3.34,3.34,0,0,0,.55,1.64,1.16,1.16,0,0,0,.7.55c.34.07.69.1,1,.15l-.23-.37a1.66,1.66,0,0,1,1,.38Zm13.14.9a2,2,0,0,0,.62,1.05,2.06,2.06,0,0,0,1.64.38,1.18,1.18,0,0,0,1.09-.72,6.12,6.12,0,0,0,.34-1.18,2.33,2.33,0,0,0-1.5-2.51,14.15,14.15,0,0,0-3.08-.69,6.36,6.36,0,0,0-2.3.11A2.1,2.1,0,0,0,27.34,16a1.41,1.41,0,0,0,1.19,1.92,6.59,6.59,0,0,0,1.17-.05c.77,0,1.54,0,2.3,0a1.11,1.11,0,0,1,.78.27l-.16.17Zm-5.64-.74a4.68,4.68,0,0,0-.64-2.68,2,2,0,0,0-1.6-1,2.19,2.19,0,0,0-.68.07.63.63,0,0,0-.47.6c0,.41-.16.81-.23,1.22a2.17,2.17,0,0,0-.05.62,4.7,4.7,0,0,0,.25.78,1.66,1.66,0,0,1,.11.38c0,.94.06,1.89.08,2.83,0,.34-.06.69,0,1a1,1,0,0,0,.68,1,1.06,1.06,0,0,0,1.24-.4,3.94,3.94,0,0,0,.52-.86A10.54,10.54,0,0,0,26.55,17.41Zm1.56.71L27.88,18A1.6,1.6,0,0,1,27,16.84a2.15,2.15,0,0,1,1.09-2.17,6.1,6.1,0,0,1,.84-.33c.13-.05.26-.07.4-.11a1.17,1.17,0,0,0-.4-.81,5.54,5.54,0,0,0-1.08-.73,6.85,6.85,0,0,0-3.76-.64,4,4,0,0,0-1.3.36l.39,1.29a2.85,2.85,0,0,1,.51-.2,2.18,2.18,0,0,1,2,.53,3.42,3.42,0,0,1,.77,1.15A5.68,5.68,0,0,1,26.77,18c0,.2,0,.4-.07.61A2.31,2.31,0,0,0,28.11,18.12ZM20.45,18a12.89,12.89,0,0,0-3-.65,1.31,1.31,0,0,0,.83,1.15,2,2,0,0,0,1.39,0A1.71,1.71,0,0,0,20.45,18Zm9.18-3.75a9.78,9.78,0,0,1,2.8.17c-.4-.77-1.74-1-3-.77Zm-13.71-.58.52-1.29a.93.93,0,0,0-.84.29A.57.57,0,0,0,15.92,13.62Zm6.7,2.68-.68.87,1,.59C23.05,17.21,22.65,16.83,22.62,16.3ZM21,18.56a5.89,5.89,0,0,1,.55-.56,4.91,4.91,0,0,1,.64-.38l-.42-.27-.61.46A.36.36,0,0,0,21,18C21,18.15,21,18.34,21,18.56Zm-.29-.42c-.18.14-.1.88.16,1.17Z"/><path d="M18,9.1V8.83l14.56.69v.27Z"/><path d="M17.49,6.18l-.09-.26L29.06,2l.09.25Z"/><path d="M30.45,6.2l-.2-1.29.38-.06.29,1.9-.46.08c0-.08-.05-.16-.09-.19l-1.27-1L29.31,7l-.39.06-.28-1.9.51-.08c0,.07,0,.15.07.18Z"/><path d="M21.9,7.08l1-.11.12.7a1.87,1.87,0,0,1-1.47.4.93.93,0,0,1-.75-.74,1,1,0,0,1,.43-1,1.62,1.62,0,0,1,1.16-.18l.31,0-.14.43a.87.87,0,0,0-.85-.13.66.66,0,0,0,.17,1.3,2.17,2.17,0,0,0,.55-.12c.19,0,.25-.17.12-.37L22,7.38Z"/><path d="M32.28,5.57l.51-.07.47-.06.11.7a1.8,1.8,0,0,1-1.46.4.91.91,0,0,1-.75-.74.93.93,0,0,1,.42-1,1.6,1.6,0,0,1,1.19-.18l.29,0-.14.42a.94.94,0,0,0-.86-.13.66.66,0,0,0-.48.77.64.64,0,0,0,.66.54,2.71,2.71,0,0,0,.55-.12c.19-.06.24-.18.13-.38l-.59.11Z"/><path d="M23.26,5.91l.43-.07.1.76,1.12-.16-.13-.76.43-.06.28,1.9-.43.07L25,6.75l-1.12.17.13.83-.43.06Z"/><path d="M19.48,6.44l0,.33L18.18,7l.07.47.92-.15,0,.32-.93.13.14.83L18,8.62c-.08-.64-.16-1.28-.3-1.9Z"/><path d="M25.57,5.93l-.05-.33,1.9-.28,0,.33-.75.08L27,7.34l-.43.06-.23-1.6Z"/><path d="M28.13,5.21l.29,1.9L28,7.18l-.28-1.91Z"/><path d="M20.54,8.26l-.43.06-.28-1.9.43-.07Z"/><path d="M33.71,4.37l.48-.07V5.55l-.16,0Z"/><path d="M34.24,5.79c.06.09.17.18.16.26a.32.32,0,0,1-.22.22A.19.19,0,0,1,34,6c0-.1.12-.17.18-.26Z"/><path d="M5.15,15.38a.54.54,0,0,1-.39.52.47.47,0,0,1-.49-.35,1,1,0,0,1,0-.43.36.36,0,0,1,.33-.34A.61.61,0,0,1,5,15,1.09,1.09,0,0,1,5.15,15.38Z"/><path d="M8.54,5.61a.4.4,0,1,1-.79,0,.39.39,0,0,1,.4-.4A.38.38,0,0,1,8.54,5.61Z"/><path d="M4.86,9.93c0,.28-.16.51-.35.5s-.31-.23-.3-.51.16-.46.34-.46S4.86,9.65,4.86,9.93Z"/><path d="M20.5,15a2.16,2.16,0,0,1-1.67.38c-.46-.1-.91-.24-1.36-.36,0,0-.06,0-.09,0-.6.06-.92-.69-.83-1.16s.36-.59.87-.67A2.66,2.66,0,0,1,20,14.31C20.2,14.52,20.33,14.76,20.5,15Zm-.38-.1c-.11-.16-.2-.31-.31-.45a2.35,2.35,0,0,0-2.63-.93.52.52,0,0,0-.37.6,1.36,1.36,0,0,0,.18.43.35.35,0,0,0,.47.15,1.06,1.06,0,0,1,.82,0c.21.1.4.23.61.35.06,0,.13.09.2.09A2.26,2.26,0,0,0,20.12,14.91Z"/><path d="M28.86,17a.43.43,0,1,1,0-.86.43.43,0,1,1,0,.86Z"/><path d="M24.87,15.73a.54.54,0,0,1-.46.59.55.55,0,0,1-.45-.6c0-.31.21-.57.45-.57S24.87,15.4,24.87,15.73Z"/><path d="M4.65,8.55c-.16-.24-.33-.45-.47-.68a2.79,2.79,0,0,1,.17-3.45.31.31,0,0,0,0-.19A1.64,1.64,0,0,1,7.2,2.81.53.53,0,0,0,7.56,3c.44.09.88.22,1.33.32a.31.31,0,0,0,.19,0,1,1,0,0,1,1.23.16,1.7,1.7,0,0,1,.56.91.86.86,0,0,1,0,.45.66.66,0,0,0,.25.85,2.89,2.89,0,0,1,.4.38,1.38,1.38,0,0,1,.17,2,4.4,4.4,0,0,1-.63.75L12.77,9l-.08-.85,1.24-.25.72-.15A2.09,2.09,0,0,0,15.77,7,5.38,5.38,0,0,0,16.41,6a.64.64,0,0,1,.64-.38l.84,4.15-.61.18a1.51,1.51,0,0,0-1-.88,3.22,3.22,0,0,0-1.76.05,1.32,1.32,0,0,1-.24,2,4.91,4.91,0,0,1-1.73.65c-.59.12-1.19.21-1.8.32,0,.13,0,.3.05.47a3.52,3.52,0,0,1-.3,2,.3.3,0,0,0,0,.16c0,.73,0,1.47.09,2.21a.91.91,0,0,0,.47.73,3.92,3.92,0,0,1,.91.81,1.26,1.26,0,0,1-.55,2,6,6,0,0,1-.82.27c-.28.06-.56.09-.85.14a1.81,1.81,0,0,1,0,.4,1.38,1.38,0,0,1-1,1,7.34,7.34,0,0,1-2.67.4,3,3,0,0,1-.72-.13,1.24,1.24,0,0,1-.92-1c-.33-1.82-.69-3.64-1-5.46a3.21,3.21,0,0,1,.15-1.89.31.31,0,0,0,0-.16,3.4,3.4,0,0,1,.05-2.16c.08-.31.21-.61.31-.92a.55.55,0,0,0,0-.28,2.67,2.67,0,0,1,0-1.16A1.37,1.37,0,0,1,4.65,8.55Zm1.54,14c.41-.05.73-.05,1-.12A9,9,0,0,0,8.84,22c.66-.29.77-.8.4-1.43a4.55,4.55,0,0,0-1-1.09,1.35,1.35,0,0,1-.4-.46,9.88,9.88,0,0,1-.52-1.37c-.19-.65-.29-1.33-.49-2A2.5,2.5,0,0,0,5,13.79a1,1,0,0,0-1.29.69,3.06,3.06,0,0,0-.13.6,5.14,5.14,0,0,0,.15,1.7c.29,1.59.61,3.19.91,4.79a.91.91,0,0,0,.63.75C5.59,22.43,5.94,22.47,6.19,22.53ZM9.88,10.36c-.34.3-.64.59-1,.85a5,5,0,0,1-2,1,2.56,2.56,0,0,1-2.8-1,4.39,4.39,0,0,0-.35,2.66,1.2,1.2,0,0,1,1.16-.4,2.68,2.68,0,0,1,1.9,1.36,4.48,4.48,0,0,1,.51,1.56c0,.15.08.18.22.15A4.06,4.06,0,0,0,9,15.92a3.36,3.36,0,0,0,1.52-2.39A6,6,0,0,0,9.88,10.36Zm.68-5A3.6,3.6,0,0,0,7.49,3.27c-.15.46-.38.58-.7.36-.27.18-.54.36-.81.56-.05,0-.11.12-.1.16a.87.87,0,0,1-.39.88c-.28.24-.46.22-.67-.1-.1-.15-.2-.31-.3-.49A2.38,2.38,0,0,0,4,5.94a3.19,3.19,0,0,0,.91,2.4.21.21,0,0,0,.19,0,4.89,4.89,0,0,1,1.52-.16.55.55,0,0,0,.26-.05,5.21,5.21,0,0,1,2-.84.68.68,0,0,1,0-.21,7,7,0,0,1,.29-1,1.15,1.15,0,0,1,1.24-.73ZM6.39,8.48a2.89,2.89,0,0,0-1.83.46,1.22,1.22,0,0,0-.37.53,2,2,0,0,0-.05,1.11A2,2,0,0,0,6.32,12,5,5,0,0,0,9,10.78s.09-.09.08-.1,0-.16.08-.22c.27-.37.57-.72.82-1.1a1.49,1.49,0,0,0,.24-1c0-.24-.06-.53-.35-.62a2.37,2.37,0,0,0-1.64,0,6.51,6.51,0,0,0-2,1.2l-.2-.21Zm3.77,6.78h0A4.26,4.26,0,0,1,8,16.7a.22.22,0,0,0-.1.17q0,.72,0,1.44a1.16,1.16,0,0,0,.49,1,3.92,3.92,0,0,1,1.15,1.31.27.27,0,0,0,.21.1,3.29,3.29,0,0,0,1.55-.38c.67-.37.92-1,.37-1.62a3.79,3.79,0,0,0-.86-.74,1.12,1.12,0,0,1-.53-.75c0-.23-.08-.46-.1-.69C10.19,16.09,10.18,15.67,10.16,15.26ZM12.9,9.45c0-.18-.1-.2-.25-.22-.65-.06-1.3-.14-2-.22a2.11,2.11,0,0,1-.55,1s0,.14,0,.21c.17.45.35.9.5,1.36,0,.16.12.23.28.2L13,11.47a2.2,2.2,0,0,1-.37-.41,1,1,0,0,1,.52-1.49c.06,0,.1-.1.14-.14l0,0ZM10.41,7.71h.29c.06,0,.12,0,.18,0a.41.41,0,0,0,.21-.68c-.11-.12-.23-.24-.34-.38a.35.35,0,0,1-.07-.21.22.22,0,0,1,.26-.16,3.13,3.13,0,0,0,.44,0l0-.06c-.19-.17-.37-.35-.57-.5A.93.93,0,0,0,9.51,6a2.45,2.45,0,0,0-.43,1.38A1.89,1.89,0,0,1,10.41,7.71ZM7.1,3.41h.06a.57.57,0,0,0,0-.23,1.37,1.37,0,0,0-2-.26A1.46,1.46,0,0,0,5.16,5.1a.66.66,0,0,0,.43-.78,3.28,3.28,0,0,1,0-.7A.7.7,0,0,1,6.15,3,.77.77,0,0,1,7.1,3.41Zm3.48,1.3.07,0A1.48,1.48,0,0,0,10,3.58a.64.64,0,0,0-.75,0c.34.19.61.38.91.51s.38.22.39.52C10.55,4.62,10.57,4.67,10.58,4.71Zm.17,3.9c.19-.16.35-.28.49-.41s0-.11,0-.16a.37.37,0,0,0-.14,0c-.13.09-.25.22-.44.07ZM7.38,16.85l.22.83h.05v-.85Zm4.12-9.2a.68.68,0,0,0,.21-.7l-.06,0Zm2.87,1.83,0-.08a.71.71,0,0,0-.72-.08Z"/><path d="M26.88,19.1c-.19.66-.34,1.31-.57,1.92a6.17,6.17,0,0,1-.69,1.23,1.23,1.23,0,0,1-.9.55,1.26,1.26,0,0,1-1.48-1.14,5.91,5.91,0,0,1,0-.94c0-.79,0-1.57,0-2.35,0-.06-.06-.12-.13-.22-.08.23-.14.39-.2.55a2.43,2.43,0,0,1-.67,1,1.15,1.15,0,0,1-.87.3.69.69,0,0,1-.62-.44c-.11-.29-.18-.59-.27-.91l-.15.08a2.35,2.35,0,0,1-1.78.19,1.49,1.49,0,0,1-1.11-1.24.6.6,0,0,0-.27-.43,2.5,2.5,0,0,1-.95-1.67,11,11,0,0,1-.13-1.3.27.27,0,0,0-.16-.27,1.08,1.08,0,0,1-.39-.28.74.74,0,0,1-.07-.92,1.24,1.24,0,0,1,1.23-.58.32.32,0,0,0,.25-.09,3.65,3.65,0,0,1,3.41-1.32,3.09,3.09,0,0,1,2.42,1.47l0,0c.49-.12.94-.27,1.41-.34a7.08,7.08,0,0,1,3.41.4,4.44,4.44,0,0,1,1.77,1c.05.06.2.07.3.06a5.29,5.29,0,0,1,1.73,0,2.09,2.09,0,0,1,1.56,1,.25.25,0,0,0,.18.11c.49.15,1,.26,1.46.42A2.57,2.57,0,0,1,36.31,17a2.46,2.46,0,0,1,0,1.29,8.81,8.81,0,0,1-.28.87,1.3,1.3,0,0,1-.79.78,2.57,2.57,0,0,1-2-.06,1.94,1.94,0,0,1-1.08-1.36c0-.15-.1-.19-.24-.19-.91,0-1.82.11-2.73.11a2,2,0,0,0-1.1.37A2.09,2.09,0,0,1,26.88,19.1Zm-7.63-1.65s.06,0,.08,0l1.47.45a.26.26,0,0,0,.17,0,4,4,0,0,0,2.12-3.74,3.2,3.2,0,0,0-1.4-2.58A3.5,3.5,0,0,0,16.37,15a3.34,3.34,0,0,0,.55,1.65,1.2,1.2,0,0,0,.7.55c.34.07.69.1,1,.15L18.43,17a1.69,1.69,0,0,1,1,.38Zm13.14.9a2,2,0,0,0,.62,1,2.14,2.14,0,0,0,1.64.38,1.19,1.19,0,0,0,1.09-.73,5.82,5.82,0,0,0,.34-1.17,2.33,2.33,0,0,0-1.5-2.51,13.58,13.58,0,0,0-3.09-.7,6.55,6.55,0,0,0-2.29.12,2.08,2.08,0,0,0-1.66,1.42,1.41,1.41,0,0,0,1.18,1.92,6.7,6.7,0,0,0,1.18-.05c.77,0,1.54,0,2.3,0a1.15,1.15,0,0,1,.78.26l-.16.18Zm-5.64-.75a4.83,4.83,0,0,0-.64-2.67,2,2,0,0,0-1.6-1,2.19,2.19,0,0,0-.68.07.62.62,0,0,0-.47.6c0,.41-.16.81-.23,1.22a1.6,1.6,0,0,0-.05.61,4.42,4.42,0,0,0,.25.78,1.4,1.4,0,0,1,.1.39c0,.94.07,1.88.09,2.83,0,.34-.06.69,0,1a1.05,1.05,0,0,0,.67,1,1.09,1.09,0,0,0,1.25-.4,3.94,3.94,0,0,0,.52-.86A10.59,10.59,0,0,0,26.75,17.6Zm1.55.72-.22-.13A1.6,1.6,0,0,1,27.2,17a2.19,2.19,0,0,1,1.09-2.18,7.83,7.83,0,0,1,.85-.32c.13,0,.26-.07.4-.11a1.21,1.21,0,0,0-.4-.81,5.13,5.13,0,0,0-1.08-.73,6.87,6.87,0,0,0-3.76-.64,4,4,0,0,0-1.3.36l.39,1.29a2.25,2.25,0,0,1,.51-.2,2.18,2.18,0,0,1,2,.53,3.42,3.42,0,0,1,.77,1.15A5.68,5.68,0,0,1,27,18.21c0,.2,0,.4-.07.61A2.28,2.28,0,0,0,28.3,18.32Zm-7.66-.17a12.71,12.71,0,0,0-3-.66,1.32,1.32,0,0,0,.83,1.16,2.07,2.07,0,0,0,1.39,0A1.72,1.72,0,0,0,20.64,18.15Zm9.19-3.75a9.78,9.78,0,0,1,2.8.17c-.4-.77-1.74-1-3-.77Zm-13.71-.59.52-1.28a1,1,0,0,0-.85.29A.57.57,0,0,0,16.12,13.81Zm6.7,2.69-.68.87,1,.59C23.25,17.41,22.85,17,22.82,16.5Zm-1.65,2.26a5,5,0,0,1,.55-.57c.19-.14.41-.24.63-.37l-.41-.27-.61.46a.31.31,0,0,0-.1.15C21.2,18.35,21.19,18.54,21.17,18.76Zm-.29-.43c-.18.15-.11.89.16,1.18Z"/><path d="M18.19,9.29V9l14.56.69,0,.27Z"/><path d="M17.69,6.38l-.09-.26,11.66-4,.09.25Z"/><path d="M30.65,6.39l-.2-1.28.38-.06L31.11,7,30.65,7c0-.07,0-.15-.08-.18l-1.27-1,.21,1.32-.39.06-.28-1.91.51-.08c0,.08,0,.16.07.19C29.81,5.76,30.21,6.06,30.65,6.39Z"/><path d="M22.1,7.28l1-.11.11.7a1.83,1.83,0,0,1-1.46.4A1,1,0,0,1,21.4,6.5a1.65,1.65,0,0,1,1.17-.18l.31,0-.14.43a.89.89,0,0,0-.86-.13A.66.66,0,0,0,22.06,8a2.71,2.71,0,0,0,.55-.12c.19,0,.25-.17.12-.37l-.58.11Z"/><path d="M32.48,5.77,33,5.7l.47-.06.11.7a1.83,1.83,0,0,1-1.46.4A1,1,0,0,1,31.78,5,1.6,1.6,0,0,1,33,4.8a2.36,2.36,0,0,0,.29,0l-.14.43a1,1,0,0,0-.86-.13.65.65,0,0,0-.48.76.63.63,0,0,0,.66.55A2.71,2.71,0,0,0,33,6.32c.19-.06.24-.18.12-.38l-.58.11Z"/><path d="M23.46,6.1,23.89,6l.1.76,1.12-.16L25,5.88l.43-.06.28,1.9-.43.07L25.16,7,24,7.12l.13.83L23.74,8Z"/><path d="M19.67,6.64l0,.33-1.34.18.07.47.92-.15.05.32-.93.13.13.83-.43.07c-.08-.65-.16-1.28-.3-1.9Z"/><path d="M25.77,6.12l-.05-.32,1.9-.28.05.33-.75.08.25,1.61-.43.06L26.51,6Z"/><path d="M28.33,5.41l.28,1.9-.42.07-.28-1.91Z"/><path d="M20.74,8.46l-.43.06L20,6.62l.42-.07Z"/><path d="M33.91,4.57l.48-.07V5.75l-.17,0Z"/><path d="M34.44,6c.06.09.17.18.16.26a.32.32,0,0,1-.22.22.19.19,0,0,1-.22-.24c0-.09.12-.16.18-.25Z"/><path d="M5.35,15.58A.55.55,0,0,1,5,16.1a.47.47,0,0,1-.49-.35.89.89,0,0,1,0-.43A.36.36,0,0,1,4.76,15a.61.61,0,0,1,.41.19A1.28,1.28,0,0,1,5.35,15.58Z"/><path d="M8.74,5.81a.42.42,0,0,1-.4.41A.41.41,0,0,1,8,5.82a.4.4,0,0,1,.79,0Z"/><path d="M5.06,10.13c0,.28-.16.51-.35.5s-.31-.23-.3-.51.15-.46.34-.46S5.06,9.85,5.06,10.13Z"/><path d="M20.7,15.21a2.2,2.2,0,0,1-1.67.38c-.46-.1-.91-.24-1.37-.36l-.08,0c-.6.07-.92-.68-.83-1.15s.36-.59.87-.67a2.64,2.64,0,0,1,2.62,1.12C20.4,14.72,20.53,15,20.7,15.21Zm-.38-.1c-.11-.16-.2-.31-.31-.46a2.36,2.36,0,0,0-2.63-.92.51.51,0,0,0-.37.6,1.36,1.36,0,0,0,.18.43.36.36,0,0,0,.47.15,1,1,0,0,1,.82,0c.21.1.4.23.6.34s.14.1.21.09A2.13,2.13,0,0,0,20.32,15.11Z"/><path d="M29.06,17.2a.47.47,0,0,1-.5-.41.5.5,0,1,1,.5.41Z"/><path d="M25.07,15.93c0,.32-.21.59-.46.58a.61.61,0,0,1,0-1.17C24.86,15.34,25.06,15.6,25.07,15.93Z"/></g><g class="cls-3"><path d="M4.31,8.21C4.15,8,4,7.76,3.84,7.53A2.79,2.79,0,0,1,4,4.08a.31.31,0,0,0,0-.19A1.64,1.64,0,0,1,6.86,2.47a.53.53,0,0,0,.36.17c.44.09.88.22,1.33.32a.31.31,0,0,0,.19,0A1,1,0,0,1,10,3.13a1.7,1.7,0,0,1,.56.91.86.86,0,0,1,0,.45.65.65,0,0,0,.25.85,2.4,2.4,0,0,1,.4.38,1.38,1.38,0,0,1,.17,2,4.4,4.4,0,0,1-.63.75l1.71.21-.08-.85,1.24-.25.72-.15a2.09,2.09,0,0,0,1.12-.79,5.38,5.38,0,0,0,.64-.94.64.64,0,0,1,.64-.38l.84,4.15-.61.18a1.55,1.55,0,0,0-1-.89,3.33,3.33,0,0,0-1.76.06,1.32,1.32,0,0,1-.24,2,4.91,4.91,0,0,1-1.73.65c-.59.12-1.19.21-1.8.32,0,.13,0,.3.05.47a3.52,3.52,0,0,1-.3,2,.3.3,0,0,0,0,.16c0,.73,0,1.47.09,2.21a.91.91,0,0,0,.47.73,4.13,4.13,0,0,1,.91.81,1.26,1.26,0,0,1-.55,2,6,6,0,0,1-.82.27c-.28.06-.56.09-.85.14a1.81,1.81,0,0,1,0,.4,1.38,1.38,0,0,1-1,1,7.34,7.34,0,0,1-2.67.4,3,3,0,0,1-.72-.13,1.24,1.24,0,0,1-.92-1c-.33-1.82-.69-3.64-1-5.46a3.21,3.21,0,0,1,.15-1.89.31.31,0,0,0,0-.16,3.4,3.4,0,0,1,.05-2.16c.08-.31.21-.61.31-.92a.55.55,0,0,0,0-.28,2.67,2.67,0,0,1,0-1.16A1.37,1.37,0,0,1,4.31,8.21Zm1.54,14c.41-.05.73-.05,1-.12a9,9,0,0,0,1.62-.45c.66-.29.77-.8.4-1.43a4.55,4.55,0,0,0-1-1.09,1.35,1.35,0,0,1-.4-.46A9.54,9.54,0,0,1,7,17.26c-.19-.64-.29-1.32-.49-2a2.5,2.5,0,0,0-1.83-1.85,1,1,0,0,0-1.29.69,3.06,3.06,0,0,0-.13.6,5.08,5.08,0,0,0,.15,1.69c.29,1.6.61,3.2.91,4.8a.91.91,0,0,0,.63.75C5.25,22.09,5.6,22.13,5.85,22.19ZM9.54,10c-.34.29-.64.59-1,.85a5,5,0,0,1-2,1,2.56,2.56,0,0,1-2.8-1,4.39,4.39,0,0,0-.35,2.66,1.2,1.2,0,0,1,1.16-.4,2.68,2.68,0,0,1,1.9,1.36A4.48,4.48,0,0,1,7,16.07c0,.15.08.18.22.15a4.06,4.06,0,0,0,1.53-.64,3.36,3.36,0,0,0,1.52-2.39A6,6,0,0,0,9.54,10Zm.68-5A3.6,3.6,0,0,0,7.15,2.93c-.15.46-.38.58-.7.36-.27.18-.54.36-.81.56,0,0-.11.12-.1.16a.87.87,0,0,1-.39.88c-.28.24-.46.22-.67-.1-.1-.15-.2-.31-.3-.49a2.38,2.38,0,0,0-.57,1.3A3.19,3.19,0,0,0,4.52,8a.21.21,0,0,0,.19,0,4.89,4.89,0,0,1,1.52-.16.55.55,0,0,0,.26,0,5.21,5.21,0,0,1,2-.84.68.68,0,0,1,0-.21,7,7,0,0,1,.29-1A1.15,1.15,0,0,1,10,5ZM6.05,8.14a2.89,2.89,0,0,0-1.83.46,1.22,1.22,0,0,0-.37.53,2,2,0,0,0-.05,1.11A2,2,0,0,0,6,11.69a5,5,0,0,0,2.68-1.25s.09-.09.08-.1,0-.16.08-.22c.27-.37.57-.72.82-1.1a1.49,1.49,0,0,0,.24-1c0-.24-.06-.53-.35-.62a2.37,2.37,0,0,0-1.64,0,6.51,6.51,0,0,0-2,1.2l-.2-.21Zm3.77,6.78h0a4.26,4.26,0,0,1-2.1,1.44.22.22,0,0,0-.1.17q0,.72,0,1.44a1.16,1.16,0,0,0,.49,1,3.92,3.92,0,0,1,1.15,1.31.27.27,0,0,0,.21.1A3.29,3.29,0,0,0,11,20c.67-.37.92-1,.37-1.62a4,4,0,0,0-.86-.74,1.12,1.12,0,0,1-.53-.75c0-.23-.08-.46-.1-.69C9.85,15.75,9.84,15.33,9.82,14.92Zm2.74-5.81c0-.18-.1-.2-.25-.22-.65-.06-1.3-.14-2-.22a2.11,2.11,0,0,1-.55,1s0,.14,0,.21c.17.45.35.9.5,1.36.05.16.12.23.28.2l2.12-.35a2.2,2.2,0,0,1-.37-.41,1,1,0,0,1,.52-1.49c.06,0,.1-.1.14-.14l0-.05ZM10.07,7.37h.29c.06,0,.12,0,.18,0a.41.41,0,0,0,.21-.68l-.34-.38a.35.35,0,0,1-.07-.21A.22.22,0,0,1,10.6,6,3.13,3.13,0,0,0,11,6l0-.06c-.19-.17-.37-.35-.57-.5a.93.93,0,0,0-1.32.15A2.45,2.45,0,0,0,8.74,7,1.89,1.89,0,0,1,10.07,7.37ZM6.76,3.07h.06a.57.57,0,0,0,0-.23,1.37,1.37,0,0,0-2-.26,1.46,1.46,0,0,0,.07,2.19A.66.66,0,0,0,5.25,4a3.28,3.28,0,0,1,0-.7.7.7,0,0,1,.58-.64A.77.77,0,0,1,6.76,3.07Zm3.48,1.3.07,0a1.48,1.48,0,0,0-.66-1.11.64.64,0,0,0-.75,0,9.62,9.62,0,0,0,.91.51.5.5,0,0,1,.39.52S10.23,4.33,10.24,4.37Zm.17,3.9c.19-.16.35-.28.49-.42s0-.1,0-.15a.37.37,0,0,0-.14,0c-.13.09-.25.22-.44.07ZM7,16.51l.22.83h0v-.85Zm4.12-9.2a.68.68,0,0,0,.21-.7l-.06,0ZM14,9.14V9.06A.69.69,0,0,0,13.33,9Z"/><path d="M26.54,18.76c-.19.66-.34,1.31-.58,1.92a5.67,5.67,0,0,1-.68,1.23,1.23,1.23,0,0,1-.9.55,1.26,1.26,0,0,1-1.48-1.14,5.91,5.91,0,0,1,0-.94c0-.79,0-1.57,0-2.35,0-.06-.06-.12-.13-.22-.08.23-.14.39-.2.55a2.43,2.43,0,0,1-.67,1,1.15,1.15,0,0,1-.87.3.69.69,0,0,1-.62-.44c-.11-.29-.18-.59-.27-.91l-.15.08a2.35,2.35,0,0,1-1.78.19,1.49,1.49,0,0,1-1.11-1.24.6.6,0,0,0-.27-.43,2.5,2.5,0,0,1-.95-1.67,11,11,0,0,1-.13-1.3.27.27,0,0,0-.16-.27,1.08,1.08,0,0,1-.39-.28.74.74,0,0,1-.07-.92,1.24,1.24,0,0,1,1.23-.58.32.32,0,0,0,.25-.09A3.65,3.65,0,0,1,20,10.5,3.09,3.09,0,0,1,22.42,12l0,0c.49-.12.94-.27,1.41-.34a7.08,7.08,0,0,1,3.41.4,4.44,4.44,0,0,1,1.77,1c.05.06.2.07.3.06a5,5,0,0,1,1.73,0,2.09,2.09,0,0,1,1.56,1,.25.25,0,0,0,.18.11c.49.15,1,.26,1.46.42A2.57,2.57,0,0,1,36,16.63a2.46,2.46,0,0,1,0,1.29,8.81,8.81,0,0,1-.28.87,1.3,1.3,0,0,1-.79.78,2.57,2.57,0,0,1-2-.06,1.94,1.94,0,0,1-1.08-1.36c0-.15-.1-.2-.24-.19-.91,0-1.82.11-2.73.11a1.94,1.94,0,0,0-1.1.37A2.09,2.09,0,0,1,26.54,18.76Zm-7.63-1.65.08,0,1.47.45a.26.26,0,0,0,.17,0,4,4,0,0,0,2.12-3.74,3.2,3.2,0,0,0-1.4-2.58A3.5,3.5,0,0,0,16,14.67a3.34,3.34,0,0,0,.55,1.65,1.2,1.2,0,0,0,.7.55c.34.07.69.1,1,.15l-.23-.37a1.69,1.69,0,0,1,1,.38Zm13.14.9a2,2,0,0,0,.62,1,2.14,2.14,0,0,0,1.64.38,1.19,1.19,0,0,0,1.09-.73,6.56,6.56,0,0,0,.34-1.17A2.33,2.33,0,0,0,34.24,15a13.58,13.58,0,0,0-3.09-.7,6.55,6.55,0,0,0-2.29.12,2.08,2.08,0,0,0-1.66,1.42,1.41,1.41,0,0,0,1.18,1.92,6.7,6.7,0,0,0,1.18-.05c.77,0,1.54,0,2.3,0a1.15,1.15,0,0,1,.78.26l-.16.18Zm-5.64-.75a4.83,4.83,0,0,0-.64-2.67,2,2,0,0,0-1.6-1,2.19,2.19,0,0,0-.68.07.62.62,0,0,0-.47.6c0,.41-.16.81-.23,1.22a1.6,1.6,0,0,0-.05.61,4.42,4.42,0,0,0,.25.78,1.4,1.4,0,0,1,.1.39c0,.94.07,1.88.09,2.83,0,.34-.06.69,0,1a1.05,1.05,0,0,0,.67,1,1.09,1.09,0,0,0,1.25-.4,3.94,3.94,0,0,0,.52-.86A10.59,10.59,0,0,0,26.41,17.26ZM28,18l-.22-.13a1.6,1.6,0,0,1-.88-1.15A2.19,2.19,0,0,1,28,14.52a7.83,7.83,0,0,1,.85-.32c.13,0,.26-.07.4-.11a1.21,1.21,0,0,0-.4-.81,5.13,5.13,0,0,0-1.08-.73A6.87,6.87,0,0,0,24,11.91a4,4,0,0,0-1.3.36l.39,1.29a2.25,2.25,0,0,1,.51-.2,2.15,2.15,0,0,1,2,.53A3.42,3.42,0,0,1,26.31,15a5.68,5.68,0,0,1,.32,2.83c0,.2,0,.4-.07.61A2.28,2.28,0,0,0,28,18Zm-7.66-.17a12.71,12.71,0,0,0-3-.66,1.32,1.32,0,0,0,.83,1.16,2.07,2.07,0,0,0,1.39,0A1.72,1.72,0,0,0,20.3,17.81Zm9.19-3.75a10.15,10.15,0,0,1,2.8.16c-.4-.76-1.74-1-3-.76Zm-13.71-.59.52-1.28a1,1,0,0,0-.85.29A.57.57,0,0,0,15.78,13.47Zm6.7,2.69L21.8,17l1,.59C22.91,17.06,22.51,16.69,22.48,16.16Zm-1.65,2.26a5,5,0,0,1,.55-.57c.19-.14.41-.24.63-.37l-.41-.27-.61.46a.31.31,0,0,0-.1.15C20.86,18,20.85,18.2,20.83,18.42ZM20.54,18c-.18.15-.11.89.16,1.18Z"/><path d="M17.85,9V8.69l14.56.69,0,.27Z"/><path d="M17.35,6l-.09-.26,11.66-4,.09.25Z"/><path d="M30.31,6.05l-.2-1.28.38-.06.28,1.9-.46.07c0-.07,0-.15-.08-.18L29,5.53l.21,1.32-.39.06L28.5,5,29,4.92c0,.08,0,.16.07.19C29.47,5.42,29.87,5.72,30.31,6.05Z"/><path d="M21.76,6.94l1-.11.11.7a1.83,1.83,0,0,1-1.46.4,1,1,0,0,1-.33-1.77A1.65,1.65,0,0,1,22.23,6l.31,0-.14.43a.89.89,0,0,0-.86-.13.66.66,0,0,0,.18,1.3,2.71,2.71,0,0,0,.55-.12c.19,0,.25-.17.12-.37l-.58.1Z"/><path d="M32.14,5.43l.51-.07.47-.06.11.7a1.83,1.83,0,0,1-1.46.4A.93.93,0,0,1,31,5.66a.92.92,0,0,1,.42-1,1.6,1.6,0,0,1,1.19-.18,2.36,2.36,0,0,0,.29,0l-.14.43a1,1,0,0,0-.86-.13.65.65,0,0,0-.48.76.63.63,0,0,0,.66.55A2.71,2.71,0,0,0,32.65,6c.19-.06.24-.18.12-.38l-.58.11Z"/><path d="M23.12,5.76l.43-.06.1.76,1.12-.16-.13-.76.43-.06.28,1.9-.43.07-.1-.84-1.12.17.13.83-.43.06Z"/><path d="M19.33,6.3l.05.33L18,6.81l.07.47L19,7.13l0,.32-.93.13.13.83-.43.07c-.08-.65-.16-1.28-.3-1.9Z"/><path d="M25.43,5.78l-.05-.32,1.89-.28.06.33-.75.08.25,1.61-.43.06-.23-1.6Z"/><path d="M28,5.07,28.27,7,27.85,7l-.28-1.91Z"/><path d="M20.4,8.12,20,8.18l-.28-1.9.42-.07Z"/><path d="M33.57,4.23l.48-.07V5.41l-.17,0Z"/><path d="M34.1,5.65c.06.09.17.18.16.26a.32.32,0,0,1-.22.22.19.19,0,0,1-.22-.24c0-.09.12-.16.18-.25Z"/><path d="M5,15.24a.55.55,0,0,1-.39.52.47.47,0,0,1-.49-.35.9.9,0,0,1,0-.43.36.36,0,0,1,.33-.34.61.61,0,0,1,.41.19A1.28,1.28,0,0,1,5,15.24Z"/><path d="M8.4,5.47a.4.4,0,1,1-.79,0,.4.4,0,0,1,.79,0Z"/><path d="M4.72,9.79c0,.28-.16.51-.35.5s-.31-.23-.3-.51.15-.46.34-.46S4.72,9.51,4.72,9.79Z"/><path d="M20.36,14.87a2.2,2.2,0,0,1-1.67.38c-.46-.1-.91-.24-1.37-.36l-.08,0c-.6.07-.92-.68-.83-1.15s.36-.59.87-.67a2.64,2.64,0,0,1,2.62,1.12C20.06,14.38,20.19,14.61,20.36,14.87Zm-.38-.1c-.11-.16-.2-.31-.31-.46A2.36,2.36,0,0,0,17,13.39a.51.51,0,0,0-.37.6,1.22,1.22,0,0,0,.18.42.35.35,0,0,0,.47.16,1,1,0,0,1,.82,0c.21.1.4.23.6.34s.14.1.21.09A2.13,2.13,0,0,0,20,14.77Z"/><path d="M28.72,16.86a.47.47,0,0,1-.5-.41.5.5,0,1,1,.5.41Z"/><path d="M24.73,15.59c0,.32-.21.59-.46.58a.61.61,0,0,1,0-1.17C24.52,15,24.72,15.26,24.73,15.59Z"/></g><path class="cls-4" d="M4.51,8.4C4.35,8.17,4.18,8,4,7.73A2.79,2.79,0,0,1,4.2,4.28a.26.26,0,0,0,0-.19,1.63,1.63,0,0,1,2.8-1.42.63.63,0,0,0,.37.17c.44.09.88.21,1.32.32a.46.46,0,0,0,.2,0,1,1,0,0,1,1.22.16,1.67,1.67,0,0,1,.57.9.9.9,0,0,1,0,.46.65.65,0,0,0,.25.85,2.4,2.4,0,0,1,.4.38,1.38,1.38,0,0,1,.17,2,5.56,5.56,0,0,1-.63.75l1.71.2L12.55,8l1.23-.25c.25,0,.49-.09.73-.15a2.09,2.09,0,0,0,1.12-.79,5.78,5.78,0,0,0,.64-.94.64.64,0,0,1,.64-.38l.83,4.15-.61.18a1.51,1.51,0,0,0-1-.89A3.26,3.26,0,0,0,14.39,9a1.31,1.31,0,0,1-.23,2,5,5,0,0,1-1.73.65c-.59.12-1.19.21-1.8.32,0,.13,0,.3,0,.47a3.48,3.48,0,0,1-.3,2,.33.33,0,0,0-.05.16c0,.74,0,1.48.09,2.22a.91.91,0,0,0,.47.73,4.32,4.32,0,0,1,.91.8,1.27,1.27,0,0,1-.55,2.05,5.18,5.18,0,0,1-.82.26c-.28.07-.56.1-.85.15a1.81,1.81,0,0,1,0,.4,1.38,1.38,0,0,1-1,1,7.26,7.26,0,0,1-2.66.4,3.51,3.51,0,0,1-.72-.13,1.24,1.24,0,0,1-.92-1c-.33-1.83-.69-3.64-1-5.46a3.34,3.34,0,0,1,.16-1.9.2.2,0,0,0,0-.15,3.54,3.54,0,0,1,.05-2.16c.09-.32.22-.61.32-.92a.48.48,0,0,0,0-.29,2.62,2.62,0,0,1,0-1.15A1.4,1.4,0,0,1,4.51,8.4Zm1.54,14c.41-.05.73-.05,1-.12a9.58,9.58,0,0,0,1.61-.45.88.88,0,0,0,.41-1.43,4.4,4.4,0,0,0-1-1.09,1.43,1.43,0,0,1-.39-.46,11.54,11.54,0,0,1-.53-1.38c-.18-.64-.28-1.32-.48-2a2.5,2.5,0,0,0-1.83-1.85,1,1,0,0,0-1.29.69,2.38,2.38,0,0,0-.13.6,5.35,5.35,0,0,0,.14,1.69c.3,1.6.62,3.2.92,4.8a.91.91,0,0,0,.63.75C5.45,22.29,5.8,22.33,6.05,22.39ZM9.74,10.22c-.34.29-.64.59-1,.85a5.13,5.13,0,0,1-2,1,2.56,2.56,0,0,1-2.8-1,4.39,4.39,0,0,0-.35,2.66,1.2,1.2,0,0,1,1.16-.4,2.68,2.68,0,0,1,1.9,1.36,4.49,4.49,0,0,1,.51,1.55c0,.16.08.19.22.16a4.06,4.06,0,0,0,1.53-.64,3.32,3.32,0,0,0,1.51-2.39A5.93,5.93,0,0,0,9.74,10.22Zm.68-5A3.6,3.6,0,0,0,7.35,3.13c-.16.45-.38.58-.7.36-.27.18-.54.36-.81.56,0,0-.12.11-.1.16a.86.86,0,0,1-.39.87c-.28.25-.46.22-.67-.09a4.55,4.55,0,0,1-.3-.49,2.38,2.38,0,0,0-.57,1.3,3.19,3.19,0,0,0,.91,2.4.19.19,0,0,0,.18,0,4.67,4.67,0,0,1,1.53-.16A.55.55,0,0,0,6.69,8a5.23,5.23,0,0,1,2-.84c0-.08,0-.15,0-.22a8.36,8.36,0,0,1,.3-1,1.15,1.15,0,0,1,1.24-.73ZM6.25,8.34a2.93,2.93,0,0,0-1.84.46,1.22,1.22,0,0,0-.36.53,2,2,0,0,0,0,1.1,2,2,0,0,0,2.18,1.46,5,5,0,0,0,2.68-1.25.48.48,0,0,0,.08-.1c-.1-.12,0-.16.07-.22.28-.37.58-.72.83-1.1a1.49,1.49,0,0,0,.24-1c0-.25-.06-.53-.35-.62a2.37,2.37,0,0,0-1.64,0,6.51,6.51,0,0,0-2,1.2l-.2-.21ZM10,15.12h0a4.26,4.26,0,0,1-2.1,1.44.22.22,0,0,0-.1.17q0,.72,0,1.44a1.11,1.11,0,0,0,.49.95,4,4,0,0,1,1.15,1.32.3.3,0,0,0,.21.1,3.29,3.29,0,0,0,1.55-.38c.67-.37.92-1,.37-1.62a4.37,4.37,0,0,0-.86-.75,1.08,1.08,0,0,1-.53-.75,5.06,5.06,0,0,1-.1-.68C10.05,15.94,10,15.53,10,15.12Zm2.74-5.81c0-.18-.11-.2-.25-.22-.65-.06-1.3-.15-2-.22a2.11,2.11,0,0,1-.55,1s0,.14,0,.21c.16.45.35.9.5,1.36,0,.16.12.23.28.2l2.12-.35a2.2,2.2,0,0,1-.37-.41A1,1,0,0,1,13,9.42c.05,0,.09-.09.14-.13l0,0ZM10.27,7.57a2.55,2.55,0,0,1,.28,0c.07,0,.13,0,.18,0A.41.41,0,0,0,11,6.93c-.12-.13-.24-.25-.34-.38a.35.35,0,0,1-.07-.21.21.21,0,0,1,.26-.16,3.13,3.13,0,0,0,.44,0l0-.06c-.19-.17-.37-.35-.57-.51a.93.93,0,0,0-1.32.16,2.42,2.42,0,0,0-.43,1.37A2,2,0,0,1,10.27,7.57ZM7,3.27H7A.57.57,0,0,0,7,3a1.37,1.37,0,0,0-2-.26A1.46,1.46,0,0,0,5,5a.66.66,0,0,0,.43-.79,3.17,3.17,0,0,1,0-.69A.72.72,0,0,1,6,2.83.78.78,0,0,1,7,3.27Zm3.47,1.3.08,0a1.51,1.51,0,0,0-.66-1.1.64.64,0,0,0-.75,0,9.62,9.62,0,0,0,.91.51c.27.11.38.21.39.52A.58.58,0,0,0,10.43,4.57Zm.18,3.9c.19-.16.35-.28.49-.42s0-.1,0-.15a.58.58,0,0,0-.14,0c-.14.1-.26.23-.44.08ZM7.24,16.71l.22.83h0v-.86Zm4.12-9.2a.7.7,0,0,0,.21-.7l-.06,0Zm2.86,1.83,0-.08a.71.71,0,0,0-.71-.09Z"/><path class="cls-4" d="M26.74,19c-.19.66-.34,1.31-.58,1.92a5.92,5.92,0,0,1-.68,1.23,1.28,1.28,0,0,1-.9.55,1.25,1.25,0,0,1-1.48-1.14,6,6,0,0,1,0-.95c0-.78,0-1.56,0-2.34,0-.06-.07-.12-.13-.22-.08.23-.14.39-.2.55a2.49,2.49,0,0,1-.67,1,1.15,1.15,0,0,1-.87.3.68.68,0,0,1-.62-.44c-.11-.29-.18-.59-.27-.91l-.15.08a2.35,2.35,0,0,1-1.78.19,1.5,1.5,0,0,1-1.11-1.24.6.6,0,0,0-.27-.43,2.5,2.5,0,0,1-1-1.67,11,11,0,0,1-.13-1.3c0-.13,0-.21-.17-.27a1.17,1.17,0,0,1-.38-.28.74.74,0,0,1-.07-.92,1.22,1.22,0,0,1,1.23-.58.32.32,0,0,0,.24-.09,3.69,3.69,0,0,1,3.42-1.33,3.13,3.13,0,0,1,2.42,1.48l0,0c.48-.12.94-.27,1.41-.34a7.08,7.08,0,0,1,3.41.4,4.34,4.34,0,0,1,1.76,1.05.4.4,0,0,0,.31,0,5,5,0,0,1,1.73,0,2.09,2.09,0,0,1,1.56,1,.28.28,0,0,0,.18.11c.48.15,1,.26,1.46.42a2.55,2.55,0,0,1,1.7,1.87,2.6,2.6,0,0,1,0,1.3,8.63,8.63,0,0,1-.28.86,1.3,1.3,0,0,1-.79.78,2.62,2.62,0,0,1-2-.05A2,2,0,0,1,32,18.35c0-.15-.1-.2-.24-.19-.91,0-1.82.11-2.73.11a1.94,1.94,0,0,0-1.1.37A2.09,2.09,0,0,1,26.74,19Zm-7.63-1.65.08,0,1.46.44a.22.22,0,0,0,.18,0A4,4,0,0,0,23,14a3.23,3.23,0,0,0-1.4-2.58,3.55,3.55,0,0,0-3.8.06,3.51,3.51,0,0,0-1.52,3.37,3.34,3.34,0,0,0,.55,1.65,1.24,1.24,0,0,0,.7.55c.34.07.69.1,1,.15l-.23-.38a1.76,1.76,0,0,1,1,.38Zm13.14.9a1.89,1.89,0,0,0,.62,1.05,2.14,2.14,0,0,0,1.64.38,1.19,1.19,0,0,0,1.09-.73,6.81,6.81,0,0,0,.34-1.17,2.35,2.35,0,0,0-1.5-2.52,14.24,14.24,0,0,0-3.09-.69,6.31,6.31,0,0,0-2.29.12,2.08,2.08,0,0,0-1.66,1.42A1.41,1.41,0,0,0,28.58,18a7.88,7.88,0,0,0,1.18,0c.77,0,1.53,0,2.3,0a1.21,1.21,0,0,1,.78.27l-.16.18Zm-5.64-.75A4.83,4.83,0,0,0,26,14.79a2,2,0,0,0-1.6-1,2,2,0,0,0-.69.07.61.61,0,0,0-.46.6c0,.41-.16.81-.23,1.22a1.6,1.6,0,0,0,0,.61,4.42,4.42,0,0,0,.25.78,1.43,1.43,0,0,1,.1.38c0,.95.07,1.89.08,2.84,0,.34-.05.69,0,1a1,1,0,0,0,1.92.63,4.07,4.07,0,0,0,.53-.86A10.59,10.59,0,0,0,26.61,17.46Zm1.55.72-.22-.13a1.62,1.62,0,0,1-.88-1.15,2.19,2.19,0,0,1,1.09-2.18,7.88,7.88,0,0,1,.85-.33l.4-.1a1.16,1.16,0,0,0-.41-.81,4.87,4.87,0,0,0-1.07-.74,7,7,0,0,0-3.76-.63,4.11,4.11,0,0,0-1.31.36l.39,1.29a2.57,2.57,0,0,1,.52-.21,2.2,2.2,0,0,1,2,.54,3.42,3.42,0,0,1,.77,1.15,5.68,5.68,0,0,1,.32,2.83c0,.2,0,.39-.07.61A2.28,2.28,0,0,0,28.16,18.18ZM20.5,18a12.83,12.83,0,0,0-3-.66,1.29,1.29,0,0,0,.83,1.15,2,2,0,0,0,1.38,0A1.69,1.69,0,0,0,20.5,18Zm9.19-3.75a10.08,10.08,0,0,1,2.79.16c-.39-.76-1.73-1-3-.76ZM16,13.67l.51-1.28a1,1,0,0,0-.84.29A.57.57,0,0,0,16,13.67Zm6.7,2.69-.68.87,1,.59C23.11,17.26,22.71,16.88,22.68,16.36ZM21,18.61a5.85,5.85,0,0,1,.54-.56c.19-.14.42-.24.64-.37l-.41-.28-.61.47a.27.27,0,0,0-.1.15C21.06,18.21,21.05,18.4,21,18.61Zm-.3-.42c-.17.15-.1.89.17,1.18Z"/><path class="cls-4" d="M18.05,9.15V8.88l14.56.7,0,.27Z"/><path class="cls-4" d="M17.55,6.23,17.45,6,29.12,2l.09.25Z"/><path class="cls-4" d="M30.51,6.25,30.31,5l.38-.06L31,6.81l-.46.07c0-.07,0-.15-.09-.18-.39-.32-.8-.62-1.26-1l.21,1.32L29,7.11,28.7,5.2l.51-.08c0,.07,0,.15.07.19Z"/><path class="cls-4" d="M22,7.14l1-.12.11.7a1.84,1.84,0,0,1-1.46.41.94.94,0,0,1-.75-.75.93.93,0,0,1,.42-1,1.63,1.63,0,0,1,1.17-.18l.31,0-.14.42a1,1,0,0,0-.86-.13.66.66,0,0,0-.48.77.63.63,0,0,0,.65.54,2.66,2.66,0,0,0,.56-.12c.18,0,.25-.17.12-.37l-.58.1Z"/><path class="cls-4" d="M32.34,5.63l.5-.07.48-.07.11.71A1.83,1.83,0,0,1,32,6.6a.93.93,0,0,1-.75-.74.92.92,0,0,1,.42-1,1.58,1.58,0,0,1,1.18-.18l.3,0L33,5.12A.92.92,0,0,0,32.12,5a.65.65,0,0,0-.48.76.63.63,0,0,0,.65.54,1.87,1.87,0,0,0,.56-.12c.19,0,.24-.17.12-.37l-.58.11Z"/><path class="cls-4" d="M23.32,6l.43-.06.1.76L25,6.5l-.14-.76.44-.06.28,1.9-.44.07L25,6.81,23.9,7,24,7.8l-.43.07Z"/><path class="cls-4" d="M19.53,6.5l0,.33L18.24,7l.07.47.92-.15.05.32-.94.12.14.84-.43.06c-.09-.64-.16-1.27-.3-1.9Z"/><path class="cls-4" d="M25.63,6l-.05-.33,1.89-.28.05.33-.74.09L27,7.4l-.44,0-.22-1.6Z"/><path class="cls-4" d="M28.19,5.26l.28,1.91-.42.06-.28-1.9Z"/><path class="cls-4" d="M20.59,8.31l-.42.07-.28-1.91.42-.06Z"/><path class="cls-4" d="M33.77,4.43l.48-.08V5.61l-.17,0Z"/><path class="cls-4" d="M34.3,5.85c.06.08.17.18.15.26a.35.35,0,0,1-.21.22A.19.19,0,0,1,34,6.09c0-.09.12-.17.18-.25Z"/><path class="cls-4" d="M5.21,15.43c0,.29-.18.49-.39.53a.48.48,0,0,1-.5-.35,1,1,0,0,1,0-.43.36.36,0,0,1,.33-.34A.64.64,0,0,1,5,15C5.13,15.12,5.15,15.3,5.21,15.43Z"/><path class="cls-4" d="M8.59,5.67a.4.4,0,0,1-.39.41.41.41,0,0,1-.39-.4.39.39,0,0,1,.4-.4A.38.38,0,0,1,8.59,5.67Z"/><path class="cls-4" d="M4.92,10c0,.28-.17.51-.35.5s-.32-.23-.3-.51.15-.46.34-.46S4.92,9.71,4.92,10Z"/><path class="cls-4" d="M20.56,15.07a2.2,2.2,0,0,1-1.67.38c-.46-.11-.91-.24-1.37-.36l-.08,0c-.61.06-.92-.68-.83-1.15s.35-.59.87-.67a2.61,2.61,0,0,1,2.61,1.12C20.26,14.58,20.39,14.81,20.56,15.07Zm-.38-.1-.32-.46a2.35,2.35,0,0,0-2.62-.92.51.51,0,0,0-.37.6,1.28,1.28,0,0,0,.17.42.36.36,0,0,0,.48.16,1,1,0,0,1,.82,0c.21.1.4.23.6.34s.14.1.21.09A2.28,2.28,0,0,0,20.18,15Z"/><path class="cls-4" d="M28.92,17.06a.47.47,0,0,1-.5-.42.5.5,0,0,1,1,0A.47.47,0,0,1,28.92,17.06Z"/><path class="cls-4" d="M24.92,15.78c0,.33-.2.6-.45.59a.53.53,0,0,1-.45-.59.54.54,0,0,1,.44-.58A.52.52,0,0,1,24.92,15.78Z"/></g></g></svg>