<svg xmlns="http://www.w3.org/2000/svg" viewBox="0 0 38.55 24.66"><defs><style>.cls-1{isolation:isolate;}.cls-2{opacity:0.15;}.cls-2,.cls-3{mix-blend-mode:multiply;}.cls-4{fill:#fff;}</style></defs><title>convert-FIX-SVG-03</title><g class="cls-1"><g id="Layer_1" data-name="Layer 1"><g class="cls-2"><path d="M27.87,14.78c-.19-.35-.35-.66-.5-1a.38.38,0,0,1,.12-.55c.14-.13.29-.24.46-.37l-.87.16c-.06-.34-.13-.65-.16-1a.27.27,0,0,0-.21-.27,4,4,0,0,1-.41-.17,1.09,1.09,0,0,0,0,.22,3.63,3.63,0,0,1,0,2,2.49,2.49,0,0,1-.94,1.29,2.47,2.47,0,0,1-1.31.36c-.59,0-1.19,0-1.82,0l-.1,1.22-.27,0L22,15.56a1.5,1.5,0,0,0-.84,0,4.16,4.16,0,0,1-2.28.36,6.77,6.77,0,0,0-1.19,0,5.26,5.26,0,0,1-2.48-.38h-.06c0,.37,0,.73.08,1.1,0,.15,0,.29,0,.44s-.08.25-.27.21a10.92,10.92,0,0,0-.45-3.21l.27-.09c.08.34.15.67.25,1a.44.44,0,0,0,.19.27,4,4,0,0,0,1.59.41c.46,0,.92,0,1.39,0a3.89,3.89,0,0,1-.35-.66A1.4,1.4,0,0,1,18,14a5,5,0,0,1,1.26-1.63l.15-.15a.65.65,0,0,0-.56-.29,2.27,2.27,0,0,0-.52,0A2.15,2.15,0,0,1,17,11.78c-.49-.23-1-.46-1.44-.71a.23.23,0,0,0-.31,0,3.72,3.72,0,0,1-1.82.72c.37.07.73.11,1.07.2s.4.13.41.51,0,.49,0,.75a4.86,4.86,0,0,1-1.9-.4c.33.35.68.68,1,1a1.42,1.42,0,0,1,.47,1.31l-.38-.58-.29.76-.12-.21c-.39-.76-.79-1.52-1.19-2.28-.11-.21-.2-.24-.35-.07-.34.38-.65.76-.95,1.16s-.48.72-.76,1.07l0-.42-.55.44a.53.53,0,0,1,0-.56c.28-.43.57-.84.87-1.24.17-.22.37-.41.57-.63H9.71a9.16,9.16,0,0,1,0,1.29,2.24,2.24,0,0,1-.32.75c-.27.48-.56.95-.82,1.43a.44.44,0,0,1-.47.22l.13-.21c.38-.66.77-1.31,1.13-2a2,2,0,0,0,.05-1.4,1.77,1.77,0,0,0-.59-1,1.38,1.38,0,0,0-1.5-.22,3.7,3.7,0,0,0-1.23.88,17.69,17.69,0,0,0-2.55,3.23l-.06.1-.28-.1c.3-.45.56-.9.88-1.29Q5,13.23,6,12.16a3.1,3.1,0,0,1,1.77-1L7.6,11A4.33,4.33,0,0,1,5.35,7.72c-.07-.45,0-.92-.08-1.39a.3.3,0,0,0,0-.16A1.91,1.91,0,0,1,4.93,4.9,3,3,0,0,1,6.79,2.05a2.72,2.72,0,0,1,2.39.12.61.61,0,0,0,.33.06A8.63,8.63,0,0,1,13,2.65a.32.32,0,0,0,.25,0,2.68,2.68,0,0,1,1.36-.55,1.58,1.58,0,0,1,1.12.36,2.89,2.89,0,0,1,.91,3,1.59,1.59,0,0,0-.06,1,5.66,5.66,0,0,1-.28,3.28,11.11,11.11,0,0,1-.62,1.09l1.2.6a2.57,2.57,0,0,0,1.59.25,2.38,2.38,0,0,1,.83.11c.12,0,.21.14.35.23a7.81,7.81,0,0,1,2.1-1.22,6.45,6.45,0,0,1,2.49-.4c-.14-.14-.25-.25-.34-.36a3.3,3.3,0,0,1-.66-3c.07-.32.21-.64.3-1a.53.53,0,0,0,0-.28,3.67,3.67,0,0,1-.26-2.09,2.77,2.77,0,0,1,2.08-2,2.8,2.8,0,0,1,2.19.3,1.43,1.43,0,0,0,1,.15,5.53,5.53,0,0,1,2.85.29.34.34,0,0,0,.26,0,2.19,2.19,0,0,1,3.56,1.41,2.44,2.44,0,0,1-.71,2.07.41.41,0,0,0-.1.41A3.58,3.58,0,0,1,34.45,8c-.06.28,0,.6-.06.88a4.08,4.08,0,0,1-1.45,2.25,2.45,2.45,0,0,1-.64.26,33.31,33.31,0,0,1,2.49,5.3c-.21,0-.3,0-.37-.22a34.65,34.65,0,0,0-2.39-5c-.27.29-.2.67-.26,1,0,.13-.09.18-.22.15l-.61-.14a6.19,6.19,0,0,1,1.22,4h-.22l-.3-2.16-.09,0c.08.39-.23.42-.43.55a11.06,11.06,0,0,0-.28-1.2,5.12,5.12,0,0,0-.48-1,.69.69,0,0,0-.83-.26c-.06,0-.11.1-.15.16l-1.29,1.89Zm2.44-3.36L30,11.29a1.85,1.85,0,0,1-.89-.79,2.75,2.75,0,0,1-.27-1.91,3.17,3.17,0,0,1,2.51-2.5,2.4,2.4,0,0,1,2.17.34c.23-.12.33-.1.44.1a1.11,1.11,0,0,1,.07.26l.15.57h.07V7.18a5.16,5.16,0,0,0-.42-1.73c-.17-.4-.39-.78-.6-1.17A1.56,1.56,0,0,0,33,3.9a4.94,4.94,0,0,0-4.72-1.46.44.44,0,0,1-.17.52l-.4.38a.5.5,0,0,1-.74.13l-.09.08L25.15,5s-.06,0-.06.07c0,.4-.33.63-.57.88a.69.69,0,0,1-.76.22,13.22,13.22,0,0,0-.31,1.32,2.74,2.74,0,0,0,1,2.67c.62.48,1.33.83,2,1.25a2.12,2.12,0,0,0,1.33.21,9.84,9.84,0,0,1,2,0,.93.93,0,0,0,.29,0A1,1,0,0,0,30.31,11.42Zm-24.76-5a5.24,5.24,0,0,0,.6,2.81,4.22,4.22,0,0,0,3,2.07l-.09.29,0,0,.1.19,0,0,0-.35h2.17a1.89,1.89,0,0,1-.79-1.4,5,5,0,0,1,0-1.16,2.55,2.55,0,0,1,1.39-2,5.42,5.42,0,0,1,1-.39,2.15,2.15,0,0,1,2.23.44h0l0-.2a.65.65,0,0,1,.43,1,.31.31,0,0,0,0,.21,4.46,4.46,0,0,1-.05,1.89c-.07.28-.18.55-.28.83l0,0c.16-.26.35-.5.49-.76a3.94,3.94,0,0,0,.45-1.81,5.54,5.54,0,0,0-.11-1.68,5,5,0,0,0-2.5-3.09,7.51,7.51,0,0,0-4-.81l-.06,0a1.12,1.12,0,0,1,0,.39,1,1,0,0,1-.52.68.71.71,0,0,1-.45,0c-.2-.07-.29,0-.41.15a8.09,8.09,0,0,1-1.48,1.5.23.23,0,0,0-.06.12A1.29,1.29,0,0,1,5.55,6.43ZM23,15.37c.46,0,.86,0,1.25-.1a2,2,0,0,0,1-.35,2.33,2.33,0,0,0,.77-1.11,3.64,3.64,0,0,0-.16-2.28.2.2,0,0,0-.1-.12l-1.07-.64a.48.48,0,0,0-.2-.07,5,5,0,0,0-1.72.07A7.08,7.08,0,0,0,19,13a3.39,3.39,0,0,0-.88,1.48.93.93,0,0,0,.77,1.15,4,4,0,0,0,2.34-.4.55.55,0,0,1,.26-.05Zm6-6.23v.21a1.82,1.82,0,0,0,1,1.66,2.48,2.48,0,0,0,1.87.17c.16-.06.33-.08.49-.14a1.35,1.35,0,0,0,.44-.2A4.39,4.39,0,0,0,34,9.34,2,2,0,0,0,34.1,7.9a2,2,0,0,0-1.4-1.58,2.62,2.62,0,0,0-1.54.11A2.91,2.91,0,0,0,29.06,9.14ZM15.56,8.8c-.07-.42-.09-.78-.18-1.12a1.38,1.38,0,0,0-1.26-1.11,3.54,3.54,0,0,0-1.61.28,2.34,2.34,0,0,0-1.1.75,3,3,0,0,0-.57,2.24,1.72,1.72,0,0,0,1.54,1.67,3.56,3.56,0,0,0,1,0,2.1,2.1,0,0,0,1.89-1.49A12.68,12.68,0,0,0,15.56,8.8ZM5.21,5A1.56,1.56,0,0,0,5.43,6a.33.33,0,0,0,.39.19,1.13,1.13,0,0,0,.72-.83,3.59,3.59,0,0,1,.37-1.4,1.25,1.25,0,0,1,.88-.7,1.57,1.57,0,0,1,.93.11c.31.13.53,0,.72-.39.08-.18,0-.29-.28-.46a2.5,2.5,0,0,0-2-.27A2.76,2.76,0,0,0,5.21,5ZM26.12,1.87a2.73,2.73,0,0,0-2.49,1.64,3.24,3.24,0,0,0,.21,2.29.19.19,0,0,0,.31.09,2.69,2.69,0,0,0,.32-.27.71.71,0,0,0,.21-.91,1.4,1.4,0,0,1,.95-1.87,1.46,1.46,0,0,1,1.44.35c.14.13.24.15.38,0a4.78,4.78,0,0,1,.46-.44c.14-.12.11-.21,0-.29A3.57,3.57,0,0,0,26.12,1.87Zm8.11,3.87a2,2,0,0,0,0-3.07,1.7,1.7,0,0,0-2.37-.07l1.21,1a.3.3,0,0,0,.23,0,.79.79,0,0,1,1,.43,1.33,1.33,0,0,1-.18,1.34ZM13.46,2.82a5.15,5.15,0,0,1,.73.42c.28.2.54.34.87.15h.08a.77.77,0,0,1,.92.8c0,.26,0,.53,0,.78s.11.42.23.65c.06-.16.12-.28.15-.4A2.62,2.62,0,0,0,15.9,3,1.55,1.55,0,0,0,13.46,2.82Z"/><path d="M1.74,16.49H2c0,.32.3.46.54.61a8,8,0,0,0,3.87,1.06,45.31,45.31,0,0,0,5.34-.06c1.61-.09,3.22-.23,4.83-.36l4.19-.35c1.56-.12,3.11-.26,4.67-.36a59,59,0,0,1,7-.13,15.06,15.06,0,0,1,3.59.54c.12,0,.18.08.18.22,0,1.79,0,3.58,0,5.36,0,0,0,.08,0,.14a4.42,4.42,0,0,0-3.1-1.91A17,17,0,0,0,28.93,21c-1.35,0-2.7.1-4,.19s-2.52.21-3.77.32l-4,.35c-1.32.12-2.64.24-4,.32a49.33,49.33,0,0,1-6.77.11,13,13,0,0,1-3.49-.6,9.35,9.35,0,0,1-1.06-.51A.26.26,0,0,1,1.75,21C1.74,19.49,1.74,18,1.74,16.49Zm.28.62v3.07c0,.85,0,.85.81,1.16A10.75,10.75,0,0,0,6.41,22c1.63.05,3.25,0,4.87,0,.52,0,1,0,1.54-.06l4.62-.39,3.48-.31c1.24-.11,2.48-.23,3.73-.32s2.31-.15,3.46-.2a24.45,24.45,0,0,1,4.76.19,5.27,5.27,0,0,1,2.1.73c.32.21.65.41,1,.61V17.7a1.27,1.27,0,0,0-.18-.06c-.67-.12-1.34-.28-2-.36a33,33,0,0,0-5.44-.12c-2.09.1-4.18.25-6.27.4-1.58.11-3.15.26-4.72.39-1.75.14-3.49.29-5.24.41a41.29,41.29,0,0,1-5.45.08,19.32,19.32,0,0,1-2.39-.32A7.86,7.86,0,0,1,2,17.11Z"/><path d="M9.52,16.16V18c-.45,0-.9,0-1.35,0a18.53,18.53,0,0,1-3.79-.31,5.89,5.89,0,0,1-1.95-.83l-.16-.13A.42.42,0,0,1,2.4,16a1.72,1.72,0,0,1,1.12,0c.63.18,1.25.39,1.87.58a6.85,6.85,0,0,0,2,.36,3.13,3.13,0,0,0,2-.62Zm-.29.55H9.18A3.84,3.84,0,0,1,6.27,17c-.8-.2-1.58-.46-2.37-.7a2.67,2.67,0,0,0-1.22-.15,1,1,0,0,0-.3.17c.06.09.1.22.19.27a4.71,4.71,0,0,0,1.74.78,18.27,18.27,0,0,0,4.61.32,1.63,1.63,0,0,0,.31,0Z"/><path d="M28.58,23.12V21.44c0-.13,0-.18.17-.19a12.52,12.52,0,0,1,5.63.63,2.8,2.8,0,0,1,1.28.86.47.47,0,0,1,.13.49.4.4,0,0,1-.44.23,9.74,9.74,0,0,1-1.18-.21c-.86-.23-1.7-.53-2.57-.73a3.32,3.32,0,0,0-2.93.57Zm.28-.51.13-.06a3.65,3.65,0,0,1,2.15-.38,11,11,0,0,1,2.27.54c.53.16,1.05.33,1.58.46a1.63,1.63,0,0,0,.54,0l0-.07a1.94,1.94,0,0,0-.15-.24,2.54,2.54,0,0,0-1.12-.73,12.68,12.68,0,0,0-3.66-.69c-.58,0-1.16,0-1.76,0Z"/><path d="M7,14.14a.35.35,0,0,1-.39-.39,1.22,1.22,0,0,1,1-1.05.37.37,0,0,1,.4.37A1.18,1.18,0,0,1,7,14.14Z"/><path d="M28.66,7.53a.7.7,0,0,1-.7-.68.72.72,0,0,1,.69-.72.71.71,0,0,1,.7.68A.7.7,0,0,1,28.66,7.53Z"/><path d="M10.33,6.08a.67.67,0,0,1,.64.7.65.65,0,1,1-1.29,0A.66.66,0,0,1,10.33,6.08Z"/><path d="M24,12a.79.79,0,0,1,.84.76.84.84,0,0,1-.88.81.81.81,0,0,1-.85-.76A.86.86,0,0,1,24,12Z"/><path d="M32.28,10.28l-.84.36L31,9.94l.37-.22.27.38.68-.32a.43.43,0,0,0,.11-.55c-.16-.21-.31-.43-.48-.64a.19.19,0,0,1,0-.26c.08-.14.13-.34.25-.41s.3,0,.45,0l.94.06a.75.75,0,0,1-.11.86,7.69,7.69,0,0,0-.68.91,1.43,1.43,0,0,0-.07.27l.56-.31.13.32-1,.58Z"/><path d="M14.31,10.89,14,10.44c-.23.12-.45.23-.66.36a.18.18,0,0,1-.24,0c-.2-.2-.42-.38-.65-.58l.3-.28.37.31a.28.28,0,0,0,.13.09,1.43,1.43,0,0,0,.67-.43.48.48,0,0,0-.1-.6,6.44,6.44,0,0,1-.48-.56.19.19,0,0,1,0-.26c.08-.14.14-.29.19-.37h1.26c.13,0,.18,0,.22.17.14.51.16.52-.21.91a1.45,1.45,0,0,0-.44.79.29.29,0,0,0,.13.34l.29-.21.21.34Z"/><path d="M8.79,18.74v1.84c0,.15,0,.32.19.37,0,0,0,.09,0,.1a.25.25,0,0,1-.13.06H7.72a2.68,2.68,0,0,1-.4,0c-.05,0-.09-.08-.17-.15.35,0,.34,0,.27-.29s-.17-.38-.43-.34a.21.21,0,0,1-.11,0c-.37-.05-.5,0-.59.4,0,0,.08.11.13.16l.12.13,0,.06L5.63,21c.08-.08.12-.16.16-.16a.37.37,0,0,0,.34-.25c.24-.52.5-1,.74-1.56.07-.15.15-.23.31-.18.24.63.46,1.26.71,1.88a.37.37,0,0,0,.21.23c.22.08.33,0,.33-.25,0-.47,0-.94,0-1.42,0-.09-.08-.18-.13-.27s-.06-.07-.07-.11,0-.06.09-.07Zm-2.2,1.31.64.06L7,19.28Z"/><path d="M17.8,19.43l.17.06a.62.62,0,0,1,0,1.2,11.45,11.45,0,0,1-1.3.13s-.09-.06-.15-.11c.38-.15.38-.14.34-.52s-.07-.84-.1-1.26c0-.17-.06-.29-.26-.28,0,0-.08,0-.12-.08s.07-.09.11-.1c.39,0,.78-.08,1.17-.08a.52.52,0,0,1,.57.57C18.2,19.17,18.11,19.28,17.8,19.43Zm-.57.18c0,.25,0,.48.06.71s.11.27.31.24.34-.18.35-.45-.1-.46-.32-.5A2.66,2.66,0,0,0,17.23,19.61Zm-.08-1,.07.82c.2-.06.43,0,.49-.25a.78.78,0,0,0-.05-.5C17.56,18.51,17.35,18.58,17.15,18.62Z"/><path d="M27.52,17.93l.53.91.58-.89-.27-.05s-.07-.06-.1-.09.06-.08.1-.08l.82,0s.08.06.08.09a.14.14,0,0,1-.08.09c-.25,0-.37.15-.48.33a2.13,2.13,0,0,1-.25.34,1.37,1.37,0,0,0-.29,1.06c0,.14.05.23.21.24s.09.07.14.11a.34.34,0,0,1-.15.07c-.32,0-.64,0-1,0l0-.07c.05,0,.09-.1.14-.11s.22-.12.23-.28a1.21,1.21,0,0,0-.31-1c-.12-.13-.19-.3-.31-.43a2,2,0,0,0-.33-.24l-.12-.11a.28.28,0,0,1,.13-.07l.89,0c.05,0,.1.05.14.08a.6.6,0,0,1-.13.09A.53.53,0,0,1,27.52,17.93Z"/><path d="M23.46,18.9a2.52,2.52,0,0,0,0-.48,1.21,1.21,0,0,0-.18-.28s-.07-.08-.06-.11.05-.08.09-.09l.48-.11L23.84,19l.06.77c0,.15,0,.29.2.33,0,0,0,.13,0,.16s-.44,0-.51,0c-.47.24-.81.2-1.07-.1a.9.9,0,0,1-.05-1A.75.75,0,0,1,23.46,18.9Zm.06.79c0-.15,0-.26,0-.36s-.14-.29-.31-.31a.32.32,0,0,0-.38.22.86.86,0,0,0,.05.72.4.4,0,0,0,.3.18.58.58,0,0,0,.34-.19C23.55,19.88,23.52,19.75,23.52,19.69Z"/><path d="M32.06,18.87l.62.07c0,.34-.08.65-.12,1s-.07.33.13.42c0,0,0,.13,0,.16s-.51-.06-.56-.17a2.18,2.18,0,0,1-.49.08.4.4,0,0,1-.41-.48c0-.23.05-.46.08-.69s0-.22-.11-.28-.05-.1-.09-.19l.63.07c0,.29-.07.57-.1.84a1.48,1.48,0,0,0,0,.19c0,.17,0,.3.22.32a.3.3,0,0,0,.36-.27l.06-.52c0-.14,0-.27-.13-.33S32.09,19,32.06,18.87Z"/><path d="M9,19.63h.57s.1,0,.1,0a.61.61,0,0,1,0,.13c0,.05-.07.11-.06.14.06.22.14.43.23.7.1-.33.17-.6.26-.87,0-.06.09-.11.13-.16s.11.09.13.14c.11.26.2.52.33.84l.23-.79-.11-.05s-.06-.08-.05-.11a.16.16,0,0,1,.11-.07h.43a.66.66,0,0,1-.05.15A2,2,0,0,0,11,20c-.11.29-.19.59-.29.88a.75.75,0,0,1-.15.2.84.84,0,0,1-.15-.18c-.11-.24-.2-.49-.31-.78-.1.31-.18.59-.28.87,0,.05-.08.09-.12.13A.44.44,0,0,1,9.57,21l-.3-.78c-.06-.14-.07-.33-.26-.39C9,19.79,9,19.71,9,19.63Z"/><path d="M30.9,19.41a.77.77,0,0,1-.79.81.76.76,0,0,1-.83-.79.81.81,0,0,1,1.62,0Zm-.39-.07h0v-.13a.39.39,0,0,0-.34-.39.35.35,0,0,0-.41.31,1.75,1.75,0,0,0,0,.56A.33.33,0,0,0,30,20a.37.37,0,0,0,.39-.29C30.46,19.62,30.48,19.48,30.51,19.34Z"/><path d="M12.26,20.79a1.63,1.63,0,0,1-.34.19.36.36,0,0,1-.46-.17.43.43,0,0,1,.1-.53,2.35,2.35,0,0,1,.46-.21c.12,0,.19-.1.14-.21a1.18,1.18,0,0,0-.19-.25l-.2.17s0,.1-.06.11a2,2,0,0,1-.26.06c0-.08-.06-.17,0-.24a.75.75,0,0,1,.74-.27c.23,0,.34.17.38.44l.06.61a1.77,1.77,0,0,0,0,.21l.24-.23.05.05c0,.17-.07.34-.25.38a1.17,1.17,0,0,1-.41-.06Zm-.07-.61-.24.1s-.08,0-.09.07-.07.2,0,.27.16.08.24.07.2-.08.16-.23A1.84,1.84,0,0,1,12.19,20.18Z"/><path d="M12.69,19.4l.72-.07,0,.05-.15.2.41.72.22-.8-.16-.16a.65.65,0,0,1,.17-.08,3,3,0,0,1,.39-.06c0,.08,0,.17-.05.17s-.17.18-.2.29c-.16.54-.33,1.08-.48,1.62-.07.24-.19.41-.45.42-.05,0-.1,0-.15-.07s.05-.11.09-.13a.75.75,0,0,0,.33-1c-.13-.21-.24-.43-.38-.63a3.19,3.19,0,0,0-.26-.26A.87.87,0,0,1,12.69,19.4Z"/><path d="M24.66,19.45c0,.23,0,.44.25.54s.36,0,.51-.15a.75.75,0,0,1,.24-.09.73.73,0,0,1-.83.47.77.77,0,0,1-.59-.75.76.76,0,0,1,.52-.78.65.65,0,0,1,.85.69l-.48,0Zm.55-.24c0-.25-.11-.36-.28-.35s-.27.13-.27.4Z"/><path d="M19.08,19.87a1.3,1.3,0,0,0,0,.18c0,.18.1.36.29.37a.75.75,0,0,0,.42-.16c.09-.06.14-.15.24,0a.71.71,0,0,1-1.2.18.85.85,0,0,1,.21-1.25.66.66,0,0,1,1,.64l-.48,0Zm0-.19.57-.05c0-.21-.07-.35-.28-.36S19.09,19.4,19.07,19.68Z"/><path d="M20.33,20l.14.12a1.32,1.32,0,0,0,.29.24c.06,0,.16-.06.24-.1S21,20,20.88,20s-.28-.12-.41-.2a.42.42,0,0,1-.22-.5.38.38,0,0,1,.39-.3,1.44,1.44,0,0,1,.33.08l.16-.08a.77.77,0,0,1,.05.19c0,.11,0,.21,0,.38L21,19.43c-.08-.08-.14-.19-.23-.24s-.14,0-.22,0,0,.19.08.23a2.11,2.11,0,0,0,.34.16.46.46,0,0,1,.31.62.51.51,0,0,1-.68.24,1.09,1.09,0,0,0-.3,0l0-.52Z"/><path d="M14.59,20.67c0-.19-.05-.32-.06-.45a.35.35,0,0,1,.05-.13s.1,0,.12.08.17.26.34.23a.29.29,0,0,0,.2-.14s-.06-.16-.12-.19-.26-.1-.39-.16a.44.44,0,0,1-.26-.6.42.42,0,0,1,.61-.15l.2-.15c0,.19.06.34.09.49s0,.08,0,.08a.26.26,0,0,1-.12,0c-.08-.07-.13-.18-.21-.22s-.17,0-.26,0,0,.19.11.23a1.85,1.85,0,0,0,.33.12.47.47,0,0,1,.33.63.49.49,0,0,1-.69.21Z"/><path d="M22.31,20.39l-.72.05a.39.39,0,0,1-.14-.05.83.83,0,0,0,.08-.12c0-.08.12-.15.12-.22a3.28,3.28,0,0,0,0-.63c0-.08-.09-.14-.15-.21l-.09-.11s.06-.07.1-.08l.48-.12c0,.34.06.67.08,1,0,.15,0,.31.21.34C22.26,20.23,22.27,20.31,22.31,20.39Z"/><path d="M21.77,18.3c.06.08.17.17.16.24a.29.29,0,0,1-.21.19c-.06,0-.18-.12-.19-.19s.1-.16.15-.24Z"/><path d="M28.06,15c-.18-.36-.34-.66-.49-1a.38.38,0,0,1,.12-.55c.14-.13.29-.24.46-.38l-.87.17c-.06-.34-.13-.65-.17-1a.26.26,0,0,0-.2-.27c-.13,0-.25-.1-.42-.17,0,.09,0,.15.05.22a3.72,3.72,0,0,1,0,2,2.46,2.46,0,0,1-.95,1.29,2.41,2.41,0,0,1-1.3.36c-.59,0-1.19,0-1.82,0L22.38,17l-.27,0,.08-1.25a1.5,1.5,0,0,0-.84,0,4.37,4.37,0,0,1-2.29.36,5.83,5.83,0,0,0-1.18,0,5.26,5.26,0,0,1-2.48-.38h-.06c0,.37.05.73.08,1.1,0,.14,0,.29,0,.44s-.08.25-.27.21a10.92,10.92,0,0,0-.45-3.21l.27-.09c.08.34.15.67.24,1a.44.44,0,0,0,.2.26A4,4,0,0,0,17,15.9c.47,0,.93,0,1.4,0a3.89,3.89,0,0,1-.35-.66,1.43,1.43,0,0,1,.14-1.05,5.25,5.25,0,0,1,1.26-1.63l.15-.14a.65.65,0,0,0-.56-.29,2.36,2.36,0,0,0-.53,0A2.09,2.09,0,0,1,17.23,12c-.48-.23-1-.46-1.43-.71a.24.24,0,0,0-.32,0,3.65,3.65,0,0,1-1.81.72c.37.06.72.11,1.07.19s.4.13.41.52c0,.24,0,.49,0,.75a4.65,4.65,0,0,1-1.89-.41c.33.36.67.69,1,1.06a1.42,1.42,0,0,1,.47,1.31l-.38-.58-.29.76c0-.09-.08-.15-.12-.21l-1.19-2.29c-.11-.2-.2-.23-.36-.06a14.88,14.88,0,0,0-.94,1.16c-.26.34-.48.71-.77,1.07l0-.42-.54.44a.53.53,0,0,1,0-.56c.28-.43.57-.84.87-1.25.17-.21.37-.4.57-.62H9.91a9.16,9.16,0,0,1,0,1.29,2.24,2.24,0,0,1-.32.75c-.27.48-.56.94-.82,1.43a.47.47,0,0,1-.47.22,1.57,1.57,0,0,0,.12-.21c.38-.66.78-1.31,1.14-2a1.93,1.93,0,0,0,0-1.4A1.73,1.73,0,0,0,9,12a1.38,1.38,0,0,0-1.5-.22,3.7,3.7,0,0,0-1.23.88,17.27,17.27,0,0,0-2.55,3.23l-.06.1-.28-.1a13.88,13.88,0,0,1,.88-1.29q.92-1.12,1.89-2.19a3.1,3.1,0,0,1,1.77-1l-.12-.09A4.33,4.33,0,0,1,5.55,7.92c-.07-.45,0-.92-.08-1.39a.29.29,0,0,0,0-.16,2,2,0,0,1-.3-1.27A3,3,0,0,1,7,2.25a2.7,2.7,0,0,1,2.38.12.66.66,0,0,0,.34.06,8.73,8.73,0,0,1,3.48.41.3.3,0,0,0,.26,0,2.68,2.68,0,0,1,1.35-.55,1.6,1.6,0,0,1,1.13.36,2.89,2.89,0,0,1,.91,3,1.56,1.56,0,0,0-.07,1,5.69,5.69,0,0,1-.27,3.29A11.11,11.11,0,0,1,15.88,11l1.19.6a2.68,2.68,0,0,0,1.6.25,2.16,2.16,0,0,1,.83.11c.11,0,.21.14.35.23A7.81,7.81,0,0,1,22,11a6.25,6.25,0,0,1,2.48-.4l-.34-.36a3.33,3.33,0,0,1-.65-3c.07-.33.2-.64.3-1a.53.53,0,0,0,0-.28,3.59,3.59,0,0,1-.26-2.09,2.92,2.92,0,0,1,4.27-1.74,1.43,1.43,0,0,0,1,.15,5.43,5.43,0,0,1,2.85.29.3.3,0,0,0,.26,0A2.19,2.19,0,0,1,35.39,4a2.44,2.44,0,0,1-.71,2.07.41.41,0,0,0-.1.41,3.57,3.57,0,0,1,.07,1.72c-.06.28,0,.59-.06.88a4.08,4.08,0,0,1-1.45,2.25,2.76,2.76,0,0,1-.65.26A32.8,32.8,0,0,1,35,16.89c-.21.05-.3,0-.37-.21a34.65,34.65,0,0,0-2.39-5c-.27.29-.2.66-.27,1a.16.16,0,0,1-.22.15l-.6-.14a6.25,6.25,0,0,1,1.22,4h-.23l-.29-2.17h-.09c.08.39-.23.42-.43.54A11.48,11.48,0,0,0,31,13.88a4.57,4.57,0,0,0-.47-1,.69.69,0,0,0-.83-.26c-.06,0-.11.1-.15.16l-1.29,1.89Zm2.45-3.36-.31-.14a1.79,1.79,0,0,1-.89-.78A2.75,2.75,0,0,1,29,8.79a3.2,3.2,0,0,1,2.51-2.51,2.43,2.43,0,0,1,2.17.34c.23-.11.33-.09.44.11a1.11,1.11,0,0,1,.07.26l.15.57h.06a1,1,0,0,0,0-.17A5.16,5.16,0,0,0,34,5.65a12.81,12.81,0,0,0-.59-1.17,1.84,1.84,0,0,0-.25-.39,4.94,4.94,0,0,0-4.72-1.45.45.45,0,0,1-.17.52c-.14.12-.27.25-.4.38a.5.5,0,0,1-.74.13l-.09.08L25.35,5.19s-.06,0-.07.08c0,.4-.32.63-.56.88a.69.69,0,0,1-.76.22,13.22,13.22,0,0,0-.31,1.32,2.75,2.75,0,0,0,1,2.67,21.52,21.52,0,0,0,2,1.24,2.06,2.06,0,0,0,1.33.22,9.85,9.85,0,0,1,2-.05.71.71,0,0,0,.29,0A1,1,0,0,0,30.51,11.62Zm-24.76-5a5.24,5.24,0,0,0,.6,2.81,4.18,4.18,0,0,0,3,2.06l-.09.3,0,0,.11.2,0,0,0-.35h2.18a2,2,0,0,1-.8-1.4A5.61,5.61,0,0,1,10.8,9a2.55,2.55,0,0,1,1.39-2,4.83,4.83,0,0,1,1-.39A2.15,2.15,0,0,1,15.46,7h0l0-.2a.65.65,0,0,1,.43,1,.3.3,0,0,0,0,.21A4.46,4.46,0,0,1,15.87,10a7.92,7.92,0,0,1-.28.82l.05,0c.16-.25.34-.49.49-.75a3.94,3.94,0,0,0,.45-1.81,5.88,5.88,0,0,0-.11-1.68A5,5,0,0,0,14,3.5a7.35,7.35,0,0,0-4-.81.13.13,0,0,0-.06,0,1.1,1.1,0,0,1,0,.39,1,1,0,0,1-.53.68A.67.67,0,0,1,9,3.83c-.2-.07-.29,0-.42.14A7.51,7.51,0,0,1,7.08,5.48S7,5.56,7,5.6A1.29,1.29,0,0,1,5.75,6.63Zm17.47,8.94c.47,0,.87-.05,1.26-.1a2,2,0,0,0,1-.35A2.29,2.29,0,0,0,26.3,14a3.71,3.71,0,0,0-.16-2.28.2.2,0,0,0-.1-.12L25,11a.48.48,0,0,0-.2-.07A5,5,0,0,0,23,11a7.17,7.17,0,0,0-3.85,2.26,3.26,3.26,0,0,0-.88,1.47.93.93,0,0,0,.77,1.16,4,4,0,0,0,2.34-.4.45.45,0,0,1,.26,0Zm6-6.23a1.47,1.47,0,0,0,0,.21,1.83,1.83,0,0,0,1,1.66,2.46,2.46,0,0,0,1.86.17c.16-.06.33-.08.49-.14a1.17,1.17,0,0,0,.45-.21,4.35,4.35,0,0,0,1.09-1.49A2,2,0,0,0,34.3,8.1a2,2,0,0,0-1.4-1.58,2.54,2.54,0,0,0-1.54.11A2.9,2.9,0,0,0,29.26,9.34ZM15.76,9c-.07-.42-.1-.78-.19-1.12a1.38,1.38,0,0,0-1.25-1.11,3.54,3.54,0,0,0-1.61.28,2.34,2.34,0,0,0-1.1.75A3,3,0,0,0,11,10a1.71,1.71,0,0,0,1.54,1.66,3.24,3.24,0,0,0,1,0,2.1,2.1,0,0,0,1.89-1.49C15.63,9.83,15.68,9.38,15.76,9ZM5.41,5.22a1.49,1.49,0,0,0,.22.94c.09.14.2.24.38.19a1.12,1.12,0,0,0,.73-.83,3.55,3.55,0,0,1,.37-1.4A1.25,1.25,0,0,1,8,3.42a1.57,1.57,0,0,1,.93.11c.3.13.53,0,.71-.39.09-.18,0-.29-.27-.46a2.5,2.5,0,0,0-2-.27A2.76,2.76,0,0,0,5.41,5.22ZM26.32,2.07a2.74,2.74,0,0,0-2.5,1.64A3.35,3.35,0,0,0,24,6a.19.19,0,0,0,.31.09,3,3,0,0,0,.33-.27.71.71,0,0,0,.21-.91A1.4,1.4,0,0,1,25.82,3a1.48,1.48,0,0,1,1.45.35c.14.13.24.15.37,0A4.89,4.89,0,0,1,28.11,3c.13-.12.11-.21,0-.29A3.5,3.5,0,0,0,26.32,2.07Zm8.11,3.87a2,2,0,0,0,0-3.07,1.71,1.71,0,0,0-2.37-.08l1.21,1a.36.36,0,0,0,.23,0,.79.79,0,0,1,1,.43,1.33,1.33,0,0,1-.18,1.34ZM13.66,3a6.31,6.31,0,0,1,.73.41c.27.2.53.35.87.16,0,0,.05,0,.08,0a.78.78,0,0,1,.92.81c0,.26,0,.52,0,.78s.11.42.23.65c.06-.16.12-.28.15-.4a2.62,2.62,0,0,0-.54-2.22A1.55,1.55,0,0,0,13.66,3Z"/><path d="M1.94,16.69h.27c0,.32.3.46.54.61a8.08,8.08,0,0,0,3.87,1.06A45.12,45.12,0,0,0,12,18.3c1.62-.1,3.23-.23,4.84-.36L21,17.59c1.56-.13,3.11-.26,4.66-.36a61.45,61.45,0,0,1,7-.14,15.6,15.6,0,0,1,3.59.55.2.2,0,0,1,.18.22c0,1.79,0,3.57,0,5.36,0,0,0,.08,0,.14a4.44,4.44,0,0,0-3.1-1.91,17,17,0,0,0-4.22-.27c-1.34,0-2.69.1-4,.19s-2.52.21-3.78.32l-4,.35c-1.32.11-2.64.24-4,.32a49.36,49.36,0,0,1-6.77.11,12.9,12.9,0,0,1-3.49-.6,10.32,10.32,0,0,1-1.06-.51A.26.26,0,0,1,2,21.17C1.94,19.68,1.94,18.2,1.94,16.69Zm.28.62v3.07c0,.85,0,.85.81,1.16a10.44,10.44,0,0,0,3.58.65c1.62,0,3.25,0,4.87,0,.52,0,1,0,1.54-.06l4.62-.39,3.48-.32c1.24-.11,2.48-.22,3.73-.31s2.31-.15,3.46-.2a24.45,24.45,0,0,1,4.76.19,5.23,5.23,0,0,1,2.09.73l1,.61V17.9L36,17.84c-.67-.12-1.34-.29-2-.36a31.9,31.9,0,0,0-5.44-.12c-2.09.1-4.18.25-6.27.4-1.58.11-3.15.26-4.73.39-1.74.14-3.48.29-5.23.4a39.67,39.67,0,0,1-5.45.09,21.43,21.43,0,0,1-2.39-.32A7.74,7.74,0,0,1,2.22,17.31Z"/><path d="M9.72,16.35v1.81c-.45,0-.9,0-1.35,0a18.53,18.53,0,0,1-3.79-.31,5.89,5.89,0,0,1-1.95-.83l-.16-.13a.42.42,0,0,1,.13-.76,1.72,1.72,0,0,1,1.12,0c.63.18,1.25.39,1.87.58a6.79,6.79,0,0,0,2,.36,3.13,3.13,0,0,0,2-.62Zm-.29.56h0a3.84,3.84,0,0,1-2.91.31c-.8-.2-1.58-.46-2.37-.7a2.72,2.72,0,0,0-1.23-.15,1.14,1.14,0,0,0-.3.17c.07.09.11.21.2.27a4.71,4.71,0,0,0,1.74.78,18.75,18.75,0,0,0,4.61.32l.31,0Z"/><path d="M28.78,23.31V21.64c0-.13,0-.18.17-.2a12.81,12.81,0,0,1,5.63.63,2.9,2.9,0,0,1,1.28.87.47.47,0,0,1,.13.49.4.4,0,0,1-.44.23,9.09,9.09,0,0,1-1.18-.21c-.86-.23-1.71-.53-2.57-.73a3.32,3.32,0,0,0-2.93.57Zm.28-.5.13-.06a3.64,3.64,0,0,1,2.15-.38,11,11,0,0,1,2.27.54c.53.16,1,.32,1.58.46a2,2,0,0,0,.54,0l0-.07a1.25,1.25,0,0,0-.16-.24,2.46,2.46,0,0,0-1.11-.73,12.74,12.74,0,0,0-3.66-.69c-.58,0-1.17,0-1.76,0Z"/><path d="M7.24,14.34a.36.36,0,0,1-.4-.39,1.23,1.23,0,0,1,1-1,.37.37,0,0,1,.4.37A1.18,1.18,0,0,1,7.24,14.34Z"/><path d="M28.86,7.72a.68.68,0,0,1-.7-.67.72.72,0,0,1,.68-.72.7.7,0,0,1,.7.68A.69.69,0,0,1,28.86,7.72Z"/><path d="M10.53,6.28a.67.67,0,0,1,.64.7A.65.65,0,1,1,9.88,7,.66.66,0,0,1,10.53,6.28Z"/><path d="M24.19,12.21A.79.79,0,0,1,25,13a.84.84,0,0,1-.88.81A.81.81,0,0,1,23.3,13,.86.86,0,0,1,24.19,12.21Z"/><path d="M32.48,10.48l-.84.36-.47-.71.36-.21.28.38.67-.32a.42.42,0,0,0,.12-.55c-.16-.21-.31-.43-.48-.64a.2.2,0,0,1,0-.27c.09-.13.14-.33.26-.4s.3,0,.45,0l.93.06a.72.72,0,0,1-.11.86A7.62,7.62,0,0,0,33,10a.93.93,0,0,0-.07.27l.56-.31.13.32-1,.58Z"/><path d="M14.51,11.09l-.36-.45c-.22.12-.44.23-.65.36a.17.17,0,0,1-.24,0c-.2-.19-.42-.37-.65-.57l.3-.28.36.31c.05,0,.09.08.14.09a1.43,1.43,0,0,0,.67-.43.48.48,0,0,0-.1-.6,6.44,6.44,0,0,1-.48-.56.19.19,0,0,1,0-.26c.08-.14.15-.29.2-.37h1.26c.13,0,.18,0,.21.16.15.52.16.52-.2.92a1.45,1.45,0,0,0-.44.79.3.3,0,0,0,.13.34l.29-.21.21.34Z"/><path d="M9,18.94v1.84c0,.15,0,.32.19.37,0,0,.05.09,0,.1a.25.25,0,0,1-.14.06H7.92a2.68,2.68,0,0,1-.4,0s-.09-.08-.17-.15c.35,0,.34,0,.27-.3s-.17-.37-.43-.33a.21.21,0,0,1-.11,0c-.38,0-.5,0-.59.4,0,0,.08.11.13.16l.12.13,0,.05-.87-.09C5.91,21.07,6,21,6,21a.38.38,0,0,0,.34-.25c.24-.52.5-1,.74-1.56.07-.15.15-.24.31-.18.23.63.46,1.26.7,1.88a.45.45,0,0,0,.22.23c.22.08.33,0,.33-.25,0-.47,0-.95,0-1.42,0-.09-.09-.18-.13-.27s-.06-.07-.07-.11.05-.06.08-.07Zm-2.2,1.31.64.06-.28-.83Z"/><path d="M18,19.63l.17.06a.59.59,0,0,1,.46.58.61.61,0,0,1-.48.62c-.43.07-.87.1-1.3.13,0,0-.09-.07-.15-.12.38-.14.37-.14.34-.51s-.07-.84-.1-1.26c0-.18-.06-.29-.26-.28,0,0-.08-.05-.12-.08s.07-.09.1-.1c.4,0,.79-.08,1.18-.08a.53.53,0,0,1,.57.57C18.4,19.37,18.31,19.48,18,19.63Zm-.57.18c0,.25,0,.48.06.71s.11.27.3.24.35-.18.36-.45-.1-.46-.32-.5A2.66,2.66,0,0,0,17.43,19.81Zm-.08-1,.07.82c.19-.06.43,0,.49-.25a.73.73,0,0,0-.06-.5C17.76,18.71,17.55,18.78,17.35,18.82Z"/><path d="M27.72,18.13l.53.91.58-.89-.28,0s-.06-.06-.09-.09.06-.08.09-.08l.83,0s.08.06.08.09a.14.14,0,0,1-.09.09c-.24,0-.36.15-.48.33a1.91,1.91,0,0,1-.24.34,1.32,1.32,0,0,0-.29,1.06c0,.14,0,.23.2.24s.1.07.15.11-.1.07-.15.07h-1l0-.07c.05,0,.09-.11.14-.11s.21-.12.23-.28a1.31,1.31,0,0,0-.31-1c-.12-.12-.19-.29-.31-.42a2,2,0,0,0-.33-.24L26.86,18a.35.35,0,0,1,.13-.08h.89c.05,0,.09,0,.14.08a.6.6,0,0,1-.13.09A1.08,1.08,0,0,1,27.72,18.13Z"/><path d="M23.65,19.1a3.91,3.91,0,0,0,0-.49,1.16,1.16,0,0,0-.18-.27s-.07-.08-.07-.11a.2.2,0,0,1,.09-.09L24,18,24,19.17c0,.26,0,.52.05.78s0,.29.21.33a.21.21,0,0,1,0,.16.65.65,0,0,1-.51,0c-.48.23-.82.2-1.07-.1a.89.89,0,0,1,0-1A.73.73,0,0,1,23.65,19.1Zm.07.79c0-.15,0-.26,0-.36s-.14-.29-.31-.31a.31.31,0,0,0-.39.22.81.81,0,0,0,.06.71.42.42,0,0,0,.29.19.58.58,0,0,0,.35-.19C23.75,20.08,23.72,20,23.72,19.89Z"/><path d="M32.26,19.07l.62.07c0,.34-.08.65-.12,1,0,.16-.07.33.13.42,0,0,0,.13,0,.15s-.51-.05-.56-.16a2.17,2.17,0,0,1-.5.08.4.4,0,0,1-.4-.48c0-.23.05-.46.08-.69s0-.22-.12-.28,0-.1-.09-.19l.64.07c0,.29-.07.57-.11.84,0,.07,0,.13,0,.19s0,.3.22.32a.3.3,0,0,0,.36-.27l.06-.52c0-.14,0-.27-.13-.33S32.28,19.15,32.26,19.07Z"/><path d="M9.17,19.82h.57s.1,0,.1,0a.61.61,0,0,1,0,.13c0,.05-.07.11-.06.14.06.22.14.43.23.7.09-.33.17-.6.26-.87,0-.06.09-.11.13-.16a1.66,1.66,0,0,1,.13.14c.1.26.2.52.33.84l.22-.79a.53.53,0,0,1-.1-.06s-.06-.08,0-.1a.17.17,0,0,1,.1-.07c.14,0,.27,0,.44,0a.66.66,0,0,1,0,.15,1.1,1.1,0,0,0-.18.26c-.11.29-.19.59-.29.88a1.3,1.3,0,0,1-.15.2c0-.06-.13-.11-.16-.18-.1-.25-.19-.5-.3-.78-.1.31-.18.59-.28.86,0,.06-.08.1-.12.14a.58.58,0,0,1-.14-.13c-.11-.26-.2-.52-.31-.78S9.4,20.05,9.2,20C9.18,20,9.19,19.91,9.17,19.82Z"/><path d="M31.1,19.61a.77.77,0,0,1-.79.81.76.76,0,0,1-.83-.79.81.81,0,0,1,1.62,0Zm-.39-.07h0a.53.53,0,0,0,0-.13c0-.24-.13-.37-.34-.39a.34.34,0,0,0-.4.31,1.75,1.75,0,0,0,0,.56.33.33,0,0,0,.32.35.37.37,0,0,0,.39-.29C30.66,19.82,30.68,19.68,30.71,19.54Z"/><path d="M12.46,21a1.48,1.48,0,0,1-.35.19.35.35,0,0,1-.45-.17.43.43,0,0,1,.1-.54,1.89,1.89,0,0,1,.46-.2c.11,0,.18-.1.13-.22a1.37,1.37,0,0,0-.18-.24L12,20s0,.1-.06.11a2,2,0,0,1-.26.06.55.55,0,0,1,0-.24.74.74,0,0,1,.73-.27.45.45,0,0,1,.39.44c0,.21,0,.41.06.61a1.77,1.77,0,0,0,0,.21l.24-.23,0,0c0,.17-.07.34-.25.38a1.26,1.26,0,0,1-.42-.06Zm-.07-.61-.24.1a.23.23,0,0,0-.09.06c0,.1-.08.21-.05.28s.17.08.25.07a.18.18,0,0,0,.16-.23A2,2,0,0,1,12.39,20.38Z"/><path d="M12.88,19.6l.73-.07,0,0-.14.2.41.72.22-.81L14,19.54a.6.6,0,0,1,.16-.08,3.43,3.43,0,0,1,.4-.06c0,.08,0,.17,0,.17-.17,0-.17.18-.2.29q-.26.81-.48,1.62c-.07.24-.19.41-.45.42,0,0-.1,0-.15-.07s.05-.11.09-.13a.77.77,0,0,0,.33-1.05c-.13-.21-.25-.42-.39-.63a3,3,0,0,0-.25-.25A.85.85,0,0,1,12.88,19.6Z"/><path d="M24.85,19.65c0,.23,0,.44.26.54s.36,0,.5-.15a1.4,1.4,0,0,1,.25-.1.74.74,0,0,1-.83.48A.81.81,0,0,1,25,18.89a.65.65,0,0,1,.85.69l-.48,0Zm.56-.24c0-.25-.11-.36-.28-.35s-.27.13-.28.4Z"/><path d="M19.28,20.07c0,.09,0,.13,0,.18s.11.36.3.37a.7.7,0,0,0,.42-.17c.09-.06.14-.14.24,0a.72.72,0,0,1-1.2.18.86.86,0,0,1,.21-1.26.66.66,0,0,1,1,.65l-.48,0Zm0-.19.57-.05c0-.21-.07-.35-.28-.36S19.29,19.6,19.27,19.88Z"/><path d="M20.53,20.15a.86.86,0,0,0,.14.13,1.32,1.32,0,0,0,.29.24c.05,0,.16-.06.24-.1s-.05-.19-.12-.24-.28-.12-.41-.2a.42.42,0,0,1-.22-.5.38.38,0,0,1,.39-.3,1.36,1.36,0,0,1,.32.08l.16-.08c0,.07.05.13.06.19s0,.21,0,.38a.84.84,0,0,1-.17-.13c-.08-.07-.14-.18-.23-.23s-.15,0-.22.05a.52.52,0,0,0,.08.23,2.68,2.68,0,0,0,.34.16.47.47,0,0,1,.31.62.51.51,0,0,1-.68.24c-.09,0-.19,0-.31,0l0-.53Z"/><path d="M14.79,20.87c0-.19,0-.32-.06-.45s0-.09,0-.14.1,0,.12.09a.33.33,0,0,0,.34.23.35.35,0,0,0,.2-.14.27.27,0,0,0-.12-.19c-.12-.07-.26-.1-.39-.16a.44.44,0,0,1-.26-.6c.1-.23.35-.28.61-.15l.2-.15c0,.19.06.34.08.49s0,.08,0,.07a.17.17,0,0,1-.12,0c-.08-.07-.13-.18-.22-.22s-.17,0-.25,0,.05.19.11.23a1.61,1.61,0,0,0,.33.12.46.46,0,0,1,.33.63.48.48,0,0,1-.69.2Z"/><path d="M22.51,20.59l-.72.05a.39.39,0,0,1-.14-.05.57.57,0,0,0,.08-.13.68.68,0,0,0,.12-.22,4.46,4.46,0,0,0-.05-.63c0-.07-.09-.13-.15-.2l-.1-.11s.07-.07.11-.08a4.8,4.8,0,0,1,.48-.12c0,.34.06.67.08,1,0,.15,0,.31.21.34C22.45,20.43,22.47,20.51,22.51,20.59Z"/><path d="M22,18.49c.06.09.17.18.16.25a.33.33,0,0,1-.21.19c-.06,0-.19-.12-.19-.19s.1-.16.15-.24Z"/></g><g class="cls-3"><path d="M27.72,14.64c-.18-.36-.34-.66-.49-1a.38.38,0,0,1,.12-.55c.14-.13.29-.24.46-.38l-.88.17c-.05-.34-.12-.65-.16-1a.26.26,0,0,0-.2-.27c-.13,0-.25-.1-.42-.17,0,.09,0,.15.05.22a3.72,3.72,0,0,1,0,2,2.46,2.46,0,0,1-.95,1.29,2.42,2.42,0,0,1-1.31.36c-.58,0-1.18,0-1.81,0L22,16.65l-.27,0,.08-1.25a1.5,1.5,0,0,0-.84,0,4.37,4.37,0,0,1-2.29.36,5.83,5.83,0,0,0-1.18,0,5.26,5.26,0,0,1-2.48-.38H15c0,.37.05.73.08,1.1,0,.14,0,.29,0,.44s-.08.25-.27.21A10.92,10.92,0,0,0,14.37,14l.27-.09c.08.34.15.67.24,1a.44.44,0,0,0,.2.26,4,4,0,0,0,1.58.42c.47,0,.93,0,1.4,0a3.89,3.89,0,0,1-.35-.66,1.43,1.43,0,0,1,.14-1.05,5.25,5.25,0,0,1,1.26-1.63l.15-.14a.65.65,0,0,0-.56-.29,2.36,2.36,0,0,0-.53,0,2.09,2.09,0,0,1-1.28-.16c-.48-.23-1-.46-1.43-.71a.24.24,0,0,0-.32,0,3.65,3.65,0,0,1-1.81.72c.37.06.72.11,1.07.19s.4.13.41.52c0,.24,0,.49,0,.75a4.65,4.65,0,0,1-1.89-.41c.33.35.67.69,1,1.06a1.44,1.44,0,0,1,.47,1.31L14,14.52l-.29.76-.12-.21c-.4-.76-.79-1.53-1.2-2.29-.1-.2-.19-.23-.35-.06a14.88,14.88,0,0,0-.94,1.16c-.26.34-.48.71-.77,1.07l0-.42L9.76,15a.53.53,0,0,1,0-.56c.28-.43.57-.84.87-1.25.17-.21.37-.4.57-.62H9.57a9.16,9.16,0,0,1,0,1.29,2.24,2.24,0,0,1-.32.75c-.27.48-.56.94-.82,1.43a.47.47,0,0,1-.47.22A1.57,1.57,0,0,0,8.06,16c.38-.66.78-1.31,1.14-2a1.93,1.93,0,0,0,0-1.4,1.73,1.73,0,0,0-.58-1,1.38,1.38,0,0,0-1.5-.22,3.7,3.7,0,0,0-1.23.88A17.27,17.27,0,0,0,3.38,15.5l-.06.1L3,15.5a13.88,13.88,0,0,1,.88-1.29Q4.84,13.09,5.81,12a3.1,3.1,0,0,1,1.77-1l-.12-.09A4.33,4.33,0,0,1,5.21,7.58c-.07-.45,0-.92-.08-1.39a.29.29,0,0,0,0-.16,2,2,0,0,1-.3-1.27A3,3,0,0,1,6.65,1.91,2.7,2.7,0,0,1,9,2a.66.66,0,0,0,.34.06,8.73,8.73,0,0,1,3.48.41.3.3,0,0,0,.26,0,2.68,2.68,0,0,1,1.35-.55,1.56,1.56,0,0,1,1.12.36,2.88,2.88,0,0,1,.92,3,1.56,1.56,0,0,0-.07,1,5.69,5.69,0,0,1-.27,3.29,11.11,11.11,0,0,1-.62,1.09l1.19.6a2.68,2.68,0,0,0,1.6.25,2.16,2.16,0,0,1,.83.11c.11,0,.21.14.35.23a7.81,7.81,0,0,1,2.1-1.22,6.25,6.25,0,0,1,2.48-.4l-.34-.36a3.33,3.33,0,0,1-.65-3c.07-.33.2-.64.3-1a.53.53,0,0,0,0-.28,3.59,3.59,0,0,1-.26-2.09,2.92,2.92,0,0,1,4.27-1.74,1.43,1.43,0,0,0,1,.15,5.43,5.43,0,0,1,2.85.29.3.3,0,0,0,.26,0,2.19,2.19,0,0,1,3.56,1.42,2.44,2.44,0,0,1-.71,2.07.39.39,0,0,0-.1.41,3.7,3.7,0,0,1,.07,1.72c-.06.28,0,.59-.06.88A4.08,4.08,0,0,1,32.8,11a2.76,2.76,0,0,1-.65.26,33.67,33.67,0,0,1,2.5,5.29.27.27,0,0,1-.37-.21,34.65,34.65,0,0,0-2.39-5c-.27.29-.2.66-.27,1a.16.16,0,0,1-.22.15l-.6-.14a6.25,6.25,0,0,1,1.22,4h-.23L31.5,14.2h-.09c.08.39-.23.42-.43.54a11.48,11.48,0,0,0-.29-1.19,4.87,4.87,0,0,0-.47-1,.7.7,0,0,0-.83-.25.34.34,0,0,0-.15.16L28,14.33Zm2.45-3.36-.31-.14a1.79,1.79,0,0,1-.89-.78,2.75,2.75,0,0,1-.27-1.91,3.2,3.2,0,0,1,2.51-2.51,2.43,2.43,0,0,1,2.17.34c.23-.11.33-.09.44.11a2,2,0,0,1,.07.26c0,.19.1.38.14.57h.07a1,1,0,0,0,0-.17,5.28,5.28,0,0,0-.42-1.74c-.16-.4-.39-.77-.59-1.16a2.34,2.34,0,0,0-.25-.39A4.94,4.94,0,0,0,28.12,2.3a.45.45,0,0,1-.17.52c-.14.12-.27.25-.4.38a.5.5,0,0,1-.74.13l-.09.08L25,4.85s-.07.05-.07.08c0,.4-.32.63-.56.88a.69.69,0,0,1-.76.22,13.22,13.22,0,0,0-.31,1.32,2.75,2.75,0,0,0,1,2.67,21.52,21.52,0,0,0,2,1.24,2.06,2.06,0,0,0,1.33.22,9.85,9.85,0,0,1,2-.05.71.71,0,0,0,.29,0A1,1,0,0,0,30.17,11.28Zm-24.76-5A5.24,5.24,0,0,0,6,9.1a4.18,4.18,0,0,0,3,2.06l-.09.3,0,0,.11.2,0,0,0-.35h2.18a2,2,0,0,1-.8-1.4,5.61,5.61,0,0,1,0-1.16,2.56,2.56,0,0,1,1.38-2,5.12,5.12,0,0,1,1.05-.39,2.15,2.15,0,0,1,2.23.44h0l0-.2a.65.65,0,0,1,.43,1,.3.3,0,0,0,0,.21,4.46,4.46,0,0,1-.05,1.89,7.92,7.92,0,0,1-.28.82l.05,0c.16-.25.34-.49.49-.75a3.94,3.94,0,0,0,.45-1.81,5.88,5.88,0,0,0-.11-1.68,5,5,0,0,0-2.5-3.09,7.35,7.35,0,0,0-4-.81.13.13,0,0,0-.06,0,1.1,1.1,0,0,1,0,.39,1,1,0,0,1-.53.68.67.67,0,0,1-.44.05c-.2-.07-.29,0-.42.14A7.51,7.51,0,0,1,6.74,5.14s0,.08-.06.12A1.3,1.3,0,0,1,5.41,6.29Zm17.47,8.94c.47,0,.87-.05,1.26-.1a2,2,0,0,0,1-.35A2.29,2.29,0,0,0,26,13.67a3.71,3.71,0,0,0-.16-2.28.2.2,0,0,0-.1-.12l-1.07-.64a.48.48,0,0,0-.2-.07,5,5,0,0,0-1.73.06,7.17,7.17,0,0,0-3.85,2.26A3.26,3.26,0,0,0,18,14.35a.93.93,0,0,0,.77,1.16,4,4,0,0,0,2.34-.4.45.45,0,0,1,.26,0Zm6-6.23a1.47,1.47,0,0,0,0,.21,1.83,1.83,0,0,0,1,1.66A2.46,2.46,0,0,0,31.8,11c.16-.06.33-.08.49-.14a1.17,1.17,0,0,0,.45-.21A4.35,4.35,0,0,0,33.83,9.2,2,2,0,0,0,34,7.76a2,2,0,0,0-1.4-1.58A2.54,2.54,0,0,0,31,6.29,2.9,2.9,0,0,0,28.92,9Zm-13.5-.34c-.07-.42-.1-.78-.19-1.12A1.38,1.38,0,0,0,14,6.43a3.54,3.54,0,0,0-1.61.28,2.34,2.34,0,0,0-1.11.75A3,3,0,0,0,10.7,9.7a1.71,1.71,0,0,0,1.54,1.66,3.56,3.56,0,0,0,1,0,2.1,2.1,0,0,0,1.89-1.49C15.29,9.49,15.34,9,15.42,8.66ZM5.07,4.88a1.49,1.49,0,0,0,.22.94c.09.14.2.24.38.19a1.12,1.12,0,0,0,.73-.83,3.55,3.55,0,0,1,.37-1.4,1.25,1.25,0,0,1,.88-.7,1.49,1.49,0,0,1,.93.11c.3.13.53,0,.71-.39.09-.18,0-.29-.27-.46a2.5,2.5,0,0,0-2-.27A2.76,2.76,0,0,0,5.07,4.88ZM26,1.73a2.74,2.74,0,0,0-2.5,1.64,3.35,3.35,0,0,0,.21,2.29.19.19,0,0,0,.31.09,3,3,0,0,0,.33-.27.71.71,0,0,0,.21-.91,1.4,1.4,0,0,1,.94-1.87,1.48,1.48,0,0,1,1.45.35c.14.13.24.15.37,0a6.33,6.33,0,0,1,.46-.44c.14-.12.12-.21,0-.29A3.5,3.5,0,0,0,26,1.73Zm8.11,3.86a2,2,0,0,0,0-3.06,1.72,1.72,0,0,0-2.38-.08l1.22,1a.36.36,0,0,0,.23,0,.79.79,0,0,1,1,.43A1.33,1.33,0,0,1,34,5.23ZM13.32,2.68a6.31,6.31,0,0,1,.73.41c.27.2.53.35.87.16,0,0,.05,0,.08,0a.78.78,0,0,1,.92.81c0,.26,0,.52,0,.78s.11.42.23.65c.06-.16.12-.28.15-.4a2.62,2.62,0,0,0-.54-2.22A1.55,1.55,0,0,0,13.32,2.68Z"/><path d="M1.6,16.35h.27c0,.32.3.46.54.61A8.08,8.08,0,0,0,6.28,18,45.12,45.12,0,0,0,11.61,18c1.62-.1,3.23-.23,4.84-.36l4.19-.35c1.56-.13,3.11-.26,4.66-.36a61.45,61.45,0,0,1,7.05-.14,15.6,15.6,0,0,1,3.59.55c.11,0,.18.07.18.22,0,1.79,0,3.57,0,5.36,0,0,0,.08,0,.14A4.44,4.44,0,0,0,33,21.11a17,17,0,0,0-4.22-.27c-1.34,0-2.69.1-4,.19s-2.52.21-3.78.32l-4,.35c-1.32.11-2.64.24-4,.32a49.36,49.36,0,0,1-6.77.11,12.9,12.9,0,0,1-3.49-.6A10.32,10.32,0,0,1,1.73,21a.26.26,0,0,1-.12-.19C1.6,19.34,1.6,17.86,1.6,16.35Zm.28.62V20c0,.85,0,.85.81,1.16a10.44,10.44,0,0,0,3.58.65c1.62,0,3.25,0,4.87,0,.52,0,1,0,1.54-.06l4.62-.39,3.48-.32c1.24-.11,2.48-.22,3.73-.31s2.31-.15,3.46-.2a24.31,24.31,0,0,1,4.75.19,5.22,5.22,0,0,1,2.1.73l1,.61V17.56l-.18-.06c-.67-.12-1.34-.29-2-.36A31.9,31.9,0,0,0,28.19,17c-2.09.1-4.18.25-6.27.4-1.58.11-3.15.26-4.73.39-1.74.14-3.48.29-5.23.4a39.67,39.67,0,0,1-5.45.09A21.43,21.43,0,0,1,4.12,18,7.74,7.74,0,0,1,1.88,17Z"/><path d="M9.38,16v1.81c-.46,0-.9,0-1.35,0a18.53,18.53,0,0,1-3.79-.31,5.89,5.89,0,0,1-1.95-.83l-.16-.13a.42.42,0,0,1,.13-.76,1.72,1.72,0,0,1,1.12,0c.63.18,1.25.39,1.87.58a6.79,6.79,0,0,0,2,.36,3.13,3.13,0,0,0,2-.62Zm-.29.56H9a3.84,3.84,0,0,1-2.91.31c-.8-.2-1.58-.46-2.37-.7A2.72,2.72,0,0,0,2.53,16a1.14,1.14,0,0,0-.3.17c.07.09.11.21.2.27a4.88,4.88,0,0,0,1.74.78,18.75,18.75,0,0,0,4.61.32l.31,0Z"/><path d="M28.44,23V21.3c0-.13,0-.18.17-.2a12.81,12.81,0,0,1,5.63.63,2.9,2.9,0,0,1,1.28.87.47.47,0,0,1,.13.49.4.4,0,0,1-.44.23A9.09,9.09,0,0,1,34,23.11c-.86-.23-1.71-.53-2.57-.73a3.32,3.32,0,0,0-2.93.57Zm.28-.5.13-.06A3.64,3.64,0,0,1,31,22a10.42,10.42,0,0,1,2.27.54c.52.16,1,.32,1.58.46a2,2,0,0,0,.54,0l0-.07a1.25,1.25,0,0,0-.16-.24A2.46,2.46,0,0,0,34.14,22a12.74,12.74,0,0,0-3.66-.69c-.58,0-1.17,0-1.76,0Z"/><path d="M6.9,14a.36.36,0,0,1-.4-.39,1.23,1.23,0,0,1,1-1,.37.37,0,0,1,.4.37A1.18,1.18,0,0,1,6.9,14Z"/><path d="M28.52,7.38a.68.68,0,0,1-.7-.67A.72.72,0,0,1,28.5,6a.7.7,0,0,1,.7.68A.69.69,0,0,1,28.52,7.38Z"/><path d="M10.19,5.94a.67.67,0,0,1,.64.7.65.65,0,1,1-1.29,0A.66.66,0,0,1,10.19,5.94Z"/><path d="M23.85,11.87a.79.79,0,0,1,.84.76.85.85,0,0,1-.88.81.81.81,0,0,1-.85-.76A.86.86,0,0,1,23.85,11.87Z"/><path d="M32.14,10.14l-.84.36-.47-.71.36-.21.28.38.67-.32a.42.42,0,0,0,.12-.55c-.16-.21-.31-.43-.48-.64a.2.2,0,0,1,0-.27c.09-.13.14-.33.26-.4s.3,0,.45,0l.93.06a.72.72,0,0,1-.11.86,7.62,7.62,0,0,0-.67.91.93.93,0,0,0-.07.27l.56-.31.13.32-1,.58Z"/><path d="M14.17,10.75l-.36-.45c-.22.12-.44.23-.65.36a.17.17,0,0,1-.24,0c-.2-.19-.42-.37-.65-.57l.3-.28.36.31c.05,0,.09.08.14.09a1.43,1.43,0,0,0,.67-.43.48.48,0,0,0-.1-.6,6.44,6.44,0,0,1-.48-.56.19.19,0,0,1,0-.26c.08-.14.15-.29.2-.37h1.26c.13,0,.18,0,.21.16.15.52.16.52-.2.92a1.45,1.45,0,0,0-.44.79.3.3,0,0,0,.13.34l.29-.21.21.34Z"/><path d="M8.65,18.6v1.84c0,.15,0,.32.19.37,0,0,.05.09,0,.09a.21.21,0,0,1-.14.07H7.58a1.8,1.8,0,0,1-.4,0s-.09-.07-.17-.14c.35,0,.34,0,.27-.3s-.17-.37-.43-.33a.21.21,0,0,1-.11,0c-.38,0-.5,0-.59.4,0,0,.08.11.13.16l.12.13,0,.05-.87-.09c.08-.07.12-.15.16-.15A.38.38,0,0,0,6,20.4c.24-.52.5-1,.74-1.56.07-.15.15-.24.31-.18.23.63.46,1.26.7,1.88a.45.45,0,0,0,.22.23c.22.08.33,0,.33-.25,0-.47,0-.95,0-1.42,0-.09-.09-.18-.13-.27a.34.34,0,0,1-.07-.11.11.11,0,0,1,.08-.07Zm-2.2,1.31.64.06-.28-.83Z"/><path d="M17.66,19.29l.17.05a.62.62,0,0,1,0,1.21c-.43.07-.87.1-1.3.13,0,0-.09-.07-.15-.12.38-.14.37-.14.34-.51s-.08-.84-.1-1.26c0-.18-.06-.29-.26-.28,0,0-.08-.05-.12-.08s.07-.09.1-.1c.4,0,.79-.08,1.18-.08a.53.53,0,0,1,.57.57C18.06,19,18,19.14,17.66,19.29Zm-.57.18c0,.25,0,.48.06.71s.11.27.3.24.35-.18.36-.45-.1-.46-.32-.5A2.66,2.66,0,0,0,17.09,19.47Zm-.08-1,.07.82c.19-.06.43,0,.49-.25a.73.73,0,0,0-.06-.5C17.42,18.37,17.21,18.44,17,18.48Z"/><path d="M27.38,17.79l.53.91.58-.89-.28,0s-.06-.06-.09-.09.06-.08.09-.08l.83,0s.08.06.08.09a.14.14,0,0,1-.09.09c-.24,0-.36.15-.48.33a1.91,1.91,0,0,1-.24.34A1.32,1.32,0,0,0,28,19.52c0,.14,0,.23.2.24s.1.07.15.11-.1.07-.15.07h-1l0-.07c.05,0,.09-.11.14-.11s.21-.12.23-.28a1.31,1.31,0,0,0-.31-1c-.12-.12-.19-.29-.31-.42a2,2,0,0,0-.33-.24l-.12-.11a.35.35,0,0,1,.13-.08h.89c.05,0,.09.05.14.08a.6.6,0,0,1-.13.09A1.08,1.08,0,0,1,27.38,17.79Z"/><path d="M23.31,18.76a3.91,3.91,0,0,0,0-.49A1.16,1.16,0,0,0,23.1,18s-.07-.08-.07-.11a.2.2,0,0,1,.09-.09l.49-.12c0,.4.06.78.09,1.15s0,.52.05.78,0,.29.21.33a.21.21,0,0,1,0,.16.65.65,0,0,1-.51,0c-.48.23-.82.2-1.07-.1a.89.89,0,0,1,0-1A.73.73,0,0,1,23.31,18.76Zm.07.79c0-.15,0-.26,0-.36s-.14-.29-.31-.31a.31.31,0,0,0-.39.22.81.81,0,0,0,.06.71A.42.42,0,0,0,23,20a.58.58,0,0,0,.35-.19C23.41,19.74,23.38,19.61,23.38,19.55Z"/><path d="M31.92,18.73l.62.07c0,.34-.08.65-.12,1,0,.16-.07.33.13.42,0,0,0,.13,0,.15s-.51,0-.56-.16a2.17,2.17,0,0,1-.5.08.4.4,0,0,1-.4-.48c0-.23.05-.46.08-.69s0-.22-.12-.28,0-.1-.09-.19l.64.07c0,.29-.07.57-.11.84,0,.07,0,.13,0,.19s0,.3.22.32a.31.31,0,0,0,.36-.27l.06-.52c0-.14,0-.27-.13-.34S31.94,18.81,31.92,18.73Z"/><path d="M8.83,19.48H9.4s.1,0,.1,0a.61.61,0,0,1,0,.13c0,.05-.07.1-.06.14.06.22.14.43.23.7.09-.33.17-.61.26-.87,0-.06.09-.11.13-.16a1.66,1.66,0,0,1,.13.14c.1.26.2.52.33.84l.22-.79s-.08,0-.1-.06-.06-.08,0-.1a.17.17,0,0,1,.1-.07c.14,0,.27,0,.44,0a.66.66,0,0,1,0,.15,1.1,1.1,0,0,0-.18.26c-.11.29-.19.59-.29.88a1.3,1.3,0,0,1-.15.2c0-.06-.13-.11-.16-.18-.1-.25-.19-.5-.3-.78-.1.31-.18.59-.28.86,0,.06-.08.1-.12.14a.58.58,0,0,1-.14-.13c-.11-.26-.2-.52-.31-.78s-.06-.33-.26-.39C8.84,19.65,8.84,19.57,8.83,19.48Z"/><path d="M30.76,19.27a.82.82,0,0,1-1.63,0,.76.76,0,0,1,.79-.79A.75.75,0,0,1,30.76,19.27Zm-.39-.07h0a.56.56,0,0,0,0-.13c0-.24-.13-.37-.34-.39a.34.34,0,0,0-.4.31,1.75,1.75,0,0,0,0,.56.33.33,0,0,0,.32.35.37.37,0,0,0,.39-.29C30.32,19.48,30.34,19.34,30.37,19.2Z"/><path d="M12.12,20.65a1.48,1.48,0,0,1-.35.19.35.35,0,0,1-.45-.17.43.43,0,0,1,.1-.54,1.89,1.89,0,0,1,.46-.2c.11,0,.18-.1.13-.22a1.37,1.37,0,0,0-.18-.24l-.2.17s0,.1-.06.11a2,2,0,0,1-.26.06.55.55,0,0,1,0-.24A.74.74,0,0,1,12,19.3a.45.45,0,0,1,.39.44c0,.21,0,.41.06.61a1.77,1.77,0,0,0,0,.21l.24-.23,0,.05c0,.17-.07.34-.25.38a1.26,1.26,0,0,1-.42-.06ZM12.05,20l-.24.1a.23.23,0,0,0-.09.06c0,.1-.08.21-.05.28s.17.08.25.07a.18.18,0,0,0,.16-.23A2,2,0,0,1,12.05,20Z"/><path d="M12.54,19.26l.73-.07,0,0-.14.2.41.72.22-.81-.16-.15a.6.6,0,0,1,.16-.08,3.43,3.43,0,0,1,.4-.06c0,.08,0,.17,0,.17-.17,0-.17.18-.2.29q-.26.81-.48,1.62c-.07.24-.19.41-.45.42,0,0-.1,0-.15-.07s.05-.11.08-.13a.76.76,0,0,0,.34-1.05c-.13-.21-.25-.42-.39-.63a3,3,0,0,0-.25-.25A.85.85,0,0,1,12.54,19.26Z"/><path d="M24.51,19.31c0,.23,0,.44.25.54a.43.43,0,0,0,.51-.15,1.4,1.4,0,0,1,.25-.1.74.74,0,0,1-.83.48.81.81,0,0,1-.07-1.53.65.65,0,0,1,.85.68l-.48.05Zm.56-.24c0-.25-.11-.36-.28-.35s-.27.13-.28.4Z"/><path d="M18.94,19.73c0,.09,0,.13,0,.18s.11.36.3.37a.7.7,0,0,0,.42-.17c.09-.06.14-.14.24,0a.72.72,0,0,1-1.2.18A.86.86,0,0,1,18.93,19a.66.66,0,0,1,1,.65l-.48,0Zm0-.19.57-.05c0-.21-.07-.35-.28-.36S19,19.26,18.93,19.54Z"/><path d="M20.19,19.81a.86.86,0,0,0,.14.13,1.32,1.32,0,0,0,.29.24c.05,0,.16-.06.24-.1s-.05-.19-.12-.24-.28-.12-.41-.2a.42.42,0,0,1-.22-.5.38.38,0,0,1,.39-.3,1.36,1.36,0,0,1,.32.08l.16-.08c0,.07.05.13.06.19s0,.21,0,.38a.84.84,0,0,1-.17-.13c-.08-.07-.14-.18-.23-.23s-.15,0-.22.05a.52.52,0,0,0,.08.23,2.68,2.68,0,0,0,.34.16.47.47,0,0,1,.31.62.51.51,0,0,1-.68.24c-.09,0-.19,0-.31,0l0-.53Z"/><path d="M14.45,20.53c0-.19,0-.32-.06-.45s0-.09,0-.14.1,0,.12.09a.33.33,0,0,0,.34.23.35.35,0,0,0,.2-.14.27.27,0,0,0-.12-.19c-.12-.07-.26-.1-.39-.16a.44.44,0,0,1-.26-.6c.1-.23.34-.28.61-.15l.2-.15c0,.19.06.34.08.49s0,.08,0,.07a.17.17,0,0,1-.12,0c-.08-.07-.13-.18-.22-.22s-.17,0-.25,0,.05.19.11.23a1.61,1.61,0,0,0,.33.12.46.46,0,0,1,.33.63.48.48,0,0,1-.69.2Z"/><path d="M22.17,20.25l-.72.05c-.05,0-.09,0-.14-.05a.91.91,0,0,0,.08-.13.68.68,0,0,0,.12-.22,4.46,4.46,0,0,0-.05-.63c0-.07-.09-.13-.15-.2l-.1-.11s.07-.07.11-.08a4.8,4.8,0,0,1,.48-.12c0,.34.06.67.08,1,0,.15,0,.31.21.34C22.11,20.09,22.13,20.17,22.17,20.25Z"/><path d="M21.63,18.15c.06.09.17.18.16.25a.33.33,0,0,1-.21.19c-.06,0-.19-.12-.19-.19s.1-.16.15-.24Z"/></g><path class="cls-4" d="M27.92,14.83c-.18-.35-.34-.65-.49-1a.38.38,0,0,1,.12-.55c.14-.13.29-.24.46-.38l-.88.17c-.06-.34-.12-.65-.16-1a.26.26,0,0,0-.21-.27l-.41-.17c0,.09,0,.15,0,.21a3.86,3.86,0,0,1,0,2.05,2.46,2.46,0,0,1-.95,1.29,2.53,2.53,0,0,1-1.31.36c-.59,0-1.18,0-1.82,0l-.1,1.22H22l.08-1.24a1.42,1.42,0,0,0-.84,0,4.37,4.37,0,0,1-2.29.36,5.83,5.83,0,0,0-1.18,0,5.24,5.24,0,0,1-2.48-.38H15.2c0,.37.05.73.07,1.09,0,.15,0,.3,0,.45s-.08.25-.28.21a10.7,10.7,0,0,0-.44-3.22l.26-.08c.09.34.16.67.25,1a.44.44,0,0,0,.2.26,4,4,0,0,0,1.58.42c.46,0,.93,0,1.4,0a5.6,5.6,0,0,1-.36-.66,1.48,1.48,0,0,1,.15-1,5.25,5.25,0,0,1,1.26-1.63l.15-.14A.65.65,0,0,0,18.9,12a1.89,1.89,0,0,0-.53,0,2.09,2.09,0,0,1-1.28-.16l-1.44-.71a.23.23,0,0,0-.31,0,3.73,3.73,0,0,1-1.81.71c.37.07.72.12,1.07.2s.4.13.41.52c0,.24,0,.49,0,.75a4.65,4.65,0,0,1-1.89-.41c.33.35.67.69,1,1.06a1.41,1.41,0,0,1,.46,1.31l-.37-.59-.29.77-.12-.21L12.58,13c-.1-.2-.19-.23-.35-.06-.33.37-.65.76-1,1.16s-.47.71-.76,1.06l0-.41-.54.44a.51.51,0,0,1,0-.56c.27-.43.57-.84.87-1.25.16-.22.37-.4.56-.62H9.76a11,11,0,0,1,0,1.29,2.11,2.11,0,0,1-.32.74c-.27.49-.56,1-.83,1.43a.44.44,0,0,1-.46.23l.12-.21c.38-.66.77-1.31,1.14-2a2,2,0,0,0,0-1.41,1.73,1.73,0,0,0-.58-1,1.4,1.4,0,0,0-1.5-.23,3.77,3.77,0,0,0-1.23.89A16.87,16.87,0,0,0,3.58,15.7l-.07.09-.27-.09c.3-.45.55-.9.87-1.29.61-.75,1.25-1.49,1.9-2.2a3,3,0,0,1,1.77-1l-.12-.09A4.33,4.33,0,0,1,5.41,7.78c-.07-.46,0-.93-.08-1.39a.29.29,0,0,0,0-.16A2,2,0,0,1,5,5,3,3,0,0,1,6.84,2.11a2.72,2.72,0,0,1,2.39.12.66.66,0,0,0,.34.06,8.73,8.73,0,0,1,3.48.41.3.3,0,0,0,.26,0,2.6,2.6,0,0,1,1.35-.55,1.62,1.62,0,0,1,1.12.35,2.89,2.89,0,0,1,.92,3,1.56,1.56,0,0,0-.07,1,5.69,5.69,0,0,1-.27,3.29,12.4,12.4,0,0,1-.62,1.09l1.19.6a2.75,2.75,0,0,0,1.6.25,2.16,2.16,0,0,1,.83.11c.11,0,.21.13.35.23a7.81,7.81,0,0,1,2.1-1.22,6.08,6.08,0,0,1,2.48-.4c-.13-.14-.24-.25-.34-.37a3.3,3.3,0,0,1-.65-3c.07-.33.2-.64.3-1a.5.5,0,0,0,0-.27,3.59,3.59,0,0,1-.26-2.09,2.78,2.78,0,0,1,2.08-2,2.85,2.85,0,0,1,2.19.3,1.37,1.37,0,0,0,1,.16,5.44,5.44,0,0,1,2.85.29.31.31,0,0,0,.26,0,2.19,2.19,0,0,1,3.55,1.42,2.43,2.43,0,0,1-.7,2.07.39.39,0,0,0-.1.41,3.7,3.7,0,0,1,.07,1.72c-.07.28,0,.59-.06.88A4,4,0,0,1,33,11.19a2.4,2.4,0,0,1-.65.27,33.67,33.67,0,0,1,2.5,5.29.27.27,0,0,1-.37-.21,33.2,33.2,0,0,0-2.4-5c-.27.29-.19.66-.26,1a.16.16,0,0,1-.22.15l-.6-.14a6.25,6.25,0,0,1,1.22,4l-.23,0L31.7,14.4h-.09c.08.38-.23.41-.43.54-.1-.4-.16-.81-.29-1.19a5.45,5.45,0,0,0-.47-1,.7.7,0,0,0-.83-.26.46.46,0,0,0-.15.16l-1.29,1.89A3.46,3.46,0,0,1,27.92,14.83Zm2.45-3.35-.31-.14a1.83,1.83,0,0,1-.89-.78,2.76,2.76,0,0,1-.28-1.91,3.19,3.19,0,0,1,2.52-2.51,2.43,2.43,0,0,1,2.17.34c.22-.11.32-.09.43.11a1,1,0,0,1,.08.26c0,.19.09.38.14.57l.07,0a.85.85,0,0,0,0-.16,5.28,5.28,0,0,0-.42-1.74c-.17-.4-.39-.77-.59-1.16A2,2,0,0,0,33,4,4.94,4.94,0,0,0,28.32,2.5a.45.45,0,0,1-.17.52,3.59,3.59,0,0,0-.4.38.51.51,0,0,1-.74.13l-.09.08L25.21,5.05s-.07,0-.07.08c0,.4-.32.63-.56.88a.69.69,0,0,1-.76.21,13.22,13.22,0,0,0-.31,1.32,2.73,2.73,0,0,0,1,2.67,21.77,21.77,0,0,0,2,1.25,2,2,0,0,0,1.33.22,9.85,9.85,0,0,1,2,0,.71.71,0,0,0,.29,0C30.22,11.61,30.27,11.55,30.37,11.48Zm-24.76-5A5.14,5.14,0,0,0,6.2,9.3a4.21,4.21,0,0,0,3,2.06l-.09.3,0,0,.11.19,0,0,0-.35h2.18a2,2,0,0,1-.8-1.41,5.53,5.53,0,0,1,0-1.15,2.53,2.53,0,0,1,1.38-2,4.91,4.91,0,0,1,1.05-.39,2.11,2.11,0,0,1,2.22.44h0l0-.19a.65.65,0,0,1,.43,1,.3.3,0,0,0,0,.21,4.81,4.81,0,0,1,0,1.89c-.07.28-.19.55-.28.82l.05,0c.16-.25.34-.49.48-.75a3.83,3.83,0,0,0,.46-1.81,5.88,5.88,0,0,0-.11-1.68,5,5,0,0,0-2.5-3.09,7.35,7.35,0,0,0-4-.81.13.13,0,0,0-.06,0A1.1,1.1,0,0,1,9.8,3a1,1,0,0,1-.53.68.68.68,0,0,1-.44,0c-.2-.08-.3,0-.42.14A7.51,7.51,0,0,1,6.94,5.34a.16.16,0,0,0-.07.12A1.28,1.28,0,0,1,5.61,6.49Zm17.47,8.94c.47,0,.86,0,1.25-.11A2,2,0,0,0,25.38,15a2.2,2.2,0,0,0,.77-1.11A3.63,3.63,0,0,0,26,11.59a.32.32,0,0,0-.1-.13l-1.07-.64a.66.66,0,0,0-.2-.06,5,5,0,0,0-1.73.06,7.17,7.17,0,0,0-3.85,2.26,3.26,3.26,0,0,0-.88,1.47.93.93,0,0,0,.77,1.16,4,4,0,0,0,2.34-.4.43.43,0,0,1,.25-.05Zm6-6.23a1.47,1.47,0,0,0,0,.21,1.84,1.84,0,0,0,1,1.66,2.43,2.43,0,0,0,1.87.16c.16-.05.33-.07.49-.13a1.17,1.17,0,0,0,.45-.21A4.35,4.35,0,0,0,34,9.4,2,2,0,0,0,34.16,8a2.07,2.07,0,0,0-1.4-1.59,2.7,2.7,0,0,0-1.54.11A2.9,2.9,0,0,0,29.12,9.2Zm-13.5-.34c-.07-.42-.1-.78-.19-1.12a1.37,1.37,0,0,0-1.26-1.11,3.5,3.5,0,0,0-1.6.28,2.34,2.34,0,0,0-1.11.75,3,3,0,0,0-.56,2.23,1.71,1.71,0,0,0,1.54,1.67,3.55,3.55,0,0,0,1,0,2.11,2.11,0,0,0,1.89-1.5A12.51,12.51,0,0,0,15.62,8.86ZM5.27,5.08A1.52,1.52,0,0,0,5.49,6a.33.33,0,0,0,.38.19,1.12,1.12,0,0,0,.72-.83A3.74,3.74,0,0,1,7,4a1.25,1.25,0,0,1,.88-.7,1.51,1.51,0,0,1,.93.11c.3.13.52,0,.71-.39.09-.18,0-.29-.27-.46a2.5,2.5,0,0,0-2-.27A2.75,2.75,0,0,0,5.27,5.08ZM26.18,1.93a2.73,2.73,0,0,0-2.5,1.64,3.35,3.35,0,0,0,.21,2.29A.19.19,0,0,0,24.2,6c.12-.08.22-.18.33-.27a.73.73,0,0,0,.21-.91,1.39,1.39,0,0,1,.94-1.87,1.46,1.46,0,0,1,1.45.35c.13.13.24.15.37,0A6.33,6.33,0,0,1,28,2.82c.14-.12.12-.21,0-.3A3.59,3.59,0,0,0,26.18,1.93Zm8.11,3.86a2,2,0,0,0,0-3.07,1.72,1.72,0,0,0-2.38-.07c.4.33.81.67,1.22,1a.28.28,0,0,0,.22,0,.76.76,0,0,1,1,.43,1.31,1.31,0,0,1-.17,1.34ZM13.52,2.88a6.31,6.31,0,0,1,.73.41c.27.2.53.35.87.16,0,0,.05,0,.08,0a.78.78,0,0,1,.92.81c0,.26,0,.52,0,.78a1.18,1.18,0,0,0,.24.65c.06-.16.12-.28.15-.4A2.65,2.65,0,0,0,16,3.05,1.55,1.55,0,0,0,13.52,2.88Z"/><path class="cls-4" d="M1.8,16.55h.27c0,.32.29.45.54.61a8.08,8.08,0,0,0,3.87,1.06,45.12,45.12,0,0,0,5.33-.06c1.61-.1,3.22-.23,4.83-.36l4.2-.35c1.55-.13,3.11-.26,4.66-.36a57.22,57.22,0,0,1,7-.14,15,15,0,0,1,3.58.55c.12,0,.19.07.19.22,0,1.79,0,3.57,0,5.36a.76.76,0,0,1,0,.14,4.42,4.42,0,0,0-3.09-1.91A17.07,17.07,0,0,0,29,21c-1.34,0-2.69.11-4,.2s-2.52.21-3.78.32l-4,.35c-1.32.11-2.64.23-4,.32a52.76,52.76,0,0,1-6.77.11A12.54,12.54,0,0,1,3,21.72a8.53,8.53,0,0,1-1.06-.5A.28.28,0,0,1,1.8,21Zm.28.62v3.07c0,.85,0,.85.81,1.16a10.69,10.69,0,0,0,3.58.65c1.62.05,3.25,0,4.87,0,.51,0,1,0,1.54-.06,1.54-.12,3.08-.26,4.62-.4L21,21.29c1.25-.11,2.49-.23,3.74-.32s2.31-.14,3.46-.19a24.31,24.31,0,0,1,4.75.19,5.27,5.27,0,0,1,2.1.73c.32.21.66.4,1,.61V17.76l-.18-.06c-.67-.13-1.34-.29-2-.37a32.82,32.82,0,0,0-5.43-.11c-2.09.1-4.18.25-6.27.4-1.58.11-3.15.26-4.73.39-1.74.14-3.48.29-5.23.4a39.81,39.81,0,0,1-5.46.09c-.79-.06-1.59-.18-2.38-.32A7.74,7.74,0,0,1,2.08,17.17Z"/><path class="cls-4" d="M9.58,16.21V18c-.46,0-.9,0-1.35,0a19.27,19.27,0,0,1-3.79-.31,6,6,0,0,1-1.95-.83l-.17-.13A.43.43,0,0,1,2.45,16a1.69,1.69,0,0,1,1.13,0c.63.17,1.24.39,1.87.58a7.55,7.55,0,0,0,1.94.36,3.11,3.11,0,0,0,2-.62Zm-.29.56h0a3.91,3.91,0,0,1-2.92.3c-.79-.19-1.58-.45-2.36-.69a2.72,2.72,0,0,0-1.23-.15,1.14,1.14,0,0,0-.3.17c.07.09.11.21.2.27a4.88,4.88,0,0,0,1.74.78A18.75,18.75,0,0,0,9,17.77l.31,0Z"/><path class="cls-4" d="M28.64,23.17V22.7c0-.4,0-.8,0-1.2,0-.13,0-.18.18-.2a12.76,12.76,0,0,1,5.62.63,2.77,2.77,0,0,1,1.28.87.47.47,0,0,1,.14.48.38.38,0,0,1-.44.23,9.08,9.08,0,0,1-1.18-.2c-.86-.23-1.71-.54-2.58-.74a3.34,3.34,0,0,0-2.92.58Zm.28-.5.13-.06a3.71,3.71,0,0,1,2.15-.39,11.06,11.06,0,0,1,2.27.55c.52.16,1.05.32,1.58.46a2.44,2.44,0,0,0,.54,0l0-.07a1.25,1.25,0,0,0-.16-.24,2.38,2.38,0,0,0-1.11-.73,12.74,12.74,0,0,0-3.66-.69c-.59,0-1.17,0-1.76,0Z"/><path class="cls-4" d="M7.09,14.2a.36.36,0,0,1-.39-.4,1.23,1.23,0,0,1,1-1,.37.37,0,0,1,.4.37A1.19,1.19,0,0,1,7.09,14.2Z"/><path class="cls-4" d="M28.72,7.58a.69.69,0,0,1-.7-.67.69.69,0,1,1,1.38,0A.69.69,0,0,1,28.72,7.58Z"/><path class="cls-4" d="M10.39,6.14a.66.66,0,0,1,.63.7.67.67,0,0,1-.65.69.69.69,0,0,1-.64-.71A.67.67,0,0,1,10.39,6.14Z"/><path class="cls-4" d="M24.05,12.07a.79.79,0,0,1,.84.76.87.87,0,0,1-.89.81.81.81,0,0,1-.84-.77A.85.85,0,0,1,24.05,12.07Z"/><path class="cls-4" d="M32.33,10.34l-.83.36L31,10l.36-.21.28.38.67-.32a.42.42,0,0,0,.12-.55L32,8.65a.2.2,0,0,1,0-.27c.09-.13.14-.33.26-.4s.29,0,.45,0l.93.06a.73.73,0,0,1-.11.87,7.62,7.62,0,0,0-.67.91,1,1,0,0,0-.08.26l.57-.3.12.32-1,.58Z"/><path class="cls-4" d="M14.37,10.94,14,10.49l-.65.36a.16.16,0,0,1-.24,0l-.65-.58.3-.27.36.31s.09.08.14.09a1.43,1.43,0,0,0,.67-.43.48.48,0,0,0-.1-.6c-.18-.17-.32-.38-.48-.56a.19.19,0,0,1,0-.26c.08-.14.15-.29.19-.38h1.27c.13,0,.18,0,.21.16.15.52.16.52-.2.91a1.39,1.39,0,0,0-.44.8.3.3,0,0,0,.13.34l.28-.21.22.34Z"/><path class="cls-4" d="M8.85,18.8v1.84c0,.14,0,.32.18.36,0,0,.05.1,0,.1a.21.21,0,0,1-.13.07H7.78c-.13,0-.27,0-.4,0s-.09-.07-.17-.14c.35,0,.34,0,.26-.3s-.16-.37-.43-.33c0,0-.07,0-.1,0-.38-.05-.5,0-.59.4,0,0,.08.11.13.16L6.6,21l0,.05L5.68,21c.08-.08.12-.15.17-.15a.38.38,0,0,0,.33-.25c.25-.52.51-1,.75-1.56.07-.15.15-.24.31-.18.23.63.46,1.26.7,1.88a.45.45,0,0,0,.22.23c.22.08.33,0,.33-.25,0-.47,0-.95,0-1.42,0-.09-.09-.18-.14-.27s-.06-.08-.06-.11a.11.11,0,0,1,.08-.07ZM6.64,20.11l.65.05L7,19.34Z"/><path class="cls-4" d="M17.85,19.49l.18.05a.63.63,0,0,1,0,1.21c-.43.07-.87.1-1.31.13,0,0-.08-.07-.14-.12.38-.14.37-.14.34-.51s-.08-.84-.1-1.26c0-.18-.06-.29-.26-.28,0,0-.08-.05-.12-.08s.07-.1.1-.1c.4,0,.79-.09,1.18-.08a.52.52,0,0,1,.57.57C18.26,19.23,18.17,19.34,17.85,19.49Zm-.56.18c0,.25,0,.48.05.71s.12.26.31.23.34-.17.36-.45-.1-.45-.33-.49A2.52,2.52,0,0,0,17.29,19.67Zm-.08-1,.06.81c.2,0,.44,0,.5-.24a.78.78,0,0,0-.06-.5C17.61,18.57,17.41,18.63,17.21,18.68Z"/><path class="cls-4" d="M27.58,18l.53.91.58-.9a1.59,1.59,0,0,1-.28-.05s-.06-.05-.09-.08.06-.08.09-.08c.28,0,.55,0,.83,0,0,0,.08.06.08.09s-.06.09-.09.09c-.24,0-.36.15-.48.32a1.67,1.67,0,0,1-.24.35,1.28,1.28,0,0,0-.29,1.06c0,.14,0,.23.2.24s.1.07.14.11-.09.07-.14.07h-1l0-.08s.09-.1.14-.1.21-.12.23-.29a1.29,1.29,0,0,0-.31-1c-.12-.13-.19-.3-.31-.42a2,2,0,0,0-.33-.24l-.12-.12s.08-.07.13-.07h.89s.09,0,.14.07a.41.41,0,0,1-.13.1A1.08,1.08,0,0,1,27.58,18Z"/><path class="cls-4" d="M23.51,19a3.91,3.91,0,0,0,0-.49,1.16,1.16,0,0,0-.18-.27s-.07-.08-.07-.11.05-.08.09-.09l.49-.12c0,.4.06.78.09,1.15s0,.52.05.78,0,.29.2.33.05.13,0,.16a.64.64,0,0,1-.52,0c-.47.24-.81.21-1.06-.1a.87.87,0,0,1-.05-1A.72.72,0,0,1,23.51,19Zm.07.79c0-.16,0-.26,0-.37s-.14-.28-.31-.3a.31.31,0,0,0-.39.22.81.81,0,0,0,.06.71.43.43,0,0,0,.29.19.6.6,0,0,0,.35-.2C23.6,19.94,23.58,19.8,23.58,19.75Z"/><path class="cls-4" d="M32.12,18.92l.62.08c-.05.33-.08.65-.12,1,0,.16-.07.32.13.42a.16.16,0,0,1,0,.15c-.11.09-.5-.05-.55-.16a2.26,2.26,0,0,1-.5.08.4.4,0,0,1-.41-.48l.09-.69c0-.12,0-.23-.12-.29s-.05-.09-.09-.18l.64.07c0,.29-.07.56-.11.84a1.23,1.23,0,0,0,0,.19c0,.16,0,.3.22.31a.29.29,0,0,0,.36-.26c0-.17,0-.35.06-.52s0-.27-.14-.34S32.14,19,32.12,18.92Z"/><path class="cls-4" d="M9,19.68h.56a.16.16,0,0,1,.11,0,.61.61,0,0,1,0,.13s-.07.1-.06.14c.06.22.13.43.23.7.09-.33.17-.61.26-.88,0-.06.08-.1.13-.15s.1.08.12.14c.11.26.21.52.34.84l.22-.79s-.08,0-.1-.06-.06-.08-.05-.1a.13.13,0,0,1,.1-.07h.43a.75.75,0,0,1,0,.16,1.1,1.1,0,0,0-.18.26c-.11.29-.19.59-.29.88a1.3,1.3,0,0,1-.15.2c-.05-.06-.13-.11-.16-.18-.1-.25-.19-.5-.31-.79-.09.32-.18.6-.27.87,0,.06-.08.1-.12.14s-.12-.08-.14-.13c-.11-.26-.2-.53-.31-.78s-.07-.33-.26-.39C9,19.84,9,19.76,9,19.68Z"/><path class="cls-4" d="M31,19.46a.82.82,0,0,1-1.63,0,.82.82,0,0,1,1.63,0Zm-.39-.06h0a.48.48,0,0,0,0-.12c0-.24-.13-.37-.34-.39a.36.36,0,0,0-.41.31,2.09,2.09,0,0,0,0,.56.36.36,0,0,0,.33.35.37.37,0,0,0,.39-.29C30.52,19.67,30.54,19.53,30.57,19.4Z"/><path class="cls-4" d="M12.32,20.85c-.12.06-.23.14-.35.19a.36.36,0,0,1-.45-.17.43.43,0,0,1,.1-.54,2.4,2.4,0,0,1,.46-.21c.11,0,.18-.1.13-.21a1.37,1.37,0,0,0-.18-.24l-.21.17s0,.1-.05.11a2.44,2.44,0,0,1-.26.06.55.55,0,0,1,0-.24.74.74,0,0,1,.73-.27.43.43,0,0,1,.38.44c0,.2,0,.41.06.61s0,.13,0,.21l.24-.23.05,0c0,.16-.07.34-.26.38a1.26,1.26,0,0,1-.41-.07Zm-.07-.61-.25.1s-.07,0-.08.06a.48.48,0,0,0-.05.28c0,.05.17.08.25.07a.17.17,0,0,0,.15-.23A2.16,2.16,0,0,1,12.25,20.24Z"/><path class="cls-4" d="M12.74,19.46l.73-.07,0,.05-.14.2.41.72.22-.81-.16-.15a.83.83,0,0,1,.16-.09l.4,0c0,.08,0,.17-.05.17-.17,0-.17.17-.21.29-.16.54-.32,1.08-.47,1.62-.07.24-.19.41-.46.42a.37.37,0,0,1-.14-.07s0-.11.08-.13a.76.76,0,0,0,.34-1c-.13-.21-.25-.42-.39-.63a1.6,1.6,0,0,0-.26-.26A1,1,0,0,1,12.74,19.46Z"/><path class="cls-4" d="M24.71,19.51a.57.57,0,0,0,.25.54.45.45,0,0,0,.51-.15c.05,0,.13,0,.25-.1a.74.74,0,0,1-.83.48.81.81,0,0,1-.07-1.54.66.66,0,0,1,.85.69l-.48.05Zm.56-.24c0-.25-.11-.36-.29-.35s-.26.13-.27.4Z"/><path class="cls-4" d="M19.13,19.93c0,.08,0,.13,0,.18s.11.36.3.37a.77.77,0,0,0,.42-.17c.09-.06.14-.14.23,0a.71.71,0,0,1-1.19.17.85.85,0,0,1,.2-1.25.66.66,0,0,1,1,.64l-.48.05Zm0-.19.57-.06c0-.2-.08-.34-.28-.35S19.15,19.46,19.13,19.74Z"/><path class="cls-4" d="M20.39,20l.13.13a1.61,1.61,0,0,0,.29.24c.06,0,.17-.07.25-.1s-.06-.2-.12-.24a3.23,3.23,0,0,0-.42-.2.44.44,0,0,1-.21-.51A.37.37,0,0,1,20.7,19a1,1,0,0,1,.32.08l.16-.08a1.39,1.39,0,0,1,.06.19c0,.1,0,.21,0,.38l-.17-.13c-.08-.07-.14-.18-.23-.23s-.15,0-.22.05,0,.18.08.22a1.19,1.19,0,0,0,.34.16.49.49,0,0,1,.31.63.52.52,0,0,1-.69.24c-.08,0-.19,0-.3,0l0-.53Z"/><path class="cls-4" d="M14.65,20.73c0-.19-.05-.32-.06-.46s0-.08.05-.13.09.05.11.09.18.25.34.23a.28.28,0,0,0,.2-.15s0-.15-.11-.18a2.66,2.66,0,0,0-.39-.16.43.43,0,0,1-.26-.6c.1-.23.34-.29.61-.15l.2-.15c0,.19.06.34.08.49s0,.07,0,.07a.17.17,0,0,1-.12,0c-.08-.07-.13-.18-.22-.22s-.17,0-.25,0a.55.55,0,0,0,.11.23,1.61,1.61,0,0,0,.33.12.46.46,0,0,1,.33.63.49.49,0,0,1-.7.2Z"/><path class="cls-4" d="M22.37,20.45l-.72.05a.35.35,0,0,1-.14-.06.83.83,0,0,1,.08-.12c0-.07.11-.14.11-.22a3.33,3.33,0,0,0,0-.63c0-.07-.1-.13-.15-.2l-.1-.11s.07-.07.11-.08A3.72,3.72,0,0,1,22,19c0,.34.06.66.08,1,0,.15,0,.3.2.34C22.31,20.29,22.33,20.37,22.37,20.45Z"/><path class="cls-4" d="M21.83,18.35c.06.08.17.17.16.24a.32.32,0,0,1-.21.2c-.06,0-.19-.12-.19-.19s.09-.16.15-.25Z"/></g></g></svg>