<svg xmlns="http://www.w3.org/2000/svg" viewBox="0 0 6.52 6.52"><defs><style>.cls-1{isolation:isolate;}.cls-2{opacity:0.15;}.cls-2,.cls-3{mix-blend-mode:multiply;}.cls-3{opacity:0.7;}.cls-4{fill:#fff;}</style></defs><title>test2</title><g class="cls-1"><g id="Layer_1" data-name="Layer 1"><g class="cls-2"><path d="M6.35,3.64a1,1,0,0,0-.88-1,1.28,1.28,0,0,0-.83.39,1.26,1.26,0,0,0-.84-.39,1,1,0,0,0-.88,1,1.25,1.25,0,0,0,.19.73A7.53,7.53,0,0,0,4.64,5.61,7.54,7.54,0,0,0,6.16,4.37,1.25,1.25,0,0,0,6.35,3.64Z"/><path d="M2.74,4.58a1.68,1.68,0,0,1-.25-1A1.38,1.38,0,0,1,3.8,2.24a1.55,1.55,0,0,1,.84.27,1.54,1.54,0,0,1,.83-.27l.17,0A1.49,1.49,0,0,0,4.25.91a2.07,2.07,0,0,0-1.33.62A2,2,0,0,0,1.58.91,1.53,1.53,0,0,0,.17,2.45,1.92,1.92,0,0,0,.48,3.62a11.88,11.88,0,0,0,2.44,2s.21-.13.5-.34A2.91,2.91,0,0,1,2.74,4.58Z"/><path d="M6.5,3.78a1,1,0,0,0-.89-1,1.28,1.28,0,0,0-.83.39,1.26,1.26,0,0,0-.84-.39,1,1,0,0,0-.88,1,1.23,1.23,0,0,0,.19.73A7.66,7.66,0,0,0,4.78,5.76,7.67,7.67,0,0,0,6.3,4.51,1.3,1.3,0,0,0,6.5,3.78Z"/><path d="M2.88,4.73a1.77,1.77,0,0,1-.25-1A1.38,1.38,0,0,1,3.94,2.39a1.55,1.55,0,0,1,.84.26,1.54,1.54,0,0,1,.83-.26h.18a1.5,1.5,0,0,0-1.4-1.35,2.07,2.07,0,0,0-1.33.62,2,2,0,0,0-1.33-.62A1.54,1.54,0,0,0,.31,2.59,2,2,0,0,0,.62,3.76a12.16,12.16,0,0,0,2.44,2l.51-.34A3,3,0,0,1,2.88,4.73Z"/></g><g class="cls-3"><path d="M6.21,3.49a1,1,0,0,0-.88-1,1.32,1.32,0,0,0-.84.39,1.22,1.22,0,0,0-.83-.39,1,1,0,0,0-.89,1,1.34,1.34,0,0,0,.2.74A7.53,7.53,0,0,0,4.5,5.47,7.82,7.82,0,0,0,6,4.23,1.26,1.26,0,0,0,6.21,3.49Z"/><path d="M2.6,4.44a1.69,1.69,0,0,1-.25-1A1.37,1.37,0,0,1,3.66,2.1a1.47,1.47,0,0,1,.84.27,1.46,1.46,0,0,1,.83-.27H5.5A1.51,1.51,0,0,0,4.1.76a2.09,2.09,0,0,0-1.33.63A2,2,0,0,0,1.44.76,1.54,1.54,0,0,0,0,2.31,2.06,2.06,0,0,0,.33,3.48a12.15,12.15,0,0,0,2.45,2s.21-.13.5-.34A3.34,3.34,0,0,1,2.6,4.44Z"/></g><path class="cls-4" d="M6.35,3.64a1,1,0,0,0-.88-1,1.28,1.28,0,0,0-.83.39,1.26,1.26,0,0,0-.84-.39,1,1,0,0,0-.88,1,1.25,1.25,0,0,0,.19.73A7.53,7.53,0,0,0,4.64,5.61,7.54,7.54,0,0,0,6.16,4.37,1.25,1.25,0,0,0,6.35,3.64Z"/><path class="cls-4" d="M2.74,4.58a1.68,1.68,0,0,1-.25-1A1.38,1.38,0,0,1,3.8,2.24a1.55,1.55,0,0,1,.84.27,1.54,1.54,0,0,1,.83-.27l.17,0A1.49,1.49,0,0,0,4.25.91a2.07,2.07,0,0,0-1.33.62A2,2,0,0,0,1.58.91,1.53,1.53,0,0,0,.17,2.45,1.92,1.92,0,0,0,.48,3.62a11.88,11.88,0,0,0,2.44,2s.21-.13.5-.34A2.91,2.91,0,0,1,2.74,4.58Z"/></g></g></svg>