<svg xmlns="http://www.w3.org/2000/svg" viewBox="0 0 6.52 6.52"><defs><style>.cls-1{isolation:isolate;}.cls-2{fill:#fff;}.cls-3{opacity:0.15;}.cls-3,.cls-4{mix-blend-mode:multiply;}.cls-4{opacity:0.7;}</style></defs><title>test2</title><g class="cls-1"><g id="Layer_1" data-name="Layer 1"><path class="cls-2" d="M5.56,1A.92.92,0,0,0,5.29.27.93.93,0,0,0,3.8,1.33L1.33,3.8A.93.93,0,0,0,.27,5.29.92.92,0,0,0,1,5.56a.92.92,0,0,0,.27.69A.93.93,0,0,0,2.72,5.19L5.19,2.72A.93.93,0,0,0,6.25,1.23.92.92,0,0,0,5.56,1Z"/><g class="cls-3"><path d="M5.33,1.19A.83.83,0,0,0,3.91.57a.81.81,0,0,0-.16,1L1.52,3.75a.81.81,0,0,0-.95.16.83.83,0,0,0,.62,1.42A.83.83,0,0,0,2.61,6a.81.81,0,0,0,.16-1L5,2.77a.81.81,0,0,0,1-.16A.84.84,0,0,0,6,1.43.83.83,0,0,0,5.33,1.19Z"/><path d="M5.47,1.33A.83.83,0,0,0,5.23.71a.84.84,0,0,0-1.18,0,.83.83,0,0,0-.16,1L1.66,3.89a.83.83,0,0,0-.95.16.85.85,0,0,0,0,1.18.83.83,0,0,0,.62.24.84.84,0,0,0,1.42.62.81.81,0,0,0,.16-1L5.14,2.91a.81.81,0,0,0,1-.16.82.82,0,0,0,0-1.17A.8.8,0,0,0,5.47,1.33Z"/></g><g class="cls-4"><path d="M5.19,1.05A.8.8,0,0,0,4.94.43a.82.82,0,0,0-1.17,0,.81.81,0,0,0-.16,1L1.38,3.61a.81.81,0,0,0-.95.16.82.82,0,0,0,0,1.17.8.8,0,0,0,.62.25.83.83,0,0,0,.24.62.84.84,0,0,0,1.18,0,.83.83,0,0,0,.16-.95L4.86,2.63a.83.83,0,0,0,.95-.16.85.85,0,0,0,0-1.18A.83.83,0,0,0,5.19,1.05Z"/></g><path class="cls-2" d="M5.33,1.19A.83.83,0,0,0,3.91.57a.81.81,0,0,0-.16,1L1.52,3.75a.81.81,0,0,0-.95.16.83.83,0,0,0,.62,1.42A.83.83,0,0,0,2.61,6a.81.81,0,0,0,.16-1L5,2.77a.81.81,0,0,0,1-.16A.84.84,0,0,0,6,1.43.83.83,0,0,0,5.33,1.19Z"/></g></g></svg>