<svg xmlns="http://www.w3.org/2000/svg" viewBox="0 0 6.52 6.52"><defs><style>.cls-1{isolation:isolate;}.cls-2{opacity:0.15;}.cls-2,.cls-3{mix-blend-mode:multiply;}.cls-3{opacity:0.7;}.cls-4{fill:#fff;}</style></defs><title>test2</title><g class="cls-1"><g id="Layer_1" data-name="Layer 1"><g class="cls-2"><path d="M3.26,5.94l-.41-.4C1.33,4.19.34,3.29.34,2.18A1.58,1.58,0,0,1,2,.58a1.75,1.75,0,0,1,1.31.61A1.75,1.75,0,0,1,4.57.58a1.58,1.58,0,0,1,1.61,1.6c0,1.11-1,2-2.51,3.36Z"/><path d="M3.4,6.09,3,5.68C1.48,4.34.48,3.43.48,2.32A1.58,1.58,0,0,1,2.09.72a1.75,1.75,0,0,1,1.31.61A1.75,1.75,0,0,1,4.71.72a1.58,1.58,0,0,1,1.61,1.6c0,1.11-1,2-2.51,3.36Z"/></g><g class="cls-3"><path d="M3.12,5.8l-.41-.41C1.19,4.05.2,3.15.2,2A1.58,1.58,0,0,1,1.81.43a1.76,1.76,0,0,1,1.31.62A1.76,1.76,0,0,1,4.43.43,1.58,1.58,0,0,1,6,2c0,1.11-1,2-2.51,3.35Z"/></g><g id="favorite"><path class="cls-4" d="M3.26,5.94l-.41-.4C1.33,4.19.34,3.29.34,2.18A1.58,1.58,0,0,1,2,.58a1.75,1.75,0,0,1,1.31.61A1.75,1.75,0,0,1,4.57.58a1.58,1.58,0,0,1,1.61,1.6c0,1.11-1,2-2.51,3.36Z"/></g></g></g></svg>