<svg xmlns="http://www.w3.org/2000/svg" viewBox="0 0 38.55 24.66"><defs><style>.cls-1{isolation:isolate;}.cls-2{opacity:0.15;}.cls-2,.cls-3{mix-blend-mode:multiply;}.cls-4{fill:#fff;}</style></defs><title>convert-CUSTOMIZE-SVG-03</title><g class="cls-1"><g id="Layer_1" data-name="Layer 1"><g class="cls-2"><path d="M12.24,6.83A2.93,2.93,0,0,1,9.31,3.92a2.94,2.94,0,0,1,5.88,0A2.91,2.91,0,0,1,12.24,6.83Zm-.36-4a3.43,3.43,0,0,1,.12.39c.08.6.15,1.2.23,1.8,0,.14,0,.27,0,.44l.73-.1A1.81,1.81,0,0,1,12.83,5c-.08-.54-.15-1.09-.21-1.63,0-.21,0-.43,0-.65Z"/><path d="M15.19,20.74a2.94,2.94,0,1,1-2.93-2.92A2.92,2.92,0,0,1,15.19,20.74Zm-2.25,1.41a3.43,3.43,0,0,1-.12-.39c-.08-.61-.16-1.23-.23-1.84a2.74,2.74,0,0,1,0-.4l-.73.09A2.52,2.52,0,0,1,12,20c.08.61.16,1.21.23,1.82a3.3,3.3,0,0,1,0,.45Z"/><path d="M26.34,6.83a2.91,2.91,0,1,1,0-5.82,2.94,2.94,0,0,1,3,2.92A2.93,2.93,0,0,1,26.34,6.83ZM24.57,3a1.75,1.75,0,0,1,.13.29c.08.47.15.95.23,1.42a.78.78,0,0,0,.87.76,3.77,3.77,0,0,0,1.06-.15c.62-.17.79-.5.68-1.13-.07-.41-.13-.82-.19-1.23a2.67,2.67,0,0,1,0-.4l-.68.11A2.54,2.54,0,0,1,26.8,3c.07.39.13.78.19,1.17s0,.68-.51.78a2,2,0,0,1-.42,0,.49.49,0,0,1-.55-.47c-.08-.41-.14-.82-.2-1.23,0-.14,0-.27,0-.43Z"/><path d="M26.35,17.82a2.91,2.91,0,1,1-2.94,2.87A2.92,2.92,0,0,1,26.35,17.82Zm-1.76,1.93c0,.15.1.26.12.39.08.44.15.89.22,1.34a.79.79,0,0,0,.8.75A2.63,2.63,0,0,0,27,22a.74.74,0,0,0,.53-.88c0-.43-.13-.86-.19-1.29,0-.17,0-.34,0-.53l-.68.11a1.36,1.36,0,0,1,.14.31c.07.39.12.79.19,1.19s0,.68-.52.79a2.45,2.45,0,0,1-.38,0,.5.5,0,0,1-.58-.48c-.08-.41-.14-.83-.2-1.25a2.54,2.54,0,0,1,0-.39Z"/><path d="M33.39,17.82a2.91,2.91,0,1,1-2.95,2.89A2.91,2.91,0,0,1,33.39,17.82Zm0,2a1.53,1.53,0,0,0-.16-.13.91.91,0,0,0-1.48.64,1.29,1.29,0,0,0,.23.8,4.13,4.13,0,0,0,1.42,1.24.26.26,0,0,0,.24,0,8.11,8.11,0,0,0,.77-.66A2.15,2.15,0,0,0,35,20.58a.92.92,0,0,0-.73-1.14A1.08,1.08,0,0,0,33.37,19.82Z"/><path d="M5.2,6.83a2.91,2.91,0,1,1,3-2.89A2.92,2.92,0,0,1,5.2,6.83ZM5.29,3V3l-.12-.14a1,1,0,0,0-1-.3.87.87,0,0,0-.62.76,1.46,1.46,0,0,0,.18.87,4.21,4.21,0,0,0,1,1.3.27.27,0,0,0,.26,0,11.74,11.74,0,0,0,1.14-.67A1.72,1.72,0,0,0,6.82,4,.87.87,0,0,0,6,2.81,3.35,3.35,0,0,0,5.29,3Z"/><path d="M33.38,6.83a2.94,2.94,0,0,1-2.94-2.9,2.95,2.95,0,0,1,5.89,0A2.93,2.93,0,0,1,33.38,6.83Zm0-3.81c-.09-.06-.15-.12-.22-.16a.91.91,0,0,0-1.43.68,1.4,1.4,0,0,0,.32.92,4.12,4.12,0,0,0,1.3,1.09.31.31,0,0,0,.28,0,11.54,11.54,0,0,0,.9-.81A1.81,1.81,0,0,0,35,3.77a.9.9,0,0,0-.79-1.13A1,1,0,0,0,33.38,3Z"/><path d="M5.21,17.82a2.91,2.91,0,1,1-2.94,2.89A2.91,2.91,0,0,1,5.21,17.82Zm.06,2-.11-.12a1,1,0,0,0-1-.28.81.81,0,0,0-.61.76,1.6,1.6,0,0,0,.11.72,3.64,3.64,0,0,0,1.1,1.45.27.27,0,0,0,.26,0,10.14,10.14,0,0,0,1-.58,1.91,1.91,0,0,0,.77-1,.87.87,0,0,0-.88-1.2A3,3,0,0,0,5.27,19.79Z"/><path d="M19.29,6.83a2.91,2.91,0,1,1,2.94-2.89A2.92,2.92,0,0,1,19.29,6.83ZM19.5,3l-.07-.08a1,1,0,0,0-1.07-.26.83.83,0,0,0-.54.91,1.87,1.87,0,0,0,.29.84,9.56,9.56,0,0,0,1,1.12.28.28,0,0,0,.28,0,11.33,11.33,0,0,0,1.17-.78,1.55,1.55,0,0,0,.54-.82.87.87,0,0,0-.93-1.16A3.33,3.33,0,0,0,19.5,3Z"/><path d="M19.31,17.82a2.91,2.91,0,1,1,0,5.81,2.91,2.91,0,1,1,0-5.81Zm.23,2-.16-.18a.91.91,0,0,0-1.54.42,1,1,0,0,0,0,.49,3.4,3.4,0,0,0,1.32,1.8.2.2,0,0,0,.21,0,11.48,11.48,0,0,0,1-.67,1.79,1.79,0,0,0,.69-1,.88.88,0,0,0-.71-1.14A1.06,1.06,0,0,0,19.54,19.83Z"/><path d="M12.44,7A2.93,2.93,0,0,1,9.51,4.12,2.94,2.94,0,1,1,12.44,7Zm-.37-4a1.58,1.58,0,0,1,.12.39c.09.6.16,1.2.23,1.8a3,3,0,0,1,0,.43l.72-.09A1.74,1.74,0,0,1,13,5.23c-.08-.54-.15-1.09-.21-1.63,0-.21,0-.43,0-.66Z"/><path d="M15.39,20.94A2.94,2.94,0,1,1,12.46,18,2.92,2.92,0,0,1,15.39,20.94Zm-2.25,1.41c0-.14-.1-.27-.12-.39-.08-.62-.16-1.23-.23-1.84a1.81,1.81,0,0,1,0-.4l-.73.09a2.17,2.17,0,0,1,.12.36c.08.6.16,1.21.23,1.82a3.38,3.38,0,0,1,0,.45Z"/><path d="M26.54,7a2.91,2.91,0,1,1,0-5.82,2.94,2.94,0,0,1,3,2.92A2.93,2.93,0,0,1,26.54,7ZM24.77,3.17a1.33,1.33,0,0,1,.12.3c.09.47.16.94.24,1.42a.78.78,0,0,0,.87.76,3.77,3.77,0,0,0,1.06-.15c.62-.17.79-.5.68-1.13-.07-.41-.13-.82-.19-1.23a2.67,2.67,0,0,1,0-.4l-.68.11a2.11,2.11,0,0,1,.13.34c.07.39.13.78.19,1.17s-.05.67-.51.78a1.5,1.5,0,0,1-.42,0,.48.48,0,0,1-.55-.46c-.08-.41-.14-.82-.2-1.23a3.08,3.08,0,0,1,0-.43Z"/><path d="M26.55,18a2.91,2.91,0,1,1-2.94,2.88A2.91,2.91,0,0,1,26.55,18ZM24.78,20a2.23,2.23,0,0,1,.13.39c.08.44.14.89.22,1.33a.79.79,0,0,0,.8.76,2.75,2.75,0,0,0,1.3-.21.74.74,0,0,0,.53-.88c-.05-.43-.13-.86-.19-1.29a4.45,4.45,0,0,1,0-.53l-.68.11a1,1,0,0,1,.13.31c.08.39.13.79.2,1.19s-.05.68-.52.79a2.58,2.58,0,0,1-.38,0,.5.5,0,0,1-.58-.48c-.08-.41-.14-.83-.2-1.25a2.47,2.47,0,0,1,0-.39Z"/><path d="M33.59,18a2.91,2.91,0,1,1-3,2.9A2.93,2.93,0,0,1,33.59,18Zm0,2a1.53,1.53,0,0,0-.16-.13.91.91,0,0,0-1.48.64,1.24,1.24,0,0,0,.23.79,4.06,4.06,0,0,0,1.42,1.25.3.3,0,0,0,.24,0,8.11,8.11,0,0,0,.77-.66,2.15,2.15,0,0,0,.65-1.09.92.92,0,0,0-.74-1.14A1.07,1.07,0,0,0,33.57,20Z"/><path d="M5.4,7A2.91,2.91,0,1,1,8.35,4.14,2.91,2.91,0,0,1,5.4,7Zm.09-3.86v.06l-.12-.14a1,1,0,0,0-1-.3.84.84,0,0,0-.62.76,1.46,1.46,0,0,0,.17.87,4.36,4.36,0,0,0,1,1.3.3.3,0,0,0,.26,0,10.08,10.08,0,0,0,1.14-.68A1.7,1.7,0,0,0,7,4.2.87.87,0,0,0,6.23,3,2.89,2.89,0,0,0,5.49,3.17Z"/><path d="M33.58,7a2.94,2.94,0,0,1-2.94-2.91,2.95,2.95,0,0,1,5.89,0A2.93,2.93,0,0,1,33.58,7Zm0-3.81c-.09-.06-.15-.12-.22-.16a.91.91,0,0,0-1.43.68,1.34,1.34,0,0,0,.32.92,4,4,0,0,0,1.3,1.09.28.28,0,0,0,.28,0,9.71,9.71,0,0,0,.9-.8A1.81,1.81,0,0,0,35.24,4a.9.9,0,0,0-.79-1.13A1,1,0,0,0,33.58,3.22Z"/><path d="M5.41,18a2.91,2.91,0,1,1-2.94,2.9A2.92,2.92,0,0,1,5.41,18Zm.06,2-.11-.12a1,1,0,0,0-1-.28.8.8,0,0,0-.61.76,1.77,1.77,0,0,0,.1.72A3.76,3.76,0,0,0,5,22.52a.29.29,0,0,0,.26,0,10,10,0,0,0,1-.58A1.85,1.85,0,0,0,7,21a.86.86,0,0,0-.87-1.2A3,3,0,0,0,5.47,20Z"/><path d="M19.49,7a2.91,2.91,0,1,1,2.94-2.89A2.92,2.92,0,0,1,19.49,7Zm.21-3.85s0,0-.07-.08a1,1,0,0,0-1.07-.26.85.85,0,0,0-.54.92,1.87,1.87,0,0,0,.29.84,9.45,9.45,0,0,0,1,1.12.3.3,0,0,0,.28,0c.4-.25.8-.5,1.17-.78a1.58,1.58,0,0,0,.54-.82A.87.87,0,0,0,20.36,3,4,4,0,0,0,19.7,3.18Z"/><path d="M19.51,18a2.91,2.91,0,1,1-3,2.89A2.91,2.91,0,0,1,19.51,18Zm.23,2c-.06-.06-.11-.12-.17-.17a.9.9,0,0,0-1.53.42,1.11,1.11,0,0,0,0,.48,3.46,3.46,0,0,0,1.33,1.81.26.26,0,0,0,.21,0c.35-.22.71-.42,1-.67a1.79,1.79,0,0,0,.69-1,.89.89,0,0,0-.71-1.14A1.09,1.09,0,0,0,19.74,20Z"/></g><g class="cls-3"><path d="M12.1,6.69A2.93,2.93,0,0,1,9.17,3.78,2.94,2.94,0,1,1,12.1,6.69Zm-.37-4a1.58,1.58,0,0,1,.12.39c.09.6.16,1.2.23,1.8a3,3,0,0,1,0,.43l.72-.09a1.74,1.74,0,0,1-.12-.34c-.08-.54-.15-1.09-.21-1.63,0-.21,0-.43,0-.66Z"/><path d="M15.05,20.6a2.94,2.94,0,1,1-2.93-2.93A2.92,2.92,0,0,1,15.05,20.6ZM12.8,22c0-.14-.1-.27-.12-.39-.08-.62-.16-1.23-.23-1.85a1.74,1.74,0,0,1,0-.39l-.73.09a2.17,2.17,0,0,1,.12.36c.08.6.16,1.21.23,1.82a3.38,3.38,0,0,1,0,.45Z"/><path d="M26.2,6.69a2.91,2.91,0,1,1,0-5.82,2.94,2.94,0,0,1,3,2.92A2.93,2.93,0,0,1,26.2,6.69ZM24.43,2.83a1.33,1.33,0,0,1,.12.3c.09.47.16.94.24,1.42a.78.78,0,0,0,.87.76,3.77,3.77,0,0,0,1.06-.15c.62-.17.79-.5.68-1.13-.07-.41-.13-.82-.19-1.23a2.67,2.67,0,0,1,0-.4l-.68.11a2.11,2.11,0,0,1,.13.34c.07.39.13.78.19,1.17s-.05.67-.51.78a1.5,1.5,0,0,1-.42,0,.48.48,0,0,1-.55-.46c-.08-.41-.14-.82-.2-1.23a3.08,3.08,0,0,1,0-.43Z"/><path d="M26.21,17.67a2.91,2.91,0,1,1-2.94,2.88A2.91,2.91,0,0,1,26.21,17.67Zm-1.77,1.94a2.23,2.23,0,0,1,.13.39c.08.44.14.89.22,1.33a.79.79,0,0,0,.8.76,2.75,2.75,0,0,0,1.3-.21.74.74,0,0,0,.53-.88c-.05-.43-.13-.86-.19-1.29a4.45,4.45,0,0,1,0-.53l-.68.11a1,1,0,0,1,.13.31c.08.39.13.79.2,1.19s-.05.68-.52.79a2.58,2.58,0,0,1-.38,0,.5.5,0,0,1-.58-.48c-.08-.41-.14-.83-.2-1.25a2.47,2.47,0,0,1,0-.39Z"/><path d="M33.25,17.67a2.91,2.91,0,1,1-2.95,2.9A2.93,2.93,0,0,1,33.25,17.67Zm0,2c-.07-.05-.11-.1-.16-.13a.91.91,0,0,0-1.48.64,1.24,1.24,0,0,0,.23.79,4,4,0,0,0,1.42,1.25.3.3,0,0,0,.24,0,8.11,8.11,0,0,0,.77-.66,2.15,2.15,0,0,0,.65-1.09.92.92,0,0,0-.74-1.14A1,1,0,0,0,33.23,19.68Z"/><path d="M5.06,6.69A2.91,2.91,0,1,1,8,3.8,2.92,2.92,0,0,1,5.06,6.69Zm.09-3.86v.06L5,2.75a1,1,0,0,0-1-.3.84.84,0,0,0-.62.76,1.46,1.46,0,0,0,.17.87,4.36,4.36,0,0,0,1,1.3.3.3,0,0,0,.26,0A10.08,10.08,0,0,0,6,4.72a1.7,1.7,0,0,0,.65-.86.87.87,0,0,0-.79-1.19A2.89,2.89,0,0,0,5.15,2.83Z"/><path d="M33.24,6.69A2.94,2.94,0,0,1,30.3,3.78a2.95,2.95,0,0,1,5.89,0A2.93,2.93,0,0,1,33.24,6.69Zm0-3.81c-.09-.06-.15-.12-.22-.16a.9.9,0,0,0-1.43.68,1.34,1.34,0,0,0,.32.92,4,4,0,0,0,1.3,1.09.28.28,0,0,0,.28,0,9.71,9.71,0,0,0,.9-.8,1.81,1.81,0,0,0,.51-1,.9.9,0,0,0-.79-1.13A1,1,0,0,0,33.24,2.88Z"/><path d="M5.07,17.67a2.91,2.91,0,1,1-2.94,2.9A2.92,2.92,0,0,1,5.07,17.67Zm.06,2L5,19.53a1,1,0,0,0-1-.28.8.8,0,0,0-.61.76,1.77,1.77,0,0,0,.1.72,3.76,3.76,0,0,0,1.11,1.45.29.29,0,0,0,.26,0,10,10,0,0,0,1-.58,1.85,1.85,0,0,0,.77-.95.86.86,0,0,0-.87-1.2A3,3,0,0,0,5.13,19.65Z"/><path d="M19.15,6.69A2.91,2.91,0,1,1,22.09,3.8,2.92,2.92,0,0,1,19.15,6.69Zm.21-3.85s0,0-.07-.08a1,1,0,0,0-1.07-.26.85.85,0,0,0-.54.92,1.87,1.87,0,0,0,.29.84,9.45,9.45,0,0,0,1,1.12.3.3,0,0,0,.28,0c.4-.25.8-.5,1.17-.78A1.58,1.58,0,0,0,21,3.8.87.87,0,0,0,20,2.64,4,4,0,0,0,19.36,2.84Z"/><path d="M19.17,17.67a2.91,2.91,0,1,1-3,2.89A2.91,2.91,0,0,1,19.17,17.67Zm.23,2c-.06-.06-.11-.12-.17-.17a.9.9,0,0,0-1.53.42,1.11,1.11,0,0,0,0,.48A3.46,3.46,0,0,0,19,22.22a.26.26,0,0,0,.21,0c.35-.22.71-.42,1-.67a1.79,1.79,0,0,0,.69-1,.89.89,0,0,0-.71-1.14A1.09,1.09,0,0,0,19.4,19.68Z"/></g><path class="cls-4" d="M12.3,6.88A2.91,2.91,0,1,1,15.25,4,2.92,2.92,0,0,1,12.3,6.88Zm-.37-4a1.58,1.58,0,0,1,.12.39c.09.6.16,1.2.23,1.8a3.08,3.08,0,0,1,0,.43L13,5.43a1.74,1.74,0,0,1-.12-.34c-.08-.55-.15-1.09-.22-1.64,0-.21,0-.42,0-.65Z"/><path class="cls-4" d="M15.25,20.8a2.94,2.94,0,1,1-2.93-2.93A2.93,2.93,0,0,1,15.25,20.8ZM13,22.21c0-.15-.1-.27-.12-.39L12.64,20a2.75,2.75,0,0,1,0-.39l-.73.09a3,3,0,0,1,.12.36c.08.6.16,1.21.23,1.82a3.37,3.37,0,0,1,0,.45Z"/><path class="cls-4" d="M26.4,6.88A2.91,2.91,0,1,1,29.34,4,2.91,2.91,0,0,1,26.4,6.88ZM24.63,3a1.33,1.33,0,0,1,.12.3c.09.47.16.94.24,1.42a.79.79,0,0,0,.87.76,4.24,4.24,0,0,0,1.06-.15c.61-.17.79-.5.68-1.13-.07-.41-.13-.82-.19-1.24a2.47,2.47,0,0,1,0-.39l-.67.11a2.11,2.11,0,0,1,.13.34c.07.39.12.78.19,1.17s-.06.67-.52.78a1.39,1.39,0,0,1-.41,0,.48.48,0,0,1-.55-.47c-.08-.4-.14-.81-.2-1.23a2.94,2.94,0,0,1,0-.42Z"/><path class="cls-4" d="M26.41,17.87a2.91,2.91,0,1,1-2.95,2.87A2.93,2.93,0,0,1,26.41,17.87Zm-1.77,1.94a2.23,2.23,0,0,1,.13.39c.08.44.14.89.22,1.33a.77.77,0,0,0,.8.75,2.76,2.76,0,0,0,1.3-.2.74.74,0,0,0,.53-.88c-.05-.43-.14-.86-.2-1.29,0-.17,0-.34,0-.54l-.68.12a1.29,1.29,0,0,1,.13.31c.07.39.13.79.2,1.18s-.06.69-.53.79a1.57,1.57,0,0,1-.37.05.51.51,0,0,1-.59-.48c-.07-.42-.14-.83-.2-1.25,0-.12,0-.25,0-.4Z"/><path class="cls-4" d="M33.45,17.87a2.91,2.91,0,1,1-3,2.9A2.91,2.91,0,0,1,33.45,17.87Zm0,2a.86.86,0,0,0-.17-.13.91.91,0,0,0-1.47.63,1.21,1.21,0,0,0,.23.8,3.94,3.94,0,0,0,1.42,1.24c.05,0,.18,0,.24,0a8.11,8.11,0,0,0,.77-.66,2.25,2.25,0,0,0,.65-1.1.91.91,0,0,0-.74-1.13A1,1,0,0,0,33.43,19.88Z"/><path class="cls-4" d="M5.26,6.88A2.91,2.91,0,1,1,8.21,4,2.92,2.92,0,0,1,5.26,6.88ZM5.35,3v.06l-.12-.15a1,1,0,0,0-1-.29.83.83,0,0,0-.62.75,1.49,1.49,0,0,0,.17.88,4.2,4.2,0,0,0,1,1.29.27.27,0,0,0,.26,0,11.82,11.82,0,0,0,1.14-.68,1.7,1.7,0,0,0,.65-.86.87.87,0,0,0-.79-1.19A2.89,2.89,0,0,0,5.35,3Z"/><path class="cls-4" d="M33.44,6.88A2.91,2.91,0,1,1,36.38,4,2.92,2.92,0,0,1,33.44,6.88Zm0-3.81a1.43,1.43,0,0,0-.22-.15.9.9,0,0,0-1.42.68,1.36,1.36,0,0,0,.32.92,4,4,0,0,0,1.3,1.09.31.31,0,0,0,.28,0,9.71,9.71,0,0,0,.9-.8,1.92,1.92,0,0,0,.51-1,.9.9,0,0,0-.79-1.13A1.09,1.09,0,0,0,33.43,3.07Z"/><path class="cls-4" d="M5.27,17.87a2.91,2.91,0,1,1-2.94,2.9A2.92,2.92,0,0,1,5.27,17.87Zm.06,2s-.06-.07-.11-.11a1,1,0,0,0-1-.28.79.79,0,0,0-.6.76,1.77,1.77,0,0,0,.1.72,3.74,3.74,0,0,0,1.1,1.45.32.32,0,0,0,.27,0,10,10,0,0,0,1-.58,1.83,1.83,0,0,0,.77-1A.86.86,0,0,0,6,19.67,3.78,3.78,0,0,0,5.33,19.84Z"/><path class="cls-4" d="M19.35,6.88A2.91,2.91,0,1,1,22.29,4,2.9,2.9,0,0,1,19.35,6.88ZM19.55,3,19.49,3a1,1,0,0,0-1.07-.26.85.85,0,0,0-.54.91,2,2,0,0,0,.29.85,9.45,9.45,0,0,0,1,1.12.3.3,0,0,0,.28,0c.4-.25.8-.5,1.17-.78A1.65,1.65,0,0,0,21.15,4a.87.87,0,0,0-.93-1.16A4.14,4.14,0,0,0,19.55,3Z"/><path class="cls-4" d="M19.37,17.87a2.91,2.91,0,1,1-2.95,2.89A2.91,2.91,0,0,1,19.37,17.87Zm.23,2-.17-.17a.91.91,0,0,0-1.54.42,1.29,1.29,0,0,0,0,.48,3.36,3.36,0,0,0,1.33,1.81.26.26,0,0,0,.21,0c.35-.22.71-.43,1-.67a1.84,1.84,0,0,0,.69-1,.89.89,0,0,0-.71-1.14A1.09,1.09,0,0,0,19.6,19.88Z"/></g></g></svg>