<svg xmlns="http://www.w3.org/2000/svg" viewBox="0 0 38.55 24.66"><defs><style>.cls-1{isolation:isolate;}.cls-2{opacity:0.15;}.cls-2,.cls-3{mix-blend-mode:multiply;}.cls-4{fill:#fff;}</style></defs><title>convert-CUSTOMIZE-SVG-03</title><g class="cls-1"><g id="Layer_1" data-name="Layer 1"><g class="cls-2"><path d="M0,4.56c.07.26.14.51.2.77C.44,6.41.68,7.49,1,8.57c.61,2.25,1.25,4.5,1.87,6.75,0,.07,0,.14.05.21a4.21,4.21,0,0,1-.51,0s-.09-.08-.11-.13c-.45-1.31-.9-2.62-1.36-3.93C.63,10.63.32,9.83,0,9L0,9Z"/><path d="M0,12.4c.2.62.41,1.24.6,1.87s.37,1.28.55,1.92a.37.37,0,0,1,0,.18A2.48,2.48,0,0,0,1,17.67a3.58,3.58,0,0,1-1-.48Z"/><path d="M32.86,0c.06.31.11.62.19.92a.37.37,0,0,1-.1.38,2.33,2.33,0,0,0-.51,2.13c0,.17.08.33.1.49a1.81,1.81,0,0,1-.44-1c-.19-1-.37-2-.56-3Z"/><path d="M34.42,0l.2,1L34.09.84S34,.8,34,.76c-.07-.25-.12-.51-.18-.77Z"/><path d="M4,17.33a1.58,1.58,0,0,1,.81-.8,1.47,1.47,0,0,1,1.59.25,1.46,1.46,0,0,1,.2,1.62,3.16,3.16,0,0,1-1.42,1.49c-.59.33-1.21.6-1.82.89a.22.22,0,0,1-.18,0,7.83,7.83,0,0,1-1.82-2.55,2.28,2.28,0,0,1-.11-1.39,1.22,1.22,0,0,1,.9-1,1.43,1.43,0,0,1,1.47.48A1.62,1.62,0,0,1,4,17.33Z"/><path d="M35.31,2.88A4.86,4.86,0,0,1,36,2.41a1.35,1.35,0,0,1,1.74.66,1.42,1.42,0,0,1-.21,1.36A2.72,2.72,0,0,1,36,5.5c-.66.21-1.34.34-2,.5a.22.22,0,0,1-.18-.06,7.71,7.71,0,0,1-1.12-2.5,2.31,2.31,0,0,1,.14-1.57A1.19,1.19,0,0,1,34,1.11,1.35,1.35,0,0,1,35.23,2,1.24,1.24,0,0,1,35.31,2.88Z"/><path d="M35.27,6l.34-.09c.08.34.17.67.25,1,.33,1.43.64,2.86,1,4.28.54,2.24,1.1,4.47,1.65,6.71a.85.85,0,0,1,0,.23V23a.13.13,0,0,1,0,.06C37.13,17.46,36.29,11.73,35.27,6Z"/><path d="M8.79,24.64H7.15S7,24.54,7,24.48c-.29-.87-.57-1.74-.85-2.61-.2-.58-.38-1.18-.57-1.76a.17.17,0,0,1,.07-.23L6.61,19a2,2,0,0,1,.76,1c.26.7.48,1.41.7,2.12s.46,1.57.69,2.35A1,1,0,0,1,8.79,24.64Z"/><path d="M36.44,5.62a1.68,1.68,0,0,1,.33-.16.31.31,0,0,1,.23,0,2.15,2.15,0,0,1,1.32,1.61,6.87,6.87,0,0,1,.21,1.8c0,1.58,0,3.15,0,4.73-.08-.27-.18-.54-.25-.81-.35-1.46-.71-2.93-1.06-4.39-.17-.73-.33-1.46-.5-2.19A4.17,4.17,0,0,0,36.44,5.62Z"/><path d="M4.49,20.59l1.32,4H5l-.6-2.26h0l-.09,1H4.27l-.75-1-.8,1-.06,0L3,21.1A2.56,2.56,0,0,0,3.52,21C3.84,20.87,4.15,20.73,4.49,20.59Z"/><path d="M2,19.84l.9,1a.2.2,0,0,1,0,.15A7.23,7.23,0,0,1,2,22.91c-.1.13-.22.25-.33.37l-.07,0V21.52L.39,21.9A11.78,11.78,0,0,1,2,19.84Z"/><path d="M33.24,8.24l.38-2a5.21,5.21,0,0,0,1.59-.18,5.43,5.43,0,0,1-.14,2.59c-.24-.29-.46-.55-.67-.82a.21.21,0,0,0-.28-.08,1.46,1.46,0,0,0-.82.53Z"/><path d="M31.59,4.55l1-.21a.2.2,0,0,1,.13.09L33.53,6a.2.2,0,0,1,0,.15,3.51,3.51,0,0,1-1.2,1.13h0c.06-.53.12-1.06.19-1.59a.31.31,0,0,0-.14-.35c-.28-.21-.54-.45-.8-.68Z"/><path d="M.18,4.76c.07.25.14.51.2.76.26,1.08.5,2.17.79,3.24C1.78,11,2.42,13.27,3,15.52c0,.07,0,.14,0,.21l-.51,0a.21.21,0,0,1-.11-.13c-.46-1.31-.9-2.62-1.36-3.93-.28-.8-.59-1.6-.88-2.4L.18,9.17Z"/><path d="M.18,12.6c.2.62.41,1.24.59,1.86s.38,1.29.56,1.93a.37.37,0,0,1,0,.18,2.45,2.45,0,0,0-.18,1.29,3.09,3.09,0,0,1-1-.48Z"/><path d="M33.05.18c.07.31.12.63.19.93a.35.35,0,0,1-.09.38,2.29,2.29,0,0,0-.51,2.13c0,.16.08.33.1.49a1.9,1.9,0,0,1-.45-1c-.19-1-.37-2-.55-3Z"/><path d="M34.62.18l.2,1L34.29,1S34.21,1,34.21,1C34.14.7,34.09.44,34,.18Z"/><path d="M4.21,17.53a1.53,1.53,0,0,1,.8-.8,1.48,1.48,0,0,1,1.6.25,1.48,1.48,0,0,1,.2,1.62,3.13,3.13,0,0,1-1.43,1.49c-.58.33-1.2.6-1.81.89a.19.19,0,0,1-.18,0,7.79,7.79,0,0,1-1.82-2.54A2.28,2.28,0,0,1,1.46,17a1.25,1.25,0,0,1,.9-1,1.45,1.45,0,0,1,1.47.49A1.62,1.62,0,0,1,4.21,17.53Z"/><path d="M35.51,3.08a4.16,4.16,0,0,1,.71-.47A1.35,1.35,0,0,1,38,3.27a1.4,1.4,0,0,1-.22,1.36A2.7,2.7,0,0,1,36.22,5.7c-.66.21-1.34.34-2,.5A.22.22,0,0,1,34,6.13a7.85,7.85,0,0,1-1.11-2.49,2.25,2.25,0,0,1,.14-1.57,1.2,1.2,0,0,1,1.14-.77,1.38,1.38,0,0,1,1.24.88A1.24,1.24,0,0,1,35.51,3.08Z"/><path d="M35.47,6.22l.34-.1c.08.35.17.68.24,1,.33,1.43.65,2.86,1,4.28.54,2.24,1.1,4.47,1.65,6.71a1.6,1.6,0,0,1,0,.23v4.87s0,0,0,.06C37.33,17.66,36.49,11.93,35.47,6.22Z"/><path d="M9,24.84H7.35s-.11-.09-.13-.15c-.29-.87-.57-1.74-.86-2.61-.19-.59-.37-1.18-.57-1.76a.19.19,0,0,1,.07-.23c.32-.27.62-.55.95-.84a2,2,0,0,1,.76,1c.25.7.48,1.41.7,2.12s.46,1.57.69,2.35A.68.68,0,0,1,9,24.84Z"/><path d="M36.64,5.82A2.55,2.55,0,0,1,37,5.65a.37.37,0,0,1,.23,0,2.15,2.15,0,0,1,1.32,1.61,6.82,6.82,0,0,1,.21,1.8c0,1.57,0,3.15,0,4.73-.08-.27-.18-.54-.25-.81-.36-1.47-.71-2.93-1.06-4.4-.17-.72-.33-1.45-.51-2.18A4.08,4.08,0,0,0,36.64,5.82Z"/><path d="M4.69,20.79l1.32,4H5.24l-.6-2.26h0l-.09,1h0l-.75-1-.8,1-.06,0,.37-2.22a2.56,2.56,0,0,0,.49-.11C4,21.07,4.35,20.93,4.69,20.79Z"/><path d="M2.21,20l.89,1a.21.21,0,0,1,0,.15,7.23,7.23,0,0,1-.92,1.92c-.1.13-.22.25-.33.37l-.07,0V21.72L.59,22.1A11.78,11.78,0,0,1,2.21,20Z"/><path d="M33.44,8.44l.38-2a5.25,5.25,0,0,0,1.59-.18,5.43,5.43,0,0,1-.14,2.59c-.24-.29-.46-.55-.67-.82a.23.23,0,0,0-.29-.09,1.54,1.54,0,0,0-.81.54Z"/><path d="M31.79,4.75c.34-.07.68-.15,1-.21a.2.2,0,0,1,.13.09c.26.51.52,1,.77,1.52,0,0,0,.12,0,.15a3.51,3.51,0,0,1-1.2,1.13h0c.06-.53.12-1.06.19-1.59a.34.34,0,0,0-.14-.36c-.28-.21-.54-.45-.8-.67Z"/></g><g class="cls-3"><path d="M-.16,4.42c.07.25.14.51.2.76C.3,6.26.54,7.35.83,8.42c.61,2.26,1.25,4.51,1.87,6.76,0,.07,0,.14,0,.21l-.51,0a.18.18,0,0,1-.11-.13c-.46-1.31-.9-2.62-1.36-3.93-.28-.81-.59-1.6-.88-2.4l0-.06Z"/><path d="M-.16,12.26c.2.62.41,1.24.59,1.86s.38,1.29.56,1.93a.37.37,0,0,1,0,.18,2.45,2.45,0,0,0-.18,1.29,3.09,3.09,0,0,1-1-.48Z"/><path d="M32.71-.16c.07.31.12.63.19.93a.35.35,0,0,1-.09.38,2.29,2.29,0,0,0-.51,2.13c0,.16.08.32.1.49a1.9,1.9,0,0,1-.45-1c-.19-1-.37-2-.55-3Z"/><path d="M34.28-.16l.2,1L34,.7s-.08,0-.08-.08c-.07-.26-.12-.52-.18-.78Z"/><path d="M3.87,17.19a1.53,1.53,0,0,1,.8-.8,1.48,1.48,0,0,1,1.6.25,1.48,1.48,0,0,1,.2,1.62A3.13,3.13,0,0,1,5,19.75c-.58.33-1.2.6-1.81.89a.19.19,0,0,1-.18,0,7.79,7.79,0,0,1-1.82-2.54,2.28,2.28,0,0,1-.11-1.39,1.25,1.25,0,0,1,.9-1,1.45,1.45,0,0,1,1.47.49A1.62,1.62,0,0,1,3.87,17.19Z"/><path d="M35.17,2.74a4.16,4.16,0,0,1,.71-.47,1.35,1.35,0,0,1,1.74.66,1.4,1.4,0,0,1-.22,1.36,2.69,2.69,0,0,1-1.53,1.07c-.65.21-1.33.34-2,.5a.22.22,0,0,1-.19-.07A7.85,7.85,0,0,1,32.57,3.3a2.25,2.25,0,0,1,.14-1.57A1.19,1.19,0,0,1,33.85,1a1.38,1.38,0,0,1,1.24.88A1.24,1.24,0,0,1,35.17,2.74Z"/><path d="M35.13,5.88l.34-.1c.08.35.17.68.24,1,.33,1.43.65,2.86,1,4.28.54,2.24,1.1,4.47,1.65,6.71a1.6,1.6,0,0,1,0,.23v4.87s0,0,0,.06C37,17.32,36.15,11.59,35.13,5.88Z"/><path d="M8.65,24.5H7s-.11-.09-.13-.15c-.29-.87-.57-1.74-.86-2.61-.19-.59-.37-1.18-.57-1.76a.19.19,0,0,1,.07-.23c.32-.27.62-.55,1-.84a2,2,0,0,1,.76,1c.25.7.47,1.41.69,2.12s.47,1.57.7,2.35A.68.68,0,0,1,8.65,24.5Z"/><path d="M36.3,5.48a2.55,2.55,0,0,1,.33-.17.37.37,0,0,1,.23,0,2.15,2.15,0,0,1,1.32,1.61,6.82,6.82,0,0,1,.21,1.8c0,1.57,0,3.15,0,4.73-.08-.27-.18-.54-.25-.81-.36-1.47-.71-2.93-1.06-4.4-.17-.72-.33-1.45-.51-2.18A5.63,5.63,0,0,0,36.3,5.48Z"/><path d="M4.35,20.45l1.32,4H4.9l-.6-2.26h0l-.09,1h0l-.75-1-.8,1-.06,0L2.89,21a3.65,3.65,0,0,0,.49-.11C3.7,20.73,4,20.59,4.35,20.45Z"/><path d="M1.87,19.7l.89,1a.21.21,0,0,1,0,.15,7.23,7.23,0,0,1-.92,1.92c-.1.13-.22.25-.33.37l-.07,0V21.38l-1.22.38A11.42,11.42,0,0,1,1.87,19.7Z"/><path d="M33.1,8.1l.38-2a5.25,5.25,0,0,0,1.59-.18,5.43,5.43,0,0,1-.14,2.59c-.24-.29-.46-.55-.67-.82A.23.23,0,0,0,34,7.59a1.54,1.54,0,0,0-.81.54Z"/><path d="M31.44,4.41c.35-.07.69-.15,1-.21a.2.2,0,0,1,.13.09c.26.51.52,1,.77,1.52,0,0,0,.12,0,.15a3.51,3.51,0,0,1-1.2,1.13h0c.06-.53.12-1.06.19-1.59a.34.34,0,0,0-.14-.36c-.28-.21-.54-.45-.8-.67Z"/></g><path class="cls-4" d="M0,4.62c.06.25.13.51.2.76C.5,6.46.74,7.55,1,8.62c.61,2.26,1.25,4.51,1.87,6.76,0,.07,0,.13.05.21l-.51,0a.18.18,0,0,1-.11-.13c-.46-1.31-.9-2.62-1.36-3.93-.28-.81-.59-1.6-.88-2.4,0,0,0,0,0-.07Z"/><path class="cls-4" d="M0,12.45c.2.63.4,1.25.59,1.87s.37,1.29.55,1.93a.29.29,0,0,1,0,.18A2.44,2.44,0,0,0,1,17.72a3,3,0,0,1-1-.48Z"/><path class="cls-4" d="M32.91,0c.06.31.12.62.19.93a.35.35,0,0,1-.09.38,2.29,2.29,0,0,0-.51,2.13c0,.16.07.32.1.49a1.9,1.9,0,0,1-.45-1c-.19-1-.37-2-.55-3Z"/><path class="cls-4" d="M34.48,0l.2,1L34.15.9a.14.14,0,0,1-.09-.08C34,.56,33.94.3,33.89,0Z"/><path class="cls-4" d="M4.07,17.39a1.53,1.53,0,0,1,.8-.8,1.48,1.48,0,0,1,1.6.25,1.47,1.47,0,0,1,.2,1.62,3.16,3.16,0,0,1-1.43,1.48c-.58.34-1.2.61-1.81.9a.19.19,0,0,1-.18,0,7.79,7.79,0,0,1-1.82-2.54,2.21,2.21,0,0,1-.11-1.39,1.25,1.25,0,0,1,.9-1,1.43,1.43,0,0,1,1.46.49A1.56,1.56,0,0,1,4.07,17.39Z"/><path class="cls-4" d="M35.37,2.94a4.16,4.16,0,0,1,.71-.47,1.34,1.34,0,0,1,1.74.66,1.4,1.4,0,0,1-.22,1.36,2.73,2.73,0,0,1-1.53,1.07c-.65.21-1.33.34-2,.5A.22.22,0,0,1,33.88,6,7.85,7.85,0,0,1,32.77,3.5a2.25,2.25,0,0,1,.14-1.57A1.18,1.18,0,0,1,34,1.16,1.4,1.4,0,0,1,35.29,2,1.24,1.24,0,0,1,35.37,2.94Z"/><path class="cls-4" d="M35.33,6.07,35.66,6c.09.35.17.68.25,1,.33,1.43.65,2.86,1,4.28L38.55,18a.83.83,0,0,1,0,.22c0,1.63,0,3.25,0,4.88,0,0,0,0,0,.06C37.19,17.51,36.34,11.79,35.33,6.07Z"/><path class="cls-4" d="M8.85,24.7H7.21s-.11-.09-.13-.15c-.29-.87-.58-1.74-.86-2.61-.19-.59-.37-1.18-.57-1.77a.19.19,0,0,1,.07-.23c.32-.26.62-.54,1-.84a2.08,2.08,0,0,1,.76,1c.25.7.47,1.41.69,2.12s.47,1.56.7,2.35A.68.68,0,0,1,8.85,24.7Z"/><path class="cls-4" d="M36.5,5.68a1.71,1.71,0,0,1,.33-.17.37.37,0,0,1,.23,0,2.15,2.15,0,0,1,1.32,1.61,6.82,6.82,0,0,1,.21,1.8c0,1.57,0,3.15,0,4.73-.08-.27-.18-.54-.25-.81-.36-1.47-.71-2.93-1.06-4.4-.18-.72-.33-1.45-.51-2.18A5.63,5.63,0,0,0,36.5,5.68Z"/><path class="cls-4" d="M4.55,20.64l1.31,4.05H5.1l-.61-2.26h0l-.1,1h0l-.75-1-.8,1-.06,0,.37-2.22a3.65,3.65,0,0,0,.49-.11C3.9,20.93,4.21,20.79,4.55,20.64Z"/><path class="cls-4" d="M2.07,19.9l.89,1a.2.2,0,0,1,0,.15A7.55,7.55,0,0,1,2.07,23c-.1.13-.22.24-.33.37l-.07,0V21.58L.45,22A11.42,11.42,0,0,1,2.07,19.9Z"/><path class="cls-4" d="M33.3,8.3l.38-2a5,5,0,0,0,1.59-.19,5.35,5.35,0,0,1-.15,2.6l-.66-.82a.23.23,0,0,0-.29-.09,1.54,1.54,0,0,0-.81.53Z"/><path class="cls-4" d="M31.64,4.61c.35-.07.69-.15,1-.21,0,0,.1,0,.13.09.26.5.52,1,.77,1.52,0,0,0,.12,0,.15a3.7,3.7,0,0,1-1.2,1.13h0c.07-.53.13-1.07.2-1.59a.34.34,0,0,0-.14-.36c-.28-.21-.54-.45-.81-.67Z"/></g></g></svg>