<svg xmlns="http://www.w3.org/2000/svg" viewBox="0 0 38.55 24.66"><defs><style>.cls-1{isolation:isolate;}.cls-2{opacity:0.15;}.cls-2,.cls-3{mix-blend-mode:multiply;}.cls-4{fill:#fff;}</style></defs><title>convert-CUSTOMIZE-SVG-03</title><g class="cls-1"><g id="Layer_1" data-name="Layer 1"><g class="cls-2"><path d="M11.35,4.13a4.26,4.26,0,0,1,1.41.32,3.11,3.11,0,0,1,1.51,1.4,3,3,0,0,1,1.38-.67A2.88,2.88,0,0,1,19,6.78a3.07,3.07,0,0,1-.09,2.55,6.51,6.51,0,0,1-2.13,2.47A17,17,0,0,1,13,13.89a.33.33,0,0,1-.19,0c-.21-.08-.27.07-.35.2a9,9,0,0,0-1.09,2.71c-.22.88-.37,1.76-.55,2.65a.75.75,0,0,0,0,.15l1.27.15c.39,0,.39,0,.32.42-.12.73-.25,1.46-.38,2.19a.26.26,0,0,1-.14.17,4.15,4.15,0,0,1-2.78,0,.27.27,0,0,1-.16-.17c-.25-.83-.48-1.67-.74-2.56l1.65-.2c-.12-.5-.24-1-.37-1.48l-1.71-6a.27.27,0,0,0-.19-.21,14.1,14.1,0,0,1-5-2.8A4.67,4.67,0,0,1,1,6.69,2.76,2.76,0,0,1,3.32,3.33a3.18,3.18,0,0,1,2.43.55l.06,0a3.16,3.16,0,0,1,3.4-1.72,2.66,2.66,0,0,1,2.15,2A2.77,2.77,0,0,0,8.83,6.05a3.71,3.71,0,0,0-.07,2.19,7.31,7.31,0,0,0,.72,1.86c-.47.54-.94,1.09-1.42,1.62a.31.31,0,0,0-.08.35Q8.82,15,9.63,17.88c.16.59.31,1.17.46,1.75h.4a15.28,15.28,0,0,1,1.89-5.93,2.75,2.75,0,0,1-.26-.22,16.93,16.93,0,0,1-2.46-3.06.5.5,0,0,1,0-.66,8.89,8.89,0,0,0,1.78-3.85A3.58,3.58,0,0,0,11.35,4.13Z"/><path d="M11.55,4.33A4,4,0,0,1,13,4.65,3.11,3.11,0,0,1,14.46,6a3.09,3.09,0,0,1,1.39-.66A2.88,2.88,0,0,1,19.21,7a3,3,0,0,1-.09,2.54A6.56,6.56,0,0,1,17,12a16.81,16.81,0,0,1-3.84,2.09.29.29,0,0,1-.18,0c-.21-.08-.27.07-.35.2A9,9,0,0,0,11.53,17c-.22.87-.38,1.76-.56,2.65v.15l1.28.14c.38.05.38.06.32.43-.12.73-.25,1.46-.38,2.19a.26.26,0,0,1-.14.17,4.15,4.15,0,0,1-2.78,0,.3.3,0,0,1-.16-.17c-.25-.83-.49-1.67-.74-2.56l1.65-.2c-.12-.5-.24-1-.37-1.48l-1.71-6a.24.24,0,0,0-.19-.21,14.26,14.26,0,0,1-5-2.8A4.67,4.67,0,0,1,1.21,6.89,2.76,2.76,0,0,1,3.52,3.53,3.18,3.18,0,0,1,6,4.08L6,4.1A3.15,3.15,0,0,1,9.4,2.38a2.63,2.63,0,0,1,2.15,2A2.78,2.78,0,0,0,9,6.24,3.8,3.8,0,0,0,9,8.43a7.8,7.8,0,0,0,.73,1.87c-.47.54-.94,1.09-1.42,1.62a.31.31,0,0,0-.08.35c.56,1.94,1.11,3.87,1.65,5.81.16.58.31,1.17.46,1.75h.4a15.26,15.26,0,0,1,1.88-5.93l-.25-.22a16.93,16.93,0,0,1-2.46-3.06.5.5,0,0,1,0-.66A8.87,8.87,0,0,0,11.67,6.1,3.67,3.67,0,0,0,11.55,4.33Z"/></g><g class="cls-3"><path d="M11.21,4a4.07,4.07,0,0,1,1.41.32,3.11,3.11,0,0,1,1.5,1.39A3.09,3.09,0,0,1,15.51,5a2.88,2.88,0,0,1,3.36,1.6,3,3,0,0,1-.09,2.54,6.56,6.56,0,0,1-2.13,2.48,16.4,16.4,0,0,1-3.84,2.08.24.24,0,0,1-.18,0c-.21-.08-.27.07-.35.2a9,9,0,0,0-1.09,2.71c-.22.87-.38,1.76-.56,2.65v.15l1.28.14c.38.05.38.06.32.43-.12.73-.25,1.46-.38,2.19a.26.26,0,0,1-.14.17,4.15,4.15,0,0,1-2.78,0,.3.3,0,0,1-.16-.17c-.25-.83-.49-1.67-.74-2.56l1.65-.2c-.12-.5-.24-1-.37-1.48L7.6,12a.24.24,0,0,0-.19-.21A14.26,14.26,0,0,1,2.36,9,4.71,4.71,0,0,1,.87,6.55,2.76,2.76,0,0,1,3.18,3.19a3.18,3.18,0,0,1,2.43.55l.06,0A3.17,3.17,0,0,1,9.06,2a2.66,2.66,0,0,1,2.15,2A2.8,2.8,0,0,0,8.68,5.9a3.89,3.89,0,0,0-.07,2.19A7.8,7.8,0,0,0,9.34,10c-.47.54-.94,1.09-1.42,1.62a.31.31,0,0,0-.08.35c.56,1.94,1.1,3.87,1.65,5.81.16.58.31,1.17.46,1.75h.4a15.26,15.26,0,0,1,1.88-5.93L12,13.34a16.93,16.93,0,0,1-2.46-3.06.5.5,0,0,1,0-.66,8.87,8.87,0,0,0,1.78-3.86A3.67,3.67,0,0,0,11.21,4Z"/></g><path class="cls-4" d="M11.41,4.19a4.07,4.07,0,0,1,1.41.32,3.11,3.11,0,0,1,1.5,1.39,3.09,3.09,0,0,1,1.39-.66,2.88,2.88,0,0,1,3.36,1.6A3,3,0,0,1,19,9.38a6.56,6.56,0,0,1-2.13,2.48A16.6,16.6,0,0,1,13,13.94a.24.24,0,0,1-.18,0c-.21-.09-.27.07-.35.2a9.14,9.14,0,0,0-1.1,2.71c-.21.87-.37,1.76-.55,2.64a.85.85,0,0,0,0,.16l1.28.14c.38.05.38.06.32.43-.13.73-.25,1.46-.38,2.18a.25.25,0,0,1-.15.18,4.18,4.18,0,0,1-2.77,0A.27.27,0,0,1,9,22.46c-.25-.84-.49-1.67-.74-2.57l1.65-.19c-.13-.5-.24-1-.38-1.48q-.84-3-1.7-6A.24.24,0,0,0,7.61,12a14.17,14.17,0,0,1-5.05-2.8A4.71,4.71,0,0,1,1.07,6.75,2.76,2.76,0,0,1,3.38,3.39a3.19,3.19,0,0,1,2.43.55l.06,0A3.17,3.17,0,0,1,9.26,2.23a2.67,2.67,0,0,1,2.15,2A2.81,2.81,0,0,0,8.88,6.1a3.89,3.89,0,0,0-.07,2.19,7.2,7.2,0,0,0,.73,1.86c-.47.55-.94,1.09-1.42,1.63a.31.31,0,0,0-.08.35l1.65,5.81c.16.58.3,1.17.46,1.75h.4a15.26,15.26,0,0,1,1.88-5.93l-.25-.22a17.19,17.19,0,0,1-2.46-3.06.5.5,0,0,1,0-.66A8.87,8.87,0,0,0,11.53,6,3.66,3.66,0,0,0,11.41,4.19Z"/></g></g></svg>