<svg xmlns="http://www.w3.org/2000/svg" viewBox="0 0 38.55 24.66"><defs><style>.cls-1{isolation:isolate;}.cls-2{opacity:0.15;}.cls-2,.cls-3{mix-blend-mode:multiply;}.cls-4{fill:#fff;}</style></defs><title>convert-CUSTOMIZE-SVG-03</title><g class="cls-1"><g id="Layer_1" data-name="Layer 1"><g class="cls-2"><path d="M33.8,4.45a2.35,2.35,0,0,1-.62-1.09,1.2,1.2,0,0,1,.15-.94.73.73,0,0,1,.85-.35,10.27,10.27,0,0,1,1,.43c.18-.1.4-.24.62-.34a.83.83,0,0,1,1,.06,1.05,1.05,0,0,1,.35,1,2.48,2.48,0,0,1-1,1.6c-.22.17-.48.3-.71.46a.33.33,0,0,1-.41,0c-.25-.17-.51-.32-.75-.5s-.18-.1-.3,0A4.93,4.93,0,0,1,33.4,5l-.12-.23Z"/><path d="M4.52,5.49,4.07,5l-.53.29a.31.31,0,0,1-.23,0A3.72,3.72,0,0,1,1.76,4a1.47,1.47,0,0,1-.24-1.4.79.79,0,0,1,1.1-.52,7.24,7.24,0,0,1,.79.39c.25-.12.5-.29.77-.39A.88.88,0,0,1,5.38,3a2,2,0,0,1-.57,1.39l-.45.56.34.39Z"/><path d="M3.42,19.76a6.88,6.88,0,0,1,.77-.38.86.86,0,0,1,1.19.84,2,2,0,0,1-.6,1.44,4.4,4.4,0,0,1-1.26.92.28.28,0,0,1-.2,0A3.54,3.54,0,0,1,1.8,21.34a3.3,3.3,0,0,1-.35-.87,1,1,0,0,1,.23-.87.75.75,0,0,1,.88-.24A8.27,8.27,0,0,1,3.42,19.76Z"/><path d="M35.13,19.78a6.21,6.21,0,0,1,.62-.35.86.86,0,0,1,1,0,1,1,0,0,1,.37,1A2.44,2.44,0,0,1,36,22.12c-1,.65-.71.65-1.67,0a2.44,2.44,0,0,1-1.1-1.52,1.32,1.32,0,0,1,0-.56.84.84,0,0,1,1.24-.64A6,6,0,0,1,35.13,19.78Z"/><path d="M20.37,4.29l-.09.24c-.13,0-.27-.13-.37-.1s-.16.17-.25.29l-.23,0L19.71,4Z"/><path d="M27.38,5.46l-.62-.32.13-.23.6.31Z"/><path d="M22.74,6,22.46,6l-.4-.46.17-.22Z"/><path d="M31.18,18.62v-.27l.71.09-.06.27Z"/><path d="M20.09,21.47l.27-.59.26.08-.3.66Z"/><path d="M13.53,5.12l.11.24L13,5.64,12.9,5.4Z"/><path d="M19.8,6l-.25.12-.18-.71.27,0Z"/><path d="M25.05,3.88l-.12.24-.61-.29.11-.25Z"/><path d="M6.94,7l-.67-.24.11-.24L7,6.69Z"/><path d="M19.89,21.82l.09-.26.64.23-.07.26Z"/><path d="M26,21.71l.12.25-.64.27-.1-.25Z"/><path d="M6.36,22.19l0-.27L7,21.79l.08.26Z"/><path d="M22.15,6.42l.11.24-.7.19,0-.26Z"/><path d="M5.63,6.38,5.05,6l.17-.21.55.38Z"/><path d="M15.59,4.62l-.08-.26.67-.18.06.26Z"/><path d="M28.24,20.2l.18.21-.54.43-.17-.21Z"/><path d="M23.31,22.6l-.7-.06,0-.26.66,0Z"/><path d="M23.09,3.1l.67.2-.08.26L23,3.37Z"/><path d="M14.92,4.85l-.63.24-.1-.25.64-.25Z"/><path d="M14.57,20.89l-.56-.4.16-.22.56.39Z"/><path d="M32.77,5.28l-.62.3L32,5.34l.61-.3Z"/><path d="M10.32,20.7l-.12-.24.63-.28.11.24Z"/><path d="M19.16,19.63,19,19.39l.72-.22v.27Z"/><path d="M29.43,19.43l-.47.51-.14-.21.42-.47Z"/><path d="M10.38,6.53,11,6.31l.1.24-.64.24Z"/><path d="M15.9,21.41l-.14.23-.59-.35.14-.23Z"/><path d="M27.15,21l.15.23-.59.37-.14-.24Z"/><path d="M32.59,18.68l.63.3-.13.24-.61-.29Z"/><path d="M19.18,22.56l-.07-.27.55-.3.18.2Z"/><path d="M22,22.14l-.05.26-.68-.15L21.3,22Z"/><path d="M18.41,22.59l-.68-.13.07-.26.66.13Z"/><path d="M20.09,6.71l.12-.25.61.14v.27Z"/><path d="M16.93,4.29,16.88,4l.68-.09,0,.26Z"/><path d="M26.28,4.56l-.14.24-.6-.34.14-.23Z"/><path d="M20.9,4.83,21,4.6l.59.35-.14.23Z"/><path d="M30.86,6.12c-.11-.17-.11-.28.11-.32a4.29,4.29,0,0,0,.42-.15l.12.24Z"/><path d="M9.07,7.1l0-.27.65-.11L9.77,7Z"/><path d="M9.56,20.75l.11.25-.62.28L8.93,21Z"/><path d="M7.75,21.82l-.09-.25.62-.25.12.25Z"/><path d="M4.94,22,5,21.72l.66.16-.06.26Z"/><path d="M30.44,18.43l.07.26-.57.28-.16-.22Z"/><path d="M24,22.56l0-.26.66-.13.06.27Z"/><path d="M29.38,6.17l.06-.27.65,0v.26Z"/><path d="M18.57,20a3.12,3.12,0,0,1-.17.44c0,.07-.14.1-.22.15a.61.61,0,0,1,.26-.74Z"/><path d="M20.94,3.16l.08.26-.59.28-.15-.22Z"/><path d="M17.14,22l-.1.26L16.4,22l.11-.25Z"/><path d="M28,5.76l.11-.25.63.23L28.69,6Z"/><path d="M18.61,21.17l.17-.22.57.34-.12.24Z"/><path d="M20.48,20.21l-.17-.57.23-.17.21.74Z"/><path d="M13.46,20.05c-.17-.07-.34-.12-.49-.2s-.06-.15-.09-.23l.06-.07.68.27Z"/><path d="M11.59,20.16l-.1-.25.66-.22.09.25Z"/><path d="M11.78,6.26,11.65,6l.61-.31.13.24Z"/><path d="M18.3,4.15V3.92H19l0,.27Z"/><path d="M8.34,6.88v.25l-.66,0c0-.27,0-.28.22-.26Z"/><path d="M22.34,3.28h-.65l0-.25h.67Z"/><path d="M34,4.65a2.35,2.35,0,0,1-.62-1.09,1.2,1.2,0,0,1,.15-.94.72.72,0,0,1,.85-.35,10.27,10.27,0,0,1,1,.43A6.92,6.92,0,0,1,36,2.36a.83.83,0,0,1,1,.06,1,1,0,0,1,.35,1A2.48,2.48,0,0,1,36.23,5c-.23.17-.48.3-.71.46a.35.35,0,0,1-.41,0c-.25-.17-.51-.32-.76-.5a.23.23,0,0,0-.29,0c-.15.09-.3.15-.46.23l-.12-.23Z"/><path d="M4.72,5.69,4.27,5.2c-.18.1-.35.21-.53.3a.33.33,0,0,1-.24,0A3.76,3.76,0,0,1,2,4.23a1.5,1.5,0,0,1-.25-1.4.79.79,0,0,1,1.1-.52,7.4,7.4,0,0,1,.8.39c.25-.12.5-.29.77-.39a.88.88,0,0,1,1.2.85A2,2,0,0,1,5,4.55l-.45.55.34.4Z"/><path d="M3.62,20a5.5,5.5,0,0,1,.77-.38.86.86,0,0,1,1.19.83A2,2,0,0,1,5,21.86a4,4,0,0,1-1.25.91.24.24,0,0,1-.2,0A3.61,3.61,0,0,1,2,21.54a3,3,0,0,1-.35-.87,1,1,0,0,1,.23-.87.74.74,0,0,1,.88-.24A8.27,8.27,0,0,1,3.62,20Z"/><path d="M35.33,20a4.71,4.71,0,0,1,.62-.35.86.86,0,0,1,1,0,1.06,1.06,0,0,1,.37,1,2.44,2.44,0,0,1-1.12,1.63c-1,.65-.71.65-1.67,0a2.41,2.41,0,0,1-1.1-1.52,1.33,1.33,0,0,1,0-.56.85.85,0,0,1,1.24-.65A7.09,7.09,0,0,1,35.33,20Z"/><path d="M20.57,4.49l-.09.24c-.13,0-.27-.13-.37-.11s-.16.18-.25.3l-.24,0,.29-.66Z"/><path d="M27.58,5.66,27,5.34l.13-.24.6.31Z"/><path d="M22.94,6.14l-.28.07-.4-.46.17-.21Z"/><path d="M31.38,18.82v-.28l.71.1L32,18.9Z"/><path d="M20.29,21.67l.27-.59.26.08-.3.66Z"/><path d="M13.72,5.31l.12.25-.62.28L13.1,5.6Z"/><path d="M20,6.21l-.25.12-.19-.71.28,0Z"/><path d="M25.25,4.08l-.12.24L24.52,4l.1-.25Z"/><path d="M7.14,7.15l-.67-.24.1-.24.63.21Z"/><path d="M20.09,22l.09-.25.64.23-.07.25Z"/><path d="M26.15,21.91l.12.25-.64.27-.1-.25Z"/><path d="M6.56,22.39l0-.27L7.19,22l.08.26Z"/><path d="M22.34,6.62l.12.24-.7.19-.05-.26Z"/><path d="M5.83,6.58l-.58-.41L5.42,6,6,6.34Z"/><path d="M15.79,4.82l-.08-.26.67-.18.06.26Z"/><path d="M28.44,20.4l.18.21-.54.43-.17-.21Z"/><path d="M23.5,22.8l-.7-.06.05-.26.65.05Z"/><path d="M23.29,3.3l.67.2-.08.25-.65-.18Z"/><path d="M15.12,5.05l-.63.24L14.39,5,15,4.79Z"/><path d="M14.77,21.09l-.56-.4.16-.22.56.39Z"/><path d="M33,5.48l-.62.3-.12-.24.61-.3Z"/><path d="M10.52,20.9l-.12-.24.63-.29.11.25Z"/><path d="M19.36,19.83l-.12-.24.71-.23,0,.28Z"/><path d="M29.63,19.63l-.47.51L29,19.93l.42-.47Z"/><path d="M10.58,6.73l.63-.23.1.25L10.66,7Z"/><path d="M16.1,21.61l-.14.23-.59-.35.14-.23Z"/><path d="M27.35,21.23l.14.23-.58.37-.14-.24Z"/><path d="M32.78,18.88l.64.3-.13.24-.61-.29Z"/><path d="M19.38,22.76l-.07-.27.55-.3.18.2Z"/><path d="M22.16,22.34l-.05.26-.68-.16.07-.26Z"/><path d="M18.61,22.79l-.68-.13L18,22.4l.66.12Z"/><path d="M20.28,6.91l.13-.25.6.14v.27Z"/><path d="M17.13,4.49l-.05-.27.68-.09,0,.26Z"/><path d="M26.47,4.76,26.34,5l-.6-.34.14-.24Z"/><path d="M21.1,5l.13-.23.59.35-.14.23Z"/><path d="M31.06,6.32C31,6.15,30.94,6,31.17,6a4.29,4.29,0,0,0,.42-.15l.12.24Z"/><path d="M9.27,7.3l0-.27.65-.11.07.26Z"/><path d="M9.76,21l.11.25-.62.28-.12-.24Z"/><path d="M7.94,22l-.09-.25.63-.25.12.24Z"/><path d="M5.14,22.17l.08-.25.65.15,0,.27Z"/><path d="M30.63,18.62l.08.27-.57.28L30,19Z"/><path d="M24.23,22.76l0-.27.65-.12.07.26Z"/><path d="M29.58,6.37l.06-.27.65.05v.26Z"/><path d="M18.76,20.16a3.16,3.16,0,0,1-.16.44c0,.07-.14.1-.22.15a.61.61,0,0,1,.26-.74Z"/><path d="M21.13,3.36l.09.26-.59.28-.15-.22Z"/><path d="M17.33,22.19l-.09.25-.64-.27.1-.24Z"/><path d="M28.22,6l.11-.25.63.23-.07.26Z"/><path d="M18.81,21.37l.17-.22.56.34-.11.24Z"/><path d="M20.68,20.41l-.17-.57.23-.17.21.74Z"/><path d="M13.66,20.25c-.17-.07-.34-.12-.49-.2s-.06-.16-.09-.24l.06-.06.68.27Z"/><path d="M11.79,20.35l-.1-.24.66-.23.09.26Z"/><path d="M12,6.46l-.12-.24.61-.31.13.24Z"/><path d="M18.5,4.35V4.12h.68l0,.27Z"/><path d="M8.54,7.08v.25l-.66,0c0-.27,0-.28.21-.26Z"/><path d="M22.54,3.48h-.65l0-.26h.67Z"/></g><g class="cls-3"><path d="M33.66,4.31A2.35,2.35,0,0,1,33,3.22a1.2,1.2,0,0,1,.15-.94A.72.72,0,0,1,34,1.93a10.27,10.27,0,0,1,1,.43A6.92,6.92,0,0,1,35.63,2a.83.83,0,0,1,1,.06,1,1,0,0,1,.35,1,2.48,2.48,0,0,1-1,1.6c-.23.17-.48.3-.71.46a.34.34,0,0,1-.41,0c-.25-.17-.51-.32-.76-.5a.22.22,0,0,0-.29,0c-.15.09-.3.15-.46.23l-.12-.23Z"/><path d="M4.38,5.35l-.45-.49c-.18.1-.35.21-.53.3a.33.33,0,0,1-.24,0A3.76,3.76,0,0,1,1.62,3.89a1.5,1.5,0,0,1-.25-1.4A.79.79,0,0,1,2.47,2a7.4,7.4,0,0,1,.8.39c.25-.12.5-.29.77-.39a.88.88,0,0,1,1.2.85,2,2,0,0,1-.57,1.39l-.45.55.34.4Z"/><path d="M3.28,19.62a5.5,5.5,0,0,1,.77-.38.86.86,0,0,1,1.19.83,2,2,0,0,1-.61,1.45,4,4,0,0,1-1.25.91.24.24,0,0,1-.2,0A3.61,3.61,0,0,1,1.66,21.2a3,3,0,0,1-.35-.87,1,1,0,0,1,.23-.87.74.74,0,0,1,.88-.24A8.27,8.27,0,0,1,3.28,19.62Z"/><path d="M35,19.64a4.71,4.71,0,0,1,.62-.35.86.86,0,0,1,1,0,1.06,1.06,0,0,1,.37,1A2.44,2.44,0,0,1,35.82,22c-1,.65-.71.65-1.67,0a2.41,2.41,0,0,1-1.1-1.52,1.33,1.33,0,0,1,0-.56.85.85,0,0,1,1.24-.65A7.09,7.09,0,0,1,35,19.64Z"/><path d="M20.23,4.15l-.09.24c-.13,0-.27-.13-.37-.11s-.16.18-.25.3l-.24,0,.29-.66Z"/><path d="M27.24,5.32,26.62,5l.13-.24.6.31Z"/><path d="M22.6,5.8l-.28.07-.4-.46.17-.21Z"/><path d="M31,18.48V18.2l.71.1-.06.26Z"/><path d="M20,21.33l.27-.59.26.08-.3.66Z"/><path d="M13.38,5l.12.25-.62.28-.12-.24Z"/><path d="M19.66,5.87,19.41,6l-.19-.71.27,0Z"/><path d="M24.91,3.74,24.79,4l-.61-.3.1-.24Z"/><path d="M6.8,6.81l-.67-.24.1-.25.63.22Z"/><path d="M19.75,21.67l.09-.25.64.23-.07.25Z"/><path d="M25.81,21.57l.12.25-.64.27-.1-.25Z"/><path d="M6.22,22.05l0-.27.65-.13.08.26Z"/><path d="M22,6.28l.12.24-.7.19-.05-.26Z"/><path d="M5.49,6.24l-.58-.41.17-.21L5.63,6Z"/><path d="M15.45,4.48l-.08-.26L16,4l.06.26Z"/><path d="M28.1,20.06l.18.21-.54.43-.17-.21Z"/><path d="M23.16,22.46l-.7-.06.05-.26.65.05Z"/><path d="M23,3l.67.2-.08.25-.65-.19Z"/><path d="M14.78,4.71,14.15,5l-.1-.25.64-.25Z"/><path d="M14.43,20.75l-.56-.4.16-.22.56.39Z"/><path d="M32.63,5.14l-.62.3-.12-.24.61-.3Z"/><path d="M10.18,20.56l-.12-.24.63-.29.11.25Z"/><path d="M19,19.49l-.12-.24.71-.23,0,.28Z"/><path d="M29.29,19.29l-.47.51-.14-.21.42-.47Z"/><path d="M10.24,6.39l.63-.23.1.25-.65.24Z"/><path d="M15.76,21.27l-.14.23L15,21.15l.14-.23Z"/><path d="M27,20.89l.14.23-.58.37-.14-.24Z"/><path d="M32.44,18.54l.64.3-.13.24-.61-.29Z"/><path d="M19,22.42,19,22.15l.55-.3.18.2Z"/><path d="M21.82,22l-.05.26-.68-.16.07-.26Z"/><path d="M18.27,22.45l-.68-.13.07-.26.66.12Z"/><path d="M19.94,6.57l.13-.25.6.14v.27Z"/><path d="M16.79,4.15l-.05-.27.68-.09,0,.26Z"/><path d="M26.13,4.42,26,4.66l-.6-.34.14-.24Z"/><path d="M20.76,4.69l.13-.23.59.35L21.34,5Z"/><path d="M30.72,6c-.11-.18-.12-.28.11-.32a4.29,4.29,0,0,0,.42-.15l.12.24Z"/><path d="M8.93,7l0-.27.65-.11.07.26Z"/><path d="M9.42,20.61l.11.25-.62.28-.12-.24Z"/><path d="M7.6,21.68l-.09-.25.63-.25.12.24Z"/><path d="M4.8,21.83l.08-.25.65.15,0,.27Z"/><path d="M30.29,18.28l.08.27-.57.28-.17-.22Z"/><path d="M23.89,22.42l0-.27.65-.12.07.26Z"/><path d="M29.24,6l.06-.27.65,0v.26Z"/><path d="M18.42,19.82a3.16,3.16,0,0,1-.16.44c0,.07-.14.1-.22.15a.61.61,0,0,1,.26-.74Z"/><path d="M20.79,3l.09.26-.59.28-.15-.22Z"/><path d="M17,21.85l-.09.25-.64-.27.1-.24Z"/><path d="M27.88,5.62,28,5.37l.63.23-.07.26Z"/><path d="M18.47,21l.17-.22.56.34-.11.24Z"/><path d="M20.34,20.07l-.17-.57.23-.17.21.74Z"/><path d="M13.32,19.91c-.17-.07-.34-.12-.49-.2s-.06-.16-.09-.24l.06-.06.68.27Z"/><path d="M11.45,20l-.1-.24.66-.23.09.26Z"/><path d="M11.63,6.12l-.12-.24.61-.31.13.24Z"/><path d="M18.16,4V3.78h.68l0,.27Z"/><path d="M8.2,6.74V7L7.54,7c0-.27,0-.28.21-.26Z"/><path d="M22.2,3.14h-.65l0-.26h.67Z"/></g><path class="cls-4" d="M33.86,4.51a2.35,2.35,0,0,1-.62-1.09,1.24,1.24,0,0,1,.14-.94.74.74,0,0,1,.86-.35c.33.11.64.28,1,.42.18-.1.39-.23.62-.34a.83.83,0,0,1,1,.07,1,1,0,0,1,.36,1,2.51,2.51,0,0,1-1,1.6c-.23.17-.48.3-.71.45a.33.33,0,0,1-.41,0l-.76-.5a.22.22,0,0,0-.3,0L33.46,5l-.13-.23Z"/><path class="cls-4" d="M4.58,5.55l-.45-.49a5.61,5.61,0,0,1-.54.29.31.31,0,0,1-.23,0A3.62,3.62,0,0,1,1.82,4.08a1.48,1.48,0,0,1-.25-1.39.8.8,0,0,1,1.1-.53,7.46,7.46,0,0,1,.8.4,6.17,6.17,0,0,1,.77-.39A.87.87,0,0,1,5.44,3a2,2,0,0,1-.57,1.39c-.15.17-.29.35-.45.55l.34.4Z"/><path class="cls-4" d="M3.47,19.82a7.09,7.09,0,0,1,.78-.39.87.87,0,0,1,1.19.84,2.06,2.06,0,0,1-.61,1.45,4.06,4.06,0,0,1-1.26.91.21.21,0,0,1-.19,0A3.68,3.68,0,0,1,1.86,21.4a3,3,0,0,1-.35-.87,1,1,0,0,1,.23-.87.72.72,0,0,1,.88-.24A7.28,7.28,0,0,1,3.47,19.82Z"/><path class="cls-4" d="M35.18,19.84a5.58,5.58,0,0,1,.63-.35.86.86,0,0,1,1,0,1.06,1.06,0,0,1,.37,1A2.44,2.44,0,0,1,36,22.18c-1,.65-.71.65-1.67,0a2.46,2.46,0,0,1-1.11-1.52,1.56,1.56,0,0,1,0-.57.85.85,0,0,1,1.24-.64A6.94,6.94,0,0,1,35.18,19.84Z"/><path class="cls-4" d="M20.43,4.35l-.09.23c-.13,0-.27-.13-.38-.1s-.15.18-.24.3l-.24,0,.29-.65Z"/><path class="cls-4" d="M27.43,5.52l-.61-.32L27,5l.6.31Z"/><path class="cls-4" d="M22.8,6l-.29.07-.39-.46.17-.22Z"/><path class="cls-4" d="M31.24,18.68V18.4l.71.1-.06.26Z"/><path class="cls-4" d="M20.15,21.53l.27-.59.26.07-.3.66Z"/><path class="cls-4" d="M13.58,5.17l.12.25-.62.28L13,5.46Z"/><path class="cls-4" d="M19.85,6.07l-.24.12-.19-.72.27,0Z"/><path class="cls-4" d="M25.11,3.94,25,4.18l-.61-.3.11-.25Z"/><path class="cls-4" d="M7,7l-.67-.24.1-.25.63.22Z"/><path class="cls-4" d="M19.94,21.87l.1-.25.64.22-.07.26Z"/><path class="cls-4" d="M26,21.77l.12.25-.64.26-.1-.24Z"/><path class="cls-4" d="M6.42,22.25l0-.27.65-.14.07.27Z"/><path class="cls-4" d="M22.2,6.48l.12.24-.7.19-.05-.26Z"/><path class="cls-4" d="M5.68,6.44,5.11,6l.17-.21.54.38Z"/><path class="cls-4" d="M15.65,4.68l-.08-.26.67-.18.06.26Z"/><path class="cls-4" d="M28.3,20.26l.18.21-.54.43-.17-.21Z"/><path class="cls-4" d="M23.36,22.65l-.7,0,.05-.26.65.05Z"/><path class="cls-4" d="M23.15,3.16l.67.2-.08.25-.65-.19Z"/><path class="cls-4" d="M15,4.9l-.64.25-.1-.25.65-.25Z"/><path class="cls-4" d="M14.63,21l-.56-.4.16-.22.56.39Z"/><path class="cls-4" d="M32.83,5.34l-.62.3-.13-.24.62-.3Z"/><path class="cls-4" d="M10.37,20.76l-.11-.24.63-.29.11.25Z"/><path class="cls-4" d="M19.22,19.69l-.12-.24.71-.23,0,.28Z"/><path class="cls-4" d="M29.49,19.49,29,20l-.15-.22.43-.46Z"/><path class="cls-4" d="M10.43,6.59l.64-.23.1.25-.65.24Z"/><path class="cls-4" d="M16,21.47l-.14.23-.58-.35.14-.24Z"/><path class="cls-4" d="M27.2,21.09l.15.22-.59.38-.13-.24Z"/><path class="cls-4" d="M32.64,18.74l.63.3-.12.24L32.54,19Z"/><path class="cls-4" d="M19.24,22.62l-.07-.27.54-.31.19.2Z"/><path class="cls-4" d="M22,22.2l-.05.26-.68-.16.07-.26Z"/><path class="cls-4" d="M18.47,22.65l-.68-.14.07-.25.66.12Z"/><path class="cls-4" d="M20.14,6.77l.13-.25.6.14v.27Z"/><path class="cls-4" d="M17,4.35l-.06-.27L17.61,4l.05.26Z"/><path class="cls-4" d="M26.33,4.62l-.13.23-.6-.33.14-.24Z"/><path class="cls-4" d="M21,4.89l.13-.23.6.34-.14.24Z"/><path class="cls-4" d="M30.92,6.18c-.11-.18-.12-.28.11-.33a1.94,1.94,0,0,0,.42-.15l.12.25Z"/><path class="cls-4" d="M9.13,7.16l0-.27.66-.11L9.83,7Z"/><path class="cls-4" d="M9.62,20.81l.11.25-.62.28L9,21.1Z"/><path class="cls-4" d="M7.8,21.88l-.09-.25.63-.25.11.24Z"/><path class="cls-4" d="M5,22l.07-.25.66.15-.06.26Z"/><path class="cls-4" d="M30.49,18.48l.08.27L30,19l-.16-.22Z"/><path class="cls-4" d="M24.09,22.62l0-.27.65-.12.07.26Z"/><path class="cls-4" d="M29.44,6.23,29.5,6l.65,0v.26Z"/><path class="cls-4" d="M18.62,20a2.52,2.52,0,0,1-.17.44c0,.07-.13.1-.21.15a.62.62,0,0,1,.25-.74Z"/><path class="cls-4" d="M21,3.22l.08.26-.58.28-.16-.22Z"/><path class="cls-4" d="M17.19,22.05l-.09.25L16.46,22l.1-.24Z"/><path class="cls-4" d="M28.08,5.82l.11-.25.63.23-.07.26Z"/><path class="cls-4" d="M18.67,21.22l.16-.21.57.34-.11.24Z"/><path class="cls-4" d="M20.53,20.27l-.16-.57.22-.18.22.75Z"/><path class="cls-4" d="M13.52,20.1a2.78,2.78,0,0,1-.49-.19c-.06,0-.07-.16-.09-.24L13,19.6l.68.28Z"/><path class="cls-4" d="M11.65,20.21l-.1-.25.66-.22.08.26Z"/><path class="cls-4" d="M11.83,6.31l-.13-.23.62-.31.13.23Z"/><path class="cls-4" d="M18.35,4.21V4H19l0,.27Z"/><path class="cls-4" d="M8.4,6.94v.25l-.66,0c0-.28,0-.29.21-.27Z"/><path class="cls-4" d="M22.4,3.33h-.66l0-.25h.68Z"/></g></g></svg>