<svg xmlns="http://www.w3.org/2000/svg" viewBox="0 0 38.55 24.66"><defs><style>.cls-1{isolation:isolate;}.cls-2{opacity:0.15;}.cls-2,.cls-3{mix-blend-mode:multiply;}.cls-4{fill:#fff;}</style></defs><title>convert-CUSTOMIZE-SVG-03</title><g class="cls-1"><g id="Layer_1" data-name="Layer 1"><g class="cls-2"><path d="M6.06,8.26A3,3,0,0,1,9.29,6.57a2.6,2.6,0,0,1,2.14,1.9c-.18,0-.34,0-.49.08a2.8,2.8,0,0,0-2.11,2.34,5.38,5.38,0,0,0,.74,3.28l0,0,.2-.27a9.48,9.48,0,0,0,1.6-3.17,4.1,4.1,0,0,0,.05-2.17.21.21,0,0,1,0-.08,3.22,3.22,0,0,1,2.78,1.6l.17-.12a3,3,0,0,1,4.22.68,2.89,2.89,0,0,1,.13,2.79,6.22,6.22,0,0,1-2.06,2.43,16.24,16.24,0,0,1-3.72,2,.5.5,0,0,1-.56-.14,15.8,15.8,0,0,1-2.76-3.44.38.38,0,0,0-.07-.11l-.15.18L8.22,15.86a.46.46,0,0,1-.55.15,14.06,14.06,0,0,1-4.62-2.52,4.72,4.72,0,0,1-1.59-2.35A2.68,2.68,0,0,1,3.87,7.67,3,3,0,0,1,6,8.21Z"/><path d="M13.2,3.72l-.66-.62.39-.46.66.73Z"/><path d="M12.4,19.65l.66.73-.38.36L12,20.12Z"/><path d="M12.68,7.69,12,7.06l.38-.46.66.73Z"/><path d="M16,18.63,15.32,18l.38-.46.65.73Z"/><path d="M16.45,6.62l.66.73-.39.36-.65-.63Z"/><path d="M3.71,21.06l.66.73L4,22.14l-.66-.62Z"/><path d="M2.49,16.93l-.66-.63.38-.46.66.73Z"/><path d="M6.57,2.32l.66.73-.38.36-.66-.63Z"/><path d="M2.15,7.45,2,7.72l-.27-.11.11-.28Z"/><path d="M10.35,2.87l-.28-.12.11-.28.28.11Z"/><path d="M10.47,4.64l.13-.28.28.12-.12.27Z"/><path d="M17.9,8l.27.12-.11.27-.28-.1Z"/><path d="M3.93,15.05l-.28-.11.11-.28.29.11Z"/><path d="M1.74,5.55l-.11.28-.28-.12.11-.28Z"/><path d="M17.89,5.71,18,5.44l.28.11-.11.28Z"/><path d="M15.29,21l.28.11-.11.28-.28-.11Z"/><path d="M6.65,21.14l.28.12-.12.28-.28-.12Z"/><path d="M15.37,8.48l-.28-.11.12-.28.27.11Z"/><path d="M17.48,16.82l.28.12-.11.27-.28-.11Z"/><path d="M9.6,16.72l-.28-.12.1-.27.29.11Z"/><path d="M3.66,17.27l.28.11-.11.27-.29-.1Z"/><path d="M6.39,17.89l-.12.29L6,18.07l.1-.28Z"/><path d="M8.1,18.67l.27.11-.11.28L8,19Z"/><path d="M8.58,5.1l-.11.28-.29-.11L8.3,5Z"/><path d="M15.59,4.65l.1-.28.29.11-.11.29Z"/><path d="M5.51,6l.28.11-.11.28L5.4,6.25Z"/><path d="M3.76,5,4,5.12l-.11.28-.28-.11Z"/><path d="M14.46,6.07,14.18,6l.12-.27.28.11Z"/><path d="M9.83,19l.12-.28.28.11-.11.28Z"/><path d="M15.09,19.72l.12-.28.27.12-.11.27Z"/><path d="M2.35,2.94l.12-.28.28.11L2.64,3Z"/><path d="M12.13,21.45l-.12.27-.28-.1.11-.28Z"/><path d="M1.35,13.88l.11-.28.28.11L1.63,14Z"/><path d="M18.67,2.94l.11-.28.28.11L19,3Z"/><path d="M5.12,4,5,4.3l-.28-.11.11-.28Z"/><path d="M8.78,21.26l-.11.27-.28-.11.12-.28Z"/><path d="M2.55,19.64l-.12.27-.28-.11.12-.28Z"/><path d="M17.89,20.94l.28.11-.11.28-.28-.11Z"/><path d="M5,19.91l-.28-.11.11-.28.28.12Z"/><path d="M6.26,8.45A3.06,3.06,0,0,1,9.49,6.76a2.63,2.63,0,0,1,2.14,1.9c-.18,0-.34.05-.49.09A2.79,2.79,0,0,0,9,11.09a5.4,5.4,0,0,0,.74,3.28l.05,0,.2-.27A9.67,9.67,0,0,0,11.62,11a4.21,4.21,0,0,0,.05-2.17.27.27,0,0,1,0-.09,3.21,3.21,0,0,1,2.78,1.61l.17-.12a3,3,0,0,1,4.22.67,2.91,2.91,0,0,1,.12,2.8,6.11,6.11,0,0,1-2.05,2.43,16.06,16.06,0,0,1-3.73,2,.46.46,0,0,1-.55-.13,15.51,15.51,0,0,1-2.76-3.44.9.9,0,0,0-.07-.11l-.15.18L8.42,16.06a.48.48,0,0,1-.56.15,14.11,14.11,0,0,1-4.61-2.52,4.76,4.76,0,0,1-1.59-2.35A2.67,2.67,0,0,1,4.07,7.87a3,3,0,0,1,2.1.54Z"/><path d="M13.4,3.92l-.66-.62.38-.47.67.74Z"/><path d="M12.6,19.85l.66.73-.38.36-.66-.63Z"/><path d="M12.88,7.89l-.66-.63.38-.46.66.73Z"/><path d="M16.18,18.83l-.66-.63.38-.46.65.73Z"/><path d="M16.64,6.82l.66.73-.38.35-.66-.62Z"/><path d="M3.91,21.25l.65.74-.38.35-.65-.62Z"/><path d="M2.69,17.13,2,16.5,2.41,16l.66.73Z"/><path d="M6.77,2.52l.66.73-.38.36L6.39,3Z"/><path d="M2.35,7.65l-.12.27L2,7.81l.11-.28Z"/><path d="M10.55,3.06,10.27,3l.11-.28.28.11Z"/><path d="M10.67,4.84l.13-.28.27.12L11,5Z"/><path d="M18.09,8.24l.28.12-.11.27L18,8.53Z"/><path d="M4.13,15.25l-.28-.11L4,14.86l.29.11Z"/><path d="M1.94,5.74,1.83,6l-.28-.12.11-.28Z"/><path d="M18.08,5.91l.12-.28.28.12L18.37,6Z"/><path d="M15.49,21.22l.28.12-.12.28-.28-.12Z"/><path d="M6.85,21.34l.28.11L7,21.74l-.28-.12Z"/><path d="M15.57,8.68l-.28-.12.12-.27.27.11Z"/><path d="M17.68,17l.28.11-.11.28-.28-.11Z"/><path d="M9.8,16.92l-.28-.12.1-.27.29.11Z"/><path d="M3.85,17.46l.28.12-.1.27-.29-.1Z"/><path d="M6.59,18.09l-.12.29-.28-.11.1-.28Z"/><path d="M8.3,18.87l.27.11-.11.28-.28-.11Z"/><path d="M8.78,5.3l-.12.28-.28-.12.12-.27Z"/><path d="M15.79,4.85l.1-.28.28.11L16.06,5Z"/><path d="M5.71,6.16,6,6.28l-.11.28L5.6,6.44Z"/><path d="M4,5.2l.28.12-.11.28-.28-.11Z"/><path d="M14.66,6.27l-.28-.12.12-.28.27.12Z"/><path d="M10,19.15l.12-.28.28.11-.11.28Z"/><path d="M15.29,19.92l.12-.28.27.11-.11.28Z"/><path d="M2.55,3.13l.12-.27L3,3l-.12.27Z"/><path d="M12.33,21.65l-.12.27-.28-.11.11-.27Z"/><path d="M1.55,14.08l.11-.28.28.11-.11.28Z"/><path d="M18.87,3.13,19,2.86l.28.11-.11.27Z"/><path d="M5.32,4.22,5.2,4.5l-.27-.12L5,4.1Z"/><path d="M9,21.45l-.11.28-.28-.11.12-.28Z"/><path d="M2.74,19.84l-.11.27L2.35,20l.12-.28Z"/><path d="M18.09,21.14l.28.11-.11.28L18,21.42Z"/><path d="M5.21,20.11,4.93,20,5,19.72l.28.12Z"/></g><g class="cls-3"><path d="M5.92,8.11A3.06,3.06,0,0,1,9.15,6.42a2.62,2.62,0,0,1,2.14,1.9c-.18,0-.34,0-.49.09a2.77,2.77,0,0,0-2.11,2.34A5.4,5.4,0,0,0,9.43,14l.05,0,.2-.27a9.67,9.67,0,0,0,1.6-3.17,4.21,4.21,0,0,0,.05-2.17.27.27,0,0,1,0-.09A3.21,3.21,0,0,1,14.11,10l.17-.12a3,3,0,0,1,4.22.67,2.91,2.91,0,0,1,.12,2.8,6.11,6.11,0,0,1-2.05,2.43,16.06,16.06,0,0,1-3.73,2,.46.46,0,0,1-.55-.13,15.51,15.51,0,0,1-2.76-3.44l-.07-.11-.15.18L8.08,15.72a.48.48,0,0,1-.56.15,14.11,14.11,0,0,1-4.61-2.52A4.76,4.76,0,0,1,1.32,11,2.67,2.67,0,0,1,3.73,7.53a3.06,3.06,0,0,1,2.1.53Z"/><path d="M13.06,3.58,12.4,3l.38-.47.67.74Z"/><path d="M12.26,19.5l.66.74-.38.36L11.88,20Z"/><path d="M12.54,7.55l-.66-.63.38-.46.66.73Z"/><path d="M15.84,18.49l-.66-.63.38-.46.65.73Z"/><path d="M16.3,6.48l.66.73-.38.35-.66-.62Z"/><path d="M3.57,20.91l.65.74L3.84,22l-.65-.62Z"/><path d="M2.35,16.79l-.66-.63.38-.46.66.73Z"/><path d="M6.43,2.18l.66.73-.38.36-.66-.63Z"/><path d="M2,7.31l-.12.27-.27-.11.11-.28Z"/><path d="M10.21,2.72l-.28-.11L10,2.33l.28.11Z"/><path d="M10.33,4.5l.13-.28.27.12-.11.27Z"/><path d="M17.75,7.9,18,8l-.12.27-.27-.1Z"/><path d="M3.79,14.91l-.28-.11.11-.28.29.11Z"/><path d="M1.6,5.4l-.11.29-.28-.12.11-.28Z"/><path d="M17.74,5.57l.12-.28.28.11L18,5.69Z"/><path d="M15.15,20.88l.28.12-.12.28L15,21.16Z"/><path d="M6.51,21l.28.11-.12.28-.28-.11Z"/><path d="M15.23,8.34,15,8.22,15.07,8l.27.11Z"/><path d="M17.34,16.68l.28.11-.11.28L17.23,17Z"/><path d="M9.46,16.58l-.28-.12.1-.27.29.11Z"/><path d="M3.51,17.12l.28.12-.1.27-.29-.1Z"/><path d="M6.25,17.75,6.13,18l-.28-.1.1-.28Z"/><path d="M8,18.53l.27.11-.11.28-.28-.11Z"/><path d="M8.44,5l-.12.28L8,5.12l.12-.27Z"/><path d="M15.45,4.51l.1-.28.28.11-.11.29Z"/><path d="M5.37,5.82l.28.12-.11.28L5.26,6.1Z"/><path d="M3.62,4.86,3.9,5l-.11.28-.28-.11Z"/><path d="M14.32,5.93,14,5.81l.12-.28.27.12Z"/><path d="M9.69,18.81l.12-.28.28.11-.11.28Z"/><path d="M15,19.58l.12-.28.27.11-.11.28Z"/><path d="M2.21,2.79l.12-.27.28.11-.12.27Z"/><path d="M12,21.31l-.12.27-.28-.11.11-.27Z"/><path d="M1.21,13.74l.11-.28.28.11-.11.28Z"/><path d="M18.53,2.79l.11-.27.28.11-.11.27Z"/><path d="M5,3.88l-.12.28L4.59,4l.11-.28Z"/><path d="M8.64,21.11l-.11.28-.28-.11L8.37,21Z"/><path d="M2.4,19.5l-.11.27L2,19.66l.12-.28Z"/><path d="M17.75,20.8l.28.11-.11.28-.28-.11Z"/><path d="M4.87,19.77l-.28-.11.11-.28L5,19.5Z"/></g><path class="cls-4" d="M6.11,8.31A3.08,3.08,0,0,1,9.35,6.62a2.62,2.62,0,0,1,2.14,1.9c-.18,0-.34.05-.5.09a2.77,2.77,0,0,0-2.1,2.33,5.41,5.41,0,0,0,.74,3.29l0,0,.2-.27a9.67,9.67,0,0,0,1.6-3.17,4.24,4.24,0,0,0,0-2.18s0-.05,0-.08a3.21,3.21,0,0,1,2.78,1.61l.16-.12a3,3,0,0,1,4.23.67,2.91,2.91,0,0,1,.12,2.8A6.14,6.14,0,0,1,16.76,16,16.17,16.17,0,0,1,13,18a.48.48,0,0,1-.56-.13,16,16,0,0,1-2.75-3.44l-.07-.12-.15.19L8.28,15.92a.5.5,0,0,1-.56.15A14.35,14.35,0,0,1,3.1,13.55,4.81,4.81,0,0,1,1.52,11.2,2.68,2.68,0,0,1,3.93,7.72,3.08,3.08,0,0,1,6,8.26Z"/><path class="cls-4" d="M13.26,3.78l-.66-.62L13,2.69l.66.74Z"/><path class="cls-4" d="M12.46,19.7l.65.74-.37.36-.66-.63Z"/><path class="cls-4" d="M12.73,7.75l-.65-.63.38-.46.65.73Z"/><path class="cls-4" d="M16,18.69l-.65-.63.38-.46.65.73Z"/><path class="cls-4" d="M16.5,6.67l.66.74-.38.35-.66-.62Z"/><path class="cls-4" d="M3.77,21.11l.65.73L4,22.2l-.66-.63Z"/><path class="cls-4" d="M2.55,17l-.66-.63.38-.46.66.73Z"/><path class="cls-4" d="M6.63,2.38l.65.73-.37.36-.66-.63Z"/><path class="cls-4" d="M2.21,7.5l-.12.28-.27-.11.11-.28Z"/><path class="cls-4" d="M10.41,2.92l-.28-.11.11-.28.28.11Z"/><path class="cls-4" d="M10.53,4.7l.12-.29.28.12-.11.28Z"/><path class="cls-4" d="M18,8.1l.28.12-.12.27-.28-.11Z"/><path class="cls-4" d="M4,15.11,3.71,15l.11-.28.28.12Z"/><path class="cls-4" d="M1.8,5.6l-.11.28-.28-.11.11-.28Z"/><path class="cls-4" d="M17.94,5.77l.12-.28.28.11-.12.28Z"/><path class="cls-4" d="M15.35,21.08l.28.11-.12.29-.28-.12Z"/><path class="cls-4" d="M6.71,21.2l.28.11-.12.28-.28-.11Z"/><path class="cls-4" d="M15.43,8.54l-.28-.12.12-.28.27.12Z"/><path class="cls-4" d="M17.54,16.88l.28.11-.11.28-.28-.11Z"/><path class="cls-4" d="M9.66,16.78l-.29-.12.11-.27.29.11Z"/><path class="cls-4" d="M3.71,17.32l.28.11-.11.28-.28-.1Z"/><path class="cls-4" d="M6.44,18l-.12.28-.27-.11.1-.27Z"/><path class="cls-4" d="M8.15,18.73l.28.11-.11.28L8,19Z"/><path class="cls-4" d="M8.64,5.16l-.12.27-.28-.11.12-.27Z"/><path class="cls-4" d="M15.64,4.71l.11-.28.28.11-.11.28Z"/><path class="cls-4" d="M5.57,6l.28.12-.12.28L5.46,6.3Z"/><path class="cls-4" d="M3.82,5.06l.28.12L4,5.46l-.28-.12Z"/><path class="cls-4" d="M14.52,6.13,14.24,6l.11-.28.28.12Z"/><path class="cls-4" d="M9.89,19l.11-.28.28.11-.11.28Z"/><path class="cls-4" d="M15.14,19.77l.13-.27.27.11-.11.28Z"/><path class="cls-4" d="M2.41,3l.12-.27.28.11-.12.27Z"/><path class="cls-4" d="M12.19,21.5l-.12.28-.28-.11.1-.27Z"/><path class="cls-4" d="M1.41,13.93l.11-.28.28.12-.11.28Z"/><path class="cls-4" d="M18.73,3l.11-.27.28.11L19,3.1Z"/><path class="cls-4" d="M5.18,4.08l-.12.28-.27-.12L4.9,4Z"/><path class="cls-4" d="M8.84,21.31l-.11.28-.28-.11.11-.28Z"/><path class="cls-4" d="M2.6,19.7,2.49,20l-.28-.11.12-.28Z"/><path class="cls-4" d="M18,21l.28.12-.11.28-.28-.11Z"/><path class="cls-4" d="M5.07,20l-.29-.11.12-.28.28.11Z"/></g></g></svg>