<svg xmlns="http://www.w3.org/2000/svg" viewBox="0 0 38.55 24.66"><defs><style>.cls-1{isolation:isolate;}.cls-2{opacity:0.15;}.cls-2,.cls-3{mix-blend-mode:multiply;}.cls-4{fill:#fff;}</style></defs><title>convert-CUSTOMIZE-SVG-03</title><g class="cls-1"><g id="Layer_1" data-name="Layer 1"><g class="cls-2"><path d="M6.37,11.58c-.06-.26-.13-.51-.17-.76a5.44,5.44,0,0,1,.37-2.59.32.32,0,0,0-.06-.36,4.5,4.5,0,0,1-.73-1.45.24.24,0,0,0-.09-.15,1.44,1.44,0,0,1-.46-1.79A2.21,2.21,0,0,1,6.84,3.3a.9.9,0,0,0,.36-.16,5.08,5.08,0,0,1,2.19-1,3,3,0,0,1,1.92.25.19.19,0,0,0,.25,0,1.56,1.56,0,0,1,2.28.17,1.15,1.15,0,0,1,.22,1.15,1.48,1.48,0,0,1-.21.46,1.18,1.18,0,0,0-.21.82,5.3,5.3,0,0,1-.33,2.27c.36.24.71.48,1.07.7.08.05.2,0,.31.05a4.39,4.39,0,0,1,1.87.73c.16-.14.3-.28.45-.39a1,1,0,0,1,1.54.29.71.71,0,0,1-.05.87,3.63,3.63,0,0,1-.66.51c-.11.07-.17.12-.13.27a3,3,0,0,1,0,1.51c-.07.22-.18.42-.24.65a.6.6,0,0,0,0,.37,1.74,1.74,0,0,1-.21,2,2.85,2.85,0,0,1-1.37.75,2,2,0,0,1-1.09,0c-.18.4-.37.79-.54,1.18a.43.43,0,0,0,0,.25,2.19,2.19,0,0,0,.8,1.28A2.9,2.9,0,0,1,16,19.49a1.27,1.27,0,0,1-.94,1.74,3.52,3.52,0,0,1-1.85-.1,1.87,1.87,0,0,1-1.31-1.57c-.06-.38-.13-.75-.18-1.13a.14.14,0,0,0-.16-.14c-.23,0-.45,0-.69,0a.71.71,0,0,0,0,.16c.28.51.55,1,.85,1.52a3.51,3.51,0,0,1,.64,1.81,1.25,1.25,0,0,1-.57,1.1,2.67,2.67,0,0,1-2.24.38,1.83,1.83,0,0,1-1.3-1.51c-.1-.44-.08-.91-.14-1.36C8.12,19.76,8,19.13,8,18.5s-.08-1-.12-1.56a1.19,1.19,0,0,0-.19,0,5.16,5.16,0,0,1-2.07-.14l-.35-.07a.89.89,0,0,1-.77-.81.94.94,0,0,1,.41-1,2.55,2.55,0,0,0,1-1.49,1.17,1.17,0,0,0,0-.49A1.22,1.22,0,0,1,6.37,11.58ZM17.25,13h0a.91.91,0,0,1,0-.93,2.09,2.09,0,0,0,.2-1.25,1.83,1.83,0,0,0-.17-.74,6.71,6.71,0,0,0-.67-.81l-2,.65-.11-.17A6.19,6.19,0,0,1,16.49,9c-1-1.2-4-1-4.9.35.24-.1.47-.22.71-.3a2,2,0,0,1,2.2.62c.14.18.26.4.11.62a.91.91,0,0,1-.74.5.65.65,0,0,0-.24.06l-1.36.81a.69.69,0,0,0-.13.11.81.81,0,0,1-.71.29c-.28,0-.4-.24-.48-.48a2.2,2.2,0,0,1-.07-1.22,4.25,4.25,0,0,0-.3.74,2.33,2.33,0,0,0,.58,2.48,7.35,7.35,0,0,0,1.44,1,2.71,2.71,0,0,0,1.52.28.53.53,0,0,1,.3.09,1.68,1.68,0,0,0,1.87.09L16.2,15a.85.85,0,0,1,.84-.37.14.14,0,0,0,.11-.05A1.4,1.4,0,0,0,17.25,13ZM12.69,7.82c.1-.16.18-.29.25-.43a4.86,4.86,0,0,0,.44-2.19c0-.35.06-.74-.33-1h0a1.32,1.32,0,0,0-.87-.58l-.33-.07A5.71,5.71,0,0,0,11,3.4a3.29,3.29,0,0,0-.94.06c-.44.09-.87.24-1.33.38l-.1-.16A4,4,0,0,1,11,3.13l.24-.44a3.39,3.39,0,0,0-3.64.54c.24.1.51.18.76.31A.44.44,0,0,1,8.6,4a1.34,1.34,0,0,1-.77.67.66.66,0,0,0-.3.15L6,6.3C6.4,7.69,7.78,9,8.77,8.91a1.15,1.15,0,0,1,.49-1.26,4.19,4.19,0,0,1,.59-.32A4.77,4.77,0,0,1,11.52,7,1,1,0,0,1,12.69,7.82ZM9.85,16.64c-.18-.39-.34-.75-.53-1.09a.84.84,0,0,0-.3-.32.35.35,0,0,0-.53.31,2.53,2.53,0,0,1-.27,1.27.51.51,0,0,0-.07.24c0,.43,0,.86,0,1.29.1,1,.21,2,.34,3a1.67,1.67,0,0,0,.24.78,2.12,2.12,0,0,0,2.8.59,1.11,1.11,0,0,0,.57-1.22,2.93,2.93,0,0,0-.56-1.35,9,9,0,0,1-1-1.94,1.62,1.62,0,0,0-.1-.18,2.08,2.08,0,0,1-.2-.36c-.13-.3-.24-.61-.36-.92a8.37,8.37,0,0,0,.55,3c.27.74.56,1.47.83,2.21a3.17,3.17,0,0,1,.1.64l-.29,0,.06,0c-.12-.38-.22-.77-.37-1.15a16.77,16.77,0,0,1-1-3c-.1-.56-.17-1.14-.25-1.72Zm-3.33-4.8a.87.87,0,0,0-.29,1.25,1.77,1.77,0,0,0,.76.62,16.44,16.44,0,0,1,2.78,1.55,6.73,6.73,0,0,0,.91.5.51.51,0,0,0,.79-.35,5.11,5.11,0,0,0,.15-.87.27.27,0,0,0-.16-.31,2.62,2.62,0,0,1-1.24-1.85.26.26,0,0,0-.07-.15,1.86,1.86,0,0,0-.89-.34l0,.28h0l-.08-.28a4.5,4.5,0,0,1-.22.44.89.89,0,0,1-.94.5,1.61,1.61,0,0,1-1.13-.58Zm7.39,5.45a1.12,1.12,0,0,1,.18.23A2.51,2.51,0,0,0,15,19a2.16,2.16,0,0,1,.37.37,1.36,1.36,0,0,1,.35.8h-.26a1.59,1.59,0,0,0-.68-1A2.66,2.66,0,0,1,14,18c-.06-.17-.11-.35-.17-.55A2.77,2.77,0,0,1,12,18.3c.09.51.16,1,.27,1.46a1,1,0,0,0,.55.79,4.72,4.72,0,0,0,2.17.33.89.89,0,0,0,.8-1.27,2.45,2.45,0,0,0-.85-1.13,2.45,2.45,0,0,1-.82-1.16,1.14,1.14,0,0,0-.07-.19Zm-2.25-1.61a.76.76,0,0,1-.84.41,2.47,2.47,0,0,1-.49-.19c-.22-.11-.44-.24-.7-.39l.11.26c.26.59.54,1.18.75,1.79A.59.59,0,0,0,11,18c.25,0,.5,0,.76,0a2.28,2.28,0,0,0,1.42-.46,3.91,3.91,0,0,0,1.33-2.15,1.71,1.71,0,0,0-.43-.21,1.38,1.38,0,0,0-1.14.29,1.57,1.57,0,0,1-.33.19L12,16c-.16.07-.27,0-.28-.16C11.7,15.81,11.69,15.77,11.66,15.68ZM6.17,13.45A2.93,2.93,0,0,1,5,15.2a.66.66,0,0,0-.23.72.59.59,0,0,0,.5.53,3.21,3.21,0,0,0,.43.07c.3,0,.59-.06.89,0,.47,0,.94.09,1.46.14a2.3,2.3,0,0,0,.14-.4c0-.39.06-.78.07-1.18s.11-.35-.35-.61A5.82,5.82,0,0,1,6.17,13.45Zm.68-5.19a5.5,5.5,0,0,0-.39,2.49,2.3,2.3,0,0,0,.81,1.53c.33.27.59.21.71-.21a2.49,2.49,0,0,0,0-1.55c-.1-.27.05-.47.34-.43a2.08,2.08,0,0,1,.48.16c0-.06,0-.13,0-.19a1.74,1.74,0,0,0-.17-.45c-.1-.17-.2-.41-.36-.47A4.27,4.27,0,0,1,6.85,8.26ZM11.49,9c.25-.17.46-.31.66-.46a.82.82,0,0,0,.21-.85.59.59,0,0,0-.64-.45,8.67,8.67,0,0,0-1.13.12A2.5,2.5,0,0,0,9.31,8,.8.8,0,0,0,9,8.71a1,1,0,0,0,1.15.79l0-.3c.23.1.45.34.69,0l-.59-.4a3.75,3.75,0,0,1,.21-.4.19.19,0,0,1,.12-.09l1-.19C11.84,8.49,11.84,8.49,11.49,9Zm1.39.22a2.11,2.11,0,0,0-1,.29,1.63,1.63,0,0,0-.66,2.08.29.29,0,0,0,.37.19c.16-.05.33-.1.31-.35a1,1,0,0,1,.47-.93,1.19,1.19,0,0,1,1.37-.06c.21.1.36,0,.56-.22s0-.3-.08-.42A1.7,1.7,0,0,0,12.88,9.26ZM7.52,4.38a.58.58,0,0,0,.68-.24c.19-.21.17-.31-.09-.44a1.88,1.88,0,0,0-1.32-.1,1.92,1.92,0,0,0-1.23.83,1.3,1.3,0,0,0,.05,1.44c.12.17.26.19.46.06s.23-.18.1-.37a.45.45,0,0,1,0-.36,1,1,0,0,1,.72-.71C7.09,4.44,7.32,4.42,7.52,4.38ZM10.8,9.92a1.32,1.32,0,0,1-.39-.05c-.35-.18-.57,0-.77.25a2,2,0,0,0-.19.22.76.76,0,0,0-.08.21c0,.23.11.49-.09.72-.06.06,0,.21,0,.31l.91.3A4.69,4.69,0,0,1,10.8,9.92Zm2.61-5.69h.08a4.73,4.73,0,0,0,.29-.6.91.91,0,0,0-.41-1.16,1.32,1.32,0,0,0-2,.56c-.06.1,0,.16.07.18s.27,0,.39.08.24,0,.35-.12A.82.82,0,0,1,13.33,3c.4.31.42.58.08,1C13.39,4.11,13.41,4.18,13.41,4.23ZM18,9.56c.36-.25.47-.5.32-.75s-.44-.58-.82-.46a1.68,1.68,0,0,0-.75.57l.48.58a.2.2,0,0,0,.27.07C17.68,9.51,17.86,9.41,18,9.56Zm-4.81-2-.51.73,1.22-.32Zm-.41,7.76,0,0-.88.27.09.24Zm-.74-.16.6-.14C12.2,14.84,12.05,14.87,12.06,15.12Z"/><path d="M17.53.74A.82.82,0,0,1,18.2.48a.69.69,0,0,1,.56.93,1.85,1.85,0,0,1-.67.91c-.66.53-.49.52-1.15,0a1.73,1.73,0,0,1-.66-.93.71.71,0,0,1,.26-.79.74.74,0,0,1,.87.06Z"/><path d="M3.74,2.76a2.74,2.74,0,0,1,.42-.21.64.64,0,0,1,.7.17A.75.75,0,0,1,5,3.49a2.22,2.22,0,0,1-.8,1c-.42.34-.43.35-.85,0a5,5,0,0,1-.63-.67,1,1,0,0,1-.19-.44.67.67,0,0,1,.31-.77.75.75,0,0,1,.85.11Z"/><path d="M3,17.53a2.3,2.3,0,0,1,.67-.18.67.67,0,0,1,.58.91,1.8,1.8,0,0,1-.64.89c-.69.56-.51.56-1.22,0A3.06,3.06,0,0,1,2,18.68a1.1,1.1,0,0,1-.17-.91.66.66,0,0,1,1-.34c.08,0,.15.1.23.15Z"/><path d="M15.31,5.13A1.81,1.81,0,0,1,15.8,5a.46.46,0,0,1,.38.61,1.68,1.68,0,0,1-.81.91s-.1,0-.13,0a1.93,1.93,0,0,1-.74-.76c-.16-.36,0-.73.35-.74A1.54,1.54,0,0,1,15.31,5.13Z"/><path d="M18,17c.06,0,.11-.08.18-.11a.49.49,0,0,1,.53.05.47.47,0,0,1,.14.54,1.66,1.66,0,0,1-.78.87.17.17,0,0,1-.17,0,4.73,4.73,0,0,1-.61-.57.57.57,0,0,1,0-.79C17.47,16.76,17.72,16.77,18,17Z"/><path d="M6,20.28a2.52,2.52,0,0,1,.45-.14.47.47,0,0,1,.43.67,1.76,1.76,0,0,1-.79.85.15.15,0,0,1-.13,0,5.69,5.69,0,0,1-.69-.7.69.69,0,0,1-.07-.51C5.31,20.09,5.71,20.05,6,20.28Z"/><path d="M16.64,21.65l.09-.06a.35.35,0,0,1,.43,0,.31.31,0,0,1,.07.42,4.15,4.15,0,0,1-.54.57s-.11,0-.14,0a2.34,2.34,0,0,1-.4-.37.45.45,0,0,1-.06-.58C16.22,21.5,16.38,21.5,16.64,21.65Z"/><path d="M4.76,12.8a1.12,1.12,0,0,1-.6.74.12.12,0,0,1-.1,0,1.13,1.13,0,0,1-.54-.62.43.43,0,0,1,.1-.37.45.45,0,0,1,.38,0,.27.27,0,0,0,.26,0A.34.34,0,0,1,4.76,12.8Z"/><path d="M18.42,12.26s.06-.06.09-.06a1.1,1.1,0,0,1,.41,0c.16.07.15.25.1.4a1.23,1.23,0,0,1-.56.61s-.1,0-.13,0a5.08,5.08,0,0,1-.41-.39.43.43,0,0,1,0-.58C18,12.11,18.18,12.11,18.42,12.26Z"/><path d="M2.62,8.28c.23-.15.42-.15.54,0a.43.43,0,0,1,0,.55c-.15.17-.35.43-.52.42S2.24,9,2.09,8.8a.42.42,0,0,1,0-.55Q2.28,8.07,2.62,8.28Z"/><path d="M17.25,13l0,.22-1.87.56a1.28,1.28,0,0,0-1,1l-.27,0a1.33,1.33,0,0,1,.8-1.1c.7-.26,1.43-.44,2.14-.66a.87.87,0,0,1,.23,0Z"/><path d="M14.76,13.27a.39.39,0,0,1-.39.36.29.29,0,0,1-.31-.27.4.4,0,0,1,.38-.35A.28.28,0,0,1,14.76,13.27Z"/><path d="M9.08,7.14a.31.31,0,0,1-.31.34A.53.53,0,0,1,8.32,7a.31.31,0,0,1,.33-.33A.47.47,0,0,1,9.08,7.14Z"/><path d="M12.32,6.55a3,3,0,0,1,.17-.41.16.16,0,0,1,.14-.07s.09.07.09.11a2.34,2.34,0,0,1-.08.53c0,.06-.12.1-.18.15a2.12,2.12,0,0,1-.11-.21s0-.05,0-.08Z"/><path d="M8.65,16a.88.88,0,0,1,.18,1A.86.86,0,0,1,8.65,16Z"/><path d="M10.19,15a.57.57,0,0,1-.59-.51.45.45,0,0,1,.49-.44.56.56,0,0,1,.59.51A.46.46,0,0,1,10.19,15Z"/><path d="M6.57,11.78c-.06-.26-.13-.51-.17-.76a5.5,5.5,0,0,1,.37-2.6.34.34,0,0,0-.06-.36A4.26,4.26,0,0,1,6,6.62a.29.29,0,0,0-.09-.15,1.45,1.45,0,0,1-.46-1.8A2.2,2.2,0,0,1,7,3.5a.9.9,0,0,0,.36-.16,5.09,5.09,0,0,1,2.19-1,3.11,3.11,0,0,1,1.92.26.19.19,0,0,0,.25,0A1.56,1.56,0,0,1,14,2.73a1.17,1.17,0,0,1,.22,1.15,1.48,1.48,0,0,1-.21.46,1.13,1.13,0,0,0-.21.82,5.3,5.3,0,0,1-.33,2.27c.36.24.71.48,1.07.7.08,0,.2,0,.31,0a4.56,4.56,0,0,1,1.87.72c.15-.13.3-.27.45-.39a1,1,0,0,1,1.54.3.72.72,0,0,1-.05.87,3.63,3.63,0,0,1-.66.51c-.11.07-.17.12-.14.27a2.87,2.87,0,0,1,0,1.51c-.07.22-.18.42-.24.65a.53.53,0,0,0,0,.37,1.74,1.74,0,0,1-.21,2,2.88,2.88,0,0,1-1.38.75,1.89,1.89,0,0,1-1.08,0c-.18.41-.37.79-.54,1.19a.39.39,0,0,0,0,.24,2.21,2.21,0,0,0,.8,1.29,2.9,2.9,0,0,1,.93,1.23,1.27,1.27,0,0,1-.94,1.73,3.42,3.42,0,0,1-1.85-.09,1.91,1.91,0,0,1-1.32-1.57c0-.38-.12-.75-.17-1.13,0-.11-.06-.14-.16-.14s-.45,0-.69,0a.53.53,0,0,0,.05.15c.28.52.55,1,.85,1.53A3.46,3.46,0,0,1,12.63,22a1.24,1.24,0,0,1-.56,1.1,2.68,2.68,0,0,1-2.25.38A1.83,1.83,0,0,1,8.53,22a12.22,12.22,0,0,1-.14-1.37c-.07-.63-.17-1.25-.24-1.88s-.08-1-.12-1.56a1.19,1.19,0,0,0-.19,0A5.35,5.35,0,0,1,5.77,17l-.36-.07a.88.88,0,0,1-.76-.81,1,1,0,0,1,.41-1,2.5,2.5,0,0,0,1-1.48,1.16,1.16,0,0,0,0-.49A1.22,1.22,0,0,1,6.57,11.78Zm10.88,1.37h0a.89.89,0,0,1,.05-.92A2,2,0,0,0,17.7,11a1.67,1.67,0,0,0-.16-.74,5.4,5.4,0,0,0-.68-.81l-1.95.65-.11-.17a6.19,6.19,0,0,1,1.89-.67c-1-1.2-4-1-4.9.35.24-.1.47-.22.71-.3a2,2,0,0,1,2.2.62.52.52,0,0,1,.11.62.91.91,0,0,1-.74.5.5.5,0,0,0-.24.06l-1.37.81-.12.11a.82.82,0,0,1-.72.29c-.27,0-.39-.25-.47-.48a2.11,2.11,0,0,1-.07-1.22,4.25,4.25,0,0,0-.3.74,2.32,2.32,0,0,0,.57,2.48,8.53,8.53,0,0,0,1.44,1,2.76,2.76,0,0,0,1.53.28.46.46,0,0,1,.3.09,1.69,1.69,0,0,0,1.87.09l-.09-.15a.83.83,0,0,1,.84-.37.14.14,0,0,0,.11,0A1.4,1.4,0,0,0,17.45,13.15ZM12.89,8c.1-.17.18-.29.25-.43a4.9,4.9,0,0,0,.44-2.2c0-.34.06-.73-.34-.95a0,0,0,0,0,0,0,1.34,1.34,0,0,0-.87-.57L12,3.78a5.71,5.71,0,0,0-.82-.18,3.69,3.69,0,0,0-.94,0c-.45.1-.87.25-1.33.39l-.1-.16a4,4,0,0,1,2.36-.55l.24-.44a3.41,3.41,0,0,0-3.65.54,8.26,8.26,0,0,1,.77.31.44.44,0,0,1,.24.49A1.34,1.34,0,0,1,8,4.9a.61.61,0,0,0-.3.15L6.24,6.5C6.6,7.89,8,9.22,9,9.1a1.13,1.13,0,0,1,.49-1.25,3,3,0,0,1,.59-.32,4.56,4.56,0,0,1,1.67-.33C12.36,7.17,12.65,7.37,12.89,8Zm-2.84,8.82c-.19-.39-.34-.75-.53-1.1a1,1,0,0,0-.31-.31.34.34,0,0,0-.52.31A2.64,2.64,0,0,1,8.42,17a.51.51,0,0,0-.07.24c0,.43,0,.86.05,1.29.1,1,.21,2,.34,3a1.59,1.59,0,0,0,.24.77,2.11,2.11,0,0,0,2.8.6,1.13,1.13,0,0,0,.57-1.22,2.89,2.89,0,0,0-.56-1.35,9,9,0,0,1-1-1.94l-.1-.18c-.07-.12-.15-.23-.21-.36-.12-.3-.23-.61-.35-.92a8.63,8.63,0,0,0,.54,3c.27.74.57,1.47.84,2.21a3.06,3.06,0,0,1,.1.64l-.29,0,.06,0c-.12-.38-.22-.78-.37-1.15a16.77,16.77,0,0,1-1-3c-.1-.57-.17-1.14-.25-1.72ZM6.72,12a.86.86,0,0,0-.29,1.24,1.73,1.73,0,0,0,.76.63A16.44,16.44,0,0,1,10,15.46a7.27,7.27,0,0,0,.91.5.51.51,0,0,0,.79-.35,6.33,6.33,0,0,0,.15-.87.3.3,0,0,0-.16-.31,2.62,2.62,0,0,1-1.24-1.85.26.26,0,0,0-.07-.15,1.86,1.86,0,0,0-.9-.34v.28h0l-.08-.28a4.5,4.5,0,0,1-.22.44.89.89,0,0,1-.94.5A1.69,1.69,0,0,1,7,12.45C6.94,12.31,6.84,12.18,6.72,12Zm7.39,5.44c.07.1.15.16.17.24a2.56,2.56,0,0,0,1,1.46,1.85,1.85,0,0,1,.37.37,1.36,1.36,0,0,1,.35.8h-.26a1.64,1.64,0,0,0-.68-1,2.51,2.51,0,0,1-.86-1.17c-.06-.17-.11-.35-.18-.55a2.73,2.73,0,0,1-1.78.87c.09.51.16,1,.26,1.46a1,1,0,0,0,.56.79,4.72,4.72,0,0,0,2.17.33.89.89,0,0,0,.8-1.27,2.53,2.53,0,0,0-.85-1.14,2.38,2.38,0,0,1-.82-1.15l-.07-.19Zm-2.25-1.6a.74.74,0,0,1-.84.4,2.22,2.22,0,0,1-.49-.18l-.71-.39c.06.12.09.19.12.26.26.59.53,1.18.75,1.79a.58.58,0,0,0,.54.44c.26,0,.51,0,.76,0a2.29,2.29,0,0,0,1.43-.46,4.07,4.07,0,0,0,1.33-2.15,1.71,1.71,0,0,0-.43-.21,1.41,1.41,0,0,0-1.15.29,1.69,1.69,0,0,1-.32.19c-.22.12-.44.23-.67.33s-.26,0-.27-.16S11.88,16,11.86,15.88Zm-5.5-2.23a2.92,2.92,0,0,1-1.2,1.75.66.66,0,0,0-.23.72.58.58,0,0,0,.49.53,3.64,3.64,0,0,0,.44.07,8.83,8.83,0,0,1,.89,0c.47,0,.94.09,1.45.14a1.34,1.34,0,0,0,.14-.4,11.69,11.69,0,0,0,.08-1.18c0-.52.11-.35-.35-.61A6.25,6.25,0,0,1,6.36,13.65ZM7,8.45A5.7,5.7,0,0,0,6.66,11a2.28,2.28,0,0,0,.81,1.53c.33.27.59.2.71-.21a2.49,2.49,0,0,0,0-1.55c-.11-.28.05-.47.34-.44a2.79,2.79,0,0,1,.48.17.63.63,0,0,0,0-.19,3,3,0,0,0-.17-.45c-.1-.17-.2-.42-.36-.47A4.28,4.28,0,0,1,7,8.45Zm4.65.79c.25-.17.46-.31.66-.47a.79.79,0,0,0,.21-.84.59.59,0,0,0-.64-.45,10.54,10.54,0,0,0-1.13.11,2.57,2.57,0,0,0-1.28.57.82.82,0,0,0-.3.75,1,1,0,0,0,1.16.79l0-.3c.24.1.46.33.7,0L10.5,9l.2-.4a.22.22,0,0,1,.13-.08l1-.19C12,8.69,12,8.69,11.69,9.24Zm1.38.22a2,2,0,0,0-1,.29,1.64,1.64,0,0,0-.67,2.07c.08.17.2.25.37.19s.34-.09.31-.34a1,1,0,0,1,.48-.93A1.21,1.21,0,0,1,14,10.67c.21.11.36.05.55-.21s0-.31-.07-.43A1.74,1.74,0,0,0,13.07,9.46ZM7.72,4.58a.57.57,0,0,0,.67-.24c.19-.21.18-.31-.08-.44A1.89,1.89,0,0,0,7,3.8a1.92,1.92,0,0,0-1.23.83,1.3,1.3,0,0,0,0,1.44.29.29,0,0,0,.45.06c.15-.09.24-.18.11-.37a.45.45,0,0,1,0-.36,1,1,0,0,1,.72-.71C7.29,4.64,7.52,4.61,7.72,4.58ZM11,10.12a1.45,1.45,0,0,1-.4,0c-.35-.18-.56,0-.76.25a2,2,0,0,0-.19.22.76.76,0,0,0-.08.21c-.05.23.1.49-.1.72-.05.06,0,.21,0,.31l.91.3A4.69,4.69,0,0,1,11,10.12Zm2.61-5.69h.08a4.73,4.73,0,0,0,.29-.6.91.91,0,0,0-.41-1.16,1.32,1.32,0,0,0-2,.56c-.07.09,0,.16.07.18s.26,0,.39.08a.26.26,0,0,0,.34-.12.83.83,0,0,1,1.17-.14c.4.31.41.58.08,1C13.59,4.31,13.61,4.38,13.61,4.43Zm4.61,5.33c.36-.25.47-.5.32-.75s-.44-.58-.82-.46a1.61,1.61,0,0,0-.75.57l.48.58a.21.21,0,0,0,.27.07C17.88,9.71,18.05,9.61,18.22,9.76Zm-4.81-2-.51.73,1.22-.32ZM13,15.48l0-.06-.88.28.09.24Zm-.75-.17.6-.13C12.4,15,12.25,15.07,12.25,15.31Z"/><path d="M17.73.94A.81.81,0,0,1,18.4.68a.68.68,0,0,1,.55.93,1.83,1.83,0,0,1-.66.91c-.66.52-.49.52-1.15,0a1.73,1.73,0,0,1-.66-.93.71.71,0,0,1,.26-.79.76.76,0,0,1,.87,0Z"/><path d="M3.94,3a2.67,2.67,0,0,1,.41-.21.64.64,0,0,1,.7.17.72.72,0,0,1,.14.77,2.22,2.22,0,0,1-.8,1C4,5,4,5,3.54,4.68A5.81,5.81,0,0,1,2.9,4a1.12,1.12,0,0,1-.18-.45A.66.66,0,0,1,3,2.8a.77.77,0,0,1,.85.1A.33.33,0,0,0,3.94,3Z"/><path d="M3.22,17.73a2.3,2.3,0,0,1,.67-.18.66.66,0,0,1,.58.9,1.78,1.78,0,0,1-.64.9c-.7.56-.52.56-1.22,0a2.71,2.71,0,0,1-.42-.47A1.07,1.07,0,0,1,2,18a.66.66,0,0,1,1-.34,1.7,1.7,0,0,1,.22.15Z"/><path d="M15.5,5.33a1.62,1.62,0,0,1,.5-.11.46.46,0,0,1,.38.61,1.8,1.8,0,0,1-.81.91.2.2,0,0,1-.13,0A1.87,1.87,0,0,1,14.7,6c-.16-.36,0-.73.35-.74A1.41,1.41,0,0,1,15.5,5.33Z"/><path d="M18.23,17.17a1.08,1.08,0,0,1,.18-.11.47.47,0,0,1,.53.05.46.46,0,0,1,.14.54,1.7,1.7,0,0,1-.78.87.17.17,0,0,1-.17,0,4.73,4.73,0,0,1-.61-.57.59.59,0,0,1,0-.79C17.67,17,17.92,17,18.23,17.17Z"/><path d="M6.22,20.48a1.9,1.9,0,0,1,.45-.14A.47.47,0,0,1,7.1,21a1.81,1.81,0,0,1-.79.85.15.15,0,0,1-.13,0,5.69,5.69,0,0,1-.69-.7.66.66,0,0,1-.07-.52C5.51,20.29,5.9,20.24,6.22,20.48Z"/><path d="M16.84,21.84l.09-.05a.35.35,0,0,1,.43,0,.33.33,0,0,1,.07.42,4.85,4.85,0,0,1-.54.57.17.17,0,0,1-.15,0,3.41,3.41,0,0,1-.39-.37.45.45,0,0,1-.06-.58C16.41,21.7,16.58,21.7,16.84,21.84Z"/><path d="M5,13a1.15,1.15,0,0,1-.6.74.16.16,0,0,1-.1,0,1.13,1.13,0,0,1-.54-.62.4.4,0,0,1,.1-.37.45.45,0,0,1,.38,0,.3.3,0,0,0,.26,0A.33.33,0,0,1,5,13Z"/><path d="M18.62,12.45s.06,0,.09,0a1.11,1.11,0,0,1,.41,0c.15.07.15.25.1.4a1.23,1.23,0,0,1-.56.61.16.16,0,0,1-.13,0,3.79,3.79,0,0,1-.42-.38.44.44,0,0,1,0-.58C18.2,12.31,18.38,12.31,18.62,12.45Z"/><path d="M2.82,8.47c.23-.14.42-.14.54,0a.42.42,0,0,1,0,.55c-.14.17-.34.43-.51.42S2.44,9.17,2.29,9a.41.41,0,0,1,0-.54C2.4,8.33,2.59,8.33,2.82,8.47Z"/><path d="M17.45,13.15l0,.22-1.87.56a1.27,1.27,0,0,0-1,1l-.27,0a1.31,1.31,0,0,1,.8-1.1c.7-.26,1.42-.45,2.14-.66a.87.87,0,0,1,.23,0Z"/><path d="M15,13.46a.4.4,0,0,1-.39.37.29.29,0,0,1-.31-.28.4.4,0,0,1,.38-.35A.28.28,0,0,1,15,13.46Z"/><path d="M9.28,7.33A.3.3,0,0,1,9,7.67a.5.5,0,0,1-.45-.5.32.32,0,0,1,.32-.34A.49.49,0,0,1,9.28,7.33Z"/><path d="M12.51,6.75c.06-.14.11-.28.18-.42a.23.23,0,0,1,.14-.07.16.16,0,0,1,.09.12,2.34,2.34,0,0,1-.08.53c0,.06-.12.1-.18.15a2.12,2.12,0,0,1-.11-.21.22.22,0,0,1,0-.08Z"/><path d="M8.85,16.17a.88.88,0,0,1,.18,1A.86.86,0,0,1,8.85,16.17Z"/><path d="M10.39,15.16a.57.57,0,0,1-.59-.51.46.46,0,0,1,.48-.45.58.58,0,0,1,.6.51A.46.46,0,0,1,10.39,15.16Z"/></g><g class="cls-3"><path d="M6.23,11.44c-.06-.26-.13-.51-.17-.76a5.5,5.5,0,0,1,.37-2.6.34.34,0,0,0-.06-.36,4.26,4.26,0,0,1-.73-1.44.29.29,0,0,0-.09-.15,1.45,1.45,0,0,1-.46-1.8A2.2,2.2,0,0,1,6.7,3.16.9.9,0,0,0,7.06,3,5.09,5.09,0,0,1,9.25,2a3.18,3.18,0,0,1,1.92.25.18.18,0,0,0,.25,0,1.56,1.56,0,0,1,2.28.17,1.17,1.17,0,0,1,.22,1.15,1.48,1.48,0,0,1-.21.46,1.09,1.09,0,0,0-.21.82,5.3,5.3,0,0,1-.33,2.27c.36.24.71.48,1.07.7.08,0,.2,0,.31,0a4.56,4.56,0,0,1,1.87.72c.15-.13.3-.27.45-.39a1,1,0,0,1,1.54.3.72.72,0,0,1-.05.87,3.63,3.63,0,0,1-.66.51c-.11.07-.17.11-.14.27a2.87,2.87,0,0,1,0,1.51c-.07.22-.18.42-.24.65a.53.53,0,0,0,0,.37,1.74,1.74,0,0,1-.21,2,2.88,2.88,0,0,1-1.38.75,1.89,1.89,0,0,1-1.08,0c-.18.41-.37.79-.54,1.19a.39.39,0,0,0,0,.24,2.21,2.21,0,0,0,.8,1.29,2.9,2.9,0,0,1,.93,1.23A1.27,1.27,0,0,1,15,21.08,3.42,3.42,0,0,1,13.1,21a1.91,1.91,0,0,1-1.32-1.57c0-.38-.12-.75-.17-1.13,0-.11-.06-.14-.16-.14s-.45,0-.69,0a.53.53,0,0,0,.05.15c.28.52.55,1,.85,1.53a3.46,3.46,0,0,1,.63,1.81,1.24,1.24,0,0,1-.56,1.1,2.68,2.68,0,0,1-2.25.38,1.83,1.83,0,0,1-1.29-1.51,12.22,12.22,0,0,1-.14-1.37C8,19.61,7.88,19,7.81,18.36s-.08-1-.12-1.56a1.19,1.19,0,0,0-.19,0,5.35,5.35,0,0,1-2.07-.14l-.36-.07a.88.88,0,0,1-.76-.81,1,1,0,0,1,.41-1,2.5,2.5,0,0,0,1-1.48,1.16,1.16,0,0,0,0-.49A1.22,1.22,0,0,1,6.23,11.44Zm10.88,1.37h0a.89.89,0,0,1,.05-.92,2,2,0,0,0,.19-1.25,1.67,1.67,0,0,0-.16-.74,5.4,5.4,0,0,0-.68-.81l-1.95.64-.11-.16a6.19,6.19,0,0,1,1.89-.67c-1-1.2-4-1-4.9.35.24-.1.46-.22.71-.3a2,2,0,0,1,2.2.62.52.52,0,0,1,.11.62.91.91,0,0,1-.74.5.5.5,0,0,0-.24.06l-1.37.81-.12.11a.83.83,0,0,1-.72.29c-.27,0-.39-.25-.47-.48a2.12,2.12,0,0,1-.07-1.22,4.25,4.25,0,0,0-.3.74A2.32,2.32,0,0,0,11,13.48a8.53,8.53,0,0,0,1.44,1,2.74,2.74,0,0,0,1.52.28.47.47,0,0,1,.31.09,1.69,1.69,0,0,0,1.87.09l-.09-.15a.83.83,0,0,1,.84-.37.14.14,0,0,0,.11,0A1.4,1.4,0,0,0,17.11,12.81ZM12.55,7.68c.1-.17.18-.29.25-.43a4.9,4.9,0,0,0,.44-2.2c0-.35.06-.73-.34-1v0A1.34,1.34,0,0,0,12,3.51l-.33-.07a5.71,5.71,0,0,0-.82-.18,3.69,3.69,0,0,0-.94.05c-.45.1-.87.25-1.33.39l-.1-.16A4,4,0,0,1,10.86,3l.24-.44a3.41,3.41,0,0,0-3.65.54,8.26,8.26,0,0,1,.77.31.44.44,0,0,1,.24.49,1.34,1.34,0,0,1-.77.67.61.61,0,0,0-.3.15L5.9,6.16c.35,1.39,1.74,2.72,2.73,2.6a1.13,1.13,0,0,1,.49-1.25,3,3,0,0,1,.59-.32,4.56,4.56,0,0,1,1.67-.33C12,6.83,12.31,7,12.55,7.68ZM9.71,16.5c-.19-.39-.34-.75-.53-1.1a1,1,0,0,0-.31-.31.34.34,0,0,0-.52.31,2.64,2.64,0,0,1-.27,1.27.51.51,0,0,0-.07.24c0,.43,0,.86.05,1.29.1,1,.21,2,.34,3a1.59,1.59,0,0,0,.24.77,2.11,2.11,0,0,0,2.8.6A1.13,1.13,0,0,0,12,21.39,2.89,2.89,0,0,0,11.45,20a9,9,0,0,1-1-1.94l-.1-.18c-.07-.12-.15-.23-.21-.36-.12-.3-.23-.62-.35-.92a8.63,8.63,0,0,0,.54,3c.27.74.57,1.47.84,2.21a3.06,3.06,0,0,1,.1.64l-.29,0,.06,0c-.12-.38-.22-.78-.37-1.15a17.64,17.64,0,0,1-1-3c-.09-.57-.16-1.14-.24-1.72ZM6.38,11.7a.86.86,0,0,0-.29,1.24,1.73,1.73,0,0,0,.76.63,16.44,16.44,0,0,1,2.78,1.55,7.27,7.27,0,0,0,.91.5.51.51,0,0,0,.79-.35,6.33,6.33,0,0,0,.15-.87.3.3,0,0,0-.16-.31,2.62,2.62,0,0,1-1.24-1.85.26.26,0,0,0-.07-.15,1.86,1.86,0,0,0-.9-.34V12h0L9,11.75a4.5,4.5,0,0,1-.22.44.89.89,0,0,1-.94.5,1.69,1.69,0,0,1-1.14-.58C6.6,12,6.5,11.84,6.38,11.7Zm7.39,5.44c.07.1.15.16.17.24a2.56,2.56,0,0,0,1,1.46,1.85,1.85,0,0,1,.37.37,1.36,1.36,0,0,1,.35.8h-.26a1.64,1.64,0,0,0-.68-1,2.51,2.51,0,0,1-.86-1.17c-.06-.17-.11-.35-.18-.55a2.73,2.73,0,0,1-1.78.87c.09.51.16,1,.26,1.46a1,1,0,0,0,.56.79,4.72,4.72,0,0,0,2.17.33.89.89,0,0,0,.8-1.27,2.53,2.53,0,0,0-.85-1.14A2.38,2.38,0,0,1,14,17.18L13.9,17Zm-2.25-1.6a.74.74,0,0,1-.84.4,2.22,2.22,0,0,1-.49-.18l-.71-.39a2.57,2.57,0,0,1,.12.26c.26.59.53,1.18.75,1.79a.58.58,0,0,0,.54.44c.26,0,.51,0,.76,0a2.29,2.29,0,0,0,1.43-.46,4.07,4.07,0,0,0,1.33-2.15,1.71,1.71,0,0,0-.43-.21,1.41,1.41,0,0,0-1.15.29,1.69,1.69,0,0,1-.32.19c-.22.12-.44.23-.67.33s-.26,0-.27-.16S11.54,15.63,11.52,15.54ZM6,13.31a2.92,2.92,0,0,1-1.2,1.75.66.66,0,0,0-.23.72.58.58,0,0,0,.49.53,3.35,3.35,0,0,0,.44.07,8.77,8.77,0,0,1,.88,0c.48,0,.95.09,1.46.14a1.34,1.34,0,0,0,.14-.4,11.69,11.69,0,0,0,.08-1.18c0-.52.11-.35-.35-.61A6.25,6.25,0,0,1,6,13.31Zm.68-5.2a5.7,5.7,0,0,0-.38,2.5,2.28,2.28,0,0,0,.81,1.53c.32.27.59.2.71-.21a2.49,2.49,0,0,0,0-1.55c-.11-.28,0-.47.34-.44a3.11,3.11,0,0,1,.48.17.63.63,0,0,0,0-.19,2.63,2.63,0,0,0-.17-.45c-.1-.18-.2-.42-.36-.47A4.19,4.19,0,0,1,6.7,8.11Zm4.65.79c.25-.17.46-.31.66-.47a.79.79,0,0,0,.21-.84.59.59,0,0,0-.64-.45,10.54,10.54,0,0,0-1.13.11,2.57,2.57,0,0,0-1.28.57.82.82,0,0,0-.3.75A1,1,0,0,0,10,9.36l0-.3c.24.1.46.33.7,0l-.59-.41.2-.4a.22.22,0,0,1,.13-.08l1-.19C11.7,8.35,11.7,8.35,11.35,8.9Zm1.38.22a2,2,0,0,0-1,.29,1.64,1.64,0,0,0-.67,2.07c.08.17.2.25.37.19s.34-.09.31-.34a1,1,0,0,1,.48-.93,1.21,1.21,0,0,1,1.37-.07c.21.11.36.05.55-.21s0-.31-.07-.43A1.74,1.74,0,0,0,12.73,9.12ZM7.38,4.24A.57.57,0,0,0,8.05,4c.19-.21.18-.31-.08-.44a1.89,1.89,0,0,0-1.32-.1,1.92,1.92,0,0,0-1.23.83,1.28,1.28,0,0,0,0,1.43.29.29,0,0,0,.45.07c.15-.09.24-.18.11-.37a.45.45,0,0,1,0-.36,1,1,0,0,1,.72-.71C7,4.3,7.18,4.27,7.38,4.24Zm3.28,5.54a1.45,1.45,0,0,1-.4,0c-.35-.18-.56,0-.76.24-.06.08-.14.15-.19.23a.76.76,0,0,0-.08.21c-.05.23.1.49-.1.72-.05.06,0,.21,0,.31l.91.3A4.69,4.69,0,0,1,10.66,9.78Zm2.61-5.69h.08a4.73,4.73,0,0,0,.29-.6.91.91,0,0,0-.41-1.16,1.32,1.32,0,0,0-2,.56c-.07.09,0,.16.07.18s.26,0,.39.08A.26.26,0,0,0,12,3a.83.83,0,0,1,1.17-.14c.4.31.41.58.08,1C13.25,4,13.27,4,13.27,4.09Zm4.61,5.33c.36-.25.47-.5.32-.75s-.44-.58-.82-.46a1.61,1.61,0,0,0-.75.57l.48.58a.21.21,0,0,0,.27.07C17.54,9.37,17.71,9.27,17.88,9.42Zm-4.81-2-.51.73,1.22-.33Zm-.41,7.76,0-.06-.88.28.08.24ZM11.91,15l.6-.13C12.06,14.7,11.91,14.73,11.91,15Z"/><path d="M17.39.6a.81.81,0,0,1,.67-.26.68.68,0,0,1,.55.93,1.83,1.83,0,0,1-.66.91c-.66.52-.49.52-1.15,0a1.73,1.73,0,0,1-.66-.93A.71.71,0,0,1,16.4.45a.76.76,0,0,1,.87,0Z"/><path d="M3.6,2.62A2.67,2.67,0,0,1,4,2.41a.64.64,0,0,1,.7.17.7.7,0,0,1,.13.77,2.14,2.14,0,0,1-.79,1c-.43.34-.44.35-.85,0a5.81,5.81,0,0,1-.64-.67,1.12,1.12,0,0,1-.18-.45.66.66,0,0,1,.31-.76.77.77,0,0,1,.85.1Z"/><path d="M2.88,17.39a2.3,2.3,0,0,1,.67-.18.66.66,0,0,1,.58.9,1.78,1.78,0,0,1-.64.9c-.7.56-.52.56-1.22,0a2.71,2.71,0,0,1-.42-.47,1,1,0,0,1-.17-.9.66.66,0,0,1,1-.34,1.7,1.7,0,0,1,.22.15Z"/><path d="M15.16,5a1.62,1.62,0,0,1,.5-.11.46.46,0,0,1,.38.61,1.8,1.8,0,0,1-.81.91.2.2,0,0,1-.13,0,1.87,1.87,0,0,1-.74-.76c-.16-.36,0-.73.34-.74A1.41,1.41,0,0,1,15.16,5Z"/><path d="M17.89,16.83a1.08,1.08,0,0,1,.18-.11.47.47,0,0,1,.53.05.46.46,0,0,1,.14.54,1.7,1.7,0,0,1-.78.87.17.17,0,0,1-.17,0,4.73,4.73,0,0,1-.61-.57.59.59,0,0,1,0-.79C17.33,16.61,17.58,16.63,17.89,16.83Z"/><path d="M5.88,20.14A1.9,1.9,0,0,1,6.33,20a.47.47,0,0,1,.43.67,1.81,1.81,0,0,1-.79.85.15.15,0,0,1-.13,0,5.69,5.69,0,0,1-.69-.7.66.66,0,0,1-.07-.52C5.17,20,5.56,19.9,5.88,20.14Z"/><path d="M16.5,21.5l.09-.05a.35.35,0,0,1,.43,0,.33.33,0,0,1,.07.42,4.85,4.85,0,0,1-.54.57.17.17,0,0,1-.15,0,3.41,3.41,0,0,1-.39-.37A.45.45,0,0,1,16,21.5C16.07,21.36,16.24,21.36,16.5,21.5Z"/><path d="M4.62,12.66a1.17,1.17,0,0,1-.6.74.16.16,0,0,1-.1,0,1.09,1.09,0,0,1-.54-.62.4.4,0,0,1,.1-.37.45.45,0,0,1,.38,0,.3.3,0,0,0,.26,0A.33.33,0,0,1,4.62,12.66Z"/><path d="M18.28,12.11s.06,0,.09,0a1.11,1.11,0,0,1,.41,0c.15.07.15.25.1.4a1.23,1.23,0,0,1-.56.61.16.16,0,0,1-.13,0,3.79,3.79,0,0,1-.42-.38.44.44,0,0,1,0-.58C17.86,12,18,12,18.28,12.11Z"/><path d="M2.48,8.13C2.71,8,2.9,8,3,8.12a.42.42,0,0,1,0,.55c-.14.17-.34.43-.51.42S2.1,8.83,2,8.65a.41.41,0,0,1,0-.54C2.06,8,2.25,8,2.48,8.13Z"/><path d="M17.11,12.81l0,.21-1.87.57a1.27,1.27,0,0,0-1,1l-.27,0a1.31,1.31,0,0,1,.8-1.1c.7-.26,1.42-.45,2.14-.66a1.64,1.64,0,0,1,.23,0Z"/><path d="M14.62,13.12a.4.4,0,0,1-.39.37.29.29,0,0,1-.31-.28.4.4,0,0,1,.38-.35A.28.28,0,0,1,14.62,13.12Z"/><path d="M8.94,7a.31.31,0,0,1-.32.34.5.5,0,0,1-.44-.5.32.32,0,0,1,.32-.34A.49.49,0,0,1,8.94,7Z"/><path d="M12.17,6.41c.06-.14.11-.28.18-.42a.23.23,0,0,1,.14-.07.16.16,0,0,1,.09.12,2.34,2.34,0,0,1-.08.53c0,.06-.12.1-.18.15a2.12,2.12,0,0,1-.11-.21.22.22,0,0,1,0-.08Z"/><path d="M8.51,15.83a.88.88,0,0,1,.18,1A.86.86,0,0,1,8.51,15.83Z"/><path d="M10.05,14.82a.56.56,0,0,1-.59-.51.46.46,0,0,1,.48-.45.58.58,0,0,1,.6.51A.46.46,0,0,1,10.05,14.82Z"/></g><path class="cls-4" d="M6.43,11.63c-.06-.25-.13-.5-.17-.76a5.6,5.6,0,0,1,.36-2.59.32.32,0,0,0,0-.36,4.36,4.36,0,0,1-.73-1.44c0-.06,0-.13-.09-.15a1.45,1.45,0,0,1-.47-1.8A2.21,2.21,0,0,1,6.9,3.36a1,1,0,0,0,.36-.16,5.09,5.09,0,0,1,2.19-1,3.14,3.14,0,0,1,1.91.25.2.2,0,0,0,.26,0,1.57,1.57,0,0,1,2.28.17,1.15,1.15,0,0,1,.21,1.15,1.46,1.46,0,0,1-.2.46A1.09,1.09,0,0,0,13.7,5a5.3,5.3,0,0,1-.33,2.27c.36.24.71.48,1.07.7a.73.73,0,0,0,.3,0,4.71,4.71,0,0,1,1.88.73c.15-.13.29-.27.45-.39a1,1,0,0,1,1.54.3.7.7,0,0,1-.05.86,3.69,3.69,0,0,1-.66.52c-.11.07-.17.11-.14.27a2.93,2.93,0,0,1,0,1.5c-.07.22-.19.43-.24.65a.55.55,0,0,0,0,.38,1.75,1.75,0,0,1-.21,2,2.72,2.72,0,0,1-1.38.75,1.81,1.81,0,0,1-1.08,0c-.19.41-.37.79-.54,1.18a.43.43,0,0,0,0,.25,2.25,2.25,0,0,0,.79,1.29,2.79,2.79,0,0,1,.94,1.23,1.27,1.27,0,0,1-.94,1.73,3.32,3.32,0,0,1-1.85-.1A1.87,1.87,0,0,1,12,19.62c-.05-.38-.12-.75-.17-1.13,0-.11-.06-.14-.16-.14H11a.53.53,0,0,0,0,.15c.28.51.54,1,.85,1.53a3.46,3.46,0,0,1,.63,1.81,1.24,1.24,0,0,1-.57,1.1,2.66,2.66,0,0,1-2.24.38,1.83,1.83,0,0,1-1.29-1.51,12.46,12.46,0,0,1-.14-1.37c-.07-.63-.17-1.25-.24-1.88s-.08-1-.13-1.56a1.05,1.05,0,0,0-.18,0,5.41,5.41,0,0,1-2.08-.14l-.35-.07A.87.87,0,0,1,4.51,16a1,1,0,0,1,.41-1,2.44,2.44,0,0,0,1-1.48,1,1,0,0,0,0-.49A1.24,1.24,0,0,1,6.43,11.63ZM17.31,13h0a.91.91,0,0,1,0-.92,2.06,2.06,0,0,0,.2-1.26,1.74,1.74,0,0,0-.16-.73,6.07,6.07,0,0,0-.68-.81l-1.95.64-.12-.16a6.34,6.34,0,0,1,1.9-.67c-1-1.2-4-1-4.9.35a7.56,7.56,0,0,1,.71-.3,2,2,0,0,1,2.2.61c.14.19.25.4.11.62a.93.93,0,0,1-.74.51.57.57,0,0,0-.25.06l-1.36.81a.63.63,0,0,0-.12.11.83.83,0,0,1-.72.29c-.27,0-.39-.25-.47-.48a2.21,2.21,0,0,1-.08-1.22,4.74,4.74,0,0,0-.29.74,2.32,2.32,0,0,0,.57,2.48,8.53,8.53,0,0,0,1.44,1,2.82,2.82,0,0,0,1.52.28.4.4,0,0,1,.3.09,1.71,1.71,0,0,0,1.88.09L16.26,15a.86.86,0,0,1,.84-.38.12.12,0,0,0,.11,0A1.4,1.4,0,0,0,17.31,13ZM12.75,7.88c.09-.17.18-.3.24-.43a4.64,4.64,0,0,0,.44-2.2c0-.35.07-.73-.33-1v0a1.36,1.36,0,0,0-.87-.57l-.33-.07a5.71,5.71,0,0,0-.82-.18,3.79,3.79,0,0,0-1,0c-.44.09-.87.25-1.32.38l-.11-.16a4.15,4.15,0,0,1,2.37-.55l.24-.43a3.41,3.41,0,0,0-3.65.54,5.51,5.51,0,0,1,.76.31.43.43,0,0,1,.25.49,1.37,1.37,0,0,1-.78.67.71.71,0,0,0-.3.15L6.1,6.36C6.45,7.75,7.84,9.08,8.83,9a1.13,1.13,0,0,1,.49-1.25,2.59,2.59,0,0,1,.59-.32,4.79,4.79,0,0,1,1.67-.34A1,1,0,0,1,12.75,7.88ZM9.91,16.7c-.19-.39-.35-.75-.53-1.1a1,1,0,0,0-.31-.31.34.34,0,0,0-.52.31,2.54,2.54,0,0,1-.28,1.27.65.65,0,0,0-.06.24c0,.43,0,.86,0,1.29.1,1,.21,2,.34,3a1.49,1.49,0,0,0,.24.77,2.1,2.1,0,0,0,2.79.59,1.11,1.11,0,0,0,.58-1.21,3,3,0,0,0-.56-1.35,8.57,8.57,0,0,1-1-1.94,1.74,1.74,0,0,0-.11-.18,2.53,2.53,0,0,1-.2-.36c-.12-.31-.24-.62-.35-.93a8.42,8.42,0,0,0,.54,3c.27.74.57,1.47.84,2.21a3.06,3.06,0,0,1,.1.64l-.29,0,.06,0c-.12-.38-.22-.78-.37-1.15a16.8,16.8,0,0,1-1-3c-.1-.57-.16-1.14-.24-1.72ZM6.58,11.9a.86.86,0,0,0-.29,1.24,1.76,1.76,0,0,0,.75.63,16.15,16.15,0,0,1,2.79,1.55,5.66,5.66,0,0,0,.91.49.5.5,0,0,0,.79-.34,6.33,6.33,0,0,0,.15-.87.3.3,0,0,0-.16-.31,2.59,2.59,0,0,1-1.24-1.85.35.35,0,0,0-.07-.15,1.8,1.8,0,0,0-.9-.34v.28h0L9.2,12c-.08.16-.14.31-.22.44a.89.89,0,0,1-.94.5A1.64,1.64,0,0,1,6.9,12.3ZM14,17.34c.07.1.15.16.17.23A2.58,2.58,0,0,0,15.08,19a1.67,1.67,0,0,1,.38.37,1.36,1.36,0,0,1,.35.8h-.26a1.61,1.61,0,0,0-.68-1A2.54,2.54,0,0,1,14,18c-.06-.17-.11-.34-.18-.54a2.78,2.78,0,0,1-1.79.87c.1.51.17,1,.27,1.46a1,1,0,0,0,.56.78,4.7,4.7,0,0,0,2.17.34.89.89,0,0,0,.8-1.27A2.53,2.53,0,0,0,15,18.53a2.39,2.39,0,0,1-.82-1.16l-.07-.18Zm-2.25-1.6a.74.74,0,0,1-.84.4,1.84,1.84,0,0,1-.49-.19c-.23-.11-.45-.24-.71-.38a2.59,2.59,0,0,1,.12.25c.25.6.53,1.19.75,1.8a.56.56,0,0,0,.54.43,6.44,6.44,0,0,0,.76,0,2.24,2.24,0,0,0,1.42-.46,4,4,0,0,0,1.34-2.15,1.55,1.55,0,0,0-.43-.21,1.37,1.37,0,0,0-1.15.29,1.77,1.77,0,0,1-.33.19c-.21.11-.43.23-.66.33s-.26,0-.28-.16A1.2,1.2,0,0,0,11.72,15.74Zm-5.5-2.23A2.94,2.94,0,0,1,5,15.25a.7.7,0,0,0-.24.73.6.6,0,0,0,.5.53,3.32,3.32,0,0,0,.44.06c.29,0,.59-.05.88,0,.48,0,1,.09,1.46.14a1.41,1.41,0,0,0,.14-.41,11.5,11.5,0,0,0,.08-1.17c0-.52.11-.35-.36-.61A6.2,6.2,0,0,1,6.22,13.51Zm.68-5.2a5.66,5.66,0,0,0-.38,2.49,2.2,2.2,0,0,0,.81,1.53c.32.28.59.21.7-.2a2.42,2.42,0,0,0,0-1.55c-.11-.28,0-.47.34-.44a2.33,2.33,0,0,1,.48.17.63.63,0,0,0,0-.19,2,2,0,0,0-.18-.45c-.09-.18-.19-.42-.35-.48A4.16,4.16,0,0,1,6.9,8.31Zm4.65.79.66-.47a.8.8,0,0,0,.21-.84.6.6,0,0,0-.64-.45,7.09,7.09,0,0,0-1.13.11A2.53,2.53,0,0,0,9.37,8a.8.8,0,0,0-.3.75,1,1,0,0,0,1.16.79l0-.3c.24.1.45.33.69,0l-.58-.41c.07-.14.13-.27.2-.4a.24.24,0,0,1,.13-.09l1-.18C11.9,8.55,11.9,8.55,11.55,9.1Zm1.38.21a2.09,2.09,0,0,0-1,.3,1.64,1.64,0,0,0-.67,2.07.29.29,0,0,0,.37.19c.17,0,.33-.09.31-.34a1,1,0,0,1,.48-.94,1.22,1.22,0,0,1,1.37-.06c.21.11.35.05.55-.21s0-.31-.08-.43A1.75,1.75,0,0,0,12.93,9.31ZM7.58,4.44a.57.57,0,0,0,.67-.24c.19-.21.18-.31-.09-.44a1.88,1.88,0,0,0-1.32-.1,1.87,1.87,0,0,0-1.22.83,1.28,1.28,0,0,0,0,1.43c.13.17.26.19.46.07s.24-.18.11-.37a.45.45,0,0,1,0-.36,1,1,0,0,1,.72-.71C7.14,4.5,7.38,4.47,7.58,4.44ZM10.85,10a1.42,1.42,0,0,1-.39-.05c-.35-.19-.56,0-.76.24a2.11,2.11,0,0,0-.19.23.66.66,0,0,0-.08.21c0,.23.1.49-.1.72-.05.06,0,.21,0,.31l.92.3A4.63,4.63,0,0,1,10.85,10Zm2.62-5.7.08,0a6.63,6.63,0,0,0,.29-.6.92.92,0,0,0-.42-1.17,1.33,1.33,0,0,0-2,.56c-.06.1,0,.17.08.19s.26,0,.39.08a.26.26,0,0,0,.34-.13.84.84,0,0,1,1.17-.13c.39.31.41.57.08,1C13.45,4.17,13.47,4.24,13.47,4.28Zm4.61,5.34c.35-.25.47-.5.32-.75s-.44-.58-.82-.46a1.61,1.61,0,0,0-.75.57l.48.58a.2.2,0,0,0,.27.07C17.74,9.57,17.91,9.47,18.08,9.62Zm-4.81-2-.51.73L14,8Zm-.41,7.76,0-.06-.88.28.08.23Zm-.75-.17.6-.13C12.26,14.9,12.11,14.93,12.11,15.17Z"/><path class="cls-4" d="M17.59.8a.75.75,0,0,1,.67-.26.68.68,0,0,1,.55.93,1.83,1.83,0,0,1-.66.91c-.66.52-.49.52-1.16,0a1.7,1.7,0,0,1-.65-.94A.68.68,0,0,1,16.6.65a.76.76,0,0,1,.87,0Z"/><path class="cls-4" d="M3.8,2.82a4.24,4.24,0,0,1,.41-.22.66.66,0,0,1,.7.18A.7.7,0,0,1,5,3.55a2.19,2.19,0,0,1-.79,1c-.43.34-.44.35-.85,0a6.86,6.86,0,0,1-.64-.68,1.08,1.08,0,0,1-.18-.44.67.67,0,0,1,.31-.77.77.77,0,0,1,.84.11Z"/><path class="cls-4" d="M3.08,17.58a2.67,2.67,0,0,1,.66-.17.66.66,0,0,1,.58.9,1.75,1.75,0,0,1-.63.9c-.7.56-.52.56-1.22,0A3.25,3.25,0,0,1,2,18.73a1.11,1.11,0,0,1-.17-.9c.06-.38.59-.55,1-.34a1.7,1.7,0,0,1,.22.15Z"/><path class="cls-4" d="M15.36,5.18a1.94,1.94,0,0,1,.49-.1.46.46,0,0,1,.39.6,1.72,1.72,0,0,1-.81.91.15.15,0,0,1-.13,0,1.77,1.77,0,0,1-.74-.77c-.16-.35,0-.72.34-.74A2.21,2.21,0,0,1,15.36,5.18Z"/><path class="cls-4" d="M18.09,17l.17-.11a.49.49,0,0,1,.54,0,.46.46,0,0,1,.14.54,1.72,1.72,0,0,1-.79.87s-.13,0-.17,0a5.58,5.58,0,0,1-.61-.58.6.6,0,0,1,0-.79C17.53,16.81,17.78,16.82,18.09,17Z"/><path class="cls-4" d="M6.07,20.34a2.23,2.23,0,0,1,.45-.14.47.47,0,0,1,.44.67,1.81,1.81,0,0,1-.79.85.12.12,0,0,1-.13,0A5,5,0,0,1,5.35,21a.63.63,0,0,1-.07-.52C5.37,20.15,5.76,20.1,6.07,20.34Z"/><path class="cls-4" d="M16.7,21.7l.09-.05a.36.36,0,0,1,.43,0,.33.33,0,0,1,.06.43,4.77,4.77,0,0,1-.53.57.17.17,0,0,1-.15,0,3.51,3.51,0,0,1-.4-.37.44.44,0,0,1-.05-.58C16.27,21.56,16.44,21.56,16.7,21.7Z"/><path class="cls-4" d="M4.81,12.86a1.15,1.15,0,0,1-.59.74.16.16,0,0,1-.1,0A1.06,1.06,0,0,1,3.58,13a.43.43,0,0,1,.09-.37.46.46,0,0,1,.38,0,.32.32,0,0,0,.27,0A.33.33,0,0,1,4.81,12.86Z"/><path class="cls-4" d="M18.48,12.31s.06-.05.09-.05a.94.94,0,0,1,.41,0,.3.3,0,0,1,.1.39,1.21,1.21,0,0,1-.56.62.16.16,0,0,1-.13,0,3.79,3.79,0,0,1-.42-.38.45.45,0,0,1,0-.58C18.06,12.17,18.24,12.17,18.48,12.31Z"/><path class="cls-4" d="M2.68,8.33c.23-.14.42-.14.54,0a.42.42,0,0,1,0,.55c-.15.17-.35.43-.51.42S2.3,9,2.15,8.85a.4.4,0,0,1,0-.54C2.26,8.19,2.45,8.19,2.68,8.33Z"/><path class="cls-4" d="M17.31,13l0,.21-1.87.57a1.26,1.26,0,0,0-1,1l-.27,0a1.31,1.31,0,0,1,.8-1.1c.7-.26,1.42-.45,2.14-.66a1.64,1.64,0,0,1,.23,0Z"/><path class="cls-4" d="M14.82,13.32a.39.39,0,0,1-.39.36.27.27,0,0,1-.31-.27.4.4,0,0,1,.38-.35A.29.29,0,0,1,14.82,13.32Z"/><path class="cls-4" d="M9.14,7.19a.31.31,0,0,1-.32.34A.51.51,0,0,1,8.38,7a.32.32,0,0,1,.32-.34A.49.49,0,0,1,9.14,7.19Z"/><path class="cls-4" d="M12.37,6.61c.06-.14.11-.28.18-.42a.17.17,0,0,1,.14-.07.19.19,0,0,1,.09.12,4.51,4.51,0,0,1-.08.53c0,.06-.12.1-.18.14l-.12-.2a.27.27,0,0,1,0-.09Z"/><path class="cls-4" d="M8.71,16a.9.9,0,0,1,.18,1A.86.86,0,0,1,8.71,16Z"/><path class="cls-4" d="M10.25,15a.58.58,0,0,1-.6-.51.46.46,0,0,1,.49-.45.56.56,0,0,1,.59.51A.46.46,0,0,1,10.25,15Z"/></g></g></svg>