<svg xmlns="http://www.w3.org/2000/svg" viewBox="0 0 38.55 24.66"><defs><style>.cls-1{isolation:isolate;}.cls-2{opacity:0.15;}.cls-2,.cls-3{mix-blend-mode:multiply;}.cls-4{fill:#fff;}</style></defs><title>convert-CUSTOMIZE-SVG-03</title><g class="cls-1"><g id="Layer_1" data-name="Layer 1"><g class="cls-2"><path d="M29.8,6.39a.9.9,0,0,1-1.59-.3.69.69,0,0,1-.7.53.78.78,0,0,1-.73-.5.78.78,0,0,1-1.39.13.87.87,0,0,1-.71.5,1,1,0,0,1-.81-.37,1,1,0,0,1-.89.36.82.82,0,0,1-.68-.67.71.71,0,0,1-.71.55.78.78,0,0,1-.74-.51.82.82,0,0,1-.66.51.71.71,0,0,1-.73-.37.86.86,0,0,1-.72.5,1,1,0,0,1-.8-.37,1,1,0,0,1-.88.36.8.8,0,0,1-.68-.63c-.45.69-1,.7-1.47,0a.83.83,0,0,1-.64.49.73.73,0,0,1-.74-.37.85.85,0,0,1-.71.5A1,1,0,0,1,12,6.38a1,1,0,0,1-.89.36.81.81,0,0,1-.67-.62c-.44.67-1.06.68-1.46,0a.87.87,0,0,1-.67.49.72.72,0,0,1-.72-.38.86.86,0,0,1-.72.51,1,1,0,0,1-.8-.37,1,1,0,0,1-.88.36.83.83,0,0,1-.69-.65.72.72,0,0,1-.71.53.77.77,0,0,1-.73-.48,3.7,3.7,0,0,1-.24.29.76.76,0,0,1-.88.1.75.75,0,0,1-.31-.85,2.32,2.32,0,0,1,.81-1.14l.41-.33a13,13,0,0,1-1-1.06,1.83,1.83,0,0,1-.32-.8A.74.74,0,0,1,2,1.53a.86.86,0,0,1,1,.18,1.35,1.35,0,0,1,.12.12,1,1,0,0,1,.88-.36.81.81,0,0,1,.69.65.75.75,0,0,1,.71-.54.8.8,0,0,1,.74.51.84.84,0,0,1,.66-.5A.71.71,0,0,1,7.46,2a.85.85,0,0,1,.71-.5A.94.94,0,0,1,9,1.83a1,1,0,0,1,.88-.36.82.82,0,0,1,.7.66.71.71,0,0,1,.69-.55.8.8,0,0,1,.75.51.82.82,0,0,1,.67-.5.7.7,0,0,1,.72.37.85.85,0,0,1,.71-.5.92.92,0,0,1,.8.36c.71-.56,1.27-.47,1.59.29a.71.71,0,0,1,.71-.53.8.8,0,0,1,.73.5.79.79,0,0,1,1.39-.14.89.89,0,0,1,1.52-.12,1,1,0,0,1,.87-.35.81.81,0,0,1,.7.67.72.72,0,0,1,.72-.56.8.8,0,0,1,.73.5A.78.78,0,0,1,25.25,2a.83.83,0,0,1,.71-.5.92.92,0,0,1,.8.36.89.89,0,0,1,1.58.27c.43-.68,1.05-.69,1.45,0a.83.83,0,0,1,.77-.5.73.73,0,0,1,.69.58.89.89,0,0,1,1.58-.35.9.9,0,0,1,1.58.29.71.71,0,0,1,.71-.52.77.77,0,0,1,.72.49,2.31,2.31,0,0,1,.24-.29.77.77,0,0,1,.89-.1.76.76,0,0,1,.31.83,2.27,2.27,0,0,1-.79,1.13L36,4l.23.18a3.52,3.52,0,0,1,1,1.07,1.17,1.17,0,0,1,.16.81.83.83,0,0,1-1.53.27,1,1,0,0,1-.9.38.83.83,0,0,1-.69-.66.71.71,0,0,1-.71.54.79.79,0,0,1-.73-.5.83.83,0,0,1-.76.5.7.7,0,0,1-.7-.59.85.85,0,0,1-.68.7A.94.94,0,0,1,29.8,6.39Zm-25-.58c0,.38.16.61.41.68a.7.7,0,0,0,.76-.33A1,1,0,0,1,6.09,6c0,.06.11.12.15.18a.69.69,0,0,0,.8.32.6.6,0,0,0,.35-.71,1.34,1.34,0,0,0-.14-.38,3.25,3.25,0,0,0-1.1-1.11.17.17,0,0,0-.18,0A8.44,8.44,0,0,0,5.19,5,1.39,1.39,0,0,0,4.75,5.81ZM32.82,4.05c.34-.32.66-.56.92-.85a2.34,2.34,0,0,0,.39-.71A.56.56,0,0,0,34,1.82a.6.6,0,0,0-.7,0,1.61,1.61,0,0,0-.28.3,1.85,1.85,0,0,1-.14.14l-.13-.14s0,0,0,0a.69.69,0,0,0-.79-.31.58.58,0,0,0-.36.72A1.43,1.43,0,0,0,31.8,3C32.1,3.38,32.45,3.69,32.82,4.05Zm-6.1,0a3.89,3.89,0,0,0,1.11-1,2,2,0,0,0,.25-.55.59.59,0,0,0-.35-.73.69.69,0,0,0-.8.32,1.3,1.3,0,0,1-.15.18A1.54,1.54,0,0,1,26.61,2a.68.68,0,0,0-.78-.31.55.55,0,0,0-.36.69,1.47,1.47,0,0,0,.27.61C26,3.38,26.39,3.68,26.72,4ZM3.07,4c.23-.18.46-.35.66-.54a1.94,1.94,0,0,0,.63-.94.63.63,0,0,0-.18-.68.56.56,0,0,0-.67-.05c-.13.07-.21.21-.32.32s-.09.12-.12.11-.1-.07-.15-.12l0,0a.69.69,0,0,0-.76-.32.57.57,0,0,0-.39.65,1.25,1.25,0,0,0,.17.49A3.58,3.58,0,0,0,3.07,4ZM22.53,5.9a.56.56,0,0,0,.65.6.64.64,0,0,0,.56-.4s.08-.11.12-.11.09.06.13.1a.67.67,0,0,1,.06.12.71.71,0,0,0,.74.28A.53.53,0,0,0,25.18,6,1.29,1.29,0,0,0,25,5.37,3.07,3.07,0,0,0,24,4.29a.19.19,0,0,0-.18,0,10.63,10.63,0,0,0-.87.77A1.27,1.27,0,0,0,22.53,5.9ZM9,4c.23-.19.46-.36.66-.55a1.91,1.91,0,0,0,.62-.91A.6.6,0,0,0,10,1.74a.68.68,0,0,0-.8.3A1,1,0,0,1,9,2.23,1.75,1.75,0,0,1,8.82,2,.69.69,0,0,0,8,1.73a.58.58,0,0,0-.36.7,1.89,1.89,0,0,0,.21.51A3.64,3.64,0,0,0,9,4Zm5.91,0A3.83,3.83,0,0,0,16,3a1.12,1.12,0,0,0,.23-.73.55.55,0,0,0-.57-.53.65.65,0,0,0-.62.4.26.26,0,0,1-.15.12s-.08-.07-.11-.12A1.05,1.05,0,0,1,14.72,2a.7.7,0,0,0-.7-.28.56.56,0,0,0-.43.54,1.43,1.43,0,0,0,.16.58A3.36,3.36,0,0,0,14.91,4Zm5.9.05c.29-.24.54-.42.75-.63a1.77,1.77,0,0,0,.61-1,.58.58,0,0,0-.4-.67A.7.7,0,0,0,21,2a1.08,1.08,0,0,1-.16.2A1.54,1.54,0,0,1,20.68,2a.67.67,0,0,0-.78-.31.56.56,0,0,0-.36.7,1.43,1.43,0,0,0,.27.6C20.11,3.38,20.46,3.69,20.81,4ZM16.6,5.78c0,.51.27.75.64.72a.66.66,0,0,0,.57-.41.17.17,0,0,1,.13-.1s.08,0,.12.09,0,.08.05.12a.69.69,0,0,0,.76.28.55.55,0,0,0,.38-.65,1.26,1.26,0,0,0-.15-.45A3.28,3.28,0,0,0,18,4.28a.18.18,0,0,0-.16,0,12.26,12.26,0,0,0-1,.93A2.32,2.32,0,0,0,16.6,5.78Zm11.86.13a.56.56,0,0,0,.64.59.66.66,0,0,0,.57-.41A.17.17,0,0,1,29.8,6s.08.06.12.09,0,.07,0,.1a.69.69,0,0,0,.77.3.57.57,0,0,0,.38-.67,1.56,1.56,0,0,0-.13-.4,3.42,3.42,0,0,0-1.11-1.13.19.19,0,0,0-.18,0c-.28.23-.56.46-.81.71A1.34,1.34,0,0,0,28.46,5.91Zm-17.78-.1c0,.47.24.71.59.69a.63.63,0,0,0,.6-.39c0-.05.1-.12.14-.12s.09.08.14.13l0,.08a.69.69,0,0,0,.76.28.55.55,0,0,0,.38-.64,1.45,1.45,0,0,0-.14-.46,3.4,3.4,0,0,0-1.1-1.1.23.23,0,0,0-.18,0,8.78,8.78,0,0,0-.79.7A1.33,1.33,0,0,0,10.68,5.81ZM37.2,5.9a3.23,3.23,0,0,0-.15-.47,3.28,3.28,0,0,0-1.13-1.15.17.17,0,0,0-.18,0A5.36,5.36,0,0,0,35,5a2.42,2.42,0,0,0-.42.71.59.59,0,0,0,.32.78.69.69,0,0,0,.8-.29,1.12,1.12,0,0,1,.17-.2,1.12,1.12,0,0,1,.17.21.7.7,0,0,0,.75.3A.62.62,0,0,0,37.2,5.9Zm-5.85-.21a7.93,7.93,0,0,1,.55-.83,8.43,8.43,0,0,1,.76-.69,3.2,3.2,0,0,1-1.38-1.65,9.79,9.79,0,0,1-.55.82A10.33,10.33,0,0,1,30,4,3.26,3.26,0,0,1,31.35,5.69Zm-3.13.06A3.31,3.31,0,0,1,29.64,4a3.17,3.17,0,0,1-1.3-1.56,3.31,3.31,0,0,1-1.41,1.71A3.14,3.14,0,0,1,28.22,5.75Zm-25-1.57a3.25,3.25,0,0,1,1.3,1.55A3.41,3.41,0,0,1,5.92,4a3.27,3.27,0,0,1-1.3-1.54A3.33,3.33,0,0,1,3.21,4.18ZM35.68,4A3.12,3.12,0,0,1,34.4,2.48,3.34,3.34,0,0,1,33,4.17a10,10,0,0,1,.74.68,5.7,5.7,0,0,1,.52.75,9.33,9.33,0,0,1,.59-.84A8.6,8.6,0,0,1,35.68,4ZM10.44,5.74A3.32,3.32,0,0,1,11.85,4a3.2,3.2,0,0,1-1.29-1.56A3.34,3.34,0,0,1,9.14,4.18,3.22,3.22,0,0,1,10.44,5.74Zm5.93,0A3.3,3.3,0,0,1,17.76,4c-.26-.24-.53-.44-.75-.68s-.37-.54-.55-.8a3.4,3.4,0,0,1-1.39,1.62A3.2,3.2,0,0,1,16.37,5.75Zm6-3.29A3.26,3.26,0,0,1,21,4.18a3.14,3.14,0,0,1,1.29,1.57A3.32,3.32,0,0,1,23.71,4,3.18,3.18,0,0,1,22.41,2.46ZM24,4a3.72,3.72,0,0,1,1.38,1.51,3.59,3.59,0,0,1,1.23-1.36,3.67,3.67,0,0,1-1.36-1.51A3.63,3.63,0,0,1,24,4ZM18.08,4a3.72,3.72,0,0,1,1.38,1.51,3.52,3.52,0,0,1,1.23-1.36,3.7,3.7,0,0,1-1.37-1.51A3.53,3.53,0,0,1,18.08,4Zm-9.25.15A3.65,3.65,0,0,1,7.47,2.66,3.67,3.67,0,0,1,6.23,4,3.61,3.61,0,0,1,7.6,5.54,3.51,3.51,0,0,1,8.83,4.18Zm4.56-1.52A3.46,3.46,0,0,1,12.16,4,3.64,3.64,0,0,1,13.5,5.5c.19-.25.36-.5.56-.72s.45-.4.69-.61A3.69,3.69,0,0,1,13.39,2.66Z"/><path d="M32.75,22.55a.82.82,0,0,1-.81.51.69.69,0,0,1-.64-.57c-.4.81-.93.92-1.6.34a1,1,0,0,1-.88.35.86.86,0,0,1-.69-.67.7.7,0,0,1-.61.55.79.79,0,0,1-.83-.51.8.8,0,0,1-.66.5.68.68,0,0,1-.72-.37.86.86,0,0,1-.72.5,1,1,0,0,1-.8-.35.91.91,0,0,1-1.59-.27.77.77,0,0,1-1.45,0,.8.8,0,0,1-.65.5.72.72,0,0,1-.72-.36c-.5.61-1,.65-1.53.12a1,1,0,0,1-.88.36.81.81,0,0,1-.68-.67c-.15.34-.35.56-.72.55a.79.79,0,0,1-.73-.49.8.8,0,0,1-1.4.13.83.83,0,0,1-.72.48.93.93,0,0,1-.79-.36,1,1,0,0,1-.88.36.82.82,0,0,1-.69-.65.74.74,0,0,1-.71.53.78.78,0,0,1-.74-.51.82.82,0,0,1-.66.5.7.7,0,0,1-.73-.37.83.83,0,0,1-.71.5A1,1,0,0,1,6,22.82a1,1,0,0,1-.88.36.84.84,0,0,1-.69-.66.71.71,0,0,1-.71.54A.8.8,0,0,1,3,22.57l-.1.14a.78.78,0,0,1-.95.29.74.74,0,0,1-.38-.87A2.27,2.27,0,0,1,2.36,21c.14-.13.29-.24.43-.36-.29-.26-.59-.51-.87-.79a1.62,1.62,0,0,1-.51-1A.81.81,0,0,1,1.87,18a.93.93,0,0,1,1,.18l.11.12a1,1,0,0,1,.88-.37.84.84,0,0,1,.69.66A.72.72,0,0,1,5.25,18a.8.8,0,0,1,.74.51A.85.85,0,0,1,6.66,18a.72.72,0,0,1,.72.38.83.83,0,0,1,.72-.5.91.91,0,0,1,.79.36.9.9,0,0,1,1.59.28.69.69,0,0,1,.69-.52.79.79,0,0,1,.75.51.83.83,0,0,1,.67-.51.72.72,0,0,1,.71.36c.49-.61,1-.66,1.53-.12a1,1,0,0,1,.87-.36.84.84,0,0,1,.7.67.7.7,0,0,1,.7-.55.8.8,0,0,1,.75.51.79.79,0,0,1,.66-.5.69.69,0,0,1,.72.37.83.83,0,0,1,.72-.5.88.88,0,0,1,.79.36.88.88,0,0,1,1.58.31A.73.73,0,0,1,23,18a.8.8,0,0,1,.75.51.82.82,0,0,1,.67-.51.73.73,0,0,1,.71.36.91.91,0,0,1,1.53-.13.87.87,0,0,1,1.56.32A.73.73,0,0,1,29,18a.77.77,0,0,1,.73.49.78.78,0,0,1,1.48.09.83.83,0,0,1,.68-.69.91.91,0,0,1,.89.36,1,1,0,0,1,.88-.37.81.81,0,0,1,.69.66A.74.74,0,0,1,35,18a.77.77,0,0,1,.73.49,2.65,2.65,0,0,1,.25-.3.77.77,0,0,1,.89-.09.76.76,0,0,1,.3.84,2.29,2.29,0,0,1-.79,1.12l-.46.37c.29.26.59.51.86.78a1.82,1.82,0,0,1,.51.89.88.88,0,0,1-.37,1,.91.91,0,0,1-1-.12.54.54,0,0,1-.1-.16c-.67.65-1.4.4-1.61-.26a.73.73,0,0,1-.7.52A.8.8,0,0,1,32.75,22.55Zm-28.08-.3a.6.6,0,0,0,.41.68.69.69,0,0,0,.74-.31,1.12,1.12,0,0,1,.17-.2,1.06,1.06,0,0,1,.17.2.7.7,0,0,0,.79.29.59.59,0,0,0,.36-.69,1.5,1.5,0,0,0-.11-.34,3.36,3.36,0,0,0-1.14-1.17.2.2,0,0,0-.18,0,9.85,9.85,0,0,0-.78.67A1.37,1.37,0,0,0,4.67,22.25Zm29.4-3.42a.6.6,0,0,0-.41-.68.71.71,0,0,0-.75.32,1.4,1.4,0,0,1-.16.2,1.46,1.46,0,0,1-.16-.19.69.69,0,0,0-.79-.31.58.58,0,0,0-.37.71,1.55,1.55,0,0,0,.13.36,3.36,3.36,0,0,0,1.12,1.13.18.18,0,0,0,.16,0c.28-.24.57-.46.83-.72A1.3,1.3,0,0,0,34.07,18.83Zm-7.38,1.59a3.46,3.46,0,0,0,1.06-1,2,2,0,0,0,.26-.72.54.54,0,0,0-.62-.57.63.63,0,0,0-.56.38.93.93,0,0,1-.13.15c-.05-.05-.11-.1-.15-.15s0-.08-.07-.11a.69.69,0,0,0-.73-.25.55.55,0,0,0-.39.57,1.68,1.68,0,0,0,.16.54A3.48,3.48,0,0,0,26.69,20.42ZM4.3,18.84c0-.4-.16-.62-.41-.69a.7.7,0,0,0-.75.32,1.45,1.45,0,0,1-.17.19,1.4,1.4,0,0,1-.16-.2.72.72,0,0,0-.76-.3.55.55,0,0,0-.39.64,1.29,1.29,0,0,0,.15.47,3.28,3.28,0,0,0,1.09,1.1.18.18,0,0,0,.16,0,9.28,9.28,0,0,0,.82-.71A1.36,1.36,0,0,0,4.3,18.84Zm20.84,3.5a3.24,3.24,0,0,0-.19-.52,3.31,3.31,0,0,0-1.1-1.1s-.13,0-.18,0a6.52,6.52,0,0,0-.59.48,1.78,1.78,0,0,0-.62,1,.58.58,0,0,0,.37.68.72.72,0,0,0,.8-.33.83.83,0,0,1,.15-.17.84.84,0,0,1,.15.18.71.71,0,0,0,.76.33A.65.65,0,0,0,25.14,22.34ZM8.87,20.47c.28-.23.5-.4.71-.59A1.89,1.89,0,0,0,10.2,19a.64.64,0,0,0-.16-.68.58.58,0,0,0-.67-.08,1.25,1.25,0,0,0-.31.3,1.29,1.29,0,0,0-.16.17l-.15-.18a.08.08,0,0,1,0,0A.69.69,0,0,0,8,18.17a.57.57,0,0,0-.36.7,1.58,1.58,0,0,0,.28.6C8.17,19.82,8.52,20.13,8.87,20.47Zm7.29-1.64a.62.62,0,0,0-.41-.68.72.72,0,0,0-.75.31c-.05.08-.11.14-.16.21s-.13-.14-.18-.21a.69.69,0,0,0-.71-.31.5.5,0,0,0-.43.48,1.44,1.44,0,0,0,.14.62,3.11,3.11,0,0,0,1.1,1.12.18.18,0,0,0,.16,0,9.87,9.87,0,0,0,.84-.74A1.26,1.26,0,0,0,16.16,18.83Zm4.6,1.59a4.19,4.19,0,0,0,1.07-1,1.2,1.2,0,0,0,.26-.77.56.56,0,0,0-.6-.53.64.64,0,0,0-.6.41.22.22,0,0,1-.14.11s-.08-.06-.11-.1a.39.39,0,0,1-.06-.11.69.69,0,0,0-.73-.3.56.56,0,0,0-.42.57,1.58,1.58,0,0,0,.17.56A3.51,3.51,0,0,0,20.76,20.42ZM10.6,22.24c0,.51.27.75.68.69a.62.62,0,0,0,.49-.35,1.14,1.14,0,0,1,.15-.16l.16.17a.73.73,0,0,1,.05.09.68.68,0,0,0,.75.23.56.56,0,0,0,.36-.63,1.4,1.4,0,0,0-.11-.4A3.36,3.36,0,0,0,12,20.71a.18.18,0,0,0-.16,0c-.28.24-.57.47-.83.73A1.26,1.26,0,0,0,10.6,22.24Zm8.58,0a2.81,2.81,0,0,0-.15-.43,3.27,3.27,0,0,0-1.11-1.11.19.19,0,0,0-.18,0,5.89,5.89,0,0,0-.6.5,1.69,1.69,0,0,0-.61,1,.59.59,0,0,0,.38.69.69.69,0,0,0,.78-.32c0-.07.1-.12.15-.19a1.45,1.45,0,0,1,.17.19.7.7,0,0,0,.76.33A.62.62,0,0,0,19.18,22.26Zm11.86,0a1.6,1.6,0,0,0-.16-.44,5,5,0,0,0-.79-.87c-.47-.38-.27-.36-.77,0a1.87,1.87,0,0,0-.3.26,1.8,1.8,0,0,0-.63,1.05.57.57,0,0,0,.37.66.7.7,0,0,0,.78-.31,1.54,1.54,0,0,1,.17-.19,1.46,1.46,0,0,1,.16.19.71.71,0,0,0,.75.32A.64.64,0,0,0,31,22.26Zm3.4,0c0,.5.27.74.65.7a.64.64,0,0,0,.54-.39.29.29,0,0,1,.14-.13s.09.07.13.12a.25.25,0,0,0,0,.07.67.67,0,0,0,.76.31.55.55,0,0,0,.38-.63,1.28,1.28,0,0,0-.14-.47,3.4,3.4,0,0,0-1.1-1.1.19.19,0,0,0-.18,0,8.67,8.67,0,0,0-.79.69A1.38,1.38,0,0,0,34.44,22.24Zm-4.58-1.77a3.17,3.17,0,0,1,1.4,1.66,8.63,8.63,0,0,1,.56-.83c.22-.25.5-.46.75-.7a3.1,3.1,0,0,1-1.4-1.76A3.08,3.08,0,0,1,29.86,20.47Zm-3,.15a3.06,3.06,0,0,1,1.29,1.56,3.36,3.36,0,0,1,1.42-1.72,3.19,3.19,0,0,1-1.3-1.55A3.25,3.25,0,0,1,26.84,20.62ZM4.54,18.9a3.35,3.35,0,0,1-1.41,1.72,3.19,3.19,0,0,1,1.29,1.55,3.36,3.36,0,0,1,1.42-1.7A3.21,3.21,0,0,1,4.54,18.9Zm7.23,1.56a3.2,3.2,0,0,1-1.3-1.55,3.36,3.36,0,0,1-1.39,1.7,6.94,6.94,0,0,1,.74.68,8.26,8.26,0,0,1,.56.8A3.27,3.27,0,0,1,11.77,20.46Zm23.84,0a3.26,3.26,0,0,1-1.29-1.56,3.34,3.34,0,0,1-1.42,1.71,3.23,3.23,0,0,1,1.3,1.54A3.31,3.31,0,0,1,35.61,20.47ZM16.28,22.18a3.34,3.34,0,0,1,1.41-1.72,3.23,3.23,0,0,1-1.29-1.55A3.37,3.37,0,0,1,15,20.62,3.16,3.16,0,0,1,16.28,22.18Zm5.93,0a3.32,3.32,0,0,1,1.41-1.71,3.2,3.2,0,0,1-1.3-1.57,1.93,1.93,0,0,1-.56,1c-.26.26-.54.49-.82.74C21.91,21.46,22,21.55,22.21,22.17Zm1.72-1.7a3.7,3.7,0,0,1,1.35,1.46c.19-.25.36-.5.56-.72s.45-.4.68-.6a3.66,3.66,0,0,1-1.35-1.51A3.56,3.56,0,0,1,23.93,20.47Zm-5.93,0A3.7,3.7,0,0,1,19.37,22a3.64,3.64,0,0,1,1.24-1.37,3.63,3.63,0,0,1-1.37-1.51A3.64,3.64,0,0,1,18,20.47ZM7.51,22a3.43,3.43,0,0,1,1.24-1.37A3.8,3.8,0,0,1,7.38,19.1a3.56,3.56,0,0,1-1.24,1.37A3.67,3.67,0,0,1,7.51,22Zm5.8-2.9a3.58,3.58,0,0,1-1.23,1.38A3.68,3.68,0,0,1,13.44,22a3.64,3.64,0,0,1,1.24-1.37A3.6,3.6,0,0,1,13.31,19.09Z"/><path d="M30,6.58a.9.9,0,0,1-1.59-.29.69.69,0,0,1-.7.53.78.78,0,0,1-.73-.5.77.77,0,0,1-1.39.12.83.83,0,0,1-.71.5.94.94,0,0,1-.81-.36,1,1,0,0,1-.89.36.84.84,0,0,1-.69-.67.7.7,0,0,1-.7.55A.79.79,0,0,1,21,6.31a.83.83,0,0,1-.65.51.71.71,0,0,1-.73-.37.83.83,0,0,1-.72.49.91.91,0,0,1-.8-.36,1,1,0,0,1-.88.36.8.8,0,0,1-.68-.64c-.46.7-1,.71-1.47,0a.79.79,0,0,1-.64.48.7.7,0,0,1-.74-.37.82.82,0,0,1-.71.5.92.92,0,0,1-.81-.36,1,1,0,0,1-.89.36.81.81,0,0,1-.68-.63c-.43.68-1.05.69-1.45,0a.87.87,0,0,1-.67.49.72.72,0,0,1-.72-.38.84.84,0,0,1-.72.5.92.92,0,0,1-.8-.36,1,1,0,0,1-.88.36.83.83,0,0,1-.69-.65A.73.73,0,0,1,4,6.82a.78.78,0,0,1-.73-.48A3.48,3.48,0,0,1,3,6.62a.76.76,0,0,1-.88.11.74.74,0,0,1-.31-.85,2.32,2.32,0,0,1,.81-1.14l.41-.33A13,13,0,0,1,2,3.35a1.88,1.88,0,0,1-.32-.8.74.74,0,0,1,.47-.82.87.87,0,0,1,1,.17A.79.79,0,0,1,3.25,2a1,1,0,0,1,.87-.36.8.8,0,0,1,.7.65c.15-.33.35-.55.71-.54a.8.8,0,0,1,.74.51.84.84,0,0,1,.66-.5.71.71,0,0,1,.73.37.83.83,0,0,1,.71-.5A.92.92,0,0,1,9.18,2a1,1,0,0,1,.88-.36.79.79,0,0,1,.69.66.73.73,0,0,1,.7-.55.8.8,0,0,1,.75.51.82.82,0,0,1,.66-.5.71.71,0,0,1,.73.37.83.83,0,0,1,.71-.5.92.92,0,0,1,.8.36c.71-.56,1.26-.47,1.59.29a.71.71,0,0,1,.7-.53.82.82,0,0,1,.74.5.78.78,0,0,1,1.39-.14A.89.89,0,0,1,21,2a1,1,0,0,1,.87-.35.8.8,0,0,1,.7.66.71.71,0,0,1,.72-.55.81.81,0,0,1,.73.5.78.78,0,0,1,1.39-.12.83.83,0,0,1,.71-.5A.92.92,0,0,1,27,2a.89.89,0,0,1,1.58.27c.42-.68,1.05-.69,1.45,0a.82.82,0,0,1,.77-.5.72.72,0,0,1,.69.58A.89.89,0,0,1,33,2a.9.9,0,0,1,1.58.29.69.69,0,0,1,.7-.52.76.76,0,0,1,.72.49A2.49,2.49,0,0,1,36.28,2a.74.74,0,0,1,.88-.1.73.73,0,0,1,.31.83,2.19,2.19,0,0,1-.78,1.13c-.15.13-.31.25-.49.39l.24.17a3.68,3.68,0,0,1,1,1.08,1.15,1.15,0,0,1,.16.81.83.83,0,0,1-1.53.27,1,1,0,0,1-.9.38.84.84,0,0,1-.69-.66.72.72,0,0,1-.71.54.79.79,0,0,1-.73-.5.86.86,0,0,1-.77.5c-.37,0-.58-.21-.7-.6-.11.39-.3.65-.67.71A.91.91,0,0,1,30,6.58ZM5,6a.6.6,0,0,0,.41.68.71.71,0,0,0,.76-.33,1,1,0,0,1,.17-.18,1.1,1.1,0,0,1,.14.18.69.69,0,0,0,.81.31A.58.58,0,0,0,7.59,6a1.34,1.34,0,0,0-.14-.38,3.34,3.34,0,0,0-1.1-1.11.17.17,0,0,0-.18,0,8.34,8.34,0,0,0-.78.67A1.39,1.39,0,0,0,5,6ZM33,4.25a11.38,11.38,0,0,0,.92-.85,2.17,2.17,0,0,0,.4-.71A.55.55,0,0,0,34.14,2a.57.57,0,0,0-.69,0,1.61,1.61,0,0,0-.28.3L33,2.43a.86.86,0,0,1-.13-.14s0,0,0-.06a.69.69,0,0,0-.79-.3.57.57,0,0,0-.36.72,1.49,1.49,0,0,0,.28.58C32.3,3.58,32.65,3.89,33,4.25Zm-6.09,0a3.86,3.86,0,0,0,1.11-1,1.88,1.88,0,0,0,.25-.56.58.58,0,0,0-.35-.72.69.69,0,0,0-.8.32,1.3,1.3,0,0,1-.15.18,1,1,0,0,1-.17-.19A.67.67,0,0,0,26,1.93a.56.56,0,0,0-.37.69,1.54,1.54,0,0,0,.28.61C26.24,3.57,26.59,3.88,26.92,4.21Zm-23.65,0c.23-.19.46-.36.66-.55a1.91,1.91,0,0,0,.63-.93A.62.62,0,0,0,4.38,2a.56.56,0,0,0-.67,0c-.13.06-.21.21-.32.32s-.09.12-.12.11-.1-.07-.15-.12l0,0a.66.66,0,0,0-.76-.32.57.57,0,0,0-.39.65,1.25,1.25,0,0,0,.17.49A3.69,3.69,0,0,0,3.27,4.19ZM22.73,6.1a.56.56,0,0,0,.65.6.63.63,0,0,0,.55-.4s.08-.11.13-.11.09.06.13.1,0,.08.06.12a.7.7,0,0,0,.74.28.54.54,0,0,0,.39-.54,1.43,1.43,0,0,0-.16-.58,3.1,3.1,0,0,0-1.08-1.08.17.17,0,0,0-.18,0c-.29.25-.59.49-.86.77A1.25,1.25,0,0,0,22.73,6.1ZM9.2,4.19c.23-.19.46-.36.66-.55a1.91,1.91,0,0,0,.62-.91.62.62,0,0,0-.33-.8.68.68,0,0,0-.8.31,1.54,1.54,0,0,1-.17.19A1.56,1.56,0,0,1,9,2.23a.7.7,0,0,0-.79-.3.58.58,0,0,0-.36.7,1.62,1.62,0,0,0,.21.51A3.77,3.77,0,0,0,9.2,4.19Zm5.91,0a3.83,3.83,0,0,0,1.1-1,1.14,1.14,0,0,0,.23-.73.55.55,0,0,0-.57-.53.68.68,0,0,0-.63.4.21.21,0,0,1-.14.12S15,2.35,15,2.3s0-.07-.06-.11a.69.69,0,0,0-.7-.28.56.56,0,0,0-.43.54A1.53,1.53,0,0,0,14,3,3.36,3.36,0,0,0,15.11,4.18Zm5.9.05c.29-.24.53-.42.75-.63a1.77,1.77,0,0,0,.61-1,.58.58,0,0,0-.4-.67.69.69,0,0,0-.76.31,1.75,1.75,0,0,1-.16.2.82.82,0,0,1-.17-.2.68.68,0,0,0-.78-.3.55.55,0,0,0-.37.69,1.55,1.55,0,0,0,.28.61C20.31,3.58,20.66,3.89,21,4.23ZM16.8,6c0,.51.27.75.64.72A.66.66,0,0,0,18,6.29a.2.2,0,0,1,.13-.11s.08.06.12.1,0,.08,0,.11a.68.68,0,0,0,.76.29A.57.57,0,0,0,19.45,6a1.26,1.26,0,0,0-.15-.45,3.37,3.37,0,0,0-1.09-1.1.15.15,0,0,0-.16,0,10.77,10.77,0,0,0-1,.93A2.32,2.32,0,0,0,16.8,6Zm11.86.13a.56.56,0,0,0,.64.59.66.66,0,0,0,.57-.41.17.17,0,0,1,.13-.1s.08,0,.12.09,0,.07,0,.1a.69.69,0,0,0,.77.3A.57.57,0,0,0,31.31,6a1.34,1.34,0,0,0-.13-.4,3.27,3.27,0,0,0-1.12-1.13s-.13,0-.17,0c-.28.23-.56.46-.81.71A1.34,1.34,0,0,0,28.66,6.11ZM10.88,6c0,.47.24.72.59.7a.64.64,0,0,0,.6-.39s.09-.12.14-.12.09.08.13.13a.25.25,0,0,1,0,.07.68.68,0,0,0,.76.29A.56.56,0,0,0,13.52,6a1.26,1.26,0,0,0-.15-.45,3.28,3.28,0,0,0-1.09-1.1.19.19,0,0,0-.18,0,8.67,8.67,0,0,0-.79.69A1.38,1.38,0,0,0,10.88,6Zm26.52.1a2.7,2.7,0,0,0-.16-.48,3.22,3.22,0,0,0-1.12-1.14.17.17,0,0,0-.18,0,6,6,0,0,0-.76.66,2.27,2.27,0,0,0-.42.72.59.59,0,0,0,.32.78.69.69,0,0,0,.8-.29,1.75,1.75,0,0,1,.16-.2,1.81,1.81,0,0,1,.18.21.72.72,0,0,0,.75.3A.62.62,0,0,0,37.4,6.1Zm-5.85-.21a7,7,0,0,1,.55-.83,8.43,8.43,0,0,1,.76-.69,3.25,3.25,0,0,1-1.39-1.66,6.1,6.1,0,0,1-.54.82,8.61,8.61,0,0,1-.76.71A3.26,3.26,0,0,1,31.55,5.89ZM28.41,6a3.25,3.25,0,0,1,1.43-1.72,3.18,3.18,0,0,1-1.3-1.57,3.29,3.29,0,0,1-1.41,1.72A3.07,3.07,0,0,1,28.41,6Zm-25-1.57A3.18,3.18,0,0,1,4.7,5.93,3.48,3.48,0,0,1,6.12,4.22a3.22,3.22,0,0,1-1.3-1.54A3.33,3.33,0,0,1,3.41,4.38Zm32.47-.17A3.12,3.12,0,0,1,34.6,2.68a3.34,3.34,0,0,1-1.39,1.69,6.94,6.94,0,0,1,.74.68,6,6,0,0,1,.52.75A7,7,0,0,1,35.05,5,10.19,10.19,0,0,1,35.88,4.21ZM10.64,5.94a3.3,3.3,0,0,1,1.41-1.72,3.08,3.08,0,0,1-1.29-1.55A3.38,3.38,0,0,1,9.34,4.38,3.18,3.18,0,0,1,10.64,5.94Zm5.93,0A3.22,3.22,0,0,1,18,4.24c-.26-.24-.53-.44-.75-.68a8.87,8.87,0,0,1-.55-.81,3.38,3.38,0,0,1-1.39,1.63A3.21,3.21,0,0,1,16.57,6Zm6-3.29A3.26,3.26,0,0,1,21.2,4.38,3.14,3.14,0,0,1,22.49,6,3.36,3.36,0,0,1,23.9,4.22,3.15,3.15,0,0,1,22.61,2.66Zm1.6,1.57a3.72,3.72,0,0,1,1.38,1.51,3.52,3.52,0,0,1,1.23-1.36,3.7,3.7,0,0,1-1.36-1.52A3.66,3.66,0,0,1,24.21,4.23Zm-5.93,0a3.63,3.63,0,0,1,1.37,1.51,3.62,3.62,0,0,1,1.24-1.36,3.76,3.76,0,0,1-1.37-1.51A3.53,3.53,0,0,1,18.28,4.23ZM9,4.38A3.65,3.65,0,0,1,7.67,2.86,3.75,3.75,0,0,1,6.43,4.24a3.52,3.52,0,0,1,1.36,1.5A3.62,3.62,0,0,1,9,4.38Zm4.56-1.52a3.62,3.62,0,0,1-1.23,1.37A3.68,3.68,0,0,1,13.7,5.69c.19-.24.36-.5.56-.71s.45-.4.69-.61A3.69,3.69,0,0,1,13.59,2.86Z"/><path d="M33,22.75a.83.83,0,0,1-.81.51.7.7,0,0,1-.64-.57c-.4.81-.93.92-1.6.34a1,1,0,0,1-.88.34.84.84,0,0,1-.69-.67.68.68,0,0,1-.61.55.79.79,0,0,1-.83-.5.8.8,0,0,1-.66.5.68.68,0,0,1-.72-.37.86.86,0,0,1-.72.5A1,1,0,0,1,24,23a.91.91,0,0,1-1.59-.27.77.77,0,0,1-1.45,0,.77.77,0,0,1-.66.49.69.69,0,0,1-.71-.35c-.5.61-1,.65-1.53.12a1,1,0,0,1-.88.35.78.78,0,0,1-.68-.66.75.75,0,0,1-.72.55.79.79,0,0,1-.73-.49.8.8,0,0,1-1.4.13.83.83,0,0,1-.72.48.91.91,0,0,1-.79-.37,1,1,0,0,1-.88.37.84.84,0,0,1-.7-.65.73.73,0,0,1-.7.53.78.78,0,0,1-.74-.51.84.84,0,0,1-.66.5.69.69,0,0,1-.73-.37.84.84,0,0,1-.72.5A1,1,0,0,1,6.19,23a1,1,0,0,1-.89.35.83.83,0,0,1-.68-.65.72.72,0,0,1-.71.54.79.79,0,0,1-.73-.5l-.1.15a.78.78,0,0,1-1,.29.74.74,0,0,1-.38-.87,2.27,2.27,0,0,1,.8-1.14L3,20.83c-.29-.26-.59-.52-.87-.79a1.62,1.62,0,0,1-.51-1,.79.79,0,0,1,.46-.83.89.89,0,0,1,1,.18l.12.11a1,1,0,0,1,.88-.36.84.84,0,0,1,.69.66.72.72,0,0,1,.71-.54.78.78,0,0,1,.74.51.84.84,0,0,1,.66-.51.73.73,0,0,1,.73.38.84.84,0,0,1,.72-.51.94.94,0,0,1,.79.37.9.9,0,0,1,1.59.28.68.68,0,0,1,.69-.52.79.79,0,0,1,.75.51.83.83,0,0,1,.67-.51.69.69,0,0,1,.7.36c.5-.61,1-.66,1.54-.12a1,1,0,0,1,.87-.36.84.84,0,0,1,.7.67.7.7,0,0,1,.7-.55.79.79,0,0,1,.75.51.81.81,0,0,1,.66-.51.7.7,0,0,1,.72.38.83.83,0,0,1,.72-.5.88.88,0,0,1,.79.36.88.88,0,0,1,1.58.31.72.72,0,0,1,.71-.55.8.8,0,0,1,.75.51.82.82,0,0,1,.66-.51.73.73,0,0,1,.72.36.91.91,0,0,1,1.53-.13.87.87,0,0,1,1.56.31.73.73,0,0,1,.71-.54.77.77,0,0,1,.73.49.78.78,0,0,1,1.48.09.83.83,0,0,1,.67-.69.92.92,0,0,1,.9.36,1,1,0,0,1,.88-.37.83.83,0,0,1,.69.66c.15-.34.35-.55.71-.54a.79.79,0,0,1,.73.49,2.65,2.65,0,0,1,.25-.3.77.77,0,0,1,.89-.09.76.76,0,0,1,.3.84,2.29,2.29,0,0,1-.79,1.12l-.46.37c.29.26.59.51.86.78a1.82,1.82,0,0,1,.51.89.85.85,0,0,1-.38.95.9.9,0,0,1-1-.11S36,23.05,36,23c-.66.64-1.4.4-1.6-.26a.74.74,0,0,1-.7.52A.8.8,0,0,1,33,22.75ZM4.86,22.44c0,.39.16.62.41.69A.7.7,0,0,0,6,22.81l.16-.2c.06.07.13.14.18.21a.7.7,0,0,0,.79.29.59.59,0,0,0,.36-.69,1.35,1.35,0,0,0-.11-.34,3.36,3.36,0,0,0-1.14-1.17.23.23,0,0,0-.18,0c-.26.22-.54.44-.78.68A1.45,1.45,0,0,0,4.86,22.44ZM34.27,19a.6.6,0,0,0-.41-.68.71.71,0,0,0-.75.32,1.4,1.4,0,0,1-.16.2,1.56,1.56,0,0,1-.16-.2.72.72,0,0,0-.79-.31.59.59,0,0,0-.37.72,1.55,1.55,0,0,0,.13.36,3.46,3.46,0,0,0,1.12,1.13.19.19,0,0,0,.16,0,9.49,9.49,0,0,0,.82-.73A1.27,1.27,0,0,0,34.27,19Zm-7.38,1.59a3.46,3.46,0,0,0,1.06-1,1.77,1.77,0,0,0,.25-.73.53.53,0,0,0-.61-.56.63.63,0,0,0-.56.38.93.93,0,0,1-.13.15c0-.05-.11-.1-.15-.15s0-.08-.07-.11a.69.69,0,0,0-.73-.25.55.55,0,0,0-.39.57,1.68,1.68,0,0,0,.16.54A3.48,3.48,0,0,0,26.89,20.62ZM4.5,19c0-.4-.16-.62-.42-.69a.69.69,0,0,0-.74.32c0,.07-.12.12-.17.19s-.12-.13-.17-.2a.72.72,0,0,0-.75-.31.57.57,0,0,0-.4.64,1.3,1.3,0,0,0,.16.48,3.28,3.28,0,0,0,1.09,1.1.18.18,0,0,0,.16,0,9.14,9.14,0,0,0,.81-.71A1.33,1.33,0,0,0,4.5,19Zm20.84,3.5a3.75,3.75,0,0,0-.19-.53,3.28,3.28,0,0,0-1.1-1.09.17.17,0,0,0-.18,0,6.75,6.75,0,0,0-.59.47,1.79,1.79,0,0,0-.62,1,.58.58,0,0,0,.37.68.72.72,0,0,0,.8-.33.84.84,0,0,1,.15-.18,1.19,1.19,0,0,1,.15.18.71.71,0,0,0,.76.34A.65.65,0,0,0,25.34,22.54ZM9.07,20.67c.28-.23.5-.4.71-.59a2,2,0,0,0,.62-.92.64.64,0,0,0-.16-.68.56.56,0,0,0-.67-.08,1.71,1.71,0,0,0-.32.29l-.15.18-.16-.18a.08.08,0,0,0,0,0,.67.67,0,0,0-.77-.28.56.56,0,0,0-.36.7,1.58,1.58,0,0,0,.28.6C8.37,20,8.72,20.33,9.07,20.67ZM16.36,19a.62.62,0,0,0-.42-.68.72.72,0,0,0-.75.31,1.59,1.59,0,0,1-.15.21c-.06-.07-.13-.14-.18-.21a.72.72,0,0,0-.71-.32.52.52,0,0,0-.43.49,1.31,1.31,0,0,0,.14.62A3.19,3.19,0,0,0,15,20.57a.18.18,0,0,0,.16,0c.29-.24.58-.48.84-.74A1.34,1.34,0,0,0,16.36,19ZM21,20.62a4.56,4.56,0,0,0,1.07-1,1.26,1.26,0,0,0,.26-.77.56.56,0,0,0-.6-.53.65.65,0,0,0-.61.41.2.2,0,0,1-.13.11s-.08-.06-.11-.1a.6.6,0,0,1-.06-.11.7.7,0,0,0-.74-.3.55.55,0,0,0-.41.57,1.58,1.58,0,0,0,.17.56A3.51,3.51,0,0,0,21,20.62ZM10.79,22.44c0,.5.28.75.69.69a.62.62,0,0,0,.49-.35c0-.06.1-.11.14-.17l.16.17s0,.07.06.09a.68.68,0,0,0,.75.24.57.57,0,0,0,.36-.63,1.09,1.09,0,0,0-.12-.4,3.25,3.25,0,0,0-1.13-1.17.18.18,0,0,0-.16,0c-.28.24-.57.46-.83.72A1.32,1.32,0,0,0,10.79,22.44Zm8.59,0a2.38,2.38,0,0,0-.16-.42,3.27,3.27,0,0,0-1.1-1.12.23.23,0,0,0-.18,0,7.26,7.26,0,0,0-.61.49,1.79,1.79,0,0,0-.6,1,.59.59,0,0,0,.38.69.7.7,0,0,0,.78-.32,1.39,1.39,0,0,1,.15-.19,1,1,0,0,1,.17.19.68.68,0,0,0,.76.32C19.21,23.06,19.38,22.83,19.38,22.45Zm11.86,0a1.3,1.3,0,0,0-.17-.44,4.62,4.62,0,0,0-.78-.87c-.47-.38-.27-.36-.77,0a2.51,2.51,0,0,0-.31.26,1.87,1.87,0,0,0-.63,1.05.6.6,0,0,0,.37.66.71.71,0,0,0,.79-.31,1.51,1.51,0,0,1,.17-.2c.05.07.12.13.16.2a.69.69,0,0,0,.75.32A.64.64,0,0,0,31.24,22.46Zm3.4,0c0,.49.27.74.65.69a.62.62,0,0,0,.54-.38.29.29,0,0,1,.14-.13s.09.07.13.12l0,.07a.7.7,0,0,0,.77.31.55.55,0,0,0,.38-.63,1.29,1.29,0,0,0-.15-.47A3.19,3.19,0,0,0,36,20.92a.19.19,0,0,0-.18,0,8.67,8.67,0,0,0-.79.69A1.38,1.38,0,0,0,34.64,22.44Zm-4.58-1.78a3.23,3.23,0,0,1,1.4,1.67c.18-.27.34-.57.55-.83a8.52,8.52,0,0,1,.76-.7A3.19,3.19,0,0,1,31.36,19,3,3,0,0,1,30.06,20.66Zm-3,.16a3.06,3.06,0,0,1,1.29,1.56,3.36,3.36,0,0,1,1.42-1.72,3.18,3.18,0,0,1-1.3-1.55A3.25,3.25,0,0,1,27,20.82ZM4.74,19.1a3.35,3.35,0,0,1-1.41,1.72,3.21,3.21,0,0,1,1.29,1.54A3.4,3.4,0,0,1,6,20.66,3.14,3.14,0,0,1,4.74,19.1ZM12,20.66a3.14,3.14,0,0,1-1.3-1.55,3.33,3.33,0,0,1-1.4,1.7,6.21,6.21,0,0,1,.75.68,6.71,6.71,0,0,1,.55.8A3.34,3.34,0,0,1,12,20.66Zm23.84,0a3.13,3.13,0,0,1-1.29-1.55,3.38,3.38,0,0,1-1.42,1.71,3.23,3.23,0,0,1,1.3,1.54A3.33,3.33,0,0,1,35.81,20.66ZM16.48,22.38a3.3,3.3,0,0,1,1.41-1.72A3.16,3.16,0,0,1,16.6,19.1a3.4,3.4,0,0,1-1.41,1.72A3.16,3.16,0,0,1,16.48,22.38Zm5.93,0a3.32,3.32,0,0,1,1.41-1.71,3.2,3.2,0,0,1-1.3-1.57,1.93,1.93,0,0,1-.56,1c-.26.25-.55.49-.82.74C22.1,21.66,22.18,21.75,22.41,22.37Zm1.72-1.71a3.84,3.84,0,0,1,1.35,1.46c.19-.24.36-.49.56-.71s.45-.4.68-.61a3.57,3.57,0,0,1-1.35-1.5A3.54,3.54,0,0,1,24.13,20.66Zm-5.93,0a3.79,3.79,0,0,1,1.37,1.52,3.63,3.63,0,0,1,1.23-1.37,3.67,3.67,0,0,1-1.36-1.51A3.54,3.54,0,0,1,18.2,20.66ZM7.71,22.19A3.52,3.52,0,0,1,9,20.81,3.64,3.64,0,0,1,7.58,19.3a3.56,3.56,0,0,1-1.24,1.37A3.61,3.61,0,0,1,7.71,22.19Zm5.8-2.9a3.53,3.53,0,0,1-1.24,1.38,3.7,3.7,0,0,1,1.37,1.51,3.64,3.64,0,0,1,1.24-1.37A3.54,3.54,0,0,1,13.51,19.29Z"/></g><g class="cls-3"><path d="M29.66,6.24A.9.9,0,0,1,28.07,6a.69.69,0,0,1-.7.53.78.78,0,0,1-.73-.5.77.77,0,0,1-1.39.12.83.83,0,0,1-.71.5.94.94,0,0,1-.81-.36,1,1,0,0,1-.89.36.84.84,0,0,1-.69-.67.71.71,0,0,1-.7.55A.79.79,0,0,1,20.7,6a.83.83,0,0,1-.65.51.71.71,0,0,1-.73-.37.83.83,0,0,1-.72.49.91.91,0,0,1-.8-.36,1,1,0,0,1-.88.36A.8.8,0,0,1,16.24,6c-.46.7-1,.71-1.47,0a.81.81,0,0,1-.64.48.7.7,0,0,1-.74-.37.83.83,0,0,1-.72.5.91.91,0,0,1-.8-.36A1,1,0,0,1,11,6.6.81.81,0,0,1,10.3,6c-.43.68-1.05.69-1.45,0a.87.87,0,0,1-.67.49.72.72,0,0,1-.72-.38.84.84,0,0,1-.72.5.92.92,0,0,1-.8-.36,1,1,0,0,1-.88.36A.83.83,0,0,1,4.37,6a.73.73,0,0,1-.71.53A.78.78,0,0,1,2.93,6a3.48,3.48,0,0,1-.24.28.76.76,0,0,1-.88.11.74.74,0,0,1-.31-.85A2.32,2.32,0,0,1,2.31,4.4l.41-.33A13,13,0,0,1,1.68,3a1.88,1.88,0,0,1-.32-.8.74.74,0,0,1,.47-.82.87.87,0,0,1,1,.17.79.79,0,0,1,.12.13,1,1,0,0,1,.87-.36.8.8,0,0,1,.7.65c.15-.33.35-.55.71-.54A.8.8,0,0,1,5.93,2a.84.84,0,0,1,.66-.5.71.71,0,0,1,.73.37A.83.83,0,0,1,8,1.32a.92.92,0,0,1,.81.37,1,1,0,0,1,.88-.36.79.79,0,0,1,.69.66.73.73,0,0,1,.7-.55.8.8,0,0,1,.75.51.82.82,0,0,1,.66-.5.71.71,0,0,1,.73.37.83.83,0,0,1,.71-.5.92.92,0,0,1,.8.36c.71-.56,1.26-.47,1.59.29a.71.71,0,0,1,.7-.53.82.82,0,0,1,.74.5.78.78,0,0,1,1.39-.14.89.89,0,0,1,1.52-.12,1,1,0,0,1,.87-.35.8.8,0,0,1,.7.66A.71.71,0,0,1,23,1.44a.81.81,0,0,1,.73.5.78.78,0,0,1,1.39-.12.83.83,0,0,1,.71-.5.92.92,0,0,1,.8.36A.89.89,0,0,1,28.2,2c.42-.68,1.05-.69,1.45,0a.82.82,0,0,1,.77-.5.72.72,0,0,1,.69.58.89.89,0,0,1,1.58-.35A.9.9,0,0,1,34.27,2a.69.69,0,0,1,.7-.52.76.76,0,0,1,.72.49,2.49,2.49,0,0,1,.25-.29.74.74,0,0,1,.88-.1.73.73,0,0,1,.31.83,2.19,2.19,0,0,1-.78,1.13c-.15.13-.31.25-.49.39l.24.17a3.68,3.68,0,0,1,1,1.08,1.15,1.15,0,0,1,.16.81.83.83,0,0,1-1.53.27,1,1,0,0,1-.9.38.84.84,0,0,1-.69-.66.72.72,0,0,1-.71.54A.79.79,0,0,1,32.7,6a.86.86,0,0,1-.77.5c-.37,0-.58-.21-.7-.6-.11.39-.3.65-.67.71A.91.91,0,0,1,29.66,6.24Zm-25-.57A.6.6,0,0,0,5,6.35.71.71,0,0,0,5.78,6,1,1,0,0,1,6,5.84,1.1,1.1,0,0,1,6.09,6a.69.69,0,0,0,.81.31.58.58,0,0,0,.35-.7,1.34,1.34,0,0,0-.14-.38A3.34,3.34,0,0,0,6,4.14a.17.17,0,0,0-.18,0,8.34,8.34,0,0,0-.78.67A1.39,1.39,0,0,0,4.61,5.67ZM32.67,3.91a11.38,11.38,0,0,0,.92-.85,2.17,2.17,0,0,0,.4-.71.57.57,0,0,0-.19-.67.57.57,0,0,0-.69,0,1.61,1.61,0,0,0-.28.3,1.85,1.85,0,0,1-.14.14A.86.86,0,0,1,32.56,2s0,0,0-.06a.69.69,0,0,0-.79-.3.57.57,0,0,0-.36.72,1.49,1.49,0,0,0,.28.58C32,3.24,32.31,3.55,32.67,3.91Zm-6.09,0a3.86,3.86,0,0,0,1.11-1,1.88,1.88,0,0,0,.25-.56.58.58,0,0,0-.35-.72.69.69,0,0,0-.8.32,1.3,1.3,0,0,1-.15.18,1,1,0,0,1-.17-.19.67.67,0,0,0-.78-.31.56.56,0,0,0-.37.69,1.54,1.54,0,0,0,.28.61C25.9,3.23,26.25,3.54,26.58,3.87Zm-23.65,0c.23-.19.46-.36.66-.55a1.91,1.91,0,0,0,.63-.93A.62.62,0,0,0,4,1.69a.56.56,0,0,0-.67-.05c-.13.06-.21.21-.32.32s-.09.12-.12.11S2.83,2,2.78,2l0-.05A.66.66,0,0,0,2,1.58a.57.57,0,0,0-.39.65,1.25,1.25,0,0,0,.17.49A3.69,3.69,0,0,0,2.93,3.85ZM22.39,5.76a.56.56,0,0,0,.65.6.63.63,0,0,0,.55-.4s.08-.11.13-.11.09.06.13.1,0,.08.06.11a.69.69,0,0,0,.74.29A.54.54,0,0,0,25,5.81a1.43,1.43,0,0,0-.16-.58A3.1,3.1,0,0,0,23.8,4.15a.17.17,0,0,0-.18,0c-.29.25-.59.49-.86.77A1.25,1.25,0,0,0,22.39,5.76ZM8.86,3.85c.23-.19.46-.36.66-.55a1.91,1.91,0,0,0,.62-.91.62.62,0,0,0-.33-.8A.7.7,0,0,0,9,1.9a1,1,0,0,1-.16.19,1.56,1.56,0,0,1-.16-.2.7.7,0,0,0-.79-.3.57.57,0,0,0-.36.7,1.62,1.62,0,0,0,.21.51A3.77,3.77,0,0,0,8.86,3.85Zm5.91,0a3.83,3.83,0,0,0,1.1-1,1.14,1.14,0,0,0,.23-.73.55.55,0,0,0-.57-.53.67.67,0,0,0-.63.4.21.21,0,0,1-.14.12S14.68,2,14.64,2s0-.07-.06-.11a.69.69,0,0,0-.7-.28.56.56,0,0,0-.43.54,1.53,1.53,0,0,0,.16.58A3.36,3.36,0,0,0,14.77,3.84Zm5.9.05c.29-.24.53-.42.75-.63a1.77,1.77,0,0,0,.61-1,.58.58,0,0,0-.4-.67.69.69,0,0,0-.76.31,1.75,1.75,0,0,1-.16.2.82.82,0,0,1-.17-.2.68.68,0,0,0-.78-.3.55.55,0,0,0-.37.69,1.55,1.55,0,0,0,.28.61C20,3.24,20.32,3.55,20.67,3.89ZM16.46,5.64c0,.51.27.75.64.72A.66.66,0,0,0,17.67,6a.2.2,0,0,1,.13-.11s.08.06.12.1,0,.08,0,.11a.68.68,0,0,0,.76.29.57.57,0,0,0,.38-.65A1.2,1.2,0,0,0,19,5.24a3.37,3.37,0,0,0-1.09-1.1.15.15,0,0,0-.16,0,10.77,10.77,0,0,0-1,.93A2,2,0,0,0,16.46,5.64Zm11.86.13a.56.56,0,0,0,.64.59A.66.66,0,0,0,29.53,6a.2.2,0,0,1,.13-.11s.08.06.11.1,0,.07.05.1a.69.69,0,0,0,.77.3A.57.57,0,0,0,31,5.67a1.34,1.34,0,0,0-.13-.4,3.27,3.27,0,0,0-1.12-1.13s-.13,0-.18,0c-.27.23-.55.46-.8.71A1.34,1.34,0,0,0,28.32,5.77ZM10.54,5.66c0,.47.24.72.59.7a.64.64,0,0,0,.6-.39s.09-.12.14-.12S12,5.93,12,6a.25.25,0,0,1,0,.07.68.68,0,0,0,.76.29.56.56,0,0,0,.38-.65A1.26,1.26,0,0,0,13,5.24a3.28,3.28,0,0,0-1.09-1.1.19.19,0,0,0-.18,0,8.67,8.67,0,0,0-.79.69A1.38,1.38,0,0,0,10.54,5.66Zm26.52.1a2.7,2.7,0,0,0-.16-.48,3.22,3.22,0,0,0-1.12-1.14.17.17,0,0,0-.18,0,6,6,0,0,0-.76.66,2.27,2.27,0,0,0-.42.72.59.59,0,0,0,.32.78.69.69,0,0,0,.8-.29,1.75,1.75,0,0,1,.16-.2,1.81,1.81,0,0,1,.18.21.72.72,0,0,0,.75.3A.62.62,0,0,0,37.06,5.76Zm-5.85-.21a7,7,0,0,1,.55-.83A8.43,8.43,0,0,1,32.52,4a3.25,3.25,0,0,1-1.39-1.66,6.1,6.1,0,0,1-.54.82,7.53,7.53,0,0,1-.77.71A3.23,3.23,0,0,1,31.21,5.55Zm-3.14,0A3.27,3.27,0,0,1,29.5,3.89a3.18,3.18,0,0,1-1.3-1.57A3.29,3.29,0,0,1,26.79,4,3.09,3.09,0,0,1,28.07,5.6ZM3.07,4A3.18,3.18,0,0,1,4.36,5.59,3.48,3.48,0,0,1,5.78,3.88a3.22,3.22,0,0,1-1.3-1.54A3.33,3.33,0,0,1,3.07,4Zm32.47-.17a3.12,3.12,0,0,1-1.28-1.53A3.31,3.31,0,0,1,32.86,4a6.21,6.21,0,0,1,.75.68,6,6,0,0,1,.52.75,7,7,0,0,1,.58-.84A10.19,10.19,0,0,1,35.54,3.87ZM10.3,5.6a3.3,3.3,0,0,1,1.41-1.72,3.15,3.15,0,0,1-1.3-1.55A3.32,3.32,0,0,1,9,4,3.18,3.18,0,0,1,10.3,5.6Zm5.93,0A3.22,3.22,0,0,1,17.62,3.9c-.26-.24-.53-.44-.75-.68a8.87,8.87,0,0,1-.55-.81A3.38,3.38,0,0,1,14.93,4,3.21,3.21,0,0,1,16.23,5.61Zm6-3.29A3.26,3.26,0,0,1,20.86,4a3.14,3.14,0,0,1,1.29,1.57,3.36,3.36,0,0,1,1.41-1.73A3.15,3.15,0,0,1,22.27,2.32Zm1.6,1.57A3.72,3.72,0,0,1,25.25,5.4,3.52,3.52,0,0,1,26.48,4a3.8,3.8,0,0,1-1.37-1.52A3.56,3.56,0,0,1,23.87,3.89Zm-5.93,0A3.63,3.63,0,0,1,19.31,5.4,3.62,3.62,0,0,1,20.55,4a3.76,3.76,0,0,1-1.37-1.51A3.53,3.53,0,0,1,17.94,3.89ZM8.69,4A3.65,3.65,0,0,1,7.33,2.52,3.64,3.64,0,0,1,6.09,3.89,3.61,3.61,0,0,1,7.45,5.4,3.62,3.62,0,0,1,8.69,4Zm4.56-1.52A3.62,3.62,0,0,1,12,3.89a3.68,3.68,0,0,1,1.34,1.46c.19-.24.36-.5.56-.71s.45-.4.69-.61A3.69,3.69,0,0,1,13.25,2.52Z"/><path d="M32.61,22.41a.83.83,0,0,1-.81.51.7.7,0,0,1-.64-.57c-.4.81-.93.92-1.6.34a1,1,0,0,1-.88.34.84.84,0,0,1-.69-.67.68.68,0,0,1-.61.55.78.78,0,0,1-.83-.5.8.8,0,0,1-.66.5.68.68,0,0,1-.72-.37.86.86,0,0,1-.72.5,1,1,0,0,1-.8-.35.91.91,0,0,1-1.59-.27.77.77,0,0,1-1.45,0,.77.77,0,0,1-.66.49.69.69,0,0,1-.71-.35c-.5.61-1,.65-1.53.12a1,1,0,0,1-.88.35.78.78,0,0,1-.68-.66.75.75,0,0,1-.72.55.79.79,0,0,1-.73-.49.8.8,0,0,1-1.4.13.84.84,0,0,1-.72.48.91.91,0,0,1-.79-.37,1,1,0,0,1-.88.37.84.84,0,0,1-.7-.65.73.73,0,0,1-.7.53.78.78,0,0,1-.74-.51.84.84,0,0,1-.66.5.69.69,0,0,1-.73-.37.84.84,0,0,1-.72.5,1,1,0,0,1-.81-.36A1,1,0,0,1,5,23a.83.83,0,0,1-.68-.65.72.72,0,0,1-.71.54.79.79,0,0,1-.73-.5l-.1.15a.78.78,0,0,1-1,.29A.73.73,0,0,1,1.41,22a2.27,2.27,0,0,1,.8-1.14l.44-.36c-.29-.26-.59-.52-.87-.79a1.62,1.62,0,0,1-.51-1,.79.79,0,0,1,.46-.83.89.89,0,0,1,1,.18l.12.11a1,1,0,0,1,.88-.36.84.84,0,0,1,.69.66.72.72,0,0,1,.71-.54.78.78,0,0,1,.74.51.84.84,0,0,1,.66-.51.74.74,0,0,1,.73.38A.84.84,0,0,1,8,17.75a1,1,0,0,1,.79.37.9.9,0,0,1,1.59.28.68.68,0,0,1,.69-.52.79.79,0,0,1,.75.51.82.82,0,0,1,.67-.51.69.69,0,0,1,.7.36c.5-.61,1-.66,1.53-.12a1,1,0,0,1,.88-.36.84.84,0,0,1,.7.67.7.7,0,0,1,.7-.55.8.8,0,0,1,.75.51.81.81,0,0,1,.66-.51.7.7,0,0,1,.72.38.83.83,0,0,1,.72-.5.88.88,0,0,1,.79.36.88.88,0,0,1,1.58.31.72.72,0,0,1,.71-.55.8.8,0,0,1,.75.51.82.82,0,0,1,.66-.51.73.73,0,0,1,.72.36.91.91,0,0,1,1.53-.13.87.87,0,0,1,1.56.31.73.73,0,0,1,.71-.54.77.77,0,0,1,.73.49.78.78,0,0,1,1.48.09.83.83,0,0,1,.67-.69.94.94,0,0,1,.9.35,1,1,0,0,1,.88-.36.83.83,0,0,1,.69.66c.15-.34.35-.55.71-.54a.79.79,0,0,1,.73.49,2.65,2.65,0,0,1,.25-.3.77.77,0,0,1,.89-.09.76.76,0,0,1,.3.84,2.29,2.29,0,0,1-.79,1.12l-.46.37c.29.26.59.51.86.78a1.82,1.82,0,0,1,.51.89.85.85,0,0,1-.38.95.9.9,0,0,1-1-.11c-.05,0-.07-.11-.11-.16-.66.64-1.4.4-1.6-.26a.74.74,0,0,1-.7.52A.8.8,0,0,1,32.61,22.41ZM4.52,22.1c0,.39.16.62.41.69a.7.7,0,0,0,.75-.32l.16-.2a1.81,1.81,0,0,1,.18.21.7.7,0,0,0,.79.29.59.59,0,0,0,.36-.69,1.23,1.23,0,0,0-.11-.34,3.36,3.36,0,0,0-1.14-1.17.23.23,0,0,0-.18,0c-.26.22-.54.44-.78.68A1.45,1.45,0,0,0,4.52,22.1Zm29.41-3.41a.6.6,0,0,0-.41-.68.71.71,0,0,0-.75.32c0,.07-.11.13-.16.2a1.56,1.56,0,0,1-.16-.2.72.72,0,0,0-.79-.31.59.59,0,0,0-.37.72,1.55,1.55,0,0,0,.13.36,3.46,3.46,0,0,0,1.12,1.13.19.19,0,0,0,.16,0,9.49,9.49,0,0,0,.82-.73A1.27,1.27,0,0,0,33.93,18.69Zm-7.38,1.59a3.46,3.46,0,0,0,1.06-1,1.77,1.77,0,0,0,.25-.73.53.53,0,0,0-.61-.56.63.63,0,0,0-.56.38.93.93,0,0,1-.13.15l-.16-.15a.6.6,0,0,0-.06-.11.69.69,0,0,0-.73-.25.55.55,0,0,0-.39.57,1.47,1.47,0,0,0,.16.54A3.48,3.48,0,0,0,26.55,20.28ZM4.16,18.7c0-.4-.16-.62-.42-.69a.69.69,0,0,0-.74.32c0,.07-.12.12-.17.19s-.12-.13-.17-.2A.72.72,0,0,0,1.91,18a.56.56,0,0,0-.4.64,1.3,1.3,0,0,0,.16.48,3.28,3.28,0,0,0,1.09,1.1.18.18,0,0,0,.16,0,9.14,9.14,0,0,0,.81-.71A1.33,1.33,0,0,0,4.16,18.7ZM25,22.2a3.75,3.75,0,0,0-.19-.53,3.28,3.28,0,0,0-1.1-1.09.17.17,0,0,0-.18,0,6.75,6.75,0,0,0-.59.47,1.86,1.86,0,0,0-.63,1,.6.6,0,0,0,.38.68.72.72,0,0,0,.8-.33.84.84,0,0,1,.15-.18c.05.06.11.12.15.18a.71.71,0,0,0,.76.34A.65.65,0,0,0,25,22.2ZM8.73,20.33c.27-.23.5-.4.71-.59a2,2,0,0,0,.62-.92.64.64,0,0,0-.16-.68.56.56,0,0,0-.67-.08,1.71,1.71,0,0,0-.32.29l-.15.18-.16-.18a.08.08,0,0,0,0,0A.67.67,0,0,0,7.81,18a.56.56,0,0,0-.36.7,1.58,1.58,0,0,0,.28.6C8,19.68,8.38,20,8.73,20.33ZM16,18.69A.62.62,0,0,0,15.6,18a.72.72,0,0,0-.75.31,1.59,1.59,0,0,1-.15.21c-.06-.07-.13-.14-.18-.21a.72.72,0,0,0-.71-.32.52.52,0,0,0-.43.49,1.31,1.31,0,0,0,.14.62,3.11,3.11,0,0,0,1.1,1.12.18.18,0,0,0,.16,0c.29-.24.58-.48.84-.74A1.34,1.34,0,0,0,16,18.69Zm4.6,1.59a4.56,4.56,0,0,0,1.07-1,1.26,1.26,0,0,0,.26-.77.56.56,0,0,0-.6-.53.65.65,0,0,0-.61.41.2.2,0,0,1-.13.11s-.08-.06-.11-.1a.6.6,0,0,1-.06-.11.7.7,0,0,0-.74-.3.55.55,0,0,0-.41.57,1.58,1.58,0,0,0,.17.56A3.51,3.51,0,0,0,20.62,20.28ZM10.45,22.09c0,.51.28.76.69.7a.64.64,0,0,0,.49-.35c0-.07.1-.11.14-.17l.16.17s0,.07.06.09a.68.68,0,0,0,.75.24.57.57,0,0,0,.36-.63,1.09,1.09,0,0,0-.12-.4,3.25,3.25,0,0,0-1.13-1.17.18.18,0,0,0-.16,0c-.28.24-.57.46-.83.72A1.33,1.33,0,0,0,10.45,22.09Zm8.59,0a2.38,2.38,0,0,0-.16-.42,3.27,3.27,0,0,0-1.1-1.12.23.23,0,0,0-.18,0,7.26,7.26,0,0,0-.61.49,1.79,1.79,0,0,0-.6,1,.59.59,0,0,0,.38.69.7.7,0,0,0,.78-.32,1.39,1.39,0,0,1,.15-.19,1,1,0,0,1,.17.19.68.68,0,0,0,.76.32C18.87,22.72,19,22.49,19,22.11Zm11.86,0a1.3,1.3,0,0,0-.17-.44,4.62,4.62,0,0,0-.78-.87c-.47-.38-.27-.36-.77,0a2.47,2.47,0,0,0-.94,1.31.6.6,0,0,0,.37.66.71.71,0,0,0,.79-.31,1.51,1.51,0,0,1,.17-.2c.05.07.12.13.16.2a.69.69,0,0,0,.74.32A.63.63,0,0,0,30.9,22.12Zm3.4,0c0,.49.27.74.65.69a.64.64,0,0,0,.54-.38.29.29,0,0,1,.14-.13s.09.07.13.12l0,.07a.7.7,0,0,0,.77.31.55.55,0,0,0,.38-.63,1.29,1.29,0,0,0-.15-.47,3.19,3.19,0,0,0-1.09-1.1.19.19,0,0,0-.18,0,8.67,8.67,0,0,0-.79.69A1.38,1.38,0,0,0,34.3,22.1Zm-4.58-1.78A3.23,3.23,0,0,1,31.12,22c.18-.27.34-.57.55-.83a8.52,8.52,0,0,1,.76-.7A3.19,3.19,0,0,1,31,18.7,3,3,0,0,1,29.72,20.32Zm-3,.16A3.06,3.06,0,0,1,28,22a3.36,3.36,0,0,1,1.42-1.72,3.18,3.18,0,0,1-1.3-1.55A3.3,3.3,0,0,1,26.7,20.48ZM4.4,18.76A3.35,3.35,0,0,1,3,20.48,3.21,3.21,0,0,1,4.28,22a3.43,3.43,0,0,1,1.41-1.7A3.18,3.18,0,0,1,4.4,18.76Zm7.23,1.56a3.14,3.14,0,0,1-1.3-1.55,3.33,3.33,0,0,1-1.4,1.7,6.21,6.21,0,0,1,.75.68,6.71,6.71,0,0,1,.55.8A3.34,3.34,0,0,1,11.63,20.32Zm23.84,0a3.13,3.13,0,0,1-1.29-1.55,3.38,3.38,0,0,1-1.42,1.71A3.23,3.23,0,0,1,34.06,22,3.33,3.33,0,0,1,35.47,20.32ZM16.14,22a3.3,3.3,0,0,1,1.41-1.72,3.16,3.16,0,0,1-1.29-1.56,3.4,3.4,0,0,1-1.41,1.72A3.16,3.16,0,0,1,16.14,22Zm5.93,0a3.32,3.32,0,0,1,1.41-1.71,3.2,3.2,0,0,1-1.3-1.57,1.93,1.93,0,0,1-.56,1c-.26.25-.55.49-.82.74C21.76,21.32,21.84,21.41,22.07,22Zm1.72-1.71a3.84,3.84,0,0,1,1.35,1.46c.19-.24.36-.49.56-.71s.45-.4.68-.61A3.57,3.57,0,0,1,25,19,3.54,3.54,0,0,1,23.79,20.32Zm-5.93,0a3.79,3.79,0,0,1,1.37,1.52,3.63,3.63,0,0,1,1.23-1.37A3.67,3.67,0,0,1,19.1,19,3.54,3.54,0,0,1,17.86,20.32ZM7.37,21.85a3.52,3.52,0,0,1,1.24-1.38A3.64,3.64,0,0,1,7.24,19,3.56,3.56,0,0,1,6,20.33,3.61,3.61,0,0,1,7.37,21.85Zm5.8-2.9a3.53,3.53,0,0,1-1.24,1.38,3.7,3.7,0,0,1,1.37,1.51,3.64,3.64,0,0,1,1.24-1.37A3.54,3.54,0,0,1,13.17,19Z"/></g><path class="cls-4" d="M29.86,6.44a.9.9,0,0,1-1.59-.29.69.69,0,0,1-.7.53.77.77,0,0,1-.73-.5.78.78,0,0,1-1.39.12.86.86,0,0,1-.71.5,1,1,0,0,1-.82-.36.93.93,0,0,1-.88.35.8.8,0,0,1-.69-.66.73.73,0,0,1-.7.55.8.8,0,0,1-.75-.51.79.79,0,0,1-.65.5.7.7,0,0,1-.73-.36.85.85,0,0,1-.73.49A.91.91,0,0,1,18,6.43a1,1,0,0,1-.88.37.82.82,0,0,1-.69-.64c-.45.69-1,.71-1.46,0a.81.81,0,0,1-.64.48.71.71,0,0,1-.74-.37.86.86,0,0,1-.72.5.91.91,0,0,1-.8-.36,1,1,0,0,1-.89.36.82.82,0,0,1-.68-.63c-.43.68-1.05.69-1.45,0a.86.86,0,0,1-.67.5.74.74,0,0,1-.73-.38.82.82,0,0,1-.72.5.94.94,0,0,1-.79-.36,1,1,0,0,1-.88.36.85.85,0,0,1-.7-.66.72.72,0,0,1-.7.54.82.82,0,0,1-.74-.48,2.15,2.15,0,0,1-.23.28A.79.79,0,0,1,2,6.59a.75.75,0,0,1-.3-.85A2.27,2.27,0,0,1,2.51,4.6c.14-.13.29-.24.4-.33a12.84,12.84,0,0,1-1-1.06,1.87,1.87,0,0,1-.32-.81A.74.74,0,0,1,2,1.59a.88.88,0,0,1,1,.17l.12.12A1,1,0,0,1,4,1.52a.82.82,0,0,1,.7.66c.15-.34.35-.55.7-.54a.8.8,0,0,1,.75.51.82.82,0,0,1,.66-.5A.72.72,0,0,1,7.52,2a.83.83,0,0,1,.71-.5A.92.92,0,0,1,9,1.89a1,1,0,0,1,.88-.37.83.83,0,0,1,.69.66.73.73,0,0,1,.69-.54.8.8,0,0,1,.76.51.85.85,0,0,1,.66-.51.73.73,0,0,1,.73.38.83.83,0,0,1,.71-.5.87.87,0,0,1,.79.36c.72-.57,1.27-.47,1.6.29a.69.69,0,0,1,.7-.53.83.83,0,0,1,.74.5A.79.79,0,0,1,19.38,2a.9.9,0,0,1,1.52-.11,1,1,0,0,1,.87-.36.79.79,0,0,1,.69.67.73.73,0,0,1,.72-.55.83.83,0,0,1,.74.5A.78.78,0,0,1,25.31,2,.84.84,0,0,1,26,1.52a.91.91,0,0,1,.8.36.88.88,0,0,1,1.57.27c.43-.68,1.05-.7,1.46,0a.82.82,0,0,1,.77-.5.69.69,0,0,1,.68.57.88.88,0,0,1,1.58-.34.91.91,0,0,1,1.59.28.69.69,0,0,1,.7-.51.76.76,0,0,1,.72.49,2.49,2.49,0,0,1,.25-.29A.76.76,0,0,1,37,1.73a.74.74,0,0,1,.31.84,2.28,2.28,0,0,1-.78,1.13c-.15.13-.31.25-.49.39l.24.17a3.56,3.56,0,0,1,1,1.08,1.15,1.15,0,0,1,.16.81.84.84,0,0,1-1.4.43.75.75,0,0,1-.13-.16,1,1,0,0,1-.9.38.84.84,0,0,1-.69-.66.72.72,0,0,1-.71.54.78.78,0,0,1-.73-.5.86.86,0,0,1-.77.5c-.37,0-.58-.22-.7-.6-.11.39-.3.65-.67.71A.91.91,0,0,1,29.86,6.44Zm-25-.57a.61.61,0,0,0,.4.68A.72.72,0,0,0,6,6.22,1,1,0,0,1,6.15,6a1.24,1.24,0,0,1,.14.18.69.69,0,0,0,.8.31.58.58,0,0,0,.36-.71,1.49,1.49,0,0,0-.14-.37A3.27,3.27,0,0,0,6.2,4.34s-.13,0-.17,0A10.27,10.27,0,0,0,5.25,5,1.34,1.34,0,0,0,4.81,5.87ZM32.87,4.1a9.72,9.72,0,0,0,.92-.85,2.07,2.07,0,0,0,.4-.71A.55.55,0,0,0,34,1.88a.57.57,0,0,0-.69,0,1.33,1.33,0,0,0-.28.3,1.85,1.85,0,0,0-.14.14l-.14-.14s0,0,0-.06a.69.69,0,0,0-.79-.3.57.57,0,0,0-.36.72,1.49,1.49,0,0,0,.28.58C32.16,3.44,32.51,3.75,32.87,4.1Zm-6.09,0a3.75,3.75,0,0,0,1.11-1,1.72,1.72,0,0,0,.25-.55.57.57,0,0,0-.36-.72.66.66,0,0,0-.79.32c0,.06-.1.12-.15.18a1,1,0,0,1-.17-.19.69.69,0,0,0-.78-.32.57.57,0,0,0-.37.7,1.43,1.43,0,0,0,.27.6C26.1,3.43,26.44,3.74,26.78,4.07Zm-23.65,0c.23-.19.45-.36.66-.55a1.88,1.88,0,0,0,.62-.94.59.59,0,0,0-.17-.67.56.56,0,0,0-.67-.06,1.62,1.62,0,0,0-.32.32c0,.05-.09.13-.13.12S3,2.19,3,2.15s0,0,0-.06a.68.68,0,0,0-.76-.31.54.54,0,0,0-.39.65A1.41,1.41,0,0,0,2,2.92,3.62,3.62,0,0,0,3.13,4.05ZM22.59,6a.56.56,0,0,0,.65.6.65.65,0,0,0,.55-.4A.22.22,0,0,1,23.92,6s.09.07.13.11,0,.08.05.11a.71.71,0,0,0,.75.28A.52.52,0,0,0,25.24,6a1.43,1.43,0,0,0-.16-.58A3.22,3.22,0,0,0,24,4.34a.23.23,0,0,0-.18,0c-.29.25-.59.5-.86.78A1.21,1.21,0,0,0,22.59,6ZM9.06,4.05c.23-.19.45-.36.66-.55a1.94,1.94,0,0,0,.62-.92A.61.61,0,0,0,10,1.79a.7.7,0,0,0-.81.31A1.46,1.46,0,0,1,9,2.29c0-.07-.12-.13-.16-.2a.69.69,0,0,0-.79-.3.57.57,0,0,0-.36.7,1.48,1.48,0,0,0,.21.5A3.67,3.67,0,0,0,9.06,4.05ZM15,4a4.12,4.12,0,0,0,1.1-1,1.14,1.14,0,0,0,.23-.73.56.56,0,0,0-.58-.53.65.65,0,0,0-.62.39.2.2,0,0,1-.14.13s-.08-.07-.12-.12l-.06-.11a.69.69,0,0,0-.71-.28.54.54,0,0,0-.42.54,1.37,1.37,0,0,0,.16.58A3.36,3.36,0,0,0,15,4Zm5.9,0c.29-.24.53-.42.75-.63a1.71,1.71,0,0,0,.6-1,.57.57,0,0,0-.39-.67.7.7,0,0,0-.77.31,1.4,1.4,0,0,1-.16.2,1.56,1.56,0,0,1-.16-.2.69.69,0,0,0-.79-.3.55.55,0,0,0-.36.69,1.55,1.55,0,0,0,.28.61C20.17,3.44,20.52,3.74,20.87,4.09ZM16.66,5.84c0,.5.27.75.64.72a.66.66,0,0,0,.57-.41A.2.2,0,0,1,18,6s.08.06.11.1a.6.6,0,0,1,.06.11.7.7,0,0,0,.76.29.57.57,0,0,0,.38-.65,1.46,1.46,0,0,0-.15-.46,3.44,3.44,0,0,0-1.09-1.09.17.17,0,0,0-.17,0,12.1,12.1,0,0,0-1,.92A1.79,1.79,0,0,0,16.66,5.84ZM28.52,6a.57.57,0,0,0,.64.59.66.66,0,0,0,.57-.41A.2.2,0,0,1,29.86,6s.08.06.11.1,0,.07.05.1a.69.69,0,0,0,.77.3.57.57,0,0,0,.38-.67,1.34,1.34,0,0,0-.13-.4,3.27,3.27,0,0,0-1.12-1.13.19.19,0,0,0-.18,0,10.69,10.69,0,0,0-.8.71A1.34,1.34,0,0,0,28.52,6ZM10.74,5.86c0,.47.24.72.59.7a.66.66,0,0,0,.6-.39s.09-.13.14-.12.09.08.13.13a.25.25,0,0,1,0,.07.7.7,0,0,0,.76.29.57.57,0,0,0,.38-.65,1.26,1.26,0,0,0-.15-.45,3.28,3.28,0,0,0-1.09-1.1.19.19,0,0,0-.18,0,8.67,8.67,0,0,0-.79.69A1.28,1.28,0,0,0,10.74,5.86ZM37.26,6a2.7,2.7,0,0,0-.16-.48A3.42,3.42,0,0,0,36,4.33a.2.2,0,0,0-.18,0A6,6,0,0,0,35,5a2.27,2.27,0,0,0-.42.72.59.59,0,0,0,.31.78.7.7,0,0,0,.81-.3A1.46,1.46,0,0,1,35.9,6a1.71,1.71,0,0,1,.18.2.71.71,0,0,0,.75.31A.62.62,0,0,0,37.26,6ZM31.4,5.75A8.63,8.63,0,0,1,32,4.92a8.52,8.52,0,0,1,.76-.7,3.1,3.1,0,0,1-1.39-1.65,6.1,6.1,0,0,1-.54.82A7.53,7.53,0,0,1,30,4.1,3.13,3.13,0,0,1,31.4,5.75Zm-3.13,0a3.3,3.3,0,0,1,1.42-1.71A3.16,3.16,0,0,1,28.4,2.52,3.29,3.29,0,0,1,27,4.24,3.09,3.09,0,0,1,28.27,5.8Zm-25-1.56A3.18,3.18,0,0,1,4.56,5.79,3.38,3.38,0,0,1,6,4.08a3.16,3.16,0,0,1-1.3-1.54A3.33,3.33,0,0,1,3.27,4.24Zm32.47-.17a3.12,3.12,0,0,1-1.28-1.53,3.35,3.35,0,0,1-1.4,1.69,7.07,7.07,0,0,1,.75.68,7.32,7.32,0,0,1,.52.75,7,7,0,0,1,.58-.84A7.49,7.49,0,0,1,35.74,4.07ZM10.49,5.8a3.37,3.37,0,0,1,1.42-1.72,3.2,3.2,0,0,1-1.3-1.55A3.32,3.32,0,0,1,9.2,4.24,3.11,3.11,0,0,1,10.49,5.8Zm5.93,0a3.32,3.32,0,0,1,1.4-1.71,8.2,8.2,0,0,1-.75-.68,7.1,7.1,0,0,1-.55-.8,3.38,3.38,0,0,1-1.39,1.63A3.16,3.16,0,0,1,16.42,5.8Zm6-3.28a3.34,3.34,0,0,1-1.41,1.72,3.14,3.14,0,0,1,1.29,1.57,3.32,3.32,0,0,1,1.41-1.73A3.15,3.15,0,0,1,22.47,2.52Zm1.6,1.57A3.63,3.63,0,0,1,25.44,5.6a3.64,3.64,0,0,1,1.24-1.37,3.7,3.7,0,0,1-1.37-1.51A3.56,3.56,0,0,1,24.07,4.09Zm-5.93,0A3.7,3.7,0,0,1,19.51,5.6a3.73,3.73,0,0,1,1.24-1.37,3.7,3.7,0,0,1-1.37-1.51A3.56,3.56,0,0,1,18.14,4.09Zm-9.25.15A3.73,3.73,0,0,1,7.52,2.72,3.7,3.7,0,0,1,6.29,4.09,3.61,3.61,0,0,1,7.65,5.6,3.62,3.62,0,0,1,8.89,4.24Zm4.56-1.52a3.62,3.62,0,0,1-1.23,1.37,3.68,3.68,0,0,1,1.34,1.46c.19-.24.35-.5.56-.72a8.25,8.25,0,0,1,.69-.6A3.75,3.75,0,0,1,13.45,2.72Z"/><path class="cls-4" d="M32.81,22.61a.81.81,0,0,1-.81.5.68.68,0,0,1-.64-.56c-.4.8-.93.91-1.6.33a.94.94,0,0,1-.88.35.86.86,0,0,1-.7-.67.66.66,0,0,1-.6.55.78.78,0,0,1-.83-.5.82.82,0,0,1-.66.5.7.7,0,0,1-.73-.37.83.83,0,0,1-.72.5,1,1,0,0,1-.79-.35.91.91,0,0,1-1.59-.27.77.77,0,0,1-1.45,0,.79.79,0,0,1-.66.49.69.69,0,0,1-.71-.35c-.5.61-1,.65-1.53.12a1,1,0,0,1-.88.35.78.78,0,0,1-.68-.66.75.75,0,0,1-.72.55.82.82,0,0,1-.73-.5.79.79,0,0,1-1.4.14.88.88,0,0,1-.72.48.91.91,0,0,1-.79-.37,1,1,0,0,1-.88.36.81.81,0,0,1-.7-.64.73.73,0,0,1-.7.53A.8.8,0,0,1,9,22.61a.85.85,0,0,1-.65.5.73.73,0,0,1-.74-.37.85.85,0,0,1-.71.5,1,1,0,0,1-.81-.37.94.94,0,0,1-.89.36.87.87,0,0,1-.69-.65.71.71,0,0,1-.7.54.77.77,0,0,1-.73-.5l-.1.15a.8.8,0,0,1-.95.29.73.73,0,0,1-.38-.88A2.36,2.36,0,0,1,2.41,21l.44-.35c-.29-.27-.59-.52-.87-.8a1.57,1.57,0,0,1-.51-1A.79.79,0,0,1,1.93,18a.89.89,0,0,1,1,.17l.11.12A1,1,0,0,1,3.91,18a.8.8,0,0,1,.68.66.73.73,0,0,1,.72-.54.76.76,0,0,1,.73.51.85.85,0,0,1,.67-.51.71.71,0,0,1,.72.38A.87.87,0,0,1,8.15,18a1,1,0,0,1,.8.36.9.9,0,0,1,1.59.29.68.68,0,0,1,.69-.52.8.8,0,0,1,.75.5.81.81,0,0,1,.67-.5.68.68,0,0,1,.7.36c.5-.61,1-.66,1.53-.12a1,1,0,0,1,.88-.36.84.84,0,0,1,.7.67.7.7,0,0,1,.7-.55.8.8,0,0,1,.75.51.81.81,0,0,1,.66-.51.69.69,0,0,1,.72.38A.86.86,0,0,1,20,18a1,1,0,0,1,.8.36.89.89,0,0,1,1.58.32.72.72,0,0,1,.71-.55.8.8,0,0,1,.74.51.83.83,0,0,1,.67-.51.69.69,0,0,1,.71.36.9.9,0,0,1,1.53-.13.88.88,0,0,1,1.57.31.72.72,0,0,1,.71-.54.77.77,0,0,1,.73.49.78.78,0,0,1,1.48.08A.82.82,0,0,1,31.9,18a.92.92,0,0,1,.9.35.94.94,0,0,1,.88-.36.83.83,0,0,1,.69.65.72.72,0,0,1,.71-.53.79.79,0,0,1,.73.48,2.49,2.49,0,0,1,.25-.29.76.76,0,0,1,.89-.09.73.73,0,0,1,.29.83,2.15,2.15,0,0,1-.79,1.13c-.14.13-.3.25-.45.37.29.26.59.51.86.78a1.77,1.77,0,0,1,.51.89.86.86,0,0,1-.38.95A.9.9,0,0,1,36,23a.83.83,0,0,1-.11-.15c-.66.64-1.4.4-1.61-.27a.73.73,0,0,1-.69.53A.8.8,0,0,1,32.81,22.61ZM4.72,22.3c0,.39.16.62.41.68a.68.68,0,0,0,.75-.31c0-.07.11-.13.16-.2a1.81,1.81,0,0,1,.18.21A.69.69,0,0,0,7,23a.59.59,0,0,0,.36-.69,1.69,1.69,0,0,0-.11-.34,3.36,3.36,0,0,0-1.14-1.17.23.23,0,0,0-.18,0,8.44,8.44,0,0,0-.78.68A1.42,1.42,0,0,0,4.72,22.3Zm29.41-3.41c0-.38-.16-.61-.41-.68a.71.71,0,0,0-.75.31,1.66,1.66,0,0,1-.16.21,1.4,1.4,0,0,1-.16-.2.72.72,0,0,0-.79-.31.59.59,0,0,0-.37.72,1.55,1.55,0,0,0,.13.36,3.46,3.46,0,0,0,1.12,1.13.19.19,0,0,0,.16,0c.28-.24.57-.47.82-.73A1.32,1.32,0,0,0,34.13,18.89Zm-7.38,1.59a3.75,3.75,0,0,0,1.06-1,1.68,1.68,0,0,0,.25-.72.52.52,0,0,0-.61-.56.65.65,0,0,0-.57.38.58.58,0,0,1-.13.15l-.15-.15-.06-.11a.69.69,0,0,0-.73-.25.53.53,0,0,0-.39.57,1.52,1.52,0,0,0,.16.54A3.57,3.57,0,0,0,26.75,20.48ZM4.35,18.9c0-.4-.15-.62-.41-.69a.72.72,0,0,0-.75.31,1,1,0,0,1-.16.19,1.54,1.54,0,0,1-.17-.19.69.69,0,0,0-.75-.31.56.56,0,0,0-.4.64,1.58,1.58,0,0,0,.15.48A3.5,3.5,0,0,0,3,20.43a.18.18,0,0,0,.16,0,9.14,9.14,0,0,0,.81-.71A1.31,1.31,0,0,0,4.35,18.9ZM25.2,22.4a4.81,4.81,0,0,0-.2-.53,3.16,3.16,0,0,0-1.09-1.09.17.17,0,0,0-.18,0,6.75,6.75,0,0,0-.59.47,1.86,1.86,0,0,0-.63,1,.58.58,0,0,0,.38.67.7.7,0,0,0,.8-.32.84.84,0,0,1,.15-.18c.05.06.11.12.15.18a.69.69,0,0,0,.76.33A.66.66,0,0,0,25.2,22.4ZM8.93,20.52c.27-.22.5-.39.71-.58a1.92,1.92,0,0,0,.61-.92.62.62,0,0,0-.15-.68.56.56,0,0,0-.67-.08,1.45,1.45,0,0,0-.32.29L9,18.73l-.15-.18s0,0,0,0A.66.66,0,0,0,8,18.23a.55.55,0,0,0-.36.7,1.44,1.44,0,0,0,.28.6C8.23,19.88,8.58,20.18,8.93,20.52Zm7.28-1.63a.6.6,0,0,0-.41-.68.72.72,0,0,0-.75.31,1.46,1.46,0,0,1-.16.21,1.84,1.84,0,0,1-.17-.22A.72.72,0,0,0,14,18.2a.53.53,0,0,0-.43.49,1.35,1.35,0,0,0,.15.62,3.19,3.19,0,0,0,1.1,1.12.19.19,0,0,0,.16,0c.28-.24.58-.48.84-.74A1.32,1.32,0,0,0,16.21,18.89Zm4.61,1.59a4.18,4.18,0,0,0,1.06-1,1.1,1.1,0,0,0,.26-.76.55.55,0,0,0-.59-.53.63.63,0,0,0-.61.41.2.2,0,0,1-.13.11s-.08-.06-.11-.1a.6.6,0,0,1-.06-.11.7.7,0,0,0-.74-.3.55.55,0,0,0-.41.57,1.58,1.58,0,0,0,.17.56A3.51,3.51,0,0,0,20.82,20.48ZM10.65,22.29c0,.51.28.76.69.7a.65.65,0,0,0,.49-.36c0-.06.1-.1.14-.16l.16.17.06.09a.68.68,0,0,0,.75.24.58.58,0,0,0,.36-.63,1.09,1.09,0,0,0-.12-.4,3.25,3.25,0,0,0-1.13-1.17.21.21,0,0,0-.17,0c-.28.23-.56.46-.82.72A1.33,1.33,0,0,0,10.65,22.29Zm8.58,0a2,2,0,0,0-.15-.42A3.27,3.27,0,0,0,18,20.77a.2.2,0,0,0-.18,0,5.69,5.69,0,0,0-.61.49,1.8,1.8,0,0,0-.6,1A.58.58,0,0,0,17,23a.7.7,0,0,0,.78-.32,1.39,1.39,0,0,1,.15-.19c.05.06.12.12.17.19a.69.69,0,0,0,.76.32C19.07,22.92,19.24,22.69,19.23,22.31Zm11.87,0a1.3,1.3,0,0,0-.17-.44,4.62,4.62,0,0,0-.78-.87c-.47-.38-.27-.36-.78,0a3.65,3.65,0,0,0-.3.27,1.83,1.83,0,0,0-.63,1,.57.57,0,0,0,.37.66.69.69,0,0,0,.79-.3c0-.07.11-.13.16-.2a1.06,1.06,0,0,1,.17.2.69.69,0,0,0,.74.31A.62.62,0,0,0,31.1,22.32Zm3.4,0c0,.49.27.74.65.69a.65.65,0,0,0,.54-.39.27.27,0,0,1,.14-.12s.09.07.12.12a.25.25,0,0,1,0,.07.69.69,0,0,0,.77.31.55.55,0,0,0,.38-.63,1.41,1.41,0,0,0-.15-.48,3.25,3.25,0,0,0-1.09-1.09.17.17,0,0,0-.18,0,8.67,8.67,0,0,0-.79.69A1.28,1.28,0,0,0,34.5,22.3Zm-4.58-1.78a3.19,3.19,0,0,1,1.4,1.67,6.28,6.28,0,0,1,.55-.83,8.52,8.52,0,0,1,.76-.7,3.19,3.19,0,0,1-1.41-1.76A3,3,0,0,1,29.92,20.52Zm-3,.15a3.17,3.17,0,0,1,1.29,1.57,3.31,3.31,0,0,1,1.42-1.72A3.18,3.18,0,0,1,28.31,19,3.24,3.24,0,0,1,26.9,20.67ZM4.6,19a3.3,3.3,0,0,1-1.42,1.71,3.24,3.24,0,0,1,1.3,1.55,3.38,3.38,0,0,1,1.41-1.7A3.21,3.21,0,0,1,4.6,19Zm7.23,1.56A3.14,3.14,0,0,1,10.53,19a3.31,3.31,0,0,1-1.4,1.69,10.06,10.06,0,0,1,.75.69,6.61,6.61,0,0,1,.55.79A3.36,3.36,0,0,1,11.83,20.52Zm23.84,0A3.2,3.2,0,0,1,34.37,19,3.36,3.36,0,0,1,33,20.68a3.23,3.23,0,0,1,1.3,1.54A3.33,3.33,0,0,1,35.67,20.52ZM16.34,22.24a3.3,3.3,0,0,1,1.41-1.72A3.11,3.11,0,0,1,16.46,19a3.4,3.4,0,0,1-1.41,1.72A3.16,3.16,0,0,1,16.34,22.24Zm5.93,0a3.32,3.32,0,0,1,1.41-1.71A3.1,3.1,0,0,1,22.38,19a1.93,1.93,0,0,1-.56,1c-.26.26-.55.5-.82.75C22,21.52,22,21.61,22.27,22.23ZM24,20.52A3.84,3.84,0,0,1,25.34,22c.19-.24.36-.5.56-.71s.45-.4.68-.61a3.72,3.72,0,0,1-1.36-1.5A3.51,3.51,0,0,1,24,20.52Zm-5.93,0A3.72,3.72,0,0,1,19.43,22a3.63,3.63,0,0,1,1.23-1.37,3.77,3.77,0,0,1-1.37-1.51A3.44,3.44,0,0,1,18.06,20.52ZM7.57,22a3.56,3.56,0,0,1,1.24-1.37,3.57,3.57,0,0,1-1.37-1.51A3.56,3.56,0,0,1,6.2,20.53,3.64,3.64,0,0,1,7.57,22Zm5.79-2.89a3.5,3.5,0,0,1-1.23,1.38A3.61,3.61,0,0,1,13.49,22a3.67,3.67,0,0,1,1.25-1.37A3.63,3.63,0,0,1,13.36,19.15Z"/></g></g></svg>