<svg xmlns="http://www.w3.org/2000/svg" viewBox="0 0 38.55 24.66"><defs><style>.cls-1{isolation:isolate;}.cls-2{opacity:0.15;}.cls-2,.cls-3{mix-blend-mode:multiply;}.cls-4{fill:#fff;}</style></defs><title>convert-CUSTOMIZE-SVG-03</title><g class="cls-1"><g id="Layer_1" data-name="Layer 1"><g class="cls-2"><path d="M34.72,10a9.3,9.3,0,0,1-2.79,6.94,6.54,6.54,0,0,1-4.77,1.9,6.72,6.72,0,0,1-5-2.44A8.91,8.91,0,0,1,20,11.31a9.4,9.4,0,0,1,1.55-6.48,7,7,0,0,1,4.35-3.08,6.41,6.41,0,0,1,5.67,1.38,8.5,8.5,0,0,1,3,5.24C34.64,9,34.68,9.59,34.72,10Zm-.29,0c0-.32-.06-.85-.15-1.37a8.25,8.25,0,0,0-2.81-5.18,6.1,6.1,0,0,0-6-1.32,6.88,6.88,0,0,0-4,3.31,9.15,9.15,0,0,0-1.09,6.63,8.23,8.23,0,0,0,2.9,5,6.1,6.1,0,0,0,4.83,1.42,6.4,6.4,0,0,0,3.93-2A9.16,9.16,0,0,0,34.43,10Z"/><path d="M18.47,9.88a9.3,9.3,0,0,1-2.35,6.47,6.73,6.73,0,0,1-4.52,2.29,6.55,6.55,0,0,1-5-1.74,8.53,8.53,0,0,1-2.77-5.21,9.27,9.27,0,0,1,1.57-7A7,7,0,0,1,9.6,1.75a6.47,6.47,0,0,1,5.71,1.39,8.47,8.47,0,0,1,3,5.31C18.41,9,18.43,9.57,18.47,9.88Zm-.29,0c0-.35-.07-.92-.16-1.47a8.24,8.24,0,0,0-2.75-5A6.14,6.14,0,0,0,9.39,2.1,6.9,6.9,0,0,0,5.23,5.38a9.12,9.12,0,0,0-1.16,6.31,8.22,8.22,0,0,0,2.8,5.11,6.23,6.23,0,0,0,4.85,1.55,6.36,6.36,0,0,0,3.87-1.87A9,9,0,0,0,18.18,9.92Z"/><path d="M34.05,10a8.54,8.54,0,0,1-1.94,5.69A6.15,6.15,0,0,1,28,18a5.88,5.88,0,0,1-4.55-1.38,7.75,7.75,0,0,1-2.71-4.75,8.62,8.62,0,0,1,1-6.14,6.58,6.58,0,0,1,4-3.17,5.86,5.86,0,0,1,5.6,1.35A7.93,7.93,0,0,1,34,8.86C34,9.3,34,9.75,34.05,10Zm-1.12,3.91.13-.28a8.53,8.53,0,0,0,.59-4.78A7.48,7.48,0,0,0,31,4a5.51,5.51,0,0,0-5.61-1,6.53,6.53,0,0,0-3.69,3.42,8.44,8.44,0,0,0-.81,4.94c.06.51.2,1,.31,1.56a4.23,4.23,0,0,1,2.26-1.42l-.07-.08a4.39,4.39,0,0,1-.94-2.62.67.67,0,0,0-.18-.47,2,2,0,0,1,.85-3.23,2.59,2.59,0,0,1,1.93.24.3.3,0,0,0,.24,0,4.62,4.62,0,0,1,3.07-.08.4.4,0,0,0,.3,0,2.7,2.7,0,0,1,1.59-.42,2,2,0,0,1,1.81,1.43,2.89,2.89,0,0,1-.26,1.85.77.77,0,0,0-.08.34,4.36,4.36,0,0,1-.81,2.66c-.11.15-.24.29-.37.44A3.49,3.49,0,0,1,32.93,13.91Zm-4.16-1.67.17-.05a3.73,3.73,0,0,0,2.51-3.55.87.87,0,0,0-.17-.51,2.92,2.92,0,0,0-.82-.71,9.29,9.29,0,0,1-1-.92.41.41,0,0,0-.22-.1,1.16,1.16,0,0,1-.95-.77s-.07-.09-.11-.11a4.07,4.07,0,0,0-2.69.07.35.35,0,0,0-.14.13c-.18.23-.35.47-.54.69s-.2.17-.29.27c-.33.32-.62.68-1,1s-.6.34-.7.72c0,.08-.12.15-.11.23a4,4,0,0,0,.83,2.56,2.51,2.51,0,0,0,1,.78,4.07,4.07,0,0,1-.25-1,2,2,0,0,1,1.16-1.8,3.13,3.13,0,0,1,1.86-.23,2,2,0,0,1,1.3.72A2.15,2.15,0,0,1,28.77,12.24ZM27,12.6v0c.17,0,.34,0,.5-.05a1.53,1.53,0,0,0,1.36-1A1.85,1.85,0,0,0,28,9.45a2.48,2.48,0,0,0-2.68.19,1.52,1.52,0,0,0-.62,1.62,1.4,1.4,0,0,0,1,1.07A11.53,11.53,0,0,0,27,12.6Zm1.81.05a3.36,3.36,0,0,0-.1.58c0,.2-.07.27-.26.27h-.71l.17.19c.24.29.25.45,0,.73s-.28.24-.42,0-.29-.53-.45-.79-.27-.28-.46,0-.37.54-.57.79a.27.27,0,0,1-.22.12.86.86,0,0,1-.28-.1c0-.42.38-.68.58-1.06l-1.31.2.06-.93.79.12,0-.06a5.87,5.87,0,0,1-2-1l0,.05,3.1,4.91,3-4.39-1.11.44ZM22.64,8.24c.06-.17.23-.3.09-.47A1.06,1.06,0,0,1,23.38,6a1.84,1.84,0,0,1,1.15.16.18.18,0,0,0,.16,0c.14-.14.27-.3.41-.45a1.92,1.92,0,0,0-2.51,0A1.69,1.69,0,0,0,22.64,8.24ZM31.5,8a2,2,0,0,0-.27-2.55,2.06,2.06,0,0,0-2.65.24,5.41,5.41,0,0,0,.52.36s.16,0,.23,0a5.09,5.09,0,0,1,.5-.3,1.26,1.26,0,0,1,1.42.43,1,1,0,0,1,0,1.25c0,.05-.06.13,0,.17S31.41,7.85,31.5,8ZM22.85,15.7l.84.79c0-.42,0-.77,0-1.12,0-.19-.11-.24-.26-.14S23.06,15.53,22.85,15.7Zm7.59.15a2.23,2.23,0,0,0-.15,1.06l.59-.41Z"/><path d="M11.24,17.91a6.29,6.29,0,0,1-4.86-2.18,8,8,0,0,1-2-5A8.34,8.34,0,0,1,6,4.94a6.34,6.34,0,0,1,4.2-2.54,5.92,5.92,0,0,1,4.63,1.29A7.65,7.65,0,0,1,17.61,8.3a8.49,8.49,0,0,1-1.16,6.49,6.5,6.5,0,0,1-4.19,3C11.87,17.86,11.47,17.88,11.24,17.91ZM15.94,15c.12-.18.22-.31.3-.44A8.25,8.25,0,0,0,17.39,8.7,7.45,7.45,0,0,0,14.8,4,5.61,5.61,0,0,0,10,2.72,5.77,5.77,0,0,0,6.35,5a8.23,8.23,0,0,0-1,8.55c.11.29.28.56.42.84a2.66,2.66,0,0,1,1.85-2.62A4.14,4.14,0,0,1,6.16,8.49a.61.61,0,0,0,0-.18,5.27,5.27,0,0,1-.31-.8,1.91,1.91,0,0,1,.46-2A2.26,2.26,0,0,1,9.07,5.3a.49.49,0,0,0,.44,0,4.25,4.25,0,0,1,2.88,0,.43.43,0,0,0,.41,0,2.07,2.07,0,0,1,3.11,1,1.8,1.8,0,0,1-.36,2.06.5.5,0,0,0-.12.29,5.4,5.4,0,0,1-.31,1.74A3.4,3.4,0,0,1,14,11.9,5.44,5.44,0,0,1,15.94,15Zm-2.66-3a7.72,7.72,0,0,0,.79-.58,3.69,3.69,0,0,0,1-2.89c0-.23-.24-.45-.37-.68l-.06,0a2.09,2.09,0,0,1-.44-.25c-.32-.29-.62-.6-.94-.91a2,2,0,0,0-.26-.24,1.62,1.62,0,0,1-.61-.71.29.29,0,0,0-.14-.13,4.07,4.07,0,0,0-2.69,0,.18.18,0,0,0-.11.1,1.12,1.12,0,0,1-.91.79.53.53,0,0,0-.26.13,8.47,8.47,0,0,1-1,1,3,3,0,0,0-.67.62A1,1,0,0,0,6.46,9l0,.21a3.65,3.65,0,0,0,1.37,2.42,3.11,3.11,0,0,0,.38.25l.85.43a1.9,1.9,0,0,1-.3-1.43A1.91,1.91,0,0,1,10.14,9.1a3.2,3.2,0,0,1,2,0,1.92,1.92,0,0,1,1.18,2.81ZM8,14.28l-.32,2a.23.23,0,0,0,.09.27,5.7,5.7,0,0,0,6.17.24.22.22,0,0,0,.12-.24l-.21-1.74c0-.16,0-.32-.06-.51-.26.36-.49.38-.78.08-.09-.09-.17-.19-.26-.29a4.22,4.22,0,0,1-.21.57.44.44,0,0,1-.8.12,5.2,5.2,0,0,1-.38-.51,1.84,1.84,0,0,1-.09.25,5.12,5.12,0,0,1-.3.57.37.37,0,0,1-.64,0,2.63,2.63,0,0,1-.21-.41c-.05-.12-.09-.24-.13-.36a6.71,6.71,0,0,1-.43.58c-.29.32-.59.25-.74-.15l-.07-.23a1.05,1.05,0,0,1-.08.13c-.09.07-.19.2-.28.19s-.19-.14-.26-.23A2.12,2.12,0,0,1,8,14.28Zm3.14-5-.34,0a1.73,1.73,0,0,0-1.72,1.48,1.39,1.39,0,0,0,1.13,1.79,3.76,3.76,0,0,0,1.53,0,1.81,1.81,0,0,0,1-.43,1.54,1.54,0,0,0-.16-2.43A2.28,2.28,0,0,0,11.15,9.23ZM7.35,16.3l.06,0A25,25,0,0,0,7.85,12a1.83,1.83,0,0,0-1.29.76,3,3,0,0,0-.49,1.52,1.14,1.14,0,0,0,.36,1C6.74,15.66,7,16,7.35,16.3Zm8.43-1,0-.05a1.8,1.8,0,0,1-.08-.21,5.58,5.58,0,0,0-1.4-2.55l-.34-.29,0,0,.47,4.31.08,0Zm-.52-7.11a1.49,1.49,0,0,0,.49-1.5,1.66,1.66,0,0,0-1.32-1.41,2.06,2.06,0,0,0-1.72.43c.15.17.27.31.41.44a.19.19,0,0,0,.18,0A1.74,1.74,0,0,1,14.52,6a1.06,1.06,0,0,1,.7,1.61C15.06,7.83,15.1,8,15.26,8.19ZM6.35,8.13c.28-.25.32-.43.15-.73a.91.91,0,0,1,.06-1.08,1.29,1.29,0,0,1,1.94-.2c.05,0,.17.08.21,0a6.3,6.3,0,0,0,.53-.37,2,2,0,0,0-2.6-.22A1.89,1.89,0,0,0,6.35,8.13Zm2.42,4.33a2.7,2.7,0,0,0,4.43-.17A5.13,5.13,0,0,1,8.77,12.46Zm-.61-.21a5.91,5.91,0,0,0,.27,2.27,4.65,4.65,0,0,0,.21-.7c.07-.27.07-.28.34-.18a2.54,2.54,0,0,0,.23,1.23A3.18,3.18,0,0,0,10,13.63,4.78,4.78,0,0,1,8.16,12.25Zm5.45.14-1,.93a3.37,3.37,0,0,0,.81,1.08A5.72,5.72,0,0,0,13.61,12.39Zm-2.15,1.44c.16.26.31.54.49.78s.25.18.35,0a3.28,3.28,0,0,0,.24-1.19Zm-1.34-.11c.14.41.26.8.42,1.17.06.17.16.17.25,0a3.16,3.16,0,0,0,.39-1.06Z"/><path d="M29.75,9.22a.46.46,0,0,1-.41.5c-.23,0-.39-.22-.39-.51a.47.47,0,0,1,.4-.51A.5.5,0,0,1,29.75,9.22Z"/><path d="M24.21,9a1.78,1.78,0,0,1,.19-.36.32.32,0,0,1,.47,0,.59.59,0,0,1,0,.8.34.34,0,0,1-.57-.1A1.64,1.64,0,0,1,24.21,9Z"/><path d="M26.76,10.06h.38c.11,0,.27,0,.31.06a1.43,1.43,0,0,1,.21.49s-.05.11-.09.16-.34.33-.53.48a.26.26,0,0,0-.08.35.28.28,0,0,0,.41.08.33.33,0,0,1,.23-.06.28.28,0,0,1,.15.17c0,.05-.05.13-.09.19l0,0a.53.53,0,0,1-.82,0s-.17,0-.26,0l0,0c-.38.22-.38.21-.73-.06-.11-.08-.17-.17-.07-.3a.18.18,0,0,1,.3,0,.22.22,0,0,0,.33,0c.17-.12.2-.24.06-.4s-.33-.35-.5-.51a.24.24,0,0,1-.05-.34v0a.46.46,0,0,1,.58-.34,1.61,1.61,0,0,0,.31,0Z"/><path d="M9,9.35s0,.07,0,.12a.45.45,0,0,1-.36.37.43.43,0,0,1-.4-.33.5.5,0,0,1,0-.12.48.48,0,0,1,.37-.57C8.77,8.81,9,9,9,9.35Z"/><path d="M13.68,9.06a1.66,1.66,0,0,1-.13.32.33.33,0,0,1-.55,0,.58.58,0,0,1-.09-.58.37.37,0,0,1,.71,0C13.65,8.86,13.65,8.94,13.68,9.06Z"/><path d="M11.27,10.26l.54,0a.25.25,0,0,1,.26.13c.26.39.26.39-.07.74a2,2,0,0,0-.3.35.37.37,0,0,0,0,.33c.08.1.23.23.39.06a.21.21,0,0,1,.33,0c.11.14,0,.23-.08.32-.33.27-.33.29-.69.07a.28.28,0,0,0-.4,0,.4.4,0,0,1-.62,0h0c-.14-.08-.32-.16-.19-.36s.27-.1.4,0,.27,0,.33-.1a.32.32,0,0,0,0-.31,3.9,3.9,0,0,0-.56-.51.25.25,0,0,1-.1-.29c.12-.4.14-.43.56-.43Z"/><path d="M34.92,10.17a9.33,9.33,0,0,1-2.79,6.94A6.49,6.49,0,0,1,27.36,19a6.71,6.71,0,0,1-5-2.43,8.87,8.87,0,0,1-2.18-5.06A9.39,9.39,0,0,1,21.71,5,7,7,0,0,1,26.06,2a6.41,6.41,0,0,1,5.67,1.38,8.5,8.5,0,0,1,3,5.24C34.84,9.17,34.88,9.79,34.92,10.17Zm-.29,0c0-.32-.06-.85-.15-1.37a8.28,8.28,0,0,0-2.81-5.19,6.12,6.12,0,0,0-6-1.31,6.85,6.85,0,0,0-4,3.31,9.15,9.15,0,0,0-1.09,6.63,8.22,8.22,0,0,0,2.89,5,6.15,6.15,0,0,0,4.83,1.42,6.43,6.43,0,0,0,3.93-2.05A9.13,9.13,0,0,0,34.63,10.21Z"/><path d="M18.66,10.08a9.22,9.22,0,0,1-2.35,6.47,6.69,6.69,0,0,1-4.51,2.29A6.54,6.54,0,0,1,6.75,17.1,8.53,8.53,0,0,1,4,11.89a9.26,9.26,0,0,1,1.56-7A7,7,0,0,1,9.8,2a6.41,6.41,0,0,1,5.7,1.39,8.42,8.42,0,0,1,3,5.3C18.6,9.2,18.63,9.76,18.66,10.08Zm-.28,0c0-.34-.07-.91-.17-1.46a8.14,8.14,0,0,0-2.74-5A6.14,6.14,0,0,0,9.59,2.3,6.86,6.86,0,0,0,5.43,5.58a9.06,9.06,0,0,0-1.16,6.31A8.2,8.2,0,0,0,7.06,17a6.23,6.23,0,0,0,4.86,1.56,6.36,6.36,0,0,0,3.87-1.87A9,9,0,0,0,18.38,10.11Z"/><path d="M34.25,10.2a8.54,8.54,0,0,1-1.94,5.69,6.19,6.19,0,0,1-4.15,2.31,5.88,5.88,0,0,1-4.54-1.39,7.7,7.7,0,0,1-2.71-4.74,8.62,8.62,0,0,1,1-6.14,6.56,6.56,0,0,1,4-3.17,5.87,5.87,0,0,1,5.6,1.35,7.85,7.85,0,0,1,2.6,4.94C34.21,9.5,34.23,10,34.25,10.2Zm-1.12,3.91c.06-.13.09-.21.13-.28A8.64,8.64,0,0,0,33.85,9a7.5,7.5,0,0,0-2.63-4.82,5.51,5.51,0,0,0-5.61-1,6.46,6.46,0,0,0-3.69,3.42,8.41,8.41,0,0,0-.81,4.93c.06.52.2,1,.31,1.57a4.25,4.25,0,0,1,2.25-1.42l-.06-.09A4.22,4.22,0,0,1,22.67,9a.67.67,0,0,0-.18-.46,2,2,0,0,1,.85-3.23,2.52,2.52,0,0,1,1.92.24.32.32,0,0,0,.25,0,4.5,4.5,0,0,1,3.07-.08.45.45,0,0,0,.3,0A2.7,2.7,0,0,1,30.47,5a2,2,0,0,1,1.8,1.43A2.9,2.9,0,0,1,32,8.28a.77.77,0,0,0-.08.34,4.42,4.42,0,0,1-.81,2.66c-.11.15-.24.29-.37.44A3.51,3.51,0,0,1,33.13,14.11ZM29,12.44l.17-.06a3.74,3.74,0,0,0,2.51-3.55.81.81,0,0,0-.18-.5,2.61,2.61,0,0,0-.81-.71,9.35,9.35,0,0,1-1-.92.41.41,0,0,0-.22-.1,1.16,1.16,0,0,1-.95-.78.21.21,0,0,0-.11-.1,4,4,0,0,0-2.7.07c-.05,0-.09.08-.13.13-.18.23-.35.47-.54.69a3.58,3.58,0,0,1-.29.26,12.68,12.68,0,0,1-1,1c-.27.22-.6.35-.7.73,0,.08-.12.15-.12.23a4,4,0,0,0,.84,2.56,2.51,2.51,0,0,0,1,.78,4.07,4.07,0,0,1-.25-1,1.94,1.94,0,0,1,1.16-1.8,3.13,3.13,0,0,1,1.86-.23,2,2,0,0,1,1.3.71A2.19,2.19,0,0,1,29,12.44Zm-1.79.36v0l.5,0a1.52,1.52,0,0,0,1.35-1,1.84,1.84,0,0,0-.82-2.07,2.48,2.48,0,0,0-2.68.19,1.52,1.52,0,0,0-.62,1.62,1.38,1.38,0,0,0,1,1.07C26.3,12.66,26.74,12.71,27.18,12.8Zm1.81,0a3.36,3.36,0,0,0-.1.58c0,.2-.07.27-.26.26h-.71l.17.19c.24.29.25.45,0,.73s-.28.23-.42,0-.29-.53-.45-.79-.27-.28-.46,0-.37.53-.57.79a.35.35,0,0,1-.22.12,1,1,0,0,1-.29-.1c0-.42.39-.68.59-1.06l-1.31.2.06-.93.79.12,0-.06a5.78,5.78,0,0,1-2-1l0,0,3.1,4.91,3-4.4-1.1.45ZM22.84,8.44c.06-.17.23-.3.09-.48a1.06,1.06,0,0,1,.64-1.75,1.76,1.76,0,0,1,1.15.16.2.2,0,0,0,.17,0c.14-.14.27-.3.41-.45a1.93,1.93,0,0,0-2.51,0A1.69,1.69,0,0,0,22.84,8.44Zm8.86-.23a2,2,0,0,0-.27-2.55,2.06,2.06,0,0,0-2.65.24,5.16,5.16,0,0,0,.51.35.3.3,0,0,0,.24,0,5.09,5.09,0,0,1,.5-.3,1.26,1.26,0,0,1,1.42.43,1,1,0,0,1,0,1.25s-.06.13,0,.17A4.29,4.29,0,0,0,31.7,8.21ZM23.05,15.9l.84.79c0-.42,0-.77,0-1.12s-.11-.25-.27-.14S23.26,15.73,23.05,15.9Zm7.59.14a2.29,2.29,0,0,0-.15,1.07l.58-.41Z"/><path d="M11.44,18.11a6.31,6.31,0,0,1-4.87-2.18,8,8,0,0,1-2-5A8.31,8.31,0,0,1,6.22,5.14a6.31,6.31,0,0,1,4.2-2.54,5.92,5.92,0,0,1,4.63,1.29,7.62,7.62,0,0,1,2.76,4.6A8.48,8.48,0,0,1,16.65,15a6.46,6.46,0,0,1-4.19,3A9.24,9.24,0,0,1,11.44,18.11Zm4.7-2.88c.12-.18.22-.31.3-.45A8.27,8.27,0,0,0,17.59,8.9,7.43,7.43,0,0,0,15,4.22a5.59,5.59,0,0,0-4.75-1.3A5.77,5.77,0,0,0,6.55,5.2a8.23,8.23,0,0,0-1,8.55,9.3,9.3,0,0,0,.41.84A2.68,2.68,0,0,1,7.78,12,4.15,4.15,0,0,1,6.35,8.69a.41.41,0,0,0,0-.18A6.08,6.08,0,0,1,6,7.7a1.9,1.9,0,0,1,.46-2A2.26,2.26,0,0,1,9.27,5.5a.47.47,0,0,0,.43,0,4.34,4.34,0,0,1,2.89,0,.41.41,0,0,0,.4,0,2.07,2.07,0,0,1,3.12,1,1.82,1.82,0,0,1-.36,2.06.5.5,0,0,0-.12.29,5.4,5.4,0,0,1-.31,1.74,3.4,3.4,0,0,1-1.14,1.56A5.49,5.49,0,0,1,16.14,15.23Zm-2.66-3a7.53,7.53,0,0,0,.78-.58,3.67,3.67,0,0,0,1.06-2.89c0-.23-.24-.45-.37-.68l-.06,0a2.09,2.09,0,0,1-.44-.25c-.32-.29-.63-.61-.94-.91a1.48,1.48,0,0,0-.26-.24,1.71,1.71,0,0,1-.62-.71.24.24,0,0,0-.13-.13,4.07,4.07,0,0,0-2.69,0,.2.2,0,0,0-.11.11,1.13,1.13,0,0,1-.91.79.53.53,0,0,0-.26.13,8.47,8.47,0,0,1-1,1,3.35,3.35,0,0,0-.68.62,1,1,0,0,0-.18.76l0,.2a3.67,3.67,0,0,0,1.37,2.43,3,3,0,0,0,.38.24l.85.43A1.88,1.88,0,0,1,9,11.07,1.91,1.91,0,0,1,10.34,9.3a3.17,3.17,0,0,1,1.95,0,1.93,1.93,0,0,1,1.19,2.81ZM8.21,14.47l-.32,2a.23.23,0,0,0,.09.27,5.74,5.74,0,0,0,6.17.24.22.22,0,0,0,.12-.24c-.08-.58-.14-1.16-.21-1.74,0-.16,0-.32-.06-.51-.27.36-.49.38-.78.08-.09-.09-.17-.2-.26-.29a4.79,4.79,0,0,1-.21.57A.44.44,0,0,1,12,15a5.2,5.2,0,0,1-.38-.51l-.09.24a3.56,3.56,0,0,1-.31.58.36.36,0,0,1-.63,0,2.27,2.27,0,0,1-.21-.41c-.05-.12-.09-.24-.13-.37-.15.21-.28.42-.43.59S9.18,15.38,9,15L9,14.75a1.05,1.05,0,0,1-.08.13c-.09.07-.19.2-.29.19s-.19-.14-.25-.24A1.63,1.63,0,0,1,8.21,14.47Zm3.14-5H11a1.75,1.75,0,0,0-1.72,1.49,1.39,1.39,0,0,0,1.13,1.79,3.76,3.76,0,0,0,1.53,0,1.92,1.92,0,0,0,1-.43,1.54,1.54,0,0,0-.16-2.43A2.22,2.22,0,0,0,11.35,9.43ZM7.55,16.5l.06,0a25,25,0,0,0,.44-4.24A1.79,1.79,0,0,0,6.76,13a3.15,3.15,0,0,0-.5,1.52,1.2,1.2,0,0,0,.36,1.05C6.94,15.86,7.24,16.19,7.55,16.5Zm8.43-1-.05-.05a1.45,1.45,0,0,1-.09-.22,5.48,5.48,0,0,0-1.39-2.54l-.34-.29,0,0,.48,4.31.08,0Zm-.52-7.11A1.5,1.5,0,0,0,16,6.89a1.66,1.66,0,0,0-1.32-1.41,2.05,2.05,0,0,0-1.72.43c.15.17.27.31.4.44a.21.21,0,0,0,.19,0,1.79,1.79,0,0,1,1.22-.18,1.06,1.06,0,0,1,.69,1.62A.42.42,0,0,0,15.46,8.39ZM6.55,8.33a.49.49,0,0,0,.14-.73.93.93,0,0,1,.07-1.09A1.3,1.3,0,0,1,8.7,6.32a.28.28,0,0,0,.21,0A5.82,5.82,0,0,0,9.44,6a2,2,0,0,0-2.6-.21A1.89,1.89,0,0,0,6.55,8.33ZM9,12.66a2.7,2.7,0,0,0,4.43-.17A5.13,5.13,0,0,1,9,12.66Zm-.62-.22a6.35,6.35,0,0,0,.27,2.28A3.64,3.64,0,0,0,8.84,14c.07-.26.06-.27.33-.17a2.7,2.7,0,0,0,.24,1.23,3,3,0,0,0,.77-1.24A4.85,4.85,0,0,1,8.35,12.44Zm5.46.15-1,.92a3.16,3.16,0,0,0,.81,1.09A5.74,5.74,0,0,0,13.81,12.59ZM11.66,14c.16.26.31.53.49.78s.25.18.35,0a3.51,3.51,0,0,0,.24-1.2Zm-1.35-.11c.15.41.27.8.42,1.17.07.17.16.17.26,0a3.24,3.24,0,0,0,.39-1.06Z"/><path d="M30,9.42a.47.47,0,0,1-.41.5.45.45,0,0,1-.39-.51.47.47,0,0,1,.4-.51A.5.5,0,0,1,30,9.42Z"/><path d="M24.41,9.18a1.44,1.44,0,0,1,.19-.37.32.32,0,0,1,.47,0,.6.6,0,0,1,0,.8.34.34,0,0,1-.57-.1A1.87,1.87,0,0,1,24.41,9.18Z"/><path d="M27,10.26h.38c.11,0,.27,0,.31.06a1.65,1.65,0,0,1,.21.49s-.05.11-.09.15-.35.34-.53.49a.25.25,0,0,0-.08.35.28.28,0,0,0,.41.08.33.33,0,0,1,.23-.06c.06,0,.13.1.15.17s-.05.12-.09.19l0,0a.53.53,0,0,1-.82,0c-.05,0-.17,0-.26,0l0,0c-.38.22-.38.21-.73-.06-.12-.09-.17-.17-.08-.3a.19.19,0,0,1,.31,0,.22.22,0,0,0,.33,0c.17-.12.2-.25.06-.4s-.33-.35-.5-.51a.24.24,0,0,1-.05-.34v0a.45.45,0,0,1,.57-.34,1.71,1.71,0,0,0,.32,0Z"/><path d="M9.15,9.55v.12a.46.46,0,0,1-.36.37.43.43,0,0,1-.4-.33.5.5,0,0,1,0-.12A.47.47,0,0,1,8.74,9C9,9,9.15,9.22,9.15,9.55Z"/><path d="M13.88,9.26a1.66,1.66,0,0,1-.13.32.34.34,0,0,1-.56,0A.61.61,0,0,1,13.1,9a.37.37,0,0,1,.35-.29.35.35,0,0,1,.36.26A2.83,2.83,0,0,1,13.88,9.26Z"/><path d="M11.47,10.46l.54,0a.23.23,0,0,1,.25.13c.27.39.27.39-.06.74a2,2,0,0,0-.3.35.37.37,0,0,0,0,.33c.08.09.22.23.39.06a.2.2,0,0,1,.33,0c.11.14,0,.23-.08.32-.33.27-.33.28-.69.07a.29.29,0,0,0-.41,0,.39.39,0,0,1-.61,0h0c-.14-.08-.32-.16-.19-.36s.27-.1.4,0,.27,0,.33-.1a.34.34,0,0,0,0-.31,5.37,5.37,0,0,0-.56-.51.25.25,0,0,1-.1-.29c.12-.4.14-.43.56-.43Z"/></g><g class="cls-3"><path d="M34.58,9.83a9.33,9.33,0,0,1-2.79,6.94A6.49,6.49,0,0,1,27,18.66a6.71,6.71,0,0,1-5-2.43,8.87,8.87,0,0,1-2.18-5.06,9.39,9.39,0,0,1,1.55-6.48,7,7,0,0,1,4.35-3.08A6.41,6.41,0,0,1,31.39,3a8.5,8.5,0,0,1,3,5.24C34.5,8.83,34.54,9.45,34.58,9.83Zm-.29,0c0-.32-.06-.85-.15-1.37a8.28,8.28,0,0,0-2.81-5.19,6.12,6.12,0,0,0-6-1.31,6.85,6.85,0,0,0-4,3.31,9.14,9.14,0,0,0-1.09,6.62,8.22,8.22,0,0,0,2.89,5A6.15,6.15,0,0,0,28,18.33a6.43,6.43,0,0,0,3.93-2A9.13,9.13,0,0,0,34.29,9.87Z"/><path d="M18.32,9.74A9.24,9.24,0,0,1,16,16.21a6.69,6.69,0,0,1-4.51,2.29,6.52,6.52,0,0,1-5.05-1.74,8.53,8.53,0,0,1-2.77-5.21,9.26,9.26,0,0,1,1.56-7A7,7,0,0,1,9.46,1.61,6.44,6.44,0,0,1,15.16,3a8.46,8.46,0,0,1,3,5.31C18.26,8.86,18.29,9.42,18.32,9.74Zm-.28,0c0-.34-.07-.91-.17-1.46a8.14,8.14,0,0,0-2.74-5A6.14,6.14,0,0,0,9.25,2,6.86,6.86,0,0,0,5.09,5.24a9.06,9.06,0,0,0-1.16,6.31,8.2,8.2,0,0,0,2.79,5.1,6.23,6.23,0,0,0,4.86,1.56,6.44,6.44,0,0,0,3.87-1.87A9,9,0,0,0,18,9.77Z"/><path d="M33.91,9.86A8.59,8.59,0,0,1,32,15.55a6.19,6.19,0,0,1-4.15,2.31,5.88,5.88,0,0,1-4.54-1.39,7.7,7.7,0,0,1-2.71-4.74,8.62,8.62,0,0,1,1-6.14,6.56,6.56,0,0,1,4-3.17,5.87,5.87,0,0,1,5.6,1.35,7.85,7.85,0,0,1,2.6,4.94C33.87,9.16,33.89,9.61,33.91,9.86Zm-1.12,3.91c.06-.13.09-.21.13-.28a8.64,8.64,0,0,0,.59-4.79,7.5,7.5,0,0,0-2.63-4.82,5.51,5.51,0,0,0-5.61-1,6.46,6.46,0,0,0-3.69,3.42,8.41,8.41,0,0,0-.81,4.93c.06.52.2,1,.31,1.57a4.25,4.25,0,0,1,2.25-1.42l-.06-.09a4.22,4.22,0,0,1-.94-2.62.63.63,0,0,0-.19-.46A2,2,0,0,1,23,4.93a2.52,2.52,0,0,1,1.92.24.32.32,0,0,0,.25,0,4.5,4.5,0,0,1,3.07-.08.45.45,0,0,0,.3,0,2.7,2.7,0,0,1,1.59-.42,2,2,0,0,1,1.8,1.43,2.9,2.9,0,0,1-.25,1.85.77.77,0,0,0-.08.34,4.42,4.42,0,0,1-.81,2.66c-.11.15-.24.29-.37.44A3.51,3.51,0,0,1,32.79,13.77ZM28.63,12.1,28.8,12a3.74,3.74,0,0,0,2.51-3.55.81.81,0,0,0-.18-.5,2.61,2.61,0,0,0-.81-.71,9.35,9.35,0,0,1-1-.92.41.41,0,0,0-.22-.1,1.19,1.19,0,0,1-1-.78.17.17,0,0,0-.1-.1,4,4,0,0,0-2.7.07c-.05,0-.09.08-.13.13-.18.23-.35.47-.54.69a3.58,3.58,0,0,1-.29.26,11.2,11.2,0,0,1-1,1c-.26.22-.59.35-.69.73,0,.08-.12.15-.12.22A4,4,0,0,0,23.46,11a2.51,2.51,0,0,0,1,.78,4.2,4.2,0,0,1-.25-1A1.94,1.94,0,0,1,25.41,9a3.13,3.13,0,0,1,1.86-.23,2,2,0,0,1,1.3.71A2.19,2.19,0,0,1,28.63,12.1Zm-1.79.36v0l.5-.05a1.52,1.52,0,0,0,1.35-1,1.84,1.84,0,0,0-.82-2.07,2.48,2.48,0,0,0-2.68.19,1.52,1.52,0,0,0-.62,1.62,1.38,1.38,0,0,0,1,1.07C26,12.32,26.4,12.37,26.84,12.46Zm1.81,0a3.36,3.36,0,0,0-.1.58c0,.2-.07.27-.26.26h-.71l.17.19a.49.49,0,0,1,0,.73c-.17.24-.28.23-.42,0s-.29-.53-.45-.79-.27-.28-.46,0-.37.53-.57.79a.35.35,0,0,1-.22.12,1,1,0,0,1-.29-.1c0-.42.39-.68.59-1.06l-1.31.2.06-.93.79.12,0-.06a5.78,5.78,0,0,1-2-1l0,0,3.1,4.91,3-4.4-1.1.45ZM22.5,8.1c.06-.17.23-.3.09-.48a1.06,1.06,0,0,1,.64-1.75A1.76,1.76,0,0,1,24.38,6a.2.2,0,0,0,.17,0c.14-.14.27-.3.41-.45a2,2,0,0,0-2.52,0A1.7,1.7,0,0,0,22.5,8.1Zm8.86-.23a2,2,0,0,0-.27-2.55,2.06,2.06,0,0,0-2.65.24c.17.12.34.25.51.35a.3.3,0,0,0,.24,0,5.09,5.09,0,0,1,.5-.3A1.26,1.26,0,0,1,31.11,6a1,1,0,0,1,0,1.25s-.06.13,0,.17A4.29,4.29,0,0,0,31.36,7.87Zm-8.65,7.69.84.79c0-.42,0-.77,0-1.12s-.11-.25-.27-.14S22.92,15.39,22.71,15.56Zm7.59.14a2.29,2.29,0,0,0-.15,1.07l.58-.41Z"/><path d="M11.1,17.77a6.31,6.31,0,0,1-4.87-2.18,8,8,0,0,1-2-5A8.31,8.31,0,0,1,5.88,4.8a6.28,6.28,0,0,1,4.2-2.54,5.92,5.92,0,0,1,4.63,1.29,7.62,7.62,0,0,1,2.76,4.6,8.48,8.48,0,0,1-1.16,6.49,6.46,6.46,0,0,1-4.19,3A9.24,9.24,0,0,1,11.1,17.77Zm4.7-2.88c.12-.18.22-.31.3-.45a8.27,8.27,0,0,0,1.15-5.88,7.43,7.43,0,0,0-2.6-4.68A5.59,5.59,0,0,0,9.9,2.58,5.77,5.77,0,0,0,6.21,4.86a8.23,8.23,0,0,0-1,8.55,9.3,9.3,0,0,0,.41.84,2.68,2.68,0,0,1,1.86-2.62A4.15,4.15,0,0,1,6,8.35a.41.41,0,0,0,0-.18,6.08,6.08,0,0,1-.3-.81,1.9,1.9,0,0,1,.46-2,2.26,2.26,0,0,1,2.81-.23.47.47,0,0,0,.43,0,4.34,4.34,0,0,1,2.89,0,.41.41,0,0,0,.4,0,2.07,2.07,0,0,1,3.12,1,1.82,1.82,0,0,1-.36,2.06.5.5,0,0,0-.12.29A5.4,5.4,0,0,1,15,10.2a3.4,3.4,0,0,1-1.14,1.56A5.49,5.49,0,0,1,15.8,14.89Zm-2.66-3a7.53,7.53,0,0,0,.78-.58A3.67,3.67,0,0,0,15,8.41c0-.23-.24-.46-.37-.68l-.06,0a2.09,2.09,0,0,1-.44-.25c-.32-.29-.63-.61-.94-.91a1.48,1.48,0,0,0-.26-.24,1.71,1.71,0,0,1-.62-.71.24.24,0,0,0-.13-.13,4.07,4.07,0,0,0-2.69,0,.2.2,0,0,0-.11.11,1.13,1.13,0,0,1-.91.79.53.53,0,0,0-.26.13,8.47,8.47,0,0,1-1,1,3.35,3.35,0,0,0-.68.62,1,1,0,0,0-.18.75l0,.21a3.67,3.67,0,0,0,1.37,2.43,3,3,0,0,0,.38.24l.85.43a1.9,1.9,0,0,1-.3-1.43A1.91,1.91,0,0,1,10,9,3.17,3.17,0,0,1,12,9a1.93,1.93,0,0,1,1.19,2.81ZM7.87,14.13l-.32,2a.23.23,0,0,0,.09.27,5.74,5.74,0,0,0,6.17.24.22.22,0,0,0,.12-.24c-.08-.58-.14-1.16-.21-1.74,0-.16,0-.32-.06-.51-.27.36-.49.38-.78.08-.09-.09-.17-.2-.26-.29a4.79,4.79,0,0,1-.21.57.44.44,0,0,1-.8.12,5.2,5.2,0,0,1-.38-.51l-.09.24a3.56,3.56,0,0,1-.31.58.36.36,0,0,1-.63,0,2.27,2.27,0,0,1-.21-.41c-.05-.12-.09-.24-.13-.37-.15.21-.28.42-.43.59-.29.32-.59.25-.74-.15l-.07-.23a1.05,1.05,0,0,1-.08.13c-.09.07-.2.2-.29.19s-.19-.14-.25-.24A1.63,1.63,0,0,1,7.87,14.13Zm3.14-5h-.34A1.75,1.75,0,0,0,9,10.59a1.39,1.39,0,0,0,1.13,1.79,3.76,3.76,0,0,0,1.53,0,1.92,1.92,0,0,0,1-.43,1.54,1.54,0,0,0-.16-2.43A2.22,2.22,0,0,0,11,9.09Zm-3.8,7.07.06,0a25,25,0,0,0,.44-4.24,1.79,1.79,0,0,0-1.29.76,3.15,3.15,0,0,0-.5,1.52,1.2,1.2,0,0,0,.36,1.05C6.6,15.52,6.9,15.85,7.21,16.16Zm8.43-1-.05-.05a1.45,1.45,0,0,1-.09-.22,5.48,5.48,0,0,0-1.39-2.54l-.34-.29,0,0,.48,4.3.08,0Zm-.52-7.11a1.5,1.5,0,0,0,.49-1.5,1.66,1.66,0,0,0-1.32-1.41,2.05,2.05,0,0,0-1.72.43c.15.16.27.31.4.44a.21.21,0,0,0,.19,0,1.79,1.79,0,0,1,1.22-.18,1.06,1.06,0,0,1,.69,1.62A.42.42,0,0,0,15.12,8.05ZM6.21,8a.49.49,0,0,0,.14-.73.93.93,0,0,1,.07-1.09A1.3,1.3,0,0,1,8.36,6a.28.28,0,0,0,.21,0,5.82,5.82,0,0,0,.53-.38,2.06,2.06,0,0,0-2.61-.21A1.89,1.89,0,0,0,6.21,8Zm2.42,4.32a2.69,2.69,0,0,0,4.43-.16A5.1,5.1,0,0,1,8.63,12.31ZM8,12.1a6.35,6.35,0,0,0,.27,2.28,3.64,3.64,0,0,0,.22-.71c.07-.26.06-.27.33-.17a2.7,2.7,0,0,0,.24,1.23,3,3,0,0,0,.77-1.24A4.85,4.85,0,0,1,8,12.1Zm5.46.15-1,.92a3.33,3.33,0,0,0,.82,1.09A5.74,5.74,0,0,0,13.47,12.25Zm-2.15,1.44c.16.26.31.53.48.78s.26.18.36,0a3.51,3.51,0,0,0,.24-1.2ZM10,13.58c.15.41.27.8.42,1.17.07.17.16.17.26,0A3.24,3.24,0,0,0,11,13.71Z"/><path d="M29.61,9.08a.47.47,0,0,1-.41.5.45.45,0,0,1-.39-.51.47.47,0,0,1,.4-.51A.5.5,0,0,1,29.61,9.08Z"/><path d="M24.07,8.84a1.44,1.44,0,0,1,.19-.37.32.32,0,0,1,.47,0,.6.6,0,0,1,0,.8.34.34,0,0,1-.57-.1A1.87,1.87,0,0,1,24.07,8.84Z"/><path d="M26.62,9.92H27c.11,0,.27,0,.31.05a1.83,1.83,0,0,1,.21.5s-.05.11-.09.15-.35.34-.53.49a.25.25,0,0,0-.08.35.28.28,0,0,0,.41.08.41.41,0,0,1,.23-.07.3.3,0,0,1,.15.18s-.05.12-.09.19l0,0a.53.53,0,0,1-.82,0c-.05,0-.17,0-.26,0l0,0c-.38.22-.38.21-.73-.06-.12-.09-.17-.17-.08-.3a.19.19,0,0,1,.31,0,.22.22,0,0,0,.33,0c.17-.12.2-.25.06-.4s-.33-.35-.5-.51a.24.24,0,0,1-.05-.34v0a.45.45,0,0,1,.57-.34,1.71,1.71,0,0,0,.32,0Z"/><path d="M8.81,9.21a.62.62,0,0,1,0,.12.45.45,0,0,1-.35.37.43.43,0,0,1-.4-.33.5.5,0,0,1,0-.12.47.47,0,0,1,.37-.57C8.63,8.67,8.81,8.88,8.81,9.21Z"/><path d="M13.54,8.92a1.66,1.66,0,0,1-.13.32.34.34,0,0,1-.56,0,.61.61,0,0,1-.09-.58.37.37,0,0,1,.35-.29.35.35,0,0,1,.36.26A2.83,2.83,0,0,1,13.54,8.92Z"/><path d="M11.13,10.12l.53,0a.24.24,0,0,1,.26.13c.26.39.27.39-.06.74a2,2,0,0,0-.3.35.37.37,0,0,0,0,.33c.08.09.22.23.39.06a.2.2,0,0,1,.33,0c.11.14,0,.23-.08.32-.33.27-.33.28-.69.07a.29.29,0,0,0-.41,0,.39.39,0,0,1-.61,0s0,0,0,0-.32-.16-.19-.36.27-.1.4,0,.27,0,.33-.1a.34.34,0,0,0,0-.31,5.37,5.37,0,0,0-.56-.51.25.25,0,0,1-.1-.29c.12-.4.14-.43.56-.43Z"/></g><path class="cls-4" d="M34.78,10A9.33,9.33,0,0,1,32,17a6.49,6.49,0,0,1-4.77,1.89,6.74,6.74,0,0,1-5-2.43A8.87,8.87,0,0,1,20,11.36a9.36,9.36,0,0,1,1.55-6.48,7.06,7.06,0,0,1,4.35-3.07,6.36,6.36,0,0,1,5.66,1.38,8.46,8.46,0,0,1,3,5.24C34.7,9,34.73,9.65,34.78,10Zm-.29,0c0-.33-.06-.86-.15-1.38a8.33,8.33,0,0,0-2.81-5.18,6.09,6.09,0,0,0-6-1.31,6.92,6.92,0,0,0-4,3.3,9.22,9.22,0,0,0-1.08,6.63,8.17,8.17,0,0,0,2.89,5,6.19,6.19,0,0,0,4.83,1.42,6.39,6.39,0,0,0,3.93-2.06A9.13,9.13,0,0,0,34.49,10.07Z"/><path class="cls-4" d="M18.52,9.94a9.29,9.29,0,0,1-2.35,6.47,6.71,6.71,0,0,1-4.51,2.29,6.52,6.52,0,0,1-5-1.74,8.42,8.42,0,0,1-2.77-5.22,9.24,9.24,0,0,1,1.56-7A7,7,0,0,1,9.65,1.81a6.45,6.45,0,0,1,5.71,1.38,8.46,8.46,0,0,1,3,5.31C18.46,9.06,18.49,9.62,18.52,9.94Zm-.28,0c0-.34-.07-.91-.17-1.46a8.17,8.17,0,0,0-2.74-5A6.17,6.17,0,0,0,9.45,2.15,6.91,6.91,0,0,0,5.29,5.44a9,9,0,0,0-1.16,6.31,8.23,8.23,0,0,0,2.79,5.1,6.22,6.22,0,0,0,4.86,1.55,6.37,6.37,0,0,0,3.87-1.86A9,9,0,0,0,18.24,10Z"/><path class="cls-4" d="M34.11,10.06a8.59,8.59,0,0,1-1.94,5.69A6.21,6.21,0,0,1,28,18.06a5.88,5.88,0,0,1-4.54-1.39,7.76,7.76,0,0,1-2.72-4.74,8.67,8.67,0,0,1,1-6.14,6.56,6.56,0,0,1,4-3.17A5.84,5.84,0,0,1,31.39,4,7.79,7.79,0,0,1,34,8.91C34.07,9.36,34.09,9.81,34.11,10.06ZM33,14l.14-.28a8.6,8.6,0,0,0,.59-4.78,7.47,7.47,0,0,0-2.64-4.82A5.49,5.49,0,0,0,25.47,3a6.48,6.48,0,0,0-3.7,3.42,8.47,8.47,0,0,0-.8,4.93c.06.51.2,1,.31,1.57a4.25,4.25,0,0,1,2.25-1.42.7.7,0,0,0-.06-.09,4.24,4.24,0,0,1-.94-2.62.63.63,0,0,0-.19-.46,2,2,0,0,1,.86-3.23,2.48,2.48,0,0,1,1.92.24.32.32,0,0,0,.25,0,4.53,4.53,0,0,1,3.06-.09.42.42,0,0,0,.31,0,2.7,2.7,0,0,1,1.59-.42,2,2,0,0,1,1.8,1.42,2.86,2.86,0,0,1-.26,1.86.93.93,0,0,0-.07.33A4.45,4.45,0,0,1,31,11.14l-.37.44A3.48,3.48,0,0,1,33,14ZM28.83,12.3l.17-.06a3.72,3.72,0,0,0,2.5-3.55.8.8,0,0,0-.17-.5,2.7,2.7,0,0,0-.82-.72,10.26,10.26,0,0,1-1-.91.4.4,0,0,0-.22-.1,1.17,1.17,0,0,1-1-.78.17.17,0,0,0-.1-.1,4,4,0,0,0-2.7.06c-.05,0-.09.09-.13.14-.18.23-.35.47-.54.69a3.73,3.73,0,0,1-.3.26,11.1,11.1,0,0,1-1,1c-.26.22-.59.35-.69.72,0,.09-.12.16-.12.23a3.94,3.94,0,0,0,.84,2.56,2.54,2.54,0,0,0,1,.79,3.75,3.75,0,0,1-.25-1,1.93,1.93,0,0,1,1.16-1.8A3.05,3.05,0,0,1,27.47,9a2,2,0,0,1,1.3.71A2.19,2.19,0,0,1,28.83,12.3ZM27,12.66v0l.5-.06a1.49,1.49,0,0,0,1.35-1,1.83,1.83,0,0,0-.82-2.06,2.48,2.48,0,0,0-2.68.19,1.49,1.49,0,0,0-.62,1.62,1.4,1.4,0,0,0,1,1.07C26.16,12.52,26.6,12.57,27,12.66Zm1.81.05a3.21,3.21,0,0,0-.1.58c0,.2-.08.27-.26.26h-.71c.06.08.12.13.16.19.24.29.25.44,0,.73s-.28.23-.43,0-.28-.53-.44-.79-.27-.28-.47,0-.36.53-.56.79a.35.35,0,0,1-.22.12.91.91,0,0,1-.29-.1c0-.43.39-.68.59-1.07l-1.31.21.06-.93.79.11V12.7a5.82,5.82,0,0,1-2-1l0,.05,3.1,4.91,3-4.4-1.11.45ZM22.69,8.29c.07-.16.24-.29.1-.47a1.06,1.06,0,0,1,.64-1.75,1.75,1.75,0,0,1,1.15.15.17.17,0,0,0,.17,0c.14-.14.27-.3.4-.45a1.94,1.94,0,0,0-2.51,0A1.69,1.69,0,0,0,22.69,8.29Zm8.86-.23a2,2,0,0,0-.26-2.54,2,2,0,0,0-2.65.24,5.76,5.76,0,0,0,.51.35c.06,0,.17,0,.24,0a5.09,5.09,0,0,1,.5-.3,1.26,1.26,0,0,1,1.42.43,1,1,0,0,1,0,1.25.22.22,0,0,0,0,.17C31.37,7.77,31.46,7.9,31.55,8.06Zm-8.64,7.7.84.78c0-.42,0-.77,0-1.11s-.11-.25-.27-.14A7,7,0,0,0,22.91,15.76Zm7.59.14A2.43,2.43,0,0,0,30.34,17l.59-.41Z"/><path class="cls-4" d="M11.3,18a6.34,6.34,0,0,1-4.87-2.18,8.1,8.1,0,0,1-2-5A8.32,8.32,0,0,1,6.08,5a6.28,6.28,0,0,1,4.2-2.54,5.88,5.88,0,0,1,4.63,1.29,7.64,7.64,0,0,1,2.76,4.6,8.48,8.48,0,0,1-1.16,6.49,6.46,6.46,0,0,1-4.19,3A9.57,9.57,0,0,1,11.3,18ZM16,15.08c.12-.17.22-.3.3-.44a8.27,8.27,0,0,0,1.15-5.88,7.46,7.46,0,0,0-2.6-4.69A5.62,5.62,0,0,0,10.1,2.78,5.81,5.81,0,0,0,6.4,5.06a8.23,8.23,0,0,0-1,8.54,9.3,9.3,0,0,0,.41.84,2.67,2.67,0,0,1,1.86-2.61A4.16,4.16,0,0,1,6.21,8.54a.48.48,0,0,0,0-.17,7.94,7.94,0,0,1-.31-.81,1.94,1.94,0,0,1,.47-2,2.27,2.27,0,0,1,2.81-.22.47.47,0,0,0,.43,0,4.25,4.25,0,0,1,2.88,0,.43.43,0,0,0,.41,0A2.07,2.07,0,0,1,16,6.31a1.82,1.82,0,0,1-.36,2.06.45.45,0,0,0-.12.29,5.4,5.4,0,0,1-.31,1.74A3.37,3.37,0,0,1,14,12,5.52,5.52,0,0,1,16,15.08Zm-2.66-3a9.32,9.32,0,0,0,.78-.58,3.71,3.71,0,0,0,1.06-2.89c0-.23-.24-.46-.37-.68,0,0,0,0-.06,0a2.09,2.09,0,0,1-.44-.25c-.33-.29-.63-.61-.94-.91a1.89,1.89,0,0,0-.26-.24,1.77,1.77,0,0,1-.62-.71.24.24,0,0,0-.13-.13,4,4,0,0,0-2.69,0,.2.2,0,0,0-.11.11,1.13,1.13,0,0,1-.91.79.46.46,0,0,0-.26.13,8.58,8.58,0,0,1-1,1,3.27,3.27,0,0,0-.67.62A1,1,0,0,0,6.52,9a1.52,1.52,0,0,0,0,.21,3.67,3.67,0,0,0,1.37,2.43,2.45,2.45,0,0,0,.38.24l.85.43a1.86,1.86,0,0,1-.3-1.43A1.93,1.93,0,0,1,10.2,9.15a3.32,3.32,0,0,1,2,0A1.94,1.94,0,0,1,13.34,12S13.34,12,13.34,12.08ZM8.07,14.33l-.32,2a.22.22,0,0,0,.09.27,5.74,5.74,0,0,0,6.17.24.22.22,0,0,0,.12-.24c-.08-.58-.14-1.16-.21-1.74,0-.16,0-.32-.07-.51-.26.36-.49.38-.78.08a3.61,3.61,0,0,1-.25-.3c-.07.21-.13.4-.21.58a.44.44,0,0,1-.8.12,5.2,5.2,0,0,1-.38-.51q0,.14-.09.24a3.56,3.56,0,0,1-.31.58.36.36,0,0,1-.63,0,2.27,2.27,0,0,1-.21-.41c0-.12-.09-.24-.13-.37a7,7,0,0,1-.44.59c-.28.32-.58.25-.73-.16a1.63,1.63,0,0,1-.07-.23.75.75,0,0,1-.08.14c-.09.07-.2.19-.29.19s-.19-.14-.25-.24A1.63,1.63,0,0,1,8.07,14.33Zm3.14-5h-.34a1.73,1.73,0,0,0-1.72,1.49,1.39,1.39,0,0,0,1.12,1.79,3.94,3.94,0,0,0,1.53,0,2,2,0,0,0,1-.43,1.55,1.55,0,0,0-.16-2.44A2.29,2.29,0,0,0,11.21,9.29ZM7.4,16.36l.07,0a27.21,27.21,0,0,0,.44-4.25,1.82,1.82,0,0,0-1.29.76,3.23,3.23,0,0,0-.5,1.53,1.18,1.18,0,0,0,.36,1.05C6.8,15.72,7.1,16,7.4,16.36Zm8.44-1-.05,0a1.45,1.45,0,0,1-.09-.22,5.44,5.44,0,0,0-1.39-2.54L14,12.26l0,0,.48,4.3.08,0Zm-.53-7.11a1.44,1.44,0,0,0,.49-1.49,1.65,1.65,0,0,0-1.31-1.41,2,2,0,0,0-1.72.43c.15.16.27.31.4.44a.21.21,0,0,0,.19,0,1.79,1.79,0,0,1,1.22-.18,1.06,1.06,0,0,1,.69,1.61A.42.42,0,0,0,15.31,8.24Zm-8.9-.05a.49.49,0,0,0,.14-.73.93.93,0,0,1,.07-1.09,1.27,1.27,0,0,1,1.93-.19.31.31,0,0,0,.22.05c.18-.11.35-.25.53-.38a2.07,2.07,0,0,0-2.61-.22A1.91,1.91,0,0,0,6.41,8.19Zm2.42,4.32a2.69,2.69,0,0,0,4.42-.16A5.08,5.08,0,0,1,8.83,12.51Zm-.62-.21a6,6,0,0,0,.27,2.28,3.64,3.64,0,0,0,.22-.71c.07-.27.06-.27.33-.17a2.7,2.7,0,0,0,.24,1.23A3.16,3.16,0,0,0,10,13.69,4.85,4.85,0,0,1,8.21,12.3Zm5.46.15-1,.92a3.33,3.33,0,0,0,.82,1.09A6,6,0,0,0,13.67,12.45Zm-2.15,1.44c.16.26.3.53.48.78s.25.18.35,0a3.3,3.3,0,0,0,.25-1.2Zm-1.35-.11c.15.41.27.79.42,1.17.07.17.16.17.26,0a3.24,3.24,0,0,0,.39-1.06Z"/><path class="cls-4" d="M29.8,9.28a.41.41,0,1,1-.8,0,.41.41,0,1,1,.8,0Z"/><path class="cls-4" d="M24.26,9a2.16,2.16,0,0,1,.2-.36.31.31,0,0,1,.46,0,.6.6,0,0,1,0,.8.35.35,0,0,1-.58-.1A2.94,2.94,0,0,1,24.26,9Z"/><path class="cls-4" d="M26.82,10.12h.38c.11,0,.27,0,.31.05a1.83,1.83,0,0,1,.21.5s0,.11-.09.15-.35.33-.53.49a.25.25,0,0,0-.08.35.28.28,0,0,0,.41.07c.07,0,.16-.08.22-.06a.29.29,0,0,1,.16.18c0,.05-.06.12-.09.18s0,0,0,0a.53.53,0,0,1-.82,0c-.05,0-.17,0-.26,0l0,0c-.37.21-.37.21-.73-.06-.11-.09-.16-.18-.07-.3a.18.18,0,0,1,.31,0,.22.22,0,0,0,.33,0c.17-.12.2-.25.06-.4s-.33-.35-.5-.51a.23.23,0,0,1,0-.34v0c.1-.26.27-.42.57-.34a1.71,1.71,0,0,0,.32,0Z"/><path class="cls-4" d="M9,9.41a.62.62,0,0,1,0,.12.42.42,0,0,1-.36.36.4.4,0,0,1-.39-.32l0-.12a.47.47,0,0,1,.37-.57C8.83,8.87,9,9.08,9,9.41Z"/><path class="cls-4" d="M13.74,9.12a2.69,2.69,0,0,1-.13.32.34.34,0,0,1-.56,0A.56.56,0,0,1,13,8.87a.37.37,0,0,1,.35-.29.35.35,0,0,1,.36.26A2.83,2.83,0,0,1,13.74,9.12Z"/><path class="cls-4" d="M11.33,10.32l.53,0a.25.25,0,0,1,.26.12c.26.4.27.4-.06.75a2,2,0,0,0-.31.35c-.05.09-.09.27,0,.33s.23.23.4.06.22-.13.32,0,0,.22-.07.32c-.33.27-.33.28-.69.06a.3.3,0,0,0-.41.05.39.39,0,0,1-.61,0h0c-.14-.09-.32-.16-.19-.37s.27-.09.39,0,.27,0,.33-.1a.31.31,0,0,0,0-.31,5.37,5.37,0,0,0-.56-.51.24.24,0,0,1-.1-.29c.12-.41.14-.43.56-.43Z"/></g></g></svg>