<svg xmlns="http://www.w3.org/2000/svg" viewBox="0 0 38.55 24.66"><defs><style>.cls-1{isolation:isolate;}.cls-2{opacity:0.15;}.cls-2,.cls-3{mix-blend-mode:multiply;}.cls-4{fill:#fff;}</style></defs><title>convert-CUSTOMIZE-SVG-03</title><g class="cls-1"><g id="Layer_1" data-name="Layer 1"><g class="cls-2"><path d="M12.61,12.73a1.18,1.18,0,0,0,.08.16,4.17,4.17,0,0,1,.6,1.52.41.41,0,0,0,.26.33A1,1,0,0,0,15,14.35c.19-.25.38-.5.58-.74a1.2,1.2,0,0,1,2,.14,3.27,3.27,0,0,1,.54,2.48,1.46,1.46,0,0,1-1.3,1.26c-.58.09-1.16.16-1.74.2a13.23,13.23,0,0,1-2,0,1.3,1.3,0,0,0-.94.28,2.9,2.9,0,0,1-1.78.6.27.27,0,0,0-.18.12c-.12.12-.2.28-.33.39a.26.26,0,0,0-.08.33A3.76,3.76,0,0,0,10,20a1.8,1.8,0,0,1-.57,2.61,1.46,1.46,0,0,1-1.44.1A2.33,2.33,0,0,1,7,21.85a1.8,1.8,0,0,1-.29-1.13,18.26,18.26,0,0,1,.42-3,.86.86,0,0,0,0-.27.69.69,0,0,0-.08-.32,3.8,3.8,0,0,1-.49-1.34c-.08-.39-.12-.78-.19-1.17a.51.51,0,0,0-.18-.26A.57.57,0,0,0,6,14.22a6,6,0,0,1-2.46-1.65c-.52-.5-1-1-1.5-1.58a1.88,1.88,0,0,1-.37-.6A1,1,0,0,1,2.73,9c.14,0,.27.05.44.07A1.88,1.88,0,0,1,3.13,7a1.86,1.86,0,0,1,1.93-.71,5.65,5.65,0,0,0,0-2.09c-.19.13-.41.24-.59.39s0,.17,0,.26A.65.65,0,0,1,4,5.43a.69.69,0,0,1-.77-.26.62.62,0,0,1,0-.75,2.26,2.26,0,0,1,.4-.25A1.18,1.18,0,0,0,3.92,4c.1-.11.14-.26.25-.36L5.56,2.33A.32.32,0,0,1,6,2.3,2.1,2.1,0,0,1,7,3.45a3.37,3.37,0,0,0,.4.68,3,3,0,0,0,.32.45,6.82,6.82,0,0,0,.58.49s.09,0,.14,0a2.17,2.17,0,0,1,2,.82,1.5,1.5,0,0,1,.22.83.63.63,0,0,0,.1.32,2.69,2.69,0,0,1,.59,1.39c.17-.17.43-.3.44-.45,0-.36.31-.45.53-.57A2.72,2.72,0,0,1,13,7.24V5.69H15a4.27,4.27,0,0,0-1.38,1.92l.49.23,1-2h0V9.64h-1A6.54,6.54,0,0,1,12.61,12.73Zm-2.33,5.61.08,0h.13a3.14,3.14,0,0,0,1.85-.83.85.85,0,0,0,.16-.17,4.34,4.34,0,0,0,.62-2.19,4.59,4.59,0,0,0-1.64-3.34.37.37,0,0,0-.21-.09c-.54-.11-1.07-.23-1.62-.3a.71.71,0,0,0-.66.18,4.63,4.63,0,0,0-.39.59c-.11.21-.2.44-.31.65a1.11,1.11,0,0,1-.22.21c-.06-.08-.14-.15-.2-.22l-.18-.28-.05,0c.08.18.18.36.25.54a2.45,2.45,0,0,1,.18,1.44.56.56,0,0,1-.65.5,1.64,1.64,0,0,1-.51-.22,1.5,1.5,0,0,1-.24-.2,5.94,5.94,0,0,0,.57,2.27c.08-.17.13-.31.2-.44a1.83,1.83,0,0,1,.23-.38A.56.56,0,0,1,8.48,16a6.82,6.82,0,0,1,1,.82A2.15,2.15,0,0,1,10.28,18.34Zm-.39-8.12a1.57,1.57,0,0,0,.55-.22,1.92,1.92,0,0,0,.62-1.79,2.49,2.49,0,0,0-1.14-1.6,4.53,4.53,0,0,0-2-.76,3.71,3.71,0,0,0-2.34.74c-.05,0-.08.12-.11.19-.12.23-.25.49-.54.48a.45.45,0,0,0-.42.24c-.08.12-.15.24-.22.36a.65.65,0,0,0-.05.65.74.74,0,0,1-.1.89c-.09.1,0,.18.06.23A11.64,11.64,0,0,1,6.7,11.42a1.59,1.59,0,0,1,.3-.14L8.23,11a3.8,3.8,0,0,0,.38-.17l-.08,0A2,2,0,0,1,6.78,8.53,2,2,0,0,1,9.36,7.05c.06,0,.17.07.19,0s.23,0,.29,0a4.5,4.5,0,0,1,.3.42A1.76,1.76,0,0,1,10,10.12S9.94,10.15,9.89,10.22Zm-3,10.56c-.13.49.22.84.66,1.15a2,2,0,0,0,1.92.27A.78.78,0,0,0,9.81,22a1.5,1.5,0,0,0,0-1.78,4.22,4.22,0,0,1-.37-.81A.3.3,0,0,1,9.6,19a1,1,0,0,0,.21-1.43,4.29,4.29,0,0,0-1.29-1.29c-.39-.25-.56-.21-.78.19a2.81,2.81,0,0,0-.22.5c-.07.26-.13.52-.19.78A18.58,18.58,0,0,0,6.91,20.78Zm-5-11.21a1.57,1.57,0,0,0-.07.53,2,2,0,0,0,.35.71c.72.76,1.46,1.51,2.23,2.23a3.88,3.88,0,0,0,1.16.76,5,5,0,0,1,1.57.93.38.38,0,0,0,.67-.24,2.18,2.18,0,0,0,0-.51,3.13,3.13,0,0,0-.54-1.43,7.25,7.25,0,0,0-2-2,.2.2,0,0,0-.17,0A2.53,2.53,0,0,1,2.41,10Zm14.85,7.69a5.1,5.1,0,0,1-.26-.7,6.1,6.1,0,0,1,0-2.37c.06-.29.15-.57.53-.64l-.11-.07a.87.87,0,0,0-1,.19c-.28.31-.52.64-.78,1a1.14,1.14,0,0,1-1.19.46L13.37,15a4.64,4.64,0,0,1-.65,2.54A21.51,21.51,0,0,0,16.76,17.26ZM7,8.72a2.42,2.42,0,0,0,.74,1.51,1.06,1.06,0,0,0,1.11.2,4.07,4.07,0,0,0,.92-.49A1.46,1.46,0,0,0,10,7.79a1.47,1.47,0,0,0-1.55-.58A1.87,1.87,0,0,0,7.08,8.37,2,2,0,0,0,7,8.72Zm4.24.54-.4.7.2,0a3.21,3.21,0,0,1,.24.72,2.67,2.67,0,0,0,.52,1.07,6.09,6.09,0,0,0,.53.61c.08.1.17.1.24,0a3.08,3.08,0,0,0,.42-.47,8.5,8.5,0,0,0,.86-2,.85.85,0,0,0,0-.22c-.21,0-.21,0-.27.13a.57.57,0,0,1-.11.22c-.6.48-1.33.66-1.9-.12A6.67,6.67,0,0,1,11.25,9.26ZM7.48,4.69a4.18,4.18,0,0,1-.29-.38,3.16,3.16,0,0,1-.45-.77,2,2,0,0,0-.84-1,.21.21,0,0,0-.19,0c-.17.23-.49.39-.35.76a.48.48,0,0,1,0,.17c0,.61,0,1.23,0,1.87A8.2,8.2,0,0,0,7.48,4.69ZM4.7,6.49a1.62,1.62,0,0,0-1.51.88A1.87,1.87,0,0,0,3.53,9.1s.07.08.11.09.22.08.29,0A.33.33,0,0,0,4.09,9,1.42,1.42,0,0,0,4,8.52c0-.15-.12-.29-.16-.44A.84.84,0,0,1,4.79,7a.39.39,0,0,0,.4-.2c.11-.17.09-.22-.12-.27S4.78,6.5,4.7,6.49Zm5.69.13A1.63,1.63,0,0,0,8.53,5.29c-.2,0-.32.12-.3.34a1.57,1.57,0,0,0,.86.08A.53.53,0,0,1,9.74,6C9.86,6.34,10.14,6.43,10.39,6.62Zm-.81,4.52.67-.16.67-.17c.15,0,.16-.09.06-.2a.44.44,0,0,1-.1-.22c0-.13-.07-.18-.19-.14a7.43,7.43,0,0,0-.94.32C9.4,10.73,9.4,10.75,9.58,11.14ZM4.28,4.37c.17-.1.33-.22.5-.3a.49.49,0,0,0,.32-.49c0-.14,0-.29,0-.43L5,3.13c-.31.36-.79.58-.94,1.1Zm2.88,7.2.12.31,1.28-.34-.16-.35Zm1.33.26L7.87,12a.88.88,0,0,0-.22.1,1.59,1.59,0,0,0,.14.26,3.11,3.11,0,0,0,.33.29Zm1.69-.58v.06l1.14.18a3.61,3.61,0,0,0-.2-.36.2.2,0,0,0-.18-.07Zm-1-.31-.58.11.15.37a2.36,2.36,0,0,1,.26-.14l.26-.08s0-.07,0-.1S9.24,11,9.22,10.94Z"/><path d="M16.8,8.5c.2,0,.33-.07.3-.29a.89.89,0,0,1,0-.28,1.68,1.68,0,0,0-.43-1.48c-.22-.27-.46-.53-.65-.76H18V9.63H15.7V5.82l.29.31A2.3,2.3,0,0,1,16.78,8,3.62,3.62,0,0,0,16.8,8.5Z"/><path d="M15.52,5.4a1.88,1.88,0,0,1,1-1.19c.12-.06.21-.07.3,0l.42.35c.1.09.11.18,0,.26a13,13,0,0,1-1.43.76,1.2,1.2,0,0,1-.81-.05,10.52,10.52,0,0,1-1.28-.69c-.15-.08-.16-.19,0-.3a5.32,5.32,0,0,1,.46-.37.36.36,0,0,1,.25,0A1.54,1.54,0,0,1,15.52,5.4Z"/><path d="M4.18,17a.56.56,0,0,1-.57.53.54.54,0,0,1-.54-.56.53.53,0,0,1,.55-.52A.56.56,0,0,1,4.18,17Z"/><path d="M1.65,6.15a.55.55,0,0,1,.56.54.55.55,0,0,1-.55.55.56.56,0,0,1-.57-.54A.57.57,0,0,1,1.65,6.15Z"/><path d="M17.76,19.94a.54.54,0,1,1,0-1.08.57.57,0,0,1,.58.53A.56.56,0,0,1,17.76,19.94Z"/><path d="M11.87,21.17a.53.53,0,0,1,.54.55.56.56,0,0,1-1.11,0A.54.54,0,0,1,11.87,21.17Z"/><path d="M16,9.83a.54.54,0,0,1,.56.54.55.55,0,0,1-.57.53.54.54,0,0,1-.54-.54A.52.52,0,0,1,16,9.83Z"/><path d="M13.94,13.11a.54.54,0,1,1,0,1.08.54.54,0,1,1,0-1.08Z"/><path d="M12.06,4.26a.54.54,0,0,1-.56.54A.55.55,0,0,1,11,4.26a.54.54,0,0,1,.55-.54A.53.53,0,0,1,12.06,4.26Z"/><path d="M14.73,18.83a.4.4,0,0,1-.39.4.39.39,0,1,1,0-.77A.38.38,0,0,1,14.73,18.83Z"/><path d="M1.64,13.65a.38.38,0,0,1,.41.37.4.4,0,0,1-.79,0A.37.37,0,0,1,1.64,13.65Z"/><path d="M17.62,1.6A.4.4,0,0,1,18,2a.42.42,0,0,1-.41.4.39.39,0,1,1,0-.77Z"/><path d="M2.78,21.12a.39.39,0,0,1-.39-.39.4.4,0,0,1,.39-.39.42.42,0,0,1,.41.4A.41.41,0,0,1,2.78,21.12Z"/><path d="M16,3.26a.41.41,0,0,1-.41.38.39.39,0,1,1,0-.77A.4.4,0,0,1,16,3.26Z"/><path d="M17.34,21.92a.41.41,0,0,1-.39.4.4.4,0,0,1-.41-.38.39.39,0,0,1,.4-.4A.4.4,0,0,1,17.34,21.92Z"/><path d="M9.16,2a.41.41,0,0,1,.41.38.39.39,0,0,1-.4.4.39.39,0,0,1-.39-.38A.4.4,0,0,1,9.16,2Z"/><path d="M18.07,12.35a.39.39,0,0,1-.4-.38.4.4,0,0,1,.41-.39.38.38,0,0,1,.38.39A.39.39,0,0,1,18.07,12.35Z"/><path d="M2.86,3.26a.39.39,0,0,1-.4.38.39.39,0,1,1,.4-.38Z"/><path d="M6.65,8.26a.34.34,0,0,1-.32.37.41.41,0,0,1-.4-.41.38.38,0,0,1,.34-.37A.41.41,0,0,1,6.65,8.26Z"/><path d="M8.43,17.51a3.4,3.4,0,0,1,.12-.38c.07-.13.18-.13.27,0a.85.85,0,0,1,0,.79c-.09.13-.2.13-.27,0A2.11,2.11,0,0,1,8.43,17.51Z"/><path d="M8.13,7.75c.28-.08.56-.18.84-.24a.36.36,0,0,1,.44.5c-.06.19-.19.35-.1.57a.31.31,0,0,0,.39.21,1,1,0,0,1,.34,0l-.3.55-.51-.25-.06.05c-.29.39-.29.39-.76.25l-.24-.08c.11-.27.16-.31.42-.26s.28-.14.35-.27a.31.31,0,0,0-.16-.38L8.44,8.3C8.09,8.16,8.09,8.16,8.13,7.75Z"/><path d="M12.8,12.93l.09.16a4.17,4.17,0,0,1,.6,1.52.38.38,0,0,0,.26.32,1,1,0,0,0,1.43-.38c.18-.25.38-.51.58-.75a1.2,1.2,0,0,1,2,.15,3.35,3.35,0,0,1,.54,2.48A1.46,1.46,0,0,1,17,17.69c-.58.09-1.16.16-1.74.2a13.23,13.23,0,0,1-2,.05,1.26,1.26,0,0,0-.94.28,2.9,2.9,0,0,1-1.78.6.34.34,0,0,0-.19.11,2.47,2.47,0,0,1-.32.39.27.27,0,0,0-.08.34,4.32,4.32,0,0,0,.3.56,1.81,1.81,0,0,1-.57,2.61,1.48,1.48,0,0,1-1.44.1,2.41,2.41,0,0,1-1.09-.88,1.86,1.86,0,0,1-.28-1.13,18.11,18.11,0,0,1,.42-3,1.28,1.28,0,0,0,0-.27.66.66,0,0,0-.08-.32A3.87,3.87,0,0,1,6.76,16c-.08-.39-.12-.79-.2-1.17a.5.5,0,0,0-.17-.26.61.61,0,0,0-.23-.11,6,6,0,0,1-2.45-1.65c-.52-.5-1-1-1.5-1.58a1.82,1.82,0,0,1-.37-.61A1,1,0,0,1,2.92,9.2c.14,0,.28.05.44.07a1.89,1.89,0,0,1,0-2.08,1.84,1.84,0,0,1,1.93-.71,5.65,5.65,0,0,0,0-2.09,5.58,5.58,0,0,0-.6.39s0,.17,0,.26a.65.65,0,0,1-.46.59.68.68,0,0,1-.77-.26.6.6,0,0,1,0-.75,2.26,2.26,0,0,1,.4-.25,1.18,1.18,0,0,0,.28-.22,2.9,2.9,0,0,1,.25-.36c.46-.43.93-.84,1.39-1.26a.32.32,0,0,1,.43,0,2.12,2.12,0,0,1,1,1.14,2.82,2.82,0,0,0,.4.69,2.07,2.07,0,0,0,.32.44,5.47,5.47,0,0,0,.58.5s.09,0,.14,0a2.2,2.2,0,0,1,2,.83,1.49,1.49,0,0,1,.22.82.58.58,0,0,0,.1.32,2.76,2.76,0,0,1,.59,1.39c.17-.16.43-.29.44-.44,0-.36.3-.45.53-.57a2.31,2.31,0,0,1,.64-.16V5.88h2.08A4.32,4.32,0,0,0,13.86,7.8l.49.24,1-2h0V9.84h-1A6.55,6.55,0,0,1,12.8,12.93Zm-2.32,5.61.08,0h.13a3.14,3.14,0,0,0,1.85-.83.59.59,0,0,0,.15-.17,4.26,4.26,0,0,0,.63-2.2A4.58,4.58,0,0,0,11.68,12a.4.4,0,0,0-.21-.09c-.54-.11-1.07-.23-1.62-.3a.71.71,0,0,0-.66.18,4.63,4.63,0,0,0-.39.59c-.12.21-.2.44-.32.65s-.14.14-.21.21c-.06-.08-.14-.15-.2-.23s-.12-.18-.18-.28l0,0c.08.18.18.35.25.54a2.45,2.45,0,0,1,.18,1.44.55.55,0,0,1-.65.49,1.42,1.42,0,0,1-.51-.21,1.5,1.5,0,0,1-.24-.2,5.94,5.94,0,0,0,.57,2.27c.08-.17.13-.31.2-.44a1.83,1.83,0,0,1,.23-.38.55.55,0,0,1,.8-.15A6.44,6.44,0,0,1,9.72,17,2.13,2.13,0,0,1,10.48,18.54Zm-.39-8.12c.22-.09.43-.1.54-.22a1.88,1.88,0,0,0,.62-1.8,2.45,2.45,0,0,0-1.13-1.59,4.58,4.58,0,0,0-2-.76,3.71,3.71,0,0,0-2.34.74s-.08.12-.12.18c-.12.23-.25.49-.53.49a.44.44,0,0,0-.42.24c-.08.12-.15.23-.22.36a.63.63,0,0,0,0,.65.74.74,0,0,1-.1.89c-.1.1,0,.17.06.23A11.3,11.3,0,0,1,6.9,11.62a1.59,1.59,0,0,1,.3-.14c.41-.12.82-.21,1.23-.32A3.8,3.8,0,0,0,8.81,11l-.08,0A2,2,0,0,1,7,8.73,2,2,0,0,1,9.56,7.25c.06,0,.17.07.19,0s.23,0,.29,0,.19.29.29.42a1.77,1.77,0,0,1-.16,2.57S10.14,10.35,10.09,10.42ZM7.11,21c-.13.49.22.84.66,1.15a2,2,0,0,0,1.92.27.87.87,0,0,0,.32-.25,1.5,1.5,0,0,0,0-1.78,4.71,4.71,0,0,1-.38-.82.31.31,0,0,1,.14-.36,1,1,0,0,0,.2-1.43,4.15,4.15,0,0,0-1.28-1.29c-.39-.25-.56-.22-.78.18a2.91,2.91,0,0,0-.22.51c-.07.25-.14.51-.19.78A18.58,18.58,0,0,0,7.11,21Zm-5-11.21A1.57,1.57,0,0,0,2,10.3a2,2,0,0,0,.35.71c.72.76,1.46,1.51,2.23,2.22A3.7,3.7,0,0,0,5.78,14a5,5,0,0,1,1.57.94A.38.38,0,0,0,8,14.69a2.18,2.18,0,0,0,0-.51,3.25,3.25,0,0,0-.54-1.43,7.39,7.39,0,0,0-2-2,.25.25,0,0,0-.17,0,2.52,2.52,0,0,1-2.7-.55C2.46,10.06,2.31,9.94,2.11,9.77ZM17,17.46a5.1,5.1,0,0,1-.26-.7,6.15,6.15,0,0,1,0-2.38.65.65,0,0,1,.53-.63l-.11-.07a.87.87,0,0,0-1,.19c-.28.31-.53.64-.78,1a1.14,1.14,0,0,1-1.19.46l-.52-.15a4.66,4.66,0,0,1-.66,2.55A21.57,21.57,0,0,0,17,17.46ZM7.21,8.92A2.37,2.37,0,0,0,8,10.43a1.06,1.06,0,0,0,1.1.2,4.34,4.34,0,0,0,.93-.49A1.46,1.46,0,0,0,10.18,8a1.45,1.45,0,0,0-1.54-.58A1.84,1.84,0,0,0,7.28,8.57,2,2,0,0,0,7.21,8.92Zm4.24.54-.4.7h.2a3.58,3.58,0,0,1,.24.72A2.65,2.65,0,0,0,12,12a5.88,5.88,0,0,0,.52.6c.09.11.17.11.25,0a2.32,2.32,0,0,0,.41-.48,7.93,7.93,0,0,0,.87-2,1.66,1.66,0,0,0,0-.22c-.21,0-.2,0-.26.13a.52.52,0,0,1-.12.22,1.19,1.19,0,0,1-1.89-.12A6.67,6.67,0,0,1,11.45,9.46ZM7.67,4.89c-.08-.11-.19-.24-.28-.38a3.57,3.57,0,0,1-.46-.77,1.91,1.91,0,0,0-.83-1s-.17,0-.19,0c-.17.23-.49.38-.35.76,0,0,0,.11,0,.16,0,.62,0,1.24.05,1.88C6.31,5.28,7.05,5.34,7.67,4.89ZM4.9,6.69a1.62,1.62,0,0,0-1.51.88A1.84,1.84,0,0,0,3.73,9.3s.06.08.11.09.22.08.29,0a.35.35,0,0,0,.16-.26,1.44,1.44,0,0,0-.09-.45c0-.15-.11-.29-.15-.44A.84.84,0,0,1,5,7.21.37.37,0,0,0,5.38,7c.12-.17.1-.23-.11-.27S5,6.7,4.9,6.69Zm5.69.13A1.65,1.65,0,0,0,8.73,5.48c-.2,0-.32.12-.3.34a1.48,1.48,0,0,0,.86.08.55.55,0,0,1,.65.32C10.06,6.54,10.34,6.63,10.59,6.82Zm-.81,4.52.67-.16.67-.17c.15,0,.16-.09.06-.2a.44.44,0,0,1-.1-.22c0-.13-.07-.18-.19-.14a7.43,7.43,0,0,0-.94.32C9.59,10.93,9.6,11,9.78,11.34ZM4.48,4.57c.17-.1.33-.22.5-.3a.47.47,0,0,0,.31-.49V3.35l-.07,0c-.32.36-.79.58-.94,1.1Zm2.88,7.2.12.31,1.28-.34-.16-.35ZM8.69,12c-.24.06-.43.1-.62.16a1.45,1.45,0,0,0-.22.09,1.15,1.15,0,0,0,.14.27,2.36,2.36,0,0,0,.33.29Zm1.69-.58v.06l1.15.18a2.75,2.75,0,0,0-.2-.36.21.21,0,0,0-.18-.07C10.89,11.31,10.64,11.38,10.38,11.45Zm-1-.31-.58.11.15.36.25-.13.26-.08a.16.16,0,0,0,0-.1A.76.76,0,0,0,9.42,11.14Z"/><path d="M17,8.7c.2,0,.33-.07.3-.29a.89.89,0,0,1,0-.28,1.68,1.68,0,0,0-.43-1.48l-.65-.76h1.9V9.83H15.9V6l.29.32A2.29,2.29,0,0,1,17,8.23,3.7,3.7,0,0,0,17,8.7Z"/><path d="M15.72,5.6a1.86,1.86,0,0,1,1-1.19.22.22,0,0,1,.3,0l.42.36c.1.09.11.18,0,.25A10.33,10.33,0,0,1,16,5.8a1.14,1.14,0,0,1-.81,0,12.11,12.11,0,0,1-1.28-.69c-.15-.08-.16-.19,0-.3a5.32,5.32,0,0,1,.46-.37.35.35,0,0,1,.25,0A1.56,1.56,0,0,1,15.72,5.6Z"/><path d="M4.38,17.15a.57.57,0,0,1-.58.54.55.55,0,1,1,0-1.09A.56.56,0,0,1,4.38,17.15Z"/><path d="M1.85,6.35a.54.54,0,1,1,0,1.08.56.56,0,0,1-.56-.54A.56.56,0,0,1,1.85,6.35Z"/><path d="M18,20.14a.54.54,0,1,1,.55-.56A.56.56,0,0,1,18,20.14Z"/><path d="M12.06,21.37a.54.54,0,1,1-.56.53A.54.54,0,0,1,12.06,21.37Z"/><path d="M16.23,10a.53.53,0,0,1,.55.54.56.56,0,0,1-1.11,0A.52.52,0,0,1,16.23,10Z"/><path d="M14.14,13.3a.57.57,0,0,1,.56.55.56.56,0,0,1-1.12,0A.57.57,0,0,1,14.14,13.3Z"/><path d="M12.26,4.46a.55.55,0,0,1-1.1,0,.55.55,0,0,1,1.1,0Z"/><path d="M14.92,19a.38.38,0,0,1-.38.4.4.4,0,0,1-.41-.39.4.4,0,0,1,.39-.39A.39.39,0,0,1,14.92,19Z"/><path d="M1.84,13.85a.38.38,0,0,1,.41.36.39.39,0,0,1-.4.4.38.38,0,0,1-.39-.38A.37.37,0,0,1,1.84,13.85Z"/><path d="M17.82,1.8a.38.38,0,0,1,.4.37.4.4,0,0,1-.8,0A.38.38,0,0,1,17.82,1.8Z"/><path d="M3,21.31a.38.38,0,0,1-.39-.38A.4.4,0,0,1,3,20.54a.42.42,0,0,1,.41.4A.4.4,0,0,1,3,21.31Z"/><path d="M16.23,3.46a.41.41,0,0,1-.41.38.39.39,0,1,1,0-.77A.4.4,0,0,1,16.23,3.46Z"/><path d="M17.54,22.12a.41.41,0,0,1-.39.4.4.4,0,0,1-.41-.38.39.39,0,0,1,.4-.4A.41.41,0,0,1,17.54,22.12Z"/><path d="M9.36,2.16a.39.39,0,1,1-.38.4A.4.4,0,0,1,9.36,2.16Z"/><path d="M18.26,12.55a.38.38,0,0,1-.39-.38.41.41,0,0,1,.41-.4.4.4,0,0,1,.38.4A.39.39,0,0,1,18.26,12.55Z"/><path d="M3.06,3.46a.4.4,0,0,1-.8,0,.4.4,0,0,1,.8,0Z"/><path d="M6.85,8.46a.35.35,0,0,1-.33.37.41.41,0,0,1-.39-.41.36.36,0,0,1,.34-.37A.41.41,0,0,1,6.85,8.46Z"/><path d="M8.63,17.71a2.11,2.11,0,0,1,.12-.38c.07-.13.18-.13.27,0a.85.85,0,0,1,0,.79c-.09.13-.2.13-.27,0A2.11,2.11,0,0,1,8.63,17.71Z"/><path d="M8.33,8c.28-.08.55-.18.84-.24a.36.36,0,0,1,.44.5c-.06.18-.19.35-.1.57A.3.3,0,0,0,9.9,9a1.08,1.08,0,0,1,.34,0l-.3.55-.51-.25s0,0-.06,0c-.29.39-.29.39-.76.24l-.24-.07c.1-.27.16-.32.42-.26s.27-.15.35-.27A.3.3,0,0,0,9,8.63L8.64,8.5C8.28,8.36,8.28,8.36,8.33,8Z"/></g><g class="cls-3"><path d="M12.46,12.59l.09.16a4.17,4.17,0,0,1,.6,1.52.38.38,0,0,0,.26.32,1,1,0,0,0,1.43-.38c.18-.25.38-.51.58-.75a1.2,1.2,0,0,1,2,.15,3.35,3.35,0,0,1,.54,2.48,1.46,1.46,0,0,1-1.3,1.26c-.58.09-1.16.16-1.74.2a13.23,13.23,0,0,1-2,.05,1.26,1.26,0,0,0-.94.28,2.9,2.9,0,0,1-1.78.6.34.34,0,0,0-.19.11,2.47,2.47,0,0,1-.32.39.27.27,0,0,0-.08.34,5.93,5.93,0,0,0,.29.56,1.8,1.8,0,0,1-.57,2.61,1.46,1.46,0,0,1-1.43.1,2.41,2.41,0,0,1-1.09-.88,1.86,1.86,0,0,1-.28-1.13,18.11,18.11,0,0,1,.42-3,1.28,1.28,0,0,0,0-.27A.66.66,0,0,0,6.91,17a3.85,3.85,0,0,1-.49-1.35c-.08-.38-.12-.78-.2-1.16a.5.5,0,0,0-.17-.26.61.61,0,0,0-.23-.11,6,6,0,0,1-2.45-1.65c-.52-.5-1-1-1.5-1.58a1.82,1.82,0,0,1-.37-.61A1,1,0,0,1,2.58,8.86,4,4,0,0,1,3,8.93,1.89,1.89,0,0,1,3,6.85a1.84,1.84,0,0,1,1.93-.71,5.65,5.65,0,0,0,0-2.09,5.58,5.58,0,0,0-.6.39s0,.17,0,.26a.65.65,0,0,1-.46.59A.68.68,0,0,1,3.06,5a.6.6,0,0,1,0-.75A2.26,2.26,0,0,1,3.5,4a1.18,1.18,0,0,0,.28-.22A2.9,2.9,0,0,1,4,3.45C4.48,3,5,2.61,5.42,2.19a.32.32,0,0,1,.43,0,2.12,2.12,0,0,1,1,1.14,2.82,2.82,0,0,0,.4.69,2.07,2.07,0,0,0,.32.44,5.47,5.47,0,0,0,.58.5s.09,0,.14,0a2.17,2.17,0,0,1,2,.83,1.58,1.58,0,0,1,.22.82.58.58,0,0,0,.1.32,2.76,2.76,0,0,1,.59,1.39c.17-.16.43-.29.44-.44,0-.36.3-.45.53-.57a2.31,2.31,0,0,1,.64-.16V5.54H14.9a4.32,4.32,0,0,0-1.38,1.92L14,7.7l1-2h0V9.5h-1A6.55,6.55,0,0,1,12.46,12.59ZM10.14,18.2l.08,0h.13a3.14,3.14,0,0,0,1.85-.83.59.59,0,0,0,.15-.17A4.26,4.26,0,0,0,13,15a4.58,4.58,0,0,0-1.64-3.33.4.4,0,0,0-.21-.09c-.54-.11-1.07-.23-1.62-.3a.71.71,0,0,0-.66.18,4.63,4.63,0,0,0-.39.59c-.12.21-.2.44-.32.65s-.14.14-.21.21c-.06-.08-.14-.15-.2-.23s-.12-.18-.18-.28l0,0c.08.18.18.35.25.54a2.45,2.45,0,0,1,.18,1.44.55.55,0,0,1-.65.49,1.42,1.42,0,0,1-.51-.21,1.5,1.5,0,0,1-.24-.2,6,6,0,0,0,.57,2.27c.08-.17.13-.31.19-.44A2.45,2.45,0,0,1,7.53,16a.55.55,0,0,1,.8-.15,6.44,6.44,0,0,1,1.05.82A2.13,2.13,0,0,1,10.14,18.2Zm-.39-8.13c.22-.08.43-.09.54-.21a1.88,1.88,0,0,0,.62-1.8A2.45,2.45,0,0,0,9.78,6.47a4.58,4.58,0,0,0-2-.76,3.71,3.71,0,0,0-2.34.74s-.08.12-.12.18c-.12.23-.25.49-.53.48a.46.46,0,0,0-.42.25,2.67,2.67,0,0,0-.22.36.63.63,0,0,0,0,.65.74.74,0,0,1-.1.89c-.1.1-.05.17.06.23a11.3,11.3,0,0,1,2.47,1.79,1.59,1.59,0,0,1,.3-.14c.41-.12.82-.21,1.23-.32a3.8,3.8,0,0,0,.38-.17l-.08,0A2,2,0,0,1,6.64,8.39,2,2,0,0,1,9.22,6.91c.06,0,.17.07.19,0s.23,0,.29,0,.19.29.29.42A1.77,1.77,0,0,1,9.83,10S9.8,10,9.75,10.07Zm-3,10.57c-.13.48.22.84.66,1.15a2,2,0,0,0,1.92.27.87.87,0,0,0,.32-.25A1.5,1.5,0,0,0,9.7,20a4.71,4.71,0,0,1-.38-.82.31.31,0,0,1,.14-.36,1,1,0,0,0,.2-1.43,4.15,4.15,0,0,0-1.28-1.29c-.39-.25-.56-.22-.78.18a2.91,2.91,0,0,0-.22.51c-.07.25-.14.51-.19.78A17.55,17.55,0,0,0,6.77,20.64Zm-5-11.21A1.57,1.57,0,0,0,1.7,10a1.85,1.85,0,0,0,.35.7c.72.77,1.46,1.52,2.23,2.23a3.7,3.7,0,0,0,1.16.76A5.13,5.13,0,0,1,7,14.59a.38.38,0,0,0,.67-.24,2.18,2.18,0,0,0,0-.51,3.25,3.25,0,0,0-.54-1.43,7.39,7.39,0,0,0-2-2,.25.25,0,0,0-.17,0,2.52,2.52,0,0,1-2.7-.55C2.12,9.72,2,9.6,1.77,9.43Zm14.85,7.69a5.1,5.1,0,0,1-.26-.7,6.15,6.15,0,0,1,0-2.38.65.65,0,0,1,.53-.63l-.11-.07a.87.87,0,0,0-1,.19c-.28.31-.53.64-.78,1a1.14,1.14,0,0,1-1.19.46l-.52-.15a4.66,4.66,0,0,1-.66,2.55A21.57,21.57,0,0,0,16.62,17.12ZM6.87,8.58a2.32,2.32,0,0,0,.74,1.5,1,1,0,0,0,1.1.21,4.34,4.34,0,0,0,.93-.49,1.46,1.46,0,0,0,.2-2.15A1.45,1.45,0,0,0,8.3,7.07,1.84,1.84,0,0,0,6.94,8.23,1.81,1.81,0,0,0,6.87,8.58Zm4.24.54-.4.7h.2a4.34,4.34,0,0,1,.24.72,2.65,2.65,0,0,0,.52,1.08,5.88,5.88,0,0,0,.52.6c.09.11.17.11.25,0a2.32,2.32,0,0,0,.41-.48,7.93,7.93,0,0,0,.87-2,1.66,1.66,0,0,0,0-.22c-.21,0-.2,0-.26.13a.66.66,0,0,1-.12.22,1.19,1.19,0,0,1-1.89-.12A6.67,6.67,0,0,1,11.11,9.12ZM7.33,4.55c-.08-.11-.19-.24-.28-.38a3.82,3.82,0,0,1-.46-.77,1.91,1.91,0,0,0-.83-1s-.17,0-.19,0c-.17.23-.5.38-.35.76,0,0,0,.11,0,.16,0,.62,0,1.24,0,1.88C6,4.94,6.71,5,7.33,4.55ZM4.56,6.35a1.62,1.62,0,0,0-1.51.88A1.84,1.84,0,0,0,3.39,9s.06.08.11.09.22.08.29,0A.35.35,0,0,0,4,8.83a1.44,1.44,0,0,0-.09-.45c0-.15-.11-.29-.15-.44a.84.84,0,0,1,.94-1.07A.37.37,0,0,0,5,6.67c.12-.17.1-.23-.11-.27S4.64,6.36,4.56,6.35Zm5.69.13A1.65,1.65,0,0,0,8.39,5.14c-.2,0-.32.12-.3.34A1.48,1.48,0,0,0,9,5.56a.55.55,0,0,1,.65.32C9.72,6.2,10,6.29,10.25,6.48ZM9.44,11l.67-.16.67-.17c.15,0,.16-.09.06-.2a.44.44,0,0,1-.1-.22c0-.13-.07-.18-.19-.14a7.43,7.43,0,0,0-.94.32C9.25,10.59,9.26,10.61,9.44,11ZM4.13,4.23c.18-.1.34-.22.51-.3A.47.47,0,0,0,5,3.44V3L4.88,3c-.32.36-.79.58-.94,1.1ZM7,11.43l.12.31,1.28-.34-.16-.35Zm1.33.26c-.24.06-.43.1-.62.16a1.45,1.45,0,0,0-.22.09,1.15,1.15,0,0,0,.14.27A2.36,2.36,0,0,0,8,12.5ZM10,11.11v.06l1.15.18A2.75,2.75,0,0,0,11,11a.21.21,0,0,0-.18-.07C10.55,11,10.3,11,10,11.11Zm-1-.31-.58.11.15.36.25-.13.26-.08a.16.16,0,0,0,0-.1A.76.76,0,0,0,9.08,10.8Z"/><path d="M16.66,8.36c.2,0,.33-.07.3-.29a.89.89,0,0,1,0-.28,1.68,1.68,0,0,0-.43-1.48l-.65-.76h1.9V9.49H15.56V5.67l.29.32a2.29,2.29,0,0,1,.79,1.9A3.7,3.7,0,0,0,16.66,8.36Z"/><path d="M15.38,5.26a1.86,1.86,0,0,1,1-1.19.22.22,0,0,1,.3,0l.42.36c.1.09.11.18,0,.25a11.53,11.53,0,0,1-1.43.76,1.14,1.14,0,0,1-.81,0,14.26,14.26,0,0,1-1.28-.69c-.15-.08-.16-.19,0-.3A4.14,4.14,0,0,1,14,4.06a.35.35,0,0,1,.25,0A1.56,1.56,0,0,1,15.38,5.26Z"/><path d="M4,16.81a.57.57,0,0,1-.58.54.55.55,0,1,1,0-1.09A.56.56,0,0,1,4,16.81Z"/><path d="M1.51,6a.54.54,0,1,1,0,1.08A.56.56,0,0,1,1,6.55.56.56,0,0,1,1.51,6Z"/><path d="M17.62,19.8a.54.54,0,1,1,.55-.56A.56.56,0,0,1,17.62,19.8Z"/><path d="M11.72,21a.54.54,0,1,1-.56.53A.54.54,0,0,1,11.72,21Z"/><path d="M15.89,9.69a.53.53,0,0,1,.55.54.56.56,0,0,1-1.11,0A.52.52,0,0,1,15.89,9.69Z"/><path d="M13.8,13a.57.57,0,0,1,.56.55.56.56,0,0,1-1.12,0A.57.57,0,0,1,13.8,13Z"/><path d="M11.92,4.12a.55.55,0,0,1-1.1,0,.55.55,0,0,1,1.1,0Z"/><path d="M14.58,18.69a.38.38,0,0,1-.38.4.4.4,0,0,1-.41-.39.4.4,0,0,1,.39-.39A.39.39,0,0,1,14.58,18.69Z"/><path d="M1.5,13.51a.38.38,0,0,1,.41.36.39.39,0,0,1-.4.4.38.38,0,0,1-.39-.38A.37.37,0,0,1,1.5,13.51Z"/><path d="M17.48,1.46a.38.38,0,0,1,.4.37.4.4,0,0,1-.8,0A.38.38,0,0,1,17.48,1.46Z"/><path d="M2.64,21a.38.38,0,0,1-.39-.38.4.4,0,0,1,.39-.39.42.42,0,0,1,.41.4A.4.4,0,0,1,2.64,21Z"/><path d="M15.89,3.12a.41.41,0,0,1-.41.38.39.39,0,1,1,0-.77A.4.4,0,0,1,15.89,3.12Z"/><path d="M17.2,21.78a.41.41,0,0,1-.39.4.4.4,0,0,1-.41-.38.39.39,0,0,1,.4-.4A.41.41,0,0,1,17.2,21.78Z"/><path d="M9,1.82a.39.39,0,1,1-.38.4A.4.4,0,0,1,9,1.82Z"/><path d="M17.92,12.21a.38.38,0,0,1-.39-.38.41.41,0,0,1,.41-.4.4.4,0,0,1,.38.4A.39.39,0,0,1,17.92,12.21Z"/><path d="M2.72,3.12a.4.4,0,0,1-.8,0,.4.4,0,0,1,.8,0Z"/><path d="M6.51,8.12a.35.35,0,0,1-.33.37.41.41,0,0,1-.39-.41.36.36,0,0,1,.34-.37A.41.41,0,0,1,6.51,8.12Z"/><path d="M8.29,17.37A2.11,2.11,0,0,1,8.41,17c.07-.13.18-.13.27,0a.88.88,0,0,1,0,.79c-.09.13-.2.13-.27,0A2.11,2.11,0,0,1,8.29,17.37Z"/><path d="M8,7.61c.28-.08.55-.18.84-.24a.36.36,0,0,1,.44.5c-.06.18-.19.35-.1.56a.3.3,0,0,0,.39.21,1.08,1.08,0,0,1,.34,0l-.3.55L9.09,9S9,9,9,9c-.29.39-.29.39-.76.24L8,9.2c.1-.27.16-.32.42-.26s.27-.15.35-.27a.3.3,0,0,0-.16-.38L8.3,8.16C7.94,8,7.94,8,8,7.61Z"/></g><path class="cls-4" d="M12.66,12.79l.09.15a4.29,4.29,0,0,1,.6,1.53.37.37,0,0,0,.25.32A1,1,0,0,0,15,14.41c.19-.25.39-.51.59-.75a1.2,1.2,0,0,1,2,.15,3.34,3.34,0,0,1,.54,2.47,1.47,1.47,0,0,1-1.3,1.27c-.58.09-1.16.16-1.75.2a13.1,13.1,0,0,1-2,.05,1.3,1.3,0,0,0-.95.28,3,3,0,0,1-1.77.6c-.06,0-.14.06-.19.11a3,3,0,0,1-.32.39.26.26,0,0,0-.08.34,5.93,5.93,0,0,0,.29.56,1.8,1.8,0,0,1-.57,2.61,1.46,1.46,0,0,1-1.43.1A2.47,2.47,0,0,1,7,21.91a1.81,1.81,0,0,1-.28-1.13,18.38,18.38,0,0,1,.42-3c0-.09.05-.18.05-.26a.73.73,0,0,0-.08-.33,3.55,3.55,0,0,1-.49-1.34c-.08-.38-.12-.78-.2-1.17a.59.59,0,0,0-.17-.25A.49.49,0,0,0,6,14.28a6,6,0,0,1-2.45-1.65c-.52-.51-1-1-1.5-1.58a1.82,1.82,0,0,1-.37-.61A1,1,0,0,1,2.78,9.06a4,4,0,0,1,.44.07,1.91,1.91,0,0,1,0-2.08,1.86,1.86,0,0,1,1.94-.71,5.65,5.65,0,0,0,0-2.09,5.58,5.58,0,0,0-.6.39s0,.17,0,.26A.65.65,0,0,1,4,5.49a.66.66,0,0,1-.76-.27.57.57,0,0,1,0-.74,2.26,2.26,0,0,1,.4-.25A1.51,1.51,0,0,0,4,4c.09-.11.14-.26.24-.36.46-.43.93-.84,1.4-1.26a.32.32,0,0,1,.43,0A2.16,2.16,0,0,1,7,3.5a2.82,2.82,0,0,0,.4.69,2.75,2.75,0,0,0,.32.44,6.93,6.93,0,0,0,.58.5s.09,0,.14,0a2.13,2.13,0,0,1,2,.83,1.39,1.39,0,0,1,.22.82.59.59,0,0,0,.11.32,2.76,2.76,0,0,1,.59,1.39c.17-.16.43-.29.44-.44,0-.36.3-.45.53-.57A2.22,2.22,0,0,1,13,7.3V5.74H15.1a4.27,4.27,0,0,0-1.38,1.92l.48.24,1-2h0V9.7h-1A6.45,6.45,0,0,1,12.66,12.79ZM10.33,18.4l.09,0h.12a3.15,3.15,0,0,0,1.86-.83.52.52,0,0,0,.15-.18,4.22,4.22,0,0,0,.63-2.19,4.62,4.62,0,0,0-1.64-3.34.67.67,0,0,0-.21-.09c-.54-.1-1.08-.22-1.62-.29a.71.71,0,0,0-.66.18,4,4,0,0,0-.39.59c-.12.21-.2.44-.32.64s-.14.15-.21.21a2.09,2.09,0,0,1-.2-.22,2.68,2.68,0,0,1-.18-.28l0,0c.08.18.18.35.25.53a2.5,2.5,0,0,1,.18,1.45.55.55,0,0,1-.65.49A1.62,1.62,0,0,1,7,14.92a2.31,2.31,0,0,1-.24-.2A5.68,5.68,0,0,0,7.3,17c.07-.18.13-.32.19-.45a1.81,1.81,0,0,1,.24-.37.56.56,0,0,1,.8-.16,6.53,6.53,0,0,1,1,.83A2.1,2.1,0,0,1,10.33,18.4ZM10,10.27c.22-.08.43-.09.54-.21a1.88,1.88,0,0,0,.62-1.8A2.48,2.48,0,0,0,10,6.67a4.57,4.57,0,0,0-2-.76,3.69,3.69,0,0,0-2.33.73c-.06,0-.08.13-.12.19-.12.23-.25.49-.53.48a.46.46,0,0,0-.42.25,2.16,2.16,0,0,0-.22.36.63.63,0,0,0,0,.65.76.76,0,0,1-.1.89c-.1.09-.05.17.06.23a11.3,11.3,0,0,1,2.47,1.79,1.68,1.68,0,0,1,.3-.15c.41-.11.82-.2,1.22-.32a2.93,2.93,0,0,0,.39-.16l-.09,0A2,2,0,0,1,6.84,8.58,2,2,0,0,1,9.42,7.11c.06,0,.16.07.19,0s.22,0,.29,0,.19.29.29.42A1.77,1.77,0,0,1,10,10.18ZM7,20.84c-.13.48.21.84.66,1.14a1.92,1.92,0,0,0,1.91.28A.83.83,0,0,0,9.87,22a1.5,1.5,0,0,0,0-1.78,4.71,4.71,0,0,1-.38-.82.31.31,0,0,1,.14-.36,1,1,0,0,0,.2-1.43,4.07,4.07,0,0,0-1.29-1.29c-.38-.25-.55-.22-.77.18a2.31,2.31,0,0,0-.22.51,6.66,6.66,0,0,0-.19.77A17.81,17.81,0,0,0,7,20.84ZM2,9.63a1.53,1.53,0,0,0-.06.53,1.85,1.85,0,0,0,.35.7c.72.77,1.46,1.52,2.23,2.23a3.76,3.76,0,0,0,1.16.76,4.78,4.78,0,0,1,1.56.94.39.39,0,0,0,.68-.24,2.18,2.18,0,0,0,0-.51,3.25,3.25,0,0,0-.54-1.43,7.43,7.43,0,0,0-2-2,.25.25,0,0,0-.17,0,2.52,2.52,0,0,1-2.7-.55C2.32,9.92,2.17,9.8,2,9.63Zm14.86,7.68a5,5,0,0,1-.26-.69,6.15,6.15,0,0,1,0-2.38c0-.28.15-.57.52-.63-.05,0-.07-.06-.1-.07a.85.85,0,0,0-1,.19c-.28.31-.53.64-.78,1a1.12,1.12,0,0,1-1.19.45c-.17,0-.34-.09-.52-.14a4.75,4.75,0,0,1-.66,2.55A20.75,20.75,0,0,0,16.82,17.31ZM7.07,8.77a2.33,2.33,0,0,0,.73,1.51,1.06,1.06,0,0,0,1.11.21,4,4,0,0,0,.93-.5A1.45,1.45,0,0,0,10,7.85,1.44,1.44,0,0,0,8.5,7.27,1.85,1.85,0,0,0,7.14,8.42,1.45,1.45,0,0,0,7.07,8.77Zm4.23.54-.39.71h.2a4.06,4.06,0,0,1,.24.72,2.65,2.65,0,0,0,.52,1.08,5.72,5.72,0,0,0,.52.6c.09.11.17.11.25,0a2.67,2.67,0,0,0,.41-.48,8.29,8.29,0,0,0,.87-2,1.66,1.66,0,0,0,0-.22c-.21,0-.21,0-.27.13a.51.51,0,0,1-.11.22A1.2,1.2,0,0,1,11.68,10C11.54,9.76,11.43,9.53,11.3,9.31ZM7.53,4.75c-.08-.11-.19-.24-.28-.38a3.63,3.63,0,0,1-.46-.78A1.93,1.93,0,0,0,6,2.6s-.17,0-.19,0c-.17.22-.5.38-.35.75a.49.49,0,0,1,0,.17c0,.62,0,1.24,0,1.88C6.17,5.14,6.91,5.2,7.53,4.75ZM4.76,6.55a1.6,1.6,0,0,0-1.51.88,1.85,1.85,0,0,0,.33,1.72s.07.09.12.1.21.08.28,0A.39.39,0,0,0,4.15,9a1.8,1.8,0,0,0-.09-.45c0-.15-.12-.29-.15-.44a.85.85,0,0,1,.93-1.08.36.36,0,0,0,.4-.19c.12-.17.09-.23-.11-.27Zm5.69.13A1.65,1.65,0,0,0,8.59,5.34c-.2,0-.32.12-.3.34a1.56,1.56,0,0,0,.86.08.55.55,0,0,1,.65.32C9.92,6.39,10.19,6.49,10.45,6.68ZM9.64,11.2,10.3,11l.68-.17c.14,0,.15-.08.06-.19a.4.4,0,0,1-.1-.22c0-.13-.08-.18-.2-.14-.31.1-.63.18-.93.31S9.46,10.8,9.64,11.2ZM4.33,4.43a5.24,5.24,0,0,1,.51-.3.49.49,0,0,0,.31-.49V3.21l-.07,0c-.32.36-.79.58-.94,1.1Zm2.89,7.2.12.31,1.28-.34-.16-.35Zm1.33.26c-.24.06-.43.1-.62.16a1.45,1.45,0,0,0-.22.09.87.87,0,0,0,.14.27,3.25,3.25,0,0,0,.33.29Zm1.69-.58v0l1.14.19a2.47,2.47,0,0,0-.2-.37.21.21,0,0,0-.17-.06C10.75,11.17,10.5,11.24,10.24,11.31Zm-1-.31-.58.11.15.36c.1-.05.17-.1.25-.13a2,2,0,0,1,.26-.08.43.43,0,0,0,0-.11A.94.94,0,0,0,9.28,11Z"/><path class="cls-4" d="M16.86,8.56c.2,0,.33-.07.3-.3a.86.86,0,0,1,0-.27,1.71,1.71,0,0,0-.43-1.49l-.65-.75H18V9.69H15.76V5.87l.29.32a2.26,2.26,0,0,1,.78,1.9C16.83,8.24,16.85,8.4,16.86,8.56Z"/><path class="cls-4" d="M15.57,5.46a1.9,1.9,0,0,1,1-1.19.22.22,0,0,1,.3,0l.42.36c.1.09.11.18,0,.25a13,13,0,0,1-1.43.76,1.22,1.22,0,0,1-.82,0c-.44-.19-.85-.46-1.27-.69q-.22-.13,0-.3a3.24,3.24,0,0,1,.46-.37.27.27,0,0,1,.25,0A1.53,1.53,0,0,1,15.57,5.46Z"/><path class="cls-4" d="M4.23,17a.54.54,0,0,1-.57.53A.54.54,0,0,1,3.12,17a.56.56,0,0,1,1.11,0Z"/><path class="cls-4" d="M1.71,6.21a.54.54,0,1,1,0,1.08.54.54,0,1,1,0-1.08Z"/><path class="cls-4" d="M17.82,20a.54.54,0,0,1-.57-.53.56.56,0,0,1,1.12,0A.54.54,0,0,1,17.82,20Z"/><path class="cls-4" d="M11.92,21.23a.54.54,0,0,1,.55.55.56.56,0,0,1-1.11,0A.53.53,0,0,1,11.92,21.23Z"/><path class="cls-4" d="M16.09,9.88a.54.54,0,1,1-.56.54A.54.54,0,0,1,16.09,9.88Z"/><path class="cls-4" d="M14,13.16a.55.55,0,1,1,0,1.09.57.57,0,0,1-.56-.55A.56.56,0,0,1,14,13.16Z"/><path class="cls-4" d="M12.12,4.32a.53.53,0,0,1-.56.53A.54.54,0,0,1,11,4.32a.56.56,0,0,1,.56-.55A.54.54,0,0,1,12.12,4.32Z"/><path class="cls-4" d="M14.78,18.89a.38.38,0,0,1-.38.4.39.39,0,1,1,0-.78A.39.39,0,0,1,14.78,18.89Z"/><path class="cls-4" d="M1.7,13.7a.4.4,0,0,1,.41.37.39.39,0,0,1-.4.4.39.39,0,0,1-.4-.38A.4.4,0,0,1,1.7,13.7Z"/><path class="cls-4" d="M17.67,1.66a.4.4,0,0,1,.41.37.4.4,0,0,1-.8,0A.38.38,0,0,1,17.67,1.66Z"/><path class="cls-4" d="M2.84,21.17a.38.38,0,0,1-.39-.38.38.38,0,0,1,.39-.39.41.41,0,0,1,.41.4A.41.41,0,0,1,2.84,21.17Z"/><path class="cls-4" d="M16.08,3.32a.4.4,0,0,1-.4.38.38.38,0,0,1-.39-.41.38.38,0,0,1,.41-.36A.39.39,0,0,1,16.08,3.32Z"/><path class="cls-4" d="M17.39,22a.4.4,0,1,1-.4-.38A.39.39,0,0,1,17.39,22Z"/><path class="cls-4" d="M9.22,2a.39.39,0,1,1-.38.39A.38.38,0,0,1,9.22,2Z"/><path class="cls-4" d="M18.12,12.41a.38.38,0,0,1-.39-.39.4.4,0,0,1,.41-.39.4.4,0,0,1,.38.4A.39.39,0,0,1,18.12,12.41Z"/><path class="cls-4" d="M2.92,3.32a.41.41,0,0,1-.4.38.39.39,0,1,1,0-.77A.39.39,0,0,1,2.92,3.32Z"/><path class="cls-4" d="M6.7,8.32a.34.34,0,0,1-.32.37A.41.41,0,0,1,6,8.27a.35.35,0,0,1,.34-.36A.39.39,0,0,1,6.7,8.32Z"/><path class="cls-4" d="M8.49,17.57a1.89,1.89,0,0,1,.12-.38c.07-.14.17-.14.27,0a.91.91,0,0,1,0,.79c-.09.13-.2.13-.27,0A2.11,2.11,0,0,1,8.49,17.57Z"/><path class="cls-4" d="M8.19,7.81c.27-.08.55-.18.84-.24a.36.36,0,0,1,.43.5c-.06.18-.18.35-.1.56a.31.31,0,0,0,.4.21,1.08,1.08,0,0,1,.34,0l-.3.55-.51-.25s0,0-.06.05c-.29.39-.29.39-.76.24L8.23,9.4c.1-.27.16-.32.42-.27S8.92,9,9,8.87a.3.3,0,0,0-.17-.38L8.5,8.36C8.14,8.22,8.14,8.22,8.19,7.81Z"/></g></g></svg>