<svg xmlns="http://www.w3.org/2000/svg" viewBox="0 0 38.55 24.66"><defs><style>.cls-1{isolation:isolate;}.cls-2{opacity:0.15;}.cls-2,.cls-3{mix-blend-mode:multiply;}.cls-4{fill:#fff;}</style></defs><title>convert-CUSTOMIZE-SVG-03</title><g class="cls-1"><g id="Layer_1" data-name="Layer 1"><g class="cls-2"><path d="M9.74,21.69c-.11-.16,0-.52.2-.52a4.81,4.81,0,0,1,.92.07c.36.06.71.16,1.07.25l.17,0c-.13-.18-.25-.34-.35-.51a3.55,3.55,0,0,1-.23-.43c-.09-.22,0-.34.23-.51s.31-.07.43.08l.21.22c0-.09,0-.15,0-.21,0-.22,0-.45,0-.67a.48.48,0,0,1,.61-.45.28.28,0,0,1,.2.21c0,.44,0,.87,0,1.31,0,.11-.06.21.12.24s.18.31.12.44-.07.15-.11.23l-.14.23.27,0v2h-.92l.26.28c-.32,0-.61.08-.84-.2a.37.37,0,0,0-.26-.08H5.38l0-.25H4.9a19.74,19.74,0,0,1-3.52-.18c-.12,0-.15-.07-.15-.18V20.93a.2.2,0,0,1,.21-.23l1.38-.1-.16-.09c-.22-.11-.23-.26,0-.39A1,1,0,0,1,3.73,20c-.12-.22-.23-.39-.31-.57a.45.45,0,0,1,.37-.64.39.39,0,0,1,.19.08,3.31,3.31,0,0,1,.3.25c0-.18,0-.38.08-.57A.56.56,0,0,1,5,18.18a.28.28,0,0,1,.13.2c0,.28,0,.57,0,.86s-.09.3.13.35c0,0,0,0,.05.07s.19.17.35.21a2.19,2.19,0,0,1,.7.35c.09.05.07.19-.06.26l-.25.12,1.33.06c.62,0,.62,0,.62.63v.4ZM5.61,23.44h6.15l.36-1.22A3.66,3.66,0,0,1,10.56,22a.61.61,0,0,0-.19,0H5.61ZM1.49,21.07v2l2.66.18V21.15Zm3.37.08v2c.5,0,.5,0,.5-.44V21.7H7.75v-.63Zm8.39,2.3V22h-.44c.19.53-.11,1-.24,1.46Zm-.7-.95-.06-.26h-.05c-.11.26-.22.52-.32.79a.73.73,0,0,0,0,.33s.06.09.1.1.12,0,.13-.07c.12-.32.22-.64.33-1l-.05,0ZM10,21.38l0,.07a2.29,2.29,0,0,0,1.47.25v-.06ZM3.75,19.07l.55.87A1,1,0,0,0,3.75,19.07Zm8.65,2.07a.89.89,0,0,0-.53-.84Zm.55-.55H13c0-.39,0-.78,0-1.17,0-.05-.05-.09-.1-.17Zm-9.34,0,0-.07c-.25,0-.39-.44-.75-.16ZM6,20.32c-.26-.15-.5-.07-.76.24Zm6.64.28h0v-1h0ZM4.92,18.44H4.85v.92A1.92,1.92,0,0,0,4.92,18.44Zm-.36,1h0l0-.78H4.56Z"/><path d="M18.7,23.71h-5V19.06h1.53l0,0L15,18.88c-.2-.15-.42-.29-.61-.45s-.25-.31,0-.55a3,3,0,0,1,.45-.49.44.44,0,0,1,.39,0,1.42,1.42,0,0,1,.48.39c.2.29.35.61.53.93a1.67,1.67,0,0,1,.08-.2c.14-.26.27-.53.43-.77a.85.85,0,0,1,.71-.4c.05,0,.11,0,.13,0,.17.19.34.37.5.57a.27.27,0,0,1,0,.45c-.28.23-.57.43-.87.66H18.7Zm-.24-.26V19.34H16.73c.25.35.51.67.73,1a1.86,1.86,0,0,1,.38,1.11,2.65,2.65,0,0,0-.35.13,2.61,2.61,0,0,0-.25.23l-.65-1.5h0v3.11Zm-4.51,0h1.84V20a2.17,2.17,0,0,0-.66,1.61c0,.16,0,.33,0,.5,0,.56,0,.57-.55.3,0-.14,0-.29,0-.44s0-.25,0-.38a2,2,0,0,1,.51-1.52c.19-.25.42-.49.64-.74H14ZM16.58,19l.05.06L18,18.16l-.44-.41Zm-1.69-1.19-.45.39,1.35.86,0-.06Zm2.43,3.61.26-.17a3.7,3.7,0,0,0-1-1.55Zm-2.17-1a2,2,0,0,0-.29,1.8A4.66,4.66,0,0,1,15.15,20.41Zm0-2.72.61.79A1.14,1.14,0,0,0,15.16,17.69Zm1.48.69.05,0,.56-.72A1.23,1.23,0,0,0,16.64,18.38Z"/><path d="M18,11.72l-.26.94-.8-.28.26-.94Z"/><path d="M16.57,3.75l.75-.21.11.5-.74.2Z"/><path d="M7.8,1.56l.13.61-.42.12c0-.19-.09-.36-.12-.53a.19.19,0,0,1,.09-.11C7.57,1.61,7.68,1.6,7.8,1.56Z"/><path d="M9.71,15.68l-.43.11-.12-.61.43-.11Z"/><path d="M11.48,3.34l-.21-.42.45-.3.22.41Z"/><path d="M3.58,11.06l-.21-.42.47-.29.21.43Z"/><path d="M13.8,6l-.21-.41.46-.3.21.41Z"/><path d="M4,14.3l.21.43L3.75,15l-.21-.42Z"/><path d="M10.31,7l-.22-.42.46-.29.22.41Z"/><path d="M7,5.1l-.46.29L6.36,5l.46-.31Z"/><path d="M6.29,8.36l-.47.29-.21-.42.46-.29Z"/><path d="M19,16.24l-.46.29-.21-.41.46-.3Z"/><path d="M6,11.66l.46-.3.22.42-.46.3Z"/><path d="M9.93,11.83l-.4.22-.2-.43.41-.23Z"/><path d="M9.36,3.3l.4-.24.2.43-.39.24Z"/><path d="M14.64,9.09,15.05,9l.11.5-.42.12Z"/><path d="M6.43,15.76l.19.44-.4.23L6,16Z"/><path d="M12.8,8.57l.42-.12.11.5-.42.12Z"/><path d="M1.72,8.69,1.78,9,1.57,9l-.05-.29Z"/><path d="M16.59,7l.26.09-.05.23-.26-.08Z"/><path d="M8.05,18.6l.27.09-.07.23L8,18.84Z"/><path d="M15.48,14.54l-.25-.09,0-.23.27.08Z"/><path d="M12.89,6.67,13,6.43l.26.08-.06.24Z"/><path d="M4.26,6.54l-.18,0C4,6.3,4,6.29,4.21,6.27Z"/><path d="M1.32,5.43l.07-.23.24.08,0,.24Z"/><path d="M14.11,2.9l.24.08,0,.22C14,3.14,14,3.14,14.11,2.9Z"/><path d="M1.54,13.7l.25.08L1.72,14C1.45,14,1.45,14,1.54,13.7Z"/><path d="M11.44,14.37l.07-.23.25.08-.06.23Z"/><path d="M4.71,3.13l.06-.23L5,3l0,.25Z"/><path d="M3.36,3l-.21.07a.57.57,0,0,1,0-.25s.09-.08.17-.14Z"/><path d="M13.24,16.44,13,16.35l.05-.19C13.32,16.14,13.35,16.19,13.24,16.44Z"/><path d="M13.79,12.84l0,.23L13.48,13l0-.23Z"/><path d="M9.85,9.65l.06.31L9.7,10a1.27,1.27,0,0,1,0-.26S9.77,9.7,9.85,9.65Z"/><path d="M1.32,17.62l.06-.23.25.07,0,.24Z"/><path d="M9.94,21.89c-.11-.16,0-.52.2-.52a4.12,4.12,0,0,1,.92.07c.36.06.71.16,1.06.25l.18,0c-.13-.19-.25-.34-.35-.51a2.55,2.55,0,0,1-.23-.43c-.1-.22,0-.34.22-.52a.29.29,0,0,1,.44.09l.21.22a1.7,1.7,0,0,0,0-.21c0-.22,0-.45.05-.67a.49.49,0,0,1,.6-.46c.09,0,.21.14.21.22,0,.43,0,.87,0,1.31,0,.1-.06.2.12.24s.18.31.12.44l-.12.22-.13.24.27,0v2h-.92l.26.29c-.32,0-.61.08-.84-.2a.37.37,0,0,0-.26-.08H5.58l0-.25H5.1a19.69,19.69,0,0,1-3.52-.18c-.12,0-.15-.07-.15-.18V21.13a.2.2,0,0,1,.21-.23L3,20.8l-.16-.09c-.22-.11-.23-.26,0-.39a1,1,0,0,1,1.09-.15c-.12-.22-.23-.39-.31-.57A.45.45,0,0,1,4,19a.49.49,0,0,1,.19.07l.29.25c0-.17,0-.37.09-.56a.55.55,0,0,1,.68-.34.28.28,0,0,1,.13.2c0,.28,0,.57,0,.86,0,.14-.09.3.13.35,0,0,0,0,0,.07s.19.17.35.21a2.52,2.52,0,0,1,.7.34c.09.06.07.2-.06.26l-.25.13,1.33.06c.62,0,.62,0,.62.63v.4ZM5.81,23.64H12l.36-1.22a3.71,3.71,0,0,1-1.57-.23.52.52,0,0,0-.18,0H6l-.22,0ZM1.69,21.27v2l2.65.18V21.35Zm3.36.08v2c.51,0,.51,0,.51-.44V21.9H7.94v-.63Zm8.39,2.3V22.19H13c.19.53-.11,1-.24,1.46Zm-.7-1-.05-.25h0c-.11.26-.23.52-.32.79a.91.91,0,0,0,0,.33.18.18,0,0,0,.11.1s.12,0,.13-.07c.12-.32.22-.65.33-1l-.06,0Zm-2.51-1.11,0,.07a2.28,2.28,0,0,0,1.47.25v-.07ZM4,19.27l.55.87A1,1,0,0,0,4,19.27Zm8.65,2.07a.91.91,0,0,0-.53-.84Zm.55-.55h.08c0-.39,0-.77,0-1.16,0-.05-.05-.09-.1-.17Zm-9.34,0,0-.07c-.25,0-.39-.45-.75-.16Zm2.41-.23c-.25-.16-.49-.07-.76.24Zm6.64.28h.05v-1h-.05ZM5.12,18.63H5.05v.92A2,2,0,0,0,5.12,18.63Zm-.36,1h0l0-.79H4.76Z"/><path d="M18.9,23.91h-5V19.25h1.53l0,0-.22-.14c-.21-.15-.42-.29-.61-.45s-.25-.31-.05-.55a2.62,2.62,0,0,1,.45-.49.44.44,0,0,1,.39,0,1.53,1.53,0,0,1,.48.39c.2.29.35.61.53.93a.7.7,0,0,1,.08-.2c.14-.26.27-.53.43-.78a.85.85,0,0,1,.71-.39s.11,0,.13,0,.34.37.5.57.13.3-.06.45-.56.43-.86.66H18.9Zm-.24-.26V19.54H16.93c.25.34.5.67.73,1A1.84,1.84,0,0,1,18,21.67a1.62,1.62,0,0,0-.34.13,2.61,2.61,0,0,0-.25.23l-.65-1.5h0v3.11Zm-4.51,0H16V20.2a2.2,2.2,0,0,0-.66,1.61c0,.17,0,.34,0,.51,0,.56,0,.57-.54.3,0-.14,0-.29,0-.44a2.45,2.45,0,0,0,0-.38,2,2,0,0,1,.52-1.52c.19-.25.41-.49.63-.74H14.15Zm2.63-4.48,0,.06,1.34-.87-.43-.4ZM15.08,18l-.44.4,1.35.86,0-.06Zm2.43,3.61.27-.16a3.76,3.76,0,0,0-1-1.56Zm-2.16-1a2,2,0,0,0-.3,1.8A4.64,4.64,0,0,1,15.35,20.61Zm0-2.72.61.79A1.14,1.14,0,0,0,15.36,17.89Zm1.47.69.05,0,.57-.72A1.25,1.25,0,0,0,16.83,18.58Z"/><path d="M18.16,11.91l-.26.94-.8-.27.26-.94Z"/><path d="M16.77,4l.74-.21.12.49-.74.21Z"/><path d="M8,1.76l.13.61-.42.12c0-.19-.09-.36-.12-.53a.19.19,0,0,1,.09-.11A1.79,1.79,0,0,1,8,1.76Z"/><path d="M9.91,15.88,9.48,16l-.12-.61.43-.12Z"/><path d="M11.68,3.54l-.21-.42.45-.3.22.41Z"/><path d="M3.78,11.26l-.21-.42L4,10.55l.2.42Z"/><path d="M14,6.2l-.21-.42.46-.3.21.42Z"/><path d="M4.21,14.5l.2.42L4,15.21l-.21-.42Z"/><path d="M10.5,7.16l-.21-.42.46-.29.21.41Z"/><path d="M7.24,5.29l-.46.3-.22-.4L7,4.88Z"/><path d="M6.49,8.56,6,8.84l-.21-.41.46-.29Z"/><path d="M19.15,16.44l-.46.29-.21-.42.46-.29Z"/><path d="M6.15,11.86l.46-.3.21.42-.46.29Z"/><path d="M10.13,12l-.4.23-.2-.43.4-.24Z"/><path d="M9.56,3.5l.4-.24.2.43-.39.24Z"/><path d="M14.83,9.29l.42-.12.11.49-.42.13Z"/><path d="M6.63,16l.19.43-.4.24-.19-.44Z"/><path d="M13,8.77l.41-.12.12.5-.42.11Z"/><path d="M1.92,8.89,2,9.18l-.21.05-.06-.29Z"/><path d="M16.79,7.21l.26.08L17,7.53l-.26-.08Z"/><path d="M8.24,18.8l.27.09-.06.23L8.2,19Z"/><path d="M15.68,14.74l-.25-.09.05-.24.27.08Z"/><path d="M13.09,6.86l.06-.23.25.08L13.35,7Z"/><path d="M4.46,6.74l-.18,0c-.12-.29-.11-.31.13-.32Z"/><path d="M1.52,5.63l.06-.23.25.08-.05.24Z"/><path d="M14.31,3.1l.24.08-.05.22C14.22,3.34,14.22,3.34,14.31,3.1Z"/><path d="M1.74,13.9,2,14l-.07.22C1.64,14.15,1.64,14.15,1.74,13.9Z"/><path d="M11.64,14.57l.07-.24.25.09-.06.23Z"/><path d="M4.91,3.33,5,3.1l.24.07,0,.25Z"/><path d="M3.56,3.18l-.21.07A.79.79,0,0,1,3.3,3s.1-.08.18-.15Z"/><path d="M13.44,16.63l-.23-.08,0-.2C13.52,16.34,13.55,16.39,13.44,16.63Z"/><path d="M14,13l-.06.23-.26-.07.06-.23Z"/><path d="M10,9.85l.06.3-.2.07a1.27,1.27,0,0,1,0-.26S10,9.9,10,9.85Z"/><path d="M1.52,17.82l.06-.23.25.07-.05.24Z"/></g><g class="cls-3"><path d="M9.6,21.55c-.11-.16,0-.52.2-.52a4.12,4.12,0,0,1,.92.07c.36.06.71.16,1.06.25l.18,0c-.13-.19-.25-.34-.35-.51a2.55,2.55,0,0,1-.23-.43c-.1-.22,0-.34.22-.52A.29.29,0,0,1,12,20l.21.22a1.7,1.7,0,0,0,0-.21c0-.22,0-.45.05-.67a.49.49,0,0,1,.6-.46c.09,0,.21.14.21.22,0,.43,0,.87,0,1.31,0,.1-.06.2.12.24s.18.31.12.44l-.12.22-.13.24.27,0v2h-.92l.26.29c-.32,0-.61.08-.84-.2a.4.4,0,0,0-.27-.08H5.24l0-.25H4.76a19.69,19.69,0,0,1-3.52-.18c-.12,0-.15-.07-.15-.18V20.79c0-.16.07-.22.21-.23l1.38-.1-.16-.09c-.22-.11-.23-.26,0-.39a1,1,0,0,1,1.09-.15c-.12-.22-.23-.39-.31-.57a.45.45,0,0,1,.37-.64.49.49,0,0,1,.19.07l.29.25c0-.17,0-.37.09-.56A.55.55,0,0,1,4.9,18a.28.28,0,0,1,.13.2c0,.28,0,.57,0,.86,0,.14-.09.3.13.35,0,0,0,0,0,.06.05.18.19.18.35.22a2.52,2.52,0,0,1,.7.34c.09.06.07.2-.06.26l-.25.13,1.33.06c.62,0,.62,0,.62.63v.4ZM5.47,23.3h6.15L12,22.08a3.57,3.57,0,0,1-1.57-.24H5.69l-.22,0ZM1.35,20.93v2L4,23.1V21ZM4.71,21v2c.51,0,.51,0,.51-.44V21.56H7.6v-.63Zm8.39,2.3V21.85h-.43c.19.53-.11,1-.24,1.46Zm-.7-1-.05-.25h0c-.11.26-.23.52-.32.79a.91.91,0,0,0,0,.33.18.18,0,0,0,.11.1s.12,0,.13-.07c.12-.32.22-.65.33-1l-.06,0ZM9.88,21.24v.07a2.28,2.28,0,0,0,1.47.25v-.07ZM3.61,18.92l.55.88A1,1,0,0,0,3.61,18.92ZM12.26,21a.91.91,0,0,0-.53-.84Zm.55-.55h.08c0-.39,0-.78,0-1.16,0-.05-.05-.09-.1-.17Zm-9.34,0,0-.07c-.25,0-.39-.45-.75-.16Zm2.41-.23c-.25-.16-.49-.07-.76.24Zm6.64.28h.05v-1h-.05ZM4.78,18.29H4.71v.92A2,2,0,0,0,4.78,18.29Zm-.36,1h0l0-.79H4.42Z"/><path d="M18.56,23.57h-5V18.91H15.1l0,0-.22-.14c-.21-.15-.42-.29-.61-.45s-.25-.31,0-.55a2.62,2.62,0,0,1,.45-.49.44.44,0,0,1,.39,0,1.53,1.53,0,0,1,.48.39,10.28,10.28,0,0,1,.53.93.7.7,0,0,1,.08-.2c.14-.26.27-.53.43-.78a.85.85,0,0,1,.71-.39s.11,0,.13,0,.34.37.5.57.13.3-.06.45-.56.43-.86.66h1.54Zm-.24-.26V19.2H16.59c.25.34.5.67.73,1a1.84,1.84,0,0,1,.37,1.12,1.62,1.62,0,0,0-.34.13,2.61,2.61,0,0,0-.25.23l-.65-1.5h0v3.11Zm-4.51,0h1.84V19.86A2.2,2.2,0,0,0,15,21.47c0,.17,0,.34,0,.51,0,.56,0,.57-.54.3,0-.15,0-.29,0-.44a2.45,2.45,0,0,0,0-.38,2,2,0,0,1,.52-1.52c.19-.25.41-.49.63-.74H13.81Zm2.63-4.49,0,.07L17.83,18l-.43-.4Zm-1.7-1.19-.44.4,1.35.86,0-.06Zm2.43,3.61.27-.16a3.76,3.76,0,0,0-1-1.56Zm-2.16-1a2,2,0,0,0-.3,1.8A4.64,4.64,0,0,1,15,20.27Zm0-2.72.62.79A1.13,1.13,0,0,0,15,17.55Zm1.48.69.05,0,.57-.72A1.25,1.25,0,0,0,16.49,18.24Z"/><path d="M17.82,11.57l-.26.94-.8-.27L17,11.3Z"/><path d="M16.43,3.61l.74-.21.12.49-.74.21Z"/><path d="M7.66,1.42,7.79,2l-.42.12c0-.19-.09-.36-.12-.53a.19.19,0,0,1,.09-.11A1.79,1.79,0,0,1,7.66,1.42Z"/><path d="M9.57,15.54l-.43.11L9,15l.43-.12Z"/><path d="M11.34,3.2l-.21-.42.45-.3.22.41Z"/><path d="M3.44,10.92l-.21-.42.47-.29.2.42Z"/><path d="M13.66,5.86l-.21-.42.46-.3.21.42Z"/><path d="M3.87,14.16l.2.42-.46.29-.21-.42Z"/><path d="M10.16,6.82,10,6.4l.46-.29.21.41Z"/><path d="M6.9,5l-.46.3-.22-.4.45-.31Z"/><path d="M6.15,8.22l-.47.28-.21-.41.46-.29Z"/><path d="M18.81,16.1l-.46.29L18.14,16l.46-.29Z"/><path d="M5.81,11.52l.46-.3.21.42L6,11.93Z"/><path d="M9.79,11.68l-.4.23-.2-.43.4-.24Z"/><path d="M9.22,3.16l.4-.24.2.43-.39.24Z"/><path d="M14.49,9l.42-.12.11.49-.42.13Z"/><path d="M6.29,15.62l.19.43-.4.24-.19-.44Z"/><path d="M12.66,8.43l.41-.12.12.5-.42.11Z"/><path d="M1.58,8.55l.06.29-.21.05L1.37,8.6Z"/><path d="M16.45,6.87l.26.08-.05.24-.26-.08Z"/><path d="M7.9,18.46l.27.09-.06.23-.25-.09Z"/><path d="M15.34,14.4l-.25-.1.05-.23.27.08Z"/><path d="M12.75,6.52l.06-.23.25.08L13,6.61Z"/><path d="M4.12,6.4l-.18,0c-.12-.29-.11-.31.13-.32Z"/><path d="M1.18,5.29l.06-.23.25.08-.05.24Z"/><path d="M14,2.76l.24.08-.05.22C13.88,3,13.88,3,14,2.76Z"/><path d="M1.4,13.56l.25.08-.07.22C1.3,13.81,1.3,13.81,1.4,13.56Z"/><path d="M11.3,14.23l.07-.24.25.09-.06.23Z"/><path d="M4.57,3l.06-.23.24.07,0,.25Z"/><path d="M3.22,2.84,3,2.91a.79.79,0,0,1,0-.25c0-.05.1-.08.18-.15Z"/><path d="M13.1,16.29l-.23-.08.05-.2C13.18,16,13.21,16.05,13.1,16.29Z"/><path d="M13.65,12.7l-.06.23-.26-.07.06-.23Z"/><path d="M9.7,9.51l.06.3-.2.07a.82.82,0,0,1,0-.26S9.62,9.56,9.7,9.51Z"/><path d="M1.18,17.48l.06-.23.25.07-.05.24Z"/></g><path class="cls-4" d="M9.8,21.74c-.11-.16,0-.51.19-.52a5.62,5.62,0,0,1,.92.07c.36.07.72.17,1.07.26l.17,0c-.12-.19-.24-.35-.34-.51a2.55,2.55,0,0,1-.23-.43c-.1-.22,0-.34.22-.52s.31-.06.44.09l.21.22c0-.09,0-.15,0-.21,0-.22,0-.45,0-.67a.49.49,0,0,1,.6-.46c.08,0,.21.14.21.22,0,.43,0,.87,0,1.3,0,.11-.06.21.12.25s.18.31.11.43a1.63,1.63,0,0,1-.11.23,2,2,0,0,1-.14.23l.27,0v2h-.92l.26.28c-.31,0-.6.09-.83-.19a.4.4,0,0,0-.27-.08H5.44l0-.25c-.15,0-.3,0-.44,0a19,19,0,0,1-3.53-.19c-.12,0-.14-.06-.14-.17V21c0-.16.06-.22.21-.23l1.38-.1-.17-.09c-.21-.11-.23-.26,0-.39A1,1,0,0,1,3.79,20c-.12-.23-.23-.39-.31-.58a.45.45,0,0,1,.37-.63.26.26,0,0,1,.18.07c.11.08.21.17.3.25,0-.17,0-.37.08-.57a.57.57,0,0,1,.69-.33.26.26,0,0,1,.12.19,8.42,8.42,0,0,1,0,.87c0,.14-.1.29.13.34a.1.1,0,0,1,0,.07c.06.18.19.18.35.22a2.44,2.44,0,0,1,.71.34.16.16,0,0,1-.06.26l-.25.13,1.33.06c.61,0,.61,0,.61.62v.4ZM5.67,23.5h6.15l.36-1.22A3.88,3.88,0,0,1,10.61,22H5.67ZM1.54,21.12v2l2.66.17V21.21Zm3.37.09v2c.51,0,.51,0,.51-.44v-1H7.8v-.63Zm8.39,2.3V22.05h-.43c.19.53-.11,1-.24,1.46Zm-.7-1,0-.25H12.5c-.11.26-.23.52-.32.79a.91.91,0,0,0,0,.33s.07.09.11.1a.17.17,0,0,0,.13-.07l.33-1-.06,0Zm-2.52-1.11v.07a2.34,2.34,0,0,0,1.47.25v-.07ZM3.81,19.12l.55.88A1,1,0,0,0,3.81,19.12Zm8.65,2.08c0-.31-.27-.81-.53-.84Zm.54-.55h.09c0-.39,0-.78,0-1.17,0,0,0-.08-.1-.17Zm-9.33,0,0-.08c-.25,0-.39-.44-.75-.15Zm2.41-.24c-.25-.15-.49-.07-.76.25Zm6.64.29h0v-1h0ZM5,18.49H4.91v.92A2,2,0,0,0,5,18.49Zm-.36,1h0l0-.78H4.62Z"/><path class="cls-4" d="M18.76,23.76h-5V19.11H15.3l0,0-.22-.14a7,7,0,0,1-.61-.46c-.25-.2-.25-.3-.05-.54a2.68,2.68,0,0,1,.45-.5.45.45,0,0,1,.39,0,1.4,1.4,0,0,1,.48.39,9.11,9.11,0,0,1,.52.92,1.63,1.63,0,0,1,.09-.19c.14-.26.27-.53.43-.78a.85.85,0,0,1,.71-.39.19.19,0,0,1,.13,0c.17.18.34.37.5.57s.13.3-.06.45-.56.43-.86.65h1.54Zm-.24-.26V19.4H16.79c.25.34.5.67.73,1a2,2,0,0,1,.37,1.12,1.62,1.62,0,0,0-.34.13,1.72,1.72,0,0,0-.26.23l-.64-1.5h0v3.1ZM14,23.5h1.85V20.06a2.17,2.17,0,0,0-.66,1.61c0,.17,0,.34,0,.51,0,.55,0,.57-.54.3,0-.15,0-.29,0-.44s0-.25,0-.38a2,2,0,0,1,.51-1.52c.2-.25.42-.49.64-.74H14ZM16.64,19l0,.07L18,18.21l-.43-.4Zm-1.7-1.19-.44.4,1.35.85,0-.05Zm2.43,3.61.27-.16a3.79,3.79,0,0,0-1-1.56Zm-2.16-1a2,2,0,0,0-.3,1.81A4.72,4.72,0,0,1,15.21,20.46Zm0-2.71.62.78A1.13,1.13,0,0,0,15.21,17.75Zm1.48.69,0,0,.57-.72C17,17.88,16.84,18.16,16.69,18.44Z"/><path class="cls-4" d="M18,11.77l-.26.94-.8-.27.25-.94Z"/><path class="cls-4" d="M16.63,3.81l.74-.21.11.49-.74.21Z"/><path class="cls-4" d="M7.86,1.62,8,2.23l-.42.11c-.05-.18-.09-.35-.12-.52s0-.1.08-.11A2.22,2.22,0,0,1,7.86,1.62Z"/><path class="cls-4" d="M9.77,15.74l-.43.11-.13-.61.43-.12Z"/><path class="cls-4" d="M11.54,3.4,11.32,3l.46-.3.22.41Z"/><path class="cls-4" d="M3.64,11.12l-.21-.42.47-.29.2.42Z"/><path class="cls-4" d="M13.86,6.06l-.21-.42.46-.3.21.42Z"/><path class="cls-4" d="M4.07,14.36l.2.42-.47.29-.2-.42Z"/><path class="cls-4" d="M10.36,7l-.21-.42.46-.3.21.42Z"/><path class="cls-4" d="M7.09,5.15l-.45.3L6.42,5l.45-.3Z"/><path class="cls-4" d="M6.35,8.42l-.47.28-.21-.41L6.13,8Z"/><path class="cls-4" d="M19,16.29l-.46.3-.21-.42.46-.29Z"/><path class="cls-4" d="M6,11.72l.46-.3.21.42-.46.29Z"/><path class="cls-4" d="M10,11.88l-.4.23-.2-.43.4-.24Z"/><path class="cls-4" d="M9.42,3.36l.4-.25.2.43-.39.24Z"/><path class="cls-4" d="M14.69,9.15,15.11,9l.11.49-.42.13Z"/><path class="cls-4" d="M6.49,15.82l.19.43-.4.24-.19-.44Z"/><path class="cls-4" d="M12.86,8.63l.41-.12.12.5L13,9.12Z"/><path class="cls-4" d="M1.78,8.75,1.84,9l-.21.05L1.57,8.8Z"/><path class="cls-4" d="M16.65,7.07l.26.08-.06.24-.25-.08Z"/><path class="cls-4" d="M8.1,18.65l.27.09L8.31,19l-.25-.08Z"/><path class="cls-4" d="M15.54,14.59l-.26-.09.06-.23.26.08Z"/><path class="cls-4" d="M13,6.72,13,6.49l.25.08,0,.24Z"/><path class="cls-4" d="M4.32,6.59l-.18.06C4,6.36,4,6.34,4.26,6.33Z"/><path class="cls-4" d="M1.38,5.49l.06-.23.25.08-.05.24Z"/><path class="cls-4" d="M14.17,3l.24.07-.06.23C14.08,3.2,14.08,3.2,14.17,3Z"/><path class="cls-4" d="M1.6,13.76l.24.08-.06.22C1.5,14,1.5,14,1.6,13.76Z"/><path class="cls-4" d="M11.5,14.43l.07-.24.25.09-.06.23Z"/><path class="cls-4" d="M4.76,3.19,4.83,3,5.07,3l0,.24Z"/><path class="cls-4" d="M3.41,3l-.2.06a.74.74,0,0,1,0-.24s.1-.08.18-.15Z"/><path class="cls-4" d="M13.3,16.49l-.23-.09,0-.19C13.38,16.2,13.41,16.24,13.3,16.49Z"/><path class="cls-4" d="M13.85,12.9l-.06.23-.26-.08.05-.23Z"/><path class="cls-4" d="M9.9,9.71,10,10l-.2.07a.84.84,0,0,1,0-.27S9.82,9.75,9.9,9.71Z"/><path class="cls-4" d="M1.38,17.68l.06-.24.25.08-.05.24Z"/></g></g></svg>