<svg xmlns="http://www.w3.org/2000/svg" viewBox="0 0 38.55 24.66"><defs><style>.cls-1{isolation:isolate;}.cls-2{opacity:0.15;}.cls-2,.cls-3{mix-blend-mode:multiply;}.cls-4{fill:#fff;}</style></defs><title>convert-FIX-SVG-04 for app</title><g class="cls-1"><g id="Layer_1" data-name="Layer 1"><g class="cls-2"><path d="M24.15,13.54l-1.79.93.83,1.14.17.24c.24.32.23.32,0,.6a.23.23,0,0,1-.3.05l-4.68-1.72-.55-.2c-.22-.07-.27-.16-.2-.38a2.87,2.87,0,0,1,.21-.51,11,11,0,0,1,1.54-2.17c.44-.48.52-.47.89.05l.7,1a12.24,12.24,0,0,1,2.6-2.28,2.92,2.92,0,0,0,.87-.69l.13-.18a2.6,2.6,0,0,1-.9-1,3.51,3.51,0,0,1-.19-2.28,1.68,1.68,0,0,0-.06-1.15,1.8,1.8,0,0,1-.09-1.17,1.72,1.72,0,0,1,2-1.28,3.11,3.11,0,0,1,.45.22.36.36,0,0,0,.24.06,5.91,5.91,0,0,1,2.37-.15.5.5,0,0,0,.26-.08A2.45,2.45,0,0,1,29.69,2a1.79,1.79,0,0,1,1.87.8,2.14,2.14,0,0,1,.11,2.53.56.56,0,0,0-.07.42,3.78,3.78,0,0,1-.12,2.16,4.28,4.28,0,0,1-.41.76.24.24,0,0,0,0,.28,5.24,5.24,0,0,1,.6,2.67,1.6,1.6,0,0,1-.34,1,.31.31,0,0,0,0,.39l.35-.26a6.9,6.9,0,0,1,1.66-.92,1.58,1.58,0,0,1,1.43.16,2.9,2.9,0,0,1,1.37,1.63,2.09,2.09,0,0,1-2.13,2.62,2.18,2.18,0,0,1-.73-.25.29.29,0,0,0-.31,0c-.84.36-1.67.73-2.52,1.08a1.43,1.43,0,0,1-1.23,0A.22.22,0,0,0,29,17l-1.29.32-.09,0c.15.74.3,1.47.44,2.2a2.21,2.21,0,0,1-.43,2,2.81,2.81,0,0,1-2.76,1,1.57,1.57,0,0,1-1.33-2A10,10,0,0,1,24,19a4.73,4.73,0,0,0,.26-2.11c-.06-.65,0-1.31,0-2,0-.23,0-.46,0-.69Zm6.79-.61-.17.08a1.61,1.61,0,0,1-1,.11,2,2,0,0,1-1.41-1.27.68.68,0,0,0-.12-.22,4.83,4.83,0,0,1-.73-.77c-.23-.35-.46-.56-.89-.47-.05,0-.1,0-.15,0s-.35,0-.43.07a4.43,4.43,0,0,0-1.41,2.09,3.59,3.59,0,0,0-.14,1.56,4.29,4.29,0,0,0,1.17,2.17,2.73,2.73,0,0,0,3.19.5,4.6,4.6,0,0,1,0-.53,2.93,2.93,0,0,1,.54-1.3,7.77,7.77,0,0,1,1.43-1.6C30.94,13.22,31,13.12,30.94,12.93Zm.38-7.13A.86.86,0,0,1,30.51,5a.38.38,0,0,0-.08-.17,4.27,4.27,0,0,0-1.16-1,.49.49,0,0,0-.17-.06,4.13,4.13,0,0,1-.63-.14c-.39-.16-.42-.29-.24-.66l0-.09c-.25,0-.52,0-.78,0a5.91,5.91,0,0,0-1,.12,3.07,3.07,0,0,0-2.54,2.73c.13-.13.24-.17.3,0a3.14,3.14,0,0,1,.72-.26,2.72,2.72,0,0,1,1.46.26,1.62,1.62,0,0,1,1,1.28,5.91,5.91,0,0,1,0,.84,1.84,1.84,0,0,1-.81,1.61s0,0,0,0l1.33.12c0-.09,0-.16,0-.22a2.14,2.14,0,0,1,.3-1.42,1.17,1.17,0,0,1,1.22-.62,1.43,1.43,0,0,1,1,.63c.16.19.3.38.45.58A3.17,3.17,0,0,0,31.32,5.8Zm2,9.92a2.68,2.68,0,0,0,.55.18,1.8,1.8,0,0,0,2-2.17,2.48,2.48,0,0,0-1.12-1.46,1.41,1.41,0,0,0-1.55-.15,8.49,8.49,0,0,0-1.65,1,7.31,7.31,0,0,0-2.07,2.29,3,3,0,0,0-.31.93c-.06.29.08.41.37.49a1.69,1.69,0,0,0,.89-.11,20.36,20.36,0,0,0,3.22-1.48l.25-.13.13.24Zm-8.07.54c.06.37.12.68.17,1a4.57,4.57,0,0,1-.26,2.53,5.59,5.59,0,0,0-.27,1.29,7.18,7.18,0,0,0,0,.93l-.2.05a4.29,4.29,0,0,1,.23-2.41,3.5,3.5,0,0,0,.28-1.94c-.07-.51-.16-1-.23-1.52,0-.09.06-.21,0-.28a7.84,7.84,0,0,0-.41-.69V16.9a6.19,6.19,0,0,1,0,1.14,12.54,12.54,0,0,1-.44,1.44,3.74,3.74,0,0,0-.28,1.84.82.82,0,0,0,.7.74,3,3,0,0,0,.9,0A5.42,5.42,0,0,0,27.62,21a.33.33,0,0,0,.14-.22,4.31,4.31,0,0,0,0-1c-.11-.77-.28-1.53-.44-2.3a.26.26,0,0,0-.17-.13,2.84,2.84,0,0,1-1.5-.63Zm4.67-3.42a1.22,1.22,0,0,0,1.45-1.08,5,5,0,0,0-1.52-4c-.34-.33-.64-.27-.8.16a3.32,3.32,0,0,0,.14,2.42A11.46,11.46,0,0,1,29.91,12.84ZM24.62,9c.27.09.51.19.76.25A1.27,1.27,0,0,0,27,8.2a5.51,5.51,0,0,0,0-1.22,1.2,1.2,0,0,0-.76-1,3.93,3.93,0,0,0-1-.28,1.3,1.3,0,0,0-1.48.94,2.45,2.45,0,0,0,.08,1.49s0,.07,0,.07l.47.19a.53.53,0,0,0-.11-.52c-.12-.14-.24-.27-.35-.42a.27.27,0,0,1-.06-.19c.07-.36.18-.44.55-.43a1.61,1.61,0,0,0,.31,0c.27-.07.4.05.47.3a.24.24,0,0,1,0,.28c-.12.14-.23.29-.34.44a.24.24,0,0,0,.08.38c.37.24.37.24.7,0h.05l.21.19-.52.52-.54-.27Zm-1.11,4.55a1.23,1.23,0,0,0,.82-1,1.42,1.42,0,0,1,.07-.22,2.9,2.9,0,0,0,.32-1.47s0-.07,0-.1c0-.34,0-.67,0-1-.26.21-.45.4-.67.56s-.67.4-1,.65c-.62.52-1.2,1.08-1.8,1.63-.12.12-.15.23,0,.37s.21.3.33.44a.26.26,0,0,0,.19.07c.34,0,.69-.06,1-.05A4.94,4.94,0,0,1,23.51,13.57Zm-4.12,1.29c.31.11.59.2.86.32a.3.3,0,0,0,.39-.1A1.67,1.67,0,0,0,21,14.2a1.78,1.78,0,0,0-.36-1.64,3.59,3.59,0,0,1-.4-.54L20,11.69c-.18.31-.35.6-.5.89a.36.36,0,0,0,0,.23c.07.28.18.54.23.81A1.1,1.1,0,0,1,19.39,14.86ZM31.21,5.49a2,2,0,0,0,.44-2,1.74,1.74,0,0,0-1.48-1.28,2,2,0,0,0-1.79,1,2.51,2.51,0,0,0,.57.18c.11,0,.22-.14.33-.22A1,1,0,0,1,30.12,3a1.2,1.2,0,0,1,.79,1.74C30.71,5.07,30.8,5.33,31.21,5.49Zm-9.86,8.06a9.24,9.24,0,0,1-.14,1,6.42,6.42,0,0,1-.39.85c.31.12.65.25,1,.36a.25.25,0,0,0,.2-.05.73.73,0,0,0,.17-.71C22.11,14.4,21.65,14,21.35,13.55Zm7-2.88c0,.88.55,1.94,1.3,2.09-.2-.67-.39-1.3-.59-1.94a.15.15,0,0,0-.13-.08ZM25.5,2.89c-.36-.38-1.08-.15-1.53.23A1.59,1.59,0,0,0,23.73,5a.61.61,0,0,0,.07-.54.57.57,0,0,1,.56-.79.43.43,0,0,0,.21-.09ZM18.13,14.4l.64.23a.51.51,0,0,0,.72-.44A2.49,2.49,0,0,0,19.25,13ZM28.86,7.63a1.09,1.09,0,0,0-.55.61,2.38,2.38,0,0,0,.05,1.92c.11.27.23.32.55.26A3.6,3.6,0,0,1,28.86,7.63ZM17.94,14.1a7.65,7.65,0,0,0,1.73-2.52A10,10,0,0,0,17.94,14.1Zm4.33,1.82.79.28a.2.2,0,0,0,.13,0c0-.05,0-.1,0-.14a3,3,0,0,0-.2-.29c-.15-.19-.29-.39-.42-.57ZM26,9.74H25l.08.56.72-.18C26,10.06,26,10.05,26,9.74Zm1.17.35a.83.83,0,0,0,0-.22s-.07-.14-.11-.14h-.76v.38H27Zm.92.47c0-.14,0-.23,0-.32s0-.18-.08-.2a4.14,4.14,0,0,0-.58-.17c0,.16,0,.32.1.37A2.66,2.66,0,0,0,28.05,10.56Zm-2.44-.12c-.6.13-.67.22-.58.67Zm2.11.3.4.49C28.15,10.92,28,10.78,27.72,10.74Z"/><path d="M3,4.18H4.15c-.33.07-.36.32-.36.6v.6H5.18a6.47,6.47,0,0,0,0-.88c0-.12-.18-.23-.25-.32h1c-.3.07-.34.29-.34.55q0,.75,0,1.5c0,.26,0,.48.34.56H4.86c.38-.1.32-.41.33-.69V5.5H3.81c0,.31,0,.62,0,.92s.08.26.37.36H3.05c.35-.07.35-.34.35-.62,0-.48,0-1,0-1.44C3.4,4.39,3.34,4.3,3,4.18Z"/><path d="M3.46,9v.78c0,.31,0,.62,0,.93s.07.43.34.49H3.05c.34-.07.35-.34.35-.61,0-.5,0-1,0-1.48,0-.31-.07-.4-.41-.52h.66a.41.41,0,0,1,.19.14l1.25,1.59.19.24c0-.58,0-1.11,0-1.64,0-.12-.17-.23-.25-.32h.72c-.32.06-.36.29-.36.56V11a.5.5,0,0,1-.06.24L4.41,10.1,3.52,9Z"/><path d="M4.78,15.56H3.67c.36-.07.35-.36.36-.63A1.3,1.3,0,0,0,3.75,14c-.17-.22-.3-.46-.46-.68A2.85,2.85,0,0,0,3,13H4c-.3.13-.32.2-.13.51l.5.78c.2-.31.4-.59.56-.88s0-.29-.24-.41h.72L5,13.46a3.37,3.37,0,0,1-.21.31A1.52,1.52,0,0,0,4.41,15C4.43,15.25,4.46,15.49,4.78,15.56Z"/><path d="M8.33,11.25a11.9,11.9,0,0,0-.67-1.69H8.3c-.19.07-.18.22-.13.37l.26.87.11-.28c.08-.2.16-.4.23-.61s.06-.27-.11-.34h.72c-.24.07-.24.2-.19.35a8.12,8.12,0,0,0,.27.84c.11-.3.23-.61.31-.92,0-.08-.07-.19-.12-.28h.43a3,3,0,0,0-.23.35c-.15.36-.29.73-.43,1.1a.5.5,0,0,1-.13.19L8.85,9.9Z"/><path d="M8.62,6.76,8.4,6.67c.06.3-.15.64.27.84H7.79a.38.38,0,0,0,.31-.44V5.55c0-.18,0-.34-.25-.4l.52-.08.05.19.24-.08a.9.9,0,0,0-.25.76A1,1,0,0,0,8.62,6.76Z"/><path d="M9.92,5.15l.52-.08.06.18.24-.07a.87.87,0,0,0-.26.77,1,1,0,0,0,.21.8l-.18-.06c-.11.41,0,.67.23.81h-.8c.21-.06.24-.23.24-.41V5.56C10.18,5.37,10.14,5.21,9.92,5.15Z"/><path d="M11.09,14.24l-.24,0a.94.94,0,0,1,.44-.76,1.61,1.61,0,0,1,1-.24c.48,0,.95.1,1.45.16l-.08.26c-.49,0-.95-.12-1.42-.13S11.22,13.63,11.09,14.24Z"/><path d="M15.1,14.4l-.23,0a1.1,1.1,0,0,1,.6-1.23,3.06,3.06,0,0,1,1.69-.28v.22c-.34,0-.67.06-1,.11a1.73,1.73,0,0,0-.44.14A.94.94,0,0,0,15.1,14.4Z"/><path d="M12,5.15h.65c-.19.08-.15.23-.1.38l.35,1c.14-.38.27-.69.37-1,0-.09-.06-.2-.09-.31h.38a4.6,4.6,0,0,0-.25.44c-.22.53-.43,1.07-.65,1.6-.07.16-.16.31-.36.32a.51.51,0,0,1-.22-.09.2.2,0,0,1,0-.11.5.5,0,0,1,.21,0c.14.07.21,0,.27-.1a.69.69,0,0,0,0-.64c-.16-.36-.29-.73-.44-1.1A2.69,2.69,0,0,0,12,5.15Z"/><path d="M7.09,15.09a.6.6,0,0,1-.73.52.79.79,0,0,1-.77-.82A.77.77,0,0,1,6.18,14l-.28.49h.84a.45.45,0,0,0-.42-.53.59.59,0,0,1,.74.57H6a.8.8,0,0,0,.43.95C6.68,15.55,6.88,15.46,7.09,15.09Z"/><path d="M6.56,9.61l-.28.48h.83c0-.3-.08-.46-.4-.51a.57.57,0,0,1,.73.56H6.35a.79.79,0,0,0,.37.93c.3.13.5,0,.74-.31,0,.3-.25.48-.63.48a.77.77,0,0,1-.85-.7A.77.77,0,0,1,6.56,9.61Z"/><path d="M14.29,5a4.14,4.14,0,0,0,1,2.49l-.18.21A4.39,4.39,0,0,1,14,5Z"/><path d="M17.49,10.89l-.25.14a3.3,3.3,0,0,1-1.39-2.31h.27A3.26,3.26,0,0,0,17.49,10.89Z"/><path d="M9.78,15.56H9c.39-.18.25-.51.25-.77s.14-.6-.23-.79l.48-.08,0,.23a2.53,2.53,0,0,1,.36-.2.4.4,0,0,1,.24,0c.06,0,.11.1.15.16s0,.11-.06.11a.31.31,0,0,1-.19-.06c-.2-.16-.38-.13-.41.12a6.39,6.39,0,0,0,0,1.07C9.6,15.41,9.71,15.48,9.78,15.56Z"/><path d="M17.14,4.52l.06.22c-.49.24-.58.71-.67,1.18,0,.24-.05.49-.08.74h-.23C16.14,6,16.43,4.6,17.14,4.52Z"/><path d="M8.15,14.72a.45.45,0,0,0,.11-.55A.39.39,0,0,0,8,14c-.07,0-.16.09-.24.15s0,0,0,.06a.75.75,0,0,1-.17.14s-.13-.09-.12-.11A.39.39,0,0,1,7.59,14a.87.87,0,0,1,.84,0,.44.44,0,0,1,.17.31c0,.28,0,.56,0,.84s.06.32.35.27c-.28.31-.5.06-.7-.06l.07-.74-.19.06Z"/><path d="M7,6a.45.45,0,0,0,.12-.55.43.43,0,0,0-.26-.2c-.07,0-.16.09-.24.15s0,.05,0,.06a1.3,1.3,0,0,1-.18.15s-.12-.09-.12-.12a.39.39,0,0,1,.14-.21.89.89,0,0,1,.85,0,.47.47,0,0,1,.16.31,7.85,7.85,0,0,1,0,.84c0,.27.06.32.33.27v.07a1.19,1.19,0,0,1-.37.06c-.12,0-.22-.13-.31-.18l.06-.75L7,6Z"/><path d="M19.11,11.26l-.25.12-.78-2,.17-.06.09,0Z"/><path d="M13.08,11.74a2.52,2.52,0,0,1,.42-.24c.51-.14,1-.26,1.57-.4l.07.28-1.27.29c-.13,0-.26.1-.39.13l-.36.07Z"/><path d="M10.88,6.82A.76.76,0,0,0,11.44,6a.74.74,0,0,0-.53-.82.67.67,0,0,1,.7.27.91.91,0,0,1,.05,1A.72.72,0,0,1,10.88,6.82Z"/><path d="M8.8,5.15a.75.75,0,0,1,.76.33.91.91,0,0,1,0,1,.79.79,0,0,1-.81.36A.78.78,0,0,0,9.37,6,.78.78,0,0,0,8.8,5.15Z"/><path d="M20.67,18l.12-.52.63.14a.39.39,0,0,1,0,.06C21.34,18.17,21.29,18.19,20.67,18Z"/><path d="M19,8l.12-.44.37.09.37.09-.11.44Z"/><path d="M7.19,18.5l.11-.44.38.09.36.09-.1.44Z"/><path d="M8.14,14.72l-.23.17a.41.41,0,0,0,0,.71.49.49,0,0,1-.49-.17.38.38,0,0,1,.2-.57c.17-.06.34-.09.51-.14Z"/><path d="M7,6l-.24.17a.41.41,0,0,0,0,.71.49.49,0,0,1-.49-.17.38.38,0,0,1,.21-.57C6.62,6,6.79,6,7,6Z"/><path d="M13.37,11l-.43-.11.12-.54.43.1Z"/><path d="M13.36,3l.43.12-.14.53-.43-.11Z"/><path d="M11.35,19.93l-.46-.27.21-.36.46.26Z"/><path d="M11.7,16.89l-.47-.26.2-.37.47.25Z"/><path d="M16.94,3.1l-.21.37-.47-.26.21-.37Z"/><path d="M13.47,18.77l.21-.37.46.25L14,19Z"/><path d="M18.64,19.4l-.22.37L18,19.5l.21-.36Z"/><path d="M14,22.16l-.2.37-.48-.25.21-.38Z"/><path d="M9.85,12.72l-.46-.26.21-.37.46.26Z"/><path d="M19.57,5l-.47-.27.22-.37.46.27Z"/><path d="M9.52,21.42l-.4-.2.19-.39.41.2Z"/><path d="M22.18,3.35,22,3.72l-.4-.2.2-.38Z"/><path d="M21.21,22.17l-.41-.1.1-.44.42.1Z"/><path d="M16.46,8.54l-.39-.1.09-.39C16.58,8,16.65,8.11,16.46,8.54Z"/><path d="M6.56,16.3l.21.05,0,.26-.21,0Z"/><path d="M2.53,16.79l-.07-.2.26-.09.06.2Z"/><path d="M15.8,16.91,16,17l-.05.24-.21,0Z"/><path d="M13.34,14.76l.19,0-.06.24C13.24,15,13.23,15,13.34,14.76Z"/><path d="M22.36,10.29l.06.21-.27.07,0-.2Z"/><path d="M2.36,12l-.07-.21.27-.08.06.21Z"/><path d="M18.47,11.41c-.3,0-.18-.15-.15-.29l.21.06Z"/><path d="M4,20.53l0,.21-.24.08-.08-.2Z"/><path d="M16,12.38l-.27.08-.05-.21.24-.07Z"/><path d="M27.81,5.53a.53.53,0,0,1,.49.55.53.53,0,0,1-.51.54.52.52,0,0,1-.47-.55A.5.5,0,0,1,27.81,5.53Z"/><path d="M30.46,16.29c-.29,0-.4-.18-.27-.38a.79.79,0,0,1,.66-.39.3.3,0,0,1,.23.11.36.36,0,0,1,0,.27A.83.83,0,0,1,30.46,16.29Z"/><path d="M24.34,13.74l-1.78.92.83,1.15.17.24c.24.32.23.31,0,.6a.23.23,0,0,1-.3.05L18.56,15l-.56-.2c-.21-.07-.27-.16-.2-.39a3.16,3.16,0,0,1,.22-.5,10.3,10.3,0,0,1,1.54-2.17c.44-.48.51-.47.89,0l.7,1a12.24,12.24,0,0,1,2.6-2.28,2.92,2.92,0,0,0,.87-.69l.13-.18a2.56,2.56,0,0,1-.9-1,3.48,3.48,0,0,1-.19-2.27,1.66,1.66,0,0,0-.07-1.16A1.77,1.77,0,0,1,23.51,4a1.72,1.72,0,0,1,2-1.28,3,3,0,0,1,.44.22.37.37,0,0,0,.24.06,6.11,6.11,0,0,1,2.37-.16.38.38,0,0,0,.26-.07,2.55,2.55,0,0,1,1.08-.56,1.78,1.78,0,0,1,1.87.8,2.14,2.14,0,0,1,.11,2.53.57.57,0,0,0-.08.42,3.7,3.7,0,0,1-.11,2.16,4.66,4.66,0,0,1-.41.76.21.21,0,0,0,0,.27,5.19,5.19,0,0,1,.61,2.67,1.62,1.62,0,0,1-.34,1,.31.31,0,0,0-.05.4l.35-.26A6.9,6.9,0,0,1,33.47,12a1.55,1.55,0,0,1,1.43.16,2.9,2.9,0,0,1,1.37,1.63,2.09,2.09,0,0,1-2.14,2.62,2.23,2.23,0,0,1-.72-.26.34.34,0,0,0-.31,0c-.84.37-1.67.74-2.52,1.09a1.43,1.43,0,0,1-1.23,0,.22.22,0,0,0-.14,0l-1.29.32-.09,0c.14.74.3,1.47.44,2.2a2.21,2.21,0,0,1-.43,2,2.81,2.81,0,0,1-2.76,1,1.57,1.57,0,0,1-1.34-2,11.22,11.22,0,0,1,.49-1.59A4.73,4.73,0,0,0,24.49,17c-.06-.66,0-1.32,0-2,0-.23,0-.46-.05-.69S24.36,13.94,24.34,13.74Zm6.8-.61-.17.08a1.63,1.63,0,0,1-1,.11,2,2,0,0,1-1.4-1.27,1.14,1.14,0,0,0-.12-.22,6,6,0,0,1-.74-.77c-.22-.35-.45-.57-.89-.47,0,0-.09,0-.14,0s-.35,0-.43.07a4.45,4.45,0,0,0-1.41,2.08,3.64,3.64,0,0,0-.14,1.57,4.35,4.35,0,0,0,1.16,2.17A2.76,2.76,0,0,0,29,17c0-.19,0-.36,0-.54a3,3,0,0,1,.55-1.29A7.77,7.77,0,0,1,31,13.53.31.31,0,0,0,31.14,13.13ZM31.52,6a.85.85,0,0,1-.81-.84A.38.38,0,0,0,30.63,5a4.27,4.27,0,0,0-1.16-1,.58.58,0,0,0-.17-.06,4.13,4.13,0,0,1-.63-.14c-.39-.16-.42-.3-.24-.67l0-.08c-.25,0-.52,0-.78,0a5.8,5.8,0,0,0-1,.12,3.06,3.06,0,0,0-2.54,2.72c.12-.12.24-.16.29,0a2.92,2.92,0,0,1,.73-.26,2.74,2.74,0,0,1,1.46.26,1.59,1.59,0,0,1,1,1.28,4.74,4.74,0,0,1,.05.84,1.82,1.82,0,0,1-.82,1.61v0l1.34.13c0-.09,0-.16,0-.22a2.2,2.2,0,0,1,.29-1.42,1.19,1.19,0,0,1,1.22-.62,1.43,1.43,0,0,1,1,.63c.16.18.3.38.45.57A3.16,3.16,0,0,0,31.52,6Zm2,9.93a2.82,2.82,0,0,0,.54.18,1.81,1.81,0,0,0,2-2.18,2.49,2.49,0,0,0-1.12-1.45,1.41,1.41,0,0,0-1.55-.15,7.77,7.77,0,0,0-1.65,1,7.31,7.31,0,0,0-2.07,2.29,3,3,0,0,0-.31.93c-.06.29.08.41.37.48a1.51,1.51,0,0,0,.89-.11,21.7,21.7,0,0,0,3.22-1.47l.25-.13.13.24Zm-8.07.54c.06.37.12.68.17,1A4.58,4.58,0,0,1,25.35,20a5.59,5.59,0,0,0-.27,1.29,7.15,7.15,0,0,0,0,.93l-.2.05a4.21,4.21,0,0,1,.23-2.41,3.59,3.59,0,0,0,.28-1.94c-.07-.51-.16-1-.23-1.53,0-.09.05-.2,0-.27a7.84,7.84,0,0,0-.41-.69V17.1a6.06,6.06,0,0,1,0,1.13,12.16,12.16,0,0,1-.45,1.45A3.85,3.85,0,0,0,24,21.52a.84.84,0,0,0,.71.74,3.39,3.39,0,0,0,.9,0,5.55,5.55,0,0,0,2.2-1.09A.34.34,0,0,0,28,21a3.84,3.84,0,0,0,.06-1c-.11-.77-.28-1.53-.44-2.3a.26.26,0,0,0-.17-.13,2.77,2.77,0,0,1-1.5-.64ZM30.11,13A1.22,1.22,0,0,0,31.56,12a5,5,0,0,0-.17-1.76A4.94,4.94,0,0,0,30,8c-.34-.33-.65-.27-.8.15a3.3,3.3,0,0,0,.14,2.43A12,12,0,0,1,30.11,13ZM24.82,9.21a6.86,6.86,0,0,0,.76.26A1.27,1.27,0,0,0,27.23,8.4a5.52,5.52,0,0,0,0-1.22,1.2,1.2,0,0,0-.76-1,4.06,4.06,0,0,0-1-.28,1.3,1.3,0,0,0-1.48.94,2.45,2.45,0,0,0,.07,1.49s0,.07,0,.07l.47.19a.53.53,0,0,0-.11-.52c-.12-.14-.25-.27-.36-.42a.32.32,0,0,1-.05-.19c.07-.36.18-.44.55-.43A1.61,1.61,0,0,0,25,7c.27-.07.4,0,.47.3a.24.24,0,0,1,0,.28c-.13.14-.23.29-.34.43a.24.24,0,0,0,.08.39c.37.24.37.24.7-.05h0l.21.19-.52.52-.54-.28Zm-1.11,4.56a1.23,1.23,0,0,0,.82-1,1,1,0,0,1,.07-.23,2.84,2.84,0,0,0,.32-1.46s0-.07,0-.1c0-.34,0-.67-.05-1-.25.22-.44.41-.66.57a10.67,10.67,0,0,0-1,.64c-.62.53-1.2,1.09-1.8,1.64a.22.22,0,0,0,0,.37c.12.14.21.3.33.44a.29.29,0,0,0,.19.07c.34,0,.69-.06,1-.05A5.26,5.26,0,0,1,23.71,13.77Zm-4.12,1.29c.31.11.59.2.86.32a.29.29,0,0,0,.38-.1,1.61,1.61,0,0,0,.37-.88,1.77,1.77,0,0,0-.36-1.64,4.19,4.19,0,0,1-.4-.54l-.25-.33c-.17.31-.34.6-.49.89a.3.3,0,0,0,0,.23,8.28,8.28,0,0,1,.24.81A1.1,1.1,0,0,1,19.59,15.06ZM31.41,5.68a2,2,0,0,0,.43-2,1.74,1.74,0,0,0-1.47-1.28,2,2,0,0,0-1.79,1,2.54,2.54,0,0,0,.57.19c.1,0,.22-.14.33-.22a1,1,0,0,1,.84-.25,1.2,1.2,0,0,1,.79,1.74C30.9,5.27,31,5.53,31.41,5.68Zm-9.86,8.06a6.74,6.74,0,0,1-.15,1,5,5,0,0,1-.38.86c.31.12.65.25,1,.36a.25.25,0,0,0,.2,0,.73.73,0,0,0,.17-.71C22.31,14.6,21.85,14.23,21.55,13.74Zm7-2.87c0,.87.55,1.94,1.3,2.09-.2-.67-.39-1.3-.59-1.94,0,0-.08-.08-.13-.09ZM25.7,3.08c-.36-.37-1.08-.14-1.53.24a1.58,1.58,0,0,0-.24,1.86A.58.58,0,0,0,24,4.65a.58.58,0,0,1,.56-.8.42.42,0,0,0,.21-.08Q25.24,3.44,25.7,3.08ZM18.33,14.6l.64.23a.51.51,0,0,0,.72-.44,2.59,2.59,0,0,0-.24-1.19ZM29.06,7.83a1.1,1.1,0,0,0-.56.61,2.38,2.38,0,0,0,.06,1.92c.11.27.22.32.54.26A3.64,3.64,0,0,1,29.06,7.83ZM18.14,14.3a7.65,7.65,0,0,0,1.73-2.52A10,10,0,0,0,18.14,14.3Zm4.33,1.82.79.28a.31.31,0,0,0,.13,0c0-.05,0-.1,0-.14a3.06,3.06,0,0,0-.21-.29q-.21-.3-.42-.57Zm3.69-6.18h-1l.08.56.72-.18C26.22,10.25,26.23,10.25,26.16,9.94Zm1.17.35a.83.83,0,0,0,0-.22c0-.06-.07-.14-.11-.14h-.76v.39h.74Zm.92.47c0-.14,0-.24,0-.32s0-.18-.08-.2a5.89,5.89,0,0,0-.58-.18c0,.17,0,.32.09.38A3.74,3.74,0,0,0,28.25,10.76Zm-2.44-.12c-.6.13-.68.22-.58.67Zm2.1.3.41.48C28.35,11.12,28.23,11,27.91,10.94Z"/><path d="M3.22,4.38H4.35C4,4.45,4,4.7,4,5v.61H5.37a6.46,6.46,0,0,0,0-.88c0-.12-.18-.23-.25-.32h1c-.3.07-.35.29-.34.55v1.5c0,.26,0,.48.34.56H5.06c.38-.1.32-.41.33-.69V5.69H4C4,6,4,6.32,4,6.62s.08.26.37.36H3.25c.34-.07.35-.34.35-.62,0-.48,0-1,0-1.44C3.6,4.59,3.54,4.5,3.22,4.38Z"/><path d="M3.66,9.19V10c0,.32,0,.63,0,.94s.07.43.34.49H3.24c.35-.07.35-.34.35-.61,0-.5,0-1,0-1.49,0-.31-.07-.39-.41-.51.26,0,.46,0,.65,0a.39.39,0,0,1,.2.14l1.25,1.59.19.23c0-.57,0-1.1,0-1.63,0-.12-.17-.23-.25-.32h.71c-.31.06-.35.29-.35.55v1.82a.51.51,0,0,1-.06.25L4.61,10.3,3.72,9.18Z"/><path d="M5,15.76H3.87c.36-.08.34-.36.36-.64A1.28,1.28,0,0,0,4,14.18c-.17-.22-.3-.47-.46-.68a2.85,2.85,0,0,0-.34-.35H4.21c-.3.12-.32.2-.13.51l.5.78c.2-.31.4-.59.56-.88s0-.29-.24-.41h.72c-.13.15-.28.32-.43.51s-.13.21-.21.31a1.49,1.49,0,0,0-.37,1.21C4.63,15.45,4.66,15.69,5,15.76Z"/><path d="M8.53,11.44a12.25,12.25,0,0,0-.67-1.68H8.5c-.19.07-.18.22-.13.37l.26.87.11-.28c.08-.2.16-.41.23-.61s.06-.27-.11-.35h.72c-.24.08-.24.21-.19.36a8.12,8.12,0,0,0,.27.84c.11-.3.23-.61.31-.92,0-.08-.08-.19-.12-.28h.43a2.12,2.12,0,0,0-.23.35c-.15.36-.29.73-.43,1.1a.64.64,0,0,1-.13.19l-.44-1.3Z"/><path d="M8.81,7l-.21-.1c.06.31-.15.65.27.85H8a.38.38,0,0,0,.31-.44V5.75c0-.18,0-.34-.26-.4l.53-.09,0,.2.23-.08a1,1,0,0,0-.25.76A1.09,1.09,0,0,0,8.81,7Z"/><path d="M10.12,5.35l.52-.08,0,.18.25-.07a.87.87,0,0,0-.26.77,1,1,0,0,0,.21.8l-.18-.07c-.11.42,0,.67.23.82h-.8c.21-.07.24-.23.24-.42V5.76A.36.36,0,0,0,10.12,5.35Z"/><path d="M11.29,14.43l-.25,0a1,1,0,0,1,.45-.76,1.54,1.54,0,0,1,.95-.24c.47,0,.94.1,1.45.16l-.08.25c-.49,0-1-.11-1.42-.12S11.42,13.83,11.29,14.43Z"/><path d="M15.29,14.6l-.23,0a1.12,1.12,0,0,1,.61-1.23,3,3,0,0,1,1.69-.28v.21c-.34,0-.67.07-1,.12a1.71,1.71,0,0,0-.44.13A1,1,0,0,0,15.29,14.6Z"/><path d="M12.17,5.35h.65c-.19.08-.15.23-.1.37.1.3.22.6.35,1,.14-.38.27-.7.37-1,0-.09-.06-.21-.09-.31h.38a4.6,4.6,0,0,0-.25.44l-.66,1.6c-.06.16-.15.31-.35.32a.43.43,0,0,1-.22-.1s0-.1,0-.1a.37.37,0,0,1,.21,0c.13.07.21,0,.27-.1a.69.69,0,0,0,.05-.64c-.16-.36-.29-.73-.44-1.1C12.31,5.56,12.23,5.46,12.17,5.35Z"/><path d="M7.29,15.29a.6.6,0,0,1-.73.51A.77.77,0,0,1,5.79,15a.76.76,0,0,1,.59-.82l-.28.49h.84a.45.45,0,0,0-.42-.53.6.6,0,0,1,.74.57H6.16a.79.79,0,0,0,.43,1C6.87,15.75,7.07,15.66,7.29,15.29Z"/><path d="M6.76,9.8l-.28.49h.83c0-.3-.09-.46-.4-.51a.57.57,0,0,1,.73.56H6.55a.8.8,0,0,0,.37.93c.3.13.5.05.73-.31,0,.3-.25.48-.62.48A.84.84,0,0,1,6.76,9.8Z"/><path d="M14.49,5.16a4.14,4.14,0,0,0,1,2.49l-.18.21a4.39,4.39,0,0,1-1.09-2.68Z"/><path d="M17.69,11.09l-.25.14a3.32,3.32,0,0,1-1.39-2.31h.27A3.26,3.26,0,0,0,17.69,11.09Z"/><path d="M10,15.76H9.22c.39-.18.25-.51.25-.78s.14-.59-.23-.78l.47-.08,0,.23c.12-.07.23-.15.36-.21a.39.39,0,0,1,.24,0,.32.32,0,0,1,.14.16s0,.11-.06.11a.3.3,0,0,1-.18-.06c-.2-.16-.38-.13-.41.12a6.39,6.39,0,0,0,0,1.07C9.8,15.6,9.91,15.67,10,15.76Z"/><path d="M17.34,4.72l.06.22c-.49.24-.58.71-.67,1.18,0,.24-.05.48-.08.74h-.23C16.34,6.16,16.63,4.79,17.34,4.72Z"/><path d="M8.35,14.92a.46.46,0,0,0,.11-.55.38.38,0,0,0-.25-.2c-.07,0-.16.09-.24.15s0,0,0,.06a.79.79,0,0,1-.18.14s-.12-.09-.11-.11a.35.35,0,0,1,.13-.21.88.88,0,0,1,.85,0,.42.42,0,0,1,.17.3c0,.28,0,.57,0,.85s.06.31.34.27c-.27.31-.49.06-.69-.06l.07-.74-.19.06Z"/><path d="M7.16,6.15a.45.45,0,0,0,.12-.55A.43.43,0,0,0,7,5.4c-.07,0-.16.09-.24.15s0,0,0,.06a.58.58,0,0,1-.17.14s-.13-.09-.12-.11.07-.18.14-.21a.89.89,0,0,1,.85,0,.47.47,0,0,1,.16.31c0,.27,0,.56,0,.84s.06.32.33.27V7A1,1,0,0,1,7.59,7a1.29,1.29,0,0,1-.32-.19l.07-.74-.18.06Z"/><path d="M19.31,11.46l-.25.12-.78-2,.17-.06.09,0Z"/><path d="M13.27,11.94a2.61,2.61,0,0,1,.43-.24c.51-.14,1-.26,1.57-.4l.07.28-1.27.28-.4.14c-.11,0-.23,0-.35.06Z"/><path d="M11.07,7a.77.77,0,0,0,.57-.83.75.75,0,0,0-.53-.82.68.68,0,0,1,.7.27.91.91,0,0,1,0,1A.73.73,0,0,1,11.07,7Z"/><path d="M9,5.35a.74.74,0,0,1,.77.33.91.91,0,0,1,0,1A.8.8,0,0,1,9,7a.78.78,0,0,0,.62-.83A.78.78,0,0,0,9,5.35Z"/><path d="M20.87,18.16l.12-.53.63.15s0,0,0,.06C21.54,18.37,21.49,18.39,20.87,18.16Z"/><path d="M19.21,8.22l.11-.43.38.09.36.09-.1.44Z"/><path d="M7.39,18.69l.11-.43.38.09.36.09-.1.44Z"/><path d="M8.34,14.92l-.23.17a.4.4,0,0,0,0,.71.5.5,0,0,1-.5-.18.38.38,0,0,1,.21-.56c.16-.06.34-.09.51-.14Z"/><path d="M7.16,6.15l-.24.17a.41.41,0,0,0,0,.71.49.49,0,0,1-.49-.17.38.38,0,0,1,.21-.57c.16-.06.33-.09.5-.14Z"/><path d="M13.57,11.19l-.44-.1.13-.54.43.1Z"/><path d="M13.56,3.21l.42.11-.13.54-.43-.11Z"/><path d="M11.55,20.13l-.47-.27.22-.37.46.26Z"/><path d="M11.9,17.08l-.47-.25.2-.38.47.26Z"/><path d="M17.13,3.3l-.2.37-.47-.26L16.67,3Z"/><path d="M13.67,19l.21-.37.46.25-.2.38Z"/><path d="M18.84,19.59l-.22.38-.46-.27.21-.36Z"/><path d="M14.17,22.35l-.2.38-.47-.25.2-.38Z"/><path d="M10.05,12.92l-.46-.26.21-.37.46.26Z"/><path d="M19.77,5.22,19.3,5l.22-.37.46.27Z"/><path d="M9.72,21.62l-.4-.21L9.51,21l.41.2Z"/><path d="M22.38,3.54l-.21.38-.4-.21.2-.38Z"/><path d="M21.41,22.37,21,22.26l.11-.43.42.1Z"/><path d="M16.66,8.74l-.4-.1.1-.4C16.78,8.21,16.85,8.31,16.66,8.74Z"/><path d="M6.75,16.5l.22,0,0,.27-.21,0Z"/><path d="M2.73,17l-.07-.21.26-.08.06.2Z"/><path d="M16,17.11l.21.06-.05.25-.21,0Z"/><path d="M13.54,15l.19,0-.06.24C13.43,15.22,13.43,15.21,13.54,15Z"/><path d="M22.56,10.49l.05.21-.26.07-.05-.2Z"/><path d="M2.56,12.14l-.07-.2.26-.08.07.21Z"/><path d="M18.66,11.61c-.29,0-.17-.15-.14-.29l.21.06Z"/><path d="M4.15,20.73l.06.2L4,21l-.07-.21Z"/><path d="M16.19,12.58l-.27.08-.05-.21.24-.07Z"/><path d="M28,5.73a.52.52,0,0,1,.49.55.54.54,0,0,1-.51.54.52.52,0,0,1-.47-.55A.5.5,0,0,1,28,5.73Z"/><path d="M30.66,16.48c-.29,0-.4-.17-.28-.37a.81.81,0,0,1,.67-.39.3.3,0,0,1,.23.11.36.36,0,0,1,0,.27A.85.85,0,0,1,30.66,16.48Z"/></g><g class="cls-3"><path d="M24,13.4l-1.78.92.83,1.15.17.24c.24.32.23.31,0,.6a.22.22,0,0,1-.3,0l-4.68-1.71-.56-.2c-.21-.07-.27-.16-.2-.39a3.16,3.16,0,0,1,.22-.5,10.3,10.3,0,0,1,1.54-2.17c.44-.48.51-.47.89,0l.7,1a12.24,12.24,0,0,1,2.6-2.28,2.92,2.92,0,0,0,.87-.69l.13-.18a2.56,2.56,0,0,1-.9-1,3.41,3.41,0,0,1-.19-2.27,1.66,1.66,0,0,0-.07-1.16,1.77,1.77,0,0,1-.08-1.16,1.74,1.74,0,0,1,2-1.29,4.64,4.64,0,0,1,.44.23c.08,0,.17.08.24.06a6.11,6.11,0,0,1,2.37-.16.38.38,0,0,0,.26-.07,2.55,2.55,0,0,1,1.08-.56,1.78,1.78,0,0,1,1.87.8,2.14,2.14,0,0,1,.11,2.53.57.57,0,0,0-.08.42,3.7,3.7,0,0,1-.11,2.16,4.66,4.66,0,0,1-.41.76.21.21,0,0,0,0,.27,5.19,5.19,0,0,1,.61,2.67,1.62,1.62,0,0,1-.34,1,.31.31,0,0,0-.05.4l.35-.26a6.9,6.9,0,0,1,1.66-.92,1.55,1.55,0,0,1,1.43.16,2.84,2.84,0,0,1,1.36,1.63,2.08,2.08,0,0,1-2.13,2.62,2.23,2.23,0,0,1-.72-.26.34.34,0,0,0-.31,0c-.84.37-1.67.74-2.52,1.09a1.43,1.43,0,0,1-1.23,0,.22.22,0,0,0-.14,0l-1.29.32-.09,0c.14.74.3,1.47.44,2.2a2.21,2.21,0,0,1-.43,2,2.81,2.81,0,0,1-2.76,1,1.57,1.57,0,0,1-1.34-2,11.22,11.22,0,0,1,.49-1.59,4.76,4.76,0,0,0,.26-2.12c-.06-.65,0-1.31,0-2,0-.23,0-.46-.05-.69S24,13.6,24,13.4Zm6.8-.61-.17.08a1.63,1.63,0,0,1-1,.11,2,2,0,0,1-1.4-1.27,1.14,1.14,0,0,0-.12-.22,6,6,0,0,1-.74-.77c-.22-.35-.45-.57-.89-.47,0,0-.09,0-.14,0s-.35,0-.43.07a4.45,4.45,0,0,0-1.41,2.08A3.64,3.64,0,0,0,24.34,14a4.27,4.27,0,0,0,1.16,2.16,2.75,2.75,0,0,0,3.2.51c0-.19,0-.36,0-.54a3,3,0,0,1,.55-1.29,7.77,7.77,0,0,1,1.43-1.6A.31.31,0,0,0,30.8,12.79Zm.38-7.14a.85.85,0,0,1-.81-.84.38.38,0,0,0-.08-.17,4.27,4.27,0,0,0-1.16-1A.55.55,0,0,0,29,3.58a4.29,4.29,0,0,1-.62-.14c-.39-.16-.42-.3-.24-.67l0-.08c-.25,0-.52,0-.78,0a5.8,5.8,0,0,0-1,.12,3.06,3.06,0,0,0-2.54,2.72c.12-.12.24-.16.29,0a2.92,2.92,0,0,1,.73-.26,2.74,2.74,0,0,1,1.46.26,1.59,1.59,0,0,1,1,1.28,4.74,4.74,0,0,1,.05.84,1.82,1.82,0,0,1-.82,1.61v0l1.34.13c0-.09,0-.16,0-.22A2.2,2.2,0,0,1,28,7.77a1.19,1.19,0,0,1,1.22-.62,1.43,1.43,0,0,1,1,.63c.16.18.3.38.45.57A3.16,3.16,0,0,0,31.18,5.65Zm2,9.93a2.82,2.82,0,0,0,.54.18,1.81,1.81,0,0,0,2-2.18,2.49,2.49,0,0,0-1.12-1.45A1.41,1.41,0,0,0,33,12a7.77,7.77,0,0,0-1.65,1,7.31,7.31,0,0,0-2.07,2.29,3,3,0,0,0-.31.93c-.06.29.08.41.37.48a1.51,1.51,0,0,0,.89-.11,21.7,21.7,0,0,0,3.22-1.47l.25-.13.13.23Zm-8.08.54c.07.37.13.68.17,1A4.48,4.48,0,0,1,25,19.64a5.59,5.59,0,0,0-.27,1.29,7.15,7.15,0,0,0,0,.93l-.2.05a4.21,4.21,0,0,1,.23-2.41A3.59,3.59,0,0,0,25,17.56c-.07-.51-.16-1-.23-1.53,0-.09.05-.2,0-.27a7.84,7.84,0,0,0-.41-.69v1.69a6.06,6.06,0,0,1,0,1.13A12.16,12.16,0,0,1,24,19.34a3.85,3.85,0,0,0-.28,1.84.84.84,0,0,0,.71.74,3.39,3.39,0,0,0,.9,0,5.55,5.55,0,0,0,2.2-1.09.34.34,0,0,0,.13-.22,3.84,3.84,0,0,0,.06-1c-.11-.77-.28-1.53-.44-2.3a.26.26,0,0,0-.17-.13,2.77,2.77,0,0,1-1.5-.64Zm4.68-3.42a1.22,1.22,0,0,0,1.45-1.08,5,5,0,0,0-.17-1.76A4.94,4.94,0,0,0,29.7,7.63c-.34-.33-.65-.27-.8.15A3.3,3.3,0,0,0,29,10.21,12.7,12.7,0,0,1,29.77,12.7ZM24.48,8.87a6.86,6.86,0,0,0,.76.26,1.27,1.27,0,0,0,1.65-1.07,5.52,5.52,0,0,0,0-1.22,1.2,1.2,0,0,0-.76-1,4.06,4.06,0,0,0-1-.28,1.3,1.3,0,0,0-1.48.93A2.48,2.48,0,0,0,23.78,8s0,.07,0,.07l.47.19a.53.53,0,0,0-.11-.52c-.12-.14-.25-.27-.36-.42a.32.32,0,0,1-.05-.19c.07-.36.18-.44.55-.43a1.61,1.61,0,0,0,.31,0c.27-.07.4,0,.47.3a.24.24,0,0,1,0,.28c-.13.14-.23.29-.34.43a.24.24,0,0,0,.08.39c.37.24.37.24.7-.05h0l.21.19-.52.52-.54-.28Zm-1.11,4.56a1.23,1.23,0,0,0,.82-1,1,1,0,0,1,.07-.23,3,3,0,0,0,.32-1.46s0-.07,0-.1c0-.34,0-.67-.05-1-.25.22-.44.41-.66.57a10.67,10.67,0,0,0-1,.64c-.62.53-1.2,1.09-1.8,1.64a.22.22,0,0,0,0,.37c.12.14.21.3.33.44a.29.29,0,0,0,.19.07c.34,0,.69-.06,1-.05A5.26,5.26,0,0,1,23.37,13.43Zm-4.12,1.29c.31.11.59.2.86.32a.29.29,0,0,0,.38-.1,1.61,1.61,0,0,0,.37-.88,1.77,1.77,0,0,0-.36-1.64,4.19,4.19,0,0,1-.4-.54l-.25-.33c-.17.31-.34.6-.49.89a.3.3,0,0,0,0,.23,8.28,8.28,0,0,1,.24.81A1.1,1.1,0,0,1,19.25,14.72ZM31.07,5.34a2,2,0,0,0,.43-2A1.74,1.74,0,0,0,30,2.08a2,2,0,0,0-1.79,1,2.54,2.54,0,0,0,.57.19c.1,0,.22-.14.33-.23A1,1,0,0,1,30,2.83a1.2,1.2,0,0,1,.79,1.74C30.56,4.93,30.66,5.19,31.07,5.34ZM21.21,13.4a6.74,6.74,0,0,1-.15,1,5,5,0,0,1-.38.86c.31.12.65.25,1,.36a.25.25,0,0,0,.2,0,.73.73,0,0,0,.17-.71C22,14.25,21.51,13.89,21.21,13.4Zm7-2.87c0,.87.55,1.94,1.3,2.09-.2-.67-.39-1.3-.59-1.94,0,0-.08-.08-.13-.09ZM25.36,2.74C25,2.37,24.28,2.6,23.83,3a1.58,1.58,0,0,0-.24,1.86.58.58,0,0,0,.07-.53.58.58,0,0,1,.56-.8.42.42,0,0,0,.21-.08Q24.89,3.1,25.36,2.74ZM18,14.26l.64.23a.51.51,0,0,0,.72-.44,2.59,2.59,0,0,0-.24-1.19ZM28.72,7.49a1.1,1.1,0,0,0-.56.61A2.38,2.38,0,0,0,28.22,10c.11.27.22.32.54.26A3.64,3.64,0,0,1,28.72,7.49ZM17.8,14a7.8,7.8,0,0,0,1.73-2.52A10,10,0,0,0,17.8,14Zm4.33,1.82.79.28s.08,0,.13,0,0-.1,0-.14a3.06,3.06,0,0,0-.21-.29q-.21-.3-.42-.57ZM25.82,9.6h-1l.08.56.72-.18C25.88,9.91,25.89,9.91,25.82,9.6ZM27,10a.83.83,0,0,0,0-.22c0-.06-.07-.14-.11-.14h-.76V10h.74Zm.92.47c0-.14,0-.24,0-.32s0-.18-.08-.2a5.89,5.89,0,0,0-.58-.18c0,.17,0,.32.09.38A3.74,3.74,0,0,0,27.91,10.42Zm-2.44-.12c-.6.13-.68.22-.58.67Zm2.1.3.41.48C28,10.78,27.89,10.64,27.57,10.6Z"/><path d="M2.88,4H4c-.33.07-.36.32-.36.59v.61H5a6.46,6.46,0,0,0,0-.88c0-.12-.18-.23-.25-.32h1c-.3.07-.35.29-.34.55v1.5c0,.26,0,.48.34.56H4.72c.38-.1.32-.41.33-.69V5.35H3.66c0,.32,0,.63,0,.93s.08.26.37.36H2.91c.34-.07.35-.34.35-.62,0-.48,0-1,0-1.44S3.2,4.16,2.88,4Z"/><path d="M3.32,8.85v.77c0,.32,0,.63,0,.94s.07.43.34.49H2.9c.35-.07.35-.34.35-.61,0-.5,0-1,0-1.49,0-.31-.07-.39-.41-.51.26,0,.46,0,.65,0a.39.39,0,0,1,.2.14l1.25,1.59.19.23c0-.57,0-1.1,0-1.63,0-.12-.17-.23-.25-.32h.71c-.31.06-.35.29-.35.55v1.82a.51.51,0,0,1-.06.25L4.27,10,3.38,8.84Z"/><path d="M4.64,15.42H3.53c.36-.08.34-.36.36-.64a1.28,1.28,0,0,0-.28-.94c-.17-.22-.3-.47-.46-.69a3.63,3.63,0,0,0-.34-.34H3.87c-.3.12-.32.2-.13.51l.5.78c.2-.31.4-.59.56-.88s0-.29-.24-.41h.72c-.13.15-.28.32-.43.51s-.13.21-.21.31a1.49,1.49,0,0,0-.37,1.21C4.29,15.11,4.32,15.35,4.64,15.42Z"/><path d="M8.19,11.1a12.25,12.25,0,0,0-.67-1.68h.64C8,9.49,8,9.63,8,9.79l.26.87.11-.28c.08-.2.16-.41.23-.61s.06-.27-.11-.35h.72c-.24.08-.24.21-.19.36a8.12,8.12,0,0,0,.27.84c.11-.3.22-.61.31-.92,0-.08-.08-.19-.12-.28h.43a2.12,2.12,0,0,0-.23.35c-.15.36-.29.73-.43,1.1a.64.64,0,0,1-.13.19l-.44-1.3Z"/><path d="M8.47,6.62l-.21-.1c.06.31-.15.65.27.85H7.65A.38.38,0,0,0,8,6.93V5.41c0-.18,0-.34-.26-.4l.53-.09,0,.19L8.51,5a1,1,0,0,0-.25.76A1.09,1.09,0,0,0,8.47,6.62Z"/><path d="M9.78,5l.52-.08,0,.18L10.6,5a.87.87,0,0,0-.26.77,1,1,0,0,0,.21.8l-.18-.07c-.11.42,0,.67.23.82H9.8c.21-.07.24-.23.24-.42,0-.5,0-1,0-1.52A.36.36,0,0,0,9.78,5Z"/><path d="M11,14.09l-.25,0a1,1,0,0,1,.45-.76,1.54,1.54,0,0,1,.95-.24c.47,0,.94.1,1.45.16l-.08.25c-.49,0-1-.12-1.42-.12S11.08,13.49,11,14.09Z"/><path d="M15,14.26l-.23,0a1.12,1.12,0,0,1,.61-1.23A3,3,0,0,1,17,12.77V13c-.34,0-.67.07-1,.12a1.71,1.71,0,0,0-.44.13A1,1,0,0,0,15,14.26Z"/><path d="M11.83,5h.65c-.19.08-.15.23-.1.37.1.3.22.6.35,1,.14-.38.27-.7.37-1,0-.09-.06-.21-.09-.31h.38a4.6,4.6,0,0,0-.25.44l-.66,1.6c-.06.16-.15.31-.35.32a.43.43,0,0,1-.22-.1s0-.1,0-.1a.41.41,0,0,1,.22,0c.13.07.21,0,.27-.1a.69.69,0,0,0,.05-.64c-.16-.36-.29-.73-.44-1.1C12,5.22,11.89,5.12,11.83,5Z"/><path d="M7,15a.6.6,0,0,1-.73.51.77.77,0,0,1-.77-.81A.76.76,0,0,1,6,13.83l-.28.49H6.6a.45.45,0,0,0-.42-.53.6.6,0,0,1,.74.57H5.82a.79.79,0,0,0,.43,1C6.53,15.41,6.73,15.32,7,15Z"/><path d="M6.42,9.46,6.14,10H7c0-.3-.09-.46-.4-.51A.57.57,0,0,1,7.3,10H6.21a.8.8,0,0,0,.37.93c.3.13.5.05.73-.31,0,.3-.25.48-.62.48a.84.84,0,0,1-.27-1.64Z"/><path d="M14.15,4.82a4.14,4.14,0,0,0,1,2.49L15,7.52a4.41,4.41,0,0,1-1.09-2.68Z"/><path d="M17.35,10.75l-.25.14a3.32,3.32,0,0,1-1.39-2.31H16A3.26,3.26,0,0,0,17.35,10.75Z"/><path d="M9.64,15.42H8.88c.39-.18.25-.51.25-.78s.14-.59-.23-.78l.47-.08,0,.23c.12-.07.23-.15.36-.21a.39.39,0,0,1,.24,0,.32.32,0,0,1,.14.16s0,.11-.06.11A.3.3,0,0,1,9.91,14c-.2-.16-.38-.13-.41.12a6.35,6.35,0,0,0,0,1.07C9.46,15.26,9.57,15.33,9.64,15.42Z"/><path d="M17,4.38l.06.22c-.49.24-.58.71-.67,1.18,0,.24-.05.48-.08.74h-.23C16,5.82,16.29,4.45,17,4.38Z"/><path d="M8,14.58A.46.46,0,0,0,8.12,14a.38.38,0,0,0-.25-.2c-.07,0-.16.09-.24.15s0,0,0,.06a.79.79,0,0,1-.18.14s-.12-.09-.11-.11a.35.35,0,0,1,.13-.21.88.88,0,0,1,.85,0,.42.42,0,0,1,.17.3c0,.28,0,.57,0,.85s.06.31.34.27c-.27.31-.49.06-.69-.06l.07-.74L8,14.58Z"/><path d="M6.82,5.81a.45.45,0,0,0,.12-.55.43.43,0,0,0-.26-.2c-.07,0-.16.09-.24.15s0,0,0,.06a.58.58,0,0,1-.17.14s-.13-.09-.12-.11.07-.18.14-.21a.87.87,0,0,1,.84,0,.44.44,0,0,1,.17.3c0,.28,0,.57,0,.85s.06.32.33.27v.06a1,1,0,0,1-.37.07,1.29,1.29,0,0,1-.32-.19L7,5.75l-.18.06Z"/><path d="M19,11.12l-.24.12-.78-2,.17-.06.09,0Z"/><path d="M12.93,11.6a2.26,2.26,0,0,1,.43-.24c.51-.14,1-.26,1.57-.4l.07.28-1.27.28-.4.14c-.11,0-.23,0-.35.06Z"/><path d="M10.73,6.68a.77.77,0,0,0,.57-.83A.75.75,0,0,0,10.77,5a.68.68,0,0,1,.7.27.91.91,0,0,1,0,1A.73.73,0,0,1,10.73,6.68Z"/><path d="M8.65,5a.74.74,0,0,1,.77.33.91.91,0,0,1,0,1,.8.8,0,0,1-.81.36.78.78,0,0,0,.62-.83A.78.78,0,0,0,8.65,5Z"/><path d="M20.53,17.82l.11-.53.64.15s0,0,0,.06C21.2,18,21.15,18.05,20.53,17.82Z"/><path d="M18.87,7.88,19,7.45l.38.09.36.09-.1.44Z"/><path d="M7.05,18.35l.11-.43.38.09.36.09-.1.44Z"/><path d="M8,14.58l-.23.17a.4.4,0,0,0,0,.71.5.5,0,0,1-.5-.18.38.38,0,0,1,.21-.56A4.25,4.25,0,0,1,8,14.58Z"/><path d="M6.82,5.81,6.58,6a.41.41,0,0,0,0,.71.49.49,0,0,1-.49-.17A.38.38,0,0,1,6.32,6c.16-.06.33-.09.5-.14Z"/><path d="M13.23,10.85l-.44-.1.13-.54.43.1Z"/><path d="M13.22,2.87l.42.11-.13.54-.43-.11Z"/><path d="M11.21,19.79l-.47-.27.22-.37.46.26Z"/><path d="M11.56,16.74l-.47-.25.2-.38.47.26Z"/><path d="M16.79,3l-.2.37-.47-.26.21-.37Z"/><path d="M13.33,18.63l.21-.37.46.25-.2.38Z"/><path d="M18.5,19.25l-.22.38-.46-.27L18,19Z"/><path d="M13.83,22l-.2.38-.47-.25.2-.38Z"/><path d="M9.71,12.58l-.46-.26L9.46,12l.46.26Z"/><path d="M19.43,4.88,19,4.62l.22-.37.46.27Z"/><path d="M9.38,21.28,9,21.07l.19-.38.41.2Z"/><path d="M22,3.2l-.21.38-.4-.21.2-.38Z"/><path d="M21.07,22l-.42-.11.11-.43.41.1Z"/><path d="M16.32,8.4l-.4-.1.1-.4C16.44,7.86,16.51,8,16.32,8.4Z"/><path d="M6.41,16.16l.22,0,0,.27-.21,0Z"/><path d="M2.39,16.65l-.07-.21.26-.08.06.2Z"/><path d="M15.66,16.77l.21.06,0,.25-.21,0Z"/><path d="M13.2,14.62l.19,0-.06.24C13.09,14.88,13.09,14.87,13.2,14.62Z"/><path d="M22.22,10.15l.05.21-.26.07-.05-.2Z"/><path d="M2.22,11.8l-.07-.2.26-.08.07.21Z"/><path d="M18.32,11.27c-.29,0-.17-.15-.14-.29l.21.06Z"/><path d="M3.81,20.39l.06.2-.25.09-.07-.21Z"/><path d="M15.85,12.24l-.27.08-.05-.21.24-.08Z"/><path d="M27.67,5.39a.52.52,0,0,1,.49.55.54.54,0,0,1-.51.54.52.52,0,0,1-.47-.55A.5.5,0,0,1,27.67,5.39Z"/><path d="M30.32,16.14c-.29,0-.4-.17-.28-.37a.81.81,0,0,1,.67-.39.3.3,0,0,1,.23.11.36.36,0,0,1,0,.27A.85.85,0,0,1,30.32,16.14Z"/></g><path class="cls-4" d="M24.2,13.6l-1.78.92.83,1.15.17.24c.23.32.23.31,0,.6-.1.11-.19.08-.3,0l-4.68-1.71-.56-.2c-.21-.08-.27-.16-.2-.39a3.16,3.16,0,0,1,.22-.5,10,10,0,0,1,1.54-2.17c.44-.48.51-.47.89,0l.7,1a12.24,12.24,0,0,1,2.6-2.28,2.92,2.92,0,0,0,.87-.69l.13-.19a2.47,2.47,0,0,1-.9-1,3.44,3.44,0,0,1-.19-2.28A1.69,1.69,0,0,0,23.45,5a1.77,1.77,0,0,1-.08-1.16,1.74,1.74,0,0,1,2-1.29,3.81,3.81,0,0,1,.45.23c.08,0,.17.08.24.06a6.11,6.11,0,0,1,2.37-.16.38.38,0,0,0,.26-.07A2.55,2.55,0,0,1,29.75,2a1.78,1.78,0,0,1,1.87.8,2.13,2.13,0,0,1,.1,2.53.53.53,0,0,0-.07.41,3.73,3.73,0,0,1-.11,2.17,4.19,4.19,0,0,1-.41.75c-.07.11-.09.17,0,.28a5.29,5.29,0,0,1,.61,2.67,1.62,1.62,0,0,1-.34,1,.31.31,0,0,0-.05.4l.35-.26a6.57,6.57,0,0,1,1.66-.92,1.52,1.52,0,0,1,1.43.16,2.84,2.84,0,0,1,1.36,1.63A2.08,2.08,0,0,1,34,16.24a2.11,2.11,0,0,1-.73-.25.32.32,0,0,0-.3,0c-.84.37-1.68.74-2.52,1.08a1.4,1.4,0,0,1-1.23,0,.22.22,0,0,0-.14,0l-1.29.31-.1,0c.15.74.31,1.46.44,2.2a2.15,2.15,0,0,1-.42,2,2.8,2.8,0,0,1-2.76,1,1.57,1.57,0,0,1-1.34-2A10.06,10.06,0,0,1,24.09,19a4.76,4.76,0,0,0,.26-2.12c-.07-.65,0-1.31,0-2,0-.23,0-.46,0-.69S24.22,13.8,24.2,13.6ZM31,13l-.17.08a1.63,1.63,0,0,1-1,.1,2,2,0,0,1-1.4-1.26,1.14,1.14,0,0,0-.12-.22,6,6,0,0,1-.74-.77c-.22-.35-.45-.57-.89-.47,0,0-.1,0-.14,0s-.35,0-.43.06a4.36,4.36,0,0,0-1.41,2.09,3.64,3.64,0,0,0-.14,1.57,4.2,4.2,0,0,0,1.16,2.16,2.72,2.72,0,0,0,3.2.5,4.68,4.68,0,0,1,0-.53A2.91,2.91,0,0,1,29.45,15a8.09,8.09,0,0,1,1.43-1.61A.3.3,0,0,0,31,13Zm.37-7.14a.85.85,0,0,1-.8-.85.4.4,0,0,0-.08-.16,4.49,4.49,0,0,0-1.16-1,1.27,1.27,0,0,0-.18-.06,3.1,3.1,0,0,1-.62-.13c-.39-.16-.42-.3-.24-.67,0,0,0,0,0-.09-.25,0-.52,0-.78,0a6.91,6.91,0,0,0-1,.11,3.08,3.08,0,0,0-2.54,2.73c.12-.12.23-.16.29,0a2.92,2.92,0,0,1,.73-.26,2.65,2.65,0,0,1,1.46.26,1.59,1.59,0,0,1,1,1.28,4.68,4.68,0,0,1,.05.84,1.84,1.84,0,0,1-.82,1.61v0l1.33.12a1.34,1.34,0,0,0,0-.21A2.14,2.14,0,0,1,28.22,8a1.17,1.17,0,0,1,1.22-.62,1.48,1.48,0,0,1,1,.63l.45.57A3.13,3.13,0,0,0,31.37,5.85Zm2,9.93a5.65,5.65,0,0,0,.54.18,1.82,1.82,0,0,0,2-2.18,2.49,2.49,0,0,0-1.12-1.45,1.44,1.44,0,0,0-1.55-.16,8,8,0,0,0-1.65,1,7.43,7.43,0,0,0-2.08,2.28,3.44,3.44,0,0,0-.3.94c-.06.29.07.41.37.48a1.47,1.47,0,0,0,.88-.11,21.35,21.35,0,0,0,3.23-1.47l.25-.13.13.23Zm-8.08.54c.07.36.13.68.17,1a4.48,4.48,0,0,1-.25,2.53,5,5,0,0,0-.27,1.29,7.15,7.15,0,0,0,0,.93l-.21.05A4.29,4.29,0,0,1,25,19.7a3.59,3.59,0,0,0,.28-1.94c-.07-.51-.16-1-.24-1.53,0-.09.06-.21,0-.28-.12-.24-.28-.46-.41-.69V17a6.06,6.06,0,0,1,0,1.13,12.76,12.76,0,0,1-.45,1.45,3.72,3.72,0,0,0-.28,1.84.82.82,0,0,0,.71.73,3,3,0,0,0,.9,0A5.55,5.55,0,0,0,27.68,21a.41.41,0,0,0,.13-.23,3.74,3.74,0,0,0,.06-1c-.11-.77-.29-1.54-.45-2.3a.2.2,0,0,0-.17-.13,2.77,2.77,0,0,1-1.49-.64C25.61,16.61,25.48,16.48,25.29,16.32ZM30,12.9a1.23,1.23,0,0,0,1.46-1.08,5.52,5.52,0,0,0-.17-1.76A4.94,4.94,0,0,0,29.9,7.83c-.34-.33-.65-.27-.8.15a3.25,3.25,0,0,0,.14,2.43A12,12,0,0,1,30,12.9ZM24.68,9.07c.26.09.5.2.75.26a1.27,1.27,0,0,0,1.66-1.07A5,5,0,0,0,27.1,7a1.18,1.18,0,0,0-.75-1,4,4,0,0,0-1-.28,1.3,1.3,0,0,0-1.48.93A2.56,2.56,0,0,0,24,8.17s0,.06,0,.07l.47.19a.52.52,0,0,0-.12-.52L24,7.49A.26.26,0,0,1,24,7.3c.07-.36.18-.44.54-.43a1.71,1.71,0,0,0,.32,0c.27-.07.39,0,.47.29a.24.24,0,0,1,0,.29c-.12.13-.22.29-.33.43a.25.25,0,0,0,.07.39c.38.23.38.23.7,0h.05L26,8.4l-.52.53-.54-.28Zm-1.11,4.56a1.24,1.24,0,0,0,.82-1,1.11,1.11,0,0,1,.07-.22,3.06,3.06,0,0,0,.32-1.46s0-.07,0-.1c0-.34,0-.67-.05-1-.25.22-.45.41-.67.57s-.67.39-1,.64c-.61.53-1.19,1.09-1.79,1.64a.22.22,0,0,0,0,.37c.12.13.21.3.33.44a.29.29,0,0,0,.19.07c.34,0,.68-.06,1,0A4.28,4.28,0,0,1,23.57,13.63Zm-4.12,1.28c.31.12.59.21.85.33a.31.31,0,0,0,.39-.1,1.69,1.69,0,0,0,.37-.89,1.74,1.74,0,0,0-.37-1.63c-.15-.16-.26-.36-.4-.54l-.24-.33c-.17.31-.34.6-.49.89a.3.3,0,0,0,0,.23,7.53,7.53,0,0,1,.24.81A1.11,1.11,0,0,1,19.45,14.91ZM31.27,5.54a2,2,0,0,0,.43-2,1.74,1.74,0,0,0-1.47-1.28,2,2,0,0,0-1.79,1,2.09,2.09,0,0,0,.57.18c.1,0,.22-.14.33-.22A1,1,0,0,1,30.18,3,1.18,1.18,0,0,1,31,4.77C30.76,5.13,30.86,5.39,31.27,5.54ZM21.41,13.6a6.74,6.74,0,0,1-.15,1,5.93,5.93,0,0,1-.38.86c.31.11.65.25,1,.36a.22.22,0,0,0,.19-.05.74.74,0,0,0,.18-.71C22.16,14.45,21.7,14.09,21.41,13.6Zm7-2.87c0,.87.54,1.94,1.3,2.08-.2-.66-.39-1.3-.59-1.93,0,0-.09-.08-.14-.09S28.62,10.75,28.42,10.73ZM25.56,2.94c-.37-.37-1.08-.14-1.53.23A1.58,1.58,0,0,0,23.79,5a.58.58,0,0,0,.07-.53.58.58,0,0,1,.56-.8.5.5,0,0,0,.2-.08C24.94,3.41,25.24,3.18,25.56,2.94ZM18.19,14.46l.64.23a.51.51,0,0,0,.72-.44,2.59,2.59,0,0,0-.24-1.19ZM28.92,7.68a1.13,1.13,0,0,0-.56.61,2.4,2.4,0,0,0,.06,1.93c.1.27.22.31.54.26A3.67,3.67,0,0,1,28.92,7.68ZM18,14.15a7.66,7.66,0,0,0,1.73-2.51A10,10,0,0,0,18,14.15ZM22.33,16c.25.09.51.2.78.29a.71.71,0,0,0,.14,0,.49.49,0,0,0,0-.14,3.21,3.21,0,0,0-.21-.3l-.42-.56ZM26,9.8H25l.08.55.71-.18C26.08,10.11,26.09,10.1,26,9.8Zm1.17.35a.91.91,0,0,0,0-.23c0-.05-.07-.13-.11-.13h-.77v.39h.85Zm.92.47c0-.14,0-.24,0-.33s0-.17-.09-.19a5.61,5.61,0,0,0-.57-.18c0,.16,0,.32.09.38A3.74,3.74,0,0,0,28.11,10.62Zm-2.44-.12c-.6.13-.68.22-.58.67Zm2.1.3.41.48C28.21,11,28.09,10.84,27.77,10.8Z"/><path class="cls-4" d="M3.07,4.24H4.21c-.33.07-.37.32-.37.59v.61H5.23a6.46,6.46,0,0,0,0-.88c0-.12-.18-.23-.26-.32H6c-.3.07-.35.29-.34.55v1.5c0,.26,0,.48.34.55H4.92c.37-.09.32-.4.32-.68s0-.39,0-.61H3.86c0,.32,0,.62,0,.93s.08.26.37.36H3.1c.35-.08.36-.34.36-.62,0-.48,0-1,0-1.44S3.4,4.36,3.07,4.24Z"/><path class="cls-4" d="M3.52,9.05v1.7c0,.25.07.44.35.5H3.1c.34-.08.35-.34.35-.62,0-.49,0-1,0-1.48,0-.31-.07-.39-.41-.52.26,0,.45,0,.65,0a.31.31,0,0,1,.19.13c.43.53.84,1.07,1.26,1.6l.18.23c0-.57,0-1.11,0-1.64,0-.12-.17-.23-.25-.31h.71c-.31,0-.35.29-.35.55,0,.61,0,1.22,0,1.82a.42.42,0,0,1-.06.25l-.88-1.11L3.57,9Z"/><path class="cls-4" d="M4.84,15.61H3.73c.36-.07.34-.35.36-.63A1.28,1.28,0,0,0,3.81,14c-.17-.22-.3-.47-.46-.69A3.63,3.63,0,0,0,3,13H4.07c-.3.12-.32.2-.13.5l.5.79c.2-.31.4-.59.56-.89s0-.29-.24-.4h.72l-.43.5c-.08.1-.13.22-.21.32A1.48,1.48,0,0,0,4.47,15C4.49,15.31,4.52,15.55,4.84,15.61Z"/><path class="cls-4" d="M8.38,11.3a12.24,12.24,0,0,0-.66-1.68h.64c-.19.07-.18.21-.13.37s.16.54.25.87c.06-.13.09-.2.12-.28s.16-.41.23-.61.06-.27-.12-.35h.73c-.25.08-.24.2-.2.35s.16.56.28.85c.1-.31.22-.61.31-.92,0-.08-.08-.19-.12-.28h.43a2.54,2.54,0,0,0-.23.34c-.15.37-.29.74-.43,1.1a.57.57,0,0,1-.13.2L8.9,10Z"/><path class="cls-4" d="M8.67,6.82l-.22-.1c.07.31-.15.65.28.84H7.85a.37.37,0,0,0,.31-.43V5.61c0-.18,0-.34-.26-.4l.53-.09,0,.19.24-.07A.9.9,0,0,0,8.46,6,1.1,1.1,0,0,0,8.67,6.82Z"/><path class="cls-4" d="M10,5.2l.52-.08.05.19.25-.07a.87.87,0,0,0-.26.77,1,1,0,0,0,.21.8l-.18-.07c-.11.42-.05.67.22.82H10c.21-.07.23-.23.23-.42,0-.5,0-1,0-1.52A.38.38,0,0,0,10,5.2Z"/><path class="cls-4" d="M11.15,14.29l-.25,0a1,1,0,0,1,.45-.76,1.54,1.54,0,0,1,1-.24c.47,0,.94.1,1.44.16l-.07.25c-.49,0-1-.12-1.43-.13A1,1,0,0,0,11.15,14.29Z"/><path class="cls-4" d="M15.15,14.46l-.23,0a1.09,1.09,0,0,1,.61-1.23A3,3,0,0,1,17.22,13v.21l-1,.11a2.25,2.25,0,0,0-.44.14A1,1,0,0,0,15.15,14.46Z"/><path class="cls-4" d="M12,5.21h.65c-.19.08-.15.23-.1.37.1.3.22.6.35,1,.14-.38.27-.7.36-1,0-.09,0-.21-.08-.31h.38c-.08.14-.18.28-.25.43-.23.54-.44,1.07-.66,1.61-.06.16-.15.31-.35.32a.54.54,0,0,1-.22-.1.2.2,0,0,1,0-.11c.07,0,.16,0,.21,0a.18.18,0,0,0,.28-.1.69.69,0,0,0,.05-.64c-.16-.36-.29-.74-.44-1.1C12.17,5.42,12.09,5.32,12,5.21Z"/><path class="cls-4" d="M7.14,15.15c0,.37-.32.54-.73.51a.78.78,0,0,1-.76-.82A.75.75,0,0,1,6.23,14L6,14.51H6.8c0-.31-.1-.45-.42-.52a.6.6,0,0,1,.74.57H6a.77.77,0,0,0,.43.94C6.73,15.61,6.93,15.51,7.14,15.15Z"/><path class="cls-4" d="M6.62,9.66l-.28.49h.83c0-.3-.09-.46-.4-.52a.58.58,0,0,1,.73.57H6.41a.77.77,0,0,0,.37.92c.3.14.5.06.73-.3,0,.3-.25.48-.62.48a.84.84,0,0,1-.27-1.64Z"/><path class="cls-4" d="M14.35,5a4.19,4.19,0,0,0,1,2.48l-.17.21A4.31,4.31,0,0,1,14.08,5Z"/><path class="cls-4" d="M17.55,11l-.25.13a3.3,3.3,0,0,1-1.39-2.3h.27A3.26,3.26,0,0,0,17.55,11Z"/><path class="cls-4" d="M9.84,15.61H9.08c.39-.17.25-.5.25-.77s.14-.59-.23-.78L9.57,14l0,.23c.12-.07.23-.15.35-.21a.36.36,0,0,1,.25,0,.28.28,0,0,1,.14.16s0,.11-.06.11a.39.39,0,0,1-.18-.06c-.2-.16-.38-.13-.42.12a6.35,6.35,0,0,0,0,1.07C9.66,15.46,9.77,15.53,9.84,15.61Z"/><path class="cls-4" d="M17.2,4.57l.06.22A1.44,1.44,0,0,0,16.59,6c0,.25-.05.49-.08.75h-.23C16.2,6,16.49,4.65,17.2,4.57Z"/><path class="cls-4" d="M8.2,14.78a.45.45,0,0,0,.12-.55A.43.43,0,0,0,8.07,14c-.07,0-.17.1-.25.16s0,0,0,.05a.63.63,0,0,1-.18.15s-.12-.09-.11-.11a.35.35,0,0,1,.13-.21.86.86,0,0,1,.85,0,.46.46,0,0,1,.17.31c0,.28,0,.57,0,.85s.07.31.35.27c-.28.3-.49.05-.69-.06l.06-.75-.18.06Z"/><path class="cls-4" d="M7,6a.44.44,0,0,0,.11-.55.36.36,0,0,0-.25-.2c-.07,0-.16.09-.24.15s0,0,0,.06a.75.75,0,0,1-.17.14s-.13-.09-.12-.11.07-.18.14-.21a.89.89,0,0,1,.84,0,.46.46,0,0,1,.17.31c0,.28,0,.57,0,.85s.06.31.33.27v.06a1,1,0,0,1-.37.07,1.29,1.29,0,0,1-.32-.19L7.2,6,7,6Z"/><path class="cls-4" d="M19.16,11.32l-.24.12-.78-2,.17,0,.09,0Z"/><path class="cls-4" d="M13.13,11.8a2,2,0,0,1,.42-.24l1.58-.4.07.28-1.27.28-.4.14c-.11,0-.23,0-.35.06Z"/><path class="cls-4" d="M10.93,6.88a.78.78,0,0,0,.57-.83A.75.75,0,0,0,11,5.23a.68.68,0,0,1,.71.26.93.93,0,0,1,.05,1A.74.74,0,0,1,10.93,6.88Z"/><path class="cls-4" d="M8.85,5.21a.74.74,0,0,1,.77.33.91.91,0,0,1,0,1,.79.79,0,0,1-.81.37.79.79,0,0,0,.62-.83A.78.78,0,0,0,8.85,5.21Z"/><path class="cls-4" d="M20.72,18l.12-.53.64.15s0,0,0,.06C21.4,18.23,21.35,18.25,20.72,18Z"/><path class="cls-4" d="M19.07,8.08l.11-.43.38.09.36.09-.1.43Z"/><path class="cls-4" d="M7.25,18.55l.11-.43.38.09.36.09L8,18.73Z"/><path class="cls-4" d="M8.2,14.77,8,14.94a.41.41,0,0,0,0,.72.48.48,0,0,1-.49-.18.37.37,0,0,1,.21-.56,3.12,3.12,0,0,1,.5-.14Z"/><path class="cls-4" d="M7,6l-.23.17a.41.41,0,0,0,0,.71.47.47,0,0,1-.49-.18.37.37,0,0,1,.2-.56A4.84,4.84,0,0,1,7,6Z"/><path class="cls-4" d="M13.43,11.05,13,11l.13-.54.43.1Z"/><path class="cls-4" d="M13.42,3.07l.42.11-.13.54-.44-.11Z"/><path class="cls-4" d="M11.41,20l-.47-.27.21-.37.47.26Z"/><path class="cls-4" d="M11.75,16.94l-.46-.25.2-.38.47.26Z"/><path class="cls-4" d="M17,3.16l-.2.37-.47-.26.21-.37Z"/><path class="cls-4" d="M13.53,18.83l.21-.37.46.25-.2.37Z"/><path class="cls-4" d="M18.7,19.45l-.22.37L18,19.56l.21-.37Z"/><path class="cls-4" d="M14,22.21l-.2.38-.47-.25.2-.38Z"/><path class="cls-4" d="M9.91,12.78l-.46-.26.2-.38.47.27Z"/><path class="cls-4" d="M19.63,5.08l-.47-.26.21-.37.46.26Z"/><path class="cls-4" d="M9.58,21.47l-.4-.2.19-.38.41.2Z"/><path class="cls-4" d="M22.23,3.4l-.2.38-.4-.21.2-.38Z"/><path class="cls-4" d="M21.27,22.23l-.42-.11.1-.43.42.1Z"/><path class="cls-4" d="M16.52,8.6l-.4-.11.1-.39C16.64,8.06,16.71,8.17,16.52,8.6Z"/><path class="cls-4" d="M6.61,16.36l.22,0,0,.26-.21,0Z"/><path class="cls-4" d="M2.59,16.84l-.07-.2.26-.09.06.21Z"/><path class="cls-4" d="M15.86,17l.21.06-.06.25-.2,0Z"/><path class="cls-4" d="M13.39,14.82l.2,0-.07.25C13.29,15.08,13.29,15.07,13.39,14.82Z"/><path class="cls-4" d="M22.42,10.35l0,.21-.26.07-.05-.21Z"/><path class="cls-4" d="M2.42,12l-.07-.2.26-.08.06.2Z"/><path class="cls-4" d="M18.52,11.47c-.3,0-.17-.15-.15-.3l.21.06Z"/><path class="cls-4" d="M4,20.58l.06.21-.25.08-.07-.2Z"/><path class="cls-4" d="M16,12.44l-.26.08,0-.21.24-.08Z"/><path class="cls-4" d="M27.87,5.58a.55.55,0,0,1,0,1.1.52.52,0,0,1-.47-.55A.51.51,0,0,1,27.87,5.58Z"/><path class="cls-4" d="M30.51,16.34c-.28,0-.4-.17-.27-.37a.81.81,0,0,1,.67-.39.29.29,0,0,1,.23.1.39.39,0,0,1,0,.28A.85.85,0,0,1,30.51,16.34Z"/></g></g></svg>