<svg xmlns="http://www.w3.org/2000/svg" viewBox="0 0 38.55 24.66"><defs><style>.cls-1{isolation:isolate;}.cls-2{opacity:0.15;}.cls-2,.cls-3{mix-blend-mode:multiply;}.cls-4{fill:#fff;}</style></defs><title>convert-FIX-SVG-03</title><g class="cls-1"><g id="Layer_1" data-name="Layer 1"><g class="cls-2"><path d="M33.18,9.6l2.64,3.6.75,1a.45.45,0,0,1,.08.23v7.05a.34.34,0,0,1,0,.1c-1,.34-1,.36-1.27,1.28h-1c.08-.11.14-.19.21-.27A8,8,0,0,0,36.16,17a12,12,0,0,0-1.37-4.69,14.62,14.62,0,0,0-1.12-1.62L33.13,10a13.25,13.25,0,0,1-1.5,3.18.24.24,0,0,0,0,.3,11.39,11.39,0,0,1,1.56,3.88A5,5,0,0,1,32.68,21a4.53,4.53,0,0,1-1.38,1.41l-.27.18.74.28v0a3,3,0,0,1-.81-.07c-1.84-.64-3.67-1.31-5.51-2-.25-.09-.21-.32-.2-.49a3,3,0,0,1,.21-.77,19.43,19.43,0,0,1,1.7-3.18,39.31,39.31,0,0,1,3.95-5.31,11,11,0,0,1,.83-.84A1.73,1.73,0,0,1,33.18,9.6Zm-2.3,4.89-3.17,4.28a3.14,3.14,0,0,1,.39,2.74l1.52.55a.18.18,0,0,0,.14,0,4.07,4.07,0,0,0,1.94-1.88,4.41,4.41,0,0,0,.3-2.68A8.71,8.71,0,0,0,30.88,14.49ZM27.12,19.4l-1.41,1.26L27,21.1c.24.09.35,0,.42-.21a.7.7,0,0,0,0-.35C27.32,20.16,27.22,19.79,27.12,19.4Z"/><path d="M12.89,11.07l-.35,1.06.08.07a1.4,1.4,0,0,1,.09-.17l.64-.71c.32-.36.32-.36.86-.46v1.32l0,0c.18-.24.35-.47.54-.7l.58-.72c.13-.17.23-.06.34,0s.11.16,0,.28c-.38.54-.76,1.08-1.13,1.63-.1.14-.17.31-.26.46a.38.38,0,0,1-.16.12c-.13.05-.28.08-.43.13l-.15-1.65a.73.73,0,0,0-.14.11c-.34.47-.68.93-1,1.41a.35.35,0,0,1-.45.16c-.19,0-.21-.2-.18-.35.16-.68.33-1.35.49-2,0-.13.1-.15.21-.11Z"/><path d="M15.25,19.2c.15.08.27.14.39.22a1.81,1.81,0,0,1,.34.28c.24.27.15.5-.23.59a1.64,1.64,0,0,0-.78-.82.46.46,0,0,0-.68.15,5.87,5.87,0,0,1-.37.59.32.32,0,0,1-.57-.06.19.19,0,0,1,0-.18,7.76,7.76,0,0,0,.49-.68,3.52,3.52,0,0,0,.55-1.43.24.24,0,0,1,.13-.17,2,2,0,0,1,1.53-.17l.19.08c.41.22.46.52.12.82a10.22,10.22,0,0,1-.92.66Zm-.62-.38,0,.05.21,0a2,2,0,0,0,.94-.49,3,3,0,0,0,.28-.34,1.12,1.12,0,0,0-.44-.09,1.06,1.06,0,0,0-.6.17A3,3,0,0,0,14.63,18.82Z"/><path d="M8.91,18.45l.76-.11a.28.28,0,0,1,.33.15c.08.13.07.2-.09.25-.34.09-.68.21-1,.29a.45.45,0,0,0-.37.32,3.52,3.52,0,0,1-.16.35l1-.34c.29-.09.43,0,.48.29a.22.22,0,0,1-.09.19c-.53.17-1.07.35-1.61.49-.13,0-.31-.09-.46-.17s-.05-.15,0-.2l.9-2.1A.5.5,0,0,1,9,17.54l1.17-.16c.13,0,.21,0,.21.16s0,.29-.15.32l-.8.11C9,18,9,18,8.91,18.45Z"/><path d="M10.4,11.58l.73-.1a.29.29,0,0,1,.35.15c.09.14.06.2-.09.24-.34.1-.69.22-1,.3a.46.46,0,0,0-.37.33c0,.11-.1.21-.15.34.36-.13.68-.25,1-.35s.43,0,.48.3a.23.23,0,0,1-.1.19c-.53.17-1.07.35-1.61.48-.14,0-.32-.09-.46-.17s-.05-.14,0-.2c.29-.69.58-1.39.88-2.08a.55.55,0,0,1,.47-.34l1.15-.15c.13,0,.22,0,.23.17s0,.29-.18.31a6.89,6.89,0,0,1-.76.1A.48.48,0,0,0,10.4,11.58Z"/><path d="M7.89,12.49c.17-.37.33-.75.5-1.13l.24-.52a.34.34,0,0,1,.53,0s0,.14,0,.2c-.29.6-.6,1.2-.89,1.8-.07.13-.13.26-.19.4s-.26.25-.4.08a.57.57,0,0,1-.11-.22c-.09-.28-.16-.57-.26-.85a1.82,1.82,0,0,0-.2-.36,1.78,1.78,0,0,0-.23.33q-.24.56-.45,1.14c0,.15-.11.24-.28.17s-.31-.16-.24-.33c.32-.73.65-1.46,1-2.17a.54.54,0,0,1,.34-.21s.19.09.21.17c.12.38.22.77.32,1.16,0,.12,0,.24.07.37Z"/><path d="M8.19,6.1a1.89,1.89,0,0,0-1.59.38c-.11.1-.19.23-.37.15S6,6.45,6.08,6.28A1.75,1.75,0,0,1,6.26,6,11.35,11.35,0,0,1,8.13,4.13.85.85,0,0,1,8.52,4c.26,0,.41.09.38.35-.06.61-.15,1.21-.23,1.82a1.21,1.21,0,0,1-.05.18c0,.21-.16.28-.37.22s-.09-.2-.08-.31A1,1,0,0,1,8.19,6.1Zm-.8-.55,0,.07.6,0a.28.28,0,0,0,.28-.29c0-.06,0-.13,0-.19l0-.25c-.09,0-.21,0-.27.07C7.81,5.12,7.6,5.34,7.39,5.55Z"/><path d="M12.47,19.79a1.83,1.83,0,0,0-1.61.39c-.11.11-.21.2-.38.12s-.21-.17-.13-.32a1.73,1.73,0,0,1,.25-.39q.88-.9,1.8-1.77a1,1,0,0,1,.47-.18.27.27,0,0,1,.31.29,7.86,7.86,0,0,1-.3,2.15c-.05.2-.22.16-.35.13s-.08-.15-.1-.23A.54.54,0,0,1,12.47,19.79Zm-.79-.56,0,.07a4.6,4.6,0,0,0,.64-.05.38.38,0,0,0,.22-.19,1.47,1.47,0,0,0,0-.42s-.1-.12-.14-.11a.53.53,0,0,0-.26.13C12,18.84,11.86,19,11.68,19.23Z"/><path d="M4.76,5c.3,0,.56,0,.81-.07a.21.21,0,0,0,.15-.13A6.32,6.32,0,0,0,6,4.16.36.36,0,0,1,6.45,4a.19.19,0,0,1,.07.19,4.19,4.19,0,0,1-.22.59c-.25.53-.5,1-.76,1.58a.81.81,0,0,1-.17.23.32.32,0,0,1-.26.05.31.31,0,0,1-.06-.25c.11-.29.24-.57.36-.86a1.09,1.09,0,0,0,0-.14l-.84,0s-.11.09-.14.14c-.16.31-.3.62-.47.92a.33.33,0,0,1-.23.19.31.31,0,0,1-.27-.1.33.33,0,0,1,0-.29c.24-.46.49-.92.74-1.38s.37-.63.55-.94c.07-.12.16-.21.29-.09s.25.16.11.36S4.92,4.69,4.76,5Z"/><path d="M12.35,4.39a1.59,1.59,0,0,1-.18.3,4,4,0,0,1-1.88,1,.5.5,0,0,0-.26.17c-.13.19-.24.4-.37.59a.31.31,0,0,1-.45.13C9,6.51,9,6.38,9.16,6.22a2,2,0,0,0,.31-.4,4.33,4.33,0,0,0,.67-1.65A.21.21,0,0,1,10.26,4a2,2,0,0,1,1.63-.14A.67.67,0,0,1,12.35,4.39Zm-2,.77a2,2,0,0,0,1.48-.75.16.16,0,0,0,0-.13,1.18,1.18,0,0,0-1,.11A7.08,7.08,0,0,0,10.34,5.16Z"/><path d="M15.58,4.38a1.53,1.53,0,0,1-.19.3,4,4,0,0,1-1.87,1.06.5.5,0,0,0-.27.18c-.14.19-.24.4-.37.59a.32.32,0,0,1-.48.1c-.17-.13-.17-.24,0-.39A1.49,1.49,0,0,0,12.61,6a4.56,4.56,0,0,0,.75-1.77A.23.23,0,0,1,13.49,4,2,2,0,0,1,15,3.84a1.68,1.68,0,0,1,.45.3A.9.9,0,0,1,15.58,4.38Zm-2,.78.13,0,.14,0a2,2,0,0,0,1-.54,1.7,1.7,0,0,0,.23-.3,2.37,2.37,0,0,0-.36-.09c-.23,0-.51,0-.67.16A4.75,4.75,0,0,0,13.56,5.16Z"/><path d="M16.61,4.83c.32-.34.59-.64.88-.93a.94.94,0,0,1,.29-.2.33.33,0,0,1,.28,0,.35.35,0,0,1,0,.3.47.47,0,0,1-.21.23,4.05,4.05,0,0,0-1.15,1.11c-.29.37-.56.76-.84,1.14-.06.09-.12.16-.21.06s-.25-.19-.14-.36.43-.59.65-.89a.22.22,0,0,0,0-.3,4.56,4.56,0,0,1-.37-.65.51.51,0,0,1,0-.32c0-.08.15-.14.24-.18s.11.1.14.16C16.32,4.3,16.46,4.56,16.61,4.83Z"/><path d="M6.14,18.51,7,17.59a.63.63,0,0,1,.29-.2c.08,0,.23,0,.27,0a.37.37,0,0,1,0,.29.52.52,0,0,1-.21.23,3.54,3.54,0,0,0-1,1c-.32.4-.63.83-.94,1.25-.13.17-.19.18-.32,0S5.05,20,5,20l.68-1a.24.24,0,0,0,0-.33,4,4,0,0,1-.36-.64.5.5,0,0,1,0-.34.44.44,0,0,1,.23-.16s.11.1.15.16C5.85,18,6,18.24,6.14,18.51Z"/><path d="M20.6,19.48h-.16s-.05,0-.09,0a2.4,2.4,0,0,1,.9-2.29A4.24,4.24,0,0,1,23,16.44a8.75,8.75,0,0,1,2.4-.15l0,.25h-.23a7.42,7.42,0,0,0-2.81.38,3.9,3.9,0,0,0-.74.36,2.08,2.08,0,0,0-1,1.87Z"/><path d="M22.63,6.83h.25a4.82,4.82,0,0,0,.41,1.72,7.93,7.93,0,0,0,1.94,2.54l.71.65c-.15.17-.26.14-.4,0a12.36,12.36,0,0,1-2-2.16,5.15,5.15,0,0,1-.92-2.53Z"/><path d="M29.62,10.1l-.24.12A25.25,25.25,0,0,1,27.67,5.8l.26-.07A25.79,25.79,0,0,0,29.62,10.1Z"/><path d="M20.91,12.85l0,.3a12.17,12.17,0,0,0-4.34.19l-.26-.16a2.68,2.68,0,0,1,.48-.24,5.2,5.2,0,0,1,1-.14C18.83,12.8,19.86,12.83,20.91,12.85Z"/><path d="M17.68,1.73c.21-.07.3,0,.37.2a6.81,6.81,0,0,0,1.46,2.23l-.15.18A6.35,6.35,0,0,1,17.68,1.73Z"/><path d="M26.21,3.55l-.11-.43.74-.19.12.44Z"/><path d="M3.26,3.56,3.15,4l-.74-.18.1-.44Z"/><path d="M24,17l.74.18-.11.43-.74-.18Z"/><path d="M20.12,8l-.74-.18.1-.44.75.18Z"/><path d="M7.53,8.14l-.12.44L6.69,8.4c.07-.44.07-.44.48-.34Z"/><path d="M7.13,22.5c.2-.05.4-.11.6-.15a.16.16,0,0,1,.14.08,1.07,1.07,0,0,1,.08.32l-.39.1C7.2,22.94,7.16,22.91,7.13,22.5Z"/><path d="M4.25,17l.43.1-.12.53-.43-.09Z"/><path d="M32.47,5.77l.44-.1.12.54-.44.1Z"/><path d="M12.71,3l.13-.53.44.09-.14.54Z"/><path d="M19.68,4.17l.46.27-.21.36-.46-.26Z"/><path d="M7.14,2.64l-.47-.25L6.88,2l.47.26Z"/><path d="M18.33,19.16l.21-.37.46.26-.21.37Z"/><path d="M7.11,14.81l.21-.36.46.25-.21.37Z"/><path d="M17.09,3.26,16.63,3l.21-.38.46.27Z"/><path d="M2.19,10.77l.21-.36.46.26L2.65,11Z"/><path d="M24.38,5.82l.2-.37.47.25-.2.37Z"/><path d="M12.06,16.56l-.46-.25.21-.37.46.25Z"/><path d="M13.88,21.54l.47.25-.21.37-.46-.25Z"/><path d="M35.83,7.83l-.47.25-.2-.37.46-.25Z"/><path d="M29.48,3.89l-.11-.44.42-.1.11.42Z"/><path d="M11.59,8.42l-.11.42-.42-.09.11-.44Z"/><path d="M16.54,7.76l.42.1-.11.43-.42-.1Z"/><path d="M9.69,20.47l.4.2-.19.38-.41-.19Z"/><path d="M21.15,21.7l.11-.43.41.09-.09.44Z"/><path d="M20.83,15.7l-.11-.43.42-.11.11.43Z"/><path d="M22.54,3.14l-.21.37-.4-.21.21-.38Z"/><path d="M3.13,15l-.2.39-.4-.22.21-.38Z"/><path d="M33.71,2.55c.45.05.47.09.3.51L33.6,3Z"/><path d="M23.65,2.32h-.26V1.72h.26Z"/><path d="M25.15,13.93l0-.22.18-.06C25.4,13.9,25.38,13.94,25.15,13.93Z"/><path d="M22.46,10.09l.26-.06.05.19-.25.09Z"/><path d="M18.83,11.16l-.21-.06.05-.24.21,0Z"/><path d="M4.6,10.71l.05.21L4.41,11l-.08-.21Z"/><path d="M13.62,8.87c.27,0,.2.14.14.29l-.2,0Z"/><path d="M4.33,20.17l.07.21-.26.07-.07-.2Z"/><path d="M30.3,7.58l-.06.18L30,7.7C30,7.46,30,7.46,30.3,7.58Z"/><path d="M18.32,14.46l-.08.29-.2,0c0-.08,0-.17.05-.21S18.22,14.48,18.32,14.46Z"/><path d="M13.84,14.75l-.19,0c0-.28,0-.28.24-.21Z"/><path d="M8.69,3.51l.07-.29c.07,0,.16,0,.18.08a.21.21,0,0,1,0,.19S8.78,3.5,8.69,3.51Z"/><path d="M27,10.17l-.18-.05.05-.23C27.12,9.89,27.13,9.92,27,10.17Z"/><path d="M2.38,6.71l.19,0c.11.24.1.27-.12.29Z"/><path d="M4.73,14.89l-.07-.17c.24-.15.27-.13.3.09l-.12,0Z"/><path d="M27.52,6.75c-.05-.16-.14-.31.13-.3l.07.23Z"/><path d="M9.33,15.76l-.22,0,.06-.25.21,0Z"/><path d="M16.11,16.86l.06-.25.21,0-.06.26Z"/><path d="M33.38,9.8,36,13.4l.75,1a.45.45,0,0,1,.08.22v7.06s0,.06,0,.1c-1,.34-1,.36-1.27,1.27h-1l.2-.27a7.91,7.91,0,0,0,1.62-5.57A12.09,12.09,0,0,0,35,12.54a15.5,15.5,0,0,0-1.12-1.61c-.17-.24-.35-.47-.54-.73a13.28,13.28,0,0,1-1.51,3.18.24.24,0,0,0,0,.3,11.31,11.31,0,0,1,1.56,3.88,5,5,0,0,1-.52,3.62,4.53,4.53,0,0,1-1.38,1.41l-.27.18.74.28v.05a3,3,0,0,1-.8-.07c-1.84-.64-3.68-1.31-5.51-2-.25-.09-.22-.32-.2-.49a3.49,3.49,0,0,1,.2-.77,20.28,20.28,0,0,1,1.71-3.18,39.31,39.31,0,0,1,3.95-5.31c.26-.29.54-.58.83-.85A1.76,1.76,0,0,1,33.38,9.8Zm-2.3,4.88L27.91,19a3.14,3.14,0,0,1,.39,2.74l1.52.55a.23.23,0,0,0,.14,0,4.07,4.07,0,0,0,1.94-1.88,4.41,4.41,0,0,0,.3-2.68A9.06,9.06,0,0,0,31.08,14.68ZM27.32,19.6l-1.41,1.25,1.24.45c.24.09.35,0,.42-.21a.7.7,0,0,0,0-.35C27.52,20.36,27.42,20,27.32,19.6Z"/><path d="M13.08,11.27l-.34,1.06.08.07a.91.91,0,0,1,.09-.17l.63-.71c.33-.36.33-.36.87-.46v1.32h.05L15,11.7c.2-.24.4-.48.59-.73s.23-.05.34,0,.11.16,0,.28L14.81,12.9c-.09.14-.16.31-.25.45a.33.33,0,0,1-.16.13c-.14,0-.28.08-.43.12L13.82,12a.73.73,0,0,0-.14.11c-.34.47-.69.93-1,1.41a.36.36,0,0,1-.45.16c-.19,0-.21-.2-.18-.35l.48-2c0-.13.11-.15.22-.11Z"/><path d="M15.45,19.4a3.2,3.2,0,0,1,.38.22,1.6,1.6,0,0,1,.35.28c.24.27.15.5-.23.59a1.64,1.64,0,0,0-.78-.82.46.46,0,0,0-.68.15,5.87,5.87,0,0,1-.37.59.32.32,0,0,1-.58-.07.24.24,0,0,1,0-.18,4.69,4.69,0,0,0,.49-.68,3.3,3.3,0,0,0,.55-1.42.27.27,0,0,1,.13-.17,2.06,2.06,0,0,1,1.54-.18,1.63,1.63,0,0,1,.19.09c.4.22.46.51.12.82a10.22,10.22,0,0,1-.92.66ZM14.83,19l.05.05.2,0a2,2,0,0,0,1-.49,2.39,2.39,0,0,0,.28-.35,1.32,1.32,0,0,0-.44-.08,1,1,0,0,0-.6.17A3,3,0,0,0,14.83,19Z"/><path d="M9.11,18.65l.76-.11a.28.28,0,0,1,.33.15c.08.13.06.2-.09.24-.34.1-.68.21-1,.3a.44.44,0,0,0-.37.32c0,.11-.1.22-.16.35.36-.12.68-.24,1-.34s.43,0,.48.29A.22.22,0,0,1,10,20c-.53.17-1.07.35-1.61.49-.14,0-.32-.09-.46-.17s0-.15,0-.2l.9-2.1a.51.51,0,0,1,.45-.33c.39,0,.78-.1,1.17-.15.12,0,.21,0,.21.16s0,.28-.15.31-.53.09-.8.12S9.23,18.21,9.11,18.65Z"/><path d="M10.6,11.78l.73-.1a.28.28,0,0,1,.35.15c.09.14.06.2-.09.24l-1,.3a.46.46,0,0,0-.37.33c0,.11-.1.21-.15.33.35-.12.68-.24,1-.34s.44,0,.48.3a.22.22,0,0,1-.09.19c-.54.17-1.07.35-1.62.48-.13,0-.31-.09-.45-.17s0-.14,0-.2c.29-.7.58-1.39.88-2.08a.55.55,0,0,1,.47-.34c.38,0,.76-.1,1.15-.16.12,0,.22,0,.22.17s0,.29-.18.32a6.42,6.42,0,0,1-.75.1A.48.48,0,0,0,10.6,11.78Z"/><path d="M8.09,12.69c.17-.37.33-.75.5-1.13L8.83,11a.35.35,0,0,1,.53,0,.26.26,0,0,1,0,.21c-.29.6-.6,1.2-.9,1.8-.06.13-.13.26-.18.4s-.26.24-.4.08a.57.57,0,0,1-.11-.22c-.09-.28-.16-.57-.26-.85a1.82,1.82,0,0,0-.2-.36,1.78,1.78,0,0,0-.23.33c-.17.37-.31.75-.45,1.14-.06.14-.11.23-.28.17s-.31-.16-.24-.34c.32-.72.65-1.45,1-2.16A.5.5,0,0,1,7.43,11c.05,0,.19.09.21.17.12.38.22.77.32,1.16,0,.12,0,.24.07.36Z"/><path d="M8.39,6.3a1.89,1.89,0,0,0-1.59.38c-.11.1-.19.23-.37.14s-.23-.17-.15-.34a1.75,1.75,0,0,1,.18-.29A11.35,11.35,0,0,1,8.33,4.33a.81.81,0,0,1,.39-.17c.26,0,.41.09.38.35C9,5.11,9,5.72,8.87,6.33a1.21,1.21,0,0,1,0,.18c-.06.21-.16.28-.37.22s-.09-.2-.09-.31S8.37,6.36,8.39,6.3Zm-.8-.55,0,.07.6-.05a.27.27,0,0,0,.28-.28,1.21,1.21,0,0,0,0-.19,2.11,2.11,0,0,0,0-.25c-.09,0-.21,0-.27.07A7.6,7.6,0,0,0,7.59,5.75Z"/><path d="M12.66,20a1.84,1.84,0,0,0-1.6.4c-.11.11-.21.2-.38.12s-.21-.18-.13-.32a1.73,1.73,0,0,1,.25-.39c.59-.6,1.18-1.19,1.79-1.77a1,1,0,0,1,.48-.18.27.27,0,0,1,.31.29,8.26,8.26,0,0,1-.3,2.15c-.05.2-.23.15-.35.12s-.08-.14-.1-.22A1,1,0,0,1,12.66,20Zm-.78-.55,0,.07c.21,0,.43,0,.64-.05a.36.36,0,0,0,.21-.19,1.19,1.19,0,0,0,.06-.42s-.1-.12-.14-.11a.53.53,0,0,0-.26.13C12.23,19,12.06,19.24,11.88,19.43Z"/><path d="M5,5.16l.8-.07A.26.26,0,0,0,5.92,5c.09-.2.17-.4.25-.6a.35.35,0,0,1,.48-.19s.08.13.07.19A4.19,4.19,0,0,1,6.5,5c-.25.53-.51,1-.76,1.57a.63.63,0,0,1-.18.24.26.26,0,0,1-.25,0,.28.28,0,0,1-.06-.24c.11-.29.24-.57.36-.86a1.09,1.09,0,0,0,0-.14l-.85,0s-.1.08-.13.14c-.16.31-.3.62-.47.92A.33.33,0,0,1,4,6.85a.33.33,0,0,1-.28-.1.36.36,0,0,1,0-.29c.24-.46.48-.92.74-1.38s.37-.63.55-1c.07-.11.16-.2.29-.08s.25.16.11.36A7.43,7.43,0,0,0,5,5.16Z"/><path d="M12.55,4.59a1,1,0,0,1-.19.29,3.9,3.9,0,0,1-1.87,1.06.46.46,0,0,0-.26.17c-.13.19-.24.4-.37.59a.31.31,0,0,1-.45.13c-.19-.12-.2-.25-.05-.41A2,2,0,0,0,9.67,6a4.22,4.22,0,0,0,.67-1.64.21.21,0,0,1,.12-.16,2,2,0,0,1,1.63-.14A.68.68,0,0,1,12.55,4.59Zm-2,.77A2,2,0,0,0,12,4.61a.13.13,0,0,0,0-.13,1.18,1.18,0,0,0-1,.11A7.08,7.08,0,0,0,10.54,5.36Z"/><path d="M15.78,4.58a1.53,1.53,0,0,1-.19.3,4,4,0,0,1-1.87,1.06.57.57,0,0,0-.28.18c-.13.19-.23.4-.37.59a.31.31,0,0,1-.47.1c-.17-.13-.17-.24,0-.39a1.13,1.13,0,0,0,.22-.27,4.58,4.58,0,0,0,.76-1.77.21.21,0,0,1,.13-.17A1.91,1.91,0,0,1,15.22,4a1.61,1.61,0,0,1,.45.3A.9.9,0,0,1,15.78,4.58Zm-2,.78.13,0,.14,0a2,2,0,0,0,1-.53,2.17,2.17,0,0,0,.23-.3,2.37,2.37,0,0,0-.36-.09c-.24,0-.51,0-.67.16A4.13,4.13,0,0,0,13.76,5.36Z"/><path d="M16.81,5c.32-.33.59-.63.88-.92A.84.84,0,0,1,18,3.9a.31.31,0,0,1,.27,0,.35.35,0,0,1,0,.3.47.47,0,0,1-.21.23,4.05,4.05,0,0,0-1.15,1.11c-.29.37-.56.76-.84,1.14-.06.08-.12.16-.21.06s-.26-.2-.14-.36.43-.6.65-.89a.22.22,0,0,0,0-.3A4.18,4.18,0,0,1,16,4.58a.42.42,0,0,1,0-.33c0-.08.15-.14.24-.17s.1.09.14.16Z"/><path d="M6.34,18.71c.32-.34.6-.64.89-.93a.84.84,0,0,1,.29-.2.34.34,0,0,1,.27,0,.39.39,0,0,1,0,.3.52.52,0,0,1-.21.23,3.5,3.5,0,0,0-1,1c-.33.41-.63.83-.94,1.26-.13.17-.19.18-.32,0a.82.82,0,0,1-.1-.17c.24-.34.45-.66.68-1a.24.24,0,0,0,0-.33,3.38,3.38,0,0,1-.36-.64.5.5,0,0,1,0-.34.36.36,0,0,1,.23-.16s.11.1.15.16Z"/><path d="M20.8,19.67l-.16,0h-.1a2.42,2.42,0,0,1,.91-2.29,4.12,4.12,0,0,1,1.77-.76,9.13,9.13,0,0,1,2.4-.16l0,.26h-.23a7.5,7.5,0,0,0-2.82.39,4.12,4.12,0,0,0-.73.36,2.07,2.07,0,0,0-1,1.86C20.79,19.45,20.8,19.55,20.8,19.67Z"/><path d="M22.83,7h.25a4.82,4.82,0,0,0,.41,1.72,7.89,7.89,0,0,0,1.94,2.54l.71.65c-.15.17-.26.14-.4,0a11.63,11.63,0,0,1-2-2.16,5.15,5.15,0,0,1-.92-2.53A1.76,1.76,0,0,1,22.83,7Z"/><path d="M29.82,10.3l-.25.12A26.93,26.93,0,0,1,27.86,6l.27-.07A25.79,25.79,0,0,0,29.82,10.3Z"/><path d="M21.1,13.05v.3a11.79,11.79,0,0,0-4.35.19l-.25-.16a2.33,2.33,0,0,1,.47-.24A5.4,5.4,0,0,1,18,13C19,13,20.06,13,21.1,13.05Z"/><path d="M17.88,1.93c.21-.07.3,0,.37.19A6.88,6.88,0,0,0,19.7,4.36l-.15.18A6.44,6.44,0,0,1,17.88,1.93Z"/><path d="M26.41,3.75l-.11-.44L27,3.13l.12.43Z"/><path d="M3.45,3.76l-.11.44L2.61,4l.1-.44Z"/><path d="M24.17,17.22l.74.18-.11.43-.74-.18Z"/><path d="M20.31,8.15,19.58,8l.1-.44.75.18Z"/><path d="M7.73,8.34l-.12.44-.73-.19c.07-.44.07-.44.49-.33Z"/><path d="M7.33,22.7l.59-.15a.18.18,0,0,1,.15.08,2.49,2.49,0,0,1,.08.32l-.39.1C7.4,23.13,7.36,23.1,7.33,22.7Z"/><path d="M4.45,17.21l.43.09-.12.54-.43-.09Z"/><path d="M32.67,6l.43-.1.12.54-.43.1Z"/><path d="M12.91,3.21,13,2.68l.43.1-.13.54Z"/><path d="M19.88,4.37l.46.27L20.13,5l-.46-.26Z"/><path d="M7.34,2.84l-.47-.26.21-.37.46.26Z"/><path d="M18.53,19.36l.21-.37.46.26-.21.37Z"/><path d="M7.31,15l.21-.36L8,14.9l-.21.37Z"/><path d="M17.29,3.46l-.46-.26L17,2.83l.46.26Z"/><path d="M2.38,11l.22-.36.46.26-.21.37Z"/><path d="M24.58,6l.2-.37.47.26-.2.37Z"/><path d="M12.26,16.76l-.46-.25.2-.38.47.26Z"/><path d="M14.07,21.73l.47.26-.2.37-.46-.25Z"/><path d="M36,8l-.47.25-.21-.37.47-.25Z"/><path d="M29.68,4.08l-.11-.43L30,3.54,30.1,4Z"/><path d="M11.79,8.62,11.68,9,11.26,9l.11-.44Z"/><path d="M16.74,8l.42.11-.11.42-.42-.09Z"/><path d="M9.89,20.67l.4.2-.19.38-.41-.19Z"/><path d="M21.35,21.9l.11-.43.41.09-.09.44Z"/><path d="M21,15.9l-.11-.44.42-.1.11.42Z"/><path d="M22.73,3.33l-.2.38-.4-.21.21-.38Z"/><path d="M3.33,15.19l-.2.38-.4-.21.2-.38Z"/><path d="M33.91,2.75c.45,0,.47.09.29.51l-.4-.1Z"/><path d="M23.85,2.52h-.26V1.92h.26Z"/><path d="M25.35,14.13l-.05-.22.18-.06C25.6,14.1,25.58,14.14,25.35,14.13Z"/><path d="M22.65,10.29l.26-.06.06.19-.25.08Z"/><path d="M19,11.35l-.21,0,.05-.24h.21Z"/><path d="M4.8,10.91l0,.21-.25.07L4.53,11Z"/><path d="M13.82,9.07c.27,0,.2.14.14.29l-.2,0Z"/><path d="M4.53,20.37l.06.21-.25.07-.07-.2Z"/><path d="M30.5,7.78,30.44,8l-.23-.06C30.23,7.66,30.24,7.66,30.5,7.78Z"/><path d="M18.52,14.66l-.08.29-.2,0c0-.07,0-.16.05-.2S18.42,14.67,18.52,14.66Z"/><path d="M14,15l-.19,0c0-.28,0-.28.23-.21Z"/><path d="M8.89,3.7,9,3.42c.07,0,.16,0,.18.08a.21.21,0,0,1,0,.19S9,3.7,8.89,3.7Z"/><path d="M27.21,10.37l-.19,0,.06-.23C27.31,10.09,27.33,10.12,27.21,10.37Z"/><path d="M2.58,6.91l.19,0c.11.24.1.27-.12.29Z"/><path d="M4.93,15.08l-.07-.16c.24-.15.27-.14.3.09l-.12,0Z"/><path d="M27.71,7c-.05-.16-.14-.31.14-.3l.07.23Z"/><path d="M9.52,16l-.21-.06.06-.25.21,0Z"/><path d="M16.31,17.06l.06-.25.2,0-.05.27Z"/></g><g class="cls-3"><path d="M33,9.46l2.64,3.6.75,1a.45.45,0,0,1,.08.22v7.06s0,.06,0,.1c-1,.34-1,.36-1.27,1.27h-1l.2-.27A7.91,7.91,0,0,0,36,16.9a12.09,12.09,0,0,0-1.37-4.7,15.5,15.5,0,0,0-1.12-1.61c-.17-.24-.35-.47-.54-.73A13.28,13.28,0,0,1,31.48,13a.24.24,0,0,0,0,.3,11.31,11.31,0,0,1,1.56,3.88,5,5,0,0,1-.52,3.62,4.64,4.64,0,0,1-1.38,1.41l-.28.18.75.28v.05a3,3,0,0,1-.8-.07c-1.84-.64-3.68-1.31-5.51-2-.25-.09-.22-.32-.2-.49a3.49,3.49,0,0,1,.2-.77A20.28,20.28,0,0,1,27,16.28,39.31,39.31,0,0,1,31,11c.26-.29.54-.58.83-.85A1.76,1.76,0,0,1,33,9.46Zm-2.3,4.88-3.17,4.29A3.14,3.14,0,0,1,28,21.37l1.52.55a.23.23,0,0,0,.14,0A4.07,4.07,0,0,0,31.56,20a4.41,4.41,0,0,0,.3-2.68A9.06,9.06,0,0,0,30.74,14.34ZM27,19.26l-1.41,1.25,1.24.45c.24.09.35,0,.42-.21a.7.7,0,0,0,0-.35C27.18,20,27.08,19.65,27,19.26Z"/><path d="M12.74,10.93,12.4,12l.08.07a.91.91,0,0,1,.09-.17l.63-.71c.33-.36.33-.36.87-.46V12h0l.53-.69c.2-.24.4-.48.59-.73s.23-.05.34,0,.11.16,0,.27l-1.14,1.64c-.09.14-.16.31-.25.45a.33.33,0,0,1-.16.13c-.14,0-.28.08-.43.12l-.15-1.64a.73.73,0,0,0-.14.11c-.34.47-.69.93-1,1.41a.36.36,0,0,1-.45.16c-.2,0-.21-.2-.18-.35l.48-2c0-.13.11-.15.22-.11Z"/><path d="M15.11,19.06a3.2,3.2,0,0,1,.38.22,1.6,1.6,0,0,1,.35.28c.24.27.15.5-.23.59a1.64,1.64,0,0,0-.78-.82.46.46,0,0,0-.68.15c-.12.2-.23.4-.37.59A.32.32,0,0,1,13.2,20a.24.24,0,0,1,0-.18,5.31,5.31,0,0,0,.49-.68,3.3,3.3,0,0,0,.55-1.42.27.27,0,0,1,.13-.17,2.06,2.06,0,0,1,1.54-.18,1.63,1.63,0,0,1,.19.09c.4.22.46.51.12.82a10.22,10.22,0,0,1-.92.66Zm-.62-.38,0,.05.2,0a2,2,0,0,0,.95-.49,2.39,2.39,0,0,0,.28-.35,1.36,1.36,0,0,0-.44-.08,1,1,0,0,0-.6.17A3,3,0,0,0,14.49,18.68Z"/><path d="M8.77,18.31l.76-.11a.27.27,0,0,1,.33.15c.08.13.06.2-.09.24-.34.1-.68.21-1,.3a.44.44,0,0,0-.37.32c0,.11-.1.22-.16.35.36-.12.68-.24,1-.34s.43,0,.48.29a.22.22,0,0,1-.09.19c-.53.17-1.07.35-1.61.49-.14,0-.32-.09-.46-.17s0-.15,0-.2c.29-.7.6-1.4.9-2.1a.51.51,0,0,1,.45-.33c.39,0,.78-.1,1.17-.15.12,0,.21,0,.21.16s0,.28-.15.31l-.8.12C8.89,17.88,8.89,17.87,8.77,18.31Z"/><path d="M10.26,11.44c.25,0,.49-.06.73-.11a.29.29,0,0,1,.35.16c.09.14.06.2-.09.24l-1,.3a.44.44,0,0,0-.37.33c0,.11-.1.21-.15.33.35-.12.68-.24,1-.34s.44,0,.48.3a.22.22,0,0,1-.09.19c-.54.17-1.07.35-1.62.48-.13,0-.31-.09-.45-.17S9,13,9,13c.29-.7.58-1.39.88-2.08a.55.55,0,0,1,.47-.34c.38,0,.76-.1,1.15-.16.12,0,.22,0,.22.17s0,.29-.18.32a6.42,6.42,0,0,1-.75.1A.48.48,0,0,0,10.26,11.44Z"/><path d="M7.75,12.35c.17-.37.33-.75.5-1.13l.24-.52a.35.35,0,0,1,.53,0,.26.26,0,0,1,0,.21c-.29.6-.6,1.2-.9,1.8-.06.13-.13.26-.18.4s-.26.24-.4.08a.57.57,0,0,1-.11-.22c-.09-.28-.16-.57-.26-.85a1.82,1.82,0,0,0-.2-.36,1.78,1.78,0,0,0-.23.33c-.17.37-.31.75-.45,1.14-.06.14-.11.23-.28.17s-.31-.16-.24-.34c.32-.72.65-1.45,1-2.16a.5.5,0,0,1,.34-.21s.19.09.21.17c.12.38.22.77.32,1.16,0,.12,0,.24.07.36Z"/><path d="M8.05,6a1.85,1.85,0,0,0-1.59.38c-.11.1-.19.23-.37.14s-.23-.17-.15-.34a1.27,1.27,0,0,1,.18-.29A11.35,11.35,0,0,1,8,4a.81.81,0,0,1,.39-.17c.26,0,.41.09.38.35-.06.6-.15,1.21-.23,1.82a1.21,1.21,0,0,1,0,.18c-.06.21-.16.28-.37.22S8,6.19,8,6.08A.41.41,0,0,1,8.05,6Zm-.8-.55,0,.06.6,0a.27.27,0,0,0,.28-.28,1.21,1.21,0,0,0,0-.19,2.11,2.11,0,0,0,0-.25c-.09,0-.21,0-.27.07A7.6,7.6,0,0,0,7.25,5.41Z"/><path d="M12.32,19.64a1.84,1.84,0,0,0-1.6.4c-.11.11-.21.2-.38.12s-.21-.18-.13-.32a1.73,1.73,0,0,1,.25-.39c.59-.6,1.18-1.19,1.79-1.77a1,1,0,0,1,.48-.18.27.27,0,0,1,.31.29,8.26,8.26,0,0,1-.3,2.15c-.05.2-.23.15-.35.12s-.08-.14-.1-.22A1,1,0,0,1,12.32,19.64Zm-.78-.55,0,.07c.22,0,.44,0,.65-.05a.36.36,0,0,0,.21-.19,1.19,1.19,0,0,0,.06-.42s-.1-.12-.14-.11a.53.53,0,0,0-.26.13C11.89,18.7,11.72,18.9,11.54,19.09Z"/><path d="M4.62,4.82l.8-.07a.26.26,0,0,0,.16-.13c.09-.2.17-.4.25-.6a.35.35,0,0,1,.48-.19c.05,0,.08.13.07.19a4.19,4.19,0,0,1-.22.59c-.25.53-.51,1-.76,1.57a.63.63,0,0,1-.18.24.26.26,0,0,1-.25,0,.28.28,0,0,1-.06-.24c.11-.29.24-.57.36-.86a1.09,1.09,0,0,0,.05-.14l-.85,0s-.1.08-.13.14c-.16.31-.3.62-.47.92a.36.36,0,0,1-.23.19.33.33,0,0,1-.28-.1.36.36,0,0,1,0-.29c.24-.46.48-.92.74-1.38s.37-.63.55-1c.07-.11.16-.2.29-.08s.25.16.11.36A7.43,7.43,0,0,0,4.62,4.82Z"/><path d="M12.21,4.25a1,1,0,0,1-.19.29A3.9,3.9,0,0,1,10.15,5.6a.46.46,0,0,0-.26.17c-.13.19-.24.4-.37.59a.31.31,0,0,1-.45.13c-.19-.12-.2-.25-.05-.41a2,2,0,0,0,.31-.41A4.22,4.22,0,0,0,10,4a.21.21,0,0,1,.12-.16,2,2,0,0,1,1.63-.14A.68.68,0,0,1,12.21,4.25ZM10.2,5a2,2,0,0,0,1.47-.75.13.13,0,0,0,0-.13,1.18,1.18,0,0,0-1,.11A7.08,7.08,0,0,0,10.2,5Z"/><path d="M15.44,4.24a1.53,1.53,0,0,1-.19.3A4,4,0,0,1,13.38,5.6a.57.57,0,0,0-.28.18c-.13.19-.23.4-.37.59a.31.31,0,0,1-.47.1c-.17-.13-.17-.24,0-.39a1.13,1.13,0,0,0,.22-.27A4.65,4.65,0,0,0,13.22,4a.21.21,0,0,1,.13-.17,1.91,1.91,0,0,1,1.53-.17,1.43,1.43,0,0,1,.44.3A.67.67,0,0,1,15.44,4.24Zm-2,.78.13,0,.14,0a2,2,0,0,0,1-.53,3.4,3.4,0,0,0,.23-.3,2.37,2.37,0,0,0-.36-.09c-.24,0-.51,0-.68.16A4.73,4.73,0,0,0,13.42,5Z"/><path d="M16.47,4.68c.32-.33.59-.63.88-.92a.84.84,0,0,1,.29-.2.31.31,0,0,1,.27,0,.35.35,0,0,1,0,.3.47.47,0,0,1-.21.23,4.05,4.05,0,0,0-1.15,1.11c-.29.37-.56.76-.84,1.14-.06.08-.12.16-.21.06s-.26-.2-.14-.36c.21-.31.43-.6.65-.89a.22.22,0,0,0,0-.3,3.86,3.86,0,0,1-.37-.66.4.4,0,0,1,0-.32c0-.08.15-.14.24-.17s.1.09.14.16Z"/><path d="M6,18.37l.88-.93a1,1,0,0,1,.3-.2.34.34,0,0,1,.27,0,.39.39,0,0,1,0,.3.49.49,0,0,1-.22.23,3.59,3.59,0,0,0-1,1c-.33.41-.63.83-.94,1.26-.13.17-.19.18-.32,0a.82.82,0,0,1-.1-.17c.24-.34.45-.66.68-1a.24.24,0,0,0,0-.33,4.09,4.09,0,0,1-.37-.64.56.56,0,0,1,0-.34.33.33,0,0,1,.23-.16s.11.1.15.16Z"/><path d="M20.46,19.33l-.16,0h-.1a2.42,2.42,0,0,1,.91-2.29,4.12,4.12,0,0,1,1.77-.76,9.13,9.13,0,0,1,2.4-.16l0,.25H25a7.5,7.5,0,0,0-2.82.39,3.54,3.54,0,0,0-.73.36,2.07,2.07,0,0,0-1,1.86C20.45,19.11,20.46,19.21,20.46,19.33Z"/><path d="M22.49,6.69h.25a4.82,4.82,0,0,0,.41,1.72A7.89,7.89,0,0,0,25.09,11l.71.65c-.15.17-.26.14-.4,0a11.63,11.63,0,0,1-2-2.16,5.15,5.15,0,0,1-.92-2.53A1.76,1.76,0,0,1,22.49,6.69Z"/><path d="M29.48,10l-.25.12a26.93,26.93,0,0,1-1.71-4.42l.27-.07A25.79,25.79,0,0,0,29.48,10Z"/><path d="M20.76,12.71V13a11.79,11.79,0,0,0-4.35.19L16.15,13a2.33,2.33,0,0,1,.47-.24,5.41,5.41,0,0,1,1-.14C18.69,12.65,19.72,12.69,20.76,12.71Z"/><path d="M17.54,1.59c.21-.07.3,0,.37.19A6.88,6.88,0,0,0,19.36,4l-.15.18A6.44,6.44,0,0,1,17.54,1.59Z"/><path d="M26.07,3.41,26,3l.74-.18.12.43Z"/><path d="M3.11,3.42,3,3.86l-.73-.18.1-.44Z"/><path d="M23.83,16.88l.74.18-.11.43-.74-.18Z"/><path d="M20,7.81l-.73-.17.1-.44.75.18Z"/><path d="M7.39,8l-.12.44-.73-.19c.07-.44.07-.44.49-.34Z"/><path d="M7,22.36l.59-.15a.18.18,0,0,1,.15.08,2.49,2.49,0,0,1,.08.32l-.39.1C7.06,22.79,7,22.76,7,22.36Z"/><path d="M4.11,16.87l.43.09-.12.54L4,17.41Z"/><path d="M32.33,5.63l.43-.1.12.54-.43.09Z"/><path d="M12.57,2.87l.13-.53.43.1L13,3Z"/><path d="M19.54,4,20,4.3l-.21.36-.46-.26Z"/><path d="M7,2.5l-.47-.26.21-.37.46.26Z"/><path d="M18.19,19l.21-.36.46.26-.21.37Z"/><path d="M7,14.67l.21-.37.46.26-.21.37Z"/><path d="M17,3.12l-.46-.26.21-.37.46.26Z"/><path d="M2,10.63l.22-.36.46.26-.21.37Z"/><path d="M24.24,5.67l.2-.37.47.26-.2.37Z"/><path d="M11.92,16.42l-.46-.25.2-.38.47.26Z"/><path d="M13.73,21.39l.47.26L14,22l-.46-.25Z"/><path d="M35.69,7.69l-.47.25L35,7.57l.47-.25Z"/><path d="M29.34,3.74l-.11-.43.42-.11.11.43Z"/><path d="M11.45,8.28l-.11.42-.42-.09L11,8.17Z"/><path d="M16.4,7.61l.42.11-.11.42-.42-.09Z"/><path d="M9.55,20.33l.4.2-.19.38-.41-.19Z"/><path d="M21,21.56l.11-.43.41.09-.09.44Z"/><path d="M20.69,15.56l-.11-.44L21,15l.11.42Z"/><path d="M22.39,3l-.2.38-.4-.21L22,2.78Z"/><path d="M3,14.85l-.2.38L2.39,15l.2-.38Z"/><path d="M33.57,2.41c.45,0,.47.09.29.51l-.4-.1Z"/><path d="M23.51,2.18h-.26V1.58h.26Z"/><path d="M25,13.79,25,13.57l.18-.06C25.26,13.76,25.24,13.8,25,13.79Z"/><path d="M22.31,10l.26-.06.06.19-.25.08Z"/><path d="M18.69,11l-.21,0,.05-.24h.21Z"/><path d="M4.46,10.57l0,.21-.25.07-.07-.2Z"/><path d="M13.48,8.73c.27,0,.2.14.14.29l-.2,0Z"/><path d="M4.19,20l.06.21L4,20.31l-.07-.2Z"/><path d="M30.16,7.44l-.06.18-.23-.06C29.89,7.32,29.9,7.32,30.16,7.44Z"/><path d="M18.18,14.32l-.08.29-.2,0c0-.07,0-.16.05-.2S18.08,14.33,18.18,14.32Z"/><path d="M13.7,14.61l-.19,0c0-.28,0-.28.23-.21Z"/><path d="M8.55,3.36l.07-.28c.07,0,.16,0,.18.08a.21.21,0,0,1,0,.19S8.64,3.36,8.55,3.36Z"/><path d="M26.87,10l-.19,0,.06-.23C27,9.75,27,9.78,26.87,10Z"/><path d="M2.24,6.57l.19-.05c.11.24.1.27-.12.29Z"/><path d="M4.59,14.74l-.07-.16c.24-.15.27-.14.3.09l-.12,0Z"/><path d="M27.37,6.61c-.05-.16-.14-.31.14-.3l.07.23Z"/><path d="M9.18,15.62,9,15.56,9,15.31l.21,0Z"/><path d="M16,16.71l.06-.24.2,0-.05.27Z"/></g><path class="cls-4" d="M33.24,9.66l2.64,3.6.74,1a.43.43,0,0,1,.08.23q0,3.53,0,7s0,.07,0,.1c-1,.35-1,.37-1.27,1.28h-1l.2-.27a7.93,7.93,0,0,0,1.62-5.57,12,12,0,0,0-1.37-4.7,14.5,14.5,0,0,0-1.12-1.61c-.17-.24-.35-.47-.54-.73a13.67,13.67,0,0,1-1.51,3.18.24.24,0,0,0,0,.3,11.31,11.31,0,0,1,1.56,3.88A5.08,5.08,0,0,1,32.74,21a4.53,4.53,0,0,1-1.39,1.4l-.27.19.75.27V23a3.59,3.59,0,0,1-.81-.07c-1.84-.65-3.67-1.32-5.5-2-.25-.09-.22-.31-.2-.48a3.49,3.49,0,0,1,.2-.77,19.84,19.84,0,0,1,1.71-3.18,39.31,39.31,0,0,1,4-5.31,11.05,11.05,0,0,1,.83-.85A1.72,1.72,0,0,1,33.24,9.66Zm-2.3,4.88-3.18,4.29c.71.8.54,1.76.4,2.74l1.52.55a.23.23,0,0,0,.14,0,4.11,4.11,0,0,0,1.94-1.88,4.36,4.36,0,0,0,.29-2.69A9.07,9.07,0,0,0,30.94,14.54Zm-3.77,4.92-1.4,1.25,1.24.45c.24.09.35,0,.41-.21a.61.61,0,0,0,0-.35C27.38,20.22,27.28,19.85,27.17,19.46Z"/><path class="cls-4" d="M12.94,11.13l-.34,1.06.08.07a.91.91,0,0,1,.09-.17l.63-.71a1,1,0,0,1,.86-.46v1.32h.06l.53-.69c.19-.24.4-.48.59-.73s.23-.05.34,0,.11.17,0,.28l-1.14,1.64c-.1.14-.16.3-.25.45a.33.33,0,0,1-.16.13c-.14.05-.28.08-.44.12l-.15-1.64a1,1,0,0,0-.13.11c-.34.47-.69.93-1,1.41a.35.35,0,0,1-.44.16c-.2-.05-.21-.2-.18-.35.15-.68.32-1.36.48-2a.15.15,0,0,1,.22-.12Z"/><path class="cls-4" d="M15.31,19.26a4.27,4.27,0,0,1,.38.22,1.54,1.54,0,0,1,.34.28c.24.27.15.5-.22.58a1.66,1.66,0,0,0-.78-.81.46.46,0,0,0-.68.15c-.13.2-.24.4-.37.59a.32.32,0,0,1-.58-.07.23.23,0,0,1,0-.18,5.31,5.31,0,0,0,.49-.68,3.3,3.3,0,0,0,.55-1.42.25.25,0,0,1,.13-.17,2.06,2.06,0,0,1,1.54-.18.82.82,0,0,1,.19.09c.4.21.46.51.12.81a10.31,10.31,0,0,1-.92.67Zm-.62-.39.05.06.2,0a2,2,0,0,0,1-.49,3.3,3.3,0,0,0,.28-.35,1.41,1.41,0,0,0-.44-.08,1,1,0,0,0-.6.16A3.38,3.38,0,0,0,14.69,18.87Z"/><path class="cls-4" d="M9,18.5c.26,0,.51-.06.75-.11a.3.3,0,0,1,.34.16c.08.13.06.2-.09.24l-1,.3a.47.47,0,0,0-.38.32,2.45,2.45,0,0,1-.15.35c.36-.12.68-.25,1-.35s.42,0,.48.29a.24.24,0,0,1-.09.2c-.54.17-1.07.35-1.62.48-.13,0-.31-.09-.45-.16s0-.15,0-.21c.29-.7.59-1.39.9-2.09a.51.51,0,0,1,.45-.33c.39,0,.78-.1,1.17-.16.12,0,.21,0,.21.17s0,.28-.16.31L9.5,18C9.09,18.07,9.09,18.07,9,18.5Z"/><path class="cls-4" d="M10.46,11.64c.25,0,.49-.06.73-.11a.29.29,0,0,1,.35.16c.09.14.05.2-.09.24-.35.1-.69.21-1,.3a.47.47,0,0,0-.37.32,2,2,0,0,1-.15.34l1-.34c.29-.09.43,0,.48.3a.22.22,0,0,1-.09.19c-.54.17-1.07.35-1.62.48-.13,0-.31-.09-.45-.17s-.05-.15,0-.2c.28-.7.58-1.39.88-2.08a.53.53,0,0,1,.47-.34l1.14-.16c.13,0,.23,0,.23.17s0,.29-.18.32-.5.09-.75.1A.48.48,0,0,0,10.46,11.64Z"/><path class="cls-4" d="M8,12.55c.16-.38.33-.76.5-1.13l.24-.52a.34.34,0,0,1,.53,0,.26.26,0,0,1,0,.21l-.9,1.8c-.06.13-.13.26-.18.4s-.26.24-.4.08a.46.46,0,0,1-.11-.22c-.09-.29-.16-.57-.26-.85a1.9,1.9,0,0,0-.2-.37,2.08,2.08,0,0,0-.24.34c-.16.37-.31.75-.44,1.13-.06.15-.11.24-.29.18s-.31-.16-.23-.34q.48-1.1,1-2.16a.55.55,0,0,1,.35-.21s.18.09.21.17c.12.38.22.77.32,1.15,0,.12,0,.25.07.37Z"/><path class="cls-4" d="M8.24,6.16a1.83,1.83,0,0,0-1.58.38c-.11.09-.19.23-.37.14s-.24-.17-.15-.34a1.05,1.05,0,0,1,.17-.29A11,11,0,0,1,8.18,4.19.84.84,0,0,1,8.58,4c.26,0,.41.09.38.34C8.9,5,8.81,5.58,8.73,6.18a1.05,1.05,0,0,1-.05.19c-.06.21-.16.28-.37.22s-.09-.2-.09-.32S8.23,6.22,8.24,6.16ZM7.45,5.6l0,.07.6,0a.27.27,0,0,0,.28-.28c0-.07,0-.13,0-.19a2,2,0,0,0,0-.25A.77.77,0,0,0,8.08,5C7.86,5.17,7.66,5.39,7.45,5.6Z"/><path class="cls-4" d="M12.52,19.84a1.84,1.84,0,0,0-1.6.4c-.11.11-.21.2-.38.12s-.21-.18-.13-.33a1.39,1.39,0,0,1,.25-.38c.59-.6,1.18-1.19,1.79-1.77a1,1,0,0,1,.48-.18.28.28,0,0,1,.31.29,8.26,8.26,0,0,1-.3,2.15c0,.19-.23.15-.35.12s-.08-.14-.1-.23A.54.54,0,0,1,12.52,19.84Zm-.78-.55,0,.07c.22,0,.43,0,.64-.06a.31.31,0,0,0,.22-.18,1.19,1.19,0,0,0,.06-.42s-.1-.12-.14-.11a.62.62,0,0,0-.26.12C12.09,18.9,11.92,19.1,11.74,19.29Z"/><path class="cls-4" d="M4.82,5,5.62,5a.26.26,0,0,0,.16-.13c.09-.2.17-.4.25-.6A.36.36,0,0,1,6.51,4a.23.23,0,0,1,.07.19,3.89,3.89,0,0,1-.22.6c-.25.52-.51,1.05-.77,1.57a.53.53,0,0,1-.17.24c-.06,0-.19.08-.25,0a.28.28,0,0,1-.06-.24c.11-.29.24-.58.36-.86,0,0,0-.08,0-.14l-.85,0s-.1.08-.13.14c-.16.3-.3.62-.47.92a.39.39,0,0,1-.23.19.35.35,0,0,1-.28-.1.37.37,0,0,1,0-.29c.24-.46.48-.92.73-1.38s.37-.63.56-1c.07-.11.16-.2.28-.08s.26.16.12.35S5,4.75,4.82,5Z"/><path class="cls-4" d="M12.41,4.45a1,1,0,0,1-.19.29,3.8,3.8,0,0,1-1.87,1,.53.53,0,0,0-.26.18c-.14.19-.24.4-.37.59a.32.32,0,0,1-.45.13c-.2-.12-.2-.25,0-.42a1.72,1.72,0,0,0,.31-.4,4.2,4.2,0,0,0,.66-1.64.25.25,0,0,1,.12-.16A2,2,0,0,1,12,3.92.71.71,0,0,1,12.41,4.45Zm-2,.77a2,2,0,0,0,1.47-.75.14.14,0,0,0,0-.14,1.21,1.21,0,0,0-1,.11A8.37,8.37,0,0,0,10.4,5.22Z"/><path class="cls-4" d="M15.64,4.44a2.2,2.2,0,0,1-.19.3,3.92,3.92,0,0,1-1.87,1A.61.61,0,0,0,13.3,6c-.13.19-.24.4-.37.59a.31.31,0,0,1-.47.1c-.17-.13-.17-.24,0-.39A1,1,0,0,0,12.66,6a4.36,4.36,0,0,0,.75-1.77.29.29,0,0,1,.14-.17,2,2,0,0,1,1.53-.16,1.43,1.43,0,0,1,.44.3A.6.6,0,0,1,15.64,4.44Zm-2,.77.13,0,.15,0a2.08,2.08,0,0,0,1-.53,2.49,2.49,0,0,0,.23-.31c-.12,0-.24-.07-.36-.08s-.51,0-.68.15A6.27,6.27,0,0,0,13.61,5.21Z"/><path class="cls-4" d="M16.66,4.88,17.55,4a.72.72,0,0,1,.29-.2.31.31,0,0,1,.27,0,.35.35,0,0,1,0,.3.5.5,0,0,1-.21.22,4.23,4.23,0,0,0-1.15,1.12c-.29.37-.56.76-.84,1.14-.06.08-.12.16-.21.06s-.26-.2-.14-.37.43-.59.64-.88a.21.21,0,0,0,0-.3,3.29,3.29,0,0,1-.37-.66.4.4,0,0,1,0-.32.37.37,0,0,1,.23-.17s.11.09.15.16C16.37,4.36,16.52,4.62,16.66,4.88Z"/><path class="cls-4" d="M6.2,18.57l.88-.93a1,1,0,0,1,.3-.2.31.31,0,0,1,.27,0,.39.39,0,0,1,0,.3.54.54,0,0,1-.22.23,3.59,3.59,0,0,0-1,1c-.33.41-.63.83-.94,1.25-.13.18-.19.19-.32,0a.82.82,0,0,1-.1-.17c.24-.34.45-.66.68-1a.25.25,0,0,0,0-.33,3.43,3.43,0,0,1-.37-.64.56.56,0,0,1,0-.34.33.33,0,0,1,.23-.16s.11.1.15.16Z"/><path class="cls-4" d="M20.65,19.53l-.15,0h-.1a2.41,2.41,0,0,1,.91-2.28,4,4,0,0,1,1.77-.76,9.13,9.13,0,0,1,2.4-.16l0,.25h-.24A7.68,7.68,0,0,0,22.4,17a4.17,4.17,0,0,0-.73.37,2.1,2.1,0,0,0-1,1.86Z"/><path class="cls-4" d="M22.69,6.89h.25a5.08,5.08,0,0,0,.4,1.72,7.78,7.78,0,0,0,1.95,2.53l.71.66c-.16.17-.26.14-.4,0a11.58,11.58,0,0,1-2-2.15,5.15,5.15,0,0,1-.92-2.54A1.61,1.61,0,0,1,22.69,6.89Z"/><path class="cls-4" d="M29.68,10.16l-.25.12a26.69,26.69,0,0,1-1.71-4.43L28,5.79A25.79,25.79,0,0,0,29.68,10.16Z"/><path class="cls-4" d="M21,12.9l0,.31a11.74,11.74,0,0,0-4.34.19l-.25-.16a2.33,2.33,0,0,1,.47-.24,5.32,5.32,0,0,1,1-.15C18.89,12.85,19.92,12.89,21,12.9Z"/><path class="cls-4" d="M17.74,1.78c.21-.06.29,0,.37.2a6.72,6.72,0,0,0,1.45,2.24l-.15.18A6.41,6.41,0,0,1,17.74,1.78Z"/><path class="cls-4" d="M26.27,3.61l-.11-.44L26.9,3l.12.43Z"/><path class="cls-4" d="M3.31,3.62l-.11.44-.73-.18.09-.44Z"/><path class="cls-4" d="M24,17.08l.74.17-.11.44-.74-.18Z"/><path class="cls-4" d="M20.17,8l-.73-.18.1-.43.75.18Z"/><path class="cls-4" d="M7.59,8.2l-.12.43-.73-.18c.07-.44.07-.44.49-.34Z"/><path class="cls-4" d="M7.18,22.55l.6-.14a.18.18,0,0,1,.15.08,2.13,2.13,0,0,1,.08.32l-.4.1C7.26,23,7.22,23,7.18,22.55Z"/><path class="cls-4" d="M4.31,17.07l.42.09-.11.54-.44-.09Z"/><path class="cls-4" d="M32.53,5.83l.43-.1.12.54-.43.09Z"/><path class="cls-4" d="M12.77,3.07l.13-.53.43.1-.13.54Z"/><path class="cls-4" d="M19.74,4.23l.46.26L20,4.86l-.46-.26Z"/><path class="cls-4" d="M7.2,2.7l-.47-.26.2-.37.47.25Z"/><path class="cls-4" d="M18.38,19.21l.22-.36.46.26-.21.37Z"/><path class="cls-4" d="M7.17,14.87l.21-.37.46.26-.21.37Z"/><path class="cls-4" d="M17.15,3.32l-.46-.26.2-.37.47.26Z"/><path class="cls-4" d="M2.24,10.83l.22-.36.46.26-.22.36Z"/><path class="cls-4" d="M24.44,5.87l.2-.37.47.26-.2.37Z"/><path class="cls-4" d="M12.12,16.62l-.46-.26.2-.37.47.26Z"/><path class="cls-4" d="M13.93,21.59l.47.26-.2.37L13.74,22Z"/><path class="cls-4" d="M35.89,7.89l-.47.25-.21-.37.47-.25Z"/><path class="cls-4" d="M29.54,3.94l-.11-.43.41-.11.12.43Z"/><path class="cls-4" d="M11.65,8.48l-.11.42-.42-.09.11-.44Z"/><path class="cls-4" d="M16.6,7.81l.42.11-.11.42-.42-.09Z"/><path class="cls-4" d="M9.75,20.53l.4.2-.19.38-.41-.2Z"/><path class="cls-4" d="M21.21,21.75l.1-.42.42.08-.09.44Z"/><path class="cls-4" d="M20.89,15.76l-.11-.44.42-.11.11.43Z"/><path class="cls-4" d="M22.59,3.19l-.2.38L22,3.36l.2-.38Z"/><path class="cls-4" d="M3.18,15.05,3,15.43l-.41-.21.21-.38Z"/><path class="cls-4" d="M33.77,2.61c.45.05.47.09.29.51l-.4-.1Z"/><path class="cls-4" d="M23.71,2.37l-.26,0V1.78h.26Z"/><path class="cls-4" d="M25.21,14l-.06-.22.19-.06C25.46,14,25.44,14,25.21,14Z"/><path class="cls-4" d="M22.51,10.15l.26-.06.06.19-.25.08Z"/><path class="cls-4" d="M18.89,11.21l-.21-.05.05-.24h.21Z"/><path class="cls-4" d="M4.66,10.77l0,.21-.25.07-.07-.2Z"/><path class="cls-4" d="M13.68,8.93c.27,0,.19.14.14.29l-.2,0Z"/><path class="cls-4" d="M4.39,20.23l.06.2-.25.08-.07-.2Z"/><path class="cls-4" d="M30.36,7.64l-.06.18-.23-.06C30.09,7.52,30.1,7.51,30.36,7.64Z"/><path class="cls-4" d="M18.38,14.52l-.08.29-.2-.05c0-.07,0-.16,0-.2S18.27,14.53,18.38,14.52Z"/><path class="cls-4" d="M13.9,14.81l-.19,0c0-.28,0-.28.23-.21Z"/><path class="cls-4" d="M8.75,3.56l.07-.28c.07,0,.16,0,.17.07a.18.18,0,0,1,0,.19S8.84,3.56,8.75,3.56Z"/><path class="cls-4" d="M27.07,10.23l-.19-.05.06-.23C27.17,10,27.19,10,27.07,10.23Z"/><path class="cls-4" d="M2.44,6.77l.19,0c.11.24.1.27-.12.29Z"/><path class="cls-4" d="M4.79,14.94l-.07-.17c.24-.14.27-.13.29.1l-.11,0Z"/><path class="cls-4" d="M27.57,6.81c-.05-.16-.14-.31.14-.3l.07.23Z"/><path class="cls-4" d="M9.38,15.82l-.21-.06.06-.25.2,0Z"/><path class="cls-4" d="M16.16,16.91l.07-.24.2,0-.05.27Z"/></g></g></svg>