<svg xmlns="http://www.w3.org/2000/svg" viewBox="0 0 38.55 24.66"><defs><style>.cls-1{isolation:isolate;}.cls-2{opacity:0.15;}.cls-2,.cls-3{mix-blend-mode:multiply;}.cls-4{fill:#fff;}</style></defs><title>convert-CUSTOMIZE-SVG-03</title><g class="cls-1"><g id="Layer_1" data-name="Layer 1"><g class="cls-2"><path d="M5.84,12.25a5.51,5.51,0,1,1,5.51,5.43A5.47,5.47,0,0,1,5.84,12.25Z"/><path d="M3,21a3.5,3.5,0,0,1,.51-.26.61.61,0,0,1,.84.69,1.43,1.43,0,0,1-.41.83,2,2,0,0,1-.26.25c-.75.52-.6.52-1.35,0a1.56,1.56,0,0,1-.65-1,.72.72,0,0,1,.23-.72.6.6,0,0,1,.68,0Z"/><path d="M19.29,21a3.45,3.45,0,0,1,.47-.24.6.6,0,0,1,.86.63,1.13,1.13,0,0,1-.34.8c-.28.25-.6.47-.9.69a.17.17,0,0,1-.17,0,2.33,2.33,0,0,1-1.12-1A.92.92,0,0,1,18,21a.52.52,0,0,1,.68-.29A6.07,6.07,0,0,1,19.29,21Z"/><path d="M19.29,2.71a4.06,4.06,0,0,1,.51-.26.59.59,0,0,1,.82.59,1.1,1.1,0,0,1-.35.86,8.47,8.47,0,0,1-.89.69.2.2,0,0,1-.17,0,2.39,2.39,0,0,1-1.12-1A.94.94,0,0,1,18,2.75a.53.53,0,0,1,.69-.31A4.36,4.36,0,0,1,19.29,2.71Z"/><path d="M3.05,2.71a3.93,3.93,0,0,1,.5-.26.61.61,0,0,1,.83.68,1.38,1.38,0,0,1-.46.9,6.76,6.76,0,0,1-.77.55A.25.25,0,0,1,3,4.6a2.43,2.43,0,0,1-1.11-1,.93.93,0,0,1-.09-.87.53.53,0,0,1,.71-.32A5.94,5.94,0,0,1,3.05,2.71Z"/><path d="M2.29,12.92V12H5v.93Z"/><path d="M17.66,12.92V12h2.73v.93Z"/><path d="M18,6.46,16.16,8.39l-.61-.65L17.4,5.8Z"/><path d="M7.15,7.75l-.62.65L4.68,6.46l.63-.64Z"/><path d="M14.32,4.08l.89.39L14.1,7l-.89-.38Z"/><path d="M5.55,9.53l-.39.87L2.63,9.31,3,8.43Z"/><path d="M16.71,15.38l.39-.87,2.53,1.09-.39.88Z"/><path d="M17.18,10.64l-.36-.89,2.57-1,.36.89Z"/><path d="M7.38,4.31,8.28,4l1,2.53-.91.36Z"/><path d="M5.08,14.27l.35.89-2.57,1-.35-.89Z"/><path d="M13.57,18.25l.9-.35,1,2.53-.9.35Z"/><path d="M9,18.33l-1.11,2.5-.88-.39L8.15,18Z"/><path d="M11.81,6.24h-.94V3.54h.94Z"/><path d="M11.81,21.37h-.94v-2.7h.94Z"/><path d="M6.53,16.49l.64.66L5.3,19.09l-.63-.66Z"/><path d="M18,18.45l-.63.66-1.85-1.95.62-.64Z"/><path d="M6,12.45a5.51,5.51,0,1,1,5.52,5.43A5.48,5.48,0,0,1,6,12.45Z"/><path d="M3.23,21.22A3.5,3.5,0,0,1,3.74,21a.61.61,0,0,1,.84.68,1.45,1.45,0,0,1-.41.84,1.22,1.22,0,0,1-.27.24c-.74.53-.6.53-1.34,0a1.56,1.56,0,0,1-.65-1A.7.7,0,0,1,2.14,21a.59.59,0,0,1,.68,0Z"/><path d="M19.49,21.21A4.12,4.12,0,0,1,20,21a.61.61,0,0,1,.86.64,1.18,1.18,0,0,1-.35.8c-.27.25-.59.46-.89.69a.17.17,0,0,1-.17,0,2.39,2.39,0,0,1-1.12-1,1,1,0,0,1-.08-.91.53.53,0,0,1,.69-.29A5,5,0,0,1,19.49,21.21Z"/><path d="M19.49,2.91A2.71,2.71,0,0,1,20,2.65a.59.59,0,0,1,.82.59,1.14,1.14,0,0,1-.35.86c-.27.25-.59.46-.89.69a.2.2,0,0,1-.17,0,2.39,2.39,0,0,1-1.12-1A.94.94,0,0,1,18.21,3a.51.51,0,0,1,.69-.31A4.36,4.36,0,0,1,19.49,2.91Z"/><path d="M3.25,2.91a4.59,4.59,0,0,1,.49-.26.62.62,0,0,1,.84.68,1.38,1.38,0,0,1-.46.9,6.76,6.76,0,0,1-.77.55.25.25,0,0,1-.19,0,2.38,2.38,0,0,1-1.11-1A.93.93,0,0,1,2,3a.53.53,0,0,1,.71-.32A5.94,5.94,0,0,1,3.25,2.91Z"/><path d="M2.49,13.12v-.93H5.22v.93Z"/><path d="M17.86,13.12v-.93h2.73v.93Z"/><path d="M18.2,6.66,16.36,8.59l-.61-.65L17.6,6Z"/><path d="M7.35,8l-.62.65L4.87,6.66,5.51,6Z"/><path d="M14.52,4.28l.89.39L14.3,7.16l-.89-.39Z"/><path d="M5.75,9.72l-.39.88L2.83,9.51l.39-.88Z"/><path d="M16.91,15.58l.39-.87,2.53,1.09-.39.87Z"/><path d="M17.37,10.84,17,10l2.57-1,.36.88Z"/><path d="M7.58,4.51l.9-.35,1,2.53L8.58,7Z"/><path d="M5.28,14.47l.35.88-2.57,1-.35-.89Z"/><path d="M13.77,18.44l.9-.35,1,2.54-.9.35Z"/><path d="M9.24,18.53,8.13,21l-.88-.38,1.1-2.49Z"/><path d="M12,6.44h-.93V3.74H12Z"/><path d="M12,21.57h-.93v-2.7H12Z"/><path d="M6.73,16.69l.64.66L5.49,19.29l-.62-.66Z"/><path d="M18.22,18.65l-.62.66-1.85-1.95.61-.64Z"/></g><g class="cls-3"><path d="M5.69,12.11a5.51,5.51,0,1,1,5.52,5.43A5.48,5.48,0,0,1,5.69,12.11Z"/><path d="M2.89,20.88a3.5,3.5,0,0,1,.51-.26.61.61,0,0,1,.84.68,1.48,1.48,0,0,1-.41.84,1.22,1.22,0,0,1-.27.24c-.74.53-.6.53-1.34,0a1.56,1.56,0,0,1-.65-1,.7.7,0,0,1,.23-.72.59.59,0,0,1,.68,0Z"/><path d="M19.15,20.87a4.12,4.12,0,0,1,.47-.25.61.61,0,0,1,.86.64,1.18,1.18,0,0,1-.35.8c-.27.25-.59.46-.89.69a.17.17,0,0,1-.17,0,2.39,2.39,0,0,1-1.12-1,1,1,0,0,1-.08-.91.53.53,0,0,1,.69-.29A5,5,0,0,1,19.15,20.87Z"/><path d="M19.15,2.57a2.71,2.71,0,0,1,.51-.26.59.59,0,0,1,.82.59,1.14,1.14,0,0,1-.35.86c-.27.25-.59.46-.89.69a.2.2,0,0,1-.17,0A2.39,2.39,0,0,1,18,3.5a.94.94,0,0,1-.08-.89.51.51,0,0,1,.69-.31A4.36,4.36,0,0,1,19.15,2.57Z"/><path d="M2.91,2.57a4.59,4.59,0,0,1,.49-.26A.62.62,0,0,1,4.24,3a1.38,1.38,0,0,1-.46.9A6.76,6.76,0,0,1,3,4.44a.25.25,0,0,1-.19,0,2.38,2.38,0,0,1-1.11-1,.93.93,0,0,1-.09-.87.53.53,0,0,1,.71-.32A5.94,5.94,0,0,1,2.91,2.57Z"/><path d="M2.15,12.78v-.94H4.88v.94Z"/><path d="M17.52,12.78v-.93h2.73v.93Z"/><path d="M17.86,6.32,16,8.25l-.61-.65,1.85-1.94Z"/><path d="M7,7.61l-.62.65L4.53,6.32l.64-.64Z"/><path d="M14.18,3.94l.89.39L14,6.82l-.89-.39Z"/><path d="M5.41,9.38,5,10.26,2.49,9.17l.39-.88Z"/><path d="M16.57,15.24l.39-.87,2.53,1.09-.39.87Z"/><path d="M17,10.5l-.35-.89,2.57-1,.36.88Z"/><path d="M7.24,4.17l.9-.35,1,2.53-.9.35Z"/><path d="M4.94,14.13l.35.88L2.72,16l-.35-.89Z"/><path d="M13.42,18.1l.91-.35,1,2.54-.9.35Z"/><path d="M8.9,18.19,7.79,20.68l-.88-.38L8,17.81Z"/><path d="M11.66,6.1h-.93V3.4h.93Z"/><path d="M11.66,21.23h-.93v-2.7h.93Z"/><path d="M6.39,16.35,7,17,5.15,19l-.62-.66Z"/><path d="M17.88,18.31l-.62.66L15.41,17l.61-.64Z"/></g><path class="cls-4" d="M5.89,12.31a5.51,5.51,0,1,1,5.52,5.43A5.47,5.47,0,0,1,5.89,12.31Z"/><path class="cls-4" d="M3.09,21.08a4,4,0,0,1,.5-.26.61.61,0,0,1,.84.68,1.41,1.41,0,0,1-.4.84,1.55,1.55,0,0,1-.27.24c-.75.53-.6.53-1.34,0a1.56,1.56,0,0,1-.65-1A.7.7,0,0,1,2,20.88a.57.57,0,0,1,.68,0A3.3,3.3,0,0,1,3.09,21.08Z"/><path class="cls-4" d="M19.35,21.07a5,5,0,0,1,.46-.25.61.61,0,0,1,.87.64,1.18,1.18,0,0,1-.35.8c-.27.25-.59.46-.89.69a.2.2,0,0,1-.17,0,2.39,2.39,0,0,1-1.12-1,.93.93,0,0,1-.08-.91.53.53,0,0,1,.69-.29A5,5,0,0,1,19.35,21.07Z"/><path class="cls-4" d="M19.34,2.76a4.16,4.16,0,0,1,.52-.25.59.59,0,0,1,.82.59,1.12,1.12,0,0,1-.35.85,10.15,10.15,0,0,1-.89.7.22.22,0,0,1-.18,0,2.38,2.38,0,0,1-1.11-1,.92.92,0,0,1-.09-.88.53.53,0,0,1,.7-.31A5.78,5.78,0,0,1,19.34,2.76Z"/><path class="cls-4" d="M3.1,2.77a4,4,0,0,1,.5-.26.62.62,0,0,1,.84.68,1.35,1.35,0,0,1-.47.9,7,7,0,0,1-.76.55.25.25,0,0,1-.19,0,2.39,2.39,0,0,1-1.11-1,.9.9,0,0,1-.09-.87.52.52,0,0,1,.7-.32A3.77,3.77,0,0,1,3.1,2.77Z"/><path class="cls-4" d="M2.35,13V12H5.08V13Z"/><path class="cls-4" d="M17.72,13V12h2.73V13Z"/><path class="cls-4" d="M18.06,6.52,16.22,8.45l-.61-.65,1.85-1.94Z"/><path class="cls-4" d="M7.2,7.81l-.61.65-1.86-2,.63-.64Z"/><path class="cls-4" d="M14.38,4.14l.89.38L14.16,7l-.89-.38Z"/><path class="cls-4" d="M5.61,9.58l-.39.88L2.69,9.36l.39-.87Z"/><path class="cls-4" d="M16.76,15.44l.39-.88,2.53,1.1-.38.87Z"/><path class="cls-4" d="M17.23,10.7l-.35-.89,2.57-1,.36.88Z"/><path class="cls-4" d="M7.43,4.37,8.33,4l1,2.53-.9.35Z"/><path class="cls-4" d="M5.14,14.33l.35.88-2.57,1-.35-.89Z"/><path class="cls-4" d="M13.62,18.3l.9-.35,1,2.54-.9.35Z"/><path class="cls-4" d="M9.1,18.39,8,20.88,7.1,20.5,8.21,18Z"/><path class="cls-4" d="M11.86,6.3h-.93V3.6h.93Z"/><path class="cls-4" d="M11.86,21.43h-.93v-2.7h.93Z"/><path class="cls-4" d="M6.59,16.54l.63.67L5.35,19.15l-.62-.66Z"/><path class="cls-4" d="M18.08,18.51l-.62.66-1.85-2,.61-.65Z"/></g></g></svg>