<svg xmlns="http://www.w3.org/2000/svg" viewBox="0 0 38.55 24.66"><defs><style>.cls-1{isolation:isolate;}.cls-2{opacity:0.15;}.cls-2,.cls-3{mix-blend-mode:multiply;}.cls-4{fill:#fff;}</style></defs><title>convert-CUSTOMIZE-SVG-03</title><g class="cls-1"><g id="Layer_1" data-name="Layer 1"><g class="cls-2"><path d="M15.69,15c.26-.25.49-.49.74-.71a4.51,4.51,0,0,1,.61-.44,1.31,1.31,0,0,1,2,1.07,3.44,3.44,0,0,1-.34,1.79,11.51,11.51,0,0,1-3.87,4.65.28.28,0,0,0-.15.31c0,.22,0,.43.06.65,0,0,0,0,0,.06h-.24c0-.12,0-.24,0-.36s0-.24,0-.36a3.52,3.52,0,0,1-.49.22.68.68,0,0,1-.95-.46c-.13-.37-.28-.74-.41-1.11a.22.22,0,0,0-.22-.18c-.32,0-.63-.08-1-.13.29.53.79.9.87,1.45l-.32.17c-.13.07-.18,0-.23-.11-.17-.27-.34-.55-.52-.82a2.86,2.86,0,0,0-.36-.42.3.3,0,0,0-.52,0,6.25,6.25,0,0,0-.38.61c-.14.23-.24.48-.38.71-.05.07-.15.16-.22.15s-.14-.11-.21-.17l-.14-.14a.4.4,0,0,1-.07-.18,1.1,1.1,0,0,1,.38-.75c.08-.09.17-.16.3-.28l-.73,0H8.45c-.37,0-.37,0-.4-.37a1.25,1.25,0,0,0-.11-.41,3.85,3.85,0,0,1-.1.68c-.14.5-.31,1-.48,1.46a.54.54,0,0,1-.5.35c-.2,0-.28.08-.26.28a.7.7,0,0,1,0,.12H6.33c0-.15,0-.33,0-.41s-.26-.09-.39-.13a4.28,4.28,0,0,1-2-1.45,13.69,13.69,0,0,1-2.37-4.5A1.8,1.8,0,0,1,3,13.64,1.79,1.79,0,0,1,4.23,14c.23.17.44.37.68.57a1.41,1.41,0,0,0-.08-.7,3.32,3.32,0,0,1-.38-1.52A2.27,2.27,0,0,1,6.66,10a2.85,2.85,0,0,1,1.77.51.43.43,0,0,0,.41.06,5,5,0,0,1,3.57.1.32.32,0,0,0,.25,0,2.74,2.74,0,0,1,2-.37,2.23,2.23,0,0,1,1.75,1.78A2,2,0,0,1,16,14,1.21,1.21,0,0,0,15.69,15Zm-7.2,3.91a1.94,1.94,0,0,1-.57-1.69,2.26,2.26,0,0,1,1.17-2,3.27,3.27,0,0,1,3.38.19A2.19,2.19,0,0,1,13,18.52a.36.36,0,0,0,0,.09,3.12,3.12,0,0,0,1.41-1,5,5,0,0,0,1-3.15.4.4,0,0,0-.09-.2.93.93,0,0,1-.28-.71.63.63,0,0,0-.11-.43A3.75,3.75,0,0,0,13.72,12c-.11-.07-.21-.14-.36-.05a.34.34,0,0,1-.26,0,1.64,1.64,0,0,1-.73-.85c0-.07-.09-.17-.15-.18A9.4,9.4,0,0,0,11,10.59a4.6,4.6,0,0,0-2.11.27,1.12,1.12,0,0,1,0,.27,1.42,1.42,0,0,1-1.07.71A.44.44,0,0,0,7.5,12c-.33.33-.64.7-1,1a4.15,4.15,0,0,1-.66.36.5.5,0,0,0-.15.14q-.21.29-.39.57a.49.49,0,0,0-.13.26,4.9,4.9,0,0,0,.32,1.93,2,2,0,0,0,.24.35.34.34,0,0,1,.06.12,1,1,0,0,0,.09.32,9,9,0,0,0,.86,1A4.16,4.16,0,0,0,8.49,18.91ZM2.1,14.5l-.05,0,0,.05a1.36,1.36,0,0,0-.16,1.36c.29.74.58,1.47.92,2.18a9.27,9.27,0,0,0,1.8,2.59,3.45,3.45,0,0,0,2,1c.28,0,.45,0,.53-.25a9.38,9.38,0,0,0,.35-.93A2.75,2.75,0,0,0,7.59,19a.41.41,0,0,0-.16-.24,4.71,4.71,0,0,1-1.84-1.73A.18.18,0,0,0,5.41,17c-.22.07-.45.14-.67.23a1,1,0,0,1-1-.08,2.86,2.86,0,0,1-.73-.6A4.08,4.08,0,0,1,2.1,14.5Zm10.7,5.73c.07.18.14.35.2.52s.13.36.19.54c.13.38.34.48.72.32a1.27,1.27,0,0,0,.23-.12,11.26,11.26,0,0,0,3.78-3.89,5.32,5.32,0,0,0,.83-2.1,1.48,1.48,0,0,0-.18-1.07c0,.32,0,.64,0,1a1.91,1.91,0,0,1-2,2A2.63,2.63,0,0,1,15,17.18l-.09.15a3.66,3.66,0,0,1-1.84,1.52l-.42.15a.59.59,0,0,0-.17.12.7.7,0,0,0,.19.06c.14,0,.28,0,.39,0l.12.81c0,.26,0,.32-.28.28Zm-2.23-.95v0l.61,0a2.44,2.44,0,0,0,1.29-.49,1.86,1.86,0,0,0,0-2.91,2.67,2.67,0,0,0-2.08-.64A2.1,2.1,0,0,0,8.2,17.09a1.64,1.64,0,0,0,1.29,2A9.69,9.69,0,0,0,10.57,19.28Zm5-5.13a1.89,1.89,0,0,0,.66-2,2,2,0,0,0-1.51-1.63,2.33,2.33,0,0,0-1.64.2c-.55.28-.48.24-.15.7a.39.39,0,0,0,.46.15,5.41,5.41,0,0,1,.91-.16,1.11,1.11,0,0,1,1.21.62,3.13,3.13,0,0,1,.2.8.66.66,0,0,1-.26.63.25.25,0,0,0-.08.19A2.65,2.65,0,0,0,15.54,14.15ZM5.09,13.82l.07,0c.09-.14.18-.29.28-.43a.32.32,0,0,0,0-.42,1,1,0,0,1-.21-.79,1.38,1.38,0,0,1,1-1.09,1.35,1.35,0,0,1,1.42.27c.27.22.3.23.6,0a3.07,3.07,0,0,0,.29-.24c.14-.12.14-.25,0-.33a6.44,6.44,0,0,0-1.06-.51A2.13,2.13,0,0,0,4.82,11.6,3,3,0,0,0,5.09,13.82ZM7.9,19c0,.24.08.28.4.16a0,0,0,0,0,0,0Z"/><path d="M3.28,5.47A4.19,4.19,0,0,1,3.09,6a3.37,3.37,0,0,1-.32.59c-.15.2-.32.19-.51,0a.57.57,0,0,1,0-.88,4.63,4.63,0,0,1,.54-.43,1.06,1.06,0,0,1,.19-.11l-.78-.06L1.94,5.1c-.25-.08-.37-.23-.35-.42a.5.5,0,0,1,.47-.46,1.61,1.61,0,0,1,.56.15,5.86,5.86,0,0,1,.54.37A2.45,2.45,0,0,1,3,4.45a2.49,2.49,0,0,1-.2-.58c-.1-.48.21-.78.7-.71a.42.42,0,0,1,.38.44,5,5,0,0,1-.13.76,3.42,3.42,0,0,1-.16.44,7.16,7.16,0,0,1,.66-.35,3.72,3.72,0,0,1,.8-.19.39.39,0,0,1,.43.32.4.4,0,0,1-.17.5,2.55,2.55,0,0,1-.76.22,5.87,5.87,0,0,1-.84,0c.07.07.17.13.25.21s.35.35.5.54.16.42,0,.55-.57.26-.74,0A2.11,2.11,0,0,1,3.41,6,3.32,3.32,0,0,1,3.28,5.47Z"/><path d="M16.1,8.5l-.75.18-.17,0c-.33,0-.51-.11-.53-.36a.49.49,0,0,1,.5-.56,4.5,4.5,0,0,1,.8.15,1.15,1.15,0,0,1,.17.06l.07-.08A.64.64,0,0,1,16,7.8a3.21,3.21,0,0,1-.39-.52.57.57,0,0,1,.44-.9.42.42,0,0,1,.51.34,6.9,6.9,0,0,1,.08,1,1.21,1.21,0,0,1,0,.18c.19-.19.35-.37.54-.53a4.74,4.74,0,0,1,.6-.39.45.45,0,0,1,.61.17.48.48,0,0,1-.1.63,2.25,2.25,0,0,1-1.05.48l-.39.08c.21.09.37.15.53.23a4.12,4.12,0,0,1,.45.27c.25.19.3.37.17.55s-.49.41-.73.23a2.52,2.52,0,0,1-.47-.51,3.65,3.65,0,0,1-.26-.44c0,.32-.05.62-.08.92a.13.13,0,0,1,0,.06c-.06.31-.2.45-.4.44a.57.57,0,0,1-.52-.57,1.45,1.45,0,0,1,.2-.56A4.11,4.11,0,0,1,16.1,8.5Z"/><path d="M10.78,4.3c-.12,0-.25.06-.38.07s-.29,0-.31-.2a.28.28,0,0,1,.29-.29.85.85,0,0,1,.23,0l.25.07a1.67,1.67,0,0,1-.26-.37.4.4,0,0,1,0-.32.4.4,0,0,1,.33-.13c.08,0,.17.15.2.25a2.69,2.69,0,0,1,0,.51c.1-.09.17-.17.26-.24a1,1,0,0,1,.33-.21.34.34,0,0,1,.3.09.29.29,0,0,1,0,.31,1.76,1.76,0,0,1-.45.24,1,1,0,0,1-.27.07,3.14,3.14,0,0,1,.45.26c.12.07.23.16.11.32s-.28.2-.42.07a3.36,3.36,0,0,1-.34-.41c0,.15,0,.3-.05.45s-.06.26-.24.23a.27.27,0,0,1-.24-.33A3,3,0,0,1,10.78,4.3Z"/><path d="M7.35,7.65c0,.18,0,.32,0,.47s-.06.26-.24.23A.3.3,0,0,1,6.82,8a.8.8,0,0,1,.11-.25,1.42,1.42,0,0,1,.17-.21,2.17,2.17,0,0,1-.48.06.31.31,0,0,1-.25-.16.21.21,0,0,1,.19-.29,4.55,4.55,0,0,1,.53,0,1.58,1.58,0,0,1-.22-.33.38.38,0,0,1,0-.33.38.38,0,0,1,.32-.12c.08,0,.17.16.2.26a4.28,4.28,0,0,1,0,.56c.09-.11.14-.18.21-.25a1.46,1.46,0,0,1,.28-.21c.19-.12.34-.09.43,0s0,.3-.17.4-.39.15-.6.23c.14.07.28.14.41.22s.22.23.12.36a.27.27,0,0,1-.44,0A3.48,3.48,0,0,1,7.35,7.65Z"/><path d="M12.68,6.29A1.36,1.36,0,0,1,12.45,6a.46.46,0,0,1,0-.33.41.41,0,0,1,.32-.12.39.39,0,0,1,.19.24,4,4,0,0,1,0,.52,2.73,2.73,0,0,1,.37-.32,1.06,1.06,0,0,1,.42-.12s.16.18.13.23a.89.89,0,0,1-.29.32,2.8,2.8,0,0,1-.49.17c.15.08.3.15.44.24s.22.17.1.33-.28.2-.42.07a3.66,3.66,0,0,1-.34-.42c0,.16,0,.31,0,.46s-.06.28-.25.23a.28.28,0,0,1-.23-.37,3.28,3.28,0,0,1,.25-.44c-.13,0-.27.06-.41.07s-.29,0-.3-.2a.28.28,0,0,1,.3-.29C12.39,6.23,12.53,6.27,12.68,6.29Z"/><path d="M15.58,4.48a.83.83,0,0,1-.3,0c-.08,0-.2-.07-.21-.13a.17.17,0,0,1,.2-.21,2.21,2.21,0,0,1,.33.05A1.59,1.59,0,0,1,15.43,4a.35.35,0,0,1,0-.25.22.22,0,0,1,.21-.09.29.29,0,0,1,.16.18,1.42,1.42,0,0,1,0,.36c.13-.09.23-.19.35-.27s.24-.1.32,0,0,.23-.12.29a4.28,4.28,0,0,1-.43.17l.31.18c.08.06.15.14.06.25s-.18.14-.29,0a3,3,0,0,1-.26-.31,2.51,2.51,0,0,1,0,.31c0,.1,0,.23-.2.19s-.22-.15-.16-.29A2.48,2.48,0,0,1,15.58,4.48Z"/><path d="M10.56,8.93a2.24,2.24,0,0,1-.05.31.82.82,0,0,1-.19.18c-.05-.09-.16-.18-.16-.26a1.41,1.41,0,0,1,.17-.35,1,1,0,0,1-.3,0c-.07,0-.14-.08-.21-.12s.1-.2.17-.22a1.12,1.12,0,0,1,.36,0,1.53,1.53,0,0,1-.17-.27.19.19,0,0,1,.13-.3c.16-.06.24,0,.27.17s0,.24,0,.37c.12-.09.23-.19.35-.27s.24-.11.33,0,0,.24-.13.29a4.08,4.08,0,0,1-.42.17l.3.17c.09.07.17.14.07.26a.19.19,0,0,1-.3,0A2.45,2.45,0,0,1,10.56,8.93Z"/><path d="M17.36,11.93A1.48,1.48,0,0,1,17,12c-.06,0-.12-.08-.19-.12s.1-.19.16-.21a1.46,1.46,0,0,1,.36,0c-.05-.15-.29-.27-.14-.48a.34.34,0,0,1,.24-.08,4.52,4.52,0,0,1,.23.5,2.32,2.32,0,0,1,.26-.21c.11-.08.25-.15.35,0s0,.26-.17.32a3.35,3.35,0,0,1-.38.14,1.55,1.55,0,0,1,.33.21c.05,0,.08.18.05.2s-.2.12-.25.09a1.51,1.51,0,0,1-.31-.31,1.27,1.27,0,0,1,0,.28.37.37,0,0,1-.12.2s-.15,0-.18-.06a.37.37,0,0,1,0-.25A1.4,1.4,0,0,1,17.36,11.93Z"/><path d="M8.11,4.37a1.39,1.39,0,0,1-.06.33c0,.07-.1.11-.15.17s-.19-.15-.18-.22a1.2,1.2,0,0,1,.15-.38,1,1,0,0,1-.3,0c-.07,0-.13-.09-.2-.14S7.48,4,7.55,4A1.06,1.06,0,0,1,7.9,4a1,1,0,0,1-.16-.25.36.36,0,0,1,0-.25A.26.26,0,0,1,8,3.42a.31.31,0,0,1,.15.2,1.45,1.45,0,0,1,0,.37c.13-.11.24-.21.35-.29s.24-.13.33,0,0,.25-.14.31a3.19,3.19,0,0,1-.41.16l.31.17c.09.06.17.14.07.26s-.2.14-.3,0A3.48,3.48,0,0,1,8.11,4.37Z"/><path d="M2.85,8.74a3,3,0,0,1,.32.19c.09.06.16.16.05.24A.33.33,0,0,1,3,9.22a1.24,1.24,0,0,1-.26-.29,2.51,2.51,0,0,1,0,.31c0,.07-.11.12-.17.18s-.18-.17-.18-.24a1.34,1.34,0,0,1,.17-.37.92.92,0,0,1-.28,0c-.08,0-.2-.07-.22-.13s.06-.22.19-.22a2.15,2.15,0,0,1,.34.05,1.11,1.11,0,0,1-.16-.24.46.46,0,0,1,0-.26A.25.25,0,0,1,2.55,8a.4.4,0,0,1,.16.22,1.31,1.31,0,0,1,0,.35,3.84,3.84,0,0,1,.34-.28c.11-.08.25-.14.34,0s0,.25-.15.31S3,8.68,2.85,8.74Z"/><path d="M2.72,11.87a2.14,2.14,0,0,1,.35-.29c.1-.08.24-.14.33,0s0,.26-.14.32a3.91,3.91,0,0,1-.41.15,3,3,0,0,1,.32.19c.1.06.16.16.05.24a.3.3,0,0,1-.27,0,1.24,1.24,0,0,1-.26-.29c0,.11,0,.21,0,.31s-.06.22-.18.16a.29.29,0,0,1-.16-.24c0-.11.09-.21.15-.33a1.73,1.73,0,0,1-.32,0c-.06,0-.12-.09-.18-.13s.09-.19.16-.2a1.1,1.1,0,0,1,.36,0,1.14,1.14,0,0,1-.15-.23.35.35,0,0,1,0-.25.27.27,0,0,1,.24-.08c.06,0,.12.13.14.21A2,2,0,0,1,2.72,11.87Z"/><path d="M12.74,15c0-.37.21-.64.48-.63a.57.57,0,0,1,.46.63.77.77,0,0,1,0,.15c-.08.28-.26.44-.47.43a.53.53,0,0,1-.44-.49S12.74,15.05,12.74,15Z"/><path d="M8.14,15.24c0,.35-.22.63-.48.61a.59.59,0,0,1-.45-.65c0-.34.24-.58.5-.56S8.14,14.91,8.14,15.24Z"/><path d="M11.54,18.49l.23-.17a.18.18,0,0,1,.29,0,.17.17,0,0,1,0,.27l0,0c-.39.3-.39.31-.8,0a.33.33,0,0,0-.45,0,2.81,2.81,0,0,1-.38.26,3.8,3.8,0,0,1-.53-.36.25.25,0,0,1,0-.25c0-.06.14-.08.23-.09s.09.06.14.08.2.1.27.07.34-.15.29-.38a.57.57,0,0,0-.11-.22c-.21-.21-.42-.41-.65-.6a.27.27,0,0,1-.08-.34,1.54,1.54,0,0,0,.08-.19.35.35,0,0,1,.41-.26c.39,0,.78,0,1.17,0a.16.16,0,0,1,.12,0,3.17,3.17,0,0,1,.27.47c0,.06,0,.17-.07.22-.18.21-.37.41-.56.61s-.22.42.07.6Z"/><path d="M15.89,15.19c.26-.24.49-.48.73-.7a5.35,5.35,0,0,1,.62-.44,1.31,1.31,0,0,1,2,1.07,3.45,3.45,0,0,1-.35,1.79A11.4,11.4,0,0,1,15,21.56a.28.28,0,0,0-.15.31c0,.21,0,.43.06.65a.11.11,0,0,1,0,.05h-.24l0-.35c0-.12,0-.24,0-.36a5.27,5.27,0,0,1-.49.22.68.68,0,0,1-.95-.46c-.13-.37-.28-.74-.41-1.11a.22.22,0,0,0-.22-.18l-1-.13c.29.53.79.9.87,1.45l-.32.17c-.13.07-.18,0-.23-.11-.17-.28-.34-.56-.52-.82a2.86,2.86,0,0,0-.36-.42c-.18-.19-.35-.2-.52,0a3.87,3.87,0,0,0-.38.61c-.14.23-.25.48-.38.71,0,.07-.15.16-.22.15s-.14-.11-.21-.17a1.85,1.85,0,0,1-.14-.14.34.34,0,0,1-.07-.18,1.1,1.1,0,0,1,.38-.75c.08-.09.17-.16.3-.28l-.73,0H8.65c-.38,0-.37,0-.4-.37a1.19,1.19,0,0,0-.11-.41,5.06,5.06,0,0,1-.1.68c-.14.49-.31,1-.48,1.46a.53.53,0,0,1-.5.34c-.2,0-.28.09-.26.28a.53.53,0,0,1,0,.12H6.53c0-.14,0-.32,0-.4s-.25-.09-.39-.13a4.3,4.3,0,0,1-2-1.45,13.69,13.69,0,0,1-2.37-4.5,1.8,1.8,0,0,1,1.42-2.25,1.8,1.8,0,0,1,1.25.35c.23.17.44.37.68.57a1.4,1.4,0,0,0-.08-.7,3.32,3.32,0,0,1-.38-1.52,2.27,2.27,0,0,1,2.21-2.32,2.74,2.74,0,0,1,1.77.51.39.39,0,0,0,.4,0,5,5,0,0,1,3.58.11.37.37,0,0,0,.25,0,2.79,2.79,0,0,1,2-.38,2.27,2.27,0,0,1,1.75,1.79,2,2,0,0,1-.45,2A1.2,1.2,0,0,0,15.89,15.19Zm-7.2,3.92a1.91,1.91,0,0,1-.57-1.69,2.26,2.26,0,0,1,1.17-2,3.24,3.24,0,0,1,3.38.19,2.18,2.18,0,0,1,.56,3.08l0,.09a3.14,3.14,0,0,0,1.41-1,5,5,0,0,0,1.05-3.14.32.32,0,0,0-.1-.2,1,1,0,0,1-.28-.71.63.63,0,0,0-.1-.43,3.85,3.85,0,0,0-1.25-1.16c-.11-.07-.21-.14-.36,0a.34.34,0,0,1-.26,0,1.64,1.64,0,0,1-.73-.85c0-.07-.09-.17-.15-.18a9.4,9.4,0,0,0-1.27-.31A4.59,4.59,0,0,0,9,11.05a1.14,1.14,0,0,1,0,.28A1.44,1.44,0,0,1,7.94,12a.38.38,0,0,0-.24.11c-.33.33-.64.7-1,1a3.45,3.45,0,0,1-.66.35.71.71,0,0,0-.15.15l-.4.57a.56.56,0,0,0-.12.26,4.9,4.9,0,0,0,.32,1.93,2.43,2.43,0,0,0,.24.35.45.45,0,0,1,.06.12,1,1,0,0,0,.09.32,9,9,0,0,0,.86,1A4.16,4.16,0,0,0,8.69,19.11ZM2.3,14.7h0l0,.06A1.39,1.39,0,0,0,2,16.13c.3.73.59,1.47.93,2.18a9.06,9.06,0,0,0,1.8,2.59,3.4,3.4,0,0,0,2,1c.28,0,.45-.05.53-.25s.25-.61.35-.93a2.78,2.78,0,0,0,.1-1.54A.48.48,0,0,0,7.63,19a4.64,4.64,0,0,1-1.84-1.73.17.17,0,0,0-.18-.06,4.8,4.8,0,0,0-.67.23,1.07,1.07,0,0,1-1-.08,2.86,2.86,0,0,1-.73-.6A4.08,4.08,0,0,1,2.3,14.7ZM13,20.43c.08.18.15.35.21.52s.13.36.19.54c.13.38.34.48.72.32a1.55,1.55,0,0,0,.22-.12,11.09,11.09,0,0,0,3.78-3.89A5.23,5.23,0,0,0,19,15.69a1.46,1.46,0,0,0-.18-1.06c0,.32,0,.64,0,1a1.92,1.92,0,0,1-2,2,2.6,2.6,0,0,1-1.53-.17l-.09.15a3.71,3.71,0,0,1-1.84,1.52c-.14.06-.28.09-.42.14a1.77,1.77,0,0,0-.17.12.44.44,0,0,0,.19.07c.14,0,.28,0,.39,0l.12.8c0,.27,0,.33-.28.28Zm-2.22-.95v0l.61-.05a2.35,2.35,0,0,0,1.29-.48,1.87,1.87,0,0,0,0-2.92,2.76,2.76,0,0,0-2.09-.64,2.12,2.12,0,0,0-2.22,1.93,1.66,1.66,0,0,0,1.3,2A9.69,9.69,0,0,0,10.77,19.48Zm5-5.13a1.87,1.87,0,0,0,.65-2,2,2,0,0,0-1.5-1.64,2.42,2.42,0,0,0-1.65.21c-.54.28-.47.24-.14.7a.38.38,0,0,0,.45.15,4.79,4.79,0,0,1,.92-.16,1.11,1.11,0,0,1,1.21.62,3.13,3.13,0,0,1,.2.8.66.66,0,0,1-.26.63.22.22,0,0,0-.08.19A3.46,3.46,0,0,0,15.74,14.35ZM5.28,14l.08,0c.09-.14.18-.29.28-.43a.33.33,0,0,0,0-.42,1.08,1.08,0,0,1-.22-.8,1.41,1.41,0,0,1,1-1.08,1.35,1.35,0,0,1,1.42.27c.27.22.29.23.59,0a3.5,3.5,0,0,0,.3-.24c.14-.12.13-.25,0-.34a6.39,6.39,0,0,0-1.06-.5A2.13,2.13,0,0,0,5,11.8,3,3,0,0,0,5.28,14ZM8.09,19.2c0,.24.09.27.41.16h0Z"/><path d="M3.48,5.67c-.07.21-.12.38-.19.54A3,3,0,0,1,3,6.79c-.15.21-.32.2-.51,0A.56.56,0,0,1,2.4,6,3.87,3.87,0,0,1,3,5.52a1.06,1.06,0,0,1,.19-.11l-.78-.06-.23,0c-.24-.08-.37-.23-.35-.42a.51.51,0,0,1,.48-.46,1.61,1.61,0,0,1,.56.15,5.86,5.86,0,0,1,.54.37l-.15-.29A4.43,4.43,0,0,1,3,4.07a.57.57,0,0,1,.7-.71.4.4,0,0,1,.38.43A4.94,4.94,0,0,1,4,4.56,4.06,4.06,0,0,1,3.81,5a4.71,4.71,0,0,1,.66-.35,4.58,4.58,0,0,1,.79-.2.41.41,0,0,1,.44.33.4.4,0,0,1-.17.5,2.55,2.55,0,0,1-.76.22,5.89,5.89,0,0,1-.84,0l.24.21a6.42,6.42,0,0,1,.51.54c.17.23.16.42,0,.55s-.57.26-.74,0a2.33,2.33,0,0,1-.34-.62A4.87,4.87,0,0,1,3.48,5.67Z"/><path d="M16.3,8.7l-.75.18-.17,0c-.33,0-.51-.11-.53-.36a.49.49,0,0,1,.5-.56,4.68,4.68,0,0,1,.8.15,1.15,1.15,0,0,1,.17.06l.07-.08a.64.64,0,0,1-.2-.11,3.71,3.71,0,0,1-.39-.52.56.56,0,0,1,.44-.9.42.42,0,0,1,.51.33,8.93,8.93,0,0,1,.08,1,1.62,1.62,0,0,1,0,.18c.2-.19.36-.38.55-.53A2.69,2.69,0,0,1,18,7.2a.45.45,0,0,1,.61.17.48.48,0,0,1-.1.63,2.14,2.14,0,0,1-1,.47L17,8.56c.21.09.37.15.53.23a4.12,4.12,0,0,1,.45.27c.25.19.3.36.17.55s-.49.41-.74.23A2.79,2.79,0,0,1,17,9.33a3.65,3.65,0,0,1-.26-.44c0,.32,0,.62-.08.92a.13.13,0,0,1,0,.06c-.07.31-.2.45-.4.44a.57.57,0,0,1-.52-.57,1.45,1.45,0,0,1,.2-.56A4.11,4.11,0,0,1,16.3,8.7Z"/><path d="M11,4.5c-.12,0-.25.06-.38.07s-.3,0-.31-.2.11-.28.29-.29a1.81,1.81,0,0,1,.23,0l.25.08a1.67,1.67,0,0,1-.26-.37.4.4,0,0,1,0-.32.36.36,0,0,1,.32-.13c.09,0,.18.15.2.25a2.64,2.64,0,0,1,0,.51l.25-.24a1.12,1.12,0,0,1,.34-.21.35.35,0,0,1,.3.09.32.32,0,0,1,0,.31,1.83,1.83,0,0,1-.46.24,1.38,1.38,0,0,1-.26.07c.16.09.32.16.45.25s.22.17.1.33-.27.2-.41.07a3.36,3.36,0,0,1-.34-.41c0,.15,0,.3-.06.45s-.05.26-.23.23A.29.29,0,0,1,10.74,5,2.69,2.69,0,0,1,11,4.5Z"/><path d="M7.55,7.85c0,.17,0,.32,0,.46s-.06.27-.24.24A.3.3,0,0,1,7,8.19a.8.8,0,0,1,.11-.25,1.42,1.42,0,0,1,.17-.21,3,3,0,0,1-.49.06.31.31,0,0,1-.24-.16.21.21,0,0,1,.19-.29,2.32,2.32,0,0,1,.53,0,2.13,2.13,0,0,1-.23-.33.42.42,0,0,1,0-.33.38.38,0,0,1,.32-.12c.08,0,.17.16.2.26a4.28,4.28,0,0,1,0,.56,2.08,2.08,0,0,1,.21-.25A1.51,1.51,0,0,1,8.11,7c.19-.11.34-.08.43.06s0,.3-.17.4-.39.15-.6.23a3.23,3.23,0,0,1,.41.22c.19.12.22.23.11.36a.26.26,0,0,1-.43,0A3.48,3.48,0,0,1,7.55,7.85Z"/><path d="M12.88,6.49a1.36,1.36,0,0,1-.23-.34.46.46,0,0,1,0-.33A.41.41,0,0,1,13,5.7a.37.37,0,0,1,.2.24,4,4,0,0,1,.05.52,2.24,2.24,0,0,1,.37-.32A1,1,0,0,1,14,6c.05,0,.16.18.13.22a.92.92,0,0,1-.29.33,2.65,2.65,0,0,1-.5.17,3.62,3.62,0,0,1,.44.24c.12.08.22.17.11.33s-.28.2-.42.07A3.47,3.47,0,0,1,13.14,7c0,.15,0,.31-.05.45s-.06.28-.25.24a.28.28,0,0,1-.23-.37,3.28,3.28,0,0,1,.25-.44l-.41.07c-.15,0-.29,0-.3-.21a.27.27,0,0,1,.3-.28A3.83,3.83,0,0,1,12.88,6.49Z"/><path d="M15.78,4.68a.85.85,0,0,1-.31,0,.32.32,0,0,1-.21-.14c0-.12.07-.21.21-.2a2.21,2.21,0,0,1,.33,0,1.59,1.59,0,0,1-.17-.25.36.36,0,0,1,0-.25.25.25,0,0,1,.22-.09A.29.29,0,0,1,16,4a2,2,0,0,1,0,.36,4.11,4.11,0,0,1,.35-.27c.11-.08.24-.1.31,0s0,.23-.12.29a4.08,4.08,0,0,1-.42.17,3.14,3.14,0,0,1,.31.18c.08.06.15.14.06.25s-.18.14-.29,0-.16-.19-.27-.31a1.55,1.55,0,0,1,0,.31c0,.1,0,.23-.19.18A.2.2,0,0,1,15.6,5,2,2,0,0,1,15.78,4.68Z"/><path d="M10.76,9.13a1.31,1.31,0,0,1-.06.31c0,.07-.12.12-.18.17s-.17-.17-.16-.25A1.41,1.41,0,0,1,10.53,9a1,1,0,0,1-.3.05c-.07,0-.14-.08-.21-.12s.1-.2.17-.22a1.14,1.14,0,0,1,.36,0,2.53,2.53,0,0,1-.18-.27.2.2,0,0,1,.13-.3c.17-.06.25,0,.28.17s0,.23,0,.37a4.11,4.11,0,0,1,.35-.27c.11-.08.24-.11.33,0s0,.23-.13.29a3.5,3.5,0,0,1-.43.17l.31.17c.09.06.17.14.07.26a.2.2,0,0,1-.3,0A2.45,2.45,0,0,1,10.76,9.13Z"/><path d="M17.56,12.13a2.38,2.38,0,0,1-.34,0c-.07,0-.12-.08-.19-.13s.1-.19.16-.2a1.1,1.1,0,0,1,.36,0c-.05-.15-.3-.27-.14-.48a.42.42,0,0,1,.23-.09c.09.16.16.33.24.5.06,0,.15-.13.26-.2s.25-.15.35,0,0,.27-.17.33-.25.09-.38.14a1.85,1.85,0,0,1,.33.21c.05,0,.08.18.05.2s-.2.12-.25.09a1.82,1.82,0,0,1-.31-.31,1.33,1.33,0,0,1,0,.28.37.37,0,0,1-.12.2s-.15,0-.18-.06a.37.37,0,0,1,0-.25A1.05,1.05,0,0,1,17.56,12.13Z"/><path d="M8.31,4.56a1.59,1.59,0,0,1-.06.34c0,.06-.1.11-.15.16s-.19-.15-.18-.21a1.53,1.53,0,0,1,.14-.39.91.91,0,0,1-.3,0c-.07,0-.13-.09-.19-.14s.11-.18.18-.2a1.5,1.5,0,0,1,.35,0,1.17,1.17,0,0,1-.16-.25.31.31,0,0,1,0-.25.26.26,0,0,1,.22-.07.29.29,0,0,1,.15.2,2.12,2.12,0,0,1,0,.37,4.11,4.11,0,0,1,.35-.29c.11-.08.24-.13.33,0s0,.26-.14.32-.26.1-.41.16a3.07,3.07,0,0,1,.31.17c.09.06.16.14.07.26a.19.19,0,0,1-.31,0A2.45,2.45,0,0,1,8.31,4.56Z"/><path d="M3.05,8.94c.12.07.22.12.32.19s.16.15,0,.24a.33.33,0,0,1-.27.05,1.54,1.54,0,0,1-.27-.29,1,1,0,0,1,0,.31c0,.07-.1.12-.16.18s-.18-.17-.18-.24A1,1,0,0,1,2.66,9a.92.92,0,0,1-.28.05c-.08,0-.2-.07-.22-.13s.06-.22.19-.22a1.4,1.4,0,0,1,.34,0,1.43,1.43,0,0,1-.16-.24.36.36,0,0,1,0-.27.27.27,0,0,1,.22-.08.41.41,0,0,1,.16.22,1.36,1.36,0,0,1,0,.35c.14-.11.23-.2.34-.28s.26-.14.35,0,0,.25-.16.31S3.19,8.88,3.05,8.94Z"/><path d="M2.91,12.07c.14-.12.24-.22.35-.3s.25-.13.34,0,0,.26-.14.32a3.91,3.91,0,0,1-.41.15c.12.07.22.12.32.19s.16.16,0,.24a.3.3,0,0,1-.27.05,1.54,1.54,0,0,1-.27-.29,2.43,2.43,0,0,1,0,.3c0,.1-.06.23-.18.17a.32.32,0,0,1-.17-.24,1.11,1.11,0,0,1,.16-.33,1.17,1.17,0,0,1-.32,0c-.06,0-.12-.08-.18-.12s.09-.19.16-.21a1.5,1.5,0,0,1,.36,0,1.5,1.5,0,0,1-.15-.23.35.35,0,0,1,0-.25.27.27,0,0,1,.24-.08c.06,0,.12.13.14.21A2.14,2.14,0,0,1,2.91,12.07Z"/><path d="M12.94,15.23c0-.37.21-.64.48-.63a.57.57,0,0,1,.46.63.8.8,0,0,1,0,.15c-.07.28-.25.44-.47.43a.52.52,0,0,1-.43-.5A.28.28,0,0,1,12.94,15.23Z"/><path d="M8.34,15.44c0,.35-.22.62-.48.61a.59.59,0,0,1-.45-.65c0-.34.24-.58.49-.56S8.34,15.11,8.34,15.44Z"/><path d="M11.74,18.69l.22-.18a.2.2,0,0,1,.3,0c.08.1.06.19,0,.27l-.05,0c-.38.3-.38.31-.79.05a.33.33,0,0,0-.45,0,4.17,4.17,0,0,1-.38.26,6.33,6.33,0,0,1-.54-.36.27.27,0,0,1,0-.25c0-.06.15-.08.23-.09s.1.06.15.08.2.1.27.07.34-.15.29-.39A.53.53,0,0,0,10.8,18c-.21-.21-.43-.41-.65-.61a.26.26,0,0,1-.08-.33,1.67,1.67,0,0,0,.08-.2.35.35,0,0,1,.41-.25c.39,0,.78,0,1.16,0,0,0,.11,0,.13,0a3.17,3.17,0,0,1,.27.47c0,.06,0,.17-.07.22-.18.21-.37.4-.56.6s-.22.43.07.6Z"/></g><g class="cls-3"><path d="M15.55,14.85c.26-.24.49-.48.73-.7a5.35,5.35,0,0,1,.62-.44,1.31,1.31,0,0,1,2,1.07,3.45,3.45,0,0,1-.35,1.79,11.4,11.4,0,0,1-3.86,4.65.28.28,0,0,0-.15.31c0,.21,0,.43.06.65a.11.11,0,0,1,0,.05h-.24l0-.35c0-.12,0-.24,0-.36a5.27,5.27,0,0,1-.49.22.68.68,0,0,1-.95-.46c-.13-.37-.28-.74-.41-1.11a.23.23,0,0,0-.23-.18l-1-.13c.29.53.79.9.87,1.45l-.32.17c-.13.07-.18,0-.23-.11-.17-.28-.34-.56-.52-.82a3.62,3.62,0,0,0-.36-.42c-.18-.19-.35-.2-.52,0a3.87,3.87,0,0,0-.38.61c-.14.23-.25.48-.38.71,0,.07-.15.16-.22.15s-.14-.11-.21-.17a1,1,0,0,1-.14-.15.28.28,0,0,1-.07-.17,1.1,1.1,0,0,1,.38-.75,2.86,2.86,0,0,1,.3-.28l-.73,0H8.31c-.38,0-.37,0-.4-.37a1.19,1.19,0,0,0-.11-.41,5.06,5.06,0,0,1-.1.68c-.14.49-.31,1-.48,1.46a.53.53,0,0,1-.5.34c-.2,0-.28.09-.26.28a.53.53,0,0,1,0,.12H6.19c0-.14,0-.32,0-.4s-.25-.09-.39-.13a4.3,4.3,0,0,1-2-1.45,13.69,13.69,0,0,1-2.37-4.5,1.81,1.81,0,0,1,1.42-2.26,1.86,1.86,0,0,1,1.25.36c.23.17.44.37.68.57a1.4,1.4,0,0,0-.08-.7,3.35,3.35,0,0,1-.38-1.52A2.27,2.27,0,0,1,6.52,9.88a2.74,2.74,0,0,1,1.77.51.39.39,0,0,0,.4,0,5,5,0,0,1,3.58.11.37.37,0,0,0,.25,0,2.79,2.79,0,0,1,2-.38,2.24,2.24,0,0,1,1.74,1.79,2,2,0,0,1-.44,2A1.2,1.2,0,0,0,15.55,14.85Zm-7.2,3.92a1.91,1.91,0,0,1-.57-1.69,2.26,2.26,0,0,1,1.17-2,3.24,3.24,0,0,1,3.38.19,2.18,2.18,0,0,1,.56,3.08l0,.09a3.22,3.22,0,0,0,1.41-1,5,5,0,0,0,1.05-3.14.32.32,0,0,0-.1-.2,1,1,0,0,1-.28-.71.63.63,0,0,0-.1-.43,3.85,3.85,0,0,0-1.25-1.16c-.11-.07-.21-.14-.36,0a.3.3,0,0,1-.26,0,1.58,1.58,0,0,1-.73-.84c0-.07-.09-.17-.15-.18a9.4,9.4,0,0,0-1.27-.31,4.59,4.59,0,0,0-2.11.26,1.14,1.14,0,0,1,0,.28,1.44,1.44,0,0,1-1.07.71.38.38,0,0,0-.24.11c-.33.33-.64.7-1,1a3.45,3.45,0,0,1-.66.35.71.71,0,0,0-.15.15l-.4.57a.56.56,0,0,0-.12.26,4.9,4.9,0,0,0,.32,1.93,2.43,2.43,0,0,0,.24.35.45.45,0,0,1,.06.12,1,1,0,0,0,.09.32,9,9,0,0,0,.86,1A4.16,4.16,0,0,0,8.35,18.77ZM2,14.36H1.91l0,.06a1.39,1.39,0,0,0-.17,1.36c.3.73.59,1.47.93,2.18a9.06,9.06,0,0,0,1.8,2.59,3.4,3.4,0,0,0,2,1c.28,0,.45-.05.53-.25s.25-.61.35-.93a2.78,2.78,0,0,0,.1-1.54.48.48,0,0,0-.16-.23,4.64,4.64,0,0,1-1.84-1.73.17.17,0,0,0-.18-.06,4.8,4.8,0,0,0-.67.23,1,1,0,0,1-1-.09,2.63,2.63,0,0,1-.73-.59A4.08,4.08,0,0,1,2,14.36Zm10.69,5.73c.08.18.15.35.21.52s.13.36.19.54c.13.38.34.48.72.32a1.55,1.55,0,0,0,.22-.12,11.09,11.09,0,0,0,3.78-3.89,5.23,5.23,0,0,0,.84-2.11,1.46,1.46,0,0,0-.18-1.06c0,.32,0,.64,0,1a1.92,1.92,0,0,1-2,2A2.6,2.6,0,0,1,14.9,17l-.09.15A3.71,3.71,0,0,1,13,18.71c-.14.06-.28.09-.42.14a1.77,1.77,0,0,0-.17.12.44.44,0,0,0,.19.07c.14,0,.28,0,.39,0l.12.8c0,.27,0,.33-.28.28Zm-2.22-.95v0l.61-.05a2.35,2.35,0,0,0,1.29-.48,1.87,1.87,0,0,0,0-2.92A2.76,2.76,0,0,0,10.27,15a2.12,2.12,0,0,0-2.22,1.93,1.66,1.66,0,0,0,1.3,2A9.69,9.69,0,0,0,10.43,19.14Zm5-5.13a1.87,1.87,0,0,0,.65-2,2,2,0,0,0-1.5-1.64,2.42,2.42,0,0,0-1.65.21c-.54.28-.47.24-.14.7a.38.38,0,0,0,.45.15,4.79,4.79,0,0,1,.92-.16,1.11,1.11,0,0,1,1.21.62,3.13,3.13,0,0,1,.2.8.66.66,0,0,1-.26.63.22.22,0,0,0-.08.19A3.46,3.46,0,0,0,15.4,14ZM4.94,13.68l.08,0c.09-.14.18-.29.28-.43a.33.33,0,0,0,0-.42,1.08,1.08,0,0,1-.22-.8A1.41,1.41,0,0,1,6,11a1.35,1.35,0,0,1,1.42.27c.27.22.29.23.59,0a3.5,3.5,0,0,0,.3-.24c.14-.12.13-.25,0-.34a6.39,6.39,0,0,0-1.06-.5,2.13,2.13,0,0,0-2.56,1.26A3,3,0,0,0,4.94,13.68Zm2.81,5.18c0,.24.09.27.41.16h0Z"/><path d="M3.14,5.33c-.07.21-.12.38-.19.54a3,3,0,0,1-.32.58c-.15.21-.32.2-.51,0a.56.56,0,0,1-.06-.87,3.87,3.87,0,0,1,.55-.43,1.06,1.06,0,0,1,.19-.11L2,5,1.79,5c-.24-.08-.37-.23-.35-.42a.51.51,0,0,1,.48-.46,1.61,1.61,0,0,1,.56.15A5.86,5.86,0,0,1,3,4.6l-.15-.29a4.43,4.43,0,0,1-.2-.58A.57.57,0,0,1,3.37,3a.4.4,0,0,1,.38.43,4.94,4.94,0,0,1-.12.77,4.06,4.06,0,0,1-.16.44,4.71,4.71,0,0,1,.66-.35,4.58,4.58,0,0,1,.79-.2.41.41,0,0,1,.44.33.39.39,0,0,1-.18.5,2.41,2.41,0,0,1-.75.22,5.89,5.89,0,0,1-.84,0l.24.21a6.42,6.42,0,0,1,.51.54c.17.23.16.42,0,.55s-.56.26-.73,0a2.33,2.33,0,0,1-.34-.62A4.87,4.87,0,0,1,3.14,5.33Z"/><path d="M16,8.36l-.75.18-.17,0c-.33,0-.51-.11-.53-.36a.49.49,0,0,1,.5-.56,4.68,4.68,0,0,1,.8.15,1.15,1.15,0,0,1,.17.06l.07-.08a.64.64,0,0,1-.2-.11,3.28,3.28,0,0,1-.39-.53.56.56,0,0,1,.44-.89.42.42,0,0,1,.51.33,8.93,8.93,0,0,1,.08,1,1.62,1.62,0,0,1,0,.18c.2-.19.36-.38.55-.53a2.69,2.69,0,0,1,.6-.39.45.45,0,0,1,.61.17.48.48,0,0,1-.1.63,2.14,2.14,0,0,1-1.05.47l-.39.09c.21.09.37.15.53.23a4.12,4.12,0,0,1,.45.27c.25.19.3.36.17.55s-.49.41-.74.23A2.79,2.79,0,0,1,16.64,9a2.69,2.69,0,0,1-.26-.44c0,.32-.05.62-.08.92a.13.13,0,0,1,0,.06c-.07.31-.2.45-.4.43a.56.56,0,0,1-.52-.56,1.45,1.45,0,0,1,.2-.56A4.11,4.11,0,0,1,16,8.36Z"/><path d="M10.64,4.16c-.12,0-.25.06-.38.07S10,4.23,10,4s.11-.28.29-.29a1.81,1.81,0,0,1,.23,0l.25.08a1.67,1.67,0,0,1-.26-.37.4.4,0,0,1,0-.32A.36.36,0,0,1,10.77,3c.09,0,.18.15.2.25a2.64,2.64,0,0,1,0,.51l.25-.24a1.12,1.12,0,0,1,.34-.21.35.35,0,0,1,.3.09.32.32,0,0,1,0,.31A1.83,1.83,0,0,1,11.4,4a1.38,1.38,0,0,1-.26.07c.16.09.32.16.45.25s.22.17.1.33-.27.2-.41.07a2.83,2.83,0,0,1-.34-.42c0,.16,0,.31-.06.46s-.05.26-.23.23a.29.29,0,0,1-.25-.33A2.69,2.69,0,0,1,10.64,4.16Z"/><path d="M7.21,7.51c0,.17,0,.32,0,.46s-.06.27-.24.24a.3.3,0,0,1-.24-.36.62.62,0,0,1,.11-.25A1.42,1.42,0,0,1,7,7.39a3,3,0,0,1-.49.06.31.31,0,0,1-.24-.16A.21.21,0,0,1,6.42,7,2.32,2.32,0,0,1,7,7a2.13,2.13,0,0,1-.23-.33.38.38,0,0,1,0-.33.38.38,0,0,1,.32-.12c.08,0,.17.16.19.26a2.86,2.86,0,0,1,0,.56,2.08,2.08,0,0,1,.21-.25,1.51,1.51,0,0,1,.28-.22c.19-.11.34-.08.43.06s0,.3-.17.4-.39.15-.6.23a3.23,3.23,0,0,1,.41.22c.19.12.22.23.11.36a.26.26,0,0,1-.43,0A3.48,3.48,0,0,1,7.21,7.51Z"/><path d="M12.54,6.15a1.24,1.24,0,0,1-.23-.35.44.44,0,0,1,0-.32.41.41,0,0,1,.31-.12.35.35,0,0,1,.2.24,4,4,0,0,1,.05.52,2.24,2.24,0,0,1,.37-.32,1,1,0,0,1,.42-.12c.05,0,.16.18.13.22a.92.92,0,0,1-.29.33,2.92,2.92,0,0,1-.5.17,3.62,3.62,0,0,1,.44.24c.12.08.22.17.11.33s-.28.2-.42.07a3.47,3.47,0,0,1-.34-.42c0,.15,0,.31-.05.45s-.06.28-.25.24a.28.28,0,0,1-.23-.37,4.77,4.77,0,0,1,.24-.44l-.4.07c-.15,0-.29,0-.3-.21a.27.27,0,0,1,.3-.28A3.83,3.83,0,0,1,12.54,6.15Z"/><path d="M15.44,4.34a.85.85,0,0,1-.31,0,.32.32,0,0,1-.21-.14c0-.12.07-.21.21-.21l.33.06a1.28,1.28,0,0,1-.17-.26.33.33,0,0,1,0-.24.25.25,0,0,1,.22-.09.29.29,0,0,1,.16.18,2,2,0,0,1,0,.36,4.11,4.11,0,0,1,.35-.27c.11-.08.24-.1.31,0s0,.23-.12.29a4.08,4.08,0,0,1-.42.17,3.14,3.14,0,0,1,.31.18c.08.06.15.14.06.25s-.18.14-.29,0-.16-.19-.27-.31a1.55,1.55,0,0,1,0,.31c0,.1,0,.23-.19.18a.2.2,0,0,1-.16-.29A2,2,0,0,1,15.44,4.34Z"/><path d="M10.42,8.79a1.31,1.31,0,0,1-.06.31c0,.07-.12.12-.18.17S10,9.1,10,9a1.41,1.41,0,0,1,.17-.35,1,1,0,0,1-.3.05.6.6,0,0,1-.21-.13c.06-.07.1-.19.17-.21a.91.91,0,0,1,.36,0A2.53,2.53,0,0,1,10,8.14a.2.2,0,0,1,.13-.3c.17-.06.25,0,.28.17s0,.23,0,.37a2.74,2.74,0,0,1,.35-.27c.11-.08.24-.11.33,0s0,.23-.13.29a3.5,3.5,0,0,1-.43.17l.31.17c.09.06.17.14.07.26a.2.2,0,0,1-.3,0A1.74,1.74,0,0,1,10.42,8.79Z"/><path d="M17.22,11.79a2.38,2.38,0,0,1-.34,0c-.07,0-.12-.08-.19-.13s.1-.19.16-.2a1.1,1.1,0,0,1,.36,0c-.05-.16-.3-.27-.14-.48a.42.42,0,0,1,.23-.09c.09.16.16.33.24.5.06,0,.15-.13.26-.2s.25-.15.35,0,0,.27-.17.33-.25.09-.38.14a1.85,1.85,0,0,1,.33.21c.05,0,.08.18.05.2s-.2.12-.25.08a1.45,1.45,0,0,1-.31-.3,1.33,1.33,0,0,1,0,.28.37.37,0,0,1-.12.2.2.2,0,0,1-.18-.07.34.34,0,0,1,0-.24A1.05,1.05,0,0,1,17.22,11.79Z"/><path d="M8,4.22a1.59,1.59,0,0,1-.06.34c0,.06-.1.11-.15.16s-.19-.15-.18-.21a1.53,1.53,0,0,1,.14-.39.91.91,0,0,1-.3,0c-.07,0-.13-.09-.19-.14s.11-.18.17-.2a1.54,1.54,0,0,1,.36,0A1.17,1.17,0,0,1,7.6,3.6a.31.31,0,0,1,0-.25.26.26,0,0,1,.22-.07.29.29,0,0,1,.15.2,2.12,2.12,0,0,1,0,.37,4.11,4.11,0,0,1,.35-.29c.11-.08.24-.13.33,0s0,.26-.14.32-.26.1-.41.16a3.07,3.07,0,0,1,.31.17c.09.06.16.14.07.26a.19.19,0,0,1-.31,0A2.45,2.45,0,0,1,8,4.22Z"/><path d="M2.71,8.6c.12.07.22.12.32.19s.16.15.05.24a.33.33,0,0,1-.27.05,1.54,1.54,0,0,1-.27-.29,1,1,0,0,1,0,.31c0,.07-.1.12-.16.18S2.15,9.11,2.15,9a1,1,0,0,1,.17-.37A.92.92,0,0,1,2,8.72c-.08,0-.2-.07-.22-.13s.06-.22.19-.22a1.4,1.4,0,0,1,.34.05,1.43,1.43,0,0,1-.16-.24.36.36,0,0,1,0-.27.27.27,0,0,1,.22-.08.41.41,0,0,1,.16.22,1.35,1.35,0,0,1,0,.35c.13-.11.23-.2.34-.28s.26-.14.35,0,0,.25-.16.31S2.85,8.54,2.71,8.6Z"/><path d="M2.57,11.73c.14-.12.24-.22.35-.3s.24-.13.34,0,0,.26-.14.32a3.91,3.91,0,0,1-.41.15c.12.07.22.12.32.19s.16.16.05.24a.3.3,0,0,1-.27.05,1.54,1.54,0,0,1-.27-.29,2.43,2.43,0,0,1,0,.3c0,.1-.06.23-.18.17a.32.32,0,0,1-.17-.24A1.11,1.11,0,0,1,2.31,12,1.17,1.17,0,0,1,2,12c-.06,0-.12-.08-.18-.12s.09-.19.16-.21a1.5,1.5,0,0,1,.36,0,1.5,1.5,0,0,1-.15-.23.35.35,0,0,1,0-.25.27.27,0,0,1,.24-.08c.06,0,.12.13.14.2A2.27,2.27,0,0,1,2.57,11.73Z"/><path d="M12.6,14.89c0-.37.21-.64.48-.63a.57.57,0,0,1,.46.63.8.8,0,0,1,0,.15c-.07.28-.25.44-.47.43a.52.52,0,0,1-.43-.5A.28.28,0,0,1,12.6,14.89Z"/><path d="M8,15.1c0,.35-.22.62-.48.61a.6.6,0,0,1-.45-.66c0-.33.24-.57.49-.55S8,14.77,8,15.1Z"/><path d="M11.4,18.35l.22-.18a.2.2,0,0,1,.3,0c.08.1.06.19-.05.27l0,0c-.38.3-.38.31-.79,0a.33.33,0,0,0-.45,0,4.17,4.17,0,0,1-.38.26,6.33,6.33,0,0,1-.54-.36.27.27,0,0,1,0-.25c0-.06.15-.08.23-.09s.1.06.15.08.2.1.27.06.34-.14.29-.38a.53.53,0,0,0-.11-.21c-.21-.21-.43-.41-.65-.61a.26.26,0,0,1-.08-.33l.08-.2a.36.36,0,0,1,.41-.26c.39,0,.78,0,1.16,0,0,0,.11,0,.13,0a3.17,3.17,0,0,1,.27.47c0,.06,0,.17-.07.22-.18.21-.37.4-.56.6s-.22.43.07.6Z"/></g><path class="cls-4" d="M15.75,15.05c.26-.24.48-.48.73-.7a4.68,4.68,0,0,1,.62-.45,1.32,1.32,0,0,1,2,1.08,3.45,3.45,0,0,1-.35,1.79,11.48,11.48,0,0,1-3.87,4.64.3.3,0,0,0-.14.32c0,.21,0,.43.06.65a.43.43,0,0,0,0,.05h-.24l0-.35c0-.12,0-.24,0-.37-.17.08-.33.17-.49.23a.68.68,0,0,1-1-.46c-.13-.38-.28-.74-.41-1.12a.25.25,0,0,0-.23-.18l-1-.12c.29.53.79.89.87,1.45l-.32.17c-.13.06-.18,0-.23-.11-.18-.28-.34-.56-.52-.82a2.94,2.94,0,0,0-.36-.42c-.19-.19-.35-.2-.52,0a4.85,4.85,0,0,0-.39.61c-.13.23-.24.47-.37.7a.33.33,0,0,1-.22.16c-.07,0-.14-.11-.21-.17A1,1,0,0,1,9,21.49a.3.3,0,0,1-.08-.17,1.15,1.15,0,0,1,.39-.76l.3-.27-.73,0H8.51c-.38,0-.37,0-.4-.37A1,1,0,0,0,8,19.55a5.28,5.28,0,0,1-.09.68c-.14.49-.31,1-.48,1.46a.53.53,0,0,1-.5.34c-.2,0-.28.09-.26.28a.53.53,0,0,1,0,.12H6.39c0-.15.05-.32,0-.4s-.25-.09-.39-.13a4.25,4.25,0,0,1-2-1.45A13.69,13.69,0,0,1,1.62,16,1.81,1.81,0,0,1,3,13.69a1.87,1.87,0,0,1,1.26.36c.23.17.44.37.68.56a1.36,1.36,0,0,0-.08-.69A3.5,3.5,0,0,1,4.5,12.4a2.29,2.29,0,0,1,2.21-2.33,2.82,2.82,0,0,1,1.78.52.41.41,0,0,0,.4.05,5,5,0,0,1,3.58.11.33.33,0,0,0,.24,0,2.83,2.83,0,0,1,2-.38,2.22,2.22,0,0,1,1.74,1.79,2,2,0,0,1-.44,2A1.17,1.17,0,0,0,15.75,15.05ZM8.55,19A1.92,1.92,0,0,1,8,17.28a2.24,2.24,0,0,1,1.17-2,3.24,3.24,0,0,1,3.38.19,2.17,2.17,0,0,1,.56,3.07l0,.1a3.28,3.28,0,0,0,1.41-1,5,5,0,0,0,1-3.15.32.32,0,0,0-.1-.19,1,1,0,0,1-.28-.71.67.67,0,0,0-.1-.44,4,4,0,0,0-1.25-1.15c-.12-.07-.22-.14-.36-.05a.32.32,0,0,1-.27,0,1.57,1.57,0,0,1-.72-.84c0-.07-.09-.17-.15-.19a11.15,11.15,0,0,0-1.27-.3,4.45,4.45,0,0,0-2.11.26,1.14,1.14,0,0,1,0,.28,1.44,1.44,0,0,1-1.07.71.38.38,0,0,0-.24.11c-.34.33-.64.69-1,1a3.78,3.78,0,0,1-.66.35.54.54,0,0,0-.15.15l-.4.57a.56.56,0,0,0-.12.26,4.9,4.9,0,0,0,.32,1.93,1.91,1.91,0,0,0,.24.34l.06.13c0,.11,0,.24.09.32a10.07,10.07,0,0,0,.85,1A4.26,4.26,0,0,0,8.55,19Zm-6.4-4.41h0l0,0A1.41,1.41,0,0,0,1.9,16c.3.73.58,1.47.93,2.18a9.06,9.06,0,0,0,1.8,2.59,3.33,3.33,0,0,0,2,1c.28,0,.45,0,.53-.24s.25-.61.34-.93a2.61,2.61,0,0,0,.1-1.54.41.41,0,0,0-.15-.23A4.67,4.67,0,0,1,5.65,17.1.22.22,0,0,0,5.47,17a5.49,5.49,0,0,0-.68.24,1.05,1.05,0,0,1-1-.09A2.74,2.74,0,0,1,3,16.6,4.09,4.09,0,0,1,2.15,14.56Zm10.7,5.72c.08.19.14.36.21.53l.19.54c.13.38.34.47.72.32l.22-.12A11.09,11.09,0,0,0,18,17.66a5.23,5.23,0,0,0,.84-2.11,1.57,1.57,0,0,0-.18-1.06c0,.32,0,.64,0,1a1.92,1.92,0,0,1-2,2,2.68,2.68,0,0,1-1.53-.17.8.8,0,0,0-.09.14,3.68,3.68,0,0,1-1.84,1.53c-.14.06-.29.09-.42.14a.74.74,0,0,0-.17.12.44.44,0,0,0,.19.07,3.67,3.67,0,0,0,.38,0c0,.27.09.54.13.8s0,.33-.28.28Zm-2.22-.94v0l.62-.05a2.29,2.29,0,0,0,1.28-.48,1.86,1.86,0,0,0,0-2.92,2.78,2.78,0,0,0-2.09-.64,2.12,2.12,0,0,0-2.22,1.93,1.65,1.65,0,0,0,1.3,2C9.9,19.26,10.27,19.28,10.63,19.34Zm5-5.13a1.86,1.86,0,0,0,.66-2,2,2,0,0,0-1.5-1.64,2.42,2.42,0,0,0-1.65.21c-.54.27-.47.24-.14.69a.37.37,0,0,0,.45.16,4.81,4.81,0,0,1,.92-.17,1.13,1.13,0,0,1,1.21.63,3.06,3.06,0,0,1,.2.79.67.67,0,0,1-.26.64.22.22,0,0,0-.08.19C15.44,13.89,15.52,14,15.59,14.21ZM5.14,13.88l.08,0,.27-.44a.31.31,0,0,0,0-.41,1,1,0,0,1-.22-.8,1.41,1.41,0,0,1,1-1.09,1.37,1.37,0,0,1,1.42.28c.27.22.29.23.59,0a3.5,3.5,0,0,0,.3-.24c.13-.12.13-.25,0-.34a5.47,5.47,0,0,0-1.07-.5,2.11,2.11,0,0,0-2.55,1.26A3,3,0,0,0,5.14,13.88ZM8,19.06c0,.24.09.27.41.16,0,0,0,0,0,0Z"/><path class="cls-4" d="M3.33,5.53a5.38,5.38,0,0,1-.18.53,3,3,0,0,1-.32.59c-.15.2-.32.2-.51,0a.56.56,0,0,1-.06-.87,3.87,3.87,0,0,1,.55-.43L3,5.26l-.78,0L2,5.16c-.24-.08-.37-.23-.35-.42a.5.5,0,0,1,.47-.46,1.55,1.55,0,0,1,.56.15,5.9,5.9,0,0,1,.55.37c-.07-.13-.11-.21-.15-.3a4.3,4.3,0,0,1-.2-.57.56.56,0,0,1,.7-.71A.4.4,0,0,1,4,3.65a4.94,4.94,0,0,1-.12.77,4.31,4.31,0,0,1-.17.44,5.43,5.43,0,0,1,.67-.35,3.66,3.66,0,0,1,.79-.2.41.41,0,0,1,.44.33.38.38,0,0,1-.18.49,2.18,2.18,0,0,1-.75.23,6,6,0,0,1-.85,0A2.32,2.32,0,0,1,4,5.58a5.18,5.18,0,0,1,.51.54c.17.23.15.41,0,.54s-.56.27-.74,0a2.62,2.62,0,0,1-.33-.62A4.71,4.71,0,0,1,3.33,5.53Z"/><path class="cls-4" d="M16.16,8.56l-.76.18-.16,0c-.33,0-.51-.12-.53-.36a.49.49,0,0,1,.49-.56A4.61,4.61,0,0,1,16,8l.17.06L16.24,8c-.06,0-.15-.06-.19-.11a3.28,3.28,0,0,1-.39-.53.55.55,0,0,1,.44-.89.42.42,0,0,1,.51.33,8.76,8.76,0,0,1,.08,1,1.28,1.28,0,0,1,0,.17c.19-.18.36-.37.55-.52a2.69,2.69,0,0,1,.6-.39.45.45,0,0,1,.61.17.48.48,0,0,1-.1.63,2.14,2.14,0,0,1-1,.47l-.39.09c.21.09.37.15.52.23a2.64,2.64,0,0,1,.46.27c.25.19.3.36.17.55s-.49.41-.74.23a2.85,2.85,0,0,1-.47-.51,4.49,4.49,0,0,1-.26-.45c0,.33-.05.63-.07.93a.13.13,0,0,1,0,.06c-.07.31-.2.45-.4.43a.57.57,0,0,1-.53-.56A1.58,1.58,0,0,1,15.77,9,4.11,4.11,0,0,1,16.16,8.56Z"/><path class="cls-4" d="M10.84,4.36l-.38.07c-.15,0-.3,0-.32-.2a.29.29,0,0,1,.3-.29l.23,0,.24.08a1.85,1.85,0,0,1-.25-.37.35.35,0,0,1,0-.33A.38.38,0,0,1,11,3.23c.08,0,.18.15.2.25a2.64,2.64,0,0,1,0,.51l.25-.24a1,1,0,0,1,.34-.21.35.35,0,0,1,.3.09.34.34,0,0,1,0,.31,1.83,1.83,0,0,1-.46.24,2.56,2.56,0,0,1-.27.07c.17.09.32.16.46.25s.22.17.1.33-.27.2-.41.07a3.71,3.71,0,0,1-.35-.42,3.41,3.41,0,0,1-.05.46c0,.12-.05.26-.23.23a.28.28,0,0,1-.25-.33A2.69,2.69,0,0,1,10.84,4.36Z"/><path class="cls-4" d="M7.41,7.71c0,.17,0,.32,0,.46s-.06.27-.24.24a.31.31,0,0,1-.25-.36A.82.82,0,0,1,7,7.8a2.22,2.22,0,0,1,.17-.22,2.31,2.31,0,0,1-.49.07.28.28,0,0,1-.24-.16.21.21,0,0,1,.19-.29,2.41,2.41,0,0,1,.53,0,1.94,1.94,0,0,1-.23-.33.42.42,0,0,1,0-.33.41.41,0,0,1,.33-.12c.08,0,.17.16.19.26a2.86,2.86,0,0,1,0,.56c.09-.11.14-.19.2-.25A2,2,0,0,1,8,6.81c.19-.11.34-.08.42.06a.27.27,0,0,1-.16.39,5.36,5.36,0,0,1-.6.24A4.1,4.1,0,0,1,8,7.72c.19.12.22.22.11.35a.25.25,0,0,1-.43,0A3.48,3.48,0,0,1,7.41,7.71Z"/><path class="cls-4" d="M12.73,6.35A2,2,0,0,1,12.51,6a.39.39,0,0,1,0-.32.36.36,0,0,1,.31-.12.38.38,0,0,1,.2.24,2.82,2.82,0,0,1,0,.52A2.8,2.8,0,0,1,13.45,6a.89.89,0,0,1,.42-.12s.15.18.13.22a.92.92,0,0,1-.29.33,2.92,2.92,0,0,1-.5.17,3.62,3.62,0,0,1,.44.24c.11.08.22.17.1.33s-.27.2-.41.07A3.47,3.47,0,0,1,13,6.82c0,.15,0,.3-.05.45s-.06.28-.25.24a.28.28,0,0,1-.23-.37,3.75,3.75,0,0,1,.24-.44l-.4.07c-.15,0-.29,0-.3-.21a.27.27,0,0,1,.3-.28A3.34,3.34,0,0,1,12.73,6.35Z"/><path class="cls-4" d="M15.64,4.53a1.32,1.32,0,0,1-.31,0c-.08,0-.2-.08-.21-.14a.18.18,0,0,1,.2-.21l.34.06A1.15,1.15,0,0,1,15.49,4a.33.33,0,0,1,0-.24.28.28,0,0,1,.22-.1c.07,0,.13.12.16.19a2,2,0,0,1,0,.36A4.29,4.29,0,0,1,16.26,4c.11-.07.23-.09.31,0s0,.24-.12.3L16,4.47c.1.06.21.11.31.18s.15.13.06.24-.19.15-.29.06a3,3,0,0,1-.27-.31,3,3,0,0,1,0,.31c0,.1,0,.23-.19.18a.2.2,0,0,1-.16-.29A2.68,2.68,0,0,1,15.64,4.53Z"/><path class="cls-4" d="M10.61,9a1,1,0,0,1,0,.32c0,.07-.12.11-.18.17s-.17-.17-.16-.25a1.13,1.13,0,0,1,.17-.35,1,1,0,0,1-.3.05c-.08,0-.14-.08-.21-.13s.1-.19.17-.21a.91.91,0,0,1,.36,0c-.06-.09-.13-.18-.18-.27a.2.2,0,0,1,.13-.3c.17-.06.25,0,.27.17a2.05,2.05,0,0,1,0,.37A4.29,4.29,0,0,1,11,8.3c.11-.07.24-.11.33,0s0,.23-.13.29a3.5,3.5,0,0,1-.43.17l.3.17c.1.06.17.14.08.26a.2.2,0,0,1-.3,0A2.63,2.63,0,0,1,10.61,9Z"/><path class="cls-4" d="M17.41,12a1.39,1.39,0,0,1-.33,0C17,12,17,12,16.89,11.9s.09-.19.16-.21a1.5,1.5,0,0,1,.36,0c-.05-.16-.3-.28-.14-.48a.42.42,0,0,1,.23-.09c.09.16.16.33.24.5l.26-.21c.11-.07.25-.15.34,0s0,.27-.16.33a3.54,3.54,0,0,1-.39.14,2.77,2.77,0,0,1,.34.2.3.3,0,0,1,.05.21c-.07,0-.2.11-.26.08a1.49,1.49,0,0,1-.3-.31,1.36,1.36,0,0,1,0,.29.37.37,0,0,1-.12.2.2.2,0,0,1-.18-.07.34.34,0,0,1,0-.24A1.71,1.71,0,0,1,17.41,12Z"/><path class="cls-4" d="M8.16,4.42a1.16,1.16,0,0,1-.05.34c0,.06-.1.11-.15.16s-.19-.15-.18-.21a1.53,1.53,0,0,1,.14-.39,1,1,0,0,1-.3,0c-.07,0-.13-.09-.19-.14S7.53,4,7.6,4a1.54,1.54,0,0,1,.36,0A.88.88,0,0,1,7.8,3.8a.27.27,0,0,1,0-.25A.22.22,0,0,1,8,3.48a.32.32,0,0,1,.15.19,2.28,2.28,0,0,1,0,.37c.14-.1.24-.2.36-.28s.24-.13.33,0,0,.26-.14.32l-.41.16.31.16c.09.07.16.15.07.26a.19.19,0,0,1-.31,0C8.32,4.63,8.25,4.53,8.16,4.42Z"/><path class="cls-4" d="M2.9,8.79,3.23,9c.09.06.16.16,0,.25a.3.3,0,0,1-.27,0c-.1,0-.17-.17-.27-.28a1,1,0,0,1-.05.31.67.67,0,0,1-.16.18c-.06-.08-.19-.17-.18-.25a1.06,1.06,0,0,1,.17-.36.93.93,0,0,1-.29.05A.29.29,0,0,1,2,8.79a.17.17,0,0,1,.18-.22,1.5,1.5,0,0,1,.35,0,.8.8,0,0,1-.16-.23.36.36,0,0,1,0-.27A.25.25,0,0,1,2.61,8a.38.38,0,0,1,.16.22,2,2,0,0,1,0,.35,3.55,3.55,0,0,1,.34-.28c.12-.08.26-.14.35,0s0,.25-.16.31A3.09,3.09,0,0,1,2.9,8.79Z"/><path class="cls-4" d="M2.77,11.92c.14-.11.24-.21.35-.29s.24-.13.34,0,0,.25-.15.32a3.71,3.71,0,0,1-.4.15c.12.07.22.12.32.19s.15.16,0,.24a.34.34,0,0,1-.27,0,1.54,1.54,0,0,1-.27-.29,2.43,2.43,0,0,1,0,.3c0,.1-.06.23-.18.17a.34.34,0,0,1-.17-.24,1,1,0,0,1,.16-.34.89.89,0,0,1-.32,0c-.07,0-.12-.08-.18-.12s.09-.19.16-.21a1.5,1.5,0,0,1,.36,0,1.5,1.5,0,0,1-.15-.23.27.27,0,0,1,0-.25.26.26,0,0,1,.23-.08.29.29,0,0,1,.15.2A2.16,2.16,0,0,1,2.77,11.92Z"/><path class="cls-4" d="M12.8,15.09c0-.37.21-.64.48-.63a.57.57,0,0,1,.46.63l0,.15a.49.49,0,0,1-.47.43.51.51,0,0,1-.43-.5A.28.28,0,0,1,12.8,15.09Z"/><path class="cls-4" d="M8.2,15.3c0,.35-.22.62-.48.6a.58.58,0,0,1-.45-.65c0-.33.24-.57.49-.56A.56.56,0,0,1,8.2,15.3Z"/><path class="cls-4" d="M11.6,18.54l.22-.17a.19.19,0,0,1,.29.05c.09.1.07.19,0,.27l-.05,0c-.38.3-.38.31-.79,0a.34.34,0,0,0-.45,0c-.11.09-.24.16-.38.26a6.33,6.33,0,0,1-.54-.36.29.29,0,0,1,0-.26.32.32,0,0,1,.23-.08s.09.06.15.08.2.09.26.06.35-.15.29-.38a.41.41,0,0,0-.1-.21c-.21-.21-.43-.41-.65-.61A.25.25,0,0,1,9.93,17l.08-.2a.35.35,0,0,1,.41-.26c.39,0,.77,0,1.16,0a.23.23,0,0,1,.13,0A3.26,3.26,0,0,1,12,17a.29.29,0,0,1-.07.22c-.18.21-.38.4-.56.6s-.22.43.07.6Z"/></g></g></svg>