<svg xmlns="http://www.w3.org/2000/svg" viewBox="0 0 38.55 24.66"><defs><style>.cls-1{isolation:isolate;}.cls-2{opacity:0.15;}.cls-2,.cls-3{mix-blend-mode:multiply;}.cls-4{fill:#fff;}</style></defs><title>convert-CUSTOMIZE-SVG-03</title><g class="cls-1"><g id="Layer_1" data-name="Layer 1"><g class="cls-2"><path d="M6,23.21a3.72,3.72,0,0,1-.3.37.34.34,0,0,1-.56,0,1.48,1.48,0,0,1-.3-1.13,2.35,2.35,0,0,1,.54-1.31.25.25,0,0,1,.2-.06,2.26,2.26,0,0,1,1.34,1.56,1.19,1.19,0,0,1,0,.46c-.06.35-.25.45-.58.31Z"/><path d="M12.38,3.73A2.35,2.35,0,0,1,10.91,2V2c0-.24,0-.52.19-.68s.44,0,.65.12l.11.07c.09-.12.16-.24.25-.35a.37.37,0,0,1,.64,0A1.38,1.38,0,0,1,13,2,2.49,2.49,0,0,1,12.38,3.73Z"/><path d="M32.86,1.52c.09-.12.17-.25.27-.36a.35.35,0,0,1,.59,0A1.39,1.39,0,0,1,34,2.3a2.41,2.41,0,0,1-.53,1.31.22.22,0,0,1-.2.06,2.24,2.24,0,0,1-1.34-1.55,1.19,1.19,0,0,1,0-.46c.06-.36.26-.46.6-.31A3.48,3.48,0,0,1,32.86,1.52Z"/><path d="M26.44,21a2.34,2.34,0,0,1,1.44,1.62,1.07,1.07,0,0,1,0,.47c-.05.34-.25.43-.56.3A2.41,2.41,0,0,1,27,23.2a2.73,2.73,0,0,1-.21.3c-.24.29-.48.29-.7,0a1.59,1.59,0,0,1-.2-1.29A2.52,2.52,0,0,1,26.44,21Z"/><path d="M11.85,18.56c.08-.11.15-.22.23-.32a.38.38,0,0,1,.67,0A1.53,1.53,0,0,1,13,19.38a2.36,2.36,0,0,1-.53,1.27.26.26,0,0,1-.2.06,2.28,2.28,0,0,1-1.35-1.59,1.13,1.13,0,0,1,0-.41c.07-.37.27-.48.61-.33C11.64,18.43,11.74,18.5,11.85,18.56Z"/><path d="M27,6.16c-.1.13-.18.26-.28.37a.35.35,0,0,1-.59,0,1.46,1.46,0,0,1-.28-1.18,2.3,2.3,0,0,1,.53-1.24.22.22,0,0,1,.2-.06A2.25,2.25,0,0,1,27.89,5.6a1,1,0,0,1,0,.39c-.06.4-.28.51-.65.33A2,2,0,0,1,27,6.16Z"/><path d="M32.86,18.56a3.54,3.54,0,0,1,.26-.35.35.35,0,0,1,.61,0A1.42,1.42,0,0,1,34,19.34a2.35,2.35,0,0,1-.54,1.31.21.21,0,0,1-.2.05,2.24,2.24,0,0,1-1.33-1.54,1.4,1.4,0,0,1,0-.5c.06-.32.25-.41.56-.29A3.13,3.13,0,0,1,32.86,18.56Z"/><path d="M33.29,3.88A2.32,2.32,0,0,1,31.71,5.3a1.42,1.42,0,0,1-.58,0c-.27,0-.35-.23-.26-.49A1.89,1.89,0,0,1,31,4.59l.11-.19c-.13-.1-.26-.19-.37-.29a.35.35,0,0,1,0-.58A1.68,1.68,0,0,1,32,3.26,2.44,2.44,0,0,1,33.29,3.88Z"/><path d="M34,23.2a4.2,4.2,0,0,1-.3.38.33.33,0,0,1-.55,0,1.26,1.26,0,0,1-.31-.87A2.43,2.43,0,0,1,33.43,21a2.17,2.17,0,0,1,1.48,1.88c0,.53-.27.68-.74.43Z"/><path d="M7.74,20.32a4.46,4.46,0,0,1,.39.32.3.3,0,0,1,0,.52,1.55,1.55,0,0,1-.64.29,2.36,2.36,0,0,1-1.93-.59,2.19,2.19,0,0,1,1.91-1.47c.52,0,.67.28.42.73Z"/><path d="M35.75,3.3l.34.24a.37.37,0,0,1,0,.64,1.57,1.57,0,0,1-1.19.25,2.46,2.46,0,0,1-1.21-.51.16.16,0,0,1-.07-.24,2.3,2.3,0,0,1,1.47-1.27,1.41,1.41,0,0,1,.58,0c.31,0,.42.25.31.54A3.48,3.48,0,0,1,35.75,3.3Z"/><path d="M4.85,1.51c.09-.11.17-.23.27-.34s.4-.21.6,0a1.4,1.4,0,0,1,.29,1,2.46,2.46,0,0,1-.53,1.42.16.16,0,0,1-.23.07A2.3,2.3,0,0,1,3.94,2.14a1.27,1.27,0,0,1,0-.58c0-.24.2-.32.44-.25A3.76,3.76,0,0,1,4.85,1.51Z"/><path d="M12.29,3.88A2.36,2.36,0,0,1,10.71,5.3a1.61,1.61,0,0,1-.58,0c-.28-.06-.36-.24-.26-.51a3.62,3.62,0,0,1,.19-.4l-.3-.22c-.29-.24-.27-.46,0-.68A1.62,1.62,0,0,1,11,3.27,2.45,2.45,0,0,1,12.29,3.88Z"/><path d="M24.06,4.39a3.86,3.86,0,0,1-.38-.3.31.31,0,0,1,0-.53,2,2,0,0,1,.68-.29,2.31,2.31,0,0,1,1.77.49c.08.06.14.12.07.24a2.27,2.27,0,0,1-1.52,1.3,1.79,1.79,0,0,1-.61,0c-.24,0-.32-.21-.24-.45S24,4.55,24.06,4.39Z"/><path d="M25.86,1.51a3.72,3.72,0,0,1,.3-.37.33.33,0,0,1,.54,0,1.38,1.38,0,0,1,.32,1,2.48,2.48,0,0,1-.54,1.44c-.06.08-.1.13-.22.07A2.32,2.32,0,0,1,25,2.16a1.35,1.35,0,0,1,0-.6c0-.24.2-.32.44-.25A2.67,2.67,0,0,1,25.86,1.51Z"/><path d="M26.54,20.86a2.19,2.19,0,0,1,1.91-1.47c.52,0,.67.28.42.73l-.12.2c.12.1.25.18.36.29a.35.35,0,0,1,0,.59,1.56,1.56,0,0,1-1.22.26A2.43,2.43,0,0,1,26.54,20.86Z"/><path d="M12.43,21a2.3,2.3,0,0,1,1.44,1.59,1.42,1.42,0,0,1,0,.58.31.31,0,0,1-.43.25,4.1,4.1,0,0,1-.48-.21c-.08.1-.15.22-.24.32-.23.26-.47.26-.65,0a1.92,1.92,0,0,1-.25-.73A2.31,2.31,0,0,1,12.43,21Z"/><path d="M7.75,3.29c.12.1.25.18.35.28s.22.43,0,.58a1.84,1.84,0,0,1-.7.28,2.36,2.36,0,0,1-1.74-.52c-.09-.06-.11-.12,0-.23A2.27,2.27,0,0,1,7.05,2.41a1.41,1.41,0,0,1,.58,0c.31,0,.42.24.31.53C7.89,3,7.81,3.16,7.75,3.29Z"/><path d="M14.75,3.3a2.6,2.6,0,0,1,.33.25.36.36,0,0,1,0,.63,1.57,1.57,0,0,1-1.19.25,2.46,2.46,0,0,1-1.21-.51c-.09-.07-.13-.13-.07-.24A2.34,2.34,0,0,1,14.05,2.4a1.81,1.81,0,0,1,.57,0c.32,0,.43.25.32.55C14.89,3.05,14.81,3.17,14.75,3.3Z"/><path d="M28.74,3.29a4,4,0,0,1,.37.28.35.35,0,0,1,0,.59,1.51,1.51,0,0,1-1.2.27,2.49,2.49,0,0,1-1.34-.6,2.16,2.16,0,0,1,1.95-1.47c.47,0,.61.27.4.69A2.29,2.29,0,0,1,28.74,3.29Z"/><path d="M34,6.17c-.1.13-.18.25-.28.36a.35.35,0,0,1-.59,0,1.37,1.37,0,0,1-.3-.93,2.38,2.38,0,0,1,.55-1.49.22.22,0,0,1,.2-.06,2.25,2.25,0,0,1,1.33,1.52,1.2,1.2,0,0,1,0,.5c0,.33-.25.44-.56.31C34.2,6.3,34.09,6.23,34,6.17Z"/><path d="M6,6.17a3.69,3.69,0,0,1-.25.34.36.36,0,0,1-.62,0A1.5,1.5,0,0,1,4.8,5.37a2.54,2.54,0,0,1,.53-1.29C5.4,4,5.45,4,5.56,4A2.24,2.24,0,0,1,6.87,5.57a1.29,1.29,0,0,1,0,.48c-.06.33-.26.43-.57.3C6.18,6.3,6.07,6.23,6,6.17Z"/><path d="M3.06,21.43c-.13-.1-.25-.17-.36-.27a.35.35,0,0,1,0-.59A1.57,1.57,0,0,1,4,20.3a2.48,2.48,0,0,1,1.16.48.2.2,0,0,1,.08.3,2.33,2.33,0,0,1-1.49,1.25,1.51,1.51,0,0,1-.56,0c-.29,0-.4-.24-.3-.53A3.48,3.48,0,0,1,3.06,21.43Z"/><path d="M31.08,21.43l-.19-.13c-.46-.3-.45-.64.06-.86a2.41,2.41,0,0,1,.89-.15,2.31,2.31,0,0,1,1.44.61,2.17,2.17,0,0,1-1.92,1.47c-.51,0-.65-.28-.41-.72Z"/><path d="M14.75,20.34c.12.09.25.16.35.25s.22.44,0,.6a1.81,1.81,0,0,1-.66.27,2.35,2.35,0,0,1-1.76-.5c-.09-.07-.13-.13-.07-.25a2.3,2.3,0,0,1,1.52-1.28,1.44,1.44,0,0,1,.62,0,.3.3,0,0,1,.24.43A3.23,3.23,0,0,1,14.75,20.34Z"/><path d="M25.85,18.55a3,3,0,0,1,.31-.37.32.32,0,0,1,.54,0,1.36,1.36,0,0,1,.32,1,2.51,2.51,0,0,1-.52,1.41.18.18,0,0,1-.28.06A2.27,2.27,0,0,1,25,19.22a1.62,1.62,0,0,1,0-.54c0-.32.25-.43.55-.31C25.61,18.42,25.73,18.49,25.85,18.55Z"/><path d="M13,6.17a3.24,3.24,0,0,1-.27.35.36.36,0,0,1-.61,0,1.36,1.36,0,0,1-.28-1,2.48,2.48,0,0,1,.52-1.4C12.4,4,12.47,4,12.6,4a2.32,2.32,0,0,1,1.27,1.5,1.3,1.3,0,0,1,0,.52c0,.32-.25.42-.55.31C13.2,6.31,13.08,6.23,13,6.17Z"/><path d="M4.85,18.55a2.84,2.84,0,0,1,.3-.37.32.32,0,0,1,.54,0,1.34,1.34,0,0,1,.32,1,2.45,2.45,0,0,1-.53,1.44c-.06.08-.11.13-.23.07a2.28,2.28,0,0,1-1.31-1.53,1.1,1.1,0,0,1,0-.54c.05-.29.24-.38.51-.28S4.72,18.49,4.85,18.55Z"/><path d="M10.07,21.43a2.92,2.92,0,0,1-.38-.29.34.34,0,0,1,0-.56,1.54,1.54,0,0,1,1.22-.29,2.43,2.43,0,0,1,1.34.61,2.16,2.16,0,0,1-1.94,1.47c-.48,0-.62-.27-.41-.69Z"/><path d="M17.06,21.42a4,4,0,0,1-.33-.24.37.37,0,0,1,0-.64A1.61,1.61,0,0,1,18,20.3a2.46,2.46,0,0,1,1.21.51c.09.07.11.13.05.23a2.3,2.3,0,0,1-1.5,1.29,1.44,1.44,0,0,1-.62,0,.31.31,0,0,1-.25-.46A4.28,4.28,0,0,1,17.06,21.42Z"/><path d="M24.08,21.43c-.12-.09-.24-.15-.34-.24a.37.37,0,0,1,0-.65,1.65,1.65,0,0,1,1.35-.21,2.4,2.4,0,0,1,1.05.48c.08.06.12.11.07.22a2.29,2.29,0,0,1-1.53,1.3,1.35,1.35,0,0,1-.6,0c-.24-.05-.32-.2-.25-.44a1.17,1.17,0,0,1,.09-.24C24,21.58,24,21.51,24.08,21.43Z"/><path d="M21.75,3.3c.12.09.25.17.36.27a.34.34,0,0,1,0,.58,1.54,1.54,0,0,1-1.24.28,2.57,2.57,0,0,1-1.21-.52.15.15,0,0,1-.06-.22,2.27,2.27,0,0,1,1.5-1.29,1.49,1.49,0,0,1,.63,0,.31.31,0,0,1,.25.46C21.9,3,21.82,3.15,21.75,3.3Z"/><path d="M18.86,1.53A2.71,2.71,0,0,1,19,1.28c.28-.37.55-.35.79,0A1.7,1.7,0,0,1,20,2.45a2.53,2.53,0,0,1-.59,1.26,2.11,2.11,0,0,1-1.48-2c.06-.39.26-.51.62-.35A3.58,3.58,0,0,1,18.86,1.53Z"/><path d="M21.75,20.34a2.27,2.27,0,0,1,.35.26.34.34,0,0,1,0,.59,1.54,1.54,0,0,1-1.28.26A2.46,2.46,0,0,1,19.65,21c-.07-.06-.14-.1-.08-.22a2.27,2.27,0,0,1,1.54-1.31,1.35,1.35,0,0,1,.6,0c.25,0,.33.22.24.46A3.36,3.36,0,0,1,21.75,20.34Z"/><path d="M17.07,4.4a4.43,4.43,0,0,1-.39-.31.31.31,0,0,1,0-.51,1.76,1.76,0,0,1,.6-.29,2.29,2.29,0,0,1,2,.6A2.3,2.3,0,0,1,17.69,5.3a1.36,1.36,0,0,1-.6,0,.31.31,0,0,1-.24-.45A1.6,1.6,0,0,1,17,4.6Z"/><path d="M20,23.2a5.08,5.08,0,0,1-.32.4.32.32,0,0,1-.53,0,1.76,1.76,0,0,1-.29-.64A2.35,2.35,0,0,1,19.42,21a2.26,2.26,0,0,1,1.48,1.71c0,.24.05.51-.18.66s-.45,0-.66-.13Z"/><path d="M3.06,4.39a3.38,3.38,0,0,1-.36-.27.33.33,0,0,1,0-.58,1.53,1.53,0,0,1,.63-.27,2.34,2.34,0,0,1,1.8.5A.16.16,0,0,1,5.23,4,2.31,2.31,0,0,1,3.68,5.31a1.2,1.2,0,0,1-.5,0c-.32,0-.43-.25-.31-.55C2.92,4.64,3,4.52,3.06,4.39Z"/><path d="M18.85,18.55a4.23,4.23,0,0,1,.31-.38.31.31,0,0,1,.53,0,1.73,1.73,0,0,1,.3.68,2.24,2.24,0,0,1-.52,1.77.25.25,0,0,1-.2.06A2.24,2.24,0,0,1,18,19.27a1.52,1.52,0,0,1,0-.6c0-.3.24-.41.52-.32A3.73,3.73,0,0,1,18.85,18.55Z"/><path d="M35.75,20.33l.33.24c.26.23.26.47,0,.64a1.59,1.59,0,0,1-.62.25A2.35,2.35,0,0,1,33.65,21c-.08-.06-.12-.12-.06-.23a2.31,2.31,0,0,1,1.54-1.3,1.2,1.2,0,0,1,.5,0,.36.36,0,0,1,.31.55A3.24,3.24,0,0,1,35.75,20.33Z"/><path d="M20,6.17a2.75,2.75,0,0,1-.19.28c-.27.32-.51.3-.74,0a1.62,1.62,0,0,1-.19-1.18,2.46,2.46,0,0,1,.51-1.14A.15.15,0,0,1,19.57,4a2.25,2.25,0,0,1,1.28,1.45,1.73,1.73,0,0,1,0,.6.34.34,0,0,1-.51.3C20.23,6.32,20.1,6.24,20,6.17Z"/><path d="M6.16,23.4a4.2,4.2,0,0,1-.3.38.34.34,0,0,1-.56,0A1.44,1.44,0,0,1,5,22.62a2.35,2.35,0,0,1,.54-1.31.25.25,0,0,1,.2-.06,2.25,2.25,0,0,1,1.33,1.56,1,1,0,0,1,0,.46c-.06.35-.25.45-.58.31A2.21,2.21,0,0,1,6.16,23.4Z"/><path d="M12.58,3.93a2.35,2.35,0,0,1-1.47-1.69s0,0,0,0c0-.25,0-.52.19-.68s.44,0,.65.12l.11.07c.08-.12.16-.24.25-.35a.37.37,0,0,1,.64,0,1.38,1.38,0,0,1,.27.81A2.49,2.49,0,0,1,12.58,3.93Z"/><path d="M33.06,1.72a3.38,3.38,0,0,1,.27-.36.35.35,0,0,1,.59,0,1.42,1.42,0,0,1,.29,1.12,2.35,2.35,0,0,1-.54,1.31.23.23,0,0,1-.19.06,2.24,2.24,0,0,1-1.34-1.56,1,1,0,0,1,0-.45c.06-.36.26-.46.6-.31A3.48,3.48,0,0,1,33.06,1.72Z"/><path d="M26.64,21.19a2.35,2.35,0,0,1,1.44,1.61,1.11,1.11,0,0,1,0,.48c-.06.34-.25.43-.57.3a2.94,2.94,0,0,1-.35-.18c-.07.1-.13.2-.21.3-.24.29-.49.28-.7,0a1.59,1.59,0,0,1-.2-1.29A2.39,2.39,0,0,1,26.64,21.19Z"/><path d="M12.05,18.76c.08-.12.15-.22.23-.32.23-.27.45-.26.66,0a1.52,1.52,0,0,1,.26,1.13,2.41,2.41,0,0,1-.54,1.27.21.21,0,0,1-.2,0,2.25,2.25,0,0,1-1.34-1.58,1.13,1.13,0,0,1,0-.41c.06-.37.26-.48.61-.33C11.84,18.63,11.94,18.7,12.05,18.76Z"/><path d="M27.16,6.36a2.6,2.6,0,0,1-.27.36.34.34,0,0,1-.59,0A1.51,1.51,0,0,1,26,5.52a2.32,2.32,0,0,1,.54-1.24s.15-.09.19-.06A2.24,2.24,0,0,1,28.09,5.8a1,1,0,0,1,0,.39c-.07.4-.28.51-.65.33A2.09,2.09,0,0,1,27.16,6.36Z"/><path d="M33.06,18.75a3,3,0,0,1,.26-.34.36.36,0,0,1,.61,0,1.46,1.46,0,0,1,.28,1.12,2.35,2.35,0,0,1-.54,1.31.21.21,0,0,1-.2,0,2.22,2.22,0,0,1-1.33-1.54,1.2,1.2,0,0,1,0-.5c.06-.32.25-.41.56-.29Z"/><path d="M33.49,4.08A2.34,2.34,0,0,1,31.91,5.5a1.42,1.42,0,0,1-.58,0c-.27,0-.35-.23-.27-.49l.1-.21.11-.19c-.13-.1-.26-.19-.37-.29a.35.35,0,0,1,0-.58,1.64,1.64,0,0,1,1.27-.27A2.44,2.44,0,0,1,33.49,4.08Z"/><path d="M34.17,23.4a4.2,4.2,0,0,1-.3.38.33.33,0,0,1-.55,0,1.27,1.27,0,0,1-.32-.87,2.47,2.47,0,0,1,.63-1.68,2.17,2.17,0,0,1,1.48,1.88c0,.52-.28.68-.74.43Z"/><path d="M7.94,20.52a3.17,3.17,0,0,1,.39.32.3.3,0,0,1,0,.52,1.76,1.76,0,0,1-.64.29,2.36,2.36,0,0,1-1.93-.59,2.17,2.17,0,0,1,1.91-1.47c.52,0,.67.28.42.73Z"/><path d="M36,3.5l.34.24a.37.37,0,0,1,0,.64,1.61,1.61,0,0,1-1.19.25,2.46,2.46,0,0,1-1.21-.51.16.16,0,0,1-.07-.24A2.31,2.31,0,0,1,35.26,2.6a1.61,1.61,0,0,1,.58,0c.3,0,.42.25.3.54A3.36,3.36,0,0,1,36,3.5Z"/><path d="M5.05,1.71c.09-.11.17-.24.27-.34s.4-.21.6,0a1.44,1.44,0,0,1,.29,1,2.47,2.47,0,0,1-.54,1.42c-.06.08-.11.12-.22.07A2.36,2.36,0,0,1,4.13,2.34a1.42,1.42,0,0,1,0-.58c0-.24.2-.32.44-.25A2.67,2.67,0,0,1,5.05,1.71Z"/><path d="M12.48,4.08a2.31,2.31,0,0,1-1.57,1.41,1.26,1.26,0,0,1-.58,0c-.28,0-.37-.23-.27-.5s.13-.27.2-.4a3.3,3.3,0,0,1-.3-.22c-.29-.24-.28-.47,0-.68a1.65,1.65,0,0,1,1.22-.22A2.39,2.39,0,0,1,12.48,4.08Z"/><path d="M24.26,4.59a3.86,3.86,0,0,1-.38-.3.31.31,0,0,1,0-.53,1.71,1.71,0,0,1,.68-.29A2.32,2.32,0,0,1,26.36,4c.08.06.14.12.07.24A2.29,2.29,0,0,1,24.9,5.5a1.53,1.53,0,0,1-.6,0c-.24,0-.32-.21-.24-.44A3,3,0,0,1,24.26,4.59Z"/><path d="M26.06,1.71c.1-.13.19-.26.29-.37a.33.33,0,0,1,.55,0,1.42,1.42,0,0,1,.32,1,2.49,2.49,0,0,1-.54,1.45c-.06.07-.11.12-.22.07a2.29,2.29,0,0,1-1.31-1.52,1.35,1.35,0,0,1,0-.6c0-.24.2-.32.44-.25A2.67,2.67,0,0,1,26.06,1.71Z"/><path d="M26.74,21.06a2.17,2.17,0,0,1,1.91-1.47c.51,0,.67.28.41.73a1.06,1.06,0,0,1-.12.2c.13.1.26.18.37.28a.35.35,0,0,1,0,.59,1.53,1.53,0,0,1-1.22.27A2.43,2.43,0,0,1,26.74,21.06Z"/><path d="M12.63,21.19a2.36,2.36,0,0,1,1.44,1.59,1.31,1.31,0,0,1,0,.59c0,.23-.19.31-.42.25a4.1,4.1,0,0,1-.48-.21c-.08.1-.15.22-.24.32-.23.26-.47.26-.65,0A1.92,1.92,0,0,1,12,23,2.35,2.35,0,0,1,12.63,21.19Z"/><path d="M7.94,3.49a3.76,3.76,0,0,1,.36.28c.22.2.22.43,0,.58a2,2,0,0,1-.7.28,2.35,2.35,0,0,1-1.74-.52.16.16,0,0,1-.06-.23A2.3,2.3,0,0,1,7.24,2.61a1.47,1.47,0,0,1,.59,0c.3,0,.41.24.3.53A3.37,3.37,0,0,1,7.94,3.49Z"/><path d="M14.94,3.5a2.93,2.93,0,0,1,.34.24.37.37,0,0,1,0,.64,1.61,1.61,0,0,1-1.19.25,2.46,2.46,0,0,1-1.21-.51c-.1-.07-.13-.13-.07-.24A2.31,2.31,0,0,1,14.25,2.6a1.81,1.81,0,0,1,.57,0,.37.37,0,0,1,.32.55A3.48,3.48,0,0,1,14.94,3.5Z"/><path d="M28.94,3.49c.13.1.26.18.37.28a.35.35,0,0,1,0,.59,1.51,1.51,0,0,1-1.2.27A2.43,2.43,0,0,1,26.74,4a2.16,2.16,0,0,1,2-1.46c.47,0,.61.27.4.69C29.05,3.33,29,3.4,28.94,3.49Z"/><path d="M34.17,6.37c-.1.13-.18.25-.28.36a.36.36,0,0,1-.6,0A1.41,1.41,0,0,1,33,5.77a2.38,2.38,0,0,1,.55-1.49.2.2,0,0,1,.2-.06,2.25,2.25,0,0,1,1.33,1.52,1.2,1.2,0,0,1,0,.5c-.05.33-.25.44-.56.31C34.4,6.5,34.29,6.43,34.17,6.37Z"/><path d="M6.15,6.37c-.08.11-.16.23-.25.34a.36.36,0,0,1-.62,0A1.46,1.46,0,0,1,5,5.57a2.54,2.54,0,0,1,.53-1.29c.07-.09.12-.12.23-.07A2.31,2.31,0,0,1,7.07,5.77a1.11,1.11,0,0,1,0,.48q-.09.5-.57.3C6.38,6.5,6.27,6.43,6.15,6.37Z"/><path d="M3.26,21.63a3.75,3.75,0,0,1-.36-.27.36.36,0,0,1,0-.6,1.53,1.53,0,0,1,1.24-.26A2.48,2.48,0,0,1,5.33,21a.19.19,0,0,1,.08.29,2.32,2.32,0,0,1-1.49,1.26,1.51,1.51,0,0,1-.56,0,.36.36,0,0,1-.3-.53A3.48,3.48,0,0,1,3.26,21.63Z"/><path d="M31.28,21.62l-.19-.12c-.46-.3-.45-.65.06-.86a2.4,2.4,0,0,1,.88-.15,2.3,2.3,0,0,1,1.45.6,2.18,2.18,0,0,1-1.92,1.48c-.51,0-.65-.28-.41-.73Z"/><path d="M15,20.54c.12.08.24.16.35.25s.22.44,0,.6a1.81,1.81,0,0,1-.66.27,2.38,2.38,0,0,1-1.76-.5c-.09-.07-.13-.13-.07-.25a2.3,2.3,0,0,1,1.51-1.28,1.49,1.49,0,0,1,.63,0c.23,0,.31.2.24.43A4.84,4.84,0,0,1,15,20.54Z"/><path d="M26.05,18.75c.11-.14.2-.27.3-.38a.34.34,0,0,1,.55,0,1.41,1.41,0,0,1,.32,1,2.53,2.53,0,0,1-.52,1.4.18.18,0,0,1-.28.07,2.3,2.3,0,0,1-1.27-1.47,1.4,1.4,0,0,1,0-.54c0-.32.25-.43.55-.32C25.81,18.61,25.93,18.69,26.05,18.75Z"/><path d="M13.15,6.37a2.88,2.88,0,0,1-.26.35.36.36,0,0,1-.61,0,1.37,1.37,0,0,1-.28-1,2.39,2.39,0,0,1,.52-1.4.18.18,0,0,1,.28-.07,2.32,2.32,0,0,1,1.27,1.5,1.3,1.3,0,0,1,0,.52c0,.31-.25.42-.55.31C13.4,6.51,13.28,6.43,13.15,6.37Z"/><path d="M5,18.75c.11-.13.2-.27.3-.37a.33.33,0,0,1,.55,0,1.34,1.34,0,0,1,.32,1,2.52,2.52,0,0,1-.53,1.44c-.06.08-.11.13-.23.07a2.32,2.32,0,0,1-1.32-1.53,1.4,1.4,0,0,1,0-.54.35.35,0,0,1,.52-.28A3.54,3.54,0,0,1,5,18.75Z"/><path d="M10.27,21.63a2.92,2.92,0,0,1-.38-.29.33.33,0,0,1,0-.56,1.5,1.5,0,0,1,1.22-.29,2.49,2.49,0,0,1,1.34.6,2.16,2.16,0,0,1-2,1.47c-.47,0-.61-.27-.4-.68A2.36,2.36,0,0,1,10.27,21.63Z"/><path d="M17.26,21.62a4,4,0,0,1-.33-.24.37.37,0,0,1,0-.64,1.53,1.53,0,0,1,1.21-.24,2.54,2.54,0,0,1,1.21.51.16.16,0,0,1,.05.23,2.33,2.33,0,0,1-1.5,1.29,1.67,1.67,0,0,1-.63,0,.31.31,0,0,1-.24-.46A4.28,4.28,0,0,1,17.26,21.62Z"/><path d="M24.27,21.63l-.33-.24a.37.37,0,0,1,0-.65,1.69,1.69,0,0,1,1.35-.22,2.72,2.72,0,0,1,1.05.48c.08.07.12.12.06.23a2.25,2.25,0,0,1-1.52,1.3,1.35,1.35,0,0,1-.6,0c-.25-.05-.32-.2-.26-.44a1.22,1.22,0,0,1,.1-.24C24.18,21.77,24.23,21.71,24.27,21.63Z"/><path d="M22,3.5c.12.09.25.17.36.27a.35.35,0,0,1,0,.58,1.58,1.58,0,0,1-1.24.28,2.57,2.57,0,0,1-1.21-.52c-.09-.06-.12-.12-.06-.22a2.27,2.27,0,0,1,1.5-1.29,1.49,1.49,0,0,1,.63,0c.25,0,.33.22.24.46A4.28,4.28,0,0,1,22,3.5Z"/><path d="M19.06,1.72l.17-.25c.27-.36.54-.35.79.05a1.68,1.68,0,0,1,.17,1.12,2.53,2.53,0,0,1-.59,1.27,2.14,2.14,0,0,1-1.49-2c.07-.39.27-.51.63-.35Z"/><path d="M22,20.54a2.88,2.88,0,0,1,.35.26.35.35,0,0,1,0,.59,1.58,1.58,0,0,1-1.28.26,2.34,2.34,0,0,1-1.15-.5c-.08,0-.14-.1-.08-.22a2.32,2.32,0,0,1,1.54-1.31,1.52,1.52,0,0,1,.6,0c.25.05.33.22.24.46S22,20.38,22,20.54Z"/><path d="M17.27,4.6c-.14-.11-.28-.2-.4-.31a.32.32,0,0,1,0-.51,2,2,0,0,1,.6-.3,2.33,2.33,0,0,1,2,.61A2.32,2.32,0,0,1,17.89,5.5a1.35,1.35,0,0,1-.6,0c-.24-.05-.31-.22-.24-.45a1.6,1.6,0,0,1,.1-.23Z"/><path d="M20.17,23.4c-.12.14-.21.28-.32.39a.31.31,0,0,1-.53,0,1.76,1.76,0,0,1-.29-.64,2.34,2.34,0,0,1,.59-1.91,2.27,2.27,0,0,1,1.48,1.71c0,.24,0,.51-.18.66s-.46,0-.66-.13Z"/><path d="M3.26,4.59a3.38,3.38,0,0,1-.36-.27c-.21-.2-.21-.43,0-.58a1.53,1.53,0,0,1,.63-.27,2.34,2.34,0,0,1,1.8.5.16.16,0,0,1,.07.23A2.36,2.36,0,0,1,3.88,5.51a1.4,1.4,0,0,1-.5,0A.36.36,0,0,1,3.07,5C3.12,4.84,3.19,4.72,3.26,4.59Z"/><path d="M19.05,18.75a4.23,4.23,0,0,1,.31-.38.32.32,0,0,1,.53,0,1.82,1.82,0,0,1,.29.69,2.24,2.24,0,0,1-.51,1.77.21.21,0,0,1-.2,0,2.21,2.21,0,0,1-1.3-1.43,1.56,1.56,0,0,1,0-.61.35.35,0,0,1,.52-.31A3.73,3.73,0,0,1,19.05,18.75Z"/><path d="M36,20.53l.33.24c.26.23.25.47,0,.64a1.65,1.65,0,0,1-.62.25,2.35,2.35,0,0,1-1.78-.51c-.08-.06-.12-.12-.06-.23a2.28,2.28,0,0,1,1.54-1.3,1.2,1.2,0,0,1,.5,0,.36.36,0,0,1,.31.55C36.09,20.28,36,20.4,36,20.53Z"/><path d="M20.15,6.37c-.07.09-.12.19-.19.28-.27.32-.51.3-.74-.05A1.58,1.58,0,0,1,19,5.42a2.49,2.49,0,0,1,.51-1.15.14.14,0,0,1,.22,0,2.27,2.27,0,0,1,1.29,1.45,1.72,1.72,0,0,1,0,.6.35.35,0,0,1-.51.3C20.43,6.52,20.3,6.44,20.15,6.37Z"/></g><g class="cls-3"><path d="M5.82,23.06c-.11.13-.19.27-.3.38a.34.34,0,0,1-.56,0,1.44,1.44,0,0,1-.3-1.13A2.35,2.35,0,0,1,5.2,21a.25.25,0,0,1,.2-.06,2.25,2.25,0,0,1,1.33,1.56,1,1,0,0,1,0,.46c-.06.35-.26.45-.58.31A2.21,2.21,0,0,1,5.82,23.06Z"/><path d="M12.24,3.59A2.35,2.35,0,0,1,10.77,1.9s0,0,0,0c0-.25,0-.52.19-.68s.44,0,.65.12l.11.07c.08-.12.16-.24.25-.35a.37.37,0,0,1,.64,0,1.38,1.38,0,0,1,.27.81A2.49,2.49,0,0,1,12.24,3.59Z"/><path d="M32.72,1.38A3.38,3.38,0,0,1,33,1a.35.35,0,0,1,.59,0,1.42,1.42,0,0,1,.29,1.12,2.35,2.35,0,0,1-.54,1.31.23.23,0,0,1-.19.06A2.24,2.24,0,0,1,31.8,2a1,1,0,0,1,0-.45c.06-.36.26-.46.6-.31A3.48,3.48,0,0,1,32.72,1.38Z"/><path d="M26.3,20.85a2.35,2.35,0,0,1,1.44,1.61,1.29,1.29,0,0,1,0,.48c-.06.34-.25.43-.57.3a2.94,2.94,0,0,1-.35-.18c-.07.1-.13.2-.21.3-.24.29-.49.28-.7,0a1.61,1.61,0,0,1-.2-1.3A2.4,2.4,0,0,1,26.3,20.85Z"/><path d="M11.71,18.42c.08-.12.15-.22.23-.32.23-.27.45-.26.66,0a1.52,1.52,0,0,1,.26,1.13,2.41,2.41,0,0,1-.54,1.27.21.21,0,0,1-.2,0A2.25,2.25,0,0,1,10.78,19a1.13,1.13,0,0,1,0-.41c.06-.37.26-.48.61-.33C11.5,18.29,11.6,18.36,11.71,18.42Z"/><path d="M26.82,6a2.6,2.6,0,0,1-.27.36.34.34,0,0,1-.59,0,1.51,1.51,0,0,1-.29-1.18,2.32,2.32,0,0,1,.54-1.24s.15-.09.19-.06a2.24,2.24,0,0,1,1.35,1.58,1,1,0,0,1,0,.39c-.07.4-.28.51-.65.33A2.09,2.09,0,0,1,26.82,6Z"/><path d="M32.72,18.41a3,3,0,0,1,.26-.34.36.36,0,0,1,.61,0,1.46,1.46,0,0,1,.28,1.12,2.35,2.35,0,0,1-.54,1.31.21.21,0,0,1-.2,0A2.24,2.24,0,0,1,31.8,19a1.2,1.2,0,0,1,0-.5c.06-.32.25-.41.56-.29Z"/><path d="M33.15,3.74a2.34,2.34,0,0,1-1.58,1.42,1.42,1.42,0,0,1-.58,0c-.27-.05-.35-.23-.27-.49l.1-.21.11-.19c-.13-.1-.26-.19-.37-.29a.35.35,0,0,1,0-.58,1.64,1.64,0,0,1,1.27-.27A2.44,2.44,0,0,1,33.15,3.74Z"/><path d="M33.83,23.06a4.2,4.2,0,0,1-.3.38.33.33,0,0,1-.55,0,1.27,1.27,0,0,1-.32-.87,2.47,2.47,0,0,1,.63-1.68,2.17,2.17,0,0,1,1.48,1.88c0,.52-.28.68-.74.43Z"/><path d="M7.6,20.18A3.17,3.17,0,0,1,8,20.5.3.3,0,0,1,8,21a1.76,1.76,0,0,1-.64.29,2.36,2.36,0,0,1-1.93-.59A2.17,2.17,0,0,1,7.3,19.25c.52,0,.67.28.42.73Z"/><path d="M35.61,3.16A2.93,2.93,0,0,1,36,3.4a.37.37,0,0,1,0,.64,1.61,1.61,0,0,1-1.19.25,2.46,2.46,0,0,1-1.21-.51.16.16,0,0,1-.07-.24,2.31,2.31,0,0,1,1.47-1.28,1.61,1.61,0,0,1,.58,0c.3,0,.42.25.3.54A3.36,3.36,0,0,1,35.61,3.16Z"/><path d="M4.71,1.37c.09-.11.17-.24.27-.34s.4-.21.6,0a1.44,1.44,0,0,1,.29,1,2.47,2.47,0,0,1-.54,1.42c-.06.08-.11.12-.22.07A2.36,2.36,0,0,1,3.79,2a1.42,1.42,0,0,1,0-.58c0-.24.2-.32.44-.25A2.67,2.67,0,0,1,4.71,1.37Z"/><path d="M12.14,3.74a2.31,2.31,0,0,1-1.57,1.41,1.26,1.26,0,0,1-.58,0c-.28-.05-.37-.23-.27-.5s.13-.27.2-.4A3.3,3.3,0,0,1,9.62,4c-.29-.24-.28-.47,0-.68a1.65,1.65,0,0,1,1.22-.22A2.39,2.39,0,0,1,12.14,3.74Z"/><path d="M23.92,4.25a3.86,3.86,0,0,1-.38-.3.31.31,0,0,1,0-.53,1.71,1.71,0,0,1,.68-.29A2.32,2.32,0,0,1,26,3.62c.08.06.14.12.07.24a2.29,2.29,0,0,1-1.53,1.3,1.52,1.52,0,0,1-.6,0c-.24,0-.32-.21-.24-.44A3,3,0,0,1,23.92,4.25Z"/><path d="M25.72,1.37c.1-.13.19-.26.29-.37a.33.33,0,0,1,.55,0,1.42,1.42,0,0,1,.32,1,2.49,2.49,0,0,1-.54,1.45c-.06.07-.11.12-.22.07A2.29,2.29,0,0,1,24.81,2a1.35,1.35,0,0,1,0-.6c0-.24.2-.32.44-.25A3.05,3.05,0,0,1,25.72,1.37Z"/><path d="M26.4,20.72a2.17,2.17,0,0,1,1.91-1.47c.51,0,.67.28.41.73a1.06,1.06,0,0,1-.12.2c.13.1.26.18.37.28a.35.35,0,0,1,0,.59,1.53,1.53,0,0,1-1.22.27A2.43,2.43,0,0,1,26.4,20.72Z"/><path d="M12.29,20.85a2.36,2.36,0,0,1,1.44,1.59,1.31,1.31,0,0,1,0,.59c0,.23-.19.31-.42.25a4.1,4.1,0,0,1-.48-.21c-.08.1-.15.22-.24.32-.23.26-.47.26-.65,0a1.92,1.92,0,0,1-.25-.73A2.35,2.35,0,0,1,12.29,20.85Z"/><path d="M7.6,3.15A3.76,3.76,0,0,1,8,3.43c.22.2.22.43,0,.58a1.82,1.82,0,0,1-.7.27,2.3,2.3,0,0,1-1.74-.51.16.16,0,0,1-.06-.23A2.34,2.34,0,0,1,6.9,2.26a1.67,1.67,0,0,1,.59,0c.3,0,.41.24.3.53A3.37,3.37,0,0,1,7.6,3.15Z"/><path d="M14.6,3.16a2.93,2.93,0,0,1,.34.24.37.37,0,0,1,0,.64,1.61,1.61,0,0,1-1.19.25,2.46,2.46,0,0,1-1.21-.51c-.1-.07-.13-.13-.07-.24a2.31,2.31,0,0,1,1.47-1.28,1.81,1.81,0,0,1,.57,0,.37.37,0,0,1,.32.55A3.48,3.48,0,0,1,14.6,3.16Z"/><path d="M28.6,3.15c.13.1.26.18.37.28a.35.35,0,0,1,0,.59,1.51,1.51,0,0,1-1.2.27,2.43,2.43,0,0,1-1.34-.61,2.16,2.16,0,0,1,2-1.46c.47,0,.61.27.4.69C28.7,3,28.65,3.06,28.6,3.15Z"/><path d="M33.83,6c-.1.13-.18.25-.28.36a.36.36,0,0,1-.6,0,1.41,1.41,0,0,1-.29-.93,2.32,2.32,0,0,1,.55-1.49.2.2,0,0,1,.2-.06A2.25,2.25,0,0,1,34.74,5.4a1.2,1.2,0,0,1,0,.5c0,.33-.25.44-.56.31C34.06,6.16,34,6.09,33.83,6Z"/><path d="M5.81,6c-.08.11-.16.23-.25.34a.36.36,0,0,1-.62,0,1.46,1.46,0,0,1-.28-1.12,2.54,2.54,0,0,1,.53-1.29.16.16,0,0,1,.23-.07A2.31,2.31,0,0,1,6.73,5.43a1.11,1.11,0,0,1,0,.48q-.09.5-.57.3C6,6.16,5.93,6.09,5.81,6Z"/><path d="M2.92,21.29A3.75,3.75,0,0,1,2.56,21a.36.36,0,0,1,0-.6,1.53,1.53,0,0,1,1.24-.26A2.48,2.48,0,0,1,5,20.64a.19.19,0,0,1,.08.29,2.32,2.32,0,0,1-1.49,1.26,1.51,1.51,0,0,1-.56,0c-.3,0-.4-.25-.3-.53A3.48,3.48,0,0,1,2.92,21.29Z"/><path d="M30.94,21.28l-.19-.12c-.46-.3-.45-.65.06-.86a2.4,2.4,0,0,1,.88-.15,2.3,2.3,0,0,1,1.45.6,2.18,2.18,0,0,1-1.92,1.48c-.51,0-.65-.28-.41-.73Z"/><path d="M14.61,20.2c.12.08.24.16.35.25s.22.44,0,.6a1.81,1.81,0,0,1-.66.27,2.38,2.38,0,0,1-1.76-.5c-.09-.07-.13-.13-.07-.25A2.3,2.3,0,0,1,14,19.29a1.49,1.49,0,0,1,.63,0c.23,0,.31.2.24.43A4.84,4.84,0,0,1,14.61,20.2Z"/><path d="M25.71,18.41c.11-.14.2-.27.3-.38a.34.34,0,0,1,.55,0,1.36,1.36,0,0,1,.31,1,2.47,2.47,0,0,1-.51,1.4.18.18,0,0,1-.28.07,2.3,2.3,0,0,1-1.27-1.47,1.4,1.4,0,0,1,0-.54c0-.32.25-.43.55-.32C25.47,18.27,25.59,18.35,25.71,18.41Z"/><path d="M12.81,6a2.88,2.88,0,0,1-.26.35.36.36,0,0,1-.61,0,1.37,1.37,0,0,1-.28-1A2.39,2.39,0,0,1,12.18,4a.18.18,0,0,1,.28-.07,2.28,2.28,0,0,1,1.26,1.5,1.14,1.14,0,0,1,0,.52c0,.31-.25.42-.55.31C13.06,6.17,12.94,6.09,12.81,6Z"/><path d="M4.7,18.41A4.33,4.33,0,0,1,5,18a.33.33,0,0,1,.55,0,1.34,1.34,0,0,1,.32,1,2.46,2.46,0,0,1-.54,1.44c-.06.08-.1.13-.22.07A2.32,2.32,0,0,1,3.79,19a1.4,1.4,0,0,1,0-.54.34.34,0,0,1,.52-.28A3.54,3.54,0,0,1,4.7,18.41Z"/><path d="M9.93,21.29A2.92,2.92,0,0,1,9.55,21a.33.33,0,0,1,0-.56,1.49,1.49,0,0,1,1.22-.29,2.49,2.49,0,0,1,1.34.6,2.16,2.16,0,0,1-2,1.47c-.47,0-.61-.27-.4-.68A2.36,2.36,0,0,1,9.93,21.29Z"/><path d="M16.92,21.28a4,4,0,0,1-.33-.24.37.37,0,0,1,0-.64,1.53,1.53,0,0,1,1.21-.24,2.54,2.54,0,0,1,1.21.51.16.16,0,0,1,.05.23,2.33,2.33,0,0,1-1.5,1.29,1.67,1.67,0,0,1-.63,0,.31.31,0,0,1-.24-.46A4.28,4.28,0,0,1,16.92,21.28Z"/><path d="M23.93,21.29l-.33-.24a.37.37,0,0,1,0-.65A1.69,1.69,0,0,1,25,20.18a2.72,2.72,0,0,1,1.05.48c.08.07.12.12.06.23a2.25,2.25,0,0,1-1.52,1.3,1.35,1.35,0,0,1-.6,0c-.25-.05-.32-.2-.26-.44a1.22,1.22,0,0,1,.1-.24C23.84,21.43,23.89,21.37,23.93,21.29Z"/><path d="M21.61,3.16c.12.09.25.17.36.27A.35.35,0,0,1,22,4a1.58,1.58,0,0,1-1.24.28,2.57,2.57,0,0,1-1.21-.52c-.09-.06-.12-.12-.06-.22a2.25,2.25,0,0,1,1.5-1.29,1.49,1.49,0,0,1,.63,0,.31.31,0,0,1,.24.46A4.28,4.28,0,0,1,21.61,3.16Z"/><path d="M18.72,1.38l.17-.25c.27-.36.54-.35.79.05a1.68,1.68,0,0,1,.17,1.12,2.46,2.46,0,0,1-.59,1.26,2.12,2.12,0,0,1-1.49-2c.07-.39.27-.51.63-.35Z"/><path d="M21.61,20.2a2.88,2.88,0,0,1,.35.26.35.35,0,0,1,0,.59,1.58,1.58,0,0,1-1.28.26,2.34,2.34,0,0,1-1.15-.5c-.08,0-.14-.1-.08-.22A2.32,2.32,0,0,1,21,19.28a1.52,1.52,0,0,1,.6,0c.25.05.33.22.24.46S21.68,20,21.61,20.2Z"/><path d="M16.93,4.26c-.14-.11-.28-.2-.4-.31a.32.32,0,0,1,0-.51,2,2,0,0,1,.6-.3,2.33,2.33,0,0,1,2,.61,2.32,2.32,0,0,1-1.59,1.41,1.35,1.35,0,0,1-.6,0c-.24,0-.31-.22-.24-.45a1.6,1.6,0,0,1,.1-.23Z"/><path d="M19.83,23.06c-.12.14-.21.28-.32.39a.31.31,0,0,1-.53,0,1.76,1.76,0,0,1-.29-.64,2.34,2.34,0,0,1,.59-1.91,2.27,2.27,0,0,1,1.48,1.71c0,.24,0,.51-.18.66s-.46,0-.66-.13Z"/><path d="M2.92,4.25A3.38,3.38,0,0,1,2.56,4a.34.34,0,0,1,0-.59,1.65,1.65,0,0,1,.63-.26,2.34,2.34,0,0,1,1.8.5.16.16,0,0,1,.07.23,2.32,2.32,0,0,1-1.55,1.3,1.2,1.2,0,0,1-.5,0,.36.36,0,0,1-.31-.55C2.78,4.5,2.85,4.38,2.92,4.25Z"/><path d="M18.71,18.41A4.23,4.23,0,0,1,19,18a.32.32,0,0,1,.53,0,1.82,1.82,0,0,1,.29.69,2.24,2.24,0,0,1-.51,1.77.21.21,0,0,1-.2,0,2.24,2.24,0,0,1-1.31-1.43,1.78,1.78,0,0,1,0-.61.35.35,0,0,1,.52-.31A3.73,3.73,0,0,1,18.71,18.41Z"/><path d="M35.61,20.19l.33.24c.26.23.25.47,0,.64a1.65,1.65,0,0,1-.62.25,2.35,2.35,0,0,1-1.78-.51.16.16,0,0,1-.07-.23A2.32,2.32,0,0,1,35,19.28a1.2,1.2,0,0,1,.5,0,.36.36,0,0,1,.31.55C35.75,19.94,35.68,20.06,35.61,20.19Z"/><path d="M19.81,6c-.07.09-.12.19-.19.28-.27.32-.51.3-.74,0a1.58,1.58,0,0,1-.19-1.18,2.49,2.49,0,0,1,.51-1.15.15.15,0,0,1,.22-.06,2.31,2.31,0,0,1,1.29,1.46,1.72,1.72,0,0,1,0,.6.35.35,0,0,1-.51.3C20.09,6.18,20,6.1,19.81,6Z"/></g><path class="cls-4" d="M6,23.26a2.8,2.8,0,0,1-.29.37.33.33,0,0,1-.56,0,1.41,1.41,0,0,1-.3-1.13,2.35,2.35,0,0,1,.54-1.31.22.22,0,0,1,.2-.06,2.25,2.25,0,0,1,1.33,1.56,1.19,1.19,0,0,1,0,.46c-.06.35-.26.44-.58.31C6.24,23.39,6.13,23.32,6,23.26Z"/><path class="cls-4" d="M12.43,3.79A2.41,2.41,0,0,1,11,2.1v0c0-.25,0-.52.19-.68s.44,0,.64.12l.11.06c.09-.11.17-.24.26-.34a.36.36,0,0,1,.63,0,1.36,1.36,0,0,1,.28.8A2.5,2.5,0,0,1,12.43,3.79Z"/><path class="cls-4" d="M32.91,1.58c.1-.13.18-.25.28-.36a.35.35,0,0,1,.59,0,1.51,1.51,0,0,1,.29,1.12,2.35,2.35,0,0,1-.54,1.31.24.24,0,0,1-.19.06A2.24,2.24,0,0,1,32,2.17a1,1,0,0,1,0-.46c.06-.35.26-.45.6-.31C32.7,1.45,32.8,1.52,32.91,1.58Z"/><path class="cls-4" d="M26.5,21.05a2.35,2.35,0,0,1,1.44,1.61,1.29,1.29,0,0,1,0,.48q-.09.49-.57.3L27,23.26c-.07.09-.13.2-.21.29-.24.3-.49.29-.7,0a1.65,1.65,0,0,1-.21-1.3A2.51,2.51,0,0,1,26.5,21.05Z"/><path class="cls-4" d="M11.91,18.62a3,3,0,0,1,.23-.32.37.37,0,0,1,.66,0,1.52,1.52,0,0,1,.26,1.13,2.34,2.34,0,0,1-.54,1.26.22.22,0,0,1-.2.06A2.25,2.25,0,0,1,11,19.18a1,1,0,0,1,0-.42c.06-.37.26-.47.61-.32A2.58,2.58,0,0,1,11.91,18.62Z"/><path class="cls-4" d="M27,6.22a2.6,2.6,0,0,1-.27.36.35.35,0,0,1-.6,0,1.51,1.51,0,0,1-.28-1.18,2.38,2.38,0,0,1,.53-1.24.24.24,0,0,1,.2-.07A2.26,2.26,0,0,1,28,5.65a1.34,1.34,0,0,1,0,.4c-.07.4-.28.51-.65.33A2.09,2.09,0,0,1,27,6.22Z"/><path class="cls-4" d="M32.92,18.61a3,3,0,0,1,.26-.34.35.35,0,0,1,.6,0,1.46,1.46,0,0,1,.29,1.12,2.35,2.35,0,0,1-.54,1.31.24.24,0,0,1-.2.05A2.24,2.24,0,0,1,32,19.22a1.2,1.2,0,0,1,0-.5c.06-.32.25-.41.56-.29Z"/><path class="cls-4" d="M33.35,3.94a2.3,2.3,0,0,1-1.58,1.41,1.26,1.26,0,0,1-.58,0c-.27,0-.35-.23-.27-.49,0-.08.07-.14.1-.21l.11-.2c-.13-.1-.26-.18-.37-.28a.35.35,0,0,1,0-.58,1.58,1.58,0,0,1,1.26-.27A2.43,2.43,0,0,1,33.35,3.94Z"/><path class="cls-4" d="M34,23.26a4.2,4.2,0,0,1-.3.38.34.34,0,0,1-.55,0,1.27,1.27,0,0,1-.32-.87,2.46,2.46,0,0,1,.62-1.68A2.18,2.18,0,0,1,35,23c0,.52-.28.68-.74.43Z"/><path class="cls-4" d="M7.8,20.38a4.43,4.43,0,0,1,.39.31.32.32,0,0,1,0,.53,1.76,1.76,0,0,1-.64.29,2.36,2.36,0,0,1-1.93-.59A2.16,2.16,0,0,1,7.5,19.45c.52,0,.67.27.41.73A2,2,0,0,1,7.8,20.38Z"/><path class="cls-4" d="M35.81,3.35c.12.09.24.16.34.25a.37.37,0,0,1,0,.64,1.62,1.62,0,0,1-1.19.25A2.46,2.46,0,0,1,33.72,4c-.09-.07-.13-.13-.07-.24a2.26,2.26,0,0,1,1.47-1.28,1.61,1.61,0,0,1,.58,0A.36.36,0,0,1,36,3,3.37,3.37,0,0,1,35.81,3.35Z"/><path class="cls-4" d="M4.91,1.57a2.78,2.78,0,0,1,.26-.34c.21-.23.41-.21.61,0a1.43,1.43,0,0,1,.29,1,2.47,2.47,0,0,1-.54,1.42c-.06.08-.11.13-.22.07A2.32,2.32,0,0,1,4,2.2a1.42,1.42,0,0,1,0-.58c0-.24.2-.32.44-.25A2.67,2.67,0,0,1,4.91,1.57Z"/><path class="cls-4" d="M12.34,3.94a2.31,2.31,0,0,1-1.57,1.41,1.26,1.26,0,0,1-.58,0,.33.33,0,0,1-.27-.5,3.86,3.86,0,0,1,.2-.41,3.21,3.21,0,0,1-.3-.21c-.29-.24-.28-.47,0-.69a1.69,1.69,0,0,1,1.22-.22A2.48,2.48,0,0,1,12.34,3.94Z"/><path class="cls-4" d="M24.12,4.45a3.86,3.86,0,0,1-.38-.3.31.31,0,0,1,0-.53,1.71,1.71,0,0,1,.68-.29,2.32,2.32,0,0,1,1.77.49c.08.06.13.12.07.24a2.31,2.31,0,0,1-1.53,1.3,1.52,1.52,0,0,1-.6,0,.31.31,0,0,1-.25-.44A3.68,3.68,0,0,1,24.12,4.45Z"/><path class="cls-4" d="M25.92,1.56c.1-.12.18-.25.29-.36a.33.33,0,0,1,.55,0,1.35,1.35,0,0,1,.31,1,2.42,2.42,0,0,1-.53,1.44c-.06.08-.11.13-.22.07A2.25,2.25,0,0,1,25,2.22a1.51,1.51,0,0,1,0-.6c0-.24.21-.32.45-.25A4.47,4.47,0,0,1,25.92,1.56Z"/><path class="cls-4" d="M26.6,20.92a2.16,2.16,0,0,1,1.91-1.47c.51,0,.66.28.41.73a2.12,2.12,0,0,1-.12.2c.13.1.26.18.37.28a.35.35,0,0,1,0,.59,1.53,1.53,0,0,1-1.22.27A2.5,2.5,0,0,1,26.6,20.92Z"/><path class="cls-4" d="M12.49,21.05a2.34,2.34,0,0,1,1.44,1.59,1.41,1.41,0,0,1,0,.58c0,.24-.19.32-.42.25a2.86,2.86,0,0,1-.48-.2,3.65,3.65,0,0,1-.24.31c-.23.26-.47.27-.65,0a1.82,1.82,0,0,1-.25-.72A2.35,2.35,0,0,1,12.49,21.05Z"/><path class="cls-4" d="M7.8,3.35a3.76,3.76,0,0,1,.36.28c.21.2.21.43,0,.58a1.78,1.78,0,0,1-.69.27A2.34,2.34,0,0,1,5.69,4a.16.16,0,0,1-.06-.23A2.34,2.34,0,0,1,7.1,2.46a1.68,1.68,0,0,1,.59,0c.3,0,.41.25.3.54A3.37,3.37,0,0,1,7.8,3.35Z"/><path class="cls-4" d="M14.8,3.35c.12.09.24.16.34.25a.37.37,0,0,1,0,.64,1.62,1.62,0,0,1-1.19.25A2.46,2.46,0,0,1,12.71,4c-.1-.07-.13-.13-.07-.25a2.3,2.3,0,0,1,1.47-1.27,1.56,1.56,0,0,1,.57,0A.37.37,0,0,1,15,3,2.64,2.64,0,0,1,14.8,3.35Z"/><path class="cls-4" d="M28.8,3.35a3.75,3.75,0,0,1,.36.27.34.34,0,0,1,0,.59,1.51,1.51,0,0,1-1.2.28,2.4,2.4,0,0,1-1.34-.61,2.14,2.14,0,0,1,1.95-1.46c.47,0,.61.27.39.68C28.9,3.19,28.85,3.26,28.8,3.35Z"/><path class="cls-4" d="M34,6.23c-.09.12-.17.25-.27.36a.36.36,0,0,1-.6,0,1.41,1.41,0,0,1-.29-.93,2.37,2.37,0,0,1,.55-1.5.21.21,0,0,1,.2,0A2.24,2.24,0,0,1,34.93,5.6a1.2,1.2,0,0,1,0,.5c-.05.33-.26.43-.57.31C34.26,6.36,34.15,6.29,34,6.23Z"/><path class="cls-4" d="M6,6.22a3,3,0,0,1-.25.34.36.36,0,0,1-.62,0,1.46,1.46,0,0,1-.28-1.12,2.38,2.38,0,0,1,.53-1.29c.06-.09.12-.12.22-.07A2.32,2.32,0,0,1,6.93,5.63a1.11,1.11,0,0,1,0,.48q-.09.5-.57.3A3,3,0,0,1,6,6.22Z"/><path class="cls-4" d="M3.12,21.48a2.6,2.6,0,0,1-.36-.27.35.35,0,0,1,0-.59A1.55,1.55,0,0,1,4,20.36a2.48,2.48,0,0,1,1.16.48.19.19,0,0,1,.08.29,2.34,2.34,0,0,1-1.49,1.26,1.51,1.51,0,0,1-.56,0c-.3,0-.4-.25-.3-.53S3.05,21.62,3.12,21.48Z"/><path class="cls-4" d="M31.14,21.48,31,21.36c-.46-.31-.45-.65.06-.86a2.21,2.21,0,0,1,.88-.15,2.32,2.32,0,0,1,1.45.6,2.18,2.18,0,0,1-1.92,1.47c-.51,0-.66-.27-.41-.72C31,21.63,31.09,21.57,31.14,21.48Z"/><path class="cls-4" d="M14.81,20.4a3,3,0,0,1,.34.25c.23.21.23.44,0,.6a1.54,1.54,0,0,1-.65.26,2.3,2.3,0,0,1-1.76-.5.15.15,0,0,1-.07-.24,2.27,2.27,0,0,1,1.51-1.28,1.44,1.44,0,0,1,.62,0c.24,0,.31.2.25.43A4.84,4.84,0,0,1,14.81,20.4Z"/><path class="cls-4" d="M25.91,18.61a4.2,4.2,0,0,1,.3-.38.34.34,0,0,1,.55,0,1.36,1.36,0,0,1,.31,1,2.47,2.47,0,0,1-.51,1.4c-.09.11-.16.14-.28.07A2.32,2.32,0,0,1,25,19.28a1.46,1.46,0,0,1,0-.55c0-.31.25-.42.55-.31C25.67,18.47,25.79,18.55,25.91,18.61Z"/><path class="cls-4" d="M13,6.23c-.09.12-.17.24-.27.35a.35.35,0,0,1-.6,0,1.43,1.43,0,0,1-.29-1,2.56,2.56,0,0,1,.52-1.41c.09-.11.16-.13.28-.06a2.28,2.28,0,0,1,1.27,1.49,1.35,1.35,0,0,1,0,.53c0,.31-.25.42-.55.3C13.26,6.36,13.14,6.29,13,6.23Z"/><path class="cls-4" d="M4.9,18.61a4.2,4.2,0,0,1,.3-.38.34.34,0,0,1,.55,0,1.38,1.38,0,0,1,.32,1,2.48,2.48,0,0,1-.54,1.44c-.06.08-.11.13-.22.07A2.32,2.32,0,0,1,4,19.24a1.45,1.45,0,0,1,0-.55.35.35,0,0,1,.52-.28A2.38,2.38,0,0,1,4.9,18.61Z"/><path class="cls-4" d="M10.12,21.49a3.65,3.65,0,0,1-.37-.29.33.33,0,0,1,0-.56A1.48,1.48,0,0,1,11,20.35a2.52,2.52,0,0,1,1.34.6,2.16,2.16,0,0,1-1.95,1.47c-.47,0-.61-.27-.4-.68C10,21.65,10.07,21.58,10.12,21.49Z"/><path class="cls-4" d="M17.12,21.48a4,4,0,0,1-.33-.24.37.37,0,0,1,0-.64A1.57,1.57,0,0,1,18,20.35a2.58,2.58,0,0,1,1.2.52c.09.07.11.12.06.22a2.27,2.27,0,0,1-1.5,1.29,1.49,1.49,0,0,1-.63,0c-.25-.05-.33-.22-.24-.46A4.28,4.28,0,0,1,17.12,21.48Z"/><path class="cls-4" d="M24.13,21.49l-.33-.24a.37.37,0,0,1,0-.65,1.72,1.72,0,0,1,1.36-.22,2.58,2.58,0,0,1,1.05.48c.08.06.12.12.06.23a2.28,2.28,0,0,1-1.52,1.3,1.35,1.35,0,0,1-.6,0c-.25-.05-.32-.21-.26-.44a1,1,0,0,1,.1-.24A1.57,1.57,0,0,1,24.13,21.49Z"/><path class="cls-4" d="M21.81,3.35c.12.09.25.18.36.28a.35.35,0,0,1,0,.58,1.56,1.56,0,0,1-1.25.27A2.54,2.54,0,0,1,19.69,4c-.08-.07-.11-.12-.05-.23a2.3,2.3,0,0,1,1.5-1.29,1.62,1.62,0,0,1,.62,0,.31.31,0,0,1,.25.46A3.36,3.36,0,0,1,21.81,3.35Z"/><path class="cls-4" d="M18.92,1.58l.17-.25c.27-.36.54-.35.78,0a1.63,1.63,0,0,1,.18,1.12,2.39,2.39,0,0,1-.6,1.26,2.13,2.13,0,0,1-1.48-2c.07-.39.27-.51.63-.35Z"/><path class="cls-4" d="M21.81,20.39l.35.26a.36.36,0,0,1,0,.6,1.58,1.58,0,0,1-1.28.26,2.34,2.34,0,0,1-1.15-.5c-.08-.05-.14-.1-.08-.22a2.32,2.32,0,0,1,1.54-1.31,1.52,1.52,0,0,1,.6,0c.25.05.33.22.24.46S21.88,20.24,21.81,20.39Z"/><path class="cls-4" d="M17.13,4.46a3.48,3.48,0,0,1-.4-.31.32.32,0,0,1,0-.52,2,2,0,0,1,.6-.29,2.33,2.33,0,0,1,2,.61,2.32,2.32,0,0,1-1.59,1.41,1.52,1.52,0,0,1-.6,0c-.24,0-.31-.22-.24-.45a1.6,1.6,0,0,1,.1-.23A1.32,1.32,0,0,1,17.13,4.46Z"/><path class="cls-4" d="M20,23.26a4.43,4.43,0,0,1-.31.39.32.32,0,0,1-.53,0,1.61,1.61,0,0,1-.29-.64,2.31,2.31,0,0,1,.59-1.91A2.25,2.25,0,0,1,21,22.78a.67.67,0,0,1-.18.66c-.24.15-.46,0-.66-.13Z"/><path class="cls-4" d="M3.12,4.45a2.6,2.6,0,0,1-.36-.27c-.22-.2-.22-.43,0-.59a1.65,1.65,0,0,1,.63-.26,2.35,2.35,0,0,1,1.8.5c.08.06.12.12.06.23a2.31,2.31,0,0,1-1.54,1.3,1.2,1.2,0,0,1-.5,0,.36.36,0,0,1-.31-.55A3.24,3.24,0,0,1,3.12,4.45Z"/><path class="cls-4" d="M18.91,18.61a4.43,4.43,0,0,1,.31-.39.32.32,0,0,1,.53,0,1.82,1.82,0,0,1,.29.69,2.28,2.28,0,0,1-.51,1.77s-.16.08-.2.05A2.27,2.27,0,0,1,18,19.33a1.78,1.78,0,0,1,0-.61.35.35,0,0,1,.52-.31A3.73,3.73,0,0,1,18.91,18.61Z"/><path class="cls-4" d="M35.81,20.39a2.8,2.8,0,0,1,.33.24c.25.23.25.46,0,.64a1.63,1.63,0,0,1-.62.24,2.34,2.34,0,0,1-1.78-.5.16.16,0,0,1-.07-.23,2.31,2.31,0,0,1,1.55-1.31,1.4,1.4,0,0,1,.5,0c.32,0,.43.25.31.55C36,20.14,35.88,20.26,35.81,20.39Z"/><path class="cls-4" d="M20,6.23c-.07.09-.13.19-.2.27-.26.33-.5.31-.73,0a1.59,1.59,0,0,1-.19-1.18,2.47,2.47,0,0,1,.5-1.15c.07-.08.13-.11.23-.06a2.34,2.34,0,0,1,1.29,1.46,1.72,1.72,0,0,1,0,.6.35.35,0,0,1-.51.3C20.29,6.38,20.16,6.3,20,6.23Z"/></g></g></svg>