<svg xmlns="http://www.w3.org/2000/svg" viewBox="0 0 38.55 24.66"><defs><style>.cls-1{isolation:isolate;}.cls-2{opacity:0.15;}.cls-2,.cls-3{mix-blend-mode:multiply;}.cls-4{fill:#fff;}</style></defs><title>convert-CUSTOMIZE-SVG-03</title><g class="cls-1"><g id="Layer_1" data-name="Layer 1"><g class="cls-2"><path d="M26.7,2.42a3.07,3.07,0,0,1,1.24-.61A1,1,0,0,1,29,2.28a1.63,1.63,0,0,1,.13,1.5A3.5,3.5,0,0,1,27.9,5.41c-.35.25-.72.46-1.09.68a.31.31,0,0,1-.23,0,5.27,5.27,0,0,1-2-1.55,2.71,2.71,0,0,1-.53-1.29A1.27,1.27,0,0,1,25,1.81a1.85,1.85,0,0,1,.8.13A7.75,7.75,0,0,1,26.7,2.42Z"/><path d="M12.15,2.43a2.85,2.85,0,0,1,1.27-.62,1,1,0,0,1,1,.39,1.57,1.57,0,0,1,.16,1.64,3.29,3.29,0,0,1-1.14,1.49c-.37.28-.78.51-1.17.75a.27.27,0,0,1-.23,0A5,5,0,0,1,10,4.44,2.43,2.43,0,0,1,9.52,3a1.2,1.2,0,0,1,1-1.23,1.85,1.85,0,0,1,.8.13A7.75,7.75,0,0,1,12.15,2.43Z"/><path d="M26.64,19.13a8.85,8.85,0,0,1,1.07-.53,1.15,1.15,0,0,1,1.57,1.16,2.57,2.57,0,0,1-.63,1.64,5.5,5.5,0,0,1-1.86,1.42.3.3,0,0,1-.21,0,5.28,5.28,0,0,1-2-1.53A2.75,2.75,0,0,1,24.07,20a1.34,1.34,0,0,1,.84-1.43,1.38,1.38,0,0,1,.83.08,3.71,3.71,0,0,1,.49.24C26.39,19,26.53,19.06,26.64,19.13Z"/><path d="M12.11,19.14c.28-.16.54-.33.83-.46a1.76,1.76,0,0,1,.54-.16A1.21,1.21,0,0,1,14.72,20a3,3,0,0,1-1.19,2,13.87,13.87,0,0,1-1.27.83.27.27,0,0,1-.23,0,5.09,5.09,0,0,1-2-1.6,2.44,2.44,0,0,1-.49-1.46,1.2,1.2,0,0,1,.84-1.2,2.24,2.24,0,0,1,.81.06,2,2,0,0,1,.49.23Z"/><path d="M19.38,22.46a1.85,1.85,0,1,1,1.88-1.8A1.85,1.85,0,0,1,19.38,22.46Z"/><path d="M4.84,22.46a1.85,1.85,0,1,1,1.88-1.84A1.85,1.85,0,0,1,4.84,22.46Z"/><path d="M33.94,22.46a1.85,1.85,0,0,1-1.86-1.85,1.87,1.87,0,1,1,1.86,1.85Z"/><path d="M34,2.05A1.85,1.85,0,1,1,32.08,3.9,1.88,1.88,0,0,1,34,2.05Z"/><path d="M4.84,2.05A1.88,1.88,0,0,1,6.72,3.89,1.87,1.87,0,0,1,3,3.91,1.87,1.87,0,0,1,4.84,2.05Z"/><path d="M21.26,3.91a1.87,1.87,0,1,1-1.85-1.86A1.85,1.85,0,0,1,21.26,3.91Z"/><path d="M19.25.94h.3v.91h-.3Z"/><path d="M19.55,23.72h-.3v-.91h.3Z"/><path d="M35.55,5.36l.66.68L36,6.2l-.62-.67Z"/><path d="M36,18.43l.18.19-.65.68-.2-.21Z"/><path d="M2.81,18.45l.61.65-.19.16-.63-.65Z"/><path d="M31.71,18.6l.17-.15.62.67-.18.13Z"/><path d="M7.09,18.65l-.62.65-.2-.19.64-.67Z"/><path d="M2.77,6.21,2.6,6l.64-.65.17.16Z"/><path d="M6.3,5.54l.19-.16.6.67L6.9,6.2Z"/><path d="M32.34,5.37l.16.21-.64.63L31.69,6Z"/><path d="M21.46,18.43l.21.22L21,19.3l-.22-.2Z"/><path d="M17.15,18.62l.18-.19.66.67-.2.2Z"/><path d="M17.15,6l.64-.65.18.23-.64.62Z"/><path d="M21,5.34l.65.68-.21.21-.65-.66Z"/><path d="M7.09,22.75l-.16.17-.64-.68.19-.13Z"/><path d="M21.35,21.39l.85.37-.13.29-.85-.37Z"/><path d="M2.58,22.73l.66-.64.18.17-.65.67Z"/><path d="M17.32,22.94l-.17-.23.63-.64.19.2Z"/><path d="M20.82,22.26,21,22.1l.63.65-.16.19Z"/><path d="M32.35,22.11l.18.19-.65.63-.19-.18Z"/><path d="M20.33,2.1,20,2l.37-.84.29.13Z"/><path d="M36,22.92l-.63-.65.22-.16.6.64Z"/><path d="M3.41,2.41l-.18.16-.61-.66.16-.13Z"/><path d="M6.91,1.72l.2.19-.64.67-.21-.19Z"/><path d="M20.82,2.38l.63-.67.21.2L21,2.57Z"/><path d="M31.7,1.9l.17-.17.66.67-.2.19Z"/><path d="M35.55,2.57l-.17-.17L36,1.74l.14.2Z"/><path d="M6.8,4.67,7.65,5l-.13.29L6.67,5Z"/><path d="M36.75,5l-.13.29L35.77,5l.13-.3Z"/><path d="M20.79,6.68l-.3.12L20.16,6c.28-.16.28-.16.39.11S20.71,6.46,20.79,6.68Z"/><path d="M17.16,1.93l.16-.22.65.67-.22.18Z"/><path d="M22.12,2.72l.12.3-.86.33-.12-.29Z"/><path d="M32.79,6.81l-.29-.13.37-.83.3.12Z"/><path d="M1.9,19.62,2,19.33l.85.36-.13.3Z"/><path d="M31,19.62l.13-.29.85.36-.12.3Z"/><path d="M3.4,6.68l.37-.84.3.13-.38.84Z"/><path d="M20.15,22.66l.3-.12.34.86-.3.12Z"/><path d="M20.41,17.85l.29.13-.37.83L20,18.69Z"/><path d="M18.4,18.78l-.34-.85.3-.12.34.85Z"/><path d="M21.35,4.67,22.2,5l-.13.29L21.22,5Z"/><path d="M17.43,19.7,17.3,20l-.85-.37.13-.29Z"/><path d="M16.53,21.94l-.12-.29.86-.34.13.29Z"/><path d="M36.79,19.74l-.86.33-.12-.3.86-.33Z"/><path d="M36.79,3l-.86.33-.12-.29.86-.34Z"/><path d="M6.83,20.07l-.12-.3.86-.33.12.29Z"/><path d="M17.43,3l-.13.29-.85-.37.13-.29Z"/><path d="M31.94,21.61l-.86.33L31,21.65l.87-.34Z"/><path d="M3.51,1.21l.3-.12.34.85-.3.12Z"/><path d="M18.7,1.94l-.3.12-.34-.85.3-.12Z"/><path d="M33.25,1.94l-.3.12-.34-.85.3-.12Z"/><path d="M5.86,1.13l.29.13-.37.84L5.48,2Z"/><path d="M34.88,2.1,34.59,2,35,1.13l.3.13Z"/><path d="M2,2.61,2.88,3l-.12.3L1.9,2.9Z"/><path d="M31.13,2.61,32,3l-.13.29L31,2.9Z"/><path d="M7.69,3l-.86.33L6.7,3.06l.87-.34Z"/><path d="M19.24,17.67h.31v.89h-.31Z"/><path d="M35.77,21.68l.13-.29.85.37-.12.29Z"/><path d="M5.85,17.85l.3.12-.37.85-.29-.13Z"/><path d="M34.71,22.66l.3-.12.33.86-.3.12Z"/><path d="M17.27,4.59l.12.3-.86.33-.12-.29Z"/><path d="M19.25,6.1h.3V7h-.3Z"/><path d="M18.32,5.84l.29.13-.36.84L18,6.69Z"/><path d="M31.08,5.22,31,4.93l.86-.34.12.3Z"/><path d="M2,5.22l-.12-.29.85-.34.14.3Z"/><path d="M6.24,23.4l-.3.11-.34-.85.31-.12Z"/><path d="M2.72,21.31l.12.3L2,21.94l-.12-.3Z"/><path d="M7.65,21.76l-.13.29-.85-.37.13-.29Z"/><path d="M22.24,19.73l-.86.34-.12-.29.86-.34Z"/><path d="M3.5,17.92l.31-.11.34.85-.3.12Z"/><path d="M35.26,18l-.38.84-.29-.13.37-.84Z"/><path d="M33.25,18.66l-.3.12-.34-.86.3-.11Z"/><path d="M3.69,23.53,3.4,23.4l.37-.84.29.13Z"/><path d="M18,23.4l.37-.84.29.13-.37.84Z"/><path d="M32.79,23.53l-.29-.13.37-.84.3.13Z"/><path d="M6.24,6.68l-.3.12L5.6,6l.3-.12Z"/><path d="M35,5.83l.33.85-.29.12L34.71,6Z"/><path d="M33.81.94h.28v.91h-.28Z"/><path d="M1.79,3.82h.9v.3h-.9Z"/><path d="M7,4.11V3.83H7.9v.28Z"/><path d="M16.35,3.82h.89c.06.29.05.31-.23.31h-.66Z"/><path d="M21.54,3.82h.89c.07.29.06.31-.22.31h-.42C21.52,4.13,21.52,4.13,21.54,3.82Z"/><path d="M31.8,3.83v.29h-.91V3.83Z"/><path d="M16.35,20.54h.9v.29h-.9Z"/><path d="M22.45,20.84h-.9v-.29h.9Z"/><path d="M31.8,20.54v.29h-.9v-.29Z"/><path d="M37,20.84h-.89v-.3H37Z"/><path d="M1.79,20.54H2.7v.29H1.79Z"/><path d="M5,1v.9H4.71V1Z"/><path d="M36.1,4.12v-.3H37v.3Z"/><path d="M4.7,23.71v-.9H5v.9Z"/><path d="M7,20.83v-.29h.9v.29Z"/><path d="M34.09,23.72h-.28v-.91h.28Z"/><path d="M4.7,6.09H5V7H4.7Z"/><path d="M33.8,6.1h.3V7h-.3Z"/><path d="M34.09,18.56H33.8v-.88h.29Z"/><path d="M4.71,17.67H5v.89H4.71Z"/><path d="M26.9,2.62A3.07,3.07,0,0,1,28.14,2a1,1,0,0,1,1.09.46A1.63,1.63,0,0,1,29.36,4,3.46,3.46,0,0,1,28.1,5.6c-.35.26-.73.47-1.09.69a.33.33,0,0,1-.24,0,5.33,5.33,0,0,1-2-1.55,2.71,2.71,0,0,1-.53-1.3A1.27,1.27,0,0,1,25.21,2a1.71,1.71,0,0,1,.8.13A8.68,8.68,0,0,1,26.9,2.62Z"/><path d="M12.35,2.62A3.08,3.08,0,0,1,13.62,2a1,1,0,0,1,1,.4A1.61,1.61,0,0,1,14.78,4a3.29,3.29,0,0,1-1.14,1.49c-.37.28-.78.51-1.17.75a.27.27,0,0,1-.23,0,5,5,0,0,1-2.07-1.66,2.52,2.52,0,0,1-.46-1.41,1.2,1.2,0,0,1,1-1.22,1.85,1.85,0,0,1,.8.13A7.64,7.64,0,0,1,12.35,2.62Z"/><path d="M26.83,19.33a9.88,9.88,0,0,1,1.08-.54A1.15,1.15,0,0,1,29.48,20a2.61,2.61,0,0,1-.64,1.64A5.34,5.34,0,0,1,27,23a.26.26,0,0,1-.21,0,5.21,5.21,0,0,1-2-1.54,2.62,2.62,0,0,1-.54-1.31,1.33,1.33,0,0,1,.84-1.43,1.31,1.31,0,0,1,.83.08,4.44,4.44,0,0,1,.49.24A3.93,3.93,0,0,1,26.83,19.33Z"/><path d="M12.3,19.34c.28-.16.55-.33.84-.46a1.41,1.41,0,0,1,.54-.16,1.22,1.22,0,0,1,1.24,1.47,3,3,0,0,1-1.19,2,13.87,13.87,0,0,1-1.27.83.27.27,0,0,1-.23,0,5.27,5.27,0,0,1-2-1.6A2.54,2.54,0,0,1,9.71,20a1.24,1.24,0,0,1,.85-1.21,2.25,2.25,0,0,1,.81.07,1.68,1.68,0,0,1,.49.23Z"/><path d="M19.58,22.66a1.85,1.85,0,1,1,1.88-1.8A1.85,1.85,0,0,1,19.58,22.66Z"/><path d="M5,22.66a1.85,1.85,0,1,1,1.87-1.84A1.85,1.85,0,0,1,5,22.66Z"/><path d="M34.14,22.66a1.85,1.85,0,0,1-1.86-1.85,1.87,1.87,0,1,1,1.86,1.85Z"/><path d="M34.15,2.25A1.85,1.85,0,1,1,32.28,4.1,1.86,1.86,0,0,1,34.15,2.25Z"/><path d="M5,2.25A1.85,1.85,0,1,1,3.18,4.11,1.85,1.85,0,0,1,5,2.25Z"/><path d="M21.46,4.11a1.87,1.87,0,1,1-1.85-1.86A1.85,1.85,0,0,1,21.46,4.11Z"/><path d="M19.45,1.14h.3v.91h-.3Z"/><path d="M19.75,23.92h-.3V23h.3Z"/><path d="M35.75,5.56l.66.68-.2.16-.62-.67Z"/><path d="M36.22,18.63l.18.19-.65.68-.2-.21Z"/><path d="M3,18.65l.61.65-.19.16-.63-.65Z"/><path d="M31.91,18.8l.17-.15.62.67-.19.13Z"/><path d="M7.29,18.85l-.62.65-.2-.19.64-.67Z"/><path d="M3,6.41,2.8,6.22l.63-.65.18.16Z"/><path d="M6.5,5.74l.19-.16.6.67L7.1,6.4Z"/><path d="M32.54,5.57l.15.2-.63.64-.17-.2Z"/><path d="M21.66,18.63l.21.21-.65.66L21,19.29Z"/><path d="M17.35,18.82l.18-.19.66.67-.2.2Z"/><path d="M17.35,6.2,18,5.54l.18.24-.64.61Z"/><path d="M21.22,5.54l.65.68-.21.21L21,5.77Z"/><path d="M7.29,23l-.16.17-.64-.68.19-.13Z"/><path d="M21.55,21.59l.85.37-.13.29-.85-.37Z"/><path d="M2.78,22.93l.66-.65.18.18L3,23.13Z"/><path d="M17.52,23.14l-.18-.23.64-.64.19.2Z"/><path d="M21,22.46l.19-.17.63.66-.16.19Z"/><path d="M32.54,22.31l.19.19-.65.63L31.89,23Z"/><path d="M20.53,2.3l-.3-.13.37-.84.3.13Z"/><path d="M36.19,23.12l-.63-.66.22-.16.6.65Z"/><path d="M3.61,2.61l-.18.16-.61-.66L3,2Z"/><path d="M7.11,1.92l.2.19-.64.67-.21-.19Z"/><path d="M21,2.58l.63-.67.21.2-.67.65Z"/><path d="M31.9,2.1l.17-.17.65.67-.2.19Z"/><path d="M35.75,2.77l-.17-.17.66-.67.14.21Z"/><path d="M7,4.87l.85.37-.13.29-.85-.37Z"/><path d="M37,5.24l-.13.29L36,5.17l.13-.3Z"/><path d="M21,6.88l-.3.12-.33-.84c.28-.16.28-.16.39.11S20.91,6.66,21,6.88Z"/><path d="M17.36,2.13l.16-.22.65.67L18,2.76Z"/><path d="M22.32,2.91l.12.31-.87.33-.12-.3Z"/><path d="M33,7l-.29-.13L33.07,6l.3.13Z"/><path d="M2.1,19.82l.13-.29.85.36L3,20.18Z"/><path d="M31.2,19.82l.13-.29.85.36-.12.3Z"/><path d="M3.6,6.88,4,6l.3.13L3.89,7Z"/><path d="M20.35,22.86l.3-.12.34.86-.3.12Z"/><path d="M20.6,18.05l.3.12-.37.84-.3-.12Z"/><path d="M18.6,19l-.34-.85.3-.13.33.86Z"/><path d="M21.54,4.87l.86.37-.13.29-.85-.36Z"/><path d="M17.63,19.89l-.13.29-.85-.36.13-.3Z"/><path d="M16.73,22.14l-.12-.29.86-.34.13.29Z"/><path d="M37,19.93l-.86.34L36,20l.86-.33Z"/><path d="M37,3.21l-.86.34L36,3.25l.86-.33Z"/><path d="M7,20.27,6.91,20l.86-.33.12.29Z"/><path d="M17.63,3.18l-.13.29-.85-.37.13-.29Z"/><path d="M32.14,21.81l-.86.33-.12-.29.86-.34Z"/><path d="M3.7,1.41,4,1.29l.35.85-.3.12Z"/><path d="M18.9,2.14l-.3.12-.34-.85.3-.12Z"/><path d="M33.45,2.14l-.3.12-.34-.85.29-.13Z"/><path d="M6.06,1.33l.29.13L6,2.3l-.3-.13Z"/><path d="M35.08,2.3l-.29-.13.37-.84.29.13Z"/><path d="M2.22,2.81l.86.36L3,3.47,2.1,3.1Z"/><path d="M31.33,2.81l.85.37-.13.29L31.2,3.1Z"/><path d="M7.88,3.22,7,3.55,6.9,3.26l.87-.34Z"/><path d="M19.44,17.87h.31v.89h-.31Z"/><path d="M36,21.88l.13-.29.84.37-.11.29Z"/><path d="M6.05,18.05l.3.12L6,19l-.3-.13Z"/><path d="M34.9,22.86l.31-.12.33.86-.3.12Z"/><path d="M17.47,4.79l.12.3-.86.33-.12-.29Z"/><path d="M19.44,6.3h.31v.89h-.31Z"/><path d="M18.52,6l.29.13L18.44,7l-.29-.13Z"/><path d="M31.28,5.42l-.12-.29L32,4.79l.12.3Z"/><path d="M2.18,5.42l-.13-.29.86-.34L3,5.08Z"/><path d="M6.44,23.6l-.3.11-.34-.85.3-.12Z"/><path d="M2.92,21.51,3,21.8l-.87.34-.11-.3Z"/><path d="M7.85,22l-.14.29-.84-.37L7,21.59Z"/><path d="M22.44,19.93l-.86.33L21.45,20l.87-.34Z"/><path d="M3.7,18.12,4,18l.34.85-.3.12Z"/><path d="M35.45,18.18l-.37.84-.29-.13.36-.84Z"/><path d="M33.45,18.86l-.3.12-.34-.86.3-.11Z"/><path d="M3.89,23.73,3.6,23.6,4,22.76l.3.13Z"/><path d="M18.14,23.6l.38-.84.29.13-.37.84Z"/><path d="M33,23.73l-.29-.13.37-.84.3.13Z"/><path d="M6.44,6.88,6.14,7,5.8,6.15,6.1,6Z"/><path d="M35.2,6l.34.86-.3.12-.34-.85Z"/><path d="M34,1.14h.28v.91H34Z"/><path d="M2,4h.9v.3H2Z"/><path d="M7.19,4.31V4H8.1v.28Z"/><path d="M16.55,4h.88c.07.29.06.31-.22.31h-.66Z"/><path d="M21.74,4h.88c.08.29.07.31-.21.31H22C21.72,4.33,21.72,4.33,21.74,4Z"/><path d="M32,4v.29h-.91V4Z"/><path d="M16.55,20.74h.9V21h-.9Z"/><path d="M22.65,21h-.9v-.29h.9Z"/><path d="M32,20.74V21h-.91v-.29Z"/><path d="M37.2,21h-.9v-.3h.9Z"/><path d="M2,20.74H2.9V21H2Z"/><path d="M5.19,1.15v.9H4.9v-.9Z"/><path d="M36.3,4.32V4h.9v.3Z"/><path d="M4.9,23.91V23h.29v.9Z"/><path d="M7.19,21v-.29H8.1V21Z"/><path d="M34.29,23.92H34V23h.28Z"/><path d="M4.9,6.29h.29v.89H4.9Z"/><path d="M34,6.3h.29v.88H34Z"/><path d="M34.29,18.76H34v-.88h.29Z"/><path d="M4.91,17.87h.27v.89H4.91Z"/></g><g class="cls-3"><path d="M26.56,2.28a3.07,3.07,0,0,1,1.24-.61,1,1,0,0,1,1.09.46A1.63,1.63,0,0,1,29,3.63a3.46,3.46,0,0,1-1.26,1.63,12.63,12.63,0,0,1-1.1.69.3.3,0,0,1-.23,0,5.33,5.33,0,0,1-2-1.55,2.71,2.71,0,0,1-.53-1.3,1.27,1.27,0,0,1,.94-1.44,1.71,1.71,0,0,1,.8.13A8.68,8.68,0,0,1,26.56,2.28Z"/><path d="M12,2.28a3,3,0,0,1,1.27-.62,1,1,0,0,1,1,.4,1.61,1.61,0,0,1,.16,1.64A3.29,3.29,0,0,1,13.3,5.19c-.37.28-.78.51-1.17.75a.27.27,0,0,1-.23,0A5,5,0,0,1,9.83,4.3a2.45,2.45,0,0,1-.46-1.41,1.2,1.2,0,0,1,1-1.22,1.85,1.85,0,0,1,.8.13A7.64,7.64,0,0,1,12,2.28Z"/><path d="M26.49,19a9.88,9.88,0,0,1,1.08-.54,1.15,1.15,0,0,1,1.57,1.17,2.61,2.61,0,0,1-.64,1.64,5.34,5.34,0,0,1-1.85,1.41.26.26,0,0,1-.21,0,5.21,5.21,0,0,1-2-1.54,2.62,2.62,0,0,1-.54-1.31,1.33,1.33,0,0,1,.84-1.43,1.31,1.31,0,0,1,.83.08,4.44,4.44,0,0,1,.49.24A3.93,3.93,0,0,1,26.49,19Z"/><path d="M12,19c.28-.16.55-.33.84-.47a1.6,1.6,0,0,1,.54-.15,1.22,1.22,0,0,1,1.24,1.47,3,3,0,0,1-1.19,2,13.87,13.87,0,0,1-1.27.83.27.27,0,0,1-.23,0,5.27,5.27,0,0,1-2-1.6,2.54,2.54,0,0,1-.5-1.46,1.24,1.24,0,0,1,.85-1.21,2.25,2.25,0,0,1,.81.07,1.68,1.68,0,0,1,.49.23Z"/><path d="M19.24,22.32a1.85,1.85,0,1,1,1.88-1.8A1.85,1.85,0,0,1,19.24,22.32Z"/><path d="M4.7,22.32a1.85,1.85,0,1,1,1.87-1.84A1.85,1.85,0,0,1,4.7,22.32Z"/><path d="M33.8,22.32a1.85,1.85,0,0,1-1.86-1.85,1.87,1.87,0,1,1,1.86,1.85Z"/><path d="M33.81,1.91a1.85,1.85,0,1,1-1.87,1.85A1.86,1.86,0,0,1,33.81,1.91Z"/><path d="M4.7,1.91A1.85,1.85,0,1,1,2.84,3.77,1.85,1.85,0,0,1,4.7,1.91Z"/><path d="M21.12,3.77a1.87,1.87,0,1,1-1.85-1.86A1.85,1.85,0,0,1,21.12,3.77Z"/><path d="M19.11.8h.3v.91h-.3Z"/><path d="M19.41,23.58h-.3v-.91h.3Z"/><path d="M35.41,5.21l.66.69-.2.16-.62-.67Z"/><path d="M35.88,18.29l.18.19-.65.68-.2-.21Z"/><path d="M2.67,18.31l.61.65-.19.16-.63-.65Z"/><path d="M31.57,18.46l.17-.15.62.66-.19.14Z"/><path d="M7,18.51l-.62.65L6.13,19l.64-.67Z"/><path d="M2.63,6.06l-.17-.18.63-.65.18.16Z"/><path d="M6.16,5.4l.19-.16.6.67-.19.15Z"/><path d="M32.2,5.23l.15.2-.63.64-.17-.2Z"/><path d="M21.32,18.29l.21.21-.65.66L20.66,19Z"/><path d="M17,18.48l.18-.19.65.67-.19.2Z"/><path d="M17,5.86l.64-.66.17.24-.63.61Z"/><path d="M20.88,5.2l.65.68-.21.21-.65-.66Z"/><path d="M7,22.61l-.16.17-.64-.68L6.34,22Z"/><path d="M21.21,21.25l.85.37-.13.29-.85-.37Z"/><path d="M2.44,22.59l.66-.65.18.18-.65.67Z"/><path d="M17.18,22.8,17,22.57l.64-.64.19.2Z"/><path d="M20.68,22.12l.19-.17.63.66-.16.19Z"/><path d="M32.2,22l.19.18-.65.64-.19-.18Z"/><path d="M20.19,2l-.3-.13L20.26,1l.3.13Z"/><path d="M35.84,22.77l-.62-.65.22-.16.6.65Z"/><path d="M3.27,2.27l-.18.16-.61-.66.16-.13Z"/><path d="M6.77,1.58,7,1.77l-.63.67-.21-.19Z"/><path d="M20.68,2.24l.63-.67.21.2-.67.65Z"/><path d="M31.56,1.76l.17-.17.65.67-.2.19Z"/><path d="M35.41,2.43l-.17-.17.66-.67L36,1.8Z"/><path d="M6.66,4.53l.85.37-.13.29-.85-.37Z"/><path d="M36.61,4.9l-.13.29-.85-.36.13-.3Z"/><path d="M20.65,6.54l-.3.12L20,5.82c.28-.16.28-.16.39.11S20.57,6.32,20.65,6.54Z"/><path d="M17,1.79l.16-.22.65.67-.22.18Z"/><path d="M22,2.57l.12.31-.87.33-.12-.3Z"/><path d="M32.65,6.67l-.29-.13.37-.84.29.13Z"/><path d="M1.76,19.48l.13-.29.85.36-.13.29Z"/><path d="M30.86,19.48l.13-.29.85.36-.12.29Z"/><path d="M3.26,6.54l.36-.84.3.13-.37.84Z"/><path d="M20,22.52l.3-.12.34.86-.3.12Z"/><path d="M20.26,17.71l.3.12-.37.84-.3-.12Z"/><path d="M18.26,18.64l-.34-.85.3-.13.33.86Z"/><path d="M21.2,4.53l.86.37-.13.29-.85-.37Z"/><path d="M17.29,19.55l-.13.29-.85-.36.13-.3Z"/><path d="M16.39,21.8l-.12-.29.86-.34.13.29Z"/><path d="M36.65,19.59l-.86.34-.12-.3.86-.33Z"/><path d="M36.65,2.87l-.86.34-.12-.3.86-.33Z"/><path d="M6.69,19.93l-.12-.3.86-.33.12.29Z"/><path d="M17.29,2.84l-.13.29-.85-.37.13-.29Z"/><path d="M31.8,21.47l-.86.33-.12-.29.86-.34Z"/><path d="M3.36,1.07l.3-.13L4,1.8l-.3.12Z"/><path d="M18.56,1.8l-.3.12-.34-.85.3-.12Z"/><path d="M33.11,1.8l-.3.12-.34-.85.29-.13Z"/><path d="M5.72,1,6,1.12,5.64,2l-.3-.12Z"/><path d="M34.74,2l-.29-.13L34.82,1l.29.12Z"/><path d="M1.88,2.47l.86.36-.13.3-.85-.37Z"/><path d="M31,2.47l.85.37-.13.29-.85-.37Z"/><path d="M7.54,2.88l-.86.33-.12-.29.87-.34Z"/><path d="M19.1,17.53h.31v.89H19.1Z"/><path d="M35.62,21.54l.14-.29.84.37-.11.29Z"/><path d="M5.71,17.71l.3.12-.37.85-.3-.13Z"/><path d="M34.56,22.52l.31-.12.33.86-.3.11Z"/><path d="M17.13,4.45l.12.3-.86.33-.12-.29Z"/><path d="M19.1,6h.31v.89H19.1Z"/><path d="M18.18,5.7l.29.13-.37.84-.29-.13Z"/><path d="M30.94,5.08l-.12-.3.86-.33.12.3Z"/><path d="M1.84,5.08l-.13-.29.86-.34.13.29Z"/><path d="M6.1,23.26l-.3.11-.34-.85.3-.12Z"/><path d="M2.58,21.17l.12.29-.87.34-.11-.3Z"/><path d="M7.51,21.62l-.14.29-.84-.37.13-.29Z"/><path d="M22.1,19.59l-.86.33-.13-.29.87-.34Z"/><path d="M3.36,17.78l.31-.11.34.85-.3.12Z"/><path d="M35.11,17.84l-.37.84-.29-.13.36-.84Z"/><path d="M33.11,18.52l-.3.12-.34-.86.3-.11Z"/><path d="M3.55,23.39l-.29-.13.36-.84.3.13Z"/><path d="M17.8,23.26l.38-.84.29.13-.37.84Z"/><path d="M32.65,23.39l-.29-.13.37-.84.29.13Z"/><path d="M6.1,6.54l-.3.12-.34-.85.3-.13Z"/><path d="M34.86,5.68l.34.86-.3.12-.34-.85Z"/><path d="M33.67.8H34v.91h-.28Z"/><path d="M1.65,3.68h.9V4h-.9Z"/><path d="M6.85,4V3.69h.91V4Z"/><path d="M16.21,3.68h.88c.07.29.06.31-.22.31h-.66Z"/><path d="M21.4,3.68h.88c.08.29.07.31-.21.31h-.42C21.38,4,21.38,4,21.4,3.68Z"/><path d="M31.66,3.68V4h-.91V3.68Z"/><path d="M16.21,20.4h.9v.29h-.9Z"/><path d="M22.31,20.7h-.9v-.29h.9Z"/><path d="M31.66,20.4v.29h-.91V20.4Z"/><path d="M36.86,20.7H36v-.3h.9Z"/><path d="M1.65,20.4h.91v.29H1.65Z"/><path d="M4.85.81v.9H4.56V.81Z"/><path d="M36,4v-.3h.9V4Z"/><path d="M4.56,23.57v-.9h.29v.9Z"/><path d="M6.85,20.69V20.4h.91v.29Z"/><path d="M34,23.58h-.28v-.91H34Z"/><path d="M4.56,6h.29v.89H4.56Z"/><path d="M33.66,6H34v.88h-.29Z"/><path d="M34,18.42h-.29v-.88H34Z"/><path d="M4.57,17.53h.27v.89H4.57Z"/></g><path class="cls-4" d="M26.76,2.48A3,3,0,0,1,28,1.87a1,1,0,0,1,1.09.46,1.6,1.6,0,0,1,.12,1.5A3.34,3.34,0,0,1,28,5.46a9.45,9.45,0,0,1-1.09.68.27.27,0,0,1-.23,0,5.33,5.33,0,0,1-2-1.55,2.71,2.71,0,0,1-.53-1.3,1.26,1.26,0,0,1,.94-1.44,1.71,1.71,0,0,1,.8.13A7.1,7.1,0,0,1,26.76,2.48Z"/><path class="cls-4" d="M12.21,2.48a3,3,0,0,1,1.26-.62,1,1,0,0,1,1,.39,1.63,1.63,0,0,1,.16,1.65A3.36,3.36,0,0,1,13.5,5.39c-.37.28-.78.51-1.17.75a.31.31,0,0,1-.23,0A5,5,0,0,1,10,4.5a2.45,2.45,0,0,1-.46-1.41,1.2,1.2,0,0,1,1-1.22,1.78,1.78,0,0,1,.79.13A7.75,7.75,0,0,1,12.21,2.48Z"/><path class="cls-4" d="M26.69,19.19a9.06,9.06,0,0,1,1.08-.54,1.16,1.16,0,0,1,1.57,1.17,2.61,2.61,0,0,1-.64,1.64,5.34,5.34,0,0,1-1.85,1.41.28.28,0,0,1-.22,0,5.36,5.36,0,0,1-2-1.54A2.62,2.62,0,0,1,24.13,20,1.33,1.33,0,0,1,25,18.6a1.25,1.25,0,0,1,.83.08,4.44,4.44,0,0,1,.49.24C26.44,19,26.58,19.11,26.69,19.19Z"/><path class="cls-4" d="M12.16,19.2c.28-.16.55-.33.83-.47a1.5,1.5,0,0,1,.55-.15,1.22,1.22,0,0,1,1.24,1.47,3,3,0,0,1-1.19,2c-.4.31-.84.56-1.27.83a.27.27,0,0,1-.23,0,5.27,5.27,0,0,1-2-1.6,2.57,2.57,0,0,1-.5-1.46,1.24,1.24,0,0,1,.85-1.21,2.18,2.18,0,0,1,.8.07,1.62,1.62,0,0,1,.5.23Z"/><path class="cls-4" d="M19.44,22.52a1.85,1.85,0,1,1,1.88-1.8A1.85,1.85,0,0,1,19.44,22.52Z"/><path class="cls-4" d="M4.9,22.52a1.85,1.85,0,1,1,1.87-1.84A1.85,1.85,0,0,1,4.9,22.52Z"/><path class="cls-4" d="M34,22.52a1.85,1.85,0,1,1,1.87-1.84A1.85,1.85,0,0,1,34,22.52Z"/><path class="cls-4" d="M34,2.11A1.85,1.85,0,1,1,32.14,4,1.85,1.85,0,0,1,34,2.11Z"/><path class="cls-4" d="M4.9,2.11A1.85,1.85,0,1,1,3,4,1.85,1.85,0,0,1,4.9,2.11Z"/><path class="cls-4" d="M21.32,4a1.87,1.87,0,1,1-1.85-1.86A1.85,1.85,0,0,1,21.32,4Z"/><path class="cls-4" d="M19.3,1h.31v.91H19.3Z"/><path class="cls-4" d="M19.6,23.77h-.29v-.9h.29Z"/><path class="cls-4" d="M35.61,5.41l.65.69-.19.16-.62-.67Z"/><path class="cls-4" d="M36.08,18.49l.18.19-.65.68-.2-.21Z"/><path class="cls-4" d="M2.87,18.51l.61.65-.19.16-.63-.66Z"/><path class="cls-4" d="M31.77,18.66l.17-.15.62.66-.19.13Z"/><path class="cls-4" d="M7.15,18.7l-.62.65-.2-.18L7,18.5Z"/><path class="cls-4" d="M2.83,6.26l-.17-.18.63-.65.18.16Z"/><path class="cls-4" d="M6.36,5.59l.19-.16.6.68L7,6.25Z"/><path class="cls-4" d="M32.4,5.43l.15.2-.63.64-.17-.2Z"/><path class="cls-4" d="M21.52,18.49l.21.21-.65.66-.22-.21Z"/><path class="cls-4" d="M17.21,18.68l.18-.2.65.67-.19.21Z"/><path class="cls-4" d="M17.21,6.06l.63-.66.18.23-.63.62Z"/><path class="cls-4" d="M21.08,5.4l.65.68-.21.21-.65-.67Z"/><path class="cls-4" d="M7.15,22.81,7,23l-.63-.67.18-.13Z"/><path class="cls-4" d="M21.4,21.45l.86.37-.13.29-.86-.37Z"/><path class="cls-4" d="M2.64,22.79l.66-.65.18.18L2.83,23Z"/><path class="cls-4" d="M17.38,23l-.18-.23.64-.64.18.19Z"/><path class="cls-4" d="M20.88,22.32l.19-.17.62.66-.16.19Z"/><path class="cls-4" d="M32.4,22.16l.18.19-.64.64-.19-.19Z"/><path class="cls-4" d="M20.39,2.16,20.09,2l.37-.84.3.12Z"/><path class="cls-4" d="M36,23l-.62-.65.22-.16.6.64Z"/><path class="cls-4" d="M3.47,2.47l-.18.16L2.68,2l.16-.14Z"/><path class="cls-4" d="M7,1.78,7.16,2l-.64.67-.2-.19Z"/><path class="cls-4" d="M20.88,2.44l.63-.67.21.2-.67.65Z"/><path class="cls-4" d="M31.76,2l.17-.17.65.67-.2.19Z"/><path class="cls-4" d="M35.61,2.63l-.18-.17.66-.67.15.21Z"/><path class="cls-4" d="M6.86,4.73l.84.37-.13.29L6.72,5Z"/><path class="cls-4" d="M36.81,5.1l-.13.29L35.83,5,36,4.73Z"/><path class="cls-4" d="M20.85,6.74l-.3.11L20.22,6c.28-.17.28-.17.39.11S20.76,6.52,20.85,6.74Z"/><path class="cls-4" d="M17.22,2l.16-.23.64.67-.21.19Z"/><path class="cls-4" d="M22.18,2.77l.11.3-.86.34-.12-.3Z"/><path class="cls-4" d="M32.85,6.87l-.29-.13.36-.84.3.13Z"/><path class="cls-4" d="M2,19.68l.13-.3.85.37L2.81,20Z"/><path class="cls-4" d="M31.06,19.68l.13-.3.85.37-.13.29Z"/><path class="cls-4" d="M3.45,6.74l.37-.84.3.13-.37.84Z"/><path class="cls-4" d="M20.21,22.72l.3-.12.34.85-.3.12Z"/><path class="cls-4" d="M20.46,17.91l.3.12-.37.84-.3-.12Z"/><path class="cls-4" d="M18.45,18.84,18.12,18l.3-.13.33.86Z"/><path class="cls-4" d="M21.4,4.73l.85.37-.12.29L21.27,5Z"/><path class="cls-4" d="M17.49,19.75l-.13.29-.85-.36.13-.3Z"/><path class="cls-4" d="M16.59,22l-.13-.3.87-.33.12.29Z"/><path class="cls-4" d="M36.85,19.79l-.86.33-.12-.29.86-.34Z"/><path class="cls-4" d="M36.85,3.07,36,3.41l-.13-.3.87-.34Z"/><path class="cls-4" d="M6.88,20.13l-.12-.3.87-.34.11.3Z"/><path class="cls-4" d="M17.49,3l-.13.3L16.51,3l.13-.3Z"/><path class="cls-4" d="M32,21.66l-.86.34L31,21.7l.87-.33Z"/><path class="cls-4" d="M3.56,1.27l.3-.13L4.2,2l-.3.12Z"/><path class="cls-4" d="M18.75,2l-.3.12-.33-.85.29-.13Z"/><path class="cls-4" d="M33.31,2l-.3.12-.34-.85L33,1.14Z"/><path class="cls-4" d="M5.91,1.19l.3.12-.37.84L5.54,2Z"/><path class="cls-4" d="M34.94,2.15,34.64,2,35,1.19l.3.12Z"/><path class="cls-4" d="M2.08,2.66,2.93,3l-.12.3L2,3Z"/><path class="cls-4" d="M31.19,2.66,32,3l-.13.3L31.06,3Z"/><path class="cls-4" d="M7.74,3.07l-.86.34-.12-.3.87-.34Z"/><path class="cls-4" d="M19.3,17.73h.31v.89H19.3Z"/><path class="cls-4" d="M35.82,21.74l.14-.29.84.36-.12.3Z"/><path class="cls-4" d="M5.91,17.91l.3.12-.37.84-.3-.12Z"/><path class="cls-4" d="M34.76,22.72l.3-.12.34.86-.3.11Z"/><path class="cls-4" d="M17.33,4.64l.12.31-.86.33L16.47,5Z"/><path class="cls-4" d="M19.3,6.15h.31V7H19.3Z"/><path class="cls-4" d="M18.38,5.9l.29.13-.37.84L18,6.74Z"/><path class="cls-4" d="M31.14,5.28,31,5l.86-.33.12.29Z"/><path class="cls-4" d="M2,5.28,1.91,5l.86-.34.13.29Z"/><path class="cls-4" d="M6.3,23.46l-.3.11-.34-.85L6,22.6Z"/><path class="cls-4" d="M2.78,21.36l.12.3L2,22l-.11-.3Z"/><path class="cls-4" d="M7.71,21.82l-.14.29-.85-.37.13-.29Z"/><path class="cls-4" d="M22.3,19.79l-.87.33-.12-.29.86-.34Z"/><path class="cls-4" d="M3.56,18l.31-.11.33.85-.3.12Z"/><path class="cls-4" d="M35.31,18l-.37.83-.3-.12.37-.84Z"/><path class="cls-4" d="M33.31,18.72l-.3.12L32.66,18l.31-.11Z"/><path class="cls-4" d="M3.75,23.59l-.29-.13.36-.84.3.13Z"/><path class="cls-4" d="M18,23.46l.37-.84.3.13-.37.83Z"/><path class="cls-4" d="M32.85,23.59l-.29-.13.36-.84.3.13Z"/><path class="cls-4" d="M6.3,6.74,6,6.85,5.66,6,6,5.88Z"/><path class="cls-4" d="M35.06,5.88l.34.85-.3.12L34.76,6Z"/><path class="cls-4" d="M33.87,1h.28v.9h-.28Z"/><path class="cls-4" d="M1.85,3.88h.9v.3h-.9Z"/><path class="cls-4" d="M7.05,4.17V3.89H8v.28Z"/><path class="cls-4" d="M16.41,3.88h.88c.07.29.06.31-.22.31h-.66Z"/><path class="cls-4" d="M21.6,3.88h.88c.08.29.07.31-.21.31h-.42C21.57,4.19,21.57,4.19,21.6,3.88Z"/><path class="cls-4" d="M31.86,3.88v.29H31V3.88Z"/><path class="cls-4" d="M16.41,20.6h.9v.29h-.9Z"/><path class="cls-4" d="M22.5,20.89h-.9v-.28h.9Z"/><path class="cls-4" d="M31.86,20.6v.29H31V20.6Z"/><path class="cls-4" d="M37.06,20.9h-.9v-.3h.9Z"/><path class="cls-4" d="M1.85,20.6h.9v.29h-.9Z"/><path class="cls-4" d="M5.05,1v.9H4.76V1Z"/><path class="cls-4" d="M36.16,4.17V3.88h.9v.29Z"/><path class="cls-4" d="M4.76,23.77v-.9h.29v.9Z"/><path class="cls-4" d="M7.05,20.89V20.6H8v.29Z"/><path class="cls-4" d="M34.15,23.77h-.28v-.9h.28Z"/><path class="cls-4" d="M4.76,6.15h.29V7H4.76Z"/><path class="cls-4" d="M33.86,6.15h.29V7h-.29Z"/><path class="cls-4" d="M34.15,18.62h-.29v-.88h.29Z"/><path class="cls-4" d="M4.76,17.73H5v.88H4.76Z"/></g></g></svg>