<svg xmlns="http://www.w3.org/2000/svg" viewBox="0 0 38.55 24.66"><defs><style>.cls-1{isolation:isolate;}.cls-2{opacity:0.15;}.cls-2,.cls-3{mix-blend-mode:multiply;}.cls-4{fill:#fff;}</style></defs><title>convert-CUSTOMIZE-SVG-03</title><g class="cls-1"><g id="Layer_1" data-name="Layer 1"><g class="cls-2"><path d="M15.86,8.11c.37,0,.73,0,1.08,0a1.55,1.55,0,0,1,.9.33,1,1,0,0,1,.35,1.24A3.18,3.18,0,0,1,17.08,11a6.33,6.33,0,0,1-2.49,1,8.17,8.17,0,0,1-.84.14c-.44,0-.88,0-1.37.08-.05.1-.13.27-.2.45,0,0,0,.08,0,.12a.75.75,0,0,1-.1.2c0,.06-.14.08-.17.14a6.22,6.22,0,0,1-1.13,1.56A2.68,2.68,0,0,1,9,15.44a.3.3,0,0,0-.22.13,3.61,3.61,0,0,1-1.13,1,1.76,1.76,0,0,1-1.33.18,1,1,0,0,1-.69-.57,2.77,2.77,0,0,1-.14-1.86c0-.1,0-.2.07-.3-.18-.07-.24,0-.3.15a2.32,2.32,0,0,1-2,1.62,1.38,1.38,0,0,1-1.34-.66,2.65,2.65,0,0,1,1.22-3.82,4.89,4.89,0,0,1,1.08-.19l2.5-.39a.25.25,0,0,0,.13-.12c.15-.28.3-.57.44-.86,0-.07.07-.17,0-.23A3.73,3.73,0,0,1,7.3,7a7.8,7.8,0,0,1,.9-2A3.21,3.21,0,0,1,9.57,3.73a.22.22,0,0,0,.1-.17,1.72,1.72,0,0,1,.86-1.45,3,3,0,0,1,.85-.35A1.56,1.56,0,0,1,13,2.21a.65.65,0,0,1,.16.17,2.35,2.35,0,0,0,1.06.88,9.65,9.65,0,0,1,1.13.8.69.69,0,0,0,.28.11c.18,0,.37,0,.55.06a1.27,1.27,0,0,1,1,1.56,1.76,1.76,0,0,1-.94,1.37.41.41,0,0,0-.23.32A5.29,5.29,0,0,1,15.86,8.11ZM6.61,14a4.91,4.91,0,0,0,1.3.91,2.5,2.5,0,0,0,1.21.24,2.55,2.55,0,0,0,1.71-1,8.16,8.16,0,0,0,1.59-3,.2.2,0,0,0,0-.15,6.32,6.32,0,0,0-1.05-1.5.17.17,0,0,0-.11-.06,2.44,2.44,0,0,0-.47,0c-.41.1-.82.22-1.23.31a2,2,0,0,1-.36,0c-.24.13-.5.32-.78.44A.61.61,0,0,1,7.58,10l-.12-.15L7,10.71c.72.2.9.41.89,1.12a3.27,3.27,0,0,1,0,.54,1.85,1.85,0,0,1-.79,1.28C6.93,13.76,6.78,13.88,6.61,14ZM1.78,13.7a6,6,0,0,0,.07.61,1.28,1.28,0,0,0,1.51,1.2,2.18,2.18,0,0,0,.74-.3A2.14,2.14,0,0,0,5,13.9c0-.06.08-.14.13-.15a1.22,1.22,0,0,1,.84.08.33.33,0,0,0,.24,0,2,2,0,0,0,1.42-1.9c0-.73-.26-1-1-.95l-.1,0-2.32.36a5.84,5.84,0,0,0-1.12.21A2.15,2.15,0,0,0,1.78,13.7Zm13-4.63a2,2,0,0,0,.76-1,4.89,4.89,0,0,0,.25-2.43,2.13,2.13,0,0,0-.58-1.28,4.73,4.73,0,0,0-1.58-1.08.2.2,0,0,0-.15,0,1,1,0,0,1-.79.14,2,2,0,0,0-.49,0c-.42.08-.85.19-1.27.29a.3.3,0,0,0-.22.42,10.33,10.33,0,0,1,.33,1.33,4.27,4.27,0,0,1-.43,2.3c-.08.16-.09.25.08.36a5.12,5.12,0,0,1,.52.4c.19.14.39.27.59.4l0,0a1.45,1.45,0,0,1-.36-1.33,1.89,1.89,0,0,1,2.11-1.71,2.27,2.27,0,0,1,1.78,1.28l.2-.09a2,2,0,0,1,0,.35c-.05.2-.13.39-.19.59A3,3,0,0,1,14.8,9.07ZM10.08,3.86l-.27.07a2.4,2.4,0,0,0-1.13.86A7,7,0,0,0,7.42,7.65a2.73,2.73,0,0,0,.12,1.74c.31.75.54.92,1.28.33a5.57,5.57,0,0,0,1.45-1.85c.09-.17.17-.35.26-.56a1.13,1.13,0,0,1-1.27-.56.54.54,0,0,1-.06-.33c.08-.34.18-.68.29-1C9.67,4.91,9.87,4.41,10.08,3.86ZM14,8.57l.05.08h.49V9a1.45,1.45,0,0,0,.09-2.41l-.17-.13a1.66,1.66,0,0,0-2.31,2.34L12,8.92a3.48,3.48,0,0,0,1.3.45A1.19,1.19,0,0,0,14.38,9l-.8.06,0-.37-.53,0a.22.22,0,0,1-.17-.07c-.09-.19-.15-.39-.23-.61L13,8c.1.22.13.47.47.38s.41-.23.33-.5c0-.1-.06-.19-.08-.29-.11-.37-.11-.37.21-.59.1-.07.17-.09.26,0l.58.4a.34.34,0,0,1,.11.18c.07.38.06.38-.3.53a1,1,0,0,0-.26.12A4.64,4.64,0,0,0,14,8.57Zm-1.44,3.21c.92.34,4.15-.56,4.68-1.3a1.22,1.22,0,0,1-1.42,0,1.79,1.79,0,0,1-.64-1.33,2.4,2.4,0,0,1-1.25.54c-.21,0-.39.06-.47.29s-.44.58-.47,1c0,.11,0,.19-.18.18s-.06.05-.07.09S12.57,11.59,12.51,11.78Zm-6.7,2.3a2.83,2.83,0,0,0,0,1.84.85.85,0,0,0,.8.61,1,1,0,0,0,.38,0,2.71,2.71,0,0,0,1.56-1.1c-.24-.08-.45-.14-.66-.23a5,5,0,0,1-1.35-.89.9.9,0,0,0-.3-.17C6.1,14.1,6,14.1,5.81,14.08Zm7.47-11a1.6,1.6,0,0,0-2-1C10.4,2.35,9.85,3,10,3.59a2.29,2.29,0,0,1,.28.09.23.23,0,0,0,.34-.09,2,2,0,0,1,.12-.19,4.47,4.47,0,0,1,.62-.68.88.88,0,0,1,1.24.21A.48.48,0,0,0,13.28,3.09ZM16.13,6.9a1.49,1.49,0,0,0,.75-1.72,1,1,0,0,0-1.19-.69c.14.25.23.5.57.57a.63.63,0,0,1,.52.66.8.8,0,0,1-.48.84A.24.24,0,0,0,16.13,6.9Zm-3,3-.89-.49-.31.42,1,.54Zm-2.7-1.56c-.27.36-.26.43.09.65l.29.17a.15.15,0,0,0,.24-.06c0-.1.15-.21,0-.32S10.65,8.47,10.44,8.32ZM9.68,9.43l0,0,.79-.2L10.05,9ZM12,9.26,11.39,9l-.06.19c.06,0,.12.06.17.1a1.83,1.83,0,0,1,.13.16c.09.12.17.11.25,0S12,9.33,12,9.26Zm.67,1.66c.07-.39,0-.44-.32-.54Z"/><path d="M7.47,21c-.11-.16-.22-.3-.31-.45a.28.28,0,0,1,0-.37A.5.5,0,0,1,7.53,20c.1,0,.2.17.23.28a2.88,2.88,0,0,1,0,.59l.42-.38a.82.82,0,0,1,.2-.12.29.29,0,0,1,.41.09.27.27,0,0,1-.1.4c-.23.13-.49.22-.74.33a2.53,2.53,0,0,1,.42.23c.09.06.21.19.2.28a.35.35,0,0,1-.23.26.43.43,0,0,1-.33-.11,3,3,0,0,1-.33-.46,1.93,1.93,0,0,0,0,.23,1.65,1.65,0,0,1,0,.31c0,.14-.06.31-.27.28a.33.33,0,0,1-.27-.42,1.37,1.37,0,0,1,.16-.32l.15-.19-.54.08c-.15,0-.29,0-.3-.21a.29.29,0,0,1,.27-.33,1.35,1.35,0,0,1,.39.05A1,1,0,0,1,7.47,21Z"/><path d="M17.83,3.06a1.57,1.57,0,0,1-.37,0A.3.3,0,0,1,17.25,3a.2.2,0,0,1,.19-.25c.13,0,.26,0,.39,0a2.07,2.07,0,0,1-.19-.32c-.08-.16,0-.27.16-.32s.26,0,.29.18a3,3,0,0,1,0,.45,3.47,3.47,0,0,1,.36-.31c.18-.13.33-.11.4,0s0,.27-.19.36a4.72,4.72,0,0,1-.45.16,3.25,3.25,0,0,1,.37.21c.1.07.17.16.07.28a.21.21,0,0,1-.33.06c-.1-.1-.19-.22-.29-.34,0,.12,0,.24,0,.35s-.06.24-.22.2-.24-.15-.18-.3A2.32,2.32,0,0,1,17.83,3.06Z"/><path d="M13.55,22.48a1.2,1.2,0,0,1-.33.05.3.3,0,0,1-.23-.15.19.19,0,0,1,.19-.24,2.08,2.08,0,0,1,.41.05,2,2,0,0,1-.18-.26.47.47,0,0,1,0-.31.3.3,0,0,1,.25-.1.45.45,0,0,1,.19.25,1.94,1.94,0,0,1,0,.42l.21-.2a1.05,1.05,0,0,1,.25-.18.21.21,0,0,1,.32.06.2.2,0,0,1-.1.3,2.11,2.11,0,0,1-.34.16l-.21.06a4.07,4.07,0,0,1,.37.21c.1.06.2.15.08.29a.22.22,0,0,1-.35,0,3.64,3.64,0,0,1-.28-.34c0,.14,0,.27,0,.39s-.07.24-.21.18-.2-.17-.19-.25A1.36,1.36,0,0,1,13.55,22.48Z"/><path d="M4.77,5.18c.15-.12.27-.23.4-.32s.27-.13.37,0,0,.27-.16.34-.3.11-.47.18l.36.2c.09.07.18.16.07.28A.21.21,0,0,1,5,6a2.72,2.72,0,0,1-.3-.35,2,2,0,0,1,0,.36c0,.11,0,.24-.2.21a.23.23,0,0,1-.19-.32,2.24,2.24,0,0,1,.2-.37,1.12,1.12,0,0,1-.35.06c-.09,0-.22-.08-.23-.15a.18.18,0,0,1,.19-.24,1.9,1.9,0,0,1,.4,0l-.2-.31a.22.22,0,0,1,.14-.34c.15-.06.27,0,.31.18a1.18,1.18,0,0,1,0,.21Z"/><path d="M17.44,12.81l-.37.06c-.12,0-.24,0-.22-.16a.32.32,0,0,1,.19-.23,1.44,1.44,0,0,1,.41,0,1.6,1.6,0,0,1-.19-.29.32.32,0,0,1,0-.27.31.31,0,0,1,.26-.09.29.29,0,0,1,.16.21,2.16,2.16,0,0,1,0,.45l.27-.25a.91.91,0,0,1,.27-.15.28.28,0,0,1,.24.1.25.25,0,0,1-.06.25,4,4,0,0,1-.55.27l.32.18c.1.07.22.15.09.3a.22.22,0,0,1-.36,0,2.39,2.39,0,0,1-.25-.32,3.39,3.39,0,0,1,0,.35c0,.13-.05.25-.22.22a.25.25,0,0,1-.19-.33A2.7,2.7,0,0,1,17.44,12.81Z"/><path d="M11.32,16.25,11,16.3c-.11,0-.22,0-.23-.16s.07-.23.21-.23a1.9,1.9,0,0,1,.4.05,1.37,1.37,0,0,1-.19-.3.36.36,0,0,1,0-.27.31.31,0,0,1,.26-.09c.07,0,.14.12.17.21a2.77,2.77,0,0,1,0,.42A3.12,3.12,0,0,1,12,15.6c.11-.08.26-.12.35,0s0,.26-.13.33a4.53,4.53,0,0,1-.49.2l.31.17c.12.08.23.17.1.33a.23.23,0,0,1-.37,0c-.08-.09-.15-.2-.24-.32,0,.14,0,.25,0,.37s0,.23-.21.2a.24.24,0,0,1-.19-.31A1.62,1.62,0,0,1,11.32,16.25Z"/><path d="M16.38,17.37l.13.58-.46.11-.14-.58Z"/><path d="M5.24,6.91l.13.58-.46.1L4.78,7Z"/><path d="M8.39,1.86l.46-.11L9,2.32l-.46.12Z"/><path d="M3.11,3.89l.49-.28.23.4-.49.28Z"/><path d="M17.94,7l-.22-.39.49-.29.23.39Z"/><path d="M12.8,15.3l-.22-.4.49-.28.23.39Z"/><path d="M6.91,18.36,6.69,18l.51-.27.21.4Z"/><path d="M5.84,18.51l.21.4-.5.27-.22-.4Z"/><path d="M5.17,23.33l-.23-.4.5-.28.23.39Z"/><path d="M10.09,21.32l.28-.15.15-.06.11.19.1.21-.43.22Z"/><path d="M3.55,16.92l.07.28-.23.07L3.32,17Z"/><path d="M12.31,17.85l.06.28-.21.07-.08-.28Z"/><path d="M7,4.59l.07-.22.27.09-.06.22Z"/><path d="M16.48,21.08,16.23,21l0-.2C16.59,20.84,16.59,20.85,16.48,21.08Z"/><path d="M2.09,8.05l.07-.21.28.07-.06.22Z"/><path d="M15.67,14.79l.26.08,0,.2C15.58,15,15.58,15,15.67,14.79Z"/><path d="M5.25,2.37l-.07.22-.27-.08L5,2.29Z"/><path d="M4,9.19l.25.07c0,.24,0,.25-.3.14Z"/><path d="M14.82,19.21l.06-.22.28.08-.06.22Z"/><path d="M6.28,12.74a.42.42,0,0,1-.44-.27A.42.42,0,0,1,6,12,.59.59,0,0,1,6.7,12a.34.34,0,0,1,.14.41A.62.62,0,0,1,6.28,12.74Z"/><path d="M12.47,5.83a.35.35,0,0,1-.37-.37.41.41,0,0,1,.42-.4.36.36,0,0,1,.36.38A.41.41,0,0,1,12.47,5.83Z"/><path d="M16.06,8.3c.37,0,.73,0,1.08,0a1.55,1.55,0,0,1,.9.33,1,1,0,0,1,.35,1.24,3.13,3.13,0,0,1-1.12,1.27,6.23,6.23,0,0,1-2.48,1,8.17,8.17,0,0,1-.84.14c-.44,0-.88.05-1.37.07-.05.11-.13.28-.2.46s0,.08,0,.11a.67.67,0,0,1-.09.21c-.05.05-.14.08-.17.14A6.22,6.22,0,0,1,11,14.8a2.77,2.77,0,0,1-1.84.84.32.32,0,0,0-.22.12,3.64,3.64,0,0,1-1.13,1A1.76,1.76,0,0,1,6.5,17a1,1,0,0,1-.69-.57,2.83,2.83,0,0,1-.15-1.86c0-.1,0-.2.08-.31-.18-.06-.24,0-.31.16a2.31,2.31,0,0,1-2,1.62,1.38,1.38,0,0,1-1.34-.66,2.64,2.64,0,0,1,1.22-3.82,4.79,4.79,0,0,1,1.08-.19l2.5-.39A.25.25,0,0,0,7,10.81c.15-.28.3-.57.44-.86,0-.07.07-.17,0-.23a3.73,3.73,0,0,1,0-2.51,8,8,0,0,1,.9-2A3.18,3.18,0,0,1,9.77,3.93a.22.22,0,0,0,.1-.17,1.71,1.71,0,0,1,.86-1.45A3.34,3.34,0,0,1,11.58,2a1.56,1.56,0,0,1,1.59.46.65.65,0,0,1,.16.17,2.27,2.27,0,0,0,1.06.87,11.1,11.1,0,0,1,1.13.81.69.69,0,0,0,.28.11c.18,0,.37,0,.54.06A1.27,1.27,0,0,1,17.39,6a1.76,1.76,0,0,1-.94,1.38.41.41,0,0,0-.23.32C16.19,7.89,16.11,8.09,16.06,8.3ZM6.81,14.2a4.58,4.58,0,0,0,1.29.91,2.44,2.44,0,0,0,1.21.25,2.59,2.59,0,0,0,1.72-1,8,8,0,0,0,1.58-3,.18.18,0,0,0,0-.16,6.47,6.47,0,0,0-1-1.49.17.17,0,0,0-.11-.06,2.44,2.44,0,0,0-.47,0c-.42.09-.82.21-1.23.31a2,2,0,0,1-.36,0,8.24,8.24,0,0,1-.79.44.6.6,0,0,1-.81-.24l-.12-.15-.42.83c.72.19.9.41.89,1.12a3.27,3.27,0,0,1,0,.54,1.85,1.85,0,0,1-.8,1.28C7.13,14,7,14.08,6.81,14.2ZM2,13.9c0,.2,0,.41.06.61a1.28,1.28,0,0,0,1.52,1.2A2.18,2.18,0,0,0,5.24,14.1c0-.06.08-.14.13-.15a1.28,1.28,0,0,1,.84.07.29.29,0,0,0,.24,0,2,2,0,0,0,1.42-1.91c0-.72-.26-1-1-.94l-.11,0-2.31.36a5.84,5.84,0,0,0-1.12.21A2.15,2.15,0,0,0,2,13.9ZM15,9.27a2,2,0,0,0,.76-1A4.91,4.91,0,0,0,16,5.84a2.16,2.16,0,0,0-.58-1.29,4.86,4.86,0,0,0-1.58-1.07.2.2,0,0,0-.15,0,1.05,1.05,0,0,1-.79.14,1.61,1.61,0,0,0-.49,0c-.42.08-.85.19-1.27.29a.3.3,0,0,0-.23.42,7.83,7.83,0,0,1,.33,1.33A4.17,4.17,0,0,1,10.83,8c-.08.16-.09.25.08.35s.34.27.52.4l.59.41,0,0a1.46,1.46,0,0,1-.37-1.33A1.9,1.9,0,0,1,13.81,6a2.3,2.3,0,0,1,1.78,1.29l.2-.09a1.91,1.91,0,0,1,0,.34c0,.2-.13.4-.19.59A2.93,2.93,0,0,1,15,9.27ZM10.27,4.06,10,4.13A2.4,2.4,0,0,0,8.88,5,7,7,0,0,0,7.62,7.85a2.8,2.8,0,0,0,.11,1.74c.32.75.55.92,1.29.33a5.57,5.57,0,0,0,1.45-1.85c.09-.17.17-.35.26-.56A1.13,1.13,0,0,1,9.46,7a.43.43,0,0,1-.06-.33c.08-.34.18-.68.29-1C9.87,5.11,10.07,4.61,10.27,4.06Zm3.88,4.71,0,.07h.49l0,.31a1.45,1.45,0,0,0,.1-2.42,1.09,1.09,0,0,1-.17-.13A1.67,1.67,0,0,0,12.29,9l-.09.17a3.66,3.66,0,0,0,1.3.45,1.17,1.17,0,0,0,1.07-.36l-.79.06,0-.37-.54,0c-.05,0-.14,0-.16-.07a5.81,5.81,0,0,1-.23-.6l.39-.09c.1.22.12.47.47.38s.4-.23.32-.51c0-.09-.05-.19-.07-.28-.11-.37-.11-.37.21-.6.1-.06.16-.08.26,0s.39.26.57.4a.32.32,0,0,1,.12.18c.07.38.06.38-.3.53a1.31,1.31,0,0,0-.27.12C14.39,8.5,14.27,8.64,14.15,8.77ZM12.71,12c.92.34,4.15-.56,4.68-1.3a1.22,1.22,0,0,1-1.42,0,1.75,1.75,0,0,1-.64-1.32,2.4,2.4,0,0,1-1.26.54c-.21,0-.38.06-.47.28s-.43.59-.46,1c0,.11-.05.19-.18.18s-.06.05-.08.09S12.77,11.79,12.71,12ZM6,14.28a2.83,2.83,0,0,0,0,1.84.85.85,0,0,0,.8.61,1.2,1.2,0,0,0,.38,0,2.71,2.71,0,0,0,1.56-1.1c-.24-.08-.45-.14-.66-.23a4.87,4.87,0,0,1-1.35-.89.75.75,0,0,0-.3-.17A2.42,2.42,0,0,0,6,14.28Zm7.47-11a1.6,1.6,0,0,0-2.06-1c-.82.28-1.37,1-1.24,1.52a2.46,2.46,0,0,1,.29.09.23.23,0,0,0,.34-.09,1.22,1.22,0,0,1,.12-.19,4,4,0,0,1,.62-.68.89.89,0,0,1,1.24.2C13,3.38,13.15,3.43,13.48,3.29ZM16.33,7.1a1.49,1.49,0,0,0,.75-1.72,1,1,0,0,0-1.19-.7c.13.25.23.5.57.58a.63.63,0,0,1,.52.66.79.79,0,0,1-.49.84C16.32,6.82,16.29,6.93,16.33,7.1Zm-3,3-.89-.49-.31.42,1,.53Zm-2.7-1.56c-.27.36-.26.43.09.65l.29.17c.11.08.18,0,.24-.06s.15-.22,0-.32ZM9.87,9.63l0,0,.79-.2-.44-.3Zm2.32-.17-.6-.25-.07.18.18.11a1,1,0,0,1,.13.16c.09.12.17.11.25,0Zm.67,1.66c.07-.39,0-.44-.32-.54Z"/><path d="M7.67,21.15a5.23,5.23,0,0,1-.31-.45.27.27,0,0,1,0-.37.5.5,0,0,1,.35-.12c.1,0,.2.17.23.28a2.88,2.88,0,0,1,0,.59l.42-.38a.82.82,0,0,1,.2-.12.29.29,0,0,1,.41.08.28.28,0,0,1-.1.41c-.24.13-.49.22-.74.33a2.86,2.86,0,0,1,.42.22c.09.07.21.2.2.29a.39.39,0,0,1-.23.26.46.46,0,0,1-.33-.11,3,3,0,0,1-.33-.46,1.93,1.93,0,0,0,0,.23c0,.1,0,.21,0,.31s-.06.31-.27.28A.34.34,0,0,1,7.32,22a1.91,1.91,0,0,1,.16-.32,2.31,2.31,0,0,1,.16-.19l-.54.08c-.15,0-.29,0-.3-.21A.29.29,0,0,1,7.06,21a1.81,1.81,0,0,1,.4,0Z"/><path d="M18,3.26a1.57,1.57,0,0,1-.37.05.3.3,0,0,1-.21-.14.19.19,0,0,1,.19-.25c.13,0,.26,0,.39,0a2.69,2.69,0,0,1-.19-.32c-.08-.17,0-.27.16-.33a.21.21,0,0,1,.29.18,3.28,3.28,0,0,1,0,.46c.12-.11.23-.22.35-.31s.33-.12.41,0,0,.27-.19.36-.29.1-.45.16a3.25,3.25,0,0,1,.37.21c.1.07.17.16.07.28s-.21.16-.33.05a2,2,0,0,1-.29-.34,3.48,3.48,0,0,1-.05.36c0,.12,0,.24-.21.2s-.24-.15-.18-.3A2.32,2.32,0,0,1,18,3.26Z"/><path d="M13.75,22.68a1.21,1.21,0,0,1-.34.05.3.3,0,0,1-.22-.15.18.18,0,0,1,.19-.24,2.08,2.08,0,0,1,.41.05,1.35,1.35,0,0,1-.18-.26.41.41,0,0,1,0-.31.25.25,0,0,1,.25-.1A.39.39,0,0,1,14,22a1.4,1.4,0,0,1,0,.42l.21-.2a1.5,1.5,0,0,1,.25-.19.22.22,0,0,1,.32.07.2.2,0,0,1-.1.3,2.6,2.6,0,0,1-.34.16l-.21.06c.14.08.26.13.37.2s.2.16.08.29a.22.22,0,0,1-.35,0,2.54,2.54,0,0,1-.28-.34,2.34,2.34,0,0,1,0,.39c0,.1-.06.24-.2.18s-.2-.17-.19-.25A1.27,1.27,0,0,1,13.75,22.68Z"/><path d="M5,5.38a3.5,3.5,0,0,1,.4-.32c.12-.08.27-.13.36,0s0,.28-.15.34a4.17,4.17,0,0,1-.47.19l.36.2c.09.07.18.15.07.28a.21.21,0,0,1-.33.06,2.72,2.72,0,0,1-.3-.35,2,2,0,0,1,0,.36c0,.11,0,.23-.2.21a.25.25,0,0,1-.2-.32,3.47,3.47,0,0,1,.21-.37,1.13,1.13,0,0,1-.36.06c-.08,0-.21-.08-.23-.15a.19.19,0,0,1,.2-.24,2.85,2.85,0,0,1,.4,0,3.28,3.28,0,0,1-.2-.31.22.22,0,0,1,.14-.33c.15-.07.27,0,.31.17a.75.75,0,0,1,0,.21A1.7,1.7,0,0,1,5,5.38Z"/><path d="M17.64,13l-.37.05c-.12,0-.24,0-.22-.16a.32.32,0,0,1,.19-.22,1.44,1.44,0,0,1,.41,0,1.08,1.08,0,0,1-.19-.3.3.3,0,0,1,0-.26.31.31,0,0,1,.26-.09.29.29,0,0,1,.16.21,2.16,2.16,0,0,1,0,.45c.11-.1.18-.18.27-.25a.81.81,0,0,1,.27-.15.28.28,0,0,1,.24.1.25.25,0,0,1-.06.25,4.68,4.68,0,0,1-.55.27,2.74,2.74,0,0,1,.32.18c.1.07.22.15.09.3a.22.22,0,0,1-.36,0,3,3,0,0,1-.25-.32,3.27,3.27,0,0,1-.05.35c0,.12,0,.25-.22.22a.25.25,0,0,1-.18-.33A2.7,2.7,0,0,1,17.64,13Z"/><path d="M11.51,16.45l-.35.05c-.11,0-.22,0-.23-.16a.21.21,0,0,1,.21-.24c.13,0,.26,0,.4,0a1.2,1.2,0,0,1-.19-.29.32.32,0,0,1,0-.27.29.29,0,0,1,.26-.1.32.32,0,0,1,.16.21,2,2,0,0,1,0,.42c.14-.11.26-.23.4-.32s.27-.12.36,0,0,.26-.13.33-.31.12-.49.2l.31.17c.11.08.23.17.1.32a.22.22,0,0,1-.37,0c-.08-.09-.15-.2-.24-.32,0,.14,0,.25,0,.36s-.05.24-.21.21a.24.24,0,0,1-.19-.32A2,2,0,0,1,11.51,16.45Z"/><path d="M16.58,17.57l.13.58-.46.11-.14-.58Z"/><path d="M5.44,7.1l.13.59-.46.1L5,7.21Z"/><path d="M8.58,2.06l.47-.12.14.58-.46.11Z"/><path d="M3.3,4.09l.5-.28L4,4.2l-.5.29Z"/><path d="M18.14,7.16l-.23-.39.5-.29.23.39Z"/><path d="M13,15.49l-.23-.39.5-.28.23.39Z"/><path d="M7.11,18.56l-.22-.4.5-.27.22.39Z"/><path d="M6,18.71l.22.4-.5.27L5.53,19Z"/><path d="M5.37,23.53l-.23-.4.5-.28.23.39Z"/><path d="M10.29,21.52l.28-.15.14-.07.12.2.1.21-.43.22Z"/><path d="M3.74,17.12l.07.28-.22.06-.07-.28Z"/><path d="M12.51,18l.06.28-.21.08-.08-.28Z"/><path d="M7.2,4.79l.07-.22.27.09-.07.22Z"/><path d="M16.68,21.28l-.25-.07,0-.21C16.79,21,16.79,21.05,16.68,21.28Z"/><path d="M2.29,8.25,2.36,8l.28.08-.07.22Z"/><path d="M15.87,15l.26.08-.05.2C15.78,15.24,15.78,15.23,15.87,15Z"/><path d="M5.44,2.57l-.06.22-.27-.08.06-.22Z"/><path d="M4.15,9.39l.25.07c0,.24,0,.25-.3.14Z"/><path d="M15,19.41l.06-.22.28.07-.06.22Z"/><path d="M6.47,12.93A.39.39,0,0,1,6,12.67a.42.42,0,0,1,.19-.47.58.58,0,0,1,.67,0,.35.35,0,0,1,.13.41A.58.58,0,0,1,6.47,12.93Z"/><path d="M12.66,6a.36.36,0,0,1-.37-.37.43.43,0,0,1,.43-.41.39.39,0,0,1,.36.39A.41.41,0,0,1,12.66,6Z"/></g><g class="cls-3"><path d="M15.72,8c.37,0,.73,0,1.08,0a1.55,1.55,0,0,1,.9.33,1,1,0,0,1,.35,1.24,3.13,3.13,0,0,1-1.12,1.27,6.22,6.22,0,0,1-2.49,1,7.56,7.56,0,0,1-.83.14c-.44,0-.88.05-1.37.07-.05.11-.13.28-.2.46s0,.08,0,.11a.67.67,0,0,1-.09.21c-.05.05-.14.08-.17.14a6.22,6.22,0,0,1-1.13,1.56,2.77,2.77,0,0,1-1.84.84.32.32,0,0,0-.22.12,3.64,3.64,0,0,1-1.13,1,1.76,1.76,0,0,1-1.33.18A1,1,0,0,1,5.47,16a2.83,2.83,0,0,1-.15-1.86c0-.1,0-.2.08-.31-.18-.06-.24,0-.31.16a2.31,2.31,0,0,1-2,1.62A1.38,1.38,0,0,1,1.73,15,2.64,2.64,0,0,1,3,11.17,4.79,4.79,0,0,1,4,11c.83-.14,1.67-.26,2.5-.39a.25.25,0,0,0,.13-.12c.15-.28.3-.57.44-.86,0-.07.07-.17,0-.23a3.73,3.73,0,0,1,0-2.51,8,8,0,0,1,.9-2A3.18,3.18,0,0,1,9.43,3.59a.22.22,0,0,0,.1-.17A1.71,1.71,0,0,1,10.39,2a3.34,3.34,0,0,1,.85-.36,1.56,1.56,0,0,1,1.59.46.65.65,0,0,1,.16.17,2.27,2.27,0,0,0,1.06.87,11.1,11.1,0,0,1,1.13.81.69.69,0,0,0,.28.11c.18,0,.37,0,.54.06a1.27,1.27,0,0,1,1.05,1.55A1.76,1.76,0,0,1,16.11,7a.41.41,0,0,0-.23.32C15.85,7.55,15.77,7.75,15.72,8Zm-9.25,5.9a4.58,4.58,0,0,0,1.29.91A2.44,2.44,0,0,0,9,15a2.59,2.59,0,0,0,1.72-1,8,8,0,0,0,1.58-3,.18.18,0,0,0,0-.16,6.47,6.47,0,0,0-1-1.49.17.17,0,0,0-.11-.06,2.44,2.44,0,0,0-.47,0c-.42.09-.82.21-1.23.31a2,2,0,0,1-.36,0,8.24,8.24,0,0,1-.79.44.6.6,0,0,1-.81-.24l-.12-.15-.42.83c.72.19.89.41.89,1.12a3.27,3.27,0,0,1,0,.54A1.85,1.85,0,0,1,7,13.51C6.79,13.61,6.64,13.74,6.47,13.86Zm-4.83-.3c0,.2,0,.41.06.61a1.28,1.28,0,0,0,1.52,1.2A2.18,2.18,0,0,0,4.9,13.76c0-.06.08-.14.13-.15a1.28,1.28,0,0,1,.84.07.29.29,0,0,0,.24,0,2,2,0,0,0,1.42-1.91c0-.72-.26-1-1-.94l-.11,0-2.31.36A5.84,5.84,0,0,0,3,11.44,2.15,2.15,0,0,0,1.64,13.56Zm13-4.63a2,2,0,0,0,.76-1,4.91,4.91,0,0,0,.25-2.43,2.16,2.16,0,0,0-.58-1.29,4.86,4.86,0,0,0-1.58-1.07.2.2,0,0,0-.15,0,1.05,1.05,0,0,1-.79.14,1.61,1.61,0,0,0-.49,0c-.42.08-.85.19-1.27.29a.3.3,0,0,0-.23.42,7.83,7.83,0,0,1,.33,1.33,4.17,4.17,0,0,1-.42,2.3c-.08.16-.09.25.08.35s.34.27.52.4l.59.41,0,0a1.46,1.46,0,0,1-.37-1.33,1.9,1.9,0,0,1,2.12-1.72A2.3,2.3,0,0,1,15.25,7l.2-.09a1.91,1.91,0,0,1,0,.34c0,.2-.13.4-.19.59A2.93,2.93,0,0,1,14.66,8.93ZM9.93,3.72l-.26.07a2.4,2.4,0,0,0-1.13.86A7,7,0,0,0,7.28,7.51a2.8,2.8,0,0,0,.11,1.74c.32.75.55.92,1.29.33a5.57,5.57,0,0,0,1.45-1.85c.09-.17.17-.35.26-.56a1.13,1.13,0,0,1-1.27-.56.43.43,0,0,1-.06-.33c.08-.34.18-.68.29-1C9.53,4.77,9.73,4.27,9.93,3.72Zm3.88,4.71,0,.07h.49l0,.31a1.45,1.45,0,0,0,.1-2.42,1.09,1.09,0,0,1-.17-.13A1.67,1.67,0,0,0,12,8.61l-.09.17a3.66,3.66,0,0,0,1.3.45,1.17,1.17,0,0,0,1.07-.36l-.79.06,0-.37-.54,0s-.15,0-.16-.07-.15-.38-.23-.6l.39-.09c.1.22.12.47.47.38s.4-.23.32-.51c0-.09-.05-.19-.07-.28-.11-.37-.11-.37.21-.6.1-.06.16-.08.26,0s.39.26.57.4a.32.32,0,0,1,.12.18c.07.38.06.38-.3.53a1.31,1.31,0,0,0-.27.12C14.05,8.16,13.93,8.3,13.81,8.43Zm-1.44,3.21c.92.34,4.15-.56,4.68-1.31a1.2,1.2,0,0,1-1.42,0A1.75,1.75,0,0,1,15,9.05a2.4,2.4,0,0,1-1.26.54c-.21,0-.38.06-.47.28s-.43.59-.46,1c0,.11-.05.19-.18.18s-.06.05-.08.09S12.43,11.45,12.37,11.64Zm-6.7,2.3a2.83,2.83,0,0,0,0,1.84.85.85,0,0,0,.8.61,1.6,1.6,0,0,0,.38,0,2.71,2.71,0,0,0,1.56-1.1c-.24-.08-.45-.14-.66-.23a4.87,4.87,0,0,1-1.35-.89.75.75,0,0,0-.3-.17A2.42,2.42,0,0,0,5.67,13.94ZM13.14,3a1.6,1.6,0,0,0-2.06-1c-.83.27-1.37,1-1.24,1.52a2.46,2.46,0,0,1,.29.09.23.23,0,0,0,.34-.09,1.22,1.22,0,0,1,.12-.19,4,4,0,0,1,.62-.68.89.89,0,0,1,1.24.2C12.62,3,12.81,3.09,13.14,3ZM16,6.76A1.49,1.49,0,0,0,16.74,5a1,1,0,0,0-1.19-.7c.13.25.23.5.57.58a.63.63,0,0,1,.52.66.81.81,0,0,1-.49.84C16,6.48,16,6.59,16,6.76Zm-3,3-.89-.49-.31.42,1,.53ZM10.3,8.18c-.27.36-.26.43.09.65l.29.17c.11.08.18,0,.24-.06s.15-.22,0-.32ZM9.53,9.29l0,0,.79-.2-.44-.3Zm2.32-.17-.6-.25-.07.18.18.11a1,1,0,0,1,.13.16c.09.12.17.11.25,0Zm.67,1.66c.07-.39,0-.44-.32-.54Z"/><path d="M7.33,20.81A5.23,5.23,0,0,1,7,20.36.27.27,0,0,1,7,20a.5.5,0,0,1,.35-.12c.1,0,.2.17.23.28a2.88,2.88,0,0,1,0,.59l.42-.38a.82.82,0,0,1,.2-.12.29.29,0,0,1,.41.08.28.28,0,0,1-.1.41c-.24.13-.49.22-.74.33a2.86,2.86,0,0,1,.42.22c.09.07.21.2.2.29a.39.39,0,0,1-.23.26.46.46,0,0,1-.33-.11,3,3,0,0,1-.33-.46,1.93,1.93,0,0,0,0,.23c0,.1,0,.21,0,.31s-.06.31-.27.28A.34.34,0,0,1,7,21.66a1.91,1.91,0,0,1,.16-.32,2.31,2.31,0,0,1,.16-.19l-.54.08c-.15,0-.29,0-.3-.21a.29.29,0,0,1,.26-.33,1.81,1.81,0,0,1,.4,0Z"/><path d="M17.69,2.92a1.57,1.57,0,0,1-.37.05.3.3,0,0,1-.21-.14.19.19,0,0,1,.19-.25c.13,0,.26,0,.39,0-.07-.11-.14-.21-.2-.32s0-.27.17-.33a.21.21,0,0,1,.29.18,3.15,3.15,0,0,1,0,.46c.12-.11.23-.22.35-.31s.33-.12.41,0,0,.27-.19.36-.29.1-.45.16a3.25,3.25,0,0,1,.37.21c.1.07.17.15.07.28s-.21.16-.33,0A2,2,0,0,1,17.93,3a3.48,3.48,0,0,1-.05.36c0,.12-.05.24-.21.2s-.24-.15-.18-.3A2.32,2.32,0,0,1,17.69,2.92Z"/><path d="M13.41,22.34a1.21,1.21,0,0,1-.34.05.3.3,0,0,1-.22-.15A.18.18,0,0,1,13,22a2.08,2.08,0,0,1,.41.05,1.35,1.35,0,0,1-.18-.26.41.41,0,0,1,0-.31.25.25,0,0,1,.25-.1.39.39,0,0,1,.18.25,1.4,1.4,0,0,1,0,.42l.21-.2a1.5,1.5,0,0,1,.25-.19.22.22,0,0,1,.32.07.2.2,0,0,1-.1.3,2.6,2.6,0,0,1-.34.16l-.21.06c.14.08.26.13.37.2s.2.16.08.29a.22.22,0,0,1-.35,0,2.54,2.54,0,0,1-.28-.34,2.34,2.34,0,0,1,0,.39c0,.1-.06.24-.2.18s-.2-.17-.19-.25A1.27,1.27,0,0,1,13.41,22.34Z"/><path d="M4.63,5A3.5,3.5,0,0,1,5,4.72c.12-.08.27-.13.36,0s0,.28-.15.34a4.17,4.17,0,0,1-.47.19l.36.2c.09.07.18.15.07.28s-.21.16-.33.06a3.63,3.63,0,0,1-.3-.35,2,2,0,0,1,0,.36c0,.11,0,.23-.2.21a.25.25,0,0,1-.2-.32,3.47,3.47,0,0,1,.21-.37A1.13,1.13,0,0,1,4,5.41c-.08,0-.21-.08-.23-.15A.19.19,0,0,1,4,5a2.85,2.85,0,0,1,.4,0,3.28,3.28,0,0,1-.2-.31.22.22,0,0,1,.14-.33c.15-.07.27,0,.31.17a.75.75,0,0,1,0,.21A1.7,1.7,0,0,1,4.63,5Z"/><path d="M17.3,12.67l-.37.05c-.12,0-.24,0-.22-.16a.32.32,0,0,1,.19-.22,1.44,1.44,0,0,1,.41,0,1.08,1.08,0,0,1-.19-.3.3.3,0,0,1,0-.26.31.31,0,0,1,.26-.09.32.32,0,0,1,.16.21,2.16,2.16,0,0,1,0,.45c.11-.1.18-.18.27-.25a.81.81,0,0,1,.27-.15.28.28,0,0,1,.24.1.25.25,0,0,1-.06.25,4.68,4.68,0,0,1-.55.27,2.74,2.74,0,0,1,.32.18c.1.07.22.15.09.3a.22.22,0,0,1-.36,0,3,3,0,0,1-.25-.32,3.27,3.27,0,0,1-.05.35c0,.12,0,.25-.22.22a.25.25,0,0,1-.18-.33A2.7,2.7,0,0,1,17.3,12.67Z"/><path d="M11.17,16.11l-.35.05c-.11,0-.22,0-.23-.16a.21.21,0,0,1,.21-.24c.13,0,.26,0,.4.05a1.2,1.2,0,0,1-.19-.29.32.32,0,0,1,0-.27.29.29,0,0,1,.26-.1.32.32,0,0,1,.16.21,2,2,0,0,1,0,.42c.14-.11.26-.23.4-.32s.27-.12.36,0,0,.26-.13.33-.31.12-.49.2l.31.17c.11.08.23.17.1.32a.22.22,0,0,1-.37,0c-.08-.09-.15-.2-.24-.32,0,.14,0,.25,0,.36s-.05.24-.21.21a.24.24,0,0,1-.19-.32A2,2,0,0,1,11.17,16.11Z"/><path d="M16.24,17.23l.13.58-.46.11-.14-.58Z"/><path d="M5.1,6.76l.13.59-.46.1-.13-.58Z"/><path d="M8.24,1.72l.47-.12.14.58-.47.11Z"/><path d="M3,3.75l.5-.28.23.39-.5.29Z"/><path d="M17.8,6.82l-.23-.39.5-.29.23.39Z"/><path d="M12.66,15.15l-.23-.39.5-.28.23.39Z"/><path d="M6.77,18.22l-.22-.4.5-.27.22.39Z"/><path d="M5.69,18.37l.22.4-.5.27-.22-.4Z"/><path d="M5,23.19l-.23-.4.5-.28.23.39Z"/><path d="M10,21.18l.28-.15.14-.07.12.2.1.21-.43.22Z"/><path d="M3.4,16.78l.07.28-.22.06-.07-.28Z"/><path d="M12.17,17.7l.06.28-.21.08-.08-.28Z"/><path d="M6.86,4.45l.06-.22.28.09-.07.22Z"/><path d="M16.34,20.94l-.26-.07.05-.21C16.45,20.7,16.45,20.71,16.34,20.94Z"/><path d="M2,7.91,2,7.69l.28.08L2.23,8Z"/><path d="M15.53,14.65l.26.08,0,.2C15.44,14.9,15.44,14.89,15.53,14.65Z"/><path d="M5.1,2.23,5,2.45l-.27-.08.06-.22Z"/><path d="M3.81,9.05l.25.07c0,.24,0,.25-.3.14Z"/><path d="M14.68,19.07l.06-.22.28.07-.07.22Z"/><path d="M6.13,12.59a.39.39,0,0,1-.43-.26.42.42,0,0,1,.19-.47.58.58,0,0,1,.67,0,.35.35,0,0,1,.13.41A.58.58,0,0,1,6.13,12.59Z"/><path d="M12.32,5.69A.36.36,0,0,1,12,5.32a.43.43,0,0,1,.43-.41.39.39,0,0,1,.36.39A.41.41,0,0,1,12.32,5.69Z"/></g><path class="cls-4" d="M15.91,8.16c.38,0,.73,0,1.09,0a1.55,1.55,0,0,1,.9.33,1,1,0,0,1,.34,1.24A3,3,0,0,1,17.13,11a6.37,6.37,0,0,1-2.49,1c-.27,0-.55.11-.83.14-.44,0-.88.05-1.38.07,0,.11-.13.28-.19.46,0,0,0,.08,0,.11a.78.78,0,0,1-.09.21S12,13,12,13.1a6.22,6.22,0,0,1-1.13,1.56A2.73,2.73,0,0,1,9,15.49a.38.38,0,0,0-.22.13,3.77,3.77,0,0,1-1.13,1,1.76,1.76,0,0,1-1.33.18,1,1,0,0,1-.69-.57,2.84,2.84,0,0,1-.15-1.86c0-.1.05-.2.07-.31-.17-.06-.24,0-.3.16a2.31,2.31,0,0,1-2,1.62,1.36,1.36,0,0,1-1.33-.66,2.64,2.64,0,0,1,1.22-3.82,5.33,5.33,0,0,1,1.07-.2c.84-.13,1.68-.25,2.51-.39,0,0,.1-.06.12-.11.16-.29.3-.57.45-.86,0-.07.07-.17,0-.23a3.73,3.73,0,0,1,0-2.51,7.68,7.68,0,0,1,.9-2A3.18,3.18,0,0,1,9.63,3.79a.22.22,0,0,0,.1-.18,1.7,1.7,0,0,1,.86-1.44,3.2,3.2,0,0,1,.85-.36A1.58,1.58,0,0,1,13,2.26a.9.9,0,0,1,.16.18,2.27,2.27,0,0,0,1.06.87,10.67,10.67,0,0,1,1.13.81.86.86,0,0,0,.28.11c.18,0,.36,0,.54.06a1.27,1.27,0,0,1,1.05,1.55,1.76,1.76,0,0,1-.94,1.38.42.42,0,0,0-.24.32A5.68,5.68,0,0,1,15.91,8.16Zm-9.25,5.9A4.78,4.78,0,0,0,8,15a2.44,2.44,0,0,0,1.21.25,2.54,2.54,0,0,0,1.71-1,8,8,0,0,0,1.59-3,.22.22,0,0,0,0-.16,6.75,6.75,0,0,0-1.05-1.5.27.27,0,0,0-.11-.05,1.84,1.84,0,0,0-.47,0c-.42.09-.82.21-1.23.31a2.05,2.05,0,0,1-.37,0,7,7,0,0,1-.78.44.61.61,0,0,1-.81-.24l-.12-.15-.43.83c.73.19.9.41.9,1.11a2.5,2.5,0,0,1,0,.55,1.8,1.8,0,0,1-.79,1.28C7,13.81,6.84,13.94,6.66,14.06Zm-4.83-.3c0,.2,0,.41.07.61a1.27,1.27,0,0,0,1.52,1.19,2.12,2.12,0,0,0,.74-.29A2.17,2.17,0,0,0,5.1,14c0-.06.07-.14.13-.15a1.17,1.17,0,0,1,.84.07.29.29,0,0,0,.24,0A2,2,0,0,0,7.73,12c0-.72-.27-1-1-.94H6.63l-2.31.37a5.84,5.84,0,0,0-1.12.21A2.17,2.17,0,0,0,1.83,13.76Zm13-4.63a2,2,0,0,0,.76-1,4.93,4.93,0,0,0,.25-2.44,2.17,2.17,0,0,0-.59-1.28,4.71,4.71,0,0,0-1.57-1.07.2.2,0,0,0-.15,0,1.05,1.05,0,0,1-.79.14,2,2,0,0,0-.49,0L11,3.76a.31.31,0,0,0-.23.43,8,8,0,0,1,.33,1.32,4.23,4.23,0,0,1-.42,2.3c-.08.16-.09.26.08.36a6.54,6.54,0,0,1,.52.4l.59.41,0,0a1.47,1.47,0,0,1-.37-1.34,1.9,1.9,0,0,1,2.12-1.71,2.33,2.33,0,0,1,1.78,1.28l.2-.08a1.92,1.92,0,0,1,0,.34c-.05.2-.13.39-.19.59A2.93,2.93,0,0,1,14.86,9.13ZM10.13,3.92A1.83,1.83,0,0,0,9.87,4a2.4,2.4,0,0,0-1.13.86A7,7,0,0,0,7.48,7.71a2.73,2.73,0,0,0,.11,1.74c.32.74.54.92,1.28.33a5.6,5.6,0,0,0,1.46-1.85c.09-.17.16-.35.26-.56a1.13,1.13,0,0,1-1.27-.56.43.43,0,0,1-.06-.33c.08-.34.18-.68.29-1C9.73,5,9.92,4.47,10.13,3.92ZM14,8.63l.06.07h.49l0,.31a1.45,1.45,0,0,0,.09-2.42l-.16-.13a1.67,1.67,0,0,0-2.15.16,1.65,1.65,0,0,0-.16,2.19l-.1.17a3.71,3.71,0,0,0,1.31.45,1.17,1.17,0,0,0,1.07-.36l-.79.06,0-.37-.54,0a.22.22,0,0,1-.17-.07c-.08-.19-.15-.39-.23-.6L13.06,8c.11.21.13.47.48.37s.4-.22.32-.5c0-.09,0-.19-.08-.28-.1-.38-.1-.37.22-.6a.2.2,0,0,1,.26,0c.19.15.39.27.57.41a.32.32,0,0,1,.12.18c.06.38.06.38-.3.53a1.11,1.11,0,0,0-.27.12C14.25,8.36,14.13,8.5,14,8.63Zm-1.43,3.21c.92.34,4.15-.56,4.68-1.31a1.2,1.2,0,0,1-1.42,0,1.75,1.75,0,0,1-.64-1.32,2.4,2.4,0,0,1-1.26.54c-.21,0-.38.06-.47.28s-.43.59-.46,1c0,.11-.05.19-.18.18s-.06,0-.08.09S12.63,11.65,12.57,11.84Zm-6.7,2.3a2.76,2.76,0,0,0,0,1.84.87.87,0,0,0,.8.61,1.63,1.63,0,0,0,.38,0,2.71,2.71,0,0,0,1.56-1.1l-.66-.23a5.1,5.1,0,0,1-1.35-.89.83.83,0,0,0-.3-.17A1.77,1.77,0,0,0,5.87,14.14Zm7.46-11a1.59,1.59,0,0,0-2.05-1c-.83.27-1.38,1-1.24,1.52a1.4,1.4,0,0,1,.29.09.23.23,0,0,0,.34-.09,2.12,2.12,0,0,1,.12-.2,4.47,4.47,0,0,1,.62-.68A.88.88,0,0,1,12.65,3C12.82,3.24,13,3.29,13.33,3.15ZM16.18,7a1.48,1.48,0,0,0,.76-1.72,1,1,0,0,0-1.19-.69c.13.25.23.5.57.58a.63.63,0,0,1,.52.66.81.81,0,0,1-.49.84C16.18,6.68,16.15,6.79,16.18,7Zm-3,3-.89-.49L12,9.87l1,.53ZM10.49,8.38c-.26.35-.25.42.1.65l.28.17a.15.15,0,0,0,.24-.06c.06-.1.15-.22,0-.32ZM9.73,9.49l0,0,.78-.2L10.11,9Zm2.32-.18-.6-.24-.07.18a.83.83,0,0,1,.17.11.7.7,0,0,1,.14.16c.09.12.17.11.24,0A1,1,0,0,0,12.05,9.31ZM12.72,11c.07-.4,0-.44-.33-.54Z"/><path class="cls-4" d="M7.52,21c-.11-.16-.22-.29-.31-.44a.27.27,0,0,1,0-.37.48.48,0,0,1,.35-.12c.1,0,.2.17.23.28a3.81,3.81,0,0,1,0,.59l.42-.38a.82.82,0,0,1,.2-.12.29.29,0,0,1,.41.08.28.28,0,0,1-.1.41c-.24.13-.5.22-.74.33a2.86,2.86,0,0,1,.42.22.47.47,0,0,1,.2.29.39.39,0,0,1-.23.26.43.43,0,0,1-.33-.12,2.51,2.51,0,0,1-.34-.45,1.41,1.41,0,0,1,0,.22,3.16,3.16,0,0,1,0,.32c0,.14-.06.31-.27.28a.34.34,0,0,1-.28-.42,1.2,1.2,0,0,1,.16-.32,2.31,2.31,0,0,1,.16-.19L7,21.43c-.16,0-.29,0-.3-.21a.29.29,0,0,1,.26-.33,1.36,1.36,0,0,1,.4,0C7.38,20.94,7.45,21,7.52,21Z"/><path class="cls-4" d="M17.89,3.12a1.64,1.64,0,0,1-.37,0A.3.3,0,0,1,17.31,3a.19.19,0,0,1,.19-.25c.13,0,.26,0,.39,0-.07-.11-.14-.21-.2-.32s0-.27.17-.33.26,0,.29.18,0,.29,0,.45c.12-.1.23-.21.35-.3s.33-.12.41,0,0,.27-.2.36-.28.1-.44.16a3.25,3.25,0,0,1,.37.21c.1.07.17.15.07.28s-.21.15-.33.05a2,2,0,0,1-.29-.34c0,.13,0,.25-.05.36s0,.24-.21.2a.24.24,0,0,1-.19-.31A2.85,2.85,0,0,1,17.89,3.12Z"/><path class="cls-4" d="M13.61,22.54a1.86,1.86,0,0,1-.34.05.3.3,0,0,1-.22-.15c-.05-.14,0-.24.19-.25a2.14,2.14,0,0,1,.41.06,1,1,0,0,1-.18-.26.41.41,0,0,1,0-.31.24.24,0,0,1,.25-.1.39.39,0,0,1,.18.25,1.75,1.75,0,0,1,0,.41,1.59,1.59,0,0,1,.2-.19,2.14,2.14,0,0,1,.26-.19.21.21,0,0,1,.31.07c.08.13,0,.23-.09.3a2.21,2.21,0,0,1-.35.16l-.2.06a4.13,4.13,0,0,1,.37.2c.1.07.19.16.07.29a.21.21,0,0,1-.34,0,2.14,2.14,0,0,1-.28-.35,2.35,2.35,0,0,1,0,.4c0,.1-.06.23-.2.17s-.2-.16-.19-.24A1.27,1.27,0,0,1,13.61,22.54Z"/><path class="cls-4" d="M4.82,5.24c.15-.12.27-.24.41-.33s.27-.12.36,0,0,.28-.15.34A4.21,4.21,0,0,1,5,5.47c.12.08.25.13.35.21s.18.15.08.28-.22.16-.33.06a3.63,3.63,0,0,1-.3-.35c0,.13,0,.24,0,.36s0,.23-.2.21a.25.25,0,0,1-.2-.32,2.32,2.32,0,0,1,.21-.37,1.59,1.59,0,0,1-.36.06C4.1,5.6,4,5.53,4,5.46a.2.2,0,0,1,.2-.25,2.91,2.91,0,0,1,.4,0A3.28,3.28,0,0,1,4.35,5c-.08-.16,0-.27.14-.34a.22.22,0,0,1,.31.18.75.75,0,0,1,0,.21A1.91,1.91,0,0,1,4.82,5.24Z"/><path class="cls-4" d="M17.5,12.87l-.37.05c-.12,0-.25,0-.22-.16a.3.3,0,0,1,.19-.22,1.47,1.47,0,0,1,.41,0,1.43,1.43,0,0,1-.2-.3.33.33,0,0,1,0-.26.23.23,0,0,1,.42.12,2.16,2.16,0,0,1,0,.45,1.94,1.94,0,0,1,.27-.25.61.61,0,0,1,.27-.15.2.2,0,0,1,.18.35,4.68,4.68,0,0,1-.55.27,3.27,3.27,0,0,1,.31.17c.11.08.22.16.1.31a.22.22,0,0,1-.36,0,3,3,0,0,1-.25-.32c0,.13,0,.24,0,.35s-.05.25-.22.21a.24.24,0,0,1-.18-.32A2.16,2.16,0,0,1,17.5,12.87Z"/><path class="cls-4" d="M11.37,16.31l-.35.05c-.11,0-.23,0-.23-.16A.2.2,0,0,1,11,16a2.6,2.6,0,0,1,.39.05,2.4,2.4,0,0,1-.19-.29.31.31,0,0,1,0-.27.28.28,0,0,1,.25-.1.3.3,0,0,1,.17.21,1.93,1.93,0,0,1,0,.42c.14-.11.27-.23.41-.33s.26-.11.35,0,0,.27-.12.34-.31.12-.49.19c.1.06.21.11.31.18s.23.17.1.32a.22.22,0,0,1-.37,0c-.08-.09-.15-.2-.24-.32,0,.13,0,.25,0,.36s-.05.24-.21.21a.23.23,0,0,1-.19-.32A2,2,0,0,1,11.37,16.31Z"/><path class="cls-4" d="M16.44,17.43l.13.58-.47.11L16,17.54Z"/><path class="cls-4" d="M5.3,7l.13.58L5,7.65l-.14-.58Z"/><path class="cls-4" d="M8.44,1.92,8.9,1.8l.15.58-.47.11Z"/><path class="cls-4" d="M3.16,4l.5-.28.23.39-.5.28Z"/><path class="cls-4" d="M18,7l-.23-.4.5-.28.23.39Z"/><path class="cls-4" d="M12.86,15.35,12.63,15l.5-.29.23.4Z"/><path class="cls-4" d="M7,18.42,6.75,18l.5-.28.22.4Z"/><path class="cls-4" d="M5.89,18.56l.22.4-.5.27-.23-.39Z"/><path class="cls-4" d="M5.23,23.39,5,23l.49-.28.24.39Z"/><path class="cls-4" d="M10.14,21.38l.28-.15.15-.07.12.2.1.21-.43.22Z"/><path class="cls-4" d="M3.6,17l.07.28-.22.06L3.38,17Z"/><path class="cls-4" d="M12.37,17.9l.06.28-.21.08L12.14,18Z"/><path class="cls-4" d="M7.06,4.65l.06-.22.28.08-.07.23Z"/><path class="cls-4" d="M16.53,21.14l-.25-.07,0-.21C16.64,20.9,16.65,20.9,16.53,21.14Z"/><path class="cls-4" d="M2.15,8.11l.07-.22L2.5,8l-.07.22Z"/><path class="cls-4" d="M15.72,14.85l.26.08-.05.2C15.64,15.1,15.63,15.09,15.72,14.85Z"/><path class="cls-4" d="M5.3,2.43l-.06.21L5,2.57,5,2.35Z"/><path class="cls-4" d="M4,9.24l.24.08c0,.24,0,.25-.3.13Z"/><path class="cls-4" d="M14.88,19.27l.06-.23.28.08-.07.22Z"/><path class="cls-4" d="M6.33,12.79a.39.39,0,0,1-.43-.26.39.39,0,0,1,.19-.47A.58.58,0,0,1,6.76,12a.34.34,0,0,1,.13.41A.58.58,0,0,1,6.33,12.79Z"/><path class="cls-4" d="M12.52,5.89a.36.36,0,0,1-.37-.37.43.43,0,0,1,.43-.41.37.37,0,0,1,.35.39A.4.4,0,0,1,12.52,5.89Z"/></g></g></svg>