<svg xmlns="http://www.w3.org/2000/svg" viewBox="0 0 38.55 24.66"><defs><style>.cls-1{isolation:isolate;}.cls-2{opacity:0.15;}.cls-2,.cls-3{mix-blend-mode:multiply;}.cls-4{fill:#fff;}</style></defs><title>convert-CUSTOMIZE-SVG-03</title><g class="cls-1"><g id="Layer_1" data-name="Layer 1"><g class="cls-2"><path d="M11.92,10.2A8.33,8.33,0,0,0,11,12.5h1.84a5.22,5.22,0,0,0-.6.52,2.67,2.67,0,0,0-.67,1.89q0,3.38,0,6.75a1.87,1.87,0,0,1-.18.73.81.81,0,0,1-.81.49H9.23a.77.77,0,0,1-.7-.39,1.46,1.46,0,0,1-.26-.83V14.9a2.59,2.59,0,0,0-.82-2.05c-.13-.12-.28-.21-.45-.34H9.54a7.87,7.87,0,0,0-1.4-4.26,2.79,2.79,0,0,1-1.47.57,1.9,1.9,0,0,1-1.45-.48c-.14.3-.43.33-.72.33A2.46,2.46,0,0,1,2,6.84c0-.08,0-.16-.08-.24s0-.29.21-.3a1,1,0,0,1-.35-1c0-.53.09-1,.17-1.57a1.43,1.43,0,0,1,.27-.57c.15-.24.28-.25.49-.06,0-.12.09-.24.14-.35a1.75,1.75,0,0,1,1.26-1,1,1,0,0,1,.37,0,4,4,0,0,0,1.82,0c.31-.09.47,0,.56.33,0,.09,0,.19.07.29s0,.17,0,.28a1.09,1.09,0,0,1,1,.17A2.91,2.91,0,0,1,9.25,4.27a1.79,1.79,0,0,1-.07,1.61c-.1.21-.17.43-.27.64a1.11,1.11,0,0,1-.18.19,1.78,1.78,0,0,1,.16.62A2,2,0,0,1,8.6,8a8.46,8.46,0,0,1,1.49,4.52c.33.07.33.06.41-.23a7.06,7.06,0,0,1,.86-2.13,1.86,1.86,0,0,0,.41-1.28,2.72,2.72,0,0,1,.1-.84,1.3,1.3,0,0,1,.18-.4c.1-.17.17-.19.38-.14a1.39,1.39,0,0,1,.77-.84c.28-.13.54,0,.81,0a7.49,7.49,0,0,0,.82,0c.36-.06.47,0,.55.36a1.33,1.33,0,0,0,0,.19A1.79,1.79,0,0,1,17,8.27c.36.67-.06,1.22-.32,1.8a.56.56,0,0,1-.15.81,2.39,2.39,0,0,1-1.12.62,1.68,1.68,0,0,1-1.21-.25,1.09,1.09,0,0,1-1,.12,1.61,1.61,0,0,1-1.15-.91C12,10.39,12,10.31,11.92,10.2ZM4.46,5.44A2.18,2.18,0,0,0,4.08,6a4.25,4.25,0,0,0-.14.82.43.43,0,0,0,.3.49,6.21,6.21,0,0,0,.8.26,2,2,0,0,0,1.83-.36,2.37,2.37,0,0,0,.72-1.43,1.37,1.37,0,0,0-.08-1,2.15,2.15,0,0,1-.68,1.39,1.3,1.3,0,0,1-2.3-.59S4.52,5.51,4.46,5.44Zm4.15,1,.32-.64a1.65,1.65,0,0,0,.2-1A2.44,2.44,0,0,0,8.07,3.25a3.22,3.22,0,0,0-.7-.33s-.19,0-.2.07c-.09.23,0,.75.27.88a.83.83,0,0,1,.54.7,4,4,0,0,1,0,1c-.06.58,0,.7.57.83ZM5.37,4.35a1.08,1.08,0,0,0-.14-.15,3.61,3.61,0,0,0-.44-.33c-.68-.44-1.17-.28-1.49.47a2.8,2.8,0,0,0,.06,2.25,1.29,1.29,0,0,0,.13.19,7.93,7.93,0,0,1,.14-.85A2.22,2.22,0,0,1,5.1,4.45ZM5.45,6a.76.76,0,0,0,.21.06A1.46,1.46,0,0,0,7,5.17a1.51,1.51,0,0,0-1.68-2c-.16,0-.32.06-.52.1l.47.35a3.93,3.93,0,0,1,1,1.1.74.74,0,0,1-.39,1.14Zm0,2,0,0c.09.11.15.26.26.31a2,2,0,0,0,1.21.21,3.15,3.15,0,0,0,1.47-.79c.48-.41.43-.73-.13-1h0c-.45-.18-.46-.25-.57.29a1,1,0,0,1-.52.72A2,2,0,0,1,5.42,8ZM3,4a1.87,1.87,0,0,1,1.48-1.3,7.93,7.93,0,0,1,1.38,0,5.31,5.31,0,0,1,.86.14V2.62l-.06-.29c-.07-.28-.11-.32-.37-.24a3.42,3.42,0,0,1-1.39,0A3.64,3.64,0,0,0,4.15,2,1.65,1.65,0,0,0,3,4ZM2.25,6.64c0,.05,0,.09,0,.13A2.19,2.19,0,0,0,4.62,8.39,1.17,1.17,0,0,0,5,8.25c-.08-.13-.15-.26-.23-.38s-.09,0-.13,0A3.89,3.89,0,0,0,4,7.72a.92.92,0,0,1-.86-.55A.87.87,0,0,0,2.25,6.64ZM15.77,8.9a1.76,1.76,0,0,1-.55.82.93.93,0,0,1-1.54-.4.43.43,0,0,0,0-.07.9.9,0,0,0-.32.87c0,.28.3.31.51.37A1.41,1.41,0,0,0,15.77,8.9Zm.71.87c.27-.46.53-.91.23-1.43a1.66,1.66,0,0,0-1.13-.92.5.5,0,0,0,.23.64,1,1,0,0,1,.31.5,2.78,2.78,0,0,1,0,.71C16.14,9.65,16.05,9.66,16.48,9.77ZM2.8,6.24c-.24-.65,0-1.31-.24-1.92,0,0,0-.07,0-.1,0-.27-.06-.54-.1-.81a.89.89,0,0,0-.19.34,5.35,5.35,0,0,0-.19,1.78C2.07,6,2.26,6.15,2.8,6.24ZM14.22,8.35a4.29,4.29,0,0,0-.5-.33.49.49,0,0,0-.76.22,1.76,1.76,0,0,0-.18,1.23c0,.14.09.29.13.43C13.17,8.93,13.29,8.78,14.22,8.35Zm.39,1.15A.86.86,0,0,0,15.33,9a1,1,0,0,0-.22-1.09A1.11,1.11,0,0,0,14,7.65l.4.34a3.32,3.32,0,0,1,.37.38C15.12,8.81,15.09,9.12,14.61,9.5ZM14.36,11c.05,0,.08.11.13.12a2.81,2.81,0,0,0,.75.13,1.52,1.52,0,0,0,.93-.43c.14-.12.37-.22.31-.45s-.3-.29-.51-.36h0C15.8,10.92,15.13,11,14.36,11ZM12.65,7.9c.63-1,1.55-.83,2.5-.68a2.23,2.23,0,0,1,0-.23c0-.12-.07-.14-.2-.14-.37,0-.74,0-1.11,0a1.93,1.93,0,0,0-.41,0A1,1,0,0,0,12.65,7.9Zm1.29,3.18c-.08-.3-.34-.3-.55-.31a.79.79,0,0,1-.72-.47.45.45,0,0,0-.49-.27A1.4,1.4,0,0,0,13.94,11.08ZM12.43,9.63l-.19-1.72h-.06a.64.64,0,0,0-.06.18c0,.37-.08.75-.09,1.12S12.11,9.55,12.43,9.63ZM5.52,2.85a2.24,2.24,0,0,0-1.95.65,1.06,1.06,0,0,1,.89-.1c-.07-.29.12-.37.31-.42S5.26,2.89,5.52,2.85ZM5.43,5.39c.14,0,.35,0,.36-.21a.43.43,0,0,0-.35-.38.47.47,0,0,0-.34.41C5.11,5.42,5.29,5.37,5.43,5.39Zm0,.3a1.57,1.57,0,0,1-.52-.23c-.19-.17,0-.41,0-.64l-.49.35a.37.37,0,0,1,.39.32,1.8,1.8,0,0,0,.14.36ZM6.86,3.08,6.1,2.92l.76.46ZM3.94,7.44,3.63,7l-.21.08A.65.65,0,0,0,3.94,7.44ZM14.52,9l0-.07c-.07-.07-.16-.2-.23-.2s-.15.14-.22.22l0,0Zm-.95-1.37.09-.23-.4.19,0,0ZM5.87,4.71l0,0-.28-.33-.07.2Z"/><path d="M12.12,10.4a8.21,8.21,0,0,0-.92,2.3H13a5.22,5.22,0,0,0-.6.52,2.62,2.62,0,0,0-.67,1.89q0,3.38,0,6.75a1.91,1.91,0,0,1-.18.73.81.81,0,0,1-.81.49c-.45,0-.89,0-1.34,0a.8.8,0,0,1-.71-.39,1.53,1.53,0,0,1-.25-.84V15.1a2.6,2.6,0,0,0-.83-2,4.51,4.51,0,0,0-.44-.35H9.74a7.87,7.87,0,0,0-1.4-4.25A2.79,2.79,0,0,1,6.87,9a1.94,1.94,0,0,1-1.45-.48c-.14.3-.43.33-.72.33A2.46,2.46,0,0,1,2.21,7c0-.08,0-.16-.08-.24s0-.3.2-.3a1.07,1.07,0,0,1-.34-1C2,5,2.08,4.49,2.16,4a1.51,1.51,0,0,1,.26-.56c.16-.25.28-.25.5-.06C3,3.23,3,3.11,3.06,3A1.78,1.78,0,0,1,4.32,2a1.2,1.2,0,0,1,.37,0A4.14,4.14,0,0,0,6.51,2c.3-.09.47,0,.56.33,0,.09,0,.19.07.28s0,.18,0,.29c.39-.19.7,0,1,.17A2.87,2.87,0,0,1,9.45,4.47a1.79,1.79,0,0,1-.07,1.61c-.1.21-.17.43-.27.63a.83.83,0,0,1-.18.19,1.89,1.89,0,0,1,.16.63,2.14,2.14,0,0,1-.29.62,8.34,8.34,0,0,1,1.48,4.52c.33.07.34.06.42-.23a7,7,0,0,1,.86-2.13A1.86,1.86,0,0,0,12,9a2.69,2.69,0,0,1,.1-.84,1.2,1.2,0,0,1,.18-.4c.1-.17.17-.19.38-.14a1.36,1.36,0,0,1,.77-.84c.28-.13.54,0,.81,0a4.5,4.5,0,0,0,.82,0c.36,0,.47,0,.55.37,0,.06,0,.13,0,.19a1.8,1.8,0,0,1,1.56,1.11c.36.68-.06,1.23-.32,1.81a.56.56,0,0,1-.15.81,2.29,2.29,0,0,1-1.12.61,1.59,1.59,0,0,1-1.21-.25,1.07,1.07,0,0,1-1,.13,1.61,1.61,0,0,1-1.15-.91ZM4.66,5.64a2.07,2.07,0,0,0-.38.5A4.55,4.55,0,0,0,4.13,7a.45.45,0,0,0,.31.5,5.74,5.74,0,0,0,.8.26,2,2,0,0,0,1.83-.36,2.31,2.31,0,0,0,.71-1.43,1.38,1.38,0,0,0-.07-1A2.22,2.22,0,0,1,7,6.31a1.31,1.31,0,0,1-2.31-.59Zm4.15,1L9.12,6a1.59,1.59,0,0,0,.21-1A2.44,2.44,0,0,0,8.27,3.45a3.22,3.22,0,0,0-.7-.33c-.05,0-.19,0-.2.07-.09.23,0,.75.27.87a.88.88,0,0,1,.54.71,4,4,0,0,1,0,1c-.06.58,0,.7.57.83ZM5.57,4.55c-.07-.07-.1-.12-.14-.15A2.81,2.81,0,0,0,5,4.07c-.68-.44-1.17-.29-1.49.47a2.8,2.8,0,0,0,.06,2.25A1.29,1.29,0,0,0,3.69,7a7.93,7.93,0,0,1,.14-.85A2.2,2.2,0,0,1,5.3,4.65ZM5.65,6.2l.21.06a1.46,1.46,0,0,0,1.3-.89,1.52,1.52,0,0,0-1.68-2L5,3.46l.47.35a3.93,3.93,0,0,1,1,1.1.74.74,0,0,1-.39,1.14Zm0,2,0,0c.09.11.15.26.26.31a1.94,1.94,0,0,0,1.21.2A3.09,3.09,0,0,0,8.52,8C9,7.53,9,7.22,8.39,7h0c-.46-.18-.47-.25-.57.29A1,1,0,0,1,7.28,8,2.06,2.06,0,0,1,5.62,8.18Zm-2.44-4a1.85,1.85,0,0,1,1.48-1.3A7.06,7.06,0,0,1,6,2.82,5.19,5.19,0,0,1,6.89,3a.74.74,0,0,0,0-.15c0-.09,0-.19,0-.29-.07-.28-.11-.31-.38-.23a3.37,3.37,0,0,1-1.38,0,3.64,3.64,0,0,0-.73-.09A1.65,1.65,0,0,0,3.18,4.17ZM2.45,6.84s0,.09,0,.13A2.18,2.18,0,0,0,4.81,8.59a1.11,1.11,0,0,0,.34-.14c-.08-.13-.15-.26-.23-.38A.26.26,0,0,0,4.78,8a5.25,5.25,0,0,0-.55-.09.94.94,0,0,1-.87-.55A.84.84,0,0,0,2.45,6.84ZM16,9.1a1.68,1.68,0,0,1-.55.81.93.93,0,0,1-1.54-.39.43.43,0,0,0,0-.07.87.87,0,0,0-.32.87c.05.28.3.31.51.37A1.41,1.41,0,0,0,16,9.1Zm.71.87c.27-.46.53-.91.23-1.43a1.66,1.66,0,0,0-1.13-.92.51.51,0,0,0,.22.64,1,1,0,0,1,.32.5,2.78,2.78,0,0,1,0,.71C16.34,9.85,16.25,9.86,16.68,10ZM3,6.43c-.24-.64,0-1.3-.24-1.91,0,0,0-.07,0-.11,0-.26-.07-.53-.1-.8a1.08,1.08,0,0,0-.2.34,5.62,5.62,0,0,0-.18,1.78C2.27,6.18,2.46,6.35,3,6.43ZM14.42,8.55c-.18-.12-.33-.25-.5-.34a.5.5,0,0,0-.76.23A1.75,1.75,0,0,0,13,9.67a4.14,4.14,0,0,0,.13.43A1.75,1.75,0,0,1,14.42,8.55Zm.39,1.15a.84.84,0,0,0,.71-.54,1,1,0,0,0-.21-1.08,1.12,1.12,0,0,0-1.15-.23c.16.13.29.23.41.34a3.32,3.32,0,0,1,.37.38C15.32,9,15.29,9.32,14.81,9.7Zm-.25,1.49c0,.05.08.11.13.12a3.28,3.28,0,0,0,.75.13,1.47,1.47,0,0,0,.92-.43c.15-.12.38-.22.32-.45s-.3-.29-.51-.36h-.05C16,11.12,15.33,11.21,14.56,11.19Zm-1.71-3.1c.63-1,1.55-.82,2.49-.67l0-.23c0-.12-.07-.15-.2-.14-.37,0-.74,0-1.11,0a2,2,0,0,0-.42,0A1,1,0,0,0,12.85,8.09Zm1.29,3.19c-.08-.31-.34-.3-.55-.31a.78.78,0,0,1-.72-.47.45.45,0,0,0-.49-.27A1.4,1.4,0,0,0,14.14,11.28ZM12.63,9.83l-.19-1.72h-.06a.64.64,0,0,0-.06.18c0,.37-.08.74-.09,1.12S12.31,9.75,12.63,9.83ZM5.71,3.05a2.23,2.23,0,0,0-1.94.65,1.06,1.06,0,0,1,.89-.1c-.08-.29.12-.37.31-.42S5.46,3.09,5.71,3.05ZM5.63,5.59c.13,0,.34,0,.36-.22A.42.42,0,0,0,5.64,5c-.13,0-.36.24-.35.41S5.49,5.57,5.63,5.59Zm0,.3a1.8,1.8,0,0,1-.52-.23c-.19-.17-.05-.41,0-.64l-.49.35A.36.36,0,0,1,5,5.69a1.8,1.8,0,0,0,.14.36ZM7.06,3.28,6.3,3.12l.76.46ZM4.13,7.63l-.3-.45-.22.08A.65.65,0,0,0,4.13,7.63Zm10.58,1.6,0-.07c-.07-.07-.16-.21-.23-.2s-.15.14-.22.22l0,.05Zm-.94-1.37.09-.23-.4.18,0,.05ZM6.07,4.91l0,0-.28-.33-.07.2Z"/></g><g class="cls-3"><path d="M11.78,10.06a8.27,8.27,0,0,0-.92,2.29H12.7a6.45,6.45,0,0,0-.6.53,2.62,2.62,0,0,0-.67,1.89q0,3.38,0,6.75a1.91,1.91,0,0,1-.18.73.81.81,0,0,1-.81.49c-.45,0-.89,0-1.34,0a.8.8,0,0,1-.71-.39,1.53,1.53,0,0,1-.25-.84V14.76a2.6,2.6,0,0,0-.83-2,4.51,4.51,0,0,0-.44-.35H9.4A7.87,7.87,0,0,0,8,8.11a2.79,2.79,0,0,1-1.47.57A1.94,1.94,0,0,1,5.08,8.2c-.14.3-.43.33-.72.33A2.46,2.46,0,0,1,1.87,6.7l-.08-.24c-.06-.17,0-.3.2-.3a1.07,1.07,0,0,1-.34-1c0-.53.09-1.06.17-1.58a1.63,1.63,0,0,1,.26-.57c.16-.24.28-.24.5-.05,0-.12.08-.24.14-.36A1.78,1.78,0,0,1,4,1.62a1.2,1.2,0,0,1,.37,0,4.14,4.14,0,0,0,1.82,0c.3-.09.47,0,.55.33,0,.09.06.19.08.28s0,.18,0,.29c.39-.19.7,0,1,.17A2.87,2.87,0,0,1,9.11,4.13,1.79,1.79,0,0,1,9,5.74c-.1.21-.17.43-.28.63a.65.65,0,0,1-.17.19,1.89,1.89,0,0,1,.16.63,2.14,2.14,0,0,1-.29.62,8.34,8.34,0,0,1,1.48,4.52c.33.07.34.06.42-.23A7,7,0,0,1,11.22,10a1.86,1.86,0,0,0,.41-1.28,2.69,2.69,0,0,1,.1-.84,1.2,1.2,0,0,1,.18-.4c.1-.17.17-.19.38-.15a1.37,1.37,0,0,1,.77-.83c.28-.13.54,0,.81,0a4.5,4.5,0,0,0,.82,0c.36,0,.47,0,.55.36,0,.07,0,.14,0,.2a1.8,1.8,0,0,1,1.56,1.11c.36.68-.06,1.23-.32,1.81a.56.56,0,0,1-.15.81,2.29,2.29,0,0,1-1.12.61A1.59,1.59,0,0,1,14,11.1a1.07,1.07,0,0,1-1,.13,1.61,1.61,0,0,1-1.15-.91C11.87,10.25,11.83,10.17,11.78,10.06ZM4.32,5.3a2.07,2.07,0,0,0-.38.5,4.55,4.55,0,0,0-.15.82.45.45,0,0,0,.31.5,5.74,5.74,0,0,0,.8.26A2,2,0,0,0,6.73,7a2.33,2.33,0,0,0,.71-1.43,1.38,1.38,0,0,0-.07-1A2.22,2.22,0,0,1,6.69,6a1.31,1.31,0,0,1-2.31-.59Zm4.15,1,.31-.64A1.59,1.59,0,0,0,9,4.7,2.44,2.44,0,0,0,7.93,3.11a3.22,3.22,0,0,0-.7-.33c-.05,0-.19,0-.2.07-.09.23,0,.75.27.87a.88.88,0,0,1,.54.71,4.45,4.45,0,0,1,0,1c-.06.58,0,.7.57.83ZM5.23,4.21c-.07-.07-.1-.12-.14-.15a2.81,2.81,0,0,0-.44-.33C4,3.29,3.48,3.44,3.16,4.2a2.8,2.8,0,0,0,.06,2.25,1.29,1.29,0,0,0,.13.19,7.93,7.93,0,0,1,.14-.85A2.2,2.2,0,0,1,5,4.31Zm.08,1.65.21.06A1.46,1.46,0,0,0,6.82,5,1.52,1.52,0,0,0,5.14,3l-.52.11.47.35a3.93,3.93,0,0,1,1,1.1.74.74,0,0,1-.39,1.14Zm0,2,0,0c.09.11.15.26.26.31a1.94,1.94,0,0,0,1.21.2,3.09,3.09,0,0,0,1.47-.78c.47-.42.43-.73-.13-1H8c-.46-.18-.47-.25-.57.29a1,1,0,0,1-.52.72A2.06,2.06,0,0,1,5.28,7.84Zm-2.44-4a1.85,1.85,0,0,1,1.48-1.3,7.06,7.06,0,0,1,1.38,0,5.19,5.19,0,0,1,.85.14.74.74,0,0,0,0-.15c0-.09,0-.19,0-.29-.07-.28-.11-.31-.38-.23A3.37,3.37,0,0,1,4.74,2,3.64,3.64,0,0,0,4,1.9,1.65,1.65,0,0,0,2.84,3.83ZM2.11,6.5s0,.09,0,.13A2.18,2.18,0,0,0,4.47,8.25a1.11,1.11,0,0,0,.34-.14c-.08-.13-.15-.26-.23-.38s-.09-.05-.14-.06a5.25,5.25,0,0,0-.55-.09A.94.94,0,0,1,3,7,.84.84,0,0,0,2.11,6.5ZM15.63,8.76a1.68,1.68,0,0,1-.55.81.93.93,0,0,1-1.54-.39.43.43,0,0,0,0-.07.87.87,0,0,0-.32.87c.05.28.3.31.51.37A1.41,1.41,0,0,0,15.63,8.76Zm.71.87c.27-.46.53-.91.23-1.43a1.66,1.66,0,0,0-1.14-.92.52.52,0,0,0,.23.64,1,1,0,0,1,.32.5,2.78,2.78,0,0,1,0,.71C16,9.51,15.91,9.52,16.34,9.63ZM2.66,6.09c-.24-.64,0-1.3-.24-1.91,0,0,0-.07,0-.11,0-.26-.07-.53-.1-.8a1.08,1.08,0,0,0-.2.34,5.62,5.62,0,0,0-.18,1.78C1.93,5.84,2.12,6,2.66,6.09ZM14.08,8.21a5,5,0,0,0-.51-.34.49.49,0,0,0-.75.23,1.75,1.75,0,0,0-.18,1.23,4.14,4.14,0,0,0,.13.43A1.75,1.75,0,0,1,14.08,8.21Zm.39,1.15a.84.84,0,0,0,.71-.54A1,1,0,0,0,15,7.74a1.12,1.12,0,0,0-1.15-.23c.16.13.29.23.41.34a3.32,3.32,0,0,1,.37.38C15,8.67,15,9,14.47,9.36Zm-.25,1.49c0,.05.08.11.13.12a3.28,3.28,0,0,0,.75.13,1.49,1.49,0,0,0,.92-.43c.15-.12.38-.22.32-.45s-.3-.29-.51-.36h-.05C15.66,10.78,15,10.87,14.22,10.85Zm-1.71-3.1c.63-1,1.55-.82,2.49-.67l0-.23c0-.12-.07-.15-.2-.14-.37,0-.74,0-1.11,0a1.51,1.51,0,0,0-.42,0A1,1,0,0,0,12.51,7.75Zm1.29,3.19c-.08-.31-.34-.3-.55-.31a.78.78,0,0,1-.72-.47A.45.45,0,0,0,12,9.89,1.4,1.4,0,0,0,13.8,10.94ZM12.29,9.49,12.1,7.77H12A.64.64,0,0,0,12,8c0,.37-.08.74-.09,1.12S12,9.41,12.29,9.49ZM5.37,2.71a2.23,2.23,0,0,0-1.94.65,1.06,1.06,0,0,1,.89-.1c-.08-.29.12-.37.31-.42S5.12,2.75,5.37,2.71ZM5.29,5.25c.13,0,.34,0,.36-.22a.42.42,0,0,0-.35-.37c-.13,0-.36.24-.35.41S5.15,5.23,5.29,5.25Zm0,.3a1.8,1.8,0,0,1-.52-.23c-.19-.17,0-.41,0-.64L4.27,5a.36.36,0,0,1,.39.32,1.8,1.8,0,0,0,.14.36ZM6.72,2.94,6,2.78l.76.46ZM3.79,7.29l-.3-.45-.22.08A.65.65,0,0,0,3.79,7.29Zm10.58,1.6,0-.07c-.07-.07-.16-.21-.23-.2s-.15.14-.22.21l0,.06Zm-.94-1.37.09-.23-.4.18,0,0ZM5.73,4.57l0,0L5.49,4.2l-.07.2Z"/></g><path class="cls-4" d="M12,10.26a8,8,0,0,0-.92,2.29h1.83c-.21.19-.42.34-.6.53A2.65,2.65,0,0,0,11.63,15c0,2.26,0,4.51,0,6.76a1.82,1.82,0,0,1-.18.72.8.8,0,0,1-.82.5c-.44,0-.89,0-1.33,0a.77.77,0,0,1-.71-.38,1.56,1.56,0,0,1-.25-.84V15a2.63,2.63,0,0,0-.83-2.05,4.74,4.74,0,0,0-.45-.35H9.6A8,8,0,0,0,8.2,8.31a2.82,2.82,0,0,1-1.47.57A2,2,0,0,1,5.28,8.4c-.15.3-.43.33-.72.33A2.46,2.46,0,0,1,2.07,6.9c0-.09,0-.17-.08-.25s0-.29.2-.29a1.08,1.08,0,0,1-.35-1c0-.52.1-1.05.18-1.57a1.63,1.63,0,0,1,.26-.57c.16-.24.28-.24.5,0,.05-.12.08-.24.13-.36a1.79,1.79,0,0,1,1.27-1,1,1,0,0,1,.37,0,4,4,0,0,0,1.82,0,.39.39,0,0,1,.55.33c0,.1,0,.2.07.29s0,.18,0,.29c.39-.19.7,0,1,.17A2.87,2.87,0,0,1,9.31,4.33a1.79,1.79,0,0,1-.07,1.61c-.1.21-.17.43-.28.63a.65.65,0,0,1-.17.19A1.83,1.83,0,0,1,9,7.39,2.27,2.27,0,0,1,8.66,8a8.42,8.42,0,0,1,1.48,4.52c.33.06.34.06.42-.24a6.76,6.76,0,0,1,.86-2.12,1.86,1.86,0,0,0,.4-1.29,3,3,0,0,1,.11-.83,1.18,1.18,0,0,1,.17-.4c.11-.17.18-.19.39-.15a1.37,1.37,0,0,1,.77-.83c.28-.13.54,0,.81,0a5.62,5.62,0,0,0,.82,0c.35-.05.47,0,.55.36,0,.07,0,.14,0,.2A1.82,1.82,0,0,1,17,8.32c.36.68-.06,1.23-.32,1.81a.54.54,0,0,1-.16.8,2.27,2.27,0,0,1-1.11.62,1.57,1.57,0,0,1-1.21-.25,1.07,1.07,0,0,1-1,.13,1.63,1.63,0,0,1-1.15-.91C12.07,10.45,12,10.37,12,10.26ZM4.52,5.5a2.07,2.07,0,0,0-.38.5A4.55,4.55,0,0,0,4,6.82a.45.45,0,0,0,.31.5,5.74,5.74,0,0,0,.8.26,2,2,0,0,0,1.83-.37,2.28,2.28,0,0,0,.71-1.42,1.37,1.37,0,0,0-.07-1,2.22,2.22,0,0,1-.68,1.39,1.31,1.31,0,0,1-2.31-.59Zm4.15,1L9,5.85a1.59,1.59,0,0,0,.21-.95A2.42,2.42,0,0,0,8.13,3.31,3,3,0,0,0,7.43,3a.22.22,0,0,0-.21.07c-.08.22,0,.74.28.87A.88.88,0,0,1,8,4.63a5,5,0,0,1,0,1c-.06.59,0,.71.57.84ZM5.43,4.41c-.07-.07-.1-.12-.14-.15a4.7,4.7,0,0,0-.44-.34c-.69-.43-1.18-.28-1.49.47a2.78,2.78,0,0,0,.06,2.26,1.29,1.29,0,0,0,.13.19c.05-.33.07-.6.13-.85A2.22,2.22,0,0,1,5.16,4.51ZM5.5,6.06l.22.06A1.48,1.48,0,0,0,7,5.23a1.52,1.52,0,0,0-1.69-2l-.51.11c.19.14.33.24.46.35a3.92,3.92,0,0,1,1,1.09A.75.75,0,0,1,5.91,5.9C5.79,6,5.66,6,5.5,6.06Zm0,2,0,0c.08.11.15.26.26.31a2,2,0,0,0,1.21.2,3.18,3.18,0,0,0,1.47-.78c.47-.42.43-.73-.14-1h0c-.46-.18-.47-.25-.57.29a1,1,0,0,1-.52.72A2.06,2.06,0,0,1,5.48,8ZM3,4A1.84,1.84,0,0,1,4.52,2.73,7.06,7.06,0,0,1,5.9,2.67a6.54,6.54,0,0,1,.85.14.65.65,0,0,0,0-.14,1.5,1.5,0,0,0-.06-.29c-.06-.28-.1-.31-.37-.24a3.38,3.38,0,0,1-1.38,0,3,3,0,0,0-.73-.09A1.63,1.63,0,0,0,3,4ZM2.31,6.7a.43.43,0,0,0,0,.12A2.18,2.18,0,0,0,4.67,8.45,1.06,1.06,0,0,0,5,8.31c-.07-.13-.14-.26-.22-.38a.22.22,0,0,0-.14-.06,3.44,3.44,0,0,0-.56-.09.94.94,0,0,1-.86-.55A.84.84,0,0,0,2.31,6.7ZM15.83,9a1.68,1.68,0,0,1-.55.81.93.93,0,0,1-1.54-.4.43.43,0,0,1,0-.07.87.87,0,0,0-.32.87c0,.28.3.32.51.38A1.41,1.41,0,0,0,15.83,9Zm.71.87c.27-.46.52-.91.23-1.44a1.71,1.71,0,0,0-1.14-.92.52.52,0,0,0,.23.65,1,1,0,0,1,.32.5,2.78,2.78,0,0,1,0,.71C16.2,9.71,16.11,9.71,16.54,9.83ZM2.85,6.29c-.23-.64,0-1.3-.23-1.91a.2.2,0,0,1,0-.11c0-.27-.07-.53-.1-.8a1,1,0,0,0-.2.34,5.35,5.35,0,0,0-.18,1.78C2.13,6,2.32,6.2,2.85,6.29ZM14.27,8.41a4.91,4.91,0,0,0-.5-.34c-.34-.18-.55-.1-.75.23a1.73,1.73,0,0,0-.18,1.22A2.44,2.44,0,0,0,13,10,1.74,1.74,0,0,1,14.27,8.41Zm.4,1.15A.84.84,0,0,0,15.38,9a1,1,0,0,0-.21-1.08A1.12,1.12,0,0,0,14,7.71a5.29,5.29,0,0,1,.41.34,4.31,4.31,0,0,1,.37.37C15.18,8.87,15.15,9.18,14.67,9.56Zm-.26,1.49c.06,0,.09.11.13.12a3.46,3.46,0,0,0,.76.13,1.58,1.58,0,0,0,.92-.43c.15-.12.38-.22.32-.46s-.3-.29-.51-.35H16C15.86,11,15.18,11.07,14.41,11.05ZM12.7,8c.64-1,1.56-.82,2.5-.67,0-.09,0-.16,0-.23s-.07-.15-.2-.14c-.37,0-.74,0-1.11,0a2,2,0,0,0-.42,0A1,1,0,0,0,12.7,8ZM14,11.14c-.09-.31-.34-.3-.55-.31a.8.8,0,0,1-.72-.47.44.44,0,0,0-.49-.27A1.4,1.4,0,0,0,14,11.14ZM12.49,9.69,12.3,8h-.06a.52.52,0,0,0-.06.19c0,.37-.08.74-.09,1.11S12.17,9.61,12.49,9.69ZM5.57,2.9a2.26,2.26,0,0,0-1.94.66,1,1,0,0,1,.88-.1c-.07-.29.12-.37.32-.42S5.32,3,5.57,2.9ZM5.49,5.45c.13,0,.34,0,.35-.22a.4.4,0,0,0-.34-.37c-.14,0-.36.24-.35.41S5.35,5.42,5.49,5.45Zm0,.3A1.8,1.8,0,0,1,5,5.52c-.19-.17-.06-.41,0-.64l-.5.35a.36.36,0,0,1,.4.32A1.8,1.8,0,0,0,5,5.91ZM6.91,3.14,6.16,3l.75.45ZM4,7.49,3.69,7l-.22.08A.65.65,0,0,0,4,7.49Zm10.58,1.6,0-.08c-.08-.07-.16-.2-.23-.19s-.15.14-.23.21l0,.06Zm-.94-1.37.09-.23-.4.18,0,0Zm-7.7-3,0,0L5.69,4.4l-.07.2Z"/></g></g></svg>