<svg xmlns="http://www.w3.org/2000/svg" viewBox="0 0 38.55 24.66"><defs><style>.cls-1{isolation:isolate;}.cls-2{opacity:0.15;}.cls-2,.cls-3{mix-blend-mode:multiply;}.cls-4{fill:#fff;}</style></defs><title>convert-CUSTOMIZE-SVG-03</title><g class="cls-1"><g id="Layer_1" data-name="Layer 1"><g class="cls-2"><path d="M1.59,22.08c-.25-.08-.5-.14-.73-.23a.24.24,0,0,1-.1-.19c0-.64,0-1.28,0-1.92V15.88a.75.75,0,0,1,.15-.46l3.45-4.9.11-.14a1.41,1.41,0,0,1,1.07.49,18.24,18.24,0,0,1,2.26,2.55,43.25,43.25,0,0,1,4.46,7,14.43,14.43,0,0,1,.66,1.69,2.29,2.29,0,0,1,0,.74s-.07.06-.11.08c-.7.26-1.4.54-2.11.77a3.52,3.52,0,0,1-.79.07c0-.33-.1-.62-.1-.91a9.79,9.79,0,0,1,.07-1.33,1.52,1.52,0,0,1,.47-.9L6.93,15.82l-.27.49a9.32,9.32,0,0,0-1,3.58,4.32,4.32,0,0,0,1.54,3.74l.09.1H6.77c-.37,0-.73,0-1.1,0a.36.36,0,0,1-.34-.16,5.13,5.13,0,0,1-1-3.59A12,12,0,0,1,6.11,14.7a.32.32,0,0,0,0-.36,17.42,17.42,0,0,1-1.4-2.84c-.08-.21-.13-.43-.2-.64A13.54,13.54,0,0,0,1.7,16.13,11.34,11.34,0,0,0,1.59,22.08Zm10.88.63L11,21.31c-.1.38-.22.74-.3,1.11a1,1,0,0,0,.1.72.21.21,0,0,0,.28.1C11.52,23.05,12,22.88,12.47,22.71Z"/><path d="M18.29,21.42l-.34,0c0-.17,0-.32,0-.47a2.37,2.37,0,0,0-1.09-2,4.77,4.77,0,0,0-2.16-.74c-.61-.07-1.23-.08-1.88-.11l0-.27h1.08a7,7,0,0,1,2.51.51,2.81,2.81,0,0,1,1.76,1.87A10.82,10.82,0,0,1,18.29,21.42Z"/><path d="M12.47,12.92l-.26-.13c.11-.11.2-.22.3-.31a12.71,12.71,0,0,0,1.85-2,5.69,5.69,0,0,0,1.13-3.09.37.37,0,0,1,0-.09h.27a4.87,4.87,0,0,1-.23,1.48,7.72,7.72,0,0,1-1.85,3L12.56,13Z"/><path d="M10.09,6.05l.28.08a30.12,30.12,0,0,1-1.83,4.93l-.26-.13A30.68,30.68,0,0,0,10.09,6.05Z"/><path d="M18.37,14.19v.3L16,14.63l-.05-.3Z"/><path d="M11.25,2.93l.8.2-.12.49-.79-.2Z"/><path d="M16.85,9.17l-.11-.48.79-.2.13.48Z"/><path d="M13.66,19.33l-.12-.48.8-.2.12.48Z"/><path d="M17.91,3.05l.9-1.16c.1.44-.11.84-.75,1.35Z"/><path d="M5.22,6.1l-.13.6-.46-.11L4.75,6Z"/><path d="M13.9,6.15l-.5.28L13.18,6l.49-.29Z"/><path d="M1.62,8.4,1.84,8l.5.28-.22.42Z"/><path d="M17.69,6.08l-.23-.41.5-.29.22.41Z"/><path d="M16.53,3.35l-.43.23-.22-.42.42-.24Z"/><path d="M17.37,16.57l.45.12-.12.48-.45-.12Z"/><path d="M3.44,2.6l.44-.12L4,3l-.44.11Z"/><path d="M8,3.88l.12-.49.45.12L8.43,4Z"/><path d="M15.11,22.34l-.23-.41.41-.24C15.23,21.93,15.4,22.17,15.11,22.34Z"/><path d="M14.69,1.85c.29-.05.3,0,.27.39h-.27Z"/><path d="M10.38,6.83l.22.06,0,.29-.23,0Z"/><path d="M7.54,8.09,7.82,8l.06.23-.27.08Z"/><path d="M16,10.92l-.06.23-.29-.08.07-.23Z"/><path d="M17.23,12.32l.26-.06a2.79,2.79,0,0,1,0,.29s-.14,0-.15,0A2.49,2.49,0,0,1,17.23,12.32Z"/><path d="M12.9,14.89l.23,0-.07.29-.22-.05Z"/><path d="M11,10.71l.23,0,.06.29-.22,0Z"/><path d="M1.79,22.28c-.25-.08-.5-.14-.73-.23C1,22,1,21.93,1,21.86V16.08a.8.8,0,0,1,.15-.47l3.45-4.89.1-.15a1.45,1.45,0,0,1,1.08.5A17.69,17.69,0,0,1,8,13.62a42.11,42.11,0,0,1,4.45,7,12.38,12.38,0,0,1,.67,1.69,2.05,2.05,0,0,1,0,.74s-.06.06-.1.08c-.7.26-1.4.54-2.11.77a3,3,0,0,1-.79.06A7.44,7.44,0,0,1,10,23a9.73,9.73,0,0,1,.07-1.32,1.52,1.52,0,0,1,.47-.9L7.12,16l-.26.49a9.15,9.15,0,0,0-1,3.58,4.29,4.29,0,0,0,1.54,3.74l.09.1H5.87a.36.36,0,0,1-.34-.16,5.14,5.14,0,0,1-1-3.59A12,12,0,0,1,6.31,14.9a.3.3,0,0,0,0-.36A18.2,18.2,0,0,1,4.92,11.7c-.08-.21-.14-.43-.2-.64A13.47,13.47,0,0,0,1.9,16.33,11.23,11.23,0,0,0,1.79,22.28Zm10.88.62-1.5-1.39c-.11.38-.23.74-.3,1.11a.92.92,0,0,0,.1.72.2.2,0,0,0,.27.1Z"/><path d="M18.49,21.62l-.34,0c0-.17,0-.32,0-.47a2.37,2.37,0,0,0-1.09-2,4.77,4.77,0,0,0-2.16-.74c-.61-.07-1.24-.08-1.89-.12L13,18c.37,0,.72,0,1.07,0a6.79,6.79,0,0,1,2.52.51,2.79,2.79,0,0,1,1.76,1.87A10.82,10.82,0,0,1,18.49,21.62Z"/><path d="M12.66,13.12,12.41,13c.11-.11.2-.22.3-.31a12.71,12.71,0,0,0,1.85-2,5.69,5.69,0,0,0,1.13-3.09.29.29,0,0,1,0-.09H16A4.64,4.64,0,0,1,15.74,9a7.69,7.69,0,0,1-1.84,3l-1.15,1.25Z"/><path d="M10.29,6.25l.28.08a30.12,30.12,0,0,1-1.83,4.93l-.27-.13A30.12,30.12,0,0,0,10.29,6.25Z"/><path d="M18.56,14.38v.31l-2.4.14-.05-.3Z"/><path d="M11.45,3.13l.8.2-.12.49-.8-.2Z"/><path d="M17.05,9.37l-.11-.49.79-.19.12.48Z"/><path d="M13.86,19.53l-.12-.48.8-.2.11.48Z"/><path d="M18.11,3.25,19,2.09c.1.44-.12.83-.75,1.35Z"/><path d="M5.42,6.3l-.13.59-.47-.1L5,6.19Z"/><path d="M14.09,6.35l-.5.28-.22-.41.5-.29Z"/><path d="M1.82,8.59,2,8.18l.51.28-.22.41Z"/><path d="M17.89,6.28l-.23-.41.5-.29.22.4Z"/><path d="M16.73,3.54l-.43.24-.23-.42.43-.24Z"/><path d="M17.57,16.76l.45.13-.12.48-.45-.12Z"/><path d="M3.63,2.8l.45-.12.12.49-.45.11Z"/><path d="M8.17,4.08l.12-.49.45.12-.11.48Z"/><path d="M15.3,22.54l-.22-.41.41-.24C15.43,22.13,15.6,22.37,15.3,22.54Z"/><path d="M14.89,2.05c.29,0,.3,0,.27.39h-.27Z"/><path d="M10.58,7l.22.06-.05.28-.23,0Z"/><path d="M7.74,8.29,8,8.21l.06.23-.27.08Z"/><path d="M16.16,11.12l-.06.23-.29-.08.07-.23Z"/><path d="M17.43,12.52l.26-.06a2.8,2.8,0,0,1,0,.29s-.14.05-.15,0A1.07,1.07,0,0,1,17.43,12.52Z"/><path d="M13.1,15.09l.22.05-.06.29-.22,0Z"/><path d="M11.18,10.91l.23,0,.06.28-.22,0Z"/></g><g class="cls-3"><path d="M1.45,21.94c-.25-.08-.5-.14-.74-.23a.24.24,0,0,1-.1-.19V15.74a.8.8,0,0,1,.15-.47l3.45-4.89.1-.15a1.45,1.45,0,0,1,1.08.5,17.69,17.69,0,0,1,2.26,2.55,42.11,42.11,0,0,1,4.45,7A12.38,12.38,0,0,1,12.77,22a2.05,2.05,0,0,1,0,.74s-.06.06-.1.08c-.7.26-1.4.54-2.11.77a3,3,0,0,1-.79.06,7.44,7.44,0,0,1-.1-.91,9.73,9.73,0,0,1,.07-1.32,1.52,1.52,0,0,1,.47-.9L6.78,15.68l-.26.49a9.15,9.15,0,0,0-1,3.58,4.29,4.29,0,0,0,1.54,3.74l.09.1H6.63c-.37,0-.74,0-1.1,0a.36.36,0,0,1-.34-.16,5.14,5.14,0,0,1-1-3.59A11.85,11.85,0,0,1,6,14.56a.3.3,0,0,0,0-.36,18.2,18.2,0,0,1-1.39-2.84c-.08-.21-.14-.43-.2-.65A13.73,13.73,0,0,0,1.55,16,11.33,11.33,0,0,0,1.45,21.94Zm10.88.62-1.5-1.39c-.11.38-.23.74-.3,1.11a.92.92,0,0,0,.1.72.2.2,0,0,0,.27.1Z"/><path d="M18.15,21.28l-.34,0v-.47a2.37,2.37,0,0,0-1.09-2,4.77,4.77,0,0,0-2.16-.74C14,18,13.32,18,12.67,17.93l0-.26c.37,0,.72,0,1.07,0a6.79,6.79,0,0,1,2.52.51A2.79,2.79,0,0,1,18,20.05,10.82,10.82,0,0,1,18.15,21.28Z"/><path d="M12.32,12.78l-.25-.13c.11-.11.2-.22.3-.31a12.71,12.71,0,0,0,1.85-2,5.69,5.69,0,0,0,1.13-3.09.29.29,0,0,1,0-.09h.27a4.64,4.64,0,0,1-.24,1.48,7.69,7.69,0,0,1-1.84,3l-1.15,1.25Z"/><path d="M10,5.91l.28.08A30.12,30.12,0,0,1,8.4,10.92l-.27-.13A30.12,30.12,0,0,0,10,5.91Z"/><path d="M18.22,14v.31l-2.4.14-.05-.3Z"/><path d="M11.11,2.79l.8.2-.12.49-.8-.2Z"/><path d="M16.71,9l-.11-.49.79-.19.12.48Z"/><path d="M13.52,19.19l-.12-.48.8-.2.11.48Z"/><path d="M17.77,2.91l.9-1.16c.1.44-.12.83-.75,1.35Z"/><path d="M5.08,6,5,6.55l-.47-.1.13-.6Z"/><path d="M13.75,6l-.5.28L13,5.88l.5-.29Z"/><path d="M1.47,8.25l.22-.41.51.28L2,8.53Z"/><path d="M17.55,5.94l-.23-.41.5-.29.22.4Z"/><path d="M16.39,3.2,16,3.44,15.73,3l.43-.24Z"/><path d="M17.23,16.42l.45.13-.12.48-.45-.12Z"/><path d="M3.29,2.46l.45-.12.12.49-.45.11Z"/><path d="M7.83,3.74,8,3.25l.45.12-.11.48Z"/><path d="M15,22.2l-.22-.41.41-.25C15.09,21.79,15.26,22,15,22.2Z"/><path d="M14.55,1.71c.29-.05.3,0,.27.39h-.27Z"/><path d="M10.24,6.69l.22.06L10.41,7l-.23,0Z"/><path d="M7.4,8l.27-.08.07.23-.27.08Z"/><path d="M15.82,10.78l-.06.23-.29-.08.07-.23Z"/><path d="M17.09,12.18l.26-.06a2.8,2.8,0,0,1,0,.29s-.14.05-.15,0A1.27,1.27,0,0,1,17.09,12.18Z"/><path d="M12.76,14.75l.22.05-.06.29L12.7,15Z"/><path d="M10.84,10.57l.23,0,.06.28-.22,0Z"/></g><path class="cls-4" d="M1.65,22.14c-.26-.08-.5-.14-.74-.23a.24.24,0,0,1-.1-.19V15.94A.68.68,0,0,1,1,15.47l3.45-4.89.1-.15a1.47,1.47,0,0,1,1.08.5,17.69,17.69,0,0,1,2.26,2.55,42.34,42.34,0,0,1,4.45,7A12.38,12.38,0,0,1,13,22.15a2.05,2.05,0,0,1,0,.74s-.06.06-.1.08c-.71.26-1.4.53-2.11.76a2.65,2.65,0,0,1-.79.07,7.44,7.44,0,0,1-.1-.91,9.65,9.65,0,0,1,.07-1.32,1.56,1.56,0,0,1,.46-.9L7,15.88c-.08.15-.17.31-.26.49a9.15,9.15,0,0,0-1,3.57,4.3,4.3,0,0,0,1.54,3.75l.09.1H5.73a.4.4,0,0,1-.34-.16,5.2,5.2,0,0,1-1-3.59,12,12,0,0,1,1.79-5.28.3.3,0,0,0,0-.36,19.19,19.19,0,0,1-1.4-2.84c-.07-.21-.13-.43-.19-.65a13.76,13.76,0,0,0-2.83,5.27A11.37,11.37,0,0,0,1.65,22.14Zm10.88.62L11,21.37c-.11.38-.23.74-.3,1.11a.93.93,0,0,0,.09.71.21.21,0,0,0,.28.11Z"/><path class="cls-4" d="M18.34,21.48l-.33,0V21a2.35,2.35,0,0,0-1.09-2,4.77,4.77,0,0,0-2.16-.74c-.62-.07-1.24-.08-1.89-.12l0-.26c.37,0,.72,0,1.07,0a7,7,0,0,1,2.52.5,2.79,2.79,0,0,1,1.75,1.88A8.75,8.75,0,0,1,18.34,21.48Z"/><path class="cls-4" d="M12.52,13l-.25-.13c.11-.12.2-.22.3-.31a13.2,13.2,0,0,0,1.85-2,5.69,5.69,0,0,0,1.13-3.1.31.31,0,0,1,0-.08h.27a4.93,4.93,0,0,1-.24,1.48,7.69,7.69,0,0,1-1.84,3c-.38.41-.76.83-1.15,1.24Z"/><path class="cls-4" d="M10.15,6.11l.28.08A30.12,30.12,0,0,1,8.6,11.12L8.33,11A31.08,31.08,0,0,0,10.15,6.11Z"/><path class="cls-4" d="M18.42,14.24v.31L16,14.69l0-.3Z"/><path class="cls-4" d="M11.31,3l.79.2L12,3.68l-.8-.2Z"/><path class="cls-4" d="M16.91,9.23l-.11-.49.79-.2.12.48Z"/><path class="cls-4" d="M13.72,19.39l-.12-.48.8-.21.11.49Z"/><path class="cls-4" d="M18,3.11,18.87,2c.1.43-.12.83-.75,1.35Z"/><path class="cls-4" d="M5.27,6.16l-.12.59-.47-.1L4.81,6Z"/><path class="cls-4" d="M14,6.2l-.5.29-.22-.41.5-.29Z"/><path class="cls-4" d="M1.67,8.45,1.89,8l.5.28-.21.41Z"/><path class="cls-4" d="M17.74,6.14l-.22-.41L18,5.44l.23.4Z"/><path class="cls-4" d="M16.58,3.4l-.42.24-.23-.42L16.35,3Z"/><path class="cls-4" d="M17.43,16.62l.44.12-.11.49-.45-.12Z"/><path class="cls-4" d="M3.49,2.66l.45-.12L4.06,3l-.45.11Z"/><path class="cls-4" d="M8,3.93l.12-.48.45.12-.11.48Z"/><path class="cls-4" d="M15.16,22.4,14.94,22l.41-.25C15.29,22,15.46,22.23,15.16,22.4Z"/><path class="cls-4" d="M14.75,1.91c.29,0,.3,0,.27.39h-.27Z"/><path class="cls-4" d="M10.44,6.89l.22.06-.05.28-.23,0Z"/><path class="cls-4" d="M7.6,8.15l.27-.09.07.24-.27.08Z"/><path class="cls-4" d="M16,11l-.07.23-.28-.08.07-.23Z"/><path class="cls-4" d="M17.29,12.38l.26-.06a1.36,1.36,0,0,1,0,.29s-.13.05-.14,0A1.27,1.27,0,0,1,17.29,12.38Z"/><path class="cls-4" d="M13,15l.22.05-.06.29-.22,0Z"/><path class="cls-4" d="M11,10.77l.22,0,.06.28-.21.05Z"/></g></g></svg>