<svg xmlns="http://www.w3.org/2000/svg" viewBox="0 0 38.55 24.66"><defs><style>.cls-1{isolation:isolate;}.cls-2{opacity:0.15;}.cls-2,.cls-3{mix-blend-mode:multiply;}.cls-4{fill:#fff;}</style></defs><title>convert-CUSTOMIZE-SVG-03</title><g class="cls-1"><g id="Layer_1" data-name="Layer 1"><g class="cls-2"><path d="M34.22,4.31a9.56,9.56,0,0,1,.88,2.41,1,1,0,0,1,0,.29L35,7a1.86,1.86,0,0,1-.23-.41c-.16-.6-.31-1.2-.46-1.81C34.27,4.65,34.25,4.48,34.22,4.31Z"/><path d="M23.63,21.65a1.69,1.69,0,0,1,.39-.22c.54-.15,1.1-.29,1.65-.42a5.87,5.87,0,0,1,.75-.12,9.18,9.18,0,0,1-2.73.88Z"/><path d="M15,3.16a2.1,2.1,0,0,1-.39.21c-.54.16-1.09.3-1.64.43a4.85,4.85,0,0,1-.75.11A8.8,8.8,0,0,1,14.9,3Z"/><path d="M25.81.91a1.67,1.67,0,0,1,.21.33c.16.56.31,1.13.45,1.69a4.6,4.6,0,0,1,.11.73A8.12,8.12,0,0,1,25.71,1Z"/><path d="M33.22.88a2.22,2.22,0,0,1,.24.4c.16.61.32,1.23.47,1.84,0,.17.06.34.09.54A5.47,5.47,0,0,1,33.22.88Z"/><path d="M4.53,4.29a9.74,9.74,0,0,1,.88,2.4,1.71,1.71,0,0,1,0,.32L5.32,7a1.73,1.73,0,0,1-.21-.34C5,6.15,4.8,5.59,4.66,5,4.6,4.79,4.57,4.54,4.53,4.29Z"/><path d="M4.33,3.62A5.3,5.3,0,0,1,3.51.87a2.11,2.11,0,0,1,.25.4c.16.53.29,1.06.43,1.59C4.25,3.11,4.28,3.37,4.33,3.62Z"/><path d="M25.81,17.66A1.8,1.8,0,0,1,26,18c.16.57.31,1.14.46,1.71.06.24.09.49.14.77A5.44,5.44,0,0,1,25.81,17.66Z"/><path d="M27.57,7a2.17,2.17,0,0,1-.24-.45c-.17-.65-.32-1.3-.47-1.95a3,3,0,0,1-.06-.36A5,5,0,0,1,27.57,7Z"/><path d="M22.42,3.13a2.13,2.13,0,0,1-.43.24c-.54.16-1.09.3-1.63.43-.25.06-.5.09-.77.13A5.79,5.79,0,0,1,22.42,3.13Z"/><path d="M19.36,4.24A8,8,0,0,1,20.26,7l-.1,0A1.67,1.67,0,0,1,20,6.7c-.15-.51-.29-1-.42-1.54C19.46,4.86,19.42,4.55,19.36,4.24Z"/><path d="M19,20.92c-.5.2-1,.4-1.51.58a9,9,0,0,1-.89.24,1.43,1.43,0,0,1-.36,0l0-.09a1.48,1.48,0,0,1,.38-.23L18.24,21c.24-.06.49-.09.74-.14Z"/><path d="M19.18,20.42a8.21,8.21,0,0,1-.9-2.73c.22,0,.26.15.3.26.14.45.28.89.39,1.34S19.11,20.05,19.18,20.42Z"/><path d="M23.6,4.93A2,2,0,0,1,24,4.7l1.61-.43c.26-.06.52-.09.81-.14A5.72,5.72,0,0,1,23.6,4.93Z"/><path d="M18.36.88a1.22,1.22,0,0,1,.22.34c.16.5.3,1,.43,1.52.08.31.11.62.17.95A5.92,5.92,0,0,1,18.36.88Z"/><path d="M12.76,23.78a1.43,1.43,0,0,1-.19-.24c-.12-.36-.25-.72-.34-1.09A13.74,13.74,0,0,1,12,21a8.84,8.84,0,0,1,.89,2.73Z"/><path d="M1.37,4.9a1.88,1.88,0,0,1,.36-.21l1.59-.42a5.23,5.23,0,0,1,.78-.11A8.75,8.75,0,0,1,1.42,5Z"/><path d="M3.53,17.63a2.07,2.07,0,0,1,.23.39c.15.52.29,1.05.43,1.58.06.25.09.51.14.79A5.51,5.51,0,0,1,3.53,17.63Z"/><path d="M4.58,21a9.12,9.12,0,0,1,.84,2.7l-.09,0a1,1,0,0,1-.2-.27C5,23,4.83,22.49,4.7,22c-.07-.31-.12-.63-.17-.94Z"/><path d="M8.79,21.66a1.22,1.22,0,0,1,.32-.2q.86-.24,1.71-.45c.24-.06.49-.09.74-.14l0,.07-2,.7a3.57,3.57,0,0,1-.47.11c-.11,0-.22,0-.33,0Z"/><path d="M31.06,21.64a2.4,2.4,0,0,1,.38-.21c.54-.15,1.09-.29,1.63-.42a4.8,4.8,0,0,1,.76-.11,9.1,9.1,0,0,1-2.72.87Z"/><path d="M31.06,4.9a1.32,1.32,0,0,1,.34-.2c.54-.15,1.07-.3,1.61-.43a5.18,5.18,0,0,1,.79-.11A8.9,8.9,0,0,1,31.11,5Z"/><path d="M4.13,20.87a5.4,5.4,0,0,1-2.78.82c.12-.09.2-.19.31-.22q.75-.22,1.5-.42C3.48,21,3.81,20.93,4.13,20.87Z"/><path d="M7.52,3.15a1.22,1.22,0,0,1-.32.2q-.86.24-1.71.45a4.55,4.55,0,0,1-.74.11A9,9,0,0,1,7.47,3Z"/><path d="M29.84,3.14a2.28,2.28,0,0,1-.46.24c-.61.17-1.22.31-1.84.46-.17,0-.34.06-.54.09A5.55,5.55,0,0,1,29.84,3.14Z"/><path d="M34,20.39a5.24,5.24,0,0,1-.83-2.75,1.38,1.38,0,0,1,.22.31c.13.38.25.77.35,1.16S33.94,20,34,20.39Z"/><path d="M37.25,3.14a2.13,2.13,0,0,1-.43.24L35,3.84c-.17,0-.34.06-.54.09A5.47,5.47,0,0,1,37.25,3.14Z"/><path d="M16.21,4.89a2.13,2.13,0,0,1,.45-.23c.65-.17,1.31-.32,2-.47A2.46,2.46,0,0,1,19,4.13,6.08,6.08,0,0,1,16.24,5Z"/><path d="M34.47,20.62a9.19,9.19,0,0,1,2.7-.83l0,.09a.94.94,0,0,1-.29.2c-.46.15-.94.29-1.41.41s-.68.12-1,.18Z"/><path d="M15,19.88a1.49,1.49,0,0,1-.37.22c-.53.16-1.07.3-1.6.43-.26.06-.53.1-.81.15A5.56,5.56,0,0,1,15,19.88Z"/><path d="M7.52,19.9a1.73,1.73,0,0,1-.34.21c-.53.15-1.07.29-1.61.42a4.08,4.08,0,0,1-.78.12,8.77,8.77,0,0,1,2.68-.87Z"/><path d="M11.77,3.74A5.86,5.86,0,0,1,10.94.87a2.17,2.17,0,0,1,.24.39c.15.51.29,1,.42,1.56C11.67,3.11,11.71,3.4,11.77,3.74Z"/><path d="M34.21,21A5.43,5.43,0,0,1,35,23.81a2.22,2.22,0,0,1-.24-.4c-.15-.53-.29-1.07-.42-1.6C34.3,21.56,34.26,21.3,34.21,21Z"/><path d="M12.74,7a1.67,1.67,0,0,1-.21-.33c-.16-.57-.31-1.15-.46-1.73a5.52,5.52,0,0,1-.1-.71A8.54,8.54,0,0,1,12.84,7Z"/><path d="M20.16,23.78a1.67,1.67,0,0,1-.21-.33c-.15-.52-.29-1-.42-1.57a5.34,5.34,0,0,1-.13-.8,6.22,6.22,0,0,1,.83,2.66Z"/><path d="M26.85,21.05a9.74,9.74,0,0,1,.85,2.68l-.1.05a1.22,1.22,0,0,1-.2-.28c-.15-.48-.29-1-.41-1.44-.09-.33-.13-.66-.19-1Z"/><path d="M8.79,4.89a2.13,2.13,0,0,1,.45-.23c.57-.16,1.14-.29,1.72-.43l.58-.1A6.14,6.14,0,0,1,8.82,5Z"/><path d="M22.37,19.9a1.88,1.88,0,0,1-.36.21q-.78.23-1.59.42a4.88,4.88,0,0,1-.78.12,8.83,8.83,0,0,1,2.69-.87Z"/><path d="M11.75,20.36a5,5,0,0,1-.8-2.73,1.45,1.45,0,0,1,.22.36c.16.53.3,1.06.43,1.59C11.66,19.83,11.7,20.1,11.75,20.36Z"/><path d="M29.8,19.91a2.79,2.79,0,0,1-.45.24c-.57.15-1.15.29-1.72.42a4.65,4.65,0,0,1-.58.1,6.29,6.29,0,0,1,2.72-.83Z"/><path d="M11.59,20.71a7.66,7.66,0,0,1-2-.76l0-.09a.86.86,0,0,1,.28,0l1.72.74Z"/><path d="M4.4,4.24a6.76,6.76,0,0,1-.78,2l-.08,0a1.75,1.75,0,0,1,0-.33c.24-.56.49-1.11.74-1.66Z"/><path d="M6.66,21.69a5.94,5.94,0,0,1-2-.83,6.18,6.18,0,0,1,2,.74Z"/><path d="M12,20.47a7.12,7.12,0,0,1,.76-2l.09,0a1.21,1.21,0,0,1-.05.34c-.24.56-.49,1.11-.74,1.65Z"/><path d="M25.87,6.27a3.52,3.52,0,0,1,.77-2A6.41,6.41,0,0,1,25.87,6.27Z"/><path d="M19.2,21A3.64,3.64,0,0,1,18.39,23a.7.7,0,0,1,0-.21A7.42,7.42,0,0,1,19.2,21Z"/><path d="M26.83,20.44a4,4,0,0,1,.81-2,1,1,0,0,1,0,.25A6.77,6.77,0,0,1,26.83,20.44Z"/><path d="M35,1.76a3.83,3.83,0,0,1-.78,1.94A5.28,5.28,0,0,1,35,1.76Z"/><path d="M4.53,3.7a7.31,7.31,0,0,1,.76-2l.09,0a1.12,1.12,0,0,1,0,.32c-.24.55-.49,1.1-.74,1.65Z"/><path d="M34.4,20.83a7.73,7.73,0,0,1,2,.76l0,.09a1,1,0,0,1-.29,0l-1.71-.74Z"/><path d="M14.12,5a6.87,6.87,0,0,1-2-.84A3.71,3.71,0,0,1,14.12,5Z"/><path d="M34.22,20.44a7.12,7.12,0,0,1,.76-2l.09,0a1.18,1.18,0,0,1,0,.27c-.24.57-.49,1.13-.74,1.7Z"/><path d="M19.58,4.11a6.36,6.36,0,0,1,2,.74v.08a1.47,1.47,0,0,1-.21,0A7.3,7.3,0,0,1,19.58,4.11Z"/><path d="M34.07,21.05A6.56,6.56,0,0,1,33.32,23h-.08a1.18,1.18,0,0,1,0-.27c.23-.55.48-1.11.72-1.66Z"/><path d="M6.66,5a6.1,6.1,0,0,1-1.92-.84,6.27,6.27,0,0,1,2,.73Z"/><path d="M19.24,4.28a7.6,7.6,0,0,1-.76,2l-.09,0a.8.8,0,0,1,0-.27c.24-.57.48-1.13.73-1.7Z"/><path d="M14.09,21.69a1.64,1.64,0,0,1-.32-.05c-.24-.09-.48-.18-.72-.29a10.36,10.36,0,0,1-.93-.5,6.45,6.45,0,0,1,2,.75Z"/><path d="M19,20.71A7.44,7.44,0,0,1,17,20l0-.09a.88.88,0,0,1,.29,0c.57.23,1.13.48,1.69.73Z"/><path d="M26.63,21A6.07,6.07,0,0,1,25.9,23l-.11,0A6,6,0,0,1,26.63,21Z"/><path d="M20.21,1.77a5.78,5.78,0,0,1-.78,1.94A3.89,3.89,0,0,1,20.21,1.77Z"/><path d="M26.83,3.69a5.9,5.9,0,0,1,.73-1.95l.08,0a.74.74,0,0,1,0,.21A6.93,6.93,0,0,1,26.83,3.69Z"/><path d="M11.82,4.27a7,7,0,0,1-.77,2H11a.81.81,0,0,1,0-.27c.24-.57.5-1.14.75-1.71Z"/><path d="M11,22.92A5.79,5.79,0,0,1,11.8,21a6.51,6.51,0,0,1-.74,2Z"/><path d="M4.38,21a7,7,0,0,1-.74,2l-.08,0a1,1,0,0,1,0-.24A7.34,7.34,0,0,1,4.38,21Z"/><path d="M4.16,20.71a7.38,7.38,0,0,1-2-.76l0-.09a1.27,1.27,0,0,1,.28,0l1.72.74Z"/><path d="M34.42,4.13a3.9,3.9,0,0,1,2,.8.8.8,0,0,1-.22,0A7.56,7.56,0,0,1,34.42,4.13Z"/><path d="M9.63,3.16a3.73,3.73,0,0,1,1.92.77A5.35,5.35,0,0,1,9.63,3.16Z"/><path d="M17.07,3.12a6,6,0,0,1,2,.79A3.84,3.84,0,0,1,17.07,3.12Z"/><path d="M33.8,3.94a6.53,6.53,0,0,1-1.91-.74V3.13a.82.82,0,0,1,.27,0l1.67.73Z"/><path d="M27,4.12a6.47,6.47,0,0,1,2,.72v.07a.75.75,0,0,1-.21,0A7.13,7.13,0,0,1,27,4.12Z"/><path d="M28.94,21.67A5.51,5.51,0,0,1,27,20.9,3.87,3.87,0,0,1,28.94,21.67Z"/><path d="M12,3.65a6,6,0,0,1,.71-1.91l.08,0a.88.88,0,0,1,0,.23A6.84,6.84,0,0,1,12,3.65Z"/><path d="M21.49,21.7a5.94,5.94,0,0,1-1.93-.84,6.55,6.55,0,0,1,2,.73Z"/><path d="M24.51,19.84a5.6,5.6,0,0,1,1.86.81,5.63,5.63,0,0,1-1.91-.7Z"/><path d="M19.41,20.42a6.34,6.34,0,0,1,.72-1.93l.08,0a.81.81,0,0,1,0,.22A6.38,6.38,0,0,1,19.41,20.42Z"/><path d="M26.4,3.92a6.09,6.09,0,0,1-1.93-.72V3.13a1,1,0,0,1,.25,0A7.3,7.3,0,0,1,26.4,3.92Z"/><path d="M33.23,6.2a1.29,1.29,0,0,1,0-.29c.24-.55.48-1.09.77-1.62a5.55,5.55,0,0,1-.71,1.93Z"/><path d="M33.86,20.69a6.57,6.57,0,0,1-2-.74l0-.08a1,1,0,0,1,.24,0A7.76,7.76,0,0,1,33.86,20.69Z"/><path d="M5.35,18.5a3.84,3.84,0,0,1-.75,1.89A4.14,4.14,0,0,1,5.35,18.5Z"/><path d="M2.17,3.09a6.62,6.62,0,0,1,2,.81A3.92,3.92,0,0,1,2.17,3.09Z"/><path d="M28.07,2.69a3.28,3.28,0,0,1,.88-1A3,3,0,0,1,28.07,2.69Z"/><path d="M18.2,2.75a3.09,3.09,0,0,1-1-.87A3.19,3.19,0,0,1,18.2,2.75Z"/><path d="M9.81,1.82l1,.9,0,0a4.55,4.55,0,0,1-1-.85Z"/><path d="M32.74,21.93a3.22,3.22,0,0,1-.86,1A2.78,2.78,0,0,1,32.74,21.93Z"/><path d="M6.67,6.12a3,3,0,0,1-1-.86A3.2,3.2,0,0,1,6.67,6.12Z"/><path d="M3.05,5.17a3.07,3.07,0,0,1-.87,1A3.09,3.09,0,0,1,3.05,5.17Z"/><path d="M9.55,6.22a4.43,4.43,0,0,1,.9-1.06A2.31,2.31,0,0,1,9.55,6.22Z"/><path d="M14.08,22.86a3,3,0,0,1-1-.86A3.29,3.29,0,0,1,14.08,22.86Z"/><path d="M14.14,18.44a4.6,4.6,0,0,1-.88,1l0,0,.82-1Z"/><path d="M20.66,19.43a3,3,0,0,1,.87-1A3.09,3.09,0,0,1,20.66,19.43Z"/><path d="M21.52,1.66a2.71,2.71,0,0,1-.83,1A2.79,2.79,0,0,1,21.52,1.66Z"/><path d="M25.62,19.49a3,3,0,0,1-1-.86A3.06,3.06,0,0,1,25.62,19.49Z"/><path d="M24.45,22.93a3.45,3.45,0,0,1,.87-1A2.49,2.49,0,0,1,24.45,22.93Z"/><path d="M28.92,6.11a3,3,0,0,1-1-.85A3,3,0,0,1,28.92,6.11Z"/><path d="M32,18.6a4.49,4.49,0,0,1,1,.88l0,.05L32,18.7Z"/><path d="M2.12,22.88l.87-1,.06,0a4.7,4.7,0,0,1-.83,1Z"/><path d="M6.66,22.86a3,3,0,0,1-1-.85A3.07,3.07,0,0,1,6.66,22.86Z"/><path d="M35.33,5.27a2.89,2.89,0,0,1,1,.85A2.89,2.89,0,0,1,35.33,5.27Z"/><path d="M3.35,19.5a4.27,4.27,0,0,1-1.06-.84C2.51,18.63,2.9,18.94,3.35,19.5Z"/><path d="M21.52,22.86a2.22,2.22,0,0,1-1-.83A2.88,2.88,0,0,1,21.52,22.86Z"/><path d="M35.51,2.67a2.9,2.9,0,0,1,.86-1A3,3,0,0,1,35.51,2.67Z"/><path d="M25.6,2.73a3.1,3.1,0,0,1-1-.85A2.8,2.8,0,0,1,25.6,2.73Z"/><path d="M31.89,6.21a2.05,2.05,0,0,1,.84-1A3.45,3.45,0,0,1,31.89,6.21Z"/><path d="M5.86,19.38a2.69,2.69,0,0,1,.82-1A2.68,2.68,0,0,1,5.86,19.38Z"/><path d="M17.18,18.63a3.57,3.57,0,0,1,1,.82A2.36,2.36,0,0,1,17.18,18.63Z"/><path d="M17.93,5.21l-.86,1.08C17,6,17.6,5.33,17.93,5.21Z"/><path d="M6.69,1.67a4,4,0,0,1-.86,1A2.32,2.32,0,0,1,6.69,1.67Z"/><path d="M2.32,1.89a2.52,2.52,0,0,1,1,.8A2.59,2.59,0,0,1,2.32,1.89Z"/><path d="M29,18.4a3.54,3.54,0,0,1-.86,1A2.49,2.49,0,0,1,29,18.4Z"/><path d="M17.89,21.92a3,3,0,0,1-.85,1A3,3,0,0,1,17.89,21.92Z"/><path d="M20.49,5.26a4.18,4.18,0,0,1,1.05.84C21.31,6.12,20.79,5.7,20.49,5.26Z"/><path d="M14.06,6.15a3.9,3.9,0,0,1-1-.83l.05-.06,1,.79Z"/><path d="M36.33,22.87a3.61,3.61,0,0,1-1-.83A2.22,2.22,0,0,1,36.33,22.87Z"/><path d="M36.38,18.4a3,3,0,0,1-.87,1A3,3,0,0,1,36.38,18.4Z"/><path d="M25.34,5.21l-.82,1C24.45,6,24.88,5.49,25.34,5.21Z"/><path d="M28.92,22.86a2.74,2.74,0,0,1-1-.83A2.93,2.93,0,0,1,28.92,22.86Z"/><path d="M32,1.88a2.94,2.94,0,0,1,1,.84A2.75,2.75,0,0,1,32,1.88Z"/><path d="M9.62,22.94a2.74,2.74,0,0,1,.83-1A3.05,3.05,0,0,1,9.62,22.94Z"/><path d="M9.75,18.64a2.9,2.9,0,0,1,1,.82A2.9,2.9,0,0,1,9.75,18.64Z"/><path d="M13.25,2.7a2.34,2.34,0,0,1,.91-1.07A4.45,4.45,0,0,1,13.25,2.7Z"/><path d="M17.1,20.71l-.94.22,0-.08A2,2,0,0,1,17.1,20.71Z"/><path d="M34.3,18.83l-.22-.93.07,0a2.72,2.72,0,0,1,.2.93Z"/><path d="M8.72,20.81l.95-.16v.06l-.94.22Z"/><path d="M34,23.91,33.87,23l.07,0,.22.93Z"/><path d="M22.45,4l-.95.17V4.1l.93-.23Z"/><path d="M15,4l-.94.17,0-.07L15,3.87Z"/><path d="M4.51,1.13,4.67,2h0a2.74,2.74,0,0,1-.2-.9Z"/><path d="M24.51,20.72l-.93.21A1.06,1.06,0,0,1,24.51,20.72Z"/><path d="M31,20.81l.94-.16,0,.06-.93.22Z"/><path d="M26.88,2.1l-.22-1,.08,0a3.15,3.15,0,0,1,.19,1Z"/><path d="M34,7.15l-.17-.94.06,0,.23.93Z"/><path d="M4.35,7.15l-.17-1h.06l.23.93Z"/><path d="M4.61,18.83l-.22-.93.08,0A1.9,1.9,0,0,1,4.61,18.83Z"/><path d="M4.24,22.93l.23.95-.07,0a2.86,2.86,0,0,1-.22-1Z"/><path d="M6.66,4.09l.93-.22,0,.12-.94.17Z"/><path d="M26.78,17.87l.17,1h-.06l-.24-1Z"/><path d="M2.24,20.72l-.93.21,0-.11.93-.17Z"/><path d="M37.3,4l-.93.17,0-.07.92-.22Z"/><path d="M28.93,4.09l.91-.22,0,.12L29,4.16Z"/><path d="M11.93,1.12l.16.91-.07,0-.21-.9Z"/><path d="M11.78,7.15a4.1,4.1,0,0,1-.1-.48,1.29,1.29,0,0,1,0-.48l.23.93Z"/><path d="M26.52,6.23l.21.89-.08,0a2.78,2.78,0,0,1-.19-.9Z"/><path d="M11.77,23.9l-.17-1h.06l.23,1Z"/><path d="M26.52,23l.21.92-.11,0L26.45,23Z"/><path d="M34.2,1.13l.17,1H34.3l-.23-.94Z"/><path d="M11.93,17.87l.16.91H12l-.21-.89Z"/><path d="M29.87,20.75,29,20.9l0-.07.88-.2Z"/><path d="M1.3,4.06l.88-.15L2.2,4l-.88.2Z"/><path d="M19.36,1.13l.15.88h-.08l-.19-.87Z"/><path d="M6.7,20.83l.93-.21A1.13,1.13,0,0,1,6.7,20.83Z"/><path d="M9.61,4l-.87.18,0-.11L9.6,3.9Z"/><path d="M24.47,4l-.88.19,0-.11.9-.16Z"/><path d="M19.19,23.9,19,23l.08,0,.2.88Z"/><path d="M15,20.75l-.89.15v-.07l.88-.2Z"/><path d="M19.19,7.14,19,6.28l.08,0,.2.86Z"/><path d="M19.43,18.76l-.19-.86A.94.94,0,0,1,19.43,18.76Z"/><path d="M16.15,4.06,17,3.9l0,.08-.89.19Z"/><path d="M36.39,20.82l.88-.19,0,.08a2.42,2.42,0,0,1-.88.17Z"/><path d="M31,4.06l.89-.16,0,.08-.89.2Z"/><path d="M21.56,20.82l.86-.19,0,.08a2.22,2.22,0,0,1-.88.17Z"/><path d="M34.42,4.5a9.77,9.77,0,0,1,.88,2.42,1,1,0,0,1,0,.29l-.08,0a1.6,1.6,0,0,1-.23-.4c-.16-.6-.31-1.2-.46-1.81C34.47,4.85,34.45,4.68,34.42,4.5Z"/><path d="M23.83,21.85a1.69,1.69,0,0,1,.39-.22l1.65-.43a6,6,0,0,1,.74-.11,9.09,9.09,0,0,1-2.73.88Z"/><path d="M15.15,3.36a2.1,2.1,0,0,1-.39.21c-.54.16-1.09.29-1.65.43a4.55,4.55,0,0,1-.74.11,9.09,9.09,0,0,1,2.73-.88Z"/><path d="M26,1.1a1.51,1.51,0,0,1,.2.34c.17.56.31,1.13.46,1.69a3.57,3.57,0,0,1,.1.73,8.6,8.6,0,0,1-.87-2.71Z"/><path d="M33.42,1.08a1.69,1.69,0,0,1,.23.4c.17.61.32,1.23.47,1.84a4,4,0,0,1,.1.54A5.37,5.37,0,0,1,33.42,1.08Z"/><path d="M4.73,4.49a10.62,10.62,0,0,1,.88,2.4,1.71,1.71,0,0,1,0,.32l-.09,0a1.57,1.57,0,0,1-.21-.34C5.15,6.35,5,5.79,4.86,5.23,4.8,5,4.77,4.74,4.73,4.49Z"/><path d="M4.52,3.82a5.37,5.37,0,0,1-.81-2.75,1.84,1.84,0,0,1,.25.4q.23.8.42,1.59A6.75,6.75,0,0,1,4.52,3.82Z"/><path d="M26,17.86a2,2,0,0,1,.2.31c.16.57.31,1.14.46,1.71.06.24.08.49.13.77A5.52,5.52,0,0,1,26,17.86Z"/><path d="M27.77,7.23a2,2,0,0,1-.24-.45c-.17-.64-.32-1.29-.47-1.94A3,3,0,0,1,27,4.48,5,5,0,0,1,27.77,7.23Z"/><path d="M22.62,3.33a2.85,2.85,0,0,1-.43.24L20.56,4l-.77.13A5.79,5.79,0,0,1,22.62,3.33Z"/><path d="M19.56,4.44a8,8,0,0,1,.9,2.75l-.1,0a1.67,1.67,0,0,1-.21-.33c-.15-.51-.29-1-.42-1.55C19.66,5.05,19.62,4.75,19.56,4.44Z"/><path d="M19.19,21.12c-.5.2-1,.4-1.51.58a9,9,0,0,1-.89.24,1.45,1.45,0,0,1-.36,0l0-.09a1.79,1.79,0,0,1,.38-.22l1.65-.43.74-.13Z"/><path d="M19.38,20.62a8.21,8.21,0,0,1-.9-2.73c.21,0,.26.15.3.26.14.44.27.89.38,1.34S19.31,20.24,19.38,20.62Z"/><path d="M23.8,5.12a2.55,2.55,0,0,1,.37-.22c.53-.15,1.07-.3,1.61-.43.25-.06.52-.09.81-.15A5.62,5.62,0,0,1,23.8,5.12Z"/><path d="M18.56,1.08a1.22,1.22,0,0,1,.22.34c.16.5.3,1,.43,1.52.07.3.11.62.17,1A5.92,5.92,0,0,1,18.56,1.08Z"/><path d="M13,24a.84.84,0,0,1-.19-.24c-.12-.35-.25-.71-.34-1.08a14.23,14.23,0,0,1-.27-1.45A8.48,8.48,0,0,1,13,23.93Z"/><path d="M1.57,5.1a1.88,1.88,0,0,1,.36-.21l1.59-.42a5.23,5.23,0,0,1,.78-.11,8.75,8.75,0,0,1-2.68.86Z"/><path d="M3.73,17.83a2.4,2.4,0,0,1,.23.38q.23.79.42,1.59c.07.25.1.51.15.78A5.35,5.35,0,0,1,3.73,17.83Z"/><path d="M4.78,21.22a9.52,9.52,0,0,1,.84,2.7l-.09,0a.9.9,0,0,1-.2-.28c-.15-.5-.3-1-.43-1.51-.08-.31-.12-.63-.18-.94Z"/><path d="M9,21.86a1.07,1.07,0,0,1,.32-.2L11,21.2c.24-.06.49-.08.74-.13l0,.07-2,.69a2.49,2.49,0,0,1-.47.12c-.11,0-.22,0-.34,0Z"/><path d="M31.26,21.84a2.4,2.4,0,0,1,.38-.21c.54-.15,1.09-.29,1.63-.42a6.33,6.33,0,0,1,.76-.12,8.84,8.84,0,0,1-2.72.88Z"/><path d="M31.26,5.1a1.32,1.32,0,0,1,.34-.2c.54-.16,1.07-.3,1.61-.43A5.23,5.23,0,0,1,34,4.36a8.75,8.75,0,0,1-2.68.86Z"/><path d="M4.33,21.07a5.36,5.36,0,0,1-2.78.81c.12-.08.2-.18.31-.21q.74-.23,1.5-.42C3.68,21.17,4,21.13,4.33,21.07Z"/><path d="M7.72,3.35a1.55,1.55,0,0,1-.32.2L5.69,4A4.55,4.55,0,0,1,5,4.11a9,9,0,0,1,2.72-.88Z"/><path d="M30,3.34a2.57,2.57,0,0,1-.46.24c-.61.17-1.22.31-1.84.46-.17,0-.34.06-.54.09A5.55,5.55,0,0,1,30,3.34Z"/><path d="M34.22,20.59a5.3,5.3,0,0,1-.82-2.75,1.61,1.61,0,0,1,.22.3c.13.39.25.78.35,1.17S34.14,20.16,34.22,20.59Z"/><path d="M37.45,3.34a2.77,2.77,0,0,1-.43.24L35.16,4c-.17,0-.35.06-.55.09A5.53,5.53,0,0,1,37.45,3.34Z"/><path d="M16.41,5.09a2.13,2.13,0,0,1,.45-.23c.65-.17,1.31-.32,2-.48l.33,0a6.12,6.12,0,0,1-2.73.83Z"/><path d="M34.67,20.81a9.48,9.48,0,0,1,2.7-.82l0,.09a.94.94,0,0,1-.29.2c-.47.15-.94.29-1.41.4s-.68.13-1,.19Z"/><path d="M15.18,20.08a1.49,1.49,0,0,1-.37.22c-.53.16-1.07.3-1.6.43-.26.06-.53.1-.82.15A5.62,5.62,0,0,1,15.18,20.08Z"/><path d="M7.72,20.1a1.32,1.32,0,0,1-.34.2c-.53.16-1.07.3-1.61.43a5.06,5.06,0,0,1-.78.12A8.77,8.77,0,0,1,7.67,20Z"/><path d="M12,3.94a5.89,5.89,0,0,1-.84-2.87,1.8,1.8,0,0,1,.25.39c.15.51.29,1,.42,1.56C11.87,3.31,11.91,3.6,12,3.94Z"/><path d="M34.41,21.2A5.43,5.43,0,0,1,35.22,24a2.22,2.22,0,0,1-.24-.4c-.15-.53-.29-1.07-.42-1.61A7.18,7.18,0,0,1,34.41,21.2Z"/><path d="M12.94,7.23a1.67,1.67,0,0,1-.21-.33c-.16-.58-.31-1.15-.46-1.73a4.19,4.19,0,0,1-.1-.71A8.71,8.71,0,0,1,13,7.19Z"/><path d="M20.36,24a1.67,1.67,0,0,1-.21-.33c-.15-.52-.29-1-.42-1.57a7,7,0,0,1-.14-.8,5.92,5.92,0,0,1,.83,2.66Z"/><path d="M27.05,21.25a9.63,9.63,0,0,1,.85,2.68l-.1.05a1.08,1.08,0,0,1-.2-.29c-.15-.47-.29-1-.41-1.43s-.13-.67-.19-1Z"/><path d="M9,5.09a2.06,2.06,0,0,1,.44-.23c.57-.16,1.15-.3,1.72-.43l.59-.1A6.14,6.14,0,0,1,9,5.16Z"/><path d="M22.57,20.1a1.88,1.88,0,0,1-.36.21q-.8.23-1.59.42a5.05,5.05,0,0,1-.78.11A9,9,0,0,1,22.52,20Z"/><path d="M11.94,20.56a5,5,0,0,1-.79-2.73,1.45,1.45,0,0,1,.22.36c.16.53.3,1,.43,1.58C11.86,20,11.9,20.3,11.94,20.56Z"/><path d="M30,20.11a2.79,2.79,0,0,1-.45.24c-.57.15-1.15.29-1.72.42a5,5,0,0,1-.58.1A6.21,6.21,0,0,1,30,20Z"/><path d="M11.79,20.9a7.29,7.29,0,0,1-2-.75l0-.09a.86.86,0,0,1,.28,0l1.71.74Z"/><path d="M4.6,4.44a6.76,6.76,0,0,1-.78,2l-.08,0a1.86,1.86,0,0,1,0-.34c.24-.55.49-1.1.74-1.65Z"/><path d="M6.86,21.89a6.16,6.16,0,0,1-2-.83,6.41,6.41,0,0,1,2,.73Z"/><path d="M12.14,20.67a7.66,7.66,0,0,1,.76-2l.1,0a1.74,1.74,0,0,1-.05.34c-.24.56-.49,1.1-.74,1.65Z"/><path d="M26.06,6.46a3.54,3.54,0,0,1,.78-2A6.06,6.06,0,0,1,26.06,6.46Z"/><path d="M19.4,21.21a3.57,3.57,0,0,1-.81,1.94,1.33,1.33,0,0,1,0-.2A7.88,7.88,0,0,1,19.4,21.21Z"/><path d="M27,20.64a4,4,0,0,1,.81-1.95,1,1,0,0,1,0,.25A6.94,6.94,0,0,1,27,20.64Z"/><path d="M35.21,2a3.66,3.66,0,0,1-.78,1.94A5.65,5.65,0,0,1,35.21,2Z"/><path d="M4.73,3.9a7.64,7.64,0,0,1,.75-2l.1,0a1,1,0,0,1,0,.31c-.23.56-.48,1.11-.73,1.66Z"/><path d="M34.6,21a7.38,7.38,0,0,1,2,.76l0,.09a1,1,0,0,1-.29,0l-1.71-.74Z"/><path d="M14.32,5.16a7,7,0,0,1-2-.84A3.75,3.75,0,0,1,14.32,5.16Z"/><path d="M34.42,20.64a6.82,6.82,0,0,1,.76-1.95l.09,0a1.18,1.18,0,0,1,0,.27c-.24.57-.49,1.13-.74,1.7Z"/><path d="M19.78,4.31a6.45,6.45,0,0,1,2,.74v.08a.72.72,0,0,1-.21,0A6.9,6.9,0,0,1,19.78,4.31Z"/><path d="M34.27,21.25a6.85,6.85,0,0,1-.75,1.91h-.08a.61.61,0,0,1,0-.27c.23-.56.48-1.11.72-1.67Z"/><path d="M6.85,5.15a6.05,6.05,0,0,1-1.92-.83,6.24,6.24,0,0,1,2,.73Z"/><path d="M19.43,4.47a7,7,0,0,1-.75,2l-.09,0a.74.74,0,0,1,0-.26c.24-.57.49-1.13.74-1.7Z"/><path d="M14.29,21.88a1.65,1.65,0,0,1-.32,0c-.24-.09-.49-.18-.72-.29a10.36,10.36,0,0,1-.93-.5,6.15,6.15,0,0,1,2,.75Z"/><path d="M19.21,20.9a7.29,7.29,0,0,1-2-.75l0-.1a2.54,2.54,0,0,1,.29,0l1.69.74Z"/><path d="M26.83,21.23a6.16,6.16,0,0,1-.73,1.94L26,23.12A5.83,5.83,0,0,1,26.83,21.23Z"/><path d="M20.41,2a6,6,0,0,1-.78,1.94A3.89,3.89,0,0,1,20.41,2Z"/><path d="M27,3.89a6.15,6.15,0,0,1,.74-1.95h.08a1.47,1.47,0,0,1,0,.21A6.86,6.86,0,0,1,27,3.89Z"/><path d="M12,4.47a6.82,6.82,0,0,1-.76,2h-.07a.81.81,0,0,1,0-.27c.24-.57.49-1.14.74-1.71Z"/><path d="M11.15,23.12A5.88,5.88,0,0,1,12,21.2a6.33,6.33,0,0,1-.73,2Z"/><path d="M4.58,21.19a6.79,6.79,0,0,1-.74,2H3.76a1,1,0,0,1,0-.24A7.34,7.34,0,0,1,4.58,21.19Z"/><path d="M4.36,20.91a7.27,7.27,0,0,1-2-.77l0-.08a.86.86,0,0,1,.28,0l1.72.74Z"/><path d="M34.62,4.32a4,4,0,0,1,2,.81h-.22A7,7,0,0,1,34.62,4.32Z"/><path d="M9.82,3.36a3.72,3.72,0,0,1,1.93.77A5.47,5.47,0,0,1,9.82,3.36Z"/><path d="M17.27,3.32a6.07,6.07,0,0,1,2,.79A3.93,3.93,0,0,1,17.27,3.32Z"/><path d="M34,4.14a6.53,6.53,0,0,1-1.91-.74V3.33a.82.82,0,0,1,.27,0L34,4.05Z"/><path d="M27.2,4.31a6.7,6.7,0,0,1,2,.73v.07a.65.65,0,0,1-.2,0A6.81,6.81,0,0,1,27.2,4.31Z"/><path d="M29.14,21.87a5.7,5.7,0,0,1-1.93-.77A3.87,3.87,0,0,1,29.14,21.87Z"/><path d="M12.19,3.85a6.13,6.13,0,0,1,.72-1.91L13,2a.87.87,0,0,1,0,.23A6.17,6.17,0,0,1,12.19,3.85Z"/><path d="M21.69,21.9a5.89,5.89,0,0,1-1.94-.85,7,7,0,0,1,2,.74Z"/><path d="M24.7,20a5.65,5.65,0,0,1,1.87.81,5.85,5.85,0,0,1-1.91-.7Z"/><path d="M19.61,20.62a6.24,6.24,0,0,1,.72-1.93l.08,0a1.62,1.62,0,0,1,0,.22A6.88,6.88,0,0,1,19.61,20.62Z"/><path d="M26.6,4.12a6,6,0,0,1-1.93-.72V3.33a1,1,0,0,1,.25,0A6.9,6.9,0,0,1,26.6,4.12Z"/><path d="M33.43,6.4a1.45,1.45,0,0,1,0-.3c.24-.54.48-1.08.77-1.61a5.55,5.55,0,0,1-.71,1.93Z"/><path d="M34.06,20.88a6.31,6.31,0,0,1-2-.74l0-.07a1,1,0,0,1,.24,0A8.2,8.2,0,0,1,34.06,20.88Z"/><path d="M5.54,18.69a3.72,3.72,0,0,1-.75,1.89A4.3,4.3,0,0,1,5.54,18.69Z"/><path d="M2.37,3.29a6.47,6.47,0,0,1,2,.81A4,4,0,0,1,2.37,3.29Z"/><path d="M28.27,2.89a3.13,3.13,0,0,1,.87-1A3,3,0,0,1,28.27,2.89Z"/><path d="M18.4,3a3.23,3.23,0,0,1-1-.87A3,3,0,0,1,18.4,3Z"/><path d="M10,2l1,.9L11,3a4.83,4.83,0,0,1-1.05-.85Z"/><path d="M32.93,22.13a3.06,3.06,0,0,1-.85,1A2.86,2.86,0,0,1,32.93,22.13Z"/><path d="M6.87,6.32a3.13,3.13,0,0,1-1-.86A3,3,0,0,1,6.87,6.32Z"/><path d="M3.25,5.37a3.19,3.19,0,0,1-.87,1A3.09,3.09,0,0,1,3.25,5.37Z"/><path d="M9.75,6.42a4.43,4.43,0,0,1,.9-1.06A2.44,2.44,0,0,1,9.75,6.42Z"/><path d="M14.27,23.06a3,3,0,0,1-1-.86A3,3,0,0,1,14.27,23.06Z"/><path d="M14.33,18.63a4.15,4.15,0,0,1-.87,1l-.05-.05.82-1Z"/><path d="M20.85,19.63a3.09,3.09,0,0,1,.87-1A2.87,2.87,0,0,1,20.85,19.63Z"/><path d="M21.72,1.85a2.66,2.66,0,0,1-.83,1A2.91,2.91,0,0,1,21.72,1.85Z"/><path d="M25.82,19.69a3,3,0,0,1-1-.86A3.16,3.16,0,0,1,25.82,19.69Z"/><path d="M24.65,23.13a3.45,3.45,0,0,1,.87-1A2.56,2.56,0,0,1,24.65,23.13Z"/><path d="M29.12,6.31a2.89,2.89,0,0,1-1-.85A3,3,0,0,1,29.12,6.31Z"/><path d="M32.24,18.8a4.24,4.24,0,0,1,1,.88l0,.05-1.05-.83Z"/><path d="M2.32,23.08l.87-1,.05.05a4.38,4.38,0,0,1-.82,1Z"/><path d="M6.86,23.06a3,3,0,0,1-1-.86A3.1,3.1,0,0,1,6.86,23.06Z"/><path d="M35.52,5.46a3.06,3.06,0,0,1,1,.86A3.16,3.16,0,0,1,35.52,5.46Z"/><path d="M3.55,19.7a4.32,4.32,0,0,1-1.07-.84C2.71,18.83,3.1,19.14,3.55,19.7Z"/><path d="M21.72,23.06a2.22,2.22,0,0,1-1-.83A2.78,2.78,0,0,1,21.72,23.06Z"/><path d="M35.71,2.87a2.92,2.92,0,0,1,.86-1A3,3,0,0,1,35.71,2.87Z"/><path d="M25.8,2.93a3.1,3.1,0,0,1-1-.85A2.89,2.89,0,0,1,25.8,2.93Z"/><path d="M32.08,6.41a2.11,2.11,0,0,1,.85-1A3.34,3.34,0,0,1,32.08,6.41Z"/><path d="M6.06,19.57a2.65,2.65,0,0,1,.82-1A2.57,2.57,0,0,1,6.06,19.57Z"/><path d="M17.38,18.83a3.57,3.57,0,0,1,1,.82A2.31,2.31,0,0,1,17.38,18.83Z"/><path d="M18.13,5.41l-.87,1.07C17.23,6.21,17.79,5.53,18.13,5.41Z"/><path d="M6.89,1.87A4.22,4.22,0,0,1,6,2.9,2.29,2.29,0,0,1,6.89,1.87Z"/><path d="M2.52,2.09a2.59,2.59,0,0,1,1,.8A2.59,2.59,0,0,1,2.52,2.09Z"/><path d="M29.15,18.6a3.36,3.36,0,0,1-.85,1A2.54,2.54,0,0,1,29.15,18.6Z"/><path d="M18.09,22.12a3,3,0,0,1-.85,1A2.89,2.89,0,0,1,18.09,22.12Z"/><path d="M20.69,5.45a4.67,4.67,0,0,1,1,.84C21.51,6.32,21,5.89,20.69,5.45Z"/><path d="M14.26,6.35a3.9,3.9,0,0,1-1-.83l.05-.06,1,.79Z"/><path d="M36.53,23.07a3.61,3.61,0,0,1-1-.83A2.27,2.27,0,0,1,36.53,23.07Z"/><path d="M36.57,18.6a2.88,2.88,0,0,1-.86,1A3,3,0,0,1,36.57,18.6Z"/><path d="M25.54,5.41l-.82,1C24.65,6.2,25.08,5.68,25.54,5.41Z"/><path d="M29.11,23.06a2.9,2.9,0,0,1-1-.83A2.81,2.81,0,0,1,29.11,23.06Z"/><path d="M32.21,2.08a2.94,2.94,0,0,1,1,.84A2.75,2.75,0,0,1,32.21,2.08Z"/><path d="M9.81,23.14a3,3,0,0,1,.83-1A2.82,2.82,0,0,1,9.81,23.14Z"/><path d="M10,18.84a2.79,2.79,0,0,1,1,.82A2.92,2.92,0,0,1,10,18.84Z"/><path d="M13.45,2.9a2.28,2.28,0,0,1,.91-1.07A4.45,4.45,0,0,1,13.45,2.9Z"/><path d="M17.3,20.91l-.94.22,0-.08A1.85,1.85,0,0,1,17.3,20.91Z"/><path d="M34.5,19l-.23-.94h.08a2.67,2.67,0,0,1,.2.93Z"/><path d="M8.92,21l.95-.17v.07l-.94.22Z"/><path d="M34.24,24.1l-.17-.93.06,0,.23.93Z"/><path d="M22.65,4.19l-.95.17V4.29l.93-.22Z"/><path d="M15.23,4.19l-1,.17V4.29l.93-.22Z"/><path d="M4.71,1.33l.16.91h0a2.86,2.86,0,0,1-.2-.91Z"/><path d="M24.71,20.92l-.93.21A1.06,1.06,0,0,1,24.71,20.92Z"/><path d="M31.17,21l.94-.16v.06l-.92.22Z"/><path d="M27.08,2.3l-.23-.95.09,0a3,3,0,0,1,.19.95Z"/><path d="M34.24,7.35l-.17-.94.06,0,.23.93Z"/><path d="M4.55,7.35,4.38,6.4h.06l.23.93Z"/><path d="M4.81,19l-.23-.93.09,0A2,2,0,0,1,4.81,19Z"/><path d="M4.44,23.13l.23.95-.08,0a3.24,3.24,0,0,1-.21-1Z"/><path d="M6.86,4.28l.92-.21,0,.12-.94.17Z"/><path d="M27,18.07l.16,1-.05,0-.24-1Z"/><path d="M2.44,20.92l-.93.21,0-.12.93-.17Z"/><path d="M37.5,4.19l-.93.17,0-.07.92-.22Z"/><path d="M29.13,4.29,30,4.07l0,.12-.91.17Z"/><path d="M12.13,1.32l.16.91h-.07L12,1.35Z"/><path d="M12,7.35c0-.16-.08-.32-.11-.48a1.6,1.6,0,0,1,0-.49l.23.94Z"/><path d="M26.72,6.43l.21.89-.08,0a2.78,2.78,0,0,1-.19-.9Z"/><path d="M12,24.1l-.16-1h.06l.23,1Z"/><path d="M26.72,23.17l.21.91-.11,0-.17-.93Z"/><path d="M34.4,1.33l.17.95H34.5l-.23-.94Z"/><path d="M12.12,18.07l.17.91h-.07l-.21-.9Z"/><path d="M30.07,20.94l-.89.16V21l.87-.19Z"/><path d="M1.49,4.26l.89-.16,0,.08-.89.19Z"/><path d="M19.56,1.33l.15.88h-.08l-.19-.87Z"/><path d="M6.9,21l.93-.22A1.1,1.1,0,0,1,6.9,21Z"/><path d="M9.81,4.18l-.87.19,0-.11L9.8,4.1Z"/><path d="M24.67,4.18l-.89.19,0-.11.9-.16Z"/><path d="M19.39,24.1l-.16-.88.08,0,.2.88Z"/><path d="M15.22,21l-.89.15V21l.88-.2Z"/><path d="M19.39,7.34l-.16-.86.08,0,.2.86Z"/><path d="M19.63,19l-.19-.86A.94.94,0,0,1,19.63,19Z"/><path d="M16.34,4.26l.9-.16v.08l-.88.19Z"/><path d="M36.59,21l.88-.19,0,.08a2.42,2.42,0,0,1-.88.17Z"/><path d="M31.18,4.26l.89-.16v.08l-.88.2Z"/><path d="M21.76,21l.86-.19v.08a2.14,2.14,0,0,1-.87.17Z"/></g><g class="cls-3"><path d="M34.08,4.16A9.77,9.77,0,0,1,35,6.58a1,1,0,0,1,0,.29l-.08,0a1.6,1.6,0,0,1-.23-.4c-.16-.6-.31-1.2-.46-1.81C34.13,4.51,34.11,4.34,34.08,4.16Z"/><path d="M23.49,21.51a1.69,1.69,0,0,1,.39-.22l1.65-.43a4.55,4.55,0,0,1,.74-.11,9.09,9.09,0,0,1-2.73.88Z"/><path d="M14.81,3a2.1,2.1,0,0,1-.39.21c-.54.16-1.09.29-1.65.43a4.55,4.55,0,0,1-.74.11,9.09,9.09,0,0,1,2.73-.88Z"/><path d="M25.67.76a1.51,1.51,0,0,1,.2.34c.17.56.31,1.13.46,1.69a4.42,4.42,0,0,1,.1.73A8.6,8.6,0,0,1,25.56.81Z"/><path d="M33.08.74a1.69,1.69,0,0,1,.23.4c.17.61.32,1.23.47,1.84a4,4,0,0,1,.1.54A5.37,5.37,0,0,1,33.08.74Z"/><path d="M4.39,4.15a10.62,10.62,0,0,1,.88,2.4,1.71,1.71,0,0,1,0,.32l-.09,0A1.57,1.57,0,0,1,5,6.56C4.81,6,4.66,5.45,4.52,4.89,4.46,4.65,4.43,4.4,4.39,4.15Z"/><path d="M4.18,3.48A5.39,5.39,0,0,1,3.37.73a1.84,1.84,0,0,1,.25.4c.15.53.29,1.05.42,1.59A6.75,6.75,0,0,1,4.18,3.48Z"/><path d="M25.67,17.52a2,2,0,0,1,.2.31c.16.57.31,1.14.46,1.71.06.24.08.48.13.77A5.52,5.52,0,0,1,25.67,17.52Z"/><path d="M27.43,6.89a1.78,1.78,0,0,1-.24-.45c-.17-.64-.32-1.29-.48-1.94,0-.11,0-.22-.05-.37A5.07,5.07,0,0,1,27.43,6.89Z"/><path d="M22.28,3a2.85,2.85,0,0,1-.43.24l-1.63.43-.77.13A5.79,5.79,0,0,1,22.28,3Z"/><path d="M19.22,4.1a8,8,0,0,1,.9,2.75l-.1,0a1.67,1.67,0,0,1-.21-.33c-.15-.51-.29-1-.42-1.55C19.32,4.71,19.28,4.41,19.22,4.1Z"/><path d="M18.85,20.78c-.5.19-1,.4-1.51.58a9,9,0,0,1-.89.24,1.45,1.45,0,0,1-.36,0l0-.09a1.79,1.79,0,0,1,.38-.22l1.65-.43.74-.13Z"/><path d="M19,20.28a8.21,8.21,0,0,1-.9-2.73c.21,0,.26.15.3.26.14.44.27.89.38,1.34S19,19.9,19,20.28Z"/><path d="M23.46,4.78a2.55,2.55,0,0,1,.37-.22c.53-.15,1.07-.3,1.61-.43.25-.06.52-.09.81-.15A5.62,5.62,0,0,1,23.46,4.78Z"/><path d="M18.22.74a1.22,1.22,0,0,1,.22.34c.16.5.3,1,.43,1.52.07.3.11.62.17.95A5.92,5.92,0,0,1,18.22.74Z"/><path d="M12.62,23.63a.84.84,0,0,1-.19-.24c-.12-.35-.25-.71-.34-1.08a14.23,14.23,0,0,1-.27-1.45,8.48,8.48,0,0,1,.88,2.73Z"/><path d="M1.23,4.76a1.88,1.88,0,0,1,.36-.21l1.59-.42A5.23,5.23,0,0,1,4,4a8.84,8.84,0,0,1-2.68.86Z"/><path d="M3.39,17.49a2.4,2.4,0,0,1,.23.38q.22.79.42,1.59c.07.25.1.51.15.78A5.35,5.35,0,0,1,3.39,17.49Z"/><path d="M4.44,20.88a9.52,9.52,0,0,1,.84,2.7l-.09.05a.9.9,0,0,1-.2-.28c-.15-.5-.3-1-.43-1.51-.08-.31-.12-.63-.18-.94Z"/><path d="M8.65,21.52a1.07,1.07,0,0,1,.32-.2l1.71-.46c.24-.06.49-.08.74-.13l0,.07-2,.69a2.49,2.49,0,0,1-.47.12c-.11,0-.22,0-.34,0Z"/><path d="M30.92,21.5a2.4,2.4,0,0,1,.38-.21c.54-.15,1.09-.29,1.63-.42a6.5,6.5,0,0,1,.75-.12,8.7,8.7,0,0,1-2.71.88Z"/><path d="M30.92,4.76a1.32,1.32,0,0,1,.34-.2c.54-.16,1.07-.3,1.61-.43A5.23,5.23,0,0,1,33.65,4,8.75,8.75,0,0,1,31,4.88Z"/><path d="M4,20.73a5.36,5.36,0,0,1-2.78.81c.12-.08.2-.18.31-.21q.73-.22,1.5-.42C3.34,20.83,3.67,20.79,4,20.73Z"/><path d="M7.38,3a1.55,1.55,0,0,1-.32.2q-.85.24-1.71.45a4.55,4.55,0,0,1-.74.11,8.94,8.94,0,0,1,2.72-.88Z"/><path d="M29.7,3a2.57,2.57,0,0,1-.46.24c-.61.17-1.22.31-1.84.46-.17,0-.34.06-.54.09A5.55,5.55,0,0,1,29.7,3Z"/><path d="M33.88,20.25a5.3,5.3,0,0,1-.82-2.75,1.34,1.34,0,0,1,.22.3c.13.39.25.78.35,1.17S33.8,19.82,33.88,20.25Z"/><path d="M37.11,3a2.77,2.77,0,0,1-.43.24l-1.86.46c-.17,0-.35.06-.55.09A5.53,5.53,0,0,1,37.11,3Z"/><path d="M16.07,4.75a2.13,2.13,0,0,1,.45-.23c.65-.17,1.31-.32,2-.48l.34,0a6.12,6.12,0,0,1-2.73.83Z"/><path d="M34.33,20.47a9.48,9.48,0,0,1,2.7-.82l0,.09a.94.94,0,0,1-.29.2c-.47.15-.94.29-1.41.4s-.68.13-1,.19Z"/><path d="M14.84,19.74a1.49,1.49,0,0,1-.37.22c-.53.16-1.07.3-1.6.43-.26.06-.53.1-.82.15A5.62,5.62,0,0,1,14.84,19.74Z"/><path d="M7.38,19.76A1.32,1.32,0,0,1,7,20c-.53.16-1.07.3-1.61.43a5.06,5.06,0,0,1-.78.12,8.77,8.77,0,0,1,2.68-.87Z"/><path d="M11.63,3.6A5.78,5.78,0,0,1,10.79.73a2,2,0,0,1,.25.38c.15.52.29,1.05.42,1.57C11.53,3,11.57,3.26,11.63,3.6Z"/><path d="M34.07,20.86a5.43,5.43,0,0,1,.81,2.81,2.22,2.22,0,0,1-.24-.4c-.15-.53-.29-1.07-.42-1.61A7.18,7.18,0,0,1,34.07,20.86Z"/><path d="M12.6,6.89a1.67,1.67,0,0,1-.21-.33c-.16-.58-.31-1.15-.46-1.73a4.19,4.19,0,0,1-.1-.71,8.71,8.71,0,0,1,.87,2.73Z"/><path d="M20,23.64a1.67,1.67,0,0,1-.21-.33c-.15-.52-.29-1-.42-1.57a7,7,0,0,1-.14-.8,5.92,5.92,0,0,1,.83,2.66Z"/><path d="M26.71,20.91a9.63,9.63,0,0,1,.85,2.68l-.1.05a1.08,1.08,0,0,1-.2-.29c-.15-.47-.29-1-.41-1.43s-.13-.67-.19-1Z"/><path d="M8.65,4.75a2.06,2.06,0,0,1,.44-.23c.57-.16,1.15-.3,1.72-.43A5.18,5.18,0,0,1,11.4,4a6.14,6.14,0,0,1-2.73.83Z"/><path d="M22.23,19.76a1.88,1.88,0,0,1-.36.21q-.8.23-1.59.42a5.05,5.05,0,0,1-.78.11,9,9,0,0,1,2.68-.86Z"/><path d="M11.6,20.22a5.16,5.16,0,0,1-.8-2.73,1.26,1.26,0,0,1,.23.36c.15.53.3,1,.43,1.58C11.52,19.69,11.56,20,11.6,20.22Z"/><path d="M29.66,19.77a2.13,2.13,0,0,1-.45.23c-.57.16-1.15.3-1.72.43a5,5,0,0,1-.58.1,6.21,6.21,0,0,1,2.72-.83Z"/><path d="M11.45,20.56a7.29,7.29,0,0,1-2-.75l0-.09a.86.86,0,0,1,.28,0l1.71.74Z"/><path d="M4.26,4.1a6.76,6.76,0,0,1-.78,2l-.08,0a1.86,1.86,0,0,1,.05-.34c.24-.55.49-1.1.74-1.65Z"/><path d="M6.52,21.55a6,6,0,0,1-2-.84,6.69,6.69,0,0,1,2,.74Z"/><path d="M11.8,20.33a7.66,7.66,0,0,1,.76-2l.1,0a1.86,1.86,0,0,1-.05.34c-.24.56-.49,1.1-.74,1.65Z"/><path d="M25.72,6.12a3.54,3.54,0,0,1,.78-2A6.06,6.06,0,0,1,25.72,6.12Z"/><path d="M19.06,20.87a3.57,3.57,0,0,1-.81,1.94,1.33,1.33,0,0,1,0-.2A7.88,7.88,0,0,1,19.06,20.87Z"/><path d="M26.69,20.3a4,4,0,0,1,.81-1.95,1,1,0,0,1,0,.25A6.94,6.94,0,0,1,26.69,20.3Z"/><path d="M34.87,1.61a3.65,3.65,0,0,1-.78,2A5.79,5.79,0,0,1,34.87,1.61Z"/><path d="M4.39,3.56a7.64,7.64,0,0,1,.75-2l.1,0a1.06,1.06,0,0,1,0,.31C5,2.5,4.71,3.05,4.46,3.6Z"/><path d="M34.26,20.69a7.38,7.38,0,0,1,2,.76l0,.09a1,1,0,0,1-.29,0l-1.71-.74Z"/><path d="M14,4.82A7,7,0,0,1,12,4,3.75,3.75,0,0,1,14,4.82Z"/><path d="M34.08,20.3a6.82,6.82,0,0,1,.76-1.95l.09,0a1.18,1.18,0,0,1,0,.27c-.24.57-.49,1.13-.74,1.7Z"/><path d="M19.44,4a6.45,6.45,0,0,1,2,.74v.08a.72.72,0,0,1-.21,0A6.9,6.9,0,0,1,19.44,4Z"/><path d="M33.93,20.91a6.85,6.85,0,0,1-.75,1.91H33.1a.61.61,0,0,1,0-.27c.23-.56.48-1.11.72-1.67Z"/><path d="M6.51,4.81A6,6,0,0,1,4.59,4a6.24,6.24,0,0,1,2,.73Z"/><path d="M19.09,4.13a7,7,0,0,1-.75,2l-.09,0a.74.74,0,0,1,0-.26c.24-.57.49-1.13.74-1.7Z"/><path d="M14,21.54a1.65,1.65,0,0,1-.32,0c-.24-.09-.49-.18-.72-.29a10.36,10.36,0,0,1-.93-.5,6.15,6.15,0,0,1,2,.75Z"/><path d="M18.87,20.56a7.29,7.29,0,0,1-2-.75l0-.1a2.54,2.54,0,0,1,.29,0l1.69.74Z"/><path d="M26.49,20.89a6.16,6.16,0,0,1-.73,1.94l-.11,0A5.83,5.83,0,0,1,26.49,20.89Z"/><path d="M20.07,1.63a6,6,0,0,1-.78,1.94A3.89,3.89,0,0,1,20.07,1.63Z"/><path d="M26.68,3.55a6.15,6.15,0,0,1,.74-1.95h.08a1.47,1.47,0,0,1,0,.21A6.86,6.86,0,0,1,26.68,3.55Z"/><path d="M11.67,4.13a6.82,6.82,0,0,1-.76,2h-.07a.81.81,0,0,1,0-.27c.24-.57.49-1.14.74-1.71Z"/><path d="M10.81,22.78a5.88,5.88,0,0,1,.84-1.92,6.33,6.33,0,0,1-.73,2Z"/><path d="M4.24,20.85a6.79,6.79,0,0,1-.74,2H3.42a1,1,0,0,1,0-.24A7.34,7.34,0,0,1,4.24,20.85Z"/><path d="M4,20.57a7.27,7.27,0,0,1-2-.77l0-.08a.86.86,0,0,1,.28,0l1.72.74Z"/><path d="M34.28,4a4,4,0,0,1,2,.81H36A7,7,0,0,1,34.28,4Z"/><path d="M9.48,3a3.72,3.72,0,0,1,1.93.77A5.47,5.47,0,0,1,9.48,3Z"/><path d="M16.93,3a6.07,6.07,0,0,1,2,.79A3.93,3.93,0,0,1,16.93,3Z"/><path d="M33.66,3.8a6.53,6.53,0,0,1-1.91-.74V3A.82.82,0,0,1,32,3l1.67.72Z"/><path d="M26.86,4a6.7,6.7,0,0,1,2,.73v.07a.68.68,0,0,1-.2,0A6.81,6.81,0,0,1,26.86,4Z"/><path d="M28.8,21.53a5.7,5.7,0,0,1-1.93-.77A3.87,3.87,0,0,1,28.8,21.53Z"/><path d="M11.85,3.51a6.13,6.13,0,0,1,.72-1.91l.08,0a.87.87,0,0,1,0,.23A6.17,6.17,0,0,1,11.85,3.51Z"/><path d="M21.35,21.56a5.89,5.89,0,0,1-1.94-.85,7,7,0,0,1,2,.74Z"/><path d="M24.36,19.7a5.65,5.65,0,0,1,1.87.81,5.85,5.85,0,0,1-1.91-.7Z"/><path d="M19.27,20.28A6.24,6.24,0,0,1,20,18.35h.08a1.76,1.76,0,0,1,0,.23A6.88,6.88,0,0,1,19.27,20.28Z"/><path d="M26.26,3.78a6,6,0,0,1-1.93-.72V3a1,1,0,0,1,.25,0A6.9,6.9,0,0,1,26.26,3.78Z"/><path d="M33.09,6.06a1.45,1.45,0,0,1,0-.3c.24-.54.48-1.08.77-1.61a5.55,5.55,0,0,1-.71,1.93Z"/><path d="M33.72,20.54a6.31,6.31,0,0,1-2-.74l0-.07a1,1,0,0,1,.24,0A8.2,8.2,0,0,1,33.72,20.54Z"/><path d="M5.2,18.35a3.72,3.72,0,0,1-.75,1.89A4.3,4.3,0,0,1,5.2,18.35Z"/><path d="M2,3a6.32,6.32,0,0,1,2,.81A4,4,0,0,1,2,3Z"/><path d="M27.93,2.54a3.19,3.19,0,0,1,.87-1A2.89,2.89,0,0,1,27.93,2.54Z"/><path d="M18.06,2.61a3.23,3.23,0,0,1-1-.87A3,3,0,0,1,18.06,2.61Z"/><path d="M9.66,1.68l1,.9,0,0a4.83,4.83,0,0,1-1.05-.85Z"/><path d="M32.59,21.79a3.06,3.06,0,0,1-.85,1A2.86,2.86,0,0,1,32.59,21.79Z"/><path d="M6.53,6a3.13,3.13,0,0,1-1-.86A3.11,3.11,0,0,1,6.53,6Z"/><path d="M2.91,5a3.19,3.19,0,0,1-.87,1A3.09,3.09,0,0,1,2.91,5Z"/><path d="M9.41,6.08A4.43,4.43,0,0,1,10.31,5,2.44,2.44,0,0,1,9.41,6.08Z"/><path d="M13.93,22.72a3,3,0,0,1-1-.86A3,3,0,0,1,13.93,22.72Z"/><path d="M14,18.29a4.15,4.15,0,0,1-.87,1l0-.05.82-1Z"/><path d="M20.51,19.29a3.09,3.09,0,0,1,.87-1A2.87,2.87,0,0,1,20.51,19.29Z"/><path d="M21.38,1.51a2.66,2.66,0,0,1-.83,1A2.91,2.91,0,0,1,21.38,1.51Z"/><path d="M25.48,19.35a3,3,0,0,1-1-.86A3.16,3.16,0,0,1,25.48,19.35Z"/><path d="M24.31,22.79a3.45,3.45,0,0,1,.87-1A2.56,2.56,0,0,1,24.31,22.79Z"/><path d="M28.78,6a3,3,0,0,1-1-.85A3,3,0,0,1,28.78,6Z"/><path d="M31.9,18.46a4.44,4.44,0,0,1,1,.88l0,.05-1-.83Z"/><path d="M2,22.74l.87-1,0,0a4.38,4.38,0,0,1-.82,1Z"/><path d="M6.52,22.72a3,3,0,0,1-1-.86A3.1,3.1,0,0,1,6.52,22.72Z"/><path d="M35.18,5.12a3,3,0,0,1,1,.86A3.16,3.16,0,0,1,35.18,5.12Z"/><path d="M3.21,19.36a4.32,4.32,0,0,1-1.07-.84C2.37,18.49,2.76,18.8,3.21,19.36Z"/><path d="M21.38,22.72a2.22,2.22,0,0,1-1-.83A2.78,2.78,0,0,1,21.38,22.72Z"/><path d="M35.37,2.53a2.92,2.92,0,0,1,.86-1A3,3,0,0,1,35.37,2.53Z"/><path d="M25.46,2.59a3.1,3.1,0,0,1-1-.85A2.89,2.89,0,0,1,25.46,2.59Z"/><path d="M31.74,6.07a2.11,2.11,0,0,1,.85-1A3.34,3.34,0,0,1,31.74,6.07Z"/><path d="M5.72,19.23a2.65,2.65,0,0,1,.82-1A2.57,2.57,0,0,1,5.72,19.23Z"/><path d="M17,18.49a3.57,3.57,0,0,1,1,.82A2.31,2.31,0,0,1,17,18.49Z"/><path d="M17.79,5.07l-.87,1.07C16.89,5.87,17.45,5.19,17.79,5.07Z"/><path d="M6.55,1.53a4.22,4.22,0,0,1-.87,1A2.29,2.29,0,0,1,6.55,1.53Z"/><path d="M2.18,1.75a2.59,2.59,0,0,1,1,.8A2.59,2.59,0,0,1,2.18,1.75Z"/><path d="M28.81,18.26a3.36,3.36,0,0,1-.85,1A2.54,2.54,0,0,1,28.81,18.26Z"/><path d="M17.75,21.78a3,3,0,0,1-.85,1A2.89,2.89,0,0,1,17.75,21.78Z"/><path d="M20.35,5.11a4.67,4.67,0,0,1,1,.84C21.17,6,20.65,5.55,20.35,5.11Z"/><path d="M13.92,6a3.9,3.9,0,0,1-1-.83L13,5.12l1,.79Z"/><path d="M36.19,22.73a3.48,3.48,0,0,1-1-.83A2.27,2.27,0,0,1,36.19,22.73Z"/><path d="M36.23,18.26a2.88,2.88,0,0,1-.86,1A3,3,0,0,1,36.23,18.26Z"/><path d="M25.2,5.07l-.82,1C24.31,5.86,24.74,5.34,25.2,5.07Z"/><path d="M28.77,22.72a2.9,2.9,0,0,1-1-.83A2.81,2.81,0,0,1,28.77,22.72Z"/><path d="M31.87,1.74a2.94,2.94,0,0,1,1,.84A2.75,2.75,0,0,1,31.87,1.74Z"/><path d="M9.47,22.8a3,3,0,0,1,.83-1A2.82,2.82,0,0,1,9.47,22.8Z"/><path d="M9.61,18.5a2.79,2.79,0,0,1,1,.82A2.92,2.92,0,0,1,9.61,18.5Z"/><path d="M13.11,2.56A2.28,2.28,0,0,1,14,1.49,4.45,4.45,0,0,1,13.11,2.56Z"/><path d="M17,20.57l-.94.22,0-.08A1.85,1.85,0,0,1,17,20.57Z"/><path d="M34.16,18.69l-.23-.94H34a2.67,2.67,0,0,1,.2.93Z"/><path d="M8.58,20.67l.95-.17v.07l-.94.22Z"/><path d="M33.9,23.76l-.17-.93.06,0,.23.93Z"/><path d="M22.31,3.85,21.36,4V4l.93-.22Z"/><path d="M14.89,3.85l-1,.17V4l.93-.22Z"/><path d="M4.37,1l.16.91h0A2.86,2.86,0,0,1,4.28,1Z"/><path d="M24.37,20.58l-.93.21A1.06,1.06,0,0,1,24.37,20.58Z"/><path d="M30.83,20.67l.94-.16v.06l-.92.22Z"/><path d="M26.74,2,26.51,1l.09,0a3,3,0,0,1,.19,1Z"/><path d="M33.9,7l-.18-.94.07,0L34,7Z"/><path d="M4.21,7,4,6.06H4.1L4.33,7Z"/><path d="M4.47,18.69l-.23-.93.09,0A2,2,0,0,1,4.47,18.69Z"/><path d="M4.1,22.79l.23.95-.08,0a3.24,3.24,0,0,1-.21-1Z"/><path d="M6.52,3.94l.92-.21,0,.12L6.53,4Z"/><path d="M26.64,17.73l.16,1-.05,0-.24-1Z"/><path d="M2.1,20.58l-.93.21,0-.12.93-.17Z"/><path d="M37.16,3.85,36.23,4l0-.07.92-.22Z"/><path d="M28.79,4l.91-.22,0,.12L28.81,4Z"/><path d="M11.79,1l.16.91h-.07L11.67,1Z"/><path d="M11.64,7c0-.15-.08-.31-.11-.47a1.6,1.6,0,0,1,0-.49l.23.94Z"/><path d="M26.38,6.09l.21.89-.08,0a2.78,2.78,0,0,1-.19-.9Z"/><path d="M11.62,23.76l-.16-1h.06l.23,1Z"/><path d="M26.38,22.83l.21.91-.11,0-.17-.93Z"/><path d="M34.06,1l.17,1h-.07L33.93,1Z"/><path d="M11.78,17.73l.17.91h-.07l-.21-.9Z"/><path d="M29.73,20.6l-.89.16v-.08l.87-.19Z"/><path d="M1.15,3.92,2,3.76l0,.08L1.17,4Z"/><path d="M19.22,1l.15.88h-.08L19.1,1Z"/><path d="M6.56,20.69l.93-.22A1.1,1.1,0,0,1,6.56,20.69Z"/><path d="M9.47,3.84,8.6,4l0-.11.89-.16Z"/><path d="M24.33,3.84,23.44,4l0-.11.9-.16Z"/><path d="M19.05,23.76l-.16-.88.07,0,.21.88Z"/><path d="M14.88,20.61l-.89.15v-.07l.88-.2Z"/><path d="M19.05,7l-.16-.86.08,0,.2.85Z"/><path d="M19.29,18.62l-.19-.86A.94.94,0,0,1,19.29,18.62Z"/><path d="M16,3.92l.9-.16v.08L16,4Z"/><path d="M36.25,20.68l.88-.19,0,.08a2.42,2.42,0,0,1-.88.17Z"/><path d="M30.84,3.92l.89-.16v.08l-.88.2Z"/><path d="M21.42,20.68l.86-.19v.08a2.14,2.14,0,0,1-.87.17Z"/></g><path class="cls-4" d="M34.28,4.36a9.77,9.77,0,0,1,.88,2.42,1,1,0,0,1,0,.29l-.08,0a1.8,1.8,0,0,1-.23-.4c-.17-.6-.31-1.21-.46-1.81C34.33,4.71,34.31,4.53,34.28,4.36Z"/><path class="cls-4" d="M23.69,21.7a2.4,2.4,0,0,1,.38-.21c.55-.16,1.1-.29,1.65-.43a4.85,4.85,0,0,1,.75-.11,9.09,9.09,0,0,1-2.73.88Z"/><path class="cls-4" d="M15,3.22a1.76,1.76,0,0,1-.38.21L13,3.86a5.88,5.88,0,0,1-.75.11A9.27,9.27,0,0,1,15,3.09Z"/><path class="cls-4" d="M25.87,1a1.32,1.32,0,0,1,.2.34c.16.56.31,1.12.45,1.69a4.43,4.43,0,0,1,.11.73A8.6,8.6,0,0,1,25.76,1Z"/><path class="cls-4" d="M33.28.94a1.69,1.69,0,0,1,.23.4c.17.61.32,1.22.47,1.84,0,.17.06.34.1.54A5.37,5.37,0,0,1,33.28.94Z"/><path class="cls-4" d="M4.58,4.35a10.27,10.27,0,0,1,.89,2.39,1.71,1.71,0,0,1,0,.32l-.09,0a1.08,1.08,0,0,1-.21-.33C5,6.2,4.86,5.65,4.72,5.09,4.66,4.85,4.63,4.6,4.58,4.35Z"/><path class="cls-4" d="M4.38,3.68A5.3,5.3,0,0,1,3.57.93a1.84,1.84,0,0,1,.25.4c.15.52.29,1,.42,1.58C4.3,3.17,4.34,3.42,4.38,3.68Z"/><path class="cls-4" d="M25.86,17.72a1.17,1.17,0,0,1,.2.31c.17.57.32,1.13.46,1.7.06.24.09.49.14.78A5.65,5.65,0,0,1,25.86,17.72Z"/><path class="cls-4" d="M27.62,7.09a2.13,2.13,0,0,1-.23-.45c-.17-.64-.32-1.29-.48-1.94,0-.11,0-.22-.05-.37C27.31,5,27.83,6.74,27.62,7.09Z"/><path class="cls-4" d="M22.48,3.18a2.06,2.06,0,0,1-.44.25c-.54.15-1.08.29-1.63.42-.24.06-.49.09-.76.14A5.88,5.88,0,0,1,22.48,3.18Z"/><path class="cls-4" d="M19.42,4.3a8.16,8.16,0,0,1,.9,2.75l-.1,0A1.67,1.67,0,0,1,20,6.76c-.15-.52-.29-1-.42-1.55C19.51,4.91,19.48,4.61,19.42,4.3Z"/><path class="cls-4" d="M19.05,21c-.5.19-1,.4-1.51.58a9,9,0,0,1-.89.24,2.16,2.16,0,0,1-.36,0l0-.09a2.16,2.16,0,0,1,.39-.22l1.65-.43c.24-.06.49-.09.74-.13Z"/><path class="cls-4" d="M19.24,20.48a7.84,7.84,0,0,1-.9-2.73c.21,0,.26.15.3.26.14.44.27.89.38,1.33S19.17,20.1,19.24,20.48Z"/><path class="cls-4" d="M23.66,5A1.49,1.49,0,0,1,24,4.76c.53-.16,1.07-.3,1.6-.43.26-.06.53-.1.82-.15A5.65,5.65,0,0,1,23.66,5Z"/><path class="cls-4" d="M18.42.94a1.22,1.22,0,0,1,.22.34c.15.5.3,1,.43,1.52.07.3.11.62.17.94A5.86,5.86,0,0,1,18.42.94Z"/><path class="cls-4" d="M12.82,23.83a.84.84,0,0,1-.19-.24,9.69,9.69,0,0,1-.34-1.08A14.23,14.23,0,0,1,12,21.06a8.5,8.5,0,0,1,.88,2.72Z"/><path class="cls-4" d="M1.43,5a1.82,1.82,0,0,1,.36-.2q.8-.23,1.59-.42a4.07,4.07,0,0,1,.78-.11,8.81,8.81,0,0,1-2.69.86Z"/><path class="cls-4" d="M3.59,17.69a1.75,1.75,0,0,1,.23.38q.23.8.42,1.59c.06.25.1.51.15.78A5.37,5.37,0,0,1,3.59,17.69Z"/><path class="cls-4" d="M4.63,21.08a9.23,9.23,0,0,1,.85,2.7l-.09,0a.9.9,0,0,1-.2-.28c-.16-.5-.3-1-.43-1.51-.08-.31-.12-.63-.18-.94Z"/><path class="cls-4" d="M8.85,21.71a1.29,1.29,0,0,1,.32-.19c.56-.17,1.14-.32,1.71-.46.24-.06.49-.09.74-.13l0,.07-2,.69a1.89,1.89,0,0,1-.47.11,1.93,1.93,0,0,1-.34,0Z"/><path class="cls-4" d="M31.12,21.7a1.76,1.76,0,0,1,.38-.21c.54-.16,1.09-.29,1.63-.43a4.85,4.85,0,0,1,.75-.11,9,9,0,0,1-2.71.88Z"/><path class="cls-4" d="M31.12,5a1.73,1.73,0,0,1,.34-.21c.53-.15,1.07-.29,1.61-.42a5.06,5.06,0,0,1,.78-.12,8.51,8.51,0,0,1-2.68.87Z"/><path class="cls-4" d="M4.19,20.93a5.36,5.36,0,0,1-2.78.81,1.13,1.13,0,0,1,.31-.21c.49-.15,1-.3,1.5-.42C3.53,21,3.86,21,4.19,20.93Z"/><path class="cls-4" d="M7.58,3.21a1.79,1.79,0,0,1-.32.19c-.57.17-1.14.31-1.71.46A4.52,4.52,0,0,1,4.8,4a9.09,9.09,0,0,1,2.73-.88Z"/><path class="cls-4" d="M29.9,3.19a3.14,3.14,0,0,1-.46.25L27.6,3.9c-.17,0-.35.06-.54.09A5.63,5.63,0,0,1,29.9,3.19Z"/><path class="cls-4" d="M34.08,20.45a5.21,5.21,0,0,1-.82-2.76,1.54,1.54,0,0,1,.21.31c.13.39.26.78.36,1.17S34,20,34.08,20.45Z"/><path class="cls-4" d="M37.31,3.2a2.31,2.31,0,0,1-.43.23c-.62.17-1.24.32-1.86.47-.17,0-.35.06-.55.09A5.53,5.53,0,0,1,37.31,3.2Z"/><path class="cls-4" d="M16.26,5a2.88,2.88,0,0,1,.46-.24l2-.47.34,0A6.12,6.12,0,0,1,16.29,5Z"/><path class="cls-4" d="M34.53,20.67a9.17,9.17,0,0,1,2.7-.82l0,.09a.94.94,0,0,1-.29.2c-.47.14-.94.28-1.42.4s-.67.13-1,.19Z"/><path class="cls-4" d="M15,19.94a1.84,1.84,0,0,1-.36.22c-.53.15-1.07.3-1.61.43-.25.06-.52.09-.81.14A5.7,5.7,0,0,1,15,19.94Z"/><path class="cls-4" d="M7.58,20a1.32,1.32,0,0,1-.34.2c-.53.16-1.07.3-1.61.43a5.18,5.18,0,0,1-.79.11,9.19,9.19,0,0,1,2.69-.86Z"/><path class="cls-4" d="M11.83,3.8A5.78,5.78,0,0,1,11,.93a1.55,1.55,0,0,1,.24.38c.16.52.3,1,.43,1.57C11.73,3.16,11.77,3.46,11.83,3.8Z"/><path class="cls-4" d="M34.27,21.06a5.41,5.41,0,0,1,.81,2.81,2.63,2.63,0,0,1-.24-.4c-.16-.53-.29-1.07-.43-1.61C34.35,21.61,34.32,21.36,34.27,21.06Z"/><path class="cls-4" d="M12.8,7.09a1.31,1.31,0,0,1-.21-.33c-.16-.58-.32-1.15-.46-1.73A4.2,4.2,0,0,1,12,4.32,8.5,8.5,0,0,1,12.9,7Z"/><path class="cls-4" d="M20.22,23.84A1.73,1.73,0,0,1,20,23.5c-.15-.51-.29-1-.42-1.56a7,7,0,0,1-.14-.8,6,6,0,0,1,.83,2.66Z"/><path class="cls-4" d="M26.91,21.11a9.67,9.67,0,0,1,.85,2.67l-.11,0a1.07,1.07,0,0,1-.19-.28c-.15-.47-.29-.95-.42-1.43s-.12-.67-.19-1Z"/><path class="cls-4" d="M8.84,5a2.79,2.79,0,0,1,.45-.24c.57-.15,1.15-.29,1.72-.42a5.18,5.18,0,0,1,.59-.1A6.27,6.27,0,0,1,8.87,5Z"/><path class="cls-4" d="M22.43,20a1.51,1.51,0,0,1-.36.22q-.8.22-1.59.42a5.05,5.05,0,0,1-.78.11,8.75,8.75,0,0,1,2.68-.86Z"/><path class="cls-4" d="M11.8,20.42a5.16,5.16,0,0,1-.8-2.73,1.93,1.93,0,0,1,.23.36c.15.52.3,1.05.43,1.58C11.72,19.89,11.75,20.15,11.8,20.42Z"/><path class="cls-4" d="M29.85,20a2.32,2.32,0,0,1-.44.23c-.57.16-1.15.29-1.72.43l-.59.1a6.29,6.29,0,0,1,2.72-.83Z"/><path class="cls-4" d="M11.64,20.76a7.35,7.35,0,0,1-2-.75v-.09A.92.92,0,0,1,10,20l1.71.74Z"/><path class="cls-4" d="M4.46,4.3a6.76,6.76,0,0,1-.78,2l-.08,0a1.27,1.27,0,0,1,0-.34l.73-1.65Z"/><path class="cls-4" d="M6.72,21.75a5.88,5.88,0,0,1-2-.84,6.69,6.69,0,0,1,2,.74Z"/><path class="cls-4" d="M12,20.53a7.66,7.66,0,0,1,.76-2l.09,0a1.27,1.27,0,0,1,0,.34c-.24.55-.49,1.1-.74,1.65Z"/><path class="cls-4" d="M25.92,6.32a3.57,3.57,0,0,1,.77-2A5.82,5.82,0,0,1,25.92,6.32Z"/><path class="cls-4" d="M19.26,21.06a3.64,3.64,0,0,1-.81,2,1.33,1.33,0,0,1,0-.2A8,8,0,0,1,19.26,21.06Z"/><path class="cls-4" d="M26.88,20.5a4.1,4.1,0,0,1,.82-1.95,1.85,1.85,0,0,1,0,.25A7.15,7.15,0,0,1,26.88,20.5Z"/><path class="cls-4" d="M35.07,1.81a3.65,3.65,0,0,1-.78,1.95A5.51,5.51,0,0,1,35.07,1.81Z"/><path class="cls-4" d="M4.58,3.76a7.19,7.19,0,0,1,.76-2l.1,0a1.54,1.54,0,0,1-.05.31c-.24.56-.49,1.11-.73,1.66Z"/><path class="cls-4" d="M34.46,20.89a7.38,7.38,0,0,1,2,.76l0,.09a.92.92,0,0,1-.29,0L34.42,21Z"/><path class="cls-4" d="M14.18,5a6.78,6.78,0,0,1-2-.85A3.83,3.83,0,0,1,14.18,5Z"/><path class="cls-4" d="M34.28,20.5A6.82,6.82,0,0,1,35,18.55l.09,0a1.18,1.18,0,0,1,0,.27c-.24.57-.49,1.13-.74,1.69Z"/><path class="cls-4" d="M19.64,4.17a6.45,6.45,0,0,1,2,.74V5a.74.74,0,0,1-.21,0A6.74,6.74,0,0,1,19.64,4.17Z"/><path class="cls-4" d="M34.13,21.11A6.85,6.85,0,0,1,33.38,23H33.3a.81.81,0,0,1,0-.27c.24-.56.49-1.11.73-1.67Z"/><path class="cls-4" d="M6.71,5a6,6,0,0,1-1.92-.84,6.24,6.24,0,0,1,2,.73Z"/><path class="cls-4" d="M19.29,4.33a7.1,7.1,0,0,1-.75,2l-.09,0a.72.72,0,0,1,0-.26c.24-.57.49-1.14.74-1.7Z"/><path class="cls-4" d="M14.15,21.74a1.65,1.65,0,0,1-.32,0c-.24-.09-.49-.18-.72-.29a10.36,10.36,0,0,1-.93-.5,6.37,6.37,0,0,1,2,.74Z"/><path class="cls-4" d="M19.06,20.76a7.57,7.57,0,0,1-2-.75l0-.1a1.45,1.45,0,0,1,.29,0l1.69.74Z"/><path class="cls-4" d="M26.69,21.08A6.37,6.37,0,0,1,26,23L25.85,23A5.67,5.67,0,0,1,26.69,21.08Z"/><path class="cls-4" d="M20.27,1.83a5.8,5.8,0,0,1-.79,1.94A4,4,0,0,1,20.27,1.83Z"/><path class="cls-4" d="M26.88,3.75a6.15,6.15,0,0,1,.74-1.95h.08a1.47,1.47,0,0,1,0,.21A7.23,7.23,0,0,1,26.88,3.75Z"/><path class="cls-4" d="M11.87,4.33a6.82,6.82,0,0,1-.76,2H11c0-.09,0-.2,0-.27.24-.58.49-1.14.74-1.71Z"/><path class="cls-4" d="M11,23a5.88,5.88,0,0,1,.84-1.92,6.33,6.33,0,0,1-.73,2Z"/><path class="cls-4" d="M4.44,21.05a6.79,6.79,0,0,1-.74,2l-.08,0a.89.89,0,0,1,0-.23A7.34,7.34,0,0,1,4.44,21.05Z"/><path class="cls-4" d="M4.22,20.77a7.27,7.27,0,0,1-2-.77l0-.08a.86.86,0,0,1,.28,0l1.71.74Z"/><path class="cls-4" d="M34.47,4.18a3.91,3.91,0,0,1,2,.81h-.21A7.66,7.66,0,0,1,34.47,4.18Z"/><path class="cls-4" d="M9.68,3.22A3.72,3.72,0,0,1,11.61,4,5.59,5.59,0,0,1,9.68,3.22Z"/><path class="cls-4" d="M17.13,3.18a6.07,6.07,0,0,1,2,.79A3.93,3.93,0,0,1,17.13,3.18Z"/><path class="cls-4" d="M33.86,4a7,7,0,0,1-1.92-.75l0-.06a.75.75,0,0,1,.26,0l1.68.72Z"/><path class="cls-4" d="M27.06,4.17a6.81,6.81,0,0,1,2,.73V5a.68.68,0,0,1-.2,0A6.81,6.81,0,0,1,27.06,4.17Z"/><path class="cls-4" d="M29,21.72A5.41,5.41,0,0,1,27.07,21,4,4,0,0,1,29,21.72Z"/><path class="cls-4" d="M12.05,3.71a5.89,5.89,0,0,1,.72-1.91l.08,0a.89.89,0,0,1,0,.23A6.49,6.49,0,0,1,12.05,3.71Z"/><path class="cls-4" d="M21.55,21.75a6.08,6.08,0,0,1-1.94-.84,6.73,6.73,0,0,1,2,.74Z"/><path class="cls-4" d="M24.56,19.9a5.65,5.65,0,0,1,1.87.81,5.85,5.85,0,0,1-1.91-.7Z"/><path class="cls-4" d="M19.47,20.48a6,6,0,0,1,.72-1.93h.08a.87.87,0,0,1,0,.23A6.84,6.84,0,0,1,19.47,20.48Z"/><path class="cls-4" d="M26.46,4a5.71,5.71,0,0,1-1.93-.73V3.19a1,1,0,0,1,.25,0A6.9,6.9,0,0,1,26.46,4Z"/><path class="cls-4" d="M33.29,6.26a1,1,0,0,1,0-.3c.23-.54.48-1.08.76-1.61a5.53,5.53,0,0,1-.7,1.93Z"/><path class="cls-4" d="M33.92,20.74a6.31,6.31,0,0,1-2-.74l0-.07a.88.88,0,0,1,.23,0A7.38,7.38,0,0,1,33.92,20.74Z"/><path class="cls-4" d="M5.4,18.55a3.72,3.72,0,0,1-.75,1.89A4.14,4.14,0,0,1,5.4,18.55Z"/><path class="cls-4" d="M2.23,3.15a6.32,6.32,0,0,1,2,.81A4,4,0,0,1,2.23,3.15Z"/><path class="cls-4" d="M28.13,2.74a3.19,3.19,0,0,1,.87-1A2.89,2.89,0,0,1,28.13,2.74Z"/><path class="cls-4" d="M18.26,2.8a3.1,3.1,0,0,1-1-.86A3.1,3.1,0,0,1,18.26,2.8Z"/><path class="cls-4" d="M9.86,1.88l1,.9,0,0A4.51,4.51,0,0,1,9.78,2Z"/><path class="cls-4" d="M32.79,22a2.92,2.92,0,0,1-.86,1A3,3,0,0,1,32.79,22Z"/><path class="cls-4" d="M6.72,6.18a3.11,3.11,0,0,1-1-.87A3.13,3.13,0,0,1,6.72,6.18Z"/><path class="cls-4" d="M3.11,5.22a3.13,3.13,0,0,1-.87,1A3.23,3.23,0,0,1,3.11,5.22Z"/><path class="cls-4" d="M9.61,6.27a4.2,4.2,0,0,1,.9-1A2.41,2.41,0,0,1,9.61,6.27Z"/><path class="cls-4" d="M14.13,22.92a2.92,2.92,0,0,1-1-.86A3.13,3.13,0,0,1,14.13,22.92Z"/><path class="cls-4" d="M14.19,18.49a4.6,4.6,0,0,1-.87,1l-.05,0,.82-1Z"/><path class="cls-4" d="M20.71,19.49a3.09,3.09,0,0,1,.87-1A2.87,2.87,0,0,1,20.71,19.49Z"/><path class="cls-4" d="M21.58,1.71a2.59,2.59,0,0,1-.84,1A2.87,2.87,0,0,1,21.58,1.71Z"/><path class="cls-4" d="M25.68,19.55a3,3,0,0,1-1-.86A3.16,3.16,0,0,1,25.68,19.55Z"/><path class="cls-4" d="M24.5,23a4,4,0,0,1,.87-1A2.44,2.44,0,0,1,24.5,23Z"/><path class="cls-4" d="M29,6.17a3,3,0,0,1-1-.85A3,3,0,0,1,29,6.17Z"/><path class="cls-4" d="M32.1,18.65a5,5,0,0,1,1,.88l0,0-1-.82Z"/><path class="cls-4" d="M2.18,22.94l.87-1,.05,0a4,4,0,0,1-.82,1Z"/><path class="cls-4" d="M6.72,22.92a3,3,0,0,1-1-.86A3.2,3.2,0,0,1,6.72,22.92Z"/><path class="cls-4" d="M35.38,5.32a3,3,0,0,1,1,.86A3.16,3.16,0,0,1,35.38,5.32Z"/><path class="cls-4" d="M3.4,19.55a4.41,4.41,0,0,1-1.06-.83C2.57,18.69,3,19,3.4,19.55Z"/><path class="cls-4" d="M21.57,22.92a2.29,2.29,0,0,1-1-.84A2.75,2.75,0,0,1,21.57,22.92Z"/><path class="cls-4" d="M35.57,2.72a3,3,0,0,1,.85-1A3,3,0,0,1,35.57,2.72Z"/><path class="cls-4" d="M25.66,2.79a3.12,3.12,0,0,1-1-.85A2.79,2.79,0,0,1,25.66,2.79Z"/><path class="cls-4" d="M31.94,6.27a2.11,2.11,0,0,1,.85-1A3.46,3.46,0,0,1,31.94,6.27Z"/><path class="cls-4" d="M5.91,19.43a2.77,2.77,0,0,1,.83-1A2.77,2.77,0,0,1,5.91,19.43Z"/><path class="cls-4" d="M17.24,18.69a3.41,3.41,0,0,1,1,.82A2.25,2.25,0,0,1,17.24,18.69Z"/><path class="cls-4" d="M18,5.27l-.86,1.07C17.08,6.07,17.65,5.39,18,5.27Z"/><path class="cls-4" d="M6.75,1.72a3.88,3.88,0,0,1-.87,1A2.4,2.4,0,0,1,6.75,1.72Z"/><path class="cls-4" d="M2.38,2a2.67,2.67,0,0,1,1,.79A2.67,2.67,0,0,1,2.38,2Z"/><path class="cls-4" d="M29,18.46a3.21,3.21,0,0,1-.85,1A2.58,2.58,0,0,1,29,18.46Z"/><path class="cls-4" d="M18,22a3,3,0,0,1-.86,1A3,3,0,0,1,18,22Z"/><path class="cls-4" d="M20.55,5.31a4.41,4.41,0,0,1,1.05.84C21.37,6.17,20.85,5.75,20.55,5.31Z"/><path class="cls-4" d="M14.11,6.21a4.27,4.27,0,0,1-1-.83l0-.06,1,.79Z"/><path class="cls-4" d="M36.39,22.93a3.64,3.64,0,0,1-1-.83A2.27,2.27,0,0,1,36.39,22.93Z"/><path class="cls-4" d="M36.43,18.46a2.88,2.88,0,0,1-.86,1A3,3,0,0,1,36.43,18.46Z"/><path class="cls-4" d="M25.4,5.27l-.83,1C24.51,6.06,24.93,5.54,25.4,5.27Z"/><path class="cls-4" d="M29,22.92a2.9,2.9,0,0,1-1-.83A2.9,2.9,0,0,1,29,22.92Z"/><path class="cls-4" d="M32.07,1.94a3,3,0,0,1,1,.84A2.75,2.75,0,0,1,32.07,1.94Z"/><path class="cls-4" d="M9.67,23a2.66,2.66,0,0,1,.83-1A2.82,2.82,0,0,1,9.67,23Z"/><path class="cls-4" d="M9.81,18.7a2.68,2.68,0,0,1,1,.82A3,3,0,0,1,9.81,18.7Z"/><path class="cls-4" d="M13.3,2.76a2.34,2.34,0,0,1,.91-1.07A4.24,4.24,0,0,1,13.3,2.76Z"/><path class="cls-4" d="M17.15,20.77l-.93.22,0-.09A1.93,1.93,0,0,1,17.15,20.77Z"/><path class="cls-4" d="M34.36,18.89,34.13,18l.08,0a2.78,2.78,0,0,1,.2.94Z"/><path class="cls-4" d="M8.77,20.87l1-.17v.07L8.8,21Z"/><path class="cls-4" d="M34.1,24,33.93,23H34l.23.92Z"/><path class="cls-4" d="M22.5,4.05l-.94.17,0-.07.94-.22Z"/><path class="cls-4" d="M15.09,4.05l-.95.17V4.15l.93-.22Z"/><path class="cls-4" d="M4.56,1.19l.17.91H4.68a2.4,2.4,0,0,1-.2-.91Z"/><path class="cls-4" d="M24.57,20.77l-.93.22C23.74,20.81,24.16,20.72,24.57,20.77Z"/><path class="cls-4" d="M31,20.87,32,20.7v.07l-.92.22Z"/><path class="cls-4" d="M26.94,2.15l-.23-.94.08,0a2.78,2.78,0,0,1,.2,1Z"/><path class="cls-4" d="M34.1,7.21l-.18-.94.07,0,.22.93Z"/><path class="cls-4" d="M4.4,7.21l-.17-1,.07,0,.23.94Z"/><path class="cls-4" d="M4.67,18.89,4.44,18l.09,0A2,2,0,0,1,4.67,18.89Z"/><path class="cls-4" d="M4.3,23l.23,1-.08,0a3,3,0,0,1-.21-1Z"/><path class="cls-4" d="M6.72,4.14l.92-.21,0,.12-.94.17Z"/><path class="cls-4" d="M26.83,17.93l.17,1-.06,0-.23-1Z"/><path class="cls-4" d="M2.3,20.77,1.37,21l0-.12.94-.17Z"/><path class="cls-4" d="M37.35,4.05l-.92.17,0-.07.92-.22Z"/><path class="cls-4" d="M29,4.14l.91-.21,0,.12L29,4.22Z"/><path class="cls-4" d="M12,1.18l.17.91h-.07l-.21-.89Z"/><path class="cls-4" d="M11.84,7.2c0-.15-.08-.31-.11-.47a1.34,1.34,0,0,1,0-.49l.23.94Z"/><path class="cls-4" d="M26.58,6.28l.21.9-.08,0a2.78,2.78,0,0,1-.19-.9Z"/><path class="cls-4" d="M11.82,24l-.16-1h.06l.23,1Z"/><path class="cls-4" d="M26.58,23l.21.91-.11,0L26.5,23Z"/><path class="cls-4" d="M34.25,1.19l.17,1h-.06l-.23-.94Z"/><path class="cls-4" d="M12,17.93l.17.9-.07,0-.21-.9Z"/><path class="cls-4" d="M29.92,20.8,29,21v-.08l.87-.2Z"/><path class="cls-4" d="M1.35,4.11,2.24,4l0,.08-.89.19Z"/><path class="cls-4" d="M19.41,1.19l.16.87-.08,0-.2-.87Z"/><path class="cls-4" d="M6.75,20.88l.94-.21A1.08,1.08,0,0,1,6.75,20.88Z"/><path class="cls-4" d="M9.67,4l-.88.19,0-.11L9.65,4Z"/><path class="cls-4" d="M24.53,4l-.89.19,0-.11.9-.16Z"/><path class="cls-4" d="M19.25,24l-.16-.89h.07l.21.87Z"/><path class="cls-4" d="M15.08,20.8l-.89.16v-.08l.88-.2Z"/><path class="cls-4" d="M19.25,7.2l-.16-.86.08,0,.2.85Z"/><path class="cls-4" d="M19.49,18.82,19.3,18A.94.94,0,0,1,19.49,18.82Z"/><path class="cls-4" d="M16.2,4.11,17.1,4V4l-.89.2Z"/><path class="cls-4" d="M36.45,20.88l.88-.2,0,.09a2.7,2.7,0,0,1-.89.17Z"/><path class="cls-4" d="M31,4.12,31.93,4V4l-.88.2Z"/><path class="cls-4" d="M21.62,20.88l.85-.19,0,.08a2.54,2.54,0,0,1-.87.17Z"/></g></g></svg>