<svg xmlns="http://www.w3.org/2000/svg" viewBox="0 0 38.55 24.66"><defs><style>.cls-1{isolation:isolate;}.cls-2{opacity:0.15;}.cls-2,.cls-3{mix-blend-mode:multiply;}.cls-4{fill:#fff;}</style></defs><title>convert-CUSTOMIZE-SVG-03</title><g class="cls-1"><g id="Layer_1" data-name="Layer 1"><g class="cls-2"><path d="M35.37.92a1.76,1.76,0,0,1,1.74,1.31,1.38,1.38,0,0,1-.17,1,5.84,5.84,0,0,1-.8,1.16c-.83.9-1.69,1.76-2.54,2.63a.38.38,0,0,1-.55,0,.39.39,0,0,1,0-.56c.79-.82,1.6-1.63,2.38-2.46A6,6,0,0,0,36,3.11a1.33,1.33,0,0,0,.17-.52.74.74,0,0,0-1.08-.75,4.91,4.91,0,0,0-.82.62.48.48,0,0,1-.84-.24.22.22,0,0,1,0-.19A2.8,2.8,0,0,1,35.16,1Zm1.18.74-.26.22c.21.37.24.38.54.24ZM36.39,3l-.19.38.26.18.25-.47Zm-1.7-1.25.36-.22L35,1.26l-.44.21Zm-.17,3.86.37-.35-.21-.2-.33.34Zm1.94-3.17a1.05,1.05,0,0,0,.09.34c0,.05.21.07.22.06s.08-.28.13-.46l-.21,0ZM34.87,4.87c.16.3.24.28.52-.12l-.21-.19Zm-.36-2.95-.22-.3L34,1.91l.24.27ZM34,6.13l.36-.35-.16-.14L33.8,6Zm-.68.32.2.21.34-.35-.19-.17ZM36.06,3.6l-.18.21c-.1.1-.07.17,0,.25s.16,0,.22,0l.19-.23Zm-.85-2.39c0,.13,0,.26.19.27s.26-.08.28-.27Zm.62,3.09-.22-.19-.26.26.23.23.2-.22A.56.56,0,0,0,35.83,4.3Zm.14-3c-.16.25-.16.25.12.41l.24-.21Z"/><path d="M3.81.92A1.76,1.76,0,0,1,5.55,2.19a1.64,1.64,0,0,1-.12,1,3.64,3.64,0,0,1-.81,1.2C3.77,5.23,2.9,6.12,2,7a.39.39,0,0,1-.56,0,.38.38,0,0,1,0-.54c.8-.82,1.61-1.64,2.4-2.48a5.32,5.32,0,0,0,.65-.85,1.23,1.23,0,0,0,.16-.5.73.73,0,0,0-1-.78A3.16,3.16,0,0,0,3,2.25a2.79,2.79,0,0,0-.32.28.34.34,0,0,1-.45.05,1.85,1.85,0,0,1-.32-.44s0-.08,0-.11A2.82,2.82,0,0,1,3.62.94ZM5,1.65c-.1.14-.33.13-.2.36s.2.24.48.11ZM4.64,3.4l.26.18.26-.47L4.83,3ZM3.51,1.59l-.12-.36L3,1.5s.08.2.11.2A2.52,2.52,0,0,0,3.51,1.59Zm1.39.88a2.75,2.75,0,0,0,.1.34s.22,0,.22,0a2.83,2.83,0,0,0,.11-.44ZM3,5.63l.16-.18.13-.14-.17-.22C2.75,5.39,2.74,5.43,3,5.63ZM3,1.92l-.21-.3-.31.27.25.27ZM2.64,5.6c-.4.32-.41.37-.17.51l.35-.32Zm1-1.06-.33.35.17.23L3.61,5l.22-.24Zm.88-.94c-.31.36-.31.36,0,.52l.29-.34ZM2.12,6.11l-.36.37L2,6.69l.36-.35ZM4,4.56l.33-.25-.21-.19-.3.26Zm.47-3.27c-.18.26-.17.28.1.39l.27-.18Zm-.76-.08c0,.12,0,.25.18.27s.28-.06.29-.27Z"/><path d="M16.09,2.39a2.14,2.14,0,0,1-.39,1.23,6.08,6.08,0,0,1-.59.75c-.83.87-1.67,1.73-2.52,2.6A.38.38,0,0,1,12,7a.4.4,0,0,1,0-.59l2.39-2.46a2.74,2.74,0,0,0,.78-1.24A.69.69,0,0,0,14.93,2a.66.66,0,0,0-.8-.14,6.41,6.41,0,0,0-.68.48,1.54,1.54,0,0,0-.19.17c-.37.36-.75.06-.83-.28a.16.16,0,0,1,0-.15A2.91,2.91,0,0,1,14.13.94a1.76,1.76,0,0,1,1.92,1.18A2.2,2.2,0,0,1,16.09,2.39Zm-.57-.73c-.1.12-.31.12-.21.33s.19.26.49.13ZM15.37,3c-.24.39-.24.41.06.54l.24-.45ZM14,1.56l-.1-.3-.45.21.2.29Zm1.41.91a1.15,1.15,0,0,0,.09.33c0,.05.23.06.24.05s.06-.29.09-.45ZM13.13,5.59l-.33.35.21.22.34-.36Zm-.66,1.06.37-.33-.2-.18-.35.31Zm1.39-1.37-.18-.17-.38.34.2.17Zm.31-.71-.35.33.19.22L14.17,5l.17-.19Zm-.91-2.94c-.36.26-.37.33,0,.51l.25-.22Zm2,2.14L15,3.6l-.14.17-.12.16C15,4.18,15,4.18,15.27,3.77Zm-.69-2.31.08-.25h-.48C14.24,1.5,14.24,1.5,14.58,1.46ZM14.5,4.55l.32-.23-.25-.21-.25.27ZM15,1.7l.27-.21-.39-.2-.12.26Z"/><path d="M3.85,17.56a1.74,1.74,0,0,1,1.7,1.28,1.65,1.65,0,0,1-.12.95A3.74,3.74,0,0,1,4.62,21c-.85.89-1.72,1.77-2.58,2.66a.37.37,0,0,1-.54,0,.38.38,0,0,1-.06-.55c.81-.83,1.63-1.65,2.42-2.5a4.39,4.39,0,0,0,.69-1,.74.74,0,0,0-.21-1.05.65.65,0,0,0-.79-.06,7.79,7.79,0,0,0-.8.62.47.47,0,0,1-.83-.24.24.24,0,0,1,0-.19A2.83,2.83,0,0,1,3.58,17.6ZM5,18.32c-.29.17-.29.17-.17.39s.19.18.44.05Zm-.18,1.34-.19.39.26.17.26-.46Zm.49-.61L5,19.11c0,.36,0,.39.3.39ZM3.4,17.92c-.47.15-.51.22-.24.47l.34-.19Zm-.23,3.83-.4.33.22.23.19-.22.15-.16Zm-.54.5c-.39.32-.4.37-.16.5l.35-.32Zm-.21-3.71.26.27L3,18.57l-.21-.3Zm2.34,1.88-.26-.17c-.3.36-.3.36,0,.51l.06-.05ZM3.32,21.53c.14.26.18.31.51-.14l-.21-.19ZM2,23.3,2.32,23l-.22-.2-.33.37Zm2.18-5.44H3.68l-.05.06c.07.07.12.17.2.2S4.11,18.07,4.13,17.86Zm-.07,2.89L3.8,21l.19.22.17-.16L4.28,21Zm.36-2.81c-.18.26-.17.28.12.39l.25-.19Z"/><path d="M35.42,17.57a1.72,1.72,0,0,1,1.69,1.3,1.66,1.66,0,0,1-.13.93,4.06,4.06,0,0,1-.87,1.26L33.6,23.64a.37.37,0,0,1-.55,0,.37.37,0,0,1,0-.56l2.4-2.48a2.85,2.85,0,0,0,.77-1.15.75.75,0,0,0-.64-1,1.22,1.22,0,0,0-.63.19,6.87,6.87,0,0,0-.66.55.44.44,0,0,1-.67-.07c-.17-.21-.17-.32,0-.53a2.81,2.81,0,0,1,1.55-1Zm.86,1c.22.36.26.38.55.23l-.28-.45Zm.11,1.13-.19.39.26.17.25-.46ZM35.05,18.2l-.1-.3-.45.22.19.29Zm-.16,3.73-.23-.23-.16.21c-.17.18-.17.21.07.35Zm1.91-2.41.08-.47-.2,0-.18,0C36.46,19.46,36.46,19.46,36.8,19.52Zm-1.95,2,.16.2.4-.34-.21-.19ZM34,22.8l.36-.36-.21-.19-.35.36ZM34,18.56l.26.26.29-.25-.22-.3Zm-.3,4.2-.33.36.18.2.35-.37Zm2.4-2.52c-.07.08-.12.16-.18.22s-.06.17,0,.24.15.05.21,0l.2-.25Zm-.83-2.39c0,.26,0,.26.17.28s.28-.07.27-.28ZM35.85,21l-.24-.2-.23.24.17.23Zm.12-3c-.16.25-.16.25.13.41l.24-.21Z"/><path d="M24.89.92a1.86,1.86,0,0,1,1.47.75A1.38,1.38,0,0,1,26.52,3a3.2,3.2,0,0,1-.75,1.22c-.89.94-1.8,1.87-2.71,2.8a.37.37,0,0,1-.54,0,.38.38,0,0,1,0-.54c.78-.8,1.56-1.59,2.33-2.4a6.67,6.67,0,0,0,.67-.84,1.63,1.63,0,0,0,.2-.47.7.7,0,0,0-.26-.77.67.67,0,0,0-.82-.1,7.47,7.47,0,0,0-.79.6c-.35.3-.72.22-.85-.2A.25.25,0,0,1,23,2,2.82,2.82,0,0,1,24.65.94Zm1.43,1.21L26,1.66l-.25.22C26,2.25,26,2.25,26.32,2.13ZM24,1.47l.19.3.36-.22-.09-.29Zm2,2.09.24-.45L25.88,3C25.65,3.42,25.65,3.43,26,3.56Zm0-1.1c-.07.34,0,.41.31.39l0-.44Zm-2.8,3.68-.36.34.18.17.34-.33Zm1.12-1.22.2.19.38-.35-.21-.18Zm-.31.7.38-.34-.23-.2-.34.36Zm-.5.52.37-.34-.19-.17L23.29,6Zm.27-4.52-.33.31.25.25.3-.26Zm1.5,2.31c.22.25.26.24.51-.16l-.24-.17Zm.56-2.44-.4-.21-.11.27.28.18Zm-1.12-.3c0,.31,0,.31.38.27l.09-.25Zm.41,2.95-.3.23.18.17.33-.23Z"/><path d="M16.14,19.12a5.17,5.17,0,0,1-.3.89,6,6,0,0,1-.73,1c-.82.88-1.68,1.74-2.52,2.6a.37.37,0,0,1-.58,0A.4.4,0,0,1,12,23c.83-.85,1.67-1.7,2.49-2.56a2.44,2.44,0,0,0,.68-1.13.7.7,0,0,0-.26-.74.69.69,0,0,0-.78-.13,3.9,3.9,0,0,0-.54.36,2.35,2.35,0,0,0-.33.3c-.34.34-.74.09-.83-.29a.16.16,0,0,1,0-.15,2.89,2.89,0,0,1,1.66-1.09,1.77,1.77,0,0,1,1.94,1.16c0,.11,0,.23.05.35Zm-.61-.8c-.29.18-.3.19-.16.42s.26.09.44,0Zm-.17,1.34c-.23.43-.23.43.08.54l.23-.44ZM13.49,18.1c.14.35.19.36.52.08l-.09-.28Zm2.29,1.41.05-.46-.36.06C15.41,19.46,15.43,19.49,15.78,19.51Zm-3.5,3.61.18.2.39-.35-.2-.18Zm.72-.31.35-.36-.22-.21-.35.37Zm.85-.89-.21-.2-.35.36.2.2Zm-.63-3.13.25-.22-.2-.29C12.9,18.51,12.89,18.6,13.22,18.79Zm2,1.62L15,20.24l-.26.32C15,20.84,15,20.82,15.27,20.41Zm-.9,1-.19-.18-.38.33.21.22Zm-.18-3.56c0,.3,0,.3.39.26l.08-.26ZM14.32,21l.18.2.32-.26-.25-.2Zm.48-2.83.23.15.3-.19-.41-.22Z"/><path d="M24.89,17.58a1.79,1.79,0,0,1,1.46.72,1.38,1.38,0,0,1,.17,1.33,3.2,3.2,0,0,1-.71,1.19c-.91,1-1.84,1.9-2.76,2.85a.37.37,0,0,1-.52-.06.39.39,0,0,1,0-.56c.74-.76,1.49-1.52,2.23-2.29a9.82,9.82,0,0,0,.71-.86,1.84,1.84,0,0,0,.24-.51.7.7,0,0,0-.26-.81.68.68,0,0,0-.84-.08,8.73,8.73,0,0,0-.77.59c-.35.29-.7.21-.84-.2a.25.25,0,0,1,0-.21A2.86,2.86,0,0,1,24.6,17.6l.12,0Zm.88.94c.19.37.25.39.55.24L26,18.31ZM26,20.21l.24-.45-.31-.1C25.64,20.05,25.64,20.06,26,20.21Zm-1.78-1.8.36-.21-.09-.3-.46.22Zm1.82.7c-.08.34,0,.4.31.39l.05-.45Zm-1.31,2.11-.37.34.21.21.36-.36Zm-1-2.4.29-.25-.22-.3-.33.3Zm.45,2.9-.33.35.18.17.39-.3Zm-1,1.05-.36.33.2.18.34-.33Zm.16-.18.22.21.33-.35-.22-.21Zm1.95-2c.21.26.31.23.5-.17l-.23-.15Zm.16-2.64-.11.27.27.16.24-.22Zm-.71-.07c0,.28,0,.28.37.25l.09-.25Zm.33,3.38.28-.29-.23-.17-.27.23Z"/><path d="M30.41,4.26l-.95.9a.25.25,0,0,0,0,.21.72.72,0,0,1-.34.82A.73.73,0,0,1,28.21,6a.71.71,0,0,1-.06-.87.7.7,0,0,1,.92-.23.2.2,0,0,0,.28,0c.23-.22.47-.44.69-.68s.17-.21.06-.51L30,3.92l-.68-.2c0-.4-.37-.38-.61-.51-.05-.45-.07-.47-.5-.58V2.07l.72.06a.38.38,0,0,0,.19.47,4.61,4.61,0,0,0,.54.23.6.6,0,0,0,.27.55.75.75,0,0,0,.2,0,2.88,2.88,0,0,1,.81,1.92,2.86,2.86,0,0,1,.51.42.69.69,0,0,1-.22,1,.73.73,0,0,1-1-.24.68.68,0,0,1,.25-1,.33.33,0,0,0,.19-.43C30.58,4.81,30.49,4.55,30.41,4.26Z"/><path d="M19.42,3.72l-.12.2-.68-.21c0-.41-.39-.36-.62-.51,0-.41,0-.41-.48-.58V2.07l.7.06c0,.41.13.53.74.68a.65.65,0,0,0,.33.61l.1-.07a3,3,0,0,1,.85,2l.17.07a.71.71,0,0,1-.2,1.37.7.7,0,0,1-.75-.52.68.68,0,0,1,.34-.81c.15-.07.21-.16.18-.31s-.15-.6-.23-.93c-.36.34-.67.63-1,.93,0,0,0,.14,0,.2a.71.71,0,0,1-.48.87.73.73,0,0,1-.9-.47.68.68,0,0,1,.47-.88,1.86,1.86,0,0,1,.57,0c.08,0,.18,0,.22,0,.25-.23.49-.47.73-.71A.34.34,0,0,0,19.42,3.72Z"/><path d="M9.08,20.9c-.35.33-.66.61-1,.91,0,0,0,.14,0,.2a.73.73,0,0,1-.53.9.71.71,0,0,1-.87-.62A.7.7,0,0,1,7,21.64a.67.67,0,0,1,.74-.06A.24.24,0,0,0,8,21.52c.22-.22.45-.43.66-.65a.36.36,0,0,0,.06-.5l-.13.2L8,20.36c0-.41-.38-.37-.62-.51,0-.43,0-.44-.48-.58v-.55l.69.05c0,.45.14.54.76.69a.6.6,0,0,0,.26.56s.08,0,.18,0a2.83,2.83,0,0,1,.84,2l.18.07a.73.73,0,0,1,.43.8A.73.73,0,0,1,8.8,23a.67.67,0,0,1,.32-.83.27.27,0,0,0,.18-.35C9.24,21.5,9.16,21.21,9.08,20.9Z"/><path d="M9.57,5.38c.52.19.73.55.58,1a.69.69,0,0,1-.72.47.68.68,0,0,1-.64-.54.67.67,0,0,1,.33-.78.27.27,0,0,0,.18-.34c-.06-.3-.14-.6-.22-.91l-1,.91a.3.3,0,0,0,0,.23.72.72,0,0,1-1.39.38.69.69,0,0,1,.47-.87,2.28,2.28,0,0,1,.57,0,.36.36,0,0,0,.21,0c.25-.23.49-.47.73-.71a.36.36,0,0,0,.06-.5l-.13.2L8,3.71c0-.25,0-.25-.62-.51,0-.42,0-.45-.48-.57V2.05a2.46,2.46,0,0,0,.33.06h.36c0,.46.14.53.76.7a.61.61,0,0,0,.26.56s.08,0,.13,0A2.85,2.85,0,0,1,9.57,5.38Z"/><path d="M30.09,20.36l-.12.21-.68-.21c0-.4-.36-.38-.61-.51-.05-.44-.05-.44-.5-.58V18.7c.11,0,.23.05.35.06h.36c0,.43.11.54.74.7a.62.62,0,0,0,.33.6s.06,0,.1-.06a3,3,0,0,1,.85,2,.74.74,0,0,1,.59.51.71.71,0,0,1-.41.87.73.73,0,0,1-.92-.35.69.69,0,0,1,.28-.92.31.31,0,0,0,.2-.38c-.07-.29-.15-.57-.24-.88l-.95,1-.06-.06c0,.11.05.21.06.31a.7.7,0,0,1-.48.72.74.74,0,0,1-.81-.25.72.72,0,0,1,0-.87.7.7,0,0,1,.84-.21.28.28,0,0,0,.4-.07c.21-.21.43-.42.64-.64A.34.34,0,0,0,30.09,20.36Z"/><path d="M19.42,20.36l-.12.21-.68-.21c0-.41-.37-.37-.61-.51-.06-.45-.06-.45-.49-.57v-.56l.71.05c0,.41.1.53.73.69a.63.63,0,0,0,.33.6s.05,0,.09-.07a3,3,0,0,1,.86,2l.19.07a.72.72,0,0,1,.43.78.72.72,0,0,1-1.4.08.68.68,0,0,1,.33-.81A.29.29,0,0,0,20,21.8c-.07-.3-.15-.59-.23-.9-.36.33-.66.62-1,.91a.23.23,0,0,0,0,.18.72.72,0,1,1-1.39.35.71.71,0,0,1,1-.77.25.25,0,0,0,.33,0c.22-.23.46-.46.69-.69A.34.34,0,0,0,19.42,20.36Z"/><path d="M19.49,19.81a.81.81,0,0,0,.73-.9c.74-.13.88-.26.86-.85a1,1,0,0,0,.78.05v.77c-.14.06-.35.09-.45.2s-.11.33-.18.54c-.25.11-.71.07-.66.61-.26,0-.55-.08-.72.17Z"/><path d="M19.49,3.16a.79.79,0,0,0,.73-.86,4.56,4.56,0,0,0,.66-.25.53.53,0,0,0,.19-.59l.8.05v.75c-.52.08-.53.09-.6.7-.3.12-.74.09-.7.62-.25,0-.54-.07-.72.17Z"/><path d="M31.25,20.23c-.28,0-.56-.06-.73.16l-.36-.58a.8.8,0,0,0,.72-.9c.78-.15.92-.3.86-.81l.79.06v.75C32,19,32,19,32,19.59c-.17.06-.34.11-.51.18A.38.38,0,0,0,31.25,20.23Z"/><path d="M8.82,3.16a.8.8,0,0,0,.74-.86A4.32,4.32,0,0,0,10.22,2c.22-.13.21-.37.18-.58l.8.05v.72c-.15.06-.36.09-.46.21a1.43,1.43,0,0,0-.18.54c-.26.1-.71.07-.66.6-.25,0-.54-.07-.71.17Z"/><path d="M8.82,19.81c.61-.23.66-.28.75-.9.72-.13.82-.22.84-.8l.79.05v.75c-.52.08-.55.11-.59.69-.31.13-.76.09-.71.63-.26,0-.54-.07-.72.16Z"/><path d="M31.73,1.45l.79.08v.7c-.14.06-.35.09-.45.21a1.66,1.66,0,0,0-.16.53c-.27.11-.72.07-.67.61-.26,0-.54-.06-.72.17l-.36-.59a.78.78,0,0,0,.73-.86,5.66,5.66,0,0,0,.66-.25A.5.5,0,0,0,31.73,1.45Z"/><path d="M35.57,1.12a1.76,1.76,0,0,1,1.74,1.31,1.38,1.38,0,0,1-.17,1,5.84,5.84,0,0,1-.8,1.16c-.83.89-1.69,1.75-2.54,2.63a.38.38,0,0,1-.55,0,.39.39,0,0,1,0-.56C34,5.8,34.8,5,35.58,4.16a5.8,5.8,0,0,0,.65-.85,1.07,1.07,0,0,0,.17-.52A.73.73,0,0,0,35.32,2a4.78,4.78,0,0,0-.82.62.48.48,0,0,1-.83-.24.21.21,0,0,1,0-.19,2.76,2.76,0,0,1,1.66-1.08Zm1.18.74-.26.22c.21.36.24.38.54.24Zm-.16,1.35-.19.39.25.18.26-.47ZM34.89,2l.36-.22-.1-.3-.45.22Zm-.17,3.86.36-.36-.2-.19-.33.34Zm1.94-3.17a1.05,1.05,0,0,0,.09.34s.21.07.22.06a4.36,4.36,0,0,0,.12-.46l-.21,0ZM35.07,5.07c.16.3.23.28.51-.13l-.2-.18ZM34.7,2.12l-.21-.3-.32.28.24.28Zm-.49,4.21L34.57,6l-.17-.14-.4.31Zm-.69.32.2.21.34-.35-.18-.17ZM36.26,3.8c-.07.07-.12.15-.18.21s-.07.17,0,.24.16,0,.22,0L36.51,4Zm-.85-2.39c0,.13,0,.26.19.27s.26-.08.28-.27ZM36,4.5l-.22-.19-.27.26.24.23.2-.23Zm.14-3c-.16.25-.16.25.12.41l.24-.21Z"/><path d="M4,1.12A1.76,1.76,0,0,1,5.75,2.39a1.64,1.64,0,0,1-.12.95,3.64,3.64,0,0,1-.81,1.2L2.24,7.2a.39.39,0,0,1-.56,0,.38.38,0,0,1,0-.54C2.44,5.8,3.25,5,4,4.14a6.82,6.82,0,0,0,.65-.85,1.23,1.23,0,0,0,.16-.5.74.74,0,0,0-1-.79,3.66,3.66,0,0,0-.66.45,2.85,2.85,0,0,0-.32.27.34.34,0,0,1-.45.06,2.11,2.11,0,0,1-.33-.44s0-.08.05-.11A2.82,2.82,0,0,1,3.82,1.14Zm1.19.73C5.09,2,4.87,2,5,2.21s.2.24.48.11ZM4.84,3.6l.26.18.26-.47L5,3.22ZM3.71,1.79l-.13-.36-.39.27s.08.2.11.2A2.52,2.52,0,0,0,3.71,1.79Zm1.39.88A1.22,1.22,0,0,0,5.2,3s.22.05.22,0,.07-.29.11-.45ZM3.22,5.83l.16-.18.13-.15-.18-.21C3,5.59,2.94,5.63,3.22,5.83ZM3.15,2.12l-.22-.3-.3.27.25.27ZM2.83,5.8c-.39.32-.4.37-.16.51L3,6Zm1-1.06-.33.35.17.23.14-.11L4,5ZM4.7,3.8c-.3.36-.3.36,0,.52L5,4ZM2.31,6.31,2,6.68l.21.21.35-.36ZM4.15,4.76l.33-.25-.21-.19L4,4.58Zm.47-3.27c-.18.26-.17.27.1.39L5,1.69Zm-.76-.08c0,.12,0,.25.18.27s.27-.07.28-.27Z"/><path d="M16.29,2.59a2.25,2.25,0,0,1-.39,1.23,6.08,6.08,0,0,1-.59.75c-.83.87-1.68,1.73-2.52,2.6a.37.37,0,0,1-.58,0,.39.39,0,0,1,0-.58l2.39-2.46a2.64,2.64,0,0,0,.77-1.24.66.66,0,0,0-.23-.72.68.68,0,0,0-.8-.15,7.9,7.9,0,0,0-.69.49l-.19.17c-.36.36-.74.06-.83-.28a.19.19,0,0,1,0-.15,2.88,2.88,0,0,1,1.68-1.1,1.76,1.76,0,0,1,1.92,1.18A2.2,2.2,0,0,1,16.29,2.59Zm-.57-.73c-.1.11-.31.12-.21.32s.19.27.49.14Zm-.15,1.36c-.24.39-.24.41.06.54l.24-.45ZM14.21,1.75l-.1-.3-.45.22.2.29Zm1.41.92a1.15,1.15,0,0,0,.09.33s.23.06.24,0A4.25,4.25,0,0,0,16,2.6ZM13.33,5.79,13,6.14l.2.22L13.55,6Zm-.66,1L13,6.52l-.2-.19-.35.32Zm1.38-1.36-.18-.17-.37.33.19.18Zm.32-.71L14,5.1l.19.22.16-.15L14.54,5Zm-.91-2.94c-.36.25-.37.32,0,.51l.25-.22Zm2,2.14-.25-.17L15.08,4,15,4.13C15.17,4.38,15.18,4.38,15.47,4Zm-.7-2.31.09-.25h-.48C14.44,1.7,14.44,1.7,14.77,1.66ZM14.7,4.75,15,4.52l-.25-.21-.25.27Zm.53-2.85.28-.21-.39-.21L15,1.75Z"/><path d="M4.05,17.76A1.76,1.76,0,0,1,5.75,19a1.63,1.63,0,0,1-.12.95,3.84,3.84,0,0,1-.81,1.21L2.24,23.85a.38.38,0,0,1-.54,0,.38.38,0,0,1-.06-.55c.81-.83,1.62-1.65,2.41-2.5a4.43,4.43,0,0,0,.7-1,.74.74,0,0,0-.21-1.05.65.65,0,0,0-.79-.06,9.38,9.38,0,0,0-.8.61.47.47,0,0,1-.83-.23.21.21,0,0,1,0-.19A2.78,2.78,0,0,1,3.78,17.8Zm1.16.76c-.29.17-.29.17-.18.39s.2.18.44.05ZM5,19.86l-.19.38.26.18L5.36,20Zm.49-.61-.38.06c0,.36,0,.38.31.39ZM3.6,18.11c-.48.16-.51.23-.25.48l.35-.19ZM3.37,22l-.4.33.22.23.19-.22.15-.16Zm-.54.49c-.39.33-.4.38-.16.51L3,22.63Zm-.21-3.71.25.28.28-.25-.22-.29ZM5,20.62l-.26-.17c-.3.36-.3.36,0,.51l.06-.05Zm-1.45,1.1c.15.27.18.32.51-.13l-.2-.19ZM2.15,23.5l.37-.34L2.3,23,2,23.32Zm2.18-5.44H3.87l0,.05c.06.07.12.18.2.21S4.31,18.27,4.33,18.06ZM4.26,21,4,21.22l.19.23.17-.16.12-.14Zm.36-2.81c-.18.25-.17.28.12.39L5,18.34Z"/><path d="M35.62,17.76a1.74,1.74,0,0,1,1.69,1.31,1.7,1.7,0,0,1-.13.92,4,4,0,0,1-.87,1.27L33.8,23.84a.39.39,0,0,1-.56,0,.37.37,0,0,1,0-.55l2.4-2.48a2.79,2.79,0,0,0,.76-1.15.74.74,0,0,0-.63-1,1.11,1.11,0,0,0-.63.19,6.87,6.87,0,0,0-.66.55.44.44,0,0,1-.67-.07c-.17-.22-.17-.32,0-.53a2.73,2.73,0,0,1,1.55-1Zm.86,1c.22.36.25.38.55.23l-.28-.46Zm.11,1.13-.19.39.26.17.25-.46ZM35.25,18.4l-.1-.3-.45.21.19.3Zm-.16,3.73-.24-.23-.16.21c-.17.18-.16.2.08.35ZM37,19.72l.08-.47-.2,0-.18,0C36.66,19.66,36.66,19.66,37,19.72Zm-2,2,.17.2.4-.34-.21-.19ZM34.22,23l.36-.36-.22-.2-.34.37Zm-.07-4.25.26.27.29-.26-.21-.29ZM33.86,23l-.33.35.18.21.35-.37Zm2.4-2.52c-.07.08-.12.16-.18.22s-.06.16,0,.24.15.05.21,0l.2-.25Zm-.83-2.39c0,.26,0,.26.17.28s.27-.07.27-.28Zm.62,3.11-.24-.2-.23.24.17.23Zm.12-3c-.17.25-.17.25.13.4l.24-.2Z"/><path d="M25.08,1.12a1.87,1.87,0,0,1,1.48.74,1.38,1.38,0,0,1,.15,1.33A3.06,3.06,0,0,1,26,4.41c-.89.94-1.8,1.87-2.71,2.8a.38.38,0,0,1-.54,0,.38.38,0,0,1,0-.54L25,4.22a7.71,7.71,0,0,0,.67-.84,1.37,1.37,0,0,0,.19-.47.68.68,0,0,0-.25-.77A.67.67,0,0,0,24.8,2a7.47,7.47,0,0,0-.79.6c-.36.3-.72.22-.85-.2a.25.25,0,0,1,0-.21,2.82,2.82,0,0,1,1.67-1.09Zm1.44,1.2-.29-.46L26,2.08C26.16,2.44,26.18,2.45,26.52,2.32Zm-2.34-.65.19.29.36-.21-.09-.3Zm2,2.09.24-.45-.31-.09C25.84,3.62,25.84,3.63,26.15,3.76Zm0-1.1c-.07.34,0,.41.31.39l0-.44Zm-2.8,3.68L23,6.68l.18.17.34-.33Zm1.12-1.22.19.18L25.08,5l-.2-.18Zm-.31.7.38-.34-.23-.21L24,5.64Zm-.5.52L24.07,6l-.19-.17-.39.31ZM24,1.82l-.34.3.26.26.3-.26Zm1.5,2.31c.22.25.26.24.51-.16l-.24-.17ZM26,1.69l-.4-.21-.11.27.27.17Zm-1.12-.31c0,.32,0,.32.38.28l.09-.25Zm.41,3-.3.23.18.17.33-.23Z"/><path d="M16.34,19.32a4.81,4.81,0,0,1-.31.88,5.15,5.15,0,0,1-.72,1c-.83.88-1.68,1.74-2.52,2.6a.37.37,0,0,1-.58,0,.4.4,0,0,1,0-.59l2.49-2.57a2.26,2.26,0,0,0,.67-1.13.76.76,0,0,0-1-.86,3.9,3.9,0,0,0-.54.36c-.12.09-.23.19-.34.29-.33.35-.73.1-.83-.28a.21.21,0,0,1,0-.15,2.89,2.89,0,0,1,1.66-1.09A1.76,1.76,0,0,1,16.24,19a2,2,0,0,1,.06.35Zm-.61-.8c-.3.18-.3.19-.17.42s.27.09.45,0Zm-.17,1.34c-.23.43-.23.43.08.54l.23-.44ZM13.68,18.3c.15.35.2.36.53.08l-.1-.28ZM16,19.71l.05-.46-.36.06C15.61,19.65,15.63,19.69,16,19.71Zm-3.5,3.6.18.21.39-.35-.2-.19Zm.72-.3.35-.36-.22-.21L13,22.8Zm.85-.89-.21-.2-.35.36.2.2ZM13.42,19l.25-.23-.2-.28C13.1,18.71,13.09,18.8,13.42,19Zm2,1.62-.24-.17-.26.32C15.16,21,15.2,21,15.46,20.61Zm-.89,1-.19-.19-.39.34.22.21Zm-.18-3.56c0,.3,0,.3.39.25l.08-.25Zm.13,3.17.18.2.31-.26-.24-.2ZM15,18.39l.23.15.29-.19-.41-.22Z"/><path d="M25.09,17.77a1.84,1.84,0,0,1,1.46.73,1.38,1.38,0,0,1,.17,1.33A3.2,3.2,0,0,1,26,21c-.91,1-1.84,1.9-2.76,2.85a.37.37,0,0,1-.52-.06.39.39,0,0,1,0-.56c.74-.76,1.49-1.52,2.23-2.29a9.82,9.82,0,0,0,.71-.86,1.62,1.62,0,0,0,.23-.52.69.69,0,0,0-.25-.81.67.67,0,0,0-.84-.07,7.15,7.15,0,0,0-.77.59c-.35.29-.7.21-.84-.2a.25.25,0,0,1,0-.21A2.83,2.83,0,0,1,24.8,17.8l.12,0Zm.88.95c.19.37.25.39.54.24l-.28-.45Zm.18,1.69.24-.45-.31-.1C25.84,20.25,25.84,20.26,26.15,20.41Zm-1.78-1.8.36-.21-.1-.3-.45.21Zm1.82.7c-.08.34,0,.39.3.39l.06-.45Zm-1.31,2.11-.37.34.21.21.36-.36Zm-1-2.4.28-.25L24,18.46l-.33.31Zm.45,2.9-.33.35.18.17.38-.3Zm-1,1L23,23.3l.19.18.35-.33Zm.16-.18.22.21.33-.36-.22-.2Zm1.95-2c.21.26.31.23.5-.17l-.23-.16Zm.16-2.65-.11.28.26.16.25-.22Zm-.71-.07c0,.29,0,.29.37.26l.09-.26Zm.33,3.39.28-.29L25.3,21l-.27.24Z"/><path d="M30.61,4.46c-.35.32-.65.6-.95.9a.25.25,0,0,0,0,.21.72.72,0,1,1-1.29-.21.7.7,0,0,1,.92-.22.19.19,0,0,0,.27,0c.24-.23.48-.44.7-.68s.17-.21.06-.51l-.14.21-.67-.21c0-.39-.37-.37-.61-.5-.05-.45-.07-.47-.5-.58V2.27l.72,0a.39.39,0,0,0,.18.48,5.69,5.69,0,0,0,.55.23.6.6,0,0,0,.27.55.75.75,0,0,0,.2,0,2.91,2.91,0,0,1,.81,1.92,2.41,2.41,0,0,1,.5.42.67.67,0,0,1-.21,1,.72.72,0,0,1-1-.23.68.68,0,0,1,.25-1,.33.33,0,0,0,.19-.43C30.78,5,30.69,4.75,30.61,4.46Z"/><path d="M19.62,3.92l-.12.2-.68-.21c0-.41-.39-.37-.62-.51,0-.41,0-.41-.49-.58V2.27l.71,0c0,.42.13.54.74.69a.62.62,0,0,0,.32.6s.06,0,.11-.06a3,3,0,0,1,.85,2l.17.07A.71.71,0,0,1,20.41,7a.7.7,0,0,1-.75-.52A.68.68,0,0,1,20,5.69a.26.26,0,0,0,.18-.31c-.07-.3-.15-.61-.23-.93-.36.33-.67.62-1,.93,0,0,0,.13,0,.2a.72.72,0,0,1-1.38.4.68.68,0,0,1,.47-.88,2.22,2.22,0,0,1,.57,0,.32.32,0,0,0,.22,0c.25-.23.49-.47.73-.71A.34.34,0,0,0,19.62,3.92Z"/><path d="M9.28,21.1c-.35.33-.66.61-1,.91,0,0,0,.14,0,.2a.73.73,0,0,1-.53.9.71.71,0,0,1-.87-.62.71.71,0,0,1,1-.72.23.23,0,0,0,.33-.05l.66-.65a.36.36,0,0,0,.06-.5l-.13.2-.68-.21c0-.42-.38-.37-.63-.52,0-.42,0-.43-.47-.57v-.55l.69,0c0,.45.14.53.76.69a.59.59,0,0,0,.25.56s.09,0,.19,0a2.82,2.82,0,0,1,.83,2l.19.07a.71.71,0,0,1,.42.8A.72.72,0,0,1,9,23.18a.66.66,0,0,1,.32-.83c.17-.09.22-.19.18-.35S9.36,21.41,9.28,21.1Z"/><path d="M9.77,5.58c.52.19.73.55.58,1A.72.72,0,0,1,9,6.47a.67.67,0,0,1,.34-.77.27.27,0,0,0,.18-.34c-.06-.3-.14-.6-.22-.91-.35.33-.66.61-1,.91,0,0,0,.15,0,.23a.73.73,0,0,1-.5.86A.71.71,0,0,1,6.92,6a.68.68,0,0,1,.46-.87,2.22,2.22,0,0,1,.57,0c.08,0,.18,0,.22,0,.25-.22.49-.46.73-.7A.36.36,0,0,0,9,3.92l-.13.2-.68-.21c0-.25,0-.25-.62-.51,0-.42,0-.45-.48-.57V2.25a2.46,2.46,0,0,0,.33.06h.36c0,.47.13.54.76.7a.59.59,0,0,0,.26.56.15.15,0,0,0,.13,0A2.85,2.85,0,0,1,9.77,5.58Z"/><path d="M30.28,20.56l-.11.2-.68-.2c0-.4-.36-.38-.62-.51,0-.44,0-.45-.49-.58V18.9c.11,0,.23.05.35.06h.36c0,.43.11.54.74.7a.63.63,0,0,0,.33.6s.06,0,.1-.06a3,3,0,0,1,.85,2,.74.74,0,0,1,.59.51.71.71,0,0,1-.41.87.72.72,0,0,1-.92-.35.69.69,0,0,1,.28-.92.3.3,0,0,0,.19-.38c-.06-.29-.15-.57-.23-.88l-1,1-.06-.06a1.55,1.55,0,0,1,.07.31.71.71,0,0,1-.48.72.74.74,0,0,1-.81-.25.72.72,0,0,1,0-.87.69.69,0,0,1,.84-.21.27.27,0,0,0,.39-.07l.65-.64A.34.34,0,0,0,30.28,20.56Z"/><path d="M19.62,20.56l-.12.21-.68-.21c0-.41-.37-.37-.62-.51-.05-.46-.05-.46-.49-.58v-.55l.72,0c0,.41.1.53.73.69a.63.63,0,0,0,.33.6s.05,0,.09-.07a3,3,0,0,1,.86,2l.19.07a.73.73,0,0,1,.43.78.7.7,0,0,1-.66.58.69.69,0,0,1-.74-.5.67.67,0,0,1,.33-.81.3.3,0,0,0,.19-.35c-.07-.3-.15-.59-.23-.91-.36.34-.67.62-1,.92a.26.26,0,0,0,0,.18.72.72,0,1,1-1.39.35.71.71,0,0,1,1-.77.23.23,0,0,0,.32,0c.23-.24.47-.46.69-.69A.33.33,0,0,0,19.62,20.56Z"/><path d="M19.69,20a.8.8,0,0,0,.73-.89c.74-.13.88-.26.85-.85a1,1,0,0,0,.79,0v.78c-.14.06-.35.09-.45.2a1.43,1.43,0,0,0-.18.54c-.26.1-.71.07-.66.61-.26,0-.55-.08-.72.16Z"/><path d="M19.69,3.36a.79.79,0,0,0,.73-.86,5.66,5.66,0,0,0,.66-.25.53.53,0,0,0,.19-.59l.79.05v.75c-.51.08-.52.09-.59.7-.3.12-.74.09-.7.62-.25,0-.54-.08-.72.17Z"/><path d="M31.45,20.43c-.29,0-.56-.06-.73.16L30.36,20a.8.8,0,0,0,.72-.9c.77-.15.92-.3.86-.81l.79.06v.75c-.52.08-.56.12-.58.68-.17.06-.34.11-.51.18A.37.37,0,0,0,31.45,20.43Z"/><path d="M9,3.36a.8.8,0,0,0,.74-.86,4.32,4.32,0,0,0,.66-.26c.22-.13.21-.38.18-.59l.8.06v.72c-.15.06-.36.09-.46.21a1.43,1.43,0,0,0-.18.54c-.26.1-.71.06-.66.6-.26,0-.55-.08-.72.17Z"/><path d="M9,20c.61-.23.65-.28.75-.91.72-.12.82-.21.84-.8l.79.06v.75c-.52.07-.55.11-.6.69-.3.13-.75.09-.7.63-.26,0-.54-.07-.72.16Z"/><path d="M31.93,1.65l.79.07v.71c-.14.06-.35.09-.45.21a1.44,1.44,0,0,0-.16.53c-.27.1-.72.07-.67.61-.26,0-.54-.07-.72.17l-.36-.59a.77.77,0,0,0,.72-.86,4.56,4.56,0,0,0,.66-.25A.5.5,0,0,0,31.93,1.65Z"/></g><g class="cls-3"><path d="M35.23.78A1.75,1.75,0,0,1,37,2.09a1.38,1.38,0,0,1-.17,1A5.84,5.84,0,0,1,36,4.23c-.83.89-1.69,1.75-2.54,2.63a.38.38,0,0,1-.55,0,.39.39,0,0,1,0-.56c.79-.82,1.6-1.63,2.38-2.46A5.39,5.39,0,0,0,35.89,3a1,1,0,0,0,.17-.51A.73.73,0,0,0,35,1.7a4.78,4.78,0,0,0-.82.62.48.48,0,0,1-.83-.24.21.21,0,0,1,0-.19A2.76,2.76,0,0,1,35,.81Zm1.18.74-.26.22c.21.36.24.38.54.24Zm-.16,1.35-.19.39.25.18L36.57,3Zm-1.7-1.24.36-.22-.1-.3-.45.22Zm-.17,3.86.36-.36-.2-.19-.33.34Zm1.94-3.17a1.05,1.05,0,0,0,.09.34s.21.07.22.06a4.36,4.36,0,0,0,.12-.46l-.21,0ZM34.73,4.73c.16.3.23.28.51-.13L35,4.42Zm-.37-2.95-.21-.3-.32.28.24.28ZM33.87,6l.36-.35-.17-.14-.4.31Zm-.69.32.2.21.34-.35L33.54,6Zm2.74-2.85c-.07.07-.12.15-.18.21s-.07.17,0,.24.16,0,.22,0l.19-.23Zm-.85-2.4c0,.14,0,.27.19.28s.26-.08.28-.28Zm.62,3.1L35.47,4l-.27.26.24.22.2-.22Zm.14-3c-.16.25-.16.25.12.41l.24-.21Z"/><path d="M3.67.78A1.76,1.76,0,0,1,5.41,2.05a1.64,1.64,0,0,1-.12,1,3.64,3.64,0,0,1-.81,1.2L1.9,6.86a.39.39,0,0,1-.56,0,.38.38,0,0,1,0-.54c.8-.82,1.61-1.64,2.4-2.48A6.82,6.82,0,0,0,4.35,3a1.23,1.23,0,0,0,.16-.5.74.74,0,0,0-1-.79,3.66,3.66,0,0,0-.66.45,2.85,2.85,0,0,0-.32.27.34.34,0,0,1-.45.06A2.11,2.11,0,0,1,1.75,2s0-.08.05-.11A2.82,2.82,0,0,1,3.48.8Zm1.19.73c-.11.13-.34.13-.2.36s.2.24.48.11ZM4.5,3.26l.26.18L5,3l-.33-.09ZM3.37,1.44l-.13-.35-.39.27s.08.2.11.2A1.86,1.86,0,0,0,3.37,1.44Zm1.39.88a1.2,1.2,0,0,0,.1.35s.22.05.22,0,.07-.29.11-.45ZM2.88,5.49,3,5.31l.13-.15L3,5C2.61,5.25,2.6,5.29,2.88,5.49ZM2.81,1.78l-.22-.3-.3.27L2.54,2ZM2.49,5.46c-.39.32-.4.37-.16.51l.35-.33Zm1-1.06-.33.35L3.33,5l.14-.11.22-.24Zm.87-.94c-.3.36-.3.36,0,.52l.29-.34ZM2,6l-.35.37.21.21.35-.36ZM3.81,4.42l.33-.25L3.93,4l-.3.26Zm.47-3.27c-.18.26-.17.27.1.39l.27-.19Zm-.76-.08c0,.12,0,.25.18.27S4,1.27,4,1.07Z"/><path d="M16,2.25a2.25,2.25,0,0,1-.39,1.23,6.08,6.08,0,0,1-.59.75c-.83.87-1.68,1.73-2.52,2.59a.37.37,0,0,1-.58,0,.39.39,0,0,1,0-.58l2.39-2.46A2.69,2.69,0,0,0,15,2.54a.66.66,0,0,0-.23-.72.68.68,0,0,0-.8-.15,7.9,7.9,0,0,0-.69.49l-.19.17c-.36.36-.74.06-.83-.28a.19.19,0,0,1,0-.15A2.88,2.88,0,0,1,14,.8,1.77,1.77,0,0,1,15.91,2,2.2,2.2,0,0,1,16,2.25Zm-.57-.73c-.1.11-.31.12-.21.32s.19.27.49.14Zm-.16,1.36c-.23.39-.23.41.07.54L15.53,3ZM13.87,1.41l-.1-.3-.45.22.2.29Zm1.41.92a1.15,1.15,0,0,0,.09.33s.23.06.23,0a2.6,2.6,0,0,0,.1-.44ZM13,5.45l-.33.35.2.22.35-.36Zm-.66,1,.37-.32L12.5,6l-.35.32Zm1.38-1.36L13.53,5l-.37.33.19.18ZM14,4.43l-.35.33.19.22L14,4.83l.17-.19Zm-.91-2.94c-.36.25-.37.32,0,.51l.24-.22Zm2,2.14-.25-.17-.14.17-.12.16C14.83,4,14.84,4,15.13,3.63Zm-.7-2.31.09-.25H14C14.1,1.36,14.1,1.36,14.43,1.32Zm-.07,3.09.32-.23L14.43,4l-.25.26Zm.53-2.85.28-.21-.39-.21-.12.27Z"/><path d="M3.71,17.42a1.76,1.76,0,0,1,1.7,1.27,1.63,1.63,0,0,1-.12.95,3.84,3.84,0,0,1-.81,1.21L1.9,23.51a.38.38,0,0,1-.54,0,.38.38,0,0,1-.06-.55c.81-.83,1.62-1.65,2.41-2.5a4.43,4.43,0,0,0,.7-1,.74.74,0,0,0-.21-1.05.65.65,0,0,0-.79-.06,9.38,9.38,0,0,0-.8.61.47.47,0,0,1-.83-.23.21.21,0,0,1,0-.19,2.78,2.78,0,0,1,1.64-1.08Zm1.16.76c-.29.17-.29.17-.18.39s.2.18.44.05Zm-.18,1.34-.19.38.26.18L5,19.62Zm.49-.61L4.8,19c0,.36,0,.38.31.39ZM3.26,17.77c-.48.16-.51.23-.25.48l.35-.19ZM3,21.61l-.4.33.22.23L3,22l.15-.16Zm-.54.49c-.39.33-.4.38-.16.51l.35-.32Zm-.21-3.71.25.28.28-.25-.22-.29Zm2.34,1.89-.26-.17c-.3.36-.3.36,0,.51l.06-.05Zm-1.45,1.1c.15.27.18.32.51-.13l-.2-.19ZM1.81,23.16l.37-.34L2,22.62,1.62,23ZM4,17.72H3.53l0,.05c.06.07.12.18.2.21S4,17.93,4,17.72Zm-.07,2.89-.26.27.19.23L4,21l.12-.14Zm.36-2.81c-.18.25-.17.28.12.39L4.64,18Z"/><path d="M35.28,17.42A1.74,1.74,0,0,1,37,18.73a1.7,1.7,0,0,1-.13.92A4,4,0,0,1,36,20.92L33.46,23.5a.39.39,0,0,1-.56,0,.37.37,0,0,1,0-.55l2.4-2.48A2.79,2.79,0,0,0,36,19.29a.74.74,0,0,0-.63-1,1.11,1.11,0,0,0-.63.19,6.87,6.87,0,0,0-.66.55.44.44,0,0,1-.67-.07c-.17-.22-.17-.32,0-.53a2.73,2.73,0,0,1,1.55-1Zm.86,1c.22.36.25.38.55.23l-.28-.46Zm.11,1.13-.19.39.26.17.25-.46Zm-1.34-1.46-.1-.3-.45.21.19.3Zm-.16,3.73-.24-.23-.16.21c-.17.18-.16.2.08.35Zm1.91-2.41.08-.47-.2,0-.18,0C36.32,19.32,36.32,19.32,36.66,19.38Zm-2,2,.17.2.4-.34-.21-.19Zm-.83,1.25.37-.36L34,22.1l-.34.37Zm-.06-4.25.26.27.29-.26-.21-.29Zm-.29,4.21-.33.35.18.21.35-.37Zm2.4-2.52a2.15,2.15,0,0,1-.19.22c-.09.1,0,.16,0,.24s.15.05.21,0l.2-.25Zm-.83-2.39c0,.26,0,.26.17.28s.27-.07.27-.28Zm.62,3.11-.24-.2-.23.24.17.23Zm.12-3c-.17.25-.17.25.13.4l.24-.2Z"/><path d="M24.74.78a1.87,1.87,0,0,1,1.48.74,1.37,1.37,0,0,1,.15,1.33,3.06,3.06,0,0,1-.74,1.22c-.89.94-1.8,1.87-2.71,2.8a.38.38,0,0,1-.54,0,.38.38,0,0,1,0-.54l2.33-2.4A7.71,7.71,0,0,0,25.34,3a1.37,1.37,0,0,0,.19-.47.68.68,0,0,0-.25-.77.66.66,0,0,0-.82-.1,6.57,6.57,0,0,0-.79.6c-.36.3-.72.22-.86-.2a.32.32,0,0,1,0-.22A2.85,2.85,0,0,1,24.51.8ZM26.18,2l-.29-.46-.25.22C25.82,2.1,25.84,2.11,26.18,2Zm-2.34-.65.19.29.36-.21-.09-.3Zm2,2.09L26.05,3l-.31-.09C25.5,3.28,25.5,3.29,25.81,3.42Zm0-1.1c-.07.34,0,.41.31.39l0-.44ZM23.05,6l-.36.34.18.17.34-.33Zm1.12-1.22.19.18.38-.34-.2-.18Zm-.31.7.38-.34L24,4.93l-.34.37Zm-.5.52.37-.34-.19-.17-.39.31Zm.27-4.52-.34.3.26.26.3-.26Zm1.5,2.31c.22.25.26.24.51-.16l-.24-.17Zm.56-2.44-.4-.21-.11.27.27.17ZM24.57,1c0,.32,0,.32.38.28L25,1.07ZM25,4l-.3.23.18.17.33-.23Z"/><path d="M16,19a4.81,4.81,0,0,1-.31.88,5.15,5.15,0,0,1-.72,1c-.83.88-1.68,1.74-2.52,2.6a.37.37,0,0,1-.58,0,.4.4,0,0,1,0-.59l2.49-2.57A2.26,2.26,0,0,0,15,19.18a.76.76,0,0,0-1-.86,3.9,3.9,0,0,0-.54.36c-.12.09-.23.19-.34.29-.33.35-.73.1-.83-.28a.21.21,0,0,1,0-.15A2.89,2.89,0,0,1,14,17.45a1.76,1.76,0,0,1,1.93,1.16c0,.11,0,.23.06.35Zm-.61-.8c-.3.18-.3.19-.17.42s.27.08.45,0Zm-.17,1.34c-.23.43-.23.43.08.54l.23-.44ZM13.34,18c.15.35.2.36.53.08l-.1-.28Zm2.3,1.41,0-.46-.36.06C15.27,19.31,15.29,19.35,15.64,19.37ZM12.14,23l.18.21.39-.35-.2-.19Zm.72-.3.35-.36L13,22.1l-.35.36Zm.85-.89-.21-.2-.35.36.2.2Zm-.63-3.13.24-.23-.2-.28C12.76,18.37,12.75,18.46,13.08,18.65Zm2,1.62-.24-.17-.26.32C14.82,20.69,14.86,20.68,15.12,20.27Zm-.89,1L14,21.08l-.39.34.22.21Zm-.18-3.56c0,.3,0,.3.39.25l.08-.25Zm.13,3.17.18.2.31-.26-.24-.2Zm.48-2.83.23.15.29-.19-.41-.22Z"/><path d="M24.75,17.43a1.81,1.81,0,0,1,1.46.73,1.38,1.38,0,0,1,.17,1.33,3.2,3.2,0,0,1-.71,1.19c-.91,1-1.84,1.9-2.76,2.85a.37.37,0,0,1-.52-.06.39.39,0,0,1,0-.56c.74-.76,1.49-1.52,2.23-2.29a9.82,9.82,0,0,0,.71-.86,1.62,1.62,0,0,0,.23-.52.69.69,0,0,0-.25-.81.67.67,0,0,0-.84-.07,7.15,7.15,0,0,0-.77.59c-.35.29-.7.21-.84-.2a.25.25,0,0,1,0-.21,2.83,2.83,0,0,1,1.62-1.08l.12,0Zm.88.95c.19.37.25.39.54.24l-.28-.45Zm.18,1.69.24-.45-.31-.1C25.5,19.91,25.5,19.92,25.81,20.07ZM24,18.27l.36-.21-.1-.3-.45.21Zm1.82.7c-.08.34,0,.39.3.39l.06-.45Zm-1.31,2.11-.37.34.21.21.36-.36Zm-1-2.4.28-.25-.21-.31-.33.31Zm.45,2.9-.33.35.18.17.38-.3Zm-1,1.05-.36.33.19.18.35-.33Zm.16-.18.22.21.33-.36-.22-.2Zm1.95-2c.21.26.31.23.5-.17l-.23-.16Zm.16-2.65-.11.28.26.16.25-.22Zm-.71-.07c0,.29,0,.29.37.26l.09-.26Zm.33,3.39.27-.29L25,20.63l-.27.24Z"/><path d="M30.27,4.12c-.35.32-.66.6-.95.9a.25.25,0,0,0,0,.21.72.72,0,0,1-1.23.67.71.71,0,0,1,.86-1.1.19.19,0,0,0,.27,0c.23-.23.48-.44.7-.68s.17-.22.06-.51l-.14.21-.67-.21c0-.4-.37-.37-.61-.5-.06-.45-.07-.47-.5-.58V1.93l.72.05a.39.39,0,0,0,.18.48,5.69,5.69,0,0,0,.55.23.61.61,0,0,0,.27.55.75.75,0,0,0,.2,0,2.91,2.91,0,0,1,.81,1.92,2.41,2.41,0,0,1,.5.42.67.67,0,0,1-.21,1,.72.72,0,0,1-1-.23.68.68,0,0,1,.25-1,.33.33,0,0,0,.19-.43C30.44,4.67,30.35,4.41,30.27,4.12Z"/><path d="M19.28,3.58l-.12.2-.68-.21c0-.41-.39-.37-.62-.51,0-.41,0-.41-.49-.58V1.93l.71.05c0,.42.13.54.74.69a.62.62,0,0,0,.32.6s.06,0,.11-.06a3,3,0,0,1,.85,2l.17.07a.71.71,0,0,1-.2,1.37.7.7,0,0,1-.75-.52.68.68,0,0,1,.34-.81A.26.26,0,0,0,19.84,5c-.07-.3-.15-.61-.23-.93-.36.33-.67.62-1,.93,0,0,0,.13,0,.2a.72.72,0,0,1-1.38.4.68.68,0,0,1,.47-.88,2.22,2.22,0,0,1,.57,0,.32.32,0,0,0,.22,0c.25-.23.49-.47.73-.71A.34.34,0,0,0,19.28,3.58Z"/><path d="M8.94,20.75c-.35.34-.66.62-1,.92,0,0,0,.14,0,.2a.73.73,0,0,1-.53.9.71.71,0,0,1-.87-.62.71.71,0,0,1,1-.72.23.23,0,0,0,.33-.05l.66-.65a.36.36,0,0,0,.06-.5l-.13.2-.68-.21c0-.42-.38-.37-.63-.52,0-.42,0-.43-.47-.57v-.55l.69.05c0,.45.14.53.76.69a.59.59,0,0,0,.25.56s.09,0,.19,0a2.82,2.82,0,0,1,.83,2l.19.07a.71.71,0,0,1,.42.8.72.72,0,0,1-1.38.08A.66.66,0,0,1,9,22c.17-.09.22-.19.18-.35S9,21.07,8.94,20.75Z"/><path d="M9.43,5.24c.52.19.73.55.58,1a.72.72,0,0,1-1.37-.08A.67.67,0,0,1,9,5.36.27.27,0,0,0,9.16,5c-.06-.3-.14-.6-.22-.91-.35.33-.66.61-1,.91,0,0,0,.15,0,.23a.73.73,0,0,1-.5.86.71.71,0,0,1-.89-.48A.68.68,0,0,1,7,4.76a2.22,2.22,0,0,1,.57,0c.08,0,.18,0,.22,0,.25-.22.49-.46.73-.7a.36.36,0,0,0,.06-.5l-.13.2-.68-.21c0-.25,0-.25-.62-.51,0-.42,0-.45-.48-.57V1.91A2.46,2.46,0,0,0,7,2c.12,0,.24,0,.36,0,0,.47.13.54.76.7a.59.59,0,0,0,.26.56.15.15,0,0,0,.13,0A2.85,2.85,0,0,1,9.43,5.24Z"/><path d="M29.94,20.22l-.11.2-.68-.2c0-.4-.36-.38-.62-.51,0-.44,0-.45-.49-.58v-.57c.11,0,.23.05.35.06h.36c0,.42.11.54.74.7a.63.63,0,0,0,.33.6s.06,0,.1-.06a3,3,0,0,1,.85,2,.74.74,0,0,1,.59.51.71.71,0,0,1-.41.87.72.72,0,0,1-.92-.35.69.69,0,0,1,.28-.92.3.3,0,0,0,.19-.38c-.06-.29-.15-.57-.23-.88l-1,1-.06-.06a1.55,1.55,0,0,1,.07.31.71.71,0,0,1-.48.72A.74.74,0,0,1,28,22.5a.72.72,0,0,1,0-.87.69.69,0,0,1,.84-.21.27.27,0,0,0,.39-.07l.65-.64A.34.34,0,0,0,29.94,20.22Z"/><path d="M19.28,20.22l-.12.21-.68-.21c0-.41-.37-.37-.62-.51-.05-.46-.05-.46-.49-.58v-.55l.72.05c0,.4.1.53.73.69a.63.63,0,0,0,.33.6s.05,0,.09-.07a3,3,0,0,1,.86,2l.19.07a.73.73,0,0,1,.43.78.7.7,0,0,1-.66.58.69.69,0,0,1-.74-.5.67.67,0,0,1,.33-.81c.16-.09.22-.19.18-.35s-.14-.59-.22-.91c-.36.34-.67.62-1,.92a.26.26,0,0,0,0,.18.72.72,0,1,1-1.39.35.71.71,0,0,1,1-.77.23.23,0,0,0,.32,0c.23-.24.47-.46.69-.69A.33.33,0,0,0,19.28,20.22Z"/><path d="M19.35,19.66a.8.8,0,0,0,.73-.89c.74-.13.88-.26.85-.85a1,1,0,0,0,.79,0v.78c-.14.06-.35.08-.45.2a1.43,1.43,0,0,0-.18.54c-.26.1-.71.07-.66.61-.26,0-.55-.08-.72.16Z"/><path d="M19.35,3a.79.79,0,0,0,.73-.86,5.66,5.66,0,0,0,.66-.25.53.53,0,0,0,.19-.59l.79.05v.75c-.51.08-.52.09-.59.7-.3.12-.74.09-.7.62-.25,0-.54-.08-.72.17Z"/><path d="M31.11,20.09c-.29,0-.56-.06-.73.16L30,19.67a.8.8,0,0,0,.72-.9c.77-.15.92-.3.86-.81l.79.06v.75c-.52.08-.56.12-.58.68-.17.06-.34.11-.51.18A.37.37,0,0,0,31.11,20.09Z"/><path d="M8.68,3a.8.8,0,0,0,.74-.86,4.32,4.32,0,0,0,.66-.26c.22-.13.21-.38.18-.59l.8.06v.72c-.15.06-.36.09-.46.21a1.43,1.43,0,0,0-.18.54c-.26.1-.71.06-.66.6-.26,0-.55-.08-.72.17Z"/><path d="M8.68,19.67c.61-.23.65-.28.75-.91.72-.12.82-.21.84-.8l.79.06v.75c-.52.07-.55.11-.6.69-.3.13-.75.09-.7.63-.26,0-.54-.07-.72.16Z"/><path d="M31.59,1.31l.79.07v.71c-.14.06-.35.09-.45.21a1.44,1.44,0,0,0-.16.53c-.27.1-.72.07-.67.61-.26,0-.54-.07-.72.16L30,3a.77.77,0,0,0,.72-.86,4.56,4.56,0,0,0,.66-.25A.5.5,0,0,0,31.59,1.31Z"/></g><path class="cls-4" d="M35.42,1a1.75,1.75,0,0,1,1.75,1.31,1.45,1.45,0,0,1-.17,1,6.64,6.64,0,0,1-.8,1.16c-.83.89-1.7,1.75-2.55,2.63a.42.42,0,0,1-.59-.58c.79-.82,1.59-1.63,2.38-2.46a6.06,6.06,0,0,0,.65-.86,1.1,1.1,0,0,0,.17-.51.74.74,0,0,0-1.08-.76,5.42,5.42,0,0,0-.82.63.48.48,0,0,1-.83-.24.24.24,0,0,1,0-.19A2.84,2.84,0,0,1,35.21,1Zm1.19.74-.27.22c.22.36.25.38.55.24Zm-.16,1.35-.2.39.26.18.26-.47ZM34.74,1.82l.37-.21L35,1.31l-.44.21Zm-.17,3.87.37-.36-.21-.2-.33.35Zm2-3.18a1.51,1.51,0,0,0,.08.35.28.28,0,0,0,.22.05A2.41,2.41,0,0,0,37,2.46l-.21,0Zm-1.6,2.42c.17.3.24.28.52-.13l-.2-.19ZM34.56,2l-.22-.3L34,2l.24.27Zm-.49,4.21.36-.35-.17-.15-.4.31Zm-.69.32.2.21.34-.36-.18-.16Zm2.74-2.86c-.07.08-.12.16-.18.22s-.07.16,0,.24.16,0,.22,0l.19-.23Zm-.85-2.39c0,.14,0,.27.19.28s.26-.08.28-.28Zm.62,3.1-.22-.19-.27.26.24.22c.07-.08.14-.15.19-.22Zm.14-3c-.17.25-.17.25.12.41l.24-.21Z"/><path class="cls-4" d="M3.87,1A1.76,1.76,0,0,1,5.61,2.24a1.67,1.67,0,0,1-.12,1,3.91,3.91,0,0,1-.81,1.2L2.1,7.06a.39.39,0,0,1-.56,0,.38.38,0,0,1,0-.54C2.3,5.65,3.11,4.84,3.9,4a6.82,6.82,0,0,0,.65-.85,1.23,1.23,0,0,0,.16-.5.74.74,0,0,0-1-.79A3.57,3.57,0,0,0,3,2.31a4,4,0,0,0-.31.27.34.34,0,0,1-.45.06A1.81,1.81,0,0,1,2,2.2s0-.08,0-.11A2.87,2.87,0,0,1,3.68,1Zm1.19.73c-.11.13-.34.13-.2.36s.2.24.47.1ZM4.7,3.46,5,3.63l.25-.46-.32-.09ZM3.57,1.64l-.13-.35c-.14.1-.28.17-.4.27s.08.2.12.2A2.62,2.62,0,0,0,3.57,1.64ZM5,2.52a1.29,1.29,0,0,0,.1.35s.22,0,.22,0,.07-.29.11-.45ZM3.08,5.69l.16-.18.13-.15-.18-.22C2.8,5.45,2.8,5.48,3.08,5.69ZM3,2l-.22-.3L2.48,2l.26.27ZM2.69,5.66c-.39.32-.4.37-.16.51l.34-.33Zm1-1.06L3.36,5l.17.23.14-.12.22-.23Zm.87-.94c-.3.36-.3.36,0,.52l.29-.35ZM2.17,6.17l-.35.36.2.21.36-.35ZM4,4.62l.33-.26-.21-.18-.3.26Zm.47-3.27c-.18.25-.18.27.1.39l.27-.19Zm-.76-.08c0,.12,0,.25.18.27s.27-.07.28-.27Z"/><path class="cls-4" d="M16.15,2.45a2.17,2.17,0,0,1-.4,1.23,4.61,4.61,0,0,1-.58.74c-.83.88-1.68,1.74-2.52,2.6a.37.37,0,0,1-.58,0,.38.38,0,0,1,0-.58L14.45,4a2.69,2.69,0,0,0,.77-1.24A.68.68,0,0,0,15,2a.68.68,0,0,0-.8-.15,6.63,6.63,0,0,0-.69.49l-.19.17c-.36.36-.75.06-.83-.28a.19.19,0,0,1,0-.15A2.88,2.88,0,0,1,14.19,1a1.77,1.77,0,0,1,1.92,1.18A2,2,0,0,1,16.15,2.45Zm-.57-.73c-.11.11-.31.12-.21.32s.19.27.49.14Zm-.16,1.36c-.24.38-.23.4.07.54l.24-.45ZM14.07,1.61l-.1-.3-.45.22.19.29Zm1.41.91a1.13,1.13,0,0,0,.09.34c0,.05.23.06.23,0a2.84,2.84,0,0,0,.1-.44ZM13.19,5.65,12.86,6l.2.22.35-.36Zm-.66,1,.37-.33-.2-.18-.35.32Zm1.38-1.36-.18-.17-.38.33.2.18Zm.32-.71L13.88,5l.18.22L14.22,5l.18-.18Zm-.91-2.94c-.37.25-.37.32,0,.51L13.52,2Zm2,2.14-.25-.17a2.09,2.09,0,0,0-.14.17L14.82,4C15,4.24,15,4.24,15.33,3.83Zm-.7-2.31.09-.25h-.49C14.3,1.55,14.3,1.55,14.63,1.52Zm-.08,3.09.32-.23-.24-.21-.25.26Zm.54-2.86.27-.2L15,1.34l-.11.27Z"/><path class="cls-4" d="M3.91,17.62a1.76,1.76,0,0,1,1.7,1.27,1.55,1.55,0,0,1-.13.95,3.65,3.65,0,0,1-.8,1.21L2.1,23.7a.37.37,0,0,1-.54,0,.37.37,0,0,1-.06-.55c.81-.84,1.62-1.66,2.41-2.5a4.79,4.79,0,0,0,.7-1,.75.75,0,0,0-.21-1.05.65.65,0,0,0-.79-.06,9.38,9.38,0,0,0-.8.61A.47.47,0,0,1,2,18.93a.21.21,0,0,1,0-.19,2.85,2.85,0,0,1,1.64-1.09Zm1.16.76c-.3.17-.3.17-.18.39s.2.17.44.05Zm-.18,1.34-.19.38.26.18.25-.46Zm.49-.61L5,19.17c0,.36,0,.38.31.39ZM3.46,18c-.48.16-.51.22-.25.48l.34-.19Zm-.24,3.84-.39.32.21.24a2.85,2.85,0,0,0,.2-.22L3.39,22Zm-.53.49c-.39.33-.4.37-.16.51l.35-.32Zm-.21-3.71.25.27L3,18.62l-.22-.29Zm2.34,1.89-.26-.18c-.3.37-.3.37,0,.51l.07,0Zm-1.45,1.1c.15.27.18.32.51-.14l-.2-.18ZM2,23.36,2.37,23l-.21-.2-.34.36Zm2.19-5.44H3.73l0,0c.06.07.12.18.2.21S4.17,18.13,4.19,17.92Zm-.07,2.89-.26.27.19.23.16-.17A1.42,1.42,0,0,0,4.33,21ZM4.48,18c-.18.25-.17.28.11.39l.25-.2Z"/><path class="cls-4" d="M35.48,17.62a1.75,1.75,0,0,1,1.69,1.3,1.65,1.65,0,0,1-.14.93,3.81,3.81,0,0,1-.86,1.27L33.66,23.7a.39.39,0,0,1-.56,0,.38.38,0,0,1,0-.55l2.41-2.48a2.9,2.9,0,0,0,.76-1.15.74.74,0,0,0-.63-1,1.11,1.11,0,0,0-.63.19,8.49,8.49,0,0,0-.67.55.43.43,0,0,1-.66-.07c-.18-.22-.17-.32,0-.53a2.79,2.79,0,0,1,1.55-1A2.66,2.66,0,0,1,35.48,17.62Zm.86,1c.22.37.25.38.55.24l-.28-.46Zm.11,1.14-.2.39.27.17.25-.46Zm-1.34-1.46L35,18l-.44.21.18.3ZM35,22l-.24-.22a1.56,1.56,0,0,1-.16.2c-.17.19-.16.21.08.36Zm1.91-2.4.08-.47-.2,0-.18,0C36.51,19.52,36.51,19.52,36.86,19.58Zm-2,2,.17.21.4-.34-.21-.19Zm-.83,1.26.37-.36-.22-.2-.34.36ZM34,18.61l.26.27.29-.26-.21-.29Zm-.29,4.21-.34.35.19.2.35-.36Zm2.4-2.52c-.07.08-.12.15-.19.22s-.06.16,0,.24.15,0,.21,0l.2-.25Zm-.83-2.39c0,.26,0,.26.17.27s.27-.07.27-.27ZM35.91,21l-.24-.2-.23.24.16.23ZM36,18c-.17.26-.17.26.13.41l.24-.2Z"/><path class="cls-4" d="M24.94,1a1.81,1.81,0,0,1,1.47.74,1.35,1.35,0,0,1,.16,1.33,3.13,3.13,0,0,1-.74,1.22c-.9.94-1.8,1.87-2.71,2.8A.38.38,0,0,1,22.58,7a.38.38,0,0,1,0-.54c.77-.8,1.56-1.6,2.33-2.41a7.05,7.05,0,0,0,.67-.84,1.44,1.44,0,0,0,.19-.46A.7.7,0,0,0,25.48,2a.68.68,0,0,0-.82-.1,6.65,6.65,0,0,0-.79.61c-.36.3-.72.22-.86-.21a.26.26,0,0,1,0-.21A2.82,2.82,0,0,1,24.71,1Zm1.44,1.2-.29-.46-.26.21C26,2.3,26,2.31,26.38,2.18ZM24,1.53l.19.29.36-.21-.1-.3Zm2,2.09.23-.45-.3-.09C25.7,3.47,25.7,3.48,26,3.62Zm0-1.11c-.07.35,0,.41.32.4l0-.44ZM23.24,6.2l-.36.34.18.17.34-.34ZM24.36,5l.2.19.38-.34-.2-.19Zm-.3.71.37-.34-.22-.21-.34.36Zm-.5.51.36-.33-.18-.17L23.35,6Zm.26-4.51-.33.3.26.26L24,2ZM25.33,4c.22.26.25.25.51-.15l-.24-.18Zm.55-2.43-.39-.21-.11.27.27.17Zm-1.11-.31c0,.32,0,.32.38.28l.09-.26Zm.41,3-.3.23.18.17.33-.23Z"/><path class="cls-4" d="M16.2,19.18a5.4,5.4,0,0,1-.31.88,5.15,5.15,0,0,1-.72,1c-.83.88-1.68,1.74-2.52,2.6a.39.39,0,0,1-.59,0,.4.4,0,0,1,0-.59l2.49-2.57a2.33,2.33,0,0,0,.67-1.13.67.67,0,0,0-.25-.73.66.66,0,0,0-.78-.13,4,4,0,0,0-.55.36,4.28,4.28,0,0,0-.33.29c-.33.35-.73.1-.83-.28a.21.21,0,0,1,0-.15,2.89,2.89,0,0,1,1.66-1.09A1.76,1.76,0,0,1,16.1,18.8c0,.12,0,.24.06.36Zm-.61-.8c-.3.18-.3.19-.17.42s.27.08.45,0Zm-.17,1.34c-.23.42-.23.43.08.54l.23-.44Zm-1.88-1.56c.15.35.2.36.53.08L14,18Zm2.3,1.41.05-.46-.36.05C15.47,19.51,15.49,19.55,15.84,19.57Zm-3.5,3.6.18.21.39-.35-.2-.19Zm.72-.3.35-.37-.22-.2-.35.36Zm.85-.89-.22-.2-.34.36.2.2Zm-.63-3.14.24-.22-.2-.28C13,18.56,13,18.66,13.28,18.84Zm2,1.63-.24-.17-.26.32C15,20.89,15.06,20.88,15.32,20.47Zm-.89,1-.19-.19-.39.34.22.21Zm-.18-3.56c0,.3,0,.3.38.25l.09-.25Zm.13,3.17.17.2.32-.26-.24-.2Zm.48-2.83.22.14.3-.19L15,18Z"/><path class="cls-4" d="M25,17.63a1.81,1.81,0,0,1,1.46.73,1.35,1.35,0,0,1,.16,1.33,3,3,0,0,1-.71,1.19c-.91.95-1.83,1.9-2.75,2.84a.37.37,0,0,1-.53,0,.4.4,0,0,1,0-.56c.74-.76,1.49-1.52,2.22-2.29a8.41,8.41,0,0,0,.72-.86,1.62,1.62,0,0,0,.23-.52.7.7,0,0,0-.25-.81.67.67,0,0,0-.84-.07,7.15,7.15,0,0,0-.77.59c-.35.29-.71.21-.84-.2a.28.28,0,0,1,0-.22,2.78,2.78,0,0,1,1.62-1.07l.12,0Zm.88.95c.19.37.24.39.54.23l-.28-.45ZM26,20.27l.24-.45-.31-.1C25.7,20.11,25.7,20.12,26,20.27Zm-1.78-1.8.36-.21-.1-.3-.45.21Zm1.82.69c-.08.35,0,.4.3.4l0-.45Zm-1.31,2.12-.37.34.21.21.36-.37Zm-1-2.4.29-.26-.21-.3-.34.31Zm.46,2.9-.33.35.18.17.38-.3Zm-1,1-.36.33.19.18L23.4,23Zm.16-.18.21.21.33-.36-.21-.2Zm1.95-2c.21.26.31.22.5-.17l-.24-.16ZM25.49,18l-.11.28.26.16.24-.22Zm-.71-.07c0,.29,0,.29.37.26l.09-.26Zm.32,3.39.28-.29-.22-.18-.27.24Z"/><path class="cls-4" d="M30.46,4.31c-.34.33-.65.61-.94.9a.32.32,0,0,0,0,.22.69.69,0,0,1-.33.81.72.72,0,0,1-.89-.14.71.71,0,0,1-.06-.88A.72.72,0,0,1,29.13,5a.19.19,0,0,0,.27,0c.23-.23.47-.44.7-.68s.17-.22.06-.51L30,4l-.67-.21c0-.4-.37-.38-.61-.5-.06-.45-.07-.47-.5-.59V2.13l.71.05a.41.41,0,0,0,.19.48,5.69,5.69,0,0,0,.55.23.61.61,0,0,0,.27.55.75.75,0,0,0,.2,0A2.94,2.94,0,0,1,31,5.38a2.7,2.7,0,0,1,.5.42.68.68,0,0,1-.21,1,.72.72,0,0,1-1-.23.69.69,0,0,1,.24-1,.33.33,0,0,0,.2-.43C30.64,4.87,30.55,4.6,30.46,4.31Z"/><path class="cls-4" d="M19.48,3.78l-.13.2-.67-.21c0-.42-.39-.37-.63-.51,0-.42,0-.42-.48-.58V2.13l.71.05c0,.42.12.54.73.69a.65.65,0,0,0,.33.6s.06,0,.11-.06a3,3,0,0,1,.84,2l.17.07a.72.72,0,0,1,.46.77.73.73,0,0,1-.66.6.72.72,0,0,1-.75-.52.69.69,0,0,1,.35-.81c.15-.07.21-.17.17-.31-.06-.31-.14-.61-.22-.93l-1,.92a.3.3,0,0,0,0,.21.72.72,0,0,1-1.38.4A.68.68,0,0,1,17.92,5a1.85,1.85,0,0,1,.57,0,.32.32,0,0,0,.22,0c.25-.23.49-.47.73-.71A.34.34,0,0,0,19.48,3.78Z"/><path class="cls-4" d="M9.14,21c-.35.34-.66.62-1,.92a.23.23,0,0,0,0,.2.71.71,0,0,1-.53.89.7.7,0,0,1-.87-.61A.64.64,0,0,1,7,21.7a.65.65,0,0,1,.73-.07.23.23,0,0,0,.33-.05l.66-.66a.36.36,0,0,0,.06-.5l-.13.2L8,20.42c0-.42-.38-.37-.63-.52,0-.42,0-.43-.48-.57v-.56l.7.06c.05.45.14.53.76.69a.59.59,0,0,0,.25.56s.08,0,.19,0a2.82,2.82,0,0,1,.83,2l.19.07a.71.71,0,0,1,.42.79A.72.72,0,0,1,8.85,23a.68.68,0,0,1,.33-.83.29.29,0,0,0,.18-.35C9.29,21.56,9.21,21.27,9.14,21Z"/><path class="cls-4" d="M9.63,5.44c.52.19.73.55.58,1a.72.72,0,0,1-1.37-.08.67.67,0,0,1,.34-.77.28.28,0,0,0,.18-.35c-.07-.29-.14-.59-.22-.9-.35.33-.66.61-1,.91,0,0,0,.15,0,.22a.74.74,0,0,1-.5.87.71.71,0,0,1-.89-.48A.67.67,0,0,1,7.24,5a2.22,2.22,0,0,1,.57,0C7.89,5,8,5,8,5c.25-.22.49-.46.73-.7a.36.36,0,0,0,.06-.5L8.69,4,8,3.77c0-.25,0-.25-.63-.51,0-.42,0-.45-.47-.57V2.11a2.46,2.46,0,0,0,.33.06c.12,0,.24,0,.36,0,.05.46.13.54.76.7a.59.59,0,0,0,.25.56.18.18,0,0,0,.14,0A2.84,2.84,0,0,1,9.63,5.44Z"/><path class="cls-4" d="M30.14,20.42l-.11.2-.68-.2c0-.4-.36-.38-.62-.51,0-.45,0-.45-.49-.58v-.57c.11,0,.23,0,.35.06H29c0,.42.1.53.74.69a.61.61,0,0,0,.33.61s.06,0,.1-.06a3,3,0,0,1,.85,2,.75.75,0,0,1,.59.51.69.69,0,0,1-.42.86.71.71,0,0,1-.91-.34.69.69,0,0,1,.28-.92.31.31,0,0,0,.19-.39c-.06-.28-.15-.56-.23-.87l-1,1-.06-.06a1.55,1.55,0,0,1,.07.31.71.71,0,0,1-1.29.46.69.69,0,0,1,0-.86.67.67,0,0,1,.83-.21.29.29,0,0,0,.4-.07l.65-.65A.33.33,0,0,0,30.14,20.42Z"/><path class="cls-4" d="M19.48,20.42l-.12.2-.68-.2c0-.41-.37-.38-.62-.51,0-.46,0-.46-.49-.58v-.55l.71,0c0,.4.11.53.74.68a.62.62,0,0,0,.33.61s0,0,.09-.07a3,3,0,0,1,.86,2l.19.07a.72.72,0,0,1,.42.78.72.72,0,0,1-1.39.08.68.68,0,0,1,.33-.82.27.27,0,0,0,.18-.34c-.06-.3-.15-.59-.23-.91-.35.34-.66.62-1,.92a.21.21,0,0,0,0,.18.72.72,0,1,1-1.39.35.67.67,0,0,1,.25-.68.65.65,0,0,1,.75-.09c.15.07.23.06.33-.05l.69-.68A.33.33,0,0,0,19.48,20.42Z"/><path class="cls-4" d="M19.55,19.86a.8.8,0,0,0,.73-.89c.74-.13.87-.26.85-.85a1,1,0,0,0,.79,0v.78c-.15.06-.35.08-.46.2a1.64,1.64,0,0,0-.17.54c-.26.1-.71.06-.66.61-.26,0-.55-.08-.72.16Z"/><path class="cls-4" d="M19.55,3.22a.8.8,0,0,0,.73-.87,4.28,4.28,0,0,0,.66-.24.53.53,0,0,0,.19-.59l.79.05v.75c-.51.08-.52.09-.59.7-.31.11-.74.08-.7.62-.25,0-.55-.08-.72.17Z"/><path class="cls-4" d="M31.3,20.29c-.28,0-.55-.06-.72.16l-.36-.58a.8.8,0,0,0,.72-.9c.77-.15.92-.3.86-.81l.79.06V19c-.52.08-.56.13-.58.69l-.51.18C31.31,19.91,31.27,20.08,31.3,20.29Z"/><path class="cls-4" d="M8.88,3.22a.8.8,0,0,0,.73-.86,4.54,4.54,0,0,0,.66-.26c.23-.13.22-.38.19-.59l.79.06v.72a1.28,1.28,0,0,0-.46.21,1.65,1.65,0,0,0-.17.53c-.26.11-.71.07-.66.61-.26,0-.55-.08-.72.17Z"/><path class="cls-4" d="M8.88,19.87c.61-.24.65-.29.75-.91.72-.12.82-.22.84-.8l.79.05V19c-.52.07-.56.11-.6.69-.3.12-.76.09-.7.63-.26,0-.55-.07-.72.16Z"/><path class="cls-4" d="M31.79,1.5l.79.08v.71c-.14.06-.35.09-.45.21S32,2.83,32,3c-.27.1-.72.07-.68.61-.25,0-.53-.07-.71.16l-.36-.58a.78.78,0,0,0,.72-.86,4.56,4.56,0,0,0,.66-.25A.51.51,0,0,0,31.79,1.5Z"/></g></g></svg>