<svg xmlns="http://www.w3.org/2000/svg" viewBox="0 0 38.55 24.66"><defs><style>.cls-1{isolation:isolate;}.cls-2{opacity:0.15;}.cls-2,.cls-3{mix-blend-mode:multiply;}.cls-4{fill:#fff;}</style></defs><title>convert-CUSTOMIZE-SVG-03</title><g class="cls-1"><g id="Layer_1" data-name="Layer 1"><g class="cls-2"><path d="M12.47,10.36c-.58.2-1.18.14-1.63.54l.35,1.25a.48.48,0,0,0,.13.16,1.06,1.06,0,0,1,0,1.78,3.73,3.73,0,0,0-.45.52,4.62,4.62,0,0,1-.37.5,4.48,4.48,0,0,0-1,2.11,3.15,3.15,0,0,0,.43,2.35c.1.18.3.3.41.48a3.88,3.88,0,0,1,.42.84.73.73,0,0,1-.41.92,1.76,1.76,0,0,0-.7.68A2.66,2.66,0,0,1,7,23.64a6.14,6.14,0,0,1-1.05-.23,1.71,1.71,0,0,1-1.1-.95,5.74,5.74,0,0,1-.51-1.76,17.82,17.82,0,0,1-.14-3.65c0-.4,0-.8.05-1.21a.48.48,0,0,0-.05-.17,9.77,9.77,0,0,1-.93-4.54c0-.6.08-1.19.13-1.79,0-.12,0-.18-.12-.23A3.21,3.21,0,0,1,1.6,5.77,12.41,12.41,0,0,1,2,4.2a2.41,2.41,0,0,0,.07-.37A1.38,1.38,0,0,1,3.22,2.6c.4-.08.79-.2,1.18-.3a.65.65,0,0,0,.19,0,.29.29,0,0,0,.16-.15.85.85,0,0,1,.89-.57.71.71,0,0,1,.75.52c.05.18.15.22.3.27a3.48,3.48,0,0,1,1.7,1.09.55.55,0,0,0,.27.17,2,2,0,0,1,1.68,1.64,2.14,2.14,0,0,1-.1.93A2.5,2.5,0,0,1,9.16,7.59,22.08,22.08,0,0,0,12.41,8c-.15-.36-.15-.76-.49-1-.19-.14-.14-.56.06-.74a2.43,2.43,0,0,1,.3-.26.7.7,0,0,1,.38-.16,15.33,15.33,0,0,0,2.14-.19,6.34,6.34,0,0,1,1.07,0,1.28,1.28,0,0,1,.26.1c0,.18,0,.32.06.46a.47.47,0,0,1-.28.56.28.28,0,0,0-.19.24,12.42,12.42,0,0,0-.27,1.58,5.76,5.76,0,0,0,.16,1.23c0,.14.13.2.28.21l1.22.12a2,2,0,0,1,.47.17A.63.63,0,0,1,18,11a6.53,6.53,0,0,1-.18,1,.7.7,0,0,1-.72.53l-2,.13c-.25,0-.51,0-.76,0h-.15c-.38-.11-.76-.22-1.14-.35a.52.52,0,0,1-.34-.47C12.63,11.37,12.55,10.88,12.47,10.36Zm-5.07,13A2.45,2.45,0,0,0,9,22.84a1.92,1.92,0,0,0,.77-1.36,1.64,1.64,0,0,0-.85-1.57,1.79,1.79,0,0,1-1-1.49A2.84,2.84,0,0,1,8.2,17a2.75,2.75,0,0,0,.26-1.38c-.06-.75-.29-.92-.87-1.05-.4-.09-.78-.23-1.18-.33a1.48,1.48,0,0,0-.59,0,1.57,1.57,0,0,0-1.21,1.2,6,6,0,0,0-.15,1.53,20.69,20.69,0,0,0,.11,3.52,5.62,5.62,0,0,0,.55,1.94,1.39,1.39,0,0,0,.67.66A4,4,0,0,0,7.4,23.38ZM2.1,4.72a4.29,4.29,0,0,0-.19,2.09A2.81,2.81,0,0,0,4.72,9.18,6.56,6.56,0,0,0,8.54,7.61l-.07-.09L8,6.57A2.53,2.53,0,0,1,7.8,6.2a2.72,2.72,0,0,1,.34-2.35.22.22,0,0,0,0-.31,3.3,3.3,0,0,0-2.4-1.08,4.67,4.67,0,0,0-1.64.22c.15.09.28.15.39.23a.64.64,0,0,1,.24.6.34.34,0,0,1-.38.3c-.08.32-.15.62-.21.92a.53.53,0,0,0,0,.33,1.11,1.11,0,0,1-.08,1,.49.49,0,0,1-.74.2A2.74,2.74,0,0,1,2.19,4.92Zm7.13,9.7H9.5a3,3,0,0,0,1.18-.24,1.06,1.06,0,0,0,.59-.68,1.1,1.1,0,0,0-.5-1.22,5.13,5.13,0,0,0-1.64-.85,4.81,4.81,0,0,1-1.56-.91,7,7,0,0,0-1.11-.76,2.23,2.23,0,0,0-1.41-.28A1.27,1.27,0,0,0,4,10a1.85,1.85,0,0,0-.21,1.47A3,3,0,0,0,4.92,13,6.23,6.23,0,0,0,9.23,14.42Zm6.22-7.53A25.33,25.33,0,0,1,12.7,7c-.09,0-.2,0-.31.09l.13.32A3.25,3.25,0,0,1,12.74,9a4.66,4.66,0,0,0,.1,1.82A.33.33,0,0,0,13,11l.67.2a.86.86,0,0,1,.69.91c0,.32,0,.33.35.32l2.34-.16c.29,0,.41-.1.48-.38a5.34,5.34,0,0,0,.15-.89.56.56,0,0,0-.19-.35.66.66,0,0,0-.36-.16c-.4-.06-.81-.1-1.22-.13a.55.55,0,0,1-.58-.43,3.68,3.68,0,0,1-.14-1.65C15.27,7.83,15.36,7.37,15.45,6.89ZM9.77,4.45A4.7,4.7,0,0,0,9,4c-.57-.21-.47-.21-.73.28a2.21,2.21,0,0,0-.12,2,12.52,12.52,0,0,0,.7,1.23,2.16,2.16,0,0,0,.95-.94l-.46-.37.23-.29.28.19a.58.58,0,0,0-.1-.72.79.79,0,0,1-.19-.26C9.46,4.85,9.38,4.61,9.77,4.45Zm-1.85,6a7.41,7.41,0,0,0,1,.56,7.79,7.79,0,0,1,1.93.93c0-.08,0-.12,0-.16A5.9,5.9,0,0,0,9,8.81c-.22-.19-.3-.18-.61,0l.2.83,0,0L8.3,9.24Zm4.54-1.69c.07-.39,0-.44-.31-.51l-.27,0L9.78,8c-.27,0-.52-.11-.76-.16a2.1,2.1,0,0,0,.15.52,3.87,3.87,0,0,0,.5.7,5,5,0,0,1,.92,1.33c.08.16.17.19.32.09a.82.82,0,0,1,.19-.82A2.16,2.16,0,0,1,12.46,8.79Zm-3,7.36-.75.31s-.08,0-.09.08c-.14.38-.3.75-.41,1.15a1.64,1.64,0,0,0,.83,2,2.11,2.11,0,0,1,.5.44,1.89,1.89,0,0,1,.41,1.5c.47-.17.63-.48.42-.91A4.87,4.87,0,0,0,9.9,20a3.75,3.75,0,0,1-.26-.33A3.46,3.46,0,0,1,9.26,17C9.35,16.68,9.43,16.41,9.51,16.15ZM4.42,3.5c0-.3-.06-.38-.43-.54a1.16,1.16,0,0,0-1.64.85A2.21,2.21,0,0,0,3.5,6a.3.3,0,0,0,.27,0,.72.72,0,0,0,0-.89,1.78,1.78,0,0,1-.43-1A.52.52,0,0,1,4,3.42,4,4,0,0,1,4.42,3.5ZM5.63,14c-.42-.35-.86-.68-1.26-1a3,3,0,0,1-.83-1.36,8.92,8.92,0,0,0,.81,3.74A1.9,1.9,0,0,1,5.63,14Zm4.86.67-2,.11a2.19,2.19,0,0,1,.25,1.46A3.92,3.92,0,0,0,10.49,14.62ZM8,8.58l-1.34.73s-.08.11-.06.14a.81.81,0,0,0,.63.23,3.2,3.2,0,0,0,.63-.34C8.07,9.13,8.22,8.82,8,8.58ZM6.12,2.19a.47.47,0,0,0-.51-.38c-.32,0-.52.16-.55.38ZM3.67,9.3l-.12,1a1.38,1.38,0,0,1,.71-.85Zm3.66.64.37.29.18-.57Zm.79-1.55.23.11.08-.28Z"/><path d="M9.63,2.07l-.48.12L9,1.6l.48-.13Z"/><path d="M13.49,21l-.24-.41.52-.29.23.41Z"/><path d="M13.55,3.22l-.23-.41.51-.3.24.41Z"/><path d="M13.8,17.9l-.22-.41.51-.28.23.41Z"/><path d="M17.08,9.08l.12.48-.47.12-.12-.48Z"/><path d="M17.36,14.94l.21.43-.44.23-.22-.43Z"/><path d="M11.88,3.36l-.44.23-.23-.41.44-.24Z"/><path d="M17.09,1.87l.24,0,.06.29-.23,0Z"/><path d="M10.88,5.39l.26-.06c0,.11,0,.2,0,.3s-.13,0-.14,0A.85.85,0,0,1,10.88,5.39Z"/><path d="M17,5.48l.06.28-.23.06-.06-.3Z"/><path d="M14.25,15l-.22.05L14,14.8l.23-.05Z"/><path d="M11.78,16.92l-.23,0-.07-.29.23,0Z"/><path d="M18.93,17.68l-.23.07-.08-.28.23-.08Z"/><path d="M16.35,20.71l.06-.2c.3,0,.32,0,.21.28l-.13,0Z"/><path d="M5.88,15.91a.55.55,0,0,1,.54-.6.54.54,0,0,1,.52.6.57.57,0,0,1-.55.6A.54.54,0,0,1,5.88,15.91Z"/><path d="M7.41,5.15c0,.24-.06.41-.27.48a.4.4,0,0,1-.48-.18,1.11,1.11,0,0,1-.17-.54.54.54,0,0,1,.24-.35.49.49,0,0,1,.4.07A.6.6,0,0,1,7.41,5.15Z"/><path d="M5.56,11c0,.27-.08.44-.27.52a.44.44,0,0,1-.52-.18.71.71,0,0,1-.15-.3.5.5,0,0,1,.28-.63.53.53,0,0,1,.6.37A1.26,1.26,0,0,1,5.56,11Z"/><path d="M12.66,10.56c-.57.2-1.17.14-1.62.54.11.38.22.82.35,1.25a.48.48,0,0,0,.13.16,1.06,1.06,0,0,1,0,1.78,4.62,4.62,0,0,0-.46.52,4.2,4.2,0,0,1-.36.5,4.3,4.3,0,0,0-1,2.11,3.15,3.15,0,0,0,.43,2.35c.1.18.3.3.41.48a3.67,3.67,0,0,1,.42.84.73.73,0,0,1-.41.92,1.7,1.7,0,0,0-.7.68,2.69,2.69,0,0,1-2.67,1.15,6.24,6.24,0,0,1-1-.23A1.66,1.66,0,0,1,5,22.66a5.74,5.74,0,0,1-.51-1.76,17.82,17.82,0,0,1-.14-3.65c0-.4,0-.81,0-1.21a.61.61,0,0,0,0-.18,9.71,9.71,0,0,1-.93-4.53c0-.6.08-1.19.13-1.79,0-.12,0-.18-.12-.23A3.21,3.21,0,0,1,1.8,6,14.35,14.35,0,0,1,2.18,4.4,2.74,2.74,0,0,0,2.26,4,1.38,1.38,0,0,1,3.42,2.8L4.6,2.5a1.29,1.29,0,0,0,.19,0,.31.31,0,0,0,.15-.15.88.88,0,0,1,.89-.58.72.72,0,0,1,.76.53c0,.18.15.22.3.27a3.41,3.41,0,0,1,1.7,1.09.47.47,0,0,0,.27.16,2,2,0,0,1,1.68,1.64,2.33,2.33,0,0,1-.1.94A2.54,2.54,0,0,1,9.36,7.79a23.31,23.31,0,0,0,3.25.44c-.15-.37-.16-.77-.5-1-.18-.14-.13-.56.07-.74a3.85,3.85,0,0,1,.3-.27A.7.7,0,0,1,12.86,6,15.33,15.33,0,0,0,15,5.85a6.39,6.39,0,0,1,1.07.05,1,1,0,0,1,.25.1c0,.18,0,.32.06.46a.45.45,0,0,1-.27.56.28.28,0,0,0-.19.24,12.42,12.42,0,0,0-.27,1.58,5.19,5.19,0,0,0,.16,1.23c0,.14.13.2.28.21l1.22.12a1.4,1.4,0,0,1,.47.17.63.63,0,0,1,.38.67,8.37,8.37,0,0,1-.18,1,.7.7,0,0,1-.73.53l-2,.13c-.25,0-.51,0-.76,0h-.15c-.38-.12-.76-.22-1.14-.35a.51.51,0,0,1-.34-.47C12.83,11.57,12.75,11.08,12.66,10.56Zm-5.06,13A2.45,2.45,0,0,0,9.16,23a1.92,1.92,0,0,0,.77-1.36,1.63,1.63,0,0,0-.85-1.57,1.79,1.79,0,0,1-1-1.49,2.74,2.74,0,0,1,.29-1.41,2.75,2.75,0,0,0,.26-1.38c-.06-.75-.3-.93-.87-1.05-.4-.09-.78-.24-1.18-.33a1.32,1.32,0,0,0-.59,0,1.55,1.55,0,0,0-1.21,1.2,6,6,0,0,0-.15,1.53,20.69,20.69,0,0,0,.11,3.52,5.47,5.47,0,0,0,.55,1.94,1.39,1.39,0,0,0,.67.66A4,4,0,0,0,7.6,23.58ZM2.3,4.92A4.18,4.18,0,0,0,2.1,7,2.82,2.82,0,0,0,4.92,9.38,6.63,6.63,0,0,0,8.74,7.81s-.06-.06-.07-.09l-.49-1A2.64,2.64,0,0,1,8,6.39a2.67,2.67,0,0,1,.34-2.34.21.21,0,0,0,0-.31A3.31,3.31,0,0,0,5.92,2.65a5.15,5.15,0,0,0-1.64.22c.15.1.28.16.39.24a.64.64,0,0,1,.24.6c0,.23-.21.29-.39.3-.07.32-.15.62-.2.92a.61.61,0,0,0,0,.33,1.08,1.08,0,0,1-.07,1,.49.49,0,0,1-.74.2A2.74,2.74,0,0,1,2.39,5.12Zm7.13,9.69H9.7a2.75,2.75,0,0,0,1.17-.23,1.07,1.07,0,0,0,.6-.68,1.1,1.1,0,0,0-.5-1.22,4.94,4.94,0,0,0-1.64-.85,4.71,4.71,0,0,1-1.56-.91A7,7,0,0,0,6.66,10a2.23,2.23,0,0,0-1.41-.28,1.29,1.29,0,0,0-1,.52A1.88,1.88,0,0,0,4,11.67a3,3,0,0,0,1.09,1.57A6.22,6.22,0,0,0,9.43,14.61Zm6.22-7.52a25.45,25.45,0,0,1-2.75.14c-.1,0-.2,0-.31.09,0,.11.09.22.13.32a3.24,3.24,0,0,1,.22,1.6,4.66,4.66,0,0,0,.1,1.82c0,.06.09.12.16.15l.67.2a.86.86,0,0,1,.69.9c0,.33,0,.34.35.32l2.34-.15c.29,0,.41-.1.48-.38a5.45,5.45,0,0,0,.15-.9.56.56,0,0,0-.19-.34.6.6,0,0,0-.36-.16c-.41-.06-.81-.1-1.22-.13s-.5-.13-.58-.43a3.69,3.69,0,0,1-.14-1.65C15.47,8,15.56,7.57,15.65,7.09ZM10,4.65a4.7,4.7,0,0,0-.8-.47C8.59,4,8.69,4,8.44,4.45a2.23,2.23,0,0,0-.12,2A13.8,13.8,0,0,0,9,7.66a2.21,2.21,0,0,0,1-.94l-.46-.37.23-.29.28.19a.58.58,0,0,0-.1-.72.67.67,0,0,1-.19-.26C9.66,5.05,9.58,4.81,10,4.65Zm-1.85,6a7.41,7.41,0,0,0,1,.56,8,8,0,0,1,1.93.93A1.16,1.16,0,0,0,11,12,5.73,5.73,0,0,0,9.18,9c-.21-.19-.29-.19-.6,0l.2.83,0,0L8.5,9.44ZM12.66,9c.07-.38,0-.43-.31-.5l-.27,0c-.71-.07-1.41-.13-2.11-.21-.26,0-.51-.11-.75-.16a2.63,2.63,0,0,0,.14.52,4,4,0,0,0,.51.69,5.24,5.24,0,0,1,.92,1.34c.08.16.17.19.32.09a.82.82,0,0,1,.19-.82A2.21,2.21,0,0,1,12.66,9ZM9.71,16.35,9,16.66a.13.13,0,0,0-.09.07,12.3,12.3,0,0,0-.41,1.16,1.62,1.62,0,0,0,.83,2,2.37,2.37,0,0,1,.5.45,1.93,1.93,0,0,1,.41,1.5c.47-.17.63-.48.42-.91a4.87,4.87,0,0,0-.52-.76,3.75,3.75,0,0,1-.26-.33,3.48,3.48,0,0,1-.38-2.71C9.55,16.88,9.63,16.61,9.71,16.35ZM4.62,3.7c0-.3-.07-.39-.44-.54A1.15,1.15,0,0,0,2.55,4,2.21,2.21,0,0,0,3.7,6.21a.33.33,0,0,0,.27,0,.72.72,0,0,0,0-.89,1.81,1.81,0,0,1-.43-1.06.52.52,0,0,1,.6-.6A2.61,2.61,0,0,1,4.62,3.7ZM5.83,14.15c-.43-.35-.86-.68-1.26-1a3,3,0,0,1-.83-1.36,8.92,8.92,0,0,0,.81,3.74A1.9,1.9,0,0,1,5.83,14.15Zm4.86.67-2,.11a2.25,2.25,0,0,1,.25,1.46A3.92,3.92,0,0,0,10.69,14.82Zm-2.55-6c-.46.25-.9.48-1.33.73a.17.17,0,0,0-.07.14.87.87,0,0,0,.64.23A2.87,2.87,0,0,0,8,9.54C8.27,9.33,8.42,9,8.14,8.78ZM6.32,2.38A.47.47,0,0,0,5.8,2c-.31,0-.51.16-.55.37ZM3.87,9.5l-.12,1a1.43,1.43,0,0,1,.71-.86Zm3.66.64.37.29.18-.57Zm.79-1.56.23.12.08-.28Z"/><path d="M9.83,2.27l-.48.12L9.2,1.8l.48-.13Z"/><path d="M13.69,21.21l-.24-.41.52-.3.23.41Z"/><path d="M13.75,3.41,13.52,3l.51-.3.24.41Z"/><path d="M14,18.1l-.22-.41.51-.28.23.41Z"/><path d="M17.28,9.28l.12.48-.47.12-.12-.48Z"/><path d="M17.56,15.14l.21.42-.44.24-.22-.43Z"/><path d="M12.08,3.56l-.44.23-.24-.42.45-.23Z"/><path d="M17.29,2.07l.24,0,.06.29-.23.05Z"/><path d="M11.07,5.59l.27-.06c0,.1,0,.2,0,.3s-.13,0-.15,0A1.71,1.71,0,0,1,11.07,5.59Z"/><path d="M17.19,5.68l.06.28L17,6,17,5.72Z"/><path d="M14.45,15.24l-.22,0L14.15,15l.24-.05Z"/><path d="M12,17.11l-.23,0-.07-.28.23,0Z"/><path d="M19.13,17.88l-.24.07-.07-.29.23-.08Z"/><path d="M16.55,20.91l.06-.2c.29,0,.32.05.21.28l-.13,0Z"/><path d="M6.08,16.11a.53.53,0,1,1,1.06,0,.58.58,0,0,1-.55.6A.54.54,0,0,1,6.08,16.11Z"/><path d="M7.61,5.35c0,.24-.06.41-.27.48a.39.39,0,0,1-.48-.18,1.18,1.18,0,0,1-.17-.54.5.5,0,0,1,.24-.35.53.53,0,0,1,.4.06A.62.62,0,0,1,7.61,5.35Z"/><path d="M5.76,11.17c0,.27-.08.44-.28.52A.45.45,0,0,1,5,11.51a.83.83,0,0,1-.14-.3.5.5,0,0,1,.27-.63A.53.53,0,0,1,5.7,11,1.26,1.26,0,0,1,5.76,11.17Z"/></g><g class="cls-3"><path d="M12.32,10.22c-.57.2-1.17.14-1.62.54.11.38.22.82.35,1.25a.48.48,0,0,0,.13.16,1.06,1.06,0,0,1,0,1.78,4.62,4.62,0,0,0-.46.52,4.2,4.2,0,0,1-.36.5,4.3,4.3,0,0,0-1,2.11,3.15,3.15,0,0,0,.43,2.35c.1.18.3.3.41.48a3.67,3.67,0,0,1,.42.84.73.73,0,0,1-.41.92,1.7,1.7,0,0,0-.7.68A2.69,2.69,0,0,1,6.83,23.5a6.24,6.24,0,0,1-1-.23,1.66,1.66,0,0,1-1.1-.95,5.74,5.74,0,0,1-.51-1.76A17.82,17.82,0,0,1,4,16.91c0-.4,0-.81,0-1.21a.61.61,0,0,0,0-.18A9.71,9.71,0,0,1,3.11,11c0-.6.08-1.2.13-1.79,0-.12,0-.18-.12-.23A3.21,3.21,0,0,1,1.46,5.63a14.35,14.35,0,0,1,.38-1.57,2.74,2.74,0,0,0,.08-.37A1.38,1.38,0,0,1,3.08,2.46l1.18-.3a1.29,1.29,0,0,0,.19,0A.31.31,0,0,0,4.6,2a.88.88,0,0,1,.89-.58.72.72,0,0,1,.76.53c0,.18.15.22.3.27a3.41,3.41,0,0,1,1.7,1.09.47.47,0,0,0,.27.16A2,2,0,0,1,10.2,5.08a2.26,2.26,0,0,1-.1.93A2.53,2.53,0,0,1,9,7.45a23.31,23.31,0,0,0,3.25.44c-.15-.37-.16-.77-.5-1a.55.55,0,0,1,.07-.74,2.52,2.52,0,0,1,.3-.27.7.7,0,0,1,.38-.15,15.46,15.46,0,0,0,2.14-.19,6.44,6.44,0,0,1,1.07,0,1,1,0,0,1,.25.1c0,.18,0,.32.06.46a.45.45,0,0,1-.27.56.28.28,0,0,0-.19.24,12.42,12.42,0,0,0-.27,1.58,5.19,5.19,0,0,0,.16,1.23c0,.14.13.2.28.21l1.22.12a1.4,1.4,0,0,1,.47.17.63.63,0,0,1,.38.67,8.37,8.37,0,0,1-.18,1,.7.7,0,0,1-.73.53l-2,.13c-.25,0-.51,0-.76,0H14c-.38-.12-.76-.22-1.14-.35a.51.51,0,0,1-.34-.47C12.49,11.23,12.41,10.74,12.32,10.22Zm-5.06,13a2.51,2.51,0,0,0,1.56-.54,1.92,1.92,0,0,0,.77-1.36,1.63,1.63,0,0,0-.85-1.57,1.79,1.79,0,0,1-1-1.49,2.74,2.74,0,0,1,.29-1.41,2.75,2.75,0,0,0,.26-1.38c-.06-.75-.3-.93-.87-1.05-.4-.09-.78-.24-1.18-.33a1.32,1.32,0,0,0-.59,0,1.55,1.55,0,0,0-1.21,1.2,6,6,0,0,0-.15,1.53,20.69,20.69,0,0,0,.11,3.52A5.47,5.47,0,0,0,5,22.26a1.39,1.39,0,0,0,.67.66A4.16,4.16,0,0,0,7.26,23.24ZM2,4.58a4.18,4.18,0,0,0-.2,2.09A2.81,2.81,0,0,0,4.57,9,6.63,6.63,0,0,0,8.4,7.47s-.06-.06-.07-.09l-.49-1a2.64,2.64,0,0,1-.18-.38A2.67,2.67,0,0,1,8,3.71.21.21,0,0,0,8,3.4,3.31,3.31,0,0,0,5.58,2.31a5.15,5.15,0,0,0-1.64.22c.15.1.28.16.39.24a.64.64,0,0,1,.24.6c0,.23-.22.29-.39.3C4.11,4,4,4.29,4,4.59a.61.61,0,0,0,0,.33,1.08,1.08,0,0,1-.07,1,.49.49,0,0,1-.74.2A2.74,2.74,0,0,1,2.05,4.78Zm7.13,9.69h.27A2.75,2.75,0,0,0,10.53,14a1.07,1.07,0,0,0,.6-.68,1.1,1.1,0,0,0-.5-1.22A4.94,4.94,0,0,0,9,11.29a4.71,4.71,0,0,1-1.56-.91,7,7,0,0,0-1.11-.76,2.23,2.23,0,0,0-1.41-.28,1.29,1.29,0,0,0-1,.52,1.88,1.88,0,0,0-.2,1.47A3,3,0,0,0,4.78,12.9,6.22,6.22,0,0,0,9.09,14.27Zm6.22-7.52a25.45,25.45,0,0,1-2.75.14c-.1,0-.2.05-.32.09l.14.32a3.24,3.24,0,0,1,.22,1.6,4.66,4.66,0,0,0,.1,1.82c0,.06.09.12.16.15l.67.2a.85.85,0,0,1,.69.9c0,.33,0,.34.35.32l2.34-.15c.29,0,.41-.1.48-.38a5.64,5.64,0,0,0,.15-.9.61.61,0,0,0-.19-.35.65.65,0,0,0-.36-.15c-.41-.06-.81-.1-1.22-.13s-.5-.13-.58-.43a3.69,3.69,0,0,1-.14-1.65C15.13,7.69,15.22,7.23,15.31,6.75ZM9.63,4.31a4.7,4.7,0,0,0-.8-.47c-.58-.21-.48-.21-.73.27a2.23,2.23,0,0,0-.12,2,13.8,13.8,0,0,0,.7,1.23,2.21,2.21,0,0,0,1-.94L9.17,6l.23-.29.28.19a.58.58,0,0,0-.1-.72.67.67,0,0,1-.19-.26C9.32,4.71,9.24,4.46,9.63,4.31Zm-1.85,6a7.41,7.41,0,0,0,1,.56,8,8,0,0,1,1.93.93,1.16,1.16,0,0,0,0-.16,5.73,5.73,0,0,0-1.83-3c-.21-.19-.29-.19-.6,0l.2.83,0,0L8.15,9.1Zm4.54-1.7c.07-.38,0-.43-.31-.5l-.28,0-2.1-.21c-.26,0-.51-.11-.75-.16A2.63,2.63,0,0,0,9,8.25a4,4,0,0,0,.51.69,5.24,5.24,0,0,1,.92,1.34c.08.16.17.19.32.09A.82.82,0,0,1,11,9.55,2.21,2.21,0,0,1,12.32,8.64ZM9.37,16l-.75.31a.13.13,0,0,0-.09.07,12.3,12.3,0,0,0-.41,1.16,1.62,1.62,0,0,0,.83,2,2.37,2.37,0,0,1,.5.45,1.93,1.93,0,0,1,.41,1.5c.47-.17.63-.48.42-.91a4.87,4.87,0,0,0-.52-.76,3.75,3.75,0,0,1-.26-.33,3.44,3.44,0,0,1-.38-2.71C9.21,16.54,9.29,16.27,9.37,16ZM4.28,3.36c0-.3-.07-.39-.44-.54a1.15,1.15,0,0,0-1.63.84,2.19,2.19,0,0,0,1.15,2.2.29.29,0,0,0,.27,0,.72.72,0,0,0,0-.89,1.81,1.81,0,0,1-.43-1.06.52.52,0,0,1,.6-.6A2.61,2.61,0,0,1,4.28,3.36ZM5.49,13.81c-.43-.35-.86-.68-1.26-1a3,3,0,0,1-.83-1.36,8.92,8.92,0,0,0,.81,3.74A1.9,1.9,0,0,1,5.49,13.81Zm4.86.67-2,.11a2.25,2.25,0,0,1,.25,1.46A3.92,3.92,0,0,0,10.35,14.48Zm-2.55-6c-.46.25-.9.48-1.33.73a.17.17,0,0,0-.07.14A.87.87,0,0,0,7,9.54a2.87,2.87,0,0,0,.62-.34C7.93,9,8.08,8.68,7.8,8.44ZM6,2a.47.47,0,0,0-.52-.37c-.31,0-.51.16-.55.37ZM3.53,9.16l-.12,1a1.43,1.43,0,0,1,.71-.86Zm3.66.64.37.29.18-.57ZM8,8.24l.23.12.08-.28Z"/><path d="M9.49,1.93,9,2.05l-.15-.59.48-.13Z"/><path d="M13.35,20.87l-.24-.41.52-.3.23.41Z"/><path d="M13.41,3.07l-.23-.4.51-.3.24.41Z"/><path d="M13.66,17.76l-.23-.41.52-.28.23.41Z"/><path d="M16.94,8.94l.11.48-.46.12-.12-.48Z"/><path d="M17.22,14.8l.21.42-.44.24L16.77,15Z"/><path d="M11.73,3.22l-.43.23L11.06,3l.45-.23Z"/><path d="M17,1.73l.24,0,.06.29L17,2Z"/><path d="M10.73,5.25,11,5.19c0,.1,0,.2,0,.3s-.13,0-.15,0A1.71,1.71,0,0,1,10.73,5.25Z"/><path d="M16.85,5.34l.06.28-.23,0-.06-.29Z"/><path d="M14.11,14.9l-.22,0-.08-.29.24-.05Z"/><path d="M11.64,16.77l-.23,0-.07-.28.23,0Z"/><path d="M18.79,17.54l-.24.07-.07-.29.22-.08Z"/><path d="M16.21,20.57l.06-.2c.29,0,.32.05.21.28l-.13,0Z"/><path d="M5.74,15.77a.56.56,0,0,1,.54-.61.57.57,0,0,1,.52.61.58.58,0,0,1-.55.6A.54.54,0,0,1,5.74,15.77Z"/><path d="M7.27,5c0,.24-.06.41-.27.48a.39.39,0,0,1-.48-.18,1.18,1.18,0,0,1-.17-.54.5.5,0,0,1,.24-.35.53.53,0,0,1,.4.06A.62.62,0,0,1,7.27,5Z"/><path d="M5.42,10.83c0,.27-.08.44-.28.52a.45.45,0,0,1-.52-.18.83.83,0,0,1-.14-.3.5.5,0,0,1,.27-.63.53.53,0,0,1,.61.37A1.26,1.26,0,0,1,5.42,10.83Z"/></g><path class="cls-4" d="M12.52,10.42c-.57.2-1.17.14-1.62.54.11.38.22.82.35,1.25a.48.48,0,0,0,.13.16,1.05,1.05,0,0,1,0,1.78,3.73,3.73,0,0,0-.45.52,4.41,4.41,0,0,1-.36.49,4.37,4.37,0,0,0-1,2.12A3.11,3.11,0,0,0,10,19.62c.09.19.3.31.41.49a3.81,3.81,0,0,1,.42.83.75.75,0,0,1-.41.93,1.74,1.74,0,0,0-.7.67A2.7,2.7,0,0,1,7,23.7a6.58,6.58,0,0,1-1-.23,1.66,1.66,0,0,1-1.09-1,5.6,5.6,0,0,1-.51-1.75,17.21,17.21,0,0,1-.14-3.66c0-.4,0-.8,0-1.2a.31.31,0,0,0,0-.18,9.86,9.86,0,0,1-.93-4.53c0-.6.09-1.2.14-1.79a.2.2,0,0,0-.12-.23A3.23,3.23,0,0,1,1.65,5.83c.08-.53.26-1,.39-1.58a2.21,2.21,0,0,0,.08-.37A1.39,1.39,0,0,1,3.28,2.65c.39-.08.78-.19,1.18-.29.06,0,.13,0,.18,0a.34.34,0,0,0,.16-.15.88.88,0,0,1,.89-.58.71.71,0,0,1,.75.53.36.36,0,0,0,.31.26,3.42,3.42,0,0,1,1.69,1.1.53.53,0,0,0,.28.16A2,2,0,0,1,10.4,5.28a2.26,2.26,0,0,1-.1.93A2.54,2.54,0,0,1,9.21,7.65a23.66,23.66,0,0,0,3.26.44c-.15-.37-.16-.77-.5-1A.55.55,0,0,1,12,6.32a2.52,2.52,0,0,1,.3-.27.71.71,0,0,1,.37-.16,14.07,14.07,0,0,0,2.15-.18,6.44,6.44,0,0,1,1.07,0,.57.57,0,0,1,.25.1c0,.18,0,.32.06.45a.46.46,0,0,1-.27.57.29.29,0,0,0-.2.24,12.39,12.39,0,0,0-.26,1.58,5.19,5.19,0,0,0,.16,1.23c0,.14.13.2.27.21.41,0,.82.06,1.22.12a1.38,1.38,0,0,1,.48.17.63.63,0,0,1,.38.67,8.75,8.75,0,0,1-.18,1,.7.7,0,0,1-.73.53l-2,.13c-.25,0-.51,0-.76,0a.39.39,0,0,1-.15,0c-.38-.11-.77-.21-1.14-.34a.51.51,0,0,1-.34-.47Zm-5.06,13A2.46,2.46,0,0,0,9,22.89a1.88,1.88,0,0,0,.77-1.36A1.62,1.62,0,0,0,8.94,20a1.8,1.8,0,0,1-1-1.49,2.79,2.79,0,0,1,.29-1.42,2.69,2.69,0,0,0,.26-1.37c-.06-.75-.3-.93-.87-1-.4-.09-.79-.24-1.18-.33a1.53,1.53,0,0,0-.6-.05,1.57,1.57,0,0,0-1.2,1.21A6,6,0,0,0,4.52,17a19.74,19.74,0,0,0,.11,3.52,5.47,5.47,0,0,0,.55,1.94,1.41,1.41,0,0,0,.66.66A4.21,4.21,0,0,0,7.46,23.44ZM2.16,4.78A4.18,4.18,0,0,0,2,6.87,2.79,2.79,0,0,0,4.77,9.23,6.55,6.55,0,0,0,8.6,7.67s-.06-.06-.07-.09L8,6.63C8,6.5,7.9,6.38,7.85,6.25A2.7,2.7,0,0,1,8.2,3.91a.21.21,0,0,0,0-.31,3.28,3.28,0,0,0-2.4-1.09,5.13,5.13,0,0,0-1.63.22c.15.09.28.16.39.24a.63.63,0,0,1,.24.6.37.37,0,0,1-.39.3c-.07.32-.15.62-.2.92a.62.62,0,0,0,0,.33,1.05,1.05,0,0,1-.08,1,.47.47,0,0,1-.73.19A2.68,2.68,0,0,1,2.25,5C2.23,4.92,2.2,4.87,2.16,4.78Zm7.13,9.69h.27a2.78,2.78,0,0,0,1.17-.23,1.07,1.07,0,0,0,.6-.68,1.12,1.12,0,0,0-.5-1.22,4.72,4.72,0,0,0-1.65-.85,4.79,4.79,0,0,1-1.55-.92,8.41,8.41,0,0,0-1.12-.75,2.2,2.2,0,0,0-1.4-.29,1.33,1.33,0,0,0-1,.53,1.88,1.88,0,0,0-.2,1.47A3,3,0,0,0,5,13.1,6.22,6.22,0,0,0,9.29,14.47Zm6.22-7.53a21.26,21.26,0,0,1-2.76.14c-.09,0-.19.06-.31.09l.14.33a3.2,3.2,0,0,1,.22,1.59,4.46,4.46,0,0,0,.1,1.82.24.24,0,0,0,.16.15c.22.08.44.14.66.2a.86.86,0,0,1,.69.91c0,.32,0,.34.35.32.79,0,1.57-.1,2.35-.15.29,0,.41-.1.48-.38a4.68,4.68,0,0,0,.14-.9.54.54,0,0,0-.18-.35.68.68,0,0,0-.36-.15c-.41-.06-.81-.1-1.22-.13s-.5-.13-.58-.43a3.69,3.69,0,0,1-.14-1.65C15.33,7.89,15.42,7.43,15.51,6.94ZM9.83,4.51A4.7,4.7,0,0,0,9,4c-.58-.21-.48-.21-.73.27a2.17,2.17,0,0,0-.12,2,10.65,10.65,0,0,0,.7,1.22,2.13,2.13,0,0,0,.95-.93l-.46-.37.23-.29.28.19a.58.58,0,0,0-.1-.72.75.75,0,0,1-.19-.26C9.52,4.91,9.44,4.66,9.83,4.51ZM8,10.54a7.41,7.41,0,0,0,1,.56A8,8,0,0,1,10.9,12c0-.08,0-.12,0-.16A5.73,5.73,0,0,0,9,8.87c-.21-.19-.29-.19-.6,0l.2.83h0L8.35,9.3Zm4.54-1.7c.07-.38,0-.43-.32-.5l-.27,0-2.1-.21a5.86,5.86,0,0,1-.75-.17,2.05,2.05,0,0,0,.14.53,4.92,4.92,0,0,0,.51.69,5.41,5.41,0,0,1,.92,1.34c.08.16.16.19.32.09a.82.82,0,0,1,.19-.82A2.17,2.17,0,0,1,12.52,8.84ZM9.57,16.21l-.76.31a.14.14,0,0,0-.08.07,12.12,12.12,0,0,0-.41,1.15,1.63,1.63,0,0,0,.83,2,2.37,2.37,0,0,1,.5.45,1.92,1.92,0,0,1,.41,1.5c.47-.17.62-.49.42-.91A5,5,0,0,0,10,20a1.64,1.64,0,0,1-.26-.33A3.41,3.41,0,0,1,9.32,17C9.41,16.74,9.49,16.47,9.57,16.21ZM4.48,3.55c0-.3-.07-.38-.44-.53a1.14,1.14,0,0,0-1.63.84,2.18,2.18,0,0,0,1.14,2.2.31.31,0,0,0,.28,0,.72.72,0,0,0,0-.89,1.81,1.81,0,0,1-.43-1.06.51.51,0,0,1,.6-.6A2.57,2.57,0,0,1,4.48,3.55ZM5.69,14c-.43-.34-.86-.67-1.26-1a3.15,3.15,0,0,1-.84-1.36,9,9,0,0,0,.82,3.73A1.92,1.92,0,0,1,5.69,14Zm4.86.68-2,.11a2.25,2.25,0,0,1,.25,1.46A3.92,3.92,0,0,0,10.55,14.68ZM8,8.64l-1.33.72a.21.21,0,0,0-.07.15.87.87,0,0,0,.63.23,3.16,3.16,0,0,0,.63-.34C8.12,9.19,8.28,8.87,8,8.64ZM6.18,2.24a.47.47,0,0,0-.52-.37c-.31,0-.51.15-.55.37ZM3.72,9.35l-.12,1a1.48,1.48,0,0,1,.72-.86ZM7.38,10l.37.29.19-.57Zm.8-1.56.23.12.08-.28Z"/><path class="cls-4" d="M9.68,2.13l-.47.11-.15-.59.48-.12Z"/><path class="cls-4" d="M13.55,21.06l-.24-.4.51-.3.24.41Z"/><path class="cls-4" d="M13.61,3.27l-.23-.41.51-.29.24.4Z"/><path class="cls-4" d="M13.86,18l-.23-.41.51-.28.24.41Z"/><path class="cls-4" d="M17.13,9.14l.12.48-.46.12-.12-.48Z"/><path class="cls-4" d="M17.41,15l.22.42-.44.23L17,15.23Z"/><path class="cls-4" d="M11.93,3.42l-.44.23-.23-.42L11.71,3Z"/><path class="cls-4" d="M17.15,1.92l.23,0,.07.29-.23,0Z"/><path class="cls-4" d="M10.93,5.45l.26-.06a1.46,1.46,0,0,1,0,.29s-.13.06-.15,0A1.71,1.71,0,0,1,10.93,5.45Z"/><path class="cls-4" d="M17.05,5.54l.06.28-.23,0-.06-.3Z"/><path class="cls-4" d="M14.31,15.1l-.23,0L14,14.86l.24,0Z"/><path class="cls-4" d="M11.84,17l-.23,0-.07-.28.23,0Z"/><path class="cls-4" d="M19,17.74l-.24.06-.07-.28.22-.08Z"/><path class="cls-4" d="M16.41,20.77l.06-.2c.29,0,.32.05.21.28l-.14,0Z"/><path class="cls-4" d="M5.93,16a.58.58,0,0,1,.55-.61A.57.57,0,0,1,7,16a.59.59,0,0,1-.55.6A.55.55,0,0,1,5.93,16Z"/><path class="cls-4" d="M7.47,5.21c0,.24-.06.41-.28.48a.38.38,0,0,1-.47-.18A1.07,1.07,0,0,1,6.55,5a.46.46,0,0,1,.24-.35.53.53,0,0,1,.4.06A.62.62,0,0,1,7.47,5.21Z"/><path class="cls-4" d="M5.61,11c0,.27-.07.44-.27.52a.45.45,0,0,1-.52-.18.83.83,0,0,1-.14-.3A.5.5,0,0,1,5,10.44a.53.53,0,0,1,.61.37A.82.82,0,0,1,5.61,11Z"/></g></g></svg>