<svg xmlns="http://www.w3.org/2000/svg" viewBox="0 0 38.55 24.66"><defs><style>.cls-1{isolation:isolate;}.cls-2{opacity:0.15;}.cls-2,.cls-3{mix-blend-mode:multiply;}.cls-4{fill:#fff;}</style></defs><title>convert-CUSTOMIZE-SVG-03</title><g class="cls-1"><g id="Layer_1" data-name="Layer 1"><g class="cls-2"><path d="M14,20l-.24-.25a1.09,1.09,0,0,1,.29-.24.86.86,0,0,1,.6-.17s.08,0,.12-.09a.73.73,0,0,0,.18-.17.34.34,0,0,0,0-.22c0-.25,0-.49,0-.74s.11-.25.28-.23c.47.07.48.09.56.51a3.08,3.08,0,0,1,0,.33l.28-.24c.18-.18.32,0,.47.05a.26.26,0,0,1,.11.38c-.08.16-.18.31-.28.48l.13,0a1.09,1.09,0,0,1,.94.23c.15.08.13.2,0,.28l-.19.1L18.4,20a.52.52,0,0,1,.25,0c.07,0,.16.13.16.2,0,.61,0,1.22,0,1.84,0,.15-.09.16-.2.18a22.05,22.05,0,0,1-3.72.14h-.06l0,.22H8.65a.59.59,0,0,0-.32.11c-.23.18-.48.09-.78.13l.24-.23H6.93V20.93l.24,0L7,20.53a.29.29,0,0,1,.13-.4c.12,0,.1-.09.09-.18,0-.33,0-.66,0-1s.1-.36.39-.32.43.13.46.48c0,.2,0,.4,0,.63l.24-.22c.19-.17.34-.05.49,0a.27.27,0,0,1,.1.4c-.12.2-.25.38-.38.56l-.15.19,2-.35V17.43H5.87a3.71,3.71,0,0,1,.28.3.2.2,0,0,1,0,.33l-.83.57H6.72v4H1.89v-4H3.38l-.83-.55c-.19-.15-.2-.25,0-.43A6.25,6.25,0,0,1,3,17.22a.21.21,0,0,1,.16,0,.93.93,0,0,1,.77.44c.15.23.28.47.42.71.12-.21.23-.43.36-.63a1,1,0,0,1,.78-.51,1.89,1.89,0,0,1,.37.1l2.31-3.6H6.91L8.8,10.26H7.71L10.6,5.31l0,0-.5.4,0,0,.39-1.08-.81-.42v0c.26,0,.53,0,.8,0a.21.21,0,0,0,.24-.18c.08-.32.19-.64.31-1,.11.32.21.58.3.84s.11.19.26.17a8.21,8.21,0,0,1,1.12,0l-1,.87.55.85,0,0-.52-.34,0,0,2.91,5H13.48l1.88,3.43H14.15l2.38,3.73h-4.6c0,.1,0,.17,0,.25v3c0,.28,0,.28.32.24v-.52c0-.29,0-.32.32-.34L13.9,20ZM9.23,10l-1.9,3.45H8.58l-2.37,3.7h9.87l-2.39-3.72h1.24c0-.09-.07-.14-.1-.2-.4-.73-.81-1.45-1.19-2.19-.16-.29-.31-.53-.69-.45h-.06a7.2,7.2,0,0,1-2.77-1c-.43-.25-.83-.53-1.26-.81L8.15,10ZM9,8.55a8.13,8.13,0,0,0,4.23,1.81L13.07,10h1.06l-3-5.12ZM14.56,22.4V21.18l-.18,0H10a1.05,1.05,0,0,0-.31,0,4,4,0,0,1-1.4.17l.35,1ZM3.33,21l-.62-.31a3.36,3.36,0,0,1,1.08-1.78H2.13V22.4H3.84V20h0Zm1.53-2.1L4.81,19a2.21,2.21,0,0,1,1,2.62l-.16.07c-.24.09-.28.06-.3-.2s0-.52,0-.78a1.4,1.4,0,0,0-.5-1V22.4H6.48V18.9Zm13.71,1.48-2.46.07v1.79l2.31-.18c.06,0,.14-.07.14-.11C18.57,21.43,18.57,20.91,18.57,20.38Zm-8,.54c.28,0,.56,0,.84,0s.22-.06.22-.23V17.63a1.23,1.23,0,0,0,0-.2h-1Zm4.21,0v1.27l.35,0c0-.08,0-.14,0-.2,0-.45,0-.9,0-1.36,0-.17-.06-.21-.22-.21l-2.16-.05H12.5v.53ZM4.57,22.4v-.24c0-.88,0-1.76,0-2.65A.53.53,0,0,0,4.31,19a1.13,1.13,0,0,0-.21.66c0,.82,0,1.65,0,2.47,0,.08,0,.15,0,.23Zm10.86-.21h.4V20.51l-.19-.06c-.13,0-.21,0-.21.15v1.59Zm-7.61.21c-.14-.4-.39-.77-.23-1.22H7.17V22.4Zm-4-3.8,0-.06-.89-1-.38.36Zm.83,0,0,.05L6,17.9l-.39-.35Zm-.81.76A2.2,2.2,0,0,0,3,20.5l.22.14ZM8,21.38l-.07,0a.81.81,0,0,0,.07.7.46.46,0,0,1,.07.16c0,.1.08.19.18.13a.22.22,0,0,0,.07-.21C8.2,21.92,8.08,21.65,8,21.38Zm2.31-.67v-.06l-1.34.21v.06A2.38,2.38,0,0,0,10.28,20.71ZM5.48,20l.15,1.25A1.48,1.48,0,0,0,5.48,20ZM8,20.43l.5-.71A.82.82,0,0,0,8,20.43Zm8.38-1.77a.84.84,0,0,0-.51.71Zm-2.18,1.08.64.18,0-.06C14.64,19.84,14.51,19.51,14.19,19.74ZM3.85,18.12c-.15-.39-.32-.57-.54-.61Zm13.34,1.62c-.22-.13-.45-.06-.66.19ZM4.72,18l.06.06.51-.58-.07-.06Zm3,1.17h0v.72h0Zm-.26-.28-.11,0a3.14,3.14,0,0,0,0,.75Zm7.76-.28h0l0-.5h-.06Z"/><path d="M17,11.78l.25.81-.77.23L16.25,12Z"/><path d="M16.87,5l.72.18-.11.42-.71-.18Z"/><path d="M1.57,14.32l.11-.52.41.1L2,14.42Z"/><path d="M2.61,3.76l-.44-.24.19-.36.45.24Z"/><path d="M5.1,11.57l-.2.35-.45-.26.2-.35Z"/><path d="M1.83,6.44,2,6.09l.44.25-.2.36Z"/><path d="M16.28,7.89l-.2.35L15.63,8l.2-.35Z"/><path d="M4.33,5.58l.2-.35L5,5.47l-.19.36Z"/><path d="M4.17,9l.19-.36.46.25-.2.35Z"/><path d="M9.32,6.19l-.21.35-.44-.25.2-.36Z"/><path d="M14.32,5l-.4-.1L14,4.44l.39.11Z"/><path d="M18.26,15.11l.39.19-.18.38-.39-.2Z"/><path d="M18.82,10.51l-.41-.1.1-.42.4.09Z"/><path d="M16.07,14.42l.06.17c-.25.11-.27.11-.28-.11l.13-.05Z"/><path d="M1.58,17.15,1.52,17l.23-.08.08.19Z"/><path d="M6.59,8.38l-.2,0,.05-.24.2,0Z"/><path d="M18.28,3.64l.2,0,0,.24-.2,0Z"/><path d="M18.74,7.13l-.2,0,0-.25.2,0Z"/><path d="M2,8.72l.2.06L2.15,9,2,9Z"/><path d="M5.47,14.54l-.19-.06,0-.22C5.55,14.27,5.55,14.27,5.47,14.54Z"/><path d="M18,17.55l-.19,0,.05-.25.2,0Z"/><path d="M6.71,4.09l-.18,0,0-.21C6.8,3.82,6.8,3.82,6.71,4.09Z"/><path d="M2.07,11.55l.23-.07c.12.18.12.18-.15.25Z"/><path d="M3.08,15.45l-.24.08-.07-.19L3,15.26Z"/><path d="M9.24,15.83a.56.56,0,1,1-.56-.56A.55.55,0,0,1,9.24,15.83Z"/><path d="M12.12,13.06a.56.56,0,1,1-.57-.56A.57.57,0,0,1,12.12,13.06Z"/><path d="M13.76,15.8a.56.56,0,1,1-.56.55A.55.55,0,0,1,13.76,15.8Z"/><path d="M13.68,12.56a.31.31,0,0,1-.31.31.32.32,0,0,1-.31-.3.31.31,0,0,1,.62,0Z"/><path d="M9.14,11.35a.3.3,0,0,1,.31.31.3.3,0,0,1-.6,0A.3.3,0,0,1,9.14,11.35Z"/><path d="M10.17,8.94a.55.55,0,0,1-.55-.57.56.56,0,0,1,.56-.55.56.56,0,0,1,.55.58A.55.55,0,0,1,10.17,8.94Z"/><path d="M12.36,7.88a.29.29,0,0,1-.3.3.31.31,0,0,1-.31-.28.32.32,0,0,1,.3-.32A.31.31,0,0,1,12.36,7.88Z"/><path d="M14.23,20.19,14,19.93a1.6,1.6,0,0,1,.3-.23.86.86,0,0,1,.6-.17s.08-.05.12-.09a.73.73,0,0,0,.18-.17.35.35,0,0,0,0-.23c0-.24,0-.49,0-.73s.12-.25.29-.23c.47.07.48.09.56.51a3.08,3.08,0,0,1,0,.33l.27-.25c.18-.17.33,0,.47.06a.27.27,0,0,1,.12.38,5.11,5.11,0,0,1-.29.48l.14,0a1.1,1.1,0,0,1,.94.23c.15.08.13.2,0,.28l-.19.1,1.12.06a.47.47,0,0,1,.24,0c.08,0,.17.13.17.19,0,.62,0,1.23,0,1.85,0,.15-.09.16-.2.18a22.05,22.05,0,0,1-3.72.14H15l0,.22H8.84a.51.51,0,0,0-.31.11c-.23.18-.48.09-.78.13L8,22.87H7.13V21.13l.24,0-.22-.38a.29.29,0,0,1,.12-.4c.13,0,.11-.09.1-.18,0-.33,0-.66,0-1s.1-.36.39-.32.42.13.46.48c0,.2,0,.39,0,.63l.24-.22c.19-.18.34-.05.49.05a.27.27,0,0,1,.1.4c-.12.19-.25.38-.38.56l-.15.19,2.05-.35V17.63H6.07c.1.11.2.2.28.3a.2.2,0,0,1,0,.33l-.83.57H6.92v4H2.09v-4H3.57l-.82-.55c-.2-.15-.2-.26,0-.44s.29-.3.44-.44a.24.24,0,0,1,.15,0,.94.94,0,0,1,.78.45c.15.23.28.47.42.71.12-.21.22-.43.36-.63a.9.9,0,0,1,.78-.51,1.38,1.38,0,0,1,.37.1l2.31-3.6H7.11L9,10.46H7.9l2.9-5,0,0-.5.4,0,0,.39-1.08-.81-.42V4.31l.81,0a.21.21,0,0,0,.24-.18c.08-.32.19-.64.3-1,.12.32.22.58.31.84s.11.18.26.17a8.21,8.21,0,0,1,1.12,0l-.95.87.55.85,0,0-.53-.34,0,0,2.91,5H13.68l1.88,3.43H14.34l2.39,3.73h-4.6c0,.1,0,.17,0,.25v3c0,.28,0,.28.32.24v-.52c0-.29,0-.32.32-.34l1.34,0Zm-4.81-10L7.53,13.65H8.78l-2.37,3.7h9.86l-2.38-3.72h1.24l-.1-.2c-.4-.73-.81-1.45-1.2-2.19-.15-.29-.3-.54-.68-.46h-.06a7.14,7.14,0,0,1-2.77-1c-.43-.25-.83-.54-1.26-.81L8.35,10.2ZM9.19,8.75a8.16,8.16,0,0,0,4.24,1.81l-.16-.37h1.06l-3-5.11ZM14.76,22.6V21.38l-.18,0h-4.4a1.12,1.12,0,0,0-.32,0,3.9,3.9,0,0,1-1.39.17l.35,1ZM3.53,21.2l-.62-.31A3.36,3.36,0,0,1,4,19.11H2.33v3.48H4V20.24H4Zm1.53-2.1,0,0a2.23,2.23,0,0,1,1,2.63l-.16.07c-.24.09-.29.06-.3-.2s0-.52,0-.78a1.44,1.44,0,0,0-.5-1V22.6H6.67V19.1Zm13.71,1.48-2.46.07v1.78l2.31-.17c.05,0,.14-.07.14-.11C18.77,21.63,18.77,21.11,18.77,20.58Zm-7.95.54c.28,0,.56,0,.84,0s.22-.05.22-.23c0-1,0-2,0-3.06a1.23,1.23,0,0,0,0-.2h-1Zm4.2,0v1.27l.35,0a1.68,1.68,0,0,0,0-.2c0-.45,0-.91,0-1.36,0-.17-.05-.21-.21-.21L13,20.58H12.7v.53ZM4.77,22.6v-.24c0-.88,0-1.77,0-2.65a.51.51,0,0,0-.26-.47,1.13,1.13,0,0,0-.21.66c0,.82,0,1.65,0,2.47,0,.08,0,.15,0,.23Zm10.86-.21H16V20.7l-.19-.05c-.13,0-.21,0-.21.15v1.59ZM8,22.6c-.14-.41-.39-.77-.24-1.22H7.37V22.6Zm-4-3.8,0-.07-.89-1-.39.35Zm.84,0,0,0,1.26-.71-.39-.36Zm-.81.75a2.21,2.21,0,0,0-.87,1.19l.22.13Zm4.09,2.07-.07,0a.81.81,0,0,0,.07.7,1,1,0,0,1,.07.15c0,.1.08.19.18.14a.22.22,0,0,0,.07-.21C8.4,22.12,8.28,21.85,8.17,21.58Zm2.31-.67,0-.07-1.33.22v.05A2.29,2.29,0,0,0,10.48,20.91Zm-4.8-.7.14,1.25A1.48,1.48,0,0,0,5.68,20.21Zm2.51.42.5-.71A.82.82,0,0,0,8.19,20.63Zm8.38-1.78a.84.84,0,0,0-.51.71Zm-2.18,1.09.64.18,0-.07C14.83,20,14.71,19.71,14.39,19.94ZM4.05,18.32c-.16-.4-.32-.57-.54-.61Zm13.34,1.62c-.22-.13-.45-.06-.66.19ZM4.92,18.24,5,18.3l.51-.58-.07-.06Zm3,1.17h0v.72h0Zm-.26-.29-.11,0a3.14,3.14,0,0,0,0,.75Zm7.76-.27h0l0-.5h-.06Z"/><path d="M17.22,12l.25.81L16.7,13l-.25-.8Z"/><path d="M17.06,5.23l.73.18-.11.42L17,5.65Z"/><path d="M1.76,14.52,1.88,14l.41.1-.11.52Z"/><path d="M2.81,4l-.45-.24.2-.36L3,3.6Z"/><path d="M5.3,11.76l-.21.36-.44-.26.2-.35Z"/><path d="M2,6.64l.2-.35.45.25-.2.35Z"/><path d="M16.48,8.09l-.2.35-.45-.25.2-.35Z"/><path d="M4.53,5.78l.19-.35.46.23L5,6Z"/><path d="M4.37,9.16l.19-.36L5,9.05l-.19.35Z"/><path d="M9.52,6.38l-.21.36-.45-.25.21-.36Z"/><path d="M14.52,5.17l-.4-.11.1-.42.4.11Z"/><path d="M18.46,15.31l.39.19-.18.38-.4-.2Z"/><path d="M19,10.71l-.4-.11.09-.41.4.09Z"/><path d="M16.27,14.61l.06.18c-.25.11-.27.11-.28-.11l.13,0Z"/><path d="M1.78,17.35l-.06-.2L2,17.08l.08.19Z"/><path d="M6.79,8.58l-.2-.05,0-.24.2,0Z"/><path d="M18.48,3.84l.2,0,0,.25-.21,0Z"/><path d="M18.94,7.32l-.21,0L18.78,7l.2,0Z"/><path d="M2.21,8.92l.2.06-.06.24-.2-.05Z"/><path d="M5.66,14.74l-.18-.06,0-.22C5.75,14.46,5.75,14.46,5.66,14.74Z"/><path d="M18.23,17.75,18,17.7l.05-.24.2,0Z"/><path d="M6.91,4.29l-.18,0,0-.21C7,4,7,4,6.91,4.29Z"/><path d="M2.27,11.75l.22-.07c.13.18.13.18-.14.25Z"/><path d="M3.28,15.65,3,15.73,3,15.54l.24-.08Z"/><path d="M9.44,16a.55.55,0,0,1-.55.55A.56.56,0,0,1,8.33,16a.56.56,0,0,1,1.11,0Z"/><path d="M12.31,13.26a.55.55,0,0,1-.56.56.56.56,0,1,1,.56-.56Z"/><path d="M14,16a.56.56,0,1,1-.56.54A.55.55,0,0,1,14,16Z"/><path d="M13.87,12.76a.3.3,0,0,1-.3.31.33.33,0,0,1-.31-.31.31.31,0,0,1,.3-.29A.3.3,0,0,1,13.87,12.76Z"/><path d="M9.34,11.55a.3.3,0,0,1,.31.31.29.29,0,0,1-.3.29.28.28,0,0,1-.3-.28A.3.3,0,0,1,9.34,11.55Z"/><path d="M10.37,9.14a.56.56,0,0,1-.55-.58A.56.56,0,0,1,10.38,8a.54.54,0,0,1,.55.58A.56.56,0,0,1,10.37,9.14Z"/><path d="M12.56,8.07a.31.31,0,0,1-.61,0,.3.3,0,0,1,.29-.32A.31.31,0,0,1,12.56,8.07Z"/></g><g class="cls-3"><path d="M13.89,19.85l-.25-.26a1.6,1.6,0,0,1,.3-.23.86.86,0,0,1,.6-.17s.08-.05.12-.09a.73.73,0,0,0,.18-.17.35.35,0,0,0,0-.23c0-.24,0-.49,0-.73s.12-.25.29-.23c.47.07.48.09.56.51a3.08,3.08,0,0,1,0,.33l.27-.25c.18-.17.33,0,.47.06a.27.27,0,0,1,.12.38,5.11,5.11,0,0,1-.29.48l.14,0a1.1,1.1,0,0,1,.94.23c.15.08.13.2,0,.28l-.19.1,1.12.06a.47.47,0,0,1,.24,0c.08,0,.17.13.17.19,0,.62,0,1.23,0,1.85,0,.15-.09.16-.2.18a22.05,22.05,0,0,1-3.72.14H14.7l0,.22H8.5a.51.51,0,0,0-.31.11c-.23.18-.48.09-.78.13l.24-.23H6.79V20.79l.24,0-.22-.38a.29.29,0,0,1,.12-.4c.13,0,.11-.09.1-.18,0-.33,0-.66,0-1s.1-.36.39-.32.42.13.46.48c0,.2,0,.39,0,.63l.24-.22c.19-.18.34-.05.49.05a.27.27,0,0,1,.1.4c-.12.19-.25.38-.38.56l-.15.19,2.05-.35V17.29H5.73c.1.11.2.2.28.3a.2.2,0,0,1,0,.33l-.83.57H6.58v4H1.75v-4H3.23L2.41,18c-.2-.15-.2-.26,0-.44l.44-.44A.24.24,0,0,1,3,17a.94.94,0,0,1,.78.45c.15.23.28.47.42.71.12-.21.22-.43.36-.63a.9.9,0,0,1,.78-.51,1.38,1.38,0,0,1,.37.1L8,13.56H6.77l1.89-3.44H7.56l2.9-4.95,0,0-.5.4,0,0,.39-1.08L9.47,4V4c.27,0,.54,0,.81,0a.21.21,0,0,0,.24-.18c.08-.32.19-.64.3-1,.12.32.22.58.31.84s.11.18.26.17a8.21,8.21,0,0,1,1.12,0l-1,.87.56.85,0,0-.53-.34,0,0,2.91,5H13.34l1.88,3.43H14l2.39,3.73h-4.6c0,.09,0,.17,0,.25v3c0,.28,0,.28.32.24v-.52c0-.29,0-.32.32-.34l1.34,0Zm-4.81-10L7.19,13.31H8.44L6.07,17h9.86l-2.38-3.72h1.24l-.1-.2c-.4-.73-.81-1.45-1.2-2.19-.15-.29-.3-.54-.68-.46h-.06a7.14,7.14,0,0,1-2.77-1c-.43-.25-.83-.54-1.26-.81L8,9.86ZM8.85,8.4a8.09,8.09,0,0,0,4.24,1.82l-.16-.37H14L11,4.74Zm5.57,13.86V21l-.18,0H9.84a1.12,1.12,0,0,0-.32,0,3.9,3.9,0,0,1-1.39.17l.35,1ZM3.19,20.86l-.62-.31a3.36,3.36,0,0,1,1.08-1.78H2v3.48H3.7V19.9h0Zm1.53-2.1,0,0a2.23,2.23,0,0,1,1,2.63l-.16.07c-.24.09-.29.06-.3-.2s0-.52,0-.79a1.43,1.43,0,0,0-.5-1v2.78H6.33v-3.5Zm13.71,1.48L16,20.31v1.78l2.31-.17s.14-.07.14-.11C18.43,21.29,18.43,20.77,18.43,20.24Zm-7.95.54c.28,0,.56,0,.84,0s.22-.05.22-.23c0-1,0-2,0-3.06a1.23,1.23,0,0,0,0-.2h-1Zm4.2,0V22l.35,0a1.68,1.68,0,0,0,0-.2c0-.45,0-.91,0-1.36,0-.17-.05-.21-.21-.21l-2.16-.05h-.32v.53ZM4.43,22.26V22c0-.88,0-1.77,0-2.65a.51.51,0,0,0-.26-.47,1.12,1.12,0,0,0-.21.65c0,.83,0,1.66,0,2.48,0,.08,0,.15,0,.23Zm10.86-.21h.4V20.36l-.19-.05q-.21-.06-.21.15v1.59Zm-7.61.21c-.14-.41-.39-.77-.24-1.22H7v1.22Zm-4-3.8,0-.07-.89-1-.39.35Zm.84,0,0,0,1.26-.71-.39-.36Zm-.81.75a2.21,2.21,0,0,0-.87,1.19l.22.13Zm4.09,2.07-.07,0a.81.81,0,0,0,.07.7,1,1,0,0,1,.07.15c0,.1.08.19.18.14a.22.22,0,0,0,.07-.21C8.06,21.78,7.94,21.51,7.83,21.24Zm2.31-.67,0-.07-1.33.22v.05A2.29,2.29,0,0,0,10.14,20.57Zm-4.8-.7.14,1.25A1.48,1.48,0,0,0,5.34,19.87Zm2.51.42.5-.71A.82.82,0,0,0,7.85,20.29Zm8.38-1.78a.84.84,0,0,0-.51.71ZM14.05,19.6l.64.18,0-.07C14.49,19.7,14.37,19.37,14.05,19.6ZM3.71,18c-.16-.4-.32-.57-.54-.61ZM17.05,19.6c-.22-.13-.45-.06-.66.19ZM4.58,17.9l.06.06.51-.58-.07-.06Zm3,1.17h0v.72h0Zm-.26-.29-.11,0a3.14,3.14,0,0,0,0,.75Zm7.76-.27h0l0-.5H15.1Z"/><path d="M16.88,11.64l.25.81-.77.23-.25-.8Z"/><path d="M16.72,4.89l.73.18-.11.41-.71-.17Z"/><path d="M1.42,14.18l.12-.52.41.1-.11.51Z"/><path d="M2.47,3.62,2,3.38,2.22,3l.45.24Z"/><path d="M5,11.42l-.21.36-.44-.26.2-.35Z"/><path d="M1.69,6.3,1.89,6l.45.25-.2.35Z"/><path d="M16.14,7.75l-.2.35-.45-.25.2-.35Z"/><path d="M4.19,5.44l.19-.35.46.23-.2.37Z"/><path d="M4,8.82l.19-.36.45.25-.19.35Z"/><path d="M9.18,6,9,6.4l-.45-.25.21-.36Z"/><path d="M14.18,4.83l-.4-.11.1-.42.4.11Z"/><path d="M18.12,15l.39.19-.19.38-.39-.2Z"/><path d="M18.67,10.37l-.4-.11.09-.41.4.09Z"/><path d="M15.93,14.27l.06.18c-.25.11-.27.11-.28-.11l.13-.05Z"/><path d="M1.44,17l-.06-.2.23-.07.08.19Z"/><path d="M6.45,8.24l-.2-.05L6.3,8l.2,0Z"/><path d="M18.14,3.5l.2,0,0,.25-.21,0Z"/><path d="M18.59,7l-.2,0,.05-.25.2,0Z"/><path d="M1.87,8.58l.2.06L2,8.88l-.2-.05Z"/><path d="M5.32,14.4l-.18-.06.05-.22C5.41,14.12,5.41,14.12,5.32,14.4Z"/><path d="M17.89,17.41l-.2-.05.06-.24.2,0Z"/><path d="M6.57,4,6.39,3.9l0-.21C6.66,3.67,6.66,3.67,6.57,4Z"/><path d="M1.93,11.41l.22-.07c.13.18.13.18-.14.25Z"/><path d="M2.94,15.31l-.24.08-.07-.19.24-.08Z"/><path d="M9.1,15.69a.56.56,0,1,1-.56-.56A.55.55,0,0,1,9.1,15.69Z"/><path d="M12,12.92a.55.55,0,0,1-.56.56.56.56,0,1,1,.56-.56Z"/><path d="M13.62,15.66a.55.55,0,0,1,.56.56.56.56,0,0,1-1.12,0A.55.55,0,0,1,13.62,15.66Z"/><path d="M13.53,12.42a.3.3,0,0,1-.3.31.33.33,0,0,1-.31-.31.31.31,0,0,1,.3-.29A.3.3,0,0,1,13.53,12.42Z"/><path d="M9,11.21a.3.3,0,0,1,.31.31.29.29,0,0,1-.3.29.28.28,0,0,1-.3-.28A.3.3,0,0,1,9,11.21Z"/><path d="M10,8.8a.56.56,0,0,1-.55-.58A.56.56,0,0,1,10,7.68a.54.54,0,0,1,.55.57A.56.56,0,0,1,10,8.8Z"/><path d="M12.22,7.73a.31.31,0,0,1-.61,0,.3.3,0,0,1,.29-.32A.31.31,0,0,1,12.22,7.73Z"/></g><path class="cls-4" d="M14.09,20.05l-.25-.26a2.25,2.25,0,0,1,.3-.24.9.9,0,0,1,.6-.16s.08-.06.12-.09a.73.73,0,0,0,.18-.17.43.43,0,0,0,0-.23c0-.24,0-.49,0-.73s.12-.25.29-.23c.47.07.48.09.56.51a3.08,3.08,0,0,1,0,.33l.27-.25c.18-.17.33,0,.47.06a.27.27,0,0,1,.12.38,5.11,5.11,0,0,1-.29.48.49.49,0,0,0,.14,0,1.14,1.14,0,0,1,.94.24c.15.08.13.2,0,.28l-.19.1,1.11.06a.51.51,0,0,1,.25,0c.07,0,.17.12.17.19,0,.62,0,1.23,0,1.84,0,.16-.08.17-.2.18a21.9,21.9,0,0,1-3.71.15H14.9l0,.22H8.7a.56.56,0,0,0-.32.11c-.23.18-.47.09-.77.12l.24-.23H7V21l.23,0c-.07-.14-.14-.26-.21-.38a.29.29,0,0,1,.12-.4c.12,0,.11-.09.1-.18,0-.33-.05-.66-.05-1s.1-.37.38-.32.43.12.47.48c0,.19,0,.39,0,.63l.24-.22c.19-.18.34-.05.49.05a.27.27,0,0,1,.1.4c-.12.19-.25.37-.38.56l-.15.19,2.05-.36V17.49H5.93l.28.3a.2.2,0,0,1,0,.33l-.83.57H6.78v4H2v-4H3.43c-.3-.2-.57-.37-.82-.55s-.2-.26,0-.44L3,17.28s.1,0,.15,0a1,1,0,0,1,.78.45c.15.23.28.47.42.71a6.88,6.88,0,0,1,.36-.64.91.91,0,0,1,.78-.5,1.32,1.32,0,0,1,.36.1l2.32-3.6H7l1.89-3.44H7.76l2.9-4.95,0,0-.5.4,0,0,.39-1.09-.81-.41v0l.81,0A.2.2,0,0,0,10.71,4c.09-.32.19-.64.31-1,.12.32.22.58.31.84s.11.18.26.17a6.79,6.79,0,0,1,1.11,0l-.95.86.56.86,0,0-.53-.34,0,0,2.91,5h-1.1l1.89,3.43H14.2l2.39,3.73H12a2.09,2.09,0,0,0,0,.24v3c0,.28,0,.28.32.24v-.52c0-.29,0-.32.32-.34L14,20.05Zm-4.81-10L7.39,13.51H8.64l-2.38,3.7h9.87l-2.38-3.72H15c-.05-.09-.07-.14-.1-.2-.4-.73-.81-1.45-1.2-2.19-.15-.29-.3-.54-.68-.46a.09.09,0,0,1-.07,0,7,7,0,0,1-2.76-1c-.43-.25-.83-.53-1.26-.8L8.2,10.06ZM9.05,8.6a8.09,8.09,0,0,0,4.24,1.82l-.16-.37h1.06l-3-5.11Zm5.56,13.86V21.23H10a1.12,1.12,0,0,0-.32,0,3.9,3.9,0,0,1-1.39.17l.35,1ZM3.39,21.06l-.62-.31c0-.74.62-1.23,1.08-1.78H2.19v3.48H3.9V20.1h0ZM4.91,19l0,0a2.22,2.22,0,0,1,1,2.63.58.58,0,0,1-.16.06c-.23.1-.28.06-.29-.19s0-.53,0-.79a1.39,1.39,0,0,0-.49-1v2.78H6.53V19Zm13.72,1.48-2.46.06v1.79l2.31-.17c.05,0,.14-.08.14-.12C18.63,21.49,18.63,21,18.63,20.44Zm-8,.54c.28,0,.57,0,.85,0s.22-.06.22-.23c0-1,0-2,0-3.06a1.27,1.27,0,0,0,0-.2H10.67Zm4.21,0v1.27h.35a1.37,1.37,0,0,0,0-.19c0-.46,0-.91,0-1.36,0-.17-.06-.21-.22-.21l-2.15,0h-.32V21ZM4.63,22.46v-.24c0-.89,0-1.77,0-2.65a.53.53,0,0,0-.26-.48,1.21,1.21,0,0,0-.22.66c0,.83,0,1.65,0,2.48,0,.07,0,.15,0,.23Zm10.85-.21h.41V20.56l-.2,0c-.13,0-.2,0-.2.15s0,.39,0,.59Zm-7.6.21c-.14-.41-.39-.77-.24-1.22H7.23v1.22Zm-4-3.81,0-.06-.89-1L2.68,18Zm.84,0,0,.05L6.05,18l-.39-.35Zm-.82.75a2.2,2.2,0,0,0-.86,1.18l.22.14ZM8,21.44l-.07,0a.81.81,0,0,0,.07.7l.07.15c0,.1.07.19.18.14a.23.23,0,0,0,.07-.21C8.25,22,8.14,21.71,8,21.44Zm2.31-.67,0-.07L9,20.92v0A2.29,2.29,0,0,0,10.34,20.77Zm-4.8-.7.14,1.25A1.47,1.47,0,0,0,5.54,20.07Zm2.51.42.5-.71A.8.8,0,0,0,8.05,20.49Zm8.38-1.78a.84.84,0,0,0-.51.71ZM14.25,19.8l.64.18,0-.07C14.69,19.89,14.56,19.57,14.25,19.8ZM3.91,18.17c-.16-.39-.32-.56-.54-.6Zm13.34,1.62c-.23-.12-.45-.05-.66.2ZM4.78,18.1l0,0,.52-.57-.07-.06Zm3,1.17h0V20h0ZM7.54,19l-.11,0a3.16,3.16,0,0,0,0,.75Zm7.76-.28h0l0-.5H15.3Z"/><path class="cls-4" d="M17.08,11.84l.25.81-.77.23-.25-.8Z"/><path class="cls-4" d="M16.92,5.09l.73.17-.11.42-.71-.17Z"/><path class="cls-4" d="M1.62,14.38l.12-.52.41.09L2,14.47Z"/><path class="cls-4" d="M2.67,3.82l-.45-.24.19-.36.46.24Z"/><path class="cls-4" d="M5.16,11.62,5,12l-.45-.26.21-.35Z"/><path class="cls-4" d="M1.89,6.5l.2-.36.45.26-.2.35Z"/><path class="cls-4" d="M16.34,8l-.2.35-.45-.25.2-.35Z"/><path class="cls-4" d="M4.39,5.64l.19-.36L5,5.52l-.2.36Z"/><path class="cls-4" d="M4.22,9l.2-.36.45.24-.19.36Z"/><path class="cls-4" d="M9.38,6.24l-.21.36-.45-.26L8.92,6Z"/><path class="cls-4" d="M14.38,5,14,4.92l.1-.42.4.11Z"/><path class="cls-4" d="M18.32,15.16l.39.2-.19.38-.39-.2Z"/><path class="cls-4" d="M18.87,10.57l-.4-.11.09-.41.4.09Z"/><path class="cls-4" d="M16.13,14.47l.05.18c-.24.11-.26.11-.27-.12l.13,0Z"/><path class="cls-4" d="M1.64,17.21,1.57,17l.24-.07.08.19Z"/><path class="cls-4" d="M6.65,8.44l-.2,0,0-.24.2,0Z"/><path class="cls-4" d="M18.33,3.7l.21,0,0,.24L18.3,4Z"/><path class="cls-4" d="M18.79,7.18l-.2,0,.05-.26.2,0Z"/><path class="cls-4" d="M2.07,8.78l.2.06-.06.24L2,9Z"/><path class="cls-4" d="M5.52,14.59l-.18-.05,0-.22C5.61,14.32,5.61,14.32,5.52,14.59Z"/><path class="cls-4" d="M18.09,17.61l-.2-.05.05-.24.21,0Z"/><path class="cls-4" d="M6.77,4.15,6.59,4.1l0-.21C6.86,3.87,6.86,3.87,6.77,4.15Z"/><path class="cls-4" d="M2.13,11.6l.22-.07c.13.19.12.19-.15.26Z"/><path class="cls-4" d="M3.14,15.51l-.24.08-.07-.2.24-.08Z"/><path class="cls-4" d="M9.3,15.89a.56.56,0,0,1-.56.55.55.55,0,0,1-.55-.57.54.54,0,0,1,.55-.54A.55.55,0,0,1,9.3,15.89Z"/><path class="cls-4" d="M12.17,13.12a.56.56,0,0,1-.57.56.56.56,0,1,1,.57-.56Z"/><path class="cls-4" d="M13.81,15.86a.56.56,0,0,1,.57.56.56.56,0,0,1-.56.55.56.56,0,0,1-.56-.57A.53.53,0,0,1,13.81,15.86Z"/><path class="cls-4" d="M13.73,12.62a.31.31,0,1,1-.61,0,.32.32,0,0,1,.3-.3A.32.32,0,0,1,13.73,12.62Z"/><path class="cls-4" d="M9.2,11.41a.31.31,0,0,1,.31.31.3.3,0,0,1-.3.29.28.28,0,0,1-.3-.28A.29.29,0,0,1,9.2,11.41Z"/><path class="cls-4" d="M10.23,9a.56.56,0,0,1-.55-.58.56.56,0,0,1,1.11,0A.56.56,0,0,1,10.23,9Z"/><path class="cls-4" d="M12.42,7.93a.31.31,0,0,1-.61,0,.31.31,0,1,1,.61,0Z"/></g></g></svg>