<svg xmlns="http://www.w3.org/2000/svg" viewBox="0 0 38.55 24.66"><defs><style>.cls-1{isolation:isolate;}.cls-2{opacity:0.15;}.cls-2,.cls-3{mix-blend-mode:multiply;}.cls-4{fill:#fff;}</style></defs><title>convert-CUSTOMIZE-SVG-03</title><g class="cls-1"><g id="Layer_1" data-name="Layer 1"><g class="cls-2"><path d="M12.47,12.67a4.92,4.92,0,0,1,.72,1.86.3.3,0,0,0,.11.14,1.08,1.08,0,0,0,1.59-.3,9.5,9.5,0,0,1,.62-.8,1.23,1.23,0,0,1,2.07.14,3.66,3.66,0,0,1,.61,2.18,1.63,1.63,0,0,1-1.57,1.77c-1.17.14-2.35.19-3.52.27a1.19,1.19,0,0,1-.46-.05.43.43,0,0,0-.45.13,3.34,3.34,0,0,1-2.11.81.32.32,0,0,0-.18.11,4.94,4.94,0,0,1-.36.44.24.24,0,0,0-.07.3,4.8,4.8,0,0,0,.3.6,1.9,1.9,0,0,1-.44,2.67,1.52,1.52,0,0,1-1.3.3,2.19,2.19,0,0,1-1.75-2.15,9.79,9.79,0,0,1,.11-1.32c.11-.76.26-1.5.39-2.25,0-.07,0-.16,0-.2a3.73,3.73,0,0,1-.62-1.67C6.07,15.3,6,14.94,6,14.58a.29.29,0,0,0-.19-.27,1.92,1.92,0,0,0-.25-.12A5.52,5.52,0,0,1,3.26,12.7c-.62-.6-1.21-1.24-1.8-1.88a2,2,0,0,1-.39-.64A1.08,1.08,0,0,1,2.29,8.72l.36.08a2,2,0,0,1,0-2.2,1.94,1.94,0,0,1,2.1-.72L4.25,3.79c-.16-.68-.31-1.37-.46-2.06l0,0L7.22,5.17A1.5,1.5,0,0,0,7.38,5,1.36,1.36,0,0,1,8.91,4.6a3.72,3.72,0,0,1,1,.5,1.36,1.36,0,0,1,.55,1.2.62.62,0,0,0,.11.34,3,3,0,0,1,.58,1.29,1.13,1.13,0,0,0,0,.15l.44-.41s0,0,0,0c-.05-.37.28-.45.49-.59a.93.93,0,0,1,.76-.11,1.37,1.37,0,0,1,1,.86A3,3,0,0,1,14,9.86a18.68,18.68,0,0,1-.86,2A5,5,0,0,1,12.47,12.67Zm-2.4,5.88h.28A3.33,3.33,0,0,0,12,17.83a1.26,1.26,0,0,0,.33-.32,4.38,4.38,0,0,0,.65-2,4.72,4.72,0,0,0-1.69-3.87.48.48,0,0,0-.24-.11c-.49-.09-1-.15-1.45-.27a1.71,1.71,0,0,0-.68,0,.36.36,0,0,0-.21.13c-.14.2-.28.4-.4.61s-.2.45-.32.67a1.29,1.29,0,0,1-.23.24,2.62,2.62,0,0,1-.22-.25l-.18-.27-.06,0,.11.22a3.09,3.09,0,0,1,.37,1.71c0,.28-.12.54-.42.64a.77.77,0,0,1-.82-.2l-.24-.21A5.16,5.16,0,0,0,6.88,17a7.37,7.37,0,0,1,.43-.78A.58.58,0,0,1,8.13,16,3.55,3.55,0,0,1,10.07,18.55Zm-.4-8.61,0,0a1.91,1.91,0,0,0,.54-.25,2.14,2.14,0,0,0,.58-1A2.32,2.32,0,0,0,10,6.41a4.47,4.47,0,0,0-2-1,2.58,2.58,0,0,0-1,0A8.83,8.83,0,0,0,5.62,6,.85.85,0,0,0,5,6.44c-.09.23-.26.47-.53.45s-.31.1-.41.24a2.46,2.46,0,0,0-.22.34.72.72,0,0,0-.07.75.76.76,0,0,1,0,.84c-.16.21-.15.21.08.36.61.41,1.22.81,1.82,1.24a8.07,8.07,0,0,1,.68.6,1,1,0,0,1,.27-.14c.44-.13.88-.23,1.32-.35a2.81,2.81,0,0,0,.35-.17A1.21,1.21,0,0,0,8,10.54,2.23,2.23,0,0,1,6.42,8.12a2.1,2.1,0,0,1,2.7-1.44.35.35,0,0,0,.13.05c.35,0,.46,0,.58.37a.33.33,0,0,0,.06.1,1.88,1.88,0,0,1-.18,2.69Zm-3.14,11c0,.15,0,.38,0,.6a.48.48,0,0,0,.09.26,2.31,2.31,0,0,0,1.95.95c.74-.06,1-.25,1.23-1.07a1.54,1.54,0,0,0-.26-1.19,5.58,5.58,0,0,1-.35-.69.46.46,0,0,1,.15-.61,1,1,0,0,0,.19-1.41,4.28,4.28,0,0,0-1.49-1.47c-.24-.15-.41-.14-.56.1a2.46,2.46,0,0,0-.35.73A21.08,21.08,0,0,0,6.53,20.91ZM1.35,9.32a2.69,2.69,0,0,0-.08.5,1.08,1.08,0,0,0,.36.79c.77.8,1.53,1.6,2.34,2.36a4,4,0,0,0,1.19.78,4.91,4.91,0,0,1,1.61,1,.57.57,0,0,0,.22.11c.33.05.49-.11.52-.48a3,3,0,0,0-.46-1.73,7.25,7.25,0,0,0-2.22-2.26.25.25,0,0,0-.17,0A2.53,2.53,0,0,1,2,9.87Zm15.4,8.07c-.1-.32-.22-.6-.29-.89a2.81,2.81,0,0,1-.08-.76c0-.56.05-1.12.12-1.68a.56.56,0,0,1,.5-.55.84.84,0,0,0-1,0,2.49,2.49,0,0,0-.44.42c-.2.24-.38.51-.57.76a1.14,1.14,0,0,1-1.25.46c-.17,0-.33-.09-.52-.14a4.88,4.88,0,0,1-.68,2.68A22.05,22.05,0,0,0,16.75,17.39ZM10.11,8.65a1.79,1.79,0,0,0-.38-1.21,1.59,1.59,0,0,0-1.6-.61A2,2,0,0,0,6.71,8.07a.74.74,0,0,0,0,.33A2.3,2.3,0,0,0,7.39,10a1.16,1.16,0,0,0,.77.3A2.4,2.4,0,0,0,10,9.06C10.06,8.9,10.09,8.73,10.11,8.65Zm.72,1.09a3.5,3.5,0,0,1,.26.77,2.94,2.94,0,0,0,.56,1.15c.14.21.35.38.51.59s.18.13.26,0a2.6,2.6,0,0,0,.48-.58,17.12,17.12,0,0,0,.81-1.93,2.71,2.71,0,0,0-.06-1.9,1.13,1.13,0,0,0-.81-.68.68.68,0,0,0-.6.08,1.2,1.2,0,0,1,1.38,1,3.71,3.71,0,0,1,0,.88,1,1,0,0,1-.86,1,1,1,0,0,1-1.09-.24,4.72,4.72,0,0,1-.51-.75A1.34,1.34,0,0,1,11,9c-.08.16-.13.29-.2.41l-.23.38Zm-6-3.51a1.48,1.48,0,0,0-1-.12A1.57,1.57,0,0,0,2.59,7.29a2.13,2.13,0,0,0,.32,1.39c.17.25.38.36.53.3s.24-.31.13-.62S3.42,8,3.37,7.8a.89.89,0,0,1,.91-1.19C4.62,6.63,4.69,6.58,4.83,6.23Zm5.32,0c0-.62-.4-1-1.14-1.33a1.15,1.15,0,0,0-1.34.25c.38,0,.72.23,1.12.11a.55.55,0,0,1,.68.33C9.59,5.91,9.89,6,10.15,6.22ZM6.22,4.53l0,.13C6,5,6,5.14,5.56,5.07a.27.27,0,0,0-.21,0,4.83,4.83,0,0,0-.38.4.2.2,0,0,0,0,.15s.09.08.13.07a2.19,2.19,0,0,0,.51-.1c.24-.09.47-.22.71-.32s.38-.12.55-.17ZM10.58,10a2.38,2.38,0,0,0-1.08.33c-.43.25-.36.13-.21.58l0,0h.09l1.33-.35s.08-.1.07-.13S10.67,10.19,10.58,10Zm-5-6.29a2.42,2.42,0,0,1-.21.33.83.83,0,0,1-.24.22c-.42.25-.44.29-.26.76,0,0,0,0,0-.07.19-.29.19-.29.52-.2.14,0,.26.05.34-.09a.72.72,0,0,0,.08-.62ZM6.8,11.41l.11.33,1.34-.35L8.09,11Zm1,1.12.39-.85-.66.18L7.3,12a1.71,1.71,0,0,0,.14.27A3.66,3.66,0,0,0,7.79,12.53ZM4.59,4.08a.82.82,0,0,0,.54-.59c0-.09-.16-.23-.25-.34h0l-.38.42a.16.16,0,0,0,0,.12A3.1,3.1,0,0,0,4.59,4.08Zm6.53,7.25a2.85,2.85,0,0,0-.19-.36c0-.05-.12-.11-.16-.1-.29.06-.57.14-.85.21a.89.89,0,0,0,.31.11ZM9,11l-.09-.24-.61.1.15.37ZM4.37,3.09c.21-.27.19-.34-.12-.52,0,.13,0,.25.08.37Z"/><path d="M17.62,7.43l.87.27-.28.89-.87-.27Z"/><path d="M19,3.78l.12.47-.8.19L18.2,4Z"/><path d="M8.14,2l.48-.12.14.58-.47.11Z"/><path d="M15.44,5.44l.23.39-.5.29-.23-.4Z"/><path d="M13.14,3.3l-.51.28-.22-.39.5-.29Z"/><path d="M18.12,10.89l.22.4-.51.27-.23-.4Z"/><path d="M1.45,15.46l-.24-.4.5-.28.24.39Z"/><path d="M2,4.11l.5-.28.24.39-.5.29Z"/><path d="M10.32,3.55l.43-.23.23.4L10.54,4Z"/><path d="M2.88,17.63l-.12-.47.46-.11.12.47Z"/><path d="M15.48,11.12l.11.46-.45.12L15,11.22Z"/><path d="M16.6,2.72l.06.28-.22.07-.07-.28Z"/><path d="M1.36,7.47l.06.28-.22.06-.07-.28Z"/><path d="M6.27,8a.35.35,0,0,1-.37.37.42.42,0,0,1-.38-.42.37.37,0,0,1,.36-.39A.43.43,0,0,1,6.27,8Z"/><path d="M8.64,17.66a2.22,2.22,0,0,1-.11.39c-.07.16-.22.16-.3,0a.87.87,0,0,1,0-.8c.08-.15.23-.15.3,0A2.11,2.11,0,0,1,8.64,17.66Z"/><path d="M8.07,8.91l.27,0c.12,0,.21,0,.26-.11a1.78,1.78,0,0,0,.18-.43A.37.37,0,0,0,8.45,8a2,2,0,0,1-.4-.16.32.32,0,0,1-.12-.18.21.21,0,0,1,.13-.15,3.15,3.15,0,0,1,.6-.17A.42.42,0,0,1,9,7.39s0,.17,0,.26a2,2,0,0,0-.13.46.46.46,0,0,0,.22.45c.15.08.28.22.47,0l0,.07-.15.29-.28-.13-.26-.13-.16.23C8.53,9.17,8.36,9.19,8.07,8.91Z"/><path d="M12.66,12.87a4.71,4.71,0,0,1,.73,1.86.25.25,0,0,0,.11.14,1.08,1.08,0,0,0,1.59-.3,7.9,7.9,0,0,1,.62-.81,1.23,1.23,0,0,1,2.07.15,3.73,3.73,0,0,1,.61,2.18,1.65,1.65,0,0,1-1.57,1.77c-1.17.14-2.35.19-3.52.27a1.17,1.17,0,0,1-.46-.05.44.44,0,0,0-.46.13,3.32,3.32,0,0,1-2.11.81.3.3,0,0,0-.17.11,4.94,4.94,0,0,1-.36.44.24.24,0,0,0-.07.3,4.8,4.8,0,0,0,.3.6,1.9,1.9,0,0,1-.44,2.67,1.52,1.52,0,0,1-1.3.3,2.2,2.2,0,0,1-1.75-2.15A9.66,9.66,0,0,1,6.59,20c.11-.76.26-1.5.39-2.26a.27.27,0,0,0,0-.2,3.69,3.69,0,0,1-.62-1.66c-.07-.35-.12-.71-.16-1.07A.31.31,0,0,0,6,14.51c-.09,0-.16-.09-.25-.12A5.52,5.52,0,0,1,3.46,12.9c-.62-.6-1.21-1.24-1.8-1.88a1.84,1.84,0,0,1-.39-.64A1.08,1.08,0,0,1,2.49,8.92L2.85,9a2,2,0,0,1,0-2.2,1.92,1.92,0,0,1,2.1-.72C4.75,5.36,4.6,4.68,4.44,4L4,1.93l0,0L7.42,5.37c.08-.08.12-.1.15-.14A1.37,1.37,0,0,1,9.1,4.8a3.69,3.69,0,0,1,1,.49,1.39,1.39,0,0,1,.56,1.2.58.58,0,0,0,.11.34,3,3,0,0,1,.58,1.3,1.13,1.13,0,0,0,0,.15l.44-.41,0,0c-.05-.38.27-.45.49-.6a.92.92,0,0,1,.76-.1,1.37,1.37,0,0,1,1,.86,3,3,0,0,1,.07,2.05,16.39,16.39,0,0,1-.87,2A4.49,4.49,0,0,1,12.66,12.87Zm-2.39,5.88h.28A3.33,3.33,0,0,0,12.19,18a1.26,1.26,0,0,0,.33-.32,4.51,4.51,0,0,0,.65-2,4.75,4.75,0,0,0-1.69-3.88.64.64,0,0,0-.24-.1c-.49-.09-1-.15-1.46-.27a1.67,1.67,0,0,0-.67,0,.33.33,0,0,0-.21.13,5.81,5.81,0,0,0-.4.61c-.12.22-.2.45-.32.67a2.61,2.61,0,0,1-.23.24,2.62,2.62,0,0,1-.22-.25c-.07-.09-.12-.18-.18-.27l-.06,0c0,.08.08.15.11.22A3,3,0,0,1,8,14.63c0,.28-.11.54-.41.63a.75.75,0,0,1-.82-.19l-.24-.21a5.16,5.16,0,0,0,.59,2.33,8.67,8.67,0,0,1,.43-.79.58.58,0,0,1,.82-.2A3.55,3.55,0,0,1,10.27,18.75Zm-.4-8.61,0,0a1.91,1.91,0,0,0,.54-.25A2.14,2.14,0,0,0,11,9a2.34,2.34,0,0,0-.86-2.35,4.47,4.47,0,0,0-2-1,2.8,2.8,0,0,0-1,0,10.19,10.19,0,0,0-1.3.49.83.83,0,0,0-.59.49c-.09.23-.26.47-.53.45s-.32.1-.42.24a3.87,3.87,0,0,0-.21.34A.72.72,0,0,0,4,8.42a.76.76,0,0,1,0,.84c-.16.21-.15.21.08.36.61.41,1.22.81,1.81,1.24a6.91,6.91,0,0,1,.69.6,1.87,1.87,0,0,1,.26-.15c.45-.12.89-.22,1.33-.35a1.81,1.81,0,0,0,.35-.16,1.3,1.3,0,0,0-.31-.06A2.23,2.23,0,0,1,6.62,8.32a2.1,2.1,0,0,1,2.7-1.44.35.35,0,0,0,.13,0c.35,0,.46,0,.58.37a.53.53,0,0,0,.06.1,1.88,1.88,0,0,1-.19,2.69Zm-3.14,11c0,.15,0,.38,0,.6a.43.43,0,0,0,.1.25,2.3,2.3,0,0,0,2,1c.74-.07,1-.25,1.23-1.07a1.58,1.58,0,0,0-.26-1.19A5.58,5.58,0,0,1,9.43,20a.46.46,0,0,1,.15-.61A1,1,0,0,0,9.77,18a4.4,4.4,0,0,0-1.49-1.48c-.24-.14-.41-.13-.56.1a2.67,2.67,0,0,0-.36.74A21.08,21.08,0,0,0,6.73,21.11ZM1.54,9.52a3.91,3.91,0,0,0-.08.5,1.17,1.17,0,0,0,.36.79c.77.79,1.54,1.6,2.34,2.35a4,4,0,0,0,1.2.79,5,5,0,0,1,1.61,1,.48.48,0,0,0,.22.12c.33.05.49-.11.52-.48a3,3,0,0,0-.46-1.73A7.36,7.36,0,0,0,5,10.57a.2.2,0,0,0-.17,0,2.55,2.55,0,0,1-2.66-.48ZM17,17.59c-.1-.32-.22-.6-.29-.89a2.81,2.81,0,0,1-.08-.76c0-.56.05-1.12.12-1.68a.55.55,0,0,1,.49-.55.81.81,0,0,0-1,0,2.49,2.49,0,0,0-.44.42c-.2.24-.38.51-.57.76a1.14,1.14,0,0,1-1.25.46,4.19,4.19,0,0,1-.52-.15,5,5,0,0,1-.68,2.69A22.9,22.9,0,0,0,17,17.59ZM10.31,8.85a1.84,1.84,0,0,0-.38-1.21A1.59,1.59,0,0,0,8.33,7,1.94,1.94,0,0,0,6.91,8.26a.8.8,0,0,0,0,.34,2.3,2.3,0,0,0,.73,1.59,1.14,1.14,0,0,0,.77.3,2.43,2.43,0,0,0,1.85-1.23ZM11,9.94a3.5,3.5,0,0,1,.26.77,2.71,2.71,0,0,0,.56,1.14c.14.22.35.39.51.6s.18.13.26,0a2.44,2.44,0,0,0,.48-.59A16.23,16.23,0,0,0,13.91,10a2.66,2.66,0,0,0-.07-1.9,1.13,1.13,0,0,0-.8-.69.72.72,0,0,0-.6.09,1.2,1.2,0,0,1,1.38,1,4.33,4.33,0,0,1,0,.88,1.06,1.06,0,0,1-.86,1,1,1,0,0,1-1.09-.25,4.9,4.9,0,0,1-.52-.74,2.09,2.09,0,0,1-.1-.21c-.08.16-.13.28-.2.41l-.24.38ZM5,6.43a1.51,1.51,0,0,0-1-.12A1.55,1.55,0,0,0,2.79,7.48a2.16,2.16,0,0,0,.32,1.4c.16.25.37.36.53.29s.23-.3.13-.62-.15-.36-.2-.55a.89.89,0,0,1,.91-1.19C4.82,6.82,4.89,6.78,5,6.43Zm5.31,0c0-.62-.39-1.06-1.13-1.33a1.15,1.15,0,0,0-1.34.25c.38,0,.72.22,1.11.11a.56.56,0,0,1,.69.33C9.79,6.11,10.08,6.21,10.34,6.42ZM6.42,4.73l0,.12c-.15.39-.22.48-.61.41a.31.31,0,0,0-.21.06,3.59,3.59,0,0,0-.38.4.17.17,0,0,0,0,.14s.09.09.12.08a2.28,2.28,0,0,0,.52-.1c.24-.09.47-.22.71-.32L7,5.34Zm4.36,5.48a2.53,2.53,0,0,0-1.08.34c-.43.24-.36.13-.21.58l0,0h.09l1.33-.35a.15.15,0,0,0,.07-.13C11,10.52,10.87,10.39,10.78,10.21Zm-5-6.28c-.1.15-.14.25-.21.33a1,1,0,0,1-.24.22c-.42.25-.44.29-.26.76,0,0,0,0,.05-.07.19-.29.19-.3.51-.2.14,0,.26,0,.35-.1A.66.66,0,0,0,6,4.26ZM7,11.61l.11.33,1.34-.36-.17-.36Zm1,1.12.39-.85-.66.17-.22.1a1.15,1.15,0,0,0,.14.27A3.66,3.66,0,0,0,8,12.73ZM4.78,4.28a.8.8,0,0,0,.54-.59c0-.09-.15-.23-.24-.35s0,0,0,0c-.14.15-.26.28-.37.42a.15.15,0,0,0,0,.11C4.72,4,4.75,4.14,4.78,4.28Zm6.54,7.25a3.08,3.08,0,0,0-.19-.37s-.12-.1-.16-.09c-.29.06-.57.14-.85.21a.71.71,0,0,0,.31.1ZM9.23,11.2,9.14,11l-.61.1.14.38ZM4.57,3.28c.21-.26.19-.33-.12-.52a3.61,3.61,0,0,0,.08.38A.51.51,0,0,0,4.57,3.28Z"/><path d="M17.82,7.63l.87.26-.28.9-.87-.27Z"/><path d="M19.21,4l.12.47-.81.2-.12-.46Z"/><path d="M8.34,2.21l.48-.12L9,2.67l-.47.11Z"/><path d="M15.64,5.64l.23.39-.5.29-.23-.4Z"/><path d="M13.34,3.5l-.51.28-.23-.39.5-.29Z"/><path d="M18.32,11.08l.22.4-.51.28-.23-.4Z"/><path d="M1.64,15.66l-.23-.4.5-.29.23.39Z"/><path d="M2.16,4.31,2.66,4l.23.39-.5.29Z"/><path d="M10.52,3.75,11,3.51l.23.41-.44.23Z"/><path d="M3.08,17.83,3,17.36l.45-.11.12.47Z"/><path d="M15.67,11.31l.12.47-.45.11-.12-.47Z"/><path d="M16.8,2.92l.06.28-.22.07L16.57,3Z"/><path d="M1.56,7.67,1.62,8,1.4,8l-.07-.28Z"/><path d="M6.47,8.15a.35.35,0,0,1-.37.37.42.42,0,0,1-.38-.42.37.37,0,0,1,.36-.39A.42.42,0,0,1,6.47,8.15Z"/><path d="M8.84,17.86a2.5,2.5,0,0,1-.11.39c-.07.16-.22.16-.3,0a.85.85,0,0,1,0-.79c.08-.15.23-.15.3,0A2.5,2.5,0,0,1,8.84,17.86Z"/><path d="M8.27,9.11a1.24,1.24,0,0,1,.27,0A.2.2,0,0,0,8.8,9,1.78,1.78,0,0,0,9,8.6a.38.38,0,0,0-.34-.45A1.43,1.43,0,0,1,8.25,8a.31.31,0,0,1-.12-.18.22.22,0,0,1,.12-.15,4.27,4.27,0,0,1,.61-.18.52.52,0,0,1,.32.09s0,.18,0,.27a1.86,1.86,0,0,0-.13.46.47.47,0,0,0,.21.45c.16.08.29.22.48,0l0,.07-.16.29L9.34,9l-.26-.12-.16.23C8.73,9.37,8.55,9.39,8.27,9.11Z"/></g><g class="cls-3"><path d="M12.32,12.53a4.71,4.71,0,0,1,.73,1.86.25.25,0,0,0,.11.14,1.08,1.08,0,0,0,1.59-.3,7.9,7.9,0,0,1,.62-.81,1.23,1.23,0,0,1,2.07.15,3.73,3.73,0,0,1,.61,2.18,1.65,1.65,0,0,1-1.57,1.77c-1.17.14-2.35.19-3.52.27a1.17,1.17,0,0,1-.46-.05.44.44,0,0,0-.46.13,3.32,3.32,0,0,1-2.11.81.3.3,0,0,0-.17.11,4.94,4.94,0,0,1-.36.44.24.24,0,0,0-.07.3,4.8,4.8,0,0,0,.3.6,1.9,1.9,0,0,1-.44,2.67,1.52,1.52,0,0,1-1.3.3A2.2,2.2,0,0,1,6.14,21a9.66,9.66,0,0,1,.11-1.32c.11-.76.26-1.51.39-2.26a.27.27,0,0,0,0-.2A3.69,3.69,0,0,1,6,15.51c-.07-.35-.12-.71-.16-1.07a.31.31,0,0,0-.19-.27c-.09,0-.16-.09-.25-.12a5.52,5.52,0,0,1-2.28-1.49c-.62-.6-1.22-1.24-1.8-1.88A1.84,1.84,0,0,1,.93,10,1.08,1.08,0,0,1,2.15,8.58l.36.08a2,2,0,0,1,0-2.2,1.92,1.92,0,0,1,2.1-.72C4.41,5,4.26,4.34,4.1,3.65L3.65,1.59l0,0L7.08,5c.08-.08.12-.1.15-.14a1.35,1.35,0,0,1,1.53-.43,3.69,3.69,0,0,1,1,.49,1.39,1.39,0,0,1,.56,1.2.58.58,0,0,0,.11.34A3,3,0,0,1,11,7.79a.48.48,0,0,0,0,.15l.44-.42,0,0c-.05-.38.27-.45.49-.6a.92.92,0,0,1,.76-.1,1.37,1.37,0,0,1,1,.86,3,3,0,0,1,.07,2.05,17.08,17.08,0,0,1-.87,2A4.49,4.49,0,0,1,12.32,12.53ZM9.93,18.41h.27a3.33,3.33,0,0,0,1.65-.72,1.26,1.26,0,0,0,.33-.32,4.51,4.51,0,0,0,.65-2,4.75,4.75,0,0,0-1.69-3.88.64.64,0,0,0-.24-.1c-.49-.09-1-.15-1.46-.27a1.67,1.67,0,0,0-.67,0,.33.33,0,0,0-.21.13,5.81,5.81,0,0,0-.4.61c-.12.22-.2.45-.32.67a2.61,2.61,0,0,1-.23.24,2.62,2.62,0,0,1-.22-.25c-.07-.09-.12-.18-.18-.27l-.06,0c0,.08.08.15.11.22a3,3,0,0,1,.36,1.71c0,.28-.11.54-.41.63a.75.75,0,0,1-.82-.19l-.24-.21a5.16,5.16,0,0,0,.59,2.33,8.67,8.67,0,0,1,.43-.79.58.58,0,0,1,.82-.2A3.55,3.55,0,0,1,9.93,18.41ZM9.53,9.8l0,0a1.91,1.91,0,0,0,.54-.25,2.14,2.14,0,0,0,.58-1,2.34,2.34,0,0,0-.86-2.35,4.47,4.47,0,0,0-2-.95,2.8,2.8,0,0,0-1,0,11.9,11.9,0,0,0-1.3.48.87.87,0,0,0-.59.5c-.09.23-.26.47-.53.45S4,6.85,3.94,7a3.87,3.87,0,0,0-.21.34.72.72,0,0,0-.07.75.76.76,0,0,1-.05.84c-.16.21-.15.21.08.36.61.41,1.22.81,1.81,1.24a6.91,6.91,0,0,1,.69.6A1.87,1.87,0,0,1,6.45,11c.45-.12.89-.22,1.33-.35a1.81,1.81,0,0,0,.35-.16,2.22,2.22,0,0,0-.31-.07A2.21,2.21,0,0,1,6.28,8,2.1,2.1,0,0,1,9,6.54a.35.35,0,0,0,.13,0c.35,0,.46,0,.58.37a.53.53,0,0,0,.06.1,1.88,1.88,0,0,1-.19,2.69Zm-3.14,11c0,.15,0,.38,0,.6a.43.43,0,0,0,.1.25,2.3,2.3,0,0,0,2,1c.74-.07,1-.25,1.23-1.07a1.58,1.58,0,0,0-.26-1.19,5.58,5.58,0,0,1-.35-.69A.46.46,0,0,1,9.24,19a1,1,0,0,0,.19-1.41,4.4,4.4,0,0,0-1.49-1.48c-.24-.14-.41-.13-.56.1A2.67,2.67,0,0,0,7,17,21.08,21.08,0,0,0,6.39,20.77ZM1.2,9.18a3.91,3.91,0,0,0-.08.5,1.17,1.17,0,0,0,.36.79c.77.79,1.54,1.6,2.34,2.35a4,4,0,0,0,1.2.79,5,5,0,0,1,1.61,1,.48.48,0,0,0,.22.12c.33.05.49-.11.52-.48a3,3,0,0,0-.46-1.73,7.36,7.36,0,0,0-2.22-2.26.2.2,0,0,0-.17,0,2.57,2.57,0,0,1-2.67-.48Zm15.41,8.07c-.1-.32-.22-.6-.29-.89a2.81,2.81,0,0,1-.08-.76c0-.56.05-1.12.12-1.68a.55.55,0,0,1,.49-.55.81.81,0,0,0-1,0,2.49,2.49,0,0,0-.44.42c-.2.24-.38.51-.57.76a1.14,1.14,0,0,1-1.25.46,4.19,4.19,0,0,1-.52-.15,5,5,0,0,1-.68,2.69A22.9,22.9,0,0,0,16.61,17.25ZM10,8.51A1.84,1.84,0,0,0,9.59,7.3,1.59,1.59,0,0,0,8,6.69,1.94,1.94,0,0,0,6.57,7.92a.8.8,0,0,0-.05.34,2.3,2.3,0,0,0,.73,1.59,1.14,1.14,0,0,0,.77.3A2.43,2.43,0,0,0,9.87,8.92Zm.72,1.09a3.5,3.5,0,0,1,.26.77,2.71,2.71,0,0,0,.56,1.14c.14.22.35.39.51.6s.18.13.26,0a2.44,2.44,0,0,0,.48-.59,16.23,16.23,0,0,0,.81-1.92,2.65,2.65,0,0,0-.07-1.9,1.13,1.13,0,0,0-.8-.69.72.72,0,0,0-.6.09,1.2,1.2,0,0,1,1.38,1,4.33,4.33,0,0,1,0,.88,1.06,1.06,0,0,1-.86,1,1,1,0,0,1-1.09-.25A4.9,4.9,0,0,1,11,9a2.09,2.09,0,0,1-.1-.21c-.08.16-.13.28-.2.41l-.24.38Zm-6-3.51a1.51,1.51,0,0,0-1-.12A1.55,1.55,0,0,0,2.45,7.14a2.16,2.16,0,0,0,.32,1.4c.16.25.37.36.53.29s.23-.3.13-.62-.15-.36-.2-.55a.89.89,0,0,1,.91-1.19C4.48,6.48,4.55,6.44,4.69,6.09Zm5.31,0C10,5.46,9.61,5,8.87,4.75A1.15,1.15,0,0,0,7.53,5c.38,0,.72.22,1.11.11a.56.56,0,0,1,.69.33C9.45,5.77,9.74,5.87,10,6.08ZM6.08,4.39l0,.12c-.15.39-.22.48-.61.41A.31.31,0,0,0,5.21,5a3.59,3.59,0,0,0-.38.4.17.17,0,0,0,0,.14s.09.09.12.08a2.28,2.28,0,0,0,.52-.1c.24-.09.47-.22.71-.32L6.69,5Zm4.36,5.48a2.53,2.53,0,0,0-1.08.34c-.43.24-.36.13-.21.58h.12l1.33-.34a.15.15,0,0,0,.07-.13C10.61,10.18,10.53,10.05,10.44,9.87Zm-5-6.28c-.1.15-.14.25-.21.33a1,1,0,0,1-.24.22c-.42.25-.44.29-.26.76,0,0,0,0,.05-.07.19-.29.19-.3.51-.2.14,0,.26,0,.35-.1a.66.66,0,0,0,.07-.61Zm1.27,7.68.11.33,1.34-.36-.17-.36Zm1,1.12L8,11.54l-.66.17-.22.1a1.15,1.15,0,0,0,.14.27A3.66,3.66,0,0,0,7.65,12.39ZM4.44,3.94A.8.8,0,0,0,5,3.35c0-.09-.15-.23-.24-.35s0,0,0,0c-.14.15-.26.28-.37.42a.15.15,0,0,0,0,.11C4.38,3.67,4.41,3.8,4.44,3.94ZM11,11.19c-.08-.16-.13-.27-.19-.37s-.12-.1-.17-.09c-.28.06-.56.14-.84.21a.71.71,0,0,0,.31.1Zm-2.09-.33-.09-.25-.61.1.14.38ZM4.23,2.94c.21-.26.19-.33-.12-.52a3.61,3.61,0,0,0,.08.38A.51.51,0,0,0,4.23,2.94Z"/><path d="M17.48,7.29l.87.26-.28.9-.87-.27Z"/><path d="M18.87,3.63,19,4.1l-.81.2-.12-.46Z"/><path d="M8,1.87l.48-.12.14.58-.47.11Z"/><path d="M15.3,5.3l.23.39L15,6l-.23-.4Z"/><path d="M13,3.16l-.51.28-.23-.39.5-.29Z"/><path d="M18,10.74l.23.4-.51.28-.23-.4Z"/><path d="M1.3,15.32l-.23-.4.5-.29L1.8,15Z"/><path d="M1.82,4l.5-.28.23.39-.5.29Z"/><path d="M10.18,3.41l.43-.24.23.41-.44.23Z"/><path d="M2.74,17.49,2.62,17l.45-.11.12.47Z"/><path d="M15.33,11l.12.47-.45.11-.12-.47Z"/><path d="M16.46,2.58l.06.28-.22.07-.07-.28Z"/><path d="M1.22,7.33l.06.28-.22.06L1,7.39Z"/><path d="M6.13,7.81a.36.36,0,0,1-.37.37.42.42,0,0,1-.38-.42.37.37,0,0,1,.36-.39A.42.42,0,0,1,6.13,7.81Z"/><path d="M8.5,17.52a2.5,2.5,0,0,1-.11.39c-.07.16-.22.16-.3,0a.85.85,0,0,1,0-.79c.08-.15.23-.15.3,0A2.5,2.5,0,0,1,8.5,17.52Z"/><path d="M7.93,8.77a1.09,1.09,0,0,1,.26,0,.21.21,0,0,0,.27-.11,1.78,1.78,0,0,0,.18-.43.38.38,0,0,0-.34-.45,1.43,1.43,0,0,1-.39-.15.31.31,0,0,1-.12-.18.22.22,0,0,1,.12-.15,4.27,4.27,0,0,1,.61-.18.52.52,0,0,1,.32.09s0,.18,0,.27A1.86,1.86,0,0,0,8.72,8a.47.47,0,0,0,.21.45c.16.08.29.22.48,0l0,.07-.16.29L9,8.64l-.26-.12-.16.23C8.39,9,8.21,9.05,7.93,8.77Z"/></g><path class="cls-4" d="M12.52,12.73a4.71,4.71,0,0,1,.73,1.86.25.25,0,0,0,.11.14,1.08,1.08,0,0,0,1.59-.3,9.53,9.53,0,0,1,.61-.81,1.24,1.24,0,0,1,2.07.14A3.72,3.72,0,0,1,18.25,16a1.65,1.65,0,0,1-1.57,1.77c-1.17.13-2.35.18-3.52.26a1.23,1.23,0,0,1-.47,0,.45.45,0,0,0-.45.12,3.33,3.33,0,0,1-2.11.82A.27.27,0,0,0,10,19a4.94,4.94,0,0,1-.36.44.23.23,0,0,0-.07.29,4.32,4.32,0,0,0,.3.61A1.89,1.89,0,0,1,9.38,23a1.5,1.5,0,0,1-1.29.3,2.19,2.19,0,0,1-1.75-2.15,8.52,8.52,0,0,1,.11-1.33c.11-.75.26-1.5.38-2.25a.23.23,0,0,0,0-.2,3.73,3.73,0,0,1-.62-1.66c-.07-.36-.12-.71-.16-1.07a.34.34,0,0,0-.19-.28l-.25-.11a5.46,5.46,0,0,1-2.28-1.49c-.62-.61-1.22-1.24-1.8-1.88a1.79,1.79,0,0,1-.39-.65A1.07,1.07,0,0,1,2.35,8.78l.36.08a2,2,0,0,1,0-2.21,1.92,1.92,0,0,1,2.1-.71c-.16-.72-.32-1.41-.47-2.09S4,2.48,3.84,1.79l.05,0L7.28,5.22l.15-.13A1.35,1.35,0,0,1,9,4.66a3.54,3.54,0,0,1,1,.49,1.38,1.38,0,0,1,.56,1.2.51.51,0,0,0,.11.34A3,3,0,0,1,11.18,8a.48.48,0,0,0,0,.15l.44-.42,0,0c0-.37.27-.44.49-.59a.9.9,0,0,1,.75-.1,1.39,1.39,0,0,1,1,.86A3,3,0,0,1,14,9.91a17.08,17.08,0,0,1-.87,2A4.87,4.87,0,0,1,12.52,12.73Zm-2.39,5.88h.08l.19,0a3.23,3.23,0,0,0,1.65-.71,1.68,1.68,0,0,0,.33-.32,4.54,4.54,0,0,0,.64-2,4.69,4.69,0,0,0-1.68-3.88.64.64,0,0,0-.24-.1c-.49-.09-1-.15-1.46-.28a1.94,1.94,0,0,0-.68,0,.34.34,0,0,0-.2.13,5.81,5.81,0,0,0-.4.61c-.12.22-.21.45-.33.67A1.29,1.29,0,0,1,7.8,13l-.21-.25c-.07-.09-.12-.18-.18-.27l-.06,0c0,.07.07.15.11.22a3,3,0,0,1,.36,1.71.65.65,0,0,1-.41.63.75.75,0,0,1-.82-.19l-.24-.21a5,5,0,0,0,.59,2.33,8.67,8.67,0,0,1,.43-.79.57.57,0,0,1,.81-.2A3.53,3.53,0,0,1,10.13,18.61ZM9.72,10l0,0a1.91,1.91,0,0,0,.54-.25,2.14,2.14,0,0,0,.58-1A2.32,2.32,0,0,0,10,6.47a4.42,4.42,0,0,0-2-1,2.54,2.54,0,0,0-1,0A10.28,10.28,0,0,0,5.67,6a.85.85,0,0,0-.58.5C5,6.73,4.83,7,4.55,7s-.31.1-.41.24a3.87,3.87,0,0,0-.21.34.72.72,0,0,0-.07.75.78.78,0,0,1,0,.84c-.16.21-.15.21.07.36.62.4,1.23.81,1.82,1.24a8.45,8.45,0,0,1,.69.59c.1-.05.18-.11.26-.14L8,10.82a1.81,1.81,0,0,0,.35-.16A1.48,1.48,0,0,0,8,10.59,2.21,2.21,0,0,1,6.48,8.18,2.1,2.1,0,0,1,9.17,6.74c.05,0,.1,0,.14,0,.34,0,.46,0,.58.37a.27.27,0,0,0,.06.1A1.88,1.88,0,0,1,9.76,10ZM6.59,21c0,.15,0,.38,0,.6a.43.43,0,0,0,.1.25,2.29,2.29,0,0,0,2,.95c.74-.06,1-.24,1.23-1.06a1.62,1.62,0,0,0-.26-1.19,5.64,5.64,0,0,1-.36-.69.49.49,0,0,1,.16-.62,1,1,0,0,0,.18-1.4,4.2,4.2,0,0,0-1.48-1.48c-.24-.14-.41-.13-.57.1a3,3,0,0,0-.35.74A20.1,20.1,0,0,0,6.59,21ZM1.4,9.38a3.91,3.91,0,0,0-.08.5,1.19,1.19,0,0,0,.36.79c.77.79,1.54,1.6,2.34,2.35a4.26,4.26,0,0,0,1.19.79,4.86,4.86,0,0,1,1.62,1,.39.39,0,0,0,.22.11c.32.06.49-.1.51-.47a2.92,2.92,0,0,0-.45-1.73,7.36,7.36,0,0,0-2.22-2.26.2.2,0,0,0-.17,0,2.56,2.56,0,0,1-2.67-.48Zm15.41,8.06a8.47,8.47,0,0,1-.3-.89,3.13,3.13,0,0,1-.07-.75c0-.56,0-1.13.11-1.68a.57.57,0,0,1,.5-.55.83.83,0,0,0-1-.05,3,3,0,0,0-.44.43c-.2.24-.38.5-.57.76a1.18,1.18,0,0,1-1.25.46A3.75,3.75,0,0,1,13.3,15a4.92,4.92,0,0,1-.69,2.69A23,23,0,0,0,16.81,17.44ZM10.16,8.7a1.78,1.78,0,0,0-.37-1.2,1.56,1.56,0,0,0-1.6-.61A1.92,1.92,0,0,0,6.76,8.12a1,1,0,0,0,0,.34A2.26,2.26,0,0,0,7.45,10a1.13,1.13,0,0,0,.77.31,2.42,2.42,0,0,0,1.85-1.24C10.11,9,10.14,8.79,10.16,8.7Zm.73,1.1a3.88,3.88,0,0,1,.26.77,2.65,2.65,0,0,0,.56,1.14,5.67,5.67,0,0,0,.51.59c.09.12.17.13.26,0a2.65,2.65,0,0,0,.48-.58,17,17,0,0,0,.81-1.92,2.65,2.65,0,0,0-.07-1.9,1.15,1.15,0,0,0-.8-.69.72.72,0,0,0-.6.09,1.2,1.2,0,0,1,1.38,1,3.7,3.7,0,0,1,0,.88,1,1,0,0,1-.86,1A1,1,0,0,1,11.71,10a5.69,5.69,0,0,1-.51-.74A2.09,2.09,0,0,1,11.1,9c-.08.15-.14.28-.2.41l-.24.38Zm-6-3.51a1.48,1.48,0,0,0-1-.12A1.53,1.53,0,0,0,2.65,7.34,2.06,2.06,0,0,0,3,8.73c.16.26.37.37.53.3s.23-.31.13-.62-.15-.36-.2-.55a.89.89,0,0,1,.91-1.19C4.68,6.68,4.74,6.64,4.88,6.29Zm5.32,0c0-.62-.39-1.06-1.14-1.33a1.14,1.14,0,0,0-1.34.25c.39,0,.73.22,1.12.11a.56.56,0,0,1,.69.33C9.65,6,9.94,6.07,10.2,6.28ZM6.28,4.59l0,.12c-.15.38-.22.48-.61.41a.31.31,0,0,0-.21.06,3.59,3.59,0,0,0-.38.4.17.17,0,0,0,0,.14.16.16,0,0,0,.12.08,2.19,2.19,0,0,0,.51-.1c.25-.09.48-.22.72-.32l.54-.18Zm4.35,5.48a2.66,2.66,0,0,0-1.07.33c-.44.25-.36.14-.21.58l0,0h.09l1.33-.34a.17.17,0,0,0,.07-.13C10.8,10.38,10.73,10.24,10.63,10.07ZM5.58,3.79a2.54,2.54,0,0,1-.2.33,1,1,0,0,1-.24.22c-.43.25-.44.28-.26.76l0-.07c.19-.29.19-.3.51-.2.14,0,.26,0,.35-.1a.66.66,0,0,0,.07-.61Zm1.28,7.68L7,11.8l1.34-.36-.17-.37Zm1,1.12.39-.85-.66.17a1.47,1.47,0,0,0-.22.1.87.87,0,0,0,.14.27A3.66,3.66,0,0,0,7.85,12.59ZM4.64,4.14a.82.82,0,0,0,.54-.59c0-.09-.16-.23-.25-.35s0,0,0,0c-.14.16-.26.29-.37.43a.15.15,0,0,0,0,.11Zm6.53,7.25A3.24,3.24,0,0,0,11,11a.22.22,0,0,0-.17-.09l-.85.21a.8.8,0,0,0,.31.1Zm-2.08-.33L9,10.81l-.6.1.14.38ZM4.43,3.14c.21-.26.19-.33-.12-.52,0,.14.05.26.07.38S4.41,3.08,4.43,3.14Z"/><path class="cls-4" d="M17.68,7.49l.87.26-.28.9-.88-.27Z"/><path class="cls-4" d="M19.07,3.83l.12.47-.81.2L18.26,4Z"/><path class="cls-4" d="M8.2,2.06,8.68,2l.14.58-.47.11Z"/><path class="cls-4" d="M15.5,5.49l.23.4-.5.28L15,5.78Z"/><path class="cls-4" d="M13.2,3.35l-.51.29-.23-.39L13,3Z"/><path class="cls-4" d="M18.17,10.94l.23.4-.51.28-.23-.4Z"/><path class="cls-4" d="M1.5,15.52l-.23-.4.5-.29.23.39Z"/><path class="cls-4" d="M2,4.17l.5-.28.23.39-.5.28Z"/><path class="cls-4" d="M10.38,3.6l.43-.23.22.41L10.6,4Z"/><path class="cls-4" d="M2.94,17.69l-.12-.47.45-.12.12.48Z"/><path class="cls-4" d="M15.53,11.17l.12.47-.45.11-.12-.47Z"/><path class="cls-4" d="M16.65,2.78l.07.28-.22.07-.07-.28Z"/><path class="cls-4" d="M1.42,7.53l.05.28-.21.05-.07-.27Z"/><path class="cls-4" d="M6.33,8A.36.36,0,0,1,6,8.38.42.42,0,0,1,5.58,8a.37.37,0,0,1,.36-.39A.42.42,0,0,1,6.33,8Z"/><path class="cls-4" d="M8.7,17.72c0,.13-.06.27-.11.39s-.22.16-.3,0a.85.85,0,0,1,0-.79c.08-.15.23-.15.3,0S8.66,17.59,8.7,17.72Z"/><path class="cls-4" d="M8.13,9a1.09,1.09,0,0,1,.26,0,.21.21,0,0,0,.27-.11,2.3,2.3,0,0,0,.18-.43A.38.38,0,0,0,8.5,8a1.85,1.85,0,0,1-.39-.15A.27.27,0,0,1,8,7.68a.22.22,0,0,1,.12-.15,4.27,4.27,0,0,1,.61-.18A.49.49,0,0,1,9,7.44c.05,0,0,.18,0,.26a1.68,1.68,0,0,0-.13.46.46.46,0,0,0,.21.46c.16.08.29.22.48,0v.07L9.47,9l-.28-.14-.25-.12L8.78,9C8.58,9.23,8.41,9.24,8.13,9Z"/></g></g></svg>