<svg xmlns="http://www.w3.org/2000/svg" viewBox="0 0 38.55 24.66"><defs><style>.cls-1{isolation:isolate;}.cls-2{opacity:0.15;}.cls-2,.cls-3{mix-blend-mode:multiply;}.cls-4{fill:#fff;}</style></defs><title>convert-CUSTOMIZE-SVG-03</title><g class="cls-1"><g id="Layer_1" data-name="Layer 1"><g class="cls-2"><path d="M11.38,13.19a36.32,36.32,0,0,0-4.78,1.2c.3-.29.59-.58.89-.85A5.85,5.85,0,0,1,10,12.17a4.46,4.46,0,0,1,1.89,0c.24.05.34,0,.44-.22a3.09,3.09,0,0,0,.09-.31A1.86,1.86,0,0,0,12,11.6l-2.9.1-1.16.07c-.15,0-.33,0-.38-.16a.71.71,0,0,1,0-.5,5.81,5.81,0,0,0,.71-1.84.5.5,0,0,0,0-.12,1,1,0,0,1,1-1,1.52,1.52,0,0,1,1.38.49l2,2.32s.05.07.05.08l.37-.13a.26.26,0,0,0,.09-.09,9.42,9.42,0,0,0,1.61-3.49,3.88,3.88,0,0,0,0-1.76,3,3,0,0,0-1.83-1.9A2.91,2.91,0,0,0,9.9,4,10.15,10.15,0,0,0,8,5.84c-.29.34-.59.68-.91,1a1.17,1.17,0,0,1-1.7.08A2.22,2.22,0,0,1,4.71,6a.3.3,0,0,1,0-.21A11.69,11.69,0,0,1,8.53,2a5.93,5.93,0,0,1,3.3-.87,6.2,6.2,0,0,1,4.78,2.39,4.27,4.27,0,0,1,.83,3.06,11,11,0,0,1-1.87,4.93c-.18.29-.38.57-.58.86l.24.21-.22.24c.29.23.58.45.86.69.73.6,1.47,1.21,2.19,1.82a2.05,2.05,0,0,1,.36.42c.11.16.06.28-.14.31s-.22,0-.32,0a1.71,1.71,0,0,0-.56.14,2.62,2.62,0,0,0-1,1.16,5.62,5.62,0,0,1-.38.78c-.17.29-.31.28-.46,0a10.67,10.67,0,0,1-1.22-4,6,6,0,0,1,.06-.94.79.79,0,0,0-.14.13c-.77,1-1.58,1.95-2.29,3a13.71,13.71,0,0,0-1.08,2.17,8.89,8.89,0,0,0-.77,2.82,2.91,2.91,0,0,0,.66,2.34l-.35-.19-.05.87a1.28,1.28,0,0,1-.67-.51,2.72,2.72,0,0,1-.45-1.54,8.58,8.58,0,0,1,.48-2.88c0-.08.05-.15.07-.22a.26.26,0,0,0,0-.07l-.82,1.06-2.36,3a.43.43,0,0,1-.28.15,1.4,1.4,0,0,1-1.66-1.24.4.4,0,0,1,.07-.3c2.16-2.81,4.34-5.62,6.51-8.43ZM15,7.71,14.55,9a.2.2,0,0,0,.06.14,2.8,2.8,0,0,0,1.12.7c.4.11.41.11.57-.25s.4-1,.62-1.54A3,3,0,0,1,15,7.71Zm.09-2.77.51,0a1.93,1.93,0,0,0,1-.41.23.23,0,0,0,.06-.19A4,4,0,0,0,15.7,3a.23.23,0,0,0-.2,0,2.76,2.76,0,0,0-1,.9c-.22.36-.22.38,0,.72,0,0,0,0,.06.08A.42.42,0,0,0,15.12,4.94ZM9.4,1.9a6.55,6.55,0,0,0-1.54.9s-.07.1-.05.13A2.35,2.35,0,0,0,8.94,4.24a.21.21,0,0,0,.19,0c.33-.23.66-.48,1-.72A2.94,2.94,0,0,1,9.4,1.9ZM6.63,19.81l-1,1.29a.2.2,0,0,0,0,.15,2.42,2.42,0,0,0,1.22.94.18.18,0,0,0,.24-.08c.28-.37.57-.74.86-1.1L8,20.86A3,3,0,0,1,6.63,19.81Zm.54-.7a2.51,2.51,0,0,0,1.27,1A.17.17,0,0,0,8.68,20l.42-.53.54-.71a3.1,3.1,0,0,1-1.41-1.06Zm8.58-8.42a3,3,0,0,1-1.61-.83c-.27.41-.53.82-.79,1.23a.24.24,0,0,0,.05.19c.31.5.91.58,1.35,1Zm-.61-4.87c0,.31,0,.6,0,.9a.23.23,0,0,0,.1.16,2.64,2.64,0,0,0,1.48.35c.34,0,.38-.07.41-.4a1.79,1.79,0,0,1,0-.23,4.34,4.34,0,0,0-.08-1.29A3.21,3.21,0,0,1,15.14,5.82ZM7.07,3.43,6,4.6A2.7,2.7,0,0,0,7.4,5.76c.08,0,.21,0,.25,0,.25-.25.48-.53.73-.81A3,3,0,0,1,7.07,3.43ZM9.8,15.71,8.77,17A2.47,2.47,0,0,0,10,18a.22.22,0,0,0,.2-.05c.22-.47.42-.95.61-1.39ZM12.28,1.46a5.45,5.45,0,0,0-2,.15,2.39,2.39,0,0,0,.66,1.47.32.32,0,0,0,.19.1l.75-.08A3,3,0,0,1,12.28,1.46Zm1,.14a2.83,2.83,0,0,0-.5,1.4c0,.11,0,.28.1.32a8.49,8.49,0,0,0,.8.39,3,3,0,0,1,1.25-1.4Zm-1.82,12L10.35,15l.91.86,1-1.44Zm-6-8.27L5,5.89A.19.19,0,0,0,5,6a1.71,1.71,0,0,0,.77.82.81.81,0,0,0,1.11-.31A3.2,3.2,0,0,1,5.4,5.36ZM5,21.84c0,.14-.13.23-.11.31a1.13,1.13,0,0,0,1.21,1,.27.27,0,0,0,.3-.22A3,3,0,0,1,5,21.84ZM13.48,13c-.1,0-.19-.12-.27-.11l-1.15.18.73.68Zm.43.29c-.17,0-.47.44-.53.68Z"/><path d="M6.45,14.55a9.07,9.07,0,0,1-1.69,1.7,2,2,0,0,1-2.91-.33,3.86,3.86,0,0,1-.8-1.32l.37.23.11-.67.45.61a6.11,6.11,0,0,0,.51.63,1.24,1.24,0,0,0,1.4.36,8.34,8.34,0,0,0,1-.51c.5-.25,1-.51,1.47-.77Z"/><path d="M11.58,13.39a36,36,0,0,0-4.79,1.19c.3-.28.59-.57.9-.84a5.69,5.69,0,0,1,2.5-1.37,4.41,4.41,0,0,1,1.88,0c.25,0,.34,0,.44-.22s.06-.19.1-.31a1.93,1.93,0,0,0-.45-.06l-2.9.1L8.1,12c-.16,0-.34,0-.38-.15a.71.71,0,0,1,0-.5,5.81,5.81,0,0,0,.71-1.84.51.51,0,0,0,0-.13,1,1,0,0,1,1-1,1.52,1.52,0,0,1,1.38.49c.66.77,1.31,1.55,2,2.32l.06.07a3.19,3.19,0,0,0,.37-.13.18.18,0,0,0,.09-.08A9.48,9.48,0,0,0,15,7.54a3.74,3.74,0,0,0,0-1.76,3,3,0,0,0-1.83-1.9,2.91,2.91,0,0,0-3,.34A9.84,9.84,0,0,0,8.16,6c-.3.34-.59.68-.91,1a1.17,1.17,0,0,1-1.7.08,2.22,2.22,0,0,1-.64-.88.3.3,0,0,1,0-.21,11.75,11.75,0,0,1,3.8-3.82A6,6,0,0,1,12,1.34a6.2,6.2,0,0,1,4.78,2.39,4.22,4.22,0,0,1,.82,3.06,10.8,10.8,0,0,1-1.86,4.92c-.19.3-.38.58-.58.87l.24.21-.22.24.85.68,2.2,1.83a1.82,1.82,0,0,1,.36.42c.11.16.05.28-.14.31s-.22,0-.32,0a2,2,0,0,0-.56.15,2.62,2.62,0,0,0-1.05,1.16,6.23,6.23,0,0,1-.38.78c-.17.28-.31.28-.46,0a10.87,10.87,0,0,1-1.23-4,7.57,7.57,0,0,1,.07-.94.79.79,0,0,0-.14.13c-.77,1-1.59,1.95-2.29,3A13.2,13.2,0,0,0,11,18.73a8.69,8.69,0,0,0-.77,2.83,2.87,2.87,0,0,0,.66,2.34l-.35-.19-.05.87a1.28,1.28,0,0,1-.67-.51,2.64,2.64,0,0,1-.45-1.54,8.58,8.58,0,0,1,.48-2.88l.06-.23s0,0,0-.06l-.82,1.06-2.36,3a.43.43,0,0,1-.28.15A1.41,1.41,0,0,1,4.8,22.37a.45.45,0,0,1,.07-.3l6.52-8.43Zm3.65-5.48c-.16.44-.33.86-.48,1.29a.22.22,0,0,0,.06.14,2.8,2.8,0,0,0,1.12.7c.39.11.41.11.57-.26s.4-1,.61-1.53A3.05,3.05,0,0,1,15.23,7.91Zm.09-2.77.51,0a1.93,1.93,0,0,0,1-.41.25.25,0,0,0,.06-.2,4,4,0,0,0-1-1.32.23.23,0,0,0-.2,0,2.76,2.76,0,0,0-1,.9c-.23.35-.22.38,0,.72a.24.24,0,0,1,.06.08A.42.42,0,0,0,15.32,5.14ZM9.6,2.1A6.88,6.88,0,0,0,8.06,3S8,3.1,8,3.13A2.32,2.32,0,0,0,9.14,4.44a.21.21,0,0,0,.19,0c.33-.23.65-.48,1-.72A3,3,0,0,1,9.6,2.1ZM6.83,20l-1,1.3a.2.2,0,0,0,0,.15A2.45,2.45,0,0,0,7,22.39a.19.19,0,0,0,.25-.08l.85-1.11a.67.67,0,0,0,.09-.14A3,3,0,0,1,6.83,20Zm.54-.69a2.49,2.49,0,0,0,1.26,1,.18.18,0,0,0,.25-.08l.41-.54.55-.7a3,3,0,0,1-1.41-1.06ZM16,10.89a3,3,0,0,1-1.61-.83c-.27.41-.54.82-.79,1.23a.24.24,0,0,0,0,.19c.31.5.91.58,1.35.95ZM15.34,6c0,.31,0,.6,0,.9a.23.23,0,0,0,.1.16,2.64,2.64,0,0,0,1.48.35c.34,0,.38-.07.41-.4a1.79,1.79,0,0,1,0-.23,4.42,4.42,0,0,0-.08-1.3A3.15,3.15,0,0,1,15.34,6ZM7.26,3.63,6.17,4.8A2.75,2.75,0,0,0,7.6,6c.08,0,.21,0,.25,0,.25-.25.48-.53.73-.81A3,3,0,0,1,7.26,3.63ZM10,15.91,9,17.24a2.47,2.47,0,0,0,1.24,1,.22.22,0,0,0,.2,0c.22-.47.42-1,.61-1.39ZM12.48,1.66a5.23,5.23,0,0,0-2,.15,2.4,2.4,0,0,0,.65,1.47.3.3,0,0,0,.2.09c.24,0,.49,0,.75-.07A2.9,2.9,0,0,1,12.48,1.66Zm.95.14a2.74,2.74,0,0,0-.5,1.4c0,.11,0,.28.09.32a8.68,8.68,0,0,0,.81.39,3.08,3.08,0,0,1,1.24-1.4Zm-1.82,12-1.06,1.38.9.86,1-1.44Zm-6-8.28c-.13.19-.26.36-.37.54a.19.19,0,0,0,0,.15A1.75,1.75,0,0,0,6,7.06a.79.79,0,0,0,1.1-.31A3.14,3.14,0,0,1,5.6,5.55ZM5.21,22c0,.13-.13.23-.11.31a1.13,1.13,0,0,0,1.21,1,.27.27,0,0,0,.3-.22A3,3,0,0,1,5.21,22Zm8.47-8.85c-.1,0-.19-.12-.27-.11-.36,0-.72.11-1.15.18l.73.68Zm.43.29c-.17,0-.48.44-.53.68Z"/><path d="M6.65,14.75A9.38,9.38,0,0,1,5,16.45a2,2,0,0,1-2.91-.33,3.86,3.86,0,0,1-.8-1.32l.37.23.11-.67.45.61c.16.21.32.43.5.63A1.26,1.26,0,0,0,4.09,16a10,10,0,0,0,1-.51l1.47-.78Z"/></g><g class="cls-3"><path d="M11.24,13.05a36,36,0,0,0-4.79,1.19c.3-.28.59-.57.9-.84A5.69,5.69,0,0,1,9.85,12a4.41,4.41,0,0,1,1.88,0c.25,0,.34,0,.44-.22s.06-.19.1-.31a1.93,1.93,0,0,0-.45-.06l-2.9.1-1.16.06c-.16,0-.34,0-.38-.15a.71.71,0,0,1,0-.5,5.81,5.81,0,0,0,.71-1.84.51.51,0,0,0,0-.13,1,1,0,0,1,1-1,1.52,1.52,0,0,1,1.38.49c.66.77,1.31,1.55,2,2.32l.06.07.37-.13a.18.18,0,0,0,.09-.08,9.64,9.64,0,0,0,1.6-3.49,3.74,3.74,0,0,0,0-1.76,3,3,0,0,0-1.83-1.9,2.91,2.91,0,0,0-3,.34A9.84,9.84,0,0,0,7.82,5.7c-.3.34-.59.68-.91,1a1.17,1.17,0,0,1-1.7.08,2.22,2.22,0,0,1-.64-.88.3.3,0,0,1,0-.21,11.75,11.75,0,0,1,3.8-3.82A6,6,0,0,1,11.69,1a6.2,6.2,0,0,1,4.78,2.39,4.21,4.21,0,0,1,.82,3.05,10.79,10.79,0,0,1-1.86,4.93c-.19.3-.38.58-.58.87l.24.21-.22.24.85.68,2.2,1.83a1.82,1.82,0,0,1,.36.42c.11.16,0,.28-.15.31s-.21,0-.31,0a2,2,0,0,0-.56.15,2.62,2.62,0,0,0-1.05,1.16,6.23,6.23,0,0,1-.38.78c-.17.28-.31.28-.46,0a10.87,10.87,0,0,1-1.23-4,7.57,7.57,0,0,1,.07-.94.79.79,0,0,0-.14.13c-.77,1-1.59,1.95-2.29,3a13.2,13.2,0,0,0-1.08,2.16,8.69,8.69,0,0,0-.77,2.83,2.87,2.87,0,0,0,.66,2.34l-.35-.19-.05.87a1.28,1.28,0,0,1-.67-.51,2.64,2.64,0,0,1-.45-1.54,8.58,8.58,0,0,1,.48-2.88l.06-.23s0,0,0-.06l-.82,1.06-2.36,3a.43.43,0,0,1-.28.15A1.41,1.41,0,0,1,4.46,22a.45.45,0,0,1,.07-.3l6.52-8.43Zm3.65-5.48c-.16.44-.33.86-.48,1.29a.22.22,0,0,0,.06.14,2.73,2.73,0,0,0,1.12.7c.39.11.41.11.57-.26s.4-1,.61-1.53A3.05,3.05,0,0,1,14.89,7.57ZM15,4.8l.51,0a1.93,1.93,0,0,0,1-.41.25.25,0,0,0,.06-.2,4,4,0,0,0-1-1.32.23.23,0,0,0-.2,0,2.76,2.76,0,0,0-1,.9c-.23.35-.22.38,0,.71a.47.47,0,0,1,.06.09A.42.42,0,0,0,15,4.8Zm-5.72-3a6.88,6.88,0,0,0-1.54.89s-.07.11,0,.14A2.32,2.32,0,0,0,8.8,4.1a.21.21,0,0,0,.19,0l1-.72A3,3,0,0,1,9.26,1.76ZM6.49,19.66l-1,1.3a.2.2,0,0,0,0,.15,2.45,2.45,0,0,0,1.21.94A.19.19,0,0,0,6.94,22l.85-1.11a.67.67,0,0,0,.09-.14A3,3,0,0,1,6.49,19.66ZM7,19a2.49,2.49,0,0,0,1.26,1,.18.18,0,0,0,.25-.08L9,19.36l.55-.7A3,3,0,0,1,8.09,17.6Zm8.58-8.42A3,3,0,0,1,14,9.72c-.27.41-.54.82-.79,1.23a.24.24,0,0,0,0,.19c.31.5.91.58,1.35.95ZM15,5.68c0,.31,0,.6,0,.9a.23.23,0,0,0,.1.16,2.64,2.64,0,0,0,1.48.35c.34,0,.38-.07.41-.4a1.79,1.79,0,0,1,0-.23,4.42,4.42,0,0,0-.08-1.3A3.15,3.15,0,0,1,15,5.68ZM6.92,3.29,5.83,4.46A2.75,2.75,0,0,0,7.26,5.62c.08,0,.21,0,.25,0,.25-.25.48-.53.73-.81A3,3,0,0,1,6.92,3.29ZM9.66,15.57l-1,1.33a2.47,2.47,0,0,0,1.24,1,.22.22,0,0,0,.2,0c.22-.47.42-1,.61-1.39ZM12.14,1.32a5,5,0,0,0-2,.15,2.4,2.4,0,0,0,.65,1.47A.3.3,0,0,0,11,3c.24,0,.49,0,.75-.07A2.9,2.9,0,0,1,12.14,1.32Zm.95.14a2.74,2.74,0,0,0-.5,1.4c0,.11,0,.28.09.32a8.68,8.68,0,0,0,.81.39,3.08,3.08,0,0,1,1.24-1.4Zm-1.82,12-1.06,1.38.9.86,1-1.44Zm-6-8.28c-.13.19-.26.36-.37.54a.19.19,0,0,0,0,.15,1.75,1.75,0,0,0,.77.82.79.79,0,0,0,1.1-.31A3.14,3.14,0,0,1,5.26,5.21ZM4.87,21.7c0,.13-.13.23-.11.31A1.13,1.13,0,0,0,6,23a.28.28,0,0,0,.3-.22A3,3,0,0,1,4.87,21.7Zm8.47-8.85c-.1,0-.19-.12-.27-.11-.36,0-.72.11-1.15.18l.73.68Zm.43.29c-.17,0-.48.44-.53.68Z"/><path d="M6.31,14.41a9.38,9.38,0,0,1-1.69,1.7,2,2,0,0,1-2.91-.33,3.86,3.86,0,0,1-.8-1.32l.37.23L1.39,14l.45.61c.16.21.32.43.5.63a1.26,1.26,0,0,0,1.41.36,10,10,0,0,0,1-.51l1.47-.78Z"/></g><path class="cls-4" d="M11.44,13.25a36,36,0,0,0-4.79,1.19c.3-.28.59-.57.9-.84A5.71,5.71,0,0,1,10,12.23a4.46,4.46,0,0,1,1.89,0c.25.05.34,0,.44-.22a1.79,1.79,0,0,0,.09-.32,2.37,2.37,0,0,0-.44-.05l-2.9.1L8,11.82c-.16,0-.34,0-.38-.15a.71.71,0,0,1,0-.5,5.91,5.91,0,0,0,.71-1.84s0-.09,0-.13a1,1,0,0,1,1-1,1.51,1.51,0,0,1,1.38.48c.66.77,1.31,1.55,2,2.33,0,0,0,.07.06.07l.37-.13s.06-.05.09-.08a9.64,9.64,0,0,0,1.6-3.49,3.74,3.74,0,0,0,0-1.76A3,3,0,0,0,13,3.74a2.93,2.93,0,0,0-3,.33A10.2,10.2,0,0,0,8,5.9c-.3.34-.59.68-.91,1A1.17,1.17,0,0,1,5.41,7a2.09,2.09,0,0,1-.64-.88.26.26,0,0,1,0-.21,11.75,11.75,0,0,1,3.8-3.82,6,6,0,0,1,3.31-.86,6.2,6.2,0,0,1,4.78,2.39,4.25,4.25,0,0,1,.82,3.05,10.79,10.79,0,0,1-1.86,4.93l-.58.86.24.21-.22.25.85.68,2.2,1.83a2,2,0,0,1,.36.41c.11.17.05.28-.15.32s-.21,0-.31,0a2,2,0,0,0-.56.15,2.62,2.62,0,0,0-1.05,1.16c-.12.26-.24.53-.38.78s-.32.28-.46,0a10.93,10.93,0,0,1-1.23-4,7.57,7.57,0,0,1,.07-.94.75.75,0,0,0-.14.12c-.77,1-1.59,2-2.29,3a12.81,12.81,0,0,0-1.08,2.16,8.7,8.7,0,0,0-.77,2.82,2.91,2.91,0,0,0,.65,2.35l-.34-.19-.06.86a1.28,1.28,0,0,1-.66-.5,2.73,2.73,0,0,1-.46-1.54,8.8,8.8,0,0,1,.49-2.88l.06-.23s0,0,0-.06L9,20.28c-.79,1-1.57,2-2.37,3a.41.41,0,0,1-.27.15,1.42,1.42,0,0,1-1.67-1.24.43.43,0,0,1,.07-.31l6.51-8.42Zm3.65-5.48q-.25.64-.48,1.29s0,.1.06.14a2.61,2.61,0,0,0,1.12.69c.39.12.41.12.57-.25s.4-1,.61-1.53A3.05,3.05,0,0,1,15.09,7.77ZM15.18,5l.51,0a2.13,2.13,0,0,0,1-.41.21.21,0,0,0,.05-.2,3.79,3.79,0,0,0-1-1.32.2.2,0,0,0-.2,0,2.85,2.85,0,0,0-1,.89c-.22.36-.22.39,0,.72a.47.47,0,0,1,.06.09A.42.42,0,0,0,15.18,5ZM9.46,2a7.18,7.18,0,0,0-1.55.89.2.2,0,0,0,0,.14A2.43,2.43,0,0,0,9,4.3a.25.25,0,0,0,.19,0l1-.72A3,3,0,0,1,9.46,2ZM6.69,19.86l-1,1.3a.2.2,0,0,0,0,.15,2.45,2.45,0,0,0,1.21.94.2.2,0,0,0,.25-.08L8,21.06l.09-.14A3,3,0,0,1,6.69,19.86Zm.54-.69a2.59,2.59,0,0,0,1.26,1,.19.19,0,0,0,.25-.08l.41-.54.55-.7a3,3,0,0,1-1.41-1.07Zm8.58-8.42a3,3,0,0,1-1.61-.84c-.27.42-.54.83-.79,1.24,0,0,0,.14,0,.19.32.5.92.57,1.36.94ZM15.2,5.87c0,.32,0,.61,0,.9a.23.23,0,0,0,.1.17,2.62,2.62,0,0,0,1.48.35c.34,0,.38-.07.4-.4l0-.23a4.79,4.79,0,0,0-.08-1.3A3.1,3.1,0,0,1,15.2,5.87ZM7.12,3.49,6,4.65A2.69,2.69,0,0,0,7.46,5.82c.08,0,.21,0,.25,0,.25-.26.48-.53.73-.81A3,3,0,0,1,7.12,3.49ZM9.86,15.77l-1,1.33a2.47,2.47,0,0,0,1.24,1c.06,0,.18,0,.2-.06.22-.47.42-.94.61-1.38ZM12.34,1.51a5.44,5.44,0,0,0-2,.15A2.41,2.41,0,0,0,11,3.14c.06,0,.13.1.2.09.24,0,.49,0,.75-.07A3,3,0,0,1,12.34,1.51Zm.95.15a2.71,2.71,0,0,0-.5,1.4c0,.11,0,.28.09.32a8.68,8.68,0,0,0,.81.39,3.1,3.1,0,0,1,1.24-1.41Zm-1.82,12L10.4,15.06l.91.87,1-1.44Zm-6-8.28c-.13.19-.26.36-.37.53a.22.22,0,0,0,0,.16,1.68,1.68,0,0,0,.77.81A.78.78,0,0,0,7,6.6,3.06,3.06,0,0,1,5.46,5.41ZM5.07,21.9c-.06.13-.13.23-.11.3a1.13,1.13,0,0,0,1.21,1,.28.28,0,0,0,.3-.23A2.92,2.92,0,0,1,5.07,21.9Zm8.46-8.85c-.1,0-.19-.12-.27-.11-.35,0-.71.11-1.14.18l.73.68Zm.44.29c-.17,0-.48.43-.53.68Z"/><path class="cls-4" d="M6.51,14.6a9.44,9.44,0,0,1-1.69,1.71A2,2,0,0,1,1.91,16a3.71,3.71,0,0,1-.8-1.32l.37.23.11-.68c.17.24.3.43.45.62s.32.43.5.63A1.24,1.24,0,0,0,4,15.81a8.27,8.27,0,0,0,1-.5l1.47-.78Z"/></g></g></svg>