<svg xmlns="http://www.w3.org/2000/svg" viewBox="0 0 38.55 24.66"><defs><style>.cls-1{isolation:isolate;}.cls-2{opacity:0.15;}.cls-2,.cls-3{mix-blend-mode:multiply;}.cls-4{fill:#fff;}</style></defs><title>convert-CUSTOMIZE-SVG-03</title><g class="cls-1"><g id="Layer_1" data-name="Layer 1"><g class="cls-2"><path d="M19.26,22.76v.29c-.5,0-1,.05-1.48.05a33.08,33.08,0,0,1-3.86-.28,16.14,16.14,0,0,0-1.84,0,.49.49,0,0,0-.23.08A5.61,5.61,0,0,1,5.73,23a1.22,1.22,0,0,0-.51-.09,13.68,13.68,0,0,0-3,0c-.24,0-.46.15-.7.21a1.13,1.13,0,0,1-.32,0l0-.08a1.48,1.48,0,0,1,.4-.27,6.35,6.35,0,0,1,1.14-.21c.78,0,1.56,0,2.35,0h.13l-.32-.29a5.35,5.35,0,0,1-1.68-3.37,5.27,5.27,0,0,1,1.36-4.19,14.13,14.13,0,0,1,1.06-1,.53.53,0,0,0,.11-.21c.06-.26.11-.51.18-.76a.22.22,0,0,0-.1-.3A3,3,0,0,1,4.46,10.2c-.06-.53,0-1.08,0-1.62a.42.42,0,0,0-.07-.24A2.73,2.73,0,0,1,3.8,7.16a1.43,1.43,0,0,1,.39-1.38,2.31,2.31,0,0,1,2.06-.64A3.77,3.77,0,0,1,7,5.48a1.66,1.66,0,0,0,0-.16c.2-.66.41-1.31.6-2,.07-.21.1-.43.15-.64a1.92,1.92,0,0,1,.84-1,.35.35,0,0,1,.33,0c.4.17.78.36,1.16.56a1.09,1.09,0,0,1,.29.24.55.55,0,0,0,.42.2.52.52,0,0,1,.56.51.55.55,0,0,1-1.09.12c-.06-.26-.3-.17-.49-.31a6.87,6.87,0,0,0,.24,1.61,6.5,6.5,0,0,1,.24,1.08s0,.06,0,.1a3.25,3.25,0,0,1,.37-.3,1.4,1.4,0,0,1,1.06-.17A3.44,3.44,0,0,1,13,5.89a1.33,1.33,0,0,1,.64,1.35,2.48,2.48,0,0,1-.46,1.26.66.66,0,0,0-.12.45,5.13,5.13,0,0,1-.26,2,3.48,3.48,0,0,1-.79,1.3.27.27,0,0,0-.06.25,4.39,4.39,0,0,0,.27.47,4.74,4.74,0,0,1,.38.7c0,.1-.06.26-.12.43a5.7,5.7,0,0,1,1.84,4.18,5.47,5.47,0,0,1-2,4.24c.37,0,.68,0,1,0l1.8.18a18.64,18.64,0,0,0,4,.08ZM5.92,13.9,5.77,14A5.19,5.19,0,0,0,3.49,19a5.26,5.26,0,0,0,6.37,4.37A5.21,5.21,0,0,0,14,17.62a5.35,5.35,0,0,0-1.76-3.38.49.49,0,0,0-.24-.08,8.21,8.21,0,0,1-1-.05,3.49,3.49,0,0,0-1.64,0,6.16,6.16,0,0,1-2.1.06H6.83c.11,1.24-.06,2.15-.35,2.34l-.2-.31c-.2.14-.39.34-.64.12l-.17.23A.43.43,0,0,1,5.32,16c.1-.4.22-.8.34-1.2S5.82,14.24,5.92,13.9ZM7.11,6.16a7.83,7.83,0,0,0-1,.63,7.23,7.23,0,0,0-.84,1c-.11.14-.21.3-.32.46s-.16.2-.17.31a11.83,11.83,0,0,0,0,1.33,2.88,2.88,0,0,0,2.19,2.81,7.8,7.8,0,0,0,3.4.11A2.71,2.71,0,0,0,12.46,11a4.82,4.82,0,0,0,.32-1.95.7.7,0,0,0-.18-.53A1.69,1.69,0,0,1,12.37,8s0-.09,0-.11a11.77,11.77,0,0,0-1-1c-.36-.29-.78-.49-1.16-.76a.48.48,0,0,0-.27,0,2.56,2.56,0,0,1-.46.11c-.36,0-.72,0-1.08,0a5.94,5.94,0,0,0-.94.06C7.25,6.34,7.15,6.35,7.11,6.16ZM10,5.29a1.67,1.67,0,0,0,0-.29c-.06-.22-.17-.43-.21-.65C9.59,3.7,9.5,3.05,9.4,2.4c0,0,0-.07,0-.08C9.21,2.2,9,2.08,8.86,2a.09.09,0,0,0-.11,0,1.91,1.91,0,0,0-.65.81L7.77,3.92c-.12.43-.25.86-.36,1.24A3,3,0,0,0,10,5.29ZM7,5.9a1.22,1.22,0,0,0-1.1-.52,3.57,3.57,0,0,0-1,.26A1.46,1.46,0,0,0,4.6,8.12L4.78,8s0,0,0,0c-.45-.71-.46-1.07-.07-1.47A1.1,1.1,0,0,1,6.2,6.41Zm4.32.67a.75.75,0,0,1,.64-.32,1.06,1.06,0,0,1,.85,1.61c-.16.25-.13.36.12.57A2.39,2.39,0,0,0,13.35,7,.94.94,0,0,0,13,6.24a3,3,0,0,0-1.18-.59,1.06,1.06,0,0,0-1.26.45ZM9.75,2.33l-.09.07c0,.11,0,.29.1.32a1,1,0,0,0,.6.17l0-.07Z"/><path d="M16,4.29l2.59.92-.06.21L15.94,4.5c.21.44.39.82.58,1.2a.35.35,0,0,0,.18.1l1.06.37-.07.21-1-.35.44.94-.19.1-.48-1-.36,1L15.88,7c.12-.34.23-.67.36-1a.5.5,0,0,0,0-.46c-.16-.31-.3-.62-.47-1L14.8,7.16l-.21-.06.93-2.57-1.15.54s-.07.11-.1.17l-.39,1.08-.21-.08.37-1-1,.47-.1-.2,1-.47-1-.35,0-.19h.07l1,.35a.28.28,0,0,0,.2,0l1.13-.52L12.82,3.4l.06-.21,2.62.92c-.19-.4-.35-.75-.53-1.09,0,0-.11-.07-.18-.1l-1.06-.38.08-.2,1,.35-.5-1,.2-.1L15,2.62l.37-1,.21.06c-.13.36-.26.7-.37,1.05a.53.53,0,0,0,0,.33c.13.3.28.59.45.93l.93-2.57.21.08-.93,2.57,1.2-.56a.28.28,0,0,0,.11-.18c.13-.33.25-.67.38-1l.21.07-.35,1,1-.44.11.19-1,.49,1,.37-.07.2c-.36-.12-.71-.26-1.06-.36a.62.62,0,0,0-.38,0C16.7,4,16.39,4.12,16,4.29Z"/><path d="M2.9,12.19a2,2,0,0,0,.44-.3,2.09,2.09,0,0,0,.2-.5l.2.07-.11.36L4,11.67l.1.18-.38.2.37.15L4,12.4c-.35-.1-.69-.35-1,0l1.14.41L4.05,13l-1.14-.4-.05,0a1.53,1.53,0,0,0,.29.44,2,2,0,0,0,.54.21l-.08.2-.38-.12.16.35-.19.09L3,13.49l-.15.35-.2-.06c.11-.35.35-.69,0-1l-.42,1.13L2,13.81l.41-1.13c-.48,0-.54.42-.66.77l-.21-.06L1.66,13l-.38.16L1.18,13l.37-.19-.34-.15.06-.2c.35.13.69.31,1,0L1.14,12l.06-.2,1.16.4c0-.48-.43-.5-.75-.63l.06-.2.38.11-.18-.4L2.06,11l.21.41L2.42,11l.2.06c-.07.32-.35.64,0,1l.42-1.13.2.07-.4,1.13Z"/><path d="M17.08,16.63l.73-.33.09.2-.71.34.74.27-.07.2-.76-.25.34.7-.19.11-.36-.71-.27.73-.21-.07.26-.74L16,17.4l-.1-.18.72-.35-.75-.28.07-.2.76.26-.33-.71.19-.1.35.71.28-.73.2.06Z"/><path d="M9.43,16.09a2,2,0,0,1-.16.37.44.44,0,0,1-.74,0,.69.69,0,0,1-.09-.64.52.52,0,0,1,.45-.39.49.49,0,0,1,.47.36C9.39,15.87,9.4,16,9.43,16.09Z"/><path d="M9.4,18.45v0a.55.55,0,0,1-.52.6.6.6,0,0,1-.48-.65v0c0-.34.24-.57.51-.56A.56.56,0,0,1,9.4,18.45Z"/><path d="M9.43,20.89a3,3,0,0,1-.15.38.41.41,0,0,1-.73,0,1,1,0,0,1-.12-.55.48.48,0,0,1,.5-.47.55.55,0,0,1,.47.5v.12Z"/><path d="M10.62,9.66a2.15,2.15,0,0,1,.22,1.59,2,2,0,0,1-1.53,1.49A2.5,2.5,0,0,1,7,12.2a2,2,0,0,1-.44-2.36c0-.06,0-.13.08-.19h0a2.14,2.14,0,0,1,1.26-.81,3.42,3.42,0,0,1,1.62,0,2.2,2.2,0,0,1,1.14.79Zm-4,1.06a1.48,1.48,0,0,0,.44,1.19,2.22,2.22,0,0,0,2.8.26,1.67,1.67,0,0,0,.7-1.76A1.51,1.51,0,0,0,9.46,9.15a2.84,2.84,0,0,0-1.53,0A1.51,1.51,0,0,0,6.65,10.72Z"/><path d="M6.62,9.65c-.12.1-.23.22-.41.14A.43.43,0,0,1,6,9.38a.45.45,0,0,1,.22-.45.3.3,0,0,1,.41.14.68.68,0,0,1,0,.59Z"/><path d="M10.63,9.66a3,3,0,0,1,0-.41.36.36,0,0,1,.33-.35.37.37,0,0,1,.35.36c0,.06,0,.14,0,.18a1,1,0,0,1-.23.35c-.16.11-.28-.06-.41-.13Z"/><path d="M7.32,11.86l.23-.31c.12.07.21.14.31.21s.32.12.48-.07a.33.33,0,0,0-.11-.43l-.6-.5,0,0a1.63,1.63,0,0,1,.23-.29.37.37,0,0,1,.24-.12c.34,0,.69,0,1,0a.37.37,0,0,1,.42.24,1.06,1.06,0,0,0,.12.2c-.23.18-.43.37-.66.52a.3.3,0,0,0-.11.37c.05.11.19.17.3.24s.09,0,.13-.06l.38-.26.23.3c-.24.17-.47.34-.71.49A.22.22,0,0,1,9,12.29c-.39-.26-.39-.27-.79,0a.19.19,0,0,1-.26,0C7.76,12.15,7.55,12,7.32,11.86Z"/><path d="M19.46,23v.29c-.5,0-1,.05-1.48.05A33.08,33.08,0,0,1,14.12,23a16.14,16.14,0,0,0-1.84,0,.49.49,0,0,0-.23.08,5.61,5.61,0,0,1-6.12.08,1.25,1.25,0,0,0-.51-.09,13.09,13.09,0,0,0-3,0c-.24,0-.47.15-.7.21s-.21,0-.32,0l0-.08a1.48,1.48,0,0,1,.4-.27,5.58,5.58,0,0,1,1.14-.21c.78,0,1.56,0,2.34,0h.14l-.32-.29a5.39,5.39,0,0,1-.32-7.57,13.86,13.86,0,0,1,1-1,.43.43,0,0,0,.12-.22c.06-.25.1-.51.18-.75a.23.23,0,0,0-.1-.3A3,3,0,0,1,4.66,10.4a14.58,14.58,0,0,1,0-1.62.4.4,0,0,0-.07-.24A2.78,2.78,0,0,1,4,7.36,1.43,1.43,0,0,1,4.39,6a2.29,2.29,0,0,1,2.06-.64,4,4,0,0,1,.78.34s0-.09,0-.16c.2-.66.41-1.32.6-2,.06-.2.1-.42.15-.63a1.92,1.92,0,0,1,.84-1,.38.38,0,0,1,.33,0c.4.18.78.37,1.16.57a1.09,1.09,0,0,1,.29.24.56.56,0,0,0,.42.2.52.52,0,0,1,.56.51.55.55,0,0,1-.48.57.56.56,0,0,1-.62-.45c0-.26-.3-.17-.48-.31a6.87,6.87,0,0,0,.24,1.61,7.69,7.69,0,0,1,.24,1.08.87.87,0,0,1,0,.1,3.25,3.25,0,0,1,.37-.3A1.39,1.39,0,0,1,12,5.56a3.41,3.41,0,0,1,1.22.53,1.33,1.33,0,0,1,.64,1.35,2.57,2.57,0,0,1-.46,1.26.66.66,0,0,0-.12.45,5.15,5.15,0,0,1-.26,2,3.37,3.37,0,0,1-.8,1.3.34.34,0,0,0-.06.25c.07.16.18.31.27.47a4,4,0,0,1,.39.7c0,.1-.07.26-.12.43a5.62,5.62,0,0,1,1.83,4.18,5.39,5.39,0,0,1-1.94,4.23c.37,0,.68,0,1,0,.61.05,1.21.12,1.81.18a19.29,19.29,0,0,0,4,.08S19.42,23,19.46,23ZM6.12,14.09,6,14.17a5.19,5.19,0,0,0-2.28,5.07,5.26,5.26,0,0,0,6.37,4.37,5.21,5.21,0,0,0,4.12-5.79,5.4,5.4,0,0,0-1.76-3.38.49.49,0,0,0-.24-.08c-.33,0-.67,0-1,0a3.49,3.49,0,0,0-1.64-.05,6.17,6.17,0,0,1-2.1.06H7c.11,1.24-.06,2.15-.35,2.34l-.21-.31c-.19.14-.38.34-.64.12l-.16.22a.41.41,0,0,1-.15-.47c.1-.4.22-.8.33-1.2S6,14.44,6.12,14.09ZM7.31,6.36a7.56,7.56,0,0,0-1,.63,7.94,7.94,0,0,0-.83,1,3.76,3.76,0,0,0-.32.46c-.06.1-.16.2-.17.31a11.83,11.83,0,0,0,0,1.33,2.88,2.88,0,0,0,2.19,2.81,7.91,7.91,0,0,0,3.39.11,2.73,2.73,0,0,0,2.18-1.77,5,5,0,0,0,.32-2,.7.7,0,0,0-.18-.53,1.69,1.69,0,0,1-.23-.51s0-.09,0-.12c-.34-.33-.65-.69-1-1s-.78-.49-1.16-.76a.48.48,0,0,0-.27,0,2.66,2.66,0,0,1-.47.11c-.35,0-.71,0-1.07,0a5.86,5.86,0,0,0-.94.06C7.45,6.54,7.35,6.55,7.31,6.36Zm2.85-.87a1.67,1.67,0,0,0,0-.29c-.06-.22-.17-.43-.21-.66-.12-.64-.21-1.3-.31-1.95,0,0,0-.06,0-.07-.17-.13-.34-.24-.52-.36a.17.17,0,0,0-.12,0A2,2,0,0,0,8.3,3L8,4.12c-.12.43-.25.86-.37,1.23A3,3,0,0,0,10.16,5.49Zm-3,.61a1.22,1.22,0,0,0-1.11-.52,3.32,3.32,0,0,0-1,.26A1.45,1.45,0,0,0,4.8,8.31L5,8.19a.1.1,0,0,0,0,0c-.44-.7-.45-1.06-.06-1.46A1.11,1.11,0,0,1,6.4,6.6Zm4.32.67a.75.75,0,0,1,.64-.32A1.06,1.06,0,0,1,13,8.06c-.16.25-.13.36.12.57a2.39,2.39,0,0,0,.46-1.48,1,1,0,0,0-.36-.72A3.14,3.14,0,0,0,12,5.85a1,1,0,0,0-1.25.45ZM10,2.53l-.09.07c0,.11,0,.29.1.32a1,1,0,0,0,.6.17l0-.07Z"/><path d="M16.23,4.49l2.59.92-.07.21L16.14,4.7c.21.43.39.82.58,1.2a.32.32,0,0,0,.18.1L18,6.37l-.07.21-1-.35.44.94-.2.1-.47-1-.36,1-.21-.06c.12-.34.22-.67.36-1a.5.5,0,0,0,0-.46c-.16-.31-.3-.62-.48-1L15,7.36l-.21-.07.93-2.57-1.15.55c-.05,0-.08.11-.1.17l-.39,1.08-.21-.08.37-1-1,.46-.1-.19,1-.47-1-.35.06-.19h.07l1,.35a.28.28,0,0,0,.2,0l1.13-.52L13,3.59l.06-.21,2.62.92-.53-1.08c0-.05-.11-.07-.18-.1l-1.06-.38.08-.2,1,.35-.5-1,.2-.11.52,1.08.37-1,.21.06c-.13.36-.27.7-.37,1.05a.47.47,0,0,0,0,.33c.13.3.28.59.45.93l.93-2.57.21.07-.93,2.58,1.2-.57a.27.27,0,0,0,.11-.17c.13-.33.25-.67.38-1l.2.07-.34,1,.95-.44.11.19-1,.49,1,.37-.07.2C18.3,4.25,18,4.12,17.59,4a.67.67,0,0,0-.37,0C16.9,4.16,16.59,4.32,16.23,4.49Z"/><path d="M3.1,12.39a2,2,0,0,0,.44-.3,2.09,2.09,0,0,0,.2-.5l.2.07L3.83,12l.35-.14.1.18-.38.2.37.15-.07.2c-.35-.1-.68-.35-1,0L4.32,13l-.07.21-1.14-.4,0,0a1.45,1.45,0,0,0,.29.45,2.09,2.09,0,0,0,.53.21l-.07.19-.38-.11.16.35L3.4,14l-.19-.35L3.06,14,2.86,14c.11-.35.34-.69,0-1l-.42,1.14L2.2,14l.41-1.13c-.48,0-.54.42-.66.77l-.21-.07.12-.38-.38.16-.1-.18L1.74,13l-.33-.15.06-.2c.35.13.68.31,1,0L1.34,12.2,1.4,12l1.16.39c0-.47-.43-.49-.76-.62l.07-.2.38.11-.18-.4.19-.09.21.41.15-.36.2.06c-.07.32-.35.64,0,1l.42-1.13.2.07-.4,1.13Z"/><path d="M17.28,16.83,18,16.5l.1.19-.72.35.75.27-.07.2-.76-.25.34.7-.19.11-.36-.72-.27.74L16.61,18l.26-.74-.72.32-.1-.19.72-.34L16,16.79l.07-.2.76.26-.33-.71.19-.1.35.71.28-.73.2.06Z"/><path d="M9.62,16.29a1.48,1.48,0,0,1-.16.37.43.43,0,0,1-.73,0A.69.69,0,0,1,8.64,16a.51.51,0,0,1,.45-.39.49.49,0,0,1,.47.36A1.9,1.9,0,0,1,9.62,16.29Z"/><path d="M9.6,18.65v0a.54.54,0,0,1-.52.59.58.58,0,0,1-.48-.64v0c0-.34.25-.57.52-.56A.55.55,0,0,1,9.6,18.65Z"/><path d="M9.63,21.08a2.62,2.62,0,0,1-.15.39.43.43,0,0,1-.74,0,1,1,0,0,1-.11-.55.48.48,0,0,1,.5-.47.55.55,0,0,1,.47.5v.12Z"/><path d="M10.82,9.85a2.13,2.13,0,0,1,.21,1.6,2,2,0,0,1-1.52,1.49,2.48,2.48,0,0,1-2.33-.55A2,2,0,0,1,6.74,10c0-.06,0-.13.08-.19h0A2.07,2.07,0,0,1,8.06,9a3.33,3.33,0,0,1,1.63,0,2.18,2.18,0,0,1,1.14.79Zm-4,1.07a1.43,1.43,0,0,0,.44,1.19,2.21,2.21,0,0,0,2.8.26,1.68,1.68,0,0,0,.7-1.76A1.51,1.51,0,0,0,9.66,9.35a2.84,2.84,0,0,0-1.53,0A1.51,1.51,0,0,0,6.85,10.92Z"/><path d="M6.82,9.85c-.12.1-.23.22-.41.14a.43.43,0,0,1-.24-.41.46.46,0,0,1,.21-.45.31.31,0,0,1,.42.14.66.66,0,0,1,0,.58Z"/><path d="M10.83,9.86a2,2,0,0,1,0-.41.34.34,0,0,1,.33-.35c.18,0,.32.14.35.36,0,.06,0,.13,0,.18a.78.78,0,0,1-.24.34c-.16.12-.27-.05-.4-.13Z"/><path d="M7.52,12.05l.23-.31.31.22c.2.14.32.12.48-.07a.33.33,0,0,0-.11-.43l-.6-.5,0,0a2.1,2.1,0,0,1,.22-.3.47.47,0,0,1,.25-.11c.34,0,.69,0,1,0a.37.37,0,0,1,.42.23.92.92,0,0,0,.12.21c-.23.18-.43.36-.66.52a.29.29,0,0,0-.11.37c0,.1.19.17.3.24s.09,0,.12-.06.24-.17.38-.27l.24.31c-.24.17-.47.34-.71.49a.22.22,0,0,1-.18,0c-.39-.26-.39-.27-.79,0a.19.19,0,0,1-.26,0Z"/></g><g class="cls-3"><path d="M19.12,22.62v.29c-.5,0-1,.05-1.48.05a33.08,33.08,0,0,1-3.86-.28,16.14,16.14,0,0,0-1.84,0,.49.49,0,0,0-.23.08,5.61,5.61,0,0,1-6.12.08,1.25,1.25,0,0,0-.51-.09,13.09,13.09,0,0,0-3,0c-.24,0-.47.15-.7.21s-.21,0-.32,0l0-.08a1.48,1.48,0,0,1,.4-.27,5.58,5.58,0,0,1,1.14-.21c.78,0,1.56,0,2.34,0h.14l-.32-.29a5.39,5.39,0,0,1-.32-7.57,13.86,13.86,0,0,1,1-1,.43.43,0,0,0,.12-.22c.06-.25.1-.51.18-.75a.23.23,0,0,0-.1-.3,3,3,0,0,1-1.34-2.27,14.58,14.58,0,0,1,0-1.62.4.4,0,0,0-.07-.24A2.78,2.78,0,0,1,3.66,7a1.43,1.43,0,0,1,.39-1.38A2.29,2.29,0,0,1,6.11,5a4,4,0,0,1,.78.34s0-.09.05-.16c.2-.66.41-1.32.6-2,.06-.2.1-.42.15-.63a1.92,1.92,0,0,1,.84-1,.38.38,0,0,1,.33,0c.39.18.78.37,1.16.57a1.09,1.09,0,0,1,.29.24.56.56,0,0,0,.42.2.52.52,0,0,1,.56.5.55.55,0,0,1-1.1.13c0-.26-.3-.17-.48-.31A6.87,6.87,0,0,0,10,4.51a7.69,7.69,0,0,1,.24,1.08.87.87,0,0,1,0,.1,3.25,3.25,0,0,1,.37-.3,1.39,1.39,0,0,1,1.05-.17,3.41,3.41,0,0,1,1.22.53,1.33,1.33,0,0,1,.64,1.35A2.57,2.57,0,0,1,13,8.36a.66.66,0,0,0-.12.45,5.15,5.15,0,0,1-.26,2,3.37,3.37,0,0,1-.8,1.3.34.34,0,0,0-.06.25c.07.16.18.31.27.47a4,4,0,0,1,.39.7c0,.1-.07.26-.12.43a5.62,5.62,0,0,1,1.83,4.18,5.39,5.39,0,0,1-1.94,4.23c.37,0,.68,0,1,0,.61.05,1.21.12,1.81.18a19.29,19.29,0,0,0,4,.08S19.08,22.62,19.12,22.62ZM5.78,13.75l-.15.08A5.19,5.19,0,0,0,3.35,18.9a5.26,5.26,0,0,0,6.37,4.37,5.21,5.21,0,0,0,4.12-5.79,5.4,5.4,0,0,0-1.76-3.38.49.49,0,0,0-.24-.08c-.33,0-.67,0-1,0a3.49,3.49,0,0,0-1.64-.05A6.22,6.22,0,0,1,7.1,14H6.69c.11,1.24-.06,2.15-.35,2.34L6.13,16c-.19.14-.38.34-.64.12l-.16.22a.41.41,0,0,1-.15-.47c.1-.4.22-.8.33-1.2S5.68,14.1,5.78,13.75ZM7,6a7.56,7.56,0,0,0-1,.63,7.94,7.94,0,0,0-.83,1,3.76,3.76,0,0,0-.32.46c-.06.1-.16.2-.17.31a11.83,11.83,0,0,0-.05,1.33,2.88,2.88,0,0,0,2.19,2.81,7.91,7.91,0,0,0,3.39.11,2.73,2.73,0,0,0,2.18-1.77,5,5,0,0,0,.32-2,.7.7,0,0,0-.18-.53,1.69,1.69,0,0,1-.23-.51s0-.09,0-.12c-.34-.33-.65-.69-1-1S10.4,6.3,10,6a.48.48,0,0,0-.27,0,2.66,2.66,0,0,1-.47.11c-.35,0-.71,0-1.07,0a5.86,5.86,0,0,0-.94.06C7.11,6.2,7,6.21,7,6Zm2.85-.87a1.67,1.67,0,0,0,0-.29c-.06-.22-.17-.43-.21-.66-.12-.64-.21-1.3-.31-1.95,0,0,0-.06,0-.07-.17-.13-.34-.24-.52-.36a.17.17,0,0,0-.12,0A2,2,0,0,0,8,2.65L7.63,3.78c-.12.43-.25.86-.37,1.23A3,3,0,0,0,9.82,5.15Zm-3,.61a1.22,1.22,0,0,0-1.11-.52,3.32,3.32,0,0,0-1,.26A1.45,1.45,0,0,0,4.46,8l.17-.12a.1.1,0,0,0,0,0c-.44-.7-.45-1.06-.06-1.46a1.11,1.11,0,0,1,1.45-.08Zm4.32.67a.75.75,0,0,1,.64-.32,1.06,1.06,0,0,1,.85,1.61c-.16.25-.13.36.12.57a2.39,2.39,0,0,0,.46-1.48,1,1,0,0,0-.36-.72,3.14,3.14,0,0,0-1.19-.58A1.06,1.06,0,0,0,10.41,6ZM9.61,2.19l-.09.06c0,.12,0,.3.1.33a1,1,0,0,0,.6.17l0-.07Z"/><path d="M15.89,4.15l2.59.92-.07.21L15.8,4.36c.21.43.39.82.58,1.2,0,.05.11.07.18.1L17.62,6l-.07.21-1-.35.44.94-.2.1-.47-1-.36,1-.21-.06c.12-.34.22-.67.36-1a.5.5,0,0,0,0-.46c-.16-.31-.3-.62-.48-1L14.66,7,14.45,7l.93-2.57-1.15.55c-.05,0-.08.11-.1.17-.13.36-.26.71-.39,1.08l-.21-.08.37-1-1,.46-.1-.19,1-.47-1-.35.06-.19h.07l1,.35a.34.34,0,0,0,.2,0l1.13-.52-2.61-.93L12.74,3,15.36,4l-.53-1.08s-.11-.07-.18-.1L13.59,2.4l.08-.2,1,.35-.5-1,.2-.11.52,1.08.37-1,.21.06c-.13.36-.27.7-.37,1a.47.47,0,0,0,0,.33c.13.3.28.59.45.93L16.5,1.3l.21.07L15.78,4,17,3.38a.27.27,0,0,0,.11-.17c.13-.33.25-.67.38-1l.2.07-.34,1,1-.44.11.19-1,.48,1,.38-.07.2c-.36-.13-.71-.26-1.07-.37a.67.67,0,0,0-.37,0C16.56,3.82,16.25,4,15.89,4.15Z"/><path d="M2.76,12.05a2,2,0,0,0,.44-.3,2.09,2.09,0,0,0,.2-.5l.2.07-.11.35.35-.14.1.18-.38.2.37.15-.07.2c-.35-.1-.68-.35-1,0L4,12.68l-.07.21-1.14-.4,0,0A1.45,1.45,0,0,0,3,13a2.09,2.09,0,0,0,.53.21l-.07.19-.38-.11.16.35-.19.09-.19-.35-.15.35-.2-.06c.11-.35.34-.69,0-1l-.42,1.14-.21-.08.41-1.13c-.48,0-.54.42-.66.77l-.21-.07.12-.38L1.14,13,1,12.84l.36-.19-.33-.15.06-.2c.34.13.68.31,1,0L1,11.86l.06-.2,1.16.39c0-.47-.43-.49-.76-.62l.07-.2.38.11-.18-.4.19-.09.21.41.15-.36.2.06c-.07.32-.35.64,0,1l.42-1.13.2.07L2.71,12Z"/><path d="M16.94,16.49l.72-.33.1.19L17,16.7l.74.27-.06.2L17,16.91l.34.71-.19.11L16.75,17l-.28.74-.2-.07.26-.74-.72.32-.1-.19.72-.34-.75-.28.07-.2.75.26-.32-.71.19-.1.35.71.28-.73.2.06Z"/><path d="M9.28,16a1.66,1.66,0,0,1-.16.37.43.43,0,0,1-.73,0,.69.69,0,0,1-.09-.64.51.51,0,0,1,.45-.39.49.49,0,0,1,.47.36A1.9,1.9,0,0,1,9.28,16Z"/><path d="M9.26,18.31v0a.54.54,0,0,1-.52.59.58.58,0,0,1-.48-.64v0a.54.54,0,0,1,.52-.56A.55.55,0,0,1,9.26,18.31Z"/><path d="M9.29,20.74a2.62,2.62,0,0,1-.15.39.43.43,0,0,1-.74,0,1,1,0,0,1-.11-.55.48.48,0,0,1,.5-.47.55.55,0,0,1,.47.5v.12Z"/><path d="M10.48,9.51a2.13,2.13,0,0,1,.21,1.6A2,2,0,0,1,9.17,12.6a2.48,2.48,0,0,1-2.33-.55A2,2,0,0,1,6.4,9.7c0-.06,0-.13.08-.19h0A2.07,2.07,0,0,1,7.72,8.7a3.33,3.33,0,0,1,1.63,0,2.18,2.18,0,0,1,1.14.79Zm-4,1.07A1.43,1.43,0,0,0,7,11.77a2.21,2.21,0,0,0,2.8.26,1.68,1.68,0,0,0,.7-1.76A1.51,1.51,0,0,0,9.32,9,2.84,2.84,0,0,0,7.79,9,1.5,1.5,0,0,0,6.51,10.58Z"/><path d="M6.48,9.51c-.12.1-.23.22-.41.14a.43.43,0,0,1-.24-.41A.46.46,0,0,1,6,8.79a.31.31,0,0,1,.42.14.66.66,0,0,1,0,.58Z"/><path d="M10.49,9.52a2,2,0,0,1,0-.41.34.34,0,0,1,.33-.35.37.37,0,0,1,.35.36c0,.06,0,.13,0,.18a.78.78,0,0,1-.24.34c-.16.12-.27-.05-.4-.13Z"/><path d="M7.18,11.71l.23-.31.31.22c.2.14.32.12.48-.07a.33.33,0,0,0-.11-.43l-.6-.5,0,0a2.1,2.1,0,0,1,.22-.3.47.47,0,0,1,.25-.11c.34,0,.69,0,1,0a.37.37,0,0,1,.42.23.92.92,0,0,0,.12.21c-.23.18-.43.36-.66.52a.29.29,0,0,0-.11.37c0,.1.19.17.3.24s.09,0,.12-.06.24-.17.38-.27l.24.31c-.24.17-.47.34-.71.49a.22.22,0,0,1-.18,0c-.39-.26-.4-.27-.79,0a.19.19,0,0,1-.26,0Z"/></g><path class="cls-4" d="M19.32,22.82v.29c-.5,0-1,.05-1.49.05A35.41,35.41,0,0,1,14,22.88a16.14,16.14,0,0,0-1.84,0,.49.49,0,0,0-.23.08A5.63,5.63,0,0,1,5.78,23a1.17,1.17,0,0,0-.5-.09,13.09,13.09,0,0,0-3,0,5.64,5.64,0,0,0-.7.21c-.1,0-.21,0-.32,0l0-.09a1.45,1.45,0,0,1,.4-.26,4.88,4.88,0,0,1,1.14-.21c.78,0,1.56,0,2.34,0h.14l-.32-.29a5.39,5.39,0,0,1-.32-7.57,12.06,12.06,0,0,1,1-1,.46.46,0,0,0,.11-.22c.07-.25.11-.51.19-.76a.22.22,0,0,0-.1-.29,3,3,0,0,1-1.35-2.27c0-.54,0-1.08,0-1.62a.4.4,0,0,0-.07-.24,2.92,2.92,0,0,1-.59-1.18,1.43,1.43,0,0,1,.4-1.38A2.29,2.29,0,0,1,6.31,5.2a3.7,3.7,0,0,1,.78.34s0-.09,0-.16l.6-2c.06-.21.1-.42.15-.63a1.9,1.9,0,0,1,.83-1,.4.4,0,0,1,.34,0l1.16.56a1.61,1.61,0,0,1,.28.24.57.57,0,0,0,.42.21.53.53,0,0,1,.57.5.55.55,0,0,1-1.1.13c-.05-.26-.3-.17-.48-.32a7,7,0,0,0,.24,1.62,9.41,9.41,0,0,1,.24,1.08.87.87,0,0,1,0,.1,4.39,4.39,0,0,1,.36-.3,1.37,1.37,0,0,1,1.06-.17A3.41,3.41,0,0,1,13.05,6a1.34,1.34,0,0,1,.64,1.35,2.64,2.64,0,0,1-.46,1.26A.71.71,0,0,0,13.1,9a4.92,4.92,0,0,1-.25,2,3.34,3.34,0,0,1-.8,1.31.32.32,0,0,0-.06.25c.07.16.18.31.27.47a4.33,4.33,0,0,1,.39.69c0,.11-.07.27-.12.44a5.62,5.62,0,0,1,1.83,4.18,5.39,5.39,0,0,1-1.94,4.23c.37,0,.68,0,1,0,.61,0,1.21.12,1.81.18a19.21,19.21,0,0,0,4,.08A.33.33,0,0,1,19.32,22.82ZM6,14,5.83,14A5.18,5.18,0,0,0,3.55,19.1a5.25,5.25,0,0,0,6.37,4.37A5.22,5.22,0,0,0,14,17.67a5.4,5.4,0,0,0-1.76-3.37.41.41,0,0,0-.24-.08c-.33,0-.67,0-1-.05a3.63,3.63,0,0,0-1.64-.06,6.22,6.22,0,0,1-2.11.07H6.89c.11,1.24-.06,2.15-.36,2.34l-.2-.31c-.2.14-.38.34-.64.12l-.16.22a.43.43,0,0,1-.16-.47c.11-.41.23-.8.34-1.2S5.88,14.3,6,14ZM7.17,6.22a6.69,6.69,0,0,0-1,.63,7.72,7.72,0,0,0-.83,1A4.87,4.87,0,0,0,5,8.29c-.06.1-.16.2-.17.31a9.86,9.86,0,0,0,0,1.33A2.85,2.85,0,0,0,7,12.73a7.76,7.76,0,0,0,3.39.12,2.73,2.73,0,0,0,2.18-1.77,5,5,0,0,0,.32-1.95.71.71,0,0,0-.19-.54,1.76,1.76,0,0,1-.22-.5s0-.09,0-.12a13.19,13.19,0,0,0-1-1c-.36-.29-.78-.5-1.16-.76a.41.41,0,0,0-.27,0,2.66,2.66,0,0,1-.47.11c-.36,0-.71,0-1.07,0a7.3,7.3,0,0,0-.94.07C7.31,6.4,7.21,6.41,7.17,6.22ZM10,5.34a1.57,1.57,0,0,0,0-.28,5.06,5.06,0,0,1-.21-.66c-.12-.65-.21-1.3-.31-1.95a.12.12,0,0,0,0-.08c-.17-.12-.34-.24-.52-.35A.16.16,0,0,0,8.8,2a1.94,1.94,0,0,0-.65.82c-.1.37-.21.75-.32,1.13s-.25.85-.37,1.23A3,3,0,0,0,10,5.34ZM7,6a1.2,1.2,0,0,0-1.11-.52,3.65,3.65,0,0,0-1,.25,1.46,1.46,0,0,0-.28,2.48l.17-.12a.1.1,0,0,0,0-.05c-.44-.7-.46-1.07-.06-1.46a1.09,1.09,0,0,1,1.45-.08Zm4.32.67A.75.75,0,0,1,12,6.31a1.06,1.06,0,0,1,.85,1.61c-.15.25-.13.36.13.57A2.42,2.42,0,0,0,13.41,7,1,1,0,0,0,13,6.29a3.05,3.05,0,0,0-1.18-.59,1.06,1.06,0,0,0-1.25.45ZM9.81,2.39l-.09.06c0,.12,0,.29.1.33a1,1,0,0,0,.6.17l0-.07Z"/><path class="cls-4" d="M16.08,4.35l2.6.92-.07.21L16,4.56c.21.43.39.82.58,1.19,0,.06.11.08.18.11l1.06.37-.07.21-1-.35.45.94-.2.1-.47-1-.36,1-.21-.06c.12-.34.22-.67.36-1a.48.48,0,0,0,0-.45c-.16-.31-.3-.62-.48-1l-.93,2.56-.21-.07.93-2.57c-.42.2-.79.36-1.15.55,0,0-.08.11-.1.17l-.4,1.08-.2-.08.36-1-1,.46L13,5.55l1-.48-1-.35.06-.18h.07l1,.35a.31.31,0,0,0,.19,0l1.14-.52-2.61-.93.06-.21,2.62.92L15,3.08a.35.35,0,0,0-.18-.1L13.79,2.6l.07-.2,1,.35-.5-1,.19-.11.53,1.08.36-1,.21.06c-.12.36-.26.7-.37,1.05a.53.53,0,0,0,0,.33c.13.3.28.58.44.93L16.7,1.5l.21.07L16,4.15l1.2-.57c.05,0,.09-.11.11-.17.13-.33.25-.67.37-1l.21.07-.34,1L18.48,3l.1.19-1,.48,1,.37-.07.21c-.36-.13-.71-.26-1.07-.37a.67.67,0,0,0-.37,0C16.76,4,16.45,4.18,16.08,4.35Z"/><path class="cls-4" d="M3,12.25A2,2,0,0,0,3.4,12a2.09,2.09,0,0,0,.2-.5l.2.07-.11.35L4,11.73l.1.18-.38.2.37.14-.07.2c-.35-.1-.68-.34-1,0l1.15.41-.07.2L3,12.69l0,0a1.74,1.74,0,0,0,.29.45,2.09,2.09,0,0,0,.53.21l-.07.19-.38-.11.16.34-.2.1-.18-.36-.15.36-.2-.07c.11-.34.34-.68,0-1L2.27,14l-.21-.08.41-1.13c-.49,0-.54.42-.67.77l-.2-.07.12-.38-.38.15L1.23,13l.37-.2-.33-.14.06-.2c.34.13.68.31,1,0l-1.16-.41.07-.21,1.16.4c0-.47-.43-.49-.76-.62l.07-.2.38.11-.18-.4.19-.1.21.42.15-.36.2.06c-.07.32-.36.64,0,1L3.11,11l.2.08-.4,1.13Z"/><path class="cls-4" d="M17.14,16.69l.72-.33.1.19-.72.35.74.27-.06.2-.76-.26.33.71-.18.11L17,17.21l-.28.74-.2-.07.26-.75-.72.33-.11-.19.73-.34-.75-.28.07-.2.75.26L16.38,16l.19-.1.35.71.28-.73.2.06Z"/><path class="cls-4" d="M9.48,16.15a1.66,1.66,0,0,1-.16.37.43.43,0,0,1-.73,0,.7.7,0,0,1-.09-.64A.51.51,0,0,1,9,15.48a.51.51,0,0,1,.47.36C9.44,15.92,9.45,16,9.48,16.15Z"/><path class="cls-4" d="M9.46,18.51v0a.55.55,0,0,1-.52.59.57.57,0,0,1-.48-.64v0A.55.55,0,0,1,9,17.89.57.57,0,0,1,9.46,18.51Z"/><path class="cls-4" d="M9.49,20.94a2.15,2.15,0,0,1-.15.38.42.42,0,0,1-.74,0,.94.94,0,0,1-.11-.55.48.48,0,0,1,.5-.47.54.54,0,0,1,.47.49v.13Z"/><path class="cls-4" d="M10.68,9.71a2.18,2.18,0,0,1,.21,1.6,2,2,0,0,1-1.52,1.48A2.5,2.5,0,0,1,7,12.25,2,2,0,0,1,6.6,9.9a1.18,1.18,0,0,0,.07-.2h0a2.13,2.13,0,0,1,1.25-.82,3.45,3.45,0,0,1,1.63,0,2.18,2.18,0,0,1,1.14.79Zm-4,1.07A1.51,1.51,0,0,0,7.14,12a2.23,2.23,0,0,0,2.81.26,1.68,1.68,0,0,0,.7-1.76A1.5,1.5,0,0,0,9.51,9.21,2.9,2.9,0,0,0,8,9.16,1.53,1.53,0,0,0,6.7,10.78Z"/><path class="cls-4" d="M6.67,9.7c-.11.1-.22.23-.4.15A.43.43,0,0,1,6,9.44.46.46,0,0,1,6.24,9a.29.29,0,0,1,.41.14.66.66,0,0,1,0,.58Z"/><path class="cls-4" d="M10.69,9.72a2,2,0,0,1,0-.42A.36.36,0,0,1,11,9a.37.37,0,0,1,.34.36c0,.07,0,.14,0,.19a.84.84,0,0,1-.24.34c-.16.12-.27-.05-.4-.13Z"/><path class="cls-4" d="M7.37,11.91l.24-.31.31.22c.19.14.32.12.48-.07a.33.33,0,0,0-.11-.43l-.61-.5,0-.05c.08-.09.14-.2.23-.29a.41.41,0,0,1,.24-.11c.35,0,.7,0,1,0a.35.35,0,0,1,.41.23,1.73,1.73,0,0,0,.13.21c-.23.18-.43.36-.66.52a.29.29,0,0,0-.11.37c.05.1.19.17.3.24s.08,0,.12-.06l.38-.27.24.31-.71.49s-.13,0-.18-.05c-.4-.26-.4-.27-.79,0a.19.19,0,0,1-.26,0C7.82,12.21,7.6,12.07,7.37,11.91Z"/></g></g></svg>