<svg xmlns="http://www.w3.org/2000/svg" viewBox="0 0 38.55 24.66"><defs><style>.cls-1{isolation:isolate;}.cls-2{opacity:0.15;}.cls-2,.cls-3{mix-blend-mode:multiply;}.cls-4{fill:#fff;}</style></defs><title>convert-CUSTOMIZE-SVG-03</title><g class="cls-1"><g id="Layer_1" data-name="Layer 1"><g class="cls-2"><path d="M9.79,9.39a1.72,1.72,0,0,0-1-1.48,2.58,2.58,0,0,0,1.49-.68,1.82,1.82,0,0,0,.44-1.47c.33-.06.63-.1.93-.17a2.1,2.1,0,0,0,.49-.2A1.23,1.23,0,0,0,12.74,4c0-.07,0-.14-.05-.23a2.14,2.14,0,0,0,2.08,0,2.41,2.41,0,0,0-.08,2c-1.32.16-1.53.4-1.39,1.63-.18,0-.36.06-.53.11a4.3,4.3,0,0,0-.71.26.8.8,0,0,0-.43,1.11C11,8.86,10.27,8.68,9.79,9.39Z"/><path d="M16.87,19.55a.79.79,0,0,1-1,1,.88.88,0,0,1-.36-.27.23.23,0,0,0-.28-.09,11.72,11.72,0,0,1-3.27.49A5.76,5.76,0,0,1,9,19.81l-.11-.08h.21a.91.91,0,0,0,1-.68,2.8,2.8,0,0,0,.13-1.46c-.21-1.18-.48-2.35-.71-3.52-.13-.68-.25-1.36-.33-2.05a3,3,0,0,1,.06-.94A1.52,1.52,0,0,1,10.18,10a4.35,4.35,0,0,1,2.66-.34A3.15,3.15,0,0,1,15,11.21a6,6,0,0,1,.42.89,20.37,20.37,0,0,0,1.75,3.57,7.56,7.56,0,0,0,.74,1c.45.47.67.5,1.3.26a5.82,5.82,0,0,1-.24.74,4.24,4.24,0,0,1-1.73,1.73Zm1.93-2.23a2.17,2.17,0,0,1-.58-.17,2.57,2.57,0,0,1-.63-.51A10.29,10.29,0,0,1,16,14c-.35-.75-.65-1.53-1-2.29A3.1,3.1,0,0,0,13.18,10a3.86,3.86,0,0,0-3,.26,1.3,1.3,0,0,0-.67.86,3.26,3.26,0,0,0,0,1.49c.23,1.18.5,2.34.75,3.51a7.59,7.59,0,0,1,.24,2.37,1.91,1.91,0,0,1-.42,1.15c-.1.11-.23.2-.35.31.13.06.25.1.36.16a.58.58,0,0,0,.61,0,20.58,20.58,0,0,1,3.67-1.67,12.12,12.12,0,0,1,4.08-.75C18.73,17.61,18.76,17.59,18.8,17.32Zm-8,2.94a6,6,0,0,0,1.65.17A14.9,14.9,0,0,0,15,20c.21,0,.42-.08.39-.38a.17.17,0,0,1,0-.14c.28-.24.14-.48,0-.72a.77.77,0,0,1-.08-.19c-.05-.18-.14-.21-.32-.15a20.82,20.82,0,0,0-3.18,1.3Zm4.7-2,.29.65A.15.15,0,0,0,16,19a.76.76,0,0,1,.7.19.17.17,0,0,0,.24,0,4.78,4.78,0,0,0,1.51-1.21l.15-.21A10.7,10.7,0,0,0,15.45,18.28Z"/><path d="M.42,14.94l.24.21a.63.63,0,0,0,.78.11,2.24,2.24,0,0,0,.66-.52A9.44,9.44,0,0,0,3,13.44c.43-.81.81-1.64,1.25-2.45A6.33,6.33,0,0,1,5,9.85a1.41,1.41,0,0,1,1.64-.38,3.85,3.85,0,0,1,1.28.72,2.72,2.72,0,0,1,.76,3.12,19.19,19.19,0,0,0-.78,3.16,6.18,6.18,0,0,0,0,1.14c0,.57.16.7.7.84a1.63,1.63,0,0,1-.71.48A3.72,3.72,0,0,1,5.54,19c-.5-.13-1-.33-1.46-.5l-.2-.09a.79.79,0,0,1-.78.66.74.74,0,0,1-.72-.4.8.8,0,0,1,.17-1A5,5,0,0,1,.42,14.94Zm7.64,3.67c-.35-.41-.44-.49-.44-1a9.07,9.07,0,0,1,.17-1.8c.19-.89.46-1.77.71-2.65a2.52,2.52,0,0,0-.79-2.83,3.54,3.54,0,0,0-1.29-.67,1.07,1.07,0,0,0-1.15.29,3.87,3.87,0,0,0-.64.81c-.38.67-.72,1.36-1.07,2a10.42,10.42,0,0,1-1.14,2,1.78,1.78,0,0,1-1.48.82.74.74,0,0,0,.62.56,23.82,23.82,0,0,1,2.62.64,10,10,0,0,1,3.58,1.83S7.93,18.61,8.06,18.61Zm-.51.17-.1-.11a10.1,10.1,0,0,0-2.85-1.5.24.24,0,0,0-.19.06c-.17.18-.33.37-.49.56s-.15.28.08.39a7,7,0,0,0,1.88.64A3.63,3.63,0,0,0,7.55,18.78ZM1.43,16.31a.55.55,0,0,0,.05.12L2.7,17.49a.19.19,0,0,0,.14,0,.89.89,0,0,1,.81.19L4.29,17Z"/><path d="M6.91,9.26C7,8.85,7,8.65,6.6,8.44a6.54,6.54,0,0,0-.95-.39A1.17,1.17,0,0,0,5.45,8c.23-1-.29-1.25-1.21-1.37.2-.42.33-.52,0-1.48a2.37,2.37,0,0,0,1.88.2,1.31,1.31,0,0,0,0,.15.83.83,0,0,0,.35,1A7.25,7.25,0,0,0,7.51,7,1.41,1.41,0,0,0,7.82,7c-.11,1.18.73,1.53,1.65,1.82a1.19,1.19,0,0,0-.93,1C8.16,9.4,8,9.35,6.91,9.26Z"/><path d="M10,9.59A1.75,1.75,0,0,0,9,8.1a2.51,2.51,0,0,0,1.49-.67A1.83,1.83,0,0,0,10.92,6a8.54,8.54,0,0,0,.93-.17,2.08,2.08,0,0,0,.49-.19,1.24,1.24,0,0,0,.6-1.43c0-.07,0-.14,0-.23A2.17,2.17,0,0,0,15,4a2.39,2.39,0,0,0-.08,2c-1.32.16-1.53.41-1.4,1.64-.17,0-.35.06-.52.11a4.41,4.41,0,0,0-.72.26.8.8,0,0,0-.42,1.11C11.17,9.06,10.47,8.88,10,9.59Z"/><path d="M17.07,19.75a.79.79,0,0,1-1,1,.91.91,0,0,1-.37-.27.22.22,0,0,0-.27-.1,11.73,11.73,0,0,1-3.27.5A5.86,5.86,0,0,1,9.24,20l-.11-.08h.21a.91.91,0,0,0,1-.68,2.72,2.72,0,0,0,.14-1.46c-.22-1.18-.48-2.35-.71-3.52-.13-.68-.25-1.36-.33-2a3,3,0,0,1,.06-.94,1.5,1.5,0,0,1,.89-1.12A4.21,4.21,0,0,1,13,9.82a3.17,3.17,0,0,1,2.15,1.58,6.13,6.13,0,0,1,.42.9,20.37,20.37,0,0,0,1.75,3.57,7.46,7.46,0,0,0,.74.94c.45.48.67.51,1.3.27a4.6,4.6,0,0,1-.25.74,4.16,4.16,0,0,1-1.72,1.73ZM19,17.52a2.17,2.17,0,0,1-.58-.17,2.82,2.82,0,0,1-.63-.51,10,10,0,0,1-1.6-2.61c-.35-.75-.65-1.53-1-2.29a3.08,3.08,0,0,0-1.82-1.78,3.86,3.86,0,0,0-3,.26,1.28,1.28,0,0,0-.67.86,3.26,3.26,0,0,0,0,1.49c.23,1.17.5,2.34.75,3.51a7.9,7.9,0,0,1,.24,2.37,1.91,1.91,0,0,1-.42,1.15,3.84,3.84,0,0,1-.36.31c.14.06.26.1.37.16a.59.59,0,0,0,.61-.05,21.27,21.27,0,0,1,3.67-1.66,12.08,12.08,0,0,1,4.08-.75C18.93,17.81,19,17.78,19,17.52Zm-8,2.94a6.43,6.43,0,0,0,1.65.17,15.94,15.94,0,0,0,2.56-.44c.21-.05.42-.09.38-.38a.22.22,0,0,1,.05-.14c.28-.25.13-.48,0-.72a1.76,1.76,0,0,1-.09-.2c0-.17-.13-.2-.31-.15A21.48,21.48,0,0,0,12,19.91Zm4.7-2c.1.24.2.44.29.65a.15.15,0,0,0,.21.11.71.71,0,0,1,.7.19.17.17,0,0,0,.24,0,4.88,4.88,0,0,0,1.5-1.21l.16-.21A10.37,10.37,0,0,0,15.65,18.48Z"/><path d="M.61,15.14c.11.09.18.14.25.21a.64.64,0,0,0,.78.11,2.24,2.24,0,0,0,.66-.52,9.07,9.07,0,0,0,.85-1.3c.44-.81.82-1.65,1.26-2.45a6.33,6.33,0,0,1,.8-1.14,1.39,1.39,0,0,1,1.63-.38,3.82,3.82,0,0,1,1.29.72,2.73,2.73,0,0,1,.76,3.12,19.19,19.19,0,0,0-.78,3.16,6.18,6.18,0,0,0,0,1.14c0,.57.15.7.7.83a1.66,1.66,0,0,1-.71.49,3.8,3.8,0,0,1-2.31.06c-.5-.14-1-.34-1.46-.51l-.2-.08a.81.81,0,0,1-.78.66.74.74,0,0,1-.72-.41.79.79,0,0,1,.17-1A5,5,0,0,1,.61,15.14Zm7.65,3.67c-.36-.42-.44-.49-.44-1A8.38,8.38,0,0,1,8,16c.19-.9.46-1.77.71-2.66a2.53,2.53,0,0,0-.79-2.83,3.52,3.52,0,0,0-1.29-.66,1.09,1.09,0,0,0-1.15.28,4.21,4.21,0,0,0-.64.82c-.38.66-.72,1.35-1.07,2a11.35,11.35,0,0,1-1.14,2,1.78,1.78,0,0,1-1.48.82.74.74,0,0,0,.62.56A26.27,26.27,0,0,1,4.38,17,10.16,10.16,0,0,1,8,18.81S8.13,18.81,8.26,18.81ZM7.75,19l-.1-.11a9.73,9.73,0,0,0-2.85-1.5.23.23,0,0,0-.19.06c-.17.18-.33.37-.49.55s-.15.29.08.4A7.33,7.33,0,0,0,6.08,19,3.78,3.78,0,0,0,7.75,19ZM1.63,16.51c0,.08,0,.11.05.12L2.9,17.69a.17.17,0,0,0,.13,0,.91.91,0,0,1,.82.19l.63-.71Z"/><path d="M7.11,9.46c.12-.41.06-.62-.31-.82a7.94,7.94,0,0,0-1-.4l-.2-.05c.23-.95-.29-1.25-1.21-1.37.2-.42.33-.52,0-1.49a2.31,2.31,0,0,0,1.87.21c0,.06,0,.1,0,.15a.82.82,0,0,0,.35,1,6.83,6.83,0,0,0,1.08.45A2.05,2.05,0,0,0,8,7.24c-.11,1.17.72,1.53,1.65,1.82a1.17,1.17,0,0,0-.93,1C8.35,9.59,8.22,9.55,7.11,9.46Z"/></g><g class="cls-3"><path d="M9.65,9.25a1.75,1.75,0,0,0-1-1.49,2.51,2.51,0,0,0,1.49-.67,1.83,1.83,0,0,0,.44-1.48c.33-.05.63-.1.93-.17A2.08,2.08,0,0,0,12,5.25a1.24,1.24,0,0,0,.6-1.43c0-.07,0-.14,0-.23a2.17,2.17,0,0,0,2.08.05,2.35,2.35,0,0,0-.08,2c-1.32.16-1.53.41-1.4,1.64a4.82,4.82,0,0,0-.52.11,4.41,4.41,0,0,0-.72.26.8.8,0,0,0-.42,1.11C10.83,8.72,10.13,8.54,9.65,9.25Z"/><path d="M16.73,19.41a.79.79,0,0,1-1,1,.91.91,0,0,1-.37-.27.22.22,0,0,0-.27-.1,11.73,11.73,0,0,1-3.27.5,5.86,5.86,0,0,1-2.89-.85l-.11-.08H9a.91.91,0,0,0,1-.68,2.72,2.72,0,0,0,.14-1.46c-.22-1.18-.48-2.35-.71-3.52-.13-.68-.25-1.36-.33-2a3,3,0,0,1,.06-.94A1.5,1.5,0,0,1,10,9.82a4.21,4.21,0,0,1,2.66-.34,3.17,3.17,0,0,1,2.15,1.58,6.13,6.13,0,0,1,.42.9A20.37,20.37,0,0,0,17,15.53a7.46,7.46,0,0,0,.74.94c.45.48.67.51,1.3.27a4.6,4.6,0,0,1-.25.74,4.16,4.16,0,0,1-1.72,1.73Zm1.93-2.23a2.17,2.17,0,0,1-.58-.17,2.61,2.61,0,0,1-.63-.52,9.8,9.8,0,0,1-1.6-2.6c-.35-.75-.65-1.53-1-2.29A3.08,3.08,0,0,0,13,9.82a3.86,3.86,0,0,0-3,.26,1.28,1.28,0,0,0-.67.86,3.26,3.26,0,0,0,0,1.49c.23,1.17.49,2.34.75,3.51a7.9,7.9,0,0,1,.24,2.37A1.93,1.93,0,0,1,10,19.46a3.84,3.84,0,0,1-.36.31c.14.06.26.1.37.16a.59.59,0,0,0,.61-.05,21.27,21.27,0,0,1,3.67-1.66,12.08,12.08,0,0,1,4.08-.75C18.59,17.47,18.62,17.44,18.66,17.18Zm-8,2.94a6.43,6.43,0,0,0,1.65.17,15.94,15.94,0,0,0,2.56-.44c.21-.05.42-.09.38-.38a.22.22,0,0,1,.05-.14c.28-.25.13-.48,0-.72a1.76,1.76,0,0,1-.09-.2c-.05-.17-.13-.2-.31-.15a21.48,21.48,0,0,0-3.18,1.31Zm4.7-2c.1.24.2.44.29.65a.15.15,0,0,0,.21.11.71.71,0,0,1,.7.19.17.17,0,0,0,.24,0,4.88,4.88,0,0,0,1.5-1.21l.16-.21A10.37,10.37,0,0,0,15.31,18.14Z"/><path d="M.27,14.79.52,15a.64.64,0,0,0,.78.11A2.24,2.24,0,0,0,2,14.6a9.07,9.07,0,0,0,.85-1.3c.44-.81.82-1.65,1.26-2.45a6.33,6.33,0,0,1,.8-1.14A1.39,1.39,0,0,1,6.5,9.33a3.82,3.82,0,0,1,1.29.72,2.73,2.73,0,0,1,.76,3.12,19.19,19.19,0,0,0-.78,3.16,6.18,6.18,0,0,0,0,1.14c0,.57.15.7.7.83a1.66,1.66,0,0,1-.71.49,3.8,3.8,0,0,1-2.31.06c-.5-.14-1-.34-1.46-.51l-.2-.08a.81.81,0,0,1-.78.66.74.74,0,0,1-.72-.41.79.79,0,0,1,.17-1A5,5,0,0,1,.27,14.79Zm7.65,3.68c-.36-.42-.44-.49-.44-1a8.38,8.38,0,0,1,.17-1.8c.19-.9.46-1.77.71-2.66a2.53,2.53,0,0,0-.79-2.83,3.52,3.52,0,0,0-1.29-.66,1.09,1.09,0,0,0-1.15.28,4.21,4.21,0,0,0-.64.82c-.38.66-.72,1.35-1.07,2a10.79,10.79,0,0,1-1.15,2,1.75,1.75,0,0,1-1.47.82.74.74,0,0,0,.61.56A25.81,25.81,0,0,1,4,16.63a10.16,10.16,0,0,1,3.58,1.84S7.79,18.47,7.92,18.47Zm-.51.17-.1-.11A9.73,9.73,0,0,0,4.46,17a.23.23,0,0,0-.19.06c-.17.18-.33.37-.49.55s-.15.29.08.4a7.33,7.33,0,0,0,1.88.64A3.78,3.78,0,0,0,7.41,18.64ZM1.29,16.17c0,.08,0,.1.05.12l1.22,1.06a.17.17,0,0,0,.13,0,.91.91,0,0,1,.82.19l.63-.72Z"/><path d="M6.77,9.12c.12-.41.06-.62-.31-.82a7.94,7.94,0,0,0-1-.4l-.2-.05C5.54,6.9,5,6.6,4.1,6.48c.2-.42.33-.52,0-1.49A2.31,2.31,0,0,0,6,5.2c0,.06,0,.1,0,.15a.82.82,0,0,0,.35,1,6.83,6.83,0,0,0,1.08.45,2.05,2.05,0,0,0,.31.07c-.11,1.17.72,1.53,1.65,1.82a1.17,1.17,0,0,0-.93,1C8,9.25,7.88,9.21,6.77,9.12Z"/></g><path class="cls-4" d="M9.85,9.45A1.77,1.77,0,0,0,8.85,8a2.46,2.46,0,0,0,1.49-.68,1.84,1.84,0,0,0,.44-1.47c.33-.06.63-.1.93-.17a1.74,1.74,0,0,0,.49-.2A1.22,1.22,0,0,0,12.8,4c0-.07,0-.14-.05-.23a2.17,2.17,0,0,0,2.08,0,2.35,2.35,0,0,0-.08,2c-1.32.16-1.53.41-1.4,1.64a4.44,4.44,0,0,0-1.24.37c-.47.25-.58.55-.42,1.11C11,8.92,10.33,8.74,9.85,9.45Z"/><path class="cls-4" d="M16.93,19.61a.79.79,0,0,1-1,1,.91.91,0,0,1-.37-.27.22.22,0,0,0-.27-.1,12.12,12.12,0,0,1-3.28.5,5.76,5.76,0,0,1-2.88-.86s0,0-.11-.08H9.2a.89.89,0,0,0,1-.67,2.72,2.72,0,0,0,.14-1.46c-.22-1.18-.48-2.35-.71-3.53-.13-.67-.25-1.35-.33-2a3,3,0,0,1,.06-.94A1.5,1.5,0,0,1,10.24,10a4.21,4.21,0,0,1,2.66-.34,3.14,3.14,0,0,1,2.15,1.58,7.36,7.36,0,0,1,.42.9,20.27,20.27,0,0,0,1.75,3.56,5.64,5.64,0,0,0,.74,1c.45.48.67.51,1.3.27a7.16,7.16,0,0,1-.25.74,4.16,4.16,0,0,1-1.72,1.73Zm1.93-2.23a2.61,2.61,0,0,1-.58-.17,2.86,2.86,0,0,1-.63-.52,9.8,9.8,0,0,1-1.6-2.6c-.35-.75-.65-1.53-1-2.29A3.09,3.09,0,0,0,13.23,10a3.8,3.8,0,0,0-3,.26,1.25,1.25,0,0,0-.67.86,3.26,3.26,0,0,0,0,1.49c.23,1.17.49,2.34.75,3.51a7.87,7.87,0,0,1,.24,2.37,2,2,0,0,1-.42,1.15,3.84,3.84,0,0,1-.36.31c.14.06.26.1.37.16a.59.59,0,0,0,.61-.05,21.27,21.27,0,0,1,3.67-1.66,12.08,12.08,0,0,1,4.08-.75C18.79,17.67,18.82,17.64,18.86,17.38Zm-8,2.94a6,6,0,0,0,1.65.16A13.74,13.74,0,0,0,15,20c.22,0,.43-.08.39-.38a.21.21,0,0,1,0-.13c.27-.25.13-.49,0-.73a1.11,1.11,0,0,1-.09-.19c0-.17-.13-.2-.31-.15a21,21,0,0,0-3.18,1.31Zm4.69-2c.11.24.21.44.3.65a.15.15,0,0,0,.2.11.72.72,0,0,1,.71.19.15.15,0,0,0,.23,0,4.64,4.64,0,0,0,1.51-1.2l.16-.22A10.77,10.77,0,0,0,15.5,18.34Z"/><path class="cls-4" d="M.47,15l.25.21a.63.63,0,0,0,.78.12,2.41,2.41,0,0,0,.66-.52A11.17,11.17,0,0,0,3,13.5c.44-.81.82-1.65,1.26-2.45a6,6,0,0,1,.8-1.14A1.39,1.39,0,0,1,6.7,9.53,4,4,0,0,1,8,10.24a2.75,2.75,0,0,1,.76,3.13A18.13,18.13,0,0,0,8,16.52a6.27,6.27,0,0,0-.06,1.14c0,.58.16.71.71.84a1.55,1.55,0,0,1-.71.48A3.65,3.65,0,0,1,5.6,19c-.5-.13-1-.33-1.46-.5l-.2-.08a.81.81,0,0,1-.79.66.74.74,0,0,1-.71-.41.8.8,0,0,1,.17-1A4.94,4.94,0,0,1,.47,15Zm7.65,3.68c-.36-.42-.44-.49-.44-1a8.32,8.32,0,0,1,.17-1.8c.19-.9.46-1.78.7-2.66a2.51,2.51,0,0,0-.78-2.83,3.52,3.52,0,0,0-1.29-.66A1.09,1.09,0,0,0,5.33,10a4.47,4.47,0,0,0-.64.81c-.38.67-.72,1.36-1.07,2a11.13,11.13,0,0,1-1.15,2A1.77,1.77,0,0,1,1,15.64a.74.74,0,0,0,.61.56,25.81,25.81,0,0,1,2.63.63,10.18,10.18,0,0,1,3.57,1.83C7.87,18.71,8,18.67,8.12,18.67Zm-.51.16a.93.93,0,0,1-.1-.1,9.73,9.73,0,0,0-2.85-1.5.23.23,0,0,0-.19.06c-.17.18-.33.37-.49.55s-.15.29.08.4a7.39,7.39,0,0,0,1.87.64A3.68,3.68,0,0,0,7.61,18.83ZM1.49,16.36a.64.64,0,0,0,0,.12l1.23,1.07a.16.16,0,0,0,.13,0,.88.88,0,0,1,.82.19l.63-.72Z"/><path class="cls-4" d="M7,9.32c.13-.41.07-.62-.3-.82a7.94,7.94,0,0,0-1-.4L5.51,8C5.74,7.1,5.22,6.8,4.3,6.68c.2-.42.33-.52,0-1.49a2.27,2.27,0,0,0,1.87.2c0,.06,0,.11,0,.15a.83.83,0,0,0,.35,1A6.83,6.83,0,0,0,7.57,7a1.33,1.33,0,0,0,.3.06c-.1,1.18.73,1.53,1.66,1.83a1.17,1.17,0,0,0-.93,1C8.21,9.45,8.08,9.41,7,9.32Z"/></g></g></svg>