<svg xmlns="http://www.w3.org/2000/svg" viewBox="0 0 38.55 24.66"><defs><style>.cls-1{isolation:isolate;}.cls-2{opacity:0.15;}.cls-2,.cls-3{mix-blend-mode:multiply;}.cls-4{fill:#fff;}</style></defs><title>convert-FIX-SVG-04 for app</title><g class="cls-1"><g id="Layer_1" data-name="Layer 1"><g class="cls-2"><path d="M1.24,22.57a1.26,1.26,0,0,1,.41-.25,5.14,5.14,0,0,1,1.16-.21c.79,0,1.59,0,2.41,0A3.07,3.07,0,0,1,5,21.85a5.32,5.32,0,0,1-1.71-3.4A5.39,5.39,0,0,1,4.4,14.51a5.65,5.65,0,0,1,1.25-1.19.31.31,0,0,0,.14-.25A4.92,4.92,0,0,1,6,12.29c0-.1,0-.17-.07-.23A3.26,3.26,0,0,1,4.47,9.3c0-.39,0-.79,0-1.18a.44.44,0,0,0-.07-.22,2.71,2.71,0,0,1-.59-1.2,1.41,1.41,0,0,1,.37-1.33,2.28,2.28,0,0,1,2.08-.68A4,4,0,0,1,7.09,5s0-.07,0-.13c.21-.67.42-1.34.61-2,.06-.2.1-.41.15-.61a2,2,0,0,1,.83-1,.42.42,0,0,1,.33,0c.4.17.78.36,1.16.56a1.32,1.32,0,0,1,.29.24.55.55,0,0,0,.42.2.53.53,0,0,1,.57.51.57.57,0,0,1-.5.58.56.56,0,0,1-.6-.45c-.05-.26-.3-.17-.44-.28l-.06,0c.06.44.09.89.18,1.32s.24.92.37,1.38l.19-.18a1.3,1.3,0,0,1,1.2-.25,4.07,4.07,0,0,1,1.06.43,1.35,1.35,0,0,1,.74,1.71,7.13,7.13,0,0,1-.43,1,.66.66,0,0,0-.09.33,5.56,5.56,0,0,1-.3,2.14,3.4,3.4,0,0,1-.76,1.21A.28.28,0,0,0,12,12a4.25,4.25,0,0,0,.27.46,6.89,6.89,0,0,1,.39.7c0,.11-.07.26-.12.43a5.73,5.73,0,0,1,1.83,4.19A5.39,5.39,0,0,1,12.47,22c.5,0,1,0,1.45.08l2.27.23A14.17,14.17,0,0,0,21,22c.44-.11.9-.18,1.35-.25a.75.75,0,0,1,.39,0,5.35,5.35,0,0,0,1.68.3c1.3.12,2.61.21,3.92.33a34.76,34.76,0,0,0,4.08.13,24.07,24.07,0,0,0,3-.43,6.18,6.18,0,0,1,1.77,0v.08a1.13,1.13,0,0,0,0,.15h-.85a13.94,13.94,0,0,0-2.32.33,12.84,12.84,0,0,1-1.39.15c-.94,0-1.89,0-2.83,0s-2-.15-2.93-.23l-2.68-.23a6.65,6.65,0,0,1-1.53-.28,1.51,1.51,0,0,0-.73,0c-.84.15-1.66.38-2.51.47a18.15,18.15,0,0,1-2.76.06c-1,0-2.08-.2-3.12-.28a10.93,10.93,0,0,0-1.4,0,.39.39,0,0,0-.2.08,5.62,5.62,0,0,1-6.11.08,1.4,1.4,0,0,0-.51-.1,13.44,13.44,0,0,0-3,0,5.53,5.53,0,0,0-.66.2,1.66,1.66,0,0,1-.32,0ZM6,13.51l0,0a1,1,0,0,0-.17.12,9,9,0,0,0-.86.78,5.07,5.07,0,0,0-1.3,4.5,5.3,5.3,0,0,0,6.84,4,5.2,5.2,0,0,0,3.62-5.64,5.37,5.37,0,0,0-1.73-3.36.38.38,0,0,0-.25-.11,4.34,4.34,0,0,1-1.39-.12,2.15,2.15,0,0,0-.87,0,8,8,0,0,1-2.54.12H6.9C7,15,6.87,15.72,6.54,16l-.2-.31c-.2.13-.38.34-.64.12l-.17.22a.44.44,0,0,1-.15-.48c.11-.4.22-.79.34-1.19S5.89,13.8,6,13.51ZM7.18,5.72a5.86,5.86,0,0,0-1,.63,7.23,7.23,0,0,0-.84,1c-.11.14-.21.3-.32.46s-.16.19-.16.29a9.86,9.86,0,0,0-.05,1.33,2.9,2.9,0,0,0,2.29,2.86,8.45,8.45,0,0,0,3.17.1,2.63,2.63,0,0,0,1.89-1.09,4.22,4.22,0,0,0,.7-2.93c0-.06-.07-.11-.1-.17l-.29-.6s0-.09,0-.11a13.07,13.07,0,0,0-1-1C11,6.2,10.6,6,10.22,5.72a.35.35,0,0,0-.25,0,3.37,3.37,0,0,1-.53.12c-.33,0-.67,0-1,0s-.63,0-.94.06S7.22,5.92,7.18,5.72Zm2.87-.84c0-.19-.08-.35-.12-.51s-.15-.59-.21-.89-.09-.63-.14-.94S9.51,2.16,9.47,2a.28.28,0,0,0,0-.11L9,1.55a.19.19,0,0,0-.26,0A1.58,1.58,0,0,0,8.1,2.7,1.38,1.38,0,0,1,8,3c-.16.52-.33,1-.5,1.58,0,.07,0,.15,0,.19.32.11.61.22.91.31a.87.87,0,0,0,.36,0C9.16,5,9.58,5,10.05,4.88ZM6.26,6,7,5.46A1.29,1.29,0,0,0,6.24,5a2.09,2.09,0,0,0-1.71.51,1.52,1.52,0,0,0,.13,2.21l.22-.16c-.44-.76-.45-1.11,0-1.5A1.1,1.1,0,0,1,6.26,6Zm5.09.17A.7.7,0,0,1,12,5.81a1.06,1.06,0,0,1,.87,1.6c-.17.26-.15.34.11.58a2.4,2.4,0,0,0,.47-1.46.9.9,0,0,0-.4-.76,6.12,6.12,0,0,0-1.12-.55,1,1,0,0,0-1.29.43Zm-.88-3.75-.69-.51A.48.48,0,0,0,10.47,2.38Z"/><path d="M18.42,4.82,21.62,6l-.09.26L18.34,5.09c0,.09.05.14.08.2.18.38.35.76.55,1.14a.51.51,0,0,0,.27.23c.43.17.87.32,1.32.48l-.09.25L19.22,7l.56,1.16-.25.12L19,7,18.5,8.26l-.26-.08c.16-.44.31-.87.47-1.3a.41.41,0,0,0,0-.39c-.21-.41-.4-.82-.62-1.29L16.92,8.36l-.27-.09,1.14-3.13-.18.06-1.09.5a.43.43,0,0,0-.25.29c-.15.44-.32.87-.48,1.32l-.26-.08L16,6l-1.26.58L14.6,6.3l1.25-.59-1.21-.43L14.73,5l1.32.46a.46.46,0,0,0,.26,0c.44-.19.88-.4,1.38-.63L14.48,3.72l.08-.26,3.21,1.13-.23-.49a3,3,0,0,0-.45-.85,2.78,2.78,0,0,0-.9-.36l-.59-.21.09-.26,1.25.44-.61-1.29.24-.12.64,1.33.45-1.22.26.08c-.13.36-.23.72-.38,1.06a.83.83,0,0,0,0,.86,8.79,8.79,0,0,1,.45.92l1.15-3.15.26.08L18.29,4.58c.53-.25,1-.46,1.48-.69a.44.44,0,0,0,.12-.19q.24-.63.48-1.29l.26.09L20.2,3.69l1.18-.54.12.24L20.24,4l1.27.46-.09.26L20.1,4.22a.49.49,0,0,0-.44,0C19.27,4.44,18.87,4.62,18.42,4.82Z"/><path d="M33.82,4.81l-.25-.1.5-1.4,0-.06a2.08,2.08,0,0,0-.52.39,2.37,2.37,0,0,0-.25.63L33,4.18l.17-.48-.49.21-.11-.24L33,3.44l-.44-.16L32.67,3c.43.16.85.39,1.25,0L32.5,2.48l.08-.25,1.44.5c-.05-.59-.55-.62-1-.78l.09-.25.48.15-.24-.5.24-.12.26.51.18-.44.25.08a1.32,1.32,0,0,1-.1.3.72.72,0,0,0,.1.91l.52-1.42.26.1-.5,1.4,0,.05a2.44,2.44,0,0,0,.56-.36,2.24,2.24,0,0,0,.25-.63l.25.09-.15.43L36,2.07l.13.23-.48.24.47.18L36,3c-.44-.15-.87-.43-1.28,0l1.42.5-.09.26-1.43-.5c.06.59.51.72,1,.83l-.09.27-.47-.15.19.43L35,4.75l-.22-.45-.18.45-.25-.08a1.32,1.32,0,0,1,.1-.3.82.82,0,0,0-.13-1Z"/><path d="M28.25,7.72c.31-.06.37-.28.36-.55,0-.56,0-1.11,0-1.68l-1,2.28-1-2.23h0V7.17c0,.36,0,.42.38.56h-.84c.33-.13.38-.21.39-.56s0-1,0-1.46c0-.28,0-.53-.37-.6h.61a.22.22,0,0,1,.26.17c.22.56.46,1.12.69,1.68,0,.06.05.11.09.2.23-.53.45-1,.66-1.53s.22-.52.79-.52h.19c-.37.08-.37.36-.37.63,0,.47,0,.93,0,1.4s0,.43.38.57Z"/><path d="M22.62,8.2,22.71,8l.93.32-.41-.87.24-.12.43.87.34-.91.26.09-.33.92.9-.41.12.24-.89.42.92.33-.09.26-.93-.32.41.88-.24.12-.43-.88-.34.91-.26-.09.33-.91-.89.4L22.65,9l.89-.42Z"/><path d="M21.83,19.54l-.89.41-.12-.25.9-.42L20.79,19l.09-.26.93.32-.41-.87.24-.12.43.87.34-.91.25.09-.32.92.9-.41.11.24-.89.42.92.33-.08.26-.93-.32.41.88-.24.12-.43-.88-.34.91-.26-.08Z"/><path d="M17.32,15.06l-.42-.88.25-.11.43.87.34-.91.25.08-.32.92.9-.41.11.25-.89.42.92.33-.08.26-.94-.33.42.88-.24.13-.44-.88-.34.91L17,16.5l.32-.92-.89.41-.12-.24.89-.42L16.3,15l.09-.25Z"/><path d="M21.24,10.78a1.58,1.58,0,0,0-.51,2.11,1,1,0,0,0,.94.44.79.79,0,0,0,.75-.63.7.7,0,0,1-.43.64,1.38,1.38,0,0,1-1.47-.2,1.28,1.28,0,0,1-.38-1.39,1.23,1.23,0,0,1,1-1Z"/><path d="M22.62,10.79l.57-.08V12l.2-.12a2,2,0,0,0-.16,1.3c0,.08.11.15.17.22h-.79c.31-.08.29-.29.29-.5,0-.55,0-1.11,0-1.67A.38.38,0,0,0,22.62,10.79Z"/><path d="M35.38,6.09h.39c-.09.17-.21.34-.29.52-.22.51-.43,1-.64,1.54-.08.18-.19.32-.41.3a.42.42,0,0,1-.17-.1.18.18,0,0,1,0-.11.45.45,0,0,1,.2,0c.16.09.25,0,.31-.12a.71.71,0,0,0,0-.65c-.15-.32-.27-.66-.41-1-.06-.14-.14-.26-.21-.39h.71c-.23.1-.21.24-.15.39s.21.57.32.86h.06a10.28,10.28,0,0,0,.34-1C35.5,6.29,35.41,6.18,35.38,6.09Z"/><path d="M30.37,6.12a.58.58,0,0,1,.78.54h-1.1a.79.79,0,0,0,.37.93c.31.15.53.06.76-.3,0,.31-.26.49-.66.48A.78.78,0,0,1,29.67,7a.79.79,0,0,1,.71-.91.55.55,0,0,0-.33.51h.8C30.84,6.27,30.71,6.13,30.37,6.12Z"/><path d="M29.34,13.44a2.3,2.3,0,0,1-.36,0,.29.29,0,0,1-.28-.33V12a.69.69,0,0,0-.07-.2l.37-.51v.51h.45v0H29c0,.47,0,.92,0,1.36C29.06,13.26,29.24,13.34,29.34,13.44Z"/><path d="M31.41,13.4h-.77c.28-.09.29-.29.29-.48s0-.42,0-.63-.09-.42-.44-.46c.33-.22.56.08.78.18,0,.35,0,.71,0,1.08C31.25,13.2,31.36,13.3,31.41,13.4Z"/><path d="M30.33,13.41h-.77c.24-.09.25-.29.24-.49v-.64a.36.36,0,0,0-.27-.43l.53-.08.13.26a2.51,2.51,0,0,0-.06,1.13C30.14,13.25,30.26,13.32,30.33,13.41Z"/><path d="M32.59,13.4h-.78c.22-.07.24-.25.24-.44v-.63c0-.38-.1-.47-.47-.5a.5.5,0,0,1,.77.48c0,.24,0,.47,0,.7S32.38,13.34,32.59,13.4Z"/><path d="M32.09,6.25A2.29,2.29,0,0,0,32,7.41c0,.11.11.21.17.31h-.73c.38-.16.24-.5.24-.77s.14-.59-.24-.78l.48-.08.05.24.14-.08Z"/><path d="M33.48,6.25a2.4,2.4,0,0,0-.1,1.16c0,.11.11.21.16.31h-.72c.38-.16.23-.5.23-.77s.15-.59-.23-.78l.47-.08.06.24.14-.08Z"/><path d="M25.39,11.93a2.53,2.53,0,0,0-.11,1.16c0,.11.12.21.17.3h-.73c.39-.16.24-.49.24-.76s.15-.59-.23-.78l.47-.09.06.24.14-.07Z"/><path d="M33.57,11.8c.35,0,.48.12.49.45s0,.54,0,.8.09.33.34.23a.35.35,0,0,1-.56.06.93.93,0,0,0-.15-.07c0-.19,0-.41,0-.63,0,0-.06-.08-.09-.12h0a.56.56,0,0,0-.09-.73Z"/><path d="M26.88,13.4h-.77c.39-.17.25-.5.25-.77s.14-.59-.23-.78l.54-.09c0,.42,0,.83,0,1.25A.38.38,0,0,0,26.88,13.4Z"/><path d="M23.67,11.75a1.75,1.75,0,0,1,.33.05.37.37,0,0,1,.34.41c0,.26,0,.51,0,.76s0,.35.24.43h-.82c.26-.08.28-.27.28-.46v-.65C24,12,24,11.87,23.67,11.75Z"/><path d="M27.55,11.79c-.2.3-.16.43.17.6a2.47,2.47,0,0,1,.36.19.47.47,0,0,1,.13.62.52.52,0,0,1-.65.2h0c.19,0,.37,0,.44-.22s0-.32-.26-.45l-.34-.19a.38.38,0,0,1-.18-.42.36.36,0,0,1,.33-.33Z"/><path d="M34.93,13.41c.19,0,.37,0,.44-.22s0-.32-.26-.45l-.34-.19a.38.38,0,0,1-.18-.42.36.36,0,0,1,.33-.33h0c-.2.3-.16.43.17.6a2.47,2.47,0,0,1,.36.19.47.47,0,0,1,.13.62.52.52,0,0,1-.65.2Z"/><path d="M33.66,12.52l-.31.21a.42.42,0,0,0,0,.73A1.7,1.7,0,0,1,33,13.4a.32.32,0,0,1-.23-.34.38.38,0,0,1,.27-.36c.19-.07.39-.12.58-.17Z"/><path d="M22.39,10.8l0,.79-.05,0a1.19,1.19,0,0,0-.65-.82C22,10.74,22.16,11,22.39,10.8Z"/><path d="M33.57,11.8a.33.33,0,0,0-.41.26.21.21,0,0,1-.16.11s-.12-.07-.12-.11a.18.18,0,0,1,.08-.17.66.66,0,0,1,.61-.09Z"/><path d="M32.09,6.25a.42.42,0,0,1,.48-.14c.06,0,.11.08.14.14s0,.12-.06.12a.27.27,0,0,1-.18,0,.31.31,0,0,0-.38-.07Z"/><path d="M25.4,11.93a.41.41,0,0,1,.48-.15.24.24,0,0,1,.13.15S26,12,26,12a.3.3,0,0,1-.19,0,.29.29,0,0,0-.38-.06Z"/><path d="M33.49,6.25A.42.42,0,0,1,34,6.11c.06,0,.11.08.14.14s0,.12-.06.12a.3.3,0,0,1-.19,0,.3.3,0,0,0-.38-.07Z"/><path d="M26.75,10.92c-.11.08-.17.16-.23.15s-.15-.11-.14-.15a.22.22,0,0,1,.16-.16S26.65,10.84,26.75,10.92Z"/><path d="M27.56,13.4h-.35V13l.35.37Z"/><path d="M34.93,13.4h-.35V13l.35.37Z"/><path d="M34.92,11.8l.55-.05v.44a.51.51,0,0,0-.55-.4Z"/><path d="M27.55,11.8l.55-.05v.44a.51.51,0,0,0-.55-.4Z"/><path d="M9.49,15.65a1.88,1.88,0,0,1-.16.37.43.43,0,0,1-.73,0,.75.75,0,0,1-.1-.65A.52.52,0,0,1,9,15a.48.48,0,0,1,.47.36A2.5,2.5,0,0,1,9.49,15.65Z"/><path d="M9.49,18a1.66,1.66,0,0,1-.13.35.44.44,0,0,1-.78,0,.7.7,0,0,1-.07-.63.46.46,0,0,1,.91,0C9.45,17.84,9.46,17.92,9.49,18Z"/><path d="M9.5,20.44a1.61,1.61,0,0,1-.16.38.42.42,0,0,1-.73,0,1,1,0,0,1-.12-.55.49.49,0,0,1,.5-.47.53.53,0,0,1,.47.51.4.4,0,0,1,0,.11Z"/><path d="M6.67,9.21a2.11,2.11,0,0,1,1.26-.82,3.45,3.45,0,0,1,1.63,0,2.06,2.06,0,0,1,1.13.79h0a2.23,2.23,0,0,1,.21,1.6,2,2,0,0,1-1.52,1.48,2.49,2.49,0,0,1-2.33-.54A2,2,0,0,1,6.6,9.4a1.67,1.67,0,0,0,.08-.2Zm0,1.07a1.49,1.49,0,0,0,.54,1.28,2.22,2.22,0,0,0,2.6.24,1.66,1.66,0,0,0,.83-1.65A1.52,1.52,0,0,0,9.5,8.7,2.9,2.9,0,0,0,8,8.66,1.53,1.53,0,0,0,6.71,10.28Z"/><path d="M6.68,9.2c-.11.1-.22.23-.4.15A.43.43,0,0,1,6,8.94a.45.45,0,0,1,.21-.45.29.29,0,0,1,.41.13.65.65,0,0,1,0,.59Z"/><path d="M10.69,9.22a3,3,0,0,1,0-.42A.36.36,0,0,1,11,8.45a.37.37,0,0,1,.34.36.31.31,0,0,1,0,.19,1,1,0,0,1-.24.34c-.16.11-.28-.05-.4-.13Z"/><path d="M9.69,10.3l-.59.48c-.28.22-.27.4,0,.6l.11.06.24-.17.25-.17.24.31c-.24.16-.46.33-.69.47a.24.24,0,0,1-.2,0c-.4-.26-.4-.27-.79,0a.21.21,0,0,1-.28,0l-.57-.4s0,0-.05-.06l.23-.29.37.26a.31.31,0,0,0,.42-.13.39.39,0,0,0-.05-.35,7.38,7.38,0,0,0-.72-.6l.27-.35a.26.26,0,0,1,.16-.07H9.3a.39.39,0,0,1,.19.1C9.56,10.06,9.62,10.18,9.69,10.3Z"/><path d="M1.44,22.77a1.49,1.49,0,0,1,.41-.26A6.63,6.63,0,0,1,3,22.3c.8,0,1.6,0,2.42,0l-.26-.25a5.27,5.27,0,0,1-1.71-3.4A5.35,5.35,0,0,1,4.6,14.71a5.93,5.93,0,0,1,1.25-1.2A.28.28,0,0,0,6,13.26a5.49,5.49,0,0,1,.18-.78.16.16,0,0,0-.07-.22A3.25,3.25,0,0,1,4.67,9.5c0-.39,0-.79,0-1.18a.41.41,0,0,0-.07-.22,2.71,2.71,0,0,1-.59-1.2,1.43,1.43,0,0,1,.36-1.33,2.31,2.31,0,0,1,2.09-.68,4,4,0,0,1,.78.34s0-.07,0-.13c.21-.67.41-1.34.61-2,.06-.2.09-.41.15-.61a1.88,1.88,0,0,1,.83-1,.42.42,0,0,1,.33,0c.4.17.78.36,1.16.56a1.09,1.09,0,0,1,.29.24.55.55,0,0,0,.42.2A.54.54,0,0,1,11.7,3a.57.57,0,0,1-.5.58.56.56,0,0,1-.6-.45c-.06-.26-.3-.18-.44-.28l-.06,0c.06.45.09.89.18,1.33s.24.92.37,1.38l.19-.18A1.27,1.27,0,0,1,12,5.12a4.55,4.55,0,0,1,1.07.44,1.36,1.36,0,0,1,.74,1.7,6.81,6.81,0,0,1-.43,1.05.79.79,0,0,0-.1.33A5.37,5.37,0,0,1,13,10.78,3.49,3.49,0,0,1,12.26,12a.27.27,0,0,0-.06.24,3.59,3.59,0,0,0,.27.47,4.74,4.74,0,0,1,.38.7c0,.1-.06.26-.11.43A5.72,5.72,0,0,1,14.57,18a5.4,5.4,0,0,1-1.9,4.2c.49,0,1,0,1.45.08.75.06,1.51.15,2.27.23a14.21,14.21,0,0,0,4.77-.32c.44-.11.89-.18,1.35-.25a.75.75,0,0,1,.39,0,5.35,5.35,0,0,0,1.68.3c1.3.12,2.61.21,3.92.33a37,37,0,0,0,4.08.13,26,26,0,0,0,3.05-.43,5.84,5.84,0,0,1,1.77,0v.08a1.13,1.13,0,0,0,0,.15H36.5a13.82,13.82,0,0,0-2.31.33A10.91,10.91,0,0,1,32.8,23c-.94,0-1.89,0-2.83,0s-2-.15-2.94-.24l-2.67-.22a6.25,6.25,0,0,1-1.54-.29,1.47,1.47,0,0,0-.72,0c-.84.15-1.67.38-2.51.47a19.71,19.71,0,0,1-2.77.06c-1,0-2.07-.2-3.11-.28a10.93,10.93,0,0,0-1.4,0,.46.46,0,0,0-.21.08,5.62,5.62,0,0,1-6.1.08,1.45,1.45,0,0,0-.51-.1,13.44,13.44,0,0,0-3,0,5.53,5.53,0,0,0-.66.2,1.66,1.66,0,0,1-.32,0Zm4.73-9.06,0,0L6,13.78a10.73,10.73,0,0,0-.86.79,5.07,5.07,0,0,0-1.3,4.5,5.3,5.3,0,0,0,6.84,4,5.2,5.2,0,0,0,3.61-5.64A5.28,5.28,0,0,0,12.52,14c-.07-.06-.18-.13-.25-.11a4.62,4.62,0,0,1-1.39-.12,2.34,2.34,0,0,0-.87-.06,7.75,7.75,0,0,1-2.54.13H7.1c.08,1.29,0,2.05-.36,2.35l-.2-.31c-.2.13-.39.34-.64.11l-.17.23a.43.43,0,0,1-.15-.48c.11-.4.22-.8.34-1.2S6.09,14,6.17,13.71Zm1.2-7.79a6.15,6.15,0,0,0-1,.63,7.79,7.79,0,0,0-.84,1c-.11.15-.21.31-.32.47S5,8.18,5,8.28A11.84,11.84,0,0,0,5,9.61a2.89,2.89,0,0,0,2.3,2.85,8.45,8.45,0,0,0,3.17.11,2.67,2.67,0,0,0,1.89-1.09A4.23,4.23,0,0,0,13,8.55c0-.06-.07-.12-.1-.18s-.19-.39-.29-.59c0,0,0-.09,0-.12-.33-.32-.64-.68-1-1s-.8-.49-1.18-.77a.35.35,0,0,0-.25,0A5,5,0,0,1,9.64,6C9.3,6,9,6,8.63,6a7.3,7.3,0,0,0-.94.06C7.53,6.08,7.42,6.11,7.37,5.92Zm2.88-.84c-.05-.19-.08-.35-.12-.51S10,4,9.92,3.67s-.09-.62-.14-.93a5.41,5.41,0,0,0-.12-.58.13.13,0,0,0,0-.1l-.43-.31c-.09-.07-.17-.05-.26,0A1.58,1.58,0,0,0,8.29,2.9a.77.77,0,0,1-.07.26c-.17.53-.34,1.06-.5,1.59a.93.93,0,0,0,0,.19c.32.11.61.22.91.31a.83.83,0,0,0,.35,0C9.36,5.23,9.78,5.16,10.25,5.08ZM6.46,6.16l.77-.5a1.28,1.28,0,0,0-.79-.51,2.09,2.09,0,0,0-1.71.51,1.51,1.51,0,0,0,.13,2.21l.22-.16C4.64,7,4.63,6.6,5,6.21A1.1,1.1,0,0,1,6.46,6.16Zm5.09.17A.7.7,0,0,1,12.17,6,1.06,1.06,0,0,1,13,7.61c-.17.26-.15.33.11.58a2.33,2.33,0,0,0,.46-1.46A.86.86,0,0,0,13.22,6a5.9,5.9,0,0,0-1.13-.55,1,1,0,0,0-1.28.42Zm-.89-3.76L10,2.07A.47.47,0,0,0,10.66,2.57Z"/><path d="M18.62,5l3.2,1.13-.09.26L18.54,5.29c0,.09.05.14.08.2.18.38.35.76.55,1.14a.53.53,0,0,0,.26.23c.44.17.88.32,1.33.48l-.09.25-1.25-.43L20,8.32l-.25.12-.58-1.2L18.7,8.46l-.26-.08c.16-.44.3-.87.47-1.3a.51.51,0,0,0,0-.4c-.21-.4-.4-.82-.63-1.28L17.11,8.56l-.26-.1L18,5.34l-.18.06-1.09.5a.41.41,0,0,0-.25.29L16,7.51l-.26-.09.46-1.26-1.26.58L14.8,6.5,16,5.91l-1.2-.43.09-.25,1.32.45a.39.39,0,0,0,.26,0c.44-.19.88-.4,1.38-.63L14.67,3.92l.09-.26L18,4.79c-.1-.2-.16-.35-.24-.5a2.66,2.66,0,0,0-.45-.85,2.63,2.63,0,0,0-.89-.35l-.59-.21.09-.26,1.25.44-.62-1.29.25-.12L17.41,3l.45-1.22.26.09c-.13.36-.23.72-.38,1.05a.83.83,0,0,0,0,.87,9.93,9.93,0,0,1,.45.92l1.15-3.16.26.09L18.49,4.78,20,4.08c.05,0,.09-.11.12-.18l.48-1.29.25.09L20.4,3.89l1.17-.54.13.24-1.26.59,1.27.46-.09.25L20.3,4.42a.51.51,0,0,0-.45,0C19.47,4.64,19.07,4.82,18.62,5Z"/><path d="M34,5l-.26-.09.51-1.4-.05-.06a2.34,2.34,0,0,0-.53.39,2.23,2.23,0,0,0-.24.63l-.26-.09.16-.48-.48.21-.12-.24.47-.23-.44-.17.09-.26c.43.17.84.4,1.25,0L32.7,2.68l.08-.26,1.43.5c-.05-.58-.54-.61-.94-.77l.09-.25.47.15-.23-.5.24-.12.26.51.18-.44.25.08a1.32,1.32,0,0,1-.1.3.7.7,0,0,0,.1.9l.52-1.41.26.1L34.8,2.86l.05.05a2.12,2.12,0,0,0,.56-.35,2.59,2.59,0,0,0,.25-.63l.25.09-.15.43.44-.18.13.23-.49.24.48.18-.08.26c-.44-.15-.87-.44-1.28,0l1.42.5L36.29,4l-1.43-.5c.06.59.51.72,1,.83l-.09.27-.47-.16.19.44-.24.11L35,4.5,34.83,5l-.26-.08a1.72,1.72,0,0,1,.11-.3.81.81,0,0,0-.14-1Z"/><path d="M28.44,7.92c.32-.06.37-.28.37-.55,0-.56,0-1.11,0-1.68L27.77,8l-1-2.24h-.05V7.37c0,.36.05.42.38.55h-.84c.33-.12.38-.2.38-.55s0-1,0-1.46c0-.28,0-.53-.37-.6.2,0,.4,0,.61,0a.22.22,0,0,1,.26.17c.22.56.46,1.12.69,1.68,0,.06,0,.11.09.2.23-.53.45-1,.66-1.53s.22-.52.79-.52h.19c-.38.07-.37.36-.37.63,0,.47,0,.93,0,1.4s.05.43.38.57Z"/><path d="M22.82,8.4l.09-.25.93.32-.41-.87.24-.13.43.88.34-.91.25.09-.32.92L25.26,8l.12.24-.88.42.91.33-.08.26L24.4,9l.41.88-.24.12-.44-.88-.34.91-.25-.09L23.86,9,23,9.4l-.12-.24.89-.42Z"/><path d="M22,19.74l-.89.41L21,19.9l.89-.42L21,19.15l.08-.26.94.32-.42-.87.25-.12.43.87.34-.91.25.08-.32.93.9-.41.11.24-.89.42.92.33L23.5,20l-.94-.32.42.88-.25.12-.43-.88-.33.91-.26-.08Z"/><path d="M17.52,15.26l-.42-.88.25-.11.43.87.33-.91.26.08-.33.92.9-.41.11.25-.88.42.92.33-.09.25-.93-.32.42.88-.25.12-.43-.88-.34.92-.25-.09.32-.92-.89.41L16.53,16l.89-.42-.93-.34.09-.25Z"/><path d="M21.44,11a1.57,1.57,0,0,0-.51,2.1.92.92,0,0,0,.94.44.77.77,0,0,0,.75-.63.68.68,0,0,1-.44.64,1.38,1.38,0,0,1-1.47-.19A1.29,1.29,0,0,1,20.34,12a1.21,1.21,0,0,1,1-1Z"/><path d="M22.82,11l.57-.08v1.28l.2-.13a2,2,0,0,0-.17,1.3c0,.08.12.16.18.23h-.79c.3-.08.29-.29.29-.5,0-.56,0-1.11,0-1.67A.38.38,0,0,0,22.82,11Z"/><path d="M35.58,6.29H36a5.06,5.06,0,0,0-.29.52c-.22.51-.43,1-.64,1.54-.08.17-.19.32-.41.3a.42.42,0,0,1-.17-.1s0-.11,0-.11a.31.31,0,0,1,.19,0c.17.09.25,0,.32-.12a.71.71,0,0,0,0-.65c-.15-.32-.27-.66-.41-1-.06-.14-.14-.26-.21-.39h.7a.26.26,0,0,0-.15.38l.33.87h.06c.11-.33.24-.65.34-1C35.7,6.49,35.61,6.38,35.58,6.29Z"/><path d="M30.57,6.32a.57.57,0,0,1,.78.54h-1.1a.79.79,0,0,0,.37.93c.31.15.53.06.76-.3,0,.31-.26.49-.66.48a.78.78,0,0,1-.85-.75.79.79,0,0,1,.71-.91.57.57,0,0,0-.34.51h.81C31,6.47,30.91,6.33,30.57,6.32Z"/><path d="M29.54,13.63a2.14,2.14,0,0,1-.36,0,.29.29,0,0,1-.28-.33V12.15a.56.56,0,0,0-.07-.19l.37-.51V12h.44v0h-.4c0,.47,0,.92,0,1.36C29.26,13.45,29.44,13.54,29.54,13.63Z"/><path d="M31.61,13.6h-.77c.28-.09.28-.29.29-.48s0-.42,0-.63c0-.36-.09-.42-.44-.46.33-.23.55.08.78.18,0,.34,0,.71,0,1.08C31.45,13.4,31.56,13.5,31.61,13.6Z"/><path d="M30.52,13.6h-.76c.23-.08.24-.28.24-.48v-.64a.38.38,0,0,0-.28-.43l.53-.08.14.26a2.37,2.37,0,0,0-.06,1.13C30.34,13.44,30.45,13.52,30.52,13.6Z"/><path d="M32.79,13.6H32c.22-.07.24-.25.24-.44s0-.42,0-.63c0-.38-.1-.47-.47-.5a.5.5,0,0,1,.77.48c0,.23,0,.47,0,.7S32.58,13.54,32.79,13.6Z"/><path d="M32.28,6.45a2.4,2.4,0,0,0-.1,1.16c0,.11.11.21.16.31h-.72c.38-.17.24-.5.24-.77s.14-.59-.24-.78l.47-.08.06.23.14-.07Z"/><path d="M33.68,6.45a2.53,2.53,0,0,0-.11,1.16c0,.11.12.21.17.31H33c.39-.17.24-.5.24-.77s.14-.59-.23-.78l.47-.08.06.23.14-.07Z"/><path d="M25.59,12.12a2.46,2.46,0,0,0-.11,1.17c0,.11.12.21.17.3h-.73c.39-.16.24-.49.24-.76s.14-.59-.23-.78L25.4,12l.06.24.13-.07Z"/><path d="M33.77,12c.35,0,.48.12.49.45s0,.54,0,.8.09.32.34.23a.35.35,0,0,1-.56.06.93.93,0,0,0-.15-.07c0-.2,0-.42.05-.64,0,0-.06-.07-.09-.11h0a.58.58,0,0,0-.09-.73Z"/><path d="M27.07,13.6h-.76c.39-.17.25-.5.25-.77s.14-.59-.23-.78l.53-.09c0,.42,0,.83,0,1.24A.4.4,0,0,0,27.07,13.6Z"/><path d="M23.87,12l.33,0a.39.39,0,0,1,.34.42v.76c0,.19,0,.35.24.43H24c.26-.08.28-.27.28-.46v-.65C24.23,12.16,24.17,12.07,23.87,12Z"/><path d="M27.75,12c-.2.3-.17.43.17.6a2,2,0,0,1,.35.19.46.46,0,0,1,.14.62.52.52,0,0,1-.65.2h0c.19,0,.37,0,.44-.22s0-.32-.26-.45-.23-.12-.35-.2a.36.36,0,0,1-.17-.41.36.36,0,0,1,.33-.33Z"/><path d="M35.13,13.61c.19,0,.37,0,.44-.22s0-.32-.26-.45-.23-.12-.34-.2a.41.41,0,0,1,.15-.74h0c-.2.3-.16.43.17.6a2.47,2.47,0,0,1,.36.19.47.47,0,0,1,.13.62.52.52,0,0,1-.65.2Z"/><path d="M33.86,12.72l-.31.21a.42.42,0,0,0,0,.73,1.7,1.7,0,0,1-.31-.06.31.31,0,0,1-.23-.34.38.38,0,0,1,.27-.36c.19-.07.39-.12.58-.17Z"/><path d="M22.59,11l0,.79,0,0a1.2,1.2,0,0,0-.65-.81C22.16,10.94,22.36,11.2,22.59,11Z"/><path d="M33.77,12a.33.33,0,0,0-.41.26.24.24,0,0,1-.16.11s-.12-.07-.12-.11a.21.21,0,0,1,.08-.18.66.66,0,0,1,.61-.08Z"/><path d="M32.29,6.45a.41.41,0,0,1,.48-.14c.06,0,.11.08.14.14s0,.11-.06.11a.21.21,0,0,1-.18,0,.32.32,0,0,0-.39-.07Z"/><path d="M25.59,12.13a.43.43,0,0,1,.49-.15.32.32,0,0,1,.13.15s0,.11-.05.11a.29.29,0,0,1-.19-.05.31.31,0,0,0-.38-.07Z"/><path d="M33.69,6.45a.4.4,0,0,1,.48-.14.23.23,0,0,1,.13.14s0,.11,0,.11a.25.25,0,0,1-.19,0,.31.31,0,0,0-.38-.07Z"/><path d="M27,11.12c-.11.07-.18.15-.23.15s-.15-.11-.14-.15a.22.22,0,0,1,.15-.16C26.78,11,26.85,11,27,11.12Z"/><path d="M27.76,13.6h-.35v-.36l.35.37Z"/><path d="M35.13,13.6h-.35v-.36l.35.37Z"/><path d="M35.12,12l.55-.06v.45a.51.51,0,0,0-.55-.4Z"/><path d="M27.75,12l.55-.06v.45a.52.52,0,0,0-.55-.4Z"/><path d="M9.69,15.85a2.22,2.22,0,0,1-.16.36.43.43,0,0,1-.73,0,.72.72,0,0,1-.1-.65.51.51,0,0,1,.45-.38.47.47,0,0,1,.47.36A2.5,2.5,0,0,1,9.69,15.85Z"/><path d="M9.68,18.23a1.21,1.21,0,0,1-.12.35.44.44,0,0,1-.78,0A.71.71,0,0,1,8.7,18a.5.5,0,0,1,.46-.38.48.48,0,0,1,.46.37A1.37,1.37,0,0,1,9.68,18.23Z"/><path d="M9.7,20.64a2.05,2.05,0,0,1-.16.38.42.42,0,0,1-.73,0,1,1,0,0,1-.12-.55.48.48,0,0,1,.5-.47.54.54,0,0,1,.47.51.34.34,0,0,1,0,.1Z"/><path d="M6.87,9.41a2.11,2.11,0,0,1,1.26-.82,3.46,3.46,0,0,1,1.63,0,2.06,2.06,0,0,1,1.13.79h0A2.16,2.16,0,0,1,11.1,11a2,2,0,0,1-1.52,1.49A2.49,2.49,0,0,1,7.25,12,2,2,0,0,1,6.8,9.6l.08-.2Zm0,1.07a1.5,1.5,0,0,0,.54,1.28,2.25,2.25,0,0,0,2.6.24,1.68,1.68,0,0,0,.83-1.65A1.52,1.52,0,0,0,9.7,8.9a2.9,2.9,0,0,0-1.49,0A1.52,1.52,0,0,0,6.91,10.48Z"/><path d="M6.88,9.4c-.12.1-.22.23-.4.14a.43.43,0,0,1-.25-.41.48.48,0,0,1,.22-.45.3.3,0,0,1,.41.14.68.68,0,0,1,0,.59Z"/><path d="M10.89,9.42c0-.14,0-.28,0-.42a.37.37,0,0,1,.33-.35.38.38,0,0,1,.35.36.41.41,0,0,1,0,.19,1,1,0,0,1-.24.34c-.16.11-.28-.06-.41-.13Z"/><path d="M9.89,10.49l-.6.49c-.27.22-.27.4,0,.6l.12.06.24-.17.25-.17.24.31c-.24.16-.46.32-.7.47a.27.27,0,0,1-.19,0c-.4-.27-.4-.27-.79,0a.21.21,0,0,1-.28,0l-.57-.4s0,0,0-.06l.22-.29.38.26a.3.3,0,0,0,.41-.13.39.39,0,0,0,0-.35c-.22-.22-.47-.39-.72-.6l.27-.35a.26.26,0,0,1,.16-.07H9.5a.27.27,0,0,1,.18.1A2.66,2.66,0,0,1,9.89,10.49Z"/></g><g class="cls-3"><path d="M1.1,22.43a1.49,1.49,0,0,1,.41-.26A6.63,6.63,0,0,1,2.66,22c.8,0,1.6,0,2.42,0l-.26-.25a5.29,5.29,0,0,1-1.71-3.4,5.35,5.35,0,0,1,1.15-3.94,5.93,5.93,0,0,1,1.25-1.2.28.28,0,0,0,.14-.25,5.49,5.49,0,0,1,.18-.78.17.17,0,0,0-.07-.23A3.22,3.22,0,0,1,4.33,9.16c0-.39,0-.79,0-1.18a.41.41,0,0,0-.07-.22,2.71,2.71,0,0,1-.59-1.2,1.43,1.43,0,0,1,.36-1.33,2.31,2.31,0,0,1,2.09-.68A4,4,0,0,1,7,4.89l0-.13c.21-.67.41-1.34.61-2,.06-.2.09-.41.15-.61a1.88,1.88,0,0,1,.83-1,.38.38,0,0,1,.33,0c.4.17.78.36,1.16.56a1.09,1.09,0,0,1,.29.24.55.55,0,0,0,.42.2.54.54,0,0,1,.57.51.57.57,0,0,1-.5.58.56.56,0,0,1-.6-.45c-.06-.26-.3-.18-.44-.28l-.06,0c.06.45.09.89.18,1.33s.24.92.37,1.38L10.5,5a1.27,1.27,0,0,1,1.19-.26,4.55,4.55,0,0,1,1.07.44,1.36,1.36,0,0,1,.74,1.7,6.81,6.81,0,0,1-.43,1,.79.79,0,0,0-.1.33,5.37,5.37,0,0,1-.29,2.14,3.49,3.49,0,0,1-.76,1.21.27.27,0,0,0-.06.24,3.59,3.59,0,0,0,.27.47,4.74,4.74,0,0,1,.38.7c0,.1-.06.26-.11.43a5.72,5.72,0,0,1,1.83,4.18,5.43,5.43,0,0,1-1.9,4.2c.49,0,1,0,1.45.08.75.06,1.51.15,2.27.23a14.21,14.21,0,0,0,4.77-.32,11.91,11.91,0,0,1,1.35-.25.75.75,0,0,1,.39,0,5.35,5.35,0,0,0,1.68.3c1.3.12,2.61.21,3.92.33a37,37,0,0,0,4.08.13,26,26,0,0,0,3-.43,5.84,5.84,0,0,1,1.77,0V22a1.13,1.13,0,0,0,0,.15h-.86a13.82,13.82,0,0,0-2.31.33,10.91,10.91,0,0,1-1.39.14c-.94,0-1.89,0-2.83,0s-2-.15-2.94-.24L24,22.21a6.25,6.25,0,0,1-1.54-.29,1.47,1.47,0,0,0-.72,0c-.84.15-1.67.38-2.51.47a19.71,19.71,0,0,1-2.77.06c-1,0-2.07-.2-3.11-.28a10.93,10.93,0,0,0-1.4,0,.46.46,0,0,0-.21.08,5.62,5.62,0,0,1-6.1.08,1.25,1.25,0,0,0-.51-.1,13.44,13.44,0,0,0-3,0,5,5,0,0,0-.66.2,3.16,3.16,0,0,1-.32,0Zm4.73-9.06,0,0-.17.11a10.73,10.73,0,0,0-.86.79,5.07,5.07,0,0,0-1.3,4.5,5.3,5.3,0,0,0,6.84,4,5.2,5.2,0,0,0,3.61-5.64,5.26,5.26,0,0,0-1.72-3.36c-.07-.06-.18-.13-.25-.11a4.62,4.62,0,0,1-1.39-.12,2.34,2.34,0,0,0-.87-.06,7.75,7.75,0,0,1-2.54.13H6.76c.08,1.29,0,2.05-.36,2.35l-.2-.31c-.2.13-.39.34-.64.11l-.17.23a.43.43,0,0,1-.15-.48c.11-.4.22-.8.34-1.2S5.74,13.66,5.83,13.37ZM7,5.58a6.69,6.69,0,0,0-1,.63,8.65,8.65,0,0,0-.83,1c-.11.15-.21.31-.32.47s-.16.19-.16.29a11.84,11.84,0,0,0-.06,1.33,2.89,2.89,0,0,0,2.3,2.85,8.45,8.45,0,0,0,3.17.11A2.67,2.67,0,0,0,12,11.14a4.23,4.23,0,0,0,.7-2.93c0-.06-.07-.12-.1-.18s-.19-.39-.29-.59c0,0,0-.09,0-.12-.33-.32-.64-.68-1-1s-.8-.49-1.18-.77a.35.35,0,0,0-.25,0,5,5,0,0,1-.53.12c-.34,0-.67,0-1,0a7.3,7.3,0,0,0-.94.06C7.19,5.74,7.08,5.77,7,5.58Zm2.88-.84c-.05-.19-.08-.35-.12-.51s-.16-.59-.21-.9-.09-.62-.14-.93a5.41,5.41,0,0,0-.12-.58.13.13,0,0,0,0-.1l-.43-.31c-.09-.07-.17,0-.26,0A1.58,1.58,0,0,0,8,2.56a.77.77,0,0,1-.07.26c-.17.53-.34,1.06-.5,1.59a.54.54,0,0,0,0,.19c.32.11.61.22.91.31a.83.83,0,0,0,.35,0C9,4.89,9.44,4.82,9.91,4.74ZM6.12,5.82l.77-.5a1.28,1.28,0,0,0-.79-.51,2.09,2.09,0,0,0-1.71.51,1.51,1.51,0,0,0,.13,2.21l.22-.16c-.44-.76-.45-1.12,0-1.5A1.1,1.1,0,0,1,6.12,5.82ZM11.21,6a.7.7,0,0,1,.62-.32,1.06,1.06,0,0,1,.87,1.6c-.17.26-.15.33.11.58a2.33,2.33,0,0,0,.46-1.46.86.86,0,0,0-.39-.76,5.9,5.9,0,0,0-1.13-.55,1,1,0,0,0-1.28.42Zm-.89-3.76-.68-.5A.47.47,0,0,0,10.32,2.23Z"/><path d="M18.28,4.68l3.2,1.13-.09.26L18.2,5a1.65,1.65,0,0,1,.07.2c.19.38.36.76.56,1.14a.53.53,0,0,0,.26.23c.44.17.88.32,1.33.48l-.09.25-1.25-.43L19.64,8l-.25.12-.58-1.2-.45,1.22L18.1,8c.16-.44.3-.87.47-1.3a.51.51,0,0,0,0-.4c-.21-.4-.4-.82-.63-1.28L16.77,8.22l-.26-.1L17.65,5l-.18.06-1.09.5a.41.41,0,0,0-.25.28c-.16.44-.32.88-.49,1.33l-.26-.09.46-1.26-1.26.58-.12-.24,1.24-.59-1.2-.43.09-.25,1.32.45a.39.39,0,0,0,.26,0c.44-.19.88-.4,1.38-.63L14.33,3.58l.09-.26,3.21,1.13c-.1-.2-.16-.35-.24-.5a2.66,2.66,0,0,0-.45-.85,2.63,2.63,0,0,0-.89-.35l-.59-.21.09-.26,1.25.44-.62-1.29.25-.12.64,1.32.45-1.22.26.09c-.13.36-.23.72-.38,1a.83.83,0,0,0,0,.87,9.93,9.93,0,0,1,.45.92L19,1.18l.26.09L18.15,4.44l1.47-.7c.06,0,.1-.11.13-.18l.48-1.29.25.09-.42,1.19L21.23,3l.13.24-1.26.59,1.27.46-.09.25L20,4.08a.51.51,0,0,0-.45,0C19.13,4.3,18.73,4.48,18.28,4.68Z"/><path d="M33.68,4.66l-.26-.09.51-1.4,0-.06a2.34,2.34,0,0,0-.53.39,2.23,2.23,0,0,0-.24.63L32.85,4,33,3.56l-.48.21-.12-.24.47-.23-.44-.17.09-.26c.43.17.84.4,1.25,0l-1.42-.51.08-.26,1.43.5c0-.58-.54-.61-.94-.77L33,1.56l.47.15-.23-.5.24-.12.26.51.18-.44.25.08a1.32,1.32,0,0,1-.1.3.7.7,0,0,0,.1.9L34.71,1l.26.1-.51,1.39,0,0a2.12,2.12,0,0,0,.56-.35,2.59,2.59,0,0,0,.25-.63l.25.09-.15.43.44-.18.13.23-.49.24.48.18-.08.26c-.44-.15-.87-.44-1.28,0l1.42.5L36,3.61l-1.43-.5c.06.59.51.72,1,.83l-.09.27-.47-.16.19.44-.24.11-.22-.44-.18.45-.26-.08a1.72,1.72,0,0,1,.11-.3.81.81,0,0,0-.14-1Z"/><path d="M28.1,7.58c.32-.06.37-.28.37-.55,0-.56,0-1.11,0-1.68l-1,2.28-1-2.24h-.05V7c0,.36.05.42.38.55h-.84c.33-.12.38-.2.38-.55s0-1,0-1.46c0-.28,0-.53-.37-.6.2,0,.4,0,.61,0a.22.22,0,0,1,.26.17c.22.56.46,1.12.69,1.68,0,.06,0,.11.09.2.23-.53.45-1,.66-1.53s.22-.52.79-.52h.19c-.38.07-.37.36-.37.63,0,.47,0,.93,0,1.4s.05.43.38.57Z"/><path d="M22.48,8.06l.09-.25.93.32-.41-.87.24-.13.43.88.34-.91.25.09L24,8.1l.89-.4.12.24-.89.42.92.33L25,9l-.93-.32.41.88-.24.12-.44-.88-.34.91-.25-.09.32-.91-.89.4-.12-.24.89-.42Z"/><path d="M21.69,19.4l-.89.4-.12-.24.89-.42-.92-.33.08-.26.94.32L21.25,18l.25-.12.43.87.34-.91.25.08-.32.93.9-.41.11.24-.89.42.92.33-.08.26-.94-.32.42.88-.25.12L22,19.49l-.33.91-.26-.08Z"/><path d="M17.18,14.92,16.76,14l.25-.11.43.87.33-.91L18,14l-.33.92.9-.41.11.25-.88.42.92.33-.09.25-.93-.32.42.88-.25.12-.43-.88-.34.92-.25-.09.32-.92-.89.41-.12-.24.89-.43-.93-.33.09-.25Z"/><path d="M21.1,10.64a1.57,1.57,0,0,0-.51,2.1.92.92,0,0,0,.94.44.78.78,0,0,0,.75-.63.68.68,0,0,1-.44.64A1.38,1.38,0,0,1,20.37,13,1.29,1.29,0,0,1,20,11.61a1.21,1.21,0,0,1,1-1Z"/><path d="M22.48,10.65l.57-.08v1.28l.2-.13a2,2,0,0,0-.17,1.3c0,.08.12.16.18.23h-.79c.3-.08.29-.29.29-.5,0-.56,0-1.11,0-1.67A.38.38,0,0,0,22.48,10.65Z"/><path d="M35.24,6h.39a5.06,5.06,0,0,0-.29.52c-.22.51-.43,1-.64,1.54-.08.17-.19.32-.41.3a.42.42,0,0,1-.17-.1s0-.11,0-.11a.31.31,0,0,1,.19,0c.17.09.25,0,.32-.12a.71.71,0,0,0,0-.65c-.15-.32-.27-.66-.41-1-.06-.14-.14-.26-.21-.39h.7a.26.26,0,0,0-.15.38l.33.87H35c.11-.33.24-.65.34-1C35.36,6.15,35.27,6,35.24,6Z"/><path d="M30.23,6a.57.57,0,0,1,.78.54h-1.1a.79.79,0,0,0,.37.93c.31.15.53.06.76-.3,0,.31-.26.49-.66.48a.78.78,0,0,1-.85-.75A.79.79,0,0,1,30.24,6a.57.57,0,0,0-.34.51h.81C30.7,6.13,30.57,6,30.23,6Z"/><path d="M29.2,13.29a2.14,2.14,0,0,1-.36,0,.29.29,0,0,1-.28-.33V11.81a.56.56,0,0,0-.07-.19l.37-.51v.51h.44v0h-.4c0,.47,0,.92,0,1.36C28.92,13.11,29.1,13.2,29.2,13.29Z"/><path d="M31.27,13.26H30.5c.28-.09.28-.29.29-.48s0-.42,0-.63c0-.36-.09-.42-.44-.47.33-.22.55.09.78.19,0,.34,0,.71,0,1.08C31.11,13.06,31.22,13.16,31.27,13.26Z"/><path d="M30.18,13.26h-.76c.23-.08.24-.28.24-.48v-.64a.38.38,0,0,0-.28-.43l.53-.08.14.26A2.37,2.37,0,0,0,30,13C30,13.1,30.11,13.18,30.18,13.26Z"/><path d="M32.45,13.26h-.78c.22-.07.24-.25.24-.44s0-.42,0-.63c0-.38-.1-.47-.47-.5a.5.5,0,0,1,.77.48c0,.23,0,.47,0,.7S32.24,13.2,32.45,13.26Z"/><path d="M31.94,6.11a2.4,2.4,0,0,0-.1,1.16c0,.11.11.21.16.31h-.72c.38-.17.24-.5.24-.77s.14-.59-.24-.78L31.75,6l.06.23L32,6.11Z"/><path d="M33.34,6.11a2.53,2.53,0,0,0-.11,1.16c0,.11.12.21.17.31h-.73c.39-.17.24-.5.24-.77s.14-.59-.23-.78L33.15,6l.06.23.14-.07Z"/><path d="M25.25,11.78A2.46,2.46,0,0,0,25.14,13c0,.11.12.21.17.3h-.73c.39-.16.24-.49.24-.76s.14-.59-.23-.78l.47-.09.06.24.13-.07Z"/><path d="M33.43,11.66c.35,0,.48.12.49.45s0,.54,0,.8.09.32.33.23a.34.34,0,0,1-.55.06.93.93,0,0,0-.15-.07c0-.2,0-.42,0-.64,0,0-.06-.07-.09-.11h0a.58.58,0,0,0-.09-.73Z"/><path d="M26.73,13.26H26c.39-.17.25-.5.25-.77s.14-.59-.23-.78l.53-.09c0,.42,0,.83,0,1.24A.4.4,0,0,0,26.73,13.26Z"/><path d="M23.53,11.61l.33,0a.39.39,0,0,1,.34.42v.76c0,.19,0,.35.23.43h-.81c.26-.08.28-.27.28-.46v-.65C23.89,11.82,23.83,11.73,23.53,11.61Z"/><path d="M27.41,11.65c-.2.3-.17.43.17.6a2.86,2.86,0,0,1,.35.18.48.48,0,0,1,.14.63.52.52,0,0,1-.65.2h0c.19,0,.37,0,.44-.22s0-.32-.26-.45-.23-.12-.35-.2a.36.36,0,0,1-.17-.41.36.36,0,0,1,.33-.33Z"/><path d="M34.79,13.27c.19,0,.37,0,.44-.22s0-.32-.26-.45-.23-.12-.34-.2a.41.41,0,0,1,.15-.74h0c-.2.3-.16.43.17.6.12.06.25.11.36.18a.48.48,0,0,1,.13.63.52.52,0,0,1-.65.2Z"/><path d="M33.52,12.38l-.31.21a.42.42,0,0,0,0,.73,1.7,1.7,0,0,1-.31-.06.31.31,0,0,1-.23-.34.38.38,0,0,1,.27-.36c.19-.07.39-.12.58-.17Z"/><path d="M22.25,10.66l0,.79,0,0a1.2,1.2,0,0,0-.65-.81C21.82,10.6,22,10.86,22.25,10.66Z"/><path d="M33.43,11.66a.33.33,0,0,0-.41.26.24.24,0,0,1-.16.11s-.12-.07-.12-.11a.21.21,0,0,1,.08-.18.66.66,0,0,1,.61-.08Z"/><path d="M32,6.11A.4.4,0,0,1,32.43,6c.06,0,.11.08.14.14s0,.11-.06.11a.21.21,0,0,1-.18,0,.32.32,0,0,0-.39-.07Z"/><path d="M25.25,11.79a.43.43,0,0,1,.49-.15.32.32,0,0,1,.13.15s0,.11-.05.11a.29.29,0,0,1-.19-.05.31.31,0,0,0-.38-.07Z"/><path d="M33.35,6.11A.39.39,0,0,1,33.83,6a.23.23,0,0,1,.13.14s0,.11-.05.11a.25.25,0,0,1-.19,0,.31.31,0,0,0-.38-.07Z"/><path d="M26.61,10.78c-.11.07-.18.15-.23.15s-.15-.11-.14-.15a.22.22,0,0,1,.15-.16C26.44,10.61,26.51,10.7,26.61,10.78Z"/><path d="M27.42,13.26h-.35V12.9l.35.37Z"/><path d="M34.79,13.26h-.35V12.9l.35.37Z"/><path d="M34.78,11.66l.55-.06v.45a.51.51,0,0,0-.55-.4Z"/><path d="M27.41,11.66,28,11.6v.45a.52.52,0,0,0-.55-.4Z"/><path d="M9.35,15.51a2.22,2.22,0,0,1-.16.36.43.43,0,0,1-.73,0,.72.72,0,0,1-.1-.65.51.51,0,0,1,.45-.38.47.47,0,0,1,.47.36A2.5,2.5,0,0,1,9.35,15.51Z"/><path d="M9.34,17.89a1.21,1.21,0,0,1-.12.35.44.44,0,0,1-.78,0,.71.71,0,0,1-.08-.62.5.5,0,0,1,.46-.38.48.48,0,0,1,.46.37A1.37,1.37,0,0,1,9.34,17.89Z"/><path d="M9.36,20.3a2.05,2.05,0,0,1-.16.38.42.42,0,0,1-.73,0,1,1,0,0,1-.12-.55.47.47,0,0,1,.5-.47.54.54,0,0,1,.47.51.34.34,0,0,1,0,.1Z"/><path d="M6.53,9.07a2.11,2.11,0,0,1,1.26-.82,3.46,3.46,0,0,1,1.63,0,2.06,2.06,0,0,1,1.13.79h0a2.16,2.16,0,0,1,.22,1.59,2,2,0,0,1-1.52,1.49,2.52,2.52,0,0,1-2.34-.54,2.06,2.06,0,0,1-.44-2.36c0-.06,0-.12.08-.19Zm0,1.07a1.5,1.5,0,0,0,.54,1.28,2.25,2.25,0,0,0,2.6.24A1.68,1.68,0,0,0,10.54,10,1.52,1.52,0,0,0,9.36,8.56a2.9,2.9,0,0,0-1.49,0A1.51,1.51,0,0,0,6.57,10.14Z"/><path d="M6.54,9.06c-.12.1-.22.23-.4.14a.43.43,0,0,1-.25-.41.48.48,0,0,1,.22-.45.3.3,0,0,1,.41.14.68.68,0,0,1,0,.59Z"/><path d="M10.55,9.08c0-.14,0-.28,0-.42a.37.37,0,0,1,.33-.35.38.38,0,0,1,.35.36.41.41,0,0,1,0,.19A1.22,1.22,0,0,1,11,9.2c-.16.11-.28-.06-.41-.13Z"/><path d="M9.55,10.15l-.6.49c-.27.22-.27.4,0,.6l.12.06.24-.17L9.59,11l.24.31c-.24.16-.46.32-.7.47a.27.27,0,0,1-.19,0c-.4-.27-.4-.27-.79,0a.21.21,0,0,1-.28,0l-.57-.4s0,0,0-.06L7.47,11l.38.26a.3.3,0,0,0,.41-.13.39.39,0,0,0,0-.35c-.22-.22-.47-.39-.72-.6l.27-.35a.26.26,0,0,1,.16-.07H9.16a.27.27,0,0,1,.18.1A2.66,2.66,0,0,1,9.55,10.15Z"/></g><path class="cls-4" d="M1.29,22.63a1.87,1.87,0,0,1,.41-.26,6.57,6.57,0,0,1,1.16-.21c.8,0,1.6,0,2.42,0L5,21.91a5.39,5.39,0,0,1-.55-7.34,5.93,5.93,0,0,1,1.25-1.2.32.32,0,0,0,.14-.25A5.49,5.49,0,0,1,6,12.34.17.17,0,0,0,6,12.11,3.23,3.23,0,0,1,4.53,9.36a11.84,11.84,0,0,1,0-1.19A.4.4,0,0,0,4.51,8a2.84,2.84,0,0,1-.6-1.2,1.43,1.43,0,0,1,.37-1.33,2.3,2.3,0,0,1,2.09-.68,4.3,4.3,0,0,1,.78.34L7.2,5c.2-.67.41-1.34.61-2,.06-.2.09-.41.14-.62a1.92,1.92,0,0,1,.84-1,.38.38,0,0,1,.33,0c.39.17.78.36,1.16.56a1.09,1.09,0,0,1,.29.24.53.53,0,0,0,.41.2.53.53,0,0,1,.57.5.56.56,0,0,1-.5.59A.55.55,0,0,1,10.46,3c-.06-.26-.3-.17-.44-.27l-.06,0c.06.45.09.89.18,1.33s.24.91.37,1.38l.19-.18A1.27,1.27,0,0,1,11.89,5,4.55,4.55,0,0,1,13,5.42a1.35,1.35,0,0,1,.74,1.7,7.31,7.31,0,0,1-.44,1,1,1,0,0,0-.09.32,5.39,5.39,0,0,1-.29,2.15,3.49,3.49,0,0,1-.76,1.21.24.24,0,0,0-.06.24,4.39,4.39,0,0,0,.27.47,4.74,4.74,0,0,1,.38.7c0,.1-.06.26-.12.43a5.7,5.7,0,0,1,1.84,4.18,5.44,5.44,0,0,1-1.9,4.2c.49,0,1,0,1.44.08.76.06,1.52.15,2.28.23A13.88,13.88,0,0,0,21,22.05c.45-.11.9-.17,1.35-.24a.78.78,0,0,1,.4,0,5.65,5.65,0,0,0,1.67.3c1.31.12,2.62.21,3.93.33a36.92,36.92,0,0,0,4.08.13,26,26,0,0,0,3.05-.43,5.77,5.77,0,0,1,1.76,0s0,.06,0,.08a.83.83,0,0,1,0,.15h-.85a14.09,14.09,0,0,0-2.32.33,10.58,10.58,0,0,1-1.38.14c-.95,0-1.89,0-2.84,0s-1.95-.15-2.93-.23-1.78-.14-2.68-.23a5.81,5.81,0,0,1-1.53-.28,1.6,1.6,0,0,0-.72,0c-.84.16-1.67.39-2.51.48a19.71,19.71,0,0,1-2.77.06c-1-.05-2.07-.21-3.11-.28a13.08,13.08,0,0,0-1.4,0,.64.64,0,0,0-.21.09,5.64,5.64,0,0,1-6.11.08,1.18,1.18,0,0,0-.5-.1,13.44,13.44,0,0,0-3,0,5,5,0,0,0-.66.2,3.16,3.16,0,0,1-.32,0ZM6,13.57l0,0-.17.11a9.26,9.26,0,0,0-.86.79,5,5,0,0,0-1.3,4.5,5.3,5.3,0,0,0,6.84,4,5.2,5.2,0,0,0,3.61-5.64,5.35,5.35,0,0,0-1.72-3.37.4.4,0,0,0-.26-.11,4.28,4.28,0,0,1-1.38-.11,2.34,2.34,0,0,0-.87-.06,7.76,7.76,0,0,1-2.54.13H7c.09,1.28,0,2-.35,2.34l-.2-.31c-.2.14-.39.35-.64.12l-.17.23a.43.43,0,0,1-.15-.48c.1-.4.22-.8.34-1.2S5.94,13.86,6,13.57Zm1.2-7.79a6.69,6.69,0,0,0-1,.63,7.07,7.07,0,0,0-.83,1A4.87,4.87,0,0,0,5,7.85c-.06.09-.16.19-.17.29a11.74,11.74,0,0,0,0,1.33,2.89,2.89,0,0,0,2.3,2.85,8.45,8.45,0,0,0,3.17.11,2.67,2.67,0,0,0,1.89-1.09,4.23,4.23,0,0,0,.7-2.93c0-.06-.07-.12-.1-.18s-.2-.39-.29-.59c0,0,0-.09,0-.12a13.05,13.05,0,0,0-1-1c-.36-.29-.79-.49-1.17-.77a.35.35,0,0,0-.25,0,5,5,0,0,1-.53.12c-.34,0-.68,0-1,0a5.86,5.86,0,0,0-.94.06C7.39,5.94,7.27,6,7.23,5.78Zm2.87-.84c0-.19-.07-.35-.11-.51s-.16-.6-.21-.9-.09-.62-.14-.94S9.56,2.21,9.52,2s0-.09,0-.11l-.43-.3c-.09-.07-.17-.05-.26,0a1.58,1.58,0,0,0-.64,1.12A.77.77,0,0,1,8.08,3c-.17.53-.34,1.06-.5,1.59a1,1,0,0,0,0,.18l.92.32a1,1,0,0,0,.35,0ZM6.32,6l.77-.5A1.37,1.37,0,0,0,6.3,5a2.15,2.15,0,0,0-1.71.51,1.52,1.52,0,0,0,.13,2.22l.22-.16c-.44-.76-.45-1.12,0-1.5A1.09,1.09,0,0,1,6.32,6Zm5.09.16A.72.72,0,0,1,12,5.86a1.07,1.07,0,0,1,.86,1.61c-.16.25-.14.33.12.58a2.41,2.41,0,0,0,.46-1.46.86.86,0,0,0-.39-.76A5.9,5.9,0,0,0,12,5.28a1,1,0,0,0-1.28.42Zm-.89-3.75-.68-.5A.47.47,0,0,0,10.52,2.43Z"/><path class="cls-4" d="M18.48,4.88,21.68,6l-.09.26L18.4,5.15l.07.19c.18.39.36.77.56,1.14a.55.55,0,0,0,.26.24c.43.17.88.31,1.33.47l-.09.26L19.28,7l.55,1.17-.25.11L19,7.1l-.45,1.22-.26-.09c.15-.43.3-.87.47-1.29a.47.47,0,0,0,0-.4c-.2-.4-.39-.82-.62-1.28L17,8.41l-.26-.09L17.85,5.2a.63.63,0,0,0-.18.06l-1.09.5a.45.45,0,0,0-.26.28c-.15.44-.31.88-.48,1.33l-.26-.09L16,6l-1.25.58-.12-.24,1.24-.59-1.2-.43.09-.25,1.32.45a.39.39,0,0,0,.26,0c.44-.19.88-.4,1.38-.63L14.53,3.78l.09-.26,3.21,1.13-.24-.5a2.56,2.56,0,0,0-.45-.85A2.72,2.72,0,0,0,16.25,3l-.59-.22.09-.25L17,2.91l-.62-1.28.25-.12.64,1.32.45-1.22L18,1.7a10.85,10.85,0,0,1-.39,1.05.85.85,0,0,0,.05.87c.16.27.28.57.45.91l1.15-3.15.26.08L18.35,4.64l1.47-.7A.35.35,0,0,0,20,3.76c.16-.43.31-.86.48-1.3l.25.1-.43,1.19,1.18-.54.12.24L20.3,4l1.27.45-.09.26-1.33-.47a.52.52,0,0,0-.44,0C19.32,4.5,18.93,4.67,18.48,4.88Z"/><path class="cls-4" d="M33.88,4.86l-.26-.09.51-1.4-.05-.06a2.66,2.66,0,0,0-.53.38,2.3,2.3,0,0,0-.24.64l-.26-.09.16-.48L32.73,4l-.12-.24.47-.23-.44-.17.09-.26c.43.17.84.4,1.25,0l-1.42-.51.08-.26,1.43.5c0-.58-.54-.61-.94-.77l.09-.25.47.15-.23-.5.24-.12L34,1.8l.18-.45.25.09a2.11,2.11,0,0,1-.1.3.7.7,0,0,0,.1.9l.52-1.41.26.1-.51,1.39,0,0a1.84,1.84,0,0,0,.56-.35,2.08,2.08,0,0,0,.25-.63l.26.09-.15.43.44-.18.12.23-.48.24.48.18L36.09,3c-.43-.15-.86-.44-1.27,0l1.41.5-.08.25-1.44-.5c.07.59.52.73,1,.84l-.09.27-.47-.16.19.44-.24.11-.22-.44-.18.45-.26-.08a1.72,1.72,0,0,1,.11-.3.81.81,0,0,0-.14-1Z"/><path class="cls-4" d="M28.3,7.78c.31-.06.37-.29.37-.55,0-.56,0-1.12,0-1.69l-1,2.28-1-2.23h-.05V7.23c0,.35.05.42.38.55h-.84c.32-.12.38-.21.38-.55V5.77c0-.28,0-.53-.36-.6.2,0,.4,0,.61,0a.22.22,0,0,1,.26.18c.22.56.46,1.12.69,1.68l.09.2c.23-.53.45-1,.66-1.53s.22-.52.79-.52h.19c-.38.07-.37.35-.38.63,0,.47,0,.93,0,1.4s.05.43.37.57Z"/><path class="cls-4" d="M22.67,8.26,22.76,8l.94.32-.42-.88.25-.12.43.88.33-.91.26.08-.32.92.89-.4.12.24-.89.42.92.33-.08.26-.94-.32.42.88-.24.12L24,9l-.34.91-.25-.1.32-.91-.89.41L22.71,9l.89-.42Z"/><path class="cls-4" d="M21.89,19.59,21,20l-.12-.24.89-.42L20.85,19l.08-.26.94.32-.42-.88.24-.12.44.88.34-.91.25.08L22.4,19l.89-.4.12.24-.89.42.92.33-.08.26-.94-.32.42.88-.25.11-.43-.87-.34.91-.25-.09Z"/><path class="cls-4" d="M17.37,15.11,17,14.24l.25-.12.42.87.34-.91.26.09-.33.92.9-.41.11.25-.88.42.92.33-.09.25-.93-.32.41.88-.24.12-.43-.88-.34.91-.25-.09.32-.91-.89.41-.12-.25.89-.42-.93-.33.09-.26Z"/><path class="cls-4" d="M21.3,10.83a1.59,1.59,0,0,0-.51,2.11.92.92,0,0,0,.94.44.77.77,0,0,0,.74-.63.66.66,0,0,1-.43.64,1.38,1.38,0,0,1-1.47-.19,1.29,1.29,0,0,1-.37-1.39,1.24,1.24,0,0,1,1-1Z"/><path class="cls-4" d="M22.68,10.85l.57-.09V12l.2-.12a1.91,1.91,0,0,0-.17,1.3c0,.08.12.16.18.23h-.79c.3-.08.28-.3.28-.5V11.28A.36.36,0,0,0,22.68,10.85Z"/><path class="cls-4" d="M35.44,6.15h.39a5.06,5.06,0,0,0-.29.52L34.89,8.2c-.07.18-.18.33-.4.3a.28.28,0,0,1-.17-.1s0-.1,0-.1a.31.31,0,0,1,.19,0c.17.09.25,0,.32-.12a.74.74,0,0,0,0-.65c-.15-.33-.27-.67-.41-1-.06-.13-.14-.26-.21-.38H35c-.22.1-.2.23-.15.38s.22.58.32.87h.06c.12-.33.25-.65.35-1C35.55,6.35,35.47,6.24,35.44,6.15Z"/><path class="cls-4" d="M30.43,6.17a.59.59,0,0,1,.78.55h-1.1a.79.79,0,0,0,.37.93c.3.15.52.06.76-.3,0,.31-.26.48-.66.48a.78.78,0,0,1-.85-.75.79.79,0,0,1,.7-.91.57.57,0,0,0-.33.51h.81C30.89,6.33,30.76,6.19,30.43,6.17Z"/><path class="cls-4" d="M29.4,13.49H29a.29.29,0,0,1-.28-.33c0-.39,0-.77,0-1.15a.82.82,0,0,0-.06-.19l.37-.51v.5h.44v0h-.41c0,.47,0,.92,0,1.36C29.12,13.31,29.3,13.4,29.4,13.49Z"/><path class="cls-4" d="M31.47,13.46H30.7c.28-.09.28-.29.29-.48s0-.42,0-.63-.1-.42-.44-.47c.33-.22.55.09.78.19,0,.34,0,.71,0,1.08A1,1,0,0,0,31.47,13.46Z"/><path class="cls-4" d="M30.38,13.46h-.76c.23-.08.24-.28.24-.49s0-.42,0-.63a.38.38,0,0,0-.28-.43l.53-.08.14.26a2.25,2.25,0,0,0-.06,1.13C30.19,13.3,30.31,13.38,30.38,13.46Z"/><path class="cls-4" d="M32.64,13.46h-.77c.22-.08.24-.25.24-.44s0-.42,0-.63c0-.38-.09-.47-.46-.5a.5.5,0,0,1,.77.48c0,.23,0,.46,0,.7S32.44,13.4,32.64,13.46Z"/><path class="cls-4" d="M32.14,6.31A2.53,2.53,0,0,0,32,7.47c0,.11.12.21.17.3h-.73c.39-.16.24-.49.24-.76s.15-.59-.23-.78L32,6.14l.06.24.14-.07Z"/><path class="cls-4" d="M33.54,6.31a2.4,2.4,0,0,0-.11,1.16c0,.11.12.21.17.3h-.73c.39-.16.24-.49.24-.76s.14-.59-.23-.78l.47-.09.06.24.13-.07Z"/><path class="cls-4" d="M25.45,12a2.46,2.46,0,0,0-.11,1.17.83.83,0,0,0,.17.3h-.73c.39-.16.24-.5.24-.76s.14-.6-.23-.78l.47-.09,0,.24.14-.07Z"/><path class="cls-4" d="M33.63,11.86c.35,0,.48.12.49.45s0,.53,0,.8.09.32.33.23a.34.34,0,0,1-.55.06.48.48,0,0,0-.15-.07c0-.2,0-.42.05-.64,0,0-.06-.07-.09-.11h0a.58.58,0,0,0-.09-.73Z"/><path class="cls-4" d="M26.93,13.46h-.76c.39-.17.25-.5.25-.77s.14-.59-.23-.78l.53-.09c0,.42,0,.83,0,1.24A.4.4,0,0,0,26.93,13.46Z"/><path class="cls-4" d="M23.73,11.81l.33,0a.37.37,0,0,1,.33.42c0,.25,0,.51,0,.76s0,.35.23.43h-.81c.26-.09.27-.27.28-.46v-.66C24.09,12,24,11.93,23.73,11.81Z"/><path class="cls-4" d="M27.6,11.85c-.2.3-.16.43.18.6a2.86,2.86,0,0,1,.35.18.49.49,0,0,1,.14.63.53.53,0,0,1-.65.2h0c.2,0,.38,0,.45-.21s0-.33-.26-.45l-.35-.2a.37.37,0,0,1-.17-.42.36.36,0,0,1,.33-.32Z"/><path class="cls-4" d="M35,13.46c.19,0,.37,0,.44-.21s0-.33-.26-.45l-.35-.2a.37.37,0,0,1-.17-.42.36.36,0,0,1,.33-.32h0c-.21.3-.17.43.17.6a2.86,2.86,0,0,1,.35.18.48.48,0,0,1,.14.63.53.53,0,0,1-.65.2Z"/><path class="cls-4" d="M33.72,12.58l-.31.21a.42.42,0,0,0,0,.73,1.42,1.42,0,0,1-.31-.06.31.31,0,0,1-.23-.34.37.37,0,0,1,.27-.36c.19-.07.39-.12.58-.18Z"/><path class="cls-4" d="M22.45,10.86l0,.78,0,0a1.19,1.19,0,0,0-.66-.81C22,10.8,22.22,11.05,22.45,10.86Z"/><path class="cls-4" d="M33.63,11.85a.35.35,0,0,0-.42.27c0,.05-.09.1-.15.11a.16.16,0,0,1-.12-.12.2.2,0,0,1,.08-.17.66.66,0,0,1,.61-.08Z"/><path class="cls-4" d="M32.15,6.31a.41.41,0,0,1,.48-.15.28.28,0,0,1,.13.15s0,.11,0,.11a.3.3,0,0,1-.19,0,.29.29,0,0,0-.38-.06Z"/><path class="cls-4" d="M25.45,12a.43.43,0,0,1,.49-.15.35.35,0,0,1,.13.14s0,.12-.05.12a.29.29,0,0,1-.19,0,.31.31,0,0,0-.38-.07Z"/><path class="cls-4" d="M33.54,6.31A.43.43,0,0,1,34,6.16a.32.32,0,0,1,.13.15s0,.11,0,.11a.29.29,0,0,1-.19,0,.29.29,0,0,0-.38-.06Z"/><path class="cls-4" d="M26.81,11c-.11.07-.18.15-.23.14s-.16-.1-.15-.14a.3.3,0,0,1,.16-.17C26.64,10.8,26.7,10.9,26.81,11Z"/><path class="cls-4" d="M27.62,13.46h-.35V13.1l.34.36Z"/><path class="cls-4" d="M35,13.46h-.35V13.1l.35.36Z"/><path class="cls-4" d="M35,11.86l.55-.06v.45a.51.51,0,0,0-.55-.4Z"/><path class="cls-4" d="M27.61,11.86l.54-.06v.45a.5.5,0,0,0-.55-.4Z"/><path class="cls-4" d="M9.55,15.71a2.22,2.22,0,0,1-.16.36.43.43,0,0,1-.73,0,.69.69,0,0,1-.1-.65A.5.5,0,0,1,9,15a.47.47,0,0,1,.47.35C9.51,15.48,9.52,15.57,9.55,15.71Z"/><path class="cls-4" d="M9.54,18.09a1.82,1.82,0,0,1-.12.35.44.44,0,0,1-.78,0,.72.72,0,0,1-.08-.62A.5.5,0,0,1,9,17.45a.48.48,0,0,1,.46.36A1.7,1.7,0,0,1,9.54,18.09Z"/><path class="cls-4" d="M9.55,20.49a2.62,2.62,0,0,1-.15.39.42.42,0,0,1-.73,0,1.07,1.07,0,0,1-.12-.56.49.49,0,0,1,.5-.47.55.55,0,0,1,.47.52v.1Z"/><path class="cls-4" d="M6.73,9.27A2.11,2.11,0,0,1,8,8.45a3.29,3.29,0,0,1,1.62,0,2.12,2.12,0,0,1,1.14.78h0A2.16,2.16,0,0,1,11,10.86a2,2,0,0,1-1.53,1.49,2.5,2.5,0,0,1-2.33-.54,2.06,2.06,0,0,1-.44-2.36c0-.06,0-.13.08-.19Zm0,1.07a1.49,1.49,0,0,0,.53,1.27,2.23,2.23,0,0,0,2.61.24,1.66,1.66,0,0,0,.83-1.64A1.53,1.53,0,0,0,9.55,8.76a2.76,2.76,0,0,0-1.48,0A1.51,1.51,0,0,0,6.77,10.34Z"/><path class="cls-4" d="M6.74,9.26c-.12.1-.23.22-.41.14A.43.43,0,0,1,6.09,9a.45.45,0,0,1,.22-.45.3.3,0,0,1,.41.14.68.68,0,0,1,0,.59Z"/><path class="cls-4" d="M10.75,9.27a2.71,2.71,0,0,1,0-.41.34.34,0,1,1,.68,0,.41.41,0,0,1,0,.19,1.22,1.22,0,0,1-.24.34c-.16.11-.28-.06-.41-.13Z"/><path class="cls-4" d="M9.75,10.35l-.6.49c-.28.22-.27.4,0,.59l.12.07.24-.17.24-.17.24.31-.69.47a.27.27,0,0,1-.19,0c-.4-.27-.41-.27-.8,0a.19.19,0,0,1-.27,0l-.57-.39,0-.06.22-.29.38.26a.3.3,0,0,0,.41-.13.44.44,0,0,0,0-.36c-.22-.21-.47-.39-.72-.59.09-.12.17-.24.27-.35a.26.26,0,0,1,.16-.07H9.36a.27.27,0,0,1,.18.1A2.66,2.66,0,0,1,9.75,10.35Z"/></g></g></svg>