<svg xmlns="http://www.w3.org/2000/svg" viewBox="0 0 38.55 24.66"><defs><style>.cls-1{isolation:isolate;}.cls-2{opacity:0.15;}.cls-2,.cls-3{mix-blend-mode:multiply;}.cls-4{fill:#fff;}</style></defs><title>convert-FIX-SVG-03</title><g class="cls-1"><g id="Layer_1" data-name="Layer 1"><g class="cls-2"><path d="M35.52,3.46l-.13-.09a.83.83,0,0,1-.21-1.26,1,1,0,0,1,1.32,0,1.14,1.14,0,0,1-.12,1.67,2.32,2.32,0,0,1-1.24.46,10.86,10.86,0,0,1-1.28.08H25.39a.34.34,0,0,1-.34-.19,1.56,1.56,0,0,0-2.32-.43.8.8,0,0,0-.37.64,3.22,3.22,0,0,1-2.77,2.69,3.08,3.08,0,0,1-3.16-1.9,8.08,8.08,0,0,1-.29-1.1s0-.13-.06-.15a4.7,4.7,0,0,0-.92-.47,1.46,1.46,0,0,0-1.67.73.32.32,0,0,1-.32.18H4.64a5.06,5.06,0,0,1-1.82-.22,2.46,2.46,0,0,1-.68-.36,1.11,1.11,0,0,1-.3-1.33A1,1,0,0,1,3,1.9a.66.66,0,0,1,.53.54.77.77,0,0,1-.21.83l-.28.19a3.76,3.76,0,0,0,1.18.21c.13,0,.25,0,.38,0,2.72,0,5.45,0,8.17,0a.42.42,0,0,0,.29-.11,2.27,2.27,0,0,1,2.71-.63l.09,0c.25-.33.51-.64.73-1a3.09,3.09,0,0,1,5.4.09,7.48,7.48,0,0,0,.63.83,8.74,8.74,0,0,1,1.18-.16,2,2,0,0,1,1.6.79.39.39,0,0,0,.32.15H34a10.76,10.76,0,0,0,1.26-.13A.88.88,0,0,0,35.52,3.46Zm-13.78.41a3.22,3.22,0,0,0-.87-2.33A2.12,2.12,0,0,0,18,1.26a3.22,3.22,0,0,0-.21,4.8,2.08,2.08,0,0,0,2.8.17A3,3,0,0,0,21.74,3.87Z"/><path d="M35.47,21.2c-.28-.05-.56-.12-.84-.15a7.86,7.86,0,0,0-.84,0h-8a.42.42,0,0,0-.36.16,2.25,2.25,0,0,1-2.62.61l-.13-.06c-.23.32-.49.62-.69,1a3.12,3.12,0,0,1-5.41,0c-.2-.34-.46-.64-.68-.95a6.82,6.82,0,0,1-.71.19,2.14,2.14,0,0,1-2-.76A.41.41,0,0,0,12.8,21H4.69c-.45,0-.9.07-1.35.11a2.54,2.54,0,0,0-.31.09c.05,0,.06.06.09.07a.81.81,0,0,1,.34,1.14A.91.91,0,0,1,2,22.53a1.13,1.13,0,0,1,.18-1.66,2.61,2.61,0,0,1,1.32-.45,10.88,10.88,0,0,1,1.14-.06h8.5a.35.35,0,0,1,.34.19,1.57,1.57,0,0,0,2.54.24c.07-.06.07-.19.09-.29a3.24,3.24,0,0,1,1.16-2.19,3.07,3.07,0,0,1,4.51.58,3.25,3.25,0,0,1,.61,1.64.48.48,0,0,0,.27.41,2.07,2.07,0,0,0,.91.37,1.5,1.5,0,0,0,1.47-.78.28.28,0,0,1,.26-.17l9.17,0a3.46,3.46,0,0,1,1.58.34,1.19,1.19,0,0,1,.71,1.35,1,1,0,0,1-1.38.7.84.84,0,0,1-.2-1.31,2.48,2.48,0,0,1,.26-.19Zm-13.69-.26a3.29,3.29,0,0,0-.88-2.25,2.16,2.16,0,0,0-3.11-.14,3.26,3.26,0,0,0-.07,4.66,2.13,2.13,0,0,0,2.9.18A3.19,3.19,0,0,0,21.78,20.94Z"/><path d="M10.51,12.49a1.2,1.2,0,0,1,.64.59c.16.23.27.52.6.58,0,0,0,.05,0,.07-.54.1-.62.07-.89-.37l-.32-.52c-.21-.3-.28-.33-.68-.3,0,.29,0,.58,0,.86a.22.22,0,0,0,.23.23l.16.06v.07H8.78a.39.39,0,0,1-.39-.19c-.16-.25-.32-.5-.47-.75a.55.55,0,0,0-.67-.27c0,.28,0,.56,0,.84a.23.23,0,0,0,.24.24l.15,0v.06H6.51l0,0s.08-.06.13-.06c.2,0,.26-.13.25-.32,0-.57,0-1.14,0-1.71,0-.2-.07-.31-.28-.32,0,0-.07,0-.11-.06s0-.05,0-.05c.45,0,.91,0,1.35,0s.64.27.66.59-.19.57-.64.69c.43.17.58.57.82.89,0,.07.1.16.17.18a1.13,1.13,0,0,0,.48,0c.06,0,.12-.2.12-.31,0-.53,0-1.06,0-1.59,0-.32,0-.32-.32-.41,0,0,0,0-.06,0s0-.05,0-.05c.43,0,.86,0,1.29,0a.66.66,0,0,1,.71.59C11.19,12.11,11,12.34,10.51,12.49Zm-3.25-.08c.29,0,.61.1.8-.23A.71.71,0,0,0,8,11.46c-.21-.24-.48-.17-.75-.16Zm2.63-1.12v1.12c.29,0,.61.1.78-.22a.64.64,0,0,0,0-.7C10.47,11.21,10.17,11.3,9.89,11.29Z"/><path d="M23.71,11.19h1.12l0,0a.67.67,0,0,1-.18.07.21.21,0,0,0-.2.23v1.86a.22.22,0,0,0,.21.24l.17,0v.07H23.35a.41.41,0,0,1-.4-.21c-.15-.23-.31-.47-.45-.71a.54.54,0,0,0-.67-.29c0,.28,0,.56,0,.84a.24.24,0,0,0,.26.25.35.35,0,0,1,.13,0v.05H21.08l0,0a1,1,0,0,1,.15-.07.23.23,0,0,0,.24-.26c0-.61,0-1.21,0-1.82a.22.22,0,0,0-.23-.25l-.15-.05V11.2l.11,0c.45,0,.89,0,1.33.05a.59.59,0,0,1,.6.59.64.64,0,0,1-.56.64l-.07,0c.41.15.56.52.77.83a.58.58,0,0,0,.57.32c.17,0,.27-.11.27-.27V11.55a.24.24,0,0,0-.25-.26.42.42,0,0,1-.15,0Zm-1.88,1.22c.29,0,.59.1.79-.21a.74.74,0,0,0,0-.72c-.21-.26-.49-.18-.77-.19Z"/><path d="M14.77,19.85a.7.7,0,0,1-.45.48.53.53,0,0,1-.73-.46,1,1,0,0,1,.3-.82,10.13,10.13,0,0,1,.79-.68.19.19,0,0,1,.16,0,2.88,2.88,0,0,1,1,.94,1.06,1.06,0,0,1,.13.46.53.53,0,0,1-.39.6.65.65,0,0,1-.69-.3A1.2,1.2,0,0,1,14.77,19.85Z"/><path d="M23.67,18.23c.35.35.68.64,1,1a1.13,1.13,0,0,1,.2.52.53.53,0,0,1-.36.62.63.63,0,0,1-.73-.28l-.09-.17a1.57,1.57,0,0,1-.24.32.59.59,0,0,1-.67.11.51.51,0,0,1-.28-.59,1.43,1.43,0,0,1,.28-.64A9.72,9.72,0,0,1,23.67,18.23Z"/><path d="M23.66,5a.68.68,0,0,1,.5-.5.53.53,0,0,1,.68.6,1,1,0,0,1-.2.54,9.06,9.06,0,0,1-.91.84.15.15,0,0,1-.16,0,12.07,12.07,0,0,1-.91-.84.94.94,0,0,1-.19-.52.53.53,0,0,1,.35-.61.65.65,0,0,1,.73.28Z"/><path d="M14.77,5l.1-.22a.66.66,0,0,1,.77-.28.62.62,0,0,1,.31.75,1.52,1.52,0,0,1-.64.87c-.65.5-.41.5-1.07,0a2.19,2.19,0,0,1-.46-.5,1.08,1.08,0,0,1-.18-.44.57.57,0,0,1,.36-.7.66.66,0,0,1,.77.4Z"/><path d="M3.31,11.59c-.26.62-.51,1.24-.78,1.86a1.92,1.92,0,0,1-.18.31,2.28,2.28,0,0,1-.17-.3c-.27-.63-.53-1.26-.83-1.89v1.58c0,.35,0,.36.34.49,0,0,0,0,.07.1h-1c.08-.06.11-.1.15-.1a.33.33,0,0,0,.3-.37q0-.82,0-1.65c0-.18-.06-.32-.28-.33,0,0-.07,0-.11,0v-.06c.26,0,.51,0,.77,0,0,0,.08.1.1.16.26.62.51,1.24.78,1.88l.61-1.47c.09-.2.13-.46.27-.56s.41,0,.62,0a.22.22,0,0,1,.15.06s-.09.06-.13.06a.26.26,0,0,0-.26.3v1.76c0,.17.07.28.26.29,0,0,.08,0,.11.1H3l0,0a.54.54,0,0,1,.13-.07c.14,0,.25-.08.25-.23V11.6Z"/><path d="M31.91,11.59l-.78,1.86a3.21,3.21,0,0,1-.19.31c-.06-.1-.12-.2-.17-.3-.26-.63-.52-1.26-.82-1.89v1.58c0,.35,0,.36.33.49,0,0,0,0,.07.1h-1c.08-.06.11-.1.14-.1a.35.35,0,0,0,.31-.37c0-.55,0-1.1,0-1.65,0-.18-.07-.32-.28-.33a.31.31,0,0,1-.12,0v-.06c.25,0,.51,0,.76,0,0,0,.08.1.11.16.25.62.51,1.24.78,1.88.2-.5.41-1,.61-1.47.08-.2.12-.46.27-.56s.41,0,.62,0a.2.2,0,0,1,.14.06s-.09.06-.13.06a.26.26,0,0,0-.26.3v1.76c0,.17.07.28.26.29s.09,0,.12.1H31.57l0,0a.91.91,0,0,1,.14-.07c.14,0,.24-.08.25-.23V11.6Z"/><path d="M19.77,13.68l.15,0a.23.23,0,0,0,.24-.26v-.88H18.88c0,.32,0,.64,0,1,0,.07.14.13.22.18a.67.67,0,0,0,.15.06l0,.05H18.12l0,0a.41.41,0,0,1,.15-.07c.16,0,.23-.1.23-.26v-1.8a.24.24,0,0,0-.25-.28.43.43,0,0,1-.13,0v-.05h1.13l0,.05a.47.47,0,0,1-.15.06.24.24,0,0,0-.25.25c0,.25,0,.49,0,.75h1.3c0-.27,0-.53,0-.8,0-.07-.13-.14-.21-.19s-.11,0-.17-.06l0-.06h1.12l0,.05-.16.06a.23.23,0,0,0-.23.26q0,.9,0,1.8a.25.25,0,0,0,.25.28.28.28,0,0,1,.14.06v0H19.79Z"/><path d="M6.15,11.2l.07.61c-.17-.18-.3-.41-.48-.48a2,2,0,0,0-.7,0v1c.31,0,.43.12.67-.32v.89c-.09-.16-.14-.31-.24-.37A1.11,1.11,0,0,0,5,12.43c0,.35,0,.68,0,1,0,.07.19.17.29.18.59.07.82-.09,1-.66.09.07.1.47,0,.79H4.26l0-.05s.09-.06.13-.06a.26.26,0,0,0,.27-.29c0-.59,0-1.18,0-1.78a.26.26,0,0,0-.26-.28.37.37,0,0,1-.14,0V11.2Z"/><path d="M35.63,13.75H34.57l0-.05c.05,0,.1-.06.14-.06s.19-.11.14-.25c-.19-.52-.19-.52-.73-.52h-.05c-.49,0-.49,0-.67.47-.08.21-.06.24.17.3l.09,0s0,0,0,.06h-.88s0-.1.08-.1c.24,0,.32-.17.39-.35.27-.66.54-1.32.82-2a.62.62,0,0,1,.14-.19.79.79,0,0,1,.14.18c.29.65.57,1.3.85,1.95.08.18.15.36.38.39C35.58,13.65,35.59,13.69,35.63,13.75Zm-1.55-2.16-.45,1.13h.91Z"/><path d="M18,13.05c0,.06,0,.13,0,.18a1.36,1.36,0,0,1-1.45.56,1.26,1.26,0,0,1-.95-1.13,1.35,1.35,0,0,1,.95-1.51,1.54,1.54,0,0,1,1.18.21l.14-.19h.06v.92l-.05,0c0-.1-.08-.19-.11-.28a.87.87,0,0,0-1-.58.74.74,0,0,0-.51.38,1.7,1.7,0,0,0-.09,1.41.86.86,0,0,0,.7.58,1,1,0,0,0,1-.42l.12-.17Z"/><path d="M12.79,11.26l-.16,0c-.11,0-.17.07-.1.18.18.33.37.65.57,1,.2-.35.39-.66.58-1,.07-.13,0-.18-.11-.2l-.21-.05v-.06h.94c-.06.06-.08.1-.11.1a.58.58,0,0,0-.45.35,3,3,0,0,1-.23.38,1.65,1.65,0,0,0-.35,1.3c0,.19.06.31.27.32a.31.31,0,0,1,.12,0v.05H12.42l0,0a.91.91,0,0,1,.14-.07.24.24,0,0,0,.25-.29v0A1.64,1.64,0,0,0,12.42,12a3.18,3.18,0,0,1-.28-.43.52.52,0,0,0-.38-.29s0,0-.12-.09h1.14Z"/><path d="M26.44,11.25l.12-.13v.71H26.5c0-.07-.05-.15-.08-.22a.57.57,0,0,0-.65-.39.51.51,0,0,0-.33.25.48.48,0,0,0,.1.39,1.41,1.41,0,0,0,.4.27c.14.08.3.14.43.23a.78.78,0,0,1,.3,1,.77.77,0,0,1-1,.37,4.28,4.28,0,0,1-.44-.2l-.13.2,0,0V13l0,0,.09.17a.72.72,0,0,0,.91.51.45.45,0,0,0,.18-.79,3.08,3.08,0,0,0-.58-.35,2.69,2.69,0,0,1-.32-.19.64.64,0,0,1-.25-.78.69.69,0,0,1,.73-.4A4.77,4.77,0,0,1,26.44,11.25Z"/><path d="M37.18,11.84l-.11-.27a.54.54,0,0,0-.61-.34.62.62,0,0,0-.35.24.32.32,0,0,0,.11.41,2.35,2.35,0,0,0,.37.24c.13.08.28.14.41.21a.8.8,0,0,1,.35,1.06.77.77,0,0,1-1,.37,2.87,2.87,0,0,1-.4-.19l-.12.2,0,0V13h0l.09.18a.72.72,0,0,0,.89.51.48.48,0,0,0,.35-.34.46.46,0,0,0-.17-.49,6,6,0,0,0-.55-.31c-.11-.07-.23-.12-.33-.19a.66.66,0,0,1-.26-.78.7.7,0,0,1,.74-.41,3.84,3.84,0,0,1,.54.13l.07-.12.06,0v.67Z"/><path d="M27.88,11.27a2,2,0,0,0-.61.07c-.15.08-.25.29-.41.49,0-.23,0-.42.05-.6,0,0,.07-.05.1-.05h2.28l.06.67c-.16-.2-.26-.41-.42-.5a2,2,0,0,0-.61-.07,1,1,0,0,0,0,.12c0,.66,0,1.32,0,2a.23.23,0,0,0,.25.27.59.59,0,0,1,.14.06v.05H27.54l0,0a1,1,0,0,1,.15-.07c.15,0,.24-.09.24-.25v-2A.43.43,0,0,0,27.88,11.27Z"/><path d="M21.5,3.6a2.81,2.81,0,0,1-.73,2.06,2,2,0,0,1-3.1-.1,3,3,0,0,1,0-3.69,2.07,2.07,0,0,1,3.44.5A2.83,2.83,0,0,1,21.5,3.6ZM18.52,5,18,4.52c-.1-.09-.21-.15-.33,0s-.06.25.05.35l.63.54a.26.26,0,0,0,.42,0c.17-.16.35-.3.53-.46l.57.49a.23.23,0,0,0,.34,0l.67-.59c.11-.09.17-.2.06-.33s-.24-.07-.35,0L20,5c-.12-.1-.21-.2-.32-.28s-.21-.28-.23-.5a.78.78,0,0,1,.36-.78,3.62,3.62,0,0,0,.42-.36q.26-.21.51-.45a4.72,4.72,0,0,0-.47-.37.86.86,0,0,0-.4-.13c-.43,0-.86,0-1.29,0a.38.38,0,0,0-.22.05c-.2.14-.39.3-.6.46l.82.72c.49.42.49.42.46,1.05a.23.23,0,0,1,0,.17C18.86,4.73,18.69,4.86,18.52,5Z"/><path d="M21.52,21a2.64,2.64,0,0,1-1,2.05,2.05,2.05,0,0,1-3-.56,3,3,0,0,1,0-3.2,2.08,2.08,0,0,1,3.66.15A3,3,0,0,1,21.52,21Zm-3.76,1,.55.42a.5.5,0,0,0,.27.08H20a.33.33,0,0,0,.2-.05c.2-.14.39-.29.61-.46-.31-.27-.58-.55-.89-.77a.87.87,0,0,1-.41-.93c0-.09,0-.2.06-.26s.32-.28.48-.43l.57.49c.1.09.21.15.33,0s.06-.25-.05-.35l-.61-.52c-.21-.18-.28-.18-.49,0l-.5.43-.53-.47a.28.28,0,0,0-.43,0l-.62.54c-.11.09-.19.2-.08.34s.25.07.37,0,.36-.31.53-.46a1,1,0,0,1,.56,1,.57.57,0,0,1-.18.37C18.51,21.37,18.15,21.7,17.76,22Z"/><path d="M35.72,3.66l-.14-.09a.84.84,0,0,1-.2-1.26,1,1,0,0,1,1.31,0A1.14,1.14,0,0,1,36.58,4a2.35,2.35,0,0,1-1.24.46,11,11,0,0,1-1.29.08H25.58a.33.33,0,0,1-.33-.19,1.56,1.56,0,0,0-2.32-.43.78.78,0,0,0-.37.63,3.21,3.21,0,0,1-2.77,2.7,3.09,3.09,0,0,1-3.16-1.9,10.52,10.52,0,0,1-.3-1.1s0-.13,0-.15a4.7,4.7,0,0,0-.92-.47,1.45,1.45,0,0,0-1.67.73.33.33,0,0,1-.32.18H4.84A5.29,5.29,0,0,1,3,4.32,3,3,0,0,1,2.33,4,1.11,1.11,0,0,1,2,2.63,1,1,0,0,1,3.21,2.1a.66.66,0,0,1,.53.53.74.74,0,0,1-.22.83,3.15,3.15,0,0,1-.27.19,3.51,3.51,0,0,0,1.18.22H13a.42.42,0,0,0,.29-.11A2.27,2.27,0,0,1,16,3.13l.09,0c.24-.33.51-.64.73-1a3.08,3.08,0,0,1,5.39.09c.19.31.45.59.63.83A9.1,9.1,0,0,1,24,2.94a2.05,2.05,0,0,1,1.6.78.38.38,0,0,0,.32.16h8.26a10.76,10.76,0,0,0,1.26-.13A2.46,2.46,0,0,0,35.72,3.66Zm-13.78.41a3.22,3.22,0,0,0-.87-2.33,2.12,2.12,0,0,0-2.89-.28A3.22,3.22,0,0,0,18,6.26a2.09,2.09,0,0,0,2.8.17A3,3,0,0,0,21.94,4.07Z"/><path d="M35.67,21.4c-.28,0-.56-.12-.84-.15a8,8,0,0,0-.85,0H26a.42.42,0,0,0-.36.16A2.23,2.23,0,0,1,23,22l-.13-.05c-.23.32-.5.62-.7,1a3.11,3.11,0,0,1-5.4,0c-.2-.34-.46-.64-.68-.95-.25.07-.48.15-.71.19a2.14,2.14,0,0,1-2-.76.43.43,0,0,0-.34-.16H4.88a12.1,12.1,0,0,0-1.34.11,1.49,1.49,0,0,0-.31.09l.08.07a.81.81,0,0,1,.35,1.14.92.92,0,0,1-1.44.09,1.13,1.13,0,0,1,.18-1.66,2.62,2.62,0,0,1,1.32-.46c.38,0,.76-.05,1.14-.05h8.5a.37.37,0,0,1,.34.18,1.57,1.57,0,0,0,2.54.25c.07-.06.07-.19.08-.29a3.32,3.32,0,0,1,1.16-2.19,3.09,3.09,0,0,1,4.52.58,3.25,3.25,0,0,1,.61,1.64.48.48,0,0,0,.27.41,2.19,2.19,0,0,0,.91.37,1.5,1.5,0,0,0,1.47-.78.26.26,0,0,1,.26-.17l9.17,0a3.49,3.49,0,0,1,1.58.34,1.17,1.17,0,0,1,.7,1.35,1,1,0,0,1-1.37.7.84.84,0,0,1-.21-1.31l.27-.19ZM22,21.14a3.24,3.24,0,0,0-.87-2.25A2.16,2.16,0,0,0,18,18.75a3.26,3.26,0,0,0-.07,4.66,2.13,2.13,0,0,0,2.9.17A3.18,3.18,0,0,0,22,21.14Z"/><path d="M10.7,12.69a1.24,1.24,0,0,1,.65.58c.16.24.27.52.6.59,0,0,0,0,0,.07-.54.1-.62.07-.89-.37-.11-.17-.21-.35-.33-.52s-.27-.33-.67-.3c0,.29,0,.57,0,.86a.24.24,0,0,0,.23.23l.17.05,0,.08H10c-.34,0-.69,0-1,0a.4.4,0,0,1-.38-.19L8.11,13a.54.54,0,0,0-.66-.26c0,.28,0,.56,0,.84a.23.23,0,0,0,.24.24l.15,0v.06H6.71l0,0a.54.54,0,0,1,.13-.07c.2,0,.25-.12.25-.31V11.81c0-.2-.06-.31-.27-.32a.6.6,0,0,1-.11-.06s0,0,0,0c.45,0,.9,0,1.35,0a.64.64,0,0,1,.66.59c0,.33-.19.56-.65.69.44.17.59.57.83.89.05.07.1.16.17.18a1.12,1.12,0,0,0,.48,0c.06,0,.12-.2.12-.31,0-.53,0-1.06,0-1.59,0-.32,0-.32-.32-.41l-.07-.05,0,0c.43,0,.86,0,1.29,0a.67.67,0,0,1,.71.6C11.39,12.31,11.19,12.54,10.7,12.69Zm-3.24-.08c.29,0,.61.1.8-.24a.71.71,0,0,0,0-.72c-.22-.23-.48-.16-.75-.15Zm2.63-1.12V12.6c.29,0,.6.11.78-.21a.64.64,0,0,0,0-.7C10.66,11.41,10.37,11.5,10.09,11.49Z"/><path d="M23.9,11.39H25l0,0a.67.67,0,0,1-.18.07.21.21,0,0,0-.2.23v1.86a.22.22,0,0,0,.21.24l.17.05V14h-.22c-.42,0-.85,0-1.27,0a.4.4,0,0,1-.4-.21c-.15-.24-.31-.47-.45-.71a.55.55,0,0,0-.68-.29c0,.27,0,.55,0,.83s.1.24.26.25l.13.06v0H21.28l0,0a.51.51,0,0,1,.15-.07c.16,0,.23-.1.23-.26V11.75a.23.23,0,0,0-.22-.26,1.24,1.24,0,0,1-.16,0v0a.45.45,0,0,1,.11,0c.44,0,.89,0,1.33,0a.61.61,0,0,1,.6.6c0,.31-.18.53-.56.64l-.08,0c.42.15.57.52.78.82a.57.57,0,0,0,.57.33.27.27,0,0,0,.27-.27V11.75a.25.25,0,0,0-.25-.26.83.83,0,0,1-.15,0ZM22,12.6c.29,0,.59.1.78-.2a.71.71,0,0,0,0-.72c-.21-.26-.49-.18-.77-.19Z"/><path d="M15,20.05a.69.69,0,0,1-.46.48.53.53,0,0,1-.72-.46,1,1,0,0,1,.3-.83c.25-.24.52-.45.79-.67a.19.19,0,0,1,.16,0,2.87,2.87,0,0,1,1,.94,1.17,1.17,0,0,1,.13.46.52.52,0,0,1-.39.59.63.63,0,0,1-.69-.29A1.8,1.8,0,0,1,15,20.05Z"/><path d="M23.87,18.43c.35.35.68.63,1,1a1,1,0,0,1,.2.52.52.52,0,0,1-.35.62.63.63,0,0,1-.73-.28l-.09-.17a1.57,1.57,0,0,1-.24.32.58.58,0,0,1-.67.1.49.49,0,0,1-.28-.58,1.43,1.43,0,0,1,.28-.64A9.72,9.72,0,0,1,23.87,18.43Z"/><path d="M23.86,5.18a.66.66,0,0,1,.49-.5.54.54,0,0,1,.69.6,1,1,0,0,1-.2.54,9.06,9.06,0,0,1-.91.84.15.15,0,0,1-.16,0,12.07,12.07,0,0,1-.91-.84.94.94,0,0,1-.19-.52A.53.53,0,0,1,23,4.69a.65.65,0,0,1,.74.28Z"/><path d="M15,5.2a1.2,1.2,0,0,1,.1-.22.64.64,0,0,1,.77-.28.62.62,0,0,1,.31.75,1.62,1.62,0,0,1-.64.87c-.66.5-.41.5-1.07,0a2.42,2.42,0,0,1-.46-.5,1.14,1.14,0,0,1-.18-.44.57.57,0,0,1,.36-.7.66.66,0,0,1,.77.4Z"/><path d="M3.51,11.79c-.26.62-.51,1.24-.78,1.86a2.48,2.48,0,0,1-.18.31,2.28,2.28,0,0,1-.17-.3c-.27-.63-.53-1.26-.83-1.89v1.58c0,.35,0,.36.34.49,0,0,0,.05.07.1H1c.08-.06.11-.1.15-.11a.32.32,0,0,0,.3-.37q0-.83,0-1.65c0-.17-.06-.32-.28-.32A.22.22,0,0,1,1,11.44v-.06c.26,0,.51,0,.76,0,0,0,.08.1.11.16l.78,1.88L3.28,12c.08-.19.12-.45.27-.55s.41,0,.62,0a.24.24,0,0,1,.14.05s-.08.07-.13.07-.25.12-.25.3v1.75c0,.18.07.29.26.29a.17.17,0,0,1,.11.11H3.18l0,0a.91.91,0,0,1,.14-.07c.14,0,.25-.08.25-.23V11.8Z"/><path d="M32.11,11.79l-.78,1.86c0,.11-.13.2-.19.31a2.28,2.28,0,0,1-.17-.3c-.26-.63-.52-1.26-.82-1.89v1.58c0,.35,0,.36.33.49,0,0,0,.05.07.1h-1a1.15,1.15,0,0,1,.14-.11.32.32,0,0,0,.3-.37c0-.55,0-1.1,0-1.65,0-.17-.07-.32-.28-.32a.31.31,0,0,1-.12-.05v-.06c.25,0,.51,0,.76,0,0,0,.08.1.11.16.25.62.51,1.23.77,1.88.21-.5.41-1,.62-1.48.08-.19.12-.45.27-.55s.4,0,.62,0a.24.24,0,0,1,.14.05.28.28,0,0,1-.13.07.26.26,0,0,0-.26.3v1.75c0,.18.07.29.26.29a.18.18,0,0,1,.12.11H31.77l0,0a.83.83,0,0,1,.13-.07c.15,0,.25-.08.25-.23,0-.6,0-1.2,0-1.8Z"/><path d="M20,13.88l.14-.05a.23.23,0,0,0,.25-.26v-.88H19.08c0,.32,0,.64,0,1,0,.06.13.12.21.18a1,1,0,0,0,.16.06l0,0H18.31v0a.84.84,0,0,1,.14-.06c.17,0,.24-.1.24-.26v-1.8a.24.24,0,0,0-.25-.28.35.35,0,0,1-.13-.05v0h1.13l0,0a.44.44,0,0,1-.15.05.24.24,0,0,0-.25.26c0,.25,0,.49,0,.75h1.3c0-.27,0-.53,0-.8,0-.07-.13-.14-.21-.2a.69.69,0,0,0-.17-.05v-.06h1.13l0,0a1.15,1.15,0,0,1-.17.06.23.23,0,0,0-.22.26v1.79a.24.24,0,0,0,.25.28.84.84,0,0,1,.14.06l0,0H20Z"/><path d="M6.35,11.4l.07.6c-.17-.18-.3-.4-.48-.47a2,2,0,0,0-.7,0v1c.31,0,.43.13.67-.31v.89c-.1-.16-.14-.31-.24-.37a1.11,1.11,0,0,0-.43-.07c0,.35,0,.68,0,1,0,.07.18.17.29.18.59.07.82-.09,1-.66.09.07.1.47,0,.79H4.46l0,0s.09-.06.13-.07a.25.25,0,0,0,.27-.28c0-.59,0-1.19,0-1.78a.24.24,0,0,0-.25-.28.74.74,0,0,1-.14,0v0Z"/><path d="M35.83,13.94H34.77l0,0s.09-.06.14-.06.19-.11.13-.25c-.18-.52-.18-.52-.72-.52h0c-.49,0-.49,0-.67.47-.08.2-.06.24.17.3l.09,0s0,0,0,.06H33s.05-.1.08-.1c.23,0,.32-.17.39-.36l.81-2a1.33,1.33,0,0,1,.14-.19.84.84,0,0,1,.15.18c.29.65.57,1.3.85,2,.08.18.15.36.38.39C35.78,13.85,35.79,13.89,35.83,13.94Zm-1.55-2.15-.45,1.13h.91Z"/><path d="M18.16,13.25a1,1,0,0,1,0,.18,1.37,1.37,0,0,1-1.45.56,1.28,1.28,0,0,1-1-1.13,1.36,1.36,0,0,1,1-1.51,1.5,1.5,0,0,1,1.18.21l.14-.2,0,0v.92h0L17.9,12a.86.86,0,0,0-1-.58.74.74,0,0,0-.5.38,1.66,1.66,0,0,0-.09,1.41.86.86,0,0,0,.7.58,1,1,0,0,0,1-.42c0-.05.07-.11.11-.17Z"/><path d="M13,11.46l-.16,0c-.11,0-.17.07-.11.18l.57,1,.59-1c.07-.13,0-.18-.11-.2l-.22-.05,0-.06h.94l-.11.1a.56.56,0,0,0-.45.35,2.3,2.3,0,0,1-.23.37,1.7,1.7,0,0,0-.36,1.3c0,.2.07.32.28.32l.12.06,0,0H12.62l0,0a.61.61,0,0,1,.14-.07.24.24,0,0,0,.25-.29v0a1.64,1.64,0,0,0-.37-1.31,3.18,3.18,0,0,1-.28-.43.5.5,0,0,0-.39-.29l-.11-.1H13Z"/><path d="M26.63,11.45l.12-.13V12H26.7a1.45,1.45,0,0,0-.09-.22.54.54,0,0,0-.64-.39.51.51,0,0,0-.33.25.49.49,0,0,0,.1.39,1.41,1.41,0,0,0,.4.27l.43.22a.79.79,0,0,1,.3,1,.77.77,0,0,1-1,.37,4.28,4.28,0,0,1-.44-.2l-.13.2,0,0v-.78l0,0a.89.89,0,0,1,.08.17.72.72,0,0,0,.91.51.45.45,0,0,0,.19-.8,3.68,3.68,0,0,0-.58-.34,3.37,3.37,0,0,1-.32-.19.64.64,0,0,1-.25-.78.69.69,0,0,1,.72-.4A4.33,4.33,0,0,1,26.63,11.45Z"/><path d="M37.38,12c0-.08-.07-.17-.11-.26a.54.54,0,0,0-.62-.34.61.61,0,0,0-.34.23.33.33,0,0,0,.11.42,2.35,2.35,0,0,0,.37.24c.13.08.28.13.41.21a.79.79,0,0,1,.35,1.05.78.78,0,0,1-1,.38,3,3,0,0,1-.4-.2L36,14l0,0v-.79h0a1.42,1.42,0,0,1,.08.18.73.73,0,0,0,.9.5.44.44,0,0,0,.34-.33.43.43,0,0,0-.17-.49c-.17-.12-.36-.21-.54-.32a3.47,3.47,0,0,1-.33-.18.65.65,0,0,1-.26-.78.69.69,0,0,1,.74-.41,3.71,3.71,0,0,1,.53.13l.08-.13.06,0V12Z"/><path d="M28.08,11.47a2,2,0,0,0-.61.07c-.16.08-.25.29-.42.49,0-.23,0-.42.06-.6,0,0,.07-.06.1-.06h2.28l.06.66c-.16-.2-.26-.4-.42-.49a2,2,0,0,0-.61-.07c0,.06,0,.09,0,.12v2a.23.23,0,0,0,.25.27.84.84,0,0,1,.14.06v0H27.74l0,0a.91.91,0,0,1,.14-.07c.16,0,.25-.09.25-.25v-2A.43.43,0,0,0,28.08,11.47Z"/><path d="M21.7,3.8A2.85,2.85,0,0,1,21,5.86a2,2,0,0,1-3.1-.1,2.94,2.94,0,0,1,.05-3.69,2.07,2.07,0,0,1,3.44.5A2.83,2.83,0,0,1,21.7,3.8Zm-3,1.4-.55-.48c-.1-.09-.22-.15-.33,0s-.06.25.05.35l.63.54a.27.27,0,0,0,.42,0c.17-.16.35-.31.53-.46l.57.49a.23.23,0,0,0,.34,0L21.05,5c.11-.09.17-.2.06-.33s-.24-.07-.35,0l-.55.47c-.11-.09-.2-.19-.31-.27a.56.56,0,0,1-.23-.5A.76.76,0,0,1,20,3.65a4.71,4.71,0,0,0,.42-.36L21,2.84a4.72,4.72,0,0,0-.47-.37,1,1,0,0,0-.4-.14c-.43,0-.86,0-1.29,0a.38.38,0,0,0-.22,0c-.21.14-.4.29-.61.46l.83.72c.48.42.49.42.46,1.05a.29.29,0,0,1-.05.17C19.05,4.93,18.89,5.06,18.72,5.2Z"/><path d="M21.72,21.23a2.66,2.66,0,0,1-1,2.06,2.05,2.05,0,0,1-3-.56,3,3,0,0,1,0-3.2,2.07,2.07,0,0,1,3.66.14A3.08,3.08,0,0,1,21.72,21.23Zm-3.76,1c.2.16.37.3.55.43a.48.48,0,0,0,.27.08c.46,0,.93,0,1.39,0a.33.33,0,0,0,.2,0c.2-.14.39-.3.61-.46-.31-.27-.58-.55-.89-.77a.87.87,0,0,1-.41-.93c0-.09,0-.2.05-.26s.32-.29.49-.43l.56.49c.11.09.22.15.34,0s.06-.25-.05-.35l-.61-.52c-.21-.18-.28-.18-.49,0l-.5.44-.53-.47a.27.27,0,0,0-.43,0l-.62.54c-.11.09-.2.2-.08.34s.25.07.37,0,.35-.31.53-.46a1,1,0,0,1,.56,1,.56.56,0,0,1-.19.38C18.71,21.57,18.35,21.89,18,22.23Z"/></g><g class="cls-3"><path d="M35.38,3.32l-.14-.09A.84.84,0,0,1,35,2a1,1,0,0,1,1.31,0,1.14,1.14,0,0,1-.11,1.67A2.35,2.35,0,0,1,35,4.12a11,11,0,0,1-1.29.08H25.24A.33.33,0,0,1,24.91,4a1.56,1.56,0,0,0-2.32-.43.78.78,0,0,0-.37.63,3.21,3.21,0,0,1-2.77,2.7A3.09,3.09,0,0,1,16.29,5,9.72,9.72,0,0,1,16,3.92s0-.13-.05-.15A4.21,4.21,0,0,0,15,3.3,1.45,1.45,0,0,0,13.35,4a.33.33,0,0,1-.32.18H4.5A5.29,5.29,0,0,1,2.68,4,3,3,0,0,1,2,3.62,1.11,1.11,0,0,1,1.7,2.29a1,1,0,0,1,1.16-.53.66.66,0,0,1,.54.53.74.74,0,0,1-.22.83,3.15,3.15,0,0,1-.27.19,3.51,3.51,0,0,0,1.18.22c.12,0,.25,0,.38,0h8.17a.42.42,0,0,0,.29-.11,2.27,2.27,0,0,1,2.71-.63l.09,0c.24-.33.51-.64.73-1a3.08,3.08,0,0,1,5.39.09c.19.31.45.59.63.83a9.1,9.1,0,0,1,1.19-.16,2.05,2.05,0,0,1,1.6.78.38.38,0,0,0,.32.16h8.26a10.76,10.76,0,0,0,1.26-.13A2.46,2.46,0,0,0,35.38,3.32ZM21.6,3.73a3.22,3.22,0,0,0-.87-2.33,2.12,2.12,0,0,0-2.89-.28,3.22,3.22,0,0,0-.21,4.8,2.08,2.08,0,0,0,2.79.17A2.94,2.94,0,0,0,21.6,3.73Z"/><path d="M35.33,21.06c-.28,0-.56-.12-.84-.15a8,8,0,0,0-.85,0h-8a.42.42,0,0,0-.36.16,2.23,2.23,0,0,1-2.62.6l-.13-.05c-.23.32-.5.62-.7,1a3.11,3.11,0,0,1-5.4,0c-.2-.34-.46-.64-.68-.95-.25.07-.48.15-.71.19A2.14,2.14,0,0,1,13,21a.43.43,0,0,0-.34-.16H4.54A12.1,12.1,0,0,0,3.2,21a1.49,1.49,0,0,0-.31.09l.08.07a.81.81,0,0,1,.35,1.14.92.92,0,0,1-1.44.09,1.13,1.13,0,0,1,.18-1.66,2.62,2.62,0,0,1,1.32-.46c.38,0,.76-.05,1.14-.05H13a.35.35,0,0,1,.33.18,1.59,1.59,0,0,0,2.55.25.52.52,0,0,0,.08-.29,3.32,3.32,0,0,1,1.16-2.19,3.09,3.09,0,0,1,4.52.58,3.25,3.25,0,0,1,.61,1.64.48.48,0,0,0,.27.41,2.19,2.19,0,0,0,.91.37,1.52,1.52,0,0,0,1.47-.78.26.26,0,0,1,.26-.17l9.17,0a3.49,3.49,0,0,1,1.58.34,1.17,1.17,0,0,1,.7,1.35,1,1,0,0,1-1.37.7.84.84,0,0,1-.21-1.31l.27-.19Zm-13.7-.26a3.24,3.24,0,0,0-.87-2.25,2.16,2.16,0,0,0-3.11-.14,3.26,3.26,0,0,0-.07,4.66,2.13,2.13,0,0,0,2.9.17A3.18,3.18,0,0,0,21.63,20.8Z"/><path d="M10.36,12.35a1.24,1.24,0,0,1,.65.58c.16.24.27.52.6.59,0,0,0,0,0,.07-.54.1-.62.07-.89-.37-.11-.17-.21-.35-.33-.52s-.27-.33-.67-.3c0,.29,0,.57,0,.86a.24.24,0,0,0,.23.23l.17,0,0,.08H9.67c-.34,0-.69,0-1,0a.4.4,0,0,1-.38-.19l-.48-.76a.54.54,0,0,0-.66-.26v.84a.24.24,0,0,0,.25.24l.15,0v.06H6.37l0,0a.54.54,0,0,1,.13-.07c.2,0,.25-.13.25-.31V11.47c0-.2-.06-.31-.27-.32a.6.6,0,0,1-.11-.06s0-.05,0-.05c.45,0,.9,0,1.35,0a.64.64,0,0,1,.66.59c0,.33-.19.56-.65.69.44.17.59.57.83.89.05.07.1.16.17.18a1.12,1.12,0,0,0,.48,0c.06,0,.12-.2.12-.31,0-.53,0-1.06,0-1.59,0-.32,0-.32-.32-.41L9,11.09,9,11c.43,0,.86,0,1.29,0s.69.27.71.59S10.85,12.2,10.36,12.35Zm-3.24-.08c.29,0,.61.1.79-.24a.69.69,0,0,0,0-.72c-.22-.23-.49-.16-.75-.15Zm2.63-1.12v1.11c.29,0,.6.11.78-.21a.64.64,0,0,0,0-.7C10.32,11.07,10,11.16,9.75,11.15Z"/><path d="M23.56,11.05h1.13l0,0a.67.67,0,0,1-.18.07.21.21,0,0,0-.2.23v1.86a.22.22,0,0,0,.21.24l.17,0v.07H23.21a.4.4,0,0,1-.4-.21c-.15-.24-.31-.47-.45-.71a.55.55,0,0,0-.68-.29c0,.27,0,.55,0,.83s.09.24.26.25l.13.06v0H20.94l0,0a.51.51,0,0,1,.15-.07c.16,0,.23-.1.23-.26V11.41a.23.23,0,0,0-.22-.26,1.24,1.24,0,0,1-.16,0v0A.45.45,0,0,1,21,11c.44,0,.89,0,1.33,0a.61.61,0,0,1,.6.6c0,.31-.18.53-.56.64l-.08,0c.42.15.57.52.78.82a.57.57,0,0,0,.57.33c.17,0,.26-.11.27-.27V11.41a.25.25,0,0,0-.25-.26.83.83,0,0,1-.15,0Zm-1.87,1.21c.29,0,.59.1.78-.2a.71.71,0,0,0,0-.72c-.21-.26-.49-.18-.77-.19Z"/><path d="M14.63,19.71a.69.69,0,0,1-.46.48.53.53,0,0,1-.72-.46,1,1,0,0,1,.3-.83c.25-.24.52-.45.79-.67a.19.19,0,0,1,.16,0,2.87,2.87,0,0,1,1,.94,1.17,1.17,0,0,1,.13.46.52.52,0,0,1-.39.59.63.63,0,0,1-.69-.29A1.8,1.8,0,0,1,14.63,19.71Z"/><path d="M23.53,18.09c.35.35.68.63,1,1a1,1,0,0,1,.2.52.52.52,0,0,1-.35.62.63.63,0,0,1-.73-.28l-.09-.17a1.57,1.57,0,0,1-.24.32.58.58,0,0,1-.67.1.49.49,0,0,1-.28-.58,1.43,1.43,0,0,1,.28-.64A9.72,9.72,0,0,1,23.53,18.09Z"/><path d="M23.52,4.84a.66.66,0,0,1,.49-.5.54.54,0,0,1,.69.6,1,1,0,0,1-.2.54,10.41,10.41,0,0,1-.91.84.15.15,0,0,1-.16,0,12.07,12.07,0,0,1-.91-.84,1,1,0,0,1-.2-.52.54.54,0,0,1,.35-.61.65.65,0,0,1,.74.28Z"/><path d="M14.63,4.85a1.41,1.41,0,0,1,.1-.21.64.64,0,0,1,.77-.28.62.62,0,0,1,.31.75,1.62,1.62,0,0,1-.64.87c-.66.5-.41.5-1.07,0a2.42,2.42,0,0,1-.46-.5A1.14,1.14,0,0,1,13.46,5a.57.57,0,0,1,.36-.7.66.66,0,0,1,.77.4Z"/><path d="M3.17,11.45c-.26.62-.51,1.24-.78,1.86a2.48,2.48,0,0,1-.18.31,2.28,2.28,0,0,1-.17-.3c-.27-.63-.53-1.26-.83-1.89V13c0,.35,0,.36.34.49,0,0,0,.05.07.1h-1c.08-.06.11-.1.15-.11a.32.32,0,0,0,.3-.37q0-.82,0-1.65c0-.17-.06-.32-.28-.32a.31.31,0,0,1-.12-.05V11c.26,0,.51,0,.76,0,0,0,.08.1.11.16l.78,1.88.61-1.48c.08-.19.12-.45.27-.55s.41,0,.62,0a.24.24,0,0,1,.14.05s-.08.07-.13.07-.25.12-.25.3V13.2c0,.18.07.29.26.29A.17.17,0,0,1,4,13.6H2.84l0,0A.91.91,0,0,1,3,13.49c.14,0,.25-.08.25-.23v-1.8Z"/><path d="M31.76,11.45c-.25.62-.51,1.24-.77,1.86,0,.11-.13.2-.19.31a2.28,2.28,0,0,1-.17-.3c-.26-.63-.52-1.26-.82-1.89V13c0,.35,0,.36.33.49,0,0,0,.05.07.1h-1a1.15,1.15,0,0,1,.14-.11.32.32,0,0,0,.3-.37c0-.55,0-1.1,0-1.65,0-.17-.07-.32-.28-.32a.31.31,0,0,1-.12-.05V11c.25,0,.51,0,.76,0,0,0,.08.1.11.16.25.62.51,1.23.77,1.88.21-.5.41-1,.62-1.48.08-.19.12-.45.27-.55s.4,0,.62,0a.24.24,0,0,1,.14.05s-.09.07-.13.07a.26.26,0,0,0-.26.3V13.2c0,.18.07.29.26.29a.18.18,0,0,1,.12.11H31.43l0,0a.83.83,0,0,1,.13-.07c.15,0,.25-.08.25-.23,0-.6,0-1.2,0-1.8Z"/><path d="M19.63,13.54l.14,0a.23.23,0,0,0,.25-.26v-.88H18.74c0,.32,0,.64,0,1,0,.06.13.12.21.18a1,1,0,0,0,.16.06l0,0H18v0a.59.59,0,0,1,.14-.06c.17,0,.24-.1.24-.26v-1.8a.24.24,0,0,0-.25-.28A.35.35,0,0,1,18,11.1v0H19.1l0,0a.44.44,0,0,1-.15.05.24.24,0,0,0-.25.26c0,.25,0,.49,0,.75H20c0-.27,0-.53,0-.8,0-.07-.13-.14-.21-.2a.69.69,0,0,0-.17-.05v-.06h1.13l0,0a1.15,1.15,0,0,1-.17.06.23.23,0,0,0-.22.26v1.79a.24.24,0,0,0,.25.28.84.84,0,0,1,.14.06l0,0H19.65Z"/><path d="M6,11.06l.07.6c-.17-.18-.3-.4-.48-.47a2,2,0,0,0-.7,0v1c.31,0,.43.13.67-.31v.89c-.1-.16-.14-.31-.24-.37a1.11,1.11,0,0,0-.43-.07c0,.35,0,.68,0,1,0,.08.18.18.29.19.59.07.82-.09,1-.66.09.07.1.47,0,.79H4.12l0,0c.05,0,.09-.06.13-.07a.25.25,0,0,0,.27-.28c0-.59,0-1.19,0-1.78a.24.24,0,0,0-.25-.28.57.57,0,0,1-.14,0v0Z"/><path d="M35.49,13.6H34.43l0,0c.05,0,.09-.06.14-.06s.19-.11.13-.25c-.18-.52-.18-.52-.72-.52h-.05c-.49,0-.49,0-.67.47-.08.2-.06.24.17.3l.09,0s0,0,0,.06h-.89s.06-.1.09-.1c.23,0,.32-.17.39-.36l.81-2a1.33,1.33,0,0,1,.14-.19.84.84,0,0,1,.15.18c.29.65.57,1.3.85,1.95.08.18.15.36.38.39C35.44,13.51,35.45,13.55,35.49,13.6Zm-1.55-2.15-.45,1.13h.91Z"/><path d="M17.82,12.91a1,1,0,0,1,0,.18,1.37,1.37,0,0,1-1.45.56,1.28,1.28,0,0,1-1-1.13,1.36,1.36,0,0,1,1-1.51,1.5,1.5,0,0,1,1.18.21l.14-.2,0,0V12h0l-.12-.27a.86.86,0,0,0-1-.58.74.74,0,0,0-.5.38,1.62,1.62,0,0,0-.09,1.41.86.86,0,0,0,.7.58,1,1,0,0,0,1-.42c0-.05.07-.11.11-.17Z"/><path d="M12.65,11.11l-.16,0c-.11,0-.17.07-.11.18l.57,1,.59-1c.07-.13,0-.18-.11-.2l-.22-.05,0-.06h.94l-.11.1a.56.56,0,0,0-.45.35,2.3,2.3,0,0,1-.23.37,1.7,1.7,0,0,0-.36,1.3c0,.2.07.32.28.32l.12.06,0,0H12.28l0,0a.61.61,0,0,1,.14-.07.24.24,0,0,0,.25-.29v0a1.64,1.64,0,0,0-.37-1.31,4,4,0,0,1-.28-.43.51.51,0,0,0-.39-.29l-.11-.1h1.14Z"/><path d="M26.29,11.11l.12-.13v.71h-.05a1.45,1.45,0,0,0-.09-.22.55.55,0,0,0-.64-.39.51.51,0,0,0-.33.25.49.49,0,0,0,.1.39,1.41,1.41,0,0,0,.4.27l.43.22a.79.79,0,0,1,.3,1,.77.77,0,0,1-1,.37,4.28,4.28,0,0,1-.44-.2l-.13.2,0,0v-.78l0,0a.89.89,0,0,1,.08.17.73.73,0,0,0,.91.51.45.45,0,0,0,.19-.8,3.68,3.68,0,0,0-.58-.34,3.37,3.37,0,0,1-.32-.19.64.64,0,0,1-.25-.78.69.69,0,0,1,.72-.4A4.33,4.33,0,0,1,26.29,11.11Z"/><path d="M37,11.69c0-.08-.07-.17-.11-.26a.54.54,0,0,0-.62-.34.61.61,0,0,0-.34.23.33.33,0,0,0,.11.42,2.35,2.35,0,0,0,.37.24c.13.08.28.13.41.21a.79.79,0,0,1,.35,1.05.78.78,0,0,1-1,.38c-.13,0-.26-.13-.4-.2l-.13.21,0,0v-.79h0a1.42,1.42,0,0,1,.08.18.73.73,0,0,0,.9.5.44.44,0,0,0,.34-.33.43.43,0,0,0-.17-.49c-.17-.12-.36-.21-.54-.32a3.47,3.47,0,0,1-.33-.18.65.65,0,0,1-.26-.78.69.69,0,0,1,.74-.41,3.71,3.71,0,0,1,.53.13L37,11l.06,0v.67Z"/><path d="M27.74,11.13a2,2,0,0,0-.61.07c-.16.08-.25.29-.42.49,0-.23,0-.42.06-.6,0,0,.06-.06.1-.06h2.28l.06.66c-.16-.2-.26-.4-.42-.49a2,2,0,0,0-.61-.07c0,.06,0,.09,0,.12v2a.23.23,0,0,0,.25.27.84.84,0,0,1,.14.06v0H27.4l0,0a.91.91,0,0,1,.14-.07c.16,0,.25-.09.25-.25v-2A.43.43,0,0,0,27.74,11.13Z"/><path d="M21.36,3.46a2.85,2.85,0,0,1-.73,2.06,2,2,0,0,1-3.1-.1,2.93,2.93,0,0,1,0-3.69,2.07,2.07,0,0,1,3.44.5A2.83,2.83,0,0,1,21.36,3.46Zm-3,1.4-.55-.48c-.1-.09-.22-.15-.33,0s-.06.25.05.35l.63.54a.27.27,0,0,0,.42,0c.17-.16.35-.31.53-.46l.57.49a.22.22,0,0,0,.34,0l.67-.58c.11-.09.17-.2.06-.33s-.24-.07-.35,0l-.55.47c-.11-.09-.2-.19-.31-.27a.56.56,0,0,1-.23-.5.76.76,0,0,1,.36-.78A4.71,4.71,0,0,0,20.11,3l.51-.45a4.72,4.72,0,0,0-.47-.37,1,1,0,0,0-.4-.14c-.43,0-.86,0-1.29,0a.38.38,0,0,0-.22.05c-.21.14-.4.29-.61.46l.83.72c.48.42.48.42.46,1a.29.29,0,0,1-.05.17C18.71,4.59,18.55,4.72,18.38,4.86Z"/><path d="M21.38,20.89a2.66,2.66,0,0,1-1,2.06,2.05,2.05,0,0,1-3-.56,3,3,0,0,1,0-3.2,2.07,2.07,0,0,1,3.66.14A3.08,3.08,0,0,1,21.38,20.89Zm-3.76,1,.54.43a.54.54,0,0,0,.28.08c.46,0,.93,0,1.39,0a.33.33,0,0,0,.2,0c.2-.14.39-.3.61-.46-.31-.27-.58-.55-.89-.77a.87.87,0,0,1-.41-.93c0-.09,0-.2.05-.26s.32-.29.49-.43l.56.49c.11.09.22.15.34,0s.06-.25-.05-.35l-.61-.52c-.21-.18-.28-.18-.49,0l-.5.44-.53-.47a.27.27,0,0,0-.43,0l-.62.54c-.11.09-.2.2-.08.34s.25.07.36,0l.54-.46a1,1,0,0,1,.56,1,.56.56,0,0,1-.19.38C18.37,21.23,18,21.55,17.62,21.89Z"/></g><path class="cls-4" d="M35.57,3.52l-.13-.09a.84.84,0,0,1-.21-1.26,1,1,0,0,1,1.32,0,1.14,1.14,0,0,1-.12,1.67,2.32,2.32,0,0,1-1.23.46,11.17,11.17,0,0,1-1.29.08H25.44a.35.35,0,0,1-.33-.19,1.57,1.57,0,0,0-2.32-.44.85.85,0,0,0-.38.64,3.18,3.18,0,0,1-2.76,2.69,3.07,3.07,0,0,1-3.16-1.9,8,8,0,0,1-.3-1.09c0-.06,0-.13-.05-.15a4.44,4.44,0,0,0-.92-.47,1.46,1.46,0,0,0-1.68.73.31.31,0,0,1-.31.18H4.69a5.26,5.26,0,0,1-1.81-.22,2.55,2.55,0,0,1-.69-.37A1.09,1.09,0,0,1,1.9,2.49,1,1,0,0,1,3.06,2a.68.68,0,0,1,.54.54.74.74,0,0,1-.22.83,3.15,3.15,0,0,1-.27.19,3.5,3.5,0,0,0,1.18.21h8.55a.43.43,0,0,0,.29-.12A2.26,2.26,0,0,1,15.83,3l.1,0c.24-.33.51-.64.73-1a3.09,3.09,0,0,1,5.39.1,8.72,8.72,0,0,0,.63.82,9,9,0,0,1,1.19-.15,2,2,0,0,1,1.6.78.34.34,0,0,0,.32.15c2.75,0,5.51,0,8.26,0,.42,0,.84-.08,1.26-.13A1.86,1.86,0,0,0,35.57,3.52ZM21.8,3.93a3.17,3.17,0,0,0-.88-2.33A2.11,2.11,0,0,0,18,1.32a3.22,3.22,0,0,0-.21,4.8,2.09,2.09,0,0,0,2.79.17A3,3,0,0,0,21.8,3.93Z"/><path class="cls-4" d="M35.53,21.26c-.28-.05-.56-.12-.84-.15a8,8,0,0,0-.85,0h-8a.41.41,0,0,0-.36.16,2.23,2.23,0,0,1-2.62.6l-.13-.05a10.68,10.68,0,0,0-.7,1,3.11,3.11,0,0,1-5.4,0c-.2-.33-.46-.64-.68-.94-.25.07-.48.15-.71.19a2.19,2.19,0,0,1-2.05-.76.38.38,0,0,0-.34-.16H4.74a11.91,11.91,0,0,0-1.34.11,1.49,1.49,0,0,0-.31.09l.08.07a.8.8,0,0,1,.34,1.14.92.92,0,0,1-1.44.09,1.14,1.14,0,0,1,.18-1.66,2.69,2.69,0,0,1,1.33-.46,10.87,10.87,0,0,1,1.14,0h8.49a.36.36,0,0,1,.34.18,1.58,1.58,0,0,0,2.55.25.56.56,0,0,0,.08-.3,3.34,3.34,0,0,1,1.16-2.19,3.09,3.09,0,0,1,4.52.59,3.22,3.22,0,0,1,.61,1.64.45.45,0,0,0,.27.4,2,2,0,0,0,.91.38,1.53,1.53,0,0,0,1.47-.78.26.26,0,0,1,.26-.17l9.17,0a3.49,3.49,0,0,1,1.58.34,1.17,1.17,0,0,1,.7,1.34,1,1,0,0,1-1.37.71.83.83,0,0,1-.21-1.31c.09-.08.18-.13.27-.2ZM21.83,21A3.2,3.2,0,0,0,21,18.75a2.14,2.14,0,0,0-3.1-.14,3.25,3.25,0,0,0-.07,4.66,2.13,2.13,0,0,0,2.9.17A3.19,3.19,0,0,0,21.83,21Z"/><path class="cls-4" d="M10.56,12.55a1.24,1.24,0,0,1,.65.58c.16.24.27.52.6.58,0,0,0,0,0,.08-.54.1-.62.07-.89-.37-.11-.17-.21-.35-.33-.52s-.27-.34-.67-.3c0,.29,0,.57,0,.86a.24.24,0,0,0,.23.23l.16.05v.08H9.87c-.35,0-.69,0-1,0a.38.38,0,0,1-.38-.2c-.16-.24-.33-.49-.48-.75a.54.54,0,0,0-.66-.26c0,.28,0,.56,0,.84a.24.24,0,0,0,.25.24.83.83,0,0,1,.15,0v.06H6.56v0s.08-.07.13-.07c.2,0,.25-.13.25-.31V11.67c0-.2-.06-.31-.27-.33,0,0-.07,0-.12-.05l0,0a12.16,12.16,0,0,1,1.35,0,.64.64,0,0,1,.66.59c0,.33-.19.56-.65.69.44.17.59.57.82.89.05.07.11.16.18.18a1.12,1.12,0,0,0,.48,0c.06,0,.12-.21.12-.32,0-.53,0-1.05,0-1.58,0-.32,0-.32-.32-.41l-.07-.05.05,0c.43,0,.86,0,1.29,0a.68.68,0,0,1,.71.59C11.25,12.17,11.05,12.4,10.56,12.55Zm-3.25-.08c.3,0,.62.1.8-.24a.71.71,0,0,0,0-.72c-.22-.23-.49-.16-.76-.15ZM10,11.34v1.12c.29,0,.6.11.78-.21a.63.63,0,0,0,0-.71C10.52,11.27,10.23,11.36,10,11.34Z"/><path class="cls-4" d="M23.76,11.25h1.13l0,0a1.34,1.34,0,0,1-.18.07.2.2,0,0,0-.2.23c0,.62,0,1.24,0,1.86a.22.22,0,0,0,.21.24l.17.05v.06h-.22c-.42,0-.85,0-1.27,0a.41.41,0,0,1-.4-.21c-.15-.24-.31-.47-.45-.72a.56.56,0,0,0-.68-.28c0,.27,0,.55,0,.83a.23.23,0,0,0,.25.25.35.35,0,0,1,.14.06v.05H21.14l0,0a.41.41,0,0,1,.15-.07.23.23,0,0,0,.23-.26V11.61a.23.23,0,0,0-.22-.26.94.94,0,0,1-.16,0v-.06l.11,0c.44,0,.89,0,1.33,0a.61.61,0,0,1,.6.6.66.66,0,0,1-.56.64l-.08,0c.42.15.56.52.78.82s.29.36.56.32.27-.1.27-.26c0-.61,0-1.21,0-1.82a.24.24,0,0,0-.25-.26,1,1,0,0,1-.14,0Zm-1.87,1.21c.28,0,.59.1.78-.2a.71.71,0,0,0,0-.72c-.21-.26-.49-.19-.77-.19Z"/><path class="cls-4" d="M14.83,19.91a.69.69,0,0,1-.46.48.53.53,0,0,1-.72-.46,1,1,0,0,1,.3-.83,10.33,10.33,0,0,1,.79-.67.15.15,0,0,1,.16,0,2.78,2.78,0,0,1,1,.94,1.17,1.17,0,0,1,.13.45.52.52,0,0,1-.39.6.64.64,0,0,1-.69-.29A1.8,1.8,0,0,1,14.83,19.91Z"/><path class="cls-4" d="M23.72,18.29a12.62,12.62,0,0,1,1,1,1,1,0,0,1,.2.52.53.53,0,0,1-.35.62.63.63,0,0,1-.73-.28l-.09-.17a2.67,2.67,0,0,1-.24.32.58.58,0,0,1-.67.1.49.49,0,0,1-.28-.58,1.43,1.43,0,0,1,.28-.64A10.92,10.92,0,0,1,23.72,18.29Z"/><path class="cls-4" d="M23.71,5a.67.67,0,0,1,.5-.49.54.54,0,0,1,.69.6,1,1,0,0,1-.2.54,12.07,12.07,0,0,1-.91.84.15.15,0,0,1-.16,0,10.41,10.41,0,0,1-.91-.84,1,1,0,0,1-.2-.52.54.54,0,0,1,.35-.61.65.65,0,0,1,.74.28A1.83,1.83,0,0,1,23.71,5Z"/><path class="cls-4" d="M14.83,5.05a1.41,1.41,0,0,1,.1-.21.64.64,0,0,1,.77-.28.61.61,0,0,1,.31.75,1.65,1.65,0,0,1-.64.87c-.66.5-.41.5-1.08,0a2.68,2.68,0,0,1-.45-.5,1.21,1.21,0,0,1-.18-.44.56.56,0,0,1,.36-.7.65.65,0,0,1,.77.4Z"/><path class="cls-4" d="M3.37,11.65l-.78,1.86a1.89,1.89,0,0,1-.19.3c0-.1-.12-.19-.17-.29-.26-.63-.52-1.26-.82-1.89v1.58c0,.35,0,.36.33.49,0,0,0,0,.08.1h-1A1.15,1.15,0,0,1,1,13.69a.34.34,0,0,0,.31-.37q0-.83,0-1.65c0-.17-.06-.32-.28-.32,0,0-.08,0-.12,0v-.06h.76s.08.11.11.17l.78,1.88.61-1.48c.08-.19.12-.45.27-.55s.41,0,.62,0a.24.24,0,0,1,.14,0s-.08.07-.13.07a.26.26,0,0,0-.26.3V13.4a.25.25,0,0,0,.26.29.16.16,0,0,1,.12.11H3l0,0a.91.91,0,0,1,.14-.07c.14,0,.25-.08.25-.23v-1.8Z"/><path class="cls-4" d="M32,11.65l-.77,1.86a3,3,0,0,1-.19.3,2.19,2.19,0,0,1-.17-.29c-.27-.63-.52-1.26-.82-1.89v1.58c0,.35,0,.36.33.49,0,0,0,0,.07.1h-1c.07-.06.1-.1.14-.11a.33.33,0,0,0,.3-.37q0-.83,0-1.65c0-.17-.06-.32-.28-.32,0,0-.07,0-.11,0v-.06h.76s.08.11.1.17c.26.62.52,1.23.78,1.88.21-.51.41-1,.62-1.48.08-.19.12-.45.26-.55s.41,0,.62,0a.24.24,0,0,1,.15,0c-.05,0-.09.07-.13.07a.26.26,0,0,0-.26.3V13.4c0,.18.07.28.26.29a.17.17,0,0,1,.11.11H31.63l0,0a.54.54,0,0,1,.13-.07c.14,0,.25-.08.25-.23,0-.6,0-1.2,0-1.8Z"/><path class="cls-4" d="M19.83,13.74l.14-.05c.16,0,.25-.1.25-.26v-.88H18.93c0,.32,0,.64,0,1,0,.06.14.12.22.18a.76.76,0,0,0,.16.06l0,.05H18.17l0-.05.15-.06c.17,0,.24-.1.24-.26v-1.8c0-.18-.08-.27-.25-.28a.35.35,0,0,1-.13,0v-.05H19.3v.05a.34.34,0,0,1-.14,0c-.18,0-.24.11-.25.26s0,.49,0,.75h1.29a7.09,7.09,0,0,0,0-.8c0-.07-.12-.14-.2-.2a.48.48,0,0,0-.17,0v-.06H21l0,.05a1.15,1.15,0,0,1-.17.06.22.22,0,0,0-.22.25v1.8c0,.17.07.27.25.28a.84.84,0,0,1,.14.06l0,.05H19.85Z"/><path class="cls-4" d="M6.21,11.26l.07.6c-.18-.18-.3-.4-.48-.47a2,2,0,0,0-.7,0v1c.31,0,.42.12.67-.31v.89c-.1-.16-.14-.31-.24-.37a1.11,1.11,0,0,0-.43-.07c0,.35,0,.68,0,1,0,.08.18.18.29.19.59.07.82-.1,1-.66.09.07.09.47,0,.78H4.32l0,0s.09-.07.13-.07a.25.25,0,0,0,.27-.28c0-.6,0-1.19,0-1.78a.24.24,0,0,0-.25-.28.57.57,0,0,1-.14,0v-.05Z"/><path class="cls-4" d="M35.68,13.8h-1l0,0a.46.46,0,0,1,.14-.07c.17,0,.18-.1.13-.25-.18-.51-.18-.51-.73-.51h0c-.5,0-.5,0-.67.46-.08.21-.06.25.16.31l.1,0a.28.28,0,0,0,0,.06h-.89c0-.05.06-.1.08-.1.24,0,.32-.18.4-.36l.81-2a1.1,1.1,0,0,1,.14-.18.84.84,0,0,1,.15.18c.29.65.57,1.3.85,2,.08.18.15.36.37.38C35.64,13.71,35.65,13.75,35.68,13.8Zm-1.54-2.15-.45,1.13h.9Z"/><path class="cls-4" d="M18,13.11a.52.52,0,0,1,0,.18,1.35,1.35,0,0,1-1.44.56,1.28,1.28,0,0,1-1-1.13,1.36,1.36,0,0,1,1-1.51,1.47,1.47,0,0,1,1.17.21l.15-.2.05,0v.92h0l-.12-.27a.87.87,0,0,0-1-.59.71.71,0,0,0-.5.39,1.62,1.62,0,0,0-.09,1.41.83.83,0,0,0,.7.57,1,1,0,0,0,1-.41,1,1,0,0,0,.12-.17Z"/><path class="cls-4" d="M12.85,11.31l-.16,0c-.11,0-.17.06-.11.18l.57,1c.21-.34.4-.65.58-1,.08-.13,0-.18-.1-.2l-.22-.06v-.05h.95c-.06.05-.09.09-.12.1a.56.56,0,0,0-.44.35,2.85,2.85,0,0,1-.23.37,1.69,1.69,0,0,0-.36,1.3c0,.19.07.31.28.32,0,0,.08,0,.12.06l0,.05H12.48l0,0a.83.83,0,0,1,.13-.07c.19,0,.27-.11.26-.29v0a1.61,1.61,0,0,0-.38-1.31c-.1-.13-.18-.29-.27-.43a.52.52,0,0,0-.39-.3s-.05,0-.11-.09h1.13Z"/><path class="cls-4" d="M26.49,11.31l.12-.13v.71h-.05l-.09-.23a.56.56,0,0,0-.65-.38c-.12,0-.29.13-.32.24a.5.5,0,0,0,.1.4,1.38,1.38,0,0,0,.4.26c.14.09.29.14.43.23a.78.78,0,0,1,.29,1,.76.76,0,0,1-1,.38,4.25,4.25,0,0,1-.43-.21l-.13.21-.05,0V13l.05,0a1.42,1.42,0,0,1,.08.18.73.73,0,0,0,.91.51.46.46,0,0,0,.19-.8,3.68,3.68,0,0,0-.58-.34c-.11-.07-.23-.12-.33-.19a.64.64,0,0,1-.24-.78.71.71,0,0,1,.72-.41C26.12,11.2,26.29,11.26,26.49,11.31Z"/><path class="cls-4" d="M37.24,11.89a2.06,2.06,0,0,0-.12-.26.53.53,0,0,0-.61-.34.54.54,0,0,0-.34.23.33.33,0,0,0,.1.42,3.87,3.87,0,0,0,.37.24l.42.21a.79.79,0,0,1,.35,1,.78.78,0,0,1-1,.38,3.73,3.73,0,0,1-.4-.2l-.13.21,0,0V13l0,0a1.08,1.08,0,0,1,.08.19.73.73,0,0,0,.9.5.44.44,0,0,0,.34-.33.45.45,0,0,0-.17-.49c-.17-.12-.36-.21-.54-.32a2.17,2.17,0,0,1-.33-.19.63.63,0,0,1-.26-.77.69.69,0,0,1,.74-.41,4.07,4.07,0,0,1,.53.13l.08-.13,0,0v.67Z"/><path class="cls-4" d="M27.94,11.33a2,2,0,0,0-.61.07c-.16.08-.25.29-.42.49,0-.23,0-.42.06-.61,0,0,.06,0,.1,0h2.28l.06.66c-.16-.2-.26-.4-.43-.49a1.62,1.62,0,0,0-.6-.07c0,.06,0,.09,0,.12v2c0,.18.08.25.25.27a.84.84,0,0,1,.14.06l0,.05H27.6l0,0a.46.46,0,0,1,.14-.07c.16,0,.25-.09.25-.26v-2A.29.29,0,0,0,27.94,11.33Z"/><path class="cls-4" d="M21.55,3.66a2.8,2.8,0,0,1-.72,2.06,2,2,0,0,1-3.1-.1,2.93,2.93,0,0,1,.05-3.69,2.07,2.07,0,0,1,3.44.5A2.8,2.8,0,0,1,21.55,3.66Zm-3,1.4L18,4.58c-.11-.09-.22-.16-.33,0s-.06.24.05.34.42.36.62.55a.28.28,0,0,0,.43,0c.16-.16.34-.31.53-.47l.57.5a.22.22,0,0,0,.34,0l.67-.58c.1-.09.17-.2.06-.33s-.24-.07-.35,0l-.55.47a2.49,2.49,0,0,0-.31-.27.54.54,0,0,1-.23-.5.75.75,0,0,1,.36-.78,4.71,4.71,0,0,0,.42-.36l.51-.45a4.72,4.72,0,0,0-.47-.37,1,1,0,0,0-.4-.14h-1.3a.42.42,0,0,0-.22.05c-.2.14-.39.29-.6.46l.83.72c.48.42.48.42.46,1a.25.25,0,0,1-.06.17C18.91,4.79,18.75,4.92,18.58,5.06Z"/><path class="cls-4" d="M21.58,21.09a2.66,2.66,0,0,1-1,2.06,2.06,2.06,0,0,1-3-.56,3,3,0,0,1,0-3.21,2.08,2.08,0,0,1,3.66.15A3,3,0,0,1,21.58,21.09Zm-3.76,1c.2.16.36.3.54.42a.46.46,0,0,0,.27.09H20a.33.33,0,0,0,.2,0c.2-.14.39-.3.61-.47-.31-.26-.58-.54-.9-.77a.84.84,0,0,1-.4-.92c0-.09,0-.2.05-.26a5,5,0,0,1,.49-.43l.56.48c.11.1.22.16.33,0s.07-.25,0-.35l-.6-.53c-.21-.17-.28-.17-.49,0l-.5.44-.54-.47a.27.27,0,0,0-.42,0c-.2.19-.41.37-.62.55s-.2.2-.08.34.25.07.36,0l.54-.46a1,1,0,0,1,.56,1,.6.6,0,0,1-.19.38C18.57,21.43,18.21,21.75,17.82,22.09Z"/></g></g></svg>