<svg xmlns="http://www.w3.org/2000/svg" viewBox="0 0 38.55 24.66"><defs><style>.cls-1{isolation:isolate;}.cls-2{opacity:0.15;}.cls-2,.cls-3{mix-blend-mode:multiply;}.cls-4{fill:#fff;}</style></defs><title>convert-FIX-SVG-04 for app</title><g class="cls-1"><g id="Layer_1" data-name="Layer 1"><g class="cls-2"><path d="M21.5,21.68l-.24,0c-.17.22-.21.2-.37,0a13,13,0,0,0-.8-1.14c-.2-.26-.39-.25-.58,0s-.35.61-.52.91c-.08.13-.14.27-.22.39a.2.2,0,0,1-.36,0c-.05-.09-.05-.23-.21-.23a.41.41,0,0,1,0-.24,5.83,5.83,0,0,1,.39-.69,1.88,1.88,0,0,1,.24-.22,2.76,2.76,0,0,0-.29,0l-.87,0c-.23,0-.26-.06-.27-.28a2.21,2.21,0,0,0-.09-.49,6,6,0,0,1-.43,1.78c-.15.41-.36.71-.85.68l0,.21h-.27l0-.25L15.35,22a3.92,3.92,0,0,1-1.77-1.16,10.59,10.59,0,0,1-1.87-2.9c-.26-.57-.49-1.16-.71-1.74a1.8,1.8,0,0,1,1.24-2.29,1.67,1.67,0,0,1,1.27.25c.27.18.5.39.77.6a1.49,1.49,0,0,0-.07-.62A3.16,3.16,0,0,1,13.88,12a2.32,2.32,0,0,1,2.33-1.72,2.88,2.88,0,0,1,1.56.52.38.38,0,0,0,.37.05,5,5,0,0,1,3.54.1.31.31,0,0,0,.26-.05,2.69,2.69,0,0,1,2.34-.24,2.26,2.26,0,0,1,1.39,1.81,1.91,1.91,0,0,1-.49,1.82,1,1,0,0,0-.25.89,2.28,2.28,0,0,1,.21-.22,11.76,11.76,0,0,1,1-.86,1.31,1.31,0,0,1,2,1.07A3.56,3.56,0,0,1,27.82,17,11.4,11.4,0,0,1,24,21.51a.24.24,0,0,0-.13.27c0,.18,0,.37.05.56h-.27l-.06-.53c-.18.08-.33.16-.5.22a.68.68,0,0,1-.92-.46c-.13-.38-.27-.74-.41-1.11a.27.27,0,0,0-.17-.16l-1-.13C20.93,20.69,21.42,21.06,21.5,21.68Zm.81-2.93a3.15,3.15,0,0,0,1.38-1,5,5,0,0,0,1-3,.38.38,0,0,0-.1-.2,1.21,1.21,0,0,1-.28-.71.83.83,0,0,0-.1-.41,3.45,3.45,0,0,0-1.26-1.14c-.07,0-.19,0-.28,0a.91.91,0,0,1-.34,0,1.53,1.53,0,0,1-.66-.8c-.05-.12-.09-.18-.19-.21a10.9,10.9,0,0,0-1.26-.28,4.35,4.35,0,0,0-2,.26,1.69,1.69,0,0,1,0,.25,1.45,1.45,0,0,1-1.07.73.36.36,0,0,0-.22.09c-.3.31-.59.63-.89.93a1.33,1.33,0,0,1-.76.43s-.09.08-.12.13a4.11,4.11,0,0,1-.39.54.42.42,0,0,0-.12.29,4.94,4.94,0,0,0,.32,1.9,1.66,1.66,0,0,0,.22.32.59.59,0,0,1,.06.14,1.23,1.23,0,0,0,.08.29,4.24,4.24,0,0,0,2,1.69l.52.2a2.08,2.08,0,0,1-.52-1.76,2.28,2.28,0,0,1,1.64-2.07,3.51,3.51,0,0,1,.72-.13,3.12,3.12,0,0,1,2.08.5,2.23,2.23,0,0,1,1,2.23A5.67,5.67,0,0,1,22.31,18.75Zm-10.79-4a1.33,1.33,0,0,0-.27,1.33,13.38,13.38,0,0,0,2.3,4.35,3.78,3.78,0,0,0,2.24,1.42c.43.08.58,0,.76-.37l.09-.21A3.92,3.92,0,0,0,17,19.36a.59.59,0,0,0-.32-.48A4.23,4.23,0,0,1,15,17.29l-.09-.13c-.26.09-.51.17-.75.27a1.22,1.22,0,0,1-1-.07l-.16-.08a9.14,9.14,0,0,0,1.51,2.55l-.09.26a2.51,2.51,0,0,1-.4-.4c-.37-.6-.73-1.2-1.07-1.82s-.56-1-.83-1.56A4,4,0,0,1,11.52,14.72Zm8.4.66-.67.07a2.16,2.16,0,0,0-1.72,2.61,1.65,1.65,0,0,0,1.35,1.24,4.48,4.48,0,0,0,1.55.05,2.49,2.49,0,0,0,1.29-.46A1.81,1.81,0,0,0,22,16.26,2.57,2.57,0,0,0,19.92,15.38Zm7.79-.67s0,.11,0,.16A2.64,2.64,0,0,1,27,17.18a.91.91,0,0,0-.12.22c-.37.61-.72,1.24-1.12,1.84a5,5,0,0,1-1.37,1.33.44.44,0,0,1-.09-.11,1.17,1.17,0,0,1-.05-.11,7.68,7.68,0,0,0,2.28-2.86,4.79,4.79,0,0,1-2.26-.08,3.74,3.74,0,0,1-2.36,1.78c-.05,0-.08.07-.12.11l0,.06.57-.06.1,1.14-.41-.06.19.49c.06.16.12.31.17.47.16.49.38.58.84.34l.13-.08a10.92,10.92,0,0,0,3.66-3.77,5.4,5.4,0,0,0,.86-2.14A1.3,1.3,0,0,0,27.71,14.71Zm-3-.34a2,2,0,0,0-.1-3.15,2.11,2.11,0,0,0-2.42-.12c-.38.17-.37.22-.12.54s.24.29.6.22a7.77,7.77,0,0,1,1.08-.13,1,1,0,0,1,.7.29,1.74,1.74,0,0,1,.4.92.78.78,0,0,1-.26.83.24.24,0,0,0-.05.2A3.18,3.18,0,0,0,24.74,14.37ZM14.5,14.13l.3-.47a.31.31,0,0,0,0-.4,1.08,1.08,0,0,1-.21-.78,1.36,1.36,0,0,1,.93-1.08,1.33,1.33,0,0,1,1.42.26c.27.22.29.23.59,0a1.59,1.59,0,0,0,.24-.2c.18-.18.17-.24,0-.38a3,3,0,0,0-1.3-.53,2.07,2.07,0,0,0-2.29,1.59A3.2,3.2,0,0,0,14.5,14.13Z"/><path d="M16.08,3.37H15.6a3.77,3.77,0,0,0-.36-1,3.34,3.34,0,0,0-.39,1h-.44a4.43,4.43,0,0,0-.57-1.55h.53c-.06.17,0,.34.29,1,.1-.33.33-.59.3-.95h.59c-.07.35.19.61.28.92a2.87,2.87,0,0,0,.32-.92h.47c-.11.25-.24.5-.33.77S16,3.06,16.08,3.37Z"/><path d="M7.58,8.07A14.78,14.78,0,0,1,6.25,1.62c.41,0,.44,0,.45.36,0,.82,0,1.64.13,2.46A16.12,16.12,0,0,0,7.56,7.8a2.41,2.41,0,0,1,.08.25Z"/><path d="M31.63,11.67a6.25,6.25,0,0,1,1.54-3.18c.25.08.26.12.13.3a2.73,2.73,0,0,1-.23.25,6,6,0,0,0-1.32,2.1.84.84,0,0,1,0,.1A14.41,14.41,0,0,1,35.3,8.38c.23.24.22.35,0,.52a4.63,4.63,0,0,1-.54.29,9.06,9.06,0,0,0-3,2.37A.41.41,0,0,0,31.63,11.67Z"/><path d="M22.1,5.51a.41.41,0,0,1-.13.8c-.44,0-.87,0-1.29,0V4.79h1.25a.37.37,0,0,1,.17.71Zm-1,.54c.24,0,.46,0,.69,0,.07,0,.13-.11.2-.17s-.12-.19-.18-.19a5.61,5.61,0,0,0-.71,0Zm0-.68c.24,0,.46,0,.68,0,.06,0,.11-.09.16-.14s-.1-.14-.15-.14c-.23,0-.46,0-.69,0Z"/><path d="M8.53,8.06a7.84,7.84,0,0,1,3.31-1.2A3,3,0,0,1,13.1,7c.4.15.43.2.36.67a1.91,1.91,0,0,1-.28-.07,3.57,3.57,0,0,0-2.81-.17C9.76,7.64,9.17,7.85,8.53,8.06Z"/><path d="M7.46,8.19a1.48,1.48,0,0,1-.74-.41,8.24,8.24,0,0,1-2.17-3c-.21-.48-.36-1-.53-1.47,0-.12,0-.2.09-.25s.18.07.21.15c.08.28.15.57.23.85A7.53,7.53,0,0,0,6.28,7C6.66,7.38,7.06,7.78,7.46,8.19Z"/><path d="M8.85,3c.27.3.27.43-.06.6a1.85,1.85,0,0,0-1,1.56c-.06.71,0,1.42-.07,2.13a2.43,2.43,0,0,1,0,.27,6.67,6.67,0,0,1-.3-2.26,3.38,3.38,0,0,1,.31-1.25A2.21,2.21,0,0,1,8.85,3Z"/><path d="M24,2.6A.83.83,0,0,1,25,1.77a.86.86,0,0,1,.95.83A.95.95,0,0,1,24,2.6Zm.93.53a.52.52,0,0,0,.56-.53.56.56,0,0,0-1.11,0A.52.52,0,0,0,25,3.13Z"/><path d="M23.09,5.09v.3h.74v.33h-.74V6h1.15v.32H22.67V4.77h1.52v.32Z"/><path d="M18.05,6.36V4.77h1.53v.32h-1.1v.3h.73v.34h-.73V6h1.14v.33Z"/><path d="M10.31,3.65a1.77,1.77,0,0,0,.17.2c.18.14.11.25,0,.36a1.17,1.17,0,0,1-.31.17A3,3,0,0,0,8.64,5.86a8.8,8.8,0,0,0-.67,2c0,.07,0,.14,0,.24A5.15,5.15,0,0,1,10.31,3.65Z"/><path d="M20.87,2.71H20v.66h-.44V1.82H20l0,.57h.91l0-.57h.43V3.37h-.43Z"/><path d="M17.22,5.36l0-.58h.44V6.34h-.44V5.68h-.85v.66h-.44V4.78h.45v.58Z"/><path d="M5.37,13.45C5,13.35,5,13.35,5,13a4.93,4.93,0,0,1,.23-1.79,3.83,3.83,0,0,1,1.53-2A5.92,5.92,0,0,0,5.37,13.45Z"/><path d="M19.06,2.31a.9.9,0,0,0-.91-.2c-.06,0-.09.11-.14.16s.11.1.17.11.35,0,.52.06l.27.05a.43.43,0,0,1,.3.4A.42.42,0,0,1,19,3.3a1.28,1.28,0,0,1-1,.05l-.37-.12.12-.31a1.09,1.09,0,0,0,.95.17c.06,0,.11-.11.16-.17s-.11-.11-.18-.12a4.93,4.93,0,0,0-.54,0c-.32,0-.48-.18-.5-.42a.46.46,0,0,1,.43-.51,2.09,2.09,0,0,1,.66,0,1.6,1.6,0,0,1,.44.17Z"/><path d="M24.48,6.2l.13-.31a1.14,1.14,0,0,0,.93.17c.07,0,.12-.11.18-.17s-.13-.11-.2-.12A5,5,0,0,0,25,5.71c-.29,0-.44-.18-.46-.41a.47.47,0,0,1,.37-.5A1.45,1.45,0,0,1,26,5l-.15.3A.89.89,0,0,0,25,5.08s-.09.1-.14.16.11.1.17.11.35,0,.52.05a1.31,1.31,0,0,1,.27.06.42.42,0,0,1,.3.39.4.4,0,0,1-.25.41,1.33,1.33,0,0,1-1,.06Z"/><path d="M8.25,8.43A8,8,0,0,1,10,8.84a6.94,6.94,0,0,1,2.34,1.24A2.13,2.13,0,0,1,13,11c-.18.18-.33.19-.58-.06a.74.74,0,0,1-.16-.19,4.5,4.5,0,0,0-2.51-1.9C9.25,8.71,8.75,8.58,8.25,8.43Z"/><path d="M26.19,1.82h.44c0,.37,0,.73,0,1.09,0,.17.27.25.54.21s.32-.1.32-.32,0-.52,0-.78a1.42,1.42,0,0,0,0-.2h.43c0,.11,0,.21,0,.32v.42c0,.71-.26.94-1,.86-.52-.07-.64-.21-.64-.74,0-.19,0-.38,0-.57A2.85,2.85,0,0,0,26.19,1.82Z"/><path d="M8.2,14.25c-.11.12-.2.06-.3-.05a3,3,0,0,1-.81-1.73A6.64,6.64,0,0,1,7.31,10,6.25,6.25,0,0,0,8.2,14.25Z"/><path d="M10.62,5.42a.18.18,0,0,1,0,.06c0,.54,0,.56-.51.65a2.3,2.3,0,0,0-1.6,1.1c-.11.17-.21.35-.32.53C8.24,6.81,9.75,5.35,10.62,5.42Z"/><path d="M34.91,15.08c-.37.23-.38.23-.48-.16A3.89,3.89,0,0,0,33.13,13c-.33-.3-.69-.56-1-.83L31.93,12C32.8,12.13,34.63,14,34.91,15.08Z"/><path d="M31.56,11.46A2.89,2.89,0,0,1,31.62,10a4.82,4.82,0,0,1,1.52-2.46c.07-.06.17-.17.26,0s0,.19,0,.27a.66.66,0,0,1-.2.21,4,4,0,0,0-1.47,2.63C31.64,10.86,31.6,11.16,31.56,11.46Z"/><path d="M23.37,3.37H22.9c.05-.32.13-.64-.13-.92s-.33-.42-.5-.62h.63c-.11.26.18.34.25.58.1-.23.34-.33.26-.59H24a9.24,9.24,0,0,0-.61.79A.91.91,0,0,0,23.37,3.37Z"/><path d="M5.78,7.77a4.61,4.61,0,0,0-3.35.05c0-.38,0-.42.3-.55A2.39,2.39,0,0,1,4,7.14,6,6,0,0,1,5.78,7.77Z"/><path d="M14,5.09V4.75h1.61V5.1h-.58V6.34H14.6V5.09Z"/><path d="M27.29,5.1V6.34h-.44V5.09h-.58V4.76h1.61V5.1Z"/><path d="M7.35,8.54H6.82a3.6,3.6,0,0,0-1.59.26c-.29.13-.56.31-.86.48L4.24,9A3.39,3.39,0,0,1,7,8.35l-.41-.2,0-.05.73.32Z"/><path d="M7.36,8c-.11-.11-.21-.21-.3-.32A13.38,13.38,0,0,1,5.2,4.28s0-.1,0-.14,0-.18.11-.19A.21.21,0,0,1,5.46,4c.09.23.16.48.24.72a10.82,10.82,0,0,0,1.57,3l.12.18Z"/><path d="M30.5,11.48a5,5,0,0,0-3.41.25c-.09-.17-.08-.28.11-.37a3.38,3.38,0,0,1,3.21.06Z"/><path d="M32.14,11.37a4.31,4.31,0,0,1,2.17-1.16,1.73,1.73,0,0,1,1.15.28c.11.08.12.17,0,.24a.19.19,0,0,1-.2,0,1.86,1.86,0,0,0-1.8,0C33.05,10.91,32.62,11.14,32.14,11.37Z"/><path d="M32.25,11.62a3.56,3.56,0,0,1,3.31,0c.27.15.27.16.16.51a1.42,1.42,0,0,1-.39-.19,2.55,2.55,0,0,0-2.1-.44C32.9,11.49,32.58,11.56,32.25,11.62Z"/><path d="M32.19,16.12c-.15-.1-.27-.21-.16-.4a3,3,0,0,0,.11-2.41c-.06-.2-.12-.4-.17-.61a6.55,6.55,0,0,1,.61,1.86,4.27,4.27,0,0,1,0,1A.7.7,0,0,1,32.19,16.12Z"/><path d="M28.67,19.51l.15-.24h0a10.7,10.7,0,0,1,2.46-2l.19-.11c.15.19.15.26,0,.38a3.9,3.9,0,0,1-.35.19,7,7,0,0,0-2.27,1.73s-.07.19-.14,0Z"/><path d="M32.15,11.81c1-.2,2.3,0,2.64.75-.35.25-.43.26-.68-.06a2.11,2.11,0,0,0-1.67-.68Z"/><path d="M16.91,1.81h.44V3.37h-.44Z"/><path d="M8.16,8.54l.22.1A6.81,6.81,0,0,1,10.62,11a.34.34,0,0,1-.06.46A6.62,6.62,0,0,0,8.16,8.54Z"/><path d="M7.57,18v.1l-.25-.21a6.18,6.18,0,0,0-2.14-1.08,1.82,1.82,0,0,1-.3-.11c-.15-.06-.2-.16-.06-.32a9.5,9.5,0,0,1,2.65,1.49l.11.13Z"/><path d="M31.18,22.15c-.27.19-.3.18-.37-.08A2.2,2.2,0,0,0,30.2,21c-.34-.34-.72-.64-1.08-.95-.05,0-.1-.07-.12-.13A4.59,4.59,0,0,1,31.18,22.15Z"/><path d="M28.67,19.51a1.77,1.77,0,0,1,0-1,3.47,3.47,0,0,1,1.15-1.95.65.65,0,0,1,.21-.06.79.79,0,0,1-.05.22c0,.05-.06.08-.1.11A3.12,3.12,0,0,0,28.73,19c0,.17,0,.34-.06.51Z"/><path d="M31.23,11.53a2.61,2.61,0,0,1-.22-.27c-.16-.21-.29-.43-.45-.64a2,2,0,0,0-1.16-.76c.19-.3.22-.32.5-.12a4,4,0,0,1,1.16,1.34c.08.13.15.27.22.4Z"/><path d="M31.09,10.58a6.71,6.71,0,0,0-1.5-2.64c.09,0,.19,0,.25,0a2.4,2.4,0,0,1,.79,1A6.15,6.15,0,0,1,31.09,10.58Z"/><path d="M5.05,6.75a2.46,2.46,0,0,1-.34-.22A5,5,0,0,1,3.23,4.22,2.76,2.76,0,0,1,3.15,4a.34.34,0,0,1,.05-.11s.09,0,.11.06a.49.49,0,0,1,0,.16,4.69,4.69,0,0,0,1.46,2.4l.26.24Z"/><path d="M31.66,18.83l-.08.15h-.06a1.61,1.61,0,0,0-1.63,0c-.23.1-.45.22-.72.35C30.11,18.48,31.08,18.32,31.66,18.83Z"/><path d="M31.75,19.93c-.4-.16-.71-.52-1.17-.5s-.84.06-1.27.07c.31-.07.62-.17.93-.21a2.17,2.17,0,0,1,1.43.27C31.82,19.65,31.88,19.73,31.75,19.93Z"/><path d="M27.81,14.09a.75.75,0,0,1,0-.2,1.88,1.88,0,0,1,.58-.91,3.71,3.71,0,0,1,1.56-.78C29.11,12.68,28.2,13.06,27.81,14.09Z"/><path d="M7.34,18.36a3.79,3.79,0,0,0-1.29,2.38c-.17,0-.3,0-.24-.24a4.26,4.26,0,0,1,1.44-2.1Z"/><path d="M29,20.51a3.81,3.81,0,0,1,.46,1.84.68.68,0,0,1-.31.59c-.12-.07-.2-.15-.12-.29a2.35,2.35,0,0,0,.05-1.91C29,20.67,29,20.59,29,20.51Z"/><path d="M7.57,18a3.05,3.05,0,0,0-1.42-2.16.64.64,0,0,1-.2-.26c.13-.13.22,0,.31.09a3.12,3.12,0,0,1,1.31,2,2.29,2.29,0,0,1,0,.37Z"/><path d="M10.51,17.6a3.38,3.38,0,0,0-2.16.18l.1-.1a2.2,2.2,0,0,1,2-.28c.06,0,.1.1.15.15Z"/><path d="M8.19,10a10.74,10.74,0,0,0,1.13,2.82c-.08,0-.16,0-.19-.08A6.87,6.87,0,0,1,8.69,12,7.52,7.52,0,0,1,8.19,10Z"/><path d="M5,17.94c-.14-.09-.13-.16,0-.25a1.17,1.17,0,0,1,.9-.27,2.9,2.9,0,0,1,1.24.48C6.4,17.72,5.69,17.33,5,17.94Z"/><path d="M29.23,19.72a1.76,1.76,0,0,1,1.83.57c-.13.13-.29.2-.43,0a1.57,1.57,0,0,0-1.32-.57Z"/><path d="M7,18.1a2.15,2.15,0,0,0-2,.7c-.14-.14-.18-.21,0-.33A2.25,2.25,0,0,1,7,18.1Z"/><path d="M30.83,14.66a3.44,3.44,0,0,0,.76-2.48,4.17,4.17,0,0,1-.21,2C31.28,14.44,31.17,14.67,30.83,14.66Z"/><path d="M7.66,21a.74.74,0,0,1-.37-.57A3.28,3.28,0,0,1,7.42,19l0,.3a1.89,1.89,0,0,0,.32,1.42C7.8,20.84,7.81,20.94,7.66,21Z"/><path d="M28.82,19.27c0-.05,0-.11,0-.15a5.59,5.59,0,0,1,1-1.78c.08-.09.15-.11.25,0l-.28.33a4,4,0,0,0-1,1.57Z"/><path d="M31.43,9.33a1.81,1.81,0,0,1,.1-1,2.62,2.62,0,0,1,.77-1.11.37.37,0,0,1,.14,0,.76.76,0,0,1,0,.15.38.38,0,0,1-.09.09,2.49,2.49,0,0,0-.9,1.88A.13.13,0,0,0,31.43,9.33Z"/><path d="M5.58,19a1.76,1.76,0,0,1,1.51-.75L7,18.28a1.38,1.38,0,0,0-1,.64C5.89,19.12,5.84,19.11,5.58,19Z"/><path d="M10.74,8a2,2,0,0,1,1.78.17l.35.23s0,.08,0,.12-.08,0-.11,0a.42.42,0,0,1-.14-.09A2.09,2.09,0,0,0,11,7.93Z"/><path d="M29.31,14.31c0-.08,0-.17,0-.23a3.67,3.67,0,0,1,.39-.67,4.17,4.17,0,0,1,.72-.6,3.85,3.85,0,0,0-1,1.49Z"/><path d="M7.39,17.67a.39.39,0,0,1-.08-.1,3.87,3.87,0,0,0-1-1.12c-.07-.05-.16-.2-.14-.22s.19,0,.25.08c.33.39.66.8,1,1.21,0,0,0,.09.07.14Z"/><path d="M25.89,21.23c.23-.72.85-1,1.49-1.19A3.85,3.85,0,0,0,25.89,21.23Z"/><path d="M8.81,16.65c-.59.23-.74.81-1,1.27a2.83,2.83,0,0,1,.69-1.3C8.58,16.52,8.69,16.45,8.81,16.65Z"/><path d="M7.82,17.15c-.05-.78.29-1.67.67-1.73A4,4,0,0,0,7.82,17.15Z"/><path d="M28.12,21.84a2.41,2.41,0,0,0,.56-1.69C28.83,20.92,28.53,21.82,28.12,21.84Z"/><path d="M3.22,8.4c0-.05,0-.14.08-.17a1.46,1.46,0,0,1,1.27-.17,2,2,0,0,0-1.28.39Z"/><path d="M5,10.31a2.38,2.38,0,0,0-.68,1.44C4.05,11.39,4.42,10.62,5,10.31Z"/><path d="M10.26,19.06a3.47,3.47,0,0,0-1.5-.83A1.79,1.79,0,0,1,10.26,19.06Z"/><path d="M28.53,17.83a1.76,1.76,0,0,1,.83-1.59,6.87,6.87,0,0,0-.56.74A6.45,6.45,0,0,0,28.53,17.83Z"/><path d="M8.37,20a.26.26,0,0,1-.31-.18c-.14-.31-.26-.63-.38-.95a1.68,1.68,0,0,1,0-.3,7.22,7.22,0,0,0,.27.79A6.38,6.38,0,0,0,8.37,20Z"/><path d="M33.83,15.15a2.5,2.5,0,0,0-.64-1.6A1.71,1.71,0,0,1,33.83,15.15Z"/><path d="M27.77,20.53a2.49,2.49,0,0,0-.74,1C26.85,21.35,27.29,20.74,27.77,20.53Z"/><path d="M7.44,16.44a4.13,4.13,0,0,0-.36-.69,4.1,4.1,0,0,0-.57-.52C6.88,15.22,7.41,15.93,7.44,16.44Z"/><path d="M28.43,19.5c-.18-.13-.67-.84-.63-1l.67,1Z"/><path d="M5.56,1.81l.15,1.4a3.31,3.31,0,0,1-.23-1.39Z"/><path d="M28.83,10.48l-1.09.12A1,1,0,0,1,28.83,10.48Z"/><path d="M7.35,2.35A1.14,1.14,0,0,0,7,3.46C6.82,2.89,7,2.45,7.35,2.35Z"/><path d="M8.56,18.72a1.38,1.38,0,0,1,.83.81Z"/><path d="M29.46,8.75c.07,0,.15,0,.2,0a1.8,1.8,0,0,1,.62.79c-.24-.28-.42-.63-.82-.72Z"/><path d="M10.64,6.17c.44-.26.93-.26,1,0A1.41,1.41,0,0,0,10.64,6.17Z"/><path d="M33.88,8.72a3.1,3.1,0,0,1,.94-.79l.06.08a5.74,5.74,0,0,0-.53.32C34.19,8.45,34,8.59,33.88,8.72Z"/><path d="M9.21,3.74a1.19,1.19,0,0,1,.7-.64s.09,0,.14.08A1.3,1.3,0,0,0,9.21,3.74Z"/><path d="M29.94,21.09a1.19,1.19,0,0,1,.42,1.12A1.88,1.88,0,0,0,29.94,21.09Z"/><path d="M12.71,9.15a.63.63,0,0,1,.51.51Z"/><path d="M6.43,14a1,1,0,0,1-.23-.9Z"/><path d="M11.1,4.29l.42-.18s.09.06.14.09a.75.75,0,0,1-.12.07l-.42.05Z"/><path d="M3.09,6.45c.17-.17.38-.18.67,0Z"/><path d="M34.27,12.77a1.3,1.3,0,0,1,.53.74Z"/><path d="M35.39,11.05c.29,0,.61.14.62.32Z"/><path d="M28.26,18.74,28,18l.09,0,.19.72Z"/><path d="M35.28,9.29l-.67.08C34.88,9.16,35.12,9.13,35.28,9.29Z"/><path d="M10,17l-.65,0A.54.54,0,0,1,10,17Z"/><path d="M27.78,19.47l-.48-.1C27.38,19.22,27.45,19.23,27.78,19.47Z"/><path d="M4.26,9.89c-.1,0-.21.09-.31.15a3.13,3.13,0,0,0-.3.2A.66.66,0,0,1,4.26,9.89Z"/><path d="M33.22,15.79l.08-.57A.43.43,0,0,1,33.22,15.79Z"/><path d="M6.59,19.69l-.13.87A1.26,1.26,0,0,1,6.59,19.69Z"/><path d="M8.24,16.44c.07-.29.22-.48.39-.5Z"/><path d="M22,15.21a2.3,2.3,0,0,1,.12-.34.4.4,0,0,1,.72,0,.68.68,0,0,1,0,.66.43.43,0,0,1-.4.3.41.41,0,0,1-.39-.29A1.44,1.44,0,0,1,22,15.21Z"/><path d="M16.56,15.47a.55.55,0,0,1,.45-.6c.25,0,.46.27.46.6s-.21.61-.47.6A.55.55,0,0,1,16.56,15.47Z"/><path d="M19.63,19.17l-.51-.33a.18.18,0,0,1-.06-.28.37.37,0,0,1,.29-.07,1.18,1.18,0,0,1,.28.18l.22-.15a.3.3,0,0,0,0-.48c-.22-.21-.43-.41-.66-.61a.24.24,0,0,1-.08-.31.26.26,0,0,0,0-.08c.15-.4.15-.39.57-.39h1a.25.25,0,0,1,.27.15c.32.54.27.42-.08.81-.13.14-.26.28-.4.41a.31.31,0,0,0-.08.38.85.85,0,0,0,.36.24s.13-.07.19-.12.22-.11.32,0,0,.22-.07.31c-.39.32-.4.33-.79.07a.34.34,0,0,0-.47,0A3.22,3.22,0,0,1,19.63,19.17Z"/><path d="M21.69,21.88l-.23,0c-.17.22-.21.2-.37,0s-.51-.77-.8-1.13-.39-.25-.58,0-.35.61-.53.91c-.07.13-.13.27-.21.39a.2.2,0,0,1-.36,0c-.05-.09-.05-.23-.21-.23,0,0-.07-.18,0-.24a5.83,5.83,0,0,1,.39-.69A1.82,1.82,0,0,1,19,20.6h-.3c-.28,0-.57,0-.86,0s-.26-.05-.27-.27a2.81,2.81,0,0,0-.09-.49,6,6,0,0,1-.43,1.78c-.15.41-.36.71-.85.68l-.05.21h-.26l0-.25-.37-.1A3.84,3.84,0,0,1,13.78,21a10.59,10.59,0,0,1-1.87-2.9c-.26-.57-.49-1.16-.71-1.75a1.81,1.81,0,0,1,1.24-2.29,1.71,1.71,0,0,1,1.27.26c.26.18.5.39.77.6a1.49,1.49,0,0,0-.07-.62,3.16,3.16,0,0,1-.33-2.11,2.32,2.32,0,0,1,2.33-1.72A2.91,2.91,0,0,1,18,11a.38.38,0,0,0,.37.05,5,5,0,0,1,3.54.1.36.36,0,0,0,.26,0,2.65,2.65,0,0,1,2.34-.24,2.28,2.28,0,0,1,1.39,1.81,1.91,1.91,0,0,1-.49,1.82,1,1,0,0,0-.25.89,2.28,2.28,0,0,1,.21-.22,11.76,11.76,0,0,1,1-.86,1.3,1.3,0,0,1,2,1.07A3.45,3.45,0,0,1,28,17.16a11.25,11.25,0,0,1-3.8,4.54.29.29,0,0,0-.13.28c0,.18,0,.36.06.56h-.27L23.82,22a4.12,4.12,0,0,1-.5.21.67.67,0,0,1-.92-.46c-.13-.37-.27-.74-.42-1.1a.25.25,0,0,0-.16-.16l-1-.13C21.13,20.89,21.62,21.25,21.69,21.88ZM22.51,19a3.1,3.1,0,0,0,1.38-1,5,5,0,0,0,1-3,.35.35,0,0,0-.1-.2,1.15,1.15,0,0,1-.28-.71.74.74,0,0,0-.11-.41,3.46,3.46,0,0,0-1.25-1.15.83.83,0,0,0-.28,0,1,1,0,0,1-.35,0,1.51,1.51,0,0,1-.65-.8c0-.12-.09-.19-.2-.21a10.74,10.74,0,0,0-1.25-.28,4.35,4.35,0,0,0-2,.26,1.69,1.69,0,0,1,0,.25,1.47,1.47,0,0,1-1.07.73.36.36,0,0,0-.22.09c-.3.3-.59.63-.89.93a1.36,1.36,0,0,1-.76.43c-.05,0-.09.08-.12.12a3.63,3.63,0,0,1-.39.55.46.46,0,0,0-.13.29,5.13,5.13,0,0,0,.32,1.9,1.73,1.73,0,0,0,.22.31,1,1,0,0,1,.07.15,1.23,1.23,0,0,0,.08.29,4.24,4.24,0,0,0,2,1.69l.52.2a2.11,2.11,0,0,1-.53-1.76,2.3,2.3,0,0,1,1.65-2.07,3.51,3.51,0,0,1,.72-.13,3.17,3.17,0,0,1,2.08.49,2.24,2.24,0,0,1,1,2.24A5.67,5.67,0,0,1,22.51,19Zm-10.79-4a1.33,1.33,0,0,0-.27,1.33,13.19,13.19,0,0,0,2.3,4.35A3.79,3.79,0,0,0,16,22c.44.08.59,0,.77-.37l.09-.22a4,4,0,0,0,.32-1.87.59.59,0,0,0-.32-.48,4.23,4.23,0,0,1-1.66-1.59l-.09-.13c-.26.09-.51.16-.75.27a1.22,1.22,0,0,1-1-.07l-.16-.08A8.91,8.91,0,0,0,14.65,20l-.09.26a2.51,2.51,0,0,1-.4-.4c-.37-.6-.73-1.2-1.07-1.82s-.56-1-.83-1.57A3.9,3.9,0,0,1,11.72,14.92Zm8.4.66-.67.07a2.16,2.16,0,0,0-1.72,2.61,1.65,1.65,0,0,0,1.35,1.24,4.48,4.48,0,0,0,1.55.05,2.41,2.41,0,0,0,1.29-.47,1.8,1.8,0,0,0,.25-2.62A2.58,2.58,0,0,0,20.12,15.58Zm7.79-.67c0,.05,0,.11,0,.16a2.7,2.7,0,0,1-.75,2.31c-.06.05-.08.14-.13.21-.36.62-.71,1.25-1.11,1.84a5,5,0,0,1-1.37,1.34.44.44,0,0,1-.09-.11,1.17,1.17,0,0,1-.05-.11,7.64,7.64,0,0,0,2.28-2.87,4.66,4.66,0,0,1-2.26-.07,3.74,3.74,0,0,1-2.36,1.78c-.05,0-.08.07-.13.11l0,.06.58-.06.1,1.14-.41-.06.19.49c.05.15.11.31.17.47.16.49.38.58.84.34a.57.57,0,0,1,.13-.08A10.92,10.92,0,0,0,27.25,18a5.38,5.38,0,0,0,.85-2.14A1.3,1.3,0,0,0,27.91,14.91Zm-3-.34a2,2,0,0,0-.1-3.15,2.14,2.14,0,0,0-2.43-.13c-.37.18-.37.22-.12.55s.25.28.6.22A6.75,6.75,0,0,1,24,11.93a1,1,0,0,1,.7.29,1.74,1.74,0,0,1,.4.91.81.81,0,0,1-.26.84.24.24,0,0,0-.05.2A3.18,3.18,0,0,0,24.94,14.57ZM14.7,14.33l.3-.47a.32.32,0,0,0,0-.4,1,1,0,0,1-.21-.78,1.36,1.36,0,0,1,.93-1.08,1.33,1.33,0,0,1,1.42.26c.27.21.29.23.59,0a1.11,1.11,0,0,0,.24-.2c.18-.17.17-.23,0-.37a3,3,0,0,0-1.3-.53,2.07,2.07,0,0,0-2.29,1.59A3.2,3.2,0,0,0,14.7,14.33Z"/><path d="M16.28,3.57H15.8a3.77,3.77,0,0,0-.36-1,3.34,3.34,0,0,0-.39,1H14.6A4.38,4.38,0,0,0,14,2h.53c-.07.17,0,.34.29,1,.1-.34.33-.59.3-1h.58c-.06.35.2.61.29.92A2.87,2.87,0,0,0,16.35,2h.47c-.11.25-.24.5-.33.77S16.19,3.26,16.28,3.57Z"/><path d="M7.78,8.26A14.74,14.74,0,0,1,6.45,1.82c.4,0,.44,0,.45.35C6.94,3,7,3.82,7,4.64A16.56,16.56,0,0,0,7.76,8l.08.26Z"/><path d="M31.83,11.87a6.18,6.18,0,0,1,1.54-3.18c.25.08.26.11.13.3a2.73,2.73,0,0,1-.23.25A6,6,0,0,0,32,11.34a.56.56,0,0,0,0,.1A14.41,14.41,0,0,1,35.5,8.58c.22.24.22.35,0,.52a4.63,4.63,0,0,1-.54.29,9.2,9.2,0,0,0-3,2.37Z"/><path d="M22.3,5.71a.4.4,0,0,1,.26.48.39.39,0,0,1-.39.32c-.44,0-.88,0-1.29,0V5c.4,0,.82,0,1.25,0a.37.37,0,0,1,.38.28C22.56,5.46,22.48,5.59,22.3,5.71Zm-1,.54c.24,0,.46,0,.68,0s.14-.11.21-.17-.12-.19-.18-.19a5.61,5.61,0,0,0-.71,0Zm0-.68c.24,0,.46,0,.68,0,.06,0,.11-.09.16-.14S22,5.28,22,5.28c-.23,0-.46,0-.69,0Z"/><path d="M8.73,8.26A7.79,7.79,0,0,1,12,7.06a3,3,0,0,1,1.26.18c.4.15.42.2.36.67a1.91,1.91,0,0,1-.28-.07,3.57,3.57,0,0,0-2.81-.17C10,7.84,9.37,8.05,8.73,8.26Z"/><path d="M7.65,8.39A1.49,1.49,0,0,1,6.92,8,8.28,8.28,0,0,1,4.75,4.92c-.21-.47-.36-1-.54-1.46,0-.12,0-.2.1-.25s.18.07.2.15c.09.28.16.57.24.85a7.53,7.53,0,0,0,1.73,3C6.86,7.58,7.26,8,7.65,8.39Z"/><path d="M9.05,3.24c.26.3.26.43-.06.6A1.85,1.85,0,0,0,8,5.4c-.07.71,0,1.42-.07,2.13a2.43,2.43,0,0,1,0,.27,6.45,6.45,0,0,1-.3-2.27A3.33,3.33,0,0,1,8,4.29,2.17,2.17,0,0,1,9.05,3.24Z"/><path d="M24.21,2.8A.84.84,0,0,1,25.15,2a.86.86,0,0,1,1,.83.85.85,0,0,1-.93.82A.86.86,0,0,1,24.21,2.8Zm.94.52a.51.51,0,0,0,.56-.52.56.56,0,0,0-1.11,0A.51.51,0,0,0,25.15,3.32Z"/><path d="M23.29,5.29v.3H24v.33h-.74v.31h1.14v.32H22.87V5h1.52v.32Z"/><path d="M18.25,6.55V5h1.52v.32H18.68v.3h.73v.33h-.73v.31h1.14v.32Z"/><path d="M10.51,3.85a1.77,1.77,0,0,0,.17.2c.18.13.11.25,0,.36a1.17,1.17,0,0,1-.31.17A3,3,0,0,0,8.84,6.06a8.64,8.64,0,0,0-.67,2c0,.07,0,.14-.05.23A5.15,5.15,0,0,1,10.51,3.85Z"/><path d="M21.06,2.91h-.84v.66h-.44V2h.43l0,.57h.92l0-.57h.43V3.57h-.44Z"/><path d="M17.42,5.56l0-.58h.44V6.53h-.44V5.88h-.85v.65h-.44V5h.44v.58Z"/><path d="M5.57,13.65c-.36-.1-.36-.1-.37-.44a5.16,5.16,0,0,1,.23-1.79A3.81,3.81,0,0,1,7,9.45,5.92,5.92,0,0,0,5.57,13.65Z"/><path d="M19.26,2.5a.89.89,0,0,0-.91-.19c-.06,0-.09.11-.14.16s.11.1.17.11.35,0,.52.06a1.28,1.28,0,0,1,.27,0,.43.43,0,0,1,.3.4.4.4,0,0,1-.25.4,1.24,1.24,0,0,1-1,.06l-.38-.12L18,3.12a1.06,1.06,0,0,0,.94.16c.07,0,.11-.1.17-.16S19,3,18.92,3l-.54-.06c-.32,0-.48-.17-.51-.41A.47.47,0,0,1,18.31,2,2.09,2.09,0,0,1,19,2a2,2,0,0,1,.44.16Z"/><path d="M24.68,6.39l.13-.31a1.1,1.1,0,0,0,.92.18c.07,0,.13-.11.19-.17S25.79,6,25.72,6s-.38,0-.56-.07a.45.45,0,0,1-.47-.41.5.5,0,0,1,.38-.5,1.49,1.49,0,0,1,1.16.18l-.16.3a.87.87,0,0,0-.9-.2c-.06,0-.09.11-.14.16s.11.1.17.11.34,0,.52.06l.27.06a.42.42,0,0,1,.3.39.41.41,0,0,1-.25.41,1.33,1.33,0,0,1-1,.06C24.94,6.49,24.82,6.44,24.68,6.39Z"/><path d="M8.45,8.62A7.53,7.53,0,0,1,10.21,9a7,7,0,0,1,2.34,1.24,2.13,2.13,0,0,1,.65.94c-.19.18-.33.19-.58-.06a.78.78,0,0,1-.16-.2A4.47,4.47,0,0,0,9.94,9.07C9.45,8.91,9,8.77,8.45,8.62Z"/><path d="M26.39,2h.44c0,.36,0,.73,0,1.09,0,.17.27.25.55.21s.32-.1.32-.32,0-.52,0-.78a1.42,1.42,0,0,0,0-.2h.43c0,.11,0,.21,0,.32s0,.28,0,.42c0,.71-.27.94-1,.85-.52-.06-.64-.2-.64-.73,0-.19,0-.38,0-.57A2.85,2.85,0,0,0,26.39,2Z"/><path d="M8.4,14.45c-.11.11-.2.06-.31,0a3.08,3.08,0,0,1-.8-1.74,6.4,6.4,0,0,1,.22-2.46A6.25,6.25,0,0,0,8.4,14.45Z"/><path d="M10.82,5.62a.15.15,0,0,1,0,.06c0,.54,0,.56-.51.65a2.3,2.3,0,0,0-1.6,1.1c-.11.17-.21.35-.32.53C8.44,7,10,5.55,10.82,5.62Z"/><path d="M35.11,15.28c-.37.22-.38.23-.48-.16a4,4,0,0,0-1.3-1.94c-.33-.29-.69-.55-1-.83l-.17-.12C33,12.33,34.83,14.21,35.11,15.28Z"/><path d="M31.75,11.66a3,3,0,0,1,.07-1.49,4.82,4.82,0,0,1,1.52-2.46c.07-.07.17-.17.26,0a.39.39,0,0,1,0,.27.66.66,0,0,1-.2.21,4,4,0,0,0-1.47,2.62C31.84,11.06,31.8,11.36,31.75,11.66Z"/><path d="M23.57,3.57H23.1c0-.32.13-.64-.13-.92s-.33-.42-.5-.63h.63c-.11.27.17.35.25.59.1-.23.34-.33.26-.59h.58a9.12,9.12,0,0,0-.6.79A.91.91,0,0,0,23.57,3.57Z"/><path d="M6,8A4.56,4.56,0,0,0,2.63,8c0-.38,0-.42.3-.55A2.39,2.39,0,0,1,4.2,7.34,6,6,0,0,1,6,8Z"/><path d="M14.22,5.29V5h1.61v.34h-.59V6.53H14.8V5.29Z"/><path d="M27.49,5.29V6.53h-.44V5.29h-.58V5h1.61v.34Z"/><path d="M7.55,8.74H7A3.58,3.58,0,0,0,5.43,9a9.26,9.26,0,0,0-.86.48l-.13-.32a3.37,3.37,0,0,1,2.8-.61l-.41-.2,0,0,.73.32Z"/><path d="M7.56,8.17a2.93,2.93,0,0,1-.3-.32A13.38,13.38,0,0,1,5.4,4.48a.58.58,0,0,0-.05-.14c-.06-.13,0-.18.12-.2a.22.22,0,0,1,.19.09c.09.23.16.47.24.71a10.48,10.48,0,0,0,1.57,3,1.74,1.74,0,0,1,.11.18Z"/><path d="M30.69,11.68a5,5,0,0,0-3.4.25c-.09-.18-.08-.28.11-.37a3.38,3.38,0,0,1,3.21.06Z"/><path d="M32.34,11.57a4.24,4.24,0,0,1,2.17-1.16,1.73,1.73,0,0,1,1.15.28c.11.08.12.16,0,.24a.21.21,0,0,1-.2,0,1.86,1.86,0,0,0-1.8,0C33.25,11.11,32.82,11.34,32.34,11.57Z"/><path d="M32.45,11.82a3.56,3.56,0,0,1,3.31-.05c.27.15.27.15.16.51a2.12,2.12,0,0,1-.4-.19,2.51,2.51,0,0,0-2.1-.44C33.1,11.69,32.78,11.76,32.45,11.82Z"/><path d="M32.39,16.32c-.15-.1-.27-.21-.16-.4a3,3,0,0,0,.11-2.41c-.06-.21-.12-.4-.17-.61a6.23,6.23,0,0,1,.6,1.86,4.18,4.18,0,0,1,0,1A.71.71,0,0,1,32.39,16.32Z"/><path d="M28.87,19.71l.14-.24h0a10.65,10.65,0,0,1,2.45-2l.2-.11c.15.19.15.26,0,.38a3.9,3.9,0,0,1-.35.19A6.76,6.76,0,0,0,29,19.68s-.07.19-.14,0Z"/><path d="M32.35,12c1-.19,2.3.06,2.63.76-.34.25-.42.25-.68-.06A2.06,2.06,0,0,0,32.64,12Z"/><path d="M17.11,2h.44V3.57h-.44Z"/><path d="M8.36,8.74l.22.1a6.81,6.81,0,0,1,2.24,2.35.33.33,0,0,1-.07.46A6.6,6.6,0,0,0,8.36,8.74Z"/><path d="M7.77,18.14v.11L7.5,18A6,6,0,0,0,5.37,17l-.3-.11c-.15-.06-.21-.16-.07-.32A9.18,9.18,0,0,1,7.66,18a1.31,1.31,0,0,1,.11.12Z"/><path d="M31.38,22.34c-.27.2-.3.19-.37-.07a2.23,2.23,0,0,0-.61-1.09c-.35-.34-.72-.64-1.08-.95-.05,0-.1-.07-.12-.13A4.53,4.53,0,0,1,31.38,22.34Z"/><path d="M28.87,19.71a1.77,1.77,0,0,1,0-1,3.44,3.44,0,0,1,1.15-2,.65.65,0,0,1,.21-.06,1.42,1.42,0,0,1,0,.22.35.35,0,0,1-.1.11,3.08,3.08,0,0,0-1.16,2.19c0,.17,0,.34-.06.51Z"/><path d="M31.42,11.73l-.22-.27c-.15-.21-.28-.43-.44-.64a2,2,0,0,0-1.16-.76c.19-.31.21-.32.5-.13a4.17,4.17,0,0,1,1.16,1.35c.08.13.15.27.22.4Z"/><path d="M31.29,10.77a6.85,6.85,0,0,0-1.5-2.64c.08,0,.19,0,.25.06a2.48,2.48,0,0,1,.79,1A6.08,6.08,0,0,1,31.29,10.77Z"/><path d="M5.25,6.94a1.94,1.94,0,0,1-.34-.21A4.94,4.94,0,0,1,3.43,4.41a1.12,1.12,0,0,1-.08-.26s0-.08,0-.11.09,0,.11.06a.49.49,0,0,1,.05.16A4.69,4.69,0,0,0,5,6.66l.26.24Z"/><path d="M31.86,19l-.09.15h-.05a1.59,1.59,0,0,0-1.63,0l-.72.36C30.31,18.68,31.28,18.52,31.86,19Z"/><path d="M31.94,20.12c-.39-.16-.7-.51-1.16-.49s-.84.06-1.27.07c.31-.08.62-.17.93-.22a2.23,2.23,0,0,1,1.43.28C32,19.84,32.08,19.93,31.94,20.12Z"/><path d="M28,14.29a.47.47,0,0,1,0-.2,1.77,1.77,0,0,1,.58-.91,3.71,3.71,0,0,1,1.56-.78C29.31,12.88,28.4,13.25,28,14.29Z"/><path d="M7.54,18.56a3.77,3.77,0,0,0-1.29,2.38c-.17,0-.3-.05-.24-.24a4.26,4.26,0,0,1,1.44-2.1Z"/><path d="M29.19,20.71a3.81,3.81,0,0,1,.46,1.84.7.7,0,0,1-.31.59c-.12-.07-.2-.15-.12-.29a2.31,2.31,0,0,0,0-1.91A1.55,1.55,0,0,0,29.19,20.71Z"/><path d="M7.77,18.14A3.09,3.09,0,0,0,6.35,16a.6.6,0,0,1-.21-.26c.14-.14.23,0,.31.09a3,3,0,0,1,1.32,1.95,2.29,2.29,0,0,1,0,.37Z"/><path d="M10.71,17.8A3.38,3.38,0,0,0,8.55,18a.94.94,0,0,1,.1-.1,2.2,2.2,0,0,1,2-.28c.06,0,.1.1.15.15Z"/><path d="M8.39,10.19A10.74,10.74,0,0,0,9.52,13c-.08,0-.16,0-.19-.08a6.87,6.87,0,0,1-.44-.74A7.34,7.34,0,0,1,8.39,10.19Z"/><path d="M5.19,18.13c-.14-.08-.13-.16,0-.24a1.17,1.17,0,0,1,.91-.27,2.78,2.78,0,0,1,1.24.48C6.6,17.92,5.89,17.53,5.19,18.13Z"/><path d="M29.42,19.92a1.78,1.78,0,0,1,1.84.57c-.14.13-.29.2-.43,0a1.61,1.61,0,0,0-1.32-.58Z"/><path d="M7.22,18.3a2.15,2.15,0,0,0-2,.69c-.14-.13-.18-.21,0-.32A2.25,2.25,0,0,1,7.22,18.3Z"/><path d="M31,14.86a3.45,3.45,0,0,0,.76-2.48,4.12,4.12,0,0,1-.22,2C31.48,14.64,31.37,14.87,31,14.86Z"/><path d="M7.86,21.24a.76.76,0,0,1-.37-.57,3.28,3.28,0,0,1,.13-1.46l0,.29a1.92,1.92,0,0,0,.32,1.43C8,21,8,21.14,7.86,21.24Z"/><path d="M29,19.47s0-.11,0-.15a5.59,5.59,0,0,1,1-1.78c.08-.09.15-.11.25,0L30,17.9A4,4,0,0,0,29,19.47Z"/><path d="M31.63,9.53a1.81,1.81,0,0,1,.1-1,2.72,2.72,0,0,1,.77-1.12.58.58,0,0,1,.14,0,.61.61,0,0,1,0,.14.28.28,0,0,1-.09.1,2.48,2.48,0,0,0-.9,1.88A.13.13,0,0,0,31.63,9.53Z"/><path d="M5.78,19.18a1.73,1.73,0,0,1,1.51-.75l-.14.05a1.38,1.38,0,0,0-1,.64C6.09,19.32,6,19.31,5.78,19.18Z"/><path d="M10.94,8.15a2.06,2.06,0,0,1,1.78.16,2.71,2.71,0,0,1,.35.24s0,.08,0,.12-.08,0-.11,0a.44.44,0,0,1-.15-.08,2.06,2.06,0,0,0-1.67-.46Z"/><path d="M29.51,14.5c0-.07,0-.17,0-.23a3.1,3.1,0,0,1,.39-.66,4.1,4.1,0,0,1,.71-.6,3.93,3.93,0,0,0-1,1.49Z"/><path d="M7.59,17.87l-.08-.1a4,4,0,0,0-1-1.12c-.07,0-.16-.21-.14-.23s.19,0,.24.09c.34.39.66.8,1,1.2a.67.67,0,0,1,.06.15Z"/><path d="M26.09,21.43c.23-.73.85-1,1.49-1.19A3.85,3.85,0,0,0,26.09,21.43Z"/><path d="M9,16.85c-.59.23-.74.8-1,1.27a2.86,2.86,0,0,1,.68-1.3C8.78,16.72,8.89,16.64,9,16.85Z"/><path d="M8,17.35c0-.78.3-1.67.68-1.73A4.11,4.11,0,0,0,8,17.35Z"/><path d="M28.32,22a2.41,2.41,0,0,0,.56-1.7C29,21.11,28.73,22,28.32,22Z"/><path d="M3.42,8.6c0-.06,0-.14.08-.17a1.46,1.46,0,0,1,1.27-.17,2,2,0,0,0-1.28.39Z"/><path d="M5.15,10.51A2.42,2.42,0,0,0,4.48,12C4.25,11.59,4.62,10.82,5.15,10.51Z"/><path d="M10.46,19.25A3.6,3.6,0,0,0,9,18.43,1.81,1.81,0,0,1,10.46,19.25Z"/><path d="M28.73,18a1.76,1.76,0,0,1,.83-1.59,6.87,6.87,0,0,0-.56.74A6,6,0,0,0,28.73,18Z"/><path d="M8.57,20.15A.28.28,0,0,1,8.26,20c-.14-.31-.26-.63-.38-.95a1.54,1.54,0,0,1,0-.3,6.26,6.26,0,0,0,.28.78A6.48,6.48,0,0,0,8.57,20.15Z"/><path d="M34,15.35a2.51,2.51,0,0,0-.65-1.6A1.69,1.69,0,0,1,34,15.35Z"/><path d="M28,20.73a2.49,2.49,0,0,0-.74,1.05C27.05,21.55,27.48,20.94,28,20.73Z"/><path d="M7.64,16.64A4.13,4.13,0,0,0,7.28,16a4.15,4.15,0,0,0-.57-.53C7.08,15.42,7.61,16.13,7.64,16.64Z"/><path d="M28.63,19.7c-.18-.13-.67-.84-.63-1l.67,1Z"/><path d="M5.76,2l.15,1.4A3.31,3.31,0,0,1,5.68,2Z"/><path d="M29,10.68l-1.09.11A1,1,0,0,1,29,10.68Z"/><path d="M7.55,2.55c-.37.27-.38.65-.35,1.11C7,3.09,7.15,2.65,7.55,2.55Z"/><path d="M8.76,18.91c.36.2.7.37.83.82Z"/><path d="M29.66,9c.07,0,.15,0,.2,0a1.83,1.83,0,0,1,.62.78c-.24-.27-.42-.62-.82-.71Z"/><path d="M10.83,6.37c.45-.27.94-.26,1,0A1.41,1.41,0,0,0,10.83,6.37Z"/><path d="M34.08,8.92A3.1,3.1,0,0,1,35,8.13l.06.08a5.74,5.74,0,0,0-.53.32C34.39,8.65,34.24,8.79,34.08,8.92Z"/><path d="M9.41,3.94a1.19,1.19,0,0,1,.7-.64s.09,0,.14.08A1.3,1.3,0,0,0,9.41,3.94Z"/><path d="M30.14,21.29a1.18,1.18,0,0,1,.42,1.11A1.88,1.88,0,0,0,30.14,21.29Z"/><path d="M12.9,9.35a.63.63,0,0,1,.52.51Z"/><path d="M6.63,14.15a1,1,0,0,1-.23-.91Z"/><path d="M11.3,4.49l.42-.18s.09.05.13.08a.28.28,0,0,1-.11.08l-.43,0Z"/><path d="M3.29,6.65c.17-.18.38-.19.67,0Z"/><path d="M34.47,13a1.27,1.27,0,0,1,.53.74Z"/><path d="M35.59,11.25c.29,0,.61.13.62.32Z"/><path d="M28.46,18.94l-.23-.7.09,0,.19.72Z"/><path d="M35.48,9.49l-.67.08C35.07,9.36,35.32,9.33,35.48,9.49Z"/><path d="M10.15,17.15l-.64,0A.54.54,0,0,1,10.15,17.15Z"/><path d="M28,19.67l-.48-.1C27.58,19.42,27.65,19.43,28,19.67Z"/><path d="M4.46,10.09l-.32.15-.29.2A.66.66,0,0,1,4.46,10.09Z"/><path d="M33.42,16l.07-.57A.43.43,0,0,1,33.42,16Z"/><path d="M6.79,19.88l-.13.88A1.29,1.29,0,0,1,6.79,19.88Z"/><path d="M8.44,16.64c.07-.29.22-.49.39-.5Z"/><path d="M22.17,15.41a2,2,0,0,1,.12-.34.39.39,0,0,1,.72,0,.67.67,0,0,1,0,.66.43.43,0,0,1-.4.3.44.44,0,0,1-.4-.29A2.66,2.66,0,0,1,22.17,15.41Z"/><path d="M16.76,15.67a.55.55,0,0,1,.44-.6c.26,0,.47.26.47.6s-.21.61-.47.6S16.76,16,16.76,15.67Z"/><path d="M19.83,19.37,19.32,19a.18.18,0,0,1-.06-.28.33.33,0,0,1,.29-.07c.09,0,.17.11.27.17l.23-.14a.32.32,0,0,0,0-.49c-.22-.2-.43-.41-.66-.6a.24.24,0,0,1-.08-.31l0-.08c.15-.4.15-.4.57-.4s.66,0,1,0a.28.28,0,0,1,.27.16c.31.54.27.42-.09.81a5,5,0,0,1-.39.41.3.3,0,0,0-.08.38.7.7,0,0,0,.36.23s.12-.06.18-.11.23-.11.33,0,0,.22-.07.31c-.39.31-.4.33-.8.07a.33.33,0,0,0-.46,0C20.08,19.22,20,19.28,19.83,19.37Z"/></g><g class="cls-3"><path d="M21.35,21.54l-.23,0c-.17.22-.21.2-.37,0s-.51-.77-.8-1.13-.39-.25-.58,0-.35.61-.53.91c-.07.13-.13.27-.21.39a.2.2,0,0,1-.36,0c-.05-.09-.05-.23-.21-.23a.36.36,0,0,1,0-.25,6.61,6.61,0,0,1,.39-.68,1.82,1.82,0,0,1,.24-.23h-.3c-.28,0-.57,0-.86,0s-.26-.05-.27-.27a2.81,2.81,0,0,0-.09-.49,6,6,0,0,1-.43,1.78c-.15.41-.36.71-.85.68l0,.21h-.26l0-.25-.37-.1a3.84,3.84,0,0,1-1.76-1.15,10.59,10.59,0,0,1-1.87-2.9c-.26-.57-.49-1.16-.71-1.75a1.81,1.81,0,0,1,1.24-2.29,1.71,1.71,0,0,1,1.27.26c.26.18.5.39.77.6a1.49,1.49,0,0,0-.07-.62,3.16,3.16,0,0,1-.33-2.11,2.32,2.32,0,0,1,2.33-1.72,2.91,2.91,0,0,1,1.56.52.38.38,0,0,0,.37.05,5,5,0,0,1,3.54.1.36.36,0,0,0,.26-.05,2.65,2.65,0,0,1,2.34-.24,2.28,2.28,0,0,1,1.39,1.81A1.91,1.91,0,0,1,25,14.18a1,1,0,0,0-.25.89,2.28,2.28,0,0,1,.21-.22A11.76,11.76,0,0,1,26,14a1.3,1.3,0,0,1,2,1.07,3.45,3.45,0,0,1-.36,1.76,11.25,11.25,0,0,1-3.8,4.54.29.29,0,0,0-.13.28c0,.18,0,.36.06.56h-.27l-.06-.53a4.92,4.92,0,0,1-.5.21.67.67,0,0,1-.92-.46c-.13-.37-.27-.74-.42-1.1a.25.25,0,0,0-.16-.16l-1-.13C20.79,20.55,21.28,20.91,21.35,21.54Zm.82-2.93a3.1,3.1,0,0,0,1.38-1,5,5,0,0,0,1-3,.42.42,0,0,0-.1-.2,1.15,1.15,0,0,1-.28-.71.84.84,0,0,0-.11-.41,3.46,3.46,0,0,0-1.25-1.15.83.83,0,0,0-.28,0,1,1,0,0,1-.35,0,1.51,1.51,0,0,1-.65-.8c0-.12-.09-.19-.2-.21A10.74,10.74,0,0,0,20,10.76,4.35,4.35,0,0,0,18,11a1.69,1.69,0,0,1,0,.25,1.47,1.47,0,0,1-1.07.73.31.31,0,0,0-.22.09c-.3.3-.59.63-.89.93a1.36,1.36,0,0,1-.76.43c-.05,0-.09.08-.12.12a3.63,3.63,0,0,1-.39.55.46.46,0,0,0-.13.29,5.13,5.13,0,0,0,.32,1.9,1.73,1.73,0,0,0,.22.31,1,1,0,0,1,.07.15,1.38,1.38,0,0,0,.08.29,4.24,4.24,0,0,0,2,1.69l.52.2a2.11,2.11,0,0,1-.53-1.76,2.3,2.3,0,0,1,1.65-2.07,3.51,3.51,0,0,1,.72-.13,3.17,3.17,0,0,1,2.08.49,2.24,2.24,0,0,1,1,2.24A5.67,5.67,0,0,1,22.17,18.61Zm-10.79-4a1.33,1.33,0,0,0-.27,1.33,13.19,13.19,0,0,0,2.3,4.35,3.79,3.79,0,0,0,2.23,1.42c.44.08.59,0,.76-.37a1.47,1.47,0,0,0,.1-.22,4,4,0,0,0,.32-1.87.59.59,0,0,0-.32-.48,4.23,4.23,0,0,1-1.66-1.59L14.75,17c-.26.09-.51.16-.75.27a1.19,1.19,0,0,1-1-.08l-.16-.07a8.91,8.91,0,0,0,1.51,2.55l-.09.26a2.51,2.51,0,0,1-.4-.4c-.37-.6-.73-1.2-1.07-1.82s-.56-1-.83-1.57A4,4,0,0,1,11.38,14.58Zm8.4.66-.67.07a2.15,2.15,0,0,0-1.72,2.6,1.65,1.65,0,0,0,1.34,1.25,4.55,4.55,0,0,0,1.56.05,2.41,2.41,0,0,0,1.29-.47,1.8,1.8,0,0,0,.25-2.62A2.58,2.58,0,0,0,19.78,15.24Zm7.79-.67s0,.11,0,.16A2.7,2.7,0,0,1,26.84,17c-.06.05-.08.14-.13.21-.36.62-.71,1.25-1.11,1.84a5,5,0,0,1-1.37,1.34.44.44,0,0,1-.09-.11,1.17,1.17,0,0,1-.05-.11,7.72,7.72,0,0,0,2.28-2.87,4.66,4.66,0,0,1-2.26-.07,3.74,3.74,0,0,1-2.36,1.78c-.05,0-.08.07-.13.11l0,.06.58-.06.1,1.14-.41-.06c.07.19.13.34.18.49l.18.47c.16.49.38.58.84.33l.13-.07a10.92,10.92,0,0,0,3.66-3.77,5.38,5.38,0,0,0,.85-2.14A1.3,1.3,0,0,0,27.57,14.57Zm-3-.34a2,2,0,0,0-.1-3.15A2.14,2.14,0,0,0,22.07,11c-.37.18-.37.22-.12.55s.25.28.6.22a6.62,6.62,0,0,1,1.09-.13,1,1,0,0,1,.7.29,1.74,1.74,0,0,1,.4.91.81.81,0,0,1-.26.84.24.24,0,0,0-.05.2A3.18,3.18,0,0,0,24.6,14.23ZM14.36,14l.3-.47a.32.32,0,0,0,0-.4,1,1,0,0,1-.21-.78,1.36,1.36,0,0,1,.93-1.08,1.33,1.33,0,0,1,1.42.26c.27.21.29.23.59,0a1.11,1.11,0,0,0,.24-.2c.18-.17.17-.23,0-.37a3.09,3.09,0,0,0-1.3-.53A2.07,2.07,0,0,0,14,12,3.2,3.2,0,0,0,14.36,14Z"/><path d="M15.94,3.23h-.48a3.77,3.77,0,0,0-.36-1,3.34,3.34,0,0,0-.39,1h-.45a4.38,4.38,0,0,0-.56-1.55h.53c-.07.17,0,.34.29,1,.1-.34.33-.59.3-.95h.58c-.06.35.2.61.29.92A2.87,2.87,0,0,0,16,1.68h.47c-.11.25-.24.5-.33.77S15.85,2.92,15.94,3.23Z"/><path d="M7.44,7.92A14.74,14.74,0,0,1,6.11,1.48c.4,0,.44,0,.45.35,0,.83.05,1.65.12,2.47a16.56,16.56,0,0,0,.74,3.35l.08.26Z"/><path d="M31.49,11.53A6.18,6.18,0,0,1,33,8.35c.25.08.26.11.13.3a2.73,2.73,0,0,1-.23.25A6,6,0,0,0,31.61,11a.56.56,0,0,0,0,.1,14.41,14.41,0,0,1,3.57-2.86c.22.24.22.35,0,.52a4.63,4.63,0,0,1-.54.29,9.2,9.2,0,0,0-3,2.37Z"/><path d="M22,5.37a.41.41,0,0,1-.13.8c-.44,0-.88,0-1.29,0V4.65c.4,0,.82,0,1.25,0a.37.37,0,0,1,.38.28C22.22,5.12,22.14,5.25,22,5.37Zm-1,.54c.24,0,.46,0,.68,0s.14-.11.21-.17-.12-.19-.18-.19a5.61,5.61,0,0,0-.71,0Zm0-.68c.24,0,.46,0,.68,0,.06,0,.11-.09.16-.14s-.1-.14-.15-.14c-.23,0-.46,0-.69,0Z"/><path d="M8.39,7.92a7.79,7.79,0,0,1,3.31-1.2A3,3,0,0,1,13,6.9c.4.15.42.2.36.67A1.91,1.91,0,0,1,13,7.5a3.57,3.57,0,0,0-2.81-.17C9.62,7.5,9,7.71,8.39,7.92Z"/><path d="M7.31,8.05a1.49,1.49,0,0,1-.73-.41A8.28,8.28,0,0,1,4.41,4.58c-.21-.47-.36-1-.54-1.46,0-.12,0-.2.1-.25s.18.07.2.15c.09.28.16.57.24.85a7.53,7.53,0,0,0,1.73,3C6.52,7.24,6.92,7.64,7.31,8.05Z"/><path d="M8.71,2.9c.26.3.26.43-.06.6a1.85,1.85,0,0,0-1,1.56c-.07.71,0,1.42-.07,2.13a2.43,2.43,0,0,1,0,.27,6.45,6.45,0,0,1-.3-2.27A3.33,3.33,0,0,1,7.61,4,2.17,2.17,0,0,1,8.71,2.9Z"/><path d="M23.87,2.46a.84.84,0,0,1,.94-.83.85.85,0,0,1,1,.82,1,1,0,0,1-1.89,0Zm.94.52a.51.51,0,0,0,.56-.52.56.56,0,0,0-1.11,0A.51.51,0,0,0,24.81,3Z"/><path d="M23,5v.3h.74v.33H23v.31h1.14v.32H22.53V4.63h1.52V5Z"/><path d="M17.91,6.21V4.63h1.52V5H18.34v.3h.73v.33h-.73v.31h1.14v.32Z"/><path d="M10.17,3.51a1.77,1.77,0,0,0,.17.2c.18.13.11.25,0,.36a1.17,1.17,0,0,1-.31.17A3,3,0,0,0,8.5,5.72a8.64,8.64,0,0,0-.67,2c0,.07,0,.14,0,.23A5.15,5.15,0,0,1,10.17,3.51Z"/><path d="M20.72,2.57h-.84v.66h-.44V1.68h.43l0,.57h.92l0-.57h.43V3.23h-.44Z"/><path d="M17.08,5.22l0-.58h.44V6.19H17V5.54h-.85v.65h-.44V4.64h.44v.58Z"/><path d="M5.23,13.31c-.36-.1-.36-.1-.37-.44a5.16,5.16,0,0,1,.23-1.79,3.81,3.81,0,0,1,1.54-2A5.92,5.92,0,0,0,5.23,13.31Z"/><path d="M18.92,2.16A.89.89,0,0,0,18,2c-.06,0-.09.11-.14.16s.11.1.17.11.34,0,.52.06a1.28,1.28,0,0,1,.27.05.43.43,0,0,1,.3.39.4.4,0,0,1-.25.41,1.24,1.24,0,0,1-1,.06l-.38-.12.13-.31a1.06,1.06,0,0,0,.94.16c.07,0,.11-.1.17-.16s-.12-.11-.18-.12-.36,0-.54-.06-.48-.17-.51-.41A.47.47,0,0,1,18,1.68a2.09,2.09,0,0,1,.66,0,2,2,0,0,1,.44.16Z"/><path d="M24.34,6.05l.13-.31a1.1,1.1,0,0,0,.92.18c.07,0,.13-.11.19-.17s-.13-.11-.2-.12-.38,0-.56-.07a.45.45,0,0,1-.47-.41.5.5,0,0,1,.37-.5,1.51,1.51,0,0,1,1.17.18l-.16.3a.87.87,0,0,0-.9-.2c-.06,0-.09.11-.14.16s.11.1.16.11l.53.06a1.1,1.1,0,0,1,.26.06.43.43,0,0,1,.06.8,1.33,1.33,0,0,1-1,.06C24.6,6.15,24.48,6.1,24.34,6.05Z"/><path d="M8.11,8.28a7.53,7.53,0,0,1,1.76.42,7,7,0,0,1,2.34,1.24,2.13,2.13,0,0,1,.65.94c-.19.18-.34.19-.58-.06a.78.78,0,0,1-.16-.2A4.47,4.47,0,0,0,9.6,8.73C9.11,8.57,8.61,8.43,8.11,8.28Z"/><path d="M26.05,1.68h.44c0,.36,0,.73,0,1.09,0,.17.27.25.55.21s.32-.11.32-.32,0-.52,0-.78a1.42,1.42,0,0,0,0-.2h.43c0,.11,0,.21,0,.32s0,.28,0,.42c0,.71-.27.94-1,.85-.52-.06-.64-.2-.65-.73,0-.19,0-.38,0-.57A2.85,2.85,0,0,0,26.05,1.68Z"/><path d="M8.06,14.11c-.11.11-.2.06-.31,0A3.08,3.08,0,0,1,7,12.32a6.4,6.4,0,0,1,.22-2.46A6.25,6.25,0,0,0,8.06,14.11Z"/><path d="M10.48,5.28s0,0,0,.06c0,.54,0,.56-.51.65a2.3,2.3,0,0,0-1.6,1.1c-.11.17-.21.35-.32.53C8.1,6.67,9.61,5.21,10.48,5.28Z"/><path d="M34.77,14.94c-.37.22-.38.23-.48-.16A4,4,0,0,0,33,12.84c-.33-.29-.7-.55-1-.83l-.17-.12C32.66,12,34.49,13.87,34.77,14.94Z"/><path d="M31.41,11.32a3,3,0,0,1,.07-1.49A4.82,4.82,0,0,1,33,7.37c.07-.07.17-.17.26,0a.39.39,0,0,1,0,.27.8.8,0,0,1-.2.21,4,4,0,0,0-1.47,2.62C31.5,10.72,31.46,11,31.41,11.32Z"/><path d="M23.23,3.23h-.47c0-.32.13-.64-.13-.92s-.33-.42-.5-.63h.63c-.11.27.17.35.25.59.1-.24.34-.33.26-.59h.58a9.12,9.12,0,0,0-.6.79A.91.91,0,0,0,23.23,3.23Z"/><path d="M5.64,7.63a4.56,4.56,0,0,0-3.35,0c0-.38,0-.42.3-.55A2.39,2.39,0,0,1,3.86,7,6,6,0,0,1,5.64,7.63Z"/><path d="M13.88,5V4.61h1.61V5H14.9V6.19h-.44V5Z"/><path d="M27.15,5V6.19h-.44V5h-.58V4.61h1.61V5Z"/><path d="M7.21,8.4H6.68a3.58,3.58,0,0,0-1.59.26,9.26,9.26,0,0,0-.86.48L4.1,8.82a3.37,3.37,0,0,1,2.8-.61L6.49,8l0,0,.73.32Z"/><path d="M7.22,7.83a2.93,2.93,0,0,1-.3-.32A13.38,13.38,0,0,1,5.06,4.14.58.58,0,0,0,5,4c-.06-.13,0-.18.12-.2a.22.22,0,0,1,.19.09c.09.23.16.47.24.71a10.61,10.61,0,0,0,1.57,3,1.74,1.74,0,0,1,.11.18Z"/><path d="M30.35,11.34a5,5,0,0,0-3.4.25c-.09-.18-.08-.28.11-.37a3.38,3.38,0,0,1,3.21.06Z"/><path d="M32,11.23a4.24,4.24,0,0,1,2.17-1.16,1.73,1.73,0,0,1,1.15.28c.11.08.12.16,0,.24a.21.21,0,0,1-.2,0,1.86,1.86,0,0,0-1.8,0C32.91,10.77,32.48,11,32,11.23Z"/><path d="M32.11,11.48a3.56,3.56,0,0,1,3.31-.05c.27.15.27.15.16.51a2.12,2.12,0,0,1-.4-.19,2.51,2.51,0,0,0-2.1-.44C32.76,11.35,32.43,11.42,32.11,11.48Z"/><path d="M32.05,16c-.15-.1-.27-.21-.16-.4A3,3,0,0,0,32,13.17c-.06-.21-.12-.4-.17-.61a6.23,6.23,0,0,1,.6,1.86,4.18,4.18,0,0,1,0,1A.71.71,0,0,1,32.05,16Z"/><path d="M28.53,19.37l.14-.24h0a10.65,10.65,0,0,1,2.45-2l.2-.11c.15.19.15.25,0,.38a3,3,0,0,1-.36.19,6.83,6.83,0,0,0-2.26,1.73s-.07.19-.14,0Z"/><path d="M32,11.66c1-.19,2.3.06,2.63.76-.34.25-.42.25-.68-.06a2.06,2.06,0,0,0-1.66-.68Z"/><path d="M16.77,1.67h.44V3.23h-.44Z"/><path d="M8,8.4l.22.1a6.81,6.81,0,0,1,2.24,2.35.33.33,0,0,1-.07.46A6.6,6.6,0,0,0,8,8.4Z"/><path d="M7.43,17.8v.11l-.26-.21A6,6,0,0,0,5,16.62l-.3-.11c-.15-.06-.21-.16-.07-.32a9.18,9.18,0,0,1,2.66,1.49,1.31,1.31,0,0,1,.11.12Z"/><path d="M31,22c-.27.2-.3.19-.37-.07a2.23,2.23,0,0,0-.61-1.09c-.35-.34-.72-.64-1.08-.95-.05,0-.1-.07-.12-.13A4.53,4.53,0,0,1,31,22Z"/><path d="M28.53,19.37a1.77,1.77,0,0,1,0-1,3.44,3.44,0,0,1,1.15-2,.65.65,0,0,1,.21-.06,1.42,1.42,0,0,1,0,.22.35.35,0,0,1-.1.11,3.08,3.08,0,0,0-1.16,2.19c0,.17,0,.34-.06.51Z"/><path d="M31.08,11.39l-.22-.27c-.15-.21-.28-.43-.44-.64a2,2,0,0,0-1.16-.76c.18-.31.21-.32.5-.13a4.17,4.17,0,0,1,1.16,1.35c.08.13.15.27.22.4Z"/><path d="M31,10.43a6.85,6.85,0,0,0-1.5-2.64.71.71,0,0,1,.25.06,2.48,2.48,0,0,1,.79,1A6.08,6.08,0,0,1,31,10.43Z"/><path d="M4.91,6.6a1.94,1.94,0,0,1-.34-.21A4.94,4.94,0,0,1,3.09,4.07,1.12,1.12,0,0,1,3,3.81s0-.08.05-.11.09,0,.11.06a.49.49,0,0,1,.05.16,4.69,4.69,0,0,0,1.46,2.4l.26.24Z"/><path d="M31.52,18.69l-.09.15h-.05a1.59,1.59,0,0,0-1.63,0l-.72.36C30,18.34,30.94,18.18,31.52,18.69Z"/><path d="M31.6,19.78c-.39-.16-.7-.51-1.16-.49s-.84.06-1.27.07c.31-.08.62-.17.93-.22a2.25,2.25,0,0,1,1.43.28C31.68,19.5,31.74,19.59,31.6,19.78Z"/><path d="M27.66,14a.47.47,0,0,1,0-.2,1.77,1.77,0,0,1,.58-.91,3.85,3.85,0,0,1,1.56-.79C29,12.54,28.06,12.91,27.66,14Z"/><path d="M7.2,18.22A3.77,3.77,0,0,0,5.91,20.6c-.17,0-.3-.05-.24-.24a4.26,4.26,0,0,1,1.44-2.1A.25.25,0,0,1,7.2,18.22Z"/><path d="M28.85,20.37a3.81,3.81,0,0,1,.46,1.84.7.7,0,0,1-.31.59c-.12-.07-.2-.15-.12-.29a2.31,2.31,0,0,0,0-1.91A1.55,1.55,0,0,0,28.85,20.37Z"/><path d="M7.43,17.8A3.09,3.09,0,0,0,6,15.65a.6.6,0,0,1-.21-.26c.14-.14.23,0,.31.09a3,3,0,0,1,1.32,1.95,2.29,2.29,0,0,1,0,.37Z"/><path d="M10.37,17.46a3.41,3.41,0,0,0-2.17.18l.11-.1a2.19,2.19,0,0,1,2-.28c.06,0,.1.1.15.15Z"/><path d="M8.05,9.85a10.74,10.74,0,0,0,1.13,2.82c-.08,0-.16,0-.19-.08a6.87,6.87,0,0,1-.44-.74A7.34,7.34,0,0,1,8.05,9.85Z"/><path d="M4.85,17.79c-.14-.08-.13-.16,0-.24a1.17,1.17,0,0,1,.91-.27A2.78,2.78,0,0,1,7,17.76C6.26,17.58,5.55,17.19,4.85,17.79Z"/><path d="M29.08,19.58a1.78,1.78,0,0,1,1.84.57c-.14.13-.29.2-.43,0a1.61,1.61,0,0,0-1.32-.58Z"/><path d="M6.88,18a2.15,2.15,0,0,0-2,.69c-.14-.13-.18-.21,0-.32A2.25,2.25,0,0,1,6.88,18Z"/><path d="M30.69,14.52A3.45,3.45,0,0,0,31.45,12a4.12,4.12,0,0,1-.22,2C31.14,14.3,31,14.53,30.69,14.52Z"/><path d="M7.52,20.9a.76.76,0,0,1-.37-.57,3.28,3.28,0,0,1,.13-1.46l0,.29a1.92,1.92,0,0,0,.32,1.43C7.66,20.7,7.67,20.8,7.52,20.9Z"/><path d="M28.67,19.13c0-.05,0-.11,0-.15a5.59,5.59,0,0,1,1-1.78c.08-.09.15-.11.25,0-.09.11-.18.22-.28.32a4.13,4.13,0,0,0-.95,1.58Z"/><path d="M31.29,9.19a1.72,1.72,0,0,1,.1-1A2.72,2.72,0,0,1,32.16,7a.58.58,0,0,1,.14,0,.61.61,0,0,1,0,.14.28.28,0,0,1-.09.1,2.48,2.48,0,0,0-.9,1.88A.13.13,0,0,0,31.29,9.19Z"/><path d="M5.44,18.84A1.73,1.73,0,0,1,7,18.09l-.14.05a1.38,1.38,0,0,0-.95.64C5.75,19,5.7,19,5.44,18.84Z"/><path d="M10.6,7.81A2.06,2.06,0,0,1,12.38,8a2.71,2.71,0,0,1,.35.24s0,.08,0,.12-.08,0-.11,0l-.15-.08a2.06,2.06,0,0,0-1.67-.46Z"/><path d="M29.17,14.16c0-.07,0-.17,0-.23a3.1,3.1,0,0,1,.39-.66,4.1,4.1,0,0,1,.71-.6,3.93,3.93,0,0,0-1,1.49Z"/><path d="M7.25,17.53l-.08-.1a4,4,0,0,0-1-1.12c-.07,0-.16-.21-.14-.23s.19,0,.24.09c.34.39.66.8,1,1.2a.67.67,0,0,1,.06.15Z"/><path d="M25.75,21.09c.23-.73.85-1,1.49-1.19A3.85,3.85,0,0,0,25.75,21.09Z"/><path d="M8.67,16.51c-.59.23-.74.8-1,1.27a2.86,2.86,0,0,1,.68-1.3C8.44,16.38,8.55,16.3,8.67,16.51Z"/><path d="M7.67,17c0-.78.3-1.67.68-1.73A4.11,4.11,0,0,0,7.67,17Z"/><path d="M28,21.7a2.41,2.41,0,0,0,.56-1.7C28.69,20.77,28.39,21.67,28,21.7Z"/><path d="M3.07,8.26c0-.06,0-.14.09-.17a1.46,1.46,0,0,1,1.27-.17,2,2,0,0,0-1.28.39Z"/><path d="M4.81,10.17a2.39,2.39,0,0,0-.67,1.44C3.91,11.25,4.28,10.48,4.81,10.17Z"/><path d="M10.12,18.91a3.6,3.6,0,0,0-1.51-.82A1.81,1.81,0,0,1,10.12,18.91Z"/><path d="M28.39,17.69a1.76,1.76,0,0,1,.83-1.59,6.87,6.87,0,0,0-.56.74A6,6,0,0,0,28.39,17.69Z"/><path d="M8.23,19.81a.28.28,0,0,1-.31-.18c-.14-.31-.26-.63-.38-.95a1.68,1.68,0,0,1,0-.3,6.26,6.26,0,0,0,.28.78A6.48,6.48,0,0,0,8.23,19.81Z"/><path d="M33.69,15a2.51,2.51,0,0,0-.65-1.6A1.69,1.69,0,0,1,33.69,15Z"/><path d="M27.63,20.39a2.49,2.49,0,0,0-.74,1.05C26.71,21.21,27.14,20.6,27.63,20.39Z"/><path d="M7.3,16.3a4.13,4.13,0,0,0-.36-.69,4.15,4.15,0,0,0-.57-.53C6.74,15.08,7.27,15.79,7.3,16.3Z"/><path d="M28.29,19.36a2.31,2.31,0,0,1-.63-1l.67,1Z"/><path d="M5.42,1.67l.15,1.4a3.31,3.31,0,0,1-.23-1.39Z"/><path d="M28.69,10.34l-1.09.11A1,1,0,0,1,28.69,10.34Z"/><path d="M7.21,2.21c-.37.27-.38.65-.35,1.11C6.68,2.75,6.81,2.31,7.21,2.21Z"/><path d="M8.42,18.57c.36.2.7.37.83.82Z"/><path d="M29.32,8.61c.07,0,.15,0,.2,0a1.77,1.77,0,0,1,.62.78c-.24-.27-.42-.62-.82-.71Z"/><path d="M10.49,6c.45-.27.94-.27,1,0A1.41,1.41,0,0,0,10.49,6Z"/><path d="M33.74,8.58a3.1,3.1,0,0,1,.94-.79l.06.08a5.74,5.74,0,0,0-.53.32C34.05,8.31,33.89,8.45,33.74,8.58Z"/><path d="M9.07,3.6A1.19,1.19,0,0,1,9.77,3s.09,0,.14.08A1.3,1.3,0,0,0,9.07,3.6Z"/><path d="M29.8,21a1.18,1.18,0,0,1,.42,1.11A1.88,1.88,0,0,0,29.8,21Z"/><path d="M12.56,9a.63.63,0,0,1,.52.51Z"/><path d="M6.29,13.81a1,1,0,0,1-.23-.91Z"/><path d="M11,4.15c.14-.06.28-.13.42-.18s.09,0,.13.08a.28.28,0,0,1-.11.08l-.43,0Z"/><path d="M3,6.31c.17-.18.38-.19.67,0Z"/><path d="M34.13,12.63a1.27,1.27,0,0,1,.53.74Z"/><path d="M35.25,10.91c.29,0,.61.13.62.32Z"/><path d="M28.12,18.6l-.23-.7.09,0,.19.72Z"/><path d="M35.14,9.15l-.67.08C34.73,9,35,9,35.14,9.15Z"/><path d="M9.81,16.81l-.64,0A.54.54,0,0,1,9.81,16.81Z"/><path d="M27.64,19.33l-.48-.1C27.24,19.08,27.31,19.09,27.64,19.33Z"/><path d="M4.12,9.74,3.8,9.9l-.29.2A.69.69,0,0,1,4.12,9.74Z"/><path d="M33.08,15.65l.07-.57A.43.43,0,0,1,33.08,15.65Z"/><path d="M6.45,19.54l-.13.88A1.29,1.29,0,0,1,6.45,19.54Z"/><path d="M8.1,16.3c.07-.29.22-.49.39-.5Z"/><path d="M21.83,15.07a2,2,0,0,1,.12-.34.4.4,0,0,1,.72,0,.7.7,0,0,1,0,.67.43.43,0,0,1-.4.3.44.44,0,0,1-.4-.29A2.66,2.66,0,0,1,21.83,15.07Z"/><path d="M16.42,15.33a.55.55,0,0,1,.44-.6c.26,0,.47.26.47.6s-.21.61-.47.6S16.42,15.66,16.42,15.33Z"/><path d="M19.49,19,19,18.7a.18.18,0,0,1-.06-.28.33.33,0,0,1,.29-.07c.09,0,.17.11.27.17l.23-.14a.32.32,0,0,0,0-.49c-.22-.2-.43-.41-.66-.6A.24.24,0,0,1,19,17l0-.08c.15-.4.15-.4.57-.4s.66,0,1,0a.28.28,0,0,1,.27.16c.31.54.27.42-.09.81a5,5,0,0,1-.39.41.3.3,0,0,0-.08.38.7.7,0,0,0,.36.23s.12-.06.18-.11.23-.11.33,0,0,.22-.07.31c-.39.31-.4.33-.8.07a.33.33,0,0,0-.46,0C19.74,18.88,19.62,18.94,19.49,19Z"/></g><path class="cls-4" d="M21.55,21.73l-.23,0c-.17.23-.22.21-.37,0-.25-.39-.52-.77-.8-1.14s-.39-.24-.58,0-.35.6-.53.91c-.07.13-.13.26-.21.39a.2.2,0,0,1-.36,0c-.06-.08,0-.22-.21-.22a.42.42,0,0,1,0-.25c.12-.23.26-.46.4-.68a1.34,1.34,0,0,1,.24-.23h-.3l-.86,0c-.23,0-.27,0-.27-.27a2.81,2.81,0,0,0-.09-.49,6.35,6.35,0,0,1-.43,1.78c-.15.4-.36.71-.85.67l0,.22h-.26l0-.26c-.13,0-.25-.05-.37-.09a3.87,3.87,0,0,1-1.76-1.15A10.27,10.27,0,0,1,11.77,18c-.27-.56-.49-1.15-.71-1.74A1.81,1.81,0,0,1,12.3,14a1.67,1.67,0,0,1,1.27.26c.26.17.5.39.77.6a1.67,1.67,0,0,0-.07-.62,3.17,3.17,0,0,1-.34-2.11,2.34,2.34,0,0,1,2.34-1.72,2.94,2.94,0,0,1,1.56.52.4.4,0,0,0,.37,0,4.94,4.94,0,0,1,3.53.1A.45.45,0,0,0,22,11a2.67,2.67,0,0,1,2.33-.25,2.3,2.3,0,0,1,1.4,1.81,1.92,1.92,0,0,1-.49,1.83.92.92,0,0,0-.25.88,2,2,0,0,1,.2-.21c.34-.29.66-.61,1-.86a1.3,1.3,0,0,1,2,1.07A3.55,3.55,0,0,1,27.88,17a11.31,11.31,0,0,1-3.8,4.54.27.27,0,0,0-.13.28c0,.18,0,.36.06.56h-.27l-.06-.54a5.12,5.12,0,0,1-.5.22.67.67,0,0,1-.92-.46c-.13-.37-.27-.74-.42-1.1a.25.25,0,0,0-.16-.16c-.31-.06-.63-.09-1-.13C21,20.75,21.48,21.11,21.55,21.73Zm.82-2.92a3.21,3.21,0,0,0,1.38-1,5,5,0,0,0,.95-3c0-.07-.05-.14-.09-.2a1.17,1.17,0,0,1-.28-.71.93.93,0,0,0-.11-.41A3.54,3.54,0,0,0,23,12.32a.83.83,0,0,0-.28,0,1,1,0,0,1-.35,0,1.53,1.53,0,0,1-.65-.81c-.05-.11-.09-.18-.2-.2A10.74,10.74,0,0,0,20.24,11a4.35,4.35,0,0,0-2,.26,1.66,1.66,0,0,1,0,.24,1.45,1.45,0,0,1-1.07.74.29.29,0,0,0-.22.09c-.31.3-.59.63-.9.93a1.35,1.35,0,0,1-.76.43s-.08.07-.11.12a4.51,4.51,0,0,1-.39.55.37.37,0,0,0-.13.29,5.13,5.13,0,0,0,.32,1.9,1.73,1.73,0,0,0,.22.31,1,1,0,0,1,.07.15,1.29,1.29,0,0,0,.08.28,4.2,4.2,0,0,0,2,1.7l.51.19a2.14,2.14,0,0,1-.52-1.76,2.29,2.29,0,0,1,1.64-2.06,3.73,3.73,0,0,1,.73-.13,3.18,3.18,0,0,1,2.08.49,2.26,2.26,0,0,1,1,2.24A5.67,5.67,0,0,1,22.37,18.81Zm-10.79-4a1.38,1.38,0,0,0-.28,1.34,13.26,13.26,0,0,0,2.31,4.34,3.76,3.76,0,0,0,2.23,1.43c.44.08.59,0,.76-.37a2,2,0,0,0,.09-.22A3.86,3.86,0,0,0,17,19.42a.57.57,0,0,0-.32-.48A4.27,4.27,0,0,1,15,17.35c0-.05-.07-.09-.09-.13-.26.09-.52.16-.75.26a1.15,1.15,0,0,1-1-.07L13,17.34a9.11,9.11,0,0,0,1.5,2.55l-.08.26a2.51,2.51,0,0,1-.4-.4c-.37-.6-.73-1.21-1.07-1.82s-.56-1-.83-1.57A4,4,0,0,1,11.58,14.77Zm8.4.67c-.23,0-.45,0-.67.07a2.16,2.16,0,0,0-1.73,2.6,1.67,1.67,0,0,0,1.35,1.25,4.55,4.55,0,0,0,1.56.05,2.41,2.41,0,0,0,1.29-.47A1.81,1.81,0,0,0,22,16.31,2.57,2.57,0,0,0,20,15.44Zm7.79-.68c0,.06,0,.11,0,.17A2.67,2.67,0,0,1,27,17.24c-.06.05-.08.14-.13.21-.37.62-.71,1.25-1.11,1.84a4.9,4.9,0,0,1-1.38,1.34l-.08-.11-.06-.11a7.74,7.74,0,0,0,2.29-2.87,4.65,4.65,0,0,1-2.26-.08A3.72,3.72,0,0,1,22,19.25c-.05,0-.08.07-.13.11l0,.06.58-.06.1,1.14-.41-.06c.07.18.13.33.18.48s.12.32.17.48c.16.49.39.58.85.33l.12-.07a10.94,10.94,0,0,0,3.67-3.77A5.36,5.36,0,0,0,28,15.74,1.31,1.31,0,0,0,27.77,14.76Zm-3-.33a2,2,0,0,0-.1-3.15,2.14,2.14,0,0,0-2.43-.13c-.37.18-.37.22-.12.55s.24.28.6.21a6.61,6.61,0,0,1,1.09-.12.92.92,0,0,1,.7.29,1.74,1.74,0,0,1,.4.91.81.81,0,0,1-.26.84.22.22,0,0,0-.05.19A2,2,0,0,0,24.8,14.43Zm-10.24-.25c.12-.18.2-.32.29-.46a.3.3,0,0,0,0-.4,1,1,0,0,1-.22-.78,1.39,1.39,0,0,1,.93-1.08,1.34,1.34,0,0,1,1.42.25c.28.22.29.23.59,0a1,1,0,0,0,.25-.2c.18-.18.17-.23,0-.37a3.09,3.09,0,0,0-1.3-.53,2.07,2.07,0,0,0-2.29,1.59A3,3,0,0,0,14.56,14.18Z"/><path class="cls-4" d="M16.14,3.43h-.49a3.36,3.36,0,0,0-.35-1,3.28,3.28,0,0,0-.39,1h-.45a4.63,4.63,0,0,0-.56-1.54h.53c-.07.17,0,.34.29.94.1-.33.33-.59.3-.94h.58c-.06.35.2.6.28.92a2.67,2.67,0,0,0,.33-.92h.46c-.1.25-.23.5-.32.77S16.05,3.12,16.14,3.43Z"/><path class="cls-4" d="M7.64,8.12A14.74,14.74,0,0,1,6.31,1.68c.4,0,.44,0,.45.35,0,.82,0,1.65.12,2.47a15.91,15.91,0,0,0,.74,3.35l.08.26Z"/><path class="cls-4" d="M31.69,11.72a6.25,6.25,0,0,1,1.53-3.17c.25.08.27.11.14.3a2.73,2.73,0,0,1-.23.25,6,6,0,0,0-1.32,2.1.56.56,0,0,0,0,.1,14.18,14.18,0,0,1,3.57-2.86c.22.24.22.35,0,.52a5.61,5.61,0,0,1-.54.29,9.2,9.2,0,0,0-3,2.37Z"/><path class="cls-4" d="M22.16,5.57a.4.4,0,0,1,.26.48.41.41,0,0,1-.4.32H20.74V4.85H22a.4.4,0,0,1,.38.29C22.42,5.32,22.34,5.45,22.16,5.57Zm-1,.53c.25,0,.47,0,.69,0s.14-.12.21-.18-.12-.18-.19-.19c-.23,0-.47,0-.71,0Zm0-.68h.68c.05,0,.1-.09.15-.14s-.09-.14-.15-.14c-.22,0-.45,0-.68,0Z"/><path class="cls-4" d="M8.58,8.12a7.75,7.75,0,0,1,3.31-1.2,2.89,2.89,0,0,1,1.27.18c.4.15.42.19.35.66a.83.83,0,0,1-.27-.07,3.61,3.61,0,0,0-2.81-.16C9.82,7.7,9.22,7.91,8.58,8.12Z"/><path class="cls-4" d="M7.51,8.25a1.57,1.57,0,0,1-.73-.41A8.28,8.28,0,0,1,4.61,4.78c-.21-.47-.36-1-.54-1.46,0-.12,0-.2.1-.25s.18.06.2.15c.09.28.16.57.24.85A7.49,7.49,0,0,0,6.34,7C6.72,7.44,7.12,7.84,7.51,8.25Z"/><path class="cls-4" d="M8.91,3.09c.26.31.26.44-.06.61a1.85,1.85,0,0,0-1,1.56c-.07.71,0,1.42-.07,2.13a2.43,2.43,0,0,1,0,.27,6.45,6.45,0,0,1-.3-2.27,3.15,3.15,0,0,1,.31-1.24A2.23,2.23,0,0,1,8.91,3.09Z"/><path class="cls-4" d="M24.07,2.66a.95.95,0,1,1,1,.82A.86.86,0,0,1,24.07,2.66Zm.94.52a.52.52,0,0,0,.56-.52.56.56,0,0,0-1.11,0A.51.51,0,0,0,25,3.18Z"/><path class="cls-4" d="M23.15,5.15v.3h.73v.33h-.73v.31h1.14v.32H22.73V4.83h1.52v.32Z"/><path class="cls-4" d="M18.11,6.41V4.83h1.52v.32h-1.1v.3h.74v.33h-.74v.31h1.14v.32Z"/><path class="cls-4" d="M10.37,3.71a1.12,1.12,0,0,0,.17.2c.17.13.11.25,0,.35a1,1,0,0,1-.31.18A2.93,2.93,0,0,0,8.7,5.91a8.88,8.88,0,0,0-.67,2C8,8,8,8,8,8.14A5.13,5.13,0,0,1,10.37,3.71Z"/><path class="cls-4" d="M20.92,2.76h-.84v.67h-.45V1.88h.44l0,.57H21l0-.57h.43V3.43h-.44Z"/><path class="cls-4" d="M17.27,5.42l0-.58h.43V6.39h-.43V5.74h-.85v.65H16V4.84h.44v.58Z"/><path class="cls-4" d="M5.43,13.51c-.36-.1-.36-.1-.37-.44a5.25,5.25,0,0,1,.23-1.8,3.78,3.78,0,0,1,1.54-2A5.92,5.92,0,0,0,5.43,13.51Z"/><path class="cls-4" d="M19.11,2.36a.87.87,0,0,0-.9-.19c-.06,0-.09.1-.14.16s.11.1.16.11.35,0,.53.05a2,2,0,0,1,.26.06.43.43,0,0,1,.06.8,1.31,1.31,0,0,1-1,.06l-.37-.12L17.85,3a1.1,1.1,0,0,0,.94.16c.07,0,.11-.1.17-.16s-.12-.11-.18-.12-.36,0-.55-.06-.48-.17-.5-.41a.47.47,0,0,1,.44-.51,2.09,2.09,0,0,1,.66,0,2,2,0,0,1,.44.16Z"/><path class="cls-4" d="M24.54,6.25l.13-.31a1.1,1.1,0,0,0,.92.18c.07,0,.13-.11.19-.17a.76.76,0,0,0-.2-.13L25,5.76c-.28,0-.44-.17-.46-.41a.5.5,0,0,1,.37-.5A1.51,1.51,0,0,1,26.09,5l-.16.31a.87.87,0,0,0-.9-.2c-.06,0-.09.11-.14.16s.1.1.16.11l.53.06a1.1,1.1,0,0,1,.26.06.41.41,0,0,1,.31.39.42.42,0,0,1-.25.41,1.33,1.33,0,0,1-1,.06Z"/><path class="cls-4" d="M8.31,8.48a7.65,7.65,0,0,1,1.76.42,7,7,0,0,1,2.34,1.24,2.16,2.16,0,0,1,.65.93c-.19.18-.34.2-.59-.05a1.49,1.49,0,0,1-.15-.2A4.47,4.47,0,0,0,9.8,8.93C9.31,8.77,8.81,8.63,8.31,8.48Z"/><path class="cls-4" d="M26.25,1.88h.43c0,.36,0,.73,0,1.09,0,.17.27.25.55.21s.32-.11.32-.32V2.08a.65.65,0,0,0,0-.2H28a3.11,3.11,0,0,0,0,.32c0,.14,0,.28,0,.42,0,.71-.27.94-1,.85-.52-.06-.65-.21-.65-.74,0-.19,0-.38,0-.57S26.26,2,26.25,1.88Z"/><path class="cls-4" d="M8.26,14.3c-.12.12-.21.07-.31,0a3.08,3.08,0,0,1-.8-1.74,6.4,6.4,0,0,1,.22-2.46A6.21,6.21,0,0,0,8.26,14.3Z"/><path class="cls-4" d="M10.67,5.48s0,0,0,.06c0,.54,0,.56-.51.65a2.27,2.27,0,0,0-1.6,1.1c-.11.17-.21.35-.32.53C8.3,6.87,9.8,5.41,10.67,5.48Z"/><path class="cls-4" d="M35,15.14c-.37.22-.38.22-.48-.17A4,4,0,0,0,33.18,13c-.33-.29-.69-.55-1-.83L32,12.09C32.86,12.19,34.69,14.07,35,15.14Z"/><path class="cls-4" d="M31.61,11.52A2.89,2.89,0,0,1,31.68,10a4.87,4.87,0,0,1,1.51-2.46c.08-.07.18-.17.26-.05s0,.19,0,.26a.85.85,0,0,1-.2.22,3.94,3.94,0,0,0-1.47,2.62C31.7,10.92,31.66,11.22,31.61,11.52Z"/><path class="cls-4" d="M23.43,3.43H23c.05-.33.13-.64-.13-.93a7.52,7.52,0,0,1-.5-.62H23c-.12.27.17.34.25.58.09-.23.34-.32.25-.58h.59c-.2.26-.43.51-.61.79A1,1,0,0,0,23.43,3.43Z"/><path class="cls-4" d="M5.83,7.83a4.58,4.58,0,0,0-3.34,0c0-.37,0-.41.3-.54A2.18,2.18,0,0,1,4.05,7.2,5.81,5.81,0,0,1,5.83,7.83Z"/><path class="cls-4" d="M14.08,5.15V4.81h1.61v.34H15.1V6.39h-.44V5.15Z"/><path class="cls-4" d="M27.34,5.15V6.39H26.9V5.15h-.57V4.81h1.6v.34Z"/><path class="cls-4" d="M7.4,8.6H6.88a3.58,3.58,0,0,0-1.59.26,8.13,8.13,0,0,0-.86.48L4.3,9a3.37,3.37,0,0,1,2.8-.61l-.41-.2,0-.05.73.32Z"/><path class="cls-4" d="M7.42,8a2.93,2.93,0,0,1-.3-.32A13.38,13.38,0,0,1,5.26,4.34s0-.1,0-.14,0-.19.12-.2a.24.24,0,0,1,.19.08c.09.24.16.48.24.72a11,11,0,0,0,1.56,3A1.88,1.88,0,0,1,7.44,8Z"/><path class="cls-4" d="M30.55,11.53a5.08,5.08,0,0,0-3.41.26c-.08-.18-.07-.28.12-.37a3.36,3.36,0,0,1,3.2.06Z"/><path class="cls-4" d="M32.2,11.43a4.24,4.24,0,0,1,2.17-1.16,1.7,1.7,0,0,1,1.15.28.14.14,0,0,1,0,.24.21.21,0,0,1-.2,0,1.86,1.86,0,0,0-1.8,0C33.11,11,32.68,11.2,32.2,11.43Z"/><path class="cls-4" d="M32.31,11.67a3.58,3.58,0,0,1,3.31,0c.27.15.27.15.15.5a1.73,1.73,0,0,1-.39-.18,2.51,2.51,0,0,0-2.1-.44C33,11.55,32.63,11.62,32.31,11.67Z"/><path class="cls-4" d="M32.25,16.18c-.15-.1-.27-.21-.16-.4a3,3,0,0,0,.11-2.42c-.06-.2-.13-.4-.18-.6a6.07,6.07,0,0,1,.61,1.86,4.18,4.18,0,0,1,0,1A.76.76,0,0,1,32.25,16.18Z"/><path class="cls-4" d="M28.72,19.57l.15-.25h0a10.65,10.65,0,0,1,2.45-2l.2-.11c.15.18.15.25,0,.38a3.9,3.9,0,0,1-.35.19,6.73,6.73,0,0,0-2.26,1.73s-.07.19-.14,0Z"/><path class="cls-4" d="M32.21,11.86c1-.19,2.3.06,2.63.76-.35.24-.42.25-.68-.06a2.06,2.06,0,0,0-1.66-.68Z"/><path class="cls-4" d="M17,1.87h.44V3.43H17Z"/><path class="cls-4" d="M8.22,8.6l.22.1a6.81,6.81,0,0,1,2.24,2.35.33.33,0,0,1-.07.46A6.6,6.6,0,0,0,8.22,8.6Z"/><path class="cls-4" d="M7.63,18v.1l-.26-.2a6,6,0,0,0-2.13-1.08,2.09,2.09,0,0,1-.3-.11c-.15-.07-.21-.16-.07-.32a9.18,9.18,0,0,1,2.66,1.49,1.31,1.31,0,0,1,.11.12Z"/><path class="cls-4" d="M31.24,22.2c-.27.19-.3.19-.37-.07a2.39,2.39,0,0,0-.61-1.1c-.35-.33-.72-.63-1.08-.94a.4.4,0,0,1-.13-.13A4.51,4.51,0,0,1,31.24,22.2Z"/><path class="cls-4" d="M28.73,19.56a1.66,1.66,0,0,1,0-1,3.44,3.44,0,0,1,1.15-1.95.65.65,0,0,1,.21-.06,1.74,1.74,0,0,1-.05.22.35.35,0,0,1-.1.11,3.09,3.09,0,0,0-1.17,2.19c0,.17,0,.34-.05.51Z"/><path class="cls-4" d="M31.28,11.59l-.22-.27c-.15-.21-.29-.44-.45-.64a2,2,0,0,0-1.15-.77c.18-.3.21-.31.5-.12a4,4,0,0,1,1.16,1.35c.08.13.15.26.22.4Z"/><path class="cls-4" d="M31.15,10.63A6.71,6.71,0,0,0,29.65,8a.71.71,0,0,1,.25.06,2.41,2.41,0,0,1,.79,1A6.08,6.08,0,0,1,31.15,10.63Z"/><path class="cls-4" d="M5.11,6.8a2.5,2.5,0,0,1-.35-.21A5.1,5.1,0,0,1,3.28,4.27,2,2,0,0,1,3.21,4s0-.08,0-.12.08,0,.1.07a.44.44,0,0,1,.06.16A4.62,4.62,0,0,0,4.88,6.51l.26.24Z"/><path class="cls-4" d="M31.72,18.88l-.09.16h-.06a1.59,1.59,0,0,0-1.63,0l-.72.36C30.17,18.54,31.14,18.38,31.72,18.88Z"/><path class="cls-4" d="M31.8,20c-.39-.16-.71-.51-1.16-.49s-.84.06-1.27.06c.31-.07.62-.16.93-.21a2.21,2.21,0,0,1,1.42.28C31.88,19.7,31.94,19.79,31.8,20Z"/><path class="cls-4" d="M27.86,14.15a.47.47,0,0,1,0-.2,1.73,1.73,0,0,1,.58-.92A4,4,0,0,1,30,12.25C29.17,12.74,28.26,13.11,27.86,14.15Z"/><path class="cls-4" d="M7.4,18.42A3.72,3.72,0,0,0,6.11,20.8c-.18,0-.3-.05-.24-.24a4.18,4.18,0,0,1,1.44-2.1A.25.25,0,0,1,7.4,18.42Z"/><path class="cls-4" d="M29.05,20.56a3.83,3.83,0,0,1,.46,1.84.75.75,0,0,1-.31.6c-.13-.07-.2-.15-.12-.29a2.35,2.35,0,0,0,0-1.91C29.1,20.72,29.07,20.64,29.05,20.56Z"/><path class="cls-4" d="M7.63,18a3.06,3.06,0,0,0-1.42-2.15A.6.6,0,0,1,6,15.59c.14-.14.22,0,.31.09a3,3,0,0,1,1.31,1.95,1.53,1.53,0,0,1,0,.37Z"/><path class="cls-4" d="M10.57,17.65a3.48,3.48,0,0,0-2.17.19l.11-.1a2.19,2.19,0,0,1,2-.28c.06,0,.1.1.15.15Z"/><path class="cls-4" d="M8.25,10.05a10.54,10.54,0,0,0,1.13,2.81c-.09,0-.17,0-.19-.07A6.38,6.38,0,0,1,8.75,12,6.85,6.85,0,0,1,8.25,10.05Z"/><path class="cls-4" d="M5.05,18c-.14-.09-.13-.16,0-.24a1.17,1.17,0,0,1,.91-.27A2.71,2.71,0,0,1,7.17,18C6.46,17.78,5.75,17.39,5.05,18Z"/><path class="cls-4" d="M29.28,19.78a1.78,1.78,0,0,1,1.84.57c-.14.12-.29.2-.43,0a1.62,1.62,0,0,0-1.33-.58Z"/><path class="cls-4" d="M7.07,18.16a2.14,2.14,0,0,0-2,.69c-.14-.13-.18-.21,0-.32A2.22,2.22,0,0,1,7.07,18.16Z"/><path class="cls-4" d="M30.88,14.72a3.42,3.42,0,0,0,.77-2.48,4.12,4.12,0,0,1-.22,2C31.34,14.49,31.23,14.73,30.88,14.72Z"/><path class="cls-4" d="M7.72,21.09a.7.7,0,0,1-.37-.56,3.15,3.15,0,0,1,.13-1.46l0,.29a1.88,1.88,0,0,0,.32,1.42A.18.18,0,0,1,7.72,21.09Z"/><path class="cls-4" d="M28.87,19.32a.36.36,0,0,1,0-.14,5.31,5.31,0,0,1,1-1.78c.08-.1.15-.12.25,0-.09.1-.18.22-.28.32a3.94,3.94,0,0,0-.95,1.58Z"/><path class="cls-4" d="M31.49,9.39a1.72,1.72,0,0,1,.1-1,2.63,2.63,0,0,1,.77-1.12s.09,0,.14,0a.36.36,0,0,1,0,.15s0,.07-.08.1a2.51,2.51,0,0,0-.91,1.88Z"/><path class="cls-4" d="M5.64,19a1.69,1.69,0,0,1,1.51-.75L7,18.34a1.3,1.3,0,0,0-1,.64C6,19.17,5.9,19.17,5.64,19Z"/><path class="cls-4" d="M10.8,8a2.06,2.06,0,0,1,1.78.16,3.64,3.64,0,0,1,.35.24s0,.08,0,.12h-.11a.53.53,0,0,1-.15-.08A2.07,2.07,0,0,0,11,8Z"/><path class="cls-4" d="M29.37,14.36c0-.08,0-.17,0-.23a3.1,3.1,0,0,1,.39-.66,4.16,4.16,0,0,1,.71-.61,3.79,3.79,0,0,0-1,1.5Z"/><path class="cls-4" d="M7.45,17.73a.44.44,0,0,1-.08-.11,4,4,0,0,0-1.06-1.11c-.07-.05-.15-.21-.13-.23s.19,0,.24.09c.34.39.66.8,1,1.2a.67.67,0,0,1,.06.15Z"/><path class="cls-4" d="M26,21.29a1.94,1.94,0,0,1,1.49-1.19A3.85,3.85,0,0,0,26,21.29Z"/><path class="cls-4" d="M8.86,16.71c-.59.23-.73.8-1,1.27a2.77,2.77,0,0,1,.68-1.3C8.64,16.57,8.75,16.5,8.86,16.71Z"/><path class="cls-4" d="M7.87,17.21c0-.79.3-1.67.68-1.73A3.86,3.86,0,0,0,7.87,17.21Z"/><path class="cls-4" d="M28.18,21.89a2.37,2.37,0,0,0,.56-1.69C28.89,21,28.59,21.87,28.18,21.89Z"/><path class="cls-4" d="M3.27,8.46c0-.06,0-.14.09-.17a1.43,1.43,0,0,1,1.27-.17,2,2,0,0,0-1.29.38Z"/><path class="cls-4" d="M5,10.37a2.39,2.39,0,0,0-.67,1.44C4.11,11.45,4.48,10.68,5,10.37Z"/><path class="cls-4" d="M10.32,19.11a3.49,3.49,0,0,0-1.51-.82A1.82,1.82,0,0,1,10.32,19.11Z"/><path class="cls-4" d="M28.59,17.89a1.74,1.74,0,0,1,.83-1.59,4.51,4.51,0,0,0-.56.74A4.2,4.2,0,0,0,28.59,17.89Z"/><path class="cls-4" d="M8.43,20a.27.27,0,0,1-.31-.17c-.14-.31-.26-.63-.38-.95a1.66,1.66,0,0,1,0-.31,5.54,5.54,0,0,0,.28.79A4.47,4.47,0,0,0,8.43,20Z"/><path class="cls-4" d="M33.89,15.2a2.55,2.55,0,0,0-.65-1.6A1.71,1.71,0,0,1,33.89,15.2Z"/><path class="cls-4" d="M27.83,20.59a2.49,2.49,0,0,0-.74,1.05C26.91,21.41,27.34,20.8,27.83,20.59Z"/><path class="cls-4" d="M7.5,16.5a5,5,0,0,0-.36-.69,4.15,4.15,0,0,0-.57-.53C6.94,15.27,7.47,16,7.5,16.5Z"/><path class="cls-4" d="M28.49,19.56a2.22,2.22,0,0,1-.63-1l.67,1Z"/><path class="cls-4" d="M5.61,1.86l.16,1.41a3.31,3.31,0,0,1-.23-1.39Z"/><path class="cls-4" d="M28.89,10.54l-1.09.11A1,1,0,0,1,28.89,10.54Z"/><path class="cls-4" d="M7.41,2.4a1.13,1.13,0,0,0-.35,1.12C6.88,2.94,7,2.51,7.41,2.4Z"/><path class="cls-4" d="M8.62,18.77c.35.19.7.37.83.81Z"/><path class="cls-4" d="M29.52,8.81c.07,0,.15,0,.19,0a1.72,1.72,0,0,1,.62.79c-.23-.28-.41-.62-.81-.72Z"/><path class="cls-4" d="M10.69,6.23c.44-.27.93-.27,1,0A1.41,1.41,0,0,0,10.69,6.23Z"/><path class="cls-4" d="M33.94,8.78A3,3,0,0,1,34.88,8l.06.07c-.18.11-.36.21-.53.33A4.42,4.42,0,0,0,33.94,8.78Z"/><path class="cls-4" d="M9.27,3.79a1.18,1.18,0,0,1,.7-.63s.09,0,.14.08A1.29,1.29,0,0,0,9.27,3.79Z"/><path class="cls-4" d="M30,21.15a1.18,1.18,0,0,1,.41,1.11A1.87,1.87,0,0,0,30,21.15Z"/><path class="cls-4" d="M12.76,9.21a.63.63,0,0,1,.52.51Z"/><path class="cls-4" d="M6.48,14a1,1,0,0,1-.23-.91Z"/><path class="cls-4" d="M11.15,4.35l.43-.18s.09,0,.13.08-.07.07-.12.08l-.42,0Z"/><path class="cls-4" d="M3.15,6.51c.17-.18.38-.19.67,0Z"/><path class="cls-4" d="M34.33,12.83a1.27,1.27,0,0,1,.53.74Z"/><path class="cls-4" d="M35.44,11.11c.3,0,.62.13.63.32Z"/><path class="cls-4" d="M28.32,18.8l-.24-.7.1,0,.19.71Z"/><path class="cls-4" d="M35.34,9.35l-.68.08C34.93,9.21,35.18,9.19,35.34,9.35Z"/><path class="cls-4" d="M10,17l-.64,0A.56.56,0,0,1,10,17Z"/><path class="cls-4" d="M27.84,19.53l-.48-.1C27.44,19.28,27.51,19.29,27.84,19.53Z"/><path class="cls-4" d="M4.32,9.94A3.18,3.18,0,0,0,4,10.1l-.3.2A.72.72,0,0,1,4.32,9.94Z"/><path class="cls-4" d="M33.28,15.85l.07-.57A.43.43,0,0,1,33.28,15.85Z"/><path class="cls-4" d="M6.65,19.74l-.14.88A1.36,1.36,0,0,1,6.65,19.74Z"/><path class="cls-4" d="M8.3,16.5c.07-.29.22-.49.38-.5Z"/><path class="cls-4" d="M22,15.27a2,2,0,0,1,.12-.34.4.4,0,0,1,.72,0,.7.7,0,0,1,0,.67.42.42,0,0,1-.8,0A2.13,2.13,0,0,1,22,15.27Z"/><path class="cls-4" d="M16.62,15.53c0-.33.2-.6.44-.6s.47.26.47.6a.55.55,0,0,1-.47.6A.55.55,0,0,1,16.62,15.53Z"/><path class="cls-4" d="M19.68,19.23q-.25-.18-.51-.33a.18.18,0,0,1-.05-.29.34.34,0,0,1,.28-.06c.1,0,.18.1.28.17l.23-.15a.31.31,0,0,0,0-.48c-.21-.2-.42-.41-.65-.6a.24.24,0,0,1-.08-.31l0-.08c.15-.4.15-.4.57-.4s.66,0,1,0a.27.27,0,0,1,.26.15c.32.55.28.42-.08.81-.13.14-.25.29-.39.42a.32.32,0,0,0-.09.38.8.8,0,0,0,.36.23s.13-.07.19-.11.23-.11.33,0,0,.23-.07.32c-.39.31-.4.33-.8.07a.33.33,0,0,0-.46,0Z"/></g></g></svg>