<svg xmlns="http://www.w3.org/2000/svg" viewBox="0 0 38.55 24.66"><defs><style>.cls-1{isolation:isolate;}.cls-2{opacity:0.15;}.cls-2,.cls-3{mix-blend-mode:multiply;}.cls-4{fill:#fff;}</style></defs><title>convert-FIX-SVG-03</title><g class="cls-1"><g id="Layer_1" data-name="Layer 1"><g class="cls-2"><path d="M13.85,19.44c-.15.17-.23.41-.52.27.12-.18.25-.35.37-.52a5.76,5.76,0,0,1,1.79-1.82c.16-.09.07-.2,0-.35-.44.05-.89.07-1.33.16-.64.13-1.27.3-1.9.46-.11,0-.25.06-.11.23a.26.26,0,0,1,0,.2,1.31,1.31,0,0,1-.09.28c-.12.3-.17.55.17.77a.6.6,0,0,1,.33.6H12.4a1,1,0,0,0-.51-.59.3.3,0,0,1-.15-.34,1.27,1.27,0,0,1,.06-.28,1,1,0,0,0,0-.78c-.06-.16,0-.22.16-.26l.69-.23a6.92,6.92,0,0,1-.28-.88,3.58,3.58,0,0,1,.31-2.16A7.3,7.3,0,0,1,14,12.26l.11-.13c-.24-.26-.5-.51-.72-.78a4.56,4.56,0,0,1-1-2.42,8.71,8.71,0,0,1,0-2.28.33.33,0,0,0-.09-.22,3,3,0,0,1-.84-2.66,2,2,0,0,1,.92-1.25,3.75,3.75,0,0,1,2-.6,2.25,2.25,0,0,1,1.64.8.28.28,0,0,0,.22.08A6.34,6.34,0,0,1,20.54,3l.15.05a1.84,1.84,0,0,1,1.21-.78,2.41,2.41,0,0,1,1.35.17,9.27,9.27,0,0,1,1.38.76,1.7,1.7,0,0,1,.64,1.64,3.66,3.66,0,0,1-.78,2,.53.53,0,0,0,0,.18c0,.64-.05,1.29-.07,1.94a2.05,2.05,0,0,0,.12.4c.06-.1.12-.16.1-.2-.06-.22.09-.26.24-.26a2.93,2.93,0,0,1,.66,0c1,.16,1.91.3,2.86.51a4.85,4.85,0,0,1,1.59.71.41.41,0,0,1,.23.44c-.08.42-.17.84-.25,1.26,0,.13,0,.27-.05.41.28,0,.38.13.41.42A3.46,3.46,0,0,1,30,14.26a1,1,0,0,1-.15.2s-.07,0-.07.08c0,.51-.39.76-.74,1a1.56,1.56,0,0,1-1.19.25,1.06,1.06,0,0,1-.2,0l-.35.5a1.81,1.81,0,0,1-.09.37,2.15,2.15,0,0,1-1.4,1.08,2,2,0,0,1-1.2-.1,1.87,1.87,0,0,1-.39-.29.68.68,0,0,0-.18.14,2.09,2.09,0,0,1-.88.65.28.28,0,0,0-.11.47,3.23,3.23,0,0,1,.54,1.1c-.16.06-.26.05-.32-.14a4.7,4.7,0,0,0-.25-.57H23l-.08.71h-.24l.08-1.38a3.4,3.4,0,0,1-.85,0,3.91,3.91,0,0,1-1.6-.87.5.5,0,0,0-.33-.14A12.86,12.86,0,0,1,17.15,17c-.07,0-.17.07-.24.1.15.17.28.29.39.44s.41.6.62.9a.21.21,0,0,1-.06.34c-.16.11-.36.17-.42.39a.34.34,0,0,1-.21,0,1.82,1.82,0,0,1-.78-1.35.28.28,0,0,0-.06-.13,1.13,1.13,0,0,0-.12.21c-.09.27-.16.55-.26.81a1.38,1.38,0,0,1-.83.9h-.07c0-.19-.14-.15-.27-.16a.53.53,0,0,1-.35-.12s0-.22.09-.31.32-.41.49-.61c-.31-.07-.4,0-.56.16a2.2,2.2,0,0,0-.37.51,2.48,2.48,0,0,0,0,.67h-.21Zm4.62-6.7,0-.05a3.53,3.53,0,0,1-1.4-.27A2.61,2.61,0,0,1,15.15,10a2.5,2.5,0,0,1,1.76-2.76,4.33,4.33,0,0,1,2.64,0,2.44,2.44,0,0,1,1.78,1.81q0,.12.06.27c.77-.95,1.72-.84,2.73-.54A7.86,7.86,0,0,0,24.17,7c0-.06-.08-.11-.11-.16a3.12,3.12,0,0,1-.41-.7,1.32,1.32,0,0,0-.32-.62,5.25,5.25,0,0,0-.73-.76C22,4.33,21.43,4,20.85,3.57a2.27,2.27,0,0,0-.4-.31,6.08,6.08,0,0,0-3.65-.32,1.53,1.53,0,0,0-.52.18,7,7,0,0,1-1.55,1,.18.18,0,0,0-.07,0,6.75,6.75,0,0,0-1.23,1.44c-.16.29-.27.61-.6.77a.33.33,0,0,0-.08.19,8.33,8.33,0,0,0-.08,2.34,4.24,4.24,0,0,0,1.06,2.48,5.54,5.54,0,0,0,4.52,1.52C18.32,12.87,18.39,12.78,18.47,12.74Zm1.82-1.58h0l-.08.06A11.18,11.18,0,0,0,17,16.09a.46.46,0,0,0,.36.68l.27.06a18,18,0,0,0,4.09.19c.21,0,.42,0,.63,0-.2-.28-.41-.54-.58-.81a.53.53,0,0,1,0-.65.35.35,0,0,0,.05-.13c0-.25,0-.49-.05-.74,0-.41-.06-.82-.07-1.23a.24.24,0,0,0-.17-.24,1.63,1.63,0,0,1-1.06-1.09C20.38,11.79,20.35,11.48,20.29,11.16Zm.69-.9a2.28,2.28,0,0,0,.17-.5,2.2,2.2,0,0,0-1.48-2.18A4.11,4.11,0,0,0,17,7.51a2.16,2.16,0,0,0-1.6,2.07,2.31,2.31,0,0,0,.7,2,3.53,3.53,0,0,0,2.26.86A.61.61,0,0,0,19,12l-.62-.44a.23.23,0,0,0-.2,0c-.19.11-.36.24-.55.36a.24.24,0,0,1-.18,0c-.31-.2-.6-.42-.92-.63l.26-.33.37.26c.31.22.31.22.62,0a.46.46,0,0,0,0-.79l-.9-.74c.12-.15.21-.29.33-.42a.26.26,0,0,1,.19-.09h1.76a.21.21,0,0,1,.15.07c.11.15.19.3.29.46l-1,.78a.42.42,0,0,0-.12.24.44.44,0,0,0,.28.54c.05,0,.09.08.14.09a.27.27,0,0,0,.2,0c.19-.12.38-.26.57-.4l.19.18a3.37,3.37,0,0,0,.47-.54A.66.66,0,0,1,21,10.26ZM15.2,16.75l-.54-.05c-.42,0-.84,0-1.26-.08a.34.34,0,0,1-.24-.14.44.44,0,0,1,.09-.28.88.88,0,0,1,.2-.18l-.1-.19c.92-.42,1.63.18,2.4.44,0,0,0-.07,0-.09-.19-.41-.38-.81-.58-1.22-.08-.16-.17-.32-.24-.49a.24.24,0,0,1,.1-.18c.19-.06.4-.09.59-.14a.31.31,0,0,1,.36.14,1.94,1.94,0,0,0,.23.26l.05,0,.07-.7.72-.17,0-.07c-1.33-.8-2.49-.29-3.61.53l-.16-.18a4,4,0,0,1,2.58-1l-1.51-.66a6.45,6.45,0,0,0-1.63,2.82A2.69,2.69,0,0,0,12.92,17a.18.18,0,0,0,.23.12ZM16,3a2,2,0,0,0-1.49-.84,3.5,3.5,0,0,0-2,.6,1.69,1.69,0,0,0-.76,1.11,2.79,2.79,0,0,0,.77,2.35L13,5.87c-.65-.75-.73-1.29-.3-1.83a1.59,1.59,0,0,1,1-.62,1.38,1.38,0,0,1,1.18.37Zm6,1a4.09,4.09,0,0,1,.65-.34,1.28,1.28,0,0,1,1.39.53,1.1,1.1,0,0,1,0,1.6.36.36,0,0,0,0,.53l.13.2c.09.14.18.12.27,0A3.59,3.59,0,0,0,25,5a1.61,1.61,0,0,0-.85-1.81c-.25-.14-.49-.29-.74-.4a2.75,2.75,0,0,0-1.29-.27,1.56,1.56,0,0,0-1.23.76ZM25.4,9.15l0,.06c.2.26.4.51.59.77s.26.4.56.25a.48.48,0,0,1,.29,0,2.83,2.83,0,0,1,.67.35,1.91,1.91,0,0,0,1.37.5,1,1,0,0,1,.76.39.52.52,0,0,1,.06.13l.09,0c.06-.34.12-.67.16-1a.32.32,0,0,0-.12-.22c-.23-.14-.47-.28-.72-.4a7.17,7.17,0,0,0-2.19-.58Zm.1,6.15a2.54,2.54,0,0,1-.2.24.93.93,0,0,1-1.2.23,1.24,1.24,0,0,1-.7-.77,5.37,5.37,0,0,1-.15-.76,1.28,1.28,0,0,0-.19.75A1.44,1.44,0,0,0,24,16.56a2.56,2.56,0,0,0,1.23.09.52.52,0,0,0,.33-.16A1,1,0,0,0,25.5,15.3Zm-4.19-5.13c.33.29.4.28.72,0a4.89,4.89,0,0,1,.74-.55.69.69,0,0,1,.67,0A.52.52,0,0,0,24,9.52c.28-.18.27-.27,0-.42a2.17,2.17,0,0,0-1.39-.21,1.29,1.29,0,0,0-1.06.83Zm2.62,2.62a1.89,1.89,0,0,0-1.49.55,1.56,1.56,0,0,0-.3,1.79c.44,0,.5,0,.58-.45A3.06,3.06,0,0,1,23,13.9a.76.76,0,0,1,.57-.48A.53.53,0,0,0,23.93,12.79Zm0-.54-.23.08a1,1,0,0,1-1.28-.65,1.52,1.52,0,0,1,.26-1.45l.1-.14a1.94,1.94,0,0,0-1.08,1.49,1.51,1.51,0,0,0,.77,1.4,2.21,2.21,0,0,1,1.45-.48ZM26,16.32a1.93,1.93,0,0,0,.5-2,.64.64,0,0,0-.33-.32,1.44,1.44,0,0,0-1.1.27A1.79,1.79,0,0,1,26,16.32Zm-.88-5.42a1.27,1.27,0,0,0-1.09-.9,1.37,1.37,0,0,0-1.23.75,1.09,1.09,0,0,0,.25,1.07L23,11.63a.6.6,0,0,1,.52-.87,2.91,2.91,0,0,1,.78,0C24.6,10.78,24.88,10.85,25.16,10.9Zm.52,2.62a1.33,1.33,0,0,0-1.51,0,1.26,1.26,0,0,0-.45,1.28,1,1,0,0,0,.81.65l-.13-.09a.62.62,0,0,1,0-1.08,4.25,4.25,0,0,1,.67-.43A4.63,4.63,0,0,1,25.68,13.52ZM21.79,13l0-.08a1.54,1.54,0,0,1-.6-.92.87.87,0,0,1,.19-.94,1.36,1.36,0,0,0,.19-.27c-.2-.08-.37-.17-.55-.23a.3.3,0,0,0-.42.26,2.64,2.64,0,0,0,0,.63,1.59,1.59,0,0,0,.82,1.43A2,2,0,0,0,21.79,13Zm2.4,4.08a2.3,2.3,0,0,1-1.14-.52.79.79,0,0,1-.31-.72c.05-.35,0-.38-.35-.31a.9.9,0,0,0-.22.06c-.26.1-.33.27-.18.49a4.66,4.66,0,0,0,.6.73,1.44,1.44,0,0,0,1.34.39A1.23,1.23,0,0,0,24.19,17.06Zm-2.61.24c.05.13.09.25.13.37.18.45.28.51.77.41l.13,0a2.8,2.8,0,0,0,1.08-.53l-.94-.29-.1,0Zm5.43-3h.07c0-.22,0-.43,0-.65a1,1,0,0,0-.88-.93,3,3,0,0,1-1.44-.36c-.05,0-.16,0-.18,0a2.18,2.18,0,0,0-.2.37c.37,0,.71.07,1,.14A1.77,1.77,0,0,1,27,14.27Zm1.71.22a1.69,1.69,0,0,0,.5-1.35,1.23,1.23,0,0,0-.16-.49.48.48,0,0,0-.26-.18,1.3,1.3,0,0,0-.89.23A1.56,1.56,0,0,1,28.72,14.49ZM26.94,16.6a.61.61,0,0,0-.72.19.85.85,0,0,1-.88.27,2.6,2.6,0,0,0-.4,0,.35.35,0,0,0-.36.25A1.7,1.7,0,0,0,26.94,16.6Zm-1-5.28c.5-.11.55-.19.37-.56,0-.06-.1-.1-.14-.15a10.22,10.22,0,0,1-.88-1c-.24-.36-.21-.38-.59-.16l-.09.07A3.16,3.16,0,0,1,26,11.32Zm1.34,0c1,.1,1.91.18,2.3,1.28a2.56,2.56,0,0,0,0-.55.87.87,0,0,0-.81-.73,7.22,7.22,0,0,1-1.11-.28c-.18-.06-.26-.05-.32.11A1.3,1.3,0,0,1,27.29,11.36Zm-2,.92.44.1a.28.28,0,0,0,.34-.13.81.81,0,0,1,.37-.25.49.49,0,0,0,.38-.54A1.64,1.64,0,0,0,25.3,12.28ZM27,12.8l1.29-.75a1.06,1.06,0,0,0-1.44.21c-.17.24-.17.25.05.45Zm-.28,3.34c.37,0,.55-.07.63-.4a7.66,7.66,0,0,0,.21-1,4.32,4.32,0,0,0,0-.63A8.76,8.76,0,0,0,26.73,16.14Zm-1.67-4a2.1,2.1,0,0,0,.25-.31.24.24,0,0,0,0-.23,1.52,1.52,0,0,0-1-.41l.17.87Zm4.39,2.67a.51.51,0,0,0-.58.18.76.76,0,0,1-.77.25c-.33-.07-.33-.06-.39.28A1.43,1.43,0,0,0,29.45,14.78ZM18.13,13.17l-1.47-.09a3.58,3.58,0,0,1,.57.34,3.45,3.45,0,0,1,.42.51l.44-.68A.59.59,0,0,1,18.13,13.17Zm11.18,1.19c.33,0,.45-.06.53-.34a7,7,0,0,0,.18-.79,4.17,4.17,0,0,0,0-.5H30Zm-1-.67c-.14.12-.27.23-.39.35a.18.18,0,0,0,0,.1c0,.23,0,.45,0,.73.15-.08.35-.11.42-.22A.86.86,0,0,0,28.26,13.69Zm-1-2.9a1.19,1.19,0,0,0-.8-.31,2.19,2.19,0,0,1,.11.34.41.41,0,0,0,.39.42h0Zm-3.6,1c.18-.13.26-.27.2-.41a.26.26,0,0,0-.43,0A4.1,4.1,0,0,0,23.7,11.78Zm1.08,2.79-.21.24a1.94,1.94,0,0,0,.35.18s.15-.08.15-.13S25,14.59,24.78,14.57Zm.86-3,.05,0a1.22,1.22,0,0,0-.22-.71l-.06.48Zm1.77,1.65v.09a2.29,2.29,0,0,0,.36.07s.06-.1,0-.13-.1-.19-.14-.18A.91.91,0,0,0,27.41,13.18Zm-.92.61.05-.06-.42-.36C26,13.8,26.37,13.66,26.49,13.79Zm2.24-1.6.31.06,0,0-.37-.28Z"/><path d="M8.31,22.76H7.14c.27,0,.29-.21.28-.43,0-.56,0-1.12,0-1.7l-1,2.17-1-2.19c0,.1,0,.15,0,.2v1.5c0,.3,0,.35.34.44H5c.24-.06.3-.22.29-.45,0-.55,0-1.09,0-1.63,0-.21-.07-.32-.28-.36.28,0,.56,0,.84,0,0,0,.12.08.15.13.19.42.37.84.55,1.26l.11.23c.22-.5.43-1,.62-1.45a.26.26,0,0,1,.28-.19c.24,0,.48,0,.73,0-.3,0-.29.23-.29.45v1.58C8,22.64,8,22.67,8.31,22.76Z"/><path d="M31.37,22.75c.23,0,.29-.15.28-.36,0-.56,0-1.12,0-1.68,0-.29,0-.32-.3-.39h2V21c-.15-.61-.61-.6-1.11-.55v.93c.3.06.37,0,.58-.52v1.23h0a1.23,1.23,0,0,0-.16-.39,1.45,1.45,0,0,0-.4-.24c0,.37,0,.66,0,.94,0,.07.13.17.2.18a.85.85,0,0,0,1-.58l.08-.06-.11.76Z"/><path d="M21.65,22l-.1.76H19.46c.23,0,.29-.16.29-.37,0-.57,0-1.13,0-1.7,0-.21-.06-.34-.29-.36h2V21c-.12-.14-.23-.36-.41-.45a2.45,2.45,0,0,0-.69-.09v1c.3.05.35,0,.56-.58v1.28c-.11-.26-.15-.59-.58-.54v.84c0,.14.08.2.22.21a.86.86,0,0,0,1-.59S21.61,22,21.65,22Z"/><path d="M30.44,20.31h.65c-.28.09-.28.31-.28.54v1.73c0,.07,0,.14,0,.27l-1.72-2.06a1.62,1.62,0,0,0,0,.18v1.29c0,.33,0,.38.34.5h-.8c.3-.11.34-.17.34-.49,0-.49,0-1,0-1.46,0-.25-.1-.39-.38-.5h.82a.31.31,0,0,1,.16.12l1,1.23.12.13c0-.43,0-.82,0-1.21C30.65,20.48,30.51,20.39,30.44,20.31Z"/><path d="M24.11,22.85l-1.74-2.08c0,.59,0,1.12,0,1.66,0,.19.14.28.32.33h-.79c.3-.11.33-.17.33-.49,0-.49,0-1,0-1.46a.49.49,0,0,0-.32-.5h.76a.31.31,0,0,1,.16.12l1,1.23.12.13c0-.43,0-.82,0-1.21,0-.1-.15-.19-.21-.26h.7c-.36.08-.34.32-.34.55v1.71C24.12,22.65,24.11,22.72,24.11,22.85Z"/><path d="M26.09,20.5v2c0,.21.13.26.29.29h-1.2c.29-.08.32-.12.32-.43V20.66a.78.78,0,0,0,0-.16c-.44-.07-.54,0-.8.49v-.66h2.21V21A.61.61,0,0,0,26.09,20.5Z"/><path d="M19.2,21.89l-.1.86H17c.25,0,.29-.19.29-.41,0-.53,0-1.07,0-1.61,0-.21,0-.4-.29-.42h1.2c-.09.05-.22.07-.26.14a.56.56,0,0,0-.06.32c0,.5,0,1,0,1.51,0,.28,0,.32.31.32.63,0,.71-.06,1-.65l0-.07Z"/><path d="M16.7,22.76h-1c.07,0,.18-.07.21-.13a.41.41,0,0,0,0-.26c-.12-.33-.13-.33-.47-.33h-.26c-.3,0-.43.12-.46.43s.14.23.27.28h-.66a3.26,3.26,0,0,0,.3-.48l.94-2,.15.3c.27.61.54,1.22.82,1.83A3.22,3.22,0,0,0,16.7,22.76Zm-1.46-1.69-.36.8h.72Z"/><path d="M10.43,22.76H9.14a.82.82,0,0,0,.26-.14.73.73,0,0,0,0-.3,1.19,1.19,0,0,0-.2-.84c-.17-.26-.29-.55-.45-.82a3.3,3.3,0,0,0-.28-.35h1c-.22,0-.22.16-.13.33s.35.64.54,1c.19-.33.37-.61.53-.91s.13-.29-.15-.42H11c-.13.18-.27.37-.4.57s-.17.29-.27.43a1.44,1.44,0,0,0-.26,1C10.06,22.67,10,22.67,10.43,22.76Z"/><path d="M13.79,20.31h.71a4.1,4.1,0,0,0-.77,1.38c-.19.37-.35.74-.54,1.16L13,22.48c-.27-.61-.53-1.23-.81-1.84a1.77,1.77,0,0,0-.21-.32h1.06c-.3.07-.32.11-.19.39s.37.85.58,1.33c.21-.5.42-.94.6-1.4C14.13,20.43,14,20.37,13.79,20.31Z"/><path d="M27.17,20.32h1.18a.51.51,0,0,0-.24.13.52.52,0,0,0-.06.28v1.65c0,.27.05.32.31.38H27.17c.25,0,.29-.18.29-.4,0-.55,0-1.1,0-1.65C27.46,20.5,27.44,20.32,27.17,20.32Z"/><path d="M21,7.84c0-.12.07-.25.12-.36a.45.45,0,0,1,.82,0,.8.8,0,0,1,0,.75.46.46,0,0,1-.42.27.44.44,0,0,1-.4-.27A3.59,3.59,0,0,1,21,7.84Z"/><path d="M15.52,7.86a1.55,1.55,0,0,1-.07.31A.47.47,0,0,1,15,8.5a.42.42,0,0,1-.41-.33,1.39,1.39,0,0,1,0-.61A.42.42,0,0,1,15,7.21a.46.46,0,0,1,.43.34A1.55,1.55,0,0,1,15.52,7.86Z"/><path d="M14.05,19.64c-.15.16-.23.41-.52.27.12-.18.25-.35.36-.52a5.69,5.69,0,0,1,1.8-1.82c.16-.09.07-.2,0-.36-.44.06-.89.08-1.33.17-.64.13-1.27.3-1.91.46-.1,0-.24.06-.1.23s0,.13,0,.2a1,1,0,0,1-.08.28c-.12.29-.17.55.17.77a.57.57,0,0,1,.32.6H12.6a1,1,0,0,0-.51-.6.28.28,0,0,1-.15-.33A1.5,1.5,0,0,1,12,18.7a.94.94,0,0,0,.05-.77c-.06-.16,0-.22.15-.26l.7-.23a6.92,6.92,0,0,1-.28-.88,3.58,3.58,0,0,1,.31-2.16,7.3,7.3,0,0,1,1.27-1.94l.11-.13c-.25-.27-.5-.51-.72-.78a4.56,4.56,0,0,1-1-2.42,8.71,8.71,0,0,1,0-2.28.39.39,0,0,0-.09-.22A3,3,0,0,1,11.73,4a2,2,0,0,1,.92-1.25,3.75,3.75,0,0,1,2-.6,2.24,2.24,0,0,1,1.64.8.32.32,0,0,0,.22.08,6.35,6.35,0,0,1,4.19.21l.15,0a1.82,1.82,0,0,1,1.21-.78,2.28,2.28,0,0,1,1.34.17,8.37,8.37,0,0,1,1.38.76A1.67,1.67,0,0,1,25.47,5a3.69,3.69,0,0,1-.78,2,.55.55,0,0,0-.05.17c0,.65-.06,1.3-.07,2a1.53,1.53,0,0,0,.12.4c.06-.1.11-.16.1-.2-.06-.22.09-.26.24-.27a4.63,4.63,0,0,1,.65,0c1,.16,1.92.31,2.87.51a5.19,5.19,0,0,1,1.59.72.42.42,0,0,1,.23.44c-.08.42-.17.84-.25,1.26,0,.13,0,.27-.05.41.28,0,.38.13.41.41a3.5,3.5,0,0,1-.25,1.6,1.3,1.3,0,0,1-.15.2s-.07.05-.07.07c0,.51-.39.77-.74,1a1.56,1.56,0,0,1-1.19.25l-.2,0-.35.5a1.81,1.81,0,0,1-.09.37A2.18,2.18,0,0,1,26,17.93a2,2,0,0,1-1.2-.1,2.3,2.3,0,0,1-.39-.29.7.7,0,0,0-.19.14,2,2,0,0,1-.87.65.27.27,0,0,0-.11.47,3.23,3.23,0,0,1,.54,1.1c-.16.06-.26.05-.32-.14s-.17-.38-.25-.57H23.2l-.09.71h-.24L23,18.53a3.41,3.41,0,0,1-.85,0,3.84,3.84,0,0,1-1.59-.88.57.57,0,0,0-.33-.13,12.86,12.86,0,0,1-2.83-.32c-.07,0-.17.07-.24.1a4.54,4.54,0,0,1,.38.44c.22.29.42.6.63.9a.21.21,0,0,1-.06.34c-.16.11-.36.17-.42.39a.34.34,0,0,1-.21,0A1.84,1.84,0,0,1,16.65,18a.28.28,0,0,0-.06-.13,1.13,1.13,0,0,0-.12.21c-.1.27-.16.54-.27.8a1.33,1.33,0,0,1-.82.91H15.3c0-.19-.13-.16-.26-.16a.53.53,0,0,1-.35-.12s0-.22.09-.31.32-.41.49-.61c-.31-.07-.41,0-.56.16a1.79,1.79,0,0,0-.37.51,2.47,2.47,0,0,0,0,.67h-.21Zm4.61-6.7,0-.06a3.35,3.35,0,0,1-1.4-.26,2.63,2.63,0,0,1-1.9-2.39A2.51,2.51,0,0,1,17.1,7.47a4.44,4.44,0,0,1,2.65,0,2.47,2.47,0,0,1,1.78,1.82q0,.12.06.27c.77-1,1.72-.84,2.73-.54a7.86,7.86,0,0,0,.05-1.82c0-.06-.08-.11-.11-.17a2.73,2.73,0,0,1-.41-.69,1.32,1.32,0,0,0-.32-.62A5.32,5.32,0,0,0,22.79,5c-.56-.42-1.16-.79-1.74-1.18-.14-.1-.25-.26-.4-.32A6.16,6.16,0,0,0,17,3.14a1.77,1.77,0,0,0-.52.17,6.73,6.73,0,0,1-1.55,1s0,0-.07,0a6.75,6.75,0,0,0-1.23,1.44,1.63,1.63,0,0,1-.6.77.33.33,0,0,0-.08.18,8,8,0,0,0-.08,2.34,4.18,4.18,0,0,0,1.06,2.49,5.54,5.54,0,0,0,4.52,1.52C18.52,13.07,18.59,13,18.66,12.94Zm1.83-1.59h0l-.08.06a11.18,11.18,0,0,0-3.21,4.87.46.46,0,0,0,.36.68l.27.06a18.65,18.65,0,0,0,4.09.19l.63,0c-.21-.28-.41-.53-.58-.8a.53.53,0,0,1,0-.65A.25.25,0,0,0,22,15.6c0-.25,0-.5-.05-.75,0-.4-.06-.81-.07-1.22a.24.24,0,0,0-.17-.24,1.68,1.68,0,0,1-1.07-1.1C20.58,12,20.55,11.68,20.49,11.35Zm.69-.89a1.8,1.8,0,0,0,.16-.5,2.17,2.17,0,0,0-1.47-2.18,4,4,0,0,0-2.66-.07,2.15,2.15,0,0,0-1.6,2.07,2.28,2.28,0,0,0,.7,2,3.54,3.54,0,0,0,2.26.87.61.61,0,0,0,.61-.39c-.21-.15-.41-.31-.62-.44a.23.23,0,0,0-.2,0c-.19.11-.36.24-.55.36a.2.2,0,0,1-.18,0l-.92-.62.25-.33.38.26c.31.22.31.22.62,0a.46.46,0,0,0,0-.79l-.9-.74c.12-.15.21-.29.33-.42a.26.26,0,0,1,.19-.09c.58,0,1.17,0,1.76,0a.21.21,0,0,1,.15.07c.1.14.19.3.29.46-.33.26-.65.51-1,.78a.41.41,0,0,0-.13.24.44.44,0,0,0,.29.54c.05,0,.09.08.14.09a.34.34,0,0,0,.2,0c.19-.12.38-.26.57-.4l.18.18a3,3,0,0,0,.48-.54A.65.65,0,0,1,21.18,10.46ZM15.4,17l-.54-.05-1.27-.08a.34.34,0,0,1-.23-.14.44.44,0,0,1,.09-.28c0-.07.13-.12.19-.18l-.09-.2c.92-.41,1.62.19,2.4.45,0,0,0-.07,0-.09-.19-.41-.38-.81-.58-1.22-.08-.16-.17-.32-.24-.49a.24.24,0,0,1,.1-.18c.19-.06.39-.1.59-.15a.32.32,0,0,1,.36.15,2.75,2.75,0,0,0,.22.26l.06,0,.07-.7.72-.17,0-.08c-1.33-.79-2.5-.28-3.62.54l-.16-.19a4,4,0,0,1,2.59-1l-1.51-.66a6.45,6.45,0,0,0-1.63,2.82,2.69,2.69,0,0,0,.21,1.93.18.18,0,0,0,.22.12Zm.82-13.74a2,2,0,0,0-1.49-.84,3.43,3.43,0,0,0-2,.6A1.75,1.75,0,0,0,12,4.07a2.84,2.84,0,0,0,.78,2.36l.44-.36c-.65-.75-.73-1.29-.3-1.83a1.6,1.6,0,0,1,.95-.62A1.36,1.36,0,0,1,15,4Zm6,1a3.7,3.7,0,0,1,.65-.34,1.29,1.29,0,0,1,1.39.53,1.1,1.1,0,0,1,0,1.6.36.36,0,0,0,0,.53,1.27,1.27,0,0,0,.13.19c.09.14.17.13.27,0a3.63,3.63,0,0,0,.59-1.52,1.61,1.61,0,0,0-.85-1.81,7.73,7.73,0,0,0-.75-.4,2.7,2.7,0,0,0-1.29-.27,1.52,1.52,0,0,0-1.22.76ZM25.6,9.35l0,.06c.2.26.4.51.58.77s.27.4.57.25a.48.48,0,0,1,.29,0,2.51,2.51,0,0,1,.67.35,2,2,0,0,0,1.37.5,1,1,0,0,1,.76.39.39.39,0,0,1,.06.13l.09-.05c.06-.33.12-.66.16-1a.32.32,0,0,0-.12-.22c-.23-.14-.47-.28-.72-.4a7.56,7.56,0,0,0-2.19-.59Zm.09,6.15a1.55,1.55,0,0,1-.19.24.94.94,0,0,1-1.2.23,1.29,1.29,0,0,1-.71-.77c-.07-.25-.1-.52-.15-.76a1.27,1.27,0,0,0-.18.75,1.42,1.42,0,0,0,.94,1.56,2.45,2.45,0,0,0,1.23.1.52.52,0,0,0,.33-.16A1,1,0,0,0,25.69,15.5Zm-4.18-5.13c.33.29.4.28.72,0A4.89,4.89,0,0,1,23,9.82a.65.65,0,0,1,.67-.05.5.5,0,0,0,.55-.06c.27-.17.27-.26,0-.41a2.17,2.17,0,0,0-1.39-.21,1.32,1.32,0,0,0-1.07.82C21.66,10.06,21.59,10.21,21.51,10.37ZM24.12,13a1.87,1.87,0,0,0-1.48.55c-.6.52-.48,1.14-.3,1.79.43,0,.5,0,.57-.45a4.15,4.15,0,0,1,.24-.78.79.79,0,0,1,.58-.48A.52.52,0,0,0,24.12,13Zm0-.54-.23.08a1,1,0,0,1-1.28-.65,1.52,1.52,0,0,1,.26-1.45l.1-.14a1.92,1.92,0,0,0-1.08,1.48,1.48,1.48,0,0,0,.77,1.4,2.25,2.25,0,0,1,1.45-.47Zm2.09,4.06a1.89,1.89,0,0,0,.51-2,.68.68,0,0,0-.33-.32,1.43,1.43,0,0,0-1.1.27A1.77,1.77,0,0,1,26.23,16.51Zm-.87-5.41a1.27,1.27,0,0,0-1.1-.9A1.34,1.34,0,0,0,23,11,1.06,1.06,0,0,0,23.29,12l-.06-.19a.6.6,0,0,1,.52-.87,2.84,2.84,0,0,1,.77,0C24.8,11,25.07,11.05,25.36,11.1Zm.52,2.62a1.34,1.34,0,0,0-1.52,0A1.27,1.27,0,0,0,23.92,15a1,1,0,0,0,.8.65l-.12-.09a.62.62,0,0,1,0-1.08,4.3,4.3,0,0,1,.67-.44A6.18,6.18,0,0,1,25.88,13.72ZM22,13.18l0-.09a1.52,1.52,0,0,1-.6-.91.87.87,0,0,1,.19-.94A1.75,1.75,0,0,0,21.8,11c-.2-.08-.37-.17-.55-.23a.3.3,0,0,0-.42.25,2.22,2.22,0,0,0,0,.63,1.57,1.57,0,0,0,.82,1.43A1.47,1.47,0,0,0,22,13.18Zm2.4,4.07a2.22,2.22,0,0,1-1.14-.52.76.76,0,0,1-.31-.71c0-.36,0-.38-.35-.31l-.22,0c-.26.1-.33.28-.18.5a4.66,4.66,0,0,0,.6.73,1.47,1.47,0,0,0,1.34.39A1.05,1.05,0,0,0,24.39,17.25Zm-2.61.24.13.38c.17.45.28.51.77.41l.12,0a2.62,2.62,0,0,0,1.08-.54L23,17.44l-.1,0Zm5.43-3h.07c0-.21,0-.43,0-.64a1,1,0,0,0-.88-.93A3.13,3.13,0,0,1,25,12.53s-.16,0-.18,0a2.22,2.22,0,0,0-.21.37,10.47,10.47,0,0,1,1,.14A1.75,1.75,0,0,1,27.21,14.47Zm1.71.22a1.71,1.71,0,0,0,.5-1.35,1.41,1.41,0,0,0-.16-.49.42.42,0,0,0-.27-.18,1.29,1.29,0,0,0-.88.23A1.56,1.56,0,0,1,28.92,14.69Zm-1.78,2.1a.64.64,0,0,0-.72.19.84.84,0,0,1-.88.28,2.69,2.69,0,0,0-.4,0,.34.34,0,0,0-.36.25A1.7,1.7,0,0,0,27.14,16.79Zm-1-5.27c.5-.11.55-.19.36-.56a.93.93,0,0,0-.13-.15,10.22,10.22,0,0,1-.88-1c-.24-.36-.21-.38-.59-.16l-.09.07A3.16,3.16,0,0,1,26.15,11.52Zm1.34,0c1,.1,1.91.18,2.3,1.28a2.65,2.65,0,0,0,0-.56.88.88,0,0,0-.81-.72,6.94,6.94,0,0,1-1.11-.28c-.18-.06-.26,0-.33.11A1,1,0,0,1,27.49,11.56Zm-2,.92.44.1a.3.3,0,0,0,.34-.13.81.81,0,0,1,.37-.25.49.49,0,0,0,.38-.54A1.62,1.62,0,0,0,25.5,12.48Zm1.71.52,1.29-.76a1.07,1.07,0,0,0-1.44.22c-.17.24-.17.25.05.45Zm-.28,3.34c.36,0,.54-.08.63-.4a7.66,7.66,0,0,0,.21-.95,4.43,4.43,0,0,0,0-.64A9,9,0,0,0,26.93,16.34Zm-1.67-4c.07-.09.17-.19.25-.31a.27.27,0,0,0,0-.23,1.49,1.49,0,0,0-1-.42l.17.88ZM29.65,15a.54.54,0,0,0-.59.17.75.75,0,0,1-.76.26c-.33-.07-.33-.06-.39.28A1.45,1.45,0,0,0,29.65,15ZM18.33,13.37l-1.47-.09a4.08,4.08,0,0,1,.57.34,3.45,3.45,0,0,1,.42.51l.43-.68A.56.56,0,0,0,18.33,13.37ZM29.5,14.56c.34,0,.46-.06.54-.34s.13-.53.18-.8a4,4,0,0,0,0-.49h-.06Zm-1.05-.67-.38.35s-.05.07,0,.1c0,.22,0,.45,0,.72.15-.07.34-.1.42-.22A.84.84,0,0,0,28.45,13.89ZM27.5,11a1.22,1.22,0,0,0-.81-.31,1.39,1.39,0,0,1,.12.34.4.4,0,0,0,.39.42h0Zm-3.6,1c.18-.13.25-.27.2-.41s-.16-.11-.25-.11-.19.11-.19.12S23.82,11.84,23.9,12ZM25,14.77l-.21.24a2.91,2.91,0,0,0,.35.18s.15-.09.15-.13S25.24,14.79,25,14.77Zm.86-3,.05,0a1.22,1.22,0,0,0-.22-.71l-.06.48Zm1.76,1.65,0,.09a2.29,2.29,0,0,0,.36.07s.06-.1,0-.13-.1-.19-.14-.18A1,1,0,0,0,27.6,13.38Zm-.91.61,0-.06-.42-.36C26.22,14,26.57,13.86,26.69,14Zm2.24-1.6.31.06,0,0-.37-.29Z"/><path d="M8.51,23H7.34c.27,0,.28-.21.28-.43,0-.56,0-1.13,0-1.7L6.63,23l-1-2.2c0,.11,0,.16,0,.21v1.5c0,.3,0,.35.34.44H5.21c.24-.06.3-.23.29-.45,0-.55,0-1.09,0-1.63,0-.21-.07-.32-.28-.36.28,0,.56,0,.84,0a.29.29,0,0,1,.15.14c.19.42.37.84.55,1.26,0,.07.07.13.11.23.22-.5.43-1,.62-1.45a.24.24,0,0,1,.27-.19c.24,0,.48,0,.74,0-.3,0-.29.23-.29.44v1.59C8.21,22.83,8.24,22.87,8.51,23Z"/><path d="M31.57,23c.23,0,.28-.16.28-.37,0-.55,0-1.11,0-1.67,0-.29,0-.32-.3-.39h2v.72c-.15-.61-.61-.6-1.11-.55v.93c.3.06.37,0,.58-.53v1.24h0a1.38,1.38,0,0,0-.16-.39,1.45,1.45,0,0,0-.4-.24c0,.37,0,.65,0,.94,0,.07.12.17.2.18a.85.85,0,0,0,1-.58s0,0,.08-.07l-.11.77Z"/><path d="M21.85,22.19l-.1.76H19.66c.23,0,.29-.16.29-.38,0-.56,0-1.12,0-1.69,0-.21-.06-.34-.29-.36h2v.67c-.12-.14-.23-.36-.41-.45a2.48,2.48,0,0,0-.7-.09v1c.31,0,.36,0,.57-.58v1.28c-.11-.26-.15-.59-.58-.54v.84c0,.14.08.2.22.21a.89.89,0,0,0,1-.59S21.81,22.22,21.85,22.19Z"/><path d="M30.64,20.51h.64c-.27.08-.27.31-.27.53v1.74c0,.07,0,.13,0,.27L29.28,21c0,.09,0,.14,0,.18v1.3c0,.33,0,.38.34.49h-.8c.3-.1.34-.16.34-.48,0-.49,0-1,0-1.46,0-.25-.1-.39-.38-.5.31,0,.57,0,.82,0a.31.31,0,0,1,.16.12l1,1.23.12.13c0-.43,0-.82,0-1.21C30.85,20.68,30.71,20.59,30.64,20.51Z"/><path d="M24.3,23.05,22.57,21c0,.59,0,1.12,0,1.65,0,.2.14.29.32.33h-.79c.3-.11.33-.16.33-.48,0-.49,0-1,0-1.46a.49.49,0,0,0-.32-.5c.25,0,.5,0,.76,0a.36.36,0,0,1,.16.12l1,1.23.13.13c0-.43,0-.82,0-1.21,0-.1-.14-.19-.21-.26h.71c-.36.08-.34.32-.34.54v1.72C24.32,22.85,24.31,22.91,24.3,23.05Z"/><path d="M26.29,20.7v2c0,.2.13.26.29.28h-1.2c.29-.08.31-.11.32-.42V20.86a.78.78,0,0,0,0-.16c-.44-.08-.54,0-.8.49v-.67h2.2v.63A.6.6,0,0,0,26.29,20.7Z"/><path d="M19.39,22.09,19.3,23H17.16c.25,0,.29-.19.29-.41,0-.54,0-1.07,0-1.61,0-.21,0-.4-.3-.42h1.21c-.09,0-.22.07-.27.14A.66.66,0,0,0,18,21c0,.5,0,1,0,1.5,0,.29,0,.32.31.32.63,0,.71-.05.95-.64l0-.07Z"/><path d="M16.9,23H15.84c.08-.05.19-.07.22-.13a.49.49,0,0,0,0-.26c-.13-.33-.13-.33-.47-.33h-.26c-.3,0-.43.12-.46.43s.14.23.27.28h-.66a5.6,5.6,0,0,0,.3-.48c.31-.66.61-1.33.94-2l.14.3.83,1.83A3.22,3.22,0,0,0,16.9,23Zm-1.46-1.7-.36.81h.72Z"/><path d="M10.63,23H9.34a.64.64,0,0,0,.26-.13.75.75,0,0,0,.05-.31,1.27,1.27,0,0,0-.2-.84c-.17-.26-.3-.54-.45-.81a3.3,3.3,0,0,0-.28-.35h1c-.22,0-.22.16-.13.33.17.32.34.64.54,1,.19-.32.37-.6.53-.9s.13-.29-.15-.42h.62c-.13.18-.27.37-.4.57s-.17.29-.27.43a1.39,1.39,0,0,0-.26,1C10.26,22.87,10.24,22.87,10.63,23Z"/><path d="M14,20.51h.7a4.15,4.15,0,0,0-.76,1.38c-.19.36-.35.74-.54,1.16l-.18-.37c-.27-.62-.53-1.23-.81-1.84a1.77,1.77,0,0,0-.21-.32h1.05c-.29.07-.31.11-.19.39s.37.85.58,1.33c.22-.5.43-.94.61-1.4C14.33,20.63,14.15,20.57,14,20.51Z"/><path d="M27.37,20.51h1.18c-.08,0-.19.07-.24.14a.43.43,0,0,0-.06.28v1.65c0,.26.05.31.31.38H27.37c.25,0,.29-.18.29-.4q0-.82,0-1.65C27.66,20.7,27.64,20.52,27.37,20.51Z"/><path d="M21.19,8a3,3,0,0,1,.12-.36.43.43,0,0,1,.4-.27.41.41,0,0,1,.41.27.77.77,0,0,1,0,.75.44.44,0,0,1-.41.27.45.45,0,0,1-.4-.28A3.4,3.4,0,0,1,21.19,8Z"/><path d="M15.72,8.06a1.73,1.73,0,0,1-.07.31.48.48,0,0,1-.45.33.41.41,0,0,1-.41-.33,1.26,1.26,0,0,1,0-.61.42.42,0,0,1,.44-.35.46.46,0,0,1,.43.34A1.55,1.55,0,0,1,15.72,8.06Z"/></g><g class="cls-3"><path d="M13.71,19.3c-.15.16-.23.41-.52.27.12-.18.25-.35.36-.52a5.69,5.69,0,0,1,1.8-1.82c.16-.09.07-.2,0-.36-.44.06-.89.08-1.33.17-.64.13-1.27.3-1.91.46-.1,0-.24.06-.1.22a.3.3,0,0,1,0,.21,1,1,0,0,1-.08.28c-.12.29-.17.55.17.76a.6.6,0,0,1,.32.61h-.21a1,1,0,0,0-.51-.6.28.28,0,0,1-.15-.33,1.5,1.5,0,0,1,.06-.29.94.94,0,0,0,.05-.77c-.06-.16,0-.22.15-.26l.7-.23a6.92,6.92,0,0,1-.28-.88,3.58,3.58,0,0,1,.31-2.16,7.3,7.3,0,0,1,1.27-1.94L14,12c-.25-.27-.5-.51-.72-.78a4.56,4.56,0,0,1-1-2.42,8.71,8.71,0,0,1,0-2.28.39.39,0,0,0-.09-.22,3,3,0,0,1-.84-2.66,2,2,0,0,1,.92-1.25,3.75,3.75,0,0,1,2-.6,2.24,2.24,0,0,1,1.64.8.32.32,0,0,0,.22.08,6.35,6.35,0,0,1,4.19.21l.15,0a1.82,1.82,0,0,1,1.21-.78,2.28,2.28,0,0,1,1.34.17,8.37,8.37,0,0,1,1.38.76,1.67,1.67,0,0,1,.65,1.63,3.69,3.69,0,0,1-.78,2,.55.55,0,0,0-.05.17c0,.65-.06,1.3-.07,2a1.53,1.53,0,0,0,.12.4c.06-.1.11-.16.1-.2-.06-.22.09-.26.24-.27a4.63,4.63,0,0,1,.65,0c1,.16,1.92.31,2.87.51A5.19,5.19,0,0,1,29.8,10a.42.42,0,0,1,.23.44c-.08.42-.17.84-.25,1.26a2.73,2.73,0,0,0-.05.4c.28,0,.38.14.41.42a3.5,3.5,0,0,1-.25,1.6,1.3,1.3,0,0,1-.15.2s-.07,0-.07.07c0,.51-.39.77-.74,1a1.56,1.56,0,0,1-1.19.25l-.2,0-.35.5a1.81,1.81,0,0,1-.09.37,2.18,2.18,0,0,1-1.4,1.08,2,2,0,0,1-1.2-.1,2.3,2.3,0,0,1-.39-.29.7.7,0,0,0-.19.14,2,2,0,0,1-.87.65.27.27,0,0,0-.11.47,3.23,3.23,0,0,1,.54,1.1c-.16.06-.26.05-.32-.14s-.17-.38-.25-.57h-.05l-.09.71h-.24l.08-1.38a3.41,3.41,0,0,1-.85,0,3.84,3.84,0,0,1-1.59-.88.57.57,0,0,0-.33-.13A12.86,12.86,0,0,1,17,16.85c-.07,0-.17.07-.24.1a4.54,4.54,0,0,1,.38.44c.22.29.42.6.63.9.1.14.07.24-.07.34s-.35.17-.41.39a.34.34,0,0,1-.21,0,1.84,1.84,0,0,1-.78-1.35.28.28,0,0,0-.06-.13,1.13,1.13,0,0,0-.12.21c-.1.27-.16.54-.27.8a1.33,1.33,0,0,1-.82.91H15c0-.19-.13-.16-.26-.16a.53.53,0,0,1-.35-.12s0-.22.09-.31.32-.41.49-.61c-.31-.07-.41,0-.56.16a1.79,1.79,0,0,0-.37.51,2.47,2.47,0,0,0,0,.67h-.21Zm4.61-6.71,0-.05a3.35,3.35,0,0,1-1.4-.26A2.63,2.63,0,0,1,15,9.89a2.51,2.51,0,0,1,1.76-2.76,4.44,4.44,0,0,1,2.65,0,2.47,2.47,0,0,1,1.78,1.82q0,.12.06.27C22,8.26,23,8.37,24,8.67A7.86,7.86,0,0,0,24,6.85c0-.06-.08-.11-.11-.17A2.73,2.73,0,0,1,23.51,6a1.32,1.32,0,0,0-.32-.62,4.84,4.84,0,0,0-.74-.76c-.56-.42-1.16-.79-1.74-1.18-.14-.1-.25-.26-.4-.32a6.16,6.16,0,0,0-3.65-.31,1.77,1.77,0,0,0-.52.17,6.58,6.58,0,0,1-1.56,1s0,0-.06.05a6.75,6.75,0,0,0-1.23,1.44,1.63,1.63,0,0,1-.6.77.33.33,0,0,0-.08.18,8,8,0,0,0-.08,2.34,4.18,4.18,0,0,0,1.06,2.49,5.53,5.53,0,0,0,4.51,1.52C18.18,12.73,18.25,12.64,18.32,12.59ZM20.15,11h0l-.08.06A11.1,11.1,0,0,0,16.85,16a.46.46,0,0,0,.36.68l.27.06a18.65,18.65,0,0,0,4.09.19l.63,0c-.21-.28-.41-.53-.58-.8a.53.53,0,0,1,0-.65.25.25,0,0,0,.06-.13c0-.25,0-.5-.05-.75,0-.4-.06-.81-.07-1.22a.24.24,0,0,0-.17-.24A1.68,1.68,0,0,1,20.32,12C20.24,11.65,20.21,11.34,20.15,11Zm.69-.89a1.8,1.8,0,0,0,.16-.5,2.17,2.17,0,0,0-1.47-2.18,4,4,0,0,0-2.66-.07,2.15,2.15,0,0,0-1.6,2.07,2.28,2.28,0,0,0,.7,2,3.54,3.54,0,0,0,2.26.87.61.61,0,0,0,.61-.39c-.21-.15-.41-.31-.62-.44a.23.23,0,0,0-.2,0c-.19.11-.36.24-.55.36a.2.2,0,0,1-.18,0l-.92-.62.25-.33.38.26c.31.22.31.22.62,0a.46.46,0,0,0,0-.79l-.9-.74c.12-.15.21-.29.33-.42a.26.26,0,0,1,.19-.09H19a.21.21,0,0,1,.15.07c.1.14.19.3.29.46-.33.26-.65.51-1,.78a.41.41,0,0,0-.13.24.44.44,0,0,0,.29.54c.05,0,.09.08.14.09a.34.34,0,0,0,.2,0c.19-.12.38-.26.57-.4l.18.18a3,3,0,0,0,.48-.54A.65.65,0,0,1,20.84,10.12Zm-5.78,6.49-.54-.05-1.27-.08a.34.34,0,0,1-.23-.14.44.44,0,0,1,.09-.28c0-.07.13-.12.19-.18l-.09-.2c.92-.41,1.62.19,2.4.45,0,0,0-.07,0-.09-.19-.41-.38-.81-.58-1.22-.08-.16-.17-.32-.24-.49a.24.24,0,0,1,.1-.18c.19-.06.39-.1.59-.15a.32.32,0,0,1,.36.15,2.75,2.75,0,0,0,.22.26l.06,0,.07-.7.72-.17,0-.08c-1.33-.79-2.5-.28-3.62.54l-.16-.19a4,4,0,0,1,2.59-1l-1.51-.66A6.45,6.45,0,0,0,12.57,15a2.69,2.69,0,0,0,.21,1.93A.18.18,0,0,0,13,17Zm.82-13.74A2,2,0,0,0,14.39,2a3.43,3.43,0,0,0-2,.6,1.75,1.75,0,0,0-.77,1.1,2.88,2.88,0,0,0,.77,2.36l.45-.36c-.65-.75-.73-1.29-.3-1.83a1.57,1.57,0,0,1,.95-.62,1.36,1.36,0,0,1,1.19.37Zm6,1a3.7,3.7,0,0,1,.65-.34,1.29,1.29,0,0,1,1.39.53,1.1,1.1,0,0,1,0,1.6.36.36,0,0,0,0,.53,1.27,1.27,0,0,0,.13.19c.09.14.17.13.27,0a3.63,3.63,0,0,0,.59-1.52A1.63,1.63,0,0,0,24,3c-.25-.13-.49-.28-.75-.39A2.7,2.7,0,0,0,22,2.37a1.52,1.52,0,0,0-1.22.76ZM25.26,9l0,.06c.2.26.4.51.58.77s.27.4.57.25a.48.48,0,0,1,.29,0,2.31,2.31,0,0,1,.66.35,2,2,0,0,0,1.38.5,1,1,0,0,1,.76.39.39.39,0,0,1,.06.13l.09-.05c.06-.33.12-.66.16-1a.32.32,0,0,0-.12-.22c-.23-.14-.47-.28-.72-.4a7.56,7.56,0,0,0-2.19-.59Zm.09,6.15a1.55,1.55,0,0,1-.19.24.94.94,0,0,1-1.2.23,1.29,1.29,0,0,1-.71-.77c-.07-.25-.1-.52-.15-.76a1.27,1.27,0,0,0-.18.75,1.42,1.42,0,0,0,.94,1.56,2.45,2.45,0,0,0,1.23.1.52.52,0,0,0,.33-.16A1,1,0,0,0,25.35,15.16ZM21.17,10c.33.29.4.28.72,0a4.89,4.89,0,0,1,.74-.55.65.65,0,0,1,.67-.05.5.5,0,0,0,.55-.06c.27-.17.27-.26,0-.41a2.17,2.17,0,0,0-1.39-.21,1.32,1.32,0,0,0-1.07.82C21.32,9.72,21.25,9.87,21.17,10Zm2.61,2.62a1.87,1.87,0,0,0-1.48.55c-.6.52-.48,1.14-.3,1.79.43,0,.5,0,.57-.45a4.15,4.15,0,0,1,.24-.78.79.79,0,0,1,.58-.48A.52.52,0,0,0,23.78,12.65Zm0-.54-.23.08a1,1,0,0,1-1.28-.65,1.52,1.52,0,0,1,.26-1.45l.1-.14a1.9,1.9,0,0,0-1.08,1.48,1.48,1.48,0,0,0,.77,1.4,2.25,2.25,0,0,1,1.44-.47Zm2.09,4.06a1.89,1.89,0,0,0,.51-2,.68.68,0,0,0-.33-.32,1.42,1.42,0,0,0-1.1.27A1.77,1.77,0,0,1,25.89,16.17ZM25,10.76a1.25,1.25,0,0,0-1.09-.9,1.34,1.34,0,0,0-1.22.75A1.06,1.06,0,0,0,23,11.68l-.06-.19a.6.6,0,0,1,.52-.87,2.84,2.84,0,0,1,.77,0A8,8,0,0,1,25,10.76Zm.53,2.62a1.34,1.34,0,0,0-1.52,0,1.27,1.27,0,0,0-.44,1.28,1,1,0,0,0,.8.65l-.12-.09a.62.62,0,0,1,0-1.08,3.88,3.88,0,0,1,.67-.44A6.18,6.18,0,0,1,25.54,13.38Zm-3.89-.54,0-.09a1.52,1.52,0,0,1-.6-.91.86.86,0,0,1,.19-.94,1.75,1.75,0,0,0,.19-.27c-.2-.08-.37-.17-.55-.23a.3.3,0,0,0-.42.25,2.22,2.22,0,0,0,0,.63,1.58,1.58,0,0,0,.81,1.43A1.71,1.71,0,0,0,21.65,12.84Zm2.4,4.07a2.22,2.22,0,0,1-1.14-.52.77.77,0,0,1-.31-.71c0-.36,0-.38-.35-.31l-.22.05c-.26.1-.33.27-.18.5a4.66,4.66,0,0,0,.6.73,1.47,1.47,0,0,0,1.34.39A1.05,1.05,0,0,0,24.05,16.91Zm-2.61.24.13.38c.17.45.28.51.77.41l.12,0a2.62,2.62,0,0,0,1.08-.54l-.93-.28-.1,0Zm5.43-3h.07c0-.21,0-.43,0-.64a1,1,0,0,0-.88-.93,3.13,3.13,0,0,1-1.44-.36s-.16,0-.18,0a2.22,2.22,0,0,0-.21.37,10.47,10.47,0,0,1,1,.14A1.75,1.75,0,0,1,26.87,14.13Zm1.71.22a1.71,1.71,0,0,0,.5-1.35,1.41,1.41,0,0,0-.16-.49.42.42,0,0,0-.27-.18,1.29,1.29,0,0,0-.88.23A1.56,1.56,0,0,1,28.58,14.35Zm-1.78,2.1a.64.64,0,0,0-.72.19.84.84,0,0,1-.88.28,2.69,2.69,0,0,0-.4,0,.35.35,0,0,0-.37.25A1.71,1.71,0,0,0,26.8,16.45Zm-1-5.27c.5-.11.55-.19.36-.56a.93.93,0,0,0-.13-.15,10.22,10.22,0,0,1-.88-1c-.24-.36-.21-.38-.59-.16l-.09.07A3.16,3.16,0,0,1,25.81,11.18Zm1.34,0c1,.1,1.91.18,2.3,1.28a2.65,2.65,0,0,0,0-.56.88.88,0,0,0-.81-.72,6.94,6.94,0,0,1-1.11-.28c-.18-.06-.26,0-.33.11Zm-2,.92.45.1a.3.3,0,0,0,.34-.13.81.81,0,0,1,.37-.25.49.49,0,0,0,.38-.54A1.64,1.64,0,0,0,25.15,12.14Zm1.72.52,1.29-.76a1.07,1.07,0,0,0-1.44.22c-.17.24-.17.25.05.45ZM26.59,16c.36,0,.54-.08.63-.4a7.66,7.66,0,0,0,.21-.95,4.54,4.54,0,0,0,0-.64A9.49,9.49,0,0,0,26.59,16Zm-1.67-4c.07-.09.17-.19.25-.31a.27.27,0,0,0,0-.23,1.49,1.49,0,0,0-1-.42l.17.88Zm4.39,2.67a.54.54,0,0,0-.59.17.75.75,0,0,1-.76.26c-.33-.07-.33-.06-.39.28A1.45,1.45,0,0,0,29.31,14.64ZM18,13l-1.47-.09a4.08,4.08,0,0,1,.57.34,3.45,3.45,0,0,1,.42.51l.43-.68A.56.56,0,0,0,18,13Zm11.17,1.19c.34,0,.46-.06.54-.34s.13-.53.18-.8a4,4,0,0,0,0-.49h-.06Zm-1.05-.67-.38.35a.14.14,0,0,0-.05.1c0,.22,0,.45,0,.72.15-.07.34-.1.42-.22A.84.84,0,0,0,28.11,13.55Zm-.95-2.9a1.24,1.24,0,0,0-.81-.31,1.39,1.39,0,0,1,.12.34.39.39,0,0,0,.39.41h0Zm-3.6,1c.18-.13.25-.27.2-.41s-.16-.11-.25-.11-.19.11-.19.12S23.48,11.5,23.56,11.64Zm1.08,2.79-.21.24a2.91,2.91,0,0,0,.35.18s.15-.09.15-.13S24.9,14.45,24.64,14.43Zm.86-3,.05,0a1.22,1.22,0,0,0-.22-.71l-.06.48ZM27.26,13l0,.09a2.29,2.29,0,0,0,.36.07s.06-.1,0-.13-.1-.19-.14-.18A1,1,0,0,0,27.26,13Zm-.91.61,0-.06L26,13.23C25.88,13.65,26.23,13.52,26.35,13.65Zm2.24-1.6.31.06,0,0-.37-.29Z"/><path d="M8.17,22.61H7c.27,0,.28-.21.28-.42,0-.56,0-1.13,0-1.7l-1,2.17-1-2.2c0,.11,0,.16,0,.21v1.5c0,.3,0,.35.34.44H4.87c.24-.06.3-.23.29-.45,0-.55,0-1.09,0-1.63a.31.31,0,0,0-.29-.36c.29,0,.57,0,.85,0a.29.29,0,0,1,.15.14c.19.42.37.84.55,1.26,0,.07.07.13.11.23.22-.5.43-1,.62-1.45a.24.24,0,0,1,.27-.19c.24,0,.48,0,.74,0-.3,0-.29.23-.29.44v1.59C7.87,22.49,7.9,22.53,8.17,22.61Z"/><path d="M31.23,22.61c.23,0,.28-.16.28-.37,0-.55,0-1.11,0-1.67,0-.29,0-.32-.3-.39h2v.72c-.15-.61-.61-.6-1.11-.55v.93c.3.06.37,0,.58-.53V22h0a1.38,1.38,0,0,0-.16-.39,1.45,1.45,0,0,0-.4-.24c0,.37,0,.65,0,.94,0,.07.12.17.2.18a.85.85,0,0,0,1-.58s0,0,.08-.07l-.11.77Z"/><path d="M21.51,21.85l-.1.76H19.32c.23,0,.29-.16.29-.38,0-.56,0-1.12,0-1.69,0-.21-.06-.34-.29-.36h2v.67c-.12-.14-.23-.36-.41-.45a2.48,2.48,0,0,0-.7-.09v1c.31,0,.36,0,.57-.58V22c-.11-.26-.15-.59-.58-.54v.84c0,.14.08.2.22.21a.89.89,0,0,0,1-.59S21.47,21.88,21.51,21.85Z"/><path d="M30.3,20.17h.64c-.27.08-.27.31-.27.53v1.74c0,.07,0,.13,0,.27l-1.72-2.07c0,.09,0,.14,0,.18v1.3c0,.33,0,.38.34.49h-.8c.3-.1.33-.16.34-.48,0-.49,0-1,0-1.46,0-.25-.1-.39-.38-.5.31,0,.57,0,.82,0a.31.31,0,0,1,.16.12l1,1.23.12.13c0-.43,0-.82,0-1.21C30.51,20.34,30.37,20.25,30.3,20.17Z"/><path d="M24,22.71l-1.73-2.08c0,.59,0,1.12,0,1.65,0,.2.14.29.32.33h-.79c.3-.11.33-.16.33-.48,0-.49,0-1,0-1.46a.49.49,0,0,0-.32-.5c.25,0,.5,0,.76,0a.36.36,0,0,1,.16.12l1,1.23.13.13c0-.43,0-.82,0-1.21,0-.1-.14-.19-.21-.26h.71c-.36.08-.34.32-.34.54v1.72C24,22.51,24,22.57,24,22.71Z"/><path d="M26,20.36v2c0,.2.13.26.29.28H25c.29-.08.31-.11.32-.42V20.52a.78.78,0,0,0,0-.16c-.44-.08-.54,0-.8.49v-.67h2.2v.63A.6.6,0,0,0,26,20.36Z"/><path d="M19.05,21.75l-.09.86H16.82c.25,0,.29-.19.29-.41,0-.54,0-1.07,0-1.61,0-.21,0-.4-.3-.42H18c-.09,0-.22.07-.27.14a.66.66,0,0,0-.05.32q0,.75,0,1.5c0,.29,0,.32.31.32.63,0,.71-.05.95-.64l0-.07Z"/><path d="M16.56,22.62H15.5c.08-.05.19-.07.22-.13a.49.49,0,0,0,0-.26c-.13-.33-.13-.33-.48-.33H15c-.3,0-.43.12-.46.43s.13.23.27.28H14.1a5.6,5.6,0,0,0,.3-.48c.31-.66.61-1.33.94-2l.14.3.83,1.83A3.22,3.22,0,0,0,16.56,22.62Zm-1.46-1.7-.36.81h.72Z"/><path d="M10.29,22.61H9a.64.64,0,0,0,.26-.13.75.75,0,0,0,.05-.31,1.27,1.27,0,0,0-.2-.84c-.17-.26-.3-.54-.45-.81a3.3,3.3,0,0,0-.28-.35h1c-.23,0-.22.16-.13.33s.34.64.54,1c.19-.32.37-.6.53-.9s.13-.29-.15-.42h.62c-.13.18-.27.37-.4.57s-.17.29-.27.43a1.39,1.39,0,0,0-.26,1C9.92,22.53,9.9,22.53,10.29,22.61Z"/><path d="M13.65,20.17h.7a4.15,4.15,0,0,0-.76,1.38c-.19.36-.35.74-.54,1.16l-.18-.37c-.27-.62-.53-1.23-.81-1.84a1.77,1.77,0,0,0-.21-.32H12.9c-.29.07-.31.11-.19.39s.37.85.58,1.33c.22-.5.43-.94.61-1.4C14,20.29,13.81,20.23,13.65,20.17Z"/><path d="M27,20.17h1.18c-.08,0-.19.07-.24.14a.43.43,0,0,0-.06.28v1.65c0,.26.05.31.31.38H27c.25,0,.29-.18.29-.4q0-.82,0-1.65C27.32,20.36,27.3,20.18,27,20.17Z"/><path d="M20.85,7.7A3,3,0,0,1,21,7.34a.43.43,0,0,1,.4-.27.41.41,0,0,1,.41.27.77.77,0,0,1,0,.75.44.44,0,0,1-.41.27.45.45,0,0,1-.4-.28A3.4,3.4,0,0,1,20.85,7.7Z"/><path d="M15.38,7.72a1.73,1.73,0,0,1-.07.31.48.48,0,0,1-.45.33A.41.41,0,0,1,14.45,8a1.26,1.26,0,0,1,0-.61.42.42,0,0,1,.44-.35.46.46,0,0,1,.43.34A1.55,1.55,0,0,1,15.38,7.72Z"/></g><path class="cls-4" d="M13.91,19.49c-.15.17-.23.42-.52.27l.36-.51a5.69,5.69,0,0,1,1.8-1.82c.16-.1.07-.2,0-.36-.44.05-.89.08-1.33.17-.64.13-1.27.3-1.91.46-.1,0-.24.06-.1.22a.3.3,0,0,1,0,.21,1,1,0,0,1-.08.28c-.12.29-.17.55.17.76a.59.59,0,0,1,.32.61h-.22a1,1,0,0,0-.5-.6.28.28,0,0,1-.15-.33.94.94,0,0,1,.06-.29,1,1,0,0,0,.05-.77c-.06-.17,0-.22.15-.26l.7-.23a7.46,7.46,0,0,1-.28-.88,3.51,3.51,0,0,1,.31-2.16,7.15,7.15,0,0,1,1.27-1.94l.11-.13c-.25-.27-.5-.51-.72-.78a4.58,4.58,0,0,1-1-2.42,9.66,9.66,0,0,1,0-2.28.32.32,0,0,0-.08-.22,3,3,0,0,1-.84-2.66,2,2,0,0,1,.92-1.25,3.83,3.83,0,0,1,2-.61,2.29,2.29,0,0,1,1.65.81.27.27,0,0,0,.22.07,6.41,6.41,0,0,1,4.19.22l.15.05A1.87,1.87,0,0,1,22,2.33a2.31,2.31,0,0,1,1.35.18,7.7,7.7,0,0,1,1.38.76,1.67,1.67,0,0,1,.65,1.63,3.77,3.77,0,0,1-.78,2,.25.25,0,0,0-.05.17c0,.65-.06,1.3-.07,1.94a1.33,1.33,0,0,0,.12.41c.05-.11.11-.16.1-.2-.07-.23.08-.26.24-.27a4.63,4.63,0,0,1,.65,0c1,.16,1.92.31,2.87.51A4.85,4.85,0,0,1,30,10.2a.42.42,0,0,1,.23.44c-.08.42-.17.84-.25,1.26a2.73,2.73,0,0,0-.05.4c.27,0,.38.13.41.42a3.52,3.52,0,0,1-.25,1.6,1.3,1.3,0,0,1-.15.2s-.07.05-.07.07c0,.51-.4.76-.74,1a1.56,1.56,0,0,1-1.19.26l-.21,0-.34.5a1.29,1.29,0,0,1-.1.37,2.14,2.14,0,0,1-1.39,1.08,2.09,2.09,0,0,1-1.21-.1,2.26,2.26,0,0,1-.38-.29.44.44,0,0,0-.19.14,2,2,0,0,1-.87.64.28.28,0,0,0-.11.48,3.06,3.06,0,0,1,.54,1.1c-.16.06-.26,0-.32-.14s-.17-.38-.25-.57h-.06l-.08.71h-.24l.08-1.38a3,3,0,0,1-.85,0,3.82,3.82,0,0,1-1.59-.87.57.57,0,0,0-.33-.13A12.87,12.87,0,0,1,17.21,17c-.07,0-.17.08-.24.11.15.17.28.29.38.43.22.3.42.61.63.91.1.14.07.24-.07.33s-.35.18-.42.4a.41.41,0,0,1-.2,0,1.87,1.87,0,0,1-.79-1.35.17.17,0,0,0-.05-.13,2.39,2.39,0,0,0-.13.21c-.09.27-.15.54-.26.8a1.33,1.33,0,0,1-.82.91h-.08c0-.18-.13-.15-.26-.15a.59.59,0,0,1-.35-.12s0-.23.09-.31a7.26,7.26,0,0,1,.49-.61c-.31-.07-.41-.05-.56.16a1.79,1.79,0,0,0-.37.51,2.46,2.46,0,0,0,0,.67H14Zm4.61-6.7,0,0a3.35,3.35,0,0,1-1.4-.26,2.63,2.63,0,0,1-1.9-2.4A2.51,2.51,0,0,1,17,7.33a4.44,4.44,0,0,1,2.65,0,2.46,2.46,0,0,1,1.78,1.81l.06.28c.77-.95,1.72-.84,2.73-.54A8,8,0,0,0,24.23,7s-.08-.1-.11-.16a2.47,2.47,0,0,1-.41-.69,1.4,1.4,0,0,0-.32-.63,5.83,5.83,0,0,0-.74-.75c-.56-.42-1.16-.79-1.74-1.19-.14-.09-.25-.25-.4-.31A6.17,6.17,0,0,0,16.86,3a1.77,1.77,0,0,0-.52.17,7,7,0,0,1-1.56,1s0,0-.06.06a6.3,6.3,0,0,0-1.23,1.44,1.63,1.63,0,0,1-.6.77c-.05,0-.07.12-.08.18a8,8,0,0,0-.08,2.34,4.18,4.18,0,0,0,1.06,2.49,5.53,5.53,0,0,0,4.51,1.52C18.38,12.93,18.45,12.84,18.52,12.79Zm1.83-1.58h0l-.08.07a11,11,0,0,0-3.21,4.86.46.46,0,0,0,.36.68l.27.07a18.65,18.65,0,0,0,4.09.19l.63,0c-.21-.28-.41-.53-.59-.8a.54.54,0,0,1,0-.65.25.25,0,0,0,.06-.13c0-.25,0-.5-.05-.75,0-.4-.06-.81-.08-1.22a.22.22,0,0,0-.17-.24,1.69,1.69,0,0,1-1.06-1.1C20.44,11.85,20.41,11.53,20.35,11.21Zm.69-.89a1.8,1.8,0,0,0,.16-.5,2.18,2.18,0,0,0-1.47-2.18,4,4,0,0,0-2.66-.07,2.12,2.12,0,0,0-1.6,2.07,2.3,2.3,0,0,0,.69,2,3.56,3.56,0,0,0,2.27.87A.61.61,0,0,0,19,12.1c-.21-.15-.41-.31-.63-.45a.21.21,0,0,0-.19,0l-.55.37a.2.2,0,0,1-.18,0l-.92-.62.25-.34.38.27c.31.22.31.22.62,0a.46.46,0,0,0,0-.79l-.9-.74c.12-.16.21-.3.32-.42a.31.31,0,0,1,.2-.09h1.76a.21.21,0,0,1,.15.07c.1.14.19.3.29.46-.33.26-.66.51-1,.78a.46.46,0,0,0-.12.24.44.44,0,0,0,.28.54s.09.08.14.09a.33.33,0,0,0,.2,0c.2-.12.39-.26.58-.4l.18.18a3.39,3.39,0,0,0,.48-.54A.65.65,0,0,1,21,10.32Zm-5.78,6.49-.54,0c-.42,0-.85-.05-1.27-.09a.3.3,0,0,1-.23-.13.39.39,0,0,1,.09-.28.65.65,0,0,1,.19-.18l-.09-.2c.92-.41,1.62.18,2.4.45,0,0,0-.07,0-.09-.19-.41-.39-.82-.58-1.22a4.44,4.44,0,0,1-.24-.49s.05-.16.1-.18.39-.1.59-.15a.3.3,0,0,1,.36.15c.06.09.15.17.22.26l.06,0,.07-.69.72-.17,0-.08c-1.34-.79-2.5-.28-3.62.54L13.32,14a4,4,0,0,1,2.59-1l-1.52-.66a6.53,6.53,0,0,0-1.62,2.82A2.69,2.69,0,0,0,13,17.08c0,.1.09.14.22.12Zm.82-13.75a2,2,0,0,0-1.49-.83,3.43,3.43,0,0,0-2,.6,1.75,1.75,0,0,0-.77,1.1,2.82,2.82,0,0,0,.77,2.36l.45-.36c-.65-.75-.73-1.29-.3-1.83a1.53,1.53,0,0,1,.95-.62,1.34,1.34,0,0,1,1.18.37Zm6,1a3.13,3.13,0,0,1,.65-.34,1.26,1.26,0,0,1,1.39.53,1.08,1.08,0,0,1,0,1.59.37.37,0,0,0,0,.54,1.27,1.27,0,0,0,.13.19c.09.14.17.13.27,0a3.77,3.77,0,0,0,.59-1.52,1.63,1.63,0,0,0-.85-1.82c-.25-.13-.49-.28-.75-.39a2.61,2.61,0,0,0-1.29-.27,1.56,1.56,0,0,0-1.23.76Zm3.39,5.14,0,.06c.19.25.4.5.58.77s.27.4.57.25a.37.37,0,0,1,.29,0,2.08,2.08,0,0,1,.66.35,2,2,0,0,0,1.38.5,1,1,0,0,1,.76.39.39.39,0,0,1,.06.13l.09,0c.05-.33.12-.66.15-1a.28.28,0,0,0-.11-.22c-.23-.14-.47-.28-.72-.4a7.56,7.56,0,0,0-2.19-.59Zm.09,6.15-.19.24a.94.94,0,0,1-1.2.23,1.27,1.27,0,0,1-.71-.78c-.07-.24-.1-.51-.15-.76a1.3,1.3,0,0,0-.18.76,1.43,1.43,0,0,0,.93,1.56,2.48,2.48,0,0,0,1.24.09.47.47,0,0,0,.33-.15A1,1,0,0,0,25.55,15.36Zm-4.18-5.14c.33.3.4.28.72,0a5.6,5.6,0,0,1,.74-.54.65.65,0,0,1,.67,0,.5.5,0,0,0,.55-.06c.27-.17.27-.26,0-.41A2.1,2.1,0,0,0,22.65,9a1.31,1.31,0,0,0-1.07.82C21.52,9.92,21.45,10.06,21.37,10.22ZM24,12.85a1.83,1.83,0,0,0-1.48.55c-.6.52-.48,1.14-.3,1.78.43.05.5,0,.57-.44A4.15,4.15,0,0,1,23,14a.79.79,0,0,1,.58-.48A.54.54,0,0,0,24,12.85Zm0-.54-.23.08a1,1,0,0,1-1.28-.65,1.51,1.51,0,0,1,.26-1.46l.1-.14a2,2,0,0,0-1.09,1.49,1.51,1.51,0,0,0,.78,1.4A2.25,2.25,0,0,1,24,12.56Zm2.09,4.06a1.89,1.89,0,0,0,.51-2,.68.68,0,0,0-.33-.32,1.46,1.46,0,0,0-1.1.26A1.78,1.78,0,0,1,26.09,16.37ZM25.21,11a1.25,1.25,0,0,0-1.09-.9,1.33,1.33,0,0,0-1.22.75,1.06,1.06,0,0,0,.24,1.07l-.05-.19c-.14-.47,0-.79.51-.87a3.39,3.39,0,0,1,.78,0C24.66,10.84,24.93,10.91,25.21,11Zm.52,2.62a1.31,1.31,0,0,0-1.51,0,1.27,1.27,0,0,0-.44,1.28,1,1,0,0,0,.8.65l-.12-.1a.61.61,0,0,1,0-1.07,4.39,4.39,0,0,1,.68-.44C25.3,13.75,25.52,13.67,25.73,13.58ZM21.84,13l0-.08a1.55,1.55,0,0,1-.59-.92.85.85,0,0,1,.19-.93,1.26,1.26,0,0,0,.18-.27,3.49,3.49,0,0,0-.54-.23.29.29,0,0,0-.42.25,2.67,2.67,0,0,0,0,.63,1.61,1.61,0,0,0,.82,1.43A2.65,2.65,0,0,0,21.84,13Zm2.41,4.08a2.18,2.18,0,0,1-1.14-.52.78.78,0,0,1-.31-.72c.05-.35,0-.37-.35-.3l-.22,0c-.26.1-.34.27-.18.5a4.66,4.66,0,0,0,.6.73,1.47,1.47,0,0,0,1.34.39A1.05,1.05,0,0,0,24.25,17.11Zm-2.61.24.13.37c.17.46.28.52.77.42l.12,0a2.82,2.82,0,0,0,1.08-.54l-.93-.28s-.07,0-.1,0Zm5.43-3h.07c0-.21,0-.43,0-.64a1,1,0,0,0-.88-.94,3,3,0,0,1-1.45-.35.19.19,0,0,0-.18,0c-.08.12-.13.25-.2.38a8.16,8.16,0,0,1,1,.14A1.75,1.75,0,0,1,27.07,14.33Zm1.71.22a1.74,1.74,0,0,0,.5-1.35,1.41,1.41,0,0,0-.16-.49.42.42,0,0,0-.27-.18,1.27,1.27,0,0,0-.88.22A1.59,1.59,0,0,1,28.78,14.55ZM27,16.65a.64.64,0,0,0-.72.19.84.84,0,0,1-.88.28,1.8,1.8,0,0,0-.4,0,.35.35,0,0,0-.37.24A1.71,1.71,0,0,0,27,16.65Zm-1-5.28c.5-.1.55-.19.36-.55a.66.66,0,0,0-.14-.15,11.75,11.75,0,0,1-.87-1c-.24-.35-.21-.37-.59-.15l-.1.07A3.19,3.19,0,0,1,26,11.37Zm1.34.05c1,.1,1.91.18,2.3,1.27a2,2,0,0,0,0-.55.88.88,0,0,0-.8-.73,6,6,0,0,1-1.11-.27c-.18-.06-.26-.05-.33.11Zm-2,.92.45.1a.3.3,0,0,0,.34-.13.81.81,0,0,1,.37-.25.5.5,0,0,0,.38-.55A1.67,1.67,0,0,0,25.35,12.34Zm1.72.52,1.29-.76a1.07,1.07,0,0,0-1.44.22c-.17.24-.17.25,0,.45Zm-.28,3.34c.36,0,.54-.08.63-.4a7.66,7.66,0,0,0,.21-1,4.55,4.55,0,0,0,0-.64A9.49,9.49,0,0,0,26.79,16.2Zm-1.68-4a2.24,2.24,0,0,0,.26-.32.24.24,0,0,0,0-.22,1.45,1.45,0,0,0-1-.42l.17.88Zm4.39,2.67a.51.51,0,0,0-.58.17.75.75,0,0,1-.76.25c-.33-.06-.33-.06-.39.29A1.43,1.43,0,0,0,29.5,14.84ZM18.19,13.22l-1.47-.08a3.3,3.3,0,0,1,.57.34,4.22,4.22,0,0,1,.42.51l.43-.68A.36.36,0,0,0,18.19,13.22Zm11.17,1.2c.33,0,.46-.06.54-.34s.13-.53.18-.8a4,4,0,0,0,0-.49H30Zm-1.05-.67-.38.34a.16.16,0,0,0-.05.11c0,.22,0,.45,0,.72.15-.07.34-.11.41-.22A.83.83,0,0,0,28.31,13.75Zm-.95-2.9a1.24,1.24,0,0,0-.81-.31,1.39,1.39,0,0,1,.12.34.4.4,0,0,0,.39.41h0Zm-3.6,1c.18-.13.25-.27.19-.42s-.16-.1-.24-.11-.19.12-.19.13S23.68,11.7,23.76,11.84Zm1.08,2.79-.21.24a2.91,2.91,0,0,0,.35.18s.15-.09.14-.13S25.1,14.65,24.84,14.63Zm.86-3,.05,0a1.3,1.3,0,0,0-.22-.71l-.07.48Zm1.76,1.64,0,.1.36.07a.22.22,0,0,0,0-.13c0-.07-.11-.19-.14-.18A1,1,0,0,0,27.46,13.23Zm-.91.62,0-.06-.41-.36C26.08,13.85,26.43,13.72,26.55,13.85Zm2.24-1.6.31.06,0,0L28.75,12Z"/><path class="cls-4" d="M8.37,22.81H7.2c.27,0,.28-.21.28-.42,0-.56,0-1.13-.05-1.7l-.94,2.17-1-2.2c0,.11,0,.16,0,.21,0,.5,0,1,0,1.5,0,.29,0,.35.34.44H5.07c.24-.06.29-.23.29-.46q0-.81,0-1.62c0-.21-.08-.33-.29-.36.28,0,.57,0,.85,0,0,0,.12.08.15.14.19.42.37.84.55,1.26l.11.23c.22-.51.42-1,.62-1.45a.24.24,0,0,1,.27-.19c.24,0,.48,0,.74,0-.31,0-.3.23-.29.44v1.59C8.07,22.69,8.1,22.73,8.37,22.81Z"/><path class="cls-4" d="M31.43,22.8c.22,0,.28-.15.28-.36,0-.55,0-1.11,0-1.67,0-.29,0-.32-.3-.4h2v.73c-.15-.61-.61-.6-1.11-.56v.94c.3.06.37,0,.58-.53v1.24h0a1.31,1.31,0,0,0-.17-.4,2.07,2.07,0,0,0-.39-.24c0,.37,0,.66,0,1,0,.07.12.17.2.18a.86.86,0,0,0,1-.58s0,0,.08-.07l-.11.76Z"/><path class="cls-4" d="M21.71,22.05l-.11.76H19.52c.23,0,.29-.16.29-.38,0-.56,0-1.13,0-1.69,0-.21-.07-.34-.29-.36h2v.67c-.12-.14-.23-.36-.41-.45a2,2,0,0,0-.7-.09v1c.31.05.36,0,.57-.57v1.28c-.11-.26-.15-.59-.58-.55v.85c0,.13.08.2.22.21a.89.89,0,0,0,1-.59S21.67,22.08,21.71,22.05Z"/><path class="cls-4" d="M30.5,20.37h.64c-.28.08-.27.31-.27.53v1.74c0,.07,0,.13,0,.26l-1.72-2.06c0,.09,0,.13,0,.18v1.29c0,.34,0,.39.34.5h-.8c.3-.11.33-.16.33-.48,0-.49,0-1,0-1.46,0-.25-.1-.4-.38-.5.31,0,.57,0,.82,0,.06,0,.12.07.16.12.34.41.67.82,1,1.22l.12.14c0-.43,0-.82,0-1.21C30.71,20.54,30.57,20.45,30.5,20.37Z"/><path class="cls-4" d="M24.16,22.91l-1.73-2.09v1.66a.35.35,0,0,0,.32.33H22c.3-.11.33-.16.33-.48,0-.49,0-1,0-1.46a.47.47,0,0,0-.32-.5c.26,0,.51,0,.77,0,.05,0,.12.07.16.12l1,1.22.12.14c0-.43,0-.82,0-1.21,0-.1-.15-.19-.21-.26h.7c-.35.08-.33.31-.33.54v1.72C24.18,22.7,24.17,22.77,24.16,22.91Z"/><path class="cls-4" d="M26.15,20.55c0,.67,0,1.32,0,2,0,.2.13.26.3.28H25.23c.29-.08.32-.11.32-.42,0-.56,0-1.12,0-1.68a.92.92,0,0,0,0-.16c-.44-.07-.54,0-.8.5v-.67h2.2V21A.6.6,0,0,0,26.15,20.55Z"/><path class="cls-4" d="M19.25,22l-.09.86H17c.25,0,.29-.19.29-.41,0-.54,0-1.07,0-1.61,0-.21,0-.4-.29-.42h1.21c-.1,0-.22.06-.27.14a.66.66,0,0,0-.05.32c0,.5,0,1,0,1.5,0,.29,0,.32.32.32.63,0,.71,0,.95-.64a.43.43,0,0,1,0-.07Z"/><path class="cls-4" d="M16.76,22.81H15.7c.08,0,.19-.06.21-.12a.4.4,0,0,0,0-.26c-.13-.33-.13-.33-.48-.33h-.25c-.3,0-.43.12-.46.42s.13.24.27.29H14.3c.09-.15.21-.31.3-.48.31-.66.61-1.33.93-2,.06.12.11.21.15.3.28.61.54,1.22.82,1.83A3.19,3.19,0,0,0,16.76,22.81ZM15.3,21.12l-.36.81h.71Z"/><path class="cls-4" d="M10.49,22.81H9.2c.07,0,.2-.06.26-.14a.67.67,0,0,0,0-.3,1.32,1.32,0,0,0-.2-.84c-.17-.26-.3-.54-.46-.81a3.24,3.24,0,0,0-.27-.35h1c-.23,0-.23.16-.13.32.17.32.34.65.54,1,.19-.32.37-.61.53-.9s.13-.29-.15-.42H11l-.4.56c-.1.14-.17.3-.27.44a1.42,1.42,0,0,0-.27,1C10.12,22.73,10.1,22.73,10.49,22.81Z"/><path class="cls-4" d="M13.84,20.37h.71a4.36,4.36,0,0,0-.77,1.38c-.18.36-.34.74-.53,1.16a4.11,4.11,0,0,1-.18-.38c-.27-.61-.53-1.22-.81-1.83a1.81,1.81,0,0,0-.22-.32H13.1c-.29.07-.31.11-.19.39s.37.84.58,1.33c.22-.5.43-1,.61-1.4C14.19,20.48,14,20.43,13.84,20.37Z"/><path class="cls-4" d="M27.22,20.37H28.4c-.07,0-.19.07-.24.14a.5.5,0,0,0-.05.28q0,.83,0,1.65c0,.26.05.31.3.38H27.22c.26,0,.3-.19.3-.4q0-.83,0-1.65C27.52,20.56,27.49,20.38,27.22,20.37Z"/><path class="cls-4" d="M21.05,7.9a3,3,0,0,1,.12-.36.42.42,0,0,1,.39-.27.42.42,0,0,1,.42.27.77.77,0,0,1,0,.75.45.45,0,0,1-.42.27.45.45,0,0,1-.39-.28A2.11,2.11,0,0,1,21.05,7.9Z"/><path class="cls-4" d="M15.58,7.92a1.47,1.47,0,0,1-.08.3.45.45,0,0,1-.44.33.41.41,0,0,1-.42-.32,1.57,1.57,0,0,1,0-.61.43.43,0,0,1,.45-.35.46.46,0,0,1,.43.34A1.41,1.41,0,0,1,15.58,7.92Z"/></g></g></svg>