<svg xmlns="http://www.w3.org/2000/svg" viewBox="0 0 38.55 24.66"><defs><style>.cls-1{isolation:isolate;}.cls-2{opacity:0.15;}.cls-2,.cls-3{mix-blend-mode:multiply;}.cls-4{fill:#fff;}</style></defs><title>convert-FIX-SVG-03</title><g class="cls-1"><g id="Layer_1" data-name="Layer 1"><g class="cls-2"><path d="M1.17,12.3l.18-.12L19.16.92a.24.24,0,0,1,.32,0L37.29,12.18l.18.12-.18.13q-8.91,5.63-17.81,11.26a.26.26,0,0,1-.32,0L1.35,12.43Zm.72,0,.23.15,17,10.74a.3.3,0,0,0,.39,0l17-10.76.2-.14-.19-.13Q28,6.8,19.53,1.41a.33.33,0,0,0-.41,0l-15.84,10Z"/><path d="M33.15,20.42a2,2,0,0,1,.07-.23,1,1,0,0,1,1.94.39,1.28,1.28,0,0,1-.22.51A4.31,4.31,0,0,0,34.17,23c-.17-.42-.53-.37-.85-.42a7.15,7.15,0,0,1-1.12-.22.94.94,0,0,1-.71-.92,1.17,1.17,0,0,1,.59-1.1.93.93,0,0,1,.86,0Z"/><path d="M11.32,5.1a.64.64,0,0,0-.62-.39,10.21,10.21,0,0,1-1.36-.26.92.92,0,0,1-.69-.91,1.13,1.13,0,0,1,.63-1.11,1,1,0,0,1,1,.13.78.78,0,0,0,.05-.14,1,1,0,0,1,1-.73,1,1,0,0,1,1,.9,1,1,0,0,1-.18.58,5,5,0,0,0-.75,1.62C11.36,4.87,11.35,5,11.32,5.1Z"/><path d="M33.18,7.22a4.87,4.87,0,0,0-.9-2,.68.68,0,0,1-.06-.66,1.13,1.13,0,0,1,1-.7,1.05,1.05,0,0,1,.9.76s0,.06,0,0a3.72,3.72,0,0,1,.76-.14,1.07,1.07,0,0,1,.9.91,1,1,0,0,1-.55,1.14A3.46,3.46,0,0,1,34,6.88c-.11,0-.22,0-.33,0A.6.6,0,0,0,33.18,7.22Z"/><path d="M9.27,21.59A.61.61,0,0,0,9,21a6.66,6.66,0,0,1-.7-.81.77.77,0,0,1,.06-1,1,1,0,0,1,1-.33.85.85,0,0,1,.54.59.84.84,0,0,1,.71-.21.76.76,0,0,1,.67.77.65.65,0,0,1-.52.74A3.56,3.56,0,0,0,9.27,21.59Z"/><path d="M35.1,18.57c0-.27-.12-.39-.26-.52a7.08,7.08,0,0,1-.63-.59.7.7,0,0,1-.11-.84.84.84,0,0,1,.8-.46.7.7,0,0,1,.61.48.78.78,0,0,1,.76-.2.71.71,0,0,1,.5.66.57.57,0,0,1-.41.64A3.08,3.08,0,0,0,35.1,18.57Z"/><path d="M4.33,4A3.25,3.25,0,0,0,3,3.13a.56.56,0,0,1-.37-.62.71.71,0,0,1,.54-.67A.89.89,0,0,1,3.91,2L4,2A.7.7,0,0,1,5,1.69.74.74,0,0,1,5.25,2.8a5.53,5.53,0,0,1-.64.64C4.47,3.57,4.28,3.67,4.33,4Z"/><path d="M29.41,20.73a3.37,3.37,0,0,0-1.24-.81.63.63,0,0,1-.36-1,.71.71,0,0,1,1-.29l.16.12.05-.07a.69.69,0,0,1,1.07-.26.74.74,0,0,1,.22,1.11,5.54,5.54,0,0,1-.7.67A.48.48,0,0,0,29.41,20.73Z"/><path d="M2.9,5.9c.38-.21.67-.13.77.21a.37.37,0,0,1-.21.47L2.67,7c-.07-.06-.14-.16-.22-.24s-.23-.19-.33-.31a.47.47,0,0,1,.06-.73C2.45,5.53,2.67,5.58,2.9,5.9Z"/><path d="M13,22.67a1.74,1.74,0,0,0-.19-.22,4.68,4.68,0,0,1-.39-.38.46.46,0,0,1,.1-.7.45.45,0,0,1,.67.13l0,.05c.36-.2.64-.13.75.17a.38.38,0,0,1-.22.53C13.5,22.38,13.24,22.53,13,22.67Z"/><path d="M6.13,6.75c.43-.15.74.07.7.49a.43.43,0,0,1-.31.39A4.68,4.68,0,0,1,6,7.72l-.32.06c-.13-.27-.28-.55-.41-.84a.39.39,0,0,1,.21-.51A.42.42,0,0,1,6,6.57,1.45,1.45,0,0,1,6.13,6.75Z"/><path d="M24.84,21.87c.19-.42.58-.51.82-.19a.35.35,0,0,1,.05.41,2.71,2.71,0,0,0-.23.41,4.13,4.13,0,0,0-.14.42L25,22.84a4.68,4.68,0,0,1-.54-.08.46.46,0,0,1-.32-.63.44.44,0,0,1,.62-.28Z"/><path d="M6,17.67c.22-.29.39-.35.64-.23a.47.47,0,0,1,.26.58,1.93,1.93,0,0,1-.36.45c-.1.11-.22.21-.32.3l-.8-.42a.41.41,0,0,1-.15-.55.43.43,0,0,1,.57-.22Z"/><path d="M29.8,3.3c-.06-.06-.13-.16-.22-.24s-.25-.23-.36-.36a.45.45,0,0,1,.1-.69.44.44,0,0,1,.67.12h0a2.07,2.07,0,0,1,.54,0c.2,0,.27.21.28.4a.37.37,0,0,1-.24.38C30.31,3,30.05,3.17,29.8,3.3Z"/><path d="M4.46,22.67c-.22-.13-.46-.28-.71-.4a.41.41,0,0,1-.25-.59.44.44,0,0,1,.63-.19l.11.08a.43.43,0,0,1,.56-.27.47.47,0,0,1,.27.74,3.59,3.59,0,0,1-.39.39Z"/><path d="M26.17,2.62c.35-.19.6-.14.73.14a.4.4,0,0,1-.21.57c-.26.12-.5.27-.65.35l-.37-.22a1.84,1.84,0,0,1-.25-.23.5.5,0,0,1,0-.76C25.68,2.26,25.94,2.31,26.17,2.62Z"/><path d="M3.55,17.55c-.24-.13-.47-.28-.71-.4a.4.4,0,0,1-.25-.59.44.44,0,0,1,.63-.18l.07,0a1.61,1.61,0,0,1,.37-.25.53.53,0,0,1,.36.08.45.45,0,0,1,.14.67,1.54,1.54,0,0,1-.36.36,1.76,1.76,0,0,1-.37.17Z"/><path d="M15.26,18.9a2.27,2.27,0,0,0,.08-.41c0-.66,0-1.31,0-2a2.18,2.18,0,0,0-.08-.4h.35c.53,0,1.06,0,1.58,0a1.15,1.15,0,0,1,1.1,1.11,2.47,2.47,0,0,1-.07.81A1.18,1.18,0,0,1,17,18.9c-.57,0-1.14,0-1.71,0C15.26,18.91,15.24,18.89,15.26,18.9ZM16,16.58v1.87h.78a.82.82,0,0,0,.95-.88.82.82,0,0,0-.76-1C16.62,16.57,16.31,16.58,16,16.58Z"/><path d="M13.07,7.7c.07.4-.09.81.12,1.2h-.8a4.29,4.29,0,0,0,.07-.5c0-.64,0-1.27,0-1.91a1.73,1.73,0,0,0-.08-.35h.82c-.24.33,0,.7-.14,1.07h1.65c-.05-.35.11-.72-.11-1.08h.8a2.31,2.31,0,0,0-.08.43c0,.64,0,1.28,0,1.93a2.27,2.27,0,0,0,.08.41h-.77a2.26,2.26,0,0,0,.07-.43c0-.25,0-.51,0-.77Z"/><path d="M26.23,13.9h-.76c.13-.15,0-.24-.07-.34-.39-.36-.78-.74-1.2-1.1a4.93,4.93,0,0,0,.07,1.43h-.64c0-.18.05-.37.05-.56q0-.64,0-1.29a3.06,3.06,0,0,0-.07-.4h.82c-.15.15,0,.24.06.34l1,.94.16.14a2.32,2.32,0,0,0-.11-1.41h.68c0,.19,0,.4-.05.6,0,.43,0,.85,0,1.27A2,2,0,0,0,26.23,13.9Z"/><path d="M18.73,11.64h.7c0,.22-.05.43-.06.65,0,.41,0,.82,0,1.23a3.11,3.11,0,0,0,.08.37H18.7c.12-.15,0-.24-.09-.34-.39-.36-.77-.73-1.21-1.15a8.09,8.09,0,0,0,.08,1.5h-.72c.21-.18.14-.4.14-.61,0-.42,0-.85,0-1.27a1.72,1.72,0,0,0-.07-.37h.82c-.13.14,0,.23.06.33.34.31.66.63,1,.94l.16.14A2.3,2.3,0,0,0,18.73,11.64Z"/><path d="M8,11.13h.89c-.09.16-.19.31-.26.47-.31.63-.61,1.27-.91,1.9-.07.15-.12.27.11.39H6.76c.27-.12.18-.26.11-.4l-.93-2c-.07-.13-.16-.25-.24-.39h1c-.23.15-.12.31,0,.46.22.49.45,1,.7,1.52.09-.21.17-.37.24-.53.17-.35.32-.71.49-1.06C8.12,11.39,8.18,11.26,8,11.13Z"/><path d="M29,13.36V14a2.17,2.17,0,0,0-.33-.07h-2c0-.19.06-.36.07-.54,0-.44,0-.89,0-1.33a3.14,3.14,0,0,0-.08-.4h1.91a2,2,0,0,0,.32-.06v.55a2.57,2.57,0,0,0-.4-.06c-.39,0-.79,0-1.19,0v.51c.35,0,.71.08,1.05-.08v.59c-.33-.19-.69-.05-1.05-.1v.5A3.67,3.67,0,0,0,29,13.36Z"/><path d="M16.41,13.35V14a2,2,0,0,0-.29-.07h-2a2.36,2.36,0,0,0,.07-.44c0-.48,0-1,0-1.46a2.07,2.07,0,0,0-.08-.37H16a2.35,2.35,0,0,0,.37,0v.54a2.33,2.33,0,0,0-.35-.06c-.41,0-.82,0-1.24,0v.51a3.37,3.37,0,0,0,1.05-.08v.59c-.34-.19-.7,0-1.05-.1v.49A3.36,3.36,0,0,0,16.41,13.35Z"/><path d="M30.53,13.72l.22-.53a.76.76,0,0,0,.66.32,3.17,3.17,0,0,0,.75-.06c.06,0,.16-.15.14-.2a.29.29,0,0,0-.2-.17c-.28-.05-.57-.07-.85-.1a.67.67,0,0,1-.66-.45.63.63,0,0,1,.33-.78,1.67,1.67,0,0,1,1.43,0l.43.15-.25.46a1.27,1.27,0,0,0-1.27-.29c-.09,0-.14.15-.21.23s.16.16.25.17c.29,0,.59.06.88.1.48.07.73.39.65.79a.81.81,0,0,1-.7.56,2.36,2.36,0,0,1-1.34-.14l-.12,0Z"/><path d="M19.61,8.9h-.73c0-.19.05-.38.06-.57q0-.64,0-1.29a3.14,3.14,0,0,0-.08-.4H19c.57,0,1.14,0,1.71,0a.6.6,0,0,1,.61.63.6.6,0,0,1-.6.64c-.38,0-.77,0-1.18.06C19.53,8.29,19.39,8.6,19.61,8.9ZM19.5,7.56h1a.23.23,0,0,0,.25-.25.24.24,0,0,0-.26-.25H19.5Z"/><path d="M22.37,8.9h-.75a3.35,3.35,0,0,0,.07-.44q0-.72,0-1.44a2.56,2.56,0,0,0-.08-.4s0,0,0,0c.61,0,1.22,0,1.83,0a.59.59,0,0,1,.59.64.59.59,0,0,1-.59.63c-.38,0-.77,0-1.18.06C22.28,8.29,22.14,8.6,22.37,8.9Zm-.12-1.34h.95a.23.23,0,0,0,.26-.24.22.22,0,0,0-.23-.25h-1Z"/><path d="M19.54,16.64h.87c-.21.21-.06.38,0,.56l.68,1.24q.14.22.3.45h-.91c.19-.13.14-.25.05-.4a.22.22,0,0,0-.25-.13c-.24,0-.49,0-.74,0a.25.25,0,0,0-.29.23.82.82,0,0,0,0,.31h-.72c.14-.24.28-.48.41-.73l.57-1.11A.31.31,0,0,0,19.54,16.64ZM20.31,18l-.38-.72-.36.72Z"/><path d="M18.58,8.89h-.8a2,2,0,0,0,0-.35c0-.16-.15-.19-.3-.18a4.08,4.08,0,0,1-.7,0c-.2,0-.27.1-.31.24a1.09,1.09,0,0,0,0,.3h-.7l1-1.93c0-.08,0-.2,0-.32h.86c-.22.18-.11.33,0,.48.24.44.47.88.72,1.32C18.38,8.59,18.48,8.74,18.58,8.89ZM17.47,8l-.38-.72L16.73,8Z"/><path d="M11.42,13.89h-.8a2,2,0,0,0,0-.35c0-.16-.15-.19-.3-.18a4.09,4.09,0,0,1-.7,0c-.2,0-.27.1-.31.24a1.09,1.09,0,0,0,0,.3H8.58c.4-.61.68-1.28,1-1.93,0-.08,0-.2,0-.32h.86c-.21.17-.12.31,0,.46.24.45.48.9.73,1.34C11.22,13.59,11.32,13.74,11.42,13.89Zm-1.49-1.6L9.58,13h.73Z"/><path d="M25.71,6.64h1a5.91,5.91,0,0,0-1,1.2.48.48,0,0,0-.07.21,3.68,3.68,0,0,0,0,.47c0,.12.06.24.08.37H25a1.26,1.26,0,0,0-.11-1.24c-.17-.21-.33-.43-.49-.66s-.16-.28-.25-.42L24,6.64H25.1c-.25.16-.15.28,0,.42s.19.25.3.41c.14-.2.28-.36.38-.54S25.72,6.75,25.71,6.64Z"/><path d="M22.86,18.9H22a1.28,1.28,0,0,0,0-1.19c-.16-.21-.31-.43-.48-.64a5,5,0,0,0-.38-.42h1c0,.07-.1.15-.1.21a.57.57,0,0,0,.15.23c.08.12.16.23.27.37.14-.2.28-.37.39-.56s0-.16-.06-.26h.9c-.24.31-.48.64-.75.94a1,1,0,0,0-.24.79C22.7,18.55,22.62,18.74,22.86,18.9Z"/><path d="M19.75,11.56a1.8,1.8,0,0,0,.32.06q.83,0,1.65,0a2,2,0,0,0,.34-.06v.59c-.27-.21-.57-.05-.88-.12,0,.57,0,1.11,0,1.65,0,.07.07.13.12.21h-.74a5,5,0,0,0,.06-.56c0-.42,0-.83,0-1.28-.29,0-.59-.09-.88.09Z"/><path d="M12.42,11.65a1.15,1.15,0,0,0-.09.34c0,.49,0,1,0,1.47a3.29,3.29,0,0,0,1.49-.08V14a1.11,1.11,0,0,0-.3-.08H11.71c0-.17.06-.33.07-.48,0-.45,0-.9,0-1.36,0-.14,0-.28-.07-.42Z"/><path d="M23.08,13.91h-.7a2.46,2.46,0,0,0,.07-.45q0-.73,0-1.47a1.51,1.51,0,0,0-.08-.34h.71a2.79,2.79,0,0,0-.07.4c0,.47,0,.94,0,1.42A2.5,2.5,0,0,0,23.08,13.91Z"/><path d="M29.53,12.32l.38-.52c-.28,0-.47,0-.48-.31a.31.31,0,0,1,.2-.36.33.33,0,0,1,.39.17.75.75,0,0,1-.12.81,1,1,0,0,1-.21.21S29.59,12.32,29.53,12.32Z"/><path d="M1.37,12.5l.18-.13L19.36,1.12a.24.24,0,0,1,.32,0L37.49,12.37l.18.13-.18.13L19.68,23.88a.24.24,0,0,1-.32,0L1.55,12.63Zm.72,0,.23.15,17,10.74a.32.32,0,0,0,.39,0l17-10.76.2-.14-.19-.13-17-10.76a.32.32,0,0,0-.4,0l-15.84,10Z"/><path d="M33.35,20.62a1.55,1.55,0,0,1,.07-.23,1,1,0,0,1,1.06-.62,1,1,0,0,1,.88,1,1.28,1.28,0,0,1-.22.51,4.32,4.32,0,0,0-.77,1.87c-.18-.41-.53-.36-.85-.41a8.22,8.22,0,0,1-1.12-.22.94.94,0,0,1-.71-.92,1.17,1.17,0,0,1,.59-1.1.91.91,0,0,1,.85,0Z"/><path d="M11.52,5.3a.65.65,0,0,0-.62-.39,10.21,10.21,0,0,1-1.36-.26.9.9,0,0,1-.69-.91,1.12,1.12,0,0,1,.62-1.11,1,1,0,0,1,1,.12.69.69,0,0,0,0-.13,1,1,0,0,1,1-.73,1,1,0,0,1,1,.9,1.05,1.05,0,0,1-.19.58A4.86,4.86,0,0,0,11.58,5C11.56,5.07,11.55,5.16,11.52,5.3Z"/><path d="M33.38,7.42a4.87,4.87,0,0,0-.9-2,.68.68,0,0,1-.06-.66,1.12,1.12,0,0,1,1-.7,1.06,1.06,0,0,1,.9.75s0,.07,0,.06a3.6,3.6,0,0,1,.76-.14,1,1,0,0,1,.89.91,1,1,0,0,1-.54,1.14,3.46,3.46,0,0,1-1.27.29l-.34,0A.59.59,0,0,0,33.38,7.42Z"/><path d="M9.47,21.78c.06-.29-.1-.43-.24-.59a7.77,7.77,0,0,1-.71-.81.8.8,0,0,1,.06-1,1,1,0,0,1,1-.33.85.85,0,0,1,.54.59.8.8,0,0,1,.7-.21.76.76,0,0,1,.68.77A.66.66,0,0,1,11,21,3.59,3.59,0,0,0,9.47,21.78Z"/><path d="M35.29,18.77c0-.28-.11-.39-.25-.52a7.08,7.08,0,0,1-.63-.59.7.7,0,0,1-.11-.84.83.83,0,0,1,.8-.46c.31,0,.47.21.61.48a.77.77,0,0,1,.76-.2.71.71,0,0,1,.5.66.57.57,0,0,1-.41.64A3.18,3.18,0,0,0,35.29,18.77Z"/><path d="M4.53,4.18a3.32,3.32,0,0,0-1.31-.85.58.58,0,0,1-.38-.62A.71.71,0,0,1,3.39,2a.83.83,0,0,1,.72.19l0-.06a.7.7,0,0,1,1.06-.28A.74.74,0,0,1,5.45,3a5.53,5.53,0,0,1-.64.64C4.67,3.77,4.48,3.87,4.53,4.18Z"/><path d="M29.6,20.93a3.14,3.14,0,0,0-1.23-.81.63.63,0,0,1-.36-.95.7.7,0,0,1,1-.29l.16.12.05-.07a.69.69,0,0,1,1.07-.26.74.74,0,0,1,.22,1.11,5.54,5.54,0,0,1-.7.67A.5.5,0,0,0,29.6,20.93Z"/><path d="M3.1,6.1c.38-.21.66-.13.76.21a.37.37,0,0,1-.2.47l-.8.43A2.29,2.29,0,0,0,2.64,7c-.1-.11-.22-.19-.32-.31a.47.47,0,0,1,.06-.73C2.64,5.73,2.87,5.78,3.1,6.1Z"/><path d="M13.19,22.87a1.59,1.59,0,0,0-.18-.22,4.68,4.68,0,0,1-.39-.38.46.46,0,0,1,.1-.7.45.45,0,0,1,.67.13l0,.05c.36-.2.64-.14.75.17a.39.39,0,0,1-.22.53C13.69,22.58,13.44,22.73,13.19,22.87Z"/><path d="M6.32,7c.44-.15.75.07.71.49a.41.41,0,0,1-.31.38,5.12,5.12,0,0,1-.54.1L5.86,8c-.13-.27-.28-.56-.41-.84a.39.39,0,0,1,.21-.51.41.41,0,0,1,.57.14A.76.76,0,0,1,6.32,7Z"/><path d="M25,22.07c.19-.42.57-.51.82-.19a.33.33,0,0,1,0,.41c-.07.13-.16.26-.22.4s-.1.29-.15.43L25.22,23a4.68,4.68,0,0,1-.54-.09.46.46,0,0,1-.33-.63.44.44,0,0,1,.63-.27Z"/><path d="M6.15,17.87c.22-.29.39-.35.64-.23a.47.47,0,0,1,.26.58,1.93,1.93,0,0,1-.36.45c-.1.11-.22.21-.32.3l-.8-.43A.39.39,0,0,1,5.42,18,.41.41,0,0,1,6,17.78,1.4,1.4,0,0,1,6.15,17.87Z"/><path d="M30,3.5l-.22-.25a4,4,0,0,1-.36-.35.46.46,0,0,1,.1-.7.45.45,0,0,1,.67.13s0,0,0,0a2.07,2.07,0,0,1,.54,0c.19,0,.27.21.28.4a.37.37,0,0,1-.24.38C30.5,3.21,30.25,3.37,30,3.5Z"/><path d="M4.66,22.87c-.23-.13-.46-.28-.71-.4s-.37-.34-.25-.59a.44.44,0,0,1,.63-.19l.11.07A.43.43,0,0,1,5,21.5a.47.47,0,0,1,.27.74,4.78,4.78,0,0,1-.39.39Z"/><path d="M26.37,2.82c.35-.19.6-.14.73.13a.39.39,0,0,1-.21.57c-.26.13-.5.28-.65.36a2.3,2.3,0,0,1-.37-.23,1.31,1.31,0,0,1-.25-.22c-.24-.28-.24-.57,0-.76S26.14,2.51,26.37,2.82Z"/><path d="M3.75,17.75c-.24-.14-.47-.28-.71-.4a.4.4,0,0,1-.25-.59.43.43,0,0,1,.63-.18s.06,0,.06,0a1.9,1.9,0,0,1,.38-.25.53.53,0,0,1,.36.08.45.45,0,0,1,.14.67,1.75,1.75,0,0,1-.36.36,1.63,1.63,0,0,1-.38.17Z"/><path d="M15.46,19.1a2.27,2.27,0,0,0,.08-.41c0-.66,0-1.31,0-2a2.18,2.18,0,0,0-.08-.4c.09,0,.22,0,.35,0,.53,0,1,0,1.58,0a1.14,1.14,0,0,1,1.1,1.1,2.51,2.51,0,0,1-.07.82,1.18,1.18,0,0,1-1.23.83c-.57,0-1.14,0-1.72,0C15.46,19.1,15.44,19.09,15.46,19.1Zm.71-2.32v1.87H17c.63,0,.9-.26.95-.89a.81.81,0,0,0-.76-1C16.82,16.76,16.5,16.78,16.17,16.78Z"/><path d="M13.27,7.9c.07.4-.1.81.12,1.2h-.8a4.61,4.61,0,0,0,.07-.5c0-.64,0-1.27,0-1.91a1.59,1.59,0,0,0-.08-.35h.82c-.24.33-.05.7-.14,1.06h1.65c-.05-.35.1-.71-.12-1.07h.81a2.17,2.17,0,0,0-.08.43q0,1,0,1.92a2.21,2.21,0,0,0,.08.42h-.77a2.26,2.26,0,0,0,.07-.43c0-.25,0-.51,0-.77Z"/><path d="M26.43,14.1h-.77c.14-.15.05-.24-.06-.34-.39-.37-.78-.74-1.2-1.1a4.93,4.93,0,0,0,.07,1.43h-.65a5,5,0,0,0,.06-.56q0-.64,0-1.29a2,2,0,0,0-.08-.4h.83c-.15.15-.05.24.06.34l1,.94.16.14a2.4,2.4,0,0,0-.11-1.41h.68a5.82,5.82,0,0,0,0,.6c0,.43,0,.85,0,1.27A2.16,2.16,0,0,0,26.43,14.1Z"/><path d="M18.93,11.84h.7c0,.21-.05.43-.06.65q0,.62,0,1.23a3.11,3.11,0,0,0,.08.37H18.9c.12-.15,0-.24-.09-.34-.39-.36-.78-.73-1.21-1.15a7.31,7.31,0,0,0,.08,1.5H17c.21-.18.14-.4.14-.61,0-.42,0-.85,0-1.27a3.1,3.1,0,0,0-.07-.38h.82c-.13.15-.05.24.06.34l1,.94.16.14A2.3,2.3,0,0,0,18.93,11.84Z"/><path d="M8.22,11.33h.89c-.09.16-.19.31-.27.46l-.9,1.91c-.07.14-.12.27.11.39H7c.28-.13.19-.27.12-.41l-.93-2c-.07-.13-.16-.25-.24-.39h1c-.23.15-.12.31,0,.46.22.49.45,1,.69,1.52.1-.21.18-.37.25-.53.16-.35.32-.71.49-1.06C8.32,11.59,8.37,11.46,8.22,11.33Z"/><path d="M29.23,13.56v.62a1.83,1.83,0,0,0-.32-.07H27a5.24,5.24,0,0,0,.06-.54c0-.45,0-.89,0-1.33a2,2,0,0,0-.08-.4h1.92a2,2,0,0,0,.32-.06v.54c-.13,0-.27-.05-.4-.05H27.58v.52a3.11,3.11,0,0,0,1.05-.08v.58c-.33-.18-.69,0-1.05-.09v.5A3.61,3.61,0,0,0,29.23,13.56Z"/><path d="M16.6,13.55v.63a1,1,0,0,0-.28-.07h-2a4,4,0,0,0,.07-.44c0-.49,0-1,0-1.46a2.37,2.37,0,0,0-.08-.38h1.87a2.52,2.52,0,0,0,.37-.05v.54a2.33,2.33,0,0,0-.35-.06H15v.52A3.39,3.39,0,0,0,16,12.68v.59c-.34-.19-.7,0-1.05-.1v.49A3.44,3.44,0,0,0,16.6,13.55Z"/><path d="M30.73,13.92l.22-.53a.81.81,0,0,0,.66.32,2.73,2.73,0,0,0,.75-.07c.06,0,.16-.14.14-.19a.33.33,0,0,0-.2-.18c-.28,0-.57-.06-.85-.09s-.56-.13-.66-.45a.62.62,0,0,1,.33-.78,1.63,1.63,0,0,1,1.43,0l.42.15-.24.46a1.27,1.27,0,0,0-1.27-.29c-.09,0-.14.15-.21.23a.79.79,0,0,0,.25.17c.29.05.59.05.88.1.48.07.73.38.65.79a.81.81,0,0,1-.7.56A2.28,2.28,0,0,1,31,14l-.12,0Z"/><path d="M19.81,9.1h-.73c0-.19.05-.38.06-.57,0-.43,0-.86,0-1.29a2,2,0,0,0-.07-.4h.09c.57,0,1.14,0,1.71,0a.61.61,0,0,1,.61.64.6.6,0,0,1-.6.64c-.38,0-.77,0-1.18.06C19.73,8.49,19.59,8.79,19.81,9.1ZM19.7,7.75h.95a.24.24,0,0,0,.26-.25.24.24,0,0,0-.26-.25H19.7Z"/><path d="M22.57,9.1h-.75a3.64,3.64,0,0,0,.07-.44q0-.72,0-1.44a2.9,2.9,0,0,0-.08-.41l0,0c.62,0,1.23,0,1.84,0a.59.59,0,0,1,.59.64.6.6,0,0,1-.59.63c-.38,0-.77,0-1.19.06C22.48,8.49,22.33,8.8,22.57,9.1Zm-.12-1.35h.95a.23.23,0,0,0,.26-.24.22.22,0,0,0-.23-.25h-1Z"/><path d="M19.74,16.84h.87c-.21.21-.06.38,0,.56l.68,1.24c.08.15.19.3.29.45h-.9c.18-.13.13-.25.05-.4a.24.24,0,0,0-.25-.14,6.09,6.09,0,0,1-.74,0,.24.24,0,0,0-.29.22.87.87,0,0,0,0,.32h-.72c.14-.24.28-.48.41-.73l.57-1.11C19.82,17.12,19.88,17,19.74,16.84Zm.77,1.37-.39-.71-.35.71Z"/><path d="M18.78,9.09H18c0-.12,0-.24,0-.35s-.15-.19-.31-.18a4,4,0,0,1-.69,0c-.2,0-.27.1-.31.24a1.09,1.09,0,0,0,0,.3H16l1-1.93a.76.76,0,0,0,0-.32h.87c-.22.18-.11.33,0,.48.24.44.47.88.72,1.32C18.57,8.79,18.68,8.94,18.78,9.09Zm-1.11-.88-.38-.71-.36.71Z"/><path d="M11.62,14.09h-.8a2,2,0,0,0,0-.35c0-.16-.15-.2-.3-.19a3.28,3.28,0,0,1-.7,0c-.2,0-.27.1-.31.24a1.09,1.09,0,0,0,0,.3H8.78c.4-.61.68-1.28,1-1.93,0-.08,0-.21,0-.32h.86c-.21.17-.12.31,0,.46l.73,1.34C11.41,13.79,11.52,13.93,11.62,14.09Zm-1.49-1.6-.36.72h.74Z"/><path d="M25.91,6.84h1a5.91,5.91,0,0,0-1,1.2.48.48,0,0,0-.07.21,3.53,3.53,0,0,0,0,.46,2.57,2.57,0,0,0,.08.38h-.71a1.28,1.28,0,0,0-.11-1.24c-.17-.21-.34-.44-.49-.66s-.17-.28-.25-.42l-.09.07h1.06c-.24.16-.14.28,0,.42s.19.25.3.4a5.31,5.31,0,0,0,.38-.53C26,7.06,25.92,7,25.91,6.84Z"/><path d="M23.06,19.1h-.85a1.28,1.28,0,0,0,0-1.19c-.16-.21-.31-.43-.48-.64s-.25-.28-.38-.42h1c0,.07-.11.14-.1.21a.62.62,0,0,0,.14.23l.28.37c.14-.2.28-.37.39-.56s0-.17-.06-.26h.9c-.24.3-.48.63-.75.94a1,1,0,0,0-.24.79C22.89,18.75,22.82,18.94,23.06,19.1Z"/><path d="M20,11.76a1.88,1.88,0,0,0,.31.06h1.65a2.14,2.14,0,0,0,.35-.06v.59c-.27-.21-.57,0-.88-.12,0,.57,0,1.11,0,1.65,0,.06.07.13.12.21h-.74a5,5,0,0,0,.06-.56c0-.42,0-.83,0-1.28-.29,0-.59-.09-.88.09Z"/><path d="M12.61,11.85a1.57,1.57,0,0,0-.08.33c0,.5,0,1,0,1.48A3.29,3.29,0,0,0,14,13.58v.61a1.11,1.11,0,0,0-.3-.08H11.9a4.8,4.8,0,0,0,.08-.48V12.27a3.1,3.1,0,0,0-.08-.42Z"/><path d="M23.28,14.11h-.7a4.14,4.14,0,0,0,.07-.45c0-.49,0-1,0-1.48a1.57,1.57,0,0,0-.08-.33h.71a1.76,1.76,0,0,0-.07.4q0,.71,0,1.41A2.46,2.46,0,0,0,23.28,14.11Z"/><path d="M29.73,12.52l.38-.52c-.28,0-.47-.05-.49-.32a.3.3,0,0,1,.21-.35.32.32,0,0,1,.39.17.75.75,0,0,1-.12.81,1,1,0,0,1-.21.21S29.79,12.52,29.73,12.52Z"/></g><g class="cls-3"><path d="M1,12.16,1.21,12,19,.78a.24.24,0,0,1,.32,0L37.14,12l.19.13-.18.13L19.34,23.54a.24.24,0,0,1-.32,0L1.21,12.29Zm.72,0,.23.15L19,23.05a.3.3,0,0,0,.39,0l17-10.75.2-.14L36.41,12l-17-10.76a.32.32,0,0,0-.4,0q-7.92,5-15.85,10Z"/><path d="M33,20.28a1.55,1.55,0,0,1,.07-.23,1,1,0,0,1,1.06-.62,1,1,0,0,1,.88,1,1.26,1.26,0,0,1-.22.52A4.32,4.32,0,0,0,34,22.82c-.18-.41-.53-.36-.85-.41a8.22,8.22,0,0,1-1.12-.22.94.94,0,0,1-.71-.92,1.17,1.17,0,0,1,.59-1.1.91.91,0,0,1,.85,0Z"/><path d="M11.18,5a.65.65,0,0,0-.62-.39A10.21,10.21,0,0,1,9.2,4.31a.9.9,0,0,1-.69-.91,1.12,1.12,0,0,1,.62-1.11,1,1,0,0,1,1,.12.69.69,0,0,0,0-.13,1,1,0,0,1,1-.73,1,1,0,0,1,1,.9A1.05,1.05,0,0,1,12,3a4.86,4.86,0,0,0-.74,1.62C11.22,4.73,11.21,4.82,11.18,5Z"/><path d="M33,7.08a4.87,4.87,0,0,0-.9-2,.68.68,0,0,1-.06-.66,1.12,1.12,0,0,1,1-.7,1.06,1.06,0,0,1,.9.75l0,.06a3.49,3.49,0,0,1,.76-.14,1,1,0,0,1,.89.91,1,1,0,0,1-.54,1.13,3.28,3.28,0,0,1-1.27.3l-.34,0A.59.59,0,0,0,33,7.08Z"/><path d="M9.13,21.44c.06-.29-.1-.43-.24-.59A7.77,7.77,0,0,1,8.18,20a.8.8,0,0,1,.06-1,1,1,0,0,1,1-.33.85.85,0,0,1,.54.59.8.8,0,0,1,.7-.21.76.76,0,0,1,.68.77.67.67,0,0,1-.52.74A3.59,3.59,0,0,0,9.13,21.44Z"/><path d="M35,18.43c0-.28-.11-.39-.25-.52a7.08,7.08,0,0,1-.63-.59.7.7,0,0,1-.11-.84.83.83,0,0,1,.8-.46c.31,0,.47.21.61.48a.77.77,0,0,1,.76-.2.71.71,0,0,1,.5.66.55.55,0,0,1-.41.63A3.32,3.32,0,0,0,35,18.43Z"/><path d="M4.19,3.84A3.32,3.32,0,0,0,2.88,3a.58.58,0,0,1-.38-.62.71.71,0,0,1,.55-.67.83.83,0,0,1,.72.19l0-.06a.7.7,0,0,1,1.06-.28.74.74,0,0,1,.24,1.11,5.53,5.53,0,0,1-.64.64C4.33,3.43,4.14,3.53,4.19,3.84Z"/><path d="M29.26,20.59A3.14,3.14,0,0,0,28,19.78a.63.63,0,0,1-.36-1,.7.7,0,0,1,1-.29l.16.12.05-.07A.69.69,0,0,1,30,18.33a.74.74,0,0,1,.22,1.11,5.54,5.54,0,0,1-.7.67A.5.5,0,0,0,29.26,20.59Z"/><path d="M2.76,5.76c.38-.21.66-.13.76.21a.37.37,0,0,1-.2.47l-.8.43a2.29,2.29,0,0,0-.22-.24c-.1-.11-.22-.19-.32-.31A.47.47,0,0,1,2,5.59C2.3,5.39,2.53,5.44,2.76,5.76Z"/><path d="M12.85,22.53a1.59,1.59,0,0,0-.18-.22,4.68,4.68,0,0,1-.39-.38.46.46,0,0,1,.1-.7.45.45,0,0,1,.67.13l0,.05c.36-.2.64-.14.75.17a.38.38,0,0,1-.23.53C13.35,22.24,13.1,22.39,12.85,22.53Z"/><path d="M6,6.61c.44-.15.75.07.71.49a.41.41,0,0,1-.31.38,5.12,5.12,0,0,1-.54.1l-.32.06c-.13-.27-.28-.56-.41-.84a.39.39,0,0,1,.21-.51.41.41,0,0,1,.57.14A.76.76,0,0,1,6,6.61Z"/><path d="M24.7,21.73c.19-.42.57-.51.82-.19a.33.33,0,0,1,0,.41c-.07.13-.16.26-.22.4s-.1.29-.15.43l-.31-.08a4.68,4.68,0,0,1-.54-.09A.46.46,0,0,1,24,22a.44.44,0,0,1,.63-.27Z"/><path d="M5.81,17.53c.22-.29.39-.35.64-.23a.47.47,0,0,1,.26.58,1.93,1.93,0,0,1-.36.45c-.1.11-.22.21-.32.3l-.8-.43a.39.39,0,0,1-.15-.54.41.41,0,0,1,.56-.22A1.4,1.4,0,0,1,5.81,17.53Z"/><path d="M29.66,3.16l-.22-.25a4,4,0,0,1-.36-.35.46.46,0,0,1,.1-.7.45.45,0,0,1,.67.13s0,0,0,0a2.07,2.07,0,0,1,.54,0c.19,0,.27.21.28.4a.37.37,0,0,1-.24.38C30.16,2.87,29.91,3,29.66,3.16Z"/><path d="M4.32,22.53c-.23-.13-.46-.28-.71-.4s-.37-.34-.25-.59A.44.44,0,0,1,4,21.35l.11.07a.43.43,0,0,1,.56-.26.47.47,0,0,1,.27.74,4.78,4.78,0,0,1-.39.39Z"/><path d="M26,2.48c.35-.19.6-.14.73.13a.39.39,0,0,1-.21.57c-.26.13-.51.28-.65.36a2.3,2.3,0,0,1-.37-.23,1.31,1.31,0,0,1-.25-.22c-.24-.28-.24-.57,0-.76S25.8,2.17,26,2.48Z"/><path d="M3.41,17.41c-.24-.14-.47-.28-.71-.4a.4.4,0,0,1-.25-.59.43.43,0,0,1,.63-.18s.06,0,.06,0A1.55,1.55,0,0,1,3.52,16a.53.53,0,0,1,.36.08.45.45,0,0,1,.14.67,1.75,1.75,0,0,1-.36.36,1.63,1.63,0,0,1-.38.17Z"/><path d="M15.12,18.76a2.27,2.27,0,0,0,.08-.41c0-.66,0-1.32,0-2a2.18,2.18,0,0,0-.08-.4h.35c.53,0,1,0,1.58,0a1.14,1.14,0,0,1,1.1,1.1,2.51,2.51,0,0,1-.07.82,1.18,1.18,0,0,1-1.23.83c-.57,0-1.14,0-1.72,0C15.12,18.76,15.1,18.75,15.12,18.76Zm.71-2.32v1.87h.78c.63,0,.9-.26.95-.89a.81.81,0,0,0-.76-1C16.48,16.42,16.16,16.44,15.83,16.44Z"/><path d="M12.93,7.56c.07.4-.1.81.12,1.19h-.8a4.13,4.13,0,0,0,.07-.49c0-.64,0-1.28,0-1.91A1.59,1.59,0,0,0,12.24,6h.82c-.24.33-.05.7-.14,1.06h1.65c-.05-.35.1-.71-.12-1.07h.81a2.17,2.17,0,0,0-.08.43q0,1,0,1.92a2.21,2.21,0,0,0,.08.42h-.77a2.26,2.26,0,0,0,.07-.43c0-.25,0-.51,0-.77Z"/><path d="M26.09,13.76h-.77c.14-.15.05-.24-.06-.34-.39-.37-.78-.74-1.2-1.1a4.93,4.93,0,0,0,.07,1.43h-.65a5,5,0,0,0,.06-.56q0-.64,0-1.29a2,2,0,0,0-.08-.4h.83c-.15.15-.05.24.06.34l1,.94.16.14a2.4,2.4,0,0,0-.11-1.41h.68a5.82,5.82,0,0,0,0,.6c0,.43,0,.85,0,1.27A2.16,2.16,0,0,0,26.09,13.76Z"/><path d="M18.59,11.5h.7c0,.21-.05.43-.06.65q0,.62,0,1.23a3.11,3.11,0,0,0,.08.37h-.75c.12-.15,0-.24-.09-.34-.39-.36-.78-.73-1.21-1.15a7.31,7.31,0,0,0,.08,1.5h-.72c.21-.18.14-.4.14-.61,0-.42,0-.85,0-1.27a3.1,3.1,0,0,0-.07-.38h.82c-.13.15-.05.24.06.34l1,.94.16.14A2.3,2.3,0,0,0,18.59,11.5Z"/><path d="M7.88,11h.89c-.09.16-.19.31-.27.46l-.9,1.91c-.07.14-.12.27.11.39H6.61c.28-.13.19-.27.12-.41l-.93-2c-.07-.13-.16-.25-.24-.39h1c-.23.15-.12.31,0,.46.22.49.45,1,.69,1.52.1-.21.18-.37.25-.53.16-.35.32-.71.49-1.06C8,11.25,8,11.12,7.88,11Z"/><path d="M28.89,13.22v.62a1.83,1.83,0,0,0-.32-.07h-2a5.24,5.24,0,0,0,.06-.54c0-.45,0-.89,0-1.33a2,2,0,0,0-.08-.4h1.92a2,2,0,0,0,.32-.06V12c-.13,0-.27-.05-.4-.05H27.24v.52a3.11,3.11,0,0,0,1.05-.08v.58c-.33-.18-.69,0-1.05-.09v.5A3.61,3.61,0,0,0,28.89,13.22Z"/><path d="M16.26,13.21v.63a1,1,0,0,0-.28-.07H14a4,4,0,0,0,.07-.44c0-.49,0-1,0-1.46a2.37,2.37,0,0,0-.08-.38h1.87a2.52,2.52,0,0,0,.37-.05V12a2.33,2.33,0,0,0-.35-.06H14.62v.52a3.39,3.39,0,0,0,1.05-.08v.59c-.34-.19-.7,0-1.05-.1v.49A3.44,3.44,0,0,0,16.26,13.21Z"/><path d="M30.39,13.58l.22-.53a.81.81,0,0,0,.66.32A2.73,2.73,0,0,0,32,13.3c.06,0,.16-.14.14-.19a.33.33,0,0,0-.2-.18c-.28,0-.57-.06-.86-.09a.68.68,0,0,1-.65-.45.62.62,0,0,1,.33-.78,1.63,1.63,0,0,1,1.43,0l.42.15-.24.46a1.27,1.27,0,0,0-1.27-.29c-.09,0-.14.15-.21.23a.79.79,0,0,0,.25.17c.29,0,.59,0,.88.1.48.07.73.38.65.79a.81.81,0,0,1-.7.56,2.28,2.28,0,0,1-1.34-.15l-.12,0Z"/><path d="M19.47,8.76h-.73c0-.19.05-.38.06-.57,0-.43,0-.86,0-1.29a2,2,0,0,0-.07-.4h.09c.57,0,1.14,0,1.71,0a.61.61,0,0,1,.61.64.6.6,0,0,1-.6.64c-.38,0-.77,0-1.18.06C19.39,8.15,19.25,8.45,19.47,8.76Zm-.11-1.35h.95a.24.24,0,0,0,.26-.25.24.24,0,0,0-.26-.25h-.95Z"/><path d="M22.23,8.76h-.75a4,4,0,0,0,.07-.44q0-.72,0-1.44a2.9,2.9,0,0,0-.08-.41l0,0c.62,0,1.23,0,1.84,0a.59.59,0,0,1,.59.64.6.6,0,0,1-.59.63c-.38,0-.77,0-1.19.06C22.14,8.15,22,8.46,22.23,8.76Zm-.12-1.35h.95a.23.23,0,0,0,.26-.24.22.22,0,0,0-.23-.25h-1Z"/><path d="M19.4,16.5h.87c-.21.21-.06.38,0,.56L21,18.3c.08.15.19.29.29.45h-.9c.18-.13.13-.25.05-.4a.24.24,0,0,0-.25-.14,6.09,6.09,0,0,1-.74,0,.24.24,0,0,0-.29.22.87.87,0,0,0,0,.32h-.72c.14-.24.28-.48.41-.73l.57-1.11C19.48,16.78,19.54,16.65,19.4,16.5Zm.77,1.37-.39-.71-.35.71Z"/><path d="M18.44,8.75h-.8c0-.12,0-.24,0-.35s-.15-.19-.31-.19a3.18,3.18,0,0,1-.69,0c-.2,0-.27.1-.31.24a1.09,1.09,0,0,0,0,.3h-.7l1-1.93a.76.76,0,0,0,0-.32h.87c-.22.18-.11.33,0,.48.24.44.47.88.72,1.32C18.23,8.45,18.34,8.6,18.44,8.75Zm-1.11-.88L17,7.16l-.36.71Z"/><path d="M11.28,13.75h-.8a2,2,0,0,0,0-.35c0-.16-.15-.2-.3-.19a3.28,3.28,0,0,1-.7,0c-.2,0-.27.1-.31.24a1.13,1.13,0,0,0,0,.3H8.44c.4-.61.68-1.29,1-1.93a.76.76,0,0,0,0-.32h.87c-.21.17-.12.31,0,.46L11,13.3C11.07,13.45,11.18,13.59,11.28,13.75Zm-1.49-1.6-.36.72h.74Z"/><path d="M25.57,6.5h1a5.91,5.91,0,0,0-1,1.2.38.38,0,0,0-.07.21,3.53,3.53,0,0,0,0,.46,2.57,2.57,0,0,0,.08.38h-.71a1.28,1.28,0,0,0-.11-1.24c-.17-.21-.34-.44-.49-.66s-.17-.28-.25-.42l-.09.07H25c-.24.16-.14.28,0,.42s.19.25.3.4c.14-.19.27-.35.38-.53S25.58,6.61,25.57,6.5Z"/><path d="M22.72,18.76h-.85a1.28,1.28,0,0,0,0-1.19c-.16-.22-.31-.43-.48-.64a5.11,5.11,0,0,0-.39-.42h1c0,.07-.11.14-.1.21A.62.62,0,0,0,22,17l.28.37c.14-.2.28-.37.39-.56s0-.17-.06-.26h.9c-.24.3-.48.63-.75.94a1,1,0,0,0-.25.79C22.55,18.41,22.48,18.6,22.72,18.76Z"/><path d="M19.61,11.42a1.88,1.88,0,0,0,.31.06h1.65a2.14,2.14,0,0,0,.35-.06V12c-.27-.21-.57,0-.88-.12,0,.57,0,1.11,0,1.65,0,.06.07.13.12.21h-.74a5,5,0,0,0,.06-.56c0-.42,0-.83,0-1.28-.29,0-.59-.09-.88.09Z"/><path d="M12.27,11.51a1.57,1.57,0,0,0-.08.33c0,.5,0,1,0,1.48a3.29,3.29,0,0,0,1.49-.08v.61a1.11,1.11,0,0,0-.3-.08H11.56a4.8,4.8,0,0,0,.08-.48V11.93a3.1,3.1,0,0,0-.08-.42Z"/><path d="M22.94,13.77h-.7a4.55,4.55,0,0,0,.07-.45c0-.49,0-1,0-1.48a1.57,1.57,0,0,0-.08-.33h.71a1.76,1.76,0,0,0-.07.4q0,.71,0,1.41A2.46,2.46,0,0,0,22.94,13.77Z"/><path d="M29.39,12.18l.38-.52c-.28,0-.47-.05-.49-.32a.3.3,0,0,1,.21-.35.32.32,0,0,1,.39.17.75.75,0,0,1-.12.81,1,1,0,0,1-.21.21S29.45,12.18,29.39,12.18Z"/></g><path class="cls-4" d="M1.23,12.36l.18-.13L19.22,1a.24.24,0,0,1,.32,0l17.8,11.25.19.13-.19.13L19.54,23.74a.24.24,0,0,1-.32,0L1.41,12.49Zm.72,0,.23.15,17,10.74a.3.3,0,0,0,.39,0l17-10.75.2-.14-.19-.13-17-10.76a.32.32,0,0,0-.41,0l-15.84,10Z"/><path class="cls-4" d="M33.2,20.48c0-.08,0-.16.07-.23a1,1,0,0,1,1.07-.62,1,1,0,0,1,.87,1,1.17,1.17,0,0,1-.21.52A4.32,4.32,0,0,0,34.23,23c-.18-.41-.53-.36-.86-.41a8.38,8.38,0,0,1-1.11-.22.94.94,0,0,1-.71-.92,1.13,1.13,0,0,1,.59-1.1.91.91,0,0,1,.85,0Z"/><path class="cls-4" d="M11.38,5.16a.69.69,0,0,0-.62-.4,9.16,9.16,0,0,1-1.37-.25.91.91,0,0,1-.68-.91,1.13,1.13,0,0,1,.62-1.12,1,1,0,0,1,1,.13,1.12,1.12,0,0,0,.05-.13,1,1,0,0,1,1-.73,1,1,0,0,1,1,.9,1.05,1.05,0,0,1-.19.58,4.59,4.59,0,0,0-.74,1.62C11.42,4.93,11.41,5,11.38,5.16Z"/><path class="cls-4" d="M33.24,7.28a4.87,4.87,0,0,0-.9-2,.69.69,0,0,1-.06-.67,1.12,1.12,0,0,1,1-.69,1,1,0,0,1,.89.75s0,.07,0,.06A3,3,0,0,1,35,4.59a1.06,1.06,0,0,1,.89.92,1,1,0,0,1-.54,1.13,3.1,3.1,0,0,1-1.27.29l-.34,0A.58.58,0,0,0,33.24,7.28Z"/><path class="cls-4" d="M9.33,21.64a.6.6,0,0,0-.25-.59,7.67,7.67,0,0,1-.7-.81.78.78,0,0,1,.06-1,1,1,0,0,1,1-.33.87.87,0,0,1,.54.58.87.87,0,0,1,.7-.21.79.79,0,0,1,.68.78.67.67,0,0,1-.52.74A3.59,3.59,0,0,0,9.33,21.64Z"/><path class="cls-4" d="M35.15,18.63c0-.28-.11-.39-.26-.52s-.43-.38-.62-.59a.71.71,0,0,1-.11-.85.82.82,0,0,1,.8-.45c.31,0,.47.21.61.48a.77.77,0,0,1,.76-.2.71.71,0,0,1,.5.66.56.56,0,0,1-.41.63A3.21,3.21,0,0,0,35.15,18.63Z"/><path class="cls-4" d="M4.39,4a3.42,3.42,0,0,0-1.32-.86.57.57,0,0,1-.37-.62.7.7,0,0,1,.55-.66A.83.83,0,0,1,4,2.09L4,2a.69.69,0,0,1,1-.28.74.74,0,0,1,.25,1.11,6.44,6.44,0,0,1-.64.64C4.53,3.63,4.34,3.73,4.39,4Z"/><path class="cls-4" d="M29.46,20.79A3.1,3.1,0,0,0,28.23,20a.65.65,0,0,1-.37-1,.71.71,0,0,1,1-.28l.17.11.05-.06a.69.69,0,0,1,1.07-.27.75.75,0,0,1,.22,1.12,6.35,6.35,0,0,1-.7.67A.5.5,0,0,0,29.46,20.79Z"/><path class="cls-4" d="M3,6c.38-.21.66-.13.76.21a.37.37,0,0,1-.21.47l-.79.43c-.06-.07-.13-.16-.22-.25s-.23-.19-.32-.3a.47.47,0,0,1,.06-.73C2.5,5.59,2.73,5.64,3,6Z"/><path class="cls-4" d="M13.05,22.73c-.05-.06-.11-.15-.18-.22a4.68,4.68,0,0,1-.39-.38.46.46,0,0,1,.1-.7.45.45,0,0,1,.67.13l0,0c.36-.19.64-.13.75.18a.38.38,0,0,1-.23.53C13.55,22.44,13.3,22.59,13.05,22.73Z"/><path class="cls-4" d="M6.18,6.81c.44-.15.75.07.71.49a.41.41,0,0,1-.31.38,5.12,5.12,0,0,1-.54.1l-.32.06c-.14-.27-.28-.56-.41-.84a.39.39,0,0,1,.21-.51.41.41,0,0,1,.57.14A.76.76,0,0,1,6.18,6.81Z"/><path class="cls-4" d="M24.9,21.92c.19-.41.57-.5.82-.19a.35.35,0,0,1,0,.42c-.07.13-.16.26-.22.4a4.29,4.29,0,0,0-.15.42l-.31-.07a4.68,4.68,0,0,1-.54-.09.46.46,0,0,1-.33-.63.44.44,0,0,1,.63-.27Z"/><path class="cls-4" d="M6,17.73c.21-.3.38-.35.64-.23a.46.46,0,0,1,.26.58,1.93,1.93,0,0,1-.36.45l-.32.3-.8-.43a.38.38,0,0,1-.15-.54.41.41,0,0,1,.56-.22A1.4,1.4,0,0,1,6,17.73Z"/><path class="cls-4" d="M29.86,3.36l-.22-.25a4,4,0,0,1-.36-.35.46.46,0,0,1,.1-.7.44.44,0,0,1,.67.13s0,0,0,0a2.07,2.07,0,0,1,.54,0c.19,0,.27.21.28.4a.37.37,0,0,1-.24.38C30.36,3.07,30.1,3.22,29.86,3.36Z"/><path class="cls-4" d="M4.52,22.73c-.23-.13-.46-.28-.71-.4s-.37-.34-.25-.59a.44.44,0,0,1,.63-.19l.1.07a.45.45,0,0,1,.57-.27.48.48,0,0,1,.26.75,3.41,3.41,0,0,1-.38.38Z"/><path class="cls-4" d="M26.22,2.68c.36-.19.61-.14.74.13a.4.4,0,0,1-.21.57c-.26.13-.51.28-.65.36a3,3,0,0,1-.38-.23,1,1,0,0,1-.24-.23.48.48,0,0,1,0-.75C25.74,2.32,26,2.37,26.22,2.68Z"/><path class="cls-4" d="M3.61,17.61c-.24-.14-.47-.28-.72-.4s-.36-.33-.24-.59a.44.44,0,0,1,.63-.19l.06,0a1.33,1.33,0,0,1,.38-.24.51.51,0,0,1,.35.08.44.44,0,0,1,.14.67,1.7,1.7,0,0,1-.35.36,2.19,2.19,0,0,1-.38.17Z"/><path class="cls-4" d="M15.32,19a2.21,2.21,0,0,0,.08-.42v-2a2.45,2.45,0,0,0-.08-.41h.35c.52,0,1,0,1.58,0a1.14,1.14,0,0,1,1.1,1.1,2.43,2.43,0,0,1-.07.81,1.19,1.19,0,0,1-1.23.84c-.57,0-1.15,0-1.72,0C15.32,19,15.3,19,15.32,19ZM16,16.64V18.5h.78c.63,0,.9-.25.94-.88a.81.81,0,0,0-.75-1C16.68,16.62,16.36,16.64,16,16.64Z"/><path class="cls-4" d="M13.13,7.75c.06.41-.1.81.12,1.2h-.8c0-.16.06-.33.07-.5V6.55a2.21,2.21,0,0,0-.08-.35h.82c-.24.33,0,.7-.14,1.06h1.65c0-.35.1-.72-.12-1.07h.8a3,3,0,0,0-.07.43q0,1,0,1.92a2,2,0,0,0,.08.41h-.77c0-.14.06-.28.07-.42s0-.51,0-.78Z"/><path class="cls-4" d="M26.29,14h-.77c.14-.14,0-.23-.06-.33-.4-.37-.79-.74-1.2-1.1a5.21,5.21,0,0,0,.06,1.42h-.64c0-.17.05-.36.06-.55q0-.64,0-1.29a3.14,3.14,0,0,0-.08-.4h.83c-.15.15,0,.24.06.34l1,.94.16.14a2.54,2.54,0,0,0-.11-1.42h.68a6,6,0,0,0-.05.61c0,.42,0,.85,0,1.27A1.9,1.9,0,0,0,26.29,14Z"/><path class="cls-4" d="M18.79,11.7h.69c0,.21-.05.43-.05.65q0,.62,0,1.23a1.68,1.68,0,0,0,.08.36h-.75c.12-.14,0-.23-.09-.33l-1.21-1.15A7.2,7.2,0,0,0,17.53,14h-.71c.21-.17.14-.4.14-.6,0-.43,0-.85,0-1.27a2,2,0,0,0-.08-.38h.83c-.13.14-.05.24.06.34l1,.94.16.14A2.37,2.37,0,0,0,18.79,11.7Z"/><path class="cls-4" d="M8.08,11.19H9c-.09.16-.19.3-.27.46-.3.64-.6,1.27-.91,1.91-.07.14-.11.27.12.39H6.81c.28-.13.19-.27.12-.41-.31-.65-.62-1.31-.94-2a3.44,3.44,0,0,0-.24-.39h1c-.24.15-.13.31,0,.46l.69,1.51c.1-.2.18-.36.25-.52l.48-1.06C8.18,11.44,8.23,11.32,8.08,11.19Z"/><path class="cls-4" d="M29.09,13.42V14a1.23,1.23,0,0,0-.32-.07h-2c0-.19.06-.37.06-.54,0-.45,0-.89,0-1.34a2.35,2.35,0,0,0-.08-.4h1.92a1.88,1.88,0,0,0,.31-.06v.54a2.44,2.44,0,0,0-.39-.05H27.44v.52a3.12,3.12,0,0,0,1-.09v.59c-.33-.18-.69,0-1-.09v.49A3.5,3.5,0,0,0,29.09,13.42Z"/><path class="cls-4" d="M16.46,13.41V14a1,1,0,0,0-.28-.07h-2a2.57,2.57,0,0,0,.08-.44c0-.49,0-1,0-1.46a2.16,2.16,0,0,0-.08-.38H16a2.58,2.58,0,0,0,.37-.06v.55a1.51,1.51,0,0,0-.36-.06H14.81v.52a3.45,3.45,0,0,0,1.06-.08v.59c-.34-.19-.7-.05-1.06-.1v.49A3.47,3.47,0,0,0,16.46,13.41Z"/><path class="cls-4" d="M30.59,13.78l.22-.54a.76.76,0,0,0,.66.32,3.17,3.17,0,0,0,.75-.06c.06,0,.16-.14.14-.19a.3.3,0,0,0-.2-.18c-.28-.05-.57-.06-.86-.09a.68.68,0,0,1-.65-.45A.64.64,0,0,1,31,11.8a1.67,1.67,0,0,1,1.43,0c.13.06.27.1.42.16l-.24.45a1.29,1.29,0,0,0-1.27-.28c-.09,0-.15.15-.22.23a1,1,0,0,0,.26.17c.29.05.59.05.88.1.47.07.73.38.65.79a.81.81,0,0,1-.7.56,2.28,2.28,0,0,1-1.34-.15l-.12,0Z"/><path class="cls-4" d="M19.67,9h-.73a5.48,5.48,0,0,0,0-.57q0-.65,0-1.29a2,2,0,0,0-.08-.4.13.13,0,0,1,.1,0c.57,0,1.14,0,1.71,0a.6.6,0,0,1,.6.63.6.6,0,0,1-.59.65c-.38,0-.77,0-1.18.05C19.58,8.34,19.45,8.65,19.67,9Zm-.12-1.35h1a.24.24,0,0,0,.26-.25.24.24,0,0,0-.26-.25c-.32,0-.63,0-1,0Z"/><path class="cls-4" d="M22.43,9h-.76a3.58,3.58,0,0,0,.08-.43c0-.48,0-1,0-1.44,0-.12-.05-.24-.08-.41,0,0,0,0,0,0,.61,0,1.23,0,1.84,0a.59.59,0,0,1,.59.64.61.61,0,0,1-.59.63c-.39,0-.77,0-1.19.05C22.34,8.35,22.19,8.66,22.43,9Zm-.12-1.34h1a.24.24,0,0,0,.26-.24.22.22,0,0,0-.23-.25h-1Z"/><path class="cls-4" d="M19.6,16.69h.86c-.2.22-.05.39.05.57.22.41.44.83.68,1.24.08.15.19.29.29.45h-.9c.18-.13.13-.26.05-.4a.24.24,0,0,0-.25-.14,6.09,6.09,0,0,1-.74,0,.25.25,0,0,0-.3.22,1.2,1.2,0,0,0,0,.32h-.72l.41-.73.56-1.11C19.68,17,19.74,16.84,19.6,16.69Zm.77,1.38L20,17.35l-.35.72Z"/><path class="cls-4" d="M18.64,9h-.8c0-.12,0-.24,0-.35s-.15-.2-.31-.19a3.18,3.18,0,0,1-.69,0c-.2,0-.27.1-.31.24a1.09,1.09,0,0,0,0,.3h-.71c.33-.63.67-1.28,1-1.94,0-.07,0-.2,0-.31h.87c-.22.18-.11.33,0,.48.25.44.48.88.73,1.32C18.43,8.65,18.54,8.79,18.64,9Zm-1.11-.88-.38-.72-.36.72Z"/><path class="cls-4" d="M11.48,14h-.8c0-.12,0-.24,0-.36s-.15-.19-.31-.18a4,4,0,0,1-.69,0c-.2,0-.27.09-.31.24a1.16,1.16,0,0,0,0,.3H8.64c.39-.61.68-1.29,1-1.94,0-.07,0-.2,0-.31h.87c-.21.16-.12.31,0,.46l.74,1.33C11.27,13.65,11.38,13.79,11.48,14ZM10,12.35l-.36.72h.74Z"/><path class="cls-4" d="M25.77,6.7h1a5.85,5.85,0,0,0-1,1.19.41.41,0,0,0-.07.22,3.53,3.53,0,0,0,0,.46,3.25,3.25,0,0,0,.08.38H25a1.28,1.28,0,0,0-.11-1.24c-.17-.22-.34-.44-.49-.66a4.64,4.64,0,0,1-.25-.42l-.09.07h1.06c-.24.15-.14.28,0,.41s.2.26.31.41A4.33,4.33,0,0,0,25.79,7C25.83,6.92,25.78,6.81,25.77,6.7Z"/><path class="cls-4" d="M22.92,19h-.85a1.26,1.26,0,0,0,0-1.18c-.16-.22-.31-.44-.48-.65s-.25-.27-.39-.42h1c0,.07-.11.15-.1.22a.62.62,0,0,0,.14.23l.27.37a4.4,4.4,0,0,0,.39-.56c0-.06,0-.17-.05-.26h.9c-.24.3-.48.63-.75.94a1,1,0,0,0-.25.79C22.75,18.6,22.68,18.8,22.92,19Z"/><path class="cls-4" d="M19.81,11.62a1.88,1.88,0,0,0,.31.06h1.65a2.14,2.14,0,0,0,.35-.06v.59c-.27-.21-.57-.05-.88-.13,0,.58,0,1.12,0,1.66,0,.06.07.13.11.21h-.73c0-.18.05-.37.06-.56,0-.42,0-.84,0-1.28-.3,0-.59-.09-.88.08Z"/><path class="cls-4" d="M12.47,11.71a1.44,1.44,0,0,0-.08.33c0,.49,0,1,0,1.48a3.43,3.43,0,0,0,1.49-.08v.61a1.11,1.11,0,0,0-.3-.08H11.76a2.93,2.93,0,0,0,.07-.48c0-.46,0-.91,0-1.36a2,2,0,0,0-.07-.42Z"/><path class="cls-4" d="M23.14,14h-.71a2.86,2.86,0,0,0,.08-.45c0-.49,0-1,0-1.48a1.09,1.09,0,0,0-.09-.33h.72a2.57,2.57,0,0,0-.08.4v1.41C23.07,13.66,23.11,13.8,23.14,14Z"/><path class="cls-4" d="M29.59,12.38l.38-.53c-.28,0-.47,0-.49-.31a.3.3,0,0,1,.21-.35.32.32,0,0,1,.39.17.77.77,0,0,1-.12.81.8.8,0,0,1-.21.2S29.65,12.38,29.59,12.38Z"/></g></g></svg>