<svg xmlns="http://www.w3.org/2000/svg" viewBox="0 0 38.55 24.66"><defs><style>.cls-1{isolation:isolate;}.cls-2{opacity:0.15;}.cls-2,.cls-3{mix-blend-mode:multiply;}.cls-4{fill:#fff;}</style></defs><title>convert-FIX-SVG-03</title><g class="cls-1"><g id="Layer_1" data-name="Layer 1"><g class="cls-2"><path d="M5.46,13.61a.48.48,0,0,0-.17.05,10.28,10.28,0,0,1-2.16.57,2,2,0,0,1-1.45-.33.86.86,0,0,1-.32-1A1.87,1.87,0,0,1,2,12a11.85,11.85,0,0,1,3.28-1.82l.06,0A11.64,11.64,0,0,1,4.87,9a2.94,2.94,0,0,1,.31-2.17A5.28,5.28,0,0,1,6.29,5.33a.47.47,0,0,0,.14-.27A1.43,1.43,0,0,1,7.5,4a.68.68,0,0,1,.71.74.2.2,0,0,0,0,0c.38.12.75.21,1.11.35a2.81,2.81,0,0,1,1.44,1.19.4.4,0,0,0,.19.15,2.51,2.51,0,0,1,.93.75A1.2,1.2,0,0,1,12,8.45c-.09.21-.2.4-.31.6a1.21,1.21,0,0,1-.85.67l-.12,0,0,.06A11.35,11.35,0,0,0,12,9.56a4.34,4.34,0,0,1,1.73-.2c0-.17,0-.34,0-.5,0-.74-.08-1.48-.14-2.22a.43.43,0,0,0-.16-.29C13,6,12.5,5.66,12.05,5.29a2.68,2.68,0,0,1-.9-1.2,1.11,1.11,0,0,1,.5-1.32A1.05,1.05,0,0,1,13,3c.07.07.13.16.21.25l.06-.12a1,1,0,0,1,1.29-.76,1.12,1.12,0,0,1,.85,1.32A3.35,3.35,0,0,1,14.83,5c-.23.34-.47.67-.73,1a1.09,1.09,0,0,0-.22.86c.07.78.08,1.57.1,2.36,0,.13,0,.2.16.25a.67.67,0,0,1,.42.6,1.63,1.63,0,0,1-.6,1.55.56.56,0,0,0-.21.39c-.09.62-.19,1.24-.29,1.87l-.26,0L13.49,12h-.07l-1.55.76c-.13.06-.16.11-.13.25a4.5,4.5,0,0,1,0,2.36,4.52,4.52,0,0,1-.18.47.74.74,0,0,0,1-.19,1.72,1.72,0,0,1,1-.63A1.19,1.19,0,0,1,15,16.19a5.75,5.75,0,0,1-.42,2.53,1.15,1.15,0,0,1-1.14.68,4,4,0,0,1-.84-.09c-.52-.09-1.05-.21-1.58-.28a9.53,9.53,0,0,1-2.1-.54c-.15-.06-.32-.2-.48,0a.49.49,0,0,0-.05.64,1.64,1.64,0,0,1,.14,1.4,1.3,1.3,0,0,1-1.66.88,3.89,3.89,0,0,1-2-1.33,1.36,1.36,0,0,1-.16-1.39,5.15,5.15,0,0,1,1.2-1.84.23.23,0,0,0,0-.34,4.15,4.15,0,0,1-.46-1.89C5.44,14.31,5.46,14,5.46,13.61Zm5.36-7s-.06.08-.06.12c0,.58-.06,1.16,0,1.73a1.34,1.34,0,0,0,.34.91,2.21,2.21,0,0,0,.75-1.15s0-.08,0-.12c0-.26-.1-.52-.16-.78a.32.32,0,0,0-.1-.19c-.23-.18-.47-.35-.71-.52-.08,0-.19-.07-.23-.14A2.82,2.82,0,0,0,8.75,5.16C8.15,5,8.1,5,8.07,5.67a7,7,0,0,1-.14.86l-.27-.11a2.4,2.4,0,0,0,.13-1.18,1.68,1.68,0,0,1,.13-.56c0-.07.07-.18,0-.21a1.25,1.25,0,0,0-.4-.24s-.16.17-.19.28a2.52,2.52,0,0,0,0,1.28c.07.3.15.61.23.91a.33.33,0,0,1-.47-.11c-.25-.33-.48-.68-.73-1A4.68,4.68,0,0,0,5.24,7.29a2.74,2.74,0,0,0,.22,2.46c.17.29.17.28.5.23.5-.08,1-.13,1.51-.19a5.33,5.33,0,0,1-.09-2.86h.23c0,.54-.11,1.06-.1,1.59a4.5,4.5,0,0,0,.21,1.13c0,.09.17.19.28.23.32.1.64.17,1,.25a.23.23,0,0,0,.16,0l1.62-.67a5.06,5.06,0,0,1-.23-2.85ZM6,13.28v0c.77,0,1.53,0,2.29,0a1.14,1.14,0,0,0,1.13-.83,4.06,4.06,0,0,0,.16-1.1,1,1,0,0,0-.49-.86,2.31,2.31,0,0,0-.55-.26,5,5,0,0,0-2.51-.06,9.93,9.93,0,0,0-4,2,1.83,1.83,0,0,0-.46.66.6.6,0,0,0,.31.84A1.67,1.67,0,0,0,3,14a7.55,7.55,0,0,0,3.18-1.13l.16-.1.15.2Zm8.52,2.46a.89.89,0,0,0-1.24-.32,2.5,2.5,0,0,0-.57.46,1,1,0,0,1-1,.32l-1.79-.41a5.58,5.58,0,0,0-1.78-.15.85.85,0,0,0-.79.75,1.34,1.34,0,0,0,.8,1.54,9.79,9.79,0,0,0,2.37.76,15.51,15.51,0,0,1,2.32.43,1.47,1.47,0,0,0,1.07-.1c.07,0,.15-.1.15-.16.09-.87.16-1.73.24-2.59C14.33,16.07,14.34,15.86,14.56,15.74Zm-3.72-4.51-.08,0a.29.29,0,0,1,0,.13l-.15.24a1.24,1.24,0,0,1-.19-.21c-.12-.21-.23-.43-.36-.66l-.25.15a2.39,2.39,0,0,1,0,1.35,1.57,1.57,0,0,1-1.71,1.34L6,13.57c-.14,0-.21,0-.21.18s0,.53,0,.79a3.84,3.84,0,0,0,.5,2,2,2,0,0,0,1,.82c0-.16-.08-.3-.11-.44a1.21,1.21,0,0,1,1-1.5,3.84,3.84,0,0,1,.83,0c.62.09,1.23.2,1.85.32s.67.15.83-.52a4.56,4.56,0,0,0-.16-2.4C11.24,12.26,11,11.75,10.84,11.23ZM6.18,16.92a4.83,4.83,0,0,0-1.29,2,1.07,1.07,0,0,0,.15,1,3.79,3.79,0,0,0,1.85,1.24,1,1,0,0,0,1.37-.72,1.32,1.32,0,0,0-.14-1.21.71.71,0,0,1,0-.83l.07-.1-.77-.6-.1,0A2.44,2.44,0,0,1,6.18,16.92Zm6-7.11-1.54.3,1,2.51L13.12,12C12.27,11.44,11.79,10.81,12.17,9.81ZM7.1,4.48c-.59.32-.5,1.15.12,1.75A3.47,3.47,0,0,1,7.1,4.48Zm2.69,5.68-.43.17c.32.37.32.37.57.17Zm.59.44c.2-.19.06-.33,0-.51l-.22.25Z"/><path d="M36.09,19.28l-.17-.43c-.08.46-.4.54-.76.57a3.61,3.61,0,0,1-1.34-.24c-.83-.26-1.65-.54-2.49-.74a3.29,3.29,0,0,0-3,.61l-.11.06c0-.5,0-1,0-1.45,0,0,.1-.09.15-.1L30,17.29c-.33,0-.66,0-1,.07l-6.37.94a26.92,26.92,0,0,1-4.56.47,4.52,4.52,0,0,1-1.74-.33.71.71,0,0,1-.48-.74q0-6.13,0-12.27V5.19h.24a1.16,1.16,0,0,0,.61.64,6.57,6.57,0,0,0,2,.63,15.49,15.49,0,0,0,4.3.1c1.94-.19,3.84-.6,5.75-1a20.61,20.61,0,0,1,5-.57,4.21,4.21,0,0,1,2.2.65.39.39,0,0,1,.15.26V19.21s0,0,0,.06Zm-.22-1.14V6.63c0-.85,0-.87-.83-1.14H35A6.8,6.8,0,0,0,32,5.33c-1.28.17-2.55.4-3.81.64a39.51,39.51,0,0,1-6.57.92,9.72,9.72,0,0,1-5.49-1.12V6c0,3.9,0,7.8,0,11.69a.53.53,0,0,0,.39.58,4.5,4.5,0,0,0,1.7.28,25.94,25.94,0,0,0,4.12-.43c2-.31,4.06-.64,6.1-.92a16.45,16.45,0,0,1,4.7,0A5.14,5.14,0,0,1,35.87,18.14Zm-7.35.46a1.89,1.89,0,0,1,.21-.1,6.6,6.6,0,0,1,1-.35,4.79,4.79,0,0,1,2.4.2c.72.21,1.43.47,2.14.7a2,2,0,0,0,1.15.07c.27-.07.33-.26.1-.43a3.58,3.58,0,0,0-.87-.5,11.4,11.4,0,0,0-2.95-.62,11.87,11.87,0,0,0-3,.2s-.12.07-.12.11C28.51,18.11,28.52,18.34,28.52,18.6Zm7.36,0a1.8,1.8,0,0,0-.26-.34,3.93,3.93,0,0,0-.81-.48,9.19,9.19,0,0,0-3.21-.56c-.45,0-.9,0-1.35,0a3.55,3.55,0,0,0,.65,0,11.68,11.68,0,0,1,3.66.59A3,3,0,0,1,35.88,18.64Z"/><path d="M23.88,4.85c0,.46,0,.87,0,1.29,0,.05-.1.13-.16.14a11.54,11.54,0,0,1-2.42.23A11.12,11.12,0,0,1,17.55,6c-.25-.09-.49-.2-.74-.31a2.39,2.39,0,0,1-.34-.21.46.46,0,0,1,.16-.85,1.73,1.73,0,0,1,1.1,0c.64.19,1.26.44,1.91.62a12.36,12.36,0,0,0,1.73.37,3.05,3.05,0,0,0,2.39-.67Zm-.25.57a11,11,0,0,1-1.14.39A4.78,4.78,0,0,1,20,5.62c-.72-.21-1.43-.47-2.15-.7a1.85,1.85,0,0,0-1.14-.06.31.31,0,0,0-.21.19c0,.07.06.19.13.23a4.89,4.89,0,0,0,.72.37,8.45,8.45,0,0,0,2.77.57,13.74,13.74,0,0,0,3.33-.15.23.23,0,0,0,.14-.16A4,4,0,0,0,23.63,5.42Z"/><path d="M7.14,23c-.23.08-.3,0-.35-.17-.1-.43-.26-.85-.4-1.29l.25-.1Z"/><path d="M26.56,21.5l.25-.09L27.3,23c-.26.1-.27.09-.33-.14C26.84,22.38,26.7,22,26.56,21.5Z"/><path d="M7.77,23h-.1l-.11,0A2.51,2.51,0,0,1,8,21.61l.1.09s0,.05,0,0Z"/><path d="M28.11,21.6l.19.17h-.06L27.94,23h-.22A2.67,2.67,0,0,1,28.11,21.6Z"/><path d="M31.59,21.85,32.1,23c-.2.06-.3.05-.36-.14a9.35,9.35,0,0,0-.39-.87Z"/><path d="M3.19,23H2.91l-.47-1,.23-.14Z"/><path d="M10.11,22l.23-.13.5,1.11c-.22.09-.29,0-.35-.13S10.24,22.27,10.11,22Z"/><path d="M14.37,22l.24-.12L15.12,23c-.21.07-.3.05-.36-.13S14.51,22.28,14.37,22Z"/><path d="M22.83,21.85l.5,1.11c-.22.1-.29,0-.35-.13s-.25-.56-.38-.85Z"/><path d="M34.54,22l.23-.13L35.29,23H35Z"/><path d="M19.12,23h-.23l-.47-1,.21-.13A3.91,3.91,0,0,1,19.12,23Z"/><path d="M20,22l.11.16-.3.88h-.23A1.6,1.6,0,0,1,20,22Z"/><path d="M32.92,22l.11.16-.3.88h-.21A1.47,1.47,0,0,1,32.92,22Z"/><path d="M36.22,22.13l-.31.88H35.7a1.49,1.49,0,0,1,.4-1Z"/><path d="M11.48,23l-.23,0a1.6,1.6,0,0,1,.42-1l.12.15Z"/><path d="M15.94,22l.12.17-.31.87h-.21A1.53,1.53,0,0,1,15.94,22Z"/><path d="M24,23l-.22,0a1.53,1.53,0,0,1,.42-1l.11.15Z"/><path d="M3.59,23A1.56,1.56,0,0,1,4,22l.11.15L3.81,23Z"/><path d="M7.39,23H7.16V22h.23Z"/><path d="M27.55,23h-.23V22h.23Z"/><path d="M19.16,22.29h.25V23h-.25Z"/><path d="M3.42,23H3.18v-.7h.24Z"/><path d="M10.85,23v-.71h.23V23Z"/><path d="M15.36,23h-.24v-.71h.24Z"/><path d="M23.58,23h-.23v-.71h.23Z"/><path d="M32.11,22.29h.23V23h-.23Z"/><path d="M35.52,23h-.23v-.71h.23Z"/><path d="M9.64,6.74V6.59c0-.15.09-.17.22-.1a.58.58,0,0,1,.15.8c-.1.11-.2.06-.25,0a4.13,4.13,0,0,1-.15-.5Z"/><path d="M8.38,12.11a.52.52,0,1,1,.6-.5A.55.55,0,0,1,8.38,12.11Z"/><path d="M8.4,16.56a.6.6,0,0,1,.61.51.4.4,0,0,1-.42.4A.59.59,0,0,1,8,17,.41.41,0,0,1,8.4,16.56Z"/><path d="M23,9.33h-.87c.19,0,.22-.17.22-.33,0-.44,0-.89,0-1.33,0-.16,0-.28-.21-.31H23c-.18,0-.22.15-.21.32s0,.38,0,.58h.71c0-.23,0-.46,0-.68s-.12-.16-.17-.23h.89c-.22,0-.24.17-.24.35,0,.44,0,.87,0,1.31,0,.17.05.29.24.31h-.93c.21,0,.22-.19.22-.36V8.38h-.71c0,.24,0,.49,0,.73C22.83,9.19,22.93,9.26,23,9.33Z"/><path d="M23.86,16.47c.21,0,.23-.19.23-.36,0-.44,0-.87,0-1.31,0-.17,0-.31-.24-.31a11.39,11.39,0,0,1,1.17,0,1,1,0,0,1,.05,1.9C24.67,16.46,24.26,16.45,23.86,16.47Zm.7-1.92c0,.57,0,1.12,0,1.66,0,.06.11.14.17.15a.43.43,0,0,0,.48-.38,3.72,3.72,0,0,0,0-1C25.16,14.64,24.94,14.53,24.56,14.55Z"/><path d="M26.49,9.23c.08.26-.1.54.17.73H26a1.37,1.37,0,0,0,.07-.29c0-.47,0-.93,0-1.4A1,1,0,0,0,26,8c.15,0,.37-.12.53.1.4-.28.76-.14.85.36a1.25,1.25,0,0,1,0,.51C27.28,9.36,27,9.46,26.49,9.23Zm0-.54h0a1,1,0,0,0,0,.35c0,.1.16.17.24.25s.19-.14.2-.22a3,3,0,0,0,0-.73c0-.09-.13-.16-.2-.23a1.13,1.13,0,0,0-.24.25A.9.9,0,0,0,26.51,8.69Z"/><path d="M27.71,8c.15,0,.36-.08.54.1.32-.19.51-.19.7,0a1,1,0,0,1,0,1.05c-.17.23-.39.26-.79.08.06.25-.12.53.16.72h-.65a1.29,1.29,0,0,0,.08-.28V8.27A1.57,1.57,0,0,0,27.71,8Zm.5.72c0,.12,0,.24,0,.34s.15.17.23.25.2-.14.21-.22a3.47,3.47,0,0,0,0-.72c0-.09-.14-.17-.22-.24a.9.9,0,0,0-.22.26A.91.91,0,0,0,28.21,8.7Z"/><path d="M25.57,11.66a1.34,1.34,0,0,1,.23-.13.33.33,0,0,1,.49.31c0,.25,0,.49,0,.74a1.63,1.63,0,0,0,.07.3h-.56a2.2,2.2,0,0,0,.05-1.08s-.12-.08-.18-.07-.13.09-.13.15a2.3,2.3,0,0,0,0,1H25a1.91,1.91,0,0,0,0-1.37C25.19,11.6,25.41,11.42,25.57,11.66Z"/><path d="M29.18,12.89h-.61a1.91,1.91,0,0,0,0-1.37c.22.07.43-.08.6.14.05,0,.1-.08.16-.11a.37.37,0,0,1,.57.32c0,.24,0,.49,0,.72a1.53,1.53,0,0,0,.07.29h-.56a2.16,2.16,0,0,0,.05-1.07s-.14-.09-.19-.07a.27.27,0,0,0-.14.19,7.3,7.3,0,0,0,0,.81S29.15,12.83,29.18,12.89Z"/><path d="M20.25,13c-.34-.71-.58-1.41-.93-2.05h.82c-.22,0-.24.13-.17.29.16.35.3.69.48,1.1.18-.41.35-.77.49-1.15,0-.06-.09-.17-.13-.25h.45c-.1.18-.23.37-.32.57C20.71,12,20.49,12.44,20.25,13Z"/><path d="M22.53,12.8c-.17.2-.36.2-.55,0l-.3.14a.27.27,0,0,1-.36-.08.26.26,0,0,1,.05-.38,2.13,2.13,0,0,1,.47-.31.32.32,0,0,0,.11-.47.33.33,0,0,0-.26-.05c-.11,0-.06.11,0,.2a.24.24,0,0,1,0,.23.22.22,0,0,1-.22,0,.31.31,0,0,1-.08-.23c.06-.21.41-.35.7-.31a.42.42,0,0,1,.39.46c0,.19,0,.38,0,.57A1,1,0,0,0,22.53,12.8ZM22,12.16c-.18.1-.31.2-.32.38s.08.12.13.18.17-.08.19-.14A2,2,0,0,0,22,12.16Z"/><path d="M25.74,9.24c-.16.2-.35.2-.54,0a1,1,0,0,1-.32.14.47.47,0,0,1-.33-.08.25.25,0,0,1,0-.36A2.17,2.17,0,0,1,25,8.58c.18-.11.26-.26.15-.44a.33.33,0,0,0-.26-.1c-.12,0-.1.1-.05.21a.24.24,0,0,1,0,.23.26.26,0,0,1-.24,0,.26.26,0,0,1-.05-.23.67.67,0,0,1,.71-.3c.26,0,.36.19.37.48s0,.37,0,.55A1.71,1.71,0,0,0,25.74,9.24Zm-.52-.61-.07,0a1.61,1.61,0,0,0-.24.36s.07.14.11.2.18-.09.2-.16A1.52,1.52,0,0,0,25.22,8.63Z"/><path d="M27.35,16.36c-.16.2-.35.2-.54,0a1,1,0,0,1-.32.14.47.47,0,0,1-.33-.09.25.25,0,0,1,0-.36,2.55,2.55,0,0,1,.47-.31c.18-.11.26-.27.15-.44a.3.3,0,0,0-.26-.1c-.12,0-.1.1-.05.21a.21.21,0,0,1,0,.22.26.26,0,0,1-.24,0,.28.28,0,0,1-.05-.24.68.68,0,0,1,.71-.29c.26,0,.36.19.37.48s0,.37,0,.55A1.71,1.71,0,0,0,27.35,16.36Zm-.52-.62-.09,0a3.07,3.07,0,0,0-.23.39s.06.17.11.17.19-.05.2-.09A3.2,3.2,0,0,0,26.83,15.74Z"/><path d="M22.78,10.91h.51v.37c0,.43,0,.85,0,1.27a1.3,1.3,0,0,0,.07.33H22.8A4.84,4.84,0,0,0,22.78,10.91Z"/><path d="M29.72,9.81a.47.47,0,0,0,.21-.61c-.12-.27-.24-.55-.37-.82s-.14-.26-.22-.39H30c-.11.15,0,.41.26.86.05-.3.34-.53.15-.86h.31c-.07.13-.14.27-.2.41-.17.41-.33.83-.51,1.25a.74.74,0,0,1-.17.25.27.27,0,0,1-.42-.06.21.21,0,0,1,0-.19.2.2,0,0,1,.17-.09c.05,0,.09.08.13.14S29.7,9.76,29.72,9.81Z"/><path d="M28,16.88a.45.45,0,0,0,.2-.45l-.54-1.17a.42.42,0,0,0-.13-.14h.64c-.12.33.18.54.26.82.06-.28.38-.51.16-.84h.3c-.19.46-.37.92-.57,1.38a1.81,1.81,0,0,1-.18.4.51.51,0,0,1-.26.2.23.23,0,0,1-.3-.19c0-.07.09-.15.14-.22Z"/><path d="M24.77,12.13H24c0,.23.06.45.27.52s.3-.05.46-.08a.64.64,0,0,1-.33.32.54.54,0,0,1-.57-.08A.81.81,0,0,1,24,11.58a.5.5,0,0,1,.54,0A.59.59,0,0,1,24.77,12.13ZM24.48,12c-.07-.18-.13-.31-.19-.44s-.14,0-.15,0S24,11.88,24,12Z"/><path d="M31.38,12.57a.53.53,0,0,1-.56.36.54.54,0,0,1-.52-.49.79.79,0,0,1,.17-.75.55.55,0,0,1,.63-.15.57.57,0,0,1,.31.59h-.74c0,.23.06.46.28.52S31.25,12.6,31.38,12.57ZM31.12,12c-.06-.17-.11-.31-.17-.44s-.14,0-.15,0a4.54,4.54,0,0,0-.19.43Z"/><path d="M32.57,12.88l0-.39a2.27,2.27,0,0,0,.31.31c.07,0,.18,0,.28,0s0-.2-.08-.25a3,3,0,0,0-.35-.27.42.42,0,0,1,.42-.73.67.67,0,0,0,.25,0l0,.45a1.43,1.43,0,0,0-.14-.22A.55.55,0,0,0,33,11.6a.2.2,0,0,0-.19.06.19.19,0,0,0,0,.17c.11.1.23.17.34.26a.45.45,0,0,1,.18.62.45.45,0,0,1-.58.18A1.09,1.09,0,0,0,32.57,12.88Z"/><path d="M27.53,12.62c-.13.25-.28.35-.46.31a.36.36,0,0,1-.27-.42v-.83l-.18,0,.57-.6,0,.47.32.05v.07l-.32,0c0,.3,0,.61,0,.91S27.29,12.76,27.53,12.62Z"/><path d="M28.19,11.55a8.34,8.34,0,0,0,.08,1.33h-.56a2.08,2.08,0,0,0,0-1.33Z"/><path d="M31.9,11.79l.25-.45-.06,0s-.07,0-.09,0-.2-.07-.23-.14a.2.2,0,0,1,.05-.23.3.3,0,0,1,.26-.06.39.39,0,0,1,.16.57,2.17,2.17,0,0,1-.32.36Z"/><path d="M28,11.37c-.1-.14-.21-.23-.2-.3a.29.29,0,0,1,.21-.19.28.28,0,0,1,.21.2C28.22,11.15,28.11,11.24,28,11.37Z"/><path d="M5.65,13.81l-.17,0a9.5,9.5,0,0,1-2.15.58,2,2,0,0,1-1.45-.33.85.85,0,0,1-.32-1,1.8,1.8,0,0,1,.63-.88,11.6,11.6,0,0,1,3.28-1.82l.06,0a11,11,0,0,1-.46-1.2A2.92,2.92,0,0,1,5.38,7,5.28,5.28,0,0,1,6.49,5.52a.42.42,0,0,0,.14-.26A1.42,1.42,0,0,1,7.7,4.16a.68.68,0,0,1,.71.74.43.43,0,0,0,0,0c.37.11.75.21,1.11.35A2.8,2.8,0,0,1,11,6.49a.58.58,0,0,0,.19.15,2.51,2.51,0,0,1,.93.75,1.2,1.2,0,0,1,.14,1.26q-.13.3-.3.6a1.25,1.25,0,0,1-.85.67L11,10s0,0,0,.06a11.85,11.85,0,0,0,1.27-.27,4.34,4.34,0,0,1,1.73-.2c0-.17,0-.34,0-.51,0-.73-.08-1.47-.14-2.21a.47.47,0,0,0-.16-.29c-.46-.36-.93-.69-1.38-1.06a2.65,2.65,0,0,1-.9-1.21A1.08,1.08,0,0,1,11.85,3a1,1,0,0,1,1.32.21,2.8,2.8,0,0,1,.22.25l.06-.13a1,1,0,0,1,1.29-.76,1.12,1.12,0,0,1,.85,1.32A3.33,3.33,0,0,1,15,5.22c-.23.34-.47.67-.73,1a1.08,1.08,0,0,0-.22.85c.07.79.08,1.58.1,2.37,0,.13,0,.2.16.25a.67.67,0,0,1,.42.6,1.67,1.67,0,0,1-.6,1.55.53.53,0,0,0-.21.39c-.09.62-.19,1.24-.29,1.86l-.26,0,.29-1.82h-.07c-.52.25-1,.51-1.55.75-.14.06-.16.12-.13.26a4.5,4.5,0,0,1,0,2.36c-.05.16-.12.31-.18.47a.74.74,0,0,0,1-.19,1.72,1.72,0,0,1,1.05-.63,1.18,1.18,0,0,1,1.37,1.13,5.75,5.75,0,0,1-.42,2.53,1.17,1.17,0,0,1-1.15.68,3.42,3.42,0,0,1-.83-.1c-.53-.08-1-.2-1.58-.27a9.53,9.53,0,0,1-2.1-.54c-.15-.06-.32-.2-.49,0a.48.48,0,0,0,0,.63,1.64,1.64,0,0,1,.14,1.4,1.3,1.3,0,0,1-1.66.89,3.85,3.85,0,0,1-2-1.34,1.35,1.35,0,0,1-.16-1.38,5.14,5.14,0,0,1,1.2-1.85.22.22,0,0,0,0-.33,4.15,4.15,0,0,1-.46-1.89C5.64,14.51,5.65,14.17,5.65,13.81Zm5.37-7S11,6.93,11,7c0,.58-.06,1.16,0,1.73a1.34,1.34,0,0,0,.34.91A2.21,2.21,0,0,0,12,8.46s0-.08,0-.12q-.06-.39-.15-.78a.32.32,0,0,0-.1-.19c-.23-.18-.48-.35-.71-.52-.08,0-.19-.07-.23-.14A2.82,2.82,0,0,0,9,5.36c-.6-.18-.65-.13-.68.51a7,7,0,0,1-.14.86l-.27-.11A2.52,2.52,0,0,0,8,5.44a1.63,1.63,0,0,1,.13-.56c0-.07.06-.19,0-.21a1.28,1.28,0,0,0-.4-.25s-.16.18-.19.29A2.52,2.52,0,0,0,7.58,6c.07.3.16.6.24.91a.33.33,0,0,1-.47-.11c-.26-.33-.48-.68-.73-1A4.68,4.68,0,0,0,5.44,7.49,2.74,2.74,0,0,0,5.66,10c.17.29.17.27.5.22.5-.07,1-.12,1.51-.18a5.33,5.33,0,0,1-.09-2.86h.23c0,.53-.12,1.06-.11,1.58a5.71,5.71,0,0,0,.21,1.14.53.53,0,0,0,.29.23c.31.1.64.17,1,.25.05,0,.11,0,.15,0l1.63-.68a5,5,0,0,1-.23-2.84ZM6.24,13.48v0c.76,0,1.53,0,2.29,0a1.16,1.16,0,0,0,1.13-.83,4.06,4.06,0,0,0,.16-1.1,1,1,0,0,0-.49-.86,2,2,0,0,0-.55-.26,5,5,0,0,0-2.51-.06,10,10,0,0,0-4,2,2,2,0,0,0-.46.67.58.58,0,0,0,.3.83,1.65,1.65,0,0,0,1.1.24,7.55,7.55,0,0,0,3.18-1.13l.16-.1.15.2Zm8.52,2.45a.89.89,0,0,0-1.24-.31,2.3,2.3,0,0,0-.57.46,1,1,0,0,1-1,.32L10.13,16a5.35,5.35,0,0,0-1.78-.15.85.85,0,0,0-.79.75,1.34,1.34,0,0,0,.8,1.54,9.79,9.79,0,0,0,2.37.76,15.48,15.48,0,0,1,2.32.42,1.42,1.42,0,0,0,1.07-.09.28.28,0,0,0,.15-.17c.09-.86.16-1.72.24-2.58C14.53,16.27,14.54,16.05,14.76,15.93ZM11,11.43l-.08,0a.57.57,0,0,1,0,.13l-.16.24a1.81,1.81,0,0,1-.18-.21L10.25,11,10,11.1a2.39,2.39,0,0,1,0,1.35A1.58,1.58,0,0,1,8.3,13.79l-2.15,0c-.14,0-.21,0-.21.18s0,.52,0,.78a4.06,4.06,0,0,0,.5,2,1.94,1.94,0,0,0,1,.82c0-.17-.08-.3-.11-.44a1.21,1.21,0,0,1,1-1.5,3.23,3.23,0,0,1,.82,0c.62.09,1.24.2,1.86.32s.67.14.83-.52A4.67,4.67,0,0,0,11.6,13C11.44,12.46,11.23,11.94,11,11.43ZM6.38,17.12a4.83,4.83,0,0,0-1.29,2,1,1,0,0,0,.15,1,3.79,3.79,0,0,0,1.85,1.24,1,1,0,0,0,1.37-.72,1.35,1.35,0,0,0-.14-1.22.69.69,0,0,1,0-.82l.07-.1-.77-.6-.1,0A2.44,2.44,0,0,1,6.38,17.12Zm6-7.11-1.54.3,1,2.51,1.44-.67C12.47,11.64,12,11,12.37,10ZM7.3,4.67c-.59.33-.5,1.16.12,1.76A3.51,3.51,0,0,1,7.3,4.67ZM10,10.36l-.43.17c.32.37.32.37.56.17Zm.59.44c.2-.19.06-.34,0-.51l-.22.25Z"/><path d="M36.29,19.48,36.12,19c-.08.47-.41.55-.76.57A3.41,3.41,0,0,1,34,19.38c-.83-.26-1.65-.54-2.49-.74a3.29,3.29,0,0,0-3,.61l-.11.06c0-.5,0-1,0-1.45,0,0,.1-.09.15-.1l1.61-.27c-.33,0-.66,0-1,.06l-6.37.95A27,27,0,0,1,18.3,19a4.52,4.52,0,0,1-1.74-.33.71.71,0,0,1-.48-.75q0-6.12,0-12.26V5.39h.24A1.14,1.14,0,0,0,17,6a6.33,6.33,0,0,0,2,.64,15.49,15.49,0,0,0,4.3.1c1.94-.19,3.84-.6,5.75-1A20.58,20.58,0,0,1,34,5.22a4.07,4.07,0,0,1,2.2.65.37.37,0,0,1,.16.26q0,6.65,0,13.28v.06Zm-.22-1.14V6.83c0-.85,0-.87-.83-1.14l-.06,0a7,7,0,0,0-2.94-.14c-1.28.17-2.55.4-3.82.64a40.31,40.31,0,0,1-6.56.92A9.72,9.72,0,0,1,16.37,6v.2c0,3.9,0,7.8,0,11.69a.53.53,0,0,0,.39.58,4.67,4.67,0,0,0,1.7.28,26.06,26.06,0,0,0,4.12-.43c2-.31,4.06-.64,6.1-.92a16.82,16.82,0,0,1,4.7,0A5.23,5.23,0,0,1,36.07,18.34Zm-7.36.46.22-.11a8,8,0,0,1,1-.34,4.85,4.85,0,0,1,2.39.19c.73.22,1.43.48,2.15.71a2.14,2.14,0,0,0,1.15.07c.27-.08.33-.27.1-.43a3.58,3.58,0,0,0-.87-.5,11,11,0,0,0-2.95-.62,11.84,11.84,0,0,0-3,.2c-.05,0-.12.07-.12.11C28.71,18.31,28.71,18.54,28.71,18.8Zm7.37,0a1.8,1.8,0,0,0-.26-.34A4.48,4.48,0,0,0,35,18a9.22,9.22,0,0,0-3.21-.55c-.45,0-.9,0-1.35,0a2.81,2.81,0,0,0,.65.05,11.3,11.3,0,0,1,3.65.59A3,3,0,0,1,36.08,18.84Z"/><path d="M24.08,5.05c0,.46,0,.87,0,1.29,0,0-.1.12-.16.14a11.61,11.61,0,0,1-2.42.23,11.09,11.09,0,0,1-3.75-.52L17,5.88a1.79,1.79,0,0,1-.34-.22.46.46,0,0,1,.15-.84,1.76,1.76,0,0,1,1.11,0c.64.19,1.26.44,1.9.62a17.18,17.18,0,0,0,1.73.37A3.07,3.07,0,0,0,24,5.14Zm-.25.57c-.39.13-.76.3-1.15.39a4.91,4.91,0,0,1-2.46-.19c-.72-.21-1.42-.47-2.14-.7a1.93,1.93,0,0,0-1.14-.07.37.37,0,0,0-.22.2.32.32,0,0,0,.14.23,6.85,6.85,0,0,0,.71.37,8.56,8.56,0,0,0,2.78.57,13.74,13.74,0,0,0,3.33-.15.25.25,0,0,0,.14-.16A4.09,4.09,0,0,0,23.83,5.62Z"/><path d="M7.34,23.17c-.23.08-.3,0-.35-.17-.1-.43-.26-.85-.4-1.3l.25-.09Z"/><path d="M26.76,21.7l.24-.09.5,1.54c-.26.1-.27.09-.34-.14C27,22.58,26.9,22.15,26.76,21.7Z"/><path d="M8,23.21H7.86l-.1,0a2.56,2.56,0,0,1,.38-1.39l.11.1s.05.05,0,0Z"/><path d="M28.31,21.8l.19.17h-.07l-.29,1.22h-.22A2.67,2.67,0,0,1,28.31,21.8Z"/><path d="M31.79,22.05l.51,1.12c-.21.06-.3.06-.36-.13a9.35,9.35,0,0,0-.39-.87Z"/><path d="M3.38,23.2H3.11l-.47-1L2.87,22Z"/><path d="M10.3,22.17l.24-.13.5,1.12c-.22.09-.29,0-.36-.13A9.06,9.06,0,0,0,10.3,22.17Z"/><path d="M14.57,22.17l.24-.12.5,1.12c-.2.07-.29,0-.35-.13A9.35,9.35,0,0,0,14.57,22.17Z"/><path d="M23,22.05l.5,1.11c-.22.1-.29,0-.35-.13s-.25-.56-.38-.86Z"/><path d="M34.73,22.17l.24-.12.52,1.14H35.2Z"/><path d="M19.32,23.2h-.23l-.47-1,.21-.13A3.91,3.91,0,0,1,19.32,23.2Z"/><path d="M20.19,22.17l.11.16-.31.88-.22,0A1.53,1.53,0,0,1,20.19,22.17Z"/><path d="M33.12,22.17l.11.16-.3.88-.22,0A1.52,1.52,0,0,1,33.12,22.17Z"/><path d="M36.42,22.33l-.31.88H35.9a1.44,1.44,0,0,1,.4-1Z"/><path d="M11.68,23.22l-.23,0a1.6,1.6,0,0,1,.42-1l.12.15Z"/><path d="M16.14,22.17l.12.16-.31.88h-.22A1.59,1.59,0,0,1,16.14,22.17Z"/><path d="M24.17,23.21l-.22,0a1.51,1.51,0,0,1,.42-1l.11.15Z"/><path d="M3.78,23.19a1.66,1.66,0,0,1,.42-1l.12.15L4,23.21Z"/><path d="M7.59,23.2H7.35v-1h.24Z"/><path d="M27.75,23.2h-.23v-1h.23Z"/><path d="M19.36,22.49h.25v.71h-.25Z"/><path d="M3.62,23.2H3.38v-.71h.24Z"/><path d="M11.05,23.2v-.71h.23v.71Z"/><path d="M15.56,23.2h-.24v-.71h.24Z"/><path d="M23.78,23.2h-.23v-.71h.23Z"/><path d="M32.31,22.49h.23v.71h-.23Z"/><path d="M35.72,23.2h-.23v-.71h.23Z"/><path d="M9.84,6.94V6.79c0-.15.09-.18.22-.11a.6.6,0,0,1,.15.81.14.14,0,0,1-.25,0A4.74,4.74,0,0,1,9.81,7Z"/><path d="M8.58,12.31A.58.58,0,0,1,8,11.8a.58.58,0,0,1,.61-.52.52.52,0,1,1,0,1Z"/><path d="M8.6,16.76a.59.59,0,0,1,.61.5.4.4,0,0,1-.43.41.61.61,0,0,1-.62-.52A.42.42,0,0,1,8.6,16.76Z"/><path d="M23.18,9.53h-.87c.19,0,.22-.17.21-.33V7.87c0-.16,0-.28-.21-.32h.91c-.18,0-.22.16-.21.33s0,.38,0,.58h.71a5.12,5.12,0,0,0,0-.68c0-.09-.11-.17-.16-.23h.89c-.22,0-.24.17-.24.35,0,.43,0,.87,0,1.31,0,.17,0,.29.24.31h-.93c.21,0,.22-.19.22-.36V8.57H23c0,.25,0,.5,0,.74C23,9.39,23.13,9.46,23.18,9.53Z"/><path d="M24.06,16.67c.2-.05.23-.19.23-.36,0-.44,0-.88,0-1.31,0-.18,0-.31-.24-.31a11.39,11.39,0,0,1,1.17,0,1,1,0,0,1,.05,1.9C24.87,16.66,24.46,16.65,24.06,16.67Zm.7-1.92c0,.56,0,1.11,0,1.66,0,.05.11.14.17.15a.43.43,0,0,0,.48-.39,3.72,3.72,0,0,0,0-1C25.36,14.84,25.14,14.73,24.76,14.75Z"/><path d="M26.69,9.43c.08.26-.1.54.17.73h-.65a1,1,0,0,0,.08-.3c0-.46,0-.92,0-1.39a1.74,1.74,0,0,0-.07-.29c.15.05.37-.11.53.11a.49.49,0,0,1,.85.35,1.3,1.3,0,0,1,0,.52C27.48,9.56,27.16,9.66,26.69,9.43Zm0-.54h0a1,1,0,0,0,0,.35c0,.1.16.17.24.25.07-.07.19-.14.2-.22a3,3,0,0,0,0-.73c0-.09-.13-.16-.2-.24a1.45,1.45,0,0,0-.24.26A.9.9,0,0,0,26.71,8.89Z"/><path d="M27.91,8.18c.15,0,.36-.08.54.1.32-.19.5-.19.7,0a1,1,0,0,1,0,1c-.17.23-.4.26-.8.08.07.25-.12.53.17.72h-.65A1,1,0,0,0,28,9.88c0-.47,0-.94,0-1.42A1,1,0,0,0,27.91,8.18Zm.49.72a1,1,0,0,0,0,.34,1.13,1.13,0,0,0,.24.25c.07-.07.2-.14.21-.22a3.56,3.56,0,0,0,0-.73c0-.08-.13-.16-.21-.24a1.43,1.43,0,0,0-.23.27A1.2,1.2,0,0,0,28.4,8.9Z"/><path d="M25.77,11.85a2.53,2.53,0,0,1,.23-.12.34.34,0,0,1,.49.31c0,.24,0,.49,0,.74a1.09,1.09,0,0,0,.07.3H26A2.32,2.32,0,0,0,26.07,12a.25.25,0,0,0-.18-.07.26.26,0,0,0-.14.15,2.41,2.41,0,0,0,0,1H25.2a1.86,1.86,0,0,0,0-1.37C25.38,11.8,25.61,11.62,25.77,11.85Z"/><path d="M29.38,13.09h-.61a2,2,0,0,0,0-1.37c.21.07.43-.08.6.14a1.11,1.11,0,0,1,.16-.11.36.36,0,0,1,.56.32c0,.24,0,.48,0,.72a1.57,1.57,0,0,0,.08.29h-.57A2.08,2.08,0,0,0,29.63,12s-.15-.08-.19-.06a.27.27,0,0,0-.14.19,7.12,7.12,0,0,0,0,.8C29.3,13,29.35,13,29.38,13.09Z"/><path d="M20.45,13.17c-.35-.71-.59-1.42-.94-2.05h.82c-.21,0-.23.13-.16.29.16.34.3.69.48,1.1.18-.42.35-.78.49-1.15,0-.06-.09-.17-.13-.25h.45c-.1.18-.23.37-.33.57Z"/><path d="M22.72,13c-.16.21-.35.21-.54,0l-.3.14a.29.29,0,0,1-.32-.47,2.59,2.59,0,0,1,.48-.3.32.32,0,0,0,.11-.47.29.29,0,0,0-.26,0c-.12,0-.06.11,0,.2a.27.27,0,0,1,0,.23.22.22,0,0,1-.22,0,.29.29,0,0,1-.08-.23.65.65,0,0,1,.7-.31.4.4,0,0,1,.38.46c0,.19,0,.38,0,.57A1.33,1.33,0,0,0,22.72,13Zm-.52-.63c-.18.09-.32.19-.32.38s.08.12.12.18.18-.08.19-.15A1.81,1.81,0,0,0,22.2,12.36Z"/><path d="M25.94,9.44c-.16.2-.35.2-.54,0a1,1,0,0,1-.32.14.53.53,0,0,1-.33-.08.24.24,0,0,1,0-.36,2.17,2.17,0,0,1,.47-.32c.18-.11.26-.26.15-.44a.3.3,0,0,0-.26-.1c-.12,0-.1.1-.05.21a.21.21,0,0,1,0,.22.26.26,0,0,1-.24,0,.27.27,0,0,1-.05-.23.67.67,0,0,1,.71-.3c.26,0,.36.19.36.48s0,.37,0,.55A1.09,1.09,0,0,0,25.94,9.44Zm-.52-.61-.08,0a2.92,2.92,0,0,0-.24.37s.08.13.12.2.18-.09.19-.16A1.13,1.13,0,0,0,25.42,8.83Z"/><path d="M27.55,16.55c-.16.21-.35.21-.54,0a1.12,1.12,0,0,1-.32.14.46.46,0,0,1-.33-.09.24.24,0,0,1,0-.36,3.23,3.23,0,0,1,.47-.32.3.3,0,0,0,.15-.44.3.3,0,0,0-.26-.09c-.12,0-.1.1,0,.2a.23.23,0,0,1,0,.23.26.26,0,0,1-.24,0,.28.28,0,0,1-.05-.24c.07-.21.43-.34.71-.29s.36.19.36.48,0,.37,0,.55A.91.91,0,0,0,27.55,16.55ZM27,15.94l-.08,0a3.07,3.07,0,0,0-.23.39s.06.16.1.17.2,0,.21-.1A3.09,3.09,0,0,0,27,15.94Z"/><path d="M23,11.11h.52v1.64a2,2,0,0,0,.08.33H23A4.67,4.67,0,0,0,23,11.11Z"/><path d="M29.92,10a.47.47,0,0,0,.21-.61c-.12-.27-.25-.55-.38-.82a3.72,3.72,0,0,0-.21-.39h.63c-.11.15,0,.41.25.86.06-.3.34-.53.16-.86h.31c-.07.13-.14.27-.2.4-.17.42-.33.84-.51,1.25a.61.61,0,0,1-.18.26.28.28,0,0,1-.42-.06.34.34,0,0,1,0-.2.23.23,0,0,1,.17-.08c.05,0,.1.08.13.14S29.9,10,29.92,10Z"/><path d="M28.2,17.08a.46.46,0,0,0,.19-.45c-.17-.4-.35-.78-.53-1.17a1.53,1.53,0,0,0-.13-.15h.64c-.12.34.18.55.26.83.05-.28.38-.51.16-.84h.3c-.19.45-.38.92-.57,1.38a1.81,1.81,0,0,1-.18.4.45.45,0,0,1-.26.19.22.22,0,0,1-.3-.18c0-.07.09-.15.14-.22Z"/><path d="M25,12.33h-.75c0,.23.06.45.27.52a1.09,1.09,0,0,0,.45-.09.57.57,0,0,1-.32.33.52.52,0,0,1-.57-.09.8.8,0,0,1,.11-1.22.48.48,0,0,1,.54,0A.59.59,0,0,1,25,12.33Zm-.29-.09c-.08-.18-.13-.32-.2-.44s-.13,0-.14,0-.11.27-.17.43Z"/><path d="M31.58,12.77a.53.53,0,0,1-.56.36.56.56,0,0,1-.53-.49.8.8,0,0,1,.18-.75.55.55,0,0,1,.63-.15.57.57,0,0,1,.31.59h-.74c0,.23.06.45.28.52S31.45,12.79,31.58,12.77Zm-.26-.54c-.07-.16-.11-.3-.18-.43s-.13,0-.14,0a4.28,4.28,0,0,0-.19.42Z"/><path d="M32.76,13.08l0-.39a1.82,1.82,0,0,0,.31.31c.06,0,.18,0,.28,0s0-.2-.08-.25a3,3,0,0,0-.35-.27.42.42,0,0,1-.12-.57.42.42,0,0,1,.53-.16.72.72,0,0,0,.26,0l0,.44a2.13,2.13,0,0,0-.13-.21.55.55,0,0,0-.22-.18.2.2,0,0,0-.19.06s0,.13,0,.17a2.7,2.7,0,0,0,.34.25.46.46,0,0,1,.18.62.44.44,0,0,1-.58.19A1.15,1.15,0,0,0,32.76,13.08Z"/><path d="M27.73,12.82c-.13.25-.28.35-.46.3s-.28-.2-.27-.41v-.83l-.18,0,.57-.6,0,.46.32.06v.07l-.32,0c0,.3,0,.6,0,.91S27.49,13,27.73,12.82Z"/><path d="M28.39,11.74a7.37,7.37,0,0,0,.08,1.34h-.56a2.19,2.19,0,0,0,0-1.34Z"/><path d="M32.1,12l.25-.45-.06,0s-.07,0-.09,0-.2-.07-.24-.14a.26.26,0,0,1,0-.24.33.33,0,0,1,.27-.05c.2.05.28.33.15.57a1.74,1.74,0,0,1-.31.36Z"/><path d="M28.2,11.57c-.1-.14-.22-.23-.2-.3s.14-.2.21-.19a.28.28,0,0,1,.21.2C28.42,11.35,28.3,11.43,28.2,11.57Z"/></g><g class="cls-3"><path d="M5.31,13.47l-.17,0A9.5,9.5,0,0,1,3,14.09a2,2,0,0,1-1.45-.33.85.85,0,0,1-.32-1,1.8,1.8,0,0,1,.63-.88A11.6,11.6,0,0,1,5.13,10l.06,0c-.16-.4-.35-.79-.47-1.2A3,3,0,0,1,5,6.64,5.28,5.28,0,0,1,6.15,5.18a.45.45,0,0,0,.14-.26,1.42,1.42,0,0,1,1.07-1.1.68.68,0,0,1,.71.74.43.43,0,0,0,0,.05c.37.11.75.21,1.11.35a2.8,2.8,0,0,1,1.44,1.19.58.58,0,0,0,.19.15,2.51,2.51,0,0,1,.93.75,1.2,1.2,0,0,1,.14,1.26q-.13.3-.3.6a1.25,1.25,0,0,1-.85.67l-.12.05s0,0,0,.06a11.85,11.85,0,0,0,1.27-.27,4.34,4.34,0,0,1,1.73-.2c0-.17,0-.34,0-.51,0-.73-.08-1.47-.14-2.21a.47.47,0,0,0-.16-.29c-.46-.36-.93-.69-1.38-1.06A2.65,2.65,0,0,1,11,3.94a1.07,1.07,0,0,1,.5-1.31,1,1,0,0,1,1.32.21,2.8,2.8,0,0,1,.22.25L13.11,3A1,1,0,0,1,14.4,2.2a1.12,1.12,0,0,1,.85,1.32,3.33,3.33,0,0,1-.56,1.36c-.23.34-.47.67-.73,1a1.08,1.08,0,0,0-.22.85c.07.79.08,1.58.1,2.37,0,.13,0,.2.16.25a.67.67,0,0,1,.42.6,1.64,1.64,0,0,1-.6,1.54.57.57,0,0,0-.21.4c-.09.62-.19,1.24-.29,1.86l-.26,0,.29-1.81h-.07c-.52.25-1,.51-1.56.75-.13.06-.15.12-.12.26a4.5,4.5,0,0,1,0,2.36c0,.16-.12.31-.18.47a.74.74,0,0,0,1-.19,1.72,1.72,0,0,1,1.05-.63,1.18,1.18,0,0,1,1.37,1.13,5.77,5.77,0,0,1-.42,2.53,1.17,1.17,0,0,1-1.15.68,3.42,3.42,0,0,1-.83-.1c-.53-.08-1-.2-1.58-.27a9.53,9.53,0,0,1-2.1-.54c-.15-.06-.32-.2-.49,0a.48.48,0,0,0,0,.63,1.64,1.64,0,0,1,.14,1.4,1.3,1.3,0,0,1-1.66.89A3.85,3.85,0,0,1,4.7,20a1.35,1.35,0,0,1-.16-1.38,5.14,5.14,0,0,1,1.2-1.85.22.22,0,0,0,0-.33,4.19,4.19,0,0,1-.46-1.9C5.3,14.17,5.31,13.83,5.31,13.47Zm5.37-7s-.06.08-.06.12c0,.58-.06,1.16,0,1.73a1.3,1.3,0,0,0,.34.9,2.15,2.15,0,0,0,.75-1.14s0-.08,0-.12c-.05-.26-.09-.52-.15-.78a.32.32,0,0,0-.1-.19c-.23-.18-.48-.35-.71-.52-.08,0-.19-.07-.23-.14A2.82,2.82,0,0,0,8.61,5c-.6-.18-.65-.13-.68.51a7,7,0,0,1-.14.86l-.27-.11A2.52,2.52,0,0,0,7.65,5.1a1.63,1.63,0,0,1,.13-.56c0-.07.06-.19,0-.21a1.28,1.28,0,0,0-.4-.25s-.16.18-.19.29a2.52,2.52,0,0,0,0,1.28c.07.3.16.6.24.91A.34.34,0,0,1,7,6.45c-.26-.33-.48-.68-.73-1A4.68,4.68,0,0,0,5.1,7.15a2.74,2.74,0,0,0,.22,2.46c.17.29.17.27.5.22.5-.07,1-.12,1.51-.18a5.33,5.33,0,0,1-.09-2.86h.23c0,.53-.12,1.06-.11,1.58a5.71,5.71,0,0,0,.21,1.14.53.53,0,0,0,.29.23c.31.1.64.17,1,.25,0,0,.11,0,.15,0l1.63-.68a5,5,0,0,1-.23-2.84ZM5.9,13.14v0c.76,0,1.53,0,2.29,0a1.16,1.16,0,0,0,1.13-.83,4.06,4.06,0,0,0,.16-1.1A1,1,0,0,0,9,10.39a2,2,0,0,0-.55-.26,5,5,0,0,0-2.51-.06,10,10,0,0,0-4,2,2,2,0,0,0-.46.67.58.58,0,0,0,.3.83,1.65,1.65,0,0,0,1.1.24,7.55,7.55,0,0,0,3.18-1.13l.16-.1.15.2Zm8.52,2.45a.89.89,0,0,0-1.24-.31,2.3,2.3,0,0,0-.57.46,1,1,0,0,1-1,.32l-1.79-.41A5.1,5.1,0,0,0,8,15.5a.84.84,0,0,0-.79.75A1.34,1.34,0,0,0,8,17.79a9.79,9.79,0,0,0,2.37.76,15.48,15.48,0,0,1,2.32.42,1.42,1.42,0,0,0,1.07-.09.28.28,0,0,0,.15-.17c.09-.86.16-1.72.24-2.58C14.19,15.93,14.2,15.71,14.42,15.59Zm-3.72-4.5-.08,0a.57.57,0,0,1,0,.13l-.16.24a1.81,1.81,0,0,1-.18-.21l-.36-.66-.25.15a2.39,2.39,0,0,1,0,1.35A1.58,1.58,0,0,1,8,13.45l-2.15,0c-.14,0-.21,0-.21.18s0,.52,0,.78a4.06,4.06,0,0,0,.5,2,1.88,1.88,0,0,0,1,.81c0-.16-.08-.29-.11-.43a1.21,1.21,0,0,1,1-1.5,3.23,3.23,0,0,1,.82,0c.62.09,1.24.2,1.86.32s.67.14.83-.52a4.67,4.67,0,0,0-.16-2.4C11.1,12.12,10.89,11.6,10.7,11.09ZM6,16.78a4.83,4.83,0,0,0-1.29,2,1,1,0,0,0,.15,1A3.79,3.79,0,0,0,6.75,21a1,1,0,0,0,1.37-.72A1.35,1.35,0,0,0,8,19.1a.69.69,0,0,1,0-.82l.07-.1-.77-.6-.1,0A2.44,2.44,0,0,1,6,16.78Zm6-7.11-1.54.3,1,2.51L13,11.81C12.13,11.3,11.65,10.67,12,9.67ZM7,4.33c-.59.33-.5,1.16.12,1.76A3.51,3.51,0,0,1,7,4.33ZM9.65,10l-.43.17c.32.37.32.37.56.17Zm.59.44c.2-.19.06-.34,0-.51L10,10.2Z"/><path d="M36,19.14l-.17-.44c-.08.47-.41.55-.76.57A3.41,3.41,0,0,1,33.68,19c-.83-.26-1.65-.54-2.49-.74a3.29,3.29,0,0,0-3,.61l-.11.06c0-.5,0-1,0-1.45,0,0,.1-.09.15-.1l1.61-.27c-.33,0-.66,0-1,.06l-6.37.95a27,27,0,0,1-4.56.47,4.52,4.52,0,0,1-1.74-.33.71.71,0,0,1-.48-.75q0-6.12,0-12.26V5.05H16a1.14,1.14,0,0,0,.61.63,6.33,6.33,0,0,0,2,.64,15.49,15.49,0,0,0,4.3.1c1.94-.19,3.84-.6,5.75-1a21.09,21.09,0,0,1,4.94-.56,4.07,4.07,0,0,1,2.2.65.37.37,0,0,1,.16.26q0,6.65,0,13.28v.06ZM35.73,18V6.49c0-.85,0-.87-.83-1.14l-.06,0a7,7,0,0,0-2.94-.14c-1.28.17-2.55.4-3.82.64a40.31,40.31,0,0,1-6.56.92A9.72,9.72,0,0,1,16,5.63v.2c0,3.9,0,7.79,0,11.69a.53.53,0,0,0,.39.58,4.67,4.67,0,0,0,1.7.28A26.06,26.06,0,0,0,22.22,18c2-.31,4.06-.64,6.1-.92A16.82,16.82,0,0,1,33,17,5.23,5.23,0,0,1,35.73,18Zm-7.36.46.22-.11a8,8,0,0,1,1-.34A4.85,4.85,0,0,1,32,18.2c.73.22,1.43.48,2.15.71a2.11,2.11,0,0,0,1.14.07c.28-.08.34-.27.11-.44a4.14,4.14,0,0,0-.87-.49,11,11,0,0,0-2.95-.62,11.84,11.84,0,0,0-3,.2c-.05,0-.12.07-.12.11C28.37,18,28.37,18.2,28.37,18.46Zm7.37,0a1.8,1.8,0,0,0-.26-.34,4.48,4.48,0,0,0-.81-.49,9.22,9.22,0,0,0-3.21-.55c-.45,0-.9,0-1.35,0a2.35,2.35,0,0,0,.65,0,11.59,11.59,0,0,1,3.65.6A3,3,0,0,1,35.74,18.5Z"/><path d="M23.74,4.71c0,.46,0,.87,0,1.29,0,0-.1.12-.16.14a11.61,11.61,0,0,1-2.42.23,11.09,11.09,0,0,1-3.75-.52l-.74-.31a1.79,1.79,0,0,1-.34-.22.46.46,0,0,1,.15-.84,1.76,1.76,0,0,1,1.11,0c.64.19,1.26.44,1.9.62a17.18,17.18,0,0,0,1.73.37,3.07,3.07,0,0,0,2.4-.67Zm-.25.57c-.39.13-.76.3-1.15.39a4.91,4.91,0,0,1-2.46-.19c-.72-.21-1.42-.47-2.14-.7a1.93,1.93,0,0,0-1.14-.07.37.37,0,0,0-.22.2.32.32,0,0,0,.14.23,6.85,6.85,0,0,0,.71.37A8.56,8.56,0,0,0,20,6.08a13.74,13.74,0,0,0,3.33-.15.25.25,0,0,0,.14-.16A4.09,4.09,0,0,0,23.49,5.28Z"/><path d="M7,22.83c-.23.08-.3,0-.35-.17-.1-.43-.26-.85-.4-1.3l.25-.09Z"/><path d="M26.42,21.36l.24-.09.5,1.54c-.26.1-.27.09-.34-.14C26.7,22.24,26.56,21.81,26.42,21.36Z"/><path d="M7.63,22.87H7.52l-.1,0a2.56,2.56,0,0,1,.38-1.39l.11.1s0,.05,0,0Z"/><path d="M28,21.46l.19.17h-.07l-.29,1.21h-.22A2.57,2.57,0,0,1,28,21.46Z"/><path d="M31.45,21.71,32,22.83c-.21.06-.3.06-.37-.13a9.2,9.2,0,0,0-.38-.87Z"/><path d="M3,22.86H2.77l-.47-1,.23-.14Z"/><path d="M10,21.83l.24-.13.5,1.12c-.22.09-.29,0-.36-.13A9.06,9.06,0,0,0,10,21.83Z"/><path d="M14.23,21.83l.24-.12.5,1.12c-.2.07-.29.05-.35-.13A9.35,9.35,0,0,0,14.23,21.83Z"/><path d="M22.69,21.71l.5,1.11c-.22.1-.29,0-.35-.13s-.25-.56-.38-.86Z"/><path d="M34.39,21.83l.24-.12.52,1.14h-.29Z"/><path d="M19,22.86h-.23l-.47-1,.21-.13A3.91,3.91,0,0,1,19,22.86Z"/><path d="M19.85,21.83,20,22l-.31.88-.22,0A1.53,1.53,0,0,1,19.85,21.83Z"/><path d="M32.78,21.83l.11.16-.3.88-.22,0A1.52,1.52,0,0,1,32.78,21.83Z"/><path d="M36.08,22l-.31.88h-.21a1.44,1.44,0,0,1,.4-1Z"/><path d="M11.34,22.88l-.23,0a1.55,1.55,0,0,1,.42-1l.12.15Z"/><path d="M15.8,21.83l.12.16-.31.88h-.22A1.59,1.59,0,0,1,15.8,21.83Z"/><path d="M23.83,22.87l-.22,0a1.51,1.51,0,0,1,.42-1l.11.15Z"/><path d="M3.44,22.85a1.66,1.66,0,0,1,.42-1L4,22l-.31.88Z"/><path d="M7.25,22.86H7v-1h.24Z"/><path d="M27.41,22.86h-.23v-1h.23Z"/><path d="M19,22.15h.25v.71H19Z"/><path d="M3.28,22.86H3v-.71h.24Z"/><path d="M10.71,22.86v-.71h.23v.71Z"/><path d="M15.22,22.86H15v-.71h.24Z"/><path d="M23.44,22.86h-.23v-.71h.23Z"/><path d="M32,22.15h.23v.71H32Z"/><path d="M35.38,22.86h-.24v-.71h.24Z"/><path d="M9.5,6.6V6.45c0-.15.09-.18.22-.11a.6.6,0,0,1,.15.81.14.14,0,0,1-.25,0,4.74,4.74,0,0,1-.15-.5Z"/><path d="M8.24,12a.58.58,0,0,1-.6-.51.58.58,0,0,1,.61-.52.56.56,0,0,1,.59.53A.56.56,0,0,1,8.24,12Z"/><path d="M8.26,16.42a.59.59,0,0,1,.61.5.4.4,0,0,1-.43.41.62.62,0,0,1-.62-.52A.41.41,0,0,1,8.26,16.42Z"/><path d="M22.84,9.19H22c.19,0,.22-.17.21-.33V7.53c0-.16,0-.28-.21-.32h.91c-.18,0-.22.16-.21.33s0,.38,0,.58h.71a5.12,5.12,0,0,0,0-.68c0-.09-.11-.17-.16-.23h.89c-.22,0-.24.17-.24.35,0,.43,0,.87,0,1.31,0,.17,0,.29.24.31h-.93c.21,0,.22-.19.22-.36V8.23h-.72c0,.25,0,.5,0,.74C22.69,9.05,22.79,9.12,22.84,9.19Z"/><path d="M23.71,16.33c.21,0,.24-.19.24-.36,0-.44,0-.88,0-1.31,0-.18,0-.31-.24-.31a11.39,11.39,0,0,1,1.17,0,.9.9,0,0,1,.81.93.89.89,0,0,1-.76,1C24.53,16.32,24.12,16.31,23.71,16.33Zm.71-1.92c0,.56,0,1.11,0,1.66,0,.05.1.14.17.15a.43.43,0,0,0,.48-.39,3.72,3.72,0,0,0,0-1C25,14.5,24.8,14.39,24.42,14.41Z"/><path d="M26.35,9.09c.08.26-.1.54.17.73h-.65a1,1,0,0,0,.08-.3c0-.46,0-.93,0-1.39a1.74,1.74,0,0,0-.07-.29c.15,0,.37-.11.53.11a.49.49,0,0,1,.85.35,1.3,1.3,0,0,1,0,.52C27.14,9.22,26.82,9.32,26.35,9.09Zm0-.54h0a1,1,0,0,0,0,.35c0,.1.16.17.24.25.07-.07.19-.14.2-.22a3,3,0,0,0,0-.73c0-.09-.13-.16-.2-.24a1.45,1.45,0,0,0-.24.26A.9.9,0,0,0,26.37,8.55Z"/><path d="M27.57,7.84c.15,0,.36-.08.54.1.32-.19.5-.19.7,0a1,1,0,0,1,0,1c-.17.23-.4.26-.8.08.07.25-.12.53.17.72h-.65a1,1,0,0,0,.07-.28c0-.47,0-.94,0-1.42A1,1,0,0,0,27.57,7.84Zm.49.72a1,1,0,0,0,0,.34,1.13,1.13,0,0,0,.24.25c.07-.07.2-.14.21-.22a3.56,3.56,0,0,0,0-.73c0-.08-.13-.16-.21-.24a1.43,1.43,0,0,0-.23.27A1.2,1.2,0,0,0,28.06,8.56Z"/><path d="M25.43,11.51a2.53,2.53,0,0,1,.23-.12.33.33,0,0,1,.49.31c0,.24,0,.49,0,.74a1.09,1.09,0,0,0,.07.3h-.56a2.32,2.32,0,0,0,.05-1.08.25.25,0,0,0-.18-.07.26.26,0,0,0-.14.15,2.41,2.41,0,0,0,0,1h-.59a1.86,1.86,0,0,0,0-1.37C25,11.46,25.27,11.28,25.43,11.51Z"/><path d="M29,12.75h-.62a1.91,1.91,0,0,0,0-1.37c.21.07.43-.08.6.14a1.11,1.11,0,0,1,.16-.11.36.36,0,0,1,.56.32c0,.24,0,.48,0,.72a1.57,1.57,0,0,0,.08.29h-.57a2.08,2.08,0,0,0,.06-1.08.24.24,0,0,0-.19-.06.27.27,0,0,0-.14.19,7.12,7.12,0,0,0,0,.8C29,12.64,29,12.69,29,12.75Z"/><path d="M20.11,12.83c-.35-.71-.59-1.42-.94-2.05H20c-.21,0-.23.13-.16.29.16.34.3.69.48,1.1.18-.42.35-.78.49-1.15,0-.06-.09-.17-.13-.25h.45c-.1.18-.23.37-.33.57Z"/><path d="M22.38,12.65c-.16.21-.35.21-.54,0l-.3.14a.29.29,0,0,1-.32-.47,2.59,2.59,0,0,1,.48-.3.32.32,0,0,0,.11-.47.29.29,0,0,0-.26,0c-.12,0-.06.11,0,.2a.27.27,0,0,1,0,.23.22.22,0,0,1-.22,0,.29.29,0,0,1-.08-.23c.05-.21.41-.36.7-.31a.4.4,0,0,1,.38.46c0,.19,0,.38,0,.57A1.33,1.33,0,0,0,22.38,12.65ZM21.86,12c-.18.09-.32.19-.32.38s.08.12.12.18.18-.08.19-.15A1.81,1.81,0,0,0,21.86,12Z"/><path d="M25.6,9.1c-.16.2-.35.2-.54,0a1,1,0,0,1-.32.14.47.47,0,0,1-.33-.09.22.22,0,0,1,0-.35,2.17,2.17,0,0,1,.47-.32c.18-.11.26-.26.15-.44a.3.3,0,0,0-.26-.1c-.12,0-.1.1-.05.21a.21.21,0,0,1,0,.22.25.25,0,0,1-.24,0,.27.27,0,0,1-.05-.23.67.67,0,0,1,.71-.3c.26,0,.36.19.36.48s0,.37,0,.55A1.09,1.09,0,0,0,25.6,9.1Zm-.52-.61-.08,0a2.92,2.92,0,0,0-.24.37s.08.13.12.2.17-.09.19-.16A1.13,1.13,0,0,0,25.08,8.49Z"/><path d="M27.21,16.21c-.16.2-.35.2-.54,0a2.22,2.22,0,0,1-.32.14.46.46,0,0,1-.33-.09.24.24,0,0,1,0-.36,3.23,3.23,0,0,1,.47-.32.3.3,0,0,0,.15-.44A.3.3,0,0,0,26.4,15c-.12,0-.1.1,0,.2a.23.23,0,0,1,0,.23.25.25,0,0,1-.24,0,.28.28,0,0,1-.05-.24c.07-.21.43-.34.71-.29s.36.19.36.48,0,.37,0,.55A.91.91,0,0,0,27.21,16.21Zm-.53-.61-.08,0a3.07,3.07,0,0,0-.23.39s.06.16.1.17.2-.05.21-.1A3.09,3.09,0,0,0,26.68,15.6Z"/><path d="M22.63,10.77h.52v1.64a2,2,0,0,0,.08.33h-.57A4.67,4.67,0,0,0,22.63,10.77Z"/><path d="M29.58,9.67a.47.47,0,0,0,.21-.61c-.12-.27-.25-.55-.38-.82a3.72,3.72,0,0,0-.21-.39h.63c-.11.15,0,.41.25.86.06-.3.34-.53.16-.86h.31c-.07.13-.14.26-.2.4-.17.42-.33.84-.51,1.25a.61.61,0,0,1-.18.26.28.28,0,0,1-.42-.06.34.34,0,0,1,0-.2.23.23,0,0,1,.17-.08c.05,0,.1.08.13.13A.83.83,0,0,1,29.58,9.67Z"/><path d="M27.86,16.74a.46.46,0,0,0,.19-.45c-.17-.4-.35-.78-.53-1.17a1.53,1.53,0,0,0-.13-.15H28c-.12.34.18.55.26.83.05-.28.38-.51.16-.84h.3c-.19.45-.38.92-.57,1.38a1.81,1.81,0,0,1-.18.4.45.45,0,0,1-.26.19.22.22,0,0,1-.3-.18c0-.07.09-.15.14-.22Z"/><path d="M24.63,12h-.75c0,.23.06.45.27.51a.94.94,0,0,0,.45-.08.57.57,0,0,1-.32.33.52.52,0,0,1-.57-.09.8.8,0,0,1,.11-1.22.48.48,0,0,1,.54,0A.59.59,0,0,1,24.63,12Zm-.29-.09c-.08-.18-.13-.32-.2-.44s-.13,0-.14,0-.11.27-.17.43Z"/><path d="M31.24,12.42a.52.52,0,0,1-.56.37.56.56,0,0,1-.53-.49.8.8,0,0,1,.18-.75.53.53,0,0,1,.93.44h-.73c0,.23.06.45.28.52S31.1,12.45,31.24,12.42ZM31,11.89c-.07-.16-.11-.3-.18-.43s-.13,0-.14,0a4.28,4.28,0,0,0-.19.42Z"/><path d="M32.42,12.74l0-.39a1.82,1.82,0,0,0,.31.31c.06,0,.18,0,.28,0s0-.2-.08-.25a3,3,0,0,0-.35-.27.42.42,0,0,1-.12-.57.42.42,0,0,1,.53-.16,1.06,1.06,0,0,0,.26,0l0,.44a2.13,2.13,0,0,0-.13-.21.63.63,0,0,0-.22-.18.2.2,0,0,0-.19.06s0,.13,0,.17a2.7,2.7,0,0,0,.34.25.46.46,0,0,1,.18.62.44.44,0,0,1-.58.19A1.15,1.15,0,0,0,32.42,12.74Z"/><path d="M27.39,12.48c-.13.25-.28.35-.46.3s-.28-.2-.27-.41v-.83l-.18,0,.56-.6,0,.46.32.06v.07l-.32,0c0,.3,0,.6,0,.91S27.15,12.61,27.39,12.48Z"/><path d="M28.05,11.4a7.37,7.37,0,0,0,.08,1.34h-.56a2.19,2.19,0,0,0,0-1.34Z"/><path d="M31.76,11.65,32,11.2l-.06,0s-.07,0-.09,0-.2-.07-.24-.14a.26.26,0,0,1,.05-.24.33.33,0,0,1,.27-.05c.2.05.28.33.15.57a2.11,2.11,0,0,1-.31.36Z"/><path d="M27.86,11.23c-.1-.14-.22-.23-.2-.3s.14-.2.21-.19a.28.28,0,0,1,.21.2C28.08,11,28,11.09,27.86,11.23Z"/></g><path class="cls-4" d="M5.51,13.67l-.17,0a9.45,9.45,0,0,1-2.16.58A2,2,0,0,1,1.73,14a.85.85,0,0,1-.31-1,1.8,1.8,0,0,1,.63-.88,11.6,11.6,0,0,1,3.28-1.82l.06,0C5.23,9.8,5,9.41,4.92,9a3,3,0,0,1,.31-2.17A5.42,5.42,0,0,1,6.35,5.38a.51.51,0,0,0,.14-.26A1.42,1.42,0,0,1,7.56,4a.68.68,0,0,1,.71.74v0c.38.12.76.22,1.12.36a2.75,2.75,0,0,1,1.44,1.19A.58.58,0,0,0,11,6.5a2.51,2.51,0,0,1,.93.75,1.22,1.22,0,0,1,.14,1.26q-.13.3-.3.6a1.25,1.25,0,0,1-.85.67l-.12,0,0,.07a11.54,11.54,0,0,0,1.28-.27,4.5,4.5,0,0,1,1.73-.21c0-.16,0-.33,0-.5,0-.74-.07-1.48-.13-2.21a.46.46,0,0,0-.17-.3c-.45-.35-.92-.69-1.37-1.05a2.65,2.65,0,0,1-.9-1.21,1.08,1.08,0,0,1,.49-1.31A1,1,0,0,1,13,3a3,3,0,0,1,.22.26l.06-.13A1,1,0,0,1,14.6,2.4a1.13,1.13,0,0,1,.85,1.32,3.33,3.33,0,0,1-.56,1.36c-.24.33-.48.67-.73,1a1.1,1.1,0,0,0-.22.86c.06.79.08,1.58.1,2.37,0,.13,0,.2.16.25a.67.67,0,0,1,.42.6A1.62,1.62,0,0,1,14,11.68a.6.6,0,0,0-.2.4c-.09.62-.19,1.23-.29,1.86l-.26,0,.29-1.81h-.07c-.52.25-1,.51-1.56.75-.13.06-.15.12-.12.26a4.5,4.5,0,0,1,0,2.36c-.05.16-.12.31-.18.47a.74.74,0,0,0,1-.19,1.69,1.69,0,0,1,1.05-.63A1.18,1.18,0,0,1,15,16.25a5.7,5.7,0,0,1-.42,2.52,1.16,1.16,0,0,1-1.15.69,3.42,3.42,0,0,1-.83-.1c-.53-.09-1.05-.21-1.58-.28A9,9,0,0,1,9,18.55c-.15-.06-.32-.2-.49,0a.5.5,0,0,0-.05.63,1.64,1.64,0,0,1,.15,1.4,1.3,1.3,0,0,1-1.66.89,3.87,3.87,0,0,1-2-1.34,1.37,1.37,0,0,1-.16-1.38,5.17,5.17,0,0,1,1.21-1.85.23.23,0,0,0,0-.34,4,4,0,0,1-.46-1.89C5.5,14.36,5.51,14,5.51,13.67Zm5.37-7a.75.75,0,0,0-.07.12c0,.58-.05,1.15,0,1.73a1.29,1.29,0,0,0,.33.9,2.11,2.11,0,0,0,.76-1.14s0-.08,0-.12c-.05-.26-.09-.52-.15-.78a.32.32,0,0,0-.1-.19c-.23-.18-.48-.35-.72-.52-.07,0-.18-.07-.22-.14A2.82,2.82,0,0,0,8.81,5.22c-.6-.18-.65-.13-.68.51A7.3,7.3,0,0,1,8,6.59l-.27-.12A2.47,2.47,0,0,0,7.85,5.3,2,2,0,0,1,8,4.73c0-.07.07-.18,0-.2a1.41,1.41,0,0,0-.4-.25s-.16.18-.19.29a2.52,2.52,0,0,0,0,1.28c.07.3.16.6.24.9a.34.34,0,0,1-.47-.1c-.26-.33-.48-.68-.73-1A4.7,4.7,0,0,0,5.29,7.35a2.75,2.75,0,0,0,.23,2.46c.17.29.17.27.5.22.5-.07,1-.12,1.51-.18A5.43,5.43,0,0,1,7.43,7h.24c0,.53-.12,1.06-.11,1.58A5.49,5.49,0,0,0,7.77,9.7a.46.46,0,0,0,.29.23c.31.11.64.18.95.26a.5.5,0,0,0,.16,0l1.63-.68a4.93,4.93,0,0,1-.23-2.84ZM6.1,13.34v0H8.4a1.16,1.16,0,0,0,1.13-.84,4.35,4.35,0,0,0,.16-1.09,1,1,0,0,0-.49-.86,2.12,2.12,0,0,0-.55-.26,4.76,4.76,0,0,0-2.51-.06,10,10,0,0,0-4,2,1.86,1.86,0,0,0-.46.67.59.59,0,0,0,.3.83,1.58,1.58,0,0,0,1.1.23,7.36,7.36,0,0,0,3.17-1.12s.11-.06.17-.1l.15.2Zm8.52,2.45a.89.89,0,0,0-1.24-.31,2.3,2.3,0,0,0-.57.46,1,1,0,0,1-1,.32L10,15.85a5.1,5.1,0,0,0-1.78-.15.85.85,0,0,0-.8.75A1.36,1.36,0,0,0,8.22,18a9.85,9.85,0,0,0,2.36.76,15.38,15.38,0,0,1,2.33.42A1.43,1.43,0,0,0,14,19.08a.31.31,0,0,0,.15-.17c.09-.86.16-1.72.24-2.58C14.39,16.13,14.4,15.91,14.62,15.79ZM10.9,11.28l-.08,0a.23.23,0,0,1,0,.12,2.07,2.07,0,0,1-.15.25,1.18,1.18,0,0,1-.18-.21l-.36-.67L9.86,11a2.62,2.62,0,0,1,0,1.36,1.56,1.56,0,0,1-1.72,1.33H6c-.14,0-.2,0-.2.18s0,.52,0,.78a4.06,4.06,0,0,0,.5,2,1.88,1.88,0,0,0,1,.81c0-.16-.08-.29-.11-.43a1.2,1.2,0,0,1,1-1.5,2.82,2.82,0,0,1,.82,0c.62.08,1.24.19,1.85.32s.68.14.83-.52a4.55,4.55,0,0,0-.15-2.4C11.3,12.31,11.09,11.8,10.9,11.28ZM6.23,17a5,5,0,0,0-1.29,2,1,1,0,0,0,.16,1A3.74,3.74,0,0,0,7,21.24a1,1,0,0,0,1.37-.72,1.35,1.35,0,0,0-.14-1.22.68.68,0,0,1,0-.82l.07-.1-.78-.6-.09-.05A2.45,2.45,0,0,1,6.23,17Zm6-7.11-1.54.29,1,2.52L13.17,12C12.33,11.5,11.85,10.87,12.23,9.87ZM7.16,4.53c-.59.32-.5,1.16.12,1.76A3.51,3.51,0,0,1,7.16,4.53Zm2.69,5.69-.43.17c.31.37.31.37.56.17Zm.59.43c.2-.18.06-.33,0-.51l-.22.26Z"/><path class="cls-4" d="M36.15,19.34,36,18.9c-.09.47-.41.55-.76.57a3.46,3.46,0,0,1-1.35-.23c-.82-.26-1.64-.55-2.48-.74a3.28,3.28,0,0,0-3,.61s0,0-.1.05c0-.49,0-1,0-1.44,0,0,.09-.1.15-.1l1.61-.27c-.33,0-.67,0-1,.06l-6.38.95a26.82,26.82,0,0,1-4.56.47,4.51,4.51,0,0,1-1.73-.33.71.71,0,0,1-.48-.75q0-6.13,0-12.26V5.25h.24a1.14,1.14,0,0,0,.61.63,6.5,6.5,0,0,0,2,.64,15.48,15.48,0,0,0,4.3.1c1.94-.19,3.84-.6,5.75-1a21,21,0,0,1,4.94-.57,4.08,4.08,0,0,1,2.2.66.35.35,0,0,1,.15.26q0,6.65,0,13.28v.06Zm-.22-1.14V6.69c0-.85,0-.87-.84-1.14l-.06,0a6.91,6.91,0,0,0-2.93-.14c-1.28.17-2.55.4-3.82.64A40.31,40.31,0,0,1,21.72,7a9.77,9.77,0,0,1-5.5-1.12V6c0,3.9,0,7.79,0,11.69a.53.53,0,0,0,.38.58,5,5,0,0,0,1.71.28,25.81,25.81,0,0,0,4.11-.43c2-.31,4.07-.64,6.11-.92a16.45,16.45,0,0,1,4.7,0A5.27,5.27,0,0,1,35.93,18.2Zm-7.36.46.21-.11a7.47,7.47,0,0,1,1-.34,4.88,4.88,0,0,1,2.4.19c.72.22,1.43.47,2.15.7a2,2,0,0,0,1.14.08c.28-.08.34-.27.11-.44a3.74,3.74,0,0,0-.87-.49,10.63,10.63,0,0,0-2.95-.62,11.4,11.4,0,0,0-3,.2c-.05,0-.12.07-.12.11C28.57,18.17,28.57,18.4,28.57,18.66Zm7.36,0a1.25,1.25,0,0,0-.25-.34,4.48,4.48,0,0,0-.81-.49,9.22,9.22,0,0,0-3.21-.55c-.45,0-.9,0-1.36,0a2.93,2.93,0,0,0,.66,0,11.63,11.63,0,0,1,3.65.6A2.87,2.87,0,0,1,35.93,18.7Z"/><path class="cls-4" d="M23.94,4.91c0,.46,0,.87,0,1.29,0,0-.09.12-.15.14a11,11,0,0,1-2.42.22A11.09,11.09,0,0,1,17.61,6c-.25-.09-.5-.19-.74-.3a1.52,1.52,0,0,1-.34-.22.45.45,0,0,1,.15-.84,1.76,1.76,0,0,1,1.11,0c.64.19,1.26.44,1.9.61a13,13,0,0,0,1.73.37A3,3,0,0,0,23.82,5Zm-.26.57c-.39.13-.75.3-1.14.39a4.91,4.91,0,0,1-2.46-.19c-.72-.22-1.42-.48-2.14-.7a1.86,1.86,0,0,0-1.14-.07.37.37,0,0,0-.22.2.32.32,0,0,0,.14.23,5.26,5.26,0,0,0,.71.36,8.31,8.31,0,0,0,2.78.57,13.25,13.25,0,0,0,3.33-.15A.21.21,0,0,0,23.68,6,4,4,0,0,0,23.68,5.48Z"/><path class="cls-4" d="M7.2,23c-.23.07-.3,0-.35-.17-.1-.43-.26-.86-.4-1.3l.25-.09Z"/><path class="cls-4" d="M26.61,21.56l.25-.09.5,1.54c-.26.1-.27.09-.34-.14C26.9,22.44,26.76,22,26.61,21.56Z"/><path class="cls-4" d="M7.83,23.07H7.72l-.11,0A2.65,2.65,0,0,1,8,21.66l.11.1,0,0Z"/><path class="cls-4" d="M28.17,21.66l.19.17h-.07L28,23.05h-.22A2.57,2.57,0,0,1,28.17,21.66Z"/><path class="cls-4" d="M31.64,21.9,32.15,23c-.2.06-.29,0-.36-.13a8.2,8.2,0,0,0-.38-.87Z"/><path class="cls-4" d="M3.24,23.05l-.27,0L2.5,22l.23-.14Z"/><path class="cls-4" d="M10.16,22l.23-.13L10.9,23c-.22.09-.29,0-.36-.13A9.06,9.06,0,0,0,10.16,22Z"/><path class="cls-4" d="M14.43,22l.24-.12.5,1.12c-.2.06-.29,0-.35-.14S14.57,22.33,14.43,22Z"/><path class="cls-4" d="M22.89,21.9l.5,1.12c-.22.09-.29,0-.35-.13s-.25-.57-.38-.86Z"/><path class="cls-4" d="M34.59,22l.24-.12.52,1.14h-.29Z"/><path class="cls-4" d="M19.18,23.06H19l-.47-1,.21-.13A4.2,4.2,0,0,1,19.18,23.06Z"/><path class="cls-4" d="M20.05,22l.11.16-.31.88-.22,0A1.53,1.53,0,0,1,20.05,22Z"/><path class="cls-4" d="M33,22l.11.16-.3.88-.22,0A1.52,1.52,0,0,1,33,22Z"/><path class="cls-4" d="M36.27,22.19l-.3.88h-.21a1.48,1.48,0,0,1,.4-1Z"/><path class="cls-4" d="M11.53,23.07l-.22,0a1.55,1.55,0,0,1,.42-1l.11.15Z"/><path class="cls-4" d="M16,22l.12.16-.31.88h-.22A1.49,1.49,0,0,1,16,22Z"/><path class="cls-4" d="M24,23.07l-.22,0a1.51,1.51,0,0,1,.42-1l.11.15Z"/><path class="cls-4" d="M3.64,23.05a1.6,1.6,0,0,1,.42-1l.12.15-.31.88Z"/><path class="cls-4" d="M7.45,23.06H7.21V22h.24Z"/><path class="cls-4" d="M27.61,23.06h-.24V22h.24Z"/><path class="cls-4" d="M19.22,22.35h.25v.7h-.25Z"/><path class="cls-4" d="M3.48,23.06H3.24v-.71h.24Z"/><path class="cls-4" d="M10.9,23.06v-.71h.24v.71Z"/><path class="cls-4" d="M15.41,23.06h-.23v-.71h.23Z"/><path class="cls-4" d="M23.64,23.06h-.23v-.71h.23Z"/><path class="cls-4" d="M32.17,22.35h.22v.71h-.22Z"/><path class="cls-4" d="M35.58,23.06h-.15l-.09,0v-.7h.24Z"/><path class="cls-4" d="M9.7,6.8V6.65c0-.15.09-.18.21-.11a.58.58,0,0,1,.16.8.13.13,0,0,1-.25,0,4,4,0,0,1-.15-.49Z"/><path class="cls-4" d="M8.44,12.16a.52.52,0,1,1,0-1,.56.56,0,0,1,.6.52A.55.55,0,0,1,8.44,12.16Z"/><path class="cls-4" d="M8.46,16.62a.59.59,0,0,1,.61.5.4.4,0,0,1-.43.4A.6.6,0,0,1,8,17,.41.41,0,0,1,8.46,16.62Z"/><path class="cls-4" d="M23,9.39h-.87c.19,0,.21-.17.21-.33V7.73c0-.16,0-.29-.21-.32h.91c-.18,0-.22.16-.21.32s0,.38,0,.59h.71a5.12,5.12,0,0,0,0-.68c0-.09-.12-.17-.17-.23h.9c-.22,0-.24.16-.24.34q0,.66,0,1.32c0,.17,0,.29.24.31h-.93c.21,0,.22-.2.22-.36V8.43h-.72c0,.25,0,.5,0,.74C22.89,9.25,23,9.32,23,9.39Z"/><path class="cls-4" d="M23.91,16.52c.21,0,.24-.18.23-.35V14.86c0-.18,0-.31-.23-.31a11.42,11.42,0,0,1,1.17,0,1,1,0,0,1,.05,1.9C24.73,16.52,24.32,16.5,23.91,16.52Zm.71-1.91c0,.56,0,1.11,0,1.66,0,.05.1.14.17.15a.44.44,0,0,0,.48-.39,3.35,3.35,0,0,0,0-1C25.22,14.7,25,14.59,24.62,14.61Z"/><path class="cls-4" d="M26.55,9.29c.07.26-.1.54.17.73h-.65a1.11,1.11,0,0,0,.08-.3c0-.46,0-.93,0-1.39A1.53,1.53,0,0,0,26.08,8c.15.05.37-.11.53.11a.49.49,0,0,1,.85.35,1.3,1.3,0,0,1,0,.52C27.34,9.42,27,9.52,26.55,9.29Zm0-.54h0a1,1,0,0,0,0,.35c0,.1.16.17.24.25.07-.07.19-.14.2-.22a3,3,0,0,0,0-.73c0-.09-.13-.16-.2-.24-.08.08-.2.15-.24.25A1,1,0,0,0,26.57,8.75Z"/><path class="cls-4" d="M27.77,8c.14,0,.36-.09.54.1.32-.19.5-.19.7,0a1,1,0,0,1,0,1.06c-.16.23-.39.26-.79.08.07.25-.12.52.17.72h-.65a1.43,1.43,0,0,0,.07-.28c0-.47,0-1,0-1.42A1.64,1.64,0,0,0,27.77,8Zm.49.72a.9.9,0,0,0,0,.33,1.18,1.18,0,0,0,.24.26c.07-.07.19-.14.2-.22a3,3,0,0,0,0-.73c0-.09-.14-.16-.21-.24a1.14,1.14,0,0,0-.23.27A.9.9,0,0,0,28.26,8.76Z"/><path class="cls-4" d="M25.62,11.71l.24-.12a.33.33,0,0,1,.49.31c0,.24,0,.49,0,.74a1.67,1.67,0,0,0,.08.3h-.56a2.32,2.32,0,0,0,.05-1.08.25.25,0,0,0-.18-.07.23.23,0,0,0-.14.15,2.41,2.41,0,0,0,0,1h-.59a1.86,1.86,0,0,0,0-1.37C25.24,11.66,25.47,11.48,25.62,11.71Z"/><path class="cls-4" d="M29.24,12.94h-.62a1.88,1.88,0,0,0,0-1.36c.21.07.43-.09.6.13l.16-.1a.36.36,0,0,1,.56.32c0,.24,0,.48,0,.72a1.57,1.57,0,0,0,.08.29h-.57a2.09,2.09,0,0,0,.06-1.08.24.24,0,0,0-.19-.06.29.29,0,0,0-.15.19c0,.27,0,.53,0,.8A.6.6,0,0,0,29.24,12.94Z"/><path class="cls-4" d="M20.31,13c-.35-.7-.59-1.41-.94-2h.82c-.22,0-.23.14-.16.3l.48,1.1c.18-.42.35-.78.49-1.15,0-.06-.09-.18-.13-.25h.45c-.11.18-.23.37-.33.57C20.76,12,20.55,12.5,20.31,13Z"/><path class="cls-4" d="M22.58,12.85c-.16.21-.35.2-.54,0l-.3.15a.29.29,0,0,1-.32-.47,3.3,3.3,0,0,1,.48-.31.31.31,0,0,0,.11-.46.3.3,0,0,0-.26-.06c-.12,0-.06.12,0,.2a.26.26,0,0,1,0,.23.22.22,0,0,1-.22,0,.26.26,0,0,1-.08-.23c.05-.21.41-.36.7-.31a.4.4,0,0,1,.38.46c0,.19,0,.38,0,.57A.91.91,0,0,0,22.58,12.85Zm-.52-.63c-.18.09-.32.19-.32.38s.08.12.12.18.18-.09.19-.15A1.81,1.81,0,0,0,22.06,12.22Z"/><path class="cls-4" d="M25.8,9.3c-.16.2-.36.2-.54,0a1.12,1.12,0,0,1-.32.14.46.46,0,0,1-.33-.09.23.23,0,0,1,0-.36,2.85,2.85,0,0,1,.46-.31c.19-.11.26-.26.16-.44A.31.31,0,0,0,25,8.1c-.12,0-.1.1,0,.2a.23.23,0,0,1,0,.23.26.26,0,0,1-.24,0,.28.28,0,0,1-.05-.24c.06-.2.43-.34.71-.29s.36.19.36.48a5,5,0,0,0,0,.55A.8.8,0,0,0,25.8,9.3Zm-.52-.61-.08,0A2.92,2.92,0,0,0,25,9s.08.13.12.2.17-.09.19-.16A1.53,1.53,0,0,0,25.28,8.69Z"/><path class="cls-4" d="M27.41,16.41c-.16.2-.36.2-.54,0a1.12,1.12,0,0,1-.32.14.46.46,0,0,1-.33-.08.23.23,0,0,1,0-.36,2.91,2.91,0,0,1,.46-.32.3.3,0,0,0,.16-.44.34.34,0,0,0-.26-.1c-.12,0-.1.11-.05.21a.18.18,0,0,1-.28.22.26.26,0,0,1-.05-.23.65.65,0,0,1,.71-.29c.26.05.36.18.36.48a5,5,0,0,0,0,.55A.69.69,0,0,0,27.41,16.41Zm-.53-.61-.08,0a3.07,3.07,0,0,0-.23.39s.06.16.1.17.19,0,.2-.1A2.06,2.06,0,0,0,26.88,15.8Z"/><path class="cls-4" d="M22.83,11h.52v.37c0,.42,0,.85,0,1.27a2.17,2.17,0,0,0,.07.33h-.57A4.51,4.51,0,0,0,22.83,11Z"/><path class="cls-4" d="M29.77,9.87A.47.47,0,0,0,30,9.26l-.38-.83c-.06-.13-.14-.25-.21-.38H30c-.11.15,0,.41.25.85,0-.3.34-.53.16-.85h.3c-.06.13-.13.26-.19.4L30,9.7a.68.68,0,0,1-.18.26.25.25,0,0,1-.42-.26.2.2,0,0,1,.17-.08c.05,0,.09.08.13.13A.35.35,0,0,1,29.77,9.87Z"/><path class="cls-4" d="M28.06,16.94a.46.46,0,0,0,.19-.45c-.17-.4-.35-.79-.53-1.17a1.53,1.53,0,0,0-.13-.15h.64c-.13.33.18.54.25.83.06-.28.39-.51.16-.84H29l-.57,1.38a2,2,0,0,1-.18.4.49.49,0,0,1-.26.19.22.22,0,0,1-.3-.18c0-.07.09-.15.14-.23Z"/><path class="cls-4" d="M24.83,12.19h-.76c0,.23.06.45.28.51s.3,0,.45-.08a.57.57,0,0,1-.32.33.52.52,0,0,1-.57-.09A.81.81,0,0,1,24,11.63a.5.5,0,0,1,.54,0A.61.61,0,0,1,24.83,12.19Zm-.29-.1c-.08-.17-.13-.31-.2-.44s-.13,0-.14,0a4.08,4.08,0,0,0-.17.42Z"/><path class="cls-4" d="M31.44,12.62a.53.53,0,0,1-.56.37.56.56,0,0,1-.53-.49.8.8,0,0,1,.18-.75.53.53,0,0,1,.63-.15.56.56,0,0,1,.3.59h-.74c0,.23.07.45.28.51S31.3,12.65,31.44,12.62Zm-.26-.53c-.07-.16-.11-.3-.18-.43s-.13,0-.14,0a4.28,4.28,0,0,0-.19.42Z"/><path class="cls-4" d="M32.62,12.94l0-.4a1.58,1.58,0,0,0,.31.32c.06,0,.18,0,.28,0s0-.2-.08-.26-.24-.17-.35-.27a.4.4,0,0,1-.12-.56.42.42,0,0,1,.53-.16,2,2,0,0,0,.26,0l0,.44a2.13,2.13,0,0,0-.13-.21.73.73,0,0,0-.22-.18c-.05,0-.15,0-.19.05s0,.14,0,.18.23.17.34.25a.46.46,0,0,1,.18.62.47.47,0,0,1-.59.19A1,1,0,0,0,32.62,12.94Z"/><path class="cls-4" d="M27.58,12.68c-.12.25-.28.35-.45.3s-.28-.2-.28-.41,0-.55,0-.83l-.18,0,.56-.59,0,.46.33.06v.07l-.32,0c0,.31,0,.61,0,.92C27.28,12.81,27.35,12.81,27.58,12.68Z"/><path class="cls-4" d="M28.24,11.6a8.38,8.38,0,0,0,.09,1.34h-.56a2.27,2.27,0,0,0,0-1.34Z"/><path class="cls-4" d="M32,11.85l.25-.45-.06,0s-.07,0-.1,0-.19-.06-.23-.13a.26.26,0,0,1,.05-.24.32.32,0,0,1,.27-.05c.2.05.28.33.15.57a2.11,2.11,0,0,1-.31.36Z"/><path class="cls-4" d="M28.05,11.43c-.1-.14-.21-.23-.2-.31a.32.32,0,0,1,.22-.19c.07,0,.2.13.2.21S28.16,11.29,28.05,11.43Z"/></g></g></svg>