<svg xmlns="http://www.w3.org/2000/svg" viewBox="0 0 38.55 24.66"><defs><style>.cls-1{isolation:isolate;}.cls-2{opacity:0.15;}.cls-2,.cls-3{mix-blend-mode:multiply;}.cls-4{fill:#fff;}</style></defs><title>convert-FIX-SVG-03</title><g class="cls-1"><g id="Layer_1" data-name="Layer 1"><g class="cls-2"><path d="M28.09,18.54c.47-.68,1.08-.7,1.46,0a.82.82,0,0,1,.77-.5.69.69,0,0,1,.69.57c.37-.81,1-.93,1.58-.34.7-.56,1.21-.48,1.59.28a.69.69,0,0,1,.7-.51.78.78,0,0,1,.72.48c.08-.09.15-.19.23-.27a.76.76,0,0,1,.9-.12A.75.75,0,0,1,37,19a2.31,2.31,0,0,1-.8,1.12c-.14.13-.3.25-.44.37.29.26.59.51.86.78a1.73,1.73,0,0,1,.5.89.86.86,0,0,1-.36.94.9.9,0,0,1-1-.1,1.22,1.22,0,0,1-.14-.16,1,1,0,0,1-.89.37.83.83,0,0,1-.69-.65.73.73,0,0,1-.71.54.81.81,0,0,1-.74-.5.81.81,0,0,1-.86.49.71.71,0,0,1-.59-.59.89.89,0,0,1-.68.71,1,1,0,0,1-.9-.35.9.9,0,0,1-1.59-.3.69.69,0,0,1-.7.53.78.78,0,0,1-.74-.51.82.82,0,0,1-.67.51.67.67,0,0,1-.7-.35c-.51.61-1,.65-1.54.12a1,1,0,0,1-.88.35.83.83,0,0,1-.69-.66.7.7,0,0,1-.72.54.79.79,0,0,1-.73-.49.78.78,0,0,1-1.39.13.84.84,0,0,1-.71.49,1,1,0,0,1-.8-.36.89.89,0,0,1-1.58-.3.7.7,0,0,1-.69.53.77.77,0,0,1-.75-.51.83.83,0,0,1-.67.51.74.74,0,0,1-.73-.37.83.83,0,0,1-.72.5.93.93,0,0,1-.79-.37,1,1,0,0,1-.89.36.84.84,0,0,1-.69-.65.7.7,0,0,1-.71.53.77.77,0,0,1-.73-.51.85.85,0,0,1-.67.51.7.7,0,0,1-.72-.37.86.86,0,0,1-.72.5.93.93,0,0,1-.79-.36.9.9,0,0,1-1.59-.29.73.73,0,0,1-.69.53.81.81,0,0,1-.75-.49,1.94,1.94,0,0,1-.21.27.8.8,0,0,1-.9.13.74.74,0,0,1-.32-.85A2.35,2.35,0,0,1,2.21,21c.14-.13.3-.24.44-.35-.3-.27-.6-.52-.88-.8a1.6,1.6,0,0,1-.51-1.06A.81.81,0,0,1,1.73,18a.9.9,0,0,1,1,.16,1.79,1.79,0,0,1,.13.14.9.9,0,0,1,1.59.25c.4-.67,1-.68,1.45,0A.8.8,0,0,1,6.51,18a.71.71,0,0,1,.71.36.9.9,0,0,1,1.53-.12,1,1,0,0,1,.88-.36.82.82,0,0,1,.69.65.77.77,0,0,1,1.45-.06c.43-.6,1-.64,1.39-.1a.85.85,0,0,1,.71-.5.93.93,0,0,1,.8.37,1,1,0,0,1,.89-.36.83.83,0,0,1,.69.64.78.78,0,0,1,1.46,0,.79.79,0,0,1,.66-.49.7.7,0,0,1,.71.36.9.9,0,0,1,1.53-.13.87.87,0,0,1,1.56.31.71.71,0,0,1,.72-.54.79.79,0,0,1,.74.52.8.8,0,0,1,.65-.52.73.73,0,0,1,.74.37.83.83,0,0,1,.7-.5.94.94,0,0,1,.81.37,1,1,0,0,1,.88-.36A.77.77,0,0,1,28.09,18.54ZM4.52,22.25c0,.39.16.63.41.68a.7.7,0,0,0,.76-.33.9.9,0,0,1,.16-.18A1.3,1.3,0,0,1,6,22.6a.69.69,0,0,0,.79.32.58.58,0,0,0,.36-.72A1.21,1.21,0,0,0,7,21.79a3.28,3.28,0,0,0-1.07-1.06.19.19,0,0,0-.18,0,9,9,0,0,0-.8.71A1.29,1.29,0,0,0,4.52,22.25Zm28.06-1.76a11.26,11.26,0,0,0,.92-.85,2.17,2.17,0,0,0,.4-.71.59.59,0,0,0-.88-.69c-.12.06-.19.2-.28.3a.93.93,0,0,0-.14.14l-.14-.15s0,0,0-.05a.69.69,0,0,0-.79-.31.57.57,0,0,0-.36.72,1.53,1.53,0,0,0,.28.59C31.87,19.82,32.22,20.13,32.58,20.49Zm-6-.07a3.35,3.35,0,0,0,1.06-1,1.69,1.69,0,0,0,.26-.72.53.53,0,0,0-.61-.56.65.65,0,0,0-.57.38.86.86,0,0,1-.13.14,1.06,1.06,0,0,1-.15-.15.53.53,0,0,1-.06-.1.71.71,0,0,0-.74-.25.54.54,0,0,0-.38.57,1.26,1.26,0,0,0,.16.53A3.36,3.36,0,0,0,26.54,20.42ZM2.8,20.48a8,8,0,0,0,.84-.75A2.83,2.83,0,0,0,4.12,19a.59.59,0,0,0-.18-.69.63.63,0,0,0-.72,0,2,2,0,0,0-.27.31.29.29,0,0,1-.14.11s-.08-.06-.11-.1,0-.07-.05-.1a.69.69,0,0,0-.75-.3.55.55,0,0,0-.39.65,1.5,1.5,0,0,0,.28.66A13.74,13.74,0,0,0,2.8,20.48ZM25,22.34a2.74,2.74,0,0,0-.15-.46,3.22,3.22,0,0,0-1.13-1.16s-.14,0-.18,0c-.27.23-.55.45-.79.7a1.33,1.33,0,0,0-.42.81.58.58,0,0,0,.39.67.69.69,0,0,0,.76-.31c.05-.07.11-.13.17-.2a1.46,1.46,0,0,1,.16.19.7.7,0,0,0,.77.32A.64.64,0,0,0,25,22.34Zm-10.3-1.92a3.57,3.57,0,0,0,1.08-1A1.82,1.82,0,0,0,16,18.8a.55.55,0,0,0-.4-.64.7.7,0,0,0-.76.32,1.06,1.06,0,0,1-.17.2c-.05-.07-.11-.12-.15-.19a.67.67,0,0,0-.78-.32.57.57,0,0,0-.37.71,1.21,1.21,0,0,0,.16.41A3.45,3.45,0,0,0,14.68,20.42Zm-6,0c.28-.22.5-.39.71-.58a1.94,1.94,0,0,0,.62-.92.64.64,0,0,0-.15-.68.58.58,0,0,0-.68-.08,1.41,1.41,0,0,0-.31.29l-.16.18-.15-.19,0,0a.7.7,0,0,0-.78-.29.57.57,0,0,0-.36.7,1.55,1.55,0,0,0,.28.61C8,19.83,8.37,20.13,8.72,20.47Zm11.89,0a3.33,3.33,0,0,0,1.09-1,1.65,1.65,0,0,0,.23-.71.52.52,0,0,0-.59-.54.63.63,0,0,0-.6.4c0,.05-.09.12-.12.12a.43.43,0,0,1-.14-.13.39.39,0,0,1-.06-.11.72.72,0,0,0-.71-.28.54.54,0,0,0-.42.54,1.29,1.29,0,0,0,.16.58A3.36,3.36,0,0,0,20.61,20.42ZM10.45,22.24c0,.4.16.63.41.69a.71.71,0,0,0,.75-.31,1.56,1.56,0,0,1,.16-.2,1.63,1.63,0,0,1,.17.2.69.69,0,0,0,.76.31.57.57,0,0,0,.39-.67,1.52,1.52,0,0,0-.16-.45,3.1,3.1,0,0,0-1.08-1.08.19.19,0,0,0-.18,0,10.69,10.69,0,0,0-.8.71A1.31,1.31,0,0,0,10.45,22.24Zm17.78.13a.56.56,0,0,0,.42.56.69.69,0,0,0,.74-.31c.05-.07.11-.13.17-.2s.12.12.16.19a.7.7,0,0,0,.79.31.57.57,0,0,0,.36-.68,1.11,1.11,0,0,0-.15-.43,3.28,3.28,0,0,0-1.08-1.08.19.19,0,0,0-.18,0,9.74,9.74,0,0,0-.83.74A1.23,1.23,0,0,0,28.23,22.37Zm-9.17,0a3.27,3.27,0,0,0-.2-.55,3.19,3.19,0,0,0-1.08-1.08.19.19,0,0,0-.18,0,6.07,6.07,0,0,0-.84.76,1.93,1.93,0,0,0-.37.76.54.54,0,0,0,.36.66.69.69,0,0,0,.79-.3.78.78,0,0,1,.16-.2,1,1,0,0,1,.16.19.7.7,0,0,0,.75.32A.62.62,0,0,0,19.06,22.36Zm15.23-.12c0,.5.27.74.65.7a.66.66,0,0,0,.54-.37.66.66,0,0,1,.14-.15l.15.16s0,0,0,.06a.69.69,0,0,0,.75.29.57.57,0,0,0,.39-.63,1.41,1.41,0,0,0-.15-.48,3.34,3.34,0,0,0-1.09-1.09.19.19,0,0,0-.18,0c-.28.23-.56.46-.81.71A1.34,1.34,0,0,0,34.29,22.24Zm-1.85-1.62A3.17,3.17,0,0,1,31,18.85a3.1,3.1,0,0,1-1.3,1.62,3.23,3.23,0,0,1,1.42,1.76A3.1,3.1,0,0,1,32.44,20.62ZM4.27,22.18a3.39,3.39,0,0,1,1.42-1.71,3.24,3.24,0,0,1-1.3-1.55A3.3,3.3,0,0,1,3,20.62,3.21,3.21,0,0,1,4.27,22.18Zm23.71,0a3.29,3.29,0,0,1,1.41-1.71,7.26,7.26,0,0,1-.76-.69,6.71,6.71,0,0,1-.55-.8,3.21,3.21,0,0,1-1.38,1.63A3.11,3.11,0,0,1,28,22.19Zm-17.78,0a3.34,3.34,0,0,1,1.42-1.71,3.24,3.24,0,0,1-1.3-1.55,3.37,3.37,0,0,1-1.41,1.71A3.08,3.08,0,0,1,10.2,22.18Zm25.25-1.7a8.2,8.2,0,0,1-.75-.68,8,8,0,0,1-.55-.79,3.47,3.47,0,0,1-1.4,1.62,3.17,3.17,0,0,1,1.3,1.54A3.35,3.35,0,0,1,35.45,20.48Zm-17.91,0a3.24,3.24,0,0,1-1.29-1.57,3.32,3.32,0,0,1-1.41,1.73,3.2,3.2,0,0,1,1.3,1.55A3.3,3.3,0,0,1,17.54,20.47Zm3.23.15a3.17,3.17,0,0,1,1.29,1.57,3.3,3.3,0,0,1,1.41-1.72,3.15,3.15,0,0,1-1.29-1.56A3.27,3.27,0,0,1,20.77,20.62Zm5.62,0A3.71,3.71,0,0,1,25,19.16c-.19.25-.36.5-.56.72s-.45.39-.69.6A3.62,3.62,0,0,1,25.15,22,3.56,3.56,0,0,1,26.39,20.62Zm-7.3-1.52a3.56,3.56,0,0,1-1.24,1.37A3.7,3.7,0,0,1,19.22,22a3.69,3.69,0,0,1,1.24-1.36A3.68,3.68,0,0,1,19.09,19.1ZM8.59,20.61A3.62,3.62,0,0,1,7.23,19.1,3.53,3.53,0,0,1,6,20.48a3.51,3.51,0,0,1,1.35,1.46,8,8,0,0,1,.56-.71A8.4,8.4,0,0,1,8.59,20.61Zm3.33-.14A3.6,3.6,0,0,1,13.29,22a3.57,3.57,0,0,1,1.24-1.37,3.63,3.63,0,0,1-1.37-1.51A3.53,3.53,0,0,1,11.92,20.47Z"/><path d="M8.85,6.14c-.49.61-1,.66-1.4.12a.84.84,0,0,1-.71.49,1,1,0,0,1-.8-.35c-.72.55-1.17.48-1.59-.26-.39.66-1,.67-1.44,0a2.23,2.23,0,0,1-.19.24.76.76,0,0,1-.91.15.73.73,0,0,1-.32-.85,2.36,2.36,0,0,1,.8-1.14l.44-.35c-.29-.26-.6-.52-.87-.8a1.57,1.57,0,0,1-.51-1,.79.79,0,0,1,.46-.83.89.89,0,0,1,1,.18.65.65,0,0,1,.11.12,1,1,0,0,1,.89-.37.84.84,0,0,1,.69.66.72.72,0,0,1,.71-.54.76.76,0,0,1,.73.51.85.85,0,0,1,.67-.51A.71.71,0,0,1,7.31,2,.84.84,0,0,1,8,1.47a.92.92,0,0,1,.79.36.9.9,0,0,1,1.59.28.68.68,0,0,1,.69-.52.8.8,0,0,1,.75.51.82.82,0,0,1,.67-.51.69.69,0,0,1,.7.36c.49-.61,1-.66,1.53-.12a1,1,0,0,1,.88-.36.85.85,0,0,1,.7.67.7.7,0,0,1,.7-.55.8.8,0,0,1,.75.51.81.81,0,0,1,.66-.51.7.7,0,0,1,.71.36c.53-.62,1-.65,1.53-.13.69-.56,1.31-.45,1.57.31A.73.73,0,0,1,23,1.59a.79.79,0,0,1,.74.51.85.85,0,0,1,.67-.51.71.71,0,0,1,.71.36c.49-.61,1-.66,1.53-.12a1,1,0,0,1,.87-.36.81.81,0,0,1,.7.67.71.71,0,0,1,.71-.55.77.77,0,0,1,.73.49.78.78,0,0,1,1.48.09.83.83,0,0,1,.67-.69.92.92,0,0,1,.9.36,1,1,0,0,1,.88-.37.84.84,0,0,1,.69.65A.72.72,0,0,1,35,1.59a.8.8,0,0,1,.73.48,3.74,3.74,0,0,1,.25-.29.77.77,0,0,1,.89-.09.74.74,0,0,1,.29.84,2.29,2.29,0,0,1-.79,1.12c-.14.13-.3.25-.45.37.29.26.59.51.86.78a1.82,1.82,0,0,1,.51.89.88.88,0,0,1-.38,1,.93.93,0,0,1-1-.12s-.06-.11-.1-.16c-.62.62-1.37.44-1.61-.26a.73.73,0,0,1-.7.52.78.78,0,0,1-.73-.48c-.42.68-1.24.63-1.47-.07-.38.78-.91.89-1.6.32a.94.94,0,0,1-.87.34.86.86,0,0,1-.7-.66.67.67,0,0,1-.61.54.77.77,0,0,1-.82-.5.82.82,0,0,1-.67.5.68.68,0,0,1-.72-.37.84.84,0,0,1-.72.5.92.92,0,0,1-.79-.35c-.69.56-1.16.47-1.59-.27a.77.77,0,0,1-1.45,0,.79.79,0,0,1-.64.49.71.71,0,0,1-.74-.36.87.87,0,0,1-.71.49.92.92,0,0,1-.8-.36c-.73.56-1.31.46-1.58-.3a.73.73,0,0,1-.71.54.79.79,0,0,1-.74-.5.79.79,0,0,1-1.4.14.83.83,0,0,1-.71.48.93.93,0,0,1-.8-.37,1,1,0,0,1-.88.37.84.84,0,0,1-.69-.66.72.72,0,0,1-.71.54A.79.79,0,0,1,8.85,6.14ZM4.6,5.82c0,.38.16.61.4.67a.71.71,0,0,0,.76-.3A1.68,1.68,0,0,1,5.94,6c0,.07.11.13.15.2a.7.7,0,0,0,.79.3.58.58,0,0,0,.36-.7,1.44,1.44,0,0,0-.15-.41A3.31,3.31,0,0,0,6,4.29s-.13,0-.18,0A8.67,8.67,0,0,0,5,5,1.38,1.38,0,0,0,4.6,5.82ZM32.65,4c.28-.23.52-.41.73-.6A2,2,0,0,0,34,2.51a.63.63,0,0,0-.18-.67.56.56,0,0,0-.65-.07,1.36,1.36,0,0,0-.31.28l-.17.19c0-.06-.11-.12-.15-.18a.68.68,0,0,0-.8-.32.57.57,0,0,0-.35.72,1.47,1.47,0,0,0,.27.58C32,3.39,32.3,3.7,32.65,4Zm-6,0A4.09,4.09,0,0,0,27.7,3,1.19,1.19,0,0,0,28,2.25a.55.55,0,0,0-.6-.54.63.63,0,0,0-.59.38c0,.06-.08.1-.13.15l-.15-.15L26.43,2a.68.68,0,0,0-.76-.25.56.56,0,0,0-.36.66,1.48,1.48,0,0,0,.16.46A3.65,3.65,0,0,0,26.62,4ZM2.92,4c.24-.19.47-.37.68-.56a2,2,0,0,0,.61-.93A.63.63,0,0,0,4,1.8a.68.68,0,0,0-.76.05A1.31,1.31,0,0,0,3,2.12s-.09.1-.12.1a.33.33,0,0,1-.14-.1s0-.07,0-.1A.67.67,0,0,0,2,1.73a.55.55,0,0,0-.39.64,1.74,1.74,0,0,0,.17.5A3.69,3.69,0,0,0,2.92,4ZM25.07,5.91a2.7,2.7,0,0,0-.16-.48,3.36,3.36,0,0,0-1.13-1.15.25.25,0,0,0-.18,0c-.19.15-.39.3-.57.47a1.81,1.81,0,0,0-.64,1,.59.59,0,0,0,.39.67.7.7,0,0,0,.78-.32c0-.07.1-.12.15-.19s.12.12.16.19a.7.7,0,0,0,.77.32A.62.62,0,0,0,25.07,5.91ZM10.16,2.4a.6.6,0,0,0-.42-.68A.69.69,0,0,0,9,2.05a1,1,0,0,1-.17.19,1.39,1.39,0,0,1-.15-.19.69.69,0,0,0-.78-.32.59.59,0,0,0-.38.71,1.52,1.52,0,0,0,.16.42A3.28,3.28,0,0,0,8.77,3.93s.13,0,.17,0a10.4,10.4,0,0,0,.8-.69A1.39,1.39,0,0,0,10.16,2.4ZM14.77,4a4.33,4.33,0,0,0,1.06-1,1.14,1.14,0,0,0,.26-.79.55.55,0,0,0-.57-.51.64.64,0,0,0-.62.39.92.92,0,0,1-.14.14l-.13-.15A.73.73,0,0,1,14.58,2a.7.7,0,0,0-.79-.26.59.59,0,0,0-.33.7,1.31,1.31,0,0,0,.16.43A3.62,3.62,0,0,0,14.77,4ZM20.7,4a3.43,3.43,0,0,0,1.08-1A1.61,1.61,0,0,0,22,2.25a.52.52,0,0,0-.59-.54.63.63,0,0,0-.59.4c0,.05-.09.13-.12.12s-.1-.08-.15-.12A.6.6,0,0,0,20.5,2a.69.69,0,0,0-.7-.28.54.54,0,0,0-.43.54,1.53,1.53,0,0,0,.16.58A3.48,3.48,0,0,0,20.7,4ZM10.53,5.82c0,.49.27.73.66.68a.62.62,0,0,0,.54-.4A.22.22,0,0,1,11.87,6s.08.06.11.1l0,.09a.67.67,0,0,0,.76.31.55.55,0,0,0,.38-.65A1.45,1.45,0,0,0,13,5.38a3.37,3.37,0,0,0-1.1-1.09.19.19,0,0,0-.18,0A10,10,0,0,0,11,5,1.34,1.34,0,0,0,10.53,5.82Zm8.62.09a4.65,4.65,0,0,0-.2-.52,3.28,3.28,0,0,0-1.09-1.1.18.18,0,0,0-.16,0c-.34.31-.68.61-1,1a1,1,0,0,0-.25.74.55.55,0,0,0,.59.53.65.65,0,0,0,.6-.39A.29.29,0,0,1,17.79,6s.09.07.13.12,0,.1.08.14a.68.68,0,0,0,.74.23A.66.66,0,0,0,19.15,5.91Zm9.16,0a.57.57,0,0,0,.64.59.66.66,0,0,0,.57-.41A.2.2,0,0,1,29.65,6s.08.06.12.1,0,.08.05.11a.69.69,0,0,0,.78.28A.57.57,0,0,0,31,5.82a1.3,1.3,0,0,0-.14-.42,3.25,3.25,0,0,0-1.1-1.11.19.19,0,0,0-.18,0,9.14,9.14,0,0,0-.81.71A1.36,1.36,0,0,0,28.31,5.92Zm6.07-.11c0,.5.27.74.65.69a.64.64,0,0,0,.53-.36A.75.75,0,0,1,35.71,6l.13.15a.25.25,0,0,1,0,.07.7.7,0,0,0,.76.29A.56.56,0,0,0,37,5.86a1.29,1.29,0,0,0-.15-.47,3.19,3.19,0,0,0-1.09-1.1.19.19,0,0,0-.18,0,8.67,8.67,0,0,0-.79.69A1.28,1.28,0,0,0,34.38,5.81ZM29.8,4A3.31,3.31,0,0,1,31.23,5.8a3,3,0,0,1,1.3-1.61A3.28,3.28,0,0,1,31.1,2.42,3.06,3.06,0,0,1,29.8,4Zm-24,0c-.26-.24-.53-.44-.75-.68s-.38-.54-.56-.8A3.35,3.35,0,0,1,3.06,4.19a3.23,3.23,0,0,1,1.3,1.54A3.28,3.28,0,0,1,5.76,4.05ZM28.19,2.47a3.29,3.29,0,0,1-1.41,1.72,3.16,3.16,0,0,1,1.29,1.56A3.31,3.31,0,0,1,29.49,4,3.17,3.17,0,0,1,28.19,2.47ZM10.29,5.74A3.32,3.32,0,0,1,11.7,4a3.2,3.2,0,0,1-1.29-1.54A3.45,3.45,0,0,1,9,4.19,3.14,3.14,0,0,1,10.29,5.74ZM32.84,4.19a3.23,3.23,0,0,1,1.3,1.54A3.34,3.34,0,0,1,35.55,4,3.12,3.12,0,0,1,34.26,2.5C34,3.13,33.92,3.27,32.84,4.19ZM16.24,5.66A3.33,3.33,0,0,1,17.63,4a3.11,3.11,0,0,1-1.29-1.56,3.25,3.25,0,0,1-1.4,1.7,9.62,9.62,0,0,1,.74.68A9,9,0,0,1,16.24,5.66Zm5.9.09A3.36,3.36,0,0,1,23.56,4a3.17,3.17,0,0,1-1.3-1.56,3.31,3.31,0,0,1-1.4,1.72A3.19,3.19,0,0,1,22.14,5.75ZM23.86,4a3.66,3.66,0,0,1,1.37,1.52,3.62,3.62,0,0,1,1.24-1.36,3.71,3.71,0,0,1-1.36-1.52A3.56,3.56,0,0,1,23.86,4ZM18,4A3.66,3.66,0,0,1,19.3,5.55a3.62,3.62,0,0,1,1.24-1.36A3.77,3.77,0,0,1,19.2,2.72a8.36,8.36,0,0,1-.56.71A8.12,8.12,0,0,1,18,4Zm-11.86,0a3.59,3.59,0,0,1,1.36,1.5A3.51,3.51,0,0,1,8.68,4.19,3.71,3.71,0,0,1,7.34,2.72a8,8,0,0,1-.56.71A8.4,8.4,0,0,1,6.09,4.05ZM12,4a3.61,3.61,0,0,1,1.36,1.51,3.81,3.81,0,0,1,1.24-1.37,3.7,3.7,0,0,1-1.37-1.51A3.54,3.54,0,0,1,12,4Z"/><path d="M18.9,12.83V11.46h.47v2.06h-.52c0-.07,0-.16-.08-.2L17.6,12.23c0,.38,0,.83,0,1.29h-.49a7.89,7.89,0,0,0,0-2.06h.61c0,.06,0,.14,0,.18C18.13,12,18.51,12.42,18.9,12.83Z"/><path d="M24.78,12.83V11.46h.45c0,.69,0,1.37,0,2.06h-.5c0-.08,0-.17-.09-.21-.39-.37-.79-.73-1.16-1.07,0,.37,0,.82,0,1.28h-.43c0-.68,0-1.37,0-2.06h.57a.59.59,0,0,0,0,.2Z"/><path d="M16.06,15.25c.48,0,1,0,1.43,0a.89.89,0,0,1,.82,1.07.93.93,0,0,1-1,1h-1.2A7.73,7.73,0,0,0,16.06,15.25ZM16.57,17h.74a.49.49,0,0,0,.5-.39,1.62,1.62,0,0,0,0-.62.46.46,0,0,0-.41-.37c-.27,0-.55,0-.83,0Z"/><path d="M15.13,7.69h.51V9.75h-.51V8.84H14v.91h-.5V7.69H14v.79h1.16Z"/><path d="M27.69,11.44v.38H26.24v.45h1v.4h-1v.49h1.48v.39H25.78c0-.71,0-1.39,0-2.11Z"/><path d="M14.81,13.55c0-.72,0-1.4,0-2.12h1.9v.39H15.27v.45h1v.4h-1v.49h1.49v.39Z"/><path d="M30.73,12.08a1,1,0,0,0-1-.29c-.1,0-.16.17-.23.25a1,1,0,0,0,.26.17c.22,0,.45,0,.67.09a.59.59,0,0,1,.56.56.62.62,0,0,1-.5.64,1.77,1.77,0,0,1-1.16-.06L29,13.32l.19-.45a1,1,0,0,0,1.16.3.39.39,0,0,0,.17-.25c0-.05-.13-.15-.22-.17-.25-.05-.5-.06-.75-.11a.55.55,0,0,1-.49-.46.58.58,0,0,1,.35-.65,1.48,1.48,0,0,1,1.15,0l.39.13Z"/><path d="M21.1,7.72c.5,0,1,0,1.55,0a.52.52,0,0,1,.49.58.55.55,0,0,1-.5.58c-.35,0-.7,0-1,0v.82h-.5Zm.47.85h.85a.26.26,0,0,0,.27-.27A.25.25,0,0,0,22.44,8h-.87Z"/><path d="M18.73,7.72c.49,0,1,0,1.55,0a.53.53,0,0,1,.49.58.52.52,0,0,1-.5.57c-.35,0-.7,0-1,0v.87h-.5Zm.47.85h.85a.25.25,0,0,0,.26-.27A.25.25,0,0,0,20.07,8H19.2Z"/><path d="M18.4,17.29l.19-.36c.23-.46.45-.92.67-1.39a2.08,2.08,0,0,0,0-.3h.58a.71.71,0,0,0,0,.26c.25.53.51,1.05.77,1.57,0,.08.1.14.15.22h-.67a.36.36,0,0,0-.33-.5h-.57a.34.34,0,0,0-.28.5Zm1.18-1.55-.34.74h.68Z"/><path d="M12.26,13.53h-.68a.36.36,0,0,0-.33-.51h-.59a.33.33,0,0,0-.26.5H9.82l.87-1.82a.49.49,0,0,0,0-.24h.61a.73.73,0,0,0,0,.27c.25.53.51,1,.77,1.57C12.14,13.37,12.2,13.44,12.26,13.53Zm-.94-.81L11,12l-.35.75Z"/><path d="M16.89,7.69h.59a1,1,0,0,0,0,.26c.26.54.53,1.07.8,1.61a1.82,1.82,0,0,0,.14.19h-.68a.35.35,0,0,0-.33-.5h-.57a.34.34,0,0,0-.28.5H16c.21-.43.42-.87.64-1.31.07-.15.15-.3.21-.46A2,2,0,0,0,16.89,7.69ZM17.51,9l-.35-.76L16.82,9Z"/><path d="M9.12,13.52H8.53a.54.54,0,0,0,0-.22c-.25-.57-.51-1.13-.78-1.69a.61.61,0,0,0-.1-.14h.62a1.12,1.12,0,0,0,.05.31c.16.37.34.74.52,1.15.21-.45.4-.86.58-1.28,0-.05,0-.12,0-.19H10c-.28.61-.57,1.23-.85,1.85C9.09,13.36,9.12,13.45,9.12,13.52Z"/><path d="M24.11,9.75c0-.37.14-.75-.13-1.1s-.47-.64-.7-1h.66c0,.35.3.52.43.85.13-.34.46-.5.42-.85h.66a6.69,6.69,0,0,0-.81,1.16c-.12.24,0,.59,0,.89Z"/><path d="M22,17.29h-.51c0-.38.14-.76-.14-1.11s-.47-.63-.69-.94h.67c0,.35.29.51.42.85.13-.33.46-.5.42-.85h.66A8,8,0,0,0,22,16.4,2.39,2.39,0,0,0,22,17.29Z"/><path d="M19.69,11.82v-.39h2v.39H21v1.7h-.51v-1.7Z"/><path d="M12.56,11.46H13c0,.57,0,1.14,0,1.71h1.44v.38H12.54C12.59,12.84,12.57,12.16,12.56,11.46Z"/><path d="M22,11.46h.58a7.1,7.1,0,0,0,0,2.06H22A7.47,7.47,0,0,0,22,11.46Z"/><path d="M28.21,12.31l.28-.37c-.2,0-.37-.06-.34-.27s.09-.21.16-.23.21,0,.26.1A.54.54,0,0,1,28.21,12.31Z"/><path d="M28.29,18.74c.47-.68,1.08-.7,1.46,0a.84.84,0,0,1,.77-.51.69.69,0,0,1,.68.58c.38-.81,1-.93,1.59-.34.7-.56,1.21-.48,1.59.28a.69.69,0,0,1,.7-.52.77.77,0,0,1,.72.49,2,2,0,0,1,.23-.27.72.72,0,0,1,1.21.73,2.37,2.37,0,0,1-.8,1.12,5.07,5.07,0,0,1-.45.36c.3.27.6.52.87.79a1.88,1.88,0,0,1,.5.89.86.86,0,0,1-.36.94.89.89,0,0,1-1-.1,1.22,1.22,0,0,1-.14-.16,1,1,0,0,1-.89.37.83.83,0,0,1-.69-.65.71.71,0,0,1-.71.53.8.8,0,0,1-.74-.49.81.81,0,0,1-.86.49c-.31,0-.49-.25-.6-.6-.11.39-.3.65-.67.71a.92.92,0,0,1-.9-.34.9.9,0,0,1-1.59-.3.69.69,0,0,1-.7.53.78.78,0,0,1-.74-.51.82.82,0,0,1-.67.51.69.69,0,0,1-.71-.36c-.5.61-1,.66-1.53.13a1,1,0,0,1-.88.35.83.83,0,0,1-.69-.66.71.71,0,0,1-.72.54.8.8,0,0,1-.73-.5.78.78,0,0,1-1.39.14.86.86,0,0,1-.71.49,1,1,0,0,1-.8-.36.89.89,0,0,1-1.58-.31.7.7,0,0,1-.7.54.77.77,0,0,1-.75-.51.81.81,0,0,1-.66.51.73.73,0,0,1-.73-.37.84.84,0,0,1-.72.5A1,1,0,0,1,12,23a1,1,0,0,1-.89.36.83.83,0,0,1-.69-.65.71.71,0,0,1-.71.53A.76.76,0,0,1,9,22.75a.85.85,0,0,1-.67.51.71.71,0,0,1-.72-.38.87.87,0,0,1-.72.51,1,1,0,0,1-.8-.36.89.89,0,0,1-1.58-.29.71.71,0,0,1-.7.52A.79.79,0,0,1,3,22.78a3.17,3.17,0,0,1-.21.27.8.8,0,0,1-.9.13.75.75,0,0,1-.32-.86,2.31,2.31,0,0,1,.81-1.13c.14-.13.3-.24.43-.35-.29-.27-.6-.52-.87-.8A1.62,1.62,0,0,1,1.46,19a.78.78,0,0,1,.47-.8.9.9,0,0,1,1,.16.81.81,0,0,1,.12.14.91.91,0,0,1,1.6.24c.4-.66,1-.67,1.44,0a.83.83,0,0,1,.67-.49.7.7,0,0,1,.71.36A.9.9,0,0,1,9,18.46a.94.94,0,0,1,.87-.35.82.82,0,0,1,.7.65A.77.77,0,0,1,12,18.7c.42-.6,1-.65,1.39-.1a.82.82,0,0,1,.7-.5.94.94,0,0,1,.81.37,1,1,0,0,1,.89-.36.84.84,0,0,1,.69.64.78.78,0,0,1,1.46,0,.79.79,0,0,1,.66-.49.68.68,0,0,1,.7.36.92.92,0,0,1,1.54-.14.87.87,0,0,1,1.56.32.73.73,0,0,1,.72-.55.81.81,0,0,1,.74.52.79.79,0,0,1,.65-.51.71.71,0,0,1,.73.37.83.83,0,0,1,.71-.5.94.94,0,0,1,.81.37,1,1,0,0,1,.88-.36A.79.79,0,0,1,28.29,18.74ZM4.72,22.45c0,.39.16.62.41.68a.69.69,0,0,0,.76-.34c0-.06.1-.11.15-.17a.9.9,0,0,1,.16.18.69.69,0,0,0,.79.32.59.59,0,0,0,.36-.72A1.21,1.21,0,0,0,7.19,22a3.28,3.28,0,0,0-1.07-1.06.19.19,0,0,0-.18,0c-.27.23-.56.45-.81.71A1.29,1.29,0,0,0,4.72,22.45Zm28.06-1.76c.35-.32.66-.56.92-.85a2.37,2.37,0,0,0,.4-.71.57.57,0,0,0-.19-.67.59.59,0,0,0-.69,0,1.44,1.44,0,0,0-.29.31l-.13.14-.14-.15,0-.05a.67.67,0,0,0-.78-.31.57.57,0,0,0-.36.72,1.43,1.43,0,0,0,.28.58C32.07,20,32.42,20.33,32.78,20.69Zm-6-.07a3.46,3.46,0,0,0,1.06-1,1.83,1.83,0,0,0,.26-.72.53.53,0,0,0-.61-.56.65.65,0,0,0-.57.37.93.93,0,0,1-.13.15.79.79,0,0,1-.22-.26.67.67,0,0,0-.73-.24.55.55,0,0,0-.39.56,1.61,1.61,0,0,0,.16.54A3.48,3.48,0,0,0,26.74,20.62ZM3,20.68a8,8,0,0,0,.84-.75,2.58,2.58,0,0,0,.47-.78.58.58,0,0,0-.17-.69.63.63,0,0,0-.72,0,2,2,0,0,0-.27.31c0,.05-.09.1-.14.1s-.08-.05-.11-.09l0-.1a.69.69,0,0,0-.75-.3.54.54,0,0,0-.39.64,1.43,1.43,0,0,0,.28.67C2.29,20,2.64,20.33,3,20.68Zm22.18,1.86a3.53,3.53,0,0,0-.15-.46,3.25,3.25,0,0,0-1.14-1.16s-.13,0-.18,0a10.4,10.4,0,0,0-.79.7,1.41,1.41,0,0,0-.42.81.6.6,0,0,0,.39.67.71.71,0,0,0,.77-.31l.16-.2a1,1,0,0,1,.17.19.71.71,0,0,0,.76.32A.63.63,0,0,0,25.18,22.54Zm-10.3-1.92a3.57,3.57,0,0,0,1.08-1A1.82,1.82,0,0,0,16.2,19a.55.55,0,0,0-.4-.64.7.7,0,0,0-.76.32,1,1,0,0,1-.17.19,1.39,1.39,0,0,1-.15-.19.69.69,0,0,0-.78-.31.57.57,0,0,0-.37.71,1.44,1.44,0,0,0,.15.41A3.58,3.58,0,0,0,14.88,20.62Zm-6,.05c.28-.23.5-.39.71-.59a1.91,1.91,0,0,0,.62-.91.66.66,0,0,0-.16-.69.57.57,0,0,0-.67-.07,1.41,1.41,0,0,0-.31.29c-.06.05-.11.12-.16.17l-.15-.18s0,0,0,0A.68.68,0,0,0,8,18.37a.57.57,0,0,0-.36.7,1.55,1.55,0,0,0,.28.61C8.22,20,8.57,20.33,8.92,20.67Zm11.89-.05a3.54,3.54,0,0,0,1.09-1,1.8,1.8,0,0,0,.23-.71.53.53,0,0,0-.59-.55.66.66,0,0,0-.6.4c0,.05-.09.13-.12.12s-.1-.07-.14-.12a.39.39,0,0,1-.06-.11.72.72,0,0,0-.71-.28.54.54,0,0,0-.42.54,1.42,1.42,0,0,0,.15.58A3.48,3.48,0,0,0,20.81,20.62ZM10.64,22.44c0,.4.17.63.42.69a.71.71,0,0,0,.75-.32,1.46,1.46,0,0,1,.16-.19,1,1,0,0,1,.16.19.71.71,0,0,0,.77.32.57.57,0,0,0,.39-.67,1.34,1.34,0,0,0-.16-.45,3.1,3.1,0,0,0-1.08-1.08.19.19,0,0,0-.18,0c-.27.23-.56.45-.81.71A1.37,1.37,0,0,0,10.64,22.44Zm17.79.12a.57.57,0,0,0,.42.57.69.69,0,0,0,.74-.31,1.12,1.12,0,0,1,.17-.2,1.46,1.46,0,0,1,.16.19.7.7,0,0,0,.79.31.58.58,0,0,0,.36-.68,1.3,1.3,0,0,0-.15-.43,3.38,3.38,0,0,0-1.08-1.08.19.19,0,0,0-.18,0,9.87,9.87,0,0,0-.84.74A1.26,1.26,0,0,0,28.43,22.56Zm-9.17,0a3.5,3.5,0,0,0-.2-.54A3.19,3.19,0,0,0,18,20.93a.19.19,0,0,0-.18,0,6.07,6.07,0,0,0-.84.76,1.93,1.93,0,0,0-.37.76.53.53,0,0,0,.36.66.7.7,0,0,0,.79-.31,1,1,0,0,1,.16-.19,1.46,1.46,0,0,1,.16.19.7.7,0,0,0,.75.32A.63.63,0,0,0,19.26,22.55Zm15.23-.12c0,.51.27.75.65.71a.63.63,0,0,0,.53-.37,1.06,1.06,0,0,1,.15-.15,1.07,1.07,0,0,1,.14.16s0,0,0,0a.7.7,0,0,0,.76.3.55.55,0,0,0,.38-.63A1.39,1.39,0,0,0,37,22a3.28,3.28,0,0,0-1.1-1.09.17.17,0,0,0-.17,0,9.14,9.14,0,0,0-.81.71A1.35,1.35,0,0,0,34.49,22.43Zm-1.85-1.61a3.23,3.23,0,0,1-1.43-1.77,3,3,0,0,1-1.29,1.62,3.23,3.23,0,0,1,1.42,1.76A3.1,3.1,0,0,1,32.64,20.82ZM4.47,22.37a3.36,3.36,0,0,1,1.42-1.7,3.19,3.19,0,0,1-1.3-1.55,3.34,3.34,0,0,1-1.41,1.7A3.23,3.23,0,0,1,4.47,22.37Zm23.71,0a3.32,3.32,0,0,1,1.4-1.71,8.29,8.29,0,0,1-.75-.69,7.63,7.63,0,0,1-.55-.8,3.26,3.26,0,0,1-1.38,1.63A3.07,3.07,0,0,1,28.18,22.39Zm-17.78,0a3.3,3.3,0,0,1,1.42-1.71,3.24,3.24,0,0,1-1.3-1.55,3.34,3.34,0,0,1-1.41,1.7A3.15,3.15,0,0,1,10.4,22.38Zm25.25-1.7A8.2,8.2,0,0,1,34.9,20a7.19,7.19,0,0,1-.56-.8A3.31,3.31,0,0,1,33,20.82a3.3,3.3,0,0,1,1.3,1.55A3.26,3.26,0,0,1,35.65,20.68Zm-17.91,0a3.14,3.14,0,0,1-1.29-1.57A3.3,3.3,0,0,1,15,20.82a3.19,3.19,0,0,1,1.29,1.56A3.37,3.37,0,0,1,17.74,20.67Zm3.23.15a3.2,3.2,0,0,1,1.29,1.56,3.32,3.32,0,0,1,1.41-1.71,3.19,3.19,0,0,1-1.3-1.57A3.23,3.23,0,0,1,21,20.82Zm5.62,0a3.7,3.7,0,0,1-1.35-1.46c-.19.24-.36.5-.56.71s-.45.4-.69.61a3.65,3.65,0,0,1,1.36,1.5A3.53,3.53,0,0,1,26.59,20.82Zm-7.3-1.52a3.56,3.56,0,0,1-1.24,1.37,3.7,3.7,0,0,1,1.37,1.51,3.54,3.54,0,0,1,1.24-1.36A3.67,3.67,0,0,1,19.29,19.3ZM8.78,20.81A3.73,3.73,0,0,1,7.43,19.3a3.67,3.67,0,0,1-1.24,1.38,3.57,3.57,0,0,1,1.35,1.46c.19-.25.35-.5.55-.72S8.54,21,8.78,20.81Zm3.34-.14a3.66,3.66,0,0,1,1.37,1.52,3.49,3.49,0,0,1,1.24-1.37,3.6,3.6,0,0,1-1.37-1.52A3.49,3.49,0,0,1,12.12,20.67Z"/><path d="M9.05,6.34c-.49.61-1,.65-1.4.12A.86.86,0,0,1,6.94,7a1,1,0,0,1-.8-.35c-.72.55-1.18.47-1.59-.27-.39.67-1,.68-1.44,0a2.23,2.23,0,0,1-.19.24A.76.76,0,0,1,2,6.74a.74.74,0,0,1-.32-.85,2.3,2.3,0,0,1,.8-1.14l.44-.35c-.29-.27-.6-.52-.87-.8a1.63,1.63,0,0,1-.52-1A.81.81,0,0,1,2,1.74a.89.89,0,0,1,1,.18A1.43,1.43,0,0,1,3.1,2,1,1,0,0,1,4,1.67a.84.84,0,0,1,.69.66.71.71,0,0,1,.71-.54.76.76,0,0,1,.73.51.85.85,0,0,1,.67-.51.71.71,0,0,1,.72.38.87.87,0,0,1,.72-.51A1,1,0,0,1,9,2a.9.9,0,0,1,1.59.29.68.68,0,0,1,.69-.52.8.8,0,0,1,.75.5.81.81,0,0,1,.67-.5.69.69,0,0,1,.7.36c.49-.61,1-.66,1.53-.12a1,1,0,0,1,.88-.36.84.84,0,0,1,.7.67.69.69,0,0,1,.7-.55A.8.8,0,0,1,18,2.3a.79.79,0,0,1,.66-.51.69.69,0,0,1,.71.36c.53-.62,1-.66,1.53-.13.69-.56,1.31-.45,1.57.31a.71.71,0,0,1,.71-.54.8.8,0,0,1,.74.51.8.8,0,0,1,.67-.51.7.7,0,0,1,.71.36A.9.9,0,0,1,26.82,2a1,1,0,0,1,.87-.36.81.81,0,0,1,.7.67.71.71,0,0,1,.71-.55.78.78,0,0,1,.73.49.78.78,0,0,1,1.48.08A.82.82,0,0,1,32,1.68a.94.94,0,0,1,.9.35,1,1,0,0,1,.87-.36.83.83,0,0,1,.7.65.72.72,0,0,1,.7-.53.78.78,0,0,1,.74.48A2.49,2.49,0,0,1,36.14,2,.76.76,0,0,1,37,1.89a.74.74,0,0,1,.29.84,2.29,2.29,0,0,1-.79,1.12l-.45.37c.29.26.59.51.86.78a1.82,1.82,0,0,1,.51.89.87.87,0,0,1-.38,1,.91.91,0,0,1-1-.12.78.78,0,0,1-.1-.15c-.63.62-1.38.44-1.61-.26a.74.74,0,0,1-.7.52.8.8,0,0,1-.74-.49c-.41.69-1.24.64-1.46-.07-.38.79-.91.9-1.6.33a1,1,0,0,1-.88.34.85.85,0,0,1-.69-.66.67.67,0,0,1-.61.54.79.79,0,0,1-.83-.5.8.8,0,0,1-.66.5.68.68,0,0,1-.72-.37.84.84,0,0,1-.72.5.91.91,0,0,1-.79-.36c-.69.56-1.17.48-1.6-.26a.77.77,0,0,1-1.44,0,.79.79,0,0,1-.64.49.73.73,0,0,1-.74-.36A.87.87,0,0,1,18.8,7a.92.92,0,0,1-.8-.36c-.73.56-1.31.45-1.58-.3a.74.74,0,0,1-.72.54.82.82,0,0,1-.73-.5.8.8,0,0,1-1.4.14.83.83,0,0,1-.71.48.93.93,0,0,1-.8-.37,1,1,0,0,1-.88.36.8.8,0,0,1-.69-.65.72.72,0,0,1-.71.54A.78.78,0,0,1,9.05,6.34ZM4.8,6c0,.38.16.61.4.67A.71.71,0,0,0,6,6.39a1.12,1.12,0,0,1,.17-.21,1.4,1.4,0,0,1,.16.2.7.7,0,0,0,.79.3A.58.58,0,0,0,7.44,6a1.5,1.5,0,0,0-.15-.42A3.28,3.28,0,0,0,6.2,4.49a.17.17,0,0,0-.18,0,8.67,8.67,0,0,0-.79.69A1.38,1.38,0,0,0,4.8,6ZM32.85,4.24c.28-.24.51-.41.72-.61a1.81,1.81,0,0,0,.61-.92A.63.63,0,0,0,34,2,.57.57,0,0,0,33.35,2a1.53,1.53,0,0,0-.3.27,1.63,1.63,0,0,0-.17.2,1.39,1.39,0,0,1-.15-.19.69.69,0,0,0-.8-.31.57.57,0,0,0-.36.72,1.56,1.56,0,0,0,.28.58C32.16,3.59,32.5,3.89,32.85,4.24Zm-6,0a4,4,0,0,0,1.07-1,1.22,1.22,0,0,0,.26-.75.55.55,0,0,0-.6-.54.63.63,0,0,0-.59.38.61.61,0,0,1-.13.15l-.15-.15-.05-.1a.69.69,0,0,0-.77-.25.56.56,0,0,0-.35.66,1.48,1.48,0,0,0,.16.46A3.65,3.65,0,0,0,26.82,4.19Zm-23.7,0c.24-.2.47-.37.68-.56a2,2,0,0,0,.61-.93A.62.62,0,0,0,4.18,2a.65.65,0,0,0-.75,0,1.89,1.89,0,0,0-.2.27s-.08.1-.11.1A.33.33,0,0,1,3,2.32s0-.07,0-.1a.67.67,0,0,0-.75-.29.55.55,0,0,0-.39.64,1.29,1.29,0,0,0,.17.5A3.69,3.69,0,0,0,3.12,4.2ZM25.27,6.11a3.86,3.86,0,0,0-.16-.48A3.36,3.36,0,0,0,24,4.48a.24.24,0,0,0-.18,0,5.2,5.2,0,0,0-.57.46,1.83,1.83,0,0,0-.64,1,.58.58,0,0,0,.39.67.7.7,0,0,0,.78-.32.85.85,0,0,1,.14-.19,1.45,1.45,0,0,1,.17.19.7.7,0,0,0,.77.32A.63.63,0,0,0,25.27,6.11ZM10.36,2.6c0-.39-.16-.62-.42-.68a.71.71,0,0,0-.75.33c0,.07-.11.12-.16.19a1.39,1.39,0,0,1-.15-.19.69.69,0,0,0-.78-.32.58.58,0,0,0-.38.71,1.46,1.46,0,0,0,.16.41A3.38,3.38,0,0,0,9,4.13a.19.19,0,0,0,.18,0c.27-.23.55-.45.79-.7A1.3,1.3,0,0,0,10.36,2.6ZM15,4.19A4.06,4.06,0,0,0,16,3.2a1.1,1.1,0,0,0,.26-.78.55.55,0,0,0-.57-.51.64.64,0,0,0-.62.39.92.92,0,0,1-.14.14l-.13-.15-.05-.09A.7.7,0,0,0,14,1.94a.59.59,0,0,0-.34.7,1.61,1.61,0,0,0,.17.43A3.59,3.59,0,0,0,15,4.19Zm5.94,0a3.55,3.55,0,0,0,1.08-1,1.65,1.65,0,0,0,.23-.71.52.52,0,0,0-.59-.54.61.61,0,0,0-.59.4s-.09.12-.12.12a.37.37,0,0,1-.15-.13.39.39,0,0,1-.06-.11A.71.71,0,0,0,20,1.92a.53.53,0,0,0-.42.53,1.53,1.53,0,0,0,.16.59A3.48,3.48,0,0,0,20.9,4.19ZM10.73,6c0,.49.27.73.65.68a.63.63,0,0,0,.55-.41.24.24,0,0,1,.14-.1s.08.06.11.1a.25.25,0,0,1,0,.09.7.7,0,0,0,.77.31A.55.55,0,0,0,13.37,6a1.25,1.25,0,0,0-.15-.46,3.16,3.16,0,0,0-1.09-1.09.17.17,0,0,0-.18,0,10,10,0,0,0-.78.68A1.34,1.34,0,0,0,10.73,6Zm8.61.09a3.75,3.75,0,0,0-.19-.53,3.16,3.16,0,0,0-1.09-1.09.15.15,0,0,0-.16,0c-.34.31-.68.61-1,.94a1,1,0,0,0-.25.75.55.55,0,0,0,.59.53.66.66,0,0,0,.6-.39A.25.25,0,0,1,18,6.19s.09.07.12.11a1.19,1.19,0,0,1,.09.15.69.69,0,0,0,.74.23A.63.63,0,0,0,19.34,6.11Zm9.17,0a.55.55,0,0,0,.64.58.63.63,0,0,0,.57-.4.2.2,0,0,1,.13-.11s.08.06.12.1A1.17,1.17,0,0,1,30,6.4a.69.69,0,0,0,.78.28A.57.57,0,0,0,31.16,6,1.23,1.23,0,0,0,31,5.6a3.34,3.34,0,0,0-1.1-1.11.17.17,0,0,0-.18,0,9.14,9.14,0,0,0-.81.71A1.32,1.32,0,0,0,28.51,6.12ZM34.58,6c0,.49.26.74.65.69a.65.65,0,0,0,.53-.37c0-.06.1-.1.15-.15l.13.14s0,.06,0,.08a.69.69,0,0,0,.75.29.57.57,0,0,0,.39-.63,1.41,1.41,0,0,0-.15-.48A3.25,3.25,0,0,0,36,4.49a.17.17,0,0,0-.18,0A8.67,8.67,0,0,0,35,5.2,1.28,1.28,0,0,0,34.58,6ZM30,4.23A3.22,3.22,0,0,1,31.42,6a3.08,3.08,0,0,1,1.3-1.61A3.3,3.3,0,0,1,31.3,2.62,3.06,3.06,0,0,1,30,4.23Zm-24,0c-.26-.24-.53-.44-.75-.68s-.38-.54-.56-.8A3.35,3.35,0,0,1,3.26,4.39a3.23,3.23,0,0,1,1.3,1.54A3.23,3.23,0,0,1,6,4.25ZM28.39,2.67A3.33,3.33,0,0,1,27,4.39,3.16,3.16,0,0,1,28.27,6a3.31,3.31,0,0,1,1.42-1.72A3.17,3.17,0,0,1,28.39,2.67ZM10.49,5.94A3.32,3.32,0,0,1,11.9,4.23a3.22,3.22,0,0,1-1.29-1.55A3.43,3.43,0,0,1,9.19,4.39,3.2,3.2,0,0,1,10.49,5.94ZM33,4.39a3.15,3.15,0,0,1,1.29,1.54,3.41,3.41,0,0,1,1.42-1.7,3.26,3.26,0,0,1-1.3-1.54C34.24,3.33,34.12,3.47,33,4.39ZM16.44,5.86a3.33,3.33,0,0,1,1.39-1.63,3.22,3.22,0,0,1-1.3-1.56,3.19,3.19,0,0,1-1.39,1.7,9.62,9.62,0,0,1,.74.68A7.75,7.75,0,0,1,16.44,5.86Zm5.9.09a3.31,3.31,0,0,1,1.42-1.72,3.17,3.17,0,0,1-1.3-1.56,3.29,3.29,0,0,1-1.41,1.72A3.16,3.16,0,0,1,22.34,6Zm1.72-1.72a3.66,3.66,0,0,1,1.37,1.52,3.54,3.54,0,0,1,1.24-1.36,3.71,3.71,0,0,1-1.36-1.52A3.56,3.56,0,0,1,24.06,4.23Zm-5.91,0A3.67,3.67,0,0,1,19.5,5.75a3.64,3.64,0,0,1,1.24-1.37A3.61,3.61,0,0,1,19.4,2.92c-.19.24-.36.5-.56.71S18.39,4,18.15,4.24Zm-11.86,0a3.51,3.51,0,0,1,1.35,1.5A3.54,3.54,0,0,1,8.88,4.39,3.77,3.77,0,0,1,7.54,2.92c-.19.24-.36.5-.56.71S6.53,4,6.29,4.25Zm5.92,0a3.7,3.7,0,0,1,1.36,1.52,3.64,3.64,0,0,1,1.24-1.37,3.7,3.7,0,0,1-1.37-1.51A3.44,3.44,0,0,1,12.21,4.23Z"/><path d="M19.09,13V11.66h.48v2.06h-.52c0-.07,0-.16-.08-.2l-1.18-1.09c0,.38,0,.83,0,1.29h-.49a7.89,7.89,0,0,0,0-2.06h.61c0,.06,0,.14,0,.18Z"/><path d="M25,13V11.66h.45c0,.69,0,1.37,0,2.06h-.5c0-.08,0-.17-.09-.21-.39-.37-.79-.73-1.17-1.07,0,.37,0,.82,0,1.28h-.43c0-.69,0-1.37,0-2.06h.57a.49.49,0,0,0,0,.19Z"/><path d="M16.26,15.45h1.42a.9.9,0,0,1,.83,1.08.93.93,0,0,1-1,1h-1.2A7.73,7.73,0,0,0,16.26,15.45Zm.51,1.71c.26,0,.5,0,.74,0a.5.5,0,0,0,.5-.39,1.84,1.84,0,0,0,0-.62.46.46,0,0,0-.42-.37c-.26,0-.54,0-.82,0Z"/><path d="M15.33,7.89h.51V10h-.51V9H14.17V10h-.5V7.89h.5v.78h1.16Z"/><path d="M27.89,11.64V12H26.44v.45h1v.4h-1v.49h1.49v.39H26c0-.71,0-1.39,0-2.11Z"/><path d="M15,13.75c0-.72,0-1.4,0-2.12h1.9V12H15.47v.45h1v.4h-1v.49H17v.39Z"/><path d="M30.93,12.28a1,1,0,0,0-1-.3c-.1,0-.16.17-.23.26a.73.73,0,0,0,.26.17l.66.09a.59.59,0,0,1,.57.56.62.62,0,0,1-.5.64,1.78,1.78,0,0,1-1.16-.07l-.32-.11.2-.45a1,1,0,0,0,1.15.3.37.37,0,0,0,.18-.26s-.14-.14-.22-.16c-.25,0-.5-.06-.75-.11a.54.54,0,0,1-.49-.46.6.6,0,0,1,.35-.66,1.57,1.57,0,0,1,1.15,0l.39.13Z"/><path d="M21.3,7.91c.49,0,1,0,1.54,0a.52.52,0,0,1,.5.58.53.53,0,0,1-.5.57c-.35,0-.7,0-1,.06V10h-.5Zm.47.86h.85a.25.25,0,0,0,.26-.27.24.24,0,0,0-.24-.27h-.87Z"/><path d="M18.92,7.91c.5,0,1,0,1.55,0a.53.53,0,0,1,.5.58.52.52,0,0,1-.5.57c-.35,0-.7,0-1,0V10h-.5Zm.48.86h.85a.25.25,0,0,0,.26-.27.25.25,0,0,0-.24-.27H19.4Z"/><path d="M18.6,17.49l.19-.36c.22-.46.45-.92.66-1.39a1.22,1.22,0,0,0,.06-.3h.58a.71.71,0,0,0,0,.26c.25.53.51,1.05.77,1.57a2.17,2.17,0,0,0,.15.22h-.68a.35.35,0,0,0-.32-.5h-.57a.33.33,0,0,0-.28.5Zm1.18-1.56-.35.75h.69Z"/><path d="M12.45,13.72h-.68a.35.35,0,0,0-.32-.5h-.59a.33.33,0,0,0-.26.5H10c.28-.6.58-1.21.87-1.82,0-.07,0-.16,0-.24h.61a.73.73,0,0,0,0,.27c.25.53.51,1.05.77,1.57A2.17,2.17,0,0,0,12.45,13.72Zm-.93-.8-.34-.75-.35.75Z"/><path d="M17.08,7.89h.6a1.06,1.06,0,0,0,0,.26l.8,1.6a1.05,1.05,0,0,0,.14.2H18a.35.35,0,0,0-.33-.5h-.57a.34.34,0,0,0-.28.5H16.2l.63-1.31a3.88,3.88,0,0,0,.22-.46A1.23,1.23,0,0,0,17.08,7.89Zm.63,1.26-.35-.76L17,9.15Z"/><path d="M9.32,13.72H8.73a.59.59,0,0,0,0-.23c-.25-.56-.52-1.12-.78-1.68a1,1,0,0,0-.1-.15h.61a1.65,1.65,0,0,0,.06.32c.16.37.33.74.52,1.15.21-.45.4-.87.58-1.28,0,0,0-.13,0-.19h.59c-.28.61-.57,1.23-.85,1.85C9.28,13.56,9.32,13.65,9.32,13.72Z"/><path d="M24.31,10c0-.37.14-.75-.14-1.1s-.47-.64-.7-.95h.67c0,.35.3.51.42.85.14-.34.47-.5.43-.86h.65a8.25,8.25,0,0,0-.8,1.16,2.25,2.25,0,0,0,0,.9Z"/><path d="M22.19,17.49h-.51c0-.38.14-.76-.14-1.11s-.47-.63-.69-.94h.66c0,.35.3.51.43.85.13-.34.46-.5.42-.86H23a8.32,8.32,0,0,0-.81,1.16A2.45,2.45,0,0,0,22.19,17.49Z"/><path d="M19.88,12v-.38h2V12h-.77v1.7h-.5V12Z"/><path d="M12.76,11.66h.46c0,.57,0,1.13,0,1.7h1.44v.39h-1.9C12.79,13,12.77,12.36,12.76,11.66Z"/><path d="M22.18,11.66h.57a7.46,7.46,0,0,0,0,2.06H22.2A7.47,7.47,0,0,0,22.18,11.66Z"/><path d="M28.41,12.51l.28-.37c-.2,0-.37-.07-.34-.27a.33.33,0,0,1,.16-.24.31.31,0,0,1,.26.11A.55.55,0,0,1,28.41,12.51Z"/></g><g class="cls-3"><path d="M28,18.4c.47-.68,1.08-.7,1.46,0a.84.84,0,0,1,.77-.51.69.69,0,0,1,.68.58c.38-.81,1-.93,1.59-.34.7-.56,1.21-.48,1.59.28a.69.69,0,0,1,.7-.52.77.77,0,0,1,.72.49,2,2,0,0,1,.23-.27.72.72,0,0,1,1.21.73A2.37,2.37,0,0,1,36.1,20a5.07,5.07,0,0,1-.45.36c.3.27.6.52.87.79A1.88,1.88,0,0,1,37,22a.86.86,0,0,1-.36.94.89.89,0,0,1-1-.1,1.22,1.22,0,0,1-.14-.16,1,1,0,0,1-.89.37.83.83,0,0,1-.69-.65.71.71,0,0,1-.71.53.79.79,0,0,1-.74-.5.81.81,0,0,1-.86.5c-.31,0-.49-.25-.6-.6-.11.39-.3.65-.67.71a1,1,0,0,1-.91-.34.89.89,0,0,1-1.58-.3.69.69,0,0,1-.7.53.78.78,0,0,1-.74-.51.82.82,0,0,1-.67.51.69.69,0,0,1-.71-.36c-.5.61-1,.66-1.53.13a1,1,0,0,1-.88.35.82.82,0,0,1-.69-.66.71.71,0,0,1-.72.54.8.8,0,0,1-.73-.5.78.78,0,0,1-1.39.14.86.86,0,0,1-.71.49,1,1,0,0,1-.8-.36A.89.89,0,0,1,16,22.38a.7.7,0,0,1-.7.54.77.77,0,0,1-.75-.51.81.81,0,0,1-.66.51.73.73,0,0,1-.73-.37.84.84,0,0,1-.72.5,1,1,0,0,1-.79-.37,1,1,0,0,1-.89.36.83.83,0,0,1-.69-.65.71.71,0,0,1-.71.53.76.76,0,0,1-.73-.51.85.85,0,0,1-.67.51.71.71,0,0,1-.72-.38.87.87,0,0,1-.72.51,1,1,0,0,1-.8-.36.89.89,0,0,1-1.58-.29.71.71,0,0,1-.7.52.79.79,0,0,1-.74-.48,3.17,3.17,0,0,1-.21.27.78.78,0,0,1-.9.12A.73.73,0,0,1,1.26,22a2.31,2.31,0,0,1,.81-1.13c.14-.13.3-.24.43-.35-.29-.27-.6-.52-.87-.8a1.62,1.62,0,0,1-.51-1.07.78.78,0,0,1,.47-.8.9.9,0,0,1,1,.16.81.81,0,0,1,.12.14.91.91,0,0,1,1.6.24c.4-.66,1-.67,1.44,0a.84.84,0,0,1,.67-.48.7.7,0,0,1,.71.36.9.9,0,0,1,1.53-.13.94.94,0,0,1,.87-.35.82.82,0,0,1,.7.65.77.77,0,0,1,1.45-.06c.42-.6,1-.65,1.39-.1a.82.82,0,0,1,.7-.5.94.94,0,0,1,.81.37,1,1,0,0,1,.89-.36.84.84,0,0,1,.69.64.78.78,0,0,1,1.46,0,.79.79,0,0,1,.66-.49.68.68,0,0,1,.7.36.92.92,0,0,1,1.54-.14.87.87,0,0,1,1.56.32.73.73,0,0,1,.72-.55.82.82,0,0,1,.74.52.79.79,0,0,1,.65-.51.71.71,0,0,1,.73.37.83.83,0,0,1,.71-.5.94.94,0,0,1,.81.37,1,1,0,0,1,.88-.36A.79.79,0,0,1,28,18.4ZM4.38,22.11c0,.39.16.62.41.68a.69.69,0,0,0,.76-.34c0-.06.1-.11.15-.17a.9.9,0,0,1,.16.18.69.69,0,0,0,.79.32A.59.59,0,0,0,7,22.06a1.35,1.35,0,0,0-.16-.41,3.28,3.28,0,0,0-1.07-1.06.19.19,0,0,0-.18,0c-.27.23-.56.45-.81.71A1.29,1.29,0,0,0,4.38,22.11Zm28.06-1.76c.35-.32.66-.56.92-.85a2.37,2.37,0,0,0,.4-.71.57.57,0,0,0-.19-.67.59.59,0,0,0-.69,0,1.44,1.44,0,0,0-.29.31l-.13.14-.14-.15,0-.05a.67.67,0,0,0-.78-.31.57.57,0,0,0-.36.72,1.55,1.55,0,0,0,.27.58C31.73,19.68,32.08,20,32.44,20.35Zm-6-.07a3.46,3.46,0,0,0,1.06-1,1.83,1.83,0,0,0,.26-.72A.53.53,0,0,0,27.1,18a.64.64,0,0,0-.56.37.93.93,0,0,1-.13.15.79.79,0,0,1-.22-.26.67.67,0,0,0-.73-.24.55.55,0,0,0-.39.56,1.61,1.61,0,0,0,.16.54A3.48,3.48,0,0,0,26.4,20.28Zm-23.74.06a8,8,0,0,0,.84-.75A2.58,2.58,0,0,0,4,18.81a.58.58,0,0,0-.17-.69.63.63,0,0,0-.72,0,2,2,0,0,0-.27.31c0,.05-.09.1-.14.1s-.08-.05-.11-.09l-.05-.1a.69.69,0,0,0-.75-.3.54.54,0,0,0-.39.64,1.43,1.43,0,0,0,.28.67C2,19.68,2.3,20,2.66,20.34ZM24.84,22.2a3.53,3.53,0,0,0-.15-.46,3.25,3.25,0,0,0-1.14-1.16s-.13,0-.18,0a10.4,10.4,0,0,0-.79.7,1.36,1.36,0,0,0-.42.81.6.6,0,0,0,.39.67.71.71,0,0,0,.77-.31l.16-.2a1,1,0,0,1,.17.19.71.71,0,0,0,.76.32A.63.63,0,0,0,24.84,22.2Zm-10.3-1.92a3.57,3.57,0,0,0,1.08-1,1.82,1.82,0,0,0,.24-.62.55.55,0,0,0-.4-.64.7.7,0,0,0-.76.32,1,1,0,0,1-.17.19,1.39,1.39,0,0,1-.15-.19A.69.69,0,0,0,13.6,18a.57.57,0,0,0-.37.71,1.44,1.44,0,0,0,.15.41A3.58,3.58,0,0,0,14.54,20.28Zm-6,0c.28-.23.5-.39.71-.59a2,2,0,0,0,.62-.91.66.66,0,0,0-.16-.69.57.57,0,0,0-.67-.07,1.41,1.41,0,0,0-.31.29c-.06.05-.11.12-.16.17l-.15-.18,0,0A.68.68,0,0,0,7.66,18a.57.57,0,0,0-.36.7,1.62,1.62,0,0,0,.28.61C7.88,19.68,8.23,20,8.58,20.33Zm11.89,0a3.54,3.54,0,0,0,1.09-1,1.8,1.8,0,0,0,.23-.71A.53.53,0,0,0,21.2,18a.64.64,0,0,0-.6.4c0,.05-.09.13-.12.12s-.1-.07-.14-.12a.39.39,0,0,1-.06-.11.72.72,0,0,0-.71-.28.54.54,0,0,0-.42.54,1.42,1.42,0,0,0,.15.58A3.48,3.48,0,0,0,20.47,20.28ZM10.3,22.1c0,.4.17.63.42.69a.71.71,0,0,0,.75-.32,1.46,1.46,0,0,1,.16-.19,1,1,0,0,1,.16.19.71.71,0,0,0,.77.32.57.57,0,0,0,.39-.67,1.34,1.34,0,0,0-.16-.45,3.19,3.19,0,0,0-1.08-1.08.19.19,0,0,0-.18,0c-.27.23-.56.45-.81.71A1.34,1.34,0,0,0,10.3,22.1Zm17.79.12a.57.57,0,0,0,.42.57.69.69,0,0,0,.74-.31,1.12,1.12,0,0,1,.17-.2,1.46,1.46,0,0,1,.16.19.69.69,0,0,0,.79.31.58.58,0,0,0,.36-.68,1.3,1.3,0,0,0-.15-.43,3.38,3.38,0,0,0-1.08-1.08.19.19,0,0,0-.18,0,9.87,9.87,0,0,0-.84.74A1.26,1.26,0,0,0,28.09,22.22Zm-9.17,0a3.5,3.5,0,0,0-.2-.54,3.19,3.19,0,0,0-1.08-1.08.19.19,0,0,0-.18,0,6.07,6.07,0,0,0-.84.76,1.93,1.93,0,0,0-.37.76.54.54,0,0,0,.36.66.7.7,0,0,0,.79-.31,1,1,0,0,1,.16-.19,1.46,1.46,0,0,1,.16.19.7.7,0,0,0,.75.32A.63.63,0,0,0,18.92,22.21Zm15.23-.12c0,.51.27.75.65.71a.63.63,0,0,0,.53-.37,1.06,1.06,0,0,1,.15-.15,1.07,1.07,0,0,1,.14.16s0,0,0,0a.7.7,0,0,0,.76.3.55.55,0,0,0,.38-.63,1.39,1.39,0,0,0-.14-.48,3.28,3.28,0,0,0-1.1-1.09.17.17,0,0,0-.17,0,9.14,9.14,0,0,0-.81.71A1.35,1.35,0,0,0,34.15,22.09ZM32.3,20.48a3.23,3.23,0,0,1-1.43-1.77,3,3,0,0,1-1.29,1.62A3.23,3.23,0,0,1,31,22.09,3.1,3.1,0,0,1,32.3,20.48ZM4.13,22a3.36,3.36,0,0,1,1.42-1.7,3.19,3.19,0,0,1-1.3-1.55,3.34,3.34,0,0,1-1.41,1.7A3.23,3.23,0,0,1,4.13,22Zm23.71,0a3.28,3.28,0,0,1,1.4-1.71,8.29,8.29,0,0,1-.75-.69,7.63,7.63,0,0,1-.55-.8,3.26,3.26,0,0,1-1.38,1.63A3.07,3.07,0,0,1,27.84,22.05ZM10.06,22a3.3,3.3,0,0,1,1.42-1.71,3.24,3.24,0,0,1-1.3-1.55,3.34,3.34,0,0,1-1.41,1.7A3.15,3.15,0,0,1,10.06,22Zm25.25-1.7a8.2,8.2,0,0,1-.75-.68,7.19,7.19,0,0,1-.56-.8,3.31,3.31,0,0,1-1.39,1.62A3.3,3.3,0,0,1,33.91,22,3.26,3.26,0,0,1,35.31,20.34Zm-17.91,0a3.14,3.14,0,0,1-1.29-1.57,3.3,3.3,0,0,1-1.41,1.72A3.19,3.19,0,0,1,16,22,3.37,3.37,0,0,1,17.4,20.33Zm3.23.15A3.2,3.2,0,0,1,21.92,22a3.32,3.32,0,0,1,1.41-1.71A3.19,3.19,0,0,1,22,18.76,3.23,3.23,0,0,1,20.63,20.48Zm5.62,0A3.7,3.7,0,0,1,24.9,19c-.19.24-.36.5-.56.71s-.45.4-.69.61A3.65,3.65,0,0,1,25,21.84,3.53,3.53,0,0,1,26.25,20.48ZM19,19a3.56,3.56,0,0,1-1.24,1.37,3.7,3.7,0,0,1,1.37,1.51,3.54,3.54,0,0,1,1.24-1.36A3.67,3.67,0,0,1,19,19ZM8.44,20.47A3.73,3.73,0,0,1,7.09,19a3.67,3.67,0,0,1-1.24,1.38A3.57,3.57,0,0,1,7.2,21.8c.19-.25.35-.5.55-.72S8.2,20.68,8.44,20.47Zm3.34-.14a3.66,3.66,0,0,1,1.37,1.52,3.49,3.49,0,0,1,1.24-1.37A3.6,3.6,0,0,1,13,19,3.49,3.49,0,0,1,11.78,20.33Z"/><path d="M8.71,6c-.49.61-1,.65-1.4.12a.86.86,0,0,1-.71.49,1,1,0,0,1-.8-.35c-.72.55-1.18.47-1.59-.27-.39.67-1,.68-1.44,0a2.23,2.23,0,0,1-.19.24.76.76,0,0,1-.91.15.74.74,0,0,1-.32-.85,2.3,2.3,0,0,1,.8-1.14l.44-.35c-.3-.27-.6-.52-.87-.8a1.63,1.63,0,0,1-.52-1,.81.81,0,0,1,.47-.82.89.89,0,0,1,1,.18,1.43,1.43,0,0,1,.11.12,1,1,0,0,1,.89-.37A.85.85,0,0,1,4.34,2a.71.71,0,0,1,.71-.53A.76.76,0,0,1,5.78,2a.83.83,0,0,1,.67-.51.71.71,0,0,1,.72.38.87.87,0,0,1,.72-.51,1,1,0,0,1,.8.36A.9.9,0,0,1,10.28,2,.68.68,0,0,1,11,1.45a.8.8,0,0,1,.75.5.81.81,0,0,1,.67-.5.69.69,0,0,1,.7.36c.49-.61,1-.66,1.53-.12a1,1,0,0,1,.88-.36.84.84,0,0,1,.7.67.69.69,0,0,1,.7-.55.8.8,0,0,1,.75.51.79.79,0,0,1,.66-.51.69.69,0,0,1,.71.36c.53-.62,1-.66,1.52-.13.7-.56,1.32-.45,1.58.31a.71.71,0,0,1,.71-.54.8.8,0,0,1,.74.51.8.8,0,0,1,.67-.51.7.7,0,0,1,.71.36.9.9,0,0,1,1.53-.12,1,1,0,0,1,.87-.36.81.81,0,0,1,.7.67.7.7,0,0,1,.71-.55.78.78,0,0,1,.73.49A.78.78,0,0,1,31,2a.82.82,0,0,1,.67-.68.94.94,0,0,1,.9.35,1,1,0,0,1,.87-.36.83.83,0,0,1,.7.65.72.72,0,0,1,.7-.53.78.78,0,0,1,.74.48,2.49,2.49,0,0,1,.25-.29.74.74,0,0,1,.88-.09.73.73,0,0,1,.3.84,2.29,2.29,0,0,1-.79,1.12l-.45.37c.29.26.59.51.86.78a1.73,1.73,0,0,1,.5.89.86.86,0,0,1-.37,1,.91.91,0,0,1-1-.12.62.62,0,0,1-.1-.16C35,6.85,34.22,6.67,34,6a.74.74,0,0,1-.7.52A.8.8,0,0,1,32.55,6c-.41.69-1.24.64-1.46-.07-.38.79-.91.9-1.6.33a1,1,0,0,1-.88.34.85.85,0,0,1-.69-.66.67.67,0,0,1-.61.54.79.79,0,0,1-.83-.5.8.8,0,0,1-.66.5.68.68,0,0,1-.72-.37.84.84,0,0,1-.72.5.91.91,0,0,1-.79-.36c-.69.56-1.17.48-1.6-.26a.77.77,0,0,1-1.45,0,.76.76,0,0,1-.63.49.73.73,0,0,1-.74-.36.87.87,0,0,1-.71.49.92.92,0,0,1-.8-.36c-.73.56-1.31.45-1.58-.3a.74.74,0,0,1-.72.54.82.82,0,0,1-.73-.5.8.8,0,0,1-1.4.14.83.83,0,0,1-.71.48.93.93,0,0,1-.8-.37,1,1,0,0,1-.88.36A.8.8,0,0,1,10.15,6c-.15.34-.35.55-.71.54A.78.78,0,0,1,8.71,6ZM4.46,5.68c0,.38.16.61.4.67a.71.71,0,0,0,.76-.3,1.12,1.12,0,0,1,.17-.21A1.4,1.4,0,0,1,6,6a.7.7,0,0,0,.79.3.58.58,0,0,0,.36-.7A1.5,1.5,0,0,0,7,5.22,3.28,3.28,0,0,0,5.86,4.15a.17.17,0,0,0-.18,0,8.67,8.67,0,0,0-.79.69A1.38,1.38,0,0,0,4.46,5.68ZM32.51,3.9c.28-.24.51-.41.72-.61a1.81,1.81,0,0,0,.61-.92.63.63,0,0,0-.17-.68A.57.57,0,0,0,33,1.63a1.29,1.29,0,0,0-.3.27,1.63,1.63,0,0,0-.17.2,1.39,1.39,0,0,1-.15-.19.69.69,0,0,0-.8-.31.57.57,0,0,0-.36.72,1.56,1.56,0,0,0,.28.58C31.82,3.25,32.16,3.55,32.51,3.9Zm-6,0a4,4,0,0,0,1.07-1,1.22,1.22,0,0,0,.26-.75.55.55,0,0,0-.6-.54.63.63,0,0,0-.59.38.61.61,0,0,1-.13.15L26.34,2l-.05-.1a.69.69,0,0,0-.77-.25.56.56,0,0,0-.35.66,1.48,1.48,0,0,0,.16.46A3.65,3.65,0,0,0,26.48,3.85Zm-23.7,0c.24-.2.47-.37.68-.56a2,2,0,0,0,.61-.93.62.62,0,0,0-.23-.71.65.65,0,0,0-.75.05,1.89,1.89,0,0,0-.2.27s-.08.1-.11.1A.33.33,0,0,1,2.64,2l-.05-.1a.67.67,0,0,0-.75-.29.55.55,0,0,0-.39.64,1.29,1.29,0,0,0,.17.5A3.69,3.69,0,0,0,2.78,3.86ZM24.93,5.77a3.86,3.86,0,0,0-.16-.48,3.28,3.28,0,0,0-1.13-1.15.24.24,0,0,0-.18,0,5.2,5.2,0,0,0-.57.46,1.83,1.83,0,0,0-.64,1,.58.58,0,0,0,.39.67A.7.7,0,0,0,23.42,6a.85.85,0,0,1,.14-.19,1.45,1.45,0,0,1,.17.19.7.7,0,0,0,.77.32A.63.63,0,0,0,24.93,5.77ZM10,2.26c0-.39-.16-.62-.42-.68a.71.71,0,0,0-.75.33c0,.07-.11.12-.16.19a1.39,1.39,0,0,1-.15-.19.69.69,0,0,0-.78-.32.58.58,0,0,0-.38.71,1.46,1.46,0,0,0,.16.41A3.38,3.38,0,0,0,8.62,3.79a.19.19,0,0,0,.18,0c.27-.23.55-.45.79-.7A1.3,1.3,0,0,0,10,2.26Zm4.6,1.59a4.06,4.06,0,0,0,1.07-1A1.1,1.1,0,0,0,16,2.08a.55.55,0,0,0-.57-.51.64.64,0,0,0-.62.39.92.92,0,0,1-.14.14L14.49,2l-.05-.09a.7.7,0,0,0-.79-.26.59.59,0,0,0-.34.7,1.61,1.61,0,0,0,.17.43A3.59,3.59,0,0,0,14.62,3.85Zm5.94,0a3.55,3.55,0,0,0,1.08-1,1.65,1.65,0,0,0,.23-.71.52.52,0,0,0-.59-.54.61.61,0,0,0-.59.4c0,.05-.09.12-.12.12A.37.37,0,0,1,20.42,2a.39.39,0,0,1-.06-.11.71.71,0,0,0-.71-.27.53.53,0,0,0-.42.53,1.53,1.53,0,0,0,.16.59A3.39,3.39,0,0,0,20.56,3.85ZM10.39,5.68c0,.49.27.73.65.68A.63.63,0,0,0,11.59,6a.22.22,0,0,1,.14-.1s.07.06.11.1a.25.25,0,0,1,0,.09.7.7,0,0,0,.77.31A.55.55,0,0,0,13,5.7a1.25,1.25,0,0,0-.15-.46,3.16,3.16,0,0,0-1.09-1.09.17.17,0,0,0-.18,0,8.44,8.44,0,0,0-.78.68A1.34,1.34,0,0,0,10.39,5.68ZM19,5.77a3.75,3.75,0,0,0-.19-.53,3.16,3.16,0,0,0-1.09-1.09.15.15,0,0,0-.16,0c-.34.31-.68.61-1,.94a1,1,0,0,0-.25.75.55.55,0,0,0,.59.53.66.66,0,0,0,.6-.39.25.25,0,0,1,.14-.13s.09.07.12.11a1.19,1.19,0,0,1,.09.15.69.69,0,0,0,.74.23A.63.63,0,0,0,19,5.77Zm9.17,0a.55.55,0,0,0,.64.58.63.63,0,0,0,.57-.4.2.2,0,0,1,.13-.11s.08.06.12.1a1.17,1.17,0,0,1,.05.11.69.69,0,0,0,.78.28.57.57,0,0,0,.36-.66,1.23,1.23,0,0,0-.14-.42,3.46,3.46,0,0,0-1.1-1.12.2.2,0,0,0-.18,0,9.14,9.14,0,0,0-.81.71A1.32,1.32,0,0,0,28.17,5.78Zm6.07-.11c0,.49.26.74.65.69A.65.65,0,0,0,35.42,6c0-.06.1-.1.15-.15L35.7,6s0,0,0,.08a.69.69,0,0,0,.75.29.57.57,0,0,0,.39-.63,1.41,1.41,0,0,0-.15-.48,3.25,3.25,0,0,0-1.09-1.09.17.17,0,0,0-.18,0,10.4,10.4,0,0,0-.8.69A1.31,1.31,0,0,0,34.24,5.67ZM29.66,3.89a3.22,3.22,0,0,1,1.42,1.77A3.15,3.15,0,0,1,32.38,4,3.24,3.24,0,0,1,31,2.28,3.06,3.06,0,0,1,29.66,3.89Zm-24,0c-.26-.24-.53-.44-.75-.68s-.38-.54-.56-.8A3.35,3.35,0,0,1,2.92,4.05a3.23,3.23,0,0,1,1.3,1.54A3.23,3.23,0,0,1,5.62,3.91ZM28.05,2.33a3.33,3.33,0,0,1-1.41,1.72,3.16,3.16,0,0,1,1.29,1.56,3.31,3.31,0,0,1,1.42-1.72A3.17,3.17,0,0,1,28.05,2.33ZM10.15,5.6a3.32,3.32,0,0,1,1.41-1.71,3.22,3.22,0,0,1-1.29-1.55A3.43,3.43,0,0,1,8.85,4.05,3.2,3.2,0,0,1,10.15,5.6ZM32.7,4.05A3.15,3.15,0,0,1,34,5.59a3.41,3.41,0,0,1,1.42-1.7,3.26,3.26,0,0,1-1.3-1.54C33.9,3,33.78,3.13,32.7,4.05ZM16.1,5.52a3.33,3.33,0,0,1,1.39-1.63,3.22,3.22,0,0,1-1.3-1.56A3.19,3.19,0,0,1,14.8,4c.25.23.52.43.74.67A9.12,9.12,0,0,1,16.1,5.52Zm5.9.09a3.27,3.27,0,0,1,1.42-1.72,3.17,3.17,0,0,1-1.3-1.56,3.29,3.29,0,0,1-1.41,1.72A3.16,3.16,0,0,1,22,5.61Zm1.72-1.72a3.66,3.66,0,0,1,1.37,1.52,3.54,3.54,0,0,1,1.24-1.36A3.71,3.71,0,0,1,25,2.53,3.56,3.56,0,0,1,23.72,3.89Zm-5.91,0a3.67,3.67,0,0,1,1.35,1.51A3.64,3.64,0,0,1,20.4,4a3.61,3.61,0,0,1-1.34-1.46c-.19.24-.36.5-.56.71S18.05,3.69,17.81,3.9ZM6,3.91A3.51,3.51,0,0,1,7.3,5.41,3.54,3.54,0,0,1,8.54,4.05,3.77,3.77,0,0,1,7.2,2.58c-.19.24-.36.49-.56.71S6.19,3.69,6,3.91Zm5.92,0a3.7,3.7,0,0,1,1.36,1.52A3.64,3.64,0,0,1,14.47,4,3.7,3.7,0,0,1,13.1,2.53,3.44,3.44,0,0,1,11.87,3.89Z"/><path d="M18.75,12.69V11.32h.48v2.06h-.52c0-.07,0-.16-.08-.2l-1.18-1.09c0,.38,0,.83,0,1.29H17a7.89,7.89,0,0,0,0-2.06h.61c0,.06,0,.14,0,.18Z"/><path d="M24.64,12.68V11.32h.45c0,.69,0,1.37,0,2.06h-.5c0-.08,0-.17-.09-.21-.39-.37-.79-.73-1.17-1.07,0,.37,0,.82,0,1.28h-.43c0-.69,0-1.37,0-2.06h.57c0,.07,0,.15,0,.19Z"/><path d="M15.92,15.11h1.42a.9.9,0,0,1,.83,1.07.94.94,0,0,1-1,1h-1.2A7.73,7.73,0,0,0,15.92,15.11Zm.51,1.71h.74a.5.5,0,0,0,.5-.39,1.84,1.84,0,0,0,0-.62.46.46,0,0,0-.42-.37c-.26,0-.54,0-.82,0Z"/><path d="M15,7.55h.51V9.61H15V8.7H13.83v.91h-.5V7.55h.5v.78H15Z"/><path d="M27.55,11.3v.38H26.1v.45h1v.4h-1V13h1.49v.39H25.64c0-.71,0-1.39,0-2.11Z"/><path d="M14.67,13.41c0-.72,0-1.4,0-2.12h1.9v.39H15.13v.45h1v.4h-1V13h1.5v.39Z"/><path d="M30.59,11.94a1,1,0,0,0-1-.3c-.1,0-.16.17-.23.26a.73.73,0,0,0,.26.17c.22,0,.44,0,.66.09a.59.59,0,0,1,.57.56.62.62,0,0,1-.5.64,1.78,1.78,0,0,1-1.16-.07l-.32-.11.2-.45a1,1,0,0,0,1.15.3.37.37,0,0,0,.18-.26s-.14-.14-.22-.16c-.25,0-.5-.06-.75-.11a.54.54,0,0,1-.49-.46.6.6,0,0,1,.35-.66,1.57,1.57,0,0,1,1.15,0l.39.13Z"/><path d="M21,7.57c.49,0,1,0,1.54,0a.52.52,0,0,1,.5.58.53.53,0,0,1-.5.57c-.35,0-.7,0-1,.06v.82H21Zm.47.86h.85a.25.25,0,0,0,.26-.27.24.24,0,0,0-.24-.27h-.87Z"/><path d="M18.58,7.57c.5,0,1,0,1.55,0a.53.53,0,0,1,.5.58.52.52,0,0,1-.5.57c-.35,0-.7,0-1.05,0v.87h-.5Zm.48.86h.85a.25.25,0,0,0,.26-.27.25.25,0,0,0-.24-.27h-.87Z"/><path d="M18.26,17.15l.19-.36c.22-.46.45-.92.66-1.39a1.22,1.22,0,0,0,.06-.3h.58a.71.71,0,0,0,0,.26c.25.53.51,1.05.77,1.57a2.17,2.17,0,0,0,.15.22H20a.35.35,0,0,0-.32-.5h-.57a.33.33,0,0,0-.28.5Zm1.18-1.56-.35.75h.69Z"/><path d="M12.11,13.38h-.68a.35.35,0,0,0-.32-.5h-.59a.33.33,0,0,0-.26.5H9.68c.28-.6.58-1.21.87-1.82,0-.07,0-.16,0-.24h.61a.73.73,0,0,0,0,.27c.25.53.51,1.05.77,1.57A2.17,2.17,0,0,0,12.11,13.38Zm-.93-.8-.34-.76-.35.76Z"/><path d="M16.74,7.55h.6a1.06,1.06,0,0,0,0,.26l.8,1.6a1.05,1.05,0,0,0,.14.2h-.68a.35.35,0,0,0-.33-.5h-.57a.34.34,0,0,0-.28.5h-.58l.63-1.31a3.88,3.88,0,0,0,.22-.46A1.23,1.23,0,0,0,16.74,7.55Zm.63,1.26L17,8.05l-.34.76Z"/><path d="M9,13.38H8.39a.59.59,0,0,0,0-.23c-.25-.56-.52-1.12-.78-1.68a1,1,0,0,0-.1-.15h.61a1.65,1.65,0,0,0,.06.32c.16.37.33.74.52,1.15.21-.45.4-.87.58-1.28,0,0,0-.13,0-.19h.59c-.28.61-.57,1.23-.85,1.85C8.94,13.22,9,13.31,9,13.38Z"/><path d="M24,9.61c0-.38.14-.75-.14-1.1s-.47-.64-.7-1h.67c0,.35.3.51.42.85.14-.34.46-.5.43-.86h.65a8.25,8.25,0,0,0-.8,1.16,2.25,2.25,0,0,0,0,.9Z"/><path d="M21.85,17.15h-.51c0-.38.14-.76-.14-1.11s-.47-.63-.69-.94h.66c0,.34.3.51.43.85.13-.34.46-.5.42-.86h.66a8.32,8.32,0,0,0-.81,1.16A2.45,2.45,0,0,0,21.85,17.15Z"/><path d="M19.54,11.67v-.38h2v.39h-.77v1.7h-.5V11.67Z"/><path d="M12.42,11.32h.46c0,.57,0,1.13,0,1.7H14.3v.39H12.4C12.45,12.7,12.43,12,12.42,11.32Z"/><path d="M21.84,11.32h.57a7.47,7.47,0,0,0,0,2.06h-.57A7.47,7.47,0,0,0,21.84,11.32Z"/><path d="M28.07,12.17l.28-.37c-.2,0-.37-.07-.34-.27a.33.33,0,0,1,.16-.24.31.31,0,0,1,.26.11A.55.55,0,0,1,28.07,12.17Z"/></g><path class="cls-4" d="M28.15,18.6c.46-.68,1.08-.7,1.46,0a.82.82,0,0,1,.77-.51.69.69,0,0,1,.68.58c.38-.81,1-.93,1.59-.35.7-.55,1.21-.47,1.59.29a.69.69,0,0,1,.69-.52.79.79,0,0,1,.73.49,3.42,3.42,0,0,1,.22-.28.79.79,0,0,1,.91-.12.76.76,0,0,1,.3.86,2.29,2.29,0,0,1-.79,1.12q-.22.2-.45.36c.3.27.59.52.87.79a1.88,1.88,0,0,1,.5.89.88.88,0,0,1-.36.94.91.91,0,0,1-1-.1,1.14,1.14,0,0,1-.14-.16,1,1,0,0,1-.89.37.83.83,0,0,1-.69-.65.73.73,0,0,1-.71.53.81.81,0,0,1-.74-.5.82.82,0,0,1-.86.49c-.32,0-.5-.24-.6-.59-.11.39-.3.65-.67.71a1,1,0,0,1-.91-.34.9.9,0,0,1-1.59-.3.67.67,0,0,1-.69.53.78.78,0,0,1-.74-.51.82.82,0,0,1-.67.51.72.72,0,0,1-.71-.36c-.51.61-1,.65-1.53.13a1,1,0,0,1-.88.35.82.82,0,0,1-.69-.66.73.73,0,0,1-.72.54.8.8,0,0,1-.73-.5.78.78,0,0,1-1.39.13.82.82,0,0,1-.71.49.93.93,0,0,1-.8-.35.89.89,0,0,1-1.58-.31.7.7,0,0,1-.7.54.77.77,0,0,1-.75-.51.82.82,0,0,1-.66.51.75.75,0,0,1-.73-.37.81.81,0,0,1-.73.49.94.94,0,0,1-.79-.36,1,1,0,0,1-.88.36.83.83,0,0,1-.69-.65.71.71,0,0,1-.71.53.76.76,0,0,1-.73-.51.85.85,0,0,1-.67.51.74.74,0,0,1-.73-.38.81.81,0,0,1-.71.5.93.93,0,0,1-.8-.35.89.89,0,0,1-1.58-.29.71.71,0,0,1-.7.52.79.79,0,0,1-.74-.49c-.08.11-.14.2-.21.28a.79.79,0,0,1-.91.12.75.75,0,0,1-.31-.85A2.32,2.32,0,0,1,2.27,21l.43-.34c-.29-.27-.6-.52-.87-.81a1.53,1.53,0,0,1-.51-1.06.78.78,0,0,1,.47-.8.88.88,0,0,1,1,.16.55.55,0,0,1,.12.14.9.9,0,0,1,1.59.24c.41-.66,1-.67,1.45,0a.84.84,0,0,1,.67-.48.7.7,0,0,1,.71.36.9.9,0,0,1,1.53-.13A.94.94,0,0,1,9.68,18a.78.78,0,0,1,.69.65.78.78,0,0,1,1.46-.06c.42-.6,1-.65,1.38-.1a.85.85,0,0,1,.71-.5.91.91,0,0,1,.81.37,1,1,0,0,1,.88-.36.83.83,0,0,1,.7.64.78.78,0,0,1,1.46,0,.77.77,0,0,1,.65-.49.67.67,0,0,1,.71.36.91.91,0,0,1,1.53-.14.88.88,0,0,1,1.57.32.73.73,0,0,1,.71-.55.78.78,0,0,1,.74.52.82.82,0,0,1,.66-.51.7.7,0,0,1,.73.37.83.83,0,0,1,.71-.5.94.94,0,0,1,.81.37,1,1,0,0,1,.88-.36A.8.8,0,0,1,28.15,18.6ZM4.57,22.31c0,.39.17.62.42.68a.71.71,0,0,0,.76-.34,1.14,1.14,0,0,1,.15-.17,1.14,1.14,0,0,1,.15.17.7.7,0,0,0,.8.33.59.59,0,0,0,.36-.72,1.35,1.35,0,0,0-.16-.41A3.31,3.31,0,0,0,6,20.78a.23.23,0,0,0-.18,0c-.27.23-.56.45-.81.71A1.34,1.34,0,0,0,4.57,22.31Zm28.07-1.76c.35-.32.66-.56.92-.85A2.37,2.37,0,0,0,34,19a.58.58,0,0,0-.19-.67.59.59,0,0,0-.7,0,2,2,0,0,0-.28.3.93.93,0,0,1-.14.14l-.13-.14,0-.06a.68.68,0,0,0-.78-.3.57.57,0,0,0-.36.72,1.47,1.47,0,0,0,.27.58C31.93,19.88,32.28,20.19,32.64,20.55Zm-6-.07a3.46,3.46,0,0,0,1.06-1,1.68,1.68,0,0,0,.25-.72.53.53,0,0,0-.61-.57.63.63,0,0,0-.56.38.93.93,0,0,1-.13.15l-.16-.15s0-.07-.06-.11a.69.69,0,0,0-.73-.25.55.55,0,0,0-.39.57,1.41,1.41,0,0,0,.16.54A3.48,3.48,0,0,0,26.6,20.48Zm-23.74.06a9.37,9.37,0,0,0,.84-.75A2.71,2.71,0,0,0,4.17,19,.57.57,0,0,0,4,18.32a.61.61,0,0,0-.71,0,2,2,0,0,0-.27.31s-.09.1-.14.1-.08-.06-.11-.1,0-.06,0-.09a.7.7,0,0,0-.75-.3.53.53,0,0,0-.39.64,1.43,1.43,0,0,0,.28.67C2.15,19.88,2.5,20.19,2.86,20.54ZM25,22.4a3.53,3.53,0,0,0-.15-.46,3.25,3.25,0,0,0-1.14-1.16s-.14,0-.18,0a10.26,10.26,0,0,0-.79.69,1.41,1.41,0,0,0-.42.82.59.59,0,0,0,.39.66.69.69,0,0,0,.77-.3,1.08,1.08,0,0,1,.16-.2,1,1,0,0,1,.17.19.7.7,0,0,0,.76.32A.63.63,0,0,0,25,22.4Zm-10.3-1.92a3.6,3.6,0,0,0,1.08-1,1.86,1.86,0,0,0,.24-.62.55.55,0,0,0-.4-.63.72.72,0,0,0-.77.32,1,1,0,0,1-.16.19,1.39,1.39,0,0,1-.15-.19.7.7,0,0,0-.78-.32.59.59,0,0,0-.37.72,1.56,1.56,0,0,0,.15.41A3.58,3.58,0,0,0,14.74,20.48Zm-6,.05c.27-.23.5-.4.71-.59a2,2,0,0,0,.62-.91.66.66,0,0,0-.16-.69.57.57,0,0,0-.67-.07,1.71,1.71,0,0,0-.32.29l-.15.17-.16-.18,0,0a.67.67,0,0,0-.77-.28.57.57,0,0,0-.36.7,1.44,1.44,0,0,0,.28.6C8.08,19.88,8.43,20.19,8.78,20.53Zm11.89-.05a3.46,3.46,0,0,0,1.09-1,1.86,1.86,0,0,0,.23-.7.54.54,0,0,0-.59-.55.64.64,0,0,0-.6.4s-.09.13-.12.12-.1-.07-.14-.12,0-.08-.07-.11a.68.68,0,0,0-.7-.28.55.55,0,0,0-.43.54,1.43,1.43,0,0,0,.16.58A3.48,3.48,0,0,0,20.67,20.48ZM10.5,22.3c0,.4.16.63.42.69a.69.69,0,0,0,.74-.32,1.54,1.54,0,0,1,.17-.19,1.46,1.46,0,0,1,.16.19.71.71,0,0,0,.77.32.57.57,0,0,0,.38-.67,1.25,1.25,0,0,0-.15-.46,3.38,3.38,0,0,0-1.08-1.08.23.23,0,0,0-.18,0c-.27.23-.56.45-.81.71A1.34,1.34,0,0,0,10.5,22.3Zm17.78.12a.59.59,0,0,0,.42.57.7.7,0,0,0,.75-.32,1.46,1.46,0,0,1,.16-.19,1,1,0,0,1,.17.19.7.7,0,0,0,.78.31.57.57,0,0,0,.37-.68,1.3,1.3,0,0,0-.15-.43,3.51,3.51,0,0,0-1.08-1.09.23.23,0,0,0-.18,0,9.87,9.87,0,0,0-.84.74A1.31,1.31,0,0,0,28.28,22.42Zm-9.16,0a3.16,3.16,0,0,0-.2-.54,3.19,3.19,0,0,0-1.08-1.08.17.17,0,0,0-.18,0,6.07,6.07,0,0,0-.84.76,2.09,2.09,0,0,0-.38.76.55.55,0,0,0,.37.66.7.7,0,0,0,.78-.31,1.54,1.54,0,0,1,.17-.19,1.46,1.46,0,0,1,.16.19.69.69,0,0,0,.75.32A.64.64,0,0,0,19.12,22.41Zm15.23-.12c0,.51.27.75.65.71a.65.65,0,0,0,.53-.37c0-.06.1-.1.15-.15a1.07,1.07,0,0,1,.14.16s0,0,0,.05a.68.68,0,0,0,.76.29.53.53,0,0,0,.38-.62,1.34,1.34,0,0,0-.15-.48,3.28,3.28,0,0,0-1.09-1.1.23.23,0,0,0-.18,0,9,9,0,0,0-.8.71A1.27,1.27,0,0,0,34.35,22.29ZM32.5,20.68a3.22,3.22,0,0,1-1.43-1.78,3,3,0,0,1-1.29,1.63,3.21,3.21,0,0,1,1.41,1.76A3.17,3.17,0,0,1,32.5,20.68ZM4.33,22.23a3.38,3.38,0,0,1,1.42-1.71A3.12,3.12,0,0,1,4.45,19,3.34,3.34,0,0,1,3,20.68,3.23,3.23,0,0,1,4.33,22.23Zm23.71,0a3.28,3.28,0,0,1,1.4-1.71,10.06,10.06,0,0,1-.75-.69,7.63,7.63,0,0,1-.55-.8,3.27,3.27,0,0,1-1.39,1.63A3,3,0,0,1,28,22.25Zm-17.78,0a3.41,3.41,0,0,1,1.41-1.71A3.15,3.15,0,0,1,10.38,19,3.39,3.39,0,0,1,9,20.68,3.22,3.22,0,0,1,10.26,22.23Zm25.25-1.69a7.07,7.07,0,0,1-.75-.68,8.26,8.26,0,0,1-.56-.8,3.36,3.36,0,0,1-1.39,1.62,3.25,3.25,0,0,1,1.3,1.55A3.26,3.26,0,0,1,35.51,20.54Zm-17.91,0A3.14,3.14,0,0,1,16.31,19a3.35,3.35,0,0,1-1.41,1.72,3.27,3.27,0,0,1,1.29,1.55A3.33,3.33,0,0,1,17.6,20.53Zm3.22.15a3.1,3.1,0,0,1,1.29,1.56,3.3,3.3,0,0,1,1.42-1.71A3.24,3.24,0,0,1,22.23,19,3.24,3.24,0,0,1,20.82,20.68Zm5.63,0a3.63,3.63,0,0,1-1.35-1.46c-.19.24-.36.49-.56.71s-.45.4-.69.61A3.65,3.65,0,0,1,25.21,22,3.53,3.53,0,0,1,26.45,20.68Zm-7.3-1.52a3.64,3.64,0,0,1-1.24,1.37A3.7,3.7,0,0,1,19.28,22a3.52,3.52,0,0,1,1.23-1.36A3.72,3.72,0,0,1,19.15,19.16ZM8.64,20.67a3.66,3.66,0,0,1-1.35-1.51,3.57,3.57,0,0,1-1.24,1.37A3.66,3.66,0,0,1,7.4,22,8,8,0,0,1,8,21.28C8.16,21.06,8.4,20.88,8.64,20.67ZM12,20.53A3.77,3.77,0,0,1,13.35,22a3.47,3.47,0,0,1,1.24-1.36,3.66,3.66,0,0,1-1.37-1.52A3.49,3.49,0,0,1,12,20.53Z"/><path class="cls-4" d="M8.91,6.2c-.49.61-1,.65-1.41.11a.82.82,0,0,1-.7.5A1,1,0,0,1,6,6.46c-.72.55-1.18.47-1.59-.27-.39.67-1,.68-1.44,0-.07.08-.12.17-.19.24a.78.78,0,0,1-.92.15.77.77,0,0,1-.32-.85,2.38,2.38,0,0,1,.81-1.14l.44-.35c-.3-.27-.6-.52-.87-.8a1.63,1.63,0,0,1-.52-1,.81.81,0,0,1,.47-.83.91.91,0,0,1,1,.18A1.47,1.47,0,0,1,3,1.9a1,1,0,0,1,.9-.37.83.83,0,0,1,.68.65.72.72,0,0,1,.72-.53A.78.78,0,0,1,6,2.16a.83.83,0,0,1,.67-.51A.71.71,0,0,1,7.37,2a.84.84,0,0,1,.72-.51,1,1,0,0,1,.8.36.9.9,0,0,1,1.59.29.67.67,0,0,1,.69-.52.78.78,0,0,1,.74.5.82.82,0,0,1,.68-.5.68.68,0,0,1,.7.36q.73-.93,1.53-.12a1,1,0,0,1,.87-.36.84.84,0,0,1,.71.67.69.69,0,0,1,.69-.55.79.79,0,0,1,.75.51.82.82,0,0,1,.66-.51.67.67,0,0,1,.71.36c.54-.62,1-.66,1.53-.13.7-.56,1.31-.45,1.58.31a.7.7,0,0,1,.7-.54.79.79,0,0,1,.75.51.8.8,0,0,1,.67-.51.7.7,0,0,1,.71.36.89.89,0,0,1,1.53-.12,1,1,0,0,1,.87-.36.79.79,0,0,1,.69.67c.14-.35.35-.57.72-.55a.78.78,0,0,1,.73.49.77.77,0,0,1,1.47.08.85.85,0,0,1,.68-.69,1,1,0,0,1,.9.36.93.93,0,0,1,.87-.36.83.83,0,0,1,.7.65.73.73,0,0,1,.7-.54.81.81,0,0,1,.74.49c.09-.11.16-.21.25-.3a.74.74,0,0,1,.88-.08.72.72,0,0,1,.3.83,2.27,2.27,0,0,1-.79,1.13l-.45.37c.29.26.58.51.86.78a1.8,1.8,0,0,1,.5.89.86.86,0,0,1-.37,1,.91.91,0,0,1-1-.12.62.62,0,0,1-.1-.16c-.63.62-1.38.44-1.61-.26a.74.74,0,0,1-.7.53.81.81,0,0,1-.74-.49.78.78,0,0,1-1.47-.07c-.38.79-.9.9-1.59.32a.94.94,0,0,1-.88.35.85.85,0,0,1-.69-.67.67.67,0,0,1-.61.55.8.8,0,0,1-.83-.5.81.81,0,0,1-.66.5.68.68,0,0,1-.72-.37.88.88,0,0,1-.72.5.93.93,0,0,1-.79-.36c-.69.56-1.17.48-1.6-.26a.78.78,0,0,1-1.45,0,.76.76,0,0,1-.63.49.72.72,0,0,1-.74-.36.87.87,0,0,1-.71.49.92.92,0,0,1-.8-.36c-.73.56-1.31.45-1.58-.3a.72.72,0,0,1-.72.53.79.79,0,0,1-.73-.49.8.8,0,0,1-1.4.14.85.85,0,0,1-.72.48.91.91,0,0,1-.79-.37A1,1,0,0,1,11,6.8a.8.8,0,0,1-.69-.65c-.15.33-.35.55-.71.53A.78.78,0,0,1,8.91,6.2ZM4.66,5.88c0,.38.16.61.4.67a.69.69,0,0,0,.75-.3A1.81,1.81,0,0,1,6,6a1.4,1.4,0,0,1,.16.2.69.69,0,0,0,.79.3.58.58,0,0,0,.36-.71,1.29,1.29,0,0,0-.16-.41A3.28,3.28,0,0,0,6.06,4.34a.2.2,0,0,0-.18,0,8.67,8.67,0,0,0-.79.69A1.38,1.38,0,0,0,4.66,5.88ZM32.71,4.09c.28-.23.51-.4.72-.6A1.81,1.81,0,0,0,34,2.57a.64.64,0,0,0-.17-.68.57.57,0,0,0-.66-.06,1.58,1.58,0,0,0-.31.27,1.56,1.56,0,0,0-.16.2.9.9,0,0,1-.15-.19.69.69,0,0,0-.8-.32.57.57,0,0,0-.36.72,1.53,1.53,0,0,0,.28.59C32,3.44,32.36,3.75,32.71,4.09Zm-6,0a4,4,0,0,0,1.07-1A1.22,1.22,0,0,0,28,2.31a.55.55,0,0,0-.6-.54.63.63,0,0,0-.59.38.86.86,0,0,1-.13.14c-.05,0-.1-.09-.15-.15a.73.73,0,0,1-.05-.09.68.68,0,0,0-.77-.25.56.56,0,0,0-.35.66,1.48,1.48,0,0,0,.16.46A3.52,3.52,0,0,0,26.68,4ZM3,4.06c.23-.2.47-.37.68-.57a1.94,1.94,0,0,0,.61-.92A.64.64,0,0,0,4,1.85a.67.67,0,0,0-.75.06,1.89,1.89,0,0,0-.2.27s-.08.1-.11.1a.29.29,0,0,1-.14-.11.73.73,0,0,1,0-.09A.7.7,0,0,0,2,1.78a.57.57,0,0,0-.39.65,1.25,1.25,0,0,0,.17.49A3.42,3.42,0,0,0,3,4.06ZM25.13,6c-.06-.15-.09-.32-.16-.47a3.28,3.28,0,0,0-1.13-1.15.23.23,0,0,0-.18,0,5.2,5.2,0,0,0-.57.46,1.81,1.81,0,0,0-.64,1,.59.59,0,0,0,.38.68.71.71,0,0,0,.78-.32A1.39,1.39,0,0,1,23.76,6a1,1,0,0,1,.17.19.71.71,0,0,0,.76.32A.64.64,0,0,0,25.13,6ZM10.22,2.45a.61.61,0,0,0-.43-.68.72.72,0,0,0-.74.33,1.56,1.56,0,0,1-.16.2c-.05-.07-.11-.12-.15-.19A.68.68,0,0,0,8,1.79a.58.58,0,0,0-.38.71,1.21,1.21,0,0,0,.16.41A3.28,3.28,0,0,0,8.82,4,.19.19,0,0,0,9,4c.27-.23.55-.45.79-.7A1.3,1.3,0,0,0,10.22,2.45Zm4.6,1.6a4.06,4.06,0,0,0,1.07-1,1.15,1.15,0,0,0,.26-.78.56.56,0,0,0-.57-.52.65.65,0,0,0-.62.4.92.92,0,0,1-.14.14l-.13-.15a.47.47,0,0,1-.06-.09.67.67,0,0,0-.78-.26.58.58,0,0,0-.34.7,1.54,1.54,0,0,0,.17.43A3.69,3.69,0,0,0,14.82,4.05Zm5.93,0a3.44,3.44,0,0,0,1.09-1,1.65,1.65,0,0,0,.23-.71.52.52,0,0,0-.59-.54.63.63,0,0,0-.6.4c0,.05-.08.12-.11.12a.37.37,0,0,1-.15-.13.39.39,0,0,1-.06-.11.72.72,0,0,0-.71-.28.54.54,0,0,0-.42.54,1.43,1.43,0,0,0,.16.58A3.36,3.36,0,0,0,20.75,4ZM10.59,5.87c0,.49.27.74.65.69a.64.64,0,0,0,.55-.41.22.22,0,0,1,.13-.1s.08.06.12.1a.25.25,0,0,1,0,.09.7.7,0,0,0,.77.31.56.56,0,0,0,.38-.65,1.25,1.25,0,0,0-.15-.46A3.28,3.28,0,0,0,12,4.34a.2.2,0,0,0-.18,0A8.34,8.34,0,0,0,11,5,1.39,1.39,0,0,0,10.59,5.87ZM19.2,6A3,3,0,0,0,19,5.44a3.28,3.28,0,0,0-1.09-1.1.18.18,0,0,0-.16,0c-.34.31-.68.61-1,.94a1,1,0,0,0-.26.75.57.57,0,0,0,.6.53.66.66,0,0,0,.6-.4.27.27,0,0,1,.14-.12s.09.07.12.11.05.1.09.15a.69.69,0,0,0,.74.23A.63.63,0,0,0,19.2,6Zm9.17,0a.56.56,0,0,0,.64.59.62.62,0,0,0,.57-.41.22.22,0,0,1,.13-.1s.08.06.11.1a.39.39,0,0,1,.06.11.69.69,0,0,0,.78.28A.58.58,0,0,0,31,5.87a1.25,1.25,0,0,0-.14-.41,3.46,3.46,0,0,0-1.1-1.12.2.2,0,0,0-.18,0,9.14,9.14,0,0,0-.81.71A1.29,1.29,0,0,0,28.37,6Zm6.06-.1c0,.49.27.73.66.69a.66.66,0,0,0,.53-.37c0-.06.1-.1.15-.15l.13.14s0,.05,0,.08a.69.69,0,0,0,.75.29.57.57,0,0,0,.39-.63,1.41,1.41,0,0,0-.15-.48,3.25,3.25,0,0,0-1.09-1.09.17.17,0,0,0-.18,0,10.4,10.4,0,0,0-.8.69A1.35,1.35,0,0,0,34.43,5.87ZM29.86,4.09a3.22,3.22,0,0,1,1.42,1.77,3.1,3.1,0,0,1,1.3-1.62,3.18,3.18,0,0,1-1.42-1.77A3,3,0,0,1,29.86,4.09Zm-24,0a8.06,8.06,0,0,1-.74-.68,7.19,7.19,0,0,1-.56-.8A3.43,3.43,0,0,1,3.12,4.25,3.15,3.15,0,0,1,4.41,5.79,3.39,3.39,0,0,1,5.81,4.1ZM28.25,2.53a3.27,3.27,0,0,1-1.41,1.71,3.18,3.18,0,0,1,1.29,1.57,3.29,3.29,0,0,1,1.41-1.72A3.15,3.15,0,0,1,28.25,2.53ZM10.35,5.8a3.32,3.32,0,0,1,1.41-1.71,3.24,3.24,0,0,1-1.3-1.55A3.37,3.37,0,0,1,9.05,4.25,3.15,3.15,0,0,1,10.35,5.8ZM32.9,4.25a3.15,3.15,0,0,1,1.29,1.54,3.32,3.32,0,0,1,1.42-1.7,3.21,3.21,0,0,1-1.3-1.54C34.1,3.19,34,3.33,32.9,4.25ZM16.3,5.72a3.28,3.28,0,0,1,1.39-1.63,3.22,3.22,0,0,1-1.3-1.56A3.32,3.32,0,0,1,15,4.23a9.51,9.51,0,0,1,.73.67A7.52,7.52,0,0,1,16.3,5.72Zm5.9.09a3.29,3.29,0,0,1,1.41-1.72,3.18,3.18,0,0,1-1.29-1.57,3.26,3.26,0,0,1-1.41,1.72A3.14,3.14,0,0,1,22.2,5.81Zm1.72-1.72a3.72,3.72,0,0,1,1.37,1.52,3.54,3.54,0,0,1,1.24-1.36,3.87,3.87,0,0,1-1.37-1.52A3.46,3.46,0,0,1,23.92,4.09ZM18,4.1a3.64,3.64,0,0,1,1.35,1.5A3.69,3.69,0,0,1,20.6,4.24a3.71,3.71,0,0,1-1.35-1.46c-.19.24-.35.49-.56.71A8.15,8.15,0,0,1,18,4.1Zm-11.86,0A3.51,3.51,0,0,1,7.5,5.61,3.64,3.64,0,0,1,8.74,4.24,3.68,3.68,0,0,1,7.4,2.78c-.19.24-.36.49-.56.71S6.39,3.89,6.15,4.11Zm5.91,0a3.66,3.66,0,0,1,1.37,1.52,3.49,3.49,0,0,1,1.24-1.37A3.66,3.66,0,0,1,13.3,2.72,3.49,3.49,0,0,1,12.06,4.09Z"/><path class="cls-4" d="M19,12.88V11.52h.48v2.06h-.52a.64.64,0,0,0-.08-.2c-.4-.38-.8-.74-1.18-1.09,0,.38,0,.83,0,1.29h-.48a7.48,7.48,0,0,0,0-2.06h.62c0,.06,0,.14,0,.18Z"/><path class="cls-4" d="M24.84,12.88V11.52h.45c0,.69,0,1.37,0,2.06h-.5a.64.64,0,0,0-.1-.22L23.54,12.3c0,.37,0,.82,0,1.28h-.43c0-.69,0-1.37,0-2.06h.56c0,.07,0,.15,0,.19Z"/><path class="cls-4" d="M16.12,15.31h1.42a.9.9,0,0,1,.83,1.07.93.93,0,0,1-1,1h-1.2A8.17,8.17,0,0,0,16.12,15.31ZM16.63,17c.26,0,.5,0,.74,0a.49.49,0,0,0,.49-.39,1.62,1.62,0,0,0,0-.62.46.46,0,0,0-.42-.37c-.27,0-.54,0-.82,0Z"/><path class="cls-4" d="M15.19,7.75h.51V9.81h-.52V8.9H14v.91h-.5V7.75H14v.78h1.16Z"/><path class="cls-4" d="M27.75,11.5v.38H26.3v.45h1v.4h-1v.49h1.49v.39H25.84c0-.72,0-1.39,0-2.11Z"/><path class="cls-4" d="M14.86,13.61c0-.72,0-1.4,0-2.12h1.9v.39H15.33v.45h1v.39h-1v.5h1.49v.39Z"/><path class="cls-4" d="M30.78,12.14a1,1,0,0,0-1-.3c-.09,0-.15.17-.23.26a1.11,1.11,0,0,0,.27.17l.66.09c.36.06.55.26.56.55a.62.62,0,0,1-.5.65,1.75,1.75,0,0,1-1.15-.07L29,13.38l.2-.45a1,1,0,0,0,1.15.29.35.35,0,0,0,.18-.25s-.14-.15-.22-.16c-.25-.05-.51-.07-.75-.11a.54.54,0,0,1-.49-.46.6.6,0,0,1,.35-.66,1.53,1.53,0,0,1,1.15,0l.39.13Z"/><path class="cls-4" d="M21.15,7.77c.5,0,1,0,1.55,0a.53.53,0,0,1,.5.58.53.53,0,0,1-.5.57c-.35,0-.7,0-1.05.05v.83h-.5Zm.48.86h.85a.25.25,0,0,0,.26-.27.25.25,0,0,0-.24-.27h-.87Z"/><path class="cls-4" d="M18.78,7.77c.5,0,1,0,1.55,0a.53.53,0,0,1,.5.58.54.54,0,0,1-.51.57c-.34,0-.69,0-1,0v.87h-.5Zm.48.86h.85a.26.26,0,0,0,.26-.28.24.24,0,0,0-.25-.26h-.86Z"/><path class="cls-4" d="M18.46,17.35l.19-.36c.22-.46.45-.93.66-1.39a.94.94,0,0,0,.05-.3H20a1,1,0,0,0,0,.26l.78,1.57a1.37,1.37,0,0,0,.15.21h-.68a.34.34,0,0,0-.32-.49h-.58a.34.34,0,0,0-.28.5Zm1.18-1.56-.35.75H20Z"/><path class="cls-4" d="M12.31,13.58h-.68a.35.35,0,0,0-.32-.5h-.59a.33.33,0,0,0-.26.49H9.87c.29-.59.59-1.2.88-1.82a.92.92,0,0,0,0-.23h.61a1.12,1.12,0,0,0,0,.27l.78,1.57C12.2,13.43,12.25,13.49,12.31,13.58Zm-.93-.8L11,12l-.35.76Z"/><path class="cls-4" d="M16.94,7.75h.6a.94.94,0,0,0,0,.25c.26.54.53,1.08.8,1.61a1.05,1.05,0,0,0,.14.2h-.68a.36.36,0,0,0-.33-.5h-.57a.34.34,0,0,0-.28.5h-.58l.63-1.31c.08-.16.16-.31.22-.46A1.23,1.23,0,0,0,16.94,7.75ZM17.57,9l-.35-.76L16.87,9Z"/><path class="cls-4" d="M9.18,13.58h-.6a.59.59,0,0,0,0-.23c-.25-.56-.52-1.12-.78-1.68a1,1,0,0,0-.1-.15h.61a1.65,1.65,0,0,0,.06.32c.16.37.33.74.52,1.15.21-.45.4-.87.58-1.28,0-.05,0-.13,0-.19H10l-.85,1.84C9.14,13.42,9.17,13.5,9.18,13.58Z"/><path class="cls-4" d="M24.17,9.81c0-.38.14-.75-.14-1.1s-.47-.64-.7-1H24c0,.35.29.52.42.86.13-.34.46-.5.42-.86h.66a8.25,8.25,0,0,0-.8,1.16,2.24,2.24,0,0,0,0,.9Z"/><path class="cls-4" d="M22.05,17.35h-.51c0-.38.14-.76-.15-1.12s-.46-.62-.68-.94h.66c0,.35.3.52.42.86.14-.34.46-.5.43-.86h.66a7.56,7.56,0,0,0-.81,1.16A2.44,2.44,0,0,0,22.05,17.35Z"/><path class="cls-4" d="M19.74,11.87v-.38h2v.39H21v1.7h-.5V11.87Z"/><path class="cls-4" d="M12.62,11.52h.46c0,.57,0,1.13,0,1.7H14.5v.39H12.6C12.64,12.9,12.62,12.21,12.62,11.52Z"/><path class="cls-4" d="M22,11.51h.57a8,8,0,0,0,0,2.07h-.56A7.54,7.54,0,0,0,22,11.51Z"/><path class="cls-4" d="M28.27,12.37l.28-.38c-.2,0-.37-.06-.34-.27a.33.33,0,0,1,.16-.23.31.31,0,0,1,.26.11A.55.55,0,0,1,28.27,12.37Z"/></g></g></svg>