<svg xmlns="http://www.w3.org/2000/svg" viewBox="0 0 38.55 24.66"><defs><style>.cls-1{isolation:isolate;}.cls-2{opacity:0.15;}.cls-2,.cls-3{mix-blend-mode:multiply;}.cls-4{fill:#fff;}</style></defs><title>convert-FIX-SVG-03</title><g class="cls-1"><g id="Layer_1" data-name="Layer 1"><g class="cls-2"><path d="M9.2,0a4.72,4.72,0,0,1,1.53,1.13,4.31,4.31,0,0,1,1.18,2.93s0,.1,0,.18H4.51c-.21,0-.26.06-.26.27,0,2.24,0,4.49,0,6.73v.27L.17,9.86A.24.24,0,0,1,0,9.6Q0,5.65,0,1.7a1.71,1.71,0,0,1,.3-1A.4.4,0,0,1,.66.53,4,4,0,0,1,3.59,1.76c.18.17.33.35.51.54a3.59,3.59,0,0,1,1-1.43A3.9,3.9,0,0,1,6.34.08L6.53,0Z"/><path d="M24.11,0a2,2,0,0,1-.38,1.73A7.58,7.58,0,0,1,22,3.34a1.83,1.83,0,0,0-.82.83c0,.1-.43.1-.54,0a8.87,8.87,0,0,0-2.87-1.84A1.53,1.53,0,0,1,16.84.6c0-.21.1-.41.15-.61Z"/><path d="M38.55,19.73a6.85,6.85,0,0,1-1.81.29h-.31a1,1,0,0,0-1,.69,7.09,7.09,0,0,0-1.09-2.92.54.54,0,0,1,0-.22q0-1.11,0-2.22a.42.42,0,0,1,.14-.28A1.7,1.7,0,0,1,37.2,16.2l0,0a2,2,0,0,1,1.32-.37Z"/><path d="M38.55,4.26c-.26.29-.53.58-.79.88a.67.67,0,0,0-.16.77,9.83,9.83,0,0,0-1.09-.62,8.56,8.56,0,0,0-1.46-.47,1.12,1.12,0,0,1-.92-1.08,1.29,1.29,0,0,1,1.79-1.38,2.47,2.47,0,0,1,.36.19,3.69,3.69,0,0,1,.17-.42,1.25,1.25,0,0,1,1.73-.55l.37.18Z"/><path d="M38.55,13.5c-.52-.34-1-.7-1.57-1a6,6,0,0,0-.72-.35,1.4,1.4,0,0,1-.88-1.51,1.86,1.86,0,0,1,.9-1.48,1.81,1.81,0,0,1,2.12.34s.1,0,.15.08Z"/><path d="M38.55,23.24c-.07.17-.12.34-.2.5a1.59,1.59,0,0,1-1.13.85.3.3,0,0,1-.24-.05,4.63,4.63,0,0,1-1.17-1.43,1.71,1.71,0,0,1,1-2.37,1.51,1.51,0,0,1,1.74.34Z"/><path d="M30.89,20.42a1.8,1.8,0,0,1-.4,1.09A11.5,11.5,0,0,0,29,24.15c-.06.16-.11.32-.18.49h-.23c-1.52,0-3,0-4.55,0a1.19,1.19,0,0,1-.62-.16,2.49,2.49,0,0,1-1.2-2.75,2.93,2.93,0,0,1,.55-1.2.37.37,0,0,1,.24-.12h7.71Z"/><path d="M8.93,22.47c-.6-.28-1.19-.59-1.8-.84a11,11,0,0,0-3-.72c-.4,0-.8,0-1.2-.1a2.14,2.14,0,0,1-1.78-1.47,3.19,3.19,0,0,1,.13-2.55,2.6,2.6,0,0,1,2-1.34,7.06,7.06,0,0,1,.8,0c.17,0,.2.09.2.24,0,1.49,0,3,0,4.45v.27H9.17C8.68,21.07,8.39,21.75,8.93,22.47Z"/><path d="M32.51,4.22H22.88a2.84,2.84,0,0,1,1.74-1,2.56,2.56,0,0,1,1.9.38c.06-.31.11-.61.19-.89A2.47,2.47,0,0,1,29.36.89,3.33,3.33,0,0,1,32,2.24,2.71,2.71,0,0,1,32.51,4.22Z"/><path d="M16.3,20.42a6.66,6.66,0,0,0-1.09,2.77,1,1,0,0,0-1-.59,7,7,0,0,1-2-.33A1.67,1.67,0,0,1,11,20.55a.69.69,0,0,1,0-.13Z"/><path d="M32.56,20.94c0-.05,0-.11,0-.17.09-.31.17-.37.49-.37h1.06a1.11,1.11,0,0,0,.23-.07.88.88,0,0,1,.21,1.27,5.29,5.29,0,0,0-.81,1.63c-.05.17-.07.35-.12.55a.66.66,0,0,0-.68-.42,4.94,4.94,0,0,1-1.47-.26,1.14,1.14,0,0,1-.78-1.05,1.27,1.27,0,0,1,.64-1.21,1,1,0,0,1,1,0l.17.08Z"/><path d="M19.35,21c.22-.56.22-.56.83-.56.32,0,.65,0,1,0a.37.37,0,0,1,.24.12.86.86,0,0,1,0,1.08,4.67,4.67,0,0,0-.91,2.19.72.72,0,0,0-.72-.45,4.62,4.62,0,0,1-1.43-.25,1.15,1.15,0,0,1-.8-1,1.33,1.33,0,0,1,.71-1.25,1,1,0,0,1,.92.05Z"/><path d="M13.93,2.1a1.1,1.1,0,0,1,2-.48.92.92,0,0,1,0,1.13c-.27.44-.49.91-.73,1.35a.28.28,0,0,1-.18.13H13a.9.9,0,0,1-.72-.45A1.33,1.33,0,0,1,12.78,2a1,1,0,0,1,.94,0Z"/><path d="M9.87,23.09c0-.06,0-.11.05-.16a1.1,1.1,0,0,1,1.57-.8,1.24,1.24,0,0,1,.73,1.77c-.31.73-.31.74-1.1.74s-1.83,0-2.75,0a.21.21,0,0,1-.25-.19,1.19,1.19,0,0,1,.34-1.29A1.15,1.15,0,0,1,9.87,23.09Z"/><path d="M14,9.91l-1.74.27c0,.31,0,.59-.05.87s-.12.33-.3.33-.29-.13-.29-.34c0-.95.06-1.9.1-2.85A.3.3,0,0,1,12,7.87c.18,0,.28.12.28.33V9.59L14,9.32c0-.19,0-.4,0-.61a3.76,3.76,0,0,1,.17-.66.24.24,0,0,1,.32-.16.28.28,0,0,1,.19.33L14.61,11c0,.26-.09.41-.28.42S14,11.25,14,11,14,10.31,14,9.91Z"/><path d="M18,11.12c-.07.07-.14.2-.23.23a.35.35,0,0,1-.28-.1,3.94,3.94,0,0,1-.32-.73c-.05-.14-.1-.17-.23-.15a.75.75,0,0,1-.21,0c-.56-.09-.84.2-1,.7a.4.4,0,0,1-.09.17.28.28,0,0,1-.38.08A.27.27,0,0,1,15.1,11c.07-.17.15-.33.22-.5a.36.36,0,0,0,.06-.2.22.22,0,0,1,.14-.24.49.49,0,0,0,.16-.19c.36-.53.7-1.07,1.06-1.6.07-.09.2-.2.29-.19s.23.16.26.31l.42,1.94c0,.16.11.32.16.48ZM16.33,9.9,17,9.85l-.15-.75Z"/><path d="M18.89,10.06c0,.31,0,.6,0,.89s-.11.39-.29.39-.3-.14-.29-.39l.09-2.6a.49.49,0,0,1,0-.24c0-.09.12-.21.19-.23a1.74,1.74,0,0,1,1.45.24,1,1,0,0,1,0,1.61A1.76,1.76,0,0,1,18.89,10.06Zm.05-.55a.86.86,0,0,0,.89-.34.41.41,0,0,0,0-.51A.85.85,0,0,0,19,8.39Z"/><path d="M21.31,10.07V11c0,.24-.11.38-.29.39s-.3-.14-.29-.39c0-.86.05-1.73.09-2.59a.66.66,0,0,1,0-.25c0-.09.12-.21.2-.23a1.75,1.75,0,0,1,1.45.24,1,1,0,0,1,0,1.62A1.82,1.82,0,0,1,21.31,10.07Zm0-.56a.86.86,0,0,0,.89-.34.41.41,0,0,0,0-.49.83.83,0,0,0-.85-.29Z"/><path d="M24.52,9.66c.24-.52.44-1,.67-1.45A.47.47,0,0,1,25.46,8a.28.28,0,0,1,.31.39c-.46,1-.93,1.94-1.4,2.91a.34.34,0,0,1-.36.2.27.27,0,0,1-.21-.4c.1-.22.21-.43.33-.64a.26.26,0,0,0,0-.32c-.36-.54-.7-1.09-1.05-1.63-.13-.21-.09-.38.08-.48s.32,0,.44.16.38.63.57.94S24.38,9.43,24.52,9.66Z"/><path d="M14.82,14.9V13.48c0-.14,0-.28.16-.31s.21.12.24.26a2.71,2.71,0,0,1,0,.41c0,.43,0,.85,0,1.27a1,1,0,0,1,0,.3.18.18,0,0,1-.28.13.81.81,0,0,1-.24-.17L13.43,14v.57c0,.24,0,.49,0,.74s0,.3-.23.28-.2-.16-.2-.31c0-.6,0-1.2,0-1.8,0-.15,0-.29.18-.31a.4.4,0,0,1,.29.14c.29.35.56.72.86,1.07A6.14,6.14,0,0,0,14.82,14.9Z"/><path d="M19.83,14v1.13a1.24,1.24,0,0,1,0,.27c0,.13-.09.22-.23.19s-.18-.11-.18-.25c0-.41,0-.83,0-1.24a5.68,5.68,0,0,0,0-.59c0-.16,0-.31.17-.34a.44.44,0,0,1,.3.15c.41.47.81,1,1.21,1.44.05.06.11.1.17.16V13.51s0-.1,0-.13.09-.17.16-.2.17.06.2.12a.85.85,0,0,1,.08.35c0,.51,0,1,0,1.52a.85.85,0,0,1,0,.23c0,.16-.15.22-.3.14a.84.84,0,0,1-.23-.18Z"/><path d="M28.21,14.37v-.86c0-.3.15-.41.41-.28a5.12,5.12,0,0,1,1.08.59,1,1,0,0,1-.07,1.71,1.33,1.33,0,0,1-1.35,0c-.06,0-.09-.16-.09-.25,0-.3,0-.59,0-.89Zm.4-.7c0,.49,0,.92,0,1.35,0,.2.09.26.26.26H29a.62.62,0,0,0,.66-.43.6.6,0,0,0-.24-.72A7.73,7.73,0,0,0,28.61,13.67Z"/><path d="M11.47,15.27h.91c.14,0,.27,0,.28.18s-.1.22-.25.22c-.3,0-.6,0-.9,0s-.44-.15-.45-.47,0-.68,0-1,0-.48,0-.72,0-.33.32-.3.27-.05.41-.05.53,0,.79.05.23.09.19.23-.14.17-.28.16a7.4,7.4,0,0,0-.82,0,.16.16,0,0,0-.18.18c0,.15,0,.31,0,.49l.77-.07.14,0c.14,0,.25.05.26.22s-.1.19-.24.21l-1,.08Z"/><path d="M22.39,14.18l.78-.07.15,0c.13,0,.23.05.24.21s-.08.2-.22.21l-.94.09,0,0v.64h.9c.15,0,.28,0,.29.2s-.12.2-.26.2c-.3,0-.61,0-.9,0S22,15.51,22,15.2s0-.61,0-.91,0-.59,0-.89.09-.28.3-.27.3,0,.45,0a5.25,5.25,0,0,1,.79.06c.12,0,.24.1.17.22a.37.37,0,0,1-.26.15c-.27,0-.55,0-.82,0s-.2.05-.19.19S22.39,14,22.39,14.18Z"/><path d="M25.33,15.66a3,3,0,0,1-.61-.24.47.47,0,0,1-.18-.33.2.2,0,0,1,.37-.12.86.86,0,0,0,1.15,0,.19.19,0,0,0-.13-.32c-.22-.05-.45-.05-.68-.09a1.06,1.06,0,0,1-.3-.1.39.39,0,0,1-.19-.49,1.08,1.08,0,0,1,1.54-.53.14.14,0,0,1,0,.26.46.46,0,0,1-.26,0,1,1,0,0,0-.68.08,1.24,1.24,0,0,0-.18.21,1.1,1.1,0,0,0,.26.14c.18,0,.37,0,.55.06a.6.6,0,0,1,.55.57.57.57,0,0,1-.4.64A7.83,7.83,0,0,1,25.33,15.66Z"/><path d="M31.72,14.86l-.63.09a.33.33,0,0,0-.15.14c-.06.1-.11.22-.17.33s-.14.19-.29.13-.14-.19-.09-.3a3.68,3.68,0,0,1,.4-.76c.26-.33.47-.7.71-1.05,0-.06.16-.15.2-.13a.33.33,0,0,1,.17.21c.11.43.19.85.29,1.28a3.38,3.38,0,0,0,.13.42c.06.14.07.27-.09.33s-.22-.07-.27-.17S31.8,15,31.72,14.86ZM31.55,14l-.34.57.45-.06Z"/><path d="M8.38,14.86c-.21,0-.43.05-.65.1-.05,0-.1.09-.14.14s-.11.23-.17.34a.2.2,0,0,1-.28.11.19.19,0,0,1-.1-.28,3.9,3.9,0,0,1,.39-.76c.27-.33.47-.7.71-1,0-.07.15-.11.22-.17a.75.75,0,0,1,.18.27c.1.41.18.82.28,1.23a3.22,3.22,0,0,0,.14.44c0,.14,0,.26-.1.32s-.21-.05-.26-.15S8.46,15.05,8.38,14.86ZM8.21,14l-.34.57.44-.06Z"/><path d="M18.57,13.66v1.45H19c.14,0,.25.07.23.2a.3.3,0,0,1-.21.21c-.36,0-.73,0-1.1.05a.21.21,0,0,1-.25-.22c0-.16.09-.24.25-.24h.26V13.67a1,1,0,0,1-.3,0,.34.34,0,0,1-.2-.19c0-.05.1-.18.16-.19a6.35,6.35,0,0,1,.76,0c.14,0,.28,0,.42,0s.23.08.22.22-.13.21-.27.2Z"/><path d="M5.76,14.89c.14-.37.26-.69.39-1a5.55,5.55,0,0,1,.24-.56c.07-.12.17-.23.33-.13s.09.21,0,.34c-.21.48-.4,1-.6,1.46a3.23,3.23,0,0,1-.2.42c0,.07-.14.15-.21.14a.34.34,0,0,1-.21-.16c-.09-.2-.16-.41-.23-.61C5.18,14.4,5.07,14,5,13.62a1.29,1.29,0,0,1,0-.19c0-.14,0-.26.17-.26a.36.36,0,0,1,.23.19c.12.38.21.77.32,1.16Z"/><path d="M33.54,14.38l.38-.84a2.29,2.29,0,0,1,.1-.23.2.2,0,1,1,.38.15c-.32.69-.64,1.37-1,2.06a.21.21,0,0,1-.3.11c-.14-.08-.12-.19-.07-.31l0,0a.72.72,0,0,0-.07-1c-.18-.23-.31-.5-.47-.75s-.09-.24.05-.33.24,0,.31.11.26.45.4.68Z"/><path d="M16.21,13.69c-.23,0-.41,0-.59-.07a.33.33,0,0,1-.2-.18c0-.14.09-.19.22-.19h1.69a.23.23,0,1,1,0,.46l-.72-.05c0,.31,0,.6.06.88l0,.72c0,.15,0,.3-.21.3s-.21-.14-.22-.31C16.26,14.73,16.23,14.21,16.21,13.69Z"/><path d="M9.67,15.27c.32-.06.61-.11.89-.18s.25,0,.3.14a.19.19,0,0,1-.18.27,10,10,0,0,1-1.08.15c-.25,0-.35-.12-.34-.37l.06-1.82c0-.15,0-.29.2-.29s.23.13.22.29c0,.53,0,1-.07,1.58Z"/><path d="M23.85,13.63a2.44,2.44,0,0,1,.06-.39c0-.07.14-.16.19-.15a.29.29,0,0,1,.17.19,1,1,0,0,1-.05.39c0,.08-.14.2-.2.19s-.14-.12-.21-.19Z"/><path d="M9.39.18a4.94,4.94,0,0,1,1.54,1.14,4.36,4.36,0,0,1,1.18,2.93s0,.1,0,.18H4.71c-.22,0-.26.06-.26.27v7L.36,10.05A.22.22,0,0,1,.2,9.8c0-2.63,0-5.27,0-7.9a1.68,1.68,0,0,1,.3-1A.4.4,0,0,1,.86.73,3.94,3.94,0,0,1,3.79,2c.18.17.33.35.51.53a3.63,3.63,0,0,1,1-1.43A4.27,4.27,0,0,1,6.54.27,1.63,1.63,0,0,0,6.73.18Z"/><path d="M24.31.18a2.06,2.06,0,0,1-.39,1.74,7.2,7.2,0,0,1-1.77,1.62,1.86,1.86,0,0,0-.81.83c0,.1-.43.1-.54,0a9,9,0,0,0-2.88-1.85A1.52,1.52,0,0,1,17,.8c0-.21.1-.41.15-.62Z"/><path d="M38.75,19.92a6.46,6.46,0,0,1-1.81.29l-.31,0a1,1,0,0,0-1,.69A7.23,7.23,0,0,0,34.56,18a.54.54,0,0,1-.05-.22c0-.75,0-1.49,0-2.23a.38.38,0,0,1,.14-.27,1.7,1.7,0,0,1,2.74,1.11s0,0,0,.05a2,2,0,0,1,1.33-.37Z"/><path d="M38.75,4.46,38,5.33a.67.67,0,0,0-.16.78,11.84,11.84,0,0,0-1.09-.63A10.79,10.79,0,0,0,35.25,5a1.13,1.13,0,0,1-.93-1.07,1.3,1.3,0,0,1,1.8-1.38,1.78,1.78,0,0,1,.36.19,3.69,3.69,0,0,1,.17-.42,1.25,1.25,0,0,1,1.73-.55l.37.18Z"/><path d="M38.75,13.7c-.52-.35-1-.7-1.57-1-.23-.13-.48-.23-.72-.34a1.38,1.38,0,0,1-.88-1.51,1.86,1.86,0,0,1,.9-1.48,1.78,1.78,0,0,1,2.11.34s.11.05.16.08Z"/><path d="M38.75,23.44a4.4,4.4,0,0,1-.21.5,1.57,1.57,0,0,1-1.12.85.3.3,0,0,1-.24-.05A4.63,4.63,0,0,1,36,23.31a1.7,1.7,0,0,1,1-2.37,1.51,1.51,0,0,1,1.75.34Z"/><path d="M31.09,20.61a1.87,1.87,0,0,1-.4,1.1,11.13,11.13,0,0,0-1.45,2.64l-.18.49h-.23c-1.52,0-3,0-4.55,0a1.2,1.2,0,0,1-.62-.17,2.45,2.45,0,0,1-1.2-2.74,2.93,2.93,0,0,1,.55-1.2.37.37,0,0,1,.24-.12h7.84Z"/><path d="M9.13,22.66c-.6-.27-1.19-.59-1.81-.84a11.24,11.24,0,0,0-3-.71c-.4,0-.8,0-1.2-.1a2.12,2.12,0,0,1-1.78-1.47A3.19,3.19,0,0,1,1.44,17a2.6,2.6,0,0,1,2-1.34,6.89,6.89,0,0,1,.79,0c.18,0,.2.09.2.24v4.72H9.37C8.88,21.27,8.59,22,9.13,22.66Z"/><path d="M32.71,4.42H23.08a2.79,2.79,0,0,1,1.74-1,2.56,2.56,0,0,1,1.9.38,7.76,7.76,0,0,1,.19-.89,2.48,2.48,0,0,1,2.65-1.86,3.35,3.35,0,0,1,2.65,1.36A2.71,2.71,0,0,1,32.71,4.42Z"/><path d="M16.5,20.61a6.91,6.91,0,0,0-1.1,2.78,1,1,0,0,0-1-.59,7,7,0,0,1-2-.33,1.66,1.66,0,0,1-1.22-1.72s0-.08,0-.14Z"/><path d="M32.76,21.14a1.36,1.36,0,0,1,0-.17c.09-.31.17-.37.49-.37h1.05a1,1,0,0,0,.24-.07.88.88,0,0,1,.21,1.27A5.08,5.08,0,0,0,34,23.43c0,.17-.08.35-.12.55a.69.69,0,0,0-.68-.43,4.34,4.34,0,0,1-1.47-.26,1.1,1.1,0,0,1-.78-1A1.27,1.27,0,0,1,31.57,21a1,1,0,0,1,1,0l.17.08Z"/><path d="M19.55,21.16c.22-.56.22-.56.82-.56.33,0,.65,0,1,0a.33.33,0,0,1,.24.12.84.84,0,0,1,0,1.07,4.77,4.77,0,0,0-.92,2.2.69.69,0,0,0-.72-.45,4.61,4.61,0,0,1-1.42-.25,1.15,1.15,0,0,1-.8-1A1.31,1.31,0,0,1,18.45,21a1,1,0,0,1,.92,0Z"/><path d="M14.13,2.3a1.1,1.1,0,0,1,2-.48.93.93,0,0,1,0,1.13c-.27.44-.49.9-.74,1.35a.27.27,0,0,1-.17.13c-.68,0-1.35,0-2,0A.92.92,0,0,1,12.49,4,1.32,1.32,0,0,1,13,2.15a1,1,0,0,1,.94,0Z"/><path d="M10.07,23.29c0-.06,0-.11,0-.16a1.09,1.09,0,0,1,1.57-.8,1.24,1.24,0,0,1,.73,1.77c-.31.73-.31.74-1.1.74s-1.83,0-2.75,0a.21.21,0,0,1-.25-.19,1.18,1.18,0,0,1,.34-1.29A1.15,1.15,0,0,1,10.07,23.29Z"/><path d="M14.19,10.11l-1.74.27c0,.3,0,.59,0,.87s-.12.33-.3.33a.29.29,0,0,1-.29-.34c0-1,.06-1.9.1-2.85,0-.21.13-.34.31-.32s.27.12.28.33V9.79l1.69-.27c0-.19,0-.4,0-.61a3.29,3.29,0,0,1,.17-.67.22.22,0,0,1,.32-.15c.16.05.19.17.19.33,0,.91,0,1.83-.06,2.74,0,.26-.09.41-.29.42s-.33-.13-.33-.39S14.19,10.51,14.19,10.11Z"/><path d="M18.17,11.32c-.07.07-.14.19-.24.23a.32.32,0,0,1-.27-.11,4.69,4.69,0,0,1-.33-.72c0-.14-.1-.17-.22-.15a.75.75,0,0,1-.21,0,.81.81,0,0,0-1,.7.4.4,0,0,1-.09.17.28.28,0,0,1-.38.08.27.27,0,0,1-.14-.36c.07-.17.15-.33.22-.5a.66.66,0,0,0,.06-.2.23.23,0,0,1,.14-.25.4.4,0,0,0,.16-.18c.35-.53.7-1.07,1.06-1.6a.44.44,0,0,1,.29-.2c.17,0,.23.17.26.32l.42,1.94a4.5,4.5,0,0,0,.16.48C18.1,11.08,18.12,11.17,18.17,11.32ZM16.53,10.1l.63,0L17,9.3Z"/><path d="M19.09,10.26v.89c0,.24-.11.39-.29.39s-.3-.15-.29-.39l.09-2.6a.55.55,0,0,1,0-.25c0-.08.11-.21.19-.22a1.71,1.71,0,0,1,1.45.24,1,1,0,0,1,0,1.61A1.72,1.72,0,0,1,19.09,10.26Zm.05-.56A.84.84,0,0,0,20,9.37a.39.39,0,0,0,0-.51.83.83,0,0,0-.84-.27Z"/><path d="M21.51,10.27v.88c0,.24-.11.38-.29.39s-.3-.15-.3-.39L21,8.56a.93.93,0,0,1,0-.25c.05-.09.12-.22.19-.23a1.74,1.74,0,0,1,1.45.23,1,1,0,0,1,0,1.63A1.77,1.77,0,0,1,21.51,10.27Zm0-.56a.87.87,0,0,0,.89-.34.41.41,0,0,0,0-.49.86.86,0,0,0-.85-.3Z"/><path d="M24.72,9.86c.23-.52.44-1,.66-1.45a.52.52,0,0,1,.28-.25.28.28,0,0,1,.31.39c-.46,1-.93,1.94-1.4,2.91a.32.32,0,0,1-.36.19.27.27,0,0,1-.21-.4c.1-.21.21-.43.33-.63a.26.26,0,0,0,0-.32c-.36-.54-.71-1.09-1.05-1.64-.13-.2-.1-.37.08-.47s.32,0,.44.16.37.63.57.94S24.57,9.63,24.72,9.86Z"/><path d="M15,15.1c0-.47,0-.94,0-1.42,0-.14,0-.29.16-.31s.22.12.24.25a3,3,0,0,1,.05.42c0,.43,0,.85,0,1.27a.92.92,0,0,1,0,.29c0,.16-.14.21-.28.14a.7.7,0,0,1-.24-.17l-1.26-1.35v.56c0,.25,0,.5,0,.74s0,.31-.23.29-.2-.16-.2-.32c0-.59,0-1.19,0-1.79,0-.15,0-.29.17-.31a.43.43,0,0,1,.3.13c.29.35.56.73.85,1.08C14.65,14.78,14.85,14.94,15,15.1Z"/><path d="M20,14.22v1.13a2.48,2.48,0,0,1,0,.27c0,.13-.1.21-.23.19a.21.21,0,0,1-.18-.25c0-.41,0-.83,0-1.24a5.68,5.68,0,0,0,0-.59c0-.16,0-.32.17-.34a.44.44,0,0,1,.3.15c.41.47.81,1,1.21,1.44l.17.16V13.71c0-.05,0-.1,0-.13s.1-.18.17-.2.17.06.2.12a1,1,0,0,1,.08.35v1.52a.93.93,0,0,1,0,.23.19.19,0,0,1-.3.14,1.08,1.08,0,0,1-.24-.18Z"/><path d="M28.41,14.57V13.7c0-.29.15-.4.41-.27A5.58,5.58,0,0,1,29.9,14a1,1,0,0,1-.07,1.72,1.33,1.33,0,0,1-1.35,0c-.06,0-.09-.16-.09-.25,0-.3,0-.59,0-.89Zm.39-.7c0,.49,0,.92,0,1.35,0,.2.09.25.26.26h.15a.63.63,0,0,0,.66-.43.62.62,0,0,0-.24-.73A7.94,7.94,0,0,0,28.8,13.87Z"/><path d="M11.67,15.47h.91c.14,0,.27,0,.28.18s-.1.22-.25.22-.6,0-.9,0-.44-.15-.45-.48,0-.67,0-1,0-.48,0-.72.05-.33.32-.31.27,0,.41,0a7,7,0,0,1,.79,0c.12,0,.23.09.19.23s-.14.16-.28.15-.55,0-.82,0-.18,0-.18.18,0,.3,0,.49l.77-.07.15,0c.14,0,.25.05.25.21s-.1.2-.23.21l-1,.08Z"/><path d="M22.59,14.38l.78-.07.15,0c.13,0,.23.05.24.2s-.09.21-.22.22l-.94.09s0,0-.05,0v.64h.91c.15,0,.28,0,.29.19s-.12.21-.27.21c-.3,0-.6,0-.9,0s-.42-.15-.43-.47,0-.6,0-.91,0-.59,0-.88.09-.28.3-.27.3,0,.45,0,.53,0,.79.06.23.1.17.23a.37.37,0,0,1-.26.15c-.28,0-.55,0-.82,0s-.2,0-.19.19Z"/><path d="M25.53,15.86a3.69,3.69,0,0,1-.61-.24.49.49,0,0,1-.18-.33.27.27,0,0,1,.14-.22.28.28,0,0,1,.23.1.86.86,0,0,0,1.14,0,.19.19,0,0,0-.12-.32c-.22,0-.46,0-.68-.09a1.08,1.08,0,0,1-.3-.11.38.38,0,0,1-.19-.48,1.08,1.08,0,0,1,1.54-.53c.12.09.09.19,0,.26a.42.42,0,0,1-.25,0,.94.94,0,0,0-.68.08c-.07,0-.12.14-.18.21a1.1,1.1,0,0,0,.26.14c.18,0,.37,0,.54.05a.62.62,0,0,1,.56.58.58.58,0,0,1-.4.64A7.83,7.83,0,0,1,25.53,15.86Z"/><path d="M31.92,15.05l-.63.1c-.06,0-.11.08-.15.14s-.11.22-.17.33-.15.19-.29.12-.14-.18-.09-.3a3.83,3.83,0,0,1,.39-.75c.27-.33.47-.7.72-1,0-.07.16-.15.2-.14a.37.37,0,0,1,.17.22c.11.42.19.85.29,1.28a3.38,3.38,0,0,0,.13.42c.06.14.07.27-.1.33s-.21-.07-.26-.17S32,15.24,31.92,15.05Zm-.17-.85-.34.57.45-.06Z"/><path d="M8.58,15.05c-.21,0-.44.06-.65.11-.06,0-.1.08-.14.14l-.17.34a.21.21,0,0,1-.28.11.19.19,0,0,1-.1-.28,3.64,3.64,0,0,1,.39-.76c.27-.33.47-.7.71-1.05.05-.07.15-.11.22-.17.06.09.16.17.18.27.1.41.18.82.28,1.23a3.22,3.22,0,0,0,.14.44c.05.14,0,.26-.1.32s-.21-.06-.26-.15S8.66,15.25,8.58,15.05Zm-.17-.85-.34.57.44-.06Z"/><path d="M18.77,13.86v1.45h.37c.15,0,.26.07.24.2a.32.32,0,0,1-.21.21c-.37,0-.73,0-1.1,0a.21.21,0,0,1-.25-.22c0-.16.09-.24.25-.24h.26V13.87a1,1,0,0,1-.3,0,.37.37,0,0,1-.2-.19c0-.05.09-.18.16-.19a6.27,6.27,0,0,1,.75,0c.14,0,.28,0,.42,0s.24.08.23.22-.13.21-.28.2Z"/><path d="M6,15.09c.14-.37.26-.69.39-1a3.39,3.39,0,0,1,.24-.55c.06-.12.17-.23.33-.13s.09.2,0,.34c-.21.48-.41,1-.61,1.46a3.17,3.17,0,0,1-.19.42c0,.07-.14.15-.21.14a.31.31,0,0,1-.21-.16c-.09-.2-.16-.41-.23-.61-.12-.39-.23-.78-.35-1.18,0-.06,0-.12,0-.18s0-.26.18-.26a.36.36,0,0,1,.23.19c.12.38.21.77.32,1.15C5.87,14.82,5.91,14.92,6,15.09Z"/><path d="M33.74,14.57c.13-.3.26-.56.38-.83a1.6,1.6,0,0,1,.1-.23c.05-.12.13-.18.26-.13a.18.18,0,0,1,.12.27c-.32.69-.64,1.38-1,2.07a.2.2,0,0,1-.3.1c-.14-.07-.12-.19-.07-.3v0c.31-.36.21-.68-.06-1s-.31-.5-.47-.75-.09-.24,0-.33.24,0,.31.11.26.45.39.67Z"/><path d="M16.4,13.89c-.22,0-.4,0-.58-.07a.29.29,0,0,1-.2-.19c0-.13.09-.19.22-.19h1.69a.22.22,0,0,1,.24.24.22.22,0,0,1-.24.23l-.72-.05c0,.31,0,.59.06.88l0,.72c0,.15,0,.3-.21.3s-.21-.14-.22-.31C16.46,14.93,16.43,14.41,16.4,13.89Z"/><path d="M9.87,15.47c.32-.06.61-.11.89-.18s.25,0,.3.14,0,.25-.19.27c-.35.06-.71.12-1.07.15s-.35-.12-.34-.37l.06-1.82c0-.15,0-.29.19-.29s.24.13.23.29c0,.52,0,1.05-.07,1.58Z"/><path d="M24.05,13.83a2.44,2.44,0,0,1,.06-.39c0-.07.14-.16.19-.15a.29.29,0,0,1,.17.19,1,1,0,0,1,0,.39c0,.08-.14.19-.2.19s-.14-.12-.21-.19Z"/></g><g class="cls-3"><path d="M9.05-.16A4.94,4.94,0,0,1,10.59,1a4.36,4.36,0,0,1,1.18,2.93s0,.1,0,.18H4.37c-.22,0-.26.06-.26.27v7L0,9.71a.22.22,0,0,1-.16-.25c0-2.63,0-5.27,0-7.9a1.68,1.68,0,0,1,.3-1A.4.4,0,0,1,.52.39,3.94,3.94,0,0,1,3.45,1.62c.18.17.33.35.51.53a3.63,3.63,0,0,1,1-1.43A4.27,4.27,0,0,1,6.2-.07a1.63,1.63,0,0,0,.19-.09Z"/><path d="M24-.16a2.06,2.06,0,0,1-.39,1.74A7.2,7.2,0,0,1,21.81,3.2,1.86,1.86,0,0,0,21,4c0,.1-.43.1-.54,0a9,9,0,0,0-2.88-1.85A1.5,1.5,0,0,1,16.7.46c0-.21.1-.41.15-.62Z"/><path d="M38.41,19.58a6.46,6.46,0,0,1-1.81.29l-.31,0a1,1,0,0,0-1,.69,7.23,7.23,0,0,0-1.09-2.92.42.42,0,0,1,0-.22c0-.75,0-1.49,0-2.23a.38.38,0,0,1,.14-.27,1.7,1.7,0,0,1,2.74,1.11s0,0,0,.05a2,2,0,0,1,1.33-.37Z"/><path d="M38.41,4.12,37.62,5a.67.67,0,0,0-.16.78,11.84,11.84,0,0,0-1.09-.63,10.79,10.79,0,0,0-1.46-.47A1.13,1.13,0,0,1,34,3.6a1.3,1.3,0,0,1,1.8-1.38,1.78,1.78,0,0,1,.36.19A3.69,3.69,0,0,1,36.31,2,1.25,1.25,0,0,1,38,1.44l.37.18Z"/><path d="M38.41,13.36c-.52-.35-1-.7-1.57-1a6.74,6.74,0,0,0-.72-.34,1.38,1.38,0,0,1-.88-1.51A1.86,1.86,0,0,1,36.14,9a1.78,1.78,0,0,1,2.11.34s.11.05.16.08Z"/><path d="M38.41,23.1a4.4,4.4,0,0,1-.21.5,1.57,1.57,0,0,1-1.12.85.3.3,0,0,1-.24-.05A4.63,4.63,0,0,1,35.67,23a1.7,1.7,0,0,1,1-2.37,1.51,1.51,0,0,1,1.75.34Z"/><path d="M30.75,20.27a1.87,1.87,0,0,1-.4,1.1A11.13,11.13,0,0,0,28.9,24l-.18.49h-.23c-1.52,0-3,0-4.55,0a1.2,1.2,0,0,1-.62-.17,2.45,2.45,0,0,1-1.2-2.74,2.93,2.93,0,0,1,.55-1.2.37.37,0,0,1,.24-.12h7.84Z"/><path d="M8.79,22.32C8.19,22,7.6,21.73,7,21.48a11.24,11.24,0,0,0-3-.71c-.4,0-.8,0-1.2-.1A2.12,2.12,0,0,1,1,19.2a3.19,3.19,0,0,1,.13-2.55,2.6,2.6,0,0,1,2-1.34,6.89,6.89,0,0,1,.79,0c.18,0,.2.09.2.24v4.72H9C8.54,20.93,8.25,21.61,8.79,22.32Z"/><path d="M32.37,4.08H22.74a2.79,2.79,0,0,1,1.74-1,2.56,2.56,0,0,1,1.9.38,7.76,7.76,0,0,1,.19-.89A2.48,2.48,0,0,1,29.22.74,3.35,3.35,0,0,1,31.87,2.1,2.71,2.71,0,0,1,32.37,4.08Z"/><path d="M16.16,20.27a6.91,6.91,0,0,0-1.1,2.78,1,1,0,0,0-1-.59,7,7,0,0,1-2-.33,1.66,1.66,0,0,1-1.22-1.72s0-.08,0-.14Z"/><path d="M32.42,20.8a1.36,1.36,0,0,1,0-.17c.09-.31.17-.37.49-.37h1a1,1,0,0,0,.24-.07.88.88,0,0,1,.21,1.27,5,5,0,0,0-.81,1.63c0,.17-.08.35-.12.55a.68.68,0,0,0-.68-.43A4.34,4.34,0,0,1,31.37,23a1.1,1.1,0,0,1-.78-1,1.27,1.27,0,0,1,.64-1.21,1,1,0,0,1,1,0l.17.08Z"/><path d="M19.21,20.82c.22-.56.22-.56.82-.56.33,0,.65,0,1,0a.33.33,0,0,1,.24.12.84.84,0,0,1,0,1.07,4.77,4.77,0,0,0-.92,2.2.69.69,0,0,0-.72-.45A4.73,4.73,0,0,1,18.19,23a1.15,1.15,0,0,1-.79-1,1.31,1.31,0,0,1,.71-1.25,1,1,0,0,1,.92,0Z"/><path d="M13.79,2a1.1,1.1,0,0,1,2-.48.93.93,0,0,1,0,1.13c-.27.44-.49.9-.74,1.35a.23.23,0,0,1-.17.12c-.68,0-1.35,0-2,0a1,1,0,0,1-.73-.46,1.32,1.32,0,0,1,.49-1.82,1,1,0,0,1,.94,0Z"/><path d="M9.73,23c0-.06,0-.11,0-.16a1.09,1.09,0,0,1,1.57-.8,1.24,1.24,0,0,1,.73,1.77c-.31.73-.31.74-1.1.74s-1.83,0-2.75,0A.22.22,0,0,1,8,24.31,1.18,1.18,0,0,1,8.32,23,1.15,1.15,0,0,1,9.73,23Z"/><path d="M13.85,9.77,12.11,10c0,.3,0,.59,0,.87s-.12.33-.3.33a.29.29,0,0,1-.29-.34c0-1,.06-1.9.1-2.85,0-.21.13-.34.31-.32s.27.12.28.33V9.45l1.69-.27c0-.19,0-.4,0-.61A3.29,3.29,0,0,1,14,7.9a.22.22,0,0,1,.32-.15c.16,0,.19.17.19.33,0,.91,0,1.83-.06,2.74,0,.26-.09.41-.29.42s-.33-.13-.33-.39S13.85,10.17,13.85,9.77Z"/><path d="M17.83,11c-.07.07-.14.19-.24.23a.32.32,0,0,1-.27-.11,4.69,4.69,0,0,1-.33-.72c0-.14-.1-.17-.22-.15a.75.75,0,0,1-.21,0,.81.81,0,0,0-1,.7.56.56,0,0,1-.09.17.28.28,0,0,1-.38.08.27.27,0,0,1-.14-.36c.07-.17.15-.33.22-.5a.66.66,0,0,0,.06-.2.22.22,0,0,1,.14-.25.4.4,0,0,0,.16-.18c.35-.54.7-1.07,1.06-1.6a.44.44,0,0,1,.29-.2c.17,0,.23.16.26.32l.42,1.94a4.5,4.5,0,0,0,.16.48C17.76,10.74,17.78,10.83,17.83,11ZM16.19,9.76l.63,0L16.67,9Z"/><path d="M18.75,9.92v.89c0,.24-.11.38-.29.38s-.3-.14-.29-.38l.09-2.6a.55.55,0,0,1,0-.25c0-.08.11-.21.19-.22A1.71,1.71,0,0,1,19.94,8a1,1,0,0,1,0,1.61A1.72,1.72,0,0,1,18.75,9.92Zm.05-.56A.84.84,0,0,0,19.68,9a.39.39,0,0,0,0-.51.83.83,0,0,0-.84-.27Z"/><path d="M21.17,9.93v.88c0,.24-.11.38-.29.38s-.3-.14-.3-.38l.09-2.6a.93.93,0,0,1,0-.24c.05-.09.12-.22.19-.23A1.74,1.74,0,0,1,22.35,8a1,1,0,0,1,0,1.63A1.77,1.77,0,0,1,21.17,9.93Zm0-.56A.87.87,0,0,0,22.1,9a.41.41,0,0,0,0-.49.86.86,0,0,0-.85-.3Z"/><path d="M24.38,9.52c.23-.52.44-1,.66-1.45a.52.52,0,0,1,.28-.25.28.28,0,0,1,.31.39c-.46,1-.93,1.94-1.4,2.91a.32.32,0,0,1-.36.19.27.27,0,0,1-.21-.4c.1-.21.21-.43.33-.63A.26.26,0,0,0,24,10c-.36-.54-.71-1.09-1.05-1.64-.13-.2-.1-.37.08-.47s.32,0,.44.16.37.63.57.94S24.23,9.29,24.38,9.52Z"/><path d="M14.68,14.76c0-.47,0-.94,0-1.42,0-.14,0-.29.16-.31s.22.12.24.25a3,3,0,0,1,0,.42c0,.43,0,.85,0,1.27a.92.92,0,0,1,0,.29c0,.16-.14.21-.28.14a.7.7,0,0,1-.24-.17l-1.26-1.35v.56c0,.25,0,.5,0,.74s0,.31-.23.29-.2-.16-.2-.32c0-.59,0-1.19,0-1.79,0-.15,0-.29.17-.31a.43.43,0,0,1,.3.13c.29.35.56.73.85,1.08C14.31,14.44,14.51,14.6,14.68,14.76Z"/><path d="M19.69,13.88V15a2.48,2.48,0,0,1,0,.27c0,.13-.1.21-.23.19a.21.21,0,0,1-.18-.25c0-.41,0-.83,0-1.24a5.68,5.68,0,0,0,0-.59c0-.16,0-.32.17-.34a.44.44,0,0,1,.3.15c.41.47.81,1,1.21,1.44l.17.16V13.37s0-.1,0-.13.1-.18.17-.2.17.06.2.12a1,1,0,0,1,.08.35V15a.93.93,0,0,1,0,.23.19.19,0,0,1-.3.14,1.08,1.08,0,0,1-.24-.18Z"/><path d="M28.07,14.23v-.87c0-.29.15-.4.41-.27a5.58,5.58,0,0,1,1.08.58,1,1,0,0,1-.07,1.72,1.33,1.33,0,0,1-1.35,0c-.06,0-.09-.17-.09-.25,0-.3,0-.59,0-.89Zm.39-.7c0,.49,0,.92,0,1.35,0,.2.09.25.26.26h.15a.63.63,0,0,0,.66-.43.62.62,0,0,0-.24-.73A7.94,7.94,0,0,0,28.46,13.53Z"/><path d="M11.33,15.13h.91c.14,0,.27,0,.28.18s-.1.22-.25.22-.6,0-.9,0-.44-.15-.45-.48,0-.67,0-1,0-.48,0-.72S11,13,11.25,13s.27,0,.41,0a7,7,0,0,1,.79,0c.12,0,.23.08.19.23s-.14.16-.28.15-.55,0-.82,0c-.12,0-.18.05-.18.18s0,.3,0,.49l.77-.07.15,0c.14,0,.25.05.25.21s-.1.2-.23.21l-1,.08Z"/><path d="M22.25,14,23,14l.15,0c.13,0,.23.05.24.2s-.09.21-.22.22l-.94.09s0,0-.05,0v.64h.91c.15,0,.28,0,.29.19s-.12.21-.27.21c-.3,0-.6,0-.9,0s-.42-.15-.43-.47,0-.6,0-.91,0-.59,0-.88.09-.28.3-.27.3,0,.45,0,.53,0,.79.06.23.1.17.23a.37.37,0,0,1-.26.15c-.28,0-.55,0-.82,0s-.2.05-.19.19Z"/><path d="M25.19,15.52a3.69,3.69,0,0,1-.61-.24A.49.49,0,0,1,24.4,15a.27.27,0,0,1,.14-.22.28.28,0,0,1,.23.1.86.86,0,0,0,1.14,0,.19.19,0,0,0-.12-.32c-.22,0-.46-.06-.68-.09a1.08,1.08,0,0,1-.3-.11.38.38,0,0,1-.19-.48,1.08,1.08,0,0,1,1.54-.53c.12.09.09.19,0,.26a.42.42,0,0,1-.25,0,.94.94,0,0,0-.68.08c-.07,0-.12.14-.18.21a1.1,1.1,0,0,0,.26.14c.18,0,.37,0,.54.05a.62.62,0,0,1,.56.58.58.58,0,0,1-.4.64A7.83,7.83,0,0,1,25.19,15.52Z"/><path d="M31.58,14.71l-.63.1c-.06,0-.11.08-.15.14s-.11.22-.17.33-.15.19-.29.12-.14-.18-.09-.3a3.83,3.83,0,0,1,.39-.75c.27-.33.47-.7.71-1,0-.07.17-.15.21-.14a.37.37,0,0,1,.17.22c.11.42.19.85.29,1.28a3.38,3.38,0,0,0,.13.42c.06.14.07.27-.1.33s-.21-.07-.26-.17S31.65,14.9,31.58,14.71Zm-.17-.85-.34.57.45-.06Z"/><path d="M8.24,14.71c-.21,0-.44.06-.65.11-.06,0-.1.08-.14.14s-.11.23-.17.34a.21.21,0,0,1-.28.11.19.19,0,0,1-.1-.28,3.64,3.64,0,0,1,.39-.76c.27-.33.47-.7.71-1,.05-.07.15-.11.22-.17.06.09.16.17.18.27.1.41.18.82.28,1.23a2.25,2.25,0,0,0,.14.44c0,.14,0,.26-.1.32s-.21-.06-.26-.15S8.32,14.91,8.24,14.71Zm-.17-.85-.34.57.44-.06Z"/><path d="M18.43,13.52V15h.37c.15,0,.26.07.24.2a.32.32,0,0,1-.21.21c-.37,0-.73,0-1.1,0a.21.21,0,0,1-.25-.22c0-.16.09-.24.25-.24H18V13.53a1,1,0,0,1-.3,0,.37.37,0,0,1-.2-.19c0-.05.09-.18.16-.19a6.27,6.27,0,0,1,.75,0c.14,0,.28,0,.42,0s.24.08.23.22-.13.21-.28.2Z"/><path d="M5.62,14.75c.14-.37.26-.69.39-1a3.39,3.39,0,0,1,.24-.55c.06-.12.17-.23.33-.13s.08.2,0,.34c-.21.48-.41,1-.61,1.46a3.17,3.17,0,0,1-.19.42c0,.07-.14.15-.21.14a.31.31,0,0,1-.21-.16c-.09-.2-.16-.41-.23-.61-.12-.39-.23-.78-.35-1.18,0-.06,0-.12,0-.18S4.81,13,5,13a.3.3,0,0,1,.22.19c.13.38.22.77.33,1.15C5.53,14.48,5.57,14.58,5.62,14.75Z"/><path d="M33.4,14.23c.13-.3.26-.56.38-.83a1.6,1.6,0,0,1,.1-.23c0-.12.13-.18.26-.13a.18.18,0,0,1,.12.27c-.32.69-.64,1.38-1,2.07a.2.2,0,0,1-.3.1c-.14-.07-.12-.19-.07-.3v0c.31-.36.21-.68-.06-1s-.31-.5-.47-.75-.09-.24.05-.33.24,0,.31.11.26.45.39.67Z"/><path d="M16.06,13.54a4.71,4.71,0,0,1-.58-.06.29.29,0,0,1-.2-.19c0-.13.09-.19.22-.19h1.69a.22.22,0,0,1,.24.24.22.22,0,0,1-.24.23l-.72-.05c0,.31,0,.59.06.88l0,.72c0,.15,0,.3-.21.3s-.21-.14-.22-.31C16.12,14.59,16.09,14.07,16.06,13.54Z"/><path d="M9.53,15.13c.32-.06.61-.11.89-.18s.25,0,.3.14a.2.2,0,0,1-.19.27c-.35.06-.71.12-1.07.15s-.35-.13-.34-.37l.06-1.82c0-.15,0-.29.19-.29s.24.13.23.29c0,.52,0,1-.07,1.58Z"/><path d="M23.71,13.49a2.44,2.44,0,0,1,.06-.39c0-.07.14-.16.19-.15a.29.29,0,0,1,.17.19,1,1,0,0,1-.05.39c0,.08-.14.19-.2.19s-.14-.12-.21-.19Z"/></g><path class="cls-4" d="M9.25,0a4.91,4.91,0,0,1,1.54,1.13A4.33,4.33,0,0,1,12,4.11a1.36,1.36,0,0,1,0,.18H4.57c-.22,0-.27.06-.27.28q0,3.36,0,6.73v.26L.22,9.91a.23.23,0,0,1-.16-.25V1.76a1.69,1.69,0,0,1,.31-1A.39.39,0,0,1,.71.59,4,4,0,0,1,3.65,1.82l.51.53a3.63,3.63,0,0,1,1-1.43A4.08,4.08,0,0,1,6.4.13L6.58,0Z"/><path class="cls-4" d="M24.16,0a2,2,0,0,1-.38,1.74A7,7,0,0,1,22,3.39a1.93,1.93,0,0,0-.81.84c0,.1-.44.09-.54,0a8.83,8.83,0,0,0-2.88-1.85A1.5,1.5,0,0,1,16.9.65c0-.2.1-.4.15-.61Z"/><path class="cls-4" d="M38.61,19.78a6.58,6.58,0,0,1-1.81.29l-.32,0a1,1,0,0,0-1,.69,7.22,7.22,0,0,0-1.09-2.93.4.4,0,0,1-.05-.22c0-.74,0-1.48,0-2.22a.38.38,0,0,1,.14-.27,1.7,1.7,0,0,1,2.74,1.11.17.17,0,0,0,0,.05,2,2,0,0,1,1.33-.37Z"/><path class="cls-4" d="M38.61,4.32c-.27.29-.54.58-.79.87a.65.65,0,0,0-.16.78,10.8,10.8,0,0,0-1.1-.63,9.2,9.2,0,0,0-1.46-.47,1.13,1.13,0,0,1-.92-1.07A1.3,1.3,0,0,1,36,2.42a2.53,2.53,0,0,1,.36.19c0-.14.1-.29.16-.42a1.26,1.26,0,0,1,1.74-.55l.37.18Z"/><path class="cls-4" d="M38.61,13.56c-.52-.35-1-.7-1.57-1a6.07,6.07,0,0,0-.73-.34,1.39,1.39,0,0,1-.87-1.51,1.86,1.86,0,0,1,.9-1.48,1.78,1.78,0,0,1,2.11.34s.11.05.16.08Z"/><path class="cls-4" d="M38.61,23.3a4.4,4.4,0,0,1-.21.5,1.59,1.59,0,0,1-1.12.85.3.3,0,0,1-.24,0,4.75,4.75,0,0,1-1.17-1.43,1.7,1.7,0,0,1,1-2.37,1.51,1.51,0,0,1,1.75.34Z"/><path class="cls-4" d="M31,20.47a1.84,1.84,0,0,1-.41,1.1,11.46,11.46,0,0,0-1.44,2.64q-.09.22-.18.48H24.13a1.26,1.26,0,0,1-.62-.17,2.49,2.49,0,0,1-1.2-2.74,2.82,2.82,0,0,1,.56-1.2.38.38,0,0,1,.24-.13H31Z"/><path class="cls-4" d="M9,22.52c-.59-.28-1.18-.59-1.8-.84a11.24,11.24,0,0,0-3-.71c-.4,0-.81,0-1.2-.1A2.11,2.11,0,0,1,1.17,19.4a3.15,3.15,0,0,1,.13-2.55,2.54,2.54,0,0,1,2-1.34,5.35,5.35,0,0,1,.8,0c.18,0,.2.09.2.24v4.72H9.23C8.74,21.13,8.44,21.81,9,22.52Z"/><path class="cls-4" d="M32.57,4.28H22.94a2.79,2.79,0,0,1,1.74-1,2.55,2.55,0,0,1,1.9.37,8.06,8.06,0,0,1,.19-.88A2.47,2.47,0,0,1,29.41.94,3.36,3.36,0,0,1,32.07,2.3,2.71,2.71,0,0,1,32.57,4.28Z"/><path class="cls-4" d="M16.36,20.47a6.91,6.91,0,0,0-1.1,2.78,1,1,0,0,0-1-.6,6.6,6.6,0,0,1-2-.32,1.66,1.66,0,0,1-1.22-1.72c0-.05,0-.09,0-.14Z"/><path class="cls-4" d="M32.62,21a1,1,0,0,1,0-.17c.09-.31.17-.37.49-.37H34.2a1.33,1.33,0,0,0,.24-.08.9.9,0,0,1,.21,1.28,5,5,0,0,0-.81,1.63c-.05.17-.08.34-.12.55a.68.68,0,0,0-.68-.43,4.59,4.59,0,0,1-1.47-.26,1.1,1.1,0,0,1-.78-1,1.27,1.27,0,0,1,.64-1.2,1,1,0,0,1,1,0l.17.09Z"/><path class="cls-4" d="M19.41,21c.22-.55.22-.55.82-.55.33,0,.65,0,1,0a.38.38,0,0,1,.24.13.83.83,0,0,1,0,1.07,4.87,4.87,0,0,0-.91,2.19.71.71,0,0,0-.72-.44,4.67,4.67,0,0,1-1.43-.25,1.15,1.15,0,0,1-.79-1,1.31,1.31,0,0,1,.71-1.25,1,1,0,0,1,.91.05Z"/><path class="cls-4" d="M14,2.16a1.09,1.09,0,0,1,2-.48.92.92,0,0,1,0,1.13c-.26.44-.48.9-.73,1.35a.23.23,0,0,1-.17.12c-.68,0-1.35,0-2,0a1,1,0,0,1-.73-.46A1.33,1.33,0,0,1,12.84,2a1,1,0,0,1,.93,0Z"/><path class="cls-4" d="M9.93,23.15c0-.06,0-.11,0-.17a1.1,1.1,0,0,1,1.58-.79A1.23,1.23,0,0,1,12.28,24c-.31.74-.31.74-1.1.74H8.43a.22.22,0,0,1-.25-.19,1.17,1.17,0,0,1,.34-1.29A1.15,1.15,0,0,1,9.93,23.15Z"/><path class="cls-4" d="M14,10l-1.73.27c0,.3,0,.58-.05.86s-.12.34-.3.34a.3.3,0,0,1-.29-.34c0-.95.06-1.91.1-2.86,0-.21.13-.33.31-.32s.27.13.27.34c0,.45,0,.91,0,1.38l1.7-.26a4.14,4.14,0,0,1,0-.61,3.14,3.14,0,0,1,.17-.67.23.23,0,0,1,.32-.16c.16.06.19.18.19.34,0,.91-.05,1.83-.06,2.74,0,.26-.09.41-.29.42s-.33-.13-.33-.4S14,10.37,14,10Z"/><path class="cls-4" d="M18,11.18c-.07.07-.14.19-.24.22a.28.28,0,0,1-.27-.1,3.7,3.7,0,0,1-.33-.73c0-.13-.1-.16-.22-.14a.75.75,0,0,1-.21,0c-.56-.1-.85.2-1,.7a.42.42,0,0,1-.09.16.29.29,0,0,1-.38.09.27.27,0,0,1-.14-.36c.07-.17.15-.33.22-.5a.89.89,0,0,0,.06-.2.21.21,0,0,1,.14-.25c.07,0,.11-.11.16-.18.35-.54.7-1.08,1.06-1.6a.41.41,0,0,1,.29-.2c.16,0,.23.16.26.32.14.64.27,1.29.42,1.93,0,.17.1.32.15.48ZM16.39,10,17,9.91l-.15-.75Z"/><path class="cls-4" d="M19,10.12V11c0,.24-.11.38-.29.38s-.3-.14-.29-.38c0-.87.06-1.73.09-2.6a.53.53,0,0,1,0-.25c0-.09.11-.21.19-.22a1.74,1.74,0,0,1,1.45.23,1,1,0,0,1,0,1.61A1.67,1.67,0,0,1,19,10.12ZM19,9.56a.83.83,0,0,0,.88-.34.39.39,0,0,0,0-.51.83.83,0,0,0-.84-.26Z"/><path class="cls-4" d="M21.37,10.13V11c0,.25-.11.39-.29.39s-.31-.14-.3-.38l.09-2.6a1.09,1.09,0,0,1,0-.25c.05-.08.12-.21.19-.22a1.74,1.74,0,0,1,1.45.23,1,1,0,0,1,0,1.63A1.83,1.83,0,0,1,21.37,10.13Zm0-.57a.86.86,0,0,0,.89-.33.42.42,0,0,0,0-.5.87.87,0,0,0-.86-.29Z"/><path class="cls-4" d="M24.58,9.72c.23-.52.44-1,.66-1.45A.49.49,0,0,1,25.52,8a.28.28,0,0,1,.31.39c-.46,1-.93,1.94-1.4,2.9a.31.31,0,0,1-.36.2.28.28,0,0,1-.22-.4c.1-.21.22-.43.34-.63a.26.26,0,0,0,0-.32c-.36-.54-.71-1.09-1.05-1.64-.13-.2-.1-.37.07-.47s.32,0,.45.16l.56.94Z"/><path class="cls-4" d="M14.88,15c0-.47,0-1,0-1.42,0-.15,0-.29.16-.31s.22.12.24.25a2,2,0,0,1,0,.42c0,.42,0,.85,0,1.27a1.35,1.35,0,0,1,0,.29.19.19,0,0,1-.29.14.76.76,0,0,1-.23-.17l-1.27-1.36v.57c0,.25,0,.5,0,.74s0,.31-.24.29-.19-.16-.19-.32c0-.6,0-1.19,0-1.79,0-.15,0-.29.18-.31a.41.41,0,0,1,.3.13c.29.35.56.73.85,1.07A6.32,6.32,0,0,0,14.88,15Z"/><path class="cls-4" d="M19.89,14.08c0,.39,0,.76,0,1.13a2.45,2.45,0,0,1,0,.27c0,.12-.1.21-.24.19a.21.21,0,0,1-.17-.25c0-.41,0-.83,0-1.25,0-.19,0-.39,0-.59s0-.31.17-.33a.43.43,0,0,1,.31.14c.41.48.81,1,1.21,1.45,0,.05.1.1.16.16,0-.5,0-1,0-1.44,0,0,0-.09,0-.12s.1-.18.17-.21.16.07.2.13a.81.81,0,0,1,.07.35c0,.5,0,1,0,1.52a2.23,2.23,0,0,1,0,.23.19.19,0,0,1-.3.14,1.08,1.08,0,0,1-.24-.18Z"/><path class="cls-4" d="M28.27,14.43c0-.29,0-.58,0-.87s.15-.4.41-.28a6.6,6.6,0,0,1,1.08.59,1,1,0,0,1-.08,1.72,1.31,1.31,0,0,1-1.34,0c-.06,0-.09-.17-.09-.25,0-.3,0-.6,0-.89Zm.39-.71c0,.5,0,.93,0,1.35,0,.21.09.26.26.27h.15a.61.61,0,0,0,.65-.43.6.6,0,0,0-.24-.73A8.59,8.59,0,0,0,28.66,13.72Z"/><path class="cls-4" d="M11.53,15.33h.91c.14,0,.26,0,.28.18s-.11.22-.25.21c-.3,0-.6,0-.9,0s-.44-.15-.45-.48,0-.67,0-1a5.77,5.77,0,0,0,0-.72c0-.26,0-.33.32-.31s.27,0,.41,0a7,7,0,0,1,.79.05c.12,0,.23.08.19.22s-.14.17-.28.16-.55,0-.82,0-.18,0-.18.18,0,.3,0,.48l.77-.06.15,0c.14,0,.25,0,.25.21s-.1.2-.23.21l-1,.08Z"/><path class="cls-4" d="M22.45,14.24l.78-.07.15,0c.13,0,.23,0,.24.2s-.09.21-.22.22l-.95.09,0,0v.64h.9c.16,0,.29,0,.3.19s-.12.21-.27.21c-.3,0-.6,0-.9,0s-.42-.16-.43-.47,0-.6,0-.91,0-.59,0-.88.09-.29.29-.27.31,0,.46,0,.53,0,.79.06.23.1.17.23a.33.33,0,0,1-.26.14c-.28,0-.55,0-.83,0-.12,0-.19,0-.18.19Z"/><path class="cls-4" d="M25.38,15.72a4,4,0,0,1-.6-.24.49.49,0,0,1-.18-.33c0-.07.07-.19.14-.22s.18,0,.23.09a.86.86,0,0,0,1.14,0A.2.2,0,0,0,26,14.7c-.22,0-.46,0-.68-.08a1,1,0,0,1-.3-.11.38.38,0,0,1-.19-.48,1.06,1.06,0,0,1,1.53-.53c.13.09.1.19,0,.25a.35.35,0,0,1-.25,0,1,1,0,0,0-.68.07,1.32,1.32,0,0,0-.18.22,1.1,1.1,0,0,0,.26.14c.18,0,.36,0,.54,0a.62.62,0,0,1,.56.57.59.59,0,0,1-.4.65A7.38,7.38,0,0,1,25.38,15.72Z"/><path class="cls-4" d="M31.78,14.91l-.63.1a.27.27,0,0,0-.15.13c-.07.11-.11.23-.17.34s-.15.19-.29.12-.14-.19-.09-.3a3.35,3.35,0,0,1,.39-.75c.27-.33.47-.71.71-1.05.05-.07.17-.16.21-.14a.32.32,0,0,1,.17.22c.1.42.19.85.29,1.27a2.58,2.58,0,0,0,.13.42c0,.15.06.28-.1.34s-.21-.07-.26-.18A5.11,5.11,0,0,1,31.78,14.91Zm-.18-.85-.34.57.45-.07Z"/><path class="cls-4" d="M8.44,14.91c-.22,0-.44.06-.65.11-.06,0-.11.08-.14.14s-.11.23-.17.34a.22.22,0,0,1-.28.11.19.19,0,0,1-.1-.28,3.64,3.64,0,0,1,.39-.76c.26-.33.47-.71.71-1.05a.92.92,0,0,1,.22-.17,1.16,1.16,0,0,1,.18.27c.1.4.18.82.27,1.23a3.26,3.26,0,0,0,.15.44c0,.14,0,.26-.11.32s-.2-.06-.25-.15A5.72,5.72,0,0,1,8.44,14.91Zm-.18-.85-.34.56.45,0Z"/><path class="cls-4" d="M18.63,13.71v1.46H19c.15,0,.25.07.24.2a.34.34,0,0,1-.21.21c-.37,0-.73,0-1.1.05-.15,0-.25-.06-.25-.22s.08-.24.25-.24h.26V13.72a1,1,0,0,1-.3,0,.34.34,0,0,1-.2-.19s.09-.19.16-.19a6.27,6.27,0,0,1,.75,0l.42,0c.15,0,.23.09.22.23s-.12.21-.27.19Z"/><path class="cls-4" d="M5.82,15l.38-1a5.62,5.62,0,0,1,.25-.56c.06-.11.16-.22.32-.12s.09.2,0,.34c-.21.48-.4,1-.6,1.46a3.17,3.17,0,0,1-.19.42.36.36,0,0,1-.21.14.31.31,0,0,1-.21-.16,3.56,3.56,0,0,1-.23-.62c-.12-.38-.23-.78-.35-1.17a1.16,1.16,0,0,1,0-.18c0-.14,0-.26.17-.26a.32.32,0,0,1,.23.19c.13.38.22.77.33,1.15C5.73,14.68,5.77,14.78,5.82,15Z"/><path class="cls-4" d="M33.6,14.43c.13-.3.25-.56.38-.83l.09-.23c.06-.12.14-.18.27-.13a.19.19,0,0,1,.12.27c-.32.69-.65,1.38-1,2.06-.06.12-.16.19-.3.11s-.12-.19-.07-.31h0a.72.72,0,0,0-.06-1c-.18-.23-.31-.5-.47-.75s-.09-.24,0-.33.24,0,.31.11l.39.67C33.42,14.16,33.5,14.28,33.6,14.43Z"/><path class="cls-4" d="M16.26,13.74a4.51,4.51,0,0,1-.58-.06.29.29,0,0,1-.2-.19c0-.13.09-.19.22-.19h1.69a.22.22,0,0,1,.24.23.21.21,0,0,1-.24.23l-.72,0c0,.32,0,.6.06.89l0,.71c0,.16,0,.31-.22.31s-.21-.14-.21-.31C16.32,14.79,16.29,14.27,16.26,13.74Z"/><path class="cls-4" d="M9.73,15.32c.32-.06.61-.1.89-.17s.25,0,.3.14a.2.2,0,0,1-.19.27c-.36.06-.71.12-1.08.15s-.34-.13-.33-.38l.06-1.81c0-.15,0-.29.19-.3s.23.13.23.29c0,.53-.05,1.06-.07,1.59Z"/><path class="cls-4" d="M23.91,13.69a2.57,2.57,0,0,1,.06-.4c0-.06.14-.16.19-.14a.24.24,0,0,1,.16.19.86.86,0,0,1,0,.39c0,.08-.14.19-.2.19s-.14-.12-.21-.19Z"/></g></g></svg>