<svg xmlns="http://www.w3.org/2000/svg" viewBox="0 0 38.55 24.66"><defs><style>.cls-1{isolation:isolate;}.cls-2{opacity:0.15;}.cls-2,.cls-3{mix-blend-mode:multiply;}.cls-4{fill:#fff;}</style></defs><title>convert-FIX-SVG-03</title><g class="cls-1"><g id="Layer_1" data-name="Layer 1"><g class="cls-2"><path d="M33.31,18.52c0-.16,0-.31,0-.46a.27.27,0,0,1,.28-.28c.14,0,.25.15.24.33s0,.62-.06.95H4.61c0-.34-.05-.67-.06-1a.23.23,0,0,1,.24-.26.41.41,0,0,1,.27.23,2,2,0,0,1,.06.5Z"/><path d="M5.12,6.08c0,.16,0,.31,0,.46a.27.27,0,0,1-.28.28c-.14,0-.25-.15-.24-.33s0-.62.06-1H33.82c0,.34,0,.67.06,1a.23.23,0,0,1-.24.26.41.41,0,0,1-.27-.23,2.54,2.54,0,0,1-.06-.5Z"/><path d="M5.14,8V7.18c0-.23.15-.39.32-.38s.29.17.29.39V8.58H4.55V9.76H3.91l-.81,0a.31.31,0,1,1,0-.61H3.9c0-.27,0-.51,0-.75S3.52,8,3.34,8l-1.61.11-.32,0c0-.35,0-.69,0-1,0-.05.06-.1.11-.15L2.88,5.63a.51.51,0,0,1,.29-.13c.3,0,.6,0,.93,0,0,.33,0,.65-.07,1S4,7.11,4,7.44A.67.67,0,0,0,4.45,8C4.66,8,4.87,8,5.14,8Z"/><path d="M4.54,14.82V16h1.2v.64c0,.27,0,.54,0,.8a.34.34,0,0,1-.31.35.34.34,0,0,1-.3-.33v-.84c-.28,0-.52,0-.75,0A.68.68,0,0,0,4,17.2c0,.51.08,1,.11,1.54,0,.12,0,.24,0,.36h-1A.41.41,0,0,1,2.89,19L1.5,17.62a.28.28,0,0,1-.09-.17c0-.32,0-.65,0-1l.35,0,1.62.11a.69.69,0,0,0,.54-.46c0-.12,0-.25,0-.38v-.31H3.05a.35.35,0,0,1-.31-.32.33.33,0,0,1,.34-.29Z"/><path d="M32.68,8.59c0-.51,0-1,0-1.48a.3.3,0,1,1,.59,0c0,.28,0,.56,0,.86.28,0,.52,0,.75,0a.68.68,0,0,0,.43-.56c0-.52-.08-1-.11-1.56,0-.11,0-.22,0-.34h1a.32.32,0,0,1,.18.11L36.92,7a.32.32,0,0,1,.1.2c0,.32,0,.63,0,1l-1-.06-1-.07a.67.67,0,0,0-.54.47c0,.22,0,.43,0,.68h.86a.34.34,0,0,1,.31.32.32.32,0,0,1-.33.29H33.89V8.59Z"/><path d="M37,16.45v1a.41.41,0,0,1-.1.21L35.52,19a.28.28,0,0,1-.18.09h-1l.06-.94c0-.33.05-.66.07-1a.68.68,0,0,0-.45-.53c-.23,0-.45,0-.7,0l0,.78c0,.23-.14.39-.31.39a.36.36,0,0,1-.3-.4c0-.43,0-.86,0-1.29,0,0,0-.05,0-.09h1.15V14.86h.23l1.17,0c.24,0,.41.12.41.3s-.17.31-.4.31h-.77c0,.26,0,.49,0,.72s.36.44.53.43l1.61-.11Z"/><path d="M2.11,15.59l.54.05c.17,0,.27.11.25.28a.24.24,0,0,1-.27.23l-1.06,0V8.5c.36,0,.73-.05,1.1,0,.08,0,.22.16.22.24A.34.34,0,0,1,2.67,9,3.2,3.2,0,0,1,2.11,9Z"/><path d="M36.32,9l-.54,0a.24.24,0,0,1-.25-.28.23.23,0,0,1,.27-.23l1.06.05v7.6c-.36,0-.73,0-1.1,0-.08,0-.22-.16-.22-.24a.34.34,0,0,1,.22-.25,3.2,3.2,0,0,1,.56-.06Z"/><path d="M28,14.45a6.37,6.37,0,0,0,0-1.9c.47,0,1,0,1.44,0a.83.83,0,0,1,.76.91.85.85,0,0,1-.71,1A14.83,14.83,0,0,1,28,14.45Zm.56-.33c.23,0,.43,0,.63,0a.49.49,0,0,0,.51-.47c.05-.4-.06-.66-.37-.72a4.9,4.9,0,0,0-.77-.06Z"/><path d="M15.32,14.47H14.7c0-.05,0-.13,0-.16-.36-.36-.72-.72-1.11-1.07a5.62,5.62,0,0,0,0,1.23h-.53a6,6,0,0,0,0-1.94h.64a1.06,1.06,0,0,0,.15.28c.31.32.63.62,1,.93a5.44,5.44,0,0,0,0-1.21h.55A5.49,5.49,0,0,0,15.32,14.47Z"/><path d="M19.54,12.53c0,.08,0,.16,0,.21a14,14,0,0,0,1,1,3.84,3.84,0,0,0,0-1.22h.56a5.74,5.74,0,0,0,0,1.94h-.6c0-.06,0-.15-.06-.19-.34-.35-.68-.68-1-1,0,0,0,0-.09,0a8.52,8.52,0,0,0,.05,1.24h-.54a5.26,5.26,0,0,0,0-1.94Z"/><path d="M12.69,12.92H11.33v.37h.89v.4h-.88v.4h1.4v.42h-2a5.43,5.43,0,0,0,0-2h1.95Z"/><path d="M21.48,12.53c.66,0,1.3,0,1.95,0v.44H22.07v.4a2.77,2.77,0,0,0,.9-.06v.43h-.9v.43a13.34,13.34,0,0,0,1.41,0v.41h-2A4.56,4.56,0,0,0,21.48,12.53Z"/><path d="M13.18,8.66h.6l0,.75h1.12l0-.75h.59a2,2,0,0,0-.08,1,2.18,2.18,0,0,0,.08,1h-.59l0-.8H13.74l0,.8h-.59A4.7,4.7,0,0,0,13.18,8.66Z"/><path d="M24.84,13.9a1.29,1.29,0,0,0,1.21.19c.05,0,.12-.1.11-.15a.21.21,0,0,0-.14-.15c-.26-.06-.54-.09-.81-.13s-.49-.15-.53-.41a.57.57,0,0,1,.41-.66,1.3,1.3,0,0,1,.95,0l.55.18-.2.39a1.09,1.09,0,0,0-1.1-.24c-.07,0-.13.11-.19.17s.13.14.2.15c.29.06.59.09.87.15s.49.24.46.59a.49.49,0,0,1-.32.43,2,2,0,0,1-1.37,0l-.13-.06-.15,0Z"/><path d="M18.53,10.6a4.85,4.85,0,0,0,0-2c.57,0,1.12,0,1.66.08a.47.47,0,0,1,.45.52.49.49,0,0,1-.45.53,3.77,3.77,0,0,1-.58,0h-.5l0,.79Zm.56-1.15c.28,0,.54,0,.8,0s.23,0,.23-.21A.19.19,0,0,0,19.91,9h-.82Z"/><path d="M21.44,9.8l0,.8h-.55a9.67,9.67,0,0,0,0-1.94c.45,0,.93,0,1.42,0a.56.56,0,0,1,.59.74.62.62,0,0,1-.62.39Zm0-.36h.81c.11,0,.21,0,.21-.19S22.42,9,22.29,9h-.82Z"/><path d="M31.33,12.52H32a1.8,1.8,0,0,0,.08.38c.23.46.47.9.71,1.35a2.39,2.39,0,0,0,.16.22h-.7a.33.33,0,0,0-.33-.48h-.51c-.11,0-.21,0-.25.14s0,.21-.06.36h-.55c.28-.57.57-1.12.84-1.68C31.38,12.74,31.34,12.63,31.33,12.52ZM32,13.71l-.33-.63-.3.63Z"/><path d="M6.72,12.53h.61a2.12,2.12,0,0,0,.08.38c.23.45.47.89.71,1.34,0,.07.09.13.15.22H7.56A.31.31,0,0,0,7.29,14H6.78a.31.31,0,0,0-.3.48h-.6c.28-.55.56-1.09.83-1.65C6.75,12.75,6.72,12.64,6.72,12.53Zm.61,1.18L7,13.07l-.29.64Z"/><path d="M18.2,10.61h-.72c.1-.29,0-.48-.32-.48h-.49a.3.3,0,0,0-.28.47h-.64a4.21,4.21,0,0,0,.83-1.94h.65A1.21,1.21,0,0,0,17.3,9c.24.47.49.93.74,1.4A2,2,0,0,0,18.2,10.61Zm-1.3-1.4-.29.62h.62Z"/><path d="M3.9,12.53c0,.09,0,.18,0,.25.14.35.31.69.48,1.09.19-.41.37-.77.53-1.14,0-.05,0-.13-.07-.2h.67c-.27.54-.54,1.08-.8,1.63a1.3,1.3,0,0,0,0,.31h-.6a1.46,1.46,0,0,0,0-.3c-.23-.48-.46-1-.7-1.44a1.15,1.15,0,0,0-.15-.2Z"/><path d="M17.64,12.44v.47l-.76,0c0,.55,0,1.07,0,1.6h-.52c0-.52,0-1,0-1.55h-.76v-.48A6.45,6.45,0,0,0,17.64,12.44Z"/><path d="M33.28,12.52h.77c-.16.36.22.47.29.76a5.28,5.28,0,0,0,.35-.52s0-.14,0-.23h.73l-.74,1a1.19,1.19,0,0,0,0,1h-.61c0-.38.16-.76-.13-1.11S33.49,12.81,33.28,12.52Z"/><path d="M10.45,14.5H8.61a4.62,4.62,0,0,0,0-2h.65a1.37,1.37,0,0,0-.07.34c0,.41,0,.82,0,1.22h1.27Z"/><path d="M23.3,8.67H24c-.13.34.23.45.33.7.09-.24.43-.36.29-.7h.72a9,9,0,0,0-.74,1,1.17,1.17,0,0,0,0,.92h-.57a1.25,1.25,0,0,0-.13-1.11C23.71,9.22,23.51,8.94,23.3,8.67Z"/><path d="M17.91,12.52h.66a5.8,5.8,0,0,0,0,2h-.63A5.31,5.31,0,0,0,17.91,12.52Z"/><path d="M24.32,12.1l-.15,1h-.23l-.14-1Z"/><path d="M33.51,18.72c0-.16,0-.31,0-.46a.3.3,0,0,1,.28-.29c.15,0,.26.16.25.34s0,.62-.06,1H4.81c0-.34,0-.68-.06-1A.24.24,0,0,1,5,18a.46.46,0,0,1,.27.24,2.54,2.54,0,0,1,.06.5Z"/><path d="M5.32,6.28c0,.16,0,.31-.05.45A.28.28,0,0,1,5,7c-.14,0-.25-.15-.24-.33s0-.62.06-1H34c0,.34,0,.67.06,1,0,.15-.1.28-.24.26a.4.4,0,0,1-.27-.24,1.83,1.83,0,0,1-.06-.49Z"/><path d="M5.34,8.17c0-.28,0-.53,0-.79S5.49,7,5.66,7A.34.34,0,0,1,6,7.38V8.77H4.75V10c-.23,0-.44,0-.65,0l-.8,0a.33.33,0,0,1-.36-.29.34.34,0,0,1,.35-.32H4.1a6.17,6.17,0,0,0,0-.75c0-.18-.38-.41-.56-.4l-1.6.11-.32,0c0-.35,0-.7,0-1,0,0,.06-.11.1-.15.46-.45.9-.9,1.36-1.33a.58.58,0,0,1,.3-.13c.3,0,.6,0,.92,0l-.06,1c0,.32-.05.64-.07,1a.67.67,0,0,0,.49.53Z"/><path d="M4.74,15v1.19h1.2v.64c0,.27,0,.53,0,.8a.31.31,0,1,1-.61,0c0-.28,0-.55,0-.84-.28,0-.52,0-.75,0s-.44.37-.43.56c0,.51.08,1,.11,1.54,0,.12,0,.24,0,.36h-1a.36.36,0,0,1-.17-.11c-.47-.45-.93-.91-1.39-1.37a.28.28,0,0,1-.09-.17c0-.33,0-.65,0-1l.35,0,1.62.11a.69.69,0,0,0,.54-.46c0-.12,0-.25,0-.38v-.31H3.25a.35.35,0,0,1-.31-.32A.32.32,0,0,1,3.27,15Z"/><path d="M32.88,8.78c0-.5,0-1,0-1.48A.29.29,0,0,1,33.18,7a.29.29,0,0,1,.3.3c0,.28,0,.56,0,.85.28,0,.52,0,.75,0a.7.7,0,0,0,.43-.56L34.55,6c0-.11,0-.22,0-.34h1a.32.32,0,0,1,.18.11l1.38,1.36a.32.32,0,0,1,.1.2c0,.31,0,.63,0,1l-1-.06-1-.07a.67.67,0,0,0-.54.47c0,.21,0,.43,0,.67h.85a.35.35,0,0,1,.32.32.33.33,0,0,1-.33.29H34.09V8.78Z"/><path d="M37.23,16.65c0,.34,0,.65,0,1a.31.31,0,0,1-.09.2l-1.41,1.4a.28.28,0,0,1-.19.09h-1l.06-.94c0-.33,0-.66.07-1a.7.7,0,0,0-.46-.54h-.69l0,.78c0,.23-.14.39-.31.38s-.3-.16-.3-.39l0-1.29a.58.58,0,0,1,0-.1h1.15V15.06l.23,0,1.17,0c.24,0,.41.12.41.3s-.17.3-.41.31h-.76c0,.26,0,.49,0,.72a.72.72,0,0,0,.54.43l1.61-.11Z"/><path d="M2.31,15.79l.54.05a.24.24,0,0,1,.25.28.24.24,0,0,1-.27.23l-1.06-.06V8.7c.36,0,.73,0,1.1,0,.08,0,.22.16.22.24s-.13.22-.22.25a3.2,3.2,0,0,1-.56.06Z"/><path d="M36.52,9.21,36,9.16c-.17,0-.27-.11-.26-.28A.24.24,0,0,1,36,8.65l1.06,0v7.59c-.36,0-.73.06-1.1.05-.08,0-.22-.16-.22-.24a.34.34,0,0,1,.22-.25,3.2,3.2,0,0,1,.56-.06Z"/><path d="M28.18,14.65a6.37,6.37,0,0,0,0-1.9c.47,0,1,0,1.44,0a.82.82,0,0,1,.76.9.86.86,0,0,1-.72,1A14.61,14.61,0,0,1,28.18,14.65Zm.56-.33h.63a.5.5,0,0,0,.51-.47c.05-.41-.07-.66-.38-.73a6.33,6.33,0,0,0-.76,0Z"/><path d="M15.52,14.67H14.9c0-.06,0-.13,0-.16-.36-.36-.72-.72-1.11-1.07a5.06,5.06,0,0,0,0,1.23h-.54a5.79,5.79,0,0,0,0-1.95h.64A1,1,0,0,0,14,13c.31.32.63.62,1,.92a4.82,4.82,0,0,0,0-1.2h.55A5.49,5.49,0,0,0,15.52,14.67Z"/><path d="M19.73,12.73c0,.08,0,.16.05.2a12.41,12.41,0,0,0,1,1,4.15,4.15,0,0,0,0-1.22h.55a6,6,0,0,0,0,1.94h-.6c0-.06,0-.15-.06-.2l-1-1-.08,0a8.52,8.52,0,0,0,.05,1.24h-.54a5.26,5.26,0,0,0,0-1.94Z"/><path d="M12.89,13.12H11.53v.37h.88v.4h-.88v.4h1.4v.41h-2a5.18,5.18,0,0,0,0-2h2Z"/><path d="M21.67,12.73c.66-.05,1.31,0,2-.05v.44H22.27v.4a3.08,3.08,0,0,0,.9-.06v.43h-.9v.43a13.34,13.34,0,0,0,1.41,0v.41h-2A4.55,4.55,0,0,0,21.67,12.73Z"/><path d="M13.38,8.86H14l0,.75h1.11l0-.75h.58a2.08,2.08,0,0,0-.07,1,2.19,2.19,0,0,0,.07,1H15l.05-.8H13.94l0,.8h-.58A5.07,5.07,0,0,0,13.38,8.86Z"/><path d="M25,14.1a1.36,1.36,0,0,0,1.21.19c.06,0,.13-.11.12-.15a.21.21,0,0,0-.14-.15c-.27-.06-.54-.09-.81-.13s-.49-.15-.53-.41a.57.57,0,0,1,.41-.66,1.3,1.3,0,0,1,.95,0l.55.18-.21.39a1.08,1.08,0,0,0-1.09-.24c-.07,0-.13.11-.19.17s.13.14.2.15l.87.15c.37.07.49.23.46.59a.47.47,0,0,1-.33.42,1.88,1.88,0,0,1-1.36,0L25,14.54l-.15,0Z"/><path d="M18.72,10.8a4.68,4.68,0,0,0,0-2c.57,0,1.12,0,1.66.08a.47.47,0,0,1,.45.52.49.49,0,0,1-.45.52,2.84,2.84,0,0,1-.58.05h-.5l0,.8Zm.57-1.15h.8c.12,0,.23-.05.23-.21a.2.2,0,0,0-.21-.22h-.82Z"/><path d="M21.64,10l.05.8h-.55a10.48,10.48,0,0,0,0-1.94c.45,0,.93,0,1.41,0s.71.34.59.74c-.06.23-.28.37-.61.39Zm0-.36h.81a.19.19,0,0,0,.21-.19c0-.14-.07-.22-.2-.22h-.82Z"/><path d="M31.53,12.72h.63a1.8,1.8,0,0,0,.08.38c.23.46.47.9.71,1.35a2.39,2.39,0,0,0,.16.22h-.7a.33.33,0,0,0-.33-.48h-.51c-.11,0-.22,0-.25.14a2.52,2.52,0,0,0-.06.35h-.55c.28-.56.57-1.12.84-1.68C31.58,12.93,31.54,12.83,31.53,12.72Zm.63,1.19-.33-.63-.3.63Z"/><path d="M6.92,12.73h.61a1.06,1.06,0,0,0,.08.37c.23.46.47.9.71,1.35a2.12,2.12,0,0,0,.15.21H7.76a.31.31,0,0,0-.28-.47H7a.31.31,0,0,0-.3.48h-.6c.28-.55.56-1.1.83-1.65C7,13,6.92,12.83,6.92,12.73Zm.61,1.18-.33-.64-.29.64Z"/><path d="M18.4,10.8h-.72a.32.32,0,0,0-.33-.47h-.48a.3.3,0,0,0-.28.47h-.65a4.36,4.36,0,0,0,.84-1.94h.65a1.21,1.21,0,0,0,.07.35c.24.47.49.93.74,1.4A1.15,1.15,0,0,0,18.4,10.8ZM17.1,9.4l-.29.63h.62Z"/><path d="M4.1,12.73c0,.09,0,.18,0,.25.14.35.3.69.48,1.09.19-.41.37-.77.52-1.14,0,0,0-.13-.07-.21h.68c-.27.55-.54,1.09-.8,1.64a.93.93,0,0,0,0,.31H4.24a1,1,0,0,0,0-.3l-.7-1.44a2.08,2.08,0,0,0-.15-.2Z"/><path d="M17.83,12.64v.47l-.75,0c0,.55,0,1.07,0,1.6h-.52c0-.52,0-1,0-1.55h-.75v-.48A6.39,6.39,0,0,0,17.83,12.64Z"/><path d="M33.48,12.72h.77c-.16.36.22.47.29.76a3.79,3.79,0,0,0,.34-.52c0-.05,0-.14,0-.23h.72c-.23.32-.48.64-.73,1a1.19,1.19,0,0,0,0,1h-.61c0-.38.16-.76-.13-1.11S33.69,13,33.48,12.72Z"/><path d="M10.65,14.69H8.81a4.58,4.58,0,0,0,0-1.95h.64a2,2,0,0,0-.06.34c0,.41,0,.82,0,1.22h1.27Z"/><path d="M23.5,8.87h.74c-.13.33.23.45.33.7.09-.24.43-.37.29-.7h.72a8.18,8.18,0,0,0-.74,1,1.17,1.17,0,0,0,0,.92h-.57a1.25,1.25,0,0,0-.13-1.11C23.91,9.42,23.71,9.14,23.5,8.87Z"/><path d="M18.11,12.72h.66a5.8,5.8,0,0,0,0,1.95h-.63A5.31,5.31,0,0,0,18.11,12.72Z"/><path d="M24.52,12.3l-.15.95h-.23L24,12.3Z"/></g><g class="cls-3"><path d="M33.17,18.38c0-.16,0-.31,0-.46a.3.3,0,0,1,.28-.29c.15,0,.26.16.25.34s0,.62-.06,1H4.47c0-.34,0-.68-.06-1a.24.24,0,0,1,.24-.27.46.46,0,0,1,.27.24,2.54,2.54,0,0,1,.06.5Z"/><path d="M5,5.94c0,.16,0,.31-.05.45a.28.28,0,0,1-.28.29c-.14,0-.25-.15-.24-.33s0-.62.06-.95H33.68c0,.34,0,.67.06,1,0,.15-.1.28-.24.26a.4.4,0,0,1-.27-.24,1.88,1.88,0,0,1-.06-.49Z"/><path d="M5,7.83C5,7.55,5,7.3,5,7a.34.34,0,0,1,.32-.38A.34.34,0,0,1,5.61,7V8.43H4.41V9.62H3a.32.32,0,0,1-.36-.28A.34.34,0,0,1,3,9h.81a6.17,6.17,0,0,0,0-.75c0-.18-.38-.41-.56-.4L1.59,8,1.27,8c0-.35,0-.7,0-1,0,0,.06-.11.1-.15.45-.45.9-.9,1.36-1.33A.48.48,0,0,1,3,5.36c.3,0,.6,0,.92,0l-.06,1c0,.32-.05.64-.07,1a.67.67,0,0,0,.48.53Z"/><path d="M4.4,14.68v1.19H5.6v.64c0,.27,0,.53,0,.8a.31.31,0,1,1-.61,0c0-.28,0-.55,0-.84-.28,0-.52,0-.75,0s-.44.37-.43.56c0,.51.08,1,.11,1.54,0,.12,0,.23,0,.36h-1a.28.28,0,0,1-.17-.1c-.47-.45-.93-.91-1.39-1.37a.28.28,0,0,1-.09-.17c0-.33,0-.65,0-1l.35,0,1.62.11A.69.69,0,0,0,3.77,16c0-.12,0-.25,0-.38v-.31H2.91A.35.35,0,0,1,2.6,15a.32.32,0,0,1,.33-.29Z"/><path d="M32.54,8.44c0-.5,0-1,0-1.48a.29.29,0,0,1,.29-.29.29.29,0,0,1,.3.3c0,.28,0,.56,0,.85.29,0,.53,0,.76,0a.67.67,0,0,0,.42-.56c0-.52-.07-1-.11-1.56,0-.11,0-.22,0-.34.35,0,.69,0,1,0a.36.36,0,0,1,.18.1l1.38,1.37a.32.32,0,0,1,.1.2c0,.31,0,.63,0,1l-1-.06-1-.07a.67.67,0,0,0-.54.47c0,.21,0,.42,0,.67h.85a.35.35,0,0,1,.32.32.33.33,0,0,1-.33.29H33.75V8.44Z"/><path d="M36.89,16.31c0,.34,0,.65,0,1a.31.31,0,0,1-.09.2l-1.41,1.4a.28.28,0,0,1-.19.09h-1l.06-.94c0-.33.05-.66.07-1a.7.7,0,0,0-.46-.54h-.69l0,.78c0,.23-.14.39-.31.38s-.3-.16-.3-.39l0-1.29a.58.58,0,0,1,0-.1h1.15V14.72l.23,0,1.17,0c.24,0,.41.12.41.3s-.17.3-.41.31h-.76c0,.26,0,.49,0,.72a.72.72,0,0,0,.54.43l1.61-.11Z"/><path d="M2,15.45l.54.05a.24.24,0,0,1,.25.28.24.24,0,0,1-.27.23L1.43,16V8.36c.36,0,.73,0,1.1,0,.08,0,.22.16.22.24s-.13.22-.22.25A3.2,3.2,0,0,1,2,8.87Z"/><path d="M36.18,8.87l-.54,0c-.17,0-.27-.11-.26-.28a.24.24,0,0,1,.28-.23l1.06,0V16c-.36,0-.73.06-1.1.05-.08,0-.22-.16-.22-.24a.34.34,0,0,1,.22-.25,3.2,3.2,0,0,1,.56-.06Z"/><path d="M27.84,14.31a6.37,6.37,0,0,0,0-1.9c.47,0,1,0,1.44,0a.82.82,0,0,1,.76.9c0,.53-.24.92-.72,1A12.18,12.18,0,0,1,27.84,14.31ZM28.4,14H29a.5.5,0,0,0,.51-.47c.05-.41-.07-.66-.38-.73a6.33,6.33,0,0,0-.76,0Z"/><path d="M15.18,14.33h-.62c0-.06,0-.13,0-.16-.36-.36-.72-.72-1.11-1.07a5.07,5.07,0,0,0,0,1.23h-.54a5.79,5.79,0,0,0,0-1.95h.64a1,1,0,0,0,.15.29c.31.32.63.62,1,.92a4.82,4.82,0,0,0,0-1.2h.55A5.49,5.49,0,0,0,15.18,14.33Z"/><path d="M19.39,12.39c0,.08,0,.16.05.2a12.41,12.41,0,0,0,1,1,4.15,4.15,0,0,0,0-1.22H21a6,6,0,0,0,0,1.94h-.6c0-.06,0-.15-.06-.2l-1-1-.08,0a8.52,8.52,0,0,0,.05,1.24h-.54a5.26,5.26,0,0,0,0-1.94Z"/><path d="M12.55,12.78H11.19v.37h.88v.4h-.88V14h1.4v.41h-2a5.18,5.18,0,0,0,0-2h2Z"/><path d="M21.33,12.38c.66,0,1.31,0,2,0v.44H21.93v.4a3.08,3.08,0,0,0,.9-.06v.43h-.9V14a13.12,13.12,0,0,0,1.4,0v.41h-2A4.6,4.6,0,0,0,21.33,12.38Z"/><path d="M13,8.52h.6l0,.75h1.11l0-.75h.58a2.08,2.08,0,0,0-.07,1,2.19,2.19,0,0,0,.07,1h-.58l.05-.8H13.6l0,.8h-.58A5.07,5.07,0,0,0,13,8.52Z"/><path d="M24.69,13.76A1.36,1.36,0,0,0,25.9,14c.06,0,.13-.11.12-.15a.21.21,0,0,0-.14-.15c-.27-.06-.54-.09-.81-.13s-.49-.15-.53-.41a.57.57,0,0,1,.41-.66,1.3,1.3,0,0,1,.95,0l.55.18-.21.39a1.08,1.08,0,0,0-1.09-.24c-.07,0-.13.11-.19.17s.13.14.2.15l.87.15c.37.07.49.23.46.59a.47.47,0,0,1-.33.42,1.88,1.88,0,0,1-1.36,0,.59.59,0,0,0-.14-.06l-.14,0Z"/><path d="M18.38,10.46a4.68,4.68,0,0,0,0-2c.57,0,1.12,0,1.66.08a.47.47,0,0,1,.45.52.49.49,0,0,1-.45.52,2.84,2.84,0,0,1-.58.05h-.51l0,.8ZM19,9.31c.28,0,.54,0,.8,0s.23,0,.23-.2a.2.2,0,0,0-.21-.22c-.27,0-.54,0-.82,0Z"/><path d="M21.3,9.66l.05.8H20.8a10.48,10.48,0,0,0,0-1.94c.45,0,.93,0,1.41,0s.71.34.59.74c-.06.23-.28.37-.61.39Zm0-.36h.81a.19.19,0,0,0,.21-.19c0-.14-.07-.22-.2-.22h-.82Z"/><path d="M31.19,12.38h.63a1.34,1.34,0,0,0,.08.38c.23.46.47.9.71,1.35a2.39,2.39,0,0,0,.16.22h-.7a.33.33,0,0,0-.33-.48h-.51c-.11,0-.22,0-.25.14a2.52,2.52,0,0,0-.06.35h-.55c.28-.56.57-1.12.84-1.68C31.24,12.59,31.2,12.49,31.19,12.38Zm.63,1.19-.33-.64-.3.64Z"/><path d="M6.58,12.39h.61a1.06,1.06,0,0,0,.08.37c.22.46.47.9.71,1.35a2.12,2.12,0,0,0,.15.21H7.42a.31.31,0,0,0-.28-.47h-.5a.31.31,0,0,0-.3.48h-.6c.28-.55.56-1.1.83-1.65C6.61,12.61,6.58,12.49,6.58,12.39Zm.61,1.18-.33-.64-.29.64Z"/><path d="M18.06,10.46h-.72A.32.32,0,0,0,17,10h-.48a.3.3,0,0,0-.28.47H15.6a4.36,4.36,0,0,0,.84-1.94h.65a1.21,1.21,0,0,0,.07.35c.24.47.49.93.74,1.4A1.15,1.15,0,0,0,18.06,10.46Zm-1.3-1.4-.29.63h.62Z"/><path d="M3.76,12.39c0,.09,0,.18,0,.25.14.35.3.69.48,1.09.19-.41.37-.77.52-1.14,0-.05,0-.13-.07-.21h.68c-.27.55-.54,1.09-.8,1.64a.93.93,0,0,0,0,.31H3.9a1,1,0,0,0,0-.3l-.7-1.44a2.08,2.08,0,0,0-.15-.2Z"/><path d="M17.49,12.3v.47l-.75,0c0,.55,0,1.07,0,1.6h-.52c0-.52,0-1,0-1.55h-.75V12.3A6.39,6.39,0,0,0,17.49,12.3Z"/><path d="M33.14,12.38h.77c-.16.36.22.47.29.76a3.79,3.79,0,0,0,.34-.52s0-.14,0-.23h.72c-.23.32-.48.64-.73,1a1.19,1.19,0,0,0,0,1h-.61c0-.38.16-.76-.13-1.11S33.35,12.67,33.14,12.38Z"/><path d="M10.31,14.35H8.47a4.58,4.58,0,0,0,0-1.95H9.1a2,2,0,0,0-.06.34c0,.41,0,.82,0,1.22h1.27Z"/><path d="M23.16,8.53h.74c-.13.33.23.45.33.7.09-.24.43-.37.29-.7h.72a8.18,8.18,0,0,0-.74,1,1.17,1.17,0,0,0,0,.92h-.57a1.25,1.25,0,0,0-.13-1.11C23.57,9.08,23.37,8.8,23.16,8.53Z"/><path d="M17.77,12.38h.66a5.8,5.8,0,0,0,0,1.95H17.8A5.31,5.31,0,0,0,17.77,12.38Z"/><path d="M24.18,12l-.15.95H23.8L23.66,12Z"/></g><path class="cls-4" d="M33.37,18.58c0-.16,0-.31,0-.46a.3.3,0,0,1,.28-.29c.15,0,.26.15.25.34l-.06.94H4.66c0-.33,0-.67,0-1a.24.24,0,0,1,.24-.27.46.46,0,0,1,.27.24,2.54,2.54,0,0,1,.06.5Z"/><path class="cls-4" d="M5.18,6.14c0,.16,0,.31,0,.45a.28.28,0,0,1-.28.29c-.14,0-.25-.15-.24-.34s0-.61,0-.94H33.88c0,.34,0,.67.06,1,0,.15-.1.28-.24.26a.4.4,0,0,1-.27-.24,1.88,1.88,0,0,1-.06-.49Z"/><path class="cls-4" d="M5.2,8c0-.28,0-.54,0-.8a.34.34,0,0,1,.32-.37.34.34,0,0,1,.28.38c0,.46,0,.92,0,1.39H4.61V9.81H3.16a.33.33,0,0,1-.37-.28.35.35,0,0,1,.36-.32H4a6.34,6.34,0,0,0,0-.76c0-.17-.38-.4-.56-.39l-1.6.11-.33,0c0-.36,0-.7,0-1,0,0,.06-.11.1-.15.45-.45.9-.9,1.36-1.34a.47.47,0,0,1,.29-.12c.3,0,.61,0,.93,0l-.06,1c0,.33,0,.65-.07,1A.64.64,0,0,0,4.5,8Z"/><path class="cls-4" d="M4.6,14.88v1.18H5.8c0,.23,0,.44,0,.65s0,.53,0,.8a.32.32,0,0,1-.3.34.33.33,0,0,1-.3-.32c0-.28,0-.55,0-.84a6.3,6.3,0,0,0-.76,0c-.18,0-.43.37-.42.56,0,.51.07,1,.11,1.54,0,.12,0,.23,0,.36h-1c-.06,0-.12-.06-.17-.1-.47-.45-.93-.91-1.39-1.37a.29.29,0,0,1-.1-.18c0-.32,0-.64,0-1l.35,0,1.62.11A.69.69,0,0,0,4,16.18c0-.13,0-.25,0-.38v-.31H3.11a.35.35,0,0,1-.32-.31.34.34,0,0,1,.34-.29Z"/><path class="cls-4" d="M32.74,8.64V7.16a.32.32,0,0,1,.3-.3.31.31,0,0,1,.3.31c0,.28,0,.56,0,.85.29,0,.52,0,.76,0a.67.67,0,0,0,.42-.56c0-.52-.07-1-.11-1.56,0-.11,0-.23,0-.34h1a.3.3,0,0,1,.17.1L37,7a.32.32,0,0,1,.1.2c0,.31,0,.63,0,1l-.95-.07-1-.06a.67.67,0,0,0-.54.47c0,.21,0,.42,0,.67h.86a.35.35,0,0,1,.32.31.32.32,0,0,1-.34.29H34V8.64Z"/><path class="cls-4" d="M37.09,16.51c0,.34,0,.65,0,1a.31.31,0,0,1-.09.2c-.47.47-.94.94-1.42,1.4a.34.34,0,0,1-.18.09h-1c0-.31,0-.63.07-.94l.06-1a.68.68,0,0,0-.45-.54c-.22,0-.45,0-.69,0l0,.78c0,.23-.14.38-.31.38s-.3-.16-.3-.39l0-1.29a.58.58,0,0,1,0-.1h1.15V14.92l.23,0,1.17,0c.24,0,.41.12.41.3s-.17.3-.41.31h-.76c0,.26,0,.49,0,.72a.72.72,0,0,0,.54.43l1.61-.11Z"/><path class="cls-4" d="M2.17,15.65l.54,0A.24.24,0,0,1,3,16a.24.24,0,0,1-.27.24l-1.07-.06V8.56c.37,0,.74-.05,1.11-.05A.35.35,0,0,1,3,8.76c0,.09-.13.22-.22.25a2.48,2.48,0,0,1-.56.05Z"/><path class="cls-4" d="M36.38,9.06l-.54,0a.26.26,0,0,1-.26-.28.25.25,0,0,1,.28-.24l1.06.06v7.59c-.37,0-.74.06-1.11.05-.08,0-.21-.16-.21-.25a.35.35,0,0,1,.22-.24,3.2,3.2,0,0,1,.56-.06Z"/><path class="cls-4" d="M28,14.51a6.05,6.05,0,0,0,0-1.9c.48,0,1,0,1.45,0a.83.83,0,0,1,.76.9c0,.53-.24.92-.72,1A12.18,12.18,0,0,1,28,14.51Zm.56-.33h.63a.51.51,0,0,0,.51-.47c0-.41-.07-.66-.38-.73a6.47,6.47,0,0,0-.76-.05Z"/><path class="cls-4" d="M15.38,14.53h-.62c0-.06,0-.13,0-.16-.36-.37-.72-.72-1.11-1.07a5.07,5.07,0,0,0,0,1.23h-.54a5.79,5.79,0,0,0,0-1.95h.63a1.3,1.3,0,0,0,.16.29c.3.31.62.62,1,.92a4.82,4.82,0,0,0,0-1.2h.54A5.26,5.26,0,0,0,15.38,14.53Z"/><path class="cls-4" d="M19.59,12.59c0,.08,0,.16.05.2a12.27,12.27,0,0,0,1,1,3.84,3.84,0,0,0,0-1.22h.55a6,6,0,0,0,0,1.94h-.6a.59.59,0,0,0-.06-.2l-1-1-.08,0a7.31,7.31,0,0,0,0,1.24H19a5.26,5.26,0,0,0,0-1.94Z"/><path class="cls-4" d="M12.74,13H11.39v.37h.88v.41h-.88v.4h1.4v.41h-2a5.23,5.23,0,0,0,0-2h2Z"/><path class="cls-4" d="M21.53,12.58c.66,0,1.31,0,2-.05V13H22.13v.39a2.69,2.69,0,0,0,.89,0v.43h-.89v.43c.46,0,.92,0,1.4,0v.41h-2A4.76,4.76,0,0,0,21.53,12.58Z"/><path class="cls-4" d="M13.24,8.72h.6l-.05.75h1.12l0-.75h.58a2.08,2.08,0,0,0-.07,1,2.14,2.14,0,0,0,.07,1h-.58l0-.79H13.8l0,.8h-.58A5.06,5.06,0,0,0,13.24,8.72Z"/><path class="cls-4" d="M24.89,14a1.33,1.33,0,0,0,1.21.2c.06,0,.13-.11.12-.15a.21.21,0,0,0-.14-.15c-.27-.06-.54-.09-.81-.14s-.49-.15-.53-.4a.57.57,0,0,1,.41-.66,1.3,1.3,0,0,1,1,0l.55.17-.21.39A1.07,1.07,0,0,0,25.35,13c-.08,0-.13.11-.19.17s.12.13.2.15l.87.15c.37.07.49.23.46.59a.48.48,0,0,1-.33.42,1.88,1.88,0,0,1-1.36,0l-.14,0-.14,0Z"/><path class="cls-4" d="M18.58,10.66a4.68,4.68,0,0,0,0-2c.57,0,1.12,0,1.65.07a.47.47,0,0,1,.45.53.48.48,0,0,1-.44.52,3.81,3.81,0,0,1-.59,0h-.5l0,.8Zm.57-1.15h.79c.13,0,.24,0,.24-.21A.2.2,0,0,0,20,9.08h-.82Z"/><path class="cls-4" d="M21.5,9.86l.05.8H21a10.48,10.48,0,0,0,0-1.94c.44,0,.93,0,1.41,0s.71.34.59.75a.6.6,0,0,1-.62.38C22.1,9.87,21.82,9.86,21.5,9.86Zm0-.36h.82c.11,0,.2-.05.21-.19a.2.2,0,0,0-.2-.22h-.83Z"/><path class="cls-4" d="M31.39,12.58H32a1.42,1.42,0,0,0,.08.38c.22.45.47.9.71,1.34a1.6,1.6,0,0,0,.16.23h-.7a.33.33,0,0,0-.33-.48h-.51c-.12,0-.22,0-.25.13a3,3,0,0,0-.06.36h-.56c.29-.56.57-1.12.85-1.68C31.44,12.79,31.4,12.69,31.39,12.58ZM32,13.77l-.33-.64-.3.64Z"/><path class="cls-4" d="M6.77,12.58h.62a1.12,1.12,0,0,0,.08.38c.22.45.47.9.71,1.35a1.19,1.19,0,0,0,.15.21H7.62a.31.31,0,0,0-.28-.47h-.5a.31.31,0,0,0-.3.48h-.6c.28-.55.56-1.1.83-1.65C6.81,12.8,6.77,12.69,6.77,12.58Zm.62,1.18-.34-.63-.29.63Z"/><path class="cls-4" d="M18.26,10.66h-.72a.33.33,0,0,0-.33-.48h-.48a.3.3,0,0,0-.28.48H15.8a4.36,4.36,0,0,0,.84-1.94h.65a1.14,1.14,0,0,0,.07.34c.24.48.49.94.74,1.41A1.15,1.15,0,0,0,18.26,10.66ZM17,9.26l-.29.63h.62Z"/><path class="cls-4" d="M4,12.59c0,.09,0,.18,0,.24.14.35.3.7.48,1.09.19-.4.36-.76.52-1.13,0,0,0-.13-.07-.21h.67c-.26.54-.53,1.09-.79,1.64a.93.93,0,0,0,0,.31H4.1a.72.72,0,0,0,0-.3c-.22-.48-.46-1-.69-1.44a2.08,2.08,0,0,0-.15-.2Z"/><path class="cls-4" d="M17.69,12.5V13l-.76,0c0,.55,0,1.07,0,1.6h-.52c0-.52,0-1,0-1.55h-.75V12.5A6.7,6.7,0,0,0,17.69,12.5Z"/><path class="cls-4" d="M33.34,12.58h.76c-.15.36.23.47.3.76a5,5,0,0,0,.34-.52c0-.05,0-.14,0-.23h.72l-.73,1a1.17,1.17,0,0,0,0,.95h-.61c0-.37.16-.75-.14-1.1S33.55,12.86,33.34,12.58Z"/><path class="cls-4" d="M10.51,14.55H8.67a4.58,4.58,0,0,0,0-1.95H9.3a1.86,1.86,0,0,0-.06.34c0,.41,0,.82,0,1.22h1.28Z"/><path class="cls-4" d="M23.36,8.72h.74c-.13.34.23.46.32.71.1-.24.43-.37.3-.71h.72a9.56,9.56,0,0,0-.75,1,1.22,1.22,0,0,0,0,.92h-.58A1.22,1.22,0,0,0,24,9.55C23.76,9.28,23.57,9,23.36,8.72Z"/><path class="cls-4" d="M18,12.58h.65a5.55,5.55,0,0,0,0,1.95H18A5.54,5.54,0,0,0,18,12.58Z"/><path class="cls-4" d="M24.38,12.16l-.15.94H24l-.15-.94Z"/></g></g></svg>