<svg xmlns="http://www.w3.org/2000/svg" viewBox="0 0 38.55 24.66"><defs><style>.cls-1{isolation:isolate;}.cls-2{opacity:0.15;}.cls-2,.cls-3{mix-blend-mode:multiply;}.cls-4{fill:#fff;}</style></defs><title>convert-FIX-SVG-03</title><g class="cls-1"><g id="Layer_1" data-name="Layer 1"><g class="cls-2"><path d="M23.49,16.23c-.19-.12-.35-.24-.53-.34a.71.71,0,0,0-.26-.07c-.27-.07-.55-.13-.82-.22a.28.28,0,0,0-.3.06c-.48.38-1,.75-1.46,1.12a.62.62,0,0,1-.78,0c-.34-.25-.7-.48-1-.75s-.62-.54-.95-.83a3.45,3.45,0,0,1-1.71.66.19.19,0,0,0-.1,0l-.53.35a.59.59,0,0,0,.05.12c.09.23.2.45.28.68a1.76,1.76,0,0,0,.57.92A1,1,0,0,1,16,19.38s0,0,0,0a7.39,7.39,0,0,0-1.1,1.51,2.7,2.7,0,0,0-.55,1s-.1.11-.13.1c-.23-.09-.45,0-.68,0l-.05,0a5.43,5.43,0,0,0,1.58-1.84,8.05,8.05,0,0,1-2.37.35,2.18,2.18,0,0,1,.42,1.5h-.23c0-.26-.05-.52-.11-.76a1,1,0,0,0-.91-.81,11.64,11.64,0,0,1-1.31-.25,1.54,1.54,0,0,0-1.66.57,2.51,2.51,0,0,0-.4,1c0,.07,0,.15,0,.21a.29.29,0,0,1-.39-.16,10.41,10.41,0,0,1-1.23-3.71,14.25,14.25,0,0,1-.1-3.06.2.2,0,0,0-.11-.18,3.56,3.56,0,0,1-2.12-3.74c0-.51.2-1,.3-1.53,0-.19,0-.39.07-.58A1.43,1.43,0,0,1,6,7.89L7,7.55l.32-.11c.21,0,.38-.08.43-.37s.49-.54.94-.55a.78.78,0,0,1,.78.54.31.31,0,0,0,.27.23,3.76,3.76,0,0,1,2.05,1.1A.44.44,0,0,0,12,8.5a2.44,2.44,0,0,1,1.44.64,1.83,1.83,0,0,1,.6,1.16A2.73,2.73,0,0,1,13,12.71l-.11.1a16.9,16.9,0,0,0,3.25.2,2,2,0,0,1,1.18-2.24,2.26,2.26,0,0,1,2.39.4,2.28,2.28,0,0,1,2.44-.38A2,2,0,0,1,23.3,13a8.93,8.93,0,0,0,2.3-.17l-.3-.26a2.85,2.85,0,0,1-.88-2A2,2,0,0,1,25.8,8.67a1.22,1.22,0,0,1,.4-.12A1.06,1.06,0,0,0,27,8.17a3.55,3.55,0,0,1,1.82-.89.28.28,0,0,0,.25-.2.77.77,0,0,1,.72-.56,1.08,1.08,0,0,1,1,.43.27.27,0,0,1,.05.11c0,.32.22.33.43.39.49.15,1,.29,1.45.47a1.46,1.46,0,0,1,1,1.36,2.9,2.9,0,0,0,.11.6,4.81,4.81,0,0,1,0,3,3.2,3.2,0,0,1-1.82,2,.28.28,0,0,0-.2.36,12.34,12.34,0,0,1-.62,5.05c-.19.55-.48,1.06-.72,1.6A.26.26,0,0,1,30,22a5.35,5.35,0,0,0-.17-.69,1.64,1.64,0,0,0-1.3-1.18,1.49,1.49,0,0,0-.47,0c-.49.09-1,.22-1.47.29a1,1,0,0,0-.9.77c-.06.25-.08.51-.13.79l-.21,0a2,2,0,0,1,.42-1.51,8.53,8.53,0,0,1-2.38-.36A5.57,5.57,0,0,0,25,22h-.83c-.07-.6-.57-1-.85-1.5a4,4,0,0,0-.73-1,1.06,1.06,0,0,1,.18-1.7.89.89,0,0,0,.3-.44C23.19,17,23.35,16.59,23.49,16.23ZM5,10.12a4.78,4.78,0,0,0-.15,2A3.17,3.17,0,0,0,8.7,14.82a7.35,7.35,0,0,0,2.89-1.37c.26-.19.5-.4.68-.55,0-.06,0-.11-.06-.15-.16-.29-.33-.57-.5-.85s-.2-.24-.27-.38a2.53,2.53,0,0,1-.21-1.75,11.46,11.46,0,0,1,.39-1.17A4.09,4.09,0,0,0,7,7.87c.15.07.31.14.45.22a.7.7,0,0,1,.32.65.38.38,0,0,1-.38.31c0,.39-.11.75-.15,1.12a.42.42,0,0,0,0,.25,1.09,1.09,0,0,1,.08.9.58.58,0,0,1-1,.38A3,3,0,0,1,5,10.12Zm28.57.05,0,0a.54.54,0,0,1,0,.11,3,3,0,0,1-1.41,1.46.5.5,0,0,1-.68-.14,1.2,1.2,0,0,1-.13-1.09,1.3,1.3,0,0,0,.07-.48c0-.34-.09-.67-.14-1-.37-.09-.49-.3-.31-.63A1.33,1.33,0,0,1,31.22,8a2.81,2.81,0,0,1,.38-.17A6,6,0,0,0,30,7.49,3.7,3.7,0,0,0,27,8.5a.2.2,0,0,0,0,.3,3,3,0,0,1,.39,1.87,2.26,2.26,0,0,1-.47,1.18,7.09,7.09,0,0,0-.55.87l-.1.14c.12.11.25.23.38.33a7.25,7.25,0,0,0,3.48,1.67,3.16,3.16,0,0,0,3.32-1.75A4.19,4.19,0,0,0,33.55,10.17ZM25.8,20.32v-.06h.33l.34,0a6.49,6.49,0,0,0,3.67-1.46A2.62,2.62,0,0,0,31.21,17c.09-.94-.13-1.49-.93-1.8a2.2,2.2,0,0,0-1.19-.11,4.89,4.89,0,0,0-2.1,1,3.07,3.07,0,0,1-.66.42c-.47.2-.95.36-1.44.52a4.76,4.76,0,0,0-1.86,1,1.1,1.1,0,0,0,.15,1.66,1.61,1.61,0,0,0,.6.3C24.45,20.14,25.12,20.22,25.8,20.32Zm-13-.05c.33,0,.78-.05,1.23-.1a2.62,2.62,0,0,0,1.32-.46,1.1,1.1,0,0,0,.13-1.65,3.26,3.26,0,0,0-.4-.34,5.5,5.5,0,0,0-1.9-.8,4.45,4.45,0,0,1-1.62-.79,5.22,5.22,0,0,0-1.6-.88,2.26,2.26,0,0,0-2.28.32.63.63,0,0,0-.19.24,2.19,2.19,0,0,0-.12,1.53A3.21,3.21,0,0,0,8.7,19,7,7,0,0,0,12.8,20.27ZM19.74,12c-.65-.7-.81-.79-1.47-.87a1.46,1.46,0,0,0-1.58,1.34,2.64,2.64,0,0,0,.48,1.59,8.24,8.24,0,0,0,2.47,2.27.26.26,0,0,0,.21,0,10,10,0,0,0,1.86-1.52,3.83,3.83,0,0,0,1-1.77,1.5,1.5,0,0,0-1-1.85,1.71,1.71,0,0,0-1.7.5A4.15,4.15,0,0,0,19.74,12Zm-6.16-.42L13,11.21l.21-.29.31.18a.66.66,0,0,0-.07-.76,1.1,1.1,0,0,1-.3-.31c-.11-.23-.18-.49.15-.65a2.13,2.13,0,0,0-1.26-.6.23.23,0,0,0-.27.14,2.7,2.7,0,0,0-.35,1.73,2,2,0,0,0,.29.85,5.39,5.39,0,0,1,.75,1.25A2.55,2.55,0,0,0,13.58,11.58Zm11.6-2.2c.25.14.25.32.19.56s-.22.3-.37.42a.63.63,0,0,0,0,.73l.3-.17.2.3-.44.29s-.07.12-.05.15a2.49,2.49,0,0,0,1,1.09,3.5,3.5,0,0,1,.74-1.22.42.42,0,0,0,.09-.14,2.63,2.63,0,0,0-.18-2.51.25.25,0,0,0-.18-.1A2,2,0,0,0,25.18,9.38ZM12.42,14.93h0l-.27-.34L11.81,16a4.22,4.22,0,0,0,1.28.62,7.4,7.4,0,0,1,2,.77l.12,0c0-.1,0-.17-.08-.24a6.39,6.39,0,0,0-2.22-3.07c-.26-.2-.42-.19-.72.06Zm13.71,0h0c.07-.21.14-.41.2-.62a.27.27,0,0,0,0-.18.46.46,0,0,0-.64,0c-.27.22-.53.44-.78.68a6.22,6.22,0,0,0-1.51,2.56.2.2,0,0,0,0,.09l.11-.05a7.6,7.6,0,0,1,1.75-.72,6.92,6.92,0,0,0,1.14-.45c.39-.19.38-.21.27-.62s-.14-.66-.22-1ZM12.78,13.06a2.06,2.06,0,0,0,.22.59,4.42,4.42,0,0,0,.62.74,6,6,0,0,1,1.11,1.35c.14.23.16.23.36.13a2.42,2.42,0,0,1,0-.62,1.45,1.45,0,0,1,.26-.47,2.46,2.46,0,0,1,1.07-.87l-.24-.63A18.82,18.82,0,0,1,12.78,13.06ZM5.15,9.59a2.41,2.41,0,0,0,1.47,2,.25.25,0,0,0,.32-.07.83.83,0,0,0-.06-1,1.78,1.78,0,0,1-.55-1.24.5.5,0,0,1,.51-.53,2.48,2.48,0,0,1,.38,0h.23a2,2,0,0,0-.06-.26.32.32,0,0,0-.12-.14A1.46,1.46,0,0,0,5.8,8.23,1.32,1.32,0,0,0,5.15,9.59Zm25.93-.84.49-.06a.55.55,0,0,1,.61.71,2,2,0,0,1-.51,1,.83.83,0,0,0-.14,1,.27.27,0,0,0,.41.12,2.72,2.72,0,0,0,1.26-1.29,1.79,1.79,0,0,0,.08-1.36,1.35,1.35,0,0,0-2.05-.55A.36.36,0,0,0,31.08,8.75Zm-5.33,4.32c-.26,0-.52.1-.79.12l-1.55.07a.32.32,0,0,0-.19.1c-.16.33-.29.67-.44,1,.33.43.84.8.6,1.48.17.1.28.08.41-.1a7.36,7.36,0,0,1,.84-1.09A4.34,4.34,0,0,0,25.75,13.07Zm-16,6.85a4.52,4.52,0,0,1-2.65-2.63A10.46,10.46,0,0,0,8.27,21.6,2.22,2.22,0,0,1,9.7,19.92Zm21.77-2.67a3.33,3.33,0,0,1-1,1.62,6.18,6.18,0,0,1-1.67,1.06,2.14,2.14,0,0,1,1.47,1.69A10.52,10.52,0,0,0,31.47,17.25Zm-4.66-3.31c-.22.19-.24.3-.12.59s.38.4.6.57a.77.77,0,0,0,1,0c.09-.05.17-.14,0-.22C27.8,14.54,27.32,14.25,26.81,13.94Zm-15.1,0-1.46.91a.24.24,0,0,0-.05.16c.21.1.45.29.63.25a2,2,0,0,0,.84-.49C12,14.43,12,14.19,11.71,13.93ZM8,7.27,9.23,7.2a.54.54,0,0,0-.67-.41C8.21,6.84,8,7,8,7.27ZM29.28,7.2l1.26.07a.63.63,0,0,0-.64-.48A.52.52,0,0,0,29.28,7.2Zm1.43,8a1.48,1.48,0,0,1,.78,1.26V15ZM7,16.45a1.53,1.53,0,0,1,.76-1.29L7,15.05Zm4.06-1,.49.32.17-.72Zm15.67-.4.18.72.48-.32ZM12.17,13.52l-.29.19.18.2.19-.1Zm14.1.29.2.09.16-.2-.29-.18ZM12.5,13.24l-.08,0,0,.31.22-.1Zm13.32.25.24.08,0-.31-.08,0Z"/><path d="M2.91,2.87c0-.12-.05-.2-.06-.28a.68.68,0,0,1,.37-.74A.8.8,0,0,1,4.14,2a1.71,1.71,0,0,1,.44,1.09c0,.28,0,.57,0,.85s0,.43,0,.69c-.65-.06-1.3-.1-1.95-.17a1.3,1.3,0,0,1-.49-.2.76.76,0,0,1-.35-1,.72.72,0,0,1,.92-.38Z"/><path d="M33.76,4.56a14.66,14.66,0,0,1,.07-1.48,2.8,2.8,0,0,1,.29-.93A.73.73,0,0,1,35,1.78a.71.71,0,0,1,.54.89c0,.05,0,.1,0,.17a3.29,3.29,0,0,1,.44,0,.66.66,0,0,1,.64.52.74.74,0,0,1-.28.85,2,2,0,0,1-1.08.34C34.73,4.53,34.25,4.54,33.76,4.56Z"/><path d="M2.91,21.72a2.58,2.58,0,0,1-.45.05.68.68,0,0,1-.64-.54.75.75,0,0,1,.3-.84,2,2,0,0,1,1.08-.33c.48,0,1,0,1.46-.06,0,.59-.06,1.18-.13,1.76a1.61,1.61,0,0,1-.25.66.76.76,0,0,1-.89.36.71.71,0,0,1-.53-.88A1.67,1.67,0,0,1,2.91,21.72Z"/><path d="M33.76,20c.48,0,1,0,1.44,0a2,2,0,0,1,1.06.32.73.73,0,0,1,.34.78.71.71,0,0,1-.87.6l-.24-.05a.54.54,0,0,0,0,.15.71.71,0,0,1-.32.84.8.8,0,0,1-1-.11,1.65,1.65,0,0,1-.43-1.1C33.78,21,33.78,20.5,33.76,20Z"/><path d="M11.05,3.62V5.13h-.42V4.19l-.58.94-.55-1v1H9.11V3.63h.55c0,.36.28.58.42.94.15-.35.44-.58.46-1Z"/><path d="M22.44,4.57V3.63h.39v1.5h-.44s0-.12-.05-.16l-.85-.81v1H21.1V3.63h.47c0,.06,0,.13.06.16Z"/><path d="M26.06,4.18v1h-.39V3.63h.48a.3.3,0,0,0,.05.16l.81.78V3.63h.39v1.5H27A2.66,2.66,0,0,0,26.06,4.18Z"/><path d="M27.83,3.6h1.49v.34H28.25v.25H29v.34h-.73v.3h1.12v.33H27.83Z"/><path d="M19.23,5.16V3.61h1.49v.33H19.65v.25h.72v.34h-.72v.3h1.11v.33Z"/><path d="M17.33,5.14h-.54c.09-.25,0-.38-.26-.38h-.36c-.24,0-.32.13-.23.37h-.48a9.83,9.83,0,0,0,.7-1.5h.47c0,.08,0,.16,0,.22Zm-.72-.6-.27-.48-.24.48Z"/><path d="M14.26,3.63a5.75,5.75,0,0,0,.42,1,3.93,3.93,0,0,0,.41-1h.47c-.21.42-.43.85-.63,1.28a.57.57,0,0,0,0,.23h-.49a4.18,4.18,0,0,0-.65-1.51Z"/><path d="M23.62,3.93h-.57V3.59h1.56v.34l-.56,0V5.14h-.43Z"/><path d="M12.41,3.63H13c-.17.23-.34.47-.52.69s-.1.53-.1.81h-.43a1,1,0,0,0-.13-.88,7.16,7.16,0,0,1-.48-.61h.59c-.09.24.16.33.23.51A.52.52,0,0,0,12.41,3.63Z"/><path d="M17.58,5.15V3.63H18v1.2h1v.32Z"/><path d="M10,22a.61.61,0,0,1,.56-.66c.35,0,.59.24.61.66Z"/><path d="M27.34,22a.6.6,0,0,1,.57-.66c.34,0,.58.25.6.66Z"/><path d="M25.29,5.13h-.42V3.63h.42Z"/><path d="M10.86,10.37c0,.2-.09.31-.25.32s-.48-.29-.48-.58.11-.33.28-.32A.57.57,0,0,1,10.86,10.37Z"/><path d="M27.59,10.34a2.58,2.58,0,0,1,.33-.47.35.35,0,0,1,.33,0,.34.34,0,0,1,.13.28,1.34,1.34,0,0,1-.25.49.36.36,0,0,1-.32.05C27.72,10.61,27.68,10.47,27.59,10.34Z"/><path d="M30.31,16.64a.7.7,0,0,1-.63.72.46.46,0,0,1-.44-.51.71.71,0,0,1,.61-.73A.46.46,0,0,1,30.31,16.64Z"/><path d="M9.29,16.83a.49.49,0,0,1-.27.48.48.48,0,0,1-.51-.06.79.79,0,0,1-.29-.77.45.45,0,0,1,.66-.31A.78.78,0,0,1,9.29,16.83Z"/><path d="M23.69,16.43c-.19-.12-.35-.24-.53-.34A.77.77,0,0,0,22.9,16c-.27-.07-.55-.13-.82-.22a.28.28,0,0,0-.3.06c-.48.38-1,.75-1.46,1.12a.62.62,0,0,1-.78,0c-.35-.25-.7-.48-1-.75s-.62-.55-1-.84a3.4,3.4,0,0,1-1.71.66l-.1,0-.53.34a1.28,1.28,0,0,0,0,.13,6.5,6.5,0,0,1,.28.68,1.94,1.94,0,0,0,.57.92,1,1,0,0,1,.13,1.42l0,0a7.74,7.74,0,0,0-1.09,1.51,2.7,2.7,0,0,0-.55,1s-.1.11-.13.1c-.23-.09-.45,0-.68,0l0,0a5.43,5.43,0,0,0,1.58-1.84,8.05,8.05,0,0,1-2.37.35,2.23,2.23,0,0,1,.42,1.5h-.23c0-.26-.06-.51-.11-.75a1,1,0,0,0-.92-.81,11.91,11.91,0,0,1-1.3-.25A1.51,1.51,0,0,0,9.12,21a2.37,2.37,0,0,0-.4,1,1.3,1.3,0,0,1,0,.21c-.19.07-.29,0-.38-.17a10.3,10.3,0,0,1-1.23-3.7A14.25,14.25,0,0,1,7,15.29a.23.23,0,0,0-.11-.19,3.54,3.54,0,0,1-2.12-3.73c0-.51.2-1,.3-1.53,0-.19,0-.39.07-.58a1.43,1.43,0,0,1,1-1.17L7.2,7.75l.33-.11c.21,0,.38-.08.43-.38s.49-.54.94-.54a.76.76,0,0,1,.77.54.33.33,0,0,0,.28.23A3.73,3.73,0,0,1,12,8.59a.41.41,0,0,0,.24.11,2.44,2.44,0,0,1,1.44.64,1.83,1.83,0,0,1,.6,1.16,2.76,2.76,0,0,1-1.06,2.41l-.11.1a16.9,16.9,0,0,0,3.25.2A2,2,0,0,1,17.54,11a2.26,2.26,0,0,1,2.39.4A2.28,2.28,0,0,1,22.37,11a2,2,0,0,1,1.13,2.19A8.93,8.93,0,0,0,25.8,13l-.3-.27a2.83,2.83,0,0,1-.88-2A2.06,2.06,0,0,1,26,8.86a1.49,1.49,0,0,1,.4-.11,1.1,1.1,0,0,0,.76-.38A3.55,3.55,0,0,1,29,7.48a.28.28,0,0,0,.25-.2A.76.76,0,0,1,30,6.72a1.07,1.07,0,0,1,1,.43.22.22,0,0,1,0,.11c0,.32.22.33.43.39.49.15,1,.29,1.45.46a1.49,1.49,0,0,1,1,1.37,2.44,2.44,0,0,0,.11.6,4.78,4.78,0,0,1,0,3,3.22,3.22,0,0,1-1.82,2,.3.3,0,0,0-.21.36,12.19,12.19,0,0,1-.61,5.05c-.19.55-.48,1.06-.72,1.59a.27.27,0,0,1-.37.18,5.35,5.35,0,0,0-.17-.69,1.64,1.64,0,0,0-1.3-1.18,1.24,1.24,0,0,0-.47,0c-.49.09-1,.22-1.47.29a1,1,0,0,0-.9.77c-.06.25-.08.51-.13.79h-.21a2,2,0,0,1,.41-1.5,8.47,8.47,0,0,1-2.37-.36,5.34,5.34,0,0,0,1.56,1.83h-.83c-.07-.6-.57-1-.85-1.51a4.34,4.34,0,0,0-.73-1A1,1,0,0,1,23,18a1,1,0,0,0,.3-.44C23.39,17.18,23.55,16.79,23.69,16.43ZM5.18,10.32a4.78,4.78,0,0,0-.15,2A3.18,3.18,0,0,0,8.9,15a7.23,7.23,0,0,0,2.89-1.38c.26-.18.49-.39.68-.54,0-.07,0-.11-.06-.16l-.5-.85a4.33,4.33,0,0,1-.27-.37A2.53,2.53,0,0,1,11.43,10a11.46,11.46,0,0,1,.39-1.17,4.09,4.09,0,0,0-4.67-.73c.15.07.31.14.45.22a.7.7,0,0,1,.32.65.38.38,0,0,1-.38.31c0,.38-.11.75-.15,1.12a.38.38,0,0,0,0,.24,1.1,1.1,0,0,1,.08.9.58.58,0,0,1-1,.39A3,3,0,0,1,5.18,10.32Zm28.57,0,0,0a1.17,1.17,0,0,0-.05.11A3,3,0,0,1,32.25,12a.5.5,0,0,1-.68-.14,1.24,1.24,0,0,1-.14-1.09,1.31,1.31,0,0,0,.08-.48c0-.34-.09-.67-.14-1-.37-.09-.49-.3-.32-.63a1.25,1.25,0,0,1,.37-.39,2.81,2.81,0,0,1,.38-.17,5.6,5.6,0,0,0-1.57-.37,3.7,3.7,0,0,0-3.05,1,.21.21,0,0,0-.05.3,2.93,2.93,0,0,1,.4,1.87,2.27,2.27,0,0,1-.48,1.18,8.47,8.47,0,0,0-.54.87,1.34,1.34,0,0,1-.11.14l.39.33a7.34,7.34,0,0,0,3.48,1.67,3.17,3.17,0,0,0,3.32-1.75A4.25,4.25,0,0,0,33.75,10.37ZM26,20.52v-.06h.34l.34,0A6.49,6.49,0,0,0,30.35,19a2.62,2.62,0,0,0,1.06-1.75c.09-.93-.13-1.48-.93-1.79a2.21,2.21,0,0,0-1.19-.11,4.83,4.83,0,0,0-2.1,1,3.07,3.07,0,0,1-.66.42c-.47.2-1,.36-1.44.52a4.76,4.76,0,0,0-1.86,1,1.09,1.09,0,0,0,.15,1.66,1.61,1.61,0,0,0,.6.3C24.65,20.33,25.32,20.42,26,20.52Zm-13-.05c.34,0,.79,0,1.24-.1a2.66,2.66,0,0,0,1.32-.46,1.11,1.11,0,0,0,.13-1.66,4.12,4.12,0,0,0-.4-.33,5.5,5.5,0,0,0-1.9-.8,4.37,4.37,0,0,1-1.62-.79,5.27,5.27,0,0,0-1.61-.88,2.25,2.25,0,0,0-2.27.32.78.78,0,0,0-.2.24,2.18,2.18,0,0,0-.11,1.53,3.21,3.21,0,0,0,1.33,1.7A7,7,0,0,0,13,20.47Zm6.94-8.27c-.64-.7-.8-.79-1.46-.87a1.46,1.46,0,0,0-1.58,1.34,2.58,2.58,0,0,0,.48,1.59,8.12,8.12,0,0,0,2.47,2.27.23.23,0,0,0,.2,0A10.19,10.19,0,0,0,21.91,15a3.91,3.91,0,0,0,1-1.77,1.5,1.5,0,0,0-1-1.85,1.7,1.7,0,0,0-1.7.5C20.11,12,20,12.09,19.93,12.2Zm-6.15-.42-.54-.37.21-.3.31.19a.67.67,0,0,0-.07-.76,1.25,1.25,0,0,1-.3-.31c-.11-.23-.18-.49.15-.65A2.07,2.07,0,0,0,12.28,9a.23.23,0,0,0-.27.14,2.7,2.7,0,0,0-.35,1.73,2.08,2.08,0,0,0,.28.85,5.23,5.23,0,0,1,.76,1.24A2.53,2.53,0,0,0,13.78,11.78Zm11.59-2.2c.26.14.25.32.19.56s-.22.3-.36.42a.62.62,0,0,0,0,.73l.3-.17.2.29-.44.3a.24.24,0,0,0-.06.15,2.43,2.43,0,0,0,1,1.08A3.55,3.55,0,0,1,27,11.73a.38.38,0,0,0,.09-.15,2.64,2.64,0,0,0-.18-2.5.25.25,0,0,0-.18-.1A2.06,2.06,0,0,0,25.37,9.58ZM12.62,15.13h0l-.27-.34L12,16.19a4,4,0,0,0,1.28.63,7,7,0,0,1,2,.77l.12,0-.07-.24a6.39,6.39,0,0,0-2.22-3.07c-.27-.2-.42-.19-.72.06Zm13.71,0h0c.07-.21.14-.41.2-.62a.26.26,0,0,0,0-.18.45.45,0,0,0-.64,0,10.27,10.27,0,0,0-.78.68,6.27,6.27,0,0,0-1.52,2.55v.1l.11-.06a7.84,7.84,0,0,1,1.75-.71,7.39,7.39,0,0,0,1.13-.45c.4-.19.38-.21.28-.62s-.14-.66-.22-1ZM13,13.26a2.9,2.9,0,0,0,.22.59,5.59,5.59,0,0,0,.63.74,5.8,5.8,0,0,1,1.11,1.35c.14.22.16.23.35.13a3.87,3.87,0,0,1,0-.62,1.47,1.47,0,0,1,.27-.47,2.46,2.46,0,0,1,1.07-.87l-.24-.63A18.93,18.93,0,0,1,13,13.26ZM5.34,9.78a2.44,2.44,0,0,0,1.48,2,.23.23,0,0,0,.31-.08.81.81,0,0,0,0-1,1.83,1.83,0,0,1-.56-1.24A.5.5,0,0,1,7,8.9c.12,0,.25,0,.37,0h.24a2,2,0,0,0-.06-.26.32.32,0,0,0-.12-.14A1.46,1.46,0,0,0,6,8.43,1.33,1.33,0,0,0,5.34,9.78ZM31.27,9l.5-.06a.55.55,0,0,1,.61.71,2,2,0,0,1-.51,1,.82.82,0,0,0-.14,1,.27.27,0,0,0,.41.13,2.72,2.72,0,0,0,1.26-1.29,1.79,1.79,0,0,0,.08-1.36,1.35,1.35,0,0,0-2-.55A.38.38,0,0,0,31.27,9ZM26,13.27c-.26,0-.52.1-.79.12l-1.55.07c-.07,0-.17,0-.19.1-.16.33-.3.67-.44,1,.33.42.84.8.6,1.48.17.1.28.08.41-.11a7.94,7.94,0,0,1,.83-1.08A4.37,4.37,0,0,0,26,13.27Zm-16,6.85a4.51,4.51,0,0,1-2.65-2.64,10.27,10.27,0,0,0,1.22,4.31A2.2,2.2,0,0,1,9.9,20.12Zm21.77-2.67a3.4,3.4,0,0,1-1,1.62A6.18,6.18,0,0,1,29,20.13a2.11,2.11,0,0,1,1.46,1.69A10.38,10.38,0,0,0,31.67,17.45ZM27,14.13c-.23.2-.24.31-.12.6s.37.4.6.57a.77.77,0,0,0,1,0c.09,0,.16-.14,0-.23Zm-15.1,0L10.45,15a.24.24,0,0,0,0,.16c.21.1.45.29.63.25a1.91,1.91,0,0,0,.84-.5C12.18,14.63,12.21,14.39,11.91,14.13ZM8.19,7.47,9.42,7.4c-.08-.33-.3-.46-.67-.41S8.2,7.22,8.19,7.47ZM29.48,7.4l1.26.07A.62.62,0,0,0,30.1,7,.52.52,0,0,0,29.48,7.4Zm1.43,8a1.54,1.54,0,0,1,.78,1.27V15.24ZM7.23,16.65A1.53,1.53,0,0,1,8,15.36l-.76-.12Zm4.06-1,.49.32.17-.72ZM27,15.28l.18.72.48-.32ZM12.37,13.72l-.29.19.17.19.2-.09Zm14.1.29.2.09.16-.2-.29-.18ZM12.7,13.44l-.08,0,0,.32.22-.1ZM26,13.68l.24.09,0-.31-.07,0Z"/><path d="M3.11,3.07c0-.12,0-.2-.06-.28a.67.67,0,0,1,.37-.74.8.8,0,0,1,.92.11,1.71,1.71,0,0,1,.44,1.09c0,.28,0,.57,0,.85s0,.43,0,.69c-.65-.06-1.3-.1-2-.17a1.33,1.33,0,0,1-.48-.2.76.76,0,0,1-.35-1A.73.73,0,0,1,3,3Z"/><path d="M34,4.76c0-.5,0-1,.07-1.48a3,3,0,0,1,.29-.93A.74.74,0,0,1,35.2,2a.71.71,0,0,1,.54.89s0,.1-.05.17a2.18,2.18,0,0,1,.43,0,.66.66,0,0,1,.65.51.74.74,0,0,1-.29.86,1.91,1.91,0,0,1-1.07.34C34.93,4.73,34.44,4.74,34,4.76Z"/><path d="M3.11,21.92a2.58,2.58,0,0,1-.45,0A.68.68,0,0,1,2,21.42a.74.74,0,0,1,.3-.83,2,2,0,0,1,1.08-.33c.48,0,1,0,1.46-.06,0,.58-.06,1.17-.13,1.76a1.61,1.61,0,0,1-.25.66.75.75,0,0,1-.89.35.7.7,0,0,1-.53-.87A1.21,1.21,0,0,1,3.11,21.92Z"/><path d="M34,20.2l1.45.05a2.12,2.12,0,0,1,1.06.32.77.77,0,0,1,.34.79.7.7,0,0,1-.87.59l-.24,0,0,.15a.7.7,0,0,1-.31.84.81.81,0,0,1-1-.11,1.65,1.65,0,0,1-.43-1.1C34,21.2,34,20.7,34,20.2Z"/><path d="M11.25,3.82V5.33h-.42V4.39l-.58.94-.55-1v1H9.31V3.83h.54c0,.36.29.58.43.94.15-.35.43-.58.46-.95Z"/><path d="M22.63,4.77V3.83H23v1.5h-.44s0-.13-.05-.16l-.86-.82v1h-.39V3.83h.48s0,.13.06.16Z"/><path d="M26.26,4.38v1h-.39V3.82h.47c0,.06,0,.13.06.17l.81.78V3.82h.39V5.33h-.44A2.76,2.76,0,0,0,26.26,4.38Z"/><path d="M28,3.8h1.49v.34H28.45v.25h.72v.34h-.73V5h1.12v.34H28Z"/><path d="M19.43,5.36V3.81h1.49v.32H19.84v.26h.73v.34h-.72V5H21v.33Z"/><path d="M17.53,5.33H17c.08-.24,0-.37-.26-.37h-.36c-.24,0-.32.13-.23.37h-.48a9.83,9.83,0,0,0,.7-1.5h.46a.54.54,0,0,0,0,.22C17.05,4.48,17.29,4.9,17.53,5.33Zm-.73-.59-.26-.49-.24.49Z"/><path d="M14.46,3.83a5.75,5.75,0,0,0,.42,1,3.93,3.93,0,0,0,.41-1h.47c-.22.42-.43.85-.63,1.27a.62.62,0,0,0,0,.24h-.49A4.24,4.24,0,0,0,14,3.83Z"/><path d="M23.82,4.13h-.57V3.79h1.56v.34l-.56,0V5.33h-.43Z"/><path d="M12.61,3.83h.56c-.17.23-.34.47-.52.69s-.11.53-.1.81h-.43A1,1,0,0,0,12,4.45c-.18-.19-.32-.41-.48-.61h.59c-.09.23.16.33.22.51C12.55,4.2,12.66,4,12.61,3.83Z"/><path d="M17.78,5.35V3.83h.39V5h1v.32Z"/><path d="M10.21,22.23a.62.62,0,0,1,.56-.67c.35,0,.59.25.61.67Z"/><path d="M27.54,22.23a.61.61,0,0,1,.57-.67.62.62,0,0,1,.6.67Z"/><path d="M25.49,5.33h-.43V3.83h.43Z"/><path d="M11.06,10.56c0,.2-.09.32-.25.33s-.48-.29-.48-.58.11-.33.28-.32S11.06,10.28,11.06,10.56Z"/><path d="M27.79,10.53a3.53,3.53,0,0,1,.33-.47.36.36,0,0,1,.32,0,.32.32,0,0,1,.14.28,1.38,1.38,0,0,1-.25.48.34.34,0,0,1-.32.06C27.92,10.81,27.88,10.67,27.79,10.53Z"/><path d="M30.51,16.84a.7.7,0,0,1-.63.72.45.45,0,0,1-.44-.51.71.71,0,0,1,.61-.73A.46.46,0,0,1,30.51,16.84Z"/><path d="M9.49,17a.51.51,0,0,1-.27.48.46.46,0,0,1-.51-.07.75.75,0,0,1-.29-.76.45.45,0,0,1,.66-.31A.78.78,0,0,1,9.49,17Z"/></g><g class="cls-3"><path d="M23.35,16.09c-.19-.12-.35-.24-.53-.34a.77.77,0,0,0-.26-.07c-.27-.07-.55-.13-.82-.22a.28.28,0,0,0-.3.06c-.48.38-1,.75-1.46,1.12a.62.62,0,0,1-.78,0c-.35-.25-.7-.48-1-.75s-.62-.55-1-.84a3.4,3.4,0,0,1-1.71.66l-.1,0-.54.34a.7.7,0,0,1,.05.13,5.72,5.72,0,0,1,.28.68,1.94,1.94,0,0,0,.57.92,1,1,0,0,1,.13,1.42l0,0a7.74,7.74,0,0,0-1.09,1.51,2.7,2.7,0,0,0-.55,1s-.1.11-.13.1c-.23-.09-.45,0-.68,0l-.05,0A5.43,5.43,0,0,0,15,20a8.4,8.4,0,0,1-2.37.35,2.23,2.23,0,0,1,.42,1.5h-.23c0-.26-.06-.51-.11-.75a1,1,0,0,0-.92-.81,11.91,11.91,0,0,1-1.3-.25,1.51,1.51,0,0,0-1.66.57,2.33,2.33,0,0,0-.4,1,1.55,1.55,0,0,1,0,.21c-.19.07-.29,0-.38-.17A10.3,10.3,0,0,1,6.73,18,13.64,13.64,0,0,1,6.63,15a.25.25,0,0,0-.11-.19A3.52,3.52,0,0,1,4.4,11c0-.51.2-1,.3-1.53,0-.19,0-.39.07-.58a1.43,1.43,0,0,1,1-1.17l1.06-.34.33-.11c.21,0,.38-.08.43-.38s.49-.54.94-.54a.76.76,0,0,1,.77.54.33.33,0,0,0,.28.23,3.73,3.73,0,0,1,2.05,1.1.41.41,0,0,0,.24.11A2.44,2.44,0,0,1,13.34,9a1.83,1.83,0,0,1,.6,1.15,2.77,2.77,0,0,1-1.06,2.42l-.11.1a16.9,16.9,0,0,0,3.25.2,2,2,0,0,1,1.18-2.24,2.26,2.26,0,0,1,2.39.4A2.28,2.28,0,0,1,22,10.65a2,2,0,0,1,1.13,2.19,8.93,8.93,0,0,0,2.3-.17l-.3-.27a2.83,2.83,0,0,1-.88-2,2.06,2.06,0,0,1,1.38-1.85,1.49,1.49,0,0,1,.4-.11A1.1,1.1,0,0,0,26.82,8a3.55,3.55,0,0,1,1.82-.89.28.28,0,0,0,.25-.2.76.76,0,0,1,.72-.56,1.07,1.07,0,0,1,1,.43.22.22,0,0,1,.05.11c0,.32.22.33.43.39.49.15,1,.29,1.44.46a1.49,1.49,0,0,1,1,1.37,2.44,2.44,0,0,0,.11.6,4.85,4.85,0,0,1,0,3,3.22,3.22,0,0,1-1.82,2c-.2.08-.22.18-.21.36A12.21,12.21,0,0,1,31,20.12c-.19.55-.48,1.06-.72,1.59a.28.28,0,0,1-.37.18,5.35,5.35,0,0,0-.17-.69A1.64,1.64,0,0,0,28.43,20,1.24,1.24,0,0,0,28,20c-.49.09-1,.22-1.47.29a1,1,0,0,0-.9.77c-.07.25-.08.51-.13.79h-.21a2,2,0,0,1,.41-1.5A8.47,8.47,0,0,1,23.29,20a5.34,5.34,0,0,0,1.56,1.83H24c-.07-.6-.57-1-.85-1.51a4.34,4.34,0,0,0-.73-1,1,1,0,0,1,.18-1.69,1,1,0,0,0,.3-.44C23.05,16.84,23.21,16.45,23.35,16.09ZM4.84,10a4.78,4.78,0,0,0-.15,2,3.18,3.18,0,0,0,3.87,2.69,7.23,7.23,0,0,0,2.89-1.38c.26-.18.49-.39.68-.54,0-.07,0-.11-.06-.16l-.5-.85a4.33,4.33,0,0,1-.27-.37,2.53,2.53,0,0,1-.21-1.75,11.46,11.46,0,0,1,.39-1.17,4.09,4.09,0,0,0-4.67-.73c.15.07.31.14.45.22a.7.7,0,0,1,.32.65.38.38,0,0,1-.38.31c0,.38-.11.75-.15,1.12a.38.38,0,0,0,0,.24,1.1,1.1,0,0,1,.08.9.58.58,0,0,1-1,.39A3,3,0,0,1,4.84,10Zm28.57,0,0,0a1.17,1.17,0,0,0,0,.11,3,3,0,0,1-1.41,1.46.5.5,0,0,1-.68-.14,1.24,1.24,0,0,1-.14-1.09,1.34,1.34,0,0,0,.08-.48c0-.34-.09-.67-.14-1-.37-.09-.49-.3-.32-.63a1.25,1.25,0,0,1,.37-.39,2.81,2.81,0,0,1,.38-.17,5.27,5.27,0,0,0-1.57-.37,3.7,3.7,0,0,0-3.05,1,.21.21,0,0,0-.05.3,2.93,2.93,0,0,1,.4,1.87,2.27,2.27,0,0,1-.48,1.18,8.47,8.47,0,0,0-.54.87,1.34,1.34,0,0,1-.11.14l.39.33a7.3,7.3,0,0,0,3.48,1.67A3.17,3.17,0,0,0,33.25,13,4.25,4.25,0,0,0,33.41,10ZM25.66,20.18v-.06H26l.34,0A6.49,6.49,0,0,0,30,18.63a2.62,2.62,0,0,0,1.06-1.75c.09-.93-.13-1.48-.93-1.79A2.21,2.21,0,0,0,29,15a4.83,4.83,0,0,0-2.1,1,3.07,3.07,0,0,1-.66.42c-.47.2-1,.36-1.44.52a4.76,4.76,0,0,0-1.86,1A1.09,1.09,0,0,0,23,19.57a1.78,1.78,0,0,0,.6.3C24.31,20,25,20.08,25.66,20.18Zm-13-.05c.34,0,.79-.05,1.24-.1a2.76,2.76,0,0,0,1.32-.46,1.11,1.11,0,0,0,.13-1.66l-.4-.34a5.68,5.68,0,0,0-1.9-.79A4.37,4.37,0,0,1,11.42,16a5.27,5.27,0,0,0-1.61-.88,2.25,2.25,0,0,0-2.27.32.78.78,0,0,0-.2.24,2.18,2.18,0,0,0-.11,1.53,3.15,3.15,0,0,0,1.33,1.69A6.92,6.92,0,0,0,12.65,20.13Zm6.94-8.27c-.64-.7-.8-.79-1.46-.87a1.46,1.46,0,0,0-1.58,1.34A2.58,2.58,0,0,0,17,13.92a8.12,8.12,0,0,0,2.47,2.27.23.23,0,0,0,.2,0,10.19,10.19,0,0,0,1.87-1.52,3.91,3.91,0,0,0,1-1.77,1.5,1.5,0,0,0-1-1.85,1.7,1.7,0,0,0-1.7.5C19.77,11.64,19.69,11.75,19.59,11.86Zm-6.15-.42-.54-.37.21-.3.31.19a.67.67,0,0,0-.07-.76,1.25,1.25,0,0,1-.3-.31c-.11-.23-.18-.49.15-.65a2.07,2.07,0,0,0-1.26-.6.22.22,0,0,0-.27.14,2.7,2.7,0,0,0-.35,1.73,2.08,2.08,0,0,0,.28.85,5.23,5.23,0,0,1,.76,1.24A2.53,2.53,0,0,0,13.44,11.44ZM25,9.24c.26.14.25.32.19.56s-.22.3-.36.42a.62.62,0,0,0,0,.73l.3-.17.2.29-.44.3a.19.19,0,0,0-.06.15,2.43,2.43,0,0,0,1.05,1.08,3.55,3.55,0,0,1,.74-1.21.38.38,0,0,0,.09-.15,2.64,2.64,0,0,0-.18-2.5.25.25,0,0,0-.18-.1A2.06,2.06,0,0,0,25,9.24ZM12.28,14.79h0L12,14.46l-.31,1.39a4,4,0,0,0,1.28.63,7,7,0,0,1,2,.77l.12,0L15,17.05A6.39,6.39,0,0,0,12.76,14c-.27-.2-.42-.19-.73.06Zm13.71,0h0c.07-.21.14-.41.2-.62a.26.26,0,0,0,0-.18.45.45,0,0,0-.64,0,10.27,10.27,0,0,0-.78.68A6.27,6.27,0,0,0,23.2,17.2v.1l.11-.06a7.84,7.84,0,0,1,1.75-.71,7.39,7.39,0,0,0,1.13-.45c.4-.19.38-.21.28-.62s-.14-.66-.22-1ZM12.63,12.92a2.9,2.9,0,0,0,.22.59,4.93,4.93,0,0,0,.63.73,6.06,6.06,0,0,1,1.11,1.36c.14.22.16.23.35.13a3.87,3.87,0,0,1,0-.62,1.47,1.47,0,0,1,.27-.47,2.46,2.46,0,0,1,1.07-.87l-.24-.63A18.88,18.88,0,0,1,12.63,12.92ZM5,9.44a2.45,2.45,0,0,0,1.47,2,.24.24,0,0,0,.32-.08.81.81,0,0,0,0-1,1.79,1.79,0,0,1-.56-1.24.5.5,0,0,1,.52-.53c.12,0,.25,0,.37,0h.24a2,2,0,0,0-.06-.26.32.32,0,0,0-.12-.14,1.46,1.46,0,0,0-1.47-.09A1.33,1.33,0,0,0,5,9.44Zm25.93-.83.5-.06a.55.55,0,0,1,.61.71,2,2,0,0,1-.51,1,.82.82,0,0,0-.14,1,.27.27,0,0,0,.41.13,2.72,2.72,0,0,0,1.26-1.29,1.79,1.79,0,0,0,.08-1.36,1.35,1.35,0,0,0-2.05-.55A.38.38,0,0,0,30.93,8.61Zm-5.32,4.32c-.26,0-.52.1-.79.12l-1.55.07c-.07,0-.17.05-.19.1-.16.33-.3.67-.44,1,.33.42.84.8.6,1.48.17.1.28.08.41-.11a7.94,7.94,0,0,1,.83-1.08A4.37,4.37,0,0,0,25.61,12.93Zm-16,6.85a4.51,4.51,0,0,1-2.65-2.64,10.27,10.27,0,0,0,1.22,4.31A2.2,2.2,0,0,1,9.56,19.78Zm21.77-2.67a3.4,3.4,0,0,1-1,1.62,6.43,6.43,0,0,1-1.67,1.06,2.11,2.11,0,0,1,1.46,1.69A10.53,10.53,0,0,0,31.33,17.11Zm-4.66-3.32c-.23.2-.24.31-.12.6s.37.4.6.57a.77.77,0,0,0,1,0c.09,0,.16-.14,0-.23C27.66,14.4,27.17,14.11,26.67,13.79Zm-15.1,0-1.46.91a.24.24,0,0,0,0,.16c.21.1.45.29.63.25a1.91,1.91,0,0,0,.84-.5C11.84,14.29,11.87,14.05,11.57,13.79ZM7.85,7.13l1.23-.07c-.08-.33-.3-.46-.67-.41S7.86,6.88,7.85,7.13Zm21.29-.07,1.26.07a.62.62,0,0,0-.64-.48A.52.52,0,0,0,29.14,7.06Zm1.43,8a1.54,1.54,0,0,1,.78,1.27V14.9ZM6.89,16.31A1.53,1.53,0,0,1,7.65,15l-.76-.12Zm4.06-1,.49.32.17-.72Zm15.67-.4.18.72.48-.32ZM12,13.38l-.29.19.17.19.2-.09Zm14.1.29.2.09.16-.2-.29-.18ZM12.36,13.1l-.08,0,0,.32.22-.1Zm13.32.24.24.09,0-.31-.07,0Z"/><path d="M2.77,2.73c0-.12,0-.2-.06-.28a.67.67,0,0,1,.37-.74A.8.8,0,0,1,4,1.82a1.71,1.71,0,0,1,.44,1.09c0,.28,0,.57,0,.85s0,.43,0,.69c-.65-.06-1.3-.1-2-.17a1.33,1.33,0,0,1-.48-.2.76.76,0,0,1-.35-1,.73.73,0,0,1,.92-.39Z"/><path d="M33.61,4.42c0-.5,0-1,.07-1.48A3,3,0,0,1,34,2a.74.74,0,0,1,.89-.37.71.71,0,0,1,.54.89c0,.05,0,.1,0,.17a2.18,2.18,0,0,1,.43-.05.66.66,0,0,1,.65.51.74.74,0,0,1-.29.86,1.91,1.91,0,0,1-1.07.34C34.59,4.39,34.1,4.4,33.61,4.42Z"/><path d="M2.77,21.58a2.58,2.58,0,0,1-.45.05.68.68,0,0,1-.64-.55.74.74,0,0,1,.3-.83,2,2,0,0,1,1.08-.33c.48,0,1,0,1.46-.06,0,.58-.06,1.17-.13,1.76a1.61,1.61,0,0,1-.25.66.75.75,0,0,1-.89.35.7.7,0,0,1-.53-.87A1.21,1.21,0,0,1,2.77,21.58Z"/><path d="M33.61,19.86l1.45.05a2.12,2.12,0,0,1,1.06.32.77.77,0,0,1,.34.79.71.71,0,0,1-.87.59l-.24,0c0,.06,0,.1,0,.15a.7.7,0,0,1-.31.84.81.81,0,0,1-1-.11,1.65,1.65,0,0,1-.43-1.1C33.64,20.86,33.63,20.36,33.61,19.86Z"/><path d="M10.91,3.48V5h-.42V4.05L9.91,5,9.36,4V5H9V3.49h.54c0,.36.29.58.43.94.15-.35.43-.58.46-.95Z"/><path d="M22.29,4.43V3.49h.4V5h-.44s0-.13-.05-.16L21.34,4V5H21V3.49h.48s0,.13.06.16Z"/><path d="M25.92,4V5h-.39V3.48H26c0,.06,0,.13.06.17l.81.78V3.48h.39V5h-.44A2.76,2.76,0,0,0,25.92,4Z"/><path d="M27.69,3.46h1.49V3.8H28.11v.25h.72v.34H28.1v.29h1.12V5H27.69Z"/><path d="M19.09,5V3.47h1.49v.32H19.5v.26h.73v.34h-.72v.29h1.11V5Z"/><path d="M17.19,5h-.54c.08-.24,0-.37-.26-.37H16c-.24,0-.32.13-.23.37h-.48a9.83,9.83,0,0,0,.7-1.5h.46a.54.54,0,0,0,0,.22C16.71,4.14,17,4.56,17.19,5Zm-.73-.59-.26-.49L16,4.4Z"/><path d="M14.12,3.49a5.75,5.75,0,0,0,.42,1,3.93,3.93,0,0,0,.41-1h.47c-.22.42-.43.85-.63,1.27a.62.62,0,0,0,0,.24h-.49a4.24,4.24,0,0,0-.66-1.51Z"/><path d="M23.48,3.79h-.57V3.45h1.56v.34l-.56,0V5h-.43Z"/><path d="M12.27,3.49h.56l-.52.69c-.21.26-.11.53-.1.81h-.43a1,1,0,0,0-.13-.88c-.18-.19-.32-.41-.48-.61h.59c-.09.23.16.33.22.51C12.21,3.86,12.32,3.65,12.27,3.49Z"/><path d="M17.44,5V3.49h.39v1.2h1V5Z"/><path d="M9.87,21.89a.62.62,0,0,1,.56-.67c.35,0,.59.25.61.67Z"/><path d="M27.2,21.89a.61.61,0,0,1,.57-.67.62.62,0,0,1,.6.67Z"/><path d="M25.15,5h-.43V3.49h.43Z"/><path d="M10.72,10.22c0,.2-.09.32-.25.33S10,10.26,10,10s.11-.33.28-.32S10.72,9.94,10.72,10.22Z"/><path d="M27.45,10.19a3.53,3.53,0,0,1,.33-.47.36.36,0,0,1,.32,0,.32.32,0,0,1,.14.28,1.38,1.38,0,0,1-.25.48.34.34,0,0,1-.32.06C27.58,10.47,27.54,10.33,27.45,10.19Z"/><path d="M30.17,16.5a.7.7,0,0,1-.63.72.46.46,0,0,1-.44-.51.71.71,0,0,1,.61-.73A.46.46,0,0,1,30.17,16.5Z"/><path d="M9.15,16.69a.51.51,0,0,1-.27.48.46.46,0,0,1-.51-.07.75.75,0,0,1-.29-.76A.45.45,0,0,1,8.74,16,.78.78,0,0,1,9.15,16.69Z"/></g><path class="cls-4" d="M23.55,16.29c-.19-.13-.36-.25-.53-.35a1.22,1.22,0,0,0-.26-.06c-.28-.07-.55-.13-.82-.22a.28.28,0,0,0-.3.06c-.48.38-1,.75-1.46,1.11a.61.61,0,0,1-.78,0c-.35-.25-.7-.49-1-.75s-.63-.55-.95-.84a3.4,3.4,0,0,1-1.71.66l-.1,0-.54.35a.7.7,0,0,1,0,.13,5.72,5.72,0,0,1,.28.68A1.86,1.86,0,0,0,16,18a1,1,0,0,1,.13,1.42l0,0A7.08,7.08,0,0,0,15,21a2.79,2.79,0,0,0-.56,1s-.09.1-.12.09c-.23-.08-.45.05-.68,0l0,0a5.28,5.28,0,0,0,1.57-1.83,8.34,8.34,0,0,1-2.37.35,2.11,2.11,0,0,1,.42,1.5H13c0-.26-.06-.51-.12-.76a1,1,0,0,0-.91-.8,11.91,11.91,0,0,1-1.3-.25A1.51,1.51,0,0,0,9,20.85a2.33,2.33,0,0,0-.4,1c0,.08,0,.15,0,.22-.19.07-.29,0-.38-.17a10.36,10.36,0,0,1-1.23-3.7,13.7,13.7,0,0,1-.1-3.07A.25.25,0,0,0,6.72,15,3.52,3.52,0,0,1,4.6,11.23c.05-.52.2-1,.3-1.53,0-.19,0-.39.07-.58A1.42,1.42,0,0,1,6,8L7.06,7.6l.32-.1c.22,0,.39-.08.43-.38s.5-.54.94-.55a.79.79,0,0,1,.78.55.31.31,0,0,0,.28.22,3.81,3.81,0,0,1,2,1.11.41.41,0,0,0,.24.11,2.44,2.44,0,0,1,1.44.64,1.77,1.77,0,0,1,.59,1.15,2.73,2.73,0,0,1-1.05,2.42l-.11.09a16.91,16.91,0,0,0,3.25.21,2,2,0,0,1,1.18-2.24,2.27,2.27,0,0,1,2.39.4,2.28,2.28,0,0,1,2.44-.38A2,2,0,0,1,23.36,13a9.28,9.28,0,0,0,2.29-.17l-.29-.27a2.79,2.79,0,0,1-.88-2,2,2,0,0,1,1.38-1.85,1.49,1.49,0,0,1,.4-.11A1.07,1.07,0,0,0,27,8.22a3.54,3.54,0,0,1,1.82-.88.28.28,0,0,0,.25-.2.76.76,0,0,1,.72-.56,1,1,0,0,1,1,.43.17.17,0,0,1,.06.11c0,.32.22.32.43.39.48.14,1,.29,1.44.46a1.49,1.49,0,0,1,1,1.37,2.53,2.53,0,0,0,.11.6,4.85,4.85,0,0,1,0,3,3.22,3.22,0,0,1-1.82,2c-.2.08-.22.18-.21.36a12.37,12.37,0,0,1-.61,5.05c-.19.54-.48,1.06-.72,1.59a.27.27,0,0,1-.37.17c-.06-.22-.1-.46-.17-.69a1.66,1.66,0,0,0-1.3-1.17,1.24,1.24,0,0,0-.47,0c-.5.09-1,.21-1.47.29a1,1,0,0,0-.9.76,6.36,6.36,0,0,0-.13.8h-.22a2.12,2.12,0,0,1,.42-1.51,7.8,7.8,0,0,1-2.37-.36,5.16,5.16,0,0,0,1.56,1.83h-.84c-.07-.59-.56-1-.84-1.5a4.65,4.65,0,0,0-.73-1,1.05,1.05,0,0,1,.17-1.69.83.83,0,0,0,.3-.44C23.25,17,23.41,16.64,23.55,16.29ZM5,10.17a4.81,4.81,0,0,0-.15,2,3.17,3.17,0,0,0,3.87,2.7,7.23,7.23,0,0,0,2.89-1.38c.25-.18.49-.39.68-.54,0-.07,0-.12-.06-.16-.17-.28-.33-.57-.51-.85a4.17,4.17,0,0,1-.26-.37,2.48,2.48,0,0,1-.21-1.75,11.46,11.46,0,0,1,.39-1.17A4.1,4.1,0,0,0,7,7.93a4.66,4.66,0,0,1,.45.22.69.69,0,0,1,.32.64.36.36,0,0,1-.38.31c-.05.39-.11.76-.15,1.13a.38.38,0,0,0,0,.24,1.14,1.14,0,0,1,.08.9.58.58,0,0,1-1,.39A3,3,0,0,1,5,10.17Zm28.57.05,0,0a.61.61,0,0,0,0,.12,3,3,0,0,1-1.41,1.46.5.5,0,0,1-.68-.14,1.24,1.24,0,0,1-.14-1.09,1.4,1.4,0,0,0,.08-.49c0-.33-.09-.66-.14-1-.37-.09-.49-.3-.32-.64a1.34,1.34,0,0,1,.37-.38,1.49,1.49,0,0,1,.38-.17,5.27,5.27,0,0,0-1.57-.37,3.72,3.72,0,0,0-3.05,1,.21.21,0,0,0-.05.31,2.91,2.91,0,0,1,.39,1.87,2.15,2.15,0,0,1-.47,1.17,9.87,9.87,0,0,0-.54.88l-.11.14.39.33a7.39,7.39,0,0,0,3.48,1.67,3.17,3.17,0,0,0,3.32-1.75A4.28,4.28,0,0,0,33.61,10.22ZM25.85,20.38v-.06h.34l.34,0a6.49,6.49,0,0,0,3.67-1.46,2.69,2.69,0,0,0,1.06-1.75c.09-.93-.13-1.48-.93-1.79a2.21,2.21,0,0,0-1.19-.11,4.72,4.72,0,0,0-2.1,1,3.51,3.51,0,0,1-.66.42c-.47.2-1,.36-1.44.52a4.64,4.64,0,0,0-1.86,1,1.09,1.09,0,0,0,.15,1.66,1.76,1.76,0,0,0,.6.29C24.51,20.19,25.18,20.28,25.85,20.38Zm-13-.05c.34,0,.79,0,1.24-.1a2.77,2.77,0,0,0,1.32-.47,1.1,1.1,0,0,0,.13-1.65,4.23,4.23,0,0,0-.4-.34,5.76,5.76,0,0,0-1.9-.79,4.37,4.37,0,0,1-1.62-.79A5.42,5.42,0,0,0,10,15.3a2.29,2.29,0,0,0-2.28.32.92.92,0,0,0-.19.25,2.18,2.18,0,0,0-.11,1.53,3.19,3.19,0,0,0,1.33,1.69A6.92,6.92,0,0,0,12.85,20.33Zm6.94-8.28c-.64-.69-.81-.79-1.46-.86a1.45,1.45,0,0,0-1.58,1.34,2.58,2.58,0,0,0,.48,1.59,8.12,8.12,0,0,0,2.47,2.27.21.21,0,0,0,.2,0,9.74,9.74,0,0,0,1.87-1.51,3.86,3.86,0,0,0,1-1.77,1.49,1.49,0,0,0-1-1.85,1.69,1.69,0,0,0-1.7.49C20,11.83,19.88,12,19.79,12.05Zm-6.15-.41-.54-.37.2-.3.32.19a.67.67,0,0,0-.07-.76,1.25,1.25,0,0,1-.3-.31c-.11-.23-.18-.49.15-.66a2.11,2.11,0,0,0-1.26-.59.22.22,0,0,0-.27.14,2.62,2.62,0,0,0-.35,1.73,2,2,0,0,0,.28.84,4.78,4.78,0,0,1,.75,1.25A2.5,2.5,0,0,0,13.64,11.64Zm11.59-2.2c.25.14.25.32.19.56s-.22.3-.36.41a.63.63,0,0,0,0,.74l.3-.18.2.3c-.16.11-.31.2-.44.3a.18.18,0,0,0-.06.15,2.49,2.49,0,0,0,1,1.08,3.55,3.55,0,0,1,.74-1.21.6.6,0,0,0,.09-.15,2.64,2.64,0,0,0-.18-2.5.2.2,0,0,0-.18-.1A2,2,0,0,0,25.23,9.44ZM12.48,15h0l-.27-.33-.32,1.39a4.42,4.42,0,0,0,1.29.63,7,7,0,0,1,2,.77l.12,0-.07-.25A6.41,6.41,0,0,0,13,14.18c-.27-.2-.42-.19-.73.05Zm13.71,0,0,0c.06-.2.14-.4.2-.61,0-.06,0-.15,0-.18a.45.45,0,0,0-.64,0c-.26.22-.53.44-.77.68A6.21,6.21,0,0,0,23.4,17.4s0,.05,0,.09l.12,0a7.65,7.65,0,0,1,1.75-.71,7.39,7.39,0,0,0,1.13-.45c.4-.19.38-.21.28-.62s-.14-.66-.22-1ZM12.83,13.12a3.15,3.15,0,0,0,.22.59,4,4,0,0,0,.63.73,6.24,6.24,0,0,1,1.11,1.35c.14.23.16.24.35.14a3,3,0,0,1,0-.62,1.47,1.47,0,0,1,.27-.47A2.4,2.4,0,0,1,16.52,14l-.24-.64A18,18,0,0,1,12.83,13.12ZM5.2,9.64a2.46,2.46,0,0,0,1.47,2A.24.24,0,0,0,7,11.53a.81.81,0,0,0,0-1,1.79,1.79,0,0,1-.56-1.24.51.51,0,0,1,.51-.54l.38,0h.24a2,2,0,0,0-.06-.26.28.28,0,0,0-.12-.14,1.44,1.44,0,0,0-1.47-.09A1.31,1.31,0,0,0,5.2,9.64Zm25.93-.83a4.84,4.84,0,0,1,.5-.06.55.55,0,0,1,.61.71,2,2,0,0,1-.52,1,.83.83,0,0,0-.13,1,.27.27,0,0,0,.41.13,2.77,2.77,0,0,0,1.26-1.29,1.79,1.79,0,0,0,.08-1.36,1.35,1.35,0,0,0-2.05-.55A.38.38,0,0,0,31.13,8.81Zm-5.32,4.31c-.26,0-.53.1-.8.12-.51,0-1,0-1.54.08a.24.24,0,0,0-.19.1c-.16.33-.3.67-.45,1,.34.42.85.8.61,1.48.17.1.28.08.41-.11a8.71,8.71,0,0,1,.83-1.09A4.32,4.32,0,0,0,25.81,13.12ZM9.76,20a4.51,4.51,0,0,1-2.65-2.64,10.4,10.4,0,0,0,1.21,4.31A2.23,2.23,0,0,1,9.76,20Zm21.76-2.67a3.31,3.31,0,0,1-1,1.62A6.43,6.43,0,0,1,28.83,20a2.11,2.11,0,0,1,1.46,1.69A10.37,10.37,0,0,0,31.52,17.31ZM26.86,14c-.22.2-.24.3-.12.6s.38.4.61.57a.78.78,0,0,0,1,0c.09-.06.16-.14,0-.23ZM11.77,14l-1.46.91s-.06.16-.06.16c.21.1.46.29.64.24a1.85,1.85,0,0,0,.84-.49C12,14.49,12.06,14.25,11.77,14ZM8.05,7.32l1.23-.07c-.08-.32-.3-.45-.67-.4S8.06,7.08,8.05,7.32Zm21.29-.07,1.26.07A.63.63,0,0,0,30,6.85.52.52,0,0,0,29.34,7.25Zm1.43,8a1.54,1.54,0,0,1,.78,1.26V15.1ZM7.09,16.51a1.54,1.54,0,0,1,.75-1.29l-.75-.12Zm4.06-1,.48.32.18-.72Zm15.67-.4.18.72.48-.32ZM12.23,13.58l-.29.19.17.19.2-.09Zm14.09.29.21.09.15-.2-.28-.18ZM12.56,13.3l-.08,0,0,.32.22-.1Zm13.32.24.24.09,0-.31-.07,0Z"/><path class="cls-4" d="M3,2.92a2,2,0,0,1-.06-.27.7.7,0,0,1,.36-.75A.83.83,0,0,1,4.2,2a1.71,1.71,0,0,1,.44,1.09c0,.28,0,.56,0,.85s0,.43,0,.68c-.65,0-1.31-.09-2-.17a1.15,1.15,0,0,1-.48-.19.76.76,0,0,1-.35-1,.73.73,0,0,1,.92-.39Z"/><path class="cls-4" d="M33.81,4.61c0-.49,0-1,.07-1.47a3,3,0,0,1,.29-.93.74.74,0,0,1,.89-.37.69.69,0,0,1,.53.88,1.67,1.67,0,0,1-.05.18,2.37,2.37,0,0,1,.44,0,.66.66,0,0,1,.65.51.74.74,0,0,1-.29.86,2,2,0,0,1-1.07.34C34.79,4.59,34.3,4.6,33.81,4.61Z"/><path class="cls-4" d="M3,21.78a4.12,4.12,0,0,1-.45,0,.68.68,0,0,1-.64-.55.74.74,0,0,1,.3-.83,2,2,0,0,1,1.07-.34l1.47-.05c0,.58-.06,1.17-.13,1.76a1.84,1.84,0,0,1-.25.66.75.75,0,0,1-.89.35A.7.7,0,0,1,2.92,22,1.21,1.21,0,0,1,3,21.78Z"/><path class="cls-4" d="M33.81,20.06l1.45.05a2.05,2.05,0,0,1,1.05.32.74.74,0,0,1,.34.79.69.69,0,0,1-.86.59l-.25,0c0,.07,0,.11,0,.16a.71.71,0,0,1-.31.84.83.83,0,0,1-1-.11,1.69,1.69,0,0,1-.43-1.1C33.84,21.05,33.83,20.55,33.81,20.06Z"/><path class="cls-4" d="M11.11,3.68V5.19h-.42v-1l-.58.94-.56-.94v1H9.16V3.68h.55c0,.37.29.59.43.95.15-.36.43-.58.46-.95Z"/><path class="cls-4" d="M22.49,4.63V3.69h.4v1.5h-.44c0-.06,0-.13-.05-.16l-.86-.82v1h-.39V3.69h.48c0,.05,0,.12.05.16Z"/><path class="cls-4" d="M26.12,4.24v1h-.39V3.68h.47c0,.06,0,.13.06.17l.81.78V3.68h.39V5.19H27C27,5,26.58,4.58,26.12,4.24Z"/><path class="cls-4" d="M27.89,3.66h1.49V4H28.31v.26H29v.33H28.3v.3h1.11v.34H27.89Z"/><path class="cls-4" d="M19.29,5.21V3.66h1.49V4H19.7v.26h.72v.33H19.7v.3h1.12v.33Z"/><path class="cls-4" d="M17.39,5.19h-.54c.08-.24,0-.37-.26-.37h-.36c-.24,0-.33.13-.24.37h-.47a9.83,9.83,0,0,0,.7-1.5h.46a.54.54,0,0,0,0,.22C16.91,4.33,17.15,4.76,17.39,5.19Zm-.73-.59-.26-.49-.24.49Z"/><path class="cls-4" d="M14.32,3.69a5.35,5.35,0,0,0,.42,1.05,3.86,3.86,0,0,0,.41-1.06h.46L15,5a.59.59,0,0,0,0,.23h-.5a4,4,0,0,0-.65-1.5Z"/><path class="cls-4" d="M23.68,4h-.57V3.65h1.56V4l-.56,0V5.19h-.43Z"/><path class="cls-4" d="M12.47,3.68H13c-.18.24-.34.47-.53.7s-.1.53-.09.81H12a1,1,0,0,0-.12-.88,7.42,7.42,0,0,1-.49-.62H12c-.09.24.16.34.22.52C12.41,4.05,12.52,3.85,12.47,3.68Z"/><path class="cls-4" d="M17.64,5.21V3.68H18V4.89h1v.32Z"/><path class="cls-4" d="M10.07,22.09a.61.61,0,0,1,.55-.67.61.61,0,0,1,.61.67Z"/><path class="cls-4" d="M27.4,22.09a.61.61,0,0,1,.57-.67.62.62,0,0,1,.6.67Z"/><path class="cls-4" d="M25.35,5.19h-.43V3.68h.43Z"/><path class="cls-4" d="M10.92,10.42c0,.2-.1.32-.26.33a.58.58,0,0,1-.47-.58c0-.21.11-.33.28-.33A.58.58,0,0,1,10.92,10.42Z"/><path class="cls-4" d="M27.65,10.39A3,3,0,0,1,28,9.92a.36.36,0,0,1,.32,0,.28.28,0,0,1,.13.28,1.28,1.28,0,0,1-.24.48.34.34,0,0,1-.32.06C27.78,10.67,27.73,10.53,27.65,10.39Z"/><path class="cls-4" d="M30.37,16.7a.69.69,0,0,1-.63.71.44.44,0,0,1-.44-.5.7.7,0,0,1,.61-.74A.48.48,0,0,1,30.37,16.7Z"/><path class="cls-4" d="M9.34,16.89a.5.5,0,0,1-.26.48.46.46,0,0,1-.51-.07.73.73,0,0,1-.29-.76.44.44,0,0,1,.65-.31A.76.76,0,0,1,9.34,16.89Z"/></g></g></svg>