<svg xmlns="http://www.w3.org/2000/svg" viewBox="0 0 38.55 24.66"><defs><style>.cls-1{isolation:isolate;}.cls-2{opacity:0.15;}.cls-2,.cls-3{mix-blend-mode:multiply;}.cls-4{fill:#fff;}</style></defs><title>convert-FIX-SVG-03</title><g class="cls-1"><g id="Layer_1" data-name="Layer 1"><g class="cls-2"><path d="M9.46,4.76a2.44,2.44,0,0,1-2,2.53,2.34,2.34,0,0,1,.6,1.59,3.16,3.16,0,0,1-1-1.57,2,2,0,0,0-.25.19,2.68,2.68,0,0,1-1.1.65l.17-.8-.81.33,0,0L5.7,7a3.63,3.63,0,0,1-1-2.4,2.9,2.9,0,0,0,2.54.66A9.3,9.3,0,0,0,9.34,4.8Z"/><path d="M34.63,4.66a3.4,3.4,0,0,1-1,2.35l.66.62,0,0-.82-.33.18.8a2.64,2.64,0,0,1-1.12-.66,1.15,1.15,0,0,0-.23-.18,3.17,3.17,0,0,1-1,1.57,2.31,2.31,0,0,1,.6-1.59c-1.45-.58-2.15-1.47-2-2.5.56.14,1.11.29,1.68.41a5.2,5.2,0,0,0,1.76.08A2.17,2.17,0,0,0,34.63,4.66Z"/><path d="M15.52,3.7l-.41-.13V3.51H16a.56.56,0,0,1-.1.14,3.56,3.56,0,0,0-.53.41l-2.76,3a1.62,1.62,0,0,1-.19.17l-.06,0,.06-1.31-.05,0-.85,1a3.85,3.85,0,0,1-.27.3.86.86,0,0,1-.22.12V7c0-1,.07-2,.1-3,0-.21,0-.42-.29-.39,0,0,0,0,0,0s0,0,0-.06h1.08l0,.06c-.48,0-.39.33-.4.6,0,.83-.05,1.66-.07,2.54l.27-.29.64-.71a.46.46,0,0,0,.09-.2c0-.48.08-1,.11-1.45s0-.34-.29-.46l-.12,0,.06-.08h1.2l0,0a1.34,1.34,0,0,1-.18.07c-.2,0-.31.12-.31.34a11.17,11.17,0,0,0,0,1.16l1.16-1.39-.4-.18v0h1s0,.09-.06.1a1.5,1.5,0,0,0-.84.6c-.32.35-.63.72-.94,1.09a.37.37,0,0,0-.07.16c0,.41-.05.81-.07,1.27C13.73,5.71,14.64,4.75,15.52,3.7Z"/><path d="M20.72,10.66a1.57,1.57,0,0,0-.09.23l-.81,2.35c-.09.28,0,.37.27.41l.23,0,.09.06H19.06l0,0a.91.91,0,0,1,.14-.07.56.56,0,0,0,.46-.41l.69-1.88.31-.85c.08-.21.05-.27-.17-.31l-.45,0v-.06a.67.67,0,0,1,.19,0c.22,0,.45,0,.67,0a.19.19,0,0,1,.22.19c.14.78.28,1.55.43,2.33,0,.16.05.32.1.55.11-.18.2-.31.27-.44.47-.8.94-1.59,1.39-2.39a.4.4,0,0,1,.42-.24c.2,0,.4,0,.61,0a.81.81,0,0,1-.22.07.42.42,0,0,0-.37.39c-.14.86-.3,1.72-.45,2.58v0c-.06.38,0,.4.34.47l.19,0v.05H22.3l0,0a.48.48,0,0,1,.14-.05c.4,0,.41,0,.48-.43.15-.88.3-1.77.41-2.68l-.1.14-1.74,3a2.09,2.09,0,0,1-.14.17l-.57-3.22Z"/><path d="M6.9,22.09c0-.29,0-.58,0-.87a30.89,30.89,0,0,0-.51-5.42,13.42,13.42,0,0,1-.12-2,30.15,30.15,0,0,1,.51-6,1.12,1.12,0,0,1,.11-.25H7c-.05.43-.1.85-.14,1.27A32.25,32.25,0,0,0,6.66,15c.07.78.24,1.55.34,2.32a17.17,17.17,0,0,1,.19,3.72,9.18,9.18,0,0,1-.2,1Z"/><path d="M32.37,22.14a3.86,3.86,0,0,1-.17-.58,7.86,7.86,0,0,1-.06-2.42c.13-1.29.36-2.57.48-3.86a24.33,24.33,0,0,0,.09-3c0-1.28-.17-2.56-.27-3.84,0-.31-.07-.61-.07-.94a.71.71,0,0,1,.11.21A24.8,24.8,0,0,1,33,11.68c0,1,.07,2.06,0,3.09a16.91,16.91,0,0,1-.25,2A26.84,26.84,0,0,0,32.37,22.14Z"/><path d="M13.47,10.1h.25c.51,0,1,0,1.52.05a.72.72,0,0,1,.63.93,1.51,1.51,0,0,1-.39.45,2,2,0,0,1-.29.16s.05,0,.07,0a.93.93,0,0,1,.36,1.62,1.35,1.35,0,0,1-1.06.42c-.38,0-.75,0-1.12,0-.19,0-.37,0-.56,0v0l.22-.06c.31,0,.36-.05.42-.37.11-.54.2-1.08.3-1.62.06-.37.12-.74.19-1.1s0-.29-.24-.33l-.28-.05S13.47,10.16,13.47,10.1Zm.87,3.56a1,1,0,0,0,1.09-.72c.22-.56,0-1-.54-1.09a2.33,2.33,0,0,0-.59,0c-.05,0-.13.08-.14.14-.1.43-.18.87-.26,1.3-.05.27,0,.35.29.37Zm-.13-2a1.28,1.28,0,0,0,1-.28.7.7,0,0,0,.06-1,.86.86,0,0,0-.77-.17c-.05,0-.1.11-.12.18s-.08.42-.12.64S14.25,11.47,14.21,11.69Z"/><path d="M6.93,4.39c-.45-.07-.91-.13-1.36-.23-.13,0-.24-.17-.36-.26.12-.09.22-.23.35-.27a4.76,4.76,0,0,1,2-.16,4.68,4.68,0,0,1,.9.2c.1,0,.17.15.26.22-.09.08-.16.19-.26.23a3.68,3.68,0,0,1-1.47.22Z"/><path d="M32.37,4.4c-.46-.08-.92-.14-1.37-.24-.13,0-.23-.17-.34-.27A1.19,1.19,0,0,1,31,3.63a5,5,0,0,1,2.75,0c.13,0,.23.18.35.27-.12.09-.22.23-.35.26C33.3,4.26,32.84,4.32,32.37,4.4Z"/><path d="M22.72,3.53a1,1,0,0,1-.23.08c-.25.05-.26.06-.15.28L23,5.26l.8-.76c.19-.18.38-.35.56-.55a.35.35,0,0,0,.1-.25c0-.05-.14-.09-.23-.11a2,2,0,0,1-.31-.07c.43-.14.88.06,1.3-.09l0,.07s-.07.07-.11.07a1.27,1.27,0,0,0-.62.39c-.42.41-.86.81-1.29,1.22a.83.83,0,0,0-.16.29c-.1.37-.18.75-.27,1.13s0,.43.34.45a1.18,1.18,0,0,1,.2,0v.06H21.68l0-.05c.06,0,.13-.08.19-.07.38,0,.52-.19.58-.54s.15-.63.22-.94a.48.48,0,0,0,0-.26c-.23-.47-.49-.92-.71-1.4a.51.51,0,0,0-.46-.32.48.48,0,0,1-.17,0v0H22.7Z"/><path d="M13,16.73h1.24s0,0,0,0a1.54,1.54,0,0,0-.84.53c-.9.91-1.81,1.81-2.72,2.72a5.34,5.34,0,0,1-.44.39,1.14,1.14,0,0,1-.19.09c0-.14,0-.25,0-.36l.09-2.9c0-.33,0-.43-.36-.42a.26.26,0,0,1-.2-.09h1.58v.06a3.11,3.11,0,0,1-.32,0c-.21,0-.33.1-.34.32,0,1-.07,1.93-.11,2.89l.07,0L13.5,17l0-.07-.28-.06-.23,0Z"/><path d="M23.8,20.43l.79-2-.08-.06-.48.46a1.35,1.35,0,0,1,.72-.71c.13-.05.2,0,.15.2s-.18.48-.27.71a1,1,0,0,0-.07.29c.12-.16.25-.33.38-.48s.33-.37.51-.54a1,1,0,0,1,.35-.18c.17-.05.28.05.25.22a2.13,2.13,0,0,1-.15.49c-.16.39-.34.77-.51,1.16a1.18,1.18,0,0,0-.07.2l.05,0,.5-.53.08.07c-.22.22-.43.44-.66.64-.06.05-.19,0-.29,0a.57.57,0,0,1,0-.26c.18-.44.38-.87.58-1.31a.61.61,0,0,0,.07-.17c0-.11,0-.22.05-.33a1.28,1.28,0,0,0-.31.15,5.63,5.63,0,0,0-1.27,1.78C24.07,20.44,24,20.53,23.8,20.43Z"/><path d="M19.26,19.36c.27-.32.5-.61.75-.88a1.69,1.69,0,0,1,.49-.35c.2-.09.34,0,.29.25a4.39,4.39,0,0,1-.21.61c-.14.34-.3.67-.45,1,0,.06,0,.12-.07.19l.06,0,.5-.53,0,0a1.72,1.72,0,0,1-.63.68.86.86,0,0,1-.28,0,.75.75,0,0,1,0-.26c.19-.45.39-.89.59-1.33a1.36,1.36,0,0,0,.11-.25,1,1,0,0,0,0-.24c-.08,0-.18,0-.22.08a12.26,12.26,0,0,0-.89,1,8,8,0,0,0-.49.86c-.06.13-.15.18-.31.1l.79-2-.08-.05-.49.45a1.29,1.29,0,0,1,.68-.68c.05,0,.16,0,.17,0a.25.25,0,0,1,0,.19l-.3.82Z"/><path d="M27.06,5.1l-.58.52s0-.07,0-.08c.23-.21.47-.44.71-.64.05,0,.16,0,.23,0a.49.49,0,0,1,0,.24c-.2.44-.43.88-.64,1.32a1.75,1.75,0,0,0-.17.47l.16-.1A5,5,0,0,0,28.29,5c.06-.14.13-.2.3-.1L27.76,7l.06,0,.47-.46,0,0a1.87,1.87,0,0,1-.64.61.2.2,0,0,1-.17,0,.17.17,0,0,1,0-.17q.15-.42.33-.84a.94.94,0,0,0,.08-.31l-.24.26a4.62,4.62,0,0,1-1.15,1,1.18,1.18,0,0,1-.27.06.66.66,0,0,1,0-.28c.26-.54.54-1.09.8-1.63a.59.59,0,0,0,.06-.14Z"/><path d="M30.66,3.46l-.22.34a.37.37,0,0,0,.21.58,1.6,1.6,0,0,0,.49.12c.67,0,1.34,0,2,0,.07,0,.2.06.2.1s0,.23-.09.26a1,1,0,0,1-.48.13,6.54,6.54,0,0,1-2.41-.37c-.24-.09-.51-.2-.52-.5s.24-.43.47-.56A2.84,2.84,0,0,1,30.66,3.46Z"/><path d="M8.74,3.45a5,5,0,0,1,.6.43.33.33,0,0,1-.05.58,2.84,2.84,0,0,1-.78.34A5.75,5.75,0,0,1,6.33,5,.49.49,0,0,1,6,4.9.34.34,0,0,1,6,4.65c0-.13.11-.11.21-.11l2.22-.07.12,0c.46-.13.55-.39.28-.78l-.1-.14Z"/><path d="M30.66,12a2.61,2.61,0,0,1-1.3-.81,1,1,0,0,1-.2-.81c0-.16.1-.21.26-.19a1.3,1.3,0,0,1,1.24,1.35C30.67,11.72,30.66,11.85,30.66,12Z"/><path d="M8.69,12a1.38,1.38,0,0,1,1.25-1.79c.15,0,.2.06.22.18a1.07,1.07,0,0,1-.31.95A2.91,2.91,0,0,1,8.69,12Z"/><path d="M24.31,12.28a1,1,0,0,1,.3-.79.24.24,0,0,1,.37.15,3.39,3.39,0,0,1,.15.89c0,.39-.06.78-.1,1.2.07-.12.14-.22.2-.33a3,3,0,0,0,.45-1.63.6.6,0,0,1,.1-.3s.12,0,.12,0a.82.82,0,0,1,0,.31,5.25,5.25,0,0,1-1.44,2.75,1.79,1.79,0,0,1-1.34.58.85.85,0,0,1-.37-.12c-.05,0,0-.15-.06-.24l.23,0a.19.19,0,0,1,.11.09.44.44,0,0,0,.57.13,1.79,1.79,0,0,0,1.19-1.63c0-.42,0-.84,0-1.27,0,0,0,0,0-.06l-.16-.26a1.39,1.39,0,0,0-.21.21A2,2,0,0,0,24.31,12.28Z"/><path d="M14.78,20.23l.54-.51a1.32,1.32,0,0,1-.73.75c-.14,0-.21,0-.17-.19l.23-.59c-.26.21-.51.45-.79.66a.43.43,0,0,1-.53.07c-.17-.13-.12-.34-.07-.51a2.17,2.17,0,0,1,1.29-1.5,2.09,2.09,0,0,1,.51-.08.94.94,0,0,0,.15-.06l.22-.1.05.06-.36,1c-.13.33-.26.66-.38,1ZM13.52,20c0,.07.06.18.12.2a.32.32,0,0,0,.27,0,5.28,5.28,0,0,0,.73-.69,2.77,2.77,0,0,0,.34-.69.23.23,0,0,0-.33-.3A2.35,2.35,0,0,0,13.52,20Z"/><path d="M24.26,6.47A2,2,0,0,1,25,5a.85.85,0,0,1,.3-.15.46.46,0,0,1,.63.39A1.82,1.82,0,0,1,25.28,7a1,1,0,0,1-.27.15.51.51,0,0,1-.74-.48A1.48,1.48,0,0,1,24.26,6.47Zm1.53-1.25S25.73,5,25.65,5a.32.32,0,0,0-.28,0,1,1,0,0,0-.29.31c-.19.37-.35.76-.51,1.14a.91.91,0,0,0-.05.33.24.24,0,0,0,.36.24.52.52,0,0,0,.19-.14A3.56,3.56,0,0,0,25.79,5.22Z"/><path d="M30.64,12.37a1.2,1.2,0,0,1-1.75.94c-.13-.06-.14-.13-.11-.25a.75.75,0,0,1,.48-.5A3,3,0,0,1,30.64,12.37Z"/><path d="M8.68,12.37a2.85,2.85,0,0,1,1.45.22.66.66,0,0,1,.4.49.26.26,0,0,1-.09.21A1.19,1.19,0,0,1,8.68,12.37Z"/><path d="M19.42,3.49l.69-.05L18.7,7c.34-.09.49-.37.7-.56l.06,0a1.73,1.73,0,0,1-.23.29,4.66,4.66,0,0,1-.59.43c-.07,0-.18,0-.26,0a.69.69,0,0,1,0-.25c.25-.64.51-1.27.78-1.9.15-.37.3-.74.46-1.1.08-.18.09-.32-.14-.36a.09.09,0,0,1,0,0S19.43,3.54,19.42,3.49Z"/><path d="M18.12,3.5l.72-.07L17.43,7c.34-.09.49-.37.71-.56l.05,0a2.94,2.94,0,0,1-.32.37,4.28,4.28,0,0,1-.57.37.21.21,0,0,1-.19,0s0-.12,0-.19a1.27,1.27,0,0,1,.06-.18c.37-.87.73-1.75,1.1-2.62l0-.08C18.45,3.74,18.45,3.74,18.12,3.5Z"/><path d="M16,20.25l.65-.58a1.46,1.46,0,0,1-.9.79c-.15.05-.22,0-.16-.18s.19-.5.29-.74l.93-2.24c.14-.33.14-.33-.22-.54l.74-.07L15.92,20.2Z"/><path d="M28.73,17.36c-.09-.41.49-.77,1-.54A.77.77,0,0,1,30,17.93a1.71,1.71,0,0,1-.38.38c-.24.19-.49.34-.72.53a1.27,1.27,0,0,0-.27.34.23.23,0,0,0,.08.35.27.27,0,0,0,.38-.05c.07-.08.13-.18.21-.29a.3.3,0,0,1-.11.36.4.4,0,0,1-.47.13.48.48,0,0,1-.27-.62,1.82,1.82,0,0,1,.37-.61,5.41,5.41,0,0,1,.65-.51,2.41,2.41,0,0,0,.24-.21.48.48,0,0,0,.15-.54.5.5,0,0,0-.46-.31.52.52,0,0,0-.54.29C28.82,17.24,28.77,17.3,28.73,17.36Z"/><path d="M22.16,18.26l.53,0,0,.05a.67.67,0,0,1-.12.06,1.13,1.13,0,0,1-.26,0,.31.31,0,0,0-.33.22c-.18.46-.38.9-.57,1.34a.46.46,0,0,0-.05.21c.31-.08.49-.35.74-.51a1.87,1.87,0,0,1-.93.8c-.16.06-.25-.05-.18-.22.17-.41.35-.82.53-1.22.09-.19.17-.39.26-.61l-.44,0v-.07a1.17,1.17,0,0,1,.2-.05A.41.41,0,0,0,22,18a1,1,0,0,1,.15-.34c.05-.07.15-.09.22-.14a.69.69,0,0,1,0,.24C22.35,17.89,22.26,18.05,22.16,18.26Z"/><path d="M17.58,13a1.3,1.3,0,0,1-.6.74.37.37,0,0,1-.58-.25,1.17,1.17,0,0,1,.08-.92,6.44,6.44,0,0,1,.62-.92.67.67,0,0,1,.3-.19.34.34,0,0,1,.47.33.73.73,0,0,1-.54.72l-.35.1c-.11,0-.26,0-.29.18s-.12.48.06.69a.28.28,0,0,0,.28,0,3,3,0,0,0,.39-.4l.1-.15Zm-.78-.5,0,.06c.16-.08.33-.13.48-.22a.67.67,0,0,0,.35-.55.28.28,0,0,0-.08-.2.21.21,0,0,0-.2,0A1.89,1.89,0,0,0,16.8,12.52Z"/><path d="M18.13,19.67a1.3,1.3,0,0,1-.64.76.36.36,0,0,1-.54-.26,1.11,1.11,0,0,1,.08-.91,7.55,7.55,0,0,1,.63-1,.64.64,0,0,1,.29-.17.35.35,0,0,1,.48.32.75.75,0,0,1-.55.73l-.34.1c-.12,0-.26,0-.3.18s-.12.48.06.69a.28.28,0,0,0,.28,0,2.89,2.89,0,0,0,.38-.4.72.72,0,0,0,.11-.15Zm-.8-.44.36-.12a.79.79,0,0,0,.53-.65.23.23,0,0,0-.08-.2.21.21,0,0,0-.2,0A2,2,0,0,0,17.33,19.23Z"/><path d="M27.54,19.67a1.3,1.3,0,0,1-.64.76.37.37,0,0,1-.55-.26,1.36,1.36,0,0,1,.06-.89,2.56,2.56,0,0,1,.67-1l.13-.1c.17-.09.33-.14.49,0a.41.41,0,0,1,.1.49.83.83,0,0,1-.55.51c-.09,0-.19,0-.28.08s-.27.09-.3.17a.72.72,0,0,0,0,.67.19.19,0,0,0,.31.07,5.08,5.08,0,0,0,.39-.41.78.78,0,0,0,.1-.15Zm-.79-.5.05,0c.14-.06.28-.11.42-.18a.71.71,0,0,0,.4-.57.23.23,0,0,0-.09-.21.19.19,0,0,0-.2,0A2.06,2.06,0,0,0,26.75,19.17Z"/><path d="M16,5.51a1.23,1.23,0,0,1,.7-.63c.06,0,.17,0,.21,0a.2.2,0,0,1,0,.2c-.16.38-.34.74-.51,1.11-.09.18-.2.36-.3.54a1.17,1.17,0,0,0-.06.2l.07.06.61-.55a1.23,1.23,0,0,1-.7.73.31.31,0,0,1-.25,0,.25.25,0,0,1,0-.23c.13-.29.26-.59.4-.88s.26-.47.38-.71a.72.72,0,0,0,.08-.22l-.06,0Z"/><path d="M23.24,18.33l-.56.44a1.21,1.21,0,0,1,.75-.65c.16-.05.25.05.18.21-.16.38-.34.75-.51,1.11l-.31.56a1.17,1.17,0,0,0-.06.2l.07.05.61-.54a1.23,1.23,0,0,1-.7.73.31.31,0,0,1-.25,0s0-.16,0-.23c.13-.3.26-.59.4-.88s.26-.47.38-.71a.83.83,0,0,0,.08-.22Z"/><path d="M8.91,3.4a5.6,5.6,0,0,0-2.77-.46A2.16,2.16,0,0,1,8.91,3.4Z"/><path d="M30.4,3.41a2.18,2.18,0,0,1,2.8-.47A5.51,5.51,0,0,0,30.4,3.41Z"/><path d="M5.31,16.31a1,1,0,0,1-.88-.64c0-.23,0-.3.25-.26A.75.75,0,0,1,5.31,16.31Z"/><path d="M34,16.38c0-.59.23-.93.67-1,.19,0,.27,0,.22.23a.81.81,0,0,1-.24.4A4,4,0,0,1,34,16.38Z"/><path d="M6.32,3.21l-.77.19a1.3,1.3,0,0,0-.34.15c-.3.18-.33.39-.13.67a3,3,0,0,1,.18.3l-.06.05a.54.54,0,0,1-.12-.09A4,4,0,0,1,4.74,4a.38.38,0,0,1,.18-.61,2.26,2.26,0,0,1,.69-.18A5.68,5.68,0,0,1,6.32,3.21Z"/><path d="M34.06,4.53a1.58,1.58,0,0,1,.13-.26c.26-.32.23-.58-.14-.74s-.73-.24-1.1-.39c.43.06.87.09,1.29.19s.53.42.27.8c-.11.15-.24.3-.36.45Z"/><path d="M5.34,16.49a.67.67,0,0,1-.84.68c-.15,0-.19-.12-.13-.24a.44.44,0,0,1,.18-.2C4.8,16.64,5.06,16.57,5.34,16.49Z"/><path d="M34,16.56c.51-.06.92.16,1,.52A.63.63,0,0,1,34,16.56Z"/><path d="M32.54,15a3.86,3.86,0,0,0-2-2.83,1.73,1.73,0,0,1,1.13.65,3.84,3.84,0,0,1,.72,1.51C32.46,14.53,32.49,14.76,32.54,15Z"/><path d="M8.78,12.14a3.69,3.69,0,0,0-1.94,2.69A2.83,2.83,0,0,1,8.78,12.14Z"/><path d="M31.18,12.22c.05-.22.07-.4.12-.57a.29.29,0,0,1,.12-.16,2.38,2.38,0,0,1,.37-.06.85.85,0,0,1,0,.32A1,1,0,0,1,31.18,12.22Z"/><path d="M7.5,11.43c.41-.14.65.26.59.73A.68.68,0,0,1,7.5,11.43Z"/><path d="M28.86,20.15a.3.3,0,0,1-.28.32.24.24,0,0,1-.24-.26.31.31,0,0,1,.28-.32A.24.24,0,0,1,28.86,20.15Z"/><path d="M17,4.12c-.2,0-.28-.12-.27-.26A.23.23,0,0,1,17,3.62c.14,0,.25.09.22.23S17.1,4,17,4.12Z"/><path d="M23.67,17.38c-.19-.05-.27-.13-.26-.27a.23.23,0,0,1,.25-.23c.14,0,.24.1.21.23S23.74,17.29,23.67,17.38Z"/><path d="M6.38,17.46a2.31,2.31,0,0,0-.93-1A1.4,1.4,0,0,1,6.38,17.46Z"/><path d="M33.89,16.46a2.21,2.21,0,0,0-.91.93A1.28,1.28,0,0,1,33.89,16.46Z"/><path d="M5.67,16.38c0-.31,0-.43.28-.42A.35.35,0,0,1,5.67,16.38Z"/><path d="M33.62,16.42a2.26,2.26,0,0,1-.25-.29s0-.11,0-.17.17,0,.19,0,.09.25.14.37Z"/><path d="M9.66,5a2.45,2.45,0,0,1-2,2.53,2.34,2.34,0,0,1,.6,1.59,3.16,3.16,0,0,1-1-1.57A2,2,0,0,0,7,7.7a2.87,2.87,0,0,1-1.1.65l.17-.8-.81.32,0,0,.66-.62A3.59,3.59,0,0,1,4.85,4.82a2.9,2.9,0,0,0,2.54.66A8.83,8.83,0,0,0,9.54,5Z"/><path d="M34.83,4.86a3.45,3.45,0,0,1-1,2.35l.66.62,0,0-.83-.32.19.8a2.57,2.57,0,0,1-1.12-.67,2.77,2.77,0,0,0-.23-.17,3.29,3.29,0,0,1-1,1.57,2.31,2.31,0,0,1,.6-1.59c-1.45-.58-2.15-1.47-2-2.5.56.14,1.11.29,1.67.41a5.27,5.27,0,0,0,1.77.08A2.2,2.2,0,0,0,34.83,4.86Z"/><path d="M15.72,3.9l-.41-.14v0h.92l-.1.13a4.45,4.45,0,0,0-.53.42l-2.76,3a1.46,1.46,0,0,1-.19.16l-.06,0,.06-1.3-.05,0-.85,1-.27.3a1.35,1.35,0,0,1-.22.12V7.16c0-1,.07-2,.1-3,0-.21,0-.41-.29-.39,0,0,0,0,0,0s0,0,0-.06h1.08l.05.06c-.48,0-.39.33-.4.6,0,.83,0,1.66-.07,2.53L12,6.63c.21-.24.43-.47.63-.71a.38.38,0,0,0,.1-.2c0-.49.08-1,.11-1.46,0-.33,0-.33-.29-.45l-.12,0,.06-.07h1.2l0,0a1.34,1.34,0,0,1-.18.07c-.2,0-.31.12-.31.34,0,.38,0,.76,0,1.16l1.17-1.39-.4-.18v0H15s0,.09-.06.09a1.57,1.57,0,0,0-.84.61c-.32.35-.63.72-.94,1.09a.26.26,0,0,0-.07.16c0,.4-.05.81-.08,1.26C13.93,5.91,14.84,5,15.72,3.9Z"/><path d="M20.92,10.86a1.57,1.57,0,0,0-.09.23L20,13.44c-.09.27,0,.37.27.41l.22,0,.1.07H19.26l0,0c.05,0,.09-.07.13-.07a.56.56,0,0,0,.47-.41l.69-1.88c.1-.29.21-.57.31-.85s0-.27-.17-.31a3.4,3.4,0,0,0-.45,0v-.06a.59.59,0,0,1,.19-.05l.67,0a.19.19,0,0,1,.22.19l.42,2.33c0,.16.06.31.11.54.11-.17.2-.3.27-.43.47-.8.94-1.59,1.39-2.4a.41.41,0,0,1,.42-.23c.2,0,.4,0,.61,0l-.22.07a.42.42,0,0,0-.37.39c-.14.86-.3,1.72-.45,2.58a.06.06,0,0,0,0,0c-.06.38,0,.4.34.46l.19.05v0H22.5l0,0a.39.39,0,0,1,.14-.05c.4,0,.41,0,.48-.43.15-.89.3-1.77.41-2.68l-.1.14-1.74,3a2.09,2.09,0,0,1-.14.17L21,10.86Z"/><path d="M7.1,22.28c0-.28,0-.57,0-.86A30.8,30.8,0,0,0,6.63,16a15,15,0,0,1-.13-2A30.88,30.88,0,0,1,7,8a1.12,1.12,0,0,1,.11-.25h0c0,.43-.1.85-.14,1.27a32.25,32.25,0,0,0-.18,6.21c.07.78.24,1.55.34,2.32a17.08,17.08,0,0,1,.19,3.71,8.92,8.92,0,0,1-.2,1Z"/><path d="M32.57,22.34a4.23,4.23,0,0,1-.17-.58,7.86,7.86,0,0,1-.06-2.42c.13-1.29.36-2.57.48-3.86a24.33,24.33,0,0,0,.09-3c0-1.28-.17-2.56-.27-3.84,0-.31-.07-.61-.07-.94a.71.71,0,0,1,.11.21,27.37,27.37,0,0,1,.47,3.93c0,1,.06,2.06,0,3.09a17.18,17.18,0,0,1-.25,2A26.84,26.84,0,0,0,32.57,22.34Z"/><path d="M13.66,10.3h.26c.51,0,1,0,1.52,0a.72.72,0,0,1,.63.93,1.51,1.51,0,0,1-.39.45,1.32,1.32,0,0,1-.29.15s0,0,.07,0a.93.93,0,0,1,.36,1.62,1.35,1.35,0,0,1-1.07.42c-.37,0-.74,0-1.12,0l-.55,0v-.06l.22-.05c.31,0,.35,0,.42-.37.11-.54.2-1.08.29-1.62.07-.37.13-.74.19-1.1s0-.29-.23-.33l-.28,0S13.67,10.36,13.66,10.3Zm.88,3.55a1,1,0,0,0,1.09-.71c.22-.56,0-1-.54-1.1a2.92,2.92,0,0,0-.59,0c-.05,0-.13.08-.14.14-.1.43-.18.86-.26,1.3,0,.27,0,.35.29.36Zm-.13-2a1.31,1.31,0,0,0,1.05-.28.7.7,0,0,0,.06-1,.86.86,0,0,0-.77-.17c-.05,0-.1.11-.12.17-.05.22-.08.43-.12.65S14.45,11.67,14.41,11.89Z"/><path d="M7.13,4.59c-.45-.07-.91-.13-1.36-.23-.13,0-.24-.17-.36-.26a1.22,1.22,0,0,1,.35-.27,4.75,4.75,0,0,1,2-.16,4.85,4.85,0,0,1,.9.2c.1,0,.17.14.25.22-.08.08-.15.19-.25.23a3.68,3.68,0,0,1-1.47.22Z"/><path d="M32.57,4.59c-.46-.07-.92-.13-1.37-.23-.13,0-.23-.18-.34-.27.11-.09.21-.23.34-.26a5,5,0,0,1,2.75,0,1.07,1.07,0,0,1,.34.27c-.11.09-.21.23-.34.26C33.5,4.46,33,4.52,32.57,4.59Z"/><path d="M22.92,3.73l-.23.08c-.25,0-.26.06-.15.27.22.45.43.9.67,1.38L24,4.7c.19-.18.38-.36.56-.55a.36.36,0,0,0,.1-.25s-.15-.09-.23-.11-.2,0-.31-.07c.43-.15.87,0,1.3-.09l0,.06s-.06.08-.1.08a1.27,1.27,0,0,0-.62.39c-.42.41-.86.81-1.29,1.22a.75.75,0,0,0-.16.29c-.1.37-.18.75-.27,1.12s0,.44.34.46a1.42,1.42,0,0,1,.2,0v.06H21.88l0,0c.06,0,.13-.08.19-.07.38,0,.52-.2.58-.54s.15-.63.22-.94a.55.55,0,0,0-.05-.26c-.24-.47-.49-.93-.71-1.4a.52.52,0,0,0-.47-.32l-.17,0V3.67h1.43Z"/><path d="M13.17,16.93h1.24s0,0,0,0a1.49,1.49,0,0,0-.84.53c-.9.91-1.81,1.81-2.72,2.72a5.34,5.34,0,0,1-.44.39,1,1,0,0,1-.2.09c0-.14,0-.25,0-.36l.09-2.9c0-.33,0-.43-.36-.42a.28.28,0,0,1-.2-.09h1.58V17L11,17c-.21,0-.33.1-.34.31,0,1-.07,1.93-.11,2.9l.06,0,3.08-3.12,0-.07L13.39,17l-.23,0Z"/><path d="M24,20.63l.79-2-.08-.06-.48.46a1.32,1.32,0,0,1,.72-.71c.13-.05.2,0,.14.2s-.17.48-.26.71a.88.88,0,0,0-.07.29c.12-.16.25-.33.38-.48a6.51,6.51,0,0,1,.51-.54,1.08,1.08,0,0,1,.35-.19c.17,0,.28.06.25.23a2.13,2.13,0,0,1-.15.49c-.16.38-.34.77-.51,1.15a1.72,1.72,0,0,0-.07.21l.05,0,.5-.53.07.07c-.21.22-.42.44-.65.64-.06.05-.19,0-.29,0a.75.75,0,0,1,0-.26c.19-.44.39-.87.59-1.31a1.22,1.22,0,0,0,.07-.17c0-.11,0-.22,0-.33a1.4,1.4,0,0,0-.3.15,5.47,5.47,0,0,0-1.27,1.78C24.27,20.64,24.19,20.73,24,20.63Z"/><path d="M19.46,19.56c.27-.33.5-.62.75-.88a1.69,1.69,0,0,1,.49-.35c.2-.09.34,0,.29.25a4.39,4.39,0,0,1-.21.61c-.14.34-.3.67-.45,1,0,.06,0,.12-.07.19l.06,0,.5-.53,0,0a1.69,1.69,0,0,1-.62.68.65.65,0,0,1-.28,0,.7.7,0,0,1,0-.25c.19-.45.39-.89.59-1.33,0-.09.08-.17.11-.25a1,1,0,0,0,0-.24c-.08,0-.18,0-.23.08-.3.33-.61.66-.88,1a6.59,6.59,0,0,0-.49.86.2.2,0,0,1-.31.1l.79-2-.08-.06L19,19a1.31,1.31,0,0,1,.68-.69c.05,0,.16,0,.17,0a.35.35,0,0,1,0,.2c-.1.28-.2.54-.31.81C19.51,19.4,19.5,19.45,19.46,19.56Z"/><path d="M27.26,5.3l-.58.52s0-.07,0-.08c.23-.22.46-.44.71-.65.05,0,.15,0,.23,0s0,.17,0,.23c-.21.45-.43.89-.64,1.33a1.75,1.75,0,0,0-.17.47L27,7A5.15,5.15,0,0,0,28.49,5.2c.06-.14.13-.21.3-.11L28,7.16l.06,0,.47-.47,0,0a1.73,1.73,0,0,1-.63.6.17.17,0,0,1-.17,0,.21.21,0,0,1,0-.17L28,6.37a.65.65,0,0,0,.08-.31c-.07.09-.15.17-.23.26a4.49,4.49,0,0,1-1.16,1,1.07,1.07,0,0,1-.27.06c0-.1,0-.2,0-.28.26-.55.53-1.09.8-1.63a1.47,1.47,0,0,0,.06-.14Z"/><path d="M30.86,3.66a3.14,3.14,0,0,0-.22.34.37.37,0,0,0,.21.58,1.61,1.61,0,0,0,.48.12l2,0c.08,0,.21.06.21.1s0,.23-.09.26a1.19,1.19,0,0,1-.49.13,6.74,6.74,0,0,1-2.4-.37c-.24-.09-.51-.2-.52-.5s.24-.44.47-.56A2.27,2.27,0,0,1,30.86,3.66Z"/><path d="M8.93,3.65a5.47,5.47,0,0,1,.61.42.34.34,0,0,1,0,.59A2.84,2.84,0,0,1,8.71,5a5.75,5.75,0,0,1-2.18.21.49.49,0,0,1-.29-.11.34.34,0,0,1-.08-.25c0-.13.11-.11.21-.11l2.21-.07.13,0c.46-.13.55-.4.27-.79a1.13,1.13,0,0,0-.1-.13Z"/><path d="M30.86,12.24a2.68,2.68,0,0,1-1.3-.81,1,1,0,0,1-.21-.82c0-.16.11-.2.26-.18a1.31,1.31,0,0,1,1.25,1.35C30.87,11.91,30.86,12.05,30.86,12.24Z"/><path d="M8.89,12.22a1.39,1.39,0,0,1,1.25-1.8c.15,0,.19.07.21.19a1.08,1.08,0,0,1-.3,1A2.91,2.91,0,0,1,8.89,12.22Z"/><path d="M24.51,12.48a1,1,0,0,1,.3-.79.24.24,0,0,1,.37.15,3.39,3.39,0,0,1,.15.89c0,.39-.07.78-.11,1.19A3.3,3.3,0,0,0,25.87,12a.82.82,0,0,1,.1-.3s.13,0,.13,0a.82.82,0,0,1,0,.31,5.28,5.28,0,0,1-1.44,2.75,1.79,1.79,0,0,1-1.34.58,1,1,0,0,1-.37-.12c-.05,0,0-.16-.06-.24a.86.86,0,0,1,.23,0s.09.05.11.08a.44.44,0,0,0,.57.14A1.81,1.81,0,0,0,25,13.54c0-.42,0-.84,0-1.27v-.06L24.86,12a1.34,1.34,0,0,0-.21.2A1.72,1.72,0,0,0,24.51,12.48Z"/><path d="M15,20.42l.54-.5a1.35,1.35,0,0,1-.73.75c-.14,0-.21-.05-.17-.19s.16-.41.22-.59c-.25.21-.5.45-.78.66a.44.44,0,0,1-.53.07c-.18-.13-.12-.34-.07-.51a2.17,2.17,0,0,1,1.28-1.5,2.17,2.17,0,0,1,.52-.08l.15-.06.21-.1.06.06-.36,1c-.13.33-.26.66-.38,1Zm-1.26-.23c0,.07.06.18.11.2a.33.33,0,0,0,.28,0,5.3,5.3,0,0,0,.72-.7,2.36,2.36,0,0,0,.35-.69.31.31,0,0,0,0-.28.33.33,0,0,0-.29,0A2.37,2.37,0,0,0,13.72,20.19Z"/><path d="M24.46,6.66a2,2,0,0,1,.77-1.43.77.77,0,0,1,.3-.15.46.46,0,0,1,.63.39,1.8,1.8,0,0,1-.68,1.74.92.92,0,0,1-.27.16.51.51,0,0,1-.74-.48A1.55,1.55,0,0,1,24.46,6.66ZM26,5.42c0-.06-.06-.18-.14-.22a.36.36,0,0,0-.28,0,.86.86,0,0,0-.29.31c-.19.37-.35.75-.51,1.14a.74.74,0,0,0-.05.33.24.24,0,0,0,.36.23.41.41,0,0,0,.19-.13A3.56,3.56,0,0,0,26,5.42Z"/><path d="M30.84,12.57a1.21,1.21,0,0,1-1.75.94c-.13-.06-.14-.13-.11-.25a.8.8,0,0,1,.47-.51A3.09,3.09,0,0,1,30.84,12.57Z"/><path d="M8.87,12.57a2.87,2.87,0,0,1,1.46.22.69.69,0,0,1,.4.49.27.27,0,0,1-.09.21A1.2,1.2,0,0,1,8.87,12.57Z"/><path d="M19.62,3.69l.68-.06L18.9,7.16c.34-.09.49-.37.7-.56l.06,0a1.73,1.73,0,0,1-.23.29,5,5,0,0,1-.6.43c-.06,0-.17,0-.26,0a1.1,1.1,0,0,1,0-.26c.25-.63.51-1.26.77-1.89l.47-1.11c.08-.17.09-.31-.15-.35l-.05,0A.21.21,0,0,0,19.62,3.69Z"/><path d="M18.32,3.7,19,3.63l-1.4,3.53c.34-.09.49-.37.7-.56l.06.05a2.35,2.35,0,0,1-.33.37,3.57,3.57,0,0,1-.56.36.21.21,0,0,1-.19,0s0-.12,0-.19A.64.64,0,0,1,17.36,7c.36-.87.73-1.75,1.09-2.63a.25.25,0,0,0,0-.07C18.65,3.94,18.65,3.94,18.32,3.7Z"/><path d="M16.17,20.45l.65-.58a1.42,1.42,0,0,1-.89.79c-.15.05-.22,0-.17-.18s.2-.5.3-.74L17,17.5c.14-.33.13-.33-.22-.54l.74-.07-1.4,3.51Z"/><path d="M28.93,17.56c-.09-.41.49-.77,1-.54a.75.75,0,0,1,.28,1.1,1.41,1.41,0,0,1-.38.39c-.23.19-.48.34-.71.53a1.13,1.13,0,0,0-.27.34.23.23,0,0,0,.08.35.27.27,0,0,0,.38-.05c.07-.08.13-.18.21-.29a.3.3,0,0,1-.11.36.41.41,0,0,1-.48.13.5.5,0,0,1-.27-.62,2.2,2.2,0,0,1,.38-.62,5.34,5.34,0,0,1,.65-.5,2.41,2.41,0,0,0,.24-.21.5.5,0,0,0,.15-.54.52.52,0,0,0-.46-.32.53.53,0,0,0-.54.3C29,17.44,29,17.49,28.93,17.56Z"/><path d="M22.36,18.46l.53,0,0,.05-.12.06h-.26a.31.31,0,0,0-.33.22c-.18.45-.38.9-.57,1.34a.46.46,0,0,0-.05.21c.31-.09.49-.35.74-.51a1.91,1.91,0,0,1-.93.8c-.16.06-.26-.05-.18-.23.17-.41.35-.81.53-1.21.09-.2.17-.39.26-.61l-.44,0,0-.07a.8.8,0,0,1,.21-.05.4.4,0,0,0,.45-.31,1.33,1.33,0,0,1,.16-.34c.05-.07.15-.09.22-.14a.69.69,0,0,1,0,.24C22.55,18.09,22.46,18.25,22.36,18.46Z"/><path d="M17.78,13.22a1.34,1.34,0,0,1-.61.74c-.26.15-.48,0-.58-.25a1.22,1.22,0,0,1,.09-.92,7.16,7.16,0,0,1,.62-.93.75.75,0,0,1,.3-.18.34.34,0,0,1,.47.32.74.74,0,0,1-.54.73l-.35.1c-.12,0-.26,0-.29.18s-.12.48.06.68a.28.28,0,0,0,.28,0,3,3,0,0,0,.38-.41.76.76,0,0,0,.11-.14Zm-.78-.5,0,0a3.64,3.64,0,0,0,.49-.22.66.66,0,0,0,.35-.54.26.26,0,0,0-.08-.2.24.24,0,0,0-.2,0A1.92,1.92,0,0,0,17,12.72Z"/><path d="M18.33,19.87a1.3,1.3,0,0,1-.64.76.36.36,0,0,1-.54-.26,1.11,1.11,0,0,1,.08-.91,7.55,7.55,0,0,1,.63-1,.64.64,0,0,1,.29-.17.35.35,0,0,1,.47.32.74.74,0,0,1-.54.73l-.34.1c-.12,0-.27,0-.3.18s-.12.48.06.68a.26.26,0,0,0,.28,0,2.89,2.89,0,0,0,.38-.4l.11-.15Zm-.8-.45.36-.11a.79.79,0,0,0,.53-.65.23.23,0,0,0-.08-.2.21.21,0,0,0-.2,0A2,2,0,0,0,17.53,19.42Z"/><path d="M27.74,19.87a1.31,1.31,0,0,1-.64.75.36.36,0,0,1-.55-.25,1.36,1.36,0,0,1,.06-.89,2.65,2.65,0,0,1,.66-1,.61.61,0,0,1,.14-.1.38.38,0,0,1,.49,0,.41.41,0,0,1,.1.49.83.83,0,0,1-.55.51c-.09,0-.19.05-.28.08s-.27.09-.3.17a.72.72,0,0,0,0,.67.19.19,0,0,0,.31.07,5.08,5.08,0,0,0,.39-.41.78.78,0,0,0,.1-.15Zm-.79-.5.05.05.42-.18a.71.71,0,0,0,.4-.58.24.24,0,0,0-.09-.21.25.25,0,0,0-.2,0A2.06,2.06,0,0,0,27,19.37Z"/><path d="M16.22,5.71a1.23,1.23,0,0,1,.7-.63.3.3,0,0,1,.21,0,.22.22,0,0,1,0,.21c-.16.37-.34.74-.52,1.11-.09.18-.2.35-.29.54a1.17,1.17,0,0,0-.06.2l.06.05L17,6.65a1.23,1.23,0,0,1-.7.73.31.31,0,0,1-.25,0,.25.25,0,0,1,0-.23c.12-.3.26-.59.4-.88s.26-.47.38-.71c0-.07.05-.14.08-.22l-.06-.05Z"/><path d="M23.44,18.53l-.57.44a1.22,1.22,0,0,1,.76-.65c.16-.05.25.05.18.21-.16.38-.34.74-.52,1.11-.09.19-.2.37-.3.56a1.17,1.17,0,0,0-.06.2l.07.05.61-.54a1.23,1.23,0,0,1-.7.73.31.31,0,0,1-.25,0,.25.25,0,0,1,0-.23c.12-.3.26-.59.4-.88s.26-.47.38-.71a1,1,0,0,0,.08-.22Z"/><path d="M9.11,3.6a5.51,5.51,0,0,0-2.77-.46A2.16,2.16,0,0,1,9.11,3.6Z"/><path d="M30.59,3.6a2.2,2.2,0,0,1,2.81-.46A5.66,5.66,0,0,0,30.59,3.6Z"/><path d="M5.51,16.51a.94.94,0,0,1-.88-.64c0-.23,0-.3.25-.26A.76.76,0,0,1,5.51,16.51Z"/><path d="M34.2,16.58c0-.59.22-.93.67-1,.19,0,.27.05.22.23a1,1,0,0,1-.24.4A4,4,0,0,1,34.2,16.58Z"/><path d="M6.52,3.41c-.23.06-.5.11-.77.19a1.54,1.54,0,0,0-.35.15c-.29.18-.32.39-.12.67a3,3,0,0,1,.18.3l-.06,0a.54.54,0,0,1-.12-.09,5.2,5.2,0,0,1-.35-.47.39.39,0,0,1,.19-.62,2.26,2.26,0,0,1,.68-.17A5.87,5.87,0,0,1,6.52,3.41Z"/><path d="M34.26,4.72a1.19,1.19,0,0,1,.13-.25c.26-.32.23-.58-.14-.75s-.73-.23-1.1-.38a10.66,10.66,0,0,1,1.28.19c.46.11.54.41.28.79l-.36.46Z"/><path d="M5.54,16.69a.67.67,0,0,1-.84.68c-.15,0-.19-.12-.13-.24a.44.44,0,0,1,.18-.2C5,16.84,5.26,16.77,5.54,16.69Z"/><path d="M34.18,16.75c.51-.05.92.17,1,.53A.63.63,0,0,1,34.18,16.75Z"/><path d="M32.74,15.18a3.84,3.84,0,0,0-2-2.83,1.69,1.69,0,0,1,1.13.65,3.84,3.84,0,0,1,.72,1.51C32.65,14.73,32.69,15,32.74,15.18Z"/><path d="M9,12.34A3.65,3.65,0,0,0,7,15,2.82,2.82,0,0,1,9,12.34Z"/><path d="M31.38,12.42a5.08,5.08,0,0,1,.12-.57c0-.06.07-.15.12-.16a1.59,1.59,0,0,1,.37-.06A.87.87,0,0,1,32,12,1,1,0,0,1,31.38,12.42Z"/><path d="M7.7,11.63c.41-.14.65.26.59.73A.68.68,0,0,1,7.7,11.63Z"/><path d="M29.05,20.35c0,.17-.12.33-.27.32s-.23-.11-.24-.27a.32.32,0,0,1,.28-.32A.25.25,0,0,1,29.05,20.35Z"/><path d="M17.23,4.32C17,4.27,17,4.2,17,4.05a.22.22,0,0,1,.24-.23c.14,0,.25.09.22.23S17.29,4.23,17.23,4.32Z"/><path d="M23.87,17.58c-.19,0-.27-.13-.26-.27a.23.23,0,0,1,.25-.23.19.19,0,0,1,.21.23C24.05,17.41,23.94,17.49,23.87,17.58Z"/><path d="M6.58,17.66a2.31,2.31,0,0,0-.93-1A1.4,1.4,0,0,1,6.58,17.66Z"/><path d="M34.08,16.66a2.13,2.13,0,0,0-.9.93A1.25,1.25,0,0,1,34.08,16.66Z"/><path d="M5.86,16.58c0-.31,0-.43.29-.42C6.17,16.39,6.09,16.5,5.86,16.58Z"/><path d="M33.81,16.62c-.08-.1-.17-.19-.24-.29s0-.11,0-.17.17,0,.19,0a2.32,2.32,0,0,1,.13.37Z"/></g><g class="cls-3"><path d="M9.32,4.62a2.45,2.45,0,0,1-2,2.53,2.34,2.34,0,0,1,.6,1.59,3.16,3.16,0,0,1-1-1.57,2,2,0,0,0-.25.19A2.87,2.87,0,0,1,5.57,8l.17-.8-.81.32,0,0,.66-.62a3.59,3.59,0,0,1-1-2.39,2.93,2.93,0,0,0,2.54.66A8.83,8.83,0,0,0,9.2,4.65Z"/><path d="M34.49,4.52a3.45,3.45,0,0,1-1,2.35l.66.62,0,0-.83-.32.19.8a2.57,2.57,0,0,1-1.12-.67,2.77,2.77,0,0,0-.23-.17,3.29,3.29,0,0,1-1,1.57,2.31,2.31,0,0,1,.6-1.59c-1.45-.58-2.15-1.47-2-2.5.56.14,1.11.29,1.67.41a5.27,5.27,0,0,0,1.77.08A2.2,2.2,0,0,0,34.49,4.52Z"/><path d="M15.38,3.56,15,3.42v0h.92l-.1.13a4.45,4.45,0,0,0-.53.42c-.92,1-1.84,2-2.76,3a1.46,1.46,0,0,1-.19.16l-.06,0,.06-1.3-.05,0-.85,1-.27.3a1.35,1.35,0,0,1-.22.12V6.82c0-1,.07-2,.1-3,0-.21,0-.41-.29-.39,0,0,0,0,0,0s0,0,0-.06h1.08l.05.06c-.48,0-.39.33-.4.6,0,.83-.05,1.66-.07,2.53l.27-.28c.21-.24.43-.47.63-.71a.38.38,0,0,0,.1-.2c0-.49.08-1,.11-1.46,0-.33,0-.33-.29-.45l-.12,0,.06-.07h1.2l0,.05a1.34,1.34,0,0,1-.18.07c-.2,0-.31.12-.31.34,0,.38,0,.76,0,1.16L14,3.59l-.4-.18v0h1.06s0,.09-.06.09a1.57,1.57,0,0,0-.84.61c-.32.35-.63.72-.94,1.09a.26.26,0,0,0-.07.16c0,.4-.05.81-.08,1.26C13.59,5.57,14.5,4.61,15.38,3.56Z"/><path d="M20.58,10.52a1.57,1.57,0,0,0-.09.23l-.81,2.35c-.09.27,0,.37.27.41l.22,0,.1.07H18.92l0,0c.05,0,.09-.07.13-.07a.57.57,0,0,0,.47-.41l.69-1.88c.1-.29.21-.57.31-.85s0-.27-.17-.31a3.4,3.4,0,0,0-.45,0V10a.59.59,0,0,1,.19-.05l.67,0a.19.19,0,0,1,.22.19l.42,2.33c0,.16.06.31.11.54.11-.17.2-.3.27-.43.47-.8.94-1.59,1.39-2.4a.4.4,0,0,1,.42-.23c.2,0,.4,0,.61,0L24,10a.42.42,0,0,0-.37.39c-.14.86-.3,1.72-.45,2.58a.06.06,0,0,0,0,0c-.06.38,0,.4.34.46l.19.05v0H22.16l0,0a.39.39,0,0,1,.14-.05c.4,0,.41,0,.48-.43.15-.89.3-1.77.41-2.68l-.1.14-1.74,3a2.09,2.09,0,0,1-.14.17l-.57-3.22Z"/><path d="M6.76,21.94c0-.28,0-.57,0-.86a30.8,30.8,0,0,0-.51-5.42,15,15,0,0,1-.13-2,30.88,30.88,0,0,1,.52-6,1.12,1.12,0,0,1,.11-.25h0c0,.43-.1.85-.14,1.27a32.25,32.25,0,0,0-.18,6.21c.07.78.24,1.55.34,2.32a17.08,17.08,0,0,1,.19,3.71,8.92,8.92,0,0,1-.2,1Z"/><path d="M32.23,22a3.74,3.74,0,0,1-.17-.57A7.86,7.86,0,0,1,32,19c.13-1.29.36-2.57.48-3.86a24.33,24.33,0,0,0,.09-3c0-1.28-.17-2.56-.27-3.84,0-.31-.07-.61-.07-.94a.71.71,0,0,1,.11.21,27.37,27.37,0,0,1,.47,3.93c0,1,.06,2.06,0,3.09a17.18,17.18,0,0,1-.25,2A26.79,26.79,0,0,0,32.23,22Z"/><path d="M13.32,10h.26c.51,0,1,0,1.52,0a.72.72,0,0,1,.63.93,1.51,1.51,0,0,1-.39.45,1.32,1.32,0,0,1-.29.15s0,.05.07.05a.93.93,0,0,1,.36,1.62,1.35,1.35,0,0,1-1.07.42c-.37,0-.74,0-1.12,0l-.55,0v-.06l.22-.05c.31,0,.35,0,.42-.37.11-.54.2-1.08.29-1.62.07-.37.13-.74.19-1.1s0-.29-.23-.33l-.28,0S13.33,10,13.32,10Zm.88,3.55a1,1,0,0,0,1.09-.71c.22-.56,0-1-.54-1.1a2.92,2.92,0,0,0-.59,0c-.05,0-.13.08-.14.14-.1.43-.18.86-.26,1.3,0,.27,0,.35.29.36Zm-.13-2a1.31,1.31,0,0,0,1-.28.7.7,0,0,0,.06-1,.86.86,0,0,0-.77-.17c-.05,0-.1.11-.12.17,0,.22-.08.43-.12.65S14.11,11.33,14.07,11.55Z"/><path d="M6.79,4.25c-.45-.07-.91-.13-1.36-.23-.14,0-.24-.17-.36-.26a1.22,1.22,0,0,1,.35-.27,4.75,4.75,0,0,1,2-.16,4.85,4.85,0,0,1,.9.2c.1,0,.17.14.25.22-.08.08-.15.19-.25.23A3.68,3.68,0,0,1,6.8,4.2Z"/><path d="M32.23,4.25c-.46-.07-.92-.13-1.37-.23-.13,0-.23-.18-.34-.27.11-.09.21-.23.34-.26a5,5,0,0,1,2.75,0,1.07,1.07,0,0,1,.34.27c-.11.09-.21.23-.34.26C33.16,4.12,32.7,4.18,32.23,4.25Z"/><path d="M22.58,3.39l-.23.08c-.25,0-.26.06-.15.27.22.45.43.9.67,1.38l.8-.76c.19-.18.38-.36.56-.55a.36.36,0,0,0,.1-.25c0-.05-.15-.09-.23-.11s-.2,0-.31-.07c.43-.15.87.05,1.3-.09l0,.06s-.06.08-.1.08a1.27,1.27,0,0,0-.62.39c-.42.41-.86.81-1.29,1.22a.75.75,0,0,0-.16.29c-.1.37-.18.75-.27,1.12s0,.44.34.46a1.42,1.42,0,0,1,.2,0V7H21.54l0,0c.06,0,.13-.08.19-.07.38,0,.52-.2.58-.54s.15-.63.22-.94a.55.55,0,0,0-.05-.26c-.24-.47-.49-.93-.71-1.4a.52.52,0,0,0-.47-.32l-.17-.05v0h1.43Z"/><path d="M12.83,16.59h1.24s0,0,0,0a1.49,1.49,0,0,0-.84.53c-.9.91-1.81,1.81-2.72,2.72a5.34,5.34,0,0,1-.44.39,1,1,0,0,1-.2.09V20c0-1,.07-1.93.1-2.9,0-.33,0-.43-.36-.42a.28.28,0,0,1-.2-.09H11v.05l-.32.05c-.21,0-.33.1-.34.31,0,1-.07,1.93-.11,2.9l.06,0,3.08-3.12,0-.07-.28-.06-.23,0Z"/><path d="M23.66,20.29l.79-2-.08-.06-.48.46a1.32,1.32,0,0,1,.72-.71c.13-.05.2,0,.14.2s-.17.48-.26.71a.88.88,0,0,0-.07.29c.12-.16.25-.33.38-.48a6.51,6.51,0,0,1,.51-.54,1.08,1.08,0,0,1,.35-.19c.17,0,.28.06.25.23a2.13,2.13,0,0,1-.15.49c-.16.38-.34.77-.51,1.15a1.72,1.72,0,0,0-.07.21l.05,0,.5-.53.07.07c-.21.22-.42.44-.65.64-.06.05-.19,0-.29,0a.75.75,0,0,1,0-.26c.19-.44.39-.87.59-1.31a1.22,1.22,0,0,0,.07-.17c0-.11,0-.22,0-.33a1.4,1.4,0,0,0-.3.15A5.47,5.47,0,0,0,24,20.16C23.93,20.3,23.85,20.39,23.66,20.29Z"/><path d="M19.12,19.22c.27-.33.5-.62.75-.88a1.69,1.69,0,0,1,.49-.35c.2-.09.34,0,.29.25a4.39,4.39,0,0,1-.21.61c-.14.34-.3.67-.45,1,0,.06,0,.12-.07.19l.06,0,.5-.53,0,0a1.69,1.69,0,0,1-.62.68.65.65,0,0,1-.28,0,.7.7,0,0,1,0-.25c.19-.45.39-.89.59-1.33,0-.09.08-.17.11-.25a1,1,0,0,0,0-.24c-.08,0-.18,0-.23.08-.3.33-.61.66-.88,1a6.59,6.59,0,0,0-.49.86.2.2,0,0,1-.31.1l.79-2-.08-.06-.49.46a1.31,1.31,0,0,1,.68-.69c.05,0,.16,0,.17,0a.35.35,0,0,1,0,.2c-.1.28-.2.54-.31.81C19.17,19.06,19.16,19.11,19.12,19.22Z"/><path d="M26.92,5l-.58.52s0-.07,0-.08c.23-.22.46-.44.71-.65.05,0,.15,0,.23,0s0,.17,0,.23c-.21.45-.43.89-.64,1.33a1.47,1.47,0,0,0-.17.47l.16-.1a5.15,5.15,0,0,0,1.53-1.81c.06-.14.13-.21.3-.11l-.83,2.07.06,0,.47-.47,0,.05a1.73,1.73,0,0,1-.63.6.17.17,0,0,1-.17,0,.21.21,0,0,1-.05-.17L27.66,6a.79.79,0,0,0,.08-.31L27.51,6a4.49,4.49,0,0,1-1.16,1,1.07,1.07,0,0,1-.27.06c0-.1,0-.2,0-.28.26-.55.53-1.09.8-1.63A1.47,1.47,0,0,0,27,5Z"/><path d="M30.52,3.32a3.14,3.14,0,0,0-.22.34.37.37,0,0,0,.21.58,1.61,1.61,0,0,0,.48.12l2,0c.08,0,.21.06.21.1s0,.23-.09.26a1.19,1.19,0,0,1-.49.13,6.74,6.74,0,0,1-2.4-.37c-.24-.09-.51-.2-.52-.5s.24-.44.47-.56A2.27,2.27,0,0,1,30.52,3.32Z"/><path d="M8.59,3.31a5.47,5.47,0,0,1,.61.42.34.34,0,0,1,0,.59,2.78,2.78,0,0,1-.79.34,5.68,5.68,0,0,1-2.17.21.49.49,0,0,1-.29-.11.34.34,0,0,1-.08-.25c0-.13.11-.11.2-.11l2.22-.07.13,0c.46-.13.55-.4.27-.79a1.13,1.13,0,0,0-.1-.13Z"/><path d="M30.52,11.9a2.68,2.68,0,0,1-1.3-.81,1,1,0,0,1-.21-.82c0-.16.11-.2.26-.18a1.31,1.31,0,0,1,1.25,1.35C30.53,11.57,30.52,11.71,30.52,11.9Z"/><path d="M8.55,11.88a1.39,1.39,0,0,1,1.25-1.8c.15,0,.19.07.21.19a1.08,1.08,0,0,1-.3,1A2.91,2.91,0,0,1,8.55,11.88Z"/><path d="M24.17,12.14a1,1,0,0,1,.3-.79.24.24,0,0,1,.37.15,3.39,3.39,0,0,1,.15.89c0,.39-.07.78-.11,1.19a3.3,3.3,0,0,0,.65-1.95.82.82,0,0,1,.1-.3s.13,0,.13,0a.82.82,0,0,1,0,.31,5.28,5.28,0,0,1-1.44,2.75A1.79,1.79,0,0,1,23,15a1,1,0,0,1-.37-.12c-.05,0,0-.16-.06-.24a.86.86,0,0,1,.23,0s.09.05.11.08a.44.44,0,0,0,.57.14,1.81,1.81,0,0,0,1.18-1.63c0-.42,0-.85,0-1.27v-.06l-.16-.26a1.34,1.34,0,0,0-.21.2A1.72,1.72,0,0,0,24.17,12.14Z"/><path d="M14.64,20.08l.54-.5a1.35,1.35,0,0,1-.73.75c-.14,0-.21,0-.17-.19s.16-.41.22-.59c-.25.21-.5.45-.78.66a.44.44,0,0,1-.53.07c-.18-.13-.12-.34-.07-.51a2.17,2.17,0,0,1,1.28-1.5,2.17,2.17,0,0,1,.52-.08l.15-.06.21-.1.06.06-.36,1c-.13.33-.26.65-.38,1Zm-1.26-.23c0,.07.06.18.11.2a.33.33,0,0,0,.28,0,6,6,0,0,0,.72-.7,2.36,2.36,0,0,0,.35-.69.31.31,0,0,0-.05-.28.33.33,0,0,0-.29,0A2.35,2.35,0,0,0,13.38,19.85Z"/><path d="M24.12,6.32a2,2,0,0,1,.77-1.43.77.77,0,0,1,.3-.15.45.45,0,0,1,.63.39,1.8,1.8,0,0,1-.68,1.74.92.92,0,0,1-.27.16.51.51,0,0,1-.74-.48A1.55,1.55,0,0,1,24.12,6.32Zm1.53-1.24c0-.06-.06-.18-.14-.22a.36.36,0,0,0-.28,0,.86.86,0,0,0-.29.31c-.19.37-.35.75-.51,1.14a.74.74,0,0,0-.05.33.24.24,0,0,0,.36.23.41.41,0,0,0,.19-.13A3.56,3.56,0,0,0,25.65,5.08Z"/><path d="M30.5,12.23a1.21,1.21,0,0,1-1.75.94c-.13-.06-.14-.13-.11-.25a.8.8,0,0,1,.47-.51A3.09,3.09,0,0,1,30.5,12.23Z"/><path d="M8.53,12.23a2.87,2.87,0,0,1,1.46.22.69.69,0,0,1,.4.49.27.27,0,0,1-.09.21A1.2,1.2,0,0,1,8.53,12.23Z"/><path d="M19.28,3.35,20,3.29l-1.4,3.53c.34-.09.49-.37.7-.56l.06,0a1.73,1.73,0,0,1-.23.29,5,5,0,0,1-.6.43c-.06,0-.17,0-.26,0a1.1,1.1,0,0,1,0-.26c.25-.63.51-1.26.77-1.89l.47-1.11c.08-.17.09-.31-.15-.35l-.05,0A.21.21,0,0,0,19.28,3.35Z"/><path d="M18,3.36l.71-.07-1.4,3.53c.34-.09.49-.37.7-.56l.06,0a2.91,2.91,0,0,1-.33.37,3.57,3.57,0,0,1-.56.36A.21.21,0,0,1,17,7s0-.12,0-.19A.64.64,0,0,1,17,6.67c.36-.87.73-1.75,1.09-2.63a.25.25,0,0,0,0-.07C18.31,3.6,18.31,3.6,18,3.36Z"/><path d="M15.83,20.11l.65-.58a1.45,1.45,0,0,1-.89.79c-.15.05-.22,0-.17-.18s.2-.5.3-.74l.93-2.24c.14-.33.13-.33-.22-.54l.74-.07-1.4,3.51Z"/><path d="M28.59,17.21c-.09-.4.49-.76,1-.53a.76.76,0,0,1,.28,1.1,1.41,1.41,0,0,1-.38.39c-.23.19-.48.34-.71.53a1.13,1.13,0,0,0-.27.34.23.23,0,0,0,.08.35.26.26,0,0,0,.37-.05,2.43,2.43,0,0,0,.22-.29.3.3,0,0,1-.11.36.41.41,0,0,1-.48.13.5.5,0,0,1-.27-.62,2.2,2.2,0,0,1,.38-.62,5.34,5.34,0,0,1,.65-.5,2.41,2.41,0,0,0,.24-.21.5.5,0,0,0,.15-.54.52.52,0,0,0-.46-.32.53.53,0,0,0-.54.3C28.68,17.1,28.63,17.15,28.59,17.21Z"/><path d="M22,18.12l.53,0,0,.05-.12.06h-.26a.31.31,0,0,0-.33.22c-.18.45-.38.9-.58,1.34a.65.65,0,0,0,0,.21c.31-.09.49-.35.74-.51a1.91,1.91,0,0,1-.93.8c-.16.06-.26-.05-.18-.23.17-.41.35-.81.53-1.21.08-.2.17-.39.26-.61l-.44,0,0-.07a.8.8,0,0,1,.21-.05.4.4,0,0,0,.45-.31,1.33,1.33,0,0,1,.16-.34c.05-.07.15-.09.22-.14a.69.69,0,0,1,0,.24C22.21,17.75,22.12,17.91,22,18.12Z"/><path d="M17.44,12.88a1.34,1.34,0,0,1-.61.74c-.26.15-.48,0-.58-.25a1.22,1.22,0,0,1,.09-.92,7.16,7.16,0,0,1,.62-.93.69.69,0,0,1,.3-.18.34.34,0,0,1,.47.32.74.74,0,0,1-.54.73l-.35.1c-.12,0-.26,0-.29.18s-.12.48.06.68a.28.28,0,0,0,.28,0,3,3,0,0,0,.38-.41.76.76,0,0,0,.11-.14Zm-.78-.5,0,0a3.64,3.64,0,0,0,.49-.22.66.66,0,0,0,.35-.54.26.26,0,0,0-.08-.2.24.24,0,0,0-.2,0A1.92,1.92,0,0,0,16.66,12.38Z"/><path d="M18,19.53a1.3,1.3,0,0,1-.64.76.36.36,0,0,1-.54-.26,1.11,1.11,0,0,1,.08-.91,7.55,7.55,0,0,1,.63-1,.64.64,0,0,1,.29-.17.34.34,0,0,1,.47.32.74.74,0,0,1-.54.73l-.34.1c-.12,0-.27,0-.3.18s-.12.48.06.68a.26.26,0,0,0,.28,0,2.89,2.89,0,0,0,.38-.4l.11-.15Zm-.8-.45.36-.11a.79.79,0,0,0,.53-.65.23.23,0,0,0-.08-.2.21.21,0,0,0-.2,0A2,2,0,0,0,17.19,19.08Z"/><path d="M27.4,19.53a1.31,1.31,0,0,1-.64.75.36.36,0,0,1-.55-.25,1.36,1.36,0,0,1,.06-.89,2.65,2.65,0,0,1,.66-1,.61.61,0,0,1,.14-.1.38.38,0,0,1,.49,0,.41.41,0,0,1,.1.49.83.83,0,0,1-.55.51c-.09,0-.19.05-.28.08s-.27.09-.3.17a.72.72,0,0,0,0,.67.19.19,0,0,0,.31.07,5.08,5.08,0,0,0,.39-.41.78.78,0,0,0,.1-.15Zm-.79-.5.05,0c.14-.06.28-.11.42-.18a.71.71,0,0,0,.4-.58.24.24,0,0,0-.09-.21.25.25,0,0,0-.2,0A2.06,2.06,0,0,0,26.61,19Z"/><path d="M15.88,5.37a1.23,1.23,0,0,1,.7-.63.3.3,0,0,1,.21,0,.22.22,0,0,1,0,.21c-.16.37-.34.74-.52,1.11-.09.18-.2.35-.29.54a1.17,1.17,0,0,0-.06.2l.06,0,.62-.54a1.23,1.23,0,0,1-.7.73.31.31,0,0,1-.25,0,.25.25,0,0,1,0-.23c.12-.3.26-.59.4-.88s.26-.47.38-.71c0-.07.05-.14.08-.22l-.06-.05Z"/><path d="M23.1,18.19l-.57.44a1.22,1.22,0,0,1,.76-.65c.16-.05.25.05.18.21-.16.38-.34.74-.52,1.11-.09.19-.2.37-.3.56a1.17,1.17,0,0,0-.06.2l.07.05.61-.54a1.23,1.23,0,0,1-.7.73.31.31,0,0,1-.25,0,.25.25,0,0,1,0-.23c.12-.3.26-.59.4-.88s.26-.47.38-.71a2,2,0,0,0,.08-.22Z"/><path d="M8.77,3.26A5.51,5.51,0,0,0,6,2.8,2.16,2.16,0,0,1,8.77,3.26Z"/><path d="M30.25,3.26a2.19,2.19,0,0,1,2.81-.46A5.66,5.66,0,0,0,30.25,3.26Z"/><path d="M5.17,16.17a.94.94,0,0,1-.88-.64c0-.23,0-.3.25-.26A.76.76,0,0,1,5.17,16.17Z"/><path d="M33.86,16.24c0-.59.22-.93.67-1,.19,0,.27.05.22.23a1,1,0,0,1-.24.4A4,4,0,0,1,33.86,16.24Z"/><path d="M6.18,3.07c-.23.06-.5.11-.77.19a1.54,1.54,0,0,0-.35.15c-.29.18-.32.39-.12.67a3,3,0,0,1,.18.3l-.06,0a.54.54,0,0,1-.12-.09,5.2,5.2,0,0,1-.35-.47.39.39,0,0,1,.19-.62,2.26,2.26,0,0,1,.68-.17A5.87,5.87,0,0,1,6.18,3.07Z"/><path d="M33.92,4.38a1.19,1.19,0,0,1,.13-.25c.26-.33.23-.58-.14-.75s-.73-.23-1.1-.38a10.66,10.66,0,0,1,1.28.19c.46.11.54.41.27.79-.11.16-.23.31-.35.46Z"/><path d="M5.2,16.35a.67.67,0,0,1-.84.68c-.15,0-.19-.12-.13-.24a.44.44,0,0,1,.18-.2C4.66,16.5,4.92,16.43,5.2,16.35Z"/><path d="M33.84,16.41c.51-.05.92.17,1,.53A.63.63,0,0,1,33.84,16.41Z"/><path d="M32.4,14.84a3.84,3.84,0,0,0-2-2.83,1.69,1.69,0,0,1,1.13.65,3.84,3.84,0,0,1,.72,1.51C32.31,14.39,32.35,14.62,32.4,14.84Z"/><path d="M8.64,12A3.65,3.65,0,0,0,6.7,14.69,2.82,2.82,0,0,1,8.64,12Z"/><path d="M31,12.08a5.08,5.08,0,0,1,.12-.57c0-.06.07-.15.12-.16a1.59,1.59,0,0,1,.37-.06.87.87,0,0,1,0,.32A1,1,0,0,1,31,12.08Z"/><path d="M7.36,11.29c.41-.14.64.26.59.73A.68.68,0,0,1,7.36,11.29Z"/><path d="M28.71,20c0,.17-.12.33-.27.32s-.23-.11-.24-.27a.32.32,0,0,1,.28-.32A.25.25,0,0,1,28.71,20Z"/><path d="M16.89,4c-.2,0-.28-.12-.27-.27a.22.22,0,0,1,.24-.23c.14,0,.25.09.22.22S17,3.89,16.89,4Z"/><path d="M23.53,17.24c-.19,0-.27-.13-.26-.27a.23.23,0,0,1,.25-.23.19.19,0,0,1,.21.23C23.71,17.07,23.6,17.15,23.53,17.24Z"/><path d="M6.24,17.32a2.31,2.31,0,0,0-.93-1A1.4,1.4,0,0,1,6.24,17.32Z"/><path d="M33.74,16.32a2.13,2.13,0,0,0-.9.93A1.25,1.25,0,0,1,33.74,16.32Z"/><path d="M5.52,16.24c0-.31.05-.43.29-.42C5.83,16.05,5.75,16.16,5.52,16.24Z"/><path d="M33.47,16.28c-.08-.1-.17-.19-.24-.29s0-.11,0-.17.17,0,.19,0a2.32,2.32,0,0,1,.13.37Z"/></g><path class="cls-4" d="M9.52,4.82a2.45,2.45,0,0,1-2,2.53,2.34,2.34,0,0,1,.6,1.59,3.09,3.09,0,0,1-1-1.57,2.4,2.4,0,0,0-.25.18,2.84,2.84,0,0,1-1.1.66l.17-.8-.82.32,0,0,.66-.62a3.59,3.59,0,0,1-1-2.4,2.89,2.89,0,0,0,2.53.67A8.9,8.9,0,0,0,9.4,4.85Z"/><path class="cls-4" d="M34.69,4.72a3.45,3.45,0,0,1-1,2.35l.66.62,0,0-.83-.33.18.81a2.81,2.81,0,0,1-1.11-.67,1.91,1.91,0,0,0-.24-.17,3.2,3.2,0,0,1-1,1.57,2.29,2.29,0,0,1,.6-1.59c-1.45-.58-2.15-1.47-2-2.5.55.14,1.11.29,1.67.41a5,5,0,0,0,1.77.07A2.16,2.16,0,0,0,34.69,4.72Z"/><path class="cls-4" d="M15.58,3.75l-.42-.13,0-.05h.92L16,3.7a4.39,4.39,0,0,0-.53.41c-.93,1-1.84,2-2.76,3l-.19.16-.06,0,0-1.3,0,0-.85,1-.27.3a1.35,1.35,0,0,1-.22.12,3,3,0,0,1,0-.3c0-1,.07-2,.1-3,0-.21,0-.41-.29-.39l0,0s0,0,0-.06H12l0,.06c-.48,0-.39.33-.4.6,0,.83,0,1.66-.07,2.53l.27-.28.63-.71a.33.33,0,0,0,.09-.2c.05-.49.08-1,.12-1.46,0-.33,0-.33-.29-.45l-.12,0,.05-.07h1.21l0,0a1.34,1.34,0,0,1-.18.07c-.2,0-.31.12-.31.34,0,.38,0,.76,0,1.16l1.17-1.4-.41-.17v0h1.06s0,.09-.06.09a1.51,1.51,0,0,0-.84.6c-.32.36-.63.73-.94,1.1a.3.3,0,0,0-.08.16c0,.4,0,.8-.07,1.26C13.79,5.77,14.7,4.8,15.58,3.75Z"/><path class="cls-4" d="M20.77,10.72l-.09.22c-.26.79-.53,1.58-.8,2.36-.09.27,0,.37.26.41l.23,0,.1.07H19.12l0,0a.28.28,0,0,1,.13-.07.57.57,0,0,0,.47-.41l.69-1.88c.1-.29.21-.57.31-.86s0-.27-.17-.3a3.42,3.42,0,0,0-.45,0l0-.05a.77.77,0,0,1,.19-.05c.23,0,.45,0,.68,0a.19.19,0,0,1,.22.19l.42,2.32.1.55c.12-.17.2-.3.28-.43.47-.8.94-1.59,1.39-2.4a.4.4,0,0,1,.42-.23c.19,0,.4,0,.61,0l-.22.07a.41.41,0,0,0-.37.39l-.45,2.58s0,0,0,0c-.06.37,0,.4.34.46l.19,0v.05H22.35v0a.39.39,0,0,1,.14,0c.39-.05.41-.05.47-.43.16-.89.31-1.78.42-2.68l-.1.14-1.74,3c0,.06-.1.11-.15.17l-.56-3.22Z"/><path class="cls-4" d="M7,22.14c0-.29,0-.57,0-.86a29.8,29.8,0,0,0-.52-5.42,15,15,0,0,1-.12-2,30.88,30.88,0,0,1,.52-6A1,1,0,0,1,7,7.6l0,0L6.89,8.89a33.07,33.07,0,0,0-.17,6.21c.07.78.24,1.55.34,2.32a17.73,17.73,0,0,1,.19,3.71,8.75,8.75,0,0,1-.2,1Z"/><path class="cls-4" d="M32.43,22.19a5.4,5.4,0,0,1-.18-.57,8.18,8.18,0,0,1,0-2.42c.13-1.29.36-2.57.48-3.86a24.39,24.39,0,0,0,.09-3c0-1.28-.17-2.56-.27-3.84a7.3,7.3,0,0,1-.07-.94.71.71,0,0,1,.11.21A27.4,27.4,0,0,1,33,11.73c0,1,.06,2.07,0,3.09a16.65,16.65,0,0,1-.25,2A26.94,26.94,0,0,0,32.43,22.19Z"/><path class="cls-4" d="M13.52,10.16h.26c.5,0,1,0,1.52.05a.72.72,0,0,1,.63.93,1.41,1.41,0,0,1-.4.45,1.06,1.06,0,0,1-.28.15l.07,0a.93.93,0,0,1,.36,1.62,1.39,1.39,0,0,1-1.07.42c-.37,0-.74,0-1.12,0l-.55,0v-.06a.79.79,0,0,1,.22,0c.31,0,.35-.05.42-.37.11-.54.2-1.08.29-1.62.07-.37.13-.74.19-1.11s0-.28-.23-.32l-.28-.05S13.53,10.22,13.52,10.16Zm.87,3.55a1,1,0,0,0,1.1-.72c.21-.55,0-1-.54-1.09a2.33,2.33,0,0,0-.59,0c-.06,0-.13.08-.15.13-.09.44-.17.87-.25,1.31-.05.27,0,.35.29.36Zm-.12-2a1.29,1.29,0,0,0,1.05-.29.68.68,0,0,0,.06-1,.83.83,0,0,0-.77-.17s-.11.11-.12.17-.08.43-.12.64S14.31,11.53,14.27,11.75Z"/><path class="cls-4" d="M7,4.45c-.46-.07-.92-.13-1.37-.23-.13,0-.23-.18-.35-.27.12-.09.22-.22.35-.26a4.55,4.55,0,0,1,1.94-.16,4.77,4.77,0,0,1,.91.2c.1,0,.17.14.25.22-.08.08-.15.19-.25.23A3.68,3.68,0,0,1,7,4.4Z"/><path class="cls-4" d="M32.43,4.45c-.46-.07-.92-.13-1.37-.23-.13,0-.23-.18-.34-.27.11-.09.21-.23.34-.26a5,5,0,0,1,2.75,0c.13,0,.23.17.34.27-.11.09-.22.23-.35.26C33.35,4.32,32.9,4.38,32.43,4.45Z"/><path class="cls-4" d="M22.78,3.59l-.23.08c-.25,0-.26.05-.15.27.21.45.43.9.66,1.38l.81-.76c.19-.18.38-.36.56-.55a.38.38,0,0,0,.1-.25s-.15-.09-.23-.12A1.16,1.16,0,0,1,24,3.57c.43-.14.87.06,1.3-.08l0,.06a.35.35,0,0,1-.1.08,1.2,1.2,0,0,0-.62.39c-.43.41-.87.81-1.29,1.22a.61.61,0,0,0-.16.28c-.1.38-.19.76-.27,1.13s0,.44.34.46a1.42,1.42,0,0,1,.2,0v.06H21.74l0,0a.48.48,0,0,1,.18-.08c.39,0,.53-.19.59-.53s.15-.63.21-1a.43.43,0,0,0,0-.25c-.24-.47-.49-.93-.71-1.4a.52.52,0,0,0-.47-.32l-.17,0V3.53h1.43Z"/><path class="cls-4" d="M13,16.79h1.24a.23.23,0,0,1,0,0,1.49,1.49,0,0,0-.84.52l-2.73,2.72c-.14.14-.29.27-.44.4a.67.67,0,0,1-.19.09V20.2c0-1,.07-1.94.1-2.9,0-.33,0-.43-.37-.43a.23.23,0,0,1-.19-.08h1.58v.05l-.32.05c-.21,0-.34.1-.34.31,0,1-.07,1.93-.11,2.9l.06,0L13.56,17l0-.06-.28-.06-.23,0Z"/><path class="cls-4" d="M23.86,20.48l.79-2-.08-.06-.49.45a1.32,1.32,0,0,1,.73-.7c.13-.05.2,0,.14.2s-.17.47-.26.71a1.23,1.23,0,0,0-.08.29c.13-.16.25-.33.39-.48a6.51,6.51,0,0,1,.51-.54.85.85,0,0,1,.35-.19c.17-.05.28.06.25.23a1.92,1.92,0,0,1-.15.48c-.16.39-.34.78-.51,1.16a1.72,1.72,0,0,0-.07.21l.05,0,.5-.54.07.08c-.21.22-.42.44-.65.64-.06.05-.19,0-.29,0a.75.75,0,0,1,0-.26c.19-.44.39-.87.59-1.31a1,1,0,0,0,.07-.18,3.11,3.11,0,0,0,0-.32,1.05,1.05,0,0,0-.3.15,5.47,5.47,0,0,0-1.27,1.78C24.12,20.49,24.05,20.59,23.86,20.48Z"/><path class="cls-4" d="M19.32,19.41c.27-.32.49-.61.75-.87a1.69,1.69,0,0,1,.49-.35c.2-.1.34,0,.29.25a4.39,4.39,0,0,1-.21.61l-.45,1c0,.07-.05.13-.07.19l.06.05.49-.54,0,.05a1.69,1.69,0,0,1-.62.68.65.65,0,0,1-.28,0,.7.7,0,0,1,0-.25c.19-.45.39-.89.59-1.33,0-.09.08-.17.11-.26s0-.15,0-.23a.52.52,0,0,0-.23.08c-.3.33-.61.66-.88,1a5.61,5.61,0,0,0-.49.86c-.07.13-.15.17-.31.1l.79-2-.08-.06-.49.46a1.31,1.31,0,0,1,.68-.69s.16,0,.17,0a.34.34,0,0,1,0,.2c-.09.27-.2.54-.3.81Z"/><path class="cls-4" d="M27.12,5.16l-.58.51s0-.06,0-.07c.23-.22.46-.44.71-.65.05,0,.15,0,.23,0s0,.17,0,.23c-.21.45-.43.89-.65,1.33a2,2,0,0,0-.17.47,1,1,0,0,0,.17-.1,5,5,0,0,0,1.52-1.81c.07-.14.14-.21.31-.11L27.82,7l.06,0,.46-.47,0,0a1.75,1.75,0,0,1-.63.61.19.19,0,0,1-.18,0,.24.24,0,0,1,0-.17c.1-.28.22-.56.33-.84a.79.79,0,0,0,.08-.31l-.23.26a4.88,4.88,0,0,1-1.16,1,1.07,1.07,0,0,1-.27.06c0-.1,0-.2,0-.28.26-.55.53-1.09.8-1.63l.06-.15Z"/><path class="cls-4" d="M30.72,3.51c-.09.15-.17.24-.22.35a.37.37,0,0,0,.2.58,1.76,1.76,0,0,0,.49.12l2,.05a.34.34,0,0,1,.21.09c0,.1,0,.24-.1.27a1.11,1.11,0,0,1-.48.13,6.61,6.61,0,0,1-2.41-.38c-.23-.08-.5-.19-.52-.49s.25-.44.48-.57S30.58,3.58,30.72,3.51Z"/><path class="cls-4" d="M8.79,3.51a5.47,5.47,0,0,1,.61.42.34.34,0,0,1-.05.59,2.78,2.78,0,0,1-.79.34,5.68,5.68,0,0,1-2.17.21A.49.49,0,0,1,6.1,5,.36.36,0,0,1,6,4.71c0-.13.11-.11.2-.11l2.22-.08.13,0c.46-.13.55-.4.27-.79a1.13,1.13,0,0,0-.1-.13Z"/><path class="cls-4" d="M30.72,12.09a2.66,2.66,0,0,1-1.3-.8,1,1,0,0,1-.21-.82c0-.16.11-.2.26-.18a1.3,1.3,0,0,1,1.25,1.35C30.73,11.77,30.72,11.91,30.72,12.09Z"/><path class="cls-4" d="M8.75,12.08A1.39,1.39,0,0,1,10,10.28c.16,0,.2.07.22.19a1.08,1.08,0,0,1-.3.95A2.91,2.91,0,0,1,8.75,12.08Z"/><path class="cls-4" d="M24.37,12.34a.91.91,0,0,1,.3-.79.24.24,0,0,1,.37.15,3.86,3.86,0,0,1,.15.88c0,.4-.07.79-.11,1.2a2.92,2.92,0,0,0,.21-.32,3.05,3.05,0,0,0,.44-1.63.82.82,0,0,1,.1-.3s.13,0,.13,0a.7.7,0,0,1,0,.32,5.2,5.2,0,0,1-1.43,2.75,1.8,1.8,0,0,1-1.34.58,1,1,0,0,1-.37-.12c-.05,0-.05-.16-.07-.24a.93.93,0,0,1,.23,0,.16.16,0,0,1,.12.08.43.43,0,0,0,.57.13,1.79,1.79,0,0,0,1.18-1.62c0-.42,0-.85,0-1.27,0,0,0-.05,0-.06l-.15-.26a1.34,1.34,0,0,0-.21.2A1.72,1.72,0,0,0,24.37,12.34Z"/><path class="cls-4" d="M14.83,20.28l.55-.5a1.33,1.33,0,0,1-.74.75c-.13,0-.21-.05-.16-.19s.16-.41.22-.59c-.25.21-.51.45-.78.66a.44.44,0,0,1-.53.07c-.18-.14-.12-.34-.07-.52a2.16,2.16,0,0,1,1.28-1.49,1.75,1.75,0,0,1,.51-.08.76.76,0,0,0,.16-.06l.21-.1.06.06-.36,1-.39,1Zm-1.25-.23c0,.07.06.18.11.2a.34.34,0,0,0,.28,0,6,6,0,0,0,.72-.7,2.36,2.36,0,0,0,.35-.69.3.3,0,0,0,0-.28.33.33,0,0,0-.29,0A2.35,2.35,0,0,0,13.58,20.05Z"/><path class="cls-4" d="M24.32,6.52a1.91,1.91,0,0,1,.77-1.43.8.8,0,0,1,.29-.15.46.46,0,0,1,.64.39,1.82,1.82,0,0,1-.68,1.74,1.07,1.07,0,0,1-.27.16.51.51,0,0,1-.74-.49A1.35,1.35,0,0,1,24.32,6.52Zm1.53-1.24c0-.06-.07-.18-.14-.22a.36.36,0,0,0-.28.05.83.83,0,0,0-.29.3c-.19.38-.36.76-.52,1.15a.91.91,0,0,0,0,.33.24.24,0,0,0,.36.23A.5.5,0,0,0,25.13,7,3.56,3.56,0,0,0,25.85,5.28Z"/><path class="cls-4" d="M30.7,12.43a1.21,1.21,0,0,1-1.75.94c-.13-.06-.14-.13-.11-.25a.77.77,0,0,1,.47-.51A3,3,0,0,1,30.7,12.43Z"/><path class="cls-4" d="M8.73,12.43a2.88,2.88,0,0,1,1.46.22.69.69,0,0,1,.4.49.27.27,0,0,1-.09.21A1.2,1.2,0,0,1,8.73,12.43Z"/><path class="cls-4" d="M19.48,3.55l.68-.06L18.76,7c.34-.09.49-.37.7-.57l.05,0a1.58,1.58,0,0,1-.22.29,5,5,0,0,1-.6.43c-.06,0-.17,0-.26,0a1.1,1.1,0,0,1,0-.26c.25-.63.51-1.26.77-1.89L19.69,4c.08-.17.09-.31-.15-.35,0,0,0,0-.05,0A.21.21,0,0,0,19.48,3.55Z"/><path class="cls-4" d="M18.18,3.55l.71-.06L17.49,7c.34-.09.48-.38.7-.57l.06.06a2.91,2.91,0,0,1-.33.37,4.1,4.1,0,0,1-.56.36.21.21,0,0,1-.19,0s0-.13,0-.19a.64.64,0,0,1,.06-.18c.36-.88.73-1.75,1.09-2.63l0-.07C18.51,3.8,18.51,3.8,18.18,3.55Z"/><path class="cls-4" d="M16,20.31l.65-.58a1.45,1.45,0,0,1-.89.79c-.16.05-.22,0-.17-.18s.19-.5.3-.75l.93-2.23c.14-.33.13-.33-.22-.54l.74-.07L16,20.25Z"/><path class="cls-4" d="M28.79,17.41c-.09-.4.48-.76,1-.53a.76.76,0,0,1,.28,1.1,1.56,1.56,0,0,1-.38.39c-.23.18-.48.34-.71.52a1.39,1.39,0,0,0-.28.35.25.25,0,0,0,.08.35.27.27,0,0,0,.38-.05c.08-.08.13-.18.22-.29.07.17,0,.27-.11.36a.42.42,0,0,1-.48.13.5.5,0,0,1-.27-.62,2,2,0,0,1,.38-.62,6.65,6.65,0,0,1,.65-.51l.23-.2a.49.49,0,0,0,.16-.54.53.53,0,0,0-.47-.32.55.55,0,0,0-.54.3A1.88,1.88,0,0,1,28.79,17.41Z"/><path class="cls-4" d="M22.22,18.32l.53,0,0,.05a.22.22,0,0,1-.13.06h-.25a.3.3,0,0,0-.33.22c-.18.45-.38.89-.58,1.34a.65.65,0,0,0,0,.21c.31-.09.49-.35.74-.52a1.88,1.88,0,0,1-.93.81c-.16.06-.26-.05-.19-.23.17-.41.36-.81.54-1.22.08-.19.16-.38.26-.6l-.45,0v-.06a.8.8,0,0,1,.21-.05.4.4,0,0,0,.45-.31,1.58,1.58,0,0,1,.16-.35.67.67,0,0,1,.22-.13.69.69,0,0,1,0,.24C22.41,18,22.32,18.11,22.22,18.32Z"/><path class="cls-4" d="M17.64,13.07a1.33,1.33,0,0,1-.61.75.38.38,0,0,1-.58-.25,1.22,1.22,0,0,1,.09-.92,7.16,7.16,0,0,1,.62-.93.54.54,0,0,1,.3-.18.34.34,0,0,1,.47.32.75.75,0,0,1-.54.73l-.35.1c-.12,0-.26,0-.29.18s-.12.48.06.68a.28.28,0,0,0,.28,0,3,3,0,0,0,.38-.41s.07-.1.11-.15Zm-.78-.49,0,.05a4.31,4.31,0,0,0,.49-.22.7.7,0,0,0,.35-.54.26.26,0,0,0-.08-.2.2.2,0,0,0-.2,0A1.92,1.92,0,0,0,16.86,12.58Z"/><path class="cls-4" d="M18.19,19.73a1.28,1.28,0,0,1-.64.75.37.37,0,0,1-.55-.25,1.19,1.19,0,0,1,.08-.91,7.63,7.63,0,0,1,.64-1,.57.57,0,0,1,.28-.17.35.35,0,0,1,.48.32.72.72,0,0,1-.54.72,2,2,0,0,1-.35.11c-.11,0-.26,0-.29.18s-.12.48.06.68a.27.27,0,0,0,.27,0,2.46,2.46,0,0,0,.39-.4l.11-.16Zm-.8-.45.36-.11a.79.79,0,0,0,.53-.65.26.26,0,0,0-.08-.2.26.26,0,0,0-.21,0A2,2,0,0,0,17.39,19.28Z"/><path class="cls-4" d="M27.6,19.72a1.3,1.3,0,0,1-.64.76.36.36,0,0,1-.55-.25,1.3,1.3,0,0,1,.06-.89,2.57,2.57,0,0,1,.66-1,.67.67,0,0,1,.14-.09.38.38,0,0,1,.49,0,.43.43,0,0,1,.1.49.83.83,0,0,1-.55.51c-.09,0-.19,0-.29.08s-.26.08-.29.17a.72.72,0,0,0,0,.67.2.2,0,0,0,.31.07,3.69,3.69,0,0,0,.38-.41.91.91,0,0,0,.11-.16Zm-.79-.49.05.05c.14-.06.28-.11.41-.18a.71.71,0,0,0,.41-.58.24.24,0,0,0-.09-.21s-.15,0-.2,0A2,2,0,0,0,26.81,19.23Z"/><path class="cls-4" d="M16.08,5.57a1.23,1.23,0,0,1,.7-.63.26.26,0,0,1,.21,0,.25.25,0,0,1,0,.21c-.17.37-.34.74-.52,1.11-.09.18-.2.35-.29.53a1.66,1.66,0,0,0-.06.21l.06,0,.62-.54a1.26,1.26,0,0,1-.7.73.31.31,0,0,1-.25,0,.26.26,0,0,1,0-.23c.12-.3.26-.59.4-.88s.25-.47.38-.71c0-.07.05-.15.08-.22l-.06,0Z"/><path class="cls-4" d="M23.3,18.39l-.57.44a1.27,1.27,0,0,1,.76-.66c.15-.05.25,0,.18.22-.16.37-.34.74-.52,1.11-.09.19-.2.37-.3.55a1.66,1.66,0,0,0-.06.21l.06,0,.62-.54a1.26,1.26,0,0,1-.7.73.28.28,0,0,1-.25,0,.24.24,0,0,1,0-.22c.12-.3.26-.59.4-.88s.25-.47.38-.71c0-.07,0-.15.08-.22Z"/><path class="cls-4" d="M9,3.46A5.51,5.51,0,0,0,6.2,3,2.14,2.14,0,0,1,9,3.46Z"/><path class="cls-4" d="M30.45,3.46A2.18,2.18,0,0,1,33.25,3,5.64,5.64,0,0,0,30.45,3.46Z"/><path class="cls-4" d="M5.37,16.37a1,1,0,0,1-.88-.64c0-.24,0-.3.25-.26A.76.76,0,0,1,5.37,16.37Z"/><path class="cls-4" d="M34.06,16.44c0-.59.22-.93.67-1,.19,0,.27,0,.21.23a.84.84,0,0,1-.23.4A5.59,5.59,0,0,1,34.06,16.44Z"/><path class="cls-4" d="M6.38,3.27c-.23,0-.5.11-.77.19a1.54,1.54,0,0,0-.35.15.4.4,0,0,0-.12.67,3,3,0,0,1,.18.3l-.06,0a.54.54,0,0,1-.12-.09,4.21,4.21,0,0,1-.35-.48A.39.39,0,0,1,5,3.45a2.41,2.41,0,0,1,.69-.17A5.87,5.87,0,0,1,6.38,3.27Z"/><path class="cls-4" d="M34.12,4.58a1.58,1.58,0,0,1,.13-.26c.26-.32.23-.57-.15-.74S33.38,3.35,33,3.2a10.66,10.66,0,0,1,1.28.19c.45.11.54.41.27.79-.11.16-.23.31-.35.46Z"/><path class="cls-4" d="M5.4,16.54a.67.67,0,0,1-.84.69c-.15,0-.19-.12-.13-.24a.44.44,0,0,1,.18-.2C4.86,16.7,5.12,16.63,5.4,16.54Z"/><path class="cls-4" d="M34,16.61c.51-.05.92.16,1,.52A.62.62,0,0,1,34,16.61Z"/><path class="cls-4" d="M32.6,15a3.86,3.86,0,0,0-2-2.83,1.67,1.67,0,0,1,1.12.65,3.86,3.86,0,0,1,.73,1.51C32.51,14.59,32.55,14.82,32.6,15Z"/><path class="cls-4" d="M8.84,12.2A3.65,3.65,0,0,0,6.9,14.89,2.81,2.81,0,0,1,8.84,12.2Z"/><path class="cls-4" d="M31.24,12.28a5.08,5.08,0,0,1,.12-.57c0-.07.06-.15.12-.16a1.59,1.59,0,0,1,.37-.06,1.06,1.06,0,0,1,0,.31A1,1,0,0,1,31.24,12.28Z"/><path class="cls-4" d="M7.56,11.49c.41-.14.64.26.59.73A.68.68,0,0,1,7.56,11.49Z"/><path class="cls-4" d="M28.91,20.21a.3.3,0,0,1-.27.32c-.16,0-.23-.12-.24-.27a.32.32,0,0,1,.28-.32A.24.24,0,0,1,28.91,20.21Z"/><path class="cls-4" d="M17.08,4.17c-.19,0-.27-.11-.27-.26a.24.24,0,0,1,.25-.23c.14,0,.25.09.22.22S17.15,4.08,17.08,4.17Z"/><path class="cls-4" d="M23.73,17.43c-.19,0-.28-.12-.26-.26a.22.22,0,0,1,.25-.23c.14,0,.24.09.21.23S23.8,17.35,23.73,17.43Z"/><path class="cls-4" d="M6.43,17.52a2.23,2.23,0,0,0-.92-1A1.37,1.37,0,0,1,6.43,17.52Z"/><path class="cls-4" d="M33.94,16.52a2.13,2.13,0,0,0-.9.93A1.22,1.22,0,0,1,33.94,16.52Z"/><path class="cls-4" d="M5.72,16.43c0-.31,0-.42.28-.41A.33.33,0,0,1,5.72,16.43Z"/><path class="cls-4" d="M33.67,16.48c-.08-.1-.17-.19-.24-.29s0-.12,0-.17.17,0,.19,0a2,2,0,0,1,.13.37Z"/></g></g></svg>