<svg xmlns="http://www.w3.org/2000/svg" viewBox="0 0 38.55 24.66"><defs><style>.cls-1{isolation:isolate;}.cls-2{opacity:0.15;}.cls-2,.cls-3{mix-blend-mode:multiply;}.cls-4{fill:#fff;}</style></defs><title>convert-FIX-SVG-03</title><g class="cls-1"><g id="Layer_1" data-name="Layer 1"><g class="cls-2"><path d="M28.68,11.94l-.37-.29s-.06,0-.09,0l-.79-.19v2.05l-.41,0c0-.54-.07-1.06-.12-1.58a2.86,2.86,0,0,0-.16-1c-.16-.32,0-.63-.13-.93s-.15-.61-.22-.92-.12-.33-.16-.5-.2-.34-.43-.4A4.4,4.4,0,0,1,25,7.81a.42.42,0,0,1-.24-.42c0-.31.28-.43.64-.28,0-.18,0-.37.26-.44a.42.42,0,0,1,.55.37.81.81,0,0,1,0,.38.94.94,0,0,0,.1.64c.2.58.37,1.17.56,1.76.11,0,.16-.12.16-.28a23.3,23.3,0,0,0-.43-4.16.47.47,0,0,0-.19-.27c-.37-.26-.78-.49-1.14-.76a2.19,2.19,0,0,1-.52-.61A.85.85,0,0,1,25,2.57a.81.81,0,0,1,1.11.17l.07.1a.82.82,0,0,0,0-.14c.15-.5.48-.74.9-.66a.88.88,0,0,1,.76,1,3.11,3.11,0,0,1-.43,1.25c-.16.28-.32.55-.47.83a.51.51,0,0,0-.05.32,23.85,23.85,0,0,1,.38,3.77.37.37,0,0,0,.05.16c.09-.43.17-.87.28-1.3S28,7,28.11,6.47a.56.56,0,0,0,0-.34,2.81,2.81,0,0,1-.32-1.3.61.61,0,0,1,.57-.58.53.53,0,0,1,.58.44s0,.1,0,.17l.17-.11a.56.56,0,0,1,.63,0,.56.56,0,0,1,.19.67,1.67,1.67,0,0,1-.47.52,6.69,6.69,0,0,1-.89.44.43.43,0,0,0-.27.3c-.23.9-.47,1.8-.73,2.77l2.58-.1,0-.07L30,9.16a2.17,2.17,0,0,1-.64-1.43,1.55,1.55,0,0,1,1.25-1.6,1.34,1.34,0,0,0,.69-.35,2.69,2.69,0,0,1,1.3-.63A.33.33,0,0,0,32.81,5a.64.64,0,0,1,.69-.42.71.71,0,0,1,.71.52.27.27,0,0,0,.13.13l1.16.37a1.09,1.09,0,0,1,.77.86c.09.45.2.89.26,1.34a2.89,2.89,0,0,1-.9,2.73,2.44,2.44,0,0,1-.55.35.25.25,0,0,0-.18.3,8.91,8.91,0,0,1-.3,3.25c-.18.57-.45,1.12-.67,1.68a1.31,1.31,0,0,0-.09.34,17.39,17.39,0,0,1-.5,4.31c-.06.18-.13.36-.2.54a1.75,1.75,0,0,1-1.46,1.18A2.57,2.57,0,0,1,29.44,22a4.77,4.77,0,0,1-.57-.75.7.7,0,0,0-.21-.24.82.82,0,0,1-.32-1.32,2.23,2.23,0,0,1,.35-.4,2.46,2.46,0,0,0,.69-2.34c0-.15-.07-.3-.11-.45a2.43,2.43,0,0,0-.46-1A5.66,5.66,0,0,1,28.5,15a5.61,5.61,0,0,0-.41-.55.87.87,0,0,1,.09-1.41.38.38,0,0,0,.15-.16C28.46,12.57,28.57,12.24,28.68,11.94Zm4.87,4.78a2.23,2.23,0,0,0-.21-1.19A1.09,1.09,0,0,0,32,15a8.62,8.62,0,0,1-.91.18.67.67,0,0,0-.67.58,1,1,0,0,0-.05.42,7,7,0,0,0,.22,1.11,1.69,1.69,0,0,1-.89,2.2.9.9,0,0,0-.33.25,1.38,1.38,0,0,0,.16,2,2.42,2.42,0,0,0,2.23.47,1.33,1.33,0,0,0,1-.83,6.15,6.15,0,0,0,.31-.85A16,16,0,0,0,33.55,16.72ZM30.79,9.36a6.08,6.08,0,0,0,2,1.24,3.71,3.71,0,0,0,1,.25,2.44,2.44,0,0,0,2.41-3.33l-.05.07a2.31,2.31,0,0,1-.94,1,.44.44,0,0,1-.7-.2.9.9,0,0,1,0-.83.3.3,0,0,0,0-.2c0-.26-.07-.51-.11-.78a.31.31,0,0,1-.33-.28c0-.33.2-.52.51-.66a7.25,7.25,0,0,0-1.2-.23,2.58,2.58,0,0,0-2,.7c-.09.09-.12.15-.06.27a3.55,3.55,0,0,1,.26.82,1.81,1.81,0,0,1-.28,1.39Zm-.37,5.56c.38,0,.74-.06,1.08-.12a4.36,4.36,0,0,0,2.44-1.3,1.72,1.72,0,0,0,.5-1.32,1.05,1.05,0,0,0-.28-.74,1.45,1.45,0,0,0-1.11-.34,3.58,3.58,0,0,0-1.7.75,6.49,6.49,0,0,1-1,.56,6.65,6.65,0,0,1-.76.23,2.79,2.79,0,0,0-1.15.7.75.75,0,0,0-.16.73,1,1,0,0,0,.85.68C29.53,14.84,30,14.87,30.42,14.92Zm.13-5.72.53-.77a1.66,1.66,0,0,0,.18-.35,2,2,0,0,0-.16-1.61S31,6.35,31,6.36a1.37,1.37,0,0,0-.89.39.44.44,0,0,1-.07.68c-.22.15-.19.34-.18.57l.26-.13.18.28-.4.28A1.68,1.68,0,0,0,30.55,9.2Zm-1.86,3.48c.46-.16.91-.31,1.34-.48s.62-.26.92-.4c.06,0,.13-.1.13-.13-.06-.29-.14-.57-.22-.88l-.25.34h0l.23-.74a.33.33,0,0,0-.51,0l-.26.25A4.24,4.24,0,0,0,28.69,12.68Zm1.63-3-1.81.08c-.2,0-.41,0-.61,0s-.32,0-.31.36c.82.4,1.22.93,1.12,1.59a1.3,1.3,0,0,0,.22-.17c.22-.28.41-.57.65-.83A2.77,2.77,0,0,0,30.32,9.64ZM28.73,20.69a1.7,1.7,0,0,1,1-1.6A1.19,1.19,0,0,0,30.42,18a5.18,5.18,0,0,0-.3-1.35s0,0-.05-.06l-.55-.25c0,.1.05.19.07.28a2.59,2.59,0,0,1,0,1.56,2.74,2.74,0,0,1-.79,1.34,1.48,1.48,0,0,0-.35.47C28.33,20.29,28.41,20.51,28.73,20.69ZM34.37,6.21l0,0,.18,0c.46-.09.74.19.61.64a2.48,2.48,0,0,1-.38.74.6.6,0,0,0-.07.67.26.26,0,0,0,.23.08,1.79,1.79,0,0,0,1-1.61.87.87,0,0,0-.47-.81,1,1,0,0,0-1,.06A1,1,0,0,0,34.37,6.21Zm-.62,9.6a6.18,6.18,0,0,0,.78-2.68,3.79,3.79,0,0,1-1.75,1.56A1.6,1.6,0,0,1,33.75,15.81ZM28.81,15A3.32,3.32,0,0,0,30,16.29l.26-1.1Zm2.41-4.77a.39.39,0,0,0,.09.61c.4.35.72.38,1,.11Zm2.7-5.09a.54.54,0,0,0-.53-.29.29.29,0,0,0-.28.24Zm.71,5.92-.35.07.35.49Zm-3.31.46.26-.17-.34-.21Z"/><path d="M16.54,4.39c0-.09.05-.13.06-.16a.79.79,0,0,1,.83-.68.84.84,0,0,1,.81.89,3,3,0,0,1-.23,1,10.37,10.37,0,0,1-.53,1c-.09.17-.17.34-.26.53-.54-.37-1.1-.71-1.61-1.11a2.09,2.09,0,0,1-.55-.76.81.81,0,0,1,.37-1,.78.78,0,0,1,1,.15S16.48,4.31,16.54,4.39Z"/><path d="M6.11,8.91,5,8.21a2.44,2.44,0,0,1-1-1A.86.86,0,0,1,4.62,6a.89.89,0,0,1,.82.4l0-.12a.8.8,0,0,1,.92-.67.89.89,0,0,1,.74,1,3.1,3.1,0,0,1-.39,1.18C6.53,8.16,6.31,8.54,6.11,8.91Z"/><path d="M16.75,18.68c0-.07,0-.12.06-.18a.76.76,0,0,1,.86-.61.84.84,0,0,1,.76.77,2.13,2.13,0,0,1-.29,1.24c-.23.45-.48.89-.73,1.34-.48-.32-1-.62-1.47-1a2.45,2.45,0,0,1-.6-.68.83.83,0,0,1,.24-1.17.8.8,0,0,1,1.11.2S16.72,18.65,16.75,18.68Z"/><path d="M12.85,8.6a1.36,1.36,0,0,0,.07.38c.23.46.48.91.74,1.39.25-.44.47-.85.7-1.26a.54.54,0,0,0,.1-.18,1.67,1.67,0,0,0,0-.34h1a4.87,4.87,0,0,0-.06.55c0,.64,0,1.29,0,1.94a2,2,0,0,0,.08.4h-.89c.23-.17.16-.41.16-.62V9.78a.43.43,0,0,0,0-.21l-1.11,1.92-1.07-2c0,.12,0,.18,0,.23,0,.43,0,.86,0,1.29a3.58,3.58,0,0,0,.08.43h-.76a2.66,2.66,0,0,0,.09-.46q0-1,0-2a1.89,1.89,0,0,0-.09-.38Z"/><path d="M16.52,16c0-.45,0-.84,0-1.24,0-.08-.07-.15-.11-.24h.79c-.2.15-.14.36-.14.55,0,.47,0,.94,0,1.42a1.73,1.73,0,0,0,.08.35h-.82c.17-.14.06-.22,0-.31-.42-.39-.84-.79-1.29-1.17a4.35,4.35,0,0,0,.09,1.48h-.71a3.54,3.54,0,0,0,.07-.47c0-.5,0-1,0-1.48a1.76,1.76,0,0,0-.08-.37h.88c-.18.16,0,.25.07.35Z"/><path d="M23.51,16.82c0-.11,0-.21-.05-.25-.43-.42-.87-.84-1.34-1.24a4.35,4.35,0,0,0,.08,1.48h-.71a3.85,3.85,0,0,0,.08-.49c0-.49,0-1,0-1.48a1.5,1.5,0,0,0-.09-.35h.88c-.16.15,0,.24.07.34l1.17,1.11a2.49,2.49,0,0,0-.11-1.45h.83c-.21.16-.14.38-.14.59q0,.64,0,1.29a2.46,2.46,0,0,0,.07.45Z"/><path d="M4.78,16.82h-1c.23-.13.19-.26.12-.4-.35-.72-.68-1.44-1-2.15a3.26,3.26,0,0,0-.22-.34h1c-.22.14-.15.28-.08.43L4.34,16a.74.74,0,0,0,.09-.12c.23-.5.46-1,.7-1.51.06-.14.12-.28-.08-.38H6c-.47.81-.84,1.71-1.25,2.57C4.71,16.59,4.77,16.7,4.78,16.82Z"/><path d="M27.22,16.28v.63a1.78,1.78,0,0,0-.39-.07h-2a2.31,2.31,0,0,0,.08-.43c0-.49,0-1,0-1.48a2.57,2.57,0,0,0-.08-.44h2a1.39,1.39,0,0,0,.33-.07V15a2.25,2.25,0,0,0-.36-.06H25.47v.52a3.23,3.23,0,0,0,1.11-.09v.6c-.34-.21-.73,0-1.11-.11v.58A4.07,4.07,0,0,0,27.22,16.28Z"/><path d="M12.2,14.88v.52a3.83,3.83,0,0,0,1.12-.08v.59c-.35-.2-.73,0-1.11-.11v.59a4.26,4.26,0,0,0,1.74-.1v.61a2.25,2.25,0,0,0-.36-.06H11.54a3.35,3.35,0,0,0,.07-.53c0-.49,0-1,0-1.46a1.52,1.52,0,0,0-.09-.37h2a2.38,2.38,0,0,0,.37-.06V15a2.38,2.38,0,0,0-.37-.06Z"/><path d="M21.31,10.14c-.15-.42-.31-.85-.44-1.29a1.23,1.23,0,0,1,0-.54.58.58,0,0,1,.6-.49.54.54,0,0,1,.53.5.81.81,0,0,1,0,.11l.13-.08a.54.54,0,0,1,.7,0,.61.61,0,0,1,.12.74,1.5,1.5,0,0,1-.69.58Z"/><path d="M5.68,16.82c.11-.18.22-.34.32-.52.24-.44.46-.89.69-1.33.09-.16.17-.31,0-.49h1c-.26.19-.11.36,0,.52.25.46.5.92.76,1.37.09.15.2.29.3.44H7.74a.26.26,0,0,0,.06-.39.3.3,0,0,0-.33-.18,5.3,5.3,0,0,1-.69,0,.25.25,0,0,0-.32.22,1.39,1.39,0,0,0,0,.36Zm1.82-.93-.39-.72-.37.72Z"/><path d="M17.49,9.14h1a6.39,6.39,0,0,0-.94,1.09c-.29.32-.14.7-.16,1.06,0,.05.08.11.14.18h-.89c.25-.17.14-.42.16-.64a.71.71,0,0,0-.18-.62,6.17,6.17,0,0,1-.44-.57c-.14-.17-.3-.33-.45-.5h1.11c-.28.17-.11.31,0,.46l.29.38c.14-.2.29-.38.4-.57S17.52,9.24,17.49,9.14Z"/><path d="M19.89,14.39V15a1.5,1.5,0,0,0-.92-.07v.83c0,.24,0,.48,0,.72a1.73,1.73,0,0,0,.08.35h-.74a3.35,3.35,0,0,0,.07-.44c0-.49,0-1,0-1.48-.31,0-.62-.09-.91.09V14.4a2,2,0,0,0,.34.06h1.71A1.72,1.72,0,0,0,19.89,14.39Z"/><path d="M11.22,16.3v.6a2.14,2.14,0,0,0-.35-.06H9a2.67,2.67,0,0,0,.08-.45c0-.5,0-1,0-1.51A2.08,2.08,0,0,0,9,14.48H9.8c-.2.17-.14.39-.14.59,0,.44,0,.87,0,1.31A3.78,3.78,0,0,0,11.22,16.3Z"/><path d="M11.74,21.2c0-.23.08-.41.31-.45a.34.34,0,0,1,.42.18,1.47,1.47,0,0,1,.08.55c0,.27-.11.53-.16.8l-.67-.19a1.76,1.76,0,0,1-.39-.19.44.44,0,0,1-.18-.59C11.26,21.12,11.43,21.08,11.74,21.2Z"/><path d="M8.67,11.65c-.11-.18-.21-.35-.3-.52a2.75,2.75,0,0,1-.17-.45.44.44,0,0,1,.26-.57c.23-.08.38,0,.52.32l.09-.07a.35.35,0,0,1,.48,0,.36.36,0,0,1,.1.49,1.44,1.44,0,0,1-.35.39C9.11,11.39,8.88,11.51,8.67,11.65Z"/><path d="M4.38,20.87c.28-.2.42-.22.59-.07a.37.37,0,0,1,.07.51,2.18,2.18,0,0,1-.46.45,5.89,5.89,0,0,1-.52.33c-.15-.3-.31-.59-.43-.9a.71.71,0,0,1,0-.41A.36.36,0,0,1,4,20.52C4.23,20.52,4.32,20.68,4.38,20.87Z"/><path d="M8.2,19.3a1.59,1.59,0,0,1,.46-.08.36.36,0,0,1,.24.52,2.61,2.61,0,0,1-.42.46,1.53,1.53,0,0,1-.3.19l-.3.2a10.55,10.55,0,0,1-.44-1A.42.42,0,0,1,7.73,19C7.93,19,8.05,19,8.2,19.3Z"/><path d="M5.56,2.62c.24-.19.43-.21.59-.06a.41.41,0,0,1,0,.61,3.7,3.7,0,0,1-.57.46l-.36.23a10.52,10.52,0,0,1-.44-1.07.4.4,0,0,1,.4-.52C5.33,2.27,5.43,2.35,5.56,2.62Z"/><path d="M21.74,3.41a1.77,1.77,0,0,1,.17-.12.35.35,0,0,1,.41.07.35.35,0,0,1,.09.46,1.77,1.77,0,0,1-.39.43,5.27,5.27,0,0,1-.63.4c-.15-.34-.32-.67-.44-1a.41.41,0,0,1,.31-.55C21.46,3,21.58,3.12,21.74,3.41Z"/><path d="M9.9,3.57c0-.23.08-.42.32-.46a.41.41,0,0,1,.49.41c0,.37-.08.74-.13,1.16-.37-.13-.68-.22-1-.35A.66.66,0,0,1,9.29,4a.61.61,0,0,1,.11-.4C9.49,3.45,9.64,3.46,9.9,3.57Z"/><path d="M3.42,13.45a9,9,0,0,1-1-.36.64.64,0,0,1-.31-.34.55.55,0,0,1,.11-.4c.13-.16.32-.1.5,0,0-.2.06-.39.28-.45a.41.41,0,0,1,.53.42C3.54,12.67,3.47,13,3.42,13.45Z"/><path d="M21.84,20.39l.17-.12a.32.32,0,0,1,.39.05c.13.1.23.25.14.4a2.08,2.08,0,0,1-.42.51,5.83,5.83,0,0,1-.61.39,8.36,8.36,0,0,1-.43-.91.45.45,0,0,1,.17-.61C21.5,20,21.69,20.06,21.84,20.39Z"/><path d="M26.33,18.45a1.35,1.35,0,0,1,.28-.39.38.38,0,0,1,.57.3,2.29,2.29,0,0,1,0,.64,4.35,4.35,0,0,1-.12.56c-.31-.1-.61-.18-.9-.3a.83.83,0,0,1-.32-.27.36.36,0,0,1,0-.45.36.36,0,0,1,.42-.12Z"/><path d="M20.21,14.47H21c0,.19-.06.36-.07.54,0,.44,0,.89,0,1.33,0,.16.05.31.07.48h-.73a3.1,3.1,0,0,0,.08-.42c0-.51,0-1,0-1.51C20.29,14.76,20.24,14.63,20.21,14.47Z"/><path d="M32,15.77a.49.49,0,1,1-.43.49A.44.44,0,0,1,32,15.77Z"/><path d="M32.36,7.35c0,.21-.18.4-.34.39s-.19-.12-.19-.25.18-.43.35-.42S32.37,7.21,32.36,7.35Z"/><path d="M33.8,12.22a.54.54,0,0,1-.47.54.36.36,0,0,1-.33-.41.52.52,0,0,1,.48-.52A.35.35,0,0,1,33.8,12.22Z"/><path d="M28.88,12.14l-.37-.29s-.06,0-.09,0l-.8-.2v2.06l-.4,0c0-.54-.08-1.06-.12-1.58a3.19,3.19,0,0,0-.16-1c-.16-.31,0-.62-.13-.92s-.15-.61-.23-.92-.12-.33-.15-.51-.21-.33-.43-.39A4.11,4.11,0,0,1,25.24,8,.41.41,0,0,1,25,7.59c0-.32.28-.43.64-.28,0-.18.05-.37.26-.44a.42.42,0,0,1,.55.37,1,1,0,0,1,0,.38,1,1,0,0,0,.1.64c.2.58.37,1.16.56,1.76.11,0,.16-.12.16-.28a23.2,23.2,0,0,0-.43-4.16.52.52,0,0,0-.19-.28c-.38-.26-.78-.48-1.14-.76a2.3,2.3,0,0,1-.52-.6.84.84,0,0,1,.22-1.17.81.81,0,0,1,1.11.17l.07.1a1.3,1.3,0,0,0,.05-.14c.14-.5.48-.75.9-.67a.88.88,0,0,1,.75,1,3.09,3.09,0,0,1-.42,1.25c-.16.28-.33.55-.47.83a.51.51,0,0,0-.06.32,23.74,23.74,0,0,1,.39,3.76.37.37,0,0,0,0,.17c.09-.43.17-.87.28-1.3s.31-1.07.45-1.6a.65.65,0,0,0,0-.34A2.81,2.81,0,0,1,28,5a.61.61,0,0,1,.57-.58.53.53,0,0,1,.58.44c0,.05,0,.1,0,.17L29.33,5A.56.56,0,0,1,30,5a.53.53,0,0,1,.18.66,1.56,1.56,0,0,1-.46.53,7.36,7.36,0,0,1-.89.44.41.41,0,0,0-.27.3c-.23.9-.47,1.8-.73,2.77l2.58-.1,0-.07-.15-.16a2.21,2.21,0,0,1-.65-1.43,1.55,1.55,0,0,1,1.26-1.59A1.38,1.38,0,0,0,31.54,6a2.7,2.7,0,0,1,1.3-.64A.27.27,0,0,0,33,5.21a.65.65,0,0,1,.69-.43.74.74,0,0,1,.71.53.2.2,0,0,0,.13.12c.39.14.78.25,1.16.38a1.09,1.09,0,0,1,.77.86c.09.44.2.89.26,1.34a2.89,2.89,0,0,1-.9,2.73,2.69,2.69,0,0,1-.55.35.25.25,0,0,0-.18.3,8.7,8.7,0,0,1-.31,3.25c-.17.57-.44,1.12-.66,1.68a1,1,0,0,0-.09.34,17.39,17.39,0,0,1-.5,4.31c-.06.18-.13.36-.2.54a1.75,1.75,0,0,1-1.46,1.18,2.6,2.6,0,0,1-2.25-.51,4.72,4.72,0,0,1-.56-.75.83.83,0,0,0-.21-.24.81.81,0,0,1-.32-1.32,3.36,3.36,0,0,1,.34-.41,2.39,2.39,0,0,0,.69-2.33c0-.15-.07-.3-.11-.45a2.29,2.29,0,0,0-.45-1,3.94,3.94,0,0,1-.31-.48,4.44,4.44,0,0,0-.42-.55.88.88,0,0,1,.1-1.41.38.38,0,0,0,.15-.16C28.66,12.77,28.77,12.44,28.88,12.14Zm4.87,4.77a2.4,2.4,0,0,0-.21-1.18,1.1,1.1,0,0,0-1.33-.57,7,7,0,0,1-.91.17.69.69,0,0,0-.67.59,1,1,0,0,0-.06.42,8.41,8.41,0,0,0,.23,1.11,1.68,1.68,0,0,1-.9,2.19,1.35,1.35,0,0,0-.33.26,1.38,1.38,0,0,0,.17,2,2.42,2.42,0,0,0,2.23.47,1.33,1.33,0,0,0,1-.83,6.15,6.15,0,0,0,.31-.85A16.53,16.53,0,0,0,33.75,16.91ZM31,9.56a6,6,0,0,0,1.95,1.24,3.63,3.63,0,0,0,1,.25,2.44,2.44,0,0,0,2.41-3.33s0,0,0,.07a2.37,2.37,0,0,1-.94,1,.44.44,0,0,1-.7-.2.92.92,0,0,1,0-.84.26.26,0,0,0,0-.19c0-.26-.07-.52-.11-.78a.31.31,0,0,1-.33-.28.7.7,0,0,1,.5-.66,6.25,6.25,0,0,0-1.19-.23,2.61,2.61,0,0,0-2,.7.2.2,0,0,0-.05.27,3.55,3.55,0,0,1,.26.82,1.85,1.85,0,0,1-.28,1.39C31.34,9,31.17,9.29,31,9.56Zm-.37,5.56c.38,0,.73-.06,1.08-.12a4.36,4.36,0,0,0,2.44-1.3,1.68,1.68,0,0,0,.49-1.33,1,1,0,0,0-.27-.73,1.43,1.43,0,0,0-1.12-.34,3.45,3.45,0,0,0-1.69.75,7,7,0,0,1-1,.56c-.24.11-.51.14-.77.23a2.82,2.82,0,0,0-1.14.7.71.71,0,0,0-.16.72,1,1,0,0,0,.84.69C29.73,15,30.19,15.07,30.62,15.12Zm.13-5.72.53-.77a1.73,1.73,0,0,0,.18-.36,2,2,0,0,0-.16-1.61s-.1-.11-.14-.11a1.41,1.41,0,0,0-.9.4.43.43,0,0,1-.06.68C30,7.78,30,8,30,8.2l.26-.13.18.28-.4.28A1.68,1.68,0,0,0,30.75,9.4Zm-1.86,3.48c.46-.16.9-.31,1.34-.48s.62-.26.92-.41c.05,0,.13-.09.12-.12-.06-.29-.13-.57-.21-.88l-.26.34h0l.23-.74a.34.34,0,0,0-.52,0,3.13,3.13,0,0,1-.26.25A4.3,4.3,0,0,0,28.89,12.88Zm1.63-3.05-1.81.09H28.1c-.31,0-.33.06-.31.37.82.39,1.22.93,1.12,1.58a1,1,0,0,0,.22-.16c.22-.28.41-.58.64-.84A2.64,2.64,0,0,0,30.52,9.83ZM28.93,20.89a1.7,1.7,0,0,1,1-1.6,1.2,1.2,0,0,0,.65-1.09,5.62,5.62,0,0,0-.3-1.35s0-.05-.05-.06l-.55-.25c0,.1.05.19.07.28a2.67,2.67,0,0,1,0,1.56A2.79,2.79,0,0,1,29,19.72a1.48,1.48,0,0,0-.35.47C28.52,20.49,28.61,20.71,28.93,20.89ZM34.57,6.4l0,0,.18,0c.47-.09.75.19.62.64A3.05,3.05,0,0,1,35,7.8a.6.6,0,0,0-.07.67.23.23,0,0,0,.23.07,1.77,1.77,0,0,0,1-1.6.84.84,0,0,0-.48-.81,1,1,0,0,0-1,.06C34.67,6.23,34.63,6.33,34.57,6.4ZM34,16a6.22,6.22,0,0,0,.78-2.68A3.85,3.85,0,0,1,33,14.89,1.6,1.6,0,0,1,34,16ZM29,15.2a3.25,3.25,0,0,0,1.23,1.29l.26-1.1Zm2.41-4.77c-.17.19-.14.41.08.61.41.35.73.38,1,.1Zm2.69-5.1a.53.53,0,0,0-.52-.28c-.14,0-.26.08-.28.24Zm.72,5.93-.35.06.35.5Zm-3.31.46.26-.17-.34-.21Z"/><path d="M16.73,4.59a.67.67,0,0,0,.06-.16.81.81,0,0,1,.84-.68.84.84,0,0,1,.81.89,3.33,3.33,0,0,1-.23,1,10.37,10.37,0,0,1-.53,1c-.09.17-.17.34-.26.52-.54-.36-1.1-.7-1.61-1.1a2.12,2.12,0,0,1-.56-.76.83.83,0,0,1,.37-1,.8.8,0,0,1,1,.14A2.2,2.2,0,0,1,16.73,4.59Z"/><path d="M6.31,9.11l-1.14-.7a2.55,2.55,0,0,1-1-1,.86.86,0,0,1,.63-1.24.89.89,0,0,1,.82.4.84.84,0,0,0,0-.12c.15-.5.5-.76.92-.67a.89.89,0,0,1,.74,1A2.86,2.86,0,0,1,6.94,8Z"/><path d="M17,18.88c0-.07,0-.13.05-.18a.78.78,0,0,1,.87-.61.84.84,0,0,1,.76.77,2.13,2.13,0,0,1-.29,1.24c-.23.45-.49.89-.73,1.33-.48-.31-1-.61-1.48-1a2.56,2.56,0,0,1-.59-.68.83.83,0,0,1,.24-1.17.8.8,0,0,1,1.11.2Z"/><path d="M13.05,8.79a1.13,1.13,0,0,0,.07.39c.23.46.48.9.74,1.39l.7-1.26a.54.54,0,0,0,.1-.18,1.67,1.67,0,0,0,0-.34h1a5,5,0,0,0-.07.54c0,.65,0,1.3,0,1.95a2,2,0,0,0,.07.4h-.88c.22-.18.15-.41.16-.62V10a.43.43,0,0,0-.05-.21l-1.11,1.92-1.07-2c0,.12,0,.17,0,.23,0,.43,0,.86,0,1.29a2.31,2.31,0,0,0,.08.43H12a2.66,2.66,0,0,0,.09-.46q0-1,0-2A2.16,2.16,0,0,0,12,8.79Z"/><path d="M16.72,16.17c0-.45,0-.85,0-1.24,0-.08-.07-.15-.11-.25h.79c-.2.15-.14.36-.14.56,0,.47,0,.94,0,1.42a1.73,1.73,0,0,0,.08.35h-.82c.17-.14.06-.22,0-.31-.42-.39-.84-.79-1.29-1.17A4.61,4.61,0,0,0,15.28,17h-.71a2.43,2.43,0,0,0,.08-.47c0-.5,0-1,0-1.49a1.9,1.9,0,0,0-.08-.37h.88c-.19.16,0,.25.06.35Z"/><path d="M23.71,17c0-.11,0-.21-.05-.25-.43-.43-.88-.84-1.34-1.24A4.35,4.35,0,0,0,22.4,17h-.71a3.85,3.85,0,0,0,.08-.49c0-.5,0-1,0-1.48a2.25,2.25,0,0,0-.09-.35h.88c-.16.15,0,.24.07.34l1.17,1.11a2.49,2.49,0,0,0-.11-1.45h.82c-.2.16-.13.38-.13.59q0,.65,0,1.29a2.46,2.46,0,0,0,.07.45Z"/><path d="M5,17H4c.23-.13.19-.26.12-.4-.35-.72-.69-1.44-1-2.15a3.26,3.26,0,0,0-.22-.34h1c-.22.13-.15.28-.08.43l.74,1.59s.07-.08.08-.12l.71-1.52c.06-.13.12-.27-.08-.37h1c-.47.81-.84,1.7-1.25,2.57C4.91,16.79,5,16.9,5,17Z"/><path d="M27.42,16.48v.63A1.89,1.89,0,0,0,27,17H25a2.31,2.31,0,0,0,.08-.43c0-.49,0-1,0-1.48a2.57,2.57,0,0,0-.08-.44h2a2.46,2.46,0,0,0,.33-.07v.56a2.25,2.25,0,0,0-.36-.06H25.67v.52a3.5,3.5,0,0,0,1.11-.09v.6c-.34-.21-.73,0-1.11-.11v.58A4.09,4.09,0,0,0,27.42,16.48Z"/><path d="M12.4,15.08v.52a3.83,3.83,0,0,0,1.12-.08v.59c-.35-.2-.73,0-1.11-.11v.59a4.26,4.26,0,0,0,1.74-.1v.61a2.2,2.2,0,0,0-.37-.06h-2a5.15,5.15,0,0,0,.07-.53c0-.49,0-1,0-1.46a1.42,1.42,0,0,0-.09-.37h2a2.58,2.58,0,0,0,.37-.06v.55a2.58,2.58,0,0,0-.37-.06Z"/><path d="M21.51,10.34c-.15-.43-.31-.85-.44-1.29a1.23,1.23,0,0,1,0-.54.57.57,0,0,1,.6-.49.54.54,0,0,1,.53.49s0,.07,0,.12l.13-.09a.55.55,0,0,1,.7,0,.61.61,0,0,1,.11.74,1.49,1.49,0,0,1-.68.58Z"/><path d="M5.88,17c.1-.17.22-.34.32-.52l.69-1.32c.08-.17.17-.32,0-.49h1c-.26.19-.11.35,0,.52l.76,1.37c.09.15.2.29.3.44h-1A.26.26,0,0,0,8,16.62a.3.3,0,0,0-.33-.18,4,4,0,0,1-.69,0,.27.27,0,0,0-.32.23,1.33,1.33,0,0,0,0,.35Zm1.82-.92-.39-.73-.37.73Z"/><path d="M17.69,9.34h1a6,6,0,0,0-.94,1.09c-.3.32-.14.7-.16,1.06,0,0,.08.11.14.18h-.89c.25-.18.14-.42.16-.64a.72.72,0,0,0-.19-.62c-.16-.18-.28-.38-.44-.57s-.29-.33-.44-.5h1.11c-.28.17-.12.31,0,.45l.29.39a6.7,6.7,0,0,0,.4-.58S17.72,9.44,17.69,9.34Z"/><path d="M20.09,14.59v.59a1.58,1.58,0,0,0-.93-.08v.84c0,.24,0,.48,0,.72a1.73,1.73,0,0,0,.08.35h-.74a3.64,3.64,0,0,0,.07-.44c0-.49,0-1,0-1.49-.31,0-.62-.08-.92.09V14.6a2.14,2.14,0,0,0,.35.06h1.71A1.72,1.72,0,0,0,20.09,14.59Z"/><path d="M11.42,16.5v.6c-.12,0-.24-.06-.35-.07H9.19a2.67,2.67,0,0,0,.08-.45c0-.51,0-1,0-1.51a1.55,1.55,0,0,0-.09-.39H10c-.21.17-.14.38-.15.59v1.3A3.63,3.63,0,0,0,11.42,16.5Z"/><path d="M11.94,21.4c0-.23.07-.41.31-.46a.34.34,0,0,1,.41.19,1.26,1.26,0,0,1,.09.54c0,.27-.11.54-.16.81l-.67-.19a1.66,1.66,0,0,1-.4-.2.41.41,0,0,1-.17-.58C11.45,21.32,11.63,21.28,11.94,21.4Z"/><path d="M8.86,11.85c-.1-.18-.2-.35-.29-.53a2.35,2.35,0,0,1-.17-.44.43.43,0,0,1,.26-.57c.23-.08.38,0,.52.32l.09-.07a.35.35,0,0,1,.48,0,.36.36,0,0,1,.1.49,1.61,1.61,0,0,1-.35.39C9.3,11.59,9.08,11.71,8.86,11.85Z"/><path d="M4.58,21.06c.28-.2.42-.21.59-.06a.37.37,0,0,1,.07.51,2.18,2.18,0,0,1-.46.45,5.89,5.89,0,0,1-.52.33c-.15-.3-.31-.59-.43-.9a.72.72,0,0,1,0-.41.36.36,0,0,1,.37-.26C4.43,20.71,4.51,20.88,4.58,21.06Z"/><path d="M8.39,19.49a1.67,1.67,0,0,1,.47-.07.36.36,0,0,1,.23.52,2.22,2.22,0,0,1-.41.46,1.53,1.53,0,0,1-.3.19l-.31.2a10.43,10.43,0,0,1-.43-1,.42.42,0,0,1,.28-.59C8.13,19.16,8.25,19.24,8.39,19.49Z"/><path d="M5.76,2.82c.24-.2.43-.21.59-.06a.42.42,0,0,1,0,.61,4.18,4.18,0,0,1-.57.45c-.1.08-.21.14-.36.24C5.25,3.69,5.08,3.35,5,3a.42.42,0,0,1,.41-.53C5.53,2.47,5.62,2.55,5.76,2.82Z"/><path d="M21.94,3.61a1.77,1.77,0,0,1,.17-.12.34.34,0,0,1,.41.07.35.35,0,0,1,.09.46,1.77,1.77,0,0,1-.39.43,5.27,5.27,0,0,1-.63.4c-.15-.35-.33-.68-.44-1a.42.42,0,0,1,.31-.56C21.65,3.23,21.78,3.32,21.94,3.61Z"/><path d="M10.1,3.76c0-.22.08-.41.32-.45a.39.39,0,0,1,.48.41,10.16,10.16,0,0,1-.12,1.16,9.81,9.81,0,0,1-1-.36.61.61,0,0,1-.31-.34.52.52,0,0,1,.11-.4C9.69,3.65,9.84,3.66,10.1,3.76Z"/><path d="M3.62,13.65c-.38-.14-.69-.22-1-.36A.61.61,0,0,1,2.33,13a.5.5,0,0,1,.11-.4c.13-.16.32-.1.5,0,0-.2.06-.39.28-.45a.4.4,0,0,1,.53.41C3.74,12.87,3.67,13.24,3.62,13.65Z"/><path d="M22,20.59l.18-.12a.33.33,0,0,1,.39,0c.13.11.22.26.14.41a1.91,1.91,0,0,1-.43.51,4.79,4.79,0,0,1-.6.39c-.15-.3-.32-.6-.44-.91a.46.46,0,0,1,.18-.61C21.69,20.16,21.89,20.26,22,20.59Z"/><path d="M26.52,18.65c.11-.15.17-.31.29-.39a.38.38,0,0,1,.57.3,2.29,2.29,0,0,1,0,.64c0,.18-.08.36-.12.56-.31-.1-.61-.18-.9-.3a.83.83,0,0,1-.32-.27.36.36,0,0,1,0-.45.35.35,0,0,1,.41-.13S26.53,18.65,26.52,18.65Z"/><path d="M20.41,14.67h.74c0,.18-.06.36-.07.54,0,.44,0,.89,0,1.33a2.78,2.78,0,0,0,.07.48h-.73c0-.15.07-.29.08-.43v-1.5C20.49,15,20.44,14.83,20.41,14.67Z"/><path d="M32.23,16a.45.45,0,0,1,.43.49.45.45,0,0,1-.42.49.47.47,0,0,1-.45-.49A.46.46,0,0,1,32.23,16Z"/><path d="M32.56,7.55c0,.2-.18.4-.34.39S32,7.81,32,7.69s.18-.43.35-.42S32.57,7.41,32.56,7.55Z"/><path d="M34,12.42a.54.54,0,0,1-.47.54.36.36,0,0,1-.33-.41.52.52,0,0,1,.47-.52A.35.35,0,0,1,34,12.42Z"/></g><g class="cls-3"><path d="M28.54,11.8l-.37-.29s-.06,0-.1,0l-.79-.2v2.06l-.4,0c0-.54-.08-1.06-.12-1.58a3.19,3.19,0,0,0-.16-1c-.16-.31,0-.62-.13-.92s-.15-.61-.23-.92-.12-.33-.15-.51S25.88,8,25.66,8a5,5,0,0,1-.76-.29.41.41,0,0,1-.24-.42c0-.32.28-.43.64-.28,0-.19,0-.37.26-.44a.42.42,0,0,1,.55.37,1,1,0,0,1,0,.38,1,1,0,0,0,.1.64c.2.58.37,1.16.56,1.76.11,0,.16-.12.16-.28a23.2,23.2,0,0,0-.43-4.16A.49.49,0,0,0,26.31,5c-.38-.26-.78-.48-1.14-.76a2.3,2.3,0,0,1-.52-.6.84.84,0,0,1,.22-1.17A.81.81,0,0,1,26,2.6l.07.1a1.3,1.3,0,0,0,.05-.14c.14-.5.48-.75.9-.67a.88.88,0,0,1,.75,1,3.09,3.09,0,0,1-.42,1.25c-.16.28-.33.55-.47.83a.51.51,0,0,0-.06.32,23.74,23.74,0,0,1,.39,3.76.37.37,0,0,0,0,.17c.09-.43.17-.87.28-1.3s.31-1.07.45-1.6A.65.65,0,0,0,28,6a2.81,2.81,0,0,1-.32-1.3.61.61,0,0,1,.57-.58.53.53,0,0,1,.58.44s0,.1,0,.17L29,4.61a.56.56,0,0,1,.63,0,.53.53,0,0,1,.18.66,1.56,1.56,0,0,1-.46.53,7.36,7.36,0,0,1-.89.44.41.41,0,0,0-.27.3c-.23.9-.47,1.8-.73,2.77L30,9.24l0-.07L29.9,9a2.21,2.21,0,0,1-.65-1.43A1.55,1.55,0,0,1,30.51,6a1.38,1.38,0,0,0,.69-.35A2.7,2.7,0,0,1,32.5,5a.27.27,0,0,0,.17-.13.65.65,0,0,1,.69-.43.74.74,0,0,1,.71.53.2.2,0,0,0,.13.12c.39.14.78.25,1.16.38a1.09,1.09,0,0,1,.77.86c.09.44.2.89.26,1.34a2.89,2.89,0,0,1-.9,2.73,2.69,2.69,0,0,1-.55.35.25.25,0,0,0-.18.3,8.7,8.7,0,0,1-.31,3.25c-.17.57-.44,1.12-.66,1.68a1,1,0,0,0-.09.34,17.39,17.39,0,0,1-.5,4.31c-.06.18-.13.36-.2.54a1.75,1.75,0,0,1-1.46,1.18,2.6,2.6,0,0,1-2.25-.51,4.39,4.39,0,0,1-.56-.76.93.93,0,0,0-.21-.23.81.81,0,0,1-.32-1.32,3.36,3.36,0,0,1,.34-.41,2.39,2.39,0,0,0,.69-2.33c0-.15-.07-.3-.11-.45a2.29,2.29,0,0,0-.45-1,3.94,3.94,0,0,1-.31-.48,4.44,4.44,0,0,0-.42-.55.88.88,0,0,1,.1-1.41.38.38,0,0,0,.15-.16C28.32,12.43,28.43,12.1,28.54,11.8Zm4.87,4.77a2.4,2.4,0,0,0-.21-1.18,1.1,1.1,0,0,0-1.33-.57A9.12,9.12,0,0,1,31,15a.69.69,0,0,0-.67.59,1,1,0,0,0-.06.42,8.76,8.76,0,0,0,.23,1.11,1.68,1.68,0,0,1-.9,2.19,1.35,1.35,0,0,0-.33.26,1.38,1.38,0,0,0,.17,2,2.45,2.45,0,0,0,2.23.47,1.33,1.33,0,0,0,1-.83,6.15,6.15,0,0,0,.31-.85A16.53,16.53,0,0,0,33.41,16.57ZM30.65,9.22a6,6,0,0,0,2,1.24,3.63,3.63,0,0,0,1,.25A2.44,2.44,0,0,0,36,7.38s0,0-.05.07a2.34,2.34,0,0,1-.95,1,.43.43,0,0,1-.69-.2.92.92,0,0,1,0-.84.26.26,0,0,0,0-.19c0-.26-.07-.52-.11-.78A.31.31,0,0,1,34,6.13c0-.34.2-.52.5-.66a6.25,6.25,0,0,0-1.19-.23,2.56,2.56,0,0,0-2,.7.2.2,0,0,0-.05.27,3.55,3.55,0,0,1,.26.82,1.85,1.85,0,0,1-.28,1.39C31,8.68,30.83,9,30.65,9.22Zm-.37,5.56c.38,0,.73-.06,1.08-.12a4.36,4.36,0,0,0,2.44-1.3A1.68,1.68,0,0,0,34.29,12,1,1,0,0,0,34,11.3,1.43,1.43,0,0,0,32.9,11a3.45,3.45,0,0,0-1.69.75,7,7,0,0,1-1,.56c-.24.11-.51.14-.77.23a2.82,2.82,0,0,0-1.14.7.71.71,0,0,0-.16.72,1,1,0,0,0,.84.69C29.39,14.7,29.85,14.73,30.28,14.78Zm.13-5.72.53-.77a1.73,1.73,0,0,0,.18-.36A2,2,0,0,0,31,6.32s-.1-.11-.14-.11a1.41,1.41,0,0,0-.9.4.43.43,0,0,1-.06.68c-.22.15-.2.34-.18.57l.26-.13.18.28-.4.28A1.68,1.68,0,0,0,30.41,9.06Zm-1.86,3.48c.46-.17.9-.31,1.34-.48s.62-.26.92-.41c.05,0,.13-.09.12-.12-.06-.29-.13-.57-.21-.88l-.26.34h0l.23-.74a.33.33,0,0,0-.52,0,3.13,3.13,0,0,1-.26.25A4.3,4.3,0,0,0,28.55,12.54Zm1.63-3-1.81.08h-.61c-.31,0-.33.06-.31.37.82.39,1.22.93,1.12,1.58a1,1,0,0,0,.22-.16c.22-.28.41-.58.64-.84A2.64,2.64,0,0,0,30.18,9.49ZM28.59,20.55a1.7,1.7,0,0,1,1-1.6,1.2,1.2,0,0,0,.65-1.09,5.62,5.62,0,0,0-.3-1.35s0-.05-.05-.06l-.55-.25c0,.1.05.19.07.28a2.67,2.67,0,0,1,0,1.56,2.79,2.79,0,0,1-.79,1.34,1.48,1.48,0,0,0-.35.47C28.18,20.15,28.27,20.37,28.59,20.55ZM34.23,6.06l0,.05.18,0c.47-.08.75.2.62.65a3.05,3.05,0,0,1-.38.74.6.6,0,0,0-.07.67.25.25,0,0,0,.23.07,1.77,1.77,0,0,0,1-1.6.84.84,0,0,0-.48-.81,1,1,0,0,0-1,.06C34.33,5.89,34.29,6,34.23,6.06Zm-.62,9.61A6.36,6.36,0,0,0,34.39,13a3.85,3.85,0,0,1-1.75,1.56A1.6,1.6,0,0,1,33.61,15.67Zm-4.94-.81a3.25,3.25,0,0,0,1.23,1.29l.26-1.1Zm2.41-4.77c-.17.19-.14.41.08.61.41.35.73.38,1,.1ZM33.77,5a.53.53,0,0,0-.52-.28c-.14,0-.26.07-.28.24Zm.72,5.93-.35.06.35.5Zm-3.31.46.26-.17L31.1,11Z"/><path d="M16.39,4.25a.67.67,0,0,0,.06-.16.81.81,0,0,1,.84-.68.84.84,0,0,1,.81.89,3.33,3.33,0,0,1-.23,1,10.37,10.37,0,0,1-.53,1l-.26.52c-.54-.36-1.1-.7-1.61-1.1a2.12,2.12,0,0,1-.56-.76.83.83,0,0,1,.37-1,.8.8,0,0,1,1,.14A2.2,2.2,0,0,1,16.39,4.25Z"/><path d="M6,8.77l-1.14-.7a2.55,2.55,0,0,1-1-1,.86.86,0,0,1,.63-1.24.89.89,0,0,1,.82.4.84.84,0,0,0,0-.12c.15-.5.5-.76.92-.67a.89.89,0,0,1,.74,1,2.86,2.86,0,0,1-.4,1.17Z"/><path d="M16.61,18.54c0-.07,0-.13.05-.18a.78.78,0,0,1,.87-.61.84.84,0,0,1,.76.77A2.13,2.13,0,0,1,18,19.76c-.23.45-.49.89-.73,1.33-.48-.31-1-.61-1.48-1a2.37,2.37,0,0,1-.59-.67.83.83,0,0,1,.24-1.17.8.8,0,0,1,1.11.2Z"/><path d="M12.71,8.45a1.13,1.13,0,0,0,.07.39c.23.46.48.9.74,1.39L14.22,9a.54.54,0,0,0,.1-.18,1.67,1.67,0,0,0,0-.34h1a5,5,0,0,0-.07.54v1.95a2.7,2.7,0,0,0,.08.39h-.88c.22-.17.15-.4.16-.61V9.64a.43.43,0,0,0-.05-.21l-1.11,1.92-1.07-2c0,.12,0,.17,0,.23,0,.43,0,.86,0,1.29a2.31,2.31,0,0,0,.08.43H11.7a4.14,4.14,0,0,0,.09-.46q0-1,0-2a2.16,2.16,0,0,0-.09-.39Z"/><path d="M16.38,15.83c0-.45,0-.85,0-1.24,0-.08-.07-.15-.11-.25h.79c-.2.15-.14.36-.14.56,0,.47,0,.94,0,1.42a1.73,1.73,0,0,0,.08.35h-.82c.17-.14.06-.22,0-.31-.42-.39-.84-.79-1.29-1.17a4.61,4.61,0,0,0,.08,1.48h-.71a2.43,2.43,0,0,0,.08-.47c0-.5,0-1,0-1.49a1.9,1.9,0,0,0-.08-.37h.88c-.19.16,0,.25.06.35Z"/><path d="M23.37,16.68c0-.11,0-.21-.05-.25-.43-.43-.88-.84-1.34-1.24a4.35,4.35,0,0,0,.08,1.48h-.71a3.85,3.85,0,0,0,.08-.49c0-.5,0-1,0-1.48a2.7,2.7,0,0,0-.09-.36h.88c-.16.16,0,.25.07.35l1.17,1.11a2.49,2.49,0,0,0-.11-1.45h.82c-.2.16-.13.38-.13.59q0,.64,0,1.29a2.46,2.46,0,0,0,.07.45Z"/><path d="M4.64,16.68h-1c.23-.13.19-.26.12-.4-.35-.72-.69-1.44-1-2.15a3.26,3.26,0,0,0-.22-.34h1c-.22.13-.15.28-.08.43l.74,1.59c0-.05.07-.08.08-.12.24-.51.47-1,.7-1.52.07-.13.13-.27-.07-.37h1c-.47.81-.84,1.7-1.25,2.57C4.57,16.44,4.63,16.56,4.64,16.68Z"/><path d="M27.08,16.14v.63a1.89,1.89,0,0,0-.39-.07h-2a2.31,2.31,0,0,0,.08-.43c0-.49,0-1,0-1.48a2.57,2.57,0,0,0-.08-.44h2a2.46,2.46,0,0,0,.33-.07v.56a2.25,2.25,0,0,0-.36-.06H25.33v.52a3.5,3.5,0,0,0,1.11-.09v.6c-.34-.21-.73,0-1.11-.11v.58A4.09,4.09,0,0,0,27.08,16.14Z"/><path d="M12.06,14.74v.52a3.83,3.83,0,0,0,1.12-.08v.59c-.35-.2-.73,0-1.11-.11v.59a4.26,4.26,0,0,0,1.74-.1v.61c-.13,0-.25-.06-.37-.07h-2a5.15,5.15,0,0,0,.07-.53c0-.49,0-1,0-1.46a1.42,1.42,0,0,0-.09-.37h2a2.58,2.58,0,0,0,.37-.06v.55a2.58,2.58,0,0,0-.37-.06Z"/><path d="M21.17,10c-.15-.43-.31-.85-.44-1.29a1.23,1.23,0,0,1,0-.54.59.59,0,0,1,.6-.5.55.55,0,0,1,.53.5s0,.07,0,.12L22,8.2a.55.55,0,0,1,.7,0,.61.61,0,0,1,.11.74,1.49,1.49,0,0,1-.68.58Z"/><path d="M5.54,16.67c.1-.17.22-.34.32-.52l.69-1.33c.08-.16.17-.31,0-.48h1c-.26.19-.11.35,0,.52l.76,1.37c.09.15.2.29.3.44h-1a.26.26,0,0,0,.06-.39.32.32,0,0,0-.33-.19,3.28,3.28,0,0,1-.7,0,.26.26,0,0,0-.31.23,1.33,1.33,0,0,0,0,.35Zm1.82-.92L7,15l-.37.73Z"/><path d="M17.35,9h1a6,6,0,0,0-.94,1.09c-.3.32-.14.7-.16,1.06,0,0,.08.11.14.18h-.89c.25-.18.14-.42.16-.64a.72.72,0,0,0-.19-.62c-.16-.18-.28-.38-.44-.57s-.29-.33-.44-.5h1.11c-.28.17-.12.31,0,.45l.29.39a6.7,6.7,0,0,0,.4-.58S17.38,9.1,17.35,9Z"/><path d="M19.75,14.25v.59a1.58,1.58,0,0,0-.93-.08v.84c0,.24,0,.48,0,.72a1.73,1.73,0,0,0,.08.35h-.74a3.64,3.64,0,0,0,.07-.44c0-.49,0-1,0-1.49-.31,0-.62-.08-.92.09v-.57a2.14,2.14,0,0,0,.35.06h1.71A1.72,1.72,0,0,0,19.75,14.25Z"/><path d="M11.08,16.16v.6c-.12,0-.24-.06-.35-.07H8.85a2.67,2.67,0,0,0,.08-.45c0-.51,0-1,0-1.51a1.46,1.46,0,0,0-.09-.39h.82c-.21.17-.14.38-.15.59v1.3A3.63,3.63,0,0,0,11.08,16.16Z"/><path d="M11.6,21.06c0-.23.07-.41.31-.46a.34.34,0,0,1,.41.19,1.26,1.26,0,0,1,.09.54c0,.27-.11.54-.16.81L11.58,22a2.14,2.14,0,0,1-.4-.2.41.41,0,0,1-.17-.58C11.11,21,11.29,20.94,11.6,21.06Z"/><path d="M8.52,11.51c-.1-.18-.2-.35-.29-.53a2.35,2.35,0,0,1-.17-.44A.43.43,0,0,1,8.32,10c.23-.08.38,0,.52.32l.09-.07a.35.35,0,0,1,.48,0,.36.36,0,0,1,.1.49,1.61,1.61,0,0,1-.35.39C9,11.25,8.74,11.37,8.52,11.51Z"/><path d="M4.24,20.72c.28-.2.42-.21.59-.06a.37.37,0,0,1,.07.51,2.18,2.18,0,0,1-.46.45,5.89,5.89,0,0,1-.52.33c-.15-.3-.31-.59-.43-.9a.72.72,0,0,1,0-.41.36.36,0,0,1,.37-.26C4.09,20.37,4.17,20.54,4.24,20.72Z"/><path d="M8.05,19.15a1.67,1.67,0,0,1,.47-.07.36.36,0,0,1,.23.52,2.22,2.22,0,0,1-.41.46,1.53,1.53,0,0,1-.3.19l-.31.2a10.43,10.43,0,0,1-.43-1,.42.42,0,0,1,.28-.59C7.79,18.82,7.91,18.9,8.05,19.15Z"/><path d="M5.42,2.48c.24-.2.43-.21.59-.06A.42.42,0,0,1,6,3a4.18,4.18,0,0,1-.57.45c-.1.08-.21.14-.36.24-.16-.37-.33-.71-.45-1.07A.42.42,0,0,1,5,2.12C5.19,2.13,5.28,2.21,5.42,2.48Z"/><path d="M21.6,3.27a1.77,1.77,0,0,1,.17-.12.34.34,0,0,1,.41.07.35.35,0,0,1,.09.45,1.65,1.65,0,0,1-.39.44,5.27,5.27,0,0,1-.63.4c-.15-.35-.33-.68-.44-1a.42.42,0,0,1,.31-.56C21.31,2.89,21.44,3,21.6,3.27Z"/><path d="M9.76,3.42c0-.22.08-.41.32-.45a.39.39,0,0,1,.48.4,10.1,10.1,0,0,1-.12,1.17,9.81,9.81,0,0,1-1-.36.61.61,0,0,1-.31-.34.52.52,0,0,1,.11-.4C9.35,3.31,9.5,3.32,9.76,3.42Z"/><path d="M3.28,13.31c-.38-.14-.69-.22-1-.36A.61.61,0,0,1,2,12.61a.5.5,0,0,1,.11-.4c.13-.16.32-.1.5,0,0-.2.06-.39.28-.45a.4.4,0,0,1,.53.41C3.4,12.53,3.33,12.9,3.28,13.31Z"/><path d="M21.69,20.25l.18-.12a.33.33,0,0,1,.39,0c.13.11.22.26.14.41a1.91,1.91,0,0,1-.43.51,4.79,4.79,0,0,1-.6.39c-.15-.3-.32-.6-.44-.91a.46.46,0,0,1,.18-.61C21.35,19.82,21.55,19.92,21.69,20.25Z"/><path d="M26.18,18.31c.11-.15.17-.31.29-.39a.38.38,0,0,1,.57.3,2.29,2.29,0,0,1,0,.64c0,.18-.08.36-.12.56-.31-.1-.61-.18-.9-.3a.83.83,0,0,1-.32-.27.36.36,0,0,1,0-.45.35.35,0,0,1,.41-.13S26.19,18.31,26.18,18.31Z"/><path d="M20.07,14.33h.74a5,5,0,0,0-.07.54c0,.44,0,.89,0,1.33a2.78,2.78,0,0,0,.07.48h-.73c0-.15.07-.29.08-.43,0-.5,0-1,0-1.5A2.55,2.55,0,0,0,20.07,14.33Z"/><path d="M31.89,15.63a.45.45,0,0,1,.43.49.46.46,0,0,1-.42.49.47.47,0,0,1-.45-.49A.46.46,0,0,1,31.89,15.63Z"/><path d="M32.22,7.21c0,.2-.18.4-.34.39s-.2-.13-.19-.25.18-.43.35-.42S32.23,7.07,32.22,7.21Z"/><path d="M33.66,12.08a.54.54,0,0,1-.47.54.36.36,0,0,1-.33-.41.52.52,0,0,1,.47-.52A.35.35,0,0,1,33.66,12.08Z"/></g><path class="cls-4" d="M28.73,12l-.36-.29a.17.17,0,0,0-.1,0l-.79-.2v2.06l-.4,0C27,13,27,12.46,27,11.94a3,3,0,0,0-.15-1c-.16-.32,0-.62-.14-.92s-.14-.62-.22-.92-.12-.34-.15-.51-.21-.33-.43-.39a6.28,6.28,0,0,1-.76-.29.41.41,0,0,1-.24-.42c0-.32.28-.43.64-.28,0-.19,0-.37.26-.44a.41.41,0,0,1,.55.37.92.92,0,0,1,0,.37,1,1,0,0,0,.1.65c.2.58.37,1.16.56,1.76.11,0,.16-.12.16-.28a23.2,23.2,0,0,0-.43-4.16.54.54,0,0,0-.19-.28c-.38-.26-.78-.48-1.14-.76a2.13,2.13,0,0,1-.52-.6.84.84,0,0,1,.22-1.17.8.8,0,0,1,1.11.17l.07.1c0-.07,0-.11.05-.14.14-.5.48-.75.9-.67a.88.88,0,0,1,.75,1,3.11,3.11,0,0,1-.43,1.25c-.15.27-.32.55-.46.83A.51.51,0,0,0,27,5.5a23.74,23.74,0,0,1,.39,3.76.28.28,0,0,0,.05.17c.09-.44.17-.87.28-1.3s.3-1.07.45-1.6a.56.56,0,0,0,0-.34,2.93,2.93,0,0,1-.31-1.3.6.6,0,0,1,.57-.58.53.53,0,0,1,.58.44s0,.09,0,.17l.17-.11A.56.56,0,0,1,30,5.5a1.71,1.71,0,0,1-.47.53,6.57,6.57,0,0,1-.88.44.41.41,0,0,0-.27.29c-.23.91-.48,1.81-.73,2.77l2.57-.09,0-.08-.15-.15a2.21,2.21,0,0,1-.65-1.43,1.55,1.55,0,0,1,1.26-1.59,1.38,1.38,0,0,0,.69-.35,2.71,2.71,0,0,1,1.29-.64.25.25,0,0,0,.18-.14.63.63,0,0,1,.68-.42.71.71,0,0,1,.71.53.28.28,0,0,0,.14.12l1.16.38a1.11,1.11,0,0,1,.77.86c.09.44.19.89.25,1.34a2.83,2.83,0,0,1-.89,2.72,2,2,0,0,1-.56.35.26.26,0,0,0-.17.31,8.84,8.84,0,0,1-.31,3.24A17.46,17.46,0,0,1,34,16.18a.94.94,0,0,0-.08.33,17,17,0,0,1-.51,4.32,4.76,4.76,0,0,1-.19.53,1.74,1.74,0,0,1-1.46,1.19A2.66,2.66,0,0,1,29.49,22a4.39,4.39,0,0,1-.56-.76.8.8,0,0,0-.22-.23.82.82,0,0,1-.31-1.32,3.36,3.36,0,0,1,.34-.41A2.39,2.39,0,0,0,29.43,17c0-.15-.07-.31-.11-.45a2.29,2.29,0,0,0-.45-1,3.94,3.94,0,0,1-.31-.48,4.44,4.44,0,0,0-.42-.55.88.88,0,0,1,.1-1.41.49.49,0,0,0,.15-.17C28.52,12.62,28.63,12.3,28.73,12Zm4.88,4.77a2.38,2.38,0,0,0-.21-1.18A1.11,1.11,0,0,0,32.07,15a7,7,0,0,1-.91.18.7.7,0,0,0-.68.59,1.18,1.18,0,0,0-.05.42,10.89,10.89,0,0,0,.22,1.11,1.67,1.67,0,0,1-.89,2.19,1.19,1.19,0,0,0-.33.26,1.38,1.38,0,0,0,.17,2,2.44,2.44,0,0,0,2.22.47,1.35,1.35,0,0,0,1-.83,6.15,6.15,0,0,0,.31-.85A16.53,16.53,0,0,0,33.61,16.77ZM30.85,9.41a6,6,0,0,0,1.95,1.25,3.55,3.55,0,0,0,1,.25,2.44,2.44,0,0,0,2.41-3.33.18.18,0,0,0,0,.07,2.4,2.4,0,0,1-1,1,.43.43,0,0,1-.69-.21.85.85,0,0,1,0-.83.32.32,0,0,0,0-.19c0-.26-.08-.52-.12-.78-.17,0-.32-.1-.32-.28a.7.7,0,0,1,.5-.67,6.22,6.22,0,0,0-1.19-.22,2.56,2.56,0,0,0-2,.7.2.2,0,0,0-.06.27,3.94,3.94,0,0,1,.27.82,1.81,1.81,0,0,1-.29,1.39ZM30.47,15c.39,0,.74-.06,1.09-.13A4.29,4.29,0,0,0,34,13.56a1.72,1.72,0,0,0,.49-1.33,1,1,0,0,0-.27-.73,1.43,1.43,0,0,0-1.12-.34,3.49,3.49,0,0,0-1.7.75,6.39,6.39,0,0,1-1,.56c-.24.11-.52.14-.77.23a2.6,2.6,0,0,0-1.14.7.69.69,0,0,0-.16.72,1,1,0,0,0,.84.68A13.19,13.19,0,0,0,30.47,15Zm.14-5.72c.18-.27.36-.52.52-.78a1.19,1.19,0,0,0,.19-.35,1.94,1.94,0,0,0-.17-1.61A.2.2,0,0,0,31,6.41a1.41,1.41,0,0,0-.9.4.43.43,0,0,1-.06.68c-.23.15-.2.34-.19.57l.27-.13.18.28-.4.28A1.68,1.68,0,0,0,30.61,9.26Zm-1.86,3.47c.46-.16.9-.3,1.34-.47s.62-.27.92-.41c0,0,.13-.09.12-.12-.06-.29-.13-.57-.21-.88l-.26.34h0l.23-.74a.33.33,0,0,0-.52,0,2,2,0,0,1-.26.24A4.4,4.4,0,0,0,28.75,12.73Zm1.63-3-1.81.08H28c-.3,0-.32.05-.31.36.83.4,1.23.93,1.13,1.59a1.72,1.72,0,0,0,.22-.17c.21-.27.41-.57.64-.83A2.64,2.64,0,0,0,30.38,9.69ZM28.79,20.75a1.73,1.73,0,0,1,1-1.61,1.17,1.17,0,0,0,.66-1.08,5.62,5.62,0,0,0-.3-1.35s0-.05-.05-.06l-.56-.25c0,.1.05.19.08.28a2.72,2.72,0,0,1,0,1.55,2.85,2.85,0,0,1-.79,1.35,1.48,1.48,0,0,0-.35.47C28.38,20.34,28.46,20.57,28.79,20.75ZM34.43,6.26l0,0,.18,0c.46-.08.75.2.62.65a2.82,2.82,0,0,1-.38.73.6.6,0,0,0-.07.68A.27.27,0,0,0,35,8.4a1.77,1.77,0,0,0,1-1.6A.84.84,0,0,0,35.6,6a1,1,0,0,0-1,.06C34.52,6.09,34.48,6.19,34.43,6.26Zm-.62,9.6a6.28,6.28,0,0,0,.78-2.67,3.88,3.88,0,0,1-1.76,1.56A1.62,1.62,0,0,1,33.81,15.86Zm-4.94-.8a3.18,3.18,0,0,0,1.23,1.29l.26-1.1Zm2.41-4.77c-.17.19-.14.41.08.61.41.35.73.38,1,.1ZM34,5.19a.53.53,0,0,0-.53-.28c-.13,0-.25.07-.27.23Zm.72,5.93-.35.06.35.5Zm-3.31.46.26-.18-.34-.2Z"/><path class="cls-4" d="M16.59,4.45l.06-.16a.8.8,0,0,1,.84-.68.84.84,0,0,1,.81.89,3.2,3.2,0,0,1-.23,1,9.41,9.41,0,0,1-.53,1c-.09.17-.17.34-.26.52-.54-.36-1.1-.7-1.62-1.1a2.22,2.22,0,0,1-.55-.76.83.83,0,0,1,.37-1,.79.79,0,0,1,1,.14A1.28,1.28,0,0,1,16.59,4.45Z"/><path class="cls-4" d="M6.16,9,5,8.27a2.55,2.55,0,0,1-1-1A.85.85,0,0,1,4.68,6a.89.89,0,0,1,.82.4l0-.12c.15-.5.5-.76.92-.67a.89.89,0,0,1,.74,1,3,3,0,0,1-.4,1.17C6.59,8.22,6.37,8.6,6.16,9Z"/><path class="cls-4" d="M16.81,18.74c0-.07,0-.13.05-.18a.77.77,0,0,1,.86-.61.84.84,0,0,1,.77.77A2.23,2.23,0,0,1,18.2,20c-.23.45-.49.89-.73,1.33-.48-.31-1-.61-1.48-1a2.57,2.57,0,0,1-.6-.67.85.85,0,0,1,.25-1.18.8.8,0,0,1,1.11.21A.31.31,0,0,1,16.81,18.74Z"/><path class="cls-4" d="M12.9,8.65A1.41,1.41,0,0,0,13,9c.23.45.48.9.74,1.38l.7-1.25a1.14,1.14,0,0,0,.1-.19,1.49,1.49,0,0,0,0-.33h1a5,5,0,0,0-.06.54v2a1.93,1.93,0,0,0,.08.39h-.88c.22-.17.15-.4.16-.61V9.84a.41.41,0,0,0-.05-.21l-1.11,1.92-1.07-2c0,.11,0,.17,0,.23q0,.64,0,1.29a2.31,2.31,0,0,0,.08.43H11.9a3.89,3.89,0,0,0,.09-.47V9a2.24,2.24,0,0,0-.1-.39Z"/><path class="cls-4" d="M16.58,16c0-.45,0-.85,0-1.24a1.06,1.06,0,0,0-.11-.25h.79c-.2.15-.14.36-.14.56q0,.71,0,1.41a1.68,1.68,0,0,0,.08.36h-.82c.17-.14.06-.22,0-.31-.42-.4-.84-.79-1.28-1.17a4.61,4.61,0,0,0,.08,1.48h-.71a3.43,3.43,0,0,0,.08-.48c0-.49,0-1,0-1.48a1.76,1.76,0,0,0-.08-.37h.88c-.19.16,0,.25.06.35Z"/><path class="cls-4" d="M23.57,16.88c0-.11,0-.21-.05-.26-.43-.42-.88-.83-1.34-1.24a4.39,4.39,0,0,0,.08,1.49h-.71a2.76,2.76,0,0,0,.07-.49c0-.5,0-1,0-1.49a1.73,1.73,0,0,0-.08-.35h.88c-.16.15-.05.25.07.35.39.37.78.73,1.17,1.11a2.62,2.62,0,0,0-.11-1.46h.82c-.21.17-.13.39-.14.6,0,.43,0,.86,0,1.29a2.6,2.6,0,0,0,.07.45Z"/><path class="cls-4" d="M4.84,16.87h-1c.23-.12.18-.25.12-.39-.35-.72-.69-1.44-1-2.16-.06-.11-.15-.21-.22-.33h1c-.23.13-.15.28-.08.43L4.4,16l.08-.12c.24-.51.47-1,.7-1.52.07-.13.13-.27-.07-.38h.94c-.46.82-.83,1.71-1.24,2.58C4.77,16.64,4.82,16.76,4.84,16.87Z"/><path class="cls-4" d="M27.27,16.34V17a2.57,2.57,0,0,0-.38-.08h-2a2.31,2.31,0,0,0,.08-.43c0-.5,0-1,0-1.48a2.57,2.57,0,0,0-.08-.44h2a2.29,2.29,0,0,0,.34-.07V15c-.12,0-.24-.06-.37-.07h-1.3v.52a3.44,3.44,0,0,0,1.1-.09V16c-.34-.21-.72,0-1.1-.12v.59A4.19,4.19,0,0,0,27.27,16.34Z"/><path class="cls-4" d="M12.26,14.94v.52a3.52,3.52,0,0,0,1.12-.09V16c-.35-.2-.73,0-1.11-.11v.58A4.28,4.28,0,0,0,14,16.35V17a2.66,2.66,0,0,0-.37-.07h-2c0-.19.07-.36.07-.53,0-.49,0-1,0-1.46a1.42,1.42,0,0,0-.09-.37h2a1.72,1.72,0,0,0,.37-.07V15a2.66,2.66,0,0,0-.37-.07Z"/><path class="cls-4" d="M21.36,10.2c-.14-.43-.31-.85-.43-1.29a1.4,1.4,0,0,1,0-.54.6.6,0,0,1,.6-.5.55.55,0,0,1,.54.5s0,.07,0,.12l.13-.09a.54.54,0,0,1,.7,0,.59.59,0,0,1,.11.73,1.45,1.45,0,0,1-.68.59C22,9.91,21.7,10.05,21.36,10.2Z"/><path class="cls-4" d="M5.74,16.87c.1-.17.22-.34.32-.52.23-.44.45-.89.69-1.33.08-.16.17-.31,0-.48h1c-.26.19-.11.35,0,.52l.76,1.37c.09.15.2.29.3.44h-1a.27.27,0,0,0,.06-.39.32.32,0,0,0-.33-.19,4.09,4.09,0,0,1-.7,0,.27.27,0,0,0-.32.23,2,2,0,0,0,0,.35ZM7.56,16l-.39-.73L6.8,16Z"/><path class="cls-4" d="M17.55,9.2h1a6.27,6.27,0,0,0-.94,1.08c-.3.33-.15.71-.16,1.07,0,.05.08.11.14.18h-.89c.24-.18.14-.42.16-.64a.75.75,0,0,0-.19-.62c-.16-.18-.29-.38-.44-.57s-.29-.33-.44-.5h1.11c-.28.17-.12.31,0,.45l.28.39a6.87,6.87,0,0,0,.41-.58C17.65,9.41,17.58,9.3,17.55,9.2Z"/><path class="cls-4" d="M20,14.45V15A1.6,1.6,0,0,0,19,15v.84c0,.23,0,.47,0,.71a1.68,1.68,0,0,0,.08.36h-.74c0-.15.06-.3.07-.45,0-.48,0-1,0-1.48-.31,0-.62-.08-.92.09v-.58a1.45,1.45,0,0,0,.35.07h1.71A1.72,1.72,0,0,0,20,14.45Z"/><path class="cls-4" d="M11.28,16.36V17a1.55,1.55,0,0,0-.35-.07H9.05a4,4,0,0,0,.08-.46q0-.75,0-1.5A3.1,3.1,0,0,0,9,14.54h.82c-.21.17-.15.38-.15.58v1.31A3.64,3.64,0,0,0,11.28,16.36Z"/><path class="cls-4" d="M11.8,21.26c0-.23.07-.42.31-.46a.35.35,0,0,1,.41.18,1.15,1.15,0,0,1,.08.55,5.8,5.8,0,0,1-.16.81c-.22-.07-.44-.12-.66-.2a1.47,1.47,0,0,1-.4-.19.41.41,0,0,1-.17-.58C11.31,21.18,11.49,21.14,11.8,21.26Z"/><path class="cls-4" d="M8.72,11.71c-.1-.18-.21-.35-.29-.53a3,3,0,0,1-.18-.45.44.44,0,0,1,.26-.57c.24-.07.39,0,.52.33l.1-.07a.35.35,0,0,1,.48,0,.37.37,0,0,1,.1.49,1.4,1.4,0,0,1-.35.38A7.06,7.06,0,0,1,8.72,11.71Z"/><path class="cls-4" d="M4.44,20.92c.28-.2.42-.21.59-.06a.37.37,0,0,1,.07.51,2.45,2.45,0,0,1-.46.45,4.91,4.91,0,0,1-.53.33c-.14-.3-.3-.6-.42-.91a.71.71,0,0,1,0-.41.35.35,0,0,1,.37-.25C4.28,20.57,4.37,20.73,4.44,20.92Z"/><path class="cls-4" d="M8.25,19.35a1.62,1.62,0,0,1,.47-.07.35.35,0,0,1,.23.51,2,2,0,0,1-.41.47,1.53,1.53,0,0,1-.3.19l-.31.2c-.15-.33-.32-.65-.44-1a.42.42,0,0,1,.29-.58C8,19,8.11,19.1,8.25,19.35Z"/><path class="cls-4" d="M5.62,2.68c.24-.2.43-.21.59-.06a.42.42,0,0,1,0,.61,4.9,4.9,0,0,1-.57.45,3.51,3.51,0,0,1-.37.23c-.15-.36-.32-.7-.44-1.06a.42.42,0,0,1,.4-.53C5.39,2.32,5.48,2.4,5.62,2.68Z"/><path class="cls-4" d="M21.8,3.46,22,3.35a.35.35,0,0,1,.41.06.36.36,0,0,1,.09.46,1.65,1.65,0,0,1-.39.44c-.18.14-.4.25-.63.4a9.1,9.1,0,0,1-.44-1,.41.41,0,0,1,.31-.55C21.51,3.09,21.64,3.18,21.8,3.46Z"/><path class="cls-4" d="M10,3.62c0-.23.08-.41.32-.45a.39.39,0,0,1,.48.4,10.1,10.1,0,0,1-.12,1.17,9.81,9.81,0,0,1-1-.36A.61.61,0,0,1,9.35,4a.52.52,0,0,1,.11-.4C9.55,3.51,9.7,3.52,10,3.62Z"/><path class="cls-4" d="M3.47,13.5c-.37-.13-.68-.21-1-.35a.62.62,0,0,1-.3-.34.5.5,0,0,1,.11-.4c.13-.16.32-.1.49,0,0-.2.07-.38.29-.44a.39.39,0,0,1,.52.41A9.72,9.72,0,0,1,3.47,13.5Z"/><path class="cls-4" d="M21.89,20.45a1.13,1.13,0,0,1,.18-.12.32.32,0,0,1,.39,0c.12.11.22.26.13.41a1.88,1.88,0,0,1-.42.51,4.94,4.94,0,0,1-.61.39c-.14-.3-.31-.6-.43-.91a.46.46,0,0,1,.18-.62C21.55,20,21.75,20.12,21.89,20.45Z"/><path class="cls-4" d="M26.38,18.51c.11-.15.17-.31.29-.39a.38.38,0,0,1,.57.29,2.35,2.35,0,0,1,0,.65c0,.18-.08.36-.12.56-.31-.1-.61-.19-.9-.3a.84.84,0,0,1-.32-.27.36.36,0,0,1,0-.45.35.35,0,0,1,.41-.13C26.35,18.48,26.39,18.51,26.38,18.51Z"/><path class="cls-4" d="M20.27,14.53H21a3.35,3.35,0,0,0-.07.53c0,.45,0,.89,0,1.34a2.67,2.67,0,0,0,.07.47h-.74a2.07,2.07,0,0,0,.08-.42q0-.75,0-1.5A2.37,2.37,0,0,0,20.27,14.53Z"/><path class="cls-4" d="M32.09,15.83a.45.45,0,0,1,.43.49.48.48,0,0,1-.43.49.46.46,0,0,1-.44-.49A.45.45,0,0,1,32.09,15.83Z"/><path class="cls-4" d="M32.42,7.41c0,.2-.18.4-.34.39s-.2-.13-.2-.25.19-.43.35-.42S32.43,7.27,32.42,7.41Z"/><path class="cls-4" d="M33.86,12.28a.55.55,0,0,1-.47.54.36.36,0,0,1-.33-.41.52.52,0,0,1,.47-.52A.35.35,0,0,1,33.86,12.28Z"/></g></g></svg>