<svg xmlns="http://www.w3.org/2000/svg" viewBox="0 0 38.55 24.66"><defs><style>.cls-1{isolation:isolate;}.cls-2{opacity:0.15;}.cls-2,.cls-3{mix-blend-mode:multiply;}.cls-4{fill:#fff;}</style></defs><title>convert-CUSTOMIZE-SVG-03</title><g class="cls-1"><g id="Layer_1" data-name="Layer 1"><g class="cls-2"><path d="M7.31,16.15a3.42,3.42,0,0,0,.34.13,2.14,2.14,0,0,1,1.56,2v.12h.45v4.45h-2v-1l-.22.17c-.26.16-.53.3-.79.45a1.11,1.11,0,0,0-.19.09,2.1,2.1,0,0,1-1.88.28l-.1,0h0l0,.23H4.12c.13-.36-.14-.44-.38-.56A2.78,2.78,0,0,1,2.31,20.4,5,5,0,0,1,3,17.12a9.2,9.2,0,0,1,1.36-1.91L4.53,15c-.34-.35-.7-.67-1-1A5.89,5.89,0,0,1,2.3,10.81,11,11,0,0,1,2.38,8a.3.3,0,0,0-.13-.33,2.69,2.69,0,0,1-.39-.5,3.92,3.92,0,0,1-.77-2.07A2.53,2.53,0,0,1,2.27,2.78,4.52,4.52,0,0,1,5.17,2a2.34,2.34,0,0,1,1.25.47c.24.19.46.42.69.62a.27.27,0,0,0,.19.05,8,8,0,0,1,5.45.26.24.24,0,0,0,.33-.1,2.45,2.45,0,0,1,2.73-.76A5.86,5.86,0,0,1,18,3.62a2.19,2.19,0,0,1,.79,2,4.68,4.68,0,0,1-.92,2.44.62.62,0,0,0-.15.47A9,9,0,0,1,17,13a6.7,6.7,0,0,1-.62,1c-.24.31-.52.59-.78.87.37.47.76.94,1.11,1.44A6.74,6.74,0,0,1,17.87,19a3.54,3.54,0,0,1-.75,3,3.39,3.39,0,0,1-.92.65c-.29.17-.3.14-.34.44h-.24l0-.15c-.37,0-.73,0-1.08,0a1.35,1.35,0,0,1-.5-.17l-1.28-.67v.76H10.36V18.45H11a2.2,2.2,0,0,1,1.58-2.18c-.54,0-1.09.05-1.64.06s-1.11,0-1.66,0a6.46,6.46,0,0,1,.8,1.72c.13-.3.23-.58.35-.84s.2-.4.31-.58a.33.33,0,0,1,.43-.17c.19.09.15.28.09.43a6.77,6.77,0,0,1-.33.66c-.23.36-.47.71-.69,1H9.84c-.29-.55-.62-1.13-.92-1.71a.47.47,0,0,1,0-.55L7.3,16.15a.09.09,0,0,0,0,0,7.05,7.05,0,0,1-2.33-.9c-.12-.08-.17,0-.24.06A9,9,0,0,0,3,17.9a4.17,4.17,0,0,0-.35,2.53,2.6,2.6,0,0,0,1.67,2.09,2.86,2.86,0,0,0,1.26.21.31.31,0,0,0,.3-.23c.1-.32.24-.62.35-.94a18.56,18.56,0,0,0,1.2-4.33,2.48,2.48,0,0,0,1-.27l-.14-.1a3.2,3.2,0,0,0-2.9-.26,5.92,5.92,0,0,0-1.72,1l-.19-.21A5,5,0,0,1,6.7,16.11C6.9,16.11,7.11,16.13,7.31,16.15ZM17.46,9.32c0-.27,0-.55,0-.82a.42.42,0,0,0-.14-.27,1.75,1.75,0,0,1-.58-1.06.63.63,0,0,0-.1-.3,6.73,6.73,0,0,0-2.14-2c-.52-.27-1-.64-1.47-1l-.12-.12a1.11,1.11,0,0,0-.24-.2A7.82,7.82,0,0,0,9.32,3a4,4,0,0,0-2.48.71,10.63,10.63,0,0,1-1,.68c-.16.11-.29.29-.53.23,0,0-.07,0-.1.07a7.92,7.92,0,0,0-1.67,2,1.89,1.89,0,0,1-.73.9s-.08.13-.09.2a10.12,10.12,0,0,0,0,3.64,5.14,5.14,0,0,0,2.09,3.35,7.38,7.38,0,0,0,4,1.24c.52,0,1,0,1.56,0a9.43,9.43,0,0,0,2.49-.14A5.26,5.26,0,0,0,16.73,13,7.91,7.91,0,0,0,17.46,9.32Zm-4.67,7.92a8.51,8.51,0,0,0,.17,1c.41,1.29.82,2.57,1.26,3.85.21.64.38.72,1,.59l.15,0a2.82,2.82,0,0,0,1.43-.74,3.23,3.23,0,0,0,.77-2.72,6.38,6.38,0,0,0-1.15-2.72c-.34-.48-.72-.94-1.09-1.42a6.55,6.55,0,0,1-2.09,1,5,5,0,0,1,3.52,1.3l-.22.18a5.55,5.55,0,0,0-1.7-1,3.22,3.22,0,0,0-2.91.26l-.17.15ZM7,3.32,6.43,2.8a2.28,2.28,0,0,0-1.82-.57,4.71,4.71,0,0,0-2,.68A2.33,2.33,0,0,0,1.37,5a3.68,3.68,0,0,0,.75,2.06c.1.15.21.29.33.45L3.08,7a2,2,0,0,1-.73-1.16,1.57,1.57,0,0,1,.4-1.27,1.93,1.93,0,0,1,1.12-.68,1.7,1.7,0,0,1,1.51.49Zm6.15.34c.48.32.94.61,1.38.93.14.09.2.09.32,0a1.45,1.45,0,0,1,2-.09,3.58,3.58,0,0,1,.44.43,1.39,1.39,0,0,1,0,2c-.28.32-.29.38-.06.76l.17.24c.14.16.23.16.36,0a4.53,4.53,0,0,0,.79-2.08,2,2,0,0,0-1-2.17,12.87,12.87,0,0,0-1.33-.69,3,3,0,0,0-1.65-.24A2.09,2.09,0,0,0,13.14,3.66ZM7.66,17.49a28.33,28.33,0,0,1-1.47,4.89,2.3,2.3,0,0,0,1.32-.74.58.58,0,0,0,.13-.31c0-.88,0-1.76,0-2.64v-.25H8.92a2.28,2.28,0,0,0-.37-1.22Zm5.09,1.19h0c0,1,0,1.93,0,2.9a.24.24,0,0,0,0,.12,2.15,2.15,0,0,0,1.25.66c-.23-.63-.46-1.24-.66-1.85S12.94,19.29,12.75,18.68Zm-.22-1.19-.89-.27a2.31,2.31,0,0,0-.38,1.22h1.43Z"/><path d="M9.83,8.55a5.88,5.88,0,0,1,1.77.31,3.08,3.08,0,0,1,2.19,2.58,3.51,3.51,0,0,1-1.06,3.23,3.86,3.86,0,0,1-2.27,1,4.41,4.41,0,0,1-3.91-1.43,2.87,2.87,0,0,1-.71-1.8A3.55,3.55,0,0,1,6.43,10,3.44,3.44,0,0,1,8.74,8.66C9.1,8.6,9.47,8.59,9.83,8.55Zm-.16.28A11.52,11.52,0,0,0,8.49,9a2.86,2.86,0,0,0-2.2,1.82,3.67,3.67,0,0,0-.17,1.58,2.67,2.67,0,0,0,1,2.06,4.31,4.31,0,0,0,3.26.94,3.33,3.33,0,0,0,3.12-3,2.94,2.94,0,0,0-.82-2.49A4.29,4.29,0,0,0,9.67,8.83Z"/><path d="M6.33,9.56a3.51,3.51,0,0,1-.26.59.54.54,0,0,1-.9,0A1,1,0,0,1,5.14,9a.55.55,0,0,1,1,0A3.76,3.76,0,0,1,6.33,9.56Z"/><path d="M13.3,9.53a3.32,3.32,0,0,1,.28-.6.53.53,0,0,1,.88,0,1,1,0,0,1,0,1.15.54.54,0,0,1-.94,0A3.28,3.28,0,0,1,13.3,9.53Z"/><path d="M11.69,13.66,12,14l-1.23.85c-.27-.19-.53-.36-.78-.56a.22.22,0,0,0-.31,0c-.23.17-.48.33-.72.49,0,0-.13,0-.16,0L7.6,14l.3-.38.74.53a.19.19,0,0,0,.26,0,.86.86,0,0,1,.2-.13.63.63,0,0,0,.38-.73A.41.41,0,0,0,9.32,13L8.07,12l.45-.58a.19.19,0,0,1,.13,0H11a.22.22,0,0,1,.15.08c.12.18.23.37.35.57l-1.24,1a.63.63,0,0,0,0,.89c.17.12.35.32.53.32s.35-.21.52-.32S11.56,13.74,11.69,13.66Z"/><path d="M7.51,16.35l.34.13a2.12,2.12,0,0,1,1.55,2l0,.12h.45v4.45h-2v-1c-.1.07-.16.13-.23.17l-.78.45a1.11,1.11,0,0,0-.19.09,2.1,2.1,0,0,1-1.88.28l-.1,0h0l0,.23H4.32c.13-.35-.14-.43-.38-.55A2.76,2.76,0,0,1,2.51,20.6a5,5,0,0,1,.7-3.29A9.77,9.77,0,0,1,4.57,15.4l.16-.18c-.34-.35-.7-.67-1-1A5.89,5.89,0,0,1,2.5,11a10.93,10.93,0,0,1,.08-2.8.3.3,0,0,0-.13-.33,2.69,2.69,0,0,1-.39-.5,3.92,3.92,0,0,1-.77-2.07A2.53,2.53,0,0,1,2.47,3a4.5,4.5,0,0,1,2.9-.82,2.29,2.29,0,0,1,1.25.47c.24.19.46.41.69.62a.34.34,0,0,0,.19,0A8,8,0,0,1,13,3.56a.25.25,0,0,0,.33-.1A2.45,2.45,0,0,1,16,2.7a5.72,5.72,0,0,1,2.21,1.12,2.21,2.21,0,0,1,.79,2,4.61,4.61,0,0,1-.93,2.44.66.66,0,0,0-.14.47,9,9,0,0,1-.73,4.46,7.6,7.6,0,0,1-.62,1c-.24.31-.53.59-.78.87.37.47.76.94,1.11,1.44a6.66,6.66,0,0,1,1.14,2.63,3.51,3.51,0,0,1-.74,3,3.39,3.39,0,0,1-.92.65c-.29.16-.3.14-.34.44h-.24l0-.15c-.37,0-.73,0-1.08,0a1.35,1.35,0,0,1-.5-.17l-1.28-.67v.75H10.55V18.65h.61a2.19,2.19,0,0,1,1.58-2.18c-.54,0-1.09.05-1.64.06H9.44a6.61,6.61,0,0,1,.8,1.72c.12-.29.23-.57.35-.83a5.33,5.33,0,0,1,.31-.58.32.32,0,0,1,.43-.17c.19.09.15.28.09.43a5.89,5.89,0,0,1-.34.66c-.22.36-.46.7-.68,1H10c-.3-.55-.62-1.13-.92-1.71a.47.47,0,0,1,0-.55L7.5,16.35a.09.09,0,0,0,0,0,7,7,0,0,1-2.33-.9c-.12-.08-.18,0-.24.06a9.06,9.06,0,0,0-1.73,2.61,4.13,4.13,0,0,0-.35,2.54,2.58,2.58,0,0,0,1.67,2.09,2.72,2.72,0,0,0,1.26.2.29.29,0,0,0,.3-.23c.1-.31.24-.61.34-.93a18.1,18.1,0,0,0,1.21-4.33,2.39,2.39,0,0,0,.95-.27.5.5,0,0,0-.13-.1,3.21,3.21,0,0,0-2.9-.26,5.7,5.7,0,0,0-1.72,1l-.19-.21A5,5,0,0,1,6.9,16.31C7.1,16.31,7.3,16.33,7.51,16.35ZM17.66,9.52c0-.27,0-.55,0-.82a.5.5,0,0,0-.14-.28,1.73,1.73,0,0,1-.58-1,.63.63,0,0,0-.1-.3,6.62,6.62,0,0,0-2.14-2c-.52-.27-1-.64-1.47-1A1.36,1.36,0,0,1,13.1,4a1.11,1.11,0,0,0-.24-.2,7.69,7.69,0,0,0-3.35-.59A3.94,3.94,0,0,0,7,3.94a12,12,0,0,1-1,.68c-.16.11-.29.29-.54.23,0,0-.07,0-.1.07a8.37,8.37,0,0,0-1.67,2A1.82,1.82,0,0,1,3,7.8c-.05,0-.08.13-.1.2a10.59,10.59,0,0,0,0,3.64A5.19,5.19,0,0,0,5,15a7.28,7.28,0,0,0,4,1.23c.52,0,1.05,0,1.57,0A9.8,9.8,0,0,0,13,16.1a5.23,5.23,0,0,0,3.93-2.93A7.79,7.79,0,0,0,17.66,9.52ZM13,17.44a8.51,8.51,0,0,0,.17,1c.4,1.29.82,2.57,1.25,3.85.22.64.38.72,1.06.59l.15,0A2.75,2.75,0,0,0,17,22.14a3.24,3.24,0,0,0,.77-2.72,6.36,6.36,0,0,0-1.14-2.72c-.34-.49-.72-.94-1.09-1.42a6.42,6.42,0,0,1-2.09,1A5.07,5.07,0,0,1,17,17.6l-.22.18a5.48,5.48,0,0,0-1.71-1,3.21,3.21,0,0,0-2.9.26l-.18.15ZM7.19,3.52,6.63,3a2.29,2.29,0,0,0-1.82-.57,4.58,4.58,0,0,0-2,.68A2.33,2.33,0,0,0,1.57,5.2a3.6,3.6,0,0,0,.75,2.06l.33.44.63-.51A2,2,0,0,1,2.55,6,1.49,1.49,0,0,1,3,4.76a1.94,1.94,0,0,1,1.11-.68,1.7,1.7,0,0,1,1.52.49Zm6.15.34c.48.32.94.61,1.38.92.14.1.2.1.31,0a1.46,1.46,0,0,1,2-.09,3,3,0,0,1,.44.43,1.38,1.38,0,0,1,0,2c-.28.32-.29.39-.06.76a1.46,1.46,0,0,0,.17.24c.14.17.23.17.36,0A4.45,4.45,0,0,0,18.71,6a2,2,0,0,0-1-2.17,12.87,12.87,0,0,0-1.33-.69,2.92,2.92,0,0,0-1.65-.24A2,2,0,0,0,13.34,3.86ZM7.86,17.69a28.22,28.22,0,0,1-1.47,4.88,2.23,2.23,0,0,0,1.32-.73.52.52,0,0,0,.12-.31c0-.88,0-1.76,0-2.64v-.25H9.12a2.34,2.34,0,0,0-.37-1.22ZM13,18.87l0,0c0,1,0,1.93,0,2.9a.24.24,0,0,0,0,.12,2.15,2.15,0,0,0,1.25.66c-.23-.64-.46-1.24-.66-1.85S13.14,19.49,13,18.87Zm-.22-1.18-.9-.27a2.39,2.39,0,0,0-.37,1.21h1.43Z"/><path d="M10,8.75a5.88,5.88,0,0,1,1.77.31A3.08,3.08,0,0,1,14,11.64a3.49,3.49,0,0,1-1.07,3.23,3.83,3.83,0,0,1-2.26,1,4.4,4.4,0,0,1-3.91-1.43A2.87,2.87,0,0,1,6,12.64a3.54,3.54,0,0,1,.59-2.47A3.44,3.44,0,0,1,8.94,8.86C9.3,8.8,9.67,8.78,10,8.75ZM9.87,9a11.52,11.52,0,0,0-1.18.17A2.85,2.85,0,0,0,6.49,11a3.74,3.74,0,0,0-.17,1.59,2.68,2.68,0,0,0,1,2.06,4.25,4.25,0,0,0,3.26.93,3.3,3.3,0,0,0,3.11-3,2.89,2.89,0,0,0-.81-2.48A4.29,4.29,0,0,0,9.87,9Z"/><path d="M6.52,9.76a2.85,2.85,0,0,1-.26.59.52.52,0,0,1-.89,0,1,1,0,0,1,0-1.13.55.55,0,0,1,1,0A2.71,2.71,0,0,1,6.52,9.76Z"/><path d="M13.5,9.73a2.76,2.76,0,0,1,.28-.6.52.52,0,0,1,.88,0,1,1,0,0,1,0,1.15.54.54,0,0,1-.94,0A3.62,3.62,0,0,1,13.5,9.73Z"/><path d="M11.89,13.85l.29.39-1.24.85c-.26-.19-.52-.36-.77-.56a.23.23,0,0,0-.31,0c-.24.18-.48.34-.72.49A.19.19,0,0,1,9,15l-1.19-.8.3-.38c.26.18.51.35.75.53a.19.19,0,0,0,.26,0,.8.8,0,0,1,.19-.13.61.61,0,0,0,.38-.73.41.41,0,0,0-.15-.32c-.42-.32-.82-.66-1.25-1l.45-.58a.17.17,0,0,1,.13-.05h2.34a.23.23,0,0,1,.16.08c.12.18.23.37.35.57l-1.24,1a.62.62,0,0,0,0,.89c.17.12.35.32.52.32s.36-.21.53-.33S11.76,13.94,11.89,13.85Z"/></g><g class="cls-3"><path d="M7.17,16l.34.13a2.12,2.12,0,0,1,1.55,2l0,.12h.45v4.45h-2v-1c-.1.07-.16.13-.23.17l-.78.45a1.11,1.11,0,0,0-.19.09,2.13,2.13,0,0,1-1.88.28l-.1,0h0l0,.23H4c.13-.35-.15-.43-.38-.55a2.76,2.76,0,0,1-1.43-2.17A5,5,0,0,1,2.87,17a9.77,9.77,0,0,1,1.36-1.91l.16-.18c-.34-.35-.7-.67-1-1a5.89,5.89,0,0,1-1.23-3.17,10.93,10.93,0,0,1,.08-2.8.3.3,0,0,0-.13-.33A2.69,2.69,0,0,1,1.72,7,3.92,3.92,0,0,1,1,5,2.53,2.53,0,0,1,2.13,2.64,4.5,4.5,0,0,1,5,1.82a2.29,2.29,0,0,1,1.25.47c.24.19.46.41.69.62a.34.34,0,0,0,.19,0,8,8,0,0,1,5.45.26.25.25,0,0,0,.33-.1,2.45,2.45,0,0,1,2.73-.76,5.72,5.72,0,0,1,2.21,1.12,2.21,2.21,0,0,1,.79,2A4.61,4.61,0,0,1,17.74,8a.66.66,0,0,0-.14.47,9,9,0,0,1-.73,4.46,6.76,6.76,0,0,1-.63,1c-.23.31-.52.59-.77.87.37.47.76.94,1.11,1.44a6.66,6.66,0,0,1,1.14,2.63,3.51,3.51,0,0,1-.74,3,3.39,3.39,0,0,1-.92.65c-.29.16-.3.14-.34.44h-.24l0-.15c-.37,0-.73,0-1.08,0a1.35,1.35,0,0,1-.5-.17L12.59,22v.75H10.21V18.31h.61a2.21,2.21,0,0,1,1.58-2.19c-.54,0-1.09.06-1.64.07H9.1a6.61,6.61,0,0,1,.8,1.72c.12-.29.23-.57.35-.83a5.33,5.33,0,0,1,.31-.58.32.32,0,0,1,.43-.17c.19.09.15.28.09.43a5.89,5.89,0,0,1-.34.66c-.22.36-.46.7-.68,1H9.7c-.3-.55-.62-1.13-.92-1.71a.47.47,0,0,1,0-.55L7.16,16a.09.09,0,0,0,0,0,7,7,0,0,1-2.33-.9c-.12-.08-.18,0-.24.06a9.06,9.06,0,0,0-1.73,2.61,4.13,4.13,0,0,0-.35,2.54,2.58,2.58,0,0,0,1.67,2.09,2.72,2.72,0,0,0,1.26.2.29.29,0,0,0,.3-.23c.1-.31.24-.61.34-.93a18.05,18.05,0,0,0,1.21-4.34,2.22,2.22,0,0,0,.95-.26.76.76,0,0,0-.13-.1,3.21,3.21,0,0,0-2.9-.26,5.7,5.7,0,0,0-1.72,1l-.19-.21A5,5,0,0,1,6.56,16ZM17.32,9.18c0-.27,0-.55,0-.82a.5.5,0,0,0-.14-.28,1.73,1.73,0,0,1-.58-1,.63.63,0,0,0-.1-.3,6.62,6.62,0,0,0-2.14-2c-.52-.27-1-.64-1.47-1a1.36,1.36,0,0,1-.12-.12,1.11,1.11,0,0,0-.24-.2,7.69,7.69,0,0,0-3.35-.59A3.94,3.94,0,0,0,6.7,3.6a12,12,0,0,1-1,.68c-.16.11-.29.29-.54.23,0,0-.07,0-.1.07a8.37,8.37,0,0,0-1.67,2,1.82,1.82,0,0,1-.72.9s-.08.13-.1.2a10.59,10.59,0,0,0,0,3.64,5.19,5.19,0,0,0,2.1,3.35,7.28,7.28,0,0,0,4,1.23c.52,0,1.05,0,1.57,0a9.8,9.8,0,0,0,2.48-.14,5.23,5.23,0,0,0,3.93-2.93A7.79,7.79,0,0,0,17.32,9.18ZM12.65,17.1a8.51,8.51,0,0,0,.17,1c.4,1.29.82,2.57,1.25,3.85.22.64.38.72,1.06.59l.15,0a2.75,2.75,0,0,0,1.42-.74,3.24,3.24,0,0,0,.77-2.72,6.36,6.36,0,0,0-1.14-2.72c-.34-.49-.72-.94-1.09-1.42a6.42,6.42,0,0,1-2.09,1,5.07,5.07,0,0,1,3.52,1.31l-.22.18a5.48,5.48,0,0,0-1.71-1,3.21,3.21,0,0,0-2.9.26l-.18.15ZM6.85,3.17l-.56-.51a2.26,2.26,0,0,0-1.82-.57,4.58,4.58,0,0,0-2,.68A2.33,2.33,0,0,0,1.23,4.86,3.6,3.6,0,0,0,2,6.92l.33.44.63-.51a2,2,0,0,1-.73-1.16,1.49,1.49,0,0,1,.4-1.27,1.94,1.94,0,0,1,1.11-.68,1.7,1.7,0,0,1,1.52.49ZM13,3.52c.48.32.94.61,1.38.92.14.1.2.1.31,0a1.46,1.46,0,0,1,2-.09,3,3,0,0,1,.44.43,1.38,1.38,0,0,1,0,2c-.28.32-.29.39-.06.76a1.46,1.46,0,0,0,.17.24c.14.17.23.17.36,0a4.45,4.45,0,0,0,.79-2.07,2,2,0,0,0-1-2.17,12.87,12.87,0,0,0-1.33-.69,2.92,2.92,0,0,0-1.65-.24A2,2,0,0,0,13,3.52ZM7.52,17.35a28.22,28.22,0,0,1-1.47,4.88,2.23,2.23,0,0,0,1.32-.73.52.52,0,0,0,.12-.31c0-.88,0-1.76,0-2.64V18.3H8.78a2.34,2.34,0,0,0-.37-1.22Zm5.09,1.18,0,0c0,1,0,1.93,0,2.9a.24.24,0,0,0,0,.12,2.15,2.15,0,0,0,1.25.66c-.23-.64-.46-1.24-.66-1.85S12.8,19.15,12.61,18.53Zm-.22-1.18-.9-.27a2.39,2.39,0,0,0-.37,1.21h1.43Z"/><path d="M9.69,8.41a5.58,5.58,0,0,1,1.77.31,3.08,3.08,0,0,1,2.19,2.58,3.49,3.49,0,0,1-1.07,3.23,3.83,3.83,0,0,1-2.26,1A4.4,4.4,0,0,1,6.41,14.1a2.87,2.87,0,0,1-.71-1.8,3.54,3.54,0,0,1,.59-2.47A3.44,3.44,0,0,1,8.6,8.52C9,8.46,9.33,8.44,9.69,8.41Zm-.16.28a11.52,11.52,0,0,0-1.18.17,2.85,2.85,0,0,0-2.2,1.81A3.74,3.74,0,0,0,6,12.26a2.68,2.68,0,0,0,1,2.06,4.25,4.25,0,0,0,3.26.93,3.3,3.3,0,0,0,3.11-3,2.87,2.87,0,0,0-.82-2.48A4.25,4.25,0,0,0,9.53,8.69Z"/><path d="M6.18,9.42a2.85,2.85,0,0,1-.26.59A.52.52,0,0,1,5,10,1,1,0,0,1,5,8.86a.55.55,0,0,1,1,0A2.71,2.71,0,0,1,6.18,9.42Z"/><path d="M13.16,9.39a2.76,2.76,0,0,1,.28-.6.52.52,0,0,1,.88,0,1,1,0,0,1,0,1.15.54.54,0,0,1-.94,0A3.62,3.62,0,0,1,13.16,9.39Z"/><path d="M11.55,13.51l.29.39-1.24.85c-.26-.19-.52-.36-.77-.56a.23.23,0,0,0-.31,0c-.24.18-.48.34-.72.49a.19.19,0,0,1-.16,0l-1.19-.8.3-.38c.26.18.51.35.75.53a.19.19,0,0,0,.26,0A.8.8,0,0,1,9,13.92a.61.61,0,0,0,.38-.73.41.41,0,0,0-.15-.32c-.42-.32-.82-.66-1.25-1l.45-.58a.17.17,0,0,1,.13,0h2.34a.23.23,0,0,1,.16.08c.12.18.23.37.35.57l-1.25,1a.63.63,0,0,0,0,.89c.17.12.35.32.52.32s.36-.21.53-.33S11.42,13.6,11.55,13.51Z"/></g><path class="cls-4" d="M7.36,16.2l.34.14a2.12,2.12,0,0,1,1.56,2l0,.13h.45V23h-2V22a1.46,1.46,0,0,1-.22.18l-.78.45a1.11,1.11,0,0,0-.19.09A2.1,2.1,0,0,1,4.63,23l-.1,0h0l0,.23H4.17c.13-.35-.14-.43-.37-.55a2.77,2.77,0,0,1-1.43-2.17,5,5,0,0,1,.7-3.29,9.77,9.77,0,0,1,1.36-1.91l.16-.18c-.34-.35-.7-.67-1-1a5.92,5.92,0,0,1-1.23-3.17,10.59,10.59,0,0,1,.08-2.81.3.3,0,0,0-.13-.32,2.69,2.69,0,0,1-.39-.5,4,4,0,0,1-.77-2.08A2.53,2.53,0,0,1,2.33,2.84,4.5,4.5,0,0,1,5.23,2a2.21,2.21,0,0,1,1.25.47c.24.18.45.41.69.61a.23.23,0,0,0,.19,0,8.16,8.16,0,0,1,5.45.26.24.24,0,0,0,.33-.09,2.45,2.45,0,0,1,2.73-.77,5.81,5.81,0,0,1,2.21,1.13,2.21,2.21,0,0,1,.79,2,4.64,4.64,0,0,1-.93,2.44.66.66,0,0,0-.14.47,8.89,8.89,0,0,1-.74,4.46,6.4,6.4,0,0,1-.62,1c-.23.31-.52.59-.77.87.37.47.76.94,1.11,1.44a6.66,6.66,0,0,1,1.14,2.63,3.55,3.55,0,0,1-.74,3,3.81,3.81,0,0,1-.92.65c-.29.16-.3.14-.34.44h-.24l0-.15c-.37,0-.73,0-1.08,0a1.35,1.35,0,0,1-.5-.17l-1.28-.67v.75H10.41V18.51H11a2.21,2.21,0,0,1,1.58-2.19c-.55,0-1.09.06-1.64.07H9.3a6.61,6.61,0,0,1,.8,1.72c.12-.29.23-.57.35-.84s.19-.39.3-.58a.34.34,0,0,1,.44-.16c.19.09.15.28.08.43a4,4,0,0,1-.33.65c-.22.36-.46.71-.68,1H9.9c-.3-.54-.62-1.12-.93-1.7a.48.48,0,0,1,0-.56l-1.61-.18s0,0-.05,0A7.19,7.19,0,0,1,5,15.28c-.12-.08-.18,0-.25.06A9.24,9.24,0,0,0,3,18a4.12,4.12,0,0,0-.35,2.54,2.59,2.59,0,0,0,1.67,2.09,2.68,2.68,0,0,0,1.25.2.29.29,0,0,0,.31-.23c.1-.31.24-.62.34-.93a18.05,18.05,0,0,0,1.21-4.34,2.1,2.1,0,0,0,1-.27.8.8,0,0,0-.14-.09,3.17,3.17,0,0,0-2.9-.26,5.66,5.66,0,0,0-1.71,1l-.19-.21a5,5,0,0,1,3.31-1.28ZM17.52,9.38c0-.28,0-.55,0-.83a.52.52,0,0,0-.15-.27,1.77,1.77,0,0,1-.57-1,.63.63,0,0,0-.1-.3,6.61,6.61,0,0,0-2.14-2,15.54,15.54,0,0,1-1.47-1L13,3.88c-.08-.07-.15-.17-.24-.2a7.57,7.57,0,0,0-3.35-.59A3.85,3.85,0,0,0,6.9,3.8a10,10,0,0,1-1,.67c-.17.11-.29.3-.54.23,0,0-.07,0-.1.07a8.57,8.57,0,0,0-1.67,2,1.8,1.8,0,0,1-.72.91c-.06,0-.09.12-.1.19a10.35,10.35,0,0,0,0,3.64,5.15,5.15,0,0,0,2.1,3.36,7.28,7.28,0,0,0,4,1.23c.52,0,1,0,1.57,0A9.82,9.82,0,0,0,12.85,16,5.23,5.23,0,0,0,16.78,13,7.92,7.92,0,0,0,17.52,9.38ZM12.85,17.3a8.51,8.51,0,0,0,.17,1c.4,1.29.82,2.57,1.25,3.85.22.64.38.71,1.06.59l.14,0A2.78,2.78,0,0,0,16.9,22a3.24,3.24,0,0,0,.77-2.72,6.26,6.26,0,0,0-1.14-2.72c-.34-.49-.73-.94-1.1-1.42a6.27,6.27,0,0,1-2.08,1,5.13,5.13,0,0,1,3.52,1.3l-.23.18a5.61,5.61,0,0,0-1.7-1,3.2,3.2,0,0,0-2.9.26l-.18.14ZM7.05,3.37l-.56-.51a2.26,2.26,0,0,0-1.82-.57,4.58,4.58,0,0,0-2,.68A2.32,2.32,0,0,0,1.43,5.06a3.6,3.6,0,0,0,.75,2.06l.33.44.63-.51a2,2,0,0,1-.73-1.16A1.52,1.52,0,0,1,2.8,4.62a2,2,0,0,1,1.12-.68,1.67,1.67,0,0,1,1.52.49Zm6.15.35c.48.32.94.61,1.38.92.13.1.2.1.31,0a1.46,1.46,0,0,1,2-.09,3.57,3.57,0,0,1,.44.43,1.38,1.38,0,0,1,0,2c-.28.32-.29.39-.07.76a1.5,1.5,0,0,0,.18.24c.13.17.23.16.36,0a4.45,4.45,0,0,0,.79-2.07,2,2,0,0,0-1-2.17A11.86,11.86,0,0,0,16.27,3a2.84,2.84,0,0,0-1.65-.24A2,2,0,0,0,13.2,3.72ZM7.72,17.55a28.22,28.22,0,0,1-1.47,4.88,2.31,2.31,0,0,0,1.32-.73.52.52,0,0,0,.12-.31c0-.88,0-1.77,0-2.65V18.5H9a2.32,2.32,0,0,0-.38-1.23Zm5.08,1.18v0c0,1,0,1.93,0,2.9a.17.17,0,0,0,0,.12,2.22,2.22,0,0,0,1.24.66c-.22-.64-.45-1.24-.66-1.86S13,19.35,12.8,18.73Zm-.21-1.18-.9-.27a2.39,2.39,0,0,0-.37,1.21h1.42Z"/><path class="cls-4" d="M9.89,8.61a5.58,5.58,0,0,1,1.77.31,3.1,3.1,0,0,1,2.19,2.57,3.5,3.5,0,0,1-1.07,3.24,3.86,3.86,0,0,1-2.26,1A4.42,4.42,0,0,1,6.61,14.3a2.84,2.84,0,0,1-.71-1.8A3.49,3.49,0,0,1,6.49,10,3.38,3.38,0,0,1,8.8,8.72C9.16,8.66,9.53,8.64,9.89,8.61Zm-.16.28a11.52,11.52,0,0,0-1.18.17,2.85,2.85,0,0,0-2.2,1.81,3.72,3.72,0,0,0-.17,1.59,2.68,2.68,0,0,0,1.05,2.06,4.25,4.25,0,0,0,3.26.93,3.31,3.31,0,0,0,3.11-3,2.93,2.93,0,0,0-.82-2.48A4.2,4.2,0,0,0,9.73,8.89Z"/><path class="cls-4" d="M6.38,9.62a2.85,2.85,0,0,1-.26.59.53.53,0,0,1-.89,0,1,1,0,0,1,0-1.13.54.54,0,0,1,1,0A3.39,3.39,0,0,1,6.38,9.62Z"/><path class="cls-4" d="M13.36,9.59a2.76,2.76,0,0,1,.28-.6.52.52,0,0,1,.88,0,1,1,0,0,1,0,1.15.54.54,0,0,1-.94,0A3.17,3.17,0,0,1,13.36,9.59Z"/><path class="cls-4" d="M11.74,13.71l.3.39L10.8,15,10,14.39a.22.22,0,0,0-.32,0c-.23.18-.47.33-.71.49-.05,0-.13.05-.16,0l-1.19-.8.3-.39c.26.19.51.35.75.54a.19.19,0,0,0,.26,0,.85.85,0,0,1,.19-.14.6.6,0,0,0,.38-.72.41.41,0,0,0-.15-.32c-.42-.32-.82-.66-1.25-1q.22-.3.45-.57a.17.17,0,0,1,.12-.05h2.35a.22.22,0,0,1,.15.08c.13.18.24.37.36.56l-1.25,1a.63.63,0,0,0,0,.89c.18.12.36.32.53.32s.35-.21.53-.33Z"/></g></g></svg>