<svg xmlns="http://www.w3.org/2000/svg" viewBox="0 0 38.55 24.66"><defs><style>.cls-1{isolation:isolate;}.cls-2{opacity:0.15;}.cls-2,.cls-3{mix-blend-mode:multiply;}.cls-4{fill:#fff;}</style></defs><title>convert-CUSTOMIZE-SVG-03</title><g class="cls-1"><g id="Layer_1" data-name="Layer 1"><g class="cls-2"><path d="M23.62,20.5h.6l-.08-.68a.38.38,0,0,1-.4-.38,2.73,2.73,0,0,1,0-.57.65.65,0,0,1,.5-.66l.14-.05c.24-.1.25-.13.14-.4a1.44,1.44,0,0,1,.76.67.65.65,0,0,1-.12.75,3.17,3.17,0,0,1-.56.47.26.26,0,0,0-.13.26c0,.19.05.38.07.58H25v2.88H23.81Z"/><path d="M4.07,20.53h.44v2.86H3.45a.16.16,0,0,1-.1-.12c-.06-.9-.11-1.8-.17-2.72h.59c0-.22,0-.4-.06-.59,0,0-.09-.07-.13-.11s-.23-.14-.24-.23a4.53,4.53,0,0,1,0-.9.52.52,0,0,1,.39-.43l.23-.1c.24-.1.25-.13.12-.35a1.2,1.2,0,0,1,.79.7.82.82,0,0,1-.33.89,4.33,4.33,0,0,1-.41.3s-.1.12-.09.18C4,20.11,4,20.31,4.07,20.53Z"/><path d="M13.4,20.54H14l-.06-.65c-.32-.09-.4-.18-.43-.5a4.14,4.14,0,0,1,0-.61.6.6,0,0,1,.43-.51l.21-.08c.17-.07.29-.15.13-.36a1.3,1.3,0,0,1,.77.7.75.75,0,0,1-.24.82c-.15.14-.33.24-.48.37a.28.28,0,0,0-.1.2c0,.19,0,.39.06.61h.45v2.84H13.58Z"/><path d="M35.19,20.83v2.54H34l-.16-2.53h.59a5.3,5.3,0,0,0-.07-.59s-.08-.07-.12-.1S34,20,34,19.89A3.47,3.47,0,0,1,34,19a.54.54,0,0,1,.39-.46l.2-.08c.27-.11.28-.14.14-.43.16.1.29.17.41.26a.82.82,0,0,1,0,1.44,2.18,2.18,0,0,1-.31.22.21.21,0,0,0-.14.28c0,.18.05.36.07.56Z"/><path d="M25.08,2.23a1.3,1.3,0,0,0-.88.25,10.55,10.55,0,0,1-.91.65,2.3,2.3,0,0,1,.33.19,1.09,1.09,0,0,1,.26.21c.24.25.19.45-.16.57A1.6,1.6,0,0,0,23,3.33a.42.42,0,0,0-.56.13c-.12.18-.22.38-.35.56a.28.28,0,0,1-.45,0c-.1-.11-.12-.18,0-.31a3.47,3.47,0,0,0,.44-.64c.14-.26.26-.53.38-.8a.45.45,0,0,0,0-.23.37.37,0,0,1,.32-.42,1.88,1.88,0,0,1,1.12-.1c.1,0,.23.05.29.13s.39.14.61.11c.48-.08.95-.13,1.43-.19.16,0,.26,0,.26.2s0,.3-.22.3a2.48,2.48,0,0,1-.27,0,.59.59,0,0,0-.61.4c-.2.41-.37.84-.56,1.26a.85.85,0,0,1-.17.25c-.05,0-.18.09-.22.06a.37.37,0,0,1-.1-.23.42.42,0,0,1,.07-.24c.09-.24.19-.47.3-.7S24.94,2.5,25.08,2.23Zm-2.34.56A1.64,1.64,0,0,0,24,2,.91.91,0,0,0,22.74,2.79Z"/><path d="M9.18,21.68h.47v1.71H8.49a.16.16,0,0,1-.1-.08c0-.53-.06-1.06-.09-1.62h.59c0-.21-.05-.4-.08-.59A.18.18,0,0,0,8.7,21a.35.35,0,0,1-.28-.31,5.22,5.22,0,0,1,0-.79.56.56,0,0,1,.35-.45L9,19.33c.26-.11.27-.14.13-.37a.91.91,0,0,1,.67,1.36,1.88,1.88,0,0,1-.53.48.31.31,0,0,0-.17.37C9.14,21.33,9.15,21.5,9.18,21.68Z"/><path d="M30.06,23.38H28.82l-.08-1.28h.59l-.07-.66c-.34,0-.42-.29-.44-.57,0-.12,0-.24,0-.36a.69.69,0,0,1,.49-.69l.17-.07c.25-.11.26-.14.1-.41a1.56,1.56,0,0,1,.8.69,1.07,1.07,0,0,1-.54,1.13.4.4,0,0,0-.25.55c0,.12,0,.24.05.38h.44Z"/><path d="M19.4,22.19h.45v1.18H18.6l-.09-1.18h.6c0-.22,0-.41-.07-.59s-.09-.07-.13-.11-.22-.15-.24-.24a4.33,4.33,0,0,1-.05-.88.52.52,0,0,1,.38-.44l.23-.09c.25-.11.26-.13.13-.4a1.55,1.55,0,0,1,.74.59.8.8,0,0,1-.25,1c-.13.12-.29.2-.42.31a.29.29,0,0,0-.11.2C19.33,21.76,19.37,22,19.4,22.19Z"/><path d="M19,2.48l.21.67a.36.36,0,0,1-.17.42,3.31,3.31,0,0,1-1.66.57.45.45,0,0,1-.46-.69c.21-.48.44-1,.65-1.43A.57.57,0,0,1,18,1.63a6.62,6.62,0,0,1,1.09,0c.3,0,.38.25.2.5A4.38,4.38,0,0,1,19,2.48Zm-.63.41a2.86,2.86,0,0,0-.66.19.54.54,0,0,0-.19.42c0,.17.21.21.35.16a2.88,2.88,0,0,0,.64-.3.33.33,0,0,0,.13-.29C18.6,3,18.45,2.94,18.36,2.89Zm-.49-.37a3.88,3.88,0,0,0,.53-.15,1.48,1.48,0,0,0,.37-.29.15.15,0,0,0,0-.16.7.7,0,0,0-.69.15C18,2.2,18,2.33,17.87,2.52Z"/><path d="M28.78,4.11c-.35,0-.46-.16-.37-.41.18-.49.37-1,.57-1.44a1,1,0,0,1,1.14-.67,3.93,3.93,0,0,1,.68.15.48.48,0,0,1,.31.72,2.66,2.66,0,0,1-1.59,1.46A7.4,7.4,0,0,1,28.78,4.11ZM30.32,2V2a.76.76,0,0,0-.93.58c-.07.23-.18.44-.26.67a.85.85,0,0,0,0,.23c.1,0,.21,0,.28,0a3.81,3.81,0,0,0,1.21-.93c.09-.1.2-.23.09-.35A1.16,1.16,0,0,0,30.32,2Z"/><path d="M7.45,3.63A1.65,1.65,0,0,0,6,4a.25.25,0,0,1-.37,0,.2.2,0,0,1,0-.32c.35-.42.71-.85,1.09-1.25a6.16,6.16,0,0,1,.77-.67.7.7,0,0,1,.32-.13c.22,0,.34.09.32.32,0,.46-.1.92-.15,1.38,0,.15-.08.3-.1.46s-.18.2-.32.17-.1-.16-.09-.27S7.44,3.7,7.45,3.63ZM6.76,3.2a5.46,5.46,0,0,0,.58,0A.27.27,0,0,0,7.53,3a1.93,1.93,0,0,0,.06-.49A1.1,1.1,0,0,0,6.76,3.2Z"/><path d="M32.7,3.64A1.68,1.68,0,0,0,31.25,4a.39.39,0,0,1-.25.12c-.23,0-.3-.17-.17-.35a6.5,6.5,0,0,1,.7-.87c.34-.35.71-.67,1.07-1a.78.78,0,0,1,.24-.16c.21-.1.54-.05.5.31-.07.6-.17,1.19-.25,1.79,0,.21-.17.22-.33.19s-.09-.17-.08-.27A.65.65,0,0,1,32.7,3.64Zm.14-1.14a1.11,1.11,0,0,0-.83.7,5.09,5.09,0,0,0,.55,0A.35.35,0,0,0,32.78,3,1.93,1.93,0,0,0,32.84,2.5Z"/><path d="M5.13,3,4.38,3a.26.26,0,0,0-.15.14c-.15.28-.28.57-.43.85a.39.39,0,0,1-.23.15c-.22,0-.32-.16-.22-.36.25-.48.51-1,.77-1.43a5.3,5.3,0,0,1,.33-.57c.06-.08.17-.22.23-.2s.19.13.26.2l-.45.82c.27,0,.5,0,.73-.06a.27.27,0,0,0,.14-.12c.08-.18.15-.37.22-.55A.32.32,0,0,1,6,1.7a.18.18,0,0,1,.06.17,3.35,3.35,0,0,1-.19.53c-.22.49-.46,1-.69,1.45a0,0,0,0,0,0,0c-.09.12-.15.31-.34.24s-.07-.26,0-.38S5,3.23,5.13,3Z"/><path d="M28,3,27.2,3c-.05,0-.11.08-.14.14-.14.28-.27.57-.43.84a.32.32,0,0,1-.25.15c-.21,0-.3-.16-.19-.36.25-.48.51-1,.77-1.44.1-.18.21-.36.32-.54s.3-.31.48,0l-.44.79c.28,0,.52,0,.75-.06a.23.23,0,0,0,.12-.12c.08-.18.15-.36.22-.55a.32.32,0,0,1,.42-.17.19.19,0,0,1,.07.16,3.86,3.86,0,0,1-.19.54c-.23.48-.46,1-.7,1.44a.06.06,0,0,1,0,0c-.1.11-.16.32-.35.22s-.06-.25,0-.37Z"/><path d="M10.13,1.47a3.55,3.55,0,0,1,.65.22c.33.17.36.42.1.68a3.47,3.47,0,0,1-1.63.93A.59.59,0,0,0,9,3.5c-.12.16-.21.35-.33.52a.27.27,0,0,1-.43.05c-.11-.1-.15-.18,0-.32a3.13,3.13,0,0,0,.46-.68A5.12,5.12,0,0,0,9,2.32.77.77,0,0,0,9.06,2a.28.28,0,0,1,.22-.32Zm.54.55a1.06,1.06,0,0,0-.94,0,1.45,1.45,0,0,0-.45.78A2.08,2.08,0,0,0,10.67,2Z"/><path d="M12.77,1.47a3.72,3.72,0,0,1,.64.22c.33.17.36.42.1.68a3.45,3.45,0,0,1-1.65.93.53.53,0,0,0-.26.18c-.13.17-.22.37-.34.54a.28.28,0,0,1-.45,0c-.1-.11-.12-.18,0-.31a4,4,0,0,0,.44-.64c.14-.26.26-.53.38-.8a.47.47,0,0,0,0-.23A.37.37,0,0,1,12,1.66Zm.52.56a1,1,0,0,0-.89,0c-.29.15-.36.48-.51.8A2.08,2.08,0,0,0,13.29,2Z"/><path d="M20.45,3.6l.47,0c0,.31-.1.43-.4.45l-.59.06-.62.06.13-.34a.22.22,0,0,1,.26-.16A.3.3,0,0,0,20,3.46l.69-1.3H20c.09-.42.25-.55.66-.55h.91c.21,0,.2.14.21.27s0,.29-.16.28c-.41,0-.55.23-.7.52S20.63,3.27,20.45,3.6Z"/><path d="M13.53,3.83l.62-.91a.18.18,0,0,0,0-.25,4.91,4.91,0,0,1-.33-.59.3.3,0,0,1,0-.24A.53.53,0,0,1,14,1.63s.11.08.15.14c.14.24.27.48.4.72.27-.29.51-.56.76-.81a.58.58,0,0,1,.25-.19.39.39,0,0,1,.3,0c.11.08.08.21,0,.31a1.14,1.14,0,0,1-.16.15,3.94,3.94,0,0,0-1.1,1.09c-.23.29-.44.59-.65.89s-.21.21-.34,0A.42.42,0,0,1,13.53,3.83Z"/><path d="M33.35,3.83,34,2.92a.19.19,0,0,0,0-.25c-.12-.19-.23-.39-.33-.59a.35.35,0,0,1,0-.26.59.59,0,0,1,.22-.19s.1.08.13.14l.41.72.75-.81a.73.73,0,0,1,.27-.2.34.34,0,0,1,.28,0c.11.07.09.2,0,.29A.87.87,0,0,1,35.5,2a4,4,0,0,0-1.11,1.09c-.22.29-.44.59-.65.89s-.2.21-.33,0Z"/><path d="M23.82,20.69h.6L24.34,20a.4.4,0,0,1-.41-.38,2.73,2.73,0,0,1,0-.57.65.65,0,0,1,.5-.66l.13-.05c.25-.1.26-.14.15-.4a1.48,1.48,0,0,1,.76.67.65.65,0,0,1-.12.75,3.17,3.17,0,0,1-.56.47.26.26,0,0,0-.13.26c0,.18.05.37.07.58h.46v2.88H24Z"/><path d="M4.27,20.73h.44v2.86H3.65s-.1-.08-.1-.12c-.06-.9-.11-1.8-.17-2.72H4c0-.22,0-.41-.06-.59s-.09-.07-.13-.11-.23-.15-.24-.23a4.53,4.53,0,0,1,0-.9.55.55,0,0,1,.39-.44l.23-.09c.23-.1.25-.13.12-.36a1.24,1.24,0,0,1,.79.71.82.82,0,0,1-.33.89c-.12.12-.28.19-.41.3a.23.23,0,0,0-.09.18C4.2,20.3,4.24,20.51,4.27,20.73Z"/><path d="M13.6,20.74h.59l-.07-.65c-.31-.09-.39-.18-.42-.51a4,4,0,0,1,0-.6.59.59,0,0,1,.42-.51l.22-.08c.17-.07.29-.15.13-.36a1.24,1.24,0,0,1,.77.7.76.76,0,0,1-.24.82c-.15.14-.33.24-.49.37a.31.31,0,0,0-.09.2c0,.19,0,.39.06.61h.45v2.84H13.78Z"/><path d="M35.39,21v2.54H34.21L34.05,21h.59c0-.21,0-.4-.07-.59,0,0-.08-.07-.12-.1s-.24-.16-.25-.26a3.52,3.52,0,0,1-.05-.86.52.52,0,0,1,.39-.45l.2-.08c.27-.11.28-.14.14-.43.16.1.29.17.41.26a.82.82,0,0,1,0,1.44,1.36,1.36,0,0,1-.32.21.24.24,0,0,0-.14.29c0,.18,0,.36.08.56Z"/><path d="M25.28,2.43a1.35,1.35,0,0,0-.88.24,7.48,7.48,0,0,1-.91.65c.1.06.22.12.33.2a1.09,1.09,0,0,1,.26.21c.24.25.18.45-.17.56a1.52,1.52,0,0,0-.74-.76.42.42,0,0,0-.56.13c-.12.18-.22.38-.35.56a.28.28,0,0,1-.45,0c-.1-.11-.12-.18,0-.31a4,4,0,0,0,.44-.64c.14-.26.26-.53.38-.8a.47.47,0,0,0,0-.23A.37.37,0,0,1,23,1.86a1.88,1.88,0,0,1,1.12-.1.64.64,0,0,1,.29.12c.18.21.39.15.61.11l1.43-.19c.15,0,.25,0,.26.21s0,.3-.22.3l-.27,0a.59.59,0,0,0-.61.4c-.2.41-.37.84-.56,1.25a.78.78,0,0,1-.17.26c-.05,0-.18.09-.22.06a.33.33,0,0,1-.1-.23.5.5,0,0,1,.06-.24l.3-.7C25,2.91,25.14,2.7,25.28,2.43ZM22.94,3a1.62,1.62,0,0,0,1.29-.77A.9.9,0,0,0,22.94,3Z"/><path d="M9.37,21.88h.47v1.71H8.69a.14.14,0,0,1-.1-.08c0-.53-.06-1.07-.1-1.62h.6c0-.21-.05-.4-.08-.59a.18.18,0,0,0-.11-.1.36.36,0,0,1-.28-.31,5.22,5.22,0,0,1,0-.79.54.54,0,0,1,.35-.45l.27-.11c.25-.11.26-.14.13-.37A.91.91,0,0,1,10,20.52a1.83,1.83,0,0,1-.53.47.32.32,0,0,0-.17.38C9.34,21.53,9.35,21.7,9.37,21.88Z"/><path d="M30.26,23.58H29l-.07-1.28h.58l-.06-.66c-.35,0-.42-.29-.44-.57,0-.12,0-.24,0-.36a.68.68,0,0,1,.48-.69l.18-.07c.25-.11.26-.14.09-.41a1.5,1.5,0,0,1,.81.69.83.83,0,0,1-.28.93.76.76,0,0,1-.27.2.41.41,0,0,0-.25.55,3.38,3.38,0,0,1,.06.38h.44Z"/><path d="M19.6,22.39h.45v1.18H18.79l-.08-1.18h.6c0-.22,0-.41-.07-.6,0,0-.09-.07-.13-.1s-.22-.15-.24-.24a4.33,4.33,0,0,1-.05-.88.52.52,0,0,1,.38-.44l.23-.1c.25-.1.26-.13.13-.39a1.48,1.48,0,0,1,.73.59.79.79,0,0,1-.24,1c-.13.12-.29.2-.43.31a.32.32,0,0,0-.1.2C19.53,22,19.57,22.16,19.6,22.39Z"/><path d="M19.19,2.68l.21.67a.36.36,0,0,1-.17.42,3.31,3.31,0,0,1-1.66.57.45.45,0,0,1-.46-.69c.21-.48.44-.95.65-1.43a.57.57,0,0,1,.47-.39,5.78,5.78,0,0,1,1.1,0c.3,0,.38.25.2.5S19.28,2.58,19.19,2.68Zm-.63.41a2.44,2.44,0,0,0-.66.19.52.52,0,0,0-.19.42c0,.17.21.21.35.16a3.11,3.11,0,0,0,.64-.3.34.34,0,0,0,.13-.3C18.8,3.18,18.65,3.14,18.56,3.09Zm-.49-.37a2.79,2.79,0,0,0,.53-.16A1.9,1.9,0,0,0,19,2.28s0-.14,0-.16a.7.7,0,0,0-.69.15C18.21,2.4,18.15,2.53,18.07,2.72Z"/><path d="M29,4.31c-.35,0-.47-.16-.37-.42.18-.48.37-1,.56-1.43a1,1,0,0,1,1.15-.67,3.18,3.18,0,0,1,.68.15.48.48,0,0,1,.31.72,2.72,2.72,0,0,1-1.59,1.46A7.4,7.4,0,0,1,29,4.31Zm1.54-2.17v.07a.76.76,0,0,0-.93.58c-.07.23-.18.44-.27.67a1.6,1.6,0,0,0,0,.23c.09,0,.2,0,.28,0a3.81,3.81,0,0,0,1.21-.93c.09-.11.19-.23.09-.36A2.08,2.08,0,0,0,30.52,2.14Z"/><path d="M7.65,3.83a1.65,1.65,0,0,0-1.48.4.25.25,0,0,1-.37,0,.2.2,0,0,1,0-.32c.35-.43.71-.85,1.09-1.26A8,8,0,0,1,7.64,2,.68.68,0,0,1,8,1.89c.22,0,.34.09.32.32,0,.46-.1.92-.16,1.38,0,.15-.07.3-.09.45s-.18.2-.32.18-.1-.17-.09-.27S7.64,3.9,7.65,3.83ZM7,3.4a5.63,5.63,0,0,0,.59,0,.28.28,0,0,0,.19-.16,3.65,3.65,0,0,0,.06-.49A1.08,1.08,0,0,0,7,3.4Z"/><path d="M32.9,3.83a1.69,1.69,0,0,0-1.45.36.39.39,0,0,1-.25.12c-.23,0-.3-.17-.17-.36a6.41,6.41,0,0,1,.7-.86c.34-.35.7-.67,1.06-1A1,1,0,0,1,33,1.93c.21-.1.54-.05.5.3-.07.6-.17,1.2-.25,1.8,0,.21-.17.22-.33.19s-.09-.17-.08-.28S32.89,3.89,32.9,3.83ZM33,2.7a1.08,1.08,0,0,0-.83.7,4.73,4.73,0,0,0,.54,0A.33.33,0,0,0,33,3.18,2.33,2.33,0,0,0,33,2.7Z"/><path d="M5.33,3.16l-.75,0a.26.26,0,0,0-.15.14c-.15.28-.28.57-.44.84a.28.28,0,0,1-.23.15c-.21,0-.31-.15-.21-.35.25-.48.51-1,.77-1.43A5.3,5.3,0,0,1,4.65,2c.06-.08.17-.22.23-.21s.18.14.26.21l-.46.82c.28,0,.51,0,.74-.06a.25.25,0,0,0,.14-.13c.08-.17.15-.36.22-.54A.32.32,0,0,1,6.2,1.9a.17.17,0,0,1,.06.16,3.13,3.13,0,0,1-.19.54c-.22.48-.46,1-.69,1.45h0c-.09.12-.15.32-.34.24S5,4.05,5,3.92,5.21,3.43,5.33,3.16Z"/><path d="M28.16,3.16l-.76,0s-.11.08-.14.13c-.14.29-.27.57-.43.85a.35.35,0,0,1-.25.15c-.21,0-.3-.16-.19-.36.25-.49.51-1,.77-1.44.1-.18.21-.37.32-.54s.3-.31.48,0l-.44.8c.28,0,.51,0,.75-.06a.23.23,0,0,0,.12-.12c.08-.18.15-.37.22-.55A.31.31,0,0,1,29,1.9a.17.17,0,0,1,.08.16,3.35,3.35,0,0,1-.19.53c-.23.49-.46,1-.7,1.45v0c-.1.11-.16.31-.35.22s-.06-.25,0-.37Z"/><path d="M10.32,1.67a3.41,3.41,0,0,1,.66.22c.33.17.36.42.1.68a3.65,3.65,0,0,1-1.63.93.59.59,0,0,0-.29.2c-.13.16-.21.35-.33.52a.27.27,0,0,1-.43,0c-.11-.1-.15-.18,0-.33a2.85,2.85,0,0,0,.46-.67,5.12,5.12,0,0,0,.35-.75.78.78,0,0,0,.06-.31.28.28,0,0,1,.22-.31Zm.55.55a1.06,1.06,0,0,0-.94,0A1.39,1.39,0,0,0,9.48,3,2.12,2.12,0,0,0,10.87,2.22Z"/><path d="M13,1.67a4,4,0,0,1,.64.22c.33.17.36.42.1.68a3.52,3.52,0,0,1-1.66.93.56.56,0,0,0-.25.18c-.13.17-.22.36-.34.54a.28.28,0,0,1-.45,0c-.1-.11-.12-.18,0-.31a3.52,3.52,0,0,0,.45-.64c.14-.26.26-.53.38-.8a.47.47,0,0,0,0-.23.35.35,0,0,1,.32-.42C12.44,1.79,12.69,1.74,13,1.67Zm.51.56a1,1,0,0,0-.88,0c-.3.15-.36.48-.51.8A2,2,0,0,0,13.48,2.23Z"/><path d="M20.65,3.8l.47,0c0,.31-.1.43-.4.45l-.59,0-.62.07L19.64,4a.21.21,0,0,1,.26-.16.3.3,0,0,0,.32-.18l.69-1.3h-.69c.09-.42.24-.55.66-.56s.6,0,.91,0,.2.14.21.26,0,.3-.16.28c-.42,0-.56.24-.7.53S20.83,3.47,20.65,3.8Z"/><path d="M13.72,4c.22-.32.43-.61.63-.91.07-.09.05-.16,0-.26A4.19,4.19,0,0,1,14,2.28.34.34,0,0,1,14,2a.47.47,0,0,1,.21-.21s.11.08.15.14l.4.71c.27-.28.51-.55.76-.8a.58.58,0,0,1,.25-.19.36.36,0,0,1,.29,0c.12.08.08.21,0,.31a.5.5,0,0,1-.15.14,4.11,4.11,0,0,0-1.1,1.1c-.23.29-.45.58-.66.88s-.2.21-.33,0C13.75,4.1,13.73,4,13.72,4Z"/><path d="M33.55,4l.63-.91a.2.2,0,0,0,0-.26,4.13,4.13,0,0,1-.33-.58.35.35,0,0,1,0-.26c0-.09.14-.15.22-.2a.52.52,0,0,1,.13.15l.4.71c.27-.28.51-.55.76-.8a.73.73,0,0,1,.27-.2.39.39,0,0,1,.28,0c.11.08.09.2,0,.3a.61.61,0,0,1-.16.16,4,4,0,0,0-1.11,1.1c-.23.29-.44.58-.65.88s-.2.21-.33,0C33.58,4.1,33.56,4,33.55,4Z"/></g><g class="cls-3"><path d="M23.48,20.35h.6L24,19.68a.4.4,0,0,1-.41-.38,2.73,2.73,0,0,1,0-.57.65.65,0,0,1,.5-.66l.13-.05c.25-.1.26-.14.15-.4a1.48,1.48,0,0,1,.76.67A.65.65,0,0,1,25,19a3.17,3.17,0,0,1-.56.47.26.26,0,0,0-.13.26c0,.18.05.37.07.58h.46v2.88H23.67Z"/><path d="M3.93,20.39h.44v2.86H3.31s-.1-.08-.1-.12c-.06-.9-.11-1.8-.17-2.72h.59c0-.22,0-.41-.06-.59s-.09-.07-.13-.11-.23-.15-.24-.23a4.53,4.53,0,0,1-.05-.9.55.55,0,0,1,.39-.44L3.77,18c.23-.1.24-.13.12-.36a1.24,1.24,0,0,1,.79.71.82.82,0,0,1-.33.89c-.12.12-.28.19-.41.3a.23.23,0,0,0-.09.18C3.86,20,3.9,20.17,3.93,20.39Z"/><path d="M13.26,20.4h.59l-.07-.65c-.31-.09-.39-.18-.42-.51a4.14,4.14,0,0,1,0-.61.59.59,0,0,1,.42-.5l.22-.08c.17-.07.29-.15.13-.36a1.24,1.24,0,0,1,.77.7.76.76,0,0,1-.24.82c-.15.14-.33.24-.49.37a.31.31,0,0,0-.09.19c0,.2,0,.4.06.62h.45v2.84H13.44Z"/><path d="M35.05,20.69v2.54H33.87l-.16-2.53h.59c0-.21,0-.4-.07-.59,0,0-.08-.07-.12-.1s-.24-.16-.25-.26a3.52,3.52,0,0,1,0-.86.52.52,0,0,1,.39-.45l.2-.08c.27-.11.28-.14.14-.43.16.1.29.17.41.26a.82.82,0,0,1,0,1.44,1.36,1.36,0,0,1-.32.21.24.24,0,0,0-.14.29c0,.18.05.36.08.56Z"/><path d="M24.93,2.09a1.34,1.34,0,0,0-.87.24,7.48,7.48,0,0,1-.91.65c.1.06.22.12.33.2a1.09,1.09,0,0,1,.26.21c.24.25.18.45-.17.56a1.52,1.52,0,0,0-.74-.76.42.42,0,0,0-.56.13c-.12.18-.22.38-.35.56a.28.28,0,0,1-.45,0c-.1-.11-.12-.18,0-.31A4,4,0,0,0,21.92,3c.14-.26.26-.53.38-.8a.47.47,0,0,0,0-.23.37.37,0,0,1,.32-.42,1.88,1.88,0,0,1,1.12-.1.64.64,0,0,1,.29.12c.18.21.39.15.61.11l1.43-.19c.15,0,.25,0,.26.21s0,.3-.22.3S26,2,25.88,2a.59.59,0,0,0-.61.4c-.2.41-.37.84-.56,1.25a.78.78,0,0,1-.17.26c-.05,0-.18.09-.22.06a.33.33,0,0,1-.1-.23.5.5,0,0,1,.06-.24l.3-.7Zm-2.33.56a1.62,1.62,0,0,0,1.29-.77A.9.9,0,0,0,22.6,2.65Z"/><path d="M9,21.54H9.5v1.71H8.35a.14.14,0,0,1-.1-.08c0-.53-.06-1.07-.1-1.62h.6c0-.21-.05-.4-.08-.59a.18.18,0,0,0-.11-.1.36.36,0,0,1-.28-.31,5.22,5.22,0,0,1,0-.79.54.54,0,0,1,.35-.45l.27-.11c.25-.11.26-.14.13-.37a.91.91,0,0,1,.67,1.36,1.83,1.83,0,0,1-.53.47A.33.33,0,0,0,9,21,3.92,3.92,0,0,1,9,21.54Z"/><path d="M29.92,23.24H28.67L28.6,22h.58l-.06-.66c-.35,0-.42-.29-.44-.57,0-.12,0-.24,0-.36a.68.68,0,0,1,.48-.69l.18-.07c.25-.11.26-.14.09-.41a1.5,1.5,0,0,1,.81.69.83.83,0,0,1-.28.93.9.9,0,0,1-.27.2.41.41,0,0,0-.25.55,3.38,3.38,0,0,1,.06.38h.44Z"/><path d="M19.26,22.05h.45v1.18H18.45l-.08-1.18H19c0-.22,0-.41-.07-.6,0,0-.09-.07-.13-.1s-.22-.15-.24-.24a4.33,4.33,0,0,1-.05-.88.52.52,0,0,1,.38-.44l.23-.1c.25-.1.26-.13.13-.39a1.48,1.48,0,0,1,.73.59.79.79,0,0,1-.24,1c-.13.12-.29.2-.43.31a.3.3,0,0,0-.1.2C19.19,21.62,19.23,21.82,19.26,22.05Z"/><path d="M18.85,2.34l.21.67a.36.36,0,0,1-.17.42A3.4,3.4,0,0,1,17.23,4a.45.45,0,0,1-.46-.69c.21-.48.44-1,.65-1.43a.57.57,0,0,1,.47-.39,5.78,5.78,0,0,1,1.1,0c.3,0,.38.25.2.5S18.94,2.24,18.85,2.34Zm-.63.41a2.74,2.74,0,0,0-.66.18.56.56,0,0,0-.19.43c0,.17.21.21.35.16a3.11,3.11,0,0,0,.64-.3.34.34,0,0,0,.13-.3C18.46,2.84,18.31,2.8,18.22,2.75Zm-.49-.37a2.79,2.79,0,0,0,.53-.16,1.9,1.9,0,0,0,.37-.28s0-.14,0-.16a.7.7,0,0,0-.69.15C17.87,2.06,17.81,2.19,17.73,2.38Z"/><path d="M28.64,4c-.35,0-.47-.16-.37-.42.18-.48.37-.95.56-1.43A1,1,0,0,1,30,1.45a3.18,3.18,0,0,1,.68.15.48.48,0,0,1,.31.72,2.72,2.72,0,0,1-1.59,1.46A7.4,7.4,0,0,1,28.64,4ZM30.18,1.8v.07a.76.76,0,0,0-.93.58c-.07.23-.18.44-.27.67a1.6,1.6,0,0,0,0,.23c.09,0,.2,0,.28,0a3.81,3.81,0,0,0,1.21-.93c.09-.11.19-.23.09-.36A2.08,2.08,0,0,0,30.18,1.8Z"/><path d="M7.31,3.49a1.65,1.65,0,0,0-1.48.4.25.25,0,0,1-.37,0,.21.21,0,0,1,0-.32c.36-.43.72-.85,1.1-1.26a8,8,0,0,1,.76-.66.68.68,0,0,1,.33-.13c.22,0,.34.09.32.32,0,.46-.1.92-.16,1.38,0,.15-.07.3-.09.45s-.18.2-.32.18-.1-.17-.09-.27A1,1,0,0,1,7.31,3.49Zm-.7-.43A5.63,5.63,0,0,0,7.2,3a.28.28,0,0,0,.19-.16,3.65,3.65,0,0,0,.06-.49A1.08,1.08,0,0,0,6.61,3.06Z"/><path d="M32.56,3.49a1.69,1.69,0,0,0-1.45.36.39.39,0,0,1-.25.12c-.23,0-.3-.17-.17-.36a6.41,6.41,0,0,1,.7-.86c.34-.35.7-.67,1.06-1a1,1,0,0,1,.25-.16c.21-.1.54-.05.5.3-.07.6-.17,1.2-.25,1.8,0,.21-.18.22-.33.19s-.09-.17-.08-.28S32.55,3.55,32.56,3.49Zm.14-1.13a1.08,1.08,0,0,0-.83.7,4.73,4.73,0,0,0,.54,0,.33.33,0,0,0,.23-.18A2.33,2.33,0,0,0,32.7,2.36Z"/><path d="M5,2.82l-.75,0A.26.26,0,0,0,4.09,3c-.15.28-.28.57-.44.84A.28.28,0,0,1,3.42,4c-.21,0-.31-.15-.21-.35.25-.48.51-1,.77-1.44a6.32,6.32,0,0,1,.33-.56c.06-.08.17-.22.23-.21s.18.14.26.21l-.46.82c.28,0,.51,0,.74-.06a.25.25,0,0,0,.14-.13c.08-.18.15-.36.22-.54a.32.32,0,0,1,.42-.17.17.17,0,0,1,.06.16,3.13,3.13,0,0,1-.19.54c-.22.48-.46,1-.69,1.45a0,0,0,0,0,0,0c-.09.12-.15.32-.34.24s-.07-.25,0-.38S4.87,3.09,5,2.82Z"/><path d="M27.82,2.82l-.76,0s-.11.08-.14.13c-.15.28-.27.57-.43.85a.35.35,0,0,1-.25.15c-.21,0-.3-.16-.19-.36.25-.49.51-1,.77-1.44l.32-.55c.19-.31.3-.3.48,0l-.44.8c.28,0,.51,0,.75-.06a.23.23,0,0,0,.12-.12c.08-.18.15-.37.22-.55a.31.31,0,0,1,.41-.17.17.17,0,0,1,.08.16,3.35,3.35,0,0,1-.19.53c-.23.49-.46,1-.7,1.45,0,0,0,0,0,0s-.16.31-.35.22-.06-.25,0-.37Z"/><path d="M10,1.33a3.41,3.41,0,0,1,.66.22c.33.17.36.42.1.68a3.65,3.65,0,0,1-1.63.93.59.59,0,0,0-.29.2c-.13.16-.21.35-.33.52a.27.27,0,0,1-.43.05c-.11-.1-.15-.18,0-.33a2.85,2.85,0,0,0,.46-.67,6.41,6.41,0,0,0,.35-.75.78.78,0,0,0,.06-.31.28.28,0,0,1,.22-.31Zm.55.55a1.06,1.06,0,0,0-.94,0,1.39,1.39,0,0,0-.45.78A2.12,2.12,0,0,0,10.53,1.88Z"/><path d="M12.63,1.33a4,4,0,0,1,.64.22c.33.17.36.42.1.68a3.52,3.52,0,0,1-1.66.93.56.56,0,0,0-.25.18c-.13.17-.22.36-.34.54a.28.28,0,0,1-.45,0c-.1-.11-.12-.18,0-.31A3.52,3.52,0,0,0,11.12,3c.14-.26.26-.53.38-.8a.47.47,0,0,0,0-.23.35.35,0,0,1,.32-.42C12.1,1.45,12.35,1.4,12.63,1.33Zm.51.56a1,1,0,0,0-.88,0c-.3.15-.36.48-.51.8A2,2,0,0,0,13.14,1.89Z"/><path d="M20.31,3.46l.47,0c0,.31-.1.43-.4.45l-.59.05L19.17,4l.13-.34a.21.21,0,0,1,.26-.16.3.3,0,0,0,.32-.18L20.57,2h-.69c.09-.42.24-.55.66-.56s.6,0,.91,0,.2.14.21.26,0,.3-.16.28c-.42,0-.56.24-.7.53S20.49,3.13,20.31,3.46Z"/><path d="M13.38,3.69,14,2.78c.07-.09.05-.16,0-.26a4.19,4.19,0,0,1-.34-.58.34.34,0,0,1,0-.24.43.43,0,0,1,.21-.21s.11.08.15.14l.4.71.76-.81a.64.64,0,0,1,.25-.18.36.36,0,0,1,.29,0c.12.08.08.21,0,.31a.5.5,0,0,1-.15.14,4.11,4.11,0,0,0-1.1,1.1c-.23.29-.45.58-.66.88s-.2.21-.33,0C13.41,3.76,13.39,3.7,13.38,3.69Z"/><path d="M33.21,3.69l.63-.91a.2.2,0,0,0,0-.26,4.13,4.13,0,0,1-.33-.58.35.35,0,0,1,0-.26c0-.09.14-.15.22-.2a.52.52,0,0,1,.13.15l.4.71c.27-.28.51-.55.76-.8a.73.73,0,0,1,.27-.2.39.39,0,0,1,.28,0c.11.08.09.2,0,.3a.61.61,0,0,1-.16.16,4,4,0,0,0-1.11,1.1c-.23.29-.44.58-.65.88s-.2.21-.33,0C33.24,3.76,33.22,3.7,33.21,3.69Z"/></g><path class="cls-4" d="M23.68,20.55h.6l-.08-.67c-.26,0-.37-.17-.41-.39a2.6,2.6,0,0,1,0-.56.66.66,0,0,1,.49-.66l.14-.05c.25-.11.26-.14.15-.41a1.54,1.54,0,0,1,.76.68.67.67,0,0,1-.12.75,3.17,3.17,0,0,1-.56.47.24.24,0,0,0-.13.26c0,.18.05.37.07.58H25v2.88H23.86Z"/><path class="cls-4" d="M4.12,20.59h.45v2.85H3.51s-.1-.08-.1-.12c-.06-.9-.11-1.8-.17-2.72h.59A4.78,4.78,0,0,0,3.76,20s-.08-.07-.12-.11-.23-.15-.24-.24a3.77,3.77,0,0,1,0-.89.52.52,0,0,1,.39-.44L4,18.24c.23-.1.24-.14.12-.36a1.19,1.19,0,0,1,.79.71.82.82,0,0,1-.33.89c-.12.12-.28.19-.41.3A.28.28,0,0,0,4,20C4.06,20.16,4.09,20.37,4.12,20.59Z"/><path class="cls-4" d="M13.46,20.6h.59L14,20c-.31-.1-.39-.19-.42-.51a2.49,2.49,0,0,1,0-.61.57.57,0,0,1,.42-.5l.22-.08c.17-.07.28-.15.13-.36a1.26,1.26,0,0,1,.77.69.77.77,0,0,1-.25.83c-.14.14-.32.24-.48.37a.25.25,0,0,0-.09.19,4.34,4.34,0,0,0,.06.61h.44v2.85H13.64Z"/><path class="cls-4" d="M35.24,20.89v2.54H34.07L33.9,20.9h.6c0-.22,0-.4-.07-.59,0,0-.08-.07-.12-.11s-.24-.15-.25-.25a3.52,3.52,0,0,1-.05-.86.51.51,0,0,1,.39-.45l.2-.08c.27-.11.28-.14.13-.44.17.11.3.18.42.27a.82.82,0,0,1,0,1.44,1.6,1.6,0,0,1-.32.21.24.24,0,0,0-.14.29c0,.18,0,.36.08.56Z"/><path class="cls-4" d="M25.13,2.29a1.34,1.34,0,0,0-.87.24,7.48,7.48,0,0,1-.91.65c.09.06.22.12.33.2a1.71,1.71,0,0,1,.26.21c.24.25.18.45-.17.56A1.56,1.56,0,0,0,23,3.39a.42.42,0,0,0-.57.13c-.11.18-.21.37-.34.55a.27.27,0,0,1-.45,0c-.1-.1-.12-.17,0-.31a3.14,3.14,0,0,0,.45-.63c.14-.26.26-.54.38-.81a.41.41,0,0,0,0-.22c0-.25.11-.36.32-.43A2,2,0,0,1,24,1.62a.69.69,0,0,1,.29.12c.18.21.39.15.61.11l1.43-.19c.15,0,.25,0,.26.21s0,.29-.22.3a2.64,2.64,0,0,1-.28,0,.6.6,0,0,0-.6.41c-.2.41-.37.84-.56,1.25a.78.78,0,0,1-.17.26.34.34,0,0,1-.22.06.33.33,0,0,1-.1-.23.57.57,0,0,1,.06-.25l.3-.7C24.88,2.77,25,2.55,25.13,2.29Zm-2.33.56a1.62,1.62,0,0,0,1.29-.77A.9.9,0,0,0,22.8,2.85Z"/><path class="cls-4" d="M9.23,21.74H9.7v1.7H8.55s-.1-.05-.1-.08c0-.53-.07-1.07-.1-1.62H9c0-.21,0-.41-.08-.6a.2.2,0,0,0-.11-.09.36.36,0,0,1-.28-.31,4.25,4.25,0,0,1,0-.8.51.51,0,0,1,.35-.44l.27-.11c.25-.11.26-.14.13-.37a.91.91,0,0,1,.67,1.36,1.83,1.83,0,0,1-.53.47.33.33,0,0,0-.18.38C9.19,21.39,9.21,21.56,9.23,21.74Z"/><path class="cls-4" d="M30.12,23.43H28.87l-.07-1.27h.58l-.06-.67c-.35,0-.42-.28-.44-.57,0-.11,0-.23,0-.35a.67.67,0,0,1,.48-.69l.18-.08c.25-.1.25-.13.09-.4a1.5,1.5,0,0,1,.81.69.83.83,0,0,1-.28.93,1.05,1.05,0,0,1-.27.2.41.41,0,0,0-.25.55,3,3,0,0,1,.06.38h.44Z"/><path class="cls-4" d="M19.46,22.25h.45v1.18H18.65l-.08-1.19h.59c0-.21,0-.4-.06-.59,0,0-.09-.07-.13-.11s-.23-.14-.24-.23a3.72,3.72,0,0,1-.05-.88.52.52,0,0,1,.37-.44l.24-.1c.25-.1.26-.13.13-.39a1.53,1.53,0,0,1,.73.59.8.8,0,0,1-.24,1c-.13.11-.29.2-.43.31a.3.3,0,0,0-.1.19C19.39,21.82,19.43,22,19.46,22.25Z"/><path class="cls-4" d="M19.05,2.53c.07.24.14.46.21.68a.36.36,0,0,1-.17.42,3.4,3.4,0,0,1-1.66.57A.46.46,0,0,1,17,3.5c.21-.47.44-.94.64-1.42a.59.59,0,0,1,.48-.4,5.67,5.67,0,0,1,1.09,0c.31,0,.39.25.21.5S19.14,2.43,19.05,2.53ZM18.42,3a2.74,2.74,0,0,0-.66.18.59.59,0,0,0-.2.43c0,.17.21.21.36.16a3.15,3.15,0,0,0,.64-.31.34.34,0,0,0,.13-.29C18.66,3,18.51,3,18.42,3Zm-.5-.37a3.1,3.1,0,0,0,.53-.16,1.74,1.74,0,0,0,.38-.29s0-.13,0-.15a.69.69,0,0,0-.69.15Z"/><path class="cls-4" d="M28.84,4.17c-.36,0-.47-.16-.37-.42.18-.48.37-1,.56-1.43a1,1,0,0,1,1.15-.67,3,3,0,0,1,.67.15.47.47,0,0,1,.31.72A2.68,2.68,0,0,1,29.58,4C29.3,4.07,29,4.12,28.84,4.17ZM30.38,2v.07a.76.76,0,0,0-.93.58c-.07.23-.18.44-.27.66a1,1,0,0,0,0,.24c.09,0,.2,0,.28,0a3.81,3.81,0,0,0,1.21-.93c.09-.11.19-.23.09-.36A2.08,2.08,0,0,0,30.38,2Z"/><path class="cls-4" d="M7.51,3.69A1.62,1.62,0,0,0,6,4.09a.24.24,0,0,1-.37,0,.2.2,0,0,1,0-.31C6,3.37,6.36,3,6.74,2.54a8,8,0,0,1,.76-.66.68.68,0,0,1,.33-.13.26.26,0,0,1,.32.32c0,.46-.1.92-.16,1.38,0,.15-.07.3-.09.45s-.18.2-.32.18-.11-.17-.09-.27A1,1,0,0,1,7.51,3.69Zm-.7-.44a3.81,3.81,0,0,0,.59,0,.28.28,0,0,0,.19-.16,3.86,3.86,0,0,0,.06-.49A1.09,1.09,0,0,0,6.81,3.25Z"/><path class="cls-4" d="M32.75,3.69A1.7,1.7,0,0,0,31.31,4a.38.38,0,0,1-.26.13c-.22,0-.29-.17-.16-.36a7.21,7.21,0,0,1,.7-.87c.34-.35.7-.67,1.06-1a1.1,1.1,0,0,1,.25-.17c.21-.09.54,0,.5.31-.08.6-.17,1.2-.25,1.8,0,.21-.18.22-.33.19s-.1-.17-.08-.28A.54.54,0,0,1,32.75,3.69Zm.15-1.13a1.08,1.08,0,0,0-.83.69,4.75,4.75,0,0,0,.54,0A.35.35,0,0,0,32.84,3,2.33,2.33,0,0,0,32.9,2.56Z"/><path class="cls-4" d="M5.19,3c-.28,0-.52,0-.75.05a.26.26,0,0,0-.15.14c-.15.28-.28.57-.44.84a.33.33,0,0,1-.23.15c-.21,0-.31-.15-.21-.35.25-.48.51-1,.77-1.44a6.32,6.32,0,0,1,.33-.56c.06-.09.16-.22.22-.21s.19.14.27.2l-.46.83c.28,0,.51,0,.74-.06a.25.25,0,0,0,.14-.13c.08-.18.14-.36.22-.54a.31.31,0,0,1,.41-.17.16.16,0,0,1,.07.16,3.46,3.46,0,0,1-.19.54c-.22.48-.46,1-.69,1.44v0c-.09.12-.15.32-.34.24s-.08-.25,0-.38Z"/><path class="cls-4" d="M28,3l-.77.05s-.1.08-.13.13c-.15.28-.28.57-.43.85a.37.37,0,0,1-.25.15c-.21,0-.3-.16-.19-.37.25-.48.51-.95.77-1.43.1-.19.21-.37.32-.55s.3-.3.48,0l-.45.8c.29,0,.52,0,.75-.06a.25.25,0,0,0,.13-.12c.08-.18.15-.37.22-.55a.31.31,0,0,1,.41-.17.17.17,0,0,1,.08.16,3.35,3.35,0,0,1-.19.53c-.23.49-.47,1-.7,1.45a.08.08,0,0,1,0,0c-.09.11-.15.31-.34.22s-.06-.25,0-.37S27.91,3.28,28,3Z"/><path class="cls-4" d="M10.18,1.53a4.25,4.25,0,0,1,.66.21c.33.18.36.42.1.69a3.65,3.65,0,0,1-1.63.93.59.59,0,0,0-.29.2c-.13.16-.21.35-.33.52a.28.28,0,0,1-.44,0c-.1-.11-.14-.18,0-.33a3.46,3.46,0,0,0,.46-.67,7.27,7.27,0,0,0,.35-.75.63.63,0,0,0,0-.31.28.28,0,0,1,.22-.31C9.61,1.67,9.89,1.61,10.18,1.53Zm.55.55a1,1,0,0,0-1,0,1.44,1.44,0,0,0-.44.77A2.11,2.11,0,0,0,10.73,2.08Z"/><path class="cls-4" d="M12.82,1.53a4.92,4.92,0,0,1,.65.21c.32.18.36.42.1.69a3.6,3.6,0,0,1-1.66.93.49.49,0,0,0-.25.18c-.13.17-.22.36-.34.53a.27.27,0,0,1-.45,0c-.1-.1-.13-.17,0-.31a2.94,2.94,0,0,0,.45-.64c.14-.25.25-.53.37-.8a.44.44,0,0,0,.05-.22.35.35,0,0,1,.32-.42C12.3,1.65,12.55,1.6,12.82,1.53Zm.52.56a1,1,0,0,0-.88,0c-.3.15-.36.49-.51.81A2.08,2.08,0,0,0,13.34,2.09Z"/><path class="cls-4" d="M20.51,3.66l.47,0c0,.31-.11.42-.4.45l-.59,0-.62.07c.05-.13.08-.24.12-.35a.22.22,0,0,1,.26-.16.28.28,0,0,0,.33-.17c.22-.43.45-.84.69-1.3h-.69c.09-.42.24-.55.66-.56s.6,0,.9,0,.21.14.22.26,0,.3-.17.28c-.41,0-.55.24-.69.53S20.69,3.32,20.51,3.66Z"/><path class="cls-4" d="M13.58,3.89c.22-.32.42-.62.63-.91.07-.09,0-.16,0-.26a5.45,5.45,0,0,1-.33-.58.37.37,0,0,1,0-.25.48.48,0,0,1,.2-.2s.12.08.16.14l.4.71.76-.81a.67.67,0,0,1,.25-.19.41.41,0,0,1,.29,0c.12.09.08.22,0,.32a.5.5,0,0,1-.15.14,4.15,4.15,0,0,0-1.11,1.1c-.22.28-.44.58-.65.88s-.2.21-.33,0Z"/><path class="cls-4" d="M33.41,3.89c.22-.32.42-.62.63-.91a.2.2,0,0,0,0-.26,4.13,4.13,0,0,1-.33-.58.33.33,0,0,1,0-.27.46.46,0,0,1,.22-.19.52.52,0,0,1,.13.15c.14.23.27.47.4.71l.76-.81a.86.86,0,0,1,.27-.2.39.39,0,0,1,.28,0,.19.19,0,0,1,0,.3.81.81,0,0,1-.16.16,4,4,0,0,0-1.11,1.1c-.23.28-.44.58-.65.88s-.21.21-.34,0A.8.8,0,0,1,33.41,3.89Z"/></g></g></svg>