<svg xmlns="http://www.w3.org/2000/svg" viewBox="0 0 38.55 24.66"><defs><style>.cls-1{isolation:isolate;}.cls-2{opacity:0.15;}.cls-2,.cls-3{mix-blend-mode:multiply;}.cls-4{fill:#fff;}</style></defs><title>convert-CUSTOMIZE-SVG-03</title><g class="cls-1"><g id="Layer_1" data-name="Layer 1"><g class="cls-2"><path d="M18.3,18.1c-.08.07-.2.13-.24.21s-.18.46-.27.69a2.39,2.39,0,0,1-1.15,1.11.54.54,0,0,1-.41,0,.3.3,0,0,0-.38.07c-.16.19-.3.39-.45.59l-.9,1.17a2.58,2.58,0,0,1-.34.32c-.37.28-.71.26-.93-.15a11.35,11.35,0,0,1-.56-1.4c-.09-.24-.13-.49-.21-.73-.14-.46-.28-.5-.65-.2s-.47.41-.72.6a3.45,3.45,0,0,1-.5.35.62.62,0,0,1-.81-.14c-.15-.15-.28-.32-.43-.47s-.38-.21-.55,0a10.44,10.44,0,0,0-.58,1c-.1.2-.18.41-.27.62a.63.63,0,0,1-1,.19,1.33,1.33,0,0,1-.3-.53A2.72,2.72,0,0,0,5.52,20l-.44-.32a.62.62,0,0,0-.89,0c-.36.29-.67.64-1,1a5.25,5.25,0,0,1-.42.4.63.63,0,0,1-.91-.1,1.27,1.27,0,0,1-.21-.29,4.19,4.19,0,0,1-.55-2.33l0,.13,0,.1c.12.37.24.74.39,1.1a1.58,1.58,0,0,0,.27.42.64.64,0,0,0,1,.1,4.64,4.64,0,0,0,.39-.38c.28-.28.55-.59.85-.85a.75.75,0,0,1,1.15,0l.36.27a2.72,2.72,0,0,1,1,1.44,1.69,1.69,0,0,0,.26.52A.66.66,0,0,0,8,20.91a8.54,8.54,0,0,1,.62-1.34c.33-.6.53-.6,1-.08s.75.6,1.36.15c.32-.25.62-.52.93-.77s.46-.2.58.18.25.91.4,1.36a4,4,0,0,0,.35.79c.28.45.62.51,1,.15a12.84,12.84,0,0,0,1-1.11c.22-.27.39-.57.6-.84a.35.35,0,0,1,.51-.14.48.48,0,0,0,.52-.07,2.35,2.35,0,0,0,1.13-1.36,1.46,1.46,0,0,1,.18-.43s.1-.08.15-.11.1.11.1.16c0,.23,0,.47,0,.7Z"/><path d="M10.45,11.38c.33,0,.42.14.38.39a6.88,6.88,0,0,0-.1.9c0,1.24,0,2.48-.06,3.72,0,.06,0,.11,0,.17-.23,0-.45,0-.66,0a5,5,0,0,0-.64.11c0-.12,0-.26,0-.4,0-1.36,0-2.72,0-4.08a3.27,3.27,0,0,0,0-.44c0-.21.06-.29.33-.24a2,2,0,0,0-.15.18.2.2,0,0,0,0,.15.7.7,0,0,0,.79.21,3.47,3.47,0,0,0,.33-.18c.14-.11.11-.22,0-.3S10.51,11.48,10.45,11.38Z"/><path d="M4.65,11.53l-.2.23a.65.65,0,0,0,.68.36,2.18,2.18,0,0,0,.43-.22c.17-.11.15-.23,0-.32s-.07-.1-.11-.17c.27,0,.39,0,.37.24-.19,1.55,0,3.1-.11,4.64a2.29,2.29,0,0,1,0,.25c-.47-.2-.87,0-1.3.16,0,0,0-.06,0-.09,0-1.4,0-2.8,0-4.21,0-.2,0-.4-.05-.6S4.35,11.46,4.65,11.53Z"/><path d="M15.21,11.54V11.4c.24,0,.36,0,.33.28-.21,1.63-.08,3.27-.15,4.9,0,.05,0,.1,0,.19-.41-.17-.82-.41-1.25-.05V14.41c0-.66,0-1.31,0-2a4.76,4.76,0,0,0-.06-.65c0-.24,0-.32.32-.28l-.17.28a.63.63,0,0,0,.76.29,1.68,1.68,0,0,0,.3-.15.72.72,0,0,0,.16-.25S15.29,11.59,15.21,11.54Z"/><path d="M8.43,6a.5.5,0,0,1,0-.14c.15-.42.29-.83.43-1.24a.47.47,0,0,1,.42-.36,2.09,2.09,0,0,1,.5,0c.24,0,.35.21.21.39a.8.8,0,0,0-.11.85A.42.42,0,0,1,9.68,6a4.83,4.83,0,0,1-.81.35C8.61,6.45,8.43,6.28,8.43,6Zm.41-.13A.17.17,0,0,0,9.05,6a.67.67,0,0,0,.5-.36.16.16,0,0,0-.09-.25A.5.5,0,0,0,8.84,5.84Zm.83-1.31c-.38-.12-.52.06-.54.45C9.47,4.93,9.63,4.8,9.67,4.53Z"/><path d="M12.28,6.36c-.16-.19-.27-.35-.41-.49s-.25-.09-.33.07a2.42,2.42,0,0,1-.18.36s-.12,0-.18.07-.08-.17,0-.22a3.06,3.06,0,0,0,.47-1.27.25.25,0,0,1,.11-.14.66.66,0,0,1,.82,0,.2.2,0,0,0,.17,0c.23,0,.47-.1.7-.13s.22-.06.24.11,0,.22-.18.22a.4.4,0,0,0-.4.31c-.09.28-.17.55-.27.83,0,.08-.09.15-.13.23l-.1,0a.75.75,0,0,1,0-.26c.1-.33.21-.66.32-1a.54.54,0,0,0-.45.18,3.49,3.49,0,0,1-.44.41C12.15,5.87,12.49,6,12.28,6.36Zm-.57-.91a.68.68,0,0,0,.65-.5C12,4.8,11.84,4.94,11.71,5.45Z"/><path d="M5.12,9a2.06,2.06,0,0,1-.07,2.67,1.67,1.67,0,0,1-.34-1.17A7.85,7.85,0,0,1,5,9.5C5,9.35,5.07,9.2,5.12,9Z"/><path d="M2.17,5.39a3.15,3.15,0,0,0-.46,0c-.05,0-.1.09-.13.14-.09.22-.16.45-.26.67,0,.06-.12.09-.19.13S1,6.19,1,6.13c.25-.63.52-1.25.78-1.87l0-.07c.24.12.2.26.11.43a4.9,4.9,0,0,0-.18.46,2.61,2.61,0,0,0,.42,0,.21.21,0,0,0,.13-.13,2.92,2.92,0,0,0,.13-.42c0-.13.11-.21.24-.16s.08.15.06.22c-.1.33-.22.65-.34,1s-.14.45-.23.66-.13.12-.2.18A.8.8,0,0,1,2,6.1C2,5.87,2.09,5.65,2.17,5.39Z"/><path d="M2.58,11a1.79,1.79,0,0,1-.2-.28.32.32,0,0,1,0-.27.35.35,0,0,1,.26-.13.37.37,0,0,1,.2.22,2.68,2.68,0,0,1,0,.42c.13-.11.25-.23.39-.33s.33-.1.39,0a.26.26,0,0,1-.15.35c-.16.08-.33.13-.5.2l.37.19c.11.06.2.15.09.29a.21.21,0,0,1-.34.06,3.7,3.7,0,0,1-.32-.35,1.63,1.63,0,0,1,0,.39c0,.08-.12.19-.18.2s-.27-.1-.23-.25a2.39,2.39,0,0,1,.18-.44,3,3,0,0,1-.36.06c-.12,0-.24,0-.23-.15a.32.32,0,0,1,.18-.24A1.63,1.63,0,0,1,2.58,11Z"/><path d="M10.05,11.78a2.24,2.24,0,0,1,.08-2.39,3,3,0,0,1,.27,1.9A2,2,0,0,1,10.05,11.78Z"/><path d="M16,5.17a1.59,1.59,0,0,1-.91,1.09,1.77,1.77,0,0,1-.46.07,3.59,3.59,0,0,1,0-.47c.08-.3.18-.6.28-.9a.54.54,0,0,1,.62-.28C15.87,4.74,16,4.88,16,5.17Zm-1.1.76L15,6a.67.67,0,0,0,.17-.08,6.82,6.82,0,0,0,.53-.55c.1-.11.16-.24,0-.37a.37.37,0,0,0-.46.08A9.07,9.07,0,0,0,14.91,5.93Z"/><path d="M16.85,6a.71.71,0,0,0-.73.25s-.1,0-.16.07-.07-.12-.07-.18A.36.36,0,0,1,16,6l.86-1.15a.36.36,0,0,1,.27-.1c.05,0,.1.16.1.25,0,.39-.08.78-.14,1.17,0,.05-.08.09-.12.14a1.09,1.09,0,0,1-.08-.15A.55.55,0,0,1,16.85,6Zm.07-.75-.07,0-.37.49C16.91,5.76,17,5.69,16.92,5.29Z"/><path d="M3.34,6a.7.7,0,0,0-.68.26s-.1,0-.15.07-.07-.12-.07-.18A.56.56,0,0,1,2.53,6c.27-.37.54-.74.82-1.1.06-.07.19-.08.29-.12A1.13,1.13,0,0,1,3.73,5c0,.35-.07.7-.11,1,0,.09,0,.25-.15.22S3.4,6.16,3.34,6Zm.09-.83L3,5.72C3.44,5.77,3.53,5.67,3.43,5.2Z"/><path d="M15,9.83a2.62,2.62,0,0,1,.06,1.81c-.06.17-.16.19-.31.09a.6.6,0,0,1-.29-.72c.14-.41.31-.8.47-1.19Z"/><path d="M14.05,5.33c.4,0,.41,0,.51-.33,0-.11,0-.32.22-.26s.05.23,0,.33c-.12.38-.26.76-.4,1.13,0,.07-.11.11-.17.16a.9.9,0,0,1,0-.23c0-.17.11-.33.16-.5-.36-.08-.42,0-.53.28a1.77,1.77,0,0,1-.15.38s-.09.06-.14.08a.89.89,0,0,1-.08-.17s0,0,0,0c.21-.51.42-1,.63-1.54.19.1.19.2.11.34S14.11,5.19,14.05,5.33Z"/><path d="M5.25,5a.44.44,0,0,1-.1.19,5.83,5.83,0,0,1-.74.57.56.56,0,0,0-.28.29A.91.91,0,0,1,4,6.28s-.13.06-.19.09-.07-.18,0-.23A3.25,3.25,0,0,0,4.24,4.9v0c0-.15.34-.29.59-.26A.43.43,0,0,1,5.25,5ZM5,5,5,4.9c-.13,0-.32,0-.4,0a2,2,0,0,0-.28.5A.85.85,0,0,0,5,5Z"/><path d="M6.18,4.62a.45.45,0,0,1,.44.24.34.34,0,0,1-.14.43,3.67,3.67,0,0,1-.68.49.46.46,0,0,0-.26.27.77.77,0,0,1-.12.24s-.12.06-.18.08-.07-.17,0-.23c.12-.33.27-.64.41-1a.36.36,0,0,0,0-.1C5.67,4.76,5.84,4.62,6.18,4.62ZM6.45,5c-.4-.16-.6,0-.67.52A1,1,0,0,0,6.45,5Z"/><path d="M9,2.16a2,2,0,0,1,.3-.22c.07,0,.18,0,.28,0s0,.2-.11.25a2,2,0,0,1-.39.16,1.28,1.28,0,0,1,.26.16c0,.05,0,.15.08.22s-.21.07-.28,0S9,2.65,9,2.54a1.09,1.09,0,0,1,0,.28c0,.07-.11.12-.17.17s-.15-.16-.14-.24.09-.19.15-.29a.92.92,0,0,1-.28,0c-.07,0-.12-.08-.19-.13s.1-.15.17-.17a.61.61,0,0,1,.24,0,2,2,0,0,1-.06-.43.39.39,0,0,1,.21-.06A3.57,3.57,0,0,1,9,2.16Z"/><path d="M11.93,9.53a1,1,0,0,1-.28,0c-.06,0-.12-.08-.18-.12s.09-.17.16-.19a.6.6,0,0,1,.24,0,3.12,3.12,0,0,1,0-.44A.42.42,0,0,1,12,8.79c.07.14.12.3.18.45A2.5,2.5,0,0,1,12.5,9c.1-.07.24-.1.29,0a.32.32,0,0,1-.11.25,2.42,2.42,0,0,1-.39.16.88.88,0,0,1,.27.16s0,.15.07.22-.2.07-.26,0a1.09,1.09,0,0,1-.24-.27.85.85,0,0,1,0,.29c0,.06-.1.11-.15.16s-.16-.15-.16-.23S11.87,9.65,11.93,9.53Z"/><path d="M17,3.31a2.22,2.22,0,0,1-.06-.43s.2-.08.21-.07.13.31.2.46a1.72,1.72,0,0,1,.23-.2c.11-.07.25-.15.34,0s-.06.23-.17.28a2.23,2.23,0,0,1-.34.12l.27.15c.09.06.18.15.07.23a.32.32,0,0,1-.27,0c-.09,0-.14-.15-.22-.26a.79.79,0,0,1,0,.28c0,.07-.11.17-.16.16a.17.17,0,0,1-.16-.24,1.64,1.64,0,0,1,.16-.28,1.27,1.27,0,0,1-.26,0,.92.92,0,0,1-.21-.13c.06-.06.12-.16.19-.18A.39.39,0,0,1,17,3.31Z"/><path d="M7.67,10.11a2,2,0,0,1,.26.14c.09.05.17.12.08.23a.18.18,0,0,1-.29,0c-.07-.07-.13-.16-.21-.26a1.17,1.17,0,0,1,0,.29c0,.07-.1.11-.15.17s-.17-.16-.17-.23a1,1,0,0,1,.15-.31.72.72,0,0,1-.25,0c-.07,0-.18-.06-.2-.12s.07-.19.19-.19a1.05,1.05,0,0,1,.21,0c0-.15,0-.29-.06-.44a.43.43,0,0,1,.22-.06c.07.15.12.3.18.45l.28-.22c.1-.06.24-.1.29,0a.29.29,0,0,1-.11.25A1.57,1.57,0,0,1,7.67,10.11Z"/><path d="M10.64,5H10.3c0-.31.09-.37.4-.37H11c.12,0,.21,0,.21.16s0,.23-.19.23a.19.19,0,0,0-.13.07L10.49,6h.24a.26.26,0,0,1-.27.31l-.52.06c0-.16,0-.31.21-.34a.12.12,0,0,0,.1-.07C10.38,5.67,10.5,5.37,10.64,5Z"/><path d="M3.88,12.88l0,.23-3,.78c-.06-.1-.06-.17.09-.21Z"/><path d="M17.45,4.67l.26.59.56-.73c.17.11.18.23.08.31a6.1,6.1,0,0,0-1,1.53c-.11-.1-.18-.19-.06-.32l.08-.13a.66.66,0,0,0,0-.79C17.31,5,17.23,4.82,17.45,4.67Z"/><path d="M6.83,4.68l.25.58.57-.73c.18.11.17.24.07.32a5.84,5.84,0,0,0-1,1.52c-.12-.1-.16-.19-.06-.32s0,0,0,0c.18-.29.34-.57.1-.92C6.68,5,6.61,4.79,6.83,4.68Z"/><path d="M8.79,12.45c0,.05-.08.14-.13.15L6,12.79c.06-.09.09-.19.14-.19.87-.09,1.75-.16,2.62-.23Z"/><path d="M13.9,16.55l-.05.34c.24,0,.48-.11.74-.13a1.36,1.36,0,0,1,.37.1l.29.06a.83.83,0,0,0,.15,0c.23,0,.46,0,.28-.34,0,0,0,0,0-.06l.07-.08a2.59,2.59,0,0,1,.1.4c0,.17-.06.28-.26.28a1.12,1.12,0,0,0-.31.05.47.47,0,0,1-.41-.08,1,1,0,0,0-.93.06,1.16,1.16,0,0,1-.22.06,1.09,1.09,0,0,1,0-.25,2.38,2.38,0,0,1,.11-.38Z"/><path d="M15.88,13.26v-.21l1.85.49.45.14c.15,0,.15.11.09.23Z"/><path d="M11.14,12.62v-.18s.07,0,.1,0c.74.07,1.49.13,2.23.21.06,0,.1.09.15.14l0,.06Z"/><path d="M9,16.37c.21.53.57.55,1,.43s.62-.15.93-.22c0,0,.07,0,.11,0a.38.38,0,0,1-.36.31c-.36.07-.73.13-1.09.17a.74.74,0,0,1-.66-.52A.74.74,0,0,1,9,16.37Z"/><path d="M4.07,16.53c.21.36.25.37.62.27a4.83,4.83,0,0,1,.62-.12A1.18,1.18,0,0,0,6,16.47a.27.27,0,0,1-.25.37c-.41.09-.84.17-1.26.24A.52.52,0,0,1,4,16.64S4,16.58,4.07,16.53Z"/><path d="M12.92,10.3l.48-.1.12.58C13,10.89,13,10.88,12.92,10.3Z"/><path d="M5.16,2.66l-.24-.4L5.43,2l.25.4Z"/><path d="M12.57,3.08l-.23-.4.51-.29.24.4Z"/><path d="M2.25,8.27,2.77,8,3,8.38l-.52.29Z"/><path d="M17.51,8.41l.24.4-.52.29L17,8.69Z"/><path d="M3.27,14.12l.51-.29.24.4-.51.29Z"/><path d="M10.21,7.79l-.52.29-.24-.4L10,7.39Z"/><path d="M12.93,15.13l.51-.28.24.4-.52.29Z"/><path d="M3.49,3.08l.29.08-.06.23L3.43,3.3Z"/><path d="M16.34,15.33l-.29-.08.07-.23.29.09Z"/><path d="M12.57,7.79l.08-.22.28.08-.06.23Z"/><path d="M5.73,8.24l-.06.23-.29-.08.06-.23Z"/><path d="M1.8,1.72l.29.09L2,2,1.73,2Z"/><path d="M15.52,2.57l.29.08-.06.23-.29-.09Z"/><path d="M6.69,14.31l-.3-.08L6.46,14l.29.08Z"/><path d="M18.5,18.3c-.08.07-.2.12-.24.21s-.18.46-.27.69a2.32,2.32,0,0,1-1.15,1.1.61.61,0,0,1-.42,0,.29.29,0,0,0-.38.07l-.44.58-.9,1.18a2.15,2.15,0,0,1-.35.32c-.36.28-.7.26-.92-.15a13.23,13.23,0,0,1-.57-1.4c-.08-.24-.13-.49-.2-.73-.14-.46-.28-.5-.65-.2s-.47.41-.72.6a3.16,3.16,0,0,1-.5.34.61.61,0,0,1-.81-.13c-.15-.15-.28-.32-.43-.47s-.38-.21-.55,0a10.44,10.44,0,0,0-.58,1c-.11.2-.18.41-.27.62a.64.64,0,0,1-1.05.19,1.44,1.44,0,0,1-.29-.53,2.72,2.72,0,0,0-1.09-1.49c-.15-.1-.29-.22-.44-.33a.63.63,0,0,0-.89,0c-.36.29-.67.64-1,1a3.78,3.78,0,0,1-.41.39.62.62,0,0,1-.91-.09,1.54,1.54,0,0,1-.21-.29,4.21,4.21,0,0,1-.55-2.34.93.93,0,0,0,.05.14.38.38,0,0,0,0,.1c.12.37.24.74.38,1.09a1.77,1.77,0,0,0,.28.43.63.63,0,0,0,1,.1,3.59,3.59,0,0,0,.4-.38c.28-.29.55-.59.85-.86a.75.75,0,0,1,1.15,0l.35.26A2.75,2.75,0,0,1,6.8,20.76a1.69,1.69,0,0,0,.26.52.66.66,0,0,0,1.11-.17,10.85,10.85,0,0,1,.62-1.34c.34-.6.54-.6,1-.08s.75.6,1.36.14c.32-.24.62-.51.93-.76s.46-.2.58.18.25.91.39,1.36a4.68,4.68,0,0,0,.36.79c.27.45.62.51,1,.15a11.44,11.44,0,0,0,1-1.11c.21-.27.39-.57.6-.85a.35.35,0,0,1,.51-.13.5.5,0,0,0,.52-.07A2.38,2.38,0,0,0,18.12,18a1.61,1.61,0,0,1,.17-.43c0-.05.11-.08.16-.12s.1.11.1.17c0,.23,0,.46,0,.7Z"/><path d="M10.65,11.58c.33,0,.41.14.38.39a6.88,6.88,0,0,0-.1.9c0,1.24,0,2.48-.06,3.72,0,.06,0,.11,0,.17-.23,0-.45,0-.67,0s-.41.08-.63.12c0-.12,0-.26,0-.4,0-1.36,0-2.72.05-4.08,0-.15,0-.29,0-.44s.05-.29.33-.24a1.09,1.09,0,0,0-.15.18.2.2,0,0,0,0,.15.68.68,0,0,0,.78.21,1.86,1.86,0,0,0,.34-.19c.14-.11.11-.21,0-.29S10.71,11.68,10.65,11.58Z"/><path d="M4.85,11.72l-.2.23a.66.66,0,0,0,.68.37,2.89,2.89,0,0,0,.43-.22c.17-.11.14-.23,0-.32s-.07-.1-.11-.17c.27,0,.39,0,.37.24-.19,1.54,0,3.1-.11,4.64a2.29,2.29,0,0,1,0,.25c-.47-.21-.87,0-1.3.16,0,0,0-.06,0-.09V12.6c0-.2,0-.4,0-.61S4.55,11.66,4.85,11.72Z"/><path d="M15.41,11.74V11.6c.24,0,.35.05.33.28-.21,1.63-.08,3.27-.15,4.9l0,.19c-.41-.17-.81-.41-1.24,0V14.61c0-.66,0-1.32,0-2,0-.22,0-.44-.06-.65s0-.32.32-.29l-.17.29a.62.62,0,0,0,.76.29,1.68,1.68,0,0,0,.3-.15.64.64,0,0,0,.15-.25S15.49,11.79,15.41,11.74Z"/><path d="M8.63,6.17a.64.64,0,0,1,0-.15c.14-.41.29-.82.43-1.24a.46.46,0,0,1,.42-.35,2.09,2.09,0,0,1,.5,0c.24,0,.35.21.21.39a.8.8,0,0,0-.11.85.42.42,0,0,1-.24.55,5.11,5.11,0,0,1-.8.35C8.81,6.65,8.63,6.48,8.63,6.17ZM9,6a.16.16,0,0,0,.21.14.66.66,0,0,0,.5-.35.17.17,0,0,0-.09-.26A.5.5,0,0,0,9,6Zm.83-1.31c-.38-.13-.52.06-.54.45C9.67,5.13,9.83,5,9.87,4.73Z"/><path d="M12.48,6.56c-.16-.19-.27-.35-.41-.49s-.25-.09-.33.07-.11.25-.18.36-.12,0-.18.07-.08-.17-.05-.22a3.06,3.06,0,0,0,.47-1.27.27.27,0,0,1,.11-.15.68.68,0,0,1,.82.05.23.23,0,0,0,.16,0c.24,0,.47-.1.71-.13s.22-.06.24.11,0,.22-.18.22a.4.4,0,0,0-.4.31L13,6.35a1.16,1.16,0,0,1-.14.24l-.09,0a1.13,1.13,0,0,1,0-.26l.33-1a.53.53,0,0,0-.45.17,2.94,2.94,0,0,1-.44.42C12.35,6.07,12.69,6.2,12.48,6.56Zm-.57-.91a.7.7,0,0,0,.65-.5C12.22,5,12,5.14,11.91,5.65Z"/><path d="M5.32,9.24a2.06,2.06,0,0,1-.07,2.67,1.67,1.67,0,0,1-.34-1.17,7.85,7.85,0,0,1,.25-1C5.2,9.54,5.27,9.39,5.32,9.24Z"/><path d="M2.37,5.59a3.15,3.15,0,0,0-.46,0,.23.23,0,0,0-.13.14c-.09.22-.16.45-.26.67,0,.06-.13.09-.19.13s-.12-.18-.1-.24c.25-.63.51-1.25.78-1.87l0-.07c.24.12.2.26.11.43S2,5.11,2,5.28a2.74,2.74,0,0,0,.43,0,.21.21,0,0,0,.13-.13c0-.14.09-.28.13-.42s.11-.21.24-.17.07.16,0,.23c-.1.32-.22.65-.33,1s-.14.45-.23.66-.13.12-.2.18a.8.8,0,0,1,0-.26C2.21,6.07,2.29,5.84,2.37,5.59Z"/><path d="M2.78,11.16a1.31,1.31,0,0,1-.2-.28.32.32,0,0,1,0-.27.35.35,0,0,1,.26-.13A.33.33,0,0,1,3,10.7a1.42,1.42,0,0,1,0,.42c.14-.11.26-.24.4-.33s.33-.1.39,0a.26.26,0,0,1-.15.35l-.5.2.37.19c.11.06.19.15.09.29a.22.22,0,0,1-.35.06A3.66,3.66,0,0,1,3,11.56,1.63,1.63,0,0,1,3,12c0,.08-.12.19-.19.19a.2.2,0,0,1-.22-.24,2.14,2.14,0,0,1,.18-.44,2.86,2.86,0,0,1-.37.06c-.11,0-.24,0-.22-.15a.32.32,0,0,1,.18-.24A1.33,1.33,0,0,1,2.78,11.16Z"/><path d="M10.25,12a2.24,2.24,0,0,1,.08-2.39,2.88,2.88,0,0,1,.26,1.9A1.89,1.89,0,0,1,10.25,12Z"/><path d="M16.2,5.37a1.55,1.55,0,0,1-.9,1.09,1.77,1.77,0,0,1-.46.07,2.42,2.42,0,0,1,0-.47c.08-.3.18-.61.28-.91a.54.54,0,0,1,.62-.27C16.07,4.93,16.21,5.08,16.2,5.37Zm-1.09.76.06,0a.34.34,0,0,0,.17-.08,5.39,5.39,0,0,0,.53-.54c.1-.11.16-.25,0-.37a.36.36,0,0,0-.46.07C15.3,5.54,15.21,5.84,15.11,6.13Z"/><path d="M17.05,6.24a.73.73,0,0,0-.74.25s-.1,0-.15.07-.07-.12-.07-.18a.36.36,0,0,1,.07-.17c.28-.39.56-.78.86-1.15a.33.33,0,0,1,.27-.1s.1.16.1.24c0,.4-.08.79-.14,1.18,0,0-.08.09-.12.13a.64.64,0,0,1-.08-.14A.55.55,0,0,1,17.05,6.24Zm.07-.75-.07,0-.38.49C17.1,6,17.17,5.88,17.12,5.49Z"/><path d="M3.54,6.23a.69.69,0,0,0-.68.26s-.1,0-.15.07a.45.45,0,0,1-.07-.18.56.56,0,0,1,.09-.21c.27-.37.54-.74.82-1.1C3.61,5,3.74,5,3.84,5a1,1,0,0,1,.09.28c0,.35-.07.7-.11,1,0,.09,0,.25-.15.22S3.59,6.35,3.54,6.23Zm.09-.83-.41.52C3.64,6,3.73,5.87,3.63,5.4Z"/><path d="M15.21,10a2.65,2.65,0,0,1,.06,1.82c-.07.17-.16.18-.31.09a.6.6,0,0,1-.29-.72c.14-.41.31-.8.47-1.2Z"/><path d="M14.25,5.53c.4,0,.4,0,.51-.33,0-.12,0-.32.22-.26s0,.23,0,.33c-.12.38-.26.76-.41,1.13,0,.07-.1.11-.16.16a.62.62,0,0,1,0-.23,4.83,4.83,0,0,1,.16-.5c-.36-.08-.42,0-.53.28a2,2,0,0,1-.15.37s-.09.06-.14.09l-.09-.17s0,0,0,0l.63-1.54c.19.1.19.2.11.34A2.59,2.59,0,0,0,14.25,5.53Z"/><path d="M5.45,5.21s0,.14-.1.19A6.63,6.63,0,0,1,4.61,6a.55.55,0,0,0-.28.28.82.82,0,0,1-.11.23s-.13.06-.19.09S4,6.39,4,6.34A3.25,3.25,0,0,0,4.44,5.1v0c0-.16.34-.29.59-.26A.43.43,0,0,1,5.45,5.21Zm-.22,0,0-.08c-.13,0-.32,0-.4.05a2.43,2.43,0,0,0-.29.5A.87.87,0,0,0,5.23,5.18Z"/><path d="M6.37,4.81a.46.46,0,0,1,.44.25.35.35,0,0,1-.13.43A3.67,3.67,0,0,1,6,6a.47.47,0,0,0-.26.26,1,1,0,0,1-.12.25s-.12.06-.18.08-.07-.17-.05-.23c.13-.33.28-.65.42-1,0,0,0-.07,0-.1C5.87,5,6,4.82,6.37,4.81Zm.28.35c-.4-.16-.6,0-.67.52A1,1,0,0,0,6.65,5.16Z"/><path d="M9.24,2.36a1.23,1.23,0,0,1,.3-.22c.07,0,.18,0,.27,0s0,.21-.11.26a2.29,2.29,0,0,1-.38.16,1.64,1.64,0,0,1,.26.16c.05,0,.05.14.08.22S9.45,3,9.38,3s-.14-.15-.23-.26a1.09,1.09,0,0,1,0,.28c0,.07-.11.11-.17.17S8.8,3,8.8,3s.1-.19.15-.3a.63.63,0,0,1-.27,0c-.07,0-.13-.08-.19-.13s.1-.16.17-.18a.72.72,0,0,1,.23,0A3,3,0,0,1,8.84,2a.39.39,0,0,1,.21-.06A3.57,3.57,0,0,1,9.24,2.36Z"/><path d="M12.13,9.73a1,1,0,0,1-.28,0c-.06,0-.12-.08-.18-.12s.09-.17.16-.19a.6.6,0,0,1,.24,0A3.12,3.12,0,0,1,12,9,.56.56,0,0,1,12.23,9a2.92,2.92,0,0,1,.18.46l.29-.23c.1-.06.24-.09.28,0s0,.2-.11.25a2.29,2.29,0,0,1-.38.16.88.88,0,0,1,.27.16c.05.05.05.14.07.22s-.2.07-.26,0a1.09,1.09,0,0,1-.24-.27.88.88,0,0,1,0,.29c0,.06-.1.1-.15.16S12,10.11,12,10,12.07,9.84,12.13,9.73Z"/><path d="M17.2,3.51a2.22,2.22,0,0,1-.06-.43s.2-.09.21-.08.13.31.19.47c.06-.05.14-.13.24-.2s.25-.15.34,0-.06.23-.18.28a3,3,0,0,1-.33.12l.27.15c.09.06.17.15.06.23a.3.3,0,0,1-.26,0c-.09,0-.14-.15-.23-.26a1.14,1.14,0,0,1,0,.28c0,.07-.11.17-.16.16A.17.17,0,0,1,17.1,4a1.64,1.64,0,0,1,.16-.28.83.83,0,0,1-.27,0c-.07,0-.13-.08-.2-.12s.11-.16.19-.18A.4.4,0,0,1,17.2,3.51Z"/><path d="M7.87,10.3l.26.15c.09.05.17.12.08.23a.17.17,0,0,1-.29,0,1.38,1.38,0,0,1-.21-.25,1.23,1.23,0,0,1,0,.29.61.61,0,0,1-.16.16c0-.07-.16-.15-.16-.22s.09-.2.15-.31a.72.72,0,0,1-.25,0c-.08,0-.19-.06-.2-.12s.06-.19.19-.19a.85.85,0,0,1,.2,0,3.44,3.44,0,0,1,0-.45s.21-.07.22-.05.12.3.18.45c.07-.05.17-.15.28-.22s.24-.1.29,0a.32.32,0,0,1-.11.25A1.58,1.58,0,0,1,7.87,10.3Z"/><path d="M10.83,5.24H10.5c0-.31.09-.37.39-.37h.28c.12,0,.21,0,.21.16s0,.23-.19.23a.19.19,0,0,0-.13.07c-.13.29-.24.57-.37.88h.24a.26.26,0,0,1-.27.31l-.52.06c0-.16,0-.31.21-.34a.14.14,0,0,0,.1-.07C10.58,5.87,10.7,5.57,10.83,5.24Z"/><path d="M4.08,13.08l0,.23-3,.78c-.06-.1-.05-.18.1-.21Z"/><path d="M17.65,4.87l.25.59.57-.74c.17.11.17.23.08.32a5.76,5.76,0,0,0-1,1.53c-.11-.1-.18-.2-.06-.33a.47.47,0,0,0,.07-.12.65.65,0,0,0,.06-.79C17.51,5.19,17.43,5,17.65,4.87Z"/><path d="M7,4.88l.25.58.56-.73c.19.11.18.23.08.32a5.7,5.7,0,0,0-1,1.51c-.12-.09-.16-.19-.06-.31s0,0,0,0c.18-.29.34-.57.09-.92C6.88,5.17,6.81,5,7,4.88Z"/><path d="M9,12.65s-.08.14-.13.15L6.17,13c.06-.09.09-.19.14-.2l2.62-.23Z"/><path d="M14.09,16.75l0,.34c.24,0,.48-.11.73-.13a1.34,1.34,0,0,1,.38.1,1,1,0,0,0,.29.05c.05,0,.1,0,.15,0,.23,0,.46,0,.27-.34l0-.06L16,16.6a2.34,2.34,0,0,1,.1.4c0,.17-.06.28-.26.28a1.65,1.65,0,0,0-.31,0,.44.44,0,0,1-.41-.07.94.94,0,0,0-.93.06,1.41,1.41,0,0,1-.22.06,1.09,1.09,0,0,1,0-.26c0-.12.07-.25.1-.38Z"/><path d="M16.08,13.45v-.21l1.85.5.44.14c.15,0,.16.11.1.23Z"/><path d="M11.34,12.82v-.18s.07,0,.1,0c.74.06,1.49.13,2.23.21.05,0,.1.09.15.14l0,.06Z"/><path d="M9.2,16.57c.21.53.57.55,1,.43s.63-.15.94-.22a.22.22,0,0,1,.11,0c0,.22-.2.28-.37.31-.36.07-.72.13-1.08.17a.72.72,0,0,1-.66-.52A.74.74,0,0,1,9.2,16.57Z"/><path d="M4.27,16.73c.21.35.25.36.62.27a3.39,3.39,0,0,1,.62-.12,1.26,1.26,0,0,0,.66-.21.29.29,0,0,1-.25.37c-.42.09-.84.17-1.26.23a.51.51,0,0,1-.47-.43S4.23,16.78,4.27,16.73Z"/><path d="M13.12,10.5l.48-.1.12.58C13.24,11.08,13.23,11.08,13.12,10.5Z"/><path d="M5.35,2.86l-.23-.4.51-.29.24.4Z"/><path d="M12.77,3.28l-.24-.4.52-.29.24.4Z"/><path d="M2.45,8.46,3,8.18l.24.4-.52.29Z"/><path d="M17.71,8.6,18,9l-.52.29-.24-.41Z"/><path d="M3.46,14.31,4,14l.24.4-.51.28Z"/><path d="M10.41,8l-.52.29-.24-.4.52-.29Z"/><path d="M13.13,15.33l.51-.28.24.4-.52.28Z"/><path d="M3.69,3.28,4,3.36l-.06.22L3.63,3.5Z"/><path d="M16.54,15.53l-.29-.08.06-.23.3.08Z"/><path d="M12.77,8l.07-.22.29.08-.06.22Z"/><path d="M5.93,8.44l-.06.23-.29-.08.06-.23Z"/><path d="M2,1.92,2.29,2l-.07.23-.29-.09Z"/><path d="M15.72,2.76l.29.09L16,3.07,15.66,3Z"/><path d="M6.88,14.51l-.29-.08.07-.22.29.08Z"/></g><g class="cls-3"><path d="M18.16,18c-.08.07-.2.12-.24.21s-.18.46-.27.69A2.32,2.32,0,0,1,16.5,20a.56.56,0,0,1-.42,0,.3.3,0,0,0-.38.08l-.44.58-.9,1.18a1.73,1.73,0,0,1-.35.31c-.36.29-.7.27-.92-.14a11.4,11.4,0,0,1-.57-1.4c-.08-.24-.13-.49-.2-.73-.14-.46-.28-.5-.65-.2s-.47.41-.72.6a3.16,3.16,0,0,1-.5.34.61.61,0,0,1-.81-.13c-.15-.15-.28-.32-.43-.47s-.38-.21-.55,0a10.44,10.44,0,0,0-.58,1c-.11.2-.18.41-.27.62a.64.64,0,0,1-1,.19,1.44,1.44,0,0,1-.29-.53,2.72,2.72,0,0,0-1.09-1.49c-.15-.1-.29-.22-.44-.33a.63.63,0,0,0-.89,0c-.36.29-.67.64-1,1a3.78,3.78,0,0,1-.41.39.62.62,0,0,1-.91-.09,1.54,1.54,0,0,1-.21-.29A4.21,4.21,0,0,1,1,18.11a.93.93,0,0,0,.05.14.38.38,0,0,0,0,.1c.12.37.24.74.38,1.09a1.77,1.77,0,0,0,.28.43.63.63,0,0,0,1,.1,3.59,3.59,0,0,0,.4-.38c.28-.29.55-.59.85-.86a.75.75,0,0,1,1.15,0L5.4,19a2.75,2.75,0,0,1,1.06,1.45,1.69,1.69,0,0,0,.26.52.66.66,0,0,0,1.11-.17,10.85,10.85,0,0,1,.62-1.34c.34-.6.54-.6,1-.08s.75.6,1.36.14c.32-.24.62-.51.93-.76s.46-.2.58.18.25.91.39,1.36a4,4,0,0,0,.36.79c.27.45.62.51,1,.15a11.44,11.44,0,0,0,1-1.11c.21-.27.39-.57.6-.85a.35.35,0,0,1,.51-.13.5.5,0,0,0,.52-.07,2.38,2.38,0,0,0,1.13-1.36,1.61,1.61,0,0,1,.17-.43c0-.05.11-.08.16-.12s.1.11.1.17c0,.23,0,.46,0,.7Z"/><path d="M10.31,11.24c.33,0,.41.14.38.39a6.88,6.88,0,0,0-.1.9c0,1.24,0,2.48-.06,3.72,0,.06,0,.11,0,.17-.23,0-.45,0-.67,0s-.41.08-.63.12c0-.12,0-.26,0-.4,0-1.36,0-2.72.05-4.08,0-.15,0-.29,0-.44s.05-.29.33-.24a1.09,1.09,0,0,0-.15.18.2.2,0,0,0,0,.15.68.68,0,0,0,.78.21,1.86,1.86,0,0,0,.34-.19c.14-.11.11-.21,0-.29S10.37,11.34,10.31,11.24Z"/><path d="M4.51,11.38l-.2.23A.66.66,0,0,0,5,12a2.89,2.89,0,0,0,.43-.22c.17-.11.14-.23,0-.32s-.07-.1-.11-.17c.27,0,.39,0,.37.24-.19,1.54,0,3.1-.11,4.64a2.29,2.29,0,0,1,0,.25c-.47-.21-.87,0-1.3.16,0,0,0-.06,0-.09V12.26c0-.2,0-.4,0-.61S4.21,11.32,4.51,11.38Z"/><path d="M15.07,11.4v-.14c.24,0,.35.05.33.28-.21,1.63-.08,3.27-.15,4.9l0,.19c-.41-.17-.81-.42-1.24-.05V14.27c0-.66,0-1.32,0-2,0-.22,0-.44-.06-.65s0-.32.32-.29l-.17.29a.62.62,0,0,0,.76.29,1.68,1.68,0,0,0,.3-.15.64.64,0,0,0,.15-.25S15.15,11.45,15.07,11.4Z"/><path d="M8.29,5.83a.64.64,0,0,1,0-.15c.14-.41.29-.82.43-1.24a.46.46,0,0,1,.42-.35,2.09,2.09,0,0,1,.5,0c.24,0,.35.21.21.39a.8.8,0,0,0-.11.85.42.42,0,0,1-.24.55,5.11,5.11,0,0,1-.8.35C8.47,6.31,8.29,6.14,8.29,5.83ZM8.7,5.7a.16.16,0,0,0,.21.14.66.66,0,0,0,.5-.35.16.16,0,0,0-.09-.26A.5.5,0,0,0,8.7,5.7Zm.83-1.31c-.38-.13-.52.06-.54.45C9.33,4.79,9.49,4.66,9.53,4.39Z"/><path d="M12.14,6.22c-.16-.19-.27-.35-.41-.49s-.25-.09-.33.07-.11.25-.18.36-.12,0-.18.07S11,6.06,11,6a3.06,3.06,0,0,0,.47-1.27.27.27,0,0,1,.11-.15.68.68,0,0,1,.82,0,.29.29,0,0,0,.16,0c.24,0,.47-.1.71-.13s.22-.06.24.11,0,.22-.18.22a.4.4,0,0,0-.4.31L12.65,6a1.16,1.16,0,0,1-.14.24l-.09,0a1.13,1.13,0,0,1,0-.26c.1-.34.22-.67.33-1a.53.53,0,0,0-.45.17,3.54,3.54,0,0,1-.44.42C12,5.73,12.35,5.86,12.14,6.22Zm-.57-.91a.7.7,0,0,0,.65-.5C11.88,4.66,11.69,4.8,11.57,5.31Z"/><path d="M5,8.9a2.06,2.06,0,0,1-.07,2.67,1.67,1.67,0,0,1-.34-1.17,7.85,7.85,0,0,1,.25-1C4.86,9.2,4.93,9.05,5,8.9Z"/><path d="M2,5.25a3.15,3.15,0,0,0-.46,0,.23.23,0,0,0-.13.14c-.09.22-.16.45-.26.67,0,.06-.13.09-.19.13S.87,6.05.89,6c.25-.63.51-1.25.78-1.87l0-.07c.24.12.2.26.11.43s-.12.29-.19.46a2.74,2.74,0,0,0,.43,0,.21.21,0,0,0,.13-.13c0-.14.09-.28.13-.42s.11-.21.24-.17.07.16.05.23c-.1.32-.22.65-.33,1S2.13,5.83,2,6s-.13.12-.2.18a.8.8,0,0,1,0-.26C1.87,5.73,2,5.5,2,5.25Z"/><path d="M2.44,10.82a1.31,1.31,0,0,1-.2-.28.32.32,0,0,1,0-.27.32.32,0,0,1,.26-.13.33.33,0,0,1,.19.22,1.42,1.42,0,0,1,0,.42c.14-.11.26-.24.4-.33s.33-.1.39,0a.26.26,0,0,1-.15.35l-.5.2.37.19c.11.06.19.15.09.29a.22.22,0,0,1-.35.06,3.66,3.66,0,0,1-.31-.35,1.63,1.63,0,0,1,0,.39c0,.08-.12.19-.19.19a.2.2,0,0,1-.22-.24,2.14,2.14,0,0,1,.18-.44,2.86,2.86,0,0,1-.37.06c-.11,0-.24,0-.22-.15A.32.32,0,0,1,2,10.79,1.33,1.33,0,0,1,2.44,10.82Z"/><path d="M9.91,11.64A2.24,2.24,0,0,1,10,9.25a2.88,2.88,0,0,1,.26,1.9A1.89,1.89,0,0,1,9.91,11.64Z"/><path d="M15.86,5A1.55,1.55,0,0,1,15,6.12a1.77,1.77,0,0,1-.46.07,2.42,2.42,0,0,1,0-.47c.08-.3.18-.61.28-.91a.52.52,0,0,1,.62-.27C15.73,4.59,15.87,4.74,15.86,5Zm-1.09.76.06,0A.34.34,0,0,0,15,5.75a6.75,6.75,0,0,0,.53-.54c.1-.11.16-.25,0-.37a.36.36,0,0,0-.46.07C15,5.2,14.87,5.5,14.77,5.79Z"/><path d="M16.71,5.9a.73.73,0,0,0-.74.25s-.1,0-.15.07-.07-.12-.07-.18a.36.36,0,0,1,.07-.17c.28-.39.56-.78.86-1.15a.33.33,0,0,1,.27-.1s.1.16.1.24c0,.4-.08.79-.14,1.18,0,0-.08.09-.12.13A.64.64,0,0,1,16.71,6,.55.55,0,0,1,16.71,5.9Zm.07-.75-.07-.05-.38.49C16.76,5.62,16.83,5.54,16.78,5.15Z"/><path d="M3.2,5.89a.69.69,0,0,0-.68.26s-.1,0-.15.07A.45.45,0,0,1,2.3,6a.43.43,0,0,1,.09-.21c.27-.37.54-.74.82-1.1.06-.07.19-.08.29-.12a1,1,0,0,1,.09.28c0,.35-.07.7-.11,1.05,0,.09,0,.25-.15.22S3.25,6,3.2,5.89Zm.09-.83-.41.52C3.3,5.63,3.39,5.53,3.29,5.06Z"/><path d="M14.87,9.68a2.65,2.65,0,0,1,.06,1.82c-.07.17-.16.18-.31.09a.6.6,0,0,1-.29-.72c.14-.41.31-.8.47-1.2Z"/><path d="M13.91,5.19c.4,0,.4,0,.51-.33,0-.12,0-.32.22-.26s0,.23,0,.33c-.12.38-.26.76-.41,1.13,0,.07-.11.11-.16.16a.62.62,0,0,1,0-.23,4.83,4.83,0,0,1,.16-.5c-.36-.08-.42,0-.53.28a2,2,0,0,1-.15.37c0,.05-.09.06-.14.09l-.09-.17s0,0,0,0L14,4.48c.19.1.19.2.11.34A2.59,2.59,0,0,0,13.91,5.19Z"/><path d="M5.11,4.87s0,.14-.1.19a6.63,6.63,0,0,1-.74.57A.55.55,0,0,0,4,5.91a.82.82,0,0,1-.11.23c0,.05-.13.06-.19.09s-.07-.18,0-.23A3.25,3.25,0,0,0,4.1,4.76v0c0-.16.34-.29.59-.26A.43.43,0,0,1,5.11,4.87Zm-.22,0,0-.08c-.13,0-.32,0-.4,0a2.43,2.43,0,0,0-.29.5A.87.87,0,0,0,4.89,4.84Z"/><path d="M6,4.47a.46.46,0,0,1,.44.25.35.35,0,0,1-.13.43,3.67,3.67,0,0,1-.68.49.47.47,0,0,0-.26.26,1.45,1.45,0,0,1-.12.25s-.12.06-.18.08S5,6.06,5.05,6c.13-.33.28-.65.42-1,0,0,0-.07,0-.1C5.53,4.62,5.69,4.48,6,4.47Zm.28.35c-.4-.16-.6,0-.67.52A1,1,0,0,0,6.31,4.82Z"/><path d="M8.9,2a1.06,1.06,0,0,1,.3-.22c.07,0,.18,0,.27,0s0,.21-.11.26A2.29,2.29,0,0,1,9,2.25a1.13,1.13,0,0,1,.26.16s0,.14.08.22-.21.07-.28,0-.14-.15-.23-.26a1.09,1.09,0,0,1,0,.28c0,.07-.11.11-.17.17s-.15-.16-.15-.24.1-.19.15-.3a.63.63,0,0,1-.27,0c-.07,0-.13-.08-.19-.13s.1-.16.17-.18a.72.72,0,0,1,.23,0,3,3,0,0,1-.05-.43.39.39,0,0,1,.21-.06A3.57,3.57,0,0,1,8.9,2Z"/><path d="M11.79,9.39a1,1,0,0,1-.28,0c-.06,0-.12-.08-.18-.12s.09-.17.16-.19a.6.6,0,0,1,.24,0,3.12,3.12,0,0,1-.05-.44.56.56,0,0,1,.21-.06,2.92,2.92,0,0,1,.18.46l.29-.23c.1-.06.24-.09.28.05s0,.2-.11.25a2.29,2.29,0,0,1-.38.16.88.88,0,0,1,.27.16c.05,0,.05.14.07.22s-.2.07-.26,0A1.09,1.09,0,0,1,12,9.48a.88.88,0,0,1,0,.29c0,.06-.1.1-.15.16s-.16-.16-.16-.23S11.73,9.5,11.79,9.39Z"/><path d="M16.86,3.17a2.22,2.22,0,0,1-.06-.43s.2-.09.21-.08.13.31.19.47c.06,0,.14-.13.24-.2s.25-.15.34,0-.06.23-.18.28a3,3,0,0,1-.33.12l.27.15c.09.06.17.15.06.23a.3.3,0,0,1-.26,0c-.09,0-.14-.15-.23-.26a1.14,1.14,0,0,1,0,.28c0,.07-.11.17-.16.16a.17.17,0,0,1-.16-.24,1.64,1.64,0,0,1,.16-.28.83.83,0,0,1-.27,0c-.07,0-.13-.08-.2-.12s.11-.16.19-.18A.4.4,0,0,1,16.86,3.17Z"/><path d="M7.53,10l.26.15c.09.05.17.12.08.23a.17.17,0,0,1-.29,0,1.38,1.38,0,0,1-.21-.25,1.23,1.23,0,0,1,0,.29.61.61,0,0,1-.16.16c0-.07-.16-.15-.16-.22s.09-.2.15-.31a.72.72,0,0,1-.25,0c-.08,0-.19-.06-.2-.12s.06-.19.19-.19l.2,0a3.12,3.12,0,0,1-.05-.44s.21-.07.22-.05.12.3.18.45c.07-.05.17-.15.28-.22s.24-.1.29,0a.32.32,0,0,1-.11.25A1.58,1.58,0,0,1,7.53,10Z"/><path d="M10.49,4.9h-.33c0-.31.09-.37.39-.37h.28c.12,0,.2,0,.21.16s0,.23-.19.23a.19.19,0,0,0-.13.07c-.13.29-.24.57-.37.88h.24a.26.26,0,0,1-.27.31l-.52.06c0-.16,0-.32.21-.34a.14.14,0,0,0,.1-.07C10.24,5.53,10.36,5.23,10.49,4.9Z"/><path d="M3.74,12.74l0,.23-3,.78c-.06-.1-.05-.18.1-.22Z"/><path d="M17.31,4.53l.25.59.57-.74c.17.11.17.23.08.32a5.76,5.76,0,0,0-1,1.53c-.12-.1-.18-.2-.06-.33a.47.47,0,0,0,.07-.12.66.66,0,0,0,.06-.8C17.17,4.85,17.09,4.68,17.31,4.53Z"/><path d="M6.69,4.54l.25.58.56-.73c.19.11.18.23.08.32a5.7,5.7,0,0,0-1,1.51c-.12-.09-.16-.19-.06-.31s0,0,0,0c.18-.29.34-.57.09-.92C6.54,4.83,6.47,4.65,6.69,4.54Z"/><path d="M8.65,12.31s-.08.14-.13.15l-2.69.19c.06-.09.09-.19.14-.2l2.62-.23Z"/><path d="M13.75,16.41l0,.34c.24,0,.48-.11.73-.13s.25.07.38.1a1.35,1.35,0,0,0,.29.05c.05,0,.1,0,.15,0,.23,0,.46,0,.27-.34l0-.06.07-.08a2.34,2.34,0,0,1,.1.4c0,.17-.06.28-.26.28a1.65,1.65,0,0,0-.31,0,.44.44,0,0,1-.41-.07.94.94,0,0,0-.93.06,1.41,1.41,0,0,1-.22.06,1.09,1.09,0,0,1,0-.26c0-.13.07-.25.1-.38Z"/><path d="M15.74,13.11V12.9l1.85.5.44.14c.15,0,.15.11.1.23Z"/><path d="M11,12.48V12.3s.07,0,.1,0c.74.06,1.49.13,2.23.21.05,0,.1.09.15.14l0,.06Z"/><path d="M8.86,16.23c.21.53.57.55,1,.43s.63-.15.94-.22a.22.22,0,0,1,.11,0c0,.22-.2.28-.37.31-.36.07-.72.12-1.08.17a.72.72,0,0,1-.66-.52A.74.74,0,0,1,8.86,16.23Z"/><path d="M3.93,16.39c.21.35.25.36.62.27a3.39,3.39,0,0,1,.62-.12,1.26,1.26,0,0,0,.66-.21.29.29,0,0,1-.25.37c-.42.09-.84.17-1.26.23a.51.51,0,0,1-.47-.43S3.89,16.44,3.93,16.39Z"/><path d="M12.78,10.16l.48-.1.12.58C12.9,10.74,12.89,10.74,12.78,10.16Z"/><path d="M5,2.52l-.23-.4.51-.3.24.41Z"/><path d="M12.43,2.94l-.24-.4.52-.29.24.4Z"/><path d="M2.11,8.12l.52-.28.24.4-.52.29Z"/><path d="M17.37,8.26l.24.41L17.09,9l-.24-.41Z"/><path d="M3.12,14l.52-.28.24.4-.51.28Z"/><path d="M10.07,7.65l-.52.29-.24-.4.51-.29Z"/><path d="M12.79,15l.51-.28.24.4-.52.28Z"/><path d="M3.35,2.94,3.64,3l-.06.22-.29-.08Z"/><path d="M16.2,15.19l-.29-.08.06-.23.3.08Z"/><path d="M12.43,7.65l.07-.22.29.08-.06.22Z"/><path d="M5.59,8.1l-.06.23-.29-.08L5.3,8Z"/><path d="M1.66,1.58,2,1.66l-.07.23L1.59,1.8Z"/><path d="M15.38,2.42l.29.09-.06.22-.29-.08Z"/><path d="M6.54,14.17l-.29-.08.07-.23.29.09Z"/></g><path class="cls-4" d="M18.35,18.16c-.08.07-.19.12-.23.21s-.18.46-.27.69a2.32,2.32,0,0,1-1.15,1.1.56.56,0,0,1-.42,0,.31.31,0,0,0-.38.07c-.16.19-.3.4-.45.59-.29.4-.59.79-.9,1.18a1.67,1.67,0,0,1-.34.31c-.36.29-.7.27-.92-.14a11.4,11.4,0,0,1-.57-1.4c-.08-.24-.13-.49-.2-.74-.14-.45-.28-.49-.66-.19s-.46.41-.71.6a2.83,2.83,0,0,1-.51.34.6.6,0,0,1-.8-.13c-.15-.15-.28-.32-.43-.47s-.39-.21-.55,0a9.4,9.4,0,0,0-.58,1,5.8,5.8,0,0,0-.27.62A.64.64,0,0,1,7,22a1.52,1.52,0,0,1-.29-.53A2.69,2.69,0,0,0,5.58,20c-.15-.1-.29-.22-.44-.33a.63.63,0,0,0-.89,0c-.36.29-.67.64-1,1a3.78,3.78,0,0,1-.41.39.62.62,0,0,1-.91-.09,1.19,1.19,0,0,1-.21-.29,4.32,4.32,0,0,1-.56-2.34l.06.14s0,.07,0,.1c.13.36.25.73.39,1.09a1.34,1.34,0,0,0,.28.42.63.63,0,0,0,1,.11,3.59,3.59,0,0,0,.4-.38,11.5,11.5,0,0,1,.85-.86.74.74,0,0,1,1.14,0l.36.26a2.78,2.78,0,0,1,1.06,1.44,1.64,1.64,0,0,0,.26.53A.66.66,0,0,0,8,21a9.18,9.18,0,0,1,.62-1.35c.33-.59.54-.6,1-.08s.75.61,1.36.15c.32-.24.61-.51.93-.76s.46-.2.58.18.24.91.39,1.36a4,4,0,0,0,.36.79c.27.44.62.51,1,.15a11.44,11.44,0,0,0,1-1.11c.21-.27.39-.57.6-.85a.34.34,0,0,1,.5-.13.49.49,0,0,0,.52-.07A2.36,2.36,0,0,0,18,17.89a1.61,1.61,0,0,1,.17-.43c0-.05.11-.08.16-.12s.09.11.1.17c0,.23,0,.46,0,.69Z"/><path class="cls-4" d="M10.5,11.43c.34,0,.42.15.39.4a6.91,6.91,0,0,0-.11.9c0,1.24,0,2.48,0,3.72,0,.05,0,.11,0,.17-.23,0-.45,0-.67,0a5.33,5.33,0,0,0-.63.12c0-.13,0-.26,0-.4,0-1.36,0-2.72,0-4.08a3.12,3.12,0,0,0,0-.44c0-.21.06-.29.34-.25a1.73,1.73,0,0,0-.15.19.17.17,0,0,0,0,.14.66.66,0,0,0,.78.21,1.16,1.16,0,0,0,.33-.18c.14-.11.12-.21,0-.29S10.56,11.53,10.5,11.43Z"/><path class="cls-4" d="M4.71,11.58l-.2.23a.66.66,0,0,0,.68.37A2.22,2.22,0,0,0,5.62,12c.16-.11.14-.22,0-.31s-.06-.1-.1-.17c.27-.05.39,0,.37.24-.19,1.54,0,3.09-.11,4.64,0,.08,0,.15,0,.25-.46-.21-.86,0-1.29.15,0,0,0-.06,0-.08V12.46a4.2,4.2,0,0,0-.06-.61C4.33,11.6,4.41,11.52,4.71,11.58Z"/><path class="cls-4" d="M15.26,11.6v-.14c.25,0,.36,0,.33.28-.21,1.63-.08,3.26-.14,4.9l0,.18c-.41-.17-.81-.41-1.25-.05,0-.8,0-1.55,0-2.31v-2c0-.22,0-.44-.06-.65s0-.32.32-.29l-.18.28a.64.64,0,0,0,.77.3A1.35,1.35,0,0,0,15.3,12a.47.47,0,0,0,.16-.25A1.11,1.11,0,0,0,15.26,11.6Z"/><path class="cls-4" d="M8.49,6a.56.56,0,0,1,0-.15c.14-.41.29-.82.42-1.24a.47.47,0,0,1,.43-.35,1.68,1.68,0,0,1,.5,0c.24,0,.35.21.21.39a.8.8,0,0,0-.11.85.43.43,0,0,1-.24.55,4.79,4.79,0,0,1-.81.34C8.67,6.5,8.49,6.33,8.49,6ZM8.9,5.9c0,.09.07.17.21.14a.66.66,0,0,0,.5-.35.16.16,0,0,0-.09-.26A.5.5,0,0,0,8.9,5.9Zm.83-1.31c-.38-.13-.52,0-.54.45C9.52,5,9.68,4.86,9.73,4.59Z"/><path class="cls-4" d="M12.34,6.42c-.16-.19-.27-.35-.41-.49s-.26-.09-.34.07a4,4,0,0,1-.17.36s-.12,0-.18.07-.08-.17-.05-.22a3.35,3.35,0,0,0,.47-1.28s.06-.11.11-.14a.65.65,0,0,1,.81,0,.26.26,0,0,0,.17,0c.24,0,.47-.09.71-.13.09,0,.22-.06.23.12s0,.22-.17.22a.4.4,0,0,0-.4.31l-.27.82a1.16,1.16,0,0,1-.14.24l-.09,0a1.13,1.13,0,0,1,0-.26c.1-.34.22-.67.33-1a.52.52,0,0,0-.45.17,4.47,4.47,0,0,1-.44.42C12.21,5.93,12.55,6.06,12.34,6.42Zm-.57-.91a.71.71,0,0,0,.65-.5C12.08,4.85,11.89,5,11.77,5.51Z"/><path class="cls-4" d="M5.18,9.1a2,2,0,0,1-.08,2.67,1.71,1.71,0,0,1-.33-1.17,6.55,6.55,0,0,1,.25-1A3.57,3.57,0,0,1,5.18,9.1Z"/><path class="cls-4" d="M2.23,5.45a3.15,3.15,0,0,0-.46,0,.23.23,0,0,0-.13.14c-.09.22-.16.45-.26.67,0,.06-.13.09-.2.13s-.11-.18-.09-.24c.25-.63.51-1.25.77-1.87l0-.07c.24.12.2.26.11.43a4,4,0,0,0-.19.46,2.5,2.5,0,0,0,.42,0c.06,0,.11-.08.14-.13s.09-.28.13-.42.11-.21.24-.17.07.16,0,.22c-.1.33-.22.66-.33,1s-.14.44-.23.66c0,.07-.13.12-.2.18a.8.8,0,0,1,0-.26C2.06,5.93,2.15,5.7,2.23,5.45Z"/><path class="cls-4" d="M2.64,11a1.21,1.21,0,0,1-.21-.28c0-.07-.05-.21,0-.26a.32.32,0,0,1,.26-.13c.08,0,.16.13.19.21a1.93,1.93,0,0,1,.05.42c.13-.11.26-.23.4-.33s.33-.09.38,0a.24.24,0,0,1-.15.34c-.15.08-.32.14-.49.21a2.58,2.58,0,0,1,.37.19c.11.06.19.15.09.29a.22.22,0,0,1-.35.06c-.11-.1-.2-.23-.31-.35a2.17,2.17,0,0,1,0,.38c0,.09-.12.2-.19.2a.21.21,0,0,1-.23-.24,2.92,2.92,0,0,1,.19-.44l-.37.06c-.11,0-.24,0-.22-.15A.34.34,0,0,1,2.19,11,1.7,1.7,0,0,1,2.64,11Z"/><path class="cls-4" d="M10.11,11.84a2.22,2.22,0,0,1,.08-2.39,2.88,2.88,0,0,1,.26,1.9A1.89,1.89,0,0,1,10.11,11.84Z"/><path class="cls-4" d="M16.06,5.23a1.6,1.6,0,0,1-.9,1.09,3.4,3.4,0,0,1-.46.07,2.42,2.42,0,0,1,0-.47c.08-.31.18-.61.28-.91a.53.53,0,0,1,.61-.28C15.92,4.79,16.07,4.93,16.06,5.23ZM15,6,15,6A.45.45,0,0,0,15.2,6c.18-.17.36-.35.53-.54s.16-.25,0-.37-.41-.06-.46.07A8.35,8.35,0,0,0,15,6Z"/><path class="cls-4" d="M16.91,6.1a.71.71,0,0,0-.74.25s-.1,0-.15.07S16,6.3,16,6.24A.36.36,0,0,1,16,6.07c.28-.39.56-.78.86-1.15a.33.33,0,0,1,.27-.1s.1.16.09.24c0,.39-.08.79-.13,1.17,0,.06-.08.1-.12.14a1,1,0,0,1-.08-.14A.56.56,0,0,1,16.91,6.1ZM17,5.34l-.06,0-.38.48C17,5.81,17,5.74,17,5.34Z"/><path class="cls-4" d="M3.4,6.09a.67.67,0,0,0-.68.26s-.1,0-.15.07-.08-.12-.07-.18A.43.43,0,0,1,2.59,6c.27-.37.53-.74.82-1.1.06-.07.19-.08.29-.12a.74.74,0,0,1,.08.28c0,.35-.06.7-.11,1,0,.09,0,.25-.14.22S3.45,6.21,3.4,6.09Zm.09-.83-.41.52C3.5,5.83,3.59,5.73,3.49,5.26Z"/><path class="cls-4" d="M15.07,9.88a2.71,2.71,0,0,1,.06,1.82c-.07.17-.17.18-.31.09a.61.61,0,0,1-.29-.73c.13-.4.31-.79.47-1.19Z"/><path class="cls-4" d="M14.11,5.39c.4,0,.4,0,.51-.33,0-.12,0-.33.22-.26s0,.22,0,.33c-.12.38-.26.76-.41,1.13,0,.07-.11.11-.16.16a.62.62,0,0,1,0-.23,4.16,4.16,0,0,1,.16-.5c-.36-.09-.42-.05-.53.28a2,2,0,0,1-.15.37s-.09.06-.14.09l-.09-.17s0,0,0,0c.21-.51.41-1,.63-1.54.19.1.18.2.11.34A2.59,2.59,0,0,0,14.11,5.39Z"/><path class="cls-4" d="M5.3,5.07s0,.14-.09.19a6.63,6.63,0,0,1-.74.57.55.55,0,0,0-.28.28.82.82,0,0,1-.11.23.61.61,0,0,1-.2.09c0-.08-.06-.18,0-.23A3.08,3.08,0,0,0,4.29,5s0,0,0,0c0-.16.34-.29.59-.26A.41.41,0,0,1,5.3,5.07ZM5.09,5l0-.08c-.14,0-.32,0-.4,0a2.43,2.43,0,0,0-.29.5A.87.87,0,0,0,5.09,5Z"/><path class="cls-4" d="M6.23,4.67a.46.46,0,0,1,.44.25.35.35,0,0,1-.13.43,4.69,4.69,0,0,1-.68.49.42.42,0,0,0-.26.26,1.45,1.45,0,0,1-.12.25s-.12.05-.18.08-.07-.17,0-.23c.13-.33.28-.65.41-1a.38.38,0,0,0,0-.1C5.73,4.82,5.89,4.68,6.23,4.67ZM6.51,5c-.41-.17-.61,0-.67.52A1,1,0,0,0,6.51,5Z"/><path class="cls-4" d="M9.1,2.22A1.06,1.06,0,0,1,9.4,2c.07,0,.18,0,.27,0s0,.21-.11.26a2.29,2.29,0,0,1-.38.16,1.13,1.13,0,0,1,.26.16c.05.05.05.14.07.22s-.2.07-.27,0S9.09,2.7,9,2.6a.75.75,0,0,1,0,.28c0,.07-.1.11-.16.17s-.15-.16-.15-.24a.93.93,0,0,1,.15-.3.66.66,0,0,1-.27,0c-.07,0-.13-.09-.19-.13s.1-.16.17-.18a.75.75,0,0,1,.23,0,3.15,3.15,0,0,1-.05-.43.52.52,0,0,1,.21-.07C9,1.91,9,2.06,9.1,2.22Z"/><path class="cls-4" d="M12,9.59a1.45,1.45,0,0,1-.28,0c-.07,0-.12-.08-.18-.12s.09-.17.15-.19a.5.5,0,0,1,.25,0,3.29,3.29,0,0,1,0-.44.56.56,0,0,1,.21-.06,2.92,2.92,0,0,1,.18.46,2.94,2.94,0,0,1,.29-.23c.1-.06.23-.09.28,0a.27.27,0,0,1-.11.24,1.32,1.32,0,0,1-.38.16,1.39,1.39,0,0,1,.27.17c.05.05.05.14.07.22s-.2.07-.26,0-.15-.15-.24-.26a1.18,1.18,0,0,1,0,.28c0,.07-.1.11-.15.17s-.16-.16-.16-.23S11.93,9.7,12,9.59Z"/><path class="cls-4" d="M17.06,3.36A3.07,3.07,0,0,1,17,2.94s.21-.09.21-.08a4.58,4.58,0,0,1,.2.46l.24-.19c.11-.08.25-.15.34,0s-.07.22-.18.28-.2.07-.33.12l.27.15c.09.06.17.14.06.23a.32.32,0,0,1-.27,0c-.08,0-.13-.16-.22-.26a1,1,0,0,1,0,.27c0,.07-.11.17-.16.17A.17.17,0,0,1,17,3.9a1.71,1.71,0,0,1,.16-.29.68.68,0,0,1-.27,0c-.07,0-.13-.08-.2-.12s.11-.16.19-.19A.75.75,0,0,1,17.06,3.36Z"/><path class="cls-4" d="M7.73,10.16,8,10.3c.09.06.17.13.08.24a.17.17,0,0,1-.29,0,1.48,1.48,0,0,1-.21-.26.87.87,0,0,1,0,.3c0,.06-.1.11-.15.16s-.16-.15-.16-.23.09-.19.15-.3a.74.74,0,0,1-.25,0c-.08,0-.19-.06-.2-.12S7,10,7.1,10a1,1,0,0,1,.21,0,3.12,3.12,0,0,1,0-.44s.21-.07.21,0a3.57,3.57,0,0,1,.19.45,2.76,2.76,0,0,1,.28-.22c.1-.07.24-.1.28,0s0,.2-.1.25A2.42,2.42,0,0,1,7.73,10.16Z"/><path class="cls-4" d="M10.69,5.1h-.33c0-.31.09-.37.39-.37H11c.11,0,.2,0,.21.16s0,.23-.2.23a.12.12,0,0,0-.12.07c-.13.28-.24.57-.37.88h.24a.26.26,0,0,1-.27.31l-.52,0c0-.16,0-.31.21-.33A.13.13,0,0,0,10.3,6C10.43,5.73,10.56,5.43,10.69,5.1Z"/><path class="cls-4" d="M3.94,12.94l0,.23-3,.77c-.06-.09,0-.17.1-.21Z"/><path class="cls-4" d="M17.51,4.73l.25.58.57-.73c.17.11.17.23.08.32a5.53,5.53,0,0,0-1,1.53c-.12-.11-.18-.2-.06-.33s0-.08.07-.12a.66.66,0,0,0,.06-.8C17.37,5.05,17.29,4.87,17.51,4.73Z"/><path class="cls-4" d="M6.89,4.73l.25.58.56-.73c.19.12.18.24.08.33a5.7,5.7,0,0,0-1,1.51c-.13-.09-.16-.19-.06-.31a.05.05,0,0,1,0,0c.18-.29.34-.57.09-.92C6.74,5,6.67,4.85,6.89,4.73Z"/><path class="cls-4" d="M8.85,12.51c0,.05-.08.14-.13.14L6,12.84c.06-.08.09-.18.14-.19l2.62-.23Z"/><path class="cls-4" d="M14,16.61l0,.34c.23-.05.48-.11.73-.14s.25.08.38.11a1.35,1.35,0,0,0,.29,0s.1,0,.14,0c.24,0,.47,0,.28-.34a.09.09,0,0,1,0-.06l.07-.08a2.34,2.34,0,0,1,.1.4.23.23,0,0,1-.26.28,1.1,1.1,0,0,0-.31,0,.44.44,0,0,1-.41-.07.92.92,0,0,0-.93.06,1.8,1.8,0,0,1-.22.06.82.82,0,0,1,0-.26c0-.13.07-.25.1-.38Z"/><path class="cls-4" d="M15.94,13.31V13.1l1.85.5c.15,0,.29.1.44.13s.15.12.1.23Z"/><path class="cls-4" d="M11.2,12.67V12.5l.1,0,2.23.22c.05,0,.1.09.15.14l0,.06Z"/><path class="cls-4" d="M9.06,16.43c.21.52.57.54,1,.42l.94-.22.11,0c0,.22-.2.28-.37.31-.36.07-.72.12-1.08.17A.73.73,0,0,1,9,16.61.74.74,0,0,1,9.06,16.43Z"/><path class="cls-4" d="M4.13,16.59c.21.35.25.36.62.26a4.23,4.23,0,0,1,.62-.11A1.26,1.26,0,0,0,6,16.53a.29.29,0,0,1-.25.37c-.42.09-.84.16-1.26.23a.51.51,0,0,1-.47-.43S4.09,16.64,4.13,16.59Z"/><path class="cls-4" d="M13,10.36l.49-.1.12.57C13.09,10.94,13.09,10.94,13,10.36Z"/><path class="cls-4" d="M5.21,2.71,5,2.31,5.49,2l.24.41Z"/><path class="cls-4" d="M12.63,3.14l-.24-.4.51-.29.25.4Z"/><path class="cls-4" d="M2.31,8.32,2.82,8l.24.4-.51.29Z"/><path class="cls-4" d="M17.57,8.46l.23.41-.51.28-.24-.4Z"/><path class="cls-4" d="M3.32,14.17l.52-.28.24.4-.51.28Z"/><path class="cls-4" d="M10.27,7.85l-.52.28-.24-.39L10,7.45Z"/><path class="cls-4" d="M13,15.19l.52-.29.24.4-.52.29Z"/><path class="cls-4" d="M3.55,3.13l.29.08-.06.23-.29-.08Z"/><path class="cls-4" d="M16.4,15.39l-.29-.09.06-.22.29.08Z"/><path class="cls-4" d="M12.63,7.85l.07-.22.29.08-.06.22Z"/><path class="cls-4" d="M5.79,8.3l-.06.22-.29-.08,0-.22Z"/><path class="cls-4" d="M1.86,1.78l.29.08-.07.22L1.79,2Z"/><path class="cls-4" d="M15.58,2.62l.29.09-.06.22-.29-.08Z"/><path class="cls-4" d="M6.74,14.37l-.29-.08.06-.23.3.09Z"/></g></g></svg>