<svg xmlns="http://www.w3.org/2000/svg" viewBox="0 0 38.55 24.66"><defs><style>.cls-1{isolation:isolate;}.cls-2{opacity:0.15;}.cls-2,.cls-3{mix-blend-mode:multiply;}.cls-4{fill:#fff;}</style></defs><title>convert-CUSTOMIZE-SVG-03</title><g class="cls-1"><g id="Layer_1" data-name="Layer 1"><g class="cls-2"><path d="M3.54,12.56a.94.94,0,0,1,.52-1.32,6.09,6.09,0,0,1,.63-.3c-.1-.12-.22-.25-.32-.38A1,1,0,0,1,4.67,9,4.63,4.63,0,0,1,6.4,8.45c.41-.08.82-.12,1.25-.18L7.47,5.49h.64L8,4.78a.5.5,0,0,1-.46-.54,2.9,2.9,0,0,1,0-.59A.65.65,0,0,1,8,3.1L8.21,3c.28-.12.29-.15.16-.42a1.63,1.63,0,0,1,.73.56.83.83,0,0,1-.21,1.13,1,1,0,0,1-.33.23.37.37,0,0,0-.23.5c0,.14,0,.29.06.45h.49V8A2,2,0,0,0,10,7.11a1.63,1.63,0,0,0,0-1.38A2.69,2.69,0,0,1,11.9,7.11,3.31,3.31,0,0,1,12,9.51l.57,0a10.26,10.26,0,0,1,1.57.06,1.12,1.12,0,0,1,.95,1.58,3.94,3.94,0,0,1-.36.85c-.15.27-.35.51-.53.78a1.94,1.94,0,0,1,1.07.73,2,2,0,0,1,.3,1.32l.43-.16c-.09.37-.17.72-.25,1.06-.49,2.06-1,4.13-1.46,6.19a.35.35,0,0,1-.23.28,11.61,11.61,0,0,1-3.89.94,13.77,13.77,0,0,1-5.82-.91A.5.5,0,0,1,4,21.85Q3,18.76,1.87,15.69a.3.3,0,0,1,.07-.37.63.63,0,0,0,.18-.66,2.16,2.16,0,0,1,0-.84A1.46,1.46,0,0,1,3.36,12.6Zm12.1,2.53-1.09.46a.36.36,0,0,0-.24.28c-.28,1.2-.57,2.4-.86,3.59-.12.49-.24,1-.36,1.49l-.26-.07,1.26-5.23-1.17-.54-.32,2.79-.27,0,.3-2.65a2.13,2.13,0,0,0-.4.32.56.56,0,0,0-.17.31l-.27,3.89c0,.31,0,.61-.07.94l-.26,0v-.19l.15-2c.06-.88.13-1.76.19-2.64,0-.06,0-.15-.05-.17-.29-.22-.6-.42-.93-.65v4.3h-.28v-4.3c-.35.21-.65.41-1,.58a.29.29,0,0,0-.15.31c0,.35.06.7.08,1.06.07,1,.13,1.92.2,2.89l.09,1.51-.25,0a1.21,1.21,0,0,1,0-.14c0-.68-.09-1.36-.13-2-.08-1.13-.15-2.26-.22-3.38,0-.06,0-.14-.07-.16l-1.17-.67.45,3.59-.26,0-.47-3.63a3.92,3.92,0,0,1-.45.36c-.35.19-.37.44-.3.8.26,1.42.49,2.85.74,4.28l-.25.06s0-.05,0-.07c-.24-1.43-.5-2.86-.72-4.3a.7.7,0,0,0-.48-.63c-.35-.13-.68-.31-1.07-.49l1.46,4.71-.26.07L4.82,15c-.15.18-.26.32-.39.45a.33.33,0,0,0-.08.36c.5,1.67,1,3.34,1.47,5,.08.27.15.55.23.84l-.25.07-.06-.2L4.09,15.81A.48.48,0,0,0,4,15.6L2.85,15l1.83,6-.26.08L2.56,15c-.12.15-.2.28-.3.38a.37.37,0,0,0-.08.42c.71,2,1.41,4,2.11,5.95a.31.31,0,0,0,.23.24,13.42,13.42,0,0,0,4.52.9A11.5,11.5,0,0,0,13.85,22a.4.4,0,0,0,.24-.29c.41-1.78.84-3.56,1.26-5.34C15.44,16,15.53,15.55,15.64,15.09Zm-5.9-3.22L9,11.64a9.32,9.32,0,0,0-3.81-.49,2.15,2.15,0,0,0-1.33.57.48.48,0,0,0-.06.71,2,2,0,0,0,1.07.72,18,18,0,0,0,5.84.59A6.52,6.52,0,0,0,13.32,13a3.09,3.09,0,0,0,1.59-2.2.76.76,0,0,0-.53-.94,2.59,2.59,0,0,0-1-.15c-1,0-1.93.13-2.89.22-.79.07-1.58.17-2.38.24A2.78,2.78,0,0,1,6.87,10L7,9.77l.78.16L7.66,8.52c-.64.11-1.25.21-1.85.33a2.83,2.83,0,0,0-1.14.49.63.63,0,0,0-.28.6,1.58,1.58,0,0,0,.56.85c.16.17.33.07.49.06a10.38,10.38,0,0,1,3.83.59c.18.05.36.12.55.19ZM4.83,14.51c.55.26,1.08.5,1.6.77a.32.32,0,0,0,.41,0c.23-.21.49-.39.72-.59a.28.28,0,0,1,.37,0c.39.24.8.45,1.19.69a.27.27,0,0,0,.33,0c.34-.22.69-.42,1-.65a.29.29,0,0,1,.39,0c.29.22.6.41.9.62.12.09.2.1.31,0s.38-.3.56-.45a.22.22,0,0,1,.3,0c.38.18.77.37,1.16.54a.33.33,0,0,0,.24,0,8.58,8.58,0,0,0,.83-.35.26.26,0,0,0,.13-.16A1.51,1.51,0,0,0,14.1,13a.55.55,0,0,0-.31.05c-.3.14-.58.33-.88.45a8.39,8.39,0,0,1-3.25.55,20.85,20.85,0,0,1-4.09-.47,3.35,3.35,0,0,1-1.71-.72.21.21,0,0,0-.13,0,1.38,1.38,0,0,0-1.31,1.87l.17-.18,1.53.85Zm5.56-8.38c0,.13,0,.22,0,.31a1.46,1.46,0,0,1-.57,1.28,5.73,5.73,0,0,1-.79.48c-.11.05-.17.1-.16.23V9.72a.8.8,0,0,0,0,.15c.91-.11,1.81-.21,2.7-.33.05,0,.12-.08.14-.14a3.22,3.22,0,0,0,.12-1.48A2.29,2.29,0,0,0,10.39,6.13Z"/><path d="M3.74,12.76a.94.94,0,0,1,.52-1.32c.2-.12.41-.2.62-.3l-.31-.38a1,1,0,0,1,.3-1.55A4.83,4.83,0,0,1,6.6,8.64c.41-.07.82-.11,1.24-.17L7.67,5.69h.64L8.23,5c-.33-.08-.45-.21-.47-.54a3.87,3.87,0,0,1,0-.59.64.64,0,0,1,.43-.55l.22-.08c.28-.12.29-.15.15-.43a1.7,1.7,0,0,1,.74.57.83.83,0,0,1-.21,1.13,1.5,1.5,0,0,1-.33.23.37.37,0,0,0-.23.5c0,.14,0,.29.06.45h.49v2.5a2,2,0,0,0,1.12-.86,1.66,1.66,0,0,0,0-1.38A2.69,2.69,0,0,1,12.1,7.31a3.36,3.36,0,0,1,.13,2.4,5.55,5.55,0,0,1,.56,0,10.34,10.34,0,0,1,1.58.06,1.12,1.12,0,0,1,1,1.58,4.52,4.52,0,0,1-.36.85c-.15.27-.35.51-.53.78a1.89,1.89,0,0,1,1.07.73A2,2,0,0,1,15.8,15l.42-.16c-.08.37-.16.72-.24,1.06q-.73,3.09-1.46,6.19a.37.37,0,0,1-.23.28,11.36,11.36,0,0,1-3.89.93,13.76,13.76,0,0,1-5.82-.9A.51.51,0,0,1,4.24,22Q3.16,19,2.07,15.89a.29.29,0,0,1,.07-.37.64.64,0,0,0,.18-.66,2.16,2.16,0,0,1,0-.84A1.45,1.45,0,0,1,3.56,12.8Zm12.1,2.53-1.09.46a.35.35,0,0,0-.24.28c-.28,1.2-.57,2.39-.86,3.59-.12.49-.24,1-.36,1.49L13,21l1.25-5.22-1.16-.54-.32,2.79-.27,0,.29-2.65a2.38,2.38,0,0,0-.39.32.56.56,0,0,0-.17.31c-.1,1.3-.18,2.59-.27,3.89,0,.31-.05.61-.08.94l-.25,0v-.19l.15-2.05L12,15.94s0-.14,0-.16c-.3-.22-.6-.42-.93-.65v4.3h-.28v-4.3l-1,.58a.29.29,0,0,0-.15.31c0,.35.06.7.08,1.05.06,1,.13,1.93.2,2.9L10,21.48l-.25,0a.49.49,0,0,1,0-.15c-.05-.67-.09-1.35-.13-2-.08-1.13-.15-2.26-.22-3.38a.25.25,0,0,0-.08-.17c-.37-.22-.75-.43-1.17-.66l.46,3.59-.27,0-.46-3.63a5.43,5.43,0,0,1-.45.36c-.35.18-.37.44-.31.8.27,1.42.5,2.84.75,4.28l-.25.05s0-.05,0-.06c-.25-1.43-.5-2.86-.73-4.3a.69.69,0,0,0-.47-.63c-.35-.13-.68-.31-1.07-.5l1.46,4.72-.26.07L5,15.16c-.15.18-.26.32-.38.45a.33.33,0,0,0-.08.36L6,21c.08.27.15.55.23.84L6,21.89l-.06-.2Q5.11,18.84,4.28,16a.36.36,0,0,0-.11-.21l-1.12-.64,1.83,6-.26.07L2.76,15.17a3.35,3.35,0,0,1-.31.38.36.36,0,0,0-.07.42q1.07,3,2.11,6a.33.33,0,0,0,.23.24,13.67,13.67,0,0,0,4.52.9,11.36,11.36,0,0,0,4.81-.88.36.36,0,0,0,.24-.28c.41-1.78.84-3.56,1.26-5.34C15.64,16.16,15.73,15.75,15.84,15.29ZM9.93,12.07l-.72-.23a9.3,9.3,0,0,0-3.81-.49,2.14,2.14,0,0,0-1.33.57.48.48,0,0,0-.05.7,2,2,0,0,0,1.07.73,18,18,0,0,0,5.84.58,6.5,6.5,0,0,0,2.59-.71A3.11,3.11,0,0,0,15.11,11a.76.76,0,0,0-.53-.94,2.87,2.87,0,0,0-.95-.16c-1,.05-1.93.14-2.89.23-.79.07-1.58.17-2.38.24a2.76,2.76,0,0,1-1.29-.2l.1-.22.77.16L7.86,8.71,6,9.05a2.83,2.83,0,0,0-1.14.49.61.61,0,0,0-.28.6,1.62,1.62,0,0,0,.56.85c.16.16.33.07.49.06a10.62,10.62,0,0,1,3.83.58l.55.2ZM5,14.71c.55.26,1.08.5,1.6.77a.32.32,0,0,0,.41,0c.23-.21.49-.39.72-.59a.27.27,0,0,1,.37,0c.39.24.8.45,1.19.68a.24.24,0,0,0,.32,0c.35-.22.7-.42,1-.65a.3.3,0,0,1,.39,0c.3.23.61.42.91.63a.2.2,0,0,0,.31,0c.17-.17.38-.3.56-.46a.24.24,0,0,1,.3,0c.38.19.77.38,1.16.55a.31.31,0,0,0,.23,0c.29-.11.57-.23.84-.35a.25.25,0,0,0,.13-.17,1.5,1.5,0,0,0-1.21-1.81.48.48,0,0,0-.31,0c-.3.14-.58.33-.88.45a8.39,8.39,0,0,1-3.25.55,20.76,20.76,0,0,1-4.09-.47,3.32,3.32,0,0,1-1.71-.72A.24.24,0,0,0,3.92,13a1.38,1.38,0,0,0-1.3,1.87l.17-.18,1.52.85Zm5.56-8.38c0,.13,0,.22,0,.31A1.46,1.46,0,0,1,10,7.92a5.73,5.73,0,0,1-.79.48c-.11,0-.17.1-.16.23V9.92a.8.8,0,0,0,0,.15l2.7-.33A.24.24,0,0,0,12,9.6a3.22,3.22,0,0,0,.12-1.48A2.3,2.3,0,0,0,10.59,6.33Z"/></g><g class="cls-3"><path d="M3.4,12.42a.94.94,0,0,1,.52-1.32c.2-.12.41-.2.62-.3l-.31-.38a1,1,0,0,1,.3-1.55A4.83,4.83,0,0,1,6.26,8.3c.41-.07.82-.12,1.24-.18L7.33,5.34H8l-.08-.7c-.33-.08-.45-.21-.47-.54a3.87,3.87,0,0,1,0-.59A.64.64,0,0,1,7.85,3l.22-.08c.28-.12.29-.15.15-.43A1.7,1.7,0,0,1,9,3a.83.83,0,0,1-.21,1.13,1.5,1.5,0,0,1-.33.23.38.38,0,0,0-.24.5,3,3,0,0,1,.07.45h.49v2.5A2,2,0,0,0,9.86,7a1.66,1.66,0,0,0,0-1.38A2.69,2.69,0,0,1,11.76,7a3.36,3.36,0,0,1,.13,2.4,5.55,5.55,0,0,1,.56,0A10.34,10.34,0,0,1,14,9.4,1.12,1.12,0,0,1,15,11a4.52,4.52,0,0,1-.36.85c-.15.27-.35.51-.53.78a1.89,1.89,0,0,1,1.07.73,2,2,0,0,1,.3,1.32l.42-.16c-.08.37-.16.72-.24,1.06q-.73,3.09-1.46,6.19A.37.37,0,0,1,14,22a11.36,11.36,0,0,1-3.89.93,13.76,13.76,0,0,1-5.82-.9.51.51,0,0,1-.34-.36q-1.08-3.07-2.17-6.15a.29.29,0,0,1,.07-.37A.64.64,0,0,0,2,14.52a2.16,2.16,0,0,1,0-.84,1.45,1.45,0,0,1,1.24-1.22ZM15.5,15l-1.09.46a.35.35,0,0,0-.24.28c-.28,1.2-.57,2.39-.86,3.59-.12.49-.24,1-.36,1.49l-.26-.08,1.25-5.22-1.16-.54-.32,2.79-.27,0L12.48,15a2.38,2.38,0,0,0-.39.32.56.56,0,0,0-.17.31c-.1,1.3-.18,2.59-.27,3.89,0,.31-.05.61-.08.94l-.25,0v-.18l.15-2.05.18-2.64a.2.2,0,0,0,0-.17l-.93-.64v4.3H10.4v-4.3l-1,.58a.28.28,0,0,0-.15.31c0,.35.05.7.08,1.05.06,1,.13,1.93.2,2.9l.09,1.51-.25,0a.56.56,0,0,1,0-.15c-.05-.67-.09-1.35-.13-2-.08-1.13-.15-2.26-.22-3.38A.25.25,0,0,0,9,15.45c-.37-.22-.75-.43-1.17-.66l.46,3.59-.27,0-.46-3.63a5.43,5.43,0,0,1-.45.36c-.35.18-.37.44-.31.8.27,1.42.5,2.84.75,4.28l-.25.05s0-.05,0-.06c-.25-1.43-.5-2.86-.73-4.3A.69.69,0,0,0,6,15.29c-.35-.13-.68-.31-1.07-.5l1.46,4.72-.26.07L4.67,14.82c-.15.17-.26.32-.39.45a.32.32,0,0,0-.07.36q.74,2.51,1.46,5c.09.27.16.55.24.84l-.25.07-.06-.2q-.82-2.85-1.66-5.68a.36.36,0,0,0-.11-.21l-1.12-.64,1.83,6-.26.07L2.42,14.83a3.35,3.35,0,0,1-.31.38.36.36,0,0,0-.07.42q1.07,3,2.11,5.95a.33.33,0,0,0,.23.24,13.67,13.67,0,0,0,4.52.9,11.36,11.36,0,0,0,4.81-.88.36.36,0,0,0,.24-.28c.41-1.78.84-3.56,1.26-5.34C15.3,15.81,15.39,15.41,15.5,15ZM9.59,11.73l-.72-.23A9.3,9.3,0,0,0,5.06,11a2.14,2.14,0,0,0-1.33.57.48.48,0,0,0,0,.7A2,2,0,0,0,4.75,13a18,18,0,0,0,5.84.58,6.5,6.5,0,0,0,2.59-.71,3.11,3.11,0,0,0,1.59-2.2.75.75,0,0,0-.53-.94,2.87,2.87,0,0,0-1-.16c-1,.05-1.93.14-2.89.23-.79.07-1.58.17-2.38.24a2.76,2.76,0,0,1-1.29-.2l.1-.22.77.16L7.52,8.37l-1.85.34a2.83,2.83,0,0,0-1.14.49.61.61,0,0,0-.28.6,1.62,1.62,0,0,0,.56.85c.16.16.33.07.49.06a10.62,10.62,0,0,1,3.83.58l.55.2Zm-4.9,2.64c.55.26,1.08.5,1.6.77a.32.32,0,0,0,.41,0c.23-.21.49-.39.72-.59a.27.27,0,0,1,.37,0c.39.24.8.45,1.19.68a.24.24,0,0,0,.32,0c.35-.22.7-.42,1-.65a.3.3,0,0,1,.39,0c.3.22.61.42.91.63a.2.2,0,0,0,.31,0c.17-.17.38-.3.56-.46a.24.24,0,0,1,.3,0c.38.19.77.38,1.16.55a.31.31,0,0,0,.23,0c.29-.11.57-.23.84-.35a.25.25,0,0,0,.13-.17A1.5,1.5,0,0,0,14,12.87a.48.48,0,0,0-.31.05c-.3.14-.58.33-.88.45a8.39,8.39,0,0,1-3.25.55,20.76,20.76,0,0,1-4.09-.47,3.32,3.32,0,0,1-1.71-.72.24.24,0,0,0-.14-.05,1.38,1.38,0,0,0-1.3,1.87l.17-.18L4,15.22ZM10.25,6c0,.13,0,.22,0,.31A1.47,1.47,0,0,1,9.7,7.58a5.73,5.73,0,0,1-.79.48c-.11,0-.17.1-.17.23,0,.43,0,.86,0,1.29,0,.05,0,.1,0,.15.92-.11,1.81-.21,2.71-.33a.24.24,0,0,0,.14-.14,3.22,3.22,0,0,0,.12-1.48A2.3,2.3,0,0,0,10.25,6Z"/></g><path class="cls-4" d="M3.6,12.61a.93.93,0,0,1,.52-1.31c.2-.12.41-.2.62-.31-.1-.12-.21-.24-.31-.37a1,1,0,0,1,.29-1.55A4.82,4.82,0,0,1,6.46,8.5c.41-.07.82-.12,1.24-.18L7.53,5.54h.64l-.08-.7c-.33-.08-.45-.21-.47-.54a3.87,3.87,0,0,1,0-.59.62.62,0,0,1,.43-.55l.22-.08c.28-.12.29-.15.15-.43a1.74,1.74,0,0,1,.74.56.83.83,0,0,1-.22,1.13,1.22,1.22,0,0,1-.32.24.38.38,0,0,0-.24.5c0,.14,0,.29.07.45h.49V8a1.92,1.92,0,0,0,1.12-.86,1.66,1.66,0,0,0,0-1.38A2.72,2.72,0,0,1,12,7.17a3.36,3.36,0,0,1,.13,2.4,3.63,3.63,0,0,1,.56,0,10.34,10.34,0,0,1,1.58.06,1.12,1.12,0,0,1,.95,1.58,4.56,4.56,0,0,1-.37.85,8.81,8.81,0,0,1-.52.78,1.89,1.89,0,0,1,1.07.73,2,2,0,0,1,.3,1.32l.42-.16c-.08.37-.16.71-.24,1.06q-.73,3.09-1.46,6.19a.36.36,0,0,1-.24.28,11.31,11.31,0,0,1-3.88.93,13.74,13.74,0,0,1-5.82-.9.5.5,0,0,1-.34-.36Q3,18.83,1.93,15.75A.3.3,0,0,1,2,15.37a.62.62,0,0,0,.18-.65,2.16,2.16,0,0,1,0-.84,1.47,1.47,0,0,1,1.24-1.23Zm12.1,2.54-1.09.46a.33.33,0,0,0-.24.28c-.29,1.2-.58,2.39-.86,3.59L13.15,21l-.26-.07,1.25-5.22L13,15.12l-.32,2.8-.26,0,.29-2.66c-.17.14-.3.22-.4.32a.69.69,0,0,0-.16.32c-.1,1.3-.18,2.59-.27,3.89,0,.3,0,.61-.08.94l-.25,0v-.18l.15-2,.18-2.64a.24.24,0,0,0,0-.17L10.88,15v4.3H10.6V15c-.35.22-.65.41-1,.59a.27.27,0,0,0-.15.31c0,.35,0,.7.08,1,.06,1,.13,1.93.19,2.9,0,.49.07,1,.1,1.51l-.25,0a.56.56,0,0,1,0-.15c-.05-.67-.09-1.35-.14-2-.07-1.12-.14-2.25-.22-3.38a.24.24,0,0,0-.07-.16C8.78,15.43,8.4,15.22,8,15l.46,3.59-.27,0L7.71,15a5.43,5.43,0,0,1-.45.36c-.35.18-.38.44-.31.8.27,1.42.5,2.84.75,4.28l-.25.05a.13.13,0,0,1,0-.07c-.25-1.43-.5-2.86-.73-4.29a.69.69,0,0,0-.47-.63c-.35-.13-.68-.31-1.07-.5L6.61,19.7l-.26.08L4.87,15c-.15.17-.26.32-.39.45a.32.32,0,0,0-.07.36q.74,2.51,1.46,5l.24.85-.25.07-.06-.2Q5,18.7,4.14,15.87c0-.08,0-.18-.11-.21-.36-.22-.72-.41-1.13-.64l1.84,6-.26.07L2.62,15c-.12.15-.21.27-.31.38a.36.36,0,0,0-.07.42q1.07,3,2.1,6a.38.38,0,0,0,.24.24,13.66,13.66,0,0,0,4.51.9A11.64,11.64,0,0,0,13.9,22a.37.37,0,0,0,.25-.28q.62-2.67,1.25-5.34C15.5,16,15.59,15.61,15.7,15.15ZM9.79,11.93l-.72-.23a9.3,9.3,0,0,0-3.81-.49,2.09,2.09,0,0,0-1.33.57.48.48,0,0,0-.05.7A1.94,1.94,0,0,0,5,13.21a18,18,0,0,0,5.84.58,6.55,6.55,0,0,0,2.59-.71A3.07,3.07,0,0,0,15,10.87a.74.74,0,0,0-.52-.93,2.87,2.87,0,0,0-.95-.16c-1,.05-1.93.14-2.89.22-.8.07-1.59.18-2.38.24a2.63,2.63,0,0,1-1.29-.19L7,9.83,7.8,10,7.72,8.57l-1.86.34a2.6,2.6,0,0,0-1.13.49.59.59,0,0,0-.28.6,1.66,1.66,0,0,0,.55.85c.17.16.34.07.5.06a10.53,10.53,0,0,1,3.82.58l.56.19Zm-4.9,2.64c.55.26,1.08.5,1.6.76a.3.3,0,0,0,.41,0c.23-.2.48-.38.72-.58a.27.27,0,0,1,.37,0c.39.24.8.45,1.19.68a.26.26,0,0,0,.32,0c.34-.22.7-.42,1-.65a.29.29,0,0,1,.39,0c.3.22.61.42.91.63a.2.2,0,0,0,.31,0c.17-.16.38-.29.55-.45a.24.24,0,0,1,.3,0l1.17.55a.37.37,0,0,0,.23,0c.29-.11.56-.23.84-.36a.23.23,0,0,0,.13-.16,1.5,1.5,0,0,0-1.21-1.81.48.48,0,0,0-.31,0c-.3.14-.58.33-.88.45a8.6,8.6,0,0,1-3.26.55,20.85,20.85,0,0,1-4.09-.47,3.32,3.32,0,0,1-1.7-.72.35.35,0,0,0-.14-.06,1.38,1.38,0,0,0-1.3,1.87l.17-.18,1.52.86Zm5.56-8.39c0,.14,0,.23,0,.32A1.49,1.49,0,0,1,9.9,7.78a4.54,4.54,0,0,1-.8.47.25.25,0,0,0-.16.24c0,.43,0,.86,0,1.29a.77.77,0,0,0,0,.15l2.71-.33a.24.24,0,0,0,.14-.14A3.23,3.23,0,0,0,11.94,8,2.32,2.32,0,0,0,10.45,6.18Z"/></g></g></svg>