<svg xmlns="http://www.w3.org/2000/svg" viewBox="0 0 38.55 24.66"><defs><style>.cls-1{isolation:isolate;}.cls-2{opacity:0.15;}.cls-2,.cls-3{mix-blend-mode:multiply;}.cls-4{fill:#fff;}</style></defs><title>convert-CUSTOMIZE-SVG-03</title><g class="cls-1"><g id="Layer_1" data-name="Layer 1"><g class="cls-2"><path d="M6.32,20.78H.51l0-.07a.52.52,0,0,1,.16-.06h1c1.48,0,3,0,4.44,0a.81.81,0,0,0,.81-.45H.72a.87.87,0,0,1-.22-.05v-.09H.76c2,0,4,0,6,0,.35,0,.5-.18.67-.45H.58L.5,19.59s.05-.07.08-.07H6.94c-.49-.12-.89-.46-1.46-.44-1.57.05-3.15,0-4.72,0H.59S.53,19,.5,19s.05-.07.08-.07H5.92a2.69,2.69,0,0,0-.2-.38s-.14-.05-.21-.05H.7a.78.78,0,0,1-.21,0l0-.08H5.66l0-.44H.46c.06-.07.08-.13.11-.14a1.76,1.76,0,0,1,.23,0h37c.08,0,.22-.06.22.14H30.77a4.74,4.74,0,0,0,.5.38.4.4,0,0,0,.24.05H37.8c.08,0,.21-.08.23.12H31.44c.08.14.11.3.21.36a.5.5,0,0,0,.41,0,1.88,1.88,0,0,1,1.71,0,.61.61,0,0,0,.27,0h3.87A.67.67,0,0,1,38,19a.75.75,0,0,1-.12.07.38.38,0,0,1-.15,0H34.2l-.1.43h3.72a1.55,1.55,0,0,1,.21,0v.09H34.09a.54.54,0,0,0-.3.1,1.6,1.6,0,0,1-1.65.08l-.22-.09h0c0,.33,0,.33.32.33h5.7s.06,0,.09.05-.06.07-.09.08H32l.08.44h5.74a1.7,1.7,0,0,1,.22,0v.09H32.09l0,.44H38v.08a1.21,1.21,0,0,1-.18.05H32.18s0,0,0,.07c0,.37,0,.37.35.37H38l0,.06s0,.06-.09.07H32.16l0,.18a1.89,1.89,0,0,0,1.15.25H38s0,0,.07.05,0,.07-.07.07H32.76a2.68,2.68,0,0,0,.13.34.24.24,0,0,0,.18.09H38A.07.07,0,0,1,38,23s0,.07-.06.07H33.22c-.21,0-.37,0-.4.27a.5.5,0,0,1-.07.17H38l0,.05s-.06.07-.09.07a.47.47,0,0,1-.17,0h-5a.69.69,0,0,0-.31.09.91.91,0,0,1-.89,0,.6.6,0,0,0-.29-.08H8.83a.57.57,0,0,0-.29.08.9.9,0,0,1-.91,0,.69.69,0,0,0-.32-.08H.73c-.08,0-.21.07-.23-.12H7.37l-.16-.44H.45c.07-.08.09-.13.13-.14a.59.59,0,0,1,.19,0H7.21l.16-.43H6.05a.38.38,0,0,0-.17.08.86.86,0,0,1-1,0,.53.53,0,0,0-.3-.09h-4l0-.09a.72.72,0,0,1,.19,0H4.61l-.12-.43H.57s0,0-.07-.06,0-.06.07-.06H4.23c.2,0,.32,0,.36-.24a.86.86,0,0,1,.11-.21H.77a.5.5,0,0,1-.17,0s-.06,0-.1-.07.06-.05.1-.05H4.66A1,1,0,0,0,5,21.14a.79.79,0,0,1,.69,0,.27.27,0,0,0,.39-.07,3,3,0,0,1,.26-.24Zm25-1.15H28.68v-.07l.17,0h2.09l-.69-.3a1.18,1.18,0,0,0-.43-.13H10.23a.93.93,0,0,1-.09.32,1.34,1.34,0,0,1-1.37.6c-.28-.05-.56-.16-.85-.24l.08.33H9.47v.09c-.47.08-1,0-1.42.05,0,.41,0,.42.37.42h.89a.49.49,0,0,1,.17.06v.08H8.11l.07.42H9.36s.07,0,.11.06-.07.06-.11.06a.47.47,0,0,1-.17,0h-1l0,.44H9.32a.52.52,0,0,1,.16.06l0,.07H8.19l0,.23a4.15,4.15,0,0,0,.63.2,5,5,0,0,0,.67,0v.07c-.2.14-.45,0-.67.08l.15.4H31.19l.14-.42H30.21a.68.68,0,0,0-.43.13.85.85,0,0,1-1.05-.1.87.87,0,0,1-.15-1c.05-.09.09-.18.13-.27a.53.53,0,0,0,.17,0,.89.89,0,0,1,.89,0,.25.25,0,0,0,.19,0c.12-.11.23-.24.38-.39H28.68V20.7a.59.59,0,0,1,.19-.05c.43,0,.86,0,1.29,0s.52-.18.75-.46H28.68v-.08a.65.65,0,0,1,.19,0c.59,0,1.19,0,1.78,0A.67.67,0,0,0,31.36,19.63ZM6.78,18a2.08,2.08,0,0,1,.38.26.57.57,0,0,0,.48.16h22l0-.42Zm24.41,5.13H8.94l-.14.41H31.33Zm-1.28-4.15a.71.71,0,0,1-.09-.15c-.08-.25-.26-.28-.5-.28H7.49c.23.51.3.53.77.34a1.8,1.8,0,0,1,1.42,0,1,1,0,0,0,.42.09H29.91Zm2,2.86a1.4,1.4,0,0,0,0-.3.22.22,0,0,0-.14-.14c-.49,0-1,0-1.47,0-.07,0-.2.11-.19.13s.11.28.18.29C30.79,21.8,31.33,21.79,31.89,21.79Zm-24-.44H6.28c-.06,0-.12.08-.18.13s0,.3.23.3H7.91ZM33.4,19.18l-.13.25H32a1.27,1.27,0,0,0,1.82-.15,1.38,1.38,0,0,0-1.51-.17Zm-26,.07a2.79,2.79,0,0,0-1-.69l0-.24a2.08,2.08,0,0,1,1,.51,1.38,1.38,0,0,0-1.38-.73C5.88,18.7,6.47,19.19,7.36,19.25Zm2.52,0a1.33,1.33,0,0,0-1.54-.15,2,2,0,0,1,1.06.1l-.12.22a2.48,2.48,0,0,0-1.21,0A1.29,1.29,0,0,0,9.88,19.29Zm20-1.18c0,.56.54,1.13,1.42,1.07l-1-.68.05-.24.93.52A1.38,1.38,0,0,0,29.9,18.11Zm-22,3.83H6.22l-.11.42H7.44A.47.47,0,0,0,7.9,21.94Zm24,0H30.19l-.11.42H31.4A.49.49,0,0,0,31.87,21.94Zm-.06-1.15a6.2,6.2,0,0,1-.75,0c-.37-.05-.52.2-.72.42h1.52ZM6.38,21.2H7.89l0-.41a5,5,0,0,1-.67,0C6.8,20.72,6.59,20.92,6.38,21.2Zm.53-.56h.9a1.68,1.68,0,0,1,0-.2c0-.17-.08-.23-.26-.23C7.2,20.19,7.13,20.46,6.91,20.64Zm24.81-.39c-.42-.15-.6.11-.81.38h.87Z"/><path d="M32.6,5.4c.07.08.12.12.13.16.08.31.32.28.56.28H38s0,0,.07,0S38,6,38,6h-5l-.07.43h5l.14.08a.29.29,0,0,1-.13,0H33a.54.54,0,0,0-.32.13.89.89,0,0,1-1.18,0,.49.49,0,0,0-.26-.1H8.93a.43.43,0,0,0-.25.11.88.88,0,0,1-1.19,0,.55.55,0,0,0-.29-.11H.67L.5,6.48a.45.45,0,0,1,.18-.07h6.6L7.22,6H.73c-.08,0-.2,0-.24-.13H7c.16,0,.27,0,.33-.2a1.64,1.64,0,0,1,.16-.23H6.16s-.11.06-.15.1a.86.86,0,0,1-1.32,0,.32.32,0,0,0-.23-.09H.6s-.06,0-.1-.05.07-.06.1-.07a.47.47,0,0,1,.17,0H4.53l0-.43H.58s0,0-.08-.08.05,0,.08,0h3.7c.18,0,.32,0,.39-.21s.1-.13.18-.22H.51l0,0s.05-.07.08-.08H4.89a6.77,6.77,0,0,1,.78,0,.82.82,0,0,0,.84-.45H.77A1.31,1.31,0,0,1,.5,3.63a.9.9,0,0,1,.27-.07c1.85,0,3.7,0,5.55,0a.81.81,0,0,0,.74-.44H.72a1,1,0,0,1-.23,0L.51,3H6.86a.55.55,0,0,0,.59-.39,1.75,1.75,0,0,0-.32,0H.57a.07.07,0,0,1-.06-.06.09.09,0,0,1,.05-.07H6.49C6.15,2.2,5.94,2,5.52,2,3.93,2,2.35,2,.76,2H.51l0-.05s.05-.06.08-.07a.5.5,0,0,1,.17,0H5.82a1.22,1.22,0,0,0-.14-.35.29.29,0,0,0-.21-.08H.77A1.31,1.31,0,0,1,.5,1.36a.9.9,0,0,1,.27-.07H5.59s0,0,0-.05c0-.37,0-.37.4-.36a2.2,2.2,0,0,1,1,.3.67.67,0,0,0,.37.11H29.59c0-.42,0-.46.46-.4a6.37,6.37,0,0,1,.94.29,1.43,1.43,0,0,0,.39.11h6.4a1.09,1.09,0,0,1,.24.07,1.05,1.05,0,0,1-.24.06H31.36c.14.37.22.44.58.43s.43-.05.65-.07.43,0,.65,0,.48.07.71.07c1.29,0,2.59,0,3.88,0a1.55,1.55,0,0,1,.21,0L38,2H33.88c.07.19.38.17.3.45h3.65c.08,0,.21-.06.19.14H34.31a.52.52,0,0,0-.43.16,2.4,2.4,0,0,1-.36.27H38l0,0s0,.07-.08.08H32a2.7,2.7,0,0,0,.07.35.24.24,0,0,0,.18.08c.68,0,1.37,0,2,0H38s0,0,.07,0,0,.07-.07.08a1.21,1.21,0,0,1-.19,0H32.1l0,.06c0,.38,0,.38.44.38h5.31a1.55,1.55,0,0,1,.21,0v.08H32.16v.44h5.91c-.06.07-.08.13-.12.13a.59.59,0,0,1-.19,0H32.47c-.35,0-.36,0-.31.4a3.42,3.42,0,0,0,.46,0H37.8a1.6,1.6,0,0,1,.23,0V5.4Zm-2.14-3a2.09,2.09,0,0,1-.37-.27A.55.55,0,0,0,29.62,2H9.92l.4.44h1.89a.64.64,0,0,1,.18.06.46.46,0,0,1-.19.08H10.28a.43.43,0,0,0-.23,0c-.16.11-.31.25-.48.39h2.64a.65.65,0,0,1,.19,0v.08H8c.09.51,0,.43.45.43,1.23,0,2.46,0,3.69,0a.38.38,0,0,1,.15,0,.46.46,0,0,1,.1.07.33.33,0,0,1-.1.06,1,1,0,0,1-.17,0h-4c0,.44,0,.44.37.44h3.71l.19,0v.09H8.16l0,.42h4.12s0,0,.07.06,0,.06-.06.06H8.2l0,.39a3.87,3.87,0,0,0,.45,0c.71,0,1.41,0,2.12,0h1.48a1.29,1.29,0,0,1,.19,0l0,.09H8.67l.26.44h3.46v.08a1.55,1.55,0,0,1-.21,0H9l-.06.42H31.25L31.19,6H25.83s-.06,0-.09-.08l0,0h4.93c.34,0,.62,0,.75-.37a.15.15,0,0,1,0-.06H30.22a.52.52,0,0,0-.26.12.81.81,0,0,1-1.14.09.84.84,0,0,0-.7-.21H25.94l-.19,0V5.27h2.75l-.05-.44H26a.84.84,0,0,1-.2,0V4.69h2.58a.27.27,0,0,0,.2-.06,2.5,2.5,0,0,0,.27-.38h-3V4.17a1.7,1.7,0,0,1,.22,0c1.25,0,2.5,0,3.75,0,.37,0,.54-.18.78-.46H25.76V3.59a1,1,0,0,1,.23,0c1.46,0,2.91,0,4.37,0,.35,0,.47-.21.65-.4V3.11H25.76V3A.85.85,0,0,1,26,3h4.89c.33,0,.4-.05.54-.39l-.31,0H25.83a.09.09,0,0,1-.07-.06s0-.06.06-.07h4.64Zm-23.1-1,.23.34a.2.2,0,0,0,.13.08c.28,0,.55,0,.82,0s.56,0,.84,0c.13,0,.25,0,.38,0h20l-.18-.42ZM30.15,5.27h1.38c.34,0,.38,0,.34-.42H30.18ZM7.89,4.85H6.22l0,.42H7.54C7.91,5.27,8,5.23,7.89,4.85Zm24-.59H30.53a.44.44,0,0,0-.4.19.14.14,0,0,0,.11.24h1.65Zm-24,0c-.51,0-1,0-1.48,0-.11,0-.21.15-.31.24s.08.16.13.17H7.9ZM9.31,2.49H8.1a1.2,1.2,0,0,0,1.77-.15,1.38,1.38,0,0,0-1.53-.15A2.38,2.38,0,0,1,9.4,2.3Zm23.95,0a2,2,0,0,0-1.18,0,1.25,1.25,0,0,0,1.76-.21,1.37,1.37,0,0,0-1.54-.15,2.41,2.41,0,0,1,1.07.11Zm-1.94-.21a2.51,2.51,0,0,0-1-.68l.06-.31.94.53a1.38,1.38,0,0,0-1.38-.67C29.89,1.8,30.48,2.28,31.32,2.31Zm-24-.06-1-.68,0-.25.93.52a1.38,1.38,0,0,0-1.37-.67C5.9,1.87,6.65,2.3,7.35,2.25ZM31.83,4.12c0-.43,0-.43-.4-.43a1.47,1.47,0,0,1-.21,0c-.36-.07-.52.18-.73.43Zm-25.28,0H7.88L7.82,3.7C7.35,3.72,6.83,3.53,6.55,4.12Zm1.24-.58a1.37,1.37,0,0,0,0-.25c0-.06,0-.15-.09-.16a.36.36,0,0,0-.25.05,2.35,2.35,0,0,0-.33.36Zm23.89-.4c-.38-.09-.44.23-.65.4h.73ZM8.31,3l-.38-.17C8,3.11,8.17,3,8.31,3ZM32.26,3l-.37-.16C31.91,3.1,32.12,3,32.26,3Z"/><path d="M19.27.84H.78A1,1,0,0,1,.5.77,1.57,1.57,0,0,1,.78.71h37A1.1,1.1,0,0,1,38,.77a1.25,1.25,0,0,1-.26.07Z"/><path d="M38.08,7c-.07.06-.09.1-.13.11a.43.43,0,0,1-.16,0H.75a2.34,2.34,0,0,1-.26,0L.51,7Z"/><path d="M20.07,21h-1.2a5.58,5.58,0,0,0,0,.82c0,.12.15.22.22.31h-.88c.29-.06.29-.29.29-.52V20.3a.38.38,0,0,0-.29-.43h.93c-.51.21-.22.64-.31,1H20c.14-.49,0-.85-.3-1h1c-.24.06-.3.23-.29.46v1.31c0,.22.05.39.29.45h-.94c.29-.06.32-.28.32-.51Z"/><path d="M10.1,22.07c.29,0,.32-.24.32-.47V20.33c0-.22-.05-.4-.29-.47h1.22a.52.52,0,0,1,.53.37c.07.25,0,.45-.34.63l.17.06a.57.57,0,0,1,.39.65.49.49,0,0,1-.46.49C11.14,22.09,10.63,22.07,10.1,22.07Zm.66-1.15c0,.28,0,.53,0,.79a.33.33,0,0,0,.23.34.6.6,0,0,0,.73-.38.56.56,0,0,0-.46-.74A2.73,2.73,0,0,0,10.76,20.92Zm0-.05c.26,0,.52,0,.69-.21a.53.53,0,0,0,0-.6c-.18-.22-.42-.16-.66-.15Z"/><path d="M14.53,22.09h-.88c.29-.07.29-.3.29-.54,0-.42,0-.84,0-1.27a.43.43,0,0,0-.29-.44c.44,0,.88,0,1.32.07a.49.49,0,0,1,.43.48.51.51,0,0,1-.35.52l-.11,0c.29.34.33.84.73,1.15a3.16,3.16,0,0,1-.44,0s-.09-.07-.12-.12c-.13-.25-.24-.51-.38-.75s-.21-.23-.46-.21a4.82,4.82,0,0,0,0,.76C14.31,21.89,14.46,22,14.53,22.09ZM14.27,21A.59.59,0,0,0,15,20.7a.5.5,0,0,0,0-.57.62.62,0,0,0-.67-.22Z"/><path d="M21,22.1a.39.39,0,0,0,.29-.43c0-.45,0-.9,0-1.35,0-.22-.06-.39-.32-.43.49,0,1,0,1.42,0a1,1,0,0,1,.83.72A1.16,1.16,0,0,1,23,21.78a1,1,0,0,1-.78.31C21.83,22.11,21.4,22.1,21,22.1Zm.64-2.19c0,.61,0,1.2,0,1.79a.33.33,0,0,0,.31.35.74.74,0,0,0,.75-.27,1.32,1.32,0,0,0,.08-1.38A1,1,0,0,0,21.61,19.91Z"/><path d="M27.43,22.09h-.91c.29-.08.28-.3.29-.53a1.18,1.18,0,0,0-.26-.85c-.13-.17-.24-.36-.37-.53a3,3,0,0,0-.3-.31h.91c-.25.11-.27.18-.11.42s.28.44.43.68l.42-.63c.15-.23.12-.34-.14-.47h.66A2.84,2.84,0,0,0,27.2,21a1.7,1.7,0,0,0,0,.87C27.2,22,27.35,22,27.43,22.09Z"/><path d="M18,19.87l0,.52c-.15-.49-.55-.5-1-.49a1,1,0,0,0,0,.17v1.52c0,.22,0,.42.29.5H16.4c.28-.07.29-.29.29-.52V19.93c-.44-.11-.68,0-1,.5l0-.56Z"/><path d="M25.78,22.09h-1c.28-.14.31-.21.2-.5s-.17-.43-.62-.42c-.1,0-.28,0-.3.06a3.2,3.2,0,0,0-.16.68c0,.05.12.12.18.18h-.68a.9.9,0,0,0,.48-.61l.57-1.44a1.91,1.91,0,0,1,.11-.26l.13.27c.23.54.46,1.08.68,1.62A.6.6,0,0,0,25.78,22.09Zm-1-1-.36-.85-.32.85Z"/><path d="M12.42,22.09c.24-.07.29-.25.29-.47,0-.44,0-.88,0-1.31a.4.4,0,0,0-.3-.44h1a.41.41,0,0,0-.37.47c0,.43,0,.86,0,1.29s0,.34.33.46Z"/><path d="M14.47,3.05c-.53.21-.24.65-.34,1h1.2c.13-.52,0-.84-.29-1h1c-.25.06-.3.24-.3.47q0,.65,0,1.29c0,.22.05.4.3.47h-.94c.3-.07.31-.29.31-.53s0-.39,0-.6h-1.2a5.33,5.33,0,0,0,0,.8c0,.12.15.23.22.32h-1c.34-.07.38-.26.37-.5,0-.43,0-.86,0-1.29a.39.39,0,0,0-.29-.43Z"/><path d="M18.64,5.27c.25-.07.3-.24.3-.47,0-.42,0-.84,0-1.27,0-.22,0-.42-.35-.46.47,0,.89,0,1.31,0a.53.53,0,0,1,.51.63c0,.29-.23.47-.58.48h-.54a5.18,5.18,0,0,0,0,.79c0,.12.16.21.22.3Zm.65-2.18v1c.26,0,.52,0,.67-.21a.56.56,0,0,0,0-.62C19.81,3.05,19.56,3.06,19.29,3.09Z"/><path d="M21.27,4.18a4.77,4.77,0,0,0,0,.76,1,1,0,0,0,.23.33h-.87c.28-.07.29-.28.29-.52,0-.42,0-.84,0-1.27,0-.27,0-.32-.28-.41.42,0,.84,0,1.26,0a.52.52,0,0,1,.5.63c0,.28-.23.45-.57.47C21.65,4.19,21.47,4.18,21.27,4.18Zm0-1.09v1c.26,0,.51,0,.67-.2a.56.56,0,0,0,0-.62C21.8,3.05,21.55,3.06,21.28,3.09Z"/><path d="M24,5.27h-.91c.26-.07.28-.27.29-.49a1.21,1.21,0,0,0-.27-.9c-.13-.16-.22-.35-.35-.51a3.14,3.14,0,0,0-.31-.32h.92c-.25.11-.28.18-.13.41s.28.45.44.69l.43-.63c.14-.23.11-.34-.14-.47h.65a3.25,3.25,0,0,0-.87,1.15,1.66,1.66,0,0,0,0,.83C23.81,5.13,24,5.2,24,5.27Z"/><path d="M18.39,5.28h-1c.22-.08.39-.18.29-.38s0-.53-.36-.55c-.62,0-.62,0-.76.45a.35.35,0,0,0,.19.48h-.64a.85.85,0,0,0,.4-.53c.2-.5.4-1,.59-1.51,0-.07.06-.14.12-.26.06.12.1.18.13.25.23.55.45,1.1.69,1.64A2.1,2.1,0,0,0,18.39,5.28Zm-1.59-1h.68l-.35-.85Z"/><path d="M6.52,21H.71l0-.07a.52.52,0,0,1,.16-.06h1c1.48,0,3,0,4.44,0a.82.82,0,0,0,.81-.45H.92a1,1,0,0,1-.23-.05l0-.09H1c2,0,4,0,6,0,.35,0,.5-.17.67-.44H.94a.86.86,0,0,1-.16,0s-.05,0-.08-.06.05-.06.08-.06a.61.61,0,0,1,.19,0c2.06,0,4.11,0,6.17,0-.49-.11-.89-.45-1.46-.43-1.57,0-3.15,0-4.72,0a1,1,0,0,1-.17,0,.47.47,0,0,1-.09-.06s.05-.07.08-.07a.49.49,0,0,1,.17,0H6.12a2.69,2.69,0,0,0-.2-.38s-.14-.05-.21-.05H.9a1.55,1.55,0,0,1-.21,0l0-.08H5.86l0-.44H.66c.06-.07.08-.13.11-.14A1.76,1.76,0,0,1,1,18H38c.09,0,.23-.06.22.14H31c.19.14.34.27.51.38a.49.49,0,0,0,.24.05H38c.08,0,.21-.07.23.12H31.64c.08.15.11.31.21.37a.5.5,0,0,0,.41,0,1.88,1.88,0,0,1,1.71,0,.59.59,0,0,0,.27,0h3.87a.41.41,0,0,1,.11.07s-.07.06-.12.07a.65.65,0,0,1-.14,0H34.39l-.09.44H38a1.55,1.55,0,0,1,.21,0v.09H34.29a.54.54,0,0,0-.3.1,1.6,1.6,0,0,1-1.65.08l-.22-.09h0c0,.33,0,.33.33.33h5.7s.06,0,.09,0-.06.07-.1.08a1.2,1.2,0,0,1-.19,0H32.19l.07.44H38a1.57,1.57,0,0,1,.23,0V21H32.29l.05.44h5.88v.08a1.16,1.16,0,0,1-.18,0H32.37a.41.41,0,0,0,0,.07c0,.37,0,.37.35.37h5.52l0,.05s-.06.07-.09.08H32.36l0,.18a1.87,1.87,0,0,0,1.15.25h4.66s.05,0,.07.05a.46.46,0,0,1-.07.07H33a2.68,2.68,0,0,0,.13.34.23.23,0,0,0,.18.09h4.89a.09.09,0,0,1,.06.06.1.1,0,0,1-.06.07H33.42c-.21,0-.37,0-.4.27a.5.5,0,0,1-.07.17h5.27l0,.05a.28.28,0,0,1-.09.07H33a.69.69,0,0,0-.31.09.91.91,0,0,1-.89,0,.64.64,0,0,0-.3-.08H9a.57.57,0,0,0-.29.08.92.92,0,0,1-.91,0,.69.69,0,0,0-.32-.08H.92c-.07,0-.2.08-.22-.12H7.57l-.16-.44H.65c.07-.07.09-.12.13-.13a.53.53,0,0,1,.18,0H7.41l.16-.43c-.45,0-.89,0-1.32,0a.38.38,0,0,0-.17.08.87.87,0,0,1-1,0,.57.57,0,0,0-.29-.08c-1.26,0-2.52,0-3.79,0H.71l0-.09a.65.65,0,0,1,.19,0H4.81l-.12-.43H.77s-.05,0-.07-.06,0-.06.07-.06H4.43c.2,0,.32,0,.36-.24a1.07,1.07,0,0,1,.11-.2H1a.5.5,0,0,1-.17,0,.46.46,0,0,1-.1-.07.19.19,0,0,1,.1,0H.94c1.31,0,2.62,0,3.92,0a1,1,0,0,0,.35-.07.79.79,0,0,1,.69,0,.28.28,0,0,0,.39-.07A2,2,0,0,1,6.55,21Zm25-1.15H28.88v-.07a.48.48,0,0,1,.17-.05h2.08l-.69-.31a1.26,1.26,0,0,0-.42-.12H10.43a.93.93,0,0,1-.09.33A1.32,1.32,0,0,1,9,20.19,6.7,6.7,0,0,1,8.12,20l.08.33H9.67v.09c-.47.08-.95,0-1.42.05,0,.4,0,.42.37.42h.89a.58.58,0,0,1,.17.06l0,.08H8.31l.07.42H9.56s.07,0,.11.06-.07.06-.11.06H8.38l0,.44H9.51a.58.58,0,0,1,.17.06l0,.07H8.38v.22a4.23,4.23,0,0,0,.63.21,4.85,4.85,0,0,0,.66,0v.07c-.2.14-.45,0-.67.08l.15.4H31.39l.14-.42H30.41a.68.68,0,0,0-.43.13.84.84,0,0,1-1.2-1.11c0-.09.08-.18.13-.27a.59.59,0,0,0,.17,0,.91.91,0,0,1,.89,0,.19.19,0,0,0,.19,0c.12-.1.23-.23.38-.38H28.88V20.9a.61.61,0,0,1,.18,0c.43,0,.87,0,1.3,0s.52-.18.75-.46H28.88v-.09l.19,0c.59,0,1.19,0,1.78,0A.67.67,0,0,0,31.56,19.83ZM7,18.15a2.08,2.08,0,0,1,.38.26.59.59,0,0,0,.47.16h22l0-.42Zm24.4,5.13H9.14l-.14.4H31.53Zm-1.27-4.15A.71.71,0,0,1,30,19c-.08-.25-.26-.29-.5-.29H7.69c.23.5.3.53.77.33a1.77,1.77,0,0,1,1.41,0,1.32,1.32,0,0,0,.43.09H30.11Zm2,2.86a1.59,1.59,0,0,0,0-.31c0-.05-.09-.13-.14-.13-.49,0-1,0-1.48,0-.06,0-.19.12-.18.14s.11.28.18.28C31,22,31.52,22,32.08,22Zm-24-.44c-.56,0-1.1,0-1.63,0-.06,0-.12.09-.18.14s0,.3.22.3H8.11ZM33.6,19.38l-.13.25H32.22A1.28,1.28,0,0,0,34,19.48a1.38,1.38,0,0,0-1.51-.17Zm-26,.07a2.74,2.74,0,0,0-1-.69l0-.24a2.13,2.13,0,0,1,1,.51,1.38,1.38,0,0,0-1.38-.73C6.08,18.9,6.67,19.39,7.56,19.45Zm2.52,0a1.35,1.35,0,0,0-1.54-.16,2.12,2.12,0,0,1,1.06.11l-.12.22a2.36,2.36,0,0,0-1.21,0A1.3,1.3,0,0,0,10.08,19.49Zm20-1.19a1.2,1.2,0,0,0,1.42,1.08l-1-.68.05-.24.92.52A1.4,1.4,0,0,0,30.09,18.3Zm-22,3.84H6.42l-.12.42H7.63A.48.48,0,0,0,8.1,22.14Zm24,0H30.38l-.11.42H31.6A.49.49,0,0,0,32.07,22.14ZM32,21a6.42,6.42,0,0,1-.76,0c-.36-.05-.51.19-.71.42h1.52ZM6.58,21.4H8.09L8,21a5,5,0,0,1-.67,0C7,20.92,6.79,21.12,6.58,21.4Zm.53-.56H8c0-.08,0-.14,0-.2s-.07-.23-.25-.24C7.4,20.39,7.33,20.65,7.11,20.84Zm24.8-.39c-.41-.16-.59.11-.81.38H32Z"/><path d="M32.8,5.6c.07.08.12.11.13.16.08.31.32.28.56.28h4.66s.05,0,.07,0a.18.18,0,0,1-.08.07h-5L33,6.6h4.89a.75.75,0,0,1,.15,0,.91.91,0,0,1,.14.07s-.09.06-.13.06H33.15a.59.59,0,0,0-.33.13.87.87,0,0,1-1.17,0,.42.42,0,0,0-.26-.1H9.13a.41.41,0,0,0-.25.11.88.88,0,0,1-1.19,0,.55.55,0,0,0-.3-.11H.87A.61.61,0,0,1,.7,6.67a.64.64,0,0,1,.18-.06h6.6l-.06-.44H.93c-.08,0-.2.06-.25-.13H7.22c.16,0,.27,0,.33-.2a.88.88,0,0,1,.16-.23c-.47,0-.91,0-1.35,0a.24.24,0,0,0-.15.1.86.86,0,0,1-1.32,0,.34.34,0,0,0-.24-.09c-1.23,0-2.47,0-3.7,0H.8s-.06,0-.1,0a.23.23,0,0,1,.1-.07.47.47,0,0,1,.17,0H4.73l0-.43H1A.47.47,0,0,1,.78,5S.73,5,.7,5s.05,0,.08,0h3.7c.17,0,.31,0,.38-.2a1.12,1.12,0,0,1,.19-.22H.71l0,0a.2.2,0,0,1,.08-.08.59.59,0,0,1,.19,0H5.09a6.77,6.77,0,0,1,.78,0,.84.84,0,0,0,.84-.45H1A1.38,1.38,0,0,1,.7,3.83,1.38,1.38,0,0,1,1,3.75c1.85,0,3.7,0,5.55,0a.78.78,0,0,0,.73-.44H.92a1.85,1.85,0,0,1-.23,0l0-.09H1c2,0,4.07,0,6.1,0a.55.55,0,0,0,.6-.4l-.32,0H.76s-.05,0-.05-.06,0-.07.05-.07H6.69c-.34-.21-.55-.45-1-.44-1.59,0-3.18,0-4.76,0H.71l0-.05s.05-.07.08-.07a.49.49,0,0,1,.17,0H6a1.6,1.6,0,0,0-.14-.35.29.29,0,0,0-.21-.08H1A1.31,1.31,0,0,1,.7,1.56.92.92,0,0,1,1,1.48H5.79s0,0,0-.05c0-.37,0-.37.4-.36a2,2,0,0,1,1,.3.73.73,0,0,0,.38.11H29.78c0-.43,0-.46.47-.4a6.37,6.37,0,0,1,.94.29,1.43,1.43,0,0,0,.39.11H38a.75.75,0,0,1,.24.08,1.05,1.05,0,0,1-.24.06H31.56c.14.37.22.44.58.43s.43-.06.65-.07.43,0,.65,0,.47.07.71.07H38a1.55,1.55,0,0,1,.21,0l0,.08H34.08c.06.19.38.17.3.44H38c.08,0,.21-.06.18.14H34.5a.49.49,0,0,0-.42.17,3.05,3.05,0,0,1-.36.27h4.5l0,.05s-.05.07-.09.08a1,1,0,0,1-.17,0H32.16a1.21,1.21,0,0,0,.07.35s.11.08.18.08h5.74s.05,0,.07.05,0,.07-.07.07a.61.61,0,0,1-.19,0H32.29s0,0,0,.06c0,.38,0,.38.43.38H38a1.55,1.55,0,0,1,.21,0v.08H32.36v.44h5.91c-.06.07-.09.12-.12.13A.59.59,0,0,1,38,5H32.67c-.36,0-.36,0-.31.4.15,0,.3,0,.45,0H38a1.57,1.57,0,0,1,.23,0V5.6Zm-2.14-3a2.82,2.82,0,0,1-.37-.26.55.55,0,0,0-.47-.17H10.12l.4.43h1.89a.64.64,0,0,1,.18.06.49.49,0,0,1-.19.07H10.47a.41.41,0,0,0-.22,0c-.16.11-.31.25-.48.39h2.64a1.62,1.62,0,0,1,.19,0l0,.09H8.2c.09.51,0,.43.45.43h3.69a.32.32,0,0,1,.14,0,.34.34,0,0,1,.11.07.33.33,0,0,1-.1.06H8.33c0,.44,0,.44.37.44h3.71a.77.77,0,0,1,.19,0l0,.08H8.36l0,.43h4.12s.05,0,.07.06,0,.06-.06.06H8.4l0,.39a3.64,3.64,0,0,0,.45,0h3.6a.67.67,0,0,1,.19,0l0,.09H8.87L9.13,6h3.45l0,.09-.21,0H9.14l-.06.42H31.45l-.06-.42H26s-.06,0-.09-.08l0,0h4.93c.34,0,.62,0,.75-.38v0c-.41,0-.81,0-1.22,0a.42.42,0,0,0-.26.12A.81.81,0,0,1,29,5.82a.9.9,0,0,0-.7-.22H26.13a.58.58,0,0,1-.18,0V5.47h2.75L28.66,5H26.15A.65.65,0,0,1,26,5V4.89h2.58a.32.32,0,0,0,.2-.06A3.12,3.12,0,0,0,29,4.45H26l0-.08a.93.93,0,0,1,.23,0c1.25,0,2.5,0,3.75,0,.36,0,.54-.19.78-.47H26V3.78a1.81,1.81,0,0,1,.23,0c1.46,0,2.91,0,4.37,0,.35,0,.47-.21.65-.4V3.3H26V3.22l.22,0h4.9c.32,0,.4,0,.54-.39l-.31,0H26A.09.09,0,0,1,26,2.69.09.09,0,0,1,26,2.62h4.64Zm-23.1-1c.09.13.15.24.23.34a.26.26,0,0,0,.13.08l.82,0h.84c.12,0,.25,0,.37,0H30l-.18-.42ZM30.35,5.47h1.37c.35,0,.39,0,.35-.42H30.38ZM8.09,5.05H6.42l0,.42H7.74C8.11,5.47,8.14,5.43,8.09,5.05Zm24-.59H30.73a.45.45,0,0,0-.4.18.19.19,0,0,0,0,.16.18.18,0,0,0,.13.09c.32,0,.64,0,.95,0h.71Zm-24,0c-.51,0-1,0-1.48,0-.11,0-.21.16-.31.25s.08.16.13.16c.55,0,1.1,0,1.66,0ZM9.5,2.69H8.3a1.2,1.2,0,0,0,1.77-.15,1.38,1.38,0,0,0-1.53-.15A2.24,2.24,0,0,1,9.6,2.5Zm24,0a1.94,1.94,0,0,0-1.17,0A1.24,1.24,0,0,0,34,2.54a1.38,1.38,0,0,0-1.53-.16,2.56,2.56,0,0,1,1.07.12ZM31.52,2.5a2.72,2.72,0,0,0-1-.68l.06-.3.94.53a1.38,1.38,0,0,0-1.38-.67C30.08,2,30.68,2.48,31.52,2.5Zm-24,0-1-.68.05-.25L7.49,2a1.37,1.37,0,0,0-1.36-.67C6.1,2.07,6.85,2.5,7.55,2.45ZM32,4.32c0-.43,0-.43-.4-.43h-.21c-.36-.07-.52.18-.73.43Zm-25.28,0H8.08L8,3.9C7.55,3.91,7,3.73,6.75,4.32ZM8,3.74c0-.1,0-.18,0-.25s-.05-.15-.09-.16a.36.36,0,0,0-.25,0,2.35,2.35,0,0,0-.33.36Zm23.88-.4c-.37-.09-.43.23-.64.4H32ZM8.51,3.16,8.13,3C8.15,3.31,8.37,3.15,8.51,3.16Zm24,0L32.09,3C32.11,3.3,32.32,3.16,32.46,3.15Z"/><path d="M19.46,1H1A1.28,1.28,0,0,1,.7,1,1.57,1.57,0,0,1,1,.91H38a1.1,1.1,0,0,1,.26.06A1.34,1.34,0,0,1,38,1Z"/><path d="M38.28,7.19c-.07.06-.09.1-.13.11H.94l-.25,0,0-.08Z"/><path d="M20.26,21.16h-1.2a7.42,7.42,0,0,0,0,.82c0,.12.16.22.23.31h-.88c.29-.07.29-.29.29-.52V20.5a.38.38,0,0,0-.29-.43h.93c-.51.21-.22.64-.32,1h1.2c.14-.49,0-.85-.3-1h1c-.24.07-.3.24-.3.47,0,.43,0,.87,0,1.31,0,.22,0,.39.29.45H20c.29-.06.31-.28.31-.52Z"/><path d="M10.3,22.27c.29,0,.32-.24.32-.47,0-.42,0-.84,0-1.27,0-.22,0-.4-.3-.47h1.23a.51.51,0,0,1,.53.37c.07.25,0,.45-.34.63l.17.06a.58.58,0,0,1,.39.65.49.49,0,0,1-.46.49C11.34,22.28,10.83,22.27,10.3,22.27ZM11,21.12c0,.28,0,.53,0,.79a.34.34,0,0,0,.23.34.6.6,0,0,0,.73-.38.57.57,0,0,0-.46-.75A4.16,4.16,0,0,0,11,21.12Zm0-.05c.26,0,.52,0,.69-.21a.53.53,0,0,0,0-.6c-.18-.22-.42-.16-.66-.16Z"/><path d="M14.73,22.29h-.88c.29-.07.29-.3.29-.54,0-.42,0-.84,0-1.27a.41.41,0,0,0-.29-.44c.45,0,.89,0,1.33.07a.49.49,0,0,1,.43.48.51.51,0,0,1-.35.52l-.11,0c.29.34.33.83.73,1.15a3.16,3.16,0,0,1-.44,0s-.09-.07-.12-.12c-.13-.25-.24-.51-.38-.75s-.21-.23-.46-.21a4.68,4.68,0,0,0,0,.75C14.51,22.09,14.65,22.2,14.73,22.29Zm-.26-1.15a.58.58,0,0,0,.68-.24.5.5,0,0,0,0-.58c-.15-.24-.39-.24-.66-.21Z"/><path d="M21.17,22.3a.4.4,0,0,0,.29-.43V20.51c0-.21-.05-.39-.31-.42.49,0,1,0,1.42,0a1,1,0,0,1,.83.72A1.16,1.16,0,0,1,23.24,22a1,1,0,0,1-.78.31C22,22.31,21.6,22.3,21.17,22.3Zm.64-2.19c0,.61,0,1.2,0,1.79a.33.33,0,0,0,.3.35.76.76,0,0,0,.76-.27A1.32,1.32,0,0,0,23,20.6,1,1,0,0,0,21.81,20.11Z"/><path d="M27.63,22.29h-.91c.28-.08.27-.3.29-.53a1.17,1.17,0,0,0-.26-.85c-.13-.17-.24-.36-.37-.54s-.21-.21-.3-.3H27c-.25.11-.27.18-.12.42l.44.68.42-.63c.15-.23.12-.34-.14-.47h.65a3,3,0,0,0-.85,1.13,1.71,1.71,0,0,0,0,.87C27.4,22.15,27.55,22.23,27.63,22.29Z"/><path d="M18.19,20.07l0,.52c-.15-.49-.55-.5-1-.49a1,1,0,0,0,0,.16v1.53c0,.22,0,.42.28.5h-.9c.28-.07.29-.29.29-.52V20.13c-.44-.11-.68,0-1,.49l0-.55Z"/><path d="M26,22.29H25c.28-.15.31-.21.19-.5s-.16-.43-.61-.42c-.11,0-.28,0-.3.06a3.06,3.06,0,0,0-.16.68c0,.05.12.12.18.18h-.68a1,1,0,0,0,.48-.61c.19-.48.38-1,.56-1.44l.12-.26c.06.13.1.19.13.27.23.53.45,1.07.68,1.61A.58.58,0,0,0,26,22.29Zm-1-1-.36-.85-.32.85Z"/><path d="M12.62,22.29c.24-.07.29-.25.29-.47,0-.44,0-.88,0-1.31a.39.39,0,0,0-.3-.44h1a.41.41,0,0,0-.37.47c0,.43,0,.86,0,1.29s.05.34.33.46Z"/><path d="M14.67,3.25c-.53.21-.24.64-.34,1h1.2c.13-.52,0-.84-.29-1h1c-.25.07-.3.25-.3.47q0,.64,0,1.29c0,.23,0,.41.3.47h-.94c.29-.06.31-.28.31-.52v-.6h-1.2a5.33,5.33,0,0,0,0,.8c0,.12.15.23.22.32h-.95C14,5.4,14,5.21,14,5q0-.64,0-1.29a.39.39,0,0,0-.29-.43Z"/><path d="M18.84,5.47c.24-.07.3-.24.3-.47,0-.42,0-.85,0-1.27,0-.23,0-.42-.35-.47.47,0,.89,0,1.31,0a.54.54,0,0,1,.51.63c0,.29-.23.47-.58.48h-.54a5.19,5.19,0,0,0,0,.79c0,.11.15.21.22.3Zm.65-2.18v1c.26,0,.51,0,.67-.21a.56.56,0,0,0,0-.62C20,3.25,19.75,3.26,19.49,3.29Z"/><path d="M21.47,4.38a4.63,4.63,0,0,0,0,.75c0,.14.16.25.23.34h-.88c.28-.07.3-.29.3-.52,0-.42,0-.85,0-1.27s0-.32-.28-.41c.41,0,.84,0,1.26,0a.53.53,0,0,1,.5.63.53.53,0,0,1-.57.48Zm0-1.09v1c.26,0,.51,0,.67-.21a.56.56,0,0,0,0-.62C22,3.25,21.75,3.26,21.48,3.29Z"/><path d="M24.24,5.47h-.91c.26-.07.28-.27.29-.49a1.25,1.25,0,0,0-.27-.91c-.13-.15-.22-.34-.35-.5a3.14,3.14,0,0,0-.31-.32h.92c-.25.11-.28.18-.13.41s.28.45.44.69c.15-.23.29-.43.43-.63s.11-.34-.15-.47h.65A3.06,3.06,0,0,0,24,4.4a1.56,1.56,0,0,0,0,.83C24,5.33,24.16,5.4,24.24,5.47Z"/><path d="M18.59,5.48h-1c.22-.08.39-.18.28-.38s0-.53-.35-.55c-.62,0-.62,0-.76.44a.35.35,0,0,0,.18.49h-.63a.85.85,0,0,0,.4-.53c.2-.5.4-1,.59-1.51,0-.07.06-.14.12-.26.06.12.1.18.13.25.23.55.45,1.1.69,1.64A2.1,2.1,0,0,0,18.59,5.48ZM17,4.5h.67l-.35-.85Z"/></g><g class="cls-3"><path d="M6.18,20.64H.37l0-.07a.52.52,0,0,1,.16-.06h1c1.48,0,3,0,4.44,0a.82.82,0,0,0,.81-.45H.58A1,1,0,0,1,.35,20l0-.09H.62c2,0,4,0,6,0,.35,0,.49-.17.67-.44H.6a.86.86,0,0,1-.16,0s0,0-.08-.06,0-.06.08-.06a.61.61,0,0,1,.19,0c2.06,0,4.11,0,6.17,0-.49-.11-.89-.45-1.46-.43-1.57,0-3.15,0-4.72,0a1,1,0,0,1-.17,0,.47.47,0,0,1-.09-.06s0-.07.08-.07a.49.49,0,0,1,.17,0H5.78a2.69,2.69,0,0,0-.2-.38.35.35,0,0,0-.21-.05H.56a1.55,1.55,0,0,1-.21,0l0-.08H5.52l0-.44H.31c.07-.07.09-.13.12-.14a1.76,1.76,0,0,1,.23,0h28.6c2.8,0,5.6,0,8.4,0,.09,0,.23-.06.22.14H30.62c.19.14.34.27.51.38a.49.49,0,0,0,.24.05h6.29c.08,0,.21-.07.23.12H31.3c.08.15.11.31.21.37a.5.5,0,0,0,.41,0,1.88,1.88,0,0,1,1.71,0,.59.59,0,0,0,.27,0h3.87a.26.26,0,0,1,.11.07s-.07.06-.12.07a.65.65,0,0,1-.14,0H34.05l-.09.44h3.72a1.55,1.55,0,0,1,.21,0v.09H34a.54.54,0,0,0-.3.1,1.6,1.6,0,0,1-1.65.08l-.22-.09h0c0,.33,0,.33.33.33h5.7s.06,0,.09,0-.06.07-.1.08H31.85l.07.44h5.74a1.57,1.57,0,0,1,.23,0v.08H32l.05.45h5.88v.08a1.16,1.16,0,0,1-.18,0H32a.41.41,0,0,0,0,.07c0,.37,0,.37.35.37h5.52l0,.05s-.06.07-.09.08H32L32,22a1.87,1.87,0,0,0,1.15.25h4.66s0,0,.07.05l-.07.07a1,1,0,0,1-.17,0h-5a2.68,2.68,0,0,0,.13.34.21.21,0,0,0,.18.09h4.89a.09.09,0,0,1,.06.06.1.1,0,0,1-.06.07H33.08c-.21,0-.37,0-.4.27a.87.87,0,0,1-.07.17h5.27l0,.05a.28.28,0,0,1-.09.07H32.66a.69.69,0,0,0-.31.09.91.91,0,0,1-.89,0,.64.64,0,0,0-.3-.08H8.69a.57.57,0,0,0-.29.08.92.92,0,0,1-.91,0,.69.69,0,0,0-.32-.08H.58c-.07,0-.2.08-.22-.12H7.23l-.16-.44H.31c.07-.07.09-.12.13-.13a.53.53,0,0,1,.18,0H7.07l.16-.43c-.45,0-.89,0-1.32,0a.3.3,0,0,0-.17.08.87.87,0,0,1-1,0,.57.57,0,0,0-.29-.08c-1.26,0-2.52,0-3.79,0H.37l0-.09a.65.65,0,0,1,.19,0H4.47l-.12-.43H.43s0,0-.07-.06,0-.06.07-.06H4.09c.2,0,.32,0,.36-.24a.83.83,0,0,1,.11-.2H.63a.49.49,0,0,1-.17,0,.46.46,0,0,1-.1-.07.19.19,0,0,1,.1-.05H4.52A1,1,0,0,0,4.87,21a.79.79,0,0,1,.69,0A.28.28,0,0,0,6,20.94a2,2,0,0,1,.26-.24Zm25-1.15H28.54v-.07a.48.48,0,0,1,.17-.05h2.08l-.69-.31a1.26,1.26,0,0,0-.42-.12H10.09a.93.93,0,0,1-.09.33,1.32,1.32,0,0,1-1.37.59,6.7,6.7,0,0,1-.85-.23l.08.33H9.33V20c-.47.08-.95,0-1.42.05,0,.4,0,.42.37.42h.89a.58.58,0,0,1,.17.06l0,.08H8l.07.42H9.22s.07,0,.11.06a.6.6,0,0,1-.11.06H8l0,.44H9.17a.58.58,0,0,1,.17.06l0,.07H8V22a4.23,4.23,0,0,0,.63.21,4.82,4.82,0,0,0,.66,0v.07c-.2.13-.45,0-.67.08l.15.4H31l.15-.42H30.07a.68.68,0,0,0-.43.13.84.84,0,0,1-1.2-1.11c0-.09.08-.18.13-.27a.59.59,0,0,0,.17,0,.91.91,0,0,1,.89,0,.17.17,0,0,0,.18,0,4.51,4.51,0,0,0,.39-.38H28.54v-.08a.61.61,0,0,1,.18,0c.43,0,.87,0,1.3,0s.52-.18.75-.46H28.54V20l.19,0c.59,0,1.19,0,1.78,0A.67.67,0,0,0,31.22,19.49ZM6.64,17.81a2.08,2.08,0,0,1,.38.26.59.59,0,0,0,.47.16h22l0-.42ZM31,22.94H8.8l-.14.4H31.19Zm-1.27-4.15a.71.71,0,0,1-.09-.15c-.08-.25-.26-.29-.5-.29H7.35c.23.5.3.53.77.33a1.77,1.77,0,0,1,1.41,0,1.32,1.32,0,0,0,.43.09H29.77Zm2,2.86a1.59,1.59,0,0,0,0-.31c0-.05-.09-.13-.14-.13-.49,0-1,0-1.48,0-.06,0-.19.12-.18.14s.11.28.18.28C30.65,21.66,31.18,21.65,31.74,21.65Zm-24-.44c-.56,0-1.1,0-1.63,0-.06,0-.12.09-.18.14s0,.3.22.3H7.77ZM33.26,19l-.13.25H31.88a1.28,1.28,0,0,0,1.82-.15A1.38,1.38,0,0,0,32.19,19Zm-26,.07a2.74,2.74,0,0,0-1-.69l0-.24a2.19,2.19,0,0,1,1,.51A1.38,1.38,0,0,0,5.79,18C5.74,18.56,6.33,19.05,7.22,19.11Zm2.52,0A1.35,1.35,0,0,0,8.2,19a2.12,2.12,0,0,1,1.06.11l-.12.22a2.36,2.36,0,0,0-1.21,0A1.3,1.3,0,0,0,9.74,19.15Zm20-1.19A1.2,1.2,0,0,0,31.17,19l-1-.68.05-.24.92.52A1.4,1.4,0,0,0,29.75,18Zm-22,3.84H6.08L6,22.21H7.29A.48.48,0,0,0,7.76,21.8Zm24,0H30l-.11.41h1.33A.49.49,0,0,0,31.73,21.8Zm-.06-1.16a6.42,6.42,0,0,1-.76,0c-.36-.05-.51.19-.71.42h1.52Zm-25.43.42H7.75l0-.42a5,5,0,0,1-.67,0C6.66,20.58,6.45,20.78,6.24,21.06Zm.53-.56h.9c0-.08,0-.14,0-.2s-.07-.23-.26-.24S7,20.31,6.77,20.5Zm24.8-.39c-.41-.16-.59.11-.81.38h.88Z"/><path d="M32.46,5.26c.07.08.12.11.13.16.08.31.32.28.56.28h4.66s0,0,.07,0a.18.18,0,0,1-.08.07h-5l-.08.43h5a.91.91,0,0,1,.14.07s-.09.06-.13.06H32.81a.59.59,0,0,0-.33.13.87.87,0,0,1-1.17,0,.42.42,0,0,0-.26-.1H8.79a.41.41,0,0,0-.25.11.88.88,0,0,1-1.19,0,.55.55,0,0,0-.3-.11H.53a.61.61,0,0,1-.17-.07.64.64,0,0,1,.18-.06h6.6l-.06-.44H.59c-.08,0-.2.06-.25-.13H6.88c.16,0,.27,0,.33-.2a.74.74,0,0,1,.16-.23H6a.24.24,0,0,0-.15.1.86.86,0,0,1-1.32,0,.34.34,0,0,0-.24-.09H.46a.24.24,0,0,1-.1,0s.06-.07.1-.07a.47.47,0,0,1,.17,0H4.39l0-.43H.61a.47.47,0,0,1-.17,0s0,0-.08-.07,0-.05.08-.05h3.7c.17,0,.31,0,.38-.2a1.12,1.12,0,0,1,.19-.22H.37l0,0S.4,4,.43,4A.59.59,0,0,1,.62,4H4.75a6.77,6.77,0,0,1,.78,0,.84.84,0,0,0,.84-.45H.62a1.38,1.38,0,0,1-.26-.06,1.38,1.38,0,0,1,.27-.08c1.85,0,3.7,0,5.55,0A.78.78,0,0,0,6.91,3H.58a1.85,1.85,0,0,1-.23,0l0-.09H.61c2,0,4.07,0,6.1,0a.55.55,0,0,0,.6-.4L7,2.43H.42s0,0,0-.06,0-.07,0-.07H6.35c-.34-.21-.55-.45-1-.44-1.59,0-3.18,0-4.76,0H.37l0-.05s.05-.07.08-.07a.47.47,0,0,1,.17,0H5.68a1.42,1.42,0,0,0-.14-.35.29.29,0,0,0-.21-.08H.63a1.31,1.31,0,0,1-.27-.06.92.92,0,0,1,.27-.08H5.45s0,0,0,0c0-.37,0-.37.4-.36a2,2,0,0,1,1,.3.73.73,0,0,0,.38.11H29.44c0-.43,0-.46.47-.4a7.79,7.79,0,0,1,.94.28,1.17,1.17,0,0,0,.39.12h6.4a.75.75,0,0,1,.24.08,1.05,1.05,0,0,1-.24.06H31.22c.14.37.22.44.58.43s.43-.06.65-.07.43,0,.65,0,.47.07.71.07h3.88a1.55,1.55,0,0,1,.21,0l0,.08H33.74c.06.19.38.17.3.44h3.65c.08,0,.21-.06.18.14H34.16a.49.49,0,0,0-.42.17,3.05,3.05,0,0,1-.36.27h4.5l0,0s0,.07-.09.08a1,1,0,0,1-.17,0H31.82a1.21,1.21,0,0,0,.07.35s.11.08.18.08h5.74s0,0,.07.05,0,.07-.07.07a.61.61,0,0,1-.19,0H32s0,.05,0,.06C32,4,32,4,32.36,4h5.32a1.55,1.55,0,0,1,.21,0v.08H32v.44h5.91c-.06.07-.09.12-.12.13a.59.59,0,0,1-.19,0H32.33c-.36,0-.36,0-.31.4.15,0,.3,0,.45,0h5.19a1.57,1.57,0,0,1,.23,0v.09Zm-2.14-3A2.82,2.82,0,0,1,30,2a.55.55,0,0,0-.47-.17H9.78l.4.43h1.89a.64.64,0,0,1,.18.06.73.73,0,0,1-.19.07H10.13a.41.41,0,0,0-.22,0c-.16.11-.31.25-.48.39h2.64a1.62,1.62,0,0,1,.19,0l0,.09H7.86c.09.51,0,.43.45.43H12a.32.32,0,0,1,.14,0,.34.34,0,0,1,.11.07.33.33,0,0,1-.1.06,1,1,0,0,1-.17,0H8C8,4,8,4,8.36,4h3.71a1.62,1.62,0,0,1,.19,0l0,.09H8l0,.43h4.12s.05,0,.07.06,0,.06-.06.06H8.06l0,.39a3.64,3.64,0,0,0,.45,0h3.6a.67.67,0,0,1,.19,0l0,.09H8.53l.26.43h3.45l0,.08a.78.78,0,0,1-.21,0H8.8l-.06.42H31.11l-.06-.42H25.69s-.06-.05-.09-.08l0,0h4.93c.34,0,.62,0,.75-.38V5.27H30.08a.42.42,0,0,0-.26.12.81.81,0,0,1-1.14.09.9.9,0,0,0-.7-.22H25.79a.58.58,0,0,1-.18,0V5.13h2.75l-.05-.44H25.81a.65.65,0,0,1-.2-.05V4.55H28.2a.32.32,0,0,0,.2-.06c.09-.11.17-.23.27-.38H25.62l0-.08a.93.93,0,0,1,.23,0c1.25,0,2.5,0,3.75,0,.36,0,.54-.19.78-.47H25.62V3.44a1.81,1.81,0,0,1,.23,0c1.46,0,2.91,0,4.37,0,.35,0,.47-.21.65-.4V3H25.62V2.88l.22,0h4.9c.32,0,.4-.05.54-.39l-.31,0H25.68a.09.09,0,0,1-.06-.06.09.09,0,0,1,.06-.07h4.64Zm-23.1-1c.09.13.15.24.23.34a.26.26,0,0,0,.13.08l.82-.05h.84c.12,0,.25,0,.37,0H29.66l-.18-.42ZM30,5.13h1.38c.35,0,.39,0,.35-.42H30ZM7.75,4.71H6.08l0,.42H7.4C7.77,5.13,7.8,5.09,7.75,4.71Zm24-.59H30.39a.45.45,0,0,0-.4.18.19.19,0,0,0,0,.16.18.18,0,0,0,.13.09h1.66Zm-24,0c-.51,0-1,0-1.48,0-.11,0-.21.16-.31.25s.08.16.13.16c.55,0,1.1,0,1.66,0Zm1.4-1.77H8A1.2,1.2,0,0,0,9.73,2.2,1.38,1.38,0,0,0,8.2,2.05a2.24,2.24,0,0,1,1.06.11Zm24,0a2,2,0,0,0-1.18,0,1.25,1.25,0,0,0,1.76-.21A1.38,1.38,0,0,0,32.16,2a2.56,2.56,0,0,1,1.07.12Zm-1.93-.22a2.72,2.72,0,0,0-1-.68l.06-.3.94.53A1.38,1.38,0,0,0,29.76,1C29.74,1.65,30.34,2.14,31.18,2.16Zm-24-.05-1-.68.05-.25.92.52A1.37,1.37,0,0,0,5.79,1C5.76,1.73,6.51,2.16,7.21,2.11ZM31.69,4c0-.43,0-.43-.4-.43a1.47,1.47,0,0,1-.21,0c-.36-.07-.52.18-.73.43ZM6.41,4H7.74l-.07-.42C7.21,3.57,6.69,3.39,6.41,4ZM7.65,3.4c0-.1,0-.18-.05-.25S7.55,3,7.51,3a.36.36,0,0,0-.25,0,2.35,2.35,0,0,0-.33.36ZM31.53,3c-.37-.09-.43.23-.64.4h.73ZM8.17,2.82l-.38-.17C7.81,3,8,2.81,8.17,2.82Zm23.95,0-.37-.16C31.77,3,32,2.82,32.12,2.81Z"/><path d="M19.12.7H.64A1.28,1.28,0,0,1,.36.63,1.4,1.4,0,0,1,.64.57h37a1.1,1.1,0,0,1,.26.06,1.34,1.34,0,0,1-.27.07Z"/><path d="M37.94,6.85c-.07.06-.09.1-.13.11H.6l-.25,0,0-.08Z"/><path d="M19.92,20.82h-1.2a7.42,7.42,0,0,0,0,.82c0,.12.16.22.23.31h-.88c.29-.07.29-.29.29-.52V20.16a.38.38,0,0,0-.29-.43H19c-.51.21-.22.64-.32,1h1.2c.14-.49,0-.85-.3-1h1c-.24.07-.3.24-.3.47,0,.43,0,.87,0,1.31,0,.22,0,.39.29.45h-.94c.29-.06.31-.28.31-.52Z"/><path d="M10,21.93c.29,0,.32-.24.32-.47,0-.42,0-.85,0-1.27,0-.22,0-.4-.3-.47h1.23a.51.51,0,0,1,.53.37c.07.25,0,.45-.34.63l.17.06a.58.58,0,0,1,.39.65.49.49,0,0,1-.46.49C11,21.94,10.49,21.93,10,21.93Zm.66-1.15c0,.28,0,.53,0,.78a.35.35,0,0,0,.23.35.6.6,0,0,0,.73-.39.56.56,0,0,0-.46-.74A4.16,4.16,0,0,0,10.62,20.78Zm0-.05c.26,0,.52,0,.69-.21a.53.53,0,0,0,0-.6c-.18-.22-.42-.16-.66-.16Z"/><path d="M14.39,22h-.88c.29-.07.29-.3.29-.54,0-.42,0-.84,0-1.27a.41.41,0,0,0-.29-.44c.45,0,.89,0,1.33.07a.49.49,0,0,1,.43.48.51.51,0,0,1-.35.52l-.11,0c.29.34.33.83.73,1.15a3.16,3.16,0,0,1-.44,0s-.09-.07-.12-.12c-.13-.25-.24-.51-.38-.75s-.21-.23-.46-.21a4.68,4.68,0,0,0,0,.75C14.17,21.75,14.31,21.86,14.39,22Zm-.26-1.15a.58.58,0,0,0,.68-.24.5.5,0,0,0,0-.58c-.15-.24-.39-.24-.66-.21Z"/><path d="M20.83,22a.4.4,0,0,0,.29-.43V20.17c0-.21-.05-.39-.31-.42.49,0,1,0,1.42,0a1,1,0,0,1,.83.72,1.16,1.16,0,0,1-.16,1.16,1,1,0,0,1-.78.31C21.69,22,21.26,22,20.83,22Zm.64-2.19c0,.61,0,1.2,0,1.79a.33.33,0,0,0,.3.35.76.76,0,0,0,.76-.27,1.32,1.32,0,0,0,.08-1.38A1,1,0,0,0,21.47,19.77Z"/><path d="M27.29,22h-.91c.28-.08.27-.3.29-.53a1.17,1.17,0,0,0-.26-.85c-.13-.17-.24-.36-.37-.54s-.21-.21-.3-.3h.91c-.25.11-.27.18-.12.42l.44.68.42-.63c.15-.23.12-.34-.14-.47h.65a3,3,0,0,0-.85,1.13,1.71,1.71,0,0,0,0,.87C27.06,21.81,27.21,21.89,27.29,22Z"/><path d="M17.85,19.73l0,.52c-.15-.49-.55-.5-1-.49a1,1,0,0,0,0,.16v1.53c0,.22,0,.42.28.5h-.9c.28-.07.29-.29.29-.52V19.79c-.44-.11-.68,0-1,.49l0-.55Z"/><path d="M25.64,22h-1c.28-.15.31-.21.19-.5S24.7,21,24.25,21c-.11,0-.28,0-.3.06a3.06,3.06,0,0,0-.16.68c0,.05.12.12.18.18h-.68a1,1,0,0,0,.48-.61c.19-.48.38-1,.56-1.44l.12-.26c.06.13.1.19.13.27.23.53.45,1.07.68,1.61A.58.58,0,0,0,25.64,22Zm-1-1-.36-.85L24,21Z"/><path d="M12.28,22c.24-.07.29-.25.29-.47,0-.44,0-.88,0-1.31a.39.39,0,0,0-.3-.44h1a.41.41,0,0,0-.37.47c0,.43,0,.86,0,1.29s.05.34.33.46Z"/><path d="M14.33,2.91c-.53.21-.24.64-.34,1h1.2c.13-.52,0-.84-.29-1h.95c-.25.07-.3.25-.3.47q0,.64,0,1.29c0,.23,0,.41.3.47h-.94c.29-.06.31-.28.31-.52V4H14a5.33,5.33,0,0,0,0,.8c0,.12.15.23.22.32H13.3c.33-.07.37-.26.37-.5q0-.64,0-1.29a.39.39,0,0,0-.29-.43Z"/><path d="M18.5,5.13c.24-.07.3-.24.3-.47,0-.42,0-.85,0-1.27,0-.23,0-.42-.35-.47.47,0,.89,0,1.31,0a.54.54,0,0,1,.51.63c0,.29-.23.47-.59.48h-.53a5.19,5.19,0,0,0,0,.79c0,.11.15.21.22.3ZM19.15,3V4c.26,0,.51,0,.67-.21a.56.56,0,0,0,0-.62C19.67,2.91,19.41,2.92,19.15,3Z"/><path d="M21.13,4a4.63,4.63,0,0,0,0,.75c0,.14.16.25.23.34h-.88c.28-.07.3-.29.3-.52,0-.42,0-.85,0-1.27s0-.32-.28-.41c.41,0,.84,0,1.26,0a.53.53,0,0,1,.5.63.53.53,0,0,1-.57.48Zm0-1.09V4c.26,0,.51,0,.67-.21a.56.56,0,0,0,0-.62C21.66,2.91,21.41,2.92,21.14,3Z"/><path d="M23.9,5.13H23c.26-.07.28-.27.29-.49A1.25,1.25,0,0,0,23,3.73c-.13-.15-.22-.34-.35-.5s-.21-.22-.31-.32h.92c-.25.11-.28.18-.13.41s.28.45.44.69c.15-.23.29-.43.43-.63s.11-.34-.15-.47h.65a3.06,3.06,0,0,0-.86,1.15,1.56,1.56,0,0,0,0,.83C23.66,5,23.82,5.06,23.9,5.13Z"/><path d="M18.25,5.13h-1c.22-.07.39-.17.28-.37s0-.53-.35-.55c-.62,0-.62,0-.76.44a.35.35,0,0,0,.18.49H16a.85.85,0,0,0,.4-.53c.2-.5.4-1,.59-1.51,0-.07.06-.14.12-.26.06.12.1.18.13.25.23.55.45,1.1.69,1.64A1.78,1.78,0,0,0,18.25,5.13Zm-1.59-1h.67L17,3.31Z"/></g><path class="cls-4" d="M6.38,20.84H.57l0-.07a.44.44,0,0,1,.16-.06h1c1.49,0,3,0,4.45,0A.83.83,0,0,0,7,20.27H.78a1,1,0,0,1-.23-.05l0-.09H.81c2,0,4,0,6,0,.35,0,.49-.17.67-.44H.63l-.07-.06s0-.06.08-.07a1.21,1.21,0,0,1,.19,0c2.05,0,4.11,0,6.17,0-.5-.11-.89-.46-1.46-.44-1.58.06-3.15,0-4.73,0a.86.86,0,0,1-.16,0s-.06,0-.09-.07,0-.06.08-.07H6a2.69,2.69,0,0,0-.2-.38.35.35,0,0,0-.21-.05H.76a1.55,1.55,0,0,1-.21,0v-.08H5.72l0-.44H.51c.06-.08.09-.13.12-.14H37.86c.08,0,.22-.07.22.14H30.82c.19.14.34.27.51.38a.47.47,0,0,0,.24.05h6.29c.07,0,.21-.07.22.12H31.5c.08.15.11.31.21.37a.54.54,0,0,0,.41,0,1.88,1.88,0,0,1,1.71,0,.59.59,0,0,0,.27,0H38a.39.39,0,0,1,.11.06s-.07.07-.12.08a.75.75,0,0,1-.15,0H34.25l-.09.44h3.72a.78.78,0,0,1,.21,0v.09H34.15a.71.71,0,0,0-.31.1,1.63,1.63,0,0,1-1.65.09L32,19.8h0c0,.33,0,.33.33.33H38a.33.33,0,0,1,.1.06s-.06.07-.1.08a1.2,1.2,0,0,1-.19,0H32.05l.07.44h5.74a1.85,1.85,0,0,1,.23,0v.08H32.15l.05.45h5.87l0,.07a.61.61,0,0,1-.18,0H32.23s0,.05,0,.06c0,.38,0,.38.35.38h5.52l0,0S38,22,38,22h-5.8v.19a1.87,1.87,0,0,0,1.15.25H38s.05,0,.07,0,0,.06-.08.07a1,1,0,0,1-.17,0h-5a2.38,2.38,0,0,0,.12.35.25.25,0,0,0,.19.09H38a.09.09,0,0,1,.06.06s0,.06-.06.07H33.28c-.22,0-.37,0-.4.27,0,0,0,.08-.07.16h5.27l0,.06s-.06.06-.09.07h-.17c-1.66,0-3.32,0-5,0a.68.68,0,0,0-.31.08.89.89,0,0,1-.89,0,.64.64,0,0,0-.3-.08H8.89a.64.64,0,0,0-.3.08.9.9,0,0,1-.9,0,.72.72,0,0,0-.32-.08H.78c-.07,0-.2.08-.22-.12H7.43l-.16-.44H.51C.57,23.05.6,23,.63,23a.61.61,0,0,1,.19,0H7.27l.16-.44H6.1a.3.3,0,0,0-.16.08.87.87,0,0,1-1.05,0,.57.57,0,0,0-.29-.08h-4v-.08a.65.65,0,0,1,.19,0H4.66L4.55,22H.63s-.05,0-.07-.06,0-.06.06-.07a1.2,1.2,0,0,1,.19,0c1.16,0,2.32,0,3.48,0,.19,0,.32,0,.36-.24a.58.58,0,0,1,.11-.2H.66s-.07,0-.1-.07l.09-.06H4.72a1,1,0,0,0,.34-.07.85.85,0,0,1,.7,0,.27.27,0,0,0,.39-.06,3.13,3.13,0,0,1,.26-.25Zm25-1.15H28.74l0-.07a.61.61,0,0,1,.18-.05H31c-.24-.11-.46-.22-.69-.31a1.32,1.32,0,0,0-.43-.12H10.29a.93.93,0,0,1-.09.33,1.34,1.34,0,0,1-1.37.59A6.7,6.7,0,0,1,8,19.82l.08.33H9.52v.09c-.47.08-.95,0-1.42.05,0,.4,0,.42.37.42s.59,0,.89,0c.06,0,.11,0,.17.05l0,.08H8.17l.07.43H9.42l.11.07a.6.6,0,0,1-.11.06H8.24l0,.44H8.5c.29,0,.58,0,.87,0a.58.58,0,0,1,.17.06l0,.07H8.24v.22a4.23,4.23,0,0,0,.63.21,4.85,4.85,0,0,0,.66,0v.08c-.2.13-.45,0-.67.08L9,23H31.24l.15-.43c-.39,0-.76,0-1.12,0a.66.66,0,0,0-.43.13.84.84,0,0,1-1.2-1.12c.05-.08.08-.17.13-.27a1.1,1.1,0,0,0,.16,0,.93.93,0,0,1,.9,0,.17.17,0,0,0,.18,0,4.51,4.51,0,0,0,.39-.38H28.74l0-.08a.77.77,0,0,1,.19-.05c.43,0,.87,0,1.29,0s.53-.18.75-.47H28.73v-.08a1.06,1.06,0,0,1,.19,0c.59,0,1.18,0,1.77,0A.69.69,0,0,0,31.42,19.69ZM6.84,18a2.5,2.5,0,0,1,.38.26.58.58,0,0,0,.47.16h22l0-.42Zm24.4,5.13H9l-.14.4H31.39ZM30,19c0-.08-.07-.11-.09-.15-.07-.26-.25-.29-.49-.29H7.55c.22.5.29.53.76.33a1.8,1.8,0,0,1,1.42,0,1.32,1.32,0,0,0,.43.09H30Zm2,2.86a1.59,1.59,0,0,0,0-.31c0-.05-.09-.13-.14-.13-.49,0-1,0-1.48,0-.06,0-.19.12-.18.14s.11.28.18.28C30.85,21.86,31.38,21.85,31.94,21.85ZM8,21.41c-.55,0-1.09,0-1.62,0-.06,0-.12.09-.19.13.09.1,0,.31.23.31H8Zm25.5-2.18-.13.26H32.08a1.26,1.26,0,0,0,1.81-.15,1.36,1.36,0,0,0-1.5-.17Zm-26,.07a2.79,2.79,0,0,0-1-.68l0-.24a2.27,2.27,0,0,1,1,.5A1.4,1.4,0,0,0,6,18.16C5.94,18.76,6.52,19.25,7.42,19.3Zm2.52,0a1.37,1.37,0,0,0-1.54-.15,2.12,2.12,0,0,1,1.06.11l-.12.22a2.36,2.36,0,0,0-1.21,0A1.29,1.29,0,0,0,9.94,19.34Zm20-1.18a1.2,1.2,0,0,0,1.42,1.08l-1-.68.06-.24.92.52A1.39,1.39,0,0,0,30,18.16ZM8,22H6.28l-.12.41c.46,0,.89,0,1.33,0A.49.49,0,0,0,8,22Zm24,0H30.24l-.11.41c.46,0,.89,0,1.33,0A.5.5,0,0,0,31.93,22Zm-.06-1.16a6.42,6.42,0,0,1-.76,0c-.36-.06-.51.19-.72.42h1.52Zm-25.43.42H8l0-.42a5,5,0,0,1-.67,0C6.86,20.78,6.65,21,6.44,21.26ZM7,20.69h.9c0-.07,0-.13,0-.19s-.07-.23-.26-.24S7.19,20.51,7,20.69Zm24.81-.38c-.41-.16-.6.11-.81.38h.88Z"/><path class="cls-4" d="M32.66,5.46c.07.08.11.11.13.16.08.3.32.28.56.28H38s.05,0,.07,0S38,6,38,6a1,1,0,0,1-.17,0H33l-.08.43h5a.91.91,0,0,1,.14.07S38,6.6,38,6.6s-.24,0-.36,0H33a.59.59,0,0,0-.33.13.87.87,0,0,1-1.17,0,.42.42,0,0,0-.26-.1q-11.13,0-22.26,0a.43.43,0,0,0-.25.1.87.87,0,0,1-1.19,0,.55.55,0,0,0-.3-.11H.86a.56.56,0,0,1-.13,0,.61.61,0,0,1-.17-.07.64.64,0,0,1,.18-.06h6.6L7.27,6H7C5,6,2.87,6,.78,6c-.08,0-.2.06-.24-.13H7.07c.17,0,.28,0,.34-.2a.9.9,0,0,1,.16-.24H6.22a.27.27,0,0,0-.15.09.85.85,0,0,1-1.32,0,.38.38,0,0,0-.24-.08H.66l-.1,0s.06-.07.1-.08H4.59l0-.43H.64s-.05,0-.08-.07l.07-.06H4.34c.17,0,.31,0,.38-.2a1.12,1.12,0,0,1,.19-.22H.57l0,0s0-.08.08-.08a.59.59,0,0,1,.19,0H5a5.08,5.08,0,0,1,.78,0,.82.82,0,0,0,.83-.45H.82a.92.92,0,0,1-.26-.07,1.34,1.34,0,0,1,.27-.07c1.85,0,3.7,0,5.55,0a.83.83,0,0,0,.73-.44H.78a1.85,1.85,0,0,1-.23,0V3.05H.81c2,0,4.07,0,6.1,0a.56.56,0,0,0,.6-.4l-.32,0H.62a.09.09,0,0,1-.06-.07.09.09,0,0,1,.06-.06H6.55C6.21,2.26,6,2,5.58,2,4,2.06,2.4,2,.81,2H.57L.54,2s.06-.07.09-.08a1,1,0,0,1,.17,0H5.88a1.69,1.69,0,0,0-.14-.36c0-.05-.14-.07-.21-.07H.82a1.38,1.38,0,0,1-.26-.06.92.92,0,0,1,.27-.08H5.64s0,0,0-.05c0-.37,0-.37.4-.36a2,2,0,0,1,1,.3.83.83,0,0,0,.38.1H29.64c.05-.43.05-.46.47-.4a6.7,6.7,0,0,1,.94.28,1.43,1.43,0,0,0,.39.11h6.4a.75.75,0,0,1,.24.08,1.05,1.05,0,0,1-.24.06H31.42c.14.37.22.44.58.43s.43-.06.64-.07.44,0,.66,0,.47.06.71.07h3.87a1.55,1.55,0,0,1,.21,0V2H33.93c.07.19.39.16.31.44h3.65c.07,0,.21-.05.18.15H34.36a.51.51,0,0,0-.43.17,2.25,2.25,0,0,1-.35.27h4.5l0,.05s-.06.07-.09.07a.47.47,0,0,1-.17,0H32a1.49,1.49,0,0,0,.06.34.23.23,0,0,0,.18.09H38s0,0,.08.06,0,.07-.07.07a.62.62,0,0,1-.19,0H32.15a.39.39,0,0,0,0,.06c0,.38,0,.38.43.38h5.32a1.55,1.55,0,0,1,.21,0v.08H32.21v.43h5.92c-.07.08-.09.13-.12.14a.61.61,0,0,1-.19,0H32.53c-.36,0-.36,0-.31.4.15,0,.3,0,.45,0h5.19a1.85,1.85,0,0,1,.23,0v.09Zm-2.14-3a2.27,2.27,0,0,1-.37-.26A.56.56,0,0,0,29.68,2H10l.41.43h1.89a1.34,1.34,0,0,1,.18.07c-.07,0-.13.07-.19.07H10.33a.41.41,0,0,0-.22,0c-.16.11-.31.25-.48.39h2.63a1.42,1.42,0,0,1,.2,0l0,.09H8.06c.08.51,0,.43.45.43h3.83s.07.05.1.07-.06.06-.09.06a.47.47,0,0,1-.17,0h-4c0,.44,0,.44.38.44h3.7a1.42,1.42,0,0,1,.2,0l0,.09H8.22l0,.43h4.12l.07.06a.16.16,0,0,1-.07.07H8.26l0,.39a3.64,3.64,0,0,0,.45,0h3.6a.77.77,0,0,1,.19,0l0,.08H8.72L9,5.9h3.45l0,.08a.78.78,0,0,1-.21,0c-1,0-2,0-3,0H9l-.06.43H31.31L31.24,6H26.07a1.08,1.08,0,0,1-.18,0s-.06,0-.09-.08l0-.05h.25c1.56,0,3.12,0,4.68,0,.33,0,.62,0,.74-.38,0,0,0,0,0-.06H30.28a.42.42,0,0,0-.26.12.82.82,0,0,1-1.15.09.87.87,0,0,0-.7-.22H26a1.62,1.62,0,0,1-.19,0l0-.09h2.75l-.05-.44H26a.8.8,0,0,1-.21,0l0-.09H28.4a.34.34,0,0,0,.2-.06c.09-.11.16-.24.27-.38H25.82l0-.09a1.81,1.81,0,0,1,.23,0c1.25,0,2.5,0,3.75,0,.36,0,.54-.19.78-.47H25.82V3.64a1.6,1.6,0,0,1,.23,0c1.46,0,2.91,0,4.36,0,.36,0,.48-.21.66-.4l0-.06H25.82V3.08l.22,0h4.89c.33,0,.41,0,.55-.39l-.31,0H25.88a.09.09,0,0,1-.06-.06.09.09,0,0,1,.06-.07h4.64Zm-23.1-1a2.83,2.83,0,0,0,.23.34s.09.09.13.08c.27,0,.55,0,.82,0h.84c.12,0,.25,0,.37,0h20l-.18-.43ZM30.2,5.33h1.38c.35,0,.39,0,.35-.42h-1.7ZM8,4.9H6.28l0,.43H7.6C8,5.33,8,5.29,8,4.9Zm24-.58H30.58a.44.44,0,0,0-.39.18.24.24,0,0,0,0,.16.23.23,0,0,0,.14.09H32Zm-24,0c-.51,0-1,0-1.48,0-.11,0-.22.16-.31.25s.08.16.12.16H8Zm1.4-1.77H8.16A1.21,1.21,0,0,0,9.93,2.4,1.38,1.38,0,0,0,8.4,2.25a2.26,2.26,0,0,1,1.06.11Zm24,0a1.89,1.89,0,0,0-1.18,0,1.24,1.24,0,0,0,1.76-.22,1.39,1.39,0,0,0-1.53-.15,2.43,2.43,0,0,1,1.07.12Zm-1.93-.22a2.68,2.68,0,0,0-1.05-.68l.06-.3.95.53A1.41,1.41,0,0,0,30,1.23C29.94,1.85,30.54,2.34,31.38,2.36Zm-24,0-1-.68,0-.25.92.52A1.37,1.37,0,0,0,6,1.23C6,1.93,6.7,2.36,7.41,2.31ZM31.89,4.18c0-.43,0-.43-.4-.43h-.21c-.36-.07-.53.18-.73.43Zm-25.28,0H7.94l-.07-.43C7.41,3.77,6.89,3.59,6.61,4.18ZM7.85,3.6c0-.1,0-.18,0-.25s-.06-.15-.09-.16a.37.37,0,0,0-.26.05,3,3,0,0,0-.32.36Zm23.88-.41c-.37-.08-.43.24-.65.41h.74ZM8.37,3,8,2.84C8,3.17,8.23,3,8.37,3Zm24,0L32,2.84C32,3.15,32.18,3,32.32,3Z"/><path class="cls-4" d="M19.32.9H.83A1.34,1.34,0,0,1,.56.83,1.4,1.4,0,0,1,.84.77h37a2.38,2.38,0,0,1,.26,0,.92.92,0,0,1-.27.08Z"/><path class="cls-4" d="M38.14,7.05c-.07.06-.1.1-.13.11H.8l-.25,0V7.05Z"/><path class="cls-4" d="M20.12,21h-1.2a7.45,7.45,0,0,0,0,.82c0,.12.16.22.22.3h-.87c.29-.06.29-.28.29-.51V20.36a.38.38,0,0,0-.29-.43h.93c-.51.2-.22.64-.32,1h1.2c.14-.49,0-.86-.3-1h1c-.24.06-.3.24-.3.46q0,.66,0,1.32a.4.4,0,0,0,.3.45h-.94c.28-.06.31-.28.31-.52Z"/><path class="cls-4" d="M10.16,22.13c.29-.05.32-.24.32-.47,0-.42,0-.85,0-1.27,0-.22-.05-.4-.3-.47.41,0,.82,0,1.22,0a.52.52,0,0,1,.54.36c.07.26,0,.46-.34.64l.17,0a.61.61,0,0,1,.39.65.49.49,0,0,1-.46.5C11.19,22.14,10.69,22.13,10.16,22.13ZM10.82,21c0,.28,0,.53,0,.78a.32.32,0,0,0,.23.34.58.58,0,0,0,.73-.38.57.57,0,0,0-.46-.74A4.17,4.17,0,0,0,10.82,21Zm0-.05c.26,0,.52,0,.69-.21a.53.53,0,0,0,0-.6c-.18-.22-.43-.17-.66-.16Z"/><path class="cls-4" d="M14.58,22.15h-.87c.29-.07.29-.3.28-.54V20.34a.42.42,0,0,0-.29-.44c.44,0,.89,0,1.33.07a.49.49,0,0,1,.43.48.51.51,0,0,1-.35.52L15,21c.3.34.34.83.74,1.14-.16,0-.3,0-.44,0s-.09-.08-.12-.13c-.13-.25-.24-.5-.38-.75s-.22-.22-.46-.2a4.68,4.68,0,0,0,0,.75C14.36,22,14.51,22.06,14.58,22.15ZM14.33,21a.61.61,0,0,0,.68-.24.51.51,0,0,0,0-.58.59.59,0,0,0-.66-.21Z"/><path class="cls-4" d="M21,22.16a.41.41,0,0,0,.29-.43V20.37c0-.22-.05-.39-.32-.42.5,0,1,0,1.43,0a1,1,0,0,1,.83.72,1.16,1.16,0,0,1-.17,1.16.93.93,0,0,1-.77.31C21.89,22.17,21.46,22.16,21,22.16ZM21.66,20c0,.61,0,1.2,0,1.79a.33.33,0,0,0,.3.35.77.77,0,0,0,.76-.28,1.28,1.28,0,0,0,.07-1.37A1,1,0,0,0,21.66,20Z"/><path class="cls-4" d="M27.49,22.15h-.91c.28-.08.27-.3.29-.54a1.16,1.16,0,0,0-.26-.84c-.14-.17-.24-.37-.37-.54s-.21-.21-.3-.3h.91c-.25.11-.27.18-.12.42s.28.44.44.67l.42-.62c.15-.23.12-.34-.14-.47h.65a3,3,0,0,0-.85,1.13,1.71,1.71,0,0,0,0,.87C27.26,22,27.41,22.08,27.49,22.15Z"/><path class="cls-4" d="M18,19.93l0,.52c-.15-.5-.55-.5-1-.49a1,1,0,0,0,0,.16v1.52c0,.23,0,.43.28.51h-.9c.28-.07.29-.29.29-.52V20c-.44-.11-.68,0-1,.49l0-.55Z"/><path class="cls-4" d="M25.84,22.15h-1c.28-.15.3-.21.19-.5s-.16-.43-.61-.42c-.11,0-.28,0-.3.06A3.06,3.06,0,0,0,24,22c0,.05.11.11.18.18h-.68a.94.94,0,0,0,.48-.62c.19-.47.37-.95.56-1.43l.12-.26.13.26c.23.54.45,1.08.67,1.62A.63.63,0,0,0,25.84,22.15Zm-1-1-.35-.85-.32.85Z"/><path class="cls-4" d="M12.48,22.15c.24-.07.29-.25.29-.47q0-.66,0-1.32a.39.39,0,0,0-.3-.43h1c-.31.05-.37.24-.37.47,0,.43,0,.86,0,1.28s.05.35.33.47Z"/><path class="cls-4" d="M14.53,3.11c-.53.21-.24.64-.35,1h1.21c.13-.53,0-.85-.29-1h1c-.25.07-.3.25-.3.47q0,.65,0,1.29c0,.22.05.41.3.47h-.94c.29-.06.31-.29.31-.52v-.6h-1.2a5.33,5.33,0,0,0,0,.8c0,.12.15.23.22.32H13.5c.33-.07.37-.27.37-.5q0-.64,0-1.29a.38.38,0,0,0-.3-.43Z"/><path class="cls-4" d="M18.7,5.33A.4.4,0,0,0,19,4.86V3.59c0-.23,0-.42-.34-.47.47,0,.89,0,1.31,0a.54.54,0,0,1,.51.62c0,.29-.23.47-.59.49h-.53a5.19,5.19,0,0,0,0,.79c0,.11.15.21.22.3Zm.64-2.18v1c.27,0,.52,0,.68-.21a.6.6,0,0,0,0-.62C19.86,3.1,19.61,3.12,19.34,3.15Z"/><path class="cls-4" d="M21.33,4.24a4.66,4.66,0,0,0,0,.75c0,.13.16.25.23.34h-.88C21,5.26,21,5,21,4.81c0-.42,0-.85,0-1.27s0-.32-.28-.42c.41,0,.84,0,1.26,0a.53.53,0,0,1,.5.63.52.52,0,0,1-.57.47Zm0-1.09v1c.27,0,.52,0,.68-.21a.56.56,0,0,0,0-.62C21.86,3.11,21.61,3.12,21.33,3.15Z"/><path class="cls-4" d="M24.09,5.33h-.9c.26-.07.28-.27.29-.5a1.27,1.27,0,0,0-.27-.9c-.13-.16-.23-.34-.35-.5s-.22-.23-.31-.32h.92c-.25.1-.28.18-.14.41s.29.44.45.69l.42-.63c.15-.23.12-.34-.14-.47h.65a3.06,3.06,0,0,0-.86,1.15,1.56,1.56,0,0,0,0,.83C23.86,5.19,24,5.26,24.09,5.33Z"/><path class="cls-4" d="M18.44,5.33h-1c.22-.08.39-.17.28-.37s0-.53-.35-.55c-.62,0-.62,0-.76.44a.35.35,0,0,0,.18.49h-.63a.89.89,0,0,0,.4-.53c.2-.5.39-1,.59-1.51L17.31,3a2.46,2.46,0,0,1,.14.26c.23.55.45,1.1.69,1.64A2.46,2.46,0,0,0,18.44,5.33Zm-1.58-1h.67l-.35-.84Z"/></g></g></svg>