<svg xmlns="http://www.w3.org/2000/svg" viewBox="0 0 38.55 24.66"><defs><style>.cls-1{isolation:isolate;}.cls-2{opacity:0.15;}.cls-2,.cls-3{mix-blend-mode:multiply;}.cls-4{fill:#fff;}</style></defs><title>convert-CUSTOMIZE-SVG-03</title><g class="cls-1"><g id="Layer_1" data-name="Layer 1"><g class="cls-2"><path d="M4.41,15.47l-.29.47-.06,0,.07-.51-.46.42c0-.17.06-.31.09-.44s0-.25-.16-.29-.3-.21-.3-.46c0-1.78,0-3.56,0-5.34a2.26,2.26,0,0,0,0-.33L4.94,8c.46-.25.92-.5,1.37-.76.15-.09.28-.23.43-.33a.91.91,0,0,1,.32-.2,4.36,4.36,0,0,0,1.2-.55c.38-.2.76-.42,1.13-.63a.35.35,0,0,1,.37,0l2.08.9c1.6.7,3.21,1.4,4.82,2.08a.37.37,0,0,1,.28.41c0,1.81,0,3.63,0,5.44a.37.37,0,0,1-.2.35C14.82,15.85,12.9,17,11,18.11a.56.56,0,0,1-.56,0c-1.93-.87-3.88-1.73-5.82-2.59Zm6-3.42a.35.35,0,0,0,.46,0c.84-.53,1.7-1,2.55-1.54l.21-.14L12.4,9.66l.41-.83,1.69.93a.24.24,0,0,0,.29,0l1.61-1,.11-.09-.05,0L12.83,7.09a.23.23,0,0,0-.16,0l-2.1.55-.18,0,0-.07,1.56-.89-.12-.07-2.1-.9a.31.31,0,0,0-.25,0l-1.63.9-.07,0c.33.29.64.57,1,.84A.71.71,0,0,1,9,8.36c-.05.21-.13.31-.34.31h-2c-.35,0-.41-.12-.31-.45s.12-.52.2-.84L3.62,9l1.8.8s.12,0,.16-.05a4.36,4.36,0,0,1,2.49-.89A2.93,2.93,0,0,1,8.83,9v.07a11.36,11.36,0,0,0-2.66,1.06c.2.09.36.15.52.24a.32.32,0,0,0,.38,0L8.89,9.2s.12-.1.18-.09c.4,0,.81.08,1.27.13l-2.4,1.7,2.1,1c.18-.43.38-.84.52-1.26S10.9,9.5,10.37,9a.94.94,0,0,1,.93,1.36,4.9,4.9,0,0,1-.24.52ZM3.78,15c0-.46,0-.9,0-1.35a2.91,2.91,0,0,1,.73-2.16c0,.41,0,.79,0,1.17a9.58,9.58,0,0,1,0,2.51c0,.12,0,.17.11.21l2.07.92.13,0V16c0-1.63,0-3.25,0-4.87a.67.67,0,0,0-.5-.78.6.6,0,0,0-.68.07c-.33.28-.67.54-1,.81A2.8,2.8,0,0,1,5.32,10L3.5,9.15V9.4c0,1.74,0,3.48,0,5.23C3.5,14.85,3.59,14.93,3.78,15Zm9.53.78-.13.28h.55a3,3,0,0,1-2.91.57V18l.12-.06c.93-.54,1.86-1.08,2.78-1.63a.38.38,0,0,0,.12-.26V10.76c0-.06,0-.11,0-.19s-.08,0-.1,0c-.94.56-1.88,1.12-2.81,1.69a.28.28,0,0,0-.11.22q0,1.55,0,3.09a.39.39,0,0,0,.15.27,1.37,1.37,0,0,0,1.2.26C12.55,16,12.93,15.86,13.31,15.73Zm-3-3.48L9.44,14a3.16,3.16,0,0,1,.49-1.94l-2-.9a1.76,1.76,0,0,0,0,.19v5.29a.22.22,0,0,0,.17.25l2.36,1.05.18.06c0-.46,0-.9,0-1.33a.27.27,0,0,0-.16-.27,3.1,3.1,0,0,1-1-1,1.43,1.43,0,0,1,0-1.26,3.1,3.1,0,0,0,1.17,1.5v-.26c0-.91,0-1.82,0-2.73C10.62,12.39,10.56,12.28,10.3,12.25Zm4.42,3.43.17-.09c.55-.33,1.11-.66,1.66-1a.33.33,0,0,0,.19-.34V8.82l-.22.12c-.53.32-1.06.64-1.6,1a.35.35,0,0,0-.2.35v5.44Z"/><path d="M12,2.39c.17-.14.3-.26.45-.36a.22.22,0,0,1,.35.06.22.22,0,0,1-.13.31,4.9,4.9,0,0,1-.51.21l.32.17c.11.08.24.15.11.32a.23.23,0,0,1-.38,0A2.09,2.09,0,0,1,12,2.79c0,.15,0,.27,0,.38s-.06.24-.22.19-.24-.15-.18-.31a1.88,1.88,0,0,1,.21-.36,1.73,1.73,0,0,1-.38.05c-.08,0-.14-.1-.22-.15s.11-.21.19-.23a1.3,1.3,0,0,1,.43,0,1.68,1.68,0,0,1-.2-.29.36.36,0,0,1,0-.27.4.4,0,0,1,.28-.1A.33.33,0,0,1,12,2,2,2,0,0,1,12,2.39Z"/><path d="M18,7.7a3.05,3.05,0,0,1-.22-.32A.24.24,0,0,1,17.91,7c.17,0,.26,0,.29.19a3.09,3.09,0,0,1,0,.45,2.15,2.15,0,0,1,.29-.25,1.49,1.49,0,0,1,.4-.11s.12.16.1.18a1.64,1.64,0,0,1-.3.29,2.3,2.3,0,0,1-.37.12,2.57,2.57,0,0,1,.37.21c.1.06.19.15.08.27s-.21.17-.33.06a3.6,3.6,0,0,1-.3-.34c0,.13,0,.24,0,.36s-.05.23-.21.2a.24.24,0,0,1-.19-.32c.05-.12.13-.23.2-.36L17.57,8c-.11,0-.22,0-.23-.16a.21.21,0,0,1,.21-.24A3.39,3.39,0,0,1,18,7.7Z"/><path d="M4.37,4.46c-.06-.16-.3-.27-.14-.47a.31.31,0,0,1,.23-.08c.08.15.14.32.21.49A3.12,3.12,0,0,1,5,4.16c.11-.07.23-.09.31,0s0,.23-.12.28l-.42.17a1.15,1.15,0,0,1,.31.18.32.32,0,0,1,.07.2c-.08,0-.21.11-.26.08a1.33,1.33,0,0,1-.29-.29,2.54,2.54,0,0,1,0,.29c0,.1,0,.21-.18.17A.19.19,0,0,1,4.19,5a3.18,3.18,0,0,1,.17-.3,1,1,0,0,1-.29,0,.74.74,0,0,1-.22-.14c.07-.07.12-.17.2-.19A.89.89,0,0,1,4.37,4.46Z"/><path d="M2.33,21.84a2.07,2.07,0,0,0,0-1.45h.44a1.49,1.49,0,0,0-.09.3,2,2,0,0,0,0,.35h.84l-.09-.65h.35a3.33,3.33,0,0,0,0,1.44H3.43l.09-.7H2.71a.84.84,0,0,0,.09.71Z"/><path d="M3,17.45a.9.9,0,0,1,0,.25c0,.06-.11.1-.16.16s-.12-.16-.13-.25.08-.15.13-.25a.85.85,0,0,1-.25,0,.52.52,0,0,1-.19-.11c.06-.06.11-.15.18-.17s.16,0,.2,0-.11-.28-.07-.39.29-.11.33.11a2,2,0,0,1,0,.26,1.53,1.53,0,0,1,.31-.24c.07,0,.17,0,.26,0s0,.18-.1.23a1.9,1.9,0,0,1-.35.17,1.17,1.17,0,0,1,.25.14.21.21,0,0,1,.05.2.14.14,0,0,1-.24,0A2.51,2.51,0,0,1,3,17.45Z"/><path d="M17.94,15.93a1.05,1.05,0,0,1-.26.05c-.07,0-.13-.08-.19-.12s.1-.14.16-.16a.4.4,0,0,1,.22,0c0-.13-.06-.27-.07-.4s.18-.09.19-.07.13.26.2.41a2.59,2.59,0,0,1,.23-.19c.1-.07.23-.12.28,0s-.05.19-.11.25a2.18,2.18,0,0,1-.33.14.81.81,0,0,1,.26.15s0,.13.06.2-.18.06-.24,0-.13-.14-.22-.23a.53.53,0,0,1,0,.23c0,.07-.11.16-.15.16a.17.17,0,0,1-.14-.24A2,2,0,0,1,17.94,15.93Z"/><path d="M9.46,21.84H9a2.15,2.15,0,0,0,0-1.46h.32C9.44,20.86,9.27,21.37,9.46,21.84Z"/><path d="M9.91,21.05c.29.12.39.27.35.48s-.18.31-.52.3a.38.38,0,0,0,.28-.45.37.37,0,0,0-.37-.3c.31-.21.32-.42,0-.7.18,0,.33,0,.41.19A.36.36,0,0,1,9.91,21.05Z"/><path d="M14.26,21.82a5.33,5.33,0,0,0,0-1.44l.22,0a12.54,12.54,0,0,0,.06,1.5Z"/><path d="M5.37,22.26H5.12a3.42,3.42,0,0,0,0-1.35l.32.07A3.94,3.94,0,0,0,5.37,22.26Z"/><path d="M12.45,20.36l.24,0v1.51h-.24A5.24,5.24,0,0,0,12.45,20.36Z"/><path d="M6.55,22.26H6.3a3.47,3.47,0,0,0,0-1.36l.33.08A3.68,3.68,0,0,0,6.55,22.26Z"/><path d="M17.12,4.09,17,3.75l.6-.14.09.33Z"/><path d="M2.25,5.85,1.66,6l-.1-.34.59-.15Z"/><path d="M12,20.67c.09.42-.09.82.13,1.18-.19,0-.27,0-.27-.21s0-.45,0-.68S11.93,20.79,12,20.67Z"/><path d="M16,22.05c0-.42-.23-.72-.32-1.09h.22a2,2,0,0,0,.16.5C16.24,21.69,16.13,21.85,16,22.05Z"/><path d="M10.54,21l.23,0v.89h-.23Z"/><path d="M7.8,21.93l-.39-1h.22a3,3,0,0,0,.19.55A.37.37,0,0,1,7.8,21.93Z"/><path d="M16.84,21.42c0-.29-.07-.59-.09-.88,0-.05.08-.11.12-.17s.13.13.12.19c0,.29-.06.57-.1.86Z"/><path d="M15.55,21.85c-.19,0-.3,0-.29-.25s0-.42,0-.63c.14,0,.21.09.21.25a1.78,1.78,0,0,0,0,.4A.8.8,0,0,0,15.55,21.85Z"/><path d="M5.69,21.85a.6.6,0,0,0,0-.88.38.38,0,0,1,.37.41A.42.42,0,0,1,5.69,21.85Z"/><path d="M11.29,21.84h-.21V21c.17-.07.23,0,.22.2S11.29,21.61,11.29,21.84Z"/><path d="M13.32,21.84h-.25a1.27,1.27,0,0,0,0-.88c.17,0,.25.1.25.27S13.32,21.63,13.32,21.84Z"/><path d="M14,21a.58.58,0,0,0,0,.89.4.4,0,0,1-.4-.41A.44.44,0,0,1,14,21Z"/><path d="M6.94,21a.38.38,0,0,1,.32.4.43.43,0,0,1-.36.48,1.52,1.52,0,0,0,.16-.42A1.83,1.83,0,0,0,6.94,21Z"/><path d="M4.61,21c.13,0,.18.12.17.28a2.29,2.29,0,0,0,0,.37.87.87,0,0,0,.11.25c-.06,0-.15,0-.21-.05a.3.3,0,0,1-.07-.21C4.61,21.4,4.61,21.19,4.61,21Z"/><path d="M15.85,5.73l-.11-.42.33-.08.12.42Z"/><path d="M2.4,13.33l.37-.2.16.28-.37.2Z"/><path d="M19.23,14.72l.18.29-.37.21-.17-.28Z"/><path d="M4.74,6.68,4.9,7l-.36.21-.17-.29Z"/><path d="M14.47,17.2l.37-.2.17.29-.37.2Z"/><path d="M16.75,18.51l-.15-.3.31-.16.16.29Z"/><path d="M14.92,21.91c-.06-.09-.18-.17-.18-.25s.2-.21.36-.24c-.16.12-.24.25-.1.44Z"/><path d="M4.41,21.43c-.11.13-.22.26,0,.45-.18,0-.3-.07-.29-.23S4.27,21.46,4.41,21.43Z"/><path d="M16.88,21.56c.05.09.1.15.1.2s-.08.07-.13.11-.1-.1-.1-.15S16.81,21.63,16.88,21.56Z"/><path d="M11.9,9.82c-.29-.25-.55-.49-.82-.71a1.06,1.06,0,0,0-.39-.21c-.22-.05-.22-.18-.24-.37a.51.51,0,0,1,.4-.62c.53-.16,1.05-.39,1.59-.51s.77.12.57.69v0L12,9.69A.44.44,0,0,1,11.9,9.82Z"/><path d="M10.25,8.13v.54c0,.24-.1.29-.33.26a4.75,4.75,0,0,0-.65,0c-.18,0-.24-.08-.21-.25s.08-.5.12-.75.08-.19.25-.11a1.28,1.28,0,0,0,.34.07h.32C10.24,7.88,10.32,8,10.25,8.13Z"/><path d="M4.61,15.67l-.29.47-.06,0,.07-.51L3.87,16c0-.18.06-.31.09-.45s0-.24-.16-.28-.3-.21-.3-.46c0-1.78,0-3.56,0-5.34,0-.1,0-.2,0-.33l1.67-.93c.46-.25.92-.5,1.37-.76.15-.09.28-.23.43-.34A.88.88,0,0,1,7.26,7a4.36,4.36,0,0,0,1.2-.55l1.12-.63a.37.37,0,0,1,.38,0L12,6.65l4.83,2.08a.37.37,0,0,1,.28.41c0,1.81,0,3.62,0,5.44a.37.37,0,0,1-.2.35q-2.88,1.68-5.75,3.37a.54.54,0,0,1-.56,0L4.81,15.75Zm6-3.43a.33.33,0,0,0,.46,0c.85-.52,1.71-1,2.56-1.53l.21-.14L12.6,9.86,13,9,14.7,10A.24.24,0,0,0,15,10L16.6,9l.11-.08-.05,0L13,7.29a.23.23,0,0,0-.16,0l-2.11.55-.17,0,0-.07,1.56-.89L12,6.84l-2.1-.9a.31.31,0,0,0-.25,0c-.55.29-1.09.6-1.63.9L8,6.91c.33.29.64.57,1,.84a.72.72,0,0,1,.27.81c0,.21-.13.31-.34.31h-2c-.35,0-.41-.12-.31-.46s.12-.51.19-.83L3.82,9.19l1.8.81s.12,0,.16-.05a4.42,4.42,0,0,1,2.49-.9A3.44,3.44,0,0,1,9,9.21v.07a11.36,11.36,0,0,0-2.66,1.06,5,5,0,0,1,.51.24.33.33,0,0,0,.39,0L9.08,9.39c.06,0,.13-.09.19-.09l1.27.14-2.4,1.7,2.1.95c.18-.44.38-.84.52-1.27s.34-1.12-.2-1.61a.94.94,0,0,1,.94,1.36,4.9,4.9,0,0,1-.24.52ZM4,15.15c0-.46,0-.91,0-1.35a3,3,0,0,1,.73-2.16c0,.4,0,.79,0,1.17a10,10,0,0,1,0,2.51c0,.12,0,.17.11.21l2.07.92.13,0v-.25C7,14.61,7,13,7,11.37a.67.67,0,0,0-.5-.78.6.6,0,0,0-.68.07c-.33.28-.67.53-1,.8a2.77,2.77,0,0,1,.72-1.29L3.7,9.35v.24c0,1.75,0,3.49,0,5.23C3.69,15.05,3.79,15.12,4,15.15Zm9.53.77-.13.29h.55a3.06,3.06,0,0,1-2.92.57v1.38l.13-.06,2.77-1.63a.34.34,0,0,0,.12-.26c0-1.75,0-3.5,0-5.25,0-.06,0-.12,0-.19s-.08,0-.1,0l-2.81,1.68a.31.31,0,0,0-.11.22q0,1.54,0,3.09a.42.42,0,0,0,.14.28,1.38,1.38,0,0,0,1.2.25A11.38,11.38,0,0,0,13.51,15.92Zm-3-3.47-.86,1.74a3.13,3.13,0,0,1,.48-1.94l-2-.9c0,.08,0,.13,0,.19,0,1.76,0,3.53,0,5.29a.24.24,0,0,0,.18.25l2.36,1.05.17.05c0-.45,0-.89,0-1.33a.26.26,0,0,0-.16-.26,3.1,3.1,0,0,1-1-1,1.43,1.43,0,0,1,0-1.26,3.08,3.08,0,0,0,1.16,1.5v-.26c0-.91,0-1.82,0-2.73C10.82,12.59,10.76,12.48,10.5,12.45Zm4.42,3.42.17-.09,1.66-1a.32.32,0,0,0,.19-.33c0-1.73,0-3.47,0-5.21V9l-.22.12c-.54.32-1.06.64-1.6.95a.34.34,0,0,0-.2.35v5.43Z"/><path d="M12.18,2.58c.17-.13.3-.25.45-.35s.26-.1.34.06,0,.25-.12.31-.33.14-.51.21a2.27,2.27,0,0,1,.31.17c.11.07.25.15.11.32a.23.23,0,0,1-.38,0A3.13,3.13,0,0,1,12.15,3c0,.14,0,.27-.05.38s-.06.24-.22.19-.24-.15-.18-.31a1.82,1.82,0,0,1,.2-.36,1.17,1.17,0,0,1-.37,0c-.08,0-.15-.09-.22-.14s.11-.22.19-.23a1.3,1.3,0,0,1,.43,0,1.68,1.68,0,0,1-.2-.29c0-.08,0-.22,0-.27a.32.32,0,0,1,.27-.1.31.31,0,0,1,.16.22A1.92,1.92,0,0,1,12.18,2.58Z"/><path d="M18.16,7.9c-.08-.12-.16-.21-.22-.32a.24.24,0,0,1,.17-.35c.17-.05.26,0,.29.19s0,.28,0,.45a1.68,1.68,0,0,1,.29-.25,1.4,1.4,0,0,1,.4-.11s.12.15.1.18a1.42,1.42,0,0,1-.31.29,1.4,1.4,0,0,1-.36.11l.37.21c.1.07.18.15.08.28s-.21.17-.33.06a2.59,2.59,0,0,1-.3-.34c0,.13,0,.24,0,.36s0,.23-.21.2a.24.24,0,0,1-.19-.32c.05-.12.13-.23.2-.36l-.36.06c-.12,0-.22,0-.23-.16a.2.2,0,0,1,.21-.24A2.14,2.14,0,0,1,18.16,7.9Z"/><path d="M4.57,4.66c-.06-.16-.3-.27-.14-.47a.31.31,0,0,1,.23-.08c.08.15.14.32.21.49a3.12,3.12,0,0,1,.3-.24c.11-.07.23-.1.31,0s0,.22-.12.28l-.42.17A1.33,1.33,0,0,1,5.25,5a.32.32,0,0,1,.07.2c-.08,0-.21.11-.27.08A1.56,1.56,0,0,1,4.77,5a2.54,2.54,0,0,1,0,.29c0,.1,0,.21-.18.17a.19.19,0,0,1-.16-.27,3.18,3.18,0,0,1,.17-.3.75.75,0,0,1-.29,0,.56.56,0,0,1-.22-.13c.07-.07.12-.17.2-.19A.91.91,0,0,1,4.57,4.66Z"/><path d="M2.53,22a2,2,0,0,0,0-1.46H3a2.81,2.81,0,0,0-.08.31,2,2,0,0,0,0,.35h.83l-.08-.66H4A3.38,3.38,0,0,0,4,22H3.63l.09-.7H2.91A.84.84,0,0,0,3,22Z"/><path d="M3.16,17.65a.87.87,0,0,1,0,.25c0,.06-.1.1-.15.16s-.13-.17-.13-.25.07-.16.13-.25a.85.85,0,0,1-.25,0,1.18,1.18,0,0,1-.19-.11c.06-.06.1-.15.18-.18a.43.43,0,0,1,.2,0c0-.13-.11-.28-.07-.39s.29-.11.33.1,0,.17,0,.26a1.45,1.45,0,0,1,.31-.23c.07,0,.17,0,.26,0s0,.18-.1.23a2.29,2.29,0,0,1-.35.16,1.67,1.67,0,0,1,.24.15.2.2,0,0,1,.06.2.14.14,0,0,1-.24,0Z"/><path d="M18.13,16.13a1,1,0,0,1-.25.05.76.76,0,0,1-.19-.12c0-.06.1-.14.16-.16a.54.54,0,0,1,.22,0,2.66,2.66,0,0,1-.07-.39.46.46,0,0,1,.19-.08c.07.13.13.27.2.42a1.66,1.66,0,0,1,.23-.19c.1-.07.23-.12.28,0s0,.19-.11.25a1.75,1.75,0,0,1-.33.13,1.28,1.28,0,0,1,.26.16s0,.13.06.2-.18.06-.24,0-.13-.14-.22-.23a.53.53,0,0,1,0,.23c0,.06-.11.16-.16.16a.17.17,0,0,1-.13-.24A2.35,2.35,0,0,1,18.13,16.13Z"/><path d="M9.66,22H9.23a2.15,2.15,0,0,0,0-1.46h.32C9.64,21.06,9.47,21.57,9.66,22Z"/><path d="M10.11,21.25c.29.12.39.27.35.48s-.18.31-.52.3a.39.39,0,0,0,.28-.45.36.36,0,0,0-.37-.3c.31-.22.32-.42,0-.7.18,0,.33,0,.4.19S10.31,21.12,10.11,21.25Z"/><path d="M14.45,22a5,5,0,0,0,0-1.44l.21,0c.06.5,0,1,.07,1.5Z"/><path d="M5.57,22.46H5.32a3.42,3.42,0,0,0,0-1.35l.32.07A3.67,3.67,0,0,0,5.57,22.46Z"/><path d="M12.65,20.56l.23,0V22h-.23A5.64,5.64,0,0,0,12.65,20.56Z"/><path d="M6.75,22.46H6.5a3.47,3.47,0,0,0,0-1.36l.32.08A3.94,3.94,0,0,0,6.75,22.46Z"/><path d="M17.32,4.29,17.22,4l.6-.14.09.33Z"/><path d="M2.45,6.05l-.59.15-.1-.35.59-.14Z"/><path d="M12.2,20.87c.09.42-.09.82.13,1.18-.19,0-.27,0-.28-.21s0-.45,0-.68S12.13,21,12.2,20.87Z"/><path d="M16.23,22.24c.05-.41-.23-.71-.32-1.08h.22a1.88,1.88,0,0,0,.16.49C16.44,21.88,16.33,22.05,16.23,22.24Z"/><path d="M10.74,21.17l.22,0V22h-.22Z"/><path d="M8,22.13l-.39-1h.22A3.24,3.24,0,0,0,8,21.7.39.39,0,0,1,8,22.13Z"/><path d="M17,21.62c0-.3-.07-.59-.09-.88,0,0,.08-.11.12-.17s.13.13.12.19c0,.28-.07.57-.1.85Z"/><path d="M15.75,22c-.2.06-.3,0-.29-.24s0-.42,0-.63a.21.21,0,0,1,.2.25,2.64,2.64,0,0,0,0,.4A.76.76,0,0,0,15.75,22Z"/><path d="M5.89,22.05a.6.6,0,0,0,0-.88.39.39,0,0,1,.37.41A.43.43,0,0,1,5.89,22.05Z"/><path d="M11.49,22h-.21v-.85c.17-.08.23,0,.22.2S11.49,21.81,11.49,22Z"/><path d="M13.52,22h-.25a1.3,1.3,0,0,0,0-.89c.17,0,.25.1.25.28S13.51,21.82,13.52,22Z"/><path d="M14.16,21.16a.58.58,0,0,0,0,.89.4.4,0,0,1-.4-.41A.44.44,0,0,1,14.16,21.16Z"/><path d="M7.13,21.17a.37.37,0,0,1,.33.39.44.44,0,0,1-.36.49,1.32,1.32,0,0,0,.15-.42A1.25,1.25,0,0,0,7.13,21.17Z"/><path d="M4.81,21.17c.13,0,.18.12.17.27a2.38,2.38,0,0,0,0,.38,1,1,0,0,0,.11.25c-.06,0-.15,0-.21-.05a.3.3,0,0,1-.07-.21C4.81,21.6,4.81,21.39,4.81,21.17Z"/><path d="M16.05,5.93l-.11-.42.33-.09.12.43Z"/><path d="M2.59,13.52l.38-.2.16.29-.37.2Z"/><path d="M19.43,14.92l.17.29-.36.21-.17-.28Z"/><path d="M4.94,6.88l.16.28-.36.21-.17-.3Z"/><path d="M14.67,17.4l.37-.2.17.28-.37.2Z"/><path d="M17,18.71l-.15-.3.31-.16.16.29Z"/><path d="M15.12,22.1c-.06-.08-.18-.16-.18-.24s.2-.21.36-.25c-.16.13-.25.26-.1.45Z"/><path d="M4.61,21.63c-.12.13-.22.26,0,.45-.18,0-.3-.07-.29-.23S4.47,21.66,4.61,21.63Z"/><path d="M17.08,21.76c.05.09.1.14.1.2s-.09.07-.13.11-.1-.1-.11-.15S17,21.83,17.08,21.76Z"/><path d="M12.1,10c-.29-.25-.55-.49-.82-.71a1.09,1.09,0,0,0-.39-.22c-.22,0-.22-.18-.24-.36a.5.5,0,0,1,.4-.62c.53-.16,1-.39,1.58-.51s.78.12.58.69v0l-1,1.58A1.66,1.66,0,0,1,12.1,10Z"/><path d="M10.45,8.32c0,.19,0,.37,0,.55s-.09.29-.32.26a4.75,4.75,0,0,0-.65,0c-.19,0-.24-.08-.21-.25s.08-.5.12-.75.08-.19.24-.11a2.17,2.17,0,0,0,.35.07h.32C10.44,8.08,10.52,8.16,10.45,8.32Z"/></g><g class="cls-3"><path d="M4.27,15.33,4,15.8l-.06,0L4,15.27l-.46.42c0-.18.06-.31.09-.45s0-.25-.16-.28-.3-.22-.3-.46c0-1.78,0-3.56,0-5.34,0-.1,0-.2,0-.33L4.8,7.9c.46-.25.92-.5,1.37-.76.15-.09.28-.23.43-.34a.88.88,0,0,1,.32-.19,4.36,4.36,0,0,0,1.2-.55l1.12-.63a.37.37,0,0,1,.38,0l2.07.91,4.83,2.08a.37.37,0,0,1,.28.41c0,1.81,0,3.62,0,5.44a.34.34,0,0,1-.19.35Q13.72,16.27,10.85,18a.54.54,0,0,1-.56,0L4.47,15.41Zm6-3.43a.33.33,0,0,0,.46,0c.85-.52,1.71-1,2.56-1.53l.21-.14-1.26-.75.41-.83,1.69.93a.24.24,0,0,0,.29,0l1.61-1,.11-.08-.05,0L12.69,7a.23.23,0,0,0-.16,0l-2.11.55-.17,0,0-.07,1.56-.89-.12-.07-2.1-.9a.31.31,0,0,0-.25,0c-.55.29-1.09.6-1.63.9l-.07.05,1,.84a.72.72,0,0,1,.27.81c-.05.21-.13.31-.34.31h-2c-.34,0-.4-.12-.3-.46s.12-.51.19-.83L3.48,8.85l1.79.81a.22.22,0,0,0,.17-.05,4.42,4.42,0,0,1,2.49-.9,3.44,3.44,0,0,1,.76.16v.07A11.36,11.36,0,0,0,6,10a5,5,0,0,1,.51.24.33.33,0,0,0,.39,0L8.74,9.05C8.8,9,8.87,9,8.93,9l1.27.14L7.8,10.8l2.1.95c.18-.44.38-.84.52-1.27a1.35,1.35,0,0,0-.2-1.61.94.94,0,0,1,.94,1.36,4.9,4.9,0,0,1-.24.52ZM3.64,14.81c0-.46,0-.91,0-1.35a3,3,0,0,1,.73-2.16c0,.4,0,.79,0,1.17a10,10,0,0,1,0,2.51c0,.12,0,.17.11.21l2.07.92.13,0v-.25c0-1.62,0-3.24,0-4.86a.67.67,0,0,0-.5-.78.59.59,0,0,0-.68.07c-.33.28-.67.53-1,.8a2.77,2.77,0,0,1,.72-1.29L3.36,9v.24c0,1.75,0,3.49,0,5.23C3.35,14.71,3.45,14.78,3.64,14.81Zm9.53.77-.13.29h.55a3.06,3.06,0,0,1-2.92.57v1.38l.13-.06,2.77-1.63a.34.34,0,0,0,.12-.26c0-1.75,0-3.5,0-5.25,0-.06,0-.12,0-.19s-.08,0-.1,0l-2.81,1.68a.31.31,0,0,0-.11.22q0,1.55,0,3.09a.42.42,0,0,0,.14.28A1.38,1.38,0,0,0,12,16,11.38,11.38,0,0,0,13.17,15.58Zm-3-3.47L9.3,13.85a3.13,3.13,0,0,1,.48-1.94l-2-.9c0,.08,0,.13,0,.19,0,1.76,0,3.53,0,5.29a.24.24,0,0,0,.17.25l2.37,1a.56.56,0,0,0,.17.06c0-.45,0-.89,0-1.33a.26.26,0,0,0-.16-.26,3.1,3.1,0,0,1-1-1,1.43,1.43,0,0,1,0-1.26,3.08,3.08,0,0,0,1.16,1.5V15.2c0-.91,0-1.82,0-2.73C10.48,12.25,10.42,12.14,10.16,12.11Zm4.42,3.42.17-.09,1.66-1a.32.32,0,0,0,.19-.33c0-1.73,0-3.47,0-5.21V8.68l-.22.12c-.54.32-1.06.64-1.6.95a.34.34,0,0,0-.2.35v5.43Z"/><path d="M11.84,2.24c.17-.13.3-.25.45-.35s.26-.1.34.06,0,.25-.12.31-.33.14-.51.21a2.27,2.27,0,0,1,.31.17c.11.07.25.15.11.32A.23.23,0,0,1,12,3a3.13,3.13,0,0,1-.23-.31c0,.14,0,.27-.05.38s-.06.24-.22.19-.24-.15-.18-.31a1.82,1.82,0,0,1,.2-.36,2.33,2.33,0,0,1-.37,0c-.08,0-.15-.09-.22-.14s.11-.22.19-.23a1.3,1.3,0,0,1,.43,0,1.68,1.68,0,0,1-.2-.29c0-.08,0-.22,0-.27a.32.32,0,0,1,.27-.1c.07,0,.14.14.16.22A1.92,1.92,0,0,1,11.84,2.24Z"/><path d="M17.82,7.56c-.08-.12-.16-.21-.22-.32a.24.24,0,0,1,.17-.35c.17,0,.26,0,.29.19s0,.28,0,.45a1.68,1.68,0,0,1,.29-.25,1.4,1.4,0,0,1,.4-.11s.12.15.1.18a1.42,1.42,0,0,1-.31.29,1.4,1.4,0,0,1-.36.11l.37.21c.1.07.18.15.08.28s-.21.17-.33.06A2.59,2.59,0,0,1,18,8c0,.13,0,.24,0,.36s0,.23-.21.2a.24.24,0,0,1-.19-.32,2.64,2.64,0,0,1,.2-.36l-.36,0c-.12,0-.22,0-.23-.15a.2.2,0,0,1,.21-.24A2.14,2.14,0,0,1,17.82,7.56Z"/><path d="M4.23,4.32c-.06-.16-.3-.27-.14-.47a.31.31,0,0,1,.23-.08c.08.15.14.32.21.49A3.12,3.12,0,0,1,4.83,4c.11-.07.23-.1.31,0s0,.22-.12.28l-.42.17a1.33,1.33,0,0,1,.31.18.32.32,0,0,1,.07.2c-.08,0-.21.11-.27.08a1.3,1.3,0,0,1-.28-.29,2.54,2.54,0,0,1,0,.29c0,.1,0,.21-.18.17a.19.19,0,0,1-.16-.27,3.18,3.18,0,0,1,.17-.3.75.75,0,0,1-.29,0,.56.56,0,0,1-.22-.13c.07-.07.12-.17.2-.19A.91.91,0,0,1,4.23,4.32Z"/><path d="M2.19,21.7a2,2,0,0,0,0-1.46h.44a2.81,2.81,0,0,0-.08.31,2,2,0,0,0,0,.35h.83l-.08-.66h.35a3.38,3.38,0,0,0,0,1.45H3.29l.09-.7H2.57a.84.84,0,0,0,.09.71Z"/><path d="M2.82,17.31a.87.87,0,0,1,0,.25c0,.06-.1.1-.15.15s-.13-.16-.13-.24.07-.16.13-.25a.85.85,0,0,1-.25,0,1.18,1.18,0,0,1-.19-.11c.06-.06.1-.15.17-.18a.46.46,0,0,1,.21,0c0-.13-.11-.29-.07-.39s.29-.11.33.1,0,.17,0,.26a1.45,1.45,0,0,1,.31-.23c.07,0,.17,0,.26,0s0,.18-.1.23a2.29,2.29,0,0,1-.35.16,1.67,1.67,0,0,1,.24.15.2.2,0,0,1,.06.2.14.14,0,0,1-.24,0Z"/><path d="M17.79,15.79a1,1,0,0,1-.25.05.76.76,0,0,1-.19-.12c0-.06.1-.14.16-.16a.54.54,0,0,1,.22,0,2.66,2.66,0,0,1-.07-.39.46.46,0,0,1,.19-.08c.07.13.13.27.2.42a1.66,1.66,0,0,1,.23-.19c.1-.07.23-.12.28,0s0,.19-.11.25a1.75,1.75,0,0,1-.33.13,2,2,0,0,1,.26.15.65.65,0,0,1,.06.21c-.08,0-.18.06-.24,0s-.13-.14-.22-.23a.53.53,0,0,1,0,.23c0,.06-.11.16-.16.16a.17.17,0,0,1-.13-.24A2.35,2.35,0,0,1,17.79,15.79Z"/><path d="M9.32,21.7H8.89a2.15,2.15,0,0,0,0-1.46h.32C9.3,20.72,9.13,21.23,9.32,21.7Z"/><path d="M9.77,20.91c.29.12.39.27.35.48s-.18.31-.52.3a.39.39,0,0,0,.28-.45.36.36,0,0,0-.37-.3c.31-.22.32-.42,0-.7.18,0,.33,0,.4.19S10,20.78,9.77,20.91Z"/><path d="M14.11,21.68a5,5,0,0,0,0-1.44l.21,0c.06.5,0,1,.07,1.5Z"/><path d="M5.23,22.12H5a3.42,3.42,0,0,0,0-1.35l.32.06A3.73,3.73,0,0,0,5.23,22.12Z"/><path d="M12.31,20.22l.23,0V21.7h-.23A5.64,5.64,0,0,0,12.31,20.22Z"/><path d="M6.41,22.12H6.16a3.47,3.47,0,0,0,0-1.36l.32.08A3.94,3.94,0,0,0,6.41,22.12Z"/><path d="M17,4l-.1-.34.6-.14.09.33Z"/><path d="M2.11,5.71l-.59.15-.1-.35L2,5.37Z"/><path d="M11.86,20.53c.09.41-.09.82.13,1.18-.19,0-.27,0-.28-.21s0-.45,0-.68S11.79,20.65,11.86,20.53Z"/><path d="M15.89,21.9c0-.41-.23-.71-.32-1.08h.22a1.88,1.88,0,0,0,.16.49C16.1,21.54,16,21.71,15.89,21.9Z"/><path d="M10.4,20.83l.22,0v.89H10.4Z"/><path d="M7.66,21.79l-.39-1h.22a3.24,3.24,0,0,0,.19.55A.39.39,0,0,1,7.66,21.79Z"/><path d="M16.7,21.28c0-.3-.07-.59-.09-.88,0,0,.08-.11.12-.17s.13.13.12.19c0,.28-.07.57-.1.85Z"/><path d="M15.41,21.7c-.2.06-.3,0-.29-.24s0-.42,0-.63a.21.21,0,0,1,.2.25,2.64,2.64,0,0,0,0,.4A.57.57,0,0,0,15.41,21.7Z"/><path d="M5.55,21.71a.6.6,0,0,0,0-.88.39.39,0,0,1,.37.41A.43.43,0,0,1,5.55,21.71Z"/><path d="M11.15,21.7h-.21v-.85c.17-.08.23,0,.22.2S11.15,21.47,11.15,21.7Z"/><path d="M13.18,21.7h-.25a1.3,1.3,0,0,0,0-.89c.17,0,.25.1.25.28S13.17,21.48,13.18,21.7Z"/><path d="M13.82,20.82a.58.58,0,0,0,0,.89.4.4,0,0,1-.4-.41A.44.44,0,0,1,13.82,20.82Z"/><path d="M6.79,20.83a.37.37,0,0,1,.33.39.44.44,0,0,1-.36.49,1.32,1.32,0,0,0,.15-.42A1.25,1.25,0,0,0,6.79,20.83Z"/><path d="M4.47,20.83c.13,0,.18.12.17.27a2.38,2.38,0,0,0,0,.38,1,1,0,0,0,.11.25c-.06,0-.15,0-.21-.05a.3.3,0,0,1-.07-.21C4.47,21.26,4.47,21.05,4.47,20.83Z"/><path d="M15.71,5.59l-.11-.42.33-.09.12.43Z"/><path d="M2.25,13.18l.38-.2.16.29-.37.2Z"/><path d="M19.09,14.58l.17.29-.36.21-.17-.28Z"/><path d="M4.6,6.53l.16.29L4.4,7l-.17-.3Z"/><path d="M14.33,17.06l.37-.2.17.28-.37.2Z"/><path d="M16.61,18.37l-.15-.3.31-.16.16.29Z"/><path d="M14.78,21.76c-.06-.08-.18-.16-.18-.24s.2-.21.36-.25c-.17.12-.25.26-.1.45Z"/><path d="M4.27,21.29c-.12.13-.22.26,0,.45-.18,0-.3-.07-.29-.23S4.13,21.32,4.27,21.29Z"/><path d="M16.74,21.42c.05.09.1.14.09.2s-.08.07-.12.11-.1-.1-.11-.15S16.67,21.49,16.74,21.42Z"/><path d="M11.76,9.68c-.29-.25-.55-.49-.82-.71a1.09,1.09,0,0,0-.39-.22c-.22,0-.22-.18-.24-.36a.5.5,0,0,1,.4-.62c.53-.16,1-.39,1.58-.51s.78.12.58.69V8c-.32.53-.64,1.06-1,1.58A.8.8,0,0,1,11.76,9.68Z"/><path d="M10.11,8c0,.19,0,.37,0,.55s-.09.29-.32.26a4.75,4.75,0,0,0-.65,0c-.19,0-.24-.08-.21-.25S9,8,9,7.77s.08-.19.24-.11a2,2,0,0,0,.35.07c.11,0,.21,0,.32,0S10.18,7.82,10.11,8Z"/></g><path class="cls-4" d="M4.47,15.52,4.18,16l-.06,0,.07-.51-.46.42c0-.18.06-.31.09-.45s0-.25-.16-.28-.3-.22-.3-.46q0-2.67,0-5.34c0-.1,0-.2,0-.33L5,8.1c.46-.26.92-.5,1.37-.77A4.35,4.35,0,0,0,6.79,7a1,1,0,0,1,.32-.19,4.17,4.17,0,0,0,1.21-.56c.38-.2.75-.41,1.12-.63a.39.39,0,0,1,.38,0l2.07.91,4.83,2.08A.37.37,0,0,1,17,9c0,1.82,0,3.63,0,5.45a.35.35,0,0,1-.2.35L11,18.16a.52.52,0,0,1-.55,0L4.67,15.61Zm6-3.42a.34.34,0,0,0,.46,0c.85-.52,1.71-1,2.56-1.53l.21-.14-1.26-.76.4-.82,1.7.93a.24.24,0,0,0,.29,0c.53-.33,1.07-.65,1.61-1a.39.39,0,0,0,.1-.08s0,0,0,0L12.89,7.15a.26.26,0,0,0-.17,0l-2.1.56-.17.05,0-.08L12,6.77l-.12-.07c-.7-.3-1.4-.61-2.1-.9a.36.36,0,0,0-.25,0l-1.63.91-.07,0,1,.84A.74.74,0,0,1,9,8.42c-.06.21-.13.31-.34.31h-2c-.34,0-.4-.12-.3-.46s.12-.51.19-.83L3.68,9.05l1.79.81s.12,0,.17,0a4.42,4.42,0,0,1,2.49-.9,3,3,0,0,1,.76.16v.07a12,12,0,0,0-2.67,1c.21.1.37.16.52.25a.35.35,0,0,0,.39,0L8.94,9.25a.41.41,0,0,1,.19-.09l1.27.14L8,11l2.1.95c.18-.44.38-.84.52-1.27a1.35,1.35,0,0,0-.2-1.61.94.94,0,0,1,.94,1.36,5,5,0,0,1-.25.52ZM3.84,15c0-.46,0-.91,0-1.35a3,3,0,0,1,.73-2.16c0,.4,0,.79,0,1.17a10,10,0,0,1,0,2.51c0,.12,0,.16.11.21l2.07.92.12,0v-.24c0-1.62,0-3.24,0-4.87a.69.69,0,0,0-.5-.77.6.6,0,0,0-.69.07c-.32.27-.66.53-1,.8A2.77,2.77,0,0,1,5.38,10L3.56,9.21v.24c0,1.75,0,3.49,0,5.23A.29.29,0,0,0,3.84,15Zm9.53.77-.13.29h.55a3.09,3.09,0,0,1-2.92.57V18L11,18c.93-.54,1.85-1.08,2.77-1.64a.32.32,0,0,0,.12-.25c0-1.75,0-3.5,0-5.25a1.37,1.37,0,0,0,0-.19l-.09,0c-.94.56-1.88,1.12-2.81,1.69a.32.32,0,0,0-.12.22c0,1,0,2.06,0,3.09a.38.38,0,0,0,.14.27,1.35,1.35,0,0,0,1.2.26A11.38,11.38,0,0,0,13.37,15.78Zm-3-3.47L9.5,14A3.1,3.1,0,0,1,10,12.1l-2-.9a1.56,1.56,0,0,0,0,.2c0,1.76,0,3.53,0,5.29a.24.24,0,0,0,.17.25l2.36,1,.18.06c0-.46,0-.89,0-1.33a.26.26,0,0,0-.16-.26,3,3,0,0,1-1-1,1.4,1.4,0,0,1,0-1.26,3.07,3.07,0,0,0,1.16,1.51V15.4c0-.91,0-1.82,0-2.73C10.68,12.45,10.62,12.34,10.35,12.31Zm4.43,3.42.17-.09,1.66-1a.33.33,0,0,0,.19-.33c0-1.74,0-3.47,0-5.21V8.88a1.35,1.35,0,0,0-.22.12c-.54.31-1.07.64-1.6.95a.34.34,0,0,0-.21.35c0,1.73,0,3.45,0,5.18Z"/><path class="cls-4" d="M12,2.44a5.6,5.6,0,0,1,.45-.35c.12-.08.26-.1.34.06s0,.25-.13.31-.32.13-.5.21a2.38,2.38,0,0,1,.31.17c.11.07.25.15.11.31a.22.22,0,0,1-.38,0c-.08-.09-.14-.19-.23-.31,0,.14,0,.26,0,.38s-.07.24-.22.19-.24-.16-.18-.31a2.24,2.24,0,0,1,.2-.37,1.64,1.64,0,0,1-.37,0c-.08,0-.15-.09-.22-.14s.11-.22.18-.23a1.66,1.66,0,0,1,.44,0,1.15,1.15,0,0,1-.2-.29.29.29,0,0,1,0-.26.32.32,0,0,1,.27-.1c.07,0,.14.13.16.22A1.9,1.9,0,0,1,12,2.44Z"/><path class="cls-4" d="M18,7.75a3.05,3.05,0,0,1-.22-.32c-.08-.15,0-.29.17-.34s.26,0,.29.19,0,.28,0,.45a1.66,1.66,0,0,1,.3-.25.92.92,0,0,1,.4-.11s.11.15.1.18a1.18,1.18,0,0,1-.31.28,1.09,1.09,0,0,1-.36.12l.37.21c.1.07.18.15.08.28s-.21.17-.33.06a3.45,3.45,0,0,1-.3-.34,3.39,3.39,0,0,1,0,.35c0,.11-.05.24-.21.21a.24.24,0,0,1-.19-.32A2.16,2.16,0,0,1,18,8l-.36.05c-.12,0-.22,0-.23-.15a.2.2,0,0,1,.21-.24A3.26,3.26,0,0,1,18,7.75Z"/><path class="cls-4" d="M4.43,4.52c-.06-.16-.3-.27-.15-.48A.48.48,0,0,1,4.52,4c.08.16.14.33.21.49.07,0,.18-.15.3-.23s.23-.1.31,0,0,.22-.12.28-.27.1-.42.16a2.32,2.32,0,0,1,.31.19s.08.19.06.2-.2.11-.26.08a1.3,1.3,0,0,1-.28-.29,2.89,2.89,0,0,1,0,.29c0,.09,0,.21-.18.17a.19.19,0,0,1-.16-.27,1.87,1.87,0,0,1,.17-.3,1,1,0,0,1-.29,0,.56.56,0,0,1-.22-.13c.06-.07.12-.17.2-.19S4.31,4.51,4.43,4.52Z"/><path class="cls-4" d="M2.39,21.9a2,2,0,0,0,0-1.46h.44a2.8,2.8,0,0,0-.09.31c0,.11,0,.22,0,.35h.83l-.08-.66h.35a3.54,3.54,0,0,0,0,1.45H3.49l.09-.7H2.77a.8.8,0,0,0,.09.71Z"/><path class="cls-4" d="M3,17.51a.9.9,0,0,1,0,.25c0,.06-.1.1-.15.15s-.13-.16-.13-.24.07-.16.12-.25a.75.75,0,0,1-.24,0,.76.76,0,0,1-.19-.12c0-.06.1-.14.17-.17a.47.47,0,0,1,.21,0c0-.13-.11-.29-.07-.39s.29-.11.33.1,0,.17,0,.26a1.62,1.62,0,0,1,.31-.24c.07,0,.17,0,.25,0s0,.18-.09.22a1.5,1.5,0,0,1-.36.17,1,1,0,0,1,.25.14.23.23,0,0,1,.06.2.14.14,0,0,1-.24,0A2.44,2.44,0,0,1,3,17.51Z"/><path class="cls-4" d="M18,16c-.11,0-.19.06-.25,0a.52.52,0,0,1-.19-.11c.05-.06.09-.15.16-.17a.77.77,0,0,1,.22,0,1.78,1.78,0,0,1-.07-.39s.18-.09.18-.08.14.27.21.41c.05,0,.14-.12.23-.18s.22-.12.28,0-.05.19-.12.24a1.13,1.13,0,0,1-.33.14,1.63,1.63,0,0,1,.27.15.65.65,0,0,1,.06.21c-.08,0-.18.06-.24,0s-.14-.13-.22-.22a.73.73,0,0,1,0,.23c0,.06-.11.16-.16.16a.17.17,0,0,1-.13-.24A2.35,2.35,0,0,1,18,16Z"/><path class="cls-4" d="M9.52,21.9H9.09a2.15,2.15,0,0,0,0-1.46h.32A6.49,6.49,0,0,0,9.52,21.9Z"/><path class="cls-4" d="M10,21.11c.28.12.39.27.35.48s-.18.31-.52.3a.38.38,0,0,0,.27-.45.35.35,0,0,0-.36-.3c.31-.22.32-.43,0-.7.18,0,.34,0,.41.19S10.16,21,10,21.11Z"/><path class="cls-4" d="M14.31,21.87a4.89,4.89,0,0,0,0-1.43l.21,0c.06.5,0,1,.07,1.5Z"/><path class="cls-4" d="M5.43,22.32H5.18a3.9,3.9,0,0,0,0-1.36l.32.07A3.5,3.5,0,0,0,5.43,22.32Z"/><path class="cls-4" d="M12.51,20.42l.23,0V21.9H12.5A5.24,5.24,0,0,0,12.51,20.42Z"/><path class="cls-4" d="M6.61,22.32H6.36a3.67,3.67,0,0,0,0-1.36l.32.08A3.94,3.94,0,0,0,6.61,22.32Z"/><path class="cls-4" d="M17.18,4.15l-.1-.35.59-.14.1.34Z"/><path class="cls-4" d="M2.31,5.91l-.59.14-.1-.34.59-.14Z"/><path class="cls-4" d="M12.06,20.73c.09.41-.09.82.12,1.18-.18,0-.26,0-.27-.22a5,5,0,0,1,0-.67C11.9,20.93,12,20.85,12.06,20.73Z"/><path class="cls-4" d="M16.09,22.1c.05-.41-.23-.71-.33-1.08H16a1.88,1.88,0,0,0,.16.49C16.3,21.74,16.19,21.91,16.09,22.1Z"/><path class="cls-4" d="M10.59,21l.23,0v.89h-.23Z"/><path class="cls-4" d="M7.86,22l-.39-1h.22a2.3,2.3,0,0,0,.19.54A.4.4,0,0,1,7.86,22Z"/><path class="cls-4" d="M16.9,21.47c0-.29-.07-.58-.09-.87,0-.06.08-.11.12-.17s.13.13.12.18c0,.29-.07.58-.11.86Z"/><path class="cls-4" d="M15.6,21.9c-.19.06-.29,0-.28-.24s0-.42,0-.64a.22.22,0,0,1,.2.26,2.67,2.67,0,0,0,0,.4A.84.84,0,0,0,15.6,21.9Z"/><path class="cls-4" d="M5.74,21.91a.6.6,0,0,0,0-.89.4.4,0,0,1,.38.42A.43.43,0,0,1,5.74,21.91Z"/><path class="cls-4" d="M11.35,21.9h-.21v-.85c.17-.08.23,0,.21.19S11.35,21.67,11.35,21.9Z"/><path class="cls-4" d="M13.38,21.9h-.25a1.3,1.3,0,0,0,0-.89c.17,0,.24.1.25.28S13.37,21.68,13.38,21.9Z"/><path class="cls-4" d="M14,21a.58.58,0,0,0,0,.89.4.4,0,0,1-.4-.42A.43.43,0,0,1,14,21Z"/><path class="cls-4" d="M7,21a.38.38,0,0,1,.33.39.44.44,0,0,1-.36.49,1.3,1.3,0,0,0,.15-.43A1.5,1.5,0,0,0,7,21Z"/><path class="cls-4" d="M4.67,21c.12,0,.18.11.17.27a1.6,1.6,0,0,0,0,.38,1,1,0,0,0,.11.24c-.06,0-.16,0-.21-.05a.33.33,0,0,1-.08-.2C4.66,21.46,4.67,21.25,4.67,21Z"/><path class="cls-4" d="M15.9,5.78l-.1-.41.33-.09.12.42Z"/><path class="cls-4" d="M2.45,13.38l.37-.2.17.29-.37.2Z"/><path class="cls-4" d="M19.29,14.78l.17.29-.36.21L18.93,15Z"/><path class="cls-4" d="M4.8,6.73,5,7l-.36.2-.17-.29Z"/><path class="cls-4" d="M14.53,17.25l.37-.2.17.29-.37.2Z"/><path class="cls-4" d="M16.81,18.57l-.16-.3.32-.16.16.29Z"/><path class="cls-4" d="M15,22c-.06-.08-.18-.16-.18-.25s.2-.2.36-.24c-.17.12-.25.26-.1.45Z"/><path class="cls-4" d="M4.47,21.48c-.12.14-.23.26,0,.46-.19,0-.3-.07-.29-.23S4.33,21.51,4.47,21.48Z"/><path class="cls-4" d="M16.94,21.61c0,.1.1.15.09.21s-.08.07-.12.11-.1-.1-.11-.16S16.87,21.69,16.94,21.61Z"/><path class="cls-4" d="M12,9.88c-.29-.25-.55-.49-.83-.71A1,1,0,0,0,10.75,9c-.22,0-.22-.18-.24-.36a.5.5,0,0,1,.4-.62c.53-.16,1-.39,1.58-.51s.78.12.57.69v0l-1,1.58A.8.8,0,0,1,12,9.88Z"/><path class="cls-4" d="M10.3,8.18c0,.18,0,.37,0,.55S10.2,9,10,9a4.68,4.68,0,0,0-.65,0c-.18,0-.23-.08-.2-.25s.08-.5.12-.75.08-.19.24-.12a1,1,0,0,0,.35.07c.1,0,.21,0,.31,0S10.37,8,10.3,8.18Z"/></g></g></svg>