<svg xmlns="http://www.w3.org/2000/svg" viewBox="0 0 38.55 24.66"><defs><style>.cls-1{isolation:isolate;}.cls-2{opacity:0.15;}.cls-2,.cls-3{mix-blend-mode:multiply;}.cls-4{fill:#fff;}</style></defs><title>convert-CUSTOMIZE-SVG-03</title><g class="cls-1"><g id="Layer_1" data-name="Layer 1"><g class="cls-2"><path d="M4.47,19.58l-2.65.68-.64-2.41,1.36-.36L4.36,17c.14,0,.2-.08.2-.23,0-1.7.09-3.4.14-5.1,0-.75,0-1.5.07-2.25a.34.34,0,0,0-.07-.22A2.26,2.26,0,0,1,4.1,8,3.19,3.19,0,0,0,4,7.59c0-.13-.1-.25-.13-.38a1,1,0,0,1,.92-1.33,5.65,5.65,0,0,1,.92,0A.3.3,0,0,0,6,5.72,5.88,5.88,0,0,1,8.6,3.31a5.37,5.37,0,0,1,4-.13l.18.06h0c.59-.75,1.15-1,1.72-.78l-.08.24a1.16,1.16,0,0,0-1.2.43,1,1,0,0,0,.2,1.6,1.7,1.7,0,0,0,1,.39.76.76,0,0,0,.6-.27,4,4,0,0,0,.43-.67.69.69,0,0,0-.21-1L15.32,3c.62.37.62,1,0,1.89l.24.28a5.19,5.19,0,0,1,.93,5.2,7.07,7.07,0,0,1-.27.69.2.2,0,0,0,.08.29,6.06,6.06,0,0,1,.75.68.68.68,0,0,1-.29,1.19,6.55,6.55,0,0,1-1.31.3,1.27,1.27,0,0,0-.74.32c-.22.23-.46.45-.68.7l1.13-.29,1.14-.29.64,2.41-1.26.33L10.39,18a.79.79,0,0,0-.34.2L4.56,23.43l-.21.18ZM5.88,6.52l-.24-.11.09-.25a2.47,2.47,0,0,0-1.24.08.55.55,0,0,0-.4.61,3.85,3.85,0,0,0,.16.65c0,.17.11.33.14.5a1.4,1.4,0,0,0,1.8,1.27c.32-.07.63-.18.95-.28,0,.07,0,.14,0,.21a3.28,3.28,0,0,0,.55,1.29A1.22,1.22,0,0,0,9.2,11a6,6,0,0,0,.58-.25l.12-.06a10.77,10.77,0,0,0,.73,1.15,1.08,1.08,0,0,0,1.7.17l.36-.29v.25a1.42,1.42,0,0,0,1.78,1.48c.52-.09,1-.18,1.55-.29a3.16,3.16,0,0,0,.66-.21c.37-.16.42-.38.18-.7a3,3,0,0,0-.43-.44c-.21-.16-.43-.29-.65-.44,1.49-3,.44-5.19-.67-6.23a1.28,1.28,0,0,1-1.57,0,1.35,1.35,0,0,1-.86-1.62C10.27,2.62,7.52,3.24,5.88,6.52ZM2,19.91l14.56-3.77-.49-1.87L1.53,18.05ZM7.47,15l-.53-2.42c-.54.15-1.05.3-1.56.42-.18.05-.2.13-.18.29.06.44.11.89.17,1.34s.08.61.12.93Zm1.48-3-1.74.49L7.75,15l1.73-.48Zm2.63,1.85c-.11-.45-.22-.87-.33-1.3,0,0-.06-.06-.09-.08a1.89,1.89,0,0,1-.9-.7s-.11-.09-.15-.08L9.23,12l.53,2.42ZM6.87,12.34l-.46-2.07-1.29.27s-.09.1-.09.15a4.34,4.34,0,0,0,0,.72c0,.47.09.93.14,1.41Zm1.39,6.25-2.34.61.15,1.17,2-.7a.5.5,0,0,0,.34-.43C8.36,19,8.31,18.83,8.26,18.59Zm.61-6.8c0-.39,0-.43-.36-.48a1.41,1.41,0,0,1-.92-.55c-.16-.2-.29-.42-.45-.65l-.44.1.45,2ZM12.15,15l.94-.24a1,1,0,0,0,.32-.11l.94-.88a2.88,2.88,0,0,0-1.62.11c-.18.07-.37.1-.55.16l-.26.07Zm-4.61.32-2,.57.1.8,2.1-.54Zm4.1-1.14-1.82.51.18.84h.08l1.67-.43s.1-.09.09-.13C11.78,14.71,11.71,14.46,11.64,14.18Zm-6.93,8.7c.27-.25.53-.53.83-.77a.76.76,0,0,0,.34-.89,2.15,2.15,0,0,1-.06-.47l-1,.36a.15.15,0,0,0-.08.13C4.71,21.78,4.71,22.33,4.71,22.88ZM8,16.08l1.73-.45-.19-.86-1.73.48Zm5.15-2.61a2,2,0,0,1-.71-1.15l-.88.32.3,1.19ZM5.64,19.28l-.8.2a.14.14,0,0,0-.07.1c0,.41,0,.82,0,1.23l.94-.32a.15.15,0,0,0,.07-.13C5.73,20,5.69,19.66,5.64,19.28Zm-.61-9L6.26,10s.07-.08.07-.11a2.26,2.26,0,0,0-.07-.28l-1.2-.08Zm2.53,9.92,0,0-1.35.46s-.08.07-.07.11c0,.23,0,.47.08.75ZM4.91,15.73c.3,0,.31,0,.26-.32,0-.06,0-.12,0-.17L5,13.75H4.91Zm0,1.16a2.37,2.37,0,0,0,.34-.09.22.22,0,0,0,.12-.16c0-.22-.06-.44-.09-.68-.13.08-.35,0-.37.21S4.86,16.64,4.86,16.89Zm4.32-5.18.84-.24-.22-.42-.71.27Zm-.64,6.82.14.6.88-.84a7.17,7.17,0,0,0-.83.18Zm-2-9,.12.44.41-.1-.14-.46Z"/><path d="M16.32,1.43l.05.27a2.24,2.24,0,0,0-1.73,1.83l.34,0v.25a.92.92,0,0,1-1.1-.63l.14,0,.1,0,.23.3A2.52,2.52,0,0,1,16.32,1.43Z"/><path d="M11.31,16.29c.36.4.34.54-.08.84a2.16,2.16,0,0,1-.51.29c-.3.12-.47,0-.42-.34s.08-.56.15-.83a.63.63,0,0,1,.23-.32,1.93,1.93,0,0,1,.52-.15.28.28,0,0,1,.24.07s0,.15,0,.23A1.57,1.57,0,0,1,11.31,16.29Zm-.7.68c0,.14.09.21.2.15a1.75,1.75,0,0,0,.39-.33s0-.14,0-.16S10.62,16.8,10.61,17Zm.54-.95c-.33,0-.46.1-.42.41C10.92,16.35,11.11,16.27,11.15,16Z"/><path d="M12.58,15.44c.43,0,.56.15.44.53A1.69,1.69,0,0,1,12,17.07c-.16.06-.25,0-.24-.16a4.73,4.73,0,0,1,.16-1.12c0-.15.33-.23.52-.33S12.53,15.44,12.58,15.44ZM12,16.67a1.38,1.38,0,0,0,.77-.86c0-.06-.09-.14-.15-.16a.49.49,0,0,0-.52.34C12.08,16.21,12.06,16.43,12,16.67Z"/><path d="M14.05,16.25a1,1,0,0,0-.7.4.54.54,0,0,1-.2.1c0-.07-.08-.16-.06-.21.25-.45.51-.9.78-1.34a.27.27,0,0,1,.24-.09.32.32,0,0,1,.15.19c.05.32.08.64.11,1,0,.06-.08.12-.13.18Zm-.39-.18c.44-.07.48-.13.34-.5A.76.76,0,0,0,13.66,16.07Z"/><path d="M4.9,18.62a1,1,0,0,0-.71.41s-.13.06-.2.09-.08-.15-.05-.2c.25-.45.5-.92.79-1.35.12-.19.34-.13.37.09s.09.66.12,1c0,.06-.09.12-.14.18Zm-.39-.17c.44-.07.48-.14.34-.51A.8.8,0,0,0,4.51,18.45Z"/><path d="M3.86,17.76a1.93,1.93,0,0,1,0,.34c-.06.32-.13.64-.19.95,0,0,0,.09,0,.12a.67.67,0,0,1-.14.09.48.48,0,0,1-.05-.14,4.29,4.29,0,0,1,.07-.5c-.43,0-.46.07-.53.46a1.19,1.19,0,0,1-.1.32.2.2,0,0,1-.17.06s-.09-.1-.08-.14c.11-.49.23-1,.35-1.45.2,0,.27.07.21.24a1.59,1.59,0,0,0-.08.33c.39,0,.44-.08.48-.43C3.61,17.86,3.64,17.73,3.86,17.76Z"/><path d="M8.24,16.76a.71.71,0,0,1-.08.31,2.53,2.53,0,0,1-.56.57.85.85,0,0,0-.4.55c0,.22-.17.24-.31.11l.24-1s0,0,0-.08-.11-.3.07-.38a2.75,2.75,0,0,1,.68-.24c.11,0,.24.09.36.14Zm-.87.73A1.12,1.12,0,0,0,8,16.86C7.49,16.83,7.4,17,7.37,17.49Z"/><path d="M5.33,18.65a2.32,2.32,0,0,0,.26-1.24.21.21,0,0,1,.07-.14A1,1,0,0,1,6.43,17c.3,0,.39.2.21.44a2.33,2.33,0,0,1-.56.57.83.83,0,0,0-.41.56C5.62,18.8,5.49,18.81,5.33,18.65Zm.53-.8a.84.84,0,0,0,.6-.61C6,17.21,5.85,17.4,5.86,17.85Z"/><path d="M8.25,16.77l.1-.22.16.13.25.31c.15-.27.26-.48.39-.67s.16-.07.24-.1,0,.19,0,.24a4.36,4.36,0,0,0-.71,1.39L8.59,18l-.17-.13.24-.65-.42-.45Z"/><path d="M14.85,15.38c.17-.29.29-.5.43-.71,0,0,.13-.05.19-.07s0,.18,0,.22a5,5,0,0,0-.77,1.51s0,0,0,0l-.16-.11.24-.67c-.12-.14-.25-.25-.35-.39s0-.15,0-.24a.48.48,0,0,1,.17.1A3,3,0,0,1,14.85,15.38Z"/><path d="M4.67,19.77,2,20.46l-.64-2.41,1.36-.36,1.82-.47c.14,0,.2-.08.2-.23,0-1.7.09-3.4.13-5.1,0-.75.06-1.5.08-2.25a.34.34,0,0,0-.07-.22,2.19,2.19,0,0,1-.6-1.19,3.19,3.19,0,0,0-.13-.44c0-.13-.1-.25-.13-.38A1,1,0,0,1,5,6.08a4.71,4.71,0,0,1,.92,0,.31.31,0,0,0,.32-.17A6,6,0,0,1,8.8,3.5a5.42,5.42,0,0,1,4-.12l.18.06h0c.59-.75,1.15-1,1.72-.78l-.09.24a1.15,1.15,0,0,0-1.19.43,1.05,1.05,0,0,0,.19,1.6,1.65,1.65,0,0,0,1,.38.72.72,0,0,0,.6-.26,4.08,4.08,0,0,0,.43-.68.69.69,0,0,0-.21-1l.14-.23c.62.38.62,1,0,1.9l.24.28a5.18,5.18,0,0,1,.93,5.2c-.08.23-.17.47-.27.69a.2.2,0,0,0,.07.29,4.92,4.92,0,0,1,.76.68A.68.68,0,0,1,17,13.39a6.55,6.55,0,0,1-1.31.3,1.27,1.27,0,0,0-.74.32c-.22.23-.47.45-.68.7l1.13-.29,1.14-.29.64,2.41-1.26.33-5.29,1.37a.88.88,0,0,0-.34.19l-5.5,5.2-.2.18Zm1.41-13-.24-.11.09-.25a2.51,2.51,0,0,0-1.25.08.55.55,0,0,0-.39.61,3.85,3.85,0,0,0,.16.65c0,.17.11.33.14.5a1.4,1.4,0,0,0,1.8,1.27c.32-.07.63-.18,1-.28,0,.07,0,.14,0,.2a3.26,3.26,0,0,0,.55,1.3,1.24,1.24,0,0,0,1.47.48,6,6,0,0,0,.58-.26l.12-.05A11.87,11.87,0,0,0,10.83,12a1.09,1.09,0,0,0,1.7.17l.36-.29v.25a1.42,1.42,0,0,0,1.78,1.48l1.55-.29a3.16,3.16,0,0,0,.66-.21c.36-.17.42-.39.18-.7a3,3,0,0,0-.43-.44c-.21-.16-.44-.29-.66-.44,1.5-3,.44-5.19-.66-6.23a1.31,1.31,0,0,1-1.58.05,1.35,1.35,0,0,1-.85-1.62C10.47,2.82,7.72,3.44,6.08,6.72ZM2.23,20.11l14.56-3.77-.5-1.87L1.73,18.25Zm5.44-4.87-.54-2.42c-.53.15-1,.3-1.56.42-.17,0-.19.13-.17.29.06.44.11.89.16,1.34s.08.6.13.92Zm1.48-3-1.74.48L8,15.17l1.73-.49Zm2.62,1.84c-.11-.44-.21-.87-.32-1.29a.18.18,0,0,0-.09-.08,1.91,1.91,0,0,1-.9-.71.19.19,0,0,0-.15-.07l-.88.24L10,14.61Zm-4.7-1.56-.46-2.08-1.29.28s-.09.09-.1.15a5.77,5.77,0,0,0,0,.72c0,.46.09.93.14,1.41Zm1.39,6.25-2.34.61.14,1.16,2-.69c.2-.08.36-.3.33-.43S8.51,19,8.46,18.79Zm.6-6.8c0-.39,0-.43-.35-.48A1.41,1.41,0,0,1,7.79,11c-.16-.2-.29-.42-.45-.65l-.44.1.45,2.05Zm3.29,3.21.94-.24a.82.82,0,0,0,.32-.12c.32-.28.62-.58.94-.87a2.82,2.82,0,0,0-1.63.11,4.77,4.77,0,0,1-.54.15l-.26.08Zm-4.62.32-2,.56.11.81,2.09-.54Zm4.11-1.14L10,14.89l.18.83s.06,0,.08,0L12,15.3a.18.18,0,0,0,.09-.13C12,14.91,11.91,14.66,11.84,14.38Zm-6.93,8.7c.27-.25.53-.53.83-.77a.76.76,0,0,0,.34-.89A2.15,2.15,0,0,1,6,21l-1,.36a.16.16,0,0,0-.09.12Zm3.29-6.8,1.73-.45L9.74,15,8,15.45Zm5.15-2.61a2,2,0,0,1-.71-1.16l-.88.33.3,1.18Zm-7.51,5.8-.8.21a.2.2,0,0,0-.08.1V21c.31-.1.63-.21.94-.33A.12.12,0,0,0,6,20.56C5.93,20.21,5.89,19.86,5.84,19.47Zm-.62-9,1.23-.26a.15.15,0,0,0,.08-.12,2.56,2.56,0,0,0-.07-.27l-1.2-.09Zm2.54,9.93,0,0-1.35.47s-.08.07-.08.11c0,.23.05.47.09.75ZM5.11,15.93c.29,0,.3,0,.26-.33,0,0,0-.11,0-.16L5.17,14H5.11Zm-.06,1.16A2.21,2.21,0,0,0,5.4,17s.12-.11.11-.16c0-.22,0-.44-.08-.69-.13.09-.35,0-.37.22S5.05,16.83,5.05,17.09ZM9.38,11.9l.84-.23L10,11.25l-.71.27Zm-.64,6.83.14.6.88-.84a7.17,7.17,0,0,0-.83.18Zm-2-9,.11.43L7.26,10l-.15-.46Z"/><path d="M16.52,1.63l.05.27a2.24,2.24,0,0,0-1.73,1.83l.34,0V4a.92.92,0,0,1-1.1-.64l.14,0,.1,0,.23.3A2.52,2.52,0,0,1,16.52,1.63Z"/><path d="M11.51,16.49c.35.39.34.54-.08.84a2.16,2.16,0,0,1-.51.29c-.3.12-.48,0-.42-.35s.08-.55.15-.82a.58.58,0,0,1,.23-.32A1.93,1.93,0,0,1,11.4,16a.31.31,0,0,1,.24.06c0,.05,0,.16,0,.24S11.55,16.41,11.51,16.49Zm-.7.68c0,.14.09.21.2.15A1.75,1.75,0,0,0,11.4,17s0-.14-.05-.16S10.82,17,10.81,17.17Zm.54-1c-.34,0-.46.11-.42.42C11.12,16.55,11.31,16.47,11.35,16.21Z"/><path d="M12.78,15.64c.43,0,.56.14.43.53a1.65,1.65,0,0,1-1.05,1.1c-.16.06-.25,0-.24-.16A5.13,5.13,0,0,1,12.07,16c0-.15.34-.24.52-.34A.41.41,0,0,1,12.78,15.64Zm-.56,1.23A1.38,1.38,0,0,0,13,16c0-.06-.09-.14-.15-.16a.47.47,0,0,0-.52.34C12.28,16.41,12.26,16.63,12.22,16.87Z"/><path d="M14.24,16.45a1,1,0,0,0-.7.4s-.13.07-.19.1-.08-.16-.06-.21c.25-.45.51-.9.78-1.34a.26.26,0,0,1,.23-.09c.07,0,.14.12.15.19q.08.48.12,1c0,.06-.09.12-.13.18Zm-.39-.18c.45-.07.49-.13.35-.5C14,15.87,13.93,16.07,13.85,16.27Z"/><path d="M5.1,18.82a1,1,0,0,0-.71.41c0,.05-.13.06-.2.09s-.08-.15-.05-.2c.25-.46.5-.92.79-1.36.12-.19.33-.12.37.1s.09.65.12,1c0,.06-.09.12-.14.18Zm-.39-.18c.44-.06.48-.13.34-.5A.73.73,0,0,0,4.71,18.64Z"/><path d="M4.06,18a2,2,0,0,1,0,.35c-.06.32-.13.63-.19.95a.42.42,0,0,1,0,.12.67.67,0,0,1-.14.09c0-.05-.06-.1,0-.14s0-.34.06-.51c-.42,0-.45.08-.52.47a1.19,1.19,0,0,1-.1.32.2.2,0,0,1-.17.06.16.16,0,0,1-.08-.14c.11-.49.23-1,.35-1.45.2,0,.27.06.21.24a1.67,1.67,0,0,0-.08.32c.38,0,.44-.07.48-.42C3.81,18.05,3.84,17.93,4.06,18Z"/><path d="M8.44,17c0,.11,0,.24-.08.31a2.53,2.53,0,0,1-.56.57.81.81,0,0,0-.4.55c-.05.22-.17.24-.31.11.08-.34.16-.65.24-1a.19.19,0,0,1,0-.08c0-.13-.11-.3.07-.39a3,3,0,0,1,.68-.24c.1,0,.23.1.35.15Zm-.87.73a1.1,1.1,0,0,0,.64-.63C7.69,17,7.6,17.22,7.57,17.69Z"/><path d="M5.53,18.85a2.44,2.44,0,0,0,.26-1.24.25.25,0,0,1,.06-.14,1,1,0,0,1,.78-.26c.3,0,.39.2.21.44a2.53,2.53,0,0,1-.56.57.83.83,0,0,0-.41.56C5.82,19,5.69,19,5.53,18.85Zm.52-.8a.85.85,0,0,0,.61-.62C6.23,17.41,6.05,17.59,6.05,18.05Z"/><path d="M8.44,17l.11-.22.16.13.25.31c.15-.27.26-.48.39-.68s.16-.06.24-.09,0,.19,0,.24a4.26,4.26,0,0,0-.71,1.39l-.07.14-.17-.13.24-.66L8.44,17Z"/><path d="M15.05,15.58c.17-.29.29-.51.43-.71,0,0,.12,0,.19-.07s.05.18,0,.22a5,5,0,0,0-.77,1.51l-.05,0-.15-.12.24-.66a4.1,4.1,0,0,1-.35-.39c0-.05,0-.16,0-.24a.76.76,0,0,1,.18.09C14.88,15.35,15,15.46,15.05,15.58Z"/></g><g class="cls-3"><path d="M4.33,19.43l-2.65.69L1,17.71l1.36-.36,1.82-.47c.14,0,.2-.08.2-.23,0-1.7.09-3.4.13-5.11,0-.74.06-1.49.08-2.24a.34.34,0,0,0-.07-.22A2.19,2.19,0,0,1,4,7.89a3.19,3.19,0,0,0-.13-.44c0-.13-.1-.25-.13-.38a1,1,0,0,1,.92-1.33,4.71,4.71,0,0,1,.92,0,.31.31,0,0,0,.32-.17,6,6,0,0,1,2.6-2.41,5.42,5.42,0,0,1,4-.12l.18.06h0c.59-.75,1.15-1,1.72-.78l-.09.24A1.15,1.15,0,0,0,13.06,3a1.05,1.05,0,0,0,.19,1.6,1.65,1.65,0,0,0,1,.38.72.72,0,0,0,.6-.26A4.08,4.08,0,0,0,15.25,4a.69.69,0,0,0-.21-1l.14-.23c.62.38.62,1,0,1.9l.24.28a5.18,5.18,0,0,1,.93,5.2c-.08.23-.17.47-.27.69a.2.2,0,0,0,.07.29,4.92,4.92,0,0,1,.76.68.68.68,0,0,1-.29,1.19,6.55,6.55,0,0,1-1.31.3,1.27,1.27,0,0,0-.74.32c-.22.23-.47.45-.68.7L15,14.08l1.14-.29.64,2.41-1.26.33L10.25,17.9a.88.88,0,0,0-.34.19l-5.5,5.2-.2.18Zm1.41-13L5.5,6.27,5.59,6a2.51,2.51,0,0,0-1.25.08A.55.55,0,0,0,4,6.71a3.85,3.85,0,0,0,.16.65c0,.17.11.33.14.5a1.4,1.4,0,0,0,1.8,1.27c.32-.07.63-.18,1-.28,0,.07,0,.14,0,.2a3.26,3.26,0,0,0,.55,1.3,1.24,1.24,0,0,0,1.47.48,6,6,0,0,0,.58-.26l.12-.05a11.87,11.87,0,0,0,.73,1.15,1.09,1.09,0,0,0,1.7.17l.36-.29v.25a1.42,1.42,0,0,0,1.78,1.48L15.88,13a3.16,3.16,0,0,0,.66-.21c.36-.17.42-.39.17-.7a2.49,2.49,0,0,0-.42-.44c-.21-.16-.44-.29-.66-.44C17.13,8.22,16.07,6,15,5a1.31,1.31,0,0,1-1.58,0,1.35,1.35,0,0,1-.85-1.62C10.13,2.48,7.38,3.1,5.74,6.38ZM1.89,19.77,16.45,16,16,14.13,1.39,17.91ZM7.33,14.9l-.54-2.42c-.53.15-1,.3-1.56.42-.17,0-.19.13-.17.29.06.44.11.89.16,1.34s.08.6.13.92Zm1.48-3-1.74.48.54,2.43,1.73-.49Zm2.62,1.84c-.11-.44-.21-.87-.32-1.29a.18.18,0,0,0-.09-.08,1.91,1.91,0,0,1-.9-.71.19.19,0,0,0-.15-.07l-.88.24.53,2.42ZM6.73,12.2l-.46-2.08L5,10.4s-.09.09-.1.15a5.77,5.77,0,0,0,0,.72c0,.46.09.93.14,1.41Zm1.39,6.25-2.34.61.14,1.16,2-.69c.2-.08.36-.3.33-.43S8.17,18.69,8.12,18.45Zm.6-6.8c0-.39,0-.43-.35-.48a1.45,1.45,0,0,1-.92-.55c-.16-.2-.3-.43-.45-.65l-.44.1.45,2ZM12,14.86l.94-.24a.82.82,0,0,0,.32-.12c.32-.28.62-.58.93-.87a2.8,2.8,0,0,0-1.62.11,4.77,4.77,0,0,1-.54.15l-.26.08Zm-4.62.32-2,.56.11.81L7.57,16ZM11.5,14l-1.82.51.18.83s.06,0,.08,0L11.61,15a.18.18,0,0,0,.09-.13C11.64,14.57,11.57,14.32,11.5,14Zm-6.93,8.7c.27-.25.53-.53.83-.77a.76.76,0,0,0,.34-.89,2.15,2.15,0,0,1-.06-.47l-1,.36a.16.16,0,0,0-.09.12Zm3.29-6.8,1.73-.45-.19-.87-1.73.49ZM13,13.33a2,2,0,0,1-.71-1.16l-.88.33.3,1.18ZM5.5,19.13l-.8.21a.2.2,0,0,0-.08.1v1.23c.31-.1.63-.21.94-.33a.12.12,0,0,0,.07-.12C5.59,19.87,5.55,19.52,5.5,19.13Zm-.62-9,1.23-.26a.15.15,0,0,0,.08-.12,2.56,2.56,0,0,0-.07-.27l-1.2-.09Zm2.54,9.93,0,0-1.35.47s-.08.07-.08.1c0,.24,0,.48.09.76ZM4.77,15.59c.29,0,.3,0,.26-.33,0,0,0-.11,0-.16l-.18-1.49H4.77Zm-.06,1.16a2.21,2.21,0,0,0,.35-.09c.05,0,.12-.11.11-.16,0-.22,0-.44-.08-.69-.14.09-.35,0-.37.22S4.71,16.49,4.71,16.75ZM9,11.56l.84-.23-.22-.42L9,11.18ZM8.4,18.39l.14.6.88-.84a7.17,7.17,0,0,0-.83.18Zm-2-9,.11.43.42-.09-.15-.46Z"/><path d="M16.17,1.29l.06.27A2.24,2.24,0,0,0,14.5,3.39l.34,0v.25A.92.92,0,0,1,13.75,3l.14,0L14,3l.23.3A2.52,2.52,0,0,1,16.17,1.29Z"/><path d="M11.17,16.15c.35.39.34.54-.08.84a2.16,2.16,0,0,1-.51.29c-.3.12-.48,0-.42-.35s.08-.55.15-.82a.58.58,0,0,1,.23-.32,1.93,1.93,0,0,1,.52-.15.31.31,0,0,1,.24.06c0,.05,0,.16,0,.24S11.21,16.07,11.17,16.15Zm-.7.68c0,.14.09.21.2.15a2.07,2.07,0,0,0,.39-.33s0-.14-.05-.16S10.48,16.65,10.47,16.83Zm.54-1c-.34,0-.46.11-.42.42C10.78,16.21,11,16.13,11,15.87Z"/><path d="M12.44,15.3c.43,0,.56.14.43.53a1.67,1.67,0,0,1-1,1.1c-.16.06-.25,0-.24-.16a5.13,5.13,0,0,1,.15-1.12c0-.15.34-.24.52-.34A.41.41,0,0,1,12.44,15.3Zm-.56,1.23a1.38,1.38,0,0,0,.77-.86c0-.06-.09-.14-.15-.16a.47.47,0,0,0-.52.34C11.94,16.07,11.92,16.29,11.88,16.53Z"/><path d="M13.9,16.11a1,1,0,0,0-.7.4s-.13.07-.19.1-.08-.16-.06-.21c.25-.45.51-.9.78-1.34A.26.26,0,0,1,14,15c.07,0,.14.12.15.19q.08.48.12,1c0,.06-.09.12-.13.18Zm-.39-.18c.45-.07.49-.13.35-.5C13.65,15.53,13.59,15.73,13.51,15.93Z"/><path d="M4.76,18.48a1,1,0,0,0-.71.41c0,.05-.13.06-.2.09s-.08-.15-.05-.2c.25-.46.5-.92.79-1.36.12-.19.33-.12.37.1s.09.65.12,1c0,.06-.09.12-.14.18Zm-.39-.18c.44-.07.48-.13.34-.5A.73.73,0,0,0,4.37,18.3Z"/><path d="M3.72,17.61a2,2,0,0,1,0,.35c-.06.32-.13.63-.19.95a.42.42,0,0,1,0,.12,1.1,1.1,0,0,1-.14.09c0-.05-.06-.1-.05-.14s0-.34.06-.51c-.42,0-.45.08-.52.47a1.19,1.19,0,0,1-.1.32.2.2,0,0,1-.17.06.16.16,0,0,1-.08-.14c.11-.49.23-1,.35-1.46.2,0,.27.07.2.25a3,3,0,0,0-.07.32c.38,0,.44-.07.48-.42C3.47,17.71,3.5,17.59,3.72,17.61Z"/><path d="M8.1,16.62c0,.11,0,.24-.08.31a2.53,2.53,0,0,1-.56.57.81.81,0,0,0-.4.55c0,.22-.17.24-.31.11.08-.34.16-.65.24-1a.19.19,0,0,1,0-.08c0-.13-.11-.3.07-.39a3,3,0,0,1,.68-.24c.1,0,.23.09.35.15Zm-.87.73a1.1,1.1,0,0,0,.64-.63C7.35,16.69,7.26,16.88,7.23,17.35Z"/><path d="M5.19,18.51a2.44,2.44,0,0,0,.26-1.24.22.22,0,0,1,.06-.14,1,1,0,0,1,.78-.26c.3,0,.39.2.21.44a2.53,2.53,0,0,1-.56.57.83.83,0,0,0-.41.56C5.48,18.66,5.35,18.67,5.19,18.51Zm.52-.8a.85.85,0,0,0,.61-.62C5.89,17.07,5.71,17.25,5.71,17.71Z"/><path d="M8.1,16.63l.11-.22.16.13.25.31c.15-.27.26-.48.39-.68s.16-.06.24-.09,0,.19,0,.24a4.26,4.26,0,0,0-.71,1.39l-.07.14-.17-.13.24-.66-.42-.44Z"/><path d="M14.71,15.24c.17-.29.29-.51.43-.71,0,0,.12,0,.19-.07s.05.18,0,.22a4.8,4.8,0,0,0-.77,1.51l-.05,0-.15-.12.24-.66a3.08,3.08,0,0,1-.35-.39c0-.05,0-.16,0-.24a.76.76,0,0,1,.18.09C14.54,15,14.62,15.12,14.71,15.24Z"/></g><path class="cls-4" d="M4.53,19.63l-2.65.68L1.24,17.9l1.36-.35,1.82-.47c.14,0,.19-.08.2-.24,0-1.7.08-3.4.13-5.1,0-.74,0-1.49.07-2.24a.28.28,0,0,0-.06-.22,2.22,2.22,0,0,1-.6-1.19c0-.15-.09-.3-.13-.44s-.1-.26-.13-.38a1,1,0,0,1,.91-1.33,5.78,5.78,0,0,1,.93,0,.29.29,0,0,0,.32-.16,5.94,5.94,0,0,1,2.6-2.41,5.37,5.37,0,0,1,4-.12l.18.06h0c.59-.74,1.14-1,1.72-.77l-.09.24a1.15,1.15,0,0,0-1.19.43,1.05,1.05,0,0,0,.19,1.6,1.65,1.65,0,0,0,1,.38A.67.67,0,0,0,15,4.9a3.69,3.69,0,0,0,.44-.67.71.71,0,0,0-.21-1L15.38,3c.62.38.62,1,0,1.9.07.09.16.18.23.28a5.18,5.18,0,0,1,.93,5.2,6.46,6.46,0,0,1-.26.69.2.2,0,0,0,.07.29,4.43,4.43,0,0,1,.75.68.67.67,0,0,1-.29,1.19,6.94,6.94,0,0,1-1.31.3,1.21,1.21,0,0,0-.73.32c-.22.23-.47.45-.68.7l1.13-.29,1.14-.3L17,16.4l-1.26.33L10.45,18.1a.72.72,0,0,0-.34.19l-5.5,5.19a1.92,1.92,0,0,1-.2.19Zm1.41-13L5.7,6.47l.09-.26a2.62,2.62,0,0,0-1.25.09.53.53,0,0,0-.39.6,4,4,0,0,0,.16.66c0,.16.11.33.14.5a1.38,1.38,0,0,0,1.8,1.26c.32-.06.63-.18,1-.27a1.42,1.42,0,0,0,0,.2,3.26,3.26,0,0,0,.55,1.3A1.24,1.24,0,0,0,9.26,11a6,6,0,0,0,.58-.26l.11,0a11.93,11.93,0,0,0,.74,1.15,1.09,1.09,0,0,0,1.7.17l.36-.29a2.06,2.06,0,0,0,0,.25,1.42,1.42,0,0,0,1.77,1.48c.52-.09,1-.19,1.55-.3a3,3,0,0,0,.67-.2c.36-.17.42-.39.17-.7a2.51,2.51,0,0,0-.42-.44c-.21-.16-.44-.3-.66-.44,1.5-3,.44-5.19-.66-6.23a1.31,1.31,0,0,1-1.58,0,1.35,1.35,0,0,1-.85-1.62C10.32,2.67,7.58,3.3,5.94,6.58ZM2.09,20,16.65,16.2l-.5-1.87L1.59,18.1ZM7.53,15.1,7,12.68c-.53.15-1,.29-1.56.42-.17.05-.19.13-.17.28.06.45.11.9.16,1.34s.08.61.13.93Zm1.48-3-1.74.48L7.81,15l1.73-.48ZM11.63,14c-.11-.44-.21-.87-.32-1.29a.14.14,0,0,0-.1-.08,1.94,1.94,0,0,1-.89-.71s-.11-.09-.15-.08l-.88.25.53,2.42ZM6.93,12.4l-.46-2.08-1.29.28s-.09.09-.1.15a4.21,4.21,0,0,0,0,.71c0,.47.09.94.13,1.42Zm1.38,6.25L6,19.26l.14,1.16,2-.69c.21-.08.37-.3.34-.43S8.37,18.89,8.31,18.65Zm.61-6.8c0-.39,0-.44-.35-.49a1.44,1.44,0,0,1-.93-.54c-.16-.2-.29-.43-.44-.65l-.45.1.46,2.05Zm3.28,3.21,1-.24a.72.72,0,0,0,.31-.12c.33-.28.63-.58.94-.87a2.88,2.88,0,0,0-1.62.1,3.19,3.19,0,0,1-.55.16l-.25.08Zm-4.61.32-2,.56.11.81,2.09-.54Zm4.11-1.14-1.82.51.18.83s.06,0,.08,0l1.67-.43a.14.14,0,0,0,.08-.13C11.84,14.77,11.77,14.51,11.7,14.24Zm-6.93,8.7c.27-.25.53-.53.82-.77a.76.76,0,0,0,.35-.9,2.05,2.05,0,0,1-.06-.46c-.36.12-.69.23-1,.36a.17.17,0,0,0-.08.12Zm3.29-6.81,1.73-.45-.19-.86-1.73.48Zm5.15-2.61a1.9,1.9,0,0,1-.71-1.15l-.89.33.3,1.18ZM5.7,19.33l-.8.21a.14.14,0,0,0-.08.1v1.23c.31-.1.63-.21.94-.33,0,0,.07-.08.07-.12C5.79,20.07,5.74,19.72,5.7,19.33Zm-.62-9,1.23-.26a.12.12,0,0,0,.07-.12,2.31,2.31,0,0,0-.06-.27l-1.2-.09Zm2.54,9.92,0,0-1.35.47a.13.13,0,0,0-.08.1c0,.24,0,.47.09.76ZM5,15.79c.29,0,.3,0,.26-.33a.88.88,0,0,1,0-.17c-.06-.49-.12-1-.19-1.48H5ZM4.91,17c.13,0,.25-.05.35-.09s.12-.11.11-.16c0-.22,0-.44-.08-.69-.14.09-.36,0-.37.22S4.91,16.69,4.91,17Zm4.32-5.19.85-.24-.22-.41-.72.27ZM8.6,18.59l.14.6.88-.84c-.29,0-.56.11-.83.17Zm-2-9L6.7,10l.42-.09L7,9.42Z"/><path class="cls-4" d="M16.37,1.49l.06.27A2.23,2.23,0,0,0,14.7,3.59l.34,0v.25A.92.92,0,0,1,14,3.23l.14,0h.1l.23.3A2.51,2.51,0,0,1,16.37,1.49Z"/><path class="cls-4" d="M11.37,16.35c.35.39.34.54-.08.84a2.39,2.39,0,0,1-.52.29c-.29.12-.47,0-.41-.35s.08-.56.15-.82a.58.58,0,0,1,.23-.32,1.56,1.56,0,0,1,.52-.15.28.28,0,0,1,.24.06s0,.16,0,.24S11.41,16.27,11.37,16.35Zm-.7.67c0,.14.09.22.2.16a2.07,2.07,0,0,0,.39-.33s0-.14,0-.17S10.67,16.85,10.67,17Zm.54-.95c-.34,0-.46.11-.42.42C11,16.41,11.17,16.33,11.21,16.07Z"/><path class="cls-4" d="M12.63,15.5c.44,0,.56.14.44.53A1.68,1.68,0,0,1,12,17.13c-.15.06-.25,0-.23-.16a5.13,5.13,0,0,1,.15-1.12c.05-.16.34-.24.52-.34A.38.38,0,0,1,12.63,15.5Zm-.55,1.23c.26,0,.79-.64.77-.86a.22.22,0,0,0-.16-.16.47.47,0,0,0-.51.34C12.14,16.26,12.12,16.49,12.08,16.73Z"/><path class="cls-4" d="M14.1,16.31a.93.93,0,0,0-.7.4c0,.05-.13.07-.19.1s-.09-.17-.06-.21c.25-.46.51-.9.78-1.35a.27.27,0,0,1,.23-.08c.07,0,.14.12.15.19,0,.32.09.64.11,1,0,.06-.08.12-.12.18Zm-.39-.18c.45-.07.49-.14.35-.5C13.85,15.73,13.79,15.93,13.71,16.13Z"/><path class="cls-4" d="M5,18.68a.93.93,0,0,0-.71.41c0,.05-.13.06-.2.09S4,19,4,19c.26-.46.51-.92.8-1.36.12-.19.33-.13.37.1a7.94,7.94,0,0,1,.11,1c0,.06-.08.12-.13.17Zm-.39-.18c.43-.07.48-.13.34-.5A.73.73,0,0,0,4.57,18.5Z"/><path class="cls-4" d="M3.92,17.81c0,.12,0,.24,0,.35-.06.32-.13.63-.19.95a.42.42,0,0,1,0,.12,1.1,1.1,0,0,1-.14.09c0-.05-.06-.1,0-.14s0-.34.06-.51c-.42,0-.46.07-.52.47a1.19,1.19,0,0,1-.1.32.21.21,0,0,1-.18.06.17.17,0,0,1-.07-.14c.11-.49.23-1,.35-1.46.2,0,.27.07.2.24s-.05.22-.08.33c.39,0,.45-.07.49-.42C3.66,17.91,3.7,17.79,3.92,17.81Z"/><path class="cls-4" d="M8.3,16.82c0,.1,0,.23-.09.31a2.71,2.71,0,0,1-.55.57.78.78,0,0,0-.4.54c0,.23-.17.25-.32.12.09-.34.17-.65.24-1,0,0,0-.06,0-.09s-.12-.29.06-.38A3.32,3.32,0,0,1,8,16.68c.1,0,.23.09.35.14Zm-.87.73a1.1,1.1,0,0,0,.64-.63C7.54,16.89,7.46,17.08,7.43,17.55Z"/><path class="cls-4" d="M5.39,18.71a2.44,2.44,0,0,0,.26-1.24.18.18,0,0,1,.06-.14,1,1,0,0,1,.78-.27c.3.05.39.21.2.45a2.3,2.3,0,0,1-.55.57.83.83,0,0,0-.41.56C5.67,18.85,5.55,18.87,5.39,18.71Zm.52-.8a.85.85,0,0,0,.6-.62C6.09,17.27,5.91,17.45,5.91,17.91Z"/><path class="cls-4" d="M8.3,16.82l.11-.21a.93.93,0,0,1,.15.13c.09.09.16.19.26.31.15-.27.26-.48.39-.68s.16-.06.24-.09,0,.19,0,.24a4.12,4.12,0,0,0-.71,1.38l-.07.15-.17-.13.24-.66-.42-.44Z"/><path class="cls-4" d="M14.91,15.43c.17-.28.29-.5.43-.7s.12-.05.19-.07.05.18,0,.21a5,5,0,0,0-.77,1.52l0,0-.15-.12.24-.67a2.46,2.46,0,0,1-.35-.38s0-.16,0-.24a.76.76,0,0,1,.18.09C14.74,15.21,14.82,15.32,14.91,15.43Z"/></g></g></svg>