<svg xmlns="http://www.w3.org/2000/svg" viewBox="0 0 38.55 24.66"><defs><style>.cls-1{isolation:isolate;}.cls-2{opacity:0.15;}.cls-2,.cls-3{mix-blend-mode:multiply;}.cls-4{fill:#fff;}</style></defs><title>convert-CUSTOMIZE-SVG-03</title><g class="cls-1"><g id="Layer_1" data-name="Layer 1"><g class="cls-2"><path d="M4.87,11.85c-.19-.94.48-1.24,1.11-1.59a2.62,2.62,0,0,1-.24-.34,1.11,1.11,0,0,1,.32-1.6,3.9,3.9,0,0,1,1.58-.6c.68-.12,1.36-.19,2-.3a3.45,3.45,0,0,0,1.38-.51,1.22,1.22,0,0,0,.57-1.51c0-.18-.11-.35-.18-.56a3.12,3.12,0,0,1,2.23,1.3A3.16,3.16,0,0,1,14,8.67h.69A10.86,10.86,0,0,1,16,8.74a1.32,1.32,0,0,1,1.13,1.8,4.37,4.37,0,0,1-.8,1.54A2,2,0,0,1,17.64,14l.49-.19c-.1.43-.19.85-.29,1.26q-.78,3.24-1.55,6.49a.36.36,0,0,1-.24.28A11.86,11.86,0,0,1,13,22.7H9.52a10.09,10.09,0,0,1-2.72-.53c-.37-.11-.72-.25-1.07-.39a.34.34,0,0,1-.19-.2C4.75,19.41,4,17.23,3.2,15.05a.61.61,0,0,1,0-.26.28.28,0,0,1,.07-.09.63.63,0,0,0,.18-.62,1.94,1.94,0,0,1,.36-1.64A1.77,1.77,0,0,1,4.87,11.85Zm-.66,2.77a.59.59,0,0,0-.23.77c.7,1.88,1.36,3.76,2,5.65a.51.51,0,0,0,.34.33,14.11,14.11,0,0,0,3.74.8,11.8,11.8,0,0,0,5.45-.82.48.48,0,0,0,.2-.24q.7-2.89,1.39-5.81c0-.14.06-.29.1-.47-.34.15-.65.27-.95.41a.38.38,0,0,0-.2.23c-.31,1.24-.6,2.48-.9,3.72-.1.4-.2.8-.31,1.21l-.23-.06c0-.1,0-.18.06-.25.38-1.56.76-3.12,1.13-4.68,0-.06,0-.18,0-.2l-1.12-.53-.31,2.65-.24,0,.27-2.46c-.15.12-.25.21-.36.28a.47.47,0,0,0-.24.43c-.07,1.08-.15,2.16-.23,3.23,0,.44-.06.89-.1,1.34l-.24,0c0-.33,0-.65.07-1l.27-3.73c0-.05,0-.13,0-.16l-1-.67v4.14h-.25V14.56a3.39,3.39,0,0,1-.56.33.77.77,0,0,0-.54,1V16l.24,3.63c0,.38.05.77.07,1.16h-.23a.43.43,0,0,1,0-.11c-.05-.69-.09-1.38-.14-2.07-.07-1.07-.14-2.14-.22-3.21a.26.26,0,0,0-.13-.18c-.22-.14-.45-.26-.68-.39l-.46-.25L10.06,18l-.25,0-.45-3.46c-.26.2-.47.38-.7.54a.29.29,0,0,0-.13.34c.18,1,.35,2,.53,3,.08.46.15.91.23,1.38l-.24.05c-.26-1.5-.52-3-.77-4.46a.28.28,0,0,0-.19-.24l-1.15-.54a.47.47,0,0,0-.17-.06l1.42,4.51L8,19.21,6.5,14.58c-.17.2-.3.37-.44.52a.27.27,0,0,0-.06.3c.23.78.46,1.56.68,2.33.34,1.13.67,2.26,1,3.4l-.23.07L7.38,21c-.54-1.82-1.07-3.65-1.61-5.47a.34.34,0,0,0-.12-.21l-1.18-.67,1.81,5.86L6,20.57Zm7.18-3.18-.74-.24a9.63,9.63,0,0,0-3.77-.48,2.23,2.23,0,0,0-1.16.41c-.33.26-.34.46,0,.75a2.12,2.12,0,0,0,1.08.58c.31.06.62.14.93.19a15.74,15.74,0,0,0,5.3.27,5.61,5.61,0,0,0,2.28-.77,3,3,0,0,0,1.29-1.94.61.61,0,0,0-.46-.79,2.1,2.1,0,0,0-.78-.13c-1.15.07-2.29.16-3.44.27a14,14,0,0,1-2.5.18,8.24,8.24,0,0,1-.93-.16L8.69,9a4.17,4.17,0,0,0,1.82.12q1.35-.15,2.7-.33a.22.22,0,0,0,.17-.14,3,3,0,0,0,0-1.48,2.05,2.05,0,0,0-1.1-1.38,1.93,1.93,0,0,1-1.16,1.8,5.41,5.41,0,0,1-1.8.53c-.73.11-1.46.23-2.18.39a2.63,2.63,0,0,0-.78.36.47.47,0,0,0-.15.71,2.37,2.37,0,0,0,.35.42.42.42,0,0,0,.28.1,10.44,10.44,0,0,1,3.47.39c.42.12.83.25,1.25.39Zm-5,2.29,1.67.79a.31.31,0,0,0,.39,0c.26-.22.54-.42.81-.64a.2.2,0,0,1,.27,0l1.31.74a.23.23,0,0,0,.27,0c.38-.24.78-.47,1.17-.72a.23.23,0,0,1,.28,0c.33.23.67.45,1,.68a.18.18,0,0,0,.26,0L14.4,14a.24.24,0,0,1,.3,0c.4.2.8.39,1.21.57a.36.36,0,0,0,.25,0,6.07,6.07,0,0,0,.7-.29.25.25,0,0,0,.13-.17,1.36,1.36,0,0,0-1.11-1.53.29.29,0,0,0-.22,0,7.14,7.14,0,0,1-3.54,1,19.3,19.3,0,0,1-4.85-.43,3.85,3.85,0,0,1-1.9-.75.15.15,0,0,0-.11,0,1.15,1.15,0,0,0-1.18,1.16.27.27,0,0,0,.08.16l1.51.84Z"/><path d="M2.64,8.48c.12.07.23.12.33.19s.17.14.07.26a.19.19,0,0,1-.31,0,2.67,2.67,0,0,1-.26-.3c0,.12,0,.22-.05.32s0,.22-.19.19a.23.23,0,0,1-.18-.29,1.72,1.72,0,0,1,.18-.32,1.19,1.19,0,0,1-.32,0,.3.3,0,0,1-.2-.14c0-.13.07-.22.19-.22a1.72,1.72,0,0,1,.37,0,1,1,0,0,1-.16-.21.43.43,0,0,1,0-.29.24.24,0,0,1,.24-.1.45.45,0,0,1,.17.25,1.16,1.16,0,0,1,0,.33A4.11,4.11,0,0,1,2.86,8c.11-.08.26-.14.35,0s0,.27-.15.34S2.8,8.42,2.64,8.48Z"/><path d="M16.23,6.64a2.35,2.35,0,0,1,.32-.28.77.77,0,0,1,.34-.07s.1.14.09.16a.72.72,0,0,1-.24.25,1.6,1.6,0,0,1-.37.13c.12.07.24.12.34.19s.17.14.06.26a.19.19,0,0,1-.31,0,2.65,2.65,0,0,1-.25-.3c0,.12,0,.22-.05.33s-.05.22-.2.18-.23-.14-.17-.29A1.72,1.72,0,0,1,16,6.92l-.31,0c-.11,0-.22,0-.23-.15a.21.21,0,0,1,.23-.22,1.43,1.43,0,0,1,.34.06,2,2,0,0,1-.19-.29.23.23,0,0,1,0-.23A.26.26,0,0,1,16.06,6a.24.24,0,0,1,.16.19A1.79,1.79,0,0,1,16.23,6.64Z"/><path d="M3.67,3.85,4,4c.09.06.18.13.09.26a.21.21,0,0,1-.33,0A2.81,2.81,0,0,1,3.5,4c0,.12,0,.23,0,.34s-.06.22-.21.17a.2.2,0,0,1-.15-.28,2.3,2.3,0,0,1,.19-.33A1.26,1.26,0,0,1,3,4c-.08,0-.2-.08-.21-.14s0-.22.19-.22a2,2,0,0,1,.34,0c-.06-.1-.12-.19-.17-.29s0-.25.16-.3.23,0,.26.16,0,.26,0,.41c.13-.1.25-.21.38-.3s.24-.1.32.05,0,.23-.12.29A4,4,0,0,1,3.67,3.85Z"/><path d="M2.9,11.88a1,1,0,0,1-.33,0c-.07,0-.14-.09-.21-.15s.12-.18.19-.2a1.25,1.25,0,0,1,.38,0c-.1-.16-.31-.29-.18-.5A.28.28,0,0,1,3,11c.25.11.15.35.19.56l.34-.27c.12-.08.26-.13.35,0s0,.26-.15.32-.27.1-.42.16l.33.19c.09.06.15.14.06.26a.21.21,0,0,1-.3.05A3.22,3.22,0,0,1,3.12,12a2.88,2.88,0,0,1,0,.33c0,.1,0,.22-.19.19s-.22-.13-.18-.26A2.42,2.42,0,0,1,2.9,11.88Z"/><path d="M10.48,3.23a1.5,1.5,0,0,1-.35,0c-.07,0-.19-.1-.18-.12s.07-.21.14-.22a1.79,1.79,0,0,1,.4,0,1.92,1.92,0,0,1-.18-.28c-.08-.17,0-.26.16-.31s.23,0,.25.17a2.61,2.61,0,0,1,0,.42L11,2.76a.84.84,0,0,1,.27-.16c.07,0,.21,0,.23.07s0,.22-.06.25a3.31,3.31,0,0,1-.5.24,2.69,2.69,0,0,1,.29.16c.1.06.2.14.1.27a.21.21,0,0,1-.34,0,2,2,0,0,1-.24-.3,1.87,1.87,0,0,1,0,.35c0,.09-.05.23-.2.17a.21.21,0,0,1-.16-.29A1.72,1.72,0,0,1,10.48,3.23Z"/><path d="M17.58,3.31c-.09-.17-.3-.31-.16-.51a.42.42,0,0,1,.25-.09,5,5,0,0,1,.23.53c.06-.05.15-.14.26-.22s.26-.17.38,0,0,.26-.19.35l-.2.07L18,3.5a1.32,1.32,0,0,1,.33.2.24.24,0,0,1,.08.23.18.18,0,0,1-.3.07,1.83,1.83,0,0,1-.28-.32c0,.12,0,.22,0,.32s0,.22-.19.2a.2.2,0,0,1-.18-.28,1.4,1.4,0,0,1,.18-.34,2.17,2.17,0,0,1-.25,0,.51.51,0,0,1-.25-.05s0-.16,0-.19a.44.44,0,0,1,.25-.11A1,1,0,0,1,17.58,3.31Z"/><path d="M7.77,5.55a2.68,2.68,0,0,1,.34-.27c.12-.08.26-.13.35,0s0,.25-.15.32-.28.1-.43.15L8.2,6c.1.07.17.15.07.28a.2.2,0,0,1-.31,0C7.87,6.18,7.8,6.08,7.7,6a1.11,1.11,0,0,1,0,.33c0,.08-.12.18-.17.18a.19.19,0,0,1-.2-.24,2.53,2.53,0,0,1,.18-.37.88.88,0,0,1-.32,0c-.08,0-.14-.09-.21-.15s.12-.18.19-.2a1.5,1.5,0,0,1,.36,0,1.25,1.25,0,0,1-.16-.24.41.41,0,0,1,0-.27A.25.25,0,0,1,7.57,5c.07,0,.13.12.16.19S7.75,5.42,7.77,5.55Z"/><path d="M18.13,10.8a1.64,1.64,0,0,1-.17-.26.21.21,0,0,1,.13-.33c.16-.06.25,0,.27.17s0,.25.05.39c.11-.09.21-.19.33-.27s.26-.14.35,0,0,.26-.14.32l-.44.16.32.17c.1.07.19.15.08.28a.2.2,0,0,1-.32,0,2.81,2.81,0,0,1-.25-.31,1.49,1.49,0,0,1,0,.33c0,.08-.11.19-.17.19a.19.19,0,0,1-.2-.24,2.64,2.64,0,0,1,.18-.38.71.71,0,0,1-.29,0c-.08,0-.21-.07-.23-.14s.07-.22.21-.22Z"/><path d="M3.73,8.09,4.15,8l.13.53-.43.1Z"/><path d="M2,21.79l-.43.09-.13-.52.43-.1Z"/><path d="M15.73,3l.43-.09.12.53-.43.09Z"/><path d="M18.86,16l-.43.09-.12-.52.42-.1Z"/><path d="M3,17.54l-.43.1-.12-.54L2.88,17Z"/><path d="M1.6,2.86,2,2.76l.13.53-.43.1Z"/><path d="M5.78,5.14l-.43.09-.12-.52.43-.1Z"/><path d="M1,12.84l.44-.09.12.53-.43.09Z"/><path d="M7.34,2.89l-.07.2L7,3l.05-.21Z"/><path d="M5.24,7.26l.26.07-.06.21-.26-.07Z"/><path d="M2.48,5.07l.27.07,0,.2-.25-.06Z"/><path d="M2.15,15l.26.08-.05.2-.26-.07Z"/><path d="M1.65,17.81,1.59,18,1.35,18l0-.21Z"/><path d="M18.26,20.26c0-.29.16-.17.3-.12l-.07.2Z"/><path d="M12.2,3.41l.2-.06.08.25-.21.06Z"/><path d="M1.59,10l-.07.21-.24-.07L1.33,10Z"/><path d="M18.08,6.41l.08-.2.24.08-.06.2Z"/><path d="M10.78,5.78,10.71,6a.58.58,0,0,1-.21-.07s0-.15,0-.15Z"/><path d="M15,4.46,15,4.67l-.25-.07,0-.21Z"/><path d="M3.52,9.89a.49.49,0,0,0,0-.11l0-.1.26.08-.07.2Z"/><path d="M14.16,3.8,14,3.85l-.06-.23C14.12,3.51,14.14,3.53,14.16,3.8Z"/><path d="M18.41,18l.05-.21.26.07,0,.21Z"/><path d="M3.19,19.92l-.06.19c-.27-.05-.27-.05-.17-.26Z"/><path d="M17.32,21l-.09.2L17,21.15,17,21Z"/><path d="M18.14,8.46l-.06.2-.25-.07.05-.2Z"/><path d="M5.07,12c-.19-.93.48-1.23,1.1-1.58l-.24-.34a1.12,1.12,0,0,1,.33-1.6,3.76,3.76,0,0,1,1.58-.6c.67-.12,1.35-.19,2-.3a3.77,3.77,0,0,0,1.38-.51,1.23,1.23,0,0,0,.57-1.51c-.05-.18-.11-.36-.18-.56a3.12,3.12,0,0,1,2.23,1.3,3.16,3.16,0,0,1,.36,2.53h.69a10.86,10.86,0,0,1,1.28.07,1.32,1.32,0,0,1,1.13,1.8,4.45,4.45,0,0,1-.8,1.54,2,2,0,0,1,1.31,1.89l.49-.19c-.1.43-.2.85-.29,1.26q-.78,3.24-1.55,6.49a.38.38,0,0,1-.24.28,12.22,12.22,0,0,1-3.08.89h-.23c-1.07,0-2.14,0-3.22,0A10.22,10.22,0,0,1,7,22.38c-.36-.11-.71-.25-1.07-.39a.41.41,0,0,1-.19-.2Q4.56,18.52,3.4,15.25a.59.59,0,0,1,0-.26.28.28,0,0,1,.07-.09.63.63,0,0,0,.18-.62,1.94,1.94,0,0,1,.36-1.64A1.84,1.84,0,0,1,5.07,12ZM4.4,14.82a.6.6,0,0,0-.22.77c.69,1.87,1.36,3.76,2,5.65a.5.5,0,0,0,.33.33,14.27,14.27,0,0,0,3.75.8,11.8,11.8,0,0,0,5.45-.82.41.41,0,0,0,.19-.24c.48-1.93.94-3.87,1.4-5.81,0-.14.06-.29.1-.47-.35.15-.66.27-1,.41a.38.38,0,0,0-.2.23c-.31,1.24-.6,2.48-.91,3.72-.09.4-.19.8-.3,1.21l-.23-.06c0-.1,0-.18.06-.26.37-1.55.75-3.11,1.13-4.67,0-.07,0-.18,0-.2l-1.12-.53-.31,2.65-.24,0,.27-2.46c-.15.12-.25.21-.36.28a.47.47,0,0,0-.24.43c-.07,1.08-.15,2.15-.23,3.23,0,.44-.06.88-.1,1.34l-.24,0,.06-1c.09-1.24.19-2.49.28-3.73a.25.25,0,0,0,0-.16l-1-.67v4.14h-.26V14.76a3.64,3.64,0,0,1-.55.33c-.47.2-.72.51-.54,1v.06l.24,3.64c0,.38,0,.77.07,1.16h-.23a.52.52,0,0,1,0-.11c0-.69-.09-1.38-.14-2.07-.07-1.07-.14-2.14-.22-3.21a.28.28,0,0,0-.13-.19L10.28,15l-.47-.25.44,3.42-.24,0-.45-3.46c-.26.2-.47.38-.7.54a.31.31,0,0,0-.14.34l.54,3c.08.45.15.91.23,1.38l-.24,0c-.26-1.5-.52-3-.77-4.45a.3.3,0,0,0-.19-.25c-.39-.17-.77-.36-1.15-.54l-.17,0,1.42,4.51-.24.08L6.7,14.78c-.17.2-.3.37-.44.52a.26.26,0,0,0-.07.3c.24.78.46,1.56.69,2.33.33,1.13.66,2.26,1,3.4l-.23.07-.07-.22C7,19.36,6.51,17.53,6,15.71c0-.08-.06-.18-.12-.21l-1.18-.67,1.8,5.86-.23.07Zm7.19-3.18-.74-.24a9.63,9.63,0,0,0-3.77-.48,2.2,2.2,0,0,0-1.16.41c-.33.26-.35.46,0,.75A2.15,2.15,0,0,0,7,12.66l.93.19a16,16,0,0,0,5.3.27,5.63,5.63,0,0,0,2.28-.78,3,3,0,0,0,1.29-1.93.63.63,0,0,0-.46-.8,2.31,2.31,0,0,0-.78-.12c-1.15.07-2.3.16-3.44.27a15,15,0,0,1-2.51.18,8.48,8.48,0,0,1-.92-.16l.24-.61a4,4,0,0,0,1.82.13L13.41,9a.22.22,0,0,0,.17-.14,3,3,0,0,0,.05-1.49A2.06,2.06,0,0,0,12.53,6a1.93,1.93,0,0,1-1.17,1.8,5.6,5.6,0,0,1-1.79.53c-.73.11-1.46.23-2.18.39a2.63,2.63,0,0,0-.78.36.45.45,0,0,0-.15.71,2.37,2.37,0,0,0,.35.42.42.42,0,0,0,.28.1,10.19,10.19,0,0,1,3.47.39c.41.11.82.25,1.25.38Zm-5,2.28c.57.27,1.13.53,1.67.8a.32.32,0,0,0,.4,0c.26-.22.54-.42.8-.65a.21.21,0,0,1,.28,0l1.31.74a.24.24,0,0,0,.27,0L12.49,14a.21.21,0,0,1,.28,0c.33.23.67.45,1,.68a.18.18,0,0,0,.26,0l.58-.46a.23.23,0,0,1,.3,0c.4.2.8.38,1.21.56a.32.32,0,0,0,.25,0,6.07,6.07,0,0,0,.7-.29.27.27,0,0,0,.13-.17,1.36,1.36,0,0,0-1.11-1.53.29.29,0,0,0-.22,0,7.14,7.14,0,0,1-3.54,1,19.3,19.3,0,0,1-4.85-.43,3.77,3.77,0,0,1-1.9-.76.24.24,0,0,0-.12,0,1.15,1.15,0,0,0-1.17,1.16.23.23,0,0,0,.08.16l1.51.84Z"/><path d="M2.84,8.68c.12.07.23.12.33.19s.17.14.07.26-.2.14-.31,0a1.93,1.93,0,0,1-.26-.3c0,.11,0,.22,0,.31s0,.23-.19.19a.21.21,0,0,1-.18-.28,2.19,2.19,0,0,1,.18-.33,1.22,1.22,0,0,1-.32,0c-.07,0-.18-.08-.2-.14s.07-.22.19-.22a1.72,1.72,0,0,1,.37.05,1,1,0,0,1-.16-.22.4.4,0,0,1,0-.28.24.24,0,0,1,.24-.1.45.45,0,0,1,.17.25,1.21,1.21,0,0,1,0,.33c.14-.11.24-.21.36-.29s.26-.14.35,0,0,.27-.15.34Z"/><path d="M16.43,6.84a2.35,2.35,0,0,1,.32-.28.75.75,0,0,1,.33-.07s.11.13.1.16a.72.72,0,0,1-.24.25,2.25,2.25,0,0,1-.37.13c.12.07.23.12.33.19s.18.14.07.26a.19.19,0,0,1-.31,0c-.09-.08-.16-.19-.26-.3a1.75,1.75,0,0,1,0,.33c0,.1,0,.22-.19.18s-.23-.15-.17-.29a2.19,2.19,0,0,1,.18-.33,1.76,1.76,0,0,1-.31,0c-.11,0-.22,0-.23-.15s.1-.21.23-.21a1.88,1.88,0,0,1,.33,0A2.2,2.2,0,0,1,16,6.56a.26.26,0,0,1,0-.23.33.33,0,0,1,.24-.1.31.31,0,0,1,.16.19A1.88,1.88,0,0,1,16.43,6.84Z"/><path d="M3.87,4l.32.18c.09.06.18.13.09.26a.21.21,0,0,1-.33,0c-.09-.09-.16-.2-.25-.31,0,.12,0,.23-.05.34s-.06.22-.21.17-.21-.14-.15-.28a2.37,2.37,0,0,1,.19-.34,1.28,1.28,0,0,1-.33.06c-.08,0-.2-.08-.21-.14s.05-.22.18-.23a2.21,2.21,0,0,1,.35,0,2.19,2.19,0,0,1-.17-.29c-.08-.16,0-.25.15-.3a.19.19,0,0,1,.27.16,2.68,2.68,0,0,1,0,.41c.14-.1.25-.21.38-.3s.25-.1.33,0,0,.23-.12.29A4,4,0,0,1,3.87,4Z"/><path d="M3.1,12.08a1.26,1.26,0,0,1-.33.05c-.07,0-.14-.1-.21-.15s.12-.19.19-.2a1.25,1.25,0,0,1,.38,0c-.1-.16-.31-.29-.18-.51a.3.3,0,0,1,.25-.09c.24.11.15.35.19.56a4,4,0,0,1,.34-.27c.12-.08.26-.13.35,0s0,.25-.15.32a4.11,4.11,0,0,1-.42.15c.11.07.22.12.32.19s.16.15.07.27a.21.21,0,0,1-.3,0,3.22,3.22,0,0,1-.28-.33,3.11,3.11,0,0,1,0,.33c0,.1,0,.22-.2.19a.21.21,0,0,1-.17-.27A2.91,2.91,0,0,1,3.1,12.08Z"/><path d="M10.68,3.43a2.35,2.35,0,0,1-.35,0,.36.36,0,0,1-.19-.12c0-.09.08-.21.15-.22a1.7,1.7,0,0,1,.39,0c0-.09-.13-.18-.18-.29s0-.25.16-.3a.18.18,0,0,1,.26.17c0,.13,0,.26,0,.42.07-.06.12-.13.19-.18a.84.84,0,0,1,.27-.16c.07,0,.21,0,.23.07a.31.31,0,0,1-.06.25,3.31,3.31,0,0,1-.5.24,2.69,2.69,0,0,1,.29.16c.1.06.2.13.1.27a.22.22,0,0,1-.35,0c-.08-.09-.14-.19-.23-.3a1.67,1.67,0,0,1,0,.34c0,.1,0,.23-.2.18s-.22-.14-.16-.29A1.72,1.72,0,0,1,10.68,3.43Z"/><path d="M17.78,3.51c-.1-.18-.3-.31-.16-.52a.35.35,0,0,1,.25-.08c.09.17.16.35.23.52.06,0,.15-.13.25-.21s.27-.17.39,0,0,.26-.19.35l-.2.07-.19.06a1.52,1.52,0,0,1,.33.2.26.26,0,0,1,.08.23.18.18,0,0,1-.3.07A1.83,1.83,0,0,1,18,3.88c0,.12,0,.22,0,.32s0,.22-.19.19a.2.2,0,0,1-.19-.27,1.93,1.93,0,0,1,.19-.34,2.17,2.17,0,0,1-.25,0,.42.42,0,0,1-.25-.06.15.15,0,0,1,0-.18.44.44,0,0,1,.25-.11A1,1,0,0,1,17.78,3.51Z"/><path d="M8,5.75a4.19,4.19,0,0,1,.34-.28c.12-.07.26-.12.35,0s0,.25-.16.31A2.41,2.41,0,0,1,8.07,6l.32.18c.11.07.18.15.08.28a.2.2,0,0,1-.31,0,2.24,2.24,0,0,1-.26-.32,1.13,1.13,0,0,1,0,.34c0,.08-.12.18-.18.18a.19.19,0,0,1-.19-.25,3,3,0,0,1,.18-.36.88.88,0,0,1-.32,0c-.08,0-.14-.1-.21-.15s.12-.18.19-.2a1.54,1.54,0,0,1,.36,0,.91.91,0,0,1-.16-.24.36.36,0,0,1,0-.27.27.27,0,0,1,.23-.09.29.29,0,0,1,.15.2A2,2,0,0,1,8,5.75Z"/><path d="M18.33,11a3.1,3.1,0,0,1-.18-.26.21.21,0,0,1,.14-.33c.16-.06.24,0,.27.17a2.34,2.34,0,0,1,0,.39,4.19,4.19,0,0,1,.34-.28c.12-.07.26-.13.35,0s0,.26-.14.32l-.44.16.32.17c.1.07.18.15.08.28a.21.21,0,0,1-.33,0l-.25-.31a1.55,1.55,0,0,1,0,.33c0,.08-.11.19-.17.19a.2.2,0,0,1-.2-.25,3.14,3.14,0,0,1,.18-.37.71.71,0,0,1-.29.05c-.09,0-.21-.07-.23-.14S17.85,11,18,11,18.21,11,18.33,11Z"/><path d="M3.93,8.28l.42-.09.13.53-.43.09Z"/><path d="M2.17,22l-.43.09-.13-.52.43-.1Z"/><path d="M15.92,3.21l.44-.09.12.52-.43.1Z"/><path d="M19.06,16.23l-.44.08-.11-.51.42-.1Z"/><path d="M3.2,17.74l-.43.1-.12-.54.42-.08Z"/><path d="M1.8,3.06,2.22,3l.12.53-.42.1Z"/><path d="M6,5.34l-.43.09-.12-.52.43-.1Z"/><path d="M1.18,13,1.62,13l.12.52-.43.1Z"/><path d="M7.54,3.09l-.07.2-.25-.07,0-.21Z"/><path d="M5.44,7.46l.25.07-.05.21-.26-.08Z"/><path d="M2.68,5.26,3,5.34l-.06.2-.24-.06Z"/><path d="M2.35,15.18l.25.08,0,.2-.26-.07Z"/><path d="M1.85,18l-.06.2-.24-.06,0-.21Z"/><path d="M18.45,20.46c0-.29.16-.17.31-.12l-.07.19Z"/><path d="M12.4,3.61l.2-.06.07.25-.21.06Z"/><path d="M1.79,10.24l-.07.21-.25-.07.06-.21Z"/><path d="M18.28,6.61l.08-.2.24.07-.06.21Z"/><path d="M11,6l-.08.23a.54.54,0,0,1-.21-.08s0-.14,0-.14Z"/><path d="M15.24,4.66l-.06.2-.25-.07,0-.2Z"/><path d="M3.72,10.09a.34.34,0,0,1,0-.11l0-.1L4,10,4,10.15Z"/><path d="M14.36,4l-.18,0-.07-.22C14.31,3.71,14.34,3.73,14.36,4Z"/><path d="M18.61,18.21l.05-.2.26.07-.05.2Z"/><path d="M3.39,20.12l-.06.19c-.27-.06-.27-.06-.18-.26Z"/><path d="M17.51,21.23l-.08.19-.24-.07,0-.2Z"/><path d="M18.34,8.66l-.06.2L18,8.79l0-.2Z"/></g><g class="cls-3"><path d="M4.73,11.7c-.19-.93.48-1.23,1.1-1.58l-.24-.34a1.12,1.12,0,0,1,.32-1.6,3.86,3.86,0,0,1,1.59-.6c.67-.12,1.35-.19,2-.3a3.77,3.77,0,0,0,1.38-.51,1.23,1.23,0,0,0,.57-1.51c-.06-.18-.11-.36-.18-.56A3.12,3.12,0,0,1,13.53,6a3.16,3.16,0,0,1,.36,2.53h.69a10.86,10.86,0,0,1,1.28.07A1.32,1.32,0,0,1,17,10.4a4.45,4.45,0,0,1-.8,1.54,2,2,0,0,1,1.31,1.89l.49-.19c-.1.43-.2.84-.29,1.26q-.78,3.24-1.55,6.49a.38.38,0,0,1-.24.28,12.65,12.65,0,0,1-3.08.89H12.6c-1.07,0-2.14,0-3.22,0A10.22,10.22,0,0,1,6.65,22c-.36-.11-.71-.25-1.07-.39a.41.41,0,0,1-.19-.2q-1.17-3.27-2.33-6.54a.59.59,0,0,1,0-.26.47.47,0,0,1,.06-.09.62.62,0,0,0,.19-.62,1.94,1.94,0,0,1,.36-1.64A1.84,1.84,0,0,1,4.73,11.7Zm-.67,2.78a.6.6,0,0,0-.22.77c.69,1.87,1.36,3.76,2,5.65a.5.5,0,0,0,.33.33,14.27,14.27,0,0,0,3.75.8,11.8,11.8,0,0,0,5.45-.82.41.41,0,0,0,.19-.24c.48-1.93.94-3.87,1.4-5.81l.1-.47c-.35.15-.66.27-.95.41a.38.38,0,0,0-.2.23c-.31,1.24-.6,2.48-.91,3.72-.09.4-.19.8-.3,1.21l-.23-.06c0-.1,0-.18.06-.26.37-1.55.75-3.11,1.13-4.67,0-.07,0-.18,0-.2l-1.12-.53-.31,2.65-.24,0,.27-2.46c-.15.12-.25.21-.36.28a.47.47,0,0,0-.24.43c-.07,1.08-.15,2.15-.23,3.23,0,.44-.06.88-.1,1.34l-.24,0,.06-1c.09-1.24.19-2.49.28-3.73a.25.25,0,0,0,0-.16l-1-.67v4.14h-.26V14.42a3.64,3.64,0,0,1-.55.33c-.48.2-.72.51-.54,1v.06l.24,3.64c0,.38.05.77.07,1.16h-.23a.52.52,0,0,1,0-.11c0-.69-.09-1.38-.14-2.07-.07-1.07-.14-2.14-.22-3.21a.28.28,0,0,0-.13-.19l-.68-.38-.47-.25.44,3.42-.24,0-.45-3.46c-.26.2-.47.38-.7.54a.31.31,0,0,0-.14.34l.54,3c.08.45.15.91.23,1.38l-.24,0c-.26-1.5-.52-3-.77-4.45A.3.3,0,0,0,8,15.07c-.39-.17-.77-.36-1.15-.54l-.17,0L8.05,19l-.24.08L6.36,14.44c-.17.2-.3.37-.45.52a.28.28,0,0,0-.06.3c.24.78.46,1.56.69,2.33.33,1.13.66,2.26,1,3.4l-.23.07-.07-.22C6.7,19,6.17,17.19,5.63,15.37c0-.08-.06-.18-.12-.21l-1.18-.67,1.8,5.86-.23.07Zm7.19-3.18-.74-.24a9.63,9.63,0,0,0-3.77-.48A2.2,2.2,0,0,0,5.58,11c-.33.26-.35.46,0,.75a2.15,2.15,0,0,0,1.08.58l.93.19a16,16,0,0,0,5.3.27A5.68,5.68,0,0,0,15.13,12a3,3,0,0,0,1.29-1.93.63.63,0,0,0-.46-.8,2.31,2.31,0,0,0-.78-.12c-1.15.07-2.3.16-3.44.27a15,15,0,0,1-2.51.18,8.48,8.48,0,0,1-.92-.16l.24-.61A4,4,0,0,0,10.37,9l2.7-.33a.22.22,0,0,0,.17-.14,3,3,0,0,0,0-1.49,2.06,2.06,0,0,0-1.1-1.37A1.94,1.94,0,0,1,11,7.43,5.6,5.6,0,0,1,9.23,8c-.73.11-1.46.23-2.18.39a2.4,2.4,0,0,0-.78.36.45.45,0,0,0-.15.71,2.37,2.37,0,0,0,.35.42.42.42,0,0,0,.28.1,10.19,10.19,0,0,1,3.47.39c.41.11.82.25,1.25.38Zm-5,2.28c.57.27,1.13.53,1.67.8a.32.32,0,0,0,.4,0c.26-.22.54-.42.8-.65a.21.21,0,0,1,.28,0l1.31.74a.24.24,0,0,0,.27,0l1.17-.72a.21.21,0,0,1,.28,0c.33.23.67.45,1,.68a.18.18,0,0,0,.26,0l.58-.46a.23.23,0,0,1,.3,0c.4.2.8.38,1.2.56a.35.35,0,0,0,.26,0,6.07,6.07,0,0,0,.7-.29.27.27,0,0,0,.13-.17,1.36,1.36,0,0,0-1.11-1.53.29.29,0,0,0-.22,0,7.14,7.14,0,0,1-3.54,1,19.26,19.26,0,0,1-4.85-.43,3.77,3.77,0,0,1-1.9-.76.24.24,0,0,0-.12,0,1.15,1.15,0,0,0-1.17,1.16A.23.23,0,0,0,4,13.6l1.51.84Z"/><path d="M2.5,8.34c.12.07.23.12.33.19s.16.14.07.26-.2.14-.31,0a1.93,1.93,0,0,1-.26-.3c0,.11,0,.22-.05.31s0,.23-.19.19a.21.21,0,0,1-.18-.28,2.19,2.19,0,0,1,.18-.33,1.22,1.22,0,0,1-.32,0c-.07,0-.18-.08-.2-.14s.07-.22.19-.22a1.72,1.72,0,0,1,.37.05A1,1,0,0,1,2,7.93a.47.47,0,0,1,0-.28.27.27,0,0,1,.25-.1.45.45,0,0,1,.17.25,1.21,1.21,0,0,1,0,.33c.14-.11.24-.21.36-.29s.26-.14.35,0,0,.27-.15.34Z"/><path d="M16.09,6.5a2.35,2.35,0,0,1,.32-.28.75.75,0,0,1,.33-.07s.11.13.1.16a.82.82,0,0,1-.24.25,2.25,2.25,0,0,1-.37.13c.12.07.23.12.33.19s.18.14.07.26a.19.19,0,0,1-.31,0c-.09-.08-.16-.19-.26-.3a1.75,1.75,0,0,1,0,.33c0,.1,0,.22-.19.17s-.23-.14-.17-.29a2.74,2.74,0,0,1,.18-.32,1.76,1.76,0,0,1-.31,0c-.11,0-.23,0-.23-.15s.1-.21.23-.21a1.88,1.88,0,0,1,.33,0,2.2,2.2,0,0,1-.18-.28.26.26,0,0,1,0-.23.33.33,0,0,1,.24-.1.31.31,0,0,1,.16.19A1.88,1.88,0,0,1,16.09,6.5Z"/><path d="M3.53,3.7l.32.18c.09.06.18.13.09.26s-.21.15-.33.05-.16-.2-.25-.31c0,.12,0,.23,0,.34s-.06.22-.21.17S2.89,4.25,3,4.11a2.37,2.37,0,0,1,.19-.34,1.28,1.28,0,0,1-.33.06c-.08,0-.2-.08-.21-.14s0-.22.18-.23a2.21,2.21,0,0,1,.35,0A2.19,2.19,0,0,1,3,3.21c-.08-.16,0-.25.15-.3a.19.19,0,0,1,.27.16,2.68,2.68,0,0,1,0,.41c.14-.1.25-.21.38-.3s.25-.1.33,0,0,.23-.12.29A4,4,0,0,1,3.53,3.7Z"/><path d="M2.76,11.74a1.26,1.26,0,0,1-.33,0c-.07,0-.14-.1-.21-.15s.12-.19.19-.2a1.25,1.25,0,0,1,.38,0c-.1-.16-.31-.29-.18-.51a.3.3,0,0,1,.25-.09c.24.11.15.35.19.56a4,4,0,0,1,.34-.27c.12-.08.26-.13.35,0s0,.25-.15.32a4.11,4.11,0,0,1-.42.15c.11.07.22.12.32.19s.16.15.07.27a.21.21,0,0,1-.3.05A3.22,3.22,0,0,1,3,11.84a3.11,3.11,0,0,1,0,.33c0,.1,0,.22-.2.19a.21.21,0,0,1-.17-.27A2.91,2.91,0,0,1,2.76,11.74Z"/><path d="M10.34,3.09a2.35,2.35,0,0,1-.35,0A.36.36,0,0,1,9.8,3c0-.09.08-.21.15-.22a1.28,1.28,0,0,1,.39,0c-.05-.09-.13-.18-.18-.29s0-.25.16-.3a.18.18,0,0,1,.26.17c0,.13,0,.26,0,.42.07-.06.12-.13.19-.18a.84.84,0,0,1,.27-.16c.07,0,.21,0,.23.07a.31.31,0,0,1-.06.25,3.31,3.31,0,0,1-.5.24,2.69,2.69,0,0,1,.29.16c.1.06.2.13.1.27a.22.22,0,0,1-.35,0c-.08-.09-.14-.19-.23-.3a1.67,1.67,0,0,1,0,.34c0,.1,0,.23-.2.18s-.22-.14-.16-.29A1.72,1.72,0,0,1,10.34,3.09Z"/><path d="M17.44,3.17c-.1-.18-.3-.31-.16-.52a.35.35,0,0,1,.25-.08c.09.17.16.35.23.52.06,0,.15-.13.25-.21s.27-.17.39,0,0,.26-.19.35L18,3.3l-.2.06a1.39,1.39,0,0,1,.34.2.26.26,0,0,1,.08.23.18.18,0,0,1-.3.07,1.83,1.83,0,0,1-.28-.32c0,.12,0,.22,0,.32s0,.22-.19.19a.2.2,0,0,1-.19-.27,1.93,1.93,0,0,1,.19-.34,2.17,2.17,0,0,1-.25,0,.41.41,0,0,1-.25-.06.15.15,0,0,1,0-.18.44.44,0,0,1,.25-.11A1,1,0,0,1,17.44,3.17Z"/><path d="M7.63,5.41A4.19,4.19,0,0,1,8,5.13c.12-.07.26-.12.35,0s0,.25-.16.31a2.41,2.41,0,0,1-.43.16l.32.18c.11.07.18.15.08.28a.2.2,0,0,1-.31,0,1.72,1.72,0,0,1-.26-.32,1.18,1.18,0,0,1,0,.34c0,.08-.12.18-.18.18a.19.19,0,0,1-.19-.25,3,3,0,0,1,.18-.36.88.88,0,0,1-.32,0c-.08,0-.14-.1-.21-.15s.12-.18.19-.2a1.54,1.54,0,0,1,.36,0,.91.91,0,0,1-.16-.24.32.32,0,0,1,0-.27.27.27,0,0,1,.23-.09.29.29,0,0,1,.15.2A2,2,0,0,1,7.63,5.41Z"/><path d="M18,10.66a3.1,3.1,0,0,1-.18-.26.21.21,0,0,1,.14-.33c.16-.06.24,0,.27.17a2.34,2.34,0,0,1,0,.39,4.19,4.19,0,0,1,.34-.28c.12-.07.26-.13.35,0s0,.26-.14.32l-.44.16.32.17c.1.07.18.15.08.28a.21.21,0,0,1-.33,0L18.19,11a1.55,1.55,0,0,1,0,.33c0,.08-.11.19-.18.19a.19.19,0,0,1-.19-.25,2.53,2.53,0,0,1,.18-.37.71.71,0,0,1-.29.05c-.09,0-.21-.07-.23-.14s.06-.22.21-.22S17.87,10.65,18,10.66Z"/><path d="M3.59,7.94,4,7.85l.13.53-.43.09Z"/><path d="M1.83,21.65l-.43.09-.13-.52.43-.1Z"/><path d="M15.58,2.87,16,2.78l.12.52-.43.1Z"/><path d="M18.72,15.89l-.44.08-.12-.51.43-.1Z"/><path d="M2.86,17.4l-.43.09L2.31,17l.42-.08Z"/><path d="M1.46,2.72l.42-.1L2,3.15l-.42.1Z"/><path d="M5.64,5l-.43.09-.12-.52.43-.1Z"/><path d="M.84,12.7l.44-.09.12.52-.43.1Z"/><path d="M7.2,2.75,7.13,3l-.25-.07,0-.21Z"/><path d="M5.1,7.12l.25.07,0,.21L5,7.32Z"/><path d="M2.34,4.92,2.61,5l-.06.2-.24-.06Z"/><path d="M2,14.84l.25.08,0,.2L2,15.05Z"/><path d="M1.51,17.67l-.06.2-.24-.06,0-.21Z"/><path d="M18.11,20.12c0-.29.16-.17.31-.12l-.07.19Z"/><path d="M12.06,3.27l.2-.06.07.25-.21.06Z"/><path d="M1.45,9.9l-.07.21L1.13,10l.06-.21Z"/><path d="M17.94,6.27l.08-.2.24.07-.06.21Z"/><path d="M10.64,5.64l-.08.23a.54.54,0,0,1-.21-.08s0-.14,0-.14Z"/><path d="M14.9,4.32l-.06.2-.25-.07,0-.2Z"/><path d="M3.38,9.75a.34.34,0,0,1,0-.11l0-.1.25.08-.06.19Z"/><path d="M14,3.66l-.18,0-.07-.22C14,3.37,14,3.39,14,3.66Z"/><path d="M18.27,17.87l.05-.2.26.07,0,.2Z"/><path d="M3.05,19.78,3,20c-.27-.06-.27-.06-.18-.26Z"/><path d="M17.17,20.89l-.08.19L16.85,21l0-.2Z"/><path d="M18,8.32l-.06.2-.25-.07,0-.2Z"/></g><path class="cls-4" d="M4.93,11.9c-.19-.93.48-1.23,1.1-1.58L5.79,10a1.11,1.11,0,0,1,.32-1.59,3.86,3.86,0,0,1,1.59-.6c.67-.12,1.35-.2,2-.31A3.58,3.58,0,0,0,11.11,7a1.22,1.22,0,0,0,.56-1.51c-.05-.18-.11-.36-.17-.56a3.14,3.14,0,0,1,2.23,1.29,3.22,3.22,0,0,1,.36,2.54h.69a9.07,9.07,0,0,1,1.28.07,1.32,1.32,0,0,1,1.13,1.8,4.49,4.49,0,0,1-.8,1.53,2,2,0,0,1,1.3,1.9l.5-.2c-.1.44-.2.85-.3,1.27-.51,2.16-1,4.32-1.54,6.49a.38.38,0,0,1-.24.28,12.78,12.78,0,0,1-3.08.89H9.58a10.15,10.15,0,0,1-2.73-.52c-.36-.11-.72-.25-1.07-.39a.37.37,0,0,1-.19-.2q-1.17-3.27-2.33-6.54c0-.08,0-.18,0-.26s0-.06.06-.09a.62.62,0,0,0,.19-.62A2,2,0,0,1,3.9,12.5,1.9,1.9,0,0,1,4.93,11.9Zm-.67,2.78a.6.6,0,0,0-.22.77c.69,1.87,1.35,3.76,2,5.64a.51.51,0,0,0,.33.34,14.18,14.18,0,0,0,3.75.8,11.8,11.8,0,0,0,5.45-.82.41.41,0,0,0,.19-.24q.71-2.9,1.4-5.81l.1-.47c-.35.15-.66.26-1,.41a.38.38,0,0,0-.2.23c-.31,1.24-.61,2.48-.91,3.71-.09.41-.2.81-.3,1.22l-.23-.06c0-.11,0-.18.05-.26l1.14-4.68c0-.06,0-.17,0-.19l-1.12-.53-.31,2.65-.25,0,.28-2.46c-.15.12-.25.21-.36.28a.5.5,0,0,0-.25.43c-.07,1.08-.14,2.15-.22,3.23,0,.44-.06.88-.1,1.33h-.24c0-.34,0-.66.06-1,.09-1.25.19-2.49.27-3.74,0,0,0-.13,0-.15l-1-.67v4.14h-.26V14.62a5.7,5.7,0,0,1-.55.33c-.48.2-.72.51-.55,1a.13.13,0,0,1,0,.06l.24,3.64c0,.38,0,.77.07,1.16h-.23l0-.11c0-.69-.09-1.38-.13-2.07C11.1,17.6,11,16.53,11,15.46a.31.31,0,0,0-.13-.19l-.69-.38-.46-.25.44,3.42-.24,0-.45-3.47c-.26.2-.47.39-.7.55a.31.31,0,0,0-.14.34l.54,3c.07.45.15.91.23,1.38l-.24,0c-.26-1.5-.52-3-.77-4.45a.31.31,0,0,0-.19-.25c-.39-.17-.77-.36-1.15-.54l-.17-.06,1.41,4.52L8,19.27,6.55,14.64c-.16.2-.29.36-.44.52a.28.28,0,0,0-.06.3c.24.78.46,1.55.69,2.33.33,1.13.66,2.25,1,3.39l-.24.07L7.44,21q-.81-2.74-1.61-5.47c0-.08-.06-.18-.12-.21-.37-.23-.75-.43-1.18-.67l1.8,5.86-.23.07Zm7.19-3.18-.74-.24a9.65,9.65,0,0,0-3.77-.48,2.2,2.2,0,0,0-1.16.41c-.33.25-.35.46,0,.74a2.16,2.16,0,0,0,1.09.59l.93.19a16,16,0,0,0,5.3.27,5.68,5.68,0,0,0,2.28-.78,3,3,0,0,0,1.29-1.93.63.63,0,0,0-.46-.8,2.37,2.37,0,0,0-.79-.12c-1.14.07-2.29.16-3.43.27a15.07,15.07,0,0,1-2.51.18,8.08,8.08,0,0,1-.92-.16L8.75,9a4.13,4.13,0,0,0,1.81.13c.91-.1,1.81-.22,2.71-.33a.26.26,0,0,0,.17-.14,3,3,0,0,0,.05-1.49,2.06,2.06,0,0,0-1.1-1.37,1.94,1.94,0,0,1-1.17,1.8,5.6,5.6,0,0,1-1.79.53c-.73.11-1.46.23-2.18.38a2.33,2.33,0,0,0-.78.37.45.45,0,0,0-.15.71,2.79,2.79,0,0,0,.35.42.39.39,0,0,0,.27.1,9.89,9.89,0,0,1,3.47.39c.42.11.83.25,1.26.38Zm-5,2.28,1.67.8a.3.3,0,0,0,.39,0c.26-.23.55-.43.81-.65a.21.21,0,0,1,.28,0c.43.25.87.49,1.31.73a.21.21,0,0,0,.26,0l1.17-.72a.22.22,0,0,1,.29,0c.32.23.66.44,1,.68a.19.19,0,0,0,.26,0l.58-.46a.23.23,0,0,1,.3,0c.4.2.8.38,1.2.56a.35.35,0,0,0,.26,0,6.07,6.07,0,0,0,.7-.29.27.27,0,0,0,.13-.17,1.37,1.37,0,0,0-1.11-1.54.34.34,0,0,0-.22,0,7.14,7.14,0,0,1-3.54,1,19.73,19.73,0,0,1-4.85-.43,3.87,3.87,0,0,1-1.9-.76.24.24,0,0,0-.12,0,1.15,1.15,0,0,0-1.17,1.16.2.2,0,0,0,.08.15l1.51.85Z"/><path class="cls-4" d="M2.7,8.54,3,8.72c.09.07.16.15.06.26s-.2.15-.31,0-.16-.19-.26-.3a2.91,2.91,0,0,1,0,.31c0,.1,0,.23-.19.19A.21.21,0,0,1,2.11,9a1.55,1.55,0,0,1,.18-.33,1.22,1.22,0,0,1-.32,0c-.07,0-.18-.08-.2-.15s.07-.21.19-.22a2.7,2.7,0,0,1,.36.06c0-.08-.13-.14-.15-.22a.37.37,0,0,1,0-.29.31.31,0,0,1,.25-.1A.48.48,0,0,1,2.56,8a1.7,1.7,0,0,1,0,.32c.13-.1.24-.2.36-.28s.26-.14.35,0,0,.27-.15.33S2.86,8.48,2.7,8.54Z"/><path class="cls-4" d="M16.29,6.7a1.87,1.87,0,0,1,.32-.28.75.75,0,0,1,.33-.07s.11.13.09.16a.92.92,0,0,1-.23.25,2.64,2.64,0,0,1-.37.13c.12.07.23.12.33.19s.18.14.07.26-.2.14-.31,0a2.67,2.67,0,0,1-.26-.3,3.06,3.06,0,0,1-.05.32c0,.11-.05.23-.2.18a.22.22,0,0,1-.17-.29A2.23,2.23,0,0,1,16,7a1.76,1.76,0,0,1-.31,0c-.11,0-.23,0-.23-.15s.1-.21.23-.22a1.91,1.91,0,0,1,.33.06,1.27,1.27,0,0,1-.18-.29.24.24,0,0,1,0-.22.33.33,0,0,1,.24-.1.34.34,0,0,1,.16.19A1.88,1.88,0,0,1,16.29,6.7Z"/><path class="cls-4" d="M3.73,3.9a3.3,3.3,0,0,1,.32.18c.09.06.18.13.09.26s-.21.15-.33,0a2.65,2.65,0,0,1-.25-.3c0,.12,0,.23-.05.34s-.07.22-.21.17-.21-.14-.16-.28A3,3,0,0,1,3.34,4,1.28,1.28,0,0,1,3,4a.32.32,0,0,1-.22-.14A.19.19,0,0,1,3,3.66a2.35,2.35,0,0,1,.35,0,2.19,2.19,0,0,1-.17-.29c-.08-.16,0-.25.15-.3s.24,0,.26.16a2.63,2.63,0,0,1,0,.41c.13-.11.25-.21.38-.3s.25-.1.33.05,0,.23-.12.29A4.9,4.9,0,0,1,3.73,3.9Z"/><path class="cls-4" d="M3,11.94a1.26,1.26,0,0,1-.33.05c-.07,0-.14-.1-.21-.15s.11-.19.19-.2a1,1,0,0,1,.38,0c-.1-.16-.32-.29-.18-.51a.27.27,0,0,1,.25-.09c.24.1.15.35.19.56a4,4,0,0,1,.34-.27c.12-.08.26-.13.35,0s0,.26-.15.32a2.41,2.41,0,0,1-.43.16c.11.07.23.12.33.19s.16.15.07.27a.2.2,0,0,1-.3,0A2.29,2.29,0,0,1,3.18,12a3.11,3.11,0,0,1,0,.33c0,.1,0,.22-.2.19s-.22-.13-.17-.27A1.46,1.46,0,0,1,3,11.94Z"/><path class="cls-4" d="M10.54,3.29a1.5,1.5,0,0,1-.35,0A.31.31,0,0,1,10,3.21c0-.09.08-.21.14-.22a1.34,1.34,0,0,1,.4,0c0-.09-.13-.18-.18-.29s0-.25.16-.3a.18.18,0,0,1,.26.17c0,.13,0,.26,0,.42a1.62,1.62,0,0,1,.2-.18.74.74,0,0,1,.27-.16c.07,0,.2,0,.22.07a.27.27,0,0,1-.05.25,3.85,3.85,0,0,1-.5.24,2.09,2.09,0,0,1,.29.16c.09.06.2.13.1.27a.21.21,0,0,1-.35,0c-.08-.08-.14-.18-.23-.29,0,.13,0,.24,0,.34s-.05.23-.2.18-.22-.14-.16-.29A1.72,1.72,0,0,1,10.54,3.29Z"/><path class="cls-4" d="M17.64,3.37c-.1-.18-.3-.31-.16-.52a.35.35,0,0,1,.25-.08,4.09,4.09,0,0,1,.23.52c.06,0,.15-.14.25-.21s.27-.17.39,0,0,.27-.2.36l-.2.07L18,3.56a1.79,1.79,0,0,1,.34.19.28.28,0,0,1,.08.24.19.19,0,0,1-.3.07,3.19,3.19,0,0,1-.29-.32,2.72,2.72,0,0,1,0,.31c0,.11,0,.23-.18.2A.21.21,0,0,1,17.44,4a2.37,2.37,0,0,1,.19-.34,1.23,1.23,0,0,1-.25.05.46.46,0,0,1-.26-.06s0-.16,0-.18a.51.51,0,0,1,.25-.11A.75.75,0,0,1,17.64,3.37Z"/><path class="cls-4" d="M7.82,5.61c.13-.1.23-.2.35-.28s.26-.12.35,0,0,.26-.16.32-.27.1-.43.16A3.3,3.3,0,0,1,8.25,6c.11.06.18.15.08.27a.2.2,0,0,1-.32,0A3,3,0,0,1,7.75,6a1.2,1.2,0,0,1,0,.34c0,.07-.12.18-.18.18a.19.19,0,0,1-.19-.25,2.42,2.42,0,0,1,.18-.36,1.87,1.87,0,0,1-.32,0c-.08,0-.15-.1-.22-.15s.12-.18.2-.2a1.54,1.54,0,0,1,.36,0,.91.91,0,0,1-.16-.24.32.32,0,0,1,0-.27A.24.24,0,0,1,7.63,5a.32.32,0,0,1,.15.2A1.4,1.4,0,0,1,7.82,5.61Z"/><path class="cls-4" d="M18.19,10.86A3.1,3.1,0,0,1,18,10.6a.21.21,0,0,1,.14-.33c.16-.06.24,0,.27.17a2.23,2.23,0,0,1,0,.39,4.19,4.19,0,0,1,.34-.28c.11-.08.26-.13.35,0s0,.26-.14.33l-.44.16.32.17c.09.06.18.15.08.27a.2.2,0,0,1-.33,0,2.82,2.82,0,0,1-.25-.3,1.55,1.55,0,0,1,0,.33c0,.08-.12.18-.18.18A.18.18,0,0,1,18,11.5a1.81,1.81,0,0,1,.18-.37,1,1,0,0,1-.29,0,.32.32,0,0,1-.23-.14c0-.14.06-.23.21-.22A2.26,2.26,0,0,1,18.19,10.86Z"/><path class="cls-4" d="M3.79,8.14l.42-.09.13.53-.43.09Z"/><path class="cls-4" d="M2,21.85l-.42.09-.13-.52.43-.11Z"/><path class="cls-4" d="M15.78,3.06,16.22,3l.12.52-.43.09Z"/><path class="cls-4" d="M18.92,16.09l-.44.08-.12-.51.43-.11Z"/><path class="cls-4" d="M3.06,17.6l-.43.09-.12-.53.42-.09Z"/><path class="cls-4" d="M1.65,2.92l.43-.1.12.53-.43.1Z"/><path class="cls-4" d="M5.84,5.19l-.43.1-.13-.53.43-.09Z"/><path class="cls-4" d="M1,12.9l.44-.09.12.52-.43.1Z"/><path class="cls-4" d="M7.39,3l-.06.2-.25-.07,0-.21Z"/><path class="cls-4" d="M5.3,7.32l.25.07,0,.21-.26-.08Z"/><path class="cls-4" d="M2.54,5.12l.27.08-.06.2-.24-.07Z"/><path class="cls-4" d="M2.21,15l.25.08,0,.2-.26-.07Z"/><path class="cls-4" d="M1.71,17.87l-.06.2L1.41,18l0-.21Z"/><path class="cls-4" d="M18.31,20.32c0-.29.16-.17.3-.13l-.06.2Z"/><path class="cls-4" d="M12.25,3.47l.21-.07.07.26-.21.06Z"/><path class="cls-4" d="M1.65,10.1l-.07.2-.25-.07.06-.2Z"/><path class="cls-4" d="M18.14,6.47l.07-.2.25.07-.06.2Z"/><path class="cls-4" d="M10.84,5.84l-.08.23A1.31,1.31,0,0,1,10.55,6a.22.22,0,0,1,0-.14Z"/><path class="cls-4" d="M15.1,4.52l-.06.2-.25-.07,0-.2Z"/><path class="cls-4" d="M3.58,9.94a.28.28,0,0,1,0-.1l0-.1.25.07-.06.2Z"/><path class="cls-4" d="M14.22,3.86,14,3.9,14,3.68C14.17,3.57,14.2,3.59,14.22,3.86Z"/><path class="cls-4" d="M18.46,18.07l.06-.2.26.06-.05.21Z"/><path class="cls-4" d="M3.25,20l-.06.19c-.28-.06-.28-.06-.18-.26Z"/><path class="cls-4" d="M17.37,21.09l-.08.19-.24-.07.05-.2Z"/><path class="cls-4" d="M18.19,8.52l-.05.2-.25-.07.05-.2Z"/></g></g></svg>