<svg xmlns="http://www.w3.org/2000/svg" viewBox="0 0 38.55 24.66"><defs><style>.cls-1{isolation:isolate;}.cls-2{opacity:0.15;}.cls-2,.cls-3{mix-blend-mode:multiply;}.cls-4{fill:#fff;}</style></defs><title>convert-CUSTOMIZE-SVG-03</title><g class="cls-1"><g id="Layer_1" data-name="Layer 1"><g class="cls-2"><path d="M19.69,2.13a8.64,8.64,0,0,0-.46-.91.91.91,0,0,0-.94-.48c-.26,0-.33.17-.17.38a3,3,0,0,0,.43.44c.34.26.69.5,1.05.75a.26.26,0,0,0,.24,0c.48-.34.94-.69,1.4-1,.12-.1.28-.26.18-.41A.66.66,0,0,0,21,.74a.89.89,0,0,0-.75.51,8.3,8.3,0,0,0-.44.9A1.55,1.55,0,0,1,20.44.87,1.48,1.48,0,0,1,21.92.78c.22.1.25.27.07.44a3.11,3.11,0,0,1-.58.45c-.44.26-.9.49-1.34.73h2V7H18.47a.55.55,0,0,0-.28.06,1,1,0,0,1-1,.07c-.23-.09-.44-.21-.69-.33.26-.17,0-.31,0-.43l.84.32V2.42h2v0l-.16-.07a6.39,6.39,0,0,1-1.65-1c-.11-.09-.25-.27-.22-.36s.21-.23.35-.27A1.45,1.45,0,0,1,19.69,2.13ZM18.52,6.71h3.26c0-.27.09-.56-.18-.78l-.11.55,0-.16c-.17-.56-.32-1.14-.51-1.69A6,6,0,0,0,20,2.83c-.05-.06-.16-.09-.24-.14a2,2,0,0,0-.1.21c-.18.62-.34,1.25-.52,1.87-.08.28-.19.55-.29.82a9.63,9.63,0,0,1,.45-2.88H17.72v4a2.93,2.93,0,0,0,.64-.27,2.54,2.54,0,0,0,.39-.51h0Zm1.6-4c.31.36.63.69.9,1s.51.73.75,1.08V2.7Z"/><path d="M34.53,2.12a8.62,8.62,0,0,0-.43-.86,1,1,0,0,0-1-.52c-.24,0-.31.16-.16.36a1.5,1.5,0,0,0,.34.37c.38.29.77.57,1.16.84a.28.28,0,0,0,.25,0L36,1.37a1.26,1.26,0,0,0,.25-.31c.11-.17,0-.28-.15-.31a.78.78,0,0,0-.81.25,8.24,8.24,0,0,0-.54.9,2.27,2.27,0,0,0-.11.34A1.46,1.46,0,0,1,35.92.65a1.92,1.92,0,0,1,.78.11c.29.09.32.28.1.49a4,4,0,0,1-.62.46c-.42.25-.85.47-1.27.69h2V7H33.31a.55.55,0,0,0-.28.06,1,1,0,0,1-.93.08c-.24-.09-.47-.23-.72-.35.26-.18,0-.31,0-.42l.86.33V2.41h2a9,9,0,0,1-1.66-.93,1.93,1.93,0,0,1-.3-.27c-.16-.17-.13-.33.08-.44a1.44,1.44,0,0,1,1.88.55,5.16,5.16,0,0,1,.28.78Zm-1.18,4.6h3.27c0-.28.08-.56-.18-.79l-.11.57c0-.11,0-.17-.06-.24-.21-.66-.39-1.34-.65-2a12.59,12.59,0,0,0-.78-1.44c0-.07-.16-.09-.24-.14a1.39,1.39,0,0,0-.11.21c-.12.46-.22.93-.36,1.39s-.29.89-.43,1.33h-.05a11.17,11.17,0,0,1,.5-2.91h-1.6V6.6a1,1,0,0,0,1-.72l0,0Zm1.58-4a9.54,9.54,0,0,1,1.69,2.14V2.7Z"/><path d="M19.69,18.85a10.14,10.14,0,0,0-.55-1,.86.86,0,0,0-.84-.38c-.27,0-.34.17-.18.38a1.5,1.5,0,0,0,.34.37c.38.29.76.56,1.15.83a.26.26,0,0,0,.24,0c.43-.3.86-.62,1.28-.94a.35.35,0,0,0,.11-.1c.1-.13.28-.26.18-.43s-.33-.14-.5-.11a.88.88,0,0,0-.62.41c-.19.32-.35.65-.5.93a1.4,1.4,0,0,1,1.28-1.43,2.29,2.29,0,0,1,.78.1c.29.09.32.29.1.5a6.08,6.08,0,0,1-1.75,1l-.15.07,0,.05h2v4.57H18.45a.65.65,0,0,0-.31.08,1,1,0,0,1-.84.06c-.25-.09-.48-.22-.76-.35.26-.17,0-.3,0-.47a1.26,1.26,0,0,0,.84.29V19.18h2v0a5,5,0,0,1-.66-.31,12.74,12.74,0,0,1-1.22-.79c-.31-.23-.26-.44.11-.57A1.46,1.46,0,0,1,19.69,18.85Zm-1.17,4.61h3.26c0-.27.08-.55-.18-.78l-.1.55c0-.08-.05-.12-.06-.16-.21-.67-.4-1.34-.64-2A4.72,4.72,0,0,0,20,19.54a.33.33,0,0,0-.2-.09s-.08.1-.1.16c-.12.46-.22.92-.35,1.37s-.29.92-.44,1.38l-.06,0a10.56,10.56,0,0,1,.5-2.89h-1.6v4a3,3,0,0,0,.64-.25,3.65,3.65,0,0,0,.44-.58Zm3.25-1.87V19.45H20.08A9.54,9.54,0,0,1,21.77,21.59Z"/><path d="M34.52,18.84c-.15-.29-.29-.61-.48-.91a.89.89,0,0,0-.79-.44,1.27,1.27,0,0,0-.36.12A.86.86,0,0,0,33,18c.28.26.58.51.88.75s.45.4.68.4.47-.24.69-.4a9.9,9.9,0,0,0,.85-.73c.09-.08.1-.24.15-.36a1.29,1.29,0,0,0-.38-.12.76.76,0,0,0-.67.34,8.26,8.26,0,0,0-.51.92,1.48,1.48,0,0,0-.08.25,1.48,1.48,0,0,1,1.89-1.56s.06,0,.08,0,.29.15.32.26-.1.26-.19.34a6.27,6.27,0,0,1-1.75,1,.26.26,0,0,0-.11.07h2v4.59h-3.6a.68.68,0,0,0-.31.08,1,1,0,0,1-.84.06,7,7,0,0,1-.74-.35c.23-.19,0-.32,0-.44l.85.34V19.18h2v0l-.14-.06a6.9,6.9,0,0,1-1.66-1c-.13-.1-.33-.22-.24-.4a.66.66,0,0,1,.39-.27A1.43,1.43,0,0,1,34.52,18.84Zm-1.16,4.62h3.26c0-.28.07-.55-.18-.78l-.1.54c-.16-.52-.29-1-.45-1.5a6.73,6.73,0,0,0-1-2.13.91.91,0,0,0-.23-.15,1,1,0,0,0-.12.23l-.6,2.15c0,.16-.12.31-.17.46a11.32,11.32,0,0,1,.09-1.43c.07-.47.18-.94.27-1.4H32.55v3.91a1,1,0,0,0,1-.73l0,0Zm3.25-1.86V19.45H34.92A9.11,9.11,0,0,1,36.61,21.6Z"/><path d="M5,2A1.44,1.44,0,0,1,7,.76c.26.11.29.29.08.48A6,6,0,0,1,5.34,2.32a.31.31,0,0,0-.14.09h2V7H3.64a.7.7,0,0,0-.35.09.92.92,0,0,1-.74.07C2.27,7.07,2,6.93,1.7,6.8c.25-.2,0-.34,0-.45l.86.34V2.41h2c-.49-.27-1-.55-1.5-.85a2.3,2.3,0,0,1-.42-.35C2.48,1,2.51.87,2.75.77a1.43,1.43,0,0,1,1.91.64,6.18,6.18,0,0,1,.21.65h0a6,6,0,0,0-.32-.68,1,1,0,0,0-1-.65c-.28,0-.36.17-.18.38A4.92,4.92,0,0,0,4,1.74a7.83,7.83,0,0,0,.81.57.29.29,0,0,0,.24,0c.47-.34.93-.68,1.37-1,.13-.1.31-.26.22-.44S6.26.73,6.09.75a.78.78,0,0,0-.6.36C5.29,1.42,5.13,1.76,5,2ZM4.05,5.55H4a10.84,10.84,0,0,1,.49-2.83H2.87v4a2.86,2.86,0,0,0,.63-.24,2.4,2.4,0,0,0,.39-.49h0l-.25.77H7c0-.28.07-.56-.19-.78l-.1.5a.68.68,0,0,1-.09-.22,11.62,11.62,0,0,0-1-2.8,3.62,3.62,0,0,0-.41-.61.35.35,0,0,0-.21-.1s-.08.1-.09.16c-.09.34-.16.68-.26,1C4.41,4.43,4.23,5,4.05,5.55Zm2.89-.7V2.7H5.25A9.66,9.66,0,0,1,6.94,4.85Z"/><path d="M5,18.87a1.51,1.51,0,0,1,.67-1.25,1.46,1.46,0,0,1,1.46-.08c.22.1.25.29,0,.45a10.68,10.68,0,0,1-1,.72c-.29.17-.61.3-.94.47H7.2v4.57H3.61a.68.68,0,0,0-.31.08,1,1,0,0,1-.84.06,7,7,0,0,1-.74-.35c.23-.19,0-.32,0-.49a1.3,1.3,0,0,0,.86.32v-4.2h2v0A5.3,5.3,0,0,1,4,18.88c-.41-.24-.82-.5-1.22-.75A.65.65,0,0,1,2.65,18c-.16-.18-.14-.32.08-.44A1.46,1.46,0,0,1,4.58,18a1.78,1.78,0,0,1,.27.89A9.61,9.61,0,0,0,4.4,18a.93.93,0,0,0-.89-.5c-.1,0-.25.05-.29.13a.33.33,0,0,0,.09.29,8.74,8.74,0,0,0,1.05.88c.68.46.4.46,1.08,0a8.63,8.63,0,0,0,1-.81c.09-.08.11-.25.16-.37a1.59,1.59,0,0,0-.41-.12.93.93,0,0,0-.78.48C5.24,18.25,5.11,18.56,5,18.87ZM3.68,23.46H6.94c0-.28.08-.56-.18-.78l-.09.47c-.27-.79-.53-1.61-.85-2.4a8.46,8.46,0,0,0-.69-1.2.32.32,0,0,0-.21-.1s-.08.1-.09.16c-.15.54-.28,1.08-.43,1.62-.11.36-.24.72-.37,1.09L4,22.3a10.4,10.4,0,0,1,.49-2.86c-.47,0-.93,0-1.39,0-.18,0-.23.05-.23.24,0,1.16,0,2.33,0,3.49,0,.07,0,.14,0,.2a1,1,0,0,0,1-.7l0,0Zm1.56-4a8.23,8.23,0,0,1,1.69,2.21V19.45Z"/><path d="M10.47,6.46l.43-.52.75.82-.43.4Z"/><path d="M25,5.24l.74.83-.43.39-.75-.7Z"/><path d="M28.65,3.22l.43-.52.75.83-.44.39Z"/><path d="M12.3,20.74l.43-.51.75.82-.44.4Z"/><path d="M9,1.78l.44-.52.74.83-.43.4Z"/><path d="M24.22,20.63l.43-.52.75.82-.43.4Z"/><path d="M29.56,5.46l.13-.31.32.12-.13.32Z"/><path d="M24,3l.13-.31.32.12-.12.32Z"/><path d="M10.6,3l.31.13-.12.31-.32-.12Z"/><path d="M12.89,4.5l.31.13-.11.31-.33-.12Z"/><path d="M13.81,6.55l.13-.32.32.13-.12.31Z"/><path d="M26.83,7.29l-.32-.13.13-.32L27,7Z"/><path d="M11.78,19.34l-.31-.12.12-.31.32.11Z"/><path d="M28,.92l-.13.32-.32-.13.13-.32Z"/><path d="M8.31,19.15l.32.13-.13.31-.32-.12Z"/><path d="M15,19.63l.13-.32.32.13-.12.31Z"/><path d="M9.51,21.34l.32.13-.12.31-.32-.12Z"/><path d="M27.08,19.44l-.13.31-.32-.12.13-.32Z"/><path d="M13.58,22.93l.13-.32.32.13-.12.31Z"/><path d="M28,21.32a2.05,2.05,0,0,0-.08.2.73.73,0,0,0-.05.12l-.32-.13.13-.31Z"/><path d="M26.78,3.92l.3.12L27,4.33C26.61,4.28,26.59,4.25,26.78,3.92Z"/><path d="M8.31,23l.14-.32.31.13-.13.31Z"/><path d="M14.62,3.37l.13-.32.32.13-.13.31Z"/><path d="M12.75,1.36l-.13.32-.32-.13.12-.31Z"/><path d="M10.84,23.16l.13-.31.32.11-.13.32Z"/><path d="M29.46,23.08l.32.13-.13.31-.31-.12Z"/><path d="M9.38,5.59l.13-.31.32.12-.12.32Z"/><path d="M26.5,22.74l-.13.31-.32-.12.13-.32Z"/><path d="M28.89,19.76l-.3-.21.15-.24.33.22Z"/><path d="M19.89,2.32a9.61,9.61,0,0,0-.46-.9.92.92,0,0,0-.94-.48c-.26,0-.34.17-.17.38a2.55,2.55,0,0,0,.43.44c.34.26.69.5,1.05.74a.26.26,0,0,0,.24,0c.47-.34.94-.69,1.4-1,.12-.1.28-.26.17-.41s-.28-.12-.43-.12a.92.92,0,0,0-.76.51c-.17.29-.29.6-.44.9a1.59,1.59,0,0,1,.66-1.28A1.46,1.46,0,0,1,22.12,1c.21.1.25.27.07.43a3.66,3.66,0,0,1-.58.46c-.44.26-.9.49-1.34.73h2V7.19H18.67a.55.55,0,0,0-.28.06,1,1,0,0,1-.95.07A7.29,7.29,0,0,1,16.75,7c.26-.17,0-.31,0-.42l.85.32V2.62h2v0l-.16-.07a6.39,6.39,0,0,1-1.65-1c-.11-.09-.25-.27-.22-.36S17.82,1,18,.91A1.44,1.44,0,0,1,19.89,2.32ZM18.72,6.91H22c0-.27.09-.56-.18-.78l-.11.55-.05-.16c-.17-.57-.32-1.14-.52-1.7A5.74,5.74,0,0,0,20.2,3C20.14,3,20,2.94,20,2.89a1.36,1.36,0,0,0-.1.21c-.18.62-.34,1.25-.52,1.87-.08.28-.19.55-.29.82A9.75,9.75,0,0,1,19.5,2.9H17.92v4a2.67,2.67,0,0,0,.64-.26A2.62,2.62,0,0,0,19,6.08h0Zm1.6-4c.31.36.62.68.9,1s.5.73.74,1.08V2.9Z"/><path d="M34.73,2.32c-.14-.29-.26-.59-.43-.87a1,1,0,0,0-1-.51c-.24,0-.31.15-.16.36a1.7,1.7,0,0,0,.34.37c.38.29.77.57,1.16.84a.26.26,0,0,0,.24,0c.44-.31.87-.63,1.3-.95a1.26,1.26,0,0,0,.25-.31c.1-.17.05-.28-.15-.32a.81.81,0,0,0-.81.26,8.24,8.24,0,0,0-.54.9,2.27,2.27,0,0,0-.11.34A1.46,1.46,0,0,1,36.12.85,1.92,1.92,0,0,1,36.9,1c.29.08.32.28.1.48a3.49,3.49,0,0,1-.62.47c-.42.25-.85.46-1.27.69h2V7.19H33.51a.55.55,0,0,0-.28.06,1,1,0,0,1-.93.08c-.24-.09-.47-.23-.72-.35.26-.18,0-.31,0-.43l.86.33V2.61h2a8.18,8.18,0,0,1-1.66-.94,1.48,1.48,0,0,1-.3-.26c-.17-.18-.13-.33.08-.44a1.44,1.44,0,0,1,1.88.55,5.16,5.16,0,0,1,.28.78ZM33.55,6.91h3.27c0-.27.08-.55-.18-.79l-.11.58-.07-.24c-.21-.67-.38-1.34-.64-2A11.8,11.8,0,0,0,35,3c0-.07-.16-.09-.24-.14a.84.84,0,0,0-.11.21c-.12.46-.22.93-.36,1.38s-.29.9-.44,1.34h0a12,12,0,0,1,.5-2.91H32.75V6.8a1,1,0,0,0,1-.72l.05,0Zm1.58-4A9.22,9.22,0,0,1,36.81,5V2.9Z"/><path d="M19.89,19.05a11.18,11.18,0,0,0-.55-1,.84.84,0,0,0-.84-.38c-.27,0-.34.17-.19.38a1.76,1.76,0,0,0,.35.37c.38.28.76.56,1.15.83a.26.26,0,0,0,.24,0c.43-.3.86-.62,1.28-.94a.47.47,0,0,0,.1-.1c.11-.13.29-.26.19-.44s-.33-.13-.51-.1a.85.85,0,0,0-.61.41c-.19.32-.35.65-.5.93a1.4,1.4,0,0,1,1.27-1.43,2.35,2.35,0,0,1,.79.1c.28.09.32.29.1.49a6,6,0,0,1-1.75,1.06l-.15.06-.05.05h2.05V24H18.65a.66.66,0,0,0-.31.09,1,1,0,0,1-.84.06c-.25-.1-.48-.23-.76-.35.26-.17,0-.31,0-.47a1.3,1.3,0,0,0,.84.29V19.38h2v0A6.67,6.67,0,0,1,19,19a12.74,12.74,0,0,1-1.22-.79c-.31-.24-.26-.44.11-.57A1.46,1.46,0,0,1,19.89,19.05Zm-1.17,4.61H22c0-.27.08-.55-.18-.78l-.1.55c0-.08-.05-.12-.06-.16-.21-.67-.41-1.35-.64-2a4.8,4.8,0,0,0-.85-1.53.24.24,0,0,0-.19-.08s-.08.1-.1.16c-.12.46-.22.92-.35,1.37s-.3.92-.45,1.38l-.06,0a11,11,0,0,1,.51-2.89h-1.6v4a2.51,2.51,0,0,0,.64-.26,3.14,3.14,0,0,0,.44-.57ZM22,21.79V19.65H20.28A9.6,9.6,0,0,1,22,21.79Z"/><path d="M34.72,19c-.15-.29-.29-.61-.48-.91a.89.89,0,0,0-.79-.44,1.18,1.18,0,0,0-.36.12c0,.11,0,.26.13.34.28.26.57.51.88.75s.45.4.67.4.48-.24.7-.4.58-.47.85-.73c.09-.08.1-.24.15-.36a1.12,1.12,0,0,0-.38-.12.76.76,0,0,0-.68.34,10.18,10.18,0,0,0-.5.92,1.67,1.67,0,0,0-.08.24,1.48,1.48,0,0,1,1.89-1.55s.06,0,.08,0,.29.15.32.26-.1.26-.19.34a6.27,6.27,0,0,1-1.75,1,.19.19,0,0,0-.11.07h2V24H33.49a.69.69,0,0,0-.31.09,1,1,0,0,1-.84.06c-.25-.1-.48-.22-.74-.35.23-.19,0-.32,0-.44l.85.33V19.38h2v0l-.14-.06a6.85,6.85,0,0,1-1.66-1c-.13-.1-.33-.22-.24-.4a.62.62,0,0,1,.39-.27A1.43,1.43,0,0,1,34.72,19Zm-1.16,4.62h3.26c0-.28.07-.56-.18-.79l-.11.55c-.15-.52-.28-1-.45-1.5a6.5,6.5,0,0,0-1-2.13,1,1,0,0,0-.24-.15,1.51,1.51,0,0,0-.11.22L34.09,22c-.05.16-.12.31-.18.46a11.32,11.32,0,0,1,.1-1.43c.07-.48.18-.94.27-1.4H32.75v3.91a1,1,0,0,0,1-.73l0,0Zm3.25-1.87V19.65H35.12A9.27,9.27,0,0,1,36.81,21.79Z"/><path d="M5.17,2.24A1.44,1.44,0,0,1,7.23,1c.27.12.3.3.09.49A6,6,0,0,1,5.54,2.52a.4.4,0,0,0-.15.09h2V7.19H3.84a.71.71,0,0,0-.35.1.92.92,0,0,1-.74.07A8.63,8.63,0,0,1,1.9,7c.25-.2,0-.34,0-.45l.85.34V2.61h2L3.27,1.76a2.3,2.3,0,0,1-.42-.35c-.18-.17-.14-.34.09-.45a1.44,1.44,0,0,1,1.92.65c.09.2.14.43.21.64L5,2.27a6,6,0,0,0-.32-.68,1,1,0,0,0-1-.65c-.28,0-.36.17-.18.38a5.51,5.51,0,0,0,.66.62A7.43,7.43,0,0,0,5,2.5a.3.3,0,0,0,.24,0c.46-.34.92-.68,1.37-1,.13-.11.31-.26.21-.44S6.46.93,6.28,1a.78.78,0,0,0-.59.36C5.49,1.62,5.33,2,5.17,2.24ZM4.25,5.75H4.17A11,11,0,0,1,4.66,2.9H3.07v4a3.06,3.06,0,0,0,.63-.25,2.34,2.34,0,0,0,.39-.48h0l-.25.77H7.15c0-.28.07-.56-.19-.78l-.1.5a.79.79,0,0,1-.09-.22,11.62,11.62,0,0,0-1-2.8A4.33,4.33,0,0,0,5.33,3a.35.35,0,0,0-.22-.1S5,3,5,3.06c-.08.34-.15.67-.25,1C4.6,4.63,4.42,5.19,4.25,5.75Zm2.88-.7V2.9H5.45A9.33,9.33,0,0,1,7.13,5.05Z"/><path d="M5.15,19.06a1.47,1.47,0,0,1,2.13-1.33.25.25,0,0,1,0,.46,10.68,10.68,0,0,1-1,.72c-.29.17-.61.3-.94.46H7.4V24H3.81A.69.69,0,0,0,3.5,24a1,1,0,0,1-.84.06,8.21,8.21,0,0,1-.75-.35c.23-.19,0-.32,0-.5a1.21,1.21,0,0,0,.86.32V19.38h2v0a6.11,6.11,0,0,1-.58-.27c-.42-.24-.82-.5-1.22-.75a.9.9,0,0,1-.18-.16c-.16-.18-.13-.33.09-.44a1.46,1.46,0,0,1,1.85.49,1.78,1.78,0,0,1,.27.89,9.61,9.61,0,0,0-.45-.92.94.94,0,0,0-.89-.5c-.11,0-.25,0-.29.13a.35.35,0,0,0,.08.29,10.87,10.87,0,0,0,1,.88c.69.46.41.46,1.09,0a8.72,8.72,0,0,0,1-.82c.09-.08.1-.24.15-.36a1.52,1.52,0,0,0-.4-.12.9.9,0,0,0-.78.48C5.44,18.45,5.3,18.76,5.15,19.06Zm-1.28,4.6H7.14c0-.28.08-.56-.19-.78l-.08.46C6.6,22.56,6.34,21.74,6,21a8.46,8.46,0,0,0-.69-1.2.32.32,0,0,0-.21-.1s-.08.1-.09.16c-.15.54-.28,1.08-.43,1.61-.11.37-.24.73-.37,1.09H4.17a10.41,10.41,0,0,1,.5-2.86H3.28c-.18,0-.24.05-.23.24v3.49c0,.07,0,.13,0,.2a1,1,0,0,0,1-.7l0,0Zm1.57-4a8.88,8.88,0,0,1,1.69,2.22V19.64Z"/><path d="M10.67,6.65l.43-.51.75.82-.44.4Z"/><path d="M25.21,5.44l.74.83-.43.39L24.77,6Z"/><path d="M28.85,3.41l.43-.52.74.84-.43.39Z"/><path d="M12.5,20.94l.43-.52.75.83-.44.4Z"/><path d="M9.21,2l.43-.52.75.82-.43.4Z"/><path d="M24.42,20.83l.43-.52.75.82-.43.4Z"/><path d="M29.76,5.66l.13-.31.32.12-.13.32Z"/><path d="M24.23,3.24l.13-.32.32.13-.13.31Z"/><path d="M10.8,3.19l.31.12L11,3.63l-.32-.12Z"/><path d="M13.09,4.7l.31.13-.12.31L13,5Z"/><path d="M14,6.75l.13-.32.32.13-.13.31Z"/><path d="M27,7.49l-.32-.13L26.83,7l.33.13Z"/><path d="M12,19.54l-.31-.12.11-.32.33.12Z"/><path d="M28.17,1.12,28,1.43l-.32-.12L27.84,1Z"/><path d="M8.51,19.35l.32.13-.13.31-.32-.13Z"/><path d="M15.18,19.83l.13-.32.32.13-.12.31Z"/><path d="M9.71,21.54l.32.13L9.9,22l-.31-.12Z"/><path d="M27.28,19.64l-.13.31-.32-.12.13-.32Z"/><path d="M13.78,23.13l.13-.32.32.13-.12.31Z"/><path d="M28.17,21.52l-.09.2a.78.78,0,0,1,0,.12l-.31-.13.13-.31Z"/><path d="M27,4.12l.31.12-.12.29C26.8,4.48,26.79,4.45,27,4.12Z"/><path d="M8.51,23.15l.14-.32L9,23l-.13.31Z"/><path d="M14.82,3.56,15,3.25l.32.13-.13.31Z"/><path d="M13,1.56l-.13.32-.32-.13.12-.31Z"/><path d="M11,23.35l.14-.31.32.12-.13.32Z"/><path d="M29.66,23.28l.32.13-.13.31-.32-.12Z"/><path d="M9.58,5.79l.13-.32L10,5.6l-.13.32Z"/><path d="M26.7,22.94l-.13.31-.32-.12.13-.32Z"/><path d="M29.09,20l-.3-.21.15-.24.33.22Z"/></g><g class="cls-3"><path d="M19.55,2a9.61,9.61,0,0,0-.46-.9A.92.92,0,0,0,18.15.6c-.26,0-.34.17-.17.38a2.19,2.19,0,0,0,.43.43c.34.27.69.51,1.05.75a.26.26,0,0,0,.24,0c.47-.34.94-.69,1.4-1.05.12-.1.28-.26.17-.41S21,.6,20.84.6a.92.92,0,0,0-.76.51c-.17.29-.29.6-.44.9A1.59,1.59,0,0,1,20.3.73,1.46,1.46,0,0,1,21.78.64c.21.1.25.27.07.43a3.66,3.66,0,0,1-.58.46c-.44.26-.9.49-1.34.73h2V6.85H18.33a.55.55,0,0,0-.28.06A1,1,0,0,1,17.1,7a7.29,7.29,0,0,1-.69-.34c.26-.17,0-.31,0-.42l.85.32V2.28h2v0l-.16-.07a6.39,6.39,0,0,1-1.65-1c-.11-.09-.25-.27-.22-.36s.21-.23.35-.27A1.44,1.44,0,0,1,19.55,2ZM18.38,6.57h3.26c0-.27.09-.56-.19-.78l-.1.54-.05-.15c-.17-.57-.32-1.14-.52-1.7a5.74,5.74,0,0,0-.92-1.79c-.06-.07-.16-.09-.24-.14a1.36,1.36,0,0,0-.1.21c-.18.62-.34,1.25-.52,1.87-.08.28-.19.55-.29.82a9.75,9.75,0,0,1,.45-2.89H17.57v4a2.59,2.59,0,0,0,.65-.26,2.62,2.62,0,0,0,.39-.52h0Zm1.6-4c.31.36.62.68.9,1s.5.73.74,1.08V2.56Z"/><path d="M34.39,2c-.14-.29-.26-.59-.43-.87A1,1,0,0,0,33,.6c-.24,0-.31.15-.16.36a1.7,1.7,0,0,0,.34.37c.38.29.77.57,1.16.84a.26.26,0,0,0,.24,0c.44-.31.87-.63,1.3-1A1.26,1.26,0,0,0,36.1.92c.1-.17,0-.28-.15-.32a.81.81,0,0,0-.81.26,8.24,8.24,0,0,0-.54.9,2.27,2.27,0,0,0-.11.34A1.46,1.46,0,0,1,35.78.51a1.92,1.92,0,0,1,.78.11c.29.08.32.28.1.48a3.23,3.23,0,0,1-.63.47c-.41.25-.84.46-1.26.69h2V6.85H33.17a.55.55,0,0,0-.28.06A1,1,0,0,1,32,7c-.24-.09-.47-.23-.72-.35.26-.18,0-.31,0-.43l.86.33V2.27h2a8.18,8.18,0,0,1-1.66-.94,1.87,1.87,0,0,1-.3-.26c-.17-.18-.13-.33.08-.44a1.44,1.44,0,0,1,1.88.55,5.16,5.16,0,0,1,.28.78ZM33.21,6.57h3.27c0-.27.08-.55-.18-.79l-.11.58-.07-.24c-.21-.67-.38-1.34-.64-2a11.8,11.8,0,0,0-.78-1.44c0-.07-.16-.09-.24-.14a.84.84,0,0,0-.11.21c-.12.46-.22.93-.36,1.38s-.29.9-.44,1.34h0A12,12,0,0,1,34,2.56H32.41v3.9a1,1,0,0,0,1-.72l0,0Zm1.58-4A9.49,9.49,0,0,1,36.47,4.7V2.56Z"/><path d="M19.55,18.71c-.16-.29-.33-.66-.55-1a.85.85,0,0,0-.84-.37c-.27,0-.34.17-.19.38a1.76,1.76,0,0,0,.35.37c.38.28.76.56,1.15.83a.26.26,0,0,0,.24,0c.43-.3.86-.62,1.28-.94a.47.47,0,0,0,.1-.1c.11-.13.29-.26.19-.44s-.33-.13-.51-.1a.85.85,0,0,0-.61.41c-.19.32-.35.65-.5.93a1.4,1.4,0,0,1,1.27-1.43,2.35,2.35,0,0,1,.79.1c.28.09.32.29.1.49a6,6,0,0,1-1.75,1.06l-.15.06-.05.05h2.05v4.58H18.31a.73.73,0,0,0-.32.09,1,1,0,0,1-.83.06c-.25-.1-.49-.23-.76-.35.26-.17,0-.31,0-.47a1.3,1.3,0,0,0,.84.29V19h2v0a6.67,6.67,0,0,1-.66-.31,12.74,12.74,0,0,1-1.22-.79c-.31-.24-.26-.44.11-.57A1.46,1.46,0,0,1,19.55,18.71Zm-1.17,4.61h3.26c0-.27.08-.55-.18-.78l-.11.55c0-.08,0-.12-.05-.16-.21-.67-.41-1.35-.64-2a4.8,4.8,0,0,0-.85-1.53.24.24,0,0,0-.19-.08s-.08.1-.1.16c-.12.46-.22.92-.35,1.37s-.3.92-.45,1.38l-.06,0a11,11,0,0,1,.51-2.89h-1.6v4a2.51,2.51,0,0,0,.64-.26,3.14,3.14,0,0,0,.44-.57Zm3.25-1.87V19.31H19.94A9.6,9.6,0,0,1,21.63,21.45Z"/><path d="M34.38,18.7c-.15-.29-.29-.61-.48-.91a.89.89,0,0,0-.79-.44,1.18,1.18,0,0,0-.36.12c0,.11,0,.26.13.34.28.26.57.51.88.75s.45.4.67.4.48-.24.7-.4.58-.47.85-.73c.09-.08.1-.24.15-.36a1.12,1.12,0,0,0-.38-.12.76.76,0,0,0-.68.34,9,9,0,0,0-.5.92,1.67,1.67,0,0,0-.08.24,1.48,1.48,0,0,1,1.89-1.55s.06,0,.08,0,.29.15.32.26-.1.26-.19.34a6.52,6.52,0,0,1-1.75,1,.19.19,0,0,0-.11.07h2v4.59H33.15a.69.69,0,0,0-.31.09,1,1,0,0,1-.84.06c-.25-.1-.48-.22-.74-.35.23-.19,0-.32,0-.44l.85.33V19h2v0L34,18.94a6.85,6.85,0,0,1-1.66-1c-.13-.1-.33-.22-.24-.4a.62.62,0,0,1,.39-.27A1.43,1.43,0,0,1,34.38,18.7Zm-1.16,4.62h3.26c0-.28.07-.56-.18-.79l-.11.55c-.15-.52-.28-1-.45-1.5a6.7,6.7,0,0,0-1-2.13,1,1,0,0,0-.24-.15,1.51,1.51,0,0,0-.11.22l-.6,2.16c0,.16-.12.31-.18.46a11.32,11.32,0,0,1,.1-1.43c.07-.48.18-.94.27-1.4H32.41v3.91a1,1,0,0,0,1-.73l0,0Zm3.25-1.87V19.31H34.78A9.27,9.27,0,0,1,36.47,21.45Z"/><path d="M4.83,1.9A1.44,1.44,0,0,1,6.89.61c.27.12.3.3.09.49A6,6,0,0,1,5.2,2.18a.4.4,0,0,0-.15.09h2V6.85H3.5a.71.71,0,0,0-.35.1A1,1,0,0,1,2.41,7a8.63,8.63,0,0,1-.85-.36c.25-.2,0-.34,0-.45l.85.34V2.27h2L2.93,1.42a2.3,2.3,0,0,1-.42-.35C2.33.9,2.37.73,2.6.62a1.44,1.44,0,0,1,1.92.65c.09.2.14.43.21.64l-.05,0c-.1-.23-.2-.46-.32-.68a1,1,0,0,0-1-.66C3,.62,3,.77,3.14,1a5.51,5.51,0,0,0,.66.62,7.43,7.43,0,0,0,.82.56.3.3,0,0,0,.24,0c.46-.34.92-.68,1.37-1,.13-.11.3-.26.21-.44S6.12.59,5.94.61A.78.78,0,0,0,5.35,1C5.15,1.28,5,1.62,4.83,1.9ZM3.91,5.41H3.83a11,11,0,0,1,.49-2.84H2.73v4a3.06,3.06,0,0,0,.63-.25,2.34,2.34,0,0,0,.39-.48h0l-.25.77H6.81c0-.28.07-.56-.2-.79l-.09.51a.79.79,0,0,1-.09-.22,11.85,11.85,0,0,0-1-2.81A4.89,4.89,0,0,0,5,2.66a.35.35,0,0,0-.22-.1s-.07.1-.09.16c-.08.34-.15.67-.25,1C4.26,4.29,4.08,4.85,3.91,5.41Zm2.88-.7V2.56H5.11A9.33,9.33,0,0,1,6.79,4.71Z"/><path d="M4.81,18.72a1.47,1.47,0,0,1,2.13-1.33.25.25,0,0,1,0,.46,10.68,10.68,0,0,1-1,.72c-.29.17-.61.3-.94.46H7.06v4.58H3.47a.69.69,0,0,0-.31.09,1,1,0,0,1-.84.06,8.21,8.21,0,0,1-.75-.35c.23-.19,0-.32,0-.5a1.21,1.21,0,0,0,.86.32V19h2v0a6.11,6.11,0,0,1-.58-.27c-.42-.24-.82-.5-1.22-.75a.9.9,0,0,1-.18-.16c-.16-.18-.13-.33.09-.44a1.46,1.46,0,0,1,1.85.49,1.78,1.78,0,0,1,.27.89,9.61,9.61,0,0,0-.45-.92.94.94,0,0,0-.89-.5.41.41,0,0,0-.29.12.37.37,0,0,0,.08.3,10.87,10.87,0,0,0,1,.88c.69.46.41.46,1.09,0a8.72,8.72,0,0,0,1-.82c.09-.08.1-.24.15-.36a1.52,1.52,0,0,0-.4-.12.9.9,0,0,0-.78.48C5.1,18.11,5,18.42,4.81,18.72Zm-1.28,4.6H6.8c0-.28.08-.56-.19-.78L6.53,23c-.28-.78-.53-1.6-.85-2.39A8.46,8.46,0,0,0,5,19.41a.32.32,0,0,0-.21-.1s-.08.1-.09.16c-.15.54-.28,1.08-.43,1.61-.11.37-.25.73-.37,1.09H3.83a10.55,10.55,0,0,1,.5-2.87c-.47,0-.93,0-1.39,0-.18,0-.24.05-.23.24V23c0,.07,0,.13,0,.2a1,1,0,0,0,1-.7l0,0Zm1.57-4a8.88,8.88,0,0,1,1.69,2.22V19.3Z"/><path d="M10.33,6.31l.43-.51.75.82-.44.4Z"/><path d="M24.87,5.1l.74.83-.43.39-.75-.7Z"/><path d="M28.51,3.07l.43-.52.74.84-.43.39Z"/><path d="M12.16,20.6l.43-.52.75.83-.44.4Z"/><path d="M8.87,1.64l.43-.52.75.82-.43.4Z"/><path d="M24.08,20.49l.43-.52.75.82-.43.4Z"/><path d="M29.42,5.32,29.55,5l.32.12-.13.32Z"/><path d="M23.89,2.9,24,2.58l.32.13L24.21,3Z"/><path d="M10.46,2.85l.31.12-.12.32-.32-.12Z"/><path d="M12.75,4.36l.31.12-.12.32-.32-.12Z"/><path d="M13.67,6.41l.13-.32.32.13L14,6.53Z"/><path d="M26.69,7.15,26.37,7l.12-.32.33.13Z"/><path d="M11.64,19.2l-.31-.12.11-.32.33.12Z"/><path d="M27.83.78l-.13.31L27.38,1,27.5.65Z"/><path d="M8.17,19l.32.13-.13.31L8,19.32Z"/><path d="M14.84,19.49l.13-.32.32.13-.12.31Z"/><path d="M9.37,21.2l.32.13-.13.31-.31-.12Z"/><path d="M26.94,19.3l-.13.31-.32-.12.13-.32Z"/><path d="M13.44,22.79l.13-.32.32.13-.12.31Z"/><path d="M27.83,21.18l-.09.2a.78.78,0,0,1,0,.12l-.31-.13.13-.31Z"/><path d="M26.63,3.78l.31.12-.12.29C26.46,4.14,26.45,4.11,26.63,3.78Z"/><path d="M8.17,22.81l.14-.32.31.13-.13.31Z"/><path d="M14.48,3.22l.13-.31.32.13-.13.31Z"/><path d="M12.61,1.22l-.13.32-.32-.13.12-.31Z"/><path d="M10.69,23l.14-.31.32.12-.13.32Z"/><path d="M29.32,22.94l.32.13-.13.31-.32-.12Z"/><path d="M9.24,5.45l.13-.32.32.13-.13.32Z"/><path d="M26.35,22.6l-.12.31-.33-.12.14-.32Z"/><path d="M28.75,19.62l-.3-.21.15-.24.33.22Z"/></g><path class="cls-4" d="M19.75,2.18c-.14-.28-.28-.61-.46-.9a.94.94,0,0,0-.94-.49c-.27,0-.34.18-.17.39a2.19,2.19,0,0,0,.43.43c.34.27.69.51,1.05.75a.26.26,0,0,0,.24,0c.47-.34.94-.69,1.4-1.06.12-.09.28-.25.17-.4S21.19.8,21,.8a.92.92,0,0,0-.76.51c-.17.29-.3.6-.44.9A1.59,1.59,0,0,1,20.5.93,1.44,1.44,0,0,1,22,.84c.22.1.25.26.08.43a3.66,3.66,0,0,1-.58.46c-.44.26-.9.49-1.34.73h2V7.05H18.53a.52.52,0,0,0-.28.06,1,1,0,0,1-.95.07c-.23-.09-.45-.22-.7-.34.27-.17,0-.31,0-.42l.85.32V2.47h2v0l-.16-.07a6.51,6.51,0,0,1-1.65-1c-.11-.09-.25-.27-.23-.36a.61.61,0,0,1,.36-.28A1.45,1.45,0,0,1,19.75,2.18ZM18.57,6.77h3.27c0-.28.08-.56-.19-.79l-.1.55-.05-.15c-.17-.57-.33-1.14-.52-1.7a5.74,5.74,0,0,0-.92-1.79.72.72,0,0,0-.24-.14.84.84,0,0,0-.11.21c-.17.62-.33,1.25-.51,1.87-.08.28-.19.55-.29.82a9.75,9.75,0,0,1,.45-2.89H17.77v4a2.59,2.59,0,0,0,.65-.26,2.62,2.62,0,0,0,.39-.52h0Zm1.6-4c.32.37.63.69.91,1s.5.73.74,1.08V2.75Z"/><path class="cls-4" d="M34.59,2.18c-.14-.29-.26-.59-.43-.87a1,1,0,0,0-1-.51c-.24,0-.31.15-.17.36a1.75,1.75,0,0,0,.35.37c.38.29.77.57,1.16.84a.26.26,0,0,0,.24,0q.66-.47,1.29-1a1.06,1.06,0,0,0,.26-.3c.1-.17,0-.29-.15-.32a.8.8,0,0,0-.81.26,7.39,7.39,0,0,0-.54.9,2.12,2.12,0,0,0-.11.33A1.45,1.45,0,0,1,36,.71a2.1,2.1,0,0,1,.78.1c.29.09.32.29.1.49a3.56,3.56,0,0,1-.63.47c-.41.25-.85.46-1.26.69h2V7.05H33.37a.55.55,0,0,0-.28.06,1,1,0,0,1-.94.07c-.24-.09-.46-.22-.71-.34.26-.18,0-.31,0-.43l.85.33V2.47h2a8.38,8.38,0,0,1-1.65-.94,1.87,1.87,0,0,1-.3-.26c-.17-.18-.13-.33.08-.44a1.44,1.44,0,0,1,1.88.55,5.16,5.16,0,0,1,.28.78ZM33.41,6.77h3.27c0-.28.08-.56-.18-.79l-.11.58-.07-.24c-.21-.67-.38-1.35-.64-2a13.35,13.35,0,0,0-.78-1.44c0-.07-.16-.1-.24-.14a1,1,0,0,0-.11.2c-.12.47-.22.93-.36,1.39s-.29.89-.44,1.34l0,0a11.53,11.53,0,0,1,.5-2.9H32.6V6.65a1,1,0,0,0,1-.71l.05,0Zm1.58-4a9.44,9.44,0,0,1,1.68,2.13V2.76Z"/><path class="cls-4" d="M19.75,18.91c-.16-.29-.33-.66-.55-1a.89.89,0,0,0-.85-.38c-.26,0-.33.17-.18.39a2,2,0,0,0,.35.37c.37.28.76.56,1.15.82a.29.29,0,0,0,.24,0l1.28-.94a.47.47,0,0,0,.1-.1c.11-.13.29-.26.19-.44s-.33-.13-.51-.1a.85.85,0,0,0-.61.41c-.2.31-.35.65-.5.93a1.4,1.4,0,0,1,1.27-1.43,2.35,2.35,0,0,1,.79.1c.28.09.32.29.1.49a6,6,0,0,1-1.75,1.06l-.16.06,0,.05h2v4.58h-3.6a.73.73,0,0,0-.32.09.93.93,0,0,1-.83.05,8.34,8.34,0,0,1-.76-.35c.26-.16,0-.3,0-.46a1.23,1.23,0,0,0,.83.28V19.23h2v0c-.23-.11-.46-.19-.67-.31-.41-.25-.83-.5-1.22-.79s-.25-.44.12-.57A1.46,1.46,0,0,1,19.75,18.91Zm-1.17,4.61h3.26c0-.27.08-.55-.19-.78l-.1.54a1.26,1.26,0,0,1-.05-.15c-.21-.67-.41-1.35-.64-2A4.8,4.8,0,0,0,20,19.59a.24.24,0,0,0-.19-.08s-.08.1-.1.16c-.12.45-.22.91-.35,1.37s-.3.92-.45,1.38l-.06,0a11.37,11.37,0,0,1,.5-2.89H17.77v4a2.67,2.67,0,0,0,.64-.26,2.91,2.91,0,0,0,.44-.58Zm3.25-1.87V19.51H20.14A9.6,9.6,0,0,1,21.83,21.65Z"/><path class="cls-4" d="M34.58,18.89c-.15-.28-.29-.61-.48-.9a.87.87,0,0,0-.8-.44,1.27,1.27,0,0,0-.36.12c.05.11.06.26.14.33a10.66,10.66,0,0,0,.88.76c.21.16.45.4.67.4s.48-.24.7-.41a9.53,9.53,0,0,0,.85-.72c.09-.08.1-.24.15-.37a1.36,1.36,0,0,0-.38-.11.77.77,0,0,0-.68.33,10.18,10.18,0,0,0-.5.92,2.3,2.3,0,0,0-.09.25,1.49,1.49,0,0,1,1.9-1.55s.06,0,.08,0,.28.15.32.26-.1.26-.2.34a6.47,6.47,0,0,1-1.74,1,.25.25,0,0,0-.12.07h2v4.59H33.35a.69.69,0,0,0-.31.09,1,1,0,0,1-.84.06c-.25-.1-.48-.23-.75-.35.23-.19,0-.32,0-.45l.85.34V19.23h2v0l-.14-.06a6.85,6.85,0,0,1-1.66-1c-.13-.1-.33-.22-.24-.4a.62.62,0,0,1,.39-.27A1.43,1.43,0,0,1,34.58,18.89Zm-1.16,4.63h3.26c0-.28.07-.56-.18-.79l-.11.55c-.15-.52-.29-1-.45-1.5a6.7,6.7,0,0,0-1-2.13,1,1,0,0,0-.24-.15.91.91,0,0,0-.11.22L34,21.88c-.05.15-.12.31-.18.46a9.63,9.63,0,0,1,.1-1.43c.07-.48.18-.94.27-1.4H32.6v3.91a1,1,0,0,0,1-.73l.05,0Zm3.25-1.87V19.51H35A9.32,9.32,0,0,1,36.67,21.65Z"/><path class="cls-4" d="M5,2.1A1.43,1.43,0,0,1,7.09.81c.27.11.3.29.09.49A5.92,5.92,0,0,1,5.39,2.37a.53.53,0,0,0-.14.1h2V7.05H3.7a.78.78,0,0,0-.36.1.94.94,0,0,1-.73.07,6.26,6.26,0,0,1-.85-.37c.25-.19,0-.33,0-.44l.86.34V2.47h2L3.13,1.62a2.06,2.06,0,0,1-.42-.35C2.53,1.1,2.57.93,2.8.82a1.44,1.44,0,0,1,1.92.65c.09.2.14.43.21.64l0,0c-.11-.23-.2-.47-.32-.68a1,1,0,0,0-1-.66c-.28,0-.37.18-.18.39A5.51,5.51,0,0,0,4,1.8a9.12,9.12,0,0,0,.82.56.26.26,0,0,0,.24,0c.46-.33.92-.67,1.37-1,.13-.11.3-.26.21-.45S6.32.79,6.14.8a.82.82,0,0,0-.59.37C5.35,1.48,5.18,1.81,5,2.1ZM4.11,5.61,4,5.59a10.57,10.57,0,0,1,.49-2.83H2.93v4a2.58,2.58,0,0,0,.63-.24A2.34,2.34,0,0,0,4,6H4l-.25.77H7c0-.28.08-.56-.19-.79l-.09.5a.64.64,0,0,1-.09-.21,12.31,12.31,0,0,0-1-2.81,6,6,0,0,0-.42-.61A.34.34,0,0,0,5,2.76s-.07.1-.09.16c-.09.33-.16.67-.25,1C4.46,4.49,4.28,5.05,4.11,5.61ZM7,4.91V2.76H5.31A9.12,9.12,0,0,1,7,4.91Z"/><path class="cls-4" d="M5,18.92a1.53,1.53,0,0,1,.67-1.25,1.47,1.47,0,0,1,1.45-.08c.23.1.26.3.06.45a8,8,0,0,1-1,.72,10.29,10.29,0,0,1-.94.47H7.26v4.58H3.67a.59.59,0,0,0-.31.09,1,1,0,0,1-.84.06c-.25-.09-.48-.23-.75-.35.23-.19,0-.33,0-.5a1.21,1.21,0,0,0,.86.32V19.24h2v0a6.11,6.11,0,0,1-.58-.27c-.42-.24-.82-.5-1.23-.75A.85.85,0,0,1,2.7,18c-.16-.18-.13-.33.08-.44a1.47,1.47,0,0,1,1.86.49,1.78,1.78,0,0,1,.27.89,9.61,9.61,0,0,0-.45-.92.93.93,0,0,0-.9-.5.37.37,0,0,0-.28.12.38.38,0,0,0,.08.3,12.54,12.54,0,0,0,1.05.88c.68.46.41.46,1.09,0a8.62,8.62,0,0,0,1-.82c.09-.08.11-.24.16-.36a1.52,1.52,0,0,0-.4-.12.9.9,0,0,0-.78.48C5.3,18.31,5.16,18.62,5,18.92Zm-1.28,4.6H7c0-.29.07-.57-.19-.78l-.09.46c-.27-.78-.52-1.6-.84-2.39a7.22,7.22,0,0,0-.7-1.2c0-.06-.13-.09-.21-.1s-.07.1-.09.16c-.14.54-.27,1.08-.42,1.61-.11.37-.25.73-.37,1.09H4a10.55,10.55,0,0,1,.5-2.87c-.48,0-.93,0-1.39,0-.18,0-.24.05-.24.23,0,1.17,0,2.33,0,3.5,0,.07,0,.13,0,.2a1,1,0,0,0,1-.7l0,0Zm1.56-4A8.52,8.52,0,0,1,7,21.72V19.5Z"/><path class="cls-4" d="M10.53,6.51,11,6l.74.83-.43.4Z"/><path class="cls-4" d="M25.06,5.3l.75.83-.43.39-.75-.7Z"/><path class="cls-4" d="M28.71,3.27l.43-.52.74.83-.43.4Z"/><path class="cls-4" d="M12.36,20.8l.43-.52.74.83-.43.4Z"/><path class="cls-4" d="M9.07,1.84l.43-.52.75.82-.43.4Z"/><path class="cls-4" d="M24.28,20.69l.43-.52.75.82-.44.4Z"/><path class="cls-4" d="M29.62,5.52l.13-.32.32.13-.13.32Z"/><path class="cls-4" d="M24.09,3.1l.13-.32.32.13-.13.31Z"/><path class="cls-4" d="M10.65,3.05l.32.12-.12.32-.32-.13Z"/><path class="cls-4" d="M13,4.56l.31.12L13.14,5l-.32-.12Z"/><path class="cls-4" d="M13.87,6.6,14,6.29l.32.12-.13.32Z"/><path class="cls-4" d="M26.88,7.35l-.31-.13.12-.32L27,7Z"/><path class="cls-4" d="M11.84,19.4l-.32-.13.12-.31.33.12Z"/><path class="cls-4" d="M28,1l-.12.31-.32-.12L27.7.85Z"/><path class="cls-4" d="M8.37,19.21l.31.12-.12.32-.32-.13Z"/><path class="cls-4" d="M15,19.68l.13-.31.32.13-.13.31Z"/><path class="cls-4" d="M9.57,21.4l.32.13-.13.31-.32-.12Z"/><path class="cls-4" d="M27.14,19.5l-.13.31-.32-.12.12-.32Z"/><path class="cls-4" d="M13.64,23l.13-.32.32.13-.13.31Z"/><path class="cls-4" d="M28,21.38a2.07,2.07,0,0,1-.08.2.78.78,0,0,1-.05.12l-.31-.13.12-.32Z"/><path class="cls-4" d="M26.83,4l.31.12L27,4.39C26.66,4.34,26.65,4.31,26.83,4Z"/><path class="cls-4" d="M8.37,23l.13-.31.32.12-.13.32Z"/><path class="cls-4" d="M14.68,3.42l.13-.31.32.13L15,3.55Z"/><path class="cls-4" d="M12.81,1.41l-.13.32-.32-.12.12-.31Z"/><path class="cls-4" d="M10.89,23.21,11,22.9l.32.12-.12.32Z"/><path class="cls-4" d="M29.52,23.14l.32.13-.13.31-.32-.12Z"/><path class="cls-4" d="M9.44,5.65l.13-.32.32.13-.13.32Z"/><path class="cls-4" d="M26.55,22.8l-.12.3L26.1,23l.13-.32Z"/><path class="cls-4" d="M29,19.82l-.3-.21.15-.24.33.22Z"/></g></g></svg>