<svg xmlns="http://www.w3.org/2000/svg" viewBox="0 0 38.55 24.66"><defs><style>.cls-1{isolation:isolate;}.cls-2{opacity:0.15;}.cls-2,.cls-3{mix-blend-mode:multiply;}.cls-4{fill:#fff;}</style></defs><title>convert-FIX-SVG-03</title><g class="cls-1"><g id="Layer_1" data-name="Layer 1"><g class="cls-2"><path d="M26.92,13.05c.11-.12.23-.28.37-.41.44-.38.85-.79,1.32-1.12A1.73,1.73,0,0,1,31.36,13a4.92,4.92,0,0,1-.49,2.27,15.41,15.41,0,0,1-5.23,6.17c-.11.08-.16.15-.12.28a1.23,1.23,0,0,1,0,.19q0,.18,0,.39h-.26l-.07-.59-.19.12a4,4,0,0,1-.59.27.86.86,0,0,1-1.13-.6c-.19-.52-.38-1-.59-1.56a.31.31,0,0,0-.19-.18c-.47-.07-.94-.11-1.41-.16H21a6.75,6.75,0,0,1,1.24,2l-.32,0-.19.21a1.39,1.39,0,0,1-.21-.21A8.44,8.44,0,0,0,20.44,20c-.3-.32-.59-.31-.84.06s-.51.87-.76,1.31c-.08.15-.16.3-.25.44s-.33.21-.44,0a1.69,1.69,0,0,1-.1-.27h-.19a1,1,0,0,1,.27-.9,8.74,8.74,0,0,1,.67-.71l-.26,0-1.48.06c-.27,0-.29-.07-.3-.33a4.75,4.75,0,0,0-.12-.74c0-.08,0-.17-.05-.27h.83v0l-1-.35c0,.13,0,.25.05.37A5.59,5.59,0,0,1,16,21.12c-.07.16-.15.32-.21.49a.86.86,0,0,1-.83.6c-.08,0-.16.07-.24.07s-.21.11-.25-.07,0-.06-.09-.07a6,6,0,0,1-3.69-2.71A19.15,19.15,0,0,1,8.11,14.2a2.27,2.27,0,0,1,.68-2.48,2.05,2.05,0,0,1,2.35-.36,4.12,4.12,0,0,1,1.28,1,.49.49,0,0,1,.11.14l.06,0c0-.25,0-.51,0-.77,0-.06-.06-.12-.09-.18a4.22,4.22,0,0,1-.43-3,2.92,2.92,0,0,1,2.47-2.1,3.56,3.56,0,0,1,2.7.64.55.55,0,0,0,.54.08,6.61,6.61,0,0,1,4.85.16.3.3,0,0,0,.24,0A3.63,3.63,0,0,1,26,6.8a2.4,2.4,0,0,1,1.31,1A3.67,3.67,0,0,1,28,9.88,2.94,2.94,0,0,1,27,12a.5.5,0,0,0-.12.29C26.91,12.51,26.92,12.78,26.92,13.05ZM23.2,17.82a4.24,4.24,0,0,0,2-1.36,6.53,6.53,0,0,0,1.4-4.29c0-.06-.05-.13-.1-.18a1.18,1.18,0,0,1-.39-.91,1,1,0,0,0-.24-.77A5.55,5.55,0,0,0,24.2,8.82a.3.3,0,0,0-.33,0,.55.55,0,0,1-.38,0,1.9,1.9,0,0,1-1-1.3A6.5,6.5,0,0,0,17.7,7.4c.06.3.06.4-.15.6a6.23,6.23,0,0,1-.78.57.69.69,0,0,1-.44.11c-.2,0-.28.06-.39.18-.51.51-1,1-1.53,1.51a1.11,1.11,0,0,1-.57.26.38.38,0,0,0-.3.23,3.88,3.88,0,0,1-.51.74c-.12.12-.2.2-.19.36,0,.42,0,.83.09,1.24s.21.82.29,1.24.5.61.48,1c0,0,0,0,0,.07a5.39,5.39,0,0,0,1.36,1.53,6.71,6.71,0,0,0,2.41,1.19,6.73,6.73,0,0,1-.59-.71,2.54,2.54,0,0,1-.31-1.87A3,3,0,0,1,18.72,13a5.35,5.35,0,0,1,1.33-.2,3.8,3.8,0,0,1,2.89,1,2.9,2.9,0,0,1,.91,2.7A3,3,0,0,1,23.2,17.82ZM10.53,15.59a19,19,0,0,0,1.85,3.24,1,1,0,0,0,.22.23c.16.1.15.2,0,.37a2.57,2.57,0,0,1-.47-.46c-.46-.73-.92-1.46-1.34-2.22-.33-.6-.57-1.26-.92-1.85A6.25,6.25,0,0,1,8.8,12.12l-.16.18a1.91,1.91,0,0,0-.28,1.81,18.9,18.9,0,0,0,2.83,5.48,6.42,6.42,0,0,0,2.12,1.89,3.64,3.64,0,0,0,1.72.45.49.49,0,0,0,.5-.32c.19-.5.39-1,.54-1.53a3.15,3.15,0,0,0,.06-1.85.55.55,0,0,0-.25-.31,6.19,6.19,0,0,1-1.81-1.45c-.25-.31-.48-.65-.71-1-.45.15-.9.31-1.36.45a.72.72,0,0,1-.41,0C11.23,15.85,10.88,15.71,10.53,15.59Zm9.65-2.51c-.34,0-.68.06-1,.12a3,3,0,0,0-2.29,3.6,2.29,2.29,0,0,0,1.71,1.65,6,6,0,0,0,2.39.1,3.11,3.11,0,0,0,1.74-.69,2.51,2.51,0,0,0,0-3.85A3.68,3.68,0,0,0,20.18,13.08ZM23,19.83c.21.58.4,1.12.61,1.66a.55.55,0,0,0,.72.35,2.17,2.17,0,0,0,.54-.24,14.93,14.93,0,0,0,5.26-5.53A6.87,6.87,0,0,0,31,13.8a2.42,2.42,0,0,0-.15-1.57c-.05-.09-.12-.17-.18-.26,0,.54,0,1,0,1.56a3,3,0,0,1-.88,1.92,1.28,1.28,0,0,0-.26.35A11.61,11.61,0,0,1,27,19.45c-.26.24-.54.45-.83.69L26,19.9a8,8,0,0,0,1.84-1.79,12.54,12.54,0,0,0,1.34-2.2h-.12c-.45.05-.9.12-1.35.14a2.48,2.48,0,0,1-1.68-.28l-.07.11a4.89,4.89,0,0,1-3.13,2.34c-.2.06-.24.14-.17.34l.8-.06v.08a1.55,1.55,0,0,0,.08.85,1.65,1.65,0,0,1,0,.5Zm.61-11.24c0-.06.06-.12.09-.13a9.11,9.11,0,0,1,1.37-.23A1.48,1.48,0,0,1,26.77,9.4c0,.16.07.32.1.48a1,1,0,0,1-.36,1,.32.32,0,0,0-.1.23,3.7,3.7,0,0,0,.24.54c.05.1.13.13.23,0A2.49,2.49,0,0,0,27.61,9a2.81,2.81,0,0,0-1.54-1.93,3.24,3.24,0,0,0-2-.12,2.69,2.69,0,0,0-1.17.52c-.05,0-.12.16-.1.2A2,2,0,0,0,23.62,8.59Zm-11.41.73a5.06,5.06,0,0,0,.48,2c.07.14.16.16.25,0s.24-.39.36-.59a.35.35,0,0,0,0-.45A1.48,1.48,0,0,1,13,9.22a2,2,0,0,1,2-1.55,1.91,1.91,0,0,1,1.32.62c.07.08.15.16.29.1a2,2,0,0,0,.83-.55c.17-.21.17-.3-.05-.45a3.66,3.66,0,0,0-2.65-.77A2.75,2.75,0,0,0,12.21,9.32Z"/><path d="M2.62,2.63a2.58,2.58,0,0,1-.05-.46A.65.65,0,0,1,3,1.56a.77.77,0,0,1,.85.16,1.57,1.57,0,0,1,.43,1,5.48,5.48,0,0,1,0,.7c0,.32,0,.64,0,1-.61,0-1.25-.08-1.89-.14A1.61,1.61,0,0,1,1.93,4a.77.77,0,0,1-.37-1,.72.72,0,0,1,.95-.39Z"/><path d="M2.63,21.94a2.9,2.9,0,0,1-.48,0,.67.67,0,0,1-.62-.52.73.73,0,0,1,.24-.84,1.93,1.93,0,0,1,1.2-.4c.47,0,.94,0,1.46,0-.06.64-.1,1.32-.21,2a.9.9,0,0,1-.69.8.75.75,0,0,1-.94-1S2.62,22,2.63,21.94Z"/><path d="M34.11,20.18c.6,0,1.17,0,1.75.1a2.29,2.29,0,0,1,.75.25.78.78,0,0,1,.35,1A.74.74,0,0,1,36,22l-.14,0c0,.08,0,.14,0,.21a.72.72,0,0,1-.33.81.82.82,0,0,1-1-.11,1.58,1.58,0,0,1-.42-1c0-.34,0-.68-.05-1S34.12,20.4,34.11,20.18Z"/><path d="M34.08,4.34c.06-.65.1-1.32.21-2a1.41,1.41,0,0,1,.36-.65.79.79,0,0,1,1-.08.72.72,0,0,1,.32.81c0,.06,0,.12,0,.2l.21,0a.71.71,0,0,1,.83.34.78.78,0,0,1-.12.95,1.63,1.63,0,0,1-1,.41c-.3,0-.6,0-.9,0Z"/><path d="M11.94,5.48h-.56a6.19,6.19,0,0,0,0-2.06h.78a1.36,1.36,0,0,0,.09.36c.15.3.33.58.51.9l.59-1c0-.06,0-.15,0-.23h.76a2.69,2.69,0,0,0-.06,1,2.82,2.82,0,0,0,.06,1h-.63a4.42,4.42,0,0,0,0-1.31l-.79,1.3L12,4.19A5.56,5.56,0,0,0,11.94,5.48Z"/><path d="M25.1,5.46c0-.32-.23-.52-.4-.72s-.36-.1-.54-.14v.88h-.61a1.57,1.57,0,0,0,.06-.28V3.68a.84.84,0,0,0-.06-.24c.56,0,1.14,0,1.72,0a.47.47,0,0,1,.5.49.51.51,0,0,1-.41.6l-.18.07.65.85Zm-1-1.21H25A.21.21,0,0,0,25.26,4a.19.19,0,0,0-.19-.23h-.94Z"/><path d="M19.17,5.58a4.3,4.3,0,0,1-.78-.29.92.92,0,0,1-.45-.91,1,1,0,0,1,.62-.88,1.55,1.55,0,0,1,1.08-.07,1,1,0,0,1,.78,1.09,1,1,0,0,1-.83,1c-.13,0-.27,0-.4.06Zm0-.43a.69.69,0,0,0,.74-.7.74.74,0,0,0-1.47,0A.69.69,0,0,0,19.18,5.15Z"/><path d="M28.14,3.64l-.23.44a.68.68,0,0,0-.55-.3,2.14,2.14,0,0,0-.62,0c-.08,0-.14.13-.2.21s.15.13.23.14c.28,0,.56,0,.84.1.44.07.67.38.57.75a.59.59,0,0,1-.38.39,2,2,0,0,1-1.45,0l-.15,0a.55.55,0,0,0-.13,0l.2-.47a1.34,1.34,0,0,0,1.29.23c.06,0,.15-.14.14-.18a.28.28,0,0,0-.18-.17c-.27,0-.53-.06-.8-.08s-.59-.23-.62-.53a.63.63,0,0,1,.49-.67,1.63,1.63,0,0,1,1.15,0Z"/><path d="M15.37,3h.84a1.08,1.08,0,0,0,.05.29c.14.23.3.44.47.69.19-.26.36-.5.52-.74,0-.06,0-.16,0-.24h.84c-.34.45-.69.92-1,1.4a.42.42,0,0,0-.05.17c0,.24,0,.47,0,.7a1.22,1.22,0,0,0,.06.26H16.4c0-.16,0-.31.05-.46a1.34,1.34,0,0,0-.36-1.12C15.84,3.6,15.61,3.27,15.37,3Z"/><path d="M20.8,3.42h.62c0,.11-.05.22-.06.33v.88c0,.33.16.5.49.51a1.09,1.09,0,0,0,.4,0,.35.35,0,0,0,.29-.38c0-.37,0-.73,0-1.1a.53.53,0,0,0-.07-.2h.6a1.65,1.65,0,0,0-.06.32c0,.34,0,.68,0,1a.63.63,0,0,1-.53.7,2.1,2.1,0,0,1-1.14,0,.57.57,0,0,1-.45-.53c0-.4,0-.8,0-1.21A1.51,1.51,0,0,0,20.8,3.42Z"/><path d="M9.7,5.48H9a1.71,1.71,0,0,0,0-.3c0-.65,0-1.29,0-1.93A1.57,1.57,0,0,0,9,3h.7A8.93,8.93,0,0,0,9.7,5.48Z"/><path d="M29.29,4.54h-.36A9.41,9.41,0,0,0,28.78,3h.64A3.7,3.7,0,0,0,29.29,4.54Z"/><path d="M10.36,4l.32-.45c-.36-.07-.43-.13-.43-.35s.06-.29.21-.29a.43.43,0,0,1,.33.15.78.78,0,0,1-.32,1S10.39,4,10.36,4Z"/><path d="M29.39,5.21a.33.33,0,0,1-.31.31.31.31,0,0,1-.31-.33.33.33,0,0,1,.32-.3A.33.33,0,0,1,29.39,5.21Z"/><path d="M15.6,13.26s0-.1,0-.15c.07-.4.32-.67.62-.67a.68.68,0,0,1,.61.67,1.22,1.22,0,0,1-.16.68.51.51,0,0,1-.91,0,2.16,2.16,0,0,1-.2-.52Z"/><path d="M24.28,12.93a1.06,1.06,0,0,1-.29.66.51.51,0,0,1-.74,0,1,1,0,0,1-.05-1.26.52.52,0,0,1,.86,0A3,3,0,0,1,24.28,12.93Z"/><path d="M20.49,14.89h.86c.06,0,.14,0,.16,0,.13.22.26.44.37.67,0,0-.05.15-.1.21-.28.3-.57.6-.85.91a.43.43,0,0,0,.09.69l.07,0c.3.18.3.19.57,0s.25-.15.38,0,.11.22,0,.31-.33.26-.51.38a.19.19,0,0,1-.18,0,5,5,0,0,1-.59-.34.22.22,0,0,0-.31,0,6.49,6.49,0,0,1-.55.36.23.23,0,0,1-.2,0l-.59-.38a.19.19,0,0,1,0-.3c.06-.07.19-.08.29-.1s.08,0,.12.08.25.2.34.17a1.32,1.32,0,0,0,.46-.29c.1-.08,0-.48-.06-.58-.31-.29-.61-.58-.93-.86a.29.29,0,0,1-.09-.36s0,0,0,0c.18-.55.21-.58.79-.57h.51Z"/><path d="M27.11,13.25c.12-.12.24-.28.38-.41a15.62,15.62,0,0,1,1.32-1.12,1.73,1.73,0,0,1,2.75,1.46,4.94,4.94,0,0,1-.5,2.28,15.31,15.31,0,0,1-5.22,6.17c-.11.08-.16.15-.13.28a.58.58,0,0,1,0,.19q0,.18,0,.39h-.26l-.07-.59-.19.12a5.05,5.05,0,0,1-.59.26.84.84,0,0,1-1.13-.59c-.19-.52-.39-1-.59-1.56a.31.31,0,0,0-.19-.18c-.47-.07-.94-.11-1.41-.16a.18.18,0,0,0-.1,0,6.63,6.63,0,0,1,1.24,2l-.32-.05L22,22a.83.83,0,0,1-.2-.22,8.7,8.7,0,0,0-1.12-1.58c-.3-.32-.59-.31-.84.05s-.51.88-.76,1.32c-.09.14-.16.3-.25.44s-.33.2-.45,0l-.09-.27h-.19a1,1,0,0,1,.26-.9c.2-.25.44-.46.68-.71h-.26l-1.48.07c-.27,0-.3-.07-.3-.33a4.57,4.57,0,0,0-.12-.74c0-.09,0-.17-.05-.27h.83v0l-1-.35c0,.13,0,.25.05.37a5.49,5.49,0,0,1-.45,2.56c-.06.16-.14.32-.2.49a.86.86,0,0,1-.83.6c-.08,0-.16.07-.24.07s-.22.11-.25-.08c0,0-.06-.06-.09-.06a6,6,0,0,1-3.69-2.71A19.18,19.18,0,0,1,8.3,14.4,2.29,2.29,0,0,1,9,11.92a2,2,0,0,1,2.35-.36,4.09,4.09,0,0,1,1.28,1l.11.15.06,0c0-.26,0-.51,0-.77,0-.06-.06-.12-.09-.18a4.23,4.23,0,0,1-.43-3,2.9,2.9,0,0,1,2.47-2.1,3.53,3.53,0,0,1,2.7.64A.55.55,0,0,0,18,7.3a6.61,6.61,0,0,1,4.85.16.3.3,0,0,0,.24,0A3.63,3.63,0,0,1,26.2,7a2.38,2.38,0,0,1,1.3,1,3.5,3.5,0,0,1,.7,2.09,2.93,2.93,0,0,1-1,2.07.5.5,0,0,0-.12.29C27.1,12.71,27.11,13,27.11,13.25ZM23.4,18a4.24,4.24,0,0,0,2-1.36,6.59,6.59,0,0,0,1.4-4.29.3.3,0,0,0-.1-.18,1.18,1.18,0,0,1-.39-.91,1,1,0,0,0-.24-.77A5.55,5.55,0,0,0,24.4,9a.3.3,0,0,0-.33,0,.55.55,0,0,1-.38,0,1.92,1.92,0,0,1-1-1.3,6.55,6.55,0,0,0-4.83-.12c.06.31.06.41-.15.61a6.23,6.23,0,0,1-.78.57.69.69,0,0,1-.44.11c-.2-.05-.28.06-.4.17-.5.52-1,1-1.53,1.52a1,1,0,0,1-.56.26.37.37,0,0,0-.3.23,3.52,3.52,0,0,1-.52.74.44.44,0,0,0-.18.36c0,.41,0,.83.09,1.24s.21.82.28,1.23.51.62.49,1c0,0,0,.05,0,.07a5.81,5.81,0,0,0,1.35,1.53,7.05,7.05,0,0,0,2.41,1.19c-.19-.23-.41-.45-.59-.71a2.54,2.54,0,0,1-.3-1.87,3,3,0,0,1,2.11-2.65,5.35,5.35,0,0,1,1.33-.2,3.76,3.76,0,0,1,2.88,1,2.84,2.84,0,0,1,.27,4ZM10.72,15.79A19.09,19.09,0,0,0,12.58,19a.8.8,0,0,0,.22.23c.15.09.14.2,0,.37a2.57,2.57,0,0,1-.47-.46c-.46-.73-.92-1.46-1.34-2.22-.34-.6-.57-1.26-.92-1.85A6.13,6.13,0,0,1,9,12.31l-.16.19a1.91,1.91,0,0,0-.28,1.81,19,19,0,0,0,2.83,5.48,6.34,6.34,0,0,0,2.11,1.88,3.72,3.72,0,0,0,1.72.46.52.52,0,0,0,.51-.32c.19-.51.39-1,.54-1.53a3.19,3.19,0,0,0,.06-1.86.56.56,0,0,0-.25-.3,6.07,6.07,0,0,1-1.81-1.45c-.26-.31-.48-.66-.72-1-.44.15-.89.31-1.35.45a.82.82,0,0,1-.41,0C11.43,16.05,11.08,15.91,10.72,15.79Zm9.66-2.51c-.34,0-.68.05-1,.12A3,3,0,0,0,17.08,17a2.28,2.28,0,0,0,1.71,1.65,6,6,0,0,0,2.39.1,3.21,3.21,0,0,0,1.74-.69,2.51,2.51,0,0,0,0-3.85A3.64,3.64,0,0,0,20.38,13.28ZM23.21,20c.21.57.4,1.12.61,1.66a.55.55,0,0,0,.72.35,2.61,2.61,0,0,0,.54-.24,14.93,14.93,0,0,0,5.26-5.53A6.72,6.72,0,0,0,31.23,14a2.42,2.42,0,0,0-.14-1.57c-.05-.09-.12-.17-.18-.26,0,.53,0,1.05,0,1.56A3,3,0,0,1,30,15.65a1.1,1.1,0,0,0-.26.35,11.78,11.78,0,0,1-2.55,3.65c-.26.24-.54.45-.83.69l-.16-.24a8,8,0,0,0,1.84-1.79,12.54,12.54,0,0,0,1.34-2.2h-.13c-.44.05-.89.11-1.34.14A2.59,2.59,0,0,1,26.26,16l-.07.11a4.89,4.89,0,0,1-3.13,2.34c-.2,0-.24.14-.17.34l.8-.06v.08a1.64,1.64,0,0,0,.07.85,1.33,1.33,0,0,1,0,.49Zm.61-11.25s.06-.11.09-.12a10.77,10.77,0,0,1,1.36-.24A1.49,1.49,0,0,1,27,9.6a4.15,4.15,0,0,1,.11.48,1,1,0,0,1-.36,1.05.26.26,0,0,0-.1.23,4.25,4.25,0,0,0,.24.54c0,.1.12.12.23,0a2.51,2.51,0,0,0,.73-2.68,2.81,2.81,0,0,0-1.54-1.93,3.27,3.27,0,0,0-2-.13,2.79,2.79,0,0,0-1.16.53c-.05,0-.12.16-.1.2A2,2,0,0,0,23.82,8.78Zm-11.41.74a5.06,5.06,0,0,0,.48,2c.07.14.16.16.24,0s.25-.39.37-.59a.36.36,0,0,0,0-.46,1.44,1.44,0,0,1-.32-1.06,2,2,0,0,1,1.94-1.55,1.94,1.94,0,0,1,1.33.62c.07.08.15.16.29.1A1.89,1.89,0,0,0,17.54,8c.17-.2.17-.3-.05-.45a3.69,3.69,0,0,0-2.65-.76A2.75,2.75,0,0,0,12.41,9.52Z"/><path d="M2.81,2.83a2.58,2.58,0,0,1-.05-.46.67.67,0,0,1,.48-.61.76.76,0,0,1,.84.15,1.63,1.63,0,0,1,.44,1,5.48,5.48,0,0,1,0,.7c0,.32,0,.64,0,1-.61,0-1.24-.08-1.88-.14a1.61,1.61,0,0,1-.55-.21.77.77,0,0,1-.37-1,.72.72,0,0,1,1-.39Z"/><path d="M2.83,22.14a2.9,2.9,0,0,1-.48.05.67.67,0,0,1-.62-.52A.73.73,0,0,1,2,20.83a1.93,1.93,0,0,1,1.2-.4c.47,0,.94,0,1.46,0-.06.63-.1,1.32-.21,2a.9.9,0,0,1-.69.8.76.76,0,0,1-.94-.95S2.82,22.19,2.83,22.14Z"/><path d="M34.31,20.38c.59,0,1.17,0,1.75.1a2.08,2.08,0,0,1,.75.25.78.78,0,0,1,.35,1,.74.74,0,0,1-.93.41l-.14,0a1.18,1.18,0,0,0,0,.2.72.72,0,0,1-.34.82.81.81,0,0,1-1-.11,1.56,1.56,0,0,1-.43-1c0-.34,0-.68,0-1S34.32,20.6,34.31,20.38Z"/><path d="M34.28,4.54c.06-.65.1-1.32.21-2a1.41,1.41,0,0,1,.36-.65.79.79,0,0,1,1-.08.7.7,0,0,1,.32.8c0,.07,0,.13-.05.21l.2-.05a.74.74,0,0,1,.84.34.8.8,0,0,1-.12,1,1.63,1.63,0,0,1-1,.41,9.08,9.08,0,0,1-.91,0Z"/><path d="M12.13,5.68h-.55a6.19,6.19,0,0,0,0-2.06h.78a2.09,2.09,0,0,0,.08.36c.16.29.33.58.52.9.2-.36.4-.69.59-1,0-.06,0-.15,0-.24h.76a2.56,2.56,0,0,0-.06,1,2.76,2.76,0,0,0,.06,1h-.63a4.71,4.71,0,0,0,0-1.3l-.79,1.3-.73-1.28A6.17,6.17,0,0,0,12.13,5.68Z"/><path d="M25.3,5.66c0-.32-.23-.53-.4-.73s-.36-.09-.54-.13v.87h-.61a2.61,2.61,0,0,0,.06-.27V3.88a1.4,1.4,0,0,0-.06-.24c.56,0,1.14,0,1.72,0a.46.46,0,0,1,.5.49.51.51,0,0,1-.41.6l-.18.07.64.85Zm-1-1.21h.91c.13,0,.23-.07.23-.22S25.39,4,25.27,4h-.95Z"/><path d="M19.37,5.78a5.2,5.2,0,0,1-.78-.29.9.9,0,0,1-.45-.91,1,1,0,0,1,.62-.89,1.52,1.52,0,0,1,1.07-.06,1,1,0,0,1,.79,1.09,1,1,0,0,1-.84,1,1.67,1.67,0,0,1-.39.06Zm0-.43a.71.71,0,1,0,0-1.41.71.71,0,1,0,0,1.41Z"/><path d="M28.33,3.84l-.22.44A.73.73,0,0,0,27.56,4a3.18,3.18,0,0,0-.62,0c-.08,0-.14.14-.2.22a.62.62,0,0,0,.23.14c.28,0,.56,0,.84.1.44.07.67.38.57.75A.59.59,0,0,1,28,5.6a1.94,1.94,0,0,1-1.44,0l-.15-.05h-.13l.2-.47a1.34,1.34,0,0,0,1.29.23c.06,0,.15-.14.14-.18a.27.27,0,0,0-.19-.17c-.26,0-.52-.06-.79-.09s-.59-.22-.62-.52a.62.62,0,0,1,.49-.67,1.63,1.63,0,0,1,1.15.05Z"/><path d="M15.57,3.15h.84c0,.11,0,.22.05.29.14.23.3.44.47.68.18-.25.36-.49.52-.74,0,0,0-.15,0-.23h.84c-.34.45-.69.92-1,1.39a.37.37,0,0,0-.05.18c0,.23,0,.47,0,.7a2.33,2.33,0,0,0,.07.25H16.6c0-.15,0-.3,0-.45a1.33,1.33,0,0,0-.35-1.12C16,3.8,15.81,3.47,15.57,3.15Z"/><path d="M21,3.61h.62c0,.11-.05.22-.06.33v.89c0,.33.16.5.49.51a1.26,1.26,0,0,0,.39,0,.35.35,0,0,0,.3-.38c0-.37,0-.73,0-1.1a.65.65,0,0,0-.07-.21h.59a1.88,1.88,0,0,0-.05.33c0,.34,0,.68,0,1a.63.63,0,0,1-.53.71,2,2,0,0,1-1.15,0,.54.54,0,0,1-.44-.52c0-.4,0-.81,0-1.21A1.77,1.77,0,0,0,21,3.61Z"/><path d="M9.9,5.67H9.19a1.57,1.57,0,0,0,.05-.3q0-1,0-1.92a1.57,1.57,0,0,0-.05-.3h.69A8.86,8.86,0,0,0,9.9,5.67Z"/><path d="M29.48,4.74h-.35A10.57,10.57,0,0,0,29,3.15h.64A3.72,3.72,0,0,0,29.48,4.74Z"/><path d="M10.56,4.17l.32-.45c-.36-.07-.43-.13-.43-.35s.06-.29.21-.29a.43.43,0,0,1,.33.15.79.79,0,0,1-.32,1S10.59,4.18,10.56,4.17Z"/><path d="M29.59,5.41a.33.33,0,0,1-.31.31.32.32,0,1,1,0-.63A.33.33,0,0,1,29.59,5.41Z"/><path d="M15.79,13.46c0-.05,0-.1,0-.15.07-.4.32-.67.62-.67a.68.68,0,0,1,.61.67,1.34,1.34,0,0,1-.16.68A.51.51,0,0,1,16,14a3,3,0,0,1-.21-.52Z"/><path d="M24.48,13.13a1,1,0,0,1-.3.66.5.5,0,0,1-.73,0,1,1,0,0,1-.06-1.25.51.51,0,0,1,.86,0A2.45,2.45,0,0,1,24.48,13.13Z"/><path d="M20.69,15.09h.86c.06,0,.14,0,.16,0a7.16,7.16,0,0,1,.36.66c0,.05,0,.16-.09.22-.28.3-.57.6-.85.91a.43.43,0,0,0,.09.69l.07,0c.29.18.3.18.57,0s.25-.16.38,0a.19.19,0,0,1,0,.31l-.51.38a.23.23,0,0,1-.18,0c-.2-.11-.4-.22-.59-.34a.23.23,0,0,0-.32,0,6.33,6.33,0,0,1-.54.36.23.23,0,0,1-.2,0L19.29,18a.18.18,0,0,1,0-.3c.06-.07.19-.08.29-.1s.08.05.12.08.25.2.34.17a1.62,1.62,0,0,0,.46-.29c.1-.08.05-.48-.06-.58-.31-.29-.61-.59-.93-.86a.29.29,0,0,1-.09-.36s0,0,0,0c.18-.55.21-.58.79-.57h.51Z"/></g><g class="cls-3"><path d="M26.77,12.91c.12-.12.24-.28.38-.41a15.62,15.62,0,0,1,1.32-1.12,1.73,1.73,0,0,1,2.75,1.46,4.94,4.94,0,0,1-.5,2.28,15.31,15.31,0,0,1-5.22,6.17c-.11.08-.16.15-.13.28a.58.58,0,0,1,0,.19q0,.18,0,.39h-.26l-.07-.59a1.3,1.3,0,0,1-.19.11,3.86,3.86,0,0,1-.59.27.84.84,0,0,1-1.13-.59c-.19-.52-.39-1-.59-1.56a.31.31,0,0,0-.19-.18c-.47-.07-.94-.11-1.41-.16a.18.18,0,0,0-.1,0,6.63,6.63,0,0,1,1.24,2l-.32-.05-.2.22a.83.83,0,0,1-.2-.22,8.7,8.7,0,0,0-1.12-1.58c-.3-.32-.59-.32-.84.05s-.51.88-.76,1.32c-.09.14-.16.3-.25.44s-.33.2-.45,0-.06-.18-.09-.27h-.19a1,1,0,0,1,.26-.9c.2-.25.44-.46.68-.71H18.4l-1.48.07c-.27,0-.3-.07-.3-.33a4.57,4.57,0,0,0-.12-.74c0-.09,0-.17-.05-.27h.83v0l-1-.35c0,.13,0,.25.05.37A5.49,5.49,0,0,1,15.89,21c-.06.16-.14.32-.2.49a.86.86,0,0,1-.83.6c-.08,0-.16.07-.24.07s-.22.11-.25-.08c0,0-.06-.06-.09-.06a6,6,0,0,1-3.69-2.71A19.18,19.18,0,0,1,8,14.06a2.29,2.29,0,0,1,.69-2.48A2,2,0,0,1,11,11.22a4.09,4.09,0,0,1,1.28,1l.11.15.06,0c0-.26,0-.51,0-.77,0-.06-.06-.12-.09-.18a4.23,4.23,0,0,1-.43-3,2.9,2.9,0,0,1,2.47-2.1,3.53,3.53,0,0,1,2.7.64.55.55,0,0,0,.54.08,6.61,6.61,0,0,1,4.85.16.3.3,0,0,0,.24,0,3.63,3.63,0,0,1,3.14-.42,2.38,2.38,0,0,1,1.3,1,3.5,3.5,0,0,1,.7,2.09,2.93,2.93,0,0,1-1,2.07.5.5,0,0,0-.12.29C26.76,12.37,26.77,12.64,26.77,12.91Zm-3.72,4.77a4.22,4.22,0,0,0,2.05-1.36A6.59,6.59,0,0,0,26.5,12a.3.3,0,0,0-.1-.18,1.18,1.18,0,0,1-.39-.91,1,1,0,0,0-.24-.77,5.55,5.55,0,0,0-1.71-1.49.3.3,0,0,0-.33,0,.55.55,0,0,1-.38,0,2,2,0,0,1-1-1.3,6.53,6.53,0,0,0-4.82-.12c.06.31.06.41-.15.61a6.23,6.23,0,0,1-.78.57.69.69,0,0,1-.44.11c-.2,0-.28.06-.4.17-.5.52-1,1-1.53,1.52a1,1,0,0,1-.56.26.37.37,0,0,0-.3.23,3.52,3.52,0,0,1-.52.74.44.44,0,0,0-.18.36c0,.41,0,.83.09,1.24s.21.82.28,1.23.51.62.49,1.05c0,0,0,.05,0,.07A5.81,5.81,0,0,0,15,16.94a7.05,7.05,0,0,0,2.41,1.19c-.19-.23-.41-.45-.59-.71a2.54,2.54,0,0,1-.3-1.87,3,3,0,0,1,2.11-2.65,5.35,5.35,0,0,1,1.33-.2,3.76,3.76,0,0,1,2.88,1,2.86,2.86,0,0,1,.91,2.7A2.76,2.76,0,0,1,23.05,17.68ZM10.38,15.45a19.09,19.09,0,0,0,1.86,3.24.8.8,0,0,0,.22.23c.15.09.14.2,0,.37a2.57,2.57,0,0,1-.47-.46c-.46-.73-.92-1.46-1.34-2.22-.34-.6-.57-1.26-.92-1.85A6.13,6.13,0,0,1,8.66,12l-.16.19A1.91,1.91,0,0,0,8.22,14a19,19,0,0,0,2.83,5.48,6.34,6.34,0,0,0,2.11,1.88,3.72,3.72,0,0,0,1.72.46.52.52,0,0,0,.51-.32c.19-.51.39-1,.54-1.53A3.19,3.19,0,0,0,16,18.08a.56.56,0,0,0-.25-.3,6.07,6.07,0,0,1-1.81-1.45c-.26-.31-.48-.66-.72-1-.44.15-.89.31-1.35.45a.82.82,0,0,1-.41,0C11.09,15.71,10.74,15.57,10.38,15.45ZM20,12.94c-.34,0-.68.05-1,.12a3,3,0,0,0-2.29,3.6,2.28,2.28,0,0,0,1.71,1.65,6,6,0,0,0,2.39.1,3.25,3.25,0,0,0,1.74-.69,2.51,2.51,0,0,0,0-3.85A3.64,3.64,0,0,0,20,12.94Zm2.83,6.75c.21.57.4,1.12.61,1.66a.55.55,0,0,0,.72.35,2.61,2.61,0,0,0,.54-.24A14.93,14.93,0,0,0,30,15.93a6.72,6.72,0,0,0,.89-2.27,2.42,2.42,0,0,0-.14-1.57,2.4,2.4,0,0,0-.18-.26c0,.53,0,1.05,0,1.56a3,3,0,0,1-.87,1.92,1.1,1.1,0,0,0-.26.35,11.64,11.64,0,0,1-2.56,3.65c-.25.24-.53.45-.82.69l-.16-.24A7.87,7.87,0,0,0,27.73,18a12.1,12.1,0,0,0,1.34-2.19h-.13c-.45.05-.89.11-1.34.14a2.59,2.59,0,0,1-1.68-.28l-.07.11a4.89,4.89,0,0,1-3.13,2.34c-.2.05-.25.14-.17.34l.8-.06v.08a1.64,1.64,0,0,0,.07.85,1.33,1.33,0,0,1,0,.49Zm.61-11.25s.06-.11.09-.12a10.77,10.77,0,0,1,1.36-.24,1.49,1.49,0,0,1,1.69,1.18,4.15,4.15,0,0,1,.11.48,1,1,0,0,1-.36,1,.26.26,0,0,0-.1.23,4.25,4.25,0,0,0,.24.54c0,.1.12.12.23,0a2.51,2.51,0,0,0,.73-2.68A2.81,2.81,0,0,0,25.93,7a3.27,3.27,0,0,0-2-.13,2.79,2.79,0,0,0-1.16.53c-.05,0-.12.16-.1.2A2,2,0,0,0,23.48,8.44Zm-11.41.74a5.06,5.06,0,0,0,.48,2c.07.14.16.16.24,0s.25-.39.37-.59a.36.36,0,0,0,0-.46,1.44,1.44,0,0,1-.32-1.06,2,2,0,0,1,1.94-1.55,1.94,1.94,0,0,1,1.33.62c.07.08.15.16.29.1a1.89,1.89,0,0,0,.83-.56c.17-.2.17-.3-.05-.45a3.69,3.69,0,0,0-2.65-.76A2.75,2.75,0,0,0,12.07,9.18Z"/><path d="M2.47,2.49A2.58,2.58,0,0,1,2.42,2a.67.67,0,0,1,.48-.61.76.76,0,0,1,.84.15,1.61,1.61,0,0,1,.44,1,5.37,5.37,0,0,1,0,.7c0,.32,0,.64,0,1-.61,0-1.24-.08-1.88-.14a1.61,1.61,0,0,1-.55-.21.77.77,0,0,1-.37-1,.72.72,0,0,1,1-.39Z"/><path d="M2.49,21.8a2.9,2.9,0,0,1-.48.05.67.67,0,0,1-.62-.52.73.73,0,0,1,.24-.84,1.93,1.93,0,0,1,1.2-.4c.47,0,.94,0,1.46,0-.06.63-.1,1.32-.21,2a.9.9,0,0,1-.69.8.76.76,0,0,1-.94-.95S2.48,21.85,2.49,21.8Z"/><path d="M34,20c.59,0,1.17,0,1.75.1a2.08,2.08,0,0,1,.75.25.78.78,0,0,1,.35,1,.74.74,0,0,1-.93.41l-.14,0a1.18,1.18,0,0,0,0,.2.72.72,0,0,1-.34.82.83.83,0,0,1-1-.11,1.61,1.61,0,0,1-.42-1c0-.34,0-.68,0-1S34,20.26,34,20Z"/><path d="M33.94,4.2c.06-.65.1-1.33.21-2a1.41,1.41,0,0,1,.36-.65.79.79,0,0,1,1-.08.7.7,0,0,1,.32.8c0,.07,0,.13,0,.21l.2-.05a.74.74,0,0,1,.84.34.8.8,0,0,1-.12,1,1.63,1.63,0,0,1-1,.41,9.08,9.08,0,0,1-.91,0Z"/><path d="M11.79,5.34h-.55a6.19,6.19,0,0,0,0-2.06H12a2.09,2.09,0,0,0,.08.36c.16.29.33.58.52.9.2-.36.4-.69.59-1,0-.06,0-.15,0-.24H14a2.56,2.56,0,0,0-.06,1,2.76,2.76,0,0,0,.06,1h-.63a4.71,4.71,0,0,0,0-1.3l-.79,1.3-.73-1.28A6.17,6.17,0,0,0,11.79,5.34Z"/><path d="M25,5.32c0-.32-.23-.53-.4-.73S24.2,4.5,24,4.46v.87h-.61a2.61,2.61,0,0,0,.06-.27c0-.51,0-1,0-1.52a.85.85,0,0,0-.05-.24c.56,0,1.14,0,1.72,0a.47.47,0,0,1,.5.49.51.51,0,0,1-.41.6L25,4.47l.64.85ZM24,4.11h.91c.13,0,.23-.07.23-.22s-.07-.23-.19-.23c-.32,0-.63,0-.95,0Z"/><path d="M19,5.44a5.2,5.2,0,0,1-.78-.29.9.9,0,0,1-.45-.91,1,1,0,0,1,.62-.89,1.52,1.52,0,0,1,1.07-.06,1,1,0,0,1,.79,1.09,1,1,0,0,1-.84,1,1.76,1.76,0,0,1-.39.06ZM19,5a.71.71,0,1,0,0-1.41A.71.71,0,1,0,19,5Z"/><path d="M28,3.5l-.22.44a.7.7,0,0,0-.55-.31,3.18,3.18,0,0,0-.62,0c-.08,0-.14.14-.2.22a.62.62,0,0,0,.23.14c.28.05.56.05.84.1.44.07.67.38.57.75a.59.59,0,0,1-.39.39,1.94,1.94,0,0,1-1.44,0l-.15-.05h-.13l.2-.47a1.34,1.34,0,0,0,1.29.23c.06,0,.15-.14.13-.18a.24.24,0,0,0-.18-.17c-.26,0-.53-.06-.79-.09S26,4.28,26,4a.62.62,0,0,1,.49-.67,1.63,1.63,0,0,1,1.15,0Z"/><path d="M15.23,2.81h.84c0,.11,0,.22.05.29.14.23.3.44.47.68.18-.25.36-.49.52-.74,0,0,0-.15,0-.23h.84c-.34.45-.69.92-1,1.39a.37.37,0,0,0-.05.18c0,.23,0,.47,0,.7a2.33,2.33,0,0,0,.07.25h-.67c0-.15,0-.3,0-.45A1.33,1.33,0,0,0,16,3.76C15.69,3.46,15.47,3.13,15.23,2.81Z"/><path d="M20.66,3.27h.62c0,.11-.05.22-.06.33v.89c0,.33.16.5.49.51a1.26,1.26,0,0,0,.39,0,.35.35,0,0,0,.3-.38c0-.37,0-.73,0-1.1a.65.65,0,0,0-.07-.21h.59a1.88,1.88,0,0,0-.05.33c0,.34,0,.68,0,1a.63.63,0,0,1-.53.71,2,2,0,0,1-1.15,0,.54.54,0,0,1-.44-.52c0-.4,0-.81,0-1.21A1.77,1.77,0,0,0,20.66,3.27Z"/><path d="M9.56,5.33H8.85A1.57,1.57,0,0,0,8.9,5q0-1,0-1.92a1.57,1.57,0,0,0-.05-.3h.69A8.86,8.86,0,0,0,9.56,5.33Z"/><path d="M29.14,4.4h-.35a10.57,10.57,0,0,0-.15-1.59h.64A3.72,3.72,0,0,0,29.14,4.4Z"/><path d="M10.22,3.83l.32-.45c-.36-.07-.43-.13-.43-.35s.06-.29.2-.29a.43.43,0,0,1,.34.15.79.79,0,0,1-.32,1S10.25,3.84,10.22,3.83Z"/><path d="M29.25,5.07a.33.33,0,0,1-.31.31.32.32,0,1,1,0-.63A.33.33,0,0,1,29.25,5.07Z"/><path d="M15.45,13.12s0-.1,0-.15c.07-.4.32-.67.62-.67a.68.68,0,0,1,.61.67,1.34,1.34,0,0,1-.16.68.51.51,0,0,1-.91,0,3,3,0,0,1-.21-.52Z"/><path d="M24.14,12.79a1,1,0,0,1-.3.66.5.5,0,0,1-.73,0,1,1,0,0,1-.06-1.25.51.51,0,0,1,.86,0A2.45,2.45,0,0,1,24.14,12.79Z"/><path d="M20.35,14.75h.86c.06,0,.14,0,.16,0a6.06,6.06,0,0,1,.36.66c0,.05,0,.16-.09.22-.28.3-.57.6-.85.91a.43.43,0,0,0,.09.69l.07,0c.29.18.3.18.57,0s.25-.16.38,0a.19.19,0,0,1,0,.31l-.51.38a.23.23,0,0,1-.18,0c-.2-.11-.4-.22-.59-.34a.23.23,0,0,0-.32,0,6.33,6.33,0,0,1-.54.36.23.23,0,0,1-.2,0L19,17.61a.18.18,0,0,1,0-.3c.06-.07.19-.08.29-.1s.08.05.12.08.25.2.34.17a1.62,1.62,0,0,0,.46-.29c.1-.08.05-.48-.06-.58-.31-.29-.61-.59-.93-.86a.29.29,0,0,1-.09-.36v0c.18-.55.21-.58.79-.57h.51Z"/></g><path class="cls-4" d="M27,13.11c.12-.12.24-.28.38-.41a15.62,15.62,0,0,1,1.32-1.12A1.73,1.73,0,0,1,31.42,13a4.92,4.92,0,0,1-.5,2.27,15.29,15.29,0,0,1-5.23,6.18.25.25,0,0,0-.12.28,1.08,1.08,0,0,1,0,.19l0,.38h-.26l-.07-.58-.19.11a3.86,3.86,0,0,1-.59.27.84.84,0,0,1-1.13-.59C23.2,21,23,20.5,22.8,20a.35.35,0,0,0-.19-.19c-.47-.06-.94-.1-1.41-.15a.18.18,0,0,0-.1,0,6.63,6.63,0,0,1,1.24,2L22,21.59l-.2.22a.83.83,0,0,1-.2-.22A8.29,8.29,0,0,0,20.49,20c-.29-.32-.58-.32-.83,0s-.51.88-.76,1.32c-.09.14-.16.3-.25.44s-.34.2-.45,0a2,2,0,0,1-.09-.26h-.19a1,1,0,0,1,.26-.91c.2-.24.44-.46.68-.71l-.26,0L17.12,20c-.27,0-.3-.06-.3-.32a6.5,6.5,0,0,0-.12-.75c0-.08,0-.16-.05-.26h.83v0l-1-.35c0,.13,0,.25.05.37a5.65,5.65,0,0,1-.45,2.56c-.06.16-.14.32-.2.48a.87.87,0,0,1-.83.61c-.08,0-.16.07-.24.07s-.22.11-.25-.08c0,0-.06-.06-.09-.06a6,6,0,0,1-3.69-2.71,19.09,19.09,0,0,1-2.63-5.24,2.26,2.26,0,0,1,.69-2.47,2,2,0,0,1,2.35-.36,4.09,4.09,0,0,1,1.28,1l.11.15.05,0c0-.26,0-.52,0-.77,0-.07-.06-.12-.09-.19a4.2,4.2,0,0,1-.43-3,2.89,2.89,0,0,1,2.46-2.1,3.55,3.55,0,0,1,2.71.64.55.55,0,0,0,.54.07,6.66,6.66,0,0,1,4.85.17.36.36,0,0,0,.24-.05,3.67,3.67,0,0,1,3.14-.41,2.33,2.33,0,0,1,1.3,1,3.57,3.57,0,0,1,.7,2.09,2.93,2.93,0,0,1-1,2.07.44.44,0,0,0-.12.28C27,12.57,27,12.84,27,13.11Zm-3.72,4.77a4.29,4.29,0,0,0,2.05-1.36,6.64,6.64,0,0,0,1.4-4.29.39.39,0,0,0-.1-.19,1.15,1.15,0,0,1-.39-.9,1,1,0,0,0-.24-.77,5.47,5.47,0,0,0-1.72-1.49.29.29,0,0,0-.32,0,.58.58,0,0,1-.39,0,2,2,0,0,1-1-1.3,6.53,6.53,0,0,0-4.82-.12c.06.31.06.4-.15.6a5.37,5.37,0,0,1-.78.57.67.67,0,0,1-.44.12c-.2-.05-.28,0-.4.17-.5.52-1,1-1.53,1.52a1.21,1.21,0,0,1-.56.26.37.37,0,0,0-.3.23,3.52,3.52,0,0,1-.52.74.44.44,0,0,0-.18.36c0,.41,0,.83.09,1.24s.21.82.28,1.23.51.62.49,1c0,0,0,0,0,.07a5.81,5.81,0,0,0,1.35,1.53,7,7,0,0,0,2.41,1.19c-.19-.24-.42-.46-.59-.71a2.55,2.55,0,0,1-.3-1.87,2.94,2.94,0,0,1,2.11-2.65,5.35,5.35,0,0,1,1.33-.2,3.75,3.75,0,0,1,2.88,1,2.88,2.88,0,0,1,.91,2.71A2.76,2.76,0,0,1,23.25,17.88ZM10.58,15.64a18.8,18.8,0,0,0,1.86,3.25.77.77,0,0,0,.22.22c.15.1.14.2,0,.38a2.57,2.57,0,0,1-.47-.46c-.46-.73-.92-1.47-1.34-2.22-.34-.6-.57-1.27-.93-1.85a6.27,6.27,0,0,1-1.08-2.79c-.06.08-.12.13-.16.19a1.9,1.9,0,0,0-.28,1.81,19,19,0,0,0,2.83,5.48,6.45,6.45,0,0,0,2.11,1.88,3.59,3.59,0,0,0,1.72.45.5.5,0,0,0,.51-.31c.19-.51.39-1,.54-1.53a3.19,3.19,0,0,0,.06-1.86.57.57,0,0,0-.25-.3,6.07,6.07,0,0,1-1.81-1.45c-.26-.31-.48-.66-.72-1-.44.15-.89.31-1.35.45a.82.82,0,0,1-.41,0C11.29,15.91,10.94,15.77,10.58,15.64Zm9.65-2.51c-.33,0-.67.06-1,.12a3,3,0,0,0-2.29,3.61,2.25,2.25,0,0,0,1.71,1.64,5.84,5.84,0,0,0,2.39.1,3.1,3.1,0,0,0,1.74-.69,2.5,2.5,0,0,0,0-3.84A3.7,3.7,0,0,0,20.23,13.13Zm2.84,6.75c.21.58.4,1.13.61,1.66a.55.55,0,0,0,.72.36,2.87,2.87,0,0,0,.54-.24,14.93,14.93,0,0,0,5.26-5.53,6.94,6.94,0,0,0,.89-2.27A2.48,2.48,0,0,0,31,12.29a1.7,1.7,0,0,0-.18-.26c0,.53,0,1.05,0,1.56a3,3,0,0,1-.87,1.92,1.1,1.1,0,0,0-.26.35,11.64,11.64,0,0,1-2.56,3.65c-.25.24-.53.45-.82.69L26.09,20a7.87,7.87,0,0,0,1.84-1.8A12.46,12.46,0,0,0,29.27,16h-.13c-.45,0-.89.11-1.34.14a2.59,2.59,0,0,1-1.68-.28l-.07.1a4.9,4.9,0,0,1-3.13,2.35c-.21,0-.25.14-.17.34l.8-.06v.08a1.64,1.64,0,0,0,.07.85,1.33,1.33,0,0,1,0,.49Zm.61-11.24c0-.06.05-.11.08-.12a9.36,9.36,0,0,1,1.37-.24,1.49,1.49,0,0,1,1.69,1.18,4.52,4.52,0,0,1,.11.47A1,1,0,0,1,26.56,11a.28.28,0,0,0-.09.23,3.59,3.59,0,0,0,.24.53c.05.11.12.13.23,0a2.51,2.51,0,0,0,.73-2.68,2.8,2.8,0,0,0-1.55-1.93,3.24,3.24,0,0,0-2-.13A2.73,2.73,0,0,0,23,7.57c-.06,0-.12.16-.1.19A2,2,0,0,0,23.68,8.64Zm-11.41.74a5,5,0,0,0,.47,2c.08.15.17.16.25,0s.25-.39.37-.59a.36.36,0,0,0,0-.46A1.44,1.44,0,0,1,13,9.28,2,2,0,0,1,15,7.73a1.9,1.9,0,0,1,1.32.62c.08.08.16.16.29.1a2.07,2.07,0,0,0,.84-.56c.17-.2.16-.3,0-.45a3.65,3.65,0,0,0-2.65-.76A2.74,2.74,0,0,0,12.27,9.38Z"/><path class="cls-4" d="M2.67,2.69a2.68,2.68,0,0,1,0-.46.65.65,0,0,1,.48-.61.77.77,0,0,1,.84.15,1.66,1.66,0,0,1,.44,1,5.37,5.37,0,0,1,0,.7c0,.32,0,.64,0,1-.61,0-1.25-.08-1.88-.15A1.59,1.59,0,0,1,2,4.1a.79.79,0,0,1-.38-1,.75.75,0,0,1,1-.4Z"/><path class="cls-4" d="M2.69,22a2.9,2.9,0,0,1-.48.05.69.69,0,0,1-.63-.53.76.76,0,0,1,.24-.84A2,2,0,0,1,3,20.29c.47,0,.94,0,1.46,0-.06.63-.1,1.32-.21,2a.89.89,0,0,1-.69.8.75.75,0,0,1-.94-.94A.74.74,0,0,1,2.69,22Z"/><path class="cls-4" d="M34.17,20.23c.59,0,1.17,0,1.74.1a2.36,2.36,0,0,1,.76.26.78.78,0,0,1,.35,1,.74.74,0,0,1-.93.41L35.94,22c0,.08,0,.15.05.21a.72.72,0,0,1-.34.82.83.83,0,0,1-1-.11,1.63,1.63,0,0,1-.42-1c0-.33,0-.67,0-1S34.18,20.46,34.17,20.23Z"/><path class="cls-4" d="M34.14,4.4c.06-.65.1-1.33.2-2a1.53,1.53,0,0,1,.37-.65.79.79,0,0,1,1-.08.71.71,0,0,1,.32.8c0,.06,0,.12-.05.21l.2,0A.74.74,0,0,1,37,3a.8.8,0,0,1-.12,1,1.72,1.72,0,0,1-1,.41c-.3,0-.61,0-.91.05Z"/><path class="cls-4" d="M12,5.53h-.56a6.13,6.13,0,0,0,0-2.05h.78a1.28,1.28,0,0,0,.08.35c.16.3.33.59.51.91.21-.36.41-.69.6-1,0-.06,0-.15,0-.24h.75a2.7,2.7,0,0,0-.05,1,2.8,2.8,0,0,0,.05,1h-.62a4.71,4.71,0,0,0,0-1.3l-.79,1.3L12,4.25A6.09,6.09,0,0,0,12,5.53Z"/><path class="cls-4" d="M25.16,5.52c0-.33-.23-.53-.41-.73s-.36-.09-.54-.13v.87h-.6a1.28,1.28,0,0,0,.05-.27q0-.76,0-1.53a.86.86,0,0,0-.05-.23c.56,0,1.14,0,1.72,0a.48.48,0,0,1,.5.5.52.52,0,0,1-.41.6l-.18.07.64.85Zm-1-1.21c.32,0,.62,0,.91,0,.13,0,.23-.07.23-.23s-.07-.22-.2-.22h-.94Z"/><path class="cls-4" d="M19.23,5.64a6.58,6.58,0,0,1-.78-.29A.91.91,0,0,1,18,4.43a1,1,0,0,1,.62-.88,1.52,1.52,0,0,1,1.07-.06,1,1,0,0,1,.79,1.08,1,1,0,0,1-.84,1l-.39.06Zm0-.44A.68.68,0,0,0,20,4.51a.68.68,0,0,0-.72-.71.71.71,0,0,0-.75.7A.7.7,0,0,0,19.23,5.2Z"/><path class="cls-4" d="M28.19,3.7,28,4.14a.67.67,0,0,0-.54-.31,2.22,2.22,0,0,0-.63,0c-.07,0-.13.14-.19.21a.54.54,0,0,0,.23.15c.28,0,.56,0,.84.1.44.07.67.38.56.75a.55.55,0,0,1-.38.39,1.94,1.94,0,0,1-1.44,0l-.16-.06h-.12l.19-.47a1.39,1.39,0,0,0,1.3.22c.06,0,.15-.13.13-.18a.26.26,0,0,0-.18-.16c-.26,0-.53-.06-.79-.09s-.59-.22-.62-.52a.62.62,0,0,1,.49-.68,1.63,1.63,0,0,1,1.15.06Z"/><path class="cls-4" d="M15.43,3h.84c0,.11,0,.22.05.29.14.22.3.44.47.68.18-.26.36-.49.52-.74,0-.05,0-.15,0-.23h.84c-.34.45-.69.92-1,1.39a.29.29,0,0,0-.05.18c0,.23,0,.47,0,.7a2.33,2.33,0,0,0,.07.25h-.67c0-.15,0-.3,0-.45A1.33,1.33,0,0,0,16.15,4C15.89,3.66,15.67,3.33,15.43,3Z"/><path class="cls-4" d="M20.86,3.47h.62a1.91,1.91,0,0,0-.06.33c0,.3,0,.59,0,.89a.45.45,0,0,0,.49.51,1.26,1.26,0,0,0,.39,0,.35.35,0,0,0,.3-.38V3.68a.58.58,0,0,0-.07-.21h.59a1.88,1.88,0,0,0-.05.33c0,.34,0,.67,0,1a.64.64,0,0,1-.53.71,2,2,0,0,1-1.15,0A.55.55,0,0,1,20.94,5c0-.4,0-.8,0-1.2A1.77,1.77,0,0,0,20.86,3.47Z"/><path class="cls-4" d="M9.76,5.53H9.05a1.57,1.57,0,0,0,0-.3V3.31a1.57,1.57,0,0,0,0-.3h.69A8.86,8.86,0,0,0,9.76,5.53Z"/><path class="cls-4" d="M29.34,4.6H29A10.57,10.57,0,0,0,28.84,3h.64A3.72,3.72,0,0,0,29.34,4.6Z"/><path class="cls-4" d="M10.41,4l.33-.44c-.36-.07-.43-.13-.43-.35s0-.29.2-.3a.46.46,0,0,1,.33.16.77.77,0,0,1-.31,1S10.45,4,10.41,4Z"/><path class="cls-4" d="M29.45,5.27a.33.33,0,0,1-.31.31.32.32,0,0,1,0-.63A.33.33,0,0,1,29.45,5.27Z"/><path class="cls-4" d="M15.65,13.31s0-.09,0-.14c.07-.4.32-.67.62-.67a.66.66,0,0,1,.6.67,1.26,1.26,0,0,1-.15.68.51.51,0,0,1-.91,0,3.33,3.33,0,0,1-.21-.52Z"/><path class="cls-4" d="M24.34,13a1.12,1.12,0,0,1-.3.67.5.5,0,0,1-.73,0,1,1,0,0,1-.06-1.25.52.52,0,0,1,.86,0A2.91,2.91,0,0,1,24.34,13Z"/><path class="cls-4" d="M20.54,14.94h.87c.05,0,.14,0,.15,0a4.28,4.28,0,0,1,.37.66s0,.16-.09.21c-.28.31-.57.61-.86.92a.43.43,0,0,0,.1.68l.07.05c.29.18.29.18.57,0s.25-.16.38,0a.19.19,0,0,1,0,.31l-.51.38a.31.31,0,0,1-.19,0l-.58-.34a.23.23,0,0,0-.32,0,5.21,5.21,0,0,1-.55.36.23.23,0,0,1-.2,0c-.2-.12-.39-.25-.58-.38a.19.19,0,0,1,0-.31.53.53,0,0,1,.29-.09s.08.05.12.07.25.2.34.18a1.57,1.57,0,0,0,.45-.29c.1-.08.06-.48,0-.59l-.93-.86a.29.29,0,0,1-.1-.35s0,0,0,0c.18-.56.21-.58.79-.58.17,0,.33,0,.5,0Z"/></g></g></svg>