<svg xmlns="http://www.w3.org/2000/svg" viewBox="0 0 38.55 24.66"><defs><style>.cls-1{isolation:isolate;}.cls-2{opacity:0.15;}.cls-2,.cls-3{mix-blend-mode:multiply;}.cls-4{fill:#fff;}</style></defs><title>convert-FIX-SVG-03</title><g class="cls-1"><g id="Layer_1" data-name="Layer 1"><g class="cls-2"><path d="M9.78,9.2a6.72,6.72,0,0,1,1.63-2.32,7.05,7.05,0,0,1,4.31-1.94A7.59,7.59,0,0,1,22,7.45a6.45,6.45,0,0,1,1.82,3.28,5.28,5.28,0,0,1-.94,4.33,22.48,22.48,0,0,1-4.3,4.36c-1.16.92-2.33,1.82-3.48,2.77-.44.36-.8.82-1.21,1.23a.36.36,0,0,1-.22.11h-2.8a.42.42,0,0,1-.24-.09,32.55,32.55,0,0,0-9.24-5.79.35.35,0,0,1-.26-.38c0-3.21,0-6.41,0-9.62a.35.35,0,0,1,.24-.36A5,5,0,0,1,3,6.9a8.55,8.55,0,0,1,5.1,1A6.4,6.4,0,0,1,9.78,9.2Zm-4,2.3a2.68,2.68,0,0,1,.38.37c.37.51.72,1,1.08,1.54.09.14.19.27,0,.43l0,0,.94-.2c-.06-.13-.16-.24-.15-.34.07-.49.17-1,.26-1.5a1.53,1.53,0,0,1,.14.17l.71,1c.09.14.16.26,0,.44l1-.22a.3.3,0,0,1-.18-.42s0-.08,0-.13a10,10,0,0,1,.49-2.19l-1,.21c.07.12.18.22.17.31,0,.43-.13.86-.21,1.33-.23-.33-.43-.63-.64-.92s-.29-.32,0-.58l-1.25.26,0,.06c.22.05.25.18.2.36a1.64,1.64,0,0,0,0,.32c-.06.28-.11.57-.17.9l-.71-1c-.11-.14-.21-.28-.05-.47Zm7.22,4a2.27,2.27,0,0,1,.18.4c.14.52.25,1,.37,1.58,0,.19.16.38,0,.57.61-.11,1.19-.21,1.76-.35a2.64,2.64,0,0,0,.74-.28.59.59,0,0,0,.28-.64.63.63,0,0,0-.46-.57l-.06,0a1.81,1.81,0,0,0,.16-.54c0-.4-.38-.64-.84-.58-.28,0-.56.1-.83.16ZM9.07,17.59a1.73,1.73,0,0,0,.16-.54c0-.42-.39-.66-.88-.57s-1,.2-1.51.3l-.53.12a2.48,2.48,0,0,1,.18.43c.13.53.25,1.07.36,1.61a2.78,2.78,0,0,1,0,.51l.74-.15c.48-.11,1-.2,1.42-.34a.7.7,0,0,0,.55-.69A.67.67,0,0,0,9.07,17.59Zm5.47-5.26h.08c.71-.14,1.41-.3,2.13-.43a2.81,2.81,0,0,1,.51,0l-.16-.68-.39.18a2.27,2.27,0,0,1-.25.06l-1.28.26-.13-.6c.28-.06.53-.12.77-.15a4.13,4.13,0,0,1,.5,0l-.15-.68c-.36.33-.82.25-1.23.4l-.12-.56c.48-.1.95-.21,1.42-.29a2.41,2.41,0,0,1,.47,0l-.16-.69a.85.85,0,0,1-.29.18l-1.44.31-.88.19c.07.11.17.2.19.3.15.61.29,1.23.42,1.85A1.3,1.3,0,0,1,14.54,12.33ZM14,11.79c-.1.08-.16.18-.23.2L12,12.34l-.12-.6c.27-.06.53-.12.78-.16a4,4,0,0,1,.49,0L13,10.91c-.37.3-.82.24-1.22.38l-.13-.55c.45-.1.89-.2,1.33-.28a3.43,3.43,0,0,1,.56,0l-.15-.65a2,2,0,0,1-.37.17c-.66.15-1.33.28-2,.42l-.22.06a2.52,2.52,0,0,1,.18.38c.14.57.26,1.14.4,1.7,0,.16.09.31-.09.46h.15c.48-.1.95-.22,1.43-.29s.79-.29,1.23-.12Zm-8.5.66.18-.65H5.32c-.14,0-.29-.06-.43-.07a1.85,1.85,0,0,0-1.51.46.72.72,0,0,0,.33,1.22,1.87,1.87,0,0,0,.53,0l.84-.09c.13,0,.3,0,.34.16s-.08.24-.2.3A1.94,1.94,0,0,1,4.06,14a2.29,2.29,0,0,1-.44-.15l-.12.63.31,0a6.44,6.44,0,0,0,.76,0A1.88,1.88,0,0,0,5.86,14a.7.7,0,0,0-.3-1.18,1.42,1.42,0,0,0-.5,0c-.36,0-.72.07-1.07.09-.08,0-.22-.07-.22-.1s0-.23.1-.27a1.57,1.57,0,0,1,.5-.21A1.22,1.22,0,0,1,5.46,12.45Zm5,3.58a.36.36,0,0,1,.14.48c0,.15-.07.31-.12.45a10.62,10.62,0,0,1-.58,1.87l1-.2.06-.07c-.27,0-.25-.15-.22-.3s.06-.31.29-.34a3.55,3.55,0,0,0,.8-.16c.26-.08.34.11.43.24s0,.21,0,.34l1-.21c-.17-.16-.34-.3-.48-.46-.4-.43-.79-.88-1.18-1.32-.13-.15-.3-.29,0-.55Zm6.67-1.37-.06,0-1.21.25c.21.14.39.25.56.38s.34.31.54.44a1.21,1.21,0,0,1,.56.94c0,.19.15.37-.08.59l.93-.2a4.07,4.07,0,0,1-.17-.38,3.39,3.39,0,0,1-.13-.55.58.58,0,0,1,0-.32A6.2,6.2,0,0,1,19,14.24l-1.18.25,0,.06c.28.06.21.21.14.37l-.25.56-.47-.39C17,15,16.85,14.86,17.14,14.66Zm2.62-5.4-.16-.72a3.37,3.37,0,0,1-.42.17l-1.85.38a2.22,2.22,0,0,1-.45,0l.16.71c.28-.33.67-.24,1-.36.13.56.26,1.08.37,1.61a2.78,2.78,0,0,1,0,.5l.86-.18a1.21,1.21,0,0,1-.18-.36c-.1-.36-.17-.72-.26-1.09,0-.2-.09-.4-.14-.63C19.06,9.31,19.37,9,19.76,9.26Z"/><path d="M25.39,10.69a7.48,7.48,0,0,1-.22,2.51,9.05,9.05,0,0,1-1.7,3.14,25.19,25.19,0,0,1-5.72,5.28c-.85.59-1.68,1.24-2.54,1.83a1.89,1.89,0,0,1-.66.12l0-.07.23-.25a21.23,21.23,0,0,1,2.57-2.17,35.22,35.22,0,0,0,4.39-3.79,13.92,13.92,0,0,0,1.89-2.38,5.7,5.7,0,0,0,.23-5.74,8.23,8.23,0,0,0-6.37-4.71,7.48,7.48,0,0,0-7.24,2.9l-.09.12,0,0s0,0,0-.06a8,8,0,0,1,3.44-3.62,6.38,6.38,0,0,1,3.84-.64,9.57,9.57,0,0,1,5.8,2.87c.25.26.47.54.71.81.86-.31.95-.31,2.45.2,0-.28.06-.57.07-.85A.34.34,0,0,0,26.28,6a1.88,1.88,0,0,1-.52-1.71,1.39,1.39,0,0,1,1.86-1.13,1.38,1.38,0,0,0,1-.08,5.16,5.16,0,0,1,1.66-.39.85.85,0,0,0,.41-.15A2.53,2.53,0,0,1,32.24,2a2.18,2.18,0,0,1,2,2.62s0,.15,0,.18a3.47,3.47,0,0,1,1.09,2.16,7.36,7.36,0,0,1,0,2.92,3.22,3.22,0,0,1-.68,1.37.45.45,0,0,0-.06.28c0,.24.07.48.1.72a1.78,1.78,0,0,1,0,.29l-.22-.09-.1-.88-.2.13a.65.65,0,0,1-.89,0,2.57,2.57,0,0,1-.55-.63,6.39,6.39,0,0,1-.76-1.85s0-.09-.05-.15l-.43.13,0,0c.09.55,0,.62-.5.73a2.42,2.42,0,0,1-.6.09,1.76,1.76,0,0,1-.44-.11c.21.18.4.32.58.48a1.75,1.75,0,0,1,.62.95.29.29,0,0,1-.06.22,6.75,6.75,0,0,1-.54.52A8,8,0,0,0,29.74,10c-.32.05-.36.28-.34.51,0,.58.09,1.15.14,1.73a1.48,1.48,0,0,0,0,.26l-.8-.3c.08.5.14,1,.24,1.48a4.51,4.51,0,0,0,.68,1.65,2.38,2.38,0,0,0,2.5,1A16.73,16.73,0,0,0,33.88,16v-.07l-.19-.19a1.92,1.92,0,0,1-.59-2.13,2.84,2.84,0,0,1,.13-.38.93.93,0,0,1,1.19-.64,3,3,0,0,1,.57.2c.69.33,1.38.69,2.07,1,.16.08.23.17.16.36l-.17-.06c-.72-.36-1.43-.73-2.16-1.07a2.76,2.76,0,0,0-.76-.21.51.51,0,0,0-.54.27,2.27,2.27,0,0,0-.28,1.55A2.1,2.1,0,0,0,35,16.08c.24,0,.49.07.73.12a.78.78,0,0,1,.64.72c0,.28,0,.56.09.84a.37.37,0,0,1-.22.42.65.65,0,0,1,0-.18c0-.32-.05-.64-.08-1a.63.63,0,0,0-.71-.61A2.1,2.1,0,0,0,37,18.62c.23,0,.23,0,.19.31a3.63,3.63,0,0,1-.57-.13,2.39,2.39,0,0,1-1.5-2,1.23,1.23,0,0,1,0-.27c0-.2-.08-.25-.26-.22,0,.27-.08.54-.15.8A2.59,2.59,0,0,1,34,18.42a1.25,1.25,0,0,1-1.38.21,1.9,1.9,0,0,1-1.07-.86c-.2-.32-.35-.68-.53-1a.32.32,0,0,0-.16-.18,2.84,2.84,0,0,1-1.61-1.43,6.31,6.31,0,0,1-.67-2.29c0-.23,0-.52-.09-.68s-.41-.13-.62-.2a12.14,12.14,0,0,1-2.28-1.14Zm7.74-6.06a1.39,1.39,0,0,0-.28-.35C32.41,4,32,3.75,31.52,3.5a.77.77,0,0,0-.26-.07A1.06,1.06,0,0,1,30.41,3a.23.23,0,0,0-.16,0A4.84,4.84,0,0,0,28,3.7a1.79,1.79,0,0,0-.54.52,7.62,7.62,0,0,0-.63,1.36,3.37,3.37,0,0,0-.06,2.26,4.86,4.86,0,0,0,.35.68l0,0L27,8a6,6,0,0,1-.13-1.69A.24.24,0,0,1,27,6.14c.05,0,.13.06.21.09a2.53,2.53,0,0,1,1.65-.73A2,2,0,0,1,31,7.82,1.43,1.43,0,0,1,29.86,9.2l-1.2.22s-.09,0-.1,0c0,.17-.16.09-.25.06a2.8,2.8,0,0,1-1.53-1,1.87,1.87,0,0,1-1.57,1.2,4.8,4.8,0,0,0,.1.47.57.57,0,0,0,.17.27c.74.41,1.48.81,2.24,1.19a4.5,4.5,0,0,0,.76.24l.08-1.42c-.22,0-.44,0-.66.08s-.19,0-.2-.16-.05-.41-.08-.62l1.25-.18c.15,0,.28-.1.43-.13a9.38,9.38,0,0,0,1.06-.18c.36-.1.7-.29,1.06-.43.13-.06.27-.09.41-.14A4.51,4.51,0,0,1,33.13,4.63ZM32.06,8a1.18,1.18,0,0,0,0,.19,5.89,5.89,0,0,0,1,2.92,1.57,1.57,0,0,0,.34.34.43.43,0,0,0,.56,0,2.49,2.49,0,0,0,1-1.52,6.58,6.58,0,0,0-.24-4,2.3,2.3,0,0,0-.83-1.09,2.36,2.36,0,0,0-.23-.13,1.75,1.75,0,0,0,0,.23c0,.78,0,1.56,0,2.35a.72.72,0,0,1-.51.74A1.19,1.19,0,0,1,32.06,8Zm-4.6.42a1.31,1.31,0,0,0,1.33.73c.36-.06.72-.14,1.07-.21a.93.93,0,0,0,.63-.44,1.89,1.89,0,0,0-.18-2.15,1.93,1.93,0,0,0-2.18-.4,1.31,1.31,0,0,0-1,1.66,1.61,1.61,0,0,0,.3.78l.09-.33.57.18a.9.9,0,0,0-.23-.6c-.14-.13-.29-.24-.43-.38a.23.23,0,0,1,0-.2.52.52,0,0,1,.49-.44,1.11,1.11,0,0,0,.26-.07c.42-.11.41-.11.66.21a.18.18,0,0,1,0,.26,5.22,5.22,0,0,0-.38.54.33.33,0,0,0,0,.22c0,.28.29.32.5.38.06,0,.18-.12.27-.19l.12-.11.34.22c-.15.17-.28.31-.39.46a.17.17,0,0,1-.25.06l-.54-.2-.16.36Zm3.86,8.25a2.41,2.41,0,0,0,1.42,1.72l-.51-1.54.23-.15.31.95c0,.13.09.26.13.4s.36.26.55.39.25-.1.36-.2a2.54,2.54,0,0,0,.75-1.7c0-.09,0-.26-.05-.27s-.3-.22-.51-.13A5.27,5.27,0,0,1,31.32,16.66ZM33.93,4.53a1.74,1.74,0,0,0-1-2.08A1.85,1.85,0,0,0,30.65,3l.56.17a.16.16,0,0,0,.14-.05,1.2,1.2,0,0,1,.89-.3.77.77,0,0,1,.87.61,4,4,0,0,1,.09.69c0,.3.12.41.42.4Zm-6.15-1a1.22,1.22,0,0,0-1.56.38,1.47,1.47,0,0,0,.27,1.89.49.49,0,0,0,0-.21,2.65,2.65,0,0,1-.26-.5.83.83,0,0,1,.58-1.14c.14,0,.28,0,.42,0s.13,0,.16,0S27.63,3.64,27.78,3.51Zm1,7.4.3-.59C28.78,10.38,28.88,10.28,28.8,10.91Z"/><path d="M23.56,22.94a.76.76,0,0,0-.78-.52A6.47,6.47,0,0,1,21,22.13a1.43,1.43,0,0,1-.5-2.45,1.19,1.19,0,0,1,1.35-.24l.33.17,0-.09a1.31,1.31,0,0,1,1.31-1,1.43,1.43,0,0,1,1.31,1.13,1,1,0,0,1-.24.79,5.62,5.62,0,0,0-1,2.06C23.62,22.61,23.6,22.75,23.56,22.94Z"/><path d="M9.54,2.18a1,1,0,0,1,.87-.87,1,1,0,0,1,1,.51.72.72,0,0,1,0,.89,4.6,4.6,0,0,0-.89,2c-.19-.39-.53-.36-.84-.41A8.53,8.53,0,0,1,8.5,4.08a1,1,0,0,1-.67-1A1.21,1.21,0,0,1,8.54,2a1,1,0,0,1,.76,0A1.79,1.79,0,0,1,9.54,2.18Z"/><path d="M33.87,23.22c-.16-.37-.47-.37-.76-.41a9.72,9.72,0,0,1-1.22-.22,1,1,0,0,1-.75-.88,1.16,1.16,0,0,1,.53-1.14.85.85,0,0,1,.77-.1,4,4,0,0,1,.39.16.93.93,0,0,1,0-.13,1,1,0,0,1,1.1-.73,1.06,1.06,0,0,1,.92,1,.77.77,0,0,1-.12.37A4.74,4.74,0,0,0,33.87,23.22Z"/><path d="M1.11,18.13a32.51,32.51,0,0,1,8.75,5.4A1.27,1.27,0,0,1,9,23.36a34.64,34.64,0,0,0-7.64-4.14c-.2-.09-.28-.19-.26-.4S1.11,18.38,1.11,18.13Z"/><path d="M1.11,6.74c0-.23,0-.48,0-.72,0-.06.09-.14.15-.15A17.36,17.36,0,0,1,3,5.55,8.22,8.22,0,0,1,6.76,6,6.64,6.64,0,0,1,9.58,8c.12.14.12.14,0,.29A9.3,9.3,0,0,0,1.11,6.74Z"/><path d="M26,17.86a.5.5,0,0,0-.17-.56,8.87,8.87,0,0,1-.72-.78.81.81,0,0,1-.09-.95,1,1,0,0,1,.91-.51c.4,0,.6.27.74.62a.94.94,0,0,1,.79-.2.81.81,0,0,1,.63.79.67.67,0,0,1-.53.74A3.64,3.64,0,0,0,26,17.86Z"/><path d="M2.89,2a.71.71,0,0,1,.75-.48A.84.84,0,0,1,4.35,2a.68.68,0,0,1-.1.79,6,6,0,0,1-.69.65A.53.53,0,0,0,3.32,4a3.22,3.22,0,0,0-1.26-.83.6.6,0,0,1-.46-.51A.77.77,0,0,1,2,1.86a.73.73,0,0,1,.79,0A1.58,1.58,0,0,1,2.89,2Z"/><path d="M28,20.22A.77.77,0,0,1,29.23,20a.74.74,0,0,1,.11,1,5.79,5.79,0,0,1-.71.69.56.56,0,0,0-.26.49A3.79,3.79,0,0,0,27,21.32a.6.6,0,0,1-.27-.8.67.67,0,0,1,.82-.48A2.27,2.27,0,0,1,28,20.22Z"/><path d="M3.47,22.92c-.24-.13-.49-.28-.74-.4a.42.42,0,0,1-.26-.6.45.45,0,0,1,.63-.21l.12.08c.25-.33.54-.38.8-.13a.44.44,0,0,1,.07.61c-.12.15-.28.27-.41.41S3.53,22.85,3.47,22.92Z"/><path d="M5.7,4.76c-.1-.22-.2-.48-.33-.72s-.13-.51.13-.66a.46.46,0,0,1,.66.25l0,.07c.34-.11.53-.06.66.18a.44.44,0,0,1-.09.61,2.7,2.7,0,0,1-.63.19A4,4,0,0,1,5.7,4.76Z"/><path d="M22.28,3.71c-.22-.13-.46-.28-.71-.4s-.4-.35-.26-.62A.45.45,0,0,1,22,2.54l.06,0c.25-.31.46-.36.72-.2a.46.46,0,0,1,.15.68,3.78,3.78,0,0,1-.4.4Z"/><path d="M34.73,14.8a.65.65,0,0,1-.62-.58.39.39,0,0,1,.42-.38.65.65,0,0,1,.62.58A.38.38,0,0,1,34.73,14.8Z"/><path d="M14.06,16.77l1-.21a.43.43,0,0,1,.25,0c.1.07.23.16.25.26a.41.41,0,0,1-.14.31,1,1,0,0,1-.35.12l-.89.18Z"/><path d="M14,16.3l-.11-.49c.4-.08.79-.16,1.19-.21.07,0,.2.09.24.17s0,.23-.17.26Z"/><path d="M7.52,18.83l-.16-.67c.4-.07.8-.16,1.2-.22a.31.31,0,0,1,.36.28.29.29,0,0,1-.25.34C8.3,18.66,7.91,18.74,7.52,18.83Z"/><path d="M7.15,17.21,8.27,17c.14,0,.28,0,.31.17s-.07.25-.21.29l-1.11.24Z"/><path d="M11.71,17.39l-.81.17.22-.86Z"/><path d="M30.28,5.51a.39.39,0,0,1,.4-.4.44.44,0,0,1,.43.43A.42.42,0,0,1,30.7,6,.43.43,0,0,1,30.28,5.51Z"/><path d="M10,9.4A6.74,6.74,0,0,1,11.6,7.08a7.1,7.1,0,0,1,4.32-1.94,7.59,7.59,0,0,1,6.25,2.51A6.45,6.45,0,0,1,24,10.93,5.25,5.25,0,0,1,23,15.26a22.38,22.38,0,0,1-4.29,4.35c-1.16.93-2.34,1.83-3.48,2.78-.44.36-.8.82-1.21,1.23a.36.36,0,0,1-.23.11H11a.42.42,0,0,1-.24-.09,32.8,32.8,0,0,0-9.24-5.8.34.34,0,0,1-.26-.38c0-3.2,0-6.41,0-9.61a.34.34,0,0,1,.24-.36,5.27,5.27,0,0,1,1.7-.4,8.63,8.63,0,0,1,5.1,1A6.4,6.4,0,0,1,10,9.4ZM6,11.69a3.4,3.4,0,0,1,.38.38c.37.51.72,1,1.08,1.54.09.14.19.27,0,.43l0,0,.93-.19c-.05-.13-.15-.24-.14-.34.07-.49.17-1,.26-1.5l.14.17c.23.34.46.69.71,1,.09.13.16.26,0,.43l1-.21a.3.3,0,0,1-.18-.42s0-.09,0-.13a10.23,10.23,0,0,1,.49-2.2l-1,.21c.07.12.18.23.17.32-.05.43-.13.86-.21,1.33-.23-.33-.43-.63-.64-.92s-.29-.32,0-.58l-1.25.26v0c.22.06.25.19.2.37s0,.21-.06.31c0,.29-.1.58-.16.91L7,12c-.1-.14-.21-.28,0-.47Zm7.21,4a2,2,0,0,1,.19.39c.13.53.25,1.06.37,1.59,0,.19.16.38,0,.57.61-.11,1.19-.22,1.76-.35a2.76,2.76,0,0,0,.74-.28.59.59,0,0,0,.28-.64.63.63,0,0,0-.46-.57l-.06,0a1.81,1.81,0,0,0,.16-.54c0-.4-.38-.64-.84-.58-.28,0-.56.1-.83.16ZM9.26,17.79a1.76,1.76,0,0,0,.17-.54c0-.42-.39-.66-.88-.57s-1,.2-1.52.3l-.53.11a2.25,2.25,0,0,1,.19.44c.13.53.25,1.07.36,1.61a2.8,2.8,0,0,1,0,.51l.75-.15c.48-.11,1-.2,1.42-.34a.73.73,0,0,0,.55-.7A.66.66,0,0,0,9.26,17.79Zm5.48-5.26h.07c.71-.15,1.42-.3,2.14-.43a2.13,2.13,0,0,1,.51,0l-.16-.68-.39.18a2.27,2.27,0,0,1-.25.06l-1.28.26-.13-.6c.28-.06.52-.12.77-.15a2.77,2.77,0,0,1,.5,0l-.16-.68c-.36.33-.82.24-1.22.39L15,10.3c.48-.11,1-.21,1.42-.29a2.41,2.41,0,0,1,.47,0l-.16-.69c-.12.07-.2.16-.29.18-.48.11-1,.2-1.45.3l-.87.19a1.86,1.86,0,0,1,.19.31c.15.61.29,1.23.42,1.85A1.3,1.3,0,0,1,14.74,12.53ZM14.15,12c-.09.08-.15.18-.23.19-.55.13-1.11.24-1.68.36l-.13-.6c.28-.06.54-.12.79-.16a4,4,0,0,1,.49,0l-.16-.67c-.37.3-.82.24-1.22.38l-.13-.56,1.33-.28a5,5,0,0,1,.56,0L13.62,10a2.92,2.92,0,0,1-.37.17l-2,.42-.22.06a1.85,1.85,0,0,1,.18.38c.14.56.26,1.13.4,1.7,0,.16.08.31-.1.46h.16c.48-.1.95-.22,1.43-.29s.79-.3,1.23-.12Zm-8.49.66L5.84,12H5.52c-.14,0-.29-.06-.44-.07a1.82,1.82,0,0,0-1.5.46.72.72,0,0,0,.33,1.22,1.87,1.87,0,0,0,.53,0c.28,0,.55-.07.84-.09.13,0,.3,0,.34.15s-.08.25-.21.31a1.9,1.9,0,0,1-1.15.17A3.28,3.28,0,0,1,3.82,14l-.12.62H4a6.44,6.44,0,0,0,.76,0,1.88,1.88,0,0,0,1.29-.5A.7.7,0,0,0,5.76,13a1.42,1.42,0,0,0-.5-.05L4.18,13C4.11,13,4,13,4,12.91a.3.3,0,0,1,.1-.26,1.3,1.3,0,0,1,.5-.21A1.19,1.19,0,0,1,5.66,12.65Zm5,3.58c.22.14.19.3.14.48s-.07.3-.12.45A10.89,10.89,0,0,1,10.11,19l1-.2.06-.07c-.27,0-.26-.15-.23-.3s.06-.32.3-.34A3.66,3.66,0,0,0,12,18c.26-.09.33.11.43.24s0,.2,0,.34l1-.21a5.32,5.32,0,0,1-.48-.46c-.4-.44-.79-.88-1.18-1.33-.13-.14-.3-.28,0-.54Zm6.67-1.37-.06,0-1.21.25.56.37a5.85,5.85,0,0,0,.54.45,1.17,1.17,0,0,1,.55.94c0,.18.16.37-.08.59l.94-.2a4.07,4.07,0,0,1-.17-.38,3.65,3.65,0,0,1-.13-.55.57.57,0,0,1,0-.32,6,6,0,0,1,.84-1.55L18,14.69l0,.05c.28.07.21.22.14.38s-.17.36-.25.56l-.47-.4C17.23,15.17,17.05,15.06,17.34,14.86ZM20,9.46l-.16-.73a2.41,2.41,0,0,1-.42.18l-1.86.38a2.11,2.11,0,0,1-.44,0l.16.71c.28-.33.67-.24,1-.36.13.56.26,1.08.37,1.61a2.77,2.77,0,0,1,0,.5l.85-.19a1.67,1.67,0,0,1-.18-.35c-.09-.36-.17-.73-.25-1.09,0-.2-.09-.4-.14-.63C19.26,9.51,19.56,9.24,20,9.46Z"/><path d="M25.59,10.88a7.54,7.54,0,0,1-.22,2.52,9.05,9.05,0,0,1-1.7,3.14A25.19,25.19,0,0,1,18,21.82c-.86.59-1.68,1.24-2.54,1.83a1.94,1.94,0,0,1-.66.12l0-.07c.08-.08.15-.17.23-.26a23.22,23.22,0,0,1,2.57-2.17,35,35,0,0,0,4.39-3.78,14.43,14.43,0,0,0,1.89-2.38A5.7,5.7,0,0,0,24,9.37a8.27,8.27,0,0,0-6.37-4.72,7.49,7.49,0,0,0-7.24,2.91l-.09.12,0,0a.07.07,0,0,1,0-.06A8,8,0,0,1,13.72,4a6.38,6.38,0,0,1,3.84-.64,9.57,9.57,0,0,1,5.8,2.87c.25.25.47.54.71.81.86-.32.95-.31,2.45.2,0-.28.06-.57.07-.85a.34.34,0,0,0-.11-.19A1.88,1.88,0,0,1,26,4.52a1.4,1.4,0,0,1,1.86-1.14,1.3,1.3,0,0,0,1-.07,5.29,5.29,0,0,1,1.66-.39.8.8,0,0,0,.42-.16,2.58,2.58,0,0,1,1.57-.59,2.19,2.19,0,0,1,2,2.61c0,.06,0,.15,0,.18a3.57,3.57,0,0,1,1.09,2.17,7.55,7.55,0,0,1,0,2.92,3.4,3.4,0,0,1-.68,1.37.45.45,0,0,0-.06.28c0,.24.07.48.1.71a1.06,1.06,0,0,1,0,.29l-.21-.08-.1-.88-.2.12a.65.65,0,0,1-.89,0,2.55,2.55,0,0,1-.55-.63,6.39,6.39,0,0,1-.76-1.85,1.31,1.31,0,0,0-.05-.15l-.43.12,0,.06c.09.55,0,.62-.5.73a2.49,2.49,0,0,1-.6.09,1.66,1.66,0,0,1-.44-.11c.21.17.4.32.58.48a1.71,1.71,0,0,1,.62.95.29.29,0,0,1-.06.22,6.75,6.75,0,0,1-.54.52,8,8,0,0,0-.75-2.07c-.32.05-.36.28-.35.51,0,.57.1,1.15.14,1.72,0,.08,0,.15,0,.27L29,12.4c.09.5.15,1,.25,1.48a4.51,4.51,0,0,0,.68,1.65,2.38,2.38,0,0,0,2.5,1,16.73,16.73,0,0,0,1.69-.43v-.08l-.19-.18a1.92,1.92,0,0,1-.59-2.13,2.84,2.84,0,0,1,.13-.38.92.92,0,0,1,1.18-.64,2.84,2.84,0,0,1,.58.2c.69.33,1.38.68,2.07,1,.16.08.23.17.16.36l-.17-.07c-.72-.35-1.43-.72-2.16-1.06a2.86,2.86,0,0,0-.76-.21.51.51,0,0,0-.54.27,2.21,2.21,0,0,0-.28,1.55,2.1,2.1,0,0,0,1.7,1.48c.24,0,.49.07.73.12a.78.78,0,0,1,.64.72c0,.28.05.56.08.84a.36.36,0,0,1-.21.41.53.53,0,0,1,0-.17c0-.32,0-.64-.08-1a.63.63,0,0,0-.71-.61,2.1,2.1,0,0,0,1.61,2.2c.22,0,.22,0,.19.31a5.27,5.27,0,0,1-.57-.14,2.38,2.38,0,0,1-1.5-2,.84.84,0,0,1,0-.27c0-.2-.08-.25-.26-.22,0,.27-.09.54-.15.8a2.52,2.52,0,0,1-.71,1.27,1.26,1.26,0,0,1-1.38.22A1.87,1.87,0,0,1,31.76,18c-.2-.32-.35-.69-.53-1a.39.39,0,0,0-.17-.19,2.8,2.8,0,0,1-1.6-1.42,6.3,6.3,0,0,1-.67-2.3c0-.23,0-.51-.1-.67s-.4-.13-.61-.2A12.18,12.18,0,0,1,25.8,11Zm7.74-6.05c-.09-.12-.16-.28-.28-.35-.44-.28-.89-.53-1.33-.78a.77.77,0,0,0-.26-.07,1.09,1.09,0,0,1-.85-.39.19.19,0,0,0-.16-.05,4.73,4.73,0,0,0-2.25.71,1.68,1.68,0,0,0-.54.52A7.62,7.62,0,0,0,27,5.78,3.43,3.43,0,0,0,27,8c.09.24.24.45.35.68l.05,0c-.06-.16-.12-.31-.19-.47-.24-.55,0-1.13-.12-1.69a.24.24,0,0,1,.11-.19c.05,0,.13.06.2.09A2.53,2.53,0,0,1,29,5.7,2,2,0,0,1,31.19,8,1.43,1.43,0,0,1,30.06,9.4l-1.2.22s-.09,0-.1,0c-.05.17-.16.09-.25.06a2.8,2.8,0,0,1-1.53-1,1.87,1.87,0,0,1-1.57,1.2,4.8,4.8,0,0,0,.1.47.57.57,0,0,0,.17.27c.74.41,1.48.81,2.23,1.19a4.61,4.61,0,0,0,.77.24l.08-1.42c-.22,0-.44,0-.66.08s-.19,0-.21-.17,0-.4-.07-.61l1.25-.18c.15,0,.28-.1.42-.13.36-.07.73-.08,1.07-.18A10.52,10.52,0,0,0,31.61,9c.14-.06.28-.09.42-.14A4.5,4.5,0,0,1,33.33,4.83ZM32.26,8.19a1.18,1.18,0,0,0,0,.19,6,6,0,0,0,1,2.92,1.82,1.82,0,0,0,.34.34.44.44,0,0,0,.57,0,2.47,2.47,0,0,0,1-1.51,6.65,6.65,0,0,0-.24-4,2.26,2.26,0,0,0-.84-1.09A1.17,1.17,0,0,0,33.9,5v.22c0,.79,0,1.57.05,2.35a.74.74,0,0,1-.51.75A1.19,1.19,0,0,1,32.26,8.19Zm-4.6.41A1.29,1.29,0,0,0,29,9.33c.36-.05.71-.13,1.07-.2a1,1,0,0,0,.63-.44,1.89,1.89,0,0,0-.18-2.15,1.94,1.94,0,0,0-2.18-.41,1.32,1.32,0,0,0-1,1.67,1.61,1.61,0,0,0,.3.78l.09-.33.57.18a1,1,0,0,0-.23-.6c-.14-.13-.3-.24-.43-.38a.28.28,0,0,1,0-.2.53.53,0,0,1,.5-.44,2,2,0,0,0,.26-.07c.41-.11.41-.11.66.21a.18.18,0,0,1,0,.26,4.7,4.7,0,0,0-.38.53.36.36,0,0,0,0,.23c0,.28.29.32.49.38s.19-.12.28-.19l.11-.11.34.22c-.14.17-.27.31-.38.46a.17.17,0,0,1-.25.06l-.54-.2L28.51,9Zm3.86,8.26a2.37,2.37,0,0,0,1.42,1.72L32.43,17l.23-.15.31.94a3.17,3.17,0,0,1,.12.41c.08.27.37.26.55.39s.26-.11.37-.2a2.48,2.48,0,0,0,.74-1.7c0-.09,0-.26,0-.28s-.29-.22-.5-.13A5.17,5.17,0,0,1,31.52,16.86ZM34.13,4.73a1.74,1.74,0,0,0-1-2.08,1.85,1.85,0,0,0-2.29.54l.56.17a.15.15,0,0,0,.13,0,1.23,1.23,0,0,1,.9-.3.77.77,0,0,1,.87.61,3.84,3.84,0,0,1,.09.68c0,.31.11.41.42.41ZM28,3.71a1.21,1.21,0,0,0-1.56.38A1.47,1.47,0,0,0,26.69,6a.36.36,0,0,0-.05-.21,3.33,3.33,0,0,1-.25-.5A.82.82,0,0,1,27,4.13a3,3,0,0,1,.42,0,.27.27,0,0,0,.16,0C27.7,4,27.83,3.84,28,3.71Zm1,7.4.3-.59C29,10.57,29.08,10.48,29,11.11Z"/><path d="M23.76,23.14a.76.76,0,0,0-.78-.52,6.47,6.47,0,0,1-1.74-.29,1.43,1.43,0,0,1-.5-2.45,1.16,1.16,0,0,1,1.34-.24,3.59,3.59,0,0,1,.34.17l0-.09a1.3,1.3,0,0,1,1.31-1,1.42,1.42,0,0,1,1.3,1.13,1,1,0,0,1-.23.79,5.47,5.47,0,0,0-1,2.06C23.82,22.81,23.8,23,23.76,23.14Z"/><path d="M9.74,2.38a1,1,0,0,1,.86-.87,1,1,0,0,1,1.05.5.74.74,0,0,1,0,.9,4.49,4.49,0,0,0-.89,2c-.19-.4-.53-.36-.84-.41A8.53,8.53,0,0,1,8.7,4.28a1,1,0,0,1-.67-1,1.21,1.21,0,0,1,.71-1.09,1,1,0,0,1,.76,0Z"/><path d="M34.07,23.42c-.17-.37-.47-.37-.77-.41a10.42,10.42,0,0,1-1.22-.22,1,1,0,0,1-.75-.88,1.2,1.2,0,0,1,.54-1.15.87.87,0,0,1,.77-.09,3.08,3.08,0,0,1,.38.16.5.5,0,0,0,0-.13,1,1,0,0,1,2,.29.77.77,0,0,1-.12.37A4.52,4.52,0,0,0,34.07,23.42Z"/><path d="M1.31,18.33a32.73,32.73,0,0,1,8.75,5.39,1.17,1.17,0,0,1-.86-.17,35.49,35.49,0,0,0-7.64-4.14A.33.33,0,0,1,1.3,19C1.32,18.8,1.31,18.58,1.31,18.33Z"/><path d="M1.31,6.94c0-.24,0-.48,0-.73a.25.25,0,0,1,.16-.14,17.69,17.69,0,0,1,1.74-.32A8.11,8.11,0,0,1,7,6.19a6.7,6.7,0,0,1,2.82,2c.12.14.12.14,0,.29A9.24,9.24,0,0,0,1.31,6.94Z"/><path d="M26.18,18.06A.5.5,0,0,0,26,17.5a10.55,10.55,0,0,1-.72-.78.8.8,0,0,1-.09-.95,1,1,0,0,1,.91-.51c.4,0,.6.26.74.62a.94.94,0,0,1,.79-.2.8.8,0,0,1,.63.79.67.67,0,0,1-.53.74A3.64,3.64,0,0,0,26.18,18.06Z"/><path d="M3.09,2.19a.72.72,0,0,1,.75-.49.87.87,0,0,1,.71.5.68.68,0,0,1-.1.79,7.07,7.07,0,0,1-.69.65.5.5,0,0,0-.24.5,3.09,3.09,0,0,0-1.26-.82A.61.61,0,0,1,1.8,2.8a.75.75,0,0,1,.35-.74.71.71,0,0,1,.78,0A1.67,1.67,0,0,1,3.09,2.19Z"/><path d="M28.17,20.42a.75.75,0,0,1,1.25-.22.73.73,0,0,1,.12,1,7.71,7.71,0,0,1-.71.69.54.54,0,0,0-.26.49,3.79,3.79,0,0,0-1.39-.87.61.61,0,0,1-.28-.8.7.7,0,0,1,.83-.49A3.9,3.9,0,0,1,28.17,20.42Z"/><path d="M3.66,23.12c-.23-.13-.48-.28-.73-.41a.41.41,0,0,1-.26-.59.44.44,0,0,1,.62-.21.57.57,0,0,1,.13.08c.25-.34.54-.38.8-.14a.44.44,0,0,1,.07.61,4.16,4.16,0,0,1-.42.42C3.79,23,3.72,23.05,3.66,23.12Z"/><path d="M5.9,5c-.1-.22-.2-.48-.33-.72s-.13-.51.13-.66a.45.45,0,0,1,.65.25l0,.07c.34-.11.53-.06.66.18A.44.44,0,0,1,7,4.69a3.28,3.28,0,0,1-.63.19C6.18,4.92,6,4.94,5.9,5Z"/><path d="M22.48,3.91c-.23-.13-.46-.28-.71-.4s-.4-.35-.27-.62a.46.46,0,0,1,.67-.16l.07,0c.25-.31.46-.37.72-.2a.47.47,0,0,1,.15.68,5,5,0,0,1-.4.4Z"/><path d="M34.93,15a.65.65,0,0,1-.62-.58.39.39,0,0,1,.42-.38.65.65,0,0,1,.62.58A.39.39,0,0,1,34.93,15Z"/><path d="M14.25,17l1-.22a.49.49,0,0,1,.24,0c.11.06.24.16.26.26a.41.41,0,0,1-.14.31,1,1,0,0,1-.36.12l-.88.18Z"/><path d="M14.15,16.5,14,16c.4-.08.79-.16,1.19-.22.07,0,.2.1.24.18s0,.23-.17.26Z"/><path d="M7.72,19l-.16-.67c.4-.08.8-.16,1.19-.22a.3.3,0,0,1,.36.28.28.28,0,0,1-.24.34C8.49,18.86,8.11,18.94,7.72,19Z"/><path d="M7.35,17.41l1.12-.22c.14,0,.27,0,.31.17s-.07.25-.21.28l-1.11.25Z"/><path d="M11.91,17.59l-.81.17.22-.86Z"/><path d="M30.48,5.71a.39.39,0,0,1,.4-.4.44.44,0,0,1,.43.43.42.42,0,0,1-.41.41A.44.44,0,0,1,30.48,5.71Z"/></g><g class="cls-3"><path d="M9.64,9.06a6.74,6.74,0,0,1,1.62-2.32A7.1,7.1,0,0,1,15.58,4.8a7.59,7.59,0,0,1,6.25,2.51,6.45,6.45,0,0,1,1.82,3.28,5.25,5.25,0,0,1-.95,4.33,22.38,22.38,0,0,1-4.29,4.35c-1.16.93-2.34,1.83-3.48,2.78-.44.36-.8.82-1.21,1.23a.36.36,0,0,1-.23.11H10.7a.42.42,0,0,1-.24-.09,32.8,32.8,0,0,0-9.24-5.8A.34.34,0,0,1,1,17.12c0-3.2,0-6.41,0-9.61a.34.34,0,0,1,.24-.36,5.27,5.27,0,0,1,1.7-.4A8.59,8.59,0,0,1,8,7.79,6.28,6.28,0,0,1,9.64,9.06Zm-4,2.29a3.4,3.4,0,0,1,.38.38c.37.51.72,1,1.08,1.54.09.14.19.27,0,.43l.06,0,.93-.19c-.05-.13-.15-.24-.14-.34.07-.49.17-1,.26-1.5l.14.17c.23.34.46.69.7,1,.1.13.17.26,0,.43l1-.21a.3.3,0,0,1-.18-.42s0-.09,0-.13a10.23,10.23,0,0,1,.49-2.2l-1,.21c.07.12.18.23.17.32,0,.43-.13.85-.21,1.33-.23-.33-.43-.63-.64-.92s-.29-.32,0-.58L7.42,11v0c.22.06.25.19.2.37s0,.21-.06.31c0,.29-.1.58-.16.91l-.72-1c-.1-.14-.21-.28,0-.47Zm7.21,4a2,2,0,0,1,.19.39c.13.53.25,1.06.37,1.59,0,.19.16.38,0,.57.61-.11,1.19-.22,1.76-.35a3.14,3.14,0,0,0,.74-.28.59.59,0,0,0,.28-.64.62.62,0,0,0-.46-.57l-.06,0a1.81,1.81,0,0,0,.16-.54c0-.41-.38-.64-.84-.58-.28,0-.56.1-.83.16ZM8.92,17.45a1.85,1.85,0,0,0,.17-.54c0-.42-.39-.66-.88-.57s-1,.2-1.52.3l-.53.11a2.25,2.25,0,0,1,.19.44c.13.53.25,1.07.36,1.61a2.8,2.8,0,0,1,0,.51l.75-.15c.48-.11,1-.2,1.42-.34a.73.73,0,0,0,.55-.7A.66.66,0,0,0,8.92,17.45Zm5.48-5.26h.07l2.14-.44a2.89,2.89,0,0,1,.51,0L17,11.06l-.39.18a2.27,2.27,0,0,1-.25.06L15,11.56l-.13-.6c.28-.06.52-.12.77-.15a2.77,2.77,0,0,1,.5,0L16,10.12c-.36.33-.82.24-1.22.39L14.67,10c.49-.1,1-.2,1.43-.28a2.41,2.41,0,0,1,.47,0L16.41,9c-.12.07-.2.16-.29.18-.48.11-1,.2-1.45.3l-.87.19A1.86,1.86,0,0,1,14,10c.15.61.29,1.23.42,1.85A1.75,1.75,0,0,1,14.4,12.19Zm-.59-.54c-.09.08-.15.18-.23.19-.55.13-1.11.24-1.68.36l-.13-.6c.28-.06.54-.12.79-.16a4,4,0,0,1,.49,0l-.16-.67c-.37.3-.82.24-1.22.38l-.13-.56,1.33-.28a5,5,0,0,1,.56,0l-.15-.65a2.92,2.92,0,0,1-.37.17l-2,.42-.22.06a1.85,1.85,0,0,1,.18.38c.14.56.26,1.13.4,1.7,0,.16.08.31-.1.46h.16c.48-.1.95-.22,1.43-.29s.79-.3,1.23-.12Zm-8.49.66.18-.65H5.18c-.14,0-.29-.06-.44-.07a1.82,1.82,0,0,0-1.5.46.72.72,0,0,0,.33,1.22,1.82,1.82,0,0,0,.52,0c.29,0,.56-.07.84-.09s.31,0,.35.15-.08.25-.21.31a2,2,0,0,1-1.15.17,3.28,3.28,0,0,1-.44-.15l-.12.62h.31a6.44,6.44,0,0,0,.76,0,1.88,1.88,0,0,0,1.29-.5.7.7,0,0,0-.3-1.18,1.42,1.42,0,0,0-.5-.05c-.36,0-.72.07-1.08.08-.07,0-.21-.06-.21-.1a.3.3,0,0,1,.1-.26,1.3,1.3,0,0,1,.5-.21A1.19,1.19,0,0,1,5.32,12.31Zm5,3.58c.22.14.19.3.14.48l-.12.45a10.89,10.89,0,0,1-.58,1.87l1-.2,0-.07c-.26,0-.25-.15-.22-.3s.06-.32.3-.34a3.66,3.66,0,0,0,.8-.16c.26-.09.33.11.43.24s0,.2,0,.34l1-.21c-.17-.16-.33-.3-.47-.46-.4-.44-.79-.88-1.18-1.33-.13-.14-.3-.28,0-.54ZM17,14.52l-.06,0-1.21.25.56.37a5.85,5.85,0,0,0,.54.45,1.17,1.17,0,0,1,.55.94c0,.18.16.37-.08.59l.94-.2a4.07,4.07,0,0,1-.17-.38,3.65,3.65,0,0,1-.13-.55.57.57,0,0,1,0-.32,6,6,0,0,1,.84-1.55l-1.18.25,0,.05c.28.07.21.22.14.38s-.17.36-.25.56l-.47-.4C16.89,14.83,16.71,14.72,17,14.52Zm2.62-5.4-.16-.73a2.41,2.41,0,0,1-.42.18L17.18,9a2.11,2.11,0,0,1-.44,0l.16.71c.28-.33.67-.24,1-.37.13.57.26,1.09.37,1.62a2.77,2.77,0,0,1,0,.5l.85-.19a2,2,0,0,1-.18-.35c-.09-.36-.17-.73-.25-1.09,0-.2-.09-.4-.14-.63C18.92,9.17,19.22,8.9,19.62,9.12Z"/><path d="M25.25,10.54A7.54,7.54,0,0,1,25,13.06a9.05,9.05,0,0,1-1.7,3.14,25.19,25.19,0,0,1-5.72,5.28c-.86.59-1.68,1.24-2.54,1.83a1.94,1.94,0,0,1-.66.12l0-.07c.08-.08.15-.17.23-.26a23.22,23.22,0,0,1,2.57-2.17,35,35,0,0,0,4.39-3.78,14.43,14.43,0,0,0,1.89-2.38A5.7,5.7,0,0,0,23.69,9a8.27,8.27,0,0,0-6.37-4.72,7.49,7.49,0,0,0-7.24,2.91L10,7.34l0,0a.07.07,0,0,1,0-.06,8,8,0,0,1,3.44-3.62,6.38,6.38,0,0,1,3.84-.64A9.57,9.57,0,0,1,23,5.92c.25.25.47.54.71.81.86-.32.95-.31,2.45.2,0-.28.06-.57.07-.85a.31.31,0,0,0-.11-.19,1.88,1.88,0,0,1-.52-1.71A1.4,1.4,0,0,1,27.48,3a1.3,1.3,0,0,0,1-.07,5.29,5.29,0,0,1,1.66-.39.8.8,0,0,0,.42-.16,2.58,2.58,0,0,1,1.57-.59,2.19,2.19,0,0,1,2,2.61c0,.06,0,.15,0,.18a3.57,3.57,0,0,1,1.09,2.17,7.55,7.55,0,0,1,0,2.92,3.4,3.4,0,0,1-.68,1.37.45.45,0,0,0-.06.28c0,.24.07.48.1.71a1.06,1.06,0,0,1,0,.29l-.21-.08-.1-.88-.2.12a.65.65,0,0,1-.89,0,2.55,2.55,0,0,1-.55-.63A6.39,6.39,0,0,1,31.79,9a1.31,1.31,0,0,0-.05-.15L31.31,9a.39.39,0,0,0,0,.06c.09.55,0,.62-.5.73a3.11,3.11,0,0,1-.6.09,1.66,1.66,0,0,1-.44-.11c.21.17.4.31.58.48a1.71,1.71,0,0,1,.62.95.29.29,0,0,1-.06.22,6.75,6.75,0,0,1-.54.52,8,8,0,0,0-.75-2.07c-.32.05-.36.28-.35.51,0,.57.1,1.15.14,1.72,0,.08,0,.15,0,.27l-.81-.3c.09.5.15,1,.25,1.48a4.51,4.51,0,0,0,.68,1.65,2.38,2.38,0,0,0,2.5,1,16.73,16.73,0,0,0,1.69-.43v-.08l-.19-.18A1.92,1.92,0,0,1,33,13.42a2.84,2.84,0,0,1,.13-.38.92.92,0,0,1,1.18-.64,2.84,2.84,0,0,1,.58.2l2.07,1c.16.08.23.17.16.36l-.17-.07c-.72-.35-1.43-.72-2.16-1.06a2.86,2.86,0,0,0-.76-.21.51.51,0,0,0-.54.27,2.21,2.21,0,0,0-.28,1.55,2.1,2.1,0,0,0,1.7,1.48c.24,0,.49.07.73.12a.78.78,0,0,1,.64.72c0,.28,0,.56.08.84a.36.36,0,0,1-.21.41.53.53,0,0,1,0-.17c0-.32,0-.65-.08-1a.63.63,0,0,0-.71-.61,2.1,2.1,0,0,0,1.61,2.2c.22,0,.22,0,.19.31a5.27,5.27,0,0,1-.57-.14,2.38,2.38,0,0,1-1.5-2,.88.88,0,0,1,0-.28c0-.19-.08-.25-.26-.21,0,.26-.09.54-.15.8a2.52,2.52,0,0,1-.71,1.27,1.26,1.26,0,0,1-1.38.22,1.87,1.87,0,0,1-1.07-.86c-.2-.32-.35-.69-.53-1a.45.45,0,0,0-.17-.19A2.8,2.8,0,0,1,29.12,15a6.51,6.51,0,0,1-.68-2.3c0-.23,0-.51-.09-.67s-.4-.13-.61-.2a12.18,12.18,0,0,1-2.28-1.15Zm7.74-6c-.09-.12-.16-.28-.28-.35-.44-.28-.89-.53-1.33-.78a.77.77,0,0,0-.26-.07,1.09,1.09,0,0,1-.85-.39s-.11-.06-.16,0a4.73,4.73,0,0,0-2.25.71,1.59,1.59,0,0,0-.54.52,7.62,7.62,0,0,0-.63,1.36,3.43,3.43,0,0,0-.07,2.26c.09.24.24.45.35.68l.05,0c-.06-.16-.12-.31-.19-.47-.24-.55,0-1.13-.12-1.69A.24.24,0,0,1,26.82,6c.05,0,.13.06.2.09a2.53,2.53,0,0,1,1.66-.73,2,2,0,0,1,2.17,2.32,1.43,1.43,0,0,1-1.13,1.38l-1.2.22s-.09,0-.1,0-.16.09-.25.06a2.77,2.77,0,0,1-1.53-1,1.87,1.87,0,0,1-1.57,1.2,4.8,4.8,0,0,0,.1.47.5.5,0,0,0,.17.27c.74.4,1.48.81,2.23,1.19a4.61,4.61,0,0,0,.77.24l.08-1.42c-.22,0-.44,0-.66.08s-.19,0-.21-.17,0-.4-.07-.61l1.25-.18c.15,0,.28-.1.42-.13.36-.07.73-.08,1.07-.18a10.52,10.52,0,0,0,1.05-.43c.14-.06.28-.09.42-.14A4.5,4.5,0,0,1,33,4.49ZM31.92,7.85a1.18,1.18,0,0,0,0,.19,6,6,0,0,0,1,2.92,1.82,1.82,0,0,0,.34.34.44.44,0,0,0,.57,0,2.47,2.47,0,0,0,1-1.51,6.65,6.65,0,0,0-.24-4,2.26,2.26,0,0,0-.84-1.09,1.17,1.17,0,0,0-.23-.13v.22c0,.79,0,1.57,0,2.35a.74.74,0,0,1-.51.75A1.19,1.19,0,0,1,31.92,7.85Zm-4.6.41A1.29,1.29,0,0,0,28.65,9c.36-.05.71-.13,1.07-.2a1,1,0,0,0,.63-.44,1.89,1.89,0,0,0-.18-2.15A1.94,1.94,0,0,0,28,5.79a1.32,1.32,0,0,0-1,1.67,1.61,1.61,0,0,0,.3.78l.09-.33.57.18a1,1,0,0,0-.23-.6c-.14-.13-.3-.24-.43-.38a.28.28,0,0,1,0-.2.53.53,0,0,1,.5-.44A2.5,2.5,0,0,0,28,6.4c.41-.11.41-.11.66.21a.18.18,0,0,1,0,.26,4.7,4.7,0,0,0-.38.53.36.36,0,0,0,0,.23c0,.28.29.32.49.38s.19-.12.28-.19l.11-.11.34.22c-.14.17-.27.31-.38.46a.17.17,0,0,1-.25.06l-.54-.2-.16.36Zm3.86,8.26a2.37,2.37,0,0,0,1.42,1.72l-.51-1.54.23-.15.31.94a3.17,3.17,0,0,1,.12.41c.08.27.37.26.55.39s.26-.11.37-.2a2.48,2.48,0,0,0,.74-1.7c0-.09,0-.26,0-.28s-.29-.22-.5-.13A5.17,5.17,0,0,1,31.18,16.52ZM33.79,4.39a1.74,1.74,0,0,0-1-2.08,1.85,1.85,0,0,0-2.29.54l.56.17a.15.15,0,0,0,.13,0,1.23,1.23,0,0,1,.9-.3.77.77,0,0,1,.87.61,3.84,3.84,0,0,1,.09.68c0,.31.11.41.42.41Zm-6.16-1a1.2,1.2,0,0,0-1.55.38,1.47,1.47,0,0,0,.27,1.89.36.36,0,0,0-.05-.21,3.33,3.33,0,0,1-.25-.5.82.82,0,0,1,.58-1.14,3,3,0,0,1,.42,0,.27.27,0,0,0,.16,0A4.83,4.83,0,0,0,27.63,3.37Zm1,7.4.3-.59C28.64,10.23,28.74,10.14,28.66,10.77Z"/><path d="M23.42,22.8a.76.76,0,0,0-.78-.52A6.47,6.47,0,0,1,20.9,22a1.43,1.43,0,0,1-.5-2.45,1.16,1.16,0,0,1,1.34-.24,3.59,3.59,0,0,1,.34.17l0-.09a1.3,1.3,0,0,1,1.31-1,1.42,1.42,0,0,1,1.3,1.13,1,1,0,0,1-.23.79,5.47,5.47,0,0,0-1,2.06C23.48,22.47,23.46,22.61,23.42,22.8Z"/><path d="M9.4,2a1,1,0,0,1,.86-.87,1,1,0,0,1,1.05.5.74.74,0,0,1,0,.9,4.49,4.49,0,0,0-.89,2c-.19-.4-.53-.36-.85-.41a8.68,8.68,0,0,1-1.23-.26,1,1,0,0,1-.67-1A1.21,1.21,0,0,1,8.4,1.88a1,1,0,0,1,.76,0Z"/><path d="M33.73,23.08c-.17-.37-.47-.37-.77-.41s-.82-.12-1.22-.22a1,1,0,0,1-.75-.88,1.2,1.2,0,0,1,.54-1.15.87.87,0,0,1,.77-.09,3.08,3.08,0,0,1,.38.16.5.5,0,0,0,0-.13,1,1,0,0,1,2,.29.77.77,0,0,1-.12.37A4.52,4.52,0,0,0,33.73,23.08Z"/><path d="M1,18a32.48,32.48,0,0,1,8.75,5.39,1.16,1.16,0,0,1-.86-.17,35.49,35.49,0,0,0-7.64-4.14A.33.33,0,0,1,1,18.68C1,18.46,1,18.24,1,18Z"/><path d="M1,6.6c0-.24,0-.48,0-.73a.25.25,0,0,1,.16-.14,17.69,17.69,0,0,1,1.74-.32,8.11,8.11,0,0,1,3.75.44,6.7,6.7,0,0,1,2.82,2c.12.14.12.14,0,.29A9.24,9.24,0,0,0,1,6.6Z"/><path d="M25.84,17.72a.5.5,0,0,0-.17-.56,10.55,10.55,0,0,1-.72-.78.8.8,0,0,1-.09-.95,1,1,0,0,1,.91-.51c.4,0,.6.26.74.62a.94.94,0,0,1,.79-.2.8.8,0,0,1,.63.79.67.67,0,0,1-.53.74A3.64,3.64,0,0,0,25.84,17.72Z"/><path d="M2.75,1.85a.72.72,0,0,1,.75-.49.89.89,0,0,1,.71.5.68.68,0,0,1-.1.79,7.07,7.07,0,0,1-.69.65.5.5,0,0,0-.24.5A3.09,3.09,0,0,0,1.92,3a.61.61,0,0,1-.46-.52.75.75,0,0,1,.35-.74.71.71,0,0,1,.78,0A1.67,1.67,0,0,1,2.75,1.85Z"/><path d="M27.83,20.08a.75.75,0,0,1,1.25-.22.73.73,0,0,1,.12,1,7.71,7.71,0,0,1-.71.69.54.54,0,0,0-.26.49,3.79,3.79,0,0,0-1.39-.87.61.61,0,0,1-.28-.8.7.7,0,0,1,.83-.49A3.9,3.9,0,0,1,27.83,20.08Z"/><path d="M3.32,22.78c-.23-.13-.48-.28-.73-.41a.41.41,0,0,1-.26-.59A.44.44,0,0,1,3,21.57a.57.57,0,0,1,.13.08c.25-.34.54-.38.8-.14a.44.44,0,0,1,.07.61,4.16,4.16,0,0,1-.42.42C3.45,22.62,3.38,22.71,3.32,22.78Z"/><path d="M5.56,4.62c-.1-.22-.2-.48-.33-.72s-.13-.51.13-.66A.45.45,0,0,1,6,3.49l0,.07c.34-.11.53-.06.66.18a.44.44,0,0,1-.09.61A3.28,3.28,0,0,1,6,4.54C5.84,4.58,5.68,4.6,5.56,4.62Z"/><path d="M22.14,3.57c-.23-.13-.46-.28-.71-.4s-.4-.35-.27-.62a.46.46,0,0,1,.67-.16l.07,0c.25-.31.46-.37.72-.2a.47.47,0,0,1,.15.68,5,5,0,0,1-.4.4Z"/><path d="M34.59,14.66a.65.65,0,0,1-.62-.58.38.38,0,0,1,.42-.38.65.65,0,0,1,.62.58A.39.39,0,0,1,34.59,14.66Z"/><path d="M13.91,16.63l1-.22a.49.49,0,0,1,.24,0c.11.06.24.16.26.26a.41.41,0,0,1-.14.31,1,1,0,0,1-.36.12l-.88.18Z"/><path d="M13.81,16.16l-.11-.49c.4-.08.79-.16,1.19-.22.07,0,.2.1.24.18s0,.23-.17.26Z"/><path d="M7.38,18.69,7.22,18c.4-.08.8-.16,1.19-.22a.3.3,0,0,1,.36.28.28.28,0,0,1-.24.34C8.15,18.52,7.77,18.6,7.38,18.69Z"/><path d="M7,17.07l1.12-.22c.14,0,.27,0,.31.17s-.07.25-.21.28l-1.11.25Z"/><path d="M11.57,17.25l-.81.17.22-.86Z"/><path d="M30.14,5.37a.39.39,0,0,1,.4-.4A.44.44,0,0,1,31,5.4a.42.42,0,0,1-.41.41A.44.44,0,0,1,30.14,5.37Z"/></g><path class="cls-4" d="M9.84,9.26a6.74,6.74,0,0,1,1.62-2.32A7,7,0,0,1,15.77,5,7.64,7.64,0,0,1,22,7.5a6.63,6.63,0,0,1,1.82,3.29,5.22,5.22,0,0,1-1,4.32,22.15,22.15,0,0,1-4.29,4.36c-1.16.93-2.34,1.83-3.48,2.77-.44.37-.81.83-1.21,1.24a.36.36,0,0,1-.23.11H10.9a.42.42,0,0,1-.24-.09,32.72,32.72,0,0,0-9.24-5.8.34.34,0,0,1-.26-.38c0-3.2,0-6.41,0-9.61a.34.34,0,0,1,.23-.36A5.33,5.33,0,0,1,3.1,7,8.6,8.6,0,0,1,8.19,8,6.23,6.23,0,0,1,9.84,9.26Zm-4,2.29a3.4,3.4,0,0,1,.38.38c.36.5.72,1,1.07,1.54.1.14.2.27,0,.42l0,0,.94-.19c-.06-.13-.16-.24-.14-.34.07-.49.17-1,.26-1.5l.14.17.7,1c.1.14.17.27,0,.44l1-.21a.32.32,0,0,1-.19-.42l0-.13a10.1,10.1,0,0,1,.49-2.2l-1,.21c.06.12.18.23.16.32,0,.43-.13.85-.2,1.33l-.64-.92c-.12-.17-.29-.32,0-.59l-1.25.27v.05c.22,0,.25.19.19.37s0,.21,0,.31c0,.29-.1.58-.16.91l-.72-1c-.1-.14-.21-.28,0-.48Zm7.21,4a2,2,0,0,1,.19.4c.13.53.25,1.06.37,1.59,0,.18.16.38,0,.57.61-.11,1.19-.22,1.76-.36a2.89,2.89,0,0,0,.74-.28.59.59,0,0,0,.28-.63.62.62,0,0,0-.46-.57s-.08,0-.06,0a1.68,1.68,0,0,0,.16-.53c0-.41-.38-.65-.85-.58-.27,0-.55.1-.83.16ZM9.12,17.64a2,2,0,0,0,.17-.53c0-.42-.4-.66-.89-.58s-1,.21-1.51.31L6.36,17a2.34,2.34,0,0,1,.19.44c.13.53.25,1.07.36,1.6a4.17,4.17,0,0,1,0,.52l.75-.16c.47-.1,1-.19,1.42-.33a.73.73,0,0,0,.55-.7A.69.69,0,0,0,9.12,17.64Zm5.48-5.25h.07l2.13-.44a3,3,0,0,1,.52,0l-.16-.68-.39.18a2.27,2.27,0,0,1-.25.06l-1.29.26-.12-.6c.28-.06.52-.12.77-.16a4.17,4.17,0,0,1,.5,0l-.16-.69c-.36.34-.82.25-1.22.4l-.13-.56,1.43-.29a3.67,3.67,0,0,1,.47,0l-.17-.69a1.18,1.18,0,0,1-.28.18c-.48.11-1,.2-1.45.3L14,9.84a1.41,1.41,0,0,1,.2.3q.22.93.42,1.86A2.66,2.66,0,0,1,14.6,12.39ZM14,11.85c-.09.08-.15.18-.23.19-.55.13-1.11.24-1.68.36L12,11.79c.28,0,.53-.12.79-.15a3.88,3.88,0,0,1,.49,0L13.09,11c-.37.31-.82.25-1.22.39l-.13-.56c.45-.09.89-.2,1.33-.28a5,5,0,0,1,.56,0l-.15-.65a2.92,2.92,0,0,1-.37.17l-2,.42-.21.06a2.07,2.07,0,0,1,.18.37c.14.57.26,1.14.39,1.71,0,.16.09.31-.09.46h.16c.48-.09,1-.21,1.43-.29s.79-.29,1.23-.11Zm-8.49.66.17-.65H5.38c-.15,0-.29,0-.44-.06a1.85,1.85,0,0,0-1.51.46.73.73,0,0,0,.34,1.22,1.82,1.82,0,0,0,.52,0l.84-.09c.14,0,.31,0,.35.15s-.09.24-.21.3A1.9,1.9,0,0,1,4.12,14a3.94,3.94,0,0,1-.45-.15l-.11.62h.31a6.35,6.35,0,0,0,.76,0A2,2,0,0,0,5.92,14a.71.71,0,0,0-.3-1.19,1.69,1.69,0,0,0-.5,0c-.36,0-.72.06-1.08.08-.07,0-.21-.06-.21-.1a.3.3,0,0,1,.1-.26,1.16,1.16,0,0,1,.5-.21A1.19,1.19,0,0,1,5.52,12.51Zm5,3.58c.22.13.19.3.14.48s-.08.3-.12.45A10.89,10.89,0,0,1,10,18.89l1-.21.05-.06c-.26,0-.25-.16-.22-.3s.06-.32.3-.34a3.17,3.17,0,0,0,.8-.17c.26-.08.33.12.43.25s0,.2,0,.34l1-.21c-.17-.17-.33-.3-.47-.46-.4-.44-.79-.88-1.18-1.33-.14-.14-.3-.28,0-.54Zm6.67-1.37-.06,0L15.93,15c.2.13.39.24.56.37s.34.32.53.45a1.14,1.14,0,0,1,.56.93c0,.19.16.38-.08.6l.94-.2a2,2,0,0,1-.17-.38,3.65,3.65,0,0,1-.13-.55.57.57,0,0,1,0-.32A5.35,5.35,0,0,1,19,14.3l-1.18.25,0,0c.28.06.21.22.14.38l-.26.56-.47-.4C17.09,15,16.91,14.92,17.2,14.72Zm2.62-5.4-.17-.73a2,2,0,0,1-.41.17q-.93.21-1.86.39a2.12,2.12,0,0,1-.44,0l.16.71c.28-.33.66-.24,1-.37.13.57.26,1.09.36,1.62a2,2,0,0,1,0,.5l.85-.19a2,2,0,0,1-.18-.35c-.09-.36-.17-.73-.25-1.09-.05-.2-.09-.4-.14-.64C19.11,9.36,19.42,9.1,19.82,9.32Z"/><path class="cls-4" d="M25.45,10.74a7.8,7.8,0,0,1-.22,2.52,9.22,9.22,0,0,1-1.7,3.14,25.13,25.13,0,0,1-5.72,5.27c-.86.6-1.68,1.24-2.54,1.83a1.73,1.73,0,0,1-.66.13l0-.07c.08-.09.15-.18.23-.26a23.22,23.22,0,0,1,2.57-2.17,35,35,0,0,0,4.39-3.78A15,15,0,0,0,23.66,15a5.7,5.7,0,0,0,.23-5.74,8.27,8.27,0,0,0-6.38-4.72,7.48,7.48,0,0,0-7.23,2.91l-.09.12s0,0,0,0,0-.05,0-.06a8.09,8.09,0,0,1,3.43-3.63,6.49,6.49,0,0,1,3.85-.63,9.52,9.52,0,0,1,5.79,2.87c.25.25.48.53.72.81.86-.32.95-.31,2.45.2,0-.29.06-.57.07-.85a.31.31,0,0,0-.11-.19,1.86,1.86,0,0,1-.52-1.71,1.4,1.4,0,0,1,1.86-1.14,1.31,1.31,0,0,0,1-.08,5.21,5.21,0,0,1,1.66-.38.8.8,0,0,0,.42-.16A2.56,2.56,0,0,1,32.3,2a2.19,2.19,0,0,1,2,2.61c0,.06,0,.15,0,.18A3.57,3.57,0,0,1,35.39,7a7.75,7.75,0,0,1,0,2.92,3.4,3.4,0,0,1-.68,1.37.45.45,0,0,0-.06.28c0,.24.07.47.09.71a1,1,0,0,1,0,.29l-.22-.08-.09-.88-.2.12a.66.66,0,0,1-.9,0,3,3,0,0,1-.55-.63A6.48,6.48,0,0,1,32,9.22c0-.05,0-.09,0-.16l-.44.13s0,0,0,.06c.08.54,0,.62-.5.73a4.14,4.14,0,0,1-.6.09A2.17,2.17,0,0,1,30,10c.21.17.4.31.57.47a1.73,1.73,0,0,1,.63,1,.29.29,0,0,1-.06.22c-.16.18-.34.33-.54.52a8,8,0,0,0-.75-2.07c-.32,0-.36.28-.35.51,0,.57.09,1.15.14,1.72,0,.08,0,.15,0,.27l-.8-.3c.08.5.15,1,.25,1.48a4.58,4.58,0,0,0,.68,1.65,2.39,2.39,0,0,0,2.5,1.05c.57-.09,1.13-.29,1.69-.43v-.08l-.2-.18a1.92,1.92,0,0,1-.58-2.13c0-.13.08-.26.12-.38a.94.94,0,0,1,1.19-.64,2.34,2.34,0,0,1,.58.2c.69.33,1.37.68,2.06,1a.25.25,0,0,1,.17.36l-.17-.07c-.72-.35-1.43-.72-2.16-1.06a2.83,2.83,0,0,0-.77-.21.5.5,0,0,0-.53.27,2.2,2.2,0,0,0-.28,1.54,2.11,2.11,0,0,0,1.7,1.49,5.69,5.69,0,0,1,.72.12.78.78,0,0,1,.65.72c0,.28.05.56.08.84a.35.35,0,0,1-.22.41,1,1,0,0,1,0-.17c0-.32-.05-.65-.08-1a.63.63,0,0,0-.71-.61,2.09,2.09,0,0,0,1.6,2.2c.23,0,.23,0,.19.31a5.09,5.09,0,0,1-.56-.14,2.38,2.38,0,0,1-1.5-2,1.33,1.33,0,0,1,0-.28c0-.2-.07-.25-.26-.21,0,.26-.08.53-.14.8a2.64,2.64,0,0,1-.71,1.27,1.28,1.28,0,0,1-1.38.22,2,2,0,0,1-1.07-.86c-.21-.33-.35-.69-.53-1a.45.45,0,0,0-.17-.19,2.77,2.77,0,0,1-1.6-1.42,6.64,6.64,0,0,1-.68-2.3c0-.23,0-.52-.09-.67s-.4-.13-.61-.2a12.18,12.18,0,0,1-2.28-1.15Zm7.74-6.06c-.1-.11-.17-.27-.28-.34-.44-.28-.89-.53-1.34-.78a.52.52,0,0,0-.25-.07,1.09,1.09,0,0,1-.85-.39.18.18,0,0,0-.16-.05,4.62,4.62,0,0,0-2.25.71,1.72,1.72,0,0,0-.55.52,8.25,8.25,0,0,0-.62,1.35,3.46,3.46,0,0,0-.07,2.27,7.31,7.31,0,0,0,.35.68l0,0c-.06-.16-.12-.32-.19-.47-.24-.55,0-1.13-.12-1.7A.24.24,0,0,1,27,6.2c.06,0,.14,0,.21.09a2.51,2.51,0,0,1,1.65-.73,2,2,0,0,1,2.18,2.32,1.43,1.43,0,0,1-1.13,1.38l-1.2.22s-.09,0-.1,0c-.05.17-.16.09-.25.06a2.82,2.82,0,0,1-1.53-1,1.89,1.89,0,0,1-1.57,1.2,3.25,3.25,0,0,0,.1.47.44.44,0,0,0,.17.26c.74.41,1.48.82,2.23,1.2a3.73,3.73,0,0,0,.76.23l.08-1.41c-.21,0-.44,0-.66.08s-.18,0-.2-.17,0-.4-.07-.61l1.25-.18c.14,0,.28-.11.42-.13.36-.07.72-.08,1.07-.18a10.52,10.52,0,0,0,1-.43,3.45,3.45,0,0,1,.42-.14A4.53,4.53,0,0,1,33.19,4.68ZM32.11,8v.2a6,6,0,0,0,1,2.92,1.82,1.82,0,0,0,.34.34.44.44,0,0,0,.57,0,2.51,2.51,0,0,0,1-1.51,6.64,6.64,0,0,0-.24-4A2.29,2.29,0,0,0,34,4.93l-.23-.12V5c0,.79,0,1.57.05,2.35a.74.74,0,0,1-.51.74A1.16,1.16,0,0,1,32.11,8Zm-4.59.42a1.28,1.28,0,0,0,1.32.73c.37,0,.72-.13,1.08-.2a1,1,0,0,0,.62-.44,1.87,1.87,0,0,0-.17-2.15A1.94,1.94,0,0,0,28.19,6a1.33,1.33,0,0,0-1,1.66,1.77,1.77,0,0,0,.31.79l.09-.33.57.18a1,1,0,0,0-.23-.6c-.14-.13-.3-.24-.43-.38a.28.28,0,0,1-.05-.2.53.53,0,0,1,.5-.44,2.5,2.5,0,0,0,.26-.07c.41-.12.41-.11.66.21a.17.17,0,0,1,0,.26,6.3,6.3,0,0,0-.37.53.35.35,0,0,0,0,.23c0,.28.3.32.5.38s.19-.12.28-.2a.5.5,0,0,0,.11-.1l.34.21c-.14.18-.27.32-.38.47a.17.17,0,0,1-.25.06l-.54-.2-.16.36Zm3.86,8.25a2.33,2.33,0,0,0,1.42,1.72l-.52-1.54.24-.14.31.94a3,3,0,0,1,.12.4c.08.28.37.27.55.4s.26-.11.37-.2a2.48,2.48,0,0,0,.74-1.7c0-.1,0-.26,0-.28s-.29-.22-.5-.13A5.09,5.09,0,0,1,31.38,16.71ZM34,4.59a1.74,1.74,0,0,0-1-2.08,1.85,1.85,0,0,0-2.3.54c.2.06.39.12.57.16a.16.16,0,0,0,.13,0,1.23,1.23,0,0,1,.9-.3.78.78,0,0,1,.87.61,3.84,3.84,0,0,1,.09.68c0,.31.11.41.41.41Zm-6.16-1A1.22,1.22,0,0,0,26.27,4a1.48,1.48,0,0,0,.28,1.89.46.46,0,0,0-.05-.21,3.89,3.89,0,0,1-.25-.5A.82.82,0,0,1,26.83,4a3,3,0,0,1,.42,0,.29.29,0,0,0,.16,0Zm1,7.39.3-.58C28.83,10.43,28.94,10.34,28.86,11Z"/><path class="cls-4" d="M23.62,23a.76.76,0,0,0-.78-.52,6.47,6.47,0,0,1-1.74-.29,1.44,1.44,0,0,1-.51-2.46,1.18,1.18,0,0,1,1.35-.23,2.59,2.59,0,0,1,.33.17.41.41,0,0,0,.05-.09,1.31,1.31,0,0,1,1.31-1,1.45,1.45,0,0,1,1.3,1.14,1,1,0,0,1-.24.78,5.72,5.72,0,0,0-1,2.07C23.68,22.67,23.65,22.81,23.62,23Z"/><path class="cls-4" d="M9.6,2.24a1,1,0,0,1,.86-.87,1,1,0,0,1,1,.5.74.74,0,0,1,0,.89,4.53,4.53,0,0,0-.89,2.05c-.2-.4-.53-.36-.85-.41a8.68,8.68,0,0,1-1.23-.26,1,1,0,0,1-.67-1,1.22,1.22,0,0,1,.7-1.1,1,1,0,0,1,.77.05Z"/><path class="cls-4" d="M33.93,23.27c-.17-.36-.47-.36-.77-.4s-.82-.12-1.22-.22a1,1,0,0,1-.75-.88,1.19,1.19,0,0,1,.54-1.15.87.87,0,0,1,.77-.09c.12,0,.24.1.38.16l0-.13a1,1,0,0,1,2,.29.81.81,0,0,1-.12.37A4.48,4.48,0,0,0,33.93,23.27Z"/><path class="cls-4" d="M1.16,18.18a32.66,32.66,0,0,1,8.76,5.4,1.26,1.26,0,0,1-.86-.17,35.49,35.49,0,0,0-7.64-4.14.33.33,0,0,1-.26-.4C1.18,18.66,1.16,18.44,1.16,18.18Z"/><path class="cls-4" d="M1.17,6.79c0-.23,0-.47,0-.72a.3.3,0,0,1,.16-.15c.58-.11,1.16-.26,1.74-.32a8.11,8.11,0,0,1,3.75.45A6.68,6.68,0,0,1,9.64,8c.12.14.11.14,0,.29A9.25,9.25,0,0,0,1.17,6.79Z"/><path class="cls-4" d="M26,17.92a.52.52,0,0,0-.17-.57,8.74,8.74,0,0,1-.72-.77.8.8,0,0,1-.09-.95,1,1,0,0,1,.91-.51c.39,0,.6.26.74.62a.89.89,0,0,1,.78-.2.8.8,0,0,1,.64.79.68.68,0,0,1-.53.74A3.59,3.59,0,0,0,26,17.92Z"/><path class="cls-4" d="M3,2.05a.72.72,0,0,1,.75-.49.87.87,0,0,1,.71.5.68.68,0,0,1-.1.79,8.53,8.53,0,0,1-.69.65.5.5,0,0,0-.24.5,3.09,3.09,0,0,0-1.26-.82.59.59,0,0,1-.46-.52A.73.73,0,0,1,2,1.92a.71.71,0,0,1,.78,0A1.67,1.67,0,0,1,3,2.05Z"/><path class="cls-4" d="M28,20.28a.75.75,0,0,1,1.25-.22.72.72,0,0,1,.11,1,6.52,6.52,0,0,1-.7.69.54.54,0,0,0-.26.49A3.66,3.66,0,0,0,27,21.38a.61.61,0,0,1-.28-.8.7.7,0,0,1,.83-.49A3.9,3.9,0,0,1,28,20.28Z"/><path class="cls-4" d="M3.52,23c-.24-.13-.48-.28-.74-.41A.41.41,0,0,1,2.53,22a.44.44,0,0,1,.62-.21l.13.07c.25-.33.54-.37.8-.13a.44.44,0,0,1,.07.61,4.16,4.16,0,0,1-.42.42C3.65,22.82,3.58,22.91,3.52,23Z"/><path class="cls-4" d="M5.76,4.82c-.1-.23-.2-.48-.33-.72s-.13-.51.13-.66a.45.45,0,0,1,.65.25l0,.07c.34-.11.52-.06.66.18a.44.44,0,0,1-.09.6,2.72,2.72,0,0,1-.63.2Z"/><path class="cls-4" d="M22.34,3.77c-.23-.13-.46-.28-.71-.4s-.4-.35-.27-.62A.46.46,0,0,1,22,2.59l.07.05c.25-.31.46-.37.72-.2a.47.47,0,0,1,.15.68,5,5,0,0,1-.4.4C22.48,3.6,22.41,3.7,22.34,3.77Z"/><path class="cls-4" d="M34.79,14.86a.65.65,0,0,1-.62-.58.4.4,0,0,1,.42-.39.65.65,0,0,1,.61.59A.38.38,0,0,1,34.79,14.86Z"/><path class="cls-4" d="M14.11,16.83l1-.22c.08,0,.18,0,.24,0a.55.55,0,0,1,.26.26.37.37,0,0,1-.14.3.74.74,0,0,1-.36.12l-.88.19Z"/><path class="cls-4" d="M14,16.36l-.11-.49c.4-.08.79-.16,1.19-.22.07,0,.2.1.24.18s0,.23-.17.26Z"/><path class="cls-4" d="M7.57,18.88l-.15-.66c.4-.08.8-.16,1.19-.22a.3.3,0,0,1,.36.28.29.29,0,0,1-.24.34C8.35,18.72,8,18.8,7.57,18.88Z"/><path class="cls-4" d="M7.2,17.27c.4-.08.76-.16,1.13-.22.14,0,.27,0,.31.17s-.07.25-.21.28l-1.11.25Z"/><path class="cls-4" d="M11.77,17.45l-.81.17.21-.86Z"/><path class="cls-4" d="M30.33,5.57a.4.4,0,0,1,.41-.4.44.44,0,0,1,.43.43.4.4,0,0,1-.41.4A.44.44,0,0,1,30.33,5.57Z"/></g></g></svg>