<svg xmlns="http://www.w3.org/2000/svg" viewBox="0 0 38.55 24.66"><defs><style>.cls-1{isolation:isolate;}.cls-2{opacity:0.15;}.cls-2,.cls-3{mix-blend-mode:multiply;}.cls-4{fill:#fff;}</style></defs><title>convert-FIX-SVG-03</title><g class="cls-1"><g id="Layer_1" data-name="Layer 1"><g class="cls-2"><path d="M24.9,7.09A1.25,1.25,0,0,1,25,6.78a.38.38,0,0,1,.66.11,2.69,2.69,0,0,1,0,.64.86.86,0,0,0,0,.28,8.64,8.64,0,0,1,.6,1.91l0,.1.06,0c0-.09.13-.18.12-.28a21.14,21.14,0,0,0-.42-4.2.53.53,0,0,0-.2-.29c-.35-.24-.73-.44-1.06-.69a2.72,2.72,0,0,1-.58-.64.85.85,0,0,1,.21-1.2.81.81,0,0,1,1.13.19l.06.06c0-.08,0-.15.07-.22A.8.8,0,0,1,26.51,2a.89.89,0,0,1,.84.66,1.76,1.76,0,0,1-.15,1.11c-.19.4-.41.78-.62,1.16a.94.94,0,0,0-.13.7,24,24,0,0,1,.38,3.59.57.57,0,0,1,0,.19c.24-.94.48-1.88.75-2.81a.78.78,0,0,0,0-.6,2.26,2.26,0,0,1-.27-1.14.61.61,0,0,1,.84-.57.66.66,0,0,1,.35.57l.13-.09a.54.54,0,0,1,.68,0,.57.57,0,0,1,.14.73,2.67,2.67,0,0,1-.64.57,5.6,5.6,0,0,1-.74.35.38.38,0,0,0-.17.16,15.54,15.54,0,0,0-.71,2.88l2.51-.09.07-.12a.57.57,0,0,1-.19-.1,2.11,2.11,0,0,1-.65-1.38,1.58,1.58,0,0,1,1.38-1.69.77.77,0,0,0,.46-.22,2.65,2.65,0,0,1,1.36-.72A.28.28,0,0,0,32.34,5a.61.61,0,0,1,.69-.4.73.73,0,0,1,.68.51.29.29,0,0,0,.14.15L35,5.59a1.12,1.12,0,0,1,.77.88c.09.44.18.88.25,1.32a2.78,2.78,0,0,1-1.52,3.14.25.25,0,0,0-.09.22,11.91,11.91,0,0,1-.13,2.46,8.06,8.06,0,0,1-.86,2.53.87.87,0,0,0-.09.36,15.76,15.76,0,0,1-.61,4.63c0,.09-.08.18-.11.27a1.74,1.74,0,0,1-1.42,1.13,2.93,2.93,0,0,1-1.93-.25,2.08,2.08,0,0,1-.92-1,.58.58,0,0,0-.21-.23.83.83,0,0,1-.31-1.34,3.89,3.89,0,0,1,.38-.43,2.45,2.45,0,0,0,.68-2.17c0-.16-.07-.31-.11-.47a2.56,2.56,0,0,0-.51-1.14A5,5,0,0,1,28,15a3.66,3.66,0,0,0-.38-.5.88.88,0,0,1,.07-1.42.93.93,0,0,0,.21-.33c.11-.27.21-.55.3-.79a2.94,2.94,0,0,0-1.26-.55v2.09l-.37,0c-.1-.89-.19-1.74-.29-2.6a1,1,0,0,0-.1-.21.8.8,0,0,1,0-.21,3.33,3.33,0,0,0,0-.55c-.13-.52-.27-1-.43-1.54a.36.36,0,0,0-.2-.2c-.2-.08-.41-.11-.6-.19a1.34,1.34,0,0,1-.43-.26.39.39,0,0,1,.42-.65Zm5.57,15.23c1.3-.06,1.63-.31,2-1.3a7,7,0,0,0,.43-2q.11-1.29.15-2.58a1.69,1.69,0,0,0-.34-1.07A1,1,0,0,0,31.55,15a8.52,8.52,0,0,1-.85.17.79.79,0,0,0-.82.82,3,3,0,0,0,.19,1.26,1.71,1.71,0,0,1-.89,2.27,1.28,1.28,0,0,0-.55,1.69A2,2,0,0,0,30.47,22.32Zm-.17-13a6,6,0,0,0,2.41,1.4,2.35,2.35,0,0,0,2.6-.8,2.9,2.9,0,0,0,.39-2.51,2.46,2.46,0,0,1-1,1.11A.45.45,0,0,1,34,8.3.9.9,0,0,1,34,7.5a.33.33,0,0,0,0-.22C34,7,34,6.79,34,6.55l0,0c-.1-.11-.26-.2-.28-.32-.05-.34.19-.53.5-.65a2.93,2.93,0,0,0-3.34.58c.06.13.13.25.18.38a2.05,2.05,0,0,1-.28,2.15A5.58,5.58,0,0,0,30.3,9.36Zm-.36,5.58a5.19,5.19,0,0,0,2.91-.9,2.18,2.18,0,0,0,1.08-1.54c.08-.78-.14-1.17-.83-1.35a1.72,1.72,0,0,0-.6,0,2.79,2.79,0,0,0-1.43.59,4.77,4.77,0,0,1-1.78.87,2.75,2.75,0,0,0-1.39.77.73.73,0,0,0-.19.66,1,1,0,0,0,.85.75C29,14.85,29.48,14.88,29.94,14.94Zm-.38-8.21a.45.45,0,0,1-.09.71c-.21.15-.18.33-.16.56l.26-.14.19.28-.4.28a1.77,1.77,0,0,0,.69.78l.55-.81a1.27,1.27,0,0,0,.13-.22,2,2,0,0,0-.14-1.73.23.23,0,0,0-.2-.1A1.46,1.46,0,0,0,29.56,6.73Zm-1.38,5.95c.48-.17.94-.32,1.39-.49a9.17,9.17,0,0,0,.9-.41.18.18,0,0,0,.09-.16c0-.27-.12-.54-.2-.84l-.27.37h0l.25-.77c-.17-.1-.3-.16-.46,0a4.77,4.77,0,0,0-1.41,1.71C28.35,12.27,28.27,12.48,28.18,12.68Zm1.64-3.1-.35.06-2,.08c-.33,0-.35,0-.36.36.7.25,1.31,1,1.17,1.55a.47.47,0,0,0,.18-.12c.23-.29.44-.59.68-.87A2.42,2.42,0,0,0,29.82,9.58ZM28.21,20.71s0,0,0,0a1.64,1.64,0,0,1,1-1.53,1.24,1.24,0,0,0,.69-1.37,10,10,0,0,0-.27-1.08.18.18,0,0,0-.08-.09L29,16.35l.06.24a2.74,2.74,0,0,1,.1,1.42,2.94,2.94,0,0,1-.85,1.55,1.5,1.5,0,0,0-.38.57C27.82,20.38,27.94,20.59,28.21,20.71ZM33.92,6.22l.27,0c.4,0,.64.21.53.6a2.86,2.86,0,0,1-.4.8.58.58,0,0,0-.06.67.22.22,0,0,0,.22.07,1.8,1.8,0,0,0,1-1.26.94.94,0,0,0-1.07-1.25C34.13,5.86,34,6,33.92,6.22Zm-.67,9.62a6.42,6.42,0,0,0,.8-2.73,3.7,3.7,0,0,1-1.77,1.59A1.59,1.59,0,0,1,33.25,15.84Zm-3.72.47.27-1.1L28.31,15A3.23,3.23,0,0,0,29.53,16.31Zm1.19-6.08c-.17.2-.14.4.08.6.39.36.71.39,1,.12Zm2.72-5.12A.53.53,0,0,0,33,4.83a.32.32,0,0,0-.34.23Zm.69,6-.33.07.38.54Zm-3.3.47.25-.18-.35-.21Z"/><path d="M14.85,17.86s0,0,0,0c.14-.55.49-.8,1-.7a.91.91,0,0,1,.69,1,3.3,3.3,0,0,1-.42,1.21l-.62,1.09c-.46-.29-1-.59-1.43-.92a1.89,1.89,0,0,1-.74-.91.84.84,0,0,1,.87-1.12A2.4,2.4,0,0,1,14.85,17.86Z"/><path d="M5.12,6.86,4,6.2a2.84,2.84,0,0,1-1-1,.84.84,0,0,1,0-.9.78.78,0,0,1,1.27-.18,1.93,1.93,0,0,1,.16.19.74.74,0,0,0,0-.15.82.82,0,0,1,.92-.68.9.9,0,0,1,.75,1,3.1,3.1,0,0,1-.42,1.23Z"/><path d="M16,4.37c0-.12,0-.17,0-.21a.79.79,0,0,1,.88-.63.86.86,0,0,1,.76.82,2.55,2.55,0,0,1-.39,1.4l-.64,1.14c-.51-.33-1-.66-1.54-1A1.54,1.54,0,0,1,14.47,5a.87.87,0,0,1,.44-1,.78.78,0,0,1,.95.17S15.93,4.28,16,4.37Z"/><path d="M5.75,11.54l-.81-1.43a3.77,3.77,0,0,0,0,1.42H4.32c0-.16.06-.32.07-.47,0-.49,0-1,0-1.46a2.61,2.61,0,0,0-.08-.36h1c-.2.16-.09.3,0,.44.17.31.35.62.55,1,.23-.41.45-.78.65-1.16,0-.06,0-.16,0-.26h.87a3.49,3.49,0,0,0-.07.43c0,.49,0,1,0,1.46a2.12,2.12,0,0,0,.08.41H6.57a3.73,3.73,0,0,0,.08-.44,5.3,5.3,0,0,0-.05-1Z"/><path d="M20.21,15.51h-.88c.11-.4-.25-.57-.38-.84s-.25-.16-.64-.1a1.35,1.35,0,0,0,.1.94h-.75a4.61,4.61,0,0,0,.07-.5c0-.44,0-.89,0-1.33a3,3,0,0,0-.07-.49h.51c.46,0,.91,0,1.36,0a.55.55,0,0,1,.58.55c0,.39-.1.56-.5.69l-.16.06Zm-1.92-1.39c.35,0,.68,0,1,0a.24.24,0,0,0,.26-.25.22.22,0,0,0-.24-.24c-.33,0-.67,0-1,0Z"/><path d="M21,10.58c.05.32-.1.64.14.94h-.76a2.36,2.36,0,0,0,.07-.44c0-.49,0-1,0-1.46a2.26,2.26,0,0,0-.08-.39H22a1.73,1.73,0,0,1,.32,0,.55.55,0,0,1,.51.53.58.58,0,0,1-.43.69l-.23.07.76,1H22c.12-.39-.26-.57-.4-.85S21.51,10.54,21,10.58Zm0-.94v.5h1c.15,0,.27-.07.27-.24A.22.22,0,0,0,22,9.65Z"/><path d="M21.48,6.36l.15-.1a.55.55,0,0,1,.69,0,.58.58,0,0,1,.13.71,1.33,1.33,0,0,1-.65.59l-1.05.48c-.15-.51-.32-1-.45-1.51a.69.69,0,0,1,.19-.66.59.59,0,0,1,.61-.14C21.33,5.85,21.43,6,21.48,6.36Z"/><path d="M14.26,14.38a1.18,1.18,0,0,1-1.21,1.18,2.39,2.39,0,0,1-.6-.05,1.13,1.13,0,0,1-.91-1.17,1.1,1.1,0,0,1,.94-1.13,2.48,2.48,0,0,1,.94,0A1.08,1.08,0,0,1,14.26,14.38Zm-1.35.77a.79.79,0,1,0,0-1.57.79.79,0,1,0,0,1.57Z"/><path d="M15.29,10.16c.36-.05.72.07,1.07-.1v.59c-.34-.16-.7,0-1.07-.09v.53A4.26,4.26,0,0,0,17,11v.6a1.65,1.65,0,0,0-.32-.06h-2a5.62,5.62,0,0,0,.06-.56c0-.44,0-.88,0-1.31a2.76,2.76,0,0,0-.07-.45h1.91a1.55,1.55,0,0,0,.35-.07v.57a1.53,1.53,0,0,0-.36-.07H15.29Z"/><path d="M13.48,10.54H12.14c0,.33-.1.67.13,1h-.75c0-.18.06-.35.07-.53,0-.44,0-.88,0-1.31,0-.15-.05-.3-.07-.46h.76c-.24.27-.1.57-.14.86h1.32c-.05-.28.11-.59-.15-.86h.76c0,.2-.05.39-.06.59q0,.62,0,1.23a4.28,4.28,0,0,0,.07.48h-.75C13.58,11.22,13.39,10.88,13.48,10.54Z"/><path d="M22.7,13.46l-.25.48a1.25,1.25,0,0,0-1.37-.26.3.3,0,0,0-.12.21.26.26,0,0,0,.18.14c.29.05.58.06.86.1a2.22,2.22,0,0,1,.37.09.63.63,0,0,1,.4.53.62.62,0,0,1-.29.6,1.79,1.79,0,0,1-1.41.15c-.21-.05-.41-.12-.64-.19l.22-.51a1.41,1.41,0,0,0,1.46.24c.06,0,.12-.14.1-.2a.22.22,0,0,0-.17-.15c-.25,0-.5-.07-.75-.1l-.32,0a.6.6,0,0,1-.5-.55.62.62,0,0,1,.32-.66,1.65,1.65,0,0,1,1.47,0Z"/><path d="M7.71,13.46l-.25.48a1.25,1.25,0,0,0-1.32-.28c-.08,0-.13.15-.19.22a.8.8,0,0,0,.23.16c.27,0,.54.05.82.09a1.55,1.55,0,0,1,.42.12.63.63,0,0,1,.09,1.08,1.59,1.59,0,0,1-1.16.22c-.23,0-.45-.12-.67-.17l-.25-.05.23-.54a.75.75,0,0,0,.66.32,3.16,3.16,0,0,0,.75,0c.06,0,.14-.14.15-.22s-.11-.14-.19-.15c-.25,0-.51-.06-.77-.1a2.45,2.45,0,0,1-.39-.08.56.56,0,0,1-.4-.54.6.6,0,0,1,.28-.6,1.58,1.58,0,0,1,1.42-.1Z"/><path d="M14.64,13.21h.71a4,4,0,0,0-.07.46c0,.3,0,.6,0,.91a.48.48,0,0,0,.53.56h.26a.48.48,0,0,0,.51-.53c0-.37,0-.74,0-1.12a1,1,0,0,0-.11-.27h.76c-.2.16-.13.37-.14.57,0,.37,0,.73,0,1.1a.64.64,0,0,1-.5.59,2.27,2.27,0,0,1-1.29,0,.67.67,0,0,1-.54-.71c0-.39,0-.78,0-1.17A1.59,1.59,0,0,0,14.64,13.21Z"/><path d="M20.08,11.52h-.92c.22-.14.14-.3,0-.44A.37.37,0,0,0,19,11c-.24,0-.48,0-.72,0s-.27.09-.31.24a1.25,1.25,0,0,0,0,.34h-.77a4.61,4.61,0,0,0,.67-1.15c.13-.23.24-.47.36-.7s.15-.28-.1-.43h1c-.25.2-.07.38,0,.55.22.41.44.82.67,1.23C19.86,11.19,20,11.35,20.08,11.52ZM18.56,9.9l-.34.7h.71Z"/><path d="M8.92,10a5.14,5.14,0,0,0,.37-.53c0-.06,0-.17,0-.28h.9l-.85,1.08a.55.55,0,0,0-.14.42c0,.13,0,.26,0,.38s.05.27.08.42H8.49a1.3,1.3,0,0,0-.05-1.24c-.15-.21-.3-.41-.46-.61s-.26-.29-.41-.45h1.1c-.27.15-.16.28-.06.41Z"/><path d="M10.32,14l.46-.66-.19-.1,0,0h.94c-.28.36-.58.72-.86,1.1a.92.92,0,0,0-.13.36,2.46,2.46,0,0,0,0,.47,2.85,2.85,0,0,0,.08.35H9.88c.24-.29.09-.63.13-1a.25.25,0,0,0-.06-.13c-.23-.31-.47-.62-.71-.92A1.92,1.92,0,0,0,9,13.22H10c-.26.18-.1.31,0,.46Z"/><path d="M25.47,9.14v.45c0,.05,0,.09,0,.15-.28-.2-.58-.06-.9-.11v.56c0,.31,0,.61,0,.91a3.1,3.1,0,0,0,.08.42h-.78c.21-.17.14-.39.14-.6,0-.42,0-.84,0-1.29-.31,0-.6-.08-.89.1V9.15a2.33,2.33,0,0,0,.35.06h1.67A1.63,1.63,0,0,0,25.47,9.14Z"/><path d="M11.12,21.22a1.29,1.29,0,0,1,.22-.37.39.39,0,0,1,.62.25,3,3,0,0,1,0,.67c0,.18-.08.35-.13.58-.34-.13-.69-.24-1-.4a.52.52,0,0,1-.25-.34C10.47,21.26,10.77,21.08,11.12,21.22Z"/><path d="M6.84,17.35a1.31,1.31,0,0,1,.46-.08.37.37,0,0,1,.23.57,3.16,3.16,0,0,1-.4.42L7,18.32l-.51.32c-.15-.32-.32-.62-.44-.94a.45.45,0,0,1,.26-.63C6.57,17,6.71,17.09,6.84,17.35Z"/><path d="M3.8,20.89c.07,0,.14-.12.21-.12a.69.69,0,0,1,.38.09.33.33,0,0,1,.1.42,1.69,1.69,0,0,1-.37.43c-.19.15-.42.27-.66.43a8.47,8.47,0,0,1-.44-1c-.12-.35.1-.66.41-.6.14,0,.27.18.4.27Z"/><path d="M9.33,3.53c0-.32.17-.46.4-.46a.43.43,0,0,1,.41.5c0,.35-.09.7-.14,1.06l-.64-.18A2.17,2.17,0,0,1,9,4.26a.44.44,0,0,1-.22-.6C8.84,3.46,9,3.42,9.33,3.53Z"/><path d="M24.44,15.77a1.52,1.52,0,0,1,.49-.07.36.36,0,0,1,.21.55,2.14,2.14,0,0,1-.41.44c-.18.14-.38.24-.6.38-.15-.33-.32-.65-.44-1a.42.42,0,0,1,.34-.6A.35.35,0,0,1,24.44,15.77Z"/><path d="M25.87,18.5c0-.05,0-.09,0-.12.05-.22.16-.34.36-.34a.38.38,0,0,1,.41.32,2.92,2.92,0,0,1,0,.66,4.22,4.22,0,0,1-.13.57c-.28-.09-.57-.16-.85-.27a1.07,1.07,0,0,1-.38-.32.35.35,0,0,1,0-.45C25.47,18.38,25.65,18.4,25.87,18.5Z"/><path d="M21.34,20.41c.21-.18.39-.19.56,0a.42.42,0,0,1,0,.62,4.44,4.44,0,0,1-.59.46c-.09.07-.19.12-.33.22a10.79,10.79,0,0,1-.45-1.08.4.4,0,0,1,.53-.49C21.15,20.16,21.23,20.3,21.34,20.41Z"/><path d="M21.17,3.34a1.69,1.69,0,0,1,.47-.09.36.36,0,0,1,.25.51,2.73,2.73,0,0,1-.42.48,1.61,1.61,0,0,1-.31.19l-.28.19c-.13-.24-.27-.47-.38-.71a1.34,1.34,0,0,1-.1-.45A.39.39,0,0,1,20.74,3c.18,0,.33.06.42.27Z"/><path d="M11.93,8.2l-.4-.76a.77.77,0,0,1-.07-.26c0-.3.06-.48.28-.54s.38,0,.51.32c.07,0,.14-.12.21-.12a.52.52,0,0,1,.36.07A.48.48,0,0,1,13,7.3a1,1,0,0,1-.3.42C12.44,7.89,12.19,8,11.93,8.2Z"/><path d="M2.78,13.43c-.31-.1-.6-.17-.88-.29a.82.82,0,0,1-.36-.33.34.34,0,0,1,.08-.44.36.36,0,0,1,.46,0,1.53,1.53,0,0,1,.29-.4.39.39,0,0,1,.57.31,3.43,3.43,0,0,1,0,.64A4.46,4.46,0,0,1,2.78,13.43Z"/><path d="M5,13.22c0,.15-.06.3-.07.45,0,.47,0,.94,0,1.42a2.3,2.3,0,0,0,.07.42H4.25c.2-.18.14-.4.14-.61,0-.43,0-.86,0-1.28a3.14,3.14,0,0,0-.08-.4Z"/><path d="M32,16.29a.46.46,0,0,1-.45.48.5.5,0,1,1,.45-.48Z"/><path d="M31.88,7.23c0,.28-.18.5-.34.5s-.21-.12-.21-.26.19-.44.34-.4S31.84,7.19,31.88,7.23Z"/><path d="M32.51,12.36a.5.5,0,0,1,.47-.52.34.34,0,0,1,.33.38.55.55,0,0,1-.47.55C32.64,12.77,32.51,12.61,32.51,12.36Z"/><path d="M25.1,7.29A1.52,1.52,0,0,1,25.22,7a.38.38,0,0,1,.66.11,2.33,2.33,0,0,1,0,.65c0,.09,0,.2,0,.28a8.64,8.64,0,0,1,.6,1.91.44.44,0,0,1,0,.1l.07,0c0-.09.12-.19.12-.28a21.14,21.14,0,0,0-.42-4.2.5.5,0,0,0-.2-.29c-.35-.24-.73-.44-1.06-.69a2.52,2.52,0,0,1-.58-.64.85.85,0,0,1,.21-1.2.81.81,0,0,1,1.13.19l.06.06c0-.08,0-.15.07-.22a.8.8,0,0,1,.76-.59.89.89,0,0,1,.84.66A1.7,1.7,0,0,1,27.39,4c-.18.4-.4.78-.61,1.15a1,1,0,0,0-.13.71A22.64,22.64,0,0,1,27,9.4a.31.31,0,0,1,0,.19c.25-.94.49-1.88.75-2.81a.74.74,0,0,0,0-.6A2.38,2.38,0,0,1,27.46,5a.63.63,0,0,1,.85-.58.67.67,0,0,1,.35.58L28.79,5a.53.53,0,0,1,.68,0,.57.57,0,0,1,.14.73,2.91,2.91,0,0,1-.64.57,6.27,6.27,0,0,1-.74.35.4.4,0,0,0-.18.16,16.38,16.38,0,0,0-.71,2.88l2.52-.09.06-.12c-.06,0-.13,0-.18-.1A2.17,2.17,0,0,1,29.08,8a1.59,1.59,0,0,1,1.39-1.69.83.83,0,0,0,.46-.22,2.61,2.61,0,0,1,1.36-.72.28.28,0,0,0,.25-.18.61.61,0,0,1,.69-.4.73.73,0,0,1,.68.51.26.26,0,0,0,.14.15l1.16.37a1.12,1.12,0,0,1,.78.87c.09.45.18.88.25,1.33a2.79,2.79,0,0,1-1.52,3.14.28.28,0,0,0-.1.21,11.34,11.34,0,0,1-.12,2.47,8.32,8.32,0,0,1-.86,2.53.71.71,0,0,0-.09.36,15.44,15.44,0,0,1-.62,4.63c0,.09-.07.18-.11.27a1.73,1.73,0,0,1-1.41,1.13,2.92,2.92,0,0,1-1.93-.25,2.08,2.08,0,0,1-.92-1,.54.54,0,0,0-.22-.23.83.83,0,0,1-.3-1.34,3.16,3.16,0,0,1,.38-.43,2.46,2.46,0,0,0,.68-2.17c0-.16-.07-.32-.11-.47a2.77,2.77,0,0,0-.51-1.15,3.94,3.94,0,0,1-.31-.48,4.7,4.7,0,0,0-.38-.5.88.88,0,0,1,.07-1.42,1,1,0,0,0,.21-.33c.11-.27.21-.55.3-.79a3,3,0,0,0-1.26-.55v2.09l-.37,0c-.1-.89-.19-1.75-.29-2.6a1,1,0,0,0-.1-.21.59.59,0,0,1-.05-.22,2.42,2.42,0,0,0,0-.54c-.12-.52-.26-1-.42-1.54a.37.37,0,0,0-.2-.21c-.2-.07-.41-.1-.61-.18a1.9,1.9,0,0,1-.43-.26.39.39,0,0,1-.06-.54A.37.37,0,0,1,25,7.26Zm5.57,15.23c1.3-.06,1.63-.31,2-1.3a7.36,7.36,0,0,0,.43-2q.11-1.29.15-2.58a1.69,1.69,0,0,0-.34-1.07,1.07,1.07,0,0,0-1.18-.39,6,6,0,0,1-.84.18.78.78,0,0,0-.82.81,3.07,3.07,0,0,0,.19,1.27,1.71,1.71,0,0,1-.89,2.27,1.28,1.28,0,0,0-.55,1.69A1.94,1.94,0,0,0,30.67,22.52Zm-.17-13A6.13,6.13,0,0,0,32.91,11a2.36,2.36,0,0,0,2.6-.8,2.94,2.94,0,0,0,.39-2.51,2.42,2.42,0,0,1-1,1.11.45.45,0,0,1-.7-.27.88.88,0,0,1,0-.79.33.33,0,0,0,0-.22c0-.25-.07-.49-.1-.73l0,0c-.1-.11-.26-.2-.28-.32,0-.34.19-.53.49-.66A2.94,2.94,0,0,0,31,6.4c.06.12.13.25.18.38a2.05,2.05,0,0,1-.28,2.15A4.81,4.81,0,0,0,30.5,9.56Zm-.36,5.58a5.22,5.22,0,0,0,2.91-.9,2.2,2.2,0,0,0,1.08-1.54c.08-.78-.14-1.17-.83-1.35a1.72,1.72,0,0,0-.6,0,2.68,2.68,0,0,0-1.43.59,4.81,4.81,0,0,1-1.79.87,2.72,2.72,0,0,0-1.38.77.71.71,0,0,0-.19.66,1,1,0,0,0,.85.75C29.21,15.05,29.68,15.08,30.14,15.14Zm-.38-8.21a.46.46,0,0,1-.09.71c-.21.15-.18.33-.16.55l.26-.13.19.28-.41.28a1.83,1.83,0,0,0,.69.78c.2-.28.38-.55.56-.82a1.2,1.2,0,0,0,.13-.21,2,2,0,0,0-.14-1.73.23.23,0,0,0-.2-.1A1.4,1.4,0,0,0,29.76,6.93Zm-1.38,6c.48-.17.94-.32,1.39-.49a9.17,9.17,0,0,0,.9-.41.18.18,0,0,0,.09-.16c-.05-.27-.13-.54-.2-.84l-.27.37h0l.24-.77c-.16-.1-.29-.16-.45,0a4.89,4.89,0,0,0-1.41,1.72ZM30,9.78l-.35.06-2.05.08c-.32,0-.34,0-.35.36.7.24,1.31,1,1.17,1.55a.47.47,0,0,0,.18-.12c.23-.29.43-.6.68-.87A2.5,2.5,0,0,0,30,9.78ZM28.41,20.91s0,0,0,0a1.63,1.63,0,0,1,1-1.53A1.24,1.24,0,0,0,30.1,18c-.06-.37-.18-.72-.27-1.08a.18.18,0,0,0-.08-.09l-.54-.26.06.24a2.85,2.85,0,0,1,.1,1.42,2.91,2.91,0,0,1-.85,1.54,1.54,1.54,0,0,0-.38.58C28,20.58,28.13,20.79,28.41,20.91ZM34.12,6.42l.27,0c.4,0,.64.21.53.6a2.68,2.68,0,0,1-.4.79.59.59,0,0,0-.06.68s.17.1.22.07a1.8,1.8,0,0,0,1-1.26A.94.94,0,0,0,34.64,6C34.33,6.06,34.15,6.2,34.12,6.42ZM33.45,16a6.34,6.34,0,0,0,.8-2.72,3.81,3.81,0,0,1-1.77,1.59A1.6,1.6,0,0,1,33.45,16Zm-3.72.48.27-1.1-1.49-.19A3.16,3.16,0,0,0,29.73,16.51Zm1.18-6.08c-.16.19-.13.4.09.6.39.36.7.39,1,.12Zm2.73-5.12A.54.54,0,0,0,33.15,5a.32.32,0,0,0-.35.22Zm.69,6-.33.07.37.54ZM31,11.72l.26-.17-.36-.22Z"/><path d="M15.05,18.05s0,0,0,0a.8.8,0,0,1,1-.69.89.89,0,0,1,.68,1,2.88,2.88,0,0,1-.42,1.2l-.61,1.1c-.46-.3-1-.6-1.43-.92a1.89,1.89,0,0,1-.74-.91.84.84,0,0,1,.86-1.12A2.57,2.57,0,0,1,15.05,18.05Z"/><path d="M5.31,7.06,4.24,6.39a2.74,2.74,0,0,1-1-1,.84.84,0,0,1,0-.9.79.79,0,0,1,1.27-.19,2.3,2.3,0,0,1,.16.2c0-.09,0-.12,0-.15.15-.5.5-.76.92-.68a.91.91,0,0,1,.75,1A3.27,3.27,0,0,1,5.93,6Z"/><path d="M16.21,4.57a1.26,1.26,0,0,1,0-.22.78.78,0,0,1,.87-.62.86.86,0,0,1,.77.82A2.58,2.58,0,0,1,17.5,6c-.21.38-.43.76-.65,1.14-.5-.33-1-.66-1.54-1a1.54,1.54,0,0,1-.64-.91.86.86,0,0,1,.44-.94.76.76,0,0,1,.94.17A1.26,1.26,0,0,1,16.21,4.57Z"/><path d="M6,11.73,5.14,10.3a3.82,3.82,0,0,0,0,1.43H4.52a4,4,0,0,0,.06-.47c0-.49,0-1,0-1.46a1.63,1.63,0,0,0-.07-.36h1c-.2.16-.09.3,0,.44.17.31.35.62.55,1,.23-.41.45-.78.65-1.16,0-.06,0-.16,0-.26h.88a2.26,2.26,0,0,0-.07.43c0,.48,0,1,0,1.46a2.27,2.27,0,0,0,.08.41H6.77a3.54,3.54,0,0,0,.08-.45,5.24,5.24,0,0,0,0-1Z"/><path d="M20.41,15.71h-.89c.11-.4-.24-.57-.38-.84s-.24-.16-.63-.1a1.35,1.35,0,0,0,.1.94h-.76a3.23,3.23,0,0,0,.08-.5c0-.44,0-.89,0-1.33a3,3,0,0,0-.07-.49h.51c.45,0,.91,0,1.35,0a.55.55,0,0,1,.59.55c0,.39-.11.56-.51.69l-.15.06Zm-1.92-1.39h1a.24.24,0,0,0,.26-.25.22.22,0,0,0-.24-.24h-1Z"/><path d="M21.19,10.78c0,.31-.1.64.14.94h-.76a2.34,2.34,0,0,0,.07-.45c0-.48,0-1,0-1.45a1.93,1.93,0,0,0-.08-.39h1.63a1.63,1.63,0,0,1,.31,0A.55.55,0,0,1,23,10a.58.58,0,0,1-.43.68l-.23.08.76,1h-.88c.12-.39-.27-.57-.4-.86C21.78,10.73,21.71,10.74,21.19,10.78Zm0-.94v.5h1c.15,0,.27-.07.27-.24a.24.24,0,0,0-.25-.26Z"/><path d="M21.68,6.56l.15-.1a.54.54,0,0,1,.68,0,.59.59,0,0,1,.14.71A1.38,1.38,0,0,1,22,7.8L21,8.28c-.15-.51-.32-1-.45-1.51a.68.68,0,0,1,.19-.66A.57.57,0,0,1,21.3,6C21.52,6,21.63,6.21,21.68,6.56Z"/><path d="M14.46,14.58a1.18,1.18,0,0,1-1.21,1.18,2.39,2.39,0,0,1-.6,0,1.13,1.13,0,0,1-.91-1.17,1.1,1.1,0,0,1,.94-1.13,2.42,2.42,0,0,1,.93,0A1.09,1.09,0,0,1,14.46,14.58Zm-1.35.76a.75.75,0,0,0,.79-.78.77.77,0,0,0-.82-.79.79.79,0,1,0,0,1.57Z"/><path d="M15.49,10.35c.36,0,.72.08,1.07-.09v.59a3.19,3.19,0,0,0-1.07-.09v.53a4.26,4.26,0,0,0,1.67-.08v.6a3,3,0,0,0-.32-.07h-2c0-.2.06-.38.06-.56,0-.44,0-.88,0-1.31a3,3,0,0,0-.08-.46h1.92a1.67,1.67,0,0,0,.35-.07v.57a1.53,1.53,0,0,0-.36-.07H15.49Z"/><path d="M13.67,10.73H12.34c.05.34-.1.68.13,1h-.75c0-.18.06-.36.07-.53,0-.44,0-.88,0-1.31,0-.15,0-.3-.07-.46h.76c-.24.26-.1.56-.14.86h1.32c-.05-.29.11-.59-.15-.86h.76a5.9,5.9,0,0,0-.06.59q0,.62,0,1.23a2.93,2.93,0,0,0,.07.48h-.76C13.77,11.42,13.59,11.08,13.67,10.73Z"/><path d="M22.9,13.65l-.25.49a1.23,1.23,0,0,0-1.37-.26.3.3,0,0,0-.12.21c0,.05.11.13.18.14l.86.1a2.49,2.49,0,0,1,.37.09A.61.61,0,0,1,23,15a.59.59,0,0,1-.29.6,1.87,1.87,0,0,1-1.41.15c-.2,0-.4-.12-.63-.19l.22-.51a1.4,1.4,0,0,0,1.46.24.26.26,0,0,0,.1-.21c0-.06-.1-.13-.17-.15-.25,0-.5-.06-.76-.09l-.31,0A.65.65,0,0,1,21,13.54a1.65,1.65,0,0,1,1.47,0Z"/><path d="M7.91,13.65l-.25.48a1.29,1.29,0,0,0-1.33-.28c-.07,0-.12.15-.18.23s.15.14.23.15c.27,0,.54.06.81.1a1.25,1.25,0,0,1,.43.12.63.63,0,0,1,.08,1.08,1.55,1.55,0,0,1-1.15.22,5.09,5.09,0,0,1-.67-.18l-.25-.05L5.85,15a.77.77,0,0,0,.67.32,3.16,3.16,0,0,0,.75-.05A.29.29,0,0,0,7.41,15s-.11-.14-.18-.16c-.25,0-.52-.06-.77-.09a2.24,2.24,0,0,1-.39-.08.59.59,0,0,1-.41-.54.6.6,0,0,1,.29-.6,1.58,1.58,0,0,1,1.42-.1Z"/><path d="M14.84,13.41h.71a2.46,2.46,0,0,0-.07.45c0,.31,0,.61,0,.91s.16.54.53.57h.26a.48.48,0,0,0,.51-.53c0-.37,0-.75,0-1.12a1.18,1.18,0,0,0-.11-.27h.76c-.2.15-.13.37-.14.57,0,.37,0,.73,0,1.1a.64.64,0,0,1-.5.59,2.36,2.36,0,0,1-1.29,0,.67.67,0,0,1-.54-.72c0-.38,0-.77,0-1.16A2.26,2.26,0,0,0,14.84,13.41Z"/><path d="M20.28,11.72h-.92c.22-.14.14-.3,0-.44a.45.45,0,0,0-.23-.13c-.24,0-.48,0-.72,0s-.27.09-.31.24a1.25,1.25,0,0,0,0,.34h-.77A4.8,4.8,0,0,0,18,10.56c.13-.22.24-.46.36-.69s.15-.28-.1-.44h1c-.25.21-.07.38,0,.56.22.41.44.82.67,1.22A5.43,5.43,0,0,0,20.28,11.72ZM18.76,10.1l-.34.7h.71Z"/><path d="M9.12,10.24c.13-.19.27-.35.37-.53s0-.17,0-.28h.91l-.85,1.08a.55.55,0,0,0-.14.42c0,.13,0,.26,0,.38s.05.27.08.41H8.69a1.3,1.3,0,0,0,0-1.24l-.46-.6c-.12-.15-.27-.29-.41-.45h1.1c-.27.14-.16.27-.06.41Z"/><path d="M10.52,14.23l.46-.66-.19-.1,0-.05h.94c-.28.36-.58.72-.86,1.1a.78.78,0,0,0-.13.36,2.46,2.46,0,0,0,0,.47,2.85,2.85,0,0,0,.08.35h-.77c.24-.29.09-.64.13-1,0,0,0-.09-.06-.13-.24-.31-.47-.62-.71-.92a1.92,1.92,0,0,0-.29-.27h1.08c-.25.17-.09.31,0,.46S10.41,14.09,10.52,14.23Z"/><path d="M25.67,9.33v.46s0,.09,0,.15c-.28-.2-.58-.06-.9-.11v.56c0,.3,0,.61,0,.91a3.43,3.43,0,0,0,.08.42h-.78c.21-.17.14-.39.14-.6,0-.42,0-.84,0-1.29-.3,0-.6-.08-.88.1V9.35a2.14,2.14,0,0,0,.35.06h1.67A1.73,1.73,0,0,0,25.67,9.33Z"/><path d="M11.32,21.42a1.29,1.29,0,0,1,.22-.37.39.39,0,0,1,.62.25,3,3,0,0,1,0,.67c0,.18-.08.35-.13.58a10.3,10.3,0,0,1-1-.4.51.51,0,0,1-.25-.34C10.67,21.46,11,21.28,11.32,21.42Z"/><path d="M7,17.55a1.31,1.31,0,0,1,.46-.08.37.37,0,0,1,.23.56,3.28,3.28,0,0,1-.4.43l-.09.06-.51.31a8.73,8.73,0,0,1-.44-.93.44.44,0,0,1,.26-.63C6.76,17.2,6.91,17.29,7,17.55Z"/><path d="M4,21.09c.07,0,.15-.12.21-.12a.75.75,0,0,1,.39.09.31.31,0,0,1,.09.42,1.32,1.32,0,0,1-.36.42,7.56,7.56,0,0,1-.66.44,8.31,8.31,0,0,1-.44-1c-.12-.35.09-.66.41-.6.14,0,.26.17.4.27Z"/><path d="M9.53,3.73c0-.32.17-.47.4-.46a.43.43,0,0,1,.41.5c0,.35-.09.7-.14,1.06l-.65-.18a2.42,2.42,0,0,1-.4-.19.44.44,0,0,1-.22-.6C9,3.66,9.21,3.62,9.53,3.73Z"/><path d="M24.64,16a1.81,1.81,0,0,1,.49-.06.37.37,0,0,1,.21.55,2.09,2.09,0,0,1-.41.43c-.18.14-.38.25-.6.39a10.55,10.55,0,0,1-.44-1,.43.43,0,0,1,.34-.61A.37.37,0,0,1,24.64,16Z"/><path d="M26.07,18.7a.37.37,0,0,1,0-.12c0-.23.16-.34.36-.34a.38.38,0,0,1,.41.32,2.92,2.92,0,0,1,0,.66,4.22,4.22,0,0,1-.13.57,8.45,8.45,0,0,1-.85-.28,1,1,0,0,1-.38-.31.35.35,0,0,1,0-.45C25.67,18.57,25.85,18.6,26.07,18.7Z"/><path d="M21.54,20.61c.21-.18.39-.19.56,0a.43.43,0,0,1,0,.63,4.74,4.74,0,0,1-.6.46c-.09.07-.18.12-.33.22-.15-.37-.33-.72-.44-1.09a.4.4,0,0,1,.53-.48C21.35,20.36,21.43,20.5,21.54,20.61Z"/><path d="M21.37,3.53a1.65,1.65,0,0,1,.47-.08.36.36,0,0,1,.25.51,2.43,2.43,0,0,1-.43.48,1.53,1.53,0,0,1-.3.19l-.28.19c-.13-.24-.27-.47-.38-.71a1.4,1.4,0,0,1-.1-.45.39.39,0,0,1,.33-.42.37.37,0,0,1,.43.27S21.38,3.56,21.37,3.53Z"/><path d="M12.13,8.4l-.4-.76a.77.77,0,0,1-.07-.26c0-.3.06-.49.28-.55s.37,0,.5.33c.08,0,.15-.12.22-.12a.52.52,0,0,1,.36.07.47.47,0,0,1,.13.38.91.91,0,0,1-.3.42A7,7,0,0,1,12.13,8.4Z"/><path d="M3,13.63a9.08,9.08,0,0,1-.88-.29A1.06,1.06,0,0,1,1.73,13a.36.36,0,0,1,.09-.45.38.38,0,0,1,.46-.05c.1-.13.16-.31.29-.39a.38.38,0,0,1,.56.3,2.83,2.83,0,0,1,0,.65C3.08,13.25,3,13.42,3,13.63Z"/><path d="M5.21,13.42c0,.15-.06.3-.07.45q0,.71,0,1.41a3.43,3.43,0,0,0,.08.42H4.45c.2-.17.13-.39.14-.6,0-.43,0-.86,0-1.29a2,2,0,0,0-.07-.39Z"/><path d="M32.16,16.48a.45.45,0,0,1-.45.49.5.5,0,0,1,0-1A.45.45,0,0,1,32.16,16.48Z"/><path d="M32.08,7.43c0,.28-.18.5-.35.5s-.2-.12-.2-.26.18-.44.34-.41S32,7.39,32.08,7.43Z"/><path d="M32.71,12.56a.52.52,0,0,1,.47-.53.36.36,0,0,1,.33.39A.57.57,0,0,1,33,13C32.84,13,32.71,12.8,32.71,12.56Z"/></g><g class="cls-3"><path d="M24.76,7a1.52,1.52,0,0,1,.12-.32.38.38,0,0,1,.66.11,2.33,2.33,0,0,1,0,.65c0,.09,0,.2,0,.28a8.64,8.64,0,0,1,.6,1.91.44.44,0,0,1,0,.1l.07,0c0-.09.12-.19.12-.28A21.14,21.14,0,0,0,26,5.22a.5.5,0,0,0-.2-.29c-.35-.24-.73-.44-1.06-.7a2.32,2.32,0,0,1-.58-.63.85.85,0,0,1,.21-1.2.81.81,0,0,1,1.13.19l.06.06.06-.22a.82.82,0,0,1,.77-.59.89.89,0,0,1,.84.66,1.7,1.7,0,0,1-.16,1.11c-.18.4-.4.78-.61,1.15a1,1,0,0,0-.13.71,22.64,22.64,0,0,1,.37,3.59.31.31,0,0,1,0,.19c.25-.94.49-1.88.75-2.81a.74.74,0,0,0,0-.6,2.38,2.38,0,0,1-.28-1.14A.63.63,0,0,1,28,4.12a.67.67,0,0,1,.35.58l.13-.09a.53.53,0,0,1,.68,0,.57.57,0,0,1,.14.73,2.91,2.91,0,0,1-.64.57,6.27,6.27,0,0,1-.74.35.4.4,0,0,0-.18.16A16.38,16.38,0,0,0,27,9.32l2.52-.09.06-.12c-.06,0-.13,0-.18-.1a2.17,2.17,0,0,1-.66-1.38,1.59,1.59,0,0,1,1.39-1.69.83.83,0,0,0,.46-.22A2.61,2.61,0,0,1,32,5a.28.28,0,0,0,.25-.18.6.6,0,0,1,.69-.4.73.73,0,0,1,.68.51.26.26,0,0,0,.14.15l1.16.37a1.12,1.12,0,0,1,.78.87c.09.44.18.88.25,1.33a2.79,2.79,0,0,1-1.52,3.14.28.28,0,0,0-.1.21,11.34,11.34,0,0,1-.12,2.47A8.32,8.32,0,0,1,33.3,16a.7.7,0,0,0-.09.35A15.46,15.46,0,0,1,32.59,21c0,.09-.07.18-.11.27a1.73,1.73,0,0,1-1.41,1.13,2.92,2.92,0,0,1-1.93-.25,2.08,2.08,0,0,1-.92-1,.54.54,0,0,0-.22-.23.83.83,0,0,1-.3-1.34,2.6,2.6,0,0,1,.38-.43A2.46,2.46,0,0,0,28.76,17c0-.16-.07-.32-.11-.47a2.9,2.9,0,0,0-.51-1.15,3.94,3.94,0,0,1-.31-.48,4.7,4.7,0,0,0-.38-.5.88.88,0,0,1,.07-1.42,1,1,0,0,0,.21-.33c.11-.27.21-.55.3-.79-.34-.36-.8-.38-1.26-.55v2.09l-.37,0c-.1-.89-.19-1.75-.29-2.6a1.38,1.38,0,0,0-.1-.22A.5.5,0,0,1,26,10.3a2.42,2.42,0,0,0,0-.54c-.12-.52-.26-1-.42-1.54a.37.37,0,0,0-.2-.21c-.2-.07-.41-.1-.61-.18a1.9,1.9,0,0,1-.43-.26A.39.39,0,0,1,24.21,7a.37.37,0,0,1,.48-.11Zm5.57,15.22c1.3-.05,1.63-.3,2-1.29a7.36,7.36,0,0,0,.43-2q.1-1.29.15-2.58a1.69,1.69,0,0,0-.34-1.07,1.07,1.07,0,0,0-1.18-.39,6,6,0,0,1-.84.18.78.78,0,0,0-.82.81,3.07,3.07,0,0,0,.19,1.27A1.71,1.71,0,0,1,29,19.35,1.28,1.28,0,0,0,28.49,21,1.92,1.92,0,0,0,30.33,22.17ZM30.15,9.22a6.24,6.24,0,0,0,2.42,1.4,2.36,2.36,0,0,0,2.6-.8,2.94,2.94,0,0,0,.39-2.51,2.42,2.42,0,0,1-1,1.11.45.45,0,0,1-.7-.27.88.88,0,0,1,.05-.79.33.33,0,0,0,0-.22c0-.25-.07-.49-.1-.73l0,0c-.1-.11-.26-.2-.28-.32-.05-.34.19-.53.49-.66a2.94,2.94,0,0,0-3.33.59c.06.12.13.25.18.38a2.05,2.05,0,0,1-.28,2.15A6.21,6.21,0,0,0,30.15,9.22ZM29.8,14.8a5.22,5.22,0,0,0,2.91-.9,2.2,2.2,0,0,0,1.08-1.54c.08-.78-.14-1.17-.83-1.35a1.72,1.72,0,0,0-.6,0,2.68,2.68,0,0,0-1.43.59,4.81,4.81,0,0,1-1.79.87,2.72,2.72,0,0,0-1.38.77.71.71,0,0,0-.19.66.94.94,0,0,0,.85.75C28.87,14.71,29.34,14.74,29.8,14.8Zm-.38-8.21a.46.46,0,0,1-.09.71c-.21.15-.18.33-.16.55l.26-.13.19.28-.41.28a1.83,1.83,0,0,0,.69.78c.2-.28.38-.55.56-.82A1.2,1.2,0,0,0,30.59,8a2,2,0,0,0-.14-1.73.23.23,0,0,0-.2-.1A1.4,1.4,0,0,0,29.42,6.59ZM28,12.54c.48-.17.94-.32,1.39-.49a9.17,9.17,0,0,0,.9-.41.18.18,0,0,0,.09-.16c-.05-.27-.13-.54-.2-.84L30,11h0l.24-.77c-.16-.1-.29-.16-.45,0a4.89,4.89,0,0,0-1.41,1.72Zm1.64-3.1a2.45,2.45,0,0,1-.35.05c-.68,0-1.36.06-2,.09-.32,0-.34,0-.35.36.7.24,1.31,1,1.17,1.55a.47.47,0,0,0,.18-.12c.23-.29.43-.6.68-.87A2.5,2.5,0,0,0,29.68,9.44ZM28.07,20.57s0,0,0,0a1.61,1.61,0,0,1,1-1.53,1.24,1.24,0,0,0,.69-1.37c-.06-.37-.18-.72-.27-1.08a.18.18,0,0,0-.08-.09l-.54-.26.06.24a3,3,0,0,1,.1,1.42,2.91,2.91,0,0,1-.85,1.54,1.54,1.54,0,0,0-.38.58C27.68,20.24,27.79,20.45,28.07,20.57ZM33.78,6.08l.27,0c.4,0,.64.21.53.6a2.68,2.68,0,0,1-.4.79.59.59,0,0,0-.06.68c0,.05.17.1.22.07a1.8,1.8,0,0,0,1-1.26.94.94,0,0,0-1.08-1.25C34,5.72,33.81,5.86,33.78,6.08Zm-.67,9.61a6.34,6.34,0,0,0,.8-2.72,3.81,3.81,0,0,1-1.77,1.59A1.6,1.6,0,0,1,33.11,15.69Zm-3.72.48.26-1.1-1.48-.19A3.16,3.16,0,0,0,29.39,16.17Zm1.18-6.09a.41.41,0,0,0,.09.61c.39.36.7.39,1,.12ZM33.3,5a.54.54,0,0,0-.49-.28.32.32,0,0,0-.35.22Zm.69,6-.33.07.37.54Zm-3.31.46.26-.17L30.58,11Z"/><path d="M14.71,17.71s0,0,0,0a.8.8,0,0,1,1-.69.89.89,0,0,1,.68,1,3,3,0,0,1-.42,1.2l-.61,1.1c-.46-.3-1-.6-1.43-.92a1.89,1.89,0,0,1-.74-.91A.84.84,0,0,1,14,17.39,2.57,2.57,0,0,1,14.71,17.71Z"/><path d="M5,6.72,3.9,6.05a2.74,2.74,0,0,1-1-1,.84.84,0,0,1,0-.9A.79.79,0,0,1,4.15,4a2.3,2.3,0,0,1,.16.2c0-.09,0-.12,0-.15.15-.5.5-.76.92-.68A.9.9,0,0,1,6,4.4a3.27,3.27,0,0,1-.42,1.23Z"/><path d="M15.87,4.23a1.26,1.26,0,0,1,0-.22.78.78,0,0,1,.87-.62.86.86,0,0,1,.77.82,2.58,2.58,0,0,1-.39,1.4c-.21.38-.43.76-.65,1.14-.5-.33-1-.66-1.54-1a1.54,1.54,0,0,1-.64-.91.86.86,0,0,1,.44-.94.76.76,0,0,1,.94.17A1.26,1.26,0,0,1,15.87,4.23Z"/><path d="M5.61,11.39,4.8,10a3.82,3.82,0,0,0,0,1.43H4.18a4,4,0,0,0,.06-.47c0-.49,0-1,0-1.46a1.63,1.63,0,0,0-.07-.36h1c-.2.16-.09.3,0,.44.17.31.35.62.55,1,.23-.41.45-.78.65-1.16,0-.06,0-.16,0-.26h.88a2.26,2.26,0,0,0-.07.43c0,.48,0,1,0,1.46a2.27,2.27,0,0,0,.08.41H6.43a3.54,3.54,0,0,0,.08-.45,5.24,5.24,0,0,0,0-1Z"/><path d="M20.07,15.37h-.89c.11-.4-.24-.57-.38-.84s-.24-.16-.63-.1a1.35,1.35,0,0,0,.1.94h-.76c0-.18.07-.34.08-.5,0-.44,0-.89,0-1.33a3,3,0,0,0-.07-.49H18c.45,0,.91,0,1.35,0a.55.55,0,0,1,.59.55c0,.39-.11.56-.51.69l-.15.06ZM18.15,14h1a.24.24,0,0,0,.26-.25.22.22,0,0,0-.24-.24h-1Z"/><path d="M20.85,10.44c0,.31-.1.64.14.94h-.76a2.34,2.34,0,0,0,.07-.45c0-.48,0-1,0-1.46a2,2,0,0,0-.08-.38h1.63a1.63,1.63,0,0,1,.31,0,.55.55,0,0,1,.52.53.58.58,0,0,1-.43.68L22,10.4l.76,1H21.9c.12-.39-.27-.57-.4-.86C21.44,10.39,21.37,10.4,20.85,10.44Zm0-.94V10h1c.14,0,.27-.07.27-.24a.24.24,0,0,0-.25-.26Z"/><path d="M21.34,6.22l.15-.1a.54.54,0,0,1,.68,0,.59.59,0,0,1,.14.71,1.38,1.38,0,0,1-.65.59l-1.05.48c-.15-.51-.32-1-.45-1.51a.68.68,0,0,1,.19-.66A.57.57,0,0,1,21,5.63C21.18,5.7,21.29,5.87,21.34,6.22Z"/><path d="M14.12,14.24a1.19,1.19,0,0,1-1.21,1.18,2.39,2.39,0,0,1-.6-.05,1.13,1.13,0,0,1-.91-1.17,1.1,1.1,0,0,1,.94-1.13,2.42,2.42,0,0,1,.93,0A1.09,1.09,0,0,1,14.12,14.24ZM12.77,15a.76.76,0,0,0,.79-.78.77.77,0,0,0-.82-.79.79.79,0,1,0,0,1.57Z"/><path d="M15.15,10c.36,0,.72.08,1.07-.09v.59a3.19,3.19,0,0,0-1.07-.09V11a4.26,4.26,0,0,0,1.67-.08v.6a3,3,0,0,0-.32-.07h-2c0-.2.06-.38.06-.56,0-.44,0-.88,0-1.31a2.78,2.78,0,0,0-.08-.46h1.92A1.67,1.67,0,0,0,16.77,9v.56a2.25,2.25,0,0,0-.36-.06H15.15Z"/><path d="M13.33,10.39H12c.05.34-.1.68.13,1h-.75c0-.18.06-.36.07-.53,0-.44,0-.88,0-1.31,0-.15,0-.3-.07-.46h.76c-.24.26-.1.56-.14.86h1.32c-.05-.29.11-.59-.15-.86h.76a5.9,5.9,0,0,0-.06.59q0,.62,0,1.23a2.93,2.93,0,0,0,.07.48h-.76C13.43,11.08,13.25,10.74,13.33,10.39Z"/><path d="M22.56,13.31l-.25.49a1.23,1.23,0,0,0-1.37-.26.3.3,0,0,0-.12.21c0,.05.11.13.18.14l.86.1a2.49,2.49,0,0,1,.37.09.61.61,0,0,1,.39.53.59.59,0,0,1-.29.6,1.87,1.87,0,0,1-1.41.15c-.2,0-.4-.12-.63-.19l.22-.51A1.4,1.4,0,0,0,22,14.9a.26.26,0,0,0,.1-.21c0-.06-.1-.13-.17-.15-.25,0-.5-.06-.76-.09l-.31,0a.65.65,0,0,1-.18-1.21,1.65,1.65,0,0,1,1.47,0Z"/><path d="M7.57,13.31l-.25.48A1.27,1.27,0,0,0,6,13.51c-.07,0-.12.15-.18.23s.15.14.23.15c.27,0,.54.06.81.1a1.25,1.25,0,0,1,.43.12.63.63,0,0,1,.08,1.08,1.55,1.55,0,0,1-1.15.22,5.09,5.09,0,0,1-.67-.18l-.25-.05.22-.53a.77.77,0,0,0,.67.32,3.16,3.16,0,0,0,.75-.05.29.29,0,0,0,.14-.22s-.11-.14-.18-.16c-.25,0-.52-.06-.77-.09a2.24,2.24,0,0,1-.39-.08.59.59,0,0,1-.41-.54.6.6,0,0,1,.29-.6A1.58,1.58,0,0,1,7,13.13Z"/><path d="M14.5,13.07h.71a2.46,2.46,0,0,0-.07.45c0,.31,0,.61,0,.91s.16.54.53.57h.26a.48.48,0,0,0,.51-.53c0-.37,0-.75,0-1.12a1.18,1.18,0,0,0-.11-.27h.76c-.2.15-.13.37-.14.57,0,.37,0,.73,0,1.1a.62.62,0,0,1-.5.58,2.27,2.27,0,0,1-1.29,0,.67.67,0,0,1-.54-.72c0-.38,0-.77,0-1.16A2.26,2.26,0,0,0,14.5,13.07Z"/><path d="M19.94,11.38H19c.23-.15.15-.3,0-.44a.45.45,0,0,0-.23-.13c-.24,0-.48,0-.72,0s-.27.09-.31.24a1.25,1.25,0,0,0,0,.34H17a4.8,4.8,0,0,0,.67-1.16c.13-.22.24-.46.36-.69s.15-.28-.1-.44h1c-.25.21-.07.38,0,.56.22.41.44.82.67,1.22A5.43,5.43,0,0,0,19.94,11.38ZM18.42,9.76l-.34.7h.71Z"/><path d="M8.78,9.9c.13-.19.27-.35.37-.53s0-.17,0-.28H10l-.85,1.08a.55.55,0,0,0-.14.42c0,.13,0,.26,0,.38s.05.27.08.41H8.35a1.3,1.3,0,0,0,0-1.24l-.46-.6c-.12-.15-.27-.29-.41-.45h1.1c-.27.14-.16.27-.06.41Z"/><path d="M10.18,13.89l.46-.66-.19-.1,0-.05h.93c-.27.36-.57.72-.85,1.1a.78.78,0,0,0-.13.36,2.46,2.46,0,0,0,0,.47,2.85,2.85,0,0,0,.08.35H9.74c.24-.29.09-.64.13-1,0,0,0-.09-.06-.13-.24-.31-.47-.62-.71-.92a1.92,1.92,0,0,0-.29-.27H9.89c-.25.17-.09.31,0,.46Z"/><path d="M25.33,9v.46s0,.09,0,.15c-.28-.2-.58-.06-.9-.11v.56c0,.3,0,.61,0,.91a3.43,3.43,0,0,0,.08.42h-.78c.21-.17.14-.39.14-.6,0-.42,0-.84,0-1.29-.3,0-.6-.08-.88.1V9a2.14,2.14,0,0,0,.35.06H25A1.73,1.73,0,0,0,25.33,9Z"/><path d="M11,21.08a1.29,1.29,0,0,1,.22-.37.39.39,0,0,1,.62.25,3,3,0,0,1,0,.67c0,.18-.08.35-.13.58a10.3,10.3,0,0,1-1-.4.51.51,0,0,1-.25-.34C10.33,21.12,10.63,20.94,11,21.08Z"/><path d="M6.7,17.21a1.62,1.62,0,0,1,.46-.09.38.38,0,0,1,.23.57,3.28,3.28,0,0,1-.4.43l-.09.06-.52.31c-.14-.31-.32-.61-.43-.93a.45.45,0,0,1,.25-.63C6.42,16.86,6.57,17,6.7,17.21Z"/><path d="M3.65,20.75c.07,0,.15-.12.21-.12a.75.75,0,0,1,.39.09.31.31,0,0,1,.09.42,1.32,1.32,0,0,1-.36.42,7.56,7.56,0,0,1-.66.44,8.31,8.31,0,0,1-.44-1c-.12-.35.09-.66.41-.6.14,0,.26.17.4.27Z"/><path d="M9.19,3.39c0-.32.17-.47.4-.46a.43.43,0,0,1,.41.5c0,.35-.09.7-.14,1.06l-.65-.18a2.42,2.42,0,0,1-.4-.19.44.44,0,0,1-.22-.6C8.69,3.32,8.87,3.28,9.19,3.39Z"/><path d="M24.3,15.62a1.81,1.81,0,0,1,.49-.06.37.37,0,0,1,.21.55,2.09,2.09,0,0,1-.41.43,5.63,5.63,0,0,1-.6.38,9.33,9.33,0,0,1-.44-1,.43.43,0,0,1,.34-.61A.37.37,0,0,1,24.3,15.62Z"/><path d="M25.72,18.36a1,1,0,0,1,0-.12c0-.23.16-.34.36-.34a.38.38,0,0,1,.41.32,2.93,2.93,0,0,1,0,.66,4.22,4.22,0,0,1-.13.57,8.45,8.45,0,0,1-.85-.28,1,1,0,0,1-.38-.31.35.35,0,0,1,0-.45C25.33,18.23,25.51,18.26,25.72,18.36Z"/><path d="M21.2,20.27c.21-.18.39-.19.56,0a.43.43,0,0,1,0,.63,4.74,4.74,0,0,1-.6.46c-.09.07-.18.12-.33.22-.15-.37-.33-.72-.44-1.09A.4.4,0,0,1,20.9,20C21,20,21.09,20.16,21.2,20.27Z"/><path d="M21,3.19a1.65,1.65,0,0,1,.47-.08.36.36,0,0,1,.25.51,2.43,2.43,0,0,1-.43.48,1.53,1.53,0,0,1-.3.19l-.28.19c-.13-.24-.27-.47-.38-.71a1.4,1.4,0,0,1-.1-.45.39.39,0,0,1,.33-.42.37.37,0,0,1,.43.27S21,3.22,21,3.19Z"/><path d="M11.79,8.06l-.4-.76A.77.77,0,0,1,11.32,7c0-.3.06-.49.28-.55s.37,0,.5.33c.08,0,.15-.12.22-.12a.52.52,0,0,1,.36.07.47.47,0,0,1,.13.38.91.91,0,0,1-.3.42A7,7,0,0,1,11.79,8.06Z"/><path d="M2.64,13.29A9.08,9.08,0,0,1,1.76,13a1.06,1.06,0,0,1-.37-.33.37.37,0,0,1,.08-.45.4.4,0,0,1,.47-.05c.1-.13.16-.31.29-.39a.38.38,0,0,1,.56.3,2.83,2.83,0,0,1,0,.65C2.74,12.91,2.69,13.08,2.64,13.29Z"/><path d="M4.87,13.08c0,.15-.06.3-.07.45q0,.71,0,1.41a3.43,3.43,0,0,0,.08.42H4.11c.2-.17.13-.39.14-.6,0-.43,0-.86,0-1.29a2,2,0,0,0-.07-.39Z"/><path d="M31.82,16.14a.45.45,0,0,1-.45.49.5.5,0,0,1,0-1A.45.45,0,0,1,31.82,16.14Z"/><path d="M31.73,7.09c0,.28-.17.5-.34.5s-.2-.12-.2-.26.18-.44.34-.41S31.69,7.05,31.73,7.09Z"/><path d="M32.37,12.22a.52.52,0,0,1,.47-.53.36.36,0,0,1,.33.39.57.57,0,0,1-.47.55C32.5,12.63,32.37,12.46,32.37,12.22Z"/></g><path class="cls-4" d="M25,7.15a1.12,1.12,0,0,1,.12-.32.38.38,0,0,1,.66.11,2.78,2.78,0,0,1,0,.65c0,.09,0,.2,0,.28a9.21,9.21,0,0,1,.6,1.91.36.36,0,0,0,0,.1l.07,0c0-.09.12-.19.12-.28a21.91,21.91,0,0,0-.42-4.2A.51.51,0,0,0,26,5.13c-.34-.24-.72-.44-1.06-.7a2.63,2.63,0,0,1-.57-.63.86.86,0,0,1,.21-1.21.8.8,0,0,1,1.13.2l.06,0,.06-.21A.81.81,0,0,1,26.57,2a.89.89,0,0,1,.84.66,1.7,1.7,0,0,1-.16,1.11A12.74,12.74,0,0,1,26.63,5a1,1,0,0,0-.12.7,22.89,22.89,0,0,1,.37,3.6.59.59,0,0,1,0,.19c.25-.94.49-1.88.75-2.81a.83.83,0,0,0,0-.6,2.27,2.27,0,0,1-.28-1.14.63.63,0,0,1,.85-.58c.24.11.3.33.35.58l.13-.09a.53.53,0,0,1,.68,0,.55.55,0,0,1,.13.73,2.65,2.65,0,0,1-.63.57,7.12,7.12,0,0,1-.74.35.35.35,0,0,0-.18.16,16.38,16.38,0,0,0-.71,2.88l2.52-.09.06-.13a1,1,0,0,1-.18-.09,2.17,2.17,0,0,1-.66-1.38,1.59,1.59,0,0,1,1.39-1.69.77.77,0,0,0,.45-.22,2.64,2.64,0,0,1,1.37-.72A.3.3,0,0,0,32.4,5a.62.62,0,0,1,.69-.4.75.75,0,0,1,.68.52.26.26,0,0,0,.14.15l1.16.37a1.1,1.1,0,0,1,.78.87c.08.44.18.88.25,1.33A2.79,2.79,0,0,1,34.58,11c-.06,0-.1.14-.1.21a11.34,11.34,0,0,1-.12,2.47,8.42,8.42,0,0,1-.86,2.53.7.7,0,0,0-.09.35,15.79,15.79,0,0,1-.62,4.64c0,.09-.07.18-.11.27a1.73,1.73,0,0,1-1.41,1.13,2.92,2.92,0,0,1-1.93-.25,2.12,2.12,0,0,1-.92-1,.72.72,0,0,0-.22-.24.83.83,0,0,1-.3-1.34,5,5,0,0,1,.37-.43A2.4,2.4,0,0,0,29,17.15c0-.16-.07-.32-.1-.47a2.68,2.68,0,0,0-.52-1.15,5.6,5.6,0,0,1-.3-.48,4.7,4.7,0,0,0-.38-.5.89.89,0,0,1,.06-1.43.78.78,0,0,0,.21-.32c.12-.27.22-.55.31-.8-.34-.35-.8-.37-1.26-.54v2.09l-.38,0c-.09-.89-.19-1.75-.29-2.6,0-.08-.07-.14-.09-.22a.5.5,0,0,1-.05-.21,4.75,4.75,0,0,0,0-.54c-.12-.52-.27-1-.42-1.55a.39.39,0,0,0-.2-.2c-.2-.07-.41-.11-.61-.19a1.56,1.56,0,0,1-.43-.25.39.39,0,0,1-.06-.54.36.36,0,0,1,.48-.11Zm5.57,15.22c1.3-.05,1.63-.3,2-1.29a7.44,7.44,0,0,0,.43-2q.11-1.29.15-2.58a1.69,1.69,0,0,0-.34-1.07A1.07,1.07,0,0,0,31.6,15a6.11,6.11,0,0,1-.85.18.78.78,0,0,0-.81.81,3,3,0,0,0,.18,1.26,1.71,1.71,0,0,1-.88,2.28,1.26,1.26,0,0,0-.55,1.69A1.93,1.93,0,0,0,30.53,22.37ZM30.35,9.42a6.17,6.17,0,0,0,2.42,1.4,2.35,2.35,0,0,0,2.59-.8,2.91,2.91,0,0,0,.4-2.51,2.35,2.35,0,0,1-1,1.1A.45.45,0,0,1,34,8.35a.89.89,0,0,1,.06-.79.41.41,0,0,0,0-.22c0-.25-.07-.49-.1-.73l0,0c-.1-.1-.26-.19-.28-.31,0-.34.18-.53.49-.66a2.92,2.92,0,0,0-3.33.59,2.59,2.59,0,0,1,.17.38,2.07,2.07,0,0,1-.27,2.15A4.85,4.85,0,0,0,30.35,9.42ZM30,15a5.33,5.33,0,0,0,2.92-.9A2.2,2.2,0,0,0,34,12.56c.08-.78-.14-1.17-.83-1.35a1.72,1.72,0,0,0-.6,0,2.68,2.68,0,0,0-1.43.59,5,5,0,0,1-1.79.87A2.72,2.72,0,0,0,28,13.4a.71.71,0,0,0-.19.66,1,1,0,0,0,.85.75C29.07,14.91,29.53,14.94,30,15Zm-.37-8.21a.46.46,0,0,1-.09.71c-.22.14-.18.33-.16.55l.26-.14.19.29-.41.28a1.83,1.83,0,0,0,.69.78l.56-.82a1,1,0,0,0,.13-.22,2,2,0,0,0-.14-1.73.25.25,0,0,0-.2-.09A1.4,1.4,0,0,0,29.62,6.79Zm-1.38,6c.48-.17.94-.32,1.39-.49s.6-.27.9-.41a.18.18,0,0,0,.09-.16c-.06-.27-.13-.54-.2-.84l-.27.37h0l.24-.77c-.16-.1-.29-.16-.46,0a4.69,4.69,0,0,0-1.4,1.72Zm1.64-3.1a2.45,2.45,0,0,1-.35,0l-2.05.09c-.32,0-.35,0-.35.36.69.24,1.3,1,1.16,1.55a.43.43,0,0,0,.19-.13c.23-.28.43-.59.67-.86A2.56,2.56,0,0,0,29.88,9.64ZM28.27,20.77s0,0,0,0a1.61,1.61,0,0,1,1-1.52A1.24,1.24,0,0,0,30,17.84c-.06-.37-.18-.73-.27-1.09a.16.16,0,0,0-.08-.08l-.54-.26.06.24a2.81,2.81,0,0,1,.09,1.41,2.86,2.86,0,0,1-.84,1.55,1.75,1.75,0,0,0-.39.57A.42.42,0,0,0,28.27,20.77ZM34,6.28l.27,0c.4,0,.64.21.53.6a2.68,2.68,0,0,1-.4.79.59.59,0,0,0-.06.68s.17.1.22.07a1.82,1.82,0,0,0,1-1.26c.16-.8-.3-1.34-1.08-1.25C34.19,5.91,34,6.05,34,6.28Zm-.67,9.61a6.34,6.34,0,0,0,.8-2.72,3.81,3.81,0,0,1-1.77,1.59A1.62,1.62,0,0,1,33.31,15.89Zm-3.72.48.26-1.1-1.49-.19A3.25,3.25,0,0,0,29.59,16.37Zm1.18-6.09a.39.39,0,0,0,.08.6c.4.36.71.4,1,.13Zm2.72-5.11A.52.52,0,0,0,33,4.89a.32.32,0,0,0-.35.22Zm.7,5.95-.34.07.38.54Zm-3.31.46.26-.17-.36-.22Z"/><path class="cls-4" d="M14.91,17.91s0,0,0,0c.15-.54.5-.79,1-.69a.89.89,0,0,1,.69,1,3.07,3.07,0,0,1-.42,1.21l-.61,1.1c-.47-.3-1-.6-1.43-.93a1.82,1.82,0,0,1-.74-.9.83.83,0,0,1,.86-1.12A2.92,2.92,0,0,1,14.91,17.91Z"/><path class="cls-4" d="M5.17,6.92c-.36-.22-.72-.44-1.07-.67a2.77,2.77,0,0,1-1-1,.9.9,0,0,1,0-.91A.8.8,0,0,1,4.35,4.2a1.29,1.29,0,0,1,.15.2c0-.09,0-.12,0-.15a.81.81,0,0,1,.92-.68.9.9,0,0,1,.75,1,3.23,3.23,0,0,1-.43,1.23Z"/><path class="cls-4" d="M16.06,4.43c0-.12,0-.17.05-.22A.78.78,0,0,1,17,3.59a.85.85,0,0,1,.77.82,2.67,2.67,0,0,1-.39,1.4c-.21.38-.43.76-.65,1.14-.5-.33-1-.66-1.54-1A1.55,1.55,0,0,1,14.52,5,.88.88,0,0,1,15,4.07a.77.77,0,0,1,.94.16A1.45,1.45,0,0,1,16.06,4.43Z"/><path class="cls-4" d="M5.81,11.59,5,10.16a4,4,0,0,0,0,1.42H4.37a2.54,2.54,0,0,0,.07-.47c0-.48,0-1,0-1.46a1.73,1.73,0,0,0-.08-.35h1c-.2.16-.09.3,0,.44.17.31.35.62.55,1,.23-.41.45-.78.65-1.16,0-.06,0-.16,0-.26h.88a3.58,3.58,0,0,0-.08.43c0,.48,0,1,0,1.46a3.24,3.24,0,0,0,.09.4H6.63a2.13,2.13,0,0,0,.07-.44,5.36,5.36,0,0,0,0-1Z"/><path class="cls-4" d="M20.27,15.57h-.89c.11-.4-.25-.57-.38-.84s-.24-.17-.63-.1a1.35,1.35,0,0,0,.1.94h-.76c0-.18.07-.34.08-.5,0-.45,0-.89,0-1.33a4.81,4.81,0,0,0-.07-.49h.51c.45,0,.91,0,1.35,0s.57.24.59.55-.11.57-.51.7l-.15.05Zm-1.92-1.39h1a.24.24,0,0,0,.26-.25.22.22,0,0,0-.24-.24h-1Z"/><path class="cls-4" d="M21.05,10.64c.05.31-.11.64.14.94h-.76a3.5,3.5,0,0,0,.07-.45c0-.48,0-1,0-1.46a2,2,0,0,0-.08-.38l.1,0h1.53l.31,0a.57.57,0,0,1,.52.53.58.58,0,0,1-.43.68l-.23.08.76,1h-.89c.12-.39-.26-.57-.39-.86C21.64,10.59,21.57,10.6,21.05,10.64Zm0-.94v.5c.33,0,.66,0,1,0,.14,0,.26-.07.27-.24a.24.24,0,0,0-.25-.26Z"/><path class="cls-4" d="M21.54,6.42a1,1,0,0,1,.15-.1.54.54,0,0,1,.68,0,.6.6,0,0,1,.14.71,1.38,1.38,0,0,1-.65.59l-1.05.48c-.16-.51-.32-1-.45-1.51A.66.66,0,0,1,20.55,6a.59.59,0,0,1,.61-.13C21.38,5.9,21.49,6.06,21.54,6.42Z"/><path class="cls-4" d="M14.32,14.44a1.19,1.19,0,0,1-1.21,1.18,2.11,2.11,0,0,1-.61-.06,1.11,1.11,0,0,1-.9-1.16,1.1,1.1,0,0,1,.94-1.13,2.43,2.43,0,0,1,.93,0A1.07,1.07,0,0,1,14.32,14.44ZM13,15.2a.76.76,0,0,0,.79-.78.81.81,0,1,0-.79.78Z"/><path class="cls-4" d="M15.35,10.21c.36-.05.72.08,1.07-.09v.58a3.5,3.5,0,0,0-1.07-.08v.53A4.21,4.21,0,0,0,17,11.07v.6a1.55,1.55,0,0,0-.31-.07h-2c0-.2.06-.38.06-.56q0-.66,0-1.32a2.86,2.86,0,0,0-.08-.45h1.92A1.47,1.47,0,0,0,17,9.2v.56a2.25,2.25,0,0,0-.36-.06H15.35Z"/><path class="cls-4" d="M13.53,10.59H12.2c0,.34-.11.67.13,1h-.75a4.6,4.6,0,0,0,.06-.52q0-.66,0-1.32a3.71,3.71,0,0,0-.06-.45h.76c-.25.26-.1.56-.14.86h1.32c-.06-.29.11-.59-.15-.86h.75c0,.19,0,.39,0,.59q0,.61,0,1.23a2.67,2.67,0,0,0,.07.47h-.76C13.63,11.28,13.45,10.93,13.53,10.59Z"/><path class="cls-4" d="M22.76,13.51l-.25.49a1.26,1.26,0,0,0-1.37-.27A.32.32,0,0,0,21,14c0,.05.11.13.18.14l.86.1a1.12,1.12,0,0,1,.36.09.6.6,0,0,1,.4.53.57.57,0,0,1-.29.59,1.82,1.82,0,0,1-1.41.16c-.2-.05-.41-.12-.63-.19l.22-.51a1.42,1.42,0,0,0,1.46.24.26.26,0,0,0,.1-.21.24.24,0,0,0-.17-.15c-.25,0-.51-.06-.76-.09l-.31,0a.65.65,0,0,1-.18-1.21,1.63,1.63,0,0,1,1.46,0Z"/><path class="cls-4" d="M7.76,13.51,7.52,14a1.27,1.27,0,0,0-1.33-.28c-.08,0-.12.15-.18.23s.14.14.22.15c.27.05.55.06.82.1a1.14,1.14,0,0,1,.42.12.62.62,0,0,1,.09,1.08,1.51,1.51,0,0,1-1.15.21,5.63,5.63,0,0,1-.68-.17l-.24,0,.22-.53a.82.82,0,0,0,.67.32,2.72,2.72,0,0,0,.75-.06.25.25,0,0,0,.14-.21c0-.05-.11-.15-.18-.16-.26,0-.52-.06-.78-.09a2.7,2.7,0,0,1-.39-.08.65.65,0,0,1-.11-1.14,1.55,1.55,0,0,1,1.42-.1Z"/><path class="cls-4" d="M14.7,13.27h.71a2.34,2.34,0,0,0-.07.45c0,.3,0,.61,0,.91a.51.51,0,0,0,.54.57,1.13,1.13,0,0,0,.26,0,.49.49,0,0,0,.51-.53c0-.37,0-.75,0-1.12a1.18,1.18,0,0,0-.11-.27h.75c-.19.15-.13.37-.13.57,0,.36,0,.73,0,1.1a.62.62,0,0,1-.5.58,2.3,2.3,0,0,1-1.3,0,.67.67,0,0,1-.53-.72c0-.38,0-.77,0-1.16A2.26,2.26,0,0,0,14.7,13.27Z"/><path class="cls-4" d="M20.14,11.58h-.93c.23-.15.15-.3,0-.44A.34.34,0,0,0,19,11c-.24,0-.49,0-.72,0a.27.27,0,0,0-.32.24,1.92,1.92,0,0,0,0,.34h-.77a5,5,0,0,0,.67-1.16c.13-.22.24-.46.35-.69s.16-.29-.09-.44h1c-.25.21-.08.38,0,.56l.66,1.22C19.91,11.25,20,11.41,20.14,11.58ZM18.62,10l-.35.7H19Z"/><path class="cls-4" d="M9,10.1a5.77,5.77,0,0,0,.37-.54c0-.06,0-.17,0-.27h.91l-.85,1.08a.53.53,0,0,0-.15.42c0,.13,0,.25,0,.38a3.28,3.28,0,0,0,.08.41H8.54a1.27,1.27,0,0,0,0-1.24c-.15-.2-.3-.41-.46-.6s-.27-.3-.41-.45h1.1c-.27.14-.17.27-.06.41Z"/><path class="cls-4" d="M10.37,14.08l.47-.66-.19-.09,0-.05h.93c-.28.35-.57.72-.85,1.1a.78.78,0,0,0-.13.36,1.77,1.77,0,0,0,0,.46,2.61,2.61,0,0,0,.08.36H9.94c.24-.29.09-.64.12-1,0,0,0-.09-.06-.13-.23-.31-.46-.62-.7-.92A4,4,0,0,0,9,13.27h1.08c-.25.18-.09.32,0,.47Z"/><path class="cls-4" d="M25.52,9.19V9.8c-.28-.2-.59-.06-.9-.11v.56c0,.3,0,.61,0,.91a2.21,2.21,0,0,0,.08.42h-.78c.21-.17.14-.39.14-.6,0-.42,0-.84,0-1.29-.3,0-.6-.08-.88.1V9.21a2.14,2.14,0,0,0,.35.06H25.2A1.49,1.49,0,0,0,25.52,9.19Z"/><path class="cls-4" d="M11.18,21.28a1.29,1.29,0,0,1,.22-.37.38.38,0,0,1,.61.25,2.09,2.09,0,0,1,0,.66,4.28,4.28,0,0,1-.13.59c-.34-.13-.69-.25-1-.4a.53.53,0,0,1-.24-.34C10.53,21.32,10.83,21.14,11.18,21.28Z"/><path class="cls-4" d="M6.9,17.41a1.34,1.34,0,0,1,.46-.09.36.36,0,0,1,.22.57,2.69,2.69,0,0,1-.4.43l-.08.06-.52.31a8.65,8.65,0,0,1-.43-.93.45.45,0,0,1,.25-.63C6.62,17.06,6.77,17.15,6.9,17.41Z"/><path class="cls-4" d="M3.85,21c.07,0,.14-.12.21-.12a.75.75,0,0,1,.39.09.3.3,0,0,1,.09.41,1.5,1.5,0,0,1-.36.43,6.49,6.49,0,0,1-.67.44c-.15-.33-.32-.64-.44-1s.1-.66.42-.6c.14,0,.26.17.39.27Z"/><path class="cls-4" d="M9.39,3.59c0-.32.16-.47.4-.46a.43.43,0,0,1,.41.49,9.83,9.83,0,0,1-.15,1.07c-.23-.07-.44-.12-.64-.19A1.44,1.44,0,0,1,9,4.32c-.26-.16-.34-.38-.22-.6S9.07,3.48,9.39,3.59Z"/><path class="cls-4" d="M24.49,15.82a1.58,1.58,0,0,1,.5-.06.36.36,0,0,1,.21.54,1.76,1.76,0,0,1-.42.44,4.63,4.63,0,0,1-.59.38,9.33,9.33,0,0,1-.44-1,.43.43,0,0,1,.33-.61A.36.36,0,0,1,24.49,15.82Z"/><path class="cls-4" d="M25.92,18.56a1,1,0,0,0,0-.12.38.38,0,0,1,.37-.35.4.4,0,0,1,.41.33,3.67,3.67,0,0,1,0,.66,4.22,4.22,0,0,1-.13.57,8.45,8.45,0,0,1-.85-.28,1,1,0,0,1-.38-.31.35.35,0,0,1,0-.45C25.53,18.43,25.71,18.46,25.92,18.56Z"/><path class="cls-4" d="M21.39,20.46c.22-.17.4-.19.56,0a.41.41,0,0,1,0,.62,4.61,4.61,0,0,1-.6.47l-.33.21a9.06,9.06,0,0,1-.44-1.08.39.39,0,0,1,.53-.48C21.21,20.22,21.29,20.36,21.39,20.46Z"/><path class="cls-4" d="M21.23,3.39a1.59,1.59,0,0,1,.46-.08.36.36,0,0,1,.26.51,2.43,2.43,0,0,1-.43.48,1.53,1.53,0,0,1-.3.19l-.28.18c-.13-.23-.27-.46-.38-.7a1.4,1.4,0,0,1-.1-.45.39.39,0,0,1,.33-.42.38.38,0,0,1,.43.27S21.23,3.41,21.23,3.39Z"/><path class="cls-4" d="M12,8.26c-.14-.26-.28-.51-.4-.76a.77.77,0,0,1-.07-.26c0-.3.06-.49.28-.55s.37,0,.5.33c.07,0,.14-.12.22-.12a.48.48,0,0,1,.36.07.46.46,0,0,1,.12.38.82.82,0,0,1-.29.42A8.22,8.22,0,0,1,12,8.26Z"/><path class="cls-4" d="M2.84,13.49A9.08,9.08,0,0,1,2,13.2a1.06,1.06,0,0,1-.37-.33.37.37,0,0,1,.08-.45.4.4,0,0,1,.47-.05c.1-.14.16-.31.28-.39a.38.38,0,0,1,.57.3,2.38,2.38,0,0,1,0,.65A4.74,4.74,0,0,1,2.84,13.49Z"/><path class="cls-4" d="M5.07,13.28a3.5,3.5,0,0,0-.07.45q0,.7,0,1.41a2.21,2.21,0,0,0,.08.42H4.31c.2-.17.13-.39.13-.6q0-.65,0-1.29a1.89,1.89,0,0,0-.07-.39Z"/><path class="cls-4" d="M32,16.34a.46.46,0,0,1-.45.49.5.5,0,0,1,0-1A.46.46,0,0,1,32,16.34Z"/><path class="cls-4" d="M31.93,7.29c0,.27-.17.49-.34.5s-.2-.12-.2-.26.18-.44.34-.41S31.89,7.25,31.93,7.29Z"/><path class="cls-4" d="M32.57,12.42a.51.51,0,0,1,.47-.53.36.36,0,0,1,.33.39.56.56,0,0,1-.47.54C32.7,12.83,32.57,12.66,32.57,12.42Z"/></g></g></svg>