<svg xmlns="http://www.w3.org/2000/svg" viewBox="0 0 38.55 24.66"><defs><style>.cls-1{isolation:isolate;}.cls-2{opacity:0.15;}.cls-2,.cls-3{mix-blend-mode:multiply;}.cls-4{fill:#fff;}</style></defs><title>convert-FIX-SVG-03</title><g class="cls-1"><g id="Layer_1" data-name="Layer 1"><g class="cls-2"><path d="M24.85,16c-1.39.11-1.39.11-2.11-.28a1.06,1.06,0,0,0-.22,1.17,12,12,0,0,1,.27,1.19,2,2,0,0,1,0,.73,1.23,1.23,0,0,1-1.11,1.09,2.36,2.36,0,0,1-2.53-1,2.29,2.29,0,0,1-.32-1.85A25.2,25.2,0,0,1,20,13.26a5.09,5.09,0,0,1,.46-.74s.06-.07.06-.11c0-.32.05-.64.08-1a.65.65,0,0,1,0-.1l-.54.07c-.3.05-.59.14-.89.16a14,14,0,0,1-1.58,0,12.16,12.16,0,0,1-1.21-.18l-.2-.06a5.56,5.56,0,0,1-.2,2.55c.42,0,.79-.06,1.16-.11s.47-.12.7-.17a.86.86,0,0,1,.84.27A1.62,1.62,0,0,1,19,15.52a3.65,3.65,0,0,1-1.05,1.93,1.56,1.56,0,0,1-1.69.38,14.74,14.74,0,0,1-2.9-1.69,1.13,1.13,0,0,0-.83-.22c-.11,0-.16.05-.18.15a1.36,1.36,0,0,1-.48.83.29.29,0,0,0-.09.39,6.11,6.11,0,0,0,.35.67,2.16,2.16,0,0,1-.77,3.12,5.51,5.51,0,0,1-.54.22l.18,0a1.37,1.37,0,0,0,.28.84,3.17,3.17,0,0,0,.27-.84h.52c-.07.31.19.53.24.82a1.66,1.66,0,0,0,.29-.83H13a3.56,3.56,0,0,0-.51,1.42h-.44a2.35,2.35,0,0,0-.33-.95,3,3,0,0,0-.34.94H11a2.44,2.44,0,0,0-.06-.31c-.11-.29-.24-.58-.35-.87a.43.43,0,0,0-.37-.29,2.5,2.5,0,0,1-2-1.8,5.79,5.79,0,0,1,0-1.5c.07-.69.19-1.38.29-2.07a.25.25,0,0,1,0-.09c-.29,0-.56.13-.83.15a.74.74,0,0,1-.89-.6A4.21,4.21,0,0,1,7,12.56a10.3,10.3,0,0,1,2.3-3.49,3.21,3.21,0,0,1,1.33-1,7.75,7.75,0,0,1-.74-.66A3.62,3.62,0,0,1,9,4.93a.89.89,0,0,0-.09-.39,2.28,2.28,0,0,1,.58-2.47,2,2,0,0,1,2.3-.33.62.62,0,0,0,.3.06,6.29,6.29,0,0,1,2.4.28A.32.32,0,0,0,14.77,2a1.6,1.6,0,0,1,1.3-.3l.2.08a2.07,2.07,0,0,1,.82,2.54.43.43,0,0,0,0,.25,3.82,3.82,0,0,1-.52,3.25s0,0,0,.07a3.06,3.06,0,0,0,1.86.57,2.29,2.29,0,0,1,.72.11.31.31,0,0,0,.19,0,4.93,4.93,0,0,1,3-.85s0-.06,0-.07a2.51,2.51,0,0,1-.31-2.58,1.86,1.86,0,0,0,.1-.25.75.75,0,0,0,0-.36A2.74,2.74,0,0,1,22,3.17a2,2,0,0,1,1.54-1.49A2.14,2.14,0,0,1,25.24,2a.67.67,0,0,0,.48.1,4,4,0,0,1,2,.29.29.29,0,0,0,.24,0,1.49,1.49,0,0,1,2,.23,1.62,1.62,0,0,1,.14,2.13A1.32,1.32,0,0,1,30,5c-.18.14-.17.31-.16.52a8.35,8.35,0,0,1,0,1,2.36,2.36,0,0,1,0,.38,2.9,2.9,0,0,1-1.48,2l.11.25a20.84,20.84,0,0,1,1.35,3.46,2.56,2.56,0,0,1,.07,1.55,1.75,1.75,0,0,1-.19.42.85.85,0,0,1-1,.38,2.81,2.81,0,0,1-.46-.19,3.68,3.68,0,0,0,.57,1.41.74.74,0,0,0,.51.2,2.18,2.18,0,0,1,2.14,1.79A1.32,1.32,0,0,1,31,19.51a2.24,2.24,0,0,1-.75.5,6.06,6.06,0,0,1-2.37.56,3.42,3.42,0,0,1-1.05-.15,1,1,0,0,1-.65-.67l-1.26-3.57C24.9,16.11,24.87,16.05,24.85,16Zm-4.1-3.68a1,1,0,0,1,1,.37,4.63,4.63,0,0,1,.87,1.56,3.45,3.45,0,0,1,.19.89.47.47,0,0,0,.25.42c.12,0,.23.11.35.15a2.44,2.44,0,0,0,1.44,0,3.41,3.41,0,0,0,2.36-2,4.67,4.67,0,0,0,.14-2.91.62.62,0,0,0-.15-.22c-.21-.28-.42-.54-.64-.81,0,0-.07-.1-.1-.1a1.45,1.45,0,0,0-.92.09L24,10.67c-.09.05-.21.15-.25-.08l-.09.13a1.47,1.47,0,0,1-1.23.75H21.05c-.07,0-.19,0-.2.08C20.81,11.79,20.79,12,20.75,12.31Zm5.6-3.64v0l0,0A1.58,1.58,0,0,1,25.65,7a2.28,2.28,0,0,1,2-2,1.79,1.79,0,0,1,1.5.3.18.18,0,0,0,.09,0c.2,0,.23.13.26.27a.86.86,0,0,1,0,.17h.06c0-.13,0-.26-.05-.39a4.37,4.37,0,0,0-.58-1.62A3.32,3.32,0,0,0,25.82,2.4c-.05,0-.14,0-.14.07,0,.25-.26.34-.41.49s-.41.34-.65.13L23.38,4a.3.3,0,0,0-.08.17,1.22,1.22,0,0,1-.8.72.24.24,0,0,0-.26.18c0,.1-.07.2-.11.3a2.1,2.1,0,0,0,.67,2.42c.33.25.69.47,1,.7a1.09,1.09,0,0,0,.8.2,3.88,3.88,0,0,1,.59,0Zm-9.9-1.28a3.63,3.63,0,0,0,.35-2.64,4.14,4.14,0,0,0-4.5-2.64c0,.55-.3.82-.88.75a.17.17,0,0,0-.12.05c-.33.53-1,.83-1.18,1.45a.87.87,0,0,1-.81.53c0,.23,0,.45,0,.66A2.85,2.85,0,0,0,11.05,8a2.16,2.16,0,0,0,.94.22c.4,0,.8.05,1.2.08a4.17,4.17,0,0,1-.31-.54,2.12,2.12,0,0,1-.08-1.27A1.89,1.89,0,0,1,13.91,5a4,4,0,0,1,1.24-.31c.45,0,.77.28,1.18.36.22.05.29.34.21.6a.51.51,0,0,0,0,.17A3.92,3.92,0,0,1,16.45,7.39Zm-6,5.85c.25.21.52.39.76.61a3.73,3.73,0,0,1,1.11,1.67.18.18,0,0,0,.17.1,8.6,8.6,0,0,0,1-.11,2.67,2.67,0,0,0,2.12-1.78,5.34,5.34,0,0,0,.06-2.86.2.2,0,0,0-.07-.09,4,4,0,0,1-.31-.27l-.77-.9a.46.46,0,0,0-.23-.14c-.73-.16-.71-.13-1.31.33a5.28,5.28,0,0,0-1.51,1.78C11.2,12.15,10.82,12.69,10.47,13.24Zm1.26-3.88c0-.15.1-.32,0-.44a1,1,0,0,0-.91-.53,1.62,1.62,0,0,0-1,.49,10.47,10.47,0,0,0-2.61,3.7,3.9,3.9,0,0,0-.17,2.73.42.42,0,0,0,.64.29,1.24,1.24,0,0,0,.41-.31c.23-.26.41-.56.64-.81A4.74,4.74,0,0,1,9.43,14c.09-.07.22-.12.28-.21.7-1.1,1.38-2.19,2.07-3.29a.51.51,0,0,0,.07-.26c0-.24,0-.48,0-.72C11.81,9.47,11.75,9.41,11.73,9.36Zm13.42,6.51a.51.51,0,0,1,0,.1c.43,1.22.87,2.44,1.29,3.66a.86.86,0,0,0,.53.54c.16.07.3.11.43-.08a1.05,1.05,0,0,1,.28-.22,4.62,4.62,0,0,1,3-.78c.31,0,.36,0,.42-.31a1.19,1.19,0,0,0,0-.42,1.86,1.86,0,0,0-1.86-1.66,1,1,0,0,1-1-.64c-.15-.38-.28-.78-.42-1.17s-.24-.64-.35-1h-.06A3.77,3.77,0,0,1,25.15,15.87ZM10.3,13.52l-.53.65a1.06,1.06,0,0,0-.16.23,2.91,2.91,0,0,1-.63,1,.4.4,0,0,0-.09.17c-.14,1-.29,2.09-.41,3.14a2,2,0,0,0,1.24,2.06,1.5,1.5,0,0,0,2.11-.58,1,1,0,0,1-.14-.16c-.11-.27-.21-.54-.32-.8s-.3-.64-.4-1a1.22,1.22,0,0,1,.17-1.15,3.31,3.31,0,0,1,.44-.39,1.17,1.17,0,0,0,.29-1.61,5.72,5.72,0,0,0-.39-.57A4.49,4.49,0,0,0,10.3,13.52Zm10.91,6.12c.76,0,1.21-.34,1.28-1a3.25,3.25,0,0,0-.14-1.31,3.91,3.91,0,0,1-.19-.95,1,1,0,0,1,.17-.61,1,1,0,0,0,.18-.72,4.48,4.48,0,0,0-1-2.15,1.42,1.42,0,0,0-.22-.2.46.46,0,0,0-.65,0,1.6,1.6,0,0,0-.4.56,25.41,25.41,0,0,0-1.17,3.84,1.88,1.88,0,0,0,.08,1.26A2,2,0,0,0,21.21,19.64Zm.56-8.39V11.2a4,4,0,0,0,.49,0A1.38,1.38,0,0,0,23.61,10a2.17,2.17,0,0,0-.09-1.31c-.07-.17-.33-.26-.49-.4a1.29,1.29,0,0,0-.94-.3,4.76,4.76,0,0,0-3.72,1.76,2.13,2.13,0,0,0-.39.69.59.59,0,0,0,.47.76,2.81,2.81,0,0,0,1.62-.18.48.48,0,0,1,.24,0Zm-3.1,3.31c-.19-.54-.53-.75-1-.59a4.14,4.14,0,0,1-1.71.21c-.06,0-.15.06-.19.11A2.93,2.93,0,0,1,14,15.7l-.54.15a20.44,20.44,0,0,0,2.7,1.61,8.38,8.38,0,0,1,.35-.8,6.51,6.51,0,0,1,1.39-1.87A.76.76,0,0,1,18.67,14.56ZM28.94,7.93a1.64,1.64,0,0,0,.25-2.09,1.1,1.1,0,0,0-.82-.55A2.1,2.1,0,0,0,26,6.76a1.35,1.35,0,0,0,1.19,1.89A6.07,6.07,0,0,0,28,8.59c.38,0,.57-.27.77-.53l-.66.34-.1-.26-.58.21-.35-.6.36-.18.19.27c.13,0,.26-.09.38-.15a.24.24,0,0,0,.11-.38c-.1-.15-.2-.29-.29-.44a.31.31,0,0,1,0-.19,3.75,3.75,0,0,1,.24-.36l.75.11c.33.05.34.05.34.39a.39.39,0,0,1-.1.24c-.12.14-.26.27-.39.41s-.13.2-.2.3l0,0,.29-.13ZM16,7.67a2.73,2.73,0,0,0,.23-1.81A1,1,0,0,0,15.06,5a1.49,1.49,0,0,0-.36,0,1.77,1.77,0,0,0-1.51,1.16,3.08,3.08,0,0,0-.12,1A1.17,1.17,0,0,0,14,8.34a2.05,2.05,0,0,0,1.36-.11,1,1,0,0,0,.54-.52L15.46,8l-.26-.32a4.65,4.65,0,0,1-.43.23.21.21,0,0,1-.19,0c-.18-.15-.35-.3-.53-.47l.29-.25c.2.13.34.4.63.16s.25-.3.08-.51-.23-.26-.33-.4a.33.33,0,0,1,0-.24A.82.82,0,0,1,14.81,6s.08-.08.12-.08l.87,0a.22.22,0,0,1,.14.11c.12.26.16.52-.12.72a.77.77,0,0,0-.19.21.71.71,0,0,0-.11.51l.24-.16Zm13.1,7a.8.8,0,0,0,.42-.5,2.14,2.14,0,0,0,0-1.39A21.78,21.78,0,0,0,28,9s0,0-.08-.07a12,12,0,0,0-.19,1.67,8,8,0,0,1,0,2.59.21.21,0,0,0,.07.15A5.22,5.22,0,0,1,29.08,14.69ZM15.5,8.57l.16,0c.36.11.38.13.42.5,0,.12,0,.24,0,.36s0,.29-.18.34a.12.12,0,0,0-.05.12c.05.34.11.67.18,1,0,.05.1.1.16.12a5.48,5.48,0,0,0,.79.23c.3,0,.6,0,.94.05A1,1,0,0,1,17.88,10a6.66,6.66,0,0,1,.68-.83,3.31,3.31,0,0,1,.34-.3l0-.07a4.34,4.34,0,0,0-.51,0,1.84,1.84,0,0,1-1.11-.17l-.85-.42c-.06,0-.15-.06-.19,0ZM9.05,3.79c.06.22.1.43.18.64a.18.18,0,0,0,.27.12A.75.75,0,0,0,9.93,4a4.37,4.37,0,0,1,.25-1,1,1,0,0,1,1.25-.51l.16.05c.15,0,.3-.07.38-.26s-.06-.2-.15-.25a1.67,1.67,0,0,0-1.09-.27A2,2,0,0,0,9.05,3.79Zm15.82-.88.51-.44A2.71,2.71,0,0,0,24.31,2a1.76,1.76,0,0,0-1.86.8,1.93,1.93,0,0,0-.06,1.75.13.13,0,0,0,.12.07.63.63,0,0,0,.43-.7A1.06,1.06,0,0,1,24,2.46,1.14,1.14,0,0,1,24.87,2.91ZM29.65,4.8h.07a1.33,1.33,0,0,0,0-2,1.07,1.07,0,0,0-1.5-.15c.22.2.45.4.66.61a.38.38,0,0,0,.33.14.47.47,0,0,1,.54.36,3.51,3.51,0,0,1-.06.79A1.36,1.36,0,0,1,29.65,4.8ZM12,19.89a.38.38,0,0,0,.05-.11,1.67,1.67,0,0,0-.07-1.4c-.19-.37-.4-.72-.63-1.12,0,.17-.12.32-.15.48a1.66,1.66,0,0,0,.19.93ZM15,2.26a3.43,3.43,0,0,1,.47.28.64.64,0,0,0,.61.13.5.5,0,0,1,.64.51c0,.16,0,.33,0,.49s.07.27.1.41h.07a1.39,1.39,0,0,0,.06-.19,1.76,1.76,0,0,0-.31-1.34A1,1,0,0,0,15,2.26ZM25.72,9.12c-.13-.07-.21-.15-.28-.15-.37,0-.74,0-1.1,0-.05,0-.13.06-.13.09,0,.18,0,.36.05.53A3.7,3.7,0,0,0,25.72,9.12ZM13.56,8.71,12,8.55l.13.54h1C13.36,9.09,13.48,9,13.56,8.71Zm2.24.83c0-.21,0-.35,0-.5a.18.18,0,0,0-.1-.11l-1-.17a1.21,1.21,0,0,1,0,.23c-.07.19,0,.29.19.34Zm-3.69.57.07,0,.84-.7a3.23,3.23,0,0,0-.75,0c-.06,0-.15.07-.15.11C12.1,9.7,12.11,9.91,12.11,10.11Zm14.63-.78.77.22.06-.41-.74-.05Zm-13-.21a2.78,2.78,0,0,0,.59,0,.47.47,0,0,0,0-.34c0-.08-.22-.09-.34-.13l0,0,.3.25,0,0-.44-.12Zm12.77-.07-.31,0L26,9c0,.21.06.34.3.34S26.45,9.18,26.52,9.05Zm.86,1.25c.07-.48,0-.56-.47-.57Zm-3.34,0,.64-.41L24,10Zm-8.54-.06c.14-.41.09-.48-.4-.51Z"/><path d="M32.17,22.21l.22.27.24.26h-.55a.57.57,0,0,0-.66-.52l0,.52h-.39V21.32h1.06a.42.42,0,0,1,.45.34c0,.23-.05.39-.3.5Zm-.74-.29a5.9,5.9,0,0,0,.6,0,.21.21,0,0,0,.17-.14c0-.05-.08-.17-.13-.17-.21,0-.43,0-.64,0Z"/><path d="M23.38,22.26h-.44V22h.77v.6a1.35,1.35,0,0,1-1.28.12A.76.76,0,0,1,22,22a.7.7,0,0,1,.53-.64,2.73,2.73,0,0,1,.7,0,1.62,1.62,0,0,1,.34.1l-.11.26a2.87,2.87,0,0,0-.6-.14.58.58,0,0,0-.34.13.47.47,0,0,0-.11.59.67.67,0,0,0,.77.23C23.35,22.47,23.44,22.43,23.38,22.26Z"/><path d="M21.85,22.05a.86.86,0,0,1-1.71,0,.76.76,0,0,1,.87-.74A.75.75,0,0,1,21.85,22.05Zm-.85.47a.49.49,0,1,0-.51-.48A.48.48,0,0,0,21,22.52Z"/><path d="M25.5,22.76H24.08V21.31h1.38v.3h-1v.24h.66v.31l-.41,0c-.28,0-.29,0-.26.32h1Z"/><path d="M29.33,21.31h1.38v.3h-1v.24h.66v.31h-.66v.29h1v.32H29.33Z"/><path d="M17.66,21.48l-.14.27a.81.81,0,0,0-.8-.17c-.06,0-.1.09-.15.14s.11.11.17.12.41,0,.61.08a.39.39,0,0,1,.35.38.41.41,0,0,1-.29.42,1.19,1.19,0,0,1-.87,0,2.52,2.52,0,0,1-.29-.1l.12-.28a1,1,0,0,0,.78.16c.08,0,.15-.1.22-.16-.08,0-.14-.11-.22-.12s-.35,0-.52-.07a.37.37,0,0,1-.36-.35.41.41,0,0,1,.29-.46,1,1,0,0,1,.77,0Z"/><path d="M28.94,21.33v1.41h-.38l0-.58h-.85l0,.58h-.39V21.33h.39l0,.53h.82v-.53Z"/><path d="M7.55,22.75H7.1c.12-.24.25-.47.36-.71s.31-.42.27-.71h.44a1.23,1.23,0,0,0,.08.29c.19.37.4.74.61,1.12H8.37c.05-.27,0-.36-.29-.36h-.3C7.56,22.38,7.47,22.51,7.55,22.75Zm.39-1-.22.46h.46Z"/><path d="M14.05,21.33c0,.07,0,.15,0,.2.21.41.43.8.65,1.21h-.47c0-.27,0-.36-.31-.36h-.26c-.26,0-.34.11-.28.37H13a8.79,8.79,0,0,0,.67-1.42Zm-.49.86H14l-.24-.46Z"/><path d="M15.63,22.75h-.44c.26-.65-.25-1-.55-1.41h.48l.3.54c.11-.22.33-.31.24-.55h.54c-.17.22-.33.44-.5.65S15.58,22.47,15.63,22.75Z"/><path d="M26.57,22.74h-.39V21.6h-.53v-.3H27.1v.3h-.53Z"/><path d="M19.47,22.75h-.39V21.6h-.53v-.3H20v.3h-.52Z"/><path d="M9.48,22.45h.92v.31H9.09V21.33h.39Z"/><path d="M26.18,5.48a.49.49,0,0,1-.5.49.49.49,0,0,1-.47-.49A.5.5,0,0,1,25.7,5,.49.49,0,0,1,26.18,5.48Z"/><path d="M13.1,5.07a.47.47,0,0,1-.45.49.5.5,0,0,1,0-1A.47.47,0,0,1,13.1,5.07Z"/><path d="M21.52,14.36a.47.47,0,0,1-.26.48.41.41,0,0,1-.49-.28,1.38,1.38,0,0,1-.12-.64.4.4,0,0,1,.23-.3.45.45,0,0,1,.39.11,4.25,4.25,0,0,1,.31.6Z"/><path d="M21.47,9.5a.65.65,0,0,1,.67-.62.62.62,0,0,1,.65.58.63.63,0,0,1-.68.63A.61.61,0,0,1,21.47,9.5Z"/><path d="M25,16.19c-1.38.1-1.38.1-2.1-.28a1.06,1.06,0,0,0-.22,1.17A12,12,0,0,1,23,18.27,2,2,0,0,1,23,19a1.23,1.23,0,0,1-1.11,1.09,2.35,2.35,0,0,1-2.53-1A2.26,2.26,0,0,1,19,17.26a25.2,25.2,0,0,1,1.15-3.8,4.87,4.87,0,0,1,.46-.75s.06-.06.06-.1c0-.32,0-.65.08-1,0,0,0,0,0-.1l-.53.07c-.3.05-.59.14-.89.16a14.07,14.07,0,0,1-1.59,0c-.4,0-.8-.12-1.2-.18l-.2-.06a5.56,5.56,0,0,1-.2,2.55c.41,0,.79-.06,1.16-.11s.46-.12.7-.17a.84.84,0,0,1,.84.27,1.62,1.62,0,0,1,.37,1.61,3.65,3.65,0,0,1-1.05,1.92,1.59,1.59,0,0,1-1,.49,1.82,1.82,0,0,1-.66-.1,14.74,14.74,0,0,1-2.9-1.69,1.14,1.14,0,0,0-.83-.22c-.11,0-.16.05-.18.15a1.31,1.31,0,0,1-.48.82.29.29,0,0,0-.09.39,4.37,4.37,0,0,0,.35.68,2.16,2.16,0,0,1-.77,3.12,5.51,5.51,0,0,1-.54.22l.17,0a1.41,1.41,0,0,0,.29.84,3.12,3.12,0,0,0,.27-.85h.52c-.07.32.19.54.24.82a1.69,1.69,0,0,0,.29-.82h.46A3.56,3.56,0,0,0,12.73,23h-.45A2.33,2.33,0,0,0,12,22a3,3,0,0,0-.34.94h-.39a1.65,1.65,0,0,0-.06-.32c-.1-.29-.23-.57-.34-.86a.43.43,0,0,0-.37-.29,2.5,2.5,0,0,1-2-1.8,5.38,5.38,0,0,1,0-1.5c.06-.69.19-1.38.29-2.07V16c-.28,0-.55.12-.83.15a.73.73,0,0,1-.88-.6,4.21,4.21,0,0,1,.16-2.8,10.3,10.3,0,0,1,2.3-3.49,3.06,3.06,0,0,1,1.33-.95,7.89,7.89,0,0,1-.74-.66,3.59,3.59,0,0,1-.85-2.53.93.93,0,0,0-.09-.4A2.29,2.29,0,0,1,9.7,2.27,2,2,0,0,1,12,1.94a.77.77,0,0,0,.3.06,6.29,6.29,0,0,1,2.4.28A.37.37,0,0,0,15,2.21a1.57,1.57,0,0,1,1.3-.3l.2.08a2.07,2.07,0,0,1,.82,2.54.43.43,0,0,0,0,.25A3.8,3.8,0,0,1,16.73,8s0,0,0,.07a3.06,3.06,0,0,0,1.86.57,2.29,2.29,0,0,1,.72.11.31.31,0,0,0,.19,0,4.86,4.86,0,0,1,3-.85s0-.06,0-.07a2.51,2.51,0,0,1-.31-2.58c0-.09.08-.17.1-.25a1.12,1.12,0,0,0,0-.36,2.87,2.87,0,0,1-.09-1.3A2,2,0,0,1,23.7,1.88a2.12,2.12,0,0,1,1.74.34.67.67,0,0,0,.48.1,4,4,0,0,1,2,.29.33.33,0,0,0,.24,0,1.49,1.49,0,0,1,2,.23A1.62,1.62,0,0,1,30.36,5a1.32,1.32,0,0,1-.18.22c-.18.14-.17.31-.16.52s0,.67,0,1a2.34,2.34,0,0,1,0,.38,2.86,2.86,0,0,1-1.47,2l.11.25A20.5,20.5,0,0,1,30,12.82,2.53,2.53,0,0,1,30,14.36a2.08,2.08,0,0,1-.19.43.85.85,0,0,1-1,.38,4.1,4.1,0,0,1-.46-.19,3.81,3.81,0,0,0,.57,1.41.74.74,0,0,0,.51.2,2.18,2.18,0,0,1,2.14,1.79,1.33,1.33,0,0,1-.35,1.33,2.4,2.4,0,0,1-.75.5,6.24,6.24,0,0,1-2.37.56A3.48,3.48,0,0,1,27,20.62a1,1,0,0,1-.65-.67c-.41-1.19-.83-2.38-1.25-3.57A1.08,1.08,0,0,0,25,16.19ZM21,12.51a.94.94,0,0,1,1,.37,4.89,4.89,0,0,1,.87,1.56,3.45,3.45,0,0,1,.19.89.43.43,0,0,0,.25.41,1.76,1.76,0,0,0,.35.15,2.36,2.36,0,0,0,1.44,0,3.41,3.41,0,0,0,2.36-2A4.67,4.67,0,0,0,27.55,11a.75.75,0,0,0-.15-.23l-.64-.81s-.07-.09-.1-.09a1.45,1.45,0,0,0-.92.09l-1.56.95c-.08.05-.2.14-.24-.08,0,.06-.07.09-.09.13a1.47,1.47,0,0,1-1.23.74H21.25c-.07,0-.19.05-.2.09C21,12,21,12.23,21,12.51Zm5.6-3.64v0l0,0a1.61,1.61,0,0,1-.68-1.65,2.32,2.32,0,0,1,2-2,1.84,1.84,0,0,1,1.51.31.15.15,0,0,0,.09,0c.2,0,.23.13.26.27a.9.9,0,0,1,0,.16h.06c0-.12,0-.26-.05-.38A4.31,4.31,0,0,0,29.14,4,3.32,3.32,0,0,0,26,2.6c-.05,0-.14,0-.14.06,0,.26-.26.34-.41.49s-.41.35-.65.13c-.43.32-.84.61-1.24.92a.39.39,0,0,0-.09.17,1.19,1.19,0,0,1-.79.71.24.24,0,0,0-.26.19c0,.1-.08.2-.11.3A2.09,2.09,0,0,0,23,8c.33.25.69.47,1,.7a1.08,1.08,0,0,0,.8.2,3.84,3.84,0,0,1,.59,0Zm-9.9-1.28A3.59,3.59,0,0,0,17,5a4.13,4.13,0,0,0-4.5-2.64c0,.55-.29.82-.87.75a.13.13,0,0,0-.12,0c-.34.53-.95.82-1.18,1.45a.87.87,0,0,1-.81.53c0,.23,0,.45.05.66a2.83,2.83,0,0,0,1.69,2.41,2.27,2.27,0,0,0,.93.22c.41,0,.81,0,1.21.08a4.17,4.17,0,0,1-.31-.54A2.12,2.12,0,0,1,13,6.65a1.89,1.89,0,0,1,1.11-1.48,4,4,0,0,1,1.24-.31c.45,0,.77.28,1.18.36.21,0,.29.34.21.59a.4.4,0,0,0,0,.18A3.92,3.92,0,0,1,16.65,7.59Zm-6,5.85c.26.21.53.39.77.61a3.73,3.73,0,0,1,1.11,1.67s.11.1.16.1a8.54,8.54,0,0,0,1-.11,2.67,2.67,0,0,0,2.12-1.78,5.34,5.34,0,0,0,.06-2.86.23.23,0,0,0-.07-.1,3.88,3.88,0,0,1-.31-.26c-.27-.3-.51-.61-.77-.9a.4.4,0,0,0-.23-.14c-.73-.16-.71-.13-1.31.33a5.19,5.19,0,0,0-1.51,1.78C11.4,12.35,11,12.89,10.66,13.44Zm1.27-3.88c0-.15.1-.32.05-.44a.93.93,0,0,0-.91-.53,1.62,1.62,0,0,0-1,.49,10.35,10.35,0,0,0-2.61,3.7,3.84,3.84,0,0,0-.17,2.73A.42.42,0,0,0,8,15.8a1.24,1.24,0,0,0,.41-.31c.22-.26.4-.56.64-.81a4.15,4.15,0,0,1,.62-.46c.09-.07.22-.12.28-.21L12,10.71a.54.54,0,0,0,.06-.25q0-.36,0-.72C12,9.67,12,9.61,11.93,9.56Zm13.41,6.51c0,.05,0,.08,0,.09.43,1.23.87,2.45,1.29,3.67a.84.84,0,0,0,.53.54c.16.07.3.11.43-.08a1.05,1.05,0,0,1,.28-.22,4.6,4.6,0,0,1,3-.78c.31,0,.36,0,.41-.31a1,1,0,0,0,0-.42,1.86,1.86,0,0,0-1.86-1.66,1,1,0,0,1-1-.64c-.15-.39-.28-.78-.42-1.17s-.24-.64-.35-1h-.06A3.82,3.82,0,0,1,25.34,16.07ZM10.5,13.72l-.53.65a1,1,0,0,0-.17.23,2.89,2.89,0,0,1-.62,1,.43.43,0,0,0-.09.16c-.14,1-.3,2.1-.41,3.15A2,2,0,0,0,9.92,21a1.49,1.49,0,0,0,2.1-.58c0-.06-.11-.1-.13-.16-.11-.27-.21-.54-.32-.8s-.3-.64-.4-1a1.19,1.19,0,0,1,.17-1.15,2.73,2.73,0,0,1,.44-.39,1.17,1.17,0,0,0,.28-1.61,4.21,4.21,0,0,0-.39-.58A4.43,4.43,0,0,0,10.5,13.72Zm10.91,6.12c.76,0,1.2-.34,1.28-1a3.25,3.25,0,0,0-.14-1.31,4.47,4.47,0,0,1-.2-.95,1.11,1.11,0,0,1,.18-.61,1,1,0,0,0,.18-.72,4.63,4.63,0,0,0-1-2.15,1,1,0,0,0-.22-.2.45.45,0,0,0-.65,0,1.6,1.6,0,0,0-.4.56A25.29,25.29,0,0,0,19.3,17.3a1.85,1.85,0,0,0,.08,1.27A2,2,0,0,0,21.41,19.84ZM22,11.45v-.06h.49a1.4,1.4,0,0,0,1.35-1.15,2.16,2.16,0,0,0-.09-1.31c-.07-.17-.33-.26-.49-.41a1.4,1.4,0,0,0-.94-.3A4.78,4.78,0,0,0,18.57,10a2.13,2.13,0,0,0-.39.69.59.59,0,0,0,.47.76,2.77,2.77,0,0,0,1.61-.18.49.49,0,0,1,.24,0Zm-3.11,3.31c-.18-.54-.52-.75-1-.59a4.14,4.14,0,0,1-1.71.21.25.25,0,0,0-.19.11,2.92,2.92,0,0,1-1.78,1.41l-.53.15a20.44,20.44,0,0,0,2.7,1.61c.12-.28.21-.55.34-.8A6.41,6.41,0,0,1,18.06,15,.73.73,0,0,1,18.86,14.76ZM29.14,8.13A1.64,1.64,0,0,0,29.39,6a1.1,1.1,0,0,0-.82-.55A2.1,2.1,0,0,0,26.2,7a1.35,1.35,0,0,0,1.19,1.89,8.09,8.09,0,0,0,.85-.06c.37,0,.57-.27.77-.53l-.66.34-.1-.26-.58.21-.35-.61.36-.17.18.27.39-.15a.25.25,0,0,0,.11-.38c-.1-.15-.2-.29-.29-.44a.21.21,0,0,1,0-.19,4,4,0,0,1,.24-.37l.75.12c.33,0,.34,0,.34.39a.39.39,0,0,1-.1.24c-.12.14-.26.27-.39.41s-.13.2-.2.3l0,0L29,7.86Zm-13-.26a2.67,2.67,0,0,0,.22-1.81,1,1,0,0,0-1.15-.89,1.48,1.48,0,0,0-.35,0,1.77,1.77,0,0,0-1.51,1.16,3.06,3.06,0,0,0-.13,1,1.16,1.16,0,0,0,.94,1.15,2,2,0,0,0,1.36-.1,1,1,0,0,0,.54-.52l-.44.33-.27-.32a3.55,3.55,0,0,1-.42.23.21.21,0,0,1-.19,0l-.54-.47.3-.26c.2.14.33.41.63.17s.25-.31.08-.51a3.29,3.29,0,0,1-.33-.41.31.31,0,0,1,0-.23A.82.82,0,0,1,15,6.19a.16.16,0,0,1,.12-.08l.87,0a.21.21,0,0,1,.14.1c.12.27.16.53-.13.73a.94.94,0,0,0-.18.21.65.65,0,0,0-.11.5L16,7.54Zm13.1,7a.8.8,0,0,0,.42-.5,2.14,2.14,0,0,0,0-1.39,21.78,21.78,0,0,0-1.51-3.83s0,0-.08-.07a12,12,0,0,0-.19,1.67,8,8,0,0,1,0,2.59.21.21,0,0,0,.07.15A5.39,5.39,0,0,1,29.28,14.89ZM15.7,8.77l.15,0c.36.11.38.13.42.5a2.17,2.17,0,0,1,0,.36c0,.14,0,.29-.18.34s-.06.08-.06.12c.06.33.12.67.19,1,0,0,.1.1.16.12a4.42,4.42,0,0,0,.79.22,8.92,8.92,0,0,0,.94.06,1.06,1.06,0,0,1-.06-1.37,8.81,8.81,0,0,1,.69-.82,3.31,3.31,0,0,1,.34-.3l0-.07a2.92,2.92,0,0,0-.51,0,1.84,1.84,0,0,1-1.11-.17l-.86-.42c-.05,0-.14-.06-.18,0ZM9.25,4a5.11,5.11,0,0,0,.18.64.18.18,0,0,0,.27.12.75.75,0,0,0,.43-.53,3.88,3.88,0,0,1,.25-1,1,1,0,0,1,1.25-.52.76.76,0,0,0,.16.06c.15,0,.3-.07.38-.26s-.06-.2-.15-.25A1.68,1.68,0,0,0,10.93,2,1.93,1.93,0,0,0,9.25,4Zm15.82-.88.5-.44a2.76,2.76,0,0,0-1.06-.52A1.77,1.77,0,0,0,22.65,3a1.9,1.9,0,0,0-.06,1.75.13.13,0,0,0,.12.07.63.63,0,0,0,.43-.7,1.06,1.06,0,0,1,1.07-1.42A1.14,1.14,0,0,1,25.07,3.11ZM29.85,5h.07a1.33,1.33,0,0,0,0-2,1.07,1.07,0,0,0-1.5-.15c.22.2.45.39.66.61a.37.37,0,0,0,.32.14A.48.48,0,0,1,30,4a3.51,3.51,0,0,1-.06.79C29.91,4.83,29.87,4.91,29.85,5ZM12.22,20.09a.38.38,0,0,0,0-.11,1.66,1.66,0,0,0-.08-1.41c-.18-.36-.4-.72-.62-1.11a3.18,3.18,0,0,0-.15.47,1.6,1.6,0,0,0,.19.94ZM15.17,2.46a4.17,4.17,0,0,1,.47.28.64.64,0,0,0,.61.13.5.5,0,0,1,.64.51c0,.16,0,.32,0,.48s.07.28.1.42h.07l.06-.19a1.79,1.79,0,0,0-.31-1.35A1,1,0,0,0,15.17,2.46ZM25.92,9.32c-.13-.07-.21-.15-.29-.15-.36,0-.73,0-1.09,0-.05,0-.13.07-.13.1s0,.36.05.53A3.7,3.7,0,0,0,25.92,9.32ZM13.75,8.91l-1.52-.16.13.54h1C13.56,9.29,13.68,9.19,13.75,8.91ZM16,9.74c0-.21,0-.36,0-.5a.18.18,0,0,0-.1-.11c-.31-.07-.63-.12-1-.17a1.17,1.17,0,0,1,0,.23c-.06.19,0,.29.2.34Zm-3.69.57.07,0,.84-.7a3.23,3.23,0,0,0-.75,0c-.06,0-.15.07-.15.11C12.3,9.9,12.31,10.1,12.31,10.31Zm14.63-.78.77.22.06-.41L27,9.29ZM14,9.32a2.69,2.69,0,0,0,.58,0,.42.42,0,0,0,0-.34c-.06-.08-.22-.09-.34-.13l0,.05.3.25,0,0L14,9Zm12.76-.07-.3,0-.25,0c0,.2.07.34.31.33S26.65,9.37,26.71,9.25Zm.87,1.25c.07-.48,0-.56-.48-.58Zm-3.34,0,.63-.4-.65.05Zm-8.54-.05c.14-.41.09-.49-.4-.52Z"/><path d="M32.37,22.41a3.2,3.2,0,0,0,.22.27l.23.26h-.54a.59.59,0,0,0-.67-.53l0,.53h-.39V21.52h1.06a.42.42,0,0,1,.45.34c.05.23,0,.39-.3.5Zm-.75-.29a6.05,6.05,0,0,0,.61,0A.24.24,0,0,0,32.4,22s-.08-.17-.13-.17c-.21,0-.43,0-.65,0Z"/><path d="M23.58,22.45h-.44v-.29h.76v.61a1.32,1.32,0,0,1-1.28.11.74.74,0,0,1-.38-.7.68.68,0,0,1,.53-.64,2.34,2.34,0,0,1,.7,0,1.62,1.62,0,0,1,.34.1l-.11.26a3,3,0,0,0-.6-.14.58.58,0,0,0-.34.13.46.46,0,0,0-.11.59.67.67,0,0,0,.77.23C23.54,22.67,23.64,22.63,23.58,22.45Z"/><path d="M22.05,22.24a.86.86,0,0,1-1.71,0,.77.77,0,0,1,.87-.75A.76.76,0,0,1,22.05,22.24Zm-.85.48a.49.49,0,0,0,.51-.48.49.49,0,0,0-.52-.5.48.48,0,0,0-.5.5A.48.48,0,0,0,21.2,22.72Z"/><path d="M25.69,23H24.28V21.51h1.38v.29h-1v.25h.67v.31l-.41,0c-.29,0-.29,0-.26.31h1Z"/><path d="M29.53,21.51h1.38v.29h-1v.25h.66v.31h-.66v.29h1V23H29.53Z"/><path d="M17.86,21.68l-.14.26a.83.83,0,0,0-.8-.16c-.06,0-.1.09-.16.14s.12.11.18.12.4,0,.6.08a.39.39,0,0,1,.36.38.42.42,0,0,1-.29.42,1.24,1.24,0,0,1-.87,0l-.29-.1.11-.29a1,1,0,0,0,.79.17c.08,0,.14-.1.21-.16a1.2,1.2,0,0,0-.21-.13c-.17,0-.35,0-.53-.06a.37.37,0,0,1-.35-.35.41.41,0,0,1,.29-.46,1,1,0,0,1,.76,0Z"/><path d="M29.14,21.53v1.41h-.38l0-.58h-.85l0,.58h-.39V21.53H28l0,.53h.81v-.53Z"/><path d="M7.74,23H7.3c.12-.24.25-.47.36-.71s.31-.42.27-.71h.44a1.38,1.38,0,0,0,.08.29c.19.37.4.74.61,1.12H8.57c0-.27,0-.36-.29-.36H8C7.75,22.58,7.67,22.71,7.74,23Zm.39-1-.21.45h.46Z"/><path d="M14.25,21.53c0,.07,0,.15,0,.2l.65,1.21h-.47c0-.27,0-.36-.32-.36h-.25c-.26,0-.34.11-.28.36h-.43a8.69,8.69,0,0,0,.67-1.41Zm-.49.86h.47L14,21.93Z"/><path d="M15.83,23h-.44c.26-.65-.25-1-.56-1.41h.49l.3.53c.1-.21.32-.3.24-.54h.53c-.16.22-.32.43-.49.64A.89.89,0,0,0,15.83,23Z"/><path d="M26.76,22.94h-.39V21.8h-.53v-.3H27.3v.3h-.54Z"/><path d="M19.67,22.94h-.4V21.8h-.52v-.3h1.44v.3h-.52Z"/><path d="M9.68,22.65h.92V23H9.29V21.53h.39Z"/><path d="M26.37,5.67a.49.49,0,0,1-.49.5.48.48,0,0,1-.47-.49.49.49,0,0,1,.48-.49A.48.48,0,0,1,26.37,5.67Z"/><path d="M13.3,5.27a.48.48,0,0,1-.45.49.48.48,0,0,1-.45-.49.45.45,0,1,1,.9,0Z"/><path d="M21.72,14.56a.46.46,0,0,1-.27.48.42.42,0,0,1-.49-.28,1.57,1.57,0,0,1-.11-.64.4.4,0,0,1,.23-.3.45.45,0,0,1,.39.11,3.06,3.06,0,0,1,.3.6Z"/><path d="M21.67,9.7a.65.65,0,0,1,.67-.62.61.61,0,1,1,0,1.21A.61.61,0,0,1,21.67,9.7Z"/></g><g class="cls-3"><path d="M24.7,15.85c-1.38.1-1.38.1-2.1-.28a1.06,1.06,0,0,0-.22,1.17,12,12,0,0,1,.27,1.19,2,2,0,0,1,0,.73,1.23,1.23,0,0,1-1.11,1.09,2.35,2.35,0,0,1-2.53-1,2.26,2.26,0,0,1-.32-1.84,25.2,25.2,0,0,1,1.15-3.8,4.87,4.87,0,0,1,.46-.75s.06-.06.06-.1c0-.32.05-.65.08-1,0,0,0,0,0-.1l-.53.07c-.3.05-.59.14-.89.16a14.07,14.07,0,0,1-1.59,0c-.4,0-.8-.12-1.2-.18l-.2-.06a5.56,5.56,0,0,1-.2,2.55c.41,0,.79-.06,1.16-.11s.46-.12.7-.17a.84.84,0,0,1,.84.27,1.62,1.62,0,0,1,.37,1.61,3.65,3.65,0,0,1-1.05,1.92,1.59,1.59,0,0,1-1,.49,1.82,1.82,0,0,1-.66-.1A14.74,14.74,0,0,1,13.2,16a1.14,1.14,0,0,0-.83-.22c-.11,0-.16.05-.18.15a1.31,1.31,0,0,1-.48.82.29.29,0,0,0-.09.39,4.37,4.37,0,0,0,.35.68,2.16,2.16,0,0,1-.77,3.12,4.84,4.84,0,0,1-.55.22l.18,0a1.46,1.46,0,0,0,.28.84,2.83,2.83,0,0,0,.28-.85h.52c-.07.32.19.54.24.82a1.69,1.69,0,0,0,.29-.82h.46a3.51,3.51,0,0,0-.51,1.42h-.45a2.33,2.33,0,0,0-.32-.95,3,3,0,0,0-.34.94h-.39a1.65,1.65,0,0,0-.06-.32c-.1-.29-.23-.57-.34-.86a.43.43,0,0,0-.37-.29,2.5,2.5,0,0,1-2-1.8,5.38,5.38,0,0,1,0-1.5c.06-.69.19-1.38.29-2.07v-.09c-.28.05-.55.12-.83.15a.73.73,0,0,1-.88-.6,4.21,4.21,0,0,1,.16-2.8,10.15,10.15,0,0,1,2.3-3.49A3.06,3.06,0,0,1,10.47,8a7.89,7.89,0,0,1-.74-.66,3.59,3.59,0,0,1-.85-2.53.93.93,0,0,0-.09-.4,2.29,2.29,0,0,1,.57-2.46,2,2,0,0,1,2.31-.34.63.63,0,0,0,.3.07,6.29,6.29,0,0,1,2.4.28.37.37,0,0,0,.26-.07,1.56,1.56,0,0,1,1.3-.3l.2.08A2.07,2.07,0,0,1,17,4.19a.36.36,0,0,0,0,.25,3.8,3.8,0,0,1-.53,3.25s0,0,0,.07a3.06,3.06,0,0,0,1.86.57,2.29,2.29,0,0,1,.72.11.31.31,0,0,0,.19,0,4.86,4.86,0,0,1,3-.85s0-.06,0-.07a2.51,2.51,0,0,1-.31-2.58c0-.09.08-.17.1-.25a1.12,1.12,0,0,0,0-.36A2.87,2.87,0,0,1,21.82,3a2,2,0,0,1,1.54-1.49,2.12,2.12,0,0,1,1.74.34.67.67,0,0,0,.48.1,4,4,0,0,1,2,.29.36.36,0,0,0,.25,0,1.49,1.49,0,0,1,2,.23A1.62,1.62,0,0,1,30,4.63a1.32,1.32,0,0,1-.18.22c-.18.14-.17.31-.16.52s0,.67,0,1a2.34,2.34,0,0,1,0,.38,2.86,2.86,0,0,1-1.47,2l.11.25a20.5,20.5,0,0,1,1.35,3.46A2.53,2.53,0,0,1,29.68,14a2.08,2.08,0,0,1-.19.43.85.85,0,0,1-1,.38c-.15-.05-.29-.12-.47-.19a4,4,0,0,0,.58,1.41.74.74,0,0,0,.51.2A2.18,2.18,0,0,1,31.21,18a1.33,1.33,0,0,1-.35,1.33,2.4,2.4,0,0,1-.75.5,6.24,6.24,0,0,1-2.37.56,3.48,3.48,0,0,1-1.06-.15,1,1,0,0,1-.65-.67c-.41-1.2-.83-2.38-1.25-3.57A1.08,1.08,0,0,0,24.7,15.85Zm-4.09-3.68a.94.94,0,0,1,1,.37,4.89,4.89,0,0,1,.87,1.56,3.45,3.45,0,0,1,.19.89.43.43,0,0,0,.25.41,1.76,1.76,0,0,0,.35.15,2.36,2.36,0,0,0,1.44,0,3.41,3.41,0,0,0,2.36-2,4.67,4.67,0,0,0,.14-2.91.75.75,0,0,0-.15-.23l-.64-.81s-.07-.09-.1-.09a1.39,1.39,0,0,0-.92.09l-1.56.95c-.08.05-.2.14-.24-.08,0,.06-.07.09-.09.13a1.47,1.47,0,0,1-1.23.74H20.91c-.07,0-.19,0-.2.09C20.67,11.65,20.64,11.89,20.61,12.17Zm5.6-3.64v0l0,0a1.61,1.61,0,0,1-.68-1.65,2.32,2.32,0,0,1,2-2A1.84,1.84,0,0,1,29,5.18a.15.15,0,0,0,.09,0c.2,0,.23.13.26.27a.9.9,0,0,1,0,.16h.06c0-.12,0-.26-.05-.38a4.31,4.31,0,0,0-.58-1.62,3.32,3.32,0,0,0-3.12-1.38c-.05,0-.14,0-.14.06,0,.26-.26.34-.41.49s-.41.35-.65.13c-.43.32-.84.61-1.24.92a.39.39,0,0,0-.09.17,1.19,1.19,0,0,1-.79.71.24.24,0,0,0-.26.19c0,.1-.08.2-.11.3a2.09,2.09,0,0,0,.67,2.42c.33.25.69.47,1,.7a1.08,1.08,0,0,0,.8.2,3.84,3.84,0,0,1,.59,0Zm-9.9-1.28a3.59,3.59,0,0,0,.34-2.64A4.15,4.15,0,0,0,12.15,2c0,.56-.29.83-.87.76a.13.13,0,0,0-.12,0c-.34.53-.95.82-1.18,1.45a.87.87,0,0,1-.81.53c0,.23,0,.45.05.66a2.83,2.83,0,0,0,1.69,2.41,2.27,2.27,0,0,0,.93.22c.41,0,.81.05,1.21.08a4.17,4.17,0,0,1-.31-.54,2.12,2.12,0,0,1-.08-1.27,1.89,1.89,0,0,1,1.11-1.48A4,4,0,0,1,15,4.52c.45,0,.77.28,1.18.36.21,0,.29.34.21.59a.4.4,0,0,0,0,.18A3.92,3.92,0,0,1,16.31,7.25Zm-6,5.85c.26.21.53.39.77.61a3.73,3.73,0,0,1,1.11,1.67s.11.1.16.1a8.54,8.54,0,0,0,1-.11,2.67,2.67,0,0,0,2.12-1.78,5.34,5.34,0,0,0,.06-2.86.23.23,0,0,0-.07-.1,3.88,3.88,0,0,1-.31-.26c-.27-.3-.51-.61-.77-.9a.4.4,0,0,0-.23-.14c-.73-.16-.71-.13-1.31.33a5.19,5.19,0,0,0-1.51,1.78C11.06,12,10.67,12.55,10.32,13.1Zm1.27-3.88c0-.15.1-.32.05-.44a.94.94,0,0,0-.92-.53,1.62,1.62,0,0,0-1,.49,10.35,10.35,0,0,0-2.61,3.7A3.84,3.84,0,0,0,7,15.17a.42.42,0,0,0,.64.29A1.24,1.24,0,0,0,8,15.15c.22-.26.4-.56.64-.81a4.15,4.15,0,0,1,.62-.46c.09-.07.22-.12.28-.21l2.07-3.3a.54.54,0,0,0,.06-.25q0-.36,0-.72A.75.75,0,0,0,11.59,9.22ZM25,15.73a.81.81,0,0,1,0,.09c.43,1.23.87,2.45,1.29,3.67a.84.84,0,0,0,.53.54c.16.07.3.11.43-.08a1.05,1.05,0,0,1,.28-.22,4.6,4.6,0,0,1,3-.78c.31,0,.36,0,.41-.31a1,1,0,0,0,0-.42,1.86,1.86,0,0,0-1.86-1.66,1,1,0,0,1-1-.64c-.15-.39-.28-.78-.42-1.17l-.36-1h-.05A3.82,3.82,0,0,1,25,15.73ZM10.16,13.38,9.63,14a1,1,0,0,0-.17.23,2.89,2.89,0,0,1-.62,1,.43.43,0,0,0-.09.16c-.14,1-.3,2.1-.41,3.15a2,2,0,0,0,1.24,2.06,1.5,1.5,0,0,0,2.1-.58c0-.06-.11-.1-.13-.16-.11-.27-.21-.54-.32-.8s-.3-.64-.4-1A1.19,1.19,0,0,1,11,17a2.32,2.32,0,0,1,.44-.39A1.17,1.17,0,0,0,11.72,15a4.21,4.21,0,0,0-.39-.58A4.43,4.43,0,0,0,10.16,13.38ZM21.07,19.5c.76,0,1.2-.34,1.28-1a3.25,3.25,0,0,0-.14-1.31,4.47,4.47,0,0,1-.2-.95,1.11,1.11,0,0,1,.18-.61,1,1,0,0,0,.18-.72,4.63,4.63,0,0,0-1-2.15,1,1,0,0,0-.22-.2.46.46,0,0,0-.66,0,1.71,1.71,0,0,0-.39.56A25.29,25.29,0,0,0,19,17,1.85,1.85,0,0,0,19,18.23,2,2,0,0,0,21.07,19.5Zm.56-8.39v-.06h.49A1.4,1.4,0,0,0,23.47,9.9a2.16,2.16,0,0,0-.09-1.31c-.07-.17-.33-.26-.49-.41a1.4,1.4,0,0,0-.94-.3,4.81,4.81,0,0,0-3.72,1.76,2.29,2.29,0,0,0-.39.7.58.58,0,0,0,.47.76,2.77,2.77,0,0,0,1.61-.18.49.49,0,0,1,.24,0Zm-3.11,3.31c-.18-.54-.52-.75-1-.59a4.14,4.14,0,0,1-1.71.21.25.25,0,0,0-.19.11,2.92,2.92,0,0,1-1.78,1.41l-.53.15A20.44,20.44,0,0,0,16,17.32c.12-.28.21-.55.34-.8a6.41,6.41,0,0,1,1.4-1.87A.73.73,0,0,1,18.52,14.42ZM28.8,7.79a1.64,1.64,0,0,0,.25-2.09,1.1,1.1,0,0,0-.82-.55,2.1,2.1,0,0,0-2.37,1.47,1.35,1.35,0,0,0,1.19,1.89,8.09,8.09,0,0,0,.85-.06c.37,0,.57-.27.77-.53L28,8.26,27.91,8l-.58.21L27,7.6l.36-.17.18.27.39-.15A.25.25,0,0,0,28,7.17c-.1-.15-.2-.29-.29-.45a.19.19,0,0,1,0-.18A4,4,0,0,1,28,6.17l.75.12c.33,0,.34,0,.34.39a.39.39,0,0,1-.1.24c-.12.14-.26.27-.39.41s-.13.2-.2.3l0,0,.29-.13Zm-13-.26a2.67,2.67,0,0,0,.22-1.81,1,1,0,0,0-1.15-.89,1.48,1.48,0,0,0-.35,0A1.77,1.77,0,0,0,13.05,6a3.06,3.06,0,0,0-.13,1,1.16,1.16,0,0,0,.94,1.15,2,2,0,0,0,1.36-.1,1,1,0,0,0,.54-.52l-.44.33-.27-.32a3.55,3.55,0,0,1-.42.23.25.25,0,0,1-.19,0l-.54-.47.3-.26c.2.14.33.41.63.17s.25-.31.08-.51a3.29,3.29,0,0,1-.33-.41.31.31,0,0,1,0-.23.82.82,0,0,1,.12-.25.16.16,0,0,1,.12-.08l.87,0a.21.21,0,0,1,.14.1c.12.27.16.53-.13.73a1.16,1.16,0,0,0-.18.2.68.68,0,0,0-.11.51l.24-.15Zm13.1,7a.8.8,0,0,0,.42-.5,2.14,2.14,0,0,0,0-1.39,21.78,21.78,0,0,0-1.51-3.83s0,0-.08-.07a12,12,0,0,0-.19,1.67,8,8,0,0,1,0,2.59.21.21,0,0,0,.07.15A5.39,5.39,0,0,1,28.94,14.55ZM15.36,8.43l.15,0c.36.11.38.13.42.5a2.17,2.17,0,0,1,0,.36c0,.14,0,.29-.18.34,0,0-.06.08-.06.12.06.33.12.67.19,1,0,0,.1.1.16.12a4.42,4.42,0,0,0,.79.22,8.92,8.92,0,0,0,.94.06,1.06,1.06,0,0,1-.06-1.37A8.81,8.81,0,0,1,18.42,9a3.31,3.31,0,0,1,.34-.3l0-.07a2.92,2.92,0,0,0-.51,0,1.92,1.92,0,0,1-1.11-.17L16.26,8c-.05,0-.14-.06-.18,0ZM8.9,3.65c.06.21.11.43.19.64a.18.18,0,0,0,.27.12.75.75,0,0,0,.43-.53,3.88,3.88,0,0,1,.25-1,1,1,0,0,1,1.25-.52.76.76,0,0,0,.16.06c.15,0,.3-.07.38-.26S11.77,2,11.68,2a1.68,1.68,0,0,0-1.09-.27A2,2,0,0,0,8.9,3.65Zm15.83-.88.5-.44a2.76,2.76,0,0,0-1.06-.52,1.77,1.77,0,0,0-1.86.81,1.9,1.9,0,0,0-.06,1.75.13.13,0,0,0,.12.07.63.63,0,0,0,.43-.7,1.06,1.06,0,0,1,1.07-1.42A1.14,1.14,0,0,1,24.73,2.77Zm4.78,1.89h.07a1.33,1.33,0,0,0,0-2,1.07,1.07,0,0,0-1.5-.15c.22.2.45.39.66.61a.4.4,0,0,0,.32.14.48.48,0,0,1,.55.36,4.21,4.21,0,0,1-.06.79C29.57,4.49,29.53,4.57,29.51,4.66ZM11.88,19.75l0-.11a1.66,1.66,0,0,0-.08-1.41c-.18-.36-.4-.72-.62-1.11a3.18,3.18,0,0,0-.15.47,1.62,1.62,0,0,0,.19.94ZM14.83,2.12a4.17,4.17,0,0,1,.47.28.64.64,0,0,0,.61.13.5.5,0,0,1,.64.51c0,.16,0,.32,0,.48s.07.28.1.42h.07l.06-.2a1.78,1.78,0,0,0-.31-1.34A1,1,0,0,0,14.83,2.12ZM25.58,9c-.13-.07-.21-.15-.29-.15-.36,0-.73,0-1.09,0-.05,0-.13.07-.13.1s0,.36.05.53A3.7,3.7,0,0,0,25.58,9ZM13.41,8.57l-1.52-.16L12,9h1C13.22,9,13.34,8.85,13.41,8.57Zm2.25.83c0-.21,0-.36,0-.5s-.06-.11-.1-.11c-.31-.07-.63-.12-1-.17a1.17,1.17,0,0,1,0,.23c-.06.19,0,.29.2.34ZM12,10,12,10l.84-.7a3.23,3.23,0,0,0-.75,0c-.06,0-.15.07-.15.11C12,9.56,12,9.76,12,10ZM26.6,9.18l.77.23L27.43,9,26.69,9Zm-13-.2a2.69,2.69,0,0,0,.58,0,.42.42,0,0,0,0-.34c-.06-.08-.22-.09-.34-.13l0,0,.3.25,0,0L13.7,8.7Zm12.76-.07-.3,0-.25,0c0,.2.07.34.31.33S26.31,9,26.37,8.91Zm.87,1.25c.07-.48,0-.56-.48-.58Zm-3.34,0,.63-.4-.65.05Zm-8.54-.05c.14-.41.09-.49-.4-.52Z"/><path d="M32,22.07a3.2,3.2,0,0,0,.22.27l.23.26h-.54a.59.59,0,0,0-.67-.53l0,.53h-.39V21.18H32a.42.42,0,0,1,.45.34c0,.23-.05.39-.3.5Zm-.75-.29a6.05,6.05,0,0,0,.61,0,.24.24,0,0,0,.17-.14c0-.05-.08-.17-.13-.17-.21,0-.43,0-.65,0Z"/><path d="M23.24,22.11H22.8v-.29h.76v.61a1.32,1.32,0,0,1-1.28.11.73.73,0,0,1-.38-.7.68.68,0,0,1,.53-.64,2.34,2.34,0,0,1,.7,0,1.62,1.62,0,0,1,.34.1l-.11.26a3,3,0,0,0-.6-.14.58.58,0,0,0-.34.13.46.46,0,0,0-.11.59.67.67,0,0,0,.77.23C23.2,22.33,23.3,22.29,23.24,22.11Z"/><path d="M21.71,21.9a.86.86,0,0,1-1.71,0,.86.86,0,0,1,1.71,0Zm-.85.48a.49.49,0,0,0,.51-.48.49.49,0,0,0-.52-.5.48.48,0,0,0-.5.5A.48.48,0,0,0,20.86,22.38Z"/><path d="M25.35,22.62H23.94V21.17h1.38v.29h-1v.25H25V22l-.41,0c-.29,0-.29,0-.26.31h1Z"/><path d="M29.19,21.17h1.38v.29h-1v.25h.66V22h-.66v.29h1v.32H29.19Z"/><path d="M17.52,21.34l-.14.26a.81.81,0,0,0-.8-.16c-.06,0-.1.09-.16.14s.12.11.18.12.4,0,.6.08a.39.39,0,0,1,.36.38.42.42,0,0,1-.29.42,1.24,1.24,0,0,1-.87,0l-.29-.1.11-.29a1,1,0,0,0,.79.17c.08,0,.14-.1.21-.16a1.2,1.2,0,0,0-.21-.13L16.48,22a.39.39,0,0,1-.36-.35.42.42,0,0,1,.3-.46,1,1,0,0,1,.76,0Z"/><path d="M28.8,21.19V22.6h-.38l0-.58H27.6l0,.58h-.39V21.19h.39l0,.53h.81v-.53Z"/><path d="M7.4,22.61H7c.12-.24.25-.47.36-.71s.31-.42.27-.71H8a2.46,2.46,0,0,0,.07.29l.62,1.12H8.23c0-.27,0-.36-.29-.36h-.3C7.41,22.24,7.33,22.37,7.4,22.61Zm.39-1L7.58,22H8Z"/><path d="M13.91,21.19c0,.07,0,.15,0,.2l.65,1.21h-.47c0-.27,0-.36-.32-.36h-.25c-.26,0-.34.11-.28.36h-.43a8.69,8.69,0,0,0,.67-1.41Zm-.49.85h.47l-.24-.45Z"/><path d="M15.49,22.61h-.44c.26-.65-.25-1-.56-1.41H15l.3.53c.1-.21.32-.3.24-.54h.53c-.16.22-.32.43-.49.64A.89.89,0,0,0,15.49,22.61Z"/><path d="M26.42,22.6H26V21.46H25.5v-.3H27v.3h-.54Z"/><path d="M19.33,22.6h-.4V21.46h-.52v-.3h1.44v.3h-.52Z"/><path d="M9.34,22.31h.92v.31H9V21.19h.39Z"/><path d="M26,5.33a.49.49,0,0,1-.49.5.48.48,0,0,1-.47-.49.49.49,0,0,1,.48-.49A.48.48,0,0,1,26,5.33Z"/><path d="M13,4.93a.48.48,0,0,1-.45.49.48.48,0,0,1-.45-.49.45.45,0,1,1,.9,0Z"/><path d="M21.38,14.22a.46.46,0,0,1-.27.48.42.42,0,0,1-.49-.28,1.57,1.57,0,0,1-.11-.64.4.4,0,0,1,.23-.3.45.45,0,0,1,.39.11,3.06,3.06,0,0,1,.3.6Z"/><path d="M21.33,9.36A.65.65,0,0,1,22,8.74a.63.63,0,0,1,.65.58A.64.64,0,0,1,22,10,.61.61,0,0,1,21.33,9.36Z"/></g><path class="cls-4" d="M24.9,16.05c-1.38.1-1.38.1-2.1-.28a1,1,0,0,0-.22,1.16,12.24,12.24,0,0,1,.27,1.2,2,2,0,0,1,0,.73A1.24,1.24,0,0,1,21.7,20a2.34,2.34,0,0,1-2.52-1,2.19,2.19,0,0,1-.32-1.84A25.2,25.2,0,0,1,20,13.32a4.87,4.87,0,0,1,.46-.75s.06-.07.06-.1c0-.32,0-.65.07-1,0,0,0,0,0-.1l-.53.07c-.3,0-.59.14-.89.16a14.07,14.07,0,0,1-1.59,0,10,10,0,0,1-1.2-.19l-.21-.05A5.44,5.44,0,0,1,16,14c.42,0,.8-.06,1.17-.11s.46-.12.7-.17a.84.84,0,0,1,.84.27A1.59,1.59,0,0,1,19,15.58a3.57,3.57,0,0,1-1,1.92A1.58,1.58,0,0,1,17,18a1.48,1.48,0,0,1-.66-.1,14.57,14.57,0,0,1-2.91-1.68,1.16,1.16,0,0,0-.82-.23c-.11,0-.16,0-.18.16a1.31,1.31,0,0,1-.48.82.3.3,0,0,0-.1.39,5.38,5.38,0,0,0,.36.67,2.18,2.18,0,0,1-.77,3.13,5.72,5.72,0,0,1-.55.22l.18,0a1.35,1.35,0,0,0,.28.84,3,3,0,0,0,.28-.84h.52c-.07.32.18.54.24.82a1.58,1.58,0,0,0,.28-.82h.47a3.52,3.52,0,0,0-.51,1.41h-.45a2.29,2.29,0,0,0-.32-.94,3,3,0,0,0-.34.94h-.39a1.65,1.65,0,0,0-.06-.32c-.11-.29-.23-.57-.34-.86a.44.44,0,0,0-.38-.29,2.53,2.53,0,0,1-2-1.81A5.72,5.72,0,0,1,8.3,18c.06-.7.19-1.38.29-2.07v-.09c-.28.05-.55.12-.83.15a.73.73,0,0,1-.88-.6A4.27,4.27,0,0,1,7,12.62,10.33,10.33,0,0,1,9.34,9.13a3.06,3.06,0,0,1,1.33-1,8,8,0,0,1-.75-.66A3.63,3.63,0,0,1,9.08,5,.93.93,0,0,0,9,4.59a2.29,2.29,0,0,1,.57-2.46,2,2,0,0,1,2.31-.34.78.78,0,0,0,.3.07,5.92,5.92,0,0,1,2.4.28.37.37,0,0,0,.26-.07,1.56,1.56,0,0,1,1.3-.3.64.64,0,0,1,.19.08,2.07,2.07,0,0,1,.83,2.54.36.36,0,0,0,0,.25,3.83,3.83,0,0,1-.53,3.25s0,0,0,.07a3.09,3.09,0,0,0,1.87.57,2.29,2.29,0,0,1,.72.11.31.31,0,0,0,.19,0,4.86,4.86,0,0,1,3-.85s0-.06,0-.07A2.54,2.54,0,0,1,22,5.14c0-.09.09-.17.11-.26a.83.83,0,0,0,0-.35A2.87,2.87,0,0,1,22,3.23a2,2,0,0,1,1.54-1.49,2.09,2.09,0,0,1,1.74.34.66.66,0,0,0,.47.1,4,4,0,0,1,2,.29.36.36,0,0,0,.25,0,1.48,1.48,0,0,1,2,.23,1.62,1.62,0,0,1,.13,2.13A.71.71,0,0,1,30,5c-.18.14-.17.31-.16.52s0,.67,0,1c0,.13,0,.25,0,.38a2.91,2.91,0,0,1-1.47,2l.11.25a20.5,20.5,0,0,1,1.35,3.46,2.53,2.53,0,0,1,.07,1.54,2,2,0,0,1-.19.42.85.85,0,0,1-1,.39c-.15,0-.29-.12-.47-.19a3.56,3.56,0,0,0,.58,1.4.69.69,0,0,0,.5.21,2.19,2.19,0,0,1,2.15,1.79,1.31,1.31,0,0,1-.35,1.32,2.49,2.49,0,0,1-.75.51,6.28,6.28,0,0,1-2.37.56,4.24,4.24,0,0,1-1.06-.15,1,1,0,0,1-.65-.67c-.41-1.2-.83-2.38-1.25-3.57C25,16.17,24.93,16.11,24.9,16.05Zm-4.09-3.69a1,1,0,0,1,1,.38,4.89,4.89,0,0,1,.87,1.56,3.37,3.37,0,0,1,.19.89.42.42,0,0,0,.25.41,1.54,1.54,0,0,0,.35.15,2.41,2.41,0,0,0,1.43,0,3.45,3.45,0,0,0,2.37-2,4.67,4.67,0,0,0,.14-2.91.65.65,0,0,0-.15-.23l-.64-.81s-.07-.09-.1-.1a1.48,1.48,0,0,0-.93.1l-1.55,1c-.09,0-.2.14-.24-.08a.61.61,0,0,0-.09.13,1.47,1.47,0,0,1-1.23.74H21.1c-.06,0-.18.05-.19.09C20.86,11.85,20.84,12.09,20.81,12.36Zm5.6-3.63v0s0,0,0,0a1.59,1.59,0,0,1-.68-1.65,2.3,2.3,0,0,1,2-2,1.8,1.8,0,0,1,1.51.31.15.15,0,0,0,.09,0c.2,0,.23.13.26.26l0,.17h.06c0-.13,0-.26-.06-.38A4.23,4.23,0,0,0,29,3.83a3.31,3.31,0,0,0-3.12-1.37c-.05,0-.14,0-.14.06,0,.26-.26.34-.41.49s-.41.35-.66.13l-1.23.91a.34.34,0,0,0-.09.18,1.2,1.2,0,0,1-.8.71.23.23,0,0,0-.25.19c0,.1-.08.2-.11.3a2.08,2.08,0,0,0,.67,2.42c.33.25.69.47,1,.7a1,1,0,0,0,.8.19,3.85,3.85,0,0,1,.59,0Zm-9.9-1.29a3.65,3.65,0,0,0,.34-2.63,4.14,4.14,0,0,0-4.5-2.65c0,.56-.29.83-.87.76a.15.15,0,0,0-.13,0c-.33.54-.94.83-1.17,1.46A.87.87,0,0,1,9.37,5c0,.23,0,.45.05.66A2.83,2.83,0,0,0,11.11,8a2.23,2.23,0,0,0,.93.22,12.09,12.09,0,0,1,1.21.08,5.89,5.89,0,0,1-.32-.54,2.2,2.2,0,0,1-.07-1.27A1.9,1.9,0,0,1,14,5a4.1,4.1,0,0,1,1.25-.31c.45,0,.77.28,1.17.36.22,0,.3.34.22.59a.38.38,0,0,0,0,.18A4,4,0,0,1,16.51,7.44Zm-6,5.86c.26.21.53.39.76.61a3.57,3.57,0,0,1,1.11,1.67.23.23,0,0,0,.17.1,6.9,6.9,0,0,0,1-.12,2.63,2.63,0,0,0,2.11-1.77,5.34,5.34,0,0,0,.07-2.86.23.23,0,0,0-.07-.1,2.78,2.78,0,0,1-.32-.26c-.26-.3-.5-.61-.77-.9a.42.42,0,0,0-.22-.15c-.74-.15-.71-.12-1.31.34a5.39,5.39,0,0,0-1.52,1.77C11.26,12.21,10.87,12.75,10.52,13.3Zm1.27-3.88A1.22,1.22,0,0,0,11.84,9a.94.94,0,0,0-.92-.52,1.57,1.57,0,0,0-1,.49,10.35,10.35,0,0,0-2.61,3.7,3.83,3.83,0,0,0-.17,2.73.43.43,0,0,0,.64.29,1.24,1.24,0,0,0,.41-.31c.22-.26.4-.56.64-.81a3.9,3.9,0,0,1,.61-.46c.1-.07.23-.12.29-.22l2.07-3.29a.55.55,0,0,0,.06-.26c0-.24,0-.48,0-.71A.75.75,0,0,0,11.79,9.42ZM25.2,15.93a.41.41,0,0,0,0,.09c.43,1.22.87,2.45,1.29,3.67a.87.87,0,0,0,.52.54c.17.07.31.11.44-.08a.88.88,0,0,1,.28-.22,4.6,4.6,0,0,1,3-.78c.31,0,.35,0,.41-.31a1,1,0,0,0,0-.42,1.87,1.87,0,0,0-1.87-1.66,1,1,0,0,1-.95-.64c-.15-.39-.28-.78-.43-1.17s-.23-.64-.35-1h-.06A3.77,3.77,0,0,1,25.2,15.93ZM10.36,13.58c-.19.22-.36.44-.53.65a1,1,0,0,0-.17.23,3,3,0,0,1-.62,1,.37.37,0,0,0-.09.16c-.14,1.05-.3,2.09-.41,3.15a2,2,0,0,0,1.24,2.06,1.49,1.49,0,0,0,2.1-.59.48.48,0,0,1-.13-.16c-.11-.26-.21-.53-.32-.8s-.3-.63-.41-1a1.2,1.2,0,0,1,.18-1.14,2.32,2.32,0,0,1,.44-.39,1.17,1.17,0,0,0,.28-1.61c-.12-.2-.25-.39-.39-.58A4.43,4.43,0,0,0,10.36,13.58Zm10.9,6.12c.77,0,1.21-.34,1.29-1a3.23,3.23,0,0,0-.14-1.31,4.47,4.47,0,0,1-.2-.95,1.11,1.11,0,0,1,.18-.61,1.1,1.1,0,0,0,.18-.72,4.55,4.55,0,0,0-1-2.15.8.8,0,0,0-.21-.2.47.47,0,0,0-.66,0,1.77,1.77,0,0,0-.39.56,24.64,24.64,0,0,0-1.17,3.84,1.85,1.85,0,0,0,.08,1.27A2,2,0,0,0,21.26,19.7Zm.56-8.39v-.06h.49a1.4,1.4,0,0,0,1.35-1.15,2.16,2.16,0,0,0-.09-1.31c-.07-.18-.33-.26-.49-.41a1.35,1.35,0,0,0-.94-.3,4.81,4.81,0,0,0-3.72,1.76,2.1,2.1,0,0,0-.39.7.58.58,0,0,0,.47.76,2.79,2.79,0,0,0,1.61-.19.48.48,0,0,1,.24,0C20.85,11.16,21.34,11.24,21.82,11.31Zm-3.1,3.31a.76.76,0,0,0-1-.59,4.09,4.09,0,0,1-1.7.21.23.23,0,0,0-.19.11A2.92,2.92,0,0,1,14,15.76l-.53.15a20.44,20.44,0,0,0,2.7,1.61c.12-.29.21-.55.34-.8a6.41,6.41,0,0,1,1.4-1.87A.71.71,0,0,1,18.72,14.62ZM29,8a1.64,1.64,0,0,0,.25-2.09,1.12,1.12,0,0,0-.82-.55,2.07,2.07,0,0,0-2.37,1.47,1.34,1.34,0,0,0,1.19,1.89,6.22,6.22,0,0,0,.85-.07c.37,0,.57-.26.77-.53l-.67.34-.09-.25-.58.21-.35-.61.35-.18.19.28.38-.15a.24.24,0,0,0,.11-.38c-.09-.15-.19-.29-.28-.45a.19.19,0,0,1,0-.18,4,4,0,0,1,.24-.37l.75.12c.33,0,.34,0,.33.38a.39.39,0,0,1-.09.24c-.12.15-.26.28-.39.42s-.13.2-.2.29l0,0,.29-.14ZM16,7.73a2.67,2.67,0,0,0,.22-1.81A1,1,0,0,0,15.11,5a2,2,0,0,0-.35,0,1.79,1.79,0,0,0-1.51,1.17,3,3,0,0,0-.13,1,1.16,1.16,0,0,0,.94,1.16,2,2,0,0,0,1.36-.11A1,1,0,0,0,16,7.77l-.44.33-.27-.32c-.15.08-.29.17-.43.23a.22.22,0,0,1-.18,0c-.18-.14-.35-.3-.54-.46l.29-.26c.21.14.34.41.64.17s.25-.31.08-.51a4.62,4.62,0,0,1-.34-.41.3.3,0,0,1,0-.23.64.64,0,0,1,.12-.25A.16.16,0,0,1,15,6c.29,0,.58,0,.86,0a.18.18,0,0,1,.15.1.53.53,0,0,1-.13.73.86.86,0,0,0-.18.2.74.74,0,0,0-.12.51l.25-.16Zm13.09,7a.79.79,0,0,0,.43-.5,2.23,2.23,0,0,0,0-1.4A22,22,0,0,0,28,9S28,9,28,9a12,12,0,0,0-.18,1.67,8.33,8.33,0,0,1,0,2.59.17.17,0,0,0,.07.14A5.23,5.23,0,0,1,29.13,14.75ZM15.56,8.63l.15,0c.36.11.38.13.42.5a2.17,2.17,0,0,1,0,.36c0,.14,0,.28-.18.34s-.06.08-.06.11c.06.34.12.68.19,1,0,.05.09.1.16.12a5.69,5.69,0,0,0,.78.22,7.18,7.18,0,0,0,.95.05A1,1,0,0,1,17.93,10a6.66,6.66,0,0,1,.69-.82c.1-.11.22-.2.33-.3V8.84a2.19,2.19,0,0,0-.51,0,2,2,0,0,1-1.12-.17c-.28-.14-.56-.29-.85-.42a.25.25,0,0,0-.18,0C16,8.33,15.81,8.48,15.56,8.63ZM9.1,3.85c.06.21.11.43.18.64a.19.19,0,0,0,.28.12A.75.75,0,0,0,10,4.07a3.92,3.92,0,0,1,.25-1,1,1,0,0,1,1.25-.52.76.76,0,0,0,.16.06c.15,0,.3-.07.38-.26s-.06-.2-.15-.26a1.75,1.75,0,0,0-1.09-.26A2,2,0,0,0,9.1,3.85ZM24.93,3l.5-.43A2.69,2.69,0,0,0,24.37,2a1.75,1.75,0,0,0-1.86.81,1.9,1.9,0,0,0-.06,1.75.14.14,0,0,0,.12.07A.66.66,0,0,0,23,3.93a1.06,1.06,0,0,1,1.07-1.41A1.19,1.19,0,0,1,24.93,3Zm4.78,1.89.07,0a1.33,1.33,0,0,0,0-2A1.09,1.09,0,0,0,28.3,2.7c.23.21.46.4.67.62a.35.35,0,0,0,.32.13.5.5,0,0,1,.55.37,4.29,4.29,0,0,1-.07.79A2.1,2.1,0,0,1,29.71,4.85ZM12.08,20l.05-.11a1.66,1.66,0,0,0-.08-1.41c-.18-.36-.4-.72-.62-1.12a2.4,2.4,0,0,0-.15.48,1.62,1.62,0,0,0,.19.94C11.66,19.14,11.87,19.54,12.08,20ZM15,2.31c.17.1.33.18.47.28a.62.62,0,0,0,.61.14.51.51,0,0,1,.64.51c0,.16,0,.32,0,.48a3.2,3.2,0,0,0,.1.42h.07l.06-.2a1.78,1.78,0,0,0-.31-1.34A1,1,0,0,0,15,2.31ZM25.78,9.17c-.13-.06-.21-.14-.29-.14-.36,0-.73,0-1.09,0,0,0-.13.06-.13.1s0,.35,0,.53A3.61,3.61,0,0,0,25.78,9.17Zm-12.17-.4-1.52-.16.13.53h1C13.42,9.15,13.54,9.05,13.61,8.77Zm2.25.83c0-.21,0-.36,0-.5S15.76,9,15.72,9l-1-.18a1.19,1.19,0,0,1,0,.24c-.06.19,0,.29.2.33Zm-3.69.56.07,0,.83-.69a2.71,2.71,0,0,0-.74,0c-.06,0-.15.07-.15.11C12.16,9.76,12.17,10,12.17,10.16ZM26.8,9.38l.77.23.06-.41-.75,0Zm-13-.2a2.69,2.69,0,0,0,.58,0,.42.42,0,0,0,0-.34c-.06-.09-.23-.09-.34-.13l0,.05.31.25,0,0L13.9,8.9Zm12.76-.07-.3,0H26c0,.2.07.33.31.33S26.51,9.23,26.57,9.11Zm.87,1.25c.07-.48,0-.56-.48-.58Zm-3.34,0,.63-.4-.65,0Zm-8.54-.06c.14-.4.08-.48-.4-.51Z"/><path class="cls-4" d="M32.23,22.27a2.88,2.88,0,0,0,.22.27l.23.25h-.55a.58.58,0,0,0-.66-.52l0,.53h-.4V21.38h1.07a.42.42,0,0,1,.45.34c.05.23,0,.39-.31.5ZM31.48,22a6.05,6.05,0,0,0,.61,0c.06,0,.16-.09.16-.14s-.07-.17-.12-.17c-.22,0-.43,0-.65,0Z"/><path class="cls-4" d="M23.44,22.31H23V22h.77v.61a1.35,1.35,0,0,1-1.28.11.73.73,0,0,1-.38-.7.66.66,0,0,1,.53-.64,2.05,2.05,0,0,1,.7,0,1.81,1.81,0,0,1,.34.1l-.12.25a3.5,3.5,0,0,0-.59-.13.58.58,0,0,0-.34.13.46.46,0,0,0-.11.59.66.66,0,0,0,.77.23C23.4,22.53,23.5,22.49,23.44,22.31Z"/><path class="cls-4" d="M21.91,22.1a.78.78,0,0,1-.87.76.77.77,0,1,1,0-1.53A.76.76,0,0,1,21.91,22.1Zm-.85.48a.49.49,0,0,0,.51-.48.5.5,0,0,0-.52-.5.48.48,0,0,0-.5.5A.47.47,0,0,0,21.06,22.58Z"/><path class="cls-4" d="M25.55,22.82H24.14V21.37h1.38v.29h-1v.25h.67v.31l-.42,0c-.28,0-.28,0-.25.31h1Z"/><path class="cls-4" d="M29.39,21.36h1.37v.3h-1v.25h.66v.31h-.67v.29h1v.32H29.39Z"/><path class="cls-4" d="M17.72,21.54l-.15.26a.79.79,0,0,0-.79-.16c-.06,0-.11.09-.16.14a.71.71,0,0,0,.18.12c.2,0,.4,0,.6.08a.4.4,0,0,1,.36.38.42.42,0,0,1-.29.42,1.24,1.24,0,0,1-.87,0l-.29-.1.11-.29a1,1,0,0,0,.79.17c.08,0,.14-.11.21-.16a.71.71,0,0,0-.22-.13c-.17,0-.34,0-.52-.06a.39.39,0,0,1-.36-.36.41.41,0,0,1,.3-.45,1,1,0,0,1,.76,0Z"/><path class="cls-4" d="M29,21.39V22.8h-.38l0-.59H27.8l0,.59h-.39V21.39h.38l0,.53h.81v-.53Z"/><path class="cls-4" d="M7.6,22.81H7.16c.12-.24.25-.47.36-.71s.31-.42.27-.71h.44a1.15,1.15,0,0,0,.07.28c.2.38.41.75.62,1.13H8.43c.05-.27,0-.36-.3-.36H7.84C7.61,22.44,7.53,22.57,7.6,22.81Zm.39-1-.22.45h.47Z"/><path class="cls-4" d="M14.1,21.38c0,.08,0,.16,0,.21.21.4.43.8.65,1.2h-.47c0-.27,0-.35-.32-.35h-.25c-.26,0-.34.11-.28.36H13a9.26,9.26,0,0,0,.67-1.42Zm-.48.86h.47l-.24-.45Z"/><path class="cls-4" d="M15.69,22.81h-.44c.26-.66-.25-1-.56-1.41h.49l.3.53c.1-.21.32-.3.24-.54h.53l-.49.64C15.56,22.27,15.64,22.53,15.69,22.81Z"/><path class="cls-4" d="M26.62,22.8h-.39V21.66H25.7v-.3h1.45v.3h-.53Z"/><path class="cls-4" d="M19.53,22.8h-.4V21.66h-.52v-.3h1.44v.3h-.52Z"/><path class="cls-4" d="M9.54,22.51h.92v.31H9.15V21.39h.39Z"/><path class="cls-4" d="M26.23,5.53a.49.49,0,0,1-.49.5.49.49,0,0,1,0-1A.47.47,0,0,1,26.23,5.53Z"/><path class="cls-4" d="M13.16,5.12a.48.48,0,0,1-.45.49.47.47,0,0,1-.45-.48.45.45,0,1,1,.9,0Z"/><path class="cls-4" d="M21.58,14.42c0,.25-.1.42-.27.47a.41.41,0,0,1-.49-.27A1.77,1.77,0,0,1,20.7,14a.43.43,0,0,1,.24-.3.44.44,0,0,1,.38.11,3.09,3.09,0,0,1,.31.6Z"/><path class="cls-4" d="M21.53,9.56a.65.65,0,0,1,.67-.62.62.62,0,0,1,.65.58.65.65,0,0,1-.68.63A.61.61,0,0,1,21.53,9.56Z"/></g></g></svg>