<svg xmlns="http://www.w3.org/2000/svg" viewBox="0 0 38.55 24.66"><defs><style>.cls-1{isolation:isolate;}.cls-2{opacity:0.15;}.cls-2,.cls-3{mix-blend-mode:multiply;}.cls-4{fill:#fff;}</style></defs><title>convert-FIX-SVG-03</title><g class="cls-1"><g id="Layer_1" data-name="Layer 1"><g class="cls-2"><path d="M15.63,3.21a3.67,3.67,0,0,1-.21-2.13l.19,0a8.78,8.78,0,0,0,.12,1.48,2.44,2.44,0,0,0,1.65,1.93A1.79,1.79,0,0,0,19,4.3a.28.28,0,0,0,.1-.19,2.94,2.94,0,0,1,.67-2.72L20,1.1,20.1,1l.18.17c-.14.18-.28.34-.41.52A2.55,2.55,0,0,0,20,5.21a1.31,1.31,0,0,0,.93.51c.27,0,.53.12.81.15a1.86,1.86,0,0,0,1.68-.74.3.3,0,0,0,0-.25,2,2,0,0,1,.27-1.75,1.74,1.74,0,0,1,.76-.56c.12,0,.17-.11.14-.23a4.26,4.26,0,0,0-.13-.64A.58.58,0,0,0,24,1.24V1c.52-.08.81.33,1,1.44a1.3,1.3,0,0,1,1.1.31.21.21,0,0,0,.19,0A6.21,6.21,0,0,1,28.8,2.6a.48.48,0,0,0,.29-.11,2.45,2.45,0,0,1,1.5-.61,1.66,1.66,0,0,1,.9.26,2.3,2.3,0,0,1,.81,3.25.61.61,0,0,0-.08.49A4,4,0,0,1,32,8.29a2,2,0,0,1-.3.51.41.41,0,0,0,0,.53,5.26,5.26,0,0,1,.56,2.89,1.63,1.63,0,0,1-.35.82c-.12.17-.13.17,0,.42l.21-.14a6.72,6.72,0,0,1,2.1-1.15,1.5,1.5,0,0,1,1.22.15,3.73,3.73,0,0,1,1.26,1.11,2.16,2.16,0,0,1,0,2.4,2.12,2.12,0,0,1-2.82.71.34.34,0,0,0-.26,0c-.82.36-1.64.73-2.46,1.07a1.68,1.68,0,0,1-1.26.14,1,1,0,0,0-.73,0c-.36.12-.74.18-1.14.27.08.43.17.87.25,1.32a13.15,13.15,0,0,1,.25,1.37A2.25,2.25,0,0,1,27.45,23a3.11,3.11,0,0,1-1.83.6A2.45,2.45,0,0,1,24.15,23a1.26,1.26,0,0,1-.47-.91A4.42,4.42,0,0,1,24.11,20a4.62,4.62,0,0,0,.39-2.38c-.07-.73,0-1.47,0-2.2,0-.2,0-.41-.05-.61s-.05-.5-.07-.73l-1.21.64c-.41.2-.83.38-1.26.58l.27.64-.21.19-.58-.5a.39.39,0,0,0-.22-.09c-.73.09-1.07-.29-.94-1a.42.42,0,0,0-.06-.27A34,34,0,0,1,17.45,10l-.13-.22-.46.29V9.51a5.7,5.7,0,0,1-.62-.11A3,3,0,0,1,14.11,7a3.38,3.38,0,0,1,1.07-3.48C15.31,3.43,15.47,3.33,15.63,3.21ZM29.31,17.44a2,2,0,0,1,0-.55,4.33,4.33,0,0,1,.36-1,7.24,7.24,0,0,1,1.69-2c.14-.13.25-.25.16-.46l-.15.06a1.69,1.69,0,0,1-1.71-.12,2.31,2.31,0,0,1-.9-1.12.71.71,0,0,0-.12-.18c-.23-.24-.48-.46-.7-.7s-.25-.48-.44-.58a2.06,2.06,0,0,0-.75,0,.67.67,0,0,0-.66.26c-.17.23-.38.43-.57.65a3.79,3.79,0,0,0-.88,2.67A4,4,0,0,0,25.9,16.9,3,3,0,0,0,29.31,17.44ZM31.93,5.92a.88.88,0,0,1-.84-.81A.58.58,0,0,0,31,4.86a4.4,4.4,0,0,0-1.2-1,.52.52,0,0,0-.29-.07,1.37,1.37,0,0,1-.81-.28A.32.32,0,0,1,28.6,3a1.14,1.14,0,0,0,.09-.16,5.17,5.17,0,0,0-2.91.39A3.29,3.29,0,0,0,24,5.81c.13-.11.25-.21.32,0a2.89,2.89,0,0,1,.79-.28,2.93,2.93,0,0,1,1.75.4,1.58,1.58,0,0,1,.78,1A5.15,5.15,0,0,1,27.74,8a1.9,1.9,0,0,1-.9,1.68s0,0,0,0l1.45.13a.25.25,0,0,0,0-.07.41.41,0,0,0,0-.11,2.36,2.36,0,0,1,.17-1.28A1.33,1.33,0,0,1,30.76,8c.2.26.43.52.64.78A3.26,3.26,0,0,0,31.93,5.92Zm2.13,10.4a1.31,1.31,0,0,0,1.19.18,1.87,1.87,0,0,0,1.43-2.32,2.43,2.43,0,0,0-.93-1.3,1.75,1.75,0,0,0-2.15-.21,10.66,10.66,0,0,0-2.05,1.41,7,7,0,0,0-1.64,2,3.44,3.44,0,0,0-.32.86.44.44,0,0,0,.41.62,1.6,1.6,0,0,0,.62,0,13.68,13.68,0,0,0,2.75-1.12l1.24-.64.13.23Zm-13-9.61h0c0-.11-.05-.22-.09-.33a.6.6,0,0,0-.11-.12.54.54,0,0,0-.07.13c-.07.74-.17,1.47-.2,2.21a14.15,14.15,0,0,0,.25,3.11c.07.37.15.74.23,1.09.51-.46,1-.92,1.51-1.35a7.9,7.9,0,0,1,1.26-.91,2.77,2.77,0,0,0,.91-.82v0l-.17-.13A2.63,2.63,0,0,1,23.6,8a4.85,4.85,0,0,1,.11-2.24,1.53,1.53,0,0,0,0-.37h-.07a2.24,2.24,0,0,1-2.4.68Zm3.64,9a1.37,1.37,0,0,0,0,.27c0,.63.08,1.26.09,1.89a4.45,4.45,0,0,1-.37,2,4.83,4.83,0,0,0-.5,2c0,.64.32,1,.89,1.08a3.57,3.57,0,0,0,1-.05A6,6,0,0,0,28,21.84a.38.38,0,0,0,.15-.24,4.22,4.22,0,0,0,0-1c-.12-.8-.31-1.59-.45-2.39,0-.14-.07-.2-.22-.21a3.08,3.08,0,0,1-1.92-1l-.15-.13c.06.37.11.68.17,1a4.54,4.54,0,0,1-.28,2.75,2.29,2.29,0,0,0-.2.71c-.05.52-.06,1.05-.08,1.6l-.2,0a4.4,4.4,0,0,1,.26-2.54,3.14,3.14,0,0,0,.31-1.5c-.06-.7-.18-1.39-.27-2.09a2,2,0,0,1,0-.25s0-.09,0-.12Zm-9-12.25-.23.15a3.28,3.28,0,0,0-.19,5,2.38,2.38,0,0,0,3.32-.14.29.29,0,0,0,.08-.34c-.17-.59-.34-1.18-.49-1.79C18.15,6,18.1,5.57,18,5.18l-.35,0a.14.14,0,0,1,0-.09c0-.19-.05-.26-.24-.3a2.33,2.33,0,0,1-1.38-.91C16,3.78,15.86,3.63,15.75,3.48Zm14.71,9.88A1.33,1.33,0,0,0,32,12.16a5.06,5.06,0,0,0-1.55-4.09,1.49,1.49,0,0,0-.53-.28c-.13-.06-.23,0-.3.14A2.88,2.88,0,0,0,29.43,10c.18.62.43,1.22.62,1.84S30.32,12.83,30.46,13.36ZM26,8.4l.24.21c-.15.15-.29.29-.42.44a.17.17,0,0,1-.26,0l-.42-.21c-.15.09-.09.37-.36.35a4.28,4.28,0,0,0,.87.35,1.37,1.37,0,0,0,1.81-1.18,5.71,5.71,0,0,0,0-1.17,1.33,1.33,0,0,0-.8-1.12,3.05,3.05,0,0,0-1.19-.32A1.45,1.45,0,0,0,24,6.93,3,3,0,0,0,24.1,8.4l.54.26a.61.61,0,0,0-.12-.58l-.38-.45a.24.24,0,0,1-.06-.17c.06-.34.21-.46.56-.45a2,2,0,0,0,.42,0c.24,0,.33.07.41.27a.3.3,0,0,1,0,.36,3.57,3.57,0,0,0-.34.43.27.27,0,0,0,.06.4l.46.25Zm-4.51,5.69A3.55,3.55,0,0,1,23,13.93a2,2,0,0,1,.51.16c.05,0,.11,0,.13,0,.37-.23.81-.4.87-.92a1.64,1.64,0,0,1,.13-.43A3.35,3.35,0,0,0,25,11.2c0-.38,0-.76,0-1.13l-.07,0a.93.93,0,0,1-.13.15c-.19.16-.38.34-.58.48s-.42.24-.61.38A13.14,13.14,0,0,0,21.33,13a.42.42,0,0,0-.12.26C21.27,13.53,21.36,13.8,21.44,14.09ZM17.71,9.73l0,0A33.63,33.63,0,0,0,20.32,14c.11-.18.19-.34.29-.49a.3.3,0,0,0,0-.33c-.4-1-.8-1.95-1.18-2.93-.2-.53-.38-1.06-.56-1.55l-1.16.73.16.5,0,0Zm2.05-4.4a.08.08,0,0,0,0,0s0,.06,0,.08a3.65,3.65,0,0,1-.55,2.77.36.36,0,0,0-.05.37l1.5,3.92c0,.05.05.1.07.14a16.74,16.74,0,0,1-.2-6.35h-.4l.24-.39Zm9-2.11.19.11c.37.21.44.19.77-.08A1.05,1.05,0,0,1,30.66,3a1.24,1.24,0,0,1,.79,1.86c-.09.15-.14.29,0,.43a3.16,3.16,0,0,0,.35.39,2.07,2.07,0,0,0-.46-3.31,1.39,1.39,0,0,0-1-.16A2.61,2.61,0,0,0,28.79,3.22ZM19,8c.68-.9.78-2.77,0-3.43-.22.15-.67.11-.49.61h-.2A14.61,14.61,0,0,0,19,8Zm10.56,3.09L28.77,11a2.54,2.54,0,0,0,1.31,2.23l.09,0ZM25.78,2.88a1.29,1.29,0,0,0-1.61.21,1.61,1.61,0,0,0-.26,2A.73.73,0,0,0,24,4.53a.6.6,0,0,1,.56-.84.71.71,0,0,0,.22-.06C25.1,3.39,25.44,3.13,25.78,2.88Zm.5,7.19h-1.1l.08.59.78-.19C26.33,10.41,26.34,10.4,26.28,10.07Zm.3.38h.92l0-.38-1-.05Zm1.89.49c0-.17,0-.29,0-.41a.24.24,0,0,0-.11-.16c-.17-.07-.35-.11-.59-.18,0,.16,0,.34.09.41A3.48,3.48,0,0,0,28.47,10.94Zm-7.69,3.6.26-.23a.11.11,0,0,0,0-.12c-.06-.17-.14-.34-.22-.52C20.5,14.11,20.49,14.22,20.78,14.54Zm4.45-3,.67-.76C25.27,10.93,25.22,10.88,25.23,11.56Zm2.88-.44.43.53C28.56,11.26,28.56,11.26,28.11,11.12ZM20.48,15h.06c.08-.15.13-.29-.11-.42Z"/><path d="M17.09,15.23a2.89,2.89,0,0,1,.33-.45.35.35,0,0,1,.59,0c.14.19.24.41.37.63.1-.09.2-.2.32-.29.28-.21.49-.15.64.16a1.51,1.51,0,0,1-.46,1.6,2.13,2.13,0,0,1-2.69-.17,1.68,1.68,0,0,1,0-2,.3.3,0,0,1,.51,0A6,6,0,0,1,17.09,15.23Z"/><path d="M3.8,4,5,3.87a.5.5,0,0,1,.48.4c0,.06-.1.15-.17.17-.54.17-1.08.34-1.63.49a.61.61,0,0,0-.46.38c-.19.43-.4.85-.6,1.28-.11.22-.25.29-.45.21A.39.39,0,0,1,2,6.3c.14-.39.28-.79.45-1.18.3-.69.63-1.37,1-2.05a.61.61,0,0,1,.5-.36c.61-.09,1.21-.19,1.82-.26.27,0,.31,0,.34.3s0,.38-.26.42c-.47.07-.95.14-1.42.19A.37.37,0,0,0,4,3.65C3.93,3.78,3.86,3.89,3.8,4Z"/><path d="M6.91,6.86a5.45,5.45,0,0,1-.62-.15A.68.68,0,0,1,5.81,6,2.65,2.65,0,0,1,8.29,3.49,1.14,1.14,0,0,1,9.38,5,3.37,3.37,0,0,1,8.6,6.31a1.9,1.9,0,0,1-1.11.48A5.43,5.43,0,0,1,6.91,6.86ZM8.13,4.07a1.8,1.8,0,0,0-1.6,1.59c0,.31.08.48.37.55a1,1,0,0,0,.58,0A2.36,2.36,0,0,0,8.84,4.84a.49.49,0,0,0-.37-.71A3.43,3.43,0,0,0,8.13,4.07Z"/><path d="M5.77,13.55a5.78,5.78,0,0,1-.63-.14.68.68,0,0,1-.47-.69,2.64,2.64,0,0,1,2.47-2.54,1.15,1.15,0,0,1,1.1,1.51A3.31,3.31,0,0,1,7.45,13a2,2,0,0,1-1.12.48C6.17,13.52,6,13.53,5.77,13.55ZM7,10.77a1.8,1.8,0,0,0-1.62,1.58.45.45,0,0,0,.39.55,1,1,0,0,0,.56,0A2.41,2.41,0,0,0,7.7,11.52c.14-.34,0-.58-.37-.69A1.91,1.91,0,0,0,7,10.77Z"/><path d="M11.62,5.49c.21.12.4.22.57.34a1.54,1.54,0,0,1,.36.36.31.31,0,0,1-.1.5c-.17.12-.23.1-.33-.09a2.18,2.18,0,0,0-.9-.83.73.73,0,0,0-.3,0,.55.55,0,0,0-.52.38,5,5,0,0,1-.35.58.37.37,0,0,1-.61.05c-.16-.17-.12-.22,0-.4a9.3,9.3,0,0,0,.67-1,5.05,5.05,0,0,0,.33-.71A2.16,2.16,0,0,0,10.59,4a.39.39,0,0,1,.27-.38,2.39,2.39,0,0,1,1.72-.16,1.21,1.21,0,0,1,.49.31.37.37,0,0,1,0,.59,6.61,6.61,0,0,1-.8.69A6.11,6.11,0,0,1,11.62,5.49Zm-.76-.44.11,0a2.74,2.74,0,0,0,1.63-.9c.09-.1,0-.18-.08-.19a2.46,2.46,0,0,0-.6,0,.83.83,0,0,0-.5.17A9.23,9.23,0,0,0,10.86,5.05Z"/><path d="M12.05,10.47a9,9,0,0,0-1.33,2.9c-.22,0-.47.14-.64-.17,0,0-.14,0-.21,0-.31.1-.63.2-.94.32a.4.4,0,0,1-.52-.12.72.72,0,0,1-.16-.81c.34-.75.68-1.49,1-2.24a.3.3,0,0,1,.43-.15c.18.08.18.12.09.31-.29.62-.57,1.23-.83,1.86-.1.26,0,.4.29.35a7.45,7.45,0,0,0,.92-.27.29.29,0,0,0,.15-.14l1-1.82C11.57,10.12,11.84,10.13,12.05,10.47Z"/><path d="M3.65,10.8c.41-.43.79-.86,1.19-1.26a3.2,3.2,0,0,1,.54-.41.27.27,0,0,1,.38.06c.11.13.19.28.07.44a1.28,1.28,0,0,1-.38.39,5.6,5.6,0,0,0-1.53,1.46c-.49.62-.94,1.27-1.4,1.91-.1.13-.18.13-.28,0a2.43,2.43,0,0,1-.2-.25c-.09-.13-.07-.22,0-.37.35-.44.66-.93,1-1.4,0,0,0-.14,0-.2-.2-.37-.44-.73-.63-1.12a.44.44,0,0,1,.23-.65c.14-.06.25-.06.32.14A5,5,0,0,0,3.65,10.8Z"/><path d="M6,17.13c0-.13,0-.26.06-.38s.23-.33.48-.21a1.82,1.82,0,0,1,.23.15l.2.17c0-.12.09-.23.14-.33s.28-.25.49-.1a1.09,1.09,0,0,1,.25,1.19,1.41,1.41,0,0,1-1.21.92,1.21,1.21,0,0,1-1.5-1.21.84.84,0,0,1,0-.27.23.23,0,0,1,.36-.18A3.47,3.47,0,0,1,6,17.13Z"/><path d="M21.88,17.9l.28-.25a.29.29,0,0,1,.5.1,2.44,2.44,0,0,1,.1.24c0,.07,0,.16.07.26l.27-.18c.26-.13.44-.05.49.24a1,1,0,0,1-.46,1A1.55,1.55,0,0,1,21,18.9a1.28,1.28,0,0,1,.25-1.47.24.24,0,0,1,.41,0A4.37,4.37,0,0,1,21.88,17.9Z"/><path d="M16.94,17.36l.26.11a10.86,10.86,0,0,0-.42,2.93c0,1,0,2,0,3l-.23,0A18.45,18.45,0,0,1,16.94,17.36Z"/><path d="M7,18.71l.25-.11A12.49,12.49,0,0,1,8,23.36H7.76A13.24,13.24,0,0,0,7,18.71Z"/><path d="M21.35,19.56l.23.15a10.73,10.73,0,0,0-.28,3.61l-.13,0H21A11,11,0,0,1,21.35,19.56Z"/><path d="M6.22,22.16l.24.13L6,23.36H5.44v-.74H5.7v.66Z"/><path d="M35.76,23.36h-.54v-.74h.26v.65L36,22.16l.25.13Z"/><path d="M31.92,21.7l.24.1-.49,1.56h-.24A8.1,8.1,0,0,1,31.92,21.7Z"/><path d="M11.4,21.79c-.15.48-.31.92-.41,1.38-.05.2-.13.23-.36.17l.5-1.64Z"/><path d="M30.42,22.05l.13-.15A2.86,2.86,0,0,1,31,23.36l-.25,0Z"/><path d="M10.22,23.36l-.27,0c-.06-.32-.12-.62-.18-.91a.48.48,0,0,0-.07-.2c-.12-.15-.07-.26.11-.35A3.09,3.09,0,0,1,10.22,23.36Z"/><path d="M3.17,22.29c-.14.35-.27.69-.43,1,0,.06-.16.06-.25.09l-.07-.06.51-1.17Z"/><path d="M19,23.32l.51-1.16.24.13c-.14.35-.28.68-.43,1,0,.06-.16.06-.25.09Z"/><path d="M15,23.36H14.7l.52-1.2.25.13Z"/><path d="M28.64,22.15l.24.14c-.14.35-.27.68-.43,1,0,.06-.16.07-.25.1l-.07-.06Z"/><path d="M10.62,23.36h-.25V22.31h.25Z"/><path d="M2,23.36l-.25,0-.29-.86H1.4l.16-.24A1.71,1.71,0,0,1,2,23.36Z"/><path d="M13.82,22.29a1.35,1.35,0,0,1,.45,1.06l-.2,0c-.12-.29-.24-.56-.34-.83C13.71,22.48,13.79,22.39,13.82,22.29Z"/><path d="M18,22.46l.1-.15c.26.18.35.4.45,1l-.24,0Z"/><path d="M35.05,23.36l-.26,0L34.7,23a1.33,1.33,0,0,0-.13-.35c-.12-.14-.08-.25,0-.36A1.58,1.58,0,0,1,35.05,23.36Z"/><path d="M5.27,23.36l-.26,0c0-.13,0-.26-.09-.39a1.2,1.2,0,0,0-.13-.33c-.11-.14-.07-.24,0-.37A1.58,1.58,0,0,1,5.27,23.36Z"/><path d="M22.49,22.28A1.6,1.6,0,0,1,23,23.35l-.22,0c-.12-.29-.24-.55-.34-.83C22.37,22.49,22.45,22.39,22.49,22.28Z"/><path d="M31.38,23.36h-.24V22.31h.24Z"/><path d="M23.11,22.61h.26v.75h-.26Z"/><path d="M18.75,23.35v-.73H19v.73Z"/><path d="M2.16,22.61H2.4v.75H2.16Z"/><path d="M14.45,23.37v-.75h.25v.74Z"/><path d="M28.72,6.21a.52.52,0,1,1-1,0,.52.52,0,1,1,1,0Z"/><path d="M30.93,17c-.06,0-.17-.07-.21-.14a.32.32,0,0,1,0-.27.87.87,0,0,1,.68-.41.33.33,0,0,1,.25.12.36.36,0,0,1,0,.27A1,1,0,0,1,30.93,17Z"/><path d="M15.83,3.41a3.72,3.72,0,0,1-.21-2.14l.18,0a9.94,9.94,0,0,0,.13,1.48,2.44,2.44,0,0,0,1.65,1.93,1.76,1.76,0,0,0,1.59-.22c.06,0,.12-.14.1-.19A2.93,2.93,0,0,1,20,1.59l.25-.29.1-.09.18.17-.41.51a2.55,2.55,0,0,0,.17,3.52,1.29,1.29,0,0,0,.93.51,7.49,7.49,0,0,1,.8.15,1.88,1.88,0,0,0,1.69-.74c.05,0,0-.17,0-.25A2.05,2.05,0,0,1,24,3.33a1.68,1.68,0,0,1,.76-.56c.12,0,.17-.11.14-.24a4.4,4.4,0,0,0-.13-.63.59.59,0,0,0-.58-.47V1.18c.52-.08.81.32,1,1.44a1.3,1.3,0,0,1,1.1.31.24.24,0,0,0,.19,0A6.18,6.18,0,0,1,29,2.8a.48.48,0,0,0,.3-.11,2.45,2.45,0,0,1,1.5-.61,1.77,1.77,0,0,1,.9.25,2.32,2.32,0,0,1,.81,3.26.61.61,0,0,0-.08.49,4,4,0,0,1-.19,2.41,2,2,0,0,1-.3.51.4.4,0,0,0,0,.53,5.15,5.15,0,0,1,.55,2.89,1.54,1.54,0,0,1-.34.82c-.12.17-.13.17-.05.42l.21-.15a6.91,6.91,0,0,1,2.1-1.14,1.5,1.5,0,0,1,1.22.15,3.63,3.63,0,0,1,1.26,1.11,2.16,2.16,0,0,1,0,2.4,2.12,2.12,0,0,1-2.82.71.34.34,0,0,0-.26,0c-.83.35-1.64.73-2.46,1.07a1.73,1.73,0,0,1-1.26.14,1,1,0,0,0-.74,0c-.36.12-.73.18-1.13.27.08.43.17.87.25,1.32A12.66,12.66,0,0,1,28.71,21a2.23,2.23,0,0,1-1.06,2.22,3.18,3.18,0,0,1-1.83.6,2.45,2.45,0,0,1-1.47-.53,1.22,1.22,0,0,1-.47-.91,4.31,4.31,0,0,1,.43-2.18,4.72,4.72,0,0,0,.39-2.38c-.07-.73,0-1.47-.05-2.2a6,6,0,0,0,0-.61c0-.25-.05-.5-.07-.73-.4.21-.8.43-1.21.63s-.83.39-1.27.59l.28.63-.21.2c-.19-.16-.38-.34-.58-.5a.33.33,0,0,0-.22-.09c-.73.08-1.07-.29-.94-1a.35.35,0,0,0-.07-.26,35.13,35.13,0,0,1-2.67-4.24l-.13-.22-.46.29V9.71a5.7,5.7,0,0,1-.62-.11A3,3,0,0,1,14.3,7.23a3.42,3.42,0,0,1,1.07-3.48C15.51,3.63,15.67,3.53,15.83,3.41ZM29.51,17.64a2.07,2.07,0,0,1,0-.56,4.94,4.94,0,0,1,.35-1,7.3,7.3,0,0,1,1.7-2c.14-.13.25-.25.16-.46l-.15.06a1.74,1.74,0,0,1-1.71-.12,2.31,2.31,0,0,1-.9-1.12.76.76,0,0,0-.12-.19c-.23-.23-.48-.45-.7-.69s-.25-.48-.44-.58-.5,0-.75-.05a.7.7,0,0,0-.66.27c-.17.23-.38.43-.57.65a3.79,3.79,0,0,0-.88,2.67,4,4,0,0,0,1.25,2.58A2.93,2.93,0,0,0,29.51,17.64ZM32.13,6.11a.88.88,0,0,1-.85-.8.45.45,0,0,0-.09-.25A4.51,4.51,0,0,0,30,4,.64.64,0,0,0,29.7,4a1.35,1.35,0,0,1-.8-.27.31.31,0,0,1-.1-.46l.09-.16A5.25,5.25,0,0,0,26,3.44,3.3,3.3,0,0,0,24.21,6c.12-.11.25-.21.32,0a3.16,3.16,0,0,1,.79-.29,3,3,0,0,1,1.75.41,1.54,1.54,0,0,1,.78,1,4.58,4.58,0,0,1,.08,1.11A1.84,1.84,0,0,1,27,9.91a0,0,0,0,0,0,0l1.45.13a.25.25,0,0,0,0-.07s0-.08,0-.11a2.34,2.34,0,0,1,.17-1.28A1.32,1.32,0,0,1,31,8.19c.21.26.43.52.65.77A3.29,3.29,0,0,0,32.13,6.11Zm2.12,10.41a1.34,1.34,0,0,0,1.2.18,1.87,1.87,0,0,0,1.43-2.32,2.45,2.45,0,0,0-.94-1.3,1.73,1.73,0,0,0-2.14-.21,10.66,10.66,0,0,0-2,1.41,7,7,0,0,0-1.64,2,3.44,3.44,0,0,0-.32.86.44.44,0,0,0,.41.62,1.62,1.62,0,0,0,.62,0,13.72,13.72,0,0,0,2.75-1.13l1.24-.63.13.23ZM21.3,6.91h0c0-.11-.05-.22-.09-.33s-.07-.08-.11-.12a.54.54,0,0,0-.07.13c-.07.73-.17,1.47-.2,2.21a14.15,14.15,0,0,0,.25,3.11c.06.37.15.74.23,1.09.51-.46,1-.92,1.51-1.35a8.64,8.64,0,0,1,1.26-.92A3,3,0,0,0,25,9.91s0,0,0,0l-.16-.13a2.63,2.63,0,0,1-1-1.56A4.72,4.72,0,0,1,23.91,6a1.53,1.53,0,0,0,0-.37l-.07,0a2.23,2.23,0,0,1-2.4.69Zm3.63,9c0,.12,0,.2,0,.28,0,.63.08,1.26.09,1.89a4.45,4.45,0,0,1-.37,2,4.68,4.68,0,0,0-.5,2c0,.65.32,1,.89,1.09a3.48,3.48,0,0,0,1-.05A6,6,0,0,0,28.22,22a.41.41,0,0,0,.15-.24,4.31,4.31,0,0,0,.05-1c-.12-.79-.31-1.58-.45-2.38,0-.14-.08-.2-.22-.22a3,3,0,0,1-1.92-1l-.15-.13c.06.37.11.68.17,1a4.54,4.54,0,0,1-.28,2.75,2.22,2.22,0,0,0-.2.71c-.05.52-.06,1.05-.08,1.6l-.2,0a4.4,4.4,0,0,1,.26-2.54,3,3,0,0,0,.3-1.5c-.06-.7-.17-1.39-.26-2.09a2.09,2.09,0,0,1,0-.25s0-.09,0-.12ZM16,3.68l-.24.15a3.3,3.3,0,0,0-.19,5,2.39,2.39,0,0,0,3.33-.14.29.29,0,0,0,.08-.34c-.17-.59-.34-1.19-.49-1.79-.09-.38-.15-.77-.22-1.16l-.34,0a.29.29,0,0,1,0-.09c0-.19,0-.26-.23-.3a2.37,2.37,0,0,1-1.38-.91C16.14,4,16.05,3.83,16,3.68Zm14.71,9.88a1.33,1.33,0,0,0,1.52-1.2,5.09,5.09,0,0,0-1.55-4.09A1.58,1.58,0,0,0,30.1,8c-.13-.06-.23,0-.3.14a2.88,2.88,0,0,0-.17,2.06c.18.62.43,1.22.62,1.84S30.52,13,30.66,13.56Zm-4.51-5,.23.2c-.15.16-.29.3-.42.45a.17.17,0,0,1-.25,0l-.42-.22c-.15.1-.09.38-.36.35a3.81,3.81,0,0,0,.87.36,1.35,1.35,0,0,0,1.8-1.18,5.08,5.08,0,0,0,0-1.17,1.33,1.33,0,0,0-.8-1.12A2.93,2.93,0,0,0,25.63,6a1.45,1.45,0,0,0-1.46,1.15A3,3,0,0,0,24.3,8.6l.53.26a.58.58,0,0,0-.11-.58l-.38-.45a.24.24,0,0,1-.06-.17c.06-.35.21-.46.56-.45a2,2,0,0,0,.42,0c.24,0,.33.06.41.27a.3.3,0,0,1-.05.36,5,5,0,0,0-.34.43.27.27,0,0,0,.07.39l.46.26Zm-4.51,5.69a3.55,3.55,0,0,1,1.54-.16,2.46,2.46,0,0,1,.51.15s.1.05.13,0c.37-.23.81-.4.87-.93a2.21,2.21,0,0,1,.12-.42,3.4,3.4,0,0,0,.35-1.57c0-.37,0-.75,0-1.12l-.07,0-.13.15c-.2.16-.38.33-.59.48s-.41.24-.6.38a12.75,12.75,0,0,0-2.21,1.93c-.06.08-.14.19-.12.27C21.47,13.73,21.56,14,21.64,14.29ZM17.91,9.93l0,.05a33.63,33.63,0,0,0,2.65,4.2c.11-.18.19-.34.29-.49a.3.3,0,0,0,0-.33c-.4-1-.8-1.95-1.18-2.94-.21-.52-.38-1.05-.56-1.55l-1.16.74.16.5-.05,0Zm2-4.4v0a.19.19,0,0,0,0,.08,3.74,3.74,0,0,1-.55,2.77.34.34,0,0,0-.05.36l1.5,3.93a.91.91,0,0,0,.07.14,16.74,16.74,0,0,1-.2-6.35h-.4l.23-.39Zm9-2.11.19.11c.37.2.44.19.77-.08a1.05,1.05,0,0,1,.91-.28A1.24,1.24,0,0,1,31.65,5a.38.38,0,0,0,0,.43,3.26,3.26,0,0,0,.36.39,2.07,2.07,0,0,0-.46-3.31,1.39,1.39,0,0,0-1-.16A2.57,2.57,0,0,0,29,3.42Zm-9.8,4.81c.68-.9.78-2.77,0-3.43-.22.15-.67.1-.49.61h-.2A14.61,14.61,0,0,0,19.19,8.23Zm10.56,3.09L29,11.24a2.55,2.55,0,0,0,1.31,2.23l.09,0ZM26,3.08a1.29,1.29,0,0,0-1.61.21,1.61,1.61,0,0,0-.25,2,.72.72,0,0,0,.06-.56c-.12-.48.06-.75.56-.83A.79.79,0,0,0,25,3.83Zm.5,7.19h-1.1l.09.59.77-.19C26.53,10.61,26.54,10.6,26.47,10.27Zm.31.38h.92l0-.39-1,0Zm1.89.49a2.55,2.55,0,0,0,0-.41.2.2,0,0,0-.1-.16c-.17-.07-.35-.11-.59-.18,0,.16,0,.34.09.41A3.15,3.15,0,0,0,28.67,11.14ZM21,14.74l.26-.23a.18.18,0,0,0,0-.12c-.07-.18-.14-.34-.22-.53C20.69,14.31,20.69,14.42,21,14.74Zm4.45-3L26.1,11C25.47,11.13,25.42,11.08,25.43,11.75Zm2.88-.43.43.52C28.76,11.46,28.76,11.46,28.31,11.32Zm-7.64,3.92h.07c.08-.14.13-.28-.11-.41Z"/><path d="M17.29,15.43a3.54,3.54,0,0,1,.33-.46.35.35,0,0,1,.59,0c.14.19.24.41.37.62.09-.08.2-.19.32-.28.28-.21.49-.16.64.16a1.5,1.5,0,0,1-.47,1.6,2.12,2.12,0,0,1-2.69-.18,1.67,1.67,0,0,1,0-2c.16-.19.33-.21.5,0A4.69,4.69,0,0,1,17.29,15.43Z"/><path d="M4,4.24l1.24-.17a.5.5,0,0,1,.48.4c0,.06-.1.15-.17.17C5,4.81,4.47,5,3.91,5.13a.59.59,0,0,0-.45.37c-.19.44-.4.86-.6,1.28-.11.23-.25.3-.45.22a.38.38,0,0,1-.24-.5c.14-.4.28-.8.45-1.18.3-.69.63-1.37.95-2.05a.63.63,0,0,1,.5-.37l1.82-.26c.27,0,.3,0,.34.31s0,.38-.26.41c-.48.08-1,.15-1.43.2a.38.38,0,0,0-.38.29A3.6,3.6,0,0,1,4,4.24Z"/><path d="M7.11,7.06a6.11,6.11,0,0,1-.63-.15A.69.69,0,0,1,6,6.23,2.64,2.64,0,0,1,8.49,3.69,1.14,1.14,0,0,1,9.58,5.2,3.37,3.37,0,0,1,8.8,6.51,1.92,1.92,0,0,1,7.69,7C7.52,7,7.35,7,7.11,7.06ZM8.33,4.27A1.82,1.82,0,0,0,6.72,5.86c0,.31.08.48.38.55a1.14,1.14,0,0,0,.58,0A2.36,2.36,0,0,0,9,5c.14-.35,0-.6-.38-.71A3.23,3.23,0,0,0,8.33,4.27Z"/><path d="M6,13.75c-.17,0-.4-.07-.63-.14a.68.68,0,0,1-.47-.69,2.64,2.64,0,0,1,2.47-2.54,1.15,1.15,0,0,1,1.1,1.51,3.39,3.39,0,0,1-.79,1.31,1.91,1.91,0,0,1-1.12.49C6.37,13.72,6.21,13.73,6,13.75ZM7.2,11a1.81,1.81,0,0,0-1.62,1.59A.45.45,0,0,0,6,13.1a1,1,0,0,0,.56,0A2.36,2.36,0,0,0,7.9,11.72.48.48,0,0,0,7.53,11,1.94,1.94,0,0,0,7.2,11Z"/><path d="M11.82,5.68c.2.13.4.22.57.35a1.75,1.75,0,0,1,.36.36.31.31,0,0,1-.11.5c-.17.12-.23.1-.32-.09A2.15,2.15,0,0,0,11.41,6a.54.54,0,0,0-.29,0,.55.55,0,0,0-.52.38,4.15,4.15,0,0,1-.35.57.36.36,0,0,1-.61,0c-.16-.16-.12-.21,0-.39a10,10,0,0,0,.67-1,4.47,4.47,0,0,0,.33-.7,2.26,2.26,0,0,0,.14-.57.41.41,0,0,1,.26-.39,2.41,2.41,0,0,1,1.73-.15,1.38,1.38,0,0,1,.49.3.38.38,0,0,1,0,.6,7.47,7.47,0,0,1-.8.69A6.1,6.1,0,0,1,11.82,5.68Zm-.76-.43.11,0a2.69,2.69,0,0,0,1.62-.9c.09-.1.05-.18-.07-.2a3.12,3.12,0,0,0-.61,0,.88.88,0,0,0-.5.17A8.14,8.14,0,0,0,11.06,5.25Z"/><path d="M12.24,10.67a9.25,9.25,0,0,0-1.32,2.89c-.22,0-.47.15-.64-.16,0,0-.15,0-.21,0-.32.1-.63.2-.94.32a.43.43,0,0,1-.53-.13.72.72,0,0,1-.16-.8c.34-.75.69-1.49,1-2.24a.29.29,0,0,1,.43-.15c.18.08.18.12.09.31-.29.61-.57,1.23-.83,1.86-.11.26,0,.4.28.35a7.59,7.59,0,0,0,.93-.27.29.29,0,0,0,.15-.14c.34-.6.67-1.22,1-1.82C11.76,10.31,12,10.33,12.24,10.67Z"/><path d="M3.85,11,5,9.73a3.69,3.69,0,0,1,.55-.4A.27.27,0,0,1,6,9.39c.11.13.19.28.07.44a1.25,1.25,0,0,1-.38.38,5.64,5.64,0,0,0-1.53,1.47c-.49.62-.94,1.27-1.41,1.91-.09.13-.17.13-.27,0a2.31,2.31,0,0,1-.2-.24c-.09-.14-.07-.22,0-.37.35-.45.66-.93,1-1.4,0,0,0-.14,0-.2C3,11,2.79,10.68,2.6,10.29a.44.44,0,0,1,.23-.65c.14-.06.24-.06.32.14A4.73,4.73,0,0,0,3.85,11Z"/><path d="M6.19,17.32c0-.13,0-.25.06-.37s.23-.33.48-.21a1.82,1.82,0,0,1,.23.15l.2.17c0-.12.09-.23.14-.33s.28-.25.49-.1A1.09,1.09,0,0,1,8,17.82a1.44,1.44,0,0,1-1.21.92,1.21,1.21,0,0,1-1.5-1.21,1.24,1.24,0,0,1,0-.27c.06-.2.17-.27.37-.18A4.08,4.08,0,0,1,6.19,17.32Z"/><path d="M22.08,18.1l.28-.25a.29.29,0,0,1,.5.1.92.92,0,0,1,.09.23c0,.08.05.16.08.26l.27-.17c.26-.14.44-.05.49.24a1,1,0,0,1-.46,1,1.57,1.57,0,0,1-2.14-.43,1.32,1.32,0,0,1,.26-1.48.24.24,0,0,1,.41.05A3.48,3.48,0,0,1,22.08,18.1Z"/><path d="M17.14,17.56l.26.11A10.81,10.81,0,0,0,17,20.6c0,1,0,2,0,2.95h-.22A18.4,18.4,0,0,1,17.14,17.56Z"/><path d="M7.22,18.91l.25-.11a12.64,12.64,0,0,1,.74,4.75l-.1,0H8A13,13,0,0,0,7.22,18.91Z"/><path d="M21.55,19.76l.23.15a10.73,10.73,0,0,0-.28,3.61.7.7,0,0,1-.14,0h-.14A10.75,10.75,0,0,1,21.55,19.76Z"/><path d="M6.42,22.36l.24.13-.48,1.07H5.64v-.74H5.9v.65Z"/><path d="M36,23.56h-.53v-.74h.26v.65l.51-1.11.25.13Z"/><path d="M32.12,21.9l.24.1-.49,1.55h-.24A7.6,7.6,0,0,1,32.12,21.9Z"/><path d="M11.6,22c-.15.48-.31.92-.42,1.37,0,.21-.12.24-.35.17l.5-1.63Z"/><path d="M30.61,22.25l.14-.15a2.86,2.86,0,0,1,.43,1.46h-.25Z"/><path d="M10.42,23.56h-.27l-.18-.9a.5.5,0,0,0-.08-.2c-.11-.16-.06-.26.11-.35A3.06,3.06,0,0,1,10.42,23.56Z"/><path d="M3.37,22.49c-.15.35-.27.68-.43,1,0,.06-.17.07-.25.1l-.07-.06.51-1.18Z"/><path d="M19.22,23.52l.51-1.17.24.14c-.15.34-.28.68-.43,1,0,.06-.16.06-.25.09Z"/><path d="M15.19,23.56h-.3l.53-1.2.25.13Z"/><path d="M28.84,22.35l.24.14c-.15.34-.27.68-.43,1,0,.06-.16.07-.25.1l-.07-.07Z"/><path d="M10.82,23.56h-.26v-1h.26Z"/><path d="M2.19,23.56l-.24,0-.29-.86H1.6l.15-.23A1.59,1.59,0,0,1,2.19,23.56Z"/><path d="M14,22.49a1.38,1.38,0,0,1,.45,1.06l-.2,0c-.12-.29-.24-.56-.34-.83C13.91,22.68,14,22.59,14,22.49Z"/><path d="M18.24,22.66l.1-.16c.25.19.35.4.45,1.05l-.24,0Z"/><path d="M35.25,23.56l-.27,0c0-.12,0-.24-.08-.36a1.07,1.07,0,0,0-.14-.35c-.11-.15-.08-.25.06-.37A1.63,1.63,0,0,1,35.25,23.56Z"/><path d="M5.47,23.55l-.26,0-.09-.38A1.2,1.2,0,0,0,5,22.87c-.12-.14-.07-.25,0-.37A1.57,1.57,0,0,1,5.47,23.55Z"/><path d="M22.69,22.48a1.6,1.6,0,0,1,.46,1.07l-.22,0c-.12-.29-.24-.56-.34-.84C22.57,22.68,22.65,22.59,22.69,22.48Z"/><path d="M31.58,23.56h-.24v-1h.24Z"/><path d="M23.31,22.81h.25v.74h-.25Z"/><path d="M19,23.55v-.73h.26v.73Z"/><path d="M2.36,22.81H2.6v.75H2.36Z"/><path d="M14.65,23.57v-.75h.24v.74Z"/><path d="M28.92,6.41a.52.52,0,1,1-1,0,.52.52,0,1,1,1,0Z"/><path d="M31.13,17.14c-.06,0-.18-.06-.21-.13a.29.29,0,0,1,0-.27.86.86,0,0,1,.68-.41.29.29,0,0,1,.24.12.32.32,0,0,1,0,.27A1,1,0,0,1,31.13,17.14Z"/></g><g class="cls-3"><path d="M15.49,3.07A3.72,3.72,0,0,1,15.28.93l.18,0a9.94,9.94,0,0,0,.13,1.48,2.44,2.44,0,0,0,1.64,1.93,1.81,1.81,0,0,0,1.6-.22c.06,0,.12-.14.1-.19a2.93,2.93,0,0,1,.68-2.72L19.86,1,20,.87l.18.17-.41.51a2.55,2.55,0,0,0,.17,3.52,1.29,1.29,0,0,0,.93.51,7.49,7.49,0,0,1,.8.15A1.88,1.88,0,0,0,23.32,5c.05,0,0-.17,0-.25A2.05,2.05,0,0,1,23.62,3a1.68,1.68,0,0,1,.76-.56c.12-.05.17-.11.14-.24a4.4,4.4,0,0,0-.13-.63.59.59,0,0,0-.58-.47V.84c.52-.08.81.32,1,1.44a1.3,1.3,0,0,1,1.1.31.24.24,0,0,0,.19,0,6.36,6.36,0,0,1,2.53-.17.42.42,0,0,0,.3-.1,2.45,2.45,0,0,1,1.5-.61,1.77,1.77,0,0,1,.9.25,2.32,2.32,0,0,1,.81,3.26.61.61,0,0,0-.08.49,4,4,0,0,1-.19,2.41,2,2,0,0,1-.3.51.4.4,0,0,0,0,.53,5.21,5.21,0,0,1,.55,2.88,1.54,1.54,0,0,1-.34.83c-.12.17-.13.17-.05.42l.21-.15A6.91,6.91,0,0,1,34,12a1.5,1.5,0,0,1,1.22.15,3.63,3.63,0,0,1,1.26,1.11,2.16,2.16,0,0,1,0,2.4,2.12,2.12,0,0,1-2.82.71.36.36,0,0,0-.27,0c-.82.35-1.63.73-2.46,1.07a1.7,1.7,0,0,1-1.25.14,1,1,0,0,0-.74,0c-.36.12-.73.18-1.13.27.08.43.17.87.25,1.32a12.66,12.66,0,0,1,.24,1.37,2.23,2.23,0,0,1-1.06,2.22,3.18,3.18,0,0,1-1.83.6A2.45,2.45,0,0,1,24,22.9a1.22,1.22,0,0,1-.47-.91A4.31,4.31,0,0,1,24,19.81a4.61,4.61,0,0,0,.38-2.38c-.06-.73,0-1.47,0-2.2a6,6,0,0,0,0-.61c0-.25-.05-.5-.07-.73-.4.21-.8.43-1.21.63s-.83.39-1.27.59l.28.63-.21.2c-.19-.16-.38-.34-.58-.5a.33.33,0,0,0-.22-.09c-.73.08-1.07-.29-.94-1a.35.35,0,0,0-.07-.26,35.13,35.13,0,0,1-2.67-4.24l-.13-.22-.46.29V9.37c-.22,0-.42-.06-.62-.11A3,3,0,0,1,14,6.89,3.42,3.42,0,0,1,15,3.41C15.17,3.29,15.33,3.19,15.49,3.07ZM29.17,17.3a2.07,2.07,0,0,1,0-.56,4.94,4.94,0,0,1,.35-1,7.3,7.3,0,0,1,1.7-2c.14-.13.25-.25.16-.46l-.15.06a1.74,1.74,0,0,1-1.71-.12,2.31,2.31,0,0,1-.9-1.12.76.76,0,0,0-.12-.19c-.24-.23-.48-.45-.7-.69s-.25-.48-.44-.58-.5,0-.75-.05a.7.7,0,0,0-.66.27c-.17.23-.39.43-.57.65a3.79,3.79,0,0,0-.88,2.67,4,4,0,0,0,1.25,2.58A2.93,2.93,0,0,0,29.17,17.3ZM31.79,5.77a.88.88,0,0,1-.85-.8.45.45,0,0,0-.09-.25,4.51,4.51,0,0,0-1.19-1,.64.64,0,0,0-.3-.08,1.35,1.35,0,0,1-.8-.27.31.31,0,0,1-.1-.46l.09-.16a5.25,5.25,0,0,0-2.91.38,3.3,3.3,0,0,0-1.77,2.57c.12-.11.25-.21.32,0A3.16,3.16,0,0,1,25,5.37a2.93,2.93,0,0,1,1.75.41,1.54,1.54,0,0,1,.78,1,4.58,4.58,0,0,1,.08,1.11,1.84,1.84,0,0,1-.89,1.67,0,0,0,0,0,0,0l1.45.13a.25.25,0,0,0,0-.07s0-.08,0-.11a2.34,2.34,0,0,1,.17-1.28,1.32,1.32,0,0,1,2.29-.42c.21.26.43.52.65.77A3.29,3.29,0,0,0,31.79,5.77Zm2.12,10.41a1.34,1.34,0,0,0,1.2.18A1.87,1.87,0,0,0,36.54,14a2.45,2.45,0,0,0-.94-1.3,1.73,1.73,0,0,0-2.14-.21,10.66,10.66,0,0,0-2.05,1.41,7,7,0,0,0-1.64,2,3.44,3.44,0,0,0-.32.86.44.44,0,0,0,.41.62,1.62,1.62,0,0,0,.62,0,13.72,13.72,0,0,0,2.75-1.13l1.24-.63.13.23ZM21,6.57h0c0-.11-.05-.22-.09-.33s-.07-.08-.11-.12a.54.54,0,0,0-.07.13c-.07.73-.17,1.47-.2,2.21a14.15,14.15,0,0,0,.25,3.11c.06.37.15.74.23,1.09.51-.46,1-.92,1.51-1.35a8.64,8.64,0,0,1,1.26-.92,3,3,0,0,0,.91-.81s0,0,0,0l-.16-.13a2.63,2.63,0,0,1-1-1.56,4.72,4.72,0,0,1,.11-2.24,1.53,1.53,0,0,0,0-.37l-.07,0a2.23,2.23,0,0,1-2.4.69Zm3.63,9c0,.12,0,.2,0,.27,0,.64.08,1.27.09,1.9a4.45,4.45,0,0,1-.37,2,4.68,4.68,0,0,0-.5,2c0,.65.32,1,.89,1.09a3.48,3.48,0,0,0,1-.05,6,6,0,0,0,2.17-1.12.35.35,0,0,0,.14-.24,3.84,3.84,0,0,0,.06-1c-.12-.79-.31-1.58-.45-2.38,0-.14-.08-.2-.22-.22a3,3,0,0,1-1.92-1l-.15-.13c.06.37.11.68.17,1a4.54,4.54,0,0,1-.28,2.75,2.22,2.22,0,0,0-.2.71c-.05.52-.06,1.05-.08,1.6l-.2,0A4.4,4.4,0,0,1,25,20.3a3,3,0,0,0,.3-1.5c-.06-.7-.17-1.39-.26-2.09a2.09,2.09,0,0,1,0-.25s0-.09,0-.12Zm-9-12.24-.24.15a3.3,3.3,0,0,0-.19,5,2.39,2.39,0,0,0,3.33-.14A.29.29,0,0,0,18.59,8c-.17-.59-.34-1.19-.49-1.79C18,5.82,18,5.43,17.88,5l-.34,0a.29.29,0,0,1,0-.09c0-.19,0-.26-.23-.3a2.37,2.37,0,0,1-1.38-.91C15.8,3.63,15.71,3.49,15.61,3.34Zm14.71,9.88A1.33,1.33,0,0,0,31.84,12a5.09,5.09,0,0,0-1.55-4.09,1.58,1.58,0,0,0-.53-.28c-.13-.06-.23,0-.3.14a2.88,2.88,0,0,0-.17,2.06c.18.62.43,1.22.62,1.84S30.18,12.69,30.32,13.22Zm-4.51-5,.23.2c-.15.16-.29.3-.42.45a.17.17,0,0,1-.25,0L25,8.72c-.15.1-.09.38-.36.35a3.81,3.81,0,0,0,.87.36,1.35,1.35,0,0,0,1.8-1.18,5.08,5.08,0,0,0,0-1.17A1.33,1.33,0,0,0,26.48,6a2.93,2.93,0,0,0-1.19-.32,1.44,1.44,0,0,0-1.46,1.15A3,3,0,0,0,24,8.26l.53.26a.58.58,0,0,0-.11-.58L24,7.49a.24.24,0,0,1-.06-.17c.06-.35.21-.46.56-.45a2,2,0,0,0,.42,0c.24-.05.33.06.41.27a.29.29,0,0,1,0,.35c-.12.14-.23.29-.34.44a.27.27,0,0,0,.07.39l.46.26ZM21.3,14a3.55,3.55,0,0,1,1.54-.16,2.46,2.46,0,0,1,.51.15s.1.05.13,0c.37-.23.81-.4.87-.93a2.21,2.21,0,0,1,.12-.42,3.4,3.4,0,0,0,.35-1.57c0-.37,0-.75,0-1.13h-.07l-.13.15c-.2.16-.38.33-.59.48s-.41.24-.61.38a13.07,13.07,0,0,0-2.2,1.93c-.06.08-.14.19-.12.27C21.13,13.39,21.22,13.66,21.3,14ZM17.57,9.59l0,.05a33.63,33.63,0,0,0,2.65,4.2c.11-.18.19-.34.29-.49a.3.3,0,0,0,0-.33c-.4-1-.8-1.95-1.18-2.94-.21-.52-.38-1.05-.56-1.55l-1.16.74.16.5-.05,0Zm2-4.4v0a.19.19,0,0,0,0,.08,3.7,3.7,0,0,1-.56,2.77.36.36,0,0,0,0,.36l1.5,3.93a.91.91,0,0,0,.07.14,16.74,16.74,0,0,1-.2-6.35H20l.23-.39Zm9-2.11.19.11c.37.2.44.19.77-.08a1.05,1.05,0,0,1,.91-.28,1.24,1.24,0,0,1,.79,1.86.38.38,0,0,0,0,.43,3.26,3.26,0,0,0,.36.39,2.07,2.07,0,0,0-.46-3.31,1.39,1.39,0,0,0-1-.16A2.57,2.57,0,0,0,28.65,3.08Zm-9.8,4.81c.68-.9.78-2.77,0-3.43-.22.15-.67.1-.49.61h-.2A14.61,14.61,0,0,0,18.85,7.89ZM29.41,11l-.79-.08a2.58,2.58,0,0,0,1.32,2.23l.09,0ZM25.63,2.74A1.29,1.29,0,0,0,24,3a1.61,1.61,0,0,0-.25,2,.72.72,0,0,0,.06-.56c-.12-.48.06-.75.56-.84a.54.54,0,0,0,.22,0Zm.5,7.19H25l.09.59.77-.19C26.19,10.27,26.2,10.26,26.13,9.93Zm.31.38h.92l0-.39-1,0Zm1.89.49a2.55,2.55,0,0,0,0-.41.2.2,0,0,0-.1-.16c-.17-.07-.35-.11-.59-.18,0,.16,0,.34.09.41A3.15,3.15,0,0,0,28.33,10.8Zm-7.69,3.6.26-.23a.18.18,0,0,0,0-.12c-.07-.18-.14-.34-.22-.53C20.35,14,20.35,14.08,20.64,14.4Zm4.45-3,.67-.75C25.13,10.79,25.08,10.74,25.09,11.41ZM28,11l.43.52C28.42,11.12,28.42,11.12,28,11ZM20.33,14.9h.07a.25.25,0,0,0-.11-.41Z"/><path d="M17,15.09a3.54,3.54,0,0,1,.33-.46.35.35,0,0,1,.59,0c.14.19.24.41.37.62.09-.08.2-.19.32-.28.28-.21.49-.16.64.16a1.5,1.5,0,0,1-.47,1.6A2.12,2.12,0,0,1,16,16.59a1.67,1.67,0,0,1,0-2c.16-.19.33-.21.5,0A4.69,4.69,0,0,1,17,15.09Z"/><path d="M3.66,3.9,4.9,3.73a.49.49,0,0,1,.47.4c0,.06-.09.15-.16.17-.54.17-1.08.34-1.64.49a.59.59,0,0,0-.45.37c-.19.44-.4.86-.6,1.28-.11.23-.25.3-.45.22a.38.38,0,0,1-.24-.5c.14-.4.28-.8.45-1.18.3-.69.63-1.37,1-2.05a.63.63,0,0,1,.5-.37L5.55,2.3c.27,0,.3,0,.34.31s0,.38-.26.41c-.48.08-1,.15-1.43.2a.37.37,0,0,0-.38.29A3.6,3.6,0,0,1,3.66,3.9Z"/><path d="M6.77,6.72a6.11,6.11,0,0,1-.63-.15.69.69,0,0,1-.47-.68A2.63,2.63,0,0,1,8.15,3.35,1.14,1.14,0,0,1,9.24,4.86a3.27,3.27,0,0,1-.79,1.31,1.87,1.87,0,0,1-1.1.48ZM8,3.93A1.82,1.82,0,0,0,6.38,5.52c0,.31.08.48.38.55a1.14,1.14,0,0,0,.58,0A2.36,2.36,0,0,0,8.7,4.7c.14-.35,0-.6-.38-.71A3.23,3.23,0,0,0,8,3.93Z"/><path d="M5.63,13.41c-.17,0-.41-.07-.63-.14a.68.68,0,0,1-.47-.69A2.64,2.64,0,0,1,7,10a1.15,1.15,0,0,1,1.1,1.51,3.39,3.39,0,0,1-.79,1.31,1.91,1.91,0,0,1-1.12.49C6,13.38,5.87,13.39,5.63,13.41Zm1.23-2.79a1.81,1.81,0,0,0-1.62,1.59.45.45,0,0,0,.39.55,1,1,0,0,0,.56,0,2.36,2.36,0,0,0,1.37-1.38.48.48,0,0,0-.37-.69A1.94,1.94,0,0,0,6.86,10.62Z"/><path d="M11.48,5.34c.2.13.4.22.57.35a1.75,1.75,0,0,1,.36.36.31.31,0,0,1-.11.5c-.17.12-.23.1-.32-.09a2.15,2.15,0,0,0-.91-.83.54.54,0,0,0-.29,0,.55.55,0,0,0-.52.38,4.15,4.15,0,0,1-.35.57.36.36,0,0,1-.61,0c-.16-.16-.12-.21,0-.39a10,10,0,0,0,.67-1,4.47,4.47,0,0,0,.33-.7,2.26,2.26,0,0,0,.14-.57.41.41,0,0,1,.26-.39,2.41,2.41,0,0,1,1.73-.15,1.38,1.38,0,0,1,.49.3.38.38,0,0,1,0,.6,7.47,7.47,0,0,1-.8.69A7.17,7.17,0,0,1,11.48,5.34Zm-.76-.43.11,0a2.69,2.69,0,0,0,1.62-.9c.09-.1.05-.18-.07-.2a3.12,3.12,0,0,0-.61,0,.88.88,0,0,0-.5.17A8.14,8.14,0,0,0,10.72,4.91Z"/><path d="M11.9,10.33a9.25,9.25,0,0,0-1.32,2.89c-.22,0-.47.15-.64-.16,0,0-.15,0-.21,0-.32.1-.63.2-.94.32a.43.43,0,0,1-.53-.13.72.72,0,0,1-.16-.8c.34-.75.69-1.49,1-2.24A.29.29,0,0,1,9.57,10c.18.07.18.12.09.31-.29.61-.57,1.23-.83,1.86-.11.26,0,.4.28.35a7.59,7.59,0,0,0,.93-.27.29.29,0,0,0,.15-.14c.34-.6.67-1.22,1-1.82C11.42,10,11.7,10,11.9,10.33Z"/><path d="M3.51,10.66,4.69,9.39A4.19,4.19,0,0,1,5.23,9a.29.29,0,0,1,.39.06c.11.13.19.28.07.44a1.25,1.25,0,0,1-.38.38,5.64,5.64,0,0,0-1.53,1.47c-.49.62-.94,1.27-1.41,1.91-.09.13-.17.13-.27,0A2.31,2.31,0,0,1,1.9,13c-.09-.14-.07-.22.05-.37.35-.45.66-.93,1-1.4,0,0,0-.14,0-.2-.21-.37-.45-.73-.63-1.12a.44.44,0,0,1,.23-.65c.14-.06.24-.06.32.14A4.73,4.73,0,0,0,3.51,10.66Z"/><path d="M5.85,17c0-.13,0-.25.06-.37s.23-.33.48-.21a1.82,1.82,0,0,1,.23.15l.2.17c0-.12.09-.23.14-.33s.28-.25.49-.1a1.09,1.09,0,0,1,.25,1.19,1.44,1.44,0,0,1-1.21.92A1.21,1.21,0,0,1,5,17.19a1.24,1.24,0,0,1,0-.27c.06-.2.17-.27.37-.18A4.08,4.08,0,0,1,5.85,17Z"/><path d="M21.74,17.76l.28-.25a.29.29,0,0,1,.5.1.92.92,0,0,1,.09.23c0,.08.05.16.08.26l.27-.17c.26-.14.44-.05.49.24a1,1,0,0,1-.46,1,1.57,1.57,0,0,1-2.14-.43,1.32,1.32,0,0,1,.26-1.48.25.25,0,0,1,.41,0A4.51,4.51,0,0,1,21.74,17.76Z"/><path d="M16.8,17.22l.26.11a10.81,10.81,0,0,0-.42,2.93c0,1,0,2,0,2.95h-.22A18.4,18.4,0,0,1,16.8,17.22Z"/><path d="M6.88,18.57l.25-.11a12.64,12.64,0,0,1,.74,4.75l-.1,0H7.61A13,13,0,0,0,6.88,18.57Z"/><path d="M21.21,19.42l.23.15a10.73,10.73,0,0,0-.28,3.61l-.14,0h-.14A10.75,10.75,0,0,1,21.21,19.42Z"/><path d="M6.08,22l.24.13-.48,1.07H5.3v-.74h.26v.65Z"/><path d="M35.61,23.22h-.53v-.74h.26v.64l.51-1.1.25.13Z"/><path d="M31.78,21.56l.24.1-.49,1.55h-.24A7.6,7.6,0,0,1,31.78,21.56Z"/><path d="M11.26,21.65c-.15.48-.31.92-.42,1.37,0,.21-.12.24-.35.17l.5-1.63Z"/><path d="M30.27,21.91l.14-.15a3,3,0,0,1,.43,1.46h-.25Z"/><path d="M10.08,23.22H9.81l-.18-.9a.5.5,0,0,0-.08-.2c-.11-.16-.06-.26.11-.35A3.06,3.06,0,0,1,10.08,23.22Z"/><path d="M3,22.15c-.15.35-.27.68-.43,1,0,.06-.17.07-.25.1l-.07-.06L2.79,22Z"/><path d="M18.88,23.18,19.39,22l.24.14c-.15.34-.28.68-.43,1,0,.06-.16.06-.25.09Z"/><path d="M14.85,23.22h-.3l.53-1.2.25.13Z"/><path d="M28.5,22l.24.14c-.15.34-.27.68-.43,1,0,.06-.16.07-.25.1L28,23.18Z"/><path d="M10.48,23.22h-.26v-1h.26Z"/><path d="M1.85,23.22l-.24,0-.29-.86H1.26l.15-.23A1.59,1.59,0,0,1,1.85,23.22Z"/><path d="M13.68,22.15a1.38,1.38,0,0,1,.45,1.06l-.2,0c-.12-.29-.24-.56-.34-.83C13.57,22.34,13.64,22.25,13.68,22.15Z"/><path d="M17.9,22.32l.1-.16c.25.19.35.4.45,1.05l-.24,0Z"/><path d="M34.91,23.22l-.27,0c0-.12,0-.24-.08-.36a1.07,1.07,0,0,0-.14-.35c-.11-.15-.08-.25.06-.37A1.63,1.63,0,0,1,34.91,23.22Z"/><path d="M5.13,23.21l-.26,0-.09-.38a1.2,1.2,0,0,0-.13-.33c-.12-.14-.07-.25,0-.37A1.55,1.55,0,0,1,5.13,23.21Z"/><path d="M22.35,22.14a1.6,1.6,0,0,1,.46,1.07l-.22,0c-.12-.29-.24-.56-.34-.84C22.23,22.34,22.3,22.25,22.35,22.14Z"/><path d="M31.24,23.22H31v-1h.24Z"/><path d="M23,22.47h.25v.74H23Z"/><path d="M18.61,23.21v-.73h.26v.73Z"/><path d="M2,22.47h.24v.75H2Z"/><path d="M14.31,23.23v-.75h.24v.74Z"/><path d="M28.58,6.07a.52.52,0,1,1-1,0,.52.52,0,1,1,1,0Z"/><path d="M30.79,16.8c-.06,0-.18-.06-.21-.13a.29.29,0,0,1,0-.27.86.86,0,0,1,.68-.41.29.29,0,0,1,.24.12.32.32,0,0,1,0,.27A1,1,0,0,1,30.79,16.8Z"/></g><path class="cls-4" d="M15.69,3.27a3.72,3.72,0,0,1-.22-2.14l.19,0a9.94,9.94,0,0,0,.13,1.48,2.46,2.46,0,0,0,1.64,1.93A1.82,1.82,0,0,0,19,4.35c.06,0,.12-.13.1-.18a2.93,2.93,0,0,1,.68-2.72,3.47,3.47,0,0,1,.25-.29.93.93,0,0,1,.1-.1l.18.18c-.14.17-.29.34-.42.51a2.56,2.56,0,0,0,.18,3.52,1.24,1.24,0,0,0,.93.5c.27,0,.53.13.8.16a1.88,1.88,0,0,0,1.69-.74c.05-.05,0-.17,0-.25a2.08,2.08,0,0,1,.28-1.76,1.74,1.74,0,0,1,.76-.55.19.19,0,0,0,.14-.24c0-.21-.07-.43-.13-.64A.59.59,0,0,0,24,1.29V1c.52-.08.81.32,1,1.44a1.3,1.3,0,0,1,1.1.31.24.24,0,0,0,.19,0,6.36,6.36,0,0,1,2.53-.17.42.42,0,0,0,.3-.1,2.39,2.39,0,0,1,1.5-.61,1.79,1.79,0,0,1,.9.25,2.32,2.32,0,0,1,.81,3.26.6.6,0,0,0-.08.49,4,4,0,0,1-.19,2.41,2.2,2.2,0,0,1-.3.51.41.41,0,0,0-.05.53,5.13,5.13,0,0,1,.56,2.88,1.57,1.57,0,0,1-.34.83c-.12.17-.13.16-.05.42l.2-.15a6.86,6.86,0,0,1,2.11-1.14,1.46,1.46,0,0,1,1.22.15,3.71,3.71,0,0,1,1.26,1.1,2.16,2.16,0,0,1,0,2.4,2.12,2.12,0,0,1-2.83.72.34.34,0,0,0-.26,0c-.82.35-1.63.73-2.46,1.07a1.7,1.7,0,0,1-1.25.14,1,1,0,0,0-.74,0,11.24,11.24,0,0,1-1.14.27c.09.42.18.87.26,1.32a12.66,12.66,0,0,1,.24,1.37A2.21,2.21,0,0,1,27.51,23a3.15,3.15,0,0,1-1.84.61,2.44,2.44,0,0,1-1.46-.53,1.22,1.22,0,0,1-.47-.91A4.31,4.31,0,0,1,24.17,20a4.66,4.66,0,0,0,.38-2.39c-.06-.72,0-1.46,0-2.2,0-.2,0-.4,0-.6s0-.5-.07-.73c-.4.21-.8.43-1.21.63l-1.27.59.28.63-.21.2c-.19-.17-.38-.34-.59-.5a.3.3,0,0,0-.21-.09c-.73.08-1.07-.3-.94-1a.39.39,0,0,0-.07-.26A35.13,35.13,0,0,1,17.51,10a2.36,2.36,0,0,1-.13-.23l-.46.3V9.57c-.22,0-.43-.06-.62-.11a3,3,0,0,1-2.14-2.38,3.41,3.41,0,0,1,1.07-3.47C15.37,3.49,15.53,3.39,15.69,3.27ZM29.37,17.5a2.06,2.06,0,0,1,0-.56,4.94,4.94,0,0,1,.35-1,7.3,7.3,0,0,1,1.7-2c.14-.13.25-.25.16-.46l-.15.06a1.76,1.76,0,0,1-1.72-.12,2.42,2.42,0,0,1-.9-1.12.39.39,0,0,0-.12-.19c-.23-.23-.48-.45-.69-.69s-.25-.48-.45-.58-.49,0-.74-.05a.68.68,0,0,0-.66.27c-.17.23-.39.43-.58.65a3.77,3.77,0,0,0-.87,2.66A3.92,3.92,0,0,0,26,17,2.93,2.93,0,0,0,29.37,17.5ZM32,6a.88.88,0,0,1-.85-.8.42.42,0,0,0-.09-.25,4.34,4.34,0,0,0-1.19-1,.64.64,0,0,0-.3-.08,1.41,1.41,0,0,1-.81-.27.32.32,0,0,1-.09-.46c0-.05.05-.1.09-.16a5.29,5.29,0,0,0-2.92.38,3.29,3.29,0,0,0-1.76,2.56c.12-.1.24-.2.32,0a2.81,2.81,0,0,1,.79-.29A2.89,2.89,0,0,1,26.92,6a1.52,1.52,0,0,1,.79,1,4.58,4.58,0,0,1,.08,1.11,1.84,1.84,0,0,1-.89,1.67,0,0,0,0,0,0,0l1.45.12a.25.25,0,0,0,0-.07.34.34,0,0,1,0-.1,2.33,2.33,0,0,1,.17-1.28,1.32,1.32,0,0,1,2.29-.42c.21.26.43.51.65.77A3.29,3.29,0,0,0,32,6Zm2.12,10.41a1.34,1.34,0,0,0,1.2.18,1.87,1.87,0,0,0,1.43-2.32,2.45,2.45,0,0,0-.94-1.3,1.72,1.72,0,0,0-2.14-.21,10.66,10.66,0,0,0-2,1.41A7,7,0,0,0,30,16.09a3.17,3.17,0,0,0-.32.86.44.44,0,0,0,.41.62,1.62,1.62,0,0,0,.62,0,13.72,13.72,0,0,0,2.75-1.13c.41-.2.81-.41,1.23-.63l.14.23ZM21.16,6.77l0,0c0-.1-.05-.21-.08-.32s-.07-.08-.11-.12-.07.08-.07.13c-.07.73-.17,1.47-.21,2.2a14.83,14.83,0,0,0,.26,3.12c.06.37.15.73.23,1.09.51-.46,1-.93,1.51-1.35a8,8,0,0,1,1.26-.92,3,3,0,0,0,.91-.81l0,0-.16-.13a2.58,2.58,0,0,1-1-1.55,4.72,4.72,0,0,1,.11-2.24,1.61,1.61,0,0,0,0-.38H23.7a2.22,2.22,0,0,1-2.41.68Zm3.63,9a1.32,1.32,0,0,0,0,.27c0,.64.08,1.27.09,1.9a4.59,4.59,0,0,1-.37,2,4.61,4.61,0,0,0-.5,2c0,.65.31,1,.89,1.09a3.48,3.48,0,0,0,1-.05,6,6,0,0,0,2.16-1.12.37.37,0,0,0,.15-.24,3.84,3.84,0,0,0,.06-1c-.12-.8-.31-1.59-.46-2.38,0-.14-.07-.2-.21-.22a3,3,0,0,1-1.92-1L25.53,17c.07.37.12.68.17,1a4.48,4.48,0,0,1-.27,2.75,2.22,2.22,0,0,0-.2.71c-.05.52-.06,1.05-.08,1.59l-.21.05a4.57,4.57,0,0,1,.26-2.54,2.92,2.92,0,0,0,.31-1.5c-.06-.7-.18-1.4-.27-2.09a2.09,2.09,0,0,1,0-.25.62.62,0,0,0,0-.13C25.11,16.3,25,16.07,24.79,15.78Zm-9-12.24-.24.15a3.29,3.29,0,0,0-.19,5,2.37,2.37,0,0,0,3.33-.14.29.29,0,0,0,.08-.33C18.61,7.6,18.44,7,18.3,6.4c-.1-.38-.15-.77-.22-1.16l-.34,0a.37.37,0,0,1,0-.09c0-.19,0-.26-.23-.3A2.31,2.31,0,0,1,16.11,4,4.5,4.5,0,0,1,15.81,3.54Zm14.71,9.87A1.32,1.32,0,0,0,32,12.22a5.16,5.16,0,0,0-1.55-4.1A1.66,1.66,0,0,0,30,7.85c-.13-.06-.23,0-.3.14a2.83,2.83,0,0,0-.17,2.06c.17.62.43,1.22.62,1.83S30.38,12.89,30.52,13.41ZM26,8.45l.23.21c-.15.16-.29.3-.42.45a.17.17,0,0,1-.25,0l-.42-.22c-.15.1-.09.38-.36.35a3.64,3.64,0,0,0,.87.36,1.35,1.35,0,0,0,1.8-1.18,5.8,5.8,0,0,0,0-1.18,1.34,1.34,0,0,0-.79-1.12,3.09,3.09,0,0,0-1.19-.31A1.45,1.45,0,0,0,24,7a3.1,3.1,0,0,0,.14,1.47l.53.25a.59.59,0,0,0-.11-.57l-.39-.45a.28.28,0,0,1-.05-.17c.06-.35.2-.46.56-.45a2,2,0,0,0,.42,0c.24,0,.33.06.41.27a.29.29,0,0,1-.05.35c-.12.14-.23.29-.34.44a.26.26,0,0,0,.07.39l.46.26ZM21.5,14.14A3.88,3.88,0,0,1,23,14a3.33,3.33,0,0,1,.51.16s.1,0,.13,0c.37-.23.81-.4.87-.93a2.21,2.21,0,0,1,.12-.42A3.4,3.4,0,0,0,25,11.25c0-.37,0-.75,0-1.13h-.07l-.14.14a6.82,6.82,0,0,1-.58.49c-.19.14-.41.24-.61.38a13.07,13.07,0,0,0-2.2,1.93c-.06.07-.14.19-.12.27C21.32,13.59,21.42,13.86,21.5,14.14ZM17.77,9.79l0,0A33.74,33.74,0,0,0,20.38,14a3.73,3.73,0,0,1,.29-.49.31.31,0,0,0,0-.33c-.4-1-.8-2-1.18-2.94-.21-.52-.39-1-.56-1.55l-1.16.74L18,10l-.05,0Zm2-4.41s0,0,0,0,0,0,0,.08a3.72,3.72,0,0,1-.56,2.77.36.36,0,0,0,0,.36l1.5,3.93.07.14a16.59,16.59,0,0,1-.2-6.36h-.4L20.42,6Zm9-2.11.18.12c.38.2.45.19.78-.08A1,1,0,0,1,30.72,3a1.23,1.23,0,0,1,.79,1.86.38.38,0,0,0-.05.43,4.25,4.25,0,0,0,.35.39,2.07,2.07,0,0,0-.45-3.31,1.35,1.35,0,0,0-1-.16A2.56,2.56,0,0,0,28.85,3.27ZM19,8.08c.69-.9.79-2.76,0-3.42-.22.15-.67.1-.49.6h-.21A16,16,0,0,0,19,8.08Zm10.57,3.1-.79-.09a2.56,2.56,0,0,0,1.32,2.23l.08,0ZM25.83,2.94a1.29,1.29,0,0,0-1.61.21,1.61,1.61,0,0,0-.25,2A.72.72,0,0,0,24,4.58c-.13-.48.06-.75.56-.84a.54.54,0,0,0,.22-.05Zm.5,7.19h-1.1l.09.59.77-.19C26.39,10.47,26.39,10.46,26.33,10.13Zm.31.38h.92l0-.39-1,0Zm1.89.49a2.72,2.72,0,0,0,0-.42c0-.05-.05-.14-.1-.15s-.36-.11-.59-.18c0,.16,0,.34.08.4A3.6,3.6,0,0,0,28.53,11Zm-7.69,3.6.26-.23a.18.18,0,0,0,0-.12c-.07-.18-.15-.35-.23-.53C20.55,14.17,20.55,14.28,20.84,14.6Zm4.45-3,.67-.75C25.33,11,25.28,10.94,25.29,11.61Zm2.88-.43.43.52C28.62,11.31,28.62,11.31,28.17,11.18Zm-7.64,3.91h.06c.09-.14.13-.28-.1-.41Z"/><path class="cls-4" d="M17.15,15.28c.1-.14.2-.31.32-.45a.35.35,0,0,1,.6,0,5.3,5.3,0,0,1,.36.62,3,3,0,0,1,.33-.28c.28-.22.49-.16.63.16a1.48,1.48,0,0,1-.46,1.6,2.13,2.13,0,0,1-2.69-.18,1.67,1.67,0,0,1,0-2c.16-.19.33-.21.5,0S17,15.1,17.15,15.28Z"/><path class="cls-4" d="M3.86,4.09,5.1,3.93a.48.48,0,0,1,.47.4c0,.06-.09.15-.16.17-.54.17-1.09.34-1.64.48a.62.62,0,0,0-.45.38c-.19.43-.4.86-.6,1.28-.11.23-.25.29-.45.21A.37.37,0,0,1,2,6.36c.14-.4.28-.8.45-1.18.3-.69.62-1.37,1-2a.61.61,0,0,1,.5-.37L5.75,2.5c.27,0,.3,0,.34.31s0,.38-.27.41c-.47.08-.94.15-1.42.2A.37.37,0,0,0,4,3.71,2.84,2.84,0,0,1,3.86,4.09Z"/><path class="cls-4" d="M7,6.92a5.56,5.56,0,0,1-.63-.15.68.68,0,0,1-.47-.68A2.63,2.63,0,0,1,8.35,3.55,1.14,1.14,0,0,1,9.44,5.06a3.39,3.39,0,0,1-.79,1.31,1.93,1.93,0,0,1-1.1.48ZM8.19,4.13A1.81,1.81,0,0,0,6.58,5.72c0,.3.08.48.38.54a1,1,0,0,0,.58,0A2.36,2.36,0,0,0,8.9,4.9c.14-.35,0-.6-.38-.71A3.23,3.23,0,0,0,8.19,4.13Z"/><path class="cls-4" d="M5.83,13.61a5.1,5.1,0,0,1-.63-.15.66.66,0,0,1-.47-.68A2.64,2.64,0,0,1,7.2,10.24a1.15,1.15,0,0,1,1.1,1.51,3.51,3.51,0,0,1-.79,1.31,1.94,1.94,0,0,1-1.13.49C6.23,13.58,6.06,13.58,5.83,13.61Zm1.23-2.79a1.81,1.81,0,0,0-1.62,1.59.45.45,0,0,0,.39.55,1,1,0,0,0,.56,0,2.36,2.36,0,0,0,1.37-1.38.49.49,0,0,0-.37-.7C7.28,10.85,7.17,10.84,7.06,10.82Z"/><path class="cls-4" d="M11.68,5.54a6.16,6.16,0,0,1,.57.35,1.5,1.5,0,0,1,.35.36.31.31,0,0,1-.1.5c-.17.12-.23.09-.32-.09a2.21,2.21,0,0,0-.91-.83.56.56,0,0,0-.29,0,.55.55,0,0,0-.52.38,4.15,4.15,0,0,1-.35.57.36.36,0,0,1-.61,0c-.16-.16-.13-.21,0-.39a10,10,0,0,0,.67-1,4.47,4.47,0,0,0,.33-.7,2.26,2.26,0,0,0,.14-.57.4.4,0,0,1,.26-.39,2.41,2.41,0,0,1,1.73-.15,1.38,1.38,0,0,1,.49.3.38.38,0,0,1,0,.6,6.51,6.51,0,0,1-.79.69A7.17,7.17,0,0,1,11.68,5.54Zm-.76-.43c.07,0,.09,0,.11,0a2.63,2.63,0,0,0,1.62-.89c.09-.1,0-.18-.07-.2A3.12,3.12,0,0,0,12,4a.81.81,0,0,0-.5.17A6.87,6.87,0,0,0,10.92,5.11Z"/><path class="cls-4" d="M12.1,10.53a9.5,9.5,0,0,0-1.33,2.89c-.21,0-.46.14-.63-.16,0,0-.15,0-.21,0-.32.1-.63.2-.94.32a.43.43,0,0,1-.53-.13.72.72,0,0,1-.16-.8c.34-.75.69-1.5,1-2.24a.29.29,0,0,1,.42-.15c.19.07.19.12.1.31-.29.61-.58,1.23-.83,1.86-.11.26,0,.4.28.34a6.12,6.12,0,0,0,.93-.26.29.29,0,0,0,.15-.14c.34-.61.67-1.22,1-1.82C11.62,10.17,11.89,10.19,12.1,10.53Z"/><path class="cls-4" d="M3.71,10.86c.41-.44.78-.86,1.18-1.27a3,3,0,0,1,.54-.4.29.29,0,0,1,.39.05c.11.13.19.29.07.44a1.29,1.29,0,0,1-.38.39A5.64,5.64,0,0,0,4,11.54c-.49.62-1,1.27-1.41,1.91-.09.13-.17.13-.27,0a1.5,1.5,0,0,1-.2-.24C2,13.1,2,13,2.14,12.87c.36-.45.67-.93,1-1.4,0,0,0-.14,0-.2-.21-.38-.45-.74-.63-1.12a.45.45,0,0,1,.22-.66c.15-.05.25-.05.33.14A4.63,4.63,0,0,0,3.71,10.86Z"/><path class="cls-4" d="M6.05,17.18c0-.13,0-.25.06-.37s.23-.34.48-.21c.08,0,.15.1.23.15l.2.17c.05-.12.09-.23.14-.33s.28-.25.49-.1a1.08,1.08,0,0,1,.25,1.19,1.41,1.41,0,0,1-1.21.91,1.19,1.19,0,0,1-1.5-1.2,1.18,1.18,0,0,1,0-.27.24.24,0,0,1,.37-.19C5.74,17,5.88,17.09,6.05,17.18Z"/><path class="cls-4" d="M21.94,18l.28-.25c.2-.17.37-.13.5.1a.92.92,0,0,1,.09.23c0,.08.05.16.08.26l.27-.17c.25-.14.44-.05.49.24a1,1,0,0,1-.46,1A1.57,1.57,0,0,1,21.05,19a1.32,1.32,0,0,1,.26-1.48.25.25,0,0,1,.41,0A4.51,4.51,0,0,1,21.94,18Z"/><path class="cls-4" d="M17,17.42l.26.11a10.81,10.81,0,0,0-.42,2.93c0,1,0,2,0,2.95H16.6A18.69,18.69,0,0,1,17,17.42Z"/><path class="cls-4" d="M7.07,18.77l.26-.11a12.61,12.61,0,0,1,.74,4.75l-.11,0H7.81A12.77,12.77,0,0,0,7.07,18.77Z"/><path class="cls-4" d="M21.41,19.61l.23.15a10.55,10.55,0,0,0-.28,3.62l-.14,0h-.14A10.82,10.82,0,0,1,21.41,19.61Z"/><path class="cls-4" d="M6.27,22.21l.25.14L6,23.42H5.5v-.74h.26v.65Z"/><path class="cls-4" d="M35.81,23.42h-.53v-.74h.26v.64l.51-1.1.24.13Z"/><path class="cls-4" d="M32,21.76l.25.1-.49,1.55h-.25A8.68,8.68,0,0,1,32,21.76Z"/><path class="cls-4" d="M11.46,21.85c-.15.48-.31.92-.42,1.37,0,.21-.12.24-.35.17l.5-1.63Z"/><path class="cls-4" d="M30.47,22.1l.14-.14A3,3,0,0,1,31,23.41l-.25,0Z"/><path class="cls-4" d="M10.28,23.42H10q-.09-.46-.18-.9a.5.5,0,0,0-.08-.2c-.11-.16-.07-.26.11-.36A3.13,3.13,0,0,1,10.28,23.42Z"/><path class="cls-4" d="M3.23,22.34c-.15.36-.28.69-.43,1,0,.06-.17.07-.26.1l-.06-.06L3,22.21Z"/><path class="cls-4" d="M19.08,23.38l.51-1.17.24.14c-.15.34-.28.68-.44,1,0,.05-.16.06-.24.09Z"/><path class="cls-4" d="M15.05,23.42h-.3l.53-1.2.25.13Z"/><path class="cls-4" d="M28.69,22.21l.25.14c-.15.34-.28.68-.43,1,0,.06-.17.07-.25.1l-.07-.07Z"/><path class="cls-4" d="M10.68,23.42h-.26V22.37h.26Z"/><path class="cls-4" d="M2.05,23.41l-.24,0-.29-.86H1.46l.15-.23A1.58,1.58,0,0,1,2.05,23.41Z"/><path class="cls-4" d="M13.88,22.34a1.45,1.45,0,0,1,.45,1.07l-.21,0c-.12-.29-.24-.56-.33-.83C13.77,22.54,13.84,22.45,13.88,22.34Z"/><path class="cls-4" d="M18.1,22.52l.1-.16c.25.19.34.4.45,1.05l-.24,0Z"/><path class="cls-4" d="M35.1,23.41l-.26,0c0-.12-.05-.24-.08-.36a1.35,1.35,0,0,0-.14-.35c-.11-.15-.08-.25.06-.37A1.56,1.56,0,0,1,35.1,23.41Z"/><path class="cls-4" d="M5.33,23.41l-.26,0L5,23.06a1.2,1.2,0,0,0-.13-.33c-.12-.15-.08-.25.05-.37A1.55,1.55,0,0,1,5.33,23.41Z"/><path class="cls-4" d="M22.55,22.33A1.69,1.69,0,0,1,23,23.41l-.22,0c-.12-.29-.25-.56-.34-.84C22.43,22.54,22.5,22.45,22.55,22.33Z"/><path class="cls-4" d="M31.44,23.42H31.2V22.37h.24Z"/><path class="cls-4" d="M23.17,22.67h.25v.74h-.25Z"/><path class="cls-4" d="M18.81,23.41v-.73h.26v.73Z"/><path class="cls-4" d="M2.22,22.67h.24v.74H2.22Z"/><path class="cls-4" d="M14.51,23.43v-.75h.24v.74Z"/><path class="cls-4" d="M28.78,6.27a.55.55,0,0,1-.52.58.54.54,0,0,1-.51-.58.52.52,0,0,1,.5-.56A.53.53,0,0,1,28.78,6.27Z"/><path class="cls-4" d="M31,17c-.05,0-.17-.06-.2-.13a.29.29,0,0,1,0-.27.86.86,0,0,1,.68-.41.29.29,0,0,1,.24.12.32.32,0,0,1,0,.27A1,1,0,0,1,31,17Z"/></g></g></svg>