<svg xmlns="http://www.w3.org/2000/svg" viewBox="0 0 38.55 24.66"><defs><style>.cls-1{isolation:isolate;}.cls-2{opacity:0.15;}.cls-2,.cls-3{mix-blend-mode:multiply;}.cls-4{fill:#fff;}</style></defs><title>convert-FIX-SVG-03</title><g class="cls-1"><g id="Layer_1" data-name="Layer 1"><g class="cls-2"><path d="M28.47,12.29c-.14-.11-.25-.22-.37-.3a.9.9,0,0,0-.22-.06l-.58-.14v5.46a2.59,2.59,0,0,0-1.81-.83,10.42,10.42,0,0,0-3.25,0c-1.61.23-3.21.51-4.82.75a7.12,7.12,0,0,1-2.48.06l-.21-.05c-.45-.14-.48-.19-.48-.66V10.47a3.75,3.75,0,0,1-2.62,0c0,.22-.07.44-.11.66a4.38,4.38,0,0,1-.58,1.35.58.58,0,0,0,0,.57,3.51,3.51,0,0,1,.25,1,1,1,0,0,1-1.09,1,2.54,2.54,0,0,1-1.24-.55.65.65,0,0,1-.21-.73,1.55,1.55,0,0,1,.07-.23L8,13.29a.19.19,0,0,0-.13,0,4.67,4.67,0,0,1-1.39.2l-.31,0a8,8,0,0,1-.24,1.07,1.16,1.16,0,0,1-1.5.75A2.22,2.22,0,0,1,3,12.65a1.62,1.62,0,0,1,.7-.9c.63-.36,1.27-.71,1.91-1,.34-.17.67-.25.69-.75a4,4,0,0,1,.28-.9c.09-.36.15-.72.23-1.09a1.55,1.55,0,0,1,1-1.15,6.09,6.09,0,0,1-.33-.9A2.33,2.33,0,0,1,8,4.05a1.27,1.27,0,0,0,.27-.53,2,2,0,0,1,.91-1.27,1,1,0,0,1,.38-.11c.1,0,.2,0,.29,0a.91.91,0,0,1,.88.39.29.29,0,0,0,.22.12,2.43,2.43,0,0,1,1.3.51.28.28,0,0,0,.23,0,1.05,1.05,0,0,1,1.15.33,1.31,1.31,0,0,1,.17,1.36.72.72,0,0,1-.14.24c-.36.3-.21.72-.27,1.09,0,0,0,.08,0,.12a1.11,1.11,0,0,1-.16,1.5l-.06.07.17,0,.91.18V7a3.55,3.55,0,0,0,2.2.85,13,13,0,0,0,4.08-.23c1.29-.23,2.57-.49,3.86-.71a5.3,5.3,0,0,1,2.1,0l.17,0c.61.18.65.23.65.87V9.86l2.63-.11,0-.07-.14-.13a2.13,2.13,0,0,1-.65-1.41A1.59,1.59,0,0,1,30.62,6.5a.64.64,0,0,0,.29-.13,2.73,2.73,0,0,1,1.41-.77.29.29,0,0,0,.25-.2A.61.61,0,0,1,33.24,5a.72.72,0,0,1,.67.49.25.25,0,0,0,.16.16L35.21,6a1.1,1.1,0,0,1,.75.85c.09.43.18.86.25,1.3a2.87,2.87,0,0,1-.81,2.64,4.07,4.07,0,0,1-.65.43.21.21,0,0,0-.14.24A9.51,9.51,0,0,1,34,15.59a.8.8,0,0,1-.11.25,3.33,3.33,0,0,0-.41,1.88,12.55,12.55,0,0,1-.5,3.44l-.09.26a1.9,1.9,0,0,1-2,1.32,2.19,2.19,0,0,1-2.16-1.17,1,1,0,0,0-.41-.45.69.69,0,0,1-.29-1,6.13,6.13,0,0,1,.5-.67,3.66,3.66,0,0,0,.38-.5,2.54,2.54,0,0,0,.19-2,3.3,3.3,0,0,0-.55-1.24,3.54,3.54,0,0,1-.26-.41,4.7,4.7,0,0,0-.38-.5A.88.88,0,0,1,28,13.36a.73.73,0,0,0,.16-.23C28.27,12.84,28.37,12.55,28.47,12.29Zm4.78,5.19c0-.18,0-.36,0-.53a2.05,2.05,0,0,0-.37-1.36,1,1,0,0,0-1.12-.34,7,7,0,0,1-.93.18c-.39.06-.57.18-.65.55a2.37,2.37,0,0,0-.05.75,4.68,4.68,0,0,0,.2.8,1.65,1.65,0,0,1-.88,2.16.91.91,0,0,0-.33.26,1.39,1.39,0,0,0,.23,2,2.42,2.42,0,0,0,2.08.42,1.31,1.31,0,0,0,1-.78,8.24,8.24,0,0,0,.41-1.18A13.45,13.45,0,0,0,33.25,17.48Zm2.62-9.59L35.8,8a2.18,2.18,0,0,1-.94,1,.43.43,0,0,1-.69-.25.89.89,0,0,1,0-.78.28.28,0,0,0,0-.18c0-.25-.07-.51-.1-.77-.17,0-.32-.1-.32-.28,0-.33.2-.52.49-.66a7.19,7.19,0,0,0-1.27-.22,2.48,2.48,0,0,0-1.86.66.24.24,0,0,0-.07.34,2.47,2.47,0,0,1,.22.59,2,2,0,0,1-.24,1.53c-.18.27-.37.53-.55.81a5.48,5.48,0,0,0,2.71,1.44,2.18,2.18,0,0,0,2.25-.89A2.85,2.85,0,0,0,35.87,7.89Zm-5.66,7.34a5.14,5.14,0,0,0,2.92-.93,2.19,2.19,0,0,0,.95-1.23c.25-1-.18-1.64-1.24-1.62a3,3,0,0,0-1.7.72,3.83,3.83,0,0,1-1.31.65,3.29,3.29,0,0,0-1.57.78.77.77,0,0,0,.12,1.23,1.21,1.21,0,0,0,.52.22C29.33,15.13,29.77,15.17,30.21,15.23Zm-22-11A2.08,2.08,0,0,0,7.72,6a1.72,1.72,0,0,0,.9,1.12.68.68,0,0,0,.51.09,2,2,0,0,1,1.66,0A1.61,1.61,0,0,1,13,5.78c.42-1-1-2.92-2-2.82,0,.14,0,.33-.07.38a.57.57,0,0,1-.47.13.48.48,0,0,0-.52.09,2.39,2.39,0,0,0-.79.7,1.09,1.09,0,0,1-.55.36C8.42,4.71,8.3,4.58,8.16,4.24ZM5.25,13.42a1.52,1.52,0,0,1,.2-.06l1.3-.16c.28,0,.58,0,.86-.1s.4-.31.24-.61L7.08,11c-.14-.26-.28-.38-.58-.32a3,3,0,0,0-.75.26c-.65.33-1.31.65-1.93,1a1.39,1.39,0,0,0-.64,1.48,2.4,2.4,0,0,0,.42,1,1.45,1.45,0,0,0,1.32.62c.58,0,1.08-.91.87-1.54l-.45.08c0-.05,0-.09-.07-.13S5.26,13.46,5.25,13.42Zm2.89-.35a2.13,2.13,0,0,0,2-.25,3.17,3.17,0,0,0,1.11-1.92,4.75,4.75,0,0,0,0-1.64l-.07,0a3.77,3.77,0,0,1-2.71,1,1.74,1.74,0,0,1-1.68-1l0,0-.38,1.19c.6-.06.83.27,1,.71s.41.8.63,1.19A.79.79,0,0,1,8.14,13.07Zm.38-5.66-.19-.14a.56.56,0,0,0-.84,0A1.41,1.41,0,0,0,7,8.23c-.09.88.21,1.53,1.07,1.72A2.27,2.27,0,0,0,10,9.64,9.1,9.1,0,0,0,10.84,9a1,1,0,0,0,.29-1.08,1,1,0,0,0-.86-.64,1.71,1.71,0,0,0-.92.14c-.32.12-.64.21-1,.32C8.34,7.58,8.29,7.44,8.52,7.41Zm3.08,1c0,.2-.06.39-.06.58s.07.6.08.9a.28.28,0,0,0,.19.29,2.15,2.15,0,0,0,1.14.21l.5-.05a1,1,0,0,1-.5-1.2,1.46,1.46,0,0,1,.36-.54c.27-.29.61-.13.94-.11a.24.24,0,0,0-.14-.11L13,8.17a.22.22,0,0,0-.14,0A1.78,1.78,0,0,1,11.6,8.44ZM30.33,9.59a3.41,3.41,0,0,1,.43-.66,1.86,1.86,0,0,0,.08-2.07.2.2,0,0,0-.16-.09,1.37,1.37,0,0,0-.84.39.45.45,0,0,1-.09.7c-.21.14-.17.32-.16.53l.26-.12.18.28a2,2,0,0,0-.3.2.22.22,0,0,0,0,.17A1.59,1.59,0,0,0,30.33,9.59ZM13.26,6.78,13,6.16s0,0,0,0a.87.87,0,0,0-.82-.23,1.79,1.79,0,0,0-1,.82.71.71,0,0,0,.07.89c.1.14.18.29.27.43a.32.32,0,0,0,.08.12A1,1,0,0,0,12.5,8c-.35.29-.51,0-.78-.24.18,0,.33-.13.42-.09s.29,0,.4-.11a.23.23,0,0,0,.05-.33s-.05-.11-.08-.15a.5.5,0,0,1,0-.59C12.73,6.67,13.09,6.44,13.26,6.78ZM28.48,13c.41-.15.81-.33,1.22-.45a3.37,3.37,0,0,0,1.14-.52l-.21-.91-.26.34a3,3,0,0,1,.16-.61c0-.12,0-.19-.1-.2a.53.53,0,0,0-.28,0c-.12.08-.21.21-.33.29A4.27,4.27,0,0,0,28.48,13Zm1.6-3H30L28,10.1a5.09,5.09,0,0,0-.56,0,.3.3,0,0,0-.18.15c0,.12,0,.17.15.2a1.75,1.75,0,0,1,.89.72,1,1,0,0,1,.2.77.58.58,0,0,0,.19-.15l.74-.91A2.05,2.05,0,0,0,30.08,10ZM10.32,13a1.77,1.77,0,0,1-1.2.46.49.49,0,0,0-.14,0,.53.53,0,0,0,0,.74,3.93,3.93,0,0,0,.95.45.71.71,0,0,0,.93-.73,5.93,5.93,0,0,0-.19-.81C10.53,13.18,10.38,13.27,10.32,13Zm8.86-1.74a3.34,3.34,0,0,1,0-1.18,13.07,13.07,0,0,1,1,1s0,.13.05.19h.6a6,6,0,0,1,0-1.85h-.53a5.78,5.78,0,0,1,.05,1.19c-.35-.36-.67-.67-1-1,0,0,0-.13-.07-.2h-.58a12.7,12.7,0,0,1,0,1.85Zm10.11,5.33a1.2,1.2,0,0,1,.06.24,2.7,2.7,0,0,1,.1,1.41,2.88,2.88,0,0,1-.84,1.51,1.57,1.57,0,0,0-.36.51.44.44,0,0,0,.26.62,1.74,1.74,0,0,1,1.07-1.59,1.15,1.15,0,0,0,.61-1,5.31,5.31,0,0,0-.29-1.37s-.06-.06-.09-.08Zm-12.1-5.28A1.23,1.23,0,0,0,18,11.1a1,1,0,0,0,0-1.49,1.31,1.31,0,0,0-1.5,0,1,1,0,0,0-.3,1.06A1,1,0,0,0,17.19,11.33Zm3,2.1-.4.07a.92.92,0,0,0-.7.83.91.91,0,0,0,.6,1,1.35,1.35,0,0,0,.95,0,.91.91,0,0,0,.62-.64A1,1,0,0,0,20.17,13.43ZM34.08,6.62l0,0a1.9,1.9,0,0,1,.25,0c.4,0,.59.16.55.57A1.41,1.41,0,0,1,34.5,8a.54.54,0,0,0,0,.66.25.25,0,0,0,.22,0,1.81,1.81,0,0,0,1-1.18,1,1,0,0,0-.3-1.11.93.93,0,0,0-1.07-.06A1,1,0,0,0,34.08,6.62Zm-11,6.88a.8.8,0,0,1,.07.24c0,.29,0,.58,0,.87s-.15.44-.49.45-.52-.12-.54-.44,0-.52,0-.78a2.11,2.11,0,0,1,.05-.35h-.56a2.15,2.15,0,0,1,.05.34c0,.33,0,.66,0,1a.52.52,0,0,0,.41.5,1.86,1.86,0,0,0,1,0,.52.52,0,0,0,.44-.55c0-.32,0-.65,0-1,0-.11,0-.21.05-.32ZM32.51,15a1.64,1.64,0,0,1,1,1.14,7.49,7.49,0,0,0,.79-2.69A3.85,3.85,0,0,1,32.51,15ZM10.69,3.22l.06-.1a5.13,5.13,0,0,0-.45-.57.72.72,0,0,0-.86-.16,1.7,1.7,0,0,0-1,1.46,3.27,3.27,0,0,0,.05.53c.43-.14.48-.23.51-.61a1.39,1.39,0,0,1,.16-.56A.67.67,0,0,1,10.24,3a1.24,1.24,0,0,0,.18.14A2.18,2.18,0,0,0,10.69,3.22Zm6.37,10.27.64.86c.25.32.14.66.09,1h.56a1.18,1.18,0,0,1,.09-1l.63-.83h-.72c.1.16,0,.38-.29.63,0-.23-.4-.32-.24-.64Zm5.67-4.06c.19.24.36.5.57.73a1.16,1.16,0,0,1,.16,1.12H24a1.15,1.15,0,0,1,.11-1c.21-.26.41-.53.61-.8H24c.13.32-.18.42-.28.63-.07-.23-.42-.32-.27-.63Zm-1.45,1.86h1.27c.14,0,.27,0,.41.06v-.47a5,5,0,0,1-1.22.07c0-.53,0-1,0-1.52h-.51C21.29,10.05,21.29,10.67,21.28,11.29Zm8.53,5.28.26-1.08-1.46-.18A3,3,0,0,0,29.81,16.57ZM13.31,5.07a1.11,1.11,0,0,0,.08-1.34.72.72,0,0,0-.83-.24l.17.24c.12.16.2.36.42.44a.34.34,0,0,1,.13.31A.8.8,0,0,0,13.31,5.07ZM31,10.6c-.17.18-.15.37.05.57.38.36.71.41,1,.13Zm2.68-5a.52.52,0,0,0-.53-.27,1,1,0,0,0-.32.16l0,.06ZM12.85,7.71l.05,0A.74.74,0,0,0,13.27,7Zm21.47,3.71-.32.06.37.53ZM31,11.49l.09.38.25-.17Z"/><path d="M5.77,19.58a3.34,3.34,0,0,1,.62-.19,1.16,1.16,0,0,1,1.2,1.15,1.13,1.13,0,0,1-.75,1.18A4.86,4.86,0,0,1,5.29,22a.63.63,0,0,0-.6.36c-.13-.4-.25-.81-.42-1.21a3.41,3.41,0,0,0-.46-.78,1,1,0,0,1,.56-1.65,1.09,1.09,0,0,1,1.35.71Z"/><path d="M25.45,19.33a1,1,0,0,1,.84-.22.92.92,0,0,1,.55,1.35.83.83,0,0,1-.41.3,4.15,4.15,0,0,0-1.68.92.6.6,0,0,0-.24-.63,11.3,11.3,0,0,1-.79-.9.83.83,0,0,1,0-1,1,1,0,0,1,1.05-.44A.88.88,0,0,1,25.45,19.33Z"/><path d="M9.81,17.23l0-.11a.86.86,0,0,1,1.27-.46A.93.93,0,0,1,11.57,18a6,6,0,0,1-.81.94.66.66,0,0,0-.24.65,4.11,4.11,0,0,0-1.72-.94.72.72,0,0,1-.49-.84A.87.87,0,0,1,9,17,.9.9,0,0,1,9.81,17.23Z"/><path d="M31.2,4.75a2.72,2.72,0,0,0-.51-1.16.59.59,0,0,1-.08-.74.72.72,0,0,1,.71-.37.7.7,0,0,1,.59.53s0,0,0,.06L32,3a.66.66,0,0,1,1,.35.71.71,0,0,1-.34,1,6.08,6.08,0,0,1-.94.21C31.55,4.63,31.38,4.7,31.2,4.75Z"/><path d="M22.33,17.48c0-.25,0-.44,0-.64a.21.21,0,0,1,.13-.16,7.16,7.16,0,0,1,4,.3,1.68,1.68,0,0,1,.5.29.39.39,0,0,1,.13.3.33.33,0,0,1-.28.18,3.23,3.23,0,0,1-.82-.1c-.45-.13-.88-.31-1.33-.44A2.53,2.53,0,0,0,22.33,17.48Z"/><path d="M19.28,6.77v.7c-.27,0-.54.09-.81.11a7.75,7.75,0,0,1-3.21-.32,3.64,3.64,0,0,1-.63-.3.35.35,0,0,1-.13-.26c0-.07.13-.16.21-.19a1.56,1.56,0,0,1,.93.09c.52.17,1,.36,1.55.5A2.32,2.32,0,0,0,19.28,6.77Z"/><path d="M18.73,4.3l-.39-.08a4.68,4.68,0,0,1-.54-.1.49.49,0,0,1-.34-.68.48.48,0,0,1,.69-.31l.06,0c0-.06.05-.12.08-.17A.48.48,0,0,1,19,2.82a.44.44,0,0,1,.15.65C19,3.74,18.85,4,18.73,4.3Z"/><path d="M5.2,4.72c.19-.42.5-.54.8-.32A.46.46,0,0,1,6.12,5c-.15.28-.28.57-.4.84L5.3,5.78c-.15,0-.31,0-.45-.07A.51.51,0,0,1,4.46,5C4.57,4.67,4.82,4.57,5.2,4.72Z"/><path d="M14.52,21.06c.41-.34.79-.13.87.19a.43.43,0,0,1-.22.53c-.28.17-.53.36-.7.47a2.37,2.37,0,0,1-.34-.19,2.58,2.58,0,0,1-.41-.33.51.51,0,0,1,0-.81C14,20.69,14.27,20.74,14.52,21.06Z"/><path d="M18.86,19.5c.18-.42.5-.53.8-.29a.44.44,0,0,1,.11.6c-.15.28-.28.57-.41.84l-.44-.08-.36-.05c-.39-.1-.57-.36-.47-.69S18.43,19.36,18.86,19.5Z"/><path d="M4.09,8.35c.46-.12.75.09.71.51a.41.41,0,0,1-.38.39l-1,.17c0-.09-.09-.21-.15-.33a4.81,4.81,0,0,1-.25-.51.51.51,0,0,1,.35-.68.48.48,0,0,1,.66.37Z"/><path d="M35.36,20.36l-.42-.08a5.35,5.35,0,0,1-.55-.11.45.45,0,0,1-.32-.45.5.5,0,0,1,.3-.53,1.32,1.32,0,0,1,.49,0,.61.61,0,0,0,0-.11.47.47,0,0,1,.68-.2.45.45,0,0,1,.16.67C35.61,19.81,35.49,20.09,35.36,20.36Z"/><path d="M4.3,16.45c.18-.43.55-.54.85-.26a.42.42,0,0,1,.07.55c-.15.29-.29.59-.43.87a1.82,1.82,0,0,0-.34-.09c-.15,0-.31,0-.46-.06a.54.54,0,0,1-.45-.72C3.65,16.41,3.9,16.31,4.3,16.45Z"/><path d="M28.86,5.41c.16-.39.48-.52.78-.3a.42.42,0,0,1,.13.59c-.13.29-.25.59-.37.87l-.47-.07a4.17,4.17,0,0,1-.51-.09A.45.45,0,0,1,28.09,6a.51.51,0,0,1,.28-.54A1.58,1.58,0,0,1,28.86,5.41Z"/><path d="M23.17,6.08,23,5.76a2.85,2.85,0,0,1-.26-.41A.52.52,0,0,1,23,4.57c.32-.13.56,0,.7.38a1.67,1.67,0,0,1,.31,0,.47.47,0,0,1,.45.47.44.44,0,0,1-.41.48Z"/><path d="M14.11,18.15c.49-.13.81.11.73.56a.41.41,0,0,1-.31.33l-1,.23L13.37,19c-.07-.12-.16-.23-.23-.35a.55.55,0,0,1,.23-.82C13.7,17.63,13.94,17.75,14.11,18.15Z"/><path d="M31.35,16.55a.46.46,0,0,1,.41-.5.49.49,0,0,1,0,1A.45.45,0,0,1,31.35,16.55Z"/><path d="M32.11,7.64c0,.27-.18.51-.33.5s-.2-.1-.21-.23.17-.45.33-.42S32.07,7.61,32.11,7.64Z"/><path d="M33.52,12.55a.53.53,0,0,1-.46.54.34.34,0,0,1-.33-.39.52.52,0,0,1,.45-.53A.34.34,0,0,1,33.52,12.55Z"/><path d="M11.07,5.73c0,.21-.11.35-.28.35s-.28-.14-.28-.35a.29.29,0,1,1,.56,0Z"/><path d="M6.91,12.38s-.1.14-.19.15-.4-.23-.4-.46,0-.23.18-.23S6.9,12.08,6.91,12.38Z"/><path d="M7.6,8a5,5,0,0,1-.18.51.23.23,0,0,1-.2.1c-.06,0-.16-.11-.15-.16a3.33,3.33,0,0,1,.16-.64s.17-.09.21-.07A1.28,1.28,0,0,1,7.6,8Z"/><path d="M16.61,10.36a.64.64,0,1,1,.64.63A.61.61,0,0,1,16.61,10.36Z"/><path d="M20.18,15.06a.63.63,0,0,1-.65-.63.64.64,0,0,1,1.28,0A.63.63,0,0,1,20.18,15.06Z"/><path d="M28.67,12.48a4.28,4.28,0,0,0-.38-.29.71.71,0,0,0-.22-.06L27.5,12v5.46a2.59,2.59,0,0,0-1.81-.83,10.42,10.42,0,0,0-3.25,0c-1.61.23-3.21.51-4.82.75a7.12,7.12,0,0,1-2.48.06l-.21-.05c-.45-.14-.49-.19-.49-.66,0-1.94,0-3.87,0-5.81v-.27a3.69,3.69,0,0,1-2.62,0c0,.23-.07.45-.12.67a4.13,4.13,0,0,1-.57,1.35.58.58,0,0,0-.05.57,3.51,3.51,0,0,1,.25,1,1,1,0,0,1-1.09,1A2.54,2.54,0,0,1,9,14.65a.67.67,0,0,1-.22-.73c0-.08.05-.16.07-.23l-.67-.2a.17.17,0,0,0-.12,0,5,5,0,0,1-1.39.2l-.31,0a8,8,0,0,1-.25,1.07,1.14,1.14,0,0,1-1.49.75,2.21,2.21,0,0,1-1.46-2.69,1.59,1.59,0,0,1,.7-.9c.62-.37,1.27-.71,1.91-1,.34-.17.67-.25.68-.75a4.7,4.7,0,0,1,.29-.9c.09-.36.15-.73.23-1.09A1.59,1.59,0,0,1,8,7a5.55,5.55,0,0,1-.32-.89,2.33,2.33,0,0,1,.52-1.88,1.37,1.37,0,0,0,.27-.54,2,2,0,0,1,.91-1.26,1,1,0,0,1,.38-.11c.09,0,.2,0,.29,0a.91.91,0,0,1,.88.39.32.32,0,0,0,.22.12,2.46,2.46,0,0,1,1.3.51.36.36,0,0,0,.23.05,1.06,1.06,0,0,1,1.15.33,1.31,1.31,0,0,1,.16,1.36.48.48,0,0,1-.13.23c-.36.3-.21.73-.27,1.1,0,0,0,.08,0,.12a1.11,1.11,0,0,1-.17,1.5l-.05.07.17.05.91.18V7.15a3.51,3.51,0,0,0,2.2.86,13,13,0,0,0,4.08-.23c1.29-.23,2.57-.49,3.86-.71a5.3,5.3,0,0,1,2.1,0l.17,0c.61.19.65.24.65.87v2.06l2.63-.1,0-.07L30,9.74a2.11,2.11,0,0,1-.65-1.4A1.58,1.58,0,0,1,30.81,6.7a.55.55,0,0,0,.29-.13,2.81,2.81,0,0,1,1.41-.77.29.29,0,0,0,.26-.2.61.61,0,0,1,.67-.38.72.72,0,0,1,.67.49.26.26,0,0,0,.15.16l1.15.37a1.09,1.09,0,0,1,.74.85c.1.43.19.86.25,1.3A2.85,2.85,0,0,1,35.59,11a3.08,3.08,0,0,1-.64.42.22.22,0,0,0-.14.25,9.67,9.67,0,0,1-.58,4.09,1.89,1.89,0,0,1-.11.25,3.33,3.33,0,0,0-.41,1.88,12.55,12.55,0,0,1-.5,3.44l-.09.26a1.92,1.92,0,0,1-2,1.32,2.18,2.18,0,0,1-2.15-1.17,1,1,0,0,0-.41-.45.69.69,0,0,1-.29-1,4.49,4.49,0,0,1,.5-.67,2.94,2.94,0,0,0,.37-.5,2.5,2.5,0,0,0,.2-2,3.17,3.17,0,0,0-.56-1.24c-.1-.12-.16-.28-.26-.41a4.62,4.62,0,0,0-.37-.5.89.89,0,0,1,.08-1.44.76.76,0,0,0,.17-.23C28.47,13,28.57,12.75,28.67,12.48Zm4.78,5.2c0-.18,0-.36,0-.53a2.05,2.05,0,0,0-.37-1.36A1.06,1.06,0,0,0,32,15.44a7,7,0,0,1-.93.19c-.39.06-.57.18-.65.55a2.35,2.35,0,0,0-.05.75,4.68,4.68,0,0,0,.2.8,1.64,1.64,0,0,1-.88,2.15,1.06,1.06,0,0,0-.33.26,1.39,1.39,0,0,0,.23,2,2.42,2.42,0,0,0,2.08.43,1.3,1.3,0,0,0,1.05-.79,8.11,8.11,0,0,0,.41-1.17A14.08,14.08,0,0,0,33.45,17.68Zm2.62-9.6a.58.58,0,0,0-.07.11,2.26,2.26,0,0,1-1,1,.44.44,0,0,1-.69-.25.89.89,0,0,1,0-.78.28.28,0,0,0,0-.18c0-.25-.07-.51-.11-.77-.16,0-.31-.1-.32-.28a.71.71,0,0,1,.5-.66A6.38,6.38,0,0,0,33.25,6a2.48,2.48,0,0,0-1.86.66.24.24,0,0,0-.07.34,2.08,2.08,0,0,1,.21.59,1.93,1.93,0,0,1-.23,1.52c-.18.28-.37.54-.55.82a5.49,5.49,0,0,0,2.7,1.44,2.19,2.19,0,0,0,2.26-.89A2.86,2.86,0,0,0,36.07,8.08Zm-5.66,7.35a5.08,5.08,0,0,0,2.92-.94,2.18,2.18,0,0,0,1-1.22c.25-1-.18-1.64-1.24-1.62a2.92,2.92,0,0,0-1.7.72A3.79,3.79,0,0,1,30,13a3.38,3.38,0,0,0-1.57.78A.78.78,0,0,0,28.57,15a1.48,1.48,0,0,0,.52.22C29.53,15.33,30,15.37,30.41,15.43Zm-22-11a2.08,2.08,0,0,0-.44,1.77,1.69,1.69,0,0,0,.89,1.11.68.68,0,0,0,.52.1,1.91,1.91,0,0,1,1.65,0A1.61,1.61,0,0,1,13.24,6c.42-1-1-2.92-2-2.82,0,.14,0,.33-.06.38a.65.65,0,0,1-.47.13.48.48,0,0,0-.52.09,2.38,2.38,0,0,0-.79.69,1.12,1.12,0,0,1-.55.37C8.62,4.9,8.5,4.78,8.36,4.44ZM5.45,13.62a1.52,1.52,0,0,1,.2-.06L7,13.39a6,6,0,0,0,.85-.1c.35-.08.41-.3.25-.61-.27-.48-.52-1-.77-1.47-.14-.26-.29-.38-.58-.32a2.78,2.78,0,0,0-.75.26c-.65.32-1.31.65-1.93,1a1.37,1.37,0,0,0-.64,1.48,2.28,2.28,0,0,0,.42,1,1.47,1.47,0,0,0,1.32.62A1.24,1.24,0,0,0,6,13.77l-.45.08-.07-.13S5.46,13.66,5.45,13.62Zm2.89-.35a2.1,2.1,0,0,0,2-.26,3.15,3.15,0,0,0,1.11-1.91,4.75,4.75,0,0,0,0-1.64l-.07,0a3.72,3.72,0,0,1-2.71,1A1.71,1.71,0,0,1,7,9.47l0-.05-.38,1.19c.6-.06.83.27,1,.71s.41.8.63,1.19A.81.81,0,0,1,8.34,13.27Zm.38-5.66-.19-.14a.56.56,0,0,0-.84,0,1.41,1.41,0,0,0-.48.93c-.09.89.21,1.54,1.07,1.73a2.27,2.27,0,0,0,1.89-.31A10.56,10.56,0,0,0,11,9.22a1,1,0,0,0,.28-1.08,1,1,0,0,0-.85-.65,1.81,1.81,0,0,0-.92.15c-.32.12-.64.21-1,.32C8.54,7.78,8.48,7.64,8.72,7.61Zm3.08,1a4,4,0,0,0-.06.57c0,.31.06.61.08.91a.29.29,0,0,0,.18.29,2.19,2.19,0,0,0,1.15.21c.17,0,.34,0,.5-.06a1,1,0,0,1-.5-1.2,1.51,1.51,0,0,1,.36-.53c.27-.29.61-.13.94-.11a.24.24,0,0,0-.14-.11l-1.13-.24a.22.22,0,0,0-.14,0A1.83,1.83,0,0,1,11.8,8.64ZM30.52,9.78A4.7,4.7,0,0,1,31,9.12,1.83,1.83,0,0,0,31,7.06.19.19,0,0,0,30.88,7a1.37,1.37,0,0,0-.84.39.46.46,0,0,1-.09.7c-.21.14-.17.32-.16.53l.26-.12.18.28a2,2,0,0,0-.3.2.18.18,0,0,0,0,.17A1.61,1.61,0,0,0,30.52,9.78ZM13.46,7l-.22-.61s0,0-.05-.05a.86.86,0,0,0-.81-.22,1.79,1.79,0,0,0-1,.82.72.72,0,0,0,.06.89,5.08,5.08,0,0,1,.27.43.54.54,0,0,0,.09.12,1,1,0,0,0,.89-.17c-.36.28-.51,0-.78-.24.18,0,.33-.13.42-.09s.29,0,.4-.11a.24.24,0,0,0,0-.34s0-.1-.08-.15a.47.47,0,0,1,0-.58C12.93,6.87,13.28,6.64,13.46,7Zm15.22,6.25c.41-.16.81-.33,1.22-.45A3.58,3.58,0,0,0,31,12.25l-.21-.91-.26.34a2.38,2.38,0,0,1,.16-.61c0-.12,0-.19-.1-.2a.38.38,0,0,0-.28,0c-.12.08-.21.2-.33.29A4.22,4.22,0,0,0,28.68,13.22Zm1.6-3h-.1l-1.94.12c-.19,0-.38,0-.56.05a.3.3,0,0,0-.18.15c0,.12,0,.17.15.2a1.75,1.75,0,0,1,.89.72,1,1,0,0,1,.2.77.58.58,0,0,0,.19-.15c.25-.3.49-.61.74-.92A2,2,0,0,0,30.28,10.18Zm-19.76,3a1.79,1.79,0,0,1-1.2.46.29.29,0,0,0-.14,0,.52.52,0,0,0,0,.74,3.76,3.76,0,0,0,1,.45.72.72,0,0,0,.93-.73,5.6,5.6,0,0,0-.19-.81C10.73,13.38,10.57,13.46,10.52,13.22Zm8.86-1.74a3.59,3.59,0,0,1,0-1.18,11.56,11.56,0,0,1,1,1s0,.12,0,.19H21a6,6,0,0,1,0-1.85h-.53a5.78,5.78,0,0,1,.05,1.19l-1-1s0-.13-.06-.2h-.58a12.7,12.7,0,0,1,0,1.85Zm10.11,5.33c0,.09.05.16.06.23a2.74,2.74,0,0,1,.09,1.42A2.84,2.84,0,0,1,28.81,20a1.47,1.47,0,0,0-.36.51c-.13.27,0,.48.26.61a1.74,1.74,0,0,1,1.07-1.58,1.15,1.15,0,0,0,.61-1,5.39,5.39,0,0,0-.29-1.38s-.06-.05-.09-.07Zm-12.1-5.28a1.23,1.23,0,0,0,.81-.23,1,1,0,0,0,0-1.49,1.33,1.33,0,0,0-1.5,0,.94.94,0,0,0-.3,1.07A1,1,0,0,0,17.39,11.53Zm3,2.1a2.79,2.79,0,0,0-.4.07,1,1,0,0,0-.1,1.81,1.3,1.3,0,0,0,.95,0,.89.89,0,0,0,.62-.64A1,1,0,0,0,20.37,13.63Zm13.9-6.82,0,.05a2,2,0,0,1,.24,0c.41,0,.6.16.56.56a1.56,1.56,0,0,1-.42.84.51.51,0,0,0,0,.65.22.22,0,0,0,.22,0,1.81,1.81,0,0,0,1-1.18,1,1,0,0,0-.3-1.11.93.93,0,0,0-1.07-.06A1.25,1.25,0,0,0,34.27,6.81Zm-11,6.88a1.36,1.36,0,0,1,.07.25v.86c0,.32-.15.45-.49.45s-.53-.11-.54-.43,0-.52,0-.79a2.15,2.15,0,0,1,.05-.34h-.56c0,.12,0,.23,0,.34,0,.33,0,.66,0,1a.5.5,0,0,0,.41.5,1.69,1.69,0,0,0,1,0,.51.51,0,0,0,.44-.54c0-.32,0-.65,0-1a2,2,0,0,1,.05-.33Zm9.45,1.5a1.59,1.59,0,0,1,1,1.14,7.49,7.49,0,0,0,.79-2.69A3.93,3.93,0,0,1,32.7,15.19ZM10.89,3.42,11,3.31a6.26,6.26,0,0,0-.45-.57.72.72,0,0,0-.86-.15,1.7,1.7,0,0,0-1,1.46,4.91,4.91,0,0,0,0,.53c.44-.14.49-.23.52-.61a1.39,1.39,0,0,1,.16-.56.68.68,0,0,1,1.08-.25,1.3,1.3,0,0,0,.18.15A2.18,2.18,0,0,0,10.89,3.42Zm6.36,10.27c.22.29.44.57.65.86a1.21,1.21,0,0,1,.09,1h.56a1.18,1.18,0,0,1,.09-1l.63-.83h-.72c.1.16,0,.38-.29.62-.06-.22-.4-.32-.24-.63Zm5.68-4.06c.19.24.36.5.56.72a1.18,1.18,0,0,1,.17,1.13h.57a1.15,1.15,0,0,1,.11-1.05c.21-.26.41-.54.61-.8h-.71c.13.32-.19.42-.28.63-.08-.23-.42-.32-.27-.63Zm-1.46,1.86h1.27a3,3,0,0,1,.42.06v-.47a5,5,0,0,1-1.22.07c0-.53,0-1,0-1.52h-.5C21.49,10.25,21.49,10.86,21.47,11.49ZM30,16.77l.25-1.08-1.46-.18A3.19,3.19,0,0,0,30,16.77ZM13.51,5.27a1.11,1.11,0,0,0,.08-1.34.73.73,0,0,0-.84-.24l.18.24c.12.16.19.36.42.44a.34.34,0,0,1,.12.31A.86.86,0,0,0,13.51,5.27Zm17.66,5.52c-.16.19-.15.37.06.58.38.36.7.41,1,.13Zm2.69-5a.55.55,0,0,0-.53-.28c-.11,0-.21.11-.32.17l0,0ZM13.05,7.91l0,0a.74.74,0,0,0,.37-.74Zm21.47,3.7-.33.07.38.53Zm-3.33.08.09.38.25-.18Z"/><path d="M6,19.78a3.34,3.34,0,0,1,.62-.19,1.16,1.16,0,0,1,1.2,1.15A1.13,1.13,0,0,1,7,21.91a4.88,4.88,0,0,1-1.56.28.61.61,0,0,0-.59.36c-.14-.4-.25-.81-.42-1.21A3.41,3.41,0,0,0,4,20.56a1,1,0,0,1,.56-1.65,1.1,1.1,0,0,1,1.35.7A1.54,1.54,0,0,1,6,19.78Z"/><path d="M25.65,19.53a1,1,0,0,1,.84-.22A.92.92,0,0,1,27,20.66a.83.83,0,0,1-.41.3,4.15,4.15,0,0,0-1.68.92.64.64,0,0,0-.24-.63,11.3,11.3,0,0,1-.79-.9.83.83,0,0,1,0-1A1,1,0,0,1,25,18.87C25.35,18.93,25.52,19.2,25.65,19.53Z"/><path d="M10,17.42a.93.93,0,0,0,.05-.1.85.85,0,0,1,1.26-.46.93.93,0,0,1,.45,1.33,6.5,6.5,0,0,1-.81.94.64.64,0,0,0-.24.65A4.11,4.11,0,0,0,9,18.84.72.72,0,0,1,8.51,18a.86.86,0,0,1,.65-.79A.92.92,0,0,1,10,17.42Z"/><path d="M31.39,5a2.7,2.7,0,0,0-.5-1.16.59.59,0,0,1-.08-.74.7.7,0,0,1,1.3.16s0,0,0,.06l.11,0a.66.66,0,0,1,1,.35.71.71,0,0,1-.34,1,7.51,7.51,0,0,1-.94.21C31.75,4.83,31.58,4.89,31.39,5Z"/><path d="M22.53,17.68c0-.25,0-.45,0-.64a.2.2,0,0,1,.13-.16,7.21,7.21,0,0,1,4,.29,1.85,1.85,0,0,1,.51.3A.26.26,0,0,1,27,18a3.32,3.32,0,0,1-.83-.11c-.44-.12-.87-.3-1.32-.43A2.5,2.5,0,0,0,22.53,17.68Z"/><path d="M19.48,7v.7c-.27,0-.54.09-.81.11a7.92,7.92,0,0,1-3.21-.32,3.68,3.68,0,0,1-.63-.31.31.31,0,0,1-.13-.25c0-.08.13-.17.21-.19a1.42,1.42,0,0,1,.93.09c.52.17,1,.36,1.55.49A2.29,2.29,0,0,0,19.48,7Z"/><path d="M18.92,4.5l-.38-.09A3.2,3.2,0,0,1,18,4.32a.49.49,0,0,1-.34-.68.48.48,0,0,1,.69-.31l.06,0c0-.06.05-.12.08-.17A.48.48,0,0,1,19.16,3a.45.45,0,0,1,.16.66C19.17,3.94,19.05,4.23,18.92,4.5Z"/><path d="M5.4,4.92c.19-.42.5-.54.79-.32a.44.44,0,0,1,.13.61c-.15.29-.28.58-.4.85L5.5,6c-.15,0-.31,0-.45-.07a.53.53,0,0,1-.4-.71C4.77,4.87,5,4.77,5.4,4.92Z"/><path d="M14.72,21.26c.41-.34.79-.13.87.19a.44.44,0,0,1-.22.53,7,7,0,0,0-.7.47l-.34-.19a2.58,2.58,0,0,1-.41-.33.51.51,0,0,1,0-.81C14.21,20.89,14.47,20.94,14.72,21.26Z"/><path d="M19.06,19.7c.18-.42.5-.53.8-.29A.44.44,0,0,1,20,20c-.15.28-.28.57-.41.84l-.44-.09c-.12,0-.24,0-.36-.05-.39-.09-.57-.35-.47-.68S18.63,19.56,19.06,19.7Z"/><path d="M4.29,8.55c.46-.13.75.09.71.51a.42.42,0,0,1-.38.39l-1,.17c0-.09-.09-.21-.15-.33a4.81,4.81,0,0,1-.25-.51.51.51,0,0,1,.35-.68.48.48,0,0,1,.66.37Z"/><path d="M35.56,20.55l-.42-.08a3.33,3.33,0,0,1-.55-.1.45.45,0,0,1-.32-.45.5.5,0,0,1,.3-.53,1.32,1.32,0,0,1,.49,0,.61.61,0,0,0,0-.11.47.47,0,0,1,.68-.2.45.45,0,0,1,.16.67C35.8,20,35.69,20.29,35.56,20.55Z"/><path d="M4.5,16.65c.18-.44.55-.55.85-.26a.42.42,0,0,1,.07.55c-.16.29-.29.59-.43.87a2.06,2.06,0,0,0-.34-.09c-.15,0-.31,0-.46-.06a.54.54,0,0,1-.45-.72C3.84,16.61,4.1,16.51,4.5,16.65Z"/><path d="M29.06,5.61c.16-.4.48-.52.78-.3A.43.43,0,0,1,30,5.9c-.14.29-.25.59-.37.87l-.47-.07a4.71,4.71,0,0,1-.52-.09.49.49,0,0,1-.33-.45.51.51,0,0,1,.29-.54A1.58,1.58,0,0,1,29.06,5.61Z"/><path d="M23.37,6.28c-.05-.09-.1-.21-.17-.32S23,5.7,23,5.55a.52.52,0,0,1,.26-.78c.33-.13.57,0,.71.38a1,1,0,0,1,.3-.05.45.45,0,0,1,.45.47c0,.27-.12.42-.4.48Z"/><path d="M14.31,18.35c.49-.13.8.11.73.56a.4.4,0,0,1-.32.33l-1,.23-.18-.32c-.07-.12-.16-.23-.23-.36-.18-.37-.09-.67.23-.81S14.14,18,14.31,18.35Z"/><path d="M31.54,16.75a.47.47,0,0,1,.41-.5.46.46,0,0,1,.45.49.47.47,0,0,1-.43.49A.47.47,0,0,1,31.54,16.75Z"/><path d="M32.31,7.84c0,.27-.18.5-.33.5s-.21-.1-.21-.24.17-.44.33-.41S32.27,7.8,32.31,7.84Z"/><path d="M33.71,12.75a.52.52,0,0,1-.46.54.35.35,0,0,1-.32-.39.52.52,0,0,1,.45-.53A.34.34,0,0,1,33.71,12.75Z"/><path d="M11.27,5.93c0,.21-.11.35-.28.35s-.28-.14-.28-.35A.31.31,0,0,1,11,5.58C11.15,5.57,11.27,5.73,11.27,5.93Z"/><path d="M7.11,12.58s-.1.13-.19.15-.4-.23-.4-.46,0-.23.18-.23S7.1,12.28,7.11,12.58Z"/><path d="M7.8,8.2c-.07.18-.11.35-.18.51a.23.23,0,0,1-.2.1c-.06,0-.16-.12-.15-.17A3,3,0,0,1,7.43,8a.22.22,0,0,1,.21-.06A1.05,1.05,0,0,1,7.8,8.2Z"/><path d="M16.81,10.56a.64.64,0,1,1,1.27,0,.62.62,0,0,1-.63.63A.61.61,0,0,1,16.81,10.56Z"/><path d="M20.38,15.25a.6.6,0,0,1-.65-.62.61.61,0,0,1,.63-.64.63.63,0,1,1,0,1.26Z"/></g><g class="cls-3"><path d="M28.33,12.14a4.28,4.28,0,0,0-.38-.29.71.71,0,0,0-.22-.06l-.57-.14v5.46a2.59,2.59,0,0,0-1.81-.83,10.42,10.42,0,0,0-3.25,0c-1.61.23-3.21.51-4.82.75a7.12,7.12,0,0,1-2.48.06l-.21-.05c-.45-.14-.49-.19-.49-.66,0-1.94,0-3.87,0-5.81v-.27a3.69,3.69,0,0,1-2.62,0c0,.23-.07.45-.12.67a4,4,0,0,1-.58,1.35.6.6,0,0,0,0,.57,3.51,3.51,0,0,1,.25,1,1,1,0,0,1-1.09,1,2.54,2.54,0,0,1-1.24-.55.67.67,0,0,1-.22-.73c0-.08.05-.16.07-.23l-.67-.2a.17.17,0,0,0-.12,0,5,5,0,0,1-1.39.2l-.31,0a8,8,0,0,1-.25,1.07,1.14,1.14,0,0,1-1.49.75,2.21,2.21,0,0,1-1.46-2.69,1.59,1.59,0,0,1,.7-.9c.62-.37,1.27-.71,1.91-1,.34-.17.67-.25.68-.75a4.7,4.7,0,0,1,.29-.9c.09-.36.15-.73.23-1.09a1.59,1.59,0,0,1,1-1.16,5.55,5.55,0,0,1-.32-.89,2.33,2.33,0,0,1,.52-1.88,1.37,1.37,0,0,0,.27-.54A2,2,0,0,1,9,2.11,1,1,0,0,1,9.37,2c.09,0,.2,0,.29,0a.9.9,0,0,1,.88.39.32.32,0,0,0,.22.12,2.46,2.46,0,0,1,1.3.51.36.36,0,0,0,.23,0,1.06,1.06,0,0,1,1.15.33,1.31,1.31,0,0,1,.16,1.36.48.48,0,0,1-.13.23c-.36.3-.21.73-.27,1.1,0,0,0,.08,0,.12a1.11,1.11,0,0,1-.17,1.5L13,7.78l.17,0L14.1,8V6.81a3.51,3.51,0,0,0,2.2.86,13,13,0,0,0,4.08-.23c1.29-.23,2.57-.5,3.86-.71a5.3,5.3,0,0,1,2.1,0l.17,0c.61.19.65.24.65.87V9.71l2.63-.1,0-.07-.13-.14A2.11,2.11,0,0,1,29,8a1.58,1.58,0,0,1,1.44-1.64.55.55,0,0,0,.29-.13,2.81,2.81,0,0,1,1.41-.77.29.29,0,0,0,.26-.2.61.61,0,0,1,.67-.38.72.72,0,0,1,.67.49.26.26,0,0,0,.15.16l1.15.37a1.09,1.09,0,0,1,.74.85c.1.43.19.86.25,1.3a2.85,2.85,0,0,1-.81,2.64,2.9,2.9,0,0,1-.65.42.22.22,0,0,0-.13.24,9.69,9.69,0,0,1-.58,4.1,1.89,1.89,0,0,1-.11.25,3.31,3.31,0,0,0-.41,1.88,12.55,12.55,0,0,1-.5,3.44l-.09.26a1.92,1.92,0,0,1-2,1.32,2.18,2.18,0,0,1-2.15-1.17,1,1,0,0,0-.41-.45.7.7,0,0,1-.3-1,5.39,5.39,0,0,1,.51-.67,2.94,2.94,0,0,0,.37-.5,2.5,2.5,0,0,0,.2-2,3.17,3.17,0,0,0-.56-1.24c-.1-.12-.16-.28-.26-.41a4.62,4.62,0,0,0-.37-.5.89.89,0,0,1,.08-1.44A.76.76,0,0,0,28,13C28.13,12.7,28.23,12.41,28.33,12.14Zm4.78,5.2c0-.18,0-.36,0-.53a2.05,2.05,0,0,0-.37-1.36,1.06,1.06,0,0,0-1.12-.35,7,7,0,0,1-.93.19c-.39.06-.57.18-.65.55a2.35,2.35,0,0,0-.05.75,4.68,4.68,0,0,0,.2.8,1.64,1.64,0,0,1-.88,2.15,1.06,1.06,0,0,0-.33.26,1.39,1.39,0,0,0,.23,2,2.42,2.42,0,0,0,2.08.43,1.3,1.3,0,0,0,1-.79,8.11,8.11,0,0,0,.41-1.17A14.08,14.08,0,0,0,33.11,17.34Zm2.62-9.6a.58.58,0,0,0-.07.11,2.26,2.26,0,0,1-.95,1A.44.44,0,0,1,34,8.56a.89.89,0,0,1,0-.78.28.28,0,0,0,0-.18c0-.25-.07-.51-.11-.77-.16,0-.31-.1-.32-.28a.71.71,0,0,1,.5-.66,6.38,6.38,0,0,0-1.27-.22,2.48,2.48,0,0,0-1.86.66.24.24,0,0,0-.07.34,2.08,2.08,0,0,1,.21.59A1.93,1.93,0,0,1,31,8.78c-.18.28-.37.54-.55.82A5.49,5.49,0,0,0,33.11,11a2.19,2.19,0,0,0,2.26-.89A2.86,2.86,0,0,0,35.73,7.74Zm-5.66,7.35A5.08,5.08,0,0,0,33,14.15a2.18,2.18,0,0,0,.95-1.22c.25-1-.18-1.64-1.24-1.62A2.92,2.92,0,0,0,31,12a3.79,3.79,0,0,1-1.32.65,3.38,3.38,0,0,0-1.57.78.78.78,0,0,0,.12,1.23,1.48,1.48,0,0,0,.52.22C29.19,15,29.63,15,30.07,15.09ZM8,4.1a2.08,2.08,0,0,0-.44,1.77A1.69,1.69,0,0,0,8.47,7a.67.67,0,0,0,.52.1,1.91,1.91,0,0,1,1.65,0,1.61,1.61,0,0,1,2.26-1.4c.42-.95-1-2.92-2-2.82,0,.14,0,.33-.06.38a.65.65,0,0,1-.47.13.48.48,0,0,0-.52.09A2.38,2.38,0,0,0,9,4.11a1.12,1.12,0,0,1-.55.37C8.28,4.56,8.16,4.44,8,4.1ZM5.11,13.28a1.52,1.52,0,0,1,.2-.06l1.3-.17a6,6,0,0,0,.85-.1c.35-.08.41-.3.25-.61-.27-.48-.52-1-.77-1.47-.14-.26-.29-.38-.58-.32a3.15,3.15,0,0,0-.75.25c-.65.33-1.31.66-1.93,1A1.37,1.37,0,0,0,3,13.32a2.28,2.28,0,0,0,.42,1A1.47,1.47,0,0,0,4.77,15a1.24,1.24,0,0,0,.88-1.54l-.45.08-.07-.13S5.12,13.32,5.11,13.28ZM8,12.93a2.1,2.1,0,0,0,2-.26,3.15,3.15,0,0,0,1.11-1.91,4.75,4.75,0,0,0,0-1.64l-.07,0a3.72,3.72,0,0,1-2.71,1,1.71,1.71,0,0,1-1.68-1,.12.12,0,0,0,0-.05l-.38,1.19c.6-.06.83.27,1,.71s.41.8.63,1.19A.81.81,0,0,1,8,12.93Zm.38-5.66-.19-.14a.56.56,0,0,0-.84,0,1.41,1.41,0,0,0-.48.93c-.09.88.21,1.54,1.07,1.73A2.27,2.27,0,0,0,9.83,9.5a10.56,10.56,0,0,0,.87-.62A1,1,0,0,0,11,7.8a1,1,0,0,0-.85-.65,1.81,1.81,0,0,0-.92.15c-.32.12-.64.21-1,.32C8.2,7.44,8.14,7.3,8.38,7.27Zm3.08,1a4,4,0,0,0-.06.57c0,.31.06.61.08.91a.29.29,0,0,0,.18.29,2.19,2.19,0,0,0,1.15.21c.17,0,.34,0,.5-.06a1,1,0,0,1-.5-1.2,1.51,1.51,0,0,1,.36-.53c.27-.29.61-.13.94-.11A.24.24,0,0,0,14,8.27L12.84,8a.26.26,0,0,0-.15,0A1.79,1.79,0,0,1,11.46,8.3ZM30.18,9.44a4.7,4.7,0,0,1,.43-.66,1.83,1.83,0,0,0,.09-2.06.19.19,0,0,0-.16-.09A1.34,1.34,0,0,0,29.7,7a.46.46,0,0,1-.09.7c-.21.14-.17.32-.16.53l.26-.12.18.28a2,2,0,0,0-.3.2.18.18,0,0,0,0,.17A1.61,1.61,0,0,0,30.18,9.44ZM13.12,6.63,12.9,6l-.05,0A.86.86,0,0,0,12,5.75a1.79,1.79,0,0,0-1,.82.72.72,0,0,0,.06.89,3.87,3.87,0,0,1,.27.43.54.54,0,0,0,.09.12,1,1,0,0,0,.89-.17c-.36.28-.51,0-.78-.24.18,0,.33-.13.42-.09s.29,0,.4-.11a.24.24,0,0,0,0-.34s0-.1-.08-.15a.47.47,0,0,1,0-.58C12.59,6.53,12.94,6.3,13.12,6.63Zm15.22,6.25c.41-.16.8-.33,1.22-.45a3.58,3.58,0,0,0,1.14-.52L30.49,11l-.26.34a2.38,2.38,0,0,1,.16-.61c0-.12,0-.19-.1-.2a.38.38,0,0,0-.28,0c-.12.08-.21.2-.33.29A4.22,4.22,0,0,0,28.34,12.88Zm1.6-3h-.1L27.9,10c-.19,0-.38,0-.56.05a.3.3,0,0,0-.18.15c0,.12,0,.17.15.2a1.75,1.75,0,0,1,.89.72,1,1,0,0,1,.2.77.58.58,0,0,0,.19-.15c.25-.3.49-.61.74-.92A2,2,0,0,0,29.94,9.84Zm-19.76,3a1.81,1.81,0,0,1-1.2.46.29.29,0,0,0-.14,0,.52.52,0,0,0,0,.74,3.76,3.76,0,0,0,1,.45.72.72,0,0,0,.93-.73,5.6,5.6,0,0,0-.19-.81C10.39,13,10.23,13.12,10.18,12.88ZM19,11.14A3.59,3.59,0,0,1,19,10a11.56,11.56,0,0,1,1,1s0,.12,0,.19h.6a6,6,0,0,1,0-1.85h-.53a5.78,5.78,0,0,1,.05,1.19l-1-1s0-.13-.06-.2h-.58a12.7,12.7,0,0,1,0,1.85Zm10.11,5.33c0,.09.05.16.06.23a2.74,2.74,0,0,1,.09,1.42,2.77,2.77,0,0,1-.83,1.5,1.61,1.61,0,0,0-.36.52c-.13.27,0,.48.26.61a1.73,1.73,0,0,1,1.07-1.58,1.15,1.15,0,0,0,.61-1,5.39,5.39,0,0,0-.29-1.38s-.06-.05-.09-.07Zm-12.1-5.28a1.23,1.23,0,0,0,.81-.23,1,1,0,0,0,0-1.49,1.33,1.33,0,0,0-1.5,0,.94.94,0,0,0-.3,1.07A1,1,0,0,0,17.05,11.19Zm3,2.1a2.79,2.79,0,0,0-.4.07,1,1,0,0,0-.1,1.81,1.3,1.3,0,0,0,.95,0,.89.89,0,0,0,.62-.64A1,1,0,0,0,20,13.29Zm13.9-6.82,0,0,.24,0c.41,0,.6.16.56.56a1.56,1.56,0,0,1-.42.84.51.51,0,0,0,0,.65.22.22,0,0,0,.22.05,1.81,1.81,0,0,0,1-1.18,1,1,0,0,0-.3-1.11.93.93,0,0,0-1.07-.06A1.25,1.25,0,0,0,33.93,6.47Zm-11,6.88a1.36,1.36,0,0,1,.07.25v.86c0,.32-.15.45-.49.45S22,14.8,22,14.48s0-.53,0-.79a2.15,2.15,0,0,1,.05-.34h-.56c0,.12,0,.23,0,.34,0,.33,0,.66,0,1a.5.5,0,0,0,.41.5,1.69,1.69,0,0,0,1,0,.51.51,0,0,0,.44-.54c0-.32,0-.65,0-1a2,2,0,0,1,.05-.33Zm9.45,1.5a1.59,1.59,0,0,1,1,1.14,7.28,7.28,0,0,0,.78-2.69A3.85,3.85,0,0,1,32.36,14.85ZM10.55,3.08,10.61,3a6.26,6.26,0,0,0-.45-.57.72.72,0,0,0-.86-.15,1.7,1.7,0,0,0-1,1.46,4.91,4.91,0,0,0,0,.53c.44-.14.49-.23.52-.61A1.39,1.39,0,0,1,9,3.07a.68.68,0,0,1,1.08-.25,1.3,1.3,0,0,0,.18.15A2.18,2.18,0,0,0,10.55,3.08Zm6.36,10.27c.22.29.44.57.65.86a1.17,1.17,0,0,1,.08,1h.57a1.18,1.18,0,0,1,.09-1l.63-.83h-.72c.1.16,0,.38-.29.62-.06-.22-.4-.32-.24-.63Zm5.68-4.06c.19.24.36.5.56.72a1.18,1.18,0,0,1,.17,1.13h.57A1.15,1.15,0,0,1,24,10.09c.21-.26.41-.54.61-.8H23.9c.13.32-.19.42-.28.63-.08-.23-.42-.32-.27-.63Zm-1.46,1.86H22.4a3,3,0,0,1,.42.06v-.47a5,5,0,0,1-1.22.07c0-.53,0-1,0-1.52h-.5C21.15,9.91,21.15,10.52,21.13,11.15Zm8.54,5.28.25-1.08-1.46-.19A3.09,3.09,0,0,0,29.67,16.43ZM13.17,4.93a1.11,1.11,0,0,0,.08-1.34.73.73,0,0,0-.84-.24l.18.24c.12.16.19.36.42.44a.34.34,0,0,1,.12.31A.86.86,0,0,0,13.17,4.93Zm17.66,5.52c-.16.19-.15.37.06.58.38.36.7.41,1,.13Zm2.69-5A.55.55,0,0,0,33,5.15c-.11,0-.21.11-.32.17l0,0ZM12.71,7.57l0,0a.74.74,0,0,0,.37-.74Zm21.47,3.7-.33.07.38.53Zm-3.33.08.09.38.25-.18Z"/><path d="M5.63,19.44a3.34,3.34,0,0,1,.62-.19,1.16,1.16,0,0,1,1.2,1.15,1.14,1.14,0,0,1-.75,1.17,4.88,4.88,0,0,1-1.56.28.61.61,0,0,0-.59.36c-.14-.4-.25-.81-.42-1.21a3.41,3.41,0,0,0-.46-.78,1,1,0,0,1,.56-1.65,1.1,1.1,0,0,1,1.35.7A1.54,1.54,0,0,1,5.63,19.44Z"/><path d="M25.31,19.19a1,1,0,0,1,.84-.22.92.92,0,0,1,.55,1.35.83.83,0,0,1-.41.3,4.15,4.15,0,0,0-1.68.92.64.64,0,0,0-.24-.63,11.3,11.3,0,0,1-.79-.9.84.84,0,0,1,0-1.05,1,1,0,0,1,1.05-.43C25,18.59,25.18,18.86,25.31,19.19Z"/><path d="M9.67,17.08a.93.93,0,0,0,.05-.1A.85.85,0,0,1,11,16.52a.93.93,0,0,1,.45,1.33,6.5,6.5,0,0,1-.81.94.64.64,0,0,0-.24.65,4.09,4.09,0,0,0-1.73-.94.73.73,0,0,1-.48-.84.86.86,0,0,1,.65-.79A.92.92,0,0,1,9.67,17.08Z"/><path d="M31.05,4.61a2.7,2.7,0,0,0-.5-1.16.59.59,0,0,1-.08-.74.68.68,0,0,1,.71-.37.69.69,0,0,1,.59.53s0,0,0,.06l.11-.05a.66.66,0,0,1,1,.35.71.71,0,0,1-.34,1,7.51,7.51,0,0,1-.94.21C31.41,4.49,31.24,4.55,31.05,4.61Z"/><path d="M22.19,17.34c0-.25,0-.45,0-.64a.2.2,0,0,1,.13-.16,7.21,7.21,0,0,1,4,.29,1.85,1.85,0,0,1,.51.3.26.26,0,0,1-.15.48,3.32,3.32,0,0,1-.83-.11c-.44-.12-.87-.3-1.32-.43A2.5,2.5,0,0,0,22.19,17.34Z"/><path d="M19.14,6.63v.7c-.27,0-.54.09-.81.11a7.92,7.92,0,0,1-3.21-.32,3.68,3.68,0,0,1-.63-.31.31.31,0,0,1-.13-.25.29.29,0,0,1,.21-.19,1.42,1.42,0,0,1,.93.09c.52.17,1,.36,1.55.49A2.29,2.29,0,0,0,19.14,6.63Z"/><path d="M18.58,4.16l-.39-.09A3.26,3.26,0,0,1,17.66,4a.49.49,0,0,1-.34-.68A.48.48,0,0,1,18,3l.06,0c0-.06.05-.12.08-.17a.47.47,0,0,1,.67-.17.45.45,0,0,1,.16.66C18.83,3.6,18.71,3.89,18.58,4.16Z"/><path d="M5.06,4.58c.19-.42.5-.54.79-.32A.44.44,0,0,1,6,4.87c-.15.29-.28.58-.4.85l-.42-.08c-.15,0-.31,0-.45-.07a.53.53,0,0,1-.4-.71C4.43,4.53,4.67,4.43,5.06,4.58Z"/><path d="M14.38,20.92c.41-.34.79-.13.87.19a.42.42,0,0,1-.22.52c-.28.17-.54.36-.7.48L14,21.92a2.2,2.2,0,0,1-.41-.33.51.51,0,0,1,0-.81C13.87,20.55,14.13,20.6,14.38,20.92Z"/><path d="M18.72,19.36c.18-.42.5-.53.8-.29a.44.44,0,0,1,.11.6c-.15.28-.28.57-.41.84l-.44-.09c-.12,0-.24,0-.36-.05-.39-.09-.57-.35-.47-.68S18.29,19.22,18.72,19.36Z"/><path d="M4,8.21c.46-.13.75.09.71.51a.42.42,0,0,1-.38.39l-1,.17c0-.09-.09-.21-.15-.33a4.81,4.81,0,0,1-.25-.51.51.51,0,0,1,.35-.68.48.48,0,0,1,.66.37Z"/><path d="M35.22,20.21l-.42-.08a3.33,3.33,0,0,1-.55-.1.45.45,0,0,1-.32-.45.5.5,0,0,1,.3-.53,1.32,1.32,0,0,1,.49,0,.61.61,0,0,0,.05-.11.47.47,0,0,1,.68-.2.45.45,0,0,1,.16.67C35.46,19.66,35.35,20,35.22,20.21Z"/><path d="M4.16,16.31c.18-.44.55-.55.85-.26a.42.42,0,0,1,.07.55c-.16.29-.29.59-.43.87a2.06,2.06,0,0,0-.34-.09c-.15,0-.31,0-.46-.06a.54.54,0,0,1-.45-.72C3.5,16.27,3.76,16.17,4.16,16.31Z"/><path d="M28.72,5.27c.16-.4.48-.52.78-.3a.43.43,0,0,1,.13.59c-.14.29-.25.59-.37.87l-.47-.07a4.71,4.71,0,0,1-.52-.09.49.49,0,0,1-.33-.45.51.51,0,0,1,.29-.54A1.58,1.58,0,0,1,28.72,5.27Z"/><path d="M23,5.94c-.05-.09-.1-.21-.17-.32s-.18-.26-.25-.41a.52.52,0,0,1,.26-.78c.33-.13.57,0,.71.38a1,1,0,0,1,.3,0,.45.45,0,0,1,.45.47.43.43,0,0,1-.4.48Z"/><path d="M14,18c.49-.13.8.11.73.55a.38.38,0,0,1-.32.33l-1,.24-.18-.32c-.07-.12-.16-.23-.23-.36-.18-.37-.09-.67.23-.81S13.8,17.61,14,18Z"/><path d="M31.2,16.41a.47.47,0,0,1,.41-.5.46.46,0,0,1,.45.49.47.47,0,0,1-.43.49A.47.47,0,0,1,31.2,16.41Z"/><path d="M32,7.5c0,.27-.18.5-.33.5s-.21-.1-.21-.24.17-.44.33-.41S31.92,7.46,32,7.5Z"/><path d="M33.37,12.41a.52.52,0,0,1-.46.54.35.35,0,0,1-.32-.39A.52.52,0,0,1,33,12,.34.34,0,0,1,33.37,12.41Z"/><path d="M10.93,5.59c0,.21-.11.35-.28.35s-.28-.14-.28-.35a.31.31,0,0,1,.28-.35C10.81,5.23,10.93,5.39,10.93,5.59Z"/><path d="M6.77,12.24s-.11.13-.19.15-.4-.23-.4-.46,0-.23.18-.23S6.76,11.94,6.77,12.24Z"/><path d="M7.46,7.86c-.07.18-.11.35-.18.51a.23.23,0,0,1-.2.1c-.06,0-.16-.12-.15-.17a3,3,0,0,1,.16-.64A.22.22,0,0,1,7.3,7.6,1.05,1.05,0,0,1,7.46,7.86Z"/><path d="M16.47,10.22a.64.64,0,1,1,1.27,0,.62.62,0,0,1-.63.63A.61.61,0,0,1,16.47,10.22Z"/><path d="M20,14.91a.6.6,0,0,1-.65-.62.61.61,0,0,1,.63-.64.63.63,0,1,1,0,1.26Z"/></g><path class="cls-4" d="M28.53,12.34a4.28,4.28,0,0,0-.38-.29.71.71,0,0,0-.22-.06l-.57-.14v5.46a2.59,2.59,0,0,0-1.81-.83,10.73,10.73,0,0,0-3.25,0c-1.61.24-3.21.52-4.82.76a7.18,7.18,0,0,1-2.49.06l-.2-.05c-.45-.14-.49-.19-.49-.66V10.53a3.67,3.67,0,0,1-2.61,0c0,.23-.07.45-.12.67A4,4,0,0,1,11,12.51a.58.58,0,0,0,0,.57,3.35,3.35,0,0,1,.25,1,1,1,0,0,1-1.09,1,2.54,2.54,0,0,1-1.24-.55.67.67,0,0,1-.22-.73c0-.08,0-.16.07-.23l-.67-.2a.13.13,0,0,0-.12,0,4.67,4.67,0,0,1-1.39.19l-.31,0A8,8,0,0,1,6,14.65a1.14,1.14,0,0,1-1.49.75A2.21,2.21,0,0,1,3,12.71a1.55,1.55,0,0,1,.7-.9c.62-.37,1.26-.71,1.91-1,.33-.17.67-.26.68-.75a4.7,4.7,0,0,1,.29-.9c.09-.36.15-.73.23-1.09a1.56,1.56,0,0,1,1-1.16A5.55,5.55,0,0,1,7.49,6,2.33,2.33,0,0,1,8,4.11a1.36,1.36,0,0,0,.26-.54A2,2,0,0,1,9.19,2.3a1.12,1.12,0,0,1,.38-.1c.09,0,.19,0,.29,0a.93.93,0,0,1,.88.4.37.37,0,0,0,.22.12,2.42,2.42,0,0,1,1.3.51.34.34,0,0,0,.22,0,1.08,1.08,0,0,1,1.16.33A1.29,1.29,0,0,1,13.8,5a.47.47,0,0,1-.13.24c-.37.3-.21.73-.28,1.1a.22.22,0,0,0,0,.11,1.1,1.1,0,0,1-.17,1.5l0,.08.17,0,.91.18V7a3.5,3.5,0,0,0,2.19.86,13,13,0,0,0,4.08-.23c1.29-.23,2.58-.5,3.87-.72a5.3,5.3,0,0,1,2.1,0l.16,0c.62.19.66.24.66.87s0,1.23,0,1.84v.22L30,9.81l0-.07-.13-.14a2.11,2.11,0,0,1-.65-1.41,1.57,1.57,0,0,1,1.44-1.63A.61.61,0,0,0,31,6.42a2.75,2.75,0,0,1,1.41-.76.3.3,0,0,0,.26-.21.6.6,0,0,1,.67-.37.74.74,0,0,1,.67.49.29.29,0,0,0,.15.16l1.14.37a1.09,1.09,0,0,1,.75.84c.1.44.19.87.25,1.31a2.67,2.67,0,0,1-1.46,3.06.21.21,0,0,0-.13.24,9.64,9.64,0,0,1-.58,4.09,2,2,0,0,1-.11.26,3.23,3.23,0,0,0-.41,1.88,12.55,12.55,0,0,1-.5,3.44,2.5,2.5,0,0,0-.09.25,1.93,1.93,0,0,1-2,1.33,2.2,2.2,0,0,1-2.15-1.17,1.05,1.05,0,0,0-.41-.45.7.7,0,0,1-.3-1,5.39,5.39,0,0,1,.51-.67A3.39,3.39,0,0,0,29,19a2.56,2.56,0,0,0,.2-2,3.13,3.13,0,0,0-.56-1.23c-.1-.12-.17-.28-.26-.41a6,6,0,0,0-.37-.51.87.87,0,0,1,.08-1.43.56.56,0,0,0,.16-.24C28.33,12.9,28.43,12.61,28.53,12.34Zm4.78,5.19,0-.52A2,2,0,0,0,33,15.65a1,1,0,0,0-1.11-.35c-.3.08-.62.14-.93.19s-.57.18-.65.55a2.1,2.1,0,0,0-.05.75,3.66,3.66,0,0,0,.2.79,1.66,1.66,0,0,1-.88,2.16,1.06,1.06,0,0,0-.33.26,1.39,1.39,0,0,0,.23,2,2.38,2.38,0,0,0,2.08.42,1.27,1.27,0,0,0,1.05-.78A8.11,8.11,0,0,0,33,20.51,14.1,14.1,0,0,0,33.31,17.53Zm2.62-9.59a.58.58,0,0,0-.07.11,2.26,2.26,0,0,1-1,1,.44.44,0,0,1-.69-.26A.87.87,0,0,1,34.27,8a.28.28,0,0,0,0-.18c0-.26-.07-.51-.11-.77-.16,0-.31-.1-.32-.28,0-.34.2-.52.5-.67a7.19,7.19,0,0,0-1.27-.22,2.51,2.51,0,0,0-1.86.67.23.23,0,0,0-.07.34,2.08,2.08,0,0,1,.21.59A1.9,1.9,0,0,1,31.15,9c-.17.28-.36.54-.55.81a5.54,5.54,0,0,0,2.71,1.45,2.17,2.17,0,0,0,2.25-.89A2.83,2.83,0,0,0,35.93,7.94Zm-5.66,7.34a5.07,5.07,0,0,0,2.92-.93,2.21,2.21,0,0,0,1-1.23c.25-1-.18-1.63-1.24-1.61a2.83,2.83,0,0,0-1.7.72,3.79,3.79,0,0,1-1.32.65,3.29,3.29,0,0,0-1.57.78.78.78,0,0,0,.12,1.23,1.48,1.48,0,0,0,.52.22C29.39,15.19,29.83,15.23,30.27,15.28ZM8.21,4.3a2.13,2.13,0,0,0-.44,1.77,1.73,1.73,0,0,0,.9,1.11.71.71,0,0,0,.52.1,2,2,0,0,1,1.65,0A1.61,1.61,0,0,1,13.1,5.84c.42-1-1-2.93-2-2.82,0,.14,0,.33-.07.38a.57.57,0,0,1-.46.12.52.52,0,0,0-.53.1,2.45,2.45,0,0,0-.78.69,1.2,1.2,0,0,1-.55.37C8.48,4.76,8.36,4.64,8.21,4.3Zm-2.9,9.18a1.17,1.17,0,0,1,.2-.06l1.29-.17a6.12,6.12,0,0,0,.86-.1c.34-.08.41-.3.25-.61-.27-.49-.52-1-.78-1.47-.13-.27-.28-.38-.57-.32a2.76,2.76,0,0,0-.75.25c-.65.33-1.31.66-1.93,1a1.37,1.37,0,0,0-.64,1.48,2.28,2.28,0,0,0,.42,1A1.46,1.46,0,0,0,5,15.17a1.25,1.25,0,0,0,.88-1.54l-.45.08-.07-.14A.64.64,0,0,1,5.31,13.48Zm2.88-.35a2.12,2.12,0,0,0,2-.26A3.12,3.12,0,0,0,11.33,11a4.31,4.31,0,0,0,0-1.64s0,0-.06,0a3.73,3.73,0,0,1-2.71,1,1.72,1.72,0,0,1-1.68-1l-.05-.05-.38,1.19c.6-.06.83.27,1,.71a11.3,11.3,0,0,0,.63,1.19A.78.78,0,0,1,8.19,13.13Zm.39-5.66-.19-.14a.56.56,0,0,0-.84,0,1.41,1.41,0,0,0-.48.93A1.38,1.38,0,0,0,8.14,10,2.21,2.21,0,0,0,10,9.7a10.72,10.72,0,0,0,.88-.62A1,1,0,0,0,11.18,8a1,1,0,0,0-.85-.64,1.85,1.85,0,0,0-.93.15l-1,.32C8.4,7.64,8.34,7.5,8.58,7.47Zm3.08,1a2.91,2.91,0,0,0-.06.57c0,.3.06.6.07.91a.31.31,0,0,0,.19.29,2.27,2.27,0,0,0,1.15.21c.17,0,.33,0,.5-.06a1,1,0,0,1-.5-1.2,1.51,1.51,0,0,1,.36-.53c.26-.29.61-.13.94-.11a.24.24,0,0,0-.14-.11L13,8.23a.22.22,0,0,0-.14,0A1.8,1.8,0,0,1,11.66,8.5ZM30.38,9.64A4,4,0,0,1,30.81,9a1.85,1.85,0,0,0,.09-2.06.19.19,0,0,0-.16-.09,1.39,1.39,0,0,0-.84.38.46.46,0,0,1-.09.7c-.21.14-.18.33-.16.54l.26-.12.18.27a3,3,0,0,0-.3.21.18.18,0,0,0,0,.17A1.55,1.55,0,0,0,30.38,9.64ZM13.31,6.83c-.07-.22-.14-.42-.21-.61l0,0A.86.86,0,0,0,12.23,6a1.73,1.73,0,0,0-1,.82.72.72,0,0,0,.06.89,3.87,3.87,0,0,1,.27.43s.05.09.09.11A.93.93,0,0,0,12.55,8c-.35.28-.5,0-.77-.24.18,0,.33-.13.42-.09s.29,0,.39-.11a.24.24,0,0,0,.06-.34s-.05-.1-.08-.15a.48.48,0,0,1,0-.59C12.78,6.73,13.14,6.5,13.31,6.83Zm15.23,6.25c.41-.16.8-.33,1.21-.45a3.39,3.39,0,0,0,1.14-.52l-.21-.91-.26.34a2.88,2.88,0,0,1,.17-.61c0-.12,0-.19-.1-.21a.44.44,0,0,0-.28,0,3,3,0,0,0-.33.29A4.22,4.22,0,0,0,28.54,13.08Zm1.6-3H30l-1.94.12a3.66,3.66,0,0,0-.57,0,.28.28,0,0,0-.17.15c0,.11,0,.17.15.2a1.75,1.75,0,0,1,.89.72,1,1,0,0,1,.19.77.53.53,0,0,0,.2-.15c.25-.3.49-.61.74-.92A2.16,2.16,0,0,0,30.14,10Zm-19.76,3a1.86,1.86,0,0,1-1.2.46.21.21,0,0,0-.14,0,.51.51,0,0,0,0,.74,4.27,4.27,0,0,0,.94.45.72.72,0,0,0,.94-.73,7.33,7.33,0,0,0-.19-.81C10.59,13.24,10.43,13.32,10.38,13.08Zm8.85-1.74a4,4,0,0,1,0-1.19,11.66,11.66,0,0,1,1,1s0,.12.05.18h.59a6,6,0,0,1,0-1.84H20.3a5.08,5.08,0,0,1,.06,1.18l-1-1s0-.13-.06-.21h-.58a12.82,12.82,0,0,1,0,1.86Zm10.12,5.33.06.23a2.74,2.74,0,0,1,.09,1.42,2.77,2.77,0,0,1-.83,1.5,1.61,1.61,0,0,0-.36.52c-.13.27,0,.48.26.61a1.74,1.74,0,0,1,1.06-1.58,1.14,1.14,0,0,0,.61-1A5.37,5.37,0,0,0,30,17a.15.15,0,0,0-.1-.07Zm-12.1-5.28a1.18,1.18,0,0,0,.81-.24,1,1,0,0,0,0-1.48,1.31,1.31,0,0,0-1.5,0,.94.94,0,0,0-.3,1.07A1,1,0,0,0,17.25,11.39Zm3,2.1a2.66,2.66,0,0,0-.39.07.91.91,0,0,0-.7.82.92.92,0,0,0,.6,1,1.35,1.35,0,0,0,.95,0,.91.91,0,0,0,.62-.64A1,1,0,0,0,20.22,13.49ZM34.13,6.67l0,0,.24,0c.41,0,.59.15.55.56a1.44,1.44,0,0,1-.42.84.53.53,0,0,0,0,.65.23.23,0,0,0,.21,0,1.85,1.85,0,0,0,1-1.18,1,1,0,0,0-.3-1.12,1,1,0,0,0-1.08,0A1.63,1.63,0,0,0,34.13,6.67Zm-11,6.88a1.29,1.29,0,0,1,.06.25c0,.28,0,.57,0,.86s-.15.45-.49.45-.53-.12-.54-.43,0-.53,0-.79a2.15,2.15,0,0,1,.05-.34h-.57c0,.12.05.23.06.34,0,.33,0,.66,0,1a.5.5,0,0,0,.41.5,1.77,1.77,0,0,0,1,0,.52.52,0,0,0,.44-.54c0-.33,0-.65,0-1a1.88,1.88,0,0,1,0-.33Zm9.45,1.5a1.59,1.59,0,0,1,1,1.14,7.34,7.34,0,0,0,.78-2.69A3.85,3.85,0,0,1,32.56,15.05ZM10.74,3.27l.07-.1a6.26,6.26,0,0,0-.45-.57.72.72,0,0,0-.86-.15,1.7,1.7,0,0,0-1,1.46,5.11,5.11,0,0,0,0,.53c.44-.14.49-.23.51-.61a1.58,1.58,0,0,1,.17-.56A.67.67,0,0,1,10.29,3l.18.15Zm6.37,10.28c.22.29.44.57.65.86s.13.65.08,1h.57a1.18,1.18,0,0,1,.09-1l.63-.83h-.72c.09.16,0,.38-.29.62-.06-.22-.41-.32-.24-.63Zm5.67-4.07c.19.25.37.5.57.73a1.18,1.18,0,0,1,.17,1.13h.57a1.18,1.18,0,0,1,.1-1.05c.22-.26.42-.54.62-.8H24.1c.13.31-.19.42-.29.62-.07-.22-.42-.31-.26-.63Zm-1.45,1.87H22.6a3,3,0,0,1,.42.06v-.47a5.58,5.58,0,0,1-1.23.07c0-.53,0-1,0-1.52h-.5C21.35,10.11,21.35,10.72,21.33,11.35Zm8.54,5.28.25-1.09-1.46-.18A3.09,3.09,0,0,0,29.87,16.63ZM13.36,5.13a1.11,1.11,0,0,0,.09-1.34.71.71,0,0,0-.84-.24l.17.24c.13.16.2.36.43.44a.33.33,0,0,1,.12.31A.86.86,0,0,0,13.36,5.13ZM31,10.65c-.16.19-.15.37.06.58.38.36.7.4,1,.13Zm2.68-5a.54.54,0,0,0-.52-.28c-.11,0-.21.11-.32.17l0,.05ZM12.91,7.77l.05,0a.74.74,0,0,0,.37-.74Zm21.47,3.7-.33.07.38.53Zm-3.33.08.08.37.25-.17Z"/><path class="cls-4" d="M5.83,19.64a3.18,3.18,0,0,1,.62-.2,1.17,1.17,0,0,1,1.2,1.16,1.14,1.14,0,0,1-.76,1.17,4.77,4.77,0,0,1-1.55.28.61.61,0,0,0-.59.36c-.14-.4-.26-.82-.42-1.21a3.21,3.21,0,0,0-.46-.78,1,1,0,0,1,.56-1.65,1.1,1.1,0,0,1,1.35.7C5.8,19.53,5.81,19.59,5.83,19.64Z"/><path class="cls-4" d="M25.51,19.39a1,1,0,0,1,.84-.22.92.92,0,0,1,.55,1.34.76.76,0,0,1-.41.3,4.3,4.3,0,0,0-1.68.93.64.64,0,0,0-.24-.63,9.6,9.6,0,0,1-.79-.9.86.86,0,0,1,0-1.05,1,1,0,0,1,1.06-.43C25.21,18.79,25.38,19.06,25.51,19.39Z"/><path class="cls-4" d="M9.87,17.28l.05-.1a.85.85,0,0,1,1.26-.46.93.93,0,0,1,.45,1.33,8,8,0,0,1-.81.94.64.64,0,0,0-.24.65,4.09,4.09,0,0,0-1.73-.94.72.72,0,0,1-.48-.84A.86.86,0,0,1,9,17.07.94.94,0,0,1,9.87,17.28Z"/><path class="cls-4" d="M31.25,4.81a2.79,2.79,0,0,0-.5-1.17.61.61,0,0,1-.09-.74.7.7,0,0,1,.71-.36.69.69,0,0,1,.6.53.17.17,0,0,0,0,.05l.11,0a.66.66,0,0,1,1,.35.71.71,0,0,1-.34,1,7.51,7.51,0,0,1-.94.21A5.34,5.34,0,0,0,31.25,4.81Z"/><path class="cls-4" d="M22.39,17.54c0-.25,0-.45,0-.64a.23.23,0,0,1,.13-.17,7.31,7.31,0,0,1,4,.3,2,2,0,0,1,.51.3.34.34,0,0,1,.12.3.37.37,0,0,1-.27.18,3.32,3.32,0,0,1-.83-.11c-.44-.12-.88-.3-1.32-.43A2.5,2.5,0,0,0,22.39,17.54Z"/><path class="cls-4" d="M19.34,6.83v.69a7.5,7.5,0,0,1-.81.11,7.81,7.81,0,0,1-3.22-.31A4,4,0,0,1,14.69,7a.29.29,0,0,1-.13-.25c0-.08.12-.17.21-.2a1.49,1.49,0,0,1,.93.1c.51.16,1,.35,1.54.49A2.34,2.34,0,0,0,19.34,6.83Z"/><path class="cls-4" d="M18.78,4.36l-.39-.09a4.51,4.51,0,0,1-.53-.09.5.5,0,0,1-.34-.68.47.47,0,0,1,.68-.31l.07,0c0-.06.05-.12.08-.17A.47.47,0,0,1,19,2.87a.44.44,0,0,1,.15.65C19,3.8,18.91,4.09,18.78,4.36Z"/><path class="cls-4" d="M5.25,4.78c.2-.42.5-.54.8-.32a.44.44,0,0,1,.13.61c-.15.29-.28.58-.41.85l-.41-.08a3.69,3.69,0,0,1-.46-.08.52.52,0,0,1-.39-.7C4.63,4.72,4.87,4.63,5.25,4.78Z"/><path class="cls-4" d="M14.58,21.12c.41-.34.79-.13.87.19a.41.41,0,0,1-.23.52c-.27.17-.53.36-.69.48l-.34-.19a2.27,2.27,0,0,1-.42-.33.51.51,0,0,1,0-.81C14.07,20.75,14.33,20.79,14.58,21.12Z"/><path class="cls-4" d="M18.91,19.56c.19-.42.51-.53.81-.3a.45.45,0,0,1,.11.61,9.23,9.23,0,0,0-.41.84L19,20.62c-.12,0-.24,0-.36-.05-.39-.09-.57-.35-.47-.68S18.49,19.42,18.91,19.56Z"/><path class="cls-4" d="M4.15,8.4c.46-.12.75.1.71.52a.43.43,0,0,1-.38.39l-1,.16c0-.08-.08-.2-.14-.32s-.19-.34-.25-.51A.51.51,0,0,1,3.47,8a.48.48,0,0,1,.66.37Z"/><path class="cls-4" d="M35.42,20.41,35,20.33a3.33,3.33,0,0,1-.55-.1.46.46,0,0,1-.33-.45.54.54,0,0,1,.31-.54,1.56,1.56,0,0,1,.49,0,.88.88,0,0,1,0-.1.47.47,0,0,1,.68-.2.44.44,0,0,1,.16.66C35.66,19.86,35.55,20.15,35.42,20.41Z"/><path class="cls-4" d="M4.36,16.51c.18-.44.55-.55.84-.26a.41.41,0,0,1,.08.55c-.16.29-.29.59-.43.86l-.34-.09a3.4,3.4,0,0,1-.46-.06.54.54,0,0,1-.45-.72C3.7,16.46,4,16.36,4.36,16.51Z"/><path class="cls-4" d="M28.92,5.47c.16-.4.48-.52.78-.3a.43.43,0,0,1,.13.59c-.14.29-.26.59-.38.86L29,6.56a4.76,4.76,0,0,1-.52-.1A.45.45,0,0,1,28.14,6a.51.51,0,0,1,.29-.54A1.57,1.57,0,0,1,28.92,5.47Z"/><path class="cls-4" d="M23.23,6.14c-.05-.09-.1-.21-.17-.32s-.18-.26-.25-.41a.53.53,0,0,1,.26-.79c.33-.12.57,0,.71.39a1,1,0,0,1,.3,0,.45.45,0,0,1,.45.47.43.43,0,0,1-.4.48Z"/><path class="cls-4" d="M14.16,18.21c.5-.14.81.11.73.55a.37.37,0,0,1-.31.33l-1,.24c0-.09-.11-.21-.18-.32s-.17-.23-.23-.36a.55.55,0,0,1,.23-.82C13.76,17.69,14,17.81,14.16,18.21Z"/><path class="cls-4" d="M31.4,16.61a.46.46,0,0,1,.41-.5.49.49,0,0,1,0,1A.47.47,0,0,1,31.4,16.61Z"/><path class="cls-4" d="M32.17,7.7c0,.27-.18.5-.34.5s-.2-.1-.2-.24.17-.44.33-.42S32.12,7.66,32.17,7.7Z"/><path class="cls-4" d="M33.57,12.61a.51.51,0,0,1-.46.53.35.35,0,0,1-.33-.39.52.52,0,0,1,.46-.52A.34.34,0,0,1,33.57,12.61Z"/><path class="cls-4" d="M11.13,5.79c0,.2-.11.35-.28.35s-.28-.14-.28-.35a.33.33,0,0,1,.28-.36C11,5.43,11.13,5.58,11.13,5.79Z"/><path class="cls-4" d="M7,12.44s-.11.13-.19.15-.4-.24-.41-.46,0-.23.18-.24S7,12.13,7,12.44Z"/><path class="cls-4" d="M7.65,8.05a5.3,5.3,0,0,1-.17.52.27.27,0,0,1-.21.1s-.15-.12-.14-.17a3.71,3.71,0,0,1,.15-.64s.18-.09.21-.06A.72.72,0,0,1,7.65,8.05Z"/><path class="cls-4" d="M16.67,10.41a.64.64,0,1,1,1.27,0,.62.62,0,0,1-.63.63A.61.61,0,0,1,16.67,10.41Z"/><path class="cls-4" d="M20.24,15.11a.63.63,0,1,1,0-1.26.61.61,0,0,1,.64.63A.6.6,0,0,1,20.24,15.11Z"/></g></g></svg>