<svg xmlns="http://www.w3.org/2000/svg" viewBox="0 0 38.55 24.66"><defs><style>.cls-1{isolation:isolate;}.cls-2{opacity:0.15;}.cls-2,.cls-3{mix-blend-mode:multiply;}.cls-4{fill:#fff;}</style></defs><title>convert-FIX-SVG-03</title><g class="cls-1"><g id="Layer_1" data-name="Layer 1"><g class="cls-2"><path d="M24.48,21.93c.05-.05.09-.13.15-.16a.47.47,0,0,0,.33-.46c0-1.43,0-2.86,0-4.28,0,0,0,0,0-.06l-3,5-2.84-5c0,.1,0,.15,0,.2v4.07a.51.51,0,0,0,.33.55c.06,0,.09.1.16.2H16.89c0-.08.06-.18.11-.19.32-.1.36-.34.36-.63V16.39c0-.45,0-.9,0-1.35a.51.51,0,0,0-.34-.55c-.06,0-.08-.12-.15-.22h1.37a1.88,1.88,0,0,1-.77-2A2.55,2.55,0,0,1,19,10.61a1.88,1.88,0,0,1-.7-1.32l-.15.08a4.78,4.78,0,0,1-2.46.74A5.65,5.65,0,0,1,13,9.69a3.85,3.85,0,0,1-2.31-4.17,3.61,3.61,0,0,1,2.34-3,5.49,5.49,0,0,1,4.44,0,3.77,3.77,0,0,1,2.35,4.07c0,.38-.15.76-.23,1.16a3.46,3.46,0,0,1,1.75-.07V3A.52.52,0,0,0,21,2.46c-.06,0-.09-.11-.16-.21h2.8c0,.11,0,.18-.11.22a.44.44,0,0,0-.33.48c0,1.38,0,2.77,0,4.15a1.38,1.38,0,0,0,1.22,1.46,3.72,3.72,0,0,0,2-.05,1.32,1.32,0,0,0,1-1.3c0-1.06,0-2.12,0-3.18V3a.5.5,0,0,0-.33-.51c-.06,0-.1-.11-.15-.16l0,0h2.63c-.05.09-.08.18-.13.2a.53.53,0,0,0-.36.58c0,1.31,0,2.63,0,3.94a7.23,7.23,0,0,1-.11,1.15,2.19,2.19,0,0,1-1.6,1.7,5.91,5.91,0,0,1-1.72.29H25v1.68l-.07,0s-.1-.08-.12-.13-.15-.17-.28-.1a2,2,0,0,0-1,1.05.28.28,0,0,0,0,.16,1.65,1.65,0,0,0,.89.54.31.31,0,0,0,.37-.16s.09-.06.18-.1v1.18h2.22c.06.13,0,.2-.1.24a.45.45,0,0,0-.31.48v6.29a.47.47,0,0,0,.32.49c.05,0,.08.1.11.15s-.08.07-.12.07h-2.6Zm-9-13A3.09,3.09,0,0,0,16.8,8.7a2.66,2.66,0,0,0,1.65-2.43,2.7,2.7,0,0,0-1.69-2.76,3.55,3.55,0,0,0-1.58-.22,2.81,2.81,0,0,0-2.46,3.94A2.84,2.84,0,0,0,15.49,9Zm7.13,4.85a3.62,3.62,0,0,1-2.79,1,5.66,5.66,0,0,0,.29.72c.61,1.11,1.24,2.22,1.86,3.34l.11.17c.05-.08.09-.14.12-.2.57-1,1.15-2,1.72-3,.13-.23.27-.46.38-.7a2.08,2.08,0,0,0,.09-.46A2.67,2.67,0,0,1,22.62,13.8Zm-2.5-2.56a2.89,2.89,0,0,0-.69.23,1.07,1.07,0,0,0,0,1.92,2,2,0,0,0,2.22-.27.78.78,0,0,0,.16-1A1.76,1.76,0,0,0,20.12,11.24Zm.51-2.67A4.67,4.67,0,0,0,20,8.8a.8.8,0,0,0-.08,1.35,1.34,1.34,0,0,0,1.56-.05A.82.82,0,0,0,21.51,9,1.38,1.38,0,0,0,20.63,8.57ZM22.9,11.7a4,4,0,0,1,1.5-1.59l-1.49-.33a2,2,0,0,1-.83,1Z"/><path d="M34.62,17v2.22c-.09-.07-.18-.09-.2-.15a.52.52,0,0,0-.54-.33H31v1.9h4.76c.31,0,.6,0,.71-.39,0,0,.1,0,.18-.09V22.5c-.1-.08-.18-.12-.21-.18A.47.47,0,0,0,36,22h-7.3l-.05-.06c.05-.06.08-.14.14-.16a.49.49,0,0,0,.32-.51V15a.47.47,0,0,0-.32-.49c-.06,0-.1-.12-.15-.18l.05-.06h7c.29,0,.5-.06.6-.35,0-.05.11-.07.2-.13v2.3c-.1,0-.17,0-.22-.09a.43.43,0,0,0-.46-.33h-4.7l-.06,0v1.66l.16,0c.91,0,1.82,0,2.73,0a.51.51,0,0,0,.54-.33c0-.05.1-.09.16-.13Z"/><path d="M1.79,2.25H5.34l0,0c0,.05-.09.13-.16.17-.33.16-.41.34-.2.65.43.63.88,1.25,1.35,1.91.47-.68.92-1.31,1.35-2,.18-.27.1-.45-.2-.59-.11,0-.19-.09-.13-.23h3.38c-.07.09-.1.18-.15.19a1.62,1.62,0,0,0-.81.62L7.29,6.48a.39.39,0,0,0-.07.23V9.23a.48.48,0,0,0,.31.5c.07,0,.11.1.16.16l0,0H4.84c.08-.1.12-.18.18-.2a.49.49,0,0,0,.33-.51V6.69a.4.4,0,0,0-.07-.21L2.72,3a1.53,1.53,0,0,0-.78-.59C1.89,2.43,1.86,2.34,1.79,2.25Z"/><path d="M15.17,5.16a1.2,1.2,0,0,1,.82-1,1.11,1.11,0,0,1,1.21.28,1,1,0,0,1,.39,1,.88.88,0,0,1-.13.3,5.32,5.32,0,0,0-1.05,2.44c-.22-.5-.64-.47-1-.49A4.16,4.16,0,0,1,14,7.45a1.2,1.2,0,0,1-.81-1.17A1.43,1.43,0,0,1,14,5a1.16,1.16,0,0,1,1,.07Z"/><path d="M24.68,22.13c.05-.05.08-.13.14-.16a.45.45,0,0,0,.33-.46c0-1.43,0-2.86,0-4.28,0,0,0,0,0-.06l-3,5-2.83-5c0,.1,0,.15,0,.2v4.07a.48.48,0,0,0,.33.54c.06,0,.09.11.16.21H17.08c.05-.09.07-.18.11-.19.33-.1.37-.35.37-.64V16.59c0-.45,0-.9,0-1.36a.5.5,0,0,0-.34-.54c-.06,0-.09-.12-.15-.22h1.37a1.88,1.88,0,0,1-.77-2.05,2.55,2.55,0,0,1,1.5-1.61,1.88,1.88,0,0,1-.7-1.32l-.15.08a4.88,4.88,0,0,1-2.46.74,5.63,5.63,0,0,1-2.63-.42,3.85,3.85,0,0,1-2.31-4.17,3.65,3.65,0,0,1,2.33-3,5.56,5.56,0,0,1,4.45,0,3.76,3.76,0,0,1,2.35,4.06c0,.39-.15.77-.23,1.17a3.46,3.46,0,0,1,1.75-.07V6.26c0-1,0-2,0-3a.52.52,0,0,0-.33-.55c-.06,0-.09-.12-.17-.21h2.8c0,.11,0,.18-.1.22a.44.44,0,0,0-.33.48c0,1.38,0,2.77,0,4.15a1.37,1.37,0,0,0,1.22,1.45,3.54,3.54,0,0,0,2-.05,1.31,1.31,0,0,0,1-1.3c0-1.05,0-2.11,0-3.17V3.17a.49.49,0,0,0-.33-.51c-.06,0-.1-.11-.15-.16l0,0H30c-.05.08-.08.18-.14.2a.53.53,0,0,0-.35.58c0,1.31,0,2.62,0,3.94a7.46,7.46,0,0,1-.11,1.15,2.19,2.19,0,0,1-1.6,1.7,6,6,0,0,1-1.72.29h-.83V12l-.07,0s-.1-.08-.12-.13a.18.18,0,0,0-.28-.11,2,2,0,0,0-1,1.06c0,.05,0,.13,0,.15a1.61,1.61,0,0,0,.89.55c.15,0,.29,0,.37-.17s.09-.05.18-.09v1.17h2.21c.07.14,0,.21-.1.25a.45.45,0,0,0-.3.48v6.29a.47.47,0,0,0,.32.49s.07.09.11.14-.08.08-.12.08h-2.6Zm-9-13A3.11,3.11,0,0,0,17,8.9a2.66,2.66,0,0,0,1.65-2.43A2.69,2.69,0,0,0,17,3.71a3.49,3.49,0,0,0-1.57-.22,2.81,2.81,0,0,0-2.46,3.94A2.84,2.84,0,0,0,15.68,9.15ZM22.82,14A3.59,3.59,0,0,1,20,15c.11.28.17.51.28.72.62,1.11,1.25,2.22,1.87,3.34l.11.17.12-.2,1.72-3a8,8,0,0,0,.38-.71,2,2,0,0,0,.09-.45A2.64,2.64,0,0,1,22.82,14Zm-2.5-2.56a3.58,3.58,0,0,0-.69.24,1.07,1.07,0,0,0,0,1.92,2,2,0,0,0,2.22-.27.81.81,0,0,0,.16-1A1.75,1.75,0,0,0,20.32,11.43Zm.51-2.66a4.67,4.67,0,0,0-.66.23.8.8,0,0,0-.08,1.35,1.34,1.34,0,0,0,1.56,0,.82.82,0,0,0,.05-1.14A1.35,1.35,0,0,0,20.83,8.77ZM23.1,11.9a4,4,0,0,1,1.5-1.59L23.11,10a2,2,0,0,1-.83,1Z"/><path d="M34.82,17.16v2.23c-.09-.07-.18-.1-.21-.15a.5.5,0,0,0-.53-.33c-1,0-1.92,0-2.89,0v1.9H36c.31,0,.6,0,.7-.39,0,0,.11-.05.19-.09V22.7c-.1-.08-.18-.12-.21-.18a.46.46,0,0,0-.45-.32H28.87l0-.06c.05-.06.08-.14.14-.17a.47.47,0,0,0,.32-.51V15.2a.49.49,0,0,0-.32-.5c-.06,0-.1-.11-.15-.17l.05-.06h7c.28,0,.5-.06.6-.35,0,0,.11-.07.2-.13v2.3c-.1,0-.18,0-.22-.09a.43.43,0,0,0-.46-.33h-4.7l-.06,0v1.66h2.89a.49.49,0,0,0,.53-.33c0-.06.11-.09.17-.13Z"/><path d="M2,2.44H5.54l0,.05c0,.06-.09.14-.16.17-.33.17-.41.35-.2.66.43.63.88,1.25,1.35,1.91.47-.68.92-1.31,1.35-2,.18-.27.1-.45-.2-.59-.11-.05-.19-.09-.13-.24H11c-.07.1-.1.19-.15.2a1.62,1.62,0,0,0-.81.62L7.49,6.68a.37.37,0,0,0-.07.23c0,.84,0,1.68,0,2.52a.5.5,0,0,0,.32.5.61.61,0,0,1,.16.16l0,.05H5c.08-.1.12-.18.18-.2a.49.49,0,0,0,.33-.51V6.89a.4.4,0,0,0-.07-.21L2.92,3.23a1.55,1.55,0,0,0-.79-.59S2.05,2.54,2,2.44Z"/><path d="M15.37,5.36a1.2,1.2,0,0,1,.82-1,1.12,1.12,0,0,1,1.21.28,1,1,0,0,1,.39,1,.73.73,0,0,1-.14.31,5.49,5.49,0,0,0-1,2.44c-.21-.51-.63-.47-1-.49a4.41,4.41,0,0,1-1.44-.3,1.2,1.2,0,0,1-.81-1.17,1.44,1.44,0,0,1,.81-1.31,1.15,1.15,0,0,1,1,.07Z"/></g><g class="cls-3"><path d="M24.34,21.79c.05-.05.08-.13.14-.16a.45.45,0,0,0,.33-.46c0-1.43,0-2.86,0-4.28,0,0,0,0,0-.06l-3,5-2.83-5c0,.1,0,.15,0,.2v4.07a.48.48,0,0,0,.33.54c.06,0,.09.11.16.21H16.74c.05-.09.07-.18.11-.19.33-.1.37-.35.37-.64V16.25c0-.45,0-.9,0-1.36a.5.5,0,0,0-.34-.54c-.06,0-.09-.12-.15-.22H18.1a1.88,1.88,0,0,1-.77-2.05,2.55,2.55,0,0,1,1.5-1.61,1.88,1.88,0,0,1-.7-1.32L18,9.23a4.88,4.88,0,0,1-2.46.74,5.63,5.63,0,0,1-2.63-.42,3.85,3.85,0,0,1-2.31-4.17,3.65,3.65,0,0,1,2.33-3,5.56,5.56,0,0,1,4.45,0,3.76,3.76,0,0,1,2.35,4.06c0,.39-.15.77-.23,1.17a3.46,3.46,0,0,1,1.75-.07V5.92c0-1,0-2,0-3a.52.52,0,0,0-.33-.55c-.06,0-.09-.12-.17-.21h2.8c0,.11,0,.18-.1.22a.44.44,0,0,0-.33.48c0,1.38,0,2.77,0,4.15a1.37,1.37,0,0,0,1.22,1.45,3.54,3.54,0,0,0,2-.05,1.31,1.31,0,0,0,1-1.3c0-1,0-2.11,0-3.17V2.83a.49.49,0,0,0-.33-.51c-.06,0-.1-.11-.15-.16l0-.05h2.64c-.05.08-.08.18-.14.2a.53.53,0,0,0-.35.58c0,1.31,0,2.62,0,3.94A7.46,7.46,0,0,1,29,8a2.19,2.19,0,0,1-1.6,1.7,6,6,0,0,1-1.72.29h-.83v1.68l-.07,0s-.1-.08-.12-.13a.18.18,0,0,0-.28-.11,2,2,0,0,0-1,1.06c0,.05,0,.13,0,.15a1.61,1.61,0,0,0,.89.55c.15,0,.29,0,.37-.17s.09,0,.18-.09v1.17h2.21c.07.14,0,.21-.1.25a.45.45,0,0,0-.3.48v6.29a.47.47,0,0,0,.32.49s.07.09.11.14-.08.08-.12.08H24.4Zm-9-13a3.11,3.11,0,0,0,1.32-.25,2.66,2.66,0,0,0,1.65-2.43,2.69,2.69,0,0,0-1.7-2.76A3.64,3.64,0,0,0,15,3.14a2.84,2.84,0,0,0,.3,5.67Zm7.13,4.84a3.56,3.56,0,0,1-2.78,1,6.59,6.59,0,0,0,.28.71l1.87,3.35.11.17.12-.2,1.72-3a8,8,0,0,0,.38-.71,2,2,0,0,0,.09-.45A2.69,2.69,0,0,1,22.47,13.65ZM20,11.09a3.58,3.58,0,0,0-.69.24,1.07,1.07,0,0,0,0,1.92A2,2,0,0,0,21.5,13a.81.81,0,0,0,.16-1A1.75,1.75,0,0,0,20,11.09Zm.51-2.66a4.67,4.67,0,0,0-.66.23A.8.8,0,0,0,19.75,10a1.34,1.34,0,0,0,1.56,0,.82.82,0,0,0,.05-1.14A1.35,1.35,0,0,0,20.49,8.43Zm2.27,3.13A4,4,0,0,1,24.26,10l-1.49-.33a2,2,0,0,1-.83,1Z"/><path d="M34.48,16.82v2.23c-.09-.07-.18-.1-.21-.15a.5.5,0,0,0-.53-.33H30.85v1.9h4.76c.31,0,.6,0,.7-.39,0,0,.11,0,.19-.09v2.37c-.1-.08-.18-.12-.21-.18a.46.46,0,0,0-.45-.32H28.53l0-.06c.05-.06.08-.14.14-.17a.47.47,0,0,0,.32-.51V14.86a.49.49,0,0,0-.32-.5c-.06,0-.1-.11-.15-.17l.05-.06h7c.28,0,.5-.06.6-.35,0,0,.11-.07.2-.13V16c-.1,0-.18,0-.22-.09a.43.43,0,0,0-.46-.33h-4.7l-.06,0v1.66h2.89a.49.49,0,0,0,.53-.33c0-.06.11-.09.17-.13Z"/><path d="M1.65,2.1H5.2l0,0c0,.06-.09.14-.16.17-.33.17-.41.35-.2.66.43.63.88,1.25,1.35,1.91.47-.68.92-1.31,1.35-2,.18-.27.1-.45-.2-.59-.11,0-.19-.09-.13-.24h3.38c-.07.1-.1.19-.15.2a1.62,1.62,0,0,0-.81.62L7.15,6.34a.37.37,0,0,0-.07.23c0,.84,0,1.68,0,2.52a.5.5,0,0,0,.32.5.61.61,0,0,1,.16.16l0,.05H4.7c.08-.1.12-.18.18-.2a.49.49,0,0,0,.33-.51V6.55a.38.38,0,0,0-.07-.21L2.58,2.89a1.55,1.55,0,0,0-.79-.59C1.74,2.29,1.71,2.19,1.65,2.1Z"/><path d="M15,5a1.2,1.2,0,0,1,.82-1,1.12,1.12,0,0,1,1.21.28,1,1,0,0,1,.39,1,.73.73,0,0,1-.14.31,5.49,5.49,0,0,0-1,2.44c-.21-.51-.63-.47-1-.49a4.41,4.41,0,0,1-1.44-.3A1.21,1.21,0,0,1,13,6.14a1.44,1.44,0,0,1,.81-1.31,1.12,1.12,0,0,1,1,.07C14.87,4.93,14.94,5,15,5Z"/></g><path class="cls-4" d="M24.54,22c.05,0,.08-.14.14-.16a.46.46,0,0,0,.33-.47V17.09s0,0,0-.06l-3,5-2.83-5c0,.1,0,.15,0,.2,0,1.35,0,2.71,0,4.07a.5.5,0,0,0,.34.54c.05,0,.08.11.16.21H16.94c0-.09.07-.18.11-.19.33-.1.37-.35.37-.64,0-1.59,0-3.17,0-4.76,0-.45,0-.91,0-1.36a.5.5,0,0,0-.34-.54c-.06,0-.09-.12-.16-.22h1.37a1.9,1.9,0,0,1-.77-2.05A2.56,2.56,0,0,1,19,10.67a1.85,1.85,0,0,1-.7-1.32l-.15.08a4.88,4.88,0,0,1-2.46.74,5.76,5.76,0,0,1-2.63-.42,3.83,3.83,0,0,1-2.31-4.17,3.63,3.63,0,0,1,2.33-3,5.56,5.56,0,0,1,4.45,0A3.73,3.73,0,0,1,19.9,6.62a10,10,0,0,1-.22,1.17,3.45,3.45,0,0,1,1.75-.07V6.12c0-1,0-2,0-3.05a.51.51,0,0,0-.33-.55c-.06,0-.09-.12-.17-.22h2.8c0,.12,0,.19-.1.22A.44.44,0,0,0,23.3,3c0,1.38,0,2.77,0,4.15a1.37,1.37,0,0,0,1.21,1.45,3.58,3.58,0,0,0,2.05,0,1.32,1.32,0,0,0,1-1.3c0-1.06,0-2.11,0-3.17V3a.49.49,0,0,0-.33-.51c-.07,0-.11-.11-.16-.17l0,0h2.64c-.06.08-.08.18-.14.2a.52.52,0,0,0-.35.58c0,1.31,0,2.62,0,3.94a6.38,6.38,0,0,1-.1,1.15,2.16,2.16,0,0,1-1.6,1.69,6,6,0,0,1-1.72.3h-.84v1.68l-.06,0s-.1-.07-.12-.12a.18.18,0,0,0-.28-.11,2,2,0,0,0-1,1.06s0,.13,0,.15a1.55,1.55,0,0,0,.88.54c.16,0,.3,0,.38-.16s.09-.05.17-.09v1.17h2.22c.07.14,0,.21-.1.25a.45.45,0,0,0-.31.48q0,3.14,0,6.29a.47.47,0,0,0,.32.49c.05,0,.08.09.12.14s-.08.08-.12.08H24.59Zm-9-13a3,3,0,0,0,1.32-.26,2.65,2.65,0,0,0,1.65-2.43,2.68,2.68,0,0,0-1.7-2.75,3.5,3.5,0,0,0-1.57-.23A2.84,2.84,0,0,0,15.54,9Zm7.13,4.84a3.63,3.63,0,0,1-2.78,1,6.59,6.59,0,0,0,.28.71c.62,1.12,1.24,2.23,1.87,3.34a.82.82,0,0,0,.11.17l.12-.19c.57-1,1.14-2,1.72-3a8,8,0,0,0,.38-.71,2,2,0,0,0,.09-.45A2.78,2.78,0,0,1,22.67,13.85Zm-2.49-2.56a3.58,3.58,0,0,0-.69.24,1.07,1.07,0,0,0,0,1.92,2,2,0,0,0,2.22-.27.81.81,0,0,0,.16-1A1.75,1.75,0,0,0,20.18,11.29Zm.51-2.66a3.12,3.12,0,0,0-.67.23A.8.8,0,0,0,20,10.21a1.32,1.32,0,0,0,1.55-.05A.81.81,0,0,0,21.56,9,1.35,1.35,0,0,0,20.69,8.63ZM23,11.76a3.88,3.88,0,0,1,1.5-1.59L23,9.84a2,2,0,0,1-.82,1Z"/><path class="cls-4" d="M34.68,17v2.23c-.09-.07-.18-.1-.21-.15a.5.5,0,0,0-.53-.33H31.05v1.9h.24c1.51,0,3,0,4.52,0,.31,0,.6,0,.7-.39,0,0,.11-.06.19-.09v2.37c-.1-.08-.19-.12-.21-.18a.46.46,0,0,0-.46-.32h-7.3l0-.05c0-.06.08-.15.13-.17a.47.47,0,0,0,.33-.51V15.05a.47.47,0,0,0-.32-.49c-.06,0-.1-.11-.15-.18l.05-.05h7c.28,0,.5-.06.6-.35,0-.05.11-.07.2-.13v2.3c-.1,0-.18,0-.22-.1a.44.44,0,0,0-.46-.32H31.05v1.67h2.89a.5.5,0,0,0,.53-.33c0-.06.11-.09.17-.13Z"/><path class="cls-4" d="M1.85,2.3H5.4l0,.05c-.06.06-.1.14-.16.17-.34.16-.41.35-.21.66.44.63.89,1.25,1.36,1.9.47-.67.92-1.3,1.35-1.95.18-.27.1-.46-.2-.59-.11,0-.19-.09-.14-.24h3.38c-.06.09-.09.18-.14.2a1.53,1.53,0,0,0-.81.62L7.34,6.54a.44.44,0,0,0-.06.23c0,.84,0,1.68,0,2.52a.5.5,0,0,0,.32.5.75.75,0,0,1,.16.15l0,.06H4.89c.09-.1.13-.18.19-.2a.49.49,0,0,0,.33-.51V6.75a.38.38,0,0,0-.07-.21C4.48,5.38,3.63,4.23,2.77,3.09A1.49,1.49,0,0,0,2,2.5C1.94,2.48,1.91,2.39,1.85,2.3Z"/><path class="cls-4" d="M15.23,5.22a1.23,1.23,0,0,1,.82-1,1.16,1.16,0,0,1,1.21.28,1,1,0,0,1,.39,1,.87.87,0,0,1-.14.31A5.44,5.44,0,0,0,16.46,8.3c-.21-.51-.63-.47-1-.49A4.52,4.52,0,0,1,14,7.51a1.22,1.22,0,0,1-.8-1.18A1.44,1.44,0,0,1,14,5a1.16,1.16,0,0,1,1,.06Z"/></g></g></svg>