<svg xmlns="http://www.w3.org/2000/svg" viewBox="0 0 38.55 24.66"><defs><style>.cls-1{isolation:isolate;}.cls-2{opacity:0.15;}.cls-2,.cls-3{mix-blend-mode:multiply;}.cls-4{fill:#fff;}</style></defs><title>convert-FIX-SVG-03</title><g class="cls-1"><g id="Layer_1" data-name="Layer 1"><g class="cls-2"><path d="M28.6,17.38c.08.82.19,1.63.23,2.44a2,2,0,0,1-1.31,2,1.64,1.64,0,0,1-2.19-1.18,1.72,1.72,0,0,1,.25-1.47,4.55,4.55,0,0,0,.3-.63.22.22,0,0,0-.05-.19,1.45,1.45,0,0,1-.47-.83,1,1,0,0,0-.8.17c-.72.46-1.45.9-2.2,1.31a1.28,1.28,0,0,1-1.62-.27,2.82,2.82,0,0,1-.88-2.19,1,1,0,0,1,1.23-.91,2.92,2.92,0,0,0,1.1.18l.23,0a4.5,4.5,0,0,1-.15-2l-.78.19a.57.57,0,0,1-.22,0,1.93,1.93,0,0,0-.75.15A2.12,2.12,0,0,1,19,14a1.51,1.51,0,0,0-.36-.06v.91a.08.08,0,0,0,0,0,6.08,6.08,0,0,1,.74,2.21c.14.54.22,1.09.33,1.64a1.91,1.91,0,0,1-1.82,2.22,3.55,3.55,0,0,1-.65,0,1.11,1.11,0,0,1-.94-1.09,2.81,2.81,0,0,1,.22-1.22c.06-.16.11-.33.16-.5a.66.66,0,0,0-.18-.7,2,2,0,0,1-1.59.14c-.16-.05-.18,0-.22.14l-1.14,2.67a1.12,1.12,0,0,1-1.23.81,4.67,4.67,0,0,1-1.76-.41,4.09,4.09,0,0,1-.7-.33,1.23,1.23,0,0,1-.51-1.66,1.71,1.71,0,0,1,1.74-1.15.62.62,0,0,0,.63-.37c.13-.27.25-.55.41-.88l-.38.11a.73.73,0,0,1-.9-.41,1.64,1.64,0,0,1-.07-1.23A13,13,0,0,1,12,12.16l.36-.68a2.27,2.27,0,0,1-1.07-1.56,3.35,3.35,0,0,1,0-1.41.35.35,0,0,0-.07-.29,1.52,1.52,0,0,1-.34-1.35,1.32,1.32,0,0,1,2-.78.32.32,0,0,0,.31,0A3.39,3.39,0,0,1,14.91,6a.45.45,0,0,0,.28,0,1.91,1.91,0,0,1,1.34-.24A1.65,1.65,0,0,1,17.8,7.91a1.27,1.27,0,0,0,0,.77,2,2,0,0,1-.43,2.13,4,4,0,0,1,2.26.74.76.76,0,0,1,.81-.25,1.56,1.56,0,0,0,.95-.2l.54-.27a3.17,3.17,0,0,1-.51-2.49,1.24,1.24,0,0,0-.05-.66,1.74,1.74,0,0,1,.69-1.86,1.07,1.07,0,0,1,1.2.08.55.55,0,0,0,.54.06,5.09,5.09,0,0,1,1.74-.18.91.91,0,0,0,.32-.06,1.75,1.75,0,0,1,2.46,1.51,2,2,0,0,1-.14.93,2.72,2.72,0,0,0-.07.71,2.62,2.62,0,0,1-1.21,2.07.28.28,0,0,1-.11.05,3.84,3.84,0,0,1,1.59,1.32A7.12,7.12,0,0,1,30,15.2a3.2,3.2,0,0,1-.06,1.89.58.58,0,0,1-.6.42,1.81,1.81,0,0,1-.4,0A2.79,2.79,0,0,1,28.6,17.38ZM16.07,13.23a1,1,0,0,1-.29-.07c-.37-.25-.74-.5-1.09-.77a1.14,1.14,0,0,0-.83-.21.18.18,0,0,0-.13.08c-.19.2-.38.4-.56.61a.9.9,0,0,0-.17.3A4.15,4.15,0,0,0,12.87,15a2.88,2.88,0,0,0,2.93,2.35,1.56,1.56,0,0,0,.62-.23c.08-.06.07-.26.11-.39s0,0,0,0a3.9,3.9,0,0,1,.7-1.43,1.08,1.08,0,0,1,1.16-.6L18.33,14c-.34,0-.65,0-1,0A1.36,1.36,0,0,1,16.07,13.23Zm-2-1.8a5.12,5.12,0,0,1,1,0,1.83,1.83,0,0,0,1.49-.33l.29-.18a1.79,1.79,0,0,0,.74-2.32s-.06-.11-.1-.11A.76.76,0,0,1,16.77,8a1.53,1.53,0,0,0-.51-.61c-.13-.11-.26-.22-.38-.34s-.18-.19-.34-.09a.23.23,0,0,1-.18,0l-.53-.53c-.05,0-.11-.14-.17-.14a6.11,6.11,0,0,0-1.05,0,2.57,2.57,0,0,0-2.08,2.29,7.22,7.22,0,0,1,.69-.31,2,2,0,0,1,1.3.16A1.79,1.79,0,0,1,14,11.43Zm10.68-.31.8-.07a2.75,2.75,0,0,0,.5,0,2.44,2.44,0,0,0,1.85-2.65.86.86,0,0,1-.73-.72s-.05-.07-.08-.1c-.24-.26-.49-.51-.72-.77-.08-.08-.13-.12-.25-.08a.36.36,0,0,1-.45-.13A5.3,5.3,0,0,1,25.31,6c-.36,0-.8.07-1.23.16a2.91,2.91,0,0,0-2.4,3.31,2.19,2.19,0,0,0,.25.81l0-.92c0-.18,0-.36,0-.54a.35.35,0,0,1,.33-.4l.09,0a1.3,1.3,0,0,1,1.16-.2,1.76,1.76,0,0,1,1.44,1.07A1.8,1.8,0,0,1,24.71,11.12Zm2.21,4.15-1.32-2.2a.26.26,0,0,0-.09-.09l-1-.85a.39.39,0,0,0-.2-.08,1.2,1.2,0,0,0-1,.51A3.12,3.12,0,0,1,23,13c-.06.08-.15.15-.21.23a.62.62,0,0,0-.14.19A4.84,4.84,0,0,0,22.52,15a2.3,2.3,0,0,0,1.31,1.92,3.76,3.76,0,0,0,1.4.28.24.24,0,0,0,.17-.13c.09-.17.15-.35.24-.51A3.76,3.76,0,0,1,26.92,15.27Zm-1.09-3a1.52,1.52,0,0,0,.17.95c.53.8,1,1.61,1.56,2.42a.85.85,0,0,0,.25.2,4,4,0,0,1,.51.39c.2.21.35.46.54.68a1,1,0,0,0,.31.24.34.34,0,0,0,.52-.23,2.82,2.82,0,0,0,0-1.77,7.87,7.87,0,0,0-2.43-3.62,1.6,1.6,0,0,0-.6-.29.73.73,0,0,0-.85.56ZM12.75,15.64c-.13.31-.24.57-.36.83s-.27.63-.42.94a.77.77,0,0,1-.77.45,1.52,1.52,0,0,0-1.64,1.25,1.31,1.31,0,0,0,0,.52c0,.05.11.11.18.12s.43,0,.65.05a3.25,3.25,0,0,1,2.12,1,.18.18,0,0,0,.11.05.78.78,0,0,0,.61-.41c.14-.33.27-.66.42-1l.88-2.07A3.22,3.22,0,0,1,12.75,15.64Zm14.35-.15a3.53,3.53,0,0,0-1.21,1.19,1,1,0,0,0,.28,1.55.94.94,0,0,1,.42.83,2.34,2.34,0,0,1-.35,1.09c-.1.2-.19.41-.28.62l-.1.26a1.21,1.21,0,0,0,1.66.45,1.73,1.73,0,0,0,1.05-1.85c-.06-.47-.09-.95-.16-1.43a2.32,2.32,0,0,0-.53-1.51.27.27,0,0,1-.07-.13C27.69,16.13,27.31,15.88,27.1,15.49Zm-7.6,3.37c-.08-.38-.16-.91-.28-1.44-.17-.7-.35-1.41-.58-2.09-.19-.53-.6-.59-1-.17a3.71,3.71,0,0,0-.84,1.5.88.88,0,0,0,0,.71,1.11,1.11,0,0,1,.15.55,4,4,0,0,1-.19.76c-.07.31-.17.62-.21.94a.87.87,0,0,0,.5.94,1.74,1.74,0,0,0,1.38,0A1.67,1.67,0,0,0,19.5,18.86ZM20,14l0-.05a2.11,2.11,0,0,0,.25,0,.49.49,0,0,0,.43-.66,1.15,1.15,0,0,0-.21-.43,4,4,0,0,0-3-1.73,2,2,0,0,0-1.22.43.15.15,0,0,0-.06.11,5.23,5.23,0,0,0-.13.87,1.09,1.09,0,0,0,1,1.15c.54,0,1.09,0,1.64,0a1.35,1.35,0,0,1,.28,0Zm4.42,3.48,0-.05-.06,0a2.6,2.6,0,0,1-1.79-1.27.19.19,0,0,0-.16-.07,3.91,3.91,0,0,1-1.4-.18.56.56,0,0,0-.78.4,1.88,1.88,0,0,1,.47.17,1.74,1.74,0,0,1,.41.36,5.62,5.62,0,0,1,1.16,2Zm-12.4-6.63,0,0,.05.07c.19.3.53.3.82.38a1.15,1.15,0,0,0,1.47-1.07,1.65,1.65,0,0,0-1.46-1.7,1.05,1.05,0,0,0-1.24.57,1.28,1.28,0,0,0,.19,1.5l.1-.2.21.11a.47.47,0,0,0-.1-.24,2,2,0,0,1-.32-.39.77.77,0,0,1,0-.4.2.2,0,0,1,.14-.08c.25,0,.5,0,.76-.06.25.38.25.38,0,.74l0,.06c-.12.17-.1.26.08.35a2.06,2.06,0,0,0,.26.12l.17-.21.31.17-.34.5-.47-.19-.09.2Zm10.51,0a1.39,1.39,0,0,0,1.6.35.88.88,0,0,0,.59-.67,1.76,1.76,0,0,0-.14-1.21,1.57,1.57,0,0,0-1.33-.8.85.85,0,0,0-1.09.88,2.74,2.74,0,0,0,0,.64c0,.21.11.41.17.68l.2-.29.2.1a.6.6,0,0,0-.25-.54.41.41,0,0,1-.11-.57.24.24,0,0,1,.17-.13c.19,0,.38,0,.57,0s.2-.06.24.08.23.25,0,.42-.17.23-.27.33a.21.21,0,0,0,0,.3.31.31,0,0,0,.47,0l.15-.1.25.22-.52.45c-.23-.06-.46-.42-.66,0Zm-9.94.76,0,.07a17.44,17.44,0,0,0-1.42,3,2.65,2.65,0,0,0-.14.68.9.9,0,0,0,.32.83l1.21-1.06a13.64,13.64,0,0,1,.08-1.45A5.49,5.49,0,0,0,12.62,11.54Zm7.23.15c.58.55,1.25,1.05,1.18,2a3.65,3.65,0,0,0,1.23-.31.18.18,0,0,0,.09-.13,2.92,2.92,0,0,0,.12-.49.83.83,0,0,0,0-.35c0-.11-.13-.2-.13-.3,0-.32-.07-.7.46-.73-.21-.13-.38-.31-.56-.32s-.36.13-.54.21l-.39.17a1.31,1.31,0,0,1-.78.11A.82.82,0,0,0,19.85,11.69Zm8.24-4.18A3.74,3.74,0,0,0,28,7.05a1.46,1.46,0,0,0-2.17-1c-.2.11-.22.23,0,.36a.36.36,0,0,0,.29,0,.82.82,0,0,1,1.1.47,2.58,2.58,0,0,1,.17.69.65.65,0,0,0,.3.46A.16.16,0,0,0,28,8C28,7.8,28.06,7.62,28.09,7.51Zm-10.7.7a1.49,1.49,0,0,0-.25-1.9,1.57,1.57,0,0,0-2,0l.36.35.11-.1a1,1,0,0,1,1.16,0,.94.94,0,0,1,.3,1A.49.49,0,0,0,17.39,8.21Zm-4.7-1.9a.94.94,0,0,0-1.34.18A1.09,1.09,0,0,0,11.4,8a.53.53,0,0,0,0-.17,4.26,4.26,0,0,1-.06-.5.44.44,0,0,1,.5-.47.36.36,0,0,0,.18,0ZM26.18,18.62c-.13.23-.26.46-.38.69a2.48,2.48,0,0,0-.2.44,1.2,1.2,0,0,0,.06.95c.12-.23.23-.45.33-.67a5.3,5.3,0,0,0,.28-.65A.83.83,0,0,0,26.18,18.62Zm-4.51-11c.18-.19.1-.42.12-.62,0-.42.24-.57.65-.49a.25.25,0,0,0,.19,0c.19-.1.37-.23.56-.35A.92.92,0,0,0,22.31,6,1.44,1.44,0,0,0,21.67,7.64Zm-7.14,4.13a2,2,0,0,0,1.09.49l.07-.47A2.53,2.53,0,0,0,14.53,11.77Zm8.9-.19-.49.05c-.38,0-.41.1-.35.53.19,0,.38-.06.57-.11S23.49,12,23.43,11.58Zm1-.06c.06.22.16.29.33.28s.31,0,.46,0c.34,0,.34,0,.42-.33a.55.55,0,0,1,0-.09Zm.51.58,0,0,.66.54V12.1Zm-11.34-.2-.06-.17H13V12Zm10.61-.11c-.1-.26-.2-.34-.37-.29s0,.23-.09.38ZM13.84,11.7c0,.2.1.24.22.2s.13-.12.19-.18a.7.7,0,0,0-.31,0Zm-.42.52c-.41.07-.41.07-.39.41Zm9.66.16c-.36,0-.37,0-.29.36Zm-7.29.19-.46-.06.42.31Z"/><path d="M2.76,2.52l0-.15a.74.74,0,0,1,.38-.91.82.82,0,0,1,1,.25,2,2,0,0,1,.34,1c0,.34,0,.69,0,1,0,.18,0,.36,0,.58-.69-.06-1.38-.1-2.06-.2a1.57,1.57,0,0,1-.67-.36.76.76,0,0,1-.12-.94.72.72,0,0,1,.81-.35Z"/><path d="M36.36,2.5a2.9,2.9,0,0,1,.48,0,.7.7,0,0,1,.65.57.78.78,0,0,1-.3.86,2,2,0,0,1-1,.33c-.33,0-.66,0-1,0l-.69,0c.06-.68.11-1.35.2-2A1.38,1.38,0,0,1,35,1.74a.82.82,0,0,1,1.14-.23.75.75,0,0,1,.3.84A1.31,1.31,0,0,1,36.36,2.5Z"/><path d="M36.36,22.05c0,.06,0,.11,0,.15a.74.74,0,0,1-.37.9.83.83,0,0,1-1-.22,1.92,1.92,0,0,1-.35-1c0-.36,0-.72,0-1.08,0-.17,0-.34,0-.56.72.07,1.44.13,2.15.23a1,1,0,0,1,.71.49.79.79,0,0,1-.07.88.71.71,0,0,1-.78.26Z"/><path d="M4.56,20.31c0,.6-.06,1.21-.13,1.81a1.78,1.78,0,0,1-.27.69.8.8,0,0,1-1.05.3.73.73,0,0,1-.38-.94.43.43,0,0,0,0-.11,2.53,2.53,0,0,1-.46.06.69.69,0,0,1-.65-.54.77.77,0,0,1,.29-.88,1.89,1.89,0,0,1,1-.34,8.06,8.06,0,0,1,.85,0Z"/><path d="M32.48,11.13a2.57,2.57,0,0,0-.08.44q0,.72,0,1.44a2.21,2.21,0,0,0,.08.42h-.72a4.67,4.67,0,0,0,.08-.52,4.72,4.72,0,0,0-.05-.91l-.88,1.44L30.07,12a2.27,2.27,0,0,0,.13,1.43h-.75c0-.14.06-.29.07-.43,0-.48,0-1,0-1.42a3.58,3.58,0,0,0-.08-.43h1c-.18.17-.09.32,0,.47l.55.94c.24-.4.46-.77.67-1.15,0-.06,0-.17-.05-.27Z"/><path d="M6.54,14.09a1.42,1.42,0,0,1-1.27-.6,1.15,1.15,0,0,1,.55-1.68,1.72,1.72,0,0,1,1.3,0A1.14,1.14,0,0,1,7.9,13a1.2,1.2,0,0,1-1,1.08A3.64,3.64,0,0,1,6.54,14.09Zm-.06-.43a.79.79,0,1,0,0-1.57.79.79,0,1,0,0,1.57Z"/><path d="M35.37,12.9v.62a1.78,1.78,0,0,0-.39-.07H33a4.3,4.3,0,0,0,.08-.45V11.57c0-.14,0-.28-.08-.45h2a2.7,2.7,0,0,0,.35-.07v.55c-.15,0-.29,0-.44-.06h-1.2v.52c.36-.05.73.08,1.09-.1v.61c-.34-.21-.72,0-1.09-.11V13A3.9,3.9,0,0,0,35.37,12.9Z"/><path d="M8.31,11.73H9.1c-.2.16-.15.36-.15.56s0,.48,0,.72a1.34,1.34,0,0,0,0,.35c.07.23.37.33.75.3s.5-.15.51-.41c0-.43,0-.86,0-1.29,0-.07-.07-.14-.12-.23h.72a3.58,3.58,0,0,0-.08.43c0,.35,0,.7,0,1.06a.72.72,0,0,1-.63.8A2.44,2.44,0,0,1,9,14a.7.7,0,0,1-.61-.77c0-.35,0-.71,0-1.06C8.37,12,8.33,11.89,8.31,11.73Z"/><path d="M3.86,12.54l.34-.44c.09-.12.18-.24,0-.37h1a4.65,4.65,0,0,0-1,1.12.77.77,0,0,0-.12.34,1.48,1.48,0,0,0,0,.42,3,3,0,0,0,.08.41H3.43a1.29,1.29,0,0,0-.06-1.25c-.16-.21-.31-.42-.48-.62s-.25-.27-.39-.42H3.57l-.16.19Z"/><path d="M18.13,3.85l.14-.1a.53.53,0,0,1,.6,0,.48.48,0,0,1,.17.55,1.8,1.8,0,0,1-.87,1,.11.11,0,0,1-.11,0,1.92,1.92,0,0,1-.8-.82A.79.79,0,0,1,17.21,4,.5.5,0,0,1,18,3.74Z"/><path d="M21.89,2.82a2.78,2.78,0,0,1,.3-.15.5.5,0,0,1,.65.55,1.13,1.13,0,0,1-.48.74c-.52.42-.38.44-.9,0A1.68,1.68,0,0,1,21,3.35a.48.48,0,0,1,.16-.62.56.56,0,0,1,.63,0Z"/><path d="M15.62,3.83a1.16,1.16,0,0,1-.62.76h-.08A1.21,1.21,0,0,1,14.37,4a.55.55,0,0,1,.08-.41c.1-.14.27-.1.42,0a.33.33,0,0,0,.22,0A.35.35,0,0,1,15.62,3.83Z"/><path d="M19.44,6.94A.77.77,0,0,0,20,7c.24-.06.41.22.32.47a1.19,1.19,0,0,1-.56.61.15.15,0,0,1-.13,0,3.49,3.49,0,0,1-.53-.56A.35.35,0,0,1,19.44,6.94Z"/><path d="M24.77,4.15a1,1,0,0,1,.28-.1.31.31,0,0,1,.37.35,1.12,1.12,0,0,1-.61.76.2.2,0,0,1-.11,0,2.78,2.78,0,0,1-.43-.41.41.41,0,0,1-.05-.57C24.36,4,24.53,4,24.77,4.15Z"/><path d="M18.13,9.14a.25.25,0,0,1,.33-.24,2,2,0,0,0,.25,0c.09,0,.21,0,.26.05a.3.3,0,0,1,.06.28,2.47,2.47,0,0,1-.37.42.12.12,0,0,1-.1,0A.79.79,0,0,1,18.13,9.14Z"/><path d="M20.43,5.07,20.85,5a.25.25,0,0,1,.21.4,1.85,1.85,0,0,1-.36.38s-.05,0-.07,0c-.19,0-.5-.42-.44-.6s.13-.16.19-.23Z"/><path d="M15.07,8.78a.41.41,0,0,1-.4.41.41.41,0,0,1,0-.81A.43.43,0,0,1,15.07,8.78Z"/><path d="M24.77,8.5a.37.37,0,1,1,.38.4A.38.38,0,0,1,24.77,8.5Z"/><path d="M17.6,16.43a.89.89,0,0,1,.29-.65.29.29,0,0,1,.49.16.72.72,0,0,1-.27.75.38.38,0,0,1-.31,0A1.08,1.08,0,0,1,17.6,16.43Z"/><path d="M17.4,12.79a.56.56,0,0,1-.58-.53.54.54,0,0,1,.55-.5.56.56,0,0,1,.58.53A.52.52,0,0,1,17.4,12.79Z"/><path d="M28.8,17.58c.08.81.19,1.62.23,2.44a2,2,0,0,1-1.31,2,1.64,1.64,0,0,1-2.19-1.18,1.71,1.71,0,0,1,.24-1.47,3.68,3.68,0,0,0,.31-.63.24.24,0,0,0,0-.2,1.4,1.4,0,0,1-.47-.82,1,1,0,0,0-.8.17c-.72.46-1.45.9-2.2,1.31a1.28,1.28,0,0,1-1.62-.27,2.83,2.83,0,0,1-.88-2.19,1,1,0,0,1,1.23-.91,2.71,2.71,0,0,0,1.09.17l.23,0a4.59,4.59,0,0,1-.14-2l-.78.19a.62.62,0,0,1-.23,0,1.75,1.75,0,0,0-.74.15,2.12,2.12,0,0,1-1.5-.14,1.13,1.13,0,0,0-.36-.06V15a.11.11,0,0,0,0,.06,6,6,0,0,1,.74,2.21c.14.54.22,1.09.32,1.64a1.9,1.9,0,0,1-1.81,2.22,3.49,3.49,0,0,1-.65,0,1.11,1.11,0,0,1-.94-1.1,2.8,2.8,0,0,1,.22-1.21c.06-.17.11-.33.16-.5a.66.66,0,0,0-.19-.71,1.94,1.94,0,0,1-1.58.14c-.16,0-.18.05-.22.15l-1.14,2.66a1.13,1.13,0,0,1-1.23.82,4.63,4.63,0,0,1-1.76-.41,5,5,0,0,1-.7-.33,1.23,1.23,0,0,1-.51-1.67,1.73,1.73,0,0,1,1.74-1.15.6.6,0,0,0,.63-.36c.13-.28.25-.55.41-.88l-.38.11a.73.73,0,0,1-.9-.41A1.72,1.72,0,0,1,11,15a14.41,14.41,0,0,1,1.14-2.65l.37-.68a2.33,2.33,0,0,1-1.08-1.56,3.35,3.35,0,0,1,0-1.41.41.41,0,0,0-.07-.3A1.49,1.49,0,0,1,11,7.07a1.32,1.32,0,0,1,2-.79.31.31,0,0,0,.31,0,3.38,3.38,0,0,1,1.73-.12.42.42,0,0,0,.27,0,1.85,1.85,0,0,1,1.35-.24A1.65,1.65,0,0,1,18,8.11a1.27,1.27,0,0,0,0,.77A2,2,0,0,1,17.58,11a4,4,0,0,1,2.26.74.76.76,0,0,1,.81-.25,1.56,1.56,0,0,0,1-.2l.54-.28a3.1,3.1,0,0,1-.51-2.48,1.24,1.24,0,0,0-.05-.66A1.74,1.74,0,0,1,22.27,6a1.07,1.07,0,0,1,1.19.07.57.57,0,0,0,.55.07A5.05,5.05,0,0,1,25.74,6a.92.92,0,0,0,.33-.06,1.75,1.75,0,0,1,2.46,1.51,2,2,0,0,1-.14.93,2.67,2.67,0,0,0-.07.71,2.62,2.62,0,0,1-1.21,2.07.28.28,0,0,1-.11,0,3.82,3.82,0,0,1,1.59,1.31,7.22,7.22,0,0,1,1.61,2.9,3.13,3.13,0,0,1-.07,1.89.58.58,0,0,1-.59.42,2.71,2.71,0,0,1-.4,0A2.79,2.79,0,0,1,28.8,17.58ZM16.27,13.43c-.14,0-.23,0-.29-.08-.37-.25-.74-.49-1.09-.76a1.15,1.15,0,0,0-.83-.21.18.18,0,0,0-.13.08c-.19.2-.38.4-.56.61a1.14,1.14,0,0,0-.18.3,4.14,4.14,0,0,0-.12,1.82A2.87,2.87,0,0,0,16,17.54a1.4,1.4,0,0,0,.61-.24c.09-.05.08-.25.11-.38s0,0,0,0a3.9,3.9,0,0,1,.7-1.43,1.09,1.09,0,0,1,1.16-.61l-.07-.69h-1A1.35,1.35,0,0,1,16.27,13.43Zm-2-1.8a5.22,5.22,0,0,1,1,0,1.83,1.83,0,0,0,1.49-.33,2.82,2.82,0,0,1,.29-.18,1.79,1.79,0,0,0,.74-2.32s-.06-.11-.1-.12A.74.74,0,0,1,17,8.18a1.53,1.53,0,0,0-.51-.61c-.13-.11-.26-.22-.38-.34s-.18-.19-.34-.09a.23.23,0,0,1-.18,0c-.18-.17-.35-.36-.53-.53s-.11-.14-.17-.14a4.6,4.6,0,0,0-1,0,2.56,2.56,0,0,0-2.08,2.29,7.22,7.22,0,0,1,.69-.31,2,2,0,0,1,1.3.16A1.78,1.78,0,0,1,14.22,11.63Zm10.69-.31.8-.07a4.1,4.1,0,0,0,.5,0,2.43,2.43,0,0,0,1.84-2.65.87.87,0,0,1-.72-.73s0-.06-.08-.09c-.24-.26-.49-.51-.72-.77-.08-.09-.13-.13-.25-.08a.39.39,0,0,1-.45-.13,4,4,0,0,1-.32-.57c-.36,0-.81.07-1.24.16a2.91,2.91,0,0,0-2.39,3.31,2,2,0,0,0,.25.81l0-.92c0-.18,0-.36,0-.54a.35.35,0,0,1,.33-.4s.06,0,.08,0a1.33,1.33,0,0,1,1.17-.2,1.76,1.76,0,0,1,1.44,1.07A1.81,1.81,0,0,1,24.91,11.32Zm2.21,4.15-1.32-2.2a.26.26,0,0,0-.09-.09l-1-.85a.42.42,0,0,0-.21-.08,1.19,1.19,0,0,0-1,.5,3.39,3.39,0,0,1-.33.42l-.22.23a.55.55,0,0,0-.13.18,4.92,4.92,0,0,0-.09,1.62A2.3,2.3,0,0,0,24,17.12a3.76,3.76,0,0,0,1.4.28.24.24,0,0,0,.17-.13c.09-.17.15-.35.24-.51A3.68,3.68,0,0,1,27.12,15.47Zm-1.09-3a1.55,1.55,0,0,0,.17,1c.53.8,1,1.61,1.55,2.41a1.09,1.09,0,0,0,.26.21,4,4,0,0,1,.51.39c.2.21.35.46.54.68a.81.81,0,0,0,.31.24c.25.12.43,0,.52-.24a2.79,2.79,0,0,0,0-1.76,7.87,7.87,0,0,0-2.43-3.62,1.6,1.6,0,0,0-.6-.29A.73.73,0,0,0,26,12ZM13,15.84c-.13.31-.24.57-.36.82s-.27.64-.42.95a.75.75,0,0,1-.77.44,1.53,1.53,0,0,0-1.64,1.26,1.26,1.26,0,0,0,0,.51c0,.06.11.12.17.13.22,0,.44,0,.66.05a3.25,3.25,0,0,1,2.12,1s.08,0,.11,0a.71.71,0,0,0,.6-.4l.42-1c.29-.68.59-1.37.88-2.07A3.23,3.23,0,0,1,13,15.84Zm14.35-.16a3.47,3.47,0,0,0-1.21,1.2,1,1,0,0,0,.28,1.55.94.94,0,0,1,.42.83,2.34,2.34,0,0,1-.35,1.09c-.1.2-.19.41-.28.62l-.1.26a1.21,1.21,0,0,0,1.66.45,1.73,1.73,0,0,0,1.05-1.85c-.06-.47-.09-.95-.16-1.43a2.32,2.32,0,0,0-.53-1.51.28.28,0,0,1-.07-.13C27.89,16.33,27.51,16.07,27.3,15.68Zm-7.6,3.38c-.08-.38-.16-.91-.28-1.44-.18-.7-.35-1.41-.58-2.09s-.6-.6-1-.17A3.89,3.89,0,0,0,17,16.85a1,1,0,0,0,0,.72,1.11,1.11,0,0,1,.15.55,4.85,4.85,0,0,1-.19.75c-.07.32-.17.63-.21.95a.87.87,0,0,0,.5.94,1.74,1.74,0,0,0,1.38,0A1.68,1.68,0,0,0,19.7,19.06Zm.53-4.89,0-.05.25,0a.49.49,0,0,0,.43-.66,1.48,1.48,0,0,0-.21-.44,4.11,4.11,0,0,0-3-1.73,2,2,0,0,0-1.22.44.21.21,0,0,0-.07.11,6.5,6.5,0,0,0-.12.87,1.09,1.09,0,0,0,1,1.15c.54,0,1.09,0,1.64,0a.9.9,0,0,1,.28,0Zm4.42,3.48,0-.06h-.06a2.63,2.63,0,0,1-1.79-1.27.23.23,0,0,0-.17-.08,3.67,3.67,0,0,1-1.39-.17.57.57,0,0,0-.79.39,2.5,2.5,0,0,1,.48.18,1.74,1.74,0,0,1,.41.36,5.62,5.62,0,0,1,1.16,2ZM12.25,11l0,0,0,.07c.19.3.53.3.82.38a1.15,1.15,0,0,0,1.47-1.07,1.65,1.65,0,0,0-1.47-1.7,1,1,0,0,0-1.23.56,1.27,1.27,0,0,0,.19,1.5l.09-.19.22.11a.48.48,0,0,0-.11-.24,2.31,2.31,0,0,1-.31-.39.77.77,0,0,1,0-.4s.09-.08.14-.09l.76-.05c.25.37.25.37,0,.73l-.05.07c-.12.17-.1.26.08.35l.26.12.17-.21.31.17-.34.5-.47-.2-.09.21Zm10.51,0a1.39,1.39,0,0,0,1.6.35.89.89,0,0,0,.59-.67,1.8,1.8,0,0,0-.14-1.21,1.59,1.59,0,0,0-1.34-.8.84.84,0,0,0-1.08.88,2.66,2.66,0,0,0,0,.63,5.62,5.62,0,0,0,.17.68l.2-.28.2.1a.63.63,0,0,0-.25-.54.42.42,0,0,1-.11-.58.26.26,0,0,1,.17-.12c.19,0,.38,0,.57,0s.19-.07.24.08.22.25,0,.42-.18.22-.27.32a.22.22,0,0,0,0,.31.3.3,0,0,0,.46,0l.16-.11.24.23-.51.45c-.23-.06-.46-.42-.66,0Zm-9.94.76a.23.23,0,0,0-.05.07,17.44,17.44,0,0,0-1.42,3,2.65,2.65,0,0,0-.14.68.9.9,0,0,0,.32.83l1.2-1.06c0-.5,0-1,.09-1.45A5.7,5.7,0,0,0,12.82,11.74Zm7.23.15c.58.55,1.25,1,1.18,2a3.71,3.71,0,0,0,1.23-.31.25.25,0,0,0,.09-.13,2.92,2.92,0,0,0,.12-.49.9.9,0,0,0-.05-.36c0-.1-.13-.2-.13-.3,0-.32-.07-.69.46-.72-.21-.14-.38-.31-.56-.33s-.36.14-.54.21l-.39.18a1.31,1.31,0,0,1-.78.11A.78.78,0,0,0,20.05,11.89ZM28.29,7.7c0-.19,0-.32-.06-.45a1.46,1.46,0,0,0-2.17-1c-.2.11-.22.23,0,.36a.41.41,0,0,0,.29,0,.81.81,0,0,1,1.09.47,2.26,2.26,0,0,1,.18.69.64.64,0,0,0,.3.46.16.16,0,0,0,.27-.07C28.22,8,28.26,7.82,28.29,7.7Zm-10.7.71a1.48,1.48,0,0,0-.26-1.9,1.56,1.56,0,0,0-2,0l.36.34.11-.09a1,1,0,0,1,1.16,0,.93.93,0,0,1,.3,1A.49.49,0,0,0,17.59,8.41Zm-4.7-1.9a.93.93,0,0,0-1.34.18,1.09,1.09,0,0,0,0,1.53.59.59,0,0,0,0-.18,3.86,3.86,0,0,1-.06-.49.44.44,0,0,1,.5-.47c.06,0,.13,0,.17,0C12.45,6.88,12.67,6.69,12.89,6.51ZM26.38,18.82c-.13.23-.26.46-.38.69a1.75,1.75,0,0,0-.2.44,1.21,1.21,0,0,0,.06.95c.11-.23.23-.45.33-.67a5.44,5.44,0,0,0,.28-.66A.81.81,0,0,0,26.38,18.82Zm-4.51-11c.18-.19.1-.42.12-.62,0-.42.24-.57.64-.49a.27.27,0,0,0,.2,0l.56-.35a.92.92,0,0,0-.88-.17A1.44,1.44,0,0,0,21.87,7.84ZM14.73,12a2.13,2.13,0,0,0,1.09.49l.07-.47A2.53,2.53,0,0,0,14.73,12Zm8.9-.2c-.17,0-.33,0-.49.06-.38.05-.41.1-.35.53.19,0,.38-.06.57-.11S23.68,12.15,23.63,11.77Zm1,0c.06.22.16.29.33.28h.46c.34,0,.34,0,.41-.33,0,0,0,0,0-.08Zm.51.57,0,0,.66.55v-.59Zm-11.35-.2,0-.17h-.58l0,.3ZM24.39,12c-.1-.27-.2-.35-.37-.29s0,.23-.09.38ZM14,11.9c0,.2.11.23.23.2s.13-.12.19-.19a.9.9,0,0,0-.31,0Zm-.41.52c-.41.07-.41.07-.39.41Zm9.66.15c-.36,0-.37,0-.29.37Zm-7.29.2-.46-.06L16,13Z"/><path d="M3,2.72l0-.15a.74.74,0,0,1,.38-.91.82.82,0,0,1,1,.25,1.86,1.86,0,0,1,.33,1c0,.34,0,.69,0,1,0,.18,0,.37,0,.59-.69-.07-1.38-.1-2.06-.2A1.51,1.51,0,0,1,2,4,.76.76,0,0,1,1.9,3a.74.74,0,0,1,.81-.36Z"/><path d="M36.56,2.7A2.8,2.8,0,0,1,37,2.65a.69.69,0,0,1,.65.57.75.75,0,0,1-.31.85,1.83,1.83,0,0,1-1,.34c-.33,0-.66,0-1,0l-.69,0c.06-.67.11-1.34.19-2a1.5,1.5,0,0,1,.24-.53.81.81,0,0,1,1.14-.23.75.75,0,0,1,.3.84S36.58,2.64,36.56,2.7Z"/><path d="M36.56,22.25c0,.06,0,.11,0,.15a.74.74,0,0,1-.37.9.83.83,0,0,1-1-.22,1.92,1.92,0,0,1-.35-1c0-.36,0-.72-.05-1.08,0-.17,0-.34,0-.56.72.07,1.44.13,2.15.23a.91.91,0,0,1,.7.49.79.79,0,0,1-.07.88.7.7,0,0,1-.77.25Z"/><path d="M4.76,20.51c0,.59-.06,1.21-.13,1.81a1.68,1.68,0,0,1-.27.68.79.79,0,0,1-1.05.31.72.72,0,0,1-.38-.94s0-.07,0-.11a3.87,3.87,0,0,1-.46.06.68.68,0,0,1-.65-.54.78.78,0,0,1,.29-.89,1.94,1.94,0,0,1,1-.33c.28,0,.57,0,.85,0Z"/><path d="M32.68,11.33a2.57,2.57,0,0,0-.08.44q0,.72,0,1.44a2.37,2.37,0,0,0,.08.42H32A3.07,3.07,0,0,0,32,13.1a4,4,0,0,0,0-.9l-.88,1.44-.84-1.45a2.28,2.28,0,0,0,.13,1.43h-.75c0-.14.06-.29.07-.44V11.77a4.14,4.14,0,0,0-.08-.44h1c-.18.18-.08.32,0,.48l.55.94c.24-.4.46-.77.67-1.15,0-.06,0-.17,0-.27Z"/><path d="M6.74,14.29a1.46,1.46,0,0,1-1.28-.61A1.16,1.16,0,0,1,6,12a1.72,1.72,0,0,1,1.3,0,1.12,1.12,0,0,1,.78,1.18,1.16,1.16,0,0,1-1,1.07Zm-.06-.43a.79.79,0,1,0,0-1.57.79.79,0,1,0,0,1.57Z"/><path d="M35.57,13.1v.61a2.63,2.63,0,0,0-.39-.06h-2a2.57,2.57,0,0,0,.07-.46q0-.7,0-1.41a2.46,2.46,0,0,0-.07-.45h1.95c.12,0,.23-.05.35-.07v.55a3,3,0,0,0-.43-.06h-1.2v.51c.36,0,.73.09,1.09-.09v.61c-.35-.21-.72,0-1.09-.11v.54A3.9,3.9,0,0,0,35.57,13.1Z"/><path d="M8.51,11.93H9.3c-.2.15-.15.36-.15.56s0,.48,0,.72a1,1,0,0,0,0,.35c.07.22.36.33.75.3s.49-.16.51-.41c0-.43,0-.86,0-1.29,0-.07-.07-.14-.12-.23h.72a3,3,0,0,0-.08.43c0,.35,0,.7,0,1.05a.73.73,0,0,1-.63.81,2.44,2.44,0,0,1-1.17,0,.7.7,0,0,1-.61-.77c0-.35,0-.71,0-1.06A3.71,3.71,0,0,0,8.51,11.93Z"/><path d="M4.06,12.74l.33-.44c.1-.12.19-.24,0-.37h1a4.84,4.84,0,0,0-1,1.12.58.58,0,0,0-.12.34,1.48,1.48,0,0,0,0,.42,3,3,0,0,0,.08.41H3.63A1.32,1.32,0,0,0,3.57,13c-.16-.21-.31-.42-.48-.62s-.26-.27-.39-.42H3.77l-.17.19Z"/><path d="M18.33,4.05a.61.61,0,0,1,.14-.1.53.53,0,0,1,.6,0,.49.49,0,0,1,.17.55,1.88,1.88,0,0,1-.87,1,.13.13,0,0,1-.12,0,2,2,0,0,1-.79-.82.72.72,0,0,1-.05-.43.49.49,0,0,1,.74-.29Z"/><path d="M22.09,3a2.09,2.09,0,0,1,.3-.15.5.5,0,0,1,.65.54,1.17,1.17,0,0,1-.48.75c-.53.42-.38.43-.9,0a1.93,1.93,0,0,1-.45-.61.5.5,0,0,1,.17-.62A.53.53,0,0,1,22,3Z"/><path d="M15.82,4a1.16,1.16,0,0,1-.62.76h-.08a1.15,1.15,0,0,1-.55-.62.49.49,0,0,1,.08-.4c.1-.14.27-.1.42,0a.33.33,0,0,0,.22,0A.35.35,0,0,1,15.82,4Z"/><path d="M19.64,7.14a.73.73,0,0,0,.58,0c.24-.05.41.23.32.48a1.23,1.23,0,0,1-.56.61.15.15,0,0,1-.13,0,3.1,3.1,0,0,1-.53-.56A.35.35,0,0,1,19.64,7.14Z"/><path d="M25,4.34a1.9,1.9,0,0,1,.29-.09.31.31,0,0,1,.37.35,1.1,1.1,0,0,1-.61.75.13.13,0,0,1-.12,0,4,4,0,0,1-.43-.4.43.43,0,0,1,0-.58C24.55,4.2,24.73,4.21,25,4.34Z"/><path d="M18.32,9.34a.25.25,0,0,1,.33-.24,2.09,2.09,0,0,0,.25,0c.1,0,.22,0,.27.05a.33.33,0,0,1,.06.28,2.47,2.47,0,0,1-.37.42s-.07,0-.1,0A.83.83,0,0,1,18.32,9.34Z"/><path d="M20.63,5.26l.42,0a.25.25,0,0,1,.21.4A3.19,3.19,0,0,1,20.9,6l-.08,0c-.18,0-.49-.43-.43-.6a.84.84,0,0,1,.19-.24Z"/><path d="M15.27,9a.42.42,0,0,1-.4.41.41.41,0,1,1,0-.81A.43.43,0,0,1,15.27,9Z"/><path d="M25,8.7a.37.37,0,1,1,.37.4A.38.38,0,0,1,25,8.7Z"/><path d="M17.8,16.63a.89.89,0,0,1,.29-.66.29.29,0,0,1,.49.17.72.72,0,0,1-.27.75.43.43,0,0,1-.31,0A.89.89,0,0,1,17.8,16.63Z"/><path d="M17.6,13a.54.54,0,0,1-.58-.52.53.53,0,0,1,.55-.5.57.57,0,0,1,.58.53A.51.51,0,0,1,17.6,13Z"/></g><g class="cls-3"><path d="M28.46,17.24c.08.81.19,1.62.23,2.44a2,2,0,0,1-1.31,2,1.64,1.64,0,0,1-2.19-1.18A1.71,1.71,0,0,1,25.43,19a3.68,3.68,0,0,0,.31-.63.24.24,0,0,0,0-.2,1.4,1.4,0,0,1-.47-.82,1,1,0,0,0-.8.17c-.72.46-1.45.89-2.2,1.31a1.28,1.28,0,0,1-1.62-.27,2.83,2.83,0,0,1-.88-2.19A1,1,0,0,1,21,15.46a2.71,2.71,0,0,0,1.09.17l.23,0a4.59,4.59,0,0,1-.14-2l-.78.19a.62.62,0,0,1-.23,0,1.75,1.75,0,0,0-.74.15,2.12,2.12,0,0,1-1.5-.14,1.18,1.18,0,0,0-.36-.06v.9a.11.11,0,0,0,0,.06,6,6,0,0,1,.74,2.21c.14.54.22,1.09.32,1.64a1.9,1.9,0,0,1-1.81,2.22,3.49,3.49,0,0,1-.65,0,1.12,1.12,0,0,1-.94-1.1,2.8,2.8,0,0,1,.22-1.21c.06-.17.11-.33.16-.5a.66.66,0,0,0-.19-.71,1.94,1.94,0,0,1-1.58.14c-.16,0-.18.05-.22.15l-1.14,2.66a1.13,1.13,0,0,1-1.23.82,4.63,4.63,0,0,1-1.76-.41,5,5,0,0,1-.7-.33,1.23,1.23,0,0,1-.51-1.67A1.73,1.73,0,0,1,11,17.45a.6.6,0,0,0,.63-.36c.13-.28.25-.55.41-.88l-.38.11a.73.73,0,0,1-.9-.41,1.72,1.72,0,0,1-.08-1.24A14.41,14.41,0,0,1,11.81,12l.37-.68A2.33,2.33,0,0,1,11.1,9.78a3.35,3.35,0,0,1,0-1.41.41.41,0,0,0-.07-.3,1.49,1.49,0,0,1-.34-1.34,1.32,1.32,0,0,1,2-.79A.31.31,0,0,0,13,6a3.38,3.38,0,0,1,1.73-.12.42.42,0,0,0,.27,0,1.85,1.85,0,0,1,1.35-.24,1.65,1.65,0,0,1,1.27,2.19,1.27,1.27,0,0,0,0,.77,2,2,0,0,1-.43,2.13,4,4,0,0,1,2.26.74.76.76,0,0,1,.81-.25,1.56,1.56,0,0,0,1-.2l.54-.28a3.1,3.1,0,0,1-.51-2.48,1.34,1.34,0,0,0-.05-.66,1.74,1.74,0,0,1,.69-1.86,1.07,1.07,0,0,1,1.19.07.57.57,0,0,0,.55.07,5.05,5.05,0,0,1,1.73-.18.92.92,0,0,0,.33-.06,1.75,1.75,0,0,1,2.46,1.51,2,2,0,0,1-.14.93,2.67,2.67,0,0,0-.07.71,2.62,2.62,0,0,1-1.21,2.07.28.28,0,0,1-.11,0,3.82,3.82,0,0,1,1.59,1.31,7.22,7.22,0,0,1,1.61,2.9A3.13,3.13,0,0,1,29.79,17a.58.58,0,0,1-.59.42,2.71,2.71,0,0,1-.4,0A2.79,2.79,0,0,1,28.46,17.24ZM15.93,13.09c-.14,0-.23,0-.29-.08-.37-.25-.74-.49-1.09-.76a1.15,1.15,0,0,0-.83-.21.18.18,0,0,0-.13.08c-.19.2-.38.4-.56.61a1.14,1.14,0,0,0-.18.3,4.29,4.29,0,0,0-.13,1.82,2.89,2.89,0,0,0,2.94,2.35,1.4,1.4,0,0,0,.61-.24c.09-.05.08-.25.11-.38s0,0,0,0a3.9,3.9,0,0,1,.7-1.43,1.09,1.09,0,0,1,1.16-.61l-.07-.69h-1A1.35,1.35,0,0,1,15.93,13.09Zm-2-1.8a5.22,5.22,0,0,1,1,0A1.83,1.83,0,0,0,16.34,11a2.82,2.82,0,0,1,.29-.18,1.79,1.79,0,0,0,.74-2.32s-.06-.11-.1-.12a.73.73,0,0,1-.64-.52,1.57,1.57,0,0,0-.51-.6c-.13-.11-.26-.22-.38-.34s-.18-.19-.34-.1a.19.19,0,0,1-.18,0c-.18-.17-.35-.36-.53-.53s-.11-.14-.17-.14a4.6,4.6,0,0,0-1,0,2.56,2.56,0,0,0-2.08,2.29,7.22,7.22,0,0,1,.69-.31,2,2,0,0,1,1.3.16A1.78,1.78,0,0,1,13.88,11.29ZM24.57,11l.8-.07a4.1,4.1,0,0,0,.5,0,2.43,2.43,0,0,0,1.84-2.65A.89.89,0,0,1,27,7.51s0-.06-.07-.09c-.24-.26-.49-.51-.72-.77-.08-.09-.13-.13-.25-.08a.39.39,0,0,1-.45-.13,4,4,0,0,1-.32-.57c-.36,0-.81.07-1.24.16a2.91,2.91,0,0,0-2.39,3.31,2,2,0,0,0,.25.81l0-.92c0-.18,0-.36,0-.54a.35.35,0,0,1,.33-.4s.06,0,.08,0a1.33,1.33,0,0,1,1.17-.2,1.74,1.74,0,0,1,1.44,1.07A1.81,1.81,0,0,1,24.57,11Zm2.21,4.15-1.32-2.2a.26.26,0,0,0-.09-.09l-1-.85a.42.42,0,0,0-.21-.08,1.19,1.19,0,0,0-1,.5,3.39,3.39,0,0,1-.33.42l-.22.23a.55.55,0,0,0-.13.18,4.92,4.92,0,0,0-.09,1.62,2.3,2.3,0,0,0,1.31,1.92,3.72,3.72,0,0,0,1.4.28.24.24,0,0,0,.17-.13c.09-.17.15-.35.24-.51A3.68,3.68,0,0,1,26.78,15.13Zm-1.09-3a1.55,1.55,0,0,0,.17,1c.53.8,1,1.61,1.55,2.41a1.09,1.09,0,0,0,.26.21,4,4,0,0,1,.51.39c.2.21.35.46.54.68A.92.92,0,0,0,29,17c.25.12.43,0,.52-.24a2.79,2.79,0,0,0,0-1.76,7.87,7.87,0,0,0-2.43-3.62,1.6,1.6,0,0,0-.6-.29.73.73,0,0,0-.85.56ZM12.61,15.5c-.13.31-.25.57-.36.82s-.27.64-.42.95a.75.75,0,0,1-.77.44A1.53,1.53,0,0,0,9.42,19a1.26,1.26,0,0,0,0,.51c0,.06.11.12.17.13.22,0,.44,0,.66.05a3.25,3.25,0,0,1,2.12,1s.08,0,.11,0a.71.71,0,0,0,.6-.4l.42-1c.29-.68.59-1.37.88-2.07A3.23,3.23,0,0,1,12.61,15.5ZM27,15.34a3.47,3.47,0,0,0-1.21,1.2A1,1,0,0,0,26,18.09a.94.94,0,0,1,.42.83A2.34,2.34,0,0,1,26.1,20c-.1.2-.19.41-.28.62l-.1.26a1.21,1.21,0,0,0,1.66.45,1.73,1.73,0,0,0,1.05-1.85c-.06-.47-.09-.95-.16-1.43a2.32,2.32,0,0,0-.53-1.51.28.28,0,0,1-.07-.13C27.55,16,27.17,15.73,27,15.34Zm-7.61,3.38c-.07-.38-.15-.91-.28-1.44-.17-.7-.34-1.41-.57-2.09s-.6-.6-1-.17a3.89,3.89,0,0,0-.85,1.49,1,1,0,0,0,0,.72,1.11,1.11,0,0,1,.15.55,4.85,4.85,0,0,1-.19.75c-.07.32-.17.63-.21.95a.87.87,0,0,0,.5.94,1.74,1.74,0,0,0,1.38,0A1.66,1.66,0,0,0,19.35,18.72Zm.54-4.89,0-.05.25,0a.49.49,0,0,0,.43-.66,1.48,1.48,0,0,0-.21-.44,4.11,4.11,0,0,0-3-1.73,2,2,0,0,0-1.22.44.21.21,0,0,0-.07.11,6.5,6.5,0,0,0-.12.87,1.09,1.09,0,0,0,1,1.15c.54,0,1.09,0,1.64,0a.9.9,0,0,1,.28,0Zm4.42,3.48,0-.06h-.06A2.63,2.63,0,0,1,22.43,16a.23.23,0,0,0-.17-.08,3.67,3.67,0,0,1-1.39-.17.57.57,0,0,0-.79.39,2.5,2.5,0,0,1,.48.18,1.74,1.74,0,0,1,.41.36,5.62,5.62,0,0,1,1.16,2Zm-12.4-6.63,0,0,0,.07c.19.3.53.3.82.38a1.15,1.15,0,0,0,1.47-1.07,1.66,1.66,0,0,0-1.47-1.7A1,1,0,0,0,11.52,9a1.27,1.27,0,0,0,.19,1.5l.09-.19.22.11a.59.59,0,0,0-.11-.24,2.31,2.31,0,0,1-.31-.39.77.77,0,0,1,0-.4s.09-.08.14-.09l.76-.05c.25.37.25.37,0,.73l-.05.07c-.12.17-.1.26.08.35l.26.12.17-.21.31.17-.34.5-.47-.2-.09.21Zm10.51,0A1.39,1.39,0,0,0,24,11a.89.89,0,0,0,.59-.67,1.8,1.8,0,0,0-.14-1.21,1.59,1.59,0,0,0-1.34-.8.84.84,0,0,0-1.08.88,2.66,2.66,0,0,0,0,.63,5.62,5.62,0,0,0,.17.68l.2-.28.2.1a.63.63,0,0,0-.25-.54.42.42,0,0,1-.11-.58.26.26,0,0,1,.17-.12c.19,0,.38,0,.57,0s.19-.07.24.08.22.25,0,.42-.18.22-.27.32a.22.22,0,0,0,0,.31.3.3,0,0,0,.46,0l.16-.11.24.23-.51.45c-.23-.06-.46-.42-.66,0Zm-9.94.76a.23.23,0,0,0-.05.07,17.44,17.44,0,0,0-1.42,3,2.65,2.65,0,0,0-.14.68.9.9,0,0,0,.32.83L12.39,15c0-.5,0-1,.09-1.45A5.7,5.7,0,0,0,12.48,11.4Zm7.23.15c.58.55,1.25,1,1.18,2a3.71,3.71,0,0,0,1.23-.31.25.25,0,0,0,.09-.13,3.17,3.17,0,0,0,.12-.49.9.9,0,0,0,0-.36c0-.1-.13-.2-.13-.3,0-.32-.07-.69.46-.72-.21-.14-.38-.31-.56-.33s-.36.14-.54.21l-.39.18a1.31,1.31,0,0,1-.78.11A.74.74,0,0,0,19.71,11.55ZM28,7.36c0-.19,0-.32-.06-.45a1.46,1.46,0,0,0-2.17-1c-.2.11-.22.23,0,.36a.39.39,0,0,0,.28,0,.82.82,0,0,1,1.1.47,2.26,2.26,0,0,1,.18.69.64.64,0,0,0,.3.46.16.16,0,0,0,.27-.07C27.88,7.65,27.92,7.48,28,7.36Zm-10.7.71A1.48,1.48,0,0,0,17,6.17a1.56,1.56,0,0,0-2,0l.36.34.11-.09a1,1,0,0,1,1.16,0,.93.93,0,0,1,.3,1A.48.48,0,0,0,17.25,8.07Zm-4.7-1.9a.93.93,0,0,0-1.34.18,1.09,1.09,0,0,0,0,1.53.59.59,0,0,0,0-.18,3.86,3.86,0,0,1-.06-.49.44.44,0,0,1,.5-.47c.06,0,.13,0,.17,0C12.11,6.54,12.33,6.35,12.55,6.17ZM26,18.48c-.13.23-.26.46-.38.69a1.75,1.75,0,0,0-.2.44,1.21,1.21,0,0,0,.06.95c.11-.23.23-.45.33-.67a5.44,5.44,0,0,0,.28-.66A.81.81,0,0,0,26,18.48Zm-4.51-11c.18-.19.1-.42.12-.62,0-.42.24-.57.64-.49a.27.27,0,0,0,.2,0c.19-.11.36-.23.56-.36a.94.94,0,0,0-.88-.16A1.44,1.44,0,0,0,21.53,7.5Zm-7.14,4.13a2.13,2.13,0,0,0,1.09.49l.07-.47A2.53,2.53,0,0,0,14.39,11.63Zm8.9-.2c-.17,0-.33,0-.49.06-.38,0-.41.1-.35.53.19,0,.38-.06.57-.11S23.34,11.81,23.29,11.43Zm1,0c.06.22.16.29.33.28h.46c.34,0,.34,0,.41-.33,0,0,0,0,0-.08Zm.51.57,0,0,.66.55V12Zm-11.35-.2,0-.17H12.8l0,.3Zm10.62-.1c-.1-.27-.2-.35-.37-.29s0,.23-.09.38Zm-10.36-.09c0,.2.11.23.23.2s.13-.12.19-.19a.9.9,0,0,0-.31,0Zm-.41.52c-.41.07-.41.07-.39.41Zm9.66.15c-.36,0-.37,0-.29.37Zm-7.29.2-.46-.06.42.31Z"/><path d="M2.62,2.38l0-.15A.74.74,0,0,1,3,1.32a.82.82,0,0,1,1,.25,1.86,1.86,0,0,1,.33,1c0,.34,0,.69,0,1,0,.18,0,.37,0,.59C3.72,4.11,3,4.08,2.35,4a1.51,1.51,0,0,1-.67-.36.76.76,0,0,1-.12-.94.74.74,0,0,1,.81-.36Z"/><path d="M36.22,2.36a2.8,2.8,0,0,1,.48,0,.69.69,0,0,1,.65.57.75.75,0,0,1-.31.85,1.83,1.83,0,0,1-1,.34c-.33,0-.66,0-1,0l-.69,0c.06-.67.11-1.34.19-2a1.5,1.5,0,0,1,.24-.53A.81.81,0,0,1,36,1.37a.75.75,0,0,1,.3.84Z"/><path d="M36.22,21.91c0,.06,0,.11,0,.15a.74.74,0,0,1-.37.9.83.83,0,0,1-1-.22,2,2,0,0,1-.36-1c0-.36,0-.72,0-1.08,0-.17,0-.34,0-.56.72.07,1.44.13,2.15.23a.91.91,0,0,1,.7.49.79.79,0,0,1-.07.88.7.7,0,0,1-.77.25Z"/><path d="M4.42,20.17c0,.59-.06,1.21-.13,1.81a1.68,1.68,0,0,1-.27.68A.79.79,0,0,1,3,23,.72.72,0,0,1,2.59,22s0-.07,0-.11a2.49,2.49,0,0,1-.46,0,.66.66,0,0,1-.65-.53.78.78,0,0,1,.29-.89,1.94,1.94,0,0,1,1-.33c.28,0,.57,0,.85,0Z"/><path d="M32.34,11a2.57,2.57,0,0,0-.08.44q0,.72,0,1.44a2.37,2.37,0,0,0,.08.42h-.72a3.07,3.07,0,0,0,.07-.53,3.93,3.93,0,0,0,0-.9l-.88,1.44-.84-1.45a2.21,2.21,0,0,0,.13,1.43h-.75c0-.14.06-.29.07-.44V11.43A4.14,4.14,0,0,0,29.3,11h1c-.18.18-.08.32,0,.48l.55.94c.24-.4.46-.77.67-1.15,0-.06,0-.17,0-.27Z"/><path d="M6.4,14a1.46,1.46,0,0,1-1.28-.61,1.15,1.15,0,0,1,.55-1.67,1.72,1.72,0,0,1,1.3,0,1.12,1.12,0,0,1,.78,1.18,1.16,1.16,0,0,1-1,1.07Zm-.06-.43a.79.79,0,1,0,0-1.57.79.79,0,1,0,0,1.57Z"/><path d="M35.23,12.76v.61a2.63,2.63,0,0,0-.39-.06h-2a2.57,2.57,0,0,0,.07-.46q0-.71,0-1.41a2.46,2.46,0,0,0-.07-.45h2c.12,0,.23-.05.35-.07v.55a3,3,0,0,0-.43-.06h-1.2v.51c.36,0,.73.09,1.08-.09v.61c-.34-.21-.71,0-1.08-.11v.54A3.9,3.9,0,0,0,35.23,12.76Z"/><path d="M8.17,11.59H9c-.2.15-.15.36-.15.56s0,.48,0,.72a1,1,0,0,0,0,.35c.07.22.36.33.75.3s.49-.16.51-.41c0-.43,0-.86,0-1.29,0-.07-.07-.14-.12-.23h.72a3,3,0,0,0-.08.43c0,.35,0,.7,0,1.05a.73.73,0,0,1-.63.81,2.44,2.44,0,0,1-1.17,0,.7.7,0,0,1-.61-.77c0-.35,0-.71,0-1.06A3.71,3.71,0,0,0,8.17,11.59Z"/><path d="M3.72,12.4,4.05,12c.1-.12.19-.24,0-.37h1a4.84,4.84,0,0,0-1,1.12.58.58,0,0,0-.12.34,1.48,1.48,0,0,0,0,.42,3,3,0,0,0,.08.41H3.29a1.32,1.32,0,0,0-.06-1.25c-.16-.21-.31-.42-.48-.62s-.26-.27-.39-.42H3.43l-.17.19Z"/><path d="M18,3.71a.61.61,0,0,1,.14-.1.53.53,0,0,1,.6,0,.49.49,0,0,1,.17.55,1.88,1.88,0,0,1-.87,1,.13.13,0,0,1-.12,0,2,2,0,0,1-.79-.82.72.72,0,0,1-.05-.43.49.49,0,0,1,.74-.29Z"/><path d="M21.75,2.68a2.09,2.09,0,0,1,.3-.15.5.5,0,0,1,.65.54,1.17,1.17,0,0,1-.48.75c-.53.42-.38.43-.9,0a1.93,1.93,0,0,1-.45-.61A.5.5,0,0,1,21,2.59a.53.53,0,0,1,.63,0Z"/><path d="M15.48,3.69a1.16,1.16,0,0,1-.62.76.12.12,0,0,1-.08,0,1.1,1.1,0,0,1-.55-.61.49.49,0,0,1,.08-.4c.1-.14.27-.1.42,0a.33.33,0,0,0,.22,0A.35.35,0,0,1,15.48,3.69Z"/><path d="M19.3,6.8a.73.73,0,0,0,.58,0c.24,0,.41.23.32.48a1.23,1.23,0,0,1-.56.61.15.15,0,0,1-.13,0A2.85,2.85,0,0,1,19,7.33.34.34,0,0,1,19.3,6.8Z"/><path d="M24.62,4a1.9,1.9,0,0,1,.29-.09.31.31,0,0,1,.37.35,1.1,1.1,0,0,1-.61.75.13.13,0,0,1-.12,0,4,4,0,0,1-.43-.4.43.43,0,0,1,0-.58C24.21,3.86,24.39,3.87,24.62,4Z"/><path d="M18,9a.24.24,0,0,1,.33-.24,2.09,2.09,0,0,0,.25,0c.1,0,.22,0,.27.05a.33.33,0,0,1,.06.28,2.47,2.47,0,0,1-.37.42s-.07,0-.1,0A.83.83,0,0,1,18,9Z"/><path d="M20.29,4.92l.42,0a.25.25,0,0,1,.21.4,3.19,3.19,0,0,1-.36.38l-.08,0c-.18,0-.49-.43-.43-.6a.84.84,0,0,1,.19-.24Z"/><path d="M14.92,8.64a.4.4,0,0,1-.39.41.41.41,0,0,1,0-.81A.41.41,0,0,1,14.92,8.64Z"/><path d="M24.63,8.36a.37.37,0,1,1,.37.4A.38.38,0,0,1,24.63,8.36Z"/><path d="M17.46,16.29a.86.86,0,0,1,.29-.66.29.29,0,0,1,.49.17.72.72,0,0,1-.27.75.43.43,0,0,1-.31,0A.89.89,0,0,1,17.46,16.29Z"/><path d="M17.26,12.64a.55.55,0,0,1-.58-.52.53.53,0,0,1,.55-.5.57.57,0,0,1,.58.53A.51.51,0,0,1,17.26,12.64Z"/></g><path class="cls-4" d="M28.65,17.44c.09.81.2,1.62.24,2.44a2,2,0,0,1-1.32,2,1.63,1.63,0,0,1-2.18-1.17,1.74,1.74,0,0,1,.24-1.48,3.54,3.54,0,0,0,.3-.62.19.19,0,0,0-.05-.2,1.43,1.43,0,0,1-.47-.82,1,1,0,0,0-.79.17c-.72.46-1.46.89-2.2,1.31a1.31,1.31,0,0,1-1.63-.27,2.89,2.89,0,0,1-.88-2.2,1,1,0,0,1,1.24-.91,2.72,2.72,0,0,0,1.09.18l.23,0a4.76,4.76,0,0,1-.15-2l-.77.19a.62.62,0,0,1-.23,0,1.75,1.75,0,0,0-.74.15,2.17,2.17,0,0,1-1.5-.14,1.63,1.63,0,0,0-.36-.07v.91a.11.11,0,0,0,0,.06,6.15,6.15,0,0,1,.74,2.21c.13.54.22,1.09.32,1.63A1.91,1.91,0,0,1,18,21a4.63,4.63,0,0,1-.65,0,1.12,1.12,0,0,1-.94-1.1,2.8,2.8,0,0,1,.22-1.21c.06-.17.11-.34.16-.5a.66.66,0,0,0-.19-.71,1.94,1.94,0,0,1-1.58.14c-.16,0-.18.05-.23.15-.37.89-.75,1.77-1.13,2.66a1.14,1.14,0,0,1-1.23.82,4.82,4.82,0,0,1-1.76-.41,4.63,4.63,0,0,1-.71-.34,1.23,1.23,0,0,1-.51-1.66,1.74,1.74,0,0,1,1.75-1.15.6.6,0,0,0,.63-.36l.4-.88-.37.11a.74.74,0,0,1-.9-.41,1.72,1.72,0,0,1-.08-1.24A14.12,14.12,0,0,1,12,12.22l.37-.68A2.33,2.33,0,0,1,11.3,10a3.35,3.35,0,0,1,0-1.41.42.42,0,0,0-.08-.3,1.51,1.51,0,0,1-.33-1.34,1.32,1.32,0,0,1,2-.79.29.29,0,0,0,.31,0A3.38,3.38,0,0,1,15,6.07.45.45,0,0,0,15.24,6a1.89,1.89,0,0,1,1.35-.23A1.64,1.64,0,0,1,17.86,8a1.19,1.19,0,0,0,0,.77,2,2,0,0,1-.43,2.12,4.07,4.07,0,0,1,2.26.75.78.78,0,0,1,.8-.26,1.57,1.57,0,0,0,1-.19l.54-.28a3.07,3.07,0,0,1-.51-2.48,1.33,1.33,0,0,0,0-.66,1.73,1.73,0,0,1,.68-1.86,1.09,1.09,0,0,1,1.2.07.58.58,0,0,0,.54.07,4.87,4.87,0,0,1,1.74-.18.92.92,0,0,0,.33-.06,1.74,1.74,0,0,1,2.46,1.51,2,2,0,0,1-.14.93,2.64,2.64,0,0,0-.07.7A2.66,2.66,0,0,1,27,11l-.12.05a3.79,3.79,0,0,1,1.6,1.31,7.22,7.22,0,0,1,1.61,2.9A3.21,3.21,0,0,1,30,17.15a.59.59,0,0,1-.59.42,2.71,2.71,0,0,1-.4,0C28.88,17.51,28.76,17.46,28.65,17.44ZM16.12,13.29a1,1,0,0,1-.28-.08c-.37-.25-.75-.49-1.09-.77a1.2,1.2,0,0,0-.84-.2.23.23,0,0,0-.13.08c-.18.2-.37.4-.55.61a.92.92,0,0,0-.18.3,4.14,4.14,0,0,0-.13,1.82,2.88,2.88,0,0,0,2.93,2.34,1.27,1.27,0,0,0,.62-.23c.09-.05.08-.25.11-.38s0,0,0,0a3.82,3.82,0,0,1,.7-1.43c.27-.39.58-.73,1.15-.61L18.39,14h-1A1.4,1.4,0,0,1,16.12,13.29Zm-2-1.8a5.22,5.22,0,0,1,1,0,1.84,1.84,0,0,0,1.49-.34l.29-.17a1.8,1.8,0,0,0,.74-2.32c0-.05-.06-.11-.1-.12A.75.75,0,0,1,16.83,8a1.59,1.59,0,0,0-.51-.6c-.13-.12-.26-.22-.38-.34s-.18-.19-.34-.1a.19.19,0,0,1-.18,0c-.18-.17-.35-.36-.53-.54s-.11-.13-.17-.13a5.25,5.25,0,0,0-1.05,0,2.58,2.58,0,0,0-2.08,2.3,5.51,5.51,0,0,1,.69-.31,2,2,0,0,1,1.3.15A1.8,1.8,0,0,1,14.08,11.49Zm10.69-.31.8-.07a4.1,4.1,0,0,0,.5,0,2.44,2.44,0,0,0,1.84-2.66.87.87,0,0,1-.73-.72s0-.07-.07-.1c-.24-.25-.49-.5-.73-.76-.07-.09-.12-.13-.24-.08a.4.4,0,0,1-.46-.13c-.11-.16-.18-.33-.31-.57-.36,0-.81.07-1.24.16a2.9,2.9,0,0,0-2.39,3.3,2.07,2.07,0,0,0,.25.82c0-.3,0-.61,0-.92s0-.36,0-.54a.36.36,0,0,1,.33-.4s.07,0,.09,0a1.32,1.32,0,0,1,1.17-.2A1.74,1.74,0,0,1,25,9.33,1.81,1.81,0,0,1,24.77,11.18ZM27,15.33l-1.32-2.2-.09-.1-1-.84a.34.34,0,0,0-.21-.08,1.21,1.21,0,0,0-1,.5A4.23,4.23,0,0,1,23,13l-.22.23c-.05.05-.12.11-.13.18a4.9,4.9,0,0,0-.09,1.62A2.25,2.25,0,0,0,23.89,17a3.55,3.55,0,0,0,1.4.29c.05,0,.13-.08.17-.13s.15-.35.24-.51A3.68,3.68,0,0,1,27,15.33Zm-1.09-3a1.55,1.55,0,0,0,.17,1c.53.79,1,1.61,1.55,2.41a1.09,1.09,0,0,0,.26.21,4.91,4.91,0,0,1,.51.39c.2.21.35.46.54.68a1.07,1.07,0,0,0,.31.24c.25.12.43,0,.52-.24a2.79,2.79,0,0,0,0-1.76,7.87,7.87,0,0,0-2.43-3.62,1.61,1.61,0,0,0-.6-.3.73.73,0,0,0-.85.57ZM12.81,15.69l-.36.83c-.14.32-.27.64-.42.95a.75.75,0,0,1-.77.44,1.53,1.53,0,0,0-1.64,1.26,1.26,1.26,0,0,0,0,.51c0,.05.11.12.17.13.22,0,.44,0,.66.05a3.27,3.27,0,0,1,2.12,1s.07.05.11,0a.71.71,0,0,0,.6-.4l.42-1,.88-2.07A3.19,3.19,0,0,1,12.81,15.69Zm14.35-.15A3.47,3.47,0,0,0,26,16.74a1,1,0,0,0,.28,1.54,1,1,0,0,1,.42.84,2.38,2.38,0,0,1-.35,1.09c-.1.2-.19.41-.28.61s-.06.16-.11.27a1.22,1.22,0,0,0,1.66.45,1.72,1.72,0,0,0,1.05-1.85c-.05-.48-.08-1-.15-1.43a2.42,2.42,0,0,0-.53-1.52.32.32,0,0,1-.08-.12C27.75,16.19,27.37,15.93,27.16,15.54Zm-7.61,3.38c-.07-.38-.15-.92-.28-1.44a21.55,21.55,0,0,0-.58-2.09c-.18-.54-.59-.6-1-.18a4,4,0,0,0-.85,1.5,1,1,0,0,0,0,.72,1.23,1.23,0,0,1,.15.55,4.85,4.85,0,0,1-.19.75,6.64,6.64,0,0,0-.21.94.86.86,0,0,0,.5.95,1.78,1.78,0,0,0,1.38,0A1.66,1.66,0,0,0,19.55,18.92ZM20.09,14l0-.06h.25a.49.49,0,0,0,.43-.66,1.78,1.78,0,0,0-.21-.44,4.08,4.08,0,0,0-3-1.73,2,2,0,0,0-1.22.44.16.16,0,0,0-.07.11,5.2,5.2,0,0,0-.12.87,1.09,1.09,0,0,0,1,1.15c.54,0,1.09,0,1.64,0a.9.9,0,0,1,.28,0Zm4.42,3.48,0-.06-.06,0a2.56,2.56,0,0,1-1.79-1.26.23.23,0,0,0-.17-.08,3.67,3.67,0,0,1-1.39-.17.56.56,0,0,0-.79.39,2.41,2.41,0,0,1,.47.18,1.42,1.42,0,0,1,.41.36,5.64,5.64,0,0,1,1.17,2ZM12.1,10.88l0,0,.05.07c.19.29.52.3.81.38a1.16,1.16,0,0,0,1.48-1.07A1.67,1.67,0,0,0,13,8.58a1.07,1.07,0,0,0-1.24.57,1.28,1.28,0,0,0,.2,1.5l.09-.2.22.11a.55.55,0,0,0-.11-.23,2.79,2.79,0,0,1-.31-.39.77.77,0,0,1,0-.4s.08-.08.14-.09l.75,0c.26.37.26.37,0,.73l0,.07c-.12.17-.11.26.08.35l.25.12.17-.22.32.18-.35.5-.46-.2-.09.21Zm10.52,0a1.38,1.38,0,0,0,1.6.35.89.89,0,0,0,.59-.67,1.84,1.84,0,0,0-.14-1.22,1.62,1.62,0,0,0-1.34-.8.86.86,0,0,0-1.09.89,3.32,3.32,0,0,0,0,.63,6.12,6.12,0,0,0,.17.68l.2-.28.2.1a.63.63,0,0,0-.25-.54.41.41,0,0,1-.11-.58.25.25,0,0,1,.17-.13h.57c.09,0,.19-.07.24.07s.22.26,0,.43-.18.22-.28.32a.23.23,0,0,0,0,.31.31.31,0,0,0,.46,0l.15-.11.25.23-.51.45c-.24-.07-.46-.43-.66,0Zm-10,.76,0,.06a17.89,17.89,0,0,0-1.42,3,2.58,2.58,0,0,0-.14.67.9.9,0,0,0,.32.84l1.2-1.06c0-.5,0-1,.08-1.45A5.3,5.3,0,0,0,12.67,11.6Zm7.23.15c.59.55,1.26,1.05,1.19,2a3.78,3.78,0,0,0,1.23-.31.25.25,0,0,0,.09-.13,4.54,4.54,0,0,0,.12-.5,1.1,1.1,0,0,0-.05-.35c0-.1-.14-.2-.14-.3,0-.32-.06-.7.47-.73-.22-.13-.38-.3-.56-.32a1.41,1.41,0,0,0-.54.21l-.39.18a1.31,1.31,0,0,1-.78.11A.77.77,0,0,0,19.9,11.75Zm8.25-4.19c0-.19,0-.32-.06-.45a1.46,1.46,0,0,0-2.17-1c-.2.11-.22.22,0,.36a.34.34,0,0,0,.28,0,.83.83,0,0,1,1.1.47,2.77,2.77,0,0,1,.18.7.61.61,0,0,0,.29.45c.12.08.23.07.28-.07A4.11,4.11,0,0,0,28.15,7.56Zm-10.7.71a1.48,1.48,0,0,0-.26-1.9,1.56,1.56,0,0,0-2,0l.36.34.11-.09a.9.9,0,0,1,1.46,1A.49.49,0,0,0,17.45,8.27Zm-4.7-1.9a.92.92,0,0,0-1.34.18,1.07,1.07,0,0,0,.05,1.53,1.28,1.28,0,0,0,0-.18,4.1,4.1,0,0,1-.06-.49.43.43,0,0,1,.49-.47.34.34,0,0,0,.18,0C12.31,6.74,12.53,6.55,12.75,6.37Zm13.49,12.3-.39.7a3.36,3.36,0,0,0-.2.43,1.23,1.23,0,0,0,.07,1c.11-.23.23-.45.33-.67a5.44,5.44,0,0,0,.28-.66A.86.86,0,0,0,26.24,18.67Zm-4.52-11c.19-.19.11-.42.13-.62,0-.42.24-.58.64-.49a.34.34,0,0,0,.2,0c.19-.11.36-.23.56-.36a.94.94,0,0,0-.88-.16A1.45,1.45,0,0,0,21.72,7.7Zm-7.13,4.13a2.09,2.09,0,0,0,1.09.49l.07-.47A2.53,2.53,0,0,0,14.59,11.83Zm8.9-.2c-.17,0-.33,0-.49.06-.38.05-.41.09-.35.52a5.72,5.72,0,0,0,.57-.11C23.54,12,23.54,12,23.49,11.63Zm1-.06c.06.23.16.3.33.29h.46c.34,0,.34,0,.41-.33,0,0,0,0,0-.08Zm.51.58,0,0,.67.55v-.59ZM13.63,12l-.05-.17H13l0,.3Zm10.62-.1c-.1-.27-.2-.35-.37-.29s0,.23-.09.37Zm-10.36-.09c0,.2.11.23.23.2s.13-.12.19-.19a.9.9,0,0,0-.31,0Zm-.41.52c-.41.07-.41.07-.39.4Zm9.66.15c-.37,0-.38,0-.29.36Zm-7.29.2-.46-.06.42.31Z"/><path class="cls-4" d="M2.82,2.58l0-.15a.73.73,0,0,1,.38-.91.81.81,0,0,1,1,.25,1.76,1.76,0,0,1,.34,1c0,.34,0,.69,0,1,0,.18,0,.36,0,.59-.69-.07-1.38-.1-2.06-.21a1.48,1.48,0,0,1-.68-.35.78.78,0,0,1-.11-.94.73.73,0,0,1,.81-.36Z"/><path class="cls-4" d="M36.42,2.56a2.8,2.8,0,0,1,.48-.05.69.69,0,0,1,.65.56.76.76,0,0,1-.31.86,1.89,1.89,0,0,1-1,.34c-.33,0-.67,0-1,0l-.68,0c.06-.68.11-1.35.19-2A1.45,1.45,0,0,1,35,1.79a.82.82,0,0,1,1.14-.22.72.72,0,0,1,.29.83A1.24,1.24,0,0,1,36.42,2.56Z"/><path class="cls-4" d="M36.42,22.11c0,.06,0,.11,0,.15a.74.74,0,0,1-.37.9.83.83,0,0,1-1-.22,1.85,1.85,0,0,1-.36-1c0-.35,0-.71,0-1.07,0-.17,0-.34,0-.56.73.07,1.44.12,2.16.23a.93.93,0,0,1,.7.49.79.79,0,0,1-.07.88.7.7,0,0,1-.77.25Z"/><path class="cls-4" d="M4.62,20.37c0,.59-.06,1.21-.14,1.81a1.66,1.66,0,0,1-.26.68.79.79,0,0,1-1,.31.74.74,0,0,1-.38-1s0-.06,0-.1a2.49,2.49,0,0,1-.46.05.7.7,0,0,1-.66-.54.79.79,0,0,1,.3-.88,2,2,0,0,1,1-.34l.85,0Z"/><path class="cls-4" d="M32.53,11.19a4,4,0,0,0-.07.44q0,.72,0,1.44a2.37,2.37,0,0,0,.08.42h-.72a4.81,4.81,0,0,0,.07-.53,4.59,4.59,0,0,0,0-.9L31,13.5l-.84-1.45a2.22,2.22,0,0,0,.12,1.43H29.5a2.13,2.13,0,0,0,.07-.44c0-.47,0-.94,0-1.42a2.26,2.26,0,0,0-.07-.43h1c-.18.17-.08.32,0,.47l.55.95c.23-.4.46-.77.66-1.16,0,0,0-.16,0-.26Z"/><path class="cls-4" d="M6.59,14.14a1.43,1.43,0,0,1-1.27-.6,1.16,1.16,0,0,1,.55-1.68,1.77,1.77,0,0,1,1.3,0A1.14,1.14,0,0,1,8,13a1.17,1.17,0,0,1-1,1.08A3.47,3.47,0,0,1,6.59,14.14Zm-.06-.42A.78.78,0,0,0,7.38,13a.77.77,0,0,0-.81-.81.79.79,0,1,0,0,1.57Z"/><path class="cls-4" d="M35.43,13v.61a2.63,2.63,0,0,0-.39-.06h-2a2.57,2.57,0,0,0,.07-.46c0-.47,0-.94,0-1.42a2.5,2.5,0,0,0-.07-.44H35a1.45,1.45,0,0,0,.35-.07v.56a3.18,3.18,0,0,0-.43-.06h-1.2v.51c.36,0,.73.09,1.08-.09v.61c-.34-.21-.71,0-1.08-.12v.55A4.24,4.24,0,0,0,35.43,13Z"/><path class="cls-4" d="M8.36,11.79h.8c-.2.15-.15.36-.16.55s0,.48,0,.72a1.08,1.08,0,0,0,0,.36c.07.22.36.33.75.3s.49-.16.51-.41c0-.43,0-.86,0-1.29,0-.07-.07-.14-.12-.23h.71a3.07,3.07,0,0,0-.07.42c0,.36,0,.71,0,1.06a.72.72,0,0,1-.63.8,2.32,2.32,0,0,1-1.17,0,.71.71,0,0,1-.61-.77c0-.36,0-.71,0-1.06A2.34,2.34,0,0,0,8.36,11.79Z"/><path class="cls-4" d="M3.92,12.6l.33-.44c.1-.12.19-.24,0-.37h1a5.14,5.14,0,0,0-1,1.12.65.65,0,0,0-.11.34,2,2,0,0,0,0,.42c0,.13.06.27.09.41H3.49a1.37,1.37,0,0,0-.06-1.26L3,12.21c-.12-.15-.26-.28-.39-.42H3.63L3.46,12Z"/><path class="cls-4" d="M18.18,3.91a1,1,0,0,1,.15-.1.53.53,0,0,1,.6,0,.48.48,0,0,1,.16.55,1.82,1.82,0,0,1-.86,1,.17.17,0,0,1-.12,0,2,2,0,0,1-.79-.82.72.72,0,0,1-.05-.43A.49.49,0,0,1,18,3.8Z"/><path class="cls-4" d="M22,2.88a1.68,1.68,0,0,1,.3-.15.48.48,0,0,1,.64.54,1.14,1.14,0,0,1-.47.75c-.53.42-.38.43-.91,0a1.9,1.9,0,0,1-.44-.6.49.49,0,0,1,.17-.62.53.53,0,0,1,.63,0Z"/><path class="cls-4" d="M15.68,3.89a1.16,1.16,0,0,1-.62.76.11.11,0,0,1-.08,0A1.12,1.12,0,0,1,14.42,4a.52.52,0,0,1,.09-.4c.1-.14.27-.11.42,0a.33.33,0,0,0,.22,0A.35.35,0,0,1,15.68,3.89Z"/><path class="cls-4" d="M19.5,7a.7.7,0,0,0,.57,0c.25,0,.42.22.33.48a1.23,1.23,0,0,1-.56.61.17.17,0,0,1-.14,0,3.48,3.48,0,0,1-.52-.57A.34.34,0,0,1,19.5,7Z"/><path class="cls-4" d="M24.82,4.2c.1,0,.19-.08.28-.1a.33.33,0,0,1,.38.35,1.12,1.12,0,0,1-.61.76.13.13,0,0,1-.12,0,5.36,5.36,0,0,1-.43-.4.43.43,0,0,1,0-.58C24.41,4.06,24.58,4.06,24.82,4.2Z"/><path class="cls-4" d="M18.18,9.2A.24.24,0,0,1,18.51,9a2.09,2.09,0,0,0,.25,0C18.85,9,19,9,19,9a.32.32,0,0,1,0,.28,2.42,2.42,0,0,1-.37.42s-.06,0-.09,0A.83.83,0,0,1,18.18,9.2Z"/><path class="cls-4" d="M20.49,5.12l.42,0a.25.25,0,0,1,.21.4,3.19,3.19,0,0,1-.36.38l-.08,0c-.19,0-.5-.43-.43-.61s.12-.15.19-.23Z"/><path class="cls-4" d="M15.12,8.84a.4.4,0,0,1-.39.41.41.41,0,0,1-.41-.4.4.4,0,0,1,.39-.41A.41.41,0,0,1,15.12,8.84Z"/><path class="cls-4" d="M24.83,8.56a.39.39,0,0,1,.36-.42.4.4,0,0,1,.38.4A.42.42,0,0,1,25.2,9,.39.39,0,0,1,24.83,8.56Z"/><path class="cls-4" d="M17.66,16.49a.86.86,0,0,1,.29-.66.29.29,0,0,1,.49.17.72.72,0,0,1-.27.74c-.09.05-.25.08-.31,0S17.7,16.55,17.66,16.49Z"/><path class="cls-4" d="M17.46,12.84a.55.55,0,0,1-.58-.52.53.53,0,0,1,.55-.5.57.57,0,0,1,.58.53A.51.51,0,0,1,17.46,12.84Z"/></g></g></svg>