<svg xmlns="http://www.w3.org/2000/svg" viewBox="0 0 38.55 24.66"><defs><style>.cls-1{isolation:isolate;}.cls-2{opacity:0.15;}.cls-2,.cls-3{mix-blend-mode:multiply;}.cls-4{fill:#fff;}</style></defs><title>convert-FIX-SVG-03</title><g class="cls-1"><g id="Layer_1" data-name="Layer 1"><g class="cls-2"><path d="M19.21,1.81c2.15.09,4.29.13,6.43.27,1.95.13,3.88.36,5.82.54a.46.46,0,0,1,.36.21A9.31,9.31,0,0,0,35.7,6.2a.33.33,0,0,1,.16.19,21.58,21.58,0,0,1,.75,3.81,21.32,21.32,0,0,1,.08,3.66,22.17,22.17,0,0,1-.89,4.85.34.34,0,0,1-.15.18,9.57,9.57,0,0,0-3.8,3.22.49.49,0,0,1-.27.15c-1.12.13-2.24.27-3.37.37s-2.1.19-3.16.23c-2.09.08-4.18.17-6.27.17-1.92,0-3.85-.07-5.77-.19s-3.95-.36-5.92-.54A.54.54,0,0,1,6.63,22a9.33,9.33,0,0,0-3.85-3.18.39.39,0,0,1-.17-.19,23.1,23.1,0,0,1-.74-3.59,20.79,20.79,0,0,1-.12-4,22,22,0,0,1,.81-4.63.33.33,0,0,1,.16-.17,9.52,9.52,0,0,0,4-3.46.46.46,0,0,1,.28-.17c1-.12,2-.23,3-.33s1.82-.17,2.74-.22C14.92,2,17.07,1.9,19.21,1.81Zm-.14,20.55c1.82-.06,3.48-.1,5.15-.18,1.14-.05,2.28-.12,3.42-.22s2.31-.25,3.47-.36a.49.49,0,0,0,.35-.19,10.14,10.14,0,0,1,3.55-3,.39.39,0,0,0,.17-.21,20.7,20.7,0,0,0,.75-4.13,21.9,21.9,0,0,0,0-3.53,21,21,0,0,0-.65-3.61.35.35,0,0,0-.16-.2,10.11,10.11,0,0,1-3.71-3.22.47.47,0,0,0-.34-.2c-1.82-.16-3.63-.38-5.46-.49-2-.12-4.09-.18-6.13-.21-1.63,0-3.26.05-4.89.11-1.16,0-2.31.13-3.46.23s-2.36.24-3.54.35a.5.5,0,0,0-.39.23A10.05,10.05,0,0,1,3.37,6.75.43.43,0,0,0,3.18,7a21,21,0,0,0,0,11.13.37.37,0,0,0,.18.22A10,10,0,0,1,6.9,21.17a1.06,1.06,0,0,0,.83.48c1.81.14,3.61.36,5.42.48C15.17,22.25,17.2,22.29,19.07,22.36Z"/><path d="M35.27,2.43a.81.81,0,0,1,.94,0,.61.61,0,0,1,.15.9,1.07,1.07,0,0,1-.86.47,13.59,13.59,0,0,1-1.43,0s-.11-.07-.13-.11a3.69,3.69,0,0,1-.12-1.55,1.06,1.06,0,0,1,.36-.67A.65.65,0,0,1,35,1.34a.75.75,0,0,1,.39.78C35.34,2.21,35.3,2.3,35.27,2.43Z"/><path d="M3.18,22.11a.84.84,0,0,1-.81.07.63.63,0,0,1-.25-1,1.1,1.1,0,0,1,.8-.42c.49,0,1,0,1.45,0a.17.17,0,0,1,.12.1,3.2,3.2,0,0,1,.08,1.71,1.33,1.33,0,0,1-.32.52.62.62,0,0,1-.83.09.78.78,0,0,1-.31-.87Z"/><path d="M35.25,22.11a.79.79,0,0,1,0,.85.66.66,0,0,1-1,.14,1.18,1.18,0,0,1-.41-1A8.72,8.72,0,0,1,34,20.87c0-.05.07-.11.12-.12a4.05,4.05,0,0,1,1.59,0,1.56,1.56,0,0,1,.47.22.69.69,0,0,1,.29.9.8.8,0,0,1-1,.33Z"/><path d="M3.19,2.43a.78.78,0,0,1,.12-1,.71.71,0,0,1,1.12.19,1.33,1.33,0,0,1,.22.86,11,11,0,0,1-.16,1.15.16.16,0,0,1-.11.13,3.92,3.92,0,0,1-1.67,0,1.44,1.44,0,0,1-.41-.21A.69.69,0,0,1,2,2.69a.8.8,0,0,1,1-.36Z"/><path d="M18.79,21.29c-1.42-.05-3.26-.07-5.1-.18s-3.84-.33-5.75-.5a.35.35,0,0,1-.21-.12A11.46,11.46,0,0,0,4.31,17.6a.3.3,0,0,1-.15-.18,19.66,19.66,0,0,1,0-9.71.48.48,0,0,1,.18-.24,11.63,11.63,0,0,0,3.52-3,.47.47,0,0,1,.29-.16c1.9-.17,3.81-.35,5.71-.48a80,80,0,0,1,8.34-.12c1.81.07,3.62.2,5.43.33,1,.07,2,.19,2.92.29a.41.41,0,0,1,.23.13,11.39,11.39,0,0,0,3.44,3,.39.39,0,0,1,.14.21,19.84,19.84,0,0,1,.55,6.19,19,19,0,0,1-.59,3.6.49.49,0,0,1-.21.26,11.33,11.33,0,0,0-3.19,2.74.47.47,0,0,1-.36.18c-1.28.13-2.55.27-3.83.37s-2.51.17-3.76.22S20.45,21.25,18.79,21.29ZM17.31,11.23H16.17a3.2,3.2,0,0,1,.1.39q0,.93,0,1.86a2.84,2.84,0,0,1-.09.42H17a.65.65,0,0,1-.14-.23c0-.48,0-.95,0-1.43h0l1,1.7,1-1.71a9.43,9.43,0,0,1,0,1.18c0,.17-.06.34-.08.5h.84a1.58,1.58,0,0,1-.09-.36c0-.58,0-1.16,0-1.74,0-.2-.05-.41.17-.56H18.71c0,.11.05.22,0,.28-.25.45-.51.9-.78,1.37l-.68-1.2C17.18,11.54,17.11,11.39,17.31,11.23Zm6.3,4.68a1.45,1.45,0,0,1,.09.36c0,.62,0,1.23,0,1.84a2.67,2.67,0,0,1-.08.48h.85c-.06-.08-.14-.15-.14-.21,0-.5,0-1,0-1.55L26,18.42l-.12.16h.93a1.56,1.56,0,0,1-.09-.34c0-.65,0-1.29,0-1.93a1.83,1.83,0,0,1,.09-.39H26c0,.09.12.16.12.24,0,.47,0,.94,0,1.43-.05,0-.08,0-.09-.05-.47-.44-.93-.88-1.39-1.34-.05-.05,0-.17-.06-.29Zm.48-6.67h1.15l-.89-1.11L24.74,8a.64.64,0,0,0,.39-.58.69.69,0,0,0-.69-.84c-.76,0-1.52,0-2.28,0h0a.86.86,0,0,1,.13.39q0,.93,0,1.86a1.67,1.67,0,0,1-.09.42h.9c-.25-.36-.07-.73-.13-1.08.59-.09.62-.08.94.37l.24.32C24.23,9,24.34,9.09,24.09,9.24Zm-5.24,9.35c-.48-.29-.66-.74-1-1.11a1.21,1.21,0,0,0,.38-.15,1.18,1.18,0,0,0,.35-.39.73.73,0,0,0-.72-1c-.72,0-1.44,0-2.16,0h0a2.34,2.34,0,0,1,.1.4c0,.61,0,1.21,0,1.82a3.89,3.89,0,0,1-.09.47h.89c-.24-.35-.08-.73-.13-1.08.61-.08.62-.08.94.37l.25.35c.09.12.18.23-.08.36Zm-10.27,0h.05c.6,0,1.2,0,1.79,0a1.21,1.21,0,0,0,1.26-1.34,1.22,1.22,0,0,0-1.26-1.34c-.6,0-1.2,0-1.8,0h0a1.48,1.48,0,0,1,.09.38c0,.62,0,1.25,0,1.88A2.36,2.36,0,0,1,8.58,18.6ZM15,9.32c.16,0,.31,0,.46-.06a1.39,1.39,0,0,0,1.15-1.12A1.33,1.33,0,0,0,16,6.74a2,2,0,0,0-2.14.1,1.37,1.37,0,0,0-.16,2A1.74,1.74,0,0,0,15,9.32Zm14.81,8.24c.06.42,0,.48-.33.53a3,3,0,0,1-.84,0,.8.8,0,0,1-.69-.7.86.86,0,0,1,.48-.93,1.4,1.4,0,0,1,1.53.27l.32-.65a2.61,2.61,0,0,1-.37-.08,2.66,2.66,0,0,0-1.58-.09,1.42,1.42,0,0,0-1.06,1.19,1.31,1.31,0,0,0,.79,1.38,2.9,2.9,0,0,0,2.52-.28c-.3-.11-.2-.33-.21-.51s-.05-.39.16-.54l-1.11,0a3.25,3.25,0,0,1-.45-.07v.64C29.25,17.45,29.55,17.62,29.83,17.56ZM27.75,8.2V7.53a4.15,4.15,0,0,1-1.26.09V7c.51,0,1,0,1.49,0a2.1,2.1,0,0,1,.42.09V6.44a1.47,1.47,0,0,1-.37.1H25.7a2.24,2.24,0,0,1,.1.39c0,.62,0,1.23,0,1.84a2.94,2.94,0,0,1-.1.48h2.36a2,2,0,0,1,.41.08V8.67a1.76,1.76,0,0,1-.37.08H26.49V8.1h.91A1.89,1.89,0,0,1,27.75,8.2ZM19.26,6.55c0,.1.12.18.12.26,0,.49,0,1,0,1.48a.44.44,0,0,1-.37.45,1.91,1.91,0,0,1-.63,0c-.38,0-.52-.22-.52-.61s0-.74,0-1.1a3.86,3.86,0,0,1,.09-.49h-.85a2.87,2.87,0,0,1,.08.38c0,.52,0,1,0,1.55a.73.73,0,0,0,.56.69,2.61,2.61,0,0,0,1.27.1c.76-.12,1-.38,1-1.15,0-.38,0-.76,0-1.14a2.26,2.26,0,0,1,.08-.44Zm-6.45,12a1.56,1.56,0,0,1,0-.37c0-.17.12-.32.36-.29a4.6,4.6,0,0,0,.83,0c.25,0,.32.13.38.3a1.13,1.13,0,0,1,0,.36h1c-.1-.15-.21-.28-.3-.44l-1-1.74c-.09-.17-.17-.33,0-.49H13.07c.18.14.12.29,0,.43l-.91,1.79c-.09.16-.2.3-.3.45Zm9.27-4.67a2,2,0,0,1-.09-.37,4.28,4.28,0,0,1,0-.62.77.77,0,0,1,.12-.36,6,6,0,0,1,1.13-1.34H22c.12.1.26.17.14.32l-.46.64-.39-.53c-.11-.15-.2-.29.08-.43H20.05a2.67,2.67,0,0,1,.29.23,2.65,2.65,0,0,1,.21.26,5,5,0,0,0,.33.44,1.45,1.45,0,0,1,.43,1.3c0,.15-.06.3-.09.46ZM10.35,6.55c.16.18.32.33.46.5s.24.37.39.52a1.26,1.26,0,0,1,.37,1.11c0,.19.06.41-.19.55h.95a2.25,2.25,0,0,1-.09-.35c0-.22,0-.45,0-.67a.31.31,0,0,1,0-.2,7.84,7.84,0,0,1,1.2-1.45H12.34c0,.1.09.22.06.28a6.82,6.82,0,0,1-.47.67L11.55,7c-.1-.14-.24-.28.08-.44ZM20,18.11v-.25c0-.48,0-1,0-1.43a3,3,0,0,1,.08-.52h-.85a2.41,2.41,0,0,1,.1.43c0,.59,0,1.17,0,1.76a3.52,3.52,0,0,1-.1.51h2.14a2.07,2.07,0,0,1,.42.08V18c-.09.05-.16.13-.23.13C21,18.12,20.51,18.11,20,18.11Zm2.17-2.21a2.65,2.65,0,0,1,.09.44c0,.6,0,1.21,0,1.82a2.2,2.2,0,0,1-.09.43H23a2.41,2.41,0,0,1-.1-.43c0-.57,0-1.14,0-1.71,0-.19,0-.39.19-.55h-.95ZM21,7.42a5.14,5.14,0,0,0,.47-.63.69.69,0,0,0,0-.72.4.4,0,0,0-.49-.15.39.39,0,0,0-.21.48.33.33,0,0,0,.37.28l.21,0-.44.56Z"/><path d="M23,7.65V7.06c.43,0,.85,0,1.27,0,.07,0,.17.15.2.25a.21.21,0,0,1-.18.28,4,4,0,0,1-.5.05Z"/><path d="M16.48,17v-.55c.42,0,.84,0,1.25,0,.16,0,.23.12.23.27a.25.25,0,0,1-.25.28C17.31,17,16.91,17,16.48,17Z"/><path d="M9.36,16.37c.36,0,.69,0,1,.06a.67.67,0,0,1,.59.62,1.91,1.91,0,0,1,0,.48.73.73,0,0,1-.76.58c-.28,0-.55,0-.84,0Z"/><path d="M14.07,7.89A.87.87,0,0,1,15,7a.89.89,0,0,1,1,.9.9.9,0,0,1-1,.89A.88.88,0,0,1,14.07,7.89Z"/><path d="M14,17.53h-.86l.42-.85Z"/><path d="M19.41,2c2.15.09,4.29.13,6.43.27,1.94.13,3.88.36,5.82.54A.42.42,0,0,1,32,3,9.47,9.47,0,0,0,35.9,6.4a.33.33,0,0,1,.16.19,22.52,22.52,0,0,1,.75,3.81,21.32,21.32,0,0,1,.08,3.66A22.17,22.17,0,0,1,36,18.91a.34.34,0,0,1-.15.18,9.62,9.62,0,0,0-3.8,3.21.45.45,0,0,1-.27.16c-1.12.13-2.24.27-3.37.37s-2.11.19-3.16.23c-2.09.08-4.18.17-6.27.17-1.92,0-3.85-.07-5.77-.19s-4-.36-5.92-.54a.57.57,0,0,1-.46-.27A9.25,9.25,0,0,0,3,19.05a.39.39,0,0,1-.17-.19,23.25,23.25,0,0,1-.75-3.6,21.49,21.49,0,0,1-.11-4,22,22,0,0,1,.81-4.63.27.27,0,0,1,.16-.17A9.52,9.52,0,0,0,7,3a.42.42,0,0,1,.28-.17c1-.12,2-.24,3-.33s1.82-.17,2.74-.22C15.12,2.17,17.27,2.1,19.41,2Zm-.14,20.55c1.82-.06,3.48-.1,5.14-.18,1.15-.05,2.29-.13,3.43-.22s2.31-.25,3.47-.36a.44.44,0,0,0,.34-.2,10.4,10.4,0,0,1,3.55-3,.37.37,0,0,0,.18-.21,20,20,0,0,0,.74-4.13,20.92,20.92,0,0,0-.69-7.14.35.35,0,0,0-.16-.2,10.16,10.16,0,0,1-3.7-3.22.44.44,0,0,0-.34-.2c-1.82-.17-3.64-.38-5.46-.49-2-.12-4.09-.19-6.13-.21-1.63,0-3.26,0-4.89.11-1.16,0-2.31.13-3.47.22s-2.35.25-3.53.36a.49.49,0,0,0-.39.23A10.22,10.22,0,0,1,3.57,7a.43.43,0,0,0-.19.23A20.49,20.49,0,0,0,2.7,14a20.7,20.7,0,0,0,.73,4.29.39.39,0,0,0,.18.22,9.89,9.89,0,0,1,3.48,2.84,1.1,1.1,0,0,0,.84.48c1.81.14,3.61.36,5.42.47C15.37,22.45,17.39,22.49,19.27,22.56Z"/><path d="M35.47,2.62a.83.83,0,0,1,.94,0,.62.62,0,0,1,.15.91,1.1,1.1,0,0,1-.87.47,13.71,13.71,0,0,1-1.43,0s-.11-.07-.12-.11A3.86,3.86,0,0,1,34,2.33a1.13,1.13,0,0,1,.37-.67.65.65,0,0,1,.78-.12.78.78,0,0,1,.39.78C35.53,2.41,35.5,2.5,35.47,2.62Z"/><path d="M3.38,22.31a.84.84,0,0,1-.81.07.64.64,0,0,1-.25-1.05,1.07,1.07,0,0,1,.8-.41c.48,0,1,0,1.45,0a.17.17,0,0,1,.12.1,3.27,3.27,0,0,1,.08,1.7,1.37,1.37,0,0,1-.32.53.63.63,0,0,1-.83.09.78.78,0,0,1-.31-.88S3.35,22.4,3.38,22.31Z"/><path d="M35.45,22.31a.79.79,0,0,1,0,.85.67.67,0,0,1-1,.14,1.17,1.17,0,0,1-.4-1,10.82,10.82,0,0,1,.15-1.26.22.22,0,0,1,.12-.11,3.92,3.92,0,0,1,1.6,0,1.44,1.44,0,0,1,.47.22.68.68,0,0,1,.29.89.81.81,0,0,1-1,.34Z"/><path d="M3.39,2.63a.76.76,0,0,1,.12-1,.71.71,0,0,1,1.12.19,1.39,1.39,0,0,1,.22.86,11,11,0,0,1-.16,1.15A.18.18,0,0,1,4.58,4,3.76,3.76,0,0,1,2.91,4a1.35,1.35,0,0,1-.42-.2.71.71,0,0,1-.29-.88.82.82,0,0,1,1-.36Z"/><path d="M19,21.49c-1.42,0-3.26-.07-5.1-.19s-3.84-.32-5.76-.49a.41.41,0,0,1-.2-.12A11.5,11.5,0,0,0,4.5,17.8a.34.34,0,0,1-.14-.19,19.61,19.61,0,0,1-.05-9.7.4.4,0,0,1,.18-.24A11.63,11.63,0,0,0,8,4.64a.47.47,0,0,1,.29-.16C10.2,4.31,12.1,4.13,14,4a80,80,0,0,1,8.34-.12c1.81.07,3.62.2,5.43.33,1,.07,1.95.19,2.92.29a.32.32,0,0,1,.22.13,11.77,11.77,0,0,0,3.44,3,.33.33,0,0,1,.15.21,19.7,19.7,0,0,1,0,9.79.49.49,0,0,1-.21.26,11.37,11.37,0,0,0-3.2,2.74.45.45,0,0,1-.35.18c-1.28.12-2.55.27-3.83.37s-2.51.17-3.77.22S20.65,21.45,19,21.49ZM17.51,11.43H16.37a2.07,2.07,0,0,1,.09.38c0,.62,0,1.25,0,1.87a2.84,2.84,0,0,1-.09.42h.83c-.05-.08-.13-.16-.13-.23,0-.48,0-.95,0-1.43h0l1,1.7,1-1.71a9.43,9.43,0,0,1,0,1.18c0,.17-.06.34-.08.5h.84a1.72,1.72,0,0,1-.09-.36c0-.58,0-1.16,0-1.74,0-.2,0-.42.17-.57H18.91c0,.11.05.22,0,.29-.25.45-.51.89-.78,1.37l-.68-1.2C17.38,11.74,17.31,11.59,17.51,11.43Zm6.3,4.68a1.45,1.45,0,0,1,.09.36c0,.61,0,1.23,0,1.84a2.67,2.67,0,0,1-.08.48h.85c-.06-.08-.14-.15-.14-.22,0-.49,0-1,0-1.54l1.66,1.59-.12.16H27a1.5,1.5,0,0,1-.09-.35q0-1,0-1.92a1.83,1.83,0,0,1,.09-.39h-.84c.05.08.13.16.13.24,0,.47,0,.94,0,1.43-.05,0-.08,0-.1-.05-.46-.44-.93-.89-1.38-1.34,0,0,0-.18-.07-.29Zm.48-6.68h1.15l-.89-1.1a3.77,3.77,0,0,0,.38-.15.63.63,0,0,0,.4-.57c0-.5-.19-.81-.69-.84-.76,0-1.52,0-2.28,0h0a.79.79,0,0,1,.13.38c0,.63,0,1.25,0,1.87a1.67,1.67,0,0,1-.09.42h.9c-.25-.36-.07-.73-.13-1.08.59-.09.62-.08.94.37l.24.32C24.42,9.17,24.54,9.29,24.29,9.43Zm-5.24,9.36c-.48-.29-.66-.75-1-1.11a1.21,1.21,0,0,0,.38-.15,1.18,1.18,0,0,0,.35-.39.74.74,0,0,0-.72-1c-.72,0-1.44,0-2.16,0h0a2.34,2.34,0,0,1,.1.4c0,.6,0,1.21,0,1.82a2.63,2.63,0,0,1-.1.47h.9c-.24-.35-.08-.73-.13-1.08.61-.08.62-.08.94.37l.25.35c.09.12.18.23-.08.36Zm-10.27,0h0c.6,0,1.2,0,1.8,0a1.21,1.21,0,0,0,1.26-1.33,1.22,1.22,0,0,0-1.26-1.34c-.6,0-1.2,0-1.8,0h0a1.52,1.52,0,0,1,.09.37q0,.94,0,1.89A2.55,2.55,0,0,1,8.78,18.8Zm6.44-9.28c.15,0,.31,0,.46-.06a1.39,1.39,0,0,0,1.15-1.12,1.33,1.33,0,0,0-.61-1.4A2,2,0,0,0,14.08,7a1.36,1.36,0,0,0-.16,2A1.74,1.74,0,0,0,15.22,9.52ZM30,17.76c0,.42,0,.47-.33.53a3,3,0,0,1-.84,0,.8.8,0,0,1-.69-.7.86.86,0,0,1,.48-.93,1.4,1.4,0,0,1,1.53.27l.32-.65a2.33,2.33,0,0,1-.37-.08,2.59,2.59,0,0,0-1.58-.09,1.41,1.41,0,0,0-1.06,1.18,1.31,1.31,0,0,0,.79,1.39,2.87,2.87,0,0,0,2.52-.29c-.3-.11-.2-.32-.21-.5s-.06-.39.15-.54c-.38,0-.74,0-1.1,0a3,3,0,0,1-.45-.07v.64C29.45,17.64,29.75,17.82,30,17.76ZM28,8.39V7.73a4.17,4.17,0,0,1-1.26.09V7.23c.5,0,1,0,1.49,0a1.87,1.87,0,0,1,.41.09V6.64a1.3,1.3,0,0,1-.36.1H25.9a2.16,2.16,0,0,1,.09.39c0,.62,0,1.23,0,1.84a2.15,2.15,0,0,1-.09.47h2.36a2.12,2.12,0,0,1,.41.08V8.87A1.76,1.76,0,0,1,28.3,9c-.44,0-.87,0-1.31,0h-.3V8.3c.31,0,.61,0,.9,0A2.7,2.7,0,0,1,28,8.39ZM19.46,6.75c.05.1.12.18.12.25,0,.5,0,1,0,1.49a.44.44,0,0,1-.37.45,1.91,1.91,0,0,1-.63,0c-.39-.05-.52-.23-.52-.62s0-.73,0-1.1a2.53,2.53,0,0,1,.08-.48h-.85a3,3,0,0,1,.09.38c0,.52,0,1,0,1.55a.73.73,0,0,0,.56.69,2.73,2.73,0,0,0,1.27.1c.76-.12,1-.38,1-1.15,0-.38,0-.76,0-1.14a2.26,2.26,0,0,1,.08-.44ZM13,18.79a1.17,1.17,0,0,1,0-.37c0-.18.12-.32.36-.29a4.49,4.49,0,0,0,.82,0c.26,0,.33.13.39.3a1.13,1.13,0,0,1,0,.36h1c-.1-.15-.21-.29-.3-.44l-.95-1.74c-.09-.17-.17-.33,0-.49H13.27c.18.14.12.28.05.43l-.91,1.79c-.09.16-.2.3-.3.45Zm9.26-4.67a3.6,3.6,0,0,1-.08-.37,3.21,3.21,0,0,1,0-.62.74.74,0,0,1,.12-.36,6,6,0,0,1,1.13-1.34H22.2c.12.1.26.16.14.32s-.3.42-.46.64l-.39-.53c-.11-.15-.21-.29.08-.43H20.25a2.67,2.67,0,0,1,.29.23,2.65,2.65,0,0,1,.21.26,3.61,3.61,0,0,0,.33.44,1.43,1.43,0,0,1,.43,1.3c0,.15-.06.3-.09.46ZM10.55,6.75l.46.5a5,5,0,0,0,.39.52,1.26,1.26,0,0,1,.37,1.11c0,.19.06.41-.19.55h.95a2.25,2.25,0,0,1-.09-.35c0-.22,0-.45,0-.67a.36.36,0,0,1,0-.21,8.06,8.06,0,0,1,1.19-1.44H12.54c0,.1.09.22.06.28-.14.23-.3.43-.47.67l-.38-.52c-.11-.14-.24-.29.08-.44Zm9.62,11.56v-.25c0-.48,0-1,0-1.44,0-.17.06-.34.08-.51h-.84a2.41,2.41,0,0,1,.1.43c0,.58,0,1.17,0,1.76a3.52,3.52,0,0,1-.1.51h2.14c.14,0,.27.06.42.08v-.72c-.09,0-.16.13-.24.14C21.22,18.32,20.71,18.31,20.17,18.31Zm2.17-2.21a2.65,2.65,0,0,1,.09.44c0,.6,0,1.21,0,1.82a2.36,2.36,0,0,1-.09.43h.86a1.78,1.78,0,0,1-.1-.43c0-.57,0-1.14,0-1.71,0-.19-.05-.39.18-.55h-.94ZM21.19,7.62A5.14,5.14,0,0,0,21.66,7a.69.69,0,0,0-.05-.73.39.39,0,0,0-.48-.14.39.39,0,0,0-.21.48.35.35,0,0,0,.37.28l.21,0-.44.56Z"/><path d="M23.17,7.85V7.26c.43,0,.85,0,1.27,0,.07,0,.17.15.2.25a.22.22,0,0,1-.18.28,4.45,4.45,0,0,1-.5,0Z"/><path d="M16.68,17.17v-.56h1.25c.16,0,.23.12.23.27a.25.25,0,0,1-.25.28Z"/><path d="M9.56,16.57c.35,0,.69,0,1,.06a.65.65,0,0,1,.58.62,1.54,1.54,0,0,1,0,.48.72.72,0,0,1-.76.57c-.28,0-.55,0-.84,0Z"/><path d="M14.26,8.09a.88.88,0,0,1,1-.89.9.9,0,1,1-1,.89Z"/><path d="M14.2,17.73h-.87l.42-.85Z"/></g><g class="cls-3"><path d="M19.07,1.67c2.15.09,4.29.13,6.43.27,1.94.13,3.88.36,5.82.54a.42.42,0,0,1,.35.21,9.47,9.47,0,0,0,3.89,3.37.33.33,0,0,1,.16.19,22.52,22.52,0,0,1,.75,3.81,21.32,21.32,0,0,1,.08,3.66,22.17,22.17,0,0,1-.89,4.85.34.34,0,0,1-.15.18A9.72,9.72,0,0,0,31.7,22a.4.4,0,0,1-.26.16c-1.12.13-2.24.27-3.37.37s-2.11.19-3.16.23c-2.09.08-4.18.17-6.27.17-1.92,0-3.85-.07-5.77-.19S8.92,22.34,7,22.16a.57.57,0,0,1-.46-.27,9.25,9.25,0,0,0-3.85-3.18.39.39,0,0,1-.17-.19,23.25,23.25,0,0,1-.75-3.6,21.49,21.49,0,0,1-.11-4,22,22,0,0,1,.81-4.63.27.27,0,0,1,.16-.17A9.52,9.52,0,0,0,6.63,2.65a.42.42,0,0,1,.28-.17c1-.12,2-.24,3-.33s1.82-.17,2.74-.22C14.78,1.83,16.93,1.76,19.07,1.67Zm-.14,20.55c1.82-.06,3.48-.11,5.14-.18,1.15-.05,2.29-.13,3.43-.22s2.31-.25,3.47-.36a.44.44,0,0,0,.34-.2,10.4,10.4,0,0,1,3.55-3A.37.37,0,0,0,35,18a20,20,0,0,0,.74-4.13,20.92,20.92,0,0,0-.69-7.14.35.35,0,0,0-.16-.2,10.16,10.16,0,0,1-3.7-3.22.44.44,0,0,0-.34-.2c-1.82-.17-3.64-.38-5.46-.49-2-.12-4.09-.19-6.13-.21-1.63,0-3.26,0-4.89.11-1.16,0-2.31.13-3.47.22S8.59,3,7.41,3.14A.49.49,0,0,0,7,3.37,10.22,10.22,0,0,1,3.23,6.61.43.43,0,0,0,3,6.84a20.49,20.49,0,0,0-.68,6.84A20.7,20.7,0,0,0,3.09,18a.39.39,0,0,0,.18.22A9.89,9.89,0,0,1,6.75,21a1.1,1.1,0,0,0,.84.48c1.81.14,3.61.36,5.42.47C15,22.11,17.05,22.15,18.93,22.22Z"/><path d="M35.13,2.28a.83.83,0,0,1,.94,0,.63.63,0,0,1,.15.91,1.1,1.1,0,0,1-.87.47,13.71,13.71,0,0,1-1.43,0s-.11-.07-.12-.11A3.86,3.86,0,0,1,33.67,2,1.13,1.13,0,0,1,34,1.32a.65.65,0,0,1,.78-.12.78.78,0,0,1,.39.78C35.19,2.07,35.16,2.16,35.13,2.28Z"/><path d="M3,22a.84.84,0,0,1-.81.07A.64.64,0,0,1,2,21a1.07,1.07,0,0,1,.8-.41c.48,0,1,0,1.45,0a.17.17,0,0,1,.12.1,3.27,3.27,0,0,1,.08,1.7,1.37,1.37,0,0,1-.32.53.62.62,0,0,1-.83.08A.76.76,0,0,1,3,22.15,1.57,1.57,0,0,1,3,22Z"/><path d="M35.11,22a.79.79,0,0,1,0,.85.67.67,0,0,1-1,.14,1.17,1.17,0,0,1-.4-1,10.82,10.82,0,0,1,.15-1.26.22.22,0,0,1,.12-.11,3.92,3.92,0,0,1,1.6,0,1.44,1.44,0,0,1,.47.22.68.68,0,0,1,.29.89.81.81,0,0,1-1,.34Z"/><path d="M3.05,2.29a.76.76,0,0,1,.12-1,.71.71,0,0,1,1.12.19,1.39,1.39,0,0,1,.22.86,11,11,0,0,1-.16,1.15.18.18,0,0,1-.11.13,3.76,3.76,0,0,1-1.67,0,1.35,1.35,0,0,1-.42-.2.71.71,0,0,1-.29-.88.82.82,0,0,1,1-.36Z"/><path d="M18.65,21.15c-1.42,0-3.27-.07-5.1-.19s-3.84-.32-5.76-.49a.41.41,0,0,1-.2-.12,11.5,11.5,0,0,0-3.43-2.89A.34.34,0,0,1,4,17.27a19.61,19.61,0,0,1,0-9.7.4.4,0,0,1,.18-.24,11.63,11.63,0,0,0,3.52-3A.47.47,0,0,1,8,4.14c1.9-.17,3.8-.35,5.71-.48A80,80,0,0,1,22,3.54c1.81.07,3.62.2,5.43.33,1,.07,1.95.19,2.92.29a.32.32,0,0,1,.22.13,11.77,11.77,0,0,0,3.44,3,.33.33,0,0,1,.15.21,19.7,19.7,0,0,1,0,9.79.49.49,0,0,1-.21.26,11.37,11.37,0,0,0-3.2,2.74.45.45,0,0,1-.35.18c-1.28.12-2.55.27-3.83.37s-2.51.17-3.77.22S20.31,21.11,18.65,21.15ZM17.17,11.09H16a2.07,2.07,0,0,1,.09.38c0,.62,0,1.25,0,1.87a2,2,0,0,1-.08.42h.83c-.05-.08-.13-.16-.13-.23,0-.48,0-.95,0-1.43h0l1,1.7,1-1.71a9.43,9.43,0,0,1,0,1.18,4,4,0,0,1-.09.5h.85a1.72,1.72,0,0,1-.09-.36c0-.58,0-1.16,0-1.74,0-.2,0-.42.17-.57H18.57c0,.11.05.22,0,.29-.25.45-.51.89-.78,1.37l-.68-1.2C17,11.4,17,11.25,17.17,11.09Zm6.3,4.68a1.89,1.89,0,0,1,.09.36c0,.61,0,1.23,0,1.84a2.67,2.67,0,0,1-.08.48h.85c-.06-.08-.14-.15-.14-.22,0-.49,0-1,0-1.54l1.66,1.59-.12.16h.93a1.5,1.5,0,0,1-.09-.35q0-1,0-1.92a1.7,1.7,0,0,1,.09-.39h-.84c.05.08.13.16.13.24,0,.47,0,.94,0,1.43-.05,0-.08,0-.1-.05-.46-.44-.93-.89-1.38-1.34-.06,0,0-.18-.07-.29ZM24,9.09h1.14L24.21,8a3.77,3.77,0,0,0,.38-.15.63.63,0,0,0,.4-.57c0-.5-.19-.81-.69-.84-.76,0-1.52,0-2.28,0h0a.79.79,0,0,1,.13.38c0,.63,0,1.25,0,1.87a2.26,2.26,0,0,1-.09.42H23c-.25-.36-.07-.73-.13-1.08.59-.09.62-.08.94.37l.24.32C24.08,8.83,24.2,9,24,9.09Zm-5.24,9.36c-.48-.29-.66-.75-1-1.11a1.06,1.06,0,0,0,.37-.15,1.11,1.11,0,0,0,.36-.39.74.74,0,0,0-.72-1c-.72,0-1.44,0-2.16,0h0a3.89,3.89,0,0,1,.1.4c0,.6,0,1.21,0,1.82a2.63,2.63,0,0,1-.1.47h.9c-.24-.36-.08-.73-.13-1.08.61-.08.62-.08.94.37l.25.35c.09.12.18.23-.08.36Zm-10.27,0h0c.6,0,1.2,0,1.8,0a1.21,1.21,0,0,0,1.26-1.34,1.22,1.22,0,0,0-1.26-1.33c-.6,0-1.2,0-1.8,0h0a2.18,2.18,0,0,1,.09.37q0,.95,0,1.89A2.55,2.55,0,0,1,8.44,18.46Zm6.44-9.28c.15,0,.31,0,.46-.06A1.39,1.39,0,0,0,16.49,8a1.33,1.33,0,0,0-.61-1.4,2,2,0,0,0-2.14.09,1.36,1.36,0,0,0-.16,2A1.74,1.74,0,0,0,14.88,9.18Zm14.81,8.24c0,.42,0,.47-.33.53a3,3,0,0,1-.84,0,.81.81,0,0,1-.69-.7.86.86,0,0,1,.48-.93,1.4,1.4,0,0,1,1.53.27l.32-.65-.38-.08a2.56,2.56,0,0,0-1.57-.09A1.41,1.41,0,0,0,27.15,17a1.31,1.31,0,0,0,.79,1.39,2.87,2.87,0,0,0,2.52-.29c-.3-.11-.2-.32-.21-.5s-.06-.39.15-.54c-.38,0-.74,0-1.1,0a3,3,0,0,1-.45-.07v.64C29.11,17.3,29.41,17.48,29.69,17.42ZM27.61,8.05V7.39a4.17,4.17,0,0,1-1.26.09V6.89h1.49a1.87,1.87,0,0,1,.41.09V6.3a1.3,1.3,0,0,1-.36.1H25.56a2.16,2.16,0,0,1,.09.39c0,.61,0,1.23,0,1.84a2.15,2.15,0,0,1-.09.47h2.36a2.12,2.12,0,0,1,.41.08V8.53a1.76,1.76,0,0,1-.37.08H26.35V8h.9A2.7,2.7,0,0,1,27.61,8.05ZM19.12,6.41c.05.1.12.18.12.25,0,.5,0,1,0,1.49a.44.44,0,0,1-.37.45,1.91,1.91,0,0,1-.63,0c-.39,0-.52-.23-.52-.62s0-.73,0-1.1a2.53,2.53,0,0,1,.08-.48h-.85A3,3,0,0,1,17,6.8c0,.52,0,1,0,1.55a.73.73,0,0,0,.56.69,2.73,2.73,0,0,0,1.27.1c.76-.12,1-.38,1-1.15,0-.38,0-.76,0-1.14a3.35,3.35,0,0,1,.07-.44Zm-6.45,12a1.17,1.17,0,0,1,0-.37c0-.18.12-.32.36-.29a4.49,4.49,0,0,0,.82,0c.26,0,.33.13.39.3a1.13,1.13,0,0,1,0,.36h1c-.1-.15-.21-.29-.3-.44L14,16.27c-.09-.17-.17-.33,0-.49H12.93c.18.14.12.28.05.43L12.07,18c-.09.16-.2.3-.3.45Zm9.26-4.68a3,3,0,0,1-.08-.36,3.21,3.21,0,0,1,0-.62.74.74,0,0,1,.12-.36,6,6,0,0,1,1.13-1.34H21.86c.12.1.26.16.14.32s-.3.42-.46.64l-.4-.53c-.1-.15-.2-.29.09-.43H19.91a2.67,2.67,0,0,1,.29.23,2.65,2.65,0,0,1,.21.26,3.61,3.61,0,0,0,.33.44,1.43,1.43,0,0,1,.43,1.3c0,.15-.06.3-.09.45ZM10.21,6.41c.16.17.31.33.45.5s.25.37.4.52a1.26,1.26,0,0,1,.37,1.11c0,.19.06.41-.19.55h.95a2.25,2.25,0,0,1-.09-.35c0-.22,0-.45,0-.68a.34.34,0,0,1,0-.2,8.06,8.06,0,0,1,1.19-1.44H12.2c0,.1.09.22.06.28-.14.23-.3.43-.47.67l-.38-.52c-.11-.14-.24-.29.08-.44ZM19.83,18v-.25c0-.48,0-1,0-1.44,0-.17.06-.34.08-.51h-.84a2.41,2.41,0,0,1,.1.43c0,.58,0,1.17,0,1.76a3.52,3.52,0,0,1-.1.51h2.14c.14,0,.27.06.42.08v-.72c-.09.05-.16.13-.24.14C20.88,18,20.37,18,19.83,18ZM22,15.76a2.77,2.77,0,0,1,.09.43q0,.91,0,1.83a2.36,2.36,0,0,1-.09.43h.86a1.78,1.78,0,0,1-.1-.43c0-.57,0-1.14,0-1.71,0-.19-.05-.39.18-.55H22ZM20.85,7.28a5.14,5.14,0,0,0,.47-.63.69.69,0,0,0-.05-.73.39.39,0,0,0-.69.34.35.35,0,0,0,.37.28l.21,0-.44.56Z"/><path d="M22.83,7.51V6.92c.43,0,.85,0,1.27,0,.07,0,.17.15.2.25a.22.22,0,0,1-.18.28,2.89,2.89,0,0,1-.5,0Z"/><path d="M16.34,16.83v-.56h1.25c.16,0,.23.11.23.27a.25.25,0,0,1-.25.28C17.17,16.84,16.77,16.83,16.34,16.83Z"/><path d="M9.22,16.23c.35,0,.69,0,1,.06a.65.65,0,0,1,.58.62,1.54,1.54,0,0,1,0,.48.72.72,0,0,1-.76.57c-.28,0-.55,0-.84,0Z"/><path d="M13.92,7.75a.88.88,0,0,1,.95-.89.9.9,0,1,1-.95.89Z"/><path d="M13.86,17.39H13l.42-.85Z"/></g><path class="cls-4" d="M19.27,1.87c2.15.09,4.29.13,6.43.27,1.94.12,3.88.35,5.81.54a.42.42,0,0,1,.36.21,9.41,9.41,0,0,0,3.89,3.37.31.31,0,0,1,.16.19,22.52,22.52,0,0,1,.75,3.81,20.33,20.33,0,0,1,.07,3.66,21.58,21.58,0,0,1-.88,4.85.34.34,0,0,1-.15.18,9.72,9.72,0,0,0-3.81,3.21.4.4,0,0,1-.27.16c-1.12.13-2.24.27-3.36.37s-2.11.19-3.16.23c-2.09.08-4.18.16-6.27.16-1.92,0-3.85-.06-5.77-.18s-4-.36-5.92-.54a.57.57,0,0,1-.46-.27A9.4,9.4,0,0,0,2.84,18.9a.33.33,0,0,1-.17-.18,23.25,23.25,0,0,1-.75-3.6,22.38,22.38,0,0,1-.12-4,22.7,22.7,0,0,1,.82-4.63.31.31,0,0,1,.16-.18A9.43,9.43,0,0,0,6.83,2.85a.42.42,0,0,1,.28-.17c1-.12,2-.24,3-.33s1.83-.18,2.75-.22C15,2,17.12,2,19.27,1.87Zm-.14,20.54c1.81-.06,3.48-.1,5.14-.17,1.14,0,2.29-.13,3.42-.23s2.32-.24,3.48-.36a.4.4,0,0,0,.34-.19,10.31,10.31,0,0,1,3.55-3,.37.37,0,0,0,.18-.21A20,20,0,0,0,36,14.11a20.8,20.8,0,0,0,0-3.53A21.15,21.15,0,0,0,35.29,7a.33.33,0,0,0-.16-.19,10.25,10.25,0,0,1-3.7-3.22.41.41,0,0,0-.34-.2c-1.82-.17-3.64-.38-5.46-.49-2-.13-4.09-.19-6.13-.21-1.63,0-3.27.05-4.89.11-1.16,0-2.32.13-3.47.22s-2.35.25-3.53.36a.46.46,0,0,0-.39.23A10.22,10.22,0,0,1,3.43,6.81.45.45,0,0,0,3.24,7a20.85,20.85,0,0,0-.69,6.85,21.52,21.52,0,0,0,.74,4.29.39.39,0,0,0,.18.22A9.89,9.89,0,0,1,7,21.23a1.08,1.08,0,0,0,.84.48c1.81.14,3.61.36,5.42.47C15.23,22.31,17.25,22.34,19.13,22.41Z"/><path class="cls-4" d="M35.32,2.48a.84.84,0,0,1,1,0,.62.62,0,0,1,.14.91,1.1,1.1,0,0,1-.86.47,13.71,13.71,0,0,1-1.43,0A.2.2,0,0,1,34,3.73a3.81,3.81,0,0,1-.13-1.54,1.15,1.15,0,0,1,.37-.68A.64.64,0,0,1,35,1.4a.76.76,0,0,1,.4.77A2.54,2.54,0,0,1,35.32,2.48Z"/><path class="cls-4" d="M3.24,22.17a.89.89,0,0,1-.82.07.65.65,0,0,1-.24-1,1.07,1.07,0,0,1,.8-.41,14,14,0,0,1,1.45,0,.16.16,0,0,1,.11.1,3.17,3.17,0,0,1,.09,1.7,1.48,1.48,0,0,1-.33.53.61.61,0,0,1-.82.08.75.75,0,0,1-.31-.87A.71.71,0,0,1,3.24,22.17Z"/><path class="cls-4" d="M35.3,22.17a.77.77,0,0,1,0,.85.67.67,0,0,1-1,.14,1.21,1.21,0,0,1-.41-1c0-.41.1-.83.16-1.25a.22.22,0,0,1,.12-.11,3.75,3.75,0,0,1,1.6,0,1.65,1.65,0,0,1,.47.21.7.7,0,0,1,.29.9.83.83,0,0,1-1,.34Z"/><path class="cls-4" d="M3.24,2.48a.77.77,0,0,1,.13-1,.69.69,0,0,1,1.11.19,1.34,1.34,0,0,1,.23.86c0,.38-.1.77-.16,1.15,0,0-.07.12-.11.12a3.76,3.76,0,0,1-1.67,0,1.35,1.35,0,0,1-.42-.2.7.7,0,0,1-.29-.88.81.81,0,0,1,1-.36Z"/><path class="cls-4" d="M18.85,21.34c-1.42,0-3.27-.06-5.1-.18S9.91,20.84,8,20.67a.37.37,0,0,1-.2-.13,11.46,11.46,0,0,0-3.43-2.88.34.34,0,0,1-.14-.19,19.72,19.72,0,0,1-.61-5.93,20.05,20.05,0,0,1,.56-3.78.44.44,0,0,1,.17-.23,11.55,11.55,0,0,0,3.53-3,.46.46,0,0,1,.29-.17c1.9-.16,3.8-.34,5.71-.47a80,80,0,0,1,8.34-.12c1.81.07,3.62.2,5.43.32,1,.07,1.95.19,2.92.3a.34.34,0,0,1,.22.13,11.6,11.6,0,0,0,3.44,3,.38.38,0,0,1,.15.22,19.82,19.82,0,0,1,.55,6.19,20,20,0,0,1-.59,3.6.49.49,0,0,1-.21.26,11.37,11.37,0,0,0-3.2,2.74.47.47,0,0,1-.35.18c-1.28.12-2.56.27-3.84.37s-2.5.17-3.76.21S20.5,21.31,18.85,21.34Zm-1.48-10H16.23a1.89,1.89,0,0,1,.09.38c0,.62,0,1.24,0,1.87a2.07,2.07,0,0,1-.08.42h.83c-.05-.09-.13-.16-.13-.23,0-.48,0-1,0-1.43H17L18,14l1-1.7a9.37,9.37,0,0,1,0,1.18,4,4,0,0,1-.09.5h.85a2,2,0,0,1-.1-.36c0-.58,0-1.16,0-1.74,0-.2-.05-.42.17-.57h-1.1c0,.11.06.22,0,.29-.24.45-.5.89-.77,1.36-.24-.41-.46-.8-.68-1.19C17.24,11.59,17.17,11.45,17.37,11.29ZM23.67,16a1.89,1.89,0,0,1,.09.36c0,.61,0,1.23,0,1.84a2.67,2.67,0,0,1-.08.48h.85c-.06-.08-.14-.15-.14-.22,0-.5,0-1,0-1.55L26,18.48l-.12.16h.93a1.29,1.29,0,0,1-.09-.35q0-1,0-1.92a1.77,1.77,0,0,1,.08-.4H26c0,.09.13.17.13.24,0,.47,0,.94,0,1.44l-.09,0c-.46-.45-.93-.89-1.38-1.34-.06-.06,0-.18-.07-.29Zm.48-6.68h1.14l-.88-1.1A3.77,3.77,0,0,0,24.79,8a.63.63,0,0,0,.4-.58c0-.49-.19-.8-.69-.83-.76,0-1.52,0-2.29,0v0a.71.71,0,0,1,.14.38c0,.62,0,1.25,0,1.87a2.17,2.17,0,0,1-.09.41h.9c-.25-.35-.07-.72-.13-1.07.59-.09.62-.08.94.36l.23.33C24.28,9,24.39,9.15,24.15,9.29Zm-5.24,9.36a4.23,4.23,0,0,1-1-1.11,1.42,1.42,0,0,0,.37-.15,1,1,0,0,0,.35-.39.74.74,0,0,0-.71-1c-.72,0-1.44,0-2.16,0h0a2.25,2.25,0,0,1,.09.4c0,.6,0,1.21,0,1.82a2.77,2.77,0,0,1-.09.47h.89c-.23-.36-.07-.73-.12-1.08.61-.08.62-.08.94.37.08.12.16.23.25.34s.18.24-.08.37Zm-10.27,0h0c.6,0,1.2,0,1.8,0a1.21,1.21,0,0,0,1.26-1.34A1.22,1.22,0,0,0,10.47,16c-.59,0-1.2,0-1.79,0h0a2,2,0,0,1,.09.37q0,.94,0,1.89A2.55,2.55,0,0,1,8.64,18.66Zm6.44-9.28c.15,0,.31,0,.46-.06A1.39,1.39,0,0,0,16.69,8.2a1.33,1.33,0,0,0-.62-1.4,2,2,0,0,0-2.13.09,1.35,1.35,0,0,0-.16,2A1.79,1.79,0,0,0,15.08,9.38Zm14.81,8.23c.05.43,0,.48-.34.54a2.89,2.89,0,0,1-.83,0,.79.79,0,0,1-.69-.7.86.86,0,0,1,.48-.93A1.38,1.38,0,0,1,30,16.8l.32-.65L30,16.07A2.67,2.67,0,0,0,28.4,16a1.46,1.46,0,0,0-1.06,1.19,1.32,1.32,0,0,0,.79,1.39,3,3,0,0,0,2.53-.29c-.31-.11-.21-.32-.21-.5s-.06-.4.15-.54c-.38,0-.74,0-1.1,0-.16,0-.31-.05-.45-.07v.64C29.31,17.5,29.61,17.68,29.89,17.61ZM27.81,8.25V7.59a3.86,3.86,0,0,1-1.26.08V7.08H28a2,2,0,0,1,.41.09V6.5a1.33,1.33,0,0,1-.37.09H25.76a2,2,0,0,1,.09.39c0,.61,0,1.23,0,1.84a3,3,0,0,1-.09.47h2.36a1.89,1.89,0,0,1,.4.08V8.73a2.33,2.33,0,0,1-.36.08H26.55V8.16h.9A2.7,2.7,0,0,1,27.81,8.25ZM19.32,6.61a1.1,1.1,0,0,1,.12.25c0,.5,0,1,0,1.48a.44.44,0,0,1-.38.45,1.85,1.85,0,0,1-.62,0c-.39-.06-.52-.23-.53-.62s0-.73,0-1.1A2.78,2.78,0,0,1,18,6.61h-.85a2.08,2.08,0,0,1,.08.39c0,.52,0,1,0,1.55a.74.74,0,0,0,.55.69,2.65,2.65,0,0,0,1.28.09c.75-.11,1-.38,1-1.14,0-.38,0-.77,0-1.15,0-.14.06-.28.08-.43Zm-6.45,12a1.17,1.17,0,0,1,0-.37c0-.18.12-.32.36-.3A3.75,3.75,0,0,0,14,18c.25,0,.33.13.38.31a.89.89,0,0,1,0,.36h1c-.1-.15-.22-.29-.3-.44l-.95-1.75c-.09-.16-.17-.32,0-.48H13.13c.18.14.12.28,0,.43l-.92,1.78a4.43,4.43,0,0,1-.29.46ZM22.13,14a1.76,1.76,0,0,1-.08-.37,3.11,3.11,0,0,1,0-.61.65.65,0,0,1,.12-.36,6,6,0,0,1,1.13-1.34H22.06c.12.1.26.16.14.32s-.3.41-.46.63l-.4-.52c-.11-.15-.2-.29.09-.43H20.11a2.47,2.47,0,0,1,.28.23,2.75,2.75,0,0,1,.22.26,3.61,3.61,0,0,0,.33.44,1.43,1.43,0,0,1,.43,1.3l-.09.45ZM10.41,6.61c.16.17.31.33.45.5s.25.36.4.52a1.28,1.28,0,0,1,.37,1.11c0,.19.06.41-.19.55h1a1.64,1.64,0,0,1-.09-.35c0-.22,0-.45,0-.68a.34.34,0,0,1,0-.2,7.78,7.78,0,0,1,1.19-1.45H12.4c0,.11.09.23.06.29-.14.23-.3.43-.47.67l-.38-.52c-.11-.14-.24-.29.08-.44ZM20,18.17v-.25c0-.48,0-1,0-1.44,0-.17.06-.34.08-.51h-.84a1.74,1.74,0,0,1,.09.43c0,.58,0,1.17,0,1.75a2.58,2.58,0,0,1-.09.52h.19c.65,0,1.29,0,1.94,0a2.31,2.31,0,0,1,.43.08V18c-.09,0-.16.13-.24.13ZM22.2,16a2.77,2.77,0,0,1,.09.43c0,.61,0,1.22,0,1.82a2.29,2.29,0,0,1-.09.44h.85a2.36,2.36,0,0,1-.09-.43c0-.57,0-1.14,0-1.71,0-.19-.05-.39.18-.55-.34,0-.63,0-.92,0ZM21.05,7.48a4.25,4.25,0,0,0,.46-.64.65.65,0,0,0,0-.72.38.38,0,0,0-.69.33.35.35,0,0,0,.36.29l.21,0-.43.56Z"/><path class="cls-4" d="M23,7.71V7.12c.43,0,.85,0,1.27,0,.07,0,.17.15.2.24a.22.22,0,0,1-.18.29,2.92,2.92,0,0,1-.51,0Z"/><path class="cls-4" d="M16.54,17v-.56h1.24c.16,0,.24.11.24.27a.26.26,0,0,1-.25.28Z"/><path class="cls-4" d="M9.41,16.42c.36,0,.7,0,1,.06a.66.66,0,0,1,.59.63,1.55,1.55,0,0,1,0,.48.73.73,0,0,1-.77.57c-.27,0-.54,0-.84,0Z"/><path class="cls-4" d="M14.12,8a.87.87,0,0,1,1-.89.9.9,0,1,1-1,.89Z"/><path class="cls-4" d="M14.06,17.59h-.87l.42-.85Z"/></g></g></svg>