<svg xmlns="http://www.w3.org/2000/svg" viewBox="0 0 38.55 24.66"><defs><style>.cls-1{isolation:isolate;}.cls-2{opacity:0.15;}.cls-2,.cls-3{mix-blend-mode:multiply;}.cls-4{fill:#fff;}</style></defs><title>convert-FIX-SVG-03</title><g class="cls-1"><g id="Layer_1" data-name="Layer 1"><g class="cls-2"><path d="M36.88,22a3.94,3.94,0,0,0-2.66-1.73,17.29,17.29,0,0,0-3.78-.65A32.93,32.93,0,0,0,25,19.7c-1.58.14-3.15.32-4.72.53-1.92.26-3.82.57-5.73.86-1.49.22-3,.46-4.48.66a28.81,28.81,0,0,1-5.25.3,7.19,7.19,0,0,1-2.66-.55.87.87,0,0,1-.61-.94q0-8.94,0-17.9V2.48A5.31,5.31,0,0,0,4.84,4.22,23,23,0,0,0,11,4.87a38.22,38.22,0,0,0,5.65-.47c2.7-.44,5.39-.94,8.1-1.39,1.58-.26,3.17-.51,4.76-.72a17.32,17.32,0,0,1,3.81-.09,7.36,7.36,0,0,1,3.38,1,.28.28,0,0,1,.16.28q0,9.18,0,18.35ZM3.63,11.56c0,.16-.07.32.15.38,0,0,.05.11.05.16,0,.91,0,1.82,0,2.73,0,.06,0,.16-.06.17-.22.06-.13.21-.14.37h1.5c0-.15.07-.31-.15-.37a.16.16,0,0,1,0-.1V13.52H5l1.14,2,1.24-2q0,.72,0,1.41a.13.13,0,0,1,0,.09c-.23.05-.16.21-.15.38H8.74c0-.15.08-.31-.14-.37,0,0,0-.1,0-.15,0-.92,0-1.84,0-2.77,0,0,0-.14,0-.14.24-.06.15-.23.15-.39H6.94l.14.5-.9,1.54L5.28,12h.09l.12-.42Zm25.11-.88.28-.14a1.1,1.1,0,0,0,.63-1.24,1.06,1.06,0,0,0-.89-1,2.12,2.12,0,0,0-.67-.05c-.67,0-1.35.09-2,.15L25,8.52c.07.14.12.25.18.35s.13.13.13.2q.15,1.48.27,3c0,.06,0,.15-.05.16-.23.09-.11.25-.12.41l1.68-.14c0-.17,0-.34-.2-.38,0,0-.08-.1-.08-.16,0-.33-.06-.66-.08-1l.62,0a.19.19,0,0,1,.15,0l.89,1c-.28.09-.16.25-.14.42l1.92-.16a1.21,1.21,0,0,1,0-.18.86.86,0,0,0,0-.13C29.45,11.69,29.22,11.08,28.74,10.68Zm-7.91-1c-.1,0-.22-.13-.28-.1-.21.1-.4,0-.59,0a3.58,3.58,0,0,0-2.39.2,2.09,2.09,0,0,0-1.19,2.15A2,2,0,0,0,18,13.6a4.27,4.27,0,0,0,3.37-.73.19.19,0,0,0,0-.33.32.32,0,0,1-.14-.17q0-.34-.06-.69c0-.06,0-.16,0-.17.22-.1.14-.26.12-.42H21.1l-1.77.15c-.07,0-.18,0-.2-.05-.1-.24-.25-.12-.42-.1l.11,1.26c.27,0,.27,0,.39-.18,0,0,.05-.06.08-.06l.76-.06c.05.37.05.38-.27.48a2.56,2.56,0,0,1-1.23.13,1.06,1.06,0,0,1-.93-.9,1.07,1.07,0,0,1,.61-1.17,1.89,1.89,0,0,1,1.67,0s.1,0,.11.07c0,.18.2.18.34.23Zm11.57,1.7a1.61,1.61,0,0,1,0-.22c0-.73.09-1.46.12-2.2,0-.19,0-.35.26-.37V8.25l-1.7-.1c0,.15.06.26.1.37s.12.16.12.23c-.05,1-.11,2-.18,3,0,0,0,.13-.06.14-.26,0-.18.22-.18.39l1,.06,2.43.14c.07,0,.19,0,.2.08.06.24.23.15.4.15L35,11.31c-.18,0-.34-.08-.42.13,0,0-.1.05-.15.05l-.44,0Zm-23.06,0-.05.06a1.15,1.15,0,0,0,.21.27c.14.1.33.13.46.24.44.37.88.75,1.31,1.14a.52.52,0,0,1,.14.22c.08.33.14.66.21,1,0,.05,0,.13,0,.14-.23.09-.11.24-.08.41l1.57-.32c-.06-.13-.09-.3-.15-.31s-.19-.15-.21-.28c-.06-.29-.13-.57-.19-.85a.39.39,0,0,1,0-.24c.24-.55.49-1.09.75-1.63.05-.1.12-.24.21-.28s.2-.25.1-.44l-1.77.37c0,.21,0,.35.29.36l-.38.86-.71-.65c.26-.11.21-.26.12-.44Zm15,1.16c-.21,0-.25-.12-.27-.27-.15-.91-.29-1.83-.45-2.73,0-.19-.05-.33.16-.4l-.05-.32-1.66.25c0,.17,0,.35.23.38,0,0,.08.1.09.15.16,1,.32,1.95.47,2.92,0,.06,0,.17,0,.19-.22.11-.12.26-.08.42l1.64-.26ZM8.74,20l.07.1a.65.65,0,0,0,.79.26.6.6,0,0,0,.32-.74,1.66,1.66,0,0,0-.12-.31,3.22,3.22,0,0,0-1.09-1.08,7.51,7.51,0,0,0-.72.66,2.82,2.82,0,0,0-.43.78.56.56,0,0,0,.3.69.67.67,0,0,0,.78-.2C8.68,20.11,8.7,20.06,8.74,20Zm-4.21.26a.68.68,0,0,0,.87.41.71.71,0,0,0,.29-1,3,3,0,0,0-.82-1.17.23.23,0,0,0-.2,0,5.1,5.1,0,0,0-.82.55,2.27,2.27,0,0,0-.46.64.51.51,0,0,0,.1.61.56.56,0,0,0,.62.15A3.55,3.55,0,0,0,4.53,20.26ZM33.69,3.53c-.16-.45-.48-.65-.84-.54a.71.71,0,0,0-.39.88,2.8,2.8,0,0,0,.71,1.28.21.21,0,0,0,.19,0,5.18,5.18,0,0,0,.87-.47,1.91,1.91,0,0,0,.55-.65.54.54,0,0,0-.51-.78A.68.68,0,0,0,33.69,3.53Zm-3.76-.14a.79.79,0,0,0-.06-.1.68.68,0,0,0-.74-.17.54.54,0,0,0-.33.6,1.52,1.52,0,0,0,.19.5,2.85,2.85,0,0,0,1.05.9.17.17,0,0,0,.18,0A8.93,8.93,0,0,0,31,4.23a1.35,1.35,0,0,0,.21-.59A.58.58,0,0,0,30.36,3,2,2,0,0,0,29.93,3.39ZM26.24,4l-.13-.15a.63.63,0,0,0-.72-.15.54.54,0,0,0-.31.61,1.21,1.21,0,0,0,.17.46,2.78,2.78,0,0,0,1.1.91.15.15,0,0,0,.17,0,7.7,7.7,0,0,0,.77-.94,1.34,1.34,0,0,0,.15-.66.56.56,0,0,0-.74-.51A.7.7,0,0,0,26.24,4ZM12.38,19.47a1.71,1.71,0,0,0,.11.14.66.66,0,0,0,.77.14.61.61,0,0,0,.27-.7,1.75,1.75,0,0,0-.15-.34,2.94,2.94,0,0,0-1.1-.94.18.18,0,0,0-.16,0,11,11,0,0,0-.78.91,1.41,1.41,0,0,0-.18.58.58.58,0,0,0,.42.63.64.64,0,0,0,.72-.31ZM15.94,19l.09.11a.65.65,0,0,0,.79.16.59.59,0,0,0,.24-.74,1.31,1.31,0,0,0-.22-.4,3,3,0,0,0-1.07-.8.16.16,0,0,0-.15,0,2.75,2.75,0,0,0-.87,1.3c-.13.54.22,1,.7.85A.62.62,0,0,0,15.94,19Zm3.27-2.31-.29.33a3,3,0,0,0-.31.4,4.69,4.69,0,0,0-.34.8.64.64,0,0,0,.34.72.62.62,0,0,0,.69-.15,1.45,1.45,0,0,0,.19-.29l.12.13a.67.67,0,0,0,.75.09.58.58,0,0,0,.24-.68,1.6,1.6,0,0,0-.35-.57A12.8,12.8,0,0,0,19.21,16.71ZM22.65,4.49l-.1-.11a.64.64,0,0,0-.76-.11.58.58,0,0,0-.24.7,1.49,1.49,0,0,0,.23.43,2.94,2.94,0,0,0,1.08.79.22.22,0,0,0,.19-.05,5.2,5.2,0,0,0,.53-.63,1.41,1.41,0,0,0,.31-.9.59.59,0,0,0-.36-.56.58.58,0,0,0-.65.12A2,2,0,0,0,22.65,4.49Zm-3.5.61A.45.45,0,0,0,19.08,5a.6.6,0,0,0-1,.67.74.74,0,0,0,.14.23,3.76,3.76,0,0,0,.72.61c.63.38.44.39.93-.16a2.08,2.08,0,0,0,.49-1,.68.68,0,0,0-.44-.81C19.6,4.51,19.3,4.7,19.15,5.1Zm3.58,11.14a6.06,6.06,0,0,0-.58.69,3.09,3.09,0,0,0-.36.81.63.63,0,0,0,.33.7.61.61,0,0,0,.68-.14A3.39,3.39,0,0,0,23,18l.12.14a.63.63,0,0,0,.72.11.58.58,0,0,0,.28-.67,1.58,1.58,0,0,0-.23-.47A3.24,3.24,0,0,0,22.73,16.24Zm-7.1-10.6a.74.74,0,0,0-.09-.12.65.65,0,0,0-.72-.14.55.55,0,0,0-.3.62,1.44,1.44,0,0,0,.26.56,2.7,2.7,0,0,0,1,.78.17.17,0,0,0,.17,0,6.78,6.78,0,0,0,.7-.9,1.49,1.49,0,0,0,.15-.7.53.53,0,0,0-.37-.52.55.55,0,0,0-.59.11A1.76,1.76,0,0,0,15.63,5.64ZM30.29,15.89c-.27.23-.55.45-.8.69a1.26,1.26,0,0,0-.42.79.63.63,0,0,0,.3.62.61.61,0,0,0,.66-.07c.07-.07.13-.16.2-.24a.41.41,0,0,1,.05.09.63.63,0,0,0,.65.34.55.55,0,0,0,.46-.53,1.66,1.66,0,0,0-.16-.69A3.06,3.06,0,0,0,30.29,15.89ZM12.15,6l-.08-.11a.64.64,0,0,0-.69-.23.55.55,0,0,0-.37.62,1.36,1.36,0,0,0,.21.56,3.06,3.06,0,0,0,1.12.94c.27-.31.55-.62.8-1a1,1,0,0,0,.2-.76.6.6,0,0,0-.42-.51.63.63,0,0,0-.63.21A1.54,1.54,0,0,0,12.15,6ZM26.36,15.9c-.21.2-.41.38-.59.57a1.75,1.75,0,0,0-.47.9.66.66,0,0,0,.34.7.61.61,0,0,0,.69-.16,2,2,0,0,0,.16-.24l.09.12a.61.61,0,0,0,.73.21.6.6,0,0,0,.32-.7,1.46,1.46,0,0,0-.23-.51A3.12,3.12,0,0,0,26.36,15.9ZM4.55,5.82c-.06-.13-.08-.19-.11-.24a.56.56,0,0,0-.5-.33.49.49,0,0,0-.5.28A1,1,0,0,0,3.33,6a2.35,2.35,0,0,0,.82,1.45s.12,0,.16,0a5,5,0,0,0,.82-.52,1.94,1.94,0,0,0,.46-.63.59.59,0,0,0-.23-.76.6.6,0,0,0-.76.15S4.58,5.75,4.55,5.82ZM33.8,18.34s0,.07,0,.12a.55.55,0,0,0,.51.41.51.51,0,0,0,.55-.31A1.07,1.07,0,0,0,35,18a2.42,2.42,0,0,0-.65-1.34.19.19,0,0,0-.18,0,8.49,8.49,0,0,0-1.06.6,1.24,1.24,0,0,0-.38.56.55.55,0,0,0,.64.73A1.89,1.89,0,0,0,33.8,18.34ZM8.39,6.05a1.71,1.71,0,0,0-.48-.33c-.45-.13-.81.3-.7.79A2.23,2.23,0,0,0,8,7.65c.35.3.23.28.58,0a2.46,2.46,0,0,0,.51-.45,3,3,0,0,0,.39-.64.64.64,0,0,0-.14-.69.48.48,0,0,0-.56-.14A1.86,1.86,0,0,0,8.39,6.05Z"/><path d="M23.43,22.41V20.49c.51-.08,1-.18,1.55-.25A21.33,21.33,0,0,1,35,21.3a3.1,3.1,0,0,1,1.21.74c.4.4.31.8-.22,1a2.77,2.77,0,0,1-1.61.06c-.9-.24-1.78-.52-2.67-.79a20.34,20.34,0,0,0-3.44-.85,6.54,6.54,0,0,0-4.76.92Z"/><path d="M15.23,2.13c0,.54,0,1.06,0,1.58,0,0-.09.12-.14.13-.71.11-1.42.25-2.14.29-1.22,0-2.45.08-3.67,0A15.93,15.93,0,0,1,3.34,3a5.11,5.11,0,0,1-.83-.45A.56.56,0,0,1,2.2,2c0-.25.23-.36.44-.44a2.69,2.69,0,0,1,1.61-.06c.9.23,1.8.51,2.69.79a20.8,20.8,0,0,0,3.46.85,6.48,6.48,0,0,0,4.7-.91Z"/><path d="M26.48,10.1l-.07-.88c.6,0,1.18-.08,1.76-.09.26,0,.36.13.38.37a.36.36,0,0,1-.33.43c-.43.06-.87.09-1.3.14Z"/><path d="M37.08,22.22a4,4,0,0,0-2.66-1.74,17.28,17.28,0,0,0-3.78-.64,32.93,32.93,0,0,0-5.44.06c-1.58.14-3.15.32-4.73.53-1.91.26-3.81.57-5.72.86-1.5.22-3,.46-4.48.66a29.73,29.73,0,0,1-5.25.3,7.15,7.15,0,0,1-2.66-.55.89.89,0,0,1-.62-.94c0-6,0-11.93,0-17.9V2.68A5.36,5.36,0,0,0,5,4.42a23.44,23.44,0,0,0,6.19.65,38,38,0,0,0,5.64-.47c2.71-.44,5.4-.94,8.11-1.39,1.58-.26,3.17-.51,4.76-.72a17.24,17.24,0,0,1,3.8-.09,7.25,7.25,0,0,1,3.39,1,.29.29,0,0,1,.16.28q0,9.18,0,18.35ZM3.83,11.76c0,.15-.07.32.15.38,0,0,.05.11.05.16,0,.91,0,1.82,0,2.73,0,.06,0,.16-.06.16-.22.06-.13.22-.14.37h1.5c0-.15.07-.3-.15-.36a.16.16,0,0,1,0-.1c0-.46,0-.92,0-1.38h0l1.14,2,1.23-2c0,.48,0,.94,0,1.41a.13.13,0,0,1,0,.09c-.24,0-.16.21-.15.38H8.93c0-.15.09-.32-.13-.38,0,0-.06-.09-.06-.14,0-.92,0-1.85,0-2.77,0-.05,0-.14.05-.14.23-.06.15-.23.15-.39H7.14l.14.49-.9,1.55-.91-1.63h.1l.11-.42Zm25.11-.89.27-.13a1.1,1.1,0,0,0,.64-1.24,1.05,1.05,0,0,0-.89-1,2.15,2.15,0,0,0-.67,0c-.67,0-1.35.09-2,.14l-1.1.1c.07.14.12.25.18.35s.13.13.13.2c.1,1,.18,2,.27,3,0,0,0,.15-.05.16-.24.08-.12.25-.13.41l1.69-.14c0-.17,0-.35-.21-.39,0,0-.07-.1-.07-.15,0-.33-.06-.66-.08-1l.61,0a.19.19,0,0,1,.15,0l.9,1c-.28.08-.16.25-.14.42l1.92-.16c0-.07,0-.13,0-.18a.35.35,0,0,0,0-.13C29.65,11.89,29.42,11.27,28.94,10.87ZM21,9.86c-.1,0-.22-.12-.28-.09-.21.1-.4,0-.59,0a3.54,3.54,0,0,0-2.4.2,2.09,2.09,0,0,0-1.18,2.15,2,2,0,0,0,1.56,1.72,4.33,4.33,0,0,0,3.38-.73.19.19,0,0,0,0-.33.32.32,0,0,1-.14-.17,5.36,5.36,0,0,1-.06-.7.23.23,0,0,1,0-.17c.22-.09.14-.25.12-.41H21.3l-1.77.15c-.07,0-.19,0-.2,0-.1-.24-.26-.13-.42-.1L19,12.54c.27,0,.27,0,.39-.17,0,0,.05-.06.07-.06l.77-.06c.05.37.05.38-.27.48a2.56,2.56,0,0,1-1.23.13,1.09,1.09,0,0,1-.32-2.07,1.89,1.89,0,0,1,1.67,0s.1,0,.1.07.21.18.35.23ZM32.6,11.57a1.61,1.61,0,0,1,0-.22c0-.73.09-1.47.12-2.2,0-.19,0-.35.26-.37V8.45l-1.71-.1c.05.15.07.26.11.37s.12.16.12.23c-.05,1-.12,2-.18,3,0,.05,0,.13-.06.14-.26,0-.18.21-.18.38l1,.06,2.43.14c.07,0,.18,0,.2.09.06.24.23.15.4.15l.07-1.39c-.17,0-.34-.08-.41.14,0,0-.1,0-.15,0l-.44,0Zm-23.06,0-.06.07c.08.09.13.21.22.27s.33.13.46.24c.44.37.87.75,1.31,1.14a.45.45,0,0,1,.13.22c.09.33.15.66.22,1,0,0,0,.12,0,.13-.23.1-.11.25-.08.42l1.57-.32c-.06-.13-.09-.3-.15-.31s-.19-.16-.21-.29c-.06-.28-.13-.56-.19-.84a.48.48,0,0,1,0-.24c.25-.55.5-1.09.76-1.63a.56.56,0,0,1,.21-.28c.23-.11.2-.25.1-.44l-1.78.36c0,.21,0,.36.3.37l-.38.85-.71-.64c.26-.11.21-.26.12-.44Zm15,1.17c-.22,0-.25-.12-.28-.28-.14-.91-.28-1.82-.44-2.73,0-.18-.05-.33.16-.39L23.92,9l-1.65.26c0,.17,0,.35.23.38,0,0,.07.09.08.15.17,1,.32,1.94.48,2.92,0,.06,0,.17,0,.19-.22.11-.12.26-.08.42l1.64-.26ZM8.94,20.2l.07.1a.65.65,0,0,0,.79.26.61.61,0,0,0,.32-.74,1.43,1.43,0,0,0-.12-.31,3.22,3.22,0,0,0-1.09-1.08,7.51,7.51,0,0,0-.72.66,2.82,2.82,0,0,0-.43.78.56.56,0,0,0,.3.69.66.66,0,0,0,.78-.21Zm-4.21.26a.68.68,0,0,0,.87.41.71.71,0,0,0,.29-.95,3,3,0,0,0-.82-1.17.23.23,0,0,0-.2,0,5.1,5.1,0,0,0-.82.55,2.52,2.52,0,0,0-.47.64.53.53,0,0,0,.11.61.56.56,0,0,0,.62.15A3.55,3.55,0,0,0,4.73,20.46ZM33.89,3.73c-.16-.45-.48-.65-.84-.54a.71.71,0,0,0-.39.88,2.93,2.93,0,0,0,.7,1.28.23.23,0,0,0,.2,0,4.51,4.51,0,0,0,.87-.46A2,2,0,0,0,35,4.26a.54.54,0,0,0-.51-.78A.68.68,0,0,0,33.89,3.73Zm-3.76-.14a.3.3,0,0,0-.07-.1.66.66,0,0,0-.73-.17.54.54,0,0,0-.33.6,1.33,1.33,0,0,0,.19.5,2.85,2.85,0,0,0,1,.9.19.19,0,0,0,.18,0,8.93,8.93,0,0,0,.76-.87,1.22,1.22,0,0,0,.2-.59.57.57,0,0,0-.82-.61A2,2,0,0,0,30.13,3.59Zm-3.69.64-.13-.16a.65.65,0,0,0-.72-.14.56.56,0,0,0-.32.61,1.23,1.23,0,0,0,.18.46,2.82,2.82,0,0,0,1.09.91.17.17,0,0,0,.18,0,7.7,7.7,0,0,0,.77-.94,1.34,1.34,0,0,0,.15-.66.56.56,0,0,0-.74-.51A.67.67,0,0,0,26.44,4.23ZM12.57,19.67a1.1,1.1,0,0,1,.11.14.67.67,0,0,0,.78.14.59.59,0,0,0,.26-.7,1,1,0,0,0-.15-.34A2.9,2.9,0,0,0,12.48,18a.15.15,0,0,0-.16,0,11,11,0,0,0-.78.91,1.27,1.27,0,0,0-.18.58.56.56,0,0,0,.42.63.64.64,0,0,0,.72-.31S12.55,19.72,12.57,19.67Zm3.57-.45.09.11a.65.65,0,0,0,.79.16.59.59,0,0,0,.24-.74,1.31,1.31,0,0,0-.22-.4A3.16,3.16,0,0,0,16,17.54a.16.16,0,0,0-.15,0A2.78,2.78,0,0,0,15,18.85c-.13.55.22,1,.7.86A.62.62,0,0,0,16.14,19.22Zm3.27-2.31-.29.33a2.38,2.38,0,0,0-.31.4,3.77,3.77,0,0,0-.34.8.63.63,0,0,0,.33.71.62.62,0,0,0,.7-.14c.07-.09.12-.19.19-.29l.12.13a.66.66,0,0,0,.74.09.57.57,0,0,0,.25-.68,1.44,1.44,0,0,0-.35-.57A12.8,12.8,0,0,0,19.41,16.91ZM22.85,4.69l-.1-.11A.64.64,0,0,0,22,4.47a.58.58,0,0,0-.24.7A1.49,1.49,0,0,0,22,5.6a2.94,2.94,0,0,0,1.08.79.22.22,0,0,0,.19,0,6.31,6.31,0,0,0,.53-.63,1.41,1.41,0,0,0,.31-.91.59.59,0,0,0-.36-.55.6.6,0,0,0-.65.11A2.13,2.13,0,0,0,22.85,4.69Zm-3.5.6-.07-.06a.6.6,0,0,0-1,.67.68.68,0,0,0,.14.23,3.76,3.76,0,0,0,.72.61c.63.38.44.39.92-.16a2,2,0,0,0,.5-1,.68.68,0,0,0-.44-.81A.65.65,0,0,0,19.35,5.29Zm3.58,11.15a7.16,7.16,0,0,0-.59.68,3.52,3.52,0,0,0-.36.82.62.62,0,0,0,.34.69A.59.59,0,0,0,23,18.5a1.62,1.62,0,0,0,.19-.29l.13.15a.64.64,0,0,0,.72.11.59.59,0,0,0,.28-.67,1.58,1.58,0,0,0-.23-.47A3.24,3.24,0,0,0,22.93,16.44Zm-7.1-10.6-.09-.12A.65.65,0,0,0,15,5.58a.53.53,0,0,0-.3.62,1.37,1.37,0,0,0,.26.56,2.74,2.74,0,0,0,1,.78.22.22,0,0,0,.18,0,7.41,7.41,0,0,0,.69-.9,1.53,1.53,0,0,0,.16-.7.53.53,0,0,0-.37-.52.55.55,0,0,0-.59.11A1.76,1.76,0,0,0,15.83,5.84ZM30.49,16.09c-.27.23-.55.44-.81.69a1.3,1.3,0,0,0-.41.78.62.62,0,0,0,.3.63.58.58,0,0,0,.65-.08,1.55,1.55,0,0,0,.21-.23.41.41,0,0,1,.05.09.63.63,0,0,0,.65.34.56.56,0,0,0,.46-.54,1.65,1.65,0,0,0-.16-.68A3.06,3.06,0,0,0,30.49,16.09ZM12.35,6.24l-.08-.11a.62.62,0,0,0-.69-.23.55.55,0,0,0-.37.62,1.28,1.28,0,0,0,.21.56A3.06,3.06,0,0,0,12.54,8c.27-.32.55-.62.8-.95a1.07,1.07,0,0,0,.2-.76.6.6,0,0,0-.42-.51.6.6,0,0,0-.63.21A1.54,1.54,0,0,0,12.35,6.24ZM26.56,16.1c-.21.2-.41.37-.59.57a1.68,1.68,0,0,0-.47.9.64.64,0,0,0,.33.69.61.61,0,0,0,.7-.15c.06-.07.1-.16.16-.24l.09.12a.62.62,0,0,0,.73.21.61.61,0,0,0,.32-.7A1.81,1.81,0,0,0,27.6,17,3.22,3.22,0,0,0,26.56,16.1ZM4.74,6a1.73,1.73,0,0,0-.1-.24.58.58,0,0,0-.5-.34.53.53,0,0,0-.51.29,1,1,0,0,0-.11.46,2.44,2.44,0,0,0,.83,1.46s.12,0,.16,0a5,5,0,0,0,.82-.52,2,2,0,0,0,.46-.63.59.59,0,0,0-.23-.76.6.6,0,0,0-.76.15A1.13,1.13,0,0,0,4.74,6ZM34,18.54a.66.66,0,0,1,0,.11.56.56,0,0,0,.51.42.52.52,0,0,0,.55-.31,1.19,1.19,0,0,0,.1-.53,2.45,2.45,0,0,0-.65-1.34.17.17,0,0,0-.18,0,8.49,8.49,0,0,0-1.06.6,1.24,1.24,0,0,0-.38.56.54.54,0,0,0,.63.73A1.72,1.72,0,0,0,34,18.54ZM8.58,6.24a1.7,1.7,0,0,0-.47-.32c-.45-.13-.81.3-.7.79a2.17,2.17,0,0,0,.81,1.14c.35.29.23.28.58,0a2.74,2.74,0,0,0,.51-.45,2.58,2.58,0,0,0,.38-.64.62.62,0,0,0-.13-.69A.49.49,0,0,0,9,6,2.19,2.19,0,0,0,8.58,6.24Z"/><path d="M23.63,22.61V20.69c.51-.09,1-.18,1.55-.25a20.92,20.92,0,0,1,3.71-.17,20.49,20.49,0,0,1,6.3,1.23,3.06,3.06,0,0,1,1.22.74c.4.4.31.8-.22,1a2.76,2.76,0,0,1-1.61.05c-.9-.23-1.78-.51-2.67-.79a21.31,21.31,0,0,0-3.44-.84,6.54,6.54,0,0,0-4.76.92S23.67,22.59,23.63,22.61Z"/><path d="M15.43,2.32V3.91a.23.23,0,0,1-.14.13c-.71.1-1.42.25-2.14.28-1.22.06-2.45.09-3.68,0A16.12,16.12,0,0,1,3.54,3.19a5.67,5.67,0,0,1-.84-.45.57.57,0,0,1-.3-.58c0-.25.23-.36.44-.44a2.69,2.69,0,0,1,1.61-.06c.9.23,1.79.51,2.69.79a20.33,20.33,0,0,0,3.46.85,6.48,6.48,0,0,0,4.7-.91Z"/><path d="M26.68,10.29l-.07-.87c.6,0,1.18-.08,1.76-.09.26,0,.36.13.38.36s-.08.4-.33.44c-.43.06-.87.09-1.3.14Z"/></g><g class="cls-3"><path d="M36.74,21.88a4,4,0,0,0-2.66-1.74,17.28,17.28,0,0,0-3.78-.64,32.93,32.93,0,0,0-5.44.06c-1.58.14-3.16.32-4.73.53-1.91.26-3.82.57-5.72.86-1.5.22-3,.46-4.48.65a28.82,28.82,0,0,1-5.25.31A7.15,7.15,0,0,1,2,21.36a.89.89,0,0,1-.62-.94c0-6,0-11.93,0-17.9V2.34A5.36,5.36,0,0,0,4.7,4.08a23.44,23.44,0,0,0,6.19.65,38,38,0,0,0,5.64-.47c2.71-.44,5.4-.94,8.11-1.39,1.58-.26,3.17-.51,4.76-.72a17.24,17.24,0,0,1,3.8-.09,7.25,7.25,0,0,1,3.39,1,.29.29,0,0,1,.16.28q0,9.18,0,18.35ZM3.49,11.42c0,.15-.07.32.15.38,0,0,0,.11,0,.16,0,.91,0,1.82,0,2.73,0,.06,0,.16-.06.16-.22.06-.13.22-.14.37H5c0-.15.07-.31-.15-.36a.16.16,0,0,1-.05-.1c0-.46,0-.92,0-1.38h0l1.14,2,1.23-2c0,.48,0,.94,0,1.41,0,0,0,.08,0,.08-.24.05-.16.22-.15.38H8.59c0-.14.09-.31-.13-.37,0,0-.06-.09-.06-.14,0-.92,0-1.85,0-2.77,0-.05,0-.14.05-.14.23-.06.15-.23.15-.39H6.79l.15.49L6,13.47l-.91-1.63h.1l.11-.42Zm25.11-.89.27-.13a1.1,1.1,0,0,0,.64-1.24,1.05,1.05,0,0,0-.89-1,2.15,2.15,0,0,0-.67,0c-.67,0-1.35.09-2,.14l-1.1.1c.07.14.12.25.18.35s.13.13.13.2c.1,1,.18,2,.27,3,0,0,0,.15-.05.16-.24.08-.12.25-.13.41l1.69-.14c0-.17,0-.35-.21-.39,0,0-.07-.1-.07-.15,0-.33-.06-.66-.08-1l.61,0a.19.19,0,0,1,.15,0l.9,1c-.28.08-.16.25-.14.41L30,12.08c0-.07,0-.13,0-.18a.35.35,0,0,0,0-.13C29.31,11.55,29.08,10.93,28.6,10.53Zm-7.91-1c-.1,0-.22-.12-.28-.09-.21.1-.4,0-.59,0a3.54,3.54,0,0,0-2.4.2,2.09,2.09,0,0,0-1.18,2.15,2,2,0,0,0,1.56,1.72,4.33,4.33,0,0,0,3.38-.73.19.19,0,0,0,0-.33.32.32,0,0,1-.14-.17,5.36,5.36,0,0,1-.06-.7.23.23,0,0,1,0-.17c.22-.09.13-.25.12-.41H21l-1.77.15c-.07,0-.19,0-.2,0-.1-.24-.26-.13-.42-.1l.11,1.25c.27,0,.27,0,.39-.17,0,0,.05-.06.07-.06l.77-.06c.05.37.05.38-.27.48a2.56,2.56,0,0,1-1.23.13,1.09,1.09,0,0,1-.32-2.07,1.89,1.89,0,0,1,1.67,0s.1,0,.1.07c.05.18.21.18.35.23Zm11.57,1.71a1.61,1.61,0,0,1,0-.22c0-.73.09-1.47.12-2.2,0-.19,0-.35.26-.37V8.11L30.93,8c.05.15.07.26.11.37s.12.15.12.23c-.05,1-.12,2-.18,3,0,.05,0,.13-.06.14-.26,0-.18.21-.18.38l1,.06,2.43.14c.07,0,.18,0,.2.09.06.24.23.15.4.15l.07-1.39c-.17,0-.34-.08-.41.14,0,0-.1,0-.15,0l-.44,0Zm-23.06,0-.06.07c.08.09.13.21.22.27s.33.13.46.24c.44.37.87.75,1.3,1.14a.4.4,0,0,1,.14.22c.09.33.15.66.22,1,0,0,0,.12,0,.13-.23.1-.11.25-.08.42L13,14.42c-.06-.13-.09-.3-.15-.31s-.19-.16-.21-.29c-.06-.28-.13-.56-.19-.84a.48.48,0,0,1,0-.24c.25-.55.5-1.09.76-1.63a.56.56,0,0,1,.21-.28c.23-.11.2-.25.1-.44l-1.78.36c0,.21,0,.36.3.37l-.38.85-.71-.64c.26-.11.21-.26.12-.44Zm15,1.17c-.22,0-.25-.12-.28-.28-.14-.91-.28-1.82-.44-2.73,0-.18-.05-.33.16-.39l-.06-.33L21.93,9c0,.17,0,.35.23.38,0,0,.07.09.08.15.17,1,.32,1.94.48,2.92,0,.06,0,.17,0,.19-.22.11-.12.26-.08.42l1.64-.26ZM8.6,19.86a.37.37,0,0,1,.06.1.66.66,0,0,0,.8.26.61.61,0,0,0,.32-.74,1.43,1.43,0,0,0-.12-.31,3.22,3.22,0,0,0-1.09-1.08,7.51,7.51,0,0,0-.72.66,3.14,3.14,0,0,0-.44.78.58.58,0,0,0,.31.69A.66.66,0,0,0,8.5,20Zm-4.21.26a.68.68,0,0,0,.87.41.71.71,0,0,0,.29-1,3,3,0,0,0-.82-1.17.23.23,0,0,0-.2,0,5.1,5.1,0,0,0-.82.55,2.52,2.52,0,0,0-.47.64.53.53,0,0,0,.11.61.56.56,0,0,0,.62.15A3.55,3.55,0,0,0,4.39,20.12ZM33.55,3.39c-.16-.45-.48-.65-.84-.54a.71.71,0,0,0-.39.88A2.93,2.93,0,0,0,33,5a.23.23,0,0,0,.2,0,4.51,4.51,0,0,0,.87-.46,2,2,0,0,0,.55-.65.54.54,0,0,0-.51-.78A.68.68,0,0,0,33.55,3.39Zm-3.76-.14a.3.3,0,0,0-.07-.1A.66.66,0,0,0,29,3a.54.54,0,0,0-.33.6,1.33,1.33,0,0,0,.19.5,2.85,2.85,0,0,0,1,.9.22.22,0,0,0,.18,0,10.52,10.52,0,0,0,.76-.87A1.22,1.22,0,0,0,31,3.5a.57.57,0,0,0-.82-.61A2,2,0,0,0,29.79,3.25Zm-3.69.64L26,3.73a.65.65,0,0,0-.72-.14.56.56,0,0,0-.32.61,1.3,1.3,0,0,0,.18.46,2.91,2.91,0,0,0,1.09.91.17.17,0,0,0,.18,0,7.7,7.7,0,0,0,.77-.94,1.34,1.34,0,0,0,.15-.66.56.56,0,0,0-.74-.51A.67.67,0,0,0,26.1,3.89ZM12.23,19.33a1.1,1.1,0,0,1,.11.14.67.67,0,0,0,.78.14.59.59,0,0,0,.26-.7,1,1,0,0,0-.15-.34,2.9,2.9,0,0,0-1.09-.94.15.15,0,0,0-.16,0,11,11,0,0,0-.78.91,1.27,1.27,0,0,0-.18.58.56.56,0,0,0,.42.63.64.64,0,0,0,.72-.31S12.21,19.38,12.23,19.33Zm3.57-.45.09.11a.65.65,0,0,0,.79.16.59.59,0,0,0,.24-.74,1.31,1.31,0,0,0-.22-.4,3.16,3.16,0,0,0-1.07-.81.16.16,0,0,0-.15,0,2.78,2.78,0,0,0-.87,1.29c-.14.55.22,1,.7.86A.62.62,0,0,0,15.8,18.88Zm3.27-2.31-.29.33a2.38,2.38,0,0,0-.31.4,3.77,3.77,0,0,0-.34.8.63.63,0,0,0,.33.71.62.62,0,0,0,.7-.14c.07-.09.12-.19.19-.29l.12.13a.66.66,0,0,0,.74.09.57.57,0,0,0,.25-.68,1.44,1.44,0,0,0-.35-.57A12.8,12.8,0,0,0,19.07,16.57ZM22.51,4.35l-.1-.11a.64.64,0,0,0-.76-.11.58.58,0,0,0-.24.7,1.49,1.49,0,0,0,.23.43,2.94,2.94,0,0,0,1.08.79.22.22,0,0,0,.19,0,6.31,6.31,0,0,0,.53-.63,1.41,1.41,0,0,0,.31-.91.59.59,0,0,0-.36-.55.6.6,0,0,0-.65.11A2.13,2.13,0,0,0,22.51,4.35ZM19,5l-.07-.06a.6.6,0,0,0-1,.67.68.68,0,0,0,.14.23,3.76,3.76,0,0,0,.72.61c.63.38.44.39.92-.16a2,2,0,0,0,.5-1,.68.68,0,0,0-.44-.81A.65.65,0,0,0,19,5ZM22.59,16.1a7.16,7.16,0,0,0-.59.68,3.52,3.52,0,0,0-.36.82.62.62,0,0,0,.34.69.59.59,0,0,0,.68-.13,2.08,2.08,0,0,0,.19-.29L23,18a.64.64,0,0,0,.72.11.59.59,0,0,0,.28-.67,1.58,1.58,0,0,0-.23-.47A3.24,3.24,0,0,0,22.59,16.1ZM15.49,5.5l-.09-.12a.65.65,0,0,0-.72-.14.53.53,0,0,0-.3.62,1.37,1.37,0,0,0,.26.56,2.74,2.74,0,0,0,1,.78.22.22,0,0,0,.18,0,7.41,7.41,0,0,0,.69-.9,1.53,1.53,0,0,0,.16-.7.53.53,0,0,0-.37-.52.55.55,0,0,0-.59.11A1.76,1.76,0,0,0,15.49,5.5ZM30.15,15.75c-.27.23-.55.44-.81.69a1.3,1.3,0,0,0-.41.78.62.62,0,0,0,.3.63.58.58,0,0,0,.65-.08,1.55,1.55,0,0,0,.21-.23.41.41,0,0,1,.05.09.63.63,0,0,0,.65.34.56.56,0,0,0,.46-.54,1.65,1.65,0,0,0-.16-.68A3.06,3.06,0,0,0,30.15,15.75ZM12,5.9l-.08-.11a.61.61,0,0,0-.69-.23.55.55,0,0,0-.37.62,1.28,1.28,0,0,0,.21.56,3.06,3.06,0,0,0,1.12.94c.27-.32.55-.62.8-.95A1.07,1.07,0,0,0,13.2,6a.6.6,0,0,0-.42-.51.6.6,0,0,0-.63.21A1.54,1.54,0,0,0,12,5.9Zm14.21,9.86c-.21.2-.41.37-.59.57a1.68,1.68,0,0,0-.47.9.64.64,0,0,0,.33.69.61.61,0,0,0,.7-.15c.06-.07.1-.16.16-.24l.09.12a.62.62,0,0,0,.73.21.61.61,0,0,0,.32-.7,1.81,1.81,0,0,0-.23-.51A3.22,3.22,0,0,0,26.22,15.76ZM4.4,5.68a1.73,1.73,0,0,0-.1-.24.58.58,0,0,0-.5-.34.53.53,0,0,0-.51.29,1,1,0,0,0-.11.46A2.44,2.44,0,0,0,4,7.31s.12,0,.16,0A5.4,5.4,0,0,0,5,6.78a2,2,0,0,0,.46-.63.59.59,0,0,0-.23-.76.6.6,0,0,0-.76.15A1.13,1.13,0,0,0,4.4,5.68ZM33.65,18.2a.66.66,0,0,1,0,.11.56.56,0,0,0,.51.42.52.52,0,0,0,.55-.31,1.19,1.19,0,0,0,.1-.53,2.45,2.45,0,0,0-.65-1.34.17.17,0,0,0-.18,0,8.49,8.49,0,0,0-1.06.6,1.24,1.24,0,0,0-.38.56.54.54,0,0,0,.63.73A1.72,1.72,0,0,0,33.65,18.2ZM8.24,5.9a1.7,1.7,0,0,0-.47-.32c-.45-.13-.81.3-.7.79a2.17,2.17,0,0,0,.81,1.14c.35.29.23.28.58,0A2.74,2.74,0,0,0,9,7.09a2.58,2.58,0,0,0,.38-.64.62.62,0,0,0-.13-.69.49.49,0,0,0-.56-.14A2.19,2.19,0,0,0,8.24,5.9Z"/><path d="M23.29,22.27V20.35c.51-.09,1-.18,1.55-.25a20.92,20.92,0,0,1,3.71-.17,20.54,20.54,0,0,1,6.3,1.23,3.06,3.06,0,0,1,1.22.74c.39.4.31.8-.22,1a2.76,2.76,0,0,1-1.61.05c-.9-.23-1.78-.51-2.67-.79a21.31,21.31,0,0,0-3.44-.84,6.54,6.54,0,0,0-4.76.92S23.33,22.25,23.29,22.27Z"/><path d="M15.09,2c0,.55,0,1.07,0,1.59,0,.05-.08.12-.13.13-.71.1-1.42.25-2.14.28-1.22.06-2.45.09-3.68.05A16.12,16.12,0,0,1,3.2,2.85a5.67,5.67,0,0,1-.84-.45.57.57,0,0,1-.3-.58c0-.25.23-.36.44-.44a2.69,2.69,0,0,1,1.61-.06c.9.23,1.79.51,2.69.79A20.33,20.33,0,0,0,10.26,3,6.48,6.48,0,0,0,15,2.05Z"/><path d="M26.34,10l-.07-.87c.6,0,1.18-.08,1.76-.09.26,0,.36.13.38.36s-.08.4-.33.44c-.43.06-.87.09-1.3.14Z"/></g><path class="cls-4" d="M36.94,22.08a4,4,0,0,0-2.66-1.74,17.91,17.91,0,0,0-3.78-.65,32.93,32.93,0,0,0-5.44.07c-1.58.13-3.16.32-4.73.53-1.91.26-3.82.57-5.73.85-1.49.23-3,.47-4.47.66a28.87,28.87,0,0,1-5.26.31,7.34,7.34,0,0,1-2.65-.55.89.89,0,0,1-.62-.94c0-6,0-11.93,0-17.9V2.53A5.32,5.32,0,0,0,4.9,4.28a23.4,23.4,0,0,0,6.19.65,38.1,38.1,0,0,0,5.64-.48c2.71-.43,5.4-.93,8.1-1.38q2.39-.4,4.77-.72a17.88,17.88,0,0,1,3.8-.1,7.52,7.52,0,0,1,3.39,1,.31.31,0,0,1,.16.29q0,9.18,0,18.34ZM3.69,11.62c0,.15-.07.32.15.38,0,0,.05.1.05.16,0,.91,0,1.82,0,2.73,0,.06,0,.15-.06.16-.23.06-.14.22-.14.37H5.16c0-.15.08-.31-.14-.36A.16.16,0,0,1,5,15c0-.46,0-.93,0-1.39H5l1.15,2,1.23-2c0,.48,0,.94,0,1.41,0,0,0,.08,0,.08-.24,0-.16.22-.15.38H8.79c0-.15.09-.31-.14-.37a.23.23,0,0,1-.05-.14c0-.92,0-1.85,0-2.77,0-.05,0-.14.05-.15.23,0,.15-.22.15-.38H7l.15.49-.9,1.55L5.33,12h.1l.11-.42Zm25.11-.89.27-.13a1.08,1.08,0,0,0,.63-1.24,1.06,1.06,0,0,0-.88-1,3,3,0,0,0-.67-.05c-.68,0-1.35.1-2,.15L25,8.58c.07.14.12.25.18.35s.12.13.13.2c.1,1,.18,2,.27,3,0,.05,0,.15-.05.16-.24.08-.12.25-.13.41l1.68-.14c0-.17,0-.35-.2-.39,0,0-.07-.1-.07-.15,0-.33-.06-.66-.09-1l.62-.05a.25.25,0,0,1,.15.05l.9,1c-.28.08-.16.25-.15.41l1.93-.15c0-.08,0-.13,0-.18a.9.9,0,0,0,0-.13C29.51,11.75,29.27,11.13,28.8,10.73Zm-7.91-1c-.1,0-.22-.12-.28-.09A.8.8,0,0,1,20,9.58a3.61,3.61,0,0,0-2.4.21,2.06,2.06,0,0,0-1.18,2.14A2,2,0,0,0,18,13.66a4.3,4.3,0,0,0,3.37-.73.19.19,0,0,0,0-.33c-.06,0-.14-.11-.14-.17a5.51,5.51,0,0,1-.06-.7.22.22,0,0,1,0-.17c.22-.09.13-.25.12-.41h-.14l-1.77.15c-.07,0-.19,0-.2-.06-.1-.23-.26-.12-.42-.09l.11,1.25c.27,0,.27,0,.39-.17a.1.1,0,0,1,.07-.06l.77-.07c0,.38.05.39-.27.49a2.57,2.57,0,0,1-1.23.12,1,1,0,0,1-.93-.89,1.07,1.07,0,0,1,.6-1.18,1.94,1.94,0,0,1,1.68,0s.1,0,.1.07c.05.18.2.18.35.23Zm11.56,1.71a1.41,1.41,0,0,1,0-.22c0-.74.09-1.47.12-2.2,0-.19,0-.35.26-.38V8.31l-1.71-.1c.05.15.07.26.11.37s.12.15.11.23c-.05,1-.11,2-.17,3a.23.23,0,0,1-.06.14c-.26,0-.18.21-.18.38l1,.06,2.43.14c.07,0,.18,0,.19.08.07.25.24.16.41.16L35,11.36c-.17,0-.34-.08-.41.14,0,0-.1,0-.15,0l-.44,0Zm-23.05,0-.06.07a1.18,1.18,0,0,0,.22.27A4,4,0,0,1,10,12c.44.36.87.75,1.3,1.14a.4.4,0,0,1,.14.22c.08.33.15.66.22,1,0,0,0,.12,0,.13-.23.1-.11.25-.08.41l1.57-.32c-.06-.12-.09-.29-.15-.3s-.19-.16-.22-.29-.13-.56-.18-.84a.48.48,0,0,1,0-.24c.25-.55.5-1.09.76-1.63,0-.11.11-.24.21-.28s.19-.25.1-.44L11.92,11c0,.21.05.36.29.37l-.37.85-.71-.64c.25-.11.21-.27.12-.44Zm15,1.17c-.22,0-.25-.12-.28-.28-.14-.91-.28-1.82-.44-2.73,0-.18-.06-.33.16-.39l-.06-.33-1.65.26c0,.17,0,.35.23.38,0,0,.07.09.08.15l.48,2.92c0,.06,0,.17,0,.19-.23.11-.12.26-.08.42L24.45,13ZM8.8,20.05l.06.11a.66.66,0,0,0,.8.26.61.61,0,0,0,.32-.74,1.75,1.75,0,0,0-.12-.32,3.19,3.19,0,0,0-1.09-1.07,5.7,5.7,0,0,0-.72.66,2.85,2.85,0,0,0-.44.78.57.57,0,0,0,.31.69.66.66,0,0,0,.78-.21Zm-4.21.26c.2.39.54.56.86.41a.69.69,0,0,0,.3-.94,3,3,0,0,0-.82-1.17.2.2,0,0,0-.2,0,5.1,5.1,0,0,0-.82.55,2.3,2.3,0,0,0-.47.64.51.51,0,0,0,.1.6.55.55,0,0,0,.62.16A2.32,2.32,0,0,0,4.59,20.31ZM33.75,3.59c-.16-.45-.49-.66-.84-.54a.71.71,0,0,0-.4.88,3,3,0,0,0,.71,1.27.21.21,0,0,0,.2,0,5.14,5.14,0,0,0,.87-.46,1.88,1.88,0,0,0,.54-.65.53.53,0,0,0-.5-.78A.67.67,0,0,0,33.75,3.59ZM30,3.44a.54.54,0,0,0-.07-.09.65.65,0,0,0-.73-.17.53.53,0,0,0-.33.6,1.18,1.18,0,0,0,.19.5,2.85,2.85,0,0,0,1.05.9.23.23,0,0,0,.18,0c.26-.29.53-.56.76-.87a1.26,1.26,0,0,0,.2-.59.57.57,0,0,0-.82-.61A2.28,2.28,0,0,0,30,3.44Zm-3.69.64-.13-.15a.65.65,0,0,0-.72-.14.54.54,0,0,0-.32.61,1.3,1.3,0,0,0,.18.46,2.91,2.91,0,0,0,1.09.91.19.19,0,0,0,.18,0,9.86,9.86,0,0,0,.77-.94,1.25,1.25,0,0,0,.14-.67.54.54,0,0,0-.73-.5A.64.64,0,0,0,26.3,4.08ZM12.43,19.52l.11.14a.64.64,0,0,0,.78.14.58.58,0,0,0,.26-.69,1,1,0,0,0-.15-.34,3,3,0,0,0-1.09-.95.18.18,0,0,0-.16,0,11,11,0,0,0-.78.91,1.27,1.27,0,0,0-.18.57.58.58,0,0,0,.42.64.64.64,0,0,0,.72-.31ZM16,19.08l.09.11a.66.66,0,0,0,.79.16.6.6,0,0,0,.24-.74,1.41,1.41,0,0,0-.22-.4,3.08,3.08,0,0,0-1.08-.81.17.17,0,0,0-.14,0,2.73,2.73,0,0,0-.87,1.3c-.14.54.22,1,.7.86A.65.65,0,0,0,16,19.08Zm3.27-2.31L19,17.1a2.21,2.21,0,0,0-.31.39,3.57,3.57,0,0,0-.34.81.63.63,0,0,0,.33.71.62.62,0,0,0,.7-.14c.07-.09.12-.2.19-.3l.12.14a.66.66,0,0,0,.74.09.57.57,0,0,0,.25-.68,1.44,1.44,0,0,0-.35-.57C20,17.27,19.63,17,19.27,16.77ZM22.71,4.55l-.1-.11a.64.64,0,0,0-.76-.11.57.57,0,0,0-.24.7,1.53,1.53,0,0,0,.22.42,2.83,2.83,0,0,0,1.09.79.19.19,0,0,0,.19,0,6.31,6.31,0,0,0,.53-.63,1.41,1.41,0,0,0,.3-.91.57.57,0,0,0-.35-.55.58.58,0,0,0-.65.11A2.13,2.13,0,0,0,22.71,4.55Zm-3.5.6-.07-.07a.65.65,0,0,0-.82-.15.63.63,0,0,0-.18.83.55.55,0,0,0,.14.23A4.65,4.65,0,0,0,19,6.6c.63.37.44.39.92-.16a2,2,0,0,0,.5-1A.67.67,0,0,0,20,4.66.64.64,0,0,0,19.21,5.15ZM22.79,16.3a6.1,6.1,0,0,0-.59.68,3.15,3.15,0,0,0-.36.82.61.61,0,0,0,.34.69.57.57,0,0,0,.67-.13,2.11,2.11,0,0,0,.2-.29,1.79,1.79,0,0,0,.13.14.63.63,0,0,0,.72.12.59.59,0,0,0,.27-.67,1.35,1.35,0,0,0-.22-.47A3.24,3.24,0,0,0,22.79,16.3ZM15.69,5.69a1.2,1.2,0,0,1-.1-.11.65.65,0,0,0-.72-.15.55.55,0,0,0-.29.62,1.46,1.46,0,0,0,.25.57,3,3,0,0,0,1,.78.22.22,0,0,0,.18,0,8.28,8.28,0,0,0,.69-.9,1.54,1.54,0,0,0,.16-.71.53.53,0,0,0-.37-.51.55.55,0,0,0-.59.11A1.59,1.59,0,0,0,15.69,5.69ZM30.35,16c-.27.23-.55.44-.81.68a1.36,1.36,0,0,0-.42.79.65.65,0,0,0,.31.63.58.58,0,0,0,.65-.08,1.25,1.25,0,0,0,.21-.24.93.93,0,0,0,.05.1.65.65,0,0,0,.65.34.57.57,0,0,0,.46-.54,1.62,1.62,0,0,0-.16-.68A3,3,0,0,0,30.35,16ZM12.2,6.09,12.13,6a.61.61,0,0,0-.69-.23.54.54,0,0,0-.37.62,1.28,1.28,0,0,0,.21.56,3,3,0,0,0,1.11.94c.27-.32.56-.62.81-1a1,1,0,0,0,.19-.76A.58.58,0,0,0,13,5.66a.6.6,0,0,0-.63.21C12.3,5.93,12.26,6,12.2,6.09ZM26.42,16a8,8,0,0,0-.59.57,1.69,1.69,0,0,0-.48.9.67.67,0,0,0,.34.69.59.59,0,0,0,.69-.15,2.07,2.07,0,0,0,.17-.24l.08.12a.62.62,0,0,0,.74.2.6.6,0,0,0,.32-.69,1.81,1.81,0,0,0-.23-.51A3.22,3.22,0,0,0,26.42,16ZM4.6,5.88c0-.13-.07-.19-.1-.25A.59.59,0,0,0,4,5.3a.53.53,0,0,0-.51.29,1,1,0,0,0-.11.46A2.42,2.42,0,0,0,4.2,7.51a.2.2,0,0,0,.17,0A4.86,4.86,0,0,0,5.18,7a1.93,1.93,0,0,0,.47-.63.58.58,0,0,0-1-.61A.49.49,0,0,0,4.6,5.88ZM33.85,18.4s0,.07,0,.11a.58.58,0,0,0,.51.42.52.52,0,0,0,.55-.31,1.22,1.22,0,0,0,.1-.53,2.42,2.42,0,0,0-.65-1.34.2.2,0,0,0-.18-.05,10,10,0,0,0-1.06.6,1.25,1.25,0,0,0-.38.57.54.54,0,0,0,.63.73A2.14,2.14,0,0,0,33.85,18.4ZM8.44,6.1A1.7,1.7,0,0,0,8,5.78a.6.6,0,0,0-.7.79A2.06,2.06,0,0,0,8.08,7.7c.35.3.23.29.58,0a2.63,2.63,0,0,0,.5-.44,2.55,2.55,0,0,0,.39-.65A.6.6,0,0,0,9.42,6a.47.47,0,0,0-.56-.14A1.92,1.92,0,0,0,8.44,6.1Z"/><path class="cls-4" d="M23.49,22.47V20.55c.51-.09,1-.18,1.55-.25a21.43,21.43,0,0,1,10,1.05,3.28,3.28,0,0,1,1.22.75c.39.4.31.79-.23,1a2.65,2.65,0,0,1-1.6.06c-.9-.23-1.79-.51-2.67-.79a22.45,22.45,0,0,0-3.44-.85,6.5,6.5,0,0,0-4.76.93Z"/><path class="cls-4" d="M15.29,2.18c0,.55,0,1.07,0,1.59,0,0-.08.12-.13.13-.71.1-1.42.25-2.14.28-1.22.06-2.45.09-3.68.05A16.08,16.08,0,0,1,3.4,3.05a8.44,8.44,0,0,1-.84-.45A.58.58,0,0,1,2.25,2c0-.25.24-.36.45-.44a2.69,2.69,0,0,1,1.61-.06c.9.23,1.79.51,2.69.79a20.33,20.33,0,0,0,3.46.85,6.48,6.48,0,0,0,4.7-.91Z"/><path class="cls-4" d="M26.54,10.15l-.08-.87c.61,0,1.19-.08,1.77-.09.26,0,.36.13.38.36a.38.38,0,0,1-.34.44c-.43.06-.86.09-1.29.13C26.84,10.14,26.7,10.14,26.54,10.15Z"/></g></g></svg>