<svg xmlns="http://www.w3.org/2000/svg" viewBox="0 0 38.55 24.66"><defs><style>.cls-1{isolation:isolate;}.cls-2{opacity:0.15;}.cls-2,.cls-3{mix-blend-mode:multiply;}.cls-4{fill:#fff;}</style></defs><title>convert-FIX-SVG-03</title><g class="cls-1"><g id="Layer_1" data-name="Layer 1"><g class="cls-2"><path d="M9.77,12a9.57,9.57,0,0,1,7.34-9.33A9.47,9.47,0,0,1,27.26,6.17a9.11,9.11,0,0,1,1.83,7.57,9.76,9.76,0,0,1-18.93.95A9.81,9.81,0,0,1,9.77,12Zm8.59-4.35c-.09-.23-.37-.39-.27-.69,0,0-.07-.09-.1-.1a3.85,3.85,0,0,0-.59,0s-.11.1-.1.14a2.84,2.84,0,0,1,0,1.36.2.2,0,0,0,.1.15h.53l-.09-.65.07,0,.42.74.45-.74.08,0a4.42,4.42,0,0,0-.1.5s0,.14.09.14h.5s.09-.08.09-.12c0-.23-.07-.45-.07-.68s.05-.49.07-.74a.19.19,0,0,0-.09-.12h-.7C18.75,7.19,18.5,7.38,18.36,7.63Zm.05,2.49h-.48c-.27,0-.26,0-.17.24a.47.47,0,0,1,0,.17c0,.22,0,.44,0,.65s-.06.31-.07.46a.18.18,0,0,0,.1.15,3.23,3.23,0,0,0,.44,0,.18.18,0,0,0,.1-.15c0-.22-.07-.44-.11-.66l.08,0c.21.28.59.41.66.83.18,0,.37,0,.56,0a.2.2,0,0,0,.11-.13,4.12,4.12,0,0,1-.07-.59c0-.28-.09-.56.07-.83,0,0-.06-.11-.1-.11a3.38,3.38,0,0,0-.45,0c-.12,0-.12.07-.1.17s.06.4.09.6l-.08,0C18.83,10.66,18.47,10.54,18.41,10.12Zm-1.15,4.94s0-.08,0-.1a1.39,1.39,0,0,1-.08-.78c0-.21.06-.42.07-.64,0,0-.06-.12-.1-.13h-.42c-.15,0-.14.06-.11.19a5.59,5.59,0,0,1,.08.59l-.08,0c-.17-.28-.56-.38-.59-.8h-.62a.17.17,0,0,0-.1.12c0,.22.07.44.07.66s-.05.51-.07.76c0,0,.07.11.12.12h.42c.12,0,.13-.06.11-.16s-.06-.42-.1-.63l.08,0c.21.28.58.41.65.81Zm6.82,0h.56c.14,0,.12-.07.1-.18s0-.41-.08-.62l.07,0c.2.28.58.4.64.82H26s.08-.08.08-.12c0-.26-.07-.52-.07-.78a4.5,4.5,0,0,1,.07-.63.2.2,0,0,0-.11-.13h-.42c-.15,0-.14.06-.11.19a3.81,3.81,0,0,1,.07.59l-.07,0c-.18-.28-.56-.39-.59-.78l-.06,0h-.47c-.22,0-.22,0-.13.22a.62.62,0,0,1,0,.19A3.57,3.57,0,0,1,24.08,15.07ZM28,14.48v-.54l-.69.09a.73.73,0,0,1,0-.15,2,2,0,0,1,1,.06v-.37c0-.26,0-.26-.25-.18a.44.44,0,0,1-.16,0H27c-.27,0-.27,0-.19.25a.76.76,0,0,1,0,.15v.87a.48.48,0,0,1,0,.2c-.1.15,0,.2.12.19h1c.13,0,.26.06.38.06s.15-.06.15-.1a3.49,3.49,0,0,0,0-.45l-1.09.06c0-.08,0-.17,0-.17Zm-5.93-1.07h-.56c-.15,0-.14.07-.11.18s.05.24.08.37h-.72c0-.15.08-.27.1-.39s-.05-.15-.09-.15a2.77,2.77,0,0,0-.5,0s-.1.09-.09.13c0,.24.06.49.07.73s-.06.45-.07.68c0,0,.06.11.11.12h.46c.14,0,.14-.06.11-.17s-.06-.3-.1-.46h.73a4.47,4.47,0,0,1-.09.45c0,.11,0,.19.11.18h.57A3.72,3.72,0,0,1,22.08,13.41Zm-2.49.16a8,8,0,0,0-.87-.18,1,1,0,0,0-.45.07.51.51,0,0,0,.11,1l.47,0,.18,0v.09a2.57,2.57,0,0,1-.48,0,2.81,2.81,0,0,1-.48-.21l-.22.51a5,5,0,0,0,.69.14,1.82,1.82,0,0,0,.7-.08.48.48,0,0,0,.15-.85l-.06-.07ZM12,14.09l.25-.52a5.38,5.38,0,0,0-.85-.18,1.12,1.12,0,0,0-.54.11.5.5,0,0,0-.24.65.51.51,0,0,0,.47.31l.61.08v.07a.92.92,0,0,1-.94-.2l-.22.52a5.35,5.35,0,0,0,.64.15,2,2,0,0,0,.54,0,.57.57,0,0,0,.52-.41A.51.51,0,0,0,12,14.09Zm4.1-4a.89.89,0,0,0-1,.74.85.85,0,0,0,.68.95A1,1,0,0,0,17,11.22.87.87,0,0,0,16.1,10.1Zm-3.26,3.31c0,.06,0,.1,0,.14a3.11,3.11,0,0,1,.08.44c0,.18,0,.36,0,.55a.47.47,0,0,0,.4.5,2.89,2.89,0,0,0,.83,0,.5.5,0,0,0,.45-.51c0-.16,0-.33,0-.49s.06-.33.07-.5a.19.19,0,0,0-.1-.14H14a.28.28,0,0,0,0,.12,1.8,1.8,0,0,1,.07.89c0,.14-.09.22-.23.22s-.37,0-.4-.14a3,3,0,0,1,0-.89c0-.17,0-.21-.14-.2Zm10.23-2.85H23a3.06,3.06,0,0,0-.05-.32c0-.05-.06-.12-.1-.12-.21,0-.43,0-.65,0a.11.11,0,0,0-.09.06.17.17,0,0,0,0,.12l.49.56a.63.63,0,0,1,.08.75c0,.1,0,.17.1.17h.45c.15,0,.16,0,.12-.19a.83.83,0,0,1,0-.56,4.29,4.29,0,0,1,.57-.72.16.16,0,0,0,0-.12.2.2,0,0,0-.1-.08h-.62s-.1.1-.09.11S23.14,10.47,23.07,10.56ZM21.29,8.51a.82.82,0,0,1-.06-.2c0-.18-.08-.41,0-.55A6.43,6.43,0,0,1,21.8,7a.19.19,0,0,0,.05-.14s-.07-.06-.11-.06h-.57a.34.34,0,0,0-.12.12c.11.16,0,.23-.11.35-.08-.12-.21-.18-.12-.34s-.07-.12-.11-.13H20.1A.14.14,0,0,0,20,6.9S20,7,20,7c.17.2.35.4.52.61a.64.64,0,0,1,.05.69c0,.11,0,.17.1.18Zm-1,3.28h1.1c.12,0,.23,0,.35.06a.21.21,0,0,0,.15-.1,2.38,2.38,0,0,0,0-.38c0-.13-.07-.12-.17-.1l-.85.11c0-.42.08-.77.11-1.12,0,0-.06-.14-.09-.14H20.3A3.49,3.49,0,0,1,20.3,11.79Zm3.14,3.28a3.87,3.87,0,0,1,0-1.66h-.56a.19.19,0,0,0-.12.13c0,.23.07.46.07.7a5.72,5.72,0,0,1-.07.7c0,.1,0,.14.13.13Z"/><path d="M3.5,12.88V11.81H8.38v1.07Z"/><path d="M30.65,12.89V11.82h4.86v1.07Z"/><path d="M9.15,7.43l-.44,1L4.24,6.49l.44-1Z"/><path d="M29.69,8.85l-.4-1,4.55-1.76.41,1Z"/><path d="M29.1,17.27l.44-1L34,18.21l-.44,1Z"/><path d="M4.41,18.63l-.4-1,4.55-1.76.4,1Z"/><path d="M31.19,1.46,27.8,5,27,4.14A1.29,1.29,0,0,0,27.15,4l2.92-2.89a.56.56,0,0,1,.76,0C31,1.26,31.09,1.37,31.19,1.46Z"/><path d="M31.18,23.24c-.12.11-.27.27-.43.41a.65.65,0,0,1-.62,0L27,20.55h0l.78-.79Z"/><path d="M12,4.23,11.24,5l-3.4-3.5a1.6,1.6,0,0,1,.45-.39.69.69,0,0,1,.58,0C9.91,2.11,10.92,3.17,12,4.23Z"/><path d="M11.23,19.73l.78.8-.13.14-3,2.92a.56.56,0,0,1-.71,0l-.38-.36Z"/><path d="M23.72,22.52l1-.4.63,1.59H24.28a.17.17,0,0,1-.13-.1C24,23.25,23.87,22.9,23.72,22.52Z"/><path d="M23.09,2c.15-.33.28-.64.42-.94a.2.2,0,0,1,.15-.1h1.09L24.1,2.48Z"/><path d="M14.15,22.22l1,.44-.44,1s-.08.05-.12.05H13.5Z"/><path d="M14.05,1h1.09s.12.07.14.12c.11.24.2.49.31.77l-1,.4Z"/><path d="M19,1.32V1H20v.31Z"/><path d="M20.05,23.38v.32H19v-.32Z"/><path d="M18.42,13.94a.6.6,0,0,1,.78.08Z"/><path d="M11.86,14l-.78-.08A.59.59,0,0,1,11.86,14Z"/><path d="M16.1,11.37a.42.42,0,1,1,0-.83.42.42,0,0,1,.44.42A.41.41,0,0,1,16.1,11.37Z"/><path d="M10,12.18a9.57,9.57,0,0,1,7.34-9.33A9.48,9.48,0,0,1,27.46,6.36a9.12,9.12,0,0,1,1.82,7.58,9.61,9.61,0,0,1-7.64,7.69,9.72,9.72,0,0,1-11.28-6.74A9.45,9.45,0,0,1,10,12.18Zm8.59-4.35c-.09-.24-.37-.39-.28-.69,0,0-.06-.1-.09-.1h-.6s-.1.11-.09.15a2.84,2.84,0,0,1,0,1.36s.06.14.09.15.35,0,.54,0L18,8.06l.07,0,.42.74L19,8l.08,0c0,.17-.08.33-.11.5A.23.23,0,0,0,19,8.7a4.34,4.34,0,0,0,.51,0s.09-.09.09-.13c0-.22-.07-.45-.07-.67s.05-.49.07-.74c0,0-.06-.12-.09-.12h-.7C19,7.38,18.7,7.58,18.56,7.83Zm.05,2.49h-.48c-.27,0-.26,0-.17.24a.47.47,0,0,1,0,.17c0,.22,0,.43,0,.65s-.06.31-.08.46A.22.22,0,0,0,18,12a2.16,2.16,0,0,0,.44,0s.11-.1.1-.14c0-.22-.07-.44-.11-.66l.08,0c.21.28.59.41.66.83h.56a.2.2,0,0,0,.11-.14,3.83,3.83,0,0,1-.07-.58c0-.28-.09-.57.07-.83,0,0-.06-.11-.1-.11a3.38,3.38,0,0,0-.45,0c-.12,0-.12.07-.1.17s.06.4.09.6l-.08,0C19,10.85,18.67,10.74,18.61,10.32Zm-1.15,4.94s0-.08,0-.1a1.31,1.31,0,0,1-.08-.78c0-.22.06-.43.07-.64a.19.19,0,0,0-.1-.13h-.42c-.15,0-.14.06-.11.19a5.59,5.59,0,0,1,.08.59l-.08,0c-.17-.28-.56-.38-.59-.8h-.63s-.09.08-.09.12c0,.22.07.44.07.66s-.05.5-.07.76c0,0,.07.11.12.12h.42c.12,0,.13-.06.11-.16s-.07-.42-.1-.64l.08,0c.21.28.58.41.65.81Zm6.82,0h.55c.14,0,.13-.07.11-.18a6.17,6.17,0,0,1-.08-.62l.07,0c.2.27.57.4.64.82h.6a.17.17,0,0,0,.08-.12c0-.26-.07-.52-.07-.78a4.5,4.5,0,0,1,.07-.63.2.2,0,0,0-.11-.13h-.42c-.15,0-.14.06-.11.19a3.81,3.81,0,0,1,.07.59h-.07c-.18-.27-.56-.38-.59-.77l-.06,0h-.47c-.22,0-.22,0-.13.22a.62.62,0,0,1,0,.19A3.57,3.57,0,0,1,24.28,15.27Zm3.93-.6v-.53l-.69.09c0-.09,0-.15,0-.15a2,2,0,0,1,1,.06v-.38c0-.25,0-.25-.25-.17a.43.43,0,0,1-.16,0h-1c-.27,0-.27,0-.19.25A.76.76,0,0,1,27,14v.87a.32.32,0,0,1,0,.19c-.09.16,0,.2.13.2h1c.13,0,.25.05.38.06a.21.21,0,0,0,.15-.1,3.49,3.49,0,0,0,0-.45l-1.09.06a.58.58,0,0,1,0-.17Zm-5.93-1.06h-.57c-.14,0-.13.07-.1.18s.05.24.08.37H21a2.49,2.49,0,0,0,.1-.39.18.18,0,0,0-.08-.16h-.5a.17.17,0,0,0-.1.12c0,.25.07.5.07.74a4.9,4.9,0,0,1-.07.67.19.19,0,0,0,.12.13H21c.14,0,.14-.07.1-.18S21,14.8,21,14.64h.73c0,.16-.05.31-.09.45s0,.18.11.18h.56A3.87,3.87,0,0,1,22.28,13.61Zm-2.5.16c-.3-.07-.58-.15-.86-.19a1,1,0,0,0-.45.08.51.51,0,0,0,.11,1l.46.05a.58.58,0,0,1,.19,0v.08a1.55,1.55,0,0,1-.48,0,2.41,2.41,0,0,1-.49-.2l-.21.51a5,5,0,0,0,.69.14,1.82,1.82,0,0,0,.7-.08.48.48,0,0,0,.15-.85l-.06-.08Zm-7.59.51.26-.51a5.63,5.63,0,0,0-.85-.18,1.18,1.18,0,0,0-.55.11.49.49,0,0,0-.23.65.51.51,0,0,0,.47.31l.61.07v.07a.89.89,0,0,1-.94-.19l-.22.52a5.35,5.35,0,0,0,.64.15,2,2,0,0,0,.54,0,.58.58,0,0,0,.52-.41A.52.52,0,0,0,12.19,14.28Zm4.11-4a.89.89,0,0,0-1,.73A.85.85,0,0,0,16,12a1,1,0,0,0,1.22-.57A.87.87,0,0,0,16.3,10.3ZM13,13.61c0,.05,0,.1,0,.13a3.73,3.73,0,0,1,.08.44c0,.19,0,.37,0,.55a.45.45,0,0,0,.4.5,2.89,2.89,0,0,0,.83,0,.5.5,0,0,0,.45-.51c0-.16,0-.33,0-.49s0-.33.07-.5a.19.19,0,0,0-.1-.14h-.55c0,.06,0,.1,0,.12.16.29.06.59.07.89,0,.14-.09.22-.23.22s-.37.05-.4-.14a3,3,0,0,1,0-.89c0-.17,0-.21-.15-.21Zm10.23-2.85h-.09a3.06,3.06,0,0,0-.05-.32s-.06-.12-.1-.12h-.65a.13.13,0,0,0-.09.07.11.11,0,0,0,0,.11c.16.2.33.38.49.57a.63.63,0,0,1,.08.75c0,.09,0,.17.1.17h.45c.15,0,.15-.05.12-.19a.9.9,0,0,1,0-.56,4.94,4.94,0,0,1,.58-.72.31.31,0,0,0,.05-.12.16.16,0,0,0-.1-.08c-.21,0-.41,0-.62,0,0,0-.1.1-.09.11S23.34,10.67,23.27,10.76ZM21.49,8.7a.67.67,0,0,1-.06-.19c0-.19-.08-.41,0-.55A5.45,5.45,0,0,1,22,7.24a.27.27,0,0,0,.05-.14S22,7,21.94,7h-.57c-.05,0-.13.1-.12.12s0,.23-.11.35c-.08-.12-.22-.19-.12-.35,0,0-.07-.11-.11-.12H20.3a.17.17,0,0,0-.12.06s0,.09,0,.13l.52.6a.64.64,0,0,1,.05.69c0,.12,0,.18.1.18S21.25,8.7,21.49,8.7ZM20.5,12h1.09c.12,0,.24.05.36.06a.21.21,0,0,0,.15-.1c0-.12,0-.25,0-.38s-.07-.12-.17-.11c-.26,0-.53.07-.86.12.05-.42.09-.77.11-1.12,0-.05-.05-.14-.08-.14-.2,0-.4,0-.61,0A3.49,3.49,0,0,1,20.5,12Zm3.14,3.28a3.87,3.87,0,0,1,0-1.66h-.57s-.11.08-.11.12c0,.24.06.47.06.71s0,.46-.06.7,0,.14.13.13Z"/><path d="M3.7,13.08V12H8.58v1.07Z"/><path d="M30.85,13.08V12h4.86v1.07Z"/><path d="M9.35,7.63l-.44,1L4.44,6.69l.44-1Z"/><path d="M29.89,9.05l-.4-1L34,6.27l.4,1Z"/><path d="M29.3,17.47l.44-1,4.48,1.94-.44,1Z"/><path d="M4.61,18.83l-.4-1,4.55-1.76.4,1Z"/><path d="M31.39,1.66,28,5.15l-.77-.81.12-.12,2.92-2.89a.56.56,0,0,1,.76,0Z"/><path d="M31.37,23.44c-.11.11-.26.26-.43.41a.63.63,0,0,1-.61,0l-3.11-3.08h0L28,20Z"/><path d="M12.14,4.43l-.71.72L8,1.65a1.6,1.6,0,0,1,.45-.39.63.63,0,0,1,.57,0C10.11,2.3,11.12,3.37,12.14,4.43Z"/><path d="M11.43,19.93l.78.8-.13.14L9.13,23.78a.56.56,0,0,1-.72,0L8,23.43Z"/><path d="M23.92,22.71l1-.39.62,1.59H24.48a.19.19,0,0,1-.13-.1C24.2,23.45,24.07,23.09,23.92,22.71Z"/><path d="M23.29,2.24c.14-.33.28-.64.42-.94a.2.2,0,0,1,.15-.1H25L24.3,2.68Z"/><path d="M14.35,22.42l1,.44c-.15.34-.29.66-.44,1a.14.14,0,0,1-.12.06H13.7Z"/><path d="M14.25,1.19h1.09c.05,0,.12.07.14.12.11.24.2.49.31.77l-1,.4Z"/><path d="M19.16,1.52V1.21h1.08v.31Z"/><path d="M20.24,23.58v.31H19.17v-.31Z"/><path d="M18.62,14.14a.59.59,0,0,1,.77.08Z"/><path d="M12.06,14.22l-.78-.08A.59.59,0,0,1,12.06,14.22Z"/><path d="M16.3,11.57a.42.42,0,1,1,0-.83.4.4,0,0,1,.43.41A.4.4,0,0,1,16.3,11.57Z"/></g><g class="cls-3"><path d="M9.63,11.84A9.57,9.57,0,0,1,17,2.51,9.48,9.48,0,0,1,27.12,6a9.12,9.12,0,0,1,1.82,7.58,9.61,9.61,0,0,1-7.64,7.69A9.72,9.72,0,0,1,10,14.55,9.45,9.45,0,0,1,9.63,11.84Zm8.59-4.35c-.09-.24-.37-.39-.28-.69,0,0-.06-.1-.09-.1h-.6s-.1.11-.09.15a2.84,2.84,0,0,1,0,1.36s.06.14.09.15h.54l-.09-.64.07,0,.42.74.45-.75.08,0c0,.17-.08.33-.11.5a.23.23,0,0,0,.09.14h.51a.21.21,0,0,0,.09-.13c0-.22-.07-.45-.07-.67s.05-.49.07-.74c0,0-.06-.12-.09-.12h-.7C18.61,7,18.36,7.24,18.22,7.49ZM18.27,10h-.48c-.27,0-.26,0-.17.24a.47.47,0,0,1,0,.17c0,.22,0,.43,0,.65s-.07.31-.08.46a.22.22,0,0,0,.11.15,2.16,2.16,0,0,0,.44,0s.11-.1.1-.14c0-.22-.07-.44-.11-.66l.08,0c.21.28.59.41.66.83h.56a.2.2,0,0,0,.11-.14,3.83,3.83,0,0,1-.07-.58c0-.28-.09-.57.07-.83,0,0-.07-.11-.1-.11A3.38,3.38,0,0,0,19,10c-.12,0-.12.07-.1.17s.06.4.09.6l-.08,0C18.69,10.51,18.33,10.39,18.27,10Zm-1.15,4.94s0-.08,0-.1a1.31,1.31,0,0,1-.08-.78c0-.22.06-.43.07-.64a.19.19,0,0,0-.1-.13H16.6c-.15,0-.14.06-.11.19a5.59,5.59,0,0,1,.08.59l-.08,0c-.17-.28-.56-.38-.59-.8h-.63s-.09.08-.09.12c0,.22.07.44.07.66s-.05.5-.07.76c0,0,.07.11.12.12h.42c.12,0,.13-.06.11-.16s-.07-.42-.1-.64l.08,0c.21.28.58.41.65.81Zm6.82,0h.55c.14,0,.13-.07.11-.18a6.17,6.17,0,0,1-.08-.62l.07,0c.2.27.57.4.64.82h.6a.17.17,0,0,0,.08-.12c0-.26-.07-.52-.07-.78a4.5,4.5,0,0,1,.07-.63.2.2,0,0,0-.11-.13h-.42c-.15,0-.14.06-.11.19a3.81,3.81,0,0,1,.07.59h-.07c-.18-.27-.56-.38-.59-.77l-.06,0h-.47c-.22,0-.22,0-.13.22a.62.62,0,0,1,0,.19A3.57,3.57,0,0,1,23.94,14.93Zm3.93-.6V13.8l-.69.08c0-.08,0-.14,0-.14a1.86,1.86,0,0,1,1,.06v-.38c0-.25,0-.25-.25-.17a.43.43,0,0,1-.16,0h-1c-.27,0-.27,0-.19.25a.76.76,0,0,1,0,.15v.87a.32.32,0,0,1,0,.19c-.09.16,0,.2.13.2h1c.13,0,.25.05.38.06a.21.21,0,0,0,.15-.1,3.49,3.49,0,0,0,0-.45l-1.09.06a.58.58,0,0,1,0-.17Zm-5.93-1.06h-.57c-.14,0-.13.07-.1.18s.05.24.08.37h-.73a2.49,2.49,0,0,0,.1-.39.18.18,0,0,0-.08-.16h-.5a.17.17,0,0,0-.1.12c0,.25.07.5.07.74s-.05.45-.07.67a.19.19,0,0,0,.12.13h.46c.14,0,.14-.07.1-.18s-.06-.29-.09-.45h.73c0,.16-.05.31-.09.45s0,.18.11.18h.56A3.87,3.87,0,0,1,21.94,13.27Zm-2.5.16c-.3-.07-.58-.15-.86-.19a1,1,0,0,0-.45.08.5.5,0,0,0-.36.55.51.51,0,0,0,.47.45l.46,0a1.08,1.08,0,0,1,.19,0v.09a1.55,1.55,0,0,1-.48,0,2.41,2.41,0,0,1-.49-.2l-.21.51a4.69,4.69,0,0,0,.69.14,1.82,1.82,0,0,0,.7-.08.48.48,0,0,0,.15-.85l-.06-.08Zm-7.59.51.26-.51a5.63,5.63,0,0,0-.85-.18,1.18,1.18,0,0,0-.55.11.49.49,0,0,0-.23.65.53.53,0,0,0,.47.31l.61.07v.07a.89.89,0,0,1-.94-.19l-.22.52a5.35,5.35,0,0,0,.64.15,2,2,0,0,0,.54,0,.58.58,0,0,0,.52-.41A.52.52,0,0,0,11.85,13.94ZM16,10a.89.89,0,0,0-1,.73.85.85,0,0,0,.68,1,1,1,0,0,0,1.22-.57A.87.87,0,0,0,16,10ZM12.7,13.27c0,.05,0,.1,0,.13a3.73,3.73,0,0,1,.08.44c0,.19,0,.37,0,.55a.45.45,0,0,0,.4.5,2.89,2.89,0,0,0,.83,0,.5.5,0,0,0,.45-.51c0-.16,0-.33,0-.49s.06-.33.08-.5a.22.22,0,0,0-.1-.14H13.9c0,.06,0,.1,0,.12.16.29.06.59.07.89,0,.14-.09.22-.23.22s-.37.05-.4-.14a3,3,0,0,1,0-.89c0-.17,0-.21-.15-.21Zm10.23-2.85h-.09a3.06,3.06,0,0,0-.05-.32s-.06-.12-.1-.12c-.22,0-.44,0-.65,0a.13.13,0,0,0-.09.07.11.11,0,0,0,0,.11c.16.2.33.38.49.57a.63.63,0,0,1,.08.75c0,.09,0,.17.1.17h.45c.15,0,.15-.05.11-.19a1,1,0,0,1,0-.56,4.94,4.94,0,0,1,.58-.72.31.31,0,0,0,0-.12.16.16,0,0,0-.1-.08c-.21,0-.41,0-.62,0,0,0-.1.1-.09.11S23,10.33,22.93,10.42ZM21.15,8.36a.67.67,0,0,1-.06-.19c0-.19-.08-.41,0-.55a5.45,5.45,0,0,1,.57-.72.27.27,0,0,0,.05-.14s-.07-.06-.11-.06H21c-.05,0-.13.1-.12.12s0,.23-.11.35c-.08-.12-.22-.19-.12-.35s-.07-.11-.11-.12H20a.17.17,0,0,0-.12.06s0,.09,0,.13l.52.6a.64.64,0,0,1,.05.69c0,.12,0,.18.1.18Zm-1,3.29h1.09c.12,0,.24.05.36.06a.21.21,0,0,0,.15-.1,2.41,2.41,0,0,0,0-.38c0-.13-.06-.12-.16-.11-.26,0-.53.07-.86.12.05-.42.09-.77.11-1.12,0-.05-.05-.14-.08-.14-.2,0-.4,0-.61,0A3.49,3.49,0,0,1,20.16,11.65Zm3.14,3.28a3.87,3.87,0,0,1,0-1.66h-.57s-.11.08-.11.12c0,.24.06.47.06.71s0,.46-.06.7,0,.13.13.13Z"/><path d="M3.36,12.74V11.67H8.24v1.07Z"/><path d="M30.51,12.74V11.67h4.86v1.07Z"/><path d="M9,7.29l-.44,1L4.1,6.35l.43-1Z"/><path d="M29.55,8.71l-.4-1L33.7,5.93l.4,1Z"/><path d="M29,17.13l.44-1,4.48,1.94-.44,1Z"/><path d="M4.27,18.49l-.4-1,4.55-1.76.4,1Z"/><path d="M31.05,1.32,27.66,4.81,26.89,4,27,3.88,29.93,1a.56.56,0,0,1,.76,0Z"/><path d="M31,23.1c-.11.11-.26.26-.43.41a.63.63,0,0,1-.61,0l-3.11-3.08h0l.78-.79Z"/><path d="M11.8,4.09l-.71.72L7.7,1.31A1.6,1.6,0,0,1,8.15.92a.63.63,0,0,1,.57,0C9.77,2,10.78,3,11.8,4.09Z"/><path d="M11.09,19.59l.78.8-.13.14-3,2.91a.56.56,0,0,1-.72,0l-.37-.36Z"/><path d="M23.58,22.37l1-.39.62,1.59H24.14a.19.19,0,0,1-.13-.1C23.86,23.11,23.72,22.75,23.58,22.37Z"/><path d="M23,1.9c.14-.33.28-.64.42-.94a.2.2,0,0,1,.15-.1h1.09L24,2.34Z"/><path d="M14,22.08l1,.44c-.15.34-.29.66-.44,1a.14.14,0,0,1-.12.06h-1.1Z"/><path d="M13.91.85H15c.05,0,.12.07.14.12.11.24.2.49.31.77l-1,.4Z"/><path d="M18.82,1.18V.87H19.9v.31Z"/><path d="M19.9,23.24v.31H18.83v-.31Z"/><path d="M18.28,13.8a.59.59,0,0,1,.77.08Z"/><path d="M11.72,13.88l-.78-.08A.59.59,0,0,1,11.72,13.88Z"/><path d="M16,11.23a.42.42,0,1,1,0-.83.4.4,0,0,1,.43.41A.4.4,0,0,1,16,11.23Z"/></g><path class="cls-4" d="M9.83,12a9.57,9.57,0,0,1,7.34-9.33A9.46,9.46,0,0,1,27.32,6.22a9.12,9.12,0,0,1,1.82,7.58,9.76,9.76,0,0,1-18.92.95A9.45,9.45,0,0,1,9.83,12Zm8.59-4.35c-.09-.24-.37-.39-.28-.69,0,0-.06-.1-.1-.1a5.8,5.8,0,0,0-.59,0s-.1.11-.09.15a3,3,0,0,1,0,1.36.19.19,0,0,0,.09.15H18l-.09-.64.06,0,.43.74.45-.75.07,0c0,.17-.08.33-.1.5a.23.23,0,0,0,.09.14h.51a.21.21,0,0,0,.09-.13c0-.22-.07-.45-.07-.67s.05-.49.07-.74c0,0-.06-.12-.1-.12-.22,0-.44,0-.69,0C18.81,7.24,18.56,7.44,18.42,7.69Zm0,2.49H18c-.27,0-.27,0-.17.24a.44.44,0,0,1,0,.16c0,.22,0,.44,0,.66s-.07.31-.08.46.06.14.11.14a1.62,1.62,0,0,0,.44,0s.1-.1.1-.14c0-.22-.07-.44-.11-.66l.08,0c.21.28.59.42.65.84a5.42,5.42,0,0,0,.57,0,.14.14,0,0,0,.1-.13,5.61,5.61,0,0,1-.06-.59,1.44,1.44,0,0,1,.07-.82.25.25,0,0,0-.11-.12h-.44c-.13,0-.12.07-.1.17s.06.4.09.6l-.08,0C18.89,10.71,18.53,10.59,18.46,10.18Zm-1.15,4.94s0-.08,0-.11a1.3,1.3,0,0,1-.08-.78c0-.21.05-.42.07-.63a.19.19,0,0,0-.1-.13,3,3,0,0,0-.42,0c-.15,0-.14.07-.11.2a3.81,3.81,0,0,1,.07.59l-.08,0c-.16-.29-.55-.38-.58-.8h-.63s-.09.08-.09.12c0,.22.07.44.07.66s-.06.5-.07.76a.15.15,0,0,0,.11.11,3.09,3.09,0,0,0,.43,0c.12,0,.13-.06.11-.16s-.07-.43-.1-.64l.08,0c.21.27.58.41.64.81Zm6.83,0h.55c.14,0,.13-.07.11-.18a6.17,6.17,0,0,1-.08-.62l.07,0c.2.27.57.4.64.82H26s.08-.07.08-.11c0-.26-.07-.52-.08-.78s.06-.42.07-.63c0,0-.06-.12-.1-.13a3,3,0,0,0-.42,0c-.15,0-.14.07-.11.2a3.81,3.81,0,0,1,.07.59h-.07c-.18-.27-.57-.38-.59-.78h-.53c-.22,0-.22,0-.14.23a.42.42,0,0,1,0,.19A3.59,3.59,0,0,1,24.14,15.13Zm3.93-.6V14l-.69.08c0-.08,0-.14,0-.14a1.82,1.82,0,0,1,1,.06v-.38c0-.25,0-.25-.24-.17a.47.47,0,0,1-.17,0H27c-.27,0-.27,0-.19.26a.76.76,0,0,1,0,.15c0,.29,0,.58,0,.86a.42.42,0,0,1,0,.2c-.09.16,0,.2.13.2.33,0,.67,0,1,0,.13,0,.25.06.38.07a.21.21,0,0,0,.15-.1c0-.16,0-.32,0-.45l-1.08.06a.54.54,0,0,1,0-.17Zm-5.93-1.07h-.57c-.14,0-.13.08-.1.19a2.2,2.2,0,0,1,.07.37h-.72a2.49,2.49,0,0,0,.1-.39.21.21,0,0,0-.08-.16h-.51s-.09.08-.09.12c0,.25.07.49.07.74s0,.45-.07.67c0,0,.07.12.11.12a3.69,3.69,0,0,0,.47,0c.14,0,.14-.07.1-.18s-.06-.29-.09-.46h.72c0,.17,0,.32-.08.46s0,.18.11.18h.56A3.77,3.77,0,0,1,22.14,13.46Zm-2.5.17c-.31-.07-.58-.15-.86-.19a.88.88,0,0,0-.45.08.5.5,0,0,0-.36.55.49.49,0,0,0,.47.44,3.59,3.59,0,0,0,.46.05l.19,0v.09a1.48,1.48,0,0,1-.47,0,2.41,2.41,0,0,1-.49-.2l-.21.5a3.56,3.56,0,0,0,.69.15,1.84,1.84,0,0,0,.7-.08.49.49,0,0,0,.15-.86l-.07-.07Zm-7.59.51.26-.51a7.29,7.29,0,0,0-.85-.19,1.33,1.33,0,0,0-.55.12.48.48,0,0,0-.23.65.55.55,0,0,0,.47.31l.61.07v.07a.89.89,0,0,1-.94-.19l-.22.52c.22,0,.43.12.64.15a2,2,0,0,0,.54,0,.59.59,0,0,0,.52-.41A.52.52,0,0,0,12.05,14.14Zm4.11-4a.89.89,0,0,0-1,.73.84.84,0,0,0,.67,1,1,1,0,0,0,1.23-.57A.87.87,0,0,0,16.16,10.16Zm-3.26,3.3a.76.76,0,0,0,0,.14c0,.15.07.29.08.44s0,.37,0,.55a.45.45,0,0,0,.4.5,2.89,2.89,0,0,0,.83,0,.5.5,0,0,0,.45-.51c0-.17,0-.33,0-.49s.06-.34.08-.51-.07-.13-.11-.13H14.1s0,.1,0,.12c.16.29.06.59.07.89a.21.21,0,0,1-.23.22c-.16,0-.38.05-.4-.14a3,3,0,0,1,0-.9c0-.16,0-.2-.14-.2Zm10.23-2.84H23c0-.11,0-.22-.05-.32s-.06-.12-.1-.13h-.66a.1.1,0,0,0-.05.18l.49.57a.65.65,0,0,1,.08.75c0,.09,0,.17.1.17h.44c.16,0,.16,0,.12-.19a.9.9,0,0,1,0-.56,5.63,5.63,0,0,1,.57-.72s.06-.09.05-.12-.06-.08-.1-.08h-.61s-.1.11-.1.12S23.19,10.53,23.13,10.62ZM21.35,8.56c0-.09-.06-.14-.07-.19s-.07-.41,0-.55a4.74,4.74,0,0,1,.57-.72A.27.27,0,0,0,21.91,7s-.07-.06-.11-.06a5.42,5.42,0,0,0-.57,0c-.05,0-.13.1-.12.11.1.17,0,.23-.11.35-.08-.11-.22-.18-.12-.34,0,0-.07-.12-.11-.12-.2,0-.41,0-.61,0,0,0-.11,0-.12.06a.18.18,0,0,0,0,.13l.52.6a.66.66,0,0,1,0,.69c0,.11,0,.18.1.18Zm-1,3.29h1.09c.12,0,.24.06.36.07a.21.21,0,0,0,.15-.1,2.41,2.41,0,0,0,0-.38c0-.13-.06-.12-.16-.11l-.86.11c0-.42.09-.76.11-1.11,0-.05-.05-.14-.09-.14a5.9,5.9,0,0,0-.6,0A3.62,3.62,0,0,1,20.36,11.85Zm3.14,3.28a3.92,3.92,0,0,1,0-1.67h-.57s-.11.08-.11.12c0,.24.06.47.06.7s0,.47-.06.7,0,.14.12.14Z"/><path class="cls-4" d="M3.56,12.94V11.87H8.43v1.07Z"/><path class="cls-4" d="M30.71,12.94V11.87h4.86v1.07Z"/><path class="cls-4" d="M9.21,7.49l-.44,1L4.29,6.55l.44-1Z"/><path class="cls-4" d="M29.75,8.91l-.4-1L33.9,6.13l.4,1Z"/><path class="cls-4" d="M29.16,17.33l.44-1,4.47,1.94-.44,1Z"/><path class="cls-4" d="M4.47,18.68l-.4-1,4.54-1.76.41,1Z"/><path class="cls-4" d="M31.24,1.52,27.86,5l-.77-.81a1.29,1.29,0,0,1,.12-.12l2.91-2.89a.57.57,0,0,1,.77,0Z"/><path class="cls-4" d="M31.23,23.3l-.43.41a.69.69,0,0,1-.61,0l-3.11-3.08h0l.77-.79Z"/><path class="cls-4" d="M12,4.28,11.29,5,7.9,1.51a1.93,1.93,0,0,1,.44-.4.68.68,0,0,1,.58,0C10,2.16,11,3.22,12,4.28Z"/><path class="cls-4" d="M11.29,19.79l.78.8-.13.14L9,23.64a.56.56,0,0,1-.72,0l-.37-.36Z"/><path class="cls-4" d="M23.77,22.57l1-.39.62,1.58H24.34a.17.17,0,0,1-.13-.1C24.06,23.31,23.92,23,23.77,22.57Z"/><path class="cls-4" d="M23.15,2.1c.14-.33.27-.64.42-.94a.2.2,0,0,1,.15-.1h1.09l-.66,1.49Z"/><path class="cls-4" d="M14.21,22.28l1,.44c-.15.33-.29.66-.44,1a.17.17,0,0,1-.12.06h-1.1Z"/><path class="cls-4" d="M14.11,1.05H15.2a.19.19,0,0,1,.14.12l.31.77-1,.39Z"/><path class="cls-4" d="M19,1.38V1.06H20.1v.32Z"/><path class="cls-4" d="M20.1,23.44v.31H19v-.31Z"/><path class="cls-4" d="M18.48,14a.57.57,0,0,1,.77.08Z"/><path class="cls-4" d="M11.92,14.08,11.13,14A.6.6,0,0,1,11.92,14.08Z"/><path class="cls-4" d="M16.16,11.42a.38.38,0,0,1-.42-.41.4.4,0,0,1,.42-.41.4.4,0,0,1,.43.41A.39.39,0,0,1,16.16,11.42Z"/></g></g></svg>