<svg xmlns="http://www.w3.org/2000/svg" viewBox="0 0 38.55 24.66"><defs><style>.cls-1{isolation:isolate;}.cls-2{opacity:0.15;}.cls-2,.cls-3{mix-blend-mode:multiply;}.cls-4{fill:#fff;}</style></defs><title>convert-FIX-SVG-03</title><g class="cls-1"><g id="Layer_1" data-name="Layer 1"><g class="cls-2"><path d="M34.09,6.06a.78.78,0,0,1-1.45,0,.84.84,0,0,1-.76.49.72.72,0,0,1-.7-.6.85.85,0,0,1-.68.71,1,1,0,0,1-.9-.36,1,1,0,0,1-.88.36A.84.84,0,0,1,28,6a.68.68,0,0,1-.71.55.78.78,0,0,1-.73-.49c-.38.62-1,.68-1.39.12a.85.85,0,0,1-.71.5,1,1,0,0,1-.81-.36,1,1,0,0,1-.89.35A.82.82,0,0,1,22.1,6a.73.73,0,0,1-.7.56.81.81,0,0,1-.75-.51.81.81,0,0,1-.66.5.68.68,0,0,1-.72-.37.87.87,0,0,1-.73.5.91.91,0,0,1-.79-.37,1,1,0,0,1-.88.36.81.81,0,0,1-.69-.64.78.78,0,0,1-1.46,0,.84.84,0,0,1-.65.49.71.71,0,0,1-.73-.37.86.86,0,0,1-.72.5.91.91,0,0,1-.79-.36c-.7.56-1.29.46-1.58-.28a.76.76,0,0,1-.7.52.8.8,0,0,1-.75-.51.84.84,0,0,1-.68.5.69.69,0,0,1-.7-.36.91.91,0,0,1-1.54.13A1,1,0,0,1,5,6.69.84.84,0,0,1,4.31,6a.73.73,0,0,1-.7.54.76.76,0,0,1-.72-.47,2.56,2.56,0,0,1-.39.36.69.69,0,0,1-.82,0,.71.71,0,0,1-.23-.8,2.18,2.18,0,0,1,.79-1.12c.14-.13.3-.24.47-.38L2.51,4a3.28,3.28,0,0,1-1-1.1A1.7,1.7,0,0,1,1.3,2.3a.77.77,0,0,1,.48-.82.9.9,0,0,1,1,.18l.12.12a1,1,0,0,1,.87-.36.83.83,0,0,1,.7.65.72.72,0,0,1,.71-.53A.79.79,0,0,1,5.87,2c.47-.61,1-.65,1.4-.11A.85.85,0,0,1,8,1.41a.92.92,0,0,1,.81.38.94.94,0,0,1,.88-.37.83.83,0,0,1,.69.66.71.71,0,0,1,.7-.54.78.78,0,0,1,.75.51.83.83,0,0,1,.66-.51.7.7,0,0,1,.73.38.86.86,0,0,1,.71-.51,1,1,0,0,1,.8.36.9.9,0,0,1,1.59.3.7.7,0,0,1,.7-.53.83.83,0,0,1,.74.49c.39-.61,1-.67,1.38-.12a.87.87,0,0,1,.71-.5.94.94,0,0,1,.81.37,1,1,0,0,1,.88-.36.8.8,0,0,1,.69.64c.45-.69,1-.71,1.46,0a.82.82,0,0,1,.66-.49.74.74,0,0,1,.73.37.83.83,0,0,1,.71-.5.88.88,0,0,1,.79.37c.68-.58,1.33-.46,1.58.3a.72.72,0,0,1,.71-.54.77.77,0,0,1,.74.51.82.82,0,0,1,.76-.51c.37,0,.58.21.7.59a.85.85,0,0,1,.68-.7.92.92,0,0,1,.9.34c.66-.57,1.16-.48,1.58.26a.77.77,0,0,1,1.44,0,3.22,3.22,0,0,1,.24-.28.76.76,0,0,1,.88-.1.74.74,0,0,1,.31.84,2.29,2.29,0,0,1-.79,1.12c-.14.14-.3.25-.47.39l.51.41a2.45,2.45,0,0,1,.85,1.18.86.86,0,0,1-.37,1,.9.9,0,0,1-1.08-.2l-.08-.06a.94.94,0,0,1-.88.35A.83.83,0,0,1,34.09,6.06ZM4.56,5.77c0,.37.15.61.4.67a.7.7,0,0,0,.75-.3,1.81,1.81,0,0,1,.18-.21c.05.07.12.13.16.2a.69.69,0,0,0,.79.3.59.59,0,0,0,.36-.7A1.52,1.52,0,0,0,7,5.31,3.34,3.34,0,0,0,6,4.24a.17.17,0,0,0-.18,0A8.67,8.67,0,0,0,5,5,1.25,1.25,0,0,0,4.56,5.77ZM32.64,3.94a4,4,0,0,0,1.08-1,1.5,1.5,0,0,0,.22-.5.57.57,0,0,0-.34-.74.67.67,0,0,0-.8.31,1.45,1.45,0,0,1-.17.19A1.39,1.39,0,0,1,32.48,2a.67.67,0,0,0-.8-.31.57.57,0,0,0-.35.72,1.83,1.83,0,0,0,.25.55A3.68,3.68,0,0,0,32.64,3.94ZM26.55,4c.31-.26.57-.47.81-.69a1.78,1.78,0,0,0,.53-.89.6.6,0,0,0-.36-.73.69.69,0,0,0-.79.31,1.4,1.4,0,0,1-.16.2c0-.07-.12-.13-.16-.2a.69.69,0,0,0-.79-.31.56.56,0,0,0-.36.68,1.51,1.51,0,0,0,.26.61C25.84,3.32,26.19,3.64,26.55,4ZM2.88,4c.23-.19.45-.36.66-.55a1.88,1.88,0,0,0,.62-.94A.64.64,0,0,0,4,1.78a.57.57,0,0,0-.66-.06A1.34,1.34,0,0,0,3,2l-.14.14L2.72,2s0,0,0,0a.69.69,0,0,0-.77-.31.54.54,0,0,0-.38.64,1.46,1.46,0,0,0,.16.5A3.62,3.62,0,0,0,2.88,4ZM25,5.86a3.24,3.24,0,0,0-.19-.52,3.28,3.28,0,0,0-1.09-1.1.19.19,0,0,0-.18,0,10,10,0,0,0-.84.75,1.3,1.3,0,0,0-.39.82.57.57,0,0,0,.67.63.64.64,0,0,0,.53-.38c0-.05.09-.09.13-.14l.14.14.06.11a.7.7,0,0,0,.73.26A.65.65,0,0,0,25,5.86ZM10.12,2.35c0-.39-.16-.62-.43-.68A.7.7,0,0,0,9,2a1.56,1.56,0,0,1-.16.2A.66.66,0,0,1,8.64,2a.67.67,0,0,0-.8-.31.57.57,0,0,0-.36.7,1.57,1.57,0,0,0,.2.48,3.34,3.34,0,0,0,1,1,.19.19,0,0,0,.18,0c.27-.23.54-.45.79-.7A1.35,1.35,0,0,0,10.12,2.35Zm5.93,0c0-.38-.15-.61-.41-.68a.69.69,0,0,0-.76.33c0,.07-.1.12-.15.19a1.06,1.06,0,0,1-.17-.2.69.69,0,0,0-.78-.31.58.58,0,0,0-.37.71,1.72,1.72,0,0,0,.14.4,3.37,3.37,0,0,0,1.1,1.09.15.15,0,0,0,.16,0c.29-.25.59-.49.85-.76A1.27,1.27,0,0,0,16.05,2.35ZM20.64,4c.36-.34.69-.61,1-.93A1.93,1.93,0,0,0,22,2.36a.53.53,0,0,0-.27-.63A.64.64,0,0,0,21,1.8a1.89,1.89,0,0,0-.2.27s-.09.11-.13.11-.09-.07-.13-.12l0-.05a.67.67,0,0,0-.79-.33.56.56,0,0,0-.36.7,1.39,1.39,0,0,0,.27.59C19.91,3.32,20.27,3.64,20.64,4ZM13.17,5.85a3.05,3.05,0,0,0-.2-.53,3.28,3.28,0,0,0-1.08-1.08.17.17,0,0,0-.17,0A7.12,7.12,0,0,0,10.9,5a2.13,2.13,0,0,0-.39.69.59.59,0,0,0,.33.75.69.69,0,0,0,.82-.31.84.84,0,0,1,.15-.18c0,.07.12.12.16.19a.7.7,0,0,0,.77.32A.65.65,0,0,0,13.17,5.85Zm5.92,0a2.38,2.38,0,0,0-.15-.45,3.17,3.17,0,0,0-1.13-1.17.17.17,0,0,0-.17,0,7,7,0,0,0-.85.78,1.71,1.71,0,0,0-.36.74.55.55,0,0,0,.38.67.69.69,0,0,0,.76-.31c.05-.07.11-.13.17-.2a1.12,1.12,0,0,1,.17.21.71.71,0,0,0,.76.3A.63.63,0,0,0,19.09,5.85Zm9.18,0a.58.58,0,0,0,.4.6.69.69,0,0,0,.76-.31,1.63,1.63,0,0,1,.17-.2c0,.07.12.13.16.2a.69.69,0,0,0,.79.3.57.57,0,0,0,.36-.68,1.3,1.3,0,0,0-.15-.43,3.38,3.38,0,0,0-1.08-1.08.19.19,0,0,0-.18,0c-.28.24-.57.47-.82.73A1.3,1.3,0,0,0,28.27,5.84Zm6.06-.09c0,.5.27.75.65.7a.63.63,0,0,0,.53-.37,1.06,1.06,0,0,1,.15-.15l.15.16,0,.06a.71.71,0,0,0,.76.29A.57.57,0,0,0,37,5.81a1.67,1.67,0,0,0-.15-.48,3.28,3.28,0,0,0-1.1-1.09.15.15,0,0,0-.17,0,9,9,0,0,0-.81.7A1.34,1.34,0,0,0,34.33,5.75Zm-3.15,0a3.1,3.1,0,0,1,1.3-1.62,3.18,3.18,0,0,1-1.42-1.77A3.05,3.05,0,0,1,29.76,4,3.26,3.26,0,0,1,31.18,5.75ZM26.74,4.14A3.09,3.09,0,0,1,28,5.7,3.33,3.33,0,0,1,29.43,4a7.26,7.26,0,0,1-.76-.69,6.71,6.71,0,0,1-.55-.8C28,3,27.81,3.22,26.74,4.14ZM4.44,2.43A3.36,3.36,0,0,1,3,4.13,3.23,3.23,0,0,1,4.31,5.68,3.36,3.36,0,0,1,5.73,4,3.18,3.18,0,0,1,4.44,2.43ZM32.79,4.14a3.23,3.23,0,0,1,1.3,1.54A3.34,3.34,0,0,1,35.48,4a6.94,6.94,0,0,1-.74-.68,6.37,6.37,0,0,1-.56-.8A3.27,3.27,0,0,1,32.79,4.14ZM9,4.12a9.62,9.62,0,0,1,.74.68c.21.25.38.54.56.8A3.3,3.3,0,0,1,11.66,4a3.24,3.24,0,0,1-1.3-1.55A3.3,3.3,0,0,1,9,4.12Zm5.91,0a3.24,3.24,0,0,1,1.29,1.56A3.32,3.32,0,0,1,17.58,4a3.21,3.21,0,0,1-1.29-1.56A3.32,3.32,0,0,1,14.88,4.13Zm5.94,0a7.13,7.13,0,0,1,.75.69,6.71,6.71,0,0,1,.55.8A3.33,3.33,0,0,1,23.51,4a3.15,3.15,0,0,1-1.29-1.56A3.24,3.24,0,0,1,20.82,4.12ZM25.05,2.7a8,8,0,0,1-.53.69c-.21.21-.45.4-.69.6A3.62,3.62,0,0,1,25.19,5.5a3.58,3.58,0,0,1,1.22-1.36,9.72,9.72,0,0,1-.76-.66C25.43,3.24,25.24,3,25.05,2.7ZM17.91,4a3.7,3.7,0,0,1,1.33,1.45,8.2,8.2,0,0,1,.57-.72,8.07,8.07,0,0,1,.68-.6,3.65,3.65,0,0,1-1.34-1.45c-.19.25-.35.49-.55.71S18.15,3.78,17.91,4ZM7.4,5.5A3.56,3.56,0,0,1,8.64,4.13,3.7,3.7,0,0,1,7.27,2.62,3.64,3.64,0,0,1,6,4,3.57,3.57,0,0,1,7.4,5.5Zm5.8-2.89A3.6,3.6,0,0,1,12,4,3.64,3.64,0,0,1,13.33,5.5a3.56,3.56,0,0,1,1.24-1.37A3.67,3.67,0,0,1,13.2,2.61Z"/><path d="M19.18,22.65a.89.89,0,0,1-1.52.12,1,1,0,0,1-.87.36.82.82,0,0,1-.7-.66.72.72,0,0,1-.7.54.79.79,0,0,1-.75-.51A.83.83,0,0,1,14,23a.73.73,0,0,1-.71-.35.91.91,0,0,1-1.54.12,1,1,0,0,1-.88.35.83.83,0,0,1-.68-.65.72.72,0,0,1-.71.53.79.79,0,0,1-.74-.51A.85.85,0,0,1,8,23a.72.72,0,0,1-.72-.38.84.84,0,0,1-.72.51,1,1,0,0,1-.8-.37,1,1,0,0,1-.88.36.83.83,0,0,1-.69-.65.72.72,0,0,1-.7.53.78.78,0,0,1-.74-.49c-.09.11-.15.21-.23.29a.78.78,0,0,1-.89.11.75.75,0,0,1-.31-.85,2.32,2.32,0,0,1,.81-1.14l.43-.34c-.3-.27-.6-.53-.88-.81a1.62,1.62,0,0,1-.51-1.06.8.8,0,0,1,.48-.8.88.88,0,0,1,1,.16l.07.07.06.06a.88.88,0,0,1,1.57.29A.74.74,0,0,1,5.05,18a.8.8,0,0,1,.74.51.86.86,0,0,1,.66-.5.71.71,0,0,1,.73.37.85.85,0,0,1,.71-.5.94.94,0,0,1,.81.37,1,1,0,0,1,.88-.36.83.83,0,0,1,.7.64.77.77,0,0,1,1.45-.05.77.77,0,0,1,1.38-.1.85.85,0,0,1,.71-.5.94.94,0,0,1,.81.37,1,1,0,0,1,.88-.36.84.84,0,0,1,.7.65.78.78,0,0,1,1.46,0,.77.77,0,0,1,.66-.49.66.66,0,0,1,.7.36.91.91,0,0,1,1.53-.14.88.88,0,0,1,1.57.32.73.73,0,0,1,.72-.55.8.8,0,0,1,.73.5A.77.77,0,0,1,25,18.35a.83.83,0,0,1,.71-.5.92.92,0,0,1,.8.36c.72-.57,1.28-.47,1.58.27.44-.68,1.06-.69,1.45,0a.81.81,0,0,1,.77-.51.72.72,0,0,1,.69.57c.35-.8.94-.92,1.58-.34a.9.9,0,0,1,1.58.29.7.7,0,0,1,.7-.52.79.79,0,0,1,.73.49,3.42,3.42,0,0,1,.22-.28.76.76,0,0,1,.9-.11.74.74,0,0,1,.31.85A2.29,2.29,0,0,1,36.2,20l-.45.36c.29.27.58.51.85.78a1.86,1.86,0,0,1,.52.9.86.86,0,0,1-.37.94.91.91,0,0,1-1-.1l-.13-.16a1,1,0,0,1-.9.37.82.82,0,0,1-.68-.66.73.73,0,0,1-.71.54.78.78,0,0,1-.74-.5.84.84,0,0,1-.76.5c-.37,0-.58-.21-.7-.6a.85.85,0,0,1-.68.71.94.94,0,0,1-.9-.34.9.9,0,0,1-1.59-.3.69.69,0,0,1-.7.53.79.79,0,0,1-.73-.49.79.79,0,0,1-1.39.14.91.91,0,0,1-1.53.12,1,1,0,0,1-.88.35.82.82,0,0,1-.68-.67.73.73,0,0,1-.72.55.79.79,0,0,1-.73-.5A.79.79,0,0,1,19.18,22.65ZM4.47,22.2c0,.38.16.61.41.68a.7.7,0,0,0,.76-.33,1,1,0,0,1,.17-.18c.05.06.11.12.15.18a.67.67,0,0,0,.8.31.58.58,0,0,0,.35-.7A1.71,1.71,0,0,0,7,21.78a3.27,3.27,0,0,0-1.11-1.11.17.17,0,0,0-.18,0,10.16,10.16,0,0,0-.78.67A1.45,1.45,0,0,0,4.47,22.2Zm28.08-1.83a3.82,3.82,0,0,0,1.1-1,1.89,1.89,0,0,0,.21-.48.6.6,0,0,0-.35-.75.7.7,0,0,0-.8.31,1.46,1.46,0,0,1-.16.19,1.3,1.3,0,0,1-.15-.18.69.69,0,0,0-.8-.32.57.57,0,0,0-.35.73,1.81,1.81,0,0,0,.27.58A3.86,3.86,0,0,0,32.55,20.37Zm-6.11,0a3.89,3.89,0,0,0,1.11-1,1.88,1.88,0,0,0,.25-.56.57.57,0,0,0-.35-.72.69.69,0,0,0-.8.32,1.3,1.3,0,0,1-.15.18,1.46,1.46,0,0,1-.16-.19.7.7,0,0,0-.79-.31.55.55,0,0,0-.36.69,1.52,1.52,0,0,0,.27.61C25.76,19.76,26.11,20.07,26.44,20.41Zm-23.66,0c.12-.09.25-.16.36-.26a2.24,2.24,0,0,0,.45-.42,3.61,3.61,0,0,0,.48-.8.58.58,0,0,0-.33-.77.69.69,0,0,0-.8.31,1.37,1.37,0,0,1-.16.18c0-.06-.12-.12-.17-.19a.71.71,0,0,0-.76-.31.57.57,0,0,0-.39.65,1.36,1.36,0,0,0,.16.48A3.48,3.48,0,0,0,2.78,20.37Zm20,2.52a.63.63,0,0,0,.6-.33,1.46,1.46,0,0,1,.16-.19,1.54,1.54,0,0,1,.17.19.7.7,0,0,0,.78.31.57.57,0,0,0,.37-.66,1.33,1.33,0,0,0-.15-.45,3.31,3.31,0,0,0-1.09-1.08.17.17,0,0,0-.17,0,8.71,8.71,0,0,0-.85.76,1.27,1.27,0,0,0-.39.82A.56.56,0,0,0,22.82,22.89ZM10,18.79c0-.39-.16-.63-.42-.69a.71.71,0,0,0-.75.33,1,1,0,0,1-.16.19c0-.06-.11-.12-.15-.18a.68.68,0,0,0-.78-.32.58.58,0,0,0-.38.71,1.59,1.59,0,0,0,.16.41,3.41,3.41,0,0,0,1.09,1.08.18.18,0,0,0,.16,0c.29-.25.58-.49.85-.76A1.25,1.25,0,0,0,10,18.79Zm4.63,1.6a8.34,8.34,0,0,0,.76-.68,3.25,3.25,0,0,0,.51-.81.6.6,0,0,0-.21-.72.67.67,0,0,0-.75.05,1.94,1.94,0,0,0-.21.29s-.08.09-.12.09-.09-.05-.12-.09,0-.09-.07-.13a.72.72,0,0,0-.72-.29.56.56,0,0,0-.42.57,1.58,1.58,0,0,0,.17.56A3.54,3.54,0,0,0,14.66,20.39Zm5.91,0a3.4,3.4,0,0,0,1.08-1,1.65,1.65,0,0,0,.23-.71.53.53,0,0,0-.59-.55.64.64,0,0,0-.59.4c0,.05-.09.13-.12.12s-.1-.07-.15-.12,0-.07-.06-.11a.7.7,0,0,0-.7-.28.54.54,0,0,0-.43.54,1.43,1.43,0,0,0,.16.58A3.48,3.48,0,0,0,20.57,20.37Zm7.61,1.93a.56.56,0,0,0,.64.59.66.66,0,0,0,.57-.41.17.17,0,0,1,.13-.1s.08.05.12.09a.42.42,0,0,1,0,.1.69.69,0,0,0,.77.3.57.57,0,0,0,.38-.67,1.17,1.17,0,0,0-.14-.41,3.37,3.37,0,0,0-1.1-1.12.19.19,0,0,0-.18,0c-.28.23-.56.46-.81.71A1.34,1.34,0,0,0,28.18,22.3Zm-11.9,0a.65.65,0,0,0,.47.6.68.68,0,0,0,.76-.36,1.06,1.06,0,0,1,.15-.15,1.07,1.07,0,0,1,.14.16.25.25,0,0,1,0,.07.7.7,0,0,0,.77.27.56.56,0,0,0,.36-.64,1.43,1.43,0,0,0-.16-.48,3.28,3.28,0,0,0-1.08-1.08.18.18,0,0,0-.16,0,12.91,12.91,0,0,0-1,1A2.2,2.2,0,0,0,16.28,22.28Zm-5.88-.09c0,.4.16.63.42.69a.69.69,0,0,0,.74-.32,1,1,0,0,1,.17-.19,1.46,1.46,0,0,1,.16.19.7.7,0,0,0,.77.32.57.57,0,0,0,.38-.67,1.46,1.46,0,0,0-.15-.46,3.34,3.34,0,0,0-1.08-1.07.19.19,0,0,0-.18,0,9.14,9.14,0,0,0-.81.71A1.29,1.29,0,0,0,10.4,22.19Zm26.53.11a3,3,0,0,0-.19-.53,3.28,3.28,0,0,0-1.09-1.1.23.23,0,0,0-.18,0,6.86,6.86,0,0,0-.59.48,1.91,1.91,0,0,0-.6.9.62.62,0,0,0,.31.79.69.69,0,0,0,.82-.3,1,1,0,0,1,.17-.19,1.08,1.08,0,0,1,.16.2.7.7,0,0,0,.75.31A.63.63,0,0,0,36.93,22.3Zm-6-3.5a3.09,3.09,0,0,1-1.3,1.62,3.23,3.23,0,0,1,1.42,1.76,3.13,3.13,0,0,1,1.31-1.61A3.23,3.23,0,0,1,31,18.8Zm-4.32,1.77a3.13,3.13,0,0,1,1.29,1.57,3.27,3.27,0,0,1,1.42-1.72,3.2,3.2,0,0,1-1.3-1.56A3.26,3.26,0,0,1,26.65,20.57ZM4.23,22.13a3.33,3.33,0,0,1,1.41-1.71,3.28,3.28,0,0,1-1.29-1.55,3.36,3.36,0,0,1-1.42,1.7A3.24,3.24,0,0,1,4.23,22.13Zm4.65-1.57a6.94,6.94,0,0,1,.74.68,7.19,7.19,0,0,1,.56.8,3.31,3.31,0,0,1,1.39-1.62,3.22,3.22,0,0,1-1.29-1.55A3.35,3.35,0,0,1,8.88,20.56Zm26.54-.14a3.24,3.24,0,0,1-1.3-1.55,3.34,3.34,0,0,1-1.41,1.7A3.22,3.22,0,0,1,34,22.12,3.36,3.36,0,0,1,35.42,20.42Zm-20.61.14a8.29,8.29,0,0,1,.75.69,6,6,0,0,1,.55.8,3.39,3.39,0,0,1,1.39-1.64,3.08,3.08,0,0,1-1.29-1.55A3.38,3.38,0,0,1,14.81,20.56Zm8.62-.14a3.14,3.14,0,0,1-1.3-1.57,3.25,3.25,0,0,1-1.39,1.71,6.94,6.94,0,0,1,.74.68,7.31,7.31,0,0,1,.56.81A3.27,3.27,0,0,1,23.43,20.42Zm2.91.15A3.73,3.73,0,0,1,25,19.05a3.62,3.62,0,0,1-1.23,1.37,3.77,3.77,0,0,1,1.37,1.51A3.58,3.58,0,0,1,26.34,20.57Zm-7.16,1.37a3.54,3.54,0,0,1,1.23-1.37A3.73,3.73,0,0,1,19,19.05a3.63,3.63,0,0,1-1.23,1.37A3.67,3.67,0,0,1,19.18,21.94Zm-12-2.84c-.19.25-.36.5-.56.72s-.45.4-.69.61A3.66,3.66,0,0,1,7.3,21.88a7.59,7.59,0,0,1,.56-.71,8.15,8.15,0,0,1,.68-.61A3.53,3.53,0,0,1,7.21,19.1Zm7.27,1.47a3.63,3.63,0,0,1-1.34-1.47c-.19.25-.36.5-.56.72s-.45.4-.69.61a3.57,3.57,0,0,1,1.35,1.5A3.62,3.62,0,0,1,14.48,20.57Z"/><path d="M14.64,11.12h.76a4.93,4.93,0,0,0-.23.46q-.27.64-.51,1.29a2,2,0,0,0,0,.36H14a1.89,1.89,0,0,0,0-.35c-.13-.35-.27-.71-.41-1.07a2.33,2.33,0,0,0-.42,1.42h-.68a1.94,1.94,0,0,0,0-.35c-.18-.48-.37-1-.56-1.44a2.23,2.23,0,0,0-.19-.32h.69a1,1,0,0,0,0,.35c.11.31.24.61.38,1,.15-.37.29-.7.4-1,0-.07,0-.17,0-.27H14a2.29,2.29,0,0,0,0,.39c.1.29.22.58.33.87C14.56,12.09,14.78,11.3,14.64,11.12Z"/><path d="M3,11.12h.81a1.28,1.28,0,0,0,.07.37c.15.31.33.61.49.91a2.27,2.27,0,0,0,.59-1.28h.81a5,5,0,0,0,0,2.11H5.08V11.91L4.3,13.24l-.74-1.32a5.22,5.22,0,0,0,0,1.31H3A5.17,5.17,0,0,0,3,11.12Z"/><path d="M32.61,12.36l.66.86h-.75c0-.33-.23-.54-.41-.75s-.35-.09-.57-.14c0,.34-.07.62.09.9H31a6.3,6.3,0,0,0,0-2.08c.6,0,1.21,0,1.82,0a.47.47,0,0,1,.42.46.54.54,0,0,1-.33.64A1.79,1.79,0,0,1,32.61,12.36ZM31.56,12h.94a.2.2,0,0,0,.19-.23c0-.14-.07-.22-.2-.22h-.93Z"/><path d="M27.89,13.3a2.27,2.27,0,0,0-.35-.05H25.78a5.62,5.62,0,0,0,0-2.13h1.83a1.58,1.58,0,0,0,.26-.06v.51a2.25,2.25,0,0,0-.36-.06H26.38v.44h1v.5c-.3-.19-.63,0-1-.11v.53a7,7,0,0,0,1.51,0Z"/><path d="M22.92,11.12h.73c-.21.25-.06.53-.13.8h1.2c0-.27.09-.54-.1-.8h.69a1.39,1.39,0,0,0-.07.33c0,.5,0,1,0,1.48a1.07,1.07,0,0,0,.06.3h-.65c.16-.29,0-.6.09-.9h-1.2c0,.3-.07.6.08.9h-.68A5.17,5.17,0,0,0,22.92,11.12Z"/><path d="M20.31,13.3a2.21,2.21,0,0,0-.33-.05H18.19a4.77,4.77,0,0,0,0-2.13H20a1.77,1.77,0,0,0,.3-.06v.51a2.76,2.76,0,0,0-.4-.06H18.8v.44h1v.44l-1,0v.54a8.44,8.44,0,0,0,1.51-.06Z"/><path d="M17.77,11.05v.51a7.18,7.18,0,0,0-1.47-.07V12a2.65,2.65,0,0,0,1-.06v.47l-1,0v.5h1.52v.48a2.52,2.52,0,0,0-.37-.05H15.71a1.21,1.21,0,0,0,.07-.29q0-.77,0-1.53a1.28,1.28,0,0,0-.07-.3h1.77A1.88,1.88,0,0,0,17.77,11.05Z"/><path d="M11.5,11.35l-.22.43a1.12,1.12,0,0,0-1.13-.28c-.09,0-.16.15-.24.23a.92.92,0,0,0,.26.16c.28,0,.56.06.84.11a.58.58,0,0,1,.54.53.6.6,0,0,1-.46.67,2,2,0,0,1-1.34,0,2.8,2.8,0,0,0-.31-.09l.19-.45a1.29,1.29,0,0,0,1.22.24c.08,0,.15-.13.23-.21-.09-.06-.16-.16-.25-.18-.25,0-.51-.06-.76-.08a.6.6,0,0,1-.59-.5.62.62,0,0,1,.43-.72,1.63,1.63,0,0,1,1.21.05Z"/><path d="M29.69,11.13a1.3,1.3,0,0,0,.06.37c.25.5.51,1,.77,1.47a2.14,2.14,0,0,0,.19.26h-.78a.33.33,0,0,0-.31-.52,5.09,5.09,0,0,0-.55,0c-.09,0-.21,0-.25.1s-.2.26,0,.41h-.71c.1-.17.19-.34.28-.51.2-.41.4-.81.59-1.22a1.3,1.3,0,0,0,.06-.37Zm-.36.6L29,12.4h.67Z"/><path d="M7.17,11.9l.32-.44c.07-.11.17-.22-.09-.34h.9a10.7,10.7,0,0,0-.84,1.16,1.27,1.27,0,0,0,0,.94H6.86c0-.4.17-.81-.14-1.18-.17-.19-.3-.41-.46-.61s-.18-.19-.27-.3h.87C6.69,11.48,7.08,11.6,7.17,11.9Z"/><path d="M21.34,11.48l-.81,0V11a6.56,6.56,0,0,0,2.12,0v.5l-.76,0a5,5,0,0,0,.05,1.75h-.66c0-.11,0-.22.06-.33Z"/><path d="M34.87,13.23h-.62c.06-.58,0-1.15,0-1.75l-.81,0v-.47c.11,0,.22,0,.34,0h1.5a1.57,1.57,0,0,0,.28-.06v.55c-.23-.19-.49-.08-.73-.1,0,0-.08.08-.08.12V13A1,1,0,0,0,34.87,13.23Z"/><path d="M34.29,6.26a.78.78,0,0,1-1.45,0,.82.82,0,0,1-.76.48.7.7,0,0,1-.7-.59.86.86,0,0,1-.68.71,1,1,0,0,1-.9-.36,1,1,0,0,1-.88.36.83.83,0,0,1-.7-.68.69.69,0,0,1-.71.56.79.79,0,0,1-.73-.5c-.38.63-1,.68-1.39.13a.87.87,0,0,1-.71.5,1,1,0,0,1-.81-.37,1,1,0,0,1-.89.36.82.82,0,0,1-.68-.67.71.71,0,0,1-.71.55.78.78,0,0,1-.74-.51.81.81,0,0,1-.66.51.69.69,0,0,1-.72-.37.89.89,0,0,1-.73.5A1,1,0,0,1,18,6.53a1,1,0,0,1-.89.36.8.8,0,0,1-.68-.64.78.78,0,0,1-1.46,0,.84.84,0,0,1-.65.49.73.73,0,0,1-.74-.37.83.83,0,0,1-.71.5A.91.91,0,0,1,12,6.54c-.7.56-1.29.46-1.59-.28a.71.71,0,0,1-.69.51A.78.78,0,0,1,9,6.27a.87.87,0,0,1-.68.5.72.72,0,0,1-.71-.36.9.9,0,0,1-1.53.13,1,1,0,0,1-.88.35.83.83,0,0,1-.69-.65.71.71,0,0,1-.7.53.75.75,0,0,1-.72-.46,2.56,2.56,0,0,1-.39.36.69.69,0,0,1-.82,0,.71.71,0,0,1-.23-.8,2.18,2.18,0,0,1,.79-1.12c.14-.13.3-.24.47-.38l-.2-.15a3.41,3.41,0,0,1-1-1.1A1.69,1.69,0,0,1,1.5,2.5.77.77,0,0,1,2,1.68a.88.88,0,0,1,1,.18A1.35,1.35,0,0,1,3.06,2a1,1,0,0,1,.87-.36.83.83,0,0,1,.7.65.72.72,0,0,1,.7-.54.81.81,0,0,1,.74.49c.47-.61,1-.65,1.4-.11a.85.85,0,0,1,.71-.5A.92.92,0,0,1,9,2a1,1,0,0,1,.89-.36.83.83,0,0,1,.69.66.72.72,0,0,1,.69-.55.79.79,0,0,1,.75.52.83.83,0,0,1,.67-.51.68.68,0,0,1,.72.37.86.86,0,0,1,.72-.5,1,1,0,0,1,.8.36.89.89,0,0,1,1.58.3.71.71,0,0,1,.71-.54.84.84,0,0,1,.74.5c.39-.62,1-.67,1.38-.12a.87.87,0,0,1,.71-.5,1,1,0,0,1,.81.37,1,1,0,0,1,.88-.36.8.8,0,0,1,.68.63c.46-.69,1.05-.7,1.47,0a.82.82,0,0,1,.66-.49.71.71,0,0,1,.72.37.84.84,0,0,1,.72-.5.89.89,0,0,1,.79.37c.68-.58,1.33-.46,1.58.3a.74.74,0,0,1,.71-.55.79.79,0,0,1,.74.52.83.83,0,0,1,.76-.52.71.71,0,0,1,.7.6.85.85,0,0,1,.68-.7.92.92,0,0,1,.9.34c.66-.57,1.16-.48,1.58.25a.77.77,0,0,1,1.44,0,3.22,3.22,0,0,1,.24-.28.76.76,0,0,1,.88-.1.75.75,0,0,1,.31.84,2.29,2.29,0,0,1-.79,1.12c-.14.13-.3.25-.47.39l.5.41a2.43,2.43,0,0,1,.86,1.18.87.87,0,0,1-.37,1,.9.9,0,0,1-1.08-.2l-.08-.06a.94.94,0,0,1-.88.35A.83.83,0,0,1,34.29,6.26ZM4.75,6a.62.62,0,0,0,.41.67.7.7,0,0,0,.75-.3,1.81,1.81,0,0,1,.18-.21l.16.2a.69.69,0,0,0,.79.3.59.59,0,0,0,.35-.71,1.56,1.56,0,0,0-.15-.41A3.48,3.48,0,0,0,6.16,4.43a.23.23,0,0,0-.18,0c-.27.23-.55.45-.8.7A1.35,1.35,0,0,0,4.75,6ZM32.84,4.13a3.82,3.82,0,0,0,1.08-1,1.73,1.73,0,0,0,.22-.5.57.57,0,0,0-.34-.74.69.69,0,0,0-.81.3,1.56,1.56,0,0,1-.16.2c0-.07-.11-.12-.15-.19a.69.69,0,0,0-.8-.32.58.58,0,0,0-.35.73,1.83,1.83,0,0,0,.25.55A3.52,3.52,0,0,0,32.84,4.13Zm-6.09.06c.31-.26.56-.47.8-.69a1.71,1.71,0,0,0,.54-.9.6.6,0,0,0-.36-.72.68.68,0,0,0-.79.31,1.46,1.46,0,0,1-.16.19,1,1,0,0,1-.16-.19.69.69,0,0,0-.79-.31.55.55,0,0,0-.36.68,1.41,1.41,0,0,0,.26.6C26,3.52,26.39,3.83,26.75,4.19Zm-23.68,0c.24-.19.46-.36.67-.55a1.92,1.92,0,0,0,.62-.94A.64.64,0,0,0,4.19,2a.57.57,0,0,0-.66-.06,1.37,1.37,0,0,0-.33.31l-.13.14-.15-.14a.08.08,0,0,1,0,0,.71.71,0,0,0-.77-.32.55.55,0,0,0-.38.65A1.35,1.35,0,0,0,1.91,3,3.61,3.61,0,0,0,3.07,4.15ZM25.23,6.06A3.75,3.75,0,0,0,25,5.53,3.25,3.25,0,0,0,24,4.44a.19.19,0,0,0-.18,0c-.29.24-.58.48-.84.74a1.3,1.3,0,0,0-.39.83.56.56,0,0,0,.67.63.66.66,0,0,0,.53-.38c0-.06.08-.09.13-.14l.13.14s0,.08.07.11a.7.7,0,0,0,.73.26A.65.65,0,0,0,25.23,6.06ZM10.32,2.54a.62.62,0,0,0-.43-.68.71.71,0,0,0-.74.33,1.06,1.06,0,0,1-.17.2c-.05-.07-.11-.12-.15-.19A.68.68,0,0,0,8,1.88a.57.57,0,0,0-.36.71,1.55,1.55,0,0,0,.19.48,3.38,3.38,0,0,0,1,1,.21.21,0,0,0,.17,0c.27-.23.55-.45.8-.7A1.35,1.35,0,0,0,10.32,2.54Zm5.93,0c0-.38-.15-.61-.41-.68a.71.71,0,0,0-.77.33,1.1,1.1,0,0,1-.14.18,1,1,0,0,1-.17-.19A.69.69,0,0,0,14,1.88a.58.58,0,0,0-.37.71,1.72,1.72,0,0,0,.14.4,3.47,3.47,0,0,0,1.1,1.09.15.15,0,0,0,.16,0c.29-.25.59-.49.85-.76A1.27,1.27,0,0,0,16.25,2.55Zm4.59,1.66a12.33,12.33,0,0,0,1-.93,2,2,0,0,0,.36-.72.54.54,0,0,0-.27-.64.66.66,0,0,0-.71.08,1.35,1.35,0,0,0-.2.27s-.09.11-.13.11-.09-.08-.13-.12l0-.06a.67.67,0,0,0-.79-.32.56.56,0,0,0-.36.7,1.5,1.5,0,0,0,.26.59C20.11,3.52,20.46,3.83,20.84,4.21ZM13.37,6.05a3.05,3.05,0,0,0-.2-.53,3.19,3.19,0,0,0-1.08-1.08.19.19,0,0,0-.18,0,6.21,6.21,0,0,0-.81.73,2,2,0,0,0-.39.69.59.59,0,0,0,.33.75.67.67,0,0,0,.81-.31A1.37,1.37,0,0,1,12,6.13a1.46,1.46,0,0,1,.16.19.7.7,0,0,0,.77.32A.65.65,0,0,0,13.37,6.05Zm5.92,0a4.11,4.11,0,0,0-.15-.46A3.17,3.17,0,0,0,18,4.43s-.12,0-.16,0a6.29,6.29,0,0,0-.85.78,1.85,1.85,0,0,0-.37.74.55.55,0,0,0,.39.67.69.69,0,0,0,.76-.31c.05-.08.11-.13.16-.2a1.81,1.81,0,0,1,.18.21.7.7,0,0,0,.75.3A.62.62,0,0,0,19.29,6.05Zm9.18,0a.56.56,0,0,0,.4.6.69.69,0,0,0,.76-.31,1.12,1.12,0,0,1,.17-.2,1.56,1.56,0,0,1,.16.2.69.69,0,0,0,.79.3A.57.57,0,0,0,31.11,6,1.3,1.3,0,0,0,31,5.52a3.38,3.38,0,0,0-1.08-1.08.19.19,0,0,0-.18,0,9.49,9.49,0,0,0-.82.73A1.26,1.26,0,0,0,28.47,6ZM34.53,6c0,.5.27.74.65.7a.65.65,0,0,0,.53-.37c0-.06.1-.1.15-.15l.14.16s0,0,0,.06a.71.71,0,0,0,.76.29A.55.55,0,0,0,37.17,6,1.39,1.39,0,0,0,37,5.53a3.28,3.28,0,0,0-1.1-1.09.19.19,0,0,0-.18,0c-.27.23-.56.46-.8.71A1.34,1.34,0,0,0,34.53,6ZM31.38,6a3.1,3.1,0,0,1,1.3-1.62,3.18,3.18,0,0,1-1.42-1.77A3,3,0,0,1,30,4.18,3.23,3.23,0,0,1,31.38,6ZM26.94,4.34a3.07,3.07,0,0,1,1.28,1.55,3.37,3.37,0,0,1,1.4-1.7,10.06,10.06,0,0,1-.75-.69,7.63,7.63,0,0,1-.55-.8C28.18,3.21,28,3.42,26.94,4.34ZM4.63,2.63a3.33,3.33,0,0,1-1.41,1.7A3.23,3.23,0,0,1,4.51,5.88a3.36,3.36,0,0,1,1.42-1.7A3.25,3.25,0,0,1,4.63,2.63ZM33,4.33a3.3,3.3,0,0,1,1.3,1.55,3.34,3.34,0,0,1,1.39-1.69,8.18,8.18,0,0,1-.74-.68,6.37,6.37,0,0,1-.56-.8A3.3,3.3,0,0,1,33,4.33Zm-23.83,0A8.2,8.2,0,0,1,9.91,5c.21.25.38.54.56.8a3.3,3.3,0,0,1,1.39-1.62,3.24,3.24,0,0,1-1.3-1.55A3.31,3.31,0,0,1,9.16,4.32Zm5.91,0a3.16,3.16,0,0,1,1.3,1.56,3.32,3.32,0,0,1,1.41-1.71,3.16,3.16,0,0,1-1.29-1.56A3.29,3.29,0,0,1,15.07,4.33Zm5.95,0a8.29,8.29,0,0,1,.75.69,6,6,0,0,1,.55.8,3.33,3.33,0,0,1,1.39-1.63,3.22,3.22,0,0,1-1.3-1.56A3.22,3.22,0,0,1,21,4.32ZM25.25,2.9a8,8,0,0,1-.53.69c-.21.21-.45.4-.69.6A3.62,3.62,0,0,1,25.39,5.7a3.58,3.58,0,0,1,1.22-1.36,9.72,9.72,0,0,1-.76-.66C25.63,3.44,25.44,3.15,25.25,2.9ZM18.1,4.19a3.65,3.65,0,0,1,1.34,1.45A8.2,8.2,0,0,1,20,4.92a6.62,6.62,0,0,1,.68-.6,3.52,3.52,0,0,1-1.34-1.45c-.19.24-.35.49-.55.7A8.57,8.57,0,0,1,18.1,4.19ZM7.6,5.7A3.56,3.56,0,0,1,8.84,4.33,3.66,3.66,0,0,1,7.47,2.81,3.59,3.59,0,0,1,6.23,4.19,3.58,3.58,0,0,1,7.6,5.7Zm5.8-2.89a3.57,3.57,0,0,1-1.24,1.37,3.76,3.76,0,0,1,1.37,1.51,3.53,3.53,0,0,1,1.24-1.36A3.6,3.6,0,0,1,13.4,2.81Z"/><path d="M19.38,22.85a.89.89,0,0,1-1.52.12,1,1,0,0,1-.87.36.81.81,0,0,1-.7-.67.72.72,0,0,1-.7.55.78.78,0,0,1-.75-.51.85.85,0,0,1-.67.51.76.76,0,0,1-.72-.36.9.9,0,0,1-1.53.12,1,1,0,0,1-.88.36.83.83,0,0,1-.68-.66.73.73,0,0,1-.72.54.79.79,0,0,1-.73-.51.85.85,0,0,1-.67.51.72.72,0,0,1-.72-.38.83.83,0,0,1-.72.5A.93.93,0,0,1,6,23a1,1,0,0,1-.88.36.83.83,0,0,1-.69-.65.72.72,0,0,1-.7.53A.78.78,0,0,1,3,22.72c-.09.11-.15.21-.23.29a.78.78,0,0,1-.89.11.75.75,0,0,1-.31-.85,2.32,2.32,0,0,1,.81-1.14l.43-.35c-.3-.27-.6-.52-.88-.8a1.62,1.62,0,0,1-.51-1.06.78.78,0,0,1,.48-.8.88.88,0,0,1,1,.16l.07.07.06,0a.89.89,0,0,1,1.57.3c.15-.32.35-.54.7-.53a.8.8,0,0,1,.75.51.84.84,0,0,1,.66-.5.71.71,0,0,1,.73.37.83.83,0,0,1,.71-.5.92.92,0,0,1,.81.37,1,1,0,0,1,.88-.37.84.84,0,0,1,.7.65.77.77,0,0,1,1.45-.05.77.77,0,0,1,1.38-.1.83.83,0,0,1,.71-.5.92.92,0,0,1,.81.37,1,1,0,0,1,.88-.36.82.82,0,0,1,.69.64.78.78,0,0,1,1.46,0,.8.8,0,0,1,.66-.49.68.68,0,0,1,.71.36.91.91,0,0,1,1.53-.14.88.88,0,0,1,1.57.32.72.72,0,0,1,.71-.55.8.8,0,0,1,.74.5.77.77,0,0,1,1.39-.12.83.83,0,0,1,.71-.5.91.91,0,0,1,.8.36c.72-.57,1.28-.47,1.57.27.45-.68,1.07-.69,1.46,0a.82.82,0,0,1,.77-.5.71.71,0,0,1,.68.57c.36-.8.95-.92,1.58-.34a.9.9,0,0,1,1.59.29.7.7,0,0,1,.7-.52.79.79,0,0,1,.73.49,3.42,3.42,0,0,1,.22-.28.78.78,0,0,1,.9-.12.75.75,0,0,1,.31.86,2.24,2.24,0,0,1-.8,1.12c-.14.13-.3.25-.44.36.29.26.58.51.85.77a1.94,1.94,0,0,1,.52.91.86.86,0,0,1-.37.94.91.91,0,0,1-1-.1.84.84,0,0,1-.13-.17,1,1,0,0,1-.9.38.82.82,0,0,1-.68-.66.73.73,0,0,1-.72.54.79.79,0,0,1-.73-.5.85.85,0,0,1-.76.5c-.37,0-.58-.21-.7-.6-.12.38-.31.65-.68.71a.94.94,0,0,1-.9-.34.9.9,0,0,1-1.59-.3.69.69,0,0,1-.7.53.79.79,0,0,1-.73-.49.79.79,0,0,1-1.39.14.91.91,0,0,1-1.53.12,1,1,0,0,1-.88.35.82.82,0,0,1-.68-.67.73.73,0,0,1-.73.55.81.81,0,0,1-.73-.5A.78.78,0,0,1,19.38,22.85ZM4.67,22.4a.61.61,0,0,0,.41.68.71.71,0,0,0,.76-.33A1,1,0,0,1,6,22.57a1.3,1.3,0,0,1,.15.18.67.67,0,0,0,.8.31.58.58,0,0,0,.35-.7A1.34,1.34,0,0,0,7.17,22a3.25,3.25,0,0,0-1.1-1.11.19.19,0,0,0-.18,0,10.27,10.27,0,0,0-.78.68A1.45,1.45,0,0,0,4.67,22.4Zm28.08-1.83a3.79,3.79,0,0,0,1.09-1,1.61,1.61,0,0,0,.22-.48.6.6,0,0,0-.35-.75.69.69,0,0,0-.8.31,1.46,1.46,0,0,1-.16.19.8.8,0,0,1-.15-.18.68.68,0,0,0-.8-.32.56.56,0,0,0-.35.72,1.86,1.86,0,0,0,.27.59A3.86,3.86,0,0,0,32.75,20.57Zm-6.11,0a3.86,3.86,0,0,0,1.11-1A1.88,1.88,0,0,0,28,19a.58.58,0,0,0-.35-.72.69.69,0,0,0-.8.32c0,.06-.1.12-.15.18a1.54,1.54,0,0,1-.17-.19.69.69,0,0,0-.78-.32.58.58,0,0,0-.37.7,1.58,1.58,0,0,0,.28.6C26,20,26.31,20.27,26.64,20.6ZM3,20.57c.12-.09.25-.17.36-.26a3,3,0,0,0,.45-.42,3.61,3.61,0,0,0,.48-.8.58.58,0,0,0-.33-.77.68.68,0,0,0-.8.31,1.37,1.37,0,0,1-.16.18,1.54,1.54,0,0,1-.17-.19.68.68,0,0,0-.76-.31.56.56,0,0,0-.39.65,1.43,1.43,0,0,0,.16.48A3.58,3.58,0,0,0,3,20.57Zm20,2.52a.67.67,0,0,0,.6-.33,1.46,1.46,0,0,1,.16-.19,1.54,1.54,0,0,1,.17.19.7.7,0,0,0,.78.31.58.58,0,0,0,.37-.66,1.48,1.48,0,0,0-.16-.46,3.28,3.28,0,0,0-1.08-1.08.19.19,0,0,0-.18,0,10,10,0,0,0-.84.75,1.3,1.3,0,0,0-.39.83A.56.56,0,0,0,23,23.09ZM10.23,19c0-.39-.16-.63-.43-.69a.69.69,0,0,0-.74.33,1.46,1.46,0,0,1-.16.19,1.39,1.39,0,0,1-.15-.19A.69.69,0,0,0,8,18.31a.59.59,0,0,0-.38.72,1.59,1.59,0,0,0,.16.41,3.48,3.48,0,0,0,1.08,1.08.18.18,0,0,0,.16,0c.29-.24.59-.48.86-.75A1.25,1.25,0,0,0,10.23,19Zm4.63,1.6a8.34,8.34,0,0,0,.76-.68,3.25,3.25,0,0,0,.51-.81.59.59,0,0,0-.21-.72.67.67,0,0,0-.75.05,1.54,1.54,0,0,0-.21.29s-.08.09-.12.09-.09,0-.12-.09,0-.09-.07-.13a.71.71,0,0,0-.72-.29.55.55,0,0,0-.42.57,1.57,1.57,0,0,0,.16.56A3.57,3.57,0,0,0,14.86,20.59Zm5.9,0a3.26,3.26,0,0,0,1.09-1,1.57,1.57,0,0,0,.23-.7.53.53,0,0,0-.59-.55.64.64,0,0,0-.59.4s-.09.13-.12.12a.29.29,0,0,1-.15-.12.6.6,0,0,1-.06-.11.69.69,0,0,0-.71-.28.54.54,0,0,0-.42.54,1.43,1.43,0,0,0,.16.58A3.36,3.36,0,0,0,20.76,20.57Zm7.62,1.93a.57.57,0,0,0,.64.59.66.66,0,0,0,.57-.41.2.2,0,0,1,.13-.11s.08.06.12.1,0,.07,0,.1a.69.69,0,0,0,.77.3A.57.57,0,0,0,31,22.4a1.3,1.3,0,0,0-.14-.42,3.43,3.43,0,0,0-1.1-1.11.19.19,0,0,0-.18,0,9.14,9.14,0,0,0-.81.71A1.34,1.34,0,0,0,28.38,22.5Zm-11.9,0a.65.65,0,0,0,.47.6.68.68,0,0,0,.76-.36c0-.06.1-.1.15-.15l.14.15a.2.2,0,0,1,0,.08.7.7,0,0,0,.77.27.57.57,0,0,0,.36-.64A1.36,1.36,0,0,0,19,22a3.28,3.28,0,0,0-1.08-1.08.18.18,0,0,0-.16,0,11.34,11.34,0,0,0-1,1A2.2,2.2,0,0,0,16.48,22.48Zm-5.88-.09c0,.4.16.63.42.69a.69.69,0,0,0,.74-.32,1,1,0,0,1,.17-.19,1.46,1.46,0,0,1,.16.19.68.68,0,0,0,.76.31.56.56,0,0,0,.39-.66,1.46,1.46,0,0,0-.15-.46A3.48,3.48,0,0,0,12,20.87a.23.23,0,0,0-.18,0,9.14,9.14,0,0,0-.81.71A1.29,1.29,0,0,0,10.6,22.39Zm26.53.11a3,3,0,0,0-.19-.53,3.28,3.28,0,0,0-1.09-1.1.23.23,0,0,0-.18,0,6.86,6.86,0,0,0-.59.48,1.93,1.93,0,0,0-.61.9.63.63,0,0,0,.32.79.7.7,0,0,0,.82-.3.77.77,0,0,1,.17-.19,1.75,1.75,0,0,1,.16.2.69.69,0,0,0,.74.31A.63.63,0,0,0,37.13,22.5Zm-6-3.5a3.09,3.09,0,0,1-1.3,1.62,3.23,3.23,0,0,1,1.42,1.76,3.11,3.11,0,0,1,1.3-1.61A3.26,3.26,0,0,1,31.17,19Zm-4.32,1.77a3.14,3.14,0,0,1,1.29,1.57,3.3,3.3,0,0,1,1.42-1.73,3.14,3.14,0,0,1-1.3-1.55A3.3,3.3,0,0,1,26.85,20.77ZM4.42,22.33a3.34,3.34,0,0,1,1.42-1.71,3.22,3.22,0,0,1-1.29-1.55,3.4,3.4,0,0,1-1.42,1.7A3.12,3.12,0,0,1,4.42,22.33Zm4.66-1.57a6.94,6.94,0,0,1,.74.68,7.19,7.19,0,0,1,.56.8,3.37,3.37,0,0,1,1.39-1.63,3.1,3.1,0,0,1-1.29-1.54A3.39,3.39,0,0,1,9.08,20.76Zm26.54-.14a3.19,3.19,0,0,1-1.3-1.55,3.34,3.34,0,0,1-1.41,1.7,3.24,3.24,0,0,1,1.29,1.54A3.33,3.33,0,0,1,35.62,20.62ZM15,20.76a7.05,7.05,0,0,1,.75.69,6.61,6.61,0,0,1,.55.79,3.33,3.33,0,0,1,1.39-1.63,3.15,3.15,0,0,1-1.3-1.55A3.31,3.31,0,0,1,15,20.76Zm8.62-.14a3.18,3.18,0,0,1-1.3-1.57,3.25,3.25,0,0,1-1.39,1.71,6.94,6.94,0,0,1,.74.68,6.71,6.71,0,0,1,.55.8A3.32,3.32,0,0,1,23.63,20.62Zm2.91.15a3.8,3.8,0,0,1-1.37-1.52,3.62,3.62,0,0,1-1.23,1.37,3.77,3.77,0,0,1,1.37,1.51A3.58,3.58,0,0,1,26.54,20.77Zm-7.17,1.36a3.47,3.47,0,0,1,1.24-1.36,3.73,3.73,0,0,1-1.37-1.52A3.63,3.63,0,0,1,18,20.62,3.61,3.61,0,0,1,19.37,22.13Zm-12-2.83c-.19.25-.36.5-.56.72s-.45.4-.69.61a3.56,3.56,0,0,1,1.33,1.45c.19-.24.36-.5.56-.71s.45-.4.69-.61A3.66,3.66,0,0,1,7.41,19.3Zm7.27,1.47a3.63,3.63,0,0,1-1.34-1.47c-.19.25-.36.5-.56.72s-.45.4-.69.61a3.64,3.64,0,0,1,1.35,1.5A3.62,3.62,0,0,1,14.68,20.77Z"/><path d="M14.83,11.32h.77a4.93,4.93,0,0,0-.23.46q-.27.65-.51,1.29a1.34,1.34,0,0,0,0,.36H14.2a1.27,1.27,0,0,0,0-.35c-.12-.36-.26-.71-.4-1.07a2.32,2.32,0,0,0-.42,1.41h-.68a1.27,1.27,0,0,0,0-.34c-.17-.48-.36-1-.55-1.44a2.69,2.69,0,0,0-.19-.32h.68a1.27,1.27,0,0,0,0,.35c.11.31.24.61.38,1,.15-.38.29-.7.4-1,0-.07,0-.17,0-.27h.8a2.38,2.38,0,0,0,0,.39c.1.29.22.58.33.87C14.76,12.29,15,11.5,14.83,11.32Z"/><path d="M3.15,11.32H4a1.7,1.7,0,0,0,.08.37c.15.31.32.61.49.91a2.27,2.27,0,0,0,.59-1.28h.81a5.17,5.17,0,0,0,0,2.11H5.28V12.11L4.5,13.44l-.74-1.33a5.3,5.3,0,0,0,0,1.32H3.17A5.17,5.17,0,0,0,3.15,11.32Z"/><path d="M32.81,12.56l.66.86h-.75c0-.34-.23-.54-.41-.75s-.35-.09-.57-.14c0,.34-.07.62.09.9h-.66a6.3,6.3,0,0,0,0-2.08c.6,0,1.21,0,1.82,0a.47.47,0,0,1,.42.46.54.54,0,0,1-.33.64A1.79,1.79,0,0,1,32.81,12.56Zm-1.05-.39h.93a.19.19,0,0,0,.2-.22c0-.14-.07-.22-.2-.22h-.93Z"/><path d="M28.09,13.5l-.36-.06H26a5.63,5.63,0,0,0,0-2.13h1.82l.27-.06v.51a2.25,2.25,0,0,0-.36-.06H26.58v.44h1v.5c-.29-.19-.62-.05-1-.11v.53A7,7,0,0,0,28.09,13Z"/><path d="M23.12,11.32h.73c-.21.25-.06.52-.13.79h1.2c0-.26.09-.53-.1-.79h.68c0,.11-.06.22-.07.33v1.48a1.59,1.59,0,0,0,.06.3h-.64c.15-.29,0-.6.08-.9H23.74c0,.3-.08.6.08.9h-.68A5.17,5.17,0,0,0,23.12,11.32Z"/><path d="M20.51,13.49a2.21,2.21,0,0,0-.33-.05H18.39a4.92,4.92,0,0,0,0-2.13h1.81a1.77,1.77,0,0,0,.3-.06v.51a2.76,2.76,0,0,0-.4-.06H19v.44h1v.44l-1-.05v.54A8.44,8.44,0,0,0,20.51,13Z"/><path d="M18,11.25v.51a7.18,7.18,0,0,0-1.47-.07v.47a2.65,2.65,0,0,0,1-.06v.46l-1,0V13H18v.48l-.36-.06H15.91a1.18,1.18,0,0,0,.07-.3c0-.5,0-1,0-1.52a1.28,1.28,0,0,0-.07-.3h1.77A1.88,1.88,0,0,0,18,11.25Z"/><path d="M11.7,11.54l-.22.44a1.12,1.12,0,0,0-1.13-.28c-.1,0-.16.15-.24.23a1,1,0,0,0,.26.16c.28.05.56.06.84.11a.58.58,0,0,1,.54.53.59.59,0,0,1-.46.66,2,2,0,0,1-1.35,0,2.13,2.13,0,0,0-.3-.09l.19-.46a1.25,1.25,0,0,0,1.21.25c.09,0,.16-.14.23-.21-.08-.06-.15-.16-.25-.18s-.5-.06-.75-.09a.6.6,0,0,1-.6-.5.63.63,0,0,1,.44-.71,1.63,1.63,0,0,1,1.21.05Z"/><path d="M29.89,11.32a1.32,1.32,0,0,0,.06.38c.25.49.51,1,.77,1.47a2.14,2.14,0,0,0,.19.26h-.78a.33.33,0,0,0-.31-.52,5,5,0,0,0-.55,0A.34.34,0,0,0,29,13c-.08.11-.19.26,0,.41h-.7c.09-.18.19-.34.28-.51.2-.41.4-.81.59-1.22a1.32,1.32,0,0,0,.06-.38Zm-.36.61-.32.67h.67Z"/><path d="M7.37,12.1l.31-.44c.08-.11.18-.22-.08-.34h.9a10.7,10.7,0,0,0-.84,1.16,1.27,1.27,0,0,0,0,.94H7.06c0-.4.17-.81-.15-1.18-.16-.19-.29-.41-.45-.61a2.62,2.62,0,0,0-.28-.3h.88C6.89,11.68,7.28,11.8,7.37,12.1Z"/><path d="M21.54,11.68l-.81,0v-.49a6.85,6.85,0,0,0,2.12,0v.5l-.77-.05a5.27,5.27,0,0,0,.05,1.75h-.65a1.88,1.88,0,0,0,.05-.33C21.54,12.64,21.54,12.18,21.54,11.68Z"/><path d="M35.07,13.43h-.62c.06-.58,0-1.15,0-1.75l-.81.05v-.47c.11,0,.22.05.34.05h1.5a1.57,1.57,0,0,0,.28-.06v.55c-.23-.19-.49-.08-.73-.1,0,0-.08.08-.08.12v1.4A.53.53,0,0,0,35.07,13.43Z"/></g><g class="cls-3"><path d="M34,5.92A.78.78,0,0,1,32.5,6a.82.82,0,0,1-.76.48.7.7,0,0,1-.7-.59.86.86,0,0,1-.68.71,1,1,0,0,1-.9-.36,1,1,0,0,1-.88.36.83.83,0,0,1-.7-.68.69.69,0,0,1-.71.56.79.79,0,0,1-.73-.5c-.38.63-1,.68-1.39.13a.87.87,0,0,1-.71.5,1,1,0,0,1-.81-.37,1,1,0,0,1-.89.36A.82.82,0,0,1,22,5.88a.71.71,0,0,1-.71.55.78.78,0,0,1-.74-.51.81.81,0,0,1-.66.51.69.69,0,0,1-.72-.37.89.89,0,0,1-.73.5,1,1,0,0,1-.79-.37,1,1,0,0,1-.89.36A.8.8,0,0,1,16,5.91a.78.78,0,0,1-1.47,0,.81.81,0,0,1-.64.49.73.73,0,0,1-.74-.37.83.83,0,0,1-.71.5.93.93,0,0,1-.79-.36c-.7.56-1.29.46-1.59-.29a.71.71,0,0,1-.69.52.78.78,0,0,1-.75-.5.87.87,0,0,1-.68.5.72.72,0,0,1-.71-.36.9.9,0,0,1-1.53.13,1,1,0,0,1-.88.35.83.83,0,0,1-.69-.65.71.71,0,0,1-.7.53A.75.75,0,0,1,2.75,6a2.56,2.56,0,0,1-.39.36.69.69,0,0,1-.82,0,.72.72,0,0,1-.23-.8A2.18,2.18,0,0,1,2.1,4.37c.14-.13.3-.24.47-.38l-.2-.15a3.41,3.41,0,0,1-1-1.1,1.75,1.75,0,0,1-.17-.58.76.76,0,0,1,.48-.82.88.88,0,0,1,1,.18,1.35,1.35,0,0,1,.12.12,1,1,0,0,1,.87-.36.83.83,0,0,1,.7.65A.72.72,0,0,1,5,1.39a.81.81,0,0,1,.74.49c.47-.61,1-.65,1.4-.11a.85.85,0,0,1,.71-.5.92.92,0,0,1,.8.37,1,1,0,0,1,.89-.36.83.83,0,0,1,.69.66.72.72,0,0,1,.69-.55.79.79,0,0,1,.75.52.83.83,0,0,1,.67-.51.68.68,0,0,1,.72.37.86.86,0,0,1,.72-.5,1,1,0,0,1,.8.36.89.89,0,0,1,1.58.3.71.71,0,0,1,.71-.54.84.84,0,0,1,.74.5c.38-.62,1-.67,1.38-.12a.87.87,0,0,1,.71-.5,1,1,0,0,1,.81.37,1,1,0,0,1,.88-.36.8.8,0,0,1,.68.63c.46-.69,1.05-.7,1.47,0a.82.82,0,0,1,.66-.49.71.71,0,0,1,.72.37.84.84,0,0,1,.72-.5.89.89,0,0,1,.79.37c.68-.58,1.33-.46,1.58.3a.73.73,0,0,1,.71-.55.79.79,0,0,1,.74.52.83.83,0,0,1,.76-.52.71.71,0,0,1,.7.6.85.85,0,0,1,.68-.7.92.92,0,0,1,.9.34c.66-.57,1.16-.48,1.58.25a.77.77,0,0,1,1.44,0,3.22,3.22,0,0,1,.24-.28.76.76,0,0,1,.88-.1.75.75,0,0,1,.31.84,2.29,2.29,0,0,1-.79,1.12l-.47.39.5.41A2.43,2.43,0,0,1,37,5.43a.87.87,0,0,1-.37,1,.9.9,0,0,1-1.08-.2l-.08-.06a.94.94,0,0,1-.88.35A.83.83,0,0,1,34,5.92ZM4.41,5.63a.62.62,0,0,0,.41.67A.7.7,0,0,0,5.57,6a1.81,1.81,0,0,1,.18-.21l.16.2a.69.69,0,0,0,.78.3.58.58,0,0,0,.36-.71,1.56,1.56,0,0,0-.15-.41A3.48,3.48,0,0,0,5.82,4.09a.23.23,0,0,0-.18,0c-.27.23-.55.45-.8.7A1.35,1.35,0,0,0,4.41,5.63ZM32.5,3.79a3.82,3.82,0,0,0,1.08-1,1.73,1.73,0,0,0,.22-.5.57.57,0,0,0-.34-.74.69.69,0,0,0-.81.3,1.56,1.56,0,0,1-.16.2c-.05-.07-.11-.12-.15-.19a.69.69,0,0,0-.8-.32.58.58,0,0,0-.35.73,1.83,1.83,0,0,0,.25.55A3.52,3.52,0,0,0,32.5,3.79Zm-6.09.06c.31-.26.56-.47.8-.69a1.71,1.71,0,0,0,.54-.9.6.6,0,0,0-.36-.72.68.68,0,0,0-.79.31,1.46,1.46,0,0,1-.16.19,1,1,0,0,1-.16-.19.69.69,0,0,0-.79-.31.55.55,0,0,0-.36.68,1.41,1.41,0,0,0,.26.6C25.7,3.18,26.05,3.49,26.41,3.85Zm-23.68,0c.24-.19.46-.36.67-.55A1.92,1.92,0,0,0,4,2.32a.64.64,0,0,0-.17-.68.57.57,0,0,0-.66-.06,1.37,1.37,0,0,0-.33.31L2.73,2l-.15-.14a.08.08,0,0,1,0,0,.71.71,0,0,0-.77-.32.55.55,0,0,0-.38.65,1.41,1.41,0,0,0,.16.49A3.72,3.72,0,0,0,2.73,3.81ZM24.89,5.72a3.35,3.35,0,0,0-.19-.53A3.25,3.25,0,0,0,23.61,4.1a.19.19,0,0,0-.18,0c-.29.24-.58.48-.84.74a1.3,1.3,0,0,0-.39.83.56.56,0,0,0,.67.63.63.63,0,0,0,.52-.38c0-.06.09-.09.14-.14l.13.14a1.05,1.05,0,0,1,.07.11.7.7,0,0,0,.73.26A.66.66,0,0,0,24.89,5.72ZM10,2.2a.62.62,0,0,0-.43-.68.71.71,0,0,0-.74.33,1.06,1.06,0,0,1-.17.2c-.05-.07-.11-.12-.15-.19a.68.68,0,0,0-.79-.32.57.57,0,0,0-.36.71,1.55,1.55,0,0,0,.19.48,3.38,3.38,0,0,0,1,1,.21.21,0,0,0,.17,0c.27-.23.55-.45.8-.7A1.35,1.35,0,0,0,10,2.2Zm5.93,0c0-.38-.15-.61-.41-.68a.71.71,0,0,0-.77.33,1.1,1.1,0,0,1-.14.18,1,1,0,0,1-.17-.19.69.69,0,0,0-.78-.31.58.58,0,0,0-.37.71,1.72,1.72,0,0,0,.14.4,3.47,3.47,0,0,0,1.1,1.09.15.15,0,0,0,.16,0c.29-.25.59-.49.85-.76A1.27,1.27,0,0,0,15.91,2.21ZM20.5,3.87a12.33,12.33,0,0,0,1-.93,2,2,0,0,0,.36-.72.54.54,0,0,0-.27-.64.66.66,0,0,0-.71.08,1.64,1.64,0,0,0-.2.26c0,.05-.09.12-.13.12s-.09-.08-.13-.12l0-.06a.67.67,0,0,0-.79-.32.56.56,0,0,0-.36.7,1.5,1.5,0,0,0,.26.59C19.77,3.18,20.12,3.49,20.5,3.87ZM13,5.71a3.05,3.05,0,0,0-.2-.53A3.19,3.19,0,0,0,11.75,4.1a.19.19,0,0,0-.18,0,6.21,6.21,0,0,0-.81.73,2,2,0,0,0-.39.69.59.59,0,0,0,.33.75A.67.67,0,0,0,11.51,6a1.37,1.37,0,0,1,.16-.18,1.46,1.46,0,0,1,.16.19.7.7,0,0,0,.77.32A.65.65,0,0,0,13,5.71Zm5.92,0a4.11,4.11,0,0,0-.15-.46,3.17,3.17,0,0,0-1.14-1.16s-.12,0-.16,0a6.29,6.29,0,0,0-.85.78,1.85,1.85,0,0,0-.37.74.55.55,0,0,0,.39.67A.69.69,0,0,0,17.43,6c.05-.08.11-.13.16-.2a1.81,1.81,0,0,1,.18.21.7.7,0,0,0,.75.3A.62.62,0,0,0,19,5.71Zm9.18,0a.56.56,0,0,0,.4.6A.69.69,0,0,0,29.29,6a1.54,1.54,0,0,1,.17-.19,1.08,1.08,0,0,1,.16.2.69.69,0,0,0,.79.3.57.57,0,0,0,.36-.68,1.3,1.3,0,0,0-.15-.43A3.38,3.38,0,0,0,29.54,4.1a.19.19,0,0,0-.18,0,9.49,9.49,0,0,0-.82.73A1.26,1.26,0,0,0,28.13,5.7Zm6.06-.09c0,.5.27.74.65.7a.65.65,0,0,0,.53-.37c0-.06.1-.1.15-.15a1.07,1.07,0,0,1,.14.16s0,0,0,.06a.71.71,0,0,0,.76.29.55.55,0,0,0,.38-.63,1.65,1.65,0,0,0-.14-.48,3.28,3.28,0,0,0-1.1-1.09.19.19,0,0,0-.18,0c-.27.23-.56.46-.8.71A1.34,1.34,0,0,0,34.19,5.61ZM31,5.61A3.1,3.1,0,0,1,32.34,4a3.18,3.18,0,0,1-1.42-1.77,3.07,3.07,0,0,1-1.31,1.62A3.28,3.28,0,0,1,31,5.61ZM26.6,4a3.07,3.07,0,0,1,1.28,1.55,3.37,3.37,0,0,1,1.4-1.7,10.06,10.06,0,0,1-.75-.69,7.63,7.63,0,0,1-.55-.8C27.84,2.87,27.67,3.08,26.6,4ZM4.29,2.29A3.3,3.3,0,0,1,2.87,4a3.2,3.2,0,0,1,1.3,1.55,3.36,3.36,0,0,1,1.42-1.7A3.25,3.25,0,0,1,4.29,2.29ZM32.65,4A3.3,3.3,0,0,1,34,5.54a3.34,3.34,0,0,1,1.39-1.69,8.18,8.18,0,0,1-.74-.68,6.37,6.37,0,0,1-.56-.8A3.3,3.3,0,0,1,32.65,4ZM8.82,4a8.2,8.2,0,0,1,.75.68c.21.25.38.54.56.8a3.33,3.33,0,0,1,1.38-1.62,3.28,3.28,0,0,1-1.29-1.55A3.31,3.31,0,0,1,8.82,4Zm5.91,0A3.16,3.16,0,0,1,16,5.55a3.32,3.32,0,0,1,1.41-1.71,3.16,3.16,0,0,1-1.29-1.56A3.29,3.29,0,0,1,14.73,4Zm5.95,0a8.29,8.29,0,0,1,.75.69,6,6,0,0,1,.55.8,3.33,3.33,0,0,1,1.39-1.63,3.22,3.22,0,0,1-1.3-1.56A3.22,3.22,0,0,1,20.68,4Zm4.23-1.42a6.5,6.5,0,0,1-.54.69c-.2.21-.44.39-.68.6a3.62,3.62,0,0,1,1.36,1.51A3.5,3.5,0,0,1,26.27,4a9.72,9.72,0,0,1-.76-.66C25.29,3.1,25.1,2.81,24.91,2.56ZM17.76,3.85A3.65,3.65,0,0,1,19.1,5.3a8.2,8.2,0,0,1,.57-.72,6.62,6.62,0,0,1,.68-.6A3.52,3.52,0,0,1,19,2.53c-.19.24-.35.49-.55.7A8.57,8.57,0,0,1,17.76,3.85ZM7.26,5.36A3.56,3.56,0,0,1,8.5,4,3.66,3.66,0,0,1,7.13,2.47,3.59,3.59,0,0,1,5.89,3.85,3.58,3.58,0,0,1,7.26,5.36Zm5.8-2.89a3.57,3.57,0,0,1-1.24,1.37,3.76,3.76,0,0,1,1.37,1.51A3.53,3.53,0,0,1,14.43,4,3.6,3.6,0,0,1,13.06,2.47Z"/><path d="M19,22.51a.89.89,0,0,1-1.52.12,1,1,0,0,1-.88.36.81.81,0,0,1-.69-.67.72.72,0,0,1-.7.55.78.78,0,0,1-.75-.51.85.85,0,0,1-.67.51.76.76,0,0,1-.72-.36.9.9,0,0,1-1.53.12,1,1,0,0,1-.88.36.83.83,0,0,1-.68-.66.73.73,0,0,1-.72.54.79.79,0,0,1-.73-.51.85.85,0,0,1-.67.51.72.72,0,0,1-.72-.38.83.83,0,0,1-.72.5.93.93,0,0,1-.8-.36,1,1,0,0,1-.88.36.83.83,0,0,1-.69-.65.72.72,0,0,1-.7.53.78.78,0,0,1-.74-.49c-.09.11-.15.21-.23.29a.79.79,0,0,1-.89.11.75.75,0,0,1-.31-.85A2.32,2.32,0,0,1,2,20.79l.43-.35c-.3-.27-.6-.52-.88-.8a1.62,1.62,0,0,1-.51-1.06.78.78,0,0,1,.48-.8.88.88,0,0,1,1,.16l.07.07.06,0a.89.89,0,0,1,1.57.3c.15-.32.35-.54.7-.53a.8.8,0,0,1,.75.51.84.84,0,0,1,.66-.5.71.71,0,0,1,.73.37.83.83,0,0,1,.71-.5.92.92,0,0,1,.81.37,1,1,0,0,1,.88-.37.84.84,0,0,1,.7.65.77.77,0,0,1,1.45-.05.77.77,0,0,1,1.38-.1.83.83,0,0,1,.71-.5.92.92,0,0,1,.81.37,1,1,0,0,1,.88-.36.82.82,0,0,1,.69.64.78.78,0,0,1,1.46,0,.8.8,0,0,1,.66-.49.68.68,0,0,1,.71.36.91.91,0,0,1,1.53-.14.88.88,0,0,1,1.57.32.72.72,0,0,1,.71-.55.81.81,0,0,1,.74.49.78.78,0,0,1,1.39-.11.83.83,0,0,1,.71-.5.91.91,0,0,1,.8.36c.72-.57,1.28-.47,1.57.27.45-.68,1.07-.69,1.46,0a.82.82,0,0,1,.77-.5.71.71,0,0,1,.68.57c.36-.8.95-.92,1.58-.34a.9.9,0,0,1,1.59.29.7.7,0,0,1,.7-.52.79.79,0,0,1,.73.49,3.42,3.42,0,0,1,.22-.28.78.78,0,0,1,.9-.12.75.75,0,0,1,.31.86,2.24,2.24,0,0,1-.8,1.12c-.14.13-.3.25-.44.36.29.26.58.51.85.77a1.94,1.94,0,0,1,.52.91.86.86,0,0,1-.37.94.91.91,0,0,1-1-.1.84.84,0,0,1-.13-.17,1,1,0,0,1-.9.38.82.82,0,0,1-.68-.66.73.73,0,0,1-.72.54.79.79,0,0,1-.73-.5.85.85,0,0,1-.76.5.7.7,0,0,1-.7-.6c-.12.38-.31.65-.68.71a.94.94,0,0,1-.9-.34.9.9,0,0,1-1.59-.3.69.69,0,0,1-.7.53.79.79,0,0,1-.73-.49.79.79,0,0,1-1.39.14.91.91,0,0,1-1.53.12,1,1,0,0,1-.88.35.82.82,0,0,1-.68-.67.73.73,0,0,1-.73.55.81.81,0,0,1-.73-.5A.78.78,0,0,1,19,22.51ZM4.33,22.06a.61.61,0,0,0,.41.68.71.71,0,0,0,.76-.33,1,1,0,0,1,.17-.18.79.79,0,0,1,.14.18.7.7,0,0,0,.81.31A.58.58,0,0,0,7,22a1.34,1.34,0,0,0-.14-.38,3.34,3.34,0,0,0-1.1-1.11.19.19,0,0,0-.18,0,10.27,10.27,0,0,0-.78.68A1.39,1.39,0,0,0,4.33,22.06Zm28.08-1.83a3.79,3.79,0,0,0,1.09-1,1.61,1.61,0,0,0,.22-.48.6.6,0,0,0-.35-.75.69.69,0,0,0-.8.31,1,1,0,0,1-.17.19,1.1,1.1,0,0,1-.14-.18.68.68,0,0,0-.8-.32.56.56,0,0,0-.35.72,1.86,1.86,0,0,0,.27.59A3.86,3.86,0,0,0,32.41,20.23Zm-6.11,0a3.86,3.86,0,0,0,1.11-1,1.88,1.88,0,0,0,.25-.56.58.58,0,0,0-.35-.72.68.68,0,0,0-.8.32c0,.06-.1.12-.15.18a1,1,0,0,1-.17-.19.69.69,0,0,0-.78-.32.58.58,0,0,0-.37.7,1.58,1.58,0,0,0,.28.6C25.62,19.62,26,19.93,26.3,20.26Zm-23.66,0c.12-.09.25-.17.36-.26a3,3,0,0,0,.45-.42,3.61,3.61,0,0,0,.48-.8A.58.58,0,0,0,3.6,18a.68.68,0,0,0-.8.31,1.37,1.37,0,0,1-.16.18,1.54,1.54,0,0,1-.17-.19A.68.68,0,0,0,1.71,18a.56.56,0,0,0-.39.65,1.43,1.43,0,0,0,.16.48A3.58,3.58,0,0,0,2.64,20.23Zm20,2.52a.67.67,0,0,0,.6-.33,1.46,1.46,0,0,1,.16-.19,1.54,1.54,0,0,1,.17.19.7.7,0,0,0,.78.31.58.58,0,0,0,.37-.66,1.48,1.48,0,0,0-.16-.46,3.28,3.28,0,0,0-1.08-1.08.19.19,0,0,0-.18,0,10,10,0,0,0-.84.75,1.3,1.3,0,0,0-.39.83A.56.56,0,0,0,22.68,22.75ZM9.89,18.65c0-.39-.16-.63-.43-.69a.69.69,0,0,0-.74.33,1.46,1.46,0,0,1-.16.19,1.39,1.39,0,0,1-.15-.19A.69.69,0,0,0,7.63,18a.59.59,0,0,0-.38.72,1.59,1.59,0,0,0,.16.41,3.48,3.48,0,0,0,1.08,1.08.18.18,0,0,0,.16,0c.29-.24.59-.48.86-.75A1.25,1.25,0,0,0,9.89,18.65Zm4.63,1.6a8.34,8.34,0,0,0,.76-.68,3.25,3.25,0,0,0,.51-.81.59.59,0,0,0-.21-.72.67.67,0,0,0-.76.05,2.11,2.11,0,0,0-.2.29s-.08.09-.12.09-.09,0-.12-.09a.83.83,0,0,1-.07-.13.71.71,0,0,0-.72-.29.55.55,0,0,0-.42.57,1.57,1.57,0,0,0,.16.56A3.57,3.57,0,0,0,14.52,20.25Zm5.9,0a3.36,3.36,0,0,0,1.09-1,1.57,1.57,0,0,0,.23-.7.53.53,0,0,0-.59-.55.64.64,0,0,0-.59.4s-.09.13-.12.12a.29.29,0,0,1-.15-.12.6.6,0,0,1-.06-.11.69.69,0,0,0-.71-.28.54.54,0,0,0-.42.54,1.53,1.53,0,0,0,.16.58A3.36,3.36,0,0,0,20.42,20.23ZM28,22.16a.57.57,0,0,0,.64.59.66.66,0,0,0,.57-.41.2.2,0,0,1,.13-.11s.08.06.12.1,0,.07,0,.1a.69.69,0,0,0,.77.3.57.57,0,0,0,.38-.67,1.3,1.3,0,0,0-.14-.42,3.43,3.43,0,0,0-1.1-1.11.19.19,0,0,0-.18,0,9.14,9.14,0,0,0-.81.71A1.34,1.34,0,0,0,28,22.16Zm-11.9,0a.65.65,0,0,0,.47.6.68.68,0,0,0,.76-.36c0-.06.1-.1.15-.15l.14.15a.2.2,0,0,1,0,.08.7.7,0,0,0,.77.27.57.57,0,0,0,.36-.64,1.36,1.36,0,0,0-.16-.48,3.28,3.28,0,0,0-1.08-1.08.22.22,0,0,0-.16,0,13.11,13.11,0,0,0-1,1A2.2,2.2,0,0,0,16.14,22.14Zm-5.88-.09c0,.4.16.63.42.69a.69.69,0,0,0,.74-.32,1,1,0,0,1,.17-.19,1.46,1.46,0,0,1,.16.19.68.68,0,0,0,.76.31.56.56,0,0,0,.39-.66,1.46,1.46,0,0,0-.15-.46,3.48,3.48,0,0,0-1.08-1.08.23.23,0,0,0-.18,0,9.14,9.14,0,0,0-.81.71A1.29,1.29,0,0,0,10.26,22.05Zm26.53.11a3,3,0,0,0-.19-.53,3.28,3.28,0,0,0-1.09-1.1.23.23,0,0,0-.18,0,5.6,5.6,0,0,0-.59.48,1.93,1.93,0,0,0-.61.9.62.62,0,0,0,.32.78.69.69,0,0,0,.82-.29.77.77,0,0,1,.17-.19,1.75,1.75,0,0,1,.16.2.69.69,0,0,0,.74.31A.63.63,0,0,0,36.79,22.16Zm-6-3.5a3.09,3.09,0,0,1-1.3,1.62A3.23,3.23,0,0,1,31,22a3.11,3.11,0,0,1,1.3-1.61A3.22,3.22,0,0,1,30.83,18.66Zm-4.32,1.77A3.14,3.14,0,0,1,27.8,22a3.3,3.3,0,0,1,1.42-1.73,3.14,3.14,0,0,1-1.3-1.55A3.3,3.3,0,0,1,26.51,20.43ZM4.08,22A3.34,3.34,0,0,1,5.5,20.28a3.3,3.3,0,0,1-1.3-1.55,3.33,3.33,0,0,1-1.41,1.7A3.12,3.12,0,0,1,4.08,22Zm4.66-1.57a8.11,8.11,0,0,1,.74.67,8.38,8.38,0,0,1,.56.81,3.33,3.33,0,0,1,1.39-1.63,3.1,3.1,0,0,1-1.29-1.54A3.39,3.39,0,0,1,8.74,20.42Zm26.54-.14A3.19,3.19,0,0,1,34,18.73a3.34,3.34,0,0,1-1.41,1.7A3.24,3.24,0,0,1,33.86,22,3.33,3.33,0,0,1,35.28,20.28Zm-20.61.14a7.05,7.05,0,0,1,.75.69,6.61,6.61,0,0,1,.55.79,3.33,3.33,0,0,1,1.39-1.63,3.15,3.15,0,0,1-1.3-1.55A3.31,3.31,0,0,1,14.67,20.42Zm8.62-.14A3.18,3.18,0,0,1,22,18.71a3.25,3.25,0,0,1-1.39,1.71,6.94,6.94,0,0,1,.74.68,6.71,6.71,0,0,1,.55.8A3.32,3.32,0,0,1,23.29,20.28Zm2.91.15a3.8,3.8,0,0,1-1.37-1.52,3.62,3.62,0,0,1-1.23,1.37A3.77,3.77,0,0,1,25,21.79,3.58,3.58,0,0,1,26.2,20.43ZM19,21.79a3.47,3.47,0,0,1,1.24-1.36,3.73,3.73,0,0,1-1.37-1.52,3.63,3.63,0,0,1-1.23,1.37A3.61,3.61,0,0,1,19,21.79ZM7.07,19c-.19.25-.36.5-.56.72s-.45.4-.69.61a3.56,3.56,0,0,1,1.33,1.45c.19-.24.36-.5.56-.71s.45-.4.69-.61A3.66,3.66,0,0,1,7.07,19Zm7.27,1.47A3.63,3.63,0,0,1,13,19c-.19.25-.36.5-.56.72s-.45.4-.69.61a3.64,3.64,0,0,1,1.35,1.5A3.62,3.62,0,0,1,14.34,20.43Z"/><path d="M14.49,11h.77a4.93,4.93,0,0,0-.23.46q-.27.64-.51,1.29a1.34,1.34,0,0,0,0,.36h-.64a1.27,1.27,0,0,0,0-.35c-.12-.36-.26-.71-.4-1.07A2.32,2.32,0,0,0,13,13.08h-.68a1.27,1.27,0,0,0,0-.34c-.17-.48-.36-1-.55-1.44a2.69,2.69,0,0,0-.19-.32h.68a1.27,1.27,0,0,0,0,.35c.11.31.24.61.38,1,.15-.38.29-.7.4-1,0-.07,0-.17,0-.27h.8a2.38,2.38,0,0,0,0,.39c.1.29.22.58.33.87C14.42,12,14.64,11.16,14.49,11Z"/><path d="M2.81,11h.8a1.7,1.7,0,0,0,.08.37c.15.31.32.61.49.91A2.27,2.27,0,0,0,4.77,11h.81a5.17,5.17,0,0,0,0,2.11H4.94V11.77L4.16,13.1l-.74-1.33a5.3,5.3,0,0,0,0,1.32H2.83A5.17,5.17,0,0,0,2.81,11Z"/><path d="M32.47,12.22l.66.86h-.75c0-.34-.23-.54-.41-.75s-.35-.09-.57-.14c0,.34-.07.62.09.9h-.66a6.3,6.3,0,0,0,0-2.08c.6,0,1.21,0,1.82,0a.48.48,0,0,1,.42.46.54.54,0,0,1-.33.64A1.79,1.79,0,0,1,32.47,12.22Zm-1.06-.39h.94a.19.19,0,0,0,.2-.22c0-.14-.07-.22-.2-.22h-.94Z"/><path d="M27.75,13.16l-.36-.06H25.63a5.63,5.63,0,0,0,0-2.13h1.82l.27-.06v.51a2.25,2.25,0,0,0-.36-.06H26.24v.44h1v.5c-.29-.19-.62,0-1-.11v.53a7,7,0,0,0,1.51-.05Z"/><path d="M22.78,11h.72c-.21.25-.05.52-.12.79h1.2c0-.26.09-.53-.1-.79h.68c0,.11-.06.22-.07.33v1.48a1.59,1.59,0,0,0,.06.3h-.64c.15-.29,0-.6.08-.9H23.4c0,.3-.08.6.08.9H22.8A5.17,5.17,0,0,0,22.78,11Z"/><path d="M20.17,13.15a2.21,2.21,0,0,0-.33-.05H18.05A4.92,4.92,0,0,0,18,11h1.81a1.77,1.77,0,0,0,.3-.06v.51a2.76,2.76,0,0,0-.4-.06H18.66v.44h1v.44l-1-.05v.54a8.48,8.48,0,0,0,1.51-.06Z"/><path d="M17.63,10.91v.5a8,8,0,0,0-1.47-.06v.47a2.65,2.65,0,0,0,1-.06v.46l-1,0v.5h1.51v.48a2.25,2.25,0,0,0-.36-.06H15.57a1.18,1.18,0,0,0,.07-.3c0-.5,0-1,0-1.52a1.28,1.28,0,0,0-.07-.3h1.77A1.88,1.88,0,0,0,17.63,10.91Z"/><path d="M11.36,11.2l-.22.44A1.12,1.12,0,0,0,10,11.36c-.1,0-.16.15-.24.23a1,1,0,0,0,.26.16c.28.05.56.06.84.11a.58.58,0,0,1,.54.53.59.59,0,0,1-.46.66A2,2,0,0,1,9.6,13a2.13,2.13,0,0,0-.3-.09l.19-.46a1.25,1.25,0,0,0,1.21.25c.09,0,.16-.14.23-.21-.08-.06-.15-.16-.25-.18s-.5-.06-.75-.09a.6.6,0,0,1-.6-.5A.63.63,0,0,1,9.77,11a1.63,1.63,0,0,1,1.21.05Z"/><path d="M29.55,11a1.32,1.32,0,0,0,.06.38c.25.49.51,1,.77,1.47a2.14,2.14,0,0,0,.19.26h-.78a.33.33,0,0,0-.31-.52,5,5,0,0,0-.55,0,.34.34,0,0,0-.26.1c-.08.11-.19.26,0,.41H28c.09-.18.19-.34.28-.51.2-.41.4-.81.59-1.22A1.32,1.32,0,0,0,28.9,11Zm-.36.61-.32.67h.67Z"/><path d="M7,11.76l.31-.44c.08-.11.18-.22-.08-.34h.9a10.7,10.7,0,0,0-.84,1.16,1.27,1.27,0,0,0,0,.94H6.72c0-.4.17-.81-.15-1.18-.16-.19-.29-.41-.45-.61a2.62,2.62,0,0,0-.28-.3h.88C6.55,11.34,6.94,11.46,7,11.76Z"/><path d="M21.2,11.34l-.81,0v-.49a6.85,6.85,0,0,0,2.12,0v.5l-.77-.05a5.27,5.27,0,0,0,.05,1.75h-.65a1.88,1.88,0,0,0,.05-.33C21.2,12.3,21.2,11.84,21.2,11.34Z"/><path d="M34.73,13.09h-.62c.06-.58,0-1.15,0-1.75l-.81.05v-.47c.11,0,.22.05.34.05h1.5a1.57,1.57,0,0,0,.28-.06v.55c-.23-.19-.49-.08-.73-.1,0,0-.08.08-.08.12v1.4A.53.53,0,0,0,34.73,13.09Z"/></g><path class="cls-4" d="M34.15,6.12a.78.78,0,0,1-1.46,0,.81.81,0,0,1-.75.48.71.71,0,0,1-.7-.59.85.85,0,0,1-.68.7.93.93,0,0,1-.9-.35,1,1,0,0,1-.88.36.83.83,0,0,1-.7-.68.69.69,0,0,1-.71.56.79.79,0,0,1-.73-.5c-.38.62-1,.68-1.39.13a.87.87,0,0,1-.71.5,1,1,0,0,1-.81-.37,1,1,0,0,1-.89.36.83.83,0,0,1-.68-.67.72.72,0,0,1-.71.55.78.78,0,0,1-.74-.51.81.81,0,0,1-.66.51.71.71,0,0,1-.73-.37.86.86,0,0,1-.72.5,1,1,0,0,1-.8-.37,1,1,0,0,1-.88.36.8.8,0,0,1-.68-.64.78.78,0,0,1-1.47,0,.81.81,0,0,1-.64.49.73.73,0,0,1-.74-.37.83.83,0,0,1-.71.5,1,1,0,0,1-.8-.36c-.69.56-1.29.46-1.58-.29a.73.73,0,0,1-.7.52.77.77,0,0,1-.74-.5.87.87,0,0,1-.68.5.72.72,0,0,1-.71-.36.9.9,0,0,1-1.53.13,1,1,0,0,1-.88.35.83.83,0,0,1-.69-.66.71.71,0,0,1-.71.54.78.78,0,0,1-.72-.46,1.87,1.87,0,0,1-.39.36.69.69,0,0,1-.81,0,.73.73,0,0,1-.24-.8,2.33,2.33,0,0,1,.8-1.13l.46-.37L2.57,4a3.41,3.41,0,0,1-1-1.1,1.75,1.75,0,0,1-.17-.58.76.76,0,0,1,.48-.82.88.88,0,0,1,1,.18.65.65,0,0,1,.11.12,1,1,0,0,1,.88-.36.79.79,0,0,1,.69.65.74.74,0,0,1,.71-.54.81.81,0,0,1,.74.49c.47-.61,1-.65,1.4-.12A.84.84,0,0,1,8,1.47a.92.92,0,0,1,.8.37,1,1,0,0,1,.89-.36.83.83,0,0,1,.69.66.71.71,0,0,1,.69-.55.8.8,0,0,1,.75.51.82.82,0,0,1,.67-.5.69.69,0,0,1,.72.37.84.84,0,0,1,.72-.5.93.93,0,0,1,.79.36.89.89,0,0,1,1.59.3.71.71,0,0,1,.71-.54.8.8,0,0,1,.73.5c.39-.62,1-.67,1.39-.12a.85.85,0,0,1,.71-.5,1,1,0,0,1,.81.37,1,1,0,0,1,.88-.36.8.8,0,0,1,.68.63c.46-.69,1-.7,1.47,0a.82.82,0,0,1,.66-.49.71.71,0,0,1,.72.37.84.84,0,0,1,.72-.5.91.91,0,0,1,.79.36c.68-.57,1.33-.46,1.58.31.14-.33.34-.56.7-.55a.8.8,0,0,1,.75.51.82.82,0,0,1,.76-.51.71.71,0,0,1,.7.6.86.86,0,0,1,.68-.71,1,1,0,0,1,.9.35c.66-.57,1.16-.49,1.58.25a.77.77,0,0,1,1.44,0,2.15,2.15,0,0,1,.23-.28.76.76,0,0,1,.89-.1.74.74,0,0,1,.31.83,2.27,2.27,0,0,1-.79,1.13L35.88,4a6.4,6.4,0,0,1,.5.41,2.43,2.43,0,0,1,.86,1.18.87.87,0,0,1-.37,1,.9.9,0,0,1-1.08-.2l-.08-.07a.92.92,0,0,1-.88.36A.83.83,0,0,1,34.15,6.12ZM4.61,5.83A.62.62,0,0,0,5,6.5a.73.73,0,0,0,.76-.3A1.18,1.18,0,0,1,6,6a1.75,1.75,0,0,1,.16.2.68.68,0,0,0,.78.3.59.59,0,0,0,.36-.71,1.56,1.56,0,0,0-.15-.41A3.48,3.48,0,0,0,6,4.29a.23.23,0,0,0-.18,0A10.54,10.54,0,0,0,5,5,1.32,1.32,0,0,0,4.61,5.83ZM32.7,4a4,4,0,0,0,1.08-1,1.86,1.86,0,0,0,.22-.5.59.59,0,0,0-.35-.75.7.7,0,0,0-.8.31,1.56,1.56,0,0,1-.16.2l-.15-.19a.7.7,0,0,0-.8-.32.58.58,0,0,0-.35.73,2,2,0,0,0,.25.55A3.65,3.65,0,0,0,32.7,4Zm-6.09.06c.3-.26.56-.47.8-.7A1.71,1.71,0,0,0,28,2.46a.59.59,0,0,0-.37-.72.68.68,0,0,0-.78.3,1.08,1.08,0,0,1-.16.2,1,1,0,0,1-.16-.19.69.69,0,0,0-.79-.31.53.53,0,0,0-.36.67,1.29,1.29,0,0,0,.26.61C25.9,3.38,26.25,3.69,26.61,4.05ZM2.93,4c.23-.19.46-.35.67-.54a1.92,1.92,0,0,0,.62-.94.64.64,0,0,0-.17-.68.58.58,0,0,0-.66-.06,1.37,1.37,0,0,0-.33.31l-.13.14-.16-.15,0,0A.69.69,0,0,0,2,1.73a.57.57,0,0,0-.39.65,1.68,1.68,0,0,0,.17.49A3.58,3.58,0,0,0,2.93,4ZM25.09,5.92a3,3,0,0,0-.19-.53,3.31,3.31,0,0,0-1.1-1.1.23.23,0,0,0-.18,0c-.28.24-.57.48-.83.74a1.29,1.29,0,0,0-.39.82.57.57,0,0,0,.67.64.65.65,0,0,0,.52-.38A.47.47,0,0,1,23.73,6l.13.14a1.05,1.05,0,0,1,.07.11.7.7,0,0,0,.73.26A.69.69,0,0,0,25.09,5.92ZM10.17,2.4a.6.6,0,0,0-.42-.68A.69.69,0,0,0,9,2.05a1,1,0,0,1-.17.19,1.3,1.3,0,0,1-.15-.18.69.69,0,0,0-.8-.32.58.58,0,0,0-.35.71,1.78,1.78,0,0,0,.19.48,3.49,3.49,0,0,0,1,1,.21.21,0,0,0,.17,0c.27-.23.55-.45.8-.7A1.36,1.36,0,0,0,10.17,2.4Zm5.93,0a.6.6,0,0,0-.41-.68.71.71,0,0,0-.76.32.85.85,0,0,1-.14.19,1,1,0,0,1-.17-.19.67.67,0,0,0-.78-.31.57.57,0,0,0-.37.71,1.3,1.3,0,0,0,.14.39,3.4,3.4,0,0,0,1.1,1.1.22.22,0,0,0,.16,0c.29-.25.58-.49.85-.76A1.2,1.2,0,0,0,16.1,2.41Zm4.6,1.65a12.31,12.31,0,0,0,1-.92A1.92,1.92,0,0,0,22,2.41a.53.53,0,0,0-.27-.63.68.68,0,0,0-.72.08,2.48,2.48,0,0,0-.19.26s-.09.12-.13.11-.09-.07-.13-.11,0,0,0-.06a.67.67,0,0,0-.79-.32.56.56,0,0,0-.36.7,1.57,1.57,0,0,0,.26.59C20,3.38,20.32,3.69,20.7,4.06ZM13.23,5.91a4.15,4.15,0,0,0-.2-.53A3.1,3.1,0,0,0,12,4.3a.19.19,0,0,0-.18,0A8,8,0,0,0,11,5a2.07,2.07,0,0,0-.38.7.57.57,0,0,0,.32.75.7.7,0,0,0,.82-.31A.9.9,0,0,1,11.87,6a1.46,1.46,0,0,1,.16.19.71.71,0,0,0,.76.32A.64.64,0,0,0,13.23,5.91Zm5.92,0A3.53,3.53,0,0,0,19,5.45a3.25,3.25,0,0,0-1.14-1.16.16.16,0,0,0-.16,0,9.16,9.16,0,0,0-.86.78,2.08,2.08,0,0,0-.36.75.56.56,0,0,0,.38.67.71.71,0,0,0,.77-.31,1.08,1.08,0,0,1,.16-.2A1.81,1.81,0,0,1,18,6.2a.72.72,0,0,0,.75.3A.62.62,0,0,0,19.15,5.91Zm9.18,0a.58.58,0,0,0,.39.61.71.71,0,0,0,.77-.32A1,1,0,0,1,29.66,6a1.46,1.46,0,0,1,.16.19.7.7,0,0,0,.79.31A.58.58,0,0,0,31,5.81a1.76,1.76,0,0,0-.15-.44,3.51,3.51,0,0,0-1.09-1.08.21.21,0,0,0-.17,0,9.52,9.52,0,0,0-.83.72A1.33,1.33,0,0,0,28.33,5.89Zm6.06-.09c0,.51.26.75.65.71a.65.65,0,0,0,.53-.37c0-.06.1-.1.15-.15a1.07,1.07,0,0,1,.14.16s0,0,0,0a.69.69,0,0,0,.76.3A.56.56,0,0,0,37,5.87a1.41,1.41,0,0,0-.15-.48,3.28,3.28,0,0,0-1.09-1.1.23.23,0,0,0-.18,0c-.27.23-.56.45-.81.71A1.3,1.3,0,0,0,34.39,5.8Zm-3.15,0a3.05,3.05,0,0,1,1.3-1.62,3.28,3.28,0,0,1-1.43-1.77A3.09,3.09,0,0,1,29.81,4,3.24,3.24,0,0,1,31.24,5.81ZM26.8,4.2a3.12,3.12,0,0,1,1.28,1.55,3.28,3.28,0,0,1,1.4-1.7,10.25,10.25,0,0,1-.76-.69,9.37,9.37,0,0,1-.54-.8C28,3.07,27.87,3.28,26.8,4.2ZM4.49,2.49a3.34,3.34,0,0,1-1.42,1.7,3.2,3.2,0,0,1,1.3,1.55A3.34,3.34,0,0,1,5.78,4,3.29,3.29,0,0,1,4.49,2.49Zm28.36,1.7a3.22,3.22,0,0,1,1.29,1.55,3.41,3.41,0,0,1,1.4-1.69c-.26-.24-.53-.44-.75-.68s-.37-.54-.55-.8A3.35,3.35,0,0,1,32.85,4.19ZM9,4.18a6.94,6.94,0,0,1,.74.68,6.07,6.07,0,0,1,.56.8A3.31,3.31,0,0,1,11.71,4a3.22,3.22,0,0,1-1.29-1.55A3.36,3.36,0,0,1,9,4.18Zm5.91,0a3.12,3.12,0,0,1,1.3,1.56A3.27,3.27,0,0,1,17.64,4a3.2,3.2,0,0,1-1.29-1.56A3.34,3.34,0,0,1,14.93,4.19Zm5.95,0a7.05,7.05,0,0,1,.75.69,7.1,7.1,0,0,1,.55.8A3.31,3.31,0,0,1,23.57,4a3.08,3.08,0,0,1-1.3-1.56A3.24,3.24,0,0,1,20.88,4.18Zm4.23-1.42a6.42,6.42,0,0,1-.54.68,8.15,8.15,0,0,1-.68.61,3.69,3.69,0,0,1,1.36,1.51A3.5,3.5,0,0,1,26.47,4.2a10,10,0,0,1-.76-.66C25.48,3.29,25.3,3,25.11,2.76ZM18,4.05A3.65,3.65,0,0,1,19.3,5.5a8.2,8.2,0,0,1,.57-.72,7.73,7.73,0,0,1,.67-.6,3.56,3.56,0,0,1-1.33-1.45,7.8,7.8,0,0,1-.56.7A7,7,0,0,1,18,4.05ZM7.46,5.56A3.62,3.62,0,0,1,8.69,4.19,3.64,3.64,0,0,1,7.33,2.67,3.56,3.56,0,0,1,6.09,4,3.66,3.66,0,0,1,7.46,5.56Zm5.8-2.89A3.64,3.64,0,0,1,12,4a3.61,3.61,0,0,1,1.36,1.51,3.56,3.56,0,0,1,1.25-1.36A3.6,3.6,0,0,1,13.26,2.67Z"/><path class="cls-4" d="M19.24,22.71a.89.89,0,0,1-1.52.12,1,1,0,0,1-.88.36.81.81,0,0,1-.69-.67.73.73,0,0,1-.71.55.79.79,0,0,1-.74-.51.85.85,0,0,1-.67.51.76.76,0,0,1-.72-.36.9.9,0,0,1-1.53.12.94.94,0,0,1-.88.35.79.79,0,0,1-.68-.65.73.73,0,0,1-.72.54.79.79,0,0,1-.73-.51.82.82,0,0,1-.67.5.7.7,0,0,1-.72-.37.84.84,0,0,1-.72.5,1,1,0,0,1-.8-.36,1,1,0,0,1-.88.36.83.83,0,0,1-.69-.66c-.15.34-.35.55-.71.54a.79.79,0,0,1-.73-.49,2.47,2.47,0,0,1-.24.29.78.78,0,0,1-.88.11.74.74,0,0,1-.31-.85A2.32,2.32,0,0,1,2.23,21l.43-.35c-.3-.27-.61-.52-.88-.8a1.6,1.6,0,0,1-.51-1.06.78.78,0,0,1,.48-.8.88.88,0,0,1,.94.15.6.6,0,0,0,.08.08l.06.05a.89.89,0,0,1,1.57.29A.74.74,0,0,1,5.1,18a.8.8,0,0,1,.75.51.82.82,0,0,1,.66-.5.72.72,0,0,1,.73.37.83.83,0,0,1,.71-.5.92.92,0,0,1,.81.37,1,1,0,0,1,.88-.37.83.83,0,0,1,.69.65.78.78,0,0,1,1.46,0,.77.77,0,0,1,1.38-.1.83.83,0,0,1,.71-.5.92.92,0,0,1,.81.37,1,1,0,0,1,.88-.37.83.83,0,0,1,.69.65.78.78,0,0,1,1.46,0,.78.78,0,0,1,.66-.5.7.7,0,0,1,.71.37.91.91,0,0,1,1.53-.14.88.88,0,0,1,1.57.32A.71.71,0,0,1,22.9,18a.79.79,0,0,1,.73.49A.79.79,0,0,1,25,18.4a.84.84,0,0,1,.71-.49.88.88,0,0,1,.79.36c.72-.57,1.29-.47,1.58.27.45-.68,1.07-.7,1.46,0a.8.8,0,0,1,.77-.5.7.7,0,0,1,.68.57c.36-.8.95-.92,1.58-.34a.9.9,0,0,1,1.59.29.7.7,0,0,1,.7-.52.8.8,0,0,1,.73.49,3.42,3.42,0,0,1,.22-.28.78.78,0,0,1,.9-.12.76.76,0,0,1,.31.86,2.31,2.31,0,0,1-.8,1.12c-.14.13-.3.24-.44.36.29.26.58.51.85.77a1.85,1.85,0,0,1,.52.91.88.88,0,0,1-.37.94.93.93,0,0,1-1-.1c-.05-.05-.08-.1-.14-.17a1,1,0,0,1-.89.38.83.83,0,0,1-.69-.66.71.71,0,0,1-.71.54.79.79,0,0,1-.73-.5.85.85,0,0,1-.76.5.7.7,0,0,1-.7-.6c-.12.38-.31.65-.68.71a.94.94,0,0,1-.9-.34.9.9,0,0,1-1.59-.3.69.69,0,0,1-.7.53.79.79,0,0,1-.73-.5.79.79,0,0,1-1.39.15.91.91,0,0,1-1.53.11.94.94,0,0,1-.88.35.83.83,0,0,1-.69-.66.72.72,0,0,1-.72.55.8.8,0,0,1-.73-.5A.78.78,0,0,1,19.24,22.71ZM4.53,22.25c0,.39.15.62.4.69a.72.72,0,0,0,.77-.33,1.45,1.45,0,0,1,.17-.19,1.15,1.15,0,0,1,.14.19.69.69,0,0,0,.8.31.58.58,0,0,0,.36-.71A1.18,1.18,0,0,0,7,21.84a3.34,3.34,0,0,0-1.1-1.11.19.19,0,0,0-.18,0,10.27,10.27,0,0,0-.78.68A1.37,1.37,0,0,0,4.53,22.25Zm28.08-1.82a3.93,3.93,0,0,0,1.09-1,1.74,1.74,0,0,0,.22-.48.6.6,0,0,0-.35-.75.69.69,0,0,0-.8.31,1,1,0,0,1-.17.19,1.39,1.39,0,0,1-.15-.19.67.67,0,0,0-.79-.31.57.57,0,0,0-.36.72,2.13,2.13,0,0,0,.28.59A3.71,3.71,0,0,0,32.61,20.43Zm-6.11,0a3.75,3.75,0,0,0,1.11-1,1.83,1.83,0,0,0,.25-.55.57.57,0,0,0-.36-.72.67.67,0,0,0-.79.31,1.39,1.39,0,0,1-.15.19,1,1,0,0,1-.17-.19.69.69,0,0,0-.78-.32.57.57,0,0,0-.37.7,1.44,1.44,0,0,0,.28.6C25.82,19.82,26.16,20.13,26.5,20.46Zm-23.66,0,.36-.26a2.51,2.51,0,0,0,.44-.42,3.51,3.51,0,0,0,.49-.8.58.58,0,0,0-.34-.77.68.68,0,0,0-.8.31.84.84,0,0,1-.15.18,1.45,1.45,0,0,1-.17-.19.69.69,0,0,0-.77-.31.56.56,0,0,0-.38.65,1.31,1.31,0,0,0,.16.47A3.51,3.51,0,0,0,2.84,20.43Zm20,2.52a.68.68,0,0,0,.6-.33,1.46,1.46,0,0,1,.16-.19,1,1,0,0,1,.16.19.71.71,0,0,0,.79.31.58.58,0,0,0,.37-.66,1.48,1.48,0,0,0-.16-.46,3.28,3.28,0,0,0-1.08-1.08.19.19,0,0,0-.18,0c-.29.25-.58.49-.85.76a1.34,1.34,0,0,0-.38.83A.56.56,0,0,0,22.88,23Zm-12.79-4.1c0-.39-.16-.63-.43-.69a.69.69,0,0,0-.74.33,1,1,0,0,1-.17.19,1.33,1.33,0,0,1-.14-.19.7.7,0,0,0-.78-.32.58.58,0,0,0-.38.72,1.29,1.29,0,0,0,.16.41,3.48,3.48,0,0,0,1.08,1.08.18.18,0,0,0,.16,0,10.12,10.12,0,0,0,.85-.75A1.22,1.22,0,0,0,10.09,18.85Zm4.62,1.6a7.32,7.32,0,0,0,.77-.68A3.25,3.25,0,0,0,16,19a.58.58,0,0,0-.22-.72.65.65,0,0,0-.75.05,3.4,3.4,0,0,0-.21.28c0,.05-.07.1-.12.1s-.08-.05-.12-.09a.75.75,0,0,1-.06-.13.69.69,0,0,0-.72-.29.55.55,0,0,0-.42.57,1.39,1.39,0,0,0,.16.56A3.64,3.64,0,0,0,14.71,20.45Zm5.91,0a3.36,3.36,0,0,0,1.09-1,1.57,1.57,0,0,0,.23-.7.53.53,0,0,0-.59-.55.65.65,0,0,0-.6.4c0,.05-.08.13-.11.12a.29.29,0,0,1-.15-.12.6.6,0,0,1-.06-.11.7.7,0,0,0-.71-.28.53.53,0,0,0-.42.54,1.37,1.37,0,0,0,.16.58A3.36,3.36,0,0,0,20.62,20.43Zm7.62,1.93a.57.57,0,0,0,.64.59.66.66,0,0,0,.57-.41.2.2,0,0,1,.13-.11s.08.06.11.1,0,.06,0,.09a.68.68,0,0,0,.77.31.57.57,0,0,0,.38-.67,1.6,1.6,0,0,0-.14-.42,3.37,3.37,0,0,0-1.11-1.11s-.13,0-.17,0a9.14,9.14,0,0,0-.81.71A1.32,1.32,0,0,0,28.24,22.36Zm-11.91,0a.65.65,0,0,0,1.24.25c0-.06.1-.1.14-.16l.15.16a.2.2,0,0,1,0,.08.7.7,0,0,0,.76.27.57.57,0,0,0,.37-.65,1.54,1.54,0,0,0-.16-.47,3.19,3.19,0,0,0-1.08-1.08.15.15,0,0,0-.16,0c-.34.32-.7.62-1,1A2.69,2.69,0,0,0,16.33,22.33Zm-5.87-.08c0,.4.16.63.41.69a.7.7,0,0,0,.75-.32,1.46,1.46,0,0,1,.16-.19,1,1,0,0,1,.17.19.69.69,0,0,0,.76.31.56.56,0,0,0,.39-.66,1.26,1.26,0,0,0-.16-.46,3.28,3.28,0,0,0-1.08-1.08.17.17,0,0,0-.18,0,10.54,10.54,0,0,0-.8.7A1.34,1.34,0,0,0,10.46,22.25ZM37,22.36a3,3,0,0,0-.19-.53,3.37,3.37,0,0,0-1.09-1.1.19.19,0,0,0-.18,0,4.58,4.58,0,0,0-.59.48,1.93,1.93,0,0,0-.61.9.61.61,0,0,0,.32.78.69.69,0,0,0,.82-.3,1.37,1.37,0,0,1,.16-.18,1.54,1.54,0,0,1,.17.19.69.69,0,0,0,.74.32A.65.65,0,0,0,37,22.36Zm-6-3.5a3.13,3.13,0,0,1-1.3,1.62,3.23,3.23,0,0,1,1.42,1.76,3.11,3.11,0,0,1,1.3-1.61A3.22,3.22,0,0,1,31,18.86Zm-4.32,1.77A3.14,3.14,0,0,1,28,22.2a3.32,3.32,0,0,1,1.41-1.73,3.17,3.17,0,0,1-1.29-1.55A3.35,3.35,0,0,1,26.71,20.63ZM4.28,22.18A3.38,3.38,0,0,1,5.7,20.47a3.15,3.15,0,0,1-1.3-1.55A3.32,3.32,0,0,1,3,20.63,3.14,3.14,0,0,1,4.28,22.18Zm4.66-1.57c.25.24.52.44.74.68a8.38,8.38,0,0,1,.56.81,3.33,3.33,0,0,1,1.39-1.63,3.17,3.17,0,0,1-1.3-1.54A3.31,3.31,0,0,1,8.94,20.61Zm26.54-.14a3.16,3.16,0,0,1-1.3-1.54,3.38,3.38,0,0,1-1.41,1.7,3.15,3.15,0,0,1,1.29,1.54A3.34,3.34,0,0,1,35.48,20.47Zm-20.61.14a10.06,10.06,0,0,1,.75.69,9.53,9.53,0,0,1,.55.8,3.28,3.28,0,0,1,1.39-1.63,3.2,3.2,0,0,1-1.3-1.55A3.3,3.3,0,0,1,14.87,20.61Zm8.62-.14a3.12,3.12,0,0,1-1.3-1.56,3.3,3.3,0,0,1-1.39,1.71,6.94,6.94,0,0,1,.74.68,6,6,0,0,1,.55.8A3.39,3.39,0,0,1,23.49,20.47Zm2.91.16A3.8,3.8,0,0,1,25,19.11a3.56,3.56,0,0,1-1.24,1.37A3.7,3.7,0,0,1,25.16,22,3.54,3.54,0,0,1,26.4,20.63ZM19.23,22a3.47,3.47,0,0,1,1.24-1.36,3.73,3.73,0,0,1-1.37-1.52,3.63,3.63,0,0,1-1.23,1.37A3.68,3.68,0,0,1,19.23,22Zm-12-2.83c-.19.25-.36.5-.56.72s-.45.4-.69.61a3.56,3.56,0,0,1,1.33,1.45c.19-.24.36-.5.56-.71a8.12,8.12,0,0,1,.69-.61A3.66,3.66,0,0,1,7.27,19.16Zm7.27,1.47a3.8,3.8,0,0,1-1.35-1.47,8,8,0,0,1-.55.72c-.21.21-.45.4-.69.61A3.64,3.64,0,0,1,13.3,22,3.62,3.62,0,0,1,14.54,20.63Z"/><path class="cls-4" d="M14.69,11.18h.77a4.78,4.78,0,0,0-.23.45c-.18.43-.35.87-.51,1.3a1,1,0,0,0,0,.35h-.64a1.23,1.23,0,0,0,0-.34c-.12-.36-.26-.71-.4-1.07a2.32,2.32,0,0,0-.42,1.41h-.68a1.23,1.23,0,0,0,0-.34c-.17-.49-.36-1-.55-1.44,0-.11-.13-.21-.19-.32h.68a1.27,1.27,0,0,0,0,.35c.11.31.24.61.38,1,.15-.38.28-.7.4-1,0-.07,0-.17,0-.27H14a1.63,1.63,0,0,0,0,.39c.1.29.22.57.33.86C14.62,12.15,14.83,11.35,14.69,11.18Z"/><path class="cls-4" d="M3,11.18h.8a1.7,1.7,0,0,0,.08.37c.15.31.32.6.49.91A2.25,2.25,0,0,0,5,11.18h.82a5.12,5.12,0,0,0,0,2.1H5.13V12L4.35,13.3,3.62,12a4.86,4.86,0,0,0,0,1.32H3A5.17,5.17,0,0,0,3,11.18Z"/><path class="cls-4" d="M32.67,12.42l.66.86h-.75c0-.34-.24-.54-.42-.75s-.34-.1-.56-.14c0,.33-.07.62.09.9H31a6.58,6.58,0,0,0,0-2.08c.6,0,1.21,0,1.81,0a.48.48,0,0,1,.43.46.54.54,0,0,1-.33.64ZM31.61,12h.94c.13,0,.2-.09.2-.23a.2.2,0,0,0-.2-.22h-.94Z"/><path class="cls-4" d="M28,13.36a2.25,2.25,0,0,0-.36-.06H25.83a5.63,5.63,0,0,0,0-2.13h1.82a.94.94,0,0,0,.27-.06v.51l-.36-.06H26.44V12h.95v.5c-.3-.2-.62-.05-.95-.11v.53A7.68,7.68,0,0,0,28,12.86Z"/><path class="cls-4" d="M23,11.18h.72c-.21.25-.05.52-.12.79h1.2c0-.26.09-.53-.1-.79h.68a1.94,1.94,0,0,0-.07.33V13a1.77,1.77,0,0,0,.06.3h-.64c.15-.3,0-.6.08-.91h-1.2c0,.31-.07.61.09.91H23A5.17,5.17,0,0,0,23,11.18Z"/><path class="cls-4" d="M20.37,13.35a2.33,2.33,0,0,0-.34,0H18.25a5.08,5.08,0,0,0,0-2.13H20a1.71,1.71,0,0,0,.3-.05v.51a2.7,2.7,0,0,0-.41-.07c-.34,0-.69,0-1.05,0V12h1v.44l-1,0v.54a8.56,8.56,0,0,0,1.52-.06Z"/><path class="cls-4" d="M17.83,11.11v.5a8,8,0,0,0-1.47-.06V12a2.66,2.66,0,0,0,1-.06v.46l-1,0v.5h1.51v.47c-.12,0-.24,0-.36,0H15.77a1.18,1.18,0,0,0,.07-.3c0-.51,0-1,0-1.52a1.18,1.18,0,0,0-.07-.3h1.77A1.77,1.77,0,0,0,17.83,11.11Z"/><path class="cls-4" d="M11.56,11.4l-.22.44a1.1,1.1,0,0,0-1.13-.28c-.1,0-.17.15-.25.23.09.05.17.14.27.16.28.05.56.05.84.1a.61.61,0,0,1,.08,1.2A2,2,0,0,1,9.8,13.2l-.3-.08.19-.46a1.25,1.25,0,0,0,1.21.25c.09,0,.16-.14.23-.21-.08-.06-.16-.16-.25-.18-.24,0-.5-.06-.75-.09a.61.61,0,0,1-.6-.5.63.63,0,0,1,.44-.71,1.63,1.63,0,0,1,1.21,0Z"/><path class="cls-4" d="M29.75,11.18a1.27,1.27,0,0,0,.05.37c.25.5.52,1,.78,1.48.05.09.12.17.18.26H30a.34.34,0,0,0-.31-.52h-.55a.43.43,0,0,0-.26.1c-.08.12-.19.26,0,.42h-.7c.09-.18.19-.34.27-.52.21-.4.41-.8.6-1.21a1.32,1.32,0,0,0,.06-.38Zm-.36.6-.32.68h.66Z"/><path class="cls-4" d="M7.23,12l.31-.45c.07-.1.18-.21-.08-.33h.9a9.4,9.4,0,0,0-.84,1.15,1.25,1.25,0,0,0,0,.95H6.92c0-.4.17-.81-.15-1.18-.16-.2-.29-.41-.45-.61a2.62,2.62,0,0,0-.28-.3h.88C6.75,11.54,7.13,11.66,7.23,12Z"/><path class="cls-4" d="M21.39,11.54l-.8,0v-.49a6.85,6.85,0,0,0,2.12,0v.49l-.77,0a5.28,5.28,0,0,0,0,1.75h-.65a2.15,2.15,0,0,0,.05-.34C21.4,12.5,21.39,12,21.39,11.54Z"/><path class="cls-4" d="M34.92,13.29h-.61c.06-.58,0-1.15,0-1.75l-.81.05v-.48a1.86,1.86,0,0,0,.34.05h1.5a1.51,1.51,0,0,0,.28-.05v.55c-.23-.19-.49-.09-.73-.1,0,0-.08.08-.08.12,0,.46,0,.93,0,1.4A.8.8,0,0,0,34.92,13.29Z"/></g></g></svg>