<svg xmlns="http://www.w3.org/2000/svg" viewBox="0 0 38.55 24.66"><defs><style>.cls-1{isolation:isolate;}.cls-2{opacity:0.15;}.cls-2,.cls-3{mix-blend-mode:multiply;}.cls-4{fill:#fff;}</style></defs><title>convert-CUSTOMIZE-SVG-03</title><g class="cls-1"><g id="Layer_1" data-name="Layer 1"><g class="cls-2"><path d="M1.11,16.28c0-.89,0-1.77,0-2.66a.39.39,0,0,1,.15-.24,10.31,10.31,0,0,1,5-2.22,10.41,10.41,0,0,1,8,1.88,10.17,10.17,0,0,1,4.05,10.38c0,.14-.08.2-.23.2H16.16A8.18,8.18,0,0,0,15.24,17a7.74,7.74,0,0,0-3.6-3.21C7.55,12.08,4.06,13,1.11,16.28Z"/><path d="M15.35,13a9.27,9.27,0,0,0-2.87-1.67c0-.42.06-.85.1-1.27.07-.83.15-1.66.21-2.49,0-.2.07-.31.29-.35.38-.08.75-.19,1.12-.28a.33.33,0,0,1,.24,0l3.84,2.23a.38.38,0,0,1,.14.19c.12.4.22.8.32,1.2a.24.24,0,0,1-.07.22Z"/><path d="M2.94,8.23A3.59,3.59,0,0,1,3.47,8a.78.78,0,0,1,1,1,1.6,1.6,0,0,1-.34.69,10.73,10.73,0,0,1-1,.88.23.23,0,0,1-.24,0,3.59,3.59,0,0,1-1.13-1,1.83,1.83,0,0,1-.24-.58.79.79,0,0,1,.37-.86.91.91,0,0,1,1,.09Z"/><path d="M12.88,1.59a3.35,3.35,0,0,1,.62-.25.77.77,0,0,1,.91,1,1.64,1.64,0,0,1-.35.71,8.39,8.39,0,0,1-1,.88.3.3,0,0,1-.26,0,3.46,3.46,0,0,1-1.08-1,2.07,2.07,0,0,1-.26-.54.8.8,0,0,1,.32-.93.89.89,0,0,1,1,.06Z"/><path d="M2.5,3.91a1.36,1.36,0,0,1,.17-.12.59.59,0,0,1,.66,0,.56.56,0,0,1,.19.63,2,2,0,0,1-1,1,.16.16,0,0,1-.15,0l-.77-.71a.74.74,0,0,1-.14-.28.58.58,0,0,1,.18-.67.63.63,0,0,1,.7,0Z"/><path d="M9.44,7.93A2.61,2.61,0,0,1,10,7.77a.53.53,0,0,1,.55.66,1.47,1.47,0,0,1-.64.88c-.46.35-.34.35-.79,0a2.57,2.57,0,0,1-.5-.54.66.66,0,0,1,0-.87A.63.63,0,0,1,9.44,7.93Z"/><path d="M18.45,14.41a.87.87,0,0,1-.32.59c-.48.4-.38.41-.86,0a1.59,1.59,0,0,1-.3-.46.35.35,0,0,1,.11-.42.37.37,0,0,1,.45-.06.32.32,0,0,0,.35,0A.39.39,0,0,1,18.45,14.41Z"/><path d="M17.62,4.63c.34-.24.7-.15.73.2a.53.53,0,0,1-.1.37,4.68,4.68,0,0,1-.55.54.2.2,0,0,1-.17,0A3.66,3.66,0,0,1,17,5.24a.47.47,0,0,1,0-.64C17.13,4.44,17.33,4.44,17.62,4.63Z"/><path d="M6.89,4.51c.37-.25.73-.15.75.21a.59.59,0,0,1-.13.39,5.41,5.41,0,0,1-.62.55l-.6-.51a.21.21,0,0,1,0-.06.48.48,0,0,1,0-.62C6.42,4.32,6.62,4.33,6.89,4.51Z"/><path d="M1.31,16.48c0-.89,0-1.78,0-2.66a.39.39,0,0,1,.15-.24,10.31,10.31,0,0,1,5-2.22,10.42,10.42,0,0,1,8,1.88,10,10,0,0,1,4.16,6.87,9.86,9.86,0,0,1-.11,3.51c0,.14-.08.2-.23.2H16.36a8.2,8.2,0,0,0-.92-6.59,7.71,7.71,0,0,0-3.6-3.2C7.75,12.28,4.26,13.24,1.31,16.48Z"/><path d="M15.55,13.17a9,9,0,0,0-2.88-1.66c0-.42.07-.85.11-1.27.07-.83.15-1.66.21-2.49,0-.21.07-.31.29-.36.37-.07.75-.19,1.12-.27a.33.33,0,0,1,.24,0l3.84,2.23a.34.34,0,0,1,.14.19c.11.4.22.8.32,1.2a.24.24,0,0,1-.07.22Z"/><path d="M3.14,8.43a2.8,2.8,0,0,1,.53-.25.78.78,0,0,1,1,1,1.68,1.68,0,0,1-.34.68,9.56,9.56,0,0,1-1,.89.25.25,0,0,1-.24,0,3.49,3.49,0,0,1-1.13-1,1.83,1.83,0,0,1-.24-.58A.8.8,0,0,1,2,8.25a.92.92,0,0,1,1,.09Z"/><path d="M13.08,1.79a2.93,2.93,0,0,1,.62-.26.77.77,0,0,1,.91,1,1.69,1.69,0,0,1-.35.71,10.49,10.49,0,0,1-1,.88.3.3,0,0,1-.26,0,3.46,3.46,0,0,1-1.08-1,1.74,1.74,0,0,1-.26-.55A.8.8,0,0,1,12,1.63a.9.9,0,0,1,1,.07Z"/><path d="M2.7,4.11A1.36,1.36,0,0,1,2.87,4a.59.59,0,0,1,.66,0,.55.55,0,0,1,.19.62,2,2,0,0,1-1,1.06.16.16,0,0,1-.15,0L1.84,5a.78.78,0,0,1-.14-.29A.57.57,0,0,1,1.88,4a.6.6,0,0,1,.69,0Z"/><path d="M9.64,8.13A2.61,2.61,0,0,1,10.17,8a.53.53,0,0,1,.55.65,1.52,1.52,0,0,1-.64.89c-.46.35-.34.35-.79,0A2.57,2.57,0,0,1,8.79,9a.65.65,0,0,1,0-.87A.63.63,0,0,1,9.64,8.13Z"/><path d="M18.65,14.61a.85.85,0,0,1-.32.58c-.48.41-.38.42-.86,0a1.42,1.42,0,0,1-.3-.45.36.36,0,0,1,.1-.42.38.38,0,0,1,.46-.06.32.32,0,0,0,.35,0A.39.39,0,0,1,18.65,14.61Z"/><path d="M17.82,4.83c.34-.25.7-.15.73.2a.53.53,0,0,1-.1.37,4.68,4.68,0,0,1-.55.54.17.17,0,0,1-.17,0,3.64,3.64,0,0,1-.54-.5.48.48,0,0,1,0-.64C17.33,4.64,17.53,4.64,17.82,4.83Z"/><path d="M7.09,4.7c.37-.24.73-.14.74.22a.54.54,0,0,1-.12.39,6.57,6.57,0,0,1-.62.55l-.61-.51,0-.06a.47.47,0,0,1,0-.62C6.62,4.51,6.82,4.52,7.09,4.7Z"/></g><g class="cls-3"><path d="M1,16.14c0-.89,0-1.78,0-2.66a.39.39,0,0,1,.15-.24,10.31,10.31,0,0,1,5-2.22,10.42,10.42,0,0,1,8,1.88,10,10,0,0,1,4.16,6.87,9.86,9.86,0,0,1-.11,3.51c0,.14-.08.2-.23.2H16a8.2,8.2,0,0,0-.92-6.59,7.71,7.71,0,0,0-3.6-3.2C7.41,11.94,3.92,12.9,1,16.14Z"/><path d="M15.21,12.83a9,9,0,0,0-2.88-1.66c0-.42.07-.85.11-1.27.07-.83.15-1.66.21-2.49,0-.21.07-.31.29-.36.37-.07.75-.19,1.12-.27a.33.33,0,0,1,.24,0L18.14,9a.31.31,0,0,1,.14.19c.11.4.22.8.32,1.2a.27.27,0,0,1-.07.22Z"/><path d="M2.8,8.09a2.8,2.8,0,0,1,.53-.25.78.78,0,0,1,1,1A1.68,1.68,0,0,1,4,9.48a9.56,9.56,0,0,1-1,.89.25.25,0,0,1-.24,0,3.49,3.49,0,0,1-1.13-1,1.83,1.83,0,0,1-.24-.58.78.78,0,0,1,.36-.86.94.94,0,0,1,1,.08Z"/><path d="M12.74,1.45a2.93,2.93,0,0,1,.62-.26.77.77,0,0,1,.91,1,1.69,1.69,0,0,1-.35.71,10.49,10.49,0,0,1-1,.88.3.3,0,0,1-.26,0,3.46,3.46,0,0,1-1.08-1,1.74,1.74,0,0,1-.26-.55.8.8,0,0,1,.32-.93.9.9,0,0,1,1,.07Z"/><path d="M2.36,3.77a.88.88,0,0,1,.17-.12.59.59,0,0,1,.66,0,.55.55,0,0,1,.19.62,2,2,0,0,1-1,1.06.16.16,0,0,1-.15,0L1.5,4.62a.78.78,0,0,1-.14-.29.59.59,0,0,1,.18-.67.62.62,0,0,1,.69,0Z"/><path d="M9.3,7.79a2.61,2.61,0,0,1,.53-.16.53.53,0,0,1,.55.65,1.52,1.52,0,0,1-.64.89c-.46.35-.34.35-.79,0a2.57,2.57,0,0,1-.5-.54.65.65,0,0,1,0-.87A.63.63,0,0,1,9.3,7.79Z"/><path d="M18.31,14.27a.85.85,0,0,1-.32.58c-.48.41-.38.42-.86,0a1.42,1.42,0,0,1-.3-.45.36.36,0,0,1,.1-.42.37.37,0,0,1,.45-.06.33.33,0,0,0,.36,0A.39.39,0,0,1,18.31,14.27Z"/><path d="M17.48,4.49c.34-.25.7-.15.73.2a.53.53,0,0,1-.1.37,4.68,4.68,0,0,1-.55.54.17.17,0,0,1-.17,0,3.64,3.64,0,0,1-.54-.5.48.48,0,0,1,0-.64C17,4.3,17.19,4.3,17.48,4.49Z"/><path d="M6.75,4.36c.37-.24.73-.14.74.22A.54.54,0,0,1,7.37,5a6.57,6.57,0,0,1-.62.55L6.14,5l0-.06a.48.48,0,0,1,0-.62C6.28,4.17,6.48,4.18,6.75,4.36Z"/></g><path class="cls-4" d="M1.16,16.34c0-.89,0-1.78,0-2.67a.37.37,0,0,1,.15-.23,10.31,10.31,0,0,1,5-2.22,10.38,10.38,0,0,1,8,1.88A10,10,0,0,1,18.42,20a9.92,9.92,0,0,1-.11,3.52c0,.14-.08.2-.24.2-.55,0-1.1,0-1.65,0h-.21a8.15,8.15,0,0,0-.91-6.59,7.76,7.76,0,0,0-3.6-3.2C7.61,12.14,4.12,13.1,1.16,16.34Z"/><path class="cls-4" d="M15.41,13a9.32,9.32,0,0,0-2.88-1.67c0-.41.07-.84.11-1.27.07-.83.15-1.65.21-2.48,0-.21.07-.32.28-.36.38-.07.75-.19,1.13-.27a.34.34,0,0,1,.24,0c1.28.73,2.56,1.48,3.84,2.23a.32.32,0,0,1,.14.18c.11.4.22.8.32,1.21a.28.28,0,0,1-.07.22Z"/><path class="cls-4" d="M3,8.29A2.56,2.56,0,0,1,3.53,8a.77.77,0,0,1,1,1,1.56,1.56,0,0,1-.35.69,8.57,8.57,0,0,1-1,.89.25.25,0,0,1-.24,0,3.41,3.41,0,0,1-1.13-1A1.69,1.69,0,0,1,1.54,9a.78.78,0,0,1,.36-.86.92.92,0,0,1,1,.08A.58.58,0,0,1,3,8.29Z"/><path class="cls-4" d="M12.94,1.65a2.93,2.93,0,0,1,.62-.26.77.77,0,0,1,.91,1,1.71,1.71,0,0,1-.36.71,9.19,9.19,0,0,1-1,.87.27.27,0,0,1-.26,0,3.46,3.46,0,0,1-1.08-1,1.76,1.76,0,0,1-.27-.55.81.81,0,0,1,.33-.93.9.9,0,0,1,1,.07Z"/><path class="cls-4" d="M2.56,4a.88.88,0,0,1,.17-.12.59.59,0,0,1,.66,0,.56.56,0,0,1,.19.62,2,2,0,0,1-1,1.06.16.16,0,0,1-.15,0c-.27-.23-.53-.47-.77-.72a.67.67,0,0,1-.14-.28.58.58,0,0,1,.18-.67.62.62,0,0,1,.69,0Z"/><path class="cls-4" d="M9.5,8A2.61,2.61,0,0,1,10,7.83a.53.53,0,0,1,.55.65,1.52,1.52,0,0,1-.64.89c-.46.35-.34.35-.79,0a2.57,2.57,0,0,1-.5-.54.65.65,0,0,1,0-.87A.63.63,0,0,1,9.5,8Z"/><path class="cls-4" d="M18.51,14.47a.83.83,0,0,1-.33.58c-.48.41-.38.42-.85,0a1.42,1.42,0,0,1-.3-.45.36.36,0,0,1,.1-.42.35.35,0,0,1,.45-.06.32.32,0,0,0,.36,0A.4.4,0,0,1,18.51,14.47Z"/><path class="cls-4" d="M17.67,4.69c.35-.25.71-.15.74.2a.53.53,0,0,1-.1.37,4.1,4.1,0,0,1-.56.54.15.15,0,0,1-.16,0,3.68,3.68,0,0,1-.54-.5.48.48,0,0,1,0-.64C17.19,4.5,17.39,4.5,17.67,4.69Z"/><path class="cls-4" d="M7,4.56c.37-.24.73-.14.74.22a.54.54,0,0,1-.12.39A8.11,8.11,0,0,1,7,5.72L6.34,5.2l0,0a.48.48,0,0,1,0-.62C6.48,4.37,6.68,4.38,7,4.56Z"/></g></g></svg>