<svg xmlns="http://www.w3.org/2000/svg" viewBox="0 0 38.55 24.66"><defs><style>.cls-1{isolation:isolate;}.cls-2{opacity:0.15;}.cls-2,.cls-3{mix-blend-mode:multiply;}.cls-4{fill:#fff;}</style></defs><title>convert-CUSTOMIZE-SVG-03</title><g class="cls-1"><g id="Layer_1" data-name="Layer 1"><g class="cls-2"><path d="M9.48,14.67l.31-.36a2.23,2.23,0,0,0,2,.34A2.12,2.12,0,0,0,13,13.73a2.09,2.09,0,0,0-.41-2.68A2.19,2.19,0,0,0,9.77,11a2.12,2.12,0,0,0-.47,2.8l-.36.34a2.56,2.56,0,0,1,.15-3.18,2.71,2.71,0,0,1,3.79-.27,2.59,2.59,0,0,1,.27,3.66A2.68,2.68,0,0,1,9.48,14.67Z"/><path d="M9.75,11.09a2.56,2.56,0,0,1-.4,3.52,2.7,2.7,0,0,1-3.74-.26,2.58,2.58,0,0,1,.19-3.63,2.66,2.66,0,0,1,3.46-.12L8.94,11a2.29,2.29,0,0,0-1.38-.44A2.16,2.16,0,0,0,5.47,12.4a2.11,2.11,0,0,0,1.76,2.31,2.15,2.15,0,0,0,2.55-2,1.64,1.64,0,0,0-.22-1,.32.32,0,0,1,.07-.49A.94.94,0,0,0,9.75,11.09Z"/><path d="M11.22,5.81a.94.94,0,0,1,.07-.28A.41.41,0,0,1,12,5.47a.38.38,0,0,0,.44.19.39.39,0,0,1,.45.17.45.45,0,0,1,0,.53,1.39,1.39,0,0,1-1.15.52.12.12,0,0,1-.11,0A1.55,1.55,0,0,1,11.22,5.81Z"/><path d="M3.51,15.14a7.06,7.06,0,0,1-.29.71.93.93,0,0,1-.34.31.42.42,0,0,1-.5,0,.4.4,0,0,1-.15-.45.31.31,0,0,0-.15-.4.4.4,0,0,1-.23-.46.48.48,0,0,1,.46-.35,1.45,1.45,0,0,1,1.13.42S3.48,15,3.51,15.14Z"/><path d="M16.39,10.74a1.51,1.51,0,0,1-.94-.42.21.21,0,0,1-.07-.14,1.44,1.44,0,0,1,.45-1A.68.68,0,0,1,16.16,9c.35-.06.55.2.47.6a.21.21,0,0,0,.09.26c.18.12.37.27.29.53S16.71,10.75,16.39,10.74Z"/><path d="M16.25,15.61c0,.12,0,.24,0,.36a.37.37,0,0,1-.53.39,1,1,0,0,1-.47-.39,2.41,2.41,0,0,1-.23-.6c-.07-.22,0-.34.21-.45a1.44,1.44,0,0,1,1-.26.47.47,0,0,1,.44.36c.05.22-.09.35-.25.47Z"/><path d="M12.54,19.7a.37.37,0,0,1-.14,0c-.11-.05-.16,0-.22.08-.2.28-.38.36-.57.29a.58.58,0,0,1-.33-.65,1.52,1.52,0,0,1,.42-.87.26.26,0,0,1,.17-.07,1.56,1.56,0,0,1,.9.32A.49.49,0,0,1,13,19a1.06,1.06,0,0,1,0,.5C13,19.69,12.76,19.71,12.54,19.7Z"/><path d="M7.16,19.52a1.21,1.21,0,0,1-.09.32.4.4,0,0,1-.71.05.47.47,0,0,0-.51-.21.37.37,0,0,1-.42-.17.5.5,0,0,1,0-.5,1.48,1.48,0,0,1,1.19-.55.1.1,0,0,1,.08.05A1.65,1.65,0,0,1,7.16,19.52Z"/><path d="M7.47,5.88A1.54,1.54,0,0,1,7,6.75a.14.14,0,0,1-.11,0,1.47,1.47,0,0,1-1-.42.51.51,0,0,1-.14-.61.49.49,0,0,1,.58-.19.21.21,0,0,0,.27-.1c.18-.25.37-.34.55-.27S7.47,5.48,7.47,5.88Z"/><path d="M2.2,10.66a2.84,2.84,0,0,1-.31-.06.39.39,0,0,1-.14-.71A.55.55,0,0,0,2,9.34a.4.4,0,0,1,.59-.4,1.31,1.31,0,0,1,.65,1.21.17.17,0,0,1-.06.1A1.66,1.66,0,0,1,2.2,10.66Z"/><path d="M6.71,9a.57.57,0,0,1,.57-.3c.25,0,.51,0,.76,0a.33.33,0,0,1,.19.06c.24.18.24.19.1.46s-.16.3-.22.46a.27.27,0,0,1-.35.2.65.65,0,0,0-.31,0C7.2,10,7.09,9.86,7,9.65A5.92,5.92,0,0,0,6.71,9Z"/><path d="M4.41,7.68A.4.4,0,0,1,4,8.05a.38.38,0,0,1-.37-.38A.37.37,0,0,1,4,7.3.39.39,0,0,1,4.41,7.68Z"/><path d="M2.41,12.59A.39.39,0,0,1,2,13a.38.38,0,0,1-.38-.37A.36.36,0,0,1,2,12.23.38.38,0,0,1,2.41,12.59Z"/><path d="M9.5,5.56a.38.38,0,1,1-.75,0,.38.38,0,0,1,.75,0Z"/><path d="M14.55,17.63a.38.38,0,0,1-.39.37.37.37,0,0,1-.36-.39.4.4,0,0,1,.37-.36A.38.38,0,0,1,14.55,17.63Z"/><path d="M14.61,7.62a.37.37,0,0,1-.39.36.35.35,0,0,1-.36-.36.35.35,0,0,1,.37-.37A.38.38,0,0,1,14.61,7.62Z"/><path d="M9.12,19.27a.36.36,0,0,1,.38.37.34.34,0,0,1-.35.36.37.37,0,0,1-.4-.35A.37.37,0,0,1,9.12,19.27Z"/><path d="M16.75,12.59a.37.37,0,0,1-.37.38.37.37,0,1,1,.37-.38Z"/><path d="M4.45,17.59a.35.35,0,0,1-.39.35.37.37,0,0,1-.36-.36.37.37,0,0,1,.38-.37A.35.35,0,0,1,4.45,17.59Z"/><path d="M9.67,14.86,10,14.5a2.18,2.18,0,0,0,2,.35,2.11,2.11,0,0,0,.77-3.6A2.17,2.17,0,0,0,10,11.18,2.12,2.12,0,0,0,9.5,14l-.36.34a2.56,2.56,0,0,1,.15-3.18,2.72,2.72,0,0,1,3.79-.28,2.59,2.59,0,0,1,.27,3.66A2.68,2.68,0,0,1,9.67,14.86Z"/><path d="M9.94,11.29a2.55,2.55,0,0,1-.39,3.52,2.71,2.71,0,0,1-3.74-.26A2.57,2.57,0,0,1,6,10.92a2.65,2.65,0,0,1,3.46-.12l-.32.35a2.32,2.32,0,0,0-1.39-.44,2.15,2.15,0,0,0-2.08,1.88,2.11,2.11,0,0,0,1.76,2.32,2.16,2.16,0,0,0,2.55-2,1.64,1.64,0,0,0-.22-1,.32.32,0,0,1,.07-.49A.57.57,0,0,0,9.94,11.29Z"/><path d="M11.42,6a1.36,1.36,0,0,1,.06-.27.41.41,0,0,1,.75-.06.4.4,0,0,0,.45.19.39.39,0,0,1,.45.17.45.45,0,0,1,0,.53A1.44,1.44,0,0,1,12,7.08a.14.14,0,0,1-.11,0A1.51,1.51,0,0,1,11.42,6Z"/><path d="M3.71,15.34a6,6,0,0,1-.3.71,1,1,0,0,1-.33.31.44.44,0,0,1-.5,0,.4.4,0,0,1-.15-.45.31.31,0,0,0-.15-.4A.4.4,0,0,1,2.05,15a.5.5,0,0,1,.45-.36,1.46,1.46,0,0,1,1.13.43C3.68,15.15,3.68,15.23,3.71,15.34Z"/><path d="M16.59,10.94a1.62,1.62,0,0,1-.95-.42.25.25,0,0,1-.06-.14,1.44,1.44,0,0,1,.45-1,.68.68,0,0,1,.33-.16c.35-.06.55.19.47.6a.21.21,0,0,0,.09.26c.18.12.37.27.29.53A.57.57,0,0,1,16.59,10.94Z"/><path d="M16.44,15.81c0,.12,0,.24,0,.36a.38.38,0,0,1-.53.39,1.15,1.15,0,0,1-.48-.39,2.75,2.75,0,0,1-.22-.61c-.07-.21,0-.33.21-.44a1.4,1.4,0,0,1,1-.27.49.49,0,0,1,.44.37c.05.22-.09.35-.25.47Z"/><path d="M12.74,19.9a.28.28,0,0,1-.14,0c-.11,0-.16,0-.22.09-.2.28-.38.36-.58.29a.6.6,0,0,1-.32-.65,1.55,1.55,0,0,1,.42-.88.25.25,0,0,1,.16-.06A1.66,1.66,0,0,1,13,19a.64.64,0,0,1,.2.24,1.06,1.06,0,0,1,0,.5C13.15,19.89,13,19.91,12.74,19.9Z"/><path d="M7.36,19.72a1.77,1.77,0,0,1-.09.32.4.4,0,0,1-.71.05.47.47,0,0,0-.51-.21.37.37,0,0,1-.42-.17.49.49,0,0,1,0-.51,1.47,1.47,0,0,1,1.18-.54.13.13,0,0,1,.09,0A1.68,1.68,0,0,1,7.36,19.72Z"/><path d="M7.67,6.08A1.61,1.61,0,0,1,7.23,7a.25.25,0,0,1-.11,0,1.46,1.46,0,0,1-1-.42A.52.52,0,0,1,5.93,6a.49.49,0,0,1,.58-.19.21.21,0,0,0,.27-.1c.18-.25.36-.34.55-.27S7.67,5.68,7.67,6.08Z"/><path d="M2.39,10.86a2.65,2.65,0,0,1-.3-.06A.39.39,0,0,1,2,10.09a.56.56,0,0,0,.23-.56.4.4,0,0,1,.59-.39,1.31,1.31,0,0,1,.65,1.21.18.18,0,0,1-.07.1A1.67,1.67,0,0,1,2.39,10.86Z"/><path d="M6.91,9.22a.56.56,0,0,1,.57-.29c.25,0,.5,0,.76,0A.33.33,0,0,1,8.43,9c.24.18.24.19.1.46s-.16.3-.22.46a.26.26,0,0,1-.35.19,1.15,1.15,0,0,0-.32,0c-.24.07-.35,0-.43-.25S7,9.43,6.91,9.22Z"/><path d="M4.6,7.88a.37.37,0,0,1-.38.36.37.37,0,0,1-.37-.38.38.38,0,0,1,.75,0Z"/><path d="M2.6,12.79a.38.38,0,1,1-.38-.37A.38.38,0,0,1,2.6,12.79Z"/><path d="M9.7,5.76a.38.38,0,0,1-.38.37.38.38,0,1,1,0-.75A.37.37,0,0,1,9.7,5.76Z"/><path d="M14.75,17.83a.38.38,0,0,1-.39.37.37.37,0,0,1-.36-.39.37.37,0,0,1,.37-.36A.38.38,0,0,1,14.75,17.83Z"/><path d="M14.81,7.82a.37.37,0,0,1-.39.36.36.36,0,0,1-.37-.36.37.37,0,0,1,.38-.37A.38.38,0,0,1,14.81,7.82Z"/><path d="M9.32,19.47a.37.37,0,1,1,0,.73.37.37,0,0,1-.4-.35A.39.39,0,0,1,9.32,19.47Z"/><path d="M17,12.79a.37.37,0,0,1-.37.38.36.36,0,0,1-.37-.38.35.35,0,0,1,.36-.36A.36.36,0,0,1,17,12.79Z"/><path d="M4.65,17.78a.35.35,0,0,1-.39.36.37.37,0,0,1-.36-.37.36.36,0,0,1,.38-.36A.35.35,0,0,1,4.65,17.78Z"/></g><g class="cls-3"><path d="M9.33,14.52l.32-.36a2.15,2.15,0,0,0,2,.34,2,2,0,0,0,1.18-.91,2.08,2.08,0,0,0-.41-2.69,2.19,2.19,0,0,0-2.78-.06,2.12,2.12,0,0,0-.47,2.8L8.8,14A2.56,2.56,0,0,1,9,10.8a2.72,2.72,0,0,1,3.79-.28A2.59,2.59,0,0,1,13,14.18,2.68,2.68,0,0,1,9.33,14.52Z"/><path d="M9.6,11a2.55,2.55,0,0,1-.39,3.52,2.71,2.71,0,0,1-3.74-.26,2.57,2.57,0,0,1,.19-3.63,2.65,2.65,0,0,1,3.46-.12l-.32.35a2.32,2.32,0,0,0-1.39-.44,2.15,2.15,0,0,0-2.08,1.88,2.11,2.11,0,0,0,1.76,2.32,2.16,2.16,0,0,0,2.55-2,1.64,1.64,0,0,0-.22-1,.32.32,0,0,1,.07-.49A.57.57,0,0,0,9.6,11Z"/><path d="M11.08,5.66a1.36,1.36,0,0,1,.06-.27.41.41,0,0,1,.75-.06.4.4,0,0,0,.45.19.39.39,0,0,1,.45.17.45.45,0,0,1,0,.53,1.44,1.44,0,0,1-1.16.52.14.14,0,0,1-.1,0A1.51,1.51,0,0,1,11.08,5.66Z"/><path d="M3.37,15a6,6,0,0,1-.3.71,1,1,0,0,1-.33.31.44.44,0,0,1-.5,0,.4.4,0,0,1-.15-.45.31.31,0,0,0-.15-.4.4.4,0,0,1-.23-.46.5.5,0,0,1,.45-.36,1.46,1.46,0,0,1,1.13.43S3.34,14.89,3.37,15Z"/><path d="M16.25,10.6a1.62,1.62,0,0,1-.95-.42.25.25,0,0,1-.06-.14,1.44,1.44,0,0,1,.45-1A.68.68,0,0,1,16,8.86c.35-.06.55.19.47.6a.2.2,0,0,0,.09.26c.18.12.37.27.29.53A.57.57,0,0,1,16.25,10.6Z"/><path d="M16.1,15.47c0,.12,0,.24,0,.36a.38.38,0,0,1-.54.39,1.19,1.19,0,0,1-.47-.39,2.75,2.75,0,0,1-.22-.61c-.07-.21,0-.33.21-.44a1.4,1.4,0,0,1,1-.27.49.49,0,0,1,.44.37c.05.22-.09.35-.25.47Z"/><path d="M12.4,19.56a.28.28,0,0,1-.14,0c-.11,0-.16,0-.22.09-.2.28-.38.36-.58.29a.6.6,0,0,1-.32-.65,1.55,1.55,0,0,1,.42-.88.25.25,0,0,1,.16-.06,1.66,1.66,0,0,1,.91.31.64.64,0,0,1,.2.24,1.06,1.06,0,0,1,0,.5C12.81,19.55,12.62,19.57,12.4,19.56Z"/><path d="M7,19.38a1.49,1.49,0,0,1-.09.31.4.4,0,0,1-.71.06.47.47,0,0,0-.51-.21.37.37,0,0,1-.42-.17.49.49,0,0,1,0-.51,1.47,1.47,0,0,1,1.18-.54.13.13,0,0,1,.09,0A1.68,1.68,0,0,1,7,19.38Z"/><path d="M7.33,5.74a1.61,1.61,0,0,1-.44.87.25.25,0,0,1-.11,0,1.46,1.46,0,0,1-1-.42.52.52,0,0,1-.14-.61c.08-.17.29-.25.58-.19a.21.21,0,0,0,.27-.1Q6.71,5,7,5.06C7.21,5.13,7.33,5.34,7.33,5.74Z"/><path d="M2.05,10.52a2.65,2.65,0,0,1-.3-.06.39.39,0,0,1-.14-.71.56.56,0,0,0,.23-.56.4.4,0,0,1,.59-.39A1.31,1.31,0,0,1,3.08,10a.18.18,0,0,1-.07.1A1.67,1.67,0,0,1,2.05,10.52Z"/><path d="M6.57,8.88a.56.56,0,0,1,.57-.29c.25,0,.5,0,.76,0a.33.33,0,0,1,.19.06c.24.18.24.19.1.46S8,9.42,8,9.58a.26.26,0,0,1-.35.19,1.15,1.15,0,0,0-.32,0c-.24.07-.35,0-.43-.25S6.67,9.09,6.57,8.88Z"/><path d="M4.26,7.54a.37.37,0,0,1-.38.36.37.37,0,0,1-.37-.38.38.38,0,0,1,.75,0Z"/><path d="M2.26,12.45a.38.38,0,1,1-.38-.37A.38.38,0,0,1,2.26,12.45Z"/><path d="M9.36,5.42A.38.38,0,0,1,9,5.79.38.38,0,1,1,9,5,.37.37,0,0,1,9.36,5.42Z"/><path d="M14.41,17.49a.38.38,0,0,1-.39.37.37.37,0,0,1-.36-.39.37.37,0,0,1,.37-.36A.38.38,0,0,1,14.41,17.49Z"/><path d="M14.47,7.48a.37.37,0,0,1-.39.36.36.36,0,0,1-.37-.36.37.37,0,0,1,.38-.37A.38.38,0,0,1,14.47,7.48Z"/><path d="M9,19.13a.37.37,0,1,1,0,.73.37.37,0,0,1-.4-.35A.38.38,0,0,1,9,19.13Z"/><path d="M16.61,12.45a.37.37,0,0,1-.37.38.36.36,0,0,1-.37-.38.37.37,0,0,1,.36-.37A.37.37,0,0,1,16.61,12.45Z"/><path d="M4.31,17.44a.35.35,0,0,1-.39.36.37.37,0,0,1-.36-.37.36.36,0,0,1,.38-.36A.36.36,0,0,1,4.31,17.44Z"/></g><path class="cls-4" d="M9.53,14.72l.31-.36a2.18,2.18,0,0,0,2,.34A2,2,0,0,0,13,13.79a2.08,2.08,0,0,0-.41-2.69A2.19,2.19,0,0,0,9.83,11a2.1,2.1,0,0,0-.47,2.8L9,14.17A2.56,2.56,0,0,1,9.15,11a2.72,2.72,0,0,1,3.79-.27,2.59,2.59,0,0,1,.27,3.66A2.68,2.68,0,0,1,9.53,14.72Z"/><path class="cls-4" d="M9.8,11.14a2.57,2.57,0,0,1-.39,3.53,2.71,2.71,0,0,1-3.74-.26,2.59,2.59,0,0,1,.19-3.64,2.64,2.64,0,0,1,3.45-.11L9,11a2.32,2.32,0,0,0-1.39-.44,2.17,2.17,0,0,0-2.09,1.88,2.14,2.14,0,0,0,1.77,2.32,2.16,2.16,0,0,0,2.55-2,1.62,1.62,0,0,0-.23-1,.33.33,0,0,1,.07-.48A.47.47,0,0,0,9.8,11.14Z"/><path class="cls-4" d="M11.27,5.86c0-.05,0-.17.07-.27a.41.41,0,0,1,.75-.06.39.39,0,0,0,.45.19.4.4,0,0,1,.45.16.47.47,0,0,1,0,.54,1.44,1.44,0,0,1-1.16.52.14.14,0,0,1-.1-.05A1.57,1.57,0,0,1,11.27,5.86Z"/><path class="cls-4" d="M3.57,15.2a6,6,0,0,1-.3.71,1,1,0,0,1-.33.31.44.44,0,0,1-.5,0,.42.42,0,0,1-.16-.45c0-.18,0-.3-.15-.4a.41.41,0,0,1-.22-.46.49.49,0,0,1,.45-.36A1.44,1.44,0,0,1,3.49,15S3.54,15.09,3.57,15.2Z"/><path class="cls-4" d="M16.45,10.79a1.6,1.6,0,0,1-.95-.41.25.25,0,0,1-.06-.14,1.39,1.39,0,0,1,.44-1,.78.78,0,0,1,.34-.17c.35-.05.55.2.47.6,0,.12,0,.19.09.27s.36.26.29.53S16.77,10.8,16.45,10.79Z"/><path class="cls-4" d="M16.3,15.67c0,.12,0,.24,0,.36a.38.38,0,0,1-.54.39,1.19,1.19,0,0,1-.47-.39,2.75,2.75,0,0,1-.22-.61c-.07-.21,0-.33.21-.44a1.4,1.4,0,0,1,1-.27.49.49,0,0,1,.44.37c.05.22-.09.35-.25.47Z"/><path class="cls-4" d="M12.6,19.76a.45.45,0,0,1-.14,0c-.11,0-.16,0-.22.09-.2.28-.38.36-.58.28a.58.58,0,0,1-.33-.64,1.56,1.56,0,0,1,.43-.88.23.23,0,0,1,.16-.06,1.6,1.6,0,0,1,.9.31.59.59,0,0,1,.21.24.91.91,0,0,1,0,.49C13,19.75,12.82,19.77,12.6,19.76Z"/><path class="cls-4" d="M7.22,19.58a2,2,0,0,1-.09.31.41.41,0,0,1-.72.06.43.43,0,0,0-.5-.21.36.36,0,0,1-.42-.18.48.48,0,0,1,0-.5,1.48,1.48,0,0,1,1.18-.55l.09,0A1.68,1.68,0,0,1,7.22,19.58Z"/><path class="cls-4" d="M7.52,5.94a1.53,1.53,0,0,1-.43.86.18.18,0,0,1-.11,0,1.5,1.5,0,0,1-1.05-.42.53.53,0,0,1-.14-.62c.08-.17.29-.24.57-.18a.24.24,0,0,0,.28-.1c.18-.26.36-.34.54-.28S7.53,5.54,7.52,5.94Z"/><path class="cls-4" d="M2.25,10.72a2.65,2.65,0,0,1-.3-.06c-.35-.14-.44-.49-.14-.71A.56.56,0,0,0,2,9.39.39.39,0,0,1,2.63,9a1.31,1.31,0,0,1,.65,1.21.18.18,0,0,1-.07.1A1.67,1.67,0,0,1,2.25,10.72Z"/><path class="cls-4" d="M6.77,9.08a.54.54,0,0,1,.56-.29c.26,0,.51,0,.77,0a.33.33,0,0,1,.19.06c.24.18.23.19.1.46s-.16.3-.22.46a.26.26,0,0,1-.35.19.86.86,0,0,0-.32,0c-.24.07-.35,0-.43-.25S6.87,9.29,6.77,9.08Z"/><path class="cls-4" d="M4.46,7.73a.38.38,0,0,1-.38.37.37.37,0,1,1,0-.74A.37.37,0,0,1,4.46,7.73Z"/><path class="cls-4" d="M2.46,12.65a.36.36,0,0,1-.37.37.36.36,0,0,1-.38-.36.38.38,0,0,1,.37-.38A.38.38,0,0,1,2.46,12.65Z"/><path class="cls-4" d="M9.55,5.62A.37.37,0,0,1,9.17,6,.4.4,0,0,1,8.8,5.6a.39.39,0,0,1,.39-.36A.36.36,0,0,1,9.55,5.62Z"/><path class="cls-4" d="M14.6,17.69a.37.37,0,0,1-.38.37.38.38,0,0,1,0-.75A.37.37,0,0,1,14.6,17.69Z"/><path class="cls-4" d="M14.67,7.68a.37.37,0,0,1-.39.36.35.35,0,0,1-.37-.36.37.37,0,0,1,.38-.37A.38.38,0,0,1,14.67,7.68Z"/><path class="cls-4" d="M9.17,19.33a.37.37,0,0,1,0,.73.37.37,0,0,1-.4-.35A.38.38,0,0,1,9.17,19.33Z"/><path class="cls-4" d="M16.81,12.65a.36.36,0,0,1-.37.37.35.35,0,0,1-.37-.37.37.37,0,0,1,.36-.37A.37.37,0,0,1,16.81,12.65Z"/><path class="cls-4" d="M4.51,17.64a.36.36,0,0,1-.39.36.37.37,0,0,1,0-.74A.38.38,0,0,1,4.51,17.64Z"/></g></g></svg>