<svg xmlns="http://www.w3.org/2000/svg" viewBox="0 0 38.55 24.66"><defs><style>.cls-1{isolation:isolate;}.cls-2{opacity:0.15;}.cls-2,.cls-3{mix-blend-mode:multiply;}.cls-4{fill:#fff;}</style></defs><title>convert-CUSTOMIZE-SVG-03</title><g class="cls-1"><g id="Layer_1" data-name="Layer 1"><g class="cls-2"><path d="M19.27,13.69A5.63,5.63,0,0,1,18,17.23a11.65,11.65,0,0,1-4.12,3.11.33.33,0,0,1-.24,0,11,11,0,0,1-4.46-3.56,5.2,5.2,0,0,1-1-3A2.76,2.76,0,0,1,10,11.22a2.76,2.76,0,0,1,1.7.15,6.63,6.63,0,0,1,1.88,1.07c.12.1.2.09.32,0a5.85,5.85,0,0,1,2.62-1.25,2.11,2.11,0,0,1,2.19.93A3.06,3.06,0,0,1,19.27,13.69ZM18,12.89l-2.54,1.48-1.07-.87,0,.25h-.54V16.2l4.86-2.71a2.3,2.3,0,0,0-1.56-1.83Zm-8.77,0,.82-1.16a.57.57,0,0,0-.26.08,2.38,2.38,0,0,0-.87,1c-.08.13,0,.2.08.28l4.4,3a.52.52,0,0,0,.15.07V13.75l-.45,0,0-.43L11.8,14.37Zm3.89-.51a13.53,13.53,0,0,0-1.4-.64,4.43,4.43,0,0,0-1.1-.17.21.21,0,0,0-.17,0c-.29.39-.57.78-.86,1.19l1.18.69V12l2.29.74L13,12.58Zm3.58,1,.94-.55c-.26-.36-.51-.7-.74-1.05a.4.4,0,0,0-.42-.2,4.58,4.58,0,0,0-2.34.94s0,0,0,0l.35.17L16.73,12Zm-2,0v0l.69.58a.2.2,0,0,0,.15,0l.64-.38Zm-2.24.08,0,0-1.36.25.57.33a.15.15,0,0,0,.13,0Z"/><path d="M6.54,5.19A6.78,6.78,0,0,1,8.67,4a2.49,2.49,0,0,1,1.45-.14,2.23,2.23,0,0,1,.81.33,2.88,2.88,0,0,1,1.16,2.55A6.11,6.11,0,0,1,10,10.76a12.55,12.55,0,0,1-3.21,2.18.4.4,0,0,1-.41,0,11.4,11.4,0,0,1-4.2-3.27A5.43,5.43,0,0,1,1,6.3,2.77,2.77,0,0,1,2.81,3.85,2.82,2.82,0,0,1,4.53,4,7.18,7.18,0,0,1,6.54,5.19Zm0,.28-.12-.09a6.26,6.26,0,0,0-1.76-1,2.48,2.48,0,0,0-1.59-.11,2.53,2.53,0,0,0-1.6,2.2A4.91,4.91,0,0,0,2.63,9.7a10.71,10.71,0,0,0,3.72,2.85.39.39,0,0,0,.39,0,11.94,11.94,0,0,0,2.93-2,5.93,5.93,0,0,0,1.87-3.19,2.86,2.86,0,0,0-.18-1.8A2.09,2.09,0,0,0,8.64,4.31,5.94,5.94,0,0,0,6.54,5.47Z"/><path d="M6.22,17.08A1.66,1.66,0,0,1,4.6,18.31a3.69,3.69,0,0,1-.47,0,.48.48,0,0,1-.53-.45,11.86,11.86,0,0,1-1.07-.54,1,1,0,0,1-.33-.42,1.93,1.93,0,0,1,.06-1.75,1.87,1.87,0,0,1,.27-.31l-.16-.29c-.09-.2-.07-.35.13-.45a3.46,3.46,0,0,0,1-.94.94.94,0,0,1,.89-.26,3.37,3.37,0,0,1,.58.16c.06-.21.25-.18.4-.13a2.11,2.11,0,0,1,.55.31,5.38,5.38,0,0,1,.69.66,2,2,0,0,1,.24.42,2.41,2.41,0,0,1,.24.29,1.82,1.82,0,0,1,.19,1.31,1.69,1.69,0,0,1-.73,1A1.78,1.78,0,0,1,6.22,17.08Zm-2.85-.73A2,2,0,0,0,4.2,17a1.12,1.12,0,0,0,1.17-.06,3.49,3.49,0,0,0,.7-.78c.21-.31.17-.46-.12-.71a.78.78,0,0,0-.69-.24c0,.05,0,.09,0,.12a.85.85,0,0,1-.51,1.2,1.11,1.11,0,0,1-.74.06C3.83,16.52,3.61,16.43,3.37,16.35Zm.14,1.16c.23-.29.22-.32-.06-.58A2.64,2.64,0,0,1,3,16.36a.91.91,0,0,1-.1-.56c.05-.34,0-.46-.25-.66a1.49,1.49,0,0,0-.32,1.24C2.37,17.1,2.9,17.35,3.51,17.51ZM4.21,15a4.1,4.1,0,0,1,.61-.15,1.63,1.63,0,0,1,.54,0,1.82,1.82,0,0,1,.51.18,3.91,3.91,0,0,1,.41.3A1.78,1.78,0,0,0,5,14a.42.42,0,0,0-.53.24A7.18,7.18,0,0,0,4.21,15ZM4,14.25a1.08,1.08,0,0,0-.71.95,1.17,1.17,0,0,0,.65,1,1,1,0,0,0,.92-.2c-.62.16-.88,0-.93-.64A8.23,8.23,0,0,1,4,14.25ZM6,17c-.6.53-1.18.89-1.92.28a2.92,2.92,0,0,0-.17.37c-.09.29,0,.44.31.45a3.39,3.39,0,0,0,.55,0,1.4,1.4,0,0,0,1.13-.75A1.86,1.86,0,0,0,6,17Zm-.78-3.45a3.84,3.84,0,0,0-.5-.32.89.89,0,0,0-1.11.28,6.22,6.22,0,0,1-.75.7c-.28.2-.3.18-.11.46a.21.21,0,0,0,.06.08C3.39,14,4,13.23,5.19,13.54ZM6.93,14.8a.47.47,0,0,0-.2.58.71.71,0,0,1-.21.77,1.45,1.45,0,0,0-.25.36c0,.07,0,.17,0,.26a.53.53,0,0,0,.19,0A1.47,1.47,0,0,0,6.93,14.8Zm-.46-.07c.2-.33.2-.45,0-.68s-.5-.48-.75-.7a2,2,0,0,0-.25-.14l0,0Zm-1.67.7,0-.09c-.11-.05-.24-.17-.36,0s0,.2,0,.3Zm-.26-1.67,0,0L4,13.9l.33.1.11-.12Z"/><path d="M14.83,10.65a1.6,1.6,0,0,1-1.36.18,2.5,2.5,0,0,1-1-.66.5.5,0,0,1-.06-.69,3.78,3.78,0,0,1-.46-1.22,1.29,1.29,0,0,1,.33-.91,3.28,3.28,0,0,1,.65-.59,3.23,3.23,0,0,1,.7-.25l0,.06.06-.28c.07-.27.19-.37.46-.3a2.86,2.86,0,0,0,1.2,0,1.09,1.09,0,0,1,1.16.56c.06.1.1.2.16.32.18-.11.31,0,.39.14a2.14,2.14,0,0,1,.21.6,6.11,6.11,0,0,1,.06,1,3.1,3.1,0,0,1-.13.55.49.49,0,0,1,.05.17,1.84,1.84,0,0,1-1.36,1.46,1.87,1.87,0,0,1-.53.05A4,4,0,0,1,14.83,10.65ZM13.28,8.23h-.06a3.88,3.88,0,0,0,0,.48A1.32,1.32,0,0,0,14.41,10a1.94,1.94,0,0,0,1.2-.24.35.35,0,0,0,.14-.13.92.92,0,0,0-.33-1,.88.88,0,0,1-1,.71A1.38,1.38,0,0,1,13.28,8.23Zm-.75.95c.41-.1.41-.12.36-.51a2.71,2.71,0,0,1,0-.57.73.73,0,0,1,.37-.65A.47.47,0,0,0,13.52,7c0-.17-.06-.22-.21-.16A1.75,1.75,0,0,0,12.21,8a.89.89,0,0,0,.07.73ZM14.85,7.7l0,.07a1.61,1.61,0,0,1,1.24,1.61A1.76,1.76,0,0,0,16,7.49a.43.43,0,0,0-.56-.15C15.26,7.45,15.06,7.58,14.85,7.7Zm-.32,1.19-.15-.08A.51.51,0,0,1,14.15,8a3.29,3.29,0,0,1,.48-.58c.14-.14.32-.26.48-.4a1.12,1.12,0,0,0-1.18.22,1.09,1.09,0,0,0-.21,1.12A.87.87,0,0,0,14.53,8.89Zm-1.41.44a3.87,3.87,0,0,0-.46.24.25.25,0,0,0,0,.43,5.22,5.22,0,0,0,.6.45,1.33,1.33,0,0,0,1.25.11,2.07,2.07,0,0,0,.25-.15C13.93,10.4,13.25,10.31,13.12,9.33Zm3.36-1.94a1.25,1.25,0,0,0-.31-.89.78.78,0,0,0-.63-.3,3.63,3.63,0,0,1-1.43,0s-.14,0-.16.07a1.55,1.55,0,0,0-.06.31C14.87,6.48,15.82,6.32,16.48,7.39Zm.45,2a.44.44,0,0,0-.49.21.82.82,0,0,1-.79.53,1.28,1.28,0,0,0-.27,0,.3.3,0,0,0-.26.28A1.43,1.43,0,0,0,16.93,9.41ZM16.65,9c.31,0,.43-.14.43-.41a6.79,6.79,0,0,0,0-.9,2.68,2.68,0,0,0-.11-.49h-.08Zm-1.71-.56,0-.09a.85.85,0,0,0-.22-.24s-.14,0-.19.11a.24.24,0,0,0,0,.16Zm.56-1.41h.37l0,0-.54-.24Z"/><path d="M7.27,17.86l.06-.2c0-.16.18-.16.32-.16l.88,0a.8.8,0,0,1,.7.4c.06.09.1.16.22.19a.42.42,0,0,1,.21.27,1.91,1.91,0,0,1,.06,1.16c0,.14,0,.3-.08.44a1.15,1.15,0,0,1-1.46.73.25.25,0,0,0-.17,0,1.31,1.31,0,0,1-1.55-.44A.33.33,0,0,1,6.4,20a.6.6,0,0,0-.07-.42A1.15,1.15,0,0,1,7.27,17.86Zm-.15,1.42a.86.86,0,0,0,1.23.78c.38-.11.45-.42.16-.7C8.18,20,7.55,19.88,7.12,19.28Zm.1-1.15a.89.89,0,0,0-.59,1.44c.14,0,.18-.08.16-.22,0-.37-.06-.73.33-1C7.18,18.37,7.18,18.24,7.22,18.13ZM9,19.54l.09,0A3.35,3.35,0,0,0,9,18.81c0-.14-.18-.33-.3-.35s-.32.11-.48.17C8.58,18.87,8.9,19.09,9,19.54Zm-.79-1.29a.63.63,0,0,0-.76.35.52.52,0,0,0,.16.66C7.46,18.75,7.88,18.56,8.17,18.25Zm-.32,2.23c-.43-.07-.84-.14-.9-.69l-.23.12a.14.14,0,0,0,0,.23A1.1,1.1,0,0,0,7.85,20.48ZM9.1,18.24c-.1-.34-.33-.53-.56-.52l-.87,0s-.09.06-.14.09l0,0A1.58,1.58,0,0,1,9.1,18.24Zm-.76,2.15,0,.06a.82.82,0,0,0,1-.69,2.29,2.29,0,0,1-.46.47A2.46,2.46,0,0,1,8.34,20.39Zm1.15-1.78H9.42l-.07.84h.1A1.34,1.34,0,0,0,9.49,18.61Z"/><path d="M6.43,9.24A.41.41,0,0,1,6,8.83a.42.42,0,0,1,.83,0A.41.41,0,0,1,6.43,9.24Z"/><path d="M6.43,11.46A.41.41,0,0,1,6,11.05a.42.42,0,0,1,.4-.41.43.43,0,0,1,.43.41A.41.41,0,0,1,6.43,11.46Z"/><path d="M6.42,6.21a.42.42,0,0,1,.43.41A.43.43,0,0,1,6.43,7a.41.41,0,0,1,0-.82Z"/><path d="M19.47,13.89a5.64,5.64,0,0,1-1.32,3.54A11.64,11.64,0,0,1,14,20.54a.33.33,0,0,1-.24,0A11.2,11.2,0,0,1,9.33,17a5.3,5.3,0,0,1-1-3,2.76,2.76,0,0,1,1.82-2.54,2.75,2.75,0,0,1,1.7.15,6.55,6.55,0,0,1,1.89,1.07c.12.1.2.09.32,0a5.8,5.8,0,0,1,2.62-1.25,2.11,2.11,0,0,1,2.19.93A3,3,0,0,1,19.47,13.89Zm-1.24-.8-2.55,1.48-1.06-.87,0,.24h-.54V16.4l4.86-2.72a2.3,2.3,0,0,0-1.56-1.82Zm-8.77,0,.82-1.16A.57.57,0,0,0,10,12a2.35,2.35,0,0,0-.87,1c-.08.14-.05.21.07.29l4.41,3,.14.07V14l-.44,0,0-.42L12,14.57Zm3.89-.51c-.39-.18-.88-.46-1.4-.65a5,5,0,0,0-1.1-.16.2.2,0,0,0-.17.05c-.29.39-.57.78-.86,1.19L11,13.7V12.14l2.29.75-.09-.11Zm3.58,1,.94-.55c-.26-.36-.51-.7-.74-1a.43.43,0,0,0-.42-.21,4.73,4.73,0,0,0-2.34.94s0,0,0,0l.35.17,2.21-.73Zm-2,0v0l.69.57a.16.16,0,0,0,.15,0c.2-.1.39-.22.64-.37Zm-2.25.08v0l-1.36.25.57.33a.15.15,0,0,0,.13,0C12.26,14.05,12.48,13.86,12.7,13.67Z"/><path d="M6.74,5.39A6.78,6.78,0,0,1,8.87,4.17,2.58,2.58,0,0,1,10.32,4a2.33,2.33,0,0,1,.81.34A2.84,2.84,0,0,1,12.28,6.9,6.06,6.06,0,0,1,10.16,11,12.73,12.73,0,0,1,7,13.14a.4.4,0,0,1-.41,0,11.4,11.4,0,0,1-4.2-3.27A5.37,5.37,0,0,1,1.17,6.5,2.76,2.76,0,0,1,3,4.05a2.82,2.82,0,0,1,1.72.16A6.94,6.94,0,0,1,6.74,5.39Zm0,.28-.12-.09a6.26,6.26,0,0,0-1.76-1,2.48,2.48,0,0,0-1.59-.11,2.51,2.51,0,0,0-1.6,2.19A4.87,4.87,0,0,0,2.83,9.9a10.59,10.59,0,0,0,3.72,2.84.37.37,0,0,0,.39,0,11.94,11.94,0,0,0,2.93-2,5.93,5.93,0,0,0,1.87-3.19,2.86,2.86,0,0,0-.18-1.8A2.09,2.09,0,0,0,8.84,4.51,5.94,5.94,0,0,0,6.74,5.67Z"/><path d="M6.42,17.28a1.67,1.67,0,0,1-1.63,1.23,3.53,3.53,0,0,1-.46,0,.49.49,0,0,1-.54-.45c-.37-.18-.73-.34-1.06-.54a1,1,0,0,1-.33-.42,1.93,1.93,0,0,1,.06-1.75A2.42,2.42,0,0,1,2.73,15c0-.07-.11-.18-.16-.28s-.07-.35.13-.45a3.6,3.6,0,0,0,1-.94.94.94,0,0,1,.89-.26,3.37,3.37,0,0,1,.58.16c.06-.21.25-.19.4-.13a2.11,2.11,0,0,1,.55.31,6.09,6.09,0,0,1,.69.65,2.33,2.33,0,0,1,.24.42,2.4,2.4,0,0,1,.24.3,1.86,1.86,0,0,1,.19,1.31,1.67,1.67,0,0,1-.74,1A1.51,1.51,0,0,1,6.42,17.28Zm-2.86-.74a2.17,2.17,0,0,0,.84.65,1.1,1.1,0,0,0,1.17-.07,3.18,3.18,0,0,0,.69-.77c.22-.31.17-.46-.11-.71a.78.78,0,0,0-.69-.24.84.84,0,0,1,0,.12A.84.84,0,0,1,5,16.71a1.11,1.11,0,0,1-.74.07C4,16.72,3.81,16.63,3.56,16.54Zm.15,1.17c.23-.3.21-.32-.06-.58a2.48,2.48,0,0,1-.49-.58.9.9,0,0,1-.1-.56c0-.33,0-.46-.25-.65a1.44,1.44,0,0,0-.32,1.23C2.57,17.3,3.09,17.55,3.71,17.71Zm.7-2.57c.25-.06.43-.12.61-.15a2,2,0,0,1,.54,0,1.55,1.55,0,0,1,.51.18,3,3,0,0,1,.4.3,1.78,1.78,0,0,0-1.29-1.31.43.43,0,0,0-.53.25C4.55,14.63,4.5,14.87,4.41,15.14Zm-.27-.69a1.11,1.11,0,0,0-.71,1,1.18,1.18,0,0,0,.66,1A.93.93,0,0,0,5,16.19c-.62.16-.88,0-.93-.64A10.28,10.28,0,0,1,4.14,14.45Zm2,2.74c-.59.53-1.17.89-1.92.28-.06.14-.12.25-.16.37-.1.29,0,.44.31.45a3.39,3.39,0,0,0,.55,0,1.42,1.42,0,0,0,1.13-.75A1.81,1.81,0,0,0,6.16,17.19Zm-.77-3.45a4.65,4.65,0,0,0-.5-.32.9.9,0,0,0-1.11.27,4.94,4.94,0,0,1-.75.7c-.28.21-.3.19-.11.47a.35.35,0,0,0,.05.08C3.59,14.18,4.22,13.43,5.39,13.74ZM7.12,15a.5.5,0,0,0-.19.59.71.71,0,0,1-.21.77,1.45,1.45,0,0,0-.25.36c0,.07,0,.17,0,.26a.9.9,0,0,0,.19,0A1.46,1.46,0,0,0,7.12,15Zm-.45-.06c.2-.33.2-.45,0-.68a10,10,0,0,0-.76-.7,1,1,0,0,0-.24-.14l0,.05ZM5,15.63l0-.09c-.12,0-.24-.17-.36,0s0,.2,0,.3ZM4.74,14l0,0-.56.19.34.1.11-.13Z"/><path d="M15,10.85a1.59,1.59,0,0,1-1.37.17,2.51,2.51,0,0,1-1-.65.51.51,0,0,1-.06-.7,3.44,3.44,0,0,1-.46-1.21,1.34,1.34,0,0,1,.33-.92A3.26,3.26,0,0,1,13.1,7a3.05,3.05,0,0,1,.7-.25l0,.06.06-.28c.07-.28.19-.37.46-.3a2.66,2.66,0,0,0,1.19,0,1.13,1.13,0,0,1,1.17.57c.06.1.1.2.16.31.18-.1.31,0,.39.15a2.6,2.6,0,0,1,.21.59,7.89,7.89,0,0,1,.06,1,3.1,3.1,0,0,1-.13.55.35.35,0,0,1,0,.17A1.81,1.81,0,0,1,16.09,11a1.87,1.87,0,0,1-.53.05A4,4,0,0,1,15,10.85ZM13.48,8.43h-.06a3.88,3.88,0,0,0,0,.48,1.33,1.33,0,0,0,1.15,1.27,1.94,1.94,0,0,0,1.2-.24.33.33,0,0,0,.13-.13.88.88,0,0,0-.33-1,.86.86,0,0,1-1,.71A1.38,1.38,0,0,1,13.48,8.43Zm-.75,1c.4-.1.41-.12.36-.52a2.1,2.1,0,0,1,0-.56.72.72,0,0,1,.37-.65.47.47,0,0,0,.26-.46c0-.17-.06-.22-.21-.16a1.75,1.75,0,0,0-1.1,1.12.89.89,0,0,0,.07.73ZM15.05,7.9l0,.07a1.61,1.61,0,0,1,1.24,1.61,1.76,1.76,0,0,0-.07-1.89.43.43,0,0,0-.56-.15C15.46,7.65,15.26,7.78,15.05,7.9Zm-.32,1.19L14.58,9a.5.5,0,0,1-.23-.78,2.9,2.9,0,0,1,.48-.58,4.84,4.84,0,0,1,.48-.4,1.11,1.11,0,0,0-1.19.22,1.11,1.11,0,0,0-.2,1.12A.87.87,0,0,0,14.73,9.09Zm-1.42.44a3.87,3.87,0,0,0-.46.24.24.24,0,0,0,0,.42,4.35,4.35,0,0,0,.6.46,1.35,1.35,0,0,0,1.25.11,2.07,2.07,0,0,0,.25-.15C14.13,10.6,13.45,10.51,13.31,9.53Zm3.37-1.94a1.3,1.3,0,0,0-.31-.89.77.77,0,0,0-.63-.3,3.45,3.45,0,0,1-1.43,0,.18.18,0,0,0-.16.08,1.55,1.55,0,0,0-.06.31C15.06,6.68,16,6.52,16.68,7.59Zm.45,2c-.21,0-.4,0-.49.21a.83.83,0,0,1-.79.53,1.28,1.28,0,0,0-.27.05.29.29,0,0,0-.26.28A1.43,1.43,0,0,0,17.13,9.61Zm-.28-.38c.31-.05.42-.15.43-.41s0-.6-.05-.9a3.88,3.88,0,0,0-.11-.49H17Zm-1.71-.57,0-.08A.85.85,0,0,0,15,8.34s-.14.05-.19.11a.24.24,0,0,0,0,.16Zm.56-1.4h.37l0,0L15.55,7Z"/><path d="M7.47,18.06l.06-.2c0-.16.18-.17.32-.16l.88,0a.81.81,0,0,1,.7.4.33.33,0,0,0,.22.19.42.42,0,0,1,.21.27,1.91,1.91,0,0,1,.06,1.16c0,.14,0,.3-.08.44a1.15,1.15,0,0,1-1.46.73.25.25,0,0,0-.17,0,1.31,1.31,0,0,1-1.55-.44.38.38,0,0,1-.07-.27.6.6,0,0,0-.06-.42A1.14,1.14,0,0,1,7.47,18.06Zm-.16,1.42a.86.86,0,0,0,1.23.78c.39-.11.46-.42.17-.7C8.38,20.18,7.75,20.08,7.31,19.48Zm.11-1.15a.89.89,0,0,0-.59,1.44c.14,0,.17-.08.16-.23,0-.36-.06-.72.33-.94C7.38,18.56,7.38,18.44,7.42,18.33Zm1.73,1.41.1,0A4.17,4.17,0,0,0,9.18,19c0-.14-.18-.33-.31-.35s-.31.1-.47.17C8.78,19.07,9.1,19.29,9.15,19.74Zm-.79-1.29a.62.62,0,0,0-.75.34.52.52,0,0,0,.16.67C7.66,19,8.08,18.76,8.36,18.45Zm-.31,2.23c-.43-.07-.84-.14-.91-.69l-.22.12a.12.12,0,0,0,0,.22A1.09,1.09,0,0,0,8.05,20.68ZM9.3,18.43c-.1-.33-.33-.52-.56-.51l-.87,0s-.1.06-.14.09l0,.05A1.56,1.56,0,0,1,9.3,18.43Zm-.76,2.16,0,.06a.83.83,0,0,0,1-.69,2,2,0,0,1-.46.46A2.17,2.17,0,0,1,8.54,20.59ZM9.68,18.8H9.61l-.07.84h.11A1.3,1.3,0,0,0,9.68,18.8Z"/><path d="M6.63,9.44a.41.41,0,1,1,0-.81.41.41,0,1,1,0,.81Z"/><path d="M6.63,11.65a.41.41,0,0,1-.42-.41.44.44,0,0,1,.41-.4.43.43,0,0,1,.43.41A.41.41,0,0,1,6.63,11.65Z"/><path d="M6.62,6.41a.42.42,0,0,1,.43.41.43.43,0,0,1-.42.41.42.42,0,0,1-.41-.4A.41.41,0,0,1,6.62,6.41Z"/></g><g class="cls-3"><path d="M19.13,13.55a5.64,5.64,0,0,1-1.32,3.54A11.64,11.64,0,0,1,13.7,20.2a.33.33,0,0,1-.24,0A11.2,11.2,0,0,1,9,16.65a5.3,5.3,0,0,1-1-3,2.76,2.76,0,0,1,1.82-2.54,2.75,2.75,0,0,1,1.7.15,6.55,6.55,0,0,1,1.89,1.07c.12.1.2.09.32,0A5.8,5.8,0,0,1,16.35,11a2.11,2.11,0,0,1,2.19.93A3,3,0,0,1,19.13,13.55Zm-1.24-.8-2.55,1.48-1.06-.87,0,.24h-.54v2.46l4.86-2.72A2.3,2.3,0,0,0,17,11.52Zm-8.77,0,.82-1.16a.57.57,0,0,0-.26.08,2.35,2.35,0,0,0-.87,1c-.08.14-.05.21.07.29l4.41,3,.14.07V13.61l-.44,0,0-.42-1.31,1.07ZM13,12.24c-.39-.18-.88-.46-1.4-.65a5,5,0,0,0-1.1-.16.2.2,0,0,0-.17.05c-.29.39-.57.78-.86,1.19l1.18.69V11.8l2.29.75-.09-.11Zm3.58,1,.94-.55c-.26-.36-.51-.7-.74-1.05a.43.43,0,0,0-.42-.21,4.73,4.73,0,0,0-2.34.94s0,0,0,0l.35.17,2.21-.73Zm-2,0v0l.69.57a.16.16,0,0,0,.15,0c.2-.1.39-.22.64-.37Zm-2.25.08v0L11,13.55l.57.33a.15.15,0,0,0,.13,0C11.92,13.71,12.14,13.52,12.36,13.33Z"/><path d="M6.4,5.05A6.78,6.78,0,0,1,8.53,3.83,2.58,2.58,0,0,1,10,3.68a2.33,2.33,0,0,1,.81.34,2.84,2.84,0,0,1,1.15,2.54,6.06,6.06,0,0,1-2.12,4.06A12.73,12.73,0,0,1,6.61,12.8a.4.4,0,0,1-.41,0A11.4,11.4,0,0,1,2,9.53,5.37,5.37,0,0,1,.83,6.16,2.74,2.74,0,0,1,2.67,3.71a2.82,2.82,0,0,1,1.72.16A6.94,6.94,0,0,1,6.4,5.05Zm0,.28-.12-.09a6.26,6.26,0,0,0-1.76-1,2.48,2.48,0,0,0-1.59-.11,2.51,2.51,0,0,0-1.6,2.19A4.87,4.87,0,0,0,2.49,9.56,10.59,10.59,0,0,0,6.21,12.4a.37.37,0,0,0,.39,0,11.94,11.94,0,0,0,2.93-2A5.93,5.93,0,0,0,11.4,7.22a2.86,2.86,0,0,0-.18-1.8A2.09,2.09,0,0,0,8.5,4.17,5.94,5.94,0,0,0,6.4,5.33Z"/><path d="M6.08,16.94a1.67,1.67,0,0,1-1.63,1.23,3.53,3.53,0,0,1-.46,0,.49.49,0,0,1-.54-.45c-.37-.18-.73-.34-1.06-.54a1,1,0,0,1-.33-.42A1.9,1.9,0,0,1,2.12,15a2.42,2.42,0,0,1,.27-.32c0-.07-.11-.18-.16-.28s-.07-.35.13-.45a3.6,3.6,0,0,0,1-.94.94.94,0,0,1,.89-.26,3.37,3.37,0,0,1,.58.16c.06-.21.25-.19.4-.13a2.29,2.29,0,0,1,.55.31,6.09,6.09,0,0,1,.69.65,2.33,2.33,0,0,1,.24.42,2.4,2.4,0,0,1,.24.3,1.86,1.86,0,0,1,.19,1.31,1.67,1.67,0,0,1-.74,1A1.51,1.51,0,0,1,6.08,16.94ZM3.22,16.2a2.17,2.17,0,0,0,.84.65,1.1,1.1,0,0,0,1.17-.07A3.18,3.18,0,0,0,5.92,16c.22-.31.17-.46-.11-.71a.78.78,0,0,0-.69-.24l0,.12a.84.84,0,0,1-.51,1.19,1.11,1.11,0,0,1-.74.07C3.69,16.38,3.47,16.29,3.22,16.2Zm.15,1.17c.23-.3.21-.32-.06-.58a2.26,2.26,0,0,1-.49-.58.9.9,0,0,1-.1-.56c0-.33,0-.46-.25-.65a1.44,1.44,0,0,0-.32,1.23C2.23,17,2.75,17.21,3.37,17.37Zm.7-2.57c.25-.06.43-.12.6-.15a2,2,0,0,1,.55,0,1.55,1.55,0,0,1,.51.18,3,3,0,0,1,.4.3,1.78,1.78,0,0,0-1.29-1.31.43.43,0,0,0-.53.25C4.21,14.29,4.16,14.53,4.07,14.8Zm-.27-.69a1.11,1.11,0,0,0-.71,1,1.18,1.18,0,0,0,.66,1,.93.93,0,0,0,.92-.19c-.62.16-.88,0-.93-.64A10.28,10.28,0,0,1,3.8,14.11Zm2,2.74c-.59.53-1.17.89-1.92.28-.06.14-.12.25-.16.37-.1.29,0,.44.31.45a3.39,3.39,0,0,0,.55,0,1.42,1.42,0,0,0,1.13-.75A1.81,1.81,0,0,0,5.82,16.85ZM5.05,13.4a4.65,4.65,0,0,0-.5-.32.9.9,0,0,0-1.11.27,4.94,4.94,0,0,1-.75.7c-.28.21-.3.19-.11.47a.35.35,0,0,0,0,.08C3.25,13.84,3.88,13.09,5.05,13.4Zm1.73,1.25a.5.5,0,0,0-.19.59.71.71,0,0,1-.21.77,1.83,1.83,0,0,0-.26.36c0,.07,0,.17,0,.26a.9.9,0,0,0,.19,0A1.46,1.46,0,0,0,6.78,14.65Zm-.45-.06c.2-.33.2-.45,0-.68a10,10,0,0,0-.76-.7,1,1,0,0,0-.24-.14l0,0Zm-1.67.7,0-.09c-.12,0-.24-.17-.36,0s0,.2,0,.3ZM4.4,13.61l0,0-.56.19.34.1.11-.13Z"/><path d="M14.69,10.51a1.59,1.59,0,0,1-1.37.17,2.51,2.51,0,0,1-1-.65.51.51,0,0,1-.06-.7,3.44,3.44,0,0,1-.46-1.21,1.34,1.34,0,0,1,.33-.92,3.26,3.26,0,0,1,.65-.58,3.05,3.05,0,0,1,.7-.25l0,.06.06-.28c.07-.28.19-.37.46-.3a2.66,2.66,0,0,0,1.19,0,1.13,1.13,0,0,1,1.17.57c.06.1.1.2.16.31.18-.1.31,0,.39.15a2.6,2.6,0,0,1,.21.59,7.89,7.89,0,0,1,.06,1,3.1,3.1,0,0,1-.13.55.35.35,0,0,1,0,.17,1.81,1.81,0,0,1-1.35,1.46,1.87,1.87,0,0,1-.53.05A4,4,0,0,1,14.69,10.51ZM13.14,8.09h-.06a3.88,3.88,0,0,0,0,.48,1.33,1.33,0,0,0,1.15,1.27,1.94,1.94,0,0,0,1.2-.24.33.33,0,0,0,.13-.13.88.88,0,0,0-.33-1,.86.86,0,0,1-1,.71A1.38,1.38,0,0,1,13.14,8.09ZM12.39,9c.4-.1.41-.12.36-.52a2.1,2.1,0,0,1,0-.56.72.72,0,0,1,.37-.65.47.47,0,0,0,.26-.46c0-.17-.06-.22-.21-.16a1.75,1.75,0,0,0-1.1,1.12.89.89,0,0,0,.07.73C12.22,8.71,12.3,8.87,12.39,9Zm2.32-1.48,0,.07A1.61,1.61,0,0,1,16,9.24a1.76,1.76,0,0,0-.07-1.89.43.43,0,0,0-.56-.15C15.12,7.31,14.92,7.44,14.71,7.56Zm-.32,1.19-.15-.08A.5.5,0,0,1,14,7.89a2.9,2.9,0,0,1,.48-.58,4.84,4.84,0,0,1,.48-.4,1.11,1.11,0,0,0-1.19.22,1.11,1.11,0,0,0-.2,1.12A.87.87,0,0,0,14.39,8.75ZM13,9.19a3.87,3.87,0,0,0-.46.24.24.24,0,0,0,0,.42,4.35,4.35,0,0,0,.6.46,1.35,1.35,0,0,0,1.25.11,2.07,2.07,0,0,0,.25-.15C13.79,10.26,13.11,10.17,13,9.19Zm3.37-1.94A1.3,1.3,0,0,0,16,6.36a.77.77,0,0,0-.63-.3,3.45,3.45,0,0,1-1.43,0,.18.18,0,0,0-.16.08,1.42,1.42,0,0,0-.06.31C14.72,6.34,15.68,6.18,16.34,7.25Zm.45,2c-.21,0-.4,0-.49.21a.83.83,0,0,1-.79.53,1.28,1.28,0,0,0-.27.05.29.29,0,0,0-.26.28A1.43,1.43,0,0,0,16.79,9.27Zm-.28-.38c.31-.05.42-.15.43-.41s0-.6-.05-.9a3.88,3.88,0,0,0-.11-.49H16.7ZM14.8,8.32l0-.08A.85.85,0,0,0,14.62,8s-.14.05-.19.11a.24.24,0,0,0,0,.16Zm.56-1.4h.37l0,0-.54-.23Z"/><path d="M7.13,17.72l.06-.2c0-.16.18-.17.32-.16l.88,0a.81.81,0,0,1,.7.4.33.33,0,0,0,.22.19.42.42,0,0,1,.21.27,1.91,1.91,0,0,1,.06,1.16c0,.14,0,.3-.08.44A1.15,1.15,0,0,1,8,20.53a.25.25,0,0,0-.17,0,1.31,1.31,0,0,1-1.55-.44.38.38,0,0,1-.07-.27.6.6,0,0,0-.06-.42A1.14,1.14,0,0,1,7.13,17.72ZM7,19.14a.87.87,0,0,0,1.23.78c.39-.11.46-.42.17-.7C8,19.84,7.41,19.74,7,19.14ZM7.08,18a.89.89,0,0,0-.59,1.44c.14,0,.17-.08.16-.23,0-.36-.06-.72.33-.94C7,18.22,7,18.1,7.08,18ZM8.81,19.4l.1,0a4.17,4.17,0,0,0-.07-.71c0-.14-.18-.33-.31-.35s-.31.1-.47.17C8.44,18.73,8.76,19,8.81,19.4ZM8,18.11a.62.62,0,0,0-.75.34.52.52,0,0,0,.16.67C7.32,18.61,7.74,18.41,8,18.11Zm-.31,2.23c-.43-.07-.84-.14-.91-.69-.09.05-.16.07-.22.11s-.12.14,0,.23A1.09,1.09,0,0,0,7.71,20.34ZM9,18.09c-.1-.33-.33-.52-.56-.51l-.87,0s-.1.06-.14.09l0,.05A1.56,1.56,0,0,1,9,18.09ZM8.2,20.25l0,.06a.83.83,0,0,0,1-.69,2,2,0,0,1-.46.46A2.28,2.28,0,0,1,8.2,20.25Zm1.14-1.79H9.27l-.07.84h.11A1.3,1.3,0,0,0,9.34,18.46Z"/><path d="M6.29,9.1a.41.41,0,1,1,0-.81.41.41,0,1,1,0,.81Z"/><path d="M6.29,11.31a.41.41,0,0,1-.42-.41.44.44,0,0,1,.41-.4.43.43,0,0,1,.43.41A.41.41,0,0,1,6.29,11.31Z"/><path d="M6.28,6.07a.42.42,0,0,1,.43.41.43.43,0,0,1-.42.41.42.42,0,0,1-.41-.4A.41.41,0,0,1,6.28,6.07Z"/></g><path class="cls-4" d="M19.33,13.75A5.59,5.59,0,0,1,18,17.28a11.41,11.41,0,0,1-4.11,3.11.29.29,0,0,1-.24,0,11.09,11.09,0,0,1-4.47-3.55,5.22,5.22,0,0,1-1-3A2.77,2.77,0,0,1,10,11.27a2.75,2.75,0,0,1,1.7.16,6.32,6.32,0,0,1,1.89,1.07c.12.1.19.08.32,0a5.6,5.6,0,0,1,2.62-1.25,2.08,2.08,0,0,1,2.18.93A3,3,0,0,1,19.33,13.75ZM18.08,13l-2.54,1.48-1.06-.87,0,.24H13.9v2.46l4.86-2.72a2.31,2.31,0,0,0-1.55-1.83ZM9.32,13l.82-1.16a.5.5,0,0,0-.26.08,2.38,2.38,0,0,0-.88,1c-.07.14,0,.2.08.29l4.4,3,.15.08V13.81l-.44,0,0-.42-1.31,1.07Zm3.89-.51c-.39-.18-.88-.46-1.41-.65a5.51,5.51,0,0,0-1.09-.17.24.24,0,0,0-.17.06c-.29.38-.57.78-.86,1.19l1.18.68V12l2.28.75-.08-.11Zm3.58,1,.94-.55c-.26-.36-.51-.7-.75-1a.4.4,0,0,0-.41-.21,4.73,4.73,0,0,0-2.34.94s0,0,0,0l.35.16L16.79,12Zm-2,0,0,0c.24.19.46.39.7.57a.14.14,0,0,0,.14,0c.21-.1.4-.22.65-.37Zm-2.25.08,0,0-1.36.24.58.34s.1,0,.12,0Z"/><path class="cls-4" d="M6.6,5.25A6.38,6.38,0,0,1,8.73,4a2.57,2.57,0,0,1,1.45-.15,2.33,2.33,0,0,1,.81.34,2.85,2.85,0,0,1,1.15,2.54A6.09,6.09,0,0,1,10,10.82,12.76,12.76,0,0,1,6.81,13a.42.42,0,0,1-.42,0A11.37,11.37,0,0,1,2.2,9.72,5.33,5.33,0,0,1,1,6.35,2.77,2.77,0,0,1,2.87,3.9a2.82,2.82,0,0,1,1.72.17A6.94,6.94,0,0,1,6.6,5.25Zm0,.28-.11-.09a5.81,5.81,0,0,0-1.76-1,2.58,2.58,0,0,0-1.6-.12,2.54,2.54,0,0,0-1.59,2.2A4.82,4.82,0,0,0,2.69,9.75,10.67,10.67,0,0,0,6.4,12.6a.43.43,0,0,0,.4,0,11.47,11.47,0,0,0,2.92-2A5.84,5.84,0,0,0,11.6,7.41a2.84,2.84,0,0,0-.19-1.79A2.07,2.07,0,0,0,8.7,4.37,6,6,0,0,0,6.59,5.53Z"/><path class="cls-4" d="M6.28,17.13a1.67,1.67,0,0,1-1.63,1.24,3.53,3.53,0,0,1-.46,0,.49.49,0,0,1-.54-.45c-.37-.19-.73-.34-1.06-.54A1,1,0,0,1,2.25,17a1.93,1.93,0,0,1,.07-1.75,1.91,1.91,0,0,1,.27-.32c0-.08-.11-.18-.16-.28s-.07-.35.13-.45a3.59,3.59,0,0,0,1-.95,1,1,0,0,1,.9-.26c.19,0,.38.11.58.16.06-.2.25-.18.4-.12a2.26,2.26,0,0,1,.55.3A7.06,7.06,0,0,1,6.7,14a2.43,2.43,0,0,1,.25.42,1.84,1.84,0,0,1,.24.3A1.86,1.86,0,0,1,7.38,16a1.67,1.67,0,0,1-.74,1A1.69,1.69,0,0,1,6.28,17.13ZM3.42,16.4a2.2,2.2,0,0,0,.84.65A1.12,1.12,0,0,0,5.43,17a3.37,3.37,0,0,0,.69-.77c.22-.31.17-.46-.11-.71a.82.82,0,0,0-.69-.25l0,.12a.84.84,0,0,1-.51,1.2,1.14,1.14,0,0,1-.75.07Zm.14,1.17c.23-.3.22-.32-.05-.58A2.44,2.44,0,0,1,3,16.41a.91.91,0,0,1-.1-.56c.05-.33,0-.46-.25-.65a1.41,1.41,0,0,0-.32,1.23C2.42,17.16,3,17.41,3.56,17.57ZM4.27,15c.25-.06.42-.12.6-.15a2,2,0,0,1,.55,0,1.42,1.42,0,0,1,.51.18,3,3,0,0,1,.4.3A1.78,1.78,0,0,0,5,14a.42.42,0,0,0-.53.25A5.68,5.68,0,0,0,4.27,15ZM4,14.31a1.11,1.11,0,0,0-.71.95,1.18,1.18,0,0,0,.66,1,.94.94,0,0,0,.92-.2c-.62.17-.88,0-.93-.63A8.2,8.2,0,0,1,4,14.31ZM6,17c-.59.54-1.17.9-1.92.28-.06.15-.12.26-.16.38-.1.29,0,.44.31.44a3.38,3.38,0,0,0,.55,0,1.42,1.42,0,0,0,1.13-.76A1.4,1.4,0,0,0,6,17ZM5.25,13.6a3.94,3.94,0,0,0-.51-.32.89.89,0,0,0-1.1.27,4.58,4.58,0,0,1-.76.7c-.27.21-.29.18-.11.47l.06.07C3.45,14,4.07,13.29,5.25,13.6ZM7,14.85a.51.51,0,0,0-.2.59.69.69,0,0,1-.2.77,1.83,1.83,0,0,0-.26.36c0,.06,0,.17,0,.25a.58.58,0,0,0,.19,0A1.46,1.46,0,0,0,7,14.85Zm-.45-.07c.2-.32.2-.44,0-.68s-.5-.47-.76-.7a1.12,1.12,0,0,0-.24-.13l0,.05Zm-1.67.71,0-.09c-.12-.05-.25-.17-.36,0s0,.2,0,.3ZM4.6,13.81l0,0L4,14l.34.1.11-.13Z"/><path class="cls-4" d="M14.89,10.71a1.59,1.59,0,0,1-1.37.17,2.45,2.45,0,0,1-1-.65.5.5,0,0,1-.06-.7A3.42,3.42,0,0,1,12,8.31a1.28,1.28,0,0,1,.33-.91A3.31,3.31,0,0,1,13,6.81a3.74,3.74,0,0,1,.69-.24l0,.06.06-.29c.07-.27.19-.37.46-.29A2.66,2.66,0,0,0,15.4,6a1.13,1.13,0,0,1,1.17.57,3,3,0,0,1,.15.31.26.26,0,0,1,.39.15,2.19,2.19,0,0,1,.21.59,5.27,5.27,0,0,1,.06,1,2.19,2.19,0,0,1-.12.54.43.43,0,0,1,0,.17A1.82,1.82,0,0,1,16,10.81a1.6,1.6,0,0,1-.53,0A2.8,2.8,0,0,1,14.89,10.71ZM13.34,8.28h-.07c0,.17,0,.33,0,.49A1.35,1.35,0,0,0,14.47,10a2,2,0,0,0,1.2-.24.33.33,0,0,0,.13-.13.9.9,0,0,0-.33-1,.88.88,0,0,1-1,.72A1.37,1.37,0,0,1,13.34,8.28Zm-.75,1c.4-.1.41-.12.36-.52a2.18,2.18,0,0,1,0-.57.72.72,0,0,1,.36-.64A.47.47,0,0,0,13.58,7c0-.17-.06-.21-.22-.16A1.84,1.84,0,0,0,12.26,8a.9.9,0,0,0,.08.73ZM14.9,7.76l0,.07a1.59,1.59,0,0,1,1.24,1.61,1.76,1.76,0,0,0-.06-1.89.44.44,0,0,0-.56-.15C15.32,7.5,15.11,7.64,14.9,7.76ZM14.59,9l-.15-.08a.5.5,0,0,1-.23-.78,2.9,2.9,0,0,1,.48-.58,3.77,3.77,0,0,1,.48-.4A1.13,1.13,0,0,0,14,7.32a1.13,1.13,0,0,0-.21,1.13A.9.9,0,0,0,14.59,9Zm-1.42.44a3.87,3.87,0,0,0-.46.24.24.24,0,0,0,0,.42,3.82,3.82,0,0,0,.6.46,1.35,1.35,0,0,0,1.25.11,2,2,0,0,0,.24-.16C14,10.46,13.31,10.37,13.17,9.39Zm3.37-1.95a1.3,1.3,0,0,0-.32-.88.75.75,0,0,0-.62-.3,3.45,3.45,0,0,1-1.43,0c-.05,0-.15,0-.16.07a1.65,1.65,0,0,0-.07.32C14.92,6.54,15.88,6.38,16.54,7.44Zm.45,2c-.21,0-.4,0-.49.21a.83.83,0,0,1-.79.53,1.28,1.28,0,0,0-.27,0,.29.29,0,0,0-.26.28A1.44,1.44,0,0,0,17,9.47Zm-.28-.39c.31-.05.42-.14.43-.4s0-.61-.05-.91A4.21,4.21,0,0,0,17,7.29H16.9ZM15,8.52l0-.09a1,1,0,0,0-.22-.23s-.14.05-.2.1a.26.26,0,0,0,0,.17Zm.57-1.4h.37v0l-.53-.23Z"/><path class="cls-4" d="M7.33,17.92a1.52,1.52,0,0,1,.06-.2c.05-.16.17-.17.32-.17s.59,0,.88,0a.76.76,0,0,1,.69.4.42.42,0,0,0,.22.19c.09,0,.18.16.22.26a1.92,1.92,0,0,1,.06,1.16c0,.15,0,.31-.08.44a1.14,1.14,0,0,1-1.46.73.34.34,0,0,0-.17,0,1.34,1.34,0,0,1-1.55-.44A.38.38,0,0,1,6.45,20a.55.55,0,0,0-.07-.42A1.15,1.15,0,0,1,7.33,17.92Zm-.16,1.42a.86.86,0,0,0,1.23.77c.38-.11.46-.41.17-.69C8.24,20,7.61,19.93,7.17,19.34Zm.1-1.15a.89.89,0,0,0-.59,1.44c.15,0,.18-.09.17-.23,0-.36-.06-.72.33-.94C7.24,18.42,7.24,18.29,7.27,18.19ZM9,19.6l.1,0A4.07,4.07,0,0,0,9,18.87c0-.14-.18-.33-.31-.35s-.31.1-.47.17C8.64,18.92,9,19.15,9,19.6Zm-.79-1.29a.62.62,0,0,0-.75.34.52.52,0,0,0,.16.67C7.52,18.81,7.94,18.61,8.22,18.31Zm-.31,2.23c-.43-.08-.85-.15-.91-.69L6.77,20a.14.14,0,0,0,0,.23A1.11,1.11,0,0,0,7.91,20.54Zm1.24-2.25c-.1-.33-.33-.53-.55-.51s-.58,0-.87,0c-.05,0-.1.07-.14.1l0,.05A1.55,1.55,0,0,1,9.15,18.29ZM8.4,20.45v.06a.83.83,0,0,0,1-.69c-.18.18-.29.37-.46.46A2.77,2.77,0,0,1,8.4,20.45Zm1.14-1.79H9.47l-.07.85h.11A1.37,1.37,0,0,0,9.54,18.66Z"/><path class="cls-4" d="M6.49,9.3a.41.41,0,1,1,0-.81.41.41,0,0,1,.43.4A.41.41,0,0,1,6.49,9.3Z"/><path class="cls-4" d="M6.49,11.51a.41.41,0,0,1-.42-.41.42.42,0,0,1,.84,0A.41.41,0,0,1,6.49,11.51Z"/><path class="cls-4" d="M6.48,6.27a.42.42,0,0,1,.43.4.44.44,0,0,1-.42.42.43.43,0,0,1-.42-.4A.42.42,0,0,1,6.48,6.27Z"/></g></g></svg>