<svg xmlns="http://www.w3.org/2000/svg" viewBox="0 0 38.55 24.66"><defs><style>.cls-1{isolation:isolate;}.cls-2{opacity:0.15;}.cls-2,.cls-3{mix-blend-mode:multiply;}.cls-4{fill:#fff;}</style></defs><title>convert-CUSTOMIZE-SVG-03</title><g class="cls-1"><g id="Layer_1" data-name="Layer 1"><g class="cls-2"><path d="M4.82,10.44a3.45,3.45,0,0,1-.63-2A4.24,4.24,0,0,1,5.27,5.83a3.73,3.73,0,0,1,.26-.3A1.33,1.33,0,0,0,6,4.82a1.26,1.26,0,0,1,1-1c.35-.1.79.37.72.74v.1c.34.1.67.18,1,.3a3,3,0,0,1,1.66,1.34.53.53,0,0,0,.2.16,2.72,2.72,0,0,1,1,.79,1.33,1.33,0,0,1,.14,1.33,5.52,5.52,0,0,1-.26.55,1.38,1.38,0,0,1-1,.84l-.15.06,0,0,0,.06,2.64-.6a2.34,2.34,0,0,1,.21-2A2.37,2.37,0,0,1,14.82,6.4l-.46-.81a.3.3,0,0,1,.26-.45h1c.27,0,.35.14.23.37l-.44.89a2.38,2.38,0,0,1,1.84,1.5,2.29,2.29,0,0,1,0,1.65,2.39,2.39,0,0,1-3,1.46c0,.11-.07.22-.12.33a2.09,2.09,0,0,1-.82.94c-.52.33-1.07.6-1.61.89-.13.07-.27.12-.38.17.06.56.13,1.1.16,1.65a3.05,3.05,0,0,1-.34,1.59.8.8,0,0,0,1-.13,2.76,2.76,0,0,1,.76-.61,1.16,1.16,0,0,1,1.69.82,3.59,3.59,0,0,1,0,1.18,14.09,14.09,0,0,1-.32,1.57,1.2,1.2,0,0,1-1.16.92,4,4,0,0,1-1-.1c-.48-.08-1-.22-1.45-.27a9.24,9.24,0,0,1-2.43-.62c-.13-.06-.28-.17-.42,0a.56.56,0,0,0-.13.63,3.78,3.78,0,0,1,.29.9,1.43,1.43,0,0,1-1.76,1.61A3.86,3.86,0,0,1,4.21,21a1.45,1.45,0,0,1-.15-1.37,5.49,5.49,0,0,1,1.25-2l.16-.16a5.51,5.51,0,0,1-.56-3.34,1.55,1.55,0,0,0-.23,0,9.79,9.79,0,0,1-2.3.62,1.91,1.91,0,0,1-1.44-.38.86.86,0,0,1-.31-1,1.87,1.87,0,0,1,.69-1A11.81,11.81,0,0,1,4.68,10.5Zm5.86-.73a3.61,3.61,0,0,0,.38-.42,4.22,4.22,0,0,0,.34-.67.56.56,0,0,0,0-.34c0-.23-.12-.45-.13-.68a.49.49,0,0,0-.18-.4A1.57,1.57,0,0,0,10.87,7a3.12,3.12,0,0,1-1-.93A3.13,3.13,0,0,0,8,5L7.68,5l-.26,1.6-.25-.12A2.91,2.91,0,0,0,7.3,5.2a1,1,0,0,1,.14-.58c.08-.16.07-.26-.07-.36L7.2,4.14a.17.17,0,0,0-.28.08,2.19,2.19,0,0,0-.14.5A4.5,4.5,0,0,0,7,6.47c0,.1.06.2.09.32s-.18.06-.22,0a1.64,1.64,0,0,1-.4-.34c-.22-.31-.4-.64-.6-1A5.51,5.51,0,0,0,4.82,7,3.1,3.1,0,0,0,5,10.21a.23.23,0,0,0,.3.11,7.58,7.58,0,0,1,.83-.15c.29,0,.59,0,.89-.05A6.15,6.15,0,0,1,6.87,7h.21C7,7.62,7,8.21,7,8.79A2.38,2.38,0,0,0,7.2,10a.4.4,0,0,0,.3.23c.33.06.64.17,1,.25a.57.57,0,0,0,.29,0c.55-.22,1.08-.46,1.59-.68-.08-.28-.19-.55-.24-.82a7,7,0,0,1,0-2c0-.21,0-.22.26-.13a1.77,1.77,0,0,0,0,.23c0,.56-.05,1.13,0,1.69A1.58,1.58,0,0,0,10.68,9.71ZM5.42,13.82v0c.8,0,1.6,0,2.4,0A1.24,1.24,0,0,0,9,13a2.86,2.86,0,0,0,.19-1.16,1.18,1.18,0,0,0-.66-1.1,2.52,2.52,0,0,0-.66-.26,5.2,5.2,0,0,0-2.82.12,11,11,0,0,0-3.67,2,2.08,2.08,0,0,0-.51.76.64.64,0,0,0,.33.89,1.7,1.7,0,0,0,1.18.24,7.61,7.61,0,0,0,3.25-1.19l.17-.11.14.19Zm8.89,2.61A.9.9,0,0,0,13,16.08a2.72,2.72,0,0,0-.62.5,1,1,0,0,1-1.07.34c-.63-.16-1.27-.31-1.91-.45a5,5,0,0,0-1.72-.15.91.91,0,0,0-.89.83A1.55,1.55,0,0,0,7.89,18.9c.4.16.81.31,1.22.44a8.44,8.44,0,0,0,1.1.28,17.06,17.06,0,0,1,2.35.44,2.11,2.11,0,0,0,.83,0c.34-.06.37-.12.41-.45.08-.85.15-1.7.24-2.55C14.06,16.82,14.06,16.56,14.31,16.43ZM6.68,18.17a4.08,4.08,0,0,1-.12-.65c0-.78.28-1.37,1.12-1.44a4.6,4.6,0,0,1,1.05,0c.68.11,1.34.26,2,.41.15,0,.24,0,.27-.13a5.3,5.3,0,0,0,.26-1.08,7.53,7.53,0,0,0-.8-3.6l-.11-.17a1.38,1.38,0,0,1,0,.25,1.75,1.75,0,0,1-.16.25c0-.08-.12-.14-.17-.22-.13-.23-.25-.48-.38-.73l-.28.18a2.65,2.65,0,0,1,.06,1.31,1.67,1.67,0,0,1-1.85,1.55c-.54,0-1.09,0-1.63,0H5.14c0,.45,0,.88,0,1.31a3.87,3.87,0,0,0,.58,2A2.08,2.08,0,0,0,6.68,18.17Zm-1-.47A4.85,4.85,0,0,0,4.24,20a1.14,1.14,0,0,0,.18,1,3.93,3.93,0,0,0,2,1.35,1.07,1.07,0,0,0,1.38-.69,1.47,1.47,0,0,0-.12-1.41.74.74,0,0,1,0-.85l.09-.13L7,18.56a.24.24,0,0,0-.08-.06A2.36,2.36,0,0,1,5.64,17.7ZM17,8.71a1.88,1.88,0,0,0-1.9-1.88,1.93,1.93,0,0,0-1.93,1.9,2,2,0,0,0,1.92,1.92A1.92,1.92,0,0,0,17,8.71Zm-5.67,4.41,1.53-.73c-.92-.56-1.39-1.26-1-2.3l-1.62.32ZM6.59,4.36c-.65.39-.55,1.27.14,2A4.17,4.17,0,0,1,6.59,4.36Zm2.79,6.1-.5.2.37.37.27-.18Zm.58-.1-.25.31L10,11C10.19,10.74,10,10.57,10,10.36Z"/><path d="M9.68,7.1a.71.71,0,0,1,0,.2c0,.06-.11.16-.13.15a.29.29,0,0,1-.2-.15,3.62,3.62,0,0,1-.09-.66c0-.14.09-.17.22-.09A.59.59,0,0,1,9.68,7.1Z"/><path d="M7.9,12.55A.56.56,0,0,1,7.29,12a.62.62,0,0,1,1.23,0A.57.57,0,0,1,7.9,12.55Z"/><path d="M8.54,17.87a.42.42,0,0,1-.46.42.64.64,0,0,1-.61-.56.43.43,0,0,1,.46-.42A.62.62,0,0,1,8.54,17.87Z"/><path d="M5,10.64a3.47,3.47,0,0,1-.63-2A4.24,4.24,0,0,1,5.47,6a3.73,3.73,0,0,1,.26-.3A1.26,1.26,0,0,0,6.15,5a1.29,1.29,0,0,1,1-.95c.36-.1.79.37.73.73v.11c.34.1.67.18,1,.29a3,3,0,0,1,1.67,1.34.42.42,0,0,0,.2.17,2.6,2.6,0,0,1,1,.79,1.33,1.33,0,0,1,.15,1.33c-.08.19-.17.37-.26.55a1.4,1.4,0,0,1-1,.84l-.16.06,0,0,0,.06,2.63-.6A2.4,2.4,0,0,1,15,6.6l-.46-.81a.3.3,0,0,1,.26-.45h1c.27,0,.35.13.23.37s-.29.58-.45.89a2.39,2.39,0,0,1,1.85,1.49,2.32,2.32,0,0,1,0,1.66,2.39,2.39,0,0,1-3,1.46l-.12.32a2.12,2.12,0,0,1-.82,1c-.52.32-1.07.6-1.61.89-.13.07-.27.12-.38.17.06.56.13,1.1.16,1.65a3.05,3.05,0,0,1-.34,1.59.79.79,0,0,0,1-.13,3.23,3.23,0,0,1,.77-.62,1.16,1.16,0,0,1,1.69.83,3.59,3.59,0,0,1,0,1.18,12.17,12.17,0,0,1-.33,1.57,1.18,1.18,0,0,1-1.15.92,3.92,3.92,0,0,1-1-.1c-.48-.08-1-.22-1.45-.27a9.24,9.24,0,0,1-2.43-.62c-.14-.06-.28-.17-.43,0A.59.59,0,0,0,8,20.2a4.11,4.11,0,0,1,.29.9,1.43,1.43,0,0,1-1.76,1.61,3.86,3.86,0,0,1-2.14-1.47,1.47,1.47,0,0,1-.15-1.38,5.54,5.54,0,0,1,1.25-2c0-.06.11-.11.15-.17a5.47,5.47,0,0,1-.55-3.33,1.55,1.55,0,0,0-.23.05,9.79,9.79,0,0,1-2.3.62,1.94,1.94,0,0,1-1.44-.38.86.86,0,0,1-.31-1,1.82,1.82,0,0,1,.68-1,12.14,12.14,0,0,1,3.37-1.93Zm5.86-.73a2.79,2.79,0,0,0,.37-.42,3.56,3.56,0,0,0,.35-.67.65.65,0,0,0,0-.34,5.43,5.43,0,0,1-.13-.68.52.52,0,0,0-.18-.41,2.31,2.31,0,0,0-.24-.2,3.12,3.12,0,0,1-1-.93,3.13,3.13,0,0,0-1.86-1l-.31,0-.26,1.6-.25-.12A2.91,2.91,0,0,0,7.5,5.4a1,1,0,0,1,.14-.58c.08-.16.07-.26-.07-.36l-.18-.12a.16.16,0,0,0-.27.08,2.19,2.19,0,0,0-.14.5,4.53,4.53,0,0,0,.24,1.75c0,.1.06.2.09.32s-.18,0-.22,0a1.64,1.64,0,0,1-.4-.34c-.22-.31-.4-.64-.6-1A5.41,5.41,0,0,0,5,7.15a3.11,3.11,0,0,0,.14,3.26.22.22,0,0,0,.29.11,6.32,6.32,0,0,1,.83-.15c.3,0,.6,0,.9,0a6.15,6.15,0,0,1-.11-3.1h.21c0,.6-.09,1.18-.11,1.77a2.5,2.5,0,0,0,.23,1.17.4.4,0,0,0,.3.23c.32.06.64.17,1,.25a.57.57,0,0,0,.29,0L10.54,10c-.08-.28-.19-.55-.25-.83a7.34,7.34,0,0,1,0-2c0-.21,0-.22.26-.13a1.77,1.77,0,0,0,0,.23c0,.56,0,1.13,0,1.69A1.58,1.58,0,0,0,10.88,9.91ZM5.62,14v.05c.8,0,1.6,0,2.4,0a1.24,1.24,0,0,0,1.19-.83,2.86,2.86,0,0,0,.19-1.16A1.17,1.17,0,0,0,8.75,11a2.28,2.28,0,0,0-.67-.26,5.3,5.3,0,0,0-2.82.11A11,11,0,0,0,1.6,12.88a2,2,0,0,0-.51.76.64.64,0,0,0,.33.89,1.7,1.7,0,0,0,1.18.24,7.53,7.53,0,0,0,3.24-1.19L6,13.46l.14.2Zm8.89,2.61a.9.9,0,0,0-1.29-.35,2.62,2.62,0,0,0-.61.5,1,1,0,0,1-1.07.33l-1.91-.45a5.5,5.5,0,0,0-1.72-.15.92.92,0,0,0-.89.84A1.55,1.55,0,0,0,8.09,19.1c.4.16.8.31,1.21.44a8.59,8.59,0,0,0,1.11.28,17.21,17.21,0,0,1,2.34.44,2,2,0,0,0,.84,0c.34,0,.37-.11.4-.44.09-.85.16-1.7.25-2.55C14.26,17,14.26,16.76,14.51,16.63ZM6.88,18.37a3.17,3.17,0,0,1-.12-.66c0-.77.28-1.36,1.12-1.43a4.09,4.09,0,0,1,1,0c.68.11,1.34.26,2,.41.15,0,.23,0,.27-.13a5.3,5.3,0,0,0,.26-1.08,7.5,7.5,0,0,0-.8-3.6l-.11-.17a1.38,1.38,0,0,1,0,.25,2,2,0,0,1-.16.24,1.73,1.73,0,0,1-.17-.21l-.38-.73-.28.18a2.65,2.65,0,0,1,.06,1.31,1.68,1.68,0,0,1-1.85,1.55c-.55,0-1.09,0-1.63,0h-.8c0,.45,0,.88,0,1.31a3.87,3.87,0,0,0,.58,2A2,2,0,0,0,6.88,18.37Zm-1-.47a4.74,4.74,0,0,0-1.4,2.26,1.14,1.14,0,0,0,.18.95,3.89,3.89,0,0,0,2,1.36A1.07,1.07,0,0,0,8,21.78a1.47,1.47,0,0,0-.12-1.41.74.74,0,0,1,0-.85A.56.56,0,0,1,8,19.39c-.28-.22-.54-.43-.81-.63a.24.24,0,0,0-.08-.06A2.36,2.36,0,0,1,5.84,17.9Zm11.32-9A1.88,1.88,0,0,0,15.26,7a1.93,1.93,0,0,0-1.93,1.89,2.06,2.06,0,0,0,1.92,1.93A1.93,1.93,0,0,0,17.16,8.91Zm-5.67,4.41L13,12.59c-.93-.56-1.39-1.26-1-2.31l-1.62.33ZM6.79,4.56c-.65.38-.55,1.27.13,2A4.29,4.29,0,0,1,6.79,4.56Zm2.79,6.09-.5.21.37.36.27-.17Zm.58-.09-.25.31.26.28C10.39,10.94,10.24,10.77,10.16,10.56Z"/><path d="M9.88,7.3a1.88,1.88,0,0,1-.05.2c0,.06-.11.16-.13.15s-.19-.08-.2-.15a2.92,2.92,0,0,1-.09-.66c0-.14.09-.18.21-.1A.61.61,0,0,1,9.88,7.3Z"/><path d="M8.1,12.75a.58.58,0,0,1-.62-.54.6.6,0,0,1,.63-.56.6.6,0,0,1,.61.55A.57.57,0,0,1,8.1,12.75Z"/><path d="M8.74,18.07a.41.41,0,0,1-.46.41.61.61,0,0,1-.61-.55.43.43,0,0,1,.46-.42A.62.62,0,0,1,8.74,18.07Z"/></g><g class="cls-3"><path d="M4.68,10.3a3.47,3.47,0,0,1-.63-2A4.24,4.24,0,0,1,5.13,5.69a3.73,3.73,0,0,1,.26-.3,1.26,1.26,0,0,0,.42-.71,1.29,1.29,0,0,1,1-.95c.36-.1.79.37.73.73v.11c.34.1.67.18,1,.29A3,3,0,0,1,10.23,6.2a.42.42,0,0,0,.2.17,2.6,2.6,0,0,1,1,.79,1.33,1.33,0,0,1,.15,1.33c-.08.19-.17.37-.26.55a1.4,1.4,0,0,1-1,.84l-.16.06,0,0,0,.06,2.63-.6a2.38,2.38,0,0,1,.22-2,2.34,2.34,0,0,1,1.75-1.13l-.46-.81A.3.3,0,0,1,14.48,5h1c.27,0,.35.13.23.37s-.29.58-.45.89a2.39,2.39,0,0,1,1.85,1.49,2.32,2.32,0,0,1,0,1.66,2.39,2.39,0,0,1-3,1.46l-.12.32a2.12,2.12,0,0,1-.82,1c-.52.32-1.07.6-1.61.89-.13.07-.27.12-.38.17.06.56.13,1.1.16,1.65a3.05,3.05,0,0,1-.34,1.59.79.79,0,0,0,1-.13,3.23,3.23,0,0,1,.77-.62,1.16,1.16,0,0,1,1.69.83,3.59,3.59,0,0,1,0,1.18,12.17,12.17,0,0,1-.33,1.57,1.18,1.18,0,0,1-1.15.92,3.92,3.92,0,0,1-1-.1c-.48-.08-1-.22-1.45-.27a9.24,9.24,0,0,1-2.43-.62c-.14-.06-.28-.17-.43,0a.59.59,0,0,0-.12.64,4.11,4.11,0,0,1,.29.9,1.43,1.43,0,0,1-1.76,1.61A3.86,3.86,0,0,1,4.07,20.9a1.47,1.47,0,0,1-.15-1.38,5.54,5.54,0,0,1,1.25-2c0-.06.11-.11.15-.17A5.47,5.47,0,0,1,4.77,14a1.55,1.55,0,0,0-.23.05,9.74,9.74,0,0,1-2.31.62A1.93,1.93,0,0,1,.8,14.3a.86.86,0,0,1-.31-1,1.82,1.82,0,0,1,.68-1,12.14,12.14,0,0,1,3.37-1.93Zm5.86-.73a2.79,2.79,0,0,0,.37-.42,3.56,3.56,0,0,0,.35-.67.65.65,0,0,0,0-.34,5.43,5.43,0,0,1-.13-.68A.52.52,0,0,0,11,7.05a2.31,2.31,0,0,0-.24-.2,3.12,3.12,0,0,1-1-.93,3.13,3.13,0,0,0-1.86-1l-.31-.05-.26,1.6L7,6.33a2.91,2.91,0,0,0,.13-1.27,1,1,0,0,1,.14-.58c.08-.16.07-.26-.07-.36L7.05,4a.16.16,0,0,0-.27.08,2.19,2.19,0,0,0-.14.5,4.53,4.53,0,0,0,.24,1.75c0,.1.06.2.09.32s-.18,0-.22,0a1.64,1.64,0,0,1-.4-.34c-.22-.31-.4-.64-.6-1A5.2,5.2,0,0,0,4.68,6.81a3.11,3.11,0,0,0,.14,3.26.22.22,0,0,0,.29.11A6.32,6.32,0,0,1,5.94,10c.3,0,.6,0,.9,0a6.15,6.15,0,0,1-.11-3.1h.21c0,.6-.09,1.18-.11,1.77a2.38,2.38,0,0,0,.23,1.17.38.38,0,0,0,.3.23c.32.06.64.17,1,.25a.57.57,0,0,0,.29,0l1.59-.68c-.09-.28-.19-.55-.25-.83a7.34,7.34,0,0,1,0-2c0-.21,0-.22.26-.13a1.77,1.77,0,0,0,0,.23c0,.56,0,1.13,0,1.69A1.58,1.58,0,0,0,10.54,9.57ZM5.28,13.68v.05c.8,0,1.6,0,2.4,0a1.24,1.24,0,0,0,1.19-.83,2.86,2.86,0,0,0,.19-1.16,1.17,1.17,0,0,0-.66-1.1,2.39,2.39,0,0,0-.67-.26,5.3,5.3,0,0,0-2.82.11,11,11,0,0,0-3.66,2.06,2,2,0,0,0-.51.76.64.64,0,0,0,.33.89,1.7,1.7,0,0,0,1.18.24A7.53,7.53,0,0,0,5.5,13.24l.18-.12.14.2Zm8.89,2.61a.9.9,0,0,0-1.29-.35,2.43,2.43,0,0,0-.61.5,1,1,0,0,1-1.07.33l-1.91-.45a5.5,5.5,0,0,0-1.72-.15.92.92,0,0,0-.89.84,1.55,1.55,0,0,0,1.07,1.75c.4.16.8.31,1.21.44a8.59,8.59,0,0,0,1.11.28,17.21,17.21,0,0,1,2.34.44,2,2,0,0,0,.84,0c.34,0,.37-.11.4-.44.09-.85.16-1.7.25-2.55C13.92,16.68,13.92,16.42,14.17,16.29ZM6.54,18a3.17,3.17,0,0,1-.12-.66c0-.77.28-1.36,1.12-1.43a4.09,4.09,0,0,1,1,0c.68.11,1.34.26,2,.41.15,0,.23,0,.27-.13a5.3,5.3,0,0,0,.26-1.08,7.5,7.5,0,0,0-.8-3.6l-.11-.17a1.47,1.47,0,0,1,0,.25,2,2,0,0,1-.16.24,1.73,1.73,0,0,1-.17-.21l-.38-.73-.28.18a2.65,2.65,0,0,1,.06,1.31A1.68,1.68,0,0,1,7.42,14c-.55,0-1.09,0-1.63,0H5c0,.45,0,.88,0,1.31a3.87,3.87,0,0,0,.58,2A2,2,0,0,0,6.54,18Zm-1-.47a4.74,4.74,0,0,0-1.4,2.26,1.14,1.14,0,0,0,.18.95,3.85,3.85,0,0,0,2,1.36,1.07,1.07,0,0,0,1.38-.69A1.47,1.47,0,0,0,7.49,20a.74.74,0,0,1,0-.85.56.56,0,0,1,.09-.13c-.28-.22-.54-.43-.81-.63a.24.24,0,0,0-.08-.06A2.36,2.36,0,0,1,5.5,17.56Zm11.32-9a1.88,1.88,0,0,0-1.9-1.88A1.93,1.93,0,0,0,13,8.58a2.06,2.06,0,0,0,1.92,1.93A1.93,1.93,0,0,0,16.82,8.57ZM11.15,13l1.53-.73c-.93-.56-1.39-1.26-1-2.31l-1.62.33ZM6.45,4.22c-.65.38-.55,1.27.13,2A4.29,4.29,0,0,1,6.45,4.22Zm2.78,6.09-.49.21.36.36.28-.17Zm.59-.09-.25.31.26.28C10.05,10.6,9.9,10.43,9.82,10.22Z"/><path d="M9.54,7a1.37,1.37,0,0,1,0,.19c0,.07-.11.17-.13.16s-.19-.08-.2-.15a2.92,2.92,0,0,1-.09-.66c0-.14.09-.18.21-.1A.61.61,0,0,1,9.54,7Z"/><path d="M7.76,12.41a.58.58,0,0,1-.62-.54.6.6,0,0,1,.63-.56.6.6,0,0,1,.61.55A.57.57,0,0,1,7.76,12.41Z"/><path d="M8.4,17.73a.41.41,0,0,1-.46.41.61.61,0,0,1-.61-.55.43.43,0,0,1,.46-.42A.61.61,0,0,1,8.4,17.73Z"/></g><path class="cls-4" d="M4.88,10.49a3.35,3.35,0,0,1-.63-2A4.29,4.29,0,0,1,5.32,5.89a3.85,3.85,0,0,1,.27-.3A1.29,1.29,0,0,0,6,4.87a1.32,1.32,0,0,1,1-1c.36-.09.79.38.73.74a.4.4,0,0,0,0,.11c.34.1.67.18,1,.29A3.06,3.06,0,0,1,10.42,6.4a.44.44,0,0,0,.21.17,2.6,2.6,0,0,1,.95.79,1.33,1.33,0,0,1,.15,1.33c-.08.18-.17.36-.26.55a1.4,1.4,0,0,1-1,.84l-.16.06,0,0,0,.06,2.63-.6a2.4,2.4,0,0,1,2-3.17c-.15-.28-.3-.54-.45-.8a.3.3,0,0,1,.26-.45h1c.28,0,.36.13.24.37s-.29.58-.45.89A2.39,2.39,0,0,1,17.35,8a2.32,2.32,0,0,1,0,1.66,2.38,2.38,0,0,1-3,1.45,3.24,3.24,0,0,1-.13.33,2,2,0,0,1-.82.95c-.52.32-1.06.6-1.6.89-.13.07-.27.12-.38.17.05.56.13,1.1.16,1.64a3.17,3.17,0,0,1-.34,1.6.78.78,0,0,0,1-.14,3.24,3.24,0,0,1,.77-.61,1.16,1.16,0,0,1,1.69.83,3.83,3.83,0,0,1,0,1.17,11.83,11.83,0,0,1-.33,1.57,1.18,1.18,0,0,1-1.15.93,4.47,4.47,0,0,1-1-.1c-.49-.08-1-.22-1.45-.28a8.86,8.86,0,0,1-2.43-.62c-.14-.05-.28-.17-.43,0a.59.59,0,0,0-.12.64,4.11,4.11,0,0,1,.29.9,1.43,1.43,0,0,1-1.76,1.61A3.84,3.84,0,0,1,4.27,21.1a1.47,1.47,0,0,1-.15-1.38,5.4,5.4,0,0,1,1.25-2l.15-.17A5.48,5.48,0,0,1,5,14.21a1.55,1.55,0,0,0-.23,0,9.27,9.27,0,0,1-2.31.61A1.85,1.85,0,0,1,1,14.49a.86.86,0,0,1-.32-1,1.89,1.89,0,0,1,.69-1,11.9,11.9,0,0,1,3.37-1.93Zm5.86-.72a3.48,3.48,0,0,0,.37-.42,4,4,0,0,0,.35-.68.64.64,0,0,0,0-.34,5.28,5.28,0,0,1-.13-.67.56.56,0,0,0-.18-.41,2.31,2.31,0,0,0-.24-.2,3.16,3.16,0,0,1-1-.93,3.06,3.06,0,0,0-1.85-1l-.31,0-.26,1.6-.26-.12a2.77,2.77,0,0,0,.14-1.27,1.08,1.08,0,0,1,.13-.58c.08-.16.07-.26-.06-.36L7.25,4.2A.16.16,0,0,0,7,4.28a2.19,2.19,0,0,0-.14.5,4.35,4.35,0,0,0,.24,1.75c0,.1,0,.2.09.32S7,6.9,7,6.87a1.45,1.45,0,0,1-.4-.34c-.22-.3-.4-.63-.6-1A5.06,5.06,0,0,0,4.88,7,3.11,3.11,0,0,0,5,10.27a.23.23,0,0,0,.29.11,6,6,0,0,1,.83-.15c.3,0,.6,0,.9-.06a6.11,6.11,0,0,1-.11-3.09h.21c0,.6-.09,1.18-.11,1.77A2.38,2.38,0,0,0,7.26,10a.38.38,0,0,0,.3.23c.32.06.64.17,1,.24a.48.48,0,0,0,.29,0l1.59-.68c-.09-.28-.19-.55-.25-.83a7,7,0,0,1,0-2c0-.21,0-.22.25-.13a1.85,1.85,0,0,1,0,.23c0,.56,0,1.12,0,1.69A1.59,1.59,0,0,0,10.74,9.77ZM5.48,13.88v0c.8,0,1.6,0,2.4,0a1.25,1.25,0,0,0,1.19-.83,2.89,2.89,0,0,0,.19-1.16,1.17,1.17,0,0,0-.66-1.1,2.39,2.39,0,0,0-.67-.26,5.3,5.3,0,0,0-2.82.11,11.09,11.09,0,0,0-3.67,2.06,2.12,2.12,0,0,0-.51.76.66.66,0,0,0,.34.89,1.74,1.74,0,0,0,1.18.24A7.71,7.71,0,0,0,5.7,13.44l.18-.12.14.2Zm8.89,2.6a.92.92,0,0,0-1.29-.35,2.3,2.3,0,0,0-.61.51A1,1,0,0,1,11.4,17c-.63-.15-1.27-.31-1.91-.45a5.55,5.55,0,0,0-1.72-.15.9.9,0,0,0-.89.84A1.54,1.54,0,0,0,8,19c.4.16.8.31,1.21.44a6.91,6.91,0,0,0,1.11.27,20.94,20.94,0,0,1,2.34.44,1.84,1.84,0,0,0,.84,0c.34-.05.37-.11.4-.45.08-.84.16-1.69.25-2.54C14.12,16.88,14.12,16.62,14.37,16.48ZM6.73,18.22a3.68,3.68,0,0,1-.11-.65c0-.77.28-1.36,1.12-1.43a3.7,3.7,0,0,1,1,0c.67.11,1.34.26,2,.41.15,0,.23,0,.27-.13a7.06,7.06,0,0,0,.26-1.08,7.37,7.37,0,0,0-.81-3.6,2,2,0,0,0-.1-.18,1.51,1.51,0,0,1,0,.26c0,.08-.11.16-.16.24a1.12,1.12,0,0,1-.17-.21l-.38-.73-.28.18a2.65,2.65,0,0,1,.06,1.31,1.68,1.68,0,0,1-1.85,1.55c-.55,0-1.09,0-1.64,0H5.19c0,.45,0,.88,0,1.3a3.88,3.88,0,0,0,.58,2A2,2,0,0,0,6.73,18.22Zm-1-.46A4.79,4.79,0,0,0,4.29,20a1.14,1.14,0,0,0,.19.95,3.8,3.8,0,0,0,1.95,1.36,1.07,1.07,0,0,0,1.38-.69,1.47,1.47,0,0,0-.12-1.41.75.75,0,0,1,0-.85.58.58,0,0,1,.1-.13c-.28-.22-.54-.43-.81-.63,0,0,0-.05-.09-.06A2.37,2.37,0,0,1,5.7,17.76ZM17,8.77a1.88,1.88,0,0,0-1.89-1.89,1.94,1.94,0,0,0-1.93,1.9,2.06,2.06,0,0,0,1.92,1.93A1.93,1.93,0,0,0,17,8.77Zm-5.66,4.41,1.53-.73c-.93-.56-1.39-1.26-1-2.31l-1.62.32ZM6.65,4.42c-.65.38-.55,1.26.13,2A4.29,4.29,0,0,1,6.65,4.42Zm2.78,6.09-.5.2.37.37.27-.17Zm.59-.09-.25.31L10,11C10.25,10.8,10.1,10.63,10,10.42Z"/><path class="cls-4" d="M9.74,7.16a1.37,1.37,0,0,1-.05.19c0,.07-.11.17-.14.16s-.18-.08-.19-.15a3,3,0,0,1-.09-.66c0-.14.09-.18.21-.1A.61.61,0,0,1,9.74,7.16Z"/><path class="cls-4" d="M8,12.61a.58.58,0,0,1-.61-.54.62.62,0,0,1,1.24,0A.58.58,0,0,1,8,12.61Z"/><path class="cls-4" d="M8.6,17.93a.41.41,0,0,1-.46.41.61.61,0,0,1-.61-.55A.43.43,0,0,1,8,17.37.6.6,0,0,1,8.6,17.93Z"/></g></g></svg>