<svg xmlns="http://www.w3.org/2000/svg" viewBox="0 0 38.55 24.66"><defs><style>.cls-1{isolation:isolate;}.cls-2{opacity:0.15;}.cls-2,.cls-3{mix-blend-mode:multiply;}.cls-4{fill:#fff;}</style></defs><title>convert-CUSTOMIZE-SVG-03</title><g class="cls-1"><g id="Layer_1" data-name="Layer 1"><g class="cls-2"><path d="M34.94,2.91a3.17,3.17,0,0,1,1.24-.63,1.06,1.06,0,0,1,1.15.49,1.67,1.67,0,0,1,.09,1.58A3.64,3.64,0,0,1,36.08,6a10.91,10.91,0,0,1-1,.63.31.31,0,0,1-.25,0,5.41,5.41,0,0,1-2-1.61,2.8,2.8,0,0,1-.52-1.26,1.34,1.34,0,0,1,.93-1.51,1.28,1.28,0,0,1,.86.13C34.34,2.56,34.63,2.74,34.94,2.91Z"/><path d="M3.72,2.91A3,3,0,0,1,5,2.28a1,1,0,0,1,1,.37,1.6,1.6,0,0,1,.22,1.56A3.36,3.36,0,0,1,5,5.9a12.51,12.51,0,0,1-1.15.74.32.32,0,0,1-.25,0A5.34,5.34,0,0,1,1.53,5,2.72,2.72,0,0,1,1,3.76,1.29,1.29,0,0,1,2,2.29a1.87,1.87,0,0,1,.84.12A7.53,7.53,0,0,1,3.72,2.91Z"/><path d="M34.94,19.64A3,3,0,0,1,36.18,19a1,1,0,0,1,1.15.48,1.6,1.6,0,0,1,.14,1.44,2.86,2.86,0,0,1-1,1.44c-.45.36-1,.67-1.44,1a.32.32,0,0,1-.25,0,5.26,5.26,0,0,1-2.09-1.67,2.83,2.83,0,0,1-.48-1.21,1.3,1.3,0,0,1,.93-1.5,1.87,1.87,0,0,1,.84.12A8.47,8.47,0,0,1,34.94,19.64Z"/><path d="M29.16,19.66A3.28,3.28,0,0,1,30.45,19a1,1,0,0,1,1.08.42,1.69,1.69,0,0,1,.14,1.67,3,3,0,0,1-1,1.33c-.44.35-.93.64-1.4.95a.31.31,0,0,1-.25,0,5.44,5.44,0,0,1-2-1.56,2.9,2.9,0,0,1-.56-1.41,1.21,1.21,0,0,1,1.62-1.34,8.25,8.25,0,0,1,.93.49Z"/><path d="M3.72,19.64A3,3,0,0,1,5,19a1,1,0,0,1,1,.37A1.59,1.59,0,0,1,6.25,21a3.53,3.53,0,0,1-1.39,1.79,9.63,9.63,0,0,1-1,.63.32.32,0,0,1-.25,0,5.35,5.35,0,0,1-2-1.59A2.93,2.93,0,0,1,1,20.51,1.35,1.35,0,0,1,2,19a1.28,1.28,0,0,1,.86.13C3.12,19.29,3.41,19.47,3.72,19.64Z"/><path d="M10.15,19.62A3,3,0,0,1,11.4,19a1,1,0,0,1,1.06.41,1.66,1.66,0,0,1,.14,1.69,3.59,3.59,0,0,1-1.4,1.68,10.43,10.43,0,0,1-1,.59.27.27,0,0,1-.23,0A5.43,5.43,0,0,1,8,21.8a2.65,2.65,0,0,1-.54-1.44A1.2,1.2,0,0,1,9,19.07,10.88,10.88,0,0,1,10.15,19.62Z"/><path d="M10.48,3.64,9.42,6l-1-2.26h0V5.35c0,.42,0,.42.38.56h-1v0l.09,0c.27-.05.32-.11.32-.38V3.78c0-.45,0-.45-.4-.61H8.6l1,2.11c.12-.29.24-.54.35-.79.17-.4.35-.8.52-1.21a.2.2,0,0,1,.21-.14h.66V3.2l-.1,0a.28.28,0,0,0-.27.32c0,.65,0,1.31,0,2,0,.26.16.33.37.39H10.18s0,0,0,0c.34-.11.34-.11.34-.47V3.84c0-.06,0-.13,0-.19Z"/><path d="M27.21,3.64,26.15,6l-1-2.26h0V5.48c0,.29,0,.32.31.38,0,0,.05,0,.07.06h-1s0,0,0,0c.39-.11.39-.11.39-.51V3.82c0-.47,0-.47-.4-.67h.78s.08.09.11.14L26.18,5c0,.07.07.14.11.24.27-.62.54-1.19.77-1.79.11-.27.24-.4.54-.35a3.23,3.23,0,0,0,.44,0V3.2l-.13,0a.28.28,0,0,0-.24.3c0,.67,0,1.34,0,2,0,.25.18.3.36.38H26.91v0c.05,0,.11,0,.14,0s.21-.16.21-.25c0-.64,0-1.29,0-1.94Z"/><path d="M17.14,5.94c-.21,0-.42,0-.62,0s-.11-.08-.15-.13c-.27-.34-.53-.68-.79-1a.24.24,0,0,0-.34-.09v.93c0,.22.2.22.35.31H14.47a.1.1,0,0,0,0,0c.34-.1.34-.11.34-.47V3.8c0-.44,0-.44-.36-.62l0,0c.5,0,1,0,1.48,0a.69.69,0,0,1,.67.83.66.66,0,0,1-.48.51l-.27.07C16.34,5,16.58,5.61,17.14,5.94Zm-1.9-1.4c.25-.06.47-.09.67-.16a.45.45,0,0,0,.32-.45.65.65,0,0,0-.89-.6c-.05,0-.09.09-.09.14C15.24,3.81,15.24,4.14,15.24,4.54Z"/><path d="M18.7,4.6c.45.43.67,1,1.23,1.3a.72.72,0,0,1-.85-.21c-.24-.3-.47-.62-.71-.91A1.2,1.2,0,0,0,18,4.59a9,9,0,0,0,0,1.06c0,.1.19.18.28.26H17.27v0l.12,0a.27.27,0,0,0,.24-.28V3.52c0-.24-.18-.28-.39-.31.05,0,.07-.06.09-.06.48,0,1,0,1.45,0a.68.68,0,0,1,.68.83c0,.3-.25.42-.5.51A1.64,1.64,0,0,1,18.7,4.6ZM18,4.53c.22,0,.41-.07.6-.12A.47.47,0,0,0,19,4a.58.58,0,0,0-.16-.58.9.9,0,0,0-.73-.13.22.22,0,0,0-.08.15C18,3.81,18,4.14,18,4.53Z"/><path d="M28.2,3.16h2.18v.57h0a.45.45,0,0,1-.06-.12.46.46,0,0,0-.47-.3h-.61c-.15,0-.24.06-.23.22v.88c.26,0,.51,0,.75,0A.44.44,0,0,0,30.15,4V5h0c-.12-.32-.2-.37-.56-.38H29c0,.37,0,.72,0,1.07,0,0,.1.11.15.12a6.09,6.09,0,0,0,.74,0,.68.68,0,0,0,.56-.36l.12-.18.06,0-.17.67H28.2v0l.13,0a.26.26,0,0,0,.24-.29q0-1,0-2c0-.25-.17-.29-.38-.3Z"/><path d="M18,21.34c.39.05.46,0,.61-.32v.75a.48.48,0,0,0-.63-.35,7,7,0,0,0,0,.8.42.42,0,0,0,.19.26.73.73,0,0,0,1-.41l.06-.15v.62c.23,0,.32-.19.4-.36.2-.49.4-1,.59-1.49l.17-.4.13.22.71,1.68c.08.17.16.34.38.39h-1c.29-.14.31-.21.19-.53s-.16-.4-.59-.39c-.12,0-.3,0-.32.06a2.06,2.06,0,0,0-.18.63c0,.07.12.15.18.22H17.38c.28-.05.32-.26.32-.49V20.85c0-.31-.05-.37-.32-.5h1.75l0,.47c-.25-.43-.37-.48-1.13-.41Zm2,.26h.69l-.36-.84Z"/><path d="M12.3,5.92h-.81c.31-.16.38-.48.5-.75.27-.63.53-1.26.79-1.89l.11-.23c0,.11.09.17.12.23.31.72.62,1.44.94,2.15.08.19.16.41.4.49h-1v0l.12,0c.13,0,.19-.09.14-.22s-.13-.33-.2-.49a.23.23,0,0,0-.14-.09h-1a4.16,4.16,0,0,0-.27.62c0,.15.13.18.25.19S12.27,5.89,12.3,5.92Zm.48-2.22-.47,1.17h1Z"/><path d="M20.14,3.16h1.11s0,0,0,0c-.33.08-.35.11-.15.41s.36.56.57.87c.22-.36.43-.69.63-1,.07-.13,0-.2-.12-.23A.19.19,0,0,1,22,3.17H23c-.62.31-.81.94-1.17,1.42a.33.33,0,0,0-.05.2c0,.22,0,.45,0,.67s.05.35.32.39a.14.14,0,0,1,.09.07H20.87c.45-.2.43-.2.46-.7a1.32,1.32,0,0,0-.31-1c-.16-.2-.27-.43-.43-.63A4.89,4.89,0,0,0,20.14,3.16Z"/><path d="M14.19,22.58h-.92c.27-.06.31-.26.31-.49,0-.43,0-.87,0-1.31,0-.21-.06-.37-.32-.4.47,0,.92,0,1.36,0a.54.54,0,0,1,.47.57.49.49,0,0,1-.46.51,1.83,1.83,0,0,1-.33,0h-.35a7.57,7.57,0,0,0,0,.83C14,22.41,14.11,22.5,14.19,22.58Zm-.26-1.15c.4,0,.57,0,.7-.22a.59.59,0,0,0,0-.64c-.17-.22-.41-.2-.66-.17Z"/><path d="M25,21v.78c-.18-.38-.25-.42-.63-.37,0,.27,0,.54.05.81a.45.45,0,0,0,.19.24.71.71,0,0,0,1-.39.19.19,0,0,1,.08-.11l0,.6H23.7c.29-.06.31-.29.31-.52V20.84c0-.22,0-.43-.31-.49h1.74l0,.44c-.23-.54-.7-.38-1.12-.41v1C24.71,21.4,24.82,21.35,25,21Z"/><path d="M17.23,22a.43.43,0,0,0,0,.05c0,.19,0,.37,0,.56H15.27c.25-.05.3-.23.3-.45V20.76a.36.36,0,0,0-.3-.4h.95c-.27.05-.31.25-.31.47,0,.42,0,.85,0,1.27a.42.42,0,0,0,.45.45A.73.73,0,0,0,17.23,22Z"/><path d="M22.74,20.32c-.27,0-.4.13-.44.34a.43.43,0,0,0,.26.46l.4.2a.68.68,0,0,1,.41.83c-.1.33-.4.5-.87.46a2.46,2.46,0,0,0,.26,0,.43.43,0,0,0,.31-.35.49.49,0,0,0-.19-.48c-.16-.11-.34-.19-.5-.28a.58.58,0,0,1-.33-.72A.61.61,0,0,1,22.74,20.32Z"/><path d="M22.36,22.57,22,22.51V22Z"/><path d="M23.25,21,23,20.41h.29Z"/><path d="M35.14,3.11a3,3,0,0,1,1.24-.63A1.06,1.06,0,0,1,37.53,3a1.65,1.65,0,0,1,.09,1.57,3.57,3.57,0,0,1-1.35,1.67,9.63,9.63,0,0,1-1,.63.28.28,0,0,1-.25,0,5.18,5.18,0,0,1-2-1.61A2.81,2.81,0,0,1,32.45,4a1.35,1.35,0,0,1,.93-1.52,1.35,1.35,0,0,1,.86.14C34.54,2.76,34.83,2.93,35.14,3.11Z"/><path d="M3.92,3.11a2.92,2.92,0,0,1,1.27-.63,1,1,0,0,1,1,.37,1.57,1.57,0,0,1,.23,1.56A3.36,3.36,0,0,1,5.2,6.1,13.49,13.49,0,0,1,4,6.84a.31.31,0,0,1-.25,0A5.24,5.24,0,0,1,1.73,5.22,2.77,2.77,0,0,1,1.23,4a1.28,1.28,0,0,1,.94-1.47A1.74,1.74,0,0,1,3,2.61,7.53,7.53,0,0,1,3.92,3.11Z"/><path d="M35.14,19.84a3,3,0,0,1,1.24-.62,1,1,0,0,1,1.15.48,1.66,1.66,0,0,1,.14,1.44,2.92,2.92,0,0,1-1,1.44c-.45.36-1,.67-1.44,1a.28.28,0,0,1-.25,0,5.1,5.1,0,0,1-2.09-1.67,2.63,2.63,0,0,1-.48-1.2,1.3,1.3,0,0,1,.93-1.5,1.87,1.87,0,0,1,.84.12A8.47,8.47,0,0,1,35.14,19.84Z"/><path d="M29.36,19.86a3,3,0,0,1,1.29-.65,1,1,0,0,1,1.07.42,1.67,1.67,0,0,1,.15,1.67,3,3,0,0,1-1,1.33,16.29,16.29,0,0,1-1.4.94.31.31,0,0,1-.25,0,5.36,5.36,0,0,1-2-1.56,2.9,2.9,0,0,1-.56-1.41,1.21,1.21,0,0,1,1.62-1.34,6.39,6.39,0,0,1,.93.49S29.31,19.83,29.36,19.86Z"/><path d="M3.92,19.84a3,3,0,0,1,1.28-.63,1,1,0,0,1,1,.37,1.59,1.59,0,0,1,.23,1.57,3.58,3.58,0,0,1-1.39,1.79,10.76,10.76,0,0,1-1,.63.32.32,0,0,1-.25,0,5.35,5.35,0,0,1-2-1.59,2.92,2.92,0,0,1-.53-1.3,1.35,1.35,0,0,1,.92-1.49,1.3,1.3,0,0,1,.87.13C3.32,19.49,3.61,19.67,3.92,19.84Z"/><path d="M10.35,19.82a2.93,2.93,0,0,1,1.25-.61,1,1,0,0,1,1.06.41,1.66,1.66,0,0,1,.14,1.69A3.65,3.65,0,0,1,11.4,23c-.31.22-.64.4-1,.59a.27.27,0,0,1-.23,0,5.35,5.35,0,0,1-2-1.59,2.65,2.65,0,0,1-.54-1.44A1.19,1.19,0,0,1,9.2,19.27,9.94,9.94,0,0,1,10.35,19.82Z"/><path d="M10.67,3.84,9.62,6.19l-1-2.26H8.54V5.55c0,.42,0,.42.39.56H8v0l.09,0c.26,0,.32-.1.32-.37V4c0-.46,0-.46-.41-.61H8.8l1,2.11c.12-.29.24-.54.35-.8s.35-.79.51-1.2a.2.2,0,0,1,.22-.14c.22,0,.44,0,.66,0V3.4l-.1,0a.28.28,0,0,0-.27.32c0,.65,0,1.31,0,2,0,.26.16.34.37.4H10.38v0c.35-.11.35-.11.35-.47V4c0-.06,0-.13,0-.2Z"/><path d="M27.41,3.84,26.35,6.19l-1-2.26h0V5.68c0,.29,0,.32.31.37a.1.1,0,0,1,.07.07h-1a.07.07,0,0,1,0,0c.39-.1.39-.1.39-.51V4c0-.47,0-.47-.4-.67.26,0,.52,0,.78,0,0,0,.08.09.1.14.27.58.54,1.17.8,1.75,0,.07.07.14.11.24.27-.62.54-1.2.77-1.79.11-.27.24-.4.54-.35a3.23,3.23,0,0,0,.44,0V3.4l-.13,0a.28.28,0,0,0-.24.3c0,.67,0,1.34,0,2,0,.25.17.3.36.38H27.11v0s.11,0,.14,0,.2-.16.21-.25c0-.65,0-1.29,0-1.94Z"/><path d="M17.34,6.13h-.63c-.05,0-.1-.08-.15-.13-.26-.34-.53-.68-.78-1a.24.24,0,0,0-.34-.09V5.8c0,.23.2.23.34.32H14.67s0,0,0,0C15,6,15,6,15,5.61V4c0-.45,0-.45-.36-.62l.05,0c.5,0,1,0,1.48,0a.69.69,0,0,1,.67.83.63.63,0,0,1-.48.5l-.27.08C16.54,5.23,16.77,5.81,17.34,6.13Zm-1.9-1.39.67-.16a.45.45,0,0,0,.31-.45.65.65,0,0,0-.88-.61.19.19,0,0,0-.09.15C15.44,4,15.44,4.34,15.44,4.74Z"/><path d="M18.9,4.8c.45.43.67,1,1.22,1.3a.71.71,0,0,1-.84-.21c-.24-.31-.47-.62-.72-.92a1.44,1.44,0,0,0-.32-.18,9,9,0,0,0,0,1.06c0,.1.18.18.28.26H17.47v0l.12,0a.27.27,0,0,0,.24-.28v-2c0-.24-.18-.28-.39-.32l.08,0c.49,0,1,0,1.46,0a.68.68,0,0,1,.68.83c0,.3-.26.42-.5.51A2.06,2.06,0,0,1,18.9,4.8Zm-.66-.08c.22,0,.41-.06.6-.11a.47.47,0,0,0,.37-.37A.55.55,0,0,0,19,3.66a.87.87,0,0,0-.72-.13.22.22,0,0,0-.08.15C18.23,4,18.24,4.34,18.24,4.72Z"/><path d="M28.4,3.36h2.18v.57h0a.75.75,0,0,1-.07-.12.45.45,0,0,0-.46-.3c-.2,0-.41,0-.61,0s-.24.05-.23.22v.88c.26,0,.51,0,.75,0a.46.46,0,0,0,.42-.36v.92h0c-.13-.32-.2-.38-.56-.38h-.57c0,.37,0,.72,0,1.07,0,0,.09.11.15.11a6.09,6.09,0,0,0,.74,0,.68.68,0,0,0,.56-.36,1.88,1.88,0,0,1,.12-.18l.06,0-.17.67H28.4v0l.13,0a.26.26,0,0,0,.23-.3v-2c0-.25-.17-.29-.37-.31Z"/><path d="M18.23,21.54c.39.05.46,0,.61-.32V22a.48.48,0,0,0-.63-.35,7,7,0,0,0,.05.8.43.43,0,0,0,.19.26.73.73,0,0,0,1-.41s0-.07.06-.15v.62c.23,0,.32-.19.39-.36.21-.5.4-1,.6-1.49l.17-.4.13.22c.24.56.47,1.12.71,1.67.07.18.16.35.38.39h-1c.29-.13.31-.2.19-.52s-.16-.4-.6-.39c-.11,0-.29,0-.32.06a1.9,1.9,0,0,0-.17.63c0,.07.12.15.18.22H17.58c.28-.05.32-.26.32-.49V21.05c0-.31,0-.37-.32-.5h1.75l0,.47c-.24-.43-.36-.48-1.12-.41Zm2,.26h.68L20.57,21Z"/><path d="M12.5,6.12h-.81c.3-.16.37-.48.49-.75.28-.63.54-1.26.8-1.89l.11-.23c.05.11.09.17.12.23.31.72.62,1.43.94,2.15.08.19.16.41.4.49h-1v0l.12,0c.13,0,.19-.09.13-.22s-.12-.33-.19-.49a.19.19,0,0,0-.14-.09h-.95a3.33,3.33,0,0,0-.27.62c0,.15.12.18.25.19ZM13,3.9l-.47,1.17h1Z"/><path d="M20.34,3.36h1.11s0,0,0,0c-.34.09-.35.12-.16.42l.58.87.62-1c.08-.13,0-.2-.11-.23a.25.25,0,0,1-.13-.06h.92c-.62.31-.81.93-1.17,1.42a.33.33,0,0,0,0,.2c0,.22,0,.45,0,.67s0,.35.32.39a.16.16,0,0,1,.09.06H21.07c.45-.19.43-.19.46-.69a1.31,1.31,0,0,0-.31-1c-.16-.2-.27-.43-.43-.63A4.89,4.89,0,0,0,20.34,3.36Z"/><path d="M14.38,22.78h-.91c.26-.06.31-.26.31-.49,0-.43,0-.87,0-1.31,0-.21-.06-.37-.33-.4.48,0,.92,0,1.37,0a.54.54,0,0,1,.47.56.5.5,0,0,1-.46.52,1.83,1.83,0,0,1-.33,0c-.12,0-.23,0-.35,0a7.57,7.57,0,0,0,0,.83C14.16,22.61,14.31,22.7,14.38,22.78Zm-.25-1.15c.4,0,.57,0,.69-.22a.57.57,0,0,0,0-.64.63.63,0,0,0-.66-.17Z"/><path d="M25.14,21.21V22c-.17-.38-.24-.42-.62-.37,0,.27,0,.54.05.81a.37.37,0,0,0,.19.24.72.72,0,0,0,1-.39.19.19,0,0,1,.07-.11l0,.6H23.9c.29-.06.31-.29.31-.52V21c0-.22,0-.43-.31-.49h1.74l0,.44c-.23-.55-.7-.38-1.13-.41v1C24.91,21.6,25,21.54,25.14,21.21Z"/><path d="M17.43,22.16s0,0,0,.05l0,.56H15.47c.25-.05.3-.23.3-.45,0-.46,0-.91,0-1.36a.35.35,0,0,0-.29-.4h.94c-.26.05-.3.25-.3.47,0,.42,0,.85,0,1.27a.42.42,0,0,0,.45.45A.73.73,0,0,0,17.43,22.16Z"/><path d="M22.93,20.52c-.27,0-.39.13-.43.33a.44.44,0,0,0,.26.47l.4.2a.68.68,0,0,1,.41.83c-.1.33-.41.5-.87.46a2.46,2.46,0,0,0,.26,0,.43.43,0,0,0,.31-.35.48.48,0,0,0-.2-.48,4.76,4.76,0,0,0-.49-.28.56.56,0,0,1-.33-.72A.6.6,0,0,1,22.93,20.52Z"/><path d="M22.56,22.77l-.41-.07v-.52Z"/><path d="M23.45,21.16l-.29-.56h.29Z"/></g><g class="cls-3"><path d="M34.8,2.77A3,3,0,0,1,36,2.14a1,1,0,0,1,1.14.49,1.63,1.63,0,0,1,.1,1.57,3.57,3.57,0,0,1-1.35,1.67,9.63,9.63,0,0,1-1,.63.28.28,0,0,1-.25,0,5.18,5.18,0,0,1-2-1.61,2.81,2.81,0,0,1-.51-1.25A1.35,1.35,0,0,1,33,2.13a1.35,1.35,0,0,1,.86.14C34.2,2.42,34.49,2.59,34.8,2.77Z"/><path d="M3.58,2.77a2.92,2.92,0,0,1,1.27-.63,1,1,0,0,1,1,.37,1.57,1.57,0,0,1,.23,1.56A3.36,3.36,0,0,1,4.86,5.76,13.49,13.49,0,0,1,3.7,6.5a.31.31,0,0,1-.25,0A5.24,5.24,0,0,1,1.39,4.88a2.77,2.77,0,0,1-.5-1.26,1.28,1.28,0,0,1,.94-1.47,1.74,1.74,0,0,1,.84.12A7.53,7.53,0,0,1,3.58,2.77Z"/><path d="M34.8,19.5A3,3,0,0,1,36,18.88a1,1,0,0,1,1.15.48,1.66,1.66,0,0,1,.14,1.44,2.92,2.92,0,0,1-1,1.44c-.45.36-1,.67-1.44,1a.28.28,0,0,1-.25,0,5.1,5.1,0,0,1-2.09-1.67,2.63,2.63,0,0,1-.48-1.2,1.3,1.3,0,0,1,.93-1.5,1.87,1.87,0,0,1,.84.12A8.47,8.47,0,0,1,34.8,19.5Z"/><path d="M29,19.52a3,3,0,0,1,1.29-.65,1,1,0,0,1,1.07.42A1.67,1.67,0,0,1,31.53,21a3,3,0,0,1-1,1.33,16.29,16.29,0,0,1-1.4.94.31.31,0,0,1-.25,0,5.36,5.36,0,0,1-2-1.56,2.81,2.81,0,0,1-.56-1.41A1.21,1.21,0,0,1,28,18.94a6.39,6.39,0,0,1,.93.49S29,19.49,29,19.52Z"/><path d="M3.58,19.5a3,3,0,0,1,1.28-.63,1,1,0,0,1,1,.37,1.59,1.59,0,0,1,.23,1.57A3.58,3.58,0,0,1,4.72,22.6a10.76,10.76,0,0,1-1,.63.32.32,0,0,1-.25,0,5.35,5.35,0,0,1-2-1.59,2.92,2.92,0,0,1-.53-1.3,1.35,1.35,0,0,1,.92-1.49,1.3,1.3,0,0,1,.87.13C3,19.15,3.27,19.33,3.58,19.5Z"/><path d="M10,19.48a2.93,2.93,0,0,1,1.25-.61,1,1,0,0,1,1.06.41A1.66,1.66,0,0,1,12.46,21a3.65,3.65,0,0,1-1.4,1.68c-.31.22-.64.4-1,.59a.31.31,0,0,1-.23,0,5.35,5.35,0,0,1-2-1.59,2.68,2.68,0,0,1-.54-1.44,1.19,1.19,0,0,1,1.57-1.29A9.94,9.94,0,0,1,10,19.48Z"/><path d="M10.33,3.5,9.28,5.85l-1-2.26H8.2V5.21c0,.42,0,.42.39.56h-1v0l.09,0c.26,0,.32-.1.32-.37V3.64c0-.46,0-.46-.41-.61h.84l1,2.11c.12-.29.24-.54.35-.8s.35-.79.51-1.2A.2.2,0,0,1,10.5,3h.66v.06l-.1,0a.28.28,0,0,0-.27.32c0,.65,0,1.31,0,2,0,.26.16.34.37.4H10v0c.35-.11.35-.11.35-.47V3.7c0-.06,0-.13,0-.2Z"/><path d="M27.07,3.5,26,5.85,25,3.59h0V5.34c0,.29,0,.32.31.37a.1.1,0,0,1,.07.06h-1a.06.06,0,0,1,0,0c.39-.1.39-.1.39-.51V3.68c0-.47,0-.47-.4-.67h.78s.08.09.1.14c.27.58.54,1.17.8,1.75,0,.07.07.14.11.24.27-.62.54-1.2.77-1.79.11-.27.24-.4.54-.35a3.23,3.23,0,0,0,.44,0v.06l-.13,0a.28.28,0,0,0-.24.3c0,.67,0,1.34,0,2,0,.25.17.3.36.38H26.77v0s.11,0,.14,0,.2-.16.21-.25c0-.65,0-1.29,0-1.94Z"/><path d="M17,5.79h-.63c-.05,0-.1-.08-.15-.13-.26-.34-.53-.68-.78-1a.24.24,0,0,0-.34-.09v.92c0,.23.2.23.34.32H14.33s0,0,0,0c.34-.11.34-.11.34-.47V3.66c0-.45,0-.45-.36-.62l0,0c.5,0,1,0,1.48,0a.69.69,0,0,1,.67.83.63.63,0,0,1-.48.5l-.27.08C16.2,4.89,16.43,5.47,17,5.79ZM15.1,4.4l.67-.16a.45.45,0,0,0,.31-.45.65.65,0,0,0-.88-.61.19.19,0,0,0-.09.15C15.1,3.66,15.1,4,15.1,4.4Z"/><path d="M18.56,4.46c.45.43.67,1,1.22,1.3a.71.71,0,0,1-.84-.21c-.24-.31-.47-.62-.72-.92a1.44,1.44,0,0,0-.32-.18,9,9,0,0,0,0,1.06c0,.1.18.18.28.26H17.13v0l.12,0a.27.27,0,0,0,.24-.28v-2c0-.24-.18-.28-.39-.32.05,0,.06-.05.08-.05.49,0,1,0,1.46,0a.68.68,0,0,1,.68.83c0,.3-.26.42-.5.51A2.06,2.06,0,0,1,18.56,4.46Zm-.66-.08c.22,0,.41-.06.6-.11a.47.47,0,0,0,.37-.37.55.55,0,0,0-.17-.58A.87.87,0,0,0,18,3.19a.22.22,0,0,0-.08.15C17.89,3.67,17.9,4,17.9,4.38Z"/><path d="M28.06,3h2.18v.57h0a.75.75,0,0,1-.07-.12.45.45,0,0,0-.46-.3c-.2,0-.41,0-.61,0s-.24.05-.23.22v.88c.26,0,.51,0,.75,0A.46.46,0,0,0,30,3.9v.92h0c-.13-.32-.2-.38-.56-.38h-.57c0,.37,0,.72,0,1.07,0,0,.09.11.15.11a6.09,6.09,0,0,0,.74,0,.68.68,0,0,0,.56-.36,1.88,1.88,0,0,1,.12-.18l.06,0-.17.67H28.06v0l.13,0a.26.26,0,0,0,.23-.3v-2c0-.25-.17-.29-.37-.31Z"/><path d="M17.89,21.2c.39.05.46,0,.61-.32v.75a.48.48,0,0,0-.63-.35,7,7,0,0,0,.05.8.43.43,0,0,0,.19.26.73.73,0,0,0,1-.41s0-.07.06-.15v.62c.23,0,.32-.19.39-.36.21-.5.4-1,.6-1.49l.17-.4.13.22c.24.56.47,1.12.71,1.67.07.18.16.35.38.39h-1c.29-.14.31-.2.19-.52s-.16-.4-.6-.4c-.11,0-.29,0-.32.07a1.9,1.9,0,0,0-.17.63c0,.07.11.15.18.22H17.24c.28-.05.31-.26.32-.49V20.71c0-.31,0-.37-.32-.5H19l0,.47c-.24-.43-.36-.48-1.12-.41Zm2,.26h.68l-.35-.84Z"/><path d="M12.16,5.78h-.81c.3-.16.37-.48.49-.75.28-.63.54-1.26.8-1.89l.11-.23c.05.11.09.17.12.23.31.72.62,1.43.94,2.15.08.19.16.41.4.49h-1v0l.12,0c.13,0,.19-.09.13-.22s-.12-.33-.19-.49a.19.19,0,0,0-.14-.09h-.95a3.33,3.33,0,0,0-.27.62c0,.15.12.18.25.19Zm.48-2.22-.47,1.17h1Z"/><path d="M20,3h1.11s0,0,0,0c-.34.09-.35.12-.16.42l.58.87.62-1c.08-.13,0-.2-.11-.23A.25.25,0,0,1,21.9,3h.92c-.62.31-.81.93-1.17,1.42a.33.33,0,0,0,0,.2c0,.22,0,.45,0,.67s0,.35.32.39a.16.16,0,0,1,.09.06H20.73c.45-.19.43-.19.46-.69a1.31,1.31,0,0,0-.31-1c-.16-.2-.27-.43-.43-.63A4.89,4.89,0,0,0,20,3Z"/><path d="M14,22.44h-.91c.26-.07.31-.26.31-.49,0-.43,0-.87,0-1.31,0-.21-.06-.37-.33-.4.48,0,.92,0,1.37,0a.54.54,0,0,1,.47.56.5.5,0,0,1-.46.52,1.83,1.83,0,0,1-.33,0c-.12,0-.23,0-.35,0a7.6,7.6,0,0,0,0,.83C13.82,22.27,14,22.36,14,22.44Zm-.25-1.15c.4,0,.57,0,.69-.22a.57.57,0,0,0,0-.64.63.63,0,0,0-.66-.17Z"/><path d="M24.8,20.87v.78c-.17-.38-.24-.42-.62-.37,0,.27,0,.54.05.81a.37.37,0,0,0,.19.24.72.72,0,0,0,1-.39.19.19,0,0,1,.07-.11l0,.6H23.56c.29-.06.31-.29.31-.52V20.7c0-.22,0-.43-.31-.49H25.3l0,.44c-.23-.55-.7-.38-1.13-.41v1C24.57,21.26,24.67,21.2,24.8,20.87Z"/><path d="M17.09,21.82s0,0,0,.05l0,.56H15.13c.25-.05.3-.23.3-.45,0-.46,0-.91,0-1.36a.35.35,0,0,0-.29-.4h.94c-.26.05-.3.25-.3.47,0,.42,0,.85,0,1.27s.16.42.45.45A.73.73,0,0,0,17.09,21.82Z"/><path d="M22.59,20.18c-.27,0-.39.13-.43.33a.42.42,0,0,0,.26.47l.39.2a.68.68,0,0,1,.42.83c-.1.33-.41.5-.87.46l.26,0a.43.43,0,0,0,.31-.35.48.48,0,0,0-.2-.48,4.76,4.76,0,0,0-.49-.28.56.56,0,0,1-.33-.72A.6.6,0,0,1,22.59,20.18Z"/><path d="M22.22,22.43l-.41-.07v-.52Z"/><path d="M23.11,20.82l-.29-.56h.29Z"/></g><path class="cls-4" d="M35,3a3.19,3.19,0,0,1,1.25-.62,1,1,0,0,1,1.14.48,1.65,1.65,0,0,1,.1,1.58,3.57,3.57,0,0,1-1.35,1.67,11.61,11.61,0,0,1-1,.63.31.31,0,0,1-.25,0,5.18,5.18,0,0,1-2-1.61,2.81,2.81,0,0,1-.51-1.25,1.35,1.35,0,0,1,.93-1.52,1.35,1.35,0,0,1,.86.14C34.4,2.61,34.69,2.79,35,3Z"/><path class="cls-4" d="M3.78,3a3,3,0,0,1,1.27-.62,1,1,0,0,1,1,.37,1.6,1.6,0,0,1,.23,1.56A3.42,3.42,0,0,1,5.06,6a12.57,12.57,0,0,1-1.16.73.31.31,0,0,1-.25,0A5.24,5.24,0,0,1,1.59,5.08a2.77,2.77,0,0,1-.5-1.26A1.3,1.3,0,0,1,2,2.34a1.9,1.9,0,0,1,.84.13A9.07,9.07,0,0,1,3.78,3Z"/><path class="cls-4" d="M35,19.7a3,3,0,0,1,1.24-.63,1,1,0,0,1,1.14.49A1.63,1.63,0,0,1,37.53,21a3,3,0,0,1-1,1.44c-.46.36-1,.66-1.45,1a.28.28,0,0,1-.25,0,5.23,5.23,0,0,1-2.09-1.67,2.72,2.72,0,0,1-.47-1.2,1.3,1.3,0,0,1,.93-1.5,1.74,1.74,0,0,1,.84.12A8.47,8.47,0,0,1,35,19.7Z"/><path class="cls-4" d="M29.21,19.72a3.13,3.13,0,0,1,1.3-.65,1,1,0,0,1,1.07.42,1.65,1.65,0,0,1,.15,1.66,3,3,0,0,1-1,1.34,16.29,16.29,0,0,1-1.4.94.31.31,0,0,1-.25,0,5.46,5.46,0,0,1-2-1.56,2.81,2.81,0,0,1-.56-1.41,1.21,1.21,0,0,1,1.62-1.34,5.82,5.82,0,0,1,.92.49A.54.54,0,0,1,29.21,19.72Z"/><path class="cls-4" d="M3.78,19.7a3,3,0,0,1,1.28-.63,1,1,0,0,1,1,.37A1.57,1.57,0,0,1,6.31,21,3.58,3.58,0,0,1,4.92,22.8a10.91,10.91,0,0,1-1,.63.31.31,0,0,1-.25,0,5.32,5.32,0,0,1-2-1.59,2.81,2.81,0,0,1-.53-1.3A1.35,1.35,0,0,1,2,19.07a1.27,1.27,0,0,1,.86.13C3.18,19.35,3.46,19.52,3.78,19.7Z"/><path class="cls-4" d="M10.21,19.68a2.93,2.93,0,0,1,1.25-.61,1,1,0,0,1,1.06.41,1.68,1.68,0,0,1,.14,1.69,3.7,3.7,0,0,1-1.4,1.68c-.31.22-.64.4-1,.59a.31.31,0,0,1-.23,0,5.28,5.28,0,0,1-2-1.59,2.71,2.71,0,0,1-.54-1.44,1.19,1.19,0,0,1,1.57-1.29A9.94,9.94,0,0,1,10.21,19.68Z"/><path class="cls-4" d="M10.53,3.69l-1,2.36-1-2.26h0V5.41c0,.42,0,.42.38.56h-1v0l.08,0c.27,0,.33-.11.33-.37V3.84c0-.46,0-.46-.41-.61h.83l1,2.11.35-.8c.18-.4.35-.8.52-1.2,0-.11.1-.15.22-.14h.66v0l-.11,0A.27.27,0,0,0,11,3.6c0,.66,0,1.32,0,2,0,.26.16.33.37.4H10.24v0c.34-.12.34-.12.34-.47V3.9a1.34,1.34,0,0,0,0-.2Z"/><path class="cls-4" d="M27.26,3.7,26.21,6.05l-1-2.26h0V5.54c0,.29,0,.31.31.37a.13.13,0,0,1,.07.06h-1s0,0,0,0c.39-.1.39-.1.39-.51V3.88c0-.47,0-.47-.4-.68h.78s.08.09.1.14c.27.58.53,1.16.8,1.75a2.29,2.29,0,0,0,.11.23c.27-.61.54-1.19.77-1.78.11-.28.24-.4.53-.35a3.38,3.38,0,0,0,.45,0v.06l-.13,0a.28.28,0,0,0-.24.3c0,.67,0,1.34,0,2,0,.25.18.3.37.37H27v0c.05,0,.11,0,.14,0s.2-.16.2-.25c0-.65,0-1.3,0-1.94Z"/><path class="cls-4" d="M17.19,6h-.62c-.05,0-.11-.08-.15-.14-.26-.33-.53-.67-.78-1a.24.24,0,0,0-.34-.09c0,.3,0,.61,0,.92s.2.23.34.32H14.53a.07.07,0,0,1,0-.05c.33-.1.34-.1.34-.46V3.86c0-.45,0-.45-.36-.62,0,0,0,0,.05,0,.49,0,1,0,1.48,0a.68.68,0,0,1,.67.82.66.66,0,0,1-.48.51L16,4.66C16.4,5.09,16.63,5.67,17.19,6ZM15.3,4.59c.25,0,.46-.09.67-.15A.45.45,0,0,0,16.28,4a.65.65,0,0,0-.89-.61.21.21,0,0,0-.09.15Z"/><path class="cls-4" d="M18.76,4.66c.45.43.67,1,1.22,1.29a.71.71,0,0,1-.84-.2c-.24-.31-.47-.62-.72-.92a1.44,1.44,0,0,0-.32-.18c0,.4,0,.73,0,1.06,0,.1.19.18.28.26H17.33v0l.12,0a.26.26,0,0,0,.23-.28c0-.69,0-1.37,0-2,0-.24-.17-.28-.39-.32,0,0,.07,0,.09,0,.49,0,1,0,1.46,0a.68.68,0,0,1,.68.83c0,.29-.26.42-.5.51A2.06,2.06,0,0,1,18.76,4.66Zm-.67-.08.61-.11a.46.46,0,0,0,.36-.37.55.55,0,0,0-.16-.58.84.84,0,0,0-.72-.13s-.08.1-.08.15C18.09,3.87,18.09,4.2,18.09,4.58Z"/><path class="cls-4" d="M28.26,3.22h2.18v.56h0l-.06-.12a.45.45,0,0,0-.46-.3h-.61c-.16,0-.24,0-.24.22s0,.57,0,.88c.26,0,.51,0,.75,0a.46.46,0,0,0,.42-.36V5h0c-.13-.33-.2-.38-.56-.38H29c0,.37,0,.72,0,1.06a.2.2,0,0,0,.16.12h.74a.68.68,0,0,0,.56-.36,1.74,1.74,0,0,1,.11-.18l.07,0L30.51,6H28.26v0l.13,0a.26.26,0,0,0,.23-.3v-2c0-.25-.17-.29-.37-.31Z"/><path class="cls-4" d="M18.09,21.4c.39.05.46,0,.6-.32v.75c-.08-.31-.29-.41-.63-.36,0,.28,0,.54.06.81a.39.39,0,0,0,.19.25.72.72,0,0,0,1-.4s0-.07.06-.15v.62c.23,0,.32-.19.39-.36.21-.5.4-1,.6-1.49l.17-.4c.05.1.1.16.12.22l.72,1.67c.07.18.16.35.38.39h-1c.29-.14.31-.2.18-.52s-.15-.4-.59-.4c-.11,0-.29,0-.32.06a2.34,2.34,0,0,0-.18.64c0,.07.12.15.19.22H17.44c.28-.05.31-.26.31-.49q0-.62,0-1.23c0-.31,0-.38-.31-.5h1.75l0,.47c-.24-.44-.36-.48-1.12-.42Zm2,.26h.68l-.35-.84Z"/><path class="cls-4" d="M12.35,6h-.8c.3-.17.37-.48.49-.75l.8-1.89L13,3.11l.12.23L14,5.49c.09.19.16.4.41.49h-1v0l.12,0c.13,0,.19-.09.13-.22s-.12-.33-.19-.49a.24.24,0,0,0-.14-.09c-.3,0-.6,0-.89,0,0,0-.06,0-.06,0a2.84,2.84,0,0,0-.27.62c0,.15.12.17.24.19S12.33,5.94,12.35,6Zm.49-2.22-.47,1.16h1Z"/><path class="cls-4" d="M20.2,3.21h1.11a.18.18,0,0,0,0,0c-.34.09-.35.12-.16.42l.58.87.62-1c.08-.13,0-.2-.11-.23a.22.22,0,0,1-.13-.06H23c-.62.31-.81.93-1.17,1.42a.32.32,0,0,0-.05.19c0,.23,0,.46,0,.68s.05.34.33.39a.16.16,0,0,1,.09.06H20.93c.45-.19.43-.19.45-.69a1.25,1.25,0,0,0-.3-1c-.16-.2-.27-.43-.43-.63S20.35,3.37,20.2,3.21Z"/><path class="cls-4" d="M14.24,22.64h-.91c.26-.07.31-.26.3-.49V20.84c0-.21-.06-.37-.33-.41.48,0,.92,0,1.36,0a.55.55,0,0,1,.48.56.5.5,0,0,1-.46.52,1.88,1.88,0,0,1-.34,0H14a7.6,7.6,0,0,0,0,.83C14,22.47,14.17,22.55,14.24,22.64ZM14,21.49c.4,0,.57,0,.69-.22a.59.59,0,0,0,0-.64.63.63,0,0,0-.66-.17Z"/><path class="cls-4" d="M25,21.06v.79c-.18-.38-.24-.42-.62-.37a7.34,7.34,0,0,0,.05.81.39.39,0,0,0,.18.24.72.72,0,0,0,1-.39.15.15,0,0,1,.07-.11l0,.6H23.76c.29-.06.31-.29.31-.53V20.9c0-.22,0-.43-.32-.49H25.5l0,.44c-.23-.55-.7-.39-1.13-.41v.95C24.77,21.46,24.87,21.4,25,21.06Z"/><path class="cls-4" d="M17.28,22a.09.09,0,0,1,0,.05l0,.56H15.32c.25-.05.31-.23.31-.46,0-.45,0-.9,0-1.35a.37.37,0,0,0-.3-.41h.95c-.26.06-.3.25-.3.48,0,.42,0,.84,0,1.27s.17.42.46.45A.71.71,0,0,0,17.28,22Z"/><path class="cls-4" d="M22.79,20.38c-.27,0-.39.13-.43.33a.43.43,0,0,0,.26.47l.39.2a.69.69,0,0,1,.42.83c-.1.33-.41.5-.87.46l.26,0a.4.4,0,0,0,.3-.35.45.45,0,0,0-.19-.48,4.76,4.76,0,0,0-.49-.28.56.56,0,0,1-.33-.72A.6.6,0,0,1,22.79,20.38Z"/><path class="cls-4" d="M22.42,22.63,22,22.56V22Z"/><path class="cls-4" d="M23.31,21,23,20.46h.29Z"/></g></g></svg>