<svg xmlns="http://www.w3.org/2000/svg" viewBox="0 0 38.55 24.66"><defs><style>.cls-1{isolation:isolate;}.cls-2{opacity:0.15;}.cls-2,.cls-3{mix-blend-mode:multiply;}.cls-4{fill:#fff;}</style></defs><title>convert-CUSTOMIZE-SVG-03</title><g class="cls-1"><g id="Layer_1" data-name="Layer 1"><g class="cls-2"><path d="M35.5,3.73a6.49,6.49,0,0,1,.59-.3.72.72,0,0,1,1,.72,1.63,1.63,0,0,1-.37,1,3.31,3.31,0,0,1-1.16.9.25.25,0,0,1-.19,0,3.05,3.05,0,0,1-1.3-1.11A1.18,1.18,0,0,1,34,3.78a.63.63,0,0,1,.83-.38A6.66,6.66,0,0,1,35.5,3.73Z"/><path d="M30.88,3.73c.19-.09.38-.22.6-.3a.72.72,0,0,1,1,.72,1.6,1.6,0,0,1-.41,1A3.36,3.36,0,0,1,31,6a.31.31,0,0,1-.21,0,3.05,3.05,0,0,1-1.3-1.11,1.17,1.17,0,0,1-.15-1.14.63.63,0,0,1,.84-.4A5.74,5.74,0,0,1,30.88,3.73Z"/><path d="M7.8,3.73a5.77,5.77,0,0,1,.61-.31.72.72,0,0,1,1,.7,1.56,1.56,0,0,1-.36,1A3.39,3.39,0,0,1,7.9,6a.28.28,0,0,1-.2,0,2.91,2.91,0,0,1-1.35-1.2,1.07,1.07,0,0,1-.07-1.12.61.61,0,0,1,.77-.34A7.19,7.19,0,0,1,7.8,3.73Z"/><path d="M12.39,3.75c.19-.1.36-.22.54-.3a.75.75,0,0,1,1.1.78,1.57,1.57,0,0,1-.4.94A3.11,3.11,0,0,1,12.52,6a.31.31,0,0,1-.21,0A3,3,0,0,1,11,4.92a1.17,1.17,0,0,1-.14-1.13.65.65,0,0,1,.84-.39,1.69,1.69,0,0,1,.37.15C12.19,3.61,12.29,3.69,12.39,3.75Z"/><path d="M26.24,3.75a5.48,5.48,0,0,1,.63-.33.72.72,0,0,1,1,.72,1.63,1.63,0,0,1-.57,1.22,7.78,7.78,0,0,1-.93.66.23.23,0,0,1-.21,0,3,3,0,0,1-1.34-1.17,1.13,1.13,0,0,1-.12-1.07.64.64,0,0,1,.85-.41,1.69,1.69,0,0,1,.37.15C26,3.61,26.14,3.69,26.24,3.75Z"/><path d="M3.18,3.74a6.28,6.28,0,0,1,.58-.31.72.72,0,0,1,1,.72,1.55,1.55,0,0,1-.55,1.19,9.2,9.2,0,0,1-1,.69.31.31,0,0,1-.21,0A3.05,3.05,0,0,1,1.8,5a1.19,1.19,0,0,1-.18-1.15.64.64,0,0,1,.86-.42A4.52,4.52,0,0,1,3.18,3.74Z"/><path d="M35.47,20.34c.21-.11.39-.23.59-.31a.74.74,0,0,1,1.06.76,1.65,1.65,0,0,1-.43,1,2.65,2.65,0,0,1-.38.37c-.92.65-.74.65-1.65,0A1.76,1.76,0,0,1,33.89,21a1.15,1.15,0,0,1,.06-.58.63.63,0,0,1,.87-.39,1.54,1.54,0,0,1,.35.15Z"/><path d="M3.17,20.34c.16-.09.31-.2.48-.28a.74.74,0,0,1,.83,0,.87.87,0,0,1,.3.88A1.85,1.85,0,0,1,4,22.13c-.94.7-.77.7-1.69,0a1.84,1.84,0,0,1-.78-1.22.83.83,0,0,1,.31-.87.73.73,0,0,1,.8,0C2.84,20.13,3,20.24,3.17,20.34Z"/><path d="M19.43,6.21l.25-.29a1.74,1.74,0,0,0,2.06,0,1.71,1.71,0,0,0,.64-2.09,1.76,1.76,0,0,0-2-1A1.7,1.7,0,0,0,19,4.52a2.14,2.14,0,0,0,.16.75c.09.19.09.31-.07.43a.34.34,0,0,0-.09.08,2.09,2.09,0,0,1,.11-2.64,2.16,2.16,0,0,1,3-.2,2.14,2.14,0,0,1,.26,2.95A2.17,2.17,0,0,1,19.43,6.21Z"/><path d="M19.67,3.31a2.11,2.11,0,0,1-.37,2.88,2.17,2.17,0,0,1-3-.26,2.13,2.13,0,0,1,3-3L19,3.17a1.74,1.74,0,0,0-1.66-.25,1.71,1.71,0,0,0-1.11,2A1.74,1.74,0,0,0,18.1,6.27a1.72,1.72,0,0,0,1.56-1.71,2.14,2.14,0,0,0-.14-.71C19.41,3.53,19.39,3.54,19.67,3.31Z"/><path d="M13.13,22.45c-.4,0-.4,0-.59-.37a4.29,4.29,0,0,0-.31-.55.36.36,0,0,0-.43-.16c0,.25,0,.48,0,.72a.38.38,0,0,0,.31.36h-.95c.27-.06.31-.26.31-.48,0-.45,0-.89,0-1.34,0-.28,0-.33-.28-.43.39,0,.81,0,1.21,0a.51.51,0,0,1,.54.47c0,.31-.07.47-.41.62l0,0ZM11.81,21.3a.58.58,0,0,0,.66-.22.56.56,0,0,0,0-.63c-.15-.25-.4-.25-.66-.23Z"/><path d="M20,22.44a.37.37,0,0,0,.3-.41V20.59a.34.34,0,0,0-.31-.38c.43,0,.85,0,1.28,0a.54.54,0,0,1,.1,1.07l0,0L22,22.47s0,0,0,0c-.44,0-.43,0-.62-.36a4.88,4.88,0,0,0-.31-.55.35.35,0,0,0-.43-.16c0,.24,0,.48,0,.73s.14.28.31.33Zm.64-1.15c.34.06.54,0,.67-.22a.63.63,0,0,0,0-.66.58.58,0,0,0-.65-.16Z"/><path d="M7.16,20.22v1c.32.08.5,0,.66-.37v.9c-.16-.39-.28-.47-.65-.45,0,.3,0,.6,0,.9,0,.1.15.19.22.27H6.51c.24-.06.3-.23.3-.45V20.63c0-.22-.06-.39-.31-.45H8.21l0,.45C8,20.16,7.59,20.19,7.16,20.22Z"/><path d="M13.37,20.18h1.74l0,.51c-.23-.46-.45-.55-1.12-.46v1c.38.06.49,0,.59-.4v.86a1.32,1.32,0,0,0-.2-.32,1.34,1.34,0,0,0-.42-.11c0,.32,0,.59,0,.86a.45.45,0,0,0,.19.24.71.71,0,0,0,1-.39.19.19,0,0,1,.08-.11l0,.6h-2c.34-.07.36-.3.36-.54,0-.4,0-.81,0-1.21C13.68,20.47,13.66,20.24,13.37,20.18Z"/><path d="M19.6,20.64c-.18-.41-.34-.48-1.1-.4v1c.35.09.49,0,.6-.37v.84a1,1,0,0,0-.21-.32,1.2,1.2,0,0,0-.41-.11c0,.32,0,.59.05.85a.49.49,0,0,0,.19.26.72.72,0,0,0,1-.4.26.26,0,0,1,.07-.11.66.66,0,0,1,0,.14c0,.15,0,.3,0,.47H17.86c.26-.06.31-.27.31-.5,0-.43,0-.86,0-1.29s-.05-.36-.33-.48H19.6Z"/><path d="M31,21.22c.4,0,.47,0,.6-.38v.84a.47.47,0,0,0-.62-.39,7.86,7.86,0,0,0,0,.83.38.38,0,0,0,.2.23.72.72,0,0,0,1-.41.14.14,0,0,1,.07-.1l0,.62H30.31c.26-.06.31-.26.31-.47,0-.46,0-.91,0-1.36,0-.21-.05-.4-.31-.44h1.75v.48c-.08-.22-.19-.41-.43-.43a4.92,4.92,0,0,0-.67,0Z"/><path d="M25.08,21.84l0,.61h-2a.42.42,0,0,0,.35-.5V20.68c0-.23,0-.44-.3-.5h.95c-.26.07-.31.27-.3.5,0,.43,0,.86,0,1.29a.43.43,0,0,0,.46.45C24.68,22.44,24.85,22.33,25.08,21.84Z"/><path d="M18.6,1.6a2,2,0,0,0-.1.21c-.27.55-.27.55-.87.52a.27.27,0,0,1-.13-.11c-.08-.15-.15-.3-.22-.45a.26.26,0,0,1,.26-.4c.19,0,.38,0,.57,0A.46.46,0,0,1,18.6,1.6Z"/><path d="M16.37,20.18c-.26.14-.29.2-.2.46.17.44.34.88.56,1.33.18-.48.38-.95.53-1.43,0-.1-.07-.25-.11-.36h.5a4.1,4.1,0,0,0-.31.46c-.24.54-.46,1.09-.68,1.64,0,.06-.06.12-.11.24-.12-.3-.22-.54-.31-.78l-.46-1.17c-.07-.18-.16-.35-.38-.39Z"/><path d="M29,22.45c-.2-.53-.41-1.06-.62-1.59a1.89,1.89,0,0,0-.13-.33,3.63,3.63,0,0,0-.3-.35h.89l-.09-.08a1,1,0,0,0-.12.28.53.53,0,0,0,0,.28c.16.44.33.87.51,1.35.08-.18.15-.33.2-.47.12-.31.25-.62.36-.93s0-.29-.18-.43h.58a2.77,2.77,0,0,0-.32.47c-.24.54-.45,1.08-.68,1.62,0,.06-.05.12-.08.19Z"/><path d="M9.83,22.46a1.36,1.36,0,0,0,.05-2.27,1.16,1.16,0,0,1,1,1A1.2,1.2,0,0,1,9.83,22.46Z"/><path d="M26.65,22.46a1.36,1.36,0,0,0,0-2.27,1.16,1.16,0,0,1,1,1A1.2,1.2,0,0,1,26.65,22.46Z"/><path d="M9.4,22.46a1.14,1.14,0,0,1-.11-2.25,1.37,1.37,0,0,0-.51,1.16A1.16,1.16,0,0,0,9.4,22.46Z"/><path d="M26.19,22.45a1.13,1.13,0,0,1-.11-2.22A1.41,1.41,0,0,0,26.19,22.45Z"/><path d="M35.7,3.93c.18-.09.38-.22.59-.31a.73.73,0,0,1,1,.72,1.6,1.6,0,0,1-.36,1,3.22,3.22,0,0,1-1.16.91.31.31,0,0,1-.19,0,3.05,3.05,0,0,1-1.3-1.11A1.16,1.16,0,0,1,34.15,4,.62.62,0,0,1,35,3.6,6.66,6.66,0,0,1,35.7,3.93Z"/><path d="M31.08,3.93a4.82,4.82,0,0,1,.6-.31.73.73,0,0,1,1,.73,1.64,1.64,0,0,1-.41,1,3.36,3.36,0,0,1-1.1.84.26.26,0,0,1-.21,0,3,3,0,0,1-1.3-1.1A1.18,1.18,0,0,1,29.53,4a.62.62,0,0,1,.83-.39A6.66,6.66,0,0,1,31.08,3.93Z"/><path d="M8,3.93a4.21,4.21,0,0,1,.6-.31.72.72,0,0,1,1,.7,1.56,1.56,0,0,1-.36,1,3.33,3.33,0,0,1-1.16.91.31.31,0,0,1-.19,0,2.94,2.94,0,0,1-1.36-1.2,1.12,1.12,0,0,1-.07-1.12.62.62,0,0,1,.78-.34A7.19,7.19,0,0,1,8,3.93Z"/><path d="M12.59,4c.19-.1.36-.22.54-.3a.75.75,0,0,1,1.1.78,1.7,1.7,0,0,1-.4.94,3.23,3.23,0,0,1-1.11.86.26.26,0,0,1-.21,0A2.92,2.92,0,0,1,11.2,5.12,1.14,1.14,0,0,1,11.06,4a.66.66,0,0,1,.84-.4,2.43,2.43,0,0,1,.37.16Z"/><path d="M26.43,4a5.58,5.58,0,0,1,.64-.33.72.72,0,0,1,1,.72,1.6,1.6,0,0,1-.58,1.22,7.67,7.67,0,0,1-.92.66.23.23,0,0,1-.21,0A3,3,0,0,1,25,5.07,1.16,1.16,0,0,1,24.9,4a.66.66,0,0,1,.86-.4,1.69,1.69,0,0,1,.37.15C26.24,3.81,26.34,3.89,26.43,4Z"/><path d="M3.38,3.93A6.27,6.27,0,0,1,4,3.63a.72.72,0,0,1,1,.72,1.58,1.58,0,0,1-.55,1.19,9.2,9.2,0,0,1-1,.69.26.26,0,0,1-.21,0A2.9,2.9,0,0,1,2,5.17,1.18,1.18,0,0,1,1.82,4a.64.64,0,0,1,.86-.41A5.6,5.6,0,0,1,3.38,3.93Z"/><path d="M35.67,20.54c.21-.11.39-.24.59-.32a.74.74,0,0,1,1.05.77,1.62,1.62,0,0,1-.43,1,2.59,2.59,0,0,1-.37.37c-.92.65-.74.65-1.65,0a1.83,1.83,0,0,1-.78-1.2,1.25,1.25,0,0,1,.07-.57.64.64,0,0,1,.87-.4,3.68,3.68,0,0,1,.35.15C35.48,20.4,35.58,20.48,35.67,20.54Z"/><path d="M3.37,20.54a4.62,4.62,0,0,1,.48-.28.72.72,0,0,1,.83,0,.89.89,0,0,1,.3.88,1.85,1.85,0,0,1-.75,1.17c-.94.69-.77.7-1.69,0a1.89,1.89,0,0,1-.79-1.22.87.87,0,0,1,.31-.87.73.73,0,0,1,.8,0C3,20.33,3.19,20.44,3.37,20.54Z"/><path d="M19.62,6.41l.26-.3a1.73,1.73,0,0,0,2.06.06,1.7,1.7,0,0,0,.63-2.09,1.74,1.74,0,0,0-2-1,1.7,1.7,0,0,0-1.38,1.67,1.94,1.94,0,0,0,.16.75c.09.19.09.31-.07.42l-.1.09a2.1,2.1,0,0,1,.12-2.64,2.16,2.16,0,0,1,3-.2,2.13,2.13,0,0,1,.25,2.95A2.17,2.17,0,0,1,19.62,6.41Z"/><path d="M19.87,3.51a2.11,2.11,0,0,1-.37,2.88,2.18,2.18,0,0,1-3-.26,2.13,2.13,0,0,1,3-3l-.27.27a1.74,1.74,0,0,0-1.66-.25,1.7,1.7,0,0,0-1.11,2,1.74,1.74,0,0,0,3.43-.37,2.14,2.14,0,0,0-.14-.71C19.61,3.73,19.59,3.74,19.87,3.51Z"/><path d="M13.33,22.65c-.4,0-.4,0-.59-.37a4.29,4.29,0,0,0-.31-.55.36.36,0,0,0-.43-.16c0,.24,0,.48,0,.72a.36.36,0,0,0,.31.35h-1c.26-.05.31-.25.31-.48,0-.44,0-.88,0-1.33,0-.28,0-.33-.28-.43.39,0,.8,0,1.21,0a.51.51,0,0,1,.54.46c0,.32-.07.48-.41.62l0,0ZM12,21.5a.6.6,0,0,0,.66-.22.57.57,0,0,0,0-.64c-.16-.25-.4-.24-.66-.22Z"/><path d="M20.22,22.64a.38.38,0,0,0,.3-.41V20.79a.35.35,0,0,0-.31-.39c.43,0,.85,0,1.27,0a.53.53,0,0,1,.51.46.52.52,0,0,1-.4.61l-.05,0,.66,1.16,0,0c-.44,0-.44,0-.62-.37-.09-.18-.2-.37-.31-.55a.38.38,0,0,0-.44-.16c0,.25,0,.49,0,.74s.14.28.31.33Zm.64-1.15c.34.06.54,0,.67-.22a.61.61,0,0,0,0-.66.56.56,0,0,0-.64-.16Z"/><path d="M7.36,20.42v1c.32.08.5,0,.65-.37v.9c-.16-.4-.28-.47-.64-.45,0,.3,0,.6,0,.9,0,.1.15.19.22.26H6.7c.25-.05.3-.23.3-.44,0-.46,0-.92,0-1.38,0-.21,0-.39-.3-.44H8.4l0,.45C8.2,20.35,7.79,20.39,7.36,20.42Z"/><path d="M13.57,20.38h1.74l0,.51c-.23-.47-.46-.55-1.13-.46v1c.39.06.49,0,.6-.4v.86a1.11,1.11,0,0,0-.21-.32,1.45,1.45,0,0,0-.41-.12c0,.33,0,.6.05.87a.41.41,0,0,0,.19.24.71.71,0,0,0,1-.39.19.19,0,0,1,.08-.11l0,.6h-2c.34-.07.36-.3.36-.54V20.89C13.88,20.67,13.86,20.44,13.57,20.38Z"/><path d="M19.8,20.84c-.18-.41-.35-.48-1.1-.4v1c.35.08.49,0,.6-.37v.84a1,1,0,0,0-.21-.32,1.27,1.27,0,0,0-.41-.11,7.21,7.21,0,0,0,.05.85.53.53,0,0,0,.19.26.73.73,0,0,0,1-.41A.2.2,0,0,1,20,22a.66.66,0,0,1,0,.14l0,.46H18.06c.26-.06.31-.26.31-.49,0-.43,0-.86,0-1.29s-.06-.36-.33-.48H19.8Z"/><path d="M31.16,21.42c.4,0,.47,0,.6-.38v.84a.47.47,0,0,0-.63-.39c0,.27,0,.55.06.83a.42.42,0,0,0,.19.23.73.73,0,0,0,1-.41.14.14,0,0,1,.07-.1l0,.62H30.51c.26-.07.31-.26.31-.48q0-.67,0-1.35c0-.21-.05-.4-.31-.45h1.75v.49c-.08-.22-.2-.41-.43-.44s-.44,0-.67,0Z"/><path d="M25.28,22l0,.61h-2c.32-.06.37-.26.36-.49V20.88c0-.23,0-.44-.3-.5h1c-.26.07-.31.27-.31.5,0,.43,0,.86,0,1.29s.16.43.46.45S25.05,22.52,25.28,22Z"/><path d="M18.8,1.8a2,2,0,0,0-.1.21c-.27.55-.27.55-.87.51a.2.2,0,0,1-.13-.1c-.08-.15-.15-.3-.22-.46a.26.26,0,0,1,.25-.4,5.42,5.42,0,0,0,.57,0A.48.48,0,0,1,18.8,1.8Z"/><path d="M16.57,20.38c-.26.14-.29.2-.2.45.17.45.34.89.56,1.34.18-.48.38-1,.53-1.43,0-.1-.07-.25-.11-.36h.5a2.47,2.47,0,0,0-.31.46c-.24.54-.46,1.09-.69,1.64a2,2,0,0,1-.11.24c-.11-.3-.21-.54-.3-.78-.16-.39-.31-.78-.46-1.18-.07-.18-.16-.34-.38-.38Z"/><path d="M29.17,22.65l-.62-1.59a1.89,1.89,0,0,0-.13-.33c-.1-.13-.21-.25-.3-.35H29l-.09-.08a1,1,0,0,0-.12.28.55.55,0,0,0,0,.28c.16.44.32.87.51,1.35l.2-.47c.12-.31.25-.62.36-.93s0-.29-.18-.43h.58a2.77,2.77,0,0,0-.32.47c-.24.54-.46,1.08-.68,1.62a1.42,1.42,0,0,0-.08.18Z"/><path d="M10,22.66a1.36,1.36,0,0,0,0-2.27,1.15,1.15,0,0,1,1,1.05A1.2,1.2,0,0,1,10,22.66Z"/><path d="M26.85,22.66a1.36,1.36,0,0,0,0-2.27,1.16,1.16,0,0,1,1,1.05A1.21,1.21,0,0,1,26.85,22.66Z"/><path d="M9.6,22.65a1.13,1.13,0,0,1-1-1.06,1.15,1.15,0,0,1,.89-1.18A1.32,1.32,0,0,0,9,21.57,1.14,1.14,0,0,0,9.6,22.65Z"/><path d="M26.39,22.65a1.12,1.12,0,0,1-1-1.07,1.13,1.13,0,0,1,.86-1.16A1.42,1.42,0,0,0,26.39,22.65Z"/></g><g class="cls-3"><path d="M35.36,3.59c.18-.09.38-.22.59-.31A.73.73,0,0,1,37,4a1.6,1.6,0,0,1-.36,1,3.22,3.22,0,0,1-1.16.91.31.31,0,0,1-.19,0A3.14,3.14,0,0,1,34,4.8a1.18,1.18,0,0,1-.14-1.16.62.62,0,0,1,.83-.38A6.66,6.66,0,0,1,35.36,3.59Z"/><path d="M30.74,3.59a4.82,4.82,0,0,1,.6-.31.73.73,0,0,1,1,.73,1.64,1.64,0,0,1-.41,1,3.36,3.36,0,0,1-1.1.84.26.26,0,0,1-.21,0,3,3,0,0,1-1.3-1.1,1.21,1.21,0,0,1-.16-1.15A.64.64,0,0,1,30,3.26,6.66,6.66,0,0,1,30.74,3.59Z"/><path d="M7.66,3.59a4.21,4.21,0,0,1,.6-.31.72.72,0,0,1,1,.7,1.56,1.56,0,0,1-.36,1,3.33,3.33,0,0,1-1.16.91.31.31,0,0,1-.19,0A2.94,2.94,0,0,1,6.2,4.71a1.12,1.12,0,0,1-.07-1.12.62.62,0,0,1,.78-.34A7.19,7.19,0,0,1,7.66,3.59Z"/><path d="M12.25,3.61c.19-.1.36-.22.54-.3a.75.75,0,0,1,1.1.78,1.7,1.7,0,0,1-.4.94,3.23,3.23,0,0,1-1.11.86.26.26,0,0,1-.21,0,2.92,2.92,0,0,1-1.31-1.12,1.14,1.14,0,0,1-.14-1.13.66.66,0,0,1,.84-.4,2.43,2.43,0,0,1,.37.16Z"/><path d="M26.09,3.61a5.58,5.58,0,0,1,.64-.33.72.72,0,0,1,1,.71,1.61,1.61,0,0,1-.58,1.23,7.67,7.67,0,0,1-.92.66.23.23,0,0,1-.21,0,3,3,0,0,1-1.35-1.18,1.16,1.16,0,0,1-.12-1.07.66.66,0,0,1,.86-.4,1.69,1.69,0,0,1,.37.15C25.9,3.47,26,3.55,26.09,3.61Z"/><path d="M3,3.59a6.27,6.27,0,0,1,.58-.3.72.72,0,0,1,1,.72A1.58,1.58,0,0,1,4.1,5.2a9.2,9.2,0,0,1-.95.69.26.26,0,0,1-.21,0A2.9,2.9,0,0,1,1.66,4.83a1.18,1.18,0,0,1-.18-1.16.64.64,0,0,1,.86-.41A5.6,5.6,0,0,1,3,3.59Z"/><path d="M35.33,20.2a5.7,5.7,0,0,1,.59-.32.74.74,0,0,1,1,.77,1.62,1.62,0,0,1-.43,1,2.59,2.59,0,0,1-.37.37c-.92.65-.74.65-1.65,0a1.83,1.83,0,0,1-.78-1.2,1.25,1.25,0,0,1,.07-.57.64.64,0,0,1,.87-.4A3.68,3.68,0,0,1,35,20C35.14,20.06,35.24,20.14,35.33,20.2Z"/><path d="M3,20.2a4.62,4.62,0,0,1,.48-.28.72.72,0,0,1,.83,0,.89.89,0,0,1,.3.88A1.85,1.85,0,0,1,3.89,22c-.94.69-.77.7-1.69,0a1.89,1.89,0,0,1-.79-1.22.87.87,0,0,1,.31-.87.73.73,0,0,1,.8,0C2.7,20,2.85,20.1,3,20.2Z"/><path d="M19.28,6.07l.26-.3a1.73,1.73,0,0,0,2.06.06,1.7,1.7,0,0,0,.63-2.09,1.74,1.74,0,0,0-2-1,1.7,1.7,0,0,0-1.38,1.67,1.94,1.94,0,0,0,.16.75c.09.19.09.31-.07.42l-.1.09A2.1,2.1,0,0,1,19,3a2.16,2.16,0,0,1,3-.2,2.13,2.13,0,0,1,.25,3A2.17,2.17,0,0,1,19.28,6.07Z"/><path d="M19.53,3.17a2.11,2.11,0,0,1-.37,2.88,2.18,2.18,0,0,1-3-.26,2.13,2.13,0,0,1,3-3L18.86,3a1.74,1.74,0,0,0-1.66-.25,1.7,1.7,0,0,0-1.11,2,1.74,1.74,0,0,0,3.43-.37,2.24,2.24,0,0,0-.14-.72C19.27,3.39,19.25,3.4,19.53,3.17Z"/><path d="M13,22.31c-.4,0-.4,0-.59-.37a4.29,4.29,0,0,0-.31-.55.36.36,0,0,0-.43-.16c0,.24,0,.48,0,.72a.36.36,0,0,0,.31.35H11c.26-.05.31-.25.31-.48,0-.44,0-.88,0-1.33,0-.28,0-.33-.28-.43.39,0,.8,0,1.21,0a.51.51,0,0,1,.54.46c0,.32-.07.48-.41.62,0,0,0,0,0,0Zm-1.32-1.15a.6.6,0,0,0,.66-.22.57.57,0,0,0,0-.64c-.16-.25-.4-.24-.66-.22Z"/><path d="M19.88,22.3a.38.38,0,0,0,.3-.41V20.45a.35.35,0,0,0-.31-.39c.43,0,.85,0,1.27,0a.53.53,0,0,1,.51.46.52.52,0,0,1-.4.61l-.05,0,.66,1.16,0,0c-.44,0-.44,0-.62-.37a6,6,0,0,0-.31-.55.38.38,0,0,0-.44-.16c0,.25,0,.49,0,.74s.14.28.31.33Zm.64-1.15c.34.06.54,0,.67-.22a.61.61,0,0,0,0-.66.56.56,0,0,0-.64-.16Z"/><path d="M7,20.08v1c.32.08.5,0,.65-.37v.9c-.16-.4-.28-.47-.64-.45,0,.3,0,.6,0,.9,0,.1.15.19.22.26h-.9c.25-.05.3-.23.3-.44,0-.46,0-.92,0-1.38,0-.21,0-.39-.3-.44h1.7l0,.44C7.86,20,7.45,20.05,7,20.08Z"/><path d="M13.23,20H15l0,.51c-.23-.47-.46-.55-1.13-.46v1c.39.06.49,0,.6-.4v.86a1.11,1.11,0,0,0-.21-.32,1.45,1.45,0,0,0-.41-.12c0,.33,0,.6.05.87a.41.41,0,0,0,.19.24.72.72,0,0,0,1-.39.17.17,0,0,1,.08-.11l0,.6h-2c.35-.07.37-.3.37-.54V20.55C13.53,20.33,13.52,20.1,13.23,20Z"/><path d="M19.46,20.5c-.18-.41-.35-.48-1.1-.4v1c.35.08.49,0,.6-.37v.84a1,1,0,0,0-.21-.32,1.27,1.27,0,0,0-.41-.11,7.21,7.21,0,0,0,.05.85.53.53,0,0,0,.19.26.73.73,0,0,0,1-.41.2.2,0,0,1,.07-.1v.14l0,.46H17.72c.26-.06.31-.26.31-.49,0-.43,0-.86,0-1.29S18,20.16,17.7,20h1.76Z"/><path d="M30.82,21.08c.4,0,.47,0,.6-.38v.84a.47.47,0,0,0-.63-.39c0,.27,0,.55.06.83a.42.42,0,0,0,.19.23.72.72,0,0,0,1-.42.14.14,0,0,1,.07-.09l0,.62H30.17c.26-.07.31-.26.31-.48q0-.68,0-1.35c0-.21-.05-.4-.31-.45h1.75v.49c-.08-.22-.2-.41-.43-.44s-.44,0-.67,0Z"/><path d="M24.94,21.69l0,.61h-2c.32-.06.37-.26.36-.49V20.54c0-.23,0-.44-.3-.5h1c-.26.07-.31.27-.31.5,0,.43,0,.86,0,1.29s.16.43.46.45S24.71,22.18,24.94,21.69Z"/><path d="M18.46,1.46a2,2,0,0,0-.1.21c-.27.55-.27.55-.87.51,0,0-.1-.05-.13-.1s-.15-.3-.22-.46,0-.39.25-.4a5.42,5.42,0,0,0,.57,0A.48.48,0,0,1,18.46,1.46Z"/><path d="M16.23,20c-.26.14-.29.2-.2.45.17.45.34.89.56,1.34.18-.48.38-.95.53-1.43,0-.1-.07-.25-.11-.36h.5a2.47,2.47,0,0,0-.31.46c-.24.54-.46,1.09-.69,1.63a1.16,1.16,0,0,1-.11.24l-.3-.77c-.16-.39-.31-.78-.46-1.18-.07-.18-.16-.34-.38-.38Z"/><path d="M28.83,22.31l-.62-1.59a1.89,1.89,0,0,0-.13-.33c-.1-.13-.21-.25-.3-.35h.89L28.58,20a1,1,0,0,0-.12.28.55.55,0,0,0,0,.28c.16.44.32.87.51,1.35l.2-.47c.12-.31.25-.62.36-.93s0-.29-.18-.43H30a2.77,2.77,0,0,0-.32.47c-.24.54-.46,1.08-.68,1.62a1.42,1.42,0,0,0-.08.18Z"/><path d="M9.69,22.32a1.36,1.36,0,0,0,0-2.27,1.15,1.15,0,0,1,1,1.05A1.2,1.2,0,0,1,9.69,22.32Z"/><path d="M26.51,22.32a1.36,1.36,0,0,0,0-2.27,1.16,1.16,0,0,1,1,1.05A1.21,1.21,0,0,1,26.51,22.32Z"/><path d="M9.26,22.31a1.13,1.13,0,0,1-1-1.06,1.15,1.15,0,0,1,.89-1.18,1.32,1.32,0,0,0-.51,1.16A1.14,1.14,0,0,0,9.26,22.31Z"/><path d="M26.05,22.31a1.11,1.11,0,0,1-1-1.07,1.13,1.13,0,0,1,.86-1.16A1.42,1.42,0,0,0,26.05,22.31Z"/></g><path class="cls-4" d="M35.56,3.79a4.68,4.68,0,0,1,.59-.31.73.73,0,0,1,1,.72,1.55,1.55,0,0,1-.37,1,3.19,3.19,0,0,1-1.15.91.25.25,0,0,1-.19,0A3,3,0,0,1,34.15,5,1.18,1.18,0,0,1,34,3.84a.62.62,0,0,1,.83-.38A6.66,6.66,0,0,1,35.56,3.79Z"/><path class="cls-4" d="M30.94,3.79a4.82,4.82,0,0,1,.6-.31.73.73,0,0,1,1,.72,1.71,1.71,0,0,1-.41,1,3.26,3.26,0,0,1-1.1.85.26.26,0,0,1-.21,0A2.91,2.91,0,0,1,29.54,5a1.19,1.19,0,0,1-.16-1.15.63.63,0,0,1,.84-.39A6.66,6.66,0,0,1,30.94,3.79Z"/><path class="cls-4" d="M7.86,3.79a4.21,4.21,0,0,1,.6-.31.72.72,0,0,1,1,.7,1.62,1.62,0,0,1-.36,1A3.19,3.19,0,0,1,8,6.09a.25.25,0,0,1-.19,0A3,3,0,0,1,6.4,4.91a1.11,1.11,0,0,1-.07-1.13.62.62,0,0,1,.78-.33A5.58,5.58,0,0,1,7.86,3.79Z"/><path class="cls-4" d="M12.45,3.81a5.7,5.7,0,0,1,.54-.3.74.74,0,0,1,1.09.78,1.62,1.62,0,0,1-.39.94,3.23,3.23,0,0,1-1.11.86.26.26,0,0,1-.21,0A3,3,0,0,1,11.06,5a1.15,1.15,0,0,1-.14-1.13.64.64,0,0,1,.84-.4,3,3,0,0,1,.37.16Z"/><path class="cls-4" d="M26.29,3.8c.23-.11.42-.24.64-.32a.72.72,0,0,1,1,.71,1.61,1.61,0,0,1-.58,1.23,8.56,8.56,0,0,1-.92.66.26.26,0,0,1-.21,0,3,3,0,0,1-1.35-1.18,1.16,1.16,0,0,1-.12-1.07.66.66,0,0,1,.86-.41,2.32,2.32,0,0,1,.36.16A2.81,2.81,0,0,1,26.29,3.8Z"/><path class="cls-4" d="M3.23,3.79c.19-.09.38-.22.58-.3a.72.72,0,0,1,1,.71A1.58,1.58,0,0,1,4.3,5.4a9.2,9.2,0,0,1-.95.69.28.28,0,0,1-.22,0A2.94,2.94,0,0,1,1.86,5a1.21,1.21,0,0,1-.19-1.16.65.65,0,0,1,.87-.41A5.47,5.47,0,0,1,3.23,3.79Z"/><path class="cls-4" d="M35.53,20.4a5.7,5.7,0,0,1,.59-.32.73.73,0,0,1,1.05.76,1.68,1.68,0,0,1-.43,1,1.86,1.86,0,0,1-.38.36c-.91.65-.73.66-1.64,0a1.82,1.82,0,0,1-.78-1.2,1.25,1.25,0,0,1,.07-.57.63.63,0,0,1,.87-.4,2.17,2.17,0,0,1,.35.15C35.34,20.26,35.44,20.34,35.53,20.4Z"/><path class="cls-4" d="M3.23,20.4c.16-.1.31-.2.47-.28a.74.74,0,0,1,.84,0,.89.89,0,0,1,.3.88,1.81,1.81,0,0,1-.75,1.16c-.94.7-.77.71-1.69,0A1.84,1.84,0,0,1,1.61,21a.87.87,0,0,1,.31-.87.73.73,0,0,1,.8,0C2.89,20.19,3.05,20.3,3.23,20.4Z"/><path class="cls-4" d="M19.48,6.27l.26-.3A1.73,1.73,0,0,0,21.8,6a1.7,1.7,0,0,0,.63-2.09,1.76,1.76,0,0,0-2-1,1.7,1.7,0,0,0-1.37,1.68,1.94,1.94,0,0,0,.16.75c.08.19.08.3-.08.42l-.09.09A2.1,2.1,0,0,1,19.2,3.2a2.17,2.17,0,0,1,3-.21,2.14,2.14,0,0,1-2.76,3.28Z"/><path class="cls-4" d="M19.73,3.37a2.12,2.12,0,0,1-.37,2.88,2.18,2.18,0,0,1-3-.26,2.13,2.13,0,0,1,.17-3A2.16,2.16,0,0,1,19.33,3l-.27.27A1.77,1.77,0,0,0,17.4,3a1.72,1.72,0,0,0-1.11,2,1.74,1.74,0,0,0,3.43-.37,2.24,2.24,0,0,0-.14-.72C19.46,3.59,19.44,3.59,19.73,3.37Z"/><path class="cls-4" d="M13.19,22.51c-.41,0-.4,0-.59-.37a6,6,0,0,0-.31-.55.36.36,0,0,0-.43-.16c0,.24,0,.48,0,.72a.36.36,0,0,0,.31.35h-.95c.26-.06.31-.25.3-.48,0-.44,0-.89,0-1.33,0-.28,0-.34-.28-.43.39,0,.8,0,1.21,0a.51.51,0,0,1,.54.46c0,.32-.08.48-.41.62l0,0Zm-1.33-1.15a.61.61,0,0,0,.67-.22.59.59,0,0,0,0-.64c-.16-.25-.4-.25-.67-.22Z"/><path class="cls-4" d="M20.07,22.5a.37.37,0,0,0,.3-.41V20.65a.34.34,0,0,0-.3-.39c.43,0,.85,0,1.27,0a.54.54,0,0,1,.11,1.07l-.05,0,.66,1.15h0c-.44,0-.44,0-.62-.37a6,6,0,0,0-.31-.55.37.37,0,0,0-.44-.16c0,.25,0,.49,0,.74s.13.28.3.33Zm.65-1.15a.57.57,0,0,0,.67-.22.61.61,0,0,0,0-.66.58.58,0,0,0-.64-.17Z"/><path class="cls-4" d="M7.22,20.28v1c.32.08.5,0,.65-.37v.9c-.16-.4-.28-.48-.64-.45,0,.3,0,.6,0,.9,0,.1.15.19.22.26h-.9c.25-.05.3-.23.3-.44V20.68c0-.21-.06-.39-.3-.44h1.7l0,.44C8.06,20.21,7.65,20.25,7.22,20.28Z"/><path class="cls-4" d="M13.43,20.24h1.74l0,.51c-.24-.47-.46-.55-1.13-.46v1c.38.06.49,0,.6-.4v.86a1,1,0,0,0-.21-.32,1.43,1.43,0,0,0-.42-.12c0,.33,0,.6.06.87a.39.39,0,0,0,.18.24.72.72,0,0,0,1-.39.15.15,0,0,1,.07-.11l0,.6h-2c.35-.07.37-.3.37-.55v-1.2C13.73,20.52,13.71,20.3,13.43,20.24Z"/><path class="cls-4" d="M19.66,20.7c-.18-.41-.35-.48-1.1-.41v1c.35.08.48,0,.6-.37v.84A1,1,0,0,0,19,21.4a1.37,1.37,0,0,0-.41-.1,7.34,7.34,0,0,0,.05.85.39.39,0,0,0,.19.25.72.72,0,0,0,1-.4.2.2,0,0,1,.07-.1V22l0,.47H17.91c.27-.06.32-.26.32-.49V20.72c0-.3-.06-.36-.33-.48h1.76Z"/><path class="cls-4" d="M31,21.28c.4,0,.47,0,.6-.38v.84a.47.47,0,0,0-.63-.39c0,.27,0,.55.06.83a.42.42,0,0,0,.19.23.72.72,0,0,0,1-.42.14.14,0,0,1,.07-.09l0,.61H30.37c.26-.06.31-.25.31-.47q0-.67,0-1.35c0-.21-.06-.4-.31-.45h1.75v.49c-.08-.22-.2-.41-.43-.44s-.44,0-.67,0Z"/><path class="cls-4" d="M25.14,21.89l0,.61h-2c.32-.06.36-.26.36-.49V20.74c0-.23,0-.44-.3-.51h.94c-.25.08-.3.28-.3.51,0,.43,0,.86,0,1.29a.42.42,0,0,0,.45.45C24.74,22.5,24.91,22.38,25.14,21.89Z"/><path class="cls-4" d="M18.65,1.66a2,2,0,0,1-.1.21c-.26.55-.26.55-.86.51-.05,0-.1-.06-.13-.1s-.15-.3-.22-.46,0-.39.25-.4a5.42,5.42,0,0,0,.57,0A.46.46,0,0,1,18.65,1.66Z"/><path class="cls-4" d="M16.43,20.24c-.27.13-.29.2-.2.45A12.71,12.71,0,0,0,16.79,22c.18-.48.37-1,.53-1.43,0-.1-.07-.25-.11-.36h.5a2.18,2.18,0,0,0-.31.46c-.24.54-.46,1.09-.69,1.63a1.16,1.16,0,0,1-.11.24l-.3-.77c-.16-.39-.31-.78-.46-1.18-.08-.18-.16-.34-.38-.38Z"/><path class="cls-4" d="M29,22.51l-.62-1.59a1.36,1.36,0,0,0-.14-.33c-.09-.13-.21-.25-.29-.35h.88l-.08-.08a1.43,1.43,0,0,0-.13.28.56.56,0,0,0,.05.28c.16.44.32.87.51,1.35l.2-.48c.12-.3.25-.61.35-.92s0-.29-.17-.43h.58a2.77,2.77,0,0,0-.32.47c-.24.53-.46,1.08-.68,1.62l-.09.18Z"/><path class="cls-4" d="M9.89,22.52a1.36,1.36,0,0,0,0-2.27,1.15,1.15,0,0,1,1,1.05A1.2,1.2,0,0,1,9.89,22.52Z"/><path class="cls-4" d="M26.7,22.52a1.36,1.36,0,0,0,.05-2.27,1.15,1.15,0,0,1,1,1.05A1.22,1.22,0,0,1,26.7,22.52Z"/><path class="cls-4" d="M9.46,22.51a1.13,1.13,0,0,1-1-1.06,1.15,1.15,0,0,1,.89-1.18,1.32,1.32,0,0,0-.51,1.16A1.14,1.14,0,0,0,9.46,22.51Z"/><path class="cls-4" d="M26.25,22.51a1.11,1.11,0,0,1-1-1.07,1.13,1.13,0,0,1,.86-1.16A1.42,1.42,0,0,0,26.25,22.51Z"/></g></g></svg>