<svg xmlns="http://www.w3.org/2000/svg" viewBox="0 0 38.55 24.66"><defs><style>.cls-1{isolation:isolate;}.cls-2{opacity:0.15;}.cls-2,.cls-3{mix-blend-mode:multiply;}.cls-4{fill:#fff;}</style></defs><title>convert-FIX-SVG-03</title><g class="cls-1"><g id="Layer_1" data-name="Layer 1"><g class="cls-2"><path d="M19.24,1.65c2.14.09,4.29.13,6.43.27,1.94.13,3.88.36,5.81.54a.44.44,0,0,1,.36.21A9.41,9.41,0,0,0,35.73,6a.33.33,0,0,1,.16.19,22.15,22.15,0,0,1,.79,4.27,21.35,21.35,0,0,1,0,3.75,21.66,21.66,0,0,1-.84,4.3.31.31,0,0,1-.16.18A9.63,9.63,0,0,0,31.87,22a.41.41,0,0,1-.25.15c-1.13.13-2.27.27-3.4.37-1.29.11-2.58.19-3.87.27-2.29.15-4.6.18-6.9.12-1.77,0-3.54-.13-5.3-.25-1.56-.1-3.11-.28-4.66-.42h0a1.11,1.11,0,0,1-1-.56,9,9,0,0,0-3.65-2.93.39.39,0,0,1-.17-.19,22.29,22.29,0,0,1-.79-3.95,21.09,21.09,0,0,1-.08-3.64,22.22,22.22,0,0,1,.82-4.65.31.31,0,0,1,.16-.18,9.35,9.35,0,0,0,4-3.44.4.4,0,0,1,.34-.19c1-.1,2-.23,2.94-.32s1.83-.17,2.75-.22C15,1.81,17.09,1.74,19.24,1.65Zm.33.74c-1.89,0-3.46.09-5,.15-1.15,0-2.29.13-3.43.22S8.77,3,7.59,3.12a.52.52,0,0,0-.41.24A10.23,10.23,0,0,1,3.39,6.6a.36.36,0,0,0-.18.22,20.85,20.85,0,0,0-.69,6.85A21.3,21.3,0,0,0,3.26,18a.33.33,0,0,0,.15.21,10.32,10.32,0,0,1,3.76,3.15.37.37,0,0,0,.22.12c1.42.15,2.84.33,4.27.42,2,.13,3.95.24,5.92.29,1.62,0,3.23,0,4.85,0,1.4,0,2.79-.11,4.18-.22s3-.3,4.51-.44a.46.46,0,0,0,.36-.2,10.37,10.37,0,0,1,3.56-3,.46.46,0,0,0,.19-.27A21.69,21.69,0,0,0,36,13.63a21.22,21.22,0,0,0-.7-6.87.41.41,0,0,0-.18-.21,10.24,10.24,0,0,1-3.68-3.21.49.49,0,0,0-.36-.21c-1.82-.17-3.64-.38-5.46-.49C23.48,2.51,21.36,2.46,19.57,2.39Z"/><path d="M35.27,2.27a.87.87,0,0,1,.85-.06.64.64,0,0,1,.23,1,1.08,1.08,0,0,1-.8.43c-.48,0-1,0-1.47,0a.16.16,0,0,1-.11-.1,3.31,3.31,0,0,1-.09-1.71,1.69,1.69,0,0,1,.27-.47A.65.65,0,0,1,35,1.19a.79.79,0,0,1,.35.88C35.34,2.12,35.31,2.17,35.27,2.27Z"/><path d="M3.22,21.94a.84.84,0,0,1-1,0A.62.62,0,0,1,2.1,21,1.13,1.13,0,0,1,3,20.55c.47,0,.94,0,1.41,0a.16.16,0,0,1,.12.09,3.29,3.29,0,0,1,.08,1.76,1.2,1.2,0,0,1-.25.42.64.64,0,0,1-.87.16.77.77,0,0,1-.33-.89A1.64,1.64,0,0,1,3.22,21.94Z"/><path d="M35.28,22a.81.81,0,0,1-.14,1,.69.69,0,0,1-1.1-.21,1.63,1.63,0,0,1-.22-.8A8.33,8.33,0,0,1,34,20.71a.22.22,0,0,1,.11-.12,3.92,3.92,0,0,1,1.6,0,1.54,1.54,0,0,1,.49.22.7.7,0,0,1,.28.89.8.8,0,0,1-1,.34Z"/><path d="M3.21,2.26a.76.76,0,0,1,.13-1,.64.64,0,0,1,.93,0,1.26,1.26,0,0,1,.41,1A11.54,11.54,0,0,1,4.52,3.5a.21.21,0,0,1-.11.13,3.94,3.94,0,0,1-1.64,0,1.43,1.43,0,0,1-.45-.21A.69.69,0,0,1,2,2.53a.81.81,0,0,1,1-.36Z"/><path d="M18.81,21.13c-1.41-.05-3.26-.07-5.09-.19S9.88,20.62,8,20.45a.26.26,0,0,1-.17-.09,11.55,11.55,0,0,0-3.48-2.93.35.35,0,0,1-.12-.17,19.63,19.63,0,0,1-.61-5.91,19.36,19.36,0,0,1,.56-3.8.38.38,0,0,1,.17-.24,11.39,11.39,0,0,0,3.52-3,.5.5,0,0,1,.29-.16C10,4,11.93,3.77,13.84,3.64a79.45,79.45,0,0,1,8.31-.12c1.82.07,3.64.2,5.45.33,1,.06,1.94.18,2.91.29a.45.45,0,0,1,.27.16,11.42,11.42,0,0,0,3.39,3,.44.44,0,0,1,.17.23,19.82,19.82,0,0,1,.55,6.19,19.2,19.2,0,0,1-.6,3.6.43.43,0,0,1-.2.26,11.37,11.37,0,0,0-3.2,2.74.47.47,0,0,1-.35.18c-1.28.12-2.56.27-3.84.37s-2.5.17-3.76.22S20.47,21.09,18.81,21.13Zm-3.62-11L15,9.91,13.7,8.56c-.11-.11-.19-.22,0-.37h-1a2.18,2.18,0,0,1,.08.4q0,1,0,1.95a2.63,2.63,0,0,1-.07.49h.74a4,4,0,0,1-.07-.46c0-.18,0-.36,0-.55V9.07c.57.61,1.11,1.16,1.64,1.73,0,0,0,.15,0,.23h.82a3.39,3.39,0,0,1-.08-.39v-2c0-.14.05-.28.07-.41h-.8c.06.09.13.16.13.23C15.19,9,15.19,9.5,15.19,10.08ZM22,11h1a5.54,5.54,0,0,1-.94-1.12l.1,0A.78.78,0,0,0,22.86,9c0-.5-.21-.72-.74-.82a1.86,1.86,0,0,0-.33,0H19.9a2.47,2.47,0,0,1,.08.43c0,.65,0,1.31,0,2a3.47,3.47,0,0,1-.06.45h.82c-.22-.37-.07-.75-.12-1.12h.65a.31.31,0,0,1,.19.11c.18.24.36.5.53.76A.78.78,0,0,1,22,11ZM19,9l.33-.66c-.18,0-.31-.06-.44-.1a2.93,2.93,0,0,0-1.44-.09,1.43,1.43,0,0,0-1.19,1.28,1.36,1.36,0,0,0,1,1.53,2.9,2.9,0,0,0,2.3-.31,1.26,1.26,0,0,1,0-1.09,11.56,11.56,0,0,1-1.56-.07v.66c.27-.32.6-.11.89-.18.06.39,0,.45-.31.51a2.76,2.76,0,0,1-.86,0,.88.88,0,0,1-.78-.86.94.94,0,0,1,.67-1,1.72,1.72,0,0,1,1.18.1C18.8,8.83,18.86,8.92,19,9ZM10.6,11.11l.5-.06A1.42,1.42,0,0,0,12.28,9.7a1.37,1.37,0,0,0-1.07-1.49,2.62,2.62,0,0,0-1.08,0A1.41,1.41,0,0,0,9,10,1.53,1.53,0,0,0,10.6,11.11Zm4.32,5.67a4,4,0,0,0,.5-.06,1.41,1.41,0,0,0,1.18-1.37,1.38,1.38,0,0,0-1.07-1.47,2.75,2.75,0,0,0-1.07,0,1.42,1.42,0,0,0-1.1,1.87A1.5,1.5,0,0,0,14.92,16.78Zm8.39,0c.17,0,.34,0,.5-.07A1.41,1.41,0,0,0,25,15.35a1.39,1.39,0,0,0-1.08-1.47,2.7,2.7,0,0,0-1.06,0,1.43,1.43,0,0,0-1.11,1.86A1.53,1.53,0,0,0,23.31,16.79Zm7.1-6,.31.08a5.31,5.31,0,0,0,.74.24,2,2,0,0,0,1.32-.19.8.8,0,0,0,.38-.87.6.6,0,0,0-.53-.57l-1.2-.22c-.14,0-.31,0-.31-.24s.15-.27.32-.3a1.33,1.33,0,0,1,1.39.39l.33-.6c-.16-.05-.29-.07-.41-.12a2.09,2.09,0,0,0-1.66-.11.79.79,0,0,0-.58.85c0,.44.16.58.68.69.34.07.68.11,1,.17.14,0,.33.06.34.26s-.17.29-.35.32a1.33,1.33,0,0,1-1.48-.47Zm-5,3.11a3,3,0,0,1,.08.39c0,.51,0,1,0,1.52a.82.82,0,0,0,.6.88,2.67,2.67,0,0,0,1.7,0,.69.69,0,0,0,.53-.66c0-.54,0-1.07,0-1.61a3,3,0,0,1,.07-.51h-.8c0,.09.12.16.12.23,0,.54,0,1.07,0,1.61,0,.35-.16.48-.52.52a1.82,1.82,0,0,1-.57,0,.51.51,0,0,1-.52-.58c0-.35,0-.7,0-1s-.08-.52.15-.74ZM8.25,10.06a2,2,0,0,1-.28.29,1.62,1.62,0,0,1-1.16.19A.94.94,0,0,1,6,9.64a.89.89,0,0,1,.74-.94,2.21,2.21,0,0,1,.81,0,.72.72,0,0,1,.65.49l.39-.61-.46-.21a2.29,2.29,0,0,0-1.6-.21A1.45,1.45,0,0,0,6.45,11a2.19,2.19,0,0,0,1.73-.22c.13-.07.28-.11.44-.18Zm18.57,1c-.13-.22-.26-.42-.37-.63-.31-.6-.61-1.21-.91-1.82-.07-.13-.15-.27.07-.4H24.48c.26.16.16.31.09.46-.3.62-.59,1.24-.9,1.86-.09.18-.2.35-.3.52h1c-.26-.14-.2-.28-.11-.43s0-.11.08-.15a.31.31,0,0,1,.19-.11h1a.2.2,0,0,1,.13,0,.62.62,0,0,1,.11.67Zm-7,3.93-.45-.66c-.09-.14-.26-.28,0-.45H18.14c.11.1.2.16.27.24a1.71,1.71,0,0,1,.2.27,5.17,5.17,0,0,0,.39.53,1.62,1.62,0,0,1,.44,1.39c0,.14-.05.28-.08.42h.81a4,4,0,0,1-.09-.45,2.9,2.9,0,0,1,0-.51,1,1,0,0,1,.13-.4c.23-.36.48-.7.74-1,.11-.15.26-.3.39-.45H20.28c0,.11.09.23,0,.29C20.16,14.43,20,14.68,19.77,15ZM30,8.09a4.14,4.14,0,0,1-.44.08H27.67c-.15,0-.31-.05-.47-.07v.71c.08-.07.15-.16.22-.16.28,0,.57,0,.87,0,0,.68,0,1.34,0,2a1.89,1.89,0,0,1-.08.4H29a2.67,2.67,0,0,1-.07-.47c0-.42,0-.83,0-1.25V8.64h.61c.18,0,.37-.06.5.16ZM11.9,16.71a4.53,4.53,0,0,1-.08-.49c0-.26,0-.53,0-.79V14.31h.65c.16,0,.34,0,.45.16v-.7a3.35,3.35,0,0,1-.44.07H10.56a2.54,2.54,0,0,1-.47-.07v.71c.08-.06.14-.15.21-.16h.88c0,.68,0,1.35,0,2a1.8,1.8,0,0,1-.07.38Z"/><path d="M20.63,9.44V8.62c.45,0,.9,0,1.34.07.19,0,.24.18.24.35s-.06.33-.26.35-.56,0-.84,0Z"/><path d="M10.63,10.58a1,1,0,0,1-1-1,1,1,0,0,1,1-1,1,1,0,1,1,0,1.94Z"/><path d="M14,15.29a1,1,0,0,1,1-1,1,1,0,1,1,0,2A1,1,0,0,1,14,15.29Z"/><path d="M22.33,15.26a1,1,0,1,1,1,1A1,1,0,0,1,22.33,15.26Z"/><path d="M24.58,9.9l.46-1,.45,1Z"/><path d="M19.44,1.85c2.14.09,4.29.13,6.43.27,1.94.12,3.87.35,5.81.54a.42.42,0,0,1,.36.21,9.44,9.44,0,0,0,3.88,3.37.35.35,0,0,1,.17.19,22.15,22.15,0,0,1,.79,4.27,21.35,21.35,0,0,1,0,3.75,22.4,22.4,0,0,1-.84,4.3.35.35,0,0,1-.16.18,9.69,9.69,0,0,0-3.8,3.21.38.38,0,0,1-.25.16c-1.13.13-2.27.27-3.4.37-1.29.11-2.58.19-3.87.27-2.3.15-4.6.18-6.9.12-1.77,0-3.54-.13-5.31-.25-1.55-.1-3.1-.28-4.65-.43h0a1.12,1.12,0,0,1-1-.56A9.08,9.08,0,0,0,3,18.88a.31.31,0,0,1-.16-.18,22.22,22.22,0,0,1-.79-4A21,21,0,0,1,2,11.11a21.79,21.79,0,0,1,.82-4.66A.33.33,0,0,1,3,6.28,9.35,9.35,0,0,0,7,2.84a.41.41,0,0,1,.34-.2c1-.1,2-.22,2.94-.31s1.83-.18,2.75-.22C15.15,2,17.29,1.94,19.44,1.85Zm.33.74c-1.89.05-3.46.08-5,.15-1.14,0-2.28.12-3.42.22S9,3.21,7.79,3.32a.5.5,0,0,0-.41.24A10.19,10.19,0,0,1,3.59,6.79.38.38,0,0,0,3.41,7a20.85,20.85,0,0,0-.69,6.85,22.15,22.15,0,0,0,.73,4.28.42.42,0,0,0,.15.21,10.27,10.27,0,0,1,3.77,3.15.34.34,0,0,0,.22.12c1.42.15,2.84.33,4.27.42,2,.13,3.94.24,5.92.29,1.61,0,3.23,0,4.85,0,1.39,0,2.79-.11,4.18-.22s3-.3,4.51-.44a.47.47,0,0,0,.36-.2,10.43,10.43,0,0,1,3.55-3,.46.46,0,0,0,.2-.27A21.06,21.06,0,0,0,35.46,7a.33.33,0,0,0-.17-.21,10.08,10.08,0,0,1-3.68-3.21.46.46,0,0,0-.36-.21c-1.82-.17-3.64-.38-5.46-.49C23.68,2.7,21.56,2.66,19.77,2.59Z"/><path d="M35.47,2.47a.85.85,0,0,1,.84-.06.63.63,0,0,1,.24,1,1.09,1.09,0,0,1-.8.43c-.49,0-1,0-1.47,0a.18.18,0,0,1-.11-.1A3.31,3.31,0,0,1,34.08,2a1.37,1.37,0,0,1,.27-.47.65.65,0,0,1,.86-.16.78.78,0,0,1,.34.88A1.6,1.6,0,0,1,35.47,2.47Z"/><path d="M3.41,22.14a.84.84,0,0,1-1,0,.62.62,0,0,1-.14-.9,1.13,1.13,0,0,1,.88-.48c.46,0,.94,0,1.4,0a.17.17,0,0,1,.13.08,3.33,3.33,0,0,1,.08,1.77,1.08,1.08,0,0,1-.25.41.65.65,0,0,1-.87.17.78.78,0,0,1-.33-.9A1.2,1.2,0,0,1,3.41,22.14Z"/><path d="M35.48,22.16a.8.8,0,0,1-.14,1,.68.68,0,0,1-1.1-.2,1.63,1.63,0,0,1-.22-.8,7.15,7.15,0,0,1,.15-1.21c0-.05.07-.11.11-.12a3.71,3.71,0,0,1,1.59,0,1.5,1.5,0,0,1,.5.22.7.7,0,0,1,.28.89.81.81,0,0,1-1,.34Z"/><path d="M3.41,2.46a.76.76,0,0,1,.13-1,.64.64,0,0,1,.93,0,1.22,1.22,0,0,1,.4,1A9.36,9.36,0,0,1,4.72,3.7s-.07.12-.12.12A3.89,3.89,0,0,1,3,3.82a1.43,1.43,0,0,1-.45-.21.7.7,0,0,1-.29-.89.82.82,0,0,1,1-.35Z"/><path d="M19,21.33c-1.42,0-3.26-.07-5.1-.19s-3.83-.32-5.75-.49A.31.31,0,0,1,8,20.56a11.51,11.51,0,0,0-3.47-2.93.26.26,0,0,1-.12-.18,19.59,19.59,0,0,1-.61-5.91,18.65,18.65,0,0,1,.56-3.79.38.38,0,0,1,.17-.24A11.39,11.39,0,0,0,8,4.48a.51.51,0,0,1,.29-.17C10.23,4.15,12.13,4,14,3.84a79.65,79.65,0,0,1,8.32-.12c1.82.07,3.64.2,5.45.32,1,.07,1.94.19,2.9.3A.47.47,0,0,1,31,4.5a11.42,11.42,0,0,0,3.39,3,.44.44,0,0,1,.16.22,19.88,19.88,0,0,1,.56,6.19,20,20,0,0,1-.6,3.61.43.43,0,0,1-.2.26,11.5,11.5,0,0,0-3.2,2.73.45.45,0,0,1-.36.19c-1.27.12-2.55.27-3.83.37s-2.5.17-3.76.21S20.67,21.29,19,21.33Zm-3.62-11-.18-.17c-.44-.45-.87-.91-1.31-1.35-.11-.12-.19-.22-.05-.37H12.9a2,2,0,0,1,.08.4q0,1,0,2a4.13,4.13,0,0,1-.07.49h.74a4,4,0,0,1-.07-.46c0-.18,0-.36,0-.55v-1c.58.6,1.12,1.16,1.64,1.73,0,0,0,.14,0,.23h.82a2,2,0,0,1-.08-.4v-2a2.7,2.7,0,0,1,.07-.41h-.8c.05.09.13.16.13.23C15.39,9.16,15.39,9.7,15.39,10.28Zm6.85.94h1a5.33,5.33,0,0,1-.94-1.13l.1,0a.78.78,0,0,0,.68-.83c0-.5-.22-.72-.74-.82a1.24,1.24,0,0,0-.33,0H20.1a2.47,2.47,0,0,1,.08.43c0,.65,0,1.31,0,2a3.47,3.47,0,0,1-.06.45h.82c-.22-.37-.07-.75-.12-1.12h.65a.29.29,0,0,1,.18.1c.19.25.37.51.54.77A.78.78,0,0,1,22.24,11.22Zm-3.09-2,.34-.66c-.18,0-.31-.06-.44-.1a2.81,2.81,0,0,0-1.44-.09,1.44,1.44,0,0,0-1.2,1.28,1.37,1.37,0,0,0,1,1.53,2.9,2.9,0,0,0,2.3-.31,1.26,1.26,0,0,1,0-1.09,11.56,11.56,0,0,1-1.56-.07v.66c.27-.32.6-.11.88-.18.07.39,0,.45-.31.51a2.7,2.7,0,0,1-.85,0,.89.89,0,0,1-.78-.87.93.93,0,0,1,.67-1,1.69,1.69,0,0,1,1.17.1C19,9,19.05,9.12,19.15,9.22ZM10.8,11.31a4.61,4.61,0,0,0,.5-.07,1.46,1.46,0,0,0,.11-2.84,2.86,2.86,0,0,0-1.09,0,1.41,1.41,0,0,0-1.1,1.82A1.53,1.53,0,0,0,10.8,11.31ZM15.12,17a4,4,0,0,0,.5-.06,1.41,1.41,0,0,0,1.18-1.37,1.39,1.39,0,0,0-1.08-1.47,2.7,2.7,0,0,0-1.06,0,1.42,1.42,0,0,0-1.1,1.87A1.5,1.5,0,0,0,15.12,17Zm8.39,0c.17,0,.34,0,.5-.06a1.41,1.41,0,0,0,1.18-1.37,1.39,1.39,0,0,0-1.08-1.47,2.7,2.7,0,0,0-1.06,0,1.42,1.42,0,0,0-1.11,1.85A1.5,1.5,0,0,0,23.51,17Zm7.1-6,.31.08a5.31,5.31,0,0,0,.74.24,2,2,0,0,0,1.32-.2.78.78,0,0,0,.38-.86.63.63,0,0,0-.53-.58l-1.2-.21c-.14,0-.32,0-.31-.24s.15-.28.32-.3A1.34,1.34,0,0,1,33,9.27l.33-.6c-.16-.05-.29-.07-.41-.12a2.09,2.09,0,0,0-1.66-.11.78.78,0,0,0-.58.85c0,.44.16.58.68.69.34.07.68.1,1,.17.14,0,.33.06.33.26s-.17.29-.34.31a1.34,1.34,0,0,1-1.49-.47Zm-5,3.11a2.7,2.7,0,0,1,.08.39c0,.5,0,1,0,1.52a.83.83,0,0,0,.6.88,2.67,2.67,0,0,0,1.7,0,.7.7,0,0,0,.53-.66c0-.54,0-1.08,0-1.61a4.5,4.5,0,0,1,.08-.51h-.8c.05.09.12.16.12.23,0,.53,0,1.07,0,1.61,0,.35-.15.48-.51.52a1.82,1.82,0,0,1-.57,0c-.37-.05-.51-.21-.53-.59s0-.69,0-1-.08-.52.15-.74ZM8.45,10.25a1.39,1.39,0,0,1-.29.3A1.61,1.61,0,0,1,7,10.74a.94.94,0,0,1-.77-.9A.88.88,0,0,1,7,8.9a2.45,2.45,0,0,1,.81,0,.74.74,0,0,1,.64.5l.4-.61-.47-.21a2.31,2.31,0,0,0-1.59-.22A1.42,1.42,0,0,0,5.57,9.68a1.39,1.39,0,0,0,1.08,1.53A2.19,2.19,0,0,0,8.38,11c.13-.07.27-.11.44-.18Zm18.56,1c-.12-.22-.25-.42-.36-.63l-.91-1.82c-.07-.13-.15-.27.07-.4H24.68c.26.16.16.31.09.45-.3.63-.59,1.25-.9,1.87-.09.18-.2.35-.3.52h1c-.25-.14-.19-.28-.1-.43a.71.71,0,0,1,.08-.15.31.31,0,0,1,.19-.11c.34,0,.69,0,1,0a.2.2,0,0,1,.13,0,.62.62,0,0,1,.11.67Zm-7,3.93-.45-.66c-.09-.14-.26-.28,0-.45H18.34c.11.1.2.16.27.24a2.69,2.69,0,0,1,.2.27,5.17,5.17,0,0,0,.39.53,1.62,1.62,0,0,1,.44,1.39c0,.14-.05.28-.08.42h.81a2.75,2.75,0,0,1-.09-.45,2.9,2.9,0,0,1,0-.51.9.9,0,0,1,.13-.4c.23-.36.48-.7.73-1a5.6,5.6,0,0,1,.4-.45H20.48c0,.11.09.23.05.29C20.36,14.62,20.17,14.88,20,15.17ZM30.24,8.29a2.5,2.5,0,0,1-.44.07H27.87a3.78,3.78,0,0,1-.47-.06V9c.08-.06.15-.15.22-.15.28,0,.57,0,.87,0,0,.68,0,1.33,0,2a1.89,1.89,0,0,1-.08.4h.8a4.63,4.63,0,0,1-.08-.47c0-.42,0-.84,0-1.25V8.84h.61c.18,0,.37-.06.5.16ZM12.1,16.91a4.53,4.53,0,0,1-.08-.49c0-.27,0-.53,0-.79V14.51h.65c.16,0,.34,0,.45.16V14a3.64,3.64,0,0,1-.44.07q-1,0-1.92,0a2.42,2.42,0,0,1-.47-.07v.71c.08-.06.14-.15.21-.16h.88c0,.68,0,1.34,0,2a2.79,2.79,0,0,1-.07.38Z"/><path d="M20.83,9.64V8.82c.45,0,.9,0,1.34.07.19,0,.24.18.24.35s-.06.33-.26.35-.56,0-.84.05Z"/><path d="M10.83,10.78a1,1,0,0,1-1-1,1,1,0,1,1,1,1Z"/><path d="M14.14,15.49a1,1,0,0,1,2,0,1,1,0,0,1-2,0Z"/><path d="M22.53,15.46a1,1,0,1,1,1,1A1,1,0,0,1,22.53,15.46Z"/><path d="M24.78,10.1l.46-1,.45,1Z"/></g><g class="cls-3"><path d="M19.1,1.51c2.14.09,4.29.13,6.43.27,1.94.12,3.87.35,5.81.54a.42.42,0,0,1,.36.21A9.44,9.44,0,0,0,35.58,5.9a.35.35,0,0,1,.17.19,22.15,22.15,0,0,1,.79,4.27,21.35,21.35,0,0,1,0,3.75,22.4,22.4,0,0,1-.84,4.3.35.35,0,0,1-.16.18,9.69,9.69,0,0,0-3.8,3.21.38.38,0,0,1-.25.16c-1.13.13-2.27.27-3.4.37-1.29.11-2.58.19-3.87.27-2.3.15-4.6.18-6.9.12-1.77,0-3.54-.13-5.31-.25-1.55-.1-3.1-.28-4.65-.43h0a1.12,1.12,0,0,1-1-.56,9.08,9.08,0,0,0-3.66-2.94.31.31,0,0,1-.16-.18,22.22,22.22,0,0,1-.79-4,21,21,0,0,1-.08-3.63,21.79,21.79,0,0,1,.82-4.66.33.33,0,0,1,.16-.17,9.35,9.35,0,0,0,4-3.44A.41.41,0,0,1,7,2.3c1-.1,2-.22,2.94-.31s1.83-.18,2.74-.22C14.81,1.67,17,1.6,19.1,1.51Zm.33.74c-1.89,0-3.46.08-5,.15-1.14.05-2.28.12-3.42.22S8.63,2.87,7.45,3A.51.51,0,0,0,7,3.21,10.13,10.13,0,0,1,3.25,6.45a.38.38,0,0,0-.18.23,20.82,20.82,0,0,0-.69,6.85,22.15,22.15,0,0,0,.73,4.28.42.42,0,0,0,.15.21A10.27,10.27,0,0,1,7,21.17a.34.34,0,0,0,.22.12c1.42.15,2.84.32,4.27.42,2,.13,3.94.24,5.92.29,1.61,0,3.23,0,4.85,0,1.39,0,2.79-.12,4.18-.22s3-.3,4.51-.44a.47.47,0,0,0,.36-.2,10.34,10.34,0,0,1,3.55-3,.46.46,0,0,0,.2-.27,21.06,21.06,0,0,0,0-11.19A.33.33,0,0,0,35,6.41,10.08,10.08,0,0,1,31.27,3.2.46.46,0,0,0,30.91,3c-1.82-.17-3.64-.38-5.46-.49C23.34,2.36,21.22,2.32,19.43,2.25Z"/><path d="M35.13,2.13A.85.85,0,0,1,36,2.07a.63.63,0,0,1,.24,1,1.09,1.09,0,0,1-.8.43c-.49,0-1,0-1.47,0a.18.18,0,0,1-.11-.1,3.32,3.32,0,0,1-.09-1.71A1.37,1.37,0,0,1,34,1.21a.65.65,0,0,1,.86-.16.78.78,0,0,1,.34.88A1.6,1.6,0,0,1,35.13,2.13Z"/><path d="M3.07,21.8a.84.84,0,0,1-1,0,.62.62,0,0,1-.14-.9,1.13,1.13,0,0,1,.88-.48c.46,0,.94,0,1.4,0a.17.17,0,0,1,.13.08,3.33,3.33,0,0,1,.08,1.77,1.08,1.08,0,0,1-.25.41.65.65,0,0,1-.87.17A.78.78,0,0,1,3,22,1.2,1.2,0,0,1,3.07,21.8Z"/><path d="M35.14,21.82a.8.8,0,0,1-.14,1,.68.68,0,0,1-1.1-.2,1.76,1.76,0,0,1-.23-.8,8.36,8.36,0,0,1,.16-1.21c0-.05.07-.11.11-.12a3.71,3.71,0,0,1,1.59,0,1.5,1.5,0,0,1,.5.22.69.69,0,0,1,.28.88.81.81,0,0,1-1,.35Z"/><path d="M3.07,2.12a.76.76,0,0,1,.13-1,.64.64,0,0,1,.93,0,1.22,1.22,0,0,1,.4,1,9.36,9.36,0,0,1-.15,1.17c0,.05-.07.12-.12.12a3.89,3.89,0,0,1-1.63,0,1.43,1.43,0,0,1-.45-.21.7.7,0,0,1-.29-.89.82.82,0,0,1,1-.35Z"/><path d="M18.67,21c-1.42,0-3.26-.06-5.1-.18s-3.83-.32-5.75-.49a.31.31,0,0,1-.18-.09,11.51,11.51,0,0,0-3.47-2.93.26.26,0,0,1-.12-.18,19.59,19.59,0,0,1-.61-5.91A18.65,18.65,0,0,1,4,7.41a.38.38,0,0,1,.17-.24,11.39,11.39,0,0,0,3.52-3A.51.51,0,0,1,8,4c1.91-.16,3.81-.34,5.71-.47A79.65,79.65,0,0,1,22,3.38c1.82.07,3.64.2,5.45.32,1,.07,1.94.19,2.9.3a.47.47,0,0,1,.28.16,11.42,11.42,0,0,0,3.39,3,.4.4,0,0,1,.16.22,19.88,19.88,0,0,1,.56,6.19,20.16,20.16,0,0,1-.6,3.61.43.43,0,0,1-.2.26,11.5,11.5,0,0,0-3.2,2.73.45.45,0,0,1-.36.19c-1.27.12-2.55.27-3.83.37s-2.5.17-3.76.21S20.33,21,18.67,21Zm-3.62-11-.18-.17c-.44-.45-.87-.91-1.31-1.35-.11-.12-.19-.22-.05-.37h-.95a2,2,0,0,1,.08.4q0,1,0,2a4.13,4.13,0,0,1-.07.49h.74a4,4,0,0,1-.07-.46c0-.18,0-.36,0-.55v-1c.58.6,1.12,1.16,1.64,1.73.05,0,0,.14,0,.23h.82a2,2,0,0,1-.08-.4c0-.67,0-1.35,0-2a2.7,2.7,0,0,1,.07-.41h-.8c.05.09.13.16.13.23C15.05,8.82,15.05,9.36,15.05,9.94Zm6.85.94h1a5.33,5.33,0,0,1-.94-1.13l.1,0a.78.78,0,0,0,.68-.83c0-.5-.22-.72-.74-.82a1.24,1.24,0,0,0-.33,0H19.76a2.47,2.47,0,0,1,.08.43c0,.65,0,1.31,0,2a3.47,3.47,0,0,1-.06.45h.82c-.22-.37-.07-.75-.12-1.12h.65a.29.29,0,0,1,.18.1c.19.25.37.51.54.77A.78.78,0,0,1,21.9,10.88Zm-3.09-2,.34-.66c-.18,0-.31-.06-.44-.1A2.81,2.81,0,0,0,17.27,8a1.44,1.44,0,0,0-1.2,1.28,1.37,1.37,0,0,0,1,1.53,2.9,2.9,0,0,0,2.3-.31,1.26,1.26,0,0,1,0-1.09,11.56,11.56,0,0,1-1.56-.07V10c.27-.32.6-.11.88-.18.07.39,0,.45-.31.51a2.7,2.7,0,0,1-.85,0,.89.89,0,0,1-.78-.87.93.93,0,0,1,.67-1,1.69,1.69,0,0,1,1.17.1C18.66,8.69,18.71,8.78,18.81,8.88ZM10.46,11a4.61,4.61,0,0,0,.5-.07,1.46,1.46,0,0,0,.11-2.84,2.67,2.67,0,0,0-1.09,0,1.41,1.41,0,0,0-1.1,1.82A1.53,1.53,0,0,0,10.46,11Zm4.32,5.67c.17,0,.34,0,.5-.06a1.41,1.41,0,0,0,1.18-1.37,1.39,1.39,0,0,0-1.08-1.47,2.7,2.7,0,0,0-1.06,0,1.42,1.42,0,0,0-1.1,1.87A1.5,1.5,0,0,0,14.78,16.64Zm8.39,0c.17,0,.34,0,.5-.06a1.41,1.41,0,0,0,1.18-1.37,1.39,1.39,0,0,0-1.08-1.47,2.7,2.7,0,0,0-1.06,0,1.42,1.42,0,0,0-1.11,1.85A1.5,1.5,0,0,0,23.17,16.64Zm7.1-6,.31.08a5.31,5.31,0,0,0,.74.24,2,2,0,0,0,1.32-.2A.78.78,0,0,0,33,9.87a.63.63,0,0,0-.53-.58l-1.2-.21c-.14,0-.32,0-.31-.24s.15-.28.32-.3a1.34,1.34,0,0,1,1.39.39l.33-.6c-.16-.05-.29-.07-.41-.12A2.09,2.09,0,0,0,31,8.1a.78.78,0,0,0-.58.85c0,.44.16.58.68.69.34.07.68.1,1,.17.14,0,.33.06.33.26s-.17.29-.34.31a1.34,1.34,0,0,1-1.49-.47Zm-5,3.11a2.7,2.7,0,0,1,.08.39c0,.5,0,1,0,1.52a.83.83,0,0,0,.6.88,2.67,2.67,0,0,0,1.7,0,.7.7,0,0,0,.53-.66c0-.54,0-1.08,0-1.61a4.5,4.5,0,0,1,.08-.51h-.8c.05.09.12.16.12.23,0,.53,0,1.07,0,1.61,0,.35-.15.48-.51.52a2.18,2.18,0,0,1-.57,0c-.37,0-.51-.21-.53-.59s0-.69,0-1-.08-.52.15-.74ZM8.11,9.91a1.39,1.39,0,0,1-.29.3,1.61,1.61,0,0,1-1.16.19.94.94,0,0,1-.77-.91.87.87,0,0,1,.74-.93,2.45,2.45,0,0,1,.81,0,.74.74,0,0,1,.64.5l.4-.61L8,8.25A2.33,2.33,0,0,0,6.41,8,1.42,1.42,0,0,0,5.23,9.34a1.39,1.39,0,0,0,1.08,1.53A2.19,2.19,0,0,0,8,10.65c.13-.07.27-.11.44-.18Zm18.56,1c-.12-.22-.25-.42-.36-.63L25.4,8.45c-.07-.13-.15-.27.07-.4H24.34c.26.16.16.31.09.45-.3.63-.59,1.25-.9,1.87-.09.18-.2.35-.3.52h1c-.25-.14-.19-.28-.1-.43a.71.71,0,0,1,.08-.15.31.31,0,0,1,.19-.11c.34,0,.69,0,1,0a.2.2,0,0,1,.13,0,.62.62,0,0,1,.11.67Zm-7,3.93-.45-.66c-.09-.14-.26-.28,0-.45H18c.11.1.2.16.27.24a2.69,2.69,0,0,1,.2.27,5.17,5.17,0,0,0,.39.53,1.62,1.62,0,0,1,.44,1.39c0,.14-.05.27-.08.42H20a2.75,2.75,0,0,1-.09-.45,2.9,2.9,0,0,1,0-.51.9.9,0,0,1,.13-.4c.23-.36.48-.7.73-1a5.6,5.6,0,0,1,.4-.45H20.14c0,.11.09.23.05.29C20,14.28,19.83,14.54,19.63,14.83ZM29.9,8a2.5,2.5,0,0,1-.44.07H27.53A3.78,3.78,0,0,1,27.06,8v.7c.08-.06.15-.15.22-.15.28,0,.57,0,.87,0,0,.68,0,1.33,0,2a1.89,1.89,0,0,1-.08.4h.8a4.63,4.63,0,0,1-.08-.47c0-.42,0-.84,0-1.25V8.5h.61c.18,0,.37-.06.5.16ZM11.75,16.57c0-.17-.06-.33-.07-.5s0-.52,0-.78V14.17h.65c.16,0,.34,0,.45.16v-.7a3.64,3.64,0,0,1-.44.07q-1,0-1.92,0a2.65,2.65,0,0,1-.48-.07v.71c.09-.06.15-.15.22-.16H11c0,.69,0,1.35,0,2a2.79,2.79,0,0,1-.07.38Z"/><path d="M20.49,9.3V8.48c.45,0,.9,0,1.34.07.19,0,.24.18.24.35s-.06.33-.26.35-.56,0-.84.05Z"/><path d="M10.49,10.44a1,1,0,0,1-1-1,1,1,0,0,1,2,0A1,1,0,0,1,10.49,10.44Z"/><path d="M13.8,15.15a1,1,0,0,1,2,0,1,1,0,0,1-2,0Z"/><path d="M22.19,15.12a1,1,0,1,1,1,1A1,1,0,0,1,22.19,15.12Z"/><path d="M24.44,9.76l.46-1,.45,1Z"/></g><path class="cls-4" d="M19.3,1.71c2.14.08,4.29.13,6.43.27,1.94.12,3.87.35,5.81.53a.47.47,0,0,1,.36.22A9.45,9.45,0,0,0,35.78,6.1a.35.35,0,0,1,.17.19,22.94,22.94,0,0,1,.79,4.27,22.24,22.24,0,0,1,0,3.74,21.78,21.78,0,0,1-.85,4.31.28.28,0,0,1-.15.17A9.65,9.65,0,0,0,31.93,22a.4.4,0,0,1-.25.16c-1.13.13-2.27.27-3.41.37s-2.57.19-3.86.27c-2.3.14-4.6.17-6.9.12-1.77-.05-3.54-.13-5.31-.25-1.55-.1-3.1-.28-4.65-.43h0a1.12,1.12,0,0,1-1-.56,9.06,9.06,0,0,0-3.66-2.94.31.31,0,0,1-.16-.19,21.94,21.94,0,0,1-.79-4A21,21,0,0,1,1.83,11a21.79,21.79,0,0,1,.82-4.66.35.35,0,0,1,.15-.17,9.24,9.24,0,0,0,4-3.44.42.42,0,0,1,.35-.2c1-.1,2-.22,2.94-.31S12,2,12.86,2C15,1.87,17.15,1.79,19.3,1.71Zm.33.74c-1.9,0-3.46.08-5,.15-1.14,0-2.28.12-3.42.22s-2.36.24-3.53.35a.51.51,0,0,0-.41.24A10.13,10.13,0,0,1,3.45,6.65a.38.38,0,0,0-.18.23,20.55,20.55,0,0,0-.69,6.85A21.41,21.41,0,0,0,3.31,18a.36.36,0,0,0,.15.21,10.42,10.42,0,0,1,3.77,3.14.32.32,0,0,0,.21.13c1.43.15,2.85.32,4.28.42,2,.13,3.94.23,5.92.28,1.61,0,3.23,0,4.85,0,1.39,0,2.79-.12,4.18-.23s3-.29,4.51-.44a.44.44,0,0,0,.36-.19,10.34,10.34,0,0,1,3.55-3,.5.5,0,0,0,.2-.27A21.09,21.09,0,0,0,36,13.69a20.94,20.94,0,0,0-.7-6.87.37.37,0,0,0-.17-.22,10.07,10.07,0,0,1-3.69-3.2.44.44,0,0,0-.35-.21c-1.82-.17-3.64-.38-5.46-.5C23.54,2.56,21.42,2.52,19.63,2.45Z"/><path class="cls-4" d="M35.33,2.33a.83.83,0,0,1,.84-.06.64.64,0,0,1,.24,1,1,1,0,0,1-.8.42,14.42,14.42,0,0,1-1.47,0A.14.14,0,0,1,34,3.59a3.22,3.22,0,0,1-.09-1.71,1.23,1.23,0,0,1,.27-.47.65.65,0,0,1,.86-.16.77.77,0,0,1,.34.87A1.19,1.19,0,0,1,35.33,2.33Z"/><path class="cls-4" d="M3.27,22a.82.82,0,0,1-1,0,.61.61,0,0,1-.15-.89A1.16,1.16,0,0,1,3,20.61c.47,0,.94,0,1.41,0a.17.17,0,0,1,.13.08,3.33,3.33,0,0,1,.08,1.77,1.08,1.08,0,0,1-.25.41.65.65,0,0,1-.87.17.78.78,0,0,1-.34-.9Z"/><path class="cls-4" d="M35.34,22a.82.82,0,0,1-.14,1,.69.69,0,0,1-1.11-.2,1.75,1.75,0,0,1-.22-.8A7.17,7.17,0,0,1,34,20.77a.14.14,0,0,1,.11-.12,3.87,3.87,0,0,1,1.59,0,1.75,1.75,0,0,1,.5.23.69.69,0,0,1,.28.88.81.81,0,0,1-1,.35Z"/><path class="cls-4" d="M3.27,2.32a.78.78,0,0,1,.13-1,.66.66,0,0,1,.93,0,1.25,1.25,0,0,1,.4,1.05,7.83,7.83,0,0,1-.16,1.17.14.14,0,0,1-.11.12,3.89,3.89,0,0,1-1.63,0,1.26,1.26,0,0,1-.45-.22.69.69,0,0,1-.29-.88.82.82,0,0,1,1-.35Z"/><path class="cls-4" d="M18.87,21.18c-1.42,0-3.26-.07-5.1-.18S9.94,20.68,8,20.51a.38.38,0,0,1-.18-.09,11.37,11.37,0,0,0-3.47-2.93.26.26,0,0,1-.12-.18,19.28,19.28,0,0,1-.61-5.91A18.85,18.85,0,0,1,4.2,7.6a.39.39,0,0,1,.17-.23,11.51,11.51,0,0,0,3.52-3,.51.51,0,0,1,.29-.17c1.9-.16,3.81-.35,5.71-.48a79.64,79.64,0,0,1,8.32-.11c1.82.07,3.63.2,5.45.32,1,.07,1.94.19,2.9.3a.42.42,0,0,1,.27.16,11.45,11.45,0,0,0,3.4,2.95.4.4,0,0,1,.16.22,19.87,19.87,0,0,1,.55,6.19,19,19,0,0,1-.59,3.6.54.54,0,0,1-.2.27A11.5,11.5,0,0,0,31,20.32a.45.45,0,0,1-.36.19c-1.27.12-2.55.27-3.83.37s-2.51.16-3.76.21S20.53,21.15,18.87,21.18Zm-3.62-11a1.59,1.59,0,0,1-.18-.17c-.44-.45-.87-.91-1.31-1.35-.11-.12-.19-.22,0-.37h-1a2,2,0,0,1,.08.4c0,.65,0,1.3,0,1.94a4,4,0,0,1-.07.5h.74a4,4,0,0,1-.07-.46,5,5,0,0,1,0-.55V9.13c.58.6,1.12,1.16,1.64,1.73,0,0,0,.14,0,.23h.82a2,2,0,0,1-.08-.4c0-.68,0-1.35,0-2a2.7,2.7,0,0,1,.07-.41h-.8c.05.09.13.16.13.23C15.25,9,15.25,9.56,15.25,10.14Zm6.85.94h1A6,6,0,0,1,22.13,10l.11,0a.77.77,0,0,0,.67-.84c0-.49-.21-.72-.73-.82l-.33,0H20a2.55,2.55,0,0,1,.08.42c0,.66,0,1.32,0,2a2.12,2.12,0,0,1-.07.45h.83c-.23-.36-.08-.74-.12-1.11h.65a.27.27,0,0,1,.18.1c.19.25.37.51.53.77A.7.7,0,0,1,22.1,11.08ZM19,9.08l.34-.66c-.18,0-.31-.06-.44-.1a2.81,2.81,0,0,0-1.44-.09,1.44,1.44,0,0,0-1.2,1.28,1.38,1.38,0,0,0,1,1.53,3,3,0,0,0,2.3-.31,1.26,1.26,0,0,1,0-1.09A13.75,13.75,0,0,1,18,9.57v.66c.27-.32.61-.12.89-.19.06.4.05.46-.31.52a2.7,2.7,0,0,1-.85,0,.89.89,0,0,1-.78-.87.92.92,0,0,1,.67-1,1.75,1.75,0,0,1,1.17.09C18.86,8.89,18.91,9,19,9.08Zm-8.36,2.09a4.46,4.46,0,0,0,.51-.07,1.42,1.42,0,0,0,1.18-1.35,1.38,1.38,0,0,0-1.08-1.49,2.62,2.62,0,0,0-1.08,0,1.41,1.41,0,0,0-1.1,1.82A1.52,1.52,0,0,0,10.65,11.17ZM15,16.84c.17,0,.34,0,.5-.06a1.42,1.42,0,0,0,1.18-1.37,1.39,1.39,0,0,0-1.08-1.47,2.53,2.53,0,0,0-1.06,0,1.42,1.42,0,0,0-1.11,1.87A1.51,1.51,0,0,0,15,16.84Zm8.39,0c.17,0,.34,0,.5-.06a1.42,1.42,0,0,0,1.18-1.38A1.38,1.38,0,0,0,24,13.94a2.53,2.53,0,0,0-1.06,0,1.42,1.42,0,0,0-1.12,1.85A1.53,1.53,0,0,0,23.37,16.84Zm7.09-6,.32.08a7.07,7.07,0,0,0,.74.24,2,2,0,0,0,1.31-.2.78.78,0,0,0,.39-.86.61.61,0,0,0-.53-.58l-1.2-.21c-.14,0-.32,0-.31-.25s.15-.27.32-.29a1.34,1.34,0,0,1,1.39.39l.32-.61a3.26,3.26,0,0,1-.4-.11,2.09,2.09,0,0,0-1.66-.11.78.78,0,0,0-.59.85c0,.43.17.58.69.68.33.07.68.11,1,.18.14,0,.33.05.33.26s-.17.29-.34.31a1.34,1.34,0,0,1-1.49-.47Zm-5,3.11a2.79,2.79,0,0,1,.07.38c0,.51,0,1,0,1.53a.81.81,0,0,0,.59.87,2.7,2.7,0,0,0,1.71,0,.71.71,0,0,0,.53-.67c0-.53,0-1.07,0-1.6a4.5,4.5,0,0,1,.08-.51h-.8c.05.09.12.16.12.23,0,.53,0,1.07,0,1.6,0,.36-.16.48-.51.53a2.71,2.71,0,0,1-.57,0c-.37-.05-.51-.21-.53-.59s0-.69,0-1-.08-.52.15-.74ZM8.31,10.11a1.39,1.39,0,0,1-.29.3,1.57,1.57,0,0,1-1.16.18.92.92,0,0,1-.77-.9.86.86,0,0,1,.74-.93,2.45,2.45,0,0,1,.81,0,.75.75,0,0,1,.64.5l.4-.61-.47-.21a2.29,2.29,0,0,0-1.6-.22,1.42,1.42,0,0,0-1.18,1.3A1.4,1.4,0,0,0,6.5,11.07a2.25,2.25,0,0,0,1.74-.22c.13-.07.27-.11.44-.18Zm18.56,1c-.13-.22-.26-.42-.37-.63l-.9-1.82c-.07-.14-.15-.27.07-.4H24.54c.25.16.16.3.09.45l-.9,1.87c-.09.18-.2.35-.3.52h1c-.25-.14-.19-.28-.1-.43a.71.71,0,0,1,.08-.15.39.39,0,0,1,.19-.12h1a.29.29,0,0,1,.14,0,.64.64,0,0,1,.11.68Zm-7,3.93-.45-.66c-.09-.15-.26-.29,0-.45H18.2c.1.1.19.16.27.24s.13.18.2.27.24.37.38.53a1.55,1.55,0,0,1,.44,1.38c0,.14,0,.28-.07.43h.8a4,4,0,0,1-.08-.46,2.09,2.09,0,0,1,0-.5,1,1,0,0,1,.13-.41c.23-.35.48-.69.73-1,.12-.16.26-.3.39-.45H20.34c0,.1.08.23.05.29C20.22,14.48,20,14.74,19.83,15ZM30.1,8.15a4,4,0,0,1-.44.07H27.73a2.54,2.54,0,0,1-.47-.07v.71c.08-.06.14-.15.21-.16h.88v2a3.14,3.14,0,0,1-.08.4h.8a4.63,4.63,0,0,1-.08-.47c0-.42,0-.84,0-1.25V8.69h.61c.17,0,.37-.06.5.15ZM12,16.77c0-.17-.06-.33-.07-.5s0-.52,0-.78V14.37h.65c.17,0,.35,0,.46.16v-.71a2.57,2.57,0,0,1-.44.08H10.62a4,4,0,0,1-.48-.07v.71c.09-.06.15-.16.22-.16.29,0,.57,0,.88,0,0,.69,0,1.35,0,2a1.8,1.8,0,0,1-.08.39Z"/><path class="cls-4" d="M20.68,9.5V8.68c.46,0,.9,0,1.35.07.19,0,.24.18.24.34s-.07.34-.26.36-.56,0-.84.05Z"/><path class="cls-4" d="M10.69,10.64a1,1,0,1,1,1-1A1,1,0,0,1,10.69,10.64Z"/><path class="cls-4" d="M14,15.35a1,1,0,1,1,1,1A1,1,0,0,1,14,15.35Z"/><path class="cls-4" d="M22.39,15.32a1,1,0,0,1,1-1,1,1,0,1,1-1,1Z"/><path class="cls-4" d="M24.63,10l.47-1,.45,1Z"/></g></g></svg>