<svg xmlns="http://www.w3.org/2000/svg" viewBox="0 0 38.55 24.66"><defs><style>.cls-1{isolation:isolate;}.cls-2{opacity:0.15;}.cls-2,.cls-3{mix-blend-mode:multiply;}.cls-4{fill:#fff;}</style></defs><title>convert-FIX-SVG-03</title><g class="cls-1"><g id="Layer_1" data-name="Layer 1"><g class="cls-2"><path d="M18.4,10.88h.66c.5,0,1,0,1.48,0a1.28,1.28,0,0,1,1.21,1.22,3.07,3.07,0,0,1-.09,1,1.13,1.13,0,0,1-1,.86c-.74.06-1.48,0-2.22,0h0a3.43,3.43,0,0,0,.08-.5c0-.74,0-1.49,0-2.24A1.84,1.84,0,0,0,18.4,10.88Zm.78,2.62c.36,0,.72,0,1.07,0a.82.82,0,0,0,.81-.75,2.08,2.08,0,0,0,0-.61.78.78,0,0,0-.76-.73,10.44,10.44,0,0,0-1.12,0Z"/><path d="M23.54,14a2.7,2.7,0,0,0,.08-.41V11.3a3.85,3.85,0,0,0-.09-.41s0,0,0,0c.71,0,1.42,0,2.13,0a1.26,1.26,0,0,1,1.2,1.22,3.18,3.18,0,0,1-.07.92,1.14,1.14,0,0,1-1.06.89C25,14,24.25,14,23.54,14Zm.76-.47c.37,0,.71,0,1.06,0a.83.83,0,0,0,.83-.78,2.16,2.16,0,0,0,0-.67.69.69,0,0,0-.62-.61c-.4,0-.82,0-1.24-.07Z"/><path d="M9.29,12.47a1.49,1.49,0,0,1,1.36-1.54,2.92,2.92,0,0,1,1,0,1.5,1.5,0,0,1,1.19,1.66A1.53,1.53,0,0,1,11.51,14a3.5,3.5,0,0,1-1.07,0A1.48,1.48,0,0,1,9.29,12.47Zm1.77,1a1,1,0,0,0,1.12-1,1,1,0,0,0-1.1-1,1,1,0,1,0,0,2.08Z"/><path d="M15.75,10.89h.92c-.22.18-.17.39-.17.59,0,.48,0,.95,0,1.42a1,1,0,0,1-.94,1.1,3,3,0,0,1-1.34,0,.93.93,0,0,1-.81-1V11.28a3.25,3.25,0,0,0-.08-.38h.84a4.5,4.5,0,0,0-.08.51c0,.45,0,.9,0,1.35s.17.68.63.73a2.16,2.16,0,0,0,.67,0,.52.52,0,0,0,.47-.54c0-.6,0-1.19,0-1.78A.93.93,0,0,0,15.75,10.89Z"/><path d="M34.14,18.21A2.88,2.88,0,0,1,37,21,2,2,0,0,1,34.87,23a2.92,2.92,0,0,1-2.75-2.26A2,2,0,0,1,34.14,18.21Zm.7,4.55a1.79,1.79,0,0,0,1.89-2A2.57,2.57,0,0,0,34,18.46a1.81,1.81,0,0,0-1.72,1.91A2.6,2.6,0,0,0,34.84,22.76Z"/><path d="M1.91,21a2.88,2.88,0,0,1,3.41-2.71A2,2,0,0,1,6.83,20.6,2.89,2.89,0,0,1,3.71,23,2,2,0,0,1,1.91,21Zm2.17,1.79A2.63,2.63,0,0,0,6.49,21a1.83,1.83,0,0,0-1.55-2.48,2.61,2.61,0,0,0-2.72,2A1.82,1.82,0,0,0,4.08,22.76Z"/><path d="M34.92,1.52A2,2,0,0,1,37,4a2.89,2.89,0,0,1-3.4,2.31,2,2,0,0,1-1.51-2.13A2.89,2.89,0,0,1,34.92,1.52Zm-.06.25a2.63,2.63,0,0,0-2.5,2.08A1.81,1.81,0,0,0,34,6.06a2.59,2.59,0,0,0,2.73-2A1.82,1.82,0,0,0,34.86,1.77Z"/><path d="M4.45,6.52A2.9,2.9,0,0,1,1.6,3.94a2,2,0,0,1,2-2.23A2.9,2.9,0,0,1,6.54,4.43,2,2,0,0,1,4.45,6.52ZM3.76,2a1.78,1.78,0,0,0-1.89,2,2.57,2.57,0,0,0,2.7,2.34,1.82,1.82,0,0,0,1.71-1.9A2.6,2.6,0,0,0,3.76,2Z"/><path d="M5.49,10.9H6.75c-.3.14-.18.27-.08.42l.53.79c.23-.31.45-.61.64-.92,0-.06,0-.19-.06-.29H8.91a12.87,12.87,0,0,0-1.32,1.72.3.3,0,0,0-.06.18c0,.3,0,.61,0,.91a1.09,1.09,0,0,0,.14.29H6.78c0-.17.06-.33.08-.5a1.68,1.68,0,0,0-.44-1.43,8.79,8.79,0,0,1-.57-.79C5.75,11.15,5.62,11,5.49,10.9Z"/><path d="M31.16,11.37c-.41.09-.81-.11-1.18.14v-.69a3.11,3.11,0,0,0,.44.06h2.24a1.72,1.72,0,0,0,.37-.07v.68a2,2,0,0,0-.39-.1h-.8v1c0,.4,0,.8,0,1.2a3.14,3.14,0,0,0,.08.4h-.84a2.31,2.31,0,0,0,.08-.43C31.17,12.85,31.16,12.13,31.16,11.37Z"/><path d="M29.51,10.9a1.51,1.51,0,0,0-.08.34c0,.8,0,1.6,0,2.41a1.73,1.73,0,0,0,.08.35h-.84a4.46,4.46,0,0,0,.07-.51c0-.72,0-1.45,0-2.18a2.27,2.27,0,0,0-.08-.41Z"/><path d="M22.23,10.89s0,0,0,0h.92c-.22.17-.17.38-.17.57,0,.72,0,1.44,0,2.16a1.93,1.93,0,0,0,.08.39h-.84a2.89,2.89,0,0,0,.07-.49c0-.72,0-1.43,0-2.14A2.93,2.93,0,0,0,22.23,10.89Z"/><path d="M10.46,3.27a.85.85,0,0,1-.06.17.41.41,0,0,1-.38.25.35.35,0,0,1-.36-.24,1.44,1.44,0,0,1,0-.62c.2-.71.45-.8,1.07-.41a1.24,1.24,0,0,1,.4.39.35.35,0,0,1-.06.5.39.39,0,0,1-.5,0Z"/><path d="M23.76,2.43a.75.75,0,0,1-.11.13.41.41,0,0,1-.48.06A.38.38,0,0,1,23,2.2a1,1,0,0,1,.47-.68c.52-.38.37-.38.8.07a1.31,1.31,0,0,1,.3.46.49.49,0,0,1-.19.66C24.14,2.8,23.94,2.71,23.76,2.43Z"/><path d="M26.18,1.6a2.13,2.13,0,0,1,.57.87.51.51,0,0,1-.21.64c-.23.1-.43,0-.59-.29h0a.43.43,0,0,1-.6.09.47.47,0,0,1,0-.63A2,2,0,0,1,26.18,1.6Z"/><path d="M14.9,2.5l-.28.18a.39.39,0,0,1-.44,0A.45.45,0,0,1,14,2.19a1.91,1.91,0,0,1,.71-1,1.9,1.9,0,0,1,.85.81.46.46,0,0,1-.09.56.41.41,0,0,1-.5,0,1.06,1.06,0,0,1-.15-.15Z"/><path d="M26.06,22.15a1,1,0,0,1,.12-.16.41.41,0,0,1,.44-.12.38.38,0,0,1,.26.37.91.91,0,0,1-.29.7c-.49.53-.37.5-.91.08a1.22,1.22,0,0,1-.32-.39.47.47,0,0,1,.06-.64C25.61,21.85,25.84,21.91,26.06,22.15Z"/><path d="M23.81,22.31l.09-.12a.41.41,0,0,1,.74.27,1,1,0,0,1-.37.71c-.46.44-.34.42-.82,0a1.92,1.92,0,0,1-.36-.44.47.47,0,0,1,.11-.66C23.39,22,23.62,22.06,23.81,22.31Z"/><path d="M14.8,22.31l.07-.09a.44.44,0,0,1,.53-.12.43.43,0,0,1,.19.49,1.63,1.63,0,0,1-.8.89.11.11,0,0,1-.11,0,6.26,6.26,0,0,1-.63-.75.45.45,0,0,1,.13-.65C14.39,22,14.6,22,14.8,22.31Z"/><path d="M17,23.66c-.24-.27-.46-.48-.65-.72a.78.78,0,0,1-.13-.37.38.38,0,0,1,.25-.44.41.41,0,0,1,.49.16l.07.09a1.71,1.71,0,0,1,.11-.14.42.42,0,0,1,.45-.09.35.35,0,0,1,.24.38,1.11,1.11,0,0,1-.17.47C17.51,23.22,17.28,23.41,17,23.66Z"/><path d="M12.66,2.8l-.05.07a.43.43,0,0,1-.52.25.49.49,0,0,1-.27-.52,1.92,1.92,0,0,1,.6-1,2,2,0,0,1,.94.73.45.45,0,0,1,0,.55.39.39,0,0,1-.47.07A1.21,1.21,0,0,1,12.66,2.8Z"/><path d="M17.06,2.28a.57.57,0,0,1-.11.14.42.42,0,0,1-.47.11.32.32,0,0,1-.22-.37,1.41,1.41,0,0,1,.22-.57c.43-.59.67-.59,1.13,0a1.55,1.55,0,0,1,.2.32.46.46,0,0,1-.14.62C17.48,2.61,17.26,2.54,17.06,2.28Z"/><path d="M8.3,21.08,8.44,21a.39.39,0,0,1,.47.07.36.36,0,0,1,.06.47,1.68,1.68,0,0,1-.44.4,5.11,5.11,0,0,1-.72.27,2,2,0,0,1-.37-1c0-.31.16-.52.4-.54S8.23,20.78,8.3,21.08Z"/><path d="M12.55,22.15a.8.8,0,0,1,.13-.13.41.41,0,0,1,.47-.06.35.35,0,0,1,.19.41,1.21,1.21,0,0,1-.24.48,5.25,5.25,0,0,1-.62.53,2,2,0,0,1-.71-.86.47.47,0,0,1,.18-.63C12.16,21.78,12.37,21.87,12.55,22.15Z"/><path d="M21.56,22.39c.18-.27.39-.35.6-.24a.48.48,0,0,1,.17.61,1.89,1.89,0,0,1-.69.79.16.16,0,0,1-.15,0c-.21-.2-.42-.39-.61-.6a.66.66,0,0,1-.13-.31.42.42,0,0,1,.21-.47.41.41,0,0,1,.51.12Z"/><path d="M30.27,4l-.16.07A.38.38,0,0,1,29.65,4a.34.34,0,0,1,0-.45,2.46,2.46,0,0,1,.4-.39.93.93,0,0,1,.27-.12c.6-.18.48-.25.75.35a1.45,1.45,0,0,1,.11.51.49.49,0,0,1-.38.56C30.53,4.5,30.36,4.35,30.27,4Z"/><path d="M28.14,3.29c-.36.27-.72.07-.72-.2a.67.67,0,0,1,.18-.45,1.67,1.67,0,0,1,.9-.47.14.14,0,0,1,.12,0,1.78,1.78,0,0,1,.38,1,.45.45,0,0,1-.36.5c-.21,0-.37-.08-.47-.35Z"/><path d="M19.32,2.23l-.11.13a.38.38,0,0,1-.46.11.33.33,0,0,1-.24-.38,1.57,1.57,0,0,1,.25-.58A4.72,4.72,0,0,1,19.31,1c.24.24.46.46.67.69a.79.79,0,0,1,.13.31.4.4,0,0,1-.22.49.42.42,0,0,1-.52-.17Z"/><path d="M21.55,2.31c-.09.07-.17.19-.26.2a.7.7,0,0,1-.43-.07.39.39,0,0,1-.1-.48,1.78,1.78,0,0,1,.74-.84.15.15,0,0,1,.13,0c.22.23.45.46.65.71a.6.6,0,0,1,.07.33.35.35,0,0,1-.25.37.4.4,0,0,1-.45-.11A.58.58,0,0,1,21.55,2.31Z"/><path d="M30.28,21.07a1.7,1.7,0,0,1,.18-.31.41.41,0,0,1,.69.22,1.61,1.61,0,0,1-.3,1.16.21.21,0,0,1-.11,0,2.15,2.15,0,0,1-.94-.41,1.58,1.58,0,0,1-.12-.15.42.42,0,0,1,0-.53.43.43,0,0,1,.52-.07Z"/><path d="M8.33,4l0,.1a.41.41,0,0,1-.42.34.44.44,0,0,1-.4-.41A1.69,1.69,0,0,1,7.78,3a.13.13,0,0,1,.14,0,9,9,0,0,1,.9.39A.47.47,0,0,1,9,3.55.38.38,0,0,1,9,4a.4.4,0,0,1-.46.1Z"/><path d="M28.26,21.8a.91.91,0,0,1,.07-.14.4.4,0,0,1,.46-.18.39.39,0,0,1,.3.37,1.11,1.11,0,0,1-.3.81c-.34.42-.21.41-.69.14a2.27,2.27,0,0,1-.45-.37.5.5,0,0,1-.06-.7C27.76,21.57,28,21.59,28.26,21.8Z"/><path d="M10.35,21.8c.09-.06.16-.15.24-.15a.78.78,0,0,1,.43.09c.16.12.14.31.07.49a1.37,1.37,0,0,1-.69.63c-.36.19-.26.19-.5-.1a2.82,2.82,0,0,1-.36-.66.47.47,0,0,1,.24-.61C10,21.4,10.21,21.51,10.35,21.8Z"/><path d="M19.28,23.69l-.6-.57a1.09,1.09,0,0,1-.14-.23.5.5,0,0,1,.13-.65c.2-.12.42,0,.61.21a1.45,1.45,0,0,1,.17-.18.38.38,0,0,1,.47,0,.38.38,0,0,1,.16.5,5.23,5.23,0,0,1-.48.68A1.55,1.55,0,0,1,19.28,23.69Z"/><path d="M2.19,10a2,2,0,0,1,1-.54.71.71,0,0,1,.38.06.36.36,0,0,1,0,.65l-.18.08a1.77,1.77,0,0,1,.12.17.35.35,0,0,1-.29.55.58.58,0,0,1-.54-.22C2.53,10.51,2.37,10.25,2.19,10Z"/><path d="M2.77,7.44c.3-.12.58-.25.88-.34a.9.9,0,0,1,.43,0,.37.37,0,0,1,.3.37.36.36,0,0,1-.3.36L4,7.89c.16.24.17.46,0,.6a.48.48,0,0,1-.62,0A1.92,1.92,0,0,1,2.77,7.44Z"/><path d="M35.9,7.5c-.15.27-.27.53-.43.76a1,1,0,0,1-.4.3.35.35,0,0,1-.45-.11.36.36,0,0,1,0-.47.47.47,0,0,1,.06-.09l0,0c-.27-.1-.4-.25-.37-.44a.47.47,0,0,1,.51-.36A2.15,2.15,0,0,1,35.9,7.5Z"/><path d="M36.46,10c-.18.25-.34.51-.53.74a.73.73,0,0,1-.35.21.4.4,0,0,1-.49-.14c-.11-.16-.07-.33.12-.55l0,0c-.26-.12-.37-.29-.32-.49a.5.5,0,0,1,.55-.3A2,2,0,0,1,36.46,10Z"/><path d="M3.09,12.38c.07.06.17.11.19.18a.69.69,0,0,1,0,.4.37.37,0,0,1-.42.18,1.31,1.31,0,0,1-.81-.49c-.26-.28-.27-.29,0-.56a2.62,2.62,0,0,1,.57-.42.49.49,0,0,1,.66.13C3.41,12,3.34,12.17,3.09,12.38Z"/><path d="M36.88,12.38c-.28.24-.5.45-.74.64a.7.7,0,0,1-.27.11.47.47,0,0,1-.55-.21c-.08-.19,0-.37.24-.54-.05,0-.13-.07-.15-.12s-.12-.3-.08-.41a.46.46,0,0,1,.34-.23.72.72,0,0,1,.45.11A8.28,8.28,0,0,1,36.88,12.38Z"/><path d="M3.42,14.5c.3.11.42.27.38.49a.47.47,0,0,1-.5.31,1.85,1.85,0,0,1-1.08-.51,2,2,0,0,1,.58-.85.65.65,0,0,1,.35-.16.63.63,0,0,1,.4.17.34.34,0,0,1,0,.45Z"/><path d="M36.44,14.78a2,2,0,0,1-1,.51.63.63,0,0,1-.31,0c-.15-.05-.28-.16-.25-.32a1.1,1.1,0,0,1,.21-.36s.1-.05.16-.07l-.09-.1a.36.36,0,0,1,0-.47.33.33,0,0,1,.43-.14,1.81,1.81,0,0,1,.55.4A2.81,2.81,0,0,1,36.44,14.78Z"/><path d="M35.88,17.26a1.86,1.86,0,0,1-1.17.41.44.44,0,0,1-.45-.37c0-.2.14-.35.42-.43,0-.05-.09-.1-.09-.15a.85.85,0,0,1,0-.43.34.34,0,0,1,.46-.09,1.56,1.56,0,0,1,.45.4A4.06,4.06,0,0,1,35.88,17.26Z"/><path d="M4,16.87c.29.08.44.24.42.43a.42.42,0,0,1-.44.37,1.8,1.8,0,0,1-1.15-.39,1.78,1.78,0,0,1,.57-1,.85.85,0,0,1,.31-.13.3.3,0,0,1,.37.17,1.25,1.25,0,0,1,0,.43A.46.46,0,0,1,4,16.87Z"/><path d="M34.29,22.23c0-.38.06-.75.08-1.11a.79.79,0,0,0,0-.41,1.88,1.88,0,0,0-.45-.44c-.07-.05-.21,0-.31,0l-.35,0c0,.22,0,.43-.05.64s0,.25-.19.24-.19-.12-.18-.26,0-.48,0-.71.07-.27.25-.27l.66-.05c0-.22,0-.42,0-.62a.23.23,0,0,1,.25-.27l.78,0c.13,0,.24,0,.24.18s-.11.18-.23.19l-.68,0c0,.2,0,.39,0,.58a.31.31,0,0,0,.07.14.93.93,0,0,0,1,.38,9.72,9.72,0,0,1,1-.08c-.08.36,0,.73-.35,1a2.27,2.27,0,0,0-.47.46A1.25,1.25,0,0,1,34.29,22.23Z"/><path d="M4.62,22.23c-.41,0-.8,0-1.06-.39a1.67,1.67,0,0,0-.33-.32,1.14,1.14,0,0,1-.49-1.14l.84.05a.62.62,0,0,1,.19,0c.43.12.7-.13.94-.42a.24.24,0,0,0,0-.13c0-.18,0-.35,0-.55l-.63,0c-.14,0-.27,0-.27-.2s.15-.18.29-.17l.78.06a.19.19,0,0,1,.2.2c0,.17,0,.34,0,.51s.06.19.2.19a3.07,3.07,0,0,1,.53.05.26.26,0,0,1,.19.19c0,.26,0,.53.06.8,0,.12,0,.22-.16.23s-.19-.07-.2-.2,0-.44-.05-.68a5.29,5.29,0,0,0-.54,0,.6.6,0,0,0-.26.14.69.69,0,0,0-.33.78A9,9,0,0,1,4.62,22.23Z"/><path d="M33.78,4.65l-.65,0a.23.23,0,0,1-.26-.24c0-.25,0-.51,0-.76s0-.23.17-.24.19.09.2.22,0,.42.05.63a.92.92,0,0,0,1.12-.39.25.25,0,0,0,0-.17c0-.35-.05-.7-.07-1.05,0-.1,0-.2,0-.31.22,0,.43,0,.65.08a.42.42,0,0,1,.17.1,8.42,8.42,0,0,0,.61.59,1.16,1.16,0,0,1,.45,1.07H36c-.34,0-.69,0-1-.07a.7.7,0,0,0-.58.19.74.74,0,0,0-.23.79.23.23,0,0,0,.16.14,5.09,5.09,0,0,0,.55,0c.12,0,.21,0,.2.19s-.11.16-.23.16l-.82,0a.21.21,0,0,1-.22-.23C33.82,5.1,33.8,4.89,33.78,4.65Z"/><path d="M2.39,4.36c0-.25.06-.46.1-.68a.33.33,0,0,1,.1-.15l.88-.85a.36.36,0,0,1,.21-.11c.2,0,.39,0,.63-.08l-.06,1s0,0,0,.06c-.15.45.16.69.44.93,0,0,.13,0,.2,0l.48,0c0-.22,0-.43,0-.63s0-.26.19-.25.19.12.18.25,0,.5,0,.74a.24.24,0,0,1-.25.25l-.66,0c0,.22,0,.43-.05.63a.23.23,0,0,1-.25.27l-.78,0c-.13,0-.23,0-.24-.18s.11-.18.23-.19l.55,0s.11,0,.11,0c0-.22,0-.45,0-.67l0,0a.9.9,0,0,0-1-.36C3.05,4.34,2.74,4.33,2.39,4.36Z"/><path d="M18.6,11.08h.66c.49,0,1,0,1.48,0A1.27,1.27,0,0,1,22,12.34a3.07,3.07,0,0,1-.09,1,1.13,1.13,0,0,1-1.05.86c-.73.05-1.47,0-2.21.05,0,0,0,0,0,0a3.43,3.43,0,0,0,.08-.5c0-.75,0-1.49,0-2.24A1.84,1.84,0,0,0,18.6,11.08Zm.78,2.62c.36,0,.72,0,1.07,0a.81.81,0,0,0,.81-.74,1.79,1.79,0,0,0,0-.61.77.77,0,0,0-.75-.73,10.44,10.44,0,0,0-1.12,0Z"/><path d="M23.74,14.17a2.7,2.7,0,0,0,.07-.41c0-.75,0-1.51,0-2.26a2.27,2.27,0,0,0-.08-.41s0,0,0,0c.72,0,1.43,0,2.14,0a1.26,1.26,0,0,1,1.2,1.23,2.79,2.79,0,0,1-.08.91,1.12,1.12,0,0,1-1,.9C25.19,14.21,24.45,14.17,23.74,14.17Zm.76-.47c.37,0,.71,0,1.06,0a.83.83,0,0,0,.83-.78,2.51,2.51,0,0,0,0-.67.69.69,0,0,0-.62-.61c-.4-.05-.82-.05-1.24-.07Z"/><path d="M9.49,12.67a1.49,1.49,0,0,1,1.36-1.54,2.92,2.92,0,0,1,1,0,1.54,1.54,0,0,1-.16,3,3,3,0,0,1-1.07,0A1.47,1.47,0,0,1,9.49,12.67Zm1.77,1a1.05,1.05,0,0,0,1.12-1,1,1,0,0,0-1.1-1,1,1,0,1,0,0,2.08Z"/><path d="M16,11.09h.91c-.21.18-.16.39-.16.59,0,.47,0,1,0,1.42a1,1,0,0,1-.94,1.1,3,3,0,0,1-1.34,0,.93.93,0,0,1-.81-1c0-.57,0-1.13,0-1.69a1.92,1.92,0,0,0-.07-.38h.83a4.46,4.46,0,0,0-.07.51c0,.45,0,.9,0,1.35s.17.68.63.73a2.51,2.51,0,0,0,.67,0,.52.52,0,0,0,.47-.54c0-.6,0-1.19,0-1.78A.6.6,0,0,0,16,11.09Z"/><path d="M34.34,18.4a2.89,2.89,0,0,1,2.86,2.75,2,2,0,0,1-2.14,2.07A2.92,2.92,0,0,1,32.32,21,2,2,0,0,1,34.34,18.4ZM35,23A1.79,1.79,0,0,0,36.93,21a2.57,2.57,0,0,0-2.69-2.35,1.81,1.81,0,0,0-1.72,1.91A2.6,2.6,0,0,0,35,23Z"/><path d="M2.11,21.17a2.87,2.87,0,0,1,3.41-2.71A2,2,0,0,1,7,20.8a2.89,2.89,0,0,1-3.12,2.4A2,2,0,0,1,2.11,21.17ZM4.28,23a2.63,2.63,0,0,0,2.41-1.81,1.85,1.85,0,0,0-1.55-2.49,2.61,2.61,0,0,0-2.72,2.05A1.82,1.82,0,0,0,4.28,23Z"/><path d="M35.12,1.72a2,2,0,0,1,2,2.43,2.86,2.86,0,0,1-3.39,2.31,2,2,0,0,1-1.51-2.13A2.89,2.89,0,0,1,35.12,1.72ZM35.06,2A2.63,2.63,0,0,0,32.56,4a1.81,1.81,0,0,0,1.59,2.22,2.59,2.59,0,0,0,2.73-2A1.82,1.82,0,0,0,35.06,2Z"/><path d="M4.65,6.72A2.9,2.9,0,0,1,1.8,4.14a2,2,0,0,1,2-2.23A2.9,2.9,0,0,1,6.74,4.63,2,2,0,0,1,4.65,6.72ZM4,2.17a1.79,1.79,0,0,0-1.9,2A2.58,2.58,0,0,0,4.77,6.46,1.81,1.81,0,0,0,6.48,4.57,2.59,2.59,0,0,0,4,2.17Z"/><path d="M5.69,11.1H6.94c-.29.13-.17.27-.08.42s.35.51.54.79c.23-.32.45-.61.64-.92,0-.06,0-.19-.07-.29H9.11a12.09,12.09,0,0,0-1.32,1.72.3.3,0,0,0-.06.18c0,.3,0,.6,0,.91a1.26,1.26,0,0,0,.14.29H7c0-.17.06-.33.08-.5a1.68,1.68,0,0,0-.45-1.43c-.21-.24-.37-.53-.57-.79S5.82,11.24,5.69,11.1Z"/><path d="M31.36,11.57c-.41.08-.81-.11-1.18.14V11a3.18,3.18,0,0,0,.43.06h2.25a2.66,2.66,0,0,0,.37-.07v.68a2.24,2.24,0,0,0-.39-.1H32v1c0,.4,0,.8,0,1.2a1.93,1.93,0,0,0,.08.39h-.84a2.07,2.07,0,0,0,.08-.42Z"/><path d="M29.71,11.1a2.77,2.77,0,0,0-.09.33v2.41a2.25,2.25,0,0,0,.09.35h-.84a4.29,4.29,0,0,0,.07-.5c0-.73,0-1.45,0-2.18a2.12,2.12,0,0,0-.08-.41Z"/><path d="M22.43,11.08s0,0,0,0h.92c-.23.17-.17.38-.17.57v2.16a3.56,3.56,0,0,0,.09.39h-.84a4.29,4.29,0,0,0,.07-.5q0-1.06,0-2.13A3,3,0,0,0,22.43,11.08Z"/><path d="M10.66,3.47l-.06.17a.41.41,0,0,1-.38.25.34.34,0,0,1-.36-.25,1.4,1.4,0,0,1,0-.61c.2-.71.44-.8,1.07-.42a1.35,1.35,0,0,1,.4.39.35.35,0,0,1-.06.5.38.38,0,0,1-.5,0Z"/><path d="M24,2.63l-.11.13a.43.43,0,0,1-.48.06.38.38,0,0,1-.2-.42,1,1,0,0,1,.46-.68c.52-.38.38-.38.81.06a1.42,1.42,0,0,1,.29.47.46.46,0,0,1-.18.65C24.34,3,24.14,2.91,24,2.63Z"/><path d="M26.38,1.8a2.13,2.13,0,0,1,.57.87.51.51,0,0,1-.22.64c-.22.1-.42,0-.59-.3h0c-.21.2-.43.23-.6.09a.47.47,0,0,1-.05-.63A2,2,0,0,1,26.38,1.8Z"/><path d="M15.1,2.7l-.28.17a.39.39,0,0,1-.44,0,.47.47,0,0,1-.16-.48,1.93,1.93,0,0,1,.71-1,1.9,1.9,0,0,1,.85.81.46.46,0,0,1-.09.56.42.42,0,0,1-.51,0s-.09-.1-.14-.15Z"/><path d="M26.26,22.35a1.11,1.11,0,0,1,.11-.16.41.41,0,0,1,.45-.12.39.39,0,0,1,.26.37.91.91,0,0,1-.29.7c-.49.53-.37.5-.92.08a1.76,1.76,0,0,1-.32-.39.48.48,0,0,1,.07-.65C25.81,22.05,26,22.11,26.26,22.35Z"/><path d="M24,22.51a1.25,1.25,0,0,1,.09-.12.4.4,0,0,1,.47-.15.37.37,0,0,1,.26.41,1.07,1.07,0,0,1-.36.72c-.46.44-.34.42-.82,0a1.92,1.92,0,0,1-.36-.44.48.48,0,0,1,.1-.66C23.59,22.19,23.82,22.26,24,22.51Z"/><path d="M15,22.5l.06-.08a.44.44,0,0,1,.53-.12.41.41,0,0,1,.19.49,1.61,1.61,0,0,1-.79.89.11.11,0,0,1-.11,0,6.26,6.26,0,0,1-.63-.75.45.45,0,0,1,.13-.65C14.59,22.15,14.8,22.23,15,22.5Z"/><path d="M17.23,23.85c-.24-.26-.46-.47-.65-.71a.82.82,0,0,1-.13-.37.37.37,0,0,1,.25-.44.41.41,0,0,1,.49.16l.07.09a1.71,1.71,0,0,1,.11-.14.42.42,0,0,1,.45-.09.35.35,0,0,1,.24.38,1,1,0,0,1-.17.46A8.21,8.21,0,0,1,17.23,23.85Z"/><path d="M12.86,3l0,.07a.44.44,0,0,1-.52.25A.47.47,0,0,1,12,2.8a1.92,1.92,0,0,1,.6-1,2,2,0,0,1,.94.73.46.46,0,0,1,0,.55.41.41,0,0,1-.47.07A1.21,1.21,0,0,1,12.86,3Z"/><path d="M17.26,2.48a.85.85,0,0,1-.11.14.42.42,0,0,1-.47.1.32.32,0,0,1-.23-.36,1.64,1.64,0,0,1,.23-.58c.43-.58.66-.58,1.13,0a1.55,1.55,0,0,1,.2.32.46.46,0,0,1-.14.62C17.68,2.81,17.46,2.74,17.26,2.48Z"/><path d="M8.5,21.28l.14-.08a.39.39,0,0,1,.47.08.34.34,0,0,1,.06.46,1.6,1.6,0,0,1-.45.41,4.68,4.68,0,0,1-.72.26,1.89,1.89,0,0,1-.36-1A.49.49,0,0,1,8,20.83C8.25,20.81,8.42,21,8.5,21.28Z"/><path d="M12.75,22.35a1.67,1.67,0,0,1,.12-.13.41.41,0,0,1,.48-.06.35.35,0,0,1,.19.41,1.35,1.35,0,0,1-.24.48,6.4,6.4,0,0,1-.62.53,2.06,2.06,0,0,1-.72-.87.47.47,0,0,1,.19-.62C12.36,22,12.57,22.07,12.75,22.35Z"/><path d="M21.76,22.59c.18-.27.39-.35.6-.24a.47.47,0,0,1,.16.61,1.8,1.8,0,0,1-.68.79.2.2,0,0,1-.15,0c-.21-.2-.42-.39-.61-.61a.63.63,0,0,1-.13-.3.4.4,0,0,1,.21-.47.41.41,0,0,1,.51.12Z"/><path d="M30.47,4.22l-.16.08a.39.39,0,0,1-.47-.09.35.35,0,0,1,0-.45,2.46,2.46,0,0,1,.4-.39.72.72,0,0,1,.27-.12c.6-.18.48-.25.75.35a1.25,1.25,0,0,1,.1.51.47.47,0,0,1-.37.55C30.73,4.7,30.56,4.55,30.47,4.22Z"/><path d="M28.33,3.49c-.35.27-.71.07-.71-.21a.71.71,0,0,1,.17-.44,1.84,1.84,0,0,1,.9-.48.15.15,0,0,1,.13.05,1.78,1.78,0,0,1,.38,1,.45.45,0,0,1-.36.5c-.21,0-.38-.08-.48-.35A.09.09,0,0,0,28.33,3.49Z"/><path d="M19.51,2.42a.71.71,0,0,1-.1.14.42.42,0,0,1-.47.11.35.35,0,0,1-.24-.38A1.52,1.52,0,0,1,19,1.71a3.54,3.54,0,0,1,.55-.54c.24.24.46.46.67.69a.79.79,0,0,1,.13.31.4.4,0,0,1-.23.49.41.41,0,0,1-.51-.17Z"/><path d="M21.75,2.51c-.09.07-.17.19-.26.2a.69.69,0,0,1-.43-.07.39.39,0,0,1-.1-.48,1.64,1.64,0,0,1,.74-.84s.11,0,.13,0c.22.23.45.46.65.71a.7.7,0,0,1,.07.33.36.36,0,0,1-.25.37.4.4,0,0,1-.45-.11Z"/><path d="M30.48,21.27a1.7,1.7,0,0,1,.18-.31.4.4,0,0,1,.69.22A1.57,1.57,0,0,1,31,22.34a.15.15,0,0,1-.1,0A2.06,2.06,0,0,1,30,22a.53.53,0,0,1-.12-.14.4.4,0,0,1,.53-.6Z"/><path d="M8.53,4.22l0,.1a.39.39,0,0,1-.42.33.43.43,0,0,1-.4-.4A1.63,1.63,0,0,1,8,3.18a.16.16,0,0,1,.14-.06c.3.13.61.25.9.4a.49.49,0,0,1,.18.22.39.39,0,0,1,0,.46.43.43,0,0,1-.47.1Z"/><path d="M28.46,22a.61.61,0,0,1,.07-.14.39.39,0,0,1,.46-.18.37.37,0,0,1,.29.37,1.07,1.07,0,0,1-.29.81c-.34.42-.21.41-.69.14a2,2,0,0,1-.45-.37.51.51,0,0,1-.06-.71C28,21.77,28.2,21.79,28.46,22Z"/><path d="M10.55,22c.09-.06.16-.15.24-.15a.78.78,0,0,1,.43.09.39.39,0,0,1,.06.49,1.35,1.35,0,0,1-.68.63c-.36.19-.26.19-.5-.1a2.82,2.82,0,0,1-.36-.66.49.49,0,0,1,.24-.62C10.2,21.6,10.41,21.71,10.55,22Z"/><path d="M19.48,23.89l-.6-.57a1,1,0,0,1-.14-.24.49.49,0,0,1,.13-.64c.2-.12.42-.05.61.21a1,1,0,0,1,.17-.18.39.39,0,0,1,.47,0,.4.4,0,0,1,.16.51,5.23,5.23,0,0,1-.48.68A2,2,0,0,1,19.48,23.89Z"/><path d="M2.39,10.2a1.93,1.93,0,0,1,1-.54.73.73,0,0,1,.39.06.37.37,0,0,1,0,.65l-.18.08.12.16a.36.36,0,0,1-.29.56A.63.63,0,0,1,2.92,11C2.73,10.71,2.57,10.45,2.39,10.2Z"/><path d="M3,7.64a7.52,7.52,0,0,1,.88-.34.94.94,0,0,1,.44,0,.36.36,0,0,1,.3.36.38.38,0,0,1-.3.37l-.11.05c.16.24.17.46,0,.6a.48.48,0,0,1-.62,0A2,2,0,0,1,3,7.64Z"/><path d="M36.09,7.7a7.85,7.85,0,0,1-.42.76,1.11,1.11,0,0,1-.4.3.35.35,0,0,1-.45-.11.38.38,0,0,1,0-.47l.06-.09,0,0c-.27-.1-.4-.25-.37-.44a.46.46,0,0,1,.5-.36A2.08,2.08,0,0,1,36.09,7.7Z"/><path d="M36.65,10.2c-.17.25-.33.5-.52.73a.68.68,0,0,1-.35.22.4.4,0,0,1-.49-.14c-.11-.17-.07-.34.11-.55l0,0c-.27-.12-.37-.29-.32-.5a.5.5,0,0,1,.55-.29A2,2,0,0,1,36.65,10.2Z"/><path d="M3.29,12.58c.07.06.17.11.19.18a.78.78,0,0,1,0,.4.38.38,0,0,1-.42.18,1.28,1.28,0,0,1-.81-.49c-.26-.28-.27-.29,0-.56a2.62,2.62,0,0,1,.57-.42A.49.49,0,0,1,3.5,12C3.61,12.18,3.54,12.37,3.29,12.58Z"/><path d="M37.08,12.57c-.28.25-.51.46-.74.65a.67.67,0,0,1-.28.1.45.45,0,0,1-.54-.2c-.08-.19,0-.38.24-.54,0,0-.13-.07-.15-.13a.67.67,0,0,1-.08-.4.46.46,0,0,1,.34-.23.72.72,0,0,1,.45.11C36.58,12.11,36.8,12.33,37.08,12.57Z"/><path d="M3.62,14.7c.3.11.42.27.37.48a.45.45,0,0,1-.49.32A1.94,1.94,0,0,1,2.42,15,1.93,1.93,0,0,1,3,14.14.62.62,0,0,1,3.35,14a.63.63,0,0,1,.4.17.34.34,0,0,1,0,.45Z"/><path d="M36.64,15a1.94,1.94,0,0,1-1,.52.83.83,0,0,1-.31,0c-.15,0-.27-.16-.24-.32a1.1,1.1,0,0,1,.21-.36s.09,0,.15-.07l-.09-.1a.38.38,0,0,1,0-.47.33.33,0,0,1,.43-.14,1.81,1.81,0,0,1,.55.4A3.59,3.59,0,0,1,36.64,15Z"/><path d="M36.08,17.46a1.86,1.86,0,0,1-1.17.41.44.44,0,0,1-.45-.37c0-.2.13-.35.41-.43,0-.05-.09-.1-.08-.15a.85.85,0,0,1,.05-.43.34.34,0,0,1,.46-.09,1.56,1.56,0,0,1,.45.4A4.06,4.06,0,0,1,36.08,17.46Z"/><path d="M4.16,17.07c.28.08.43.24.42.43a.44.44,0,0,1-.45.37A1.85,1.85,0,0,1,3,17.47a1.87,1.87,0,0,1,.58-1,.71.71,0,0,1,.31-.13.3.3,0,0,1,.37.17,1,1,0,0,1,0,.43S4.19,17,4.16,17.07Z"/><path d="M34.49,22.42c0-.38.06-.74.08-1.1a.79.79,0,0,0,0-.41,1.88,1.88,0,0,0-.45-.44c-.07,0-.21,0-.31,0l-.35,0c0,.22,0,.42,0,.63s0,.25-.2.25-.19-.12-.18-.26l.06-.72c0-.16.07-.26.25-.26l.66-.05c0-.22,0-.42.05-.63a.23.23,0,0,1,.25-.26l.78-.05c.13,0,.24,0,.24.18s-.11.18-.23.19l-.68,0,0,.58s0,.09.08.14a.92.92,0,0,0,1,.38c.31-.06.63,0,1-.08-.07.36,0,.73-.34,1a2,2,0,0,0-.47.45A1.21,1.21,0,0,1,34.49,22.42Z"/><path d="M4.82,22.43c-.41,0-.8,0-1.06-.39a1.67,1.67,0,0,0-.33-.32,1.14,1.14,0,0,1-.49-1.14l.84.05a.55.55,0,0,1,.18,0,.87.87,0,0,0,1-.42.24.24,0,0,0,0-.14c0-.17,0-.35,0-.54l-.63,0c-.14,0-.28,0-.27-.2s.15-.18.29-.17l.78.06a.18.18,0,0,1,.19.2c0,.17,0,.34,0,.5s.06.2.2.2a3.08,3.08,0,0,1,.53,0,.31.31,0,0,1,.19.2c0,.26,0,.53.06.8s0,.21-.16.23-.19-.07-.2-.2,0-.44-.06-.68a3.23,3.23,0,0,0-.53,0,.7.7,0,0,0-.27.14.72.72,0,0,0-.33.78A7.23,7.23,0,0,1,4.82,22.43Z"/><path d="M34,4.85c-.23,0-.44,0-.65,0s-.25-.08-.26-.24L33,3.81c0-.13,0-.23.18-.24s.19.09.2.22,0,.42,0,.63A.93.93,0,0,0,34.56,4a.32.32,0,0,0,0-.17c0-.35,0-.7-.08-1V2.5l.66.07a.36.36,0,0,1,.17.11,8.25,8.25,0,0,0,.61.58,1.18,1.18,0,0,1,.44,1.08h-.15c-.34,0-.69,0-1-.06a.7.7,0,0,0-.58.19.74.74,0,0,0-.23.79.2.2,0,0,0,.16.13,4.89,4.89,0,0,0,.55.05c.12,0,.21,0,.2.19s-.11.16-.23.16l-.82,0A.21.21,0,0,1,34,5.51C34,5.3,34,5.09,34,4.85Z"/><path d="M2.59,4.55c0-.24.06-.45.09-.67a.31.31,0,0,1,.11-.15l.88-.85a.36.36,0,0,1,.21-.11c.2,0,.39-.06.62-.09,0,.34,0,.66-.06,1v.06c-.15.45.15.69.44.93a.4.4,0,0,0,.2,0l.48,0c0-.22,0-.43.05-.64s0-.25.19-.24S6,3.88,6,4s0,.5-.05.74A.24.24,0,0,1,5.68,5L5,5c0,.22,0,.43,0,.63a.23.23,0,0,1-.25.27L3.94,6c-.13,0-.24,0-.24-.18s.1-.18.23-.19l.54,0,.12,0c0-.23,0-.45,0-.67,0,0,0,0,0,0a.91.91,0,0,0-1-.37A7.09,7.09,0,0,1,2.59,4.55Z"/></g><g class="cls-3"><path d="M18.26,10.74h.66c.49,0,1,0,1.48,0A1.27,1.27,0,0,1,21.61,12a3.07,3.07,0,0,1-.09,1,1.13,1.13,0,0,1-1.05.86c-.73,0-1.47,0-2.21,0,0,0,0,0,0,0a3.43,3.43,0,0,0,.08-.5c0-.75,0-1.49,0-2.24A1.84,1.84,0,0,0,18.26,10.74ZM19,13.36c.36,0,.72,0,1.07,0a.81.81,0,0,0,.81-.74,1.79,1.79,0,0,0,0-.61.77.77,0,0,0-.75-.73,10.44,10.44,0,0,0-1.12,0Z"/><path d="M23.4,13.83a2.7,2.7,0,0,0,.07-.41c0-.75,0-1.51,0-2.26a2.27,2.27,0,0,0-.08-.41s0,0,0,0c.72,0,1.43,0,2.14,0A1.26,1.26,0,0,1,26.73,12a2.79,2.79,0,0,1-.08.91,1.12,1.12,0,0,1-1,.9C24.85,13.87,24.11,13.83,23.4,13.83Zm.76-.47c.37,0,.71,0,1.06,0a.83.83,0,0,0,.83-.78,2.51,2.51,0,0,0,0-.67.69.69,0,0,0-.62-.61c-.4-.05-.82-.05-1.24-.07Z"/><path d="M9.14,12.33a1.51,1.51,0,0,1,1.37-1.54,2.92,2.92,0,0,1,1,0,1.5,1.5,0,0,1,1.19,1.65,1.52,1.52,0,0,1-1.35,1.38,3,3,0,0,1-1.07,0A1.49,1.49,0,0,1,9.14,12.33Zm1.78,1a1.05,1.05,0,0,0,1.12-1,1,1,0,0,0-1.1-1,1,1,0,1,0,0,2.08Z"/><path d="M15.61,10.75h.91c-.22.18-.16.39-.16.59,0,.47,0,.95,0,1.42a1,1,0,0,1-.94,1.1,3,3,0,0,1-1.34,0,.93.93,0,0,1-.81-1c0-.57,0-1.13,0-1.69a1.8,1.8,0,0,0-.07-.38H14a4.46,4.46,0,0,0-.07.51c0,.45,0,.9,0,1.35s.17.68.63.73a2.51,2.51,0,0,0,.67,0,.52.52,0,0,0,.47-.54c0-.6,0-1.19,0-1.78A.6.6,0,0,0,15.61,10.75Z"/><path d="M34,18.06a2.89,2.89,0,0,1,2.86,2.75,2,2,0,0,1-2.14,2.07A2.91,2.91,0,0,1,32,20.62,2,2,0,0,1,34,18.06Zm.69,4.56a1.79,1.79,0,0,0,1.9-1.95,2.57,2.57,0,0,0-2.69-2.35,1.81,1.81,0,0,0-1.72,1.91A2.6,2.6,0,0,0,34.69,22.62Z"/><path d="M1.77,20.83a2.87,2.87,0,0,1,3.41-2.71,2,2,0,0,1,1.51,2.34,2.89,2.89,0,0,1-3.12,2.4A2,2,0,0,1,1.77,20.83Zm2.17,1.79a2.63,2.63,0,0,0,2.41-1.81A1.85,1.85,0,0,0,4.8,18.32a2.61,2.61,0,0,0-2.72,2.05A1.82,1.82,0,0,0,3.94,22.62Z"/><path d="M34.78,1.38a2,2,0,0,1,2,2.43,2.86,2.86,0,0,1-3.39,2.31A2,2,0,0,1,31.92,4,2.89,2.89,0,0,1,34.78,1.38Zm-.06.25a2.63,2.63,0,0,0-2.5,2.07,1.81,1.81,0,0,0,1.59,2.22,2.59,2.59,0,0,0,2.73-2A1.82,1.82,0,0,0,34.72,1.63Z"/><path d="M4.31,6.38A2.89,2.89,0,0,1,1.46,3.8a2,2,0,0,1,2-2.23A2.9,2.9,0,0,1,6.4,4.29,2,2,0,0,1,4.31,6.38ZM3.62,1.83a1.79,1.79,0,0,0-1.9,2A2.58,2.58,0,0,0,4.43,6.12,1.81,1.81,0,0,0,6.14,4.23,2.59,2.59,0,0,0,3.62,1.83Z"/><path d="M5.35,10.76H6.6c-.29.13-.17.27-.08.42s.35.51.54.79c.22-.32.45-.61.64-.92,0-.06,0-.19-.07-.29H8.77a12.09,12.09,0,0,0-1.32,1.72.3.3,0,0,0-.06.18c0,.3,0,.6,0,.91a1.75,1.75,0,0,0,.13.29H6.64c0-.17.06-.33.08-.5a1.68,1.68,0,0,0-.45-1.43c-.21-.24-.37-.53-.57-.79S5.48,10.9,5.35,10.76Z"/><path d="M31,11.23c-.41.08-.81-.11-1.18.14v-.69a3.18,3.18,0,0,0,.43.06h2.25a2.66,2.66,0,0,0,.37-.07v.68a2.24,2.24,0,0,0-.39-.1h-.8v1c0,.41,0,.81,0,1.21a1.93,1.93,0,0,0,.08.39h-.84a3.1,3.1,0,0,0,.08-.42Z"/><path d="M29.37,10.76a2.77,2.77,0,0,0-.09.33V13.5a1.5,1.5,0,0,0,.09.35h-.84a4.29,4.29,0,0,0,.07-.5c0-.73,0-1.45,0-2.18a2.12,2.12,0,0,0-.08-.41Z"/><path d="M22.09,10.74s0,0,0,0H23c-.23.17-.17.38-.17.57v2.16a3.56,3.56,0,0,0,.09.39h-.84a4.29,4.29,0,0,0,.07-.5q0-1.06,0-2.13A3,3,0,0,0,22.09,10.74Z"/><path d="M10.32,3.13l-.06.17a.41.41,0,0,1-.38.25.34.34,0,0,1-.36-.25,1.4,1.4,0,0,1,0-.61c.2-.71.44-.8,1.07-.42a1.35,1.35,0,0,1,.4.39.35.35,0,0,1-.06.5.38.38,0,0,1-.5,0Z"/><path d="M23.62,2.29l-.11.13a.43.43,0,0,1-.48.06.38.38,0,0,1-.2-.42,1,1,0,0,1,.46-.68c.52-.38.38-.38.81.06a1.42,1.42,0,0,1,.29.47.46.46,0,0,1-.18.65C24,2.66,23.8,2.57,23.62,2.29Z"/><path d="M26,1.46a2.13,2.13,0,0,1,.57.87.51.51,0,0,1-.22.64c-.22.1-.42,0-.59-.3h0c-.21.2-.43.23-.6.09a.47.47,0,0,1-.05-.63A2,2,0,0,1,26,1.46Z"/><path d="M14.76,2.36l-.28.17a.38.38,0,0,1-.44,0A.44.44,0,0,1,13.88,2a1.93,1.93,0,0,1,.71-1,1.9,1.9,0,0,1,.85.81.46.46,0,0,1-.09.56.42.42,0,0,1-.51,0c-.05,0-.09-.1-.14-.15Z"/><path d="M25.92,22a1.11,1.11,0,0,1,.11-.16.41.41,0,0,1,.45-.12.39.39,0,0,1,.26.37.91.91,0,0,1-.29.7c-.49.53-.37.5-.92.08a1.76,1.76,0,0,1-.32-.39.48.48,0,0,1,.07-.65C25.47,21.71,25.7,21.76,25.92,22Z"/><path d="M23.67,22.17a1.25,1.25,0,0,1,.09-.12.4.4,0,0,1,.47-.15.37.37,0,0,1,.26.41,1.07,1.07,0,0,1-.36.72c-.46.44-.34.42-.82,0a1.92,1.92,0,0,1-.36-.44.48.48,0,0,1,.1-.66C23.25,21.85,23.48,21.92,23.67,22.17Z"/><path d="M14.66,22.16l.06-.08a.44.44,0,0,1,.53-.12.41.41,0,0,1,.19.49,1.61,1.61,0,0,1-.79.89.11.11,0,0,1-.11,0,6.26,6.26,0,0,1-.63-.75.45.45,0,0,1,.13-.65C14.25,21.81,14.46,21.89,14.66,22.16Z"/><path d="M16.89,23.51c-.24-.26-.46-.47-.65-.71a.82.82,0,0,1-.13-.37.37.37,0,0,1,.25-.44.41.41,0,0,1,.49.16l.06.09L17,22.1a.42.42,0,0,1,.45-.09.33.33,0,0,1,.23.38.91.91,0,0,1-.16.46A8.21,8.21,0,0,1,16.89,23.51Z"/><path d="M12.52,2.66l0,.07A.44.44,0,0,1,12,3a.47.47,0,0,1-.27-.52,1.92,1.92,0,0,1,.6-1,2,2,0,0,1,.94.73.46.46,0,0,1,0,.55.41.41,0,0,1-.47.07A1.21,1.21,0,0,1,12.52,2.66Z"/><path d="M16.92,2.14a.85.85,0,0,1-.11.14.42.42,0,0,1-.47.1A.32.32,0,0,1,16.11,2a1.64,1.64,0,0,1,.23-.58c.43-.58.66-.58,1.13,0a1.55,1.55,0,0,1,.2.32.47.47,0,0,1-.14.62C17.34,2.47,17.12,2.4,16.92,2.14Z"/><path d="M8.16,20.94l.14-.08a.39.39,0,0,1,.47.08.33.33,0,0,1,.05.46,1.44,1.44,0,0,1-.44.41,4.68,4.68,0,0,1-.72.26,1.89,1.89,0,0,1-.36-1,.49.49,0,0,1,.39-.54C7.91,20.47,8.08,20.63,8.16,20.94Z"/><path d="M12.4,22c.06-.05.09-.1.13-.13a.41.41,0,0,1,.48-.06.35.35,0,0,1,.19.41,1.35,1.35,0,0,1-.24.48,7.87,7.87,0,0,1-.62.53,2.06,2.06,0,0,1-.72-.87.47.47,0,0,1,.19-.62C12,21.64,12.23,21.73,12.4,22Z"/><path d="M21.42,22.25c.18-.27.39-.35.59-.24a.46.46,0,0,1,.17.61,1.8,1.8,0,0,1-.68.79.2.2,0,0,1-.15,0c-.21-.2-.42-.39-.61-.61a.63.63,0,0,1-.13-.3.4.4,0,0,1,.21-.47.41.41,0,0,1,.51.12Z"/><path d="M30.13,3.88,30,4a.39.39,0,0,1-.47-.09.35.35,0,0,1,0-.45,2.46,2.46,0,0,1,.4-.39.72.72,0,0,1,.27-.12c.6-.18.48-.25.75.35a1.25,1.25,0,0,1,.1.51.47.47,0,0,1-.37.55C30.39,4.36,30.22,4.21,30.13,3.88Z"/><path d="M28,3.15c-.35.27-.71.07-.71-.21a.71.71,0,0,1,.17-.44,1.84,1.84,0,0,1,.9-.48.15.15,0,0,1,.13,0,1.78,1.78,0,0,1,.38,1,.45.45,0,0,1-.36.5c-.21,0-.38-.08-.48-.35A.09.09,0,0,0,28,3.15Z"/><path d="M19.17,2.08a.71.71,0,0,1-.1.14.42.42,0,0,1-.47.11A.35.35,0,0,1,18.36,2a1.52,1.52,0,0,1,.26-.58,3.54,3.54,0,0,1,.55-.54c.24.24.46.46.67.69a.79.79,0,0,1,.13.31.4.4,0,0,1-.23.49.41.41,0,0,1-.51-.17Z"/><path d="M21.41,2.17c-.09.07-.17.18-.26.2a.69.69,0,0,1-.43-.07.39.39,0,0,1-.1-.48A1.64,1.64,0,0,1,21.36,1s.11,0,.13,0c.22.23.45.46.65.71a.7.7,0,0,1,.07.33A.37.37,0,0,1,22,2.4a.4.4,0,0,1-.45-.11Z"/><path d="M30.14,20.93a1.7,1.7,0,0,1,.18-.31.4.4,0,0,1,.69.22A1.57,1.57,0,0,1,30.7,22a.11.11,0,0,1-.1,0,1.94,1.94,0,0,1-.94-.41.53.53,0,0,1-.12-.14.4.4,0,0,1,.53-.6Z"/><path d="M8.19,3.88l0,.1a.39.39,0,0,1-.42.33.43.43,0,0,1-.4-.4,1.63,1.63,0,0,1,.3-1.07.16.16,0,0,1,.14-.06c.3.13.61.25.9.4a.49.49,0,0,1,.18.22.39.39,0,0,1,0,.46.43.43,0,0,1-.47.1Z"/><path d="M28.12,21.66a.61.61,0,0,1,.07-.14.39.39,0,0,1,.46-.18.37.37,0,0,1,.29.37,1.07,1.07,0,0,1-.29.81c-.34.42-.21.41-.69.14a2,2,0,0,1-.45-.37.51.51,0,0,1-.06-.71C27.61,21.43,27.86,21.45,28.12,21.66Z"/><path d="M10.21,21.66c.09-.06.16-.15.24-.15a.78.78,0,0,1,.43.09.39.39,0,0,1,.06.49,1.35,1.35,0,0,1-.68.63c-.36.19-.26.19-.5-.1A2.7,2.7,0,0,1,9.4,22a.48.48,0,0,1,.24-.61C9.86,21.26,10.07,21.37,10.21,21.66Z"/><path d="M19.14,23.55l-.6-.57a1,1,0,0,1-.14-.24.49.49,0,0,1,.13-.64c.2-.12.42-.05.61.21a1,1,0,0,1,.17-.18.39.39,0,0,1,.47,0,.38.38,0,0,1,.15.51,4.35,4.35,0,0,1-.47.68A2,2,0,0,1,19.14,23.55Z"/><path d="M2.05,9.86a1.93,1.93,0,0,1,1-.54.73.73,0,0,1,.39.06.37.37,0,0,1,0,.65l-.18.08.12.16a.37.37,0,0,1-.29.56.63.63,0,0,1-.55-.22C2.39,10.37,2.23,10.11,2.05,9.86Z"/><path d="M2.62,7.3A7.52,7.52,0,0,1,3.5,7a.94.94,0,0,1,.44,0,.36.36,0,0,1,.3.36.38.38,0,0,1-.3.37l-.11,0c.16.24.17.46,0,.59a.47.47,0,0,1-.62,0A2,2,0,0,1,2.62,7.3Z"/><path d="M35.75,7.36a7.85,7.85,0,0,1-.42.76,1.11,1.11,0,0,1-.4.3.35.35,0,0,1-.45-.11.38.38,0,0,1,0-.47l.06-.09,0,0c-.27-.1-.4-.25-.37-.44a.46.46,0,0,1,.5-.36A2.08,2.08,0,0,1,35.75,7.36Z"/><path d="M36.31,9.86c-.17.25-.33.5-.52.73a.68.68,0,0,1-.35.22.4.4,0,0,1-.49-.14c-.11-.17-.07-.34.11-.55l0,0c-.27-.12-.37-.29-.32-.5a.49.49,0,0,1,.55-.29A2,2,0,0,1,36.31,9.86Z"/><path d="M3,12.24c.07.06.17.11.19.18a.78.78,0,0,1,0,.4.38.38,0,0,1-.42.18,1.28,1.28,0,0,1-.81-.49c-.26-.28-.27-.29,0-.56a2.62,2.62,0,0,1,.57-.42.49.49,0,0,1,.66.12C3.27,11.84,3.2,12,3,12.24Z"/><path d="M36.74,12.23c-.28.25-.51.46-.74.65a.67.67,0,0,1-.28.1.45.45,0,0,1-.54-.2c-.08-.19,0-.38.24-.54-.05,0-.13-.07-.15-.13a.67.67,0,0,1-.08-.4.46.46,0,0,1,.34-.23.66.66,0,0,1,.45.11C36.24,11.77,36.46,12,36.74,12.23Z"/><path d="M3.28,14.36c.3.11.42.27.37.48a.45.45,0,0,1-.49.32,1.94,1.94,0,0,1-1.08-.51,1.93,1.93,0,0,1,.58-.85A.62.62,0,0,1,3,13.64a.63.63,0,0,1,.4.17.34.34,0,0,1,0,.45Z"/><path d="M36.3,14.63a1.94,1.94,0,0,1-1,.52.83.83,0,0,1-.31,0c-.15,0-.27-.16-.24-.32a1.1,1.1,0,0,1,.21-.36s.09,0,.15-.07l-.09-.1a.38.38,0,0,1,0-.47.33.33,0,0,1,.43-.14,1.81,1.81,0,0,1,.55.4A3.59,3.59,0,0,1,36.3,14.63Z"/><path d="M35.74,17.12a1.86,1.86,0,0,1-1.17.41.44.44,0,0,1-.45-.37c0-.2.13-.35.41-.43,0-.05-.09-.1-.08-.15a.85.85,0,0,1,0-.43.34.34,0,0,1,.46-.09,1.56,1.56,0,0,1,.45.4A4.06,4.06,0,0,1,35.74,17.12Z"/><path d="M3.82,16.73c.28.08.43.23.42.43a.44.44,0,0,1-.45.37,1.85,1.85,0,0,1-1.15-.4,1.87,1.87,0,0,1,.58-1A.71.71,0,0,1,3.53,16a.3.3,0,0,1,.37.17,1,1,0,0,1,0,.43S3.85,16.69,3.82,16.73Z"/><path d="M34.15,22.08c0-.38.06-.74.08-1.1a.79.79,0,0,0,0-.41,1.88,1.88,0,0,0-.45-.44c-.07-.05-.21,0-.31,0l-.35,0c0,.22,0,.42-.05.63s0,.25-.2.25-.19-.12-.18-.26,0-.48,0-.72.08-.26.26-.26l.66-.05c0-.22,0-.42,0-.63a.23.23,0,0,1,.25-.26l.78-.05c.13,0,.24,0,.24.18s-.11.18-.23.18l-.68.05q0,.3,0,.57s0,.1.08.15a.92.92,0,0,0,1,.38c.31-.06.63,0,1-.08-.07.36,0,.73-.34,1a2,2,0,0,0-.47.45A1.21,1.21,0,0,1,34.15,22.08Z"/><path d="M4.48,22.09c-.41,0-.8,0-1.06-.39a1.48,1.48,0,0,0-.34-.32,1.16,1.16,0,0,1-.48-1.14l.84.05a.55.55,0,0,1,.18,0,.87.87,0,0,0,1-.42.24.24,0,0,0,0-.14c0-.17,0-.35,0-.54l-.63,0c-.14,0-.28,0-.27-.2s.15-.18.29-.17l.78.06a.18.18,0,0,1,.19.2c0,.17,0,.34,0,.5s.06.2.2.2a3.08,3.08,0,0,1,.53,0,.31.31,0,0,1,.19.2c0,.26,0,.53.06.8s0,.21-.16.23-.19-.07-.2-.2,0-.44-.06-.68a3.23,3.23,0,0,0-.53,0,.7.7,0,0,0-.27.14A.72.72,0,0,0,4.4,21,7.23,7.23,0,0,1,4.48,22.09Z"/><path d="M33.64,4.51c-.23,0-.44,0-.65,0s-.25-.08-.26-.24l-.06-.76c0-.13,0-.23.18-.24s.19.09.2.22,0,.42,0,.63a.93.93,0,0,0,1.13-.39.32.32,0,0,0,0-.17c0-.35-.05-.7-.08-1V2.16l.66.07a.36.36,0,0,1,.17.11,8.25,8.25,0,0,0,.61.58A1.17,1.17,0,0,1,36,4a.35.35,0,0,1-.15,0c-.34,0-.69,0-1-.06a.7.7,0,0,0-.58.19.74.74,0,0,0-.23.79.21.21,0,0,0,.16.13,4.89,4.89,0,0,0,.55,0c.12,0,.21.05.2.19s-.11.16-.23.16l-.82,0a.21.21,0,0,1-.22-.23C33.68,5,33.66,4.75,33.64,4.51Z"/><path d="M2.25,4.21c0-.24.06-.45.09-.67a.31.31,0,0,1,.11-.15l.88-.85a.36.36,0,0,1,.21-.11c.19,0,.39-.06.62-.09,0,.34,0,.66-.06,1v.06c-.15.45.15.69.44.93a.4.4,0,0,0,.2,0l.48,0c0-.22,0-.43,0-.64s0-.25.19-.24.19.12.18.25,0,.5,0,.74a.24.24,0,0,1-.25.25l-.66,0c0,.22,0,.43,0,.63a.23.23,0,0,1-.25.27l-.78.05c-.13,0-.24,0-.24-.18s.1-.18.22-.19l.55,0,.12,0c0-.23,0-.45,0-.68,0,0,0,0,0,0a.91.91,0,0,0-1-.37A7.09,7.09,0,0,1,2.25,4.21Z"/></g><path class="cls-4" d="M18.46,10.94h.66c.49,0,1,0,1.48,0a1.26,1.26,0,0,1,1.2,1.22,2.82,2.82,0,0,1-.08,1,1.13,1.13,0,0,1-1,.86c-.73.05-1.48,0-2.21,0,0,0,0,0,0,0a3.43,3.43,0,0,0,.08-.5V11.34A1.84,1.84,0,0,0,18.46,10.94Zm.77,2.62c.37,0,.72,0,1.07,0a.82.82,0,0,0,.82-.75,1.73,1.73,0,0,0,0-.6.76.76,0,0,0-.75-.73,10.6,10.6,0,0,0-1.13,0Z"/><path class="cls-4" d="M23.6,14a2.7,2.7,0,0,0,.07-.41c0-.76,0-1.51,0-2.27a2.35,2.35,0,0,0-.08-.4s0,0,0,0c.71,0,1.43,0,2.14,0a1.26,1.26,0,0,1,1.2,1.23,2.79,2.79,0,0,1-.08.91,1.12,1.12,0,0,1-1.06.9C25.05,14.06,24.31,14,23.6,14Zm.76-.47c.37,0,.71,0,1.05,0a.84.84,0,0,0,.84-.78,3,3,0,0,0,0-.67.71.71,0,0,0-.62-.62c-.41-.05-.82,0-1.24-.06Z"/><path class="cls-4" d="M9.34,12.53A1.51,1.51,0,0,1,10.71,11a3.18,3.18,0,0,1,1,0,1.55,1.55,0,0,1-.16,3,3.2,3.2,0,0,1-1.07,0A1.49,1.49,0,0,1,9.34,12.53Zm1.77,1a1,1,0,0,0,1.13-1,1,1,0,0,0-1.1-1,1,1,0,1,0,0,2.07Z"/><path class="cls-4" d="M15.81,11h.91c-.22.17-.16.39-.16.59,0,.47,0,1,0,1.42a1,1,0,0,1-.93,1.1,3.18,3.18,0,0,1-1.34,0,.93.93,0,0,1-.81-1c0-.57,0-1.13,0-1.7a1.76,1.76,0,0,0-.08-.37h.84a4.46,4.46,0,0,0-.07.51q0,.67,0,1.35c0,.47.16.68.63.73a2.51,2.51,0,0,0,.67,0,.53.53,0,0,0,.47-.55q0-.88,0-1.77C15.92,11.12,15.85,11,15.81,11Z"/><path class="cls-4" d="M34.2,18.26A2.88,2.88,0,0,1,37.06,21a2,2,0,0,1-2.14,2.08,2.92,2.92,0,0,1-2.75-2.26A2,2,0,0,1,34.2,18.26Zm.69,4.56a1.79,1.79,0,0,0,1.9-2,2.57,2.57,0,0,0-2.7-2.34,1.81,1.81,0,0,0-1.71,1.91A2.6,2.6,0,0,0,34.89,22.82Z"/><path class="cls-4" d="M2,21a2.88,2.88,0,0,1,3.4-2.71,2,2,0,0,1,1.52,2.35,2.91,2.91,0,0,1-3.12,2.4A2,2,0,0,1,2,21Zm2.16,1.8A2.65,2.65,0,0,0,6.55,21,1.85,1.85,0,0,0,5,18.52a2.6,2.6,0,0,0-2.72,2.05A1.82,1.82,0,0,0,4.13,22.82Z"/><path class="cls-4" d="M35,1.57A2,2,0,0,1,37,4a2.87,2.87,0,0,1-3.39,2.31,1.94,1.94,0,0,1-1.51-2.13A2.91,2.91,0,0,1,35,1.57Zm0,.26A2.64,2.64,0,0,0,32.41,3.9,1.82,1.82,0,0,0,34,6.12a2.59,2.59,0,0,0,2.73-2A1.82,1.82,0,0,0,34.92,1.83Z"/><path class="cls-4" d="M4.5,6.58A2.89,2.89,0,0,1,1.66,4a2,2,0,0,1,2-2.23A2.9,2.9,0,0,1,6.6,4.49,2,2,0,0,1,4.5,6.58ZM3.81,2A1.79,1.79,0,0,0,1.92,4,2.58,2.58,0,0,0,4.63,6.32,1.81,1.81,0,0,0,6.34,4.43,2.59,2.59,0,0,0,3.81,2Z"/><path class="cls-4" d="M5.55,11H6.8c-.29.14-.18.28-.08.42l.54.8c.22-.32.44-.61.64-.93,0-.05,0-.18-.07-.29H9a12.17,12.17,0,0,0-1.32,1.73.29.29,0,0,0-.06.17c0,.31,0,.61,0,.91a.93.93,0,0,0,.13.29H6.84c0-.16,0-.33.08-.49a1.68,1.68,0,0,0-.45-1.43c-.21-.25-.37-.53-.57-.79S5.68,11.09,5.55,11Z"/><path class="cls-4" d="M31.22,11.43c-.41.08-.82-.11-1.19.14v-.69c.15,0,.29,0,.44.06h2.25c.12,0,.24,0,.36-.07v.68a1.86,1.86,0,0,0-.39-.1c-.25,0-.51,0-.79,0v1c0,.41,0,.81,0,1.21a1.93,1.93,0,0,0,.08.39h-.84a2,2,0,0,0,.07-.42C31.22,12.91,31.22,12.19,31.22,11.43Z"/><path class="cls-4" d="M29.57,11a1.65,1.65,0,0,0-.09.33V13.7a1.59,1.59,0,0,0,.08.35h-.84a2.89,2.89,0,0,0,.08-.5c0-.73,0-1.45,0-2.18a2.12,2.12,0,0,0-.08-.41Z"/><path class="cls-4" d="M22.29,10.94h.92c-.23.17-.17.38-.17.57v2.16a1.84,1.84,0,0,0,.08.38h-.83a4.44,4.44,0,0,0,.07-.49q0-1.07,0-2.13A4.81,4.81,0,0,0,22.29,10.94Z"/><path class="cls-4" d="M10.52,3.33l-.06.16a.38.38,0,0,1-.38.25.32.32,0,0,1-.36-.24,1.39,1.39,0,0,1,0-.61c.2-.71.44-.81,1.07-.42a1.48,1.48,0,0,1,.4.39.35.35,0,0,1-.06.5.39.39,0,0,1-.51,0Z"/><path class="cls-4" d="M23.82,2.49l-.11.13a.44.44,0,0,1-.48.06.36.36,0,0,1-.2-.42,1,1,0,0,1,.46-.68c.52-.38.38-.38.81.06a1.49,1.49,0,0,1,.29.46.47.47,0,0,1-.18.66C24.2,2.86,24,2.77,23.82,2.49Z"/><path class="cls-4" d="M26.23,1.66a2.15,2.15,0,0,1,.58.87.51.51,0,0,1-.22.64c-.22.09-.42,0-.59-.3h0c-.21.19-.43.23-.6.09a.47.47,0,0,1-.05-.63A2.05,2.05,0,0,1,26.23,1.66Z"/><path class="cls-4" d="M15,2.55c-.1.06-.19.13-.29.18a.36.36,0,0,1-.43,0,.44.44,0,0,1-.16-.47,1.88,1.88,0,0,1,.7-1,1.91,1.91,0,0,1,.86.8.46.46,0,0,1-.09.56.41.41,0,0,1-.51,0s-.09-.1-.14-.15Z"/><path class="cls-4" d="M26.12,22.21a1.11,1.11,0,0,1,.11-.16.39.39,0,0,1,.44-.12.39.39,0,0,1,.27.37.91.91,0,0,1-.29.7c-.49.53-.38.5-.92.08a1.52,1.52,0,0,1-.32-.39.48.48,0,0,1,.07-.65C25.66,21.91,25.89,22,26.12,22.21Z"/><path class="cls-4" d="M23.87,22.37l.09-.13a.41.41,0,0,1,.47-.14.37.37,0,0,1,.26.41,1.06,1.06,0,0,1-.37.72c-.46.44-.33.42-.81,0a1.36,1.36,0,0,1-.36-.43.48.48,0,0,1,.1-.66C23.45,22.05,23.67,22.12,23.87,22.37Z"/><path class="cls-4" d="M14.85,22.36l.07-.08a.44.44,0,0,1,.53-.12.4.4,0,0,1,.19.49,1.61,1.61,0,0,1-.79.89.13.13,0,0,1-.12,0,7.36,7.36,0,0,1-.63-.75.47.47,0,0,1,.13-.66C14.44,22,14.66,22.08,14.85,22.36Z"/><path class="cls-4" d="M17.09,23.71c-.24-.26-.46-.47-.65-.71a.82.82,0,0,1-.13-.38.36.36,0,0,1,.25-.43.42.42,0,0,1,.49.16.35.35,0,0,1,.06.09l.12-.14a.42.42,0,0,1,.45-.1.34.34,0,0,1,.23.39,1,1,0,0,1-.16.46A8.21,8.21,0,0,1,17.09,23.71Z"/><path class="cls-4" d="M12.71,2.86a.43.43,0,0,0,0,.07.42.42,0,0,1-.52.24.46.46,0,0,1-.27-.51,1.88,1.88,0,0,1,.6-1,2,2,0,0,1,.94.72.46.46,0,0,1,0,.55.4.4,0,0,1-.47.08A1.28,1.28,0,0,1,12.71,2.86Z"/><path class="cls-4" d="M17.12,2.34a1.71,1.71,0,0,1-.11.14.42.42,0,0,1-.47.1.32.32,0,0,1-.23-.36,1.47,1.47,0,0,1,.23-.58c.43-.58.66-.58,1.13,0a1.55,1.55,0,0,1,.2.32.47.47,0,0,1-.14.62C17.54,2.67,17.31,2.59,17.12,2.34Z"/><path class="cls-4" d="M8.36,21.14l.14-.08a.39.39,0,0,1,.47.08.33.33,0,0,1,0,.46,1.3,1.3,0,0,1-.44.4,5.11,5.11,0,0,1-.72.27,2,2,0,0,1-.37-1,.5.5,0,0,1,.4-.54C8.11,20.67,8.28,20.83,8.36,21.14Z"/><path class="cls-4" d="M12.6,22.21l.13-.14a.42.42,0,0,1,.48-.05.36.36,0,0,1,.19.41,1.35,1.35,0,0,1-.24.48,7.87,7.87,0,0,1-.62.53,2.06,2.06,0,0,1-.72-.87A.46.46,0,0,1,12,22C12.22,21.84,12.43,21.93,12.6,22.21Z"/><path class="cls-4" d="M21.62,22.45c.18-.27.39-.35.59-.24a.46.46,0,0,1,.17.61,1.79,1.79,0,0,1-.69.78.14.14,0,0,1-.14,0c-.21-.2-.42-.39-.61-.61a.66.66,0,0,1-.13-.31.39.39,0,0,1,.21-.46.41.41,0,0,1,.51.12Z"/><path class="cls-4" d="M30.32,4.08l-.15.08a.41.41,0,0,1-.47-.09.35.35,0,0,1,0-.45,2.11,2.11,0,0,1,.4-.39.61.61,0,0,1,.27-.12c.6-.18.48-.26.75.35a1.4,1.4,0,0,1,.1.51.47.47,0,0,1-.38.55C30.59,4.56,30.42,4.41,30.32,4.08Z"/><path class="cls-4" d="M28.19,3.34c-.35.28-.72.08-.71-.2a.76.76,0,0,1,.17-.45,1.78,1.78,0,0,1,.9-.47.15.15,0,0,1,.13,0,1.72,1.72,0,0,1,.38,1,.46.46,0,0,1-.36.5c-.21,0-.38-.09-.48-.35Z"/><path class="cls-4" d="M19.37,2.28l-.1.14a.42.42,0,0,1-.47.11.33.33,0,0,1-.24-.38,1.57,1.57,0,0,1,.26-.59A4,4,0,0,1,19.37,1c.23.25.46.46.67.7a.65.65,0,0,1,.12.31.39.39,0,0,1-.22.49.42.42,0,0,1-.51-.17Z"/><path class="cls-4" d="M21.61,2.36c-.09.08-.17.19-.26.21a.77.77,0,0,1-.43-.07.38.38,0,0,1-.1-.48,1.6,1.6,0,0,1,.74-.84s.11,0,.13,0c.22.23.44.46.64.71a.57.57,0,0,1,.08.32.37.37,0,0,1-.26.38.41.41,0,0,1-.44-.11A1.13,1.13,0,0,1,21.61,2.36Z"/><path class="cls-4" d="M30.34,21.13a1.82,1.82,0,0,1,.18-.32.41.41,0,0,1,.69.23,1.57,1.57,0,0,1-.31,1.16.11.11,0,0,1-.1,0,2,2,0,0,1-.94-.41.53.53,0,0,1-.12-.14.42.42,0,0,1,0-.53.43.43,0,0,1,.53-.07A.18.18,0,0,1,30.34,21.13Z"/><path class="cls-4" d="M8.39,4.08l0,.1a.41.41,0,0,1-.43.33.43.43,0,0,1-.39-.4A1.58,1.58,0,0,1,7.84,3,.15.15,0,0,1,8,3c.3.12.61.25.9.39.08,0,.13.15.18.23a.37.37,0,0,1,0,.45.42.42,0,0,1-.47.11Z"/><path class="cls-4" d="M28.32,21.86a.61.61,0,0,1,.07-.14.41.41,0,0,1,.46-.19.4.4,0,0,1,.29.37,1.12,1.12,0,0,1-.29.81c-.34.42-.21.41-.69.14a1.59,1.59,0,0,1-.45-.37.5.5,0,0,1-.06-.7C27.81,21.62,28.06,21.65,28.32,21.86Z"/><path class="cls-4" d="M10.41,21.86c.09-.06.16-.15.24-.15a.74.74,0,0,1,.42.09.36.36,0,0,1,.07.48,1.37,1.37,0,0,1-.68.64c-.36.18-.27.19-.5-.11a2.47,2.47,0,0,1-.36-.66.47.47,0,0,1,.23-.61C10.05,21.46,10.27,21.57,10.41,21.86Z"/><path class="cls-4" d="M19.34,23.75c-.21-.2-.41-.38-.6-.58a.88.88,0,0,1-.14-.23.48.48,0,0,1,.13-.64c.2-.12.42-.05.61.21a1,1,0,0,1,.17-.18.4.4,0,0,1,.62.48,4.35,4.35,0,0,1-.47.68A2,2,0,0,1,19.34,23.75Z"/><path class="cls-4" d="M2.24,10.06a2,2,0,0,1,1-.54.75.75,0,0,1,.39.06.37.37,0,0,1,0,.65l-.18.08.12.16a.37.37,0,0,1-.29.56.62.62,0,0,1-.55-.23C2.59,10.57,2.42,10.31,2.24,10.06Z"/><path class="cls-4" d="M2.82,7.5c.31-.13.59-.26.88-.35a.94.94,0,0,1,.44,0,.34.34,0,0,1,.29.36.37.37,0,0,1-.29.37L4,8c.17.24.18.46,0,.59a.47.47,0,0,1-.63,0A2,2,0,0,1,2.82,7.5Z"/><path class="cls-4" d="M36,7.56a7.85,7.85,0,0,1-.42.76,1.11,1.11,0,0,1-.4.3.36.36,0,0,1-.46-.11.39.39,0,0,1,0-.47L34.73,8a.05.05,0,0,0,0,0c-.27-.1-.4-.25-.37-.44a.48.48,0,0,1,.51-.36A2,2,0,0,1,36,7.56Z"/><path class="cls-4" d="M36.51,10.06c-.17.25-.33.5-.52.73a.87.87,0,0,1-.35.22.4.4,0,0,1-.49-.14c-.11-.17-.08-.34.11-.55l0,0c-.27-.11-.38-.28-.32-.49a.48.48,0,0,1,.55-.29A2,2,0,0,1,36.51,10.06Z"/><path class="cls-4" d="M3.15,12.43c.06.06.17.12.19.19a.78.78,0,0,1,0,.4.38.38,0,0,1-.42.18,1.28,1.28,0,0,1-.81-.49c-.27-.28-.27-.29,0-.56a2.62,2.62,0,0,1,.57-.42.49.49,0,0,1,.66.12C3.47,12,3.4,12.23,3.15,12.43Z"/><path class="cls-4" d="M36.94,12.43c-.28.25-.51.46-.75.65a.72.72,0,0,1-.27.1.45.45,0,0,1-.54-.2c-.08-.19,0-.38.24-.54,0,0-.13-.08-.15-.13a.67.67,0,0,1-.08-.4.49.49,0,0,1,.33-.24.74.74,0,0,1,.46.12C36.43,12,36.66,12.19,36.94,12.43Z"/><path class="cls-4" d="M3.48,14.56c.3.1.41.26.37.48a.43.43,0,0,1-.49.31,1.87,1.87,0,0,1-1.08-.5A1.91,1.91,0,0,1,2.85,14a.68.68,0,0,1,.36-.16.59.59,0,0,1,.4.17.33.33,0,0,1,0,.44Z"/><path class="cls-4" d="M36.5,14.83a1.94,1.94,0,0,1-1,.52,1.1,1.1,0,0,1-.31,0,.3.3,0,0,1-.24-.33,1,1,0,0,1,.21-.36s.09,0,.15-.06l-.09-.1a.38.38,0,0,1,0-.47.32.32,0,0,1,.42-.14,2,2,0,0,1,.56.39A5.42,5.42,0,0,1,36.5,14.83Z"/><path class="cls-4" d="M35.94,17.32a1.88,1.88,0,0,1-1.17.41.43.43,0,0,1-.45-.38c0-.19.13-.34.41-.42,0-.05-.09-.1-.09-.15a1,1,0,0,1,.06-.43.32.32,0,0,1,.45-.09,1.31,1.31,0,0,1,.45.39A4.2,4.2,0,0,1,35.94,17.32Z"/><path class="cls-4" d="M4,16.93c.29.08.44.23.43.43a.44.44,0,0,1-.45.37,1.85,1.85,0,0,1-1.15-.4,1.83,1.83,0,0,1,.58-1,.66.66,0,0,1,.31-.13.3.3,0,0,1,.37.17,1.06,1.06,0,0,1,0,.43S4,16.89,4,16.93Z"/><path class="cls-4" d="M34.34,22.28c0-.38.07-.74.09-1.11,0-.13,0-.3,0-.4a1.75,1.75,0,0,0-.45-.45c-.06,0-.2,0-.3,0l-.35,0c0,.21,0,.42,0,.63s0,.25-.2.24-.19-.12-.18-.25,0-.48.05-.72S33,20,33.18,20l.66,0c0-.22,0-.42,0-.63s.08-.25.25-.26l.78-.05c.13,0,.23,0,.24.17s-.11.19-.23.19l-.68.05c0,.2,0,.39,0,.57s.05.1.08.15a.89.89,0,0,0,1,.37,9.82,9.82,0,0,1,1-.07c-.07.35,0,.73-.34,1a2,2,0,0,0-.47.45A1.22,1.22,0,0,1,34.34,22.28Z"/><path class="cls-4" d="M4.68,22.29c-.41,0-.8,0-1.07-.39a1.26,1.26,0,0,0-.33-.32,1.16,1.16,0,0,1-.48-1.14l.83,0a1.08,1.08,0,0,1,.19,0,.89.89,0,0,0,.95-.43A.19.19,0,0,0,4.82,20c0-.17,0-.35-.05-.54l-.63,0c-.14,0-.28,0-.27-.2S4,19,4.15,19l.79.06a.18.18,0,0,1,.19.2c0,.17,0,.33,0,.5s.06.2.2.2a2.2,2.2,0,0,1,.52,0,.31.31,0,0,1,.2.2c0,.26,0,.53.06.8a.19.19,0,0,1-.16.23c-.14,0-.19-.07-.2-.2l-.06-.68a3.23,3.23,0,0,0-.53,0,.54.54,0,0,0-.27.14.7.7,0,0,0-.33.78A8.94,8.94,0,0,1,4.68,22.29Z"/><path class="cls-4" d="M33.84,4.71c-.23,0-.44,0-.65,0s-.25-.08-.26-.24l-.06-.76c0-.13,0-.23.18-.24s.19.09.2.22,0,.42,0,.62a.91.91,0,0,0,1.13-.39s0-.11,0-.16c0-.35,0-.7-.08-1.06v-.3l.65.07a.34.34,0,0,1,.18.11,6.65,6.65,0,0,0,.61.58,1.16,1.16,0,0,1,.44,1.07.37.37,0,0,1-.15,0c-.34,0-.69,0-1-.06a.66.66,0,0,0-.58.19.73.73,0,0,0-.23.79.24.24,0,0,0,.16.13c.18,0,.36,0,.55,0s.21,0,.2.19-.12.16-.23.16L34.1,5.6c-.15,0-.2-.09-.21-.23S33.86,4.94,33.84,4.71Z"/><path class="cls-4" d="M2.45,4.41c0-.24,0-.46.09-.67a.36.36,0,0,1,.1-.15l.88-.86a.44.44,0,0,1,.22-.1c.19,0,.39-.06.62-.09,0,.34,0,.66-.06,1a.13.13,0,0,1,0,.06c-.14.45.16.69.45.93a.4.4,0,0,0,.2,0l.48,0c0-.21,0-.42,0-.63s0-.25.2-.24.19.11.18.25,0,.49,0,.74a.24.24,0,0,1-.25.25l-.66,0c0,.22,0,.42,0,.63a.23.23,0,0,1-.25.26l-.79.06c-.12,0-.23,0-.23-.18s.1-.18.22-.19l.55,0s.11,0,.11,0c0-.23,0-.45,0-.68,0,0,0,0,0,0a.92.92,0,0,0-1-.36A9.41,9.41,0,0,1,2.45,4.41Z"/></g></g></svg>