<svg xmlns="http://www.w3.org/2000/svg" viewBox="0 0 38.55 24.66"><defs><style>.cls-1{isolation:isolate;}.cls-2{opacity:0.15;}.cls-2,.cls-3{mix-blend-mode:multiply;}.cls-4{fill:#fff;}</style></defs><title>convert-FIX-SVG-03</title><g class="cls-1"><g id="Layer_1" data-name="Layer 1"><g class="cls-2"><path d="M12.27,4.88c.48-.42.94-.82,1.39-1.23a.43.43,0,0,0,.14-.3c0-.77,0-.77-.59-1.26l-.06,0-.67.59a.28.28,0,0,1-.43,0L11.37,2l-.58.51a1.52,1.52,0,0,0,.06,1.09L12.17,4.8l.11.06-.78.6a.39.39,0,0,1-.19,0H9.66a.73.73,0,0,1-.32-.12c-.21-.14-.41-.31-.63-.48.47-.42.94-.82,1.39-1.23a.44.44,0,0,0,.14-.3c0-.76,0-.76-.58-1.25l-.08-.05L9,2.61c-.21.18-.27.18-.48,0l-.66-.57c-.2.17-.4.33-.58.5a1.55,1.55,0,0,0,0,1.08L8.5,4.7l.2.18-.76.58a.4.4,0,0,1-.19,0H6.1a.72.72,0,0,1-.31-.11c-.21-.15-.42-.32-.65-.5L6.5,3.69a.36.36,0,0,0,.17-.37V3.25c0-.73,0-.77-.65-1.19l-.59.5c-.28.25-.31.24-.6,0L4.25,2c-.2.18-.4.34-.58.51a1.52,1.52,0,0,0,.05,1.09L5,4.75l.13.13c-.25.19-.48.38-.73.56a.33.33,0,0,1-.2,0H2.53a.68.68,0,0,1-.31-.11c-.21-.15-.41-.32-.63-.49l.24-.22L3,3.66s.06,0,.08-.07A1.73,1.73,0,0,0,3,2.51l-.53-.46-.61.52-.12.11a.23.23,0,0,1-.34,0,.21.21,0,0,1,0-.32c.3-.27.6-.54.91-.8a.26.26,0,0,1,.35.05l.69.59L4,1.61c.2-.17.28-.16.48,0l.65.56c.23-.2.46-.38.68-.58a.27.27,0,0,1,.42,0l.68.58.62-.53c.23-.2.3-.2.54,0l.62.53.66-.56c.2-.17.27-.17.47,0l.65.56.63-.54c.23-.19.3-.19.53,0l.62.54.66-.56c.2-.17.27-.17.47,0l.66.56.66-.57c.18-.15.27-.15.46,0l.66.57.67-.57c.18-.16.26-.16.45,0l.66.57.62-.53c.23-.2.31-.2.53,0l.63.54L20,1.64c.24-.21.3-.21.55,0l.62.53.66-.57a.3.3,0,0,1,.45,0l.65.57.64-.55c.2-.17.28-.17.48,0l.65.56q.32-.28.63-.54c.22-.19.3-.19.52,0l.63.54.61-.52c.25-.23.3-.23.57,0l.57.5h.05l.64-.56c.18-.15.28-.15.46,0l.63.53.05,0,.65-.56c.19-.16.27-.16.46,0l.66.57.63-.55c.21-.18.3-.18.5,0l.65.56.66-.57c.19-.16.27-.16.46,0l.66.57.67-.57a.28.28,0,0,1,.44,0l.77.66c.16.14.18.29.07.4s-.27.08-.39,0l-.33-.29L36.29,2c-.2.18-.41.35-.6.53a.21.21,0,0,0,0,.13c0,.25,0,.5,0,.74a.37.37,0,0,0,.13.2l1.41,1.24-.76.57s-.12,0-.18,0H34.58a.76.76,0,0,1-.32-.11c-.21-.15-.41-.32-.64-.49.43-.38.84-.76,1.27-1.11a.71.71,0,0,0,.28-.6.88.88,0,0,0-.43-.93,1,1,0,0,1-.23-.2l-.66.58c-.19.17-.26.17-.45,0l-.67-.57-.6.51a.22.22,0,0,0-.05.11c0,.27,0,.54,0,.81a.36.36,0,0,0,.13.17l1.23,1.08.17.15c-.26.2-.49.39-.74.57a.38.38,0,0,1-.16,0H31a.26.26,0,0,1-.15,0l-.74-.56c.41-.37.8-.73,1.21-1a.84.84,0,0,0,.34-.72.83.83,0,0,0-.39-.83A2.75,2.75,0,0,1,31,2l-.64.56c-.23.19-.29.19-.52,0L29.16,2c-.2.18-.4.34-.58.51a1.47,1.47,0,0,0,.05,1.09l1.27,1.1.14.14-.71.55a.33.33,0,0,1-.2.05H27.42a.33.33,0,0,1-.2-.05c-.24-.17-.47-.36-.73-.55.44-.39.86-.77,1.29-1.12A.69.69,0,0,0,28,3.22a1,1,0,0,0-.48-1,1.77,1.77,0,0,1-.17-.14l-.66.56c-.2.18-.26.18-.47,0l-.65-.56c-.2.17-.4.33-.59.51a1.53,1.53,0,0,0,.07,1.09l1.23,1.07.17.16c-.26.2-.49.39-.74.56a.33.33,0,0,1-.2,0H23.89a.63.63,0,0,1-.32-.12c-.22-.14-.42-.31-.63-.47l-.65.5a.62.62,0,0,1-.27.09H20.33a.66.66,0,0,1-.27-.09l-.66-.51c.47-.42.93-.82,1.39-1.21a.46.46,0,0,0,.15-.33,1.09,1.09,0,0,0-.56-1.22s-.05,0-.09-.07l-.63.54c-.23.2-.29.2-.52,0l-.63-.55c-.2.17-.41.33-.59.51A1.47,1.47,0,0,0,18,3.65l1.26,1.1.15.12-.75.57a.27.27,0,0,1-.18,0H16.76a.45.45,0,0,1-.25-.09l-.67-.51a13.84,13.84,0,0,1,1.1-.95,1,1,0,0,0,.44-1,.65.65,0,0,0-.27-.59A3.78,3.78,0,0,1,16.72,2l-.63.56c-.23.19-.29.19-.52,0L14.94,2c-.21.18-.41.35-.6.53a1.47,1.47,0,0,0,.07,1.07L15.7,4.77l.12.11c-.25.19-.48.38-.73.56a.33.33,0,0,1-.2,0H13.2a.33.33,0,0,1-.2-.05C12.76,5.26,12.53,5.08,12.27,4.88Zm9.81-2.83c-.66.47-.66.47-.66,1.22a.75.75,0,0,0,0,.15.53.53,0,0,0,.11.21L22.8,4.74c.1.1.17.11.28,0A7,7,0,0,1,23.91,4a1.15,1.15,0,0,0,.56-1.26s0-.06,0-.09a.36.36,0,0,0,0-.11L23.81,2l-.66.6a.25.25,0,0,1-.41,0Z"/><path d="M4.22,22.54,4.84,22c.24-.21.28-.21.52,0l.64.55c.2-.17.4-.33.59-.51A1.55,1.55,0,0,0,6.53,21L5.29,19.86l-.17-.15.75-.58s.12,0,.18,0H7.7a.68.68,0,0,1,.33.11c.21.15.41.32.63.49a9.92,9.92,0,0,1-1,.86,1.12,1.12,0,0,0-.53,1.22.69.69,0,0,0,.14.3,5.64,5.64,0,0,0,.51.45L8.39,22c.26-.22.31-.22.56,0l.61.53c.2-.17.4-.33.58-.5a1.47,1.47,0,0,0,0-1.09L8.85,19.86l-.17-.15.73-.56a.33.33,0,0,1,.2,0h1.67a.58.58,0,0,1,.31.11c.21.14.41.31.64.49l-.34.3L10.83,21c-.07.05-.09.16-.12.24s0,0,0,.07a1.07,1.07,0,0,0,.66,1.26L12,22c.2-.18.27-.18.47,0l.66.57c.2-.17.4-.33.58-.51a1.52,1.52,0,0,0-.06-1.09l-1.23-1.07-.17-.17.75-.57s.1,0,.16,0h1.71a.47.47,0,0,1,.27.1c.22.15.42.32.64.49l.63-.48a.58.58,0,0,1,.31-.11h1.65a.62.62,0,0,1,.32.11c.22.15.41.32.63.49-.46.41-.91.81-1.36,1.19a.49.49,0,0,0-.17.36,1.06,1.06,0,0,0,.54,1.19l.11.09.63-.55c.22-.19.29-.19.51,0l.64.55c.2-.17.41-.34.6-.52a.27.27,0,0,0,.05-.18c0-.21,0-.42,0-.63a.38.38,0,0,0-.12-.27l-1.27-1.12-.13-.11c.26-.2.5-.39.75-.57,0,0,.12,0,.18,0H22a.37.37,0,0,1,.23.07c.23.16.45.34.7.53l-.55.48-.8.7-.09.08a1.64,1.64,0,0,0,0,1.07l.58.5c.23-.2.45-.38.66-.58a.3.3,0,0,1,.46,0l.67.58L24.4,22a.15.15,0,0,0,0-.09c0-.27,0-.54,0-.8,0-.07-.08-.13-.13-.18L22.9,19.71c.26-.2.5-.39.75-.57a.27.27,0,0,1,.16,0h1.73a.27.27,0,0,1,.16,0l.76.57-1.38,1.2a.48.48,0,0,0-.16.34,1.09,1.09,0,0,0,.56,1.22s.05,0,.09.07l.64-.56c.22-.18.28-.18.49,0l.65.56c.2-.17.41-.34.59-.52a1.48,1.48,0,0,0-.07-1.09l-1.3-1.12a.49.49,0,0,0-.13-.08l.76-.59a.36.36,0,0,1,.18,0H29.1a.33.33,0,0,1,.2.05c.24.17.47.36.72.55-.35.3-.66.63-1,.88a1.11,1.11,0,0,0-.53,1.15.55.55,0,0,0,.19.4c.16.12.31.26.47.4l.66-.57c.19-.17.26-.17.46,0l.66.57c.21-.17.41-.34.6-.52a.17.17,0,0,0,0-.13c0-.25,0-.5,0-.76a.29.29,0,0,0-.12-.18l-1.22-1.07L30,19.71c.26-.2.49-.39.74-.57a.34.34,0,0,1,.18,0h1.71a.34.34,0,0,1,.18,0c.25.18.48.37.74.57-.43.38-.84.76-1.27,1.11a.69.69,0,0,0-.27.55,1,1,0,0,0,.47,1,2.31,2.31,0,0,1,.19.16l.67-.58a.28.28,0,0,1,.44,0c.21.2.44.38.67.58l.59-.51a.21.21,0,0,0,0-.13c0-.26,0-.51,0-.76a.37.37,0,0,0-.13-.2c-.45-.41-.92-.81-1.4-1.23l.73-.56a.33.33,0,0,1,.2,0h1.69a.51.51,0,0,1,.27.09c.22.16.43.33.66.51-.47.42-.92.82-1.39,1.21a.32.32,0,0,0-.13.31v.1c0,.75,0,.75.65,1.2l.65-.56c.13-.12.26-.18.41,0s.08.26-.09.4l-.78.68a.27.27,0,0,1-.4,0l-.69-.6-.64.54c-.22.19-.29.19-.52,0l-.62-.54-.68.59a.28.28,0,0,1-.44,0l-.67-.58-.64.56c-.19.17-.29.17-.48,0L30,22.41c-.23.2-.46.38-.68.58a.28.28,0,0,1-.44,0c-.21-.19-.44-.37-.67-.57l-.66.56c-.18.16-.27.16-.46,0s-.43-.37-.66-.57l-.65.57c-.2.17-.28.17-.47,0l-.66-.56L24,23c-.18.16-.28.16-.46,0l-.66-.58-.63.55c-.24.2-.3.2-.54,0l-.62-.53-.66.57A.29.29,0,0,1,20,23l-.67-.58-.66.57c-.18.16-.26.17-.45,0l-.67-.57L16.9,23c-.2.17-.29.17-.49,0l-.62-.54-.64.55c-.21.17-.28.17-.48,0L14,22.42c-.23.19-.45.37-.66.57a.3.3,0,0,1-.46,0l-.66-.57L11.6,23c-.22.19-.29.19-.5,0l-.64-.55-.6.51c-.27.23-.32.23-.59,0l-.6-.52c-.23.2-.44.39-.66.57s-.27.17-.46,0l-.62-.54-.06,0L6.24,23c-.19.16-.28.16-.48,0l-.65-.57L4.45,23c-.19.16-.27.17-.46,0l-.66-.57L2.68,23c-.2.17-.29.17-.48,0l-.75-.65c-.16-.14-.19-.29-.08-.4s.26-.08.39,0l.64.55.05,0c.19-.16.38-.32.57-.5A1.43,1.43,0,0,0,3,20.94L1.62,19.78l-.06-.08.72-.55a.29.29,0,0,1,.16,0H4.2a.33.33,0,0,1,.19.06c.24.17.46.35.71.54-.33.29-.65.58-1,.85-.6.52-.61.52-.56,1.3a.25.25,0,0,0,.08.18C3.83,22.21,4,22.37,4.22,22.54Zm10.69,0,.07-.06c.19-.17.39-.33.57-.51s.28-.17.46,0,.43.38.64.57c.69-.54.7-.55.65-1.38a.26.26,0,0,0-.09-.19l-1.27-1.12c-.11-.1-.19-.11-.3,0L14.37,21a.41.41,0,0,0-.11.17c0,.26,0,.51,0,.76a.2.2,0,0,0,.06.13C14.51,22.2,14.71,22.37,14.91,22.54Z"/><path d="M12.08,11.38c.49,0,.93,0,1.37,0a.43.43,0,0,1,.45.42c0,.23-.12.38-.39.47l-.08,0,.78.95a.59.59,0,0,1-.77-.26c-.11-.15-.2-.3-.32-.44a1.78,1.78,0,0,0-.27-.22,5.25,5.25,0,0,1,0,.58c0,.22.21.21.36.35H12.07c.07,0,.11-.1.15-.11s.19-.11.19-.25V11.73a.2.2,0,0,0-.18-.24C12.18,11.48,12.15,11.43,12.08,11.38Zm.77.89H13a.35.35,0,0,0,.37-.41.33.33,0,0,0-.41-.34.21.21,0,0,0-.15.14C12.84,11.85,12.85,12.05,12.85,12.27Z"/><path d="M4.61,12.33A1.08,1.08,0,0,1,5.7,11.26a1.09,1.09,0,0,1,1.13,1.07,1.08,1.08,0,0,1-1.1,1A1.07,1.07,0,0,1,4.61,12.33Zm.5,0a3.76,3.76,0,0,0,.1.53.52.52,0,0,0,.58.33.44.44,0,0,0,.45-.37,1.55,1.55,0,0,0,0-.93.5.5,0,0,0-.55-.39.5.5,0,0,0-.52.41A3.84,3.84,0,0,0,5.11,12.3Z"/><path d="M29.65,12.33a1.08,1.08,0,0,1,1.1-1.07,1.06,1.06,0,1,1,0,2.11A1.06,1.06,0,0,1,29.65,12.33Zm.49,0a3.46,3.46,0,0,0,.11.52.51.51,0,0,0,.58.33.44.44,0,0,0,.44-.37,1.5,1.5,0,0,0,0-1,.5.5,0,0,0-.55-.36.48.48,0,0,0-.51.39C30.17,12,30.17,12.14,30.14,12.31Z"/><path d="M7.14,13.27s0-.1.07-.1.21-.19.21-.35c0-.34,0-.67,0-1s0-.33-.24-.35l0-.05s0,0,0-.06c.33,0,.63-.06.88.28a10.51,10.51,0,0,0,.91,1c0-.36,0-.67,0-1,0-.07-.11-.14-.17-.2l-.15-.11h.76s0,.07,0,.07c-.25.07-.26.26-.26.47,0,.47,0,.94,0,1.48a1.27,1.27,0,0,1-.23-.16c-.41-.46-.81-.94-1.27-1.4v.91c0,.2,0,.4.26.46,0,0,0,0,0,.08Z"/><path d="M32.12,11.34a5.31,5.31,0,0,1,.58,0,.29.29,0,0,1,.18.11L34,12.65a8.34,8.34,0,0,0,0-1c0-.09-.16-.17-.26-.28h.71s0,.06,0,.07c-.28.08-.26.3-.26.52v1.42a1.36,1.36,0,0,1-.23-.14c-.36-.41-.71-.82-1.06-1.24l-.19-.2c0,.42,0,.8,0,1.18,0,.07.11.13.17.19l.13.11h-.74s0-.1.05-.1c.19-.05.22-.19.21-.36v-1c0-.17,0-.3-.23-.33C32.2,11.46,32.18,11.41,32.12,11.34Z"/><path d="M11.33,11.4l.14-.09V12c-.06-.06-.1-.08-.12-.13-.15-.32-.32-.44-.62-.4s-.41.23-.48.49a1.28,1.28,0,0,0,.06,1,.51.51,0,0,0,.68.25.32.32,0,0,0,.18-.33c0-.12,0-.23-.18-.24s0-.05-.08-.1h.92a1.35,1.35,0,0,0-.2.31,1.14,1.14,0,0,0,0,.37l-.71.16a1,1,0,0,1-1.21-.74,1.06,1.06,0,0,1,.87-1.29A3.27,3.27,0,0,1,11.33,11.4Z"/><path d="M19.05,11.36h1.06c0,.05-.06.1-.09.1-.2,0-.23.15-.23.31v.83c0,.36.17.52.5.52s.58-.15.59-.52,0-.55,0-.82,0-.29-.2-.33c0,0,0,0-.08-.09h.7s0,.09,0,.09c-.23,0-.23.21-.23.39s0,.49,0,.74c0,.56-.33.71-.78.75a1.36,1.36,0,0,1-.45-.06.57.57,0,0,1-.45-.57c0-.28,0-.55,0-.83s0-.39-.26-.43C19.08,11.44,19.08,11.4,19.05,11.36Z"/><path d="M4.28,12.58v.69l0,0-.13-.21a1,1,0,0,1-1,.19,1.32,1.32,0,0,1-.47-.34,1.08,1.08,0,0,1,.07-1.33,1,1,0,0,1,1.33-.17l.19-.14V12a1.33,1.33,0,0,1-.14-.17.55.55,0,0,0-.56-.39.58.58,0,0,0-.5.45,1.24,1.24,0,0,0,0,.87.51.51,0,0,0,.48.38.53.53,0,0,0,.55-.34c0-.07.07-.14.11-.22Z"/><path d="M16.57,13.28h-1s0-.1.08-.11.22,0,.16-.19,0-.32-.27-.29a.53.53,0,0,1-.25,0,.28.28,0,0,0-.35.24c0,.19.08.21.2.26s0,0,0,.08h-.69a.17.17,0,0,1,0-.08c.23-.08.29-.29.37-.48.18-.44.37-.88.56-1.32a.45.45,0,0,1,.11-.13s.11.08.13.14l.54,1.35c.07.18.11.38.35.44A.44.44,0,0,0,16.57,13.28Zm-1.18-1.45-.28.69h.54Z"/><path d="M25.72,13.28h-1s0-.1.06-.1.24,0,.18-.2-.05-.32-.28-.29a.76.76,0,0,1-.3,0c-.16,0-.23.06-.28.21s0,.23.14.27.05,0,.12.1h-.72V13.2c.25-.09.31-.33.4-.54l.54-1.28c0-.05.08-.08.12-.12s.09.07.11.12c.19.46.37.92.55,1.38.07.18.12.38.35.43C25.72,13.19,25.72,13.23,25.72,13.28Zm-.92-.76-.26-.69-.28.69Z"/><path d="M34.92,13.17l-.17.17v-.67l0,0a.81.81,0,0,1,.1.18c.12.28.29.42.53.37a.45.45,0,0,0,.29-.25.38.38,0,0,0-.14-.33,2.51,2.51,0,0,0-.46-.24.59.59,0,0,1-.36-.6.6.6,0,0,1,.86-.47,2.87,2.87,0,0,0,.37.09v.45l0,0s-.08-.09-.11-.15a.49.49,0,0,0-.4-.31.29.29,0,0,0-.33.17.23.23,0,0,0,.12.32c.18.1.38.18.56.29a.58.58,0,0,1,.33.63.72.72,0,0,1-1,.45Z"/><path d="M18.77,11.36v.51a1.53,1.53,0,0,0-.35-.33,1,1,0,0,0-.37,0c0,.52,0,1,0,1.5,0,.05.12.11.18.16a.45.45,0,0,0,.12.06l0,0H17.29s0-.1.06-.1c.24,0,.24-.16.24-.33,0-.44,0-.87,0-1.31a.48.48,0,0,0-.65.36l-.05,0v-.49Z"/><path d="M26.48,13.27s.05-.1.06-.1c.24,0,.24-.16.24-.33,0-.44,0-.87,0-1.31a.49.49,0,0,0-.66.36l0,0v-.49H28l0,.53a2.28,2.28,0,0,0-.37-.35c-.1-.06-.23,0-.38,0,0,.51,0,1,0,1.48,0,.06.12.12.18.18l.12.06,0,0Z"/><path d="M21.62,13.27c.05,0,.07-.1.1-.1.19,0,.22-.15.22-.3V11.79c0-.17,0-.32-.23-.33a.07.07,0,0,1-.05,0v-.06h1c0,.05-.06.1-.09.1-.19,0-.21.15-.21.3q0,.47,0,.93c0,.17,0,.37.22.42a.58.58,0,0,0,.66-.22.44.44,0,0,1,.15-.19v.57Z"/><path d="M29.37,11.35c-.07.06-.09.11-.12.11s-.21.14-.21.28v1.14c0,.14,0,.27.22.29,0,0,0,0,.09.1H28.26c.06,0,.09-.1.12-.11s.19-.11.19-.23c0-.41,0-.82,0-1.23,0-.13,0-.24-.21-.24s-.05-.05-.12-.11Z"/><path d="M12.47,5.08c.48-.43.94-.82,1.39-1.23a.56.56,0,0,0,.14-.3c0-.77,0-.77-.59-1.26l-.07,0-.66.58a.27.27,0,0,1-.43,0l-.68-.59L11,2.75a1.47,1.47,0,0,0,.06,1.09L12.37,5l.11.06-.78.6a.39.39,0,0,1-.19,0H9.86a.62.62,0,0,1-.32-.11c-.21-.15-.41-.31-.63-.49.47-.41.94-.81,1.39-1.22a.44.44,0,0,0,.14-.3c0-.76,0-.76-.58-1.25l-.08,0-.64.56c-.2.18-.26.18-.47,0L8,2.24c-.2.18-.4.34-.58.51a1.49,1.49,0,0,0,0,1.08L8.7,4.9l.19.18-.76.58s-.12,0-.18,0H6.3A.57.57,0,0,1,6,5.57c-.22-.15-.42-.32-.65-.5.47-.4.91-.8,1.36-1.18a.36.36,0,0,0,.17-.38V3.45c0-.73,0-.77-.65-1.2l-.59.51c-.28.25-.31.24-.6,0l-.58-.51c-.2.18-.4.34-.58.51a1.47,1.47,0,0,0,0,1.09L5.19,5l.14.13-.73.56a.33.33,0,0,1-.2,0H2.73a.57.57,0,0,1-.31-.1c-.21-.15-.41-.32-.64-.49L2,4.86l1.15-1,.08-.07A1.7,1.7,0,0,0,3.19,2.7c-.16-.15-.34-.29-.52-.45l-.61.52-.13.11a.24.24,0,0,1-.34,0,.22.22,0,0,1,0-.32c.3-.27.6-.54.91-.8a.24.24,0,0,1,.34,0l.69.6.66-.56c.2-.17.28-.17.48,0l.65.56L6,1.79a.28.28,0,0,1,.43,0l.68.59.62-.53c.23-.2.3-.2.54,0l.62.53.66-.57c.2-.16.27-.16.47,0l.65.56c.22-.19.42-.37.63-.54s.3-.19.53,0l.62.54.66-.56c.2-.17.27-.17.47,0l.66.56.66-.57c.18-.15.27-.15.46,0l.66.57.67-.57c.18-.16.26-.16.45,0l.66.57.62-.54c.23-.19.3-.19.53,0s.41.35.63.54l.62-.53c.24-.21.3-.22.55,0l.62.53c.23-.2.45-.38.66-.58a.3.3,0,0,1,.45,0l.65.57.64-.56c.2-.17.28-.16.48,0l.65.56q.32-.29.63-.54c.22-.19.3-.19.52,0l.63.54.6-.52c.26-.23.31-.23.58,0l.57.5h0l.64-.55a.29.29,0,0,1,.46,0l.63.54.05,0,.65-.56c.19-.16.27-.16.46,0l.66.57.63-.55c.21-.18.3-.18.5,0l.65.56.66-.57c.19-.16.27-.16.46,0l.66.57c.23-.2.45-.38.66-.58a.3.3,0,0,1,.45,0l.77.67c.16.14.18.29.07.4s-.27.08-.39,0l-.33-.3-.34-.29c-.2.18-.41.35-.6.53a.21.21,0,0,0,0,.13c0,.25,0,.5,0,.74a.37.37,0,0,0,.13.2c.45.41.92.81,1.41,1.24l-.76.57a.36.36,0,0,1-.18,0H34.78a.54.54,0,0,1-.32-.11c-.21-.14-.41-.31-.64-.49.43-.37.84-.75,1.27-1.1a.75.75,0,0,0,.28-.61.87.87,0,0,0-.43-.92,1.37,1.37,0,0,1-.23-.2l-.66.58c-.2.16-.26.17-.46,0l-.66-.58-.6.52a.16.16,0,0,0,0,.11c0,.27,0,.54,0,.8,0,.07.08.13.13.18l1.23,1.07.16.16-.73.56a.29.29,0,0,1-.16,0H31.15a.29.29,0,0,1-.16,0l-.73-.57c.41-.36.8-.72,1.21-1.05a.83.83,0,0,0,.34-.71.82.82,0,0,0-.39-.83,1.94,1.94,0,0,1-.27-.24l-.64.56c-.23.19-.3.19-.52,0l-.63-.55c-.2.18-.4.34-.58.51a1.47,1.47,0,0,0,0,1.09l1.26,1.1.15.14-.71.55a.42.42,0,0,1-.2,0H27.61a.32.32,0,0,1-.19,0c-.24-.17-.47-.36-.73-.55.44-.39.86-.77,1.29-1.13a.67.67,0,0,0,.25-.53,1,1,0,0,0-.48-1,1,1,0,0,1-.17-.14l-.66.56c-.2.18-.26.18-.47,0l-.65-.57c-.2.18-.4.34-.59.52a1.53,1.53,0,0,0,.07,1.09l1.23,1.07.16.16c-.25.2-.48.39-.73.56a.33.33,0,0,1-.2,0H24.09a.62.62,0,0,1-.32-.11c-.22-.14-.42-.31-.63-.47-.22.17-.43.34-.65.49a.44.44,0,0,1-.27.09H20.53a.46.46,0,0,1-.27-.09c-.22-.15-.43-.33-.66-.51L21,3.87a.53.53,0,0,0,.15-.33,1.1,1.1,0,0,0-.56-1.22l-.1-.08-.62.55c-.23.2-.29.2-.52,0l-.64-.56c-.2.18-.4.34-.59.52a1.47,1.47,0,0,0,.08,1.09L19.45,5l.15.12-.75.57a.34.34,0,0,1-.18,0H17a.44.44,0,0,1-.25-.08c-.22-.16-.44-.33-.67-.52.37-.32.71-.66,1.09-1a1,1,0,0,0,.45-1,.66.66,0,0,0-.27-.58,3.78,3.78,0,0,1-.39-.34l-.63.56c-.23.19-.29.19-.53,0l-.62-.55c-.21.18-.41.35-.6.53a1.52,1.52,0,0,0,.06,1.07c.44.37.87.75,1.3,1.13l.12.11-.73.56a.42.42,0,0,1-.2,0H13.4a.33.33,0,0,1-.2,0C13,5.46,12.73,5.28,12.47,5.08Zm9.81-2.83c-.66.46-.66.46-.66,1.22a.65.65,0,0,0,0,.14.64.64,0,0,0,.1.22L23,4.94c.11.09.18.1.29,0a7,7,0,0,1,.83-.72A1.14,1.14,0,0,0,24.66,3a.27.27,0,0,0,0-.09s0-.09-.05-.11c-.19-.18-.39-.35-.6-.53l-.66.59a.26.26,0,0,1-.42,0Z"/><path d="M4.41,22.74,5,22.2c.23-.21.28-.21.52,0l.64.55.59-.51a1.55,1.55,0,0,0-.06-1.08L5.49,20.06a1.2,1.2,0,0,1-.17-.16l.75-.57s.12,0,.18,0H7.9a.62.62,0,0,1,.32.11c.22.15.42.31.64.49a9.92,9.92,0,0,1-1,.86A1.1,1.1,0,0,0,7.33,22a.59.59,0,0,0,.14.31,5.64,5.64,0,0,0,.51.45l.61-.53c.25-.22.31-.22.56,0l.61.53c.2-.17.4-.33.58-.5a1.42,1.42,0,0,0-.05-1.09L9.05,20.06l-.17-.15c.25-.2.48-.39.73-.56a.33.33,0,0,1,.2,0h1.67a.71.71,0,0,1,.31.1c.21.15.41.32.64.5l-.34.3L11,21.14a.58.58,0,0,0-.12.25s0,0,0,.06a1.07,1.07,0,0,0,.67,1.26l.63-.53c.2-.18.27-.18.47,0l.66.57c.2-.18.4-.34.58-.51a1.52,1.52,0,0,0-.06-1.09l-1.23-1.07-.17-.17.74-.57s.11,0,.17,0h1.71a.47.47,0,0,1,.27.1c.21.15.42.32.64.49.22-.17.42-.33.63-.48a.58.58,0,0,1,.31-.11h1.65a.62.62,0,0,1,.32.11c.21.15.41.32.63.49L18.16,21.1a.54.54,0,0,0-.18.36,1.06,1.06,0,0,0,.54,1.18.9.9,0,0,1,.12.1l.63-.55c.22-.19.29-.2.51,0l.64.56.6-.53s0-.11.05-.17,0-.42,0-.63a.42.42,0,0,0-.12-.27c-.42-.38-.85-.75-1.28-1.12l-.12-.11.74-.58a.39.39,0,0,1,.19,0h1.69a.37.37,0,0,1,.23.07c.23.16.45.34.69.53l-.54.48-.8.69-.09.09a1.61,1.61,0,0,0,0,1.06c.19.18.38.34.58.51.23-.2.45-.38.66-.58a.3.3,0,0,1,.46,0c.21.2.44.38.67.58.2-.18.41-.35.6-.53a.12.12,0,0,0,.05-.09c0-.27,0-.54,0-.81,0-.06-.07-.13-.13-.17-.45-.41-.92-.81-1.4-1.23l.74-.57a.31.31,0,0,1,.17,0h1.73a.27.27,0,0,1,.16,0l.76.57-1.38,1.2a.51.51,0,0,0-.17.34,1.09,1.09,0,0,0,.57,1.21l.09.08.64-.56c.22-.18.28-.18.49,0l.65.56c.2-.18.4-.34.59-.52a1.53,1.53,0,0,0-.07-1.09L26.77,20l-.13-.07.76-.59a.36.36,0,0,1,.18,0H29.3a.42.42,0,0,1,.2,0l.72.56c-.35.3-.66.62-1,.88a1.08,1.08,0,0,0-.53,1.15.48.48,0,0,0,.19.39l.47.41.66-.57c.19-.17.26-.17.46,0s.43.37.66.57l.6-.52a.19.19,0,0,0,.05-.13c0-.25,0-.51,0-.76a.31.31,0,0,0-.12-.18l-1.23-1.08-.18-.16c.26-.2.49-.39.74-.57a.34.34,0,0,1,.18,0h1.71a.34.34,0,0,1,.18,0c.25.18.48.37.74.57-.44.38-.85.76-1.28,1.11a.71.71,0,0,0-.26.55,1,1,0,0,0,.47,1c.06,0,.11.1.19.16l.67-.59a.28.28,0,0,1,.44,0l.66.58.6-.51a.21.21,0,0,0,0-.13c0-.26,0-.51,0-.77a.38.38,0,0,0-.13-.19l-1.4-1.23.73-.56a.33.33,0,0,1,.2,0h1.69a.51.51,0,0,1,.27.09l.66.51c-.47.42-.93.82-1.39,1.21a.32.32,0,0,0-.13.31v.1c0,.75,0,.75.65,1.2l.65-.56c.13-.12.26-.19.4,0s.09.26-.08.4l-.78.68a.27.27,0,0,1-.4,0l-.69-.59-.64.54c-.22.19-.3.19-.52,0l-.62-.54-.68.58a.28.28,0,0,1-.44,0L32,22.61l-.64.56c-.2.17-.29.17-.48,0l-.66-.57-.67.58a.28.28,0,0,1-.44,0l-.67-.58-.66.57c-.18.16-.28.16-.46,0s-.44-.37-.66-.57l-.65.56c-.2.18-.28.18-.48,0l-.65-.57-.66.57c-.18.16-.28.16-.46,0l-.67-.57c-.21.19-.42.36-.63.54s-.29.21-.53,0l-.62-.54-.66.58a.29.29,0,0,1-.45,0l-.67-.58-.66.57c-.19.16-.26.17-.45,0l-.67-.58-.65.56c-.2.17-.29.17-.49,0L16,22.63l-.64.55c-.2.17-.27.17-.47,0l-.65-.57-.66.57a.29.29,0,0,1-.46,0l-.66-.57-.64.55c-.22.19-.29.19-.51,0l-.64-.56c-.2.18-.39.35-.59.51s-.32.24-.59,0l-.6-.52c-.23.2-.44.39-.66.57s-.27.17-.46,0l-.63-.54,0,0-.63.55c-.19.16-.29.16-.48,0l-.65-.57-.66.57c-.19.16-.27.16-.46,0l-.67-.58-.64.56c-.2.17-.29.17-.48,0l-.75-.65c-.16-.14-.19-.29-.08-.4s.26-.09.39,0l.64.56,0,0,.57-.5a1.47,1.47,0,0,0-.06-1.09L1.82,20l-.07-.08.73-.56a.29.29,0,0,1,.16,0H4.4a.41.41,0,0,1,.19.05l.71.55-1,.85c-.6.52-.61.52-.56,1.3a.25.25,0,0,0,.08.18Zm10.69,0,.08-.06c.19-.17.38-.33.57-.51s.28-.17.46,0,.43.38.64.57c.69-.54.7-.55.65-1.38a.37.37,0,0,0-.09-.2l-1.27-1.11c-.12-.1-.19-.11-.31,0l-1.26,1.11a.36.36,0,0,0-.11.17c0,.26,0,.51,0,.76a.16.16,0,0,0,.06.13Z"/><path d="M12.28,11.58c.49,0,.93,0,1.37,0a.44.44,0,0,1,.45.42c0,.24-.12.39-.4.48l-.07,0,.78,1a.59.59,0,0,1-.77-.26l-.32-.45a1.83,1.83,0,0,0-.27-.21,5,5,0,0,1,0,.57c0,.23.21.22.36.36H12.27c.07-.06.1-.1.14-.11s.2-.11.2-.25V11.93a.21.21,0,0,0-.18-.24A1.12,1.12,0,0,1,12.28,11.58Zm.77.89h.19a.35.35,0,0,0,.37-.41.34.34,0,0,0-.41-.35.26.26,0,0,0-.15.14C13,12.05,13.05,12.25,13.05,12.47Z"/><path d="M4.81,12.53A1.08,1.08,0,0,1,5.9,11.45,1.1,1.1,0,0,1,7,12.52a1.08,1.08,0,0,1-1.1,1.05A1.07,1.07,0,0,1,4.81,12.53Zm.49,0c0,.16,0,.35.11.53a.52.52,0,0,0,.57.33A.44.44,0,0,0,6.43,13a1.48,1.48,0,0,0,0-.93.51.51,0,0,0-.56-.39.48.48,0,0,0-.51.4C5.34,12.2,5.33,12.34,5.3,12.5Z"/><path d="M29.85,12.52A1.08,1.08,0,0,1,31,11.45a1.06,1.06,0,1,1,0,2.12A1.06,1.06,0,0,1,29.85,12.52Zm.49,0a3.33,3.33,0,0,0,.11.53.51.51,0,0,0,.58.33.44.44,0,0,0,.44-.37,1.44,1.44,0,0,0,0-1,.49.49,0,0,0-.55-.36.48.48,0,0,0-.5.39A2.7,2.7,0,0,0,30.34,12.5Z"/><path d="M7.34,13.47c0-.05,0-.1.07-.11s.21-.18.21-.34c0-.34,0-.68,0-1s0-.33-.24-.36c0,0,0,0,0,0s0,0,0-.06c.34,0,.64-.06.89.28a11.8,11.8,0,0,0,.91,1c0-.36,0-.68,0-1,0-.07-.11-.14-.17-.2l-.15-.12h.75s0,.08,0,.08c-.25.07-.26.26-.26.47v1.47A1,1,0,0,1,9,13.42c-.4-.47-.8-.94-1.26-1.4v.91c0,.2,0,.4.26.46a.37.37,0,0,0,0,.08Z"/><path d="M32.32,11.54a5.31,5.31,0,0,1,.58,0,.29.29,0,0,1,.18.11l1.07,1.19c0-.36,0-.69,0-1,0-.09-.16-.18-.26-.28h.71s0,.06,0,.07c-.28.07-.26.3-.26.52v1.42a1,1,0,0,1-.23-.14L33,12.19l-.19-.2c0,.42,0,.8,0,1.18,0,.07.11.13.17.19l.13.11h-.75s0-.1.06-.1c.19,0,.21-.19.21-.36V12c0-.17,0-.3-.23-.33C32.4,11.65,32.38,11.61,32.32,11.54Z"/><path d="M11.53,11.6l.14-.1v.66a.64.64,0,0,1-.12-.13c-.16-.32-.32-.44-.62-.41a.57.57,0,0,0-.48.49,1.3,1.3,0,0,0,.06,1,.5.5,0,0,0,.68.24.3.3,0,0,0,.18-.32c0-.12,0-.23-.18-.24s0,0-.09-.1H12a1.08,1.08,0,0,0-.2.31,1.13,1.13,0,0,0,0,.37l-.72.16a1,1,0,0,1-1.2-.74,1.06,1.06,0,0,1,.87-1.29A3.27,3.27,0,0,1,11.53,11.6Z"/><path d="M19.25,11.55h1.06c0,.06-.07.11-.09.11-.2,0-.23.15-.23.31v.83c0,.35.17.52.5.52s.58-.15.59-.52,0-.55,0-.83,0-.28-.2-.32,0,0-.08-.09h.7s0,.09,0,.09c-.23,0-.23.21-.23.39s0,.49,0,.74c0,.56-.33.71-.78.74a1.44,1.44,0,0,1-.46,0,.57.57,0,0,1-.44-.57c0-.28,0-.55,0-.83s0-.39-.26-.43C19.28,11.64,19.28,11.6,19.25,11.55Z"/><path d="M4.48,12.78v.69l0,0-.13-.21a1,1,0,0,1-1,.2,1.32,1.32,0,0,1-.47-.34,1.07,1.07,0,0,1,.07-1.33,1,1,0,0,1,1.33-.17l.19-.14v.68A1.33,1.33,0,0,1,4.32,12a.55.55,0,0,0-1.07.06,1.3,1.3,0,0,0,0,.87.56.56,0,0,0,1,0l.11-.22Z"/><path d="M16.77,13.47h-1s.05-.09.07-.1.22,0,.17-.19,0-.32-.27-.29h-.26c-.19,0-.29,0-.34.24s.08.21.19.26,0,0,.05.08h-.69s0-.08,0-.08c.23-.08.29-.29.37-.48.18-.44.37-.88.56-1.32a.45.45,0,0,1,.11-.13s.11.08.13.13c.18.45.35.91.54,1.36.07.17.11.38.34.43A.41.41,0,0,1,16.77,13.47ZM15.59,12l-.29.68h.55Z"/><path d="M25.92,13.47h-1s0-.09.06-.09.24,0,.18-.21-.05-.32-.28-.28a1,1,0,0,1-.3,0c-.16,0-.23.06-.28.21s0,.23.13.26.06.05.13.11h-.72s0-.07,0-.07c.25-.1.31-.33.4-.54.18-.43.35-.85.54-1.28,0-.05.08-.08.12-.12s.09.07.11.12c.19.46.37.92.55,1.37.07.18.12.38.35.44C25.92,13.39,25.91,13.43,25.92,13.47ZM25,12.72,24.74,12l-.28.69Z"/><path d="M35.11,13.37l-.16.17v-.67l0,0a1.62,1.62,0,0,1,.1.18c.12.28.29.42.52.36a.46.46,0,0,0,.3-.24.41.41,0,0,0-.14-.33,2.31,2.31,0,0,0-.47-.24.59.59,0,1,1,.5-1.07,3.54,3.54,0,0,0,.38.09V12l0,0L36,11.91a.49.49,0,0,0-.4-.31.29.29,0,0,0-.33.17.23.23,0,0,0,.12.32l.56.28a.57.57,0,0,1,.32.63.71.71,0,0,1-1,.46Z"/><path d="M19,11.55v.52a1.77,1.77,0,0,0-.35-.33c-.09-.06-.23,0-.37,0,0,.51,0,1,0,1.5,0,.05.11.11.18.16a.26.26,0,0,0,.12.05l0,.06H17.49c0-.05,0-.1.06-.1.23,0,.24-.16.23-.33V11.73a.48.48,0,0,0-.65.36l-.05,0v-.5Z"/><path d="M26.68,13.47c0-.05,0-.1.06-.1.24,0,.24-.16.24-.33,0-.44,0-.88,0-1.31-.33-.07-.56,0-.66.36l-.05,0v-.5h1.89l0,.53a2.22,2.22,0,0,0-.38-.34c-.09-.06-.23,0-.37,0,0,.51,0,1,0,1.48,0,.06.12.12.18.18a.26.26,0,0,0,.12.05l0,.06Z"/><path d="M21.82,13.47c.05-.05.07-.1.1-.1.19,0,.22-.16.22-.3,0-.36,0-.72,0-1.08,0-.18,0-.32-.24-.33l0,0v-.06h1s-.06.1-.09.1c-.2,0-.21.15-.22.3,0,.31,0,.62,0,.93s0,.37.22.42a.56.56,0,0,0,.65-.22.53.53,0,0,1,.15-.19v.57Z"/><path d="M29.57,11.55c-.07.06-.09.11-.12.11s-.21.14-.21.27c0,.39,0,.77,0,1.15,0,.14,0,.26.22.28,0,0,0,.05.09.11H28.46c.06-.05.09-.1.12-.11s.19-.11.19-.23c0-.41,0-.82,0-1.23,0-.13-.05-.24-.21-.24s-.06-.05-.12-.11Z"/></g><g class="cls-3"><path d="M12.13,4.73c.48-.42.94-.81,1.39-1.22a.56.56,0,0,0,.14-.3c0-.77,0-.77-.59-1.26l-.07,0-.66.58a.27.27,0,0,1-.43,0l-.68-.59-.58.51a1.47,1.47,0,0,0,.06,1.09L12,4.66l.11.06-.78.6a.39.39,0,0,1-.19,0H9.52a.62.62,0,0,1-.32-.11c-.21-.15-.41-.31-.63-.49C9,4.32,9.51,3.92,10,3.51a.49.49,0,0,0,.14-.3c0-.76,0-.77-.58-1.25l-.08-.05-.64.56c-.2.18-.26.18-.47,0L7.67,1.9c-.2.18-.4.34-.58.51a1.49,1.49,0,0,0,0,1.08L8.36,4.56l.19.18-.76.58s-.12,0-.18,0H6a.57.57,0,0,1-.31-.1c-.22-.15-.42-.32-.65-.5.47-.4.91-.8,1.36-1.18a.36.36,0,0,0,.17-.38V3.11c0-.73,0-.77-.65-1.2l-.59.51c-.28.25-.31.24-.6,0L4.11,1.9c-.2.18-.4.34-.58.51A1.47,1.47,0,0,0,3.58,3.5L4.85,4.61,5,4.74l-.73.56a.33.33,0,0,1-.2,0H2.39a.57.57,0,0,1-.31-.1c-.21-.15-.41-.32-.64-.49l.24-.22,1.15-1,.08-.07a1.7,1.7,0,0,0-.06-1.09c-.16-.15-.34-.29-.52-.45l-.61.52-.13.11a.24.24,0,0,1-.34,0,.22.22,0,0,1,0-.32c.3-.27.6-.54.91-.8a.24.24,0,0,1,.34,0l.69.6.66-.56c.2-.17.28-.17.48,0L5,2l.67-.58a.28.28,0,0,1,.43,0L6.78,2,7.4,1.5c.23-.2.3-.2.54,0L8.56,2l.66-.57c.2-.16.27-.16.47,0l.65.56c.22-.19.42-.37.63-.54s.3-.19.53,0l.62.54.66-.56c.2-.17.27-.17.47,0s.43.36.65.56l.67-.57c.18-.15.27-.15.46,0l.66.57.67-.57c.18-.16.26-.16.45,0l.66.57.62-.54c.23-.19.3-.2.53,0l.63.55.62-.53c.24-.21.3-.22.55,0L21,2c.22-.2.45-.38.66-.58a.3.3,0,0,1,.45,0L22.8,2l.64-.56c.2-.17.28-.16.48,0l.65.56q.32-.28.63-.54c.22-.19.3-.19.52,0l.63.54.6-.52c.26-.23.31-.23.58,0l.57.5h0l.64-.55a.29.29,0,0,1,.46,0l.63.54.05,0,.65-.56c.19-.16.27-.16.46,0L31.7,2l.63-.55c.21-.18.3-.18.5,0l.65.56.66-.57c.19-.16.27-.16.46,0l.66.57c.23-.2.45-.38.66-.58a.3.3,0,0,1,.45,0l.77.67c.16.14.18.29.07.4s-.27.08-.39,0l-.33-.3-.34-.29c-.2.18-.41.35-.6.53a.21.21,0,0,0,0,.13c0,.25,0,.5,0,.74a.37.37,0,0,0,.13.2c.45.41.92.81,1.41,1.23-.26.2-.51.4-.76.58a.38.38,0,0,1-.19,0H34.44a.54.54,0,0,1-.32-.11c-.21-.14-.41-.31-.64-.49.43-.37.84-.75,1.27-1.1A.75.75,0,0,0,35,3a.87.87,0,0,0-.43-.92,1.37,1.37,0,0,1-.23-.2l-.66.58c-.2.16-.26.16-.46,0l-.66-.58-.6.52a.16.16,0,0,0,0,.11c0,.27,0,.54,0,.8,0,.07.08.13.13.18L33.3,4.58l.16.16-.73.56a.29.29,0,0,1-.16,0H30.81a.29.29,0,0,1-.16,0l-.73-.57c.41-.36.8-.72,1.21-1.05A.83.83,0,0,0,31.47,3a.82.82,0,0,0-.39-.83,1.94,1.94,0,0,1-.27-.24l-.64.56c-.23.19-.3.19-.52,0L29,1.9c-.2.18-.4.34-.58.51a1.47,1.47,0,0,0,0,1.09l1.26,1.1.15.14-.71.55a.42.42,0,0,1-.2,0H27.27a.32.32,0,0,1-.19,0c-.24-.17-.47-.36-.73-.55.44-.39.85-.77,1.29-1.13a.71.71,0,0,0,.25-.53,1,1,0,0,0-.48-1,1,1,0,0,1-.17-.14l-.66.56c-.2.18-.26.18-.47,0l-.65-.57c-.2.18-.4.34-.59.52a1.53,1.53,0,0,0,.07,1.09l1.23,1.07.16.16c-.25.2-.48.39-.73.56a.33.33,0,0,1-.2,0H23.75a.62.62,0,0,1-.32-.11c-.22-.14-.42-.31-.63-.47-.22.17-.43.34-.65.49a.44.44,0,0,1-.27.09H20.19a.46.46,0,0,1-.27-.09c-.22-.15-.43-.33-.66-.51l1.39-1.2a.53.53,0,0,0,.15-.33A1.1,1.1,0,0,0,20.24,2l-.1-.08-.62.55c-.23.2-.29.2-.52,0l-.64-.56c-.2.18-.4.34-.59.52a1.52,1.52,0,0,0,.07,1.09l1.27,1.1.15.12-.75.57a.34.34,0,0,1-.18,0H16.62a.44.44,0,0,1-.25-.08c-.22-.16-.44-.33-.67-.52.37-.32.71-.66,1.09-1a1,1,0,0,0,.45-1A.66.66,0,0,0,17,2.24a3,3,0,0,1-.39-.34L16,2.46c-.23.19-.3.19-.53,0L14.8,1.9c-.21.18-.41.35-.6.53a1.52,1.52,0,0,0,.06,1.07c.44.37.87.75,1.3,1.13l.12.11L15,5.3a.42.42,0,0,1-.2,0H13.06a.33.33,0,0,1-.2,0C12.62,5.12,12.39,4.94,12.13,4.73Zm9.81-2.82c-.66.46-.66.46-.66,1.22a.65.65,0,0,0,0,.14.64.64,0,0,0,.1.22L22.65,4.6c.11.09.18.1.29,0a8,8,0,0,1,.83-.71,1.14,1.14,0,0,0,.55-1.26.27.27,0,0,0,0-.09s0-.09-.05-.11c-.19-.18-.39-.35-.6-.53L23,2.49a.26.26,0,0,1-.42,0Z"/><path d="M4.07,22.4l.63-.54c.23-.21.28-.21.52,0l.64.55.59-.51a1.61,1.61,0,0,0-.06-1.08L5.15,19.72A1.2,1.2,0,0,1,5,19.56L5.73,19s.12,0,.18,0H7.56a.62.62,0,0,1,.32.11c.22.15.42.31.64.49a9.92,9.92,0,0,1-1,.86A1.1,1.1,0,0,0,7,21.64a.59.59,0,0,0,.14.31,5.64,5.64,0,0,0,.51.45l.61-.53c.25-.22.31-.22.56,0l.61.54c.2-.17.4-.33.58-.5A1.42,1.42,0,0,0,10,20.81L8.71,19.72l-.17-.15c.25-.2.48-.39.73-.56a.33.33,0,0,1,.2,0h1.67a.71.71,0,0,1,.31.1c.21.15.41.32.64.5l-.34.3c-.35.31-.72.62-1.06.93a.58.58,0,0,0-.12.25s0,0,0,.06a1.07,1.07,0,0,0,.67,1.26l.63-.53c.2-.18.27-.18.47,0l.66.57c.2-.18.4-.34.58-.51a1.52,1.52,0,0,0-.06-1.09l-1.23-1.07-.17-.17.74-.57S13,19,13,19h1.71a.47.47,0,0,1,.27.1c.21.15.42.32.64.49.22-.17.42-.34.63-.48a.58.58,0,0,1,.31-.11h1.65a.62.62,0,0,1,.32.11c.21.15.41.32.63.49l-1.36,1.19a.5.5,0,0,0-.18.36,1.06,1.06,0,0,0,.54,1.18.9.9,0,0,1,.12.1l.63-.55c.22-.19.29-.2.51,0l.64.56.6-.53s0-.11.05-.17,0-.42,0-.63a.42.42,0,0,0-.12-.27c-.42-.38-.85-.75-1.28-1.12l-.12-.11.74-.58a.39.39,0,0,1,.19,0h1.69a.37.37,0,0,1,.23.07c.23.16.45.34.69.53l-.54.48-.8.69-.09.09a1.61,1.61,0,0,0,0,1.06c.19.18.38.34.58.51.23-.2.45-.38.66-.58a.3.3,0,0,1,.46,0c.21.2.44.38.67.58.2-.18.41-.35.6-.53a.12.12,0,0,0,.05-.09c0-.27,0-.54,0-.81,0-.06-.07-.13-.13-.17-.45-.41-.92-.81-1.4-1.23L23.5,19a.31.31,0,0,1,.17,0H25.4a.39.39,0,0,1,.16,0l.76.58-1.38,1.2a.51.51,0,0,0-.17.34,1.09,1.09,0,0,0,.57,1.21l.09.08.64-.56c.22-.18.28-.18.49,0l.65.56c.2-.18.4-.34.59-.52a1.52,1.52,0,0,0-.07-1.09l-1.3-1.13-.13-.07.76-.59a.36.36,0,0,1,.18,0H29a.45.45,0,0,1,.2,0l.72.56c-.35.3-.66.62-1,.88a1.08,1.08,0,0,0-.53,1.15.48.48,0,0,0,.19.39l.47.41.66-.57c.19-.17.26-.17.46,0l.66.58.6-.52a.19.19,0,0,0,.05-.13c0-.25,0-.51,0-.76a.36.36,0,0,0-.12-.18l-1.23-1.08-.18-.16c.26-.2.49-.39.74-.57a.34.34,0,0,1,.18,0h1.71a.34.34,0,0,1,.18,0c.25.18.48.37.74.57-.44.38-.85.76-1.28,1.11a.71.71,0,0,0-.26.55,1,1,0,0,0,.47,1c.06,0,.11.1.19.16l.67-.59a.28.28,0,0,1,.44,0l.66.58.6-.51a.21.21,0,0,0,0-.13c0-.26,0-.51,0-.77a.38.38,0,0,0-.13-.19l-1.4-1.23.73-.56a.33.33,0,0,1,.2,0h1.69a.51.51,0,0,1,.27.09c.22.16.43.33.66.51-.47.42-.93.82-1.39,1.21a.32.32,0,0,0-.13.31v.1c0,.75,0,.75.65,1.2l.65-.56c.13-.12.26-.19.4,0s.08.26-.08.4l-.78.68a.27.27,0,0,1-.4,0l-.69-.59-.64.54c-.22.19-.3.19-.52,0l-.62-.54-.68.58a.28.28,0,0,1-.44,0l-.67-.58-.64.56c-.2.17-.29.17-.48,0l-.66-.57-.67.58a.28.28,0,0,1-.44,0l-.67-.58-.66.57c-.18.16-.28.16-.46,0s-.44-.37-.66-.57l-.65.56c-.2.18-.28.18-.48,0l-.65-.57-.66.57c-.18.16-.28.16-.46,0l-.67-.57c-.21.19-.42.36-.63.54s-.29.21-.53,0L21,22.27l-.66.58a.29.29,0,0,1-.45,0l-.67-.58-.66.57c-.19.16-.26.17-.45,0l-.67-.58-.65.56c-.2.17-.29.17-.49,0l-.63-.54-.64.55c-.2.17-.27.17-.47,0l-.65-.57-.66.57a.3.3,0,0,1-.47,0c-.2-.19-.42-.37-.65-.57l-.64.55c-.22.19-.29.19-.51,0l-.64-.56c-.2.18-.39.35-.59.51s-.32.24-.59,0l-.6-.52-.66.57c-.2.16-.27.17-.46,0l-.63-.54,0,0-.63.55c-.19.16-.29.16-.48,0L5,22.27l-.66.57c-.19.16-.27.16-.46,0l-.67-.58-.64.56c-.2.17-.29.17-.48,0l-.75-.65c-.16-.14-.19-.29-.08-.4s.26-.09.39,0l.64.56.05,0,.57-.5a1.47,1.47,0,0,0-.06-1.09L1.48,19.64l-.07-.08L2.14,19a.29.29,0,0,1,.16,0H4.06a.41.41,0,0,1,.19.05l.71.55-1,.85c-.6.52-.61.52-.56,1.3a.25.25,0,0,0,.08.18Zm10.69,0,.08-.06c.19-.17.38-.33.57-.51s.28-.17.46,0,.43.38.64.57c.69-.54.7-.55.65-1.38a.37.37,0,0,0-.09-.2L15.8,19.71c-.12-.1-.19-.11-.31,0l-1.26,1.11a.36.36,0,0,0-.11.17c0,.26,0,.51,0,.76a.16.16,0,0,0,.06.13Z"/><path d="M11.94,11.24c.49,0,.93,0,1.37,0a.44.44,0,0,1,.45.42c0,.24-.12.39-.4.48l-.07,0,.78.95a.59.59,0,0,1-.77-.26L13,12.41a1.83,1.83,0,0,0-.27-.21,5,5,0,0,1,0,.57c0,.23.21.22.36.36H11.93c.07-.06.1-.1.14-.11s.2-.11.2-.25V11.58a.2.2,0,0,0-.18-.23A1.12,1.12,0,0,1,11.94,11.24Zm.77.89h.19a.35.35,0,0,0,.37-.41.34.34,0,0,0-.41-.35.26.26,0,0,0-.15.14C12.7,11.71,12.71,11.91,12.71,12.13Z"/><path d="M4.47,12.19a1.08,1.08,0,0,1,1.09-1.08,1.1,1.1,0,0,1,1.13,1.07,1.08,1.08,0,0,1-1.1,1.05A1.07,1.07,0,0,1,4.47,12.19Zm.49,0c0,.16,0,.35.11.53a.52.52,0,0,0,.57.33.44.44,0,0,0,.45-.37,1.48,1.48,0,0,0,0-.93.51.51,0,0,0-.56-.39.48.48,0,0,0-.51.4C5,11.86,5,12,5,12.16Z"/><path d="M29.51,12.18a1.08,1.08,0,0,1,1.1-1.07,1.06,1.06,0,1,1,0,2.12A1.06,1.06,0,0,1,29.51,12.18Zm.49,0a3.33,3.33,0,0,0,.11.53.51.51,0,0,0,.58.33.44.44,0,0,0,.44-.37,1.44,1.44,0,0,0,0-1,.49.49,0,0,0-.55-.36.48.48,0,0,0-.5.39A2.7,2.7,0,0,0,30,12.16Z"/><path d="M7,13.13c0-.05,0-.1.07-.11s.21-.18.21-.34c0-.34,0-.68,0-1s0-.33-.24-.36c0,0,0,0,0,0s0,0,0-.06c.34,0,.64-.06.89.28a11.8,11.8,0,0,0,.91,1c0-.36,0-.68,0-1,0-.07-.11-.14-.17-.2l-.15-.12h.75s0,.08,0,.08c-.25.07-.26.26-.26.46v1.48a1,1,0,0,1-.24-.15c-.4-.47-.81-.94-1.26-1.4v.91c0,.2,0,.4.26.46a.37.37,0,0,0,0,.08Z"/><path d="M32,11.2a5.31,5.31,0,0,1,.58,0,.32.32,0,0,1,.18.11l1.07,1.19c0-.36,0-.69,0-1,0-.09-.16-.18-.26-.28h.71s0,.06,0,.07c-.28.07-.26.3-.26.52v1.41a.78.78,0,0,1-.23-.13l-1.07-1.24-.19-.2c0,.42,0,.8,0,1.18,0,.07.11.13.17.19l.13.11H32s0-.1.06-.1c.19,0,.21-.19.21-.36v-1c0-.17,0-.3-.23-.33C32.06,11.31,32,11.27,32,11.2Z"/><path d="M11.19,11.26l.14-.1v.66a.64.64,0,0,1-.12-.13c-.16-.32-.32-.44-.62-.41a.57.57,0,0,0-.48.49,1.3,1.3,0,0,0,.06,1,.49.49,0,0,0,.68.24.3.3,0,0,0,.18-.32c0-.12,0-.23-.18-.24s0-.05-.09-.1h.93a1.2,1.2,0,0,0-.2.3,1.2,1.2,0,0,0,0,.38l-.72.16a1,1,0,0,1-1.2-.74,1.06,1.06,0,0,1,.87-1.29A3.27,3.27,0,0,1,11.19,11.26Z"/><path d="M18.91,11.21H20c0,.06-.07.11-.09.11-.2,0-.23.15-.23.31v.83c0,.35.17.52.5.52s.58-.15.59-.52,0-.55,0-.83,0-.28-.2-.32,0,0-.08-.09h.7s0,.09,0,.09c-.23,0-.23.21-.23.38s0,.5,0,.75c0,.56-.33.71-.78.74a1.44,1.44,0,0,1-.46,0,.57.57,0,0,1-.44-.57c0-.28,0-.55,0-.83s0-.39-.26-.43C18.94,11.3,18.94,11.26,18.91,11.21Z"/><path d="M4.14,12.44v.69l0,0L4,12.94a1,1,0,0,1-1,.2,1.32,1.32,0,0,1-.47-.34,1.07,1.07,0,0,1,.07-1.33,1,1,0,0,1,1.33-.17l.18-.14v.68c-.06-.08-.1-.12-.13-.17a.55.55,0,0,0-1.07.06,1.3,1.3,0,0,0,0,.87.56.56,0,0,0,1,0l.11-.22Z"/><path d="M16.43,13.13h-1s.05-.09.07-.1.22,0,.17-.19,0-.32-.27-.29h-.26c-.19,0-.29,0-.34.24s.08.21.19.25,0,.05,0,.09h-.69s0-.08,0-.08c.23-.08.29-.29.37-.48.18-.44.37-.88.56-1.32a.45.45,0,0,1,.11-.13.8.8,0,0,1,.13.13c.18.45.35.91.54,1.36.07.17.11.38.34.43A.41.41,0,0,1,16.43,13.13Zm-1.18-1.44-.29.68h.55Z"/><path d="M25.58,13.13h-1s0-.09.06-.09.24,0,.18-.21-.05-.32-.28-.28a1,1,0,0,1-.3,0c-.16,0-.23.06-.28.21s0,.23.13.26.06.05.13.11H23.5s0-.07,0-.07c.25-.1.31-.33.4-.54.18-.43.35-.85.54-1.28,0-.05.08-.08.12-.12s.09.07.11.12c.19.46.37.92.55,1.37.07.18.12.38.35.44A.37.37,0,0,0,25.58,13.13Zm-.92-.75-.26-.69-.28.69Z"/><path d="M34.77,13l-.16.17v-.67l0,0a1.62,1.62,0,0,1,.1.18c.12.28.29.42.52.36a.46.46,0,0,0,.3-.24.41.41,0,0,0-.14-.33,2.31,2.31,0,0,0-.47-.24.59.59,0,1,1,.5-1.07,3.54,3.54,0,0,0,.38.09v.44l0,0-.11-.15a.49.49,0,0,0-.4-.31.29.29,0,0,0-.33.17.23.23,0,0,0,.12.32l.56.28a.57.57,0,0,1,.32.63.71.71,0,0,1-1,.46Z"/><path d="M18.63,11.21v.52a1.77,1.77,0,0,0-.35-.33c-.09-.06-.23,0-.37,0,0,.51,0,1,0,1.5,0,.05.11.11.18.16l.12.05,0,.06H17.15c0-.05,0-.1.06-.1.23,0,.24-.16.23-.33V11.39a.48.48,0,0,0-.65.36l-.05,0v-.5Z"/><path d="M26.34,13.13c0-.05,0-.1.06-.1.24,0,.24-.16.24-.33,0-.44,0-.88,0-1.31-.33-.07-.56,0-.66.36l-.05,0v-.5h1.89l0,.53a2.22,2.22,0,0,0-.38-.34c-.09-.06-.23,0-.37,0,0,.51,0,1,0,1.48,0,.06.12.12.18.18a.26.26,0,0,0,.12.05l0,.06Z"/><path d="M21.48,13.13c.05-.06.07-.1.1-.1.19,0,.22-.16.22-.31,0-.36,0-.72,0-1.07,0-.18,0-.32-.24-.33l0,0v-.06h1s-.06.1-.09.1c-.2,0-.22.15-.22.3,0,.31,0,.62,0,.93s0,.37.22.42a.56.56,0,0,0,.65-.22.53.53,0,0,1,.15-.19v.57Z"/><path d="M29.23,11.21c-.07.06-.09.11-.12.11s-.21.14-.21.27c0,.39,0,.77,0,1.15,0,.14,0,.26.22.28,0,0,0,.05.09.11H28.12c.06-.05.09-.1.12-.11a.2.2,0,0,0,.19-.23c0-.41,0-.82,0-1.23,0-.13-.05-.24-.21-.24s-.06-.05-.12-.11Z"/></g><path class="cls-4" d="M12.33,4.93c.48-.42.94-.81,1.39-1.22a.48.48,0,0,0,.13-.3c0-.77,0-.77-.58-1.26l-.07,0-.67.58a.27.27,0,0,1-.42,0l-.68-.59c-.2.18-.4.34-.58.51A1.47,1.47,0,0,0,10.9,3.7l1.33,1.16.11.06-.78.59a.31.31,0,0,1-.19,0H9.72a.62.62,0,0,1-.32-.11c-.22-.15-.41-.32-.64-.49.48-.41,1-.81,1.4-1.23a.53.53,0,0,0,.14-.3c0-.76,0-.76-.58-1.24l-.08-.05L9,2.67c-.2.17-.27.18-.47,0L7.87,2.1l-.59.51a1.55,1.55,0,0,0,0,1.08L8.56,4.76l.19.18c-.26.2-.5.39-.76.57,0,0-.12,0-.18,0H6.16a.57.57,0,0,1-.31-.1c-.22-.15-.42-.32-.65-.5.47-.4.91-.8,1.36-1.18a.39.39,0,0,0,.17-.38V3.31c0-.73,0-.77-.66-1.2l-.58.51c-.28.24-.32.24-.6,0L4.31,2.1c-.2.17-.4.33-.58.51a1.47,1.47,0,0,0,0,1.09L5.05,4.81l.14.13-.73.56a.65.65,0,0,1-.2,0H2.58a.67.67,0,0,1-.3-.1c-.21-.15-.41-.32-.64-.49l.24-.22L3,3.71l.08-.06a1.7,1.7,0,0,0-.06-1.09c-.17-.15-.34-.29-.52-.46l-.61.52a.69.69,0,0,1-.13.11.23.23,0,0,1-.34,0,.23.23,0,0,1,0-.33l.91-.79a.24.24,0,0,1,.34,0l.69.6.66-.56c.19-.17.28-.17.47,0l.66.56.67-.59a.29.29,0,0,1,.43,0L7,2.23l.61-.54c.23-.2.31-.2.55,0l.62.54.66-.57c.2-.17.27-.16.47,0l.65.56.63-.55c.23-.19.3-.18.53,0l.62.54L13,1.66c.19-.16.27-.17.47,0s.43.36.65.56l.66-.57c.18-.16.28-.15.46,0l.67.57c.23-.2.44-.39.66-.57s.27-.16.46,0l.66.57.62-.54c.23-.19.3-.2.53,0l.63.55.62-.53c.24-.21.29-.22.55,0l.61.53.67-.58a.3.3,0,0,1,.45,0l.65.57.64-.56c.2-.17.27-.16.47,0l.65.56.64-.55c.22-.19.3-.18.52,0l.62.54.61-.52c.26-.23.31-.23.57,0l.58.49h.05L29,1.66c.18-.16.28-.15.46,0l.63.54.05,0,.65-.56c.19-.16.27-.16.46,0l.65.57.64-.55c.2-.18.29-.18.5,0l.64.56.67-.57c.18-.16.26-.16.45,0l.67.57c.23-.2.45-.38.66-.58a.3.3,0,0,1,.45,0c.25.23.51.44.77.67s.18.29.07.4-.27.07-.39,0l-.34-.29-.33-.29c-.21.18-.41.35-.6.53a.15.15,0,0,0,0,.13c0,.25,0,.49,0,.74a.35.35,0,0,0,.12.2c.46.41.93.81,1.42,1.23-.26.2-.51.4-.76.58a.38.38,0,0,1-.19,0H34.64a.62.62,0,0,1-.32-.11c-.22-.15-.42-.31-.64-.49.43-.37.84-.75,1.27-1.1a.75.75,0,0,0,.28-.61.89.89,0,0,0-.43-.92,2.05,2.05,0,0,1-.23-.2l-.66.58c-.2.16-.26.16-.46,0l-.67-.58-.59.52a.14.14,0,0,0,0,.11c0,.27,0,.53,0,.8,0,.06.07.13.13.18L33.5,4.78l.16.16-.73.56a.29.29,0,0,1-.16,0H31a.29.29,0,0,1-.16,0l-.73-.57c.41-.36.8-.72,1.21-1a.85.85,0,0,0,.34-.71.85.85,0,0,0-.39-.83A2.78,2.78,0,0,1,31,2.1l-.63.55c-.23.2-.3.2-.52,0l-.63-.55c-.2.18-.4.34-.58.51a1.47,1.47,0,0,0,.05,1.09L30,4.8l.15.14-.72.55a.41.41,0,0,1-.19,0H27.47a.34.34,0,0,1-.2,0c-.24-.17-.47-.36-.72-.56.44-.38.85-.76,1.29-1.12a.72.72,0,0,0,.25-.53,1,1,0,0,0-.48-1,.76.76,0,0,1-.17-.15l-.66.57c-.2.17-.27.17-.47,0l-.65-.57c-.2.17-.41.34-.59.52a1.53,1.53,0,0,0,.07,1.09l1.22,1.07a1.25,1.25,0,0,1,.17.16l-.73.56a.33.33,0,0,1-.2,0H24a.68.68,0,0,1-.33-.11L23,5c-.23.17-.43.34-.65.49a.54.54,0,0,1-.27.09H20.39a.51.51,0,0,1-.27-.09c-.22-.16-.43-.33-.66-.51l1.39-1.21A.53.53,0,0,0,21,3.4a1.1,1.1,0,0,0-.56-1.22l-.1-.08-.62.54c-.23.21-.29.21-.52,0l-.64-.55c-.2.18-.4.34-.59.52A1.53,1.53,0,0,0,18,3.71l1.27,1.1a.65.65,0,0,0,.15.11l-.75.58a.34.34,0,0,1-.18,0H16.81a.43.43,0,0,1-.24-.08c-.23-.16-.44-.33-.67-.52.37-.32.71-.67,1.09-.95a1,1,0,0,0,.45-1,.69.69,0,0,0-.27-.59,3.8,3.8,0,0,1-.39-.33l-.63.55c-.23.2-.3.2-.53,0L15,2.1c-.21.18-.41.34-.6.52a1.55,1.55,0,0,0,.06,1.08l1.3,1.12.12.11-.73.57a.59.59,0,0,1-.2,0h-1.7a.41.41,0,0,1-.19,0C12.82,5.32,12.59,5.13,12.33,4.93Zm9.81-2.82c-.66.46-.66.46-.66,1.22a.66.66,0,0,0,0,.14.51.51,0,0,0,.1.21L22.85,4.8c.11.09.18.1.29,0A7.06,7.06,0,0,1,24,4.09a1.15,1.15,0,0,0,.55-1.27.21.21,0,0,0,0-.08s0-.09-.05-.11c-.19-.18-.4-.35-.6-.53l-.66.59a.26.26,0,0,1-.42,0Z"/><path class="cls-4" d="M4.27,22.6l.63-.54c.23-.21.28-.21.51,0s.42.36.64.55c.2-.17.41-.34.59-.51a1.55,1.55,0,0,0,0-1.08L5.35,19.92a.83.83,0,0,1-.17-.16c.25-.2.49-.39.74-.57a.38.38,0,0,1,.19,0H7.76a.62.62,0,0,1,.32.11,6.82,6.82,0,0,1,.64.49,9.92,9.92,0,0,1-1,.86,1.1,1.1,0,0,0-.53,1.21.66.66,0,0,0,.13.31c.16.16.34.29.52.45l.61-.54c.25-.21.31-.21.56,0l.61.54.58-.5a1.45,1.45,0,0,0,0-1.1L8.91,19.92l-.17-.15c.25-.2.48-.39.73-.56a.33.33,0,0,1,.2,0c.55,0,1.11,0,1.67,0a.54.54,0,0,1,.3.1c.22.15.42.32.65.5l-.34.3c-.36.31-.72.61-1.07.93a1,1,0,0,0-.12.25s0,0,0,.06a1.06,1.06,0,0,0,.67,1.26l.62-.54c.21-.17.27-.17.48,0l.65.57c.21-.18.41-.34.59-.51A1.52,1.52,0,0,0,13.71,21l-1.23-1.08-.17-.16c.25-.2.49-.39.74-.57a.29.29,0,0,1,.16,0h1.72a.48.48,0,0,1,.26.09l.65.49c.22-.16.42-.33.63-.47a.58.58,0,0,1,.3-.11c.55,0,1.11,0,1.66,0a.65.65,0,0,1,.32.11c.21.15.41.32.63.49L18,21a.53.53,0,0,0-.17.36,1.06,1.06,0,0,0,.54,1.18.5.5,0,0,1,.11.1l.64-.55c.22-.2.28-.2.5,0l.65.56.6-.53a.29.29,0,0,0,0-.17,4.56,4.56,0,0,0,0-.64A.48.48,0,0,0,20.8,21c-.42-.38-.85-.75-1.28-1.12l-.12-.12c.25-.19.49-.39.74-.57a.36.36,0,0,1,.18,0H22a.37.37,0,0,1,.23.07c.23.16.45.34.69.53l-.54.48-.8.69-.09.09a1.55,1.55,0,0,0,0,1.06c.18.17.38.34.58.51.23-.2.45-.38.66-.58a.3.3,0,0,1,.46,0c.21.2.43.38.66.58l.61-.53A.12.12,0,0,0,24.5,22c0-.27,0-.54,0-.81,0-.06-.07-.13-.13-.18L23,19.77l.74-.57a.42.42,0,0,1,.16,0H25.6a.29.29,0,0,1,.16,0l.75.58L25.14,21a.43.43,0,0,0-.17.33,1.1,1.1,0,0,0,.57,1.22l.09.08.64-.56c.22-.19.27-.19.49,0l.65.56c.2-.18.4-.34.59-.52A1.47,1.47,0,0,0,27.92,21l-1.29-1.13-.14-.07.77-.59a.36.36,0,0,1,.18,0c.57,0,1.14,0,1.72,0a.31.31,0,0,1,.19,0l.72.56c-.34.3-.65.62-1,.88a1.08,1.08,0,0,0-.53,1.15.49.49,0,0,0,.19.39l.47.41.66-.58c.19-.16.26-.16.45,0l.67.58.6-.52a.19.19,0,0,0,.05-.13c0-.25,0-.51,0-.76A.36.36,0,0,0,31.5,21c-.41-.37-.82-.72-1.23-1.08l-.18-.16.73-.57a.36.36,0,0,1,.18,0c.58,0,1.15,0,1.72,0a.34.34,0,0,1,.18,0l.74.57c-.44.38-.85.75-1.28,1.11a.71.71,0,0,0-.26.55,1,1,0,0,0,.46,1,1.35,1.35,0,0,1,.19.16l.68-.59a.28.28,0,0,1,.44,0l.66.58c.2-.18.4-.34.59-.52a.16.16,0,0,0,.06-.12c0-.26,0-.51,0-.77a.37.37,0,0,0-.13-.2l-1.4-1.22c.25-.2.48-.39.73-.56a.33.33,0,0,1,.2,0c.56,0,1.13,0,1.69,0a.46.46,0,0,1,.27.09l.66.51c-.48.42-.93.82-1.39,1.21a.34.34,0,0,0-.14.31.34.34,0,0,1,0,.1c0,.74,0,.75.65,1.2L37,22c.13-.11.26-.18.4,0s.08.25-.08.4l-.78.68a.27.27,0,0,1-.4,0c-.22-.19-.45-.38-.69-.6l-.64.55c-.22.19-.3.18-.52,0l-.63-.54-.67.58a.28.28,0,0,1-.44,0l-.67-.58-.64.56c-.2.17-.29.17-.48,0l-.66-.57-.67.58a.28.28,0,0,1-.44,0l-.67-.58-.66.57c-.18.16-.28.16-.46,0l-.66-.57-.65.56c-.2.17-.28.18-.48,0l-.65-.57-.66.57c-.18.15-.28.16-.46,0L23,22.47l-.63.54c-.23.21-.29.2-.54,0l-.61-.53c-.23.2-.45.38-.66.58a.3.3,0,0,1-.45,0l-.67-.58-.66.57c-.19.16-.27.17-.46,0l-.67-.58L17,23c-.2.17-.29.17-.49,0l-.63-.54L15.2,23c-.2.18-.27.18-.47,0l-.65-.57-.66.57A.31.31,0,0,1,13,23l-.65-.57-.64.55c-.22.19-.29.19-.51,0s-.41-.35-.64-.55L9.92,23c-.27.24-.32.23-.59,0l-.6-.52L8.06,23c-.19.16-.27.16-.45,0L7,22.5H6.93L6.3,23c-.19.17-.29.17-.48,0l-.66-.56L4.51,23c-.19.16-.28.16-.46,0l-.67-.58L2.74,23c-.2.17-.29.17-.48,0s-.51-.43-.75-.65-.19-.29-.08-.4.26-.09.39,0l.64.56,0,0,.56-.5A1.42,1.42,0,0,0,3,21L1.68,19.83a.45.45,0,0,1-.07-.07l.73-.56a.27.27,0,0,1,.16,0c.58,0,1.17,0,1.76,0a.32.32,0,0,1,.19,0l.71.55-1,.85c-.6.52-.6.51-.55,1.3a.29.29,0,0,0,.07.18C3.88,22.27,4.07,22.43,4.27,22.6ZM15,22.6l.08-.06c.19-.17.38-.33.57-.51s.28-.17.46,0,.43.38.64.57c.69-.55.69-.55.65-1.38a.38.38,0,0,0-.1-.2L16,19.91c-.11-.1-.18-.11-.3,0L14.42,21a.3.3,0,0,0-.1.17c0,.25,0,.51,0,.76a.19.19,0,0,0,0,.13Z"/><path class="cls-4" d="M12.14,11.44c.49,0,.93,0,1.37,0a.44.44,0,0,1,.45.42c0,.24-.12.39-.4.48l-.07,0,.77.94a.58.58,0,0,1-.77-.25c-.1-.15-.2-.31-.31-.45a1.54,1.54,0,0,0-.28-.21,5.36,5.36,0,0,1,0,.57c0,.23.21.22.36.36H12.13c.07-.06.1-.1.14-.11s.2-.11.2-.25V11.78a.21.21,0,0,0-.18-.24S12.2,11.48,12.14,11.44Zm.76.89h.2a.35.35,0,0,0,.37-.41.34.34,0,0,0-.41-.35.23.23,0,0,0-.15.14C12.89,11.91,12.9,12.1,12.9,12.33Z"/><path class="cls-4" d="M4.67,12.39a1.08,1.08,0,0,1,1.09-1.08,1.1,1.1,0,0,1,1.13,1.07,1.09,1.09,0,0,1-1.1,1A1.07,1.07,0,0,1,4.67,12.39Zm.49,0a3.86,3.86,0,0,0,.11.53.52.52,0,0,0,.57.33.45.45,0,0,0,.45-.37,1.41,1.41,0,0,0,0-.93.51.51,0,0,0-.55-.4.5.5,0,0,0-.51.41A3.87,3.87,0,0,0,5.16,12.36Z"/><path class="cls-4" d="M29.71,12.38a1.08,1.08,0,0,1,1.09-1.07,1.1,1.1,0,0,1,1.12,1.08,1.08,1.08,0,0,1-1.1,1A1.06,1.06,0,0,1,29.71,12.38Zm.49,0a3.58,3.58,0,0,0,.11.53.51.51,0,0,0,.57.33.45.45,0,0,0,.45-.38,1.47,1.47,0,0,0,0-.95.51.51,0,0,0-.55-.37.49.49,0,0,0-.5.4A2.54,2.54,0,0,0,30.2,12.36Z"/><path class="cls-4" d="M7.2,13.32s0-.09.07-.1c.18-.05.21-.18.2-.34,0-.34,0-.68,0-1,0-.18,0-.32-.24-.35,0,0,0,0,0,0s0,0,0-.06c.34,0,.64-.07.89.28a11.8,11.8,0,0,0,.91,1c0-.36,0-.68,0-1,0-.07-.11-.14-.18-.21a.73.73,0,0,0-.14-.11h.75s0,.08,0,.08c-.25.06-.26.26-.26.46v1.48a1.75,1.75,0,0,1-.24-.15c-.4-.47-.81-.94-1.26-1.4v.91c0,.2,0,.4.25.46,0,0,0,0,0,.07Z"/><path class="cls-4" d="M32.18,11.4h.58a.41.41,0,0,1,.18.12L34,12.71c0-.36,0-.69,0-1,0-.1-.16-.18-.26-.28h.71s0,.06,0,.06c-.28.08-.26.31-.26.53v1.41a.84.84,0,0,1-.24-.14l-1.06-1.23-.19-.2c0,.42,0,.8,0,1.18,0,.07.11.13.17.19l.13.11h-.75s0-.1,0-.1c.2-.05.22-.2.22-.36,0-.34,0-.68,0-1,0-.17,0-.31-.23-.33C32.26,11.51,32.24,11.47,32.18,11.4Z"/><path class="cls-4" d="M11.39,11.46l.14-.1V12a.64.64,0,0,1-.12-.13c-.16-.32-.33-.44-.62-.41a.57.57,0,0,0-.48.49,1.35,1.35,0,0,0,0,1,.51.51,0,0,0,.69.24.3.3,0,0,0,.18-.32c0-.12,0-.23-.19-.24s0,0-.08-.1h.93a1.65,1.65,0,0,0-.21.3,1.53,1.53,0,0,0,0,.37l-.72.17a1,1,0,0,1-1.2-.74,1.06,1.06,0,0,1,.87-1.29A2.88,2.88,0,0,1,11.39,11.46Z"/><path class="cls-4" d="M19.11,11.41h1.06c-.05.06-.07.11-.09.11-.2,0-.23.14-.23.31s0,.55,0,.82.17.53.49.53.59-.16.6-.52,0-.55,0-.83,0-.28-.2-.32,0,0-.09-.1h.71s0,.1,0,.1c-.23,0-.23.21-.23.38s0,.5,0,.74c0,.57-.34.72-.78.75a1.46,1.46,0,0,1-.46-.06.55.55,0,0,1-.44-.57,7.48,7.48,0,0,1,0-.82c0-.2,0-.39-.26-.43A.41.41,0,0,1,19.11,11.41Z"/><path class="cls-4" d="M4.34,12.64v.69l0,0-.12-.21a1,1,0,0,1-1,.19A1.22,1.22,0,0,1,2.73,13a1.08,1.08,0,0,1,.06-1.33,1,1,0,0,1,1.34-.17l.18-.14V12c-.06-.08-.1-.12-.13-.17a.57.57,0,0,0-.57-.39.56.56,0,0,0-.5.45,1.3,1.3,0,0,0,0,.87.54.54,0,0,0,.49.38.55.55,0,0,0,.55-.34,1.51,1.51,0,0,1,.11-.22Z"/><path class="cls-4" d="M16.63,13.33h-1s0-.1.07-.1.22,0,.17-.19,0-.32-.27-.29h-.26c-.19,0-.29.05-.34.24s.08.21.19.25,0,0,.05.09h-.69s0-.08,0-.08c.24-.08.29-.29.37-.48.19-.44.37-.89.56-1.32a1.49,1.49,0,0,1,.12-.14,1.66,1.66,0,0,1,.13.14l.53,1.35c.08.18.12.39.35.44C16.62,13.24,16.62,13.29,16.63,13.33Zm-1.18-1.44-.29.68h.55Z"/><path class="cls-4" d="M25.78,13.33h-1c0-.05.05-.09.07-.09s.24,0,.18-.21-.05-.32-.28-.28h-.3c-.17,0-.24.06-.28.21s0,.23.13.26.06,0,.13.1H23.7s0-.06,0-.06c.24-.1.31-.33.39-.54.18-.43.36-.86.55-1.28,0,0,.08-.08.12-.13s.09.08.11.13c.19.46.37.91.55,1.37.07.18.12.38.35.44A.37.37,0,0,0,25.78,13.33Zm-.92-.75-.26-.69-.29.69Z"/><path class="cls-4" d="M35,13.23l-.16.17v-.68l0,0,.1.18c.12.28.29.42.52.36a.49.49,0,0,0,.3-.24.45.45,0,0,0-.14-.33,2.64,2.64,0,0,0-.47-.25.58.58,0,0,1-.35-.59.59.59,0,0,1,.85-.47,2.67,2.67,0,0,0,.38.09v.44l0,0-.11-.15a.49.49,0,0,0-.4-.31.29.29,0,0,0-.33.17.23.23,0,0,0,.12.32c.18.1.38.18.56.28a.58.58,0,0,1,.32.63.71.71,0,0,1-1,.45Z"/><path class="cls-4" d="M18.83,11.41v.51a2.65,2.65,0,0,0-.35-.33,1,1,0,0,0-.37,0c0,.51,0,1,0,1.49,0,.06.11.12.18.17l.11,0v.06h-1c0-.05,0-.1.06-.1.23,0,.24-.16.23-.34v-1.3a.48.48,0,0,0-.65.35l0,0v-.5Z"/><path class="cls-4" d="M26.54,13.33c0-.05,0-.1.06-.1.24,0,.24-.16.24-.34,0-.43,0-.87,0-1.3a.48.48,0,0,0-.65.36l-.05,0v-.5H28l0,.53a2.88,2.88,0,0,0-.37-.35,1,1,0,0,0-.37,0c0,.51,0,1,0,1.47,0,.07.11.13.18.19l.12,0,0,.06Z"/><path class="cls-4" d="M21.68,13.33c.05-.06.07-.1.1-.11.19,0,.21-.15.21-.3,0-.36,0-.72,0-1.08,0-.17,0-.31-.24-.32,0,0,0,0,0,0s0,0,0-.06h1s-.06.1-.09.1c-.2,0-.22.14-.22.29v.94c0,.17,0,.36.23.42a.58.58,0,0,0,.65-.23.5.5,0,0,1,.15-.18v.57Z"/><path class="cls-4" d="M29.43,11.41c-.07.06-.1.11-.13.11s-.2.14-.2.27c0,.38,0,.76,0,1.15,0,.14,0,.26.22.28,0,0,0,0,.09.11H28.32c.06-.06.09-.1.12-.11a.2.2,0,0,0,.19-.23q0-.62,0-1.23c0-.13,0-.24-.2-.24s-.06,0-.12-.11Z"/></g></g></svg>