<svg xmlns="http://www.w3.org/2000/svg" viewBox="0 0 38.55 24.66"><defs><style>.cls-1{isolation:isolate;}.cls-2{opacity:0.15;}.cls-2,.cls-3{mix-blend-mode:multiply;}.cls-4{fill:#fff;}</style></defs><title>convert-FIX-SVG-03</title><g class="cls-1"><g id="Layer_1" data-name="Layer 1"><g class="cls-2"><path d="M16.51,10.86A4.89,4.89,0,0,1,14.84,13a1.47,1.47,0,0,0,.06.14A5.09,5.09,0,0,1,15.4,15a.31.31,0,0,0,.19.3,2.93,2.93,0,0,0,.4.19.92.92,0,0,0,1.09-.27c.28-.29.55-.6.84-.89a1.21,1.21,0,0,1,1.49-.27,1.41,1.41,0,0,1,.5.44,3.59,3.59,0,0,1,.41,3,1.62,1.62,0,0,1-1.58,1.21,23,23,0,0,1-4-.13h-.08a.88.88,0,0,0-.94.14,3.11,3.11,0,0,1-2.08.48.29.29,0,0,0-.17.09c-.15.14-.28.31-.44.44a.25.25,0,0,0-.1.29,6.09,6.09,0,0,0,.28.75A2,2,0,0,1,9.8,23.76a1.7,1.7,0,0,1-1.41-.43,2.27,2.27,0,0,1-.87-2.4,30.35,30.35,0,0,1,.88-3.37.35.35,0,0,0,0-.33A2.73,2.73,0,0,1,8,16C8,15.44,8,14.9,7.91,14.36a.47.47,0,0,0-.14-.28.84.84,0,0,0-.28-.18,5.47,5.47,0,0,1-2.11-1.73c-.6-.74-1.17-1.5-1.73-2.27A1.57,1.57,0,0,1,3.3,8.78a1.12,1.12,0,0,1,1.4-1l.42.12a2.86,2.86,0,0,1,0-2l-3.87.43.07-.24C1.72,5,2.16,3.79,2.59,2.62a.32.32,0,0,1,.3-.23l4.16-.5.55,0L6.43,5h.22a2.05,2.05,0,0,1,1.14.22.32.32,0,0,0,.23,0,5.29,5.29,0,0,1,2-.57,1,1,0,0,0,.68-.23A1.31,1.31,0,0,1,12,4.17,2.1,2.1,0,0,1,13.4,5.41a2.88,2.88,0,0,1,.06.83c0,.06,0,.13,0,.17A3.34,3.34,0,0,1,14,7.9l.67-.44c-.29-.41-.29-.59,0-.77-.49-1.09-1-2.18-1.46-3.28-.16-.35-.32-.7-.47-1.06a.36.36,0,0,1,0-.25,1.28,1.28,0,0,1,1.82-.48.41.41,0,0,1,.15.21c.54,1.24,1.06,2.49,1.59,3.73l.11.24c0-.27.1-.5.37-.61.16.2,0,.4,0,.61.19-.16.37-.33.66-.24-.08.4-.44.47-.7.66,0,.14.11.17.24.14a2.86,2.86,0,0,1,1.68.17,1.78,1.78,0,0,0,.46.09.74.74,0,0,1-.55.12,3.82,3.82,0,0,1-.48-.15,7.54,7.54,0,0,0-.94-.22,3.17,3.17,0,0,1,1.2.64,2.42,2.42,0,0,0,2.37.42l.06,0h0a1.47,1.47,0,0,1-1.66.38A3.93,3.93,0,0,1,17.93,7a3.57,3.57,0,0,0-.68-.4c-.24-.11-.25-.09-.47.09l.78,1.83c.58,1.37,1.16,2.74,1.75,4.11a.26.26,0,0,1-.07.34,1.42,1.42,0,0,1-1.48.38.42.42,0,0,1-.25-.22C17.17,12.38,16.85,11.63,16.51,10.86ZM11.65,19l.1,0a3,3,0,0,0,1.93-.48,1.52,1.52,0,0,0,.47-.35,4.56,4.56,0,0,0,1-2.47A5.06,5.06,0,0,0,13.77,12a.54.54,0,0,0-.26-.16c-.5-.16-1-.28-1.49-.46a2,2,0,0,0-.72,0,.29.29,0,0,0-.2.11,6,6,0,0,0-.5.61c-.15.22-.28.47-.43.7-.05.08-.15.12-.23.18a1.5,1.5,0,0,1-.19-.25c-.05-.13-.06-.29-.25-.35l.1.27a3.32,3.32,0,0,1,.18,1.87.69.69,0,0,1-.51.61.77.77,0,0,1-.79-.28,3.89,3.89,0,0,0-.29-.3A6.12,6.12,0,0,0,8.57,17a8.79,8.79,0,0,1,.57-.79.62.62,0,0,1,.92-.05,4.71,4.71,0,0,1,1.42,1.74A1.6,1.6,0,0,1,11.65,19Zm-.3-8.6,0-.07A1.46,1.46,0,0,1,10,10.12a2.56,2.56,0,0,1-.86-2.4,2.19,2.19,0,0,1,3-1.3s.14.08.16.07c.18-.17.28,0,.36.1A2.31,2.31,0,0,1,12.8,7a3.91,3.91,0,0,1,.26.59,1.85,1.85,0,0,1-.73,2.23l-.08,0,0,.06a1.72,1.72,0,0,0,.58-.19,2.26,2.26,0,0,0,.78-1.11A2.55,2.55,0,0,0,12.76,6c-.38-.29-.81-.51-1.21-.77A2.7,2.7,0,0,0,10,4.85a4.83,4.83,0,0,0-2,.62.38.38,0,0,0-.11.14.88.88,0,0,1-.66.54.25.25,0,0,0-.16.08,6.3,6.3,0,0,0-.48.57,1,1,0,0,0-.2.85.74.74,0,0,1-.25.73c-.12.1-.09.2,0,.29A8.09,8.09,0,0,1,7,9.24c.6.55,1.19,1.11,1.77,1.66A1.35,1.35,0,0,1,9,10.79l.94-.14a2.26,2.26,0,0,0,.64-.11,1.12,1.12,0,0,1,.5-.1A1.36,1.36,0,0,0,11.35,10.38Zm-.64,12.54-.1-.31a5,5,0,0,0-.14-.52c-.09-.26-.21-.5-.28-.76a1.36,1.36,0,0,1,.63-1.71,1.08,1.08,0,0,0,.43-1.57A4.53,4.53,0,0,0,10,16.43c-.3-.25-.5-.25-.72.07a2.93,2.93,0,0,0-.46.85c-.33,1.1-.64,2.2-.93,3.31a3.5,3.5,0,0,0-.11,1.11A1.83,1.83,0,0,0,8.47,23,1.45,1.45,0,0,0,10.71,22.92Zm-7-14.46,0-.09a2.42,2.42,0,0,0-.13.53,1.28,1.28,0,0,0,.31.86c.58.77,1.16,1.55,1.76,2.3a4.94,4.94,0,0,0,1.52,1.36A4.54,4.54,0,0,1,8.71,14.6a.6.6,0,0,0,.25.16c.33.08.5-.06.57-.46a3.32,3.32,0,0,0-.35-2,8.16,8.16,0,0,0-2-2.5.3.3,0,0,0-.33-.08,2.27,2.27,0,0,1-1.34.07,2.49,2.49,0,0,1-1-.64Zm15.81,6-.1-.09a.89.89,0,0,0-1.13.09,11.93,11.93,0,0,0-.93.95,1.26,1.26,0,0,1-1.44.37l-.42-.19c-.12.47-.2,1-.36,1.4a13.79,13.79,0,0,1-.66,1.34,23.55,23.55,0,0,0,4.36.19,3.11,3.11,0,0,1-.15-.58,11.64,11.64,0,0,1,0-1.56A8.81,8.81,0,0,1,18.9,15,.6.6,0,0,1,19.48,14.47ZM15.25,7.36l2.41,5.42c.14.32.27.41.62.34a2.57,2.57,0,0,0,.6-.23c.15-.07.17-.18.1-.34-.8-1.87-1.58-3.73-2.38-5.6a1.19,1.19,0,0,0-.08-.16Zm-2.36,1a1.73,1.73,0,0,0-1.8-1.84A2,2,0,0,0,9.41,7.63.72.72,0,0,0,9.33,8a2.44,2.44,0,0,0,.58,1.76,1.13,1.13,0,0,0,1,.4,2.93,2.93,0,0,0,1.35-.56A1.44,1.44,0,0,0,12.89,8.31Zm3.43-2L14.48,2a.27.27,0,0,0-.09-.12A1,1,0,0,0,13,2.16a.25.25,0,0,0,0,.19c.11.28.23.55.35.82.49,1.1,1,2.21,1.48,3.32,0,.09.06.18.2.14Zm-.15,3.88-.13.08a1.3,1.3,0,0,1-2-.71l-.12-.34s0-.1,0-.16l-.53.76.22,0a5.68,5.68,0,0,1,.17.86,3.13,3.13,0,0,0,.43,1.21c.13.26.34.47.49.72s.17.14.27.06a2.22,2.22,0,0,0,.45-.41c.31-.48.59-1,.9-1.46A.48.48,0,0,0,16.17,10.17Zm-11-3.36h0c.08.32.16.64.26.95a.81.81,0,0,0,.24.34.29.29,0,0,0,.51-.18,1.19,1.19,0,0,0,0-.42C6.09,7.33,6,7.16,6,7a.89.89,0,0,1,.65-1.13,1.67,1.67,0,0,1,.5,0,.47.47,0,0,0,.45-.2c.11-.14.08-.23-.07-.26a8.36,8.36,0,0,0-.85-.14.41.41,0,0,0-.48.36c0,.17-.13.23-.31.24-.45,0-.57.12-.66.56A3.07,3.07,0,0,0,5.16,6.81Zm5.78,15.82a1.39,1.39,0,0,0,.22-1.08c-.14-.49-.34-1-.53-1.51a2.4,2.4,0,0,0-.21.43,2,2,0,0,0,.19,1.25ZM11.78,11l1.51-.22s.12-.11.11-.14-.12-.32-.19-.49a2.77,2.77,0,0,0-1.44.35.24.24,0,0,0-.07.16A2.73,2.73,0,0,0,11.78,11Zm1.43-4.89A1.62,1.62,0,0,0,12,4.47a1.12,1.12,0,0,0-1.27.18,1.91,1.91,0,0,0,.89.13.83.83,0,0,1,1.12.69C12.82,5.76,13,5.88,13.21,6.06Zm-4,5.44,1.43-.23-.13-.41-1.37.28Zm1.33.07-.69.1a2,2,0,0,0-.26.1,1.57,1.57,0,0,0,.12.3c.09.12.2.23.32.36Zm1.87-.43v0l1.22.34a2.45,2.45,0,0,0-.15-.4c0-.06-.13-.13-.19-.12C13,11,12.7,11.09,12.41,11.14ZM4.29,4.35A.7.7,0,0,0,4.85,4c.05-.15,0-.22-.15-.22a.72.72,0,0,0-.57.38C4.07,4.27,4.13,4.35,4.29,4.35Zm7.2,6.6-.06-.27-.65,0,.11.42Z"/><path d="M29.46,6.77,29.9,7a3.88,3.88,0,0,1,.45.24.48.48,0,0,1,0,.83A2,2,0,0,1,28.57,8c-.3-.23-.29-.47.05-.65l.5-.25c0-.14-.1-.3-.05-.38s.22-.15.34-.22A1,1,0,0,1,29.89,5a1,1,0,0,1,.29,0l.6.11c.06.23,0,.25-.22.26a1.22,1.22,0,0,1-1.1,1.37ZM29.51,8a4.79,4.79,0,0,0,.54-.13c.23-.08.26-.24.06-.37a4.45,4.45,0,0,0-.66-.31.18.18,0,0,0-.12,0,2.7,2.7,0,0,0-.44.24c-.19.12-.18.28,0,.37S29.32,8,29.51,8Zm.76-2.62c-.08-.1-.12-.22-.16-.22a.3.3,0,0,0-.25.1,7.3,7.3,0,0,0-.31.82.23.23,0,0,0,.09.21c.07,0,.2,0,.23-.08C30,6,30.14,5.69,30.27,5.41Z"/><path d="M20.41,9.91l.58,1.2,1.19-1.23-.36,0a.61.61,0,0,1-.14-.1s.09-.12.13-.12h1.1c0,.13,0,.2-.13.24a1,1,0,0,0-.39.23c-.39.35-.78.72-1.15,1.09a.52.52,0,0,0-.14.25c-.09.32-.16.64-.23,1s0,.24.2.28.27-.07.26.11-.17.1-.27.1H19.77c0-.15,0-.22.18-.22a.4.4,0,0,0,.46-.39c0-.26.13-.51.17-.76a.51.51,0,0,0,0-.3c-.17-.37-.37-.72-.54-1.08a.45.45,0,0,0-.42-.31c-.06,0-.11-.08-.17-.13s.13-.1.19-.1c.33,0,.66,0,1,0,.07,0,.13.07.19.1l-.15.12A1,1,0,0,1,20.41,9.91Z"/><path d="M25.19,4.48c-.08-.5,0-.49-.48-.49a1.89,1.89,0,0,0-1.43.75,1.8,1.8,0,0,0-.49,1.11,1,1,0,0,0,1.9.52c.07-.11.14-.17.28,0-.06.18-.11.37-.18.54a.27.27,0,0,1-.17.13,3.14,3.14,0,0,1-1.43,0,1.25,1.25,0,0,1-.84-1.75,2.63,2.63,0,0,1,2.33-1.56,4.75,4.75,0,0,1,.65,0c.12,0,.16.06.13.18a2.34,2.34,0,0,1-.09.38C25.35,4.37,25.27,4.41,25.19,4.48Z"/><path d="M28.55,12.4l.2-.27c.16.11.18.2.07.31a6.41,6.41,0,0,1-.55.49A.26.26,0,0,1,28,13s0-.14,0-.21a1.48,1.48,0,0,1,0-.24,2.81,2.81,0,0,1-.47.36.57.57,0,0,1-.45.07c-.09,0-.16-.26-.15-.4A2,2,0,0,1,28,11a1.92,1.92,0,0,1,.6-.1c.08-.25.18-.58.27-.91,0,0,0-.1-.07-.12a.68.68,0,0,0-.2-.07c0-.14,0-.19.18-.19s.39,0,.63,0l-.88,2.81Zm-1.15,0s0,.12.07.13a.26.26,0,0,0,.19,0,1.83,1.83,0,0,0,.76-1.17.22.22,0,0,0-.05-.19.24.24,0,0,0-.18,0,.94.94,0,0,0-.28.24c-.17.26-.31.54-.46.81A1,1,0,0,0,27.4,12.45Z"/><path d="M31.71,10.88c.07-.23.14-.51.24-.79s0-.25-.15-.28a.29.29,0,0,1-.13-.09c.07,0,.13-.11.2-.12s.4,0,.64,0l-.89,2.86,0,0,.23-.32c.16.12.17.22.07.32s-.35.34-.53.48-.17,0-.26,0a1.94,1.94,0,0,1,0-.24,1.31,1.31,0,0,1,.06-.23,4,4,0,0,1-.51.38.5.5,0,0,1-.42.06.45.45,0,0,1-.15-.38,2,2,0,0,1,1-1.56A2,2,0,0,1,31.71,10.88Zm-1.19,1.58s.05.12.08.12a.31.31,0,0,0,.19,0,1.88,1.88,0,0,0,.75-1.12,1.05,1.05,0,0,0,0-.24,1.37,1.37,0,0,0-.23,0,.7.7,0,0,0-.24.21c-.16.26-.31.54-.45.81A1,1,0,0,0,30.52,12.46Z"/><path d="M24.28,11.34c-.18,0-.22.34-.48.18a1.63,1.63,0,0,1,.77-.7.22.22,0,0,1,.21,0,.36.36,0,0,1,0,.25c-.16.36-.34.71-.51,1.06a.9.9,0,0,0-.08.23A4.57,4.57,0,0,0,25.4,11a.3.3,0,0,1,.18-.17c.16-.05.23,0,.17.21-.17.45-.35.89-.55,1.37.14-.08.2-.3.43-.11-.2.21-.38.42-.6.61a.27.27,0,0,1-.26,0c-.05,0-.07-.17-.05-.24a4,4,0,0,1,.21-.6c-.23.22-.42.4-.62.57a1.76,1.76,0,0,1-.4.27.26.26,0,0,1-.23,0,.26.26,0,0,1,0-.23c.14-.31.3-.62.45-.93Z"/><path d="M28.44,6.53c.27-.23.27-.23.45-.19A1.7,1.7,0,0,1,28.3,7c-.09.05-.22,0-.33,0a.85.85,0,0,1,0-.31c.17-.42.36-.82.53-1.22a.47.47,0,0,0,.05-.25c-.07.06-.15.11-.21.17a4.9,4.9,0,0,0-.95,1.39c0,.07-.06.16-.12.19a.36.36,0,0,1-.25,0s-.05-.13,0-.19l.46-1.2a1,1,0,0,0,.07-.21c-.17.06-.18.37-.45.24A1.42,1.42,0,0,1,27.74,5,.22.22,0,0,1,28,5a.29.29,0,0,1,0,.21c0,.13-.09.26-.15.44.17-.18.29-.33.44-.46a1.17,1.17,0,0,1,.37-.22c.22-.07.37.07.32.29a4.27,4.27,0,0,1-.21.6C28.66,6.06,28.55,6.29,28.44,6.53Z"/><path d="M33.13,6.7a2.19,2.19,0,0,1-.47.29.64.64,0,0,1-.47,0c-.17-.08-.14-.29-.09-.46a1.88,1.88,0,0,1,1.39-1.41c.14,0,.3,0,.41-.12s.15,0,.21,0,0,.13,0,.19c-.12.33-.25.67-.38,1a1.3,1.3,0,0,0-.1.41l.23-.29c.17.08.18.16.07.26s-.2.22-.31.32-.28.22-.43.11S33.15,6.8,33.13,6.7Zm-.65.07a1.36,1.36,0,0,0,.34-.16,5.39,5.39,0,0,0,.57-.6,2.26,2.26,0,0,0,.22-.47c0-.14,0-.19-.15-.16a.92.92,0,0,0-.28.14,2.15,2.15,0,0,0-.67,1C32.49,6.55,32.5,6.62,32.48,6.77Z"/><path d="M23.56,11.5A1.59,1.59,0,0,1,23,12.74a1.17,1.17,0,0,1-.31.17.49.49,0,0,1-.68-.4,1.72,1.72,0,0,1,.81-1.64.5.5,0,0,1,.77.44Zm-1.25,1c0,.05,0,.15.09.16a.33.33,0,0,0,.23-.05.44.44,0,0,0,.14-.16c.16-.38.32-.77.47-1.16,0-.06,0-.15,0-.23a.62.62,0,0,0-.24.08A2.54,2.54,0,0,0,22.31,12.51Z"/><path d="M25.24,6.41a1.74,1.74,0,0,1,.69-1.32A.61.61,0,0,1,26.56,5a.55.55,0,0,1,.29.55,1.59,1.59,0,0,1-.63,1.37.62.62,0,0,1-.68.13C25.28,6.91,25.24,6.67,25.24,6.41Zm1.3-1s0-.16-.09-.17-.14,0-.2.07a.59.59,0,0,0-.17.18,2.49,2.49,0,0,0-.46,1.1c0,.08,0,.17.05.26a.71.71,0,0,0,.28-.1A3,3,0,0,0,26.54,5.37Z"/><path d="M34.65,6.6l.42-.44.16.11a2.07,2.07,0,0,1-.77.73.47.47,0,0,1-.31,0s0-.19,0-.27c.15-.39.32-.78.49-1.17l.1-.27-.35,0c0-.19.08-.27.25-.24s.26,0,.31-.21a1.51,1.51,0,0,1,.14-.35.23.23,0,0,1,.18-.12c.22,0,.25,0,.18.24s-.12.27-.18.43l.39,0c0,.18,0,.28-.2.26s-.38.11-.46.34-.26.62-.39.93Z"/><path d="M30.65,5.66a4.37,4.37,0,0,1,.52-.59.49.49,0,0,1,.37-.1c.06,0,.08.21.12.33a1.08,1.08,0,0,1,.13-.18.44.44,0,0,1,.44-.18.28.28,0,0,1,.26.32c0,.18-.14.3-.29.26s-.16-.12-.26-.19a1.72,1.72,0,0,0-.13.18c-.25.45-.48.9-.72,1.34a.42.42,0,0,0,0,.1c-.07.12-.18.16-.28.09a.28.28,0,0,1-.06-.24c.14-.44.3-.88.45-1.32,0,0,0-.05,0-.1C31,5.49,31,5.77,30.65,5.66Z"/><path d="M35,12.48c.1-.11.21-.21.3-.32s.18-.15.31,0l-.73.64c-.1.08-.26.16-.36,0a.42.42,0,0,1,0-.33c.16-.42.35-.84.52-1.26a.83.83,0,0,0,0-.12l-.34,0c0-.16,0-.27.19-.25s.33-.09.39-.28.07-.19.1-.28.2-.17.33-.13.06.17,0,.26-.11.27-.17.43H36c0,.24,0,.27-.19.26a.35.35,0,0,0-.42.28c-.12.34-.27.67-.41,1Z"/><path d="M35.68,7.1a1.72,1.72,0,0,1-.37-.22.23.23,0,0,1,0-.36c.13-.1.25,0,.34.09s0,.24.21.18.14-.21.12-.33-.1-.32-.14-.49A.94.94,0,0,1,36,5.22.57.57,0,0,1,36.63,5a.58.58,0,0,1,.24.29s0,.16-.11.2a.26.26,0,0,1-.21,0s-.09-.08-.14-.12-.12-.07-.14,0a.22.22,0,0,0-.08.15,3.48,3.48,0,0,0,.1.44c0,.13.08.27.1.4A.71.71,0,0,1,35.68,7.1Z"/><path d="M29.34,12.55c.28-.05.31-.46.66-.35a1.42,1.42,0,0,1-.72.71.41.41,0,0,1-.31,0c-.06,0-.07-.2,0-.28.14-.34.31-.68.48-1,.06-.13.13-.25.2-.39l-.58.33,0-.06a1.48,1.48,0,0,1,.73-.62.36.36,0,0,1,.29,0,.31.31,0,0,1,0,.27c-.19.42-.4.83-.61,1.25Z"/><path d="M33.7,12.55c.27-.05.3-.46.66-.36a1.37,1.37,0,0,1-.75.73.33.33,0,0,1-.29-.05.29.29,0,0,1,0-.26c.16-.37.35-.74.53-1.11l.16-.31-.58.34,0-.06a1.49,1.49,0,0,1,.76-.64.3.3,0,0,1,.25,0,.25.25,0,0,1,0,.25c-.14.34-.31.67-.47,1C33.85,12.27,33.77,12.4,33.7,12.55Z"/><path d="M36.05,12.1c.18-.72.35-1.44.54-2.16a.41.41,0,0,1,.26-.22c.14,0,.24.06.22.23a1.05,1.05,0,0,1-.06.24c-.23.6-.47,1.2-.71,1.8C36.26,12.1,36.21,12.18,36.05,12.1Z"/><path d="M7,4.66l.7-1.87.06,0c.1.18.18.36.29.52a2.15,2.15,0,0,0,.29.24L7,4.69Z"/><path d="M3.52,6.46l1.4-.17c-.24.25-.46.47-.67.71a.29.29,0,0,1-.46,0,.5.5,0,0,1-.08-.12,2.34,2.34,0,0,1-.09-.24Z"/><path d="M36,12.3a.3.3,0,0,1,.28.31.32.32,0,0,1-.31.33.3.3,0,0,1-.29-.32A.33.33,0,0,1,36,12.3Z"/><path d="M34.39,10.26a.25.25,0,0,1-.25-.25.28.28,0,0,1,.27-.29.27.27,0,0,1,.28.25A.3.3,0,0,1,34.39,10.26Z"/><path d="M30.11,9.72a.24.24,0,0,1,.22.25.29.29,0,0,1-.3.29.25.25,0,0,1-.25-.27A.3.3,0,0,1,30.11,9.72Z"/><path d="M9,7.37a.39.39,0,0,1-.37.43.4.4,0,0,1-.39-.43.39.39,0,0,1,.37-.44A.43.43,0,0,1,9,7.37Z"/><path d="M9.62,18a3.1,3.1,0,0,1,.23-.6.28.28,0,0,1,.53.07,1,1,0,0,1-.08.91.44.44,0,0,1-.32.2c-.1,0-.2-.15-.27-.26a.94.94,0,0,1-.06-.3Z"/><path d="M12.57,8.44l-.4.56-.54-.33-.39.45-.78-.34c.15-.21.29-.36.56-.22.11.06.36-.17.38-.33s0-.33-.21-.41a5.08,5.08,0,0,1-.47-.23c-.12-.06-.14-.13-.14-.26s.09-.33.31-.35.44-.08.67-.1c.39,0,.58.25.41.61-.1.2-.25.39-.16.65a.34.34,0,0,0,.39.22A1.55,1.55,0,0,1,12.57,8.44Z"/><path d="M16.7,11.06A4.8,4.8,0,0,1,15,13.22a.69.69,0,0,0,.05.13,5.21,5.21,0,0,1,.51,1.89.31.31,0,0,0,.18.3c.14.07.27.14.4.19a.94.94,0,0,0,1.1-.27c.28-.3.55-.61.84-.89a1.21,1.21,0,0,1,1.49-.27,1.3,1.3,0,0,1,.49.44,3.56,3.56,0,0,1,.42,3A1.62,1.62,0,0,1,18.93,19a22.92,22.92,0,0,1-4-.13h-.08a.88.88,0,0,0-.94.14,3.16,3.16,0,0,1-2.08.48s-.12,0-.17.08a6.25,6.25,0,0,1-.44.45.24.24,0,0,0-.1.29,5.22,5.22,0,0,0,.28.75A2,2,0,0,1,10,24a1.75,1.75,0,0,1-1.42-.43,2.3,2.3,0,0,1-.87-2.4,29.82,29.82,0,0,1,.89-3.37.33.33,0,0,0,0-.33,3,3,0,0,1-.35-1.25c-.05-.54-.06-1.08-.1-1.62A.5.5,0,0,0,8,14.28a.79.79,0,0,0-.29-.18,5.61,5.61,0,0,1-2.1-1.73c-.6-.74-1.17-1.5-1.73-2.27A1.52,1.52,0,0,1,3.5,9,1.12,1.12,0,0,1,4.9,8l.42.13a2.86,2.86,0,0,1,0-2l-3.87.43.07-.25C1.92,5.14,2.36,4,2.79,2.82a.31.31,0,0,1,.3-.23l4.16-.5L7.8,2,6.63,5.16h.21A2.26,2.26,0,0,1,8,5.38a.28.28,0,0,0,.22,0,5,5,0,0,1,2-.57,1,1,0,0,0,.68-.23,1.34,1.34,0,0,1,1.32-.2A2.13,2.13,0,0,1,13.6,5.61a2.83,2.83,0,0,1,.06.83c0,.06,0,.13,0,.16a3.43,3.43,0,0,1,.54,1.49l.68-.43c-.29-.41-.29-.59,0-.77-.48-1.09-1-2.19-1.45-3.28-.16-.35-.32-.7-.47-1.06a.31.31,0,0,1,0-.25,1.28,1.28,0,0,1,1.82-.48.41.41,0,0,1,.15.21l1.59,3.73.11.24c.05-.27.1-.5.37-.61.16.19,0,.4,0,.61.19-.16.37-.33.66-.24-.08.4-.44.47-.7.65,0,.15.1.17.24.15a2.78,2.78,0,0,1,1.68.17,2.34,2.34,0,0,0,.46.09.74.74,0,0,1-.55.12,4.58,4.58,0,0,1-.49-.15,9,9,0,0,0-.93-.23,3.34,3.34,0,0,1,1.2.65,2.39,2.39,0,0,0,2.37.41l.06,0h0A1.46,1.46,0,0,1,19.35,8a4.17,4.17,0,0,1-1.23-.81,2.9,2.9,0,0,0-.68-.4c-.23-.11-.24-.09-.46.08l.78,1.84,1.74,4.1a.25.25,0,0,1-.07.35,1.42,1.42,0,0,1-1.47.38.45.45,0,0,1-.25-.22C17.37,12.58,17.05,11.83,16.7,11.06Zm-4.85,8.12.1,0a3,3,0,0,0,1.93-.48,1.52,1.52,0,0,0,.47-.35,4.56,4.56,0,0,0,1-2.47A5.14,5.14,0,0,0,14,12.14a.61.61,0,0,0-.26-.15c-.5-.16-1-.28-1.49-.46a2,2,0,0,0-.72,0,.27.27,0,0,0-.2.11,4.92,4.92,0,0,0-.5.61c-.15.22-.28.47-.43.7a1.3,1.3,0,0,1-.23.18,1.1,1.1,0,0,1-.19-.25c0-.13-.06-.29-.25-.35,0,.1.07.18.1.27A3.28,3.28,0,0,1,10,14.62a.69.69,0,0,1-.51.62A.76.76,0,0,1,8.68,15c-.08-.1-.18-.18-.29-.3a6.12,6.12,0,0,0,.38,2.54,8.39,8.39,0,0,1,.57-.8.62.62,0,0,1,.92,0,4.71,4.71,0,0,1,1.42,1.74A1.6,1.6,0,0,1,11.85,19.18Zm-.3-8.6,0-.07a1.49,1.49,0,0,1-1.37-.19,2.61,2.61,0,0,1-.87-2.41,2.2,2.2,0,0,1,3-1.29c.05,0,.14.08.16.07.18-.17.28,0,.36.1a3,3,0,0,1,.21.44,4.53,4.53,0,0,1,.26.6,1.86,1.86,0,0,1-.73,2.23l-.08,0,0,.06a1.8,1.8,0,0,0,.58-.19,2.26,2.26,0,0,0,.78-1.11A2.53,2.53,0,0,0,13,6.24a13.6,13.6,0,0,0-1.2-.77,2.7,2.7,0,0,0-1.53-.42,4.83,4.83,0,0,0-2,.62c-.05,0-.08.09-.11.14a.85.85,0,0,1-.66.53.28.28,0,0,0-.16.09A5.17,5.17,0,0,0,6.83,7a1.06,1.06,0,0,0-.21.85.72.72,0,0,1-.24.73c-.13.1-.09.19,0,.29s.51.36.74.56L8.92,11.1A1.35,1.35,0,0,1,9.18,11l.94-.14a2.26,2.26,0,0,0,.64-.11,1.12,1.12,0,0,1,.5-.1C11.36,10.63,11.45,10.6,11.55,10.58Zm-.64,12.54-.1-.31c-.05-.17-.08-.35-.14-.53s-.21-.49-.28-.75A1.36,1.36,0,0,1,11,19.82a1.09,1.09,0,0,0,.43-1.57,4.44,4.44,0,0,0-1.29-1.62c-.31-.25-.5-.25-.73.07a3.16,3.16,0,0,0-.45.85c-.33,1.1-.64,2.2-.93,3.31A3.47,3.47,0,0,0,7.94,22a1.86,1.86,0,0,0,.73,1.27A1.46,1.46,0,0,0,10.91,23.12Zm-7-14.46,0-.1a3.58,3.58,0,0,0-.14.54,1.36,1.36,0,0,0,.32.86c.58.77,1.15,1.55,1.76,2.3a4.83,4.83,0,0,0,1.52,1.36A4.63,4.63,0,0,1,8.91,14.8a.63.63,0,0,0,.24.16c.34.08.51-.06.58-.46a3.32,3.32,0,0,0-.35-2,8.16,8.16,0,0,0-2-2.5A.31.31,0,0,0,7,9.89,2.32,2.32,0,0,1,5.69,10a2.6,2.6,0,0,1-1-.64C4.4,9.09,4.13,8.88,3.86,8.66Zm15.82,6-.1-.09a.89.89,0,0,0-1.13.08c-.34.3-.63.63-.94,1a1.26,1.26,0,0,1-1.43.37l-.42-.19a13.09,13.09,0,0,1-.37,1.4,12.49,12.49,0,0,1-.65,1.33,21.87,21.87,0,0,0,4.35.19,3.62,3.62,0,0,1-.14-.57,11.64,11.64,0,0,1,0-1.56,8.81,8.81,0,0,1,.28-1.43A.59.59,0,0,1,19.68,14.67ZM15.45,7.56,17.86,13c.14.32.27.41.62.34a2.75,2.75,0,0,0,.6-.23c.15-.07.17-.18.1-.35Q18,10,16.8,7.15A.8.8,0,0,0,16.72,7Zm-2.36,1a1.73,1.73,0,0,0-1.8-1.84A2,2,0,0,0,9.61,7.83a.72.72,0,0,0-.08.32,2.4,2.4,0,0,0,.58,1.76,1.12,1.12,0,0,0,1,.4,3,3,0,0,0,1.35-.56A1.46,1.46,0,0,0,13.09,8.51Zm3.43-2C15.9,5,15.29,3.58,14.67,2.14A.21.21,0,0,0,14.59,2a1,1,0,0,0-1.36.33.25.25,0,0,0,0,.19c.11.28.23.55.35.82.49,1.1,1,2.21,1.48,3.32,0,.09.06.18.2.14Zm-.15,3.88-.14.08a1.29,1.29,0,0,1-2-.71l-.12-.34L14,9.24l-.53.75.23,0a5.23,5.23,0,0,1,.17.86,3,3,0,0,0,.43,1.21c.13.26.34.47.49.72s.17.14.27.06a2.22,2.22,0,0,0,.45-.41c.31-.48.58-1,.89-1.46A.47.47,0,0,0,16.37,10.37ZM5.36,7h0c.08.32.15.64.26,1a.81.81,0,0,0,.24.34.29.29,0,0,0,.51-.18,1.19,1.19,0,0,0,0-.42c0-.18-.09-.35-.13-.53a.9.9,0,0,1,.65-1.13,1.45,1.45,0,0,1,.51,0,.47.47,0,0,0,.45-.2c.11-.14.08-.23-.07-.27s-.57-.1-.85-.13a.41.41,0,0,0-.49.35c0,.17-.12.24-.3.25-.45,0-.57.12-.67.56C5.39,6.73,5.38,6.87,5.36,7Zm5.78,15.82a1.4,1.4,0,0,0,.22-1.08c-.14-.5-.34-1-.53-1.52a2.82,2.82,0,0,0-.21.44,2,2,0,0,0,.19,1.24ZM12,11.15l1.51-.23s.11-.1.1-.14a4.27,4.27,0,0,0-.18-.49,2.88,2.88,0,0,0-1.44.36.18.18,0,0,0-.07.15A2.85,2.85,0,0,0,12,11.15ZM13.4,6.26a1.6,1.6,0,0,0-1.17-1.59A1.12,1.12,0,0,0,11,4.85a1.91,1.91,0,0,0,.89.13A.83.83,0,0,1,13,5.67C13,6,13.21,6.08,13.4,6.26Zm-4,5.43,1.43-.22-.13-.41-1.38.28Zm1.33.08-.69.1a1.48,1.48,0,0,0-.27.1,1.6,1.6,0,0,0,.13.3c.09.12.2.23.32.36Zm1.87-.44v.06l1.22.34a2.06,2.06,0,0,0-.16-.41.23.23,0,0,0-.18-.11ZM4.49,4.55a.7.7,0,0,0,.56-.39c0-.15,0-.22-.15-.22a.7.7,0,0,0-.57.38C4.27,4.47,4.33,4.55,4.49,4.55Zm7.2,6.6-.06-.27-.65,0,.11.42Z"/><path d="M29.66,7l.44.22c.15.08.31.14.45.23a.48.48,0,0,1,0,.84,2,2,0,0,1-1.74-.08c-.3-.23-.29-.47.05-.65.17-.1.36-.18.5-.25,0-.15-.1-.3-.05-.38s.22-.15.34-.22a1,1,0,0,1,.48-1.52,1,1,0,0,1,.29,0c.2,0,.4.07.6.11.06.23,0,.25-.22.26a1.23,1.23,0,0,1-1.1,1.37Zm.05,1.25a5.52,5.52,0,0,0,.54-.12c.23-.08.26-.24.06-.37a5,5,0,0,0-.66-.31.17.17,0,0,0-.12,0,2.34,2.34,0,0,0-.44.24c-.19.12-.18.27,0,.36A3.42,3.42,0,0,0,29.71,8.22Zm.76-2.61c-.08-.11-.12-.22-.16-.22a.29.29,0,0,0-.25.09,8.29,8.29,0,0,0-.31.83c0,.06,0,.19.09.2a.26.26,0,0,0,.23-.07C30.22,6.17,30.34,5.89,30.47,5.61Z"/><path d="M20.61,10.1l.58,1.21,1.18-1.23A2.08,2.08,0,0,1,22,10s-.08-.06-.13-.09.08-.12.13-.12h1.1c0,.14,0,.21-.13.25a1,1,0,0,0-.39.23c-.4.35-.78.72-1.15,1.09a.48.48,0,0,0-.14.25c-.09.32-.16.64-.23,1s0,.25.2.29.27-.07.26.11-.18.1-.27.1H20c0-.16,0-.22.19-.22a.41.41,0,0,0,.46-.39c0-.26.12-.51.17-.76a.5.5,0,0,0,0-.3c-.18-.37-.37-.72-.54-1.08a.45.45,0,0,0-.42-.31c-.06,0-.11-.09-.17-.13s.13-.1.19-.1c.33,0,.66,0,1,0,.07,0,.13.06.19.1a1,1,0,0,1-.16.12A.81.81,0,0,1,20.61,10.1Z"/><path d="M25.39,4.68c-.08-.5,0-.5-.48-.5a1.94,1.94,0,0,0-1.43.75A1.85,1.85,0,0,0,23,6.05a1,1,0,0,0,1.9.52c.06-.12.14-.18.28-.05-.06.17-.11.36-.18.54a.27.27,0,0,1-.17.13,3.14,3.14,0,0,1-1.43,0,1.25,1.25,0,0,1-.84-1.75,2.61,2.61,0,0,1,2.33-1.56,4.75,4.75,0,0,1,.65,0c.12,0,.16.06.13.17a2.46,2.46,0,0,1-.09.39C25.55,4.57,25.47,4.61,25.39,4.68Z"/><path d="M28.75,12.6l.2-.27c.16.11.18.2.07.31s-.36.34-.55.49a.26.26,0,0,1-.23,0s0-.14,0-.21a1.48,1.48,0,0,1,.05-.24,2.5,2.5,0,0,1-.48.36.64.64,0,0,1-.44.07.51.51,0,0,1-.15-.4,2,2,0,0,1,1-1.55,1.92,1.92,0,0,1,.6-.1c.08-.25.18-.58.27-.91,0,0,0-.1-.08-.12a.54.54,0,0,0-.19-.07c0-.14,0-.19.18-.19s.39,0,.62,0l-.88,2.81Zm-1.16.05s0,.12.08.12a.25.25,0,0,0,.19,0,1.85,1.85,0,0,0,.76-1.18.21.21,0,0,0-.06-.18s-.12,0-.17,0a.94.94,0,0,0-.28.24c-.17.26-.31.54-.46.81A1.67,1.67,0,0,0,27.59,12.65Z"/><path d="M31.91,11.08c.07-.23.14-.51.24-.79s0-.25-.15-.28a.23.23,0,0,1-.13-.1.66.66,0,0,1,.2-.11,6,6,0,0,1,.64-.05l-.9,2.86,0,0,.23-.33c.16.13.17.23.06.33a6,6,0,0,1-.53.48c-.05.05-.16,0-.25,0a1.94,1.94,0,0,1,0-.24c0-.07,0-.14.05-.23a3.31,3.31,0,0,1-.5.38.56.56,0,0,1-.43.06.47.47,0,0,1-.14-.38,2,2,0,0,1,1-1.57A1.93,1.93,0,0,1,31.91,11.08Zm-1.19,1.58s.05.11.08.12a.26.26,0,0,0,.19,0,1.78,1.78,0,0,0,.74-1.11.65.65,0,0,0,0-.24.93.93,0,0,0-.24,0,.66.66,0,0,0-.23.21c-.16.26-.31.53-.46.81A2.18,2.18,0,0,0,30.72,12.66Z"/><path d="M24.48,11.54c-.19,0-.22.34-.48.17a1.64,1.64,0,0,1,.77-.7.25.25,0,0,1,.21,0,.36.36,0,0,1,0,.25c-.16.36-.34.72-.51,1.07a.63.63,0,0,0-.08.23,4.41,4.41,0,0,0,1.19-1.42c0-.07.11-.16.18-.17s.24.05.18.2c-.17.45-.36.9-.55,1.38.14-.08.2-.3.43-.11-.2.21-.39.42-.6.61a.27.27,0,0,1-.26,0,.28.28,0,0,1-.06-.24,5.71,5.71,0,0,1,.22-.6c-.23.22-.42.4-.62.57a1.76,1.76,0,0,1-.4.27c-.07,0-.19,0-.23,0a.23.23,0,0,1,0-.23c.14-.31.3-.62.44-.93C24.35,11.81,24.41,11.68,24.48,11.54Z"/><path d="M28.64,6.73c.27-.23.27-.23.45-.19a1.7,1.7,0,0,1-.59.68,1.2,1.2,0,0,1-.34,0,1.17,1.17,0,0,1,0-.32c.17-.41.35-.81.53-1.22a.43.43,0,0,0,.05-.24c-.07.06-.15.11-.21.17a4.8,4.8,0,0,0-1,1.39c0,.07-.06.16-.11.19a.36.36,0,0,1-.25,0s-.06-.13,0-.19c.14-.4.31-.8.46-1.2a1,1,0,0,0,.07-.21c-.17.06-.18.37-.45.24a1.41,1.41,0,0,1,.68-.74.22.22,0,0,1,.21,0c.05,0,.06.14,0,.21s-.08.26-.14.44c.17-.18.29-.33.44-.46a1.17,1.17,0,0,1,.37-.22c.22-.07.37.07.32.29A4.31,4.31,0,0,1,29,6C28.86,6.26,28.75,6.49,28.64,6.73Z"/><path d="M33.33,6.9a2.19,2.19,0,0,1-.47.29.69.69,0,0,1-.47,0c-.17-.08-.14-.29-.09-.46a1.87,1.87,0,0,1,1.39-1.41c.14,0,.29,0,.4-.12a.25.25,0,0,1,.22,0s0,.13,0,.18c-.12.34-.25.68-.37,1a1.31,1.31,0,0,0-.1.4l.23-.29c.17.08.18.17.07.27s-.2.22-.31.32-.29.22-.44.11S33.34,7,33.33,6.9ZM32.68,7A1.84,1.84,0,0,0,33,6.81a5.39,5.39,0,0,0,.57-.6,2.26,2.26,0,0,0,.22-.47c0-.14,0-.19-.16-.16a1,1,0,0,0-.28.14,2.16,2.16,0,0,0-.66,1A1.4,1.4,0,0,0,32.68,7Z"/><path d="M23.76,11.7a1.62,1.62,0,0,1-.59,1.24,1.17,1.17,0,0,1-.31.17.49.49,0,0,1-.68-.4A1.68,1.68,0,0,1,23,11.07a.49.49,0,0,1,.76.44A1.21,1.21,0,0,1,23.76,11.7Zm-1.25,1s0,.15.09.16a.33.33,0,0,0,.36-.21c.17-.38.33-.77.48-1.16,0-.06,0-.16-.05-.23a.57.57,0,0,0-.24.08A2.47,2.47,0,0,0,22.51,12.71Z"/><path d="M25.44,6.61a1.74,1.74,0,0,1,.69-1.32.61.61,0,0,1,.63-.12.55.55,0,0,1,.29.55,1.62,1.62,0,0,1-.63,1.37.63.63,0,0,1-.69.13C25.48,7.11,25.44,6.87,25.44,6.61Zm1.3-1c0-.05,0-.16-.09-.17s-.14,0-.2.06a.61.61,0,0,0-.17.19,2.44,2.44,0,0,0-.46,1.1c0,.08,0,.17.05.26a.71.71,0,0,0,.28-.1A3,3,0,0,0,26.74,5.57Z"/><path d="M34.85,6.8l.42-.44.16.11a2.07,2.07,0,0,1-.77.73.42.42,0,0,1-.31,0s0-.18,0-.26c.15-.39.32-.78.49-1.17l.1-.27-.36,0c0-.19.08-.27.26-.24s.26,0,.31-.21a1.17,1.17,0,0,1,.14-.35.23.23,0,0,1,.18-.12c.21,0,.25,0,.17.24l-.17.43.38,0c0,.18,0,.28-.19.26s-.38.11-.46.34-.26.62-.39.93Z"/><path d="M30.85,5.85a6,6,0,0,1,.51-.58.47.47,0,0,1,.38-.1c.06,0,.08.21.12.32L32,5.32a.47.47,0,0,1,.44-.19.31.31,0,0,1,.26.33c0,.17-.14.3-.29.26s-.16-.12-.26-.19L32,5.71l-.71,1.34-.05.09c-.06.13-.17.17-.27.1A.23.23,0,0,1,30.91,7q.21-.66.45-1.32a.56.56,0,0,0,0-.1C31.21,5.69,31.18,6,30.85,5.85Z"/><path d="M35.2,12.68c.1-.11.21-.21.3-.33s.18-.14.3.05c-.23.21-.47.43-.72.64s-.26.16-.36,0a.47.47,0,0,1,0-.33c.17-.42.35-.84.53-1.26l0-.13H35c0-.16,0-.27.19-.25s.33-.09.39-.28.07-.19.1-.28a.21.21,0,0,1,.32-.13c.17.05.07.17,0,.26l-.17.43h.37c0,.24,0,.27-.19.25a.37.37,0,0,0-.42.28c-.12.35-.28.68-.42,1Z"/><path d="M35.88,7.3a1.54,1.54,0,0,1-.37-.23.22.22,0,0,1,0-.35c.14-.1.25,0,.34.09s.06.24.22.18.14-.21.12-.33-.1-.33-.14-.49a.93.93,0,0,1,.09-.76.57.57,0,0,1,.67-.26.61.61,0,0,1,.24.28c0,.05,0,.17-.11.21a.31.31,0,0,1-.21,0c-.06,0-.09-.08-.14-.12s-.12-.07-.14,0a.19.19,0,0,0-.08.15,3,3,0,0,0,.1.43c0,.14.08.27.1.41A.71.71,0,0,1,35.88,7.3Z"/><path d="M29.54,12.74c.28,0,.31-.45.66-.35a1.44,1.44,0,0,1-.72.72.41.41,0,0,1-.31,0c-.06,0-.07-.2,0-.28.14-.35.31-.68.47-1l.21-.39-.58.33,0-.06a1.39,1.39,0,0,1,.73-.62.34.34,0,0,1,.28,0c.05,0,.05.19,0,.27-.19.42-.41.83-.61,1.25Z"/><path d="M33.89,12.74c.28,0,.31-.45.67-.35a1.41,1.41,0,0,1-.75.73.36.36,0,0,1-.29,0,.29.29,0,0,1,0-.26c.16-.38.35-.74.53-1.11,0-.1.1-.19.16-.31l-.58.34,0-.06a1.49,1.49,0,0,1,.76-.64.31.31,0,0,1,.25,0,.27.27,0,0,1,0,.25c-.15.34-.31.67-.48,1C34.05,12.46,34,12.6,33.89,12.74Z"/><path d="M36.25,12.29c.17-.71.34-1.43.54-2.15a.39.39,0,0,1,.26-.22c.14,0,.24.06.22.22a1,1,0,0,1-.06.25c-.23.6-.48,1.2-.71,1.8C36.45,12.3,36.4,12.38,36.25,12.29Z"/><path d="M7.16,4.85,7.86,3l.06,0c.1.17.18.35.29.52a2.15,2.15,0,0,0,.29.24L7.2,4.89Z"/><path d="M3.72,6.66l1.4-.17c-.24.25-.46.47-.67.71a.31.31,0,0,1-.46,0,.32.32,0,0,1-.08-.12,2.34,2.34,0,0,1-.09-.24Z"/><path d="M36.24,12.5a.3.3,0,0,1,.28.31.32.32,0,0,1-.31.33.3.3,0,0,1-.29-.32A.32.32,0,0,1,36.24,12.5Z"/><path d="M34.59,10.46a.25.25,0,0,1-.25-.25.28.28,0,0,1,.27-.29.25.25,0,0,1,.27.25A.28.28,0,0,1,34.59,10.46Z"/><path d="M30.3,9.92a.24.24,0,0,1,.23.25.27.27,0,0,1-.3.28.24.24,0,0,1-.25-.26A.29.29,0,0,1,30.3,9.92Z"/><path d="M9.18,7.57A.4.4,0,0,1,8.81,8a.42.42,0,0,1-.4-.43.4.4,0,0,1,.38-.44A.42.42,0,0,1,9.18,7.57Z"/><path d="M9.82,18.15a3.1,3.1,0,0,1,.23-.6.28.28,0,0,1,.53.07,1,1,0,0,1-.08.91.47.47,0,0,1-.33.2c-.09,0-.2-.15-.26-.26a.94.94,0,0,1-.06-.3Z"/><path d="M12.77,8.64l-.4.56-.54-.34-.4.46L10.66,9c.15-.22.29-.36.56-.22.11.06.36-.17.38-.34s0-.32-.21-.4a3,3,0,0,1-.47-.24c-.12,0-.14-.12-.14-.25s.09-.33.31-.35.44-.08.67-.1c.39,0,.57.25.41.61-.1.2-.25.39-.16.65a.35.35,0,0,0,.39.22A1.18,1.18,0,0,1,12.77,8.64Z"/></g><g class="cls-3"><path d="M16.36,10.72a4.8,4.8,0,0,1-1.66,2.16.69.69,0,0,0,.05.13,5.21,5.21,0,0,1,.51,1.89.31.31,0,0,0,.18.3c.14.07.27.14.4.19a.94.94,0,0,0,1.1-.27c.28-.3.55-.61.84-.89A1.21,1.21,0,0,1,19.27,14a1.3,1.3,0,0,1,.49.44,3.56,3.56,0,0,1,.42,3,1.62,1.62,0,0,1-1.59,1.21,22.92,22.92,0,0,1-4-.13h-.08a.88.88,0,0,0-.94.14,3.18,3.18,0,0,1-2.08.48s-.12,0-.17.08a6.25,6.25,0,0,1-.44.45.24.24,0,0,0-.1.29,5.22,5.22,0,0,0,.28.75,2,2,0,0,1-1.43,2.92,1.75,1.75,0,0,1-1.42-.43,2.3,2.3,0,0,1-.87-2.4,29.82,29.82,0,0,1,.89-3.37.33.33,0,0,0,0-.33,3,3,0,0,1-.35-1.25c0-.54-.06-1.08-.1-1.62a.5.5,0,0,0-.14-.28.79.79,0,0,0-.29-.18A5.61,5.61,0,0,1,5.24,12c-.6-.74-1.17-1.5-1.73-2.27a1.52,1.52,0,0,1-.35-1.12,1.12,1.12,0,0,1,1.4-1L5,7.78a2.86,2.86,0,0,1,0-2l-3.87.43L1.14,6C1.58,4.8,2,3.65,2.45,2.48a.31.31,0,0,1,.3-.23l4.16-.5.55-.05L6.29,4.82H6.5A2.26,2.26,0,0,1,7.65,5a.28.28,0,0,0,.22,0,5,5,0,0,1,2-.57,1,1,0,0,0,.68-.23A1.34,1.34,0,0,1,11.83,4a2.13,2.13,0,0,1,1.43,1.25,2.83,2.83,0,0,1,.06.83c0,.06,0,.13,0,.16a3.43,3.43,0,0,1,.54,1.49l.68-.44c-.29-.4-.29-.58,0-.76-.48-1.09-1-2.19-1.45-3.28-.16-.35-.32-.7-.47-1.06a.31.31,0,0,1,0-.25,1.28,1.28,0,0,1,1.82-.48.41.41,0,0,1,.15.21l1.59,3.73.11.24c0-.27.1-.5.37-.61.16.19,0,.4,0,.61.19-.16.37-.33.66-.24-.08.4-.44.47-.7.65,0,.15.1.17.24.15a2.74,2.74,0,0,1,1.67.17,2.62,2.62,0,0,0,.47.09.74.74,0,0,1-.55.12c-.17,0-.32-.1-.49-.15A9,9,0,0,0,17,6.22a3.34,3.34,0,0,1,1.2.65,2.39,2.39,0,0,0,2.37.41l.06,0h0A1.46,1.46,0,0,1,19,7.65a4.17,4.17,0,0,1-1.23-.81,2.9,2.9,0,0,0-.68-.4c-.23-.11-.24-.09-.46.08l.78,1.84,1.74,4.1a.25.25,0,0,1-.07.35,1.42,1.42,0,0,1-1.47.38.45.45,0,0,1-.25-.22C17,12.23,16.71,11.49,16.36,10.72Zm-4.85,8.12.1,0a3,3,0,0,0,1.93-.48A1.52,1.52,0,0,0,14,18a4.56,4.56,0,0,0,1-2.47,5.14,5.14,0,0,0-1.35-3.76.61.61,0,0,0-.26-.15c-.5-.16-1-.28-1.49-.46a2,2,0,0,0-.72,0,.27.27,0,0,0-.2.11,4.92,4.92,0,0,0-.5.61c-.15.22-.28.47-.43.7a1.3,1.3,0,0,1-.23.18,1.1,1.1,0,0,1-.19-.25c0-.13-.06-.29-.25-.35,0,.1.07.18.1.27a3.28,3.28,0,0,1,.18,1.86.69.69,0,0,1-.51.62.76.76,0,0,1-.79-.28c-.08-.1-.18-.18-.29-.3a6.12,6.12,0,0,0,.38,2.54,8.39,8.39,0,0,1,.57-.8.62.62,0,0,1,.92,0,4.71,4.71,0,0,1,1.42,1.74A1.6,1.6,0,0,1,11.51,18.84Zm-.3-8.6,0-.07A1.49,1.49,0,0,1,9.82,10,2.61,2.61,0,0,1,9,7.57a2.2,2.2,0,0,1,3-1.29c.05,0,.14.08.16.07.18-.17.28,0,.36.1a3,3,0,0,1,.21.44,4.53,4.53,0,0,1,.26.6,1.86,1.86,0,0,1-.73,2.23l-.08,0,0,.06a1.8,1.8,0,0,0,.58-.19,2.18,2.18,0,0,0,.77-1.11,2.51,2.51,0,0,0-.89-2.61,13.6,13.6,0,0,0-1.2-.77,2.7,2.7,0,0,0-1.53-.42,4.83,4.83,0,0,0-2,.62c-.05,0-.08.09-.11.14A.87.87,0,0,1,7.13,6,.28.28,0,0,0,7,6.09a5.17,5.17,0,0,0-.48.57,1.06,1.06,0,0,0-.21.85A.72.72,0,0,1,6,8.24c-.13.1-.09.19,0,.28s.51.36.74.57c.6.55,1.18,1.12,1.77,1.67a1.35,1.35,0,0,1,.26-.11l.94-.14a2.26,2.26,0,0,0,.64-.11,1.12,1.12,0,0,1,.5-.1C11,10.29,11.11,10.26,11.21,10.24Zm-.64,12.54-.1-.31c-.05-.17-.08-.35-.14-.53s-.21-.49-.28-.75a1.36,1.36,0,0,1,.63-1.71,1.09,1.09,0,0,0,.43-1.57,4.44,4.44,0,0,0-1.29-1.62c-.31-.25-.5-.25-.73.07a3.16,3.16,0,0,0-.45.85c-.33,1.1-.64,2.2-.93,3.31a3.47,3.47,0,0,0-.11,1.11,1.86,1.86,0,0,0,.73,1.27A1.46,1.46,0,0,0,10.57,22.78Zm-7-14.46,0-.1a5.29,5.29,0,0,0-.13.54,1.36,1.36,0,0,0,.32.86c.58.77,1.15,1.55,1.76,2.3A4.83,4.83,0,0,0,7,13.28a4.63,4.63,0,0,1,1.55,1.18.63.63,0,0,0,.24.16c.34.08.51-.06.58-.46a3.32,3.32,0,0,0-.35-2,8.16,8.16,0,0,0-2-2.5.29.29,0,0,0-.34-.08,2.32,2.32,0,0,1-1.33.07,2.6,2.6,0,0,1-1-.64Zm15.82,6-.1-.09a.89.89,0,0,0-1.13.08c-.34.3-.63.63-.94,1a1.24,1.24,0,0,1-1.43.36,3.31,3.31,0,0,1-.42-.18,13.09,13.09,0,0,1-.37,1.4,12.49,12.49,0,0,1-.65,1.33,21.87,21.87,0,0,0,4.35.19,3.62,3.62,0,0,1-.14-.57,11.64,11.64,0,0,1,0-1.56,8.81,8.81,0,0,1,.28-1.43A.59.59,0,0,1,19.34,14.33ZM15.11,7.22l2.41,5.42c.14.32.27.41.62.34a2.75,2.75,0,0,0,.6-.23c.15-.07.17-.18.1-.35-.8-1.86-1.59-3.73-2.38-5.59a.8.8,0,0,0-.08-.16Zm-2.36,1A1.73,1.73,0,0,0,11,6.33,2,2,0,0,0,9.27,7.49a.72.72,0,0,0-.08.32,2.4,2.4,0,0,0,.58,1.76,1.12,1.12,0,0,0,1,.4,3,3,0,0,0,1.35-.56A1.46,1.46,0,0,0,12.75,8.17Zm3.43-2C15.56,4.68,15,3.24,14.33,1.8a.28.28,0,0,0-.08-.11A1,1,0,0,0,12.89,2a.25.25,0,0,0,0,.19c.11.28.23.55.35.82.49,1.1,1,2.21,1.48,3.32,0,.09.06.18.2.14ZM16,10l-.14.08a1.29,1.29,0,0,1-2-.71l-.12-.34-.06-.16-.53.75.23,0a5.23,5.23,0,0,1,.17.86A3,3,0,0,0,14,11.76c.13.26.34.47.49.72s.17.14.27.06a2.22,2.22,0,0,0,.45-.41c.31-.48.58-1,.89-1.46A.48.48,0,0,0,16,10ZM5,6.67H5c.08.32.15.64.26,1A.81.81,0,0,0,5.49,8,.29.29,0,0,0,6,7.79a1.19,1.19,0,0,0,0-.42c0-.18-.09-.35-.13-.53A.9.9,0,0,1,6.5,5.71a1.45,1.45,0,0,1,.51,0,.47.47,0,0,0,.45-.2c.11-.14.08-.23-.07-.27s-.57-.1-.85-.13a.41.41,0,0,0-.49.35c0,.17-.12.24-.3.25-.45,0-.57.12-.67.56C5.05,6.39,5,6.53,5,6.67ZM10.8,22.49A1.4,1.4,0,0,0,11,21.41c-.14-.5-.34-1-.53-1.52a2.82,2.82,0,0,0-.21.44,2,2,0,0,0,.19,1.24Zm.84-11.68,1.51-.23s.11-.1.1-.14a4.27,4.27,0,0,0-.18-.49,2.85,2.85,0,0,0-1.44.36.18.18,0,0,0-.07.15A2.85,2.85,0,0,0,11.64,10.81Zm1.42-4.89a1.6,1.6,0,0,0-1.17-1.59,1.12,1.12,0,0,0-1.27.18,1.91,1.91,0,0,0,.89.13.83.83,0,0,1,1.12.69C12.68,5.62,12.87,5.73,13.06,5.92Zm-4,5.43,1.43-.22-.13-.41L9,11Zm1.33.08-.69.1a1.48,1.48,0,0,0-.27.1,1.6,1.6,0,0,0,.13.3c.09.12.2.23.32.36ZM12.27,11v.06l1.22.34a2.06,2.06,0,0,0-.16-.41.23.23,0,0,0-.18-.11ZM4.15,4.21a.7.7,0,0,0,.56-.39c0-.15,0-.22-.15-.22A.7.7,0,0,0,4,4C3.93,4.13,4,4.21,4.15,4.21Zm7.2,6.6-.06-.27-.65,0,.11.42Z"/><path d="M29.32,6.63l.44.22c.15.08.31.14.45.23a.48.48,0,0,1,0,.84,2,2,0,0,1-1.74-.08c-.3-.23-.29-.47.05-.65.17-.1.36-.18.5-.25,0-.15-.1-.3-.05-.38s.22-.15.34-.22a1,1,0,0,1,.48-1.52,1,1,0,0,1,.29,0c.2,0,.4.07.6.11.06.23,0,.25-.23.26a1.22,1.22,0,0,1-1.1,1.37Zm.05,1.25a5.52,5.52,0,0,0,.54-.12c.23-.08.26-.24.06-.37a5,5,0,0,0-.66-.31.17.17,0,0,0-.12,0,2.34,2.34,0,0,0-.44.24c-.19.12-.18.27,0,.36A3.42,3.42,0,0,0,29.37,7.88Zm.76-2.61c-.08-.11-.12-.22-.16-.22a.29.29,0,0,0-.25.09,8.29,8.29,0,0,0-.31.83c0,.06,0,.19.09.2a.26.26,0,0,0,.23-.07C29.88,5.83,30,5.55,30.13,5.27Z"/><path d="M20.27,9.76l.58,1.2L22,9.74a2.08,2.08,0,0,1-.36-.05s-.08-.06-.13-.09.08-.12.13-.12h1.1c0,.14,0,.21-.13.25a1,1,0,0,0-.39.23c-.4.35-.78.72-1.15,1.09a.48.48,0,0,0-.14.25c-.09.32-.16.64-.23,1s0,.25.2.29.27-.07.26.11-.18.1-.27.1h-1.3c0-.16,0-.22.19-.22a.41.41,0,0,0,.46-.39c0-.26.12-.51.17-.76a.5.5,0,0,0,0-.3c-.18-.37-.37-.72-.54-1.08a.45.45,0,0,0-.42-.31c-.06,0-.11-.09-.17-.13s.13-.1.19-.1c.33,0,.66,0,1,0,.07,0,.13.06.19.1a1,1,0,0,1-.16.12A.81.81,0,0,1,20.27,9.76Z"/><path d="M25.05,4.34c-.08-.5,0-.5-.48-.5a1.94,1.94,0,0,0-1.43.75,1.85,1.85,0,0,0-.49,1.12,1,1,0,0,0,1.9.52c.06-.12.14-.18.28-.05-.06.17-.11.36-.18.54a.27.27,0,0,1-.17.13,3.14,3.14,0,0,1-1.43.05,1.25,1.25,0,0,1-.84-1.75,2.61,2.61,0,0,1,2.33-1.56,4.75,4.75,0,0,1,.65,0c.12,0,.16.06.13.17a2.46,2.46,0,0,1-.09.39C25.21,4.23,25.13,4.27,25.05,4.34Z"/><path d="M28.41,12.26l.2-.27c.16.11.18.2.07.31s-.36.34-.55.49a.26.26,0,0,1-.23,0s0-.14,0-.21a1.48,1.48,0,0,1,.05-.24,2.5,2.5,0,0,1-.48.36.64.64,0,0,1-.44.07.51.51,0,0,1-.15-.4,2,2,0,0,1,1-1.55,1.92,1.92,0,0,1,.6-.1c.08-.25.18-.58.27-.91,0,0,0-.1-.08-.12a.54.54,0,0,0-.19-.07c0-.14,0-.19.18-.19s.39,0,.62,0l-.88,2.81Zm-1.16.05s0,.12.08.12a.25.25,0,0,0,.19,0,1.85,1.85,0,0,0,.76-1.18.21.21,0,0,0-.06-.18s-.12,0-.17,0a.94.94,0,0,0-.28.24c-.17.26-.31.54-.46.81A1.67,1.67,0,0,0,27.25,12.31Z"/><path d="M31.57,10.74c.07-.23.14-.51.24-.79s0-.25-.15-.28a.23.23,0,0,1-.13-.1.66.66,0,0,1,.2-.11,6,6,0,0,1,.64-.05l-.9,2.86,0,0,.23-.33c.16.13.17.23.06.33a6,6,0,0,1-.53.48c-.05.05-.17,0-.25,0a1.94,1.94,0,0,1,0-.24c0-.07,0-.14.05-.23a3.89,3.89,0,0,1-.5.38.56.56,0,0,1-.43.06.47.47,0,0,1-.14-.38,1.92,1.92,0,0,1,1-1.57A1.93,1.93,0,0,1,31.57,10.74Zm-1.19,1.58s.05.11.08.12a.26.26,0,0,0,.19,0,1.8,1.8,0,0,0,.74-1.11.65.65,0,0,0,0-.24.93.93,0,0,0-.24,0,.58.58,0,0,0-.23.21c-.16.26-.31.53-.46.81A2.18,2.18,0,0,0,30.38,12.32Z"/><path d="M24.14,11.2c-.19,0-.22.34-.48.17a1.64,1.64,0,0,1,.77-.7.25.25,0,0,1,.21,0,.36.36,0,0,1,0,.25c-.16.36-.34.72-.51,1.07a.63.63,0,0,0-.08.23,4.41,4.41,0,0,0,1.19-1.42c0-.07.11-.16.18-.17s.24.05.18.2c-.17.45-.36.9-.55,1.38.14-.08.2-.3.43-.11-.2.21-.39.42-.6.61a.27.27,0,0,1-.26,0,.28.28,0,0,1-.06-.24,5.71,5.71,0,0,1,.22-.6c-.23.22-.42.4-.62.57a1.76,1.76,0,0,1-.4.27c-.07,0-.19,0-.23,0a.24.24,0,0,1,0-.23c.14-.31.29-.62.44-.93C24,11.47,24.07,11.34,24.14,11.2Z"/><path d="M28.3,6.39c.26-.23.26-.23.45-.19a1.7,1.7,0,0,1-.59.68,1.2,1.2,0,0,1-.34,0,1.17,1.17,0,0,1,0-.32c.17-.41.35-.81.53-1.22a.43.43,0,0,0,.05-.24c-.07.06-.15.11-.21.17a4.8,4.8,0,0,0-1,1.39c0,.07-.06.16-.11.19a.36.36,0,0,1-.25,0s-.06-.13,0-.19c.14-.4.31-.8.46-1.2a1,1,0,0,0,.07-.21c-.17.06-.18.37-.45.24a1.41,1.41,0,0,1,.68-.74.22.22,0,0,1,.21,0c.05,0,.06.14,0,.2a4.39,4.39,0,0,1-.14.45c.17-.18.29-.33.44-.46a1.17,1.17,0,0,1,.37-.22c.22-.07.37.07.32.29a6.13,6.13,0,0,1-.22.6C28.52,5.92,28.41,6.15,28.3,6.39Z"/><path d="M33,6.56a2.19,2.19,0,0,1-.47.29.69.69,0,0,1-.47,0c-.17-.08-.14-.29-.09-.46A1.87,1.87,0,0,1,33.35,5c.14,0,.29,0,.4-.12a.25.25,0,0,1,.22,0s0,.13,0,.18c-.12.34-.25.68-.37,1a1.31,1.31,0,0,0-.1.4l.23-.29c.17.08.18.17.07.27s-.2.22-.31.32-.29.22-.44.11S33,6.66,33,6.56Zm-.65.07a1.33,1.33,0,0,0,.34-.17,4.55,4.55,0,0,0,.57-.59,2.26,2.26,0,0,0,.22-.47c.05-.14,0-.19-.16-.16a1,1,0,0,0-.28.14,2.08,2.08,0,0,0-.66,1A1.4,1.4,0,0,0,32.34,6.63Z"/><path d="M23.42,11.36a1.62,1.62,0,0,1-.59,1.24,1.17,1.17,0,0,1-.31.17.49.49,0,0,1-.68-.4,1.68,1.68,0,0,1,.81-1.64.49.49,0,0,1,.76.44A1.21,1.21,0,0,1,23.42,11.36Zm-1.25,1c0,.05,0,.15.09.16a.33.33,0,0,0,.36-.21c.17-.38.33-.77.48-1.16,0-.07,0-.16-.05-.23a.57.57,0,0,0-.24.08A2.47,2.47,0,0,0,22.17,12.37Z"/><path d="M25.1,6.27A1.74,1.74,0,0,1,25.79,5a.61.61,0,0,1,.63-.12.56.56,0,0,1,.29.55,1.62,1.62,0,0,1-.63,1.37.63.63,0,0,1-.69.13C25.14,6.77,25.1,6.52,25.1,6.27Zm1.3-1c0-.05,0-.16-.09-.17s-.14,0-.2.06a.61.61,0,0,0-.17.19,2.44,2.44,0,0,0-.46,1.1c0,.08,0,.17.05.26a.71.71,0,0,0,.28-.1A3,3,0,0,0,26.4,5.23Z"/><path d="M34.51,6.46,34.93,6l.16.11a2.07,2.07,0,0,1-.77.73.42.42,0,0,1-.31,0s0-.18,0-.26c.15-.39.32-.78.49-1.17l.1-.27-.36,0c0-.19.08-.27.26-.24s.26,0,.31-.21A1.17,1.17,0,0,1,35,4.32a.27.27,0,0,1,.18-.13c.21,0,.25,0,.17.25l-.17.43.38,0c.05.18,0,.28-.19.26s-.38.11-.46.34-.26.62-.39.93Z"/><path d="M30.51,5.51A6,6,0,0,1,31,4.93a.47.47,0,0,1,.38-.1c.06,0,.08.21.12.32L31.65,5a.47.47,0,0,1,.44-.19.31.31,0,0,1,.26.33c0,.17-.14.3-.29.26s-.16-.12-.26-.19l-.14.18L31,6.71l-.05.09c-.06.13-.17.17-.27.1a.23.23,0,0,1-.06-.24Q30.78,6,31,5.34a.84.84,0,0,1,0-.1C30.87,5.35,30.84,5.63,30.51,5.51Z"/><path d="M34.86,12.34c.1-.11.21-.21.3-.33s.18-.14.3.05c-.23.21-.47.43-.72.64s-.26.16-.36,0a.47.47,0,0,1,0-.33c.17-.42.35-.84.53-1.26L35,11h-.34c0-.16,0-.27.19-.25s.33-.09.39-.28.07-.19.1-.28.19-.18.32-.13.07.17,0,.26l-.17.43h.37c0,.24,0,.27-.19.25a.37.37,0,0,0-.42.28c-.12.35-.28.68-.42,1Z"/><path d="M35.54,7a1.54,1.54,0,0,1-.37-.23.22.22,0,0,1,0-.35c.14-.1.25,0,.34.09s.06.24.22.17.14-.2.12-.32-.1-.33-.14-.49a.93.93,0,0,1,.09-.76.57.57,0,0,1,.67-.26.61.61,0,0,1,.24.28s0,.17-.11.21a.31.31,0,0,1-.21,0c-.06,0-.09-.08-.14-.12s-.12-.07-.14,0a.19.19,0,0,0-.08.15,3,3,0,0,0,.1.43c0,.14.08.27.1.41A.71.71,0,0,1,35.54,7Z"/><path d="M29.2,12.4c.28,0,.31-.45.66-.35a1.39,1.39,0,0,1-.72.71.37.37,0,0,1-.31,0c-.06,0-.07-.2,0-.28.14-.35.31-.68.47-1l.21-.39-.58.33,0-.06a1.39,1.39,0,0,1,.73-.62.34.34,0,0,1,.28,0c.05,0,.05.19,0,.27-.19.42-.41.83-.61,1.25Z"/><path d="M33.55,12.4c.28,0,.31-.45.67-.35a1.44,1.44,0,0,1-.75.73.36.36,0,0,1-.29,0,.29.29,0,0,1,0-.26c.16-.38.35-.74.53-1.11,0-.1.1-.19.16-.31l-.58.34,0-.06a1.49,1.49,0,0,1,.76-.64.31.31,0,0,1,.25,0,.27.27,0,0,1,0,.25c-.15.34-.31.67-.48,1C33.71,12.12,33.63,12.26,33.55,12.4Z"/><path d="M35.91,12c.17-.71.34-1.43.54-2.15a.39.39,0,0,1,.26-.22c.14,0,.24.06.22.22a1,1,0,0,1-.06.25c-.23.6-.48,1.2-.71,1.8C36.11,12,36.06,12,35.91,12Z"/><path d="M6.82,4.51l.7-1.86.06,0c.09.17.18.35.29.52a2.74,2.74,0,0,0,.28.24L6.86,4.55Z"/><path d="M3.38,6.32l1.39-.17c-.23.25-.45.47-.66.71a.31.31,0,0,1-.46,0,.32.32,0,0,1-.08-.12,2.34,2.34,0,0,1-.09-.24Z"/><path d="M35.9,12.16a.3.3,0,0,1,.28.31.32.32,0,0,1-.31.33.3.3,0,0,1-.29-.32A.32.32,0,0,1,35.9,12.16Z"/><path d="M34.25,10.12A.25.25,0,0,1,34,9.87a.28.28,0,0,1,.27-.29.25.25,0,0,1,.27.25A.29.29,0,0,1,34.25,10.12Z"/><path d="M30,9.58a.24.24,0,0,1,.23.25.27.27,0,0,1-.3.28.24.24,0,0,1-.25-.26A.28.28,0,0,1,30,9.58Z"/><path d="M8.84,7.23a.4.4,0,0,1-.37.43.42.42,0,0,1-.4-.43.4.4,0,0,1,.38-.44A.42.42,0,0,1,8.84,7.23Z"/><path d="M9.48,17.81a3.1,3.1,0,0,1,.23-.6.28.28,0,0,1,.53.07,1,1,0,0,1-.08.91.47.47,0,0,1-.33.2c-.09,0-.2-.15-.26-.26a.94.94,0,0,1-.06-.3Z"/><path d="M12.43,8.3l-.4.56-.54-.34-.4.46-.77-.34c.15-.22.29-.36.56-.22.11.06.36-.17.38-.34s0-.32-.21-.4a3,3,0,0,1-.47-.24c-.12-.05-.14-.12-.14-.25s.09-.33.31-.35.44-.08.67-.1c.39,0,.57.25.41.61-.1.2-.25.39-.16.65a.35.35,0,0,0,.39.22A1.18,1.18,0,0,1,12.43,8.3Z"/></g><path class="cls-4" d="M16.56,10.92a4.85,4.85,0,0,1-1.66,2.16l0,.13a5,5,0,0,1,.5,1.89.34.34,0,0,0,.19.3c.14.07.27.14.4.19a.94.94,0,0,0,1.1-.27c.28-.3.54-.61.84-.89a1.21,1.21,0,0,1,1.49-.27,1.3,1.3,0,0,1,.49.44,3.55,3.55,0,0,1,.41,3,1.61,1.61,0,0,1-1.58,1.21,25.06,25.06,0,0,1-4-.13h-.08a.9.9,0,0,0-1,.14,3.15,3.15,0,0,1-2.08.48c-.05,0-.12,0-.16.08a6.25,6.25,0,0,1-.44.45.23.23,0,0,0-.1.29,5.22,5.22,0,0,0,.28.75,2,2,0,0,1-1.43,2.92,1.79,1.79,0,0,1-1.42-.43A2.3,2.3,0,0,1,7.57,21a29.82,29.82,0,0,1,.89-3.37.33.33,0,0,0,0-.33A2.76,2.76,0,0,1,8.07,16C8,15.5,8,15,8,14.41a.59.59,0,0,0-.14-.27A.79.79,0,0,0,7.54,14a5.61,5.61,0,0,1-2.1-1.73c-.6-.74-1.17-1.51-1.74-2.27a1.63,1.63,0,0,1-.35-1.13,1.14,1.14,0,0,1,1.41-1L5.18,8a2.78,2.78,0,0,1,0-2l-3.87.44.07-.25c.44-1.16.88-2.32,1.3-3.48A.33.33,0,0,1,3,2.45L7.1,2l.56-.06L6.49,5A1.46,1.46,0,0,0,6.7,5a2.28,2.28,0,0,1,1.15.22.28.28,0,0,0,.22,0A5,5,0,0,1,10,4.65a1.08,1.08,0,0,0,.69-.23A1.34,1.34,0,0,1,12,4.22a2.13,2.13,0,0,1,1.43,1.25,3.22,3.22,0,0,1,.06.83c0,.06,0,.12,0,.16A3.27,3.27,0,0,1,14.07,8l.67-.44c-.28-.4-.29-.58,0-.76L13.26,3.47c-.16-.35-.32-.71-.47-1.06a.31.31,0,0,1,0-.25,1.29,1.29,0,0,1,1.82-.49.48.48,0,0,1,.15.22l1.59,3.73.11.24c.05-.27.1-.5.36-.61.16.19,0,.4,0,.61.19-.17.37-.33.66-.24-.08.39-.44.47-.7.65,0,.15.1.17.24.15a2.74,2.74,0,0,1,1.67.17,2,2,0,0,0,.47.08.7.7,0,0,1-.55.13c-.17,0-.33-.1-.49-.15a9,9,0,0,0-.93-.23,3.48,3.48,0,0,1,1.2.64,2.37,2.37,0,0,0,2.37.42l.05,0h0a1.48,1.48,0,0,1-1.66.38A4.17,4.17,0,0,1,18,7a2.93,2.93,0,0,0-.68-.41c-.24-.1-.24-.08-.46.09.26.61.51,1.23.78,1.84l1.74,4.1a.26.26,0,0,1-.07.35,1.42,1.42,0,0,1-1.47.38.45.45,0,0,1-.25-.22C17.23,12.43,16.91,11.69,16.56,10.92ZM11.71,19l.1,0a3,3,0,0,0,1.93-.49,1.48,1.48,0,0,0,.47-.35,4.58,4.58,0,0,0,1-2.46A5.16,5.16,0,0,0,13.83,12a.61.61,0,0,0-.26-.15c-.5-.16-1-.28-1.5-.46a1.71,1.71,0,0,0-.71,0,.3.3,0,0,0-.2.1,5.9,5.9,0,0,0-.5.62c-.16.22-.28.47-.43.7A1.5,1.5,0,0,1,10,13a1.44,1.44,0,0,1-.18-.25c-.05-.14-.06-.29-.26-.35,0,.1.08.18.11.27a3.28,3.28,0,0,1,.18,1.86.69.69,0,0,1-.51.62.76.76,0,0,1-.79-.28,4,4,0,0,0-.29-.3,6.12,6.12,0,0,0,.38,2.54,8.39,8.39,0,0,1,.57-.8.62.62,0,0,1,.92,0A4.68,4.68,0,0,1,11.54,18,1.64,1.64,0,0,1,11.71,19Zm-.3-8.6,0-.07A1.49,1.49,0,0,1,10,10.18a2.61,2.61,0,0,1-.87-2.41,2.19,2.19,0,0,1,3-1.29c.06,0,.15.08.17.06.18-.16.28,0,.36.11a3,3,0,0,1,.21.44c.08.2.2.39.26.59a1.87,1.87,0,0,1-.73,2.24l-.08,0,0,.06a1.8,1.8,0,0,0,.58-.19,2.18,2.18,0,0,0,.77-1.11,2.54,2.54,0,0,0-.89-2.61c-.37-.29-.8-.52-1.21-.78a2.72,2.72,0,0,0-1.52-.41,4.64,4.64,0,0,0-2,.62S8,5.62,8,5.67a.87.87,0,0,1-.67.53.37.37,0,0,0-.16.09,6.33,6.33,0,0,0-.47.56,1.09,1.09,0,0,0-.21.86.7.7,0,0,1-.24.72c-.13.11-.09.2,0,.29A8.36,8.36,0,0,1,7,9.29c.61.55,1.19,1.12,1.77,1.67A1.16,1.16,0,0,1,9,10.85c.31-.06.62-.09.94-.14a2.13,2.13,0,0,0,.63-.11,1,1,0,0,1,.51-.1C11.22,10.49,11.31,10.46,11.41,10.44ZM10.77,23l-.1-.3-.14-.53c-.09-.25-.21-.49-.28-.75a1.37,1.37,0,0,1,.63-1.72,1.08,1.08,0,0,0,.43-1.56A4.44,4.44,0,0,0,10,16.49c-.31-.25-.5-.25-.73.07a3.16,3.16,0,0,0-.45.85c-.34,1.1-.64,2.2-.93,3.31a3.47,3.47,0,0,0-.11,1.11,1.86,1.86,0,0,0,.73,1.27A1.45,1.45,0,0,0,10.77,23Zm-7-14.45,0-.1A3.53,3.53,0,0,0,3.62,9a1.31,1.31,0,0,0,.32.86c.58.77,1.15,1.55,1.76,2.3a4.83,4.83,0,0,0,1.52,1.36,4.6,4.6,0,0,1,1.55,1.18.47.47,0,0,0,.24.15c.34.09.51-.05.58-.45a3.25,3.25,0,0,0-.36-2,8.13,8.13,0,0,0-2-2.51.31.31,0,0,0-.34-.07,2.32,2.32,0,0,1-1.33.07,2.63,2.63,0,0,1-1-.64C4.26,9,4,8.74,3.72,8.52Zm15.82,6-.1-.09a.91.91,0,0,0-1.14.08c-.33.3-.63.63-.93,1a1.23,1.23,0,0,1-1.43.37,4.4,4.4,0,0,1-.42-.18,13.74,13.74,0,0,1-.37,1.4,13.5,13.5,0,0,1-.65,1.33,21.87,21.87,0,0,0,4.35.19A3.73,3.73,0,0,1,18.7,18a13.71,13.71,0,0,1,0-1.57A8.91,8.91,0,0,1,19,15,.59.59,0,0,1,19.54,14.53ZM15.31,7.42l2.41,5.42c.14.32.27.41.62.34a3,3,0,0,0,.6-.23c.15-.07.17-.18.1-.35-.8-1.86-1.59-3.73-2.38-5.59,0-.06-.06-.11-.08-.16ZM13,8.36a1.73,1.73,0,0,0-1.8-1.83A2,2,0,0,0,9.47,7.69.72.72,0,0,0,9.39,8,2.4,2.4,0,0,0,10,9.77a1.11,1.11,0,0,0,1,.39,2.79,2.79,0,0,0,1.35-.56A1.43,1.43,0,0,0,13,8.36Zm3.43-2C15.75,4.88,15.14,3.44,14.53,2a.44.44,0,0,0-.08-.11,1,1,0,0,0-1.36.33.25.25,0,0,0,0,.19c.11.27.23.54.35.81l1.47,3.32c0,.1.06.19.21.15C15.53,6.57,15.94,6.47,16.38,6.35Zm-.15,3.88-.14.08a1.29,1.29,0,0,1-2-.72c-.05-.11-.08-.22-.12-.33l-.06-.16-.53.75.23,0a5.23,5.23,0,0,1,.17.86A3,3,0,0,0,14.17,12a8.31,8.31,0,0,0,.49.72c.08.13.17.14.27.06a2.22,2.22,0,0,0,.45-.41c.31-.48.58-1,.89-1.46A.48.48,0,0,0,16.23,10.23Zm-11-3.37,0,0c.08.32.15.64.26,1a.88.88,0,0,0,.24.34A.29.29,0,0,0,6.2,8a1.48,1.48,0,0,0,0-.42c0-.18-.09-.35-.13-.53A.9.9,0,0,1,6.7,5.91a1.68,1.68,0,0,1,.5,0,.48.48,0,0,0,.46-.19c.11-.14.08-.24-.07-.27a6.24,6.24,0,0,0-.85-.13.4.4,0,0,0-.49.35.27.27,0,0,1-.3.25c-.45,0-.57.12-.67.56C5.25,6.58,5.24,6.73,5.22,6.86ZM11,22.69a1.37,1.37,0,0,0,.22-1.09c-.13-.49-.33-1-.53-1.51a3.9,3.9,0,0,0-.2.44,2,2,0,0,0,.19,1.24C10.78,22.07,10.88,22.38,11,22.69ZM11.84,11l1.51-.22s.11-.1.1-.14a4.27,4.27,0,0,0-.18-.49,2.89,2.89,0,0,0-1.45.36.16.16,0,0,0-.06.15A2.37,2.37,0,0,0,11.84,11Zm1.42-4.88a1.6,1.6,0,0,0-1.17-1.59,1.1,1.1,0,0,0-1.27.18,2.05,2.05,0,0,0,.89.13.83.83,0,0,1,1.12.69C12.87,5.82,13.06,5.93,13.26,6.12Zm-4,5.43,1.43-.22-.13-.41-1.38.27Zm1.33.08-.69.1-.27.09a1.07,1.07,0,0,0,.13.31,3.32,3.32,0,0,0,.32.36Zm1.87-.44v.06l1.22.34a1.84,1.84,0,0,0-.16-.41.21.21,0,0,0-.18-.11C13.05,11.09,12.76,11.15,12.47,11.19ZM4.35,4.41A.73.73,0,0,0,4.91,4c0-.14,0-.21-.16-.21a.7.7,0,0,0-.56.38C4.13,4.33,4.19,4.41,4.35,4.41Zm7.2,6.6-.06-.27-.65,0,.11.42Z"/><path class="cls-4" d="M29.52,6.83l.44.22c.15.08.31.14.45.23a.48.48,0,0,1,0,.84A2,2,0,0,1,28.63,8c-.31-.23-.29-.47,0-.65l.5-.25c0-.15-.09-.3-.05-.38s.23-.15.35-.22A1,1,0,0,1,30,5a.57.57,0,0,1,.29,0c.2,0,.39.07.6.11.06.23,0,.25-.23.26a1.22,1.22,0,0,1-1.1,1.37Zm.05,1.25A5.52,5.52,0,0,0,30.11,8c.22-.08.26-.24.06-.37a5,5,0,0,0-.66-.31s-.09,0-.12,0a3.81,3.81,0,0,0-.45.23c-.18.13-.17.28,0,.37A3.42,3.42,0,0,0,29.57,8.08Zm.75-2.61c-.07-.11-.11-.22-.16-.22a.28.28,0,0,0-.24.09,8.29,8.29,0,0,0-.31.83s0,.19.09.2a.26.26,0,0,0,.23-.07C30.08,6,30.19,5.75,30.32,5.47Z"/><path class="cls-4" d="M20.47,10l.57,1.2,1.19-1.22a3.48,3.48,0,0,1-.36,0c-.05,0-.09-.06-.13-.09s.08-.12.13-.12H23c0,.13,0,.21-.13.25a1,1,0,0,0-.4.22c-.39.36-.77.73-1.15,1.1a.68.68,0,0,0-.14.25c-.08.32-.15.64-.22,1s0,.25.2.28.26-.06.26.12-.18.1-.27.1c-.43,0-.86,0-1.3,0,0-.15,0-.21.19-.21a.41.41,0,0,0,.46-.39c0-.26.12-.51.17-.77a.63.63,0,0,0,0-.3c-.18-.36-.37-.71-.54-1.07a.45.45,0,0,0-.43-.31c-.05,0-.11-.09-.16-.13s.12-.1.19-.1c.33,0,.66,0,1,0,.06,0,.13.06.19.1a1,1,0,0,1-.16.12A.81.81,0,0,1,20.47,10Z"/><path class="cls-4" d="M25.24,4.54c-.07-.51,0-.5-.47-.5a1.91,1.91,0,0,0-1.43.75,1.79,1.79,0,0,0-.49,1.12,1,1,0,0,0,1.9.52c.06-.12.14-.18.28-.06-.06.18-.11.37-.19.55a.26.26,0,0,1-.17.13,3.24,3.24,0,0,1-1.42,0,1.25,1.25,0,0,1-.84-1.75,2.64,2.64,0,0,1,2.32-1.57c.22,0,.44,0,.66,0s.16.06.13.18-.05.27-.09.39S25.33,4.46,25.24,4.54Z"/><path class="cls-4" d="M28.61,12.46l.2-.28c.16.11.18.21.07.32s-.36.34-.55.49a.26.26,0,0,1-.23,0s0-.13,0-.21a1.64,1.64,0,0,1,.05-.23,4.61,4.61,0,0,1-.48.36.64.64,0,0,1-.44.07.52.52,0,0,1-.15-.4A2,2,0,0,1,28,11a2,2,0,0,1,.6-.09c.07-.25.18-.58.27-.91,0,0,0-.1-.08-.12a.62.62,0,0,0-.19-.07c0-.14,0-.19.18-.19s.38,0,.62,0l-.88,2.81Zm-1.16,0s0,.12.07.12a.34.34,0,0,0,.2,0,1.85,1.85,0,0,0,.76-1.18.25.25,0,0,0-.06-.18s-.12,0-.17,0a.94.94,0,0,0-.28.24c-.17.26-.31.54-.46.81A.8.8,0,0,0,27.45,12.51Z"/><path class="cls-4" d="M31.77,10.94c.06-.23.14-.52.24-.79s0-.26-.15-.28-.07,0-.13-.1a.66.66,0,0,1,.2-.11,6,6,0,0,1,.64-.05l-.9,2.85,0,0,.22-.33c.17.13.18.23.07.33s-.34.33-.53.48-.17,0-.25,0a1.94,1.94,0,0,1,0-.24,1.31,1.31,0,0,1,.05-.22,3.89,3.89,0,0,1-.5.38.61.61,0,0,1-.43.06.47.47,0,0,1-.14-.38,1.92,1.92,0,0,1,1-1.57A1.74,1.74,0,0,1,31.77,10.94Zm-1.19,1.58s.05.11.08.12a.26.26,0,0,0,.19-.05,1.8,1.8,0,0,0,.74-1.12.62.62,0,0,0,0-.23.64.64,0,0,0-.24,0,.58.58,0,0,0-.23.21c-.16.26-.31.53-.46.8A1.09,1.09,0,0,0,30.58,12.52Z"/><path class="cls-4" d="M24.34,11.4c-.19,0-.22.33-.48.17a1.59,1.59,0,0,1,.77-.7c.06,0,.18,0,.2,0a.31.31,0,0,1,0,.25c-.16.36-.34.71-.51,1.07a.92.92,0,0,0-.09.23A4.32,4.32,0,0,0,25.45,11a.39.39,0,0,1,.18-.18c.17,0,.24.06.18.21l-.55,1.38c.14-.08.2-.3.43-.11-.2.2-.39.42-.6.61a.32.32,0,0,1-.27,0c-.05,0-.07-.17-.05-.24a5.71,5.71,0,0,1,.22-.6c-.23.21-.42.4-.62.57A2.42,2.42,0,0,1,24,13a.28.28,0,0,1-.22,0,.24.24,0,0,1,0-.23c.14-.31.29-.62.44-.93Z"/><path class="cls-4" d="M28.5,6.59c.26-.24.26-.24.44-.19a1.52,1.52,0,0,1-.58.67.76.76,0,0,1-.34,0,1.09,1.09,0,0,1,0-.31c.17-.41.35-.81.53-1.22a.45.45,0,0,0,.05-.24c-.07.06-.15.11-.21.17a4.69,4.69,0,0,0-1,1.38c0,.07-.06.17-.11.2a.45.45,0,0,1-.26,0S27,7,27,6.92c.15-.41.31-.8.47-1.2l.07-.21c-.17.06-.18.37-.45.24A1.47,1.47,0,0,1,27.79,5,.3.3,0,0,1,28,5a.22.22,0,0,1,0,.21,3,3,0,0,1-.15.45c.18-.18.3-.33.45-.46A1,1,0,0,1,28.71,5c.22-.08.37.07.31.29a4.76,4.76,0,0,1-.21.6C28.72,6.12,28.6,6.35,28.5,6.59Z"/><path class="cls-4" d="M33.18,6.76a2.27,2.27,0,0,1-.46.29.69.69,0,0,1-.47,0c-.17-.09-.14-.3-.09-.46a1.88,1.88,0,0,1,1.39-1.42c.13,0,.29,0,.4-.11s.16,0,.21,0,0,.13,0,.18c-.12.34-.25.67-.37,1a1.24,1.24,0,0,0-.1.4l.23-.29c.17.08.18.16.07.27s-.2.22-.31.32-.29.22-.44.11S33.2,6.86,33.18,6.76Zm-.64.06a1.36,1.36,0,0,0,.34-.16,4.45,4.45,0,0,0,.56-.59,1.68,1.68,0,0,0,.22-.47c.06-.14,0-.19-.15-.16a.92.92,0,0,0-.28.14,2.08,2.08,0,0,0-.66,1A1.37,1.37,0,0,0,32.54,6.82Z"/><path class="cls-4" d="M23.61,11.56A1.54,1.54,0,0,1,23,12.79a1,1,0,0,1-.31.18.49.49,0,0,1-.68-.4,1.67,1.67,0,0,1,.81-1.64.49.49,0,0,1,.76.44A1.2,1.2,0,0,1,23.61,11.56Zm-1.25,1s.05.15.09.16a.32.32,0,0,0,.23-.06.29.29,0,0,0,.14-.15c.17-.39.33-.77.48-1.16,0-.07,0-.16-.05-.24s-.19,0-.24.09A2.52,2.52,0,0,0,22.36,12.57Z"/><path class="cls-4" d="M25.3,6.47A1.71,1.71,0,0,1,26,5.15.57.57,0,0,1,26.62,5a.54.54,0,0,1,.28.55A1.62,1.62,0,0,1,26.28,7a.63.63,0,0,1-.69.13A.59.59,0,0,1,25.3,6.47Zm1.3-1c0-.06,0-.16-.09-.17a.26.26,0,0,0-.2.06.81.81,0,0,0-.18.19,2.7,2.7,0,0,0-.46,1.09.88.88,0,0,0,.06.27c.09,0,.22,0,.27-.11A2.84,2.84,0,0,0,26.6,5.43Z"/><path class="cls-4" d="M34.71,6.66l.42-.44.16.11a2.07,2.07,0,0,1-.77.73.42.42,0,0,1-.31,0s0-.18,0-.26c.15-.39.32-.78.49-1.17l.1-.27-.36,0c0-.19.08-.27.26-.24S35,5,35,4.87a2.13,2.13,0,0,1,.14-.35.31.31,0,0,1,.19-.13c.21,0,.25,0,.17.24s-.11.28-.18.44l.39,0c0,.18,0,.28-.19.26s-.38.11-.46.34-.26.62-.39.93Z"/><path class="cls-4" d="M30.7,5.71c.19-.21.34-.42.52-.58A.47.47,0,0,1,31.6,5c.06,0,.08.21.11.32l.13-.17A.49.49,0,0,1,32.29,5a.31.31,0,0,1,.26.33c0,.17-.14.3-.29.26s-.16-.12-.26-.2a1.89,1.89,0,0,0-.14.19l-.71,1.34,0,.09a.18.18,0,0,1-.28.1.25.25,0,0,1-.05-.24c.14-.45.29-.88.44-1.32a.41.41,0,0,0,0-.1C31.07,5.55,31,5.83,30.7,5.71Z"/><path class="cls-4" d="M35.06,12.53a3.06,3.06,0,0,0,.3-.32c.1-.12.18-.15.3,0-.23.21-.47.43-.73.64-.1.08-.25.16-.35,0s0-.22,0-.32c.17-.43.35-.84.53-1.26l0-.13-.35,0c0-.15,0-.27.2-.24s.33-.09.39-.29l.1-.27c0-.18.19-.18.32-.14s.07.18,0,.27-.11.27-.18.42h.38c0,.25,0,.28-.19.26a.37.37,0,0,0-.42.28c-.12.35-.28.68-.42,1Z"/><path class="cls-4" d="M35.74,7.16a2,2,0,0,1-.38-.23.22.22,0,0,1,0-.35c.14-.1.25,0,.34.09s.06.24.22.17.14-.2.11-.32S36,6.19,35.93,6A1,1,0,0,1,36,5.27.59.59,0,0,1,36.69,5a.54.54,0,0,1,.23.28s0,.17-.1.21a.31.31,0,0,1-.21,0c-.06,0-.09-.09-.15-.12s-.11-.07-.13,0a.19.19,0,0,0-.08.15,3,3,0,0,0,.1.43c0,.14.08.27.1.41A.71.71,0,0,1,35.74,7.16Z"/><path class="cls-4" d="M29.4,12.6c.28,0,.3-.46.66-.35a1.4,1.4,0,0,1-.73.71.37.37,0,0,1-.31,0,.32.32,0,0,1,0-.29c.14-.34.31-.67.47-1,.06-.13.13-.25.21-.4l-.58.34,0-.06a1.41,1.41,0,0,1,.72-.62.36.36,0,0,1,.29,0c.05,0,.05.19,0,.26-.2.43-.41.84-.61,1.25Z"/><path class="cls-4" d="M33.75,12.6c.28,0,.31-.45.66-.35a1.36,1.36,0,0,1-.75.72.31.31,0,0,1-.28,0c-.06,0-.07-.19,0-.27.16-.37.35-.73.52-1.1l.17-.32-.58.35,0-.06a1.41,1.41,0,0,1,.76-.64.31.31,0,0,1,.25,0,.3.3,0,0,1,0,.25c-.15.34-.31.67-.48,1C33.91,12.32,33.83,12.45,33.75,12.6Z"/><path class="cls-4" d="M36.11,12.15c.17-.71.34-1.44.54-2.15a.36.36,0,0,1,.26-.22c.14,0,.24.06.22.22a1,1,0,0,1-.06.25c-.24.6-.48,1.2-.71,1.8C36.31,12.16,36.26,12.24,36.11,12.15Z"/><path class="cls-4" d="M7,4.71l.7-1.86.06,0c.09.17.18.35.29.52a1.91,1.91,0,0,0,.28.23L7.06,4.75Z"/><path class="cls-4" d="M3.57,6.51,5,6.35c-.23.25-.45.47-.66.71a.3.3,0,0,1-.46,0A.31.31,0,0,1,3.76,7a2.34,2.34,0,0,0-.09-.24C3.65,6.68,3.61,6.61,3.57,6.51Z"/><path class="cls-4" d="M36.1,12.36a.29.29,0,0,1,.28.31.33.33,0,0,1-.31.33.31.31,0,0,1-.3-.32A.34.34,0,0,1,36.1,12.36Z"/><path class="cls-4" d="M34.44,10.31a.23.23,0,0,1-.24-.24.27.27,0,0,1,.26-.29.25.25,0,0,1,.28.25A.28.28,0,0,1,34.44,10.31Z"/><path class="cls-4" d="M30.16,9.78a.24.24,0,0,1,.22.25.27.27,0,0,1-.29.28.24.24,0,0,1-.25-.26A.28.28,0,0,1,30.16,9.78Z"/><path class="cls-4" d="M9,7.43a.4.4,0,0,1-.37.43.42.42,0,0,1-.4-.43A.4.4,0,0,1,8.65,7,.43.43,0,0,1,9,7.43Z"/><path class="cls-4" d="M9.68,18a3.07,3.07,0,0,1,.22-.6.29.29,0,0,1,.54.07,1,1,0,0,1-.08.91.47.47,0,0,1-.33.2c-.09,0-.2-.15-.26-.26a.94.94,0,0,1-.06-.3Z"/><path class="cls-4" d="M12.63,8.5l-.41.56-.53-.34-.4.46-.77-.34c.14-.22.29-.37.56-.22.11.06.36-.18.38-.34s0-.33-.21-.4-.31-.17-.47-.24-.14-.12-.14-.26.09-.32.31-.34.44-.08.66-.1c.4,0,.58.25.42.6s-.25.4-.16.65a.35.35,0,0,0,.39.23A1,1,0,0,1,12.63,8.5Z"/></g></g></svg>