<svg xmlns="http://www.w3.org/2000/svg" viewBox="0 0 38.55 24.66"><defs><style>.cls-1{isolation:isolate;}.cls-2{opacity:0.15;}.cls-2,.cls-3{mix-blend-mode:multiply;}.cls-4{fill:#fff;}</style></defs><title>convert-FIX-SVG-03</title><g class="cls-1"><g id="Layer_1" data-name="Layer 1"><g class="cls-2"><path d="M8.42,21.36a4.18,4.18,0,0,1-.06.56c0,.14-.06.33-.28.29a.36.36,0,0,1-.29-.44A2.14,2.14,0,0,1,8,21.36a.58.58,0,0,1,.11-.13c-.2,0-.38.08-.56.1s-.3,0-.32-.21a.29.29,0,0,1,.26-.35,1.78,1.78,0,0,1,.39,0,1.44,1.44,0,0,1,.23.07,3.93,3.93,0,0,1-.32-.47.32.32,0,0,1,.22-.49c.21-.07.36,0,.4.26a6.41,6.41,0,0,1,.06.67,3.68,3.68,0,0,1,.33-.35,1.65,1.65,0,0,1,.36-.22.26.26,0,0,1,.36.12.25.25,0,0,1-.06.36,3.81,3.81,0,0,1-.57.29c-.08,0-.17,0-.29.07.19.1.36.18.51.28s.25.27.13.42a.31.31,0,0,1-.51,0,2.11,2.11,0,0,1-.19-.23C8.53,21.56,8.49,21.48,8.42,21.36Z"/><path d="M15.48,5.73a3.27,3.27,0,0,1-.05.53c0,.14-.06.31-.27.29a.36.36,0,0,1-.3-.4,2.68,2.68,0,0,1,.25-.47s.06-.06.1-.11l-.58.09a.23.23,0,0,1-.3-.2.29.29,0,0,1,.26-.35,5.21,5.21,0,0,1,.6.07,4.81,4.81,0,0,1-.29-.44A.3.3,0,0,1,15,4.28c.24-.12.43,0,.48.22a4.83,4.83,0,0,1,.05.71,3.25,3.25,0,0,1,.29-.33,1.7,1.7,0,0,1,.38-.26.29.29,0,0,1,.39.1.28.28,0,0,1-.08.4,5,5,0,0,1-.63.28,1.05,1.05,0,0,1-.21.06,5.65,5.65,0,0,1,.55.3c.13.08.23.2.11.37s-.32.24-.47.11A5.17,5.17,0,0,1,15.48,5.73Z"/><path d="M14.39,14.09H13.9a.31.31,0,0,1-.16-.12c-.14-.19-.27-.4-.41-.59a1,1,0,0,0-.21-.2l0,0a2.77,2.77,0,0,1,0,.5c0,.23.22.21.3.37H12.3c.07-.06.09-.11.13-.12s.21-.13.21-.27V12.47c0-.15-.05-.25-.22-.25s-.06-.05-.08-.07l0-.07c.44,0,.88,0,1.32.07a.42.42,0,0,1,.39.45c0,.25-.12.4-.45.5Zm-1.32-1a1.81,1.81,0,0,0,.25,0,.39.39,0,0,0,.28-.47c0-.24-.16-.37-.38-.36a.26.26,0,0,0-.15.12C13.06,12.59,13.07,12.82,13.07,13.08Z"/><path d="M31.47,13.11a1.07,1.07,0,0,1-1.08,1.07,1.08,1.08,0,0,1,0-2.16A1.08,1.08,0,0,1,31.47,13.11Zm-.48,0a4.61,4.61,0,0,0-.14-.62.45.45,0,0,0-.42-.3.47.47,0,0,0-.47.22,1.56,1.56,0,0,0,0,1.41.5.5,0,0,0,.86-.12A3.41,3.41,0,0,0,31,13.11Z"/><path d="M7.2,13.12A1.08,1.08,0,1,1,6.13,12,1.07,1.07,0,0,1,7.2,13.12Zm-.48,0a5.12,5.12,0,0,0-.14-.63.44.44,0,0,0-.44-.31.5.5,0,0,0-.47.23,1.63,1.63,0,0,0,0,1.38.52.52,0,0,0,.5.2.41.41,0,0,0,.38-.31C6.64,13.52,6.67,13.34,6.72,13.13Z"/><path d="M32.18,12.54c0,.41,0,.77,0,1.12,0,.13.14.26.22.41h-.64s.05-.1.07-.11.2-.18.2-.33V12.57c0-.18,0-.32-.23-.35,0,0,0-.05-.06-.08a.67.67,0,0,1,.83.22l.91,1.08c0-.38,0-.71,0-1,0-.06-.09-.12-.15-.18s-.07,0-.09-.11h.67s0,.09,0,.1c-.2,0-.21.17-.21.33,0,.52,0,1,0,1.64a2.55,2.55,0,0,1-.26-.19l-1-1.24Z"/><path d="M9,12.11h.67s0,.1,0,.1c-.22,0-.23.2-.23.37v1.5l0,.09A1.16,1.16,0,0,1,9.15,14l-1-1.24L8,12.55c0,.42,0,.79,0,1.16,0,.09.12.17.19.26l.07.1H7.56s0-.09,0-.09c.22-.06.23-.24.23-.42v-1c0-.17,0-.29-.22-.32s0-.05-.11-.12a5.55,5.55,0,0,1,.59,0s.11.07.16.12l1,1.2c0-.38,0-.73,0-1.07,0,0-.09-.09-.14-.13L9,12.16Z"/><path d="M11.11,13.21H12c-.28.17-.16.44-.19.68-.2.06-.39.15-.59.2a1,1,0,0,1-1.09-.32,1.09,1.09,0,0,1-.07-1.21.92.92,0,0,1,1.19-.48,3.13,3.13,0,0,0,.4.08l0,.48-.06,0c0-.05-.08-.1-.11-.16a.53.53,0,0,0-.53-.37.56.56,0,0,0-.48.44,1.51,1.51,0,0,0,0,.94.91.91,0,0,0,.29.41.34.34,0,0,0,.48,0,.81.81,0,0,0,.1-.45s-.08-.08-.12-.12Z"/><path d="M23.25,20.81a4.35,4.35,0,0,1,.41-.34.22.22,0,0,1,.35,0c.1.15,0,.28-.12.35s-.33.14-.5.22l.35.19c.11.07.2.16.09.3a.22.22,0,0,1-.36.05c-.1-.1-.18-.22-.28-.34a1.67,1.67,0,0,1,0,.39c0,.09-.12.15-.19.22-.07-.09-.22-.18-.22-.26a1.66,1.66,0,0,1,.17-.45,2.27,2.27,0,0,1-.3.06c-.13,0-.26,0-.28-.15a.22.22,0,0,1,.23-.27,2.63,2.63,0,0,1,.39.06,4,4,0,0,1-.22-.34.24.24,0,0,1,.17-.36c.17-.05.26,0,.29.19S23.23,20.65,23.25,20.81Z"/><path d="M18.46,19.33c0,.14,0,.25-.05.36s0,.25-.2.23a.26.26,0,0,1-.21-.35,2.08,2.08,0,0,1,.2-.35l-.37.05c-.1,0-.22,0-.23-.15a.22.22,0,0,1,.21-.27,2.7,2.7,0,0,1,.41.06,1.89,1.89,0,0,1-.19-.3.36.36,0,0,1,0-.29.32.32,0,0,1,.28-.09.35.35,0,0,1,.17.23,3.22,3.22,0,0,1,0,.44,2.85,2.85,0,0,1,.36-.3.74.74,0,0,1,.36-.09s.13.14.12.17a1,1,0,0,1-.27.3,1.88,1.88,0,0,1-.42.14c.12.07.24.12.34.19s.21.22.1.34a.23.23,0,0,1-.38,0A2.79,2.79,0,0,1,18.46,19.33Z"/><path d="M5.64,2.56,6,2.23c.13-.09.28-.16.41,0s0,.28-.17.39-.31.12-.47.18c.13.07.27.13.39.21s.18.15.08.28-.21.18-.34.07A2.83,2.83,0,0,1,5.59,3c0,.13,0,.26,0,.38s0,.25-.2.22a.23.23,0,0,1-.22-.3,2.93,2.93,0,0,1,.19-.4A3.37,3.37,0,0,1,5,3c-.12,0-.26,0-.24-.16a.39.39,0,0,1,.2-.25,1.17,1.17,0,0,1,.41,0,3.13,3.13,0,0,1-.2-.3c0-.08,0-.22,0-.27a.3.3,0,0,1,.26-.11.35.35,0,0,1,.19.22A2.81,2.81,0,0,1,5.64,2.56Z"/><path d="M31.37,4.29c.17-.14.29-.26.44-.36s.27-.1.36.06,0,.27-.13.33a3.89,3.89,0,0,1-.51.21c.12.07.25.13.37.21s.16.16.07.29-.21.18-.34.06a3,3,0,0,1-.31-.36,2.22,2.22,0,0,1,0,.38c0,.11-.05.24-.2.21s-.25-.12-.21-.27a2.09,2.09,0,0,1,.19-.44,2.44,2.44,0,0,1-.31.06c-.13,0-.27,0-.28-.17a.23.23,0,0,1,.26-.25l.35,0A1.4,1.4,0,0,1,30.91,4a.36.36,0,0,1,0-.29.28.28,0,0,1,.27-.1.37.37,0,0,1,.18.24A1.92,1.92,0,0,1,31.37,4.29Z"/><path d="M32.26,21.73a3,3,0,0,1,.4.23.18.18,0,0,1,.07.28c-.09.11-.21.17-.33.07a2.94,2.94,0,0,1-.32-.37,1.58,1.58,0,0,1,0,.38.36.36,0,0,1-.2.2.21.21,0,0,1-.22-.25,2.57,2.57,0,0,1,.2-.45,3,3,0,0,1-.36.06c-.13,0-.23,0-.23-.18s.07-.24.21-.23a3,3,0,0,1,.42.05.93.93,0,0,1-.18-.26.47.47,0,0,1,0-.33.28.28,0,0,1,.26-.09.4.4,0,0,1,.18.27,1.63,1.63,0,0,1,0,.39c.14-.12.24-.22.36-.31s.37-.14.44,0,0,.29-.22.39a1.89,1.89,0,0,1-.21.09Z"/><path d="M19.07,12.12l.14,0h.9c-.06.07-.08.12-.11.12s-.21.14-.21.28c0,.36,0,.72,0,1.07a.4.4,0,0,0,.42.39c.31,0,.55-.1.58-.34a7.75,7.75,0,0,0,0-1.18c0-.1-.15-.2-.25-.32h.66s0,.09,0,.1c-.23,0-.22.23-.22.41s0,.47,0,.7c0,.67-.46.86-1,.79s-.66-.29-.67-.79c0-.27,0-.55,0-.82s0-.27-.21-.29C19.12,12.22,19.1,12.17,19.07,12.12Z"/><path d="M4.67,12.15v.54h0a2.4,2.4,0,0,0-.11-.23.5.5,0,0,0-.94,0,1.46,1.46,0,0,0,0,1.07A.52.52,0,0,0,4,14a.53.53,0,0,0,.52-.38l.1-.2s0,0,.06,0v.75l-.17-.19V14a2.77,2.77,0,0,1-.8.12A.91.91,0,0,1,3,13.16a1,1,0,0,1,.73-1.09,2.09,2.09,0,0,1,.61,0Z"/><path d="M34.41,14l-.14.18v-.68l0,0a1.19,1.19,0,0,0,.09.15,1.59,1.59,0,0,0,.32.36.33.33,0,0,0,.47-.15.32.32,0,0,0-.15-.43c-.12-.08-.26-.14-.39-.21a.63.63,0,0,1-.32-.86.64.64,0,0,1,.85-.21.86.86,0,0,0,.29,0v.47l0,0a.91.91,0,0,1-.11-.16c-.09-.17-.21-.31-.42-.28a.48.48,0,0,0-.28.17.24.24,0,0,0,.12.32l.51.26a.62.62,0,0,1,.34.48.66.66,0,0,1-1,.64Z"/><path d="M14.6,14.07s0-.06,0-.06c.28-.14.33-.43.43-.68s.32-.77.48-1.15c0,0,.08-.08.12-.12a.38.38,0,0,1,.1.12c.14.34.25.69.4,1s.13.68.49.87h-1c0-.05.07-.1.1-.1s.19-.05.15-.17,0-.34-.23-.34-.21,0-.32,0a.29.29,0,0,0-.3.35c0,.06.08.1.12.15s.07,0,.09.11Zm1.12-.75-.25-.7-.28.7Z"/><path d="M24.54,14.07s0-.1.05-.1c.26,0,.2-.16.16-.31s-.06-.13-.09-.2a2.67,2.67,0,0,1-.4,0c-.21,0-.29.07-.33.25s0,.25.19.28a.85.85,0,0,1,0,.09h-.66s0-.06,0-.07c.23-.09.29-.32.37-.52l.53-1.29s.08-.09.12-.13a.45.45,0,0,1,.11.13l.54,1.4c.06.16.09.36.33.39,0,0,0,0,0,.09Zm-.18-1.46-.27.71h.52Z"/><path d="M21.52,12.12h1c0,.05-.06.1-.08.1-.2,0-.21.15-.21.31,0,.33,0,.66,0,1,0,.18,0,.38.23.44a.55.55,0,0,0,.62-.25l.1-.19.05,0v.54H21.54s0-.1.05-.11c.2,0,.22-.16.22-.32V12.51c0-.14,0-.27-.2-.29S21.56,12.17,21.52,12.12Z"/><path d="M18.07,12.25c0,.5,0,1,0,1.5,0,.08.12.15.19.21a.39.39,0,0,0,.11.06l0,.05H17.3c.07-.05.1-.1.14-.1a.22.22,0,0,0,.2-.25V12.25c-.36-.07-.59,0-.64.45l-.06,0v-.54h1.83l0,.53-.06,0C18.63,12.36,18.46,12.15,18.07,12.25Z"/><path d="M27.62,12.68a.49.49,0,0,0-.65-.43c0,.5,0,1,0,1.53,0,.06.1.13.16.18a.75.75,0,0,0,.13.06v.06H26.19c.08-.06.11-.11.15-.11a.21.21,0,0,0,.19-.24c0-.49,0-1,0-1.47-.32-.07-.35-.06-.69.41v-.56h1.83l0,.53Z"/><path d="M28,12.11h1c-.08.07-.11.11-.14.12a.23.23,0,0,0-.18.25q0,.58,0,1.17c0,.15,0,.28.21.31,0,0,0,.06.08.11H28c.06-.05.09-.1.13-.11s.16-.11.16-.23V12.48c0-.14,0-.24-.19-.25l-.14,0Z"/><path d="M2,18.42c0,.14.07.26.09.37a.41.41,0,0,1,0,.12l-.69.17A.17.17,0,0,1,1.27,19a1.9,1.9,0,0,1-.09-.36Z"/><path d="M7.6,2.39l-.12-.48.8-.2s0,0,0,.05c.12.42.12.42-.29.52Z"/><path d="M14.1,20.9l-.83.21-.13-.49.83-.2Z"/><path d="M28,6.6l-.48.11-.14-.6L27.83,6Z"/><path d="M27,1.42l.47-.12.15.6L27.18,2Z"/><path d="M36.63,6.3l.52-.3.24.41-.52.3Z"/><path d="M35.19,2.45l-.52.3-.23-.41L35,2Z"/><path d="M4.64,6.51l-.52.28-.23-.41.52-.29Z"/><path d="M37,18.59l-.52.28-.23-.41.52-.28Z"/><path d="M33.79,5.29,34,5.7,33.51,6l-.24-.41Z"/><path d="M22.44,4.19l-.52.28-.23-.41.52-.28Z"/><path d="M27.13,18.72l.23.42-.52.28L26.61,19Z"/><path d="M11.87,3.33l.23.42L11.58,4l-.23-.41Z"/><path d="M17.15,3.68l-.23-.41L17.43,3l.24.41Z"/><path d="M20.61,23.54l-.23-.42.51-.28.24.41Z"/><path d="M4.09,21.05,4,20.57l.46-.12.13.48Z"/><path d="M29,22l-.08-.11c-.05-.1-.09-.2-.15-.31l.45-.23.22.43Z"/><path d="M35.09,21.25l.08-.22.28.08-.07.23Z"/><path d="M2.28,5.33,2,5.38,2,5.09l.23,0Z"/><path d="M19.59,4.57l-.07.22-.28-.07.05-.24Z"/><path d="M19.43,6.78,19.36,7l-.29-.08.07-.23Z"/><path d="M26,4.11l-.08.23-.27-.09L25.66,4Z"/><path d="M11.78,18.49l-.06-.27.22,0C12.05,18.48,12.05,18.48,11.78,18.49Z"/><path d="M3.9,3.77l.28.1-.07.22L3.82,4Z"/><path d="M22,18.61l.28.1-.07.22L22,18.85Z"/><path d="M33.72,19.16l.29.09-.07.23-.29-.08Z"/><path d="M15.35,19.32l.23-.05.07.28-.23.06Z"/><path d="M11.87,5.94l.29.08-.06.24-.29-.1Z"/><path d="M17,22.11l.24-.06.06.28-.22.07Z"/><path d="M2.28,22.79,2.21,23l-.29-.08L2,22.7Z"/><path d="M29.92,2.07l.28.09-.06.23-.29-.09Z"/><path d="M23.46,5.48l.29.08-.07.23-.28-.08Z"/><path d="M23.21,2.11l.06-.22.27.07C23.52,2.22,23.52,2.22,23.21,2.11Z"/><path d="M6.35,18.38l.29.08-.06.23-.29-.08Z"/><path d="M30.84,18.05l.23-.07.07.29-.24.07Z"/><path d="M12.1,22.78l-.28-.09,0-.22.29.07Z"/><path d="M7.62,4.58l-.23.06-.06-.28.22-.07Z"/><path d="M2,1.53l.24,0,.07.28L2,1.82Z"/><path d="M8.94,6.32l.23-.05.08.28L9,6.61Z"/><path d="M14.8,2l-.29-.09.07-.23.29.08Z"/><path d="M19.68,1.89,20,2l-.07.22-.28-.07Z"/><path d="M8.62,21.56a3.85,3.85,0,0,1-.06.55c0,.15-.06.33-.28.3A.35.35,0,0,1,8,22a2.52,2.52,0,0,1,.24-.42l.12-.12c-.2,0-.38.08-.56.1s-.31,0-.32-.21A.28.28,0,0,1,7.72,21a1.36,1.36,0,0,1,.4,0,1.44,1.44,0,0,1,.23.07A3.93,3.93,0,0,1,8,20.61a.32.32,0,0,1,.22-.49c.21-.07.36,0,.4.26a6.41,6.41,0,0,1,.06.67A3.68,3.68,0,0,1,9,20.7a1.86,1.86,0,0,1,.35-.22.27.27,0,0,1,.37.11A.25.25,0,0,1,9.7,21a3.06,3.06,0,0,1-.57.29,1.71,1.71,0,0,1-.29.08c.19.1.36.18.51.27s.25.28.13.43a.31.31,0,0,1-.51,0,2.11,2.11,0,0,1-.19-.23Z"/><path d="M15.68,5.93c0,.17,0,.35,0,.53s-.06.31-.27.28a.34.34,0,0,1-.3-.39,2.12,2.12,0,0,1,.25-.47s.06-.06.1-.11l-.58.09c-.14,0-.27,0-.3-.2a.28.28,0,0,1,.25-.35,5.39,5.39,0,0,1,.61.07,4.73,4.73,0,0,1-.3-.44.31.31,0,0,1,.15-.46c.24-.12.43,0,.48.22a6.76,6.76,0,0,1,0,.71c.11-.12.18-.24.28-.33a1.83,1.83,0,0,1,.38-.26.28.28,0,0,1,.39.1.26.26,0,0,1-.07.39,5.11,5.11,0,0,1-.63.29.65.65,0,0,1-.21.05c.19.11.38.2.55.31s.23.2.11.37-.32.24-.47.1A4.11,4.11,0,0,1,15.68,5.93Z"/><path d="M14.59,14.29a4.09,4.09,0,0,1-.5,0c-.05,0-.11-.06-.15-.11s-.27-.4-.41-.59a1.31,1.31,0,0,0-.21-.2l-.05,0a2.77,2.77,0,0,1,0,.5c0,.23.22.2.3.37H12.5c.07-.06.09-.11.13-.12s.21-.13.21-.27V12.66c0-.14-.05-.24-.22-.24s-.06-.05-.09-.07l0-.07c.44,0,.88,0,1.31.07a.42.42,0,0,1,.4.45c0,.25-.12.39-.45.5Zm-1.32-1a1.81,1.81,0,0,0,.25,0,.39.39,0,0,0,.28-.47c0-.24-.16-.38-.38-.36a.23.23,0,0,0-.15.12C13.26,12.79,13.27,13,13.27,13.28Z"/><path d="M31.67,13.31a1.08,1.08,0,0,1-2.15,0,1.08,1.08,0,1,1,2.15,0Zm-.48,0a4.61,4.61,0,0,0-.14-.62.45.45,0,0,0-.42-.3.48.48,0,0,0-.47.21,1.58,1.58,0,0,0,0,1.42.5.5,0,0,0,.86-.12A3.41,3.41,0,0,0,31.19,13.31Z"/><path d="M7.4,13.32a1.08,1.08,0,1,1-1.08-1.1A1.09,1.09,0,0,1,7.4,13.32Zm-.48,0a6.09,6.09,0,0,0-.14-.63.44.44,0,0,0-.44-.3.47.47,0,0,0-.47.23,1.6,1.6,0,0,0,0,1.37.5.5,0,0,0,.5.21.41.41,0,0,0,.38-.31C6.84,13.71,6.87,13.54,6.92,13.32Z"/><path d="M32.38,12.74c0,.41,0,.77,0,1.11,0,.14.14.27.22.42H32s0-.1.07-.11.2-.18.2-.33V12.77c0-.18,0-.32-.24-.35,0,0,0-.05-.05-.08a.67.67,0,0,1,.83.22c.29.35.58.7.91,1.08,0-.38,0-.71,0-1,0-.07-.09-.13-.15-.18s-.07,0-.09-.11h.67s0,.09,0,.09c-.2,0-.22.18-.22.33v1.65a2,2,0,0,1-.26-.19l-1-1.25Z"/><path d="M9.22,12.31h.66s0,.1,0,.1c-.22,0-.23.19-.23.36v1.51l0,.09a1.66,1.66,0,0,1-.24-.18L8.33,13a2.45,2.45,0,0,0-.18-.2c0,.41,0,.79,0,1.15,0,.1.13.18.2.27l.07.1H7.75s0-.09,0-.09c.22-.07.23-.24.23-.42v-1c0-.17,0-.29-.22-.32s0-.05-.11-.12a5.55,5.55,0,0,1,.59,0c.05,0,.11.07.16.12l1,1.2c0-.38,0-.73,0-1.07,0-.05-.09-.09-.15-.13l-.09-.07Z"/><path d="M11.31,13.41h.92c-.29.16-.17.44-.19.67-.2.07-.39.15-.59.21A1,1,0,0,1,10.36,14a1.07,1.07,0,0,1-.07-1.21.92.92,0,0,1,1.19-.48,2.81,2.81,0,0,0,.4.08l0,.48-.06,0a.91.91,0,0,1-.11-.16.54.54,0,0,0-.53-.37c-.23,0-.39.17-.48.44a1.48,1.48,0,0,0,0,.93.89.89,0,0,0,.29.42.34.34,0,0,0,.48,0,.91.91,0,0,0,.1-.45s-.08-.08-.12-.13Z"/><path d="M23.45,21c.14-.12.26-.24.4-.35s.26-.11.36,0,0,.28-.12.36-.33.14-.51.22c.12.06.24.11.36.18s.2.17.09.31a.22.22,0,0,1-.36,0,3.3,3.3,0,0,1-.28-.35,2.46,2.46,0,0,1,0,.4c0,.09-.12.15-.19.22-.08-.09-.22-.18-.22-.27a1.73,1.73,0,0,1,.17-.44l-.3.06c-.13,0-.26,0-.28-.15a.22.22,0,0,1,.23-.27,2.6,2.6,0,0,1,.39,0,3.78,3.78,0,0,1-.22-.33c-.09-.16,0-.3.17-.36s.26,0,.29.18S23.43,20.85,23.45,21Z"/><path d="M18.66,19.52c0,.15,0,.26-.05.37s0,.25-.21.23a.26.26,0,0,1-.2-.35,2.08,2.08,0,0,1,.2-.35l-.37,0c-.11,0-.22,0-.23-.16a.22.22,0,0,1,.21-.26,1.93,1.93,0,0,1,.41.06,1.89,1.89,0,0,1-.19-.3.36.36,0,0,1,0-.29.32.32,0,0,1,.27-.1.36.36,0,0,1,.17.24,2.09,2.09,0,0,1,0,.44,2.28,2.28,0,0,1,.36-.3.74.74,0,0,1,.36-.09s.13.14.12.16a.87.87,0,0,1-.27.3,1.47,1.47,0,0,1-.42.15c.12.07.24.12.34.19s.2.22.1.34a.24.24,0,0,1-.39,0C18.81,19.75,18.75,19.64,18.66,19.52Z"/><path d="M5.84,2.76c.13-.12.24-.23.37-.33s.28-.17.41,0,0,.28-.17.39S6.14,2.94,6,3c.13.07.26.13.39.21s.18.15.08.27-.21.19-.34.08a3.92,3.92,0,0,1-.33-.36,2.36,2.36,0,0,1,0,.38c0,.1,0,.25-.19.22s-.27-.13-.23-.3a2.58,2.58,0,0,1,.2-.41c-.11,0-.24.06-.36.07s-.26,0-.24-.16a.35.35,0,0,1,.2-.25,1.17,1.17,0,0,1,.41,0,1.27,1.27,0,0,1-.2-.31.33.33,0,0,1,0-.26.33.33,0,0,1,.27-.11c.08,0,.16.13.18.22A1.91,1.91,0,0,1,5.84,2.76Z"/><path d="M31.57,4.49c.17-.14.29-.26.44-.36a.23.23,0,0,1,.36.06c.09.15,0,.27-.13.33s-.33.14-.51.21c.12.07.25.13.37.21s.16.16.07.28-.21.18-.34.07a4.05,4.05,0,0,1-.31-.36c0,.14,0,.26,0,.38s-.05.24-.21.2a.22.22,0,0,1-.21-.26,2.86,2.86,0,0,1,.2-.44,2.44,2.44,0,0,1-.31.06c-.13,0-.27,0-.28-.18a.22.22,0,0,1,.25-.24,2.39,2.39,0,0,1,.36,0,1.4,1.4,0,0,1-.17-.28.36.36,0,0,1,0-.29.28.28,0,0,1,.27-.1.37.37,0,0,1,.18.24A1.92,1.92,0,0,1,31.57,4.49Z"/><path d="M32.46,21.92c.14.09.28.15.4.23s.16.16.07.29-.21.17-.33.07a3.87,3.87,0,0,1-.32-.37,2.32,2.32,0,0,1-.05.38c0,.08-.12.19-.19.19a.2.2,0,0,1-.22-.24A2.57,2.57,0,0,1,32,22a3,3,0,0,1-.36.06c-.13,0-.23,0-.23-.18a.21.21,0,0,1,.21-.24l.42.06a.93.93,0,0,1-.18-.26.53.53,0,0,1,0-.33.31.31,0,0,1,.27-.09.44.44,0,0,1,.18.27,1.63,1.63,0,0,1,0,.39c.14-.12.24-.22.36-.31s.36-.14.44,0,0,.29-.22.39a.83.83,0,0,1-.22.08A1.28,1.28,0,0,1,32.46,21.92Z"/><path d="M19.26,12.32l.15,0h.9c-.06.07-.09.12-.12.12s-.2.14-.2.28c0,.35,0,.71,0,1.07a.4.4,0,0,0,.42.39c.31,0,.55-.1.58-.34a9.3,9.3,0,0,0,0-1.18c0-.1-.16-.2-.25-.32h.66s0,.09,0,.1c-.24.05-.23.23-.23.41s0,.47,0,.7c0,.66-.46.86-1,.79s-.65-.29-.66-.79c0-.27,0-.55,0-.82s0-.27-.2-.29C19.32,12.42,19.3,12.37,19.26,12.32Z"/><path d="M4.87,12.35v.53l0,0c0-.08-.07-.16-.11-.23a.52.52,0,0,0-.48-.33.52.52,0,0,0-.46.35,1.42,1.42,0,0,0,0,1.07.52.52,0,0,0,.49.4.54.54,0,0,0,.52-.38l.1-.2h.06v.75l-.17-.19v0a3.23,3.23,0,0,1-.8.12.94.94,0,0,1-.8-1,1.06,1.06,0,0,1,.73-1.09,2.16,2.16,0,0,1,.62,0Z"/><path d="M34.61,14.17l-.14.17v-.67l0,0,.1.15a1.59,1.59,0,0,0,.32.36.32.32,0,0,0,.46-.15.31.31,0,0,0-.14-.43l-.39-.21a.6.6,0,1,1,.53-1.07.83.83,0,0,0,.28,0v.47l0,0a.91.91,0,0,1-.11-.16c-.09-.18-.21-.31-.42-.28a.41.41,0,0,0-.28.17.23.23,0,0,0,.12.32l.51.26a.62.62,0,0,1,.34.48.67.67,0,0,1-1,.64C34.73,14.24,34.68,14.2,34.61,14.17Z"/><path d="M14.8,14.27a.22.22,0,0,0,0-.06c.29-.14.34-.43.44-.68l.48-1.15c0-.05.08-.08.12-.12s.08.07.1.12c.13.34.25.69.4,1s.13.68.49.87h-1s.08-.1.11-.1.19-.06.15-.17,0-.34-.23-.35h-.32a.29.29,0,0,0-.3.36c0,.06.08.1.12.15a.17.17,0,0,1,.09.11Zm1.12-.75-.25-.71-.28.71Z"/><path d="M24.74,14.27s0-.1.05-.1c.26,0,.2-.16.16-.31s-.06-.13-.09-.21a2.67,2.67,0,0,1-.4,0c-.21,0-.29.07-.33.25s0,.25.19.28c0,0,0,0,0,.08h-.66V14.2c.24-.1.3-.32.38-.53.18-.43.35-.86.53-1.28,0-.05.08-.09.12-.13s.09.08.11.13l.54,1.39c.06.17.09.37.33.4,0,0,0,.05,0,.09Zm-.18-1.46-.27.71h.52Z"/><path d="M21.72,12.31h1c0,.06-.06.11-.08.11-.2,0-.21.15-.21.3,0,.34,0,.67,0,1,0,.18,0,.38.23.43a.53.53,0,0,0,.62-.24,1.74,1.74,0,0,1,.1-.19l.05,0v.54H21.74s0-.11.05-.11c.2,0,.22-.16.22-.32V12.71c0-.14,0-.27-.2-.29C21.78,12.42,21.76,12.37,21.72,12.31Z"/><path d="M18.27,12.45c0,.5,0,1,0,1.5,0,.07.12.15.18.21a.45.45,0,0,0,.12.06l0,0H17.5c.07,0,.1-.1.13-.1s.2-.12.21-.26V12.44c-.36-.06-.59.05-.64.45l-.06-.05v-.53H19l0,.53,0,0C18.83,12.56,18.66,12.34,18.27,12.45Z"/><path d="M27.82,12.88a.49.49,0,0,0-.65-.44c0,.51,0,1,0,1.54,0,.06.1.12.16.18a.75.75,0,0,0,.13.06l0,0H26.39c.08-.06.11-.1.14-.1a.21.21,0,0,0,.2-.24V12.46c-.33-.07-.35-.06-.69.41v-.56h1.82l0,.53Z"/><path d="M28.23,12.31h1c-.08.07-.11.11-.15.12a.22.22,0,0,0-.17.25q0,.59,0,1.17c0,.15,0,.28.2.31s.05.06.09.11h-1c.06,0,.09-.1.13-.11s.16-.11.16-.24V12.68c0-.14,0-.24-.19-.25l-.14,0Z"/><path d="M2.2,18.62c0,.14.06.25.09.37a.41.41,0,0,1,0,.12l-.69.17s-.13-.05-.15-.09-.05-.23-.09-.37Z"/><path d="M7.8,2.59,7.68,2.1l.8-.19s0,0,0,.05c.12.42.12.42-.3.52Z"/><path d="M14.29,21.1l-.82.2-.13-.48.83-.2Z"/><path d="M28.17,6.8l-.48.11-.14-.6L28,6.2Z"/><path d="M27.23,1.62l.47-.12.15.6-.48.12Z"/><path d="M36.83,6.49l.52-.29.23.41-.51.29Z"/><path d="M35.39,2.65l-.52.29-.24-.4.52-.3Z"/><path d="M4.84,6.7,4.32,7l-.23-.41.52-.29Z"/><path d="M37.21,18.79l-.53.28-.22-.41.51-.29Z"/><path d="M34,5.48l.23.42-.52.28-.23-.41Z"/><path d="M22.64,4.39l-.52.28-.23-.41L22.4,4Z"/><path d="M27.33,18.92l.23.42-.52.28-.23-.41Z"/><path d="M12.07,3.53,12.3,4l-.52.28-.23-.42Z"/><path d="M17.35,3.88l-.23-.41.51-.29.24.41Z"/><path d="M20.8,23.74l-.22-.42.51-.28.23.4Z"/><path d="M4.28,21.25l-.11-.49.46-.11.13.48Z"/><path d="M29.21,22.2c0-.05-.06-.08-.08-.12a3,3,0,0,1-.15-.31l.45-.22.21.43Z"/><path d="M35.29,21.45l.08-.22.28.08-.07.23Z"/><path d="M2.48,5.53l-.24,0-.07-.28.24,0Z"/><path d="M19.79,4.76,19.72,5l-.29-.08.06-.23Z"/><path d="M19.63,7l-.08.23-.28-.08.07-.24Z"/><path d="M26.16,4.31l-.08.23-.28-.09.06-.22Z"/><path d="M12,18.69l-.06-.27.22-.05C12.25,18.68,12.25,18.68,12,18.69Z"/><path d="M4.09,4l.29.09-.07.23L4,4.2Z"/><path d="M22.23,18.81l.28.1-.07.22-.28-.08Z"/><path d="M33.92,19.36l.29.09-.07.22-.29-.08Z"/><path d="M15.55,19.52l.23-.05.07.28-.23.06Z"/><path d="M12.07,6.14l.29.08-.06.24L12,6.36Z"/><path d="M17.18,22.3l.23-.05.07.28-.22.07Z"/><path d="M2.48,23l-.08.22-.28-.08.07-.23Z"/><path d="M30.12,2.27l.28.09-.06.22-.29-.08Z"/><path d="M23.66,5.68l.29.08L23.88,6l-.29-.08Z"/><path d="M23.41,2.31l.06-.22.26.07C23.72,2.42,23.72,2.42,23.41,2.31Z"/><path d="M6.55,18.58l.29.08-.06.23-.29-.08Z"/><path d="M31,18.25l.22-.07.08.29-.24.07Z"/><path d="M12.3,23,12,22.89l.06-.22.29.07Z"/><path d="M7.82,4.78l-.23.06-.06-.29.22-.06Z"/><path d="M2.17,1.73l.24,0L2.48,2,2.24,2Z"/><path d="M9.14,6.52l.23-.06.08.29-.24.06Z"/><path d="M15,2.22l-.29-.09.07-.23.28.08Z"/><path d="M19.88,2.09l.29.09-.07.22-.29-.08Z"/></g><g class="cls-3"><path d="M8.28,21.22c0,.22,0,.39-.06.55s-.06.33-.28.3a.35.35,0,0,1-.29-.44,2.52,2.52,0,0,1,.24-.42L8,21.09c-.2,0-.38.08-.56.1s-.31,0-.32-.21a.28.28,0,0,1,.25-.35,1.36,1.36,0,0,1,.4,0,1.44,1.44,0,0,1,.23.07,3.93,3.93,0,0,1-.32-.47.32.32,0,0,1,.22-.49c.21-.07.36,0,.4.26a6.41,6.41,0,0,1,.06.67,3.68,3.68,0,0,1,.33-.35,1.59,1.59,0,0,1,.35-.22.27.27,0,0,1,.37.11.25.25,0,0,1-.06.36,3.06,3.06,0,0,1-.57.29A1.71,1.71,0,0,1,8.5,21c.19.1.36.18.51.27s.25.27.13.43a.31.31,0,0,1-.51,0,1.37,1.37,0,0,1-.19-.22Z"/><path d="M15.34,5.59c0,.17,0,.35-.05.53s-.06.31-.27.28a.34.34,0,0,1-.3-.39A2.12,2.12,0,0,1,15,5.54s.06-.06.1-.11l-.58.09c-.14,0-.27,0-.3-.2A.28.28,0,0,1,14.44,5a3.78,3.78,0,0,1,.61.07,4.73,4.73,0,0,1-.3-.44.31.31,0,0,1,.15-.46.3.3,0,0,1,.48.22,6.76,6.76,0,0,1,0,.71c.11-.12.18-.24.28-.33a1.83,1.83,0,0,1,.38-.26.28.28,0,0,1,.39.1.26.26,0,0,1-.07.39,5.11,5.11,0,0,1-.63.29.65.65,0,0,1-.21,0c.19.11.38.2.55.31s.23.2.11.37-.32.24-.47.1A4.11,4.11,0,0,1,15.34,5.59Z"/><path d="M14.25,14a4.09,4.09,0,0,1-.5,0c-.05,0-.11-.06-.15-.11s-.27-.4-.41-.59A1.31,1.31,0,0,0,13,13l-.05,0a2.77,2.77,0,0,1,0,.5c0,.23.22.2.3.37H12.16c.06-.06.09-.11.13-.12s.21-.13.21-.27V12.32c0-.14-.05-.24-.22-.24s-.06-.05-.09-.07l0-.07c.44,0,.88,0,1.31.07a.42.42,0,0,1,.4.45c0,.25-.12.39-.45.5Zm-1.32-1a2,2,0,0,0,.25,0,.39.39,0,0,0,.28-.47c0-.24-.16-.38-.38-.36a.23.23,0,0,0-.15.12C12.92,12.45,12.93,12.68,12.93,12.94Z"/><path d="M31.33,13a1.08,1.08,0,0,1-2.15,0,1.08,1.08,0,1,1,2.15,0Zm-.48,0a4.61,4.61,0,0,0-.14-.62.45.45,0,0,0-.42-.3.5.5,0,0,0-.48.21,1.61,1.61,0,0,0,.05,1.42.5.5,0,0,0,.86-.12A3.41,3.41,0,0,0,30.85,13Z"/><path d="M7.06,13A1.08,1.08,0,1,1,6,11.88,1.09,1.09,0,0,1,7.06,13Zm-.48,0a5.56,5.56,0,0,0-.14-.63.44.44,0,0,0-.44-.3.47.47,0,0,0-.47.23,1.6,1.6,0,0,0,0,1.37.5.5,0,0,0,.5.21.41.41,0,0,0,.38-.31C6.5,13.37,6.53,13.19,6.58,13Z"/><path d="M32,12.4c0,.41,0,.76,0,1.11,0,.14.14.27.22.42h-.64s0-.1.07-.11.2-.18.2-.33V12.43c0-.18,0-.32-.24-.35,0,0,0-.05-.05-.08a.67.67,0,0,1,.83.22c.29.35.58.7.91,1.08,0-.38,0-.71,0-1,0-.07-.09-.13-.15-.18s-.07,0-.09-.11h.67s0,.09,0,.09c-.2,0-.22.18-.22.33v1.65a2,2,0,0,1-.26-.19l-1-1.25Z"/><path d="M8.88,12h.66s0,.1,0,.1c-.22,0-.23.19-.23.36v1.51l0,.09A1.66,1.66,0,0,1,9,13.85L8,12.61a2.45,2.45,0,0,0-.18-.2c0,.41,0,.79,0,1.15,0,.1.13.18.2.27l.07.1H7.41s0-.09,0-.09c.22-.07.23-.24.23-.42,0-.34,0-.68,0-1,0-.17,0-.29-.22-.32s0-.05-.11-.12a5.55,5.55,0,0,1,.59,0c.05,0,.11.07.16.12l1,1.2c0-.38,0-.73,0-1.07,0-.05-.09-.09-.15-.13L8.86,12Z"/><path d="M11,13.07h.92c-.29.16-.17.44-.19.67-.2.07-.39.15-.59.21A1,1,0,0,1,10,13.63,1.05,1.05,0,0,1,10,12.42a.92.92,0,0,1,1.19-.48,2.81,2.81,0,0,0,.4.08l0,.48-.06,0a.91.91,0,0,1-.11-.16.54.54,0,0,0-.53-.37.54.54,0,0,0-.48.44,1.48,1.48,0,0,0,0,.93.94.94,0,0,0,.29.42.34.34,0,0,0,.48,0,.91.91,0,0,0,.1-.45s-.08-.08-.12-.13S11,13.14,11,13.07Z"/><path d="M23.11,20.67c.14-.12.26-.25.4-.35s.26-.11.36,0,0,.28-.12.36-.33.14-.51.22c.12.06.24.11.36.18s.2.17.09.31a.22.22,0,0,1-.36,0,3.3,3.3,0,0,1-.28-.35,2.46,2.46,0,0,1,0,.4.77.77,0,0,1-.19.22c-.08-.09-.22-.18-.22-.27a1.73,1.73,0,0,1,.17-.44l-.3.06c-.13,0-.26,0-.28-.15a.22.22,0,0,1,.23-.27,2.6,2.6,0,0,1,.39,0,3.78,3.78,0,0,1-.22-.33c-.09-.16,0-.3.17-.36s.26,0,.29.18S23.09,20.51,23.11,20.67Z"/><path d="M18.32,19.18c0,.15,0,.26-.05.37s0,.25-.21.23a.26.26,0,0,1-.2-.35,2.08,2.08,0,0,1,.2-.35l-.37.05c-.11,0-.22,0-.23-.16a.22.22,0,0,1,.21-.26,1.93,1.93,0,0,1,.41.06,1.89,1.89,0,0,1-.19-.3.36.36,0,0,1,0-.29.32.32,0,0,1,.27-.1.36.36,0,0,1,.17.24,2.09,2.09,0,0,1,0,.44,2.28,2.28,0,0,1,.36-.3.64.64,0,0,1,.36-.09s.13.14.11.16a.76.76,0,0,1-.26.3,1.47,1.47,0,0,1-.42.15c.12.07.24.12.34.19s.2.22.1.34a.24.24,0,0,1-.39,0C18.47,19.41,18.41,19.3,18.32,19.18Z"/><path d="M5.5,2.42a3.66,3.66,0,0,1,.37-.33c.13-.1.28-.17.41,0s0,.28-.17.39-.31.12-.47.18c.13.07.26.13.39.21s.18.15.08.27-.21.19-.34.08a3.92,3.92,0,0,1-.33-.36,2.36,2.36,0,0,1,0,.38c0,.1,0,.25-.19.22S5,3.33,5,3.16a2.58,2.58,0,0,1,.2-.41l-.36.07c-.12,0-.26,0-.24-.16a.35.35,0,0,1,.2-.25,1.17,1.17,0,0,1,.41,0A1.27,1.27,0,0,1,5,2.14a.36.36,0,0,1,0-.27.35.35,0,0,1,.27-.1c.08,0,.16.13.18.22A1.91,1.91,0,0,1,5.5,2.42Z"/><path d="M31.23,4.15a4.37,4.37,0,0,1,.44-.36.23.23,0,0,1,.36.06c.09.15,0,.26-.13.33s-.33.14-.51.21c.12.07.25.13.37.21s.16.16.07.28-.21.18-.34.07a4.05,4.05,0,0,1-.31-.36c0,.14,0,.26,0,.38s-.05.24-.21.2a.22.22,0,0,1-.21-.26,2.86,2.86,0,0,1,.2-.44,2.44,2.44,0,0,1-.31.06c-.13,0-.27,0-.28-.18a.22.22,0,0,1,.25-.24,2.58,2.58,0,0,1,.36,0,1.4,1.4,0,0,1-.17-.28.36.36,0,0,1,0-.29.28.28,0,0,1,.27-.1.37.37,0,0,1,.18.24A1.92,1.92,0,0,1,31.23,4.15Z"/><path d="M32.12,21.58c.14.09.28.15.4.23s.16.16.07.29-.21.17-.33.07a3.87,3.87,0,0,1-.32-.37,2.32,2.32,0,0,1-.05.38c0,.08-.12.19-.19.19a.2.2,0,0,1-.22-.24,2.57,2.57,0,0,1,.2-.45,3,3,0,0,1-.36.06c-.13,0-.23,0-.23-.18a.21.21,0,0,1,.21-.24c.14,0,.28,0,.42.06a.93.93,0,0,1-.18-.26.53.53,0,0,1,0-.33.31.31,0,0,1,.27-.09A.44.44,0,0,1,32,21a1.63,1.63,0,0,1,0,.39,4.64,4.64,0,0,1,.36-.31c.2-.15.36-.14.44,0s0,.29-.22.39l-.22.08A1.28,1.28,0,0,1,32.12,21.58Z"/><path d="M18.92,12l.15,0H20c-.06.07-.09.12-.12.12s-.2.14-.2.28c0,.35,0,.71,0,1.07a.4.4,0,0,0,.42.39c.31,0,.55-.1.58-.34a9.3,9.3,0,0,0,0-1.18c0-.1-.16-.2-.25-.32h.66s0,.09,0,.09c-.24.06-.23.24-.23.42s0,.47,0,.7c0,.66-.45.86-1,.79s-.65-.29-.66-.79c0-.27,0-.55,0-.82s0-.27-.2-.29C19,12.08,19,12,18.92,12Z"/><path d="M4.53,12v.53l0,0c0-.08-.07-.16-.11-.23A.52.52,0,0,0,3.89,12a.52.52,0,0,0-.46.35,1.42,1.42,0,0,0,0,1.07.52.52,0,0,0,.49.4.54.54,0,0,0,.52-.38l.1-.2h.06V14L4.4,13.8v0a3.23,3.23,0,0,1-.8.12.94.94,0,0,1-.8-1,1.06,1.06,0,0,1,.73-1.09,2.16,2.16,0,0,1,.62,0Z"/><path d="M34.27,13.83l-.14.17v-.67l0,0,.1.15a1.59,1.59,0,0,0,.32.36.32.32,0,0,0,.46-.15.31.31,0,0,0-.14-.43c-.13-.08-.26-.14-.39-.21A.6.6,0,1,1,35,12a.83.83,0,0,0,.28,0v.47l0,0a.91.91,0,0,1-.11-.16c-.09-.18-.21-.31-.42-.28a.41.41,0,0,0-.28.17.23.23,0,0,0,.12.32l.51.26a.62.62,0,0,1,.34.48.67.67,0,0,1-1,.64C34.39,13.9,34.34,13.86,34.27,13.83Z"/><path d="M14.46,13.93a.22.22,0,0,0,0-.06c.29-.14.34-.43.44-.68L15.37,12s.08-.08.12-.12.08.07.1.12c.13.34.25.69.4,1s.13.68.49.87h-1s.08-.1.11-.1.19-.06.15-.17,0-.34-.23-.35h-.32a.28.28,0,0,0-.3.36c0,.06.08.1.12.15a.17.17,0,0,1,.09.11Zm1.12-.75-.25-.71-.28.71Z"/><path d="M24.4,13.93s0-.1.05-.1c.26,0,.2-.16.16-.31s-.06-.13-.09-.21a2.67,2.67,0,0,1-.4,0c-.21,0-.29.07-.33.25s0,.25.19.28c0,0,0,0,0,.08h-.66v-.06c.24-.1.3-.32.38-.53.18-.43.35-.86.53-1.28,0-.05.08-.09.12-.13s.09.08.11.13L25,13.44c.06.17.09.37.33.4,0,0,0,.05,0,.09Zm-.18-1.46-.27.71h.52Z"/><path d="M21.38,12h1c0,.06-.06.11-.08.11-.2,0-.21.15-.21.3,0,.34,0,.67,0,1,0,.18,0,.38.23.43a.53.53,0,0,0,.62-.24,1.14,1.14,0,0,1,.1-.19l.05,0v.54H21.4s0-.11.05-.11c.2,0,.22-.16.22-.32V12.37c0-.14,0-.27-.2-.29C21.44,12.08,21.42,12,21.38,12Z"/><path d="M17.93,12.11c0,.5,0,1,0,1.5,0,.07.12.15.18.21a.45.45,0,0,0,.12.06l0,0H17.16c.07,0,.1-.1.13-.1s.2-.13.21-.26V12.1c-.36-.06-.59.05-.64.45l-.06-.05V12h1.83l0,.52,0,0C18.49,12.22,18.32,12,17.93,12.11Z"/><path d="M27.48,12.54a.49.49,0,0,0-.65-.44c0,.51,0,1,0,1.54,0,.06.1.12.16.18a.75.75,0,0,0,.13.06l0,0H26.05c.08-.06.11-.1.14-.1a.21.21,0,0,0,.2-.24V12.12c-.33-.07-.35-.06-.69.41V12h1.82l0,.53Z"/><path d="M27.89,12h1c-.08.07-.11.11-.15.12a.22.22,0,0,0-.17.25q0,.59,0,1.17c0,.15,0,.28.2.31,0,0,.05,0,.09.11h-1c.06,0,.09-.1.13-.11s.16-.11.16-.24V12.34c0-.14,0-.24-.19-.25l-.14,0Z"/><path d="M1.86,18.28c0,.14.06.25.09.37a.41.41,0,0,1,0,.12l-.69.17s-.13-.05-.15-.09-.05-.23-.09-.37Z"/><path d="M7.46,2.25l-.12-.49.8-.19s0,0,0,.05c.12.42.12.42-.3.52Z"/><path d="M14,20.76l-.82.2L13,20.48l.83-.2Z"/><path d="M27.83,6.46l-.48.11L27.21,6l.48-.11Z"/><path d="M26.89,1.28l.47-.12.15.59L27,1.88Z"/><path d="M36.49,6.15,37,5.86l.23.41-.51.29Z"/><path d="M35,2.31l-.51.29-.24-.4.52-.3Z"/><path d="M4.5,6.36,4,6.65l-.23-.41L4.27,6Z"/><path d="M36.87,18.45l-.53.28-.23-.41.52-.29Z"/><path d="M33.65,5.14l.23.42-.52.28-.23-.41Z"/><path d="M22.3,4.05l-.52.28-.23-.41.51-.29Z"/><path d="M27,18.58l.23.41-.52.29-.23-.41Z"/><path d="M11.73,3.19l.23.42-.52.28-.23-.42Z"/><path d="M17,3.54l-.23-.41.51-.29.24.41Z"/><path d="M20.46,23.4,20.24,23l.51-.28.23.4Z"/><path d="M3.94,20.91l-.11-.49.46-.11.13.48Z"/><path d="M28.87,21.86c0-.05-.06-.08-.08-.12a3,3,0,0,1-.15-.31l.45-.22.21.43Z"/><path d="M35,21.11l.08-.22.28.08-.07.23Z"/><path d="M2.14,5.19l-.24,0L1.83,5l.24,0Z"/><path d="M19.45,4.42l-.07.23-.29-.08.06-.23Z"/><path d="M19.29,6.63l-.08.23-.28-.08L19,6.54Z"/><path d="M25.82,4l-.08.23-.28-.09.06-.22Z"/><path d="M11.64,18.35l-.06-.27.22,0C11.91,18.34,11.91,18.34,11.64,18.35Z"/><path d="M3.75,3.63,4,3.72,4,4l-.29-.09Z"/><path d="M21.89,18.47l.28.1-.07.22-.28-.08Z"/><path d="M33.58,19l.29.08-.07.23-.29-.08Z"/><path d="M15.21,19.18l.23-.05.07.28-.23.06Z"/><path d="M11.73,5.8l.29.08L12,6.12,11.67,6Z"/><path d="M16.84,22l.23-.05.07.28-.22.07Z"/><path d="M2.14,22.65l-.08.22-.28-.08.07-.23Z"/><path d="M29.78,1.93l.28.09L30,2.24l-.29-.08Z"/><path d="M23.32,5.34l.29.08-.07.23-.29-.08Z"/><path d="M23.07,2l.06-.22.26.07C23.38,2.08,23.38,2.08,23.07,2Z"/><path d="M6.21,18.24l.29.08-.06.23-.29-.08Z"/><path d="M30.7,17.91l.22-.07.08.29-.24.07Z"/><path d="M12,22.64l-.29-.09.06-.22.29.07Z"/><path d="M7.48,4.44l-.23.06-.07-.29.23-.06Z"/><path d="M1.83,1.39l.24,0,.07.29-.24,0Z"/><path d="M8.8,6.18,9,6.12l.08.29-.24.06Z"/><path d="M14.66,1.88l-.29-.09.07-.23.28.08Z"/><path d="M19.54,1.75l.29.09-.07.22L19.47,2Z"/></g><path class="cls-4" d="M8.48,21.42c0,.22,0,.39-.06.55s-.06.33-.28.3a.35.35,0,0,1-.29-.44,2.52,2.52,0,0,1,.24-.42l.12-.13c-.2,0-.38.09-.56.11s-.31,0-.33-.21a.3.3,0,0,1,.26-.35,1.09,1.09,0,0,1,.4,0,1.11,1.11,0,0,1,.22.07c-.11-.17-.23-.31-.32-.47a.33.33,0,0,1,.23-.5c.2-.07.36,0,.4.27a4.47,4.47,0,0,1,.05.67,3.8,3.8,0,0,1,.34-.35,1.29,1.29,0,0,1,.35-.22.27.27,0,0,1,.37.11.25.25,0,0,1-.06.36A4.37,4.37,0,0,1,9,21.1a2,2,0,0,1-.29.08l.51.27c.22.14.25.27.12.43a.3.3,0,0,1-.5,0,1.45,1.45,0,0,1-.19-.23C8.59,21.61,8.55,21.53,8.48,21.42Z"/><path class="cls-4" d="M15.54,5.79c0,.16,0,.35,0,.52s-.06.32-.27.29a.34.34,0,0,1-.3-.39,2.12,2.12,0,0,1,.25-.47.33.33,0,0,1,.1-.11l-.58.09c-.15,0-.28,0-.3-.2a.28.28,0,0,1,.25-.35,2.92,2.92,0,0,1,.61.07A4.73,4.73,0,0,1,15,4.8a.31.31,0,0,1,.15-.46.3.3,0,0,1,.48.22,6.76,6.76,0,0,1,.05.71,3.22,3.22,0,0,1,.28-.33,1.6,1.6,0,0,1,.38-.26.27.27,0,0,1,.39.1.26.26,0,0,1-.08.39,4.39,4.39,0,0,1-.62.29,1.08,1.08,0,0,1-.21,0c.19.11.38.2.55.31s.23.2.11.37-.32.24-.47.1A5,5,0,0,1,15.54,5.79Z"/><path class="cls-4" d="M14.45,14.15a4.09,4.09,0,0,1-.5,0A.23.23,0,0,1,13.8,14c-.14-.2-.27-.4-.41-.59a2.08,2.08,0,0,0-.21-.21l-.06,0a2.78,2.78,0,0,1,0,.5c0,.23.22.2.29.36H12.36c.06-.05.09-.1.13-.11s.2-.13.2-.27c0-.41,0-.82,0-1.23,0-.14,0-.25-.22-.24s-.06,0-.09-.08l0-.06c.43,0,.88,0,1.31.07a.43.43,0,0,1,.4.45c0,.25-.12.39-.45.5Zm-1.33-1h.25a.39.39,0,0,0,.29-.47c0-.24-.17-.38-.38-.36-.06,0-.15.07-.15.12C13.12,12.64,13.12,12.88,13.12,13.13Z"/><path class="cls-4" d="M31.53,13.17a1.08,1.08,0,1,1-1.08-1.1A1.09,1.09,0,0,1,31.53,13.17Zm-.48,0a4.61,4.61,0,0,0-.14-.62.43.43,0,0,0-.42-.3.5.5,0,0,0-.48.21,1.59,1.59,0,0,0,0,1.41.5.5,0,0,0,.86-.11C31,13.58,31,13.38,31.05,13.17Z"/><path class="cls-4" d="M7.26,13.17a1.07,1.07,0,0,1-1.09,1.06,1.05,1.05,0,0,1-1.06-1.08,1.07,1.07,0,0,1,1.07-1.08A1.1,1.1,0,0,1,7.26,13.17Zm-.49,0c0-.19-.07-.42-.13-.63a.48.48,0,0,0-.44-.31.51.51,0,0,0-.47.23,1.59,1.59,0,0,0,0,1.38.49.49,0,0,0,.5.21.41.41,0,0,0,.38-.31C6.7,13.57,6.73,13.39,6.77,13.18Z"/><path class="cls-4" d="M32.24,12.6c0,.41,0,.76,0,1.11,0,.14.14.27.21.41h-.63s0-.09.07-.1a.29.29,0,0,0,.2-.33c0-.36,0-.71,0-1.06,0-.18,0-.32-.24-.35,0,0,0,0-.06-.08a.67.67,0,0,1,.84.22l.91,1.08c0-.38,0-.71,0-1,0-.06-.09-.12-.15-.17a.25.25,0,0,1-.09-.11H34s0,.09,0,.09c-.2,0-.22.18-.22.33v1.65a1.31,1.31,0,0,1-.26-.2c-.35-.41-.68-.82-1-1.24Z"/><path class="cls-4" d="M9.08,12.17h.66s0,.1,0,.1c-.22,0-.23.19-.23.36v1.5a.65.65,0,0,1,0,.1,1.66,1.66,0,0,1-.24-.18l-1-1.24a2.45,2.45,0,0,0-.18-.2c0,.41,0,.78,0,1.15,0,.09.13.18.2.27l.07.1H7.61s0-.09,0-.1c.22-.06.23-.23.23-.42s0-.67,0-1c0-.17,0-.29-.23-.32,0,0,0,0-.1-.12h.58a.31.31,0,0,1,.16.12l1,1.21c0-.38,0-.73,0-1.07,0-.05-.1-.09-.15-.14l-.1-.06Z"/><path class="cls-4" d="M11.16,13.27h.93c-.29.16-.17.44-.19.67-.2.07-.4.15-.59.2a1,1,0,0,1-1.09-.31,1.05,1.05,0,0,1-.07-1.21.91.91,0,0,1,1.18-.48,3.32,3.32,0,0,0,.41.08l0,.48-.06,0a1.53,1.53,0,0,1-.11-.16.55.55,0,0,0-.53-.37.55.55,0,0,0-.49.44,1.41,1.41,0,0,0,0,.93.94.94,0,0,0,.29.42.34.34,0,0,0,.48,0,1.06,1.06,0,0,0,.1-.45s-.08-.09-.12-.13Z"/><path class="cls-4" d="M23.31,20.87c.14-.12.26-.25.4-.35s.26-.11.36,0a.24.24,0,0,1-.12.36c-.16.08-.33.14-.51.22a3.84,3.84,0,0,1,.35.18c.12.07.21.16.1.31a.22.22,0,0,1-.36,0,1.88,1.88,0,0,1-.28-.34,2.43,2.43,0,0,1-.05.4c0,.08-.12.14-.18.21s-.22-.17-.22-.26a1.6,1.6,0,0,1,.17-.44l-.3.06c-.13,0-.26,0-.28-.15a.22.22,0,0,1,.23-.27,2.6,2.6,0,0,1,.39.05,3.78,3.78,0,0,1-.22-.33c-.09-.16,0-.3.17-.36s.26,0,.29.18S23.29,20.7,23.31,20.87Z"/><path class="cls-4" d="M18.52,19.38c0,.14,0,.26-.05.37s0,.25-.21.23a.26.26,0,0,1-.2-.35,2,2,0,0,1,.19-.35c-.12,0-.24,0-.36,0s-.22,0-.23-.15a.22.22,0,0,1,.21-.26,2,2,0,0,1,.41.05,1.32,1.32,0,0,1-.19-.29.36.36,0,0,1,0-.29.31.31,0,0,1,.27-.1c.08,0,.15.15.17.24a2.09,2.09,0,0,1,0,.44,3,3,0,0,1,.35-.31,1,1,0,0,1,.37-.09s.13.15.11.17a.85.85,0,0,1-.26.3,1.47,1.47,0,0,1-.42.15l.34.19c.18.11.2.22.1.34a.24.24,0,0,1-.39,0A3,3,0,0,1,18.52,19.38Z"/><path class="cls-4" d="M5.7,2.61c.13-.11.24-.23.37-.32s.28-.17.41,0,0,.28-.18.38a3.71,3.71,0,0,1-.46.19l.39.2c.09.07.17.15.08.28s-.21.19-.34.08a3.08,3.08,0,0,1-.33-.37,2.42,2.42,0,0,1,0,.39c0,.1,0,.24-.19.22s-.27-.13-.23-.3A2.58,2.58,0,0,1,5.4,3L5,3c-.12,0-.26,0-.24-.16A.32.32,0,0,1,5,2.61a1.19,1.19,0,0,1,.41,0,1.49,1.49,0,0,1-.2-.31.36.36,0,0,1,0-.27A.36.36,0,0,1,5.48,2a.33.33,0,0,1,.18.23A1.87,1.87,0,0,1,5.7,2.61Z"/><path class="cls-4" d="M31.43,4.35A4.37,4.37,0,0,1,31.87,4c.12-.08.27-.11.36.06s0,.26-.13.33-.34.14-.52.21c.13.07.26.13.38.21s.16.16.07.28-.22.18-.34.07a4.05,4.05,0,0,1-.31-.36,3.5,3.5,0,0,1,0,.37c0,.11-.05.25-.21.21s-.25-.12-.21-.27a2.76,2.76,0,0,1,.2-.43,2.44,2.44,0,0,1-.31.06c-.14,0-.27,0-.28-.18s.1-.24.25-.24a2.8,2.8,0,0,1,.36.05A1.86,1.86,0,0,1,31,4.08c0-.09,0-.23,0-.29a.27.27,0,0,1,.26-.1c.09,0,.16.15.19.24A1.9,1.9,0,0,1,31.43,4.35Z"/><path class="cls-4" d="M32.32,21.78l.4.23c.1.07.16.16.07.28s-.21.18-.33.07a3.08,3.08,0,0,1-.33-.37,1.61,1.61,0,0,1,0,.39c0,.08-.12.19-.19.19a.2.2,0,0,1-.22-.25,2.48,2.48,0,0,1,.2-.44,3,3,0,0,1-.36.06c-.13,0-.24,0-.24-.18a.22.22,0,0,1,.22-.24,3,3,0,0,1,.42.06,1.35,1.35,0,0,1-.18-.26.47.47,0,0,1,0-.33A.29.29,0,0,1,32,20.9a.44.44,0,0,1,.18.27,1.63,1.63,0,0,1,0,.39c.13-.12.24-.23.36-.32s.36-.13.44,0,0,.29-.22.39l-.22.08Z"/><path class="cls-4" d="M19.12,12.18l.15,0h.9c-.06.07-.09.12-.12.12s-.2.14-.2.27c0,.36,0,.72,0,1.08a.4.4,0,0,0,.42.39c.31,0,.55-.1.58-.34a7.75,7.75,0,0,0,0-1.18c0-.11-.15-.2-.24-.32h.66s0,.09,0,.09c-.24.06-.23.24-.23.42v.7c0,.66-.45.85-1,.79s-.66-.29-.66-.79c0-.28,0-.55,0-.83s0-.26-.2-.28C19.17,12.28,19.16,12.22,19.12,12.18Z"/><path class="cls-4" d="M4.73,12.21v.53l-.05,0c0-.08-.07-.16-.11-.23a.51.51,0,0,0-.48-.33.52.52,0,0,0-.46.35,1.37,1.37,0,0,0,0,1.07.52.52,0,0,0,.48.4.56.56,0,0,0,.53-.38,1.24,1.24,0,0,1,.1-.2h.06v.75L4.6,14v.05a3.78,3.78,0,0,1-.8.12.93.93,0,0,1-.8-.95,1.06,1.06,0,0,1,.73-1.09,2.15,2.15,0,0,1,.62,0A3.35,3.35,0,0,1,4.73,12.21Z"/><path class="cls-4" d="M34.47,14l-.14.17v-.67l0,0,.09.14a1.48,1.48,0,0,0,.33.37.34.34,0,0,0,.32-.59,3.6,3.6,0,0,0-.39-.2.64.64,0,0,1-.32-.87.63.63,0,0,1,.85-.2.8.8,0,0,0,.28,0v.47l0,0a.76.76,0,0,1-.11-.16.41.41,0,0,0-.43-.28.36.36,0,0,0-.27.17.23.23,0,0,0,.12.32c.16.09.34.16.5.26a.61.61,0,0,1,.35.47.68.68,0,0,1-1,.65Z"/><path class="cls-4" d="M14.66,14.13a.21.21,0,0,1,0-.06c.29-.14.33-.43.44-.69s.31-.76.48-1.14c0-.05.08-.08.12-.12s.08.07.1.12c.13.34.25.68.39,1s.14.68.5.87h-1c.05-.05.08-.1.11-.1s.19-.06.15-.18,0-.33-.23-.34h-.32a.3.3,0,0,0-.31.36c0,.06.08.1.13.15a.14.14,0,0,1,.08.11Zm1.12-.75-.26-.71-.27.71Z"/><path class="cls-4" d="M24.6,14.13s0-.1,0-.1c.26,0,.19-.17.15-.31a1.11,1.11,0,0,0-.08-.21,2.67,2.67,0,0,1-.4,0c-.21,0-.29.07-.33.24s0,.25.18.29,0,0,0,.08h-.66s0-.06,0-.06c.24-.1.3-.32.38-.53.17-.43.35-.86.53-1.29a.6.6,0,0,1,.11-.12s.1.08.12.13c.18.46.35.93.54,1.39.06.17.09.37.32.4,0,0,0,0,0,.09Zm-.18-1.46-.28.7h.53Z"/><path class="cls-4" d="M21.57,12.17h1c0,.06-.05.11-.07.11-.2,0-.21.15-.21.3v1c0,.18,0,.38.23.43a.54.54,0,0,0,.62-.25,1.62,1.62,0,0,1,.1-.18l.05,0v.53H21.6s0-.1,0-.1c.21,0,.23-.16.23-.32V12.57c0-.15,0-.27-.2-.29S21.62,12.22,21.57,12.17Z"/><path class="cls-4" d="M18.13,12.31c0,.5,0,1,0,1.5,0,.07.11.14.18.21a.6.6,0,0,0,.11.06v.05H17.36c.07-.05.1-.1.13-.1s.2-.13.2-.26c0-.48,0-1,0-1.47a.48.48,0,0,0-.64.45L17,12.7v-.53h1.82l0,.52-.05.05C18.69,12.42,18.51,12.2,18.13,12.31Z"/><path class="cls-4" d="M27.67,12.74A.48.48,0,0,0,27,12.3c0,.51,0,1,0,1.54,0,.06.1.12.16.18a.75.75,0,0,0,.13.06l0,.05H26.25a1.15,1.15,0,0,1,.14-.11.2.2,0,0,0,.2-.23V12.32c-.33-.08-.35-.06-.7.41v-.56h1.83l0,.52Z"/><path class="cls-4" d="M28.09,12.17h1c-.08.07-.11.11-.15.12s-.17.12-.17.25c0,.39,0,.78,0,1.16,0,.16,0,.28.2.32s.05.05.09.11H28c.07-.06.1-.1.14-.11a.22.22,0,0,0,.16-.24V12.53c0-.13,0-.23-.19-.25H28Z"/><path class="cls-4" d="M2.05,18.48l.1.37a.41.41,0,0,1,0,.12l-.69.17a.19.19,0,0,1-.15-.09,2.87,2.87,0,0,1-.09-.37Z"/><path class="cls-4" d="M7.66,2.45,7.54,2l.8-.2,0,.06c.12.42.12.42-.3.52Z"/><path class="cls-4" d="M14.15,21l-.82.2-.13-.48.83-.2Z"/><path class="cls-4" d="M28,6.66l-.47.1-.15-.59.49-.12Z"/><path class="cls-4" d="M27.09,1.48l.47-.12.15.59-.48.13Z"/><path class="cls-4" d="M36.69,6.35l.52-.29.23.41-.51.29Z"/><path class="cls-4" d="M35.24,2.51l-.51.29-.24-.41L35,2.1Z"/><path class="cls-4" d="M4.7,6.56l-.52.28L4,6.43l.51-.28Z"/><path class="cls-4" d="M37.06,18.65l-.52.28-.23-.41.52-.29Z"/><path class="cls-4" d="M33.85,5.34l.22.42L33.56,6l-.23-.41Z"/><path class="cls-4" d="M22.5,4.24,22,4.53l-.23-.42.52-.28Z"/><path class="cls-4" d="M27.19,18.78l.23.41-.52.28-.23-.41Z"/><path class="cls-4" d="M11.93,3.39l.23.41-.53.29-.22-.42Z"/><path class="cls-4" d="M17.21,3.74,17,3.33,17.49,3l.23.4Z"/><path class="cls-4" d="M20.66,23.59l-.23-.41L21,22.9l.23.4Z"/><path class="cls-4" d="M4.14,21.11,4,20.62l.46-.11.13.48Z"/><path class="cls-4" d="M29.07,22.06,29,21.94l-.15-.31.44-.22.22.42Z"/><path class="cls-4" d="M35.14,21.31l.08-.23.29.08-.07.23Z"/><path class="cls-4" d="M2.34,5.39l-.24,0L2,5.15l.23-.06Z"/><path class="cls-4" d="M19.65,4.62l-.07.23-.29-.08.06-.23Z"/><path class="cls-4" d="M19.49,6.83l-.08.23L19.13,7l.07-.24Z"/><path class="cls-4" d="M26,4.17l-.08.23-.28-.09.06-.22Z"/><path class="cls-4" d="M11.84,18.55l-.06-.27.22-.05C12.11,18.54,12.11,18.54,11.84,18.55Z"/><path class="cls-4" d="M4,3.83l.29.09-.07.23-.29-.09Z"/><path class="cls-4" d="M22.09,18.67l.28.09L22.3,19,22,18.91Z"/><path class="cls-4" d="M33.78,19.22l.29.08-.07.23-.29-.08Z"/><path class="cls-4" d="M15.4,19.38l.24-.05.07.28-.23.06Z"/><path class="cls-4" d="M11.93,6l.29.07-.06.24-.29-.09Z"/><path class="cls-4" d="M17,22.16l.23-.06.07.29-.23.07Z"/><path class="cls-4" d="M2.33,22.85l-.07.22L2,23,2,22.75Z"/><path class="cls-4" d="M30,2.13l.28.08-.06.23-.29-.08Z"/><path class="cls-4" d="M23.52,5.53l.29.09-.07.23-.29-.08Z"/><path class="cls-4" d="M23.27,2.17,23.33,2l.26.07C23.58,2.28,23.58,2.28,23.27,2.17Z"/><path class="cls-4" d="M6.41,18.44l.29.08-.06.23-.3-.08Z"/><path class="cls-4" d="M30.9,18.1l.22-.06.07.29L31,18.4Z"/><path class="cls-4" d="M12.16,22.84l-.29-.09.06-.23.28.07Z"/><path class="cls-4" d="M7.68,4.64l-.23.06-.07-.29.23-.06Z"/><path class="cls-4" d="M2,1.59l.23,0,.08.29-.24,0Z"/><path class="cls-4" d="M9,6.37l.23,0,.08.29-.24.06Z"/><path class="cls-4" d="M14.86,2.08,14.57,2l.07-.23.28.08Z"/><path class="cls-4" d="M19.73,2,20,2,20,2.26l-.29-.08Z"/></g></g></svg>