<svg xmlns="http://www.w3.org/2000/svg" viewBox="0 0 38.55 24.66"><defs><style>.cls-1{isolation:isolate;}.cls-2{opacity:0.15;}.cls-2,.cls-3{mix-blend-mode:multiply;}.cls-4{fill:#fff;}</style></defs><title>convert-FIX-SVG-03</title><g class="cls-1"><g id="Layer_1" data-name="Layer 1"><g class="cls-2"><path d="M12.6,21l-3.08.42L9.32,20c-.62.32-1.21.71-2,.38a7.31,7.31,0,0,0,.31,2.44c-.2.07-.31,0-.34-.19-.08-.41-.17-.83-.26-1.27a5.77,5.77,0,0,0-.43,1.47H6.37A5.67,5.67,0,0,1,7,20.88a1.47,1.47,0,0,0,.1-.56S7,20.23,7,20.21a2.5,2.5,0,0,1-1.3-2.52,6,6,0,0,1,1.56-3.22l.12-.14h0c-.22-.24-.44-.47-.64-.71a4.67,4.67,0,0,1-1-2.6,8.76,8.76,0,0,1,.07-2.11.25.25,0,0,0-.08-.19,2.92,2.92,0,0,1-.76-2.86,2.11,2.11,0,0,1,1-1.09,3.79,3.79,0,0,1,1.77-.52,1.93,1.93,0,0,1,1.41.52l.16.13h.06V4.32a7.54,7.54,0,0,1,.94.25,2.58,2.58,0,0,0,1.93,0c.46-.17,1-.26,1.44-.39h.07c0,.32,0,.64,0,1a.83.83,0,0,0,.06.21s.12-.07.16-.11a1.86,1.86,0,0,1,2-.58,4.34,4.34,0,0,1,1.72.88,1.7,1.7,0,0,1,.6,1.55,3.71,3.71,0,0,1-.76,2,.42.42,0,0,0,0,.25A6.58,6.58,0,0,1,16.77,13a13,13,0,0,1-.9,1.28c.16.2.37.44.56.7a5.76,5.76,0,0,1,1.1,2.33A3.05,3.05,0,0,1,17.38,19a2.1,2.1,0,0,1-1.14,1.2c-.26.11-.29.24-.11.47a4.75,4.75,0,0,1,.75,2.09c-.18.05-.27,0-.32-.18-.1-.44-.25-.87-.39-1.31a.72.72,0,0,0-.11-.19c-.09.5-.19,1-.27,1.49,0,.2-.14.26-.34.2a7.55,7.55,0,0,0,.31-2.36h-1l0,.2-1,.14.76,1.64-.56-.3-.27.62-.38-1.86c-.19-.07-.24,0-.26.19,0,.51-.11,1-.18,1.6l-.33-.6-.48.32,0,0Zm1.75-1.52-.22.31s-.09.08-.09.12c0,.28-.11.48-.45.48.05.07.11.17.16.17.24,0,.47-.07.72-.1l-.12-1L14,16.7l-4.72.66.52,3.7c.95-.13,1.86-.26,2.78-.37.21,0,.24-.17.28-.35a.56.56,0,0,1-.67-.36s0-.07-.07-.07c-.21-.05-.14-.18-.09-.31s.13-.32.18-.49.13-.34.31-.34a.54.54,0,0,0,.37-.2.42.42,0,0,1,.72.06c0,.06.14.08.2.13s.26.14.25.2C14,19.23,14.21,19.3,14.35,19.43Zm-3-14H9.66a.35.35,0,0,0-.2,0c-.18.11-.35.25-.54.36a10.93,10.93,0,0,0-1,.61A4.24,4.24,0,0,0,6.75,7.8c-.17.3-.28.65-.62.83,0,0-.06.1-.07.16A7.74,7.74,0,0,0,6,11.19a4.2,4.2,0,0,0,1.17,2.52A4.87,4.87,0,0,0,10.24,15a11.76,11.76,0,0,0,1.33,0,14.51,14.51,0,0,0,2-.08A3.85,3.85,0,0,0,16.44,13a6.52,6.52,0,0,0,.72-3.78s-.05-.1-.08-.14a1.27,1.27,0,0,1-.47-.89.33.33,0,0,0-.08-.18A5,5,0,0,0,15,6.58a9,9,0,0,1-1-.65c-.13-.09-.22-.25-.36-.31A2,2,0,0,0,13,5.45C12.43,5.43,11.89,5.44,11.35,5.44ZM8.92,17.13a.81.81,0,0,1,.2,0,.26.26,0,0,0,.3-.26c0-.29.09-.57.13-.86l.67-.15,0-.08c-1.29-.76-2.41-.26-3.49.54l-.17-.2a3.87,3.87,0,0,1,2.44-1c-.39-.18-.8-.36-1.21-.57-.12-.06-.19-.06-.26.05-.35.5-.75,1-1,1.52A3.38,3.38,0,0,0,6,18.45a2,2,0,0,0,2.09,1.74A.3.3,0,0,0,8.4,20c.15-.46.31-.92.49-1.37A1.72,1.72,0,0,0,9,17.54C9,17.42,9,17.29,8.92,17.13Zm7.61-.84a4.18,4.18,0,0,0-1.69-.86,2.29,2.29,0,0,0-1.87.39l.75.16,0,.46.44,0c.08.52.15,1,.22,1.54A6.79,6.79,0,0,0,14.87,20c0,.07.12.17.18.17a2,2,0,0,0,1.7-.63,2.42,2.42,0,0,0,.52-2.09,5.67,5.67,0,0,0-1.22-2.51c-.14-.19-.3-.36-.42-.5l-1.27.64a4,4,0,0,1,2.34,1ZM8.07,6.09,9.2,5.34a1.87,1.87,0,0,0-1.77-.82A3.91,3.91,0,0,0,6,5a1.81,1.81,0,0,0-.85,1.07,2.71,2.71,0,0,0,.72,2.4l.41-.33c-.65-.85-.69-1.4-.17-1.95A1.34,1.34,0,0,1,8.07,6.09Zm7,.24A1.16,1.16,0,0,1,16,5.92a1.52,1.52,0,0,1,1.26,1A1.09,1.09,0,0,1,17,8.16a.31.31,0,0,0-.07.2,1,1,0,0,0,.35.55A3.46,3.46,0,0,0,18,7a1.51,1.51,0,0,0-.75-1.44,8.92,8.92,0,0,0-.91-.49,2.34,2.34,0,0,0-1.13-.23A1.49,1.49,0,0,0,14,5.59Zm-1.92,9H9.94A1.68,1.68,0,0,1,11,16.83l1.2-.17s.08-.05.09-.08A1.72,1.72,0,0,1,13.19,15.31Z"/><path d="M5.87,3.08l3.18-.69L10.91,2a.45.45,0,0,1,.2,0L16,3l.19,0-1.89.6-2.95.92a.61.61,0,0,1-.3,0L6,3.13Z"/><path d="M22.31,9.65l-.15.62H22.1l0-.28c0-.18-.12-.26-.31-.27a2.36,2.36,0,0,0-2,.89,2.23,2.23,0,0,0-.66,1.5,1.13,1.13,0,0,0,.79,1.15,1.64,1.64,0,0,0,.93.07,1,1,0,0,0,.62-.41l.19-.27h.06a1.3,1.3,0,0,1,0,.21c-.16.53-.16.54-.72.58a7.64,7.64,0,0,1-1.07,0,1.41,1.41,0,0,1-1.16-2A3.21,3.21,0,0,1,21.43,9.6h.68Z"/><path d="M27,13.56c-.34-.35-.34-.35,0-.58l.22-.13a2.86,2.86,0,0,1-.24-.3A1.15,1.15,0,0,1,27.9,11l.22,0c.17,0,.33,0,.49.09s.09.07.14.11l0,.06-.33,0a1.16,1.16,0,0,1-.29,1.21,3.56,3.56,0,0,1-.61.4h0l-.32.22a1.48,1.48,0,0,0,.28.28c.24.14.49.23.74.36a.54.54,0,0,1,.3.58.55.55,0,0,1-.42.43,2.43,2.43,0,0,1-1.66,0l-.16-.09c-.35-.24-.35-.48,0-.69l.39-.2Zm.24,1.25a5.47,5.47,0,0,0,.7-.18c.31-.11.37-.37.1-.56a7.16,7.16,0,0,0-.88-.43.12.12,0,0,0-.1,0,5.33,5.33,0,0,0-.63.33.31.31,0,0,0,0,.58A6.7,6.7,0,0,0,27.25,14.81Zm.94-3.38c-.05-.06-.11-.22-.2-.24a.43.43,0,0,0-.36.13,2,2,0,0,0-.41,1.1.36.36,0,0,0,.18.31.38.38,0,0,0,.34-.11A2.07,2.07,0,0,0,28.19,11.43Z"/><path d="M25.81,13.25l.51-.54,0,0a1.72,1.72,0,0,1-.64.67.74.74,0,0,1-.3,0,.76.76,0,0,1,0-.26c.22-.5.45-1,.66-1.51a1.51,1.51,0,0,0,.07-.37,1.63,1.63,0,0,0-.35.17,5.91,5.91,0,0,0-1.27,1.82c-.09.19-.09.19-.34.16l.81-2.1-.09-.06-.5.47a1.32,1.32,0,0,1,.77-.72c.18,0,.17.09.13.2-.1.3-.21.59-.32.89a.18.18,0,0,0,0,.13l.45-.56a5.1,5.1,0,0,1,.46-.47,1,1,0,0,1,.36-.2.2.2,0,0,1,.25.26,3.78,3.78,0,0,1-.21.62c-.15.36-.31.72-.47,1.08,0,.07,0,.14-.07.21Z"/><path d="M31.9,12.67c-.26.23-.53.48-.81.7a.42.42,0,0,1-.53.06c-.18-.13-.13-.33-.09-.51a2.25,2.25,0,0,1,1.36-1.59,2.59,2.59,0,0,1,.6-.1l.25-.13.07.06c-.12.34-.25.68-.37,1l-.39,1,0,0,.55-.48,0,.05a1.7,1.7,0,0,1-.77.68c-.16,0-.23-.05-.17-.22S31.83,12.85,31.9,12.67Zm-.91.57a.42.42,0,0,0,.15-.06,2.58,2.58,0,0,0,1.1-1.47.29.29,0,0,0-.05-.28.34.34,0,0,0-.31,0A2.34,2.34,0,0,0,30.77,13C30.74,13.11,30.8,13.23,31,13.24Z"/><path d="M22.21,12.67a2,2,0,0,1,.8-1.45c.48-.37.91-.19.95.41a1.86,1.86,0,0,1-.76,1.69.7.7,0,0,1-.62.15C22.33,13.39,22.21,13.17,22.21,12.67Zm1.56-1.25c0-.06-.07-.2-.15-.23a.36.36,0,0,0-.3.07,2.8,2.8,0,0,0-.85,1.84c0,.22.17.33.38.24A.62.62,0,0,0,23,13.2,3.78,3.78,0,0,0,23.77,11.42Z"/><path d="M29.48,12.25a9.61,9.61,0,0,1,.53-.87,1,1,0,0,1,.4-.32.34.34,0,0,1,.31.09.37.37,0,0,1,0,.31.28.28,0,0,1-.21.15s-.11-.11-.15-.17-.05-.1-.08-.14-.16.07-.19.13q-.5.86-1,1.71c0,.06,0,.14-.09.19a1.59,1.59,0,0,1-.21.15c0-.08-.07-.18-.05-.25.18-.56.38-1.12.57-1.68a1.55,1.55,0,0,0,.06-.23l-.06,0-.49.53-.05-.05a1.82,1.82,0,0,1,.66-.69c.19-.09.29,0,.25.19s-.18.59-.27.89l0,.09Z"/><path d="M34,12.64a2,2,0,0,1-.85.79.77.77,0,0,1-.27,0,.87.87,0,0,1,0-.28c.22-.52.45-1,.67-1.55,0-.09.07-.18.12-.29h-.45l0-.07c.05,0,.11-.07.17-.07a.46.46,0,0,0,.53-.37,1.23,1.23,0,0,1,.15-.35c0-.06.15-.07.22-.11s.06.16,0,.22-.17.37-.27.6h.54l0,.08c-.06,0-.12.07-.17.06-.38-.07-.54.12-.65.45s-.33.78-.49,1.17a2.78,2.78,0,0,0-.09.27C33.61,13.11,33.76,12.79,34,12.64Z"/><path d="M35.21,11.53c.1.38.2.7.28,1a.75.75,0,0,1-.84.93c-.23,0-.39-.17-.37-.36A.24.24,0,0,1,34.4,13s.13,0,.18,0,.06.12.1.16.16.19.22.18a.39.39,0,0,0,.26-.2,1.21,1.21,0,0,0,0-.5c0-.22-.13-.43-.17-.65a.76.76,0,0,1,.75-1c.2,0,.34.12.33.28a.29.29,0,0,1-.09.2s-.13,0-.19,0-.07-.08-.11-.1-.22-.15-.27-.12S35.26,11.45,35.21,11.53Z"/><path d="M28.27,7.85l.11-.43.74.17L29,8Z"/><path d="M19.54,7.86a.56.56,0,0,0,0-.07c.06-.39.06-.39.44-.29l.39.1a1.18,1.18,0,0,1,0,.2c0,.07,0,.14-.06.23Z"/><path d="M17.82,15.49l-.43-.11.12-.53.43.1Z"/><path d="M5.22,2.36l-.13.54-.43-.1.12-.54Z"/><path d="M31.14,18.67l.12-.53.43.09-.12.53Z"/><path d="M24.91,15.46l.12-.54.43.1-.12.54Z"/><path d="M22.74,20l.44.11-.13.54-.43-.1Z"/><path d="M23.18,7.28l-.13.54-.43-.1.12-.53Z"/><path d="M3.3,17.68l-.43-.1L3,17l.43.09Z"/><path d="M34.41,3.46,34.27,4l-.42-.1L34,3.36Z"/><path d="M17.64,19.84l.21-.37.47.26-.21.37Z"/><path d="M18.93,4.39l-.2.37-.47-.26.21-.37Z"/><path d="M3.37,7.48l.47.26-.21.37-.46-.25Z"/><path d="M4.25,13.74l-.48-.25.2-.37.48.25Z"/><path d="M31.44,9l.2-.37.47.25-.2.38Z"/><path d="M34.81,15.82l-.22.37-.46-.27.21-.37Z"/><path d="M5.69,22.22,5.23,22l.21-.36.46.26Z"/><path d="M6.32,15.09l-.46-.26.21-.37.46.26Z"/><path d="M26.4,19.84l.21-.37.46.26-.21.37Z"/><path d="M27.69,4.4l-.21.36L27,4.5l.21-.37Z"/><path d="M2.45,10.71l.21-.37.47.25L2.92,11Z"/><path d="M29.48,3.26l.21-.38.4.21-.2.38Z"/><path d="M3.33,5.85l-.41-.2.2-.39.4.21Z"/><path d="M28.7,21.75l.11-.43.42.1-.1.43Z"/><path d="M25.33,19.1l-.42-.1.1-.44.43.1Z"/><path d="M20.73,3.26l.2-.38.41.2-.21.39Z"/><path d="M31.6,7l-.41-.21.2-.39.4.21Z"/><path d="M20,21.75l.11-.43.42.1-.11.43Z"/><path d="M3,3.85l.21,0,0,.26L3,4.11Z"/><path d="M3.47,14.9l-.07-.18c.26-.13.26-.13.31.11Z"/><path d="M28.94,17l-.06-.21.25-.08.07.21Z"/><path d="M18.88,14.35l-.07.25-.21,0,.06-.26Z"/><path d="M29.1,19.52l-.05.24h-.21l.05-.29Z"/><path d="M22.77,17.68l-.21-.06.05-.24.22,0Z"/><path d="M34.72,20.05,34.53,20l.06-.22C34.82,19.77,34.84,19.8,34.72,20.05Z"/><path d="M32,15.92l-.26.08-.07-.2.25-.08Z"/><path d="M3.08,20.22l0,.2-.25.08-.07-.2Z"/><path d="M32.45,19.92l-.05-.21.24-.08.08.2Z"/><path d="M22,5.48,22,5.74l-.2,0C21.79,5.54,21.77,5.36,22,5.48Z"/><path d="M31.43,5.24l-.21,0L31.27,5l.22,0Z"/><path d="M5.22,9.52l-.06.27L5,9.75l0-.26Z"/><path d="M22.25,14.9l-.06.24H22l0-.28Z"/><path d="M29.78,14.93c-.24,0-.24,0-.13-.3l.19.06Z"/><path d="M34.13,7.84l.2,0,0,.26-.21,0Z"/><path d="M26.42,17.69l.19,0-.05.22C26.33,18,26.31,17.94,26.42,17.69Z"/><path d="M26.38,8.89l-.05.27-.21-.05.05-.24Z"/><path d="M4.37,18.54c.13.24,0,.24-.18.28l-.08-.2Z"/><path d="M24,3.29l-.2-.06L23.87,3C24.1,3,24.11,3,24,3.29Z"/><path d="M24.73,6.84,25,6.77l.06.2L24.81,7Z"/><path d="M34.14,21.58l-.21-.06c0-.07,0-.15,0-.19s.13,0,.22,0Z"/><path d="M20.45,16.87l-.27.08-.06-.2.25-.09Z"/><path d="M20.08,19.75l.06-.28.21.05-.06.24Z"/><path d="M29.56,6.05l-.21,0,0-.26.21,0Z"/><path d="M31.1,21.39l.23-.07.08.18C31.15,21.62,31.14,21.62,31.1,21.39Z"/><path d="M11.34,9.32a3.41,3.41,0,0,1,2.36.77,2.76,2.76,0,0,1-.55,4.32,3.35,3.35,0,0,1-3.9-.36,2.54,2.54,0,0,1-.87-2.4,2.46,2.46,0,0,1,2.31-2.27ZM8.65,12.05a2,2,0,0,0,.74,1.76,3.08,3.08,0,0,0,3.56.4,2.39,2.39,0,0,0,1.25-2.49,2.14,2.14,0,0,0-1.51-1.91,4.08,4.08,0,0,0-1.87-.18A2.25,2.25,0,0,0,8.65,12.05Z"/><path d="M7.76,10.09c0-.35.22-.63.49-.62a.55.55,0,0,1,.48.61c0,.36-.2.66-.48.66S7.76,10.46,7.76,10.09Z"/><path d="M15.07,10.09c0,.37-.22.66-.5.65a.59.59,0,0,1-.47-.67c0-.35.23-.61.49-.6S15.06,9.75,15.07,10.09Z"/><path d="M9.69,13.56l.27-.34.54.39c.09.06.16.08.24,0a1,1,0,0,1,.16-.12.45.45,0,0,0,0-.79L10.05,12c.12-.15.22-.3.34-.43a.33.33,0,0,1,.22-.08h1.56c.17,0,.29,0,.36.2s.13.21.2.33l-1,.78a.45.45,0,0,0,0,.65c.36.26.36.26.72,0l.31-.22.27.34c-.3.21-.59.42-.89.61a.25.25,0,0,1-.19,0,4.25,4.25,0,0,1-.43-.31.24.24,0,0,0-.37,0,4.27,4.27,0,0,1-.44.3.2.2,0,0,1-.18,0Z"/><path d="M12.8,21.15l-3.08.42-.2-1.41c-.62.33-1.22.72-2,.39A7.31,7.31,0,0,0,7.87,23c-.2.07-.31,0-.35-.19-.07-.42-.16-.83-.25-1.27A5.4,5.4,0,0,0,6.84,23H6.56a5.84,5.84,0,0,1,.62-1.92,1.48,1.48,0,0,0,.1-.57s-.07-.08-.11-.1a2.5,2.5,0,0,1-1.3-2.52,6,6,0,0,1,1.56-3.22l.12-.14s0,0,0,0c-.22-.24-.44-.47-.65-.71a4.73,4.73,0,0,1-1-2.6A8.28,8.28,0,0,1,6,9.11a.29.29,0,0,0-.08-.19,2.93,2.93,0,0,1-.76-2.86A2,2,0,0,1,6.07,5a3.8,3.8,0,0,1,1.77-.53A1.91,1.91,0,0,1,9.24,5l.17.13h.06v-.6a7.51,7.51,0,0,1,.94.26,2.58,2.58,0,0,0,1.93,0c.46-.17,1-.26,1.44-.39h.07v1a.86.86,0,0,0,.07.21,1.67,1.67,0,0,0,.16-.12,1.87,1.87,0,0,1,2-.57,4.34,4.34,0,0,1,1.72.88,1.72,1.72,0,0,1,.6,1.55,3.65,3.65,0,0,1-.77,2,.47.47,0,0,0,0,.25A6.67,6.67,0,0,1,17,13.2a13,13,0,0,1-.9,1.28c.16.2.37.44.56.7a5.76,5.76,0,0,1,1.1,2.33,3,3,0,0,1-.16,1.72,2,2,0,0,1-1.13,1.19c-.26.12-.29.25-.12.48A4.76,4.76,0,0,1,17.08,23c-.19.05-.27,0-.32-.18-.1-.44-.26-.87-.39-1.31a1.18,1.18,0,0,0-.11-.19c-.09.5-.19,1-.27,1.49,0,.2-.14.26-.35.19A7.21,7.21,0,0,0,16,20.64H15l0,.2L14,21l.76,1.64-.56-.3-.27.62-.38-1.86c-.19-.07-.24,0-.26.19-.05.51-.12,1-.18,1.6l-.33-.6-.48.32,0,0Zm1.75-1.52-.23.31s-.08.08-.09.12c0,.28-.1.48-.44.48.05.07.11.17.16.16a6.22,6.22,0,0,0,.72-.1l-.12-1-.4-2.73-4.72.65L10,21.26c1-.13,1.86-.26,2.78-.37.21,0,.24-.17.28-.35a.56.56,0,0,1-.67-.36s0-.07-.07-.07c-.21-.05-.14-.18-.09-.31a4,4,0,0,0,.17-.49c.05-.17.13-.34.32-.35a.48.48,0,0,0,.37-.2.42.42,0,0,1,.72.07c.05.06.14.08.2.13s.26.14.25.2C14.19,19.43,14.41,19.5,14.55,19.63Zm-3-14H9.86a.35.35,0,0,0-.2.05c-.18.11-.35.25-.54.36a10.93,10.93,0,0,0-1,.61A4.14,4.14,0,0,0,7,8c-.17.29-.28.64-.62.82A.29.29,0,0,0,6.26,9a7.74,7.74,0,0,0-.07,2.4,4.2,4.2,0,0,0,1.17,2.52,4.9,4.9,0,0,0,3.07,1.3c.44,0,.89,0,1.33,0a18.7,18.7,0,0,0,2-.08,3.88,3.88,0,0,0,2.89-1.92,6.52,6.52,0,0,0,.72-3.78c0-.05-.05-.1-.08-.14a1.25,1.25,0,0,1-.47-.89.39.39,0,0,0-.08-.19,5.16,5.16,0,0,0-1.58-1.47,7.63,7.63,0,0,1-1-.64c-.13-.1-.23-.25-.36-.31a2,2,0,0,0-.67-.17C12.63,5.62,12.09,5.64,11.55,5.64ZM9.12,17.33a.88.88,0,0,1,.2,0A.24.24,0,0,0,9.61,17c0-.29.09-.58.14-.86l.66-.15v-.09c-1.29-.76-2.41-.25-3.49.54l-.17-.19a3.87,3.87,0,0,1,2.44-1c-.39-.18-.81-.36-1.21-.57-.12-.06-.19-.06-.26,0a17.14,17.14,0,0,0-1,1.52,3.36,3.36,0,0,0-.48,2.36,2,2,0,0,0,2.09,1.74.3.3,0,0,0,.33-.23c.15-.46.31-.92.49-1.37a1.72,1.72,0,0,0,.09-1.05C9.16,17.61,9.15,17.49,9.12,17.33Zm7.61-.84A4.06,4.06,0,0,0,15,15.63a2.28,2.28,0,0,0-1.87.38l.75.17,0,.46.44,0c.08.53.15,1,.22,1.55a6.63,6.63,0,0,0,.46,2.05c0,.07.11.16.18.17a2,2,0,0,0,1.7-.63,2.42,2.42,0,0,0,.52-2.09,5.7,5.7,0,0,0-1.22-2.52c-.14-.18-.3-.35-.43-.49l-1.26.64a4,4,0,0,1,2.34,1ZM8.27,6.28,9.4,5.54a1.87,1.87,0,0,0-1.77-.82,3.91,3.91,0,0,0-1.45.5,1.78,1.78,0,0,0-.85,1.07A2.71,2.71,0,0,0,6,8.69l.42-.34C5.81,7.51,5.77,7,6.29,6.41A1.34,1.34,0,0,1,8.27,6.28Zm7,.25a1.18,1.18,0,0,1,.94-.41,1.49,1.49,0,0,1,1.25,1,1.09,1.09,0,0,1-.31,1.27.26.26,0,0,0-.07.2,1,1,0,0,0,.35.55,3.49,3.49,0,0,0,.72-1.9,1.5,1.5,0,0,0-.76-1.44,7.84,7.84,0,0,0-.9-.49,2.23,2.23,0,0,0-1.13-.23,1.49,1.49,0,0,0-1.22.73Zm-1.91,9H10.14A1.68,1.68,0,0,1,11.2,17l1.2-.17s.08-.05.09-.08A1.72,1.72,0,0,1,13.39,15.51Z"/><path d="M6.07,3.28l3.18-.69,1.86-.39a.45.45,0,0,1,.2,0l4.87,1.05.19,0-1.9.6-2.94.91a.51.51,0,0,1-.3,0l-5-1.49Z"/><path d="M22.51,9.85l-.16.62H22.3a2.48,2.48,0,0,1,0-.27c0-.18-.12-.26-.31-.27a2.38,2.38,0,0,0-2.05.89,2.26,2.26,0,0,0-.65,1.5,1.12,1.12,0,0,0,.79,1.15,1.64,1.64,0,0,0,.93.07,1,1,0,0,0,.62-.41l.19-.27h.06a1.55,1.55,0,0,1,0,.21c-.16.53-.16.54-.72.57a5.46,5.46,0,0,1-1.07,0,1.41,1.41,0,0,1-1.16-2A3.22,3.22,0,0,1,21.63,9.8c.22,0,.45,0,.68,0A1.43,1.43,0,0,1,22.51,9.85Z"/><path d="M27.21,13.76c-.34-.35-.34-.35.05-.58l.22-.13a2.86,2.86,0,0,1-.24-.3,1.14,1.14,0,0,1,.85-1.51.85.85,0,0,1,.23,0c.17,0,.33.05.49.09s.09.07.14.11l-.05.06-.32,0a1.19,1.19,0,0,1-.29,1.21,3,3,0,0,1-.61.39h0a3.62,3.62,0,0,0-.32.22,1.48,1.48,0,0,0,.28.28c.23.14.49.23.74.36a.51.51,0,0,1,.29.58.52.52,0,0,1-.41.43,2.43,2.43,0,0,1-1.66-.05l-.16-.1c-.36-.23-.35-.47,0-.68l.39-.2ZM27.45,15c.26-.07.49-.1.7-.18s.36-.38.1-.56a6.65,6.65,0,0,0-.89-.43.14.14,0,0,0-.09,0,6.48,6.48,0,0,0-.64.34.31.31,0,0,0,.05.58A7.58,7.58,0,0,0,27.45,15Zm.94-3.39c-.05,0-.11-.21-.2-.23a.43.43,0,0,0-.36.13,2.1,2.1,0,0,0-.42,1.1.41.41,0,0,0,.18.31.39.39,0,0,0,.35-.11A2.18,2.18,0,0,0,28.39,11.62Z"/><path d="M26,13.45l.5-.54,0,.05a1.87,1.87,0,0,1-.64.67.75.75,0,0,1-.3,0,.75.75,0,0,1,0-.26c.21-.5.45-1,.66-1.51a1.51,1.51,0,0,0,.07-.37,1.27,1.27,0,0,0-.35.17,6,6,0,0,0-1.27,1.81c-.09.2-.09.2-.34.17l.81-2.1-.09-.06-.5.47a1.34,1.34,0,0,1,.77-.73c.18,0,.17.1.13.2-.1.3-.22.6-.32.9a.17.17,0,0,0,0,.13l.45-.56a4.08,4.08,0,0,1,.46-.47,1,1,0,0,1,.36-.2c.18-.05.3.08.25.26a3.39,3.39,0,0,1-.21.61c-.15.37-.31.73-.47,1.09a1.29,1.29,0,0,0-.07.21Z"/><path d="M32.1,12.87c-.26.23-.53.48-.82.7a.44.44,0,0,1-.53.06c-.17-.13-.12-.33-.08-.51A2.23,2.23,0,0,1,32,11.53a2.59,2.59,0,0,1,.6-.1l.25-.14.07.07c-.13.33-.25.67-.37,1l-.4,1,0,0,.54-.48,0,0a1.67,1.67,0,0,1-.77.69c-.16.05-.23,0-.18-.23S32,13.05,32.1,12.87Zm-.91.57a.42.42,0,0,0,.15-.06,2.69,2.69,0,0,0,1.1-1.47.29.29,0,0,0,0-.28.37.37,0,0,0-.31,0A2.35,2.35,0,0,0,31,13.19C30.94,13.31,31,13.43,31.19,13.44Z"/><path d="M22.4,12.86a2,2,0,0,1,.8-1.45c.49-.36.91-.18,1,.42a1.85,1.85,0,0,1-.77,1.69.64.64,0,0,1-.61.14C22.52,13.59,22.4,13.37,22.4,12.86ZM24,11.62c0-.06-.08-.2-.15-.23a.38.38,0,0,0-.31.07,2.84,2.84,0,0,0-.84,1.84c0,.21.17.32.38.23a.55.55,0,0,0,.18-.13A3.78,3.78,0,0,0,24,11.62Z"/><path d="M29.67,12.45c.18-.3.34-.6.54-.88a1,1,0,0,1,.4-.32.39.39,0,0,1,.31.1.36.36,0,0,1,0,.31.28.28,0,0,1-.21.15s-.11-.11-.16-.18a.61.61,0,0,1-.07-.14c-.07,0-.16.08-.2.14-.32.56-.64,1.14-1,1.71a1.08,1.08,0,0,1-.08.19,1.21,1.21,0,0,1-.22.15c0-.08-.06-.18,0-.25.18-.56.38-1.12.57-1.68a1.55,1.55,0,0,0,.06-.23l-.06,0-.49.53L29,12a1.75,1.75,0,0,1,.66-.69c.18-.09.29,0,.24.19s-.17.59-.26.88l0,.1Z"/><path d="M34.23,12.83a2,2,0,0,1-.85.8.64.64,0,0,1-.28,0,.61.61,0,0,1,0-.27c.21-.52.44-1,.67-1.55,0-.09.07-.18.11-.3h-.45l0-.06c.06,0,.12-.07.17-.07a.46.46,0,0,0,.54-.38,1.3,1.3,0,0,1,.15-.34c0-.06.14-.07.22-.11s.06.16,0,.22-.16.37-.27.6h.55v.08a.49.49,0,0,1-.17.06c-.37-.07-.53.12-.64.45s-.33.78-.49,1.17a2.78,2.78,0,0,0-.09.27C33.81,13.31,34,13,34.23,12.83Z"/><path d="M35.41,11.73c.1.38.2.7.28,1a.75.75,0,0,1-.84.92c-.24,0-.39-.17-.37-.35a.26.26,0,0,1,.11-.17.27.27,0,0,1,.19.05s.06.12.1.16.16.19.22.18a.4.4,0,0,0,.26-.21,1.35,1.35,0,0,0,0-.49c0-.22-.13-.43-.17-.65a.77.77,0,0,1,.75-1c.19,0,.33.13.33.29a.25.25,0,0,1-.09.19s-.13,0-.19,0-.07-.08-.11-.1-.22-.15-.28-.12S35.46,11.65,35.41,11.73Z"/><path d="M28.47,8.05l.11-.43.74.17-.1.44Z"/><path d="M19.74,8.06a.23.23,0,0,1,0-.07c.06-.39.06-.39.44-.29l.39.09c0,.08,0,.15,0,.21s0,.14-.06.23Z"/><path d="M18,15.69l-.43-.11.12-.53.43.1Z"/><path d="M5.42,2.56l-.13.54L4.86,3,5,2.46Z"/><path d="M31.34,18.87l.12-.54.43.1-.12.53Z"/><path d="M25.11,15.66l.12-.54.43.1-.12.54Z"/><path d="M22.94,20.16l.43.1-.12.54-.43-.1Z"/><path d="M23.38,7.47,23.25,8l-.43-.1.11-.53Z"/><path d="M3.5,17.87l-.43-.09.11-.54.43.09Z"/><path d="M34.61,3.66l-.14.53-.42-.1.12-.53Z"/><path d="M17.84,20l.21-.37.47.26-.21.37Z"/><path d="M19.13,4.59,18.92,5l-.46-.26.21-.37Z"/><path d="M3.57,7.68,4,7.94l-.21.37-.46-.25Z"/><path d="M4.44,13.94,4,13.69l.2-.37.48.25Z"/><path d="M31.64,9.15l.2-.37.47.25-.21.37Z"/><path d="M35,16l-.22.37-.46-.26.21-.37Z"/><path d="M5.89,22.42l-.47-.27.21-.37L6.1,22Z"/><path d="M6.52,15.29,6.06,15l.21-.37.46.26Z"/><path d="M26.59,20l.22-.37.46.26-.21.37Z"/><path d="M27.89,4.59,27.68,5l-.47-.26.21-.37Z"/><path d="M2.65,10.91l.21-.37.46.25-.2.37Z"/><path d="M29.68,3.45l.21-.37.4.2-.2.39Z"/><path d="M3.53,6.05l-.41-.21.2-.38.4.2Z"/><path d="M28.9,22l.11-.44.42.1-.1.43Z"/><path d="M25.53,19.3l-.42-.1.1-.44.42.1Z"/><path d="M20.93,3.46l.2-.39.4.21-.2.39Z"/><path d="M31.8,7.15l-.41-.21.2-.39.4.2Z"/><path d="M20.15,22l.11-.44.42.1-.11.44Z"/><path d="M3.2,4.05l.21,0-.05.26-.21,0Z"/><path d="M3.67,15.1l-.07-.18c.26-.13.26-.13.31.11Z"/><path d="M29.13,17.15l-.05-.21.25-.08.07.21Z"/><path d="M19.07,14.55,19,14.8l-.21,0,.06-.26Z"/><path d="M29.3,19.72l-.05.24H29l.05-.29Z"/><path d="M23,17.88l-.21-.06,0-.24.21,0Z"/><path d="M34.92,20.25l-.19-.05.06-.23C35,20,35,20,34.92,20.25Z"/><path d="M32.2,16.12l-.26.07L31.87,16l.25-.08Z"/><path d="M3.28,20.42l.05.2-.25.08L3,20.49Z"/><path d="M32.65,20.12l-.06-.21.25-.08.07.2Z"/><path d="M22.22,5.68l0,.25-.21,0C22,5.74,22,5.56,22.22,5.68Z"/><path d="M31.63,5.44l-.21,0,0-.27.22.05Z"/><path d="M5.42,9.72,5.35,10l-.2,0,0-.26Z"/><path d="M22.45,15.1l-.06.24h-.2l0-.28Z"/><path d="M30,15.13c-.24,0-.25-.05-.13-.3l.18.05Z"/><path d="M34.33,8l.2,0-.05.26-.21-.05Z"/><path d="M26.62,17.89l.18.05,0,.22C26.53,18.18,26.51,18.14,26.62,17.89Z"/><path d="M26.58,9.09l0,.27-.21,0,0-.24Z"/><path d="M4.56,18.74c.14.24,0,.24-.17.28l-.08-.2Z"/><path d="M24.22,3.49,24,3.43l.05-.22C24.3,3.19,24.31,3.21,24.22,3.49Z"/><path d="M24.93,7,25.19,7l.07.21L25,7.24Z"/><path d="M34.34,21.78l-.21-.06c0-.07,0-.15,0-.19s.13,0,.22-.05Z"/><path d="M20.65,17.07l-.27.08-.06-.2.25-.09Z"/><path d="M20.27,19.94l.07-.27.2,0-.05.24Z"/><path d="M29.76,6.25l-.21,0,0-.27.22,0Z"/><path d="M31.3,21.58l.23-.07.08.19C31.35,21.82,31.34,21.82,31.3,21.58Z"/><path d="M11.54,9.52a3.43,3.43,0,0,1,2.36.77,2.77,2.77,0,0,1-.55,4.32,3.37,3.37,0,0,1-3.91-.36,2.51,2.51,0,0,1-.86-2.4,2.46,2.46,0,0,1,2.31-2.27ZM8.85,12.25A2.07,2.07,0,0,0,9.58,14a3.08,3.08,0,0,0,3.57.39,2.38,2.38,0,0,0,1.25-2.48A2.14,2.14,0,0,0,12.89,10,4.08,4.08,0,0,0,11,9.83,2.23,2.23,0,0,0,8.85,12.25Z"/><path d="M8,10.29a.57.57,0,0,1,.49-.63.58.58,0,0,1,.48.62.58.58,0,0,1-.48.66C8.17,10.94,8,10.66,8,10.29Z"/><path d="M15.26,10.29c0,.37-.21.65-.49.65a.59.59,0,0,1-.48-.67c0-.36.23-.61.5-.61A.58.58,0,0,1,15.26,10.29Z"/><path d="M9.89,13.76l.26-.35.55.4a.16.16,0,0,0,.24,0l.15-.11a.45.45,0,0,0,0-.79l-.87-.71a3.57,3.57,0,0,1,.34-.43.27.27,0,0,1,.22-.08h1.56a.34.34,0,0,1,.36.19,2,2,0,0,0,.2.34L12,13a.45.45,0,0,0,0,.65c.36.26.36.26.72,0l.31-.22.27.34-.9.61a.19.19,0,0,1-.18,0,3.3,3.3,0,0,1-.43-.3.25.25,0,0,0-.38,0,3.3,3.3,0,0,1-.43.3.23.23,0,0,1-.18,0Z"/></g><g class="cls-3"><path d="M12.46,20.81l-3.08.42-.2-1.41c-.62.33-1.22.72-2,.39a7.31,7.31,0,0,0,.31,2.44c-.2.07-.31,0-.35-.19-.07-.42-.16-.83-.25-1.27a5.4,5.4,0,0,0-.43,1.47H6.22a5.84,5.84,0,0,1,.62-1.92,1.48,1.48,0,0,0,.1-.57s-.07-.08-.11-.1a2.5,2.5,0,0,1-1.3-2.52,6,6,0,0,1,1.56-3.22l.12-.14h0c-.22-.24-.44-.47-.65-.71a4.73,4.73,0,0,1-1-2.6,8.28,8.28,0,0,1,.07-2.11.29.29,0,0,0-.08-.19,2.93,2.93,0,0,1-.76-2.86,2,2,0,0,1,1-1.09A3.8,3.8,0,0,1,7.5,4.1a1.91,1.91,0,0,1,1.4.53l.17.13h.06v-.6a7.51,7.51,0,0,1,.94.26,2.58,2.58,0,0,0,1.93,0c.46-.17,1-.26,1.44-.39h.07V5a.86.86,0,0,0,.07.21,1.67,1.67,0,0,0,.16-.12,1.87,1.87,0,0,1,2-.57,4.34,4.34,0,0,1,1.72.88A1.71,1.71,0,0,1,18.11,7a3.59,3.59,0,0,1-.77,2,.53.53,0,0,0,0,.26,6.67,6.67,0,0,1-.67,3.65,13,13,0,0,1-.9,1.28c.16.2.37.44.56.7a5.76,5.76,0,0,1,1.1,2.33,3,3,0,0,1-.16,1.72,2,2,0,0,1-1.13,1.19c-.26.12-.29.25-.12.48a4.76,4.76,0,0,1,.76,2.09c-.19.05-.27,0-.32-.18-.1-.44-.26-.87-.39-1.31a1.18,1.18,0,0,0-.11-.19c-.09.5-.19,1-.27,1.49,0,.2-.14.26-.35.19a7.21,7.21,0,0,0,.32-2.35h-1l0,.2-1,.14.76,1.64-.56-.3-.27.62-.38-1.86c-.19-.07-.24,0-.26.19-.05.51-.12,1-.18,1.6l-.33-.6-.48.32,0,0Zm1.75-1.52L14,19.6s-.08.08-.09.12c0,.28-.1.48-.44.48.05.07.11.17.16.16a6.22,6.22,0,0,0,.72-.1l-.12-1-.4-2.73-4.72.65.52,3.71c1-.13,1.86-.26,2.78-.37.21,0,.24-.17.28-.35a.56.56,0,0,1-.67-.36s0-.07-.07-.07c-.21-.05-.14-.18-.09-.31A4,4,0,0,0,12,19c.05-.17.13-.34.32-.35a.49.49,0,0,0,.37-.2.42.42,0,0,1,.72.07c.05.06.14.08.2.13s.26.14.25.2C13.85,19.09,14.07,19.16,14.21,19.29Zm-3-14H9.52a.35.35,0,0,0-.2,0c-.18.11-.35.25-.54.36a10.93,10.93,0,0,0-1,.61A4.14,4.14,0,0,0,6.61,7.66c-.17.29-.28.64-.62.82a.29.29,0,0,0-.07.17,7.74,7.74,0,0,0-.07,2.4A4.2,4.2,0,0,0,7,13.57a4.9,4.9,0,0,0,3.07,1.3c.44,0,.89,0,1.33,0a18.81,18.81,0,0,0,2-.08A3.88,3.88,0,0,0,16.3,12.9,6.52,6.52,0,0,0,17,9.12S17,9,16.94,9a1.25,1.25,0,0,1-.47-.89.39.39,0,0,0-.08-.19,5.16,5.16,0,0,0-1.58-1.47,7.71,7.71,0,0,1-1-.65c-.13-.09-.23-.24-.36-.3a2,2,0,0,0-.67-.17C12.29,5.28,11.75,5.3,11.21,5.3ZM8.78,17A.88.88,0,0,1,9,17a.24.24,0,0,0,.29-.25c0-.29.09-.58.14-.86l.66-.16V15.6c-1.29-.76-2.41-.25-3.49.54L6.4,16a3.87,3.87,0,0,1,2.44-1c-.39-.18-.81-.36-1.21-.57-.12-.06-.19-.06-.26,0a17.14,17.14,0,0,0-1,1.52,3.36,3.36,0,0,0-.48,2.36,2,2,0,0,0,2.09,1.74.3.3,0,0,0,.33-.23c.15-.46.31-.92.49-1.37a1.72,1.72,0,0,0,.09-1.05C8.82,17.27,8.8,17.15,8.78,17Zm7.61-.84a4.06,4.06,0,0,0-1.69-.86,2.28,2.28,0,0,0-1.87.38l.75.17,0,.46.44,0c.08.53.15,1,.22,1.55a6.63,6.63,0,0,0,.46,2.05c0,.07.11.16.18.17a1.93,1.93,0,0,0,1.7-.64,2.39,2.39,0,0,0,.52-2.08,5.7,5.7,0,0,0-1.22-2.52c-.14-.18-.3-.35-.43-.49l-1.27.64a4,4,0,0,1,2.35,1ZM7.93,5.94,9.06,5.2a1.87,1.87,0,0,0-1.77-.82,3.91,3.91,0,0,0-1.45.5A1.78,1.78,0,0,0,5,6a2.71,2.71,0,0,0,.71,2.4L6.12,8c-.65-.84-.7-1.39-.17-1.94A1.34,1.34,0,0,1,7.93,5.94Zm7,.25a1.18,1.18,0,0,1,.94-.41,1.49,1.49,0,0,1,1.25,1A1.09,1.09,0,0,1,16.84,8a.26.26,0,0,0-.07.2,1,1,0,0,0,.35.55,3.5,3.5,0,0,0,.72-1.91,1.5,1.5,0,0,0-.76-1.43,7.21,7.21,0,0,0-.91-.49,2.17,2.17,0,0,0-1.12-.23,1.49,1.49,0,0,0-1.22.73Zm-1.91,9H9.8a1.68,1.68,0,0,1,1.06,1.52l1.2-.17s.08-.05.09-.08A1.72,1.72,0,0,1,13.05,15.17Z"/><path d="M5.73,2.94l3.18-.69,1.86-.39a.45.45,0,0,1,.2,0l4.87,1L16,3l-1.9.6-2.94.91a.52.52,0,0,1-.3,0L5.85,3Z"/><path d="M22.17,9.51l-.16.62H22a2.48,2.48,0,0,1,0-.27c0-.18-.12-.26-.31-.28a2.41,2.41,0,0,0-2.05.9,2.26,2.26,0,0,0-.65,1.5,1.12,1.12,0,0,0,.79,1.15,1.64,1.64,0,0,0,.93.07,1,1,0,0,0,.62-.41l.19-.27h.06a1.55,1.55,0,0,1,0,.21c-.16.53-.16.54-.72.57a5.46,5.46,0,0,1-1.07,0,1.41,1.41,0,0,1-1.16-2,3.22,3.22,0,0,1,2.77-1.88c.22,0,.45,0,.68,0A1.88,1.88,0,0,1,22.17,9.51Z"/><path d="M26.87,13.42c-.34-.35-.34-.35.05-.58l.21-.13c-.08-.11-.17-.2-.23-.3a1.14,1.14,0,0,1,.85-1.51.85.85,0,0,1,.23,0c.17,0,.33.05.49.09s.09.07.14.11l-.05.06-.32,0A1.19,1.19,0,0,1,28,12.36a3,3,0,0,1-.61.39h0A3.62,3.62,0,0,0,27,13a1.48,1.48,0,0,0,.28.28c.23.14.49.23.74.36a.51.51,0,0,1,.29.58.52.52,0,0,1-.41.43,2.43,2.43,0,0,1-1.66-.05l-.16-.1c-.36-.23-.35-.47,0-.68l.39-.2Zm.24,1.25c.26-.07.49-.1.7-.18s.36-.38.1-.56A6.65,6.65,0,0,0,27,13.5a.18.18,0,0,0-.1,0c-.21.11-.43.21-.63.34a.31.31,0,0,0,.05.58A7.58,7.58,0,0,0,27.11,14.67Zm.94-3.39c-.05,0-.11-.21-.2-.23a.43.43,0,0,0-.36.13,2.1,2.1,0,0,0-.42,1.1.29.29,0,0,0,.53.2A2.18,2.18,0,0,0,28.05,11.28Z"/><path d="M25.67,13.1l.5-.53,0,0a1.76,1.76,0,0,1-.63.67.75.75,0,0,1-.3,0,.75.75,0,0,1,0-.26c.21-.5.45-1,.66-1.51a1.51,1.51,0,0,0,.07-.37,1.27,1.27,0,0,0-.35.17,6,6,0,0,0-1.27,1.81c-.09.2-.09.2-.34.17l.81-2.1-.09-.06-.5.47a1.34,1.34,0,0,1,.77-.73c.18,0,.17.1.13.2-.1.3-.22.6-.32.9a.17.17,0,0,0,0,.13l.45-.56a4.08,4.08,0,0,1,.46-.47,1,1,0,0,1,.36-.2c.18-.05.3.08.25.26a3.39,3.39,0,0,1-.21.61c-.15.37-.31.73-.47,1.09a1.29,1.29,0,0,0-.07.21Z"/><path d="M31.76,12.53c-.26.23-.53.47-.82.7a.44.44,0,0,1-.53.06c-.17-.13-.12-.33-.08-.51a2.23,2.23,0,0,1,1.36-1.59,2.59,2.59,0,0,1,.6-.1l.25-.14.07.07c-.13.33-.25.67-.37,1l-.4,1,.05,0,.54-.48,0,0a1.67,1.67,0,0,1-.77.69c-.16.05-.23-.05-.18-.23S31.69,12.71,31.76,12.53Zm-.91.57s.1,0,.15-.06a2.69,2.69,0,0,0,1.1-1.47.29.29,0,0,0-.05-.28.37.37,0,0,0-.31,0,2.35,2.35,0,0,0-1.11,1.58C30.6,13,30.66,13.09,30.85,13.1Z"/><path d="M22.06,12.52a2,2,0,0,1,.8-1.45c.49-.36.91-.18,1,.42a1.85,1.85,0,0,1-.77,1.69.64.64,0,0,1-.61.14C22.18,13.25,22.06,13,22.06,12.52Zm1.57-1.24c0-.06-.08-.2-.15-.23a.38.38,0,0,0-.31.07A2.84,2.84,0,0,0,22.33,13c0,.21.17.32.37.23a.5.5,0,0,0,.19-.13A3.78,3.78,0,0,0,23.63,11.28Z"/><path d="M29.33,12.11c.18-.3.34-.6.54-.88a1,1,0,0,1,.4-.32.39.39,0,0,1,.31.1.36.36,0,0,1,0,.31.28.28,0,0,1-.21.15s-.11-.11-.16-.18a.61.61,0,0,1-.07-.14c-.07,0-.16.08-.2.14-.32.56-.64,1.14-1,1.71a1.08,1.08,0,0,1-.08.19,1.21,1.21,0,0,1-.22.15c0-.08-.06-.18,0-.25.18-.56.38-1.12.57-1.68a1.55,1.55,0,0,0,.06-.23l-.06,0-.49.53-.05-.05a1.75,1.75,0,0,1,.66-.69c.18-.09.29,0,.24.19s-.17.59-.26.88l0,.1Z"/><path d="M33.89,12.49a2,2,0,0,1-.85.8.64.64,0,0,1-.28,0,.61.61,0,0,1,0-.27c.21-.52.44-1,.67-1.55,0-.09.07-.18.11-.3H33.1l0-.06c.06,0,.12-.07.17-.07a.46.46,0,0,0,.54-.38,1.3,1.3,0,0,1,.15-.34c0-.06.14-.08.22-.11s.06.16,0,.22-.16.37-.27.6h.55v.08a.49.49,0,0,1-.17.06c-.37-.07-.53.12-.64.45s-.33.78-.49,1.17a2.78,2.78,0,0,0-.09.27C33.47,13,33.62,12.65,33.89,12.49Z"/><path d="M35.07,11.39c.1.38.2.7.28,1a.75.75,0,0,1-.84.92c-.24,0-.39-.17-.37-.35a.26.26,0,0,1,.11-.17.27.27,0,0,1,.19,0s.06.12.1.16.16.19.22.18A.4.4,0,0,0,35,13a1.35,1.35,0,0,0,0-.49c0-.22-.13-.43-.17-.65a.77.77,0,0,1,.75-1c.19,0,.33.13.33.29a.25.25,0,0,1-.09.19s-.13,0-.19,0-.07-.08-.11-.1-.22-.15-.28-.12S35.12,11.31,35.07,11.39Z"/><path d="M28.13,7.71l.11-.43.74.17-.11.44Z"/><path d="M19.4,7.72a.23.23,0,0,1,0-.07c.06-.39.06-.39.44-.29l.39.09c0,.08,0,.15,0,.21s0,.14-.06.23Z"/><path d="M17.68,15.35l-.43-.11.12-.53.43.09Z"/><path d="M5.08,2.22l-.14.54-.42-.1.12-.54Z"/><path d="M31,18.53l.12-.54.43.1-.12.53Z"/><path d="M24.77,15.32l.12-.54.43.1-.12.54Z"/><path d="M22.6,19.82l.43.1-.12.54-.43-.1Z"/><path d="M23,7.13l-.13.55-.43-.1.11-.53Z"/><path d="M3.16,17.53l-.43-.09.11-.54.43.09Z"/><path d="M34.27,3.32l-.14.53-.43-.1.13-.53Z"/><path d="M17.5,19.7l.21-.37.47.26L18,20Z"/><path d="M18.79,4.25l-.21.37-.46-.26L18.33,4Z"/><path d="M3.23,7.34l.47.26L3.49,8,3,7.72Z"/><path d="M4.1,13.6l-.47-.25.2-.37.48.25Z"/><path d="M31.3,8.81l.2-.37.47.25-.21.37Z"/><path d="M34.67,15.67l-.22.37L34,15.78l.21-.37Z"/><path d="M5.55,22.08l-.47-.27.21-.37.47.26Z"/><path d="M6.18,15l-.46-.26.21-.37.46.26Z"/><path d="M26.25,19.7l.22-.37.46.26-.21.37Z"/><path d="M27.55,4.25l-.21.37-.47-.26L27.08,4Z"/><path d="M2.31,10.57l.21-.38.46.26-.2.37Z"/><path d="M29.34,3.11l.21-.37.4.2-.2.38Z"/><path d="M3.19,5.71,2.78,5.5,3,5.12l.4.2Z"/><path d="M28.56,21.61l.11-.44.42.1-.1.43Z"/><path d="M25.19,19l-.42-.1.1-.44.42.1Z"/><path d="M20.59,3.12l.2-.39.4.21-.2.39Z"/><path d="M31.46,6.81l-.41-.21.2-.39.4.2Z"/><path d="M19.81,21.61l.11-.44.42.1-.11.44Z"/><path d="M2.86,3.71l.21,0L3,4,2.81,4Z"/><path d="M3.33,14.76l-.07-.18c.26-.13.26-.13.31.11Z"/><path d="M28.79,16.81l-.05-.21.25-.08.07.21Z"/><path d="M18.73,14.21l-.06.25-.21,0,.06-.26Z"/><path d="M29,19.38l-.05.24H28.7l.05-.29Z"/><path d="M22.63,17.54l-.21-.06,0-.24.21,0Z"/><path d="M34.58,19.91l-.19-.05.06-.23C34.68,19.63,34.7,19.65,34.58,19.91Z"/><path d="M31.86,15.78l-.26.07-.07-.19.25-.08Z"/><path d="M2.93,20.08l.06.2-.25.08-.07-.21Z"/><path d="M32.31,19.78l-.06-.21.25-.08.07.2Z"/><path d="M21.88,5.34l-.05.25-.21,0C21.65,5.4,21.63,5.22,21.88,5.34Z"/><path d="M31.29,5.1l-.21,0,.05-.27.22,0Z"/><path d="M5.08,9.38,5,9.65l-.2,0,0-.26Z"/><path d="M22.11,14.76l-.06.24h-.2l0-.28Z"/><path d="M29.64,14.79c-.24,0-.25,0-.13-.3l.18,0Z"/><path d="M34,7.7l.2,0,0,.27-.21,0Z"/><path d="M26.28,17.55l.18.05,0,.22C26.19,17.84,26.17,17.8,26.28,17.55Z"/><path d="M26.24,8.75l0,.27L26,9l0-.24Z"/><path d="M4.22,18.4c.14.24,0,.24-.18.28L4,18.48Z"/><path d="M23.88,3.15l-.2-.06.05-.23C24,2.85,24,2.87,23.88,3.15Z"/><path d="M24.59,6.7l.26-.08.07.21-.25.07Z"/><path d="M34,21.44l-.21-.06c0-.07,0-.15.05-.19s.13,0,.22-.05Z"/><path d="M20.31,16.73,20,16.8,20,16.61l.25-.09Z"/><path d="M19.93,19.6l.07-.27.2.05-.05.24Z"/><path d="M29.42,5.91l-.21,0,0-.27.22,0Z"/><path d="M31,21.24l.23-.07.08.19C31,21.48,31,21.48,31,21.24Z"/><path d="M11.2,9.18a3.43,3.43,0,0,1,2.36.77A2.77,2.77,0,0,1,13,14.27a3.37,3.37,0,0,1-3.91-.36,2.51,2.51,0,0,1-.86-2.4,2.46,2.46,0,0,1,2.31-2.27ZM8.51,11.91a2.08,2.08,0,0,0,.73,1.76,3.08,3.08,0,0,0,3.57.39,2.38,2.38,0,0,0,1.25-2.48,2.14,2.14,0,0,0-1.51-1.91,4.09,4.09,0,0,0-1.87-.18A2.23,2.23,0,0,0,8.51,11.91Z"/><path d="M7.62,10a.57.57,0,0,1,.49-.63.58.58,0,0,1,.48.62.58.58,0,0,1-.48.66C7.83,10.6,7.62,10.32,7.62,10Z"/><path d="M14.92,10c0,.37-.21.65-.49.65A.59.59,0,0,1,14,9.93c0-.36.23-.61.5-.61A.58.58,0,0,1,14.92,10Z"/><path d="M9.55,13.42l.26-.35.55.4a.16.16,0,0,0,.24,0l.15-.11a.45.45,0,0,0,0-.79l-.87-.71a4.7,4.7,0,0,1,.34-.44.31.31,0,0,1,.22-.07H12a.34.34,0,0,1,.36.19,2,2,0,0,0,.2.34l-1,.78a.45.45,0,0,0,0,.65c.36.26.36.26.72,0l.31-.22.27.34-.9.61a.19.19,0,0,1-.18,0,3.3,3.3,0,0,1-.43-.3.25.25,0,0,0-.38,0,3.3,3.3,0,0,1-.43.3.23.23,0,0,1-.18,0Z"/></g><path class="cls-4" d="M12.65,21l-3.07.43L9.37,20c-.61.33-1.21.71-1.95.38a7.33,7.33,0,0,0,.31,2.45c-.2.07-.31,0-.35-.19-.07-.42-.16-.83-.25-1.28a5.61,5.61,0,0,0-.43,1.47H6.42A5.87,5.87,0,0,1,7,20.94a1.34,1.34,0,0,0,.09-.57s-.06-.08-.11-.1a2.52,2.52,0,0,1-1.29-2.52,5.91,5.91,0,0,1,1.55-3.22l.13-.15s0,0,0,0c-.23-.25-.45-.47-.65-.71a4.76,4.76,0,0,1-1-2.6A8.76,8.76,0,0,1,5.81,9a.28.28,0,0,0-.07-.19A2.93,2.93,0,0,1,5,5.92a2,2,0,0,1,.95-1.09A3.69,3.69,0,0,1,7.69,4.3a2,2,0,0,1,1.41.52L9.26,5h.07v-.6a8,8,0,0,1,.94.26,2.6,2.6,0,0,0,1.92,0c.47-.17,1-.27,1.45-.4h.07v1a.83.83,0,0,0,.06.21.67.67,0,0,0,.16-.12A1.89,1.89,0,0,1,16,4.72a4.23,4.23,0,0,1,1.71.88,1.7,1.7,0,0,1,.61,1.55,3.66,3.66,0,0,1-.77,2,.53.53,0,0,0,0,.26,6.76,6.76,0,0,1-.67,3.65,14.89,14.89,0,0,1-.9,1.28c.15.2.36.44.56.7a5.61,5.61,0,0,1,1.09,2.33,2.89,2.89,0,0,1-.15,1.72,2,2,0,0,1-1.13,1.19c-.27.11-.29.25-.12.48a4.84,4.84,0,0,1,.76,2.09c-.19,0-.27,0-.32-.18-.11-.44-.26-.87-.39-1.31,0-.07-.08-.13-.11-.19-.09.5-.19,1-.28,1.49,0,.2-.13.26-.34.19a7.86,7.86,0,0,0,.32-2.36h-1v.2l-1,.15.76,1.64-.56-.3-.27.62-.39-1.86c-.19-.07-.24,0-.25.18-.06.52-.12,1-.18,1.61l-.33-.6-.48.32,0,0Zm1.76-1.52-.23.32s-.09.08-.09.12c0,.28-.1.48-.44.47,0,.08.11.18.16.17a6.22,6.22,0,0,0,.72-.1l-.12-1L14,16.76l-4.72.65.52,3.71c.95-.13,1.86-.26,2.78-.37.21,0,.24-.17.27-.35A.55.55,0,0,1,12.2,20a.16.16,0,0,0-.07-.07c-.21-.05-.15-.17-.1-.3a4.09,4.09,0,0,0,.18-.49c0-.17.13-.34.32-.35a.49.49,0,0,0,.37-.2c.26-.26.5-.22.72.07.05.06.13.08.2.13s.26.14.25.2C14,19.29,14.26,19.35,14.41,19.48Zm-3-14H9.72a.42.42,0,0,0-.2,0c-.19.12-.36.26-.54.37a10.93,10.93,0,0,0-1,.61A4.09,4.09,0,0,0,6.81,7.85a1.83,1.83,0,0,1-.62.83c-.05,0-.06.11-.07.17a7.74,7.74,0,0,0-.07,2.4,4.09,4.09,0,0,0,1.17,2.52,4.9,4.9,0,0,0,3.07,1.3,11.81,11.81,0,0,0,1.33,0,16.31,16.31,0,0,0,2-.07,3.88,3.88,0,0,0,2.9-1.92,6.6,6.6,0,0,0,.72-3.78.31.31,0,0,0-.09-.14,1.3,1.3,0,0,1-.46-.89.33.33,0,0,0-.08-.19A5.16,5.16,0,0,0,15,6.63,8.64,8.64,0,0,1,14,6c-.12-.09-.22-.24-.36-.3A1.89,1.89,0,0,0,13,5.51C12.48,5.48,12,5.5,11.41,5.5ZM9,17.19a.88.88,0,0,1,.2,0,.24.24,0,0,0,.29-.25c0-.29.09-.58.14-.87l.66-.15V15.8C9,15,7.85,15.54,6.77,16.34l-.17-.19a3.87,3.87,0,0,1,2.44-1c-.39-.18-.81-.36-1.21-.57-.12-.06-.19-.06-.26,0-.36.51-.75,1-1.06,1.53A3.4,3.4,0,0,0,6,18.5a2,2,0,0,0,2.09,1.75A.3.3,0,0,0,8.46,20c.15-.46.3-.92.49-1.37a1.72,1.72,0,0,0,.09-1A4,4,0,0,1,9,17.19Zm7.61-.84a3.94,3.94,0,0,0-1.69-.86,2.28,2.28,0,0,0-1.87.38l.75.17,0,.46.45,0c.08.53.15,1,.22,1.55a6.63,6.63,0,0,0,.46,2c0,.07.11.16.18.17a1.94,1.94,0,0,0,1.69-.64,2.4,2.4,0,0,0,.53-2.08A5.62,5.62,0,0,0,16.1,15c-.14-.18-.29-.35-.42-.49l-1.27.64a4,4,0,0,1,2.35,1ZM8.13,6.14,9.26,5.4a1.88,1.88,0,0,0-1.77-.82A3.85,3.85,0,0,0,6,5.08a1.78,1.78,0,0,0-.85,1.07,2.72,2.72,0,0,0,.71,2.4l.42-.34c-.65-.85-.7-1.39-.17-2A1.35,1.35,0,0,1,8.13,6.14Zm7,.25A1.16,1.16,0,0,1,16.09,6a1.48,1.48,0,0,1,1.26,1A1.11,1.11,0,0,1,17,8.22a.26.26,0,0,0-.07.2,1,1,0,0,0,.35.55A3.5,3.5,0,0,0,18,7.06a1.52,1.52,0,0,0-.76-1.44c-.29-.17-.59-.34-.91-.49a2.41,2.41,0,0,0-1.13-.23A1.5,1.5,0,0,0,14,5.64Zm-1.91,9H10a1.66,1.66,0,0,1,1.05,1.52l1.2-.17a.13.13,0,0,0,.1-.09A1.7,1.7,0,0,1,13.25,15.37Z"/><path class="cls-4" d="M5.93,3.14l3.18-.69c.61-.13,1.23-.27,1.85-.39a.5.5,0,0,1,.21,0l4.87,1,.19.06-1.9.6-2.94.91a.55.55,0,0,1-.31,0L6,3.19Z"/><path class="cls-4" d="M22.37,9.71l-.16.61h-.06l0-.27c0-.18-.11-.26-.3-.28a2.38,2.38,0,0,0-2.05.9,2.2,2.2,0,0,0-.65,1.5,1.12,1.12,0,0,0,.78,1.15,1.68,1.68,0,0,0,.94.07,1,1,0,0,0,.62-.41l.19-.28.05,0a1.52,1.52,0,0,1,0,.21c-.16.53-.16.54-.72.57a6.49,6.49,0,0,1-1.08,0,1.41,1.41,0,0,1-1.15-2,3.24,3.24,0,0,1,2.77-1.89h.67A.76.76,0,0,1,22.37,9.71Z"/><path class="cls-4" d="M27.07,13.61c-.34-.34-.34-.34.05-.57l.21-.13c-.08-.11-.17-.2-.23-.3A1.14,1.14,0,0,1,28,11.1a.61.61,0,0,1,.23,0,4.21,4.21,0,0,1,.49.09s.09.07.14.11l0,.06-.32-.05a1.19,1.19,0,0,1-.3,1.22,2.89,2.89,0,0,1-.61.39h0l-.31.21a1.5,1.5,0,0,0,.27.29c.24.13.5.23.74.36a.52.52,0,0,1,.3.58.53.53,0,0,1-.42.43,2.35,2.35,0,0,1-1.65-.06.7.7,0,0,1-.17-.09c-.35-.23-.34-.48,0-.68l.39-.2Zm.24,1.26c.26-.07.49-.1.7-.18s.36-.38.1-.56a5.62,5.62,0,0,0-.89-.43s-.07,0-.1,0c-.21.11-.43.21-.63.34a.31.31,0,0,0,.05.58A7.58,7.58,0,0,0,27.31,14.87Zm.94-3.39c-.05-.05-.11-.21-.21-.23a.41.41,0,0,0-.35.12,2,2,0,0,0-.42,1.11.38.38,0,0,0,.18.31.42.42,0,0,0,.35-.11A2.26,2.26,0,0,0,28.25,11.48Z"/><path class="cls-4" d="M25.87,13.3l.5-.53,0,0a1.68,1.68,0,0,1-.64.68c-.08,0-.19,0-.29,0a.74.74,0,0,1,0-.26c.21-.5.44-1,.66-1.51a1.51,1.51,0,0,0,.07-.37,1.19,1.19,0,0,0-.36.17,6.14,6.14,0,0,0-1.26,1.81c-.09.2-.1.2-.34.17l.81-2.1L25,11.36l-.51.47a1.39,1.39,0,0,1,.78-.73c.18,0,.17.1.13.2-.1.3-.22.6-.33.89a.31.31,0,0,0,0,.14c.15-.19.29-.38.45-.56a4,4,0,0,1,.45-.47,1.11,1.11,0,0,1,.37-.2.19.19,0,0,1,.25.25,4.52,4.52,0,0,1-.21.62c-.15.37-.32.72-.47,1.09a1.29,1.29,0,0,0-.07.21Z"/><path class="cls-4" d="M32,12.73c-.26.22-.53.47-.82.69a.43.43,0,0,1-.53.07c-.17-.13-.12-.34-.08-.51a2.21,2.21,0,0,1,1.36-1.59,3.07,3.07,0,0,1,.6-.11l.25-.13.07.07c-.13.33-.25.67-.38,1s-.26.68-.39,1l.05,0,.54-.48,0,0a1.64,1.64,0,0,1-.76.69c-.16.05-.24,0-.18-.23S31.89,12.91,32,12.73ZM31,13.3s.11,0,.16-.06a2.69,2.69,0,0,0,1.1-1.47c0-.09,0-.25,0-.28a.34.34,0,0,0-.31,0,2.3,2.3,0,0,0-1.11,1.58C30.8,13.17,30.85,13.29,31,13.3Z"/><path class="cls-4" d="M22.26,12.72a2,2,0,0,1,.8-1.45c.49-.37.91-.18,1,.42a1.85,1.85,0,0,1-.77,1.69.65.65,0,0,1-.61.14C22.38,13.45,22.26,13.22,22.26,12.72Zm1.57-1.24c0-.07-.08-.2-.16-.23a.34.34,0,0,0-.3.07,2.84,2.84,0,0,0-.84,1.84c0,.21.17.32.37.23a.64.64,0,0,0,.19-.13A3.78,3.78,0,0,0,23.83,11.48Z"/><path class="cls-4" d="M29.53,12.31c.18-.3.34-.6.54-.88a1,1,0,0,1,.39-.32.29.29,0,0,1,.35.41.28.28,0,0,1-.21.15c-.05,0-.11-.11-.16-.18a.61.61,0,0,1-.07-.14c-.07.05-.16.07-.2.14l-1,1.71a1.08,1.08,0,0,1-.08.19,1.21,1.21,0,0,1-.22.15c0-.09-.07-.18,0-.25.18-.56.38-1.12.57-1.68a1.55,1.55,0,0,0,.06-.23l-.07,0-.48.53-.05,0a1.69,1.69,0,0,1,.66-.69c.18-.09.29,0,.24.18s-.17.6-.26.89l0,.1Z"/><path class="cls-4" d="M34.09,12.69a2.11,2.11,0,0,1-.85.8.64.64,0,0,1-.28,0c0-.09,0-.2,0-.27.21-.52.44-1,.67-1.55,0-.09.07-.18.11-.3H33.3l0-.06c.06,0,.12-.07.17-.07a.47.47,0,0,0,.54-.38,1.3,1.3,0,0,1,.15-.34c0-.06.14-.08.22-.11s0,.16,0,.22a5.86,5.86,0,0,1-.27.59h.54l0,.09a.37.37,0,0,1-.17.05c-.37-.06-.53.13-.65.46s-.32.78-.48,1.17c0,.07-.05.14-.1.27C33.66,13.17,33.82,12.85,34.09,12.69Z"/><path class="cls-4" d="M35.27,11.59c.1.37.2.7.27,1a.74.74,0,0,1-.83.92c-.24,0-.4-.17-.37-.35a.25.25,0,0,1,.11-.18.24.24,0,0,1,.19.06s.06.11.1.16.16.19.21.18a.38.38,0,0,0,.26-.21,1.16,1.16,0,0,0,0-.49c0-.22-.13-.43-.17-.65a.79.79,0,0,1,.76-1c.19,0,.33.13.33.29a.29.29,0,0,1-.09.19s-.14,0-.2,0-.06-.07-.1-.09-.22-.15-.28-.12S35.32,11.51,35.27,11.59Z"/><path class="cls-4" d="M28.32,7.91l.11-.43.75.17-.11.44Z"/><path class="cls-4" d="M19.6,7.92a.26.26,0,0,1,0-.07c.06-.39.06-.39.44-.29l.39.09c0,.08,0,.15,0,.21l-.07.23Z"/><path class="cls-4" d="M17.88,15.55l-.43-.11.12-.54L18,15Z"/><path class="cls-4" d="M5.28,2.42,5.14,3l-.42-.11.12-.53Z"/><path class="cls-4" d="M31.19,18.73l.12-.54.44.09-.12.54Z"/><path class="cls-4" d="M25,15.52l.11-.54.44.1-.12.53Z"/><path class="cls-4" d="M22.8,20l.43.1-.12.54-.43-.1Z"/><path class="cls-4" d="M23.23,7.33l-.12.55-.43-.1.11-.53Z"/><path class="cls-4" d="M3.35,17.73l-.42-.1L3,17.09l.43.1Z"/><path class="cls-4" d="M34.47,3.52l-.14.53L33.9,4,34,3.41Z"/><path class="cls-4" d="M17.7,19.9l.21-.38.47.27-.22.37Z"/><path class="cls-4" d="M19,4.45l-.21.37-.47-.26.22-.37Z"/><path class="cls-4" d="M3.42,7.54l.48.26-.21.37-.47-.25Z"/><path class="cls-4" d="M4.3,13.8l-.47-.25.2-.38.48.26Z"/><path class="cls-4" d="M31.5,9l.2-.37.47.25L32,9.26Z"/><path class="cls-4" d="M34.87,15.87l-.22.37L34.19,16l.21-.37Z"/><path class="cls-4" d="M5.75,22.28,5.28,22l.21-.37L6,21.9Z"/><path class="cls-4" d="M6.38,15.15l-.47-.27.21-.37.47.26Z"/><path class="cls-4" d="M26.45,19.9l.22-.38.46.27-.21.37Z"/><path class="cls-4" d="M27.75,4.45l-.21.37-.47-.26.21-.37Z"/><path class="cls-4" d="M2.51,10.76l.21-.37.46.26L3,11Z"/><path class="cls-4" d="M29.54,3.31l.21-.37.4.2-.21.38Z"/><path class="cls-4" d="M3.38,5.91,3,5.7l.19-.38.41.2Z"/><path class="cls-4" d="M28.76,21.81l.11-.44.42.1-.1.43Z"/><path class="cls-4" d="M25.38,19.16,25,19.05l.1-.43.42.1Z"/><path class="cls-4" d="M20.78,3.31,21,2.93l.4.21-.2.39Z"/><path class="cls-4" d="M31.66,7l-.41-.2.2-.39.4.2Z"/><path class="cls-4" d="M20,21.81l.11-.44.42.1-.1.44Z"/><path class="cls-4" d="M3.06,3.91l.21,0,0,.26L3,4.17Z"/><path class="cls-4" d="M3.52,15l-.06-.19c.26-.12.26-.12.3.12Z"/><path class="cls-4" d="M29,17l0-.2.25-.08.07.2Z"/><path class="cls-4" d="M18.93,14.41l-.06.25-.21,0,.06-.26Z"/><path class="cls-4" d="M29.16,19.58l-.05.23H28.9l.05-.28Z"/><path class="cls-4" d="M22.83,17.73l-.21-.05.05-.25.21,0Z"/><path class="cls-4" d="M34.78,20.11l-.19-.05,0-.23C34.88,19.82,34.89,19.85,34.78,20.11Z"/><path class="cls-4" d="M32.06,16l-.26.07-.07-.2.25-.07Z"/><path class="cls-4" d="M3.13,20.27l.06.21-.25.08-.07-.21Z"/><path class="cls-4" d="M32.51,20l-.06-.21.25-.08.07.2Z"/><path class="cls-4" d="M22.08,5.54l0,.25-.21,0C21.85,5.6,21.82,5.42,22.08,5.54Z"/><path class="cls-4" d="M31.48,5.3l-.2,0,0-.27.22,0Z"/><path class="cls-4" d="M5.27,9.58l-.06.26L5,9.8l0-.25Z"/><path class="cls-4" d="M22.31,15l-.06.24h-.2l0-.29Z"/><path class="cls-4" d="M29.84,15c-.24,0-.25-.05-.13-.29l.18.05Z"/><path class="cls-4" d="M34.18,7.9l.21,0,0,.27-.22,0Z"/><path class="cls-4" d="M26.48,17.75l.18.05-.05.22C26.38,18,26.36,18,26.48,17.75Z"/><path class="cls-4" d="M26.44,8.94l-.05.28-.21-.05,0-.25Z"/><path class="cls-4" d="M4.42,18.6c.14.23,0,.24-.18.28l-.07-.2Z"/><path class="cls-4" d="M24.07,3.34l-.19,0,.05-.23C24.16,3.05,24.17,3.07,24.07,3.34Z"/><path class="cls-4" d="M24.79,6.9l.26-.08.07.2-.25.08Z"/><path class="cls-4" d="M34.19,21.64l-.2-.06c0-.07,0-.16,0-.19s.13,0,.22-.06Z"/><path class="cls-4" d="M20.5,16.93l-.26.07-.06-.19.24-.09Z"/><path class="cls-4" d="M20.13,19.8l.07-.28.2.06,0,.24Z"/><path class="cls-4" d="M29.61,6.11l-.2,0,0-.27.22,0Z"/><path class="cls-4" d="M31.16,21.44l.23-.07.07.18C31.21,21.68,31.2,21.68,31.16,21.44Z"/><path class="cls-4" d="M11.4,9.38a3.39,3.39,0,0,1,2.35.77,2.76,2.76,0,0,1-.54,4.32,3.36,3.36,0,0,1-3.91-.36,2.51,2.51,0,0,1-.86-2.4,2.46,2.46,0,0,1,2.31-2.27A6.25,6.25,0,0,1,11.4,9.38ZM8.7,12.11a2.09,2.09,0,0,0,.74,1.76,3.1,3.1,0,0,0,3.57.39,2.36,2.36,0,0,0,1.24-2.48,2.1,2.1,0,0,0-1.5-1.91,4.09,4.09,0,0,0-1.87-.18A2.25,2.25,0,0,0,8.7,12.11Z"/><path class="cls-4" d="M7.82,10.15a.57.57,0,0,1,.49-.63.58.58,0,0,1,.48.62.59.59,0,0,1-.48.66C8,10.8,7.82,10.52,7.82,10.15Z"/><path class="cls-4" d="M15.12,10.15c0,.37-.21.65-.49.65a.59.59,0,0,1-.48-.67c0-.36.23-.61.5-.61A.57.57,0,0,1,15.12,10.15Z"/><path class="cls-4" d="M9.75,13.61l.26-.34.55.4a.16.16,0,0,0,.24,0l.15-.11a.46.46,0,0,0,0-.8l-.86-.71a4.87,4.87,0,0,1,.33-.43.35.35,0,0,1,.23-.07h1.56c.17,0,.28,0,.35.19a2.09,2.09,0,0,0,.21.34l-1,.78a.46.46,0,0,0,0,.65c.37.25.37.25.73,0l.31-.22.27.33-.9.62a.19.19,0,0,1-.18,0,3.3,3.3,0,0,1-.43-.3c-.14-.13-.24-.11-.38,0a3.3,3.3,0,0,1-.43.3.23.23,0,0,1-.18,0C10.35,14,10.06,13.83,9.75,13.61Z"/></g></g></svg>