<svg xmlns="http://www.w3.org/2000/svg" viewBox="0 0 38.55 24.66"><defs><style>.cls-1{isolation:isolate;}.cls-2{opacity:0.15;}.cls-2,.cls-3{mix-blend-mode:multiply;}.cls-4{fill:#fff;}</style></defs><title>convert-FIX-SVG-03</title><g class="cls-1"><g id="Layer_1" data-name="Layer 1"><g class="cls-2"><path d="M37.07,10.22v4.24a3.93,3.93,0,0,0-3.39.93,3.77,3.77,0,0,0-1,3.37H5.85c.35-2.43-1.2-4.73-4.4-4.31V10.22a3.94,3.94,0,0,0,3.39-.93,3.81,3.81,0,0,0,1-3.37H32.67C32.31,8.35,33.87,10.65,37.07,10.22ZM2,13.84c2.83.1,4.34,1.53,4.48,4.37H32.05A4.31,4.31,0,0,1,33.27,15a4.38,4.38,0,0,1,3.24-1.15v-3a4.38,4.38,0,0,1-3.23-1.14,4.3,4.3,0,0,1-1.23-3.21H6.46A4.31,4.31,0,0,1,5.24,9.68,4.42,4.42,0,0,1,2,10.82Z"/><path d="M4.2,8.63c-.54,0-1.07,0-1.59-.07a1.82,1.82,0,0,1-1-.36.75.75,0,0,1-.28-.82.69.69,0,0,1,.63-.57,2.07,2.07,0,0,1,.49,0l0-.14a.76.76,0,0,1,.36-.89.82.82,0,0,1,1,.21,1.81,1.81,0,0,1,.37,1c0,.31,0,.62,0,.93Z"/><path d="M36.1,6.87l.21,0a.73.73,0,0,1,.87.38.79.79,0,0,1-.24,1,1.82,1.82,0,0,1-1,.35c-.38,0-.77,0-1.16,0l-.45,0c0-.62.06-1.24.13-1.85a1.91,1.91,0,0,1,.26-.67.81.81,0,0,1,1.07-.31.73.73,0,0,1,.36,1A.65.65,0,0,1,36.1,6.87Z"/><path d="M4.21,16.07c0,.59-.06,1.2-.13,1.81a1.61,1.61,0,0,1-.25.66.8.8,0,0,1-1.06.33.74.74,0,0,1-.38-1s0-.06,0-.09a2.8,2.8,0,0,1-.48.05.69.69,0,0,1-.64-.55.76.76,0,0,1,.27-.85,2,2,0,0,1,1-.36l.9,0Z"/><path d="M34.31,16l1.6.07a1.92,1.92,0,0,1,1,.36.77.77,0,0,1,.28.85.69.69,0,0,1-.63.55,2.85,2.85,0,0,1-.49,0l0,.12a.74.74,0,0,1-.36.9.82.82,0,0,1-1.05-.23,1.89,1.89,0,0,1-.35-1c0-.29,0-.59,0-.88S34.32,16.28,34.31,16Z"/><path d="M17,13.39v-2h1.51a.48.48,0,0,1,.48.35.5.5,0,0,1-.2.58c.09.12.22.22.26.35.12.37-.13.68-.57.7S17.51,13.39,17,13.39Zm.46-.33h.93a.24.24,0,0,0,.25-.24c0-.16-.08-.26-.22-.26-.32,0-.63,0-1,0Zm0-.86c.32,0,.61,0,.91,0,.07,0,.18-.12.2-.21a.29.29,0,0,0-.15-.23c-.31,0-.64,0-1,0Z"/><path d="M21.81,13.39a1.37,1.37,0,0,0-.46-.73c-.1-.11-.36-.07-.54-.09v.82h-.48v-2c.47,0,1,0,1.47,0a.51.51,0,0,1,.55.46c0,.4-.07.56-.53.72l.59.8Zm-1-1.14h.89a.24.24,0,0,0,.25-.23c0-.14,0-.25-.18-.27l-1,0Z"/><path d="M27.58,11.42c.46,0,.94,0,1.43,0a.92.92,0,0,1,.74,1.08.89.89,0,0,1-1,.9H27.58ZM28,13.07h.53a1.23,1.23,0,0,0,.27,0c.32-.06.47-.28.46-.68s-.15-.58-.47-.62a5,5,0,0,0-.67,0s-.12.07-.12.11C28,12.23,28,12.64,28,13.07Z"/><path d="M3.77,11.4h.49v.79H5.39v-.78h.52a8.2,8.2,0,0,0,0,2H5.39v-.84H4.25v.84H3.77Z"/><path d="M26.69,13.39v-.83H25.56v.83h-.49v-2h.49v.8H26.7v-.79h.47c0,.66,0,1.31,0,2Z"/><path d="M9.5,12.61v.78H9a7.27,7.27,0,0,0,0-2h1.5A.55.55,0,0,1,11,12a.5.5,0,0,1-.48.59C10.18,12.59,9.83,12.59,9.5,12.61Zm0-.36h.83a.26.26,0,0,0,.26-.26.22.22,0,0,0-.23-.25H9.48Z"/><path d="M11.36,13.39c0-.66,0-1.31,0-2,.48,0,1,0,1.52,0a.53.53,0,0,1,.46.59.5.5,0,0,1-.48.54c-.34,0-.69,0-1,.06v.78Zm.45-1.14h.81a.24.24,0,0,0,.27-.26.21.21,0,0,0-.22-.25h-.86Z"/><path d="M8,13.39a.34.34,0,0,0-.3-.5H7.17a.36.36,0,0,0-.34.51H6.27c.16-.33.33-.65.48-1a3.2,3.2,0,0,0,.41-1h.55a1.86,1.86,0,0,0,0,.27l.75,1.49a2.17,2.17,0,0,0,.15.22Zm-.23-.77-.32-.72-.35.72Z"/><path d="M30.91,11.4h.63c0,.08,0,.17,0,.23.26.54.53,1.07.81,1.61,0,0,.06.09.1.15H31.8a.36.36,0,0,0-.34-.5H31a.38.38,0,0,0-.4.5H30A6.22,6.22,0,0,0,30.91,11.4Zm.31.5-.34.71h.66Z"/><path d="M14.93,13.39h-.46a1.31,1.31,0,0,0-.19-1.16,8.3,8.3,0,0,1-.61-.82h.66c0,.33.27.5.37.77a1,1,0,0,0,.42-.78h.66A8.25,8.25,0,0,0,15,12.51,2.5,2.5,0,0,0,14.93,13.39Z"/><path d="M33.46,11.41c0,.34.28.51.41.82.15-.3.42-.48.43-.82h.63a10.49,10.49,0,0,1-.64.85c-.31.35-.2.74-.17,1.13h-.5a1.31,1.31,0,0,0-.17-1.12c-.23-.27-.43-.58-.64-.86Z"/><path d="M22.74,11.72v-.35h2v.38H24v1.64h-.5c0-.11,0-.22,0-.32,0-.39,0-.78,0-1.17,0-.15-.05-.19-.2-.19Z"/><path d="M19.44,11.4h.48v2h-.48Z"/><path d="M37.27,10.42v4.24a3.9,3.9,0,0,0-3.39.93,3.79,3.79,0,0,0-1,3.36H6.05c.35-2.42-1.2-4.72-4.41-4.3V10.41A3.88,3.88,0,0,0,5,9.49a3.79,3.79,0,0,0,1-3.37H32.86C32.51,8.55,34.06,10.85,37.27,10.42ZM2.2,14c2.83.1,4.34,1.54,4.48,4.38H32.25a4.31,4.31,0,0,1,1.22-3.2,4.37,4.37,0,0,1,3.24-1.15V11a4.33,4.33,0,0,1-3.23-1.15,4.28,4.28,0,0,1-1.23-3.2H6.66a4.32,4.32,0,0,1-1.22,3.2A4.38,4.38,0,0,1,2.2,11Z"/><path d="M4.4,8.83c-.54,0-1.07,0-1.59-.07a1.82,1.82,0,0,1-1-.36.76.76,0,0,1-.28-.83A.67.67,0,0,1,2.11,7a2.11,2.11,0,0,1,.49,0l0-.14A.75.75,0,0,1,2.93,6a.83.83,0,0,1,1,.21,1.81,1.81,0,0,1,.37,1c0,.31,0,.62,0,.93Z"/><path d="M36.3,7.07,36.51,7a.75.75,0,0,1,.87.39.79.79,0,0,1-.24,1,1.85,1.85,0,0,1-1,.35c-.38,0-.77,0-1.16.05l-.45,0c0-.63.06-1.24.13-1.86a1.86,1.86,0,0,1,.26-.66A.81.81,0,0,1,36,6a.74.74,0,0,1,.36,1A.65.65,0,0,1,36.3,7.07Z"/><path d="M4.41,16.27c0,.59-.06,1.2-.13,1.8a1.66,1.66,0,0,1-.25.67A.8.8,0,0,1,3,19.07a.74.74,0,0,1-.38-1,.28.28,0,0,0,0-.09,2.59,2.59,0,0,1-.47.05.68.68,0,0,1-.64-.55.76.76,0,0,1,.27-.85,2,2,0,0,1,1-.36c.3,0,.6,0,.9,0Z"/><path d="M34.51,16.24c.55,0,1.07,0,1.6.07a1.92,1.92,0,0,1,1,.36.77.77,0,0,1,.27.85.68.68,0,0,1-.62.55,2.81,2.81,0,0,1-.49-.05l0,.13a.74.74,0,0,1-.36.9.82.82,0,0,1-1-.23,1.89,1.89,0,0,1-.35-1c0-.29,0-.59,0-.89Z"/><path d="M17.23,13.59v-2c.48,0,1,0,1.51,0a.48.48,0,0,1,.48.35.5.5,0,0,1-.2.58c.09.12.22.22.26.35.12.37-.14.68-.57.7S17.71,13.59,17.23,13.59Zm.46-.33h.93a.26.26,0,0,0,0-.51h-1Zm0-.86a8.9,8.9,0,0,0,.9,0,.34.34,0,0,0,.21-.21.29.29,0,0,0-.15-.23c-.32,0-.64,0-1,0Z"/><path d="M22,13.59a1.39,1.39,0,0,0-.46-.73c-.1-.11-.36-.07-.54-.09v.82h-.48v-2c.47,0,1,0,1.47,0,.34,0,.52.19.55.45s-.07.57-.53.73l.59.8Zm-1-1.14c.31,0,.6,0,.89,0a.24.24,0,0,0,.25-.23c0-.14,0-.26-.18-.27-.32,0-.64,0-1,0Z"/><path d="M27.78,11.61c.46,0,.94,0,1.42,0A.91.91,0,0,1,30,12.7a.9.9,0,0,1-1,.9H27.78Zm.46,1.66h.53a1.23,1.23,0,0,0,.27,0c.32-.06.46-.28.46-.68S29.34,12,29,12a5,5,0,0,0-.67,0s-.12.07-.12.11C28.23,12.43,28.24,12.84,28.24,13.27Z"/><path d="M4,11.6h.48v.79H5.59v-.78h.52a8.2,8.2,0,0,0,0,2H5.59v-.84H4.45v.84H4Z"/><path d="M26.89,13.59v-.84H25.75v.84h-.48v-2h.49v.8h1.13v-.79h.48c0,.65,0,1.31,0,2Z"/><path d="M9.7,12.8v.79H9.17a7.69,7.69,0,0,0,0-2h1.5a.55.55,0,0,1,.51.55.51.51,0,0,1-.48.59C10.38,12.79,10,12.79,9.7,12.8Zm0-.35c.29,0,.56,0,.83,0a.26.26,0,0,0,.26-.26.22.22,0,0,0-.23-.25H9.68Z"/><path d="M11.56,13.59c0-.66,0-1.31,0-2,.48,0,1,0,1.52,0a.55.55,0,0,1,.46.59.5.5,0,0,1-.48.54c-.34,0-.69,0-1,.06v.78ZM12,12.45c.29,0,.56,0,.82,0a.25.25,0,0,0,.27-.26.22.22,0,0,0-.23-.25H12Z"/><path d="M8.18,13.59a.34.34,0,0,0-.3-.5H7.37A.36.36,0,0,0,7,13.6H6.47c.16-.33.33-.65.48-1a2.89,2.89,0,0,0,.4-1h.56a2,2,0,0,0,0,.28c.24.49.49,1,.75,1.49a2.17,2.17,0,0,0,.15.22ZM8,12.82l-.33-.73-.35.73Z"/><path d="M31.11,11.6h.63c0,.08,0,.17,0,.23.26.54.53,1.07.8,1.61l.11.14H32a.36.36,0,0,0-.34-.49h-.45a.38.38,0,0,0-.4.5h-.57A6.46,6.46,0,0,0,31.11,11.6Zm.31.49-.35.72h.67Z"/><path d="M15.13,13.59h-.46a1.34,1.34,0,0,0-.19-1.16,9.68,9.68,0,0,1-.61-.82h.66c0,.33.27.5.36.77a1,1,0,0,0,.43-.78H16a8.25,8.25,0,0,0-.78,1.11A2.29,2.29,0,0,0,15.13,13.59Z"/><path d="M33.66,11.6c0,.35.28.51.41.83.15-.3.42-.48.43-.83h.63c-.21.29-.41.6-.64.86s-.21.74-.17,1.13h-.51a1.28,1.28,0,0,0-.16-1.12c-.23-.27-.43-.58-.64-.87Z"/><path d="M22.94,11.91v-.34h2v.37h-.73v1.65h-.5c0-.11,0-.22,0-.32,0-.39,0-.78,0-1.17,0-.15,0-.19-.19-.19Z"/><path d="M19.64,11.6h.48v2h-.48Z"/></g><g class="cls-3"><path d="M36.93,10.08v4.24a3.9,3.9,0,0,0-3.39.93,3.79,3.79,0,0,0-1,3.36H5.71c.35-2.42-1.2-4.72-4.41-4.3V10.07a3.88,3.88,0,0,0,3.39-.92,3.79,3.79,0,0,0,1-3.37H32.52C32.17,8.21,33.72,10.51,36.93,10.08ZM1.86,13.69c2.83.1,4.34,1.54,4.48,4.38H31.91a4.29,4.29,0,0,1,1.22-3.2,4.35,4.35,0,0,1,3.24-1.15v-3a4.33,4.33,0,0,1-3.23-1.15,4.28,4.28,0,0,1-1.23-3.2H6.32A4.32,4.32,0,0,1,5.1,9.53a4.38,4.38,0,0,1-3.24,1.15Z"/><path d="M4.06,8.49c-.54,0-1.07,0-1.6-.07a1.82,1.82,0,0,1-1-.36.76.76,0,0,1-.28-.83.67.67,0,0,1,.63-.56,2.11,2.11,0,0,1,.49,0l0-.14a.75.75,0,0,1,.36-.89.83.83,0,0,1,1,.21,1.81,1.81,0,0,1,.37,1c0,.31,0,.62,0,.93Z"/><path d="M36,6.73l.21-.05a.73.73,0,0,1,.86.39.78.78,0,0,1-.23,1,1.85,1.85,0,0,1-1,.35c-.38,0-.77,0-1.16.05l-.46,0c.05-.63.07-1.24.14-1.86A1.86,1.86,0,0,1,34.55,6a.81.81,0,0,1,1.07-.31.74.74,0,0,1,.36,1A.65.65,0,0,1,36,6.73Z"/><path d="M4.07,15.93c0,.59-.06,1.2-.13,1.8a1.82,1.82,0,0,1-.25.67.8.8,0,0,1-1.06.33.74.74,0,0,1-.38-1,.28.28,0,0,0,0-.09,2.59,2.59,0,0,1-.47.05.67.67,0,0,1-.64-.55.76.76,0,0,1,.27-.85,2,2,0,0,1,1-.36c.3,0,.6,0,.9,0Z"/><path d="M34.17,15.9c.55,0,1.07,0,1.6.07a1.92,1.92,0,0,1,1,.36.77.77,0,0,1,.27.85.68.68,0,0,1-.62.55,2.81,2.81,0,0,1-.49-.05l0,.13a.74.74,0,0,1-.36.9.82.82,0,0,1-1-.23,1.89,1.89,0,0,1-.35-1c0-.29,0-.59,0-.89Z"/><path d="M16.89,13.25v-2c.48,0,1,0,1.51,0a.48.48,0,0,1,.48.35.5.5,0,0,1-.2.58c.09.12.22.22.26.35.12.37-.14.68-.57.7S17.37,13.25,16.89,13.25Zm.46-.33h.93a.26.26,0,0,0,0-.51h-1Zm0-.86a8.9,8.9,0,0,0,.9,0,.34.34,0,0,0,.21-.21.29.29,0,0,0-.15-.23c-.32,0-.64,0-1,0Z"/><path d="M21.67,13.25a1.39,1.39,0,0,0-.46-.73c-.1-.11-.36-.07-.54-.09v.82h-.48v-2c.47,0,1,0,1.47,0a.5.5,0,0,1,.55.45c.05.4-.07.57-.53.73l.59.8Zm-1-1.14h.89a.24.24,0,0,0,.25-.23c0-.14,0-.26-.18-.27-.32,0-.64,0-1,0Z"/><path d="M27.44,11.27c.46,0,.94,0,1.42,0a.91.91,0,0,1,.75,1.08.9.9,0,0,1-1,.9H27.44Zm.46,1.66h.53a1.23,1.23,0,0,0,.27,0c.32-.06.46-.28.46-.68a.55.55,0,0,0-.47-.63c-.22,0-.45,0-.67,0,0,0-.12.07-.12.11C27.89,12.09,27.9,12.5,27.9,12.93Z"/><path d="M3.63,11.26h.48v.79H5.25v-.78h.52a8.2,8.2,0,0,0,0,2H5.25v-.84H4.11v.84H3.63Z"/><path d="M26.55,13.25v-.84H25.41v.84h-.48v-2h.49v.79h1.13v-.78H27c0,.65,0,1.31,0,2Z"/><path d="M9.36,12.46v.79H8.83a7.69,7.69,0,0,0,0-2h1.5a.55.55,0,0,1,.51.54.51.51,0,0,1-.48.6C10,12.45,9.69,12.45,9.36,12.46Zm0-.35h.83a.26.26,0,0,0,.26-.26.22.22,0,0,0-.23-.25H9.34Z"/><path d="M11.22,13.25c0-.66,0-1.31,0-2,.48,0,1,0,1.52,0a.55.55,0,0,1,.46.59.51.51,0,0,1-.48.54c-.34,0-.69,0-1,.06v.78Zm.44-1.14h.82a.25.25,0,0,0,.27-.26.22.22,0,0,0-.23-.25h-.86Z"/><path d="M7.84,13.25a.34.34,0,0,0-.3-.5H7a.36.36,0,0,0-.34.51H6.13c.16-.33.33-.65.48-1a2.89,2.89,0,0,0,.4-1h.56a1.16,1.16,0,0,0,0,.28c.24.49.49,1,.75,1.49a2.17,2.17,0,0,0,.15.22Zm-.23-.77-.33-.73-.35.73Z"/><path d="M30.77,11.26h.62a.58.58,0,0,0,0,.23c.26.54.53,1.07.8,1.6l.11.15h-.65a.36.36,0,0,0-.34-.49h-.45a.38.38,0,0,0-.4.5H29.9A6.71,6.71,0,0,0,30.77,11.26Zm.31.49-.35.72h.67Z"/><path d="M14.79,13.25h-.46a1.34,1.34,0,0,0-.19-1.16,9.68,9.68,0,0,1-.61-.82h.66c0,.33.26.5.36.77a1,1,0,0,0,.43-.78h.66a8.25,8.25,0,0,0-.78,1.11A2.29,2.29,0,0,0,14.79,13.25Z"/><path d="M33.32,11.26c0,.35.28.51.41.83.15-.3.42-.48.43-.83h.63c-.21.29-.41.6-.64.86s-.21.74-.17,1.13h-.51a1.28,1.28,0,0,0-.16-1.12c-.23-.27-.43-.58-.64-.87Z"/><path d="M22.6,11.57v-.34h2v.37h-.73v1.65h-.51a1.88,1.88,0,0,0,.05-.33c0-.38,0-.77,0-1.16,0-.15-.05-.2-.19-.19Z"/><path d="M19.3,11.26h.48v2H19.3Z"/></g><path class="cls-4" d="M37.13,10.28v4.24a3.91,3.91,0,0,0-3.39.92,3.79,3.79,0,0,0-1,3.37H5.91c.35-2.42-1.2-4.73-4.41-4.3V10.27a3.92,3.92,0,0,0,3.39-.92A3.82,3.82,0,0,0,5.91,6H32.72C32.37,8.4,33.92,10.71,37.13,10.28ZM2.06,13.89c2.83.1,4.34,1.54,4.48,4.38H32.11a4.29,4.29,0,0,1,1.22-3.2,4.4,4.4,0,0,1,3.24-1.16v-3a4.36,4.36,0,0,1-3.24-1.14,4.32,4.32,0,0,1-1.22-3.2H6.52A4.32,4.32,0,0,1,5.3,9.73a4.38,4.38,0,0,1-3.24,1.15Z"/><path class="cls-4" d="M4.26,8.69c-.54,0-1.07,0-1.6-.07a1.82,1.82,0,0,1-1-.36.76.76,0,0,1-.28-.83A.69.69,0,0,1,2,6.86a3,3,0,0,1,.49,0s0-.09,0-.15a.73.73,0,0,1,.36-.88.83.83,0,0,1,1,.21,1.81,1.81,0,0,1,.37,1c0,.31,0,.62,0,.93Z"/><path class="cls-4" d="M36.16,6.93l.21,0a.72.72,0,0,1,.86.39.8.8,0,0,1-.23,1,1.93,1.93,0,0,1-1,.35c-.39,0-.77,0-1.16,0l-.46,0c0-.63.07-1.25.14-1.86a1.79,1.79,0,0,1,.26-.66.8.8,0,0,1,1.07-.31.74.74,0,0,1,.36,1A.75.75,0,0,0,36.16,6.93Z"/><path class="cls-4" d="M4.27,16.13c0,.59-.06,1.2-.13,1.8a1.88,1.88,0,0,1-.25.67.8.8,0,0,1-1.06.32.73.73,0,0,1-.38-1,.19.19,0,0,0,0-.08,2.61,2.61,0,0,1-.48.05.68.68,0,0,1-.63-.55.75.75,0,0,1,.27-.85,1.91,1.91,0,0,1,1-.36c.31,0,.61,0,.91,0Z"/><path class="cls-4" d="M34.37,16.1c.54,0,1.07,0,1.6.07a2,2,0,0,1,1,.36.76.76,0,0,1,.27.85.69.69,0,0,1-.62.55,2.81,2.81,0,0,1-.49-.05.79.79,0,0,0,0,.13.74.74,0,0,1-.36.9.83.83,0,0,1-1.05-.23,1.89,1.89,0,0,1-.35-1c0-.3,0-.59,0-.89Z"/><path class="cls-4" d="M17.08,13.45v-2c.49,0,1,0,1.52,0a.48.48,0,0,1,.48.35.51.51,0,0,1-.2.58c.09.12.22.22.26.35.12.37-.14.68-.57.7S17.57,13.45,17.08,13.45Zm.47-.33h.93a.22.22,0,0,0,.24-.24.23.23,0,0,0-.22-.26h-.95Zm0-.86c.31,0,.61,0,.9,0a.34.34,0,0,0,.21-.21.29.29,0,0,0-.15-.23c-.32,0-.64,0-1,0Z"/><path class="cls-4" d="M21.87,13.45a1.36,1.36,0,0,0-.46-.73c-.1-.11-.36-.07-.54-.09v.81h-.49v-2c.48,0,1,0,1.48,0a.51.51,0,0,1,.55.45c0,.4-.07.57-.53.72l.58.81Zm-1-1.14h.88c.14,0,.25-.07.26-.23s0-.26-.18-.27c-.32,0-.64,0-1-.05Z"/><path class="cls-4" d="M27.64,11.47c.45,0,.94,0,1.42,0a.91.91,0,0,1,.74,1.08.89.89,0,0,1-1,.89c-.4,0-.8,0-1.17,0Zm.45,1.66h.53a1.27,1.27,0,0,0,.28,0c.32-.06.46-.28.46-.68s-.16-.59-.47-.63a5,5,0,0,0-.67,0,.16.16,0,0,0-.12.1C28.09,12.29,28.09,12.7,28.09,13.13Z"/><path class="cls-4" d="M3.82,11.46h.49v.79H5.45v-.79H6a8.28,8.28,0,0,0,0,2H5.45v-.84H4.31v.84H3.82Z"/><path class="cls-4" d="M26.75,13.45v-.84H25.61v.84h-.48v-2h.48v.79h1.14v-.78h.48c0,.65,0,1.31,0,2Z"/><path class="cls-4" d="M9.55,12.66v.79H9a7.69,7.69,0,0,0,0-2c.5,0,1,0,1.49,0a.54.54,0,0,1,.52.54.51.51,0,0,1-.48.6C10.24,12.65,9.89,12.65,9.55,12.66Zm0-.35h.84a.24.24,0,0,0,.25-.26.22.22,0,0,0-.22-.26H9.53Z"/><path class="cls-4" d="M11.42,13.45c0-.66,0-1.32,0-2,.48,0,1,0,1.52,0a.55.55,0,0,1,.46.59.51.51,0,0,1-.48.54c-.34,0-.69,0-1,.05v.79Zm.44-1.14h.82A.26.26,0,0,0,13,12a.23.23,0,0,0-.23-.25h-.86Z"/><path class="cls-4" d="M8,13.45a.35.35,0,0,0-.3-.5H7.23a.35.35,0,0,0-.34.51H6.32c.17-.33.34-.65.49-1a3.1,3.1,0,0,0,.4-1h.56a1,1,0,0,0,.05.27c.24.5.49,1,.74,1.49,0,.08.1.15.15.23Zm-.23-.77L7.48,12l-.35.73Z"/><path class="cls-4" d="M31,11.46h.62a.58.58,0,0,0,0,.23c.26.54.53,1.07.8,1.6l.11.15h-.65a.37.37,0,0,0-.35-.49h-.44a.38.38,0,0,0-.4.5H30.1A6.71,6.71,0,0,0,31,11.46Zm.31.49-.35.72h.67Z"/><path class="cls-4" d="M15,13.45h-.46a1.3,1.3,0,0,0-.18-1.16,8.44,8.44,0,0,1-.61-.83h.65c0,.34.27.51.37.77a1,1,0,0,0,.43-.77h.66a7.43,7.43,0,0,0-.78,1.11A2.49,2.49,0,0,0,15,13.45Z"/><path class="cls-4" d="M33.52,11.46c0,.34.28.51.4.82.16-.3.42-.48.44-.82H35c-.21.29-.4.59-.63.86s-.21.74-.18,1.13h-.5a1.28,1.28,0,0,0-.16-1.12c-.23-.27-.43-.58-.64-.87Z"/><path class="cls-4" d="M22.79,11.77v-.34h2v.37H24v1.65h-.51a1.88,1.88,0,0,0,0-.33c0-.38,0-.77,0-1.16,0-.15,0-.2-.19-.19Z"/><path class="cls-4" d="M19.5,11.46H20v2H19.5Z"/></g></g></svg>