<svg xmlns="http://www.w3.org/2000/svg" viewBox="0 0 38.55 24.66"><defs><style>.cls-1{isolation:isolate;}.cls-2{opacity:0.15;}.cls-2,.cls-3{mix-blend-mode:multiply;}.cls-4{fill:#fff;}</style></defs><title>convert-FIX-SVG-03</title><g class="cls-1"><g id="Layer_1" data-name="Layer 1"><g class="cls-2"><path d="M11.48,15.75l-.44.69-.06,0,.1-.73-.64.59c.05-.26.1-.49.15-.73s0-.22-.14-.25c-.43-.09-.51-.36-.51-.77,0-2.47,0-4.93,0-7.39a1.15,1.15,0,0,0-.08-.32l.17-.1,4.28-2.39a.72.72,0,0,0,.28-.24,1.43,1.43,0,0,1,.88-.46,1.42,1.42,0,0,0,.31-.11L18.43,2a.31.31,0,0,1,.31,0l3.2,1.39c.35.15.71.27,1.06.42l5.69,2.49,0,0V7q0,3.67,0,7.33a.38.38,0,0,1-.21.37l-8.06,4.72c-.08,0-.15.13-.25.21ZM14.39,4.66l-.05,0L10.43,6.8s0,0,0,0l2.4,1.09a.25.25,0,0,0,.17,0,6.35,6.35,0,0,1,3-1.24,2.29,2.29,0,0,1,1.63.26A16.09,16.09,0,0,0,13.88,8.4c.29.13.55.24.79.36a.33.33,0,0,0,.39,0l2.52-1.6a.72.72,0,0,1,.6-.14,4.52,4.52,0,0,0,.53.06l.94.12L16.34,9.51,19.2,10.8a9.67,9.67,0,0,0,.88-2.18A3.69,3.69,0,0,0,20.17,8a1.33,1.33,0,0,0-.5-1.2,1.82,1.82,0,0,1,.88.27,1,1,0,0,1,.55,1.08,2.44,2.44,0,0,1-.2.7c-.23.5-.5,1-.75,1.47-.12.23-.25.45-.37.67a.48.48,0,0,0,.65,0c1.19-.73,2.39-1.44,3.59-2.15l.21-.14-1.74-1L23,6.6c.8.43,1.58.85,2.35,1.28a.35.35,0,0,0,.4,0l2-1.2.4-.24L28,6.31,23.21,4.25a.67.67,0,0,0-.5,0,16.5,16.5,0,0,0-2.93.8h-.06l0,0c.06,0,.1-.13.17-.17l2-1.12-.12-.07-3-1.29a.36.36,0,0,0-.25,0L16.16,3.61,16,3.72A6.15,6.15,0,0,1,17.59,5a.69.69,0,0,1,.22.69c-.14.66-.12.68-.79.68-.84,0-1.68,0-2.52,0-.35,0-.48-.12-.38-.53,0,0,0-.1.05-.16C14.25,5.34,14.32,5,14.39,4.66Zm.35,12.24V9.77c0-.22.07-.5,0-.66s-.4-.19-.59-.32a.77.77,0,0,0-1,.09c-.45.39-.92.74-1.36,1.1a3.91,3.91,0,0,1,1-1.81L10.22,7v7.59c0,.29.09.38.4.4a15.14,15.14,0,0,0,0-1.65,4.07,4.07,0,0,1,.86-3l.19-.22a2.23,2.23,0,0,1,0,.23c0,.43-.07.86,0,1.28a13.36,13.36,0,0,1-.06,3.84ZM24.48,9l-.23.13c-1.24.74-2.47,1.49-3.71,2.21a.46.46,0,0,0-.25.47c0,1.34,0,2.69,0,4a.63.63,0,0,0,.36.61,2.37,2.37,0,0,0,2.14.08c.34-.13.67-.32,1-.48l-.23.47h.81a4.26,4.26,0,0,1-4.07.79V19.2l.13-.07,3.9-2.28a.31.31,0,0,0,.15-.32V9Zm-8.17.83c0,.07,0,.11,0,.14v7.5a.23.23,0,0,0,.17.24l2.61,1.16.91.4s0-.06,0-.08c0-.63,0-1.27,0-1.9a.27.27,0,0,0-.14-.18,4.28,4.28,0,0,1-1.35-1.26,1.77,1.77,0,0,1-.09-1.93,4.2,4.2,0,0,0,1.59,2V11.78c0-.37,0-.37-.42-.48l-1.2,2.43A4.28,4.28,0,0,1,19.08,11ZM28.47,6.58l-.21.11L25.88,8.11a.35.35,0,0,0-.2.35c0,2.44,0,4.89,0,7.33V16a1.35,1.35,0,0,0,.22-.12l2.4-1.4a.3.3,0,0,0,.17-.31V6.58Z"/><path d="M6.05,11.64c.19.1.36.17.51.27s.26.26.14.41a.31.31,0,0,1-.53,0,5.48,5.48,0,0,1-.34-.46c0,.18,0,.36-.06.54s-.07.32-.29.28a.34.34,0,0,1-.27-.43,4.35,4.35,0,0,1,.29-.52l-.45.09c-.24,0-.37-.06-.38-.23A.33.33,0,0,1,5,11.28a1.26,1.26,0,0,1,.27,0l.27.09A2.75,2.75,0,0,1,5.26,11a.43.43,0,0,1,0-.37.48.48,0,0,1,.38-.14c.1,0,.21.18.24.3a3.29,3.29,0,0,1,0,.64c.12-.13.19-.22.27-.29a3.13,3.13,0,0,1,.42-.29.28.28,0,0,1,.4.12.27.27,0,0,1-.1.38,2.84,2.84,0,0,1-.53.25Z"/><path d="M31.61,5.94c.2.11.39.2.56.31s.21.18.11.34-.3.26-.44.14a3.41,3.41,0,0,1-.39-.45l-.07-.11c0,.22,0,.41-.07.6s-.07.27-.23.24-.34-.11-.32-.3a1.26,1.26,0,0,1,.17-.44,1.09,1.09,0,0,1,.17-.22c-.2,0-.39.08-.58.1a.24.24,0,0,1-.3-.23.29.29,0,0,1,.27-.32,5.7,5.7,0,0,1,.58.06c-.08-.12-.19-.26-.27-.4a.3.3,0,0,1,.09-.44c.25-.16.5-.07.54.23s0,.4,0,.63c.16-.15.28-.27.42-.38a.92.92,0,0,1,.3-.18.27.27,0,0,1,.37.11.25.25,0,0,1-.07.37,2.25,2.25,0,0,1-.46.25A3,3,0,0,1,31.61,5.94Z"/><path d="M8.71,21.26c0-.27,0-.53,0-.79a.39.39,0,0,0-.35-.37H9.44c-.31.08-.33.31-.33.57v1.44c0,.25.06.43.33.51H8.36c.33-.06.37-.3.36-.57v-.68H7.34c0,.3,0,.6,0,.89a.39.39,0,0,0,.34.36H6.59c.31-.06.36-.29.36-.55V20.61c0-.31-.07-.4-.39-.51H7.69c-.32.06-.37.3-.36.57s0,.38,0,.59Z"/><path d="M18.11,22.63c.28-.12.36-.21.36-.5V20.6c0-.3-.07-.38-.4-.51.53,0,1,0,1.49,0a.58.58,0,0,1,.6.47c.05.28-.08.5-.4.69l.13,0a.67.67,0,0,1,.52.7.62.62,0,0,1-.59.59l-.18,0Zm.74-1.3v.75c0,.42.22.59.63.5A.59.59,0,0,0,20,22a.55.55,0,0,0-.5-.62A4.18,4.18,0,0,0,18.85,21.33Zm0-.06c.31,0,.61.05.8-.24a.6.6,0,0,0,0-.68c-.19-.29-.49-.22-.78-.21Z"/><path d="M3.81,3.63c-.12,0-.25.05-.38.06s-.26,0-.23-.17a.32.32,0,0,1,.21-.23,1.1,1.1,0,0,1,.4,0A4.05,4.05,0,0,1,3.6,3c-.08-.17,0-.26.16-.32a.21.21,0,0,1,.31.16c0,.15,0,.31,0,.47.11-.09.2-.2.32-.28a.63.63,0,0,1,.29-.1A.2.2,0,0,1,4.9,3c0,.08,0,.21-.06.24s-.39.19-.57.28a3,3,0,0,1,.32.19c.11.07.22.15.1.3a.24.24,0,0,1-.37,0A3.76,3.76,0,0,1,4,3.73C4,3.87,4,4,4,4.12s-.06.24-.23.2A.24.24,0,0,1,3.6,4,3.24,3.24,0,0,1,3.81,3.63Z"/><path d="M9.65,18.27a3.36,3.36,0,0,1,.38.19c.1.06.19.14.09.28s-.21.18-.34.08a3.59,3.59,0,0,1-.32-.35c0,.13,0,.26,0,.39s-.06.24-.22.19S9,18.9,9,18.73a3.35,3.35,0,0,1,.2-.37c-.11,0-.23.06-.35.07s-.24,0-.25-.16A.2.2,0,0,1,8.82,18a2,2,0,0,1,.42.05c-.06-.08-.14-.13-.16-.21A.54.54,0,0,1,9,17.49a.32.32,0,0,1,.28-.1.61.61,0,0,1,.18.3,1.14,1.14,0,0,1,0,.32l.07,0c0-.06.07-.13.11-.18a1.37,1.37,0,0,1,.23-.19c.13-.08.28-.15.39,0s0,.29-.15.36S9.83,18.19,9.65,18.27Z"/><path d="M30.13,16.4l-.37.06c-.12,0-.25,0-.26-.16a.22.22,0,0,1,.23-.25c.13,0,.25,0,.39,0-.07-.1-.15-.2-.21-.3s0-.3.16-.36.27,0,.3.19a3,3,0,0,1,.05.43l.42-.35c.12-.08.26-.1.35.05a.22.22,0,0,1-.12.33,4.61,4.61,0,0,1-.51.22l.38.2c.1.07.17.16.08.28s-.2.18-.33.08a3.92,3.92,0,0,1-.33-.36c0,.12,0,.24,0,.35s0,.25-.2.24a.26.26,0,0,1-.21-.33.48.48,0,0,1,.09-.19Z"/><path d="M36.43,12.6a2.2,2.2,0,0,1-.21-.32.31.31,0,0,1,0-.27.35.35,0,0,1,.28-.08c.06,0,.13.12.15.19a3.13,3.13,0,0,1,0,.46l.17-.16a1.14,1.14,0,0,1,.32-.22.3.3,0,0,1,.29.08.34.34,0,0,1-.07.28,1.72,1.72,0,0,1-.41.19l-.17.05a4.27,4.27,0,0,1,.38.22c.1.06.18.15.08.28s-.21.17-.33.07a3.66,3.66,0,0,1-.31-.35c0,.11,0,.23,0,.35s0,.25-.22.21a.26.26,0,0,1-.19-.35,3.13,3.13,0,0,1,.21-.34l-.36.06c-.11,0-.24,0-.25-.16a.21.21,0,0,1,.22-.25A2.7,2.7,0,0,1,36.43,12.6Z"/><path d="M27.05,20.13l.58-.08v2.13c0,.21,0,.38.28.44-.2,0-.43.16-.62-.07l-.2.08a.75.75,0,0,0,.24-.67c0-.25,0-.5-.07-.76h.07v-.66A.37.37,0,0,0,27.05,20.13Z"/><path d="M24.73,22.62H24c.2-.07.23-.23.23-.41,0-.57,0-1.15,0-1.73a1.16,1.16,0,0,0-.15-.4l.45-.07v1.27l.16-.09a2.09,2.09,0,0,0-.14,1.2C24.55,22.47,24.66,22.54,24.73,22.62Z"/><path d="M13.4,21.06l.51-.07.05.18.23-.07a.84.84,0,0,0-.25.73,1,1,0,0,0,.21.76l-.22-.08c.07.3-.14.64.27.83h-.79a.36.36,0,0,0,.23-.41V21.49C13.64,21.3,13.61,21.13,13.4,21.06Z"/><path d="M12.12,22.6l-.18-.08c-.1.48,0,.67.23.81h-.83c.27-.07.27-.26.27-.46V21.49c0-.18,0-.35-.25-.42l.52-.09,0,.2.23-.08a.89.89,0,0,0-.24.72A.94.94,0,0,0,12.12,22.6Z"/><path d="M30.75,21.07h.47a3.14,3.14,0,0,0-.24.39c-.22.51-.42,1-.65,1.53a1.09,1.09,0,0,1-.27.33s-.17,0-.24,0-.05-.1-.07-.15a.44.44,0,0,1,.15-.05c.09,0,.25.05.27,0s.22-.35.18-.48c-.17-.5-.4-1-.6-1.48a.59.59,0,0,0-.11-.09h.75c-.24.07-.23.2-.18.33l.35.91c.13-.32.25-.59.35-.87A.27.27,0,0,0,30.75,21.07Z"/><path d="M15.38,21.07H16c-.17.08-.16.21-.11.34l.35.91c.13-.32.25-.59.35-.87a.25.25,0,0,0-.15-.37H17a1.69,1.69,0,0,0-.23.36c-.23.52-.44,1-.67,1.56a.84.84,0,0,1-.25.31.39.39,0,0,1-.26,0s0-.1-.07-.15a.44.44,0,0,1,.15-.05c.1,0,.26.05.28,0s.21-.36.17-.5c-.16-.48-.37-.95-.57-1.43A.68.68,0,0,0,15.38,21.07Z"/><path d="M11.33,22.5c-.28.33-.51.09-.71,0,0-.2,0-.44,0-.68h-.06a2.87,2.87,0,0,0,.05-.41.27.27,0,0,0-.24-.28c-.16,0-.23.07-.3.2a.46.46,0,0,1-.18.16s-.12-.09-.11-.12a.43.43,0,0,1,.14-.2.86.86,0,0,1,.85,0,.44.44,0,0,1,.15.3c0,.26,0,.53,0,.8S11,22.59,11.33,22.5Z"/><path d="M29.66,22.51c-.26.34-.5.06-.7,0l0-.69h0a1.73,1.73,0,0,0,0-.45.36.36,0,0,0-.25-.23c-.07,0-.17.1-.26.16s0,.07,0,.1a.33.33,0,0,1-.14.1.17.17,0,0,1-.12-.1.23.23,0,0,1,.05-.18.4.4,0,0,1,.23-.1,3,3,0,0,1,.6,0,.31.31,0,0,1,.26.35c0,.25,0,.51,0,.76S29.37,22.59,29.66,22.51Z"/><path d="M23.05,21.07l.37-.49v.48h.42v0h-.4c0,.42,0,.82,0,1.22,0,.21.16.29.36.32a2.55,2.55,0,0,1-.39,0,.29.29,0,0,1-.28-.33q0-.54,0-1.08A.48.48,0,0,0,23.05,21.07Z"/><path d="M21.62,22.62a1.17,1.17,0,0,0,0-1.47l.46-.08.05.21.12-.07a2.55,2.55,0,0,0-.08,1.16c0,.09.11.17.17.25Z"/><path d="M20.69,21.15l.52-.08v1.16c0,.16,0,.33.21.39h-.73A1.2,1.2,0,0,0,20.69,21.15Z"/><path d="M31.74,22c-.07-.57-.13-1.1-.19-1.63,0-.16,0-.29.22-.3s.24.13.22.29c-.06.51-.13,1-.19,1.53A.74.74,0,0,0,31.74,22Z"/><path d="M14.34,21.08a.72.72,0,0,1,.88.74.77.77,0,0,1-.82.85c.1-.1.28-.19.36-.34a1.15,1.15,0,0,0,.11-.55A.65.65,0,0,0,14.34,21.08Z"/><path d="M12.25,22.67a.73.73,0,0,0,.59-.82.7.7,0,0,0-.57-.78.77.77,0,0,1,.8.33.83.83,0,0,1,0,.92A.79.79,0,0,1,12.25,22.67Z"/><path d="M27,22.66c-.6,0-.94-.27-.93-.8a.76.76,0,0,1,.89-.78.74.74,0,0,0-.55.85A.71.71,0,0,0,27,22.66Z"/><path d="M24.94,21.07c.54,0,.69.12.69.62v.53c0,.17,0,.33.21.39H25c.28-.06.3-.23.3-.41s0-.44,0-.66S25.25,21.16,24.94,21.07Z"/><path d="M2.07,18.45l.11.48-.82.2-.12-.48Z"/><path d="M7.54,2.21,8.37,2l.12.47c-.25.06-.48.13-.71.17a.16.16,0,0,1-.14-.09A2,2,0,0,1,7.54,2.21Z"/><path d="M2.41,10.61l-.82.21-.13-.48.83-.2Z"/><path d="M35.32,17.53l.14.59-.48.11-.14-.59Z"/><path d="M27.56,1.62l.16.59-.48.11-.15-.58Z"/><path d="M33.33,10.11l.52-.28.23.4-.52.28Z"/><path d="M25.86,17.85l.23.41-.52.28-.23-.41Z"/><path d="M9.44,12.92l-.52.28-.23-.41.52-.28Z"/><path d="M31.64,15.42,31.4,15l.51-.28.24.4Z"/><path d="M35.25,2.75,34.73,3l-.23-.4L35,2.35Z"/><path d="M12.16,4l-.52.27-.22-.4.51-.28Z"/><path d="M37.45,6.64l-.52.29-.24-.4.52-.29Z"/><path d="M4.7,6.74,4.18,7,4,6.61l.52-.28Z"/><path d="M10.43,21.87c-.44.34-.47.56-.15.79-.31,0-.51-.09-.53-.3S9.94,21.91,10.43,21.87Z"/><path d="M28.75,21.87c-.41.4-.44.56-.13.79-.33,0-.52-.1-.53-.33S28.31,21.9,28.75,21.87Z"/><path d="M4.16,21,4,20.55l.47-.11.12.48Z"/><path d="M28.72,19.3l.21.42-.44.23-.22-.42Z"/><path d="M32,22.47c-.09.07-.17.19-.25.18a.27.27,0,0,1-.22-.2c0-.08.12-.21.2-.23s.17.11.26.16Z"/><path d="M21.06,20.45c-.08-.11-.16-.18-.15-.23s.11-.11.17-.17.13.12.14.18S21.14,20.35,21.06,20.45Z"/><path d="M11.78,18.25l.24,0,.07.28-.24,0Z"/><path d="M2.92,14.68l.24-.06.07.28L3,15Z"/><path d="M22.37,21.09a2.4,2.4,0,0,1,.38,0s.08.08.11.13,0,.08-.05.08a.34.34,0,0,1-.17,0A3.11,3.11,0,0,1,22.37,21.09Z"/><path d="M15.65,19.27l.06.29-.23.07-.07-.29Z"/><path d="M33.71,19.4l.07-.22.29.08-.07.23Z"/><path d="M34.87,15l-.08.22-.25-.08C34.55,14.88,34.55,14.88,34.87,15Z"/><path d="M35.51,21.09l-.07.23-.29-.09.08-.22Z"/><path d="M6,17.23,6,17.46l-.29-.08.06-.22Z"/><path d="M30.71,12.92l.07-.22.29.07L31,13Z"/><path d="M30.9,18.08l.21,0c.13.27.11.31-.16.3Z"/><path d="M7.69,4.86l-.24,0-.06-.28.23,0Z"/><path d="M2.34,5.58l-.23,0L2,5.35l.24-.06Z"/><path d="M2,1.85l.25,0,.06.28-.23,0Z"/><path d="M25.73,4.29l.29.1L26,4.6l-.29-.07Z"/><path d="M9.24,6.5l.07.28-.23.06L9,6.56Z"/><path d="M21.82,8c-.4-.35-.73-.68-1.1-1s-.52-.27-.77-.42a.27.27,0,0,1-.13-.15c0-.25,0-.51,0-.76a.23.23,0,0,1,.1-.16,10,10,0,0,1,2.63-.94,2.09,2.09,0,0,1,.61,0,.34.34,0,0,1,.28.39A2.1,2.1,0,0,1,23,6.23a8.92,8.92,0,0,0-.73,1.18A6.22,6.22,0,0,1,21.82,8Z"/><path d="M19.53,5.66V6.4c0,.3-.17.41-.47.32a.81.81,0,0,0-.22,0,7.42,7.42,0,0,1-.82,0c-.06,0-.14-.14-.14-.21.05-.42.11-.84.18-1.25,0-.14.17-.18.3-.07a.57.57,0,0,0,.53.11,1.37,1.37,0,0,1,.45,0C19.51,5.3,19.62,5.38,19.53,5.66Z"/><path d="M11.68,16l-.44.69-.06,0,.1-.73-.64.6c0-.26.1-.49.15-.73s0-.22-.14-.25c-.43-.09-.51-.36-.51-.77,0-2.47,0-4.93,0-7.39A1.49,1.49,0,0,0,10.07,7l.17-.1,4.28-2.39a.94.94,0,0,0,.28-.24,1.41,1.41,0,0,1,.88-.46A1.92,1.92,0,0,0,16,3.71l2.64-1.47a.31.31,0,0,1,.31,0l3.2,1.39c.35.15.71.27,1.06.42l5.68,2.49.05,0v8a.34.34,0,0,1-.2.36l-8.06,4.73a2,2,0,0,0-.25.21Zm2.91-11.1-.06,0L10.62,7l0,0,2.41,1.08a.18.18,0,0,0,.16,0,6.44,6.44,0,0,1,3-1.24,2.3,2.3,0,0,1,1.64.26A15.91,15.91,0,0,0,14.08,8.6c.29.13.55.23.79.36a.35.35,0,0,0,.39,0c.83-.54,1.68-1.06,2.51-1.6a.75.75,0,0,1,.61-.14,4.52,4.52,0,0,0,.53.06l.94.12L16.54,9.71,19.4,11a9.67,9.67,0,0,0,.88-2.18,3.88,3.88,0,0,0,.09-.58,1.33,1.33,0,0,0-.5-1.2,1.82,1.82,0,0,1,.88.27,1,1,0,0,1,.55,1.08,2.81,2.81,0,0,1-.2.7c-.24.5-.5,1-.76,1.47-.12.22-.24.45-.37.67a.49.49,0,0,0,.66,0c1.19-.73,2.39-1.44,3.59-2.16L24.43,9l-1.74-1,.55-1.14c.8.43,1.58.85,2.35,1.28a.33.33,0,0,0,.39,0c.67-.41,1.34-.8,2-1.2l.39-.25-.21-.1L23.41,4.44a.78.78,0,0,0-.5-.05A16.52,16.52,0,0,0,20,5.2h-.06l0,0A.69.69,0,0,1,20.05,5l2-1.12L21.9,3.8c-1-.43-2-.87-3-1.29a.31.31,0,0,0-.25,0L16.36,3.81l-.16.11a6,6,0,0,1,1.59,1.31.68.68,0,0,1,.22.69c-.14.65-.12.68-.79.68l-2.52,0c-.35,0-.48-.13-.38-.53,0-.06,0-.11,0-.16C14.44,5.54,14.52,5.2,14.59,4.85Zm.35,12.25V10c0-.22.07-.5,0-.66s-.4-.2-.6-.32a.75.75,0,0,0-1,.09c-.44.39-.91.74-1.35,1.09a3.79,3.79,0,0,1,1-1.8L10.42,7.24v7.59c0,.29.09.38.4.4,0-.55,0-1.11,0-1.65a4.07,4.07,0,0,1,.86-3l.19-.22c0,.11,0,.17,0,.22a11.19,11.19,0,0,0,0,1.29,13.66,13.66,0,0,1-.06,3.83Zm9.74-7.94-.23.13L20.74,11.5a.44.44,0,0,0-.25.46c0,1.35,0,2.7,0,4.05a.63.63,0,0,0,.36.61A2.37,2.37,0,0,0,23,16.7c.34-.13.66-.32,1-.49l-.23.48h.81a4.27,4.27,0,0,1-4.07.79V19.4l.13-.07,3.9-2.28a.32.32,0,0,0,.15-.32V9.16ZM16.51,10c0,.07,0,.11,0,.14v7.5a.23.23,0,0,0,.17.24L19.28,19l.91.4s0-.06,0-.08c0-.63,0-1.27,0-1.9a.25.25,0,0,0-.14-.18A4.67,4.67,0,0,1,18.71,16a1.79,1.79,0,0,1-.08-1.93,4.2,4.2,0,0,0,1.59,2V12c0-.37,0-.37-.43-.48L18.6,13.93a4.19,4.19,0,0,1,.68-2.69ZM28.67,6.78l-.21.11L26.08,8.31a.35.35,0,0,0-.2.35v7.58l.22-.12,2.39-1.4a.31.31,0,0,0,.18-.32V6.78Z"/><path d="M6.25,11.84c.19.1.35.17.51.27s.26.26.14.41a.32.32,0,0,1-.53,0A5.55,5.55,0,0,1,6,12.09a4.93,4.93,0,0,1,0,.54c0,.15-.07.32-.29.27a.32.32,0,0,1-.27-.42A5.45,5.45,0,0,1,5.7,12a4.47,4.47,0,0,1-.45.09c-.24,0-.37,0-.38-.22a.33.33,0,0,1,.35-.34,1.17,1.17,0,0,1,.27,0l.28.09a2,2,0,0,1-.31-.45.41.41,0,0,1,0-.36.47.47,0,0,1,.38-.14.41.41,0,0,1,.23.3,3.29,3.29,0,0,1,0,.64,2.66,2.66,0,0,1,.28-.29A2.42,2.42,0,0,1,6.78,11a.28.28,0,0,1,.4.11.27.27,0,0,1-.11.39,4.3,4.3,0,0,1-.53.25C6.46,11.8,6.37,11.81,6.25,11.84Z"/><path d="M31.81,6.14c.2.11.39.2.56.31s.21.18.11.33-.3.27-.44.15a3,3,0,0,1-.39-.46l-.07-.1c0,.22,0,.41-.07.6s-.07.27-.23.24S30.94,7.1,31,6.9a1.3,1.3,0,0,1,.16-.44c0-.07.12-.13.18-.21-.2,0-.39.08-.58.1s-.29,0-.3-.23a.29.29,0,0,1,.27-.32,5.7,5.7,0,0,1,.58.06c-.09-.13-.19-.26-.27-.4A.32.32,0,0,1,31.09,5c.25-.15.5-.06.54.23s0,.4,0,.64c.16-.15.28-.27.42-.38a1.17,1.17,0,0,1,.3-.19.29.29,0,0,1,.37.11.26.26,0,0,1-.07.38,1.83,1.83,0,0,1-.46.24A1.91,1.91,0,0,1,31.81,6.14Z"/><path d="M8.91,21.46c0-.27,0-.53,0-.79a.4.4,0,0,0-.35-.37H9.64c-.32.07-.34.31-.33.57v1.44a.42.42,0,0,0,.33.5H8.56c.33,0,.37-.29.36-.56v-.68H7.54c0,.3,0,.6,0,.89a.38.38,0,0,0,.35.35H6.79c.31,0,.36-.28.36-.55,0-.48,0-1,0-1.46,0-.31-.07-.39-.39-.5H7.89c-.32.06-.37.3-.36.57v.59Z"/><path d="M18.31,22.83c.28-.12.35-.21.36-.5V20.8c0-.3-.07-.39-.4-.51.53,0,1,0,1.49,0a.58.58,0,0,1,.6.47c.05.28-.08.5-.4.69l.13.05a.67.67,0,0,1,.52.7.63.63,0,0,1-.59.59l-.18,0Zm.74-1.3v.75c0,.42.21.59.63.49a.64.64,0,0,0,0-1.24C19.47,21.51,19.27,21.53,19.05,21.53Zm0-.06c.31,0,.61.05.8-.24a.6.6,0,0,0,0-.68c-.18-.29-.48-.22-.77-.21Z"/><path d="M4,3.83c-.13,0-.25,0-.38.06s-.26,0-.23-.17a.31.31,0,0,1,.21-.23,1.11,1.11,0,0,1,.4,0,3.87,3.87,0,0,1-.21-.34c-.08-.17,0-.26.16-.32a.2.2,0,0,1,.3.16,3.35,3.35,0,0,1,.06.47,2.92,2.92,0,0,1,.32-.28.73.73,0,0,1,.29-.11.23.23,0,0,1,.17.13c0,.07,0,.21-.06.24s-.39.19-.58.28l.33.18c.11.07.22.16.1.31a.23.23,0,0,1-.37,0,2.68,2.68,0,0,1-.28-.35,2.34,2.34,0,0,1,0,.39c0,.11,0,.24-.22.2a.24.24,0,0,1-.18-.34A2,2,0,0,1,4,3.83Z"/><path d="M9.85,18.46l.38.2c.09.06.19.14.09.28s-.21.18-.34.08a3.59,3.59,0,0,1-.32-.35,2.33,2.33,0,0,1,0,.38c0,.11,0,.25-.21.2s-.26-.15-.2-.32a2.81,2.81,0,0,1,.2-.38l-.35.08c-.12,0-.24,0-.26-.16A.21.21,0,0,1,9,18.22a3,3,0,0,1,.42,0,1,1,0,0,1-.17-.2.6.6,0,0,1,0-.37.32.32,0,0,1,.28-.1.5.5,0,0,1,.17.3,1.13,1.13,0,0,1,0,.32l.07.05a.67.67,0,0,1,.11-.18,1.37,1.37,0,0,1,.23-.19c.13-.08.28-.15.39,0s0,.28-.15.36S10,18.39,9.85,18.46Z"/><path d="M30.33,16.6l-.38.06c-.12,0-.24,0-.25-.16a.22.22,0,0,1,.23-.25c.12,0,.25,0,.38,0a2.61,2.61,0,0,1-.2-.3c-.09-.17,0-.3.16-.36s.27,0,.3.19,0,.28.05.43A4.58,4.58,0,0,1,31,15.9c.12-.08.26-.1.35,0a.22.22,0,0,1-.12.33,4.61,4.61,0,0,1-.51.22c.12.06.25.12.38.2s.17.16.08.28-.2.18-.33.08a2.88,2.88,0,0,1-.33-.36c0,.12,0,.24,0,.35s0,.25-.2.23a.25.25,0,0,1-.22-.32,1.11,1.11,0,0,1,.09-.19Z"/><path d="M36.63,12.8a2.3,2.3,0,0,1-.21-.33.33.33,0,0,1,0-.26.44.44,0,0,1,.29-.09c.06,0,.13.13.15.2a3.13,3.13,0,0,1,0,.46l.17-.16a1.14,1.14,0,0,1,.32-.22.3.3,0,0,1,.28.07.29.29,0,0,1-.06.28,1.56,1.56,0,0,1-.41.2L37,13a3.39,3.39,0,0,1,.39.22c.1.06.18.15.08.28a.23.23,0,0,1-.33.07,3.52,3.52,0,0,1-.31-.35c0,.11,0,.23,0,.35s-.05.25-.22.21a.26.26,0,0,1-.19-.36,2.56,2.56,0,0,1,.21-.33l-.36.06c-.11,0-.24,0-.25-.16s.07-.25.22-.25A2.7,2.7,0,0,1,36.63,12.8Z"/><path d="M27.25,20.33l.58-.08v2.13c0,.21,0,.38.28.44-.21-.05-.43.15-.62-.07l-.2.07a.73.73,0,0,0,.24-.67c0-.24-.05-.49-.07-.75h.07c0-.23,0-.44,0-.66A.37.37,0,0,0,27.25,20.33Z"/><path d="M24.93,22.82H24.2c.2-.07.22-.23.22-.41,0-.57,0-1.15,0-1.73a1.8,1.8,0,0,0-.15-.4l.45-.07v1.27l.16-.09a2,2,0,0,0-.14,1.2C24.74,22.67,24.86,22.74,24.93,22.82Z"/><path d="M13.59,21.26l.52-.08.05.19.23-.07a.83.83,0,0,0-.25.72,1,1,0,0,0,.21.77l-.22-.08c.07.3-.15.63.26.83h-.78c.2-.07.23-.23.23-.42V21.69C13.84,21.5,13.8,21.33,13.59,21.26Z"/><path d="M12.32,22.8l-.18-.08c-.1.48-.05.67.22.81h-.82c.27-.07.27-.27.27-.46V21.69a.38.38,0,0,0-.26-.43l.53-.08,0,.19.23-.07a.87.87,0,0,0-.24.72A1,1,0,0,0,12.32,22.8Z"/><path d="M31,21.27h.47a3.14,3.14,0,0,0-.24.39c-.22.51-.42,1-.65,1.53a1,1,0,0,1-.28.33s-.16,0-.23,0-.05-.1-.07-.15a.44.44,0,0,1,.15-.05c.09,0,.25.05.27,0s.22-.35.18-.48c-.17-.5-.4-1-.61-1.48,0,0-.06-.05-.11-.09h.76c-.25.07-.23.2-.18.33l.35.91.35-.87A.27.27,0,0,0,31,21.27Z"/><path d="M15.58,21.27h.66c-.17.08-.16.21-.11.34l.35.91c.13-.32.25-.59.35-.87a.26.26,0,0,0-.15-.38h.47a2.92,2.92,0,0,0-.24.37c-.22.52-.43,1-.66,1.55a.87.87,0,0,1-.25.32.39.39,0,0,1-.26,0s0-.1-.07-.15a.44.44,0,0,1,.15-.05c.1,0,.26.05.28,0s.21-.36.17-.5c-.16-.49-.38-.95-.58-1.43A1.09,1.09,0,0,0,15.58,21.27Z"/><path d="M11.53,22.7c-.28.33-.51.08-.71,0,0-.2,0-.44,0-.68h-.06a2.87,2.87,0,0,0,.05-.41.27.27,0,0,0-.24-.28c-.16,0-.24.07-.3.2a.55.55,0,0,1-.18.16s-.12-.1-.11-.12a.33.33,0,0,1,.14-.2.86.86,0,0,1,.85,0,.43.43,0,0,1,.15.29c0,.27,0,.54,0,.81S11.24,22.79,11.53,22.7Z"/><path d="M29.86,22.71c-.26.33-.5.06-.7,0l0-.69h-.05a1.78,1.78,0,0,0,0-.46.39.39,0,0,0-.25-.22c-.07,0-.18.1-.26.16s0,.07,0,.09-.09.1-.14.1a.13.13,0,0,1-.12-.09.23.23,0,0,1,.05-.18.4.4,0,0,1,.23-.1,3,3,0,0,1,.6,0,.31.31,0,0,1,.26.35c0,.25,0,.51,0,.76S29.57,22.79,29.86,22.71Z"/><path d="M23.25,21.27l.36-.49v.48H24v0h-.41c0,.42,0,.82,0,1.22,0,.21.16.29.36.32a2.55,2.55,0,0,1-.39,0,.3.3,0,0,1-.28-.33q0-.54,0-1.08C23.33,21.39,23.27,21.33,23.25,21.27Z"/><path d="M21.82,22.82a1.2,1.2,0,0,0,0-1.47l.46-.08,0,.21.12-.07a2.71,2.71,0,0,0-.09,1.16c0,.09.12.17.18.25Z"/><path d="M20.88,21.35l.53-.08v1.16c0,.16,0,.32.21.39h-.73A1.19,1.19,0,0,0,20.88,21.35Z"/><path d="M31.93,22.22c-.06-.58-.12-1.1-.18-1.63,0-.16,0-.3.22-.3s.24.13.22.29c-.06.51-.13,1-.2,1.53C32,22.13,32,22.15,31.93,22.22Z"/><path d="M14.54,21.28a.72.72,0,0,1,.88.74.75.75,0,0,1-.82.84,1.59,1.59,0,0,0,.36-.33,1.29,1.29,0,0,0,.11-.55A.65.65,0,0,0,14.54,21.28Z"/><path d="M12.45,22.86A.72.72,0,0,0,13,22a.69.69,0,0,0-.57-.77.74.74,0,0,1,.79.33.81.81,0,0,1,0,.92A.78.78,0,0,1,12.45,22.86Z"/><path d="M27.18,22.86c-.6,0-.94-.27-.93-.81a.76.76,0,0,1,.89-.77.74.74,0,0,0-.55.85A.7.7,0,0,0,27.18,22.86Z"/><path d="M25.14,21.27c.54,0,.69.12.69.62v.52c0,.18,0,.33.21.4h-.81c.28-.06.3-.24.3-.42s0-.43,0-.65S25.45,21.35,25.14,21.27Z"/><path d="M2.26,18.65l.12.48-.82.19-.12-.47Z"/><path d="M7.74,2.41l.83-.19.12.47c-.25.06-.48.13-.71.17a.15.15,0,0,1-.14-.09A2,2,0,0,1,7.74,2.41Z"/><path d="M2.61,10.81l-.82.2-.13-.47.83-.21Z"/><path d="M35.52,17.73l.14.59-.48.11L35,17.84Z"/><path d="M27.76,1.82l.16.59-.49.11-.14-.58Z"/><path d="M33.53,10.3l.52-.27.23.4-.52.28Z"/><path d="M26.06,18.05l.23.41-.52.28-.23-.41Z"/><path d="M9.64,13.12l-.52.28L8.89,13l.52-.28Z"/><path d="M31.83,15.61l-.23-.4.51-.29.24.41Z"/><path d="M35.45,3l-.52.29-.24-.4.52-.29Z"/><path d="M12.36,4.23l-.52.27-.23-.4.52-.28Z"/><path d="M37.64,6.84l-.51.29-.24-.4.52-.29Z"/><path d="M4.9,6.93l-.52.28L4.16,6.8l.51-.27Z"/><path d="M10.63,22.07c-.44.34-.47.56-.15.79-.31,0-.51-.09-.54-.3S10.13,22.11,10.63,22.07Z"/><path d="M29,22.07c-.42.4-.44.56-.13.79-.33,0-.52-.1-.53-.33S28.5,22.1,29,22.07Z"/><path d="M4.35,21.23l-.12-.48.47-.11.12.47Z"/><path d="M28.92,19.5l.21.42-.44.23-.22-.42Z"/><path d="M32.22,22.67c-.09.07-.18.19-.25.18a.31.31,0,0,1-.23-.2.32.32,0,0,1,.21-.23c.08,0,.17.1.26.16Z"/><path d="M21.26,20.65c-.08-.11-.16-.19-.15-.24s.11-.11.17-.16.13.12.13.18S21.34,20.55,21.26,20.65Z"/><path d="M12,18.45l.24,0,.07.28-.24,0Z"/><path d="M3.12,14.88l.23-.06.08.28-.23.07Z"/><path d="M22.57,21.28a2.28,2.28,0,0,1,.38,0s.08.08.11.13,0,.08,0,.08a.32.32,0,0,1-.17,0A2,2,0,0,1,22.57,21.28Z"/><path d="M15.84,19.47l.07.29-.23.06-.07-.28Z"/><path d="M33.91,19.59l.07-.21.29.08-.07.23Z"/><path d="M35.06,15.19l-.07.22-.26-.08C34.75,15.08,34.75,15.08,35.06,15.19Z"/><path d="M35.71,21.29l-.07.23-.29-.09.07-.22Z"/><path d="M6.22,17.43l-.06.23-.29-.08.06-.22Z"/><path d="M30.91,13.12,31,12.9l.29.07-.07.23Z"/><path d="M31.1,18.27l.21,0c.12.27.1.31-.16.3Z"/><path d="M7.89,5.06l-.24,0-.06-.28.23,0Z"/><path d="M2.54,5.78l-.23,0-.08-.28.24-.06Z"/><path d="M2.23,2.05l.24,0,.07.28-.23,0Z"/><path d="M25.93,4.49l.29.09-.07.22-.29-.08Z"/><path d="M9.44,6.7,9.51,7,9.28,7l-.07-.29Z"/><path d="M22,8.19c-.4-.35-.73-.68-1.1-1a6.44,6.44,0,0,0-.78-.42A.29.29,0,0,1,20,6.66c0-.26,0-.51,0-.76a.2.2,0,0,1,.1-.16,9.5,9.5,0,0,1,2.63-.94,1.79,1.79,0,0,1,.61,0,.34.34,0,0,1,.28.39,2.1,2.1,0,0,1-.46,1.21,7.88,7.88,0,0,0-.73,1.17A5.26,5.26,0,0,1,22,8.19Z"/><path d="M19.73,5.86V6.6c0,.3-.18.41-.47.32a.87.87,0,0,0-.23,0c-.27,0-.54,0-.81,0a.25.25,0,0,1-.14-.21c.05-.42.11-.84.18-1.25,0-.14.17-.19.3-.07a.56.56,0,0,0,.53.11,1.37,1.37,0,0,1,.45,0C19.71,5.5,19.82,5.58,19.73,5.86Z"/></g><g class="cls-3"><path d="M11.34,15.61l-.44.69-.06,0,.1-.73-.65.6c.06-.26.11-.49.16-.73s0-.22-.14-.25c-.43-.09-.51-.36-.51-.77,0-2.47,0-4.93,0-7.39a1.49,1.49,0,0,0-.08-.32l.17-.1,4.28-2.39a.94.94,0,0,0,.28-.24,1.36,1.36,0,0,1,.88-.46,1.92,1.92,0,0,0,.31-.11L18.29,1.9a.31.31,0,0,1,.31,0l3.2,1.39c.35.15.71.27,1.06.42l5.68,2.49.05,0v8a.34.34,0,0,1-.2.36l-8.06,4.73a2,2,0,0,0-.25.21Zm2.91-11.1-.06,0L10.28,6.66l0,0,2.41,1.08a.18.18,0,0,0,.16,0,6.44,6.44,0,0,1,2.95-1.24,2.3,2.3,0,0,1,1.64.26,15.91,15.91,0,0,0-3.73,1.47c.29.13.55.23.79.36a.35.35,0,0,0,.39,0c.83-.54,1.68-1.06,2.51-1.6A.75.75,0,0,1,18,6.85a4.52,4.52,0,0,0,.53.06l.94.12L16.2,9.37l2.86,1.29a9.67,9.67,0,0,0,.88-2.18A3.88,3.88,0,0,0,20,7.9a1.33,1.33,0,0,0-.5-1.2,1.82,1.82,0,0,1,.88.27A1,1,0,0,1,21,8.05a2.81,2.81,0,0,1-.2.7c-.24.5-.5,1-.76,1.47-.12.22-.24.45-.37.67a.49.49,0,0,0,.66,0c1.19-.73,2.39-1.44,3.59-2.16l.21-.13-1.74-1,.55-1.15,2.35,1.29a.33.33,0,0,0,.39,0c.67-.41,1.34-.8,2-1.2l.39-.25-.21-.1c-1.59-.69-3.18-1.37-4.77-2.07a.78.78,0,0,0-.5,0,16.52,16.52,0,0,0-2.93.81h-.06l0,0a.69.69,0,0,1,.17-.17l2-1.12-.13-.07c-1-.43-2-.87-3-1.29a.31.31,0,0,0-.25,0L16,3.47l-.16.11a6,6,0,0,1,1.59,1.31.68.68,0,0,1,.22.69c-.14.65-.12.68-.79.68l-2.52,0c-.35,0-.48-.13-.38-.53,0-.06,0-.11,0-.16C14.1,5.2,14.18,4.86,14.25,4.51Zm.35,12.25V9.63c0-.22.07-.5,0-.66s-.4-.2-.6-.32a.75.75,0,0,0-1,.09c-.44.39-.91.74-1.35,1.09a3.79,3.79,0,0,1,1-1.8L10.08,6.9v7.59c0,.29.09.38.4.4,0-.55,0-1.11,0-1.65a4.07,4.07,0,0,1,.86-3l.19-.22c0,.11,0,.17,0,.22a11.19,11.19,0,0,0,0,1.29,13.66,13.66,0,0,1-.06,3.83Zm9.74-7.94L24.11,9,20.4,11.16a.44.44,0,0,0-.25.46c0,1.35,0,2.7,0,4.05a.63.63,0,0,0,.36.61,2.37,2.37,0,0,0,2.14.08c.34-.13.66-.32,1-.49l-.23.48h.81a4.29,4.29,0,0,1-4.07.79v1.92l.13-.07,3.9-2.28a.32.32,0,0,0,.15-.32V8.82Zm-8.17.83c0,.07,0,.11,0,.14v7.5a.23.23,0,0,0,.17.24l2.61,1.16.91.4s0-.06,0-.08c0-.63,0-1.27,0-1.9a.25.25,0,0,0-.14-.18,4.67,4.67,0,0,1-1.36-1.26,1.79,1.79,0,0,1-.08-1.93,4.2,4.2,0,0,0,1.59,2V11.64c0-.37,0-.37-.43-.48l-1.19,2.43a4.19,4.19,0,0,1,.68-2.69ZM28.33,6.44l-.21.11L25.74,8a.35.35,0,0,0-.2.35V15.9l.22-.12,2.39-1.4a.31.31,0,0,0,.18-.32V6.44Z"/><path d="M5.91,11.5a5.65,5.65,0,0,1,.5.27c.24.14.27.26.15.41a.32.32,0,0,1-.53,0,5.55,5.55,0,0,1-.35-.46,4.93,4.93,0,0,1,0,.54c0,.15-.07.32-.29.27a.32.32,0,0,1-.27-.42,5.45,5.45,0,0,1,.29-.53,4.47,4.47,0,0,1-.45.09c-.24,0-.37,0-.38-.22a.33.33,0,0,1,.35-.34,1.17,1.17,0,0,1,.27,0l.28.09a2,2,0,0,1-.31-.45.41.41,0,0,1,0-.36.47.47,0,0,1,.38-.14.41.41,0,0,1,.23.3,3.29,3.29,0,0,1,0,.64A2.66,2.66,0,0,1,6,11a2.78,2.78,0,0,1,.41-.29.29.29,0,0,1,.41.11.27.27,0,0,1-.11.39,4.3,4.3,0,0,1-.53.25C6.12,11.46,6,11.47,5.91,11.5Z"/><path d="M31.47,5.8c.2.11.39.2.56.31s.21.18.11.33-.3.27-.44.15a3,3,0,0,1-.39-.46L31.24,6c0,.22,0,.41-.07.6s-.07.27-.23.24-.34-.11-.32-.31a1.23,1.23,0,0,1,.16-.44c0-.07.12-.13.18-.21-.2,0-.39.08-.58.1s-.29,0-.3-.23a.29.29,0,0,1,.27-.32,5.7,5.7,0,0,1,.58.06c-.09-.13-.19-.26-.27-.4a.32.32,0,0,1,.09-.45.32.32,0,0,1,.54.23c0,.2,0,.4,0,.64.16-.15.28-.27.41-.38A1.44,1.44,0,0,1,32,5a.29.29,0,0,1,.37.11.26.26,0,0,1-.07.38,1.83,1.83,0,0,1-.46.24A1.91,1.91,0,0,1,31.47,5.8Z"/><path d="M8.57,21.12c0-.27,0-.53,0-.79A.4.4,0,0,0,8.22,20H9.3C9,20,9,20.27,9,20.53V22a.42.42,0,0,0,.33.5H8.22c.33,0,.37-.29.36-.56v-.68H7.2c0,.3,0,.6,0,.89a.38.38,0,0,0,.35.35H6.45c.31,0,.36-.28.36-.55,0-.48,0-1,0-1.46,0-.31-.06-.39-.38-.5H7.55c-.32.06-.37.3-.36.57v.59Z"/><path d="M18,22.49c.28-.12.35-.21.36-.5V20.46c0-.3-.07-.39-.4-.51h1.49a.59.59,0,0,1,.6.48c.05.28-.08.5-.4.69l.13.05a.67.67,0,0,1,.52.7.63.63,0,0,1-.59.59l-.19,0Zm.74-1.3v.75c0,.42.21.59.63.49a.64.64,0,0,0,0-1.24C19.13,21.17,18.93,21.19,18.71,21.19Zm0-.06c.31,0,.61.05.8-.24a.6.6,0,0,0,0-.68c-.18-.29-.48-.22-.77-.21Z"/><path d="M3.67,3.49c-.13,0-.25,0-.39.06s-.25,0-.22-.17a.31.31,0,0,1,.21-.23,1.11,1.11,0,0,1,.4,0,3.87,3.87,0,0,1-.21-.34c-.08-.17,0-.26.16-.32a.2.2,0,0,1,.3.16A3.35,3.35,0,0,1,4,3.16a2.92,2.92,0,0,1,.32-.28.73.73,0,0,1,.29-.11.23.23,0,0,1,.17.13c0,.07,0,.21-.06.24s-.39.19-.58.28a3.69,3.69,0,0,1,.33.18c.11.07.22.16.1.31a.23.23,0,0,1-.37,0,3.57,3.57,0,0,1-.28-.35,2.34,2.34,0,0,1,0,.39c0,.11,0,.24-.22.2a.24.24,0,0,1-.18-.34A2,2,0,0,1,3.67,3.49Z"/><path d="M9.51,18.12l.38.2c.09.06.19.14.09.28s-.21.18-.34.07a2.61,2.61,0,0,1-.32-.34,2.33,2.33,0,0,1,0,.38c0,.11,0,.25-.21.2s-.26-.15-.2-.32a2.81,2.81,0,0,1,.2-.38l-.35.08c-.12,0-.24,0-.26-.16a.21.21,0,0,1,.22-.25,3,3,0,0,1,.42,0,.83.83,0,0,1-.17-.21.56.56,0,0,1,0-.36.32.32,0,0,1,.28-.1.5.5,0,0,1,.17.3,1.13,1.13,0,0,1,0,.32l.07.05a.67.67,0,0,1,.11-.18,1.37,1.37,0,0,1,.23-.19c.13-.08.28-.15.39,0s0,.28-.15.36S9.69,18.05,9.51,18.12Z"/><path d="M30,16.25a3.48,3.48,0,0,1-.38.07c-.12,0-.24,0-.25-.16a.22.22,0,0,1,.23-.25c.12,0,.25,0,.38,0a2.61,2.61,0,0,1-.2-.3c-.09-.17,0-.3.16-.36s.27,0,.3.19,0,.28.05.43a4.58,4.58,0,0,1,.42-.35c.12-.08.26-.1.35,0s0,.26-.12.33a4.61,4.61,0,0,1-.51.22c.12.06.25.12.38.2s.17.16.08.28-.2.18-.33.08a2.88,2.88,0,0,1-.33-.36c0,.12,0,.24,0,.35s0,.25-.2.23a.25.25,0,0,1-.22-.32,1.11,1.11,0,0,1,.09-.19A1.72,1.72,0,0,0,30,16.25Z"/><path d="M36.29,12.46a2.3,2.3,0,0,1-.21-.33.33.33,0,0,1,0-.26.44.44,0,0,1,.29-.09c.06,0,.13.13.15.2a3.13,3.13,0,0,1,0,.46,1.25,1.25,0,0,1,.17-.16,1.14,1.14,0,0,1,.32-.22.3.3,0,0,1,.28.07.29.29,0,0,1-.06.28,1.56,1.56,0,0,1-.41.2l-.18.05a3.39,3.39,0,0,1,.39.22c.1.06.18.15.08.28a.23.23,0,0,1-.33.07,3.52,3.52,0,0,1-.31-.35c0,.11,0,.23-.05.34s0,.26-.22.22a.26.26,0,0,1-.19-.36,2.56,2.56,0,0,1,.21-.33c-.13,0-.24.05-.36.06s-.24,0-.25-.16.07-.25.22-.25A2.7,2.7,0,0,1,36.29,12.46Z"/><path d="M26.91,20l.58-.08V22c0,.21,0,.38.28.44-.21-.05-.43.15-.62-.07l-.2.07a.73.73,0,0,0,.24-.67c0-.24-.05-.49-.07-.75h.07c0-.23,0-.44,0-.66A.37.37,0,0,0,26.91,20Z"/><path d="M24.59,22.48h-.73c.2-.07.22-.23.22-.41,0-.57,0-1.15,0-1.73a1.8,1.8,0,0,0-.15-.4l.45-.07v1.27l.16-.09a2,2,0,0,0-.14,1.2C24.4,22.33,24.52,22.4,24.59,22.48Z"/><path d="M13.25,20.92l.52-.08.05.19.23-.07a.83.83,0,0,0-.25.72,1,1,0,0,0,.21.77l-.22-.08c.07.3-.15.63.26.83h-.78c.2-.07.23-.23.23-.42V21.35C13.5,21.16,13.46,21,13.25,20.92Z"/><path d="M12,22.46l-.18-.08c-.1.48-.05.67.22.81H11.2c.27-.07.27-.27.27-.46V21.35a.38.38,0,0,0-.26-.43l.53-.08,0,.19L12,21a.87.87,0,0,0-.24.72A1,1,0,0,0,12,22.46Z"/><path d="M30.61,20.93h.47a3.14,3.14,0,0,0-.24.39c-.22.51-.42,1-.65,1.53a1,1,0,0,1-.28.33s-.16,0-.23,0-.05-.1-.07-.15a.44.44,0,0,1,.15-.05c.09,0,.25.05.27,0s.22-.35.18-.48c-.17-.5-.4-1-.61-1.48,0,0-.06-.05-.11-.09h.76c-.25.07-.23.2-.18.33l.35.91.35-.87A.27.27,0,0,0,30.61,20.93Z"/><path d="M15.24,20.93h.66c-.17.08-.16.21-.11.34l.35.91c.13-.32.25-.59.35-.87a.26.26,0,0,0-.15-.38h.47a2.92,2.92,0,0,0-.24.37c-.22.51-.43,1-.66,1.55a.87.87,0,0,1-.25.32.39.39,0,0,1-.26,0s0-.1-.07-.15a.44.44,0,0,1,.15-.05c.1,0,.26.05.28,0s.21-.36.17-.5c-.16-.49-.38-.95-.58-1.43A1.09,1.09,0,0,0,15.24,20.93Z"/><path d="M11.19,22.36c-.28.33-.51.08-.71,0,0-.2,0-.44,0-.68h-.06a2.87,2.87,0,0,0,.05-.41.27.27,0,0,0-.24-.28c-.16,0-.24.07-.3.2a.55.55,0,0,1-.18.16s-.12-.1-.11-.12a.33.33,0,0,1,.14-.2.86.86,0,0,1,.85,0,.43.43,0,0,1,.15.29c0,.27,0,.54,0,.81S10.9,22.45,11.19,22.36Z"/><path d="M29.52,22.37c-.26.33-.5.06-.7,0l0-.69H28.8a1.78,1.78,0,0,0,0-.46.39.39,0,0,0-.25-.22c-.07,0-.18.1-.26.16s0,.07,0,.09-.09.1-.14.1a.13.13,0,0,1-.12-.09.23.23,0,0,1,.05-.18.4.4,0,0,1,.23-.1,4,4,0,0,1,.6,0,.32.32,0,0,1,.26.36c0,.25,0,.51,0,.76S29.23,22.45,29.52,22.37Z"/><path d="M22.91,20.93l.36-.49v.48h.43v0h-.41c0,.42,0,.82,0,1.22,0,.21.16.28.36.32a2.55,2.55,0,0,1-.39,0,.3.3,0,0,1-.28-.33q0-.54,0-1.08C23,21.05,22.93,21,22.91,20.93Z"/><path d="M21.48,22.48a1.2,1.2,0,0,0,0-1.47l.46-.08,0,.21.12-.07A2.71,2.71,0,0,0,22,22.23c0,.09.12.17.18.25Z"/><path d="M20.54,21l.53-.08v1.16c0,.16,0,.32.21.39h-.73A1.19,1.19,0,0,0,20.54,21Z"/><path d="M31.59,21.88c-.06-.58-.12-1.1-.18-1.64,0-.15,0-.29.22-.29s.24.13.22.29c-.06.51-.13,1-.2,1.53C31.65,21.79,31.63,21.81,31.59,21.88Z"/><path d="M14.2,20.94a.72.72,0,0,1,.88.74.75.75,0,0,1-.82.84,1.59,1.59,0,0,0,.36-.33,1.29,1.29,0,0,0,.11-.55A.65.65,0,0,0,14.2,20.94Z"/><path d="M12.11,22.52a.72.72,0,0,0,.59-.82.69.69,0,0,0-.57-.77.74.74,0,0,1,.79.33.81.81,0,0,1,0,.92A.78.78,0,0,1,12.11,22.52Z"/><path d="M26.84,22.52c-.6,0-.94-.27-.93-.81a.76.76,0,0,1,.89-.77.74.74,0,0,0-.55.85A.7.7,0,0,0,26.84,22.52Z"/><path d="M24.8,20.93c.54,0,.69.12.69.62v.52c0,.18,0,.33.21.4h-.81c.28-.06.3-.24.3-.42s0-.43,0-.65S25.11,21,24.8,20.93Z"/><path d="M1.92,18.31l.12.48L1.22,19l-.13-.47Z"/><path d="M7.4,2.07l.83-.19.12.47-.71.17a.15.15,0,0,1-.14-.09A2,2,0,0,1,7.4,2.07Z"/><path d="M2.27,10.47l-.82.2-.13-.48.83-.2Z"/><path d="M35.18,17.39l.14.59-.48.11-.14-.59Z"/><path d="M27.42,1.48l.16.59-.49.11L27,1.6Z"/><path d="M33.19,10l.52-.27.23.4-.52.28Z"/><path d="M25.72,17.71l.23.41-.52.28L25.2,18Z"/><path d="M9.3,12.78l-.52.28-.23-.41.52-.28Z"/><path d="M31.49,15.27l-.23-.4.51-.29L32,15Z"/><path d="M35.11,2.61l-.52.29-.24-.4.52-.29Z"/><path d="M12,3.89l-.52.27-.23-.4.52-.28Z"/><path d="M37.3,6.5l-.51.29-.24-.4.52-.29Z"/><path d="M4.56,6.59,4,6.87l-.22-.41.51-.27Z"/><path d="M10.29,21.73c-.44.34-.47.56-.15.79-.31,0-.51-.09-.54-.3S9.79,21.77,10.29,21.73Z"/><path d="M28.61,21.73c-.42.4-.44.56-.13.79-.33,0-.52-.1-.53-.33S28.16,21.76,28.61,21.73Z"/><path d="M4,20.89l-.12-.48.47-.11.12.47Z"/><path d="M28.58,19.16l.21.42-.44.23-.22-.42Z"/><path d="M31.88,22.33c-.09.07-.18.19-.25.18a.31.31,0,0,1-.23-.2.32.32,0,0,1,.21-.23c.08,0,.17.1.26.16Z"/><path d="M20.92,20.31c-.08-.11-.16-.19-.15-.24s.11-.11.17-.16.13.12.13.18S21,20.21,20.92,20.31Z"/><path d="M11.64,18.11l.24,0,.07.28-.24,0Z"/><path d="M2.78,14.54,3,14.48l.08.28-.23.07Z"/><path d="M22.23,20.94a2.28,2.28,0,0,1,.38,0s.08.08.11.13,0,.08,0,.08a.32.32,0,0,1-.17,0A2,2,0,0,1,22.23,20.94Z"/><path d="M15.5,19.13l.07.29-.23.06-.07-.28Z"/><path d="M33.57,19.25l.07-.21.29.08-.07.23Z"/><path d="M34.72,14.85l-.07.22L34.39,15C34.41,14.74,34.41,14.74,34.72,14.85Z"/><path d="M35.37,21l-.07.23L35,21.09l.07-.22Z"/><path d="M5.88,17.09l-.06.23-.29-.08L5.59,17Z"/><path d="M30.57,12.78l.07-.22.29.07-.07.23Z"/><path d="M30.76,17.93l.21,0c.12.27.1.31-.16.3Z"/><path d="M7.54,4.72l-.23,0-.06-.28.23,0Z"/><path d="M2.2,5.44,2,5.49l-.08-.28.24-.06Z"/><path d="M1.89,1.71l.24,0L2.2,2,2,2Z"/><path d="M25.59,4.15l.29.09-.07.22-.29-.08Z"/><path d="M9.1,6.36l.07.28-.23.06-.07-.29Z"/><path d="M21.68,7.85c-.4-.35-.73-.68-1.1-1a6.44,6.44,0,0,0-.78-.42.29.29,0,0,1-.12-.15c0-.26,0-.51,0-.76a.2.2,0,0,1,.1-.16,9.5,9.5,0,0,1,2.63-.94,1.79,1.79,0,0,1,.61,0,.34.34,0,0,1,.28.39,2.17,2.17,0,0,1-.46,1.21,7.88,7.88,0,0,0-.73,1.17A5.26,5.26,0,0,1,21.68,7.85Z"/><path d="M19.39,5.52v.74c0,.3-.18.41-.47.32a.87.87,0,0,0-.23,0c-.27,0-.54,0-.81,0a.25.25,0,0,1-.14-.21c.05-.42.11-.84.18-1.25,0-.14.17-.19.3-.07a.56.56,0,0,0,.53.11,1.37,1.37,0,0,1,.45,0C19.37,5.16,19.48,5.24,19.39,5.52Z"/></g><path class="cls-4" d="M11.54,15.8l-.44.7-.07,0,.1-.73-.64.6c.06-.26.11-.5.16-.73s0-.22-.15-.25c-.42-.09-.5-.36-.5-.78,0-2.46,0-4.92,0-7.39a1.58,1.58,0,0,0-.08-.31l.16-.1,4.29-2.39a1.08,1.08,0,0,0,.28-.24,1.32,1.32,0,0,1,.88-.46,1.92,1.92,0,0,0,.31-.11L18.49,2.1a.29.29,0,0,1,.31,0c1.06.47,2.13.93,3.2,1.38.35.15.71.27,1.06.43,1.9.82,3.79,1.66,5.68,2.49l.05,0v8a.36.36,0,0,1-.2.36l-8.06,4.73a2,2,0,0,0-.25.2ZM14.45,4.71l-.06,0L10.48,6.86s0,0,0,0L12.92,8a.19.19,0,0,0,.16,0,6.53,6.53,0,0,1,3-1.23A2.25,2.25,0,0,1,17.67,7a15.91,15.91,0,0,0-3.73,1.47c.29.13.55.23.79.36a.37.37,0,0,0,.39,0c.83-.54,1.68-1.06,2.51-1.6a.72.72,0,0,1,.61-.14c.17,0,.35,0,.53.06l.94.11L16.4,9.57l2.86,1.29a9.67,9.67,0,0,0,.88-2.18,3.88,3.88,0,0,0,.09-.58,1.36,1.36,0,0,0-.51-1.21,1.76,1.76,0,0,1,.88.28,1,1,0,0,1,.56,1.07A2.88,2.88,0,0,1,21,9c-.24.5-.5,1-.76,1.46l-.37.68a.5.5,0,0,0,.66,0c1.19-.73,2.39-1.44,3.59-2.16l.21-.13-1.74-1,.55-1.15c.8.44,1.58.86,2.34,1.29a.35.35,0,0,0,.4,0l2-1.21.4-.24L28,6.37,23.27,4.3a.78.78,0,0,0-.5,0,16.52,16.52,0,0,0-2.93.81s0,0-.06,0l0,0a.69.69,0,0,1,.17-.17c.65-.38,1.31-.74,2-1.12a.56.56,0,0,0-.13-.07l-3-1.29a.31.31,0,0,0-.25,0L16.22,3.67l-.16.1a6.15,6.15,0,0,1,1.59,1.32.68.68,0,0,1,.21.69c-.13.65-.11.67-.78.68l-2.52,0c-.35,0-.48-.13-.39-.53l.06-.16C14.3,5.4,14.38,5.05,14.45,4.71ZM14.8,17v-.31c0-2.27,0-4.55,0-6.82,0-.22.08-.5,0-.66s-.41-.2-.6-.32a.75.75,0,0,0-1,.09c-.44.38-.92.74-1.35,1.09a3.79,3.79,0,0,1,1-1.8L10.27,7.1v7.58c0,.29.1.39.41.41,0-.55,0-1.11,0-1.65a4.06,4.06,0,0,1,.86-3l.19-.23a1.58,1.58,0,0,0,0,.23,11.12,11.12,0,0,0,0,1.29,13.3,13.3,0,0,1-.07,3.83ZM24.54,9l-.24.13c-1.23.74-2.46,1.48-3.7,2.21a.46.46,0,0,0-.26.46q0,2,0,4a.6.6,0,0,0,.36.61,2.37,2.37,0,0,0,2.14.08c.34-.13.66-.32,1-.49l-.22.48h.81a4.29,4.29,0,0,1-4.07.79v1.92l.13-.07,3.9-2.29a.29.29,0,0,0,.15-.31c0-2.44,0-4.87,0-7.31Zm-8.17.83a.88.88,0,0,0,0,.14v7.5a.23.23,0,0,0,.17.24l2.61,1.15.9.41a.2.2,0,0,0,0-.08c0-.63,0-1.27,0-1.9a.25.25,0,0,0-.14-.18,4.67,4.67,0,0,1-1.36-1.26,1.77,1.77,0,0,1-.08-1.93A4.2,4.2,0,0,0,20.08,16V11.84c0-.37,0-.37-.43-.48l-1.19,2.43a4.22,4.22,0,0,1,.67-2.7ZM28.53,6.64l-.21.11L25.94,8.17a.34.34,0,0,0-.2.35V16.1L26,16l2.39-1.4a.32.32,0,0,0,.18-.32V6.64Z"/><path class="cls-4" d="M6.11,11.7c.19.1.35.17.5.26s.27.27.14.42a.31.31,0,0,1-.52,0,4.42,4.42,0,0,1-.35-.47,5.11,5.11,0,0,1,0,.55c0,.15-.07.32-.29.27a.33.33,0,0,1-.27-.43,3.81,3.81,0,0,1,.29-.52c-.14,0-.29.07-.45.09s-.38-.06-.38-.23a.33.33,0,0,1,.35-.33,1.26,1.26,0,0,1,.27,0l.27.09a2.35,2.35,0,0,1-.3-.45.41.41,0,0,1,0-.36.46.46,0,0,1,.38-.15c.1,0,.21.19.23.31a3.29,3.29,0,0,1,0,.64,2.66,2.66,0,0,1,.28-.29,2.78,2.78,0,0,1,.41-.29A.29.29,0,0,1,7,11a.28.28,0,0,1-.11.39,4.3,4.3,0,0,1-.53.25C6.32,11.66,6.23,11.67,6.11,11.7Z"/><path class="cls-4" d="M31.67,6c.2.11.38.2.55.31s.22.17.12.33-.31.27-.44.15a2.88,2.88,0,0,1-.39-.46.42.42,0,0,1-.07-.11c0,.23,0,.42-.07.61s-.07.27-.24.24-.33-.12-.31-.31A1.23,1.23,0,0,1,31,6.32a1.18,1.18,0,0,1,.18-.21l-.59.1c-.15,0-.28,0-.29-.23a.29.29,0,0,1,.27-.32c.19,0,.38,0,.58.06a4.21,4.21,0,0,1-.28-.41.31.31,0,0,1,.1-.44c.25-.16.5-.06.53.23a4.46,4.46,0,0,1,0,.64c.16-.15.28-.28.41-.38a1.44,1.44,0,0,1,.31-.19.29.29,0,0,1,.37.11.26.26,0,0,1-.07.38,2.51,2.51,0,0,1-.46.24A1.91,1.91,0,0,1,31.67,6Z"/><path class="cls-4" d="M8.77,21.32c0-.27,0-.53,0-.79a.4.4,0,0,0-.35-.37H9.5c-.32.07-.34.31-.34.57q0,.72,0,1.44a.44.44,0,0,0,.34.5H8.42c.32-.05.36-.29.36-.56v-.68H7.4c0,.3,0,.59,0,.89a.38.38,0,0,0,.35.35H6.65c.31-.05.36-.28.36-.55,0-.48,0-1,0-1.46,0-.31-.06-.39-.38-.5H7.75c-.32.06-.37.3-.36.57v.59Z"/><path class="cls-4" d="M18.17,22.68c.28-.11.35-.2.36-.5V20.66c0-.3-.07-.39-.4-.51.52,0,1,0,1.49,0a.58.58,0,0,1,.59.48c.06.27-.07.5-.4.69l.14.05a.65.65,0,0,1,.51.7.61.61,0,0,1-.58.59l-.19,0C19.19,22.69,18.68,22.68,18.17,22.68Zm.74-1.29v.75c0,.42.21.59.63.49a.64.64,0,0,0,0-1.24A4.13,4.13,0,0,0,18.91,21.39Zm0-.06c.3,0,.61.05.8-.24a.6.6,0,0,0,0-.68c-.19-.29-.48-.22-.77-.22Z"/><path class="cls-4" d="M3.87,3.69c-.13,0-.26.05-.39.06s-.25,0-.23-.17a.38.38,0,0,1,.22-.24,1.41,1.41,0,0,1,.4.05,3.87,3.87,0,0,1-.21-.34c-.09-.17,0-.26.16-.32a.2.2,0,0,1,.3.16,3.35,3.35,0,0,1,.06.47,2.92,2.92,0,0,1,.32-.28A.61.61,0,0,1,4.79,3,.24.24,0,0,1,5,3.1a.29.29,0,0,1-.07.24,6,6,0,0,1-.57.28l.33.18c.11.07.22.16.09.31a.22.22,0,0,1-.36,0,3.57,3.57,0,0,1-.28-.35,2.22,2.22,0,0,1,0,.38c0,.12,0,.25-.23.21A.24.24,0,0,1,3.66,4,2,2,0,0,1,3.87,3.69Z"/><path class="cls-4" d="M9.71,18.32l.38.2c.09.06.19.14.09.27s-.22.19-.34.08a2.61,2.61,0,0,1-.32-.34,2.33,2.33,0,0,1,0,.38c0,.11-.05.24-.21.19S9,19,9.07,18.79a2.32,2.32,0,0,1,.2-.38,2.29,2.29,0,0,1-.36.07c-.11,0-.23,0-.25-.15a.22.22,0,0,1,.22-.26,3.19,3.19,0,0,1,.42.05.83.83,0,0,1-.17-.21.65.65,0,0,1-.05-.36.35.35,0,0,1,.29-.1.55.55,0,0,1,.17.3,1.08,1.08,0,0,1,0,.31l.06.06a1.13,1.13,0,0,1,.12-.18,1.06,1.06,0,0,1,.23-.19c.13-.09.28-.15.39,0s0,.28-.15.35A4.53,4.53,0,0,1,9.71,18.32Z"/><path class="cls-4" d="M30.19,16.45a3.48,3.48,0,0,1-.38.07c-.12,0-.24,0-.25-.16a.22.22,0,0,1,.23-.25,2.58,2.58,0,0,1,.38,0,2,2,0,0,1-.2-.31.23.23,0,0,1,.15-.36.22.22,0,0,1,.31.19c0,.15,0,.29.05.44a4.58,4.58,0,0,1,.42-.35c.12-.08.26-.1.35.05s0,.26-.12.33a4.06,4.06,0,0,1-.52.22,3.48,3.48,0,0,1,.38.2c.11.06.18.15.08.28s-.2.18-.32.08a4,4,0,0,1-.34-.36,2.06,2.06,0,0,1,0,.35c0,.12,0,.25-.2.23a.25.25,0,0,1-.22-.32,1.11,1.11,0,0,1,.09-.19A1.29,1.29,0,0,1,30.19,16.45Z"/><path class="cls-4" d="M36.49,12.65a1.77,1.77,0,0,1-.21-.32.29.29,0,0,1,0-.26.41.41,0,0,1,.28-.09c.07,0,.14.12.16.2a3.13,3.13,0,0,1,0,.46l.16-.16a1.36,1.36,0,0,1,.33-.22.3.3,0,0,1,.28.07.29.29,0,0,1-.06.28,1.56,1.56,0,0,1-.41.2l-.18,0c.15.08.27.14.39.22s.18.15.08.27-.21.17-.33.08a2.59,2.59,0,0,1-.31-.35c0,.11,0,.23,0,.34s-.05.26-.22.22a.26.26,0,0,1-.19-.36,2.56,2.56,0,0,1,.21-.33l-.36.06c-.12,0-.24,0-.25-.16s.07-.25.22-.25A2.7,2.7,0,0,1,36.49,12.65Z"/><path class="cls-4" d="M27.11,20.19l.58-.08v2.13c0,.2,0,.38.28.44-.21-.05-.43.15-.62-.07l-.21.07a.71.71,0,0,0,.24-.67c0-.25,0-.49-.06-.75h.07c0-.23,0-.45,0-.66A.37.37,0,0,0,27.11,20.19Z"/><path class="cls-4" d="M24.78,22.68h-.73c.21-.07.23-.23.23-.41,0-.58,0-1.15,0-1.73a1.8,1.8,0,0,0-.15-.4l.45-.07v1.26l.16-.08a2,2,0,0,0-.14,1.2C24.6,22.53,24.72,22.6,24.78,22.68Z"/><path class="cls-4" d="M13.45,21.12,14,21l0,.19.23-.07a.84.84,0,0,0-.24.72.91.91,0,0,0,.21.77L14,22.57c.07.29-.15.63.26.82h-.79c.2-.06.24-.22.24-.41V21.54A.38.38,0,0,0,13.45,21.12Z"/><path class="cls-4" d="M12.18,22.65,12,22.58c-.09.48,0,.67.23.81H11.4c.26-.07.27-.27.27-.46V21.55a.39.39,0,0,0-.26-.43l.53-.08,0,.19.23-.07a.8.8,0,0,0-.24.71A.94.94,0,0,0,12.18,22.65Z"/><path class="cls-4" d="M30.81,21.13h.47a2.55,2.55,0,0,0-.24.39l-.65,1.53a1,1,0,0,1-.28.33.32.32,0,0,1-.23,0s-.05-.09-.07-.14a.39.39,0,0,1,.14,0c.1,0,.26,0,.28,0s.22-.35.18-.48c-.17-.5-.4-1-.61-1.48,0,0-.06-.05-.11-.1h.76c-.25.08-.23.2-.18.34l.35.91.35-.87A.27.27,0,0,0,30.81,21.13Z"/><path class="cls-4" d="M15.43,21.13h.67c-.17.08-.16.2-.11.34l.35.91c.13-.33.25-.6.35-.87a.26.26,0,0,0-.15-.38H17a2.35,2.35,0,0,0-.24.37c-.22.51-.43,1-.66,1.55a.87.87,0,0,1-.25.32.34.34,0,0,1-.26,0s0-.09-.07-.14a.44.44,0,0,1,.15,0c.09,0,.26,0,.27,0s.22-.36.18-.5c-.16-.49-.38-1-.58-1.43C15.53,21.21,15.48,21.18,15.43,21.13Z"/><path class="cls-4" d="M11.39,22.56c-.28.33-.52.08-.71,0,0-.2,0-.44,0-.68h0a3.05,3.05,0,0,0,0-.41.27.27,0,0,0-.24-.28c-.16,0-.24.07-.3.2a.49.49,0,0,1-.19.16s-.12-.1-.11-.12a.35.35,0,0,1,.15-.2.86.86,0,0,1,.85,0,.41.41,0,0,1,.15.29c0,.27,0,.54,0,.8S11.1,22.64,11.39,22.56Z"/><path class="cls-4" d="M29.72,22.56c-.26.34-.5.06-.7,0l0-.69H29a1.78,1.78,0,0,0,0-.46.46.46,0,0,0-.26-.23c-.06,0-.17.1-.25.17s0,.07,0,.09-.09.1-.14.1a.13.13,0,0,1-.12-.09.22.22,0,0,1,.05-.18.4.4,0,0,1,.23-.1,3.82,3.82,0,0,1,.59,0,.32.32,0,0,1,.27.36c0,.25,0,.51,0,.76S29.43,22.64,29.72,22.56Z"/><path class="cls-4" d="M23.11,21.13l.36-.49v.47h.43v.05h-.41c0,.42,0,.82,0,1.22,0,.21.16.28.35.32a2.41,2.41,0,0,1-.38,0,.28.28,0,0,1-.28-.33c0-.36,0-.72,0-1.08C23.18,21.24,23.13,21.19,23.11,21.13Z"/><path class="cls-4" d="M21.68,22.67a1.17,1.17,0,0,0,0-1.46l.47-.08.05.21.12-.07a2.71,2.71,0,0,0-.09,1.16c0,.08.12.16.18.24Z"/><path class="cls-4" d="M20.74,21.21l.52-.08v.69c0,.15,0,.31,0,.46s0,.33.21.4h-.73A1.19,1.19,0,0,0,20.74,21.21Z"/><path class="cls-4" d="M31.79,22.08c-.06-.58-.12-1.11-.18-1.64,0-.15,0-.29.22-.29s.24.13.22.29c-.06.51-.13,1-.2,1.52C31.85,22,31.83,22,31.79,22.08Z"/><path class="cls-4" d="M14.39,21.13a.74.74,0,0,1,.89.75.77.77,0,0,1-.82.84,1.43,1.43,0,0,0,.36-.34,1.22,1.22,0,0,0,.11-.54A.66.66,0,0,0,14.39,21.13Z"/><path class="cls-4" d="M12.31,22.72a.73.73,0,0,0,.59-.82.69.69,0,0,0-.57-.77.74.74,0,0,1,.79.33.83.83,0,0,1,0,.92A.78.78,0,0,1,12.31,22.72Z"/><path class="cls-4" d="M27,22.71c-.61,0-.94-.26-.93-.8a.76.76,0,0,1,.89-.77.73.73,0,0,0-.55.85A.68.68,0,0,0,27,22.71Z"/><path class="cls-4" d="M25,21.13c.55,0,.69.11.7.61v.53c0,.18,0,.33.21.4h-.81c.28-.06.3-.24.3-.42V21.6C25.38,21.3,25.31,21.21,25,21.13Z"/><path class="cls-4" d="M2.12,18.5l.12.48-.82.2-.13-.47Z"/><path class="cls-4" d="M7.6,2.27l.83-.2.12.48-.71.17s-.13-.05-.15-.09S7.64,2.41,7.6,2.27Z"/><path class="cls-4" d="M2.47,10.67l-.82.2-.13-.48.82-.2Z"/><path class="cls-4" d="M35.38,17.59l.13.59-.48.11-.13-.59Z"/><path class="cls-4" d="M27.62,1.68l.15.58-.48.12-.14-.58Z"/><path class="cls-4" d="M33.39,10.16l.52-.27.23.4-.52.28Z"/><path class="cls-4" d="M25.92,17.91l.23.41-.52.27-.23-.4Z"/><path class="cls-4" d="M9.5,13,9,13.25l-.23-.4.52-.28Z"/><path class="cls-4" d="M31.69,15.47l-.23-.4.51-.29.24.4Z"/><path class="cls-4" d="M35.3,2.81l-.51.29-.24-.4.52-.29Z"/><path class="cls-4" d="M12.22,4.08l-.52.28L11.47,4,12,3.68Z"/><path class="cls-4" d="M37.5,6.7,37,7l-.24-.4.51-.29Z"/><path class="cls-4" d="M4.76,6.79l-.52.28L4,6.66l.52-.27Z"/><path class="cls-4" d="M10.48,21.93c-.43.34-.46.56-.14.78-.31,0-.51-.08-.54-.29S10,22,10.48,21.93Z"/><path class="cls-4" d="M28.8,21.93c-.41.4-.43.56-.12.79-.33,0-.52-.1-.54-.33S28.36,22,28.8,21.93Z"/><path class="cls-4" d="M4.21,21.09l-.12-.48.47-.11.12.47Z"/><path class="cls-4" d="M28.77,19.36l.22.42-.45.23-.21-.42Z"/><path class="cls-4" d="M32.08,22.53c-.09.07-.18.19-.26.18s-.22-.13-.22-.2a.31.31,0,0,1,.21-.23c.07,0,.17.1.26.16Z"/><path class="cls-4" d="M21.11,20.51c-.07-.11-.15-.19-.14-.24s.11-.11.17-.16.13.11.13.18S21.19,20.4,21.11,20.51Z"/><path class="cls-4" d="M11.84,18.31l.24,0,.07.29-.24,0Z"/><path class="cls-4" d="M3,14.74l.23-.06.08.28L3.06,15Z"/><path class="cls-4" d="M22.43,21.14a2.31,2.31,0,0,1,.38,0s.08.08.11.13,0,.08-.05.08a.32.32,0,0,1-.17,0C22.62,21.29,22.55,21.22,22.43,21.14Z"/><path class="cls-4" d="M15.7,19.33l.07.29-.23.06-.07-.28Z"/><path class="cls-4" d="M33.77,19.45l.07-.21.29.07-.07.23Z"/><path class="cls-4" d="M34.92,15.05l-.07.22-.26-.08C34.61,14.94,34.61,14.94,34.92,15.05Z"/><path class="cls-4" d="M35.57,21.14l-.07.23-.29-.09.07-.22Z"/><path class="cls-4" d="M6.08,17.28,6,17.51l-.28-.07.06-.23Z"/><path class="cls-4" d="M30.77,13l.07-.22.28.08-.06.22Z"/><path class="cls-4" d="M31,18.13l.21,0c.12.27.1.31-.16.3Z"/><path class="cls-4" d="M7.74,4.92,7.51,5l-.06-.28.23,0Z"/><path class="cls-4" d="M2.4,5.64l-.23.05-.08-.28.24-.06Z"/><path class="cls-4" d="M2.09,1.91l.24,0,.07.28-.24.05Z"/><path class="cls-4" d="M25.79,4.35l.28.09L26,4.66l-.29-.08Z"/><path class="cls-4" d="M9.3,6.56l.07.28-.23.06-.07-.29Z"/><path class="cls-4" d="M21.88,8.05c-.4-.35-.73-.68-1.1-1A5.3,5.3,0,0,0,20,6.67c-.05,0-.12-.1-.12-.15,0-.26,0-.51,0-.76A.2.2,0,0,1,20,5.6a9.5,9.5,0,0,1,2.63-.94,1.79,1.79,0,0,1,.61,0,.35.35,0,0,1,.28.39A2.17,2.17,0,0,1,23,6.28a9.7,9.7,0,0,0-.74,1.18A5.79,5.79,0,0,1,21.88,8.05Z"/><path class="cls-4" d="M19.59,5.72c0,.19,0,.46,0,.73s-.17.42-.46.33a.87.87,0,0,0-.23,0c-.27,0-.54,0-.82,0a.28.28,0,0,1-.13-.21c0-.42.11-.84.18-1.25,0-.15.16-.19.3-.07a.55.55,0,0,0,.52.11,1.42,1.42,0,0,1,.46,0C19.57,5.35,19.68,5.43,19.59,5.72Z"/></g></g></svg>