<svg xmlns="http://www.w3.org/2000/svg" viewBox="0 0 38.55 24.66"><defs><style>.cls-1{isolation:isolate;}.cls-2{opacity:0.15;}.cls-2,.cls-3{mix-blend-mode:multiply;}.cls-4{fill:#fff;}</style></defs><title>convert-FIX-SVG-03</title><g class="cls-1"><g id="Layer_1" data-name="Layer 1"><g class="cls-2"><path d="M12.26,4.88c.48-.42,1-.82,1.39-1.23a.43.43,0,0,0,.14-.3c0-.77,0-.77-.59-1.26l-.06,0-.67.59a.28.28,0,0,1-.43,0c-.21-.2-.44-.38-.67-.59-.2.18-.4.34-.58.51a1.47,1.47,0,0,0,.05,1.09L12.17,4.8l.1.06-.78.6s-.12,0-.18,0H9.66a.82.82,0,0,1-.33-.12c-.21-.14-.41-.31-.63-.48.48-.42.94-.82,1.39-1.23a.44.44,0,0,0,.14-.3c0-.76,0-.76-.57-1.25l-.08-.05-.64.56c-.21.18-.27.18-.47,0l-.66-.57-.59.5a1.55,1.55,0,0,0,0,1.08L8.49,4.7l.2.18-.76.58a.39.39,0,0,1-.19,0H6.09a.64.64,0,0,1-.3-.11c-.22-.15-.43-.32-.65-.5L6.5,3.69a.39.39,0,0,0,.17-.37.2.2,0,0,1,0-.07c0-.73,0-.77-.65-1.19l-.59.5c-.28.25-.31.24-.59,0L4.24,2l-.58.51a1.52,1.52,0,0,0,0,1.09L5,4.75l.13.13c-.25.19-.48.38-.73.56a.33.33,0,0,1-.2,0H2.52a.64.64,0,0,1-.3-.11c-.22-.15-.42-.32-.64-.49l.24-.22L3,3.66s0,0,.08-.07A1.73,1.73,0,0,0,3,2.51l-.53-.46-.6.52c-.05,0-.08.08-.13.11a.23.23,0,0,1-.34,0,.22.22,0,0,1,0-.32c.29-.27.6-.54.91-.8.11-.09.23-.05.34.05l.69.59L4,1.61c.2-.17.29-.16.48,0l.65.56c.23-.2.46-.38.68-.58a.28.28,0,0,1,.43,0l.67.58.62-.53c.23-.2.31-.2.54,0l.62.53.66-.56c.2-.17.28-.17.48,0l.65.56.63-.54c.22-.19.3-.19.52,0l.63.54.65-.56c.2-.17.28-.17.48,0l.65.56.66-.57a.29.29,0,0,1,.46,0l.66.57.67-.57c.19-.16.27-.16.46,0l.66.57.62-.53c.22-.2.3-.2.52,0l.64.54L20,1.64c.25-.21.3-.21.56,0l.61.53.66-.57a.3.3,0,0,1,.45,0l.65.57.65-.55c.2-.17.27-.17.47,0l.65.56.63-.54c.23-.19.3-.19.53,0l.62.54.61-.52c.26-.23.31-.23.57,0l.58.5h0l.64-.56c.19-.15.28-.15.46,0l.63.53,0,0,.66-.56c.18-.16.26-.16.45,0l.66.57.64-.55c.2-.18.29-.18.49,0l.65.56.66-.57c.19-.16.27-.16.46,0l.66.57c.23-.2.46-.38.67-.57a.29.29,0,0,1,.45,0l.76.66c.16.14.19.29.07.4s-.26.08-.38,0l-.34-.29L36.28,2l-.6.53a.21.21,0,0,0,0,.13c0,.25,0,.5,0,.74a.3.3,0,0,0,.12.2l1.41,1.24c-.26.2-.5.39-.76.57,0,0-.12,0-.18,0H34.58a.81.81,0,0,1-.33-.11c-.21-.15-.41-.32-.63-.49.43-.38.83-.76,1.27-1.11a.73.73,0,0,0,.28-.6.91.91,0,0,0-.43-.93A1.06,1.06,0,0,1,34.5,2l-.66.58c-.19.17-.26.17-.45,0l-.67-.57-.59.51a.17.17,0,0,0-.06.11c0,.27,0,.54,0,.81,0,.06.07.13.13.17l1.22,1.08a1.14,1.14,0,0,1,.17.15l-.73.57a.41.41,0,0,1-.16,0H31a.27.27,0,0,1-.16,0l-.74-.56c.42-.37.8-.73,1.22-1a.83.83,0,0,0,.33-.72.83.83,0,0,0-.39-.83A2.75,2.75,0,0,1,30.94,2c-.21.19-.42.38-.64.56s-.29.19-.52,0L29.16,2l-.59.51a1.42,1.42,0,0,0,.06,1.09l1.26,1.1a1.85,1.85,0,0,1,.14.14l-.71.55a.33.33,0,0,1-.2.05H27.41a.33.33,0,0,1-.2-.05c-.24-.17-.47-.36-.72-.55.44-.39.85-.77,1.28-1.12A.66.66,0,0,0,28,3.22a1,1,0,0,0-.47-1,1.79,1.79,0,0,1-.18-.14l-.65.56c-.2.18-.27.18-.47,0l-.66-.56c-.2.17-.4.33-.59.51a1.53,1.53,0,0,0,.07,1.09L26.3,4.72l.17.16c-.26.2-.49.39-.73.56a.36.36,0,0,1-.21,0H23.88a.63.63,0,0,1-.32-.12c-.21-.14-.41-.31-.63-.47l-.65.5a.58.58,0,0,1-.26.09h-1.7a.58.58,0,0,1-.26-.09c-.23-.16-.44-.34-.67-.51.48-.42.93-.82,1.39-1.21a.46.46,0,0,0,.15-.33,1.09,1.09,0,0,0-.56-1.22s-.05,0-.09-.07l-.62.54c-.24.2-.3.2-.52,0l-.64-.55c-.2.17-.4.33-.59.51A1.52,1.52,0,0,0,18,3.65l1.26,1.1.16.12-.75.57a.28.28,0,0,1-.18,0H16.75a.48.48,0,0,1-.25-.09l-.67-.51c.38-.33.72-.67,1.1-.95a1,1,0,0,0,.45-1,.66.66,0,0,0-.28-.59A3.74,3.74,0,0,1,16.72,2l-.64.56c-.23.19-.29.19-.52,0L14.93,2c-.2.18-.41.35-.6.53a1.47,1.47,0,0,0,.07,1.07l1.29,1.13.12.11-.72.56a.34.34,0,0,1-.2,0h-1.7a.33.33,0,0,1-.2-.05C12.75,5.26,12.52,5.08,12.26,4.88Zm9.81-2.83c-.69.54-.7.54-.65,1.38a.28.28,0,0,0,.09.19l1.27,1.12a.19.19,0,0,0,.3,0l1.27-1.12a.25.25,0,0,0,.1-.17c0-.25,0-.5,0-.76a.31.31,0,0,0-.06-.13L23.81,2c-.23.2-.45.39-.66.59a.26.26,0,0,1-.43,0C22.51,2.43,22.29,2.25,22.07,2.05Z"/><path d="M1.54,19.71c.26-.2.5-.39.75-.57a.34.34,0,0,1,.18,0h1.7a.48.48,0,0,1,.26.09c.23.16.44.33.66.51-.47.42-.94.82-1.39,1.23a.53.53,0,0,0-.14.28c0,.8,0,.8.66,1.32L4.84,22c.23-.2.28-.2.51,0l.64.55.6-.52a.22.22,0,0,0,0-.14c0-.24,0-.49,0-.74a.37.37,0,0,0-.13-.2c-.4-.36-.82-.72-1.23-1.07l-.17-.16c.26-.2.5-.39.75-.57a.21.21,0,0,1,.14,0H7.78a.37.37,0,0,1,.17.05l.71.55-.6.52-.79.7a.27.27,0,0,0-.08.07,1.5,1.5,0,0,0,0,1.08l.53.46L8.43,22c.2-.17.28-.17.48,0l.65.56.59-.51a.31.31,0,0,0,.06-.13c0-.25,0-.51,0-.76a.32.32,0,0,0-.13-.2c-.45-.41-.92-.81-1.4-1.23.26-.2.5-.39.75-.57a.33.33,0,0,1,.2,0h1.65a.57.57,0,0,1,.31.1c.22.15.42.33.64.5-.47.42-.93.81-1.38,1.22a.82.82,0,0,0-.14.28.75.75,0,0,0,0,.15c0,.7,0,.75.65,1.17L12,22c.21-.18.27-.18.48,0l.65.56c.2-.17.4-.33.58-.5a.18.18,0,0,0,.06-.13q0-.39,0-.78a.31.31,0,0,0-.11-.19l-1.23-1.07-.18-.16.76-.59a.46.46,0,0,1,.17,0h1.67a.55.55,0,0,1,.3.11c.22.15.42.31.64.48.22-.17.42-.34.64-.49a.51.51,0,0,1,.29-.1h1.65a.62.62,0,0,1,.32.11c.22.15.41.32.64.49-.46.4-.9.8-1.35,1.18a.53.53,0,0,0-.19.41,1,1,0,0,0,.5,1.12.71.71,0,0,1,.15.12l.63-.55c.23-.19.29-.2.51,0l.64.56c.2-.17.41-.34.6-.52a.21.21,0,0,0,.05-.13c0-.25,0-.5,0-.74a.4.4,0,0,0-.14-.22l-1.39-1.22c.26-.2.51-.4.76-.58a.4.4,0,0,1,.19,0h1.65a.63.63,0,0,1,.3.1c.22.15.42.32.65.5l-.18.16c-.41.36-.82.71-1.22,1.08a.41.41,0,0,0-.13.28c0,.77,0,.77.59,1.26,0,0,0,0,.07,0l.56-.49c.3-.26.34-.26.62,0l.59.51.61-.53a.28.28,0,0,0,0-.11s0-.07,0-.1a1.14,1.14,0,0,0-.56-1.24,12.47,12.47,0,0,1-1-.85c.26-.2.51-.4.76-.58a.4.4,0,0,1,.19,0h1.65a.62.62,0,0,1,.32.11c.22.15.42.32.64.49-.48.42-.93.82-1.39,1.21a.44.44,0,0,0-.15.32,1.08,1.08,0,0,0,.56,1.22l.09.08c.23-.2.46-.38.67-.58a.29.29,0,0,1,.45,0c.21.2.43.38.66.58.21-.17.4-.34.59-.51A.18.18,0,0,0,28,21.9c0-.25,0-.51,0-.76a.37.37,0,0,0-.13-.2l-1.23-1.08-.17-.16.75-.57a.41.41,0,0,1,.16,0h1.72a.31.31,0,0,1,.21.06c.24.17.46.35.71.54a11.77,11.77,0,0,1-1,.88,1.12,1.12,0,0,0-.54,1.17.53.53,0,0,0,.17.36c.17.13.32.27.5.42l.65-.57c.2-.17.26-.17.46,0l.67.58L31.5,22a.24.24,0,0,0,.06-.11c0-.27,0-.54,0-.8a.27.27,0,0,0-.11-.17l-1.23-1.07L30,19.71l.76-.58s.1,0,.16,0h1.71a.37.37,0,0,1,.23.07c.23.16.45.34.69.53-.43.38-.84.76-1.27,1.11a.72.72,0,0,0-.26.57.92.92,0,0,0,.46,1,2.31,2.31,0,0,1,.19.16l.64-.55c.22-.19.29-.19.5,0l.64.55.6-.52a.12.12,0,0,0,0-.08c0-.28,0-.57,0-.86,0,0-.07-.1-.12-.14l-1.41-1.23c.26-.2.5-.39.75-.57a.21.21,0,0,1,.14,0h1.8a.25.25,0,0,1,.14,0l.73.56c-.48.42-.93.82-1.39,1.21a.32.32,0,0,0-.14.31s0,.05,0,.08c0,.75,0,.75.65,1.22l.65-.56c.13-.11.26-.19.41,0s.08.26-.08.4-.52.44-.77.67A.28.28,0,0,1,36,23l-.67-.57L34.7,23c-.19.15-.28.15-.46,0l-.66-.57-.66.57c-.2.17-.27.17-.47,0l-.65-.57-.64.56c-.2.17-.29.17-.5,0L30,22.41l-.66.56c-.2.18-.27.18-.48,0l-.65-.55-.62.53c-.23.2-.3.2-.54,0l-.62-.54-.64.56c-.21.18-.28.18-.49,0l-.65-.55L24,23c-.19.16-.28.16-.48,0l-.65-.56-.66.57c-.2.17-.28.17-.47,0l-.66-.57-.62.55c-.22.19-.3.19-.51,0l-.64-.56-.61.53c-.26.22-.31.22-.57,0l-.56-.48-.06,0-.65.56c-.18.16-.28.16-.46,0s-.41-.36-.64-.55l-.64.55c-.21.17-.28.17-.49,0L14,22.41l-.56.49c-.3.27-.35.27-.65,0l-.57-.49-.57.49c-.3.27-.33.27-.63,0l-.29-.25-.29-.24L9.79,23c-.19.16-.28.16-.47,0s-.43-.36-.65-.56L8,23c-.19.17-.27.17-.47,0l-.65-.56L6.24,23c-.2.17-.29.17-.48,0s-.43-.37-.66-.57L4.45,23c-.2.17-.28.17-.48,0l-.65-.56L2.66,23c-.19.16-.28.16-.46,0l-.76-.65c-.16-.14-.19-.28-.08-.4s.28-.08.41,0l.66.57c.2-.18.4-.34.59-.52a.15.15,0,0,0,.06-.1c0-.27,0-.54,0-.81,0-.06-.07-.13-.13-.18Zm15.11,2.84.54-.47a1.76,1.76,0,0,0,0-1.09h0L15.9,19.83c-.09-.09-.16-.08-.25,0a7.29,7.29,0,0,1-.85.73,1.18,1.18,0,0,0-.55,1.29s0,.12,0,.15c.2.19.41.36.62.55l.66-.6A.26.26,0,0,1,16,22Z"/><path d="M3,12.41v.52c0,.2,0,.39.28.41,0,0,0,.05,0,.1H2.13s.07-.1.09-.1c.22,0,.24-.15.24-.33V11.64c0-.16,0-.3-.23-.3,0,0-.06-.05-.13-.11H3.29l0,0s-.06.06-.1.07a.23.23,0,0,0-.21.27c0,.19,0,.39,0,.6H4v-.65a.21.21,0,0,0-.21-.22s-.08,0-.12-.05l0-.06H4.86c-.05,0-.08.1-.11.11s-.22.13-.22.29V13c0,.17,0,.29.22.32,0,0,.06.05.13.11H3.69l0,0a.42.42,0,0,1,.12-.08A.21.21,0,0,0,4,13.1c0-.22,0-.45,0-.69Z"/><path d="M28.51,13.44H27.33l0,0a.41.41,0,0,1,.11-.07c.16,0,.21-.12.22-.26v-.66h-1a4.12,4.12,0,0,1,0,.61c0,.25.21.27.38.43H25.8l0,0s.07-.06.11-.07.21-.13.21-.28V11.63c0-.17,0-.3-.24-.29a.45.45,0,0,1-.11,0l.05-.08H27s-.08.1-.11.11-.23.12-.23.28v.6h1c0-.24,0-.47,0-.71,0-.06-.12-.12-.18-.17a.75.75,0,0,0-.13-.06l0,0h1.19c-.07.06-.1.1-.14.11s-.22.13-.21.28V13c0,.17,0,.29.23.32C28.43,13.34,28.45,13.39,28.51,13.44Z"/><path d="M20.44,11.25c.48,0,1,0,1.45,0a.54.54,0,0,1,.57.46c0,.34-.11.51-.48.62,0,0,0,0,0,0l.89,1.09h-.62s-.09-.06-.12-.11l-.51-.72a1.83,1.83,0,0,0-.26-.21l-.05.05a4.56,4.56,0,0,0,0,.64c0,.09.13.16.21.23s.08.05.1.11H20.42v0a.67.67,0,0,1,.12-.06.23.23,0,0,0,.23-.25V11.59a.2.2,0,0,0-.19-.22c-.06,0-.11-.06-.17-.08Zm.83,1.07h.21c.3,0,.44-.19.42-.53a.38.38,0,0,0-.48-.39c-.05,0-.14.09-.14.14C21.26,11.78,21.27,12,21.27,12.32Z"/><path d="M28.8,13.37l.12,0c.21,0,.25-.15.25-.32V11.68c0-.17,0-.33-.26-.34a.3.3,0,0,1-.11,0l.05-.07a1,1,0,0,1,.17,0c.4,0,.8,0,1.2,0a1,1,0,0,1,.93.94,1,1,0,0,1-.55,1.14,1.05,1.05,0,0,1-.43.11H28.86Zm1.8-.95c0-.22,0-.38-.07-.54a.63.63,0,0,0-.68-.53c-.06,0-.15.09-.15.14q0,.76,0,1.53c0,.17.1.26.28.27a.43.43,0,0,0,.49-.31A3.42,3.42,0,0,0,30.6,12.42Z"/><path d="M17.85,12.25a2.64,2.64,0,0,1,.37.13.47.47,0,0,1,.32.45.5.5,0,0,1-.3.5,1.67,1.67,0,0,1-.49.12,8.05,8.05,0,0,1-1.29,0s.07-.08.11-.09a.25.25,0,0,0,.22-.27c0-.49,0-1,0-1.46a.22.22,0,0,0-.21-.24s-.08-.06-.13-.09c.52,0,1,0,1.49,0a.47.47,0,0,1,.06.93Zm-.54.12c0,.22,0,.43,0,.64s0,.27.21.28.33,0,.4-.22C18.09,12.62,17.84,12.33,17.31,12.37Zm0-.19h.16a.36.36,0,0,0,.38-.43c0-.26-.13-.41-.38-.4a.22.22,0,0,0-.16.12C17.29,11.71,17.3,11.94,17.3,12.18Z"/><path d="M7.83,13.4a.26.26,0,0,1,.11-.07.25.25,0,0,0,.2-.28c0-.47,0-.93,0-1.4,0-.16,0-.27-.22-.3s-.06-.06-.09-.09l0-.07c.5,0,1,0,1.49.08a.55.55,0,0,1,.06,1.09,5.32,5.32,0,0,1-.73.11c0,.22,0,.45,0,.68,0,.07.11.13.18.17a.38.38,0,0,0,.15,0v.06H7.85Zm.82-1.13H8.9a.42.42,0,0,0,.37-.52.39.39,0,0,0-.47-.36c-.05,0-.14.08-.14.13C8.65,11.76,8.65,12,8.65,12.27Z"/><path d="M10.2,13.43s0-.08,0-.09c.27,0,.27-.21.27-.41,0-.42,0-.83,0-1.25,0-.17,0-.31-.23-.34,0,0,0-.05-.08-.08l0-.07c.51,0,1,0,1.53.09a.51.51,0,0,1,.45.57.59.59,0,0,1-.54.55c-.2,0-.41,0-.63.06a4.73,4.73,0,0,0,0,.65c0,.08.13.15.21.22a.5.5,0,0,0,.13,0v.06ZM11,12.27h.24a.41.41,0,0,0,.37-.51.37.37,0,0,0-.46-.37.22.22,0,0,0-.15.13C11,11.76,11,12,11,12.27Z"/><path d="M24.05,11.4a1.48,1.48,0,0,0-.5.1c-.12.07-.19.23-.29.36l-.05,0,0-.61H25.4v.65a1.44,1.44,0,0,0-.31-.39,1.86,1.86,0,0,0-.51-.09c0,.6,0,1.15,0,1.71,0,.07.12.15.2.21a.66.66,0,0,0,.15,0v.06H23.67l.17-.11c.07-.06.2-.12.21-.19C24.06,12.57,24.05,12,24.05,11.4Z"/><path d="M5.84,13.45H5.06a.5.5,0,0,1,.07-.13,2,2,0,0,0,.32-.39c.25-.53.47-1.07.7-1.6a.7.7,0,0,1,.14-.16c0,.05.12.1.14.16l.63,1.55c.07.19.12.41.37.46,0,0,0,.06,0,.11H6.33l0,0s.09-.07.13-.07.18-.1.15-.24-.09-.31-.38-.31H5.93a.24.24,0,0,0-.31.2c-.06.18,0,.3.16.35,0,0,0,.05.08.07Zm.57-.85-.3-.8-.32.8Z"/><path d="M33.77,13.45H32.64l0,0s.09-.07.14-.07.18-.11.15-.24c-.06-.29-.09-.31-.39-.31h-.27a.24.24,0,0,0-.31.2c-.06.18-.05.3.16.35,0,0,0,.05.12.11h-.85l.1-.13a1.54,1.54,0,0,0,.29-.34c.24-.54.46-1.08.7-1.62a.84.84,0,0,1,.15-.18c0,.06.12.11.14.18.22.53.43,1.06.64,1.59.07.16.13.35.34.39C33.74,13.34,33.75,13.4,33.77,13.45Zm-1.05-.85-.3-.8-.33.8Z"/><path d="M13,13.38l.14-.05c.06,0,.17-.09.17-.13a2.16,2.16,0,0,0,0-.72,4.84,4.84,0,0,0-.46-.83,2.52,2.52,0,0,0-.27-.3l-.09-.12h1.09l0,0a1.1,1.1,0,0,1-.14.09c-.11,0-.15.11-.09.21l.44.81c.15-.25.29-.47.41-.7s.12-.3-.12-.34c0,0,0-.06-.07-.11h.74s0,.09,0,.1A3.08,3.08,0,0,0,14,12.51a1.3,1.3,0,0,0,0,.68c0,.05.12.09.19.14l.11.06v0H13.06Z"/><path d="M35.79,13.44H34.62l0,0a.56.56,0,0,1,.13-.07c.16,0,.21-.12.22-.26a1.19,1.19,0,0,0-.2-.84c-.12-.17-.19-.38-.31-.55a3.17,3.17,0,0,0-.3-.34.36.36,0,0,1-.06-.11h1.07l0,0a.6.6,0,0,1-.13.09c-.12,0-.15.11-.09.22.14.26.28.51.43.8.16-.27.31-.5.44-.74s.06-.27-.14-.3c0,0,0-.05-.09-.11h.75s0,.07,0,.08c-.37.22-.46.64-.71.95a1.08,1.08,0,0,0-.16.82.23.23,0,0,0,.23.25s.07.05.11.07Z"/><path d="M20.18,13.44H19l0,0,.12-.06c.15,0,.21-.12.21-.27V11.61c0-.15-.05-.27-.23-.27,0,0-.07,0-.09-.1h1.21c-.06,0-.08.09-.11.1-.2,0-.24.14-.24.3V13c0,.16,0,.29.23.31A1.15,1.15,0,0,1,20.18,13.44Z"/><path d="M12.46,5.08c.48-.43.94-.82,1.39-1.23a.44.44,0,0,0,.14-.3c0-.77,0-.77-.59-1.26l-.06,0-.67.58a.27.27,0,0,1-.43,0l-.67-.59L11,2.75A1.52,1.52,0,0,0,11,3.84L12.36,5l.11.06-.78.6s-.12,0-.18,0H9.85a.65.65,0,0,1-.32-.11c-.21-.15-.41-.31-.63-.49.48-.41.94-.81,1.39-1.22a.44.44,0,0,0,.14-.3c0-.76,0-.76-.58-1.25l-.07,0-.64.56c-.21.18-.27.18-.47,0L8,2.24c-.2.18-.4.34-.58.51a1.55,1.55,0,0,0,0,1.08L8.69,4.9l.2.18-.76.58a.4.4,0,0,1-.19,0H6.29a.54.54,0,0,1-.3-.1c-.22-.15-.43-.32-.65-.5.46-.4.9-.8,1.35-1.18a.36.36,0,0,0,.17-.38V3.45c0-.73,0-.77-.65-1.2l-.59.51c-.28.25-.31.24-.6,0l-.58-.51-.58.51a1.52,1.52,0,0,0,.05,1.09L5.19,5l.13.13c-.25.19-.48.38-.73.56a.33.33,0,0,1-.2,0H2.72a.54.54,0,0,1-.3-.1c-.22-.15-.42-.32-.64-.49L2,4.86l1.14-1,.09-.07A1.77,1.77,0,0,0,3.19,2.7l-.53-.45-.61.52-.12.11a.24.24,0,0,1-.34,0,.21.21,0,0,1,0-.32c.29-.27.6-.54.9-.8.12-.1.24-.05.35,0l.69.6.65-.56c.2-.17.29-.17.48,0l.65.56L6,1.79a.28.28,0,0,1,.43,0c.21.2.43.38.67.59l.62-.53c.23-.2.31-.2.54,0l.62.53.66-.57c.2-.16.27-.16.48,0l.65.56q.32-.29.63-.54c.22-.19.29-.19.52,0l.63.54.65-.56c.2-.17.27-.17.48,0l.65.56.66-.57a.29.29,0,0,1,.46,0l.66.57.67-.57c.19-.16.27-.16.46,0l.66.57.61-.54c.23-.19.31-.19.53,0l.64.54.61-.53c.25-.21.3-.22.55,0l.62.53c.23-.2.45-.38.66-.58a.3.3,0,0,1,.45,0l.65.57.65-.56c.19-.17.27-.16.47,0l.65.56c.22-.19.42-.37.63-.54s.3-.19.53,0l.62.54.61-.52c.25-.23.3-.23.57,0l.58.5h0c.21-.17.42-.36.64-.55s.28-.15.46,0l.63.54.05,0,.65-.56c.19-.16.27-.16.46,0l.66.57.64-.55c.2-.18.29-.18.49,0l.65.56.66-.57c.19-.16.27-.16.46,0l.66.57.67-.58a.29.29,0,0,1,.44,0l.77.67c.16.14.19.29.07.4s-.26.08-.39,0l-.33-.3-.34-.29-.6.53a.21.21,0,0,0-.05.13c0,.25,0,.5,0,.74a.37.37,0,0,0,.13.2l1.41,1.24c-.26.19-.5.39-.76.57a.34.34,0,0,1-.18,0H34.78a.57.57,0,0,1-.33-.11c-.21-.14-.41-.31-.63-.49.43-.37.83-.75,1.27-1.1a.72.72,0,0,0,.27-.61.87.87,0,0,0-.43-.92,1.92,1.92,0,0,1-.23-.2L34,2.82c-.19.16-.26.17-.45,0l-.67-.58-.59.52a.17.17,0,0,0-.06.11c0,.27,0,.54,0,.8,0,.07.07.13.12.18l1.23,1.07.17.16-.74.56a.27.27,0,0,1-.16,0H31.15a.27.27,0,0,1-.16,0c-.25-.18-.48-.37-.74-.57.42-.36.8-.72,1.21-1.05a.81.81,0,0,0,.34-.71.82.82,0,0,0-.39-.83,2.75,2.75,0,0,1-.27-.24l-.64.56c-.23.19-.29.19-.52,0l-.63-.55c-.2.18-.4.34-.58.51a1.42,1.42,0,0,0,.06,1.09l1.26,1.1.14.14-.71.55a.42.42,0,0,1-.2,0H27.61a.33.33,0,0,1-.2,0c-.24-.17-.47-.36-.72-.55.43-.39.85-.77,1.28-1.13a.64.64,0,0,0,.25-.53,1,1,0,0,0-.48-1s-.1-.09-.17-.14l-.66.56c-.2.18-.26.18-.47,0l-.65-.57c-.2.18-.4.34-.59.52a1.53,1.53,0,0,0,.07,1.09L26.5,4.92l.17.16c-.26.2-.49.39-.74.56a.33.33,0,0,1-.2,0H24.08a.62.62,0,0,1-.32-.11c-.22-.14-.42-.31-.63-.47-.22.17-.43.34-.65.49a.41.41,0,0,1-.26.09h-1.7a.46.46,0,0,1-.27-.09c-.22-.15-.43-.33-.66-.51L21,3.87a.48.48,0,0,0,.15-.33,1.09,1.09,0,0,0-.56-1.22l-.09-.08-.63.55c-.23.2-.29.2-.52,0l-.63-.56c-.2.18-.41.34-.59.52a1.47,1.47,0,0,0,.07,1.09L19.44,5l.15.12-.74.57a.38.38,0,0,1-.19,0H17a.46.46,0,0,1-.25-.08c-.22-.16-.43-.33-.67-.52.37-.32.71-.66,1.1-1a1,1,0,0,0,.45-1,.67.67,0,0,0-.28-.58,3.74,3.74,0,0,1-.38-.34l-.64.56c-.23.19-.29.19-.52,0l-.63-.55c-.21.18-.41.35-.6.53a1.47,1.47,0,0,0,.07,1.07L15.89,5l.12.11c-.25.19-.48.38-.73.56a.42.42,0,0,1-.2,0H13.39a.33.33,0,0,1-.2,0C13,5.46,12.72,5.28,12.46,5.08Zm9.81-2.83c-.7.54-.7.54-.65,1.38a.28.28,0,0,0,.09.19L23,4.94a.19.19,0,0,0,.3,0l1.27-1.12a.25.25,0,0,0,.1-.17c0-.25,0-.51,0-.76a.21.21,0,0,0,0-.13L24,2.24c-.23.2-.45.39-.66.59a.26.26,0,0,1-.43,0C22.71,2.63,22.49,2.44,22.27,2.25Z"/><path d="M1.74,19.91c.26-.2.5-.39.75-.57,0,0,.12,0,.18,0h1.7a.48.48,0,0,1,.26.09c.22.16.43.33.66.51-.48.42-.94.82-1.39,1.23a.4.4,0,0,0-.14.28c0,.8,0,.8.65,1.31L5,22.19c.23-.2.28-.2.51,0s.41.35.64.55l.6-.53a.17.17,0,0,0,0-.13c0-.24,0-.49,0-.74a.3.3,0,0,0-.12-.2L5.48,20.07l-.17-.17c.26-.19.5-.38.74-.57a.34.34,0,0,1,.14,0H8a.37.37,0,0,1,.18.05c.23.17.46.35.7.55l-.59.52-.79.7a.27.27,0,0,0-.08.07,1.47,1.47,0,0,0,.05,1.07l.53.47.66-.57c.2-.17.27-.17.48,0l.64.57.6-.51a.21.21,0,0,0,.05-.13,6.42,6.42,0,0,0,0-.76.32.32,0,0,0-.13-.2l-1.4-1.23c.26-.2.5-.39.75-.57a.33.33,0,0,1,.2,0h1.65a.6.6,0,0,1,.31.1c.21.15.42.32.64.5-.47.42-.93.81-1.38,1.22a.74.74,0,0,0-.14.28s0,.1,0,.15c0,.7,0,.75.65,1.17l.64-.55c.21-.18.27-.18.48,0l.65.56.58-.51a.17.17,0,0,0,.06-.12q0-.39,0-.78a.28.28,0,0,0-.12-.19l-1.22-1.07-.18-.17.76-.58a.46.46,0,0,1,.17,0H15a.55.55,0,0,1,.3.11c.22.14.42.31.64.48.21-.17.42-.34.64-.49a.5.5,0,0,1,.28-.1h1.66a.62.62,0,0,1,.32.11c.21.15.41.32.64.49-.46.4-.9.79-1.35,1.17a.57.57,0,0,0-.19.42,1,1,0,0,0,.5,1.11,1.53,1.53,0,0,1,.15.13l.63-.55c.22-.19.29-.2.51,0l.64.56.6-.52a.21.21,0,0,0,0-.13c0-.25,0-.5,0-.74a.34.34,0,0,0-.13-.22c-.45-.41-.91-.8-1.39-1.22.26-.2.51-.4.76-.58.05,0,.12,0,.19,0h1.65a.54.54,0,0,1,.3.1c.22.15.42.32.64.5l-.17.16-1.22,1.07a.46.46,0,0,0-.13.29c0,.77,0,.77.59,1.26,0,0,0,0,.06,0l.57-.49c.3-.26.33-.26.62,0l.59.51c.2-.18.41-.35.6-.53,0,0,0-.07.05-.11s0-.07,0-.1a1.14,1.14,0,0,0-.56-1.24,10.91,10.91,0,0,1-1-.85c.26-.2.51-.4.76-.58a.39.39,0,0,1,.19,0h1.65a.62.62,0,0,1,.32.11c.22.15.41.32.64.49-.48.41-.93.82-1.39,1.21a.44.44,0,0,0-.15.32,1.09,1.09,0,0,0,.56,1.22l.09.08.67-.58a.28.28,0,0,1,.44,0l.67.58.59-.51a.22.22,0,0,0,.06-.13c0-.26,0-.51,0-.76a.43.43,0,0,0-.13-.21l-1.23-1.07-.17-.16.75-.57s.11,0,.16,0h1.72a.36.36,0,0,1,.21.05c.24.17.46.36.71.55a11.64,11.64,0,0,1-1,.87A1.13,1.13,0,0,0,28.66,22a.49.49,0,0,0,.17.36c.17.13.32.27.49.42l.66-.57c.19-.17.26-.17.46,0l.66.58.6-.51a.16.16,0,0,0,.05-.11q0-.4,0-.81a.28.28,0,0,0-.11-.16l-1.23-1.07-.19-.17c.26-.2.5-.4.75-.58,0,0,.11,0,.17,0h1.71a.37.37,0,0,1,.23.07c.23.16.45.34.69.53-.43.38-.84.76-1.27,1.1a.75.75,0,0,0-.27.58.94.94,0,0,0,.47,1c.06,0,.11.1.19.16l.64-.55c.22-.2.28-.19.5,0l.64.55.6-.53a.08.08,0,0,0,0-.07c0-.29,0-.58,0-.86,0-.05-.07-.1-.12-.14l-1.41-1.23.74-.57a.25.25,0,0,1,.15,0h1.8a.28.28,0,0,1,.13,0l.74.57c-.48.41-.93.82-1.39,1.21a.31.31,0,0,0-.14.3v.09c0,.75,0,.75.65,1.22l.65-.56c.13-.11.26-.19.41,0s.08.25-.08.4-.52.44-.77.67a.28.28,0,0,1-.44,0l-.67-.57-.66.56c-.19.16-.28.16-.46,0s-.43-.37-.66-.57l-.66.57c-.2.17-.27.17-.47,0L32,22.61l-.65.56c-.2.17-.29.17-.49,0l-.64-.56-.66.56c-.2.18-.27.18-.48,0l-.65-.56-.62.54c-.23.2-.3.2-.54,0l-.62-.53-.65.56c-.2.18-.27.18-.49,0l-.64-.56-.65.57c-.19.16-.29.16-.48,0s-.43-.36-.65-.56l-.66.57c-.2.17-.28.17-.48,0l-.65-.57-.62.55c-.22.18-.3.19-.51,0l-.65-.56-.6.52c-.26.23-.31.23-.57,0l-.57-.49-.05,0-.65.56c-.18.16-.28.16-.46,0L16,22.63l-.64.54c-.21.18-.28.18-.49,0l-.64-.56-.56.49c-.31.27-.35.26-.65,0l-.57-.49-.57.49c-.3.27-.33.27-.63,0a3.47,3.47,0,0,1-.29-.25l-.29-.24-.66.56c-.19.16-.28.16-.47,0l-.66-.56-.66.57c-.2.17-.27.17-.47,0s-.43-.36-.65-.56l-.65.56c-.19.17-.28.17-.47,0s-.43-.37-.66-.57l-.66.57c-.19.17-.27.17-.47,0l-.65-.57c-.23.2-.44.39-.66.57s-.28.16-.46,0-.51-.43-.76-.65-.19-.28-.08-.4.28-.08.4,0l.67.57.59-.52a.15.15,0,0,0,.06-.11c0-.26,0-.53,0-.8,0-.06-.07-.13-.13-.18Zm15.11,2.83.54-.47a1.74,1.74,0,0,0,.05-1.08h0L16.1,20c-.09-.09-.16-.08-.25,0a7.29,7.29,0,0,1-.85.73A1.17,1.17,0,0,0,14.45,22c0,.06,0,.13,0,.16.2.19.41.36.61.54l.67-.59a.26.26,0,0,1,.42,0C16.4,22.35,16.61,22.54,16.85,22.74Z"/><path d="M3.19,12.61v.51c0,.21,0,.4.27.42,0,0,0,.05.06.1H2.33c0-.05.06-.1.09-.1.22,0,.24-.15.24-.33,0-.46,0-.91,0-1.37,0-.16,0-.3-.23-.31,0,0-.06,0-.13-.11H3.49l0,.05a.61.61,0,0,1-.1.07c-.16,0-.21.12-.22.27v.6h1c0-.22,0-.43,0-.65a.19.19,0,0,0-.2-.22l-.12-.06,0-.05H5.06c0,.05-.08.1-.11.1-.19,0-.23.14-.22.3v1.38c0,.16,0,.29.22.32,0,0,.06.05.13.11H3.89l0,0A.75.75,0,0,1,4,13.53a.21.21,0,0,0,.2-.23v-.69Z"/><path d="M28.7,13.64H27.53l0,0s.07-.07.1-.07.22-.12.22-.26,0-.43,0-.66h-1a4.14,4.14,0,0,1,0,.61c0,.25.21.27.37.42H26l0,0s.07-.06.11-.07.21-.13.21-.28c0-.47,0-.95,0-1.42,0-.17,0-.3-.24-.29a.21.21,0,0,1-.11,0l.05-.07h1.17c-.05.05-.08.1-.11.11a.24.24,0,0,0-.23.27v.61h1a5.58,5.58,0,0,0,0-.71c0-.06-.11-.12-.17-.17a.75.75,0,0,0-.13-.06l0-.05h1.19c-.08.06-.1.1-.14.11s-.22.13-.22.28c0,.47,0,.93,0,1.4,0,.16.05.29.24.31C28.63,13.54,28.65,13.59,28.7,13.64Z"/><path d="M20.63,11.45c.49,0,1,0,1.46,0s.54.2.56.46-.1.51-.47.62l0,0L23,13.65H22.4s-.08-.06-.11-.11l-.52-.72a1.32,1.32,0,0,0-.25-.21l-.05,0a4.68,4.68,0,0,0,0,.65c0,.09.13.16.21.23s.08,0,.1.11H20.62l0-.05.13-.06a.23.23,0,0,0,.23-.25V11.79c0-.14-.06-.2-.2-.23s-.1-.05-.16-.07Zm.84,1.06h.21c.3,0,.44-.19.42-.53a.38.38,0,0,0-.48-.39c-.05,0-.14.09-.15.14C21.46,12,21.47,12.23,21.47,12.51Z"/><path d="M29,13.56a.53.53,0,0,1,.12,0c.21,0,.24-.15.25-.32V11.88c0-.17,0-.33-.26-.34,0,0-.07,0-.11,0l.05-.07.17,0c.4,0,.8,0,1.2.05a1,1,0,0,1,.93.94,1,1,0,0,1-.55,1.14,1.36,1.36,0,0,1-.43.11H29.06Zm1.8-.94c0-.22,0-.38-.07-.54a.63.63,0,0,0-.68-.53c-.06,0-.15.09-.15.14,0,.51,0,1,0,1.52a.26.26,0,0,0,.28.28.45.45,0,0,0,.5-.31C30.74,13,30.76,12.77,30.8,12.62Z"/><path d="M18.05,12.45a3.22,3.22,0,0,1,.37.12.51.51,0,0,1,.32.46.48.48,0,0,1-.3.49,1.43,1.43,0,0,1-.49.13,8.05,8.05,0,0,1-1.29,0s.07-.08.11-.09a.26.26,0,0,0,.22-.27V11.79a.23.23,0,0,0-.21-.25s-.08,0-.13-.08c.52,0,1,0,1.49,0a.45.45,0,0,1,.44.43.45.45,0,0,1-.38.5Zm-.55.12c0,.22,0,.43,0,.64s0,.27.21.28.33,0,.4-.23C18.28,12.82,18,12.52,17.5,12.57Zm0-.19h.17A.38.38,0,0,0,18,12a.35.35,0,0,0-.38-.4.23.23,0,0,0-.16.13C17.49,11.91,17.49,12.14,17.49,12.38Z"/><path d="M8,13.6a.28.28,0,0,1,.11-.08.22.22,0,0,0,.19-.27c0-.47,0-.93,0-1.4,0-.16,0-.27-.22-.31,0,0-.06,0-.09-.08l0-.07c.5,0,1,0,1.49.07A.54.54,0,0,1,10,12a.52.52,0,0,1-.42.59c-.23.06-.47.07-.73.11,0,.21,0,.45,0,.68,0,.07.11.12.18.17a.38.38,0,0,0,.15.05v.06H8.05Zm.82-1.13H9.1A.41.41,0,0,0,9.47,12,.39.39,0,0,0,9,11.59a.17.17,0,0,0-.14.13C8.85,12,8.85,12.21,8.85,12.47Z"/><path d="M10.4,13.63s0-.09,0-.09c.27,0,.27-.21.27-.41,0-.42,0-.84,0-1.25,0-.17,0-.31-.23-.34,0,0-.05,0-.08-.08l0-.07c.51,0,1,0,1.53.09a.51.51,0,0,1,.45.57.6.6,0,0,1-.55.55c-.2,0-.4,0-.62.06a4.73,4.73,0,0,0,0,.65c0,.08.13.15.21.22a.5.5,0,0,0,.13,0v.06Zm.83-1.16h.24a.42.42,0,0,0,.37-.52.38.38,0,0,0-.46-.36c-.06,0-.15.08-.15.12C11.22,12,11.23,12.2,11.23,12.47Z"/><path d="M24.25,11.6a1.48,1.48,0,0,0-.5.1c-.13.07-.19.23-.29.36l-.05,0,0-.61H25.6v.65c-.12-.15-.19-.32-.32-.39a1.72,1.72,0,0,0-.5-.09c0,.6,0,1.15,0,1.71,0,.07.12.15.19.21s.11,0,.16.05v.06H23.87l.17-.11c.07-.06.2-.13.2-.19C24.26,12.77,24.25,12.2,24.25,11.6Z"/><path d="M6,13.64H5.26a.63.63,0,0,1,.07-.12,2,2,0,0,0,.32-.39c.25-.53.46-1.07.7-1.61,0-.06.09-.1.14-.15a.7.7,0,0,1,.14.16c.21.51.42,1,.62,1.54.08.2.13.42.38.47,0,0,0,.06,0,.11H6.53l0-.05s.08-.07.13-.07.18-.11.15-.24C6.73,13,6.7,13,6.4,13H6.13a.24.24,0,0,0-.31.2c-.06.18-.05.3.16.35,0,0,0,0,.08.07Zm.57-.84-.3-.8L6,12.8Z"/><path d="M34,13.65H32.84l0-.05s.09-.07.14-.07.18-.11.15-.24C33,13,33,13,32.71,13h-.28c-.16,0-.25,0-.3.2s-.05.3.16.35c0,0,.05,0,.11.1h-.85l.11-.12a1.81,1.81,0,0,0,.28-.34c.25-.54.47-1.09.71-1.63a1.14,1.14,0,0,1,.15-.17.79.79,0,0,1,.14.18c.22.53.43,1.06.64,1.58.07.17.12.36.34.4C33.94,13.54,34,13.6,34,13.65Zm-1-.85-.3-.8-.33.8Z"/><path d="M13.24,13.58a.59.59,0,0,0,.14-.06c.06,0,.17-.08.17-.12a1.92,1.92,0,0,0,0-.72,4.19,4.19,0,0,0-.45-.83,1.93,1.93,0,0,0-.27-.3l-.09-.12h1.09l0,0a1.1,1.1,0,0,1-.14.09c-.11,0-.15.1-.09.21l.44.81c.15-.25.29-.47.41-.7s.12-.3-.13-.35c0,0,0,0-.06-.1H15s0,.09,0,.1a3.22,3.22,0,0,0-.82,1.18,1.42,1.42,0,0,0,0,.68s.12.09.19.14l.11.05v.06H13.26Z"/><path d="M36,13.64H34.82l0-.05.13-.06c.16,0,.21-.12.22-.27a1.27,1.27,0,0,0-.2-.84c-.12-.16-.19-.37-.31-.54a2.43,2.43,0,0,0-.3-.34.29.29,0,0,1-.06-.11h1.07l0,0a.57.57,0,0,1-.13.08c-.12,0-.16.12-.09.23s.27.51.43.8c.16-.27.31-.5.44-.75s.06-.26-.14-.29c0,0-.05,0-.1-.11h.76s0,.07,0,.07c-.36.23-.45.65-.7,1a1.13,1.13,0,0,0-.17.82.24.24,0,0,0,.24.25s.07,0,.11.07Z"/><path d="M20.37,13.64H19.16l0-.05a.45.45,0,0,1,.12-.06.24.24,0,0,0,.21-.27V11.81c0-.16,0-.27-.23-.27a.15.15,0,0,1-.09-.11h1.21c-.06.06-.08.1-.11.1-.2,0-.24.15-.24.31v1.38a.25.25,0,0,0,.23.31S20.3,13.58,20.37,13.64Z"/></g><g class="cls-3"><path d="M12.12,4.73c.48-.42.94-.81,1.39-1.22a.44.44,0,0,0,.14-.3c0-.77,0-.77-.59-1.26l-.06,0-.67.58a.27.27,0,0,1-.43,0l-.67-.59-.59.51A1.52,1.52,0,0,0,10.7,3.5L12,4.66l.11.06-.78.6s-.12,0-.18,0H9.51a.65.65,0,0,1-.32-.11c-.21-.15-.41-.31-.63-.49C9,4.32,9.5,3.92,10,3.51a.44.44,0,0,0,.14-.3c0-.76,0-.77-.58-1.25l-.07-.05-.64.56c-.21.18-.27.18-.47,0L7.66,1.9c-.2.18-.4.34-.58.51a1.55,1.55,0,0,0,0,1.08L8.35,4.56l.2.18-.76.58a.4.4,0,0,1-.19,0H6a.6.6,0,0,1-.31-.1c-.21-.15-.42-.32-.64-.5.46-.4.9-.8,1.35-1.18a.36.36,0,0,0,.17-.38V3.11c0-.73,0-.77-.65-1.2l-.59.51c-.28.25-.31.24-.6,0L4.1,1.9c-.2.18-.4.34-.58.51a1.52,1.52,0,0,0,0,1.09L4.85,4.61,5,4.74c-.25.19-.48.38-.73.56a.33.33,0,0,1-.2,0H2.38a.6.6,0,0,1-.31-.1c-.21-.15-.41-.32-.63-.49l.24-.22,1.14-1,.08-.07a1.7,1.7,0,0,0,0-1.09l-.53-.45-.61.52-.12.11a.24.24,0,0,1-.34,0,.21.21,0,0,1,0-.32c.29-.27.6-.54.9-.8.12-.1.24,0,.35,0l.69.6.65-.56c.2-.17.29-.17.48,0L5,2l.68-.58a.28.28,0,0,1,.43,0c.21.2.43.38.67.59l.62-.53c.23-.2.31-.2.54,0L8.55,2l.66-.57c.2-.16.27-.16.48,0l.65.56q.32-.28.63-.54c.22-.19.29-.19.52,0l.63.54.65-.56c.2-.17.27-.17.48,0L13.9,2l.66-.57a.29.29,0,0,1,.46,0l.66.57.67-.57c.19-.16.27-.16.46,0l.66.57.61-.54c.23-.19.31-.2.53,0l.64.55.61-.53c.25-.21.3-.22.55,0L21,2c.23-.2.45-.38.66-.58a.3.3,0,0,1,.45,0l.65.57.65-.56c.19-.17.27-.16.47,0l.65.56c.22-.19.42-.37.63-.54s.3-.19.53,0l.62.54L27,1.51c.25-.23.3-.23.57,0l.58.5h0c.21-.17.42-.36.64-.55s.28-.15.46,0l.63.54.05,0,.65-.56c.19-.16.27-.16.46,0l.66.57.64-.55c.2-.18.29-.18.49,0l.65.56.66-.57c.19-.16.27-.16.46,0l.66.57.67-.58a.29.29,0,0,1,.44,0l.77.67c.16.14.19.29.07.4s-.26.08-.39,0l-.33-.3-.34-.29-.6.53a.21.21,0,0,0,0,.13c0,.25,0,.5,0,.74a.37.37,0,0,0,.13.2L37,4.73c-.26.2-.51.4-.76.58a.34.34,0,0,1-.18,0H34.44a.57.57,0,0,1-.33-.11c-.21-.14-.41-.31-.63-.49.43-.37.83-.75,1.27-1.1A.72.72,0,0,0,35,3a.87.87,0,0,0-.43-.92,1.92,1.92,0,0,1-.23-.2l-.66.58c-.19.16-.26.16-.45,0l-.67-.58-.6.52a.22.22,0,0,0-.05.11c0,.27,0,.54,0,.8,0,.07.07.13.12.18l1.23,1.07.17.16-.74.56a.27.27,0,0,1-.16,0H30.81a.27.27,0,0,1-.16,0c-.25-.18-.48-.37-.74-.57.42-.36.8-.72,1.21-1.05A.81.81,0,0,0,31.46,3a.82.82,0,0,0-.39-.83,2.75,2.75,0,0,1-.27-.24l-.64.56c-.23.19-.29.19-.52,0L29,1.9c-.2.18-.4.34-.58.51a1.42,1.42,0,0,0,.06,1.09l1.26,1.1.14.14-.71.55a.42.42,0,0,1-.2,0H27.27a.33.33,0,0,1-.2,0c-.24-.17-.47-.36-.72-.55.43-.39.85-.77,1.28-1.13a.64.64,0,0,0,.25-.53,1,1,0,0,0-.48-1s-.1-.09-.17-.14l-.66.56c-.2.18-.26.18-.47,0l-.65-.57c-.2.18-.4.34-.59.52a1.53,1.53,0,0,0,.07,1.09l1.23,1.07.17.16c-.26.2-.49.39-.74.56a.33.33,0,0,1-.2,0H23.74a.62.62,0,0,1-.32-.11c-.22-.14-.42-.31-.63-.47-.22.17-.43.34-.65.49a.41.41,0,0,1-.26.09h-1.7a.46.46,0,0,1-.27-.09c-.22-.15-.43-.33-.66-.51l1.39-1.2a.48.48,0,0,0,.15-.33A1.09,1.09,0,0,0,20.23,2l-.09-.08-.63.55c-.23.2-.29.2-.52,0l-.63-.56c-.2.18-.41.34-.59.52a1.47,1.47,0,0,0,.07,1.09l1.26,1.1.15.12-.75.57a.32.32,0,0,1-.18,0H16.61a.46.46,0,0,1-.25-.08c-.22-.16-.43-.33-.67-.52.37-.32.71-.66,1.1-1a1,1,0,0,0,.45-1A.67.67,0,0,0,17,2.24c-.13-.09-.24-.21-.39-.34l-.63.56c-.23.19-.29.19-.52,0l-.63-.55c-.21.18-.41.35-.6.53a1.47,1.47,0,0,0,.07,1.07l1.29,1.13.12.11c-.25.19-.48.38-.73.56a.42.42,0,0,1-.2,0H13.05a.33.33,0,0,1-.2,0C12.61,5.12,12.38,4.94,12.12,4.73ZM21.93,1.9c-.7.55-.7.55-.65,1.39a.28.28,0,0,0,.09.19L22.64,4.6a.19.19,0,0,0,.3,0l1.27-1.12a.25.25,0,0,0,.1-.17c0-.25,0-.51,0-.76a.21.21,0,0,0,0-.13l-.6-.52L23,2.49a.26.26,0,0,1-.43,0Z"/><path d="M1.4,19.57c.26-.2.5-.39.75-.57,0,0,.12,0,.18,0H4a.48.48,0,0,1,.27.09c.22.16.43.33.66.51-.48.42-.94.82-1.39,1.23a.4.4,0,0,0-.14.28c0,.8,0,.8.65,1.31l.63-.54c.23-.2.28-.2.51,0s.41.35.64.55l.6-.53a.17.17,0,0,0,0-.13c0-.24,0-.49,0-.74a.3.3,0,0,0-.12-.2L5.14,19.73,5,19.56c.26-.19.5-.38.74-.57a.34.34,0,0,1,.14,0H7.63a.37.37,0,0,1,.18.05c.23.17.46.35.7.55l-.59.52-.79.7a.27.27,0,0,0-.08.07,1.47,1.47,0,0,0,0,1.07l.53.47.66-.57c.2-.17.27-.17.47,0l.65.57.6-.51a.21.21,0,0,0,.05-.13,6.42,6.42,0,0,0,0-.76.32.32,0,0,0-.13-.2l-1.4-1.23c.26-.2.5-.39.75-.57a.33.33,0,0,1,.2,0h1.65a.6.6,0,0,1,.31.1c.21.15.42.32.64.5-.47.42-.93.81-1.38,1.22a.74.74,0,0,0-.14.28s0,.1,0,.15c0,.7,0,.75.65,1.17l.64-.55c.21-.18.27-.18.48,0l.65.56.58-.51a.17.17,0,0,0,.06-.12q0-.39,0-.78a.28.28,0,0,0-.12-.19l-1.22-1.07-.18-.17.76-.58A.46.46,0,0,1,13,19H14.7a.55.55,0,0,1,.3.11c.22.14.42.31.64.48.21-.17.42-.34.64-.49a.5.5,0,0,1,.28-.1h1.66a.62.62,0,0,1,.32.11c.21.15.41.32.64.49-.46.4-.9.79-1.35,1.17a.57.57,0,0,0-.19.42,1,1,0,0,0,.5,1.11,1.53,1.53,0,0,1,.15.13l.63-.55c.22-.19.29-.2.51,0l.64.56.6-.52a.21.21,0,0,0,0-.13c0-.25,0-.5,0-.74a.34.34,0,0,0-.13-.22c-.45-.41-.91-.8-1.39-1.22.26-.2.51-.4.76-.58.05,0,.12,0,.19,0h1.65a.54.54,0,0,1,.3.1c.22.15.42.32.64.5l-.17.16L21.34,20.8a.46.46,0,0,0-.13.29c0,.77,0,.77.59,1.26,0,0,0,0,.06,0l.57-.49c.3-.26.33-.26.62,0l.59.51c.2-.18.41-.35.6-.53,0,0,0-.07.05-.11a.34.34,0,0,0,0-.1,1.14,1.14,0,0,0-.55-1.25,9.4,9.4,0,0,1-1-.84c.26-.2.51-.4.76-.58a.39.39,0,0,1,.19,0h1.65a.62.62,0,0,1,.32.11c.22.15.41.32.64.49-.48.41-.93.82-1.39,1.21a.44.44,0,0,0-.15.32,1.09,1.09,0,0,0,.56,1.22l.09.08.67-.58a.28.28,0,0,1,.44,0l.67.58.59-.51a.22.22,0,0,0,.06-.13c0-.26,0-.51,0-.76a.43.43,0,0,0-.13-.21l-1.23-1.07-.17-.16.75-.57s.11,0,.16,0H29a.36.36,0,0,1,.21.05c.24.17.46.36.71.55a11.64,11.64,0,0,1-1,.87,1.13,1.13,0,0,0-.54,1.18.49.49,0,0,0,.17.36c.17.13.32.27.49.42l.66-.57c.19-.17.26-.17.46,0l.66.58.6-.51a.18.18,0,0,0,.05-.11q0-.41,0-.81a.28.28,0,0,0-.11-.16l-1.23-1.07c-.06,0-.11-.11-.19-.17.26-.2.5-.4.75-.58,0,0,.11,0,.17,0h1.71a.37.37,0,0,1,.23.07c.23.16.45.34.69.53-.43.38-.84.76-1.27,1.1a.75.75,0,0,0-.27.58.94.94,0,0,0,.47,1c.06,0,.11.1.19.16l.64-.55c.22-.2.28-.19.5,0l.64.55.6-.53a.08.08,0,0,0,0-.07c0-.29,0-.58,0-.87,0,0-.07-.09-.12-.13l-1.41-1.23.74-.57a.24.24,0,0,1,.14,0h1.81a.28.28,0,0,1,.13,0l.74.57c-.48.41-.93.82-1.39,1.21a.31.31,0,0,0-.14.3v.09c0,.75,0,.75.65,1.22l.65-.56c.13-.12.26-.19.41,0s.08.25-.08.4-.52.44-.77.67a.28.28,0,0,1-.44,0l-.67-.58c-.23.2-.44.39-.66.57s-.28.16-.46,0l-.66-.57-.66.57c-.2.17-.27.17-.47,0l-.65-.57-.65.56c-.2.17-.29.17-.49,0l-.64-.56-.66.56c-.2.18-.27.18-.49,0l-.64-.56-.62.54c-.23.2-.3.2-.54,0l-.62-.53-.65.56c-.2.18-.27.18-.49,0l-.64-.56-.65.57c-.19.16-.29.16-.48,0s-.43-.36-.65-.56l-.66.57c-.2.17-.28.17-.48,0L21,22.27l-.62.55c-.22.18-.3.19-.51,0l-.65-.56-.6.52c-.26.23-.31.23-.57,0l-.57-.49-.05,0-.65.56c-.18.16-.28.16-.46,0l-.64-.55-.64.54c-.21.18-.28.18-.49,0l-.64-.56-.56.49c-.31.27-.35.26-.65,0l-.57-.49-.57.49c-.3.27-.33.27-.63,0a3.47,3.47,0,0,1-.29-.25l-.29-.24-.66.56c-.19.16-.28.16-.47,0l-.66-.56-.66.57c-.2.17-.27.17-.47,0s-.43-.36-.65-.56l-.65.56c-.19.17-.28.17-.47,0s-.43-.37-.66-.57l-.66.57c-.19.17-.27.17-.47,0l-.65-.57c-.23.2-.44.39-.66.57s-.28.16-.46,0-.51-.43-.76-.65-.19-.28-.08-.4.28-.08.4,0l.67.58.59-.52a.15.15,0,0,0,.06-.11c0-.26,0-.53,0-.8,0-.06-.07-.13-.13-.18ZM16.51,22.4l.54-.47a1.74,1.74,0,0,0,.05-1.08h0l-1.32-1.15c-.09-.09-.16-.08-.25,0a7.29,7.29,0,0,1-.85.73,1.17,1.17,0,0,0-.55,1.28c0,.06,0,.13,0,.16.2.19.41.36.61.54l.67-.59a.26.26,0,0,1,.42,0C16.06,22,16.27,22.2,16.51,22.4Z"/><path d="M2.85,12.27v.51c0,.21,0,.4.27.42,0,0,0,.05.06.1H2c0-.05.06-.1.09-.11.22,0,.24-.14.24-.32,0-.46,0-.91,0-1.37,0-.16,0-.3-.23-.31,0,0-.06,0-.13-.11H3.15l0,.05a.61.61,0,0,1-.1.07c-.16,0-.21.12-.22.27v.6h1c0-.22,0-.43,0-.65a.19.19,0,0,0-.2-.22l-.12-.06,0-.05H4.72c0,.05-.08.1-.11.1-.19,0-.23.14-.22.3v1.38c0,.16,0,.29.22.32,0,0,.06.05.13.11H3.55l0,0a.75.75,0,0,1,.12-.07.21.21,0,0,0,.2-.23v-.69Z"/><path d="M28.36,13.3H27.19l0,0s.07-.07.1-.07a.23.23,0,0,0,.22-.26c0-.22,0-.43,0-.66h-1a4.14,4.14,0,0,1,0,.61c0,.25.21.27.37.42H25.66l0,0s.07-.06.11-.07.21-.13.21-.28c0-.47,0-.95,0-1.42,0-.17,0-.3-.24-.29a.36.36,0,0,1-.11,0l.05-.07h1.17c0,.05-.08.1-.11.1a.25.25,0,0,0-.23.28v.61h1a5.58,5.58,0,0,0,0-.71c0-.06-.11-.12-.17-.17a.75.75,0,0,0-.13-.06l0-.05h1.19a1.15,1.15,0,0,1-.14.11c-.17,0-.22.13-.22.28,0,.46,0,.93,0,1.4,0,.16.05.29.24.31C28.29,13.2,28.31,13.25,28.36,13.3Z"/><path d="M20.29,11.11c.49,0,1,0,1.46,0s.54.2.56.46-.1.5-.47.62l0,0,.89,1.09h-.63S22,13.25,22,13.2l-.52-.72a1.32,1.32,0,0,0-.25-.21l-.05,0a4.68,4.68,0,0,0,0,.65c0,.09.13.16.21.23s.08,0,.1.11H20.28l0-.05.13-.06a.23.23,0,0,0,.23-.25V11.45c0-.14-.06-.2-.2-.23s-.1-.05-.16-.07Zm.84,1.06h.21c.3,0,.44-.19.42-.53a.38.38,0,0,0-.48-.39c-.06,0-.14.09-.15.14C21.12,11.64,21.13,11.89,21.13,12.17Z"/><path d="M28.66,13.22a.53.53,0,0,1,.12,0c.21,0,.24-.15.25-.32V11.54c0-.17,0-.33-.26-.34,0,0-.07,0-.11,0l.05-.07.17,0c.4,0,.8,0,1.2,0a1,1,0,0,1,.93,1,1,1,0,0,1-.55,1.14,1.36,1.36,0,0,1-.43.11H28.72Zm1.8-.94c0-.22,0-.38-.07-.54a.63.63,0,0,0-.68-.53c-.06,0-.15.09-.15.14,0,.51,0,1,0,1.52a.26.26,0,0,0,.28.28.45.45,0,0,0,.5-.31C30.4,12.64,30.42,12.43,30.46,12.28Z"/><path d="M17.71,12.11a3.22,3.22,0,0,1,.37.12.51.51,0,0,1,.32.46.48.48,0,0,1-.3.49,1.49,1.49,0,0,1-.49.13,9.41,9.41,0,0,1-1.29,0s.07-.08.11-.09a.26.26,0,0,0,.22-.27V11.45a.23.23,0,0,0-.21-.25s-.08,0-.13-.08c.52,0,1,0,1.49,0a.45.45,0,0,1,.44.43.45.45,0,0,1-.38.5Zm-.55.12c0,.22,0,.43,0,.64s0,.27.21.28.33,0,.4-.23C17.94,12.48,17.69,12.18,17.16,12.23Zm0-.19h.17a.38.38,0,0,0,.38-.44.35.35,0,0,0-.38-.4.21.21,0,0,0-.16.13C17.14,11.57,17.15,11.8,17.15,12Z"/><path d="M7.69,13.26a.28.28,0,0,1,.11-.08A.22.22,0,0,0,8,12.91c0-.47,0-.93,0-1.4,0-.16,0-.27-.22-.31s-.06,0-.09-.08l0-.07c.5,0,1,0,1.49.07a.54.54,0,0,1,.48.51.52.52,0,0,1-.42.59c-.23.06-.47.07-.73.11,0,.21,0,.45,0,.68,0,.07.11.12.18.17a.38.38,0,0,0,.15.05v.06H7.71Zm.82-1.13h.25a.41.41,0,0,0,.37-.51.39.39,0,0,0-.47-.36.17.17,0,0,0-.14.13C8.5,11.62,8.51,11.87,8.51,12.13Z"/><path d="M10.06,13.29s0-.09,0-.09c.27,0,.27-.21.27-.41,0-.42,0-.84,0-1.25,0-.17,0-.31-.23-.34,0,0-.05,0-.08-.08l0-.07c.51,0,1,0,1.53.09a.51.51,0,0,1,.45.57.6.6,0,0,1-.55.55c-.2,0-.4,0-.62.06a4.56,4.56,0,0,0,0,.64c0,.09.13.16.21.23a.5.5,0,0,0,.13,0v.06Zm.83-1.16h.24a.42.42,0,0,0,.37-.52.38.38,0,0,0-.46-.36c-.06,0-.15.08-.15.12C10.88,11.62,10.89,11.86,10.89,12.13Z"/><path d="M23.91,11.26a1.48,1.48,0,0,0-.5.1c-.13.07-.19.23-.29.36l-.05,0,0-.61h2.16v.65c-.12-.15-.19-.32-.32-.39a1.72,1.72,0,0,0-.5-.09c0,.6,0,1.15,0,1.71,0,.07.12.15.19.21s.11,0,.16.05v.06H23.53l.17-.11c.07-.06.2-.13.2-.19C23.92,12.43,23.91,11.86,23.91,11.26Z"/><path d="M5.7,13.3H4.92A.63.63,0,0,1,5,13.18a2,2,0,0,0,.32-.39c.25-.53.46-1.07.7-1.61,0-.06.09-.1.14-.15a.7.7,0,0,1,.14.16c.21.51.42,1,.62,1.54.08.2.13.42.38.47,0,0,0,.06,0,.11H6.19l0-.05s.08-.07.13-.07.18-.11.15-.24c-.06-.29-.09-.31-.39-.31H5.79a.24.24,0,0,0-.31.2c-.06.18-.05.3.16.35,0,0,.05,0,.08.07Zm.57-.84-.3-.8-.32.8Z"/><path d="M33.63,13.31H32.5l0-.05c.05,0,.09-.07.14-.07s.18-.11.15-.24c-.06-.29-.09-.31-.39-.31h-.28c-.16,0-.25,0-.3.2s-.05.3.16.35c0,0,.05,0,.11.1h-.85l.11-.12a1.81,1.81,0,0,0,.28-.34c.25-.54.47-1.09.71-1.63a1.14,1.14,0,0,1,.15-.17.79.79,0,0,1,.14.18c.22.53.43,1.06.64,1.58.07.17.12.36.34.4C33.6,13.2,33.61,13.26,33.63,13.31Zm-1.05-.85-.3-.8-.33.8Z"/><path d="M12.9,13.24a.59.59,0,0,0,.14-.06c.06,0,.17-.08.17-.12a1.92,1.92,0,0,0,0-.72,4.19,4.19,0,0,0-.45-.83,1.93,1.93,0,0,0-.27-.3l-.09-.12h1.09l0,0a1.1,1.1,0,0,1-.14.09c-.11,0-.15.1-.09.21l.44.81c.15-.25.29-.47.41-.7s.12-.3-.13-.35c0,0,0,0-.06-.11h.74c0,.05,0,.1,0,.11a3.22,3.22,0,0,0-.82,1.18,1.42,1.42,0,0,0,0,.68s.12.09.19.14l.11.05v.06H12.92Z"/><path d="M35.64,13.3H34.48l0-.05.13-.06c.16,0,.21-.12.22-.27a1.27,1.27,0,0,0-.2-.84c-.12-.16-.19-.37-.31-.54a2.43,2.43,0,0,0-.3-.34.29.29,0,0,1-.06-.11H35l0,0a.57.57,0,0,1-.13.08c-.12,0-.16.12-.09.23s.27.51.43.8c.16-.27.31-.5.44-.75s.06-.26-.14-.29c0,0,0,0-.1-.11h.76s0,.07,0,.07c-.36.23-.45.65-.7,1a1.13,1.13,0,0,0-.17.82.24.24,0,0,0,.24.25s.07,0,.11.07Z"/><path d="M20,13.3H18.82l0-.05a.6.6,0,0,1,.11-.06.24.24,0,0,0,.22-.27V11.47c0-.16-.05-.27-.23-.27a.15.15,0,0,1-.09-.11H20c-.06.06-.08.1-.11.1-.2,0-.24.15-.24.31v1.37c0,.17,0,.29.23.32C19.93,13.2,20,13.24,20,13.3Z"/></g><path class="cls-4" d="M12.32,4.93c.48-.42.94-.81,1.39-1.22a.44.44,0,0,0,.14-.3c0-.77,0-.77-.59-1.26l-.06,0-.67.58a.28.28,0,0,1-.43,0l-.68-.59-.58.51A1.47,1.47,0,0,0,10.9,3.7l1.32,1.16.11.06-.78.59a.3.3,0,0,1-.19,0H9.71a.62.62,0,0,1-.32-.11c-.21-.15-.41-.32-.63-.49.47-.41.94-.81,1.39-1.23a.43.43,0,0,0,.14-.3c0-.76,0-.76-.58-1.24l-.08-.05L9,2.67c-.21.17-.27.18-.48,0L7.86,2.1c-.2.18-.4.34-.58.51a1.55,1.55,0,0,0,0,1.08L8.55,4.76l.19.18c-.26.2-.5.39-.76.57,0,0-.12,0-.18,0H6.15a.6.6,0,0,1-.31-.1c-.21-.15-.42-.32-.65-.5.47-.4.91-.8,1.36-1.18a.37.37,0,0,0,.17-.38V3.31c0-.73,0-.77-.65-1.2l-.59.51c-.28.24-.31.24-.6,0L4.3,2.1c-.2.17-.4.33-.58.51a1.52,1.52,0,0,0,0,1.09L5.05,4.81l.13.13-.73.56a.59.59,0,0,1-.2,0H2.58a.67.67,0,0,1-.31-.1c-.21-.15-.41-.32-.63-.49l.24-.22L3,3.71l.08-.06a1.76,1.76,0,0,0-.05-1.09L2.52,2.1l-.61.52-.12.11a.23.23,0,0,1-.34,0,.22.22,0,0,1,0-.33l.91-.79c.12-.1.24-.05.35,0l.69.6.65-.56c.2-.17.28-.17.48,0l.65.56.68-.59a.27.27,0,0,1,.42,0L7,2.23l.62-.54c.23-.2.3-.2.54,0l.62.54.66-.57c.2-.17.27-.16.47,0l.65.56.63-.55c.23-.19.3-.18.53,0l.62.54L13,1.66c.2-.16.27-.17.47,0l.66.56.66-.57c.18-.16.27-.15.46,0l.66.57.67-.57c.18-.16.26-.16.45,0s.44.37.66.57l.62-.54c.23-.19.3-.2.53,0l.63.55.62-.53c.24-.21.3-.22.55,0l.62.53c.23-.2.45-.38.66-.58a.3.3,0,0,1,.45,0l.65.57.64-.56c.2-.17.28-.16.48,0l.65.56.63-.55c.22-.19.3-.18.52,0l.63.54.61-.52c.25-.23.3-.23.57,0l.57.49h.05L29,1.66c.18-.16.28-.15.46,0l.63.54.05,0,.65-.56c.19-.16.27-.16.46,0l.66.57.63-.55c.21-.18.3-.18.5,0l.65.56.66-.57c.19-.16.27-.16.46,0l.66.57.67-.58a.29.29,0,0,1,.44,0c.26.23.52.44.77.67s.18.29.07.4-.27.07-.39,0l-.33-.29-.34-.29c-.2.18-.41.35-.6.53a.19.19,0,0,0-.05.13c0,.25,0,.49,0,.74a.37.37,0,0,0,.13.2l1.41,1.23c-.26.2-.51.4-.76.58a.34.34,0,0,1-.18,0H34.63a.65.65,0,0,1-.32-.11c-.21-.15-.41-.31-.64-.49.43-.37.84-.75,1.27-1.1a.73.73,0,0,0,.28-.61.87.87,0,0,0-.43-.92,2.05,2.05,0,0,1-.23-.2l-.66.58c-.19.16-.26.16-.45,0l-.67-.58-.6.52a.19.19,0,0,0,0,.11c0,.27,0,.53,0,.8a.44.44,0,0,0,.13.18l1.23,1.07.17.16-.74.56a.27.27,0,0,1-.16,0H31a.26.26,0,0,1-.15,0c-.25-.18-.48-.37-.74-.57.41-.36.8-.72,1.21-1a.82.82,0,0,0,.34-.71.82.82,0,0,0-.39-.83A2.75,2.75,0,0,1,31,2.1l-.64.55c-.23.2-.29.2-.52,0l-.63-.55c-.2.18-.4.34-.58.51a1.47,1.47,0,0,0,.05,1.09L30,4.8l.14.14-.71.55a.42.42,0,0,1-.2,0H27.47a.33.33,0,0,1-.2,0c-.24-.17-.47-.36-.73-.56.44-.38.86-.76,1.29-1.12a.69.69,0,0,0,.25-.53,1,1,0,0,0-.48-1,1.07,1.07,0,0,1-.17-.15l-.66.57c-.2.17-.26.17-.47,0l-.65-.57c-.2.17-.4.34-.59.52a1.53,1.53,0,0,0,.07,1.09l1.23,1.07.17.16-.74.56a.33.33,0,0,1-.2,0H23.94a.62.62,0,0,1-.32-.11C23.4,5.27,23.2,5.11,23,5c-.22.17-.43.34-.65.49a.51.51,0,0,1-.27.09H20.38a.54.54,0,0,1-.27-.09l-.66-.51,1.39-1.21A.44.44,0,0,0,21,3.4a1.09,1.09,0,0,0-.56-1.22l-.09-.08-.63.54c-.23.21-.29.21-.52,0l-.63-.55c-.2.18-.41.34-.59.52A1.43,1.43,0,0,0,18,3.71l1.26,1.1a1,1,0,0,0,.15.11c-.27.21-.5.4-.75.58a.34.34,0,0,1-.18,0H16.81a.44.44,0,0,1-.25-.08c-.22-.16-.44-.33-.67-.52.37-.32.71-.67,1.1-.95a1,1,0,0,0,.44-1,.67.67,0,0,0-.27-.59c-.13-.09-.25-.21-.39-.33l-.63.55c-.23.2-.29.2-.52,0L15,2.1c-.21.18-.41.34-.6.52a1.5,1.5,0,0,0,.07,1.08l1.29,1.12.12.11c-.25.2-.48.39-.73.57a.59.59,0,0,1-.2,0H13.25a.42.42,0,0,1-.2,0C12.81,5.32,12.58,5.13,12.32,4.93ZM22.13,2.1c-.7.54-.7.55-.65,1.38a.31.31,0,0,0,.09.2l1.27,1.11c.11.1.18.11.3,0l1.27-1.12a.25.25,0,0,0,.1-.17c0-.25,0-.51,0-.76a.21.21,0,0,0-.05-.13l-.6-.52-.65.58c-.16.16-.27.16-.43,0Z"/><path class="cls-4" d="M1.6,19.77l.75-.58s.12,0,.18,0H4.22a.51.51,0,0,1,.27.09l.66.51L3.75,21a.41.41,0,0,0-.13.28c0,.8,0,.8.65,1.31l.63-.54c.22-.2.28-.2.5,0l.65.56.6-.53a.19.19,0,0,0,0-.13c0-.25,0-.49,0-.74a.3.3,0,0,0-.12-.2L5.34,19.92l-.17-.16.74-.57a.35.35,0,0,1,.14,0H7.83a.37.37,0,0,1,.18,0c.23.17.45.35.7.55l-.59.52-.8.69a.27.27,0,0,1-.08.07,1.6,1.6,0,0,0,0,1.08l.54.47q.33-.3.66-.57c.2-.17.27-.17.47,0l.65.57c.2-.17.4-.34.59-.52a.16.16,0,0,0,.06-.12c0-.26,0-.51,0-.77a.35.35,0,0,0-.13-.19l-1.4-1.23c.26-.2.49-.39.74-.57,0,0,.14,0,.21,0h1.65a.54.54,0,0,1,.3.1c.22.15.43.32.65.5-.48.42-.94.81-1.38,1.22-.08.06-.1.18-.14.28s0,.09,0,.14c0,.71,0,.75.65,1.18L12,22c.21-.19.28-.19.49,0l.65.56.58-.51a.2.2,0,0,0,.06-.12c0-.26,0-.53,0-.79A.34.34,0,0,0,13.7,21c-.4-.36-.82-.72-1.23-1.07l-.17-.17.76-.58s.11,0,.16,0H14.9a.58.58,0,0,1,.3.11c.21.14.42.31.63.47.22-.16.43-.33.65-.48a.5.5,0,0,1,.28-.1q.82,0,1.65,0a.65.65,0,0,1,.33.11c.21.15.41.31.63.49-.45.4-.89.79-1.34,1.17a.55.55,0,0,0-.19.41,1,1,0,0,0,.5,1.12,1.53,1.53,0,0,1,.15.13l.63-.55c.22-.2.29-.2.5,0l.65.56.6-.52a.22.22,0,0,0,.05-.14c0-.24,0-.49,0-.74a.39.39,0,0,0-.13-.22c-.45-.4-.91-.79-1.4-1.21l.77-.59s.12,0,.18,0H22a.54.54,0,0,1,.3.1c.22.15.41.32.64.49a1.25,1.25,0,0,1-.17.16L21.54,21a.46.46,0,0,0-.13.29c0,.77,0,.77.58,1.26l.07,0,.57-.5c.3-.25.33-.25.62,0l.59.51.6-.53s0-.07,0-.11a.4.4,0,0,0,0-.11,1.12,1.12,0,0,0-.56-1.24,10.45,10.45,0,0,1-1-.84c.26-.2.51-.4.76-.58a.34.34,0,0,1,.18,0h1.66a.62.62,0,0,1,.32.11c.21.15.41.31.64.49-.48.41-.93.82-1.39,1.21a.44.44,0,0,0-.15.32,1.09,1.09,0,0,0,.56,1.22l.09.08.67-.59a.28.28,0,0,1,.44,0l.67.58c.2-.18.4-.34.59-.52a.2.2,0,0,0,.06-.12c0-.26,0-.51,0-.77a.3.3,0,0,0-.12-.2l-1.23-1.07-.17-.16c.26-.2.5-.39.75-.57a.29.29,0,0,1,.16,0h1.72a.38.38,0,0,1,.21,0l.71.55c-.35.3-.66.62-1,.87a1.14,1.14,0,0,0-.53,1.18.49.49,0,0,0,.17.36c.17.13.32.27.49.42l.66-.57c.19-.17.26-.17.45,0l.67.58.6-.52a.19.19,0,0,0,.05-.1q0-.4,0-.81A.28.28,0,0,0,31.5,21l-1.23-1.08-.19-.16c.26-.21.5-.4.75-.58a.29.29,0,0,1,.16,0h1.72a.37.37,0,0,1,.23.07c.23.16.45.34.69.53-.43.38-.84.75-1.27,1.1a.74.74,0,0,0-.27.57,1,1,0,0,0,.46,1,2.33,2.33,0,0,1,.2.16l.63-.56c.23-.19.29-.19.51,0s.41.37.64.56l.6-.53a.08.08,0,0,0,0-.07c0-.29,0-.58,0-.87,0,0-.08-.09-.12-.13l-1.41-1.23.74-.57a.25.25,0,0,1,.14,0h1.8a.47.47,0,0,1,.14,0l.74.57L35.81,21a.31.31,0,0,0-.14.3v.09c0,.75,0,.75.65,1.22L37,22c.13-.12.26-.19.4,0s.09.25-.08.4l-.76.66a.29.29,0,0,1-.45,0l-.66-.58-.66.57c-.19.16-.28.16-.47,0l-.65-.57L33,23c-.2.18-.27.18-.47,0l-.66-.57-.64.56c-.2.17-.29.17-.49,0l-.64-.56-.66.56c-.21.18-.27.18-.49,0l-.64-.55-.62.54c-.24.2-.31.2-.54,0l-.62-.53-.65.56c-.2.18-.28.18-.49,0l-.64-.56-.65.56c-.19.17-.29.17-.48,0L23,22.47l-.66.57c-.2.17-.28.17-.48,0l-.65-.56-.63.55c-.21.18-.29.18-.51,0s-.41-.36-.64-.55l-.61.52c-.25.23-.3.23-.57,0l-.56-.49-.05,0-.65.56c-.18.16-.28.16-.46,0l-.64-.56L15.2,23c-.21.18-.28.18-.49,0s-.42-.35-.64-.55l-.56.49c-.31.26-.35.26-.66,0l-.56-.49-.57.49c-.31.27-.33.27-.64,0l-.28-.25c-.09-.08-.19-.15-.29-.25L9.85,23c-.19.17-.28.17-.47,0l-.66-.56L8.06,23c-.2.17-.27.17-.47,0l-.65-.56L6.29,23c-.19.17-.28.17-.48,0l-.65-.57L4.5,23c-.19.16-.27.17-.47,0l-.66-.56L2.72,23c-.19.16-.28.16-.47,0l-.75-.65c-.16-.14-.19-.29-.08-.4s.27-.08.4,0l.67.58.59-.52A.24.24,0,0,0,3.14,22c0-.27,0-.53,0-.8,0-.06-.08-.13-.13-.18ZM16.7,22.6c.2-.16.37-.31.55-.47a1.74,1.74,0,0,0,.05-1.08h0L16,19.88c-.09-.08-.16-.07-.25,0a7.29,7.29,0,0,1-.85.73,1.17,1.17,0,0,0-.55,1.28c0,.06,0,.13,0,.16l.61.54.66-.6A.26.26,0,0,1,16,22C16.25,22.21,16.47,22.39,16.7,22.6Z"/><path class="cls-4" d="M3.05,12.47V13c0,.2,0,.39.27.42,0,0,0,0,.05.1H2.18c0-.05.07-.11.1-.11.21,0,.24-.15.24-.32,0-.46,0-.92,0-1.37,0-.17,0-.31-.23-.31,0,0-.06-.05-.13-.11H3.35l0,.05a.61.61,0,0,1-.1.07.23.23,0,0,0-.22.26v.61h1c0-.22,0-.44,0-.65a.19.19,0,0,0-.2-.22l-.12-.06v-.05H4.92c0,.05-.08.1-.11.1-.19,0-.23.14-.23.3q0,.69,0,1.38c0,.16,0,.29.23.32,0,0,.06,0,.13.11H3.75l0,0s.07-.07.12-.07a.21.21,0,0,0,.2-.23v-.69Z"/><path class="cls-4" d="M28.56,13.5H27.39l0,0s.06-.07.1-.07a.23.23,0,0,0,.22-.26c0-.22,0-.43,0-.66h-1a4,4,0,0,1,0,.6c0,.26.21.28.37.43H25.86l0,0s.07-.07.11-.07.21-.13.2-.28V11.69c0-.17,0-.3-.23-.3a.53.53,0,0,1-.12,0l.06-.07H27c-.05.05-.08.1-.11.1a.25.25,0,0,0-.23.28v.6h1c0-.23,0-.47,0-.7,0-.06-.11-.12-.17-.17a.75.75,0,0,0-.13-.06v-.05h1.2c-.08.05-.11.1-.14.1s-.22.13-.22.29c0,.46,0,.93,0,1.39,0,.17.05.29.24.32C28.49,13.4,28.51,13.44,28.56,13.5Z"/><path class="cls-4" d="M20.49,11.3c.49,0,1,0,1.46,0s.54.2.56.46-.1.5-.47.61l0,0,.89,1.09h-.63s-.08-.07-.11-.11c-.18-.24-.34-.49-.52-.72a1,1,0,0,0-.25-.21l-.05,0a4.68,4.68,0,0,0,0,.65c0,.08.13.15.21.22s.08,0,.1.12H20.48l0-.05c.05,0,.09-.06.13-.06a.22.22,0,0,0,.22-.26c0-.49,0-1,0-1.48,0-.14-.06-.2-.2-.23a.6.6,0,0,1-.16-.08Zm.84,1.07h.21c.3,0,.44-.19.42-.53a.38.38,0,0,0-.48-.39c-.06,0-.14.09-.15.14C21.32,11.84,21.33,12.09,21.33,12.37Z"/><path class="cls-4" d="M28.86,13.42l.11,0c.22,0,.25-.15.25-.32,0-.44,0-.89,0-1.33,0-.18,0-.33-.25-.34,0,0-.07,0-.11,0l0-.07.18,0c.4,0,.8,0,1.2,0a1,1,0,0,1,.93.94,1,1,0,0,1-.56,1.15,1.24,1.24,0,0,1-.42.11H28.92Zm1.8-.94c0-.22,0-.38-.07-.54a.63.63,0,0,0-.68-.53c-.06,0-.15.09-.15.14,0,.51,0,1,0,1.52a.26.26,0,0,0,.28.28.45.45,0,0,0,.5-.31C30.6,12.84,30.62,12.63,30.66,12.48Z"/><path class="cls-4" d="M17.91,12.31a3.22,3.22,0,0,1,.37.12.51.51,0,0,1,.32.46.49.49,0,0,1-.31.49,1.37,1.37,0,0,1-.48.13,11.33,11.33,0,0,1-1.29,0s.07-.08.11-.09a.27.27,0,0,0,.22-.27V11.65a.23.23,0,0,0-.21-.25c-.05,0-.08-.05-.13-.09.52,0,1,0,1.48,0a.47.47,0,0,1,.45.43c0,.25-.11.41-.39.5Zm-.55.12v.64c0,.13,0,.27.22.28a.34.34,0,0,0,.4-.23C18.14,12.68,17.89,12.38,17.36,12.43Zm0-.2a.51.51,0,0,0,.17,0c.25,0,.38-.16.38-.43a.35.35,0,0,0-.38-.4c-.06,0-.16.08-.16.13C17.34,11.77,17.35,12,17.35,12.23Z"/><path class="cls-4" d="M7.89,13.46A.28.28,0,0,1,8,13.38c.15,0,.19-.13.19-.28V11.71c0-.16,0-.27-.21-.31s-.06-.05-.1-.08l0-.07c.5,0,1,0,1.49.07a.56.56,0,0,1,0,1.1,6.85,6.85,0,0,1-.72.11c0,.21,0,.45,0,.68,0,.06.11.12.18.17a.66.66,0,0,0,.15,0v.06H7.91Zm.82-1.14H9a.4.4,0,0,0,.36-.51.38.38,0,0,0-.46-.37c-.06,0-.14.09-.14.14C8.7,11.82,8.71,12.07,8.71,12.32Z"/><path class="cls-4" d="M10.26,13.49c0-.05,0-.09,0-.09.27,0,.27-.21.27-.42,0-.41,0-.83,0-1.24,0-.18,0-.31-.23-.34,0,0-.06-.05-.08-.08l0-.07c.51,0,1,0,1.53.08a.51.51,0,0,1,.44.58.58.58,0,0,1-.54.55l-.62.06a4.56,4.56,0,0,0,0,.64c0,.09.13.16.21.22s.08,0,.13,0v.06Zm.82-1.17h.25a.41.41,0,0,0,.37-.51.4.4,0,0,0-.47-.37c-.05,0-.14.09-.14.13C11.08,11.82,11.08,12.06,11.08,12.32Z"/><path class="cls-4" d="M24.11,11.46a1.72,1.72,0,0,0-.5.09,1.19,1.19,0,0,0-.29.37l-.05,0,0-.61h2.17v.64c-.12-.15-.19-.31-.32-.38a1.49,1.49,0,0,0-.5-.09c0,.6,0,1.15,0,1.71,0,.07.12.14.19.21a.38.38,0,0,0,.16,0v.07H23.73l.16-.11c.08-.06.21-.13.21-.19C24.12,12.62,24.11,12.06,24.11,11.46Z"/><path class="cls-4" d="M5.9,13.5H5.11a.62.62,0,0,1,.08-.12A2,2,0,0,0,5.51,13c.24-.53.46-1.07.7-1.61,0-.06.09-.1.14-.15a.7.7,0,0,1,.14.16c.21.51.42,1,.62,1.54.08.2.13.41.38.47,0,0,0,.06,0,.1H6.39l0,0s.09-.07.14-.07.18-.11.15-.24c-.06-.29-.09-.31-.39-.31a1.22,1.22,0,0,1-.27,0,.25.25,0,0,0-.31.21c-.06.17,0,.3.16.35,0,0,0,0,.08.07Zm.57-.84-.3-.8-.32.8Z"/><path class="cls-4" d="M33.83,13.5H32.69l0,0s.09-.07.14-.07.18-.11.15-.24c-.07-.29-.1-.31-.39-.31a1.31,1.31,0,0,1-.28,0c-.17,0-.25,0-.31.21s-.05.3.17.35c0,0,.05,0,.11.1h-.85l.1-.12A1.54,1.54,0,0,0,31.8,13c.25-.54.47-1.09.71-1.63a1.14,1.14,0,0,1,.15-.17.79.79,0,0,1,.14.18c.22.52.43,1.06.64,1.58.07.17.12.36.34.4C33.8,13.4,33.81,13.45,33.83,13.5Zm-1.06-.84-.3-.8-.32.8Z"/><path class="cls-4" d="M13.1,13.44l.14-.06c.06,0,.17-.08.17-.12a1.92,1.92,0,0,0,0-.72,3.93,3.93,0,0,0-.45-.83,2,2,0,0,0-.28-.31l-.08-.11h1.09l0,0a1.1,1.1,0,0,1-.14.09c-.11,0-.15.1-.09.21s.28.52.44.8c.15-.25.29-.46.41-.69s.12-.3-.13-.35c0,0,0-.05-.07-.11h.75a.75.75,0,0,1,0,.11A3.11,3.11,0,0,0,14,12.57c-.1.17,0,.45,0,.68,0,.05.12.09.18.13l.12.06,0,.06H13.12Z"/><path class="cls-4" d="M35.84,13.5H34.68l0-.05s.08-.06.13-.06a.23.23,0,0,0,.21-.27,1.2,1.2,0,0,0-.19-.84c-.12-.16-.2-.37-.31-.55a3.08,3.08,0,0,0-.3-.33.42.42,0,0,1-.07-.12H35.2l0,0-.13.09c-.12.05-.16.12-.09.23s.27.5.43.79c.16-.26.31-.49.44-.74s0-.27-.15-.3c0,0,0-.05-.09-.1h.75s0,.06,0,.07c-.36.23-.45.65-.7,1a1.13,1.13,0,0,0-.17.82.24.24,0,0,0,.24.25s.07,0,.1.07Z"/><path class="cls-4" d="M20.23,13.5H19v-.06s.07,0,.11,0a.24.24,0,0,0,.22-.27c0-.48,0-1,0-1.46,0-.15,0-.26-.22-.27s-.07,0-.09-.1h1.21c-.06.05-.09.1-.11.1-.2,0-.25.15-.25.31,0,.46,0,.92,0,1.37,0,.17.05.29.24.32C20.13,13.39,20.16,13.44,20.23,13.5Z"/></g></g></svg>