<svg xmlns="http://www.w3.org/2000/svg" viewBox="0 0 38.55 24.66"><defs><style>.cls-1{isolation:isolate;}.cls-2{opacity:0.15;}.cls-2,.cls-3{mix-blend-mode:multiply;}.cls-4{fill:#fff;}</style></defs><title>convert-FIX-SVG-03</title><g class="cls-1"><g id="Layer_1" data-name="Layer 1"><g class="cls-2"><path d="M25.82,12.71a5.33,5.33,0,0,1-.6-.7,7.63,7.63,0,0,1-1-2.55,2.88,2.88,0,0,1,.21-1.76,1.29,1.29,0,0,1,2.21-.31.79.79,0,0,1,.08.22l.43.48c0-.13.05-.24.08-.36a3.14,3.14,0,0,1,.57-1.14.47.47,0,0,0,.09-.28A1.46,1.46,0,0,1,28.48,5a2.23,2.23,0,0,1,1.59-.51,1.48,1.48,0,0,1,1,.61L34.5,1.62l.07,0-.93,4.18a1.94,1.94,0,0,1,2.11.73,2,2,0,0,1,0,2.22,3.48,3.48,0,0,1,.64-.07,1.08,1.08,0,0,1,1,1.45,1.71,1.71,0,0,1-.29.53,18.35,18.35,0,0,1-2.86,2.85A3.73,3.73,0,0,1,33,14.2l-.09,0a.68.68,0,0,0-.56.65,12.94,12.94,0,0,1-.39,1.85,3.44,3.44,0,0,1-.34.66.47.47,0,0,0,0,.23c.15.87.32,1.75.43,2.63a5.37,5.37,0,0,1,0,1.55,2.24,2.24,0,0,1-2.27,1.65,2,2,0,0,1-1.25-3,5.77,5.77,0,0,0,.36-.7.23.23,0,0,0-.08-.29,1.06,1.06,0,0,1-.28-.32.4.4,0,0,0-.43-.25,3.21,3.21,0,0,1-1.94-.8.66.66,0,0,0-.49-.13c-.6,0-1.21,0-1.82,0-.78-.05-1.57-.14-2.35-.25a1.56,1.56,0,0,1-1.37-1.38,3.47,3.47,0,0,1,.68-2.71,1.17,1.17,0,0,1,1.88-.13,6.49,6.49,0,0,1,.73.93,1.11,1.11,0,0,0,1.62.28.2.2,0,0,0,.08-.13A5.22,5.22,0,0,1,25.82,12.71Zm2.47,6a1.61,1.61,0,0,1,.23-1A4.67,4.67,0,0,1,30,16.2a.68.68,0,0,1,1.1.24c.13.22.23.46.35.71a7.38,7.38,0,0,0,.63-2.44l-.4.34a.66.66,0,0,1-1.1-.4,2.58,2.58,0,0,1,0-1A11.1,11.1,0,0,1,31,12.54c-.18,0-.17.23-.25.35a.36.36,0,0,1-.18.15c-.05,0-.13-.07-.17-.13a1.55,1.55,0,0,1-.12-.22,5.06,5.06,0,0,0-.59-1.1,1,1,0,0,0-.79-.28,8.06,8.06,0,0,1-1.09.21,1.81,1.81,0,0,0-1.26.66,4.49,4.49,0,0,0-.65,5.35.92.92,0,0,0,.19.25,3.33,3.33,0,0,0,1.26.76A9.59,9.59,0,0,0,28.29,18.74ZM32,11.29c.22-.19.45-.43.71-.62.61-.43,1.23-.84,1.85-1.25.11-.08.24-.14.11-.27a.79.79,0,0,1-.11-.93.79.79,0,0,0-.07-.76c-.11-.17-.23-.34-.35-.5A.2.2,0,0,0,34,6.87c-.39,0-.56-.21-.69-.5A.59.59,0,0,0,33,6.06a3.42,3.42,0,0,0-.4-.17c-.34-.13-.69-.22-1-.38a1.39,1.39,0,0,0-.87-.14,4.33,4.33,0,0,0-2.36,1A2.21,2.21,0,0,0,28,9.68c.17.2.4.21.62.3-.17-.22-.34-.4-.47-.61a2.07,2.07,0,0,1,.21-2.12A1.49,1.49,0,0,0,28.49,7a.46.46,0,0,1,.56-.3s.05,0,.08,0a1.88,1.88,0,0,1,2.14.41,1.58,1.58,0,0,1,.64,1.6,2.2,2.2,0,0,1-1.32,1.81,1.11,1.11,0,0,1-.25.05l-.25,0,0,.06.36.15c.42.11.84.21,1.26.33A2.2,2.2,0,0,1,32,11.29Zm-3.21,11.2-.06,0c.12.07.22.17.34.23a2.06,2.06,0,0,0,2-.26A1.4,1.4,0,0,0,31.78,21c-.17-1.1-.3-2.2-.5-3.3a4.46,4.46,0,0,0-.46-1.16c-.15-.29-.33-.29-.6-.12a4.32,4.32,0,0,0-1.41,1.38,1.1,1.1,0,0,0,.31,1.69,1,1,0,0,1,.44,1.11,7.56,7.56,0,0,1-.39,1.06c-.09.22-.19.43-.28.65ZM37,9.37l-.77.63a2.51,2.51,0,0,1-2.51.39.29.29,0,0,0-.24,0c-.49.4-1,.8-1.44,1.24a4,4,0,0,0-1.14,1.94,3.36,3.36,0,0,0-.06,1c0,.28.17.39.45.36a.69.69,0,0,0,.31-.15,4.31,4.31,0,0,1,1.31-.84A5.37,5.37,0,0,0,34,13.37,15.88,15.88,0,0,0,36.41,11a5.35,5.35,0,0,0,.58-.75A.85.85,0,0,0,37,9.37ZM21.43,17.46a15.65,15.65,0,0,0,4.22.26,12.48,12.48,0,0,1-.47-1.29,12.56,12.56,0,0,1-.2-1.37l-.06,0a1.33,1.33,0,0,1-1.81-.53,6.6,6.6,0,0,0-.75-.91.83.83,0,0,0-1.12-.07c.35,0,.46.31.52.59a6.57,6.57,0,0,1,.06,2.21A1.77,1.77,0,0,1,21.43,17.46ZM29.91,6.78a1.72,1.72,0,0,0-1.67,1.4,1.41,1.41,0,0,0,.49,1.48,5.65,5.65,0,0,0,1.08.6,1,1,0,0,0,.8,0,2.19,2.19,0,0,0,1.05-2A2,2,0,0,0,29.91,6.78ZM27.26,9a8.81,8.81,0,0,1-.47.77,1.26,1.26,0,0,1-1.93,0,.24.24,0,0,1-.06-.11,6.43,6.43,0,0,1-.18-1.14A1.23,1.23,0,0,1,26,7.27a1,1,0,0,0-1.33.45,2.65,2.65,0,0,0-.25,1.59,7.47,7.47,0,0,0,1,2.6,2.64,2.64,0,0,0,.31.37,1.37,1.37,0,0,0,.25.15c.29-.38.59-.74.86-1.11a2.49,2.49,0,0,0,.29-.59c.1-.32.17-.65.25-1l.24,0Zm8.53-1.49a1.68,1.68,0,0,0,0-.29,1.62,1.62,0,0,0-1.9-1.14,1.33,1.33,0,0,0-.33.13c.08.11.14.24.22.34a.3.3,0,0,0,.19,0c.09,0,.19,0,.27,0A.9.9,0,0,1,35,7.86c0,.19-.15.38-.2.57s0,.47.14.55.34,0,.51-.25A2.22,2.22,0,0,0,35.79,7.51ZM28.15,6.13l.06,0c.18-.15.42-.27.52-.46a.8.8,0,0,1,1-.5,4,4,0,0,0,1-.11,1.24,1.24,0,0,0-1.52-.21C28.63,5.15,28.17,5.47,28.15,6.13Zm.43,16.08c.17-.33.34-.65.5-1a2.58,2.58,0,0,0,.2-.55.86.86,0,0,0-.13-.81c-.16.29-.32.56-.47.84A1.57,1.57,0,0,0,28.58,22.21ZM31.51,5.08c.39.16.78.34,1.19.49a3.32,3.32,0,0,0,.54.15.2.2,0,0,0,.16-.06.31.31,0,0,0,0-.19,3.83,3.83,0,0,1-.28-.29A.34.34,0,0,0,32.7,5c-.26,0-.36,0-.48-.27,0-.09-.08-.19-.11-.28Zm-3.8,5-.25.56L29,11c.05-.13.09-.22.12-.32a.14.14,0,0,0,0-.13A2.84,2.84,0,0,0,27.71,10ZM33.52,5c.16-.31.16-.51-.05-.62a1.29,1.29,0,0,1-.62-.64c-.42.33-.46.5-.26.88a.24.24,0,0,0,.31.14c.38-.09.39-.09.6.23Zm-2,6.47-1.3-.4-.16.38,1.34.35Zm-1,1.14c.12-.11.24-.2.34-.31A.44.44,0,0,0,31,12.1s0-.16-.05-.16c-.26-.08-.52-.13-.81-.2Zm2.94-9.51a1,1,0,0,0-.15.15c0,.06-.13.15-.11.2a.85.85,0,0,0,.56.59l.1-.49,0,0ZM27.2,11.37l1.19-.21a2.45,2.45,0,0,0-.54-.18c-.45-.11-.45-.11-.64.32C27.2,11.31,27.21,11.33,27.2,11.37Zm2.64-.1.14-.38-.62-.1-.07.25Zm4.27-8.79c-.33.22-.34.31-.12.53Z"/><path d="M9.48,23.44l.29-.26h-1V21.23l.29,0c-.1-.16-.18-.31-.27-.46s0-.4.14-.41.12-.15.12-.25c0-.39,0-.78,0-1.18,0-.21.12-.29.31-.27.48.06.58.09.63.59,0,.21,0,.43.05.68l.29-.26c.17-.14.29-.12.56.08a.28.28,0,0,1,.09.42c-.16.26-.34.5-.52.75l-.11.14c.51-.1,1-.21,1.49-.29a6.11,6.11,0,0,1,.86-.06c.18,0,.24.12.27.26a.75.75,0,0,1,0,.26h1.88c0-.22,0-.43,0-.65s0-.3.26-.31l1.63-.08a.53.53,0,0,0,.21,0L16.7,20c-.15-.08-.17-.22,0-.29a1.52,1.52,0,0,1,.85-.31c.07,0,.15-.06.21-.11a.86.86,0,0,0,.2-.18A.31.31,0,0,0,18,19c0-.25-.07-.49-.08-.74s.06-.44.25-.44.64.06.68.35l.09.59a4,4,0,0,1,.32-.28c.15-.13.29-.1.55.1a.27.27,0,0,1,.09.38,5.33,5.33,0,0,1-.33.55s0,0,0,0a1.26,1.26,0,0,1,1.1.18c.08.05.13.15.2.22a1.92,1.92,0,0,1-.22.18,1.14,1.14,0,0,1-.2.08l1.26.06c.54,0,.55,0,.55.56v1.93a25.65,25.65,0,0,1-4.55.21l0,.25h-7a.48.48,0,0,0-.36.12C10.12,23.52,9.81,23.41,9.48,23.44Zm1.12-.55h6.65a.4.4,0,0,0,.11,0s.11-.07.11-.11c0-.43,0-.86,0-1.29l-.19,0H12.14a.47.47,0,0,0-.17,0,4.44,4.44,0,0,1-1.75.21A2,2,0,0,1,10.6,22.89Zm8.46-.19,3-.18V20.6l-3,.09Zm-.76-2-3.19-.08v.62h2.63v1.41l.56,0Zm-9.25.8v1.39h.74c-.17-.46-.44-.88-.27-1.39Zm.7.38-.05,0c.11.29.23.57.33.86s.15.18.29.12a1.89,1.89,0,0,0-.44-1.2l0,.3ZM11,21.16v.06A2.91,2.91,0,0,0,12.61,21V20.9Zm-.41-1.29c-.24,0-.64.54-.58.81Zm8.35-.34.61-.84C19.26,18.68,18.91,19.17,18.9,19.53Zm-1,.59,0-.05c-.28-.05-.46-.45-.87-.19Zm-8.58,0h.05l.06-1.17h-.1C9.28,19.31,9.28,19.69,9.28,20.08Zm10.34,0,.86-.24C20.18,19.73,20,19.78,19.62,20.12Zm-9.93-.9h0v1h0Zm8.55-.34h0c0-.25,0-.5.05-.75a.61.61,0,0,0,0-.14l-.12.08Zm.35.17h0v-.73h-.08Z"/><path d="M3.05,18.66H4.73L3.79,18c-.22-.16-.23-.27,0-.48s.33-.34.51-.5a.24.24,0,0,1,.15,0,1.14,1.14,0,0,1,.93.55c.16.25.29.51.45.78l.09-.16c.15-.26.29-.52.46-.76A1.08,1.08,0,0,1,7.19,17a.17.17,0,0,1,.13,0c.16.15.31.31.47.49l.14-.16.42.22L8.14,18c-.18-.15-.29-.05-.43,0s-.56.37-.87.57H8.53v4.51H3.05Zm.26.28v3.95H5.4V19.83l-.75,1.52a2,2,0,0,0-.3-.25A2,2,0,0,0,4,21a1.84,1.84,0,0,1,.44-1.12c.24-.33.52-.63.79-1Zm4.28,3L7.35,22c-.28.11-.33.09-.36-.22s0-.63,0-.95a2,2,0,0,0-.71-1.29v3.34h2V19H6.34a5,5,0,0,1,1.14,1.29C7.78,20.78,7.53,21.35,7.59,21.92ZM3.91,17.76a4,4,0,0,0,1.46.82L4.31,17.41Zm3.35-.35L6.19,18.58a4.38,4.38,0,0,0,1.48-.81ZM5.38,19.27l0,0a4.08,4.08,0,0,0-1,1.5l.28.16ZM7.3,21.73c0-.59.2-1.13-.19-1.56Zm-.37-4.37,0,0a1.36,1.36,0,0,0-.64.79Zm-1.64.74,0,0a1.54,1.54,0,0,0-.65-.73l0,0Z"/><path d="M2.63,6.77H4.46A.58.58,0,0,1,5,7.18a.62.62,0,0,1-.27.68.6.6,0,0,1,.35.7.7.7,0,0,1-.77.55H2.63A9.64,9.64,0,0,0,2.63,6.77Zm.59,2h1a.31.31,0,0,0,.34-.33.3.3,0,0,0-.28-.33H3.22Zm0-1.05h1a.24.24,0,0,0,.26-.25c0-.16-.06-.27-.22-.28-.36,0-.72,0-1.09,0Z"/><path d="M9.19,9.11H8.48a.7.7,0,0,0-.06-.23c-.06-.12-.17-.21-.22-.33a.67.67,0,0,0-.89-.39V9.1h-.6a1.54,1.54,0,0,0,0-.31c0-.58,0-1.17,0-1.75a1.08,1.08,0,0,0,0-.27c.59,0,1.2,0,1.81,0a.6.6,0,0,1,.61.63.63.63,0,0,1-.51.7l-.14.05ZM7.28,7.76h1a.31.31,0,0,0,.32-.3.28.28,0,0,0-.26-.32c-.36,0-.72,0-1.08,0Z"/><path d="M15.12,6.78c.57,0,1.13,0,1.69,0a.9.9,0,0,1,.82.66,1.5,1.5,0,0,1,0,1,1,1,0,0,1-1.06.71c-.43,0-.86,0-1.29,0h-.17A8.26,8.26,0,0,0,15.12,6.78Zm.6.35v1.6c.29,0,.56,0,.84,0a.59.59,0,0,0,.59-.53,1.63,1.63,0,0,0,0-.54.59.59,0,0,0-.59-.53C16.28,7.11,16,7.13,15.72,7.13Z"/><path d="M3.2,3.43H4.57V2.52h.6a1.28,1.28,0,0,0,0,.27q0,.9,0,1.8a1.51,1.51,0,0,0,0,.28H4.53a3.22,3.22,0,0,0,.08-1H3.25v1H2.63a1.22,1.22,0,0,0,.06-.26c0-.61,0-1.22,0-1.82a1.51,1.51,0,0,0,0-.28h.63A3.51,3.51,0,0,0,3.2,3.43Z"/><path d="M12.61,7.67H14V6.75h.61a3.84,3.84,0,0,0-.06,1.17,6,6,0,0,0,0,1.19h-.62a4,4,0,0,0,.08-1H12.65v1H12a1.31,1.31,0,0,0,.06-.27V7A1.31,1.31,0,0,0,12,6.75h.64A2.8,2.8,0,0,0,12.61,7.67Z"/><path d="M8.66,2.54c.58,0,1.19,0,1.79,0a.62.62,0,0,1,.59.66.65.65,0,0,1-.59.66,5.31,5.31,0,0,1-.69,0c-.17,0-.34,0-.5,0v1H8.65a1.36,1.36,0,0,0,.06-.29c0-.59,0-1.18,0-1.78A1.09,1.09,0,0,0,8.66,2.54Zm.57,1h1a.28.28,0,0,0,.29-.28c0-.17-.05-.32-.23-.33-.34,0-.69,0-1,0Z"/><path d="M12,3.9v1h-.6a1.57,1.57,0,0,0,.05-.3c0-.58,0-1.17,0-1.75a1.16,1.16,0,0,0-.05-.28c.58,0,1.18,0,1.78,0a.62.62,0,0,1,.6.67.64.64,0,0,1-.6.65c-.32,0-.66,0-1,0A1.2,1.2,0,0,1,12,3.9Zm0-.38h1a.28.28,0,0,0,.3-.31.27.27,0,0,0-.27-.31c-.33,0-.66,0-1,0Z"/><path d="M8.35,4.87H7.57a.41.41,0,0,0-.39-.58H6.51c-.1,0-.21,0-.24.12s-.22.28,0,.48h-.7c.17-.34.34-.68.5-1s.34-.68.49-1a.87.87,0,0,0,0-.3h.68a.91.91,0,0,0,0,.3c.29.61.59,1.21.89,1.8A1.84,1.84,0,0,0,8.35,4.87ZM6.5,3.94h.77l-.38-.85Z"/><path d="M19.81,9.11a.41.41,0,0,0-.37-.59c-.22,0-.45,0-.67,0a.3.3,0,0,0-.24.1c-.06.14-.24.28,0,.48h-.71l.39-.78.6-1.26a.93.93,0,0,0,0-.31h.68a.88.88,0,0,0,0,.29c.29.61.59,1.21.89,1.81a1.84,1.84,0,0,0,.17.25Zm-.68-1.79-.39.86h.78Z"/><path d="M16.37,2.52a11.19,11.19,0,0,1-.72,1,1.51,1.51,0,0,0-.27,1.19c0,.06,0,.11.08.18h-.62a5.07,5.07,0,0,1,0-.55,1,1,0,0,0-.26-.81c-.2-.24-.36-.5-.55-.75-.06-.08-.14-.15-.22-.24h.81a.57.57,0,0,0,0,.27,7.37,7.37,0,0,0,.43.66c.16-.24.33-.46.47-.69,0-.06,0-.15,0-.24Z"/><path d="M21.88,9.11h-.57c0-.43.17-.87-.15-1.26s-.37-.52-.56-.78a4,4,0,0,0-.27-.31h.79a1,1,0,0,0,.07.3c.13.21.27.41.42.62.16-.23.32-.45.46-.68,0-.06,0-.15,0-.24h.74l-.93,1.3a.27.27,0,0,0-.05.11C21.87,8.48,21.87,8.79,21.88,9.11Z"/><path d="M10.24,9.1c0-.07.07-.13.07-.19,0-.59,0-1.17,0-1.78a2.53,2.53,0,0,0-.91.06V6.68a1.14,1.14,0,0,0,.25.06h1.82a1.31,1.31,0,0,0,.27-.06v.48l-.88,0v2Z"/><path d="M6.17,9.11H5.53c0-.1,0-.2,0-.3V7.05c0-.1,0-.2,0-.3h.62A8.87,8.87,0,0,0,6.17,9.11Z"/><path d="M18.5,11.6l.88-.27.29.9-.88.27Z"/><path d="M19.09,4.19l.12-.47.82.2-.12.47Z"/><path d="M30,2.51l-.48-.12.15-.58.47.11Z"/><path d="M2.41,13.71l-.15.58-.47-.1.13-.59Z"/><path d="M25.37,2.83l.51.29-.23.4-.51-.29Z"/><path d="M23.32,5.69l-.23.4-.51-.29.23-.4Z"/><path d="M18.15,15.83l-.23.41L17.41,16l.23-.4Z"/><path d="M12.29,19l.22-.41.52.28-.22.41Z"/><path d="M13,15.43l-.51-.27.22-.41.52.28Z"/><path d="M10.75,12.7l-.23.41L10,12.83l.22-.41Z"/><path d="M9.86,15.72l.52.29-.24.4-.51-.28Z"/><path d="M5.81,11.08l-.23.4-.51-.29.23-.4Z"/><path d="M23.24,11.26l-.12.48-.46-.11.12-.48Z"/><path d="M16.86,4.55l-.44-.11.1-.45C17,4,17.05,4.06,16.86,4.55Z"/><path d="M27.76,3.89l-.45-.22.23-.42.44.23Z"/><path d="M12.23,11.09l.07-.28.24,0-.07.28Z"/><path d="M1.8,17.38l-.06-.23L2,17.07l.08.21Z"/><path d="M3.45,15.24l.07.22-.28.09-.08-.23Z"/><path d="M15.2,13.49,15,13.43l.06-.29.23.06Z"/><path d="M6.32,14.13l-.07.29-.23,0,.06-.28Z"/><path d="M2.67,11l.06.22-.28.09-.07-.23Z"/><path d="M32.42,8.32a.36.36,0,0,1-.36-.38.42.42,0,0,1,.4-.44.36.36,0,0,1,.36.39A.41.41,0,0,1,32.42,8.32Z"/><path d="M29.66,17.78a4.13,4.13,0,0,1,.14-.42c.07-.14.18-.13.27,0a.92.92,0,0,1,0,.87c-.09.12-.2.11-.26,0A4.13,4.13,0,0,1,29.66,17.78Z"/><path d="M30.26,9l-.1,0c-.38.13-.39.13-.6-.2-.1-.15-.18-.18-.32-.08a3.58,3.58,0,0,1-.34.17l-.17-.29c.13,0,.26,0,.35,0a.57.57,0,0,0,.3-.83,2,2,0,0,0-.08-.22.25.25,0,0,1,.3-.34c.24.06.48.13.71.21a.22.22,0,0,1,.09.16.2.2,0,0,1-.1.15c-.16.08-.32.13-.49.2a.47.47,0,0,0-.29.54,1.73,1.73,0,0,0,.21.34c.1.16.23.07.36.06l.18,0Z"/><path d="M26,12.91a5.33,5.33,0,0,1-.6-.7,7.63,7.63,0,0,1-1-2.55,2.88,2.88,0,0,1,.21-1.76,1.29,1.29,0,0,1,2.21-.31.79.79,0,0,1,.08.22l.43.48c0-.13.05-.25.07-.36A3.33,3.33,0,0,1,28,6.79a.58.58,0,0,0,.09-.28,1.45,1.45,0,0,1,.61-1.31,2.17,2.17,0,0,1,1.58-.51,1.46,1.46,0,0,1,1,.61L34.7,1.81l.06.05L33.84,6A2,2,0,0,1,36,6.77a2,2,0,0,1,0,2.21,4.62,4.62,0,0,1,.64-.06,1.08,1.08,0,0,1,1,1.45,1.71,1.71,0,0,1-.29.53,19.27,19.27,0,0,1-2.86,2.85,3.93,3.93,0,0,1-1.21.65l-.1,0a.69.69,0,0,0-.55.66,13.27,13.27,0,0,1-.4,1.85,3.7,3.7,0,0,1-.33.66.45.45,0,0,0,0,.23c.14.87.32,1.74.43,2.62a5.44,5.44,0,0,1,0,1.56,2.24,2.24,0,0,1-2.27,1.65,2,2,0,0,1-1.25-3A5.77,5.77,0,0,0,29,20a.23.23,0,0,0-.08-.29,1.06,1.06,0,0,1-.28-.32.4.4,0,0,0-.44-.25,3.21,3.21,0,0,1-1.93-.8.66.66,0,0,0-.49-.14,15.79,15.79,0,0,1-1.82,0c-.78-.05-1.57-.14-2.35-.25a1.56,1.56,0,0,1-1.37-1.38A3.53,3.53,0,0,1,21,13.85a1.19,1.19,0,0,1,1.89-.12,6.49,6.49,0,0,1,.73.93,1.1,1.1,0,0,0,1.61.28.21.21,0,0,0,.09-.13A5.22,5.22,0,0,1,26,12.91Zm2.47,6a1.61,1.61,0,0,1,.23-1,4.48,4.48,0,0,1,1.49-1.51.68.68,0,0,1,1.1.24c.13.22.22.45.35.71a7.37,7.37,0,0,0,.63-2.45c-.17.14-.28.25-.4.34a.66.66,0,0,1-1.11-.39,2.87,2.87,0,0,1,0-1,8.66,8.66,0,0,1,.39-1.15c-.18,0-.17.24-.25.36a.36.36,0,0,1-.18.15c-.05,0-.13-.07-.17-.13a1.55,1.55,0,0,1-.12-.22,5.06,5.06,0,0,0-.59-1.1,1,1,0,0,0-.79-.28,8.37,8.37,0,0,1-1.09.21,1.79,1.79,0,0,0-1.26.66,4.49,4.49,0,0,0-.65,5.35.92.92,0,0,0,.19.25,3.46,3.46,0,0,0,1.26.76A9.59,9.59,0,0,0,28.49,18.94Zm3.71-7.45c.22-.19.45-.43.71-.62.61-.43,1.23-.84,1.85-1.26.11-.07.24-.13.11-.27a.79.79,0,0,1-.12-.92.76.76,0,0,0-.06-.76c-.11-.17-.23-.34-.35-.5a.18.18,0,0,0-.15-.09c-.39,0-.57-.21-.7-.5a.54.54,0,0,0-.28-.31,3,3,0,0,0-.41-.17,9.4,9.4,0,0,1-1-.39,1.58,1.58,0,0,0-.88-.14,4.39,4.39,0,0,0-2.35,1,2.2,2.2,0,0,0-.38,3.3c.17.2.4.21.62.3a5.9,5.9,0,0,1-.47-.61,2.07,2.07,0,0,1,.21-2.12,1.23,1.23,0,0,0,.14-.25.45.45,0,0,1,.55-.29l.08,0a1.89,1.89,0,0,1,2.15.4,1.61,1.61,0,0,1,.64,1.61,2.24,2.24,0,0,1-1.32,1.81,1.11,1.11,0,0,1-.25,0l-.26,0v.06a2.24,2.24,0,0,0,.36.14l1.26.34A2.2,2.2,0,0,1,32.2,11.49ZM29,22.68l-.06.05a2.46,2.46,0,0,0,.34.22,2,2,0,0,0,2-.25A1.42,1.42,0,0,0,32,21.17c-.17-1.1-.3-2.21-.51-3.3A4.29,4.29,0,0,0,31,16.7c-.15-.28-.33-.28-.6-.11A4.39,4.39,0,0,0,29,18a1.11,1.11,0,0,0,.31,1.7,1,1,0,0,1,.44,1.1,7.91,7.91,0,0,1-.39,1.06l-.28.66Zm8.2-13.11c-.26.22-.52.42-.76.63a2.51,2.51,0,0,1-2.51.39.28.28,0,0,0-.24,0,18.82,18.82,0,0,0-1.44,1.24,3.93,3.93,0,0,0-1.14,1.94,3.31,3.31,0,0,0-.06.94c0,.29.17.4.45.37A.62.62,0,0,0,31.8,15a4.17,4.17,0,0,1,1.31-.83,4.64,4.64,0,0,0,1-.57,15.44,15.44,0,0,0,2.45-2.33,5.11,5.11,0,0,0,.57-.75A.81.81,0,0,0,37.19,9.57ZM21.63,17.66a15.65,15.65,0,0,0,4.22.26,11.84,11.84,0,0,1-.47-1.3,10.13,10.13,0,0,1-.2-1.36l-.06,0a1.34,1.34,0,0,1-1.82-.53,5.45,5.45,0,0,0-.74-.91.83.83,0,0,0-1.12-.07c.35.05.46.31.52.59A6.56,6.56,0,0,1,22,16.57,1.77,1.77,0,0,1,21.63,17.66ZM30.11,7a1.72,1.72,0,0,0-1.67,1.4,1.37,1.37,0,0,0,.49,1.47,5.38,5.38,0,0,0,1.07.61,1,1,0,0,0,.81,0,2.21,2.21,0,0,0,1.05-2A2,2,0,0,0,30.11,7ZM27.46,9.2A8.09,8.09,0,0,1,27,10a1.25,1.25,0,0,1-1.92,0A.24.24,0,0,1,25,9.88a6.43,6.43,0,0,1-.18-1.14,1.23,1.23,0,0,1,1.41-1.27,1,1,0,0,0-1.33.45,2.51,2.51,0,0,0-.25,1.59,7.55,7.55,0,0,0,1,2.6,2.64,2.64,0,0,0,.31.37,1.67,1.67,0,0,0,.24.15c.3-.38.6-.74.87-1.11a2.49,2.49,0,0,0,.29-.59c.1-.32.17-.66.25-1l.24,0ZM36,7.71c0-.08,0-.19,0-.29a1.62,1.62,0,0,0-1.91-1.14,1.44,1.44,0,0,0-.32.13,4,4,0,0,0,.22.34.3.3,0,0,0,.19,0c.09,0,.18,0,.27,0a.91.91,0,0,1,.76,1.27c-.06.19-.15.37-.2.57s0,.47.13.55.35,0,.51-.25A2.23,2.23,0,0,0,36,7.71ZM28.35,6.33l.06,0c.17-.15.41-.27.52-.46a.8.8,0,0,1,1-.5,4,4,0,0,0,1-.11,1.25,1.25,0,0,0-1.52-.21C28.83,5.35,28.37,5.66,28.35,6.33Zm.43,16.08c.17-.33.34-.65.5-1a2.79,2.79,0,0,0,.2-.55.86.86,0,0,0-.13-.81c-.16.29-.32.56-.48.84A1.59,1.59,0,0,0,28.78,22.41ZM31.71,5.28c.39.16.78.34,1.19.49a2.52,2.52,0,0,0,.54.14c.05,0,.15,0,.15,0a.22.22,0,0,0,0-.19c-.08-.1-.19-.18-.27-.29a.34.34,0,0,0-.38-.15c-.27,0-.36,0-.48-.27,0-.1-.08-.2-.12-.28Zm-3.8,5-.25.56,1.54.39a2.56,2.56,0,0,0,.12-.32.13.13,0,0,0,0-.12A2.74,2.74,0,0,0,27.91,10.24Zm5.81-5.06c.16-.31.16-.51,0-.62a1.27,1.27,0,0,1-.62-.65c-.42.34-.46.5-.26.88a.24.24,0,0,0,.3.15c.39-.09.39-.09.61.23Zm-2,6.47-1.29-.4-.17.38,1.35.35Zm-1,1.14c.12-.11.24-.2.34-.31a.41.41,0,0,0,.13-.19s0-.15-.06-.16c-.25-.07-.51-.13-.8-.19Zm2.94-9.52a2.11,2.11,0,0,0-.15.15c-.05.07-.13.16-.11.21a.87.87,0,0,0,.56.59l.1-.49,0,0Zm-6.27,8.3,1.18-.21a2.21,2.21,0,0,0-.53-.18c-.45-.12-.45-.11-.64.32C27.4,11.51,27.4,11.52,27.4,11.57Zm2.64-.1.14-.38-.62-.1-.07.25ZM34.3,2.68c-.32.21-.34.31-.11.52Z"/><path d="M9.68,23.64l.29-.27H9V21.43l.29,0c-.1-.16-.19-.31-.27-.46s0-.4.13-.42.13-.14.13-.24c0-.39,0-.78,0-1.18,0-.21.12-.29.31-.27.48.06.58.08.63.59,0,.21,0,.43,0,.68l.29-.26c.17-.14.29-.12.56.08a.28.28,0,0,1,.09.42c-.16.26-.35.5-.52.74l-.11.15c.51-.1,1-.21,1.49-.29a8.09,8.09,0,0,1,.86-.07c.18,0,.24.13.27.27a1.11,1.11,0,0,1,0,.26H15c0-.22,0-.44,0-.65s.06-.31.27-.31l1.63-.08a.41.41,0,0,0,.21,0l-.23-.09c-.14-.08-.17-.22,0-.29a1.49,1.49,0,0,1,.85-.31c.07,0,.14-.07.21-.11a1.71,1.71,0,0,0,.2-.18.24.24,0,0,0,.06-.17c0-.25-.06-.49-.07-.74s.06-.44.25-.44.64.06.68.35.06.38.09.59a4,4,0,0,1,.32-.28c.15-.13.28-.1.55.09a.28.28,0,0,1,.09.39c-.1.19-.21.36-.33.55,0,0,0,0,0,0a1.26,1.26,0,0,1,1.1.18c.08.05.13.15.2.22l-.22.18a1.14,1.14,0,0,1-.2.08l1.26.06c.54,0,.55,0,.55.56v1.93a26.68,26.68,0,0,1-4.55.21l0,.25h-7a.46.46,0,0,0-.37.12C10.31,23.72,10,23.61,9.68,23.64Zm1.12-.55h6.75c.05,0,.12-.08.12-.11,0-.43,0-.86,0-1.3H12.33a.44.44,0,0,0-.16,0,4.28,4.28,0,0,1-1.75.2A2.05,2.05,0,0,1,10.8,23.09Zm8.46-.19,2.95-.18V20.8l-2.95.09Zm-.77-2-3.18-.08v.62h2.63v1.41l.55,0Zm-9.24.8v1.39H10c-.17-.46-.45-.88-.27-1.39Zm.7.38,0,0c.11.29.23.57.33.86s.14.18.29.12a1.9,1.9,0,0,0-.45-1.2l0,.3Zm1.2-.71v.06a2.93,2.93,0,0,0,1.65-.25V21.1Zm-.4-1.29c-.24,0-.64.54-.58.81Zm8.35-.34.6-.84C19.45,18.88,19.1,19.37,19.1,19.73Zm-1,.59v-.05c-.28-.05-.46-.45-.87-.19Zm-8.58,0h0l.06-1.17h-.1C9.48,19.51,9.48,19.89,9.48,20.28Zm10.33,0,.87-.24C20.38,19.93,20.2,20,19.81,20.32Zm-9.92-.9H9.84v1h.05Zm8.55-.34h0c0-.24,0-.49.05-.74a.76.76,0,0,0,0-.15l-.13.09Zm.34.17h0v-.72h-.07Z"/><path d="M3.24,18.85H4.93c-.34-.22-.64-.41-.94-.62s-.23-.27,0-.48.33-.34.51-.5a.24.24,0,0,1,.15,0,1.09,1.09,0,0,1,.92.55c.17.25.3.51.46.78l.09-.17c.15-.25.29-.51.46-.75a1.1,1.1,0,0,1,.85-.42.24.24,0,0,1,.13.05l.47.49.14-.15.42.22-.21.42c-.18-.15-.29-.05-.43.05s-.56.37-.87.57H8.73v4.51H3.24Zm.26.29v3.94H5.59V20l-.74,1.52a1.62,1.62,0,0,0-.31-.25,1.74,1.74,0,0,0-.36-.08,1.83,1.83,0,0,1,.43-1.12c.25-.33.53-.63.8-1Zm4.28,3-.23.09c-.28.11-.33.09-.36-.22s0-.63-.05-.95a2.07,2.07,0,0,0-.71-1.3v3.35h2V19.15H6.54a5.34,5.34,0,0,1,1.14,1.29C8,21,7.73,21.55,7.78,22.12ZM4.11,18a3.85,3.85,0,0,0,1.46.81L4.51,17.61Zm3.35-.35L6.39,18.78A4.66,4.66,0,0,0,7.87,18ZM5.57,19.47l0,0a3.85,3.85,0,0,0-1,1.5l.28.16ZM7.5,21.93c0-.59.2-1.13-.19-1.56Zm-.37-4.37,0,0a1.33,1.33,0,0,0-.64.79Zm-1.64.74,0-.05a1.57,1.57,0,0,0-.65-.72l0,0Z"/><path d="M2.83,7H4.66a.55.55,0,0,1,.55.41c.08.25,0,.45-.26.68a.6.6,0,0,1,.35.7.7.7,0,0,1-.77.55H2.83A9.64,9.64,0,0,0,2.83,7Zm.59,2h1a.32.32,0,0,0,.34-.33.3.3,0,0,0-.29-.33H3.42Zm0-1.06h1a.24.24,0,0,0,.26-.25c0-.16-.06-.28-.22-.28-.36,0-.72,0-1.09,0Z"/><path d="M9.39,9.31H8.68a1.09,1.09,0,0,0-.06-.23,3.15,3.15,0,0,1-.22-.33.68.68,0,0,0-.89-.39V9.3h-.6A1.54,1.54,0,0,0,7,9c0-.58,0-1.17,0-1.76a1.09,1.09,0,0,0,0-.26c.59,0,1.2,0,1.8,0a.61.61,0,0,1,.62.63.63.63,0,0,1-.51.7l-.14,0ZM7.48,8h1a.3.3,0,0,0,.31-.3.28.28,0,0,0-.26-.33H7.48Z"/><path d="M15.32,7c.56,0,1.13,0,1.69,0a.89.89,0,0,1,.82.66,1.5,1.5,0,0,1,0,1,1,1,0,0,1-1.06.71H15.32A8.65,8.65,0,0,0,15.32,7Zm.6.35v1.6h.83a.6.6,0,0,0,.6-.53,1.63,1.63,0,0,0,0-.54.6.6,0,0,0-.6-.53C16.48,7.31,16.21,7.33,15.92,7.33Z"/><path d="M3.4,3.63H4.76V2.72h.61a1.28,1.28,0,0,0,0,.27q0,.9,0,1.8a1.51,1.51,0,0,0,0,.28H4.73c.15-.33,0-.68.08-1H3.45v1H2.83a1.31,1.31,0,0,0,.06-.27c0-.6,0-1.21,0-1.81a1.4,1.4,0,0,0-.06-.28h.64A3.51,3.51,0,0,0,3.4,3.63Z"/><path d="M12.81,7.87h1.36V7h.61a3.82,3.82,0,0,0-.06,1.17,6,6,0,0,0,0,1.19h-.62a3.6,3.6,0,0,0,.07-1H12.85v1h-.61A1.1,1.1,0,0,0,12.3,9V7.22A1.31,1.31,0,0,0,12.24,7h.64A2.8,2.8,0,0,0,12.81,7.87Z"/><path d="M8.86,2.74c.58,0,1.19,0,1.79,0a.6.6,0,0,1,.58.66.64.64,0,0,1-.58.66c-.23,0-.46,0-.7,0s-.33,0-.49,0v1H8.85a1.5,1.5,0,0,0,.06-.29V3A2,2,0,0,0,8.86,2.74Zm.57,1h1a.28.28,0,0,0,.29-.28c0-.17,0-.32-.23-.33-.34,0-.69,0-1,0Z"/><path d="M12.17,4.1v1h-.6a1.57,1.57,0,0,0,0-.3c0-.58,0-1.17,0-1.75a1.16,1.16,0,0,0,0-.28c.57,0,1.18,0,1.78,0a.61.61,0,0,1,.59.66.63.63,0,0,1-.59.66c-.33,0-.66,0-1,0Zm0-.38h1a.28.28,0,0,0,.3-.31c0-.19-.09-.31-.27-.31-.33,0-.66,0-1,0Z"/><path d="M8.55,5.07H7.77a.42.42,0,0,0-.39-.59H6.7c-.1,0-.2,0-.23.12s-.22.28,0,.48h-.7c.16-.34.34-.68.5-1s.34-.68.49-1a1.21,1.21,0,0,0,0-.3h.68a.91.91,0,0,0,0,.3c.29.61.59,1.21.88,1.8A2,2,0,0,0,8.55,5.07ZM6.7,4.13h.77l-.39-.84Z"/><path d="M20,9.3a.41.41,0,0,0-.37-.58H19c-.08,0-.2,0-.23.11s-.24.28-.05.48H18l.39-.78c.2-.42.4-.83.59-1.26A.91.91,0,0,0,19,7h.68a1.2,1.2,0,0,0,0,.28l.9,1.82a1.31,1.31,0,0,0,.17.24Zm-.68-1.78-.39.86h.78Z"/><path d="M16.57,2.72a11.31,11.31,0,0,1-.73,1,1.55,1.55,0,0,0-.26,1.19c0,.06.05.11.08.18H15a5.07,5.07,0,0,1,0-.55,1,1,0,0,0-.26-.81c-.2-.24-.37-.5-.55-.75A2.4,2.4,0,0,0,14,2.72h.8a1,1,0,0,0,.05.27c.13.22.28.43.44.66.16-.24.32-.46.47-.7,0-.05,0-.15,0-.23Z"/><path d="M22.08,9.31h-.57c0-.43.17-.87-.15-1.27-.2-.24-.37-.51-.56-.77-.08-.11-.18-.21-.27-.32h.79a.88.88,0,0,0,.07.3c.13.22.27.41.42.63.16-.23.32-.45.46-.68,0-.06,0-.15,0-.24H23l-.93,1.3a.16.16,0,0,0-.05.11C22.06,8.68,22.07,9,22.08,9.31Z"/><path d="M10.44,9.3c0-.07.07-.13.07-.19V7.33a2.53,2.53,0,0,0-.91.06V6.88a1.14,1.14,0,0,0,.25.06h1.82a.9.9,0,0,0,.27-.07v.49l-.88-.05v2Z"/><path d="M6.37,9.31H5.72a1.71,1.71,0,0,0,0-.3c0-.59,0-1.17,0-1.76a1.57,1.57,0,0,0,0-.3h.63A8.87,8.87,0,0,0,6.37,9.31Z"/><path d="M18.7,11.79l.88-.27.29.91L19,12.7Z"/><path d="M19.29,4.39l.12-.47.82.2-.12.47Z"/><path d="M30.22,2.71l-.47-.12L29.89,2l.48.11Z"/><path d="M2.6,13.9l-.14.59L2,14.39l.13-.59Z"/><path d="M25.57,3l.51.28-.23.41-.52-.29Z"/><path d="M23.52,5.88l-.23.4L22.78,6,23,5.6Z"/><path d="M18.35,16l-.23.41-.51-.29.23-.41Z"/><path d="M12.49,19.16l.22-.41.52.28-.22.41Z"/><path d="M13.19,15.63l-.51-.28.22-.4.52.27Z"/><path d="M11,12.9l-.23.41L10.21,13l.22-.41Z"/><path d="M10.06,15.92l.52.29-.24.4-.51-.29Z"/><path d="M6,11.28l-.23.4-.51-.29L5.5,11Z"/><path d="M23.44,11.46l-.12.48-.46-.11.12-.48Z"/><path d="M17.06,4.75l-.44-.11.1-.45C17.2,4.18,17.25,4.26,17.06,4.75Z"/><path d="M28,4.09l-.45-.22.23-.42.43.22Z"/><path d="M12.43,11.29l.06-.28.24,0-.06.28Z"/><path d="M2,17.58l-.05-.23.27-.09.08.22Z"/><path d="M3.65,15.44l.07.22-.28.09-.08-.23Z"/><path d="M15.4,13.68l-.23,0,.06-.29.24.06Z"/><path d="M6.51,14.33l-.06.29-.24,0,.06-.27Z"/><path d="M2.87,11.17l.06.22-.29.09-.06-.23Z"/><path d="M32.62,8.52a.37.37,0,0,1-.36-.39.42.42,0,0,1,.4-.43.36.36,0,0,1,.36.39A.41.41,0,0,1,32.62,8.52Z"/><path d="M29.86,18a3.44,3.44,0,0,1,.14-.42c.07-.14.17-.13.27,0a.92.92,0,0,1,0,.87c-.09.12-.2.11-.26,0A3,3,0,0,1,29.86,18Z"/><path d="M30.45,9.21l-.09,0c-.38.12-.39.13-.61-.21-.09-.14-.17-.17-.31-.07s-.22.1-.34.17l-.18-.3c.14,0,.27.06.36,0a.56.56,0,0,0,.3-.82c0-.07,0-.15-.08-.22a.25.25,0,0,1,.3-.34c.24.06.47.13.71.21a.18.18,0,0,1,.08.16A.19.19,0,0,1,30.5,8l-.49.2a.46.46,0,0,0-.29.54,2.09,2.09,0,0,0,.21.34c.1.16.23.07.36.06a.47.47,0,0,1,.17,0Z"/></g><g class="cls-3"><path d="M25.68,12.57a5.33,5.33,0,0,1-.6-.7,7.63,7.63,0,0,1-1-2.55,2.88,2.88,0,0,1,.21-1.76,1.29,1.29,0,0,1,2.21-.31.79.79,0,0,1,.08.22L27,8c0-.13.05-.25.07-.36a3.33,3.33,0,0,1,.58-1.14.58.58,0,0,0,.09-.28,1.45,1.45,0,0,1,.61-1.31,2.17,2.17,0,0,1,1.58-.51,1.46,1.46,0,0,1,1,.61l3.46-3.49.06.05L33.5,5.7a2,2,0,0,1,2.11.73,2,2,0,0,1,0,2.21,4.62,4.62,0,0,1,.64-.06,1.08,1.08,0,0,1,1,1.45,1.71,1.71,0,0,1-.29.53A19.27,19.27,0,0,1,34,13.41a3.93,3.93,0,0,1-1.21.65l-.1,0a.69.69,0,0,0-.55.66,13.27,13.27,0,0,1-.4,1.85,3.7,3.7,0,0,1-.33.66.43.43,0,0,0,0,.23c.14.87.32,1.74.43,2.62a5.44,5.44,0,0,1,0,1.56,2.24,2.24,0,0,1-2.27,1.65,2,2,0,0,1-1.25-3,5.77,5.77,0,0,0,.36-.7.23.23,0,0,0-.08-.29,1.06,1.06,0,0,1-.28-.32.4.4,0,0,0-.44-.25A3.21,3.21,0,0,1,26,18a.66.66,0,0,0-.49-.14,15.79,15.79,0,0,1-1.82,0c-.78-.05-1.57-.14-2.35-.25a1.56,1.56,0,0,1-1.37-1.38,3.53,3.53,0,0,1,.67-2.72,1.19,1.19,0,0,1,1.89-.12,6.49,6.49,0,0,1,.73.93,1.1,1.1,0,0,0,1.61.28.21.21,0,0,0,.09-.13A5.22,5.22,0,0,1,25.68,12.57Zm2.47,6a1.61,1.61,0,0,1,.23-1,4.48,4.48,0,0,1,1.49-1.51.68.68,0,0,1,1.1.24,7.85,7.85,0,0,1,.34.71A7.15,7.15,0,0,0,32,14.56c-.17.14-.28.25-.4.34a.66.66,0,0,1-1.11-.39,2.87,2.87,0,0,1,0-1,8.66,8.66,0,0,1,.39-1.15c-.18,0-.17.24-.26.36a.3.3,0,0,1-.17.15c-.05,0-.13-.07-.17-.13a1.55,1.55,0,0,1-.12-.22,5.06,5.06,0,0,0-.59-1.1,1,1,0,0,0-.79-.28,8.21,8.21,0,0,1-1.1.21,1.79,1.79,0,0,0-1.25.66,4.49,4.49,0,0,0-.65,5.35.92.92,0,0,0,.19.25,3.46,3.46,0,0,0,1.26.76A9.59,9.59,0,0,0,28.15,18.6Zm3.71-7.45c.22-.19.45-.43.71-.62.61-.43,1.23-.84,1.85-1.26.11-.07.24-.13.11-.27a.78.78,0,0,1-.12-.92.76.76,0,0,0-.06-.76c-.11-.17-.23-.34-.35-.5a.18.18,0,0,0-.15-.09c-.39,0-.57-.21-.7-.5a.54.54,0,0,0-.28-.31,3,3,0,0,0-.41-.17,9.4,9.4,0,0,1-1-.39,1.58,1.58,0,0,0-.88-.14,4.39,4.39,0,0,0-2.35,1,2.2,2.2,0,0,0-.38,3.3c.17.2.39.21.62.3A5.9,5.9,0,0,1,28,9.23a2.07,2.07,0,0,1,.21-2.12,1.23,1.23,0,0,0,.14-.25.45.45,0,0,1,.55-.29l.08,0a1.89,1.89,0,0,1,2.15.4,1.61,1.61,0,0,1,.64,1.61,2.24,2.24,0,0,1-1.32,1.81,1.11,1.11,0,0,1-.25.05l-.26,0v.06a2.24,2.24,0,0,0,.36.14l1.26.34A2.2,2.2,0,0,1,31.86,11.15ZM28.64,22.34l-.05.05a2.46,2.46,0,0,0,.34.22,2,2,0,0,0,2-.25,1.42,1.42,0,0,0,.71-1.53c-.17-1.1-.3-2.21-.51-3.3a4.29,4.29,0,0,0-.45-1.17c-.15-.28-.33-.28-.6-.11a4.39,4.39,0,0,0-1.41,1.37,1.11,1.11,0,0,0,.31,1.7,1,1,0,0,1,.44,1.1A7.91,7.91,0,0,1,29,21.48l-.28.66A1.28,1.28,0,0,1,28.64,22.34ZM36.85,9.23c-.26.22-.52.42-.76.63a2.51,2.51,0,0,1-2.51.39.28.28,0,0,0-.24,0,18.82,18.82,0,0,0-1.44,1.24,3.93,3.93,0,0,0-1.14,1.94,3.31,3.31,0,0,0-.06.94c0,.29.17.4.45.37a.62.62,0,0,0,.31-.16,4.17,4.17,0,0,1,1.31-.83,4.64,4.64,0,0,0,1-.57,15.88,15.88,0,0,0,2.45-2.33,5.11,5.11,0,0,0,.57-.75A.81.81,0,0,0,36.85,9.23ZM21.29,17.32a15.65,15.65,0,0,0,4.22.26,11.84,11.84,0,0,1-.47-1.3,10.13,10.13,0,0,1-.2-1.36l-.06,0A1.34,1.34,0,0,1,23,14.41a5.45,5.45,0,0,0-.74-.91.83.83,0,0,0-1.12-.07c.35.05.46.31.52.59a6.56,6.56,0,0,1,.06,2.21A1.77,1.77,0,0,1,21.29,17.32ZM29.77,6.64A1.72,1.72,0,0,0,28.1,8a1.37,1.37,0,0,0,.49,1.47,5.38,5.38,0,0,0,1.07.61,1,1,0,0,0,.81,0,2.21,2.21,0,0,0,1.05-2A2,2,0,0,0,29.77,6.64ZM27.12,8.86a8.09,8.09,0,0,1-.48.77,1.25,1.25,0,0,1-1.92,0,.24.24,0,0,1-.06-.11,7.53,7.53,0,0,1-.19-1.14,1.24,1.24,0,0,1,1.42-1.27,1,1,0,0,0-1.33.45,2.51,2.51,0,0,0-.25,1.59,7.55,7.55,0,0,0,1,2.6,2.64,2.64,0,0,0,.31.37,1.67,1.67,0,0,0,.24.15c.3-.38.6-.74.87-1.12a2.25,2.25,0,0,0,.29-.58c.1-.32.17-.66.25-1l.24,0Zm8.53-1.49c0-.08,0-.19,0-.29a1.62,1.62,0,0,0-1.91-1.14,1.44,1.44,0,0,0-.32.13,4,4,0,0,0,.22.34.3.3,0,0,0,.19,0c.09,0,.18,0,.27,0a.9.9,0,0,1,.76,1.26c-.06.2-.15.38-.2.58s0,.47.13.55.35,0,.51-.25A2.23,2.23,0,0,0,35.65,7.37ZM28,6l.06,0c.17-.15.41-.27.52-.46a.8.8,0,0,1,1-.5,4.48,4.48,0,0,0,1-.11A1.25,1.25,0,0,0,29,4.76C28.49,5,28,5.32,28,6Zm.43,16.08c.17-.33.34-.65.5-1a2.79,2.79,0,0,0,.2-.55.86.86,0,0,0-.13-.81l-.48.84A1.59,1.59,0,0,0,28.44,22.07ZM31.37,4.94c.39.16.78.34,1.19.49a2.52,2.52,0,0,0,.54.14s.14,0,.15-.05a.22.22,0,0,0,0-.19c-.08-.1-.19-.18-.27-.29a.34.34,0,0,0-.38-.15c-.27.05-.36,0-.48-.27,0-.1-.08-.2-.12-.28Zm-3.8,5-.25.56,1.54.39a2.56,2.56,0,0,0,.12-.32.17.17,0,0,0,0-.12A2.74,2.74,0,0,0,27.57,9.9Zm5.81-5.06c.16-.31.16-.51-.05-.62a1.27,1.27,0,0,1-.62-.65c-.42.34-.46.5-.26.88a.24.24,0,0,0,.3.15c.39-.09.39-.09.61.23Zm-2,6.47-1.29-.4-.17.38,1.35.35Zm-1,1.14c.12-.11.24-.2.34-.31a.41.41,0,0,0,.13-.19s0-.15-.06-.16c-.25-.07-.51-.13-.8-.19Zm2.94-9.52a2.11,2.11,0,0,0-.15.15c0,.07-.13.16-.11.21a.87.87,0,0,0,.56.59l.1-.49,0,0Zm-6.27,8.3L28.24,11a2.21,2.21,0,0,0-.53-.18c-.45-.12-.45-.11-.64.32C27.06,11.17,27.06,11.18,27.06,11.23Zm2.64-.1.14-.38-.62-.1-.07.25ZM34,2.34c-.32.21-.34.31-.11.52Z"/><path d="M9.34,23.3,9.63,23h-1V21.09l.29,0c-.1-.16-.19-.31-.27-.46s0-.4.13-.42.13-.14.13-.24c0-.39,0-.78,0-1.18,0-.21.12-.29.31-.27.48.06.58.08.63.59,0,.21,0,.43,0,.68l.29-.26c.17-.14.29-.12.56.08a.28.28,0,0,1,.09.42c-.16.26-.35.5-.52.74l-.11.15c.51-.1,1-.21,1.49-.29a8.09,8.09,0,0,1,.86-.07c.18,0,.24.13.27.27a1.11,1.11,0,0,1,0,.26h1.88c0-.22,0-.44,0-.65s.06-.31.27-.31L16.57,20a.41.41,0,0,0,.21,0l-.23-.09c-.14-.08-.17-.22,0-.29a1.49,1.49,0,0,1,.85-.31c.07,0,.14-.07.21-.11a1.71,1.71,0,0,0,.2-.18.24.24,0,0,0,.06-.17c0-.25-.06-.49-.07-.74s.06-.44.25-.44.64.06.68.35.06.38.09.59a4,4,0,0,1,.32-.28c.15-.13.28-.1.55.09a.28.28,0,0,1,.09.39c-.1.19-.21.36-.33.55,0,0,0,0,0,0a1.26,1.26,0,0,1,1.1.18c.08.05.13.15.2.22l-.22.18a1.14,1.14,0,0,1-.2.08l1.26.06c.54,0,.55,0,.55.56v1.93a26.68,26.68,0,0,1-4.55.21l0,.25h-7a.46.46,0,0,0-.37.12C10,23.38,9.67,23.27,9.34,23.3Zm1.12-.55h6.75c.05,0,.12-.08.12-.11,0-.43,0-.86,0-1.3H12a.44.44,0,0,0-.16,0,4.28,4.28,0,0,1-1.75.2A2.05,2.05,0,0,1,10.46,22.75Zm8.46-.19,2.95-.18V20.46l-2.95.09Zm-.77-2L15,20.47v.61H17.6V22.5l.55,0Zm-9.24.8v1.39h.74c-.17-.46-.45-.88-.27-1.39Zm.7.38,0,0c.11.29.23.57.33.86s.14.18.29.12a1.9,1.9,0,0,0-.45-1.2l0,.3Zm1.2-.71v.06a2.93,2.93,0,0,0,1.65-.25v-.07Zm-.4-1.29c-.24,0-.64.54-.58.81Zm8.35-.34.6-.84C19.11,18.54,18.76,19,18.76,19.39Zm-1,.59v-.05c-.28-.05-.46-.45-.87-.19Zm-8.58,0h0l.06-1.17h-.1C9.14,19.17,9.14,19.55,9.14,19.94Zm10.33,0,.87-.24C20,19.59,19.86,19.64,19.47,20Zm-9.92-.9H9.5v1h.05Zm8.55-.34h0c0-.24,0-.49.05-.74a.76.76,0,0,0,0-.15l-.13.09Zm.34.17h0v-.72H18.4Z"/><path d="M2.9,18.51H4.59c-.34-.22-.64-.41-.94-.62s-.23-.27,0-.48.33-.34.51-.5a.24.24,0,0,1,.15,0,1.09,1.09,0,0,1,.92.55c.17.25.3.51.46.78L5.74,18c.15-.25.29-.51.46-.75A1.1,1.1,0,0,1,7,16.86a.24.24,0,0,1,.14.05l.47.49.14-.15.42.22L8,17.89c-.18-.15-.29-.05-.43.05s-.56.37-.87.57H8.39V23H2.9Zm.26.29v3.94H5.25v-3l-.74,1.52A1.62,1.62,0,0,0,4.2,21a1.74,1.74,0,0,0-.36-.08,1.83,1.83,0,0,1,.43-1.12c.25-.33.53-.63.8-1Zm4.28,3-.23.09c-.28.11-.33.09-.36-.22s0-.63,0-.95a2.07,2.07,0,0,0-.71-1.3v3.35h2V18.81H6.2A5.34,5.34,0,0,1,7.34,20.1C7.64,20.64,7.39,21.21,7.44,21.78ZM3.77,17.62a3.85,3.85,0,0,0,1.46.81L4.17,17.27Zm3.35-.35L6.05,18.44a4.66,4.66,0,0,0,1.48-.81ZM5.23,19.13l0,0a3.85,3.85,0,0,0-1.05,1.5l.28.16Zm1.93,2.46c0-.59.2-1.13-.19-1.56Zm-.37-4.37,0,0a1.38,1.38,0,0,0-.64.8ZM5.15,18l0-.05a1.57,1.57,0,0,0-.65-.72l0,0Z"/><path d="M2.49,6.63H4.32A.54.54,0,0,1,4.87,7c.08.25,0,.45-.26.68a.6.6,0,0,1,.35.7A.7.7,0,0,1,4.19,9H2.49A9.64,9.64,0,0,0,2.49,6.63Zm.59,2h1a.32.32,0,0,0,.34-.33.3.3,0,0,0-.29-.33H3.08Zm0-1.06H4.12a.24.24,0,0,0,.26-.25c0-.16-.06-.28-.22-.28C3.8,7,3.44,7,3.07,7Z"/><path d="M9.05,9H8.34a1.09,1.09,0,0,0-.06-.23,3.15,3.15,0,0,1-.22-.33A.68.68,0,0,0,7.17,8V9h-.6a1.54,1.54,0,0,0,0-.31c0-.58,0-1.17,0-1.76a1.09,1.09,0,0,0,0-.26c.59,0,1.2,0,1.8,0A.61.61,0,0,1,9,7.27a.63.63,0,0,1-.51.7L8.34,8ZM7.14,7.62h1a.3.3,0,0,0,.31-.3A.28.28,0,0,0,8.21,7H7.14Z"/><path d="M15,6.64c.56,0,1.13,0,1.69,0a.89.89,0,0,1,.82.66,1.5,1.5,0,0,1,0,1A1,1,0,0,1,16.44,9H15A8.65,8.65,0,0,0,15,6.64Zm.6.35v1.6h.83a.6.6,0,0,0,.6-.53,1.63,1.63,0,0,0,0-.54.6.6,0,0,0-.6-.53C16.14,7,15.87,7,15.58,7Z"/><path d="M3.06,3.29H4.42V2.38H5a1.28,1.28,0,0,0,0,.27q0,.9,0,1.8a1.51,1.51,0,0,0,0,.28H4.39c.15-.33,0-.68.08-1H3.11v1H2.49a1.31,1.31,0,0,0,.06-.27c0-.6,0-1.21,0-1.81a1.27,1.27,0,0,0-.06-.28h.64A3.51,3.51,0,0,0,3.06,3.29Z"/><path d="M12.47,7.53h1.36V6.61h.61a3.82,3.82,0,0,0-.06,1.17,6,6,0,0,0,0,1.19H13.8a3.6,3.6,0,0,0,.07-1H12.51V9H11.9A1.1,1.1,0,0,0,12,8.7V6.88a1.31,1.31,0,0,0-.06-.27h.64A2.8,2.8,0,0,0,12.47,7.53Z"/><path d="M8.52,2.4c.58,0,1.19,0,1.79,0a.6.6,0,0,1,.58.66.64.64,0,0,1-.58.66c-.23,0-.46,0-.7,0s-.33,0-.49,0v1H8.51a1.5,1.5,0,0,0,.06-.29V2.66A2,2,0,0,0,8.52,2.4Zm.57,1c.34,0,.66,0,1,0a.28.28,0,0,0,.29-.28c0-.17,0-.32-.23-.33-.34,0-.69,0-1,0Z"/><path d="M11.83,3.76v1h-.6a1.57,1.57,0,0,0,0-.3c0-.58,0-1.17,0-1.75a1.16,1.16,0,0,0,0-.28c.57,0,1.18,0,1.78,0a.61.61,0,0,1,.59.66.63.63,0,0,1-.59.66c-.33,0-.66,0-1,0Zm0-.38c.34,0,.65,0,1,0a.28.28,0,0,0,.3-.31c0-.19-.09-.31-.27-.31-.33,0-.66,0-1,0Z"/><path d="M8.21,4.73H7.43A.42.42,0,0,0,7,4.14H6.36c-.1,0-.2,0-.23.12s-.22.28,0,.48H5.4c.16-.34.34-.68.5-1s.34-.68.49-1a1.21,1.21,0,0,0,0-.3h.68a1,1,0,0,0,0,.3c.29.61.59,1.21.88,1.8A2,2,0,0,0,8.21,4.73ZM6.36,3.79h.77L6.74,3Z"/><path d="M19.67,9a.41.41,0,0,0-.37-.58c-.22,0-.45,0-.68,0s-.2,0-.23.11-.24.28-.05.48h-.7L18,8.19c.2-.42.4-.83.59-1.26a1.25,1.25,0,0,0,.05-.31h.68a1.2,1.2,0,0,0,0,.28l.9,1.82a1.31,1.31,0,0,0,.17.24ZM19,7.18,18.6,8h.78Z"/><path d="M16.23,2.38a11.31,11.31,0,0,1-.73,1,1.55,1.55,0,0,0-.26,1.19c0,.06,0,.11.08.18H14.7c0-.19,0-.37,0-.55a1,1,0,0,0-.25-.81c-.2-.24-.37-.5-.55-.75a2.4,2.4,0,0,0-.22-.24h.8a1,1,0,0,0,.05.27c.13.22.28.43.44.66.16-.24.32-.46.47-.7,0,0,0-.15,0-.23Z"/><path d="M21.74,9h-.57c0-.43.17-.87-.16-1.27-.19-.24-.36-.51-.55-.77-.08-.11-.18-.21-.27-.32H21a.88.88,0,0,0,.07.3c.13.21.27.41.42.63.16-.24.32-.45.46-.68,0-.06,0-.15,0-.24h.75l-.93,1.3a.16.16,0,0,0-.05.11C21.72,8.34,21.73,8.65,21.74,9Z"/><path d="M10.1,9c0-.07.07-.13.07-.19V7a2.31,2.31,0,0,0-.91.06V6.54a1.14,1.14,0,0,0,.25.06c.61,0,1.22,0,1.82,0a.9.9,0,0,0,.27-.07V7l-.88,0V9Z"/><path d="M6,9H5.38a1.71,1.71,0,0,0,0-.3c0-.59,0-1.17,0-1.76a1.57,1.57,0,0,0,0-.3H6A8.87,8.87,0,0,0,6,9Z"/><path d="M18.36,11.45l.88-.27.29.91-.89.27Z"/><path d="M19,4.05l.12-.47.82.19-.12.48Z"/><path d="M29.88,2.37l-.47-.12.14-.58.48.11Z"/><path d="M2.26,13.56l-.14.59-.47-.1.13-.59Z"/><path d="M25.22,2.69l.52.28-.23.41L25,3.09Z"/><path d="M23.18,5.54l-.23.4-.51-.28.23-.4Z"/><path d="M18,15.69l-.23.41-.51-.29.23-.41Z"/><path d="M12.15,18.82l.22-.41.52.28-.22.41Z"/><path d="M12.85,15.29,12.34,15l.22-.4.52.27Z"/><path d="M10.61,12.56l-.23.41-.51-.28.22-.41Z"/><path d="M9.72,15.58l.51.29-.23.4L9.49,16Z"/><path d="M5.67,10.94l-.23.4-.51-.29.23-.4Z"/><path d="M23.1,11.12,23,11.6l-.46-.11.12-.48Z"/><path d="M16.72,4.4l-.44-.1.1-.45C16.86,3.84,16.91,3.92,16.72,4.4Z"/><path d="M27.62,3.75l-.45-.22.23-.42.43.22Z"/><path d="M12.09,11l.06-.28.24,0-.06.28Z"/><path d="M1.65,17.24l0-.23.27-.09.08.22Z"/><path d="M3.31,15.1l.07.22-.28.09L3,15.18Z"/><path d="M15.06,13.34l-.23-.05.06-.29.24.06Z"/><path d="M6.17,14l-.06.29-.24,0L5.93,14Z"/><path d="M2.53,10.83l.06.22-.29.09-.06-.23Z"/><path d="M32.28,8.18a.37.37,0,0,1-.36-.39.42.42,0,0,1,.4-.43.36.36,0,0,1,.36.39A.41.41,0,0,1,32.28,8.18Z"/><path d="M29.52,17.64a3.44,3.44,0,0,1,.14-.42c.07-.14.17-.13.27,0a.92.92,0,0,1,0,.87c-.09.12-.2.11-.26,0A3,3,0,0,1,29.52,17.64Z"/><path d="M30.11,8.87,30,8.9c-.38.12-.39.13-.61-.21-.09-.14-.17-.17-.31-.08s-.22.11-.34.18l-.18-.3c.14,0,.27.06.36,0a.56.56,0,0,0,.3-.82c0-.07,0-.15-.08-.22a.25.25,0,0,1,.3-.34c.24.06.47.13.71.21a.18.18,0,0,1,.08.16.19.19,0,0,1-.09.15l-.49.2a.46.46,0,0,0-.29.54,2.09,2.09,0,0,0,.21.34c.1.16.23.07.36.06a.47.47,0,0,1,.17,0Z"/></g><path class="cls-4" d="M25.88,12.77a5.33,5.33,0,0,1-.6-.7,7.59,7.59,0,0,1-1-2.56,2.86,2.86,0,0,1,.21-1.75,1.29,1.29,0,0,1,2.21-.31.81.81,0,0,1,.07.22l.44.48c0-.13,0-.25.07-.36a2.94,2.94,0,0,1,.58-1.14.58.58,0,0,0,.09-.29,1.46,1.46,0,0,1,.6-1.3,2.14,2.14,0,0,1,1.59-.51,1.48,1.48,0,0,1,1,.6l3.46-3.48.06.05L33.7,5.9a2,2,0,0,1,2.11.73,2,2,0,0,1,0,2.21,4.48,4.48,0,0,1,.64-.07,1.08,1.08,0,0,1,1,1.46,1.68,1.68,0,0,1-.28.53,19.76,19.76,0,0,1-2.86,2.85,3.71,3.71,0,0,1-1.21.64l-.1,0a.68.68,0,0,0-.55.66A13.27,13.27,0,0,1,32,16.8a4.06,4.06,0,0,1-.33.66.43.43,0,0,0,0,.23c.14.87.32,1.74.43,2.62a5.82,5.82,0,0,1,0,1.56,2.25,2.25,0,0,1-2.27,1.65,2,2,0,0,1-1.25-3,5,5,0,0,0,.35-.69.21.21,0,0,0-.08-.29,1.18,1.18,0,0,1-.27-.32A.4.4,0,0,0,28.1,19a3.21,3.21,0,0,1-1.93-.8.67.67,0,0,0-.49-.14,15.79,15.79,0,0,1-1.82,0c-.79,0-1.57-.15-2.35-.25a1.56,1.56,0,0,1-1.37-1.38,3.49,3.49,0,0,1,.67-2.72,1.19,1.19,0,0,1,1.89-.12,6.65,6.65,0,0,1,.73.93A1.1,1.1,0,0,0,25,14.8a.21.21,0,0,0,.09-.13A5,5,0,0,1,25.88,12.77Zm2.46,6a1.67,1.67,0,0,1,.24-1,4.48,4.48,0,0,1,1.49-1.51.68.68,0,0,1,1.1.24,6.74,6.74,0,0,1,.34.71,7,7,0,0,0,.63-2.45c-.16.14-.27.25-.39.34a.66.66,0,0,1-1.11-.4,2.82,2.82,0,0,1,0-1,8.66,8.66,0,0,1,.39-1.15c-.18,0-.17.24-.26.36s-.11.14-.17.15S30.5,13,30.46,13a2.39,2.39,0,0,1-.12-.22,4.7,4.7,0,0,0-.6-1.1,1,1,0,0,0-.78-.28,8.21,8.21,0,0,1-1.1.21,1.73,1.73,0,0,0-1.25.66A4.47,4.47,0,0,0,26,17.59a.92.92,0,0,0,.19.25,3.46,3.46,0,0,0,1.26.76A9.49,9.49,0,0,0,28.34,18.79Zm3.72-7.44a8.75,8.75,0,0,1,.71-.62c.61-.43,1.23-.84,1.85-1.26.11-.07.23-.13.1-.27a.77.77,0,0,1-.11-.92.74.74,0,0,0-.07-.76c-.1-.17-.22-.34-.34-.51a.19.19,0,0,0-.15-.08c-.39.05-.57-.21-.7-.5a.55.55,0,0,0-.28-.32L32.66,6a9.4,9.4,0,0,1-1-.39,1.5,1.5,0,0,0-.88-.14,4.31,4.31,0,0,0-2.35,1,2.2,2.2,0,0,0-.38,3.3c.17.2.39.21.62.3a5.9,5.9,0,0,1-.47-.61,2,2,0,0,1,.21-2.12,2,2,0,0,0,.14-.25.44.44,0,0,1,.55-.29l.08,0a1.88,1.88,0,0,1,2.15.4A1.62,1.62,0,0,1,32,8.76a2.23,2.23,0,0,1-1.33,1.81.93.93,0,0,1-.24,0l-.26,0v.06a2.55,2.55,0,0,0,.35.14l1.27.34A1.47,1.47,0,0,1,32.06,11.35ZM28.84,22.54l-.05,0a1.56,1.56,0,0,0,.34.23,2,2,0,0,0,2-.25A1.42,1.42,0,0,0,31.84,21c-.17-1.1-.31-2.21-.51-3.3a4.29,4.29,0,0,0-.45-1.17c-.15-.28-.33-.28-.61-.11a4.61,4.61,0,0,0-1.41,1.37,1.11,1.11,0,0,0,.32,1.7,1,1,0,0,1,.44,1.1,6.78,6.78,0,0,1-.4,1.06c-.08.22-.18.44-.27.66A2,2,0,0,1,28.84,22.54ZM37.05,9.43c-.27.22-.52.42-.76.63a2.55,2.55,0,0,1-2.52.39.29.29,0,0,0-.24,0c-.48.4-1,.79-1.43,1.24A3.93,3.93,0,0,0,31,13.67a3.69,3.69,0,0,0-.07.94c0,.29.18.4.46.36a.53.53,0,0,0,.31-.15A4.17,4.17,0,0,1,33,14,5.07,5.07,0,0,0,34,13.42a15.37,15.37,0,0,0,2.44-2.33,5.19,5.19,0,0,0,.58-.75A.82.82,0,0,0,37.05,9.43ZM21.48,17.52a16.09,16.09,0,0,0,4.22.26c-.16-.43-.35-.85-.47-1.3s-.13-.91-.2-1.37l-.05,0a1.34,1.34,0,0,1-1.82-.53,5.49,5.49,0,0,0-.75-.92.83.83,0,0,0-1.11-.06c.35,0,.46.31.52.59a6.83,6.83,0,0,1,.06,2.21A1.78,1.78,0,0,1,21.48,17.52ZM30,6.84a1.71,1.71,0,0,0-1.67,1.4,1.38,1.38,0,0,0,.48,1.47,5.71,5.71,0,0,0,1.08.6,1,1,0,0,0,.8,0,2.2,2.2,0,0,0,1.06-2A2,2,0,0,0,30,6.84ZM27.32,9.06a8,8,0,0,1-.48.76,1.25,1.25,0,0,1-1.93,0,.37.37,0,0,1-.05-.11,7.53,7.53,0,0,1-.19-1.14,1.24,1.24,0,0,1,1.42-1.27,1,1,0,0,0-1.34.45,2.55,2.55,0,0,0-.24,1.58,7.57,7.57,0,0,0,1,2.6,1.89,1.89,0,0,0,.32.37,1.11,1.11,0,0,0,.24.16c.3-.38.59-.74.86-1.12a2,2,0,0,0,.3-.58c.1-.32.17-.66.25-1l.24,0Zm8.53-1.49c0-.08,0-.19,0-.29a1.62,1.62,0,0,0-1.91-1.14,2.08,2.08,0,0,0-.32.12,2.07,2.07,0,0,0,.22.35s.12,0,.19,0a2.44,2.44,0,0,1,.27,0A.9.9,0,0,1,35,7.91c-.06.2-.15.38-.21.58s0,.47.14.54.35,0,.51-.24A2.23,2.23,0,0,0,35.85,7.57ZM28.21,6.19l.05,0c.18-.16.42-.27.53-.47a.8.8,0,0,1,1-.49,5.07,5.07,0,0,0,1-.11A1.23,1.23,0,0,0,29.23,5C28.69,5.21,28.23,5.52,28.21,6.19Zm.43,16.08c.17-.33.34-.66.5-1a2.79,2.79,0,0,0,.2-.55.89.89,0,0,0-.13-.82l-.48.85A1.59,1.59,0,0,0,28.64,22.27ZM31.57,5.14l1.18.49a2.78,2.78,0,0,0,.55.14c.05,0,.14,0,.15-.06a.2.2,0,0,0,0-.18c-.08-.11-.2-.18-.27-.29a.34.34,0,0,0-.38-.15c-.27,0-.36,0-.48-.27,0-.1-.08-.2-.12-.28Zm-3.81,5-.25.56,1.55.39a3.07,3.07,0,0,0,.11-.32.13.13,0,0,0,0-.12A2.77,2.77,0,0,0,27.76,10.1ZM33.58,5c.16-.31.16-.51,0-.62a1.27,1.27,0,0,1-.62-.65c-.42.34-.46.5-.27.88A.25.25,0,0,0,33,4.8c.39-.1.39-.09.61.23Zm-2,6.47-1.29-.4-.17.38,1.35.35Zm-1,1.14.34-.31a.5.5,0,0,0,.13-.19c0-.05,0-.15-.06-.16l-.8-.2Zm2.94-9.52a2.11,2.11,0,0,0-.15.15c-.05.06-.13.16-.11.2a.87.87,0,0,0,.55.6l.11-.49,0,0Zm-6.27,8.29,1.18-.2a2.37,2.37,0,0,0-.53-.18c-.45-.12-.45-.12-.64.32C27.26,11.37,27.26,11.38,27.26,11.42Zm2.64-.09.14-.39-.62-.1-.08.26Zm4.26-8.79c-.32.21-.34.3-.11.52Z"/><path class="cls-4" d="M9.54,23.5l.29-.27h-1V21.29l.29,0-.28-.46c-.06-.12,0-.4.14-.42s.13-.14.13-.24c0-.39,0-.79,0-1.18,0-.21.11-.29.31-.27.48.05.58.08.63.58,0,.22,0,.44,0,.69l.3-.26c.17-.15.29-.12.56.08a.28.28,0,0,1,.09.42c-.16.26-.35.5-.52.74l-.11.15c.51-.1,1-.21,1.48-.29a8.5,8.5,0,0,1,.87-.07c.18,0,.24.13.27.27a1.11,1.11,0,0,1,0,.26h1.88c0-.22,0-.44,0-.65s.06-.31.27-.32l1.63-.07a.38.38,0,0,0,.2,0l-.22-.1c-.14-.07-.17-.21,0-.28a1.43,1.43,0,0,1,.85-.31c.06,0,.14-.07.21-.11l.2-.18a.25.25,0,0,0,.06-.18c0-.24-.07-.49-.07-.73s.06-.44.25-.44.64.06.68.35.05.38.09.59l.32-.29c.15-.12.28-.09.54.1A.28.28,0,0,1,20,19c-.1.19-.22.36-.33.55h0a1.26,1.26,0,0,1,1.1.18A1.07,1.07,0,0,1,21,20l-.22.17-.21.09,1.27.05c.54,0,.54,0,.54.57v1.93a26.51,26.51,0,0,1-4.54.21l0,.25h-7a.45.45,0,0,0-.36.12C10.17,23.58,9.87,23.46,9.54,23.5ZM10.66,23h6.65s.08,0,.1,0a.22.22,0,0,0,.12-.11V21.55H12a4.06,4.06,0,0,1-1.74.21A2.05,2.05,0,0,1,10.66,23Zm8.46-.19,2.94-.18V20.66l-2.94.09Zm-.77-2-3.18-.09v.62H17.8V22.7l.55,0Zm-9.24.8v1.39h.74c-.17-.46-.45-.88-.27-1.39Zm.69.38,0,0c.11.29.23.57.33.86s.14.18.29.12a1.9,1.9,0,0,0-.45-1.2l0,.3ZM11,21.22v.06A2.93,2.93,0,0,0,12.67,21l0-.07Zm-.4-1.29c-.24,0-.64.54-.58.81ZM19,19.59l.6-.84C19.31,18.74,19,19.23,19,19.59Zm-1,.59v-.05c-.28-.05-.46-.45-.87-.19Zm-8.58,0h.05l0-1.17s-.09,0-.09,0C9.34,19.36,9.34,19.75,9.34,20.14Zm10.33,0,.87-.24C20.24,19.79,20.06,19.84,19.67,20.18Zm-9.92-.9H9.7v1h.05Zm8.55-.35h0c0-.25,0-.49.05-.74a.77.77,0,0,0,0-.15l-.12.09Zm.34.17h0v-.72H18.6Z"/><path class="cls-4" d="M3.1,18.71H4.79c-.34-.22-.65-.41-.94-.62s-.23-.28,0-.48.33-.34.5-.5a.19.19,0,0,1,.16,0,1.09,1.09,0,0,1,.92.55c.16.25.3.51.46.78,0,0,.05-.11.09-.17.15-.25.29-.51.46-.75a1.1,1.1,0,0,1,.84-.42.19.19,0,0,1,.13.05l.48.49L8,17.45l.42.22-.22.42c-.17-.15-.28-.05-.42.05s-.56.37-.88.57h1.7v4.51H3.1Zm.26.29v3.94H5.45V19.89L4.7,21.4a1.58,1.58,0,0,0-.3-.24A2.09,2.09,0,0,0,4,21.08,1.81,1.81,0,0,1,4.47,20c.25-.33.53-.64.8-1Zm4.28,3-.23.09c-.29.11-.34.08-.36-.22s0-.63,0-1a2.09,2.09,0,0,0-.71-1.3v3.34h2V19H6.4A5.34,5.34,0,0,1,7.54,20.3C7.84,20.84,7.59,21.41,7.64,22ZM4,17.82a4,4,0,0,0,1.47.81L4.37,17.47Zm3.35-.35L6.25,18.64a4.66,4.66,0,0,0,1.48-.81ZM5.43,19.33l0,0a4,4,0,0,0-1,1.5l.28.17Zm1.93,2.46c0-.59.2-1.13-.2-1.56ZM7,17.42l0,0a1.38,1.38,0,0,0-.64.8Zm-1.64.73,0,0a1.62,1.62,0,0,0-.65-.72l0,0Z"/><path class="cls-4" d="M2.69,6.83H4.52a.54.54,0,0,1,.55.41c.08.25,0,.45-.27.68a.59.59,0,0,1,.36.7.72.72,0,0,1-.78.55H2.69A9.64,9.64,0,0,0,2.69,6.83Zm.58,2c.37,0,.7,0,1,0a.32.32,0,0,0,.34-.33.29.29,0,0,0-.29-.33c-.36,0-.72,0-1.09,0Zm0-1.06H4.32a.25.25,0,0,0,.26-.25c0-.16-.06-.28-.22-.28-.36,0-.72,0-1.09,0Z"/><path class="cls-4" d="M9.25,9.16H8.54a1.16,1.16,0,0,0-.06-.22,3.26,3.26,0,0,1-.22-.34.68.68,0,0,0-.89-.38v.94h-.6a1.67,1.67,0,0,0,.05-.31V7.09a1.09,1.09,0,0,0-.05-.26c.58,0,1.19,0,1.8,0a.6.6,0,0,1,.62.62.63.63,0,0,1-.51.7l-.14.06ZM7.34,7.82h1a.3.3,0,0,0,.31-.3.28.28,0,0,0-.26-.33c-.35,0-.71,0-1.07,0Z"/><path class="cls-4" d="M15.18,6.83c.56,0,1.13,0,1.69,0a.9.9,0,0,1,.82.66,1.47,1.47,0,0,1,0,.95,1,1,0,0,1-1.06.72H15.17A8.34,8.34,0,0,0,15.18,6.83Zm.6.35V8.79c.29,0,.56,0,.83,0a.6.6,0,0,0,.6-.53,1.63,1.63,0,0,0,0-.54.6.6,0,0,0-.6-.53C16.34,7.17,16.07,7.18,15.78,7.18Z"/><path class="cls-4" d="M3.26,3.49H4.62V2.57h.61a1.57,1.57,0,0,0-.06.28v1.8a1.57,1.57,0,0,0,.06.28H4.59a4,4,0,0,0,.08-1H3.3v1H2.69a1.31,1.31,0,0,0,.06-.27c0-.6,0-1.21,0-1.82a1.31,1.31,0,0,0-.06-.27h.64A2.8,2.8,0,0,0,3.26,3.49Z"/><path class="cls-4" d="M12.67,7.73H14V6.81h.61A3.82,3.82,0,0,0,14.58,8a5.83,5.83,0,0,0,0,1.18H14a3.51,3.51,0,0,0,.07-1H12.71v1h-.62a1.11,1.11,0,0,0,.07-.26V7.08a1.31,1.31,0,0,0-.06-.27h.63A3.08,3.08,0,0,0,12.67,7.73Z"/><path class="cls-4" d="M8.72,2.6c.58,0,1.19,0,1.79,0a.62.62,0,0,1,.58.66.64.64,0,0,1-.58.67c-.23,0-.47,0-.7,0H9.32v1H8.71a1.5,1.5,0,0,0,.06-.29V2.86A2,2,0,0,0,8.72,2.6Zm.57,1h1a.29.29,0,0,0,.29-.29c0-.16-.06-.31-.23-.32-.34,0-.69,0-1,0Z"/><path class="cls-4" d="M12,4v1h-.61a1.59,1.59,0,0,0,.06-.3V2.87a2.16,2.16,0,0,0-.05-.27c.57,0,1.18,0,1.78,0a.61.61,0,0,1,.59.67.63.63,0,0,1-.59.66c-.33,0-.66,0-1,0Zm0-.38h1a.29.29,0,0,0,.3-.31c0-.19-.09-.31-.27-.32-.33,0-.66,0-1,0Z"/><path class="cls-4" d="M8.4,4.92H7.63a.41.41,0,0,0-.39-.58H6.56c-.1,0-.2,0-.23.12s-.22.28,0,.47H5.6l.5-1c.17-.34.33-.68.49-1a2,2,0,0,0,0-.3H7.3a1.45,1.45,0,0,0,0,.3c.29.6.58,1.2.88,1.8A2.07,2.07,0,0,0,8.4,4.92ZM6.56,4h.77l-.39-.84Z"/><path class="cls-4" d="M19.87,9.16a.41.41,0,0,0-.37-.58h-.68c-.08,0-.2.05-.23.11s-.24.28-.05.48h-.7c.13-.26.26-.52.38-.78q.32-.63.6-1.26a1.34,1.34,0,0,0,.05-.31h.67a1.18,1.18,0,0,0,0,.28l.9,1.82a1.31,1.31,0,0,0,.17.24Zm-.68-1.78-.39.85h.77Z"/><path class="cls-4" d="M16.43,2.57a10.1,10.1,0,0,1-.73,1,1.54,1.54,0,0,0-.26,1.19s.05.11.08.18H14.9a5,5,0,0,1,0-.55,1,1,0,0,0-.25-.81c-.2-.24-.37-.51-.55-.75a1.65,1.65,0,0,0-.22-.24h.8a1,1,0,0,0,.05.27c.13.22.28.42.43.66.17-.25.33-.47.47-.7,0-.05,0-.15,0-.24Z"/><path class="cls-4" d="M21.94,9.17h-.57c0-.43.17-.87-.16-1.27-.2-.24-.36-.51-.55-.77s-.18-.21-.27-.32h.79a.88.88,0,0,0,.07.3c.12.21.27.41.42.63.16-.24.32-.45.46-.68a.6.6,0,0,0,0-.24h.75c-.3.41-.62.85-.93,1.3a.16.16,0,0,0,0,.11C21.92,8.54,21.93,8.85,21.94,9.17Z"/><path class="cls-4" d="M10.29,9.16a.56.56,0,0,0,.08-.2V7.18a2.52,2.52,0,0,0-.91.07V6.74a1,1,0,0,0,.25.06h1.82a1,1,0,0,0,.27-.07v.49l-.88-.06v2Z"/><path class="cls-4" d="M6.23,9.16H5.58a1.6,1.6,0,0,0,0-.29c0-.59,0-1.18,0-1.76a1.57,1.57,0,0,0,0-.3h.63A8.8,8.8,0,0,0,6.23,9.16Z"/><path class="cls-4" d="M18.56,11.65l.88-.27.28.91-.88.27Z"/><path class="cls-4" d="M19.15,4.25l.12-.47.82.19L20,4.45Z"/><path class="cls-4" d="M30.08,2.57l-.47-.12.14-.58.48.11Z"/><path class="cls-4" d="M2.46,13.76l-.14.59-.47-.11L2,13.66Z"/><path class="cls-4" d="M25.42,2.88l.51.29-.23.41-.51-.29Z"/><path class="cls-4" d="M23.38,5.74l-.23.4-.51-.28.23-.4Z"/><path class="cls-4" d="M18.21,15.89,18,16.3,17.47,16l.23-.41Z"/><path class="cls-4" d="M12.35,19l.22-.41.52.28-.23.4Z"/><path class="cls-4" d="M13.05,15.49l-.52-.28.23-.4.52.27Z"/><path class="cls-4" d="M10.81,12.76l-.23.4-.51-.27.22-.41Z"/><path class="cls-4" d="M9.92,15.78l.51.28-.23.41-.51-.29Z"/><path class="cls-4" d="M5.87,11.13l-.23.41-.51-.29.23-.4Z"/><path class="cls-4" d="M23.3,11.32l-.12.47-.46-.11.12-.47Z"/><path class="cls-4" d="M16.92,4.6l-.44-.11.1-.44C17.06,4,17.11,4.12,16.92,4.6Z"/><path class="cls-4" d="M27.81,4l-.44-.22.22-.42.44.22Z"/><path class="cls-4" d="M12.29,11.15l.06-.28.24,0-.06.28Z"/><path class="cls-4" d="M1.85,17.44l-.05-.23.27-.09.08.22Z"/><path class="cls-4" d="M3.5,15.29l.08.23-.28.08-.08-.22Z"/><path class="cls-4" d="M15.26,13.54,15,13.48l.06-.28.23.06Z"/><path class="cls-4" d="M6.37,14.19l-.07.29-.23-.05.06-.27Z"/><path class="cls-4" d="M2.72,11l.07.22-.29.08-.06-.22Z"/><path class="cls-4" d="M32.48,8.38A.37.37,0,0,1,32.12,8a.42.42,0,0,1,.4-.43.36.36,0,0,1,.35.39A.41.41,0,0,1,32.48,8.38Z"/><path class="cls-4" d="M29.72,17.84a2.71,2.71,0,0,1,.14-.43c.07-.13.17-.12.26,0a.88.88,0,0,1,0,.86c-.09.13-.2.12-.26,0A2.07,2.07,0,0,1,29.72,17.84Z"/><path class="cls-4" d="M30.31,9.06l-.1,0c-.37.12-.38.13-.6-.21-.09-.14-.17-.17-.32-.08A2,2,0,0,1,29,9l-.18-.29c.14,0,.27.06.36,0a.56.56,0,0,0,.3-.82c0-.08-.06-.15-.08-.22a.25.25,0,0,1,.3-.34c.24.06.47.13.7.21.05,0,.09.1.09.15a.2.2,0,0,1-.09.16L29.87,8a.48.48,0,0,0-.29.55,2.09,2.09,0,0,0,.21.34c.1.16.23.07.36.06a.52.52,0,0,1,.17,0Z"/></g></g></svg>