<svg xmlns="http://www.w3.org/2000/svg" viewBox="0 0 38.55 24.66"><defs><style>.cls-1{isolation:isolate;}.cls-2{opacity:0.15;}.cls-2,.cls-3{mix-blend-mode:multiply;}.cls-4{fill:#fff;}</style></defs><title>convert-FIX-SVG-03</title><g class="cls-1"><g id="Layer_1" data-name="Layer 1"><g class="cls-2"><path d="M1.4,17.25l.18.42a4.12,4.12,0,0,0,.94,1.39,2,2,0,0,0,2.28.49,5.24,5.24,0,0,0,1-.5,12.15,12.15,0,0,1,2.1-1.13,2.38,2.38,0,0,1,1.85,0c.57.25,1.15.47,1.71.74a3.32,3.32,0,0,1,1.5,1.44,1.43,1.43,0,0,0,1.19.74,4.32,4.32,0,0,0,1,0,1,1,0,0,0,.69-.45,8.91,8.91,0,0,1,1.42-1.65,3.07,3.07,0,0,1,.42-.28.88.88,0,0,1,.85,0,4.28,4.28,0,0,1,.69.4,2.27,2.27,0,0,0,2.32.3c.65-.26,1.28-.57,1.91-.84.3-.13.6-.27.9-.37a.58.58,0,0,1,.77.31c.17.31.3.64.48.94a10.1,10.1,0,0,0,.77,1.26,1.81,1.81,0,0,0,2.38.55,10.64,10.64,0,0,0,2.58-1.74c.27-.22.56-.43.85-.63A.91.91,0,0,1,33,18.5a1.74,1.74,0,0,0,1.23-.08c.5-.21,1-.42,1.49-.68a2.48,2.48,0,0,0,.61-.6c.17-.2.29-.44.45-.65a.86.86,0,0,1,.31-.26c.21-.09.36,0,.36.26v.78c-.37-.11-.46-.08-.7.24l-.47.7a1.8,1.8,0,0,1-.79.65c-.53.21-1.05.45-1.59.64a1.24,1.24,0,0,1-.89,0,.93.93,0,0,0-.9.13c-.41.3-.81.62-1.2.94A10,10,0,0,1,28.69,22a1.81,1.81,0,0,1-2.45-.61,14.87,14.87,0,0,1-.85-1.45c-.12-.21-.2-.44-.32-.64a.63.63,0,0,0-.86-.34c-.31.11-.6.26-.91.39-.73.3-1.46.64-2.2.9A2,2,0,0,1,19.34,20c-.25-.17-.51-.33-.77-.48a.93.93,0,0,0-1.11.07,14,14,0,0,0-1.11,1.07,3.87,3.87,0,0,0-.49.64,1.35,1.35,0,0,1-1.22.65,1.77,1.77,0,0,1-1.83-1,2.84,2.84,0,0,0-.71-.8,8.71,8.71,0,0,0-3-1.37,1.65,1.65,0,0,0-1.21.17c-.69.33-1.36.71-2,1.08a9.6,9.6,0,0,1-1,.5,2.12,2.12,0,0,1-2.47-.58,4.27,4.27,0,0,1-1-1.74,4.21,4.21,0,0,1,0-.94Z"/><path d="M21.37,15.38c-.53,0-1.06,0-1.6,0a5.3,5.3,0,0,0-1,.14c-.14,0-.2,0-.21-.13,0-.37-.07-.73-.06-1.1,0-1.37.08-2.73.12-4.1a1,1,0,0,0-.05-.3c-.11-.26,0-.43.26-.44.1,0,.21,0,.31,0,.06.35-.21.19-.38.27.08.08.14.18.22.21a5.16,5.16,0,0,0,.85.25,1.42,1.42,0,0,0,.58,0c.26-.06.51-.14.75-.22s.22-.12.24-.32L21,9.57V9.33a2.83,2.83,0,0,1,.53.07c.21.07.25.28.14.52a1.12,1.12,0,0,0-.13.44c-.06,1.52-.1,3.05-.15,4.57Z"/><path d="M11,15.39a2.65,2.65,0,0,0-1.39-.08c-.45.06-.9.15-1.33.23V13.07c0-1,0-1.92,0-2.88a.58.58,0,0,0-.06-.26c-.14-.29,0-.47.28-.47l.29,0,0,.23H8.35l0,0c.07.06.12.15.2.18a5.35,5.35,0,0,0,.86.27,3,3,0,0,0,1.43-.31c.06,0,.09-.14.14-.22a.84.84,0,0,0-.2-.08,1,1,0,0,0-.25,0l0-.26A2.83,2.83,0,0,1,11,9.4c.24.07.28.29.15.54a.88.88,0,0,0-.11.39c0,1.41,0,2.83,0,4.25A7.82,7.82,0,0,1,11,15.39Z"/><path d="M28.54,15.55c0-1.09,0-2.15,0-3.22,0-.7,0-1.41,0-2.11a.64.64,0,0,0-.07-.28c-.14-.29,0-.48.28-.48H29L29,9.72h-.32l0,0c.07.06.13.15.22.18a4.84,4.84,0,0,0,.82.25,1.68,1.68,0,0,0,.59,0,4.63,4.63,0,0,0,.61-.17.88.88,0,0,0,.28-.12c.06,0,.08-.13.11-.2s-.11-.07-.17-.08h-.28l0-.28a2.81,2.81,0,0,1,.56.1c.2.07.22.29.1.52a.94.94,0,0,0-.11.37l-.12,5c0,.2-.07.26-.26.22l-.31-.07A3,3,0,0,0,28.54,15.55Z"/><path d="M19.52,3.77l.2.6a.41.41,0,0,1-.22.51,3.77,3.77,0,0,1-1.38.51,1.51,1.51,0,0,1-.56,0,.42.42,0,0,1-.27-.61c.25-.55.5-1.1.77-1.64a.69.69,0,0,1,.63-.32,4.41,4.41,0,0,1,.89,0,.46.46,0,0,1,.35.2c0,.1-.05.27-.12.39A2.68,2.68,0,0,1,19.52,3.77Zm-.73.42v0a2,2,0,0,0-.62.17.65.65,0,0,0-.21.43s.17.18.26.17a1.19,1.19,0,0,0,.89-.41c.11-.14.07-.27-.11-.32A.65.65,0,0,0,18.79,4.19Zm.54-1a.63.63,0,0,0-.94.55C18.76,3.66,19.16,3.64,19.33,3.19Z"/><path d="M9.69,6.51a3.39,3.39,0,0,1,1,1.39,1.29,1.29,0,0,1-.52,1.57c-.52.36-.45.4-.88-.12a1.34,1.34,0,0,1-.19-1.49,4.4,4.4,0,0,1,.49-.8A.56.56,0,0,0,9.69,6.51Z"/><path d="M24.66,3.86a1.21,1.21,0,0,0-.78.24,5.19,5.19,0,0,1-.71.48,5,5,0,0,1,.47.33c.23.2.18.37-.05.45-.21-.19-.4-.38-.6-.53s-.46-.15-.64.14c-.08.12-.15.26-.24.37a.23.23,0,0,1-.38,0c-.07-.08-.08-.14,0-.23a3.36,3.36,0,0,0,.76-1.46.37.37,0,0,1,.19-.23,1.29,1.29,0,0,1,1.4.09.25.25,0,0,0,.17,0l1.41-.17c.13,0,.21,0,.22.17s0,.23-.19.23h0c-.47,0-.69.24-.85.61l-.32.78c-.06.14-.16.3-.32.25s-.11-.26-.05-.39C24.29,4.64,24.47,4.27,24.66,3.86Zm-.86-.17a.77.77,0,0,0-1.11.63A1.41,1.41,0,0,0,23.8,3.69Z"/><path d="M6.65,3l-.47.81c.28,0,.52,0,.76-.05a.27.27,0,0,0,.16-.14c.09-.18.15-.38.24-.56a.27.27,0,0,1,.17-.16.41.41,0,0,1,.31,0s0,.21,0,.3c-.15.34-.32.67-.48,1s-.27.57-.42.85a.49.49,0,0,1-.16.21.26.26,0,0,1-.23,0,.27.27,0,0,1-.06-.23c.1-.27.23-.53.34-.8l0-.13c-.29,0-.56,0-.83,0,0,0-.09.08-.12.13-.13.26-.25.52-.38.77,0,.09-.12.2-.2.22a.37.37,0,0,1-.31,0A.31.31,0,0,1,5,5c.38-.68.76-1.36,1.16-2C6.34,2.68,6.46,2.7,6.65,3Z"/><path d="M20.22,7A3.35,3.35,0,0,1,21,8.61a1.06,1.06,0,0,1-.89,1.13.23.23,0,0,1-.15-.07,1.41,1.41,0,0,1-.24-1.94C19.83,7.49,20,7.27,20.22,7Z"/><path d="M30.35,7.49a.73.73,0,0,1,.15.16,2.09,2.09,0,0,1,.28,1.58.9.9,0,0,1-.11.27.48.48,0,0,1-.71.26,2,2,0,0,1-.51-.25.43.43,0,0,1-.16-.61,5.31,5.31,0,0,1,.42-.63C29.9,8,30.12,7.77,30.35,7.49Z"/><path d="M27.81,5.4c-.3,0-.4-.11-.32-.34.19-.47.39-.95.59-1.42a.34.34,0,0,1,.19-.16,1.55,1.55,0,0,1,1.25,0,.4.4,0,0,1,.23.63A2.26,2.26,0,0,1,28.28,5.3ZM28,4.91a.92.92,0,0,0,.24,0A3,3,0,0,0,29.38,4c.09-.11,0-.23-.08-.3a.76.76,0,0,0-.83.14C28.3,4.19,28.16,4.53,28,4.91Z"/><path d="M8.9,5a1.39,1.39,0,0,0-1.25.34.19.19,0,0,1-.3,0,.24.24,0,0,1,0-.23,5.38,5.38,0,0,1,.52-.64c.31-.31.65-.61,1-.9a.56.56,0,0,1,.3-.14c.23,0,.35.05.32.28,0,.5-.14,1-.22,1.48,0,.14-.13.16-.24.14s-.13-.11-.1-.21A.38.38,0,0,0,8.9,5Zm-.61-.37c.64,0,.83-.11.7-.57C8.65,4.11,8.52,4.4,8.29,4.64Z"/><path d="M31.23,5A1.45,1.45,0,0,0,30,5.36a.32.32,0,0,1-.27,0s-.06-.18,0-.23a6.32,6.32,0,0,1,.52-.64c.31-.31.65-.61,1-.9a.78.78,0,0,1,.32-.15c.22,0,.33.06.31.29-.06.49-.14,1-.22,1.48,0,.15-.14.16-.26.14s-.11-.13-.08-.22A.49.49,0,0,1,31.23,5Zm-.63-.36c.69,0,.81-.09.73-.58C31,4.11,30.84,4.41,30.6,4.65Z"/><path d="M26.56,4.17c.23,0,.41,0,.59,0A.26.26,0,0,0,27.3,4c.07-.13.11-.28.18-.4a.38.38,0,0,1,.16-.17c.22-.07.31,0,.23.23a3.63,3.63,0,0,1-.22.5l-.49,1a.35.35,0,0,1-.11.15.63.63,0,0,1-.23.08.57.57,0,0,1,0-.22c.09-.23.19-.45.3-.71l-.65,0c-.05,0-.1.08-.12.13-.12.21-.22.44-.34.65a.21.21,0,0,1-.33.11c-.16-.08-.09-.2,0-.3l.93-1.63c.05-.09.1-.21.24-.11a.18.18,0,0,1,.05.31A3.86,3.86,0,0,0,26.56,4.17Z"/><path d="M9.71,5.48a1.11,1.11,0,0,1-.22-.2s0-.13.08-.18a3.29,3.29,0,0,0,.71-1.42.3.3,0,0,1,.2-.26,1.52,1.52,0,0,1,1.11-.07c.43.16.49.41.15.71a3.37,3.37,0,0,1-1.31.69.49.49,0,0,0-.24.16c-.1.12-.16.27-.25.39A1.15,1.15,0,0,1,9.71,5.48ZM11.59,3.7a.74.74,0,0,0-1.09.62A1.37,1.37,0,0,0,11.59,3.7Z"/><path d="M11.74,5.24a3.65,3.65,0,0,0,.82-1.3.28.28,0,0,0,0-.12c0-.31.17-.4.42-.47a1.49,1.49,0,0,1,.91,0c.42.16.47.41.15.7a3.13,3.13,0,0,1-1.31.69.68.68,0,0,0-.26.18c-.08.1-.13.24-.22.34a.35.35,0,0,1-.26.16C11.94,5.42,11.85,5.31,11.74,5.24Zm2.19-1.55a.77.77,0,0,0-1.11.63A1.42,1.42,0,0,0,13.93,3.69Z"/><path d="M.91,12.27l-.05-.2c2.11-.4,4.24-.68,6.37-.92a.25.25,0,0,1,0,.07.71.71,0,0,1,0,.14Z"/><path d="M20.83,3.78l-.52,0c.09-.37.2-.46.56-.46h.74c.16,0,.19.08.21.2s0,.27-.16.25c-.37-.06-.45.22-.58.45L20.67,5l.4,0a.31.31,0,0,1-.3.36l-1,.09c0-.32.08-.35.38-.41a.22.22,0,0,0,.14-.08c.21-.36.42-.72.62-1.09Z"/><path d="M17.39,10.5v.25L11.65,11l0-.25Z"/><path d="M28,15.29l.16.18-.2.35c.34-.07.65-.15,1-.19a3,3,0,0,1,1.54.14,1.14,1.14,0,0,0,.55,0c.32,0,.63,0,1-.07l-.2-.36L32,15.2h0c.14.16.32.33.22.57s-.34.19-.54.2a3.73,3.73,0,0,0-.48,0,2.77,2.77,0,0,1-1.14-.1,3.15,3.15,0,0,0-1.87.12c-.15.05-.32.16-.45,0s0-.33.05-.48A2.12,2.12,0,0,1,28,15.29Z"/><path d="M32.24,11.53l0-.25,5.07.77,0,.25Z"/><path d="M27.48,10.8l0,.25-5.12-.26v-.25Z"/><path d="M14.18,5.17c.19-.26.36-.49.52-.74a.24.24,0,0,0,0-.2c-.09-.18-.21-.34-.28-.52a.37.37,0,0,1,.05-.29c.07-.09.16-.09.22.05s.23.4.34.6l.65-.67.1-.08c.12-.07.23-.2.36,0s0,.28-.13.35a5.75,5.75,0,0,0-1.45,1.58C14.36,5.46,14.32,5.46,14.18,5.17Z"/><path d="M32.6,4l.77-.66a.44.44,0,0,1,.2-.11.19.19,0,0,1,.18,0,.19.19,0,0,1,0,.18.41.41,0,0,1-.15.17A5.9,5.9,0,0,0,32.17,5.2c-.19.26-.22.26-.37,0,.17-.24.35-.47.51-.72a.27.27,0,0,0,0-.23c-.08-.18-.2-.34-.28-.52a.36.36,0,0,1,.06-.28c.06-.08.16-.1.22,0S32.53,3.87,32.6,4Z"/><path d="M17.7,15.35l.16-.14h.05a1.73,1.73,0,0,0,1.59.48c.64-.1,1.29-.12,1.93-.19a5,5,0,0,0,.67-.15l0,.09c-.08.06-.14.16-.23.19a3.61,3.61,0,0,1-.65.15L19.1,16A1.73,1.73,0,0,1,17.7,15.35Z"/><path d="M7.4,15.45l.21-.12a1,1,0,0,0,1.1.36c.73-.1,1.47-.14,2.2-.22a2.9,2.9,0,0,0,.47-.16l.25-.06,0,.07c-.08.09-.14.21-.24.26a1.6,1.6,0,0,1-.53.14L8.52,16A1.13,1.13,0,0,1,7.4,15.45Z"/><path d="M1.6,17.45c.06.14.11.28.18.42a4.12,4.12,0,0,0,.94,1.39A2.05,2.05,0,0,0,5,19.75a5.93,5.93,0,0,0,1-.5,12.15,12.15,0,0,1,2.1-1.13,2.33,2.33,0,0,1,1.85,0c.57.25,1.15.47,1.7.74a3.34,3.34,0,0,1,1.51,1.44,1.42,1.42,0,0,0,1.19.74,4.32,4.32,0,0,0,.95,0,1,1,0,0,0,.69-.45,9.25,9.25,0,0,1,1.41-1.65,3.83,3.83,0,0,1,.42-.28.91.91,0,0,1,.86,0,4.28,4.28,0,0,1,.69.4,2.25,2.25,0,0,0,2.32.29c.64-.26,1.27-.56,1.91-.84.3-.12.59-.26.9-.36a.58.58,0,0,1,.77.31c.17.31.3.64.48.94a10.1,10.1,0,0,0,.77,1.26,1.8,1.8,0,0,0,2.37.55,10.79,10.79,0,0,0,2.59-1.74c.27-.22.56-.43.85-.63a.91.91,0,0,1,.86-.11,1.71,1.71,0,0,0,1.22-.08,13.57,13.57,0,0,0,1.5-.69,2.32,2.32,0,0,0,.61-.6c.17-.19.28-.43.44-.64a.88.88,0,0,1,.32-.26.24.24,0,0,1,.36.25v.79c-.37-.11-.47-.08-.7.24s-.32.47-.48.7a1.74,1.74,0,0,1-.79.65c-.52.21-1,.44-1.58.64a1.24,1.24,0,0,1-.89,0,.93.93,0,0,0-.9.13c-.41.3-.81.62-1.2.94a9.64,9.64,0,0,1-2.18,1.4,1.81,1.81,0,0,1-2.45-.6,15,15,0,0,1-.85-1.46c-.12-.2-.21-.43-.32-.64a.64.64,0,0,0-.86-.33c-.31.11-.61.26-.91.38-.73.31-1.46.65-2.21.91a1.93,1.93,0,0,1-1.75-.27c-.25-.17-.51-.33-.77-.48a.93.93,0,0,0-1.11.07,14,14,0,0,0-1.11,1.07,3.87,3.87,0,0,0-.49.64,1.35,1.35,0,0,1-1.23.65,1.77,1.77,0,0,1-1.82-1,2.84,2.84,0,0,0-.71-.8,8.92,8.92,0,0,0-3-1.38,1.75,1.75,0,0,0-1.21.17c-.69.34-1.36.72-2,1.09a9.6,9.6,0,0,1-.95.5,2.13,2.13,0,0,1-2.47-.58,4.24,4.24,0,0,1-1-1.75,4.08,4.08,0,0,1-.06-.93Z"/><path d="M21.57,15.58c-.53,0-1.07,0-1.6,0a6.32,6.32,0,0,0-1,.13c-.14,0-.2,0-.21-.12,0-.37-.07-.73-.06-1.1,0-1.37.08-2.73.12-4.1a.85.85,0,0,0-.06-.31c-.1-.25,0-.42.27-.43.1,0,.2,0,.31,0,.06.35-.21.19-.38.27.08.08.14.18.22.21a5.16,5.16,0,0,0,.85.25,1.44,1.44,0,0,0,.58,0,7,7,0,0,0,.75-.21c.18-.06.22-.12.24-.32l-.45-.06V9.52a4,4,0,0,1,.53.08c.21.07.25.28.14.51a1.22,1.22,0,0,0-.13.45c-.06,1.52-.1,3-.15,4.57Z"/><path d="M11.15,15.59a2.55,2.55,0,0,0-1.39-.08c-.45.06-.9.15-1.33.22,0-.82,0-1.64,0-2.46s0-1.92,0-2.88a.76.76,0,0,0-.06-.26c-.14-.29,0-.47.28-.47.09,0,.18,0,.29,0l0,.24H8.55l0,.05c.06.06.12.15.2.18a4.47,4.47,0,0,0,.86.26A3,3,0,0,0,11,10.1c.06,0,.09-.14.14-.22A.84.84,0,0,0,11,9.8a1,1,0,0,0-.25,0l0-.26a2.83,2.83,0,0,1,.53.07c.23.06.27.29.15.54a.84.84,0,0,0-.11.38c0,1.42,0,2.84,0,4.26C11.21,15,11.17,15.31,11.15,15.59Z"/><path d="M28.74,15.75V12.53c0-.7,0-1.41,0-2.11a.64.64,0,0,0-.07-.28c-.14-.29,0-.48.28-.48.09,0,.18,0,.3,0l-.05.25h-.32l0,0c.08.07.14.16.23.19a4.84,4.84,0,0,0,.82.25,2,2,0,0,0,.59,0c.2,0,.4-.11.61-.17a.9.9,0,0,0,.28-.13c.06,0,.08-.12.11-.19a.58.58,0,0,0-.18-.08,1.21,1.21,0,0,0-.27,0l0-.28a3.1,3.1,0,0,1,.56.1c.2.07.22.29.1.52a.94.94,0,0,0-.11.37l-.12,5.05c0,.2-.07.25-.27.22l-.3-.07A3,3,0,0,0,28.74,15.75Z"/><path d="M19.72,4l.2.6a.41.41,0,0,1-.22.51,3.58,3.58,0,0,1-1.38.5,1.18,1.18,0,0,1-.56,0,.41.41,0,0,1-.28-.6c.25-.55.51-1.1.78-1.64A.71.71,0,0,1,18.89,3a5.17,5.17,0,0,1,.88,0,.48.48,0,0,1,.36.2c0,.1-.05.27-.12.39A2.68,2.68,0,0,1,19.72,4ZM19,4.39v0a2.36,2.36,0,0,0-.62.18.71.71,0,0,0-.22.43s.18.18.27.17a1.22,1.22,0,0,0,.89-.41c.11-.14.07-.27-.11-.32A.71.71,0,0,0,19,4.39Zm.55-1a.63.63,0,0,0-.94.55C19,3.85,19.36,3.84,19.53,3.39Z"/><path d="M9.88,6.71a3.33,3.33,0,0,1,.95,1.38,1.29,1.29,0,0,1-.52,1.58c-.51.36-.44.4-.87-.13a1.34,1.34,0,0,1-.2-1.48,5.1,5.1,0,0,1,.5-.8C9.86,7.09,10,6.94,9.88,6.71Z"/><path d="M24.86,4.06a1.21,1.21,0,0,0-.78.24,5.89,5.89,0,0,1-.71.48c.15.11.32.2.47.33s.18.36-.05.45c-.22-.19-.4-.38-.61-.53s-.45-.15-.63.14c-.08.12-.15.25-.24.37a.23.23,0,0,1-.38,0c-.07-.07-.08-.13,0-.22a3.38,3.38,0,0,0,.77-1.46.38.38,0,0,1,.19-.24,1.32,1.32,0,0,1,1.4.1s.11,0,.17,0l1.41-.17c.13,0,.21,0,.22.17s0,.22-.19.23h0c-.47-.05-.69.24-.85.61s-.21.52-.33.78-.15.3-.31.24-.11-.25-.05-.38C24.49,4.84,24.67,4.47,24.86,4.06ZM24,3.89a.76.76,0,0,0-1.1.63A1.37,1.37,0,0,0,24,3.89Z"/><path d="M6.84,3.24l-.46.81c.28,0,.52,0,.76,0a.27.27,0,0,0,.16-.14c.09-.18.15-.38.24-.56a.28.28,0,0,1,.16-.16.43.43,0,0,1,.32,0s0,.21,0,.29c-.15.34-.32.68-.48,1l-.42.86A.56.56,0,0,1,7,5.53a.26.26,0,0,1-.23,0,.29.29,0,0,1-.06-.24c.1-.27.22-.53.34-.79l0-.13c-.29,0-.56,0-.83,0,0,0-.09.08-.12.13-.13.26-.25.52-.39.77a.42.42,0,0,1-.19.22.44.44,0,0,1-.32,0,.35.35,0,0,1,0-.3c.38-.68.76-1.36,1.16-2C6.54,2.88,6.66,2.9,6.84,3.24Z"/><path d="M20.42,7.21a3.35,3.35,0,0,1,.74,1.6,1.07,1.07,0,0,1-.9,1.13.31.31,0,0,1-.14-.07,1.41,1.41,0,0,1-.24-1.95C20,7.68,20.22,7.47,20.42,7.21Z"/><path d="M30.55,7.69a.73.73,0,0,1,.15.16A2.09,2.09,0,0,1,31,9.43a1,1,0,0,1-.11.27.48.48,0,0,1-.71.26,2.2,2.2,0,0,1-.51-.25.44.44,0,0,1-.16-.61,3.92,3.92,0,0,1,.42-.64C30.1,8.21,30.32,8,30.55,7.69Z"/><path d="M28,5.6c-.31,0-.4-.12-.32-.34.19-.48.39-1,.59-1.42a.35.35,0,0,1,.18-.16,1.55,1.55,0,0,1,1.25,0,.4.4,0,0,1,.24.63,2.22,2.22,0,0,1-1.47,1.2Zm.17-.49c.13,0,.2,0,.25,0a3,3,0,0,0,1.15-.87c.09-.12,0-.23-.08-.31a.76.76,0,0,0-.83.15C28.49,4.39,28.36,4.73,28.18,5.11Z"/><path d="M9.1,5.21a1.41,1.41,0,0,0-1.26.34.18.18,0,0,1-.29,0,.24.24,0,0,1,0-.23,4,4,0,0,1,.52-.64c.31-.32.64-.61,1-.9a.66.66,0,0,1,.3-.15c.23,0,.35.06.32.29-.05.5-.14,1-.22,1.48,0,.14-.13.16-.24.14s-.14-.11-.11-.21S9.09,5.26,9.1,5.21Zm-.62-.37c.65,0,.84-.12.71-.57C8.85,4.31,8.71,4.6,8.48,4.84Z"/><path d="M31.43,5.21a1.47,1.47,0,0,0-1.28.34.29.29,0,0,1-.27,0s-.06-.18,0-.23a5.38,5.38,0,0,1,.52-.64c.31-.31.65-.61,1-.9a.78.78,0,0,1,.32-.15c.22,0,.33.06.31.29-.06.49-.14,1-.22,1.48,0,.14-.15.16-.27.13s-.1-.12-.08-.21S31.42,5.26,31.43,5.21Zm-.63-.36c.69,0,.81-.1.73-.58C31.17,4.3,31,4.6,30.8,4.85Z"/><path d="M26.76,4.37c.23,0,.41,0,.59,0a.26.26,0,0,0,.15-.12c.07-.13.11-.28.17-.41a.37.37,0,0,1,.17-.16c.22-.07.3,0,.23.23a5.44,5.44,0,0,1-.22.5l-.5,1a.31.31,0,0,1-.1.15.9.9,0,0,1-.23.08c0-.08-.05-.16,0-.23.08-.22.19-.44.3-.7l-.65,0s-.1.08-.12.13c-.12.21-.22.43-.34.65a.23.23,0,0,1-.34.11c-.15-.08-.08-.2,0-.31.3-.54.61-1.08.93-1.63,0-.09.1-.2.24-.1a.18.18,0,0,1,.05.31A3.86,3.86,0,0,0,26.76,4.37Z"/><path d="M9.91,5.68c-.09-.08-.18-.13-.22-.21s0-.12.08-.17a3.34,3.34,0,0,0,.71-1.42c0-.13.07-.22.2-.26a1.52,1.52,0,0,1,1.11-.07c.43.15.49.41.15.7a3.13,3.13,0,0,1-1.31.69.59.59,0,0,0-.24.17c-.1.12-.16.27-.25.39A1.54,1.54,0,0,1,9.91,5.68Zm1.87-1.79a.75.75,0,0,0-1.08.63A1.35,1.35,0,0,0,11.78,3.89Z"/><path d="M11.94,5.44a3.65,3.65,0,0,0,.82-1.3.28.28,0,0,0,0-.12c0-.32.17-.4.42-.47a1.49,1.49,0,0,1,.91,0c.42.15.47.41.15.7A3.1,3.1,0,0,1,13,4.94a.72.72,0,0,0-.25.18c-.08.1-.13.24-.22.34s-.17.17-.26.16S12.05,5.51,11.94,5.44Zm2.18-1.55a.76.76,0,0,0-1.1.63A1.4,1.4,0,0,0,14.12,3.89Z"/><path d="M1.11,12.47l-.05-.2c2.11-.41,4.24-.69,6.36-.92a.13.13,0,0,1,0,.07c0,.05,0,.1,0,.14Z"/><path d="M21,4l-.52,0c.09-.37.2-.46.56-.46s.5,0,.74,0,.19.08.2.2S22,4,21.86,4c-.37-.05-.45.23-.58.46l-.41.74.4,0c0,.22-.09.35-.3.37l-1,.09c0-.32.08-.35.38-.41a.25.25,0,0,0,.14-.08L21.08,4Z"/><path d="M17.59,10.7V11l-5.74.24,0-.25Z"/><path d="M28.18,15.48l.16.19-.2.35c.34-.07.65-.15,1-.19a3,3,0,0,1,1.53.14,1.32,1.32,0,0,0,.56,0l1-.07-.2-.36.15-.15,0,0c.14.16.33.33.22.57s-.33.19-.53.2a4,4,0,0,0-.49,0,2.56,2.56,0,0,1-1.13-.09,3.15,3.15,0,0,0-1.87.12c-.15.05-.32.16-.45,0s0-.33.05-.48A2.17,2.17,0,0,1,28.18,15.48Z"/><path d="M32.44,11.73l0-.25,5.07.77,0,.25Z"/><path d="M27.68,11l0,.25L22.54,11v-.25Z"/><path d="M14.38,5.37c.18-.26.36-.5.52-.74a.23.23,0,0,0,0-.2c-.09-.18-.21-.34-.28-.52a.37.37,0,0,1,.05-.29c.06-.09.16-.1.22,0a6.08,6.08,0,0,0,.34.6l.65-.67a.39.39,0,0,1,.1-.08c.11-.07.23-.21.36,0s0,.28-.13.35A5.71,5.71,0,0,0,14.75,5.4C14.56,5.65,14.52,5.66,14.38,5.37Z"/><path d="M32.8,4.2l.77-.66a.59.59,0,0,1,.2-.12.22.22,0,0,1,.18.05.22.22,0,0,1,0,.19.41.41,0,0,1-.15.17A5.75,5.75,0,0,0,32.37,5.4c-.19.26-.23.26-.37,0,.17-.24.35-.48.51-.72a.33.33,0,0,0,0-.24c-.08-.17-.21-.33-.28-.51a.36.36,0,0,1,.06-.28c.06-.08.15-.1.22,0S32.72,4.06,32.8,4.2Z"/><path d="M17.9,15.55l.16-.14h.05a1.73,1.73,0,0,0,1.59.48c.64-.1,1.29-.12,1.93-.19.23,0,.45-.1.67-.15l.05.08c-.08.07-.14.17-.23.19a3.63,3.63,0,0,1-.65.16l-2.17.19A1.73,1.73,0,0,1,17.9,15.55Z"/><path d="M7.6,15.64l.21-.11a1,1,0,0,0,1.1.36c.73-.1,1.46-.14,2.2-.22a2.9,2.9,0,0,0,.47-.16l.25-.06.05.07c-.08.09-.14.21-.24.26a2,2,0,0,1-.53.14l-2.39.25A1.11,1.11,0,0,1,7.6,15.64Z"/></g><g class="cls-3"><path d="M1.26,17.11c.06.14.11.28.18.42a4.12,4.12,0,0,0,.94,1.39,2.05,2.05,0,0,0,2.28.49,5.93,5.93,0,0,0,1-.5,12.15,12.15,0,0,1,2.1-1.13,2.33,2.33,0,0,1,1.85,0c.57.25,1.15.47,1.7.74A3.29,3.29,0,0,1,12.79,20a1.42,1.42,0,0,0,1.19.74,4.35,4.35,0,0,0,.95,0,1,1,0,0,0,.69-.45A9.25,9.25,0,0,1,17,18.6a2.79,2.79,0,0,1,.42-.28.91.91,0,0,1,.86,0,4.28,4.28,0,0,1,.69.4,2.25,2.25,0,0,0,2.32.29c.64-.26,1.27-.56,1.91-.84.3-.12.59-.26.9-.36a.58.58,0,0,1,.77.31c.17.31.3.64.48.94a10.1,10.1,0,0,0,.77,1.26,1.79,1.79,0,0,0,2.37.55,10.79,10.79,0,0,0,2.59-1.74c.27-.22.56-.43.85-.63a.91.91,0,0,1,.86-.11A1.71,1.71,0,0,0,34,18.28a13.57,13.57,0,0,0,1.5-.69,2.32,2.32,0,0,0,.61-.6c.17-.2.28-.43.44-.64a.88.88,0,0,1,.32-.26.24.24,0,0,1,.36.25v.79c-.37-.11-.47-.08-.7.24s-.32.47-.48.7a1.74,1.74,0,0,1-.79.65c-.52.21-1,.44-1.58.64a1.24,1.24,0,0,1-.89,0,.91.91,0,0,0-.9.13c-.41.3-.81.62-1.2.94a9.64,9.64,0,0,1-2.18,1.4,1.81,1.81,0,0,1-2.45-.6,15,15,0,0,1-.85-1.46c-.12-.2-.21-.43-.32-.64a.64.64,0,0,0-.86-.33c-.31.1-.61.26-.91.38-.73.31-1.46.65-2.21.91a1.93,1.93,0,0,1-1.75-.27c-.25-.17-.51-.33-.77-.48a.93.93,0,0,0-1.11.07,12.49,12.49,0,0,0-1.11,1.07,3.87,3.87,0,0,0-.49.64,1.35,1.35,0,0,1-1.23.65,1.77,1.77,0,0,1-1.82-1A2.84,2.84,0,0,0,12,20a8.92,8.92,0,0,0-3-1.38,1.75,1.75,0,0,0-1.21.17c-.69.34-1.36.72-2,1.09a9.6,9.6,0,0,1-.95.5,2.13,2.13,0,0,1-2.47-.58,4.24,4.24,0,0,1-1-1.75,4.08,4.08,0,0,1-.06-.93Z"/><path d="M21.23,15.24c-.53,0-1.07,0-1.6,0a6.32,6.32,0,0,0-1,.13c-.14,0-.2,0-.21-.12,0-.37-.07-.73-.06-1.1,0-1.37.08-2.73.12-4.1a.85.85,0,0,0-.06-.31c-.1-.25,0-.42.27-.43a1.63,1.63,0,0,1,.31,0c.06.35-.21.19-.38.27.08.08.14.18.22.21a5.16,5.16,0,0,0,.85.25,1.44,1.44,0,0,0,.58,0,7,7,0,0,0,.75-.21c.18-.06.22-.12.24-.32l-.45-.06V9.18a4,4,0,0,1,.53.08c.21.07.25.28.14.51a1.22,1.22,0,0,0-.13.45c-.06,1.52-.1,3-.15,4.57Z"/><path d="M10.81,15.25a2.66,2.66,0,0,0-1.39-.09c-.45.06-.9.16-1.33.23,0-.82,0-1.64,0-2.46s0-1.92,0-2.88A.76.76,0,0,0,8,9.79c-.14-.29,0-.47.28-.47.09,0,.18,0,.29,0l0,.24H8.21l0,0c.06.06.12.15.2.18a4.47,4.47,0,0,0,.86.26,3,3,0,0,0,1.43-.3c.06,0,.09-.14.14-.22a.84.84,0,0,0-.2-.08,1,1,0,0,0-.25,0l0-.26a2.83,2.83,0,0,1,.53.07c.23.06.27.29.15.53a.79.79,0,0,0-.11.39c0,1.42,0,2.84,0,4.26C10.87,14.7,10.83,15,10.81,15.25Z"/><path d="M28.4,15.41V12.19c0-.7,0-1.41,0-2.11a.64.64,0,0,0-.07-.28c-.14-.29,0-.48.28-.48.09,0,.18,0,.3,0l-.05.25h-.32l0,0c.08.07.14.16.23.19a4.84,4.84,0,0,0,.82.25,2,2,0,0,0,.59,0c.2,0,.4-.11.61-.17A.9.9,0,0,0,31,9.73c.06,0,.08-.12.11-.19A.58.58,0,0,0,31,9.46a1.21,1.21,0,0,0-.27,0l0-.28a3.1,3.1,0,0,1,.56.1c.2.07.22.29.1.52a.94.94,0,0,0-.11.37l-.12,5.05c0,.2-.07.25-.27.22l-.3-.07A3,3,0,0,0,28.4,15.41Z"/><path d="M19.38,3.63l.2.6a.41.41,0,0,1-.22.51,3.58,3.58,0,0,1-1.38.5,1.18,1.18,0,0,1-.56,0,.41.41,0,0,1-.28-.6c.25-.55.51-1.1.78-1.64.12-.26.38-.3.63-.33a5.17,5.17,0,0,1,.88,0,.48.48,0,0,1,.36.2c0,.1-.05.27-.12.39A2.68,2.68,0,0,1,19.38,3.63ZM18.64,4V4A2.36,2.36,0,0,0,18,4.2a.71.71,0,0,0-.22.43s.18.18.27.17A1.22,1.22,0,0,0,19,4.39c.11-.14.07-.27-.11-.32A1.33,1.33,0,0,0,18.64,4Zm.55-1a.63.63,0,0,0-.94.55C18.62,3.51,19,3.5,19.19,3.05Z"/><path d="M9.54,6.37a3.33,3.33,0,0,1,1,1.38A1.29,1.29,0,0,1,10,9.33c-.51.36-.44.4-.87-.13a1.34,1.34,0,0,1-.2-1.48,5.1,5.1,0,0,1,.5-.8C9.52,6.75,9.63,6.6,9.54,6.37Z"/><path d="M24.52,3.72a1.21,1.21,0,0,0-.78.24,5.89,5.89,0,0,1-.71.48c.15.11.32.2.47.33s.18.36-.05.45c-.22-.19-.4-.38-.61-.54s-.45-.14-.63.15c-.08.12-.15.25-.24.37a.23.23,0,0,1-.38,0c-.07-.07-.08-.13,0-.22a3.38,3.38,0,0,0,.77-1.46.38.38,0,0,1,.19-.24,1.32,1.32,0,0,1,1.4.1s.11,0,.17,0l1.41-.17c.13,0,.21,0,.22.17s0,.22-.19.23h0c-.47,0-.69.24-.85.61L24.34,5c-.06.14-.15.3-.31.24S23.92,5,24,4.88C24.15,4.5,24.33,4.13,24.52,3.72Zm-.87-.17a.76.76,0,0,0-1.1.63A1.37,1.37,0,0,0,23.65,3.55Z"/><path d="M6.5,2.9,6,3.71c.28,0,.52,0,.76,0A.27.27,0,0,0,7,3.52c.09-.18.15-.38.24-.56a.28.28,0,0,1,.16-.16.43.43,0,0,1,.32,0s0,.21,0,.29c-.15.34-.32.68-.48,1L6.77,5a.56.56,0,0,1-.16.21.26.26,0,0,1-.23,0A.29.29,0,0,1,6.32,5c.1-.27.22-.53.34-.79l0-.13c-.3,0-.56,0-.83,0,0,0-.09.08-.12.13-.13.26-.25.52-.39.77a.42.42,0,0,1-.19.22.44.44,0,0,1-.32,0,.35.35,0,0,1,0-.3c.38-.68.76-1.36,1.16-2C6.2,2.54,6.32,2.56,6.5,2.9Z"/><path d="M20.08,6.87a3.35,3.35,0,0,1,.74,1.6,1.07,1.07,0,0,1-.9,1.13.31.31,0,0,1-.14-.07,1.41,1.41,0,0,1-.24-1.95A7.86,7.86,0,0,1,20.08,6.87Z"/><path d="M30.21,7.35a.73.73,0,0,1,.15.16,2.09,2.09,0,0,1,.28,1.58,1,1,0,0,1-.11.27.48.48,0,0,1-.71.26,2.2,2.2,0,0,1-.51-.25.44.44,0,0,1-.16-.61,3.92,3.92,0,0,1,.42-.64C29.76,7.87,30,7.63,30.21,7.35Z"/><path d="M27.67,5.26c-.31,0-.4-.12-.32-.34.19-.48.39-.95.59-1.42a.35.35,0,0,1,.18-.16,1.55,1.55,0,0,1,1.25,0,.4.4,0,0,1,.24.63,2.22,2.22,0,0,1-1.47,1.2Zm.17-.49c.13,0,.2,0,.25,0a3,3,0,0,0,1.15-.87c.09-.12,0-.23-.08-.31a.76.76,0,0,0-.83.15C28.15,4.05,28,4.39,27.84,4.77Z"/><path d="M8.76,4.87a1.41,1.41,0,0,0-1.26.34.18.18,0,0,1-.29,0,.21.21,0,0,1,0-.23,4,4,0,0,1,.52-.64c.31-.32.64-.61,1-.9A.66.66,0,0,1,9,3.29c.23,0,.35.06.32.29-.05.49-.14,1-.22,1.48,0,.14-.13.16-.24.14S8.71,5.09,8.74,5,8.75,4.92,8.76,4.87ZM8.14,4.5c.65,0,.84-.12.71-.57C8.51,4,8.37,4.26,8.14,4.5Z"/><path d="M31.09,4.87a1.47,1.47,0,0,0-1.28.34.29.29,0,0,1-.27,0s-.06-.18,0-.23A5.38,5.38,0,0,1,30,4.34c.31-.31.64-.61,1-.9a.78.78,0,0,1,.32-.15c.22,0,.33.06.31.29-.06.49-.14,1-.22,1.48,0,.14-.15.16-.27.13s-.1-.12-.08-.21S31.08,4.92,31.09,4.87Zm-.63-.36c.69,0,.81-.1.73-.58C30.83,4,30.7,4.26,30.46,4.51Z"/><path d="M26.42,4c.23,0,.41,0,.59-.05a.26.26,0,0,0,.15-.12c.07-.13.11-.28.17-.41a.37.37,0,0,1,.17-.16c.22-.07.3,0,.23.23a5.44,5.44,0,0,1-.22.5L27,5a.31.31,0,0,1-.1.15,1,1,0,0,1-.23.08c0-.08-.05-.16,0-.23s.19-.44.3-.7l-.65,0s-.1.08-.12.13c-.12.21-.23.43-.34.65a.23.23,0,0,1-.34.11c-.15-.08-.09-.2,0-.31.3-.54.61-1.08.93-1.63,0-.09.1-.2.24-.1a.18.18,0,0,1,.05.31A3.86,3.86,0,0,0,26.42,4Z"/><path d="M9.57,5.34c-.09-.08-.18-.13-.22-.21s0-.12.08-.17a3.34,3.34,0,0,0,.71-1.42c0-.13.07-.22.2-.26a1.52,1.52,0,0,1,1.11-.07c.43.15.49.41.15.7a3.13,3.13,0,0,1-1.31.69.59.59,0,0,0-.24.17c-.1.12-.16.27-.25.39A1.54,1.54,0,0,1,9.57,5.34Zm1.87-1.79a.75.75,0,0,0-1.08.63A1.35,1.35,0,0,0,11.44,3.55Z"/><path d="M11.6,5.1a3.65,3.65,0,0,0,.82-1.3.28.28,0,0,0,0-.12c0-.32.17-.4.42-.47a1.49,1.49,0,0,1,.91,0c.42.15.47.41.15.7a3.1,3.1,0,0,1-1.32.69.72.72,0,0,0-.25.18c-.08.1-.13.24-.22.34s-.17.17-.26.16S11.71,5.17,11.6,5.1Zm2.18-1.55a.76.76,0,0,0-1.1.63A1.4,1.4,0,0,0,13.78,3.55Z"/><path d="M.77,12.13l-.05-.2C2.83,11.52,5,11.24,7.08,11a.13.13,0,0,1,0,.07c0,.05,0,.1,0,.14Z"/><path d="M20.69,3.64l-.52,0c.09-.37.2-.46.56-.46s.5,0,.74,0,.19.08.2.2,0,.27-.15.24c-.37,0-.45.23-.58.46l-.41.74.4,0c0,.22-.09.35-.3.37l-1,.09c0-.32.08-.35.38-.41a.25.25,0,0,0,.14-.08l.62-1.09Z"/><path d="M17.25,10.36v.25l-5.74.24,0-.25Z"/><path d="M27.84,15.14l.16.19-.2.35c.34-.07.65-.15,1-.19a3,3,0,0,1,1.53.14,1.32,1.32,0,0,0,.56,0l1-.07-.2-.36.15-.15,0,0c.14.16.33.33.22.57s-.33.19-.53.2a4,4,0,0,0-.49,0,2.56,2.56,0,0,1-1.13-.09A3.15,3.15,0,0,0,28,15.9c-.15,0-.32.16-.45,0s0-.33.05-.48A2.17,2.17,0,0,1,27.84,15.14Z"/><path d="M32.1,11.39l0-.25,5.07.77,0,.25Z"/><path d="M27.34,10.66l0,.25-5.12-.27v-.25Z"/><path d="M14,5c.18-.26.36-.5.52-.74a.23.23,0,0,0,0-.2c-.09-.18-.21-.34-.28-.52a.37.37,0,0,1,.05-.29c.06-.09.15-.1.22.05a6.08,6.08,0,0,0,.34.6l.65-.67a.39.39,0,0,1,.1-.08c.11-.07.23-.21.36,0s0,.28-.13.35a5.71,5.71,0,0,0-1.45,1.57C14.22,5.31,14.18,5.32,14,5Z"/><path d="M32.46,3.86l.77-.66a.59.59,0,0,1,.2-.12.22.22,0,0,1,.18,0,.22.22,0,0,1,0,.19.41.41,0,0,1-.15.17A5.75,5.75,0,0,0,32,5.06c-.19.26-.23.26-.37,0,.17-.24.35-.48.51-.72a.33.33,0,0,0,0-.24c-.08-.17-.21-.33-.28-.51a.36.36,0,0,1,.06-.28c.06-.08.15-.1.22,0S32.38,3.72,32.46,3.86Z"/><path d="M17.56,15.21l.16-.14h.05a1.73,1.73,0,0,0,1.59.48c.64-.1,1.29-.12,1.93-.19.23,0,.45-.1.67-.15l.05.08c-.08.07-.14.17-.23.19a3.63,3.63,0,0,1-.65.16L19,15.84A1.73,1.73,0,0,1,17.56,15.21Z"/><path d="M7.26,15.3l.21-.11a1,1,0,0,0,1.1.36c.73-.1,1.46-.14,2.2-.22a2.9,2.9,0,0,0,.47-.16l.25-.06,0,.07c-.08.09-.14.21-.24.26a2,2,0,0,1-.53.14l-2.39.25A1.11,1.11,0,0,1,7.26,15.3Z"/></g><path class="cls-4" d="M1.46,17.31l.17.42a4.3,4.3,0,0,0,1,1.39,2,2,0,0,0,2.28.49,5.93,5.93,0,0,0,1-.5A12.15,12.15,0,0,1,7.93,18a2.33,2.33,0,0,1,1.85,0c.57.25,1.15.46,1.7.74A3.29,3.29,0,0,1,13,20.2a1.44,1.44,0,0,0,1.19.74,3.82,3.82,0,0,0,1-.05,1,1,0,0,0,.69-.44,8.55,8.55,0,0,1,1.41-1.65,2.79,2.79,0,0,1,.42-.28.91.91,0,0,1,.86,0,4.82,4.82,0,0,1,.69.41,2.27,2.27,0,0,0,2.32.29c.64-.26,1.27-.56,1.91-.84.3-.13.59-.26.9-.36a.58.58,0,0,1,.77.31c.17.31.3.64.48.94a10.1,10.1,0,0,0,.77,1.26,1.79,1.79,0,0,0,2.37.55,11.09,11.09,0,0,0,2.59-1.74,8.48,8.48,0,0,1,.85-.63.94.94,0,0,1,.86-.12,1.66,1.66,0,0,0,1.22-.07,13.57,13.57,0,0,0,1.5-.69,2.32,2.32,0,0,0,.61-.6c.17-.2.28-.44.44-.64a.88.88,0,0,1,.32-.26c.2-.09.36,0,.36.25v.79c-.37-.11-.47-.08-.7.24s-.32.47-.48.7a1.66,1.66,0,0,1-.79.64c-.53.22-1,.45-1.58.65a1.24,1.24,0,0,1-.89,0,.93.93,0,0,0-.91.13c-.41.3-.8.61-1.2.93A9.4,9.4,0,0,1,28.75,22a1.81,1.81,0,0,1-2.45-.6A15,15,0,0,1,25.45,20c-.12-.21-.21-.43-.33-.64a.62.62,0,0,0-.85-.33c-.31.1-.61.26-.91.38-.74.31-1.46.64-2.21.9A1.9,1.9,0,0,1,19.4,20c-.26-.17-.51-.33-.78-.48a.92.92,0,0,0-1.11.07,12.33,12.33,0,0,0-1.1,1.07,3.39,3.39,0,0,0-.49.64,1.39,1.39,0,0,1-1.23.65,1.79,1.79,0,0,1-1.83-1,2.68,2.68,0,0,0-.7-.8,8.92,8.92,0,0,0-3-1.38A1.73,1.73,0,0,0,7.9,19c-.68.34-1.35.72-2,1.08a8.54,8.54,0,0,1-.94.51A2.13,2.13,0,0,1,2.46,20a4.13,4.13,0,0,1-1-1.75,4.08,4.08,0,0,1-.06-.93Z"/><path class="cls-4" d="M21.43,15.44c-.53,0-1.07,0-1.6,0a6.16,6.16,0,0,0-1,.13c-.14,0-.2,0-.21-.12,0-.37-.07-.74-.07-1.1,0-1.37.09-2.74.13-4.1a.81.81,0,0,0-.06-.31c-.1-.25,0-.42.26-.43a1.71,1.71,0,0,1,.32,0c.06.35-.21.19-.38.27.08.08.14.17.22.2a4.38,4.38,0,0,0,.85.26,1.64,1.64,0,0,0,.58,0,7,7,0,0,0,.75-.21c.18-.06.22-.12.24-.32l-.45-.06V9.38a4,4,0,0,1,.53.08c.21.07.25.28.14.51a1.22,1.22,0,0,0-.13.45c-.06,1.52-.11,3-.15,4.57C21.42,15.13,21.43,15.27,21.43,15.44Z"/><path class="cls-4" d="M11,15.45a2.66,2.66,0,0,0-1.39-.09c-.45.06-.9.16-1.34.23,0-.82,0-1.64,0-2.46s0-1.92,0-2.88A.76.76,0,0,0,8.19,10c-.14-.29,0-.47.28-.48l.29,0,0,.24H8.41l0,.05c.06.06.12.15.19.18a4.57,4.57,0,0,0,.87.26A2.81,2.81,0,0,0,10.86,10c.07,0,.1-.14.15-.21a1.76,1.76,0,0,0-.2-.09h-.25l0-.26a4.08,4.08,0,0,1,.53.06c.23.07.27.29.14.54a.9.9,0,0,0-.1.39c0,1.42,0,2.84,0,4.26C11.07,14.9,11,15.17,11,15.45Z"/><path class="cls-4" d="M28.6,15.61V12.39c0-.71,0-1.41,0-2.12a.83.83,0,0,0-.07-.27c-.14-.29,0-.48.28-.49l.3,0L29,9.77h-.32l0,.05c.08.07.14.16.22.19a5.24,5.24,0,0,0,.83.25,1.89,1.89,0,0,0,.58,0,6.09,6.09,0,0,0,.61-.17,1,1,0,0,0,.29-.13c.05,0,.07-.12.11-.19a.71.71,0,0,0-.18-.08,1.17,1.17,0,0,0-.27,0l0-.27a3.12,3.12,0,0,1,.56.09c.2.08.22.3.1.53a.8.8,0,0,0-.11.37c-.05,1.68-.08,3.37-.13,5.05,0,.2-.06.25-.26.22l-.31-.07A2.9,2.9,0,0,0,28.6,15.61Z"/><path class="cls-4" d="M19.58,3.83l.2.59a.42.42,0,0,1-.22.52,3.82,3.82,0,0,1-1.38.5,1.32,1.32,0,0,1-.56,0,.41.41,0,0,1-.28-.6c.25-.55.51-1.1.78-1.64a.67.67,0,0,1,.63-.33,5.17,5.17,0,0,1,.88,0,.53.53,0,0,1,.36.21c0,.1,0,.27-.12.39A2.68,2.68,0,0,1,19.58,3.83Zm-.74.41v0a2.81,2.81,0,0,0-.62.17.77.77,0,0,0-.22.44s.18.17.26.17a1.24,1.24,0,0,0,.9-.41c.11-.14.06-.27-.11-.32Zm.55-1a.63.63,0,0,0-.94.55C18.81,3.71,19.21,3.7,19.39,3.25Z"/><path class="cls-4" d="M9.74,6.57A3.33,3.33,0,0,1,10.69,8a1.29,1.29,0,0,1-.52,1.58c-.52.35-.44.4-.87-.13a1.34,1.34,0,0,1-.2-1.48,4.53,4.53,0,0,1,.5-.81A.52.52,0,0,0,9.74,6.57Z"/><path class="cls-4" d="M24.72,3.92a1.1,1.1,0,0,0-.78.24,5.89,5.89,0,0,1-.71.48A4.48,4.48,0,0,1,23.7,5c.22.19.18.36-.06.45-.21-.19-.39-.38-.6-.54s-.45-.14-.63.15c-.08.12-.15.25-.24.37a.24.24,0,0,1-.39,0c-.06-.07-.08-.13,0-.23a3.17,3.17,0,0,0,.76-1.45.4.4,0,0,1,.2-.24,1.3,1.3,0,0,1,1.39.1.27.27,0,0,0,.18,0l1.41-.18c.13,0,.21,0,.22.18s0,.22-.19.23h0c-.47-.06-.69.23-.85.61l-.33.78c-.06.14-.15.3-.31.24s-.11-.25-.05-.38C24.35,4.7,24.53,4.32,24.72,3.92Zm-.87-.17a.76.76,0,0,0-1.1.62A1.36,1.36,0,0,0,23.85,3.75Z"/><path class="cls-4" d="M6.7,3.09l-.46.82L7,3.86a.23.23,0,0,0,.15-.14c.09-.19.16-.38.25-.56A.33.33,0,0,1,7.56,3a.49.49,0,0,1,.32,0s0,.2,0,.29c-.14.34-.31.68-.47,1L7,5.17a.6.6,0,0,1-.16.22c-.07,0-.19.08-.24,0a.23.23,0,0,1-.05-.23c.1-.27.22-.53.34-.79l0-.13-.82,0S6,4.4,6,4.46c-.13.25-.25.52-.39.77,0,.09-.11.19-.19.21a.39.39,0,0,1-.32,0,.35.35,0,0,1,0-.3c.38-.68.76-1.36,1.16-2C6.4,2.74,6.52,2.76,6.7,3.09Z"/><path class="cls-4" d="M20.28,7.06A3.39,3.39,0,0,1,21,8.67a1.06,1.06,0,0,1-.9,1.12s-.1,0-.14-.06a1.43,1.43,0,0,1-.25-1.95C19.89,7.54,20.08,7.32,20.28,7.06Z"/><path class="cls-4" d="M30.41,7.55a1.1,1.1,0,0,1,.15.16,2.12,2.12,0,0,1,.28,1.57,1,1,0,0,1-.11.28.49.49,0,0,1-.71.26,2.69,2.69,0,0,1-.51-.25A.43.43,0,0,1,29.35,9a3.92,3.92,0,0,1,.42-.64C30,8.07,30.18,7.82,30.41,7.55Z"/><path class="cls-4" d="M27.87,5.46c-.31,0-.41-.12-.32-.34.19-.48.39-1,.59-1.42a.35.35,0,0,1,.18-.16,1.55,1.55,0,0,1,1.25,0,.4.4,0,0,1,.24.63,2.27,2.27,0,0,1-1.47,1.2ZM28,5c.13,0,.2,0,.25,0a3,3,0,0,0,1.15-.87.21.21,0,0,0-.08-.31.78.78,0,0,0-.84.15C28.35,4.25,28.22,4.58,28,5Z"/><path class="cls-4" d="M9,5.07a1.37,1.37,0,0,0-1.26.34.18.18,0,0,1-.29,0,.21.21,0,0,1,0-.23,4,4,0,0,1,.52-.64c.31-.32.64-.61,1-.9a.67.67,0,0,1,.29-.15c.23,0,.36.06.33.29-.06.49-.14,1-.22,1.48,0,.13-.13.15-.25.14s-.13-.11-.1-.21S9,5.12,9,5.07ZM8.34,4.7c.65,0,.83-.12.71-.57C8.7,4.17,8.57,4.46,8.34,4.7Z"/><path class="cls-4" d="M31.28,5.07A1.45,1.45,0,0,0,30,5.41a.31.31,0,0,1-.28,0,.29.29,0,0,1,0-.23,4.55,4.55,0,0,1,.52-.64c.31-.31.64-.61,1-.9a.6.6,0,0,1,.32-.15c.22,0,.33.06.31.28-.06.5-.15,1-.23,1.48,0,.15-.14.17-.26.14s-.1-.12-.08-.22A.25.25,0,0,0,31.28,5.07Zm-.62-.36c.69,0,.81-.1.72-.58C31,4.16,30.9,4.46,30.66,4.71Z"/><path class="cls-4" d="M26.61,4.23l.6-.05a.26.26,0,0,0,.15-.12c.06-.13.1-.28.17-.41a.37.37,0,0,1,.17-.16c.22-.07.3,0,.23.22a4.61,4.61,0,0,1-.22.51l-.5,1s-.05.12-.1.15a1.69,1.69,0,0,1-.24.08c0-.08,0-.16,0-.23.08-.23.19-.45.3-.7l-.65,0a.25.25,0,0,0-.13.12l-.33.66a.23.23,0,0,1-.34.11c-.15-.09-.09-.2,0-.31.31-.54.62-1.09.94-1.63.05-.09.1-.2.24-.1s.16.16.05.31A5.33,5.33,0,0,0,26.61,4.23Z"/><path class="cls-4" d="M9.77,5.54c-.09-.08-.18-.13-.22-.21s0-.12.08-.18a3.42,3.42,0,0,0,.71-1.41c0-.13.07-.22.2-.26a1.58,1.58,0,0,1,1.11-.08c.43.16.49.42.15.71a3.1,3.1,0,0,1-1.32.69.63.63,0,0,0-.23.17c-.1.12-.16.27-.26.39A1.06,1.06,0,0,1,9.77,5.54Zm1.87-1.79a.76.76,0,0,0-1.09.63A1.39,1.39,0,0,0,11.64,3.75Z"/><path class="cls-4" d="M11.8,5.29A3.53,3.53,0,0,0,12.62,4a.19.19,0,0,0,0-.12c0-.32.17-.41.43-.47a1.42,1.42,0,0,1,.91,0c.41.15.47.41.15.7a3.28,3.28,0,0,1-1.32.69.61.61,0,0,0-.25.18c-.09.1-.13.24-.22.34a.46.46,0,0,1-.26.16C12,5.48,11.91,5.37,11.8,5.29ZM14,3.75a.76.76,0,0,0-1.1.62A1.37,1.37,0,0,0,14,3.75Z"/><path class="cls-4" d="M1,12.33l0-.2c2.11-.41,4.23-.69,6.36-.92a.13.13,0,0,1,0,.07.49.49,0,0,0,0,.13Z"/><path class="cls-4" d="M20.89,3.84l-.52,0c.09-.37.2-.46.56-.46h.74c.16,0,.19.08.2.2s0,.26-.15.24c-.37-.05-.46.22-.59.46l-.4.73.4,0c0,.22-.09.35-.31.36l-1,.1c0-.32.07-.36.38-.41A.25.25,0,0,0,20.32,5l.62-1.09Z"/><path class="cls-4" d="M17.45,10.56v.25l-5.74.24,0-.25Z"/><path class="cls-4" d="M28,15.34l.16.19-.2.34c.33-.06.65-.14,1-.18a2.89,2.89,0,0,1,1.54.14,1.32,1.32,0,0,0,.56,0l1-.07-.2-.36.15-.15h0c.14.17.33.33.22.58s-.33.19-.53.2a3.91,3.91,0,0,0-.49,0,2.41,2.41,0,0,1-1.13-.1,3.16,3.16,0,0,0-1.87.13c-.16,0-.32.16-.46,0s0-.33.06-.49A3.07,3.07,0,0,1,28,15.34Z"/><path class="cls-4" d="M32.3,11.59l0-.25,5.07.76,0,.25Z"/><path class="cls-4" d="M27.54,10.86l0,.25-5.12-.27v-.25Z"/><path class="cls-4" d="M14.24,5.23c.18-.26.36-.5.52-.74a.23.23,0,0,0,0-.2c-.09-.18-.21-.34-.28-.52a.36.36,0,0,1,0-.3c.06-.08.15-.09.22,0a5.24,5.24,0,0,0,.34.61l.65-.67a.39.39,0,0,1,.1-.08c.11-.07.23-.21.36,0s0,.29-.13.36a5.71,5.71,0,0,0-1.45,1.57C14.42,5.51,14.37,5.51,14.24,5.23Z"/><path class="cls-4" d="M32.66,4.06l.77-.66a.59.59,0,0,1,.2-.12.23.23,0,0,1,.18.05.21.21,0,0,1,0,.19.38.38,0,0,1-.14.17,5.6,5.6,0,0,0-1.46,1.57c-.19.26-.23.26-.37,0,.17-.24.35-.48.51-.72a.33.33,0,0,0,0-.24c-.08-.17-.21-.33-.28-.51a.36.36,0,0,1,.06-.28c.06-.08.15-.11.22,0A5,5,0,0,0,32.66,4.06Z"/><path class="cls-4" d="M17.75,15.41l.17-.15,0,0a1.76,1.76,0,0,0,1.59.48c.64-.1,1.29-.12,1.93-.19.23,0,.45-.1.67-.15l0,.08c-.07.07-.13.16-.22.19a3.63,3.63,0,0,1-.65.16L19.16,16A1.75,1.75,0,0,1,17.75,15.41Z"/><path class="cls-4" d="M7.46,15.5l.21-.11a1,1,0,0,0,1.09.36c.73-.1,1.47-.14,2.21-.22a2.9,2.9,0,0,0,.47-.16,1.83,1.83,0,0,1,.25-.06l.05.07c-.08.09-.15.21-.25.26a1.82,1.82,0,0,1-.52.14L8.58,16A1.12,1.12,0,0,1,7.46,15.5Z"/></g></g></svg>