<svg xmlns="http://www.w3.org/2000/svg" viewBox="0 0 38.55 24.66"><defs><style>.cls-1{isolation:isolate;}.cls-2{opacity:0.15;}.cls-2,.cls-3{mix-blend-mode:multiply;}.cls-4{fill:#fff;}</style></defs><title>convert-FIX-SVG-03</title><g class="cls-1"><g id="Layer_1" data-name="Layer 1"><g class="cls-2"><path d="M32.52,2.33c0,.35,0,.68,0,1,0,1.07.08,2.15.13,3.22,0,.15,0,.2-.18.24L27.68,8.37a.71.71,0,0,0-.18.08C28.66,8.27,29.81,8,31,7.9c0,.31,0,.6.05.89l.15,3.4c0,.16-.07.19-.18.24l-4.79,2-.19.09,4.18-.68.23,4.48-.9.13c-1.93.38-3.87.73-5.79,1.14-1.75.38-3.48.87-5.23,1.25-1.5.31-3,.57-4.54.79-1.25.18-2.52.28-3.78.42H9.88c0-.44-.06-.86-.08-1.29-.06-1-.11-1.95-.18-2.92a.29.29,0,0,1,.2-.33l3.78-1.69.22-.11-6.51.55L7.09,11.8l4.15-1.36-5.8.45c0-.22,0-.41,0-.61C5.34,9,5.28,7.79,5.23,6.54a.21.21,0,0,1,.08-.17C6,5.92,6.64,5.49,7.34,5V6.29c.54,0,1.08-.07,1.61-.13,1-.1,2-.18,3-.33,1.19-.18,2.37-.41,3.56-.64,1.76-.34,3.52-.72,5.28-1,2-.37,4-.73,6-1.05,1.78-.28,3.57-.52,5.36-.77A2.94,2.94,0,0,1,32.52,2.33ZM28.35,7.4v0h-.1l-2.08.34c-2.32.42-4.65.83-7,1.26a28.22,28.22,0,0,0-2.9.63c-1.57.46-3.11,1-4.66,1.52l-1.21.4a.3.3,0,0,0,.18,0c.65-.06,1.29-.12,1.94-.2,1-.12,2.07-.23,3.1-.41,1.58-.29,3.15-.62,4.72-.95A25.27,25.27,0,0,0,23,9.4c1.59-.52,3.16-1.13,4.73-1.71C27.92,7.61,28.13,7.5,28.35,7.4Zm-16.64,10v0l.54-.07c1.45-.22,2.91-.4,4.35-.68s2.71-.63,4.07-.95a12.58,12.58,0,0,0,1.73-.46c1.77-.71,3.52-1.47,5.28-2.21l.16-.08c-.85.15-1.69.32-2.53.5L18.39,15a10.66,10.66,0,0,0-1.58.37c-1.23.47-2.44,1-3.66,1.48ZM7.52,7.74l0-.07a.76.76,0,0,0-.91-.48.72.72,0,0,0-.46.86A3.27,3.27,0,0,0,7.27,9.84c.26-.18.52-.32.74-.5a1.93,1.93,0,0,0,.87-1.23.67.67,0,0,0-.71-.77A.74.74,0,0,0,7.52,7.74ZM30.27,4l-.13-.15a.74.74,0,0,0-.86-.13.67.67,0,0,0-.32.76,1.69,1.69,0,0,0,.23.49A3.33,3.33,0,0,0,30.5,6a.18.18,0,0,0,.17,0,11.44,11.44,0,0,0,.74-1,1.42,1.42,0,0,0,.24-1,.64.64,0,0,0-.85-.56A.8.8,0,0,0,30.27,4ZM13,8.88l0,.06a8.85,8.85,0,0,0,1.14-.23c-.14-.1-.3-.16-.34-.27a3.5,3.5,0,0,1-.15-.69l1-.18c0,.2.06.39.1.57s0,.33-.17.39c0,0,0,.06-.06.09a.45.45,0,0,0,.11,0l.91-.17a.5.5,0,0,0,.14-.08c-.22,0-.35-.1-.39-.32-.07-.46-.16-.92-.25-1.38a.27.27,0,0,1,.16-.31s.06-.06.12-.12c-.5,0-1.13.16-1.18.29.15,0,.32,0,.36.2s.07.41.12.64l-.49.09c-.16,0-.38.12-.46,0s-.09-.3-.13-.46,0-.35.19-.42c0,0,0-.06.06-.13l-1.2.21s.07.11.09.11c.28,0,.29.16.33.35.07.42.15.85.23,1.27,0,.15,0,.28-.16.33S13,8.85,13,8.88Zm3.74,11a1.29,1.29,0,0,0,1.35-1.22,1.26,1.26,0,0,0-1.29-1.24,1.29,1.29,0,0,0-1.31,1.25A1.2,1.2,0,0,0,16.74,19.91Zm6.79-1.22a1.3,1.3,0,0,0,1.33-1.24,1.26,1.26,0,0,0-1.27-1.23,1.29,1.29,0,0,0-1.32,1.26A1.21,1.21,0,0,0,23.53,18.69Zm-2.05-5.48,1-.18s.06,0,.09-.08-.07-.07-.11-.07-.21-.08-.23-.22c-.08-.4-.17-.81-.24-1.22,0-.12,0-.24.14-.29s0-.06.06-.1-.07,0-.11,0l-.82.16s-.07.05-.11.08l.11.07c.07,0,.18.05.2.1a6.19,6.19,0,0,1,.13.62l-.86.16c0-.17-.07-.31-.09-.46s0-.28.15-.34c0,0,0-.08.07-.15l-1.11.23c.07,0,.1.1.12.1.22,0,.25.12.29.28.07.37.15.75.22,1.12,0,.14,0,.28-.15.34,0,0-.05.06-.11.15l1.11-.21c-.06-.2-.37-.08-.36-.34a2.88,2.88,0,0,0-.11-.54l.87-.17c0,.19.07.34.1.5s.05.29-.15.34C21.55,13.07,21.54,13.13,21.48,13.21ZM15.42,14.3l0,.06,1.08-.2a1.48,1.48,0,0,1-.37-.31,1.71,1.71,0,0,1-.1-.51l0,0a1.17,1.17,0,0,1,.26.17l.52.49a.28.28,0,0,0,.18.09c.18,0,.36-.07.55-.11l-1-.83.12-.07a.48.48,0,0,0,.24-.56.47.47,0,0,0-.45-.36,1.08,1.08,0,0,0-.31,0l-1,.2s-.07.06-.11.09.09.06.13.06a.19.19,0,0,1,.23.19c.08.41.17.81.24,1.22,0,.15,0,.28-.16.33C15.48,14.23,15.45,14.27,15.42,14.3ZM11.6,13.07l0,.06s.08.06.12.06.21.09.23.21l.24,1.25a.2.2,0,0,1-.13.27S12,15,12,15s.09.05.14,0a6.06,6.06,0,0,0,.74-.15,3,3,0,0,0,.65-.23.42.42,0,0,0,.22-.5.46.46,0,0,0-.4-.39l-.24,0c.31-.24.38-.39.3-.62s-.27-.3-.63-.26S12,13,11.6,13.07Zm10.9-2.18V11l.14.06c.07,0,.17.09.19.15.1.44.19.88.26,1.32,0,.08-.06.17-.1.25a.94.94,0,0,1-.1.1c.05,0,.1.05.14,0,.36-.07.72-.13,1.08-.22a.9.9,0,0,0,.7-.93c0-.6-.4-1-.9-1A13.55,13.55,0,0,0,22.5,10.89Zm-.35-3.61V7.21a.66.66,0,0,1-.15,0c-.09,0-.21-.1-.24-.18s-.08-.42-.12-.62c.26-.09.51-.15.73-.25a.56.56,0,0,0-.25-1.07c-.2,0-.41,0-.61.06l-.92.17-.05.09.12,0c.26,0,.28.15.31.33l.24,1.31a.22.22,0,0,1-.12.28.45.45,0,0,0-.13.11l0,0Zm-2.84-.49A6,6,0,0,0,20,6.58a.56.56,0,0,0,.35-.67.54.54,0,0,0-.58-.42,9.25,9.25,0,0,0-.92.12l-.64.12c.08.06.11.11.14.1.21,0,.26.11.29.28.07.43.14.86.23,1.29,0,.18,0,.31-.16.38,0,0-.05.06-.07.09l0,0,1.15-.21V7.63s-.11,0-.15,0-.21-.11-.24-.19A3.8,3.8,0,0,1,19.31,6.79Zm5.6,9.29c.06.06.1.12.14.12.21,0,.26.13.29.29.06.32.11.64.17,1a.81.81,0,0,0,1,.7c.79-.09,1.06-.47.91-1.25,0-.24-.09-.49-.13-.73s0-.31.14-.4.05-.08.08-.12a.39.39,0,0,0-.15,0,4.71,4.71,0,0,0-.52.09s-.07,0-.11.08.07.07.11.07a.24.24,0,0,1,.24.22c.07.37.16.74.2,1.12s-.16.61-.61.67-.53-.1-.61-.48-.14-.72-.2-1.08A.23.23,0,0,1,26,16s.07-.08.1-.12a.45.45,0,0,0-.16,0ZM14.14,18.23c.38-.15.54-.1.75.21,0,0,.07.06.1.09s.06-.07,0-.1c0-.19-.08-.38-.12-.56l-2.18.41.1.64h.07a1.32,1.32,0,0,1,.2-.45,1.7,1.7,0,0,1,.47-.2c.12.6.22,1.14.32,1.69a.23.23,0,0,1-.17.29c-.05,0-.07.08-.11.12a7.76,7.76,0,0,0,1.12-.15s.06-.05.09-.08-.07-.07-.1-.07-.25,0-.28-.18C14.34,19.35,14.24,18.8,14.14,18.23Zm3-10.08.05,0,1-.19a.13.13,0,0,0,.09-.06s0-.07-.05-.07c-.27,0-.34-.23-.45-.4-.31-.48-.61-1-.91-1.44,0,0-.12-.12-.15-.11a.26.26,0,0,0-.13.16l-.39,1.73c0,.18-.07.36-.26.46,0,0,0,.08-.06.16l.8-.15,0,0a.5.5,0,0,0-.14-.08c-.16,0-.21-.1-.2-.26s0-.35.29-.34a.91.91,0,0,0,.23,0c.31-.06.32,0,.45.22s.07.26-.12.3C17.16,8.05,17.14,8.11,17.11,8.15Zm3.29,11,.05.06L21.51,19s.06,0,.1-.08-.08-.07-.11-.07-.24,0-.27-.17a1.17,1.17,0,0,1,0-.9c.08-.15.12-.33.2-.49s.19-.33.28-.5,0-.07,0-.09a.12.12,0,0,0-.1,0l-.63.13c0,.07.08.11.12.11s.19.1.16.2c-.08.28-.19.56-.29.87l-.55-.69c-.09-.11-.09-.19.06-.26s.06-.08.12-.16L19.57,17s-.05,0-.08.08l.09.07a1.61,1.61,0,0,1,.3.21c.18.2.34.44.53.63a1.14,1.14,0,0,1,.27.76c0,.07-.08.15-.14.22A.55.55,0,0,1,20.4,19.12ZM22.91,4.86v.07L23,5a1.07,1.07,0,0,1,.22.15,6.93,6.93,0,0,1,.69.85,1.17,1.17,0,0,1,.15.64c0,.09-.16.18-.29.32A6,6,0,0,0,25,6.73a.4.4,0,0,0-.15-.09c-.07,0-.18,0-.19-.09-.06-.22-.18-.48-.11-.67a3.28,3.28,0,0,1,.6-1.33s0,0,0-.09l-.74.13v.06a.19.19,0,0,0,.1,0c.19,0,.22.14.17.28s-.18.5-.29.77L24,5.22c-.2-.25-.2-.25,0-.45a.67.67,0,0,1,0-.1Zm-4.63,7c.11.53.19,1,.29,1.46a.23.23,0,0,1-.15.31s-.05.06-.08.09l0,.05,1.07-.21v-.07l-.15,0c-.07,0-.19-.08-.21-.14-.11-.49-.2-1-.31-1.53a1.57,1.57,0,0,1,.49,0c.11.05.19.19.29.29l.06,0-.14-.55-1.94.38.09.58h.07a1.12,1.12,0,0,1,.16-.37A1.72,1.72,0,0,1,18.28,11.9Zm7.62.43c-.13-.11-.27-.17-.3-.26s.06-.31.25-.35a2.84,2.84,0,0,0,.31-.06c.24-.07.25.13.32.25s0,.18-.13.21-.05.06-.07.09.08,0,.12,0l.76-.14.19-.06S27.3,12,27.28,12c-.22,0-.31-.17-.41-.32L26,10.34a.93.93,0,0,0-.15-.13c0,.06-.11.11-.12.18-.08.35-.13.7-.23,1s0,.71-.37,1c0,0,0,0,0,.1Zm3.21-.63,0-.06L29,11.58c-.06,0-.17-.05-.19-.09,0-.2-.16-.43-.11-.59a3,3,0,0,1,.52-1.18s0-.07,0-.12l-.67.14c0,.07.06.11.09.11s.2.1.17.22-.16.46-.25.72l-.49-.58c-.09-.12-.08-.2.06-.26s.05,0,.08-.06l0-.08-1,.19,0,.08c.39.08.52.44.77.68a1.14,1.14,0,0,1,.34.7c0,.14,0,.23-.14.29s-.06.07-.09.11l.13,0ZM15.25,14.42c-.09-.05-.13-.1-.18-.1s-.2-.08-.22-.2c-.09-.42-.18-.84-.24-1.26,0-.08.08-.17.13-.25s.06-.08.12-.17l-1,.19s-.07.06-.1.08.06.07.09.06c.2,0,.23.11.26.25l.21,1c.06.34.06.34-.19.53C14.21,14.65,14.57,14.61,15.25,14.42Z"/><path d="M35.83,20.62l-11-1,6.11-1-.22-4.22,5.34.75a2,2,0,0,1-.11.21c-.36.65-.71,1.29-1.08,1.94a.43.43,0,0,0,0,.35c.33.92.65,1.83,1,2.75C35.79,20.48,35.8,20.54,35.83,20.62Zm-2.22-1.81c-.14-.16-.29-.3-.41-.46a.26.26,0,0,1-.05-.19c0-.15.05-.3.05-.44a.38.38,0,0,1,.22-.35l1.27-.86a2,2,0,0,1-.25-.19,1.13,1.13,0,0,0-1-.45c-.29,0-.58-.07-.86-.1a.57.57,0,0,0-.29,0,7.06,7.06,0,0,0-.68.4c.27.3.51.6.78.85a.89.89,0,0,1,.31,1,.8.8,0,0,1,0,.15.21.21,0,0,1-.07.12l-.53.35-.47-.53c-.1-.11-.21-.22-.35-.09s-.08.25,0,.37.36.39.54.6a.27.27,0,0,0,.43,0l.58-.39.51.56a.24.24,0,0,0,.37,0c.23-.17.48-.32.71-.49s.21-.18.11-.33-.22-.1-.34,0Z"/><path d="M2.43,9.55c.47-.67.89-1.29,1.33-1.91a.25.25,0,0,0,0-.35c-.44-.6-.88-1.21-1.31-1.82l-.12-.18,4.82-.51-.24.15L4.82,6.13a.3.3,0,0,0-.18.33c.05.94.07,1.89.11,2.86Z"/><path d="M17.47,18.93c0,.28,0,.56-.31.71a.61.61,0,0,1-.84-.26,1.92,1.92,0,0,1-.22-1.2.55.55,0,0,1,.51-.51.58.58,0,0,1,.61.29A2,2,0,0,1,17.47,18.93Z"/><path d="M24.25,17.71c0,.28,0,.56-.32.7a.6.6,0,0,1-.83-.27,1.93,1.93,0,0,1-.23-1.2.56.56,0,0,1,.51-.49.55.55,0,0,1,.61.27A1.93,1.93,0,0,1,24.25,17.71Z"/><path d="M16,13.18c0-.24-.1-.46-.13-.68a.24.24,0,0,1,.13-.17.34.34,0,0,1,.44.26c.08.25,0,.43-.18.52Z"/><path d="M12.81,13.87c.1.08.26.15.29.25a.9.9,0,0,1,0,.49c0,.06-.18.12-.28.12s-.15-.11-.18-.18a2.45,2.45,0,0,1-.08-.37C12.52,14,12.54,13.93,12.81,13.87Z"/><path d="M12.5,13.79l-.15-.74c.16,0,.33,0,.4.06a.68.68,0,0,1,.13.42C12.87,13.72,12.69,13.76,12.5,13.79Z"/><path d="M24.28,11.85c0,.48-.13.68-.39.72s-.27,0-.3-.19c-.1-.45-.19-.9-.27-1.36,0,0,.07-.12.12-.14a.55.55,0,0,1,.66.33A5.71,5.71,0,0,1,24.28,11.85Z"/><path d="M21.6,6.19c0-.28-.09-.52-.13-.77a.2.2,0,0,1,.11-.13.38.38,0,0,1,.51.24c.1.29,0,.49-.23.58Z"/><path d="M19.27,6.62c-.05-.28-.1-.53-.13-.77a.17.17,0,0,1,.08-.14.39.39,0,0,1,.52.22c.11.28,0,.5-.19.6Z"/><path d="M17.06,7.3l-.61.12.18-.82Z"/><path d="M26.22,11.48l-.52.1.12-.65.05,0Z"/><path d="M32.72,2.53c0,.35,0,.68.05,1,0,1.07.08,2.14.13,3.22,0,.15,0,.2-.18.24L27.88,8.57a.71.71,0,0,0-.18.08c1.16-.19,2.3-.47,3.49-.55,0,.31,0,.6,0,.89.05,1.13.09,2.27.15,3.4,0,.16-.08.19-.18.23l-4.79,2-.19.09L30.41,14l.23,4.48-.9.13c-1.93.38-3.87.73-5.79,1.14-1.75.38-3.48.87-5.24,1.24-1.5.32-3,.57-4.53.8-1.26.18-2.52.28-3.79.41l-.31,0c0-.44-.06-.87-.08-1.29l-.18-2.92a.28.28,0,0,1,.2-.33L13.8,16l.22-.11-6.51.55L7.29,12l4.15-1.36-5.8.45c0-.22,0-.41,0-.61C5.54,9.23,5.48,8,5.43,6.74a.23.23,0,0,1,.08-.18l2-1.33V6.48c.54,0,1.08-.06,1.61-.12,1-.1,2-.18,3-.33,1.19-.18,2.37-.41,3.55-.64,1.77-.34,3.52-.72,5.29-1,2-.36,4-.72,6-1,1.78-.29,3.57-.52,5.36-.77A2.94,2.94,0,0,1,32.72,2.53ZM28.55,7.6v0h-.1c-.69.11-1.39.21-2.08.34q-3.49.62-7,1.26a29,29,0,0,0-2.91.63c-1.56.46-3.1,1-4.65,1.51l-1.21.41a.39.39,0,0,0,.18,0c.65-.07,1.29-.12,1.94-.2,1-.12,2.07-.23,3.1-.41,1.57-.29,3.14-.62,4.72-1a25.27,25.27,0,0,0,2.61-.58c1.59-.52,3.15-1.13,4.73-1.71C28.12,7.81,28.33,7.7,28.55,7.6Zm-16.64,10v0l.54-.07c1.45-.22,2.91-.4,4.34-.68s2.72-.63,4.07-.95a13.11,13.11,0,0,0,1.74-.46c1.77-.71,3.52-1.47,5.28-2.21l.16-.08c-.85.15-1.69.32-2.53.5l-6.92,1.47a10.37,10.37,0,0,0-1.58.37c-1.23.47-2.44,1-3.66,1.48ZM7.72,7.94l0-.08a.76.76,0,0,0-.91-.47.73.73,0,0,0-.47.86A3.28,3.28,0,0,0,7.47,10c.26-.18.51-.32.74-.5a1.91,1.91,0,0,0,.86-1.23.65.65,0,0,0-.7-.77A.73.73,0,0,0,7.72,7.94ZM30.47,4.21l-.13-.15a.75.75,0,0,0-.86-.13.67.67,0,0,0-.32.76,1.47,1.47,0,0,0,.23.49,3.33,3.33,0,0,0,1.31,1,.19.19,0,0,0,.17-.06c.25-.32.52-.63.74-1a1.43,1.43,0,0,0,.24-1A.64.64,0,0,0,31,3.63.78.78,0,0,0,30.47,4.21ZM13.19,9.08l0,.06a8.85,8.85,0,0,0,1.14-.23c-.14-.1-.3-.16-.35-.27A3.66,3.66,0,0,1,13.87,8l1-.18c0,.2.07.39.11.57s0,.32-.17.39c0,0,0,.06-.06.09l.1,0,.92-.17c.05,0,.09-.06.14-.09-.22,0-.36-.09-.39-.32-.08-.45-.17-.91-.25-1.37a.24.24,0,0,1,.16-.31s.06-.06.12-.12c-.5,0-1.13.16-1.18.29.15,0,.32,0,.36.2s.07.41.11.64l-.48.09c-.16,0-.38.12-.46,0s-.09-.3-.13-.46,0-.35.18-.43c0,0,0,0,.06-.12l-1.19.21s.07.11.08.1c.29,0,.3.16.33.36l.24,1.27c0,.15,0,.28-.17.33C13.25,9,13.22,9.05,13.19,9.08Zm3.75,11a1.29,1.29,0,0,0,1.34-1.23A1.25,1.25,0,0,0,17,17.65a1.29,1.29,0,0,0-1.31,1.25A1.2,1.2,0,0,0,16.94,20.11Zm6.78-1.23a1.29,1.29,0,0,0,1.34-1.24,1.25,1.25,0,0,0-1.27-1.22,1.29,1.29,0,0,0-1.32,1.26A1.19,1.19,0,0,0,23.72,18.88Zm-2-5.47c.38-.07.69-.12,1-.19,0,0,.06,0,.09-.07s-.07-.07-.11-.07-.21-.09-.24-.22c-.08-.41-.16-.81-.23-1.22,0-.12,0-.24.13-.29s.05-.07.07-.1-.08,0-.11,0l-.83.16s-.06,0-.1.08l.11.07c.07,0,.18.05.2.1a6.19,6.19,0,0,1,.13.62l-.86.16a4.64,4.64,0,0,1-.09-.46c0-.14,0-.28.15-.34,0,0,0-.08.07-.15L20,11.68c.06.06.1.11.12.11.22,0,.25.12.28.28.08.37.15.74.22,1.12,0,.14.05.28-.14.34,0,0-.05.06-.11.15l1.11-.21c-.06-.2-.37-.08-.36-.34a2.88,2.88,0,0,0-.11-.54l.87-.17c0,.19.07.34.1.5s.05.29-.15.34C21.75,13.27,21.73,13.33,21.68,13.41ZM15.62,14.5l0,.06,1.08-.2c-.14-.12-.3-.19-.37-.31a2.1,2.1,0,0,1-.11-.51l.05,0a1.64,1.64,0,0,1,.26.16c.18.16.35.34.52.5a.34.34,0,0,0,.18.09l.55-.11-1-.83.12-.07a.48.48,0,0,0,.24-.56.47.47,0,0,0-.45-.36,1.08,1.08,0,0,0-.31,0l-1,.2s-.07.06-.11.09.09.06.13.06.2.05.23.19l.24,1.22c0,.14,0,.28-.16.33C15.68,14.43,15.65,14.47,15.62,14.5ZM11.8,13.27l0,.06c.05,0,.09.06.13.06s.21.08.23.21l.24,1.25a.2.2,0,0,1-.13.27.27.27,0,0,0-.08.1.57.57,0,0,0,.14,0c.24,0,.5-.09.74-.15a3,3,0,0,0,.65-.23.43.43,0,0,0,.22-.5.47.47,0,0,0-.4-.39l-.25,0c.32-.25.39-.39.3-.62s-.26-.3-.62-.26S12.18,13.2,11.8,13.27Zm10.9-2.18v.09l.15.06c.06,0,.17.09.19.15.1.44.18.88.26,1.32,0,.08-.06.17-.11.24a.33.33,0,0,1-.09.11c.05,0,.1,0,.14,0,.36-.07.72-.13,1.08-.22A.9.9,0,0,0,25,12c-.06-.6-.4-1-.9-1A13.55,13.55,0,0,0,22.7,11.09Zm-.36-3.61V7.4a.44.44,0,0,1-.16,0c-.08,0-.2-.1-.23-.18s-.08-.42-.12-.62c.26-.09.51-.15.73-.25a.55.55,0,0,0,.3-.66.54.54,0,0,0-.55-.41,4.07,4.07,0,0,0-.61.06l-.92.17-.05.09.12,0c.25,0,.28.15.31.33.08.44.15.87.24,1.31a.23.23,0,0,1-.13.28.6.6,0,0,0-.12.11l0,.05ZM19.51,7a6,6,0,0,0,.68-.21.57.57,0,0,0,.35-.67A.53.53,0,0,0,20,5.69a9.25,9.25,0,0,0-.92.12c-.2,0-.39.07-.64.12.08.06.11.11.14.1.21,0,.26.11.29.28.07.43.14.86.23,1.29,0,.17,0,.31-.16.38,0,0,0,.06-.07.09l0,0L20,7.9V7.83a.66.66,0,0,1-.15,0c-.09-.06-.21-.11-.24-.19A4,4,0,0,1,19.51,7Zm5.6,9.29c.06,0,.1.12.14.12.21,0,.26.13.29.29.05.32.11.64.17,1a.81.81,0,0,0,1,.7c.78-.09,1.06-.47.91-1.25-.05-.25-.09-.49-.13-.73s0-.31.14-.4.05-.08.08-.12l-.15,0-.52.1S27,16,26.93,16s.07.07.11.07a.23.23,0,0,1,.24.22c.07.37.16.74.2,1.12s-.16.61-.61.67-.53-.1-.61-.49-.14-.72-.21-1.08a.24.24,0,0,1,.16-.28s.07-.08.1-.12-.11,0-.16,0ZM14.33,18.43c.39-.15.55-.1.76.21,0,0,.07.06.1.08s.06-.06.05-.09l-.12-.56-2.18.4.1.64.07,0a1.24,1.24,0,0,1,.2-.45,1.45,1.45,0,0,1,.47-.2c.11.59.22,1.14.31,1.68a.23.23,0,0,1-.16.3s-.08.08-.11.12a7.76,7.76,0,0,0,1.12-.15s.06-.05.09-.08-.07-.07-.1-.07-.26,0-.29-.18C14.54,19.55,14.44,19,14.33,18.43Zm3-10.08.05,0,1-.19a.18.18,0,0,0,.09-.06s0-.08-.05-.08c-.27,0-.34-.22-.45-.39-.31-.48-.61-1-.91-1.45,0,0-.12-.11-.15-.1a.26.26,0,0,0-.13.16L16.38,8a.59.59,0,0,1-.26.46s0,.08-.06.16l.8-.15,0-.05a.5.5,0,0,0-.14-.08c-.16,0-.22-.1-.2-.26s0-.35.29-.34a.91.91,0,0,0,.23,0c.3-.07.32-.06.45.22s.07.26-.13.3C17.36,8.25,17.33,8.31,17.3,8.35Zm3.3,11,0,.06,1.06-.19s.06-.05.09-.08-.07-.07-.1-.07a.23.23,0,0,1-.28-.17,1.22,1.22,0,0,1,0-.9c.08-.16.12-.33.2-.49s.19-.33.28-.5,0-.08,0-.09a.1.1,0,0,0-.1,0l-.63.13c0,.07.08.11.12.11a.15.15,0,0,1,.16.2c-.08.28-.19.56-.29.87l-.55-.69c-.09-.11-.09-.2.05-.26s.07-.09.12-.16l-1.05.18s-.05.05-.08.07l.09.08a1.61,1.61,0,0,1,.3.21c.18.2.34.44.53.63a1.12,1.12,0,0,1,.26.76c0,.07-.08.15-.13.22A.81.81,0,0,1,20.6,19.32ZM23.11,5.06v.06l.12.08a1.07,1.07,0,0,1,.22.15,6.25,6.25,0,0,1,.69.85,1.24,1.24,0,0,1,.15.64c0,.09-.16.18-.29.31a4.88,4.88,0,0,0,1.22-.23.55.55,0,0,0-.15-.08c-.07,0-.18,0-.19-.09-.06-.22-.18-.48-.11-.67a3.28,3.28,0,0,1,.6-1.33s0,0,0-.09l-.74.13v.06s.07.05.1.05c.19,0,.23.13.18.28s-.19.5-.29.77c-.16-.2-.31-.36-.44-.53s-.2-.25,0-.45c0,0,0,0,0-.1Zm-4.63,7c.1.53.19,1,.29,1.46a.23.23,0,0,1-.15.31s-.06.06-.08.09l0,0,1.07-.21v-.07l-.15,0c-.08,0-.19-.08-.21-.14-.11-.5-.2-1-.31-1.53a1.5,1.5,0,0,1,.48,0c.12,0,.2.19.3.29l.05-.05-.14-.55-1.94.38.1.58h.07c.05-.13.07-.29.16-.37A1.44,1.44,0,0,1,18.48,12.1Zm7.62.43c-.14-.12-.27-.17-.3-.27s.06-.31.25-.34l.31-.07c.23-.06.24.14.31.26s0,.18-.12.21-.05,0-.07.08.08,0,.11,0c.26,0,.52-.09.77-.15l.18,0c0-.05,0-.09-.06-.09-.22,0-.31-.17-.41-.32-.28-.43-.55-.86-.84-1.29a.44.44,0,0,0-.14-.13c-.05.06-.11.11-.12.17-.09.35-.14.71-.23,1.06s0,.71-.37.95c0,0,0,.05,0,.09Zm3.21-.64,0-.05-.14-.06c-.06,0-.18,0-.19-.09a1.2,1.2,0,0,1-.11-.59,2.89,2.89,0,0,1,.52-1.19s0-.06,0-.11l-.67.14c0,.07.06.11.09.11s.2.1.16.22-.15.46-.24.72l-.49-.59c-.09-.11-.09-.19.06-.25s.05,0,.07-.06l0-.08-1,.19,0,.07c.4.09.52.45.77.68a1.09,1.09,0,0,1,.34.71c0,.14,0,.23-.13.29s-.06.07-.09.1a.21.21,0,0,0,.13,0C28.7,12,29,12,29.31,11.89ZM15.45,14.62c-.09,0-.13-.1-.18-.1s-.2-.08-.23-.2c-.08-.42-.17-.84-.23-1.26,0-.08.08-.17.13-.25a1.44,1.44,0,0,1,.12-.17l-1,.19s-.07.05-.1.08.06.07.09.06c.2,0,.23.1.26.25.07.34.14.68.2,1s.07.33-.18.53C14.41,14.85,14.76,14.81,15.45,14.62Z"/><path d="M36,20.82l-11-1,6.11-1-.22-4.22,5.33.75c0,.08-.07.14-.1.21-.36.64-.71,1.29-1.08,1.94a.36.36,0,0,0,0,.35c.33.91.64,1.83,1,2.75ZM33.81,19l-.42-.46a.41.41,0,0,1,0-.19c0-.15.06-.3.06-.44a.37.37,0,0,1,.22-.35l1.26-.86a2.88,2.88,0,0,1-.24-.19,1.13,1.13,0,0,0-1-.45c-.29,0-.58-.07-.86-.1a.57.57,0,0,0-.29,0,7.06,7.06,0,0,0-.68.4,10.78,10.78,0,0,0,.78.85.89.89,0,0,1,.31,1,.8.8,0,0,1,0,.15.21.21,0,0,1-.07.12l-.53.35-.47-.53c-.1-.11-.21-.22-.36-.09s-.07.25,0,.37.36.39.53.6a.28.28,0,0,0,.44,0l.58-.39.51.56a.25.25,0,0,0,.37,0c.23-.17.47-.32.71-.49s.21-.18.1-.33-.21-.1-.33,0Z"/><path d="M2.63,9.75c.46-.67.89-1.3,1.33-1.92a.24.24,0,0,0,0-.34c-.45-.6-.88-1.21-1.31-1.82l-.12-.18L7.35,5l-.24.16L5,6.33a.3.3,0,0,0-.18.33c0,.94.07,1.89.11,2.86Z"/><path d="M17.67,19.13c0,.28,0,.56-.31.71a.61.61,0,0,1-.84-.26,2,2,0,0,1-.23-1.21.57.57,0,0,1,.52-.5.58.58,0,0,1,.61.29A1.92,1.92,0,0,1,17.67,19.13Z"/><path d="M24.44,17.91c0,.28,0,.56-.31.7a.62.62,0,0,1-.84-.27,2,2,0,0,1-.22-1.2.56.56,0,0,1,.51-.49.55.55,0,0,1,.61.27A1.81,1.81,0,0,1,24.44,17.91Z"/><path d="M16.22,13.38c0-.25-.1-.46-.13-.69a.23.23,0,0,1,.13-.16.33.33,0,0,1,.43.26.36.36,0,0,1-.18.51Z"/><path d="M13,14.07c.1.08.26.14.29.25a.9.9,0,0,1,0,.49c0,.06-.18.12-.28.12a.34.34,0,0,1-.18-.19,2.09,2.09,0,0,1-.08-.36C12.72,14.15,12.74,14.12,13,14.07Z"/><path d="M12.7,14l-.16-.74c.17,0,.34,0,.41.06a.61.61,0,0,1,.12.42C13.06,13.92,12.88,14,12.7,14Z"/><path d="M24.48,12.05c0,.48-.13.68-.39.72s-.27,0-.3-.19c-.1-.45-.19-.9-.27-1.36,0,0,.07-.13.12-.14a.55.55,0,0,1,.66.33C24.39,11.66,24.44,11.92,24.48,12.05Z"/><path d="M21.8,6.39c-.05-.28-.1-.52-.13-.77a.18.18,0,0,1,.11-.13.36.36,0,0,1,.5.24c.1.28,0,.49-.22.58Z"/><path d="M19.47,6.81c0-.27-.1-.52-.13-.76a.16.16,0,0,1,.08-.14.38.38,0,0,1,.52.22.41.41,0,0,1-.2.6Z"/><path d="M17.26,7.5l-.62.11.19-.81Z"/><path d="M26.42,11.68l-.53.1.12-.65,0,0Z"/></g><g class="cls-3"><path d="M32.38,2.19c0,.35,0,.68,0,1,0,1.07.08,2.14.13,3.22,0,.15,0,.2-.18.24L27.54,8.23a.71.71,0,0,0-.18.08c1.16-.19,2.3-.47,3.49-.55,0,.31,0,.6,0,.89.05,1.13.09,2.27.15,3.4,0,.16-.08.19-.18.23l-4.79,2-.19.09,4.18-.68.23,4.48-.91.13c-1.92.38-3.86.73-5.78,1.14-1.75.38-3.48.87-5.24,1.24-1.5.32-3,.57-4.53.8-1.26.18-2.52.28-3.79.41l-.31,0c0-.44-.06-.87-.08-1.29l-.18-2.92a.28.28,0,0,1,.2-.33l3.78-1.69.22-.11-6.51.55L7,11.66,11.1,10.3l-5.8.45c0-.22,0-.41,0-.61C5.2,8.89,5.14,7.65,5.09,6.4a.23.23,0,0,1,.08-.18l2-1.33V6.14c.54,0,1.08-.06,1.61-.12,1-.1,2-.18,3-.33,1.19-.18,2.37-.41,3.55-.64,1.77-.34,3.52-.72,5.29-1,2-.36,4-.72,6-1,1.78-.29,3.57-.52,5.36-.77A2.94,2.94,0,0,1,32.38,2.19ZM28.21,7.26v0h-.1c-.69.12-1.39.22-2.08.35q-3.49.62-7,1.26a29,29,0,0,0-2.91.63c-1.56.46-3.1,1-4.65,1.51l-1.21.41a.39.39,0,0,0,.18,0c.65-.07,1.29-.12,1.94-.2,1-.13,2.07-.23,3.1-.41,1.57-.29,3.14-.63,4.72-.95a25.27,25.27,0,0,0,2.61-.58c1.59-.52,3.15-1.13,4.73-1.71C27.78,7.47,28,7.36,28.21,7.26Zm-16.64,10v0l.54-.07c1.45-.22,2.91-.4,4.34-.68s2.72-.63,4.07-.95a13.11,13.11,0,0,0,1.74-.46c1.77-.71,3.52-1.47,5.28-2.21l.16-.08c-.85.15-1.69.32-2.53.5l-6.92,1.47a10.37,10.37,0,0,0-1.58.37c-1.23.46-2.44,1-3.66,1.48ZM7.38,7.6l0-.08a.76.76,0,0,0-.91-.47A.73.73,0,0,0,6,7.91,3.28,3.28,0,0,0,7.13,9.7c.26-.18.51-.32.74-.5A1.91,1.91,0,0,0,8.73,8,.65.65,0,0,0,8,7.2.73.73,0,0,0,7.38,7.6ZM30.13,3.87,30,3.72a.75.75,0,0,0-.86-.13.66.66,0,0,0-.32.76,1.47,1.47,0,0,0,.23.49,3.33,3.33,0,0,0,1.31,1,.19.19,0,0,0,.17-.06c.25-.32.52-.63.74-1a1.44,1.44,0,0,0,.24-1,.64.64,0,0,0-.85-.56A.78.78,0,0,0,30.13,3.87ZM12.85,8.74l0,.06A8.85,8.85,0,0,0,14,8.57c-.14-.1-.3-.16-.35-.27a3.66,3.66,0,0,1-.14-.69l1-.18c0,.2.07.39.11.57s0,.32-.17.39c0,0,0,.06-.06.09l.1,0,.92-.17c.05,0,.09-.06.14-.09-.22,0-.36-.09-.39-.32-.08-.45-.17-.91-.25-1.37a.24.24,0,0,1,.16-.31s.06-.06.12-.12c-.5,0-1.13.16-1.18.29.15,0,.32,0,.36.2s.07.41.11.64L14,7.35c-.16,0-.38.12-.46.05s-.09-.3-.13-.46,0-.35.18-.43c0,0,0,0,.06-.13l-1.2.22c.05.05.08.11.09.1.29,0,.3.16.33.36l.24,1.27c0,.15,0,.28-.17.33C12.91,8.67,12.88,8.71,12.85,8.74Zm3.74,11a1.29,1.29,0,0,0,1.35-1.23,1.25,1.25,0,0,0-1.28-1.23,1.29,1.29,0,0,0-1.31,1.25A1.2,1.2,0,0,0,16.59,19.77Zm6.79-1.23a1.3,1.3,0,0,0,1.34-1.24,1.25,1.25,0,0,0-1.27-1.22,1.29,1.29,0,0,0-1.32,1.26A1.19,1.19,0,0,0,23.38,18.54Zm-2-5.47c.38-.07.69-.12,1-.19,0,0,.06,0,.09-.07s-.07-.07-.11-.07-.21-.09-.24-.22c-.08-.41-.16-.81-.23-1.22,0-.12,0-.24.13-.29s.05-.07.07-.1-.08,0-.11,0l-.83.16a.35.35,0,0,0-.1.08l.11.07c.07,0,.18.05.2.1a6.19,6.19,0,0,1,.13.62l-.86.16a4.64,4.64,0,0,1-.09-.46c0-.14,0-.28.15-.34,0,0,0-.08.07-.15l-1.11.22c.06.06.1.11.12.11.22,0,.25.12.28.28.08.37.15.74.22,1.12,0,.14.05.28-.14.34,0,0-.05.06-.11.15l1.11-.21c-.06-.2-.37-.08-.36-.34a2.88,2.88,0,0,0-.11-.54l.87-.17c0,.19.07.34.1.5s.05.29-.15.34C21.41,12.93,21.39,13,21.34,13.07Zm-6.06,1.09,0,.06,1.08-.2c-.14-.12-.31-.19-.37-.31a2.1,2.1,0,0,1-.11-.51l.05,0a1.64,1.64,0,0,1,.26.16c.18.16.35.34.52.5a.34.34,0,0,0,.18.09l.55-.11-1-.83.12-.07a.48.48,0,0,0,.24-.56.47.47,0,0,0-.45-.36,1.08,1.08,0,0,0-.31,0l-1,.2s-.07.06-.11.09.09.06.13.06.2.05.23.19l.24,1.22c0,.14,0,.28-.16.33C15.34,14.09,15.31,14.13,15.28,14.16Zm-3.82-1.23,0,.06c.05,0,.09.06.13.06s.21.08.23.21L12,14.51a.2.2,0,0,1-.13.27.27.27,0,0,0-.08.1.57.57,0,0,0,.14,0c.24-.05.5-.09.74-.15a3,3,0,0,0,.65-.23.43.43,0,0,0,.22-.5.47.47,0,0,0-.4-.39l-.25,0c.32-.25.39-.39.3-.62s-.26-.3-.62-.26S11.84,12.86,11.46,12.93Zm10.9-2.18v.09l.15.06c.06,0,.17.09.19.15.1.44.18.88.26,1.32,0,.08-.06.17-.11.24a.33.33,0,0,1-.09.11c.05,0,.1,0,.14,0,.36-.07.72-.13,1.08-.22a.9.9,0,0,0,.7-.93c-.06-.6-.4-1-.9-1A13.55,13.55,0,0,0,22.36,10.75ZM22,7.14V7.06a.44.44,0,0,1-.16,0c-.08,0-.2-.1-.23-.18s-.08-.42-.12-.62c.26-.09.51-.15.73-.25a.55.55,0,0,0,.3-.66A.54.54,0,0,0,22,4.92a4.07,4.07,0,0,0-.61.06l-.92.17-.05.09.12,0c.25,0,.28.15.31.33.08.43.15.87.24,1.31a.23.23,0,0,1-.13.28.6.6,0,0,0-.12.11l0,0Zm-2.83-.49a6,6,0,0,0,.68-.21.57.57,0,0,0,.35-.67.53.53,0,0,0-.58-.42,9.25,9.25,0,0,0-.92.12c-.2,0-.39.07-.64.12.08.06.11.11.14.1.21,0,.26.11.29.28.07.43.14.86.23,1.29,0,.17,0,.3-.16.38,0,0,0,.06-.07.09l0,0,1.15-.22V7.49a.66.66,0,0,1-.15,0c-.09-.06-.21-.11-.24-.2A3.68,3.68,0,0,1,19.17,6.65Zm5.6,9.29c.06.05.1.12.14.12.21,0,.26.13.29.29.05.32.11.64.17,1a.81.81,0,0,0,1,.7c.78-.09,1.06-.47.91-1.25-.05-.25-.09-.49-.13-.73s0-.31.14-.4.05-.08.08-.12l-.15,0-.52.1s-.07.05-.11.08.07.07.11.07a.23.23,0,0,1,.24.22c.07.37.16.74.2,1.12s-.16.61-.61.67-.53-.1-.61-.49-.14-.72-.21-1.08a.24.24,0,0,1,.16-.28s.06-.08.1-.12-.11,0-.16,0ZM14,18.09c.39-.15.55-.1.76.21a.2.2,0,0,0,.1.08s.06-.06.05-.09l-.12-.56-2.18.4.1.64.07,0a1.24,1.24,0,0,1,.2-.45,1.45,1.45,0,0,1,.47-.2c.11.59.22,1.14.31,1.68a.23.23,0,0,1-.16.3c-.05,0-.08.08-.11.12a7.76,7.76,0,0,0,1.12-.15s.06-.05.09-.08-.07-.07-.1-.07-.26,0-.29-.18C14.2,19.21,14.1,18.65,14,18.09ZM17,8l.05,0,1-.19.09-.06s0-.08-.05-.08c-.27,0-.34-.22-.45-.39-.31-.48-.61-1-.91-1.45,0,0-.12-.11-.15-.1a.26.26,0,0,0-.13.16L16,7.67a.59.59,0,0,1-.26.46s0,.08-.06.16l.8-.15,0-.05A.5.5,0,0,0,16.41,8c-.16,0-.22-.1-.2-.26s0-.35.29-.34a.91.91,0,0,0,.23,0c.3-.07.32-.06.45.22s.07.26-.13.3C17,7.91,17,8,17,8Zm3.3,11,0,.06,1.06-.19s.06-.05.09-.08-.07-.07-.1-.07a.23.23,0,0,1-.28-.17,1.22,1.22,0,0,1,0-.9c.08-.16.12-.33.2-.49s.19-.33.28-.5,0-.08,0-.09a.1.1,0,0,0-.1,0l-.63.13c0,.07.08.11.12.11a.15.15,0,0,1,.16.2c-.08.28-.19.56-.29.87l-.55-.69c-.09-.11-.09-.2.05-.26s.07-.09.12-.16l-1.05.18s-.05.05-.08.07l.09.08a1.61,1.61,0,0,1,.3.21c.18.2.34.44.53.63a1.12,1.12,0,0,1,.26.76c0,.07-.08.15-.13.22A.81.81,0,0,1,20.26,19ZM22.77,4.72v.06l.12.08A1.07,1.07,0,0,1,23.1,5a6.25,6.25,0,0,1,.69.85,1.24,1.24,0,0,1,.15.64c0,.09-.16.18-.29.31a5.38,5.38,0,0,0,1.22-.23.55.55,0,0,0-.15-.08c-.07,0-.18,0-.19-.09-.06-.22-.18-.49-.11-.67A3.28,3.28,0,0,1,25,4.41s0,0,0-.09l-.74.13v.06s.07,0,.1,0c.19,0,.23.13.18.28s-.19.5-.29.77c-.16-.2-.31-.36-.44-.53s-.2-.25,0-.45c0,0,0,0,0-.1Zm-4.63,7c.1.53.19,1,.29,1.46a.23.23,0,0,1-.15.31s-.06.06-.08.09l0,.05,1.07-.21v-.07l-.15,0c-.08,0-.19-.08-.21-.14-.11-.5-.2-1-.31-1.53a1.5,1.5,0,0,1,.48,0c.12,0,.2.19.3.29l.05-.05-.14-.55-1.94.38.1.58h.07c.05-.13.07-.29.16-.37A1.44,1.44,0,0,1,18.14,11.76Zm7.62.43c-.14-.12-.27-.17-.3-.27s.06-.31.25-.34l.31-.07c.23-.06.24.14.31.26s0,.18-.12.21-.05,0-.07.08.08,0,.11,0c.26,0,.52-.09.77-.15l.18,0c0-.05,0-.09-.06-.09-.22,0-.31-.17-.41-.32-.28-.43-.55-.87-.84-1.29a.44.44,0,0,0-.14-.13c-.05.06-.11.11-.12.17-.09.35-.14.71-.23,1.06s0,.71-.37.95c0,0,0,.05,0,.09ZM29,11.55l0-.05-.14-.06c-.06,0-.18,0-.19-.09a1.2,1.2,0,0,1-.11-.59,2.89,2.89,0,0,1,.52-1.19s0-.06,0-.11l-.67.14c0,.07.06.11.09.11s.2.1.16.22-.15.46-.24.72l-.49-.59c-.09-.11-.09-.19.06-.25l.07-.06,0-.08-1,.19,0,.07c.4.09.52.45.77.68a1.11,1.11,0,0,1,.34.71c0,.14,0,.23-.13.29s-.06.07-.09.1.09,0,.13,0ZM15.11,14.28c-.09,0-.13-.1-.18-.1s-.2-.08-.23-.2c-.08-.42-.17-.84-.23-1.26,0-.08.08-.17.13-.25a1.44,1.44,0,0,1,.12-.17l-1,.19s-.07,0-.1.08.06.07.09.06c.2,0,.23.1.26.25.07.34.14.68.2,1s.07.33-.18.53C14.07,14.51,14.42,14.47,15.11,14.28Z"/><path d="M35.69,20.48l-11-1,6.11-1-.22-4.22,5.33.75c0,.08-.07.14-.1.21-.36.64-.71,1.29-1.08,1.94a.36.36,0,0,0,0,.35c.33.91.64,1.83,1,2.75Zm-2.22-1.81-.42-.46A.41.41,0,0,1,33,18c0-.15.06-.3.06-.44a.37.37,0,0,1,.22-.35l1.26-.86a2.88,2.88,0,0,1-.24-.19,1.13,1.13,0,0,0-1-.45c-.29,0-.58-.07-.86-.1-.1,0-.22,0-.29,0a7.06,7.06,0,0,0-.68.4,10.78,10.78,0,0,0,.78.85.89.89,0,0,1,.31,1,.8.8,0,0,1,0,.15.21.21,0,0,1-.07.11c-.17.13-.35.24-.53.36L31.5,18c-.1-.11-.21-.22-.36-.09s-.07.25,0,.37.36.39.53.6a.28.28,0,0,0,.44,0l.58-.39.51.56a.25.25,0,0,0,.37,0c.23-.17.47-.33.71-.49s.21-.18.1-.33-.21-.1-.33,0Z"/><path d="M2.29,9.41c.46-.67.89-1.3,1.33-1.92a.24.24,0,0,0,0-.34c-.45-.6-.88-1.21-1.32-1.82l-.11-.18L7,4.63l-.24.16L4.68,6a.3.3,0,0,0-.18.33c0,.94.07,1.89.11,2.86Z"/><path d="M17.33,18.79c0,.28,0,.56-.31.71a.61.61,0,0,1-.84-.26A2,2,0,0,1,16,18a.57.57,0,0,1,.52-.5.58.58,0,0,1,.61.29A1.92,1.92,0,0,1,17.33,18.79Z"/><path d="M24.1,17.57c0,.28,0,.56-.31.7A.62.62,0,0,1,23,18a2,2,0,0,1-.22-1.2.62.62,0,0,1,1.12-.22A1.81,1.81,0,0,1,24.1,17.57Z"/><path d="M15.88,13c-.05-.25-.1-.46-.13-.69,0,0,.07-.14.13-.16a.33.33,0,0,1,.43.26.36.36,0,0,1-.18.51Z"/><path d="M12.67,13.73c.1.08.26.14.29.25a.9.9,0,0,1,0,.49c0,.06-.18.12-.28.12a.34.34,0,0,1-.18-.19,1.45,1.45,0,0,1-.08-.36C12.38,13.81,12.4,13.78,12.67,13.73Z"/><path d="M12.36,13.65l-.16-.74c.17,0,.34,0,.41.06a.61.61,0,0,1,.12.42C12.72,13.58,12.54,13.62,12.36,13.65Z"/><path d="M24.14,11.71c0,.48-.13.68-.39.72s-.27,0-.3-.19c-.1-.45-.19-.9-.27-1.36,0,0,.07-.13.12-.14a.55.55,0,0,1,.66.33C24.05,11.32,24.1,11.58,24.14,11.71Z"/><path d="M21.46,6.05c-.05-.28-.1-.52-.13-.77a.18.18,0,0,1,.11-.13.36.36,0,0,1,.5.24c.1.28,0,.49-.22.58Z"/><path d="M19.13,6.47C19.08,6.2,19,6,19,5.71a.16.16,0,0,1,.08-.14.38.38,0,0,1,.52.22.41.41,0,0,1-.2.6Z"/><path d="M16.92,7.16l-.62.11.19-.81Z"/><path d="M26.08,11.34l-.53.1.12-.65,0,0Z"/></g><path class="cls-4" d="M32.58,2.39c0,.34,0,.68.05,1,0,1.07.08,2.14.13,3.21,0,.16,0,.21-.18.25L27.73,8.43l-.17.07c1.16-.18,2.3-.46,3.49-.54,0,.31,0,.6.05.88,0,1.14.09,2.28.15,3.41,0,.16-.08.19-.18.23l-4.79,2-.19.09,4.18-.68.23,4.47c-.31.05-.61.08-.91.14-1.93.37-3.86.72-5.78,1.14-1.75.38-3.48.87-5.24,1.24-1.5.32-3,.57-4.53.79-1.26.19-2.53.29-3.79.42l-.31,0c0-.44-.06-.87-.08-1.3l-.18-2.91a.28.28,0,0,1,.2-.33l3.78-1.69.22-.11-6.51.55-.22-4.47L11.3,10.5,5.5,11c0-.22,0-.42,0-.61C5.4,9.09,5.34,7.85,5.29,6.6a.23.23,0,0,1,.08-.18l2-1.33V6.34c.54,0,1.07-.07,1.6-.12,1-.1,2-.18,3-.33,1.19-.18,2.37-.41,3.55-.64,1.77-.34,3.52-.72,5.29-1q3-.56,6-1c1.78-.29,3.57-.52,5.36-.77A2.94,2.94,0,0,1,32.58,2.39ZM28.4,7.46v0H28.3c-.7.12-1.39.22-2.09.35L19.25,9a29,29,0,0,0-2.91.63c-1.56.46-3.1,1-4.65,1.51l-1.21.4a.4.4,0,0,0,.18,0c.64-.07,1.29-.12,1.93-.2,1-.13,2.08-.23,3.1-.42,1.58-.28,3.15-.62,4.72-.94A22.63,22.63,0,0,0,23,9.45c1.59-.52,3.15-1.12,4.73-1.7C28,7.67,28.19,7.56,28.4,7.46Zm-16.63,10v0l.54-.07c1.45-.22,2.91-.4,4.34-.68s2.72-.63,4.07-1a12.55,12.55,0,0,0,1.73-.45c1.77-.71,3.53-1.47,5.29-2.21L27.9,13c-.85.15-1.69.32-2.53.5L18.45,15a11.74,11.74,0,0,0-1.58.38c-1.23.46-2.44,1-3.66,1.48ZM7.57,7.8s0-.06,0-.08a.77.77,0,0,0-.91-.47.73.73,0,0,0-.47.86A3.22,3.22,0,0,0,7.33,9.89c.26-.17.51-.32.74-.49a2,2,0,0,0,.86-1.23.65.65,0,0,0-.7-.77A.76.76,0,0,0,7.57,7.8ZM30.33,4.07l-.13-.16a.75.75,0,0,0-.86-.12.66.66,0,0,0-.32.76,1.47,1.47,0,0,0,.23.49,3.22,3.22,0,0,0,1.31,1,.18.18,0,0,0,.17,0c.25-.32.52-.63.74-1a1.44,1.44,0,0,0,.24-1,.64.64,0,0,0-.86-.56A.79.79,0,0,0,30.33,4.07ZM13.05,8.94l0,.06a11,11,0,0,0,1.14-.23c-.14-.11-.31-.16-.35-.27a4.66,4.66,0,0,1-.15-.69l1-.18c0,.2.07.39.11.57s0,.32-.17.39c0,0,0,.06-.06.09s.07,0,.1,0l.92-.16c.05,0,.09-.06.14-.09-.22,0-.36-.09-.39-.32-.08-.46-.17-.91-.25-1.37a.25.25,0,0,1,.15-.31.64.64,0,0,0,.13-.12c-.51,0-1.13.16-1.18.29.15,0,.32,0,.36.2s.07.41.11.64l-.48.09c-.16,0-.38.12-.46,0s-.09-.31-.14-.47,0-.34.19-.42c0,0,0,0,.06-.13l-1.2.22s.07.1.09.1c.29,0,.3.16.33.36l.24,1.26c0,.16,0,.28-.17.34S13.08,8.91,13.05,8.94Zm3.74,11a1.3,1.3,0,0,0,1.35-1.23,1.24,1.24,0,0,0-1.28-1.23,1.29,1.29,0,0,0-1.31,1.25A1.2,1.2,0,0,0,16.79,20Zm6.79-1.23a1.3,1.3,0,0,0,1.34-1.24,1.25,1.25,0,0,0-1.28-1.22,1.28,1.28,0,0,0-1.31,1.26A1.2,1.2,0,0,0,23.58,18.74Zm-2-5.47,1-.19s.06,0,.08-.07-.07-.07-.1-.07-.21-.09-.24-.22L22,11.5c0-.13,0-.24.14-.29s.05-.07.07-.11-.08,0-.11,0l-.83.16s-.07,0-.1.08l.11.07c.06,0,.18,0,.2.1a6,6,0,0,1,.13.61l-.86.17c0-.17-.07-.32-.1-.46s0-.28.16-.34c0,0,0-.08.07-.15l-1.11.22c.06.06.09.11.12.11.22,0,.25.12.28.28.08.37.15.74.22,1.12,0,.14.05.28-.14.34,0,0-.05.06-.11.15l1.11-.22c-.06-.19-.37-.07-.37-.33a2.29,2.29,0,0,0-.1-.55l.86-.16c0,.18.08.34.11.5s.05.29-.15.34C21.61,13.12,21.59,13.18,21.54,13.27Zm-6.06,1.09,0,.06,1.08-.2c-.14-.12-.3-.19-.36-.31a1.72,1.72,0,0,1-.11-.51l.05,0a1.4,1.4,0,0,1,.26.16c.18.16.34.34.52.5a.27.27,0,0,0,.18.08c.18,0,.36-.06.55-.1l-1-.83.12-.07a.51.51,0,0,0,.24-.56.47.47,0,0,0-.45-.36,1.08,1.08,0,0,0-.31,0l-1,.2s-.07.06-.11.09.09.06.13.06.2.05.23.18c.07.41.16.82.24,1.22,0,.15,0,.29-.16.34S15.51,14.33,15.48,14.36Zm-3.82-1.23,0,.06s.09.06.13.06.2.08.23.21l.24,1.25a.21.21,0,0,1-.13.27l-.09.09a.48.48,0,0,0,.14,0L12.9,15a3,3,0,0,0,.65-.23.43.43,0,0,0,.22-.51.47.47,0,0,0-.4-.38l-.25,0c.32-.25.39-.4.3-.62s-.26-.31-.62-.26S12,13.06,11.66,13.13ZM22.56,11V11a.59.59,0,0,1,.14.06c.07,0,.18.08.2.15.1.44.18.88.26,1.32,0,.07-.07.16-.11.24a.48.48,0,0,1-.09.11s.1.05.14,0c.36-.07.72-.13,1.08-.22a.9.9,0,0,0,.7-.93c-.06-.6-.4-1-.9-1A11.3,11.3,0,0,0,22.56,11ZM22.2,7.34V7.26a.41.41,0,0,1-.16,0c-.08,0-.2-.09-.23-.17s-.08-.42-.12-.62c.26-.09.51-.15.73-.25a.54.54,0,0,0,.29-.66.53.53,0,0,0-.54-.41,3.08,3.08,0,0,0-.61.06c-.31,0-.62.11-.92.17l0,.08a.28.28,0,0,0,.12,0c.25,0,.28.15.31.33.08.43.15.87.24,1.31a.22.22,0,0,1-.13.27A.68.68,0,0,0,21,7.5l0,0Zm-2.84-.49a5.63,5.63,0,0,0,.69-.21A.57.57,0,0,0,20.39,6a.51.51,0,0,0-.57-.42c-.31,0-.62.07-.92.11s-.39.08-.64.13c.08.06.11.1.13.1.22,0,.27.11.3.28.07.43.14.86.23,1.29,0,.17,0,.3-.16.38,0,0-.05.06-.07.09l0,.05,1.15-.22V7.69a.66.66,0,0,1-.15,0c-.09-.06-.21-.11-.24-.2A5.49,5.49,0,0,1,19.36,6.85ZM25,16.14c.06.05.1.12.14.11.21,0,.25.14.28.3.06.32.11.64.18.95a.8.8,0,0,0,1,.71c.79-.09,1.07-.48.92-1.26-.05-.24-.09-.48-.13-.72s-.05-.31.14-.4c0,0,.05-.08.08-.12l-.15,0-.52.09s-.08.06-.11.09a.41.41,0,0,0,.11.07.23.23,0,0,1,.24.22,10.47,10.47,0,0,1,.19,1.12c.05.41-.15.61-.6.67s-.53-.1-.62-.49-.13-.72-.2-1.08a.23.23,0,0,1,.16-.28s.06-.08.1-.13a.5.5,0,0,0-.17,0ZM14.19,18.29c.39-.15.55-.1.75.21l.11.08a.28.28,0,0,0,0-.09c0-.19-.08-.38-.13-.56l-2.17.4.1.64H13a1.36,1.36,0,0,1,.19-.44,1.61,1.61,0,0,1,.48-.2L14,20a.23.23,0,0,1-.16.3s-.08.08-.11.12a7.76,7.76,0,0,0,1.12-.15s.06-.06.09-.08-.07-.07-.1-.07-.26,0-.29-.18C14.4,19.4,14.3,18.85,14.19,18.29Zm3-10.08.05,0,1-.19A.28.28,0,0,0,18.32,8s0-.07-.05-.07c-.27,0-.34-.22-.45-.39L16.9,6.08S16.79,6,16.76,6a.24.24,0,0,0-.13.15l-.39,1.73c0,.18-.07.37-.26.46,0,0,0,.09-.07.17l.81-.15,0-.05a.46.46,0,0,0-.13-.08c-.16,0-.22-.1-.21-.26s.05-.35.3-.34a.66.66,0,0,0,.23,0c.3-.06.32-.05.44.23s.08.26-.12.3C17.22,8.11,17.19,8.17,17.16,8.21Zm3.3,11,.05.07,1.06-.19s.06-.05.09-.08-.07-.07-.1-.07a.23.23,0,0,1-.28-.17,1.22,1.22,0,0,1,0-.9c.08-.16.12-.34.19-.49s.2-.34.29-.5,0-.08,0-.09a.14.14,0,0,0-.1-.05l-.63.14a.16.16,0,0,0,.12.11.14.14,0,0,1,.15.2c-.08.28-.18.55-.29.87l-.54-.69c-.1-.12-.09-.2,0-.26s.07-.09.12-.17l-1.06.18a.29.29,0,0,0-.07.08l.08.08a1.69,1.69,0,0,1,.31.21c.18.2.33.43.53.63a1.09,1.09,0,0,1,.26.75c0,.08-.08.16-.13.23A.49.49,0,0,1,20.46,19.17ZM23,4.92,23,5l.12.08a.91.91,0,0,1,.23.15,6.25,6.25,0,0,1,.69.85,1.34,1.34,0,0,1,.15.64c0,.08-.16.18-.29.31a6.12,6.12,0,0,0,1.22-.23.37.37,0,0,0-.15-.08c-.07,0-.18,0-.19-.09-.06-.23-.18-.49-.12-.67a3.3,3.3,0,0,1,.61-1.33s0,0,0-.09l-.74.13v.06l.1,0c.19,0,.23.13.18.28s-.19.49-.29.77c-.17-.2-.31-.36-.44-.53s-.2-.25,0-.45c0,0,0,0,0-.1Zm-4.63,7c.1.52.19,1,.29,1.46,0,.15,0,.25-.15.3a.9.9,0,0,0-.09.1l0,0,1.07-.21v-.07l-.15,0c-.08,0-.2-.08-.21-.14-.11-.5-.2-1-.31-1.53a1.51,1.51,0,0,1,.48,0c.12,0,.2.18.3.28l.05,0-.14-.55L17.58,12l.1.58h.07c.05-.13.07-.29.16-.37A1.44,1.44,0,0,1,18.34,12Zm7.61.42c-.13-.11-.26-.17-.29-.26s.06-.31.25-.34l.31-.07c.23-.07.24.14.31.26s0,.18-.12.21-.05.05-.07.08a.25.25,0,0,0,.11,0l.77-.15.18-.05s0-.09-.06-.09c-.22,0-.31-.17-.41-.32l-.84-1.3c0-.05-.1-.08-.15-.12a.88.88,0,0,0-.12.17c-.08.35-.13.71-.22,1.05s0,.72-.37,1c0,0,0,.05,0,.09Zm3.22-.63,0-.05-.14-.07c-.07,0-.18,0-.19-.09s-.17-.42-.11-.58a2.77,2.77,0,0,1,.52-1.19s0-.06,0-.11l-.67.14c0,.07.06.11.09.1s.2.11.16.23-.15.46-.24.72l-.49-.59c-.1-.11-.09-.2.06-.26s0,0,.07-.06l0-.07-1,.19,0,.07c.4.09.52.45.77.68a1.11,1.11,0,0,1,.34.71c0,.14,0,.22-.13.28s-.06.08-.09.11.09,0,.13,0ZM15.31,14.48c-.09-.05-.14-.1-.18-.1a.22.22,0,0,1-.23-.2c-.08-.42-.17-.84-.24-1.27,0-.07.09-.16.13-.24a1.1,1.1,0,0,1,.13-.17l-1,.19s-.06.05-.09.08.06.06.09.06c.19,0,.23.1.26.25.06.34.14.68.2,1s.07.33-.19.53C14.27,14.71,14.62,14.66,15.31,14.48Z"/><path class="cls-4" d="M35.89,20.68l-11-1,6.11-1-.23-4.21,5.34.75-.1.21-1.08,1.94a.36.36,0,0,0,0,.35c.33.91.64,1.83,1,2.75Zm-2.22-1.81c-.15-.16-.29-.31-.42-.47a.29.29,0,0,1,0-.19c0-.14.06-.29.06-.44a.37.37,0,0,1,.21-.34c.41-.27.82-.55,1.27-.87a1,1,0,0,1-.24-.18,1.17,1.17,0,0,0-1-.46c-.28,0-.57-.06-.86-.09a.53.53,0,0,0-.28,0,7.06,7.06,0,0,0-.68.4,10.78,10.78,0,0,0,.78.85.89.89,0,0,1,.31,1,.58.58,0,0,1,0,.14.27.27,0,0,1-.07.12l-.53.36-.47-.53c-.1-.11-.21-.23-.36-.09s-.07.25,0,.36l.53.6a.28.28,0,0,0,.44,0l.58-.39.51.56a.24.24,0,0,0,.36,0l.72-.49c.12-.08.21-.19.1-.33s-.22-.1-.33,0Z"/><path class="cls-4" d="M2.49,9.61c.46-.67.89-1.3,1.33-1.92a.25.25,0,0,0,0-.34c-.45-.61-.88-1.22-1.32-1.82l-.12-.18,4.83-.52L7,5,4.88,6.19a.29.29,0,0,0-.18.33c0,.94.07,1.88.11,2.86Z"/><path class="cls-4" d="M17.52,19c0,.28,0,.56-.3.7a.61.61,0,0,1-.84-.25,2,2,0,0,1-.23-1.21.56.56,0,0,1,.52-.5.53.53,0,0,1,.6.29A1.74,1.74,0,0,1,17.52,19Z"/><path class="cls-4" d="M24.3,17.77c0,.28,0,.56-.31.7a.61.61,0,0,1-.84-.27A2,2,0,0,1,22.93,17a.53.53,0,0,1,.51-.48.55.55,0,0,1,.61.27A1.9,1.9,0,0,1,24.3,17.77Z"/><path class="cls-4" d="M16.08,13.24c0-.25-.1-.47-.13-.69,0-.05.07-.14.13-.16a.33.33,0,0,1,.43.25c.08.25,0,.44-.18.52Z"/><path class="cls-4" d="M12.87,13.93c.1.08.25.14.29.24a.94.94,0,0,1,0,.5c0,.06-.18.12-.28.12a.34.34,0,0,1-.18-.19,1.43,1.43,0,0,1-.08-.37C12.58,14,12.6,14,12.87,13.93Z"/><path class="cls-4" d="M12.55,13.85l-.15-.75c.16,0,.34,0,.41.07a.64.64,0,0,1,.12.41C12.92,13.77,12.74,13.82,12.55,13.85Z"/><path class="cls-4" d="M24.34,11.91c0,.48-.14.68-.39.72s-.27,0-.3-.19c-.1-.45-.19-.9-.28-1.36a.22.22,0,0,1,.13-.14.53.53,0,0,1,.66.33C24.25,11.51,24.3,11.78,24.34,11.91Z"/><path class="cls-4" d="M21.66,6.25c-.05-.28-.1-.53-.13-.77a.21.21,0,0,1,.11-.14.37.37,0,0,1,.5.25.4.4,0,0,1-.23.58Z"/><path class="cls-4" d="M19.33,6.67c0-.27-.1-.52-.14-.77a.2.2,0,0,1,.09-.13A.39.39,0,0,1,19.8,6a.41.41,0,0,1-.2.6Z"/><path class="cls-4" d="M17.11,7.36l-.61.11.18-.81Z"/><path class="cls-4" d="M26.28,11.54l-.53.09.12-.65h.05Z"/></g></g></svg>