<svg xmlns="http://www.w3.org/2000/svg" viewBox="0 0 38.55 24.66"><defs><style>.cls-1{isolation:isolate;}.cls-2{opacity:0.15;}.cls-2,.cls-3{mix-blend-mode:multiply;}.cls-4{fill:#fff;}</style></defs><title>convert-FIX-SVG-03</title><g class="cls-1"><g id="Layer_1" data-name="Layer 1"><g class="cls-2"><path d="M25.12,14.44l-1.8.87c-.09,0-.14.09-.09.21s.11.35.16.53l-.22.16c-.15-.16-.31-.31-.45-.48a.18.18,0,0,0-.25-.06l-.4.13a.74.74,0,0,1-1-.9c.09-.28.2-.54.3-.81a.31.31,0,0,0,0-.21,35.41,35.41,0,0,1-2-4.06l0-.05-.47.24L19,9.52a2.87,2.87,0,0,1-2.41-2.93,3.21,3.21,0,0,1,1.87-3.14,3.38,3.38,0,0,1,0-2l.24.08a3.22,3.22,0,0,0,0,1.74,2.27,2.27,0,0,0,1.54,1.71,1.71,1.71,0,0,0,1.33-.14c.06,0,.13-.12.12-.17a2.65,2.65,0,0,1,.72-2.28l.52-.61.21.23c-.22.24-.45.46-.64.69a2.47,2.47,0,0,0,.35,3.51,2.19,2.19,0,0,0,1.65.18l0,0a2.07,2.07,0,0,1-.05-2.07,1.8,1.8,0,0,1,1.86-.82.87.87,0,0,0-.65-1s0-.08,0-.12a.57.57,0,0,1,0-.12.78.78,0,0,1,.75.49,4.59,4.59,0,0,1,.21.81c0,.19.16.3.32.26a6.23,6.23,0,0,1,2.43-.17.4.4,0,0,0,.28-.08,2.67,2.67,0,0,1,1.13-.56,1.85,1.85,0,0,1,1.88.83,2.08,2.08,0,0,1,.08,2.49.49.49,0,0,0-.07.39,3.85,3.85,0,0,1-.09,2.13,4.33,4.33,0,0,1-.46.81.22.22,0,0,0,0,.26,5,5,0,0,1,.62,2.66,1.51,1.51,0,0,1-.35,1,.29.29,0,0,0,0,.39l1-.65a4,4,0,0,1,1.44-.6,1.29,1.29,0,0,1,.82.1,3.6,3.6,0,0,1,1.34,1.11A2,2,0,0,1,37,16.12a2.07,2.07,0,0,1-2.7.7.34.34,0,0,0-.26,0,16.4,16.4,0,0,1-2.75,1.13,1.49,1.49,0,0,1-1.08-.05.19.19,0,0,0-.13,0l-1.42.39c0,.11,0,.27.07.42.13.62.28,1.24.37,1.86a2.14,2.14,0,0,1-1,2.35,3.06,3.06,0,0,1-1.72.58,2.47,2.47,0,0,1-1.31-.41,1.23,1.23,0,0,1-.6-1,4.74,4.74,0,0,1,.47-2.13,3.89,3.89,0,0,0,.32-2.08,11.32,11.32,0,0,1-.05-1.54,5.58,5.58,0,0,0-.07-1.47A1.73,1.73,0,0,1,25.12,14.44ZM32,13.83a1.74,1.74,0,0,1-1.94-.15,2.42,2.42,0,0,1-.73-1,.45.45,0,0,0-.11-.17,6.7,6.7,0,0,1-.74-.77c-.22-.33-.44-.56-.87-.46-.05,0-.11,0-.17,0a.66.66,0,0,0-.65.23,5.07,5.07,0,0,1-.49.55,3.61,3.61,0,0,0-.92,2.26,3.46,3.46,0,0,0,.89,2.47,2.69,2.69,0,0,0,2.17,1.14,3.31,3.31,0,0,0,1.42-.28,2.13,2.13,0,0,1,0-.51,4.85,4.85,0,0,1,.35-1,7.06,7.06,0,0,1,1.63-1.9A.34.34,0,0,0,32,13.83Zm.38-7.1c-.52-.08-.73-.3-.82-.85a.3.3,0,0,0-.08-.16,4.35,4.35,0,0,0-1.16-1,1,1,0,0,0-.24-.07,4,4,0,0,1-.62-.15c-.38-.16-.41-.3-.22-.65,0,0,0,0,0,0a5.26,5.26,0,0,0-1.77,0,3,3,0,0,0-2.19,1.39,10.1,10.1,0,0,0-.53,1.32s0,0,0,0,.24-.2.31,0a3.11,3.11,0,0,1,.78-.26,2.82,2.82,0,0,1,1.53.31,1.57,1.57,0,0,1,.93,1.27,8.43,8.43,0,0,1,0,.87,1.76,1.76,0,0,1-.84,1.52.08.08,0,0,0,0,0l1.41.12a.67.67,0,0,0,0-.16,2.18,2.18,0,0,1,.29-1.48,1.24,1.24,0,0,1,1.34-.59,1.71,1.71,0,0,1,1,.72c.14.15.25.31.38.47A3.05,3.05,0,0,0,32.41,6.73Zm2.07,9.86v.06a3.05,3.05,0,0,0,.66.17,1.87,1.87,0,0,0,1.37-.55A1.61,1.61,0,0,0,37,14.86a2.07,2.07,0,0,0-.82-1.42,1.79,1.79,0,0,0-2.3-.26,10.26,10.26,0,0,0-2.74,2.16,4.12,4.12,0,0,0-1,1.63c-.14.56.06.81.63.79a.58.58,0,0,0,.19,0c.69-.25,1.38-.48,2.05-.77S34.34,16.36,35,16l.12.21Zm-8.85,6.32a4.56,4.56,0,0,1,.26-2.43,4.68,4.68,0,0,0,.28-1.1,6.53,6.53,0,0,0-.19-2,2.6,2.6,0,0,0-.05-.63,3.6,3.6,0,0,0-.44-.74c0,.08,0,.13,0,.18,0,.62.07,1.24.09,1.86A4.34,4.34,0,0,1,25.2,20a4.36,4.36,0,0,0-.47,2,.9.9,0,0,0,.83,1,4,4,0,0,0,1,0,5.79,5.79,0,0,0,2.1-1.06.37.37,0,0,0,.15-.22,3.06,3.06,0,0,0,.06-.9c-.12-.8-.29-1.59-.46-2.38a.21.21,0,0,0-.16-.14,3,3,0,0,1-1.88-.95l-.15-.13.16.92a4.07,4.07,0,0,1-.21,2.51,3.81,3.81,0,0,0-.29,2l0,.32ZM18.54,3.71l-.37.21a3.1,3.1,0,0,0-.74,4.37,2.32,2.32,0,0,0,3.35.44.34.34,0,0,0,.14-.37c-.12-.63-.22-1.27-.3-1.91a9.06,9.06,0,0,1-.07-.91H20.2V5.22A2.54,2.54,0,0,1,18.54,3.71Zm7,6.62a2.82,2.82,0,0,1-1.21-2.84c0-.27.08-.55.12-.8h-.94l-.21.65-.08-.51c-.49.19-.91,4.72-.55,5.76l.06-.05L24.8,11C25.05,10.78,25.28,10.56,25.55,10.33ZM31,13.77a1.22,1.22,0,0,0,1.48-1.15,5.5,5.5,0,0,0-.09-1.4,4.61,4.61,0,0,0-1.47-2.54c-.34-.31-.65-.24-.81.18a3.37,3.37,0,0,0,.19,2.51A10.5,10.5,0,0,1,31,13.77ZM25.43,9.32c0-.07,0-.15,0-.2a3.15,3.15,0,0,0-.33-.53c-.28-.34-.3-.33-.1-.71a.28.28,0,0,1,.19-.12c.2,0,.41,0,.61,0a.31.31,0,0,1,.39.24.3.3,0,0,1-.05.37c-.11.12-.21.25-.31.38a.25.25,0,0,0,.07.39l.43.24.33-.29.25.2-.54.51-.54-.27-.29.39a6,6,0,0,0,.81.28A1.31,1.31,0,0,0,28.07,9a4.49,4.49,0,0,0,0-1,1.31,1.31,0,0,0-.88-1.19,3.9,3.9,0,0,0-.76-.22,1.38,1.38,0,0,0-1.7,1.1,2.82,2.82,0,0,0,.14,1.35s0,.06,0,.07Zm.24,1.3-.92.7c-.65.51-1.3,1-1.94,1.53a.29.29,0,0,0-.11.2c.06.43.14.85.21,1.27.51,0,1-.12,1.46.21a1.45,1.45,0,0,0,.95-1.09c.1-.58.47-1.09.39-1.73C25.67,11.36,25.69,11,25.67,10.62Zm-4,3.1c.15-.18.26-.33.4-.48a.26.26,0,0,0,.07-.31c-.26-.89-.51-1.77-.75-2.66-.12-.45-.23-.91-.33-1.34l-1.19.58.1.47,0,0-.14-.2A26.92,26.92,0,0,0,21.64,13.72Zm.71-.88h.06a14.67,14.67,0,0,1,.42-6l-.39,0,.27-.36-.5-.57,0,0a.13.13,0,0,0,0,.06,3.58,3.58,0,0,1-.86,2.62.3.3,0,0,0,0,.21c.11.49.23,1,.36,1.48C21.87,11.13,22.11,12,22.35,12.84Zm9.9-6.36a2,2,0,0,0-.47-3.16,1.29,1.29,0,0,0-.84-.15,2.39,2.39,0,0,0-1.46.89.34.34,0,0,0-.06.12l.16.11c.36.18.42.17.72-.08a1.06,1.06,0,0,1,.88-.28A1.17,1.17,0,0,1,32,5.69a.39.39,0,0,0,0,.45C32,6.26,32.14,6.36,32.25,6.48ZM21.18,8.32c.73-.76,1-2.51.38-3.22a3.37,3.37,0,0,1-.34.1c-.14,0-.18.09-.19.22s-.09.15-.14.22l-.06,0A13.15,13.15,0,0,0,21.18,8.32Zm9.53,5.34-.59-2-.71-.08A2.12,2.12,0,0,0,30.71,13.66ZM26.49,3.85c-.3-.32-1-.25-1.52.18A1.59,1.59,0,0,0,24.68,6a.67.67,0,0,0,.08-.54c-.14-.47.06-.74.55-.82a.65.65,0,0,0,.2-.05Zm-4.33,10.7.41-.16-.32-1c-.15.19-.29.36-.41.53a.17.17,0,0,0,0,.14C21.94,14.23,22.05,14.38,22.16,14.55ZM27,10.66H25.91l.09.57L27,11Zm.29.37h.88c0-.1,0-.18,0-.26s-.05-.12-.08-.12h-.83Zm-5.86,4.35.5-.73-.28-.42A1.45,1.45,0,0,0,21.41,15.38Zm7.68-3.88a2.21,2.21,0,0,0,0-.38A.22.22,0,0,0,29,11a5,5,0,0,0-.54-.17c0,.15,0,.32,0,.37A4,4,0,0,0,29.09,11.5Zm-3.1.56.61-.69C26,11.43,25.9,11.58,26,12.06Zm3.17.1c0-.38,0-.44-.44-.51Z"/><path d="M17.4,16.27a4.86,4.86,0,0,1,.31-.41.29.29,0,0,1,.48,0,5.35,5.35,0,0,1,.36.56c.09-.08.19-.18.3-.26s.41-.11.5.12a1.11,1.11,0,0,1,.09.59A1.51,1.51,0,0,1,17.37,18a1.31,1.31,0,0,1-.86-2q.28-.54.66-.06C17.25,16,17.32,16.14,17.4,16.27Z"/><path d="M6.84,17.35c0-.13,0-.26.08-.39a.26.26,0,0,1,.4-.17,5.2,5.2,0,0,1,.47.3c0-.08.07-.18.12-.27.12-.24.29-.27.49-.1a1,1,0,0,1,.24,1.07,1,1,0,0,1-.26.45A1.6,1.6,0,0,1,7,18.72a1.18,1.18,0,0,1-1-1.42.22.22,0,0,1,.33-.18A4.93,4.93,0,0,1,6.84,17.35Z"/><path d="M8.89,12.84a1.12,1.12,0,0,0-.79.25,5.07,5.07,0,0,1-.72.49A4.6,4.6,0,0,1,7.9,14c.2.2.13.36-.09.42-.23-.2-.42-.4-.64-.57a.37.37,0,0,0-.61.14,4.1,4.1,0,0,1-.26.41.24.24,0,0,1-.4,0,.26.26,0,0,1,0-.21,3.3,3.3,0,0,0,.78-1.56.23.23,0,0,1,.13-.17,1.37,1.37,0,0,1,1.48.05.32.32,0,0,0,.22,0l1.36-.19c.13,0,.26,0,.27.17s0,.27-.21.25c-.5,0-.74.27-.91.68a6.41,6.41,0,0,1-.32.76c-.06.11-.24.28-.3.26s-.12-.26-.06-.4C8.52,13.64,8.7,13.26,8.89,12.84Zm-2,.46A1.32,1.32,0,0,0,8,12.66.77.77,0,0,0,6.9,13.3Z"/><path d="M4.35,3.93c-.19-.14-.44.18-.6-.1h0c-.33,0-.49.16-.62.44s-.27.51-.42.79l.42,0c0,.19-.07.34-.29.36l-.17,0-.92.08c.06-.34.08-.36.4-.42A.28.28,0,0,0,2.26,5c.22-.37.42-.75.64-1.15H2.3c.1-.38.22-.47.58-.47h.7c.19,0,.19,0,.28.2l1-.14a5.11,5.11,0,0,1,.55-.05,1,1,0,0,1,.29.09c.15-.2.13-.33-.15-.55l.27-.25A1.12,1.12,0,0,1,6,3a.74.74,0,0,1-.69.77.7.7,0,0,0-.68.49c-.14.3-.27.62-.4.93-.07.15-.16.32-.33.26s-.1-.27,0-.41C4,4.7,4.17,4.32,4.35,3.93Z"/><path d="M22,18.62l.51-.26.37.55.26-.14a.19.19,0,0,1,.3.13.91.91,0,0,1,0,.49A1.08,1.08,0,0,1,22,20l-.28-.11a1,1,0,0,1-.32-1.61c.18-.2.33-.18.46.06A2.59,2.59,0,0,1,22,18.62Z"/><path d="M3.53,13.05c.06.2.13.38.18.57a.31.31,0,0,1-.15.36,3.07,3.07,0,0,1-1.43.47.38.38,0,0,1-.39-.59c.18-.4.37-.79.55-1.19a.5.5,0,0,1,.42-.34,7.38,7.38,0,0,1,.94,0c.25,0,.33.22.17.43A2.87,2.87,0,0,1,3.53,13.05Zm-1,1.07c.22-.13.44-.24.64-.37a.22.22,0,0,0,.08-.19A.24.24,0,0,0,3,13.44a2.12,2.12,0,0,0-.62.11c-.09,0-.15.24-.17.37S2.4,14,2.51,14.12Zm.88-1.51c-.49-.13-.7,0-.78.45C2.92,13,3.24,13,3.39,12.61Z"/><path d="M12.11,14.42c-.3,0-.4-.11-.31-.34.19-.5.39-1,.6-1.47a.37.37,0,0,1,.18-.17,1.57,1.57,0,0,1,1.29,0,.4.4,0,0,1,.24.64,2.36,2.36,0,0,1-1.7,1.3Zm1.69-1.55a.82.82,0,0,0-.18-.19.76.76,0,0,0-.91.3q-.17.36-.3.72a.65.65,0,0,0,0,.2.63.63,0,0,0,.24,0,3.41,3.41,0,0,0,1.07-.81A1.72,1.72,0,0,0,13.8,12.87Z"/><path d="M5.2,7.8a.75.75,0,0,1,.74,1.11,1.51,1.51,0,0,1-1.86,1,.48.48,0,0,1-.44-.51A1.73,1.73,0,0,1,5.2,7.8ZM4.61,9.59a.92.92,0,0,0,.22-.06,1.65,1.65,0,0,0,.76-.76c.17-.33,0-.57-.35-.59A1.13,1.13,0,0,0,4.14,9C4,9.4,4.18,9.59,4.61,9.59Z"/><path d="M9.86,9.08a4.33,4.33,0,0,1,.52.37c.22.2.16.37-.07.45a8,8,0,0,0-.64-.57c-.25-.19-.45-.13-.62.14a3.22,3.22,0,0,1-.25.39.23.23,0,0,1-.39,0c-.07-.08-.09-.13,0-.23a3.17,3.17,0,0,0,.78-1.56.26.26,0,0,1,.11-.16,1.55,1.55,0,0,1,1.23-.11.68.68,0,0,1,.22.12c.19.15.22.32,0,.48a8,8,0,0,1-.74.56ZM9.4,8.81a1.33,1.33,0,0,0,1.11-.64C10,7.91,9.53,8.2,9.4,8.81Z"/><path d="M6.24,5.14l.27-.21c.09,0,.15-.06.23,0a1,1,0,0,0,.94.12.92.92,0,0,0,.22-.4s-.1-.14-.16-.14c-.27,0-.54,0-.8,0s-.34,0-.41-.14A.51.51,0,0,1,6.59,4a1.38,1.38,0,0,1,1.18-.59.82.82,0,0,1,.66.15c.18.16.15.38-.06.45a.23.23,0,0,1-.21-.06.52.52,0,0,0-.59-.23,3,3,0,0,0-.47.24S7,4,7,4.07a.76.76,0,0,0,.18.09,4.13,4.13,0,0,0,.5,0c.36,0,.57.08.65.3A.66.66,0,0,1,8,5.22a1.36,1.36,0,0,1-1.34.21A2.82,2.82,0,0,1,6.24,5.14Z"/><path d="M15.61,14a1.39,1.39,0,0,0-1.24.3c-.11.11-.22.16-.34.06s-.06-.24,0-.34a7.54,7.54,0,0,1,1.61-1.58.53.53,0,0,1,.39-.06c.16,0,.15.21.13.34-.06.48-.14,1-.21,1.44,0,.16-.13.2-.27.17s-.11-.15-.09-.25A.17.17,0,0,0,15.61,14Zm.11-1c-.37,0-.5.35-.73.58C15.62,13.71,15.78,13.58,15.72,13.05Z"/><path d="M7.06,7.87c-.19.42-.39.82-.55,1.23s0,.36.27.32a.8.8,0,0,0,.72-.49A8.09,8.09,0,0,1,8.05,8c.16-.25.24-.25.45,0a5.72,5.72,0,0,0-.81,1.71.25.25,0,0,1-.43.12A.32.32,0,0,0,7,9.75a4.83,4.83,0,0,0-.5.16c-.13.05-.27.1-.39,0A.47.47,0,0,1,6,9.41c.06-.18.14-.35.22-.53L6.66,8C6.77,7.73,6.88,7.72,7.06,7.87Z"/><path d="M11.39,13.46c-.23,0-.44,0-.65,0-.05,0-.11.08-.14.14-.11.22-.22.45-.34.68a.22.22,0,0,1-.33.11c-.17-.09-.1-.21,0-.33l1-1.69c.1-.18.21-.18.32,0a.17.17,0,0,1,0,.17c-.09.19-.2.37-.33.59.25,0,.45,0,.65-.05A.2.2,0,0,0,11.6,13c.06-.14.11-.28.18-.42a.3.3,0,0,1,.14-.17.39.39,0,0,1,.26,0s0,.16,0,.23l-.46,1-.27.55c0,.06-.06.14-.12.17a.71.71,0,0,1-.22.07.58.58,0,0,1,0-.22c.07-.21.17-.41.25-.61A.59.59,0,0,0,11.39,13.46Z"/><path d="M5.07,12.76H4.74l-.28,0c.08-.36.22-.47.58-.47H5.8c.16,0,.19.09.2.21s0,.27-.16.26c-.35,0-.47.21-.59.45L4.83,14l.41,0c0,.19-.06.34-.27.36l-1.1.11c0-.33.09-.36.4-.43a.23.23,0,0,0,.16-.11C4.64,13.55,4.84,13.18,5.07,12.76Z"/><path d="M17.19,23.26l-.26,0a15.85,15.85,0,0,1,.34-5.18l.12,0,.13.06A15.91,15.91,0,0,0,17.19,23.26Z"/><path d="M18.57,13.48c.2-.53.4-1,.61-1.54a.34.34,0,0,1,.25-.14,5.15,5.15,0,0,1,.68,0c.15,0,.13.11.08.19a5.82,5.82,0,0,1-.36.47c-.2.28-.42.54-.61.84-.09.14-.18.21-.34.18Z"/><path d="M2.57,8.57l.67-.7a.48.48,0,0,1,.22-.16.32.32,0,0,1,.24,0s0,.17,0,.24a.32.32,0,0,1-.14.14A5.65,5.65,0,0,0,2.09,9.73c-.2.26-.24.27-.39,0L2.23,9a.19.19,0,0,0,0-.26,3,3,0,0,1-.29-.53.27.27,0,0,1,0-.23.21.21,0,0,1,.17-.09s.08.06.1.1C2.34,8.15,2.45,8.36,2.57,8.57Z"/><path d="M16.18,14.21c.21-.3.39-.55.56-.81a.23.23,0,0,0,0-.18c-.1-.19-.22-.36-.3-.55a.34.34,0,0,1,0-.26c.07-.12.2-.1.27,0s.22.4.35.62c.2-.22.38-.42.57-.61A1.26,1.26,0,0,1,18,12.2c.06,0,.21,0,.23,0a.34.34,0,0,1,0,.26s-.07.09-.11.11a6.13,6.13,0,0,0-1.48,1.61l-.19.21Z"/><path d="M7.84,18.86l.24-.1a12,12,0,0,1,.72,4.52H8.55A12.31,12.31,0,0,0,7.84,18.86Z"/><path d="M21.54,23.25h-.27a8.93,8.93,0,0,1,.29-3.2l.22.14A9.27,9.27,0,0,0,21.54,23.25Z"/><path d="M12,21.79c-.14.48-.27.95-.42,1.42,0,.05-.17.07-.25.1l-.06-.07.49-1.54Z"/><path d="M31.78,21.7l.24.1-.47,1.48h-.23A7.33,7.33,0,0,1,31.78,21.7Z"/><path d="M10.37,22l.14-.12a2.7,2.7,0,0,1,.4,1.36l-.23,0Z"/><path d="M30.88,23.27l-.23,0-.29-1.21H30.3l.17-.19A2.64,2.64,0,0,1,30.88,23.27Z"/><path d="M18.46,14.45c-.24,0-.39-.17-.31-.31a1,1,0,0,1,.37-.35c.06,0,.24,0,.3.11a.34.34,0,0,1,0,.29A1.66,1.66,0,0,1,18.46,14.45Z"/><path d="M19.89,22.14l.22.12-.46,1h-.24A4.07,4.07,0,0,1,19.89,22.14Z"/><path d="M4.14,22.26c-.14.33-.27.65-.42,1,0,.05-.15.06-.23.09l-.07-.07.48-1.1Z"/><path d="M15.75,22.14l.21.12c-.14.33-.27.65-.42.95,0,.06-.15.07-.28.13A4,4,0,0,1,15.75,22.14Z"/><path d="M6.58,23.24c.08-.2.15-.4.24-.6l.26-.49.21.11c-.13.32-.26.65-.41,1,0,.05-.17.06-.25.09Z"/><path d="M35.93,22.26c-.13.32-.26.63-.41.93,0,.07-.16.09-.25.13l-.07-.07.5-1.11Z"/><path d="M31.28,23.26c-.25.06-.26,0-.26-.18v-.81h.26Z"/><path d="M14.3,22.42l.11-.15a1.54,1.54,0,0,1,.42,1l-.23,0Z"/><path d="M18.44,22.42l.11-.15a1.49,1.49,0,0,1,.42,1l-.23,0Z"/><path d="M2.78,23.3l-.3-.88.11-.16a1.6,1.6,0,0,1,.42,1Z"/><path d="M5.63,22.42l.11-.15a1.49,1.49,0,0,1,.42,1l-.23,0Z"/><path d="M23.17,23.27l-.22,0c-.12-.28-.23-.53-.32-.79,0-.06,0-.15.08-.26A1.57,1.57,0,0,1,23.17,23.27Z"/><path d="M34.8,23.27l-.23,0-.28-.83h-.06l.15-.21A1.51,1.51,0,0,1,34.8,23.27Z"/><path d="M11.06,22.26h.26c0,.32,0,.63,0,.94,0,0-.14.08-.25.15Z"/><path d="M19.38,22.59v.66c-.24.09-.27.06-.27-.17v-.3C19.11,22.54,19.11,22.54,19.38,22.59Z"/><path d="M23.57,23.28h-.26v-.7h.26Z"/><path d="M3.41,23.28H3.17v-.7h.24Z"/><path d="M6.31,22.57h.24v.71H6.31Z"/><path d="M15.23,23.28H15v-.7h.24Z"/><path d="M35,23.27v-.7h.25v.7Z"/><path d="M29.33,7a.52.52,0,0,1-.51.53.54.54,0,0,1,0-1.07A.52.52,0,0,1,29.33,7Z"/><path d="M31.43,17.18c-.05,0-.16-.06-.19-.12a.32.32,0,0,1,0-.27.81.81,0,0,1,.63-.37.32.32,0,0,1,.25.12.28.28,0,0,1,0,.25A.87.87,0,0,1,31.43,17.18Z"/><path d="M25.32,14.64l-1.8.87c-.1.05-.14.09-.09.21s.11.35.16.53l-.22.16c-.15-.16-.31-.32-.45-.48a.19.19,0,0,0-.26-.06c-.12.05-.27.08-.4.13a.73.73,0,0,1-1-.9c.09-.28.2-.54.3-.81a.31.31,0,0,0,0-.21,35.48,35.48,0,0,1-2-4.06l0,0-.47.24.06-.49a2.87,2.87,0,0,1-2.41-2.93,3.21,3.21,0,0,1,1.87-3.14,3.38,3.38,0,0,1,0-2l.24.08a3.22,3.22,0,0,0,0,1.74,2.25,2.25,0,0,0,1.54,1.71A1.76,1.76,0,0,0,21.74,5a.22.22,0,0,0,.12-.18,2.64,2.64,0,0,1,.72-2.27l.52-.61.21.23c-.22.24-.45.45-.64.69A2.47,2.47,0,0,0,23,6.37a2.22,2.22,0,0,0,1.64.18s0,0,0,0a2.05,2.05,0,0,1,0-2.06,1.8,1.8,0,0,1,1.86-.82.87.87,0,0,0-.65-1s0-.08,0-.12a.57.57,0,0,1,0-.12.77.77,0,0,1,.75.49,4.36,4.36,0,0,1,.2.81c0,.18.16.3.33.25a6.42,6.42,0,0,1,2.43-.16.46.46,0,0,0,.28-.08A2.69,2.69,0,0,1,31,3.13,1.84,1.84,0,0,1,32.87,4,2.1,2.1,0,0,1,33,6.45a.49.49,0,0,0-.07.39A3.77,3.77,0,0,1,32.78,9a4.34,4.34,0,0,1-.45.81.22.22,0,0,0,0,.26,5,5,0,0,1,.62,2.66,1.51,1.51,0,0,1-.35,1,.29.29,0,0,0,0,.39l1-.65a4,4,0,0,1,1.43-.6,1.26,1.26,0,0,1,.83.1A3.51,3.51,0,0,1,37.12,14a2,2,0,0,1,.07,2.29,2.06,2.06,0,0,1-2.7.7.31.31,0,0,0-.25,0,17.28,17.28,0,0,1-2.75,1.13,1.49,1.49,0,0,1-1.08-.05.2.2,0,0,0-.13,0l-1.42.39c0,.11,0,.26.07.42.12.62.28,1.24.37,1.86a2.17,2.17,0,0,1-1,2.35,3.05,3.05,0,0,1-1.72.57,2.41,2.41,0,0,1-1.32-.4,1.24,1.24,0,0,1-.59-1,4.47,4.47,0,0,1,.47-2.12A3.91,3.91,0,0,0,25.46,18a9.91,9.91,0,0,1-.05-1.54A6,6,0,0,0,25.34,15,1.73,1.73,0,0,1,25.32,14.64ZM32.23,14a1.74,1.74,0,0,1-1.94-.15,2.34,2.34,0,0,1-.73-1,.45.45,0,0,0-.11-.17,6.7,6.7,0,0,1-.74-.77c-.22-.33-.44-.56-.87-.47-.06,0-.11,0-.17,0a.68.68,0,0,0-.65.24,5.07,5.07,0,0,1-.49.55,3.61,3.61,0,0,0-.92,2.26A3.42,3.42,0,0,0,26.5,17a2.67,2.67,0,0,0,2.16,1.15,3.35,3.35,0,0,0,1.43-.28,1.69,1.69,0,0,1,0-.51,4.65,4.65,0,0,1,.35-1,7.06,7.06,0,0,1,1.63-1.9C32.22,14.34,32.31,14.23,32.23,14Zm.38-7.1c-.52-.08-.73-.3-.82-.85a.32.32,0,0,0-.09-.16,4.31,4.31,0,0,0-1.15-1,1,1,0,0,0-.24-.07,4.44,4.44,0,0,1-.63-.15c-.37-.16-.4-.3-.21-.65,0,0,0,0,0,0a5.26,5.26,0,0,0-1.77,0,3,3,0,0,0-2.19,1.39A8.87,8.87,0,0,0,25,6.78s0,0,0,0,.24-.19.31,0a3,3,0,0,1,.78-.27,2.92,2.92,0,0,1,1.53.32,1.54,1.54,0,0,1,.92,1.27,6.33,6.33,0,0,1,0,.87,1.76,1.76,0,0,1-.84,1.52s0,0,0,0l1.41.12c0-.08,0-.12,0-.16A2.18,2.18,0,0,1,29.4,9a1.22,1.22,0,0,1,1.34-.59,1.67,1.67,0,0,1,1,.72,6,6,0,0,1,.38.47A3.06,3.06,0,0,0,32.61,6.93Zm2.07,9.86v.06a3.76,3.76,0,0,0,.66.17,1.87,1.87,0,0,0,1.37-.55,1.61,1.61,0,0,0,.53-1.41,2.11,2.11,0,0,0-.82-1.42,1.8,1.8,0,0,0-2.3-.26,10.26,10.26,0,0,0-2.74,2.16,3.9,3.9,0,0,0-1,1.63c-.15.56.06.81.63.79a.58.58,0,0,0,.19,0c.69-.25,1.38-.48,2-.77s1.28-.61,1.93-.93l.12.21Zm-8.85,6.32a4.46,4.46,0,0,1,.26-2.43,5.22,5.22,0,0,0,.28-1.1,6.53,6.53,0,0,0-.19-2,3.32,3.32,0,0,0-.05-.64,4.42,4.42,0,0,0-.44-.73,1.28,1.28,0,0,0,0,.18c0,.62.07,1.24.08,1.85a4.22,4.22,0,0,1-.36,1.92,4.21,4.21,0,0,0-.47,2,.9.9,0,0,0,.82,1,4.09,4.09,0,0,0,1,0A5.79,5.79,0,0,0,28.84,22a.42.42,0,0,0,.15-.22,3.44,3.44,0,0,0,.06-.9c-.12-.8-.3-1.59-.46-2.38a.24.24,0,0,0-.16-.15,3,3,0,0,1-1.89-.94.94.94,0,0,0-.14-.13l.16.92a4.15,4.15,0,0,1-.21,2.51,3.72,3.72,0,0,0-.29,2l0,.32ZM18.74,3.91l-.37.21a3.12,3.12,0,0,0-.75,4.37A2.32,2.32,0,0,0,21,8.93a.33.33,0,0,0,.15-.37c-.12-.63-.22-1.27-.31-1.92,0-.29,0-.59-.06-.9H20.4V5.42A2.54,2.54,0,0,1,18.74,3.91Zm7,6.61a2.79,2.79,0,0,1-1.21-2.83c0-.27.08-.55.12-.8h-.94l-.21.65L23.42,7c-.49.19-.9,4.72-.54,5.76l.06-.06c.69-.51,1.38-1,2-1.56C25.25,11,25.48,10.76,25.75,10.52ZM31.16,14a1.22,1.22,0,0,0,1.48-1.15,5.51,5.51,0,0,0-.1-1.4,4.59,4.59,0,0,0-1.46-2.54c-.34-.32-.65-.25-.81.18a3.34,3.34,0,0,0,.19,2.5A10.58,10.58,0,0,1,31.16,14ZM25.63,9.51c0-.06,0-.14,0-.2a3.06,3.06,0,0,0-.33-.52c-.28-.34-.3-.33-.1-.71A.28.28,0,0,1,25.39,8c.2,0,.41,0,.61,0a.31.31,0,0,1,.39.24.3.3,0,0,1-.06.37c-.11.12-.2.25-.3.38a.25.25,0,0,0,.07.39l.43.23.32-.29.26.21-.54.5L26,9.72l-.29.4a6,6,0,0,0,.81.28,1.32,1.32,0,0,0,1.72-1.19,5.24,5.24,0,0,0,0-1,1.33,1.33,0,0,0-.88-1.19,3.9,3.9,0,0,0-.76-.22,1.38,1.38,0,0,0-1.7,1.09,2.85,2.85,0,0,0,.14,1.36.49.49,0,0,0,0,.07Zm.24,1.3-.92.71L23,13a.32.32,0,0,0-.1.21c.06.43.14.85.21,1.27.51,0,1-.12,1.46.2a1.45,1.45,0,0,0,.95-1.08c.1-.58.47-1.1.39-1.73C25.87,11.56,25.88,11.2,25.87,10.81Zm-4,3.11a5.08,5.08,0,0,1,.4-.48.29.29,0,0,0,.07-.32c-.26-.88-.51-1.77-.75-2.65-.13-.45-.23-.91-.33-1.34L20,9.71l.1.47,0,0L20,10A27.42,27.42,0,0,0,21.84,13.92Zm.71-.89h.05A14.85,14.85,0,0,1,23,7l-.39,0,.27-.35-.5-.57,0,0a.17.17,0,0,0,0,.07,3.58,3.58,0,0,1-.86,2.62.29.29,0,0,0,0,.21c.11.49.22,1,.36,1.48C22.07,11.33,22.31,12.18,22.55,13Zm9.9-6.36A2,2,0,0,0,32,3.52a1.29,1.29,0,0,0-.84-.15,2.32,2.32,0,0,0-1.46.89.34.34,0,0,0-.06.12l.16.1c.36.19.41.18.72-.07a1,1,0,0,1,.88-.28,1.17,1.17,0,0,1,.77,1.76.39.39,0,0,0,0,.45A3.43,3.43,0,0,0,32.45,6.67ZM21.37,8.52c.74-.76,1.05-2.51.39-3.22a3.37,3.37,0,0,1-.34.1c-.14,0-.18.09-.19.22s-.09.15-.14.22l-.06,0A13.86,13.86,0,0,0,21.37,8.52Zm9.54,5.34-.59-2-.71-.08A2.11,2.11,0,0,0,30.91,13.86ZM26.69,4.05c-.3-.32-1-.25-1.52.17a1.59,1.59,0,0,0-.29,2A.68.68,0,0,0,25,5.63c-.14-.47.06-.74.55-.82a.59.59,0,0,0,.19,0Zm-4.34,10.7.42-.16-.32-1c-.15.19-.29.35-.41.52a.2.2,0,0,0,0,.15C22.14,14.42,22.25,14.58,22.35,14.75Zm4.83-3.89H26.11l.09.57,1-.24Zm.29.37h.87a1.38,1.38,0,0,0,0-.26s-.05-.12-.08-.12h-.83ZM21.6,15.58l.51-.73-.28-.42A1.49,1.49,0,0,0,21.6,15.58Zm7.69-3.88a2.37,2.37,0,0,0,0-.39.22.22,0,0,0-.12-.16,4.34,4.34,0,0,0-.54-.17c0,.15,0,.32.05.37A4.42,4.42,0,0,0,29.29,11.7Zm-3.11.56.62-.69C26.23,11.63,26.1,11.78,26.18,12.26Zm3.18.1c0-.38-.05-.44-.44-.51Z"/><path d="M17.6,16.46c.11-.14.2-.28.31-.41a.29.29,0,0,1,.48,0c.13.18.23.38.35.57.1-.08.2-.18.31-.26s.41-.12.5.12a1.11,1.11,0,0,1,.09.59,1.52,1.52,0,0,1-2.07,1.09,1.32,1.32,0,0,1-.87-2c.2-.36.42-.38.67-.06C17.45,16.21,17.52,16.34,17.6,16.46Z"/><path d="M7,17.55c0-.13,0-.26.08-.39a.26.26,0,0,1,.4-.17,5.2,5.2,0,0,1,.47.3A2,2,0,0,1,8.11,17c.12-.24.29-.27.49-.1A1,1,0,0,1,8.84,18a1,1,0,0,1-.26.45,1.63,1.63,0,0,1-1.37.48,1.18,1.18,0,0,1-1-1.42.22.22,0,0,1,.33-.18A4.93,4.93,0,0,1,7,17.55Z"/><path d="M9.09,13a1.12,1.12,0,0,0-.79.25,5.07,5.07,0,0,1-.72.49,4.6,4.6,0,0,1,.52.38c.2.19.13.36-.09.42-.23-.21-.43-.4-.65-.57s-.44-.12-.6.14-.17.28-.27.41a.23.23,0,0,1-.39,0,.23.23,0,0,1,0-.2,3.29,3.29,0,0,0,.78-1.57A.27.27,0,0,1,7,12.61a1.39,1.39,0,0,1,1.48.06.38.38,0,0,0,.22,0l1.36-.19c.13,0,.25,0,.27.17s0,.26-.21.25c-.5,0-.74.27-.91.68-.11.26-.2.52-.32.76s-.24.28-.3.26-.13-.26-.07-.4Zm-2,.46a1.34,1.34,0,0,0,1.11-.64A.77.77,0,0,0,7.1,13.5Z"/><path d="M4.54,4.13c-.18-.14-.43.18-.6-.1h0c-.33,0-.49.16-.62.44S3,5,2.87,5.26l.41,0c0,.19-.06.34-.28.36l-.17,0-.92.08c.06-.34.08-.36.4-.43a.23.23,0,0,0,.15-.09c.21-.37.42-.75.64-1.16H2.5c.1-.37.21-.46.58-.46h.7c.19,0,.19,0,.28.2l1-.14.55-.06a1,1,0,0,1,.29.1c.15-.2.13-.33-.15-.55L6,2.87a1.18,1.18,0,0,1,.17.36A.74.74,0,0,1,5.47,4a.72.72,0,0,0-.68.5c-.15.3-.27.62-.41.93-.06.15-.15.32-.32.26S4,5.42,4,5.28C4.18,4.9,4.37,4.52,4.54,4.13Z"/><path d="M22.21,18.82l.51-.26.37.55.26-.14a.19.19,0,0,1,.3.13.91.91,0,0,1,0,.49,1.1,1.1,0,0,1-1.42.64L22,20.12a1,1,0,0,1-.32-1.61c.17-.2.33-.18.46,0S22.18,18.77,22.21,18.82Z"/><path d="M3.73,13.25c.06.2.13.38.18.57a.31.31,0,0,1-.15.36,3.07,3.07,0,0,1-1.43.47.38.38,0,0,1-.39-.59c.18-.4.37-.79.55-1.19a.48.48,0,0,1,.42-.34,7.38,7.38,0,0,1,.94,0c.25,0,.33.22.17.43S3.82,13.15,3.73,13.25Zm-1,1.07c.22-.13.44-.24.64-.37a.22.22,0,0,0,.08-.19.24.24,0,0,0-.2-.12,1.83,1.83,0,0,0-.61.11c-.09.05-.15.24-.17.37S2.59,14.23,2.71,14.32Zm.88-1.52c-.49-.13-.7,0-.79.46C3.11,13.19,3.44,13.17,3.59,12.8Z"/><path d="M12.3,14.62c-.29,0-.39-.11-.3-.35.19-.49.39-1,.6-1.46a.33.33,0,0,1,.18-.17,1.57,1.57,0,0,1,1.29,0,.4.4,0,0,1,.24.64,2.36,2.36,0,0,1-1.7,1.3ZM14,13.07c-.07-.07-.11-.15-.18-.19a.76.76,0,0,0-.91.3c-.11.24-.21.48-.31.72a1.2,1.2,0,0,0,0,.2.63.63,0,0,0,.24,0,3.41,3.41,0,0,0,1.07-.81Z"/><path d="M5.4,8a.75.75,0,0,1,.74,1.11,1.51,1.51,0,0,1-1.86,1,.49.49,0,0,1-.45-.51A1.74,1.74,0,0,1,5.4,8ZM4.81,9.79A.76.76,0,0,0,5,9.73,1.67,1.67,0,0,0,5.79,9c.17-.33,0-.57-.35-.59a1.15,1.15,0,0,0-1.11.85C4.24,9.6,4.38,9.79,4.81,9.79Z"/><path d="M10.06,9.28a5.85,5.85,0,0,1,.52.36c.21.21.16.38-.07.46a8,8,0,0,0-.64-.57c-.25-.19-.45-.13-.62.14a3.22,3.22,0,0,1-.25.39.23.23,0,0,1-.39,0c-.07-.08-.09-.13,0-.23a3.17,3.17,0,0,0,.78-1.56.26.26,0,0,1,.11-.16A1.6,1.6,0,0,1,10.73,8a1,1,0,0,1,.22.13c.19.15.22.32,0,.48s-.49.37-.74.56ZM9.59,9a1.33,1.33,0,0,0,1.12-.64C10.24,8.11,9.73,8.4,9.59,9Z"/><path d="M6.44,5.34l.27-.21a.15.15,0,0,1,.23,0,1,1,0,0,0,.93.12.94.94,0,0,0,.23-.4s-.1-.14-.16-.14c-.27,0-.54,0-.8,0s-.34,0-.41-.15,0-.29.06-.4A1.37,1.37,0,0,1,8,3.56a.82.82,0,0,1,.66.15.25.25,0,0,1-.06.45.23.23,0,0,1-.21-.06.5.5,0,0,0-.59-.23,4.09,4.09,0,0,0-.47.23s-.08.11-.11.17.11.08.18.08a4.17,4.17,0,0,0,.5,0c.36,0,.56.08.65.3a.66.66,0,0,1-.28.77,1.36,1.36,0,0,1-1.34.21A2.82,2.82,0,0,1,6.44,5.34Z"/><path d="M15.81,14.22a1.42,1.42,0,0,0-1.24.31c-.12.11-.22.16-.35.06s-.05-.24,0-.34a7.31,7.31,0,0,1,1.61-1.58.52.52,0,0,1,.39-.06c.15,0,.15.21.13.34-.07.48-.14,1-.22,1.44,0,.15-.12.19-.26.17s-.11-.15-.09-.25A.78.78,0,0,0,15.81,14.22Zm.11-1c-.37,0-.51.34-.73.58C15.82,13.9,16,13.78,15.92,13.25Z"/><path d="M7.26,8.07c-.19.42-.39.82-.55,1.23s0,.36.27.31a.77.77,0,0,0,.72-.48,7.24,7.24,0,0,1,.54-.93c.16-.25.25-.25.46,0a5.43,5.43,0,0,0-.81,1.7.26.26,0,0,1-.43.13A.32.32,0,0,0,7.23,10a3.22,3.22,0,0,0-.5.16c-.14.05-.27.1-.39,0a.47.47,0,0,1-.15-.48,4.93,4.93,0,0,1,.22-.53l.45-.93C7,7.93,7.07,7.92,7.26,8.07Z"/><path d="M11.59,13.66c-.23,0-.44,0-.65,0,0,0-.11.08-.14.14-.12.22-.22.45-.34.67a.22.22,0,0,1-.33.12c-.17-.09-.1-.21,0-.33.32-.56.63-1.13,1-1.69.1-.18.2-.18.32,0a.17.17,0,0,1,0,.17c-.09.19-.2.37-.33.59l.65,0a.2.2,0,0,0,.11-.11c.06-.14.11-.29.18-.43a.32.32,0,0,1,.14-.16.33.33,0,0,1,.26,0s0,.16,0,.23c-.15.33-.31.66-.47,1-.08.18-.17.37-.26.55a.43.43,0,0,1-.12.17.71.71,0,0,1-.22.07c0-.08-.05-.16,0-.23s.16-.4.25-.6A.89.89,0,0,0,11.59,13.66Z"/><path d="M5.27,13H4.93l-.27,0c.08-.36.21-.48.57-.48H6c.16,0,.19.09.2.21S6.21,13,6,13c-.34,0-.46.21-.58.45L5,14.2l.41,0c0,.19-.06.34-.28.36l-1.09.11c0-.33.09-.37.39-.43a.26.26,0,0,0,.17-.11C4.84,13.75,5,13.38,5.27,13Z"/><path d="M17.39,23.46l-.26,0a15.83,15.83,0,0,1,.34-5.18l.12,0,.13.06A15.59,15.59,0,0,0,17.39,23.46Z"/><path d="M18.76,13.68c.21-.53.41-1,.62-1.54a.29.29,0,0,1,.25-.14,5.15,5.15,0,0,1,.68,0c.14,0,.13.11.08.19a5.82,5.82,0,0,1-.36.47c-.2.28-.43.54-.61.83s-.18.22-.34.19Z"/><path d="M2.76,8.77l.68-.71a.54.54,0,0,1,.22-.15.32.32,0,0,1,.24,0,.29.29,0,0,1,0,.24c0,.06-.07.1-.13.13A5.92,5.92,0,0,0,2.29,9.92c-.2.27-.24.28-.39,0l.52-.74a.19.19,0,0,0,0-.26,3,3,0,0,1-.29-.53.31.31,0,0,1,0-.23.23.23,0,0,1,.18-.09s.07.06.1.1C2.54,8.35,2.65,8.55,2.76,8.77Z"/><path d="M16.38,14.41c.21-.3.39-.55.56-.81a.29.29,0,0,0,0-.18,6,6,0,0,1-.3-.56.28.28,0,0,1,0-.25c.07-.12.2-.1.27,0l.34.62.58-.61a1.26,1.26,0,0,1,.32-.25.26.26,0,0,1,.23,0,.34.34,0,0,1,0,.26s-.07.08-.12.11a6.14,6.14,0,0,0-1.48,1.61,1.8,1.8,0,0,1-.19.21Z"/><path d="M8,19.06l.24-.1A12,12,0,0,1,9,23.48H8.74A12.08,12.08,0,0,0,8,19.06Z"/><path d="M21.74,23.45h-.27a8.91,8.91,0,0,1,.29-3.2l.22.14A9,9,0,0,0,21.74,23.45Z"/><path d="M12.24,22c-.14.48-.27,1-.42,1.42,0,.05-.17.06-.26.1l-.06-.07.5-1.55Z"/><path d="M32,21.9l.24.09-.47,1.49h-.23A6.8,6.8,0,0,1,32,21.9Z"/><path d="M10.57,22.21l.14-.11a2.8,2.8,0,0,1,.4,1.36l-.23,0Z"/><path d="M31.08,23.47l-.23,0-.3-1.22h-.06l.18-.19A2.74,2.74,0,0,1,31.08,23.47Z"/><path d="M18.66,14.65c-.24,0-.4-.17-.32-.31a1.19,1.19,0,0,1,.38-.36.36.36,0,0,1,.3.12.31.31,0,0,1-.05.29A1.64,1.64,0,0,1,18.66,14.65Z"/><path d="M20.09,22.34l.22.12-.46,1h-.24A4.07,4.07,0,0,1,20.09,22.34Z"/><path d="M4.34,22.46c-.14.33-.27.65-.42.95,0,.06-.15.07-.23.1l-.07-.07.48-1.11Z"/><path d="M15.94,22.34l.22.12c-.14.33-.27.64-.42.95,0,.06-.15.07-.28.13A3.92,3.92,0,0,1,15.94,22.34Z"/><path d="M6.78,23.44c.08-.2.15-.4.24-.6l.25-.5.22.12c-.13.32-.26.64-.41.95,0,.06-.17.07-.26.1Z"/><path d="M36.13,22.46c-.14.32-.26.63-.41.93,0,.07-.17.09-.25.13l-.07-.07.5-1.12Z"/><path d="M31.48,23.46c-.25.06-.26.05-.27-.18v-.81h.27Z"/><path d="M14.5,22.62l.11-.16a1.56,1.56,0,0,1,.42,1l-.23,0Z"/><path d="M18.64,22.62l.11-.15a1.48,1.48,0,0,1,.42,1l-.23,0Z"/><path d="M3,23.5l-.31-.88.12-.16a1.52,1.52,0,0,1,.41,1Z"/><path d="M5.83,22.62l.11-.15a1.43,1.43,0,0,1,.41,1l-.22,0Z"/><path d="M23.36,23.47l-.21,0c-.12-.28-.23-.53-.32-.8,0-.05,0-.14.08-.25A1.48,1.48,0,0,1,23.36,23.47Z"/><path d="M35,23.47l-.23,0-.28-.83h-.06l.14-.22A1.52,1.52,0,0,1,35,23.47Z"/><path d="M11.26,22.46h.25c0,.32,0,.63,0,.93,0,.05-.14.09-.25.16Z"/><path d="M19.58,22.79v.66c-.24.08-.27.06-.27-.17V23C19.31,22.74,19.31,22.74,19.58,22.79Z"/><path d="M23.76,23.48h-.25v-.71h.25Z"/><path d="M3.6,23.48H3.37v-.71H3.6Z"/><path d="M6.51,22.77h.24v.71H6.51Z"/><path d="M15.42,23.48h-.23v-.7h.23Z"/><path d="M35.15,23.47v-.7h.24v.7Z"/><path d="M29.53,7.22a.52.52,0,0,1-.52.53.5.5,0,0,1-.48-.55.51.51,0,0,1,.5-.53A.53.53,0,0,1,29.53,7.22Z"/><path d="M31.62,17.38s-.15-.06-.18-.12a.36.36,0,0,1,0-.27.81.81,0,0,1,.64-.37.23.23,0,0,1,.23.37A.92.92,0,0,1,31.62,17.38Z"/></g><g class="cls-3"><path d="M25,14.3l-1.8.87c-.1.05-.14.09-.09.21s.11.35.16.53l-.22.16c-.15-.16-.31-.32-.45-.48a.19.19,0,0,0-.26-.06c-.12.05-.27.08-.4.13a.74.74,0,0,1-1-.91c.09-.27.2-.53.3-.8a.31.31,0,0,0,0-.21,35.48,35.48,0,0,1-2-4.06l0,0-.47.24.06-.49a2.87,2.87,0,0,1-2.41-2.93,3.21,3.21,0,0,1,1.87-3.14,3.38,3.38,0,0,1,0-2l.24.08a3.22,3.22,0,0,0,0,1.74A2.25,2.25,0,0,0,20.07,4.8a1.76,1.76,0,0,0,1.33-.14.22.22,0,0,0,.12-.18,2.64,2.64,0,0,1,.72-2.27l.52-.61.21.23c-.23.24-.45.45-.64.69A2.47,2.47,0,0,0,22.68,6a2.22,2.22,0,0,0,1.64.18s0,0,0,0a2.05,2.05,0,0,1,0-2.06,1.8,1.8,0,0,1,1.86-.82.87.87,0,0,0-.65-1s0-.08,0-.12a.57.57,0,0,1,0-.12.77.77,0,0,1,.75.49,4.36,4.36,0,0,1,.2.81c0,.18.16.3.33.25a6.42,6.42,0,0,1,2.43-.16.46.46,0,0,0,.28-.08,2.69,2.69,0,0,1,1.12-.56,1.84,1.84,0,0,1,1.89.83,2.1,2.1,0,0,1,.08,2.49.49.49,0,0,0-.07.39,3.77,3.77,0,0,1-.1,2.13,4,4,0,0,1-.45.8.24.24,0,0,0,0,.27,5,5,0,0,1,.62,2.66,1.52,1.52,0,0,1-.35,1,.31.31,0,0,0,0,.4l1-.65a4,4,0,0,1,1.43-.6,1.26,1.26,0,0,1,.83.1,3.58,3.58,0,0,1,1.34,1.1,2,2,0,0,1,.07,2.3,2.06,2.06,0,0,1-2.7.7.31.31,0,0,0-.25,0,17,17,0,0,1-2.76,1.13,1.47,1.47,0,0,1-1.07-.05.22.22,0,0,0-.14,0l-1.41.39c0,.11,0,.26.07.42.12.62.28,1.24.37,1.86a2.17,2.17,0,0,1-1,2.35,3.05,3.05,0,0,1-1.72.57,2.41,2.41,0,0,1-1.32-.4,1.24,1.24,0,0,1-.59-1,4.47,4.47,0,0,1,.47-2.12,3.81,3.81,0,0,0,.31-2.08,11.32,11.32,0,0,1,0-1.54A6,6,0,0,0,25,14.68,1.73,1.73,0,0,1,25,14.3Zm6.91-.61A1.74,1.74,0,0,1,30,13.54a2.34,2.34,0,0,1-.73-1,.45.45,0,0,0-.11-.17,6,6,0,0,1-.74-.77c-.22-.33-.44-.56-.87-.47-.06,0-.11,0-.17,0a.68.68,0,0,0-.65.24,5.07,5.07,0,0,1-.49.55,3.61,3.61,0,0,0-.92,2.26,3.42,3.42,0,0,0,.89,2.46,2.67,2.67,0,0,0,2.16,1.15,3.35,3.35,0,0,0,1.43-.28,1.69,1.69,0,0,1,0-.51,4.65,4.65,0,0,1,.35-1,7.06,7.06,0,0,1,1.63-1.9C31.88,14,32,13.89,31.89,13.69Zm.38-7.1c-.52-.08-.73-.3-.82-.85a.32.32,0,0,0-.09-.16,4.31,4.31,0,0,0-1.15-1A1,1,0,0,0,30,4.53a4.44,4.44,0,0,1-.63-.15c-.37-.16-.4-.3-.21-.65,0,0,0,0,0,0a5.26,5.26,0,0,0-1.77,0,3,3,0,0,0-2.19,1.39,8.87,8.87,0,0,0-.53,1.32s0,0,0,0,.24-.19.31,0a3,3,0,0,1,.78-.27,2.92,2.92,0,0,1,1.53.32,1.54,1.54,0,0,1,.92,1.27,6.33,6.33,0,0,1,0,.87,1.76,1.76,0,0,1-.84,1.52s0,0,0,0l1.41.12c0-.08,0-.12,0-.16a2.18,2.18,0,0,1,.29-1.48,1.22,1.22,0,0,1,1.34-.59,1.67,1.67,0,0,1,1,.72,6,6,0,0,1,.38.47A3.06,3.06,0,0,0,32.27,6.59Zm2.07,9.86v.06a3.89,3.89,0,0,0,.65.17,1.92,1.92,0,0,0,1.38-.55,1.61,1.61,0,0,0,.53-1.41,2.11,2.11,0,0,0-.82-1.42,1.8,1.8,0,0,0-2.3-.26A10.26,10.26,0,0,0,31,15.2a3.9,3.9,0,0,0-1,1.63c-.15.56.06.81.63.79a.58.58,0,0,0,.19,0c.69-.25,1.38-.48,2.05-.77s1.28-.61,1.93-.93l.12.21Zm-8.85,6.32a4.46,4.46,0,0,1,.26-2.43,5.22,5.22,0,0,0,.28-1.1,6.53,6.53,0,0,0-.19-2,3.32,3.32,0,0,0-.05-.64,4.42,4.42,0,0,0-.44-.73,1.28,1.28,0,0,0,0,.18c0,.62.07,1.24.08,1.85a4.22,4.22,0,0,1-.36,1.92,4.21,4.21,0,0,0-.47,2,.9.9,0,0,0,.82,1,4.09,4.09,0,0,0,1,0,5.79,5.79,0,0,0,2.1-1.06.35.35,0,0,0,.14-.22,3.07,3.07,0,0,0,.07-.9c-.12-.8-.3-1.59-.46-2.38a.24.24,0,0,0-.16-.15,3,3,0,0,1-1.89-.94.94.94,0,0,0-.14-.13l.16.92A4.15,4.15,0,0,1,26,20.41a3.72,3.72,0,0,0-.29,2l0,.32ZM18.4,3.57,18,3.78a3.12,3.12,0,0,0-.75,4.37,2.32,2.32,0,0,0,3.35.44.33.33,0,0,0,.15-.37c-.12-.63-.22-1.27-.31-1.92,0-.29,0-.59-.06-.9h-.35V5.08A2.54,2.54,0,0,1,18.4,3.57Zm7,6.61A2.79,2.79,0,0,1,24.2,7.35c0-.27.08-.55.12-.8h-.94l-.21.65-.09-.51c-.49.19-.91,4.72-.54,5.76l.06-.06c.69-.51,1.38-1,2-1.56C24.91,10.64,25.14,10.42,25.41,10.18Zm5.41,3.45a1.22,1.22,0,0,0,1.48-1.15,5.51,5.51,0,0,0-.1-1.4,4.59,4.59,0,0,0-1.46-2.54c-.34-.32-.65-.25-.81.18a3.34,3.34,0,0,0,.19,2.5A10.58,10.58,0,0,1,30.82,13.63ZM25.29,9.17a.67.67,0,0,0,0-.2A3.06,3.06,0,0,0,25,8.45c-.28-.34-.3-.34-.1-.71a.28.28,0,0,1,.19-.12c.2,0,.41,0,.61,0a.33.33,0,0,1,.39.24.32.32,0,0,1-.06.38c-.11.12-.2.25-.3.38a.25.25,0,0,0,.07.39l.43.23.32-.29.26.21-.54.5-.54-.27-.29.4a6,6,0,0,0,.81.28,1.32,1.32,0,0,0,1.72-1.19,5.24,5.24,0,0,0,0-1,1.33,1.33,0,0,0-.88-1.19,3.9,3.9,0,0,0-.76-.22,1.38,1.38,0,0,0-1.7,1.09,2.85,2.85,0,0,0,.14,1.36.49.49,0,0,0,0,.07Zm.24,1.3-.92.71L22.66,12.7a.32.32,0,0,0-.1.21c.06.42.14.85.21,1.27.51,0,1-.12,1.46.2a1.45,1.45,0,0,0,.95-1.08c.1-.58.47-1.1.39-1.73C25.53,11.22,25.54,10.86,25.53,10.47Zm-4,3.11a5.08,5.08,0,0,1,.4-.48.29.29,0,0,0,.07-.32c-.26-.88-.51-1.77-.75-2.65-.13-.45-.23-.91-.33-1.34l-1.19.58.1.47,0,0-.14-.2A27.42,27.42,0,0,0,21.5,13.58Zm.71-.89h.05a14.85,14.85,0,0,1,.43-6l-.39,0,.27-.35-.5-.57,0,0a.17.17,0,0,0,0,.07,3.58,3.58,0,0,1-.86,2.62c-.05,0-.05.14,0,.21.11.49.22,1,.36,1.47C21.73,11,22,11.84,22.21,12.69Zm9.9-6.36a1.94,1.94,0,0,0-.48-3.15A1.25,1.25,0,0,0,30.8,3a2.32,2.32,0,0,0-1.46.89.34.34,0,0,0-.06.12l.16.1c.36.19.41.18.72-.08A1,1,0,0,1,31,3.79a1.17,1.17,0,0,1,.77,1.76.39.39,0,0,0,0,.45A3.43,3.43,0,0,0,32.11,6.33ZM21,8.18c.74-.76,1-2.51.39-3.22-.11,0-.23.08-.34.1s-.18.09-.19.22-.09.15-.14.22l-.06,0A13.86,13.86,0,0,0,21,8.18Zm9.54,5.34-.59-2-.71-.08A2.11,2.11,0,0,0,30.57,13.52ZM26.35,3.71c-.3-.32-1-.25-1.52.17a1.59,1.59,0,0,0-.29,2,.68.68,0,0,0,.08-.54c-.14-.47.06-.74.55-.82a.59.59,0,0,0,.19,0ZM22,14.41l.42-.16-.32-1c-.15.19-.29.35-.41.52a.2.2,0,0,0,0,.15C21.8,14.08,21.91,14.24,22,14.41Zm4.83-3.89H25.77l.09.57,1-.24Zm.29.37H28a1.38,1.38,0,0,0,0-.26s-.05-.12-.08-.12h-.83Zm-5.87,4.35.51-.73-.28-.42A1.49,1.49,0,0,0,21.26,15.24ZM29,11.36a2.37,2.37,0,0,0,0-.39.22.22,0,0,0-.12-.16,4.34,4.34,0,0,0-.54-.17c0,.15,0,.32,0,.37A4.42,4.42,0,0,0,29,11.36Zm-3.11.56.62-.69C25.89,11.29,25.76,11.44,25.84,11.92ZM29,12c0-.38-.05-.44-.44-.51Z"/><path d="M17.26,16.12c.11-.14.2-.28.31-.41a.29.29,0,0,1,.48,0c.13.18.23.38.35.57.1-.08.2-.18.31-.26s.41-.12.5.12a1.11,1.11,0,0,1,.09.59,1.52,1.52,0,0,1-2.07,1.09,1.32,1.32,0,0,1-.87-2c.2-.36.42-.38.67-.06C17.11,15.87,17.18,16,17.26,16.12Z"/><path d="M6.7,17.21c0-.13,0-.27.08-.39a.26.26,0,0,1,.4-.17,5.2,5.2,0,0,1,.47.3,2,2,0,0,1,.12-.27c.12-.24.28-.27.49-.1a1,1,0,0,1,.24,1.07,1,1,0,0,1-.26.45,1.63,1.63,0,0,1-1.37.48,1.18,1.18,0,0,1-1-1.42A.22.22,0,0,1,6.24,17,4.93,4.93,0,0,1,6.7,17.21Z"/><path d="M8.75,12.7A1.12,1.12,0,0,0,8,13a5.07,5.07,0,0,1-.72.49,4.6,4.6,0,0,1,.52.38c.2.19.13.36-.09.42-.23-.21-.43-.4-.65-.57s-.44-.12-.6.14-.17.28-.27.41a.23.23,0,0,1-.39,0,.23.23,0,0,1,0-.2,3.29,3.29,0,0,0,.78-1.57.27.27,0,0,1,.13-.17,1.39,1.39,0,0,1,1.48.06.49.49,0,0,0,.22,0l1.36-.19c.13,0,.25,0,.27.17s0,.26-.21.25c-.5,0-.74.27-.91.68-.11.26-.2.52-.32.76s-.24.28-.3.26-.13-.26-.07-.4C8.37,13.5,8.56,13.11,8.75,12.7Zm-2,.46a1.34,1.34,0,0,0,1.11-.64A.77.77,0,0,0,6.76,13.16Z"/><path d="M4.2,3.79c-.18-.14-.43.18-.6-.1h0c-.33,0-.49.16-.62.44s-.27.5-.42.79l.41,0c0,.19-.06.34-.28.36l-.17,0-.92.08C1.63,5,1.65,5,2,4.94a.23.23,0,0,0,.15-.09c.21-.38.42-.75.64-1.16h-.6c.1-.37.21-.46.58-.46h.7c.19,0,.19,0,.28.2l1-.14c.18,0,.36,0,.55-.06a1,1,0,0,1,.29.1c.15-.2.13-.33-.15-.55l.27-.25a1.18,1.18,0,0,1,.17.36.74.74,0,0,1-.69.77.72.72,0,0,0-.68.5c-.15.3-.28.61-.41.93-.06.15-.15.32-.32.26s-.1-.27,0-.41C3.84,4.56,4,4.18,4.2,3.79Z"/><path d="M21.87,18.48l.51-.26.37.55.26-.14a.19.19,0,0,1,.3.13.91.91,0,0,1,0,.49,1.1,1.1,0,0,1-1.42.64l-.28-.11a1,1,0,0,1-.32-1.61c.17-.2.33-.18.46,0S21.84,18.43,21.87,18.48Z"/><path d="M3.39,12.91c.06.2.13.38.18.57a.31.31,0,0,1-.15.36A3.07,3.07,0,0,1,2,14.31a.38.38,0,0,1-.39-.59c.18-.4.37-.79.55-1.19a.48.48,0,0,1,.42-.34,7.38,7.38,0,0,1,.94,0c.25,0,.32.22.17.43S3.48,12.81,3.39,12.91ZM2.37,14c.22-.13.44-.24.64-.37a.22.22,0,0,0,.08-.19.24.24,0,0,0-.2-.12,1.78,1.78,0,0,0-.61.11c-.1.05-.15.24-.17.37S2.25,13.89,2.37,14Zm.88-1.52c-.49-.13-.7,0-.79.46C2.77,12.85,3.1,12.83,3.25,12.46Z"/><path d="M12,14.28c-.29,0-.39-.11-.3-.35.19-.49.39-1,.6-1.46a.33.33,0,0,1,.18-.17,1.57,1.57,0,0,1,1.29,0,.4.4,0,0,1,.24.64,2.32,2.32,0,0,1-1.7,1.29Zm1.7-1.55c-.07-.07-.11-.15-.18-.19a.76.76,0,0,0-.91.3c-.11.24-.21.48-.31.72a1.2,1.2,0,0,0,0,.2.63.63,0,0,0,.24,0,3.41,3.41,0,0,0,1.07-.81C13.58,12.88,13.61,12.82,13.66,12.73Z"/><path d="M5.06,7.66A.75.75,0,0,1,5.8,8.77a1.52,1.52,0,0,1-1.86,1,.49.49,0,0,1-.45-.51A1.74,1.74,0,0,1,5.06,7.66ZM4.47,9.45a.76.76,0,0,0,.21-.06,1.67,1.67,0,0,0,.77-.76c.17-.33,0-.57-.35-.59A1.15,1.15,0,0,0,4,8.89C3.9,9.26,4,9.45,4.47,9.45Z"/><path d="M9.72,8.94a5.85,5.85,0,0,1,.52.36c.21.21.16.38-.07.45-.23-.2-.42-.4-.64-.56s-.45-.13-.62.14a3.22,3.22,0,0,1-.25.39.23.23,0,0,1-.39,0c-.07-.08-.09-.13,0-.23A3.17,3.17,0,0,0,9.05,8a.24.24,0,0,1,.11-.16,1.6,1.6,0,0,1,1.23-.12,1,1,0,0,1,.22.13c.19.15.22.32,0,.48s-.49.37-.74.56Zm-.47-.27A1.33,1.33,0,0,0,10.37,8C9.9,7.77,9.39,8.06,9.25,8.67Z"/><path d="M6.1,5l.27-.21a.15.15,0,0,1,.23,0A1,1,0,0,0,7.53,5a.94.94,0,0,0,.23-.4s-.1-.14-.16-.14c-.27,0-.54,0-.8,0s-.34-.05-.41-.15,0-.29.06-.4a1.4,1.4,0,0,1,1.18-.6.87.87,0,0,1,.66.16.25.25,0,0,1-.06.45A.23.23,0,0,1,8,3.76a.5.5,0,0,0-.59-.23A4.09,4.09,0,0,0,7,3.76s-.08.11-.11.17S7,4,7,4h.5c.36,0,.56.08.65.3a.66.66,0,0,1-.28.77,1.36,1.36,0,0,1-1.34.21A2.82,2.82,0,0,1,6.1,5Z"/><path d="M15.47,13.88a1.42,1.42,0,0,0-1.24.31c-.12.11-.22.16-.35.06s-.05-.24,0-.34a7.31,7.31,0,0,1,1.61-1.58.52.52,0,0,1,.39-.06c.15,0,.15.21.13.34-.07.48-.14,1-.22,1.44,0,.15-.12.19-.26.17s-.11-.15-.09-.25A.78.78,0,0,0,15.47,13.88Zm.11-1c-.37,0-.51.34-.73.58C15.48,13.56,15.64,13.44,15.58,12.91Z"/><path d="M6.92,7.73c-.19.42-.39.82-.55,1.23s0,.36.27.31a.77.77,0,0,0,.72-.48,7.24,7.24,0,0,1,.54-.93c.16-.25.25-.25.46,0a5.43,5.43,0,0,0-.81,1.7.26.26,0,0,1-.43.13.28.28,0,0,0-.23-.06,3.22,3.22,0,0,0-.5.16c-.14.05-.27.1-.39,0a.47.47,0,0,1-.15-.48,4.93,4.93,0,0,1,.22-.53l.45-.93C6.63,7.59,6.73,7.58,6.92,7.73Z"/><path d="M11.25,13.32c-.23,0-.44,0-.65,0,0,0-.11.08-.14.14-.12.22-.22.45-.34.67a.22.22,0,0,1-.33.12c-.17-.09-.1-.21,0-.33.32-.56.63-1.13,1-1.69.1-.18.2-.18.32,0a.2.2,0,0,1,0,.17c-.09.19-.2.37-.33.59l.65,0a.2.2,0,0,0,.11-.11c.06-.14.11-.29.18-.43a.32.32,0,0,1,.14-.16.33.33,0,0,1,.26,0s0,.16,0,.23c-.15.33-.31.66-.47,1-.08.18-.17.37-.26.55a.43.43,0,0,1-.12.17.71.71,0,0,1-.22.07c0-.08-.05-.16,0-.23s.16-.4.25-.6C11.22,13.41,11.23,13.37,11.25,13.32Z"/><path d="M4.93,12.62H4.59l-.27,0c.08-.36.21-.48.57-.48h.77c.16,0,.19.09.2.21s0,.27-.17.26c-.34,0-.46.21-.58.45s-.27.49-.42.78l.41,0c0,.19-.06.34-.28.36l-1.09.11c0-.33.09-.37.39-.43a.26.26,0,0,0,.17-.11C4.5,13.41,4.7,13,4.93,12.62Z"/><path d="M17.05,23.12l-.26,0A15.83,15.83,0,0,1,17.13,18l.12,0,.13.06A15.59,15.59,0,0,0,17.05,23.12Z"/><path d="M18.42,13.34c.21-.53.41-1,.62-1.54a.29.29,0,0,1,.25-.14,5.15,5.15,0,0,1,.68,0c.14,0,.13.11.08.19a5.82,5.82,0,0,1-.36.47c-.2.28-.43.54-.61.83s-.18.22-.34.19Z"/><path d="M2.42,8.43l.68-.71a.54.54,0,0,1,.22-.15.32.32,0,0,1,.24,0,.29.29,0,0,1,0,.24c0,.06-.07.1-.13.13A5.92,5.92,0,0,0,2,9.58c-.2.27-.24.28-.39,0l.52-.74a.19.19,0,0,0,0-.26A3,3,0,0,1,1.79,8a.33.33,0,0,1,0-.24A.25.25,0,0,1,2,7.71s.07.06.1.1C2.2,8,2.31,8.21,2.42,8.43Z"/><path d="M16,14.07c.21-.3.39-.55.56-.81a.29.29,0,0,0,0-.18,6,6,0,0,1-.3-.56.28.28,0,0,1,0-.25c.07-.12.2-.1.27,0l.34.62.58-.61a1.26,1.26,0,0,1,.32-.25.26.26,0,0,1,.23,0,.34.34,0,0,1,0,.26s-.07.08-.12.11a6.14,6.14,0,0,0-1.48,1.61,1.8,1.8,0,0,1-.19.21Z"/><path d="M7.7,18.72l.24-.1a12,12,0,0,1,.72,4.52H8.4A12.08,12.08,0,0,0,7.7,18.72Z"/><path d="M21.4,23.11h-.27a8.91,8.91,0,0,1,.29-3.2l.22.14A9,9,0,0,0,21.4,23.11Z"/><path d="M11.9,21.65c-.14.48-.27,1-.42,1.42,0,.05-.17.06-.26.1l-.06-.07.5-1.55Z"/><path d="M31.64,21.56l.24.09-.47,1.49h-.23A6.8,6.8,0,0,1,31.64,21.56Z"/><path d="M10.23,21.87l.14-.11a2.8,2.8,0,0,1,.4,1.36l-.23,0Z"/><path d="M30.74,23.13l-.23,0-.3-1.22h-.06l.18-.19A2.74,2.74,0,0,1,30.74,23.13Z"/><path d="M18.32,14.31c-.24,0-.4-.17-.32-.31a1.09,1.09,0,0,1,.38-.36.36.36,0,0,1,.3.12.31.31,0,0,1-.05.29A1.64,1.64,0,0,1,18.32,14.31Z"/><path d="M19.75,22l.22.12-.46,1h-.24A3.79,3.79,0,0,1,19.75,22Z"/><path d="M4,22.12c-.14.33-.27.65-.42.95,0,.06-.15.07-.23.1l-.07-.07L3.76,22Z"/><path d="M15.6,22l.22.12c-.14.33-.27.64-.42.95,0,.06-.15.07-.28.13A3.92,3.92,0,0,1,15.6,22Z"/><path d="M6.44,23.1c.08-.2.15-.4.24-.6s.16-.32.25-.5l.22.12c-.14.32-.26.64-.41.95,0,.06-.17.07-.26.1Z"/><path d="M35.79,22.12c-.14.32-.26.63-.41.93,0,.07-.17.09-.25.13l-.07-.08.5-1.11Z"/><path d="M31.14,23.12c-.25.06-.26.05-.27-.18v-.81h.27Z"/><path d="M14.16,22.28l.11-.16a1.56,1.56,0,0,1,.42,1l-.23,0Z"/><path d="M18.3,22.28l.11-.15a1.48,1.48,0,0,1,.42,1l-.23,0Z"/><path d="M2.64,23.16l-.31-.88.12-.16a1.52,1.52,0,0,1,.41,1Z"/><path d="M5.49,22.28l.11-.15a1.43,1.43,0,0,1,.41,1l-.22,0Z"/><path d="M23,23.13l-.21,0c-.12-.28-.23-.53-.32-.8,0-.05,0-.14.08-.25A1.48,1.48,0,0,1,23,23.13Z"/><path d="M34.66,23.13l-.23,0-.28-.83h-.06l.14-.22A1.52,1.52,0,0,1,34.66,23.13Z"/><path d="M10.92,22.12h.25c0,.32,0,.63,0,.93,0,.05-.14.09-.25.16Z"/><path d="M19.24,22.45v.66c-.24.08-.27.06-.27-.17s0-.2,0-.3S19,22.4,19.24,22.45Z"/><path d="M23.42,23.14h-.25v-.71h.25Z"/><path d="M3.26,23.14H3v-.71h.23Z"/><path d="M6.17,22.43h.24v.71H6.17Z"/><path d="M15.08,23.14h-.23v-.71h.23Z"/><path d="M34.81,23.13v-.7h.24v.7Z"/><path d="M29.19,6.88a.52.52,0,0,1-.52.53.5.5,0,0,1-.48-.55.51.51,0,0,1,.5-.53A.53.53,0,0,1,29.19,6.88Z"/><path d="M31.28,17s-.15-.06-.18-.12a.36.36,0,0,1,0-.27.81.81,0,0,1,.64-.37.23.23,0,0,1,.23.37A.92.92,0,0,1,31.28,17Z"/></g><path class="cls-4" d="M25.17,14.5l-1.79.87c-.1.05-.14.09-.1.21a4.51,4.51,0,0,1,.17.52l-.22.17c-.15-.17-.31-.32-.45-.48a.21.21,0,0,0-.26-.07c-.13.06-.27.08-.4.14a.73.73,0,0,1-.95-.91c.09-.27.2-.53.3-.8a.31.31,0,0,0,0-.21,36.31,36.31,0,0,1-2-4.06s0,0,0-.05l-.47.23.06-.48a2.87,2.87,0,0,1-2.41-2.93,3.19,3.19,0,0,1,1.87-3.14,3.46,3.46,0,0,1,0-2l.25.08a3.22,3.22,0,0,0,0,1.74A2.25,2.25,0,0,0,20.27,5a1.76,1.76,0,0,0,1.33-.14.21.21,0,0,0,.11-.18,2.68,2.68,0,0,1,.73-2.27c.16-.2.33-.39.52-.61l.21.23c-.23.24-.45.45-.65.69a2.47,2.47,0,0,0,.36,3.5,2.17,2.17,0,0,0,1.64.19l0,0a2.05,2.05,0,0,1,0-2.06,1.78,1.78,0,0,1,1.86-.82.89.89,0,0,0-.65-1,.37.37,0,0,1,0-.11V2.24a.78.78,0,0,1,.76.49,4.17,4.17,0,0,1,.2.81c0,.18.16.3.33.25a6.23,6.23,0,0,1,2.43-.16.46.46,0,0,0,.28-.08A2.63,2.63,0,0,1,30.84,3a1.84,1.84,0,0,1,1.89.83,2.1,2.1,0,0,1,.08,2.49.49.49,0,0,0-.08.39,3.68,3.68,0,0,1-.09,2.13,4.53,4.53,0,0,1-.45.8c-.06.1-.08.16,0,.26a5.06,5.06,0,0,1,.62,2.67,1.56,1.56,0,0,1-.35,1,.31.31,0,0,0,0,.4c.32-.22.65-.45,1-.65a4.13,4.13,0,0,1,1.43-.61,1.29,1.29,0,0,1,.82.11A3.53,3.53,0,0,1,37,13.88a2,2,0,0,1,.07,2.3,2.06,2.06,0,0,1-2.7.7.33.33,0,0,0-.26,0A17.45,17.45,0,0,1,31.34,18,1.47,1.47,0,0,1,30.27,18a.22.22,0,0,0-.14,0l-1.41.39c0,.11,0,.26.07.42.12.62.28,1.23.37,1.86a2.18,2.18,0,0,1-1,2.35,3.16,3.16,0,0,1-1.72.57,2.38,2.38,0,0,1-1.32-.4,1.22,1.22,0,0,1-.59-1A4.45,4.45,0,0,1,25,20a3.9,3.9,0,0,0,.31-2.08,13.21,13.21,0,0,1,0-1.54,6.1,6.1,0,0,0-.06-1.48A2.62,2.62,0,0,1,25.17,14.5Zm6.92-.61a1.74,1.74,0,0,1-1.94-.15,2.28,2.28,0,0,1-.73-1,.64.64,0,0,0-.11-.16,6,6,0,0,1-.74-.77c-.23-.33-.45-.57-.88-.47a.44.44,0,0,1-.16,0,.66.66,0,0,0-.65.24,5.07,5.07,0,0,1-.49.55,3.53,3.53,0,0,0-.92,2.26,3.44,3.44,0,0,0,.89,2.46A2.67,2.67,0,0,0,28.52,18,3.38,3.38,0,0,0,30,17.72a2.25,2.25,0,0,1,0-.52,4.79,4.79,0,0,1,.36-1,6.91,6.91,0,0,1,1.63-1.9C32.08,14.2,32.17,14.09,32.09,13.89Zm.38-7.1c-.52-.08-.73-.3-.82-.85a.32.32,0,0,0-.09-.16,4.31,4.31,0,0,0-1.15-1,1,1,0,0,0-.24-.07,4.44,4.44,0,0,1-.63-.15c-.37-.16-.4-.3-.21-.65,0,0,0,0,0,0a5.26,5.26,0,0,0-1.77,0,3,3,0,0,0-2.2,1.38,11.88,11.88,0,0,0-.53,1.33s0,0,0,0,.23-.19.31,0a3,3,0,0,1,.77-.27,2.75,2.75,0,0,1,1.54.32A1.54,1.54,0,0,1,28.39,8a6.26,6.26,0,0,1,0,.86,1.76,1.76,0,0,1-.84,1.53s0,0,0,0l1.42.11a.92.92,0,0,1,0-.15,2.15,2.15,0,0,1,.29-1.49,1.23,1.23,0,0,1,1.34-.58,1.73,1.73,0,0,1,1,.71c.13.15.25.32.37.48A3.06,3.06,0,0,0,32.47,6.79Zm2.07,9.85v.07a3.89,3.89,0,0,0,.65.17,1.92,1.92,0,0,0,1.38-.55,1.61,1.61,0,0,0,.53-1.41,2.11,2.11,0,0,0-.82-1.42,1.8,1.8,0,0,0-2.3-.26,9.92,9.92,0,0,0-2.74,2.16,3.9,3.9,0,0,0-1,1.63c-.15.56.05.8.63.79a.42.42,0,0,0,.19,0c.68-.25,1.38-.47,2-.76s1.28-.62,1.93-.94l.12.22ZM25.69,23a4.59,4.59,0,0,1,.25-2.44,4.07,4.07,0,0,0,.28-1.09,6.53,6.53,0,0,0-.18-2,3.32,3.32,0,0,0-.05-.64,5.24,5.24,0,0,0-.44-.73.59.59,0,0,0,0,.18c0,.62.07,1.23.08,1.85a4.24,4.24,0,0,1-.36,1.92,4.21,4.21,0,0,0-.47,2,.9.9,0,0,0,.82,1,4.09,4.09,0,0,0,1,0,5.79,5.79,0,0,0,2.1-1.06.4.4,0,0,0,.14-.22,3.07,3.07,0,0,0,.07-.9c-.12-.8-.3-1.59-.46-2.38a.24.24,0,0,0-.16-.15,3,3,0,0,1-1.89-.94.72.72,0,0,0-.15-.13c.06.34.12.63.17.92a4.15,4.15,0,0,1-.21,2.51,3.72,3.72,0,0,0-.29,2c0,.1,0,.21,0,.32ZM18.6,3.77,18.23,4a3.11,3.11,0,0,0-.75,4.37,2.32,2.32,0,0,0,3.35.44A.33.33,0,0,0,21,8.42c-.12-.64-.22-1.28-.31-1.92,0-.29,0-.59-.06-.91h-.36l0-.31A2.54,2.54,0,0,1,18.6,3.77Zm7,6.61A2.78,2.78,0,0,1,24.4,7.55c0-.28.08-.55.11-.81h-.93l-.21.66-.09-.52c-.49.2-.91,4.72-.55,5.76l.07-.05c.69-.52,1.37-1,2.05-1.56C25.11,10.84,25.34,10.61,25.61,10.38ZM31,13.82a1.22,1.22,0,0,0,1.48-1.14,5.48,5.48,0,0,0-.1-1.4,4.62,4.62,0,0,0-1.46-2.54c-.34-.32-.65-.25-.81.18a3.29,3.29,0,0,0,.19,2.5A10.64,10.64,0,0,1,31,13.82ZM25.49,9.37a.45.45,0,0,0,0-.2,2.51,2.51,0,0,0-.32-.52c-.29-.34-.3-.34-.1-.72a.27.27,0,0,1,.19-.11c.2,0,.41,0,.61,0a.33.33,0,0,1,.39.24.32.32,0,0,1-.06.38c-.11.12-.2.25-.3.38A.25.25,0,0,0,26,9.2c.13.08.28.15.43.23l.32-.29.26.21-.54.5-.55-.27-.28.4a5.84,5.84,0,0,0,.8.28,1.33,1.33,0,0,0,1.73-1.19,6.28,6.28,0,0,0,0-1,1.33,1.33,0,0,0-.88-1.19,3.39,3.39,0,0,0-.77-.22A1.37,1.37,0,0,0,24.8,7.78a2.68,2.68,0,0,0,.14,1.35s0,.07,0,.08Zm.24,1.3-.92.71L22.86,12.9a.32.32,0,0,0-.1.21c.06.42.14.84.21,1.27.51,0,1-.13,1.46.2a1.47,1.47,0,0,0,.95-1.08c.1-.58.47-1.1.39-1.73A9.75,9.75,0,0,1,25.73,10.67Zm-4,3.11a5.08,5.08,0,0,1,.4-.48.29.29,0,0,0,.07-.32c-.26-.88-.51-1.77-.75-2.66-.13-.45-.23-.9-.33-1.33l-1.19.58L20,10l0,0-.14-.19A27.49,27.49,0,0,0,21.7,13.78Zm.7-.89h.06a14.85,14.85,0,0,1,.43-6l-.39,0,.27-.35-.5-.57,0,0V6a3.54,3.54,0,0,1-.87,2.62.25.25,0,0,0,0,.21c.11.49.22,1,.35,1.47C21.92,11.19,22.17,12,22.4,12.89Zm9.91-6.36a2,2,0,0,0-.48-3.15A1.26,1.26,0,0,0,31,3.23a2.37,2.37,0,0,0-1.47.89s0,.07-.06.12l.17.1c.36.19.41.18.72-.08A1,1,0,0,1,31.24,4,1.17,1.17,0,0,1,32,5.75a.39.39,0,0,0,0,.45A2.57,2.57,0,0,0,32.31,6.53ZM21.23,8.38c.73-.76,1-2.51.39-3.23a2.67,2.67,0,0,1-.34.11c-.15,0-.18.09-.19.22S21,5.63,21,5.7l-.06,0A14,14,0,0,0,21.23,8.38Zm9.54,5.34-.59-2-.72-.09A2.13,2.13,0,0,0,30.77,13.72ZM26.54,3.91c-.3-.32-.95-.25-1.51.17a1.59,1.59,0,0,0-.29,2,.68.68,0,0,0,.08-.54c-.14-.47.06-.74.54-.82a.43.43,0,0,0,.2-.06ZM22.21,14.6l.41-.15-.31-1c-.16.19-.29.35-.41.52a.16.16,0,0,0,0,.15C22,14.28,22.11,14.44,22.21,14.6ZM27,10.72H26l.09.56,1-.23Zm.29.37h.88a.83.83,0,0,0,0-.26s0-.12-.07-.12h-.84Zm-5.86,4.35.5-.73-.27-.42A1.45,1.45,0,0,0,21.46,15.44Zm7.68-3.89a2.39,2.39,0,0,0,0-.38A.26.26,0,0,0,29,11c-.16-.06-.33-.1-.54-.16,0,.15,0,.32.05.37A3.89,3.89,0,0,0,29.14,11.55Zm-3.1.56.62-.69C26.09,11.48,26,11.63,26,12.11Zm3.17.11c0-.38,0-.44-.43-.51Z"/><path class="cls-4" d="M17.46,16.32c.11-.14.2-.29.31-.41a.28.28,0,0,1,.47,0,5.5,5.5,0,0,1,.36.57c.1-.08.19-.19.31-.27s.41-.11.5.13a1,1,0,0,1,.08.58A1.5,1.5,0,0,1,17.43,18a1.32,1.32,0,0,1-.87-2c.2-.35.42-.37.67-.05C17.31,16.07,17.38,16.2,17.46,16.32Z"/><path class="cls-4" d="M6.9,17.41c0-.13,0-.27.08-.39s.21-.27.4-.17a4,4,0,0,1,.46.3L8,16.88c.13-.24.29-.27.5-.1a1,1,0,0,1,.24,1.07,1.08,1.08,0,0,1-.26.45,1.63,1.63,0,0,1-1.37.48,1.17,1.17,0,0,1-1-1.42.22.22,0,0,1,.33-.18C6.59,17.24,6.74,17.33,6.9,17.41Z"/><path class="cls-4" d="M9,12.9a1.06,1.06,0,0,0-.79.25,7,7,0,0,1-.72.49A4.74,4.74,0,0,1,8,14c.21.2.14.37-.08.43a8,8,0,0,0-.65-.57c-.24-.18-.44-.12-.6.14s-.17.28-.27.41a.23.23,0,0,1-.39,0,.2.2,0,0,1,0-.2,3.29,3.29,0,0,0,.78-1.57.27.27,0,0,1,.13-.17,1.41,1.41,0,0,1,1.48,0,.3.3,0,0,0,.21,0c.46-.05.91-.12,1.37-.18.13,0,.25,0,.27.16s0,.27-.21.26c-.51,0-.75.27-.91.68-.11.26-.2.52-.33.76s-.23.28-.3.26-.12-.26-.06-.4C8.57,13.7,8.76,13.31,9,12.9Zm-2,.46a1.34,1.34,0,0,0,1.11-.64A.76.76,0,0,0,7,13.36Z"/><path class="cls-4" d="M4.4,4c-.18-.15-.43.18-.6-.1h0c-.33,0-.5.16-.62.44s-.27.5-.42.79l.41,0c0,.19-.07.34-.28.36l-.17,0-.93.08c.07-.33.09-.35.41-.42A.25.25,0,0,0,2.32,5c.21-.37.42-.74.64-1.15h-.6c.1-.38.21-.47.58-.47h.7c.19,0,.19,0,.28.21l1-.14a4.87,4.87,0,0,1,.55-.06,1,1,0,0,1,.29.1c.15-.2.12-.33-.16-.55l.28-.25c.05.12.16.24.16.36a.73.73,0,0,1-.68.77.71.71,0,0,0-.68.5c-.15.3-.28.61-.41.92-.06.15-.15.33-.32.27s-.11-.27,0-.41C4,4.76,4.22,4.38,4.4,4Z"/><path class="cls-4" d="M22.06,18.68l.52-.26L23,19l.26-.14a.19.19,0,0,1,.3.13,1,1,0,0,1,0,.48,1.11,1.11,0,0,1-1.43.65L21.81,20a1,1,0,0,1-.32-1.61c.17-.2.33-.19.46.05S22,18.63,22.06,18.68Z"/><path class="cls-4" d="M3.59,13.11c.06.2.13.38.18.57a.31.31,0,0,1-.16.36,3,3,0,0,1-1.42.47.39.39,0,0,1-.4-.59c.19-.4.38-.79.55-1.19a.5.5,0,0,1,.42-.34,6.05,6.05,0,0,1,1,0c.25,0,.32.22.17.42S3.68,13,3.59,13.11Zm-1,1.07c.23-.13.45-.24.65-.37a.22.22,0,0,0,.08-.19.24.24,0,0,0-.2-.12,1.57,1.57,0,0,0-.61.11c-.1,0-.15.23-.17.37S2.45,14.09,2.56,14.18Zm.89-1.52c-.49-.13-.7,0-.79.46C3,13.05,3.29,13,3.45,12.66Z"/><path class="cls-4" d="M12.16,14.48c-.29,0-.39-.12-.31-.35.19-.49.4-1,.61-1.46a.35.35,0,0,1,.17-.17,1.63,1.63,0,0,1,1.3,0,.41.41,0,0,1,.24.65,2.37,2.37,0,0,1-1.7,1.29Zm1.69-1.55a.79.79,0,0,0-.17-.19.76.76,0,0,0-.91.3c-.11.24-.21.48-.31.72a1.2,1.2,0,0,0,0,.2c.08,0,.18,0,.24,0a3.29,3.29,0,0,0,1.07-.82A.89.89,0,0,0,13.85,12.93Z"/><path class="cls-4" d="M5.25,7.86A.75.75,0,0,1,6,9a1.5,1.5,0,0,1-1.85,1,.49.49,0,0,1-.45-.51A1.74,1.74,0,0,1,5.25,7.86ZM4.67,9.65a.87.87,0,0,0,.21-.06,1.72,1.72,0,0,0,.77-.76c.17-.34,0-.57-.36-.59a1.14,1.14,0,0,0-1.1.85C4.1,9.46,4.24,9.65,4.67,9.65Z"/><path class="cls-4" d="M9.92,9.13a6.21,6.21,0,0,1,.51.37c.22.21.17.37-.06.45-.23-.2-.42-.4-.64-.56s-.45-.13-.62.14-.16.27-.25.39a.24.24,0,0,1-.4,0c-.06-.08-.08-.14,0-.23a3.17,3.17,0,0,0,.78-1.56A.21.21,0,0,1,9.36,8a1.59,1.59,0,0,1,1.23-.12,1.27,1.27,0,0,1,.22.13c.19.15.21.32,0,.48a6.64,6.64,0,0,1-.73.55Zm-.47-.27a1.34,1.34,0,0,0,1.12-.63A.77.77,0,0,0,9.45,8.86Z"/><path class="cls-4" d="M6.3,5.2c.13-.1.19-.16.27-.21A.14.14,0,0,1,6.8,5a1,1,0,0,0,.93.12A.92.92,0,0,0,8,4.74s-.1-.13-.17-.14c-.26,0-.53,0-.79,0s-.34,0-.41-.15,0-.3.06-.41a1.42,1.42,0,0,1,1.18-.59.87.87,0,0,1,.66.16A.25.25,0,0,1,8.43,4,.25.25,0,0,1,8.22,4a.5.5,0,0,0-.59-.23A2.56,2.56,0,0,0,7.16,4s-.08.11-.11.17.11.08.17.08h.51c.36,0,.56.08.64.29a.65.65,0,0,1-.27.78,1.33,1.33,0,0,1-1.34.2A2.18,2.18,0,0,1,6.3,5.2Z"/><path class="cls-4" d="M15.67,14.08a1.45,1.45,0,0,0-1.24.3c-.12.12-.22.16-.35.06s-.05-.23,0-.33a7.31,7.31,0,0,1,1.61-1.58.52.52,0,0,1,.39-.06c.15,0,.15.21.13.34-.07.48-.14,1-.22,1.44,0,.15-.13.19-.26.17s-.11-.15-.09-.25A.39.39,0,0,1,15.67,14.08Zm.11-1c-.37.05-.51.35-.73.59C15.68,13.76,15.84,13.63,15.78,13.1Z"/><path class="cls-4" d="M7.12,7.93c-.19.42-.39.82-.55,1.23s0,.36.26.31A.79.79,0,0,0,7.56,9a7.24,7.24,0,0,1,.54-.93c.16-.26.25-.26.46,0a5.43,5.43,0,0,0-.81,1.7.26.26,0,0,1-.44.13.25.25,0,0,0-.22-.06,2.91,2.91,0,0,0-.5.16c-.14,0-.27.1-.39,0a.47.47,0,0,1-.15-.48,4.93,4.93,0,0,1,.22-.53L6.72,8C6.83,7.79,6.93,7.78,7.12,7.93Z"/><path class="cls-4" d="M11.44,13.52c-.22,0-.43,0-.64,0-.05,0-.11.08-.14.14-.12.22-.23.45-.34.67s-.18.2-.34.11-.09-.21,0-.32c.32-.56.63-1.13,1-1.69.1-.18.2-.18.31,0a.23.23,0,0,1,0,.18c-.09.19-.2.37-.33.59l.65-.05s.08-.07.11-.11.11-.29.18-.43.08-.15.14-.17a.39.39,0,0,1,.26,0s0,.16,0,.22c-.15.34-.31.67-.47,1-.08.18-.17.37-.26.55a.52.52,0,0,1-.12.17.71.71,0,0,1-.22.06.56.56,0,0,1,0-.22c.08-.2.17-.4.26-.6A.93.93,0,0,1,11.44,13.52Z"/><path class="cls-4" d="M5.12,12.82H4.79l-.27,0c.08-.37.21-.48.57-.48h.76c.17,0,.19.09.21.21s0,.27-.17.25c-.34,0-.46.22-.59.46s-.26.49-.41.78l.41,0c0,.19-.06.33-.28.36l-1.09.11c0-.33.09-.37.39-.43A.28.28,0,0,0,4.49,14C4.7,13.61,4.9,13.23,5.12,12.82Z"/><path class="cls-4" d="M17.24,23.32l-.25,0a15.83,15.83,0,0,1,.34-5.18l.12,0,.13.06A15.88,15.88,0,0,0,17.24,23.32Z"/><path class="cls-4" d="M18.62,13.54c.21-.53.4-1,.62-1.55a.35.35,0,0,1,.25-.14,5,5,0,0,1,.67,0c.15,0,.14.11.09.19s-.24.31-.36.47-.43.54-.61.83a.32.32,0,0,1-.35.19Z"/><path class="cls-4" d="M2.62,8.62l.68-.7a.54.54,0,0,1,.22-.15c.07,0,.19,0,.23,0s0,.16,0,.24-.08.1-.13.13A5.78,5.78,0,0,0,2.15,9.78c-.2.27-.24.27-.39,0L2.28,9a.19.19,0,0,0,0-.26A3.44,3.44,0,0,1,2,8.23.33.33,0,0,1,2,8a.26.26,0,0,1,.17-.09s.08.07.11.11Z"/><path class="cls-4" d="M16.23,14.27c.22-.3.4-.55.57-.81a.29.29,0,0,0,0-.18c-.1-.19-.22-.37-.31-.56a.32.32,0,0,1,0-.25c.07-.13.2-.1.27,0s.22.4.34.62l.58-.62a1.43,1.43,0,0,1,.31-.24c.07,0,.21,0,.24,0s0,.17,0,.26-.07.08-.12.11a6.14,6.14,0,0,0-1.48,1.61,1.19,1.19,0,0,1-.19.2Z"/><path class="cls-4" d="M7.89,18.92l.25-.1a11.75,11.75,0,0,1,.71,4.51H8.6A11.86,11.86,0,0,0,7.89,18.92Z"/><path class="cls-4" d="M21.6,23.31h-.27a8.69,8.69,0,0,1,.29-3.2l.22.14A9,9,0,0,0,21.6,23.31Z"/><path class="cls-4" d="M12.1,21.85c-.14.48-.27.95-.42,1.42,0,.05-.17.06-.26.1l-.06-.07.5-1.55Z"/><path class="cls-4" d="M31.84,21.76l.24.09-.47,1.49h-.23A6.66,6.66,0,0,1,31.84,21.76Z"/><path class="cls-4" d="M10.43,22.07l.14-.11a2.74,2.74,0,0,1,.4,1.36l-.24,0Z"/><path class="cls-4" d="M30.94,23.33l-.23,0-.3-1.22h-.06l.18-.19A2.74,2.74,0,0,1,30.94,23.33Z"/><path class="cls-4" d="M18.52,14.51c-.24,0-.4-.17-.32-.31a1,1,0,0,1,.38-.36.33.33,0,0,1,.29.12.28.28,0,0,1,0,.29A1.64,1.64,0,0,1,18.52,14.51Z"/><path class="cls-4" d="M19.94,22.2l.23.12-.47,1h-.23A4,4,0,0,1,19.94,22.2Z"/><path class="cls-4" d="M4.2,22.32c-.14.33-.27.64-.42.95,0,.06-.15.07-.23.1l-.08-.07L4,22.19Z"/><path class="cls-4" d="M15.8,22.2l.22.12c-.14.32-.27.64-.42.95,0,.06-.15.07-.29.12A4.13,4.13,0,0,1,15.8,22.2Z"/><path class="cls-4" d="M6.64,23.3c.08-.2.15-.41.24-.6s.16-.32.25-.5l.22.11c-.14.33-.26.65-.42,1,0,.06-.16.07-.25.1Z"/><path class="cls-4" d="M36,22.32c-.14.32-.26.63-.41.93,0,.07-.17.09-.25.13l-.07-.08.5-1.11Z"/><path class="cls-4" d="M31.34,23.32c-.26.05-.27.05-.27-.18v-.82h.27Z"/><path class="cls-4" d="M14.35,22.48l.12-.16a1.56,1.56,0,0,1,.42,1l-.23,0Z"/><path class="cls-4" d="M18.5,22.47l.1-.14a1.49,1.49,0,0,1,.43,1l-.23,0Z"/><path class="cls-4" d="M2.83,23.36l-.3-.88.11-.16a1.46,1.46,0,0,1,.42,1Z"/><path class="cls-4" d="M5.69,22.48l.11-.16a1.5,1.5,0,0,1,.41,1l-.22,0Z"/><path class="cls-4" d="M23.22,23.33l-.22,0c-.11-.28-.23-.54-.32-.8,0-.06.05-.14.09-.25A1.48,1.48,0,0,1,23.22,23.33Z"/><path class="cls-4" d="M34.85,23.32l-.22,0-.29-.83h-.05l.14-.22A1.46,1.46,0,0,1,34.85,23.32Z"/><path class="cls-4" d="M11.12,22.32h.25c0,.32,0,.63,0,.93,0,.05-.13.09-.24.16Z"/><path class="cls-4" d="M19.44,22.64v.67c-.24.08-.27.06-.28-.17v-.3C19.17,22.6,19.17,22.6,19.44,22.64Z"/><path class="cls-4" d="M23.62,23.34h-.25v-.71h.25Z"/><path class="cls-4" d="M3.46,23.34H3.23v-.71h.23Z"/><path class="cls-4" d="M6.37,22.63h.24v.71H6.37Z"/><path class="cls-4" d="M15.28,23.34h-.23v-.71h.23Z"/><path class="cls-4" d="M35,23.33v-.7h.24v.7Z"/><path class="cls-4" d="M29.39,7.08a.52.52,0,0,1-.52.53.54.54,0,0,1,0-1.08A.53.53,0,0,1,29.39,7.08Z"/><path class="cls-4" d="M31.48,17.24s-.15-.06-.18-.13a.37.37,0,0,1,0-.27.83.83,0,0,1,.64-.36.23.23,0,0,1,.23.37A1,1,0,0,1,31.48,17.24Z"/></g></g></svg>