<svg xmlns="http://www.w3.org/2000/svg" viewBox="0 0 38.55 24.66"><defs><style>.cls-1{isolation:isolate;}.cls-2{opacity:0.15;}.cls-2,.cls-3{mix-blend-mode:multiply;}.cls-4{fill:#fff;}</style></defs><title>convert-FIX-SVG-03</title><g class="cls-1"><g id="Layer_1" data-name="Layer 1"><g class="cls-2"><path d="M6.58,3.7a2.54,2.54,0,0,1,0,.49.38.38,0,0,1-.24.24c-.15,0-.23-.12-.23-.27,0-.33,0-.66.06-1H32.34c0,.35.06.7,0,1,0,.08-.15.16-.23.24-.07-.09-.19-.15-.22-.25a2,2,0,0,1-.05-.5Z"/><path d="M31.89,20.68a1.82,1.82,0,0,1,.05-.48c0-.1.14-.24.23-.25s.23.12.23.27c0,.33,0,.66-.06,1H6.12c0-.35,0-.7,0-1,0-.09.15-.17.23-.25.08.08.2.15.23.24a4.2,4.2,0,0,1,0,.51Z"/><path d="M5.21,3.85c0-.26,0-.49,0-.73s.14-.43.31-.43.31.18.31.43V4.46H4.63c0,.33,0,.64,0,.94s0,.24-.22.24c-.4,0-.8,0-1.2,0-.22,0-.37-.12-.38-.29a.34.34,0,0,1,.36-.31H4c0-.27,0-.5,0-.73a.69.69,0,0,0-.54-.42L1.72,4H1.5c0-.34,0-.68,0-1,0-.06.06-.12.11-.17L3,1.51a.4.4,0,0,1,.27-.12c.3,0,.6,0,.93,0v.18L4.06,3.29a.62.62,0,0,0,.44.55C4.73,3.86,5,3.85,5.21,3.85Z"/><path d="M4.62,18.86V20H5.8c0,.5,0,1,0,1.47a.31.31,0,0,1-.29.31.35.35,0,0,1-.32-.34c0-.19,0-.39,0-.59s0-.15,0-.23c-.25,0-.48,0-.71,0a.63.63,0,0,0-.43.54l.12,1.91h-1A.39.39,0,0,1,3,23L1.62,21.67a.31.31,0,0,1-.11-.19c0-.33,0-.66,0-1l.84.05,1.12.07c.18,0,.52-.25.53-.43s0-.44,0-.72c-.24,0-.49,0-.74,0A.44.44,0,0,1,3,19.39c-.07-.08-.16-.21-.14-.29a.33.33,0,0,1,.24-.23C3.59,18.85,4.1,18.86,4.62,18.86Z"/><path d="M32.66,4.47V3A.34.34,0,0,1,33,2.69a.36.36,0,0,1,.31.34c0,.27,0,.54,0,.81.27,0,.52,0,.76,0s.42-.38.4-.57l-.12-1.88c.35,0,.69,0,1,0,0,0,.1.05.14.08l1.41,1.4a.34.34,0,0,1,.09.18V4a1.47,1.47,0,0,1-.21,0L35,3.9a.7.7,0,0,0-.52.44c0,.22,0,.44,0,.71h.65a1.11,1.11,0,0,1,.26,0c.16,0,.29.13.27.32a.28.28,0,0,1-.3.27L34,5.63c-.15,0-.14-.09-.14-.18v-1Z"/><path d="M34.31,23.13c0-.48.07-.95.1-1.42,0-.19,0-.38,0-.57s-.3-.46-.47-.48h-.69v.63a1.06,1.06,0,0,1,0,.25c0,.17-.14.3-.32.28a.29.29,0,0,1-.28-.31c0-.48,0-1,0-1.45h1.21V18.9l.22,0h1.2c.23,0,.37.11.37.28a.32.32,0,0,1-.35.31c-.27,0-.54,0-.83,0,0,.28,0,.52,0,.75a.67.67,0,0,0,.53.4l1.71-.11.24,0c0,.35,0,.69,0,1a.27.27,0,0,1-.11.17c-.45.46-.91.91-1.37,1.35a.41.41,0,0,1-.26.11Z"/><path d="M6.6,6.29h.64a1.22,1.22,0,0,0,0,.34,7.67,7.67,0,0,0,.38.89c.11-.41.43-.75.39-1.22h.74a1.34,1.34,0,0,0,0,.35,8,8,0,0,0,.36.87c.11-.4.42-.75.37-1.22h.67a3.58,3.58,0,0,0-.21.39c-.17.43-.35.86-.51,1.29a1.46,1.46,0,0,0,0,.37H8.86a1.23,1.23,0,0,0,0-.34c-.12-.35-.27-.71-.41-1.07-.29.44-.54,1.23-.42,1.4H7.34a1.34,1.34,0,0,0,0-.35C7.14,7.54,7,7.1,6.79,6.65Z"/><path d="M17.47,11.8c.32.21.4.38.32.67a.63.63,0,0,1-.66.45c-.52,0-1.05,0-1.57,0a6.13,6.13,0,0,0,0-2h1.69a.48.48,0,0,1,.22.91Zm-1.32.75H17a.28.28,0,0,0,.3-.27.24.24,0,0,0-.24-.27c-.31,0-.61,0-.92,0Zm0-.93c.3,0,.59,0,.87,0,.08,0,.15-.11.22-.18s-.13-.18-.2-.18a8.81,8.81,0,0,0-.89,0Z"/><path d="M16.8,16.37c.31.23.4.43.31.71a.68.68,0,0,1-.69.42c-.51,0-1,0-1.52,0a2.93,2.93,0,0,0,.06-1,4.3,4.3,0,0,0,0-1c.51,0,1.07,0,1.62,0a.49.49,0,0,1,.51.36A.46.46,0,0,1,16.8,16.37Zm-1.33.75h.9a.27.27,0,0,0,0-.54h-.89Zm0-.93c.31,0,.61,0,.9,0,.07,0,.13-.11.2-.17s-.11-.18-.18-.19c-.3,0-.61,0-.92,0Z"/><path d="M20.16,17.49c0-.32-.25-.49-.37-.72s-.2-.15-.61-.09l0,.82h-.59a1.28,1.28,0,0,0,.05-.27q0-.77,0-1.53a1,1,0,0,0-.05-.24c.55,0,1.12,0,1.69,0a.49.49,0,0,1,.51.51.53.53,0,0,1-.43.59l-.16.06.64.86Zm-1-1.68v.47h.89a.22.22,0,0,0,.24-.22.23.23,0,0,0-.24-.24Z"/><path d="M11.84,17.5h-.6a7,7,0,0,0,0-2c.56,0,1.13,0,1.7,0a.49.49,0,0,1,.51.51.55.55,0,0,1-.45.6l-.14.05.65.87h-.74c0-.33-.23-.5-.36-.73s-.39-.05-.62-.13Zm0-1.22h.89a.24.24,0,0,0,.25-.22.22.22,0,0,0-.21-.24h-.93Z"/><path d="M30.91,12.14a10.82,10.82,0,0,0,0-1.27h.55a5.64,5.64,0,0,0,0,2.05h-.66a1.18,1.18,0,0,0,0-.2s-.07-.07-.1-.1l-1-1.1a3.18,3.18,0,0,0,0,1.4H29a6.76,6.76,0,0,0,0-2.06h.7a.64.64,0,0,0,.06.22c.35.36.71.71,1.07,1.06Z"/><path d="M19.77,7.63V6.29h.51a15.73,15.73,0,0,0,0,2.06h-.57c0-.08,0-.17-.08-.22-.36-.39-.72-.76-1.1-1.16a2.83,2.83,0,0,0,0,1.37H18A1.09,1.09,0,0,0,18,8.08q0-.76,0-1.53A1.32,1.32,0,0,0,18,6.29h.68a.56.56,0,0,0,0,.21Z"/><path d="M26.33,15.47c.51,0,1,0,1.55,0a.8.8,0,0,1,.75.73,1.31,1.31,0,0,1,0,.34.93.93,0,0,1-1,1c-.4,0-.79,0-1.19,0h-.15A6.59,6.59,0,0,0,26.33,15.47Zm.57,1.66h.67l.15,0a.6.6,0,0,0,.44-.66.56.56,0,0,0-.5-.61,6.37,6.37,0,0,0-.76,0Z"/><path d="M13.63,12.15c-.3-.15-.63,0-1-.08v.46a3.65,3.65,0,0,0,1.5-.08V13a1.86,1.86,0,0,0-.34-.06H12.09a6.78,6.78,0,0,0,0-2.06H13.8a1.91,1.91,0,0,0,.33-.06v.52a1.09,1.09,0,0,0-.3-.07H12.68v.43h1Z"/><path d="M19.73,12.15c-.3-.15-.63,0-.95-.08v.46a3.65,3.65,0,0,0,1.5-.08V13a1.86,1.86,0,0,0-.34-.06H18.19a6.78,6.78,0,0,0,0-2.06H19.9a1.91,1.91,0,0,0,.33-.06v.52a1.09,1.09,0,0,0-.3-.07H18.78v.43h.95Z"/><path d="M27.87,8.41a1.14,1.14,0,0,1-1.2-.94,1,1,0,0,1,.62-1.11,1.51,1.51,0,0,1,1.23,0,1,1,0,0,1-.25,2C28.14,8.38,28,8.39,27.87,8.41Zm0-.39a.7.7,0,1,0,0-1.4.68.68,0,0,0-.72.69A.7.7,0,0,0,27.89,8Z"/><path d="M27.38,13a1.14,1.14,0,0,1-1.21-.88,1,1,0,0,1,.75-1.22,1.56,1.56,0,0,1,1,0A1,1,0,0,1,28.6,12a1,1,0,0,1-.84.93Zm0-.39a.69.69,0,0,0,.74-.69.73.73,0,0,0-1.46,0A.69.69,0,0,0,27.37,12.59Z"/><path d="M7,17.56a1.14,1.14,0,0,1-1.21-.94,1,1,0,0,1,.62-1.11,1.51,1.51,0,0,1,1.23,0,1,1,0,0,1,.59,1.11,1,1,0,0,1-.84.87C7.21,17.53,7.08,17.54,7,17.56Zm0-.39a.7.7,0,1,0,0-1.4.68.68,0,0,0-.72.7A.7.7,0,0,0,7,17.17Z"/><path d="M14,6.29h.62l0,.78h1.21l-.05-.78h.59a1.26,1.26,0,0,0-.05.28q0,.75,0,1.5a1.51,1.51,0,0,0,.05.28h-.58l0-.87H14.65v.86H14A6.41,6.41,0,0,0,14,6.29Z"/><path d="M25.84,17.5H25.2c.16-.28.05-.58.09-.87H24.1c0,.29-.08.58.08.87h-.65a7.1,7.1,0,0,0,0-2.06h.61l0,.78h1.15v-.78h.6a1.47,1.47,0,0,0-.05.29c0,.5,0,1,0,1.48A1.47,1.47,0,0,0,25.84,17.5Z"/><path d="M9.3,10.86h.6l-.05.79H11v-.79h.62a5.93,5.93,0,0,0,0,2.06H11a1.72,1.72,0,0,0,.06-.87H9.91v.87H9.3a1.14,1.14,0,0,0,.06-.25c0-.52,0-1,0-1.55A1.38,1.38,0,0,0,9.3,10.86Z"/><path d="M22.65,7.49l-.64,0V7.17h1.15a1.25,1.25,0,0,0,0,.89,2,2,0,0,1-1.87.18,1,1,0,0,1-.53-1,1.1,1.1,0,0,1,.9-.92,2,2,0,0,1,1,.07l.36.08-.22.48a1,1,0,0,0-.85-.29.71.71,0,0,0-.69.67.67.67,0,0,0,.63.72,1.77,1.77,0,0,0,.46,0C22.68,7.93,22.69,7.9,22.65,7.49Z"/><path d="M20.8,12.29a1.28,1.28,0,0,0,1.31.21c.05,0,.12-.12.1-.16a.25.25,0,0,0-.16-.16c-.24,0-.48-.06-.71-.08l-.11,0c-.36,0-.57-.22-.6-.51a.63.63,0,0,1,.48-.68,1.69,1.69,0,0,1,1.25.11l.28.08-.22.42a1.11,1.11,0,0,0-.9-.31.68.68,0,0,0-.28.07c-.08,0-.12.13-.18.21s.13.12.21.14.35,0,.52.05a3.4,3.4,0,0,1,.46.08.56.56,0,0,1,.45.52.57.57,0,0,1-.39.59,1.94,1.94,0,0,1-1.44,0l-.27-.07Z"/><path d="M11.54,8.17l.19-.45A1.31,1.31,0,0,0,13,7.94c.06,0,.13-.14.12-.19A.24.24,0,0,0,13,7.6c-.27,0-.55-.06-.82-.09s-.61-.28-.59-.63a.59.59,0,0,1,.38-.52,1.63,1.63,0,0,1,1.35.06l.29.09-.22.41a1.16,1.16,0,0,0-1.16-.25c-.08,0-.14.14-.21.21a.76.76,0,0,0,.25.16l.81.09a.61.61,0,0,1,.57.46.51.51,0,0,1-.21.58,1.22,1.22,0,0,1-.42.18,2.06,2.06,0,0,1-1.2-.11A1.26,1.26,0,0,0,11.54,8.17Z"/><path d="M10.21,15.44h.55c0,.19,0,.38,0,.58s0,.53,0,.8a.61.61,0,0,1-.51.66,2,2,0,0,1-1.12,0,.55.55,0,0,1-.46-.54c0-.4,0-.8,0-1.2a1.51,1.51,0,0,0,0-.28h.61a1.6,1.6,0,0,0-.05.29c0,.26,0,.52,0,.79,0,.53.25.74.78.64a.43.43,0,0,0,.4-.46c0-.34,0-.69,0-1A.79.79,0,0,0,10.21,15.44Z"/><path d="M31.13,6.29h.58a2.23,2.23,0,0,0-.05.36c0,.33,0,.66,0,1a.62.62,0,0,1-.53.69,2,2,0,0,1-1.12,0,.55.55,0,0,1-.44-.53c0-.4,0-.8,0-1.2a1.47,1.47,0,0,0-.05-.29h.61c0,.11-.05.22-.06.33v.76c0,.52.27.73.79.63a.43.43,0,0,0,.39-.45c0-.35,0-.69,0-1A1,1,0,0,0,31.13,6.29Z"/><path d="M29.52,17.5h-.58c.29-.59.6-1.19.89-1.8,0-.07,0-.16,0-.26h.66a1.18,1.18,0,0,0,.08.39c.24.48.49,1,.75,1.42a1.77,1.77,0,0,0,.17.24h-.77c.15-.14,0-.26,0-.39s-.19-.1-.29-.1h-.58c-.1,0-.2,0-.22.13S29.55,17.35,29.52,17.5Zm.28-.81h.67L30.13,16Z"/><path d="M22.52,17.5h-.66a.56.56,0,0,0,.08-.2V15.8l-.8,0v-.47a1.59,1.59,0,0,0,.3.06h1.48a1.91,1.91,0,0,0,.33-.06v.54c-.25-.19-.52-.06-.77-.1A5.5,5.5,0,0,0,22.52,17.5Z"/><path d="M25,11.27l-.76,0a5.14,5.14,0,0,0,0,1.7h-.65a1.55,1.55,0,0,0,.06-.31V11.23l-.8,0v-.47a1.22,1.22,0,0,0,.26.06h1.56a1.57,1.57,0,0,0,.28-.06Z"/><path d="M8.3,12.92H7.63a.48.48,0,0,0,.07-.2c0-.48,0-1,0-1.49l-.81,0v-.47a1.07,1.07,0,0,0,.3.06H8.66a2,2,0,0,0,.35,0v.53c-.24-.19-.52,0-.76-.1A4.89,4.89,0,0,0,8.3,12.92Z"/><path d="M4.61,16.15c.1-.24.46-.36.33-.71H5.7c-.22.28-.43.58-.66.86a.8.8,0,0,0-.21.64c0,.18,0,.36,0,.55H4.3c0-.17,0-.36,0-.53a.84.84,0,0,0-.21-.66c-.23-.28-.44-.58-.65-.85h.8C4.14,15.79,4.5,15.91,4.61,16.15Z"/><path d="M31.31,15.44h.8c-.15.35.22.47.3.72.33-.29.45-.55.33-.72h.79c-.21.28-.42.57-.65.85a.83.83,0,0,0-.22.67c0,.17,0,.35,0,.53h-.56c0-.36.15-.73-.11-1.08l-.52-.72A2.71,2.71,0,0,0,31.31,15.44Z"/><path d="M24.38,6.29h.82c-.14.35.23.47.31.72.33-.3.45-.55.33-.72h.78c-.21.28-.42.57-.64.85a.84.84,0,0,0-.23.67,4.58,4.58,0,0,1,0,.53h-.57c0-.36.16-.72-.08-1.07s-.34-.47-.51-.7A3.22,3.22,0,0,0,24.38,6.29Z"/><path d="M18.14,17.5h-.61a2.91,2.91,0,0,0,0-1,4.54,4.54,0,0,0,0-1h.59a1.47,1.47,0,0,0-.05.29c0,.49,0,1,0,1.48A1.6,1.6,0,0,0,18.14,17.5Z"/><path d="M11.15,8.35h-.58a15.73,15.73,0,0,0,0-2.06h.58a1.47,1.47,0,0,0-.05.29c0,.49,0,1,0,1.48A1.6,1.6,0,0,0,11.15,8.35Z"/><path d="M16.87,6.29h.6a1.4,1.4,0,0,0-.06.28q0,.75,0,1.5a1.31,1.31,0,0,0,.06.27h-.6A11.7,11.7,0,0,0,16.87,6.29Z"/><path d="M34.53,16.61h-.38A6.38,6.38,0,0,0,34,15h.64A3.78,3.78,0,0,0,34.53,16.61Z"/><path d="M34.31,17.55a.3.3,0,1,1,.31-.29A.3.3,0,0,1,34.31,17.55Z"/><path d="M6.77,3.9a2.39,2.39,0,0,1,0,.48c0,.11-.15.24-.24.25s-.23-.13-.23-.27c0-.33,0-.66.06-1H32.54c0,.35.05.7.05,1.05,0,.08-.15.15-.23.23-.08-.08-.19-.15-.22-.24a2,2,0,0,1,0-.5Z"/><path d="M32.09,20.88a1.77,1.77,0,0,1,0-.48c0-.1.14-.24.22-.25s.24.12.24.26c0,.33,0,.66-.06,1H6.32c0-.35-.06-.7-.05-1.05,0-.08.15-.16.22-.24.08.08.2.15.23.24a2.1,2.1,0,0,1,0,.51Z"/><path d="M5.41,4.05V3.31c0-.24.14-.42.32-.42s.31.18.31.43V4.66H4.83c0,.33,0,.64,0,.94s0,.24-.22.24c-.4,0-.8,0-1.21,0-.21,0-.37-.12-.37-.29a.34.34,0,0,1,.36-.31h.8c0-.27,0-.5,0-.73s-.35-.43-.54-.42l-1.73.12H1.7c0-.35,0-.68,0-1,0-.06.06-.12.11-.17L3.17,1.71a.42.42,0,0,1,.28-.12c.3,0,.6,0,.93,0v.18c0,.57-.09,1.15-.13,1.73A.65.65,0,0,0,4.7,4C4.92,4.06,5.15,4.05,5.41,4.05Z"/><path d="M4.82,19.06v1.18H6c0,.5,0,1,0,1.47a.3.3,0,0,1-.29.3c-.15,0-.31-.14-.32-.33s0-.39,0-.59a1.77,1.77,0,0,1,0-.23H4.69a.68.68,0,0,0-.44.55c0,.63.09,1.26.13,1.91h-1c-.05,0-.11-.06-.15-.1L1.82,21.87a.31.31,0,0,1-.11-.19c0-.33,0-.66,0-1l.84.06,1.12.07a.69.69,0,0,0,.53-.43c0-.22,0-.45,0-.72-.24,0-.49,0-.74,0a.42.42,0,0,1-.26-.06c-.07-.08-.16-.21-.14-.3a.33.33,0,0,1,.24-.22C3.79,19.05,4.3,19.06,4.82,19.06Z"/><path d="M32.86,4.67V3.21a.34.34,0,0,1,.31-.32.35.35,0,0,1,.31.34c0,.27,0,.53,0,.81a6.34,6.34,0,0,0,.76,0,.64.64,0,0,0,.4-.56c0-.63-.08-1.25-.13-1.89h1a.25.25,0,0,1,.14.08l1.42,1.4a.33.33,0,0,1,.08.18c0,.32,0,.63,0,1H37L35.23,4.1a.68.68,0,0,0-.52.44c0,.22,0,.44,0,.71h.66a1.11,1.11,0,0,1,.26,0c.16,0,.29.13.27.32a.29.29,0,0,1-.3.27l-1.36,0c-.14,0-.13-.09-.13-.18v-1Z"/><path d="M34.51,23.33c0-.49.07-.95.1-1.42,0-.19,0-.38,0-.57s-.3-.47-.47-.48l-.4,0h-.29v.64a1.06,1.06,0,0,1,0,.25.32.32,0,0,1-.32.28.3.3,0,0,1-.29-.31c0-.48,0-1,0-1.45h1.21V19.1l.22,0,1.2,0c.22,0,.37.12.37.29a.32.32,0,0,1-.36.31h-.82c0,.28,0,.52,0,.75a.67.67,0,0,0,.53.4L37,20.69l.23,0c0,.35,0,.68,0,1,0,.06-.06.12-.11.17-.45.45-.91.91-1.37,1.35a.41.41,0,0,1-.26.11Z"/><path d="M6.79,6.49h.65a1.22,1.22,0,0,0,0,.34,8.39,8.39,0,0,0,.37.89c.12-.41.44-.75.4-1.23H9a1.37,1.37,0,0,0,0,.36,8.92,8.92,0,0,0,.36.87c.11-.41.42-.75.37-1.22h.67a3.58,3.58,0,0,0-.21.39c-.17.43-.35.86-.51,1.29a2,2,0,0,0,0,.37H9.05a1,1,0,0,0,0-.34c-.13-.36-.27-.71-.41-1.07-.3.44-.54,1.23-.42,1.4H7.54a2,2,0,0,0,0-.35C7.34,7.74,7.16,7.3,7,6.85A3.13,3.13,0,0,0,6.79,6.49Z"/><path d="M17.66,12c.33.21.41.38.33.67a.63.63,0,0,1-.67.45c-.52,0-1,0-1.56,0a6.41,6.41,0,0,0,0-2.05h1.69a.46.46,0,0,1,.48.37A.46.46,0,0,1,17.66,12Zm-1.32.75h.87a.28.28,0,0,0,.3-.27.25.25,0,0,0-.24-.27c-.31,0-.62,0-.93,0Zm0-.93c.3,0,.58,0,.87,0,.08,0,.15-.12.22-.18s-.13-.18-.2-.19c-.3,0-.59,0-.89,0Z"/><path d="M17,16.57c.31.23.4.43.31.71a.69.69,0,0,1-.7.42c-.5,0-1,0-1.52,0a2.71,2.71,0,0,0,.06-1,3.93,3.93,0,0,0,0-1h1.62a.49.49,0,0,1,.51.36A.47.47,0,0,1,17,16.57Zm-1.33.75h.89a.26.26,0,0,0,.27-.27.25.25,0,0,0-.27-.27h-.89Zm0-.93c.31,0,.61,0,.9,0,.07,0,.13-.11.2-.17s-.11-.18-.18-.19c-.3,0-.61,0-.92,0Z"/><path d="M20.35,17.69c0-.33-.24-.49-.37-.73s-.19-.14-.61-.08l.05.81h-.59a1.09,1.09,0,0,0,.05-.26V15.9a.93.93,0,0,0-.05-.24c.55,0,1.12,0,1.69,0a.49.49,0,0,1,.51.51.53.53,0,0,1-.43.59l-.16.06.64.86ZM19.4,16v.47h.89a.22.22,0,0,0,.24-.22.23.23,0,0,0-.24-.24Z"/><path d="M12,17.7h-.6a7.34,7.34,0,0,0,0-2c.56,0,1.13,0,1.7,0a.49.49,0,0,1,.51.51.53.53,0,0,1-.45.59l-.15.06.65.86H13c0-.32-.23-.49-.37-.72s-.38-.06-.61-.13Zm0-1.22h.89a.21.21,0,0,0,.24-.21A.2.2,0,0,0,13,16H12Z"/><path d="M31.11,12.34c0-.42,0-.84,0-1.27h.54a5.81,5.81,0,0,0,0,2H31a1.29,1.29,0,0,0,0-.19s-.07-.07-.1-.1l-1-1.1a3.18,3.18,0,0,0,0,1.4h-.61a6.76,6.76,0,0,0,0-2.06h.7c0,.08,0,.17.06.22L31,12.33Z"/><path d="M20,7.83V6.49h.51a15.58,15.58,0,0,0,0,2h-.57a1.43,1.43,0,0,0-.08-.22l-1.1-1.15a2.83,2.83,0,0,0,0,1.37h-.61a1.09,1.09,0,0,0,.05-.26q0-.76,0-1.53a1.32,1.32,0,0,0-.05-.26h.68c0,.08,0,.16,0,.21C19.22,7.07,19.58,7.43,20,7.83Z"/><path d="M26.53,15.66c.51,0,1,0,1.55,0a.81.81,0,0,1,.75.73,1.31,1.31,0,0,1,0,.34.93.93,0,0,1-1,1c-.39,0-.78,0-1.18,0h-.15A6.65,6.65,0,0,0,26.53,15.66Zm.57,1.66h.67l.15,0a.6.6,0,0,0,.44-.66c0-.35-.19-.58-.5-.61a6.4,6.4,0,0,0-.76,0Z"/><path d="M13.83,12.35c-.3-.15-.63,0-.95-.08v.45a3.68,3.68,0,0,0,1.5-.07v.54a1.86,1.86,0,0,0-.34-.06c-.57,0-1.14,0-1.71,0h0a6.78,6.78,0,0,0,0-2.06H14a2.1,2.1,0,0,0,.33-.06v.51a1.59,1.59,0,0,0-.3-.06H12.87v.43h1Z"/><path d="M19.93,12.35c-.3-.15-.63,0-.95-.08v.45a3.68,3.68,0,0,0,1.5-.07v.54a1.86,1.86,0,0,0-.34-.06c-.57,0-1.14,0-1.71,0h0a6.78,6.78,0,0,0,0-2.06H20.1a2.1,2.1,0,0,0,.33-.06v.51a1.59,1.59,0,0,0-.3-.06H19v.43h1Z"/><path d="M28.07,8.61a1.14,1.14,0,0,1-1.2-.94,1,1,0,0,1,.62-1.11,1.51,1.51,0,0,1,1.23,0,1,1,0,0,1,.59,1.11,1,1,0,0,1-.84.87C28.34,8.58,28.2,8.59,28.07,8.61Zm0-.39a.7.7,0,0,0,.73-.69.69.69,0,0,0-.75-.71.68.68,0,0,0-.71.69A.69.69,0,0,0,28.09,8.22Z"/><path d="M27.58,13.18a1.14,1.14,0,0,1-1.21-.88,1,1,0,0,1,.75-1.22,1.56,1.56,0,0,1,1,0,1,1,0,0,1,.68,1.09,1,1,0,0,1-.84.93Zm0-.39a.7.7,0,1,0,0-1.4.69.69,0,0,0-.72.69A.69.69,0,0,0,27.57,12.79Z"/><path d="M7.15,17.76a1.14,1.14,0,0,1-1.21-.94,1,1,0,0,1,.62-1.11,1.51,1.51,0,0,1,1.23,0,1,1,0,0,1,.59,1.11,1,1,0,0,1-.84.87C7.41,17.73,7.28,17.74,7.15,17.76Zm0-.39a.7.7,0,1,0,0-1.4.68.68,0,0,0-.72.69A.7.7,0,0,0,7.16,17.37Z"/><path d="M14.22,6.49h.62l0,.78H16L16,6.49h.59a1.28,1.28,0,0,0-.05.27c0,.51,0,1,0,1.51a1.51,1.51,0,0,0,.05.28H16l0-.87H14.85v.86h-.61A6.41,6.41,0,0,0,14.22,6.49Z"/><path d="M26,17.7H25.4c.16-.28.05-.58.09-.87H24.3c0,.29-.08.58.08.87h-.65a6.77,6.77,0,0,0,0-2.06h.62l0,.78h1.15v-.78H26a1.47,1.47,0,0,0-.05.29c0,.49,0,1,0,1.48A1.77,1.77,0,0,0,26,17.7Z"/><path d="M9.5,11.06h.6l0,.79h1.16v-.79h.61a6.12,6.12,0,0,0,0,2h-.67a1.54,1.54,0,0,0,.07-.86H10.11v.87H9.5a1.29,1.29,0,0,0,.06-.25V11.32A1.38,1.38,0,0,0,9.5,11.06Z"/><path d="M22.85,7.69l-.64,0V7.37h1.15a1.19,1.19,0,0,0,0,.89,2.06,2.06,0,0,1-1.87.18,1,1,0,0,1-.54-1,1.1,1.1,0,0,1,.9-.91,2.11,2.11,0,0,1,1,.06l.36.09L23,7.11a1,1,0,0,0-.85-.29.71.71,0,0,0-.69.67.67.67,0,0,0,.63.72,1.42,1.42,0,0,0,.46,0C22.88,8.13,22.89,8.1,22.85,7.69Z"/><path d="M21,12.49a1.28,1.28,0,0,0,1.31.21c.05,0,.11-.12.1-.16a.27.27,0,0,0-.17-.16c-.23,0-.47-.06-.71-.09h-.1c-.36,0-.57-.22-.6-.51a.62.62,0,0,1,.48-.68,1.69,1.69,0,0,1,1.25.1,2.29,2.29,0,0,0,.28.09l-.22.42a1.11,1.11,0,0,0-.9-.31.68.68,0,0,0-.28.07c-.08,0-.12.13-.18.2s.13.13.21.15.35,0,.52,0a3.69,3.69,0,0,1,.46.08.56.56,0,0,1,.45.52.59.59,0,0,1-.39.59,1.94,1.94,0,0,1-1.44,0l-.27-.08Z"/><path d="M11.74,8.37l.19-.45a1.31,1.31,0,0,0,1.29.22c.06,0,.13-.14.12-.19a.24.24,0,0,0-.17-.15c-.27,0-.55-.06-.82-.09a.59.59,0,0,1-.21-1.15,1.63,1.63,0,0,1,1.35.06l.29.09-.22.41a1.16,1.16,0,0,0-1.16-.25c-.08,0-.14.14-.21.21.08,0,.16.14.25.16l.81.09a.62.62,0,0,1,.57.46.51.51,0,0,1-.21.58,1.44,1.44,0,0,1-.42.18A2.06,2.06,0,0,1,12,8.44,1.26,1.26,0,0,0,11.74,8.37Z"/><path d="M10.41,15.64H11c0,.19,0,.38,0,.58s0,.53,0,.8a.61.61,0,0,1-.51.66,2.07,2.07,0,0,1-1.13,0,.56.56,0,0,1-.45-.54c0-.4,0-.8,0-1.2a1.51,1.51,0,0,0-.05-.28h.61a1.47,1.47,0,0,0,0,.29c0,.26,0,.52,0,.78,0,.54.25.74.77.65a.44.44,0,0,0,.41-.46c0-.35,0-.69,0-1A.7.7,0,0,0,10.41,15.64Z"/><path d="M31.33,6.49h.58c0,.12-.05.24-.06.36,0,.33,0,.66,0,1a.62.62,0,0,1-.53.69,2,2,0,0,1-1.12,0A.55.55,0,0,1,29.76,8c0-.4,0-.8,0-1.21a1.51,1.51,0,0,0-.05-.28h.61c0,.11-.05.22-.06.33s0,.51,0,.76c0,.52.27.73.79.63a.44.44,0,0,0,.39-.45c0-.35,0-.7,0-1A.68.68,0,0,0,31.33,6.49Z"/><path d="M29.72,17.7h-.58c.29-.59.6-1.2.89-1.8,0-.07,0-.17,0-.26h.65a1.49,1.49,0,0,0,.09.39c.24.48.49.95.75,1.42a1.77,1.77,0,0,0,.17.24H30.9c.16-.14,0-.26,0-.4s-.19-.09-.3-.09H30c-.1,0-.2,0-.23.13S29.75,17.55,29.72,17.7Zm.28-.81h.67l-.34-.67Z"/><path d="M22.72,17.7h-.66a.6.6,0,0,0,.07-.2c0-.49,0-1,0-1.5l-.8,0v-.47a1.59,1.59,0,0,0,.3.06h1.48a1.23,1.23,0,0,0,.32-.07v.55c-.24-.19-.51-.06-.76-.1A5.5,5.5,0,0,0,22.72,17.7Z"/><path d="M25.22,11.47l-.77-.05a5.12,5.12,0,0,0,.06,1.7h-.65a2.84,2.84,0,0,0,.06-.31V11.42l-.8,0V11a1.1,1.1,0,0,0,.26.06h1.56a1.57,1.57,0,0,0,.28-.06Z"/><path d="M8.5,13.12H7.83c0-.07.07-.13.07-.2,0-.48,0-1,0-1.5l-.8,0V11a1.59,1.59,0,0,0,.3.06H8.86A2.11,2.11,0,0,0,9.21,11v.53c-.24-.19-.52,0-.77-.11A5.17,5.17,0,0,0,8.5,13.12Z"/><path d="M4.81,16.35c.1-.24.45-.37.33-.71h.75c-.21.28-.42.58-.66.86a.87.87,0,0,0-.21.64,4.93,4.93,0,0,1,0,.55H4.5c0-.18,0-.36,0-.54a.82.82,0,0,0-.21-.65c-.23-.28-.44-.58-.65-.86h.8C4.33,16,4.7,16.11,4.81,16.35Z"/><path d="M31.51,15.64h.8c-.15.35.22.46.3.72.33-.29.45-.55.33-.72h.79c-.21.28-.42.57-.65.85a.82.82,0,0,0-.22.67c0,.17,0,.35,0,.53h-.56c0-.36.15-.74-.11-1.09l-.52-.71Z"/><path d="M24.58,6.49h.82c-.14.35.23.46.3.72.34-.3.45-.55.34-.72h.78c-.21.28-.42.57-.64.85A.84.84,0,0,0,26,8c0,.17,0,.35,0,.53h-.57c0-.36.16-.72-.08-1.07l-.51-.7Z"/><path d="M18.34,17.7h-.62a2.93,2.93,0,0,0,.06-1,4.54,4.54,0,0,0,0-1h.59a1.35,1.35,0,0,0-.05.29q0,.74,0,1.47A1.57,1.57,0,0,0,18.34,17.7Z"/><path d="M11.35,8.55h-.59a14.16,14.16,0,0,0,0-2.06h.58a1.47,1.47,0,0,0,0,.29c0,.49,0,1,0,1.48A1.6,1.6,0,0,0,11.35,8.55Z"/><path d="M17.07,6.49h.6a1.27,1.27,0,0,0-.06.28q0,.75,0,1.5a.94.94,0,0,0,.06.27h-.6A11.7,11.7,0,0,0,17.07,6.49Z"/><path d="M34.73,16.81h-.38a6.34,6.34,0,0,0-.14-1.63h.64A3.78,3.78,0,0,0,34.73,16.81Z"/><path d="M34.51,17.74a.31.31,0,0,1-.3-.29.31.31,0,0,1,.32-.29.29.29,0,0,1,0,.58Z"/></g><g class="cls-3"><path d="M6.43,3.56a2.39,2.39,0,0,1,0,.48c0,.11-.15.24-.24.25S5.92,4.16,5.92,4c0-.33,0-.66.06-1H32.2c0,.35,0,.7,0,1,0,.09-.15.16-.23.24-.08-.08-.19-.15-.22-.24a2,2,0,0,1-.05-.5Z"/><path d="M31.75,20.54a1.77,1.77,0,0,1,.05-.48c0-.1.13-.24.22-.25s.24.12.24.26c0,.33,0,.66-.06,1H6c0-.35-.06-.7-.05-1,0-.08.15-.16.22-.24.08.08.2.15.23.24a2.1,2.1,0,0,1,0,.51Z"/><path d="M5.07,3.71V3c0-.24.14-.42.32-.42s.31.18.31.43V4.32H4.49c0,.33,0,.63,0,.94s0,.24-.22.24c-.4,0-.8,0-1.21,0-.21,0-.37-.12-.37-.29a.34.34,0,0,1,.36-.31h.8c0-.27,0-.5,0-.73s-.35-.43-.54-.42l-1.73.12H1.36c0-.35,0-.68,0-1,0-.06.06-.12.11-.17.45-.45.9-.9,1.35-1.33a.42.42,0,0,1,.28-.12c.3,0,.6,0,.93,0v.18C4,2,4,2.57,3.91,3.15a.65.65,0,0,0,.45.55C4.58,3.72,4.81,3.71,5.07,3.71Z"/><path d="M4.48,18.72V19.9H5.65c0,.5,0,1,0,1.47a.3.3,0,0,1-.29.3c-.15,0-.31-.14-.32-.33s0-.39,0-.59a1.77,1.77,0,0,1,0-.23H4.35a.68.68,0,0,0-.44.55C4,21.7,4,22.33,4,23H3c-.05,0-.11-.06-.15-.1L1.48,21.53a.31.31,0,0,1-.11-.19c0-.33,0-.66,0-1l.84.06,1.12.07A.69.69,0,0,0,3.85,20c0-.22,0-.45,0-.72-.24,0-.49,0-.74,0a.42.42,0,0,1-.26-.06c-.07-.08-.16-.21-.14-.3A.33.33,0,0,1,3,18.73C3.45,18.71,4,18.72,4.48,18.72Z"/><path d="M32.52,4.33V2.87a.33.33,0,0,1,.31-.32.35.35,0,0,1,.31.34c0,.27,0,.53,0,.81a6.34,6.34,0,0,0,.76,0,.64.64,0,0,0,.4-.56c0-.63-.08-1.25-.13-1.89h1a.25.25,0,0,1,.14.08l1.42,1.4a.3.3,0,0,1,.08.18c0,.32,0,.63,0,1h-.22l-1.75-.12a.68.68,0,0,0-.52.44c0,.22,0,.43,0,.71H35a1.11,1.11,0,0,1,.26,0c.16,0,.29.13.27.32a.3.3,0,0,1-.3.27l-1.36,0c-.14,0-.13-.09-.13-.19v-1Z"/><path d="M34.17,23c0-.48.07-.94.1-1.41,0-.19,0-.38,0-.57s-.3-.47-.47-.48l-.4,0h-.29v.64a1.06,1.06,0,0,1,0,.25.32.32,0,0,1-.32.28.3.3,0,0,1-.29-.31c0-.48,0-1,0-1.45h1.21V18.76l.22,0,1.2,0c.22,0,.37.12.37.29a.32.32,0,0,1-.36.31h-.82c0,.28,0,.52,0,.75a.67.67,0,0,0,.53.4l1.71-.12h.23c0,.35,0,.68,0,1,0,.06-.06.12-.11.17-.45.45-.91.91-1.37,1.35a.41.41,0,0,1-.26.11Z"/><path d="M6.45,6.15H7.1a1.22,1.22,0,0,0,0,.34,8.39,8.39,0,0,0,.37.89c.12-.41.44-.75.4-1.23h.74a1.37,1.37,0,0,0,0,.36,8.92,8.92,0,0,0,.36.87c.11-.41.42-.75.37-1.22h.67a3.58,3.58,0,0,0-.21.39q-.27.65-.51,1.29a2,2,0,0,0,0,.37H8.71a1,1,0,0,0,0-.34c-.13-.36-.27-.71-.41-1.07C8,7.24,7.74,8,7.86,8.2H7.2a2,2,0,0,0,0-.35C7,7.4,6.82,7,6.64,6.51A3.13,3.13,0,0,0,6.45,6.15Z"/><path d="M17.32,11.66c.33.21.41.38.33.67a.63.63,0,0,1-.67.45c-.52,0-1,0-1.56,0a6.41,6.41,0,0,0,0-2h1.69a.46.46,0,0,1,.48.37A.46.46,0,0,1,17.32,11.66ZM16,12.41h.87a.28.28,0,0,0,.3-.27.25.25,0,0,0-.24-.27c-.31,0-.62,0-.93,0Zm0-.93c.31,0,.59,0,.88,0,.08,0,.14-.12.22-.18-.07-.06-.13-.18-.21-.19-.29,0-.58,0-.89,0Z"/><path d="M16.66,16.23c.31.23.4.43.31.71a.69.69,0,0,1-.7.42c-.5,0-1,0-1.52,0a2.71,2.71,0,0,0,.06-1,3.93,3.93,0,0,0,0-1H16.4a.49.49,0,0,1,.51.36A.47.47,0,0,1,16.66,16.23ZM15.33,17h.89a.26.26,0,0,0,.27-.27.25.25,0,0,0-.27-.27c-.29,0-.59,0-.89,0Zm0-.93c.31,0,.61,0,.9,0,.07,0,.13-.11.2-.17s-.11-.18-.18-.19c-.3,0-.61,0-.92,0Z"/><path d="M20,17.35c0-.33-.24-.49-.37-.73s-.19-.14-.61-.08l0,.81h-.59a1.19,1.19,0,0,0,.05-.26V15.56a1.69,1.69,0,0,0-.05-.24c.55,0,1.12,0,1.69,0a.49.49,0,0,1,.51.51.53.53,0,0,1-.43.59l-.16.06.64.86Zm-1-1.68v.46c.3,0,.6,0,.89,0a.22.22,0,0,0,.24-.22c0-.16-.1-.23-.25-.24Z"/><path d="M11.7,17.36h-.61a7,7,0,0,0,0-2c.56,0,1.13,0,1.69,0a.49.49,0,0,1,.52.51.53.53,0,0,1-.45.59l-.15.06.65.86h-.73c0-.32-.23-.49-.37-.72s-.38-.06-.61-.13Zm0-1.22h.89a.21.21,0,0,0,.24-.21.2.2,0,0,0-.2-.24h-.93Z"/><path d="M30.77,12c0-.42,0-.84,0-1.27h.54a5.81,5.81,0,0,0,0,2h-.66a1.29,1.29,0,0,0,0-.19s-.07-.07-.1-.1l-1-1.1a3.18,3.18,0,0,0,0,1.4H28.9a6.76,6.76,0,0,0,0-2.06h.7c0,.08,0,.17.06.22L30.7,12Z"/><path d="M19.63,7.49V6.15h.51a15.58,15.58,0,0,0,0,2h-.57A1.43,1.43,0,0,0,19.49,8l-1.1-1.15a2.83,2.83,0,0,0,0,1.37h-.61a1.19,1.19,0,0,0,.05-.26q0-.77,0-1.53a1.32,1.32,0,0,0-.05-.26h.67c0,.08,0,.16.05.21C18.88,6.73,19.24,7.09,19.63,7.49Z"/><path d="M26.19,15.32c.51,0,1,0,1.55,0a.81.81,0,0,1,.75.73,1.31,1.31,0,0,1,0,.34.93.93,0,0,1-1,1c-.39,0-.78,0-1.18,0h-.15A6.65,6.65,0,0,0,26.19,15.32ZM26.76,17h.67l.15,0A.6.6,0,0,0,28,16.3c0-.35-.19-.58-.5-.61a6.4,6.4,0,0,0-.76,0Z"/><path d="M13.49,12c-.3-.15-.63,0-1-.08v.45a3.68,3.68,0,0,0,1.5-.07v.54a1.86,1.86,0,0,0-.34-.06H12a6.77,6.77,0,0,0,0-2.06h1.72a2.1,2.1,0,0,0,.33-.06v.51a1.59,1.59,0,0,0-.3-.06H12.53v.43h1Z"/><path d="M19.59,12c-.3-.15-.63,0-.95-.08v.45a3.68,3.68,0,0,0,1.5-.07v.54a1.86,1.86,0,0,0-.34-.06H18.05a6.77,6.77,0,0,0,0-2.06h1.72a2.1,2.1,0,0,0,.33-.06v.51a1.59,1.59,0,0,0-.3-.06H18.63v.43h1Z"/><path d="M27.73,8.27a1.14,1.14,0,0,1-1.2-.94,1,1,0,0,1,.62-1.11,1.51,1.51,0,0,1,1.23,0A1,1,0,0,1,29,7.34a1,1,0,0,1-.83.87C28,8.24,27.86,8.25,27.73,8.27Zm0-.39a.7.7,0,0,0,.73-.69.69.69,0,0,0-.75-.71.68.68,0,0,0-.71.69A.69.69,0,0,0,27.75,7.88Z"/><path d="M27.24,12.84A1.14,1.14,0,0,1,26,12a1,1,0,0,1,.75-1.22,1.53,1.53,0,0,1,1,0,1,1,0,0,1,.69,1.09,1,1,0,0,1-.84.93Zm0-.39a.7.7,0,1,0,0-1.4.69.69,0,0,0-.72.69A.69.69,0,0,0,27.23,12.45Z"/><path d="M6.81,17.42a1.14,1.14,0,0,1-1.21-.94,1,1,0,0,1,.62-1.11,1.51,1.51,0,0,1,1.23,0A1,1,0,0,1,8,16.49a1,1,0,0,1-.84.87C7.07,17.39,6.94,17.4,6.81,17.42Zm0-.39a.7.7,0,1,0,0-1.4.68.68,0,0,0-.72.69A.7.7,0,0,0,6.82,17Z"/><path d="M13.87,6.15h.63l0,.78h1.21l-.05-.78h.59a1.28,1.28,0,0,0-.05.27c0,.51,0,1,0,1.51a1.51,1.51,0,0,0,.05.28h-.58l0-.87H14.51V8.2H13.9A6.13,6.13,0,0,0,13.87,6.15Z"/><path d="M25.7,17.36h-.64c.16-.28.05-.58.09-.87H24c0,.29-.08.58.08.87h-.65a6.76,6.76,0,0,0,0-2.06H24l0,.78H25.1V15.3h.6a1.47,1.47,0,0,0-.05.29c0,.49,0,1,0,1.48A1.77,1.77,0,0,0,25.7,17.36Z"/><path d="M9.16,10.72h.6l0,.79h1.16v-.79h.61a6.12,6.12,0,0,0,0,2h-.67a1.48,1.48,0,0,0,.06-.86H9.77v.87H9.16a1.29,1.29,0,0,0,.06-.25V11A1.38,1.38,0,0,0,9.16,10.72Z"/><path d="M22.51,7.35l-.64.05V7H23a1.19,1.19,0,0,0,0,.89,2.06,2.06,0,0,1-1.87.18,1,1,0,0,1-.54-1,1.1,1.1,0,0,1,.9-.91,2.11,2.11,0,0,1,1,.06l.36.09-.22.48a1,1,0,0,0-.85-.29.71.71,0,0,0-.69.67.67.67,0,0,0,.63.72,1.42,1.42,0,0,0,.46,0C22.54,7.79,22.55,7.76,22.51,7.35Z"/><path d="M20.66,12.15a1.28,1.28,0,0,0,1.31.21c.05,0,.11-.13.1-.16A.27.27,0,0,0,21.9,12c-.23,0-.47-.06-.71-.09h-.1c-.36,0-.57-.22-.6-.51a.62.62,0,0,1,.48-.68,1.69,1.69,0,0,1,1.25.1,2.29,2.29,0,0,0,.28.09l-.22.42a1.11,1.11,0,0,0-.9-.31.68.68,0,0,0-.28.07c-.08,0-.12.13-.18.2s.13.13.21.15.35,0,.52,0a3.69,3.69,0,0,1,.46.08.56.56,0,0,1,.45.52.59.59,0,0,1-.39.59,1.94,1.94,0,0,1-1.44,0l-.27-.08Z"/><path d="M11.4,8l.19-.45a1.31,1.31,0,0,0,1.29.22c.06,0,.13-.14.12-.19a.26.26,0,0,0-.17-.15c-.27,0-.55-.06-.82-.09a.59.59,0,0,1-.21-1.15,1.63,1.63,0,0,1,1.35.06l.29.09-.22.41a1.16,1.16,0,0,0-1.16-.25c-.08,0-.14.14-.21.21.08,0,.16.14.25.16l.81.09a.62.62,0,0,1,.57.46.51.51,0,0,1-.21.58,1.44,1.44,0,0,1-.42.18,2.06,2.06,0,0,1-1.2-.11A1.26,1.26,0,0,0,11.4,8Z"/><path d="M10.07,15.3h.55c0,.19,0,.38,0,.58s0,.53,0,.8a.61.61,0,0,1-.51.66,2.07,2.07,0,0,1-1.13,0,.56.56,0,0,1-.45-.54c0-.4,0-.8,0-1.2a1.51,1.51,0,0,0-.05-.28H9a1.47,1.47,0,0,0,0,.29c0,.26,0,.52,0,.78,0,.54.25.74.77.65a.44.44,0,0,0,.41-.46c0-.35,0-.69,0-1A1.11,1.11,0,0,0,10.07,15.3Z"/><path d="M31,6.15h.58c0,.12-.05.24-.06.36v1a.62.62,0,0,1-.53.69,2,2,0,0,1-1.12,0,.55.55,0,0,1-.44-.53c0-.4,0-.8,0-1.21a1.51,1.51,0,0,0-.05-.28H30c0,.11-.05.22-.06.33s0,.5,0,.76c0,.52.27.73.79.63a.42.42,0,0,0,.38-.45c0-.35,0-.7,0-1A.68.68,0,0,0,31,6.15Z"/><path d="M29.38,17.36H28.8c.29-.59.6-1.2.89-1.8,0-.07,0-.17,0-.26h.65a2.06,2.06,0,0,0,.08.39c.25.48.5,1,.76,1.42a1.77,1.77,0,0,0,.17.24h-.78c.16-.14,0-.26,0-.4s-.18-.09-.29-.09h-.57c-.1,0-.2,0-.23.13S29.41,17.21,29.38,17.36Zm.28-.81h.67L30,15.88Z"/><path d="M22.38,17.36h-.66a.6.6,0,0,0,.07-.2c0-.49,0-1,0-1.5l-.8,0v-.47a1.59,1.59,0,0,0,.3.06h1.48a1.32,1.32,0,0,0,.32-.07v.55c-.24-.19-.51-.06-.76-.1A5.5,5.5,0,0,0,22.38,17.36Z"/><path d="M24.88,11.13l-.77-.05a5.12,5.12,0,0,0,.06,1.7h-.65a2.84,2.84,0,0,0,.06-.31V11.08l-.8,0v-.47a1.1,1.1,0,0,0,.26.06H24.6a1.57,1.57,0,0,0,.28-.06Z"/><path d="M8.16,12.78H7.49c0-.07.07-.13.07-.2,0-.48,0-1,0-1.5l-.8,0v-.47a1.59,1.59,0,0,0,.3.06H8.52a2.11,2.11,0,0,0,.35-.05v.53c-.24-.19-.52,0-.77-.11A5.17,5.17,0,0,0,8.16,12.78Z"/><path d="M4.47,16c.1-.24.45-.37.33-.71h.75c-.21.28-.42.58-.66.86a.87.87,0,0,0-.21.64,4.93,4.93,0,0,1,0,.55H4.16c0-.18,0-.36,0-.54A.82.82,0,0,0,4,16.16c-.23-.28-.44-.58-.65-.86h.8C4,15.65,4.36,15.77,4.47,16Z"/><path d="M31.17,15.29H32c-.15.36.22.47.3.73.33-.29.45-.55.33-.72h.78c-.2.28-.41.57-.64.84a.85.85,0,0,0-.22.68c0,.17,0,.35,0,.53H32c0-.36.14-.74-.11-1.09l-.52-.71C31.29,15.46,31.22,15.37,31.17,15.29Z"/><path d="M24.24,6.14h.82c-.14.36.23.47.3.73.34-.3.45-.55.34-.72h.78c-.21.28-.42.57-.65.85a.86.86,0,0,0-.22.67c0,.17,0,.35,0,.53h-.57c0-.36.16-.72-.08-1.07l-.51-.7Z"/><path d="M18,17.36h-.62a2.93,2.93,0,0,0,.06-1,4.54,4.54,0,0,0,0-1H18a1.35,1.35,0,0,0-.05.29q0,.73,0,1.47A1.57,1.57,0,0,0,18,17.36Z"/><path d="M11,8.21h-.59a14.16,14.16,0,0,0,0-2.06H11a1.35,1.35,0,0,0,0,.29c0,.49,0,1,0,1.48A1.6,1.6,0,0,0,11,8.21Z"/><path d="M16.73,6.15h.6a1.27,1.27,0,0,0-.06.28q0,.75,0,1.5a1.41,1.41,0,0,0,.05.27h-.59A11.7,11.7,0,0,0,16.73,6.15Z"/><path d="M34.39,16.47H34a6.34,6.34,0,0,0-.14-1.63h.64A3.78,3.78,0,0,0,34.39,16.47Z"/><path d="M34.17,17.4a.31.31,0,0,1-.3-.29.31.31,0,0,1,.32-.29.29.29,0,0,1,0,.58Z"/></g><path class="cls-4" d="M6.63,3.76a1.91,1.91,0,0,1,0,.48c0,.1-.14.24-.23.25s-.24-.13-.23-.27c0-.33,0-.66.06-1H32.4c0,.34.05.69.05,1,0,.08-.15.16-.23.24-.08-.08-.19-.15-.22-.24a2.54,2.54,0,0,1-.06-.5Z"/><path class="cls-4" d="M31.94,20.74a3.22,3.22,0,0,1,0-.48.43.43,0,0,1,.23-.26c.15,0,.24.13.24.27,0,.33,0,.66-.06,1H6.18c0-.34-.06-.69,0-1,0-.08.14-.16.22-.24.08.08.2.15.23.24a2.1,2.1,0,0,1,0,.51Z"/><path class="cls-4" d="M5.27,3.9V3.17c0-.25.14-.43.32-.43s.31.18.31.43c0,.45,0,.89,0,1.35H4.68c0,.33,0,.63,0,.94s0,.24-.22.24c-.4,0-.81,0-1.21,0-.22,0-.37-.12-.37-.29a.33.33,0,0,1,.36-.31h.8c0-.27,0-.5,0-.73S3.68,4,3.5,4l-1.73.12H1.56c0-.35,0-.68,0-1,0-.06.06-.12.1-.17.45-.45.9-.9,1.36-1.34a.55.55,0,0,1,.28-.12c.3,0,.6,0,.93,0v.18c0,.57-.09,1.15-.13,1.72a.65.65,0,0,0,.45.56C4.78,3.92,5,3.9,5.27,3.9Z"/><path class="cls-4" d="M4.68,18.92v1.17H5.85c0,.51,0,1,0,1.47a.31.31,0,0,1-.29.31c-.15,0-.31-.14-.32-.33s0-.39,0-.59a1.77,1.77,0,0,0,0-.23c-.24,0-.47,0-.7,0a.68.68,0,0,0-.44.55c0,.63.09,1.26.13,1.91H3.19s-.11-.06-.15-.11L1.68,21.73a.44.44,0,0,1-.12-.19c0-.33,0-.66,0-1l.84,0,1.11.08c.18,0,.52-.25.53-.43s0-.45,0-.72H3.3c-.08,0-.2,0-.25-.06a.4.4,0,0,1-.14-.3.33.33,0,0,1,.24-.22C3.65,18.91,4.16,18.92,4.68,18.92Z"/><path class="cls-4" d="M32.72,4.53c0-.51,0-1,0-1.46A.34.34,0,0,1,33,2.74a.36.36,0,0,1,.31.35c0,.26,0,.53,0,.81a6.37,6.37,0,0,0,.76,0c.18,0,.41-.37.4-.57,0-.62-.08-1.24-.13-1.88h1a.23.23,0,0,1,.14.08c.48.46,1,.93,1.42,1.4a.3.3,0,0,1,.08.18c0,.32,0,.63,0,1h-.22L35.09,4a.65.65,0,0,0-.52.44c0,.21,0,.43,0,.71h.66a1,1,0,0,1,.25,0c.17,0,.29.13.28.32a.28.28,0,0,1-.3.26c-.46,0-.91,0-1.36,0-.14,0-.13-.09-.13-.19v-1Z"/><path class="cls-4" d="M34.37,23.18c0-.48.07-.95.1-1.42,0-.18,0-.37,0-.56s-.3-.47-.47-.48l-.4,0h-.3c0,.22,0,.43,0,.64a1,1,0,0,1,0,.25.32.32,0,0,1-.32.28.31.31,0,0,1-.29-.31c0-.48,0-1,0-1.46h1.21V19l.21,0,1.21,0c.22,0,.37.12.37.29a.33.33,0,0,1-.36.31h-.82c0,.28,0,.52,0,.75s.37.41.54.4l1.71-.12h.23c0,.35,0,.68,0,1,0,.06-.06.12-.11.17l-1.37,1.35a.5.5,0,0,1-.26.11C35,23.19,34.69,23.18,34.37,23.18Z"/><path class="cls-4" d="M6.65,6.35H7.3a1.87,1.87,0,0,0,0,.34c.11.3.24.59.38.89.12-.41.44-.75.4-1.23h.74a1.29,1.29,0,0,0,0,.35,8.15,8.15,0,0,0,.36.88c.11-.41.41-.75.36-1.23h.68c-.07.13-.15.26-.21.39-.18.43-.35.86-.51,1.3a1.4,1.4,0,0,0,0,.37H8.91a1.25,1.25,0,0,0,0-.34c-.13-.36-.27-.71-.41-1.07a2.26,2.26,0,0,0-.43,1.4H7.4a1.29,1.29,0,0,0,0-.35C7.2,7.6,7,7.15,6.84,6.71A2.47,2.47,0,0,0,6.65,6.35Z"/><path class="cls-4" d="M17.52,11.85c.33.22.41.39.33.68a.65.65,0,0,1-.67.45c-.52,0-1,0-1.57,0a6.14,6.14,0,0,0,0-2.05h1.69a.48.48,0,0,1,.48.38A.44.44,0,0,1,17.52,11.85Zm-1.32.76h.87a.28.28,0,0,0,.3-.27.25.25,0,0,0-.24-.27c-.31,0-.62,0-.93,0Zm0-.93c.3,0,.59,0,.88,0,.07,0,.14-.12.22-.18-.07-.06-.14-.18-.21-.19-.29,0-.58,0-.89,0Z"/><path class="cls-4" d="M16.85,16.43c.32.23.4.43.31.71a.67.67,0,0,1-.69.42c-.5,0-1,0-1.52,0a2.76,2.76,0,0,0,.06-1,3.86,3.86,0,0,0,0-1H16.6a.49.49,0,0,1,.51.36A.46.46,0,0,1,16.85,16.43Zm-1.32.75c.3,0,.6,0,.89,0a.27.27,0,0,0,.27-.28.25.25,0,0,0-.27-.26c-.3,0-.59,0-.89,0Zm0-.93c.31,0,.6,0,.9,0,.07,0,.13-.11.2-.17s-.12-.18-.18-.19c-.3,0-.61,0-.92,0Z"/><path class="cls-4" d="M20.21,17.54c0-.32-.24-.48-.37-.72s-.19-.14-.61-.08l0,.81h-.58a2.56,2.56,0,0,0,0-.27V15.76a1.69,1.69,0,0,0,0-.24c.54,0,1.12,0,1.69,0a.49.49,0,0,1,.51.51.53.53,0,0,1-.43.59l-.17.06.65.85Zm-.95-1.67v.46c.3,0,.6,0,.89,0a.21.21,0,0,0,.23-.22c0-.16-.09-.23-.24-.24Z"/><path class="cls-4" d="M11.9,17.56h-.61a7,7,0,0,0,0-2c.55,0,1.13,0,1.69,0a.48.48,0,0,1,.52.5.54.54,0,0,1-.45.6l-.15.06.65.86h-.73c0-.33-.24-.49-.37-.72s-.38-.06-.61-.14Zm0-1.23c.31,0,.6,0,.89,0a.21.21,0,0,0,.24-.21.2.2,0,0,0-.21-.24h-.92Z"/><path class="cls-4" d="M31,12.2c0-.42,0-.85,0-1.27h.54a6.06,6.06,0,0,0,0,2h-.65c0-.06,0-.13,0-.19s-.07-.07-.1-.11l-1-1.09a3.18,3.18,0,0,0,0,1.4H29.1a6.76,6.76,0,0,0,0-2.06h.7c0,.08,0,.17.06.21l1.06,1.06Z"/><path class="cls-4" d="M19.83,7.69V6.35h.51a14,14,0,0,0,0,2.05h-.58a.53.53,0,0,0-.08-.22C19.33,7.8,19,7.42,18.59,7a2.83,2.83,0,0,0,0,1.37H18a1.28,1.28,0,0,0,0-.27V6.61A1.38,1.38,0,0,0,18,6.35h.68c0,.08,0,.16.05.2C19.08,6.93,19.44,7.29,19.83,7.69Z"/><path class="cls-4" d="M26.39,15.52c.51,0,1,0,1.54,0a.8.8,0,0,1,.76.73,1.27,1.27,0,0,1,0,.34.94.94,0,0,1-1,1c-.39,0-.79,0-1.18,0h-.15A6.65,6.65,0,0,0,26.39,15.52ZM27,17.18h.67a.4.4,0,0,0,.15,0,.59.59,0,0,0,.44-.65c0-.35-.19-.58-.5-.61a6.4,6.4,0,0,0-.76,0Z"/><path class="cls-4" d="M13.69,12.21c-.31-.15-.63,0-1-.08v.45a3.46,3.46,0,0,0,1.5-.08V13a3.26,3.26,0,0,0-.33,0H12.15a6.84,6.84,0,0,0,0-2.07h1.72a2.33,2.33,0,0,0,.33-.06v.51a2.82,2.82,0,0,0-.31-.07H12.73v.43h1Z"/><path class="cls-4" d="M19.79,12.21c-.31-.15-.63,0-1-.08v.45a3.46,3.46,0,0,0,1.5-.08V13A2.88,2.88,0,0,0,20,13H18.25a6.84,6.84,0,0,0,0-2.07H20a2.33,2.33,0,0,0,.33-.06v.51a2.82,2.82,0,0,0-.31-.07H18.83v.43h1Z"/><path class="cls-4" d="M27.93,8.46a1.12,1.12,0,0,1-1.2-.93,1,1,0,0,1,.62-1.11,1.51,1.51,0,0,1,1.23,0,1,1,0,0,1,.58,1.11,1,1,0,0,1-.83.87A2.73,2.73,0,0,1,27.93,8.46Zm0-.38a.71.71,0,1,0-.73-.71A.69.69,0,0,0,28,8.08Z"/><path class="cls-4" d="M27.44,13a1.14,1.14,0,0,1-1.21-.88A1,1,0,0,1,27,10.94a1.53,1.53,0,0,1,1,0,1,1,0,0,1,.69,1.09,1,1,0,0,1-.85.92C27.69,13,27.56,13,27.44,13Zm0-.39a.7.7,0,1,0,0-1.4.7.7,0,1,0,0,1.4Z"/><path class="cls-4" d="M7,17.61a1.12,1.12,0,0,1-1.2-.93,1,1,0,0,1,.62-1.11,1.51,1.51,0,0,1,1.23,0,1,1,0,0,1,.59,1.11,1,1,0,0,1-.84.87A2.57,2.57,0,0,1,7,17.61Zm0-.38a.71.71,0,1,0,0-1.41.69.69,0,0,0-.71.7A.7.7,0,0,0,7,17.23Z"/><path class="cls-4" d="M14.07,6.34h.62l0,.79h1.21l0-.78h.59a2.61,2.61,0,0,0-.06.27V8.13a2.61,2.61,0,0,0,.06.27h-.59l0-.86H14.71V8.4h-.62A5.94,5.94,0,0,0,14.07,6.34Z"/><path class="cls-4" d="M25.9,17.56h-.64c.16-.28,0-.58.08-.88H24.16c0,.29-.08.59.08.88h-.65a6.76,6.76,0,0,0,0-2.06h.61l0,.78H25.3V15.5h.6a1.36,1.36,0,0,0-.06.29v1.48A1.88,1.88,0,0,0,25.9,17.56Z"/><path class="cls-4" d="M9.36,10.92H10l-.05.79h1.16v-.79h.61a6.12,6.12,0,0,0,0,2.05H11a1.48,1.48,0,0,0,.06-.86H10V13H9.36a1.29,1.29,0,0,0,.06-.25V11.18A1.22,1.22,0,0,0,9.36,10.92Z"/><path class="cls-4" d="M22.71,7.55l-.64,0V7.23h1.14a1.3,1.3,0,0,0,0,.89,2,2,0,0,1-1.86.17,1,1,0,0,1-.54-1,1.12,1.12,0,0,1,.9-.92,2.12,2.12,0,0,1,1,.07l.36.09L22.82,7A1,1,0,0,0,22,6.68a.69.69,0,0,0-.68.67.66.66,0,0,0,.63.71,1.42,1.42,0,0,0,.46,0C22.74,8,22.75,8,22.71,7.55Z"/><path class="cls-4" d="M20.86,12.34a1.26,1.26,0,0,0,1.31.22s.11-.13.1-.16a.27.27,0,0,0-.17-.16c-.23-.05-.47-.06-.71-.09h-.1c-.36,0-.58-.22-.6-.51a.61.61,0,0,1,.48-.68,1.7,1.7,0,0,1,1.25.1,1.84,1.84,0,0,0,.28.09l-.22.42a1.13,1.13,0,0,0-.9-.31.64.64,0,0,0-.28.07.58.58,0,0,0-.18.2c.07.05.13.13.21.14a4.6,4.6,0,0,0,.52.06,3.25,3.25,0,0,1,.45.08.57.57,0,0,1,.46.51.6.6,0,0,1-.39.6,1.94,1.94,0,0,1-1.44,0l-.27-.08Z"/><path class="cls-4" d="M11.6,8.22l.19-.44A1.27,1.27,0,0,0,13.07,8c.07,0,.14-.13.13-.18A.26.26,0,0,0,13,7.66c-.27,0-.55-.06-.82-.1A.59.59,0,0,1,12,6.42a1.63,1.63,0,0,1,1.35,0,1.54,1.54,0,0,0,.28.09L13.42,7a1.16,1.16,0,0,0-1.16-.25c-.09,0-.14.14-.21.21s.16.14.25.15c.26,0,.54.06.81.1a.61.61,0,0,1,.57.46.51.51,0,0,1-.21.58,1.57,1.57,0,0,1-.42.18,2.06,2.06,0,0,1-1.2-.11Z"/><path class="cls-4" d="M10.26,15.49h.56c0,.2,0,.39,0,.58s0,.54,0,.81a.59.59,0,0,1-.51.65,2,2,0,0,1-1.13,0A.56.56,0,0,1,8.69,17c0-.4,0-.8,0-1.2a1.26,1.26,0,0,0-.05-.28h.61c0,.1-.05.19-.06.29v.78c0,.54.25.74.77.65a.44.44,0,0,0,.41-.46v-1A1.6,1.6,0,0,0,10.26,15.49Z"/><path class="cls-4" d="M31.19,6.35h.58a2.25,2.25,0,0,0-.06.36c0,.33,0,.66,0,1a.62.62,0,0,1-.53.69,2,2,0,0,1-1.12,0,.56.56,0,0,1-.45-.53c0-.4,0-.81,0-1.21,0-.09,0-.18-.06-.28h.62a1.75,1.75,0,0,0-.06.33c0,.25,0,.5,0,.76,0,.52.26.73.78.62a.41.41,0,0,0,.39-.45c0-.34,0-.69,0-1A.68.68,0,0,0,31.19,6.35Z"/><path class="cls-4" d="M29.58,17.56H29c.29-.6.59-1.2.88-1.81,0-.06,0-.16,0-.25h.66a2.06,2.06,0,0,0,.08.39c.24.48.5.95.75,1.42a3,3,0,0,0,.18.24h-.78c.16-.14,0-.26,0-.4s-.18-.09-.29-.1h-.57c-.1,0-.2,0-.23.13S29.61,17.41,29.58,17.56Zm.28-.81h.67l-.34-.67Z"/><path class="cls-4" d="M22.58,17.56h-.66a.6.6,0,0,0,.07-.2c0-.49,0-1,0-1.5l-.8,0v-.47a1.36,1.36,0,0,0,.29.06H23a1.94,1.94,0,0,0,.33-.07V16c-.24-.18-.51-.05-.76-.1A5.56,5.56,0,0,0,22.58,17.56Z"/><path class="cls-4" d="M25.07,11.33l-.76-.05A5.36,5.36,0,0,0,24.36,13h-.64a1.45,1.45,0,0,0,.05-.3c0-.45,0-.9,0-1.39l-.81,0v-.47a1.31,1.31,0,0,0,.27.06H24.8a1.31,1.31,0,0,0,.27-.06Z"/><path class="cls-4" d="M8.36,13H7.69c0-.07.07-.13.07-.2,0-.49,0-1,0-1.5l-.8,0v-.47a1.59,1.59,0,0,0,.3.06H8.72a2.14,2.14,0,0,0,.35-.06v.54c-.25-.19-.52-.05-.77-.11A5.17,5.17,0,0,0,8.36,13Z"/><path class="cls-4" d="M4.67,16.21c.1-.25.45-.37.32-.71h.76c-.21.28-.43.58-.66.86a.83.83,0,0,0-.21.64c0,.18,0,.36,0,.55H4.35c0-.18,0-.36,0-.54a.86.86,0,0,0-.21-.65c-.23-.28-.44-.58-.65-.86h.8C4.19,15.85,4.56,16,4.67,16.21Z"/><path class="cls-4" d="M31.36,15.49h.81c-.15.36.22.47.3.73.33-.29.45-.55.33-.72h.78c-.21.27-.41.57-.64.84a.85.85,0,0,0-.23.68,4.55,4.55,0,0,1,0,.53h-.57c0-.37.15-.74-.1-1.09l-.52-.71Z"/><path class="cls-4" d="M24.43,6.34h.83c-.14.36.23.47.3.73.34-.3.45-.55.34-.72h.78c-.21.27-.42.57-.65.84a.88.88,0,0,0-.22.68c0,.17,0,.35,0,.53h-.57a1.52,1.52,0,0,0-.08-1.07l-.51-.7Z"/><path class="cls-4" d="M18.2,17.55h-.62a2.86,2.86,0,0,0,.06-1,4.51,4.51,0,0,0,0-1h.59a2.47,2.47,0,0,0-.06.29v1.47A2.47,2.47,0,0,0,18.2,17.55Z"/><path class="cls-4" d="M11.21,8.4h-.59a14,14,0,0,0,0-2.05h.58a2.47,2.47,0,0,0-.06.29V8.11A2.47,2.47,0,0,0,11.21,8.4Z"/><path class="cls-4" d="M16.93,6.34h.6a1.5,1.5,0,0,0-.06.29c0,.5,0,1,0,1.49a1.51,1.51,0,0,0,.05.28h-.59A11.81,11.81,0,0,0,16.93,6.34Z"/><path class="cls-4" d="M34.58,16.67h-.37A5.94,5.94,0,0,0,34.06,15h.65A3.65,3.65,0,0,0,34.58,16.67Z"/><path class="cls-4" d="M34.37,17.6a.31.31,0,0,1-.3-.29.3.3,0,0,1,.32-.29.28.28,0,0,1,.28.3A.28.28,0,0,1,34.37,17.6Z"/></g></g></svg>