<svg xmlns="http://www.w3.org/2000/svg" viewBox="0 0 38.55 24.66"><defs><style>.cls-1{isolation:isolate;}.cls-2{opacity:0.15;}.cls-2,.cls-3{mix-blend-mode:multiply;}.cls-4{fill:#fff;}</style></defs><title>convert-FIX-SVG-03</title><g class="cls-1"><g id="Layer_1" data-name="Layer 1"><g class="cls-2"><path d="M11.26,8c0-.22,0-.45,0-.67a.44.44,0,0,0-.07-.19,4,4,0,0,1-.44-3,2.81,2.81,0,0,1,2.29-2,3.46,3.46,0,0,1,2.68.58.61.61,0,0,0,.61.08A6.54,6.54,0,0,1,21,3a.27.27,0,0,0,.23,0,3.5,3.5,0,0,1,3.18-.36,2.85,2.85,0,0,1,1.69,2,2.7,2.7,0,0,1-.81,2.91.39.39,0,0,0-.11.22c0,.27,0,.55,0,.83l.2-.22A6.34,6.34,0,0,1,27,7a1.64,1.64,0,0,1,2.35,1,3.36,3.36,0,0,1,.08,1,6,6,0,0,1-.91,2.59,15.66,15.66,0,0,1-3.25,4,.41.41,0,0,0-.13.24c0,.63,0,1.26,0,1.89a.34.34,0,0,0,0,.09l.91,0c1.52.07,3,.1,4.55.2s2.78.26,4.16.42a2.42,2.42,0,0,1,.71.2c.25.11.27.29.1.51a.44.44,0,0,0-.06.23v4.2H2.41V19.11c0-.29.06-.41.34-.48a11,11,0,0,1,1.39-.27c2.52-.31,5.05-.4,7.58-.48h.18c0-.28,0-.56,0-.84,0,0-.05-.08-.09-.1a7.9,7.9,0,0,1-2.69-2.67A20.08,20.08,0,0,1,6.92,9.74a2.15,2.15,0,0,1,.53-2.3A2,2,0,0,1,10,7a8.54,8.54,0,0,1,1,.79,1.31,1.31,0,0,1,.2.21ZM2.81,23.25H35.12V19.42h-.07c-1,.13-1.94.3-2.91.36-2,.14-4.05.24-6.07.31s-4.24.09-6.35.09c-2.63,0-5.25,0-7.88-.1C9.92,20,8,19.9,6.07,19.78c-.94-.06-1.88-.21-2.81-.33-.15,0-.3-.06-.45-.09ZM16.17,3.12a.37.37,0,0,1,0,.52,3.36,3.36,0,0,1-.61.52,1.54,1.54,0,0,1-.67.2.38.38,0,0,0-.31.14c-.43.46-.86.93-1.33,1.36a2.35,2.35,0,0,1-.77.4c-.12,0-.19.07-.24.18a1.63,1.63,0,0,1-.63.83.23.23,0,0,0-.05.15A6.67,6.67,0,0,0,12,10.21c0,.12.09.25.25.29s.06.11.08.17,0,.22.06.31a5.8,5.8,0,0,0,3.34,2.54l.31.1a3.07,3.07,0,0,1-.73-1,2.62,2.62,0,0,1-.12-1.54A2.86,2.86,0,0,1,17,8.66a4.3,4.3,0,0,1,1.59-.28A4.12,4.12,0,0,1,20.87,9a2.84,2.84,0,0,1,1.27,3.09,8.44,8.44,0,0,1-.53,1.09h.07a4.37,4.37,0,0,0,1.8-1.22A6.35,6.35,0,0,0,24.9,7.76a.33.33,0,0,0-.11-.2,1.25,1.25,0,0,1-.38-.93.71.71,0,0,0-.09-.46,5,5,0,0,0-1.89-1.71.19.19,0,0,0-.15,0,.48.48,0,0,1-.63-.06A7,7,0,0,1,21,3.69c-.06-.07-.14-.18-.12-.26s-.09-.21-.2-.26a6.11,6.11,0,0,0-3.22-.35C17.06,2.88,16.64,3,16.17,3.12ZM3,18.92V19a3,3,0,0,0,.32.07c1.36.14,2.72.32,4.08.41s2.92.16,4.38.19c3,.06,6.07.13,9.1.1s6.35-.15,9.52-.28c1.3,0,2.6-.22,3.9-.34a7.14,7.14,0,0,0,.78-.15v-.08a82.44,82.44,0,0,0-9.94-.69v.52a.42.42,0,0,1-.42.44.39.39,0,0,1-.39-.43c0-.18,0-.35,0-.57H23.09l-9.83,0c-.17,0-.39,0-.5.05s0,.31,0,.48a.4.4,0,0,1-.4.43.42.42,0,0,1-.41-.44v-.5A74.84,74.84,0,0,0,3,18.92Zm8.82-2.23.06-.05v-.9a.41.41,0,0,1,.41-.46.4.4,0,0,1,.4.45c0,.37,0,.75,0,1.12,0,.06,0,.17.09.18a5.1,5.1,0,0,0,.68.13.59.59,0,0,0,.67-.43c.07-.18.16-.35.22-.53a5,5,0,0,0,.4-2.2.86.86,0,0,0-.49-.83,5,5,0,0,1-1.66-1.36c-.22-.28-.42-.58-.62-.87-.41.13-.81.26-1.22.41a.94.94,0,0,1-.66,0c-.3-.1-.59-.23-.88-.35L9.2,11c.54.94,1.07,1.88,1.62,2.82a2.12,2.12,0,0,0,.43.51c.14.12.17.2.05.37a3.11,3.11,0,0,1-.38-.33,3.64,3.64,0,0,1-.42-.55A26.68,26.68,0,0,1,8.76,10.6a3.72,3.72,0,0,0-.22-.38,6.37,6.37,0,0,1-.89-2,4.32,4.32,0,0,1-.05-.54,1.91,1.91,0,0,0-.42,2,19.91,19.91,0,0,0,1.73,3.75,10,10,0,0,0,2,2.52C11.19,16.22,11.52,16.45,11.84,16.69ZM18.57,14a4.18,4.18,0,0,0,2.28-.56,2.22,2.22,0,0,0,1.12-2A2.62,2.62,0,0,0,20.42,9a4.23,4.23,0,0,0-3.31-.14,2.35,2.35,0,0,0-1.48,1.47,5.91,5.91,0,0,0-.23,1,2,2,0,0,0,1.28,2.26A4.47,4.47,0,0,0,18.57,14ZM15,13.55c0,.31.05.59,0,.88A6.76,6.76,0,0,1,14.34,17a.69.69,0,0,1-.51.4l-.44.06,0,.36H23.62L23.54,17a6.38,6.38,0,0,1-.78.34.81.81,0,0,1-1.08-.57c-.18-.5-.38-1-.57-1.5,0-.12-.09-.19-.23-.2s-.5-.08-.75-.1-.44,0-.67,0c.33.47.66.9.95,1.34a3.37,3.37,0,0,1,.27.6l-.34-.05-.17.2a1.46,1.46,0,0,1-.19-.16c-.06-.08-.1-.19-.16-.27-.33-.45-.65-.91-1-1.34-.23-.27-.47-.25-.7,0a2.85,2.85,0,0,0-.34.49c-.22.39-.43.81-.66,1.2a.4.4,0,0,1-.28.2c-.07,0-.18-.14-.22-.24s-.09-.21-.26-.17a1.36,1.36,0,0,1,0-.35,2.54,2.54,0,0,1,1-1.22h-.24l-1.52.07c-.16,0-.27,0-.28-.23s0-.41-.06-.61-.06-.28-.09-.46h.8v0Zm9.33-2.35,0,0a4.83,4.83,0,0,1-3.15,2.35c-.21.06-.15.17-.11.32l.8-.07a1.62,1.62,0,0,0,.08,1,1.1,1.1,0,0,1,0,.4l-.54-.08c.2.55.39,1.08.59,1.59a.54.54,0,0,0,.71.34,1.54,1.54,0,0,0,.42-.17c.28-.17.55-.36.82-.53s.52-.34.44-.72c0,0,0-.05,0-.08s0-.24,0-.35l-.07,0,.14-.09a4.63,4.63,0,0,1-.18-.52.66.66,0,0,1,.13-.67l.52-.65.38,1.12a11.32,11.32,0,0,0,2.08-3c-.73,0-1.45.08-2.17.1A1.18,1.18,0,0,1,24.34,11.2ZM25,7.39l.07,0a2.44,2.44,0,0,0,.81-2.46,2.8,2.8,0,0,0-1.44-2,2.91,2.91,0,0,0-1.72-.22,2.83,2.83,0,0,0-1.4.53c-.06,0-.15.18-.13.21a1.79,1.79,0,0,0,.79.86s0-.12.06-.12a11.2,11.2,0,0,1,1.41-.23,1.4,1.4,0,0,1,1.06.32,2.06,2.06,0,0,1,.61,1.31.91.91,0,0,1-.36,1,.22.22,0,0,0-.1.17A1.14,1.14,0,0,0,25,7.39Zm-11.32-5a5.73,5.73,0,0,0-.58.07A2.63,2.63,0,0,0,11,4.23a3.79,3.79,0,0,0,.38,2.7c.06.14.15.09.21,0s.25-.42.38-.62a.29.29,0,0,0,0-.37,1.63,1.63,0,0,1-.34-.85,1.87,1.87,0,0,1,1.72-1.7A1.81,1.81,0,0,1,14.77,4c.07.08.14.17.29.11a1.86,1.86,0,0,0,.81-.55c.16-.18.16-.28,0-.41A3.73,3.73,0,0,0,13.68,2.35ZM25.12,15.42l.17-.15a14.33,14.33,0,0,0,2.33-2.71A9.86,9.86,0,0,0,29,10a3.26,3.26,0,0,0,.15-1.8,4.3,4.3,0,0,0-.27-.62c0,.5,0,1,0,1.46a2.81,2.81,0,0,1-.93,2,1.31,1.31,0,0,0-.17.24c-.37.65-.71,1.32-1.11,2a6.06,6.06,0,0,1-.9,1.12c-.33.32-.52.81-1,1,0,0,0,0,0,0Zm-.79,1-.46.32a.19.19,0,0,0-.07.14c0,.32.06.64.09,1h.44ZM12.72,17.83h.35l.06-.46-.41-.09Z"/><path d="M33.94,17.45l-.28-.88.87-.27.28.89Z"/><path d="M26.4,2.53l.11-.47.81.19-.12.47Z"/><path d="M35.53,1.7l.47.11-.14.57-.46-.1Z"/><path d="M33.71,13.92l.13.58-.47.1L33.24,14Z"/><path d="M2.85,14.5,3,13.93l.47.09-.13.58Z"/><path d="M4.9,3.59l-.51-.27.22-.4.51.27Z"/><path d="M7.54,5.45l-.22.4-.51-.27L7,5.19Z"/><path d="M4,6.52l.23-.39.5.28-.23.4Z"/><path d="M30.62,11.58l-.49.28-.24-.39.5-.28Z"/><path d="M32.45,6.14l.22.38-.5.29-.23-.4Z"/><path d="M31.79,3l-.23.38-.5-.27.23-.39Z"/><path d="M29.05,5.87l-.5-.28.23-.39.5.28Z"/><path d="M35.27,6.19l-.51-.28L35,5.52l.5.28Z"/><path d="M7.75,16.1l-.22.4L7,16.23l.22-.39Z"/><path d="M29,16.1l.5-.27.22.4-.5.27Z"/><path d="M4.39,9.28l.23-.39.5.28-.23.39Z"/><path d="M6.58,11.86l-.51-.28.23-.39.5.28Z"/><path d="M32.13,12.8l.5-.27.23.38-.49.28Z"/><path d="M33.42,3.1l.43.23-.22.4-.44-.22Z"/><path d="M2.12,8.17l.21-.42L2.77,8l-.21.4Z"/><path d="M35.09,13l-.11.45-.43-.1C34.57,12.85,34.63,12.82,35.09,13Z"/><path d="M31.11,8.74l.45.11-.11.46L31,9.21Z"/><path d="M6.58,1.6l.06-.27.23,0-.07.28Z"/><path d="M33.24,9.64l.23,0,.06.26-.22.07Z"/><path d="M3.15,17.52l-.28.08-.07-.21.28-.09Z"/><path d="M30.63,15.75l.07-.23.28.08-.07.22Z"/><path d="M3.43,11.45l.27-.09.08.21-.28.1Z"/><path d="M7.06,14.41l.23,0-.06.27-.23,0Z"/><path d="M35,8.13l-.07.22-.28-.08.07-.22Z"/><path d="M4.27,15.82l-.07-.21.28-.09.07.22Z"/><path d="M28.62,14.21l.07.32c-.09,0-.18,0-.22,0a.2.2,0,0,1,0-.2S28.54,14.25,28.62,14.21Z"/><path d="M9.55,3.67,9.49,4,9.26,3.9l.06-.27Z"/><path d="M26.91,16.36l.25.07-.05.21C26.81,16.59,26.81,16.59,26.91,16.36Z"/><path d="M18.55,21.27c.23.59.17.72-.42.93a3.7,3.7,0,0,1-.57.16.42.42,0,0,1-.46-.13.39.39,0,0,1,0-.45c.14-.28.27-.56.39-.85a.43.43,0,0,1,.37-.28,3,3,0,0,1,.67,0c.3,0,.37.23.18.47C18.66,21.17,18.6,21.22,18.55,21.27Zm-.36.32a2.75,2.75,0,0,0-.48.09c-.06,0-.09.11-.12.17s.05.08.08.09A.57.57,0,0,0,18.19,21.59Zm.07-.58c-.26-.07-.3,0-.34.18Z"/><path d="M22.35,21.65c.11.1.22.18.31.28a.22.22,0,0,1-.08.37.14.14,0,0,1-.22-.05,2,2,0,0,0-.39-.38.2.2,0,0,0-.32.08,2.37,2.37,0,0,1-.22.33.25.25,0,0,1-.43-.06.2.2,0,0,1,0-.17,2.22,2.22,0,0,0,.59-1.17.24.24,0,0,1,.1-.14,1.2,1.2,0,0,1,1-.08c.32.13.36.38.11.62S22.52,21.52,22.35,21.65Zm.22-.59,0-.06c-.37-.06-.46,0-.56.4Z"/><path d="M27.74,20.59a5.51,5.51,0,0,1,.59.15.37.37,0,0,1,.22.53,2,2,0,0,1-1.63,1.09c-.19,0-.31-.13-.24-.31a6.12,6.12,0,0,1,.49-1.18C27.28,20.71,27.58,20.67,27.74,20.59Zm-.49,1.21,0,0a2.28,2.28,0,0,0,.8-.61A.19.19,0,0,0,28,21a.44.44,0,0,0-.55.2C27.4,21.43,27.33,21.62,27.25,21.8Z"/><path d="M8.52,22a.88.88,0,0,0-.8.26.19.19,0,0,1-.3,0,.3.3,0,0,1,0-.27,10.27,10.27,0,0,1,.68-.8,3.75,3.75,0,0,1,.57-.47.38.38,0,0,1,.34,0,.35.35,0,0,1,.14.31A8.3,8.3,0,0,1,9,22c0,.14-.05.29-.24.25s-.16-.12-.24-.19Zm.1-.75-.3.32C8.64,21.62,8.65,21.62,8.62,21.29Z"/><path d="M29.91,22a.94.94,0,0,0-.81.26.18.18,0,0,1-.29,0,.3.3,0,0,1,0-.26,1.19,1.19,0,0,1,.26-.36c.27-.28.55-.54.84-.81a1,1,0,0,1,.28-.17c.19-.06.37.05.35.24q-.06.61-.18,1.23s-.16.12-.24.11-.12-.12-.19-.18Zm-.16-.43c.29,0,.32,0,.24-.3Z"/><path d="M25.75,21.23a.34.34,0,0,0,.47-.29c0-.17.14-.28.33-.25s.19.07.14.19a4.7,4.7,0,0,1-.17.45l-.39.8c0,.05-.05.12-.09.14a1.22,1.22,0,0,1-.26.06c0-.08-.07-.17-.05-.24a3.93,3.93,0,0,1,.18-.43c-.38,0-.37,0-.51.28a3.79,3.79,0,0,1-.2.34.2.2,0,0,1-.32,0,.33.33,0,0,1-.05-.27c.24-.44.48-.88.73-1.31.06-.11.14-.19.27-.09s.19.18.07.33A1,1,0,0,0,25.75,21.23Z"/><path d="M6.6,21.66c-.38,0-.37,0-.51.26a1.09,1.09,0,0,1-.22.36.3.3,0,0,1-.29,0,.26.26,0,0,1-.06-.26c.23-.45.49-.9.75-1.35.06-.1.15-.15.26-.06s.18.16.07.3-.1.18-.16.27c.33.05.34.05.46-.26.06-.15.1-.29.3-.28s.24.06.18.23-.12.31-.19.47l-.37.75c0,.05-.05.12-.1.14a1.1,1.1,0,0,1-.26.06c0-.08-.06-.17,0-.24A2.3,2.3,0,0,1,6.6,21.66Z"/><path d="M11.89,22.44c-.11-.1-.2-.15-.25-.24s0-.14.08-.2a2.47,2.47,0,0,0,.53-1.09.28.28,0,0,1,.12-.18,1.2,1.2,0,0,1,1-.08c.35.12.41.41.13.63a3.19,3.19,0,0,1-.86.49.83.83,0,0,0-.46.38A1.75,1.75,0,0,1,11.89,22.44Zm1.32-1.39,0-.06c-.39,0-.47,0-.56.41Z"/><path d="M11.49,21a1.76,1.76,0,0,1-.19.3,2.24,2.24,0,0,1-1,.56A.45.45,0,0,0,10,22a1.54,1.54,0,0,1-.21.29.23.23,0,0,1-.34,0c-.09-.11-.07-.18,0-.29A2.4,2.4,0,0,0,10,20.92c0-.07.05-.16.11-.18a1.18,1.18,0,0,1,1-.08A1.43,1.43,0,0,1,11.49,21Zm-1.11.39,0,.06L11,21C10.58,21,10.52,21,10.38,21.34Z"/><path d="M19.92,21.1l-.45,0c.1-.42.21-.5.61-.5h.51c.15,0,.18.09.2.19s0,.27-.14.27-.36.21-.47.4a4.13,4.13,0,0,0-.2.37h.24c0,.28-.07.4-.33.42l-.82.09c0-.31.07-.4.34-.46a.16.16,0,0,0,.08-.05C19.63,21.63,19.76,21.38,19.92,21.1Z"/><path d="M23.61,21.2c-.39,0-.4,0-.36-.41l1.32-.14c.05,0,.14.1.16.17s0,.22-.12.25l-.1,0c-.35,0-.49.19-.6.45s-.16.37-.23.55a.36.36,0,0,1-.08.15c-.08.05-.19.13-.26.11a.2.2,0,0,1-.1-.3c.08-.2.16-.39.25-.59A2.78,2.78,0,0,1,23.61,21.2Z"/><path d="M14.27,21.49A3.41,3.41,0,0,1,14,21a.33.33,0,0,1,.07-.28c.08-.09.19-.09.26.05s.14.26.21.39c.19-.19.35-.36.53-.52s.25-.17.37,0,0,.28-.11.36a4.61,4.61,0,0,0-1.13,1.24c-.07.1-.13.21-.26.09s-.18-.19,0-.34A3.82,3.82,0,0,0,14.27,21.49Z"/><path d="M31.52,21.14l.52-.51c.11-.09.25-.18.37,0s0,.29-.11.37a4.5,4.5,0,0,0-1.11,1.23c-.07.11-.14.23-.27.1s-.2-.21,0-.33a.81.81,0,0,0,.09-.1c.21-.23.32-.46.07-.74a.31.31,0,0,1-.07-.26.45.45,0,0,1,.18-.21s.13.07.17.13A4,4,0,0,1,31.52,21.14Z"/><path d="M21.35,8.49c0-.46.28-.81.65-.78a.76.76,0,0,1,.56.89c-.07.41-.32.68-.64.66A.71.71,0,0,1,21.35,8.49Z"/><path d="M14.19,8.75a.88.88,0,0,1,0-.14.64.64,0,0,1,.66-.6.75.75,0,0,1,.54.81c0,.43-.3.76-.63.74S14.19,9.21,14.19,8.75Z"/><path d="M12.35,13.26a3.28,3.28,0,0,1,.51,1.2.52.52,0,0,1-.54.7.28.28,0,0,1-.21-.1,2.53,2.53,0,0,1-.26-.52.63.63,0,0,1,.08-.62C12.08,13.71,12.21,13.49,12.35,13.26Z"/><path d="M19.84,13.52c-.22-.13-.43-.24-.63-.37a.29.29,0,0,0-.38,0,6.25,6.25,0,0,1-.6.4l-.64-.41a.21.21,0,0,1-.07-.31.21.21,0,0,1,.31-.08l.09.05c.11.07.24.21.32.18a1.42,1.42,0,0,0,.46-.29c.1-.08.06-.45-.05-.55-.3-.28-.6-.57-.91-.84a.26.26,0,0,1-.08-.35.13.13,0,0,1,0-.06c.18-.5.21-.51.73-.51l1.35,0c.05,0,.13,0,.14,0a6.8,6.8,0,0,1,.38.7s-.05.12-.1.17c-.27.29-.55.58-.82.88a.41.41,0,0,0,.07.65l.06,0c.31.19.31.19.6,0,.13-.1.24-.11.35,0a.18.18,0,0,1,0,.3Z"/><path d="M11.46,8.2c0-.22,0-.45,0-.68a.67.67,0,0,0-.07-.18,4,4,0,0,1-.44-3,2.81,2.81,0,0,1,2.29-2A3.39,3.39,0,0,1,15.91,3a.65.65,0,0,0,.62.08,6.54,6.54,0,0,1,4.65.17.31.31,0,0,0,.23,0,3.49,3.49,0,0,1,3.18-.36,2.85,2.85,0,0,1,1.69,2,2.7,2.7,0,0,1-.81,2.91.36.36,0,0,0-.11.22c0,.27,0,.55,0,.83.06-.07.13-.14.19-.22a6.55,6.55,0,0,1,1.67-1.39,1.64,1.64,0,0,1,2.35,1,3.36,3.36,0,0,1,.08,1,6.19,6.19,0,0,1-.91,2.59,15.66,15.66,0,0,1-3.25,4,.41.41,0,0,0-.13.24c0,.63,0,1.26,0,1.88a.28.28,0,0,0,0,.09l.91,0c1.52.07,3,.09,4.55.2s2.78.26,4.16.41a2.62,2.62,0,0,1,.71.21c.25.11.27.29.1.51a.44.44,0,0,0-.06.23c0,1.32,0,2.64,0,4v.24H2.61V19.3c0-.28.06-.4.34-.47a11,11,0,0,1,1.39-.27c2.52-.31,5.05-.4,7.58-.48h.18c0-.28,0-.56,0-.84,0,0-.05-.08-.09-.1a7.84,7.84,0,0,1-2.69-2.68A19.8,19.8,0,0,1,7.12,9.94a2.16,2.16,0,0,1,.52-2.3,2,2,0,0,1,2.54-.41,8.54,8.54,0,0,1,1,.79,1.31,1.31,0,0,1,.2.21ZM3,23.45H35.32V19.62h-.07c-1,.12-1.94.3-2.91.36-2,.14-4.05.24-6.07.3s-4.24.1-6.35.09q-3.95,0-7.88-.09c-1.93-.05-3.85-.17-5.77-.29-.94-.06-1.88-.22-2.82-.33L3,19.56ZM16.37,3.32a.38.38,0,0,1,0,.52,3.36,3.36,0,0,1-.61.52,1.58,1.58,0,0,1-.67.2.35.35,0,0,0-.31.14c-.43.46-.86.93-1.33,1.36a2.35,2.35,0,0,1-.77.4c-.12,0-.19.07-.24.18a1.63,1.63,0,0,1-.63.83.23.23,0,0,0,0,.15,6.67,6.67,0,0,0,.46,2.79c.05.12.09.25.24.29s.07.11.09.17,0,.22.06.3a5.77,5.77,0,0,0,3.34,2.55c.1,0,.21.06.31.09a2.93,2.93,0,0,1-.73-1,2.7,2.7,0,0,1-.13-1.54,2.9,2.9,0,0,1,1.79-2.43,4.35,4.35,0,0,1,1.6-.28,4,4,0,0,1,2.31.61,2.85,2.85,0,0,1,1.28,3.09,10,10,0,0,1-.53,1.09h.07a4.3,4.3,0,0,0,1.8-1.23A6.24,6.24,0,0,0,25.09,8c0-.07-.06-.15-.11-.2a1.21,1.21,0,0,1-.37-.94.69.69,0,0,0-.09-.45,5,5,0,0,0-1.9-1.71.17.17,0,0,0-.14,0,.5.5,0,0,1-.63-.06,7,7,0,0,1-.62-.71c-.06-.08-.14-.18-.12-.26s-.09-.21-.21-.26A6.07,6.07,0,0,0,17.69,3C17.26,3.08,16.84,3.21,16.37,3.32ZM3.22,19.12v.07a1.67,1.67,0,0,0,.32.08c1.36.14,2.72.32,4.08.41s2.92.16,4.38.19c3,.05,6.07.13,9.1.1s6.35-.16,9.52-.28c1.3-.05,2.6-.22,3.9-.34.26,0,.52-.1.78-.15v-.08a80.47,80.47,0,0,0-9.95-.69c0,.2,0,.36,0,.52a.41.41,0,1,1-.81,0v-.57H23.29l-9.83,0c-.17,0-.4,0-.5.05s0,.31-.05.48a.41.41,0,0,1-.4.43A.41.41,0,0,1,12.1,19v-.5A74.84,74.84,0,0,0,3.22,19.12ZM12,16.89l.06-.05v-.9a.41.41,0,0,1,.41-.46c.25,0,.4.17.4.45v1.12c0,.06.05.16.1.18a3.87,3.87,0,0,0,.68.12.57.57,0,0,0,.67-.42c.07-.18.15-.35.22-.53a5.23,5.23,0,0,0,.4-2.21.87.87,0,0,0-.49-.82A4.86,4.86,0,0,1,12.83,12c-.22-.28-.42-.58-.62-.88-.41.14-.82.27-1.22.42a.94.94,0,0,1-.66,0l-.88-.35,0,0q.8,1.41,1.62,2.82a2.08,2.08,0,0,0,.43.51c.14.11.17.2.05.37a3.22,3.22,0,0,1-.39-.33,4.81,4.81,0,0,1-.42-.56A27.14,27.14,0,0,1,9,10.8a3.72,3.72,0,0,0-.22-.38,6.42,6.42,0,0,1-.89-2,4,4,0,0,1,0-.54,1.89,1.89,0,0,0-.42,2A20.83,20.83,0,0,0,9.1,13.63a10.31,10.31,0,0,0,2,2.52C11.38,16.42,11.72,16.64,12,16.89Zm6.73-2.74a4.27,4.27,0,0,0,2.28-.56,2.19,2.19,0,0,0,1.11-1.95,2.59,2.59,0,0,0-1.55-2.41,4.16,4.16,0,0,0-3.3-.14,2.33,2.33,0,0,0-1.48,1.47,5.12,5.12,0,0,0-.23,1,2.05,2.05,0,0,0,1.28,2.26A4.47,4.47,0,0,0,18.77,14.15Zm-3.56-.4c0,.3,0,.59,0,.88a6.76,6.76,0,0,1-.71,2.55.66.66,0,0,1-.52.39l-.43.07,0,.36H23.82l-.08-.84a8.41,8.41,0,0,1-.78.34.82.82,0,0,1-1.08-.57l-.57-1.5c0-.12-.09-.19-.23-.2l-.75-.11-.68,0c.34.47.66.89,1,1.34a3.8,3.8,0,0,1,.27.6L20.54,17l-.17.2a1,1,0,0,1-.19-.16c-.07-.09-.1-.19-.16-.28-.33-.44-.65-.9-1-1.33-.23-.27-.47-.25-.7,0a3.21,3.21,0,0,0-.34.48c-.22.4-.43.81-.66,1.21a.4.4,0,0,1-.28.2c-.08,0-.19-.14-.22-.24s-.1-.21-.27-.17a1.33,1.33,0,0,1,0-.35,2.48,2.48,0,0,1,1-1.22h-.24l-1.52.07c-.16,0-.27,0-.28-.24s0-.4-.06-.6-.06-.28-.09-.46h.79v0Zm9.33-2.35,0,0a4.81,4.81,0,0,1-3.14,2.35c-.21.05-.15.17-.11.31L22,14a1.79,1.79,0,0,0,.08,1,.91.91,0,0,1,0,.4l-.54-.09c.2.56.39,1.08.59,1.6a.54.54,0,0,0,.71.34,1.72,1.72,0,0,0,.42-.18c.28-.16.55-.35.82-.52s.52-.34.44-.72c0,0,0-.06,0-.08s0-.24,0-.36l-.07,0,.14-.09a4.63,4.63,0,0,1-.18-.52.7.7,0,0,1,.12-.68c.18-.2.34-.41.53-.64l.38,1.12a11.32,11.32,0,0,0,2.08-3c-.74,0-1.45.08-2.17.1A1.18,1.18,0,0,1,24.54,11.4Zm.66-3.81.07,0a2.4,2.4,0,0,0,.8-2.46,2.76,2.76,0,0,0-1.43-2,3,3,0,0,0-1.72-.23,2.94,2.94,0,0,0-1.4.54c-.07.05-.15.18-.13.21a1.83,1.83,0,0,0,.79.86c0-.06,0-.12.05-.12a11.35,11.35,0,0,1,1.42-.23,1.39,1.39,0,0,1,1.06.31,2.08,2.08,0,0,1,.61,1.32.92.92,0,0,1-.36,1,.22.22,0,0,0-.1.17A1.14,1.14,0,0,0,25.2,7.59Zm-11.32-5a5.73,5.73,0,0,0-.58.07,2.61,2.61,0,0,0-2.1,1.81,3.79,3.79,0,0,0,.37,2.7c.07.14.16.09.21,0s.26-.42.39-.63a.29.29,0,0,0,0-.36,1.63,1.63,0,0,1-.34-.85c-.08-.82.89-1.67,1.71-1.7A1.83,1.83,0,0,1,15,4.19c.07.08.14.17.29.11a2.05,2.05,0,0,0,.81-.55c.16-.18.16-.28,0-.42A3.79,3.79,0,0,0,13.88,2.55ZM25.32,15.62l.17-.15a14.7,14.7,0,0,0,2.33-2.71,9.86,9.86,0,0,0,1.37-2.61,3.29,3.29,0,0,0,.15-1.81,4.72,4.72,0,0,0-.27-.61c0,.5,0,1,0,1.46a2.83,2.83,0,0,1-.93,2,1.31,1.31,0,0,0-.17.24c-.37.65-.71,1.31-1.11,1.94a6.57,6.57,0,0,1-.9,1.13c-.33.32-.52.81-1,.95,0,0,0,0,0,0Zm-.79,1c-.17.12-.32.21-.46.32a.19.19,0,0,0-.07.14c0,.32.06.64.09,1h.44ZM12.92,18h.35l.06-.46-.41-.09Z"/><path d="M34.14,17.65l-.28-.88.87-.27.27.88Z"/><path d="M26.6,2.72l.11-.46.81.19-.12.47Z"/><path d="M35.73,1.9,36.2,2l-.14.57-.47-.11Z"/><path d="M33.9,14.12l.14.58-.47.1-.13-.57Z"/><path d="M3.05,14.7l.13-.57.47.09-.13.57Z"/><path d="M5.1,3.79l-.51-.28.22-.39.51.27Z"/><path d="M7.74,5.65l-.22.4L7,5.78l.22-.4Z"/><path d="M4.22,6.72l.23-.39.5.28L4.72,7Z"/><path d="M30.82,11.78l-.5.28-.23-.39.5-.28Z"/><path d="M32.64,6.34l.23.38-.5.28-.23-.39Z"/><path d="M32,3.18l-.23.38-.51-.27.24-.4Z"/><path d="M29.25,6.07l-.5-.28L29,5.4l.5.28Z"/><path d="M35.47,6.39,35,6.11l.23-.39.5.28Z"/><path d="M8,16.3l-.22.4-.51-.27.22-.4Z"/><path d="M29.14,16.3l.51-.27.22.4-.5.27Z"/><path d="M4.59,9.48l.22-.39.51.28-.24.39Z"/><path d="M6.77,12.06l-.5-.28.23-.39.5.27Z"/><path d="M32.33,13l.5-.28.23.39-.49.28Z"/><path d="M33.61,3.3l.44.23-.22.4-.44-.22Z"/><path d="M2.32,8.37,2.53,8,3,8.17l-.21.4Z"/><path d="M35.29,13.19l-.11.45-.43-.11C34.77,13.05,34.83,13,35.29,13.19Z"/><path d="M31.31,8.94l.45.1-.11.46-.46-.1Z"/><path d="M6.78,1.8l.06-.27.23.05L7,1.86Z"/><path d="M33.43,9.84l.24,0,.06.26-.22.07Z"/><path d="M3.35,17.72l-.28.08L3,17.59l.27-.09Z"/><path d="M30.83,15.94l.06-.22.28.08-.06.22Z"/><path d="M3.62,11.64l.28-.08.08.21-.28.1Z"/><path d="M7.26,14.6l.23.05-.06.27-.23,0Z"/><path d="M35.19,8.33l-.08.22-.27-.09.07-.22Z"/><path d="M4.47,16,4.4,15.8l.28-.08.07.22Z"/><path d="M28.82,14.41l.07.32c-.1,0-.19,0-.23,0a.2.2,0,0,1,0-.19S28.73,14.45,28.82,14.41Z"/><path d="M9.75,3.87l-.06.28L9.46,4.1l.06-.27Z"/><path d="M27.11,16.56l.25.07-.05.21C27,16.78,27,16.78,27.11,16.56Z"/><path d="M18.75,21.47c.23.59.17.72-.42.93a4,4,0,0,1-.57.16.42.42,0,0,1-.46-.13.36.36,0,0,1,0-.45c.13-.28.27-.56.39-.85a.43.43,0,0,1,.36-.28,2.58,2.58,0,0,1,.68,0c.3,0,.37.23.18.47C18.86,21.37,18.8,21.42,18.75,21.47Zm-.36.32a2.75,2.75,0,0,0-.48.09c-.06,0-.1.11-.13.17s.06.08.09.09A.57.57,0,0,0,18.39,21.79Zm.07-.58c-.27-.07-.3-.05-.34.18Z"/><path d="M22.55,21.85c.1.1.22.18.31.28a.22.22,0,0,1-.08.37c-.09.05-.15.05-.22-.06a2.28,2.28,0,0,0-.39-.37c-.12-.1-.24-.05-.32.08a3.78,3.78,0,0,1-.22.33.25.25,0,0,1-.43-.07.18.18,0,0,1,0-.16,2.37,2.37,0,0,0,.59-1.17.24.24,0,0,1,.1-.14,1.22,1.22,0,0,1,1-.09c.33.13.37.39.11.62S22.72,21.72,22.55,21.85Zm.21-.6,0-.05c-.36-.06-.46,0-.55.4Z"/><path d="M27.94,20.79a4.17,4.17,0,0,1,.59.15.36.36,0,0,1,.21.53,2,2,0,0,1-1.62,1.09c-.19,0-.31-.13-.25-.31a6.85,6.85,0,0,1,.5-1.18C27.47,20.9,27.78,20.87,27.94,20.79ZM27.44,22l0,0a2.28,2.28,0,0,0,.8-.61s0-.17-.05-.2a.44.44,0,0,0-.55.21C27.6,21.63,27.52,21.81,27.44,22Z"/><path d="M8.72,22.24a.88.88,0,0,0-.8.26.2.2,0,0,1-.3,0,.3.3,0,0,1,0-.27,8.7,8.7,0,0,1,.68-.8A3.24,3.24,0,0,1,8.83,21a.38.38,0,0,1,.34,0,.38.38,0,0,1,.14.31,8.3,8.3,0,0,1-.14,1c0,.14-.05.29-.24.25s-.16-.12-.24-.19Zm.1-.76-.3.33C8.84,21.82,8.85,21.81,8.82,21.48Z"/><path d="M30.11,22.24a.94.94,0,0,0-.81.26.18.18,0,0,1-.29,0,.31.31,0,0,1,0-.27,1.1,1.1,0,0,1,.26-.35c.27-.28.55-.55.83-.81a1.05,1.05,0,0,1,.29-.17c.19-.06.37.05.35.24q-.06.62-.18,1.23c0,.05-.17.12-.24.11s-.13-.12-.19-.18Zm-.17-.43c.3,0,.32,0,.25-.3Z"/><path d="M26,21.43a.34.34,0,0,0,.47-.29c0-.17.13-.28.33-.26s.19.08.14.2a3,3,0,0,1-.18.45c-.12.27-.25.54-.38.8,0,.05,0,.12-.1.14a2.27,2.27,0,0,1-.25.06c0-.08-.07-.17-.05-.24a2.62,2.62,0,0,1,.18-.43c-.38,0-.37,0-.52.27a1.51,1.51,0,0,1-.2.35.19.19,0,0,1-.31,0,.33.33,0,0,1,0-.27c.23-.44.48-.88.73-1.31.06-.11.14-.2.27-.1s.19.19.06.34A1.48,1.48,0,0,0,26,21.43Z"/><path d="M6.8,21.86c-.38,0-.37,0-.51.26a1.09,1.09,0,0,1-.22.36.33.33,0,0,1-.29,0,.29.29,0,0,1-.07-.26c.24-.45.5-.9.75-1.35.06-.1.15-.15.26-.06s.19.16.08.3a2.4,2.4,0,0,0-.16.27c.32,0,.34,0,.46-.27.06-.14.1-.28.3-.27s.24.06.18.23-.13.31-.2.46-.24.51-.37.76c0,.05,0,.12-.09.14a2,2,0,0,1-.26.06c0-.08-.06-.17,0-.24A2.3,2.3,0,0,1,6.8,21.86Z"/><path d="M12.09,22.64a1.46,1.46,0,0,1-.25-.24s0-.14.08-.2a2.71,2.71,0,0,0,.53-1.09.28.28,0,0,1,.12-.18,1.24,1.24,0,0,1,1-.09c.35.13.41.41.12.64a3.25,3.25,0,0,1-.85.49.83.83,0,0,0-.46.38A1.75,1.75,0,0,1,12.09,22.64Zm1.32-1.39,0-.06c-.39,0-.47,0-.56.41Z"/><path d="M11.69,21.15a1.76,1.76,0,0,1-.19.3,2.24,2.24,0,0,1-1,.56.45.45,0,0,0-.3.23,1.21,1.21,0,0,1-.21.28.22.22,0,0,1-.34,0c-.1-.1-.07-.17,0-.28a2.42,2.42,0,0,0,.55-1.08.27.27,0,0,1,.11-.19,1.21,1.21,0,0,1,1-.07C11.49,20.91,11.57,21,11.69,21.15Zm-1.11.38,0,.07.57-.36C10.77,21.15,10.72,21.19,10.58,21.53Z"/><path d="M20.12,21.3l-.45,0c.1-.42.2-.5.61-.5.17,0,.34,0,.51,0s.18.09.19.19,0,.27-.13.27-.36.21-.47.4a4.13,4.13,0,0,0-.2.37h.24c0,.28-.07.4-.34.42l-.81.09c0-.31.07-.4.33-.47a.11.11,0,0,0,.09,0Z"/><path d="M23.81,21.4c-.39,0-.41,0-.36-.41l1.32-.14c.05,0,.14.1.15.17s0,.22-.11.25l-.1,0c-.35,0-.49.19-.61.45l-.22.55c0,.05,0,.12-.08.14s-.19.14-.27.12-.15-.18-.09-.31l.24-.58Z"/><path d="M14.47,21.69a3,3,0,0,1-.25-.51.36.36,0,0,1,.06-.28c.09-.09.2-.1.27.05s.14.26.21.39c.19-.19.35-.36.53-.52s.25-.17.37,0,0,.28-.11.36a4.45,4.45,0,0,0-1.13,1.24c-.07.1-.13.21-.26.09s-.18-.19,0-.34A5.2,5.2,0,0,0,14.47,21.69Z"/><path d="M31.72,21.34c.18-.18.34-.35.52-.51s.25-.19.37,0,0,.29-.11.37a4.5,4.5,0,0,0-1.11,1.23c-.08.1-.14.22-.28.1s-.2-.21,0-.34.05-.06.08-.09c.22-.23.33-.46.07-.75a.32.32,0,0,1-.07-.25.56.56,0,0,1,.19-.22s.13.08.17.14S31.65,21.22,31.72,21.34Z"/><path d="M21.55,8.69c0-.47.28-.81.65-.78a.75.75,0,0,1,.56.88c-.07.42-.33.69-.64.67A.71.71,0,0,1,21.55,8.69Z"/><path d="M14.39,9V8.81a.66.66,0,0,1,.67-.6A.75.75,0,0,1,15.6,9c0,.43-.3.76-.63.74S14.38,9.41,14.39,9Z"/><path d="M12.55,13.46a3.28,3.28,0,0,1,.51,1.2.52.52,0,0,1-.54.7.28.28,0,0,1-.21-.1,2.53,2.53,0,0,1-.26-.52.63.63,0,0,1,.08-.62C12.28,13.91,12.41,13.69,12.55,13.46Z"/><path d="M20,13.72c-.21-.13-.42-.24-.62-.37a.29.29,0,0,0-.38,0c-.19.15-.4.27-.6.4l-.65-.41a.21.21,0,0,1-.06-.31.22.22,0,0,1,.31-.09l.09.06c.1.07.23.21.31.18a1.46,1.46,0,0,0,.47-.29c.1-.08.06-.45-.06-.56-.3-.28-.59-.56-.9-.83a.27.27,0,0,1-.09-.35s0,0,0-.06c.17-.5.21-.52.73-.52l1.35,0c.05,0,.12,0,.14,0a5.9,5.9,0,0,1,.38.7s0,.12-.1.17l-.83.87a.43.43,0,0,0,.08.66l.06,0c.31.19.31.19.6,0,.13-.1.24-.11.35,0a.18.18,0,0,1,0,.3Z"/></g><g class="cls-3"><path d="M11.12,7.86c0-.22,0-.45,0-.68A.67.67,0,0,0,11.05,7a4,4,0,0,1-.44-3A2.81,2.81,0,0,1,12.9,2a3.39,3.39,0,0,1,2.67.58.65.65,0,0,0,.62.08,6.54,6.54,0,0,1,4.65.17.31.31,0,0,0,.23,0,3.49,3.49,0,0,1,3.18-.36,2.85,2.85,0,0,1,1.69,2,2.7,2.7,0,0,1-.81,2.91.36.36,0,0,0-.11.22c0,.27,0,.55,0,.83.06-.07.13-.14.19-.22a6.55,6.55,0,0,1,1.67-1.39,1.64,1.64,0,0,1,2.35,1,3.36,3.36,0,0,1,.08,1,6.19,6.19,0,0,1-.91,2.59,15.66,15.66,0,0,1-3.25,4,.41.41,0,0,0-.13.24c0,.63,0,1.26,0,1.88a.28.28,0,0,0,0,.09l.91,0c1.52.06,3,.09,4.55.2s2.78.26,4.16.41a2.62,2.62,0,0,1,.71.21c.25.11.27.29.1.51a.44.44,0,0,0-.06.23c0,1.32,0,2.64,0,4v.24H2.27V19c0-.28.06-.4.34-.47A11,11,0,0,1,4,18.22c2.52-.31,5.05-.4,7.58-.48h.18c0-.28,0-.56,0-.84,0,0-.05-.08-.09-.1A7.84,7.84,0,0,1,9,14.11,19.8,19.8,0,0,1,6.78,9.6,2.16,2.16,0,0,1,7.3,7.3a2,2,0,0,1,2.54-.41,8.54,8.54,0,0,1,1,.79,2,2,0,0,1,.2.21ZM2.67,23.11H35V19.28h-.07c-1,.12-1.94.3-2.91.36-2,.14-4.05.24-6.07.3s-4.24.1-6.35.09q-3.94,0-7.88-.09c-1.93-.05-3.85-.17-5.77-.29-.94-.06-1.88-.22-2.82-.33l-.44-.09ZM16,3a.38.38,0,0,1,0,.52,3.36,3.36,0,0,1-.61.52,1.58,1.58,0,0,1-.67.2.35.35,0,0,0-.31.14c-.43.46-.86.93-1.33,1.36a2.35,2.35,0,0,1-.77.4c-.12,0-.19.07-.24.18a1.63,1.63,0,0,1-.63.83.23.23,0,0,0,0,.15,6.67,6.67,0,0,0,.46,2.79c.05.12.08.25.24.29s.07.11.09.17,0,.22.06.3a5.81,5.81,0,0,0,3.34,2.55,2.8,2.8,0,0,0,.31.09,2.93,2.93,0,0,1-.73-1A2.7,2.7,0,0,1,15,11a2.9,2.9,0,0,1,1.79-2.43,4.35,4.35,0,0,1,1.6-.28,4,4,0,0,1,2.31.61A2.84,2.84,0,0,1,22,11.93a9.32,9.32,0,0,1-.53,1.1h.07a4.3,4.3,0,0,0,1.8-1.23,6.24,6.24,0,0,0,1.41-4.17c0-.07-.06-.15-.11-.2a1.21,1.21,0,0,1-.37-.94A.69.69,0,0,0,24.18,6a5,5,0,0,0-1.9-1.71.17.17,0,0,0-.14,0,.5.5,0,0,1-.63-.06,8.29,8.29,0,0,1-.62-.71c-.06-.08-.14-.18-.12-.26s-.09-.21-.21-.26a6.07,6.07,0,0,0-3.21-.35C16.92,2.74,16.5,2.87,16,3ZM2.88,18.78v.07a1.67,1.67,0,0,0,.32.08c1.36.14,2.72.32,4.08.41s2.92.16,4.38.19c3,0,6.07.13,9.1.1s6.35-.16,9.52-.28c1.3-.05,2.6-.22,3.9-.34.26,0,.52-.1.78-.15v-.08A80.47,80.47,0,0,0,25,18.09c0,.2,0,.36,0,.52a.41.41,0,1,1-.81,0v-.57H23l-9.83,0c-.17,0-.4,0-.5.05s0,.31,0,.48a.41.41,0,0,1-.4.43.41.41,0,0,1-.41-.44v-.5A74.84,74.84,0,0,0,2.88,18.78Zm8.82-2.23.06-.05v-.9a.41.41,0,0,1,.41-.46c.25,0,.4.17.4.45v1.12c0,.06,0,.16.1.18a3.87,3.87,0,0,0,.68.12.57.57,0,0,0,.67-.42c.07-.18.15-.35.22-.53a5.23,5.23,0,0,0,.4-2.21.87.87,0,0,0-.49-.82,4.86,4.86,0,0,1-1.66-1.36c-.22-.28-.42-.58-.63-.88-.4.14-.81.27-1.21.42a.94.94,0,0,1-.66,0l-.88-.35,0,0q.8,1.41,1.62,2.82a2.08,2.08,0,0,0,.43.51c.14.11.17.2.05.37a3.22,3.22,0,0,1-.39-.33,4.81,4.81,0,0,1-.42-.56,27.14,27.14,0,0,1-1.73-3.24,2.88,2.88,0,0,0-.22-.38,6.52,6.52,0,0,1-.89-2,4,4,0,0,1,0-.54,1.89,1.89,0,0,0-.42,2,20.83,20.83,0,0,0,1.72,3.75,10.31,10.31,0,0,0,2,2.52C11,16.08,11.38,16.3,11.7,16.55Zm6.73-2.74a4.27,4.27,0,0,0,2.28-.56,2.21,2.21,0,0,0,1.11-1.95,2.59,2.59,0,0,0-1.55-2.41A4.16,4.16,0,0,0,17,8.75a2.33,2.33,0,0,0-1.48,1.47,5.18,5.18,0,0,0-.23,1,2.06,2.06,0,0,0,1.28,2.27A4.47,4.47,0,0,0,18.43,13.81Zm-3.56-.4c0,.3.05.59,0,.88a6.76,6.76,0,0,1-.71,2.55.66.66,0,0,1-.52.39l-.43.07,0,.36H23.48l-.08-.84a8.41,8.41,0,0,1-.78.34.82.82,0,0,1-1.08-.57L21,15.09c0-.12-.09-.19-.23-.2L20,14.78l-.68,0c.34.47.66.89,1,1.34a3.8,3.8,0,0,1,.27.6l-.34-.05-.17.2a1,1,0,0,1-.19-.16c-.07-.09-.1-.19-.16-.28-.33-.44-.65-.9-1-1.33-.23-.27-.47-.25-.71,0a4.07,4.07,0,0,0-.33.48c-.23.4-.43.81-.66,1.21a.4.4,0,0,1-.28.2c-.08,0-.19-.14-.22-.24s-.1-.21-.27-.17a1.33,1.33,0,0,1,0-.35,2.48,2.48,0,0,1,1-1.22H17l-1.52.07c-.16,0-.27,0-.28-.24s0-.4-.06-.6S15,14,15,13.77h.79v0Zm9.32-2.35,0,0A4.81,4.81,0,0,1,21,13.45c-.21.05-.15.17-.11.31l.79-.06a1.79,1.79,0,0,0,.08,1,.91.91,0,0,1,0,.4L21.23,15c.2.56.39,1.08.59,1.6a.54.54,0,0,0,.71.34,1.72,1.72,0,0,0,.42-.18c.28-.16.54-.35.82-.52s.52-.34.44-.72c0,0,0-.06,0-.08s0-.24,0-.36l-.07,0L24.3,15a4.63,4.63,0,0,1-.18-.52.7.7,0,0,1,.12-.68c.18-.2.34-.41.53-.64l.38,1.12a11.32,11.32,0,0,0,2.08-3c-.74,0-1.45.08-2.17.1A1.22,1.22,0,0,1,24.19,11.06Zm.67-3.81.07,0a2.4,2.4,0,0,0,.8-2.46,2.76,2.76,0,0,0-1.43-2,3,3,0,0,0-1.72-.23,2.94,2.94,0,0,0-1.4.54c-.07,0-.15.18-.13.21a1.83,1.83,0,0,0,.79.86c0-.06,0-.12.05-.12a11.35,11.35,0,0,1,1.42-.23,1.39,1.39,0,0,1,1.06.31A2.08,2.08,0,0,1,25,5.43a.92.92,0,0,1-.36,1,.22.22,0,0,0-.1.17A1.14,1.14,0,0,0,24.86,7.25Zm-11.32-5a5.73,5.73,0,0,0-.58.07,2.61,2.61,0,0,0-2.1,1.81,3.79,3.79,0,0,0,.37,2.7c.07.14.16.09.21,0s.26-.42.39-.63a.29.29,0,0,0,0-.36A1.63,1.63,0,0,1,11.46,5c-.08-.82.89-1.67,1.71-1.7a1.84,1.84,0,0,1,1.46.59c.07.08.14.17.29.11a2.05,2.05,0,0,0,.81-.55c.16-.18.16-.28,0-.42A3.79,3.79,0,0,0,13.54,2.21ZM25,15.28l.17-.15a15.09,15.09,0,0,0,2.33-2.71,9.86,9.86,0,0,0,1.37-2.61A3.29,3.29,0,0,0,29,8a4.72,4.72,0,0,0-.27-.61c0,.5,0,1,0,1.46a2.83,2.83,0,0,1-.93,2,1.31,1.31,0,0,0-.17.24c-.37.65-.71,1.31-1.11,1.94a6.57,6.57,0,0,1-.9,1.13c-.33.32-.52.81-1,.95,0,0,0,0,0,0Zm-.79,1c-.17.12-.32.21-.46.32a.16.16,0,0,0-.07.14c0,.32.06.63.09,1h.44ZM12.58,17.69h.35l.06-.46-.41-.09Z"/><path d="M33.8,17.31l-.28-.89.87-.26.27.88Z"/><path d="M26.26,2.38l.11-.46.81.19-.12.47Z"/><path d="M35.39,1.56l.47.11-.14.57-.47-.11Z"/><path d="M33.56,13.78l.14.58-.47.1-.13-.57Z"/><path d="M2.71,14.36l.13-.57.47.09-.13.57Z"/><path d="M4.76,3.44l-.51-.27.22-.39L5,3.05Z"/><path d="M7.4,5.31l-.22.4-.51-.27L6.89,5Z"/><path d="M3.88,6.38,4.11,6l.5.28-.23.39Z"/><path d="M30.48,11.44l-.5.28-.23-.39.5-.28Z"/><path d="M32.3,6l.23.38-.5.28-.23-.39Z"/><path d="M31.65,2.84l-.23.38L30.91,3l.24-.4Z"/><path d="M28.91,5.73l-.5-.28.23-.39.5.28Z"/><path d="M35.13,6.05l-.51-.28.23-.39.5.28Z"/><path d="M7.61,16l-.22.4-.51-.27.22-.4Z"/><path d="M28.8,16l.51-.27.22.4-.5.27Z"/><path d="M4.25,9.14l.22-.39L5,9l-.24.39Z"/><path d="M6.43,11.72l-.5-.28.23-.39.5.27Z"/><path d="M32,12.66l.5-.28.23.39-.49.28Z"/><path d="M33.27,3l.44.23-.22.4-.44-.22Z"/><path d="M2,8l.21-.42.44.22-.21.4Z"/><path d="M35,12.85l-.11.45-.43-.11C34.43,12.71,34.49,12.67,35,12.85Z"/><path d="M31,8.6l.45.1-.11.46-.46-.1Z"/><path d="M6.44,1.46l.06-.27.22.05-.06.28Z"/><path d="M33.09,9.5l.24,0,.06.26-.22.07Z"/><path d="M3,17.38l-.28.08-.07-.21.27-.09Z"/><path d="M30.49,15.6l.06-.22.28.08-.06.22Z"/><path d="M3.28,11.3l.28-.08.08.21-.28.1Z"/><path d="M6.91,14.26l.24,0-.06.27-.23,0Z"/><path d="M34.85,8l-.08.22-.27-.09.06-.22Z"/><path d="M4.13,15.68l-.07-.22.28-.08.07.22Z"/><path d="M28.48,14.07l.07.32c-.1,0-.19,0-.23,0a.2.2,0,0,1,0-.19S28.39,14.11,28.48,14.07Z"/><path d="M9.41,3.52l-.06.29-.23-.05.06-.27Z"/><path d="M26.77,16.22l.25.07L27,16.5C26.66,16.44,26.66,16.44,26.77,16.22Z"/><path d="M18.41,21.13c.22.59.17.72-.42.93a4,4,0,0,1-.57.16.42.42,0,0,1-.46-.13.36.36,0,0,1,0-.45c.13-.28.27-.56.39-.85a.43.43,0,0,1,.36-.28,2.58,2.58,0,0,1,.68,0c.3,0,.37.23.18.47C18.52,21,18.46,21.08,18.41,21.13Zm-.36.32a2.75,2.75,0,0,0-.48.09c-.06,0-.1.11-.13.17s.06.08.09.09A.57.57,0,0,0,18.05,21.45Zm.07-.58c-.27-.07-.3-.05-.34.18Z"/><path d="M22.21,21.51c.1.1.22.18.31.28a.22.22,0,0,1-.08.37c-.09.05-.15.05-.22-.06a2.28,2.28,0,0,0-.39-.37c-.12-.1-.24-.05-.32.08a3.78,3.78,0,0,1-.22.33.25.25,0,0,1-.43-.07.18.18,0,0,1,0-.16,2.37,2.37,0,0,0,.59-1.17.21.21,0,0,1,.1-.14,1.22,1.22,0,0,1,1-.09c.33.13.37.39.11.62S22.38,21.38,22.21,21.51Zm.21-.6,0-.05c-.36-.06-.46,0-.55.39Z"/><path d="M27.6,20.45a4.17,4.17,0,0,1,.59.15.36.36,0,0,1,.21.53,2,2,0,0,1-1.62,1.09c-.19,0-.31-.13-.25-.31a6.85,6.85,0,0,1,.5-1.18C27.13,20.56,27.44,20.52,27.6,20.45Zm-.5,1.21,0,0a2.28,2.28,0,0,0,.8-.61s0-.17-.05-.2a.44.44,0,0,0-.55.21C27.26,21.29,27.18,21.47,27.1,21.66Z"/><path d="M8.38,21.9a.88.88,0,0,0-.8.26.2.2,0,0,1-.3,0,.3.3,0,0,1,0-.27,8.7,8.7,0,0,1,.68-.8,3.24,3.24,0,0,1,.57-.47.38.38,0,0,1,.34,0A.38.38,0,0,1,9,20.9a8.3,8.3,0,0,1-.14,1c0,.14-.05.29-.24.25S8.43,22,8.35,22Zm.09-.76-.29.33C8.5,21.48,8.51,21.47,8.47,21.14Z"/><path d="M29.77,21.9a.94.94,0,0,0-.81.26.18.18,0,0,1-.29,0,.31.31,0,0,1,0-.27,1.1,1.1,0,0,1,.26-.35c.27-.28.55-.55.83-.81a1.05,1.05,0,0,1,.29-.17c.19-.06.37.05.35.24q-.06.61-.18,1.23s-.17.12-.24.11-.13-.12-.19-.18Zm-.17-.43c.3,0,.32,0,.25-.3Z"/><path d="M25.61,21.09a.34.34,0,0,0,.47-.29c0-.17.13-.28.33-.26s.19.08.14.2a3,3,0,0,1-.18.45c-.12.27-.25.54-.38.8,0,.05,0,.12-.1.14a2.27,2.27,0,0,1-.25.06c0-.08-.07-.17-.05-.24a2.62,2.62,0,0,1,.18-.43c-.38,0-.37,0-.52.27a1.51,1.51,0,0,1-.2.35.19.19,0,0,1-.31,0,.33.33,0,0,1,0-.27c.23-.44.48-.88.73-1.31.06-.11.14-.2.27-.1s.19.19.06.34A1.48,1.48,0,0,0,25.61,21.09Z"/><path d="M6.45,21.52c-.37,0-.36,0-.5.26a1.09,1.09,0,0,1-.22.36.33.33,0,0,1-.29,0,.3.3,0,0,1-.07-.26c.24-.45.5-.9.75-1.35.06-.1.15-.15.26-.06s.19.16.08.3a2.4,2.4,0,0,0-.16.27c.32.05.34.05.46-.27.06-.14.1-.28.3-.27s.24.06.17.23a4.47,4.47,0,0,1-.19.46c-.11.26-.24.51-.37.76,0,.05,0,.12-.09.14a2,2,0,0,1-.26.06c0-.08-.06-.17,0-.24A3.2,3.2,0,0,1,6.45,21.52Z"/><path d="M11.75,22.3a1.46,1.46,0,0,1-.25-.24s0-.14.08-.2a2.71,2.71,0,0,0,.53-1.09.28.28,0,0,1,.12-.18,1.24,1.24,0,0,1,1-.09c.35.13.41.41.12.64a3.25,3.25,0,0,1-.85.49A.83.83,0,0,0,12,22,1.75,1.75,0,0,1,11.75,22.3Zm1.32-1.39,0-.06c-.39,0-.47,0-.56.41Z"/><path d="M11.35,20.81a1.76,1.76,0,0,1-.19.3,2.24,2.24,0,0,1-1,.56.45.45,0,0,0-.3.23,1.21,1.21,0,0,1-.21.28.22.22,0,0,1-.34,0c-.1-.1-.07-.17,0-.28a2.42,2.42,0,0,0,.55-1.08.27.27,0,0,1,.11-.19,1.21,1.21,0,0,1,1-.07C11.15,20.57,11.23,20.7,11.35,20.81Zm-1.11.38,0,.07.57-.36C10.43,20.81,10.38,20.85,10.24,21.19Z"/><path d="M19.78,21l-.45,0c.1-.42.2-.5.61-.5.17,0,.34,0,.51,0s.18.09.19.19,0,.27-.13.27-.37.21-.47.4a4.13,4.13,0,0,0-.2.37h.24c0,.28-.07.4-.34.42l-.81.09c0-.31.07-.4.33-.47a.11.11,0,0,0,.09,0Z"/><path d="M23.47,21.06c-.39,0-.41,0-.36-.41l1.32-.14c.05,0,.14.1.15.17s.05.22-.11.25l-.1,0c-.35,0-.49.19-.61.45l-.22.55c0,.05,0,.12-.08.14s-.19.14-.27.11S23,22,23.1,21.9l.24-.58Z"/><path d="M14.13,21.35a3,3,0,0,1-.25-.51.36.36,0,0,1,.06-.28c.09-.09.2-.1.27.05s.14.26.21.39c.19-.19.35-.36.53-.52s.25-.17.37,0,0,.28-.11.36a4.45,4.45,0,0,0-1.13,1.24c-.07.1-.13.21-.26.09s-.18-.19,0-.34A5.2,5.2,0,0,0,14.13,21.35Z"/><path d="M31.38,21c.18-.18.34-.35.52-.51s.25-.19.37,0,0,.29-.11.37a4.5,4.5,0,0,0-1.11,1.23c-.08.1-.14.22-.28.09s-.2-.2,0-.33.05-.06.08-.09c.22-.23.33-.46.07-.75a.32.32,0,0,1-.07-.25.56.56,0,0,1,.19-.22s.13.08.17.14S31.31,20.88,31.38,21Z"/><path d="M21.21,8.34c0-.46.28-.8.65-.77a.75.75,0,0,1,.56.88c-.07.42-.33.69-.64.67A.72.72,0,0,1,21.21,8.34Z"/><path d="M14.05,8.61a.64.64,0,0,1,0-.14.65.65,0,0,1,.67-.6.75.75,0,0,1,.54.81c0,.43-.3.76-.63.74S14,9.07,14.05,8.61Z"/><path d="M12.21,13.12a3.28,3.28,0,0,1,.51,1.2.52.52,0,0,1-.54.7.28.28,0,0,1-.21-.1,2.53,2.53,0,0,1-.26-.52.63.63,0,0,1,.08-.62C11.94,13.57,12.07,13.34,12.21,13.12Z"/><path d="M19.69,13.38c-.21-.13-.42-.24-.62-.37a.29.29,0,0,0-.38,0c-.19.15-.4.27-.6.4L17.44,13a.2.2,0,0,1-.06-.3.21.21,0,0,1,.31-.09l.09.06c.1.07.23.2.31.18a1.46,1.46,0,0,0,.47-.29c.1-.08.06-.45-.06-.56-.3-.28-.59-.56-.9-.83a.27.27,0,0,1-.09-.35s0,0,0-.06c.17-.5.21-.52.73-.52l1.35,0c.05,0,.12,0,.14,0a5.9,5.9,0,0,1,.38.7s-.05.12-.1.17L19.2,12a.43.43,0,0,0,.08.66l.06,0c.31.19.31.19.6,0,.13-.1.24-.11.35,0s.09.22,0,.31Z"/></g><path class="cls-4" d="M11.32,8.06c0-.23,0-.45,0-.68a.64.64,0,0,0-.06-.18,4,4,0,0,1-.44-3,2.81,2.81,0,0,1,2.29-2,3.39,3.39,0,0,1,2.67.58.68.68,0,0,0,.62.08A6.46,6.46,0,0,1,21,3.06a.29.29,0,0,0,.24,0,3.52,3.52,0,0,1,3.18-.35,2.88,2.88,0,0,1,1.69,2,2.7,2.7,0,0,1-.81,2.9.36.36,0,0,0-.11.23c0,.27,0,.54,0,.83.06-.07.12-.15.19-.22A6.22,6.22,0,0,1,27.08,7a1.62,1.62,0,0,1,2.34,1,3.06,3.06,0,0,1,.09,1,6.19,6.19,0,0,1-.91,2.59,15.66,15.66,0,0,1-3.25,4,.41.41,0,0,0-.13.24c0,.63,0,1.25,0,1.88a.29.29,0,0,0,0,.09l.91,0c1.52.06,3,.09,4.55.2s2.77.26,4.16.41a2.62,2.62,0,0,1,.71.21c.25.11.27.29.1.51a.4.4,0,0,0-.06.22c0,1.32,0,2.64,0,4v.25H2.47v-.25c0-1.43,0-2.85,0-4.28,0-.28.06-.4.35-.47a11,11,0,0,1,1.39-.28c2.51-.3,5.05-.39,7.58-.47H12c0-.29,0-.56,0-.84,0,0,0-.08-.09-.1a7.84,7.84,0,0,1-2.69-2.68A19.4,19.4,0,0,1,7,9.8,2.16,2.16,0,0,1,7.5,7.5,2,2,0,0,1,10,7.09a7.91,7.91,0,0,1,1,.79l.2.2ZM2.87,23.31H35.18V19.48h-.07c-1,.12-1.94.3-2.92.36-2,.13-4,.24-6.06.3s-4.24.1-6.36.09c-2.62,0-5.25,0-7.87-.1C10,20.07,8.05,20,6.13,19.84c-1-.07-1.88-.22-2.82-.33-.15,0-.29-.06-.44-.09ZM16.23,3.17a.4.4,0,0,1,0,.53,3,3,0,0,1-.61.51,1.46,1.46,0,0,1-.67.21.35.35,0,0,0-.31.14c-.44.46-.86.93-1.33,1.35a2.38,2.38,0,0,1-.77.41c-.12,0-.19.07-.24.18a1.63,1.63,0,0,1-.63.83s-.05.09-.05.14a6.53,6.53,0,0,0,.46,2.8c.05.12.08.25.24.29s.07.11.09.17a.94.94,0,0,0,.06.3,5.82,5.82,0,0,0,3.33,2.55l.32.09a2.8,2.8,0,0,1-.73-1,2.7,2.7,0,0,1-.13-1.54A2.9,2.9,0,0,1,17,8.72a4.35,4.35,0,0,1,1.6-.28,4,4,0,0,1,2.31.6,2.84,2.84,0,0,1,1.27,3.09,7.93,7.93,0,0,1-.52,1.1h.07A4.3,4.3,0,0,0,23.54,12,6.33,6.33,0,0,0,25,7.82a.39.39,0,0,0-.11-.21,1.18,1.18,0,0,1-.37-.93.68.68,0,0,0-.09-.45,5,5,0,0,0-1.9-1.71.2.2,0,0,0-.15,0,.48.48,0,0,1-.62-.06,8.29,8.29,0,0,1-.62-.71C21,3.67,21,3.56,21,3.49s-.08-.21-.2-.26a6,6,0,0,0-3.22-.35C17.12,2.94,16.7,3.07,16.23,3.17ZM3.08,19v.07a2,2,0,0,0,.33.08c1.36.14,2.71.31,4.08.41s2.91.16,4.37.19c3,.05,6.07.13,9.11.1s6.35-.16,9.52-.28c1.3-.06,2.6-.22,3.9-.34.26,0,.52-.1.77-.15V19a82.46,82.46,0,0,0-9.95-.69c0,.21,0,.37,0,.53a.41.41,0,0,1-.41.44.42.42,0,0,1-.4-.44v-.56c-.44,0-.85,0-1.25,0l-9.83,0c-.17,0-.4,0-.51.06s0,.31,0,.48a.41.41,0,0,1-.4.43.41.41,0,0,1-.41-.44v-.5A72.64,72.64,0,0,0,3.08,19Zm8.82-2.23L12,16.7v-.9a.4.4,0,0,1,.41-.46.4.4,0,0,1,.4.45c0,.37,0,.74,0,1.12,0,.06.05.16.1.17a3.14,3.14,0,0,0,.68.13.58.58,0,0,0,.67-.42c.07-.18.15-.35.22-.53a5.23,5.23,0,0,0,.4-2.21.87.87,0,0,0-.5-.82,4.94,4.94,0,0,1-1.65-1.36c-.22-.28-.42-.59-.63-.88-.4.14-.81.27-1.21.42a.94.94,0,0,1-.66,0l-.89-.35,0,0c.53.94,1.07,1.88,1.61,2.82a2.38,2.38,0,0,0,.44.51c.14.11.17.2,0,.37a4.09,4.09,0,0,1-.38-.33,5.84,5.84,0,0,1-.42-.56,27.14,27.14,0,0,1-1.73-3.24,2.88,2.88,0,0,0-.22-.38,6.3,6.3,0,0,1-.89-2,2.92,2.92,0,0,1,0-.54,1.87,1.87,0,0,0-.42,2A20.61,20.61,0,0,0,9,13.49a10.31,10.31,0,0,0,2,2.52C11.24,16.28,11.58,16.5,11.9,16.75ZM18.63,14a4.31,4.31,0,0,0,2.28-.56A2.21,2.21,0,0,0,22,11.5a2.59,2.59,0,0,0-1.55-2.41,4.23,4.23,0,0,0-3.31-.15,2.33,2.33,0,0,0-1.47,1.48,5.18,5.18,0,0,0-.23,1,2,2,0,0,0,1.28,2.26A4.31,4.31,0,0,0,18.63,14Zm-3.56-.4c0,.3,0,.59,0,.88A7,7,0,0,1,14.4,17a.69.69,0,0,1-.52.4l-.43.07,0,.36H23.68L23.59,17a7.26,7.26,0,0,1-.77.34.82.82,0,0,1-1.08-.57c-.19-.51-.39-1-.57-1.51a.25.25,0,0,0-.23-.19L20.18,15l-.67,0c.34.46.66.89,1,1.34a3.08,3.08,0,0,1,.26.6l-.33-.05-.17.2a1,1,0,0,1-.19-.16c-.07-.09-.1-.19-.16-.28-.33-.45-.65-.9-1-1.33-.22-.27-.47-.25-.7,0a2.72,2.72,0,0,0-.33.48c-.23.4-.43.81-.66,1.21-.06.09-.19.2-.28.19s-.19-.13-.22-.23-.1-.21-.27-.18a1.26,1.26,0,0,1,0-.34,2.47,2.47,0,0,1,1-1.22h-.23l-1.52.07c-.16,0-.27,0-.28-.24s0-.4-.06-.6-.06-.28-.1-.46H16v0Zm9.32-2.35,0,0a4.81,4.81,0,0,1-3.14,2.35c-.21,0-.15.17-.11.31l.79-.06a1.79,1.79,0,0,0,.08,1,.91.91,0,0,1,0,.4l-.54-.09c.2.56.38,1.08.59,1.6a.54.54,0,0,0,.7.34,1.63,1.63,0,0,0,.43-.18c.28-.16.54-.35.82-.52s.52-.34.44-.72c0,0,0-.06,0-.08s0-.24,0-.36l-.07,0,.14-.09c-.07-.19-.14-.36-.19-.52a.72.72,0,0,1,.13-.68c.18-.2.34-.41.53-.64l.37,1.12a11,11,0,0,0,2.08-3c-.73,0-1.44.08-2.16.1A1.26,1.26,0,0,1,24.39,11.26Zm.66-3.82s.06,0,.08,0A2.4,2.4,0,0,0,25.93,5a2.77,2.77,0,0,0-1.44-2,2.87,2.87,0,0,0-1.71-.23,2.84,2.84,0,0,0-1.4.54c-.07.05-.15.18-.13.21a1.83,1.83,0,0,0,.79.86c0-.06,0-.12.05-.12A11.54,11.54,0,0,1,23.5,4a1.45,1.45,0,0,1,1.07.32,2.08,2.08,0,0,1,.61,1.31.91.91,0,0,1-.36,1c-.05,0-.11.13-.1.18A1.13,1.13,0,0,0,25.05,7.44Zm-11.31-5a5.6,5.6,0,0,0-.59.07,2.58,2.58,0,0,0-2.09,1.81A3.79,3.79,0,0,0,11.43,7c.06.14.16.09.21,0s.26-.42.39-.63A.29.29,0,0,0,12,6a1.63,1.63,0,0,1-.34-.85c-.08-.82.89-1.67,1.71-1.7a1.84,1.84,0,0,1,1.46.59c.07.08.14.16.28.11a2,2,0,0,0,.82-.55c.16-.18.15-.28,0-.42A3.72,3.72,0,0,0,13.74,2.41ZM25.18,15.48l.17-.15a15.09,15.09,0,0,0,2.33-2.71A10.49,10.49,0,0,0,29.05,10a3.19,3.19,0,0,0,.14-1.81,3.61,3.61,0,0,0-.26-.61c0,.5,0,1,0,1.45A2.85,2.85,0,0,1,28,11a.81.81,0,0,0-.17.24c-.37.65-.71,1.31-1.11,1.94a6.14,6.14,0,0,1-.9,1.12c-.33.33-.52.82-1,1,0,0,0,0,0,0Zm-.79,1c-.18.12-.33.21-.47.32a.16.16,0,0,0-.06.13c0,.32.06.64.09,1h.44ZM12.78,17.89h.35l.06-.46-.41-.09Z"/><path class="cls-4" d="M34,17.5l-.28-.88.86-.26.28.88Z"/><path class="cls-4" d="M26.46,2.58l.11-.46.81.19-.12.47Z"/><path class="cls-4" d="M35.59,1.75l.46.12-.14.57-.46-.11Z"/><path class="cls-4" d="M33.76,14l.14.57-.47.11-.13-.57Z"/><path class="cls-4" d="M2.91,14.56,3,14l.47.09-.13.57Z"/><path class="cls-4" d="M5,3.64l-.5-.27L4.67,3l.51.26Z"/><path class="cls-4" d="M7.6,5.51l-.22.4-.51-.27.22-.4Z"/><path class="cls-4" d="M4.08,6.58l.23-.39.5.28-.23.39Z"/><path class="cls-4" d="M30.68,11.64l-.5.28L30,11.53l.5-.28Z"/><path class="cls-4" d="M32.5,6.19l.23.39-.5.28L32,6.47Z"/><path class="cls-4" d="M31.84,3l-.22.39-.51-.27.24-.4Z"/><path class="cls-4" d="M29.1,5.93l-.49-.28.23-.39.5.28Z"/><path class="cls-4" d="M35.32,6.25,34.82,6l.23-.39.5.28Z"/><path class="cls-4" d="M7.8,16.16l-.22.4-.5-.27.21-.4Z"/><path class="cls-4" d="M29,16.16l.51-.27.22.4-.51.27Z"/><path class="cls-4" d="M4.45,9.34,4.67,9l.51.28-.24.39Z"/><path class="cls-4" d="M6.63,11.92l-.5-.28.23-.39.5.27Z"/><path class="cls-4" d="M32.19,12.86l.5-.28.23.39-.49.28Z"/><path class="cls-4" d="M33.47,3.16l.44.23-.22.4-.44-.22Z"/><path class="cls-4" d="M2.17,8.23l.22-.42L2.82,8l-.2.4Z"/><path class="cls-4" d="M35.15,13.05l-.11.44-.43-.1C34.63,12.91,34.68,12.87,35.15,13.05Z"/><path class="cls-4" d="M31.17,8.79l.45.11-.11.46-.46-.1Z"/><path class="cls-4" d="M6.63,1.66l.07-.27.22.05-.06.28Z"/><path class="cls-4" d="M33.29,9.7l.24,0,.06.26-.22.07Z"/><path class="cls-4" d="M3.21,17.58l-.29.08-.07-.22.28-.08Z"/><path class="cls-4" d="M30.69,15.8l.06-.22.28.08-.06.22Z"/><path class="cls-4" d="M3.48,11.5l.28-.08.08.21-.28.09Z"/><path class="cls-4" d="M7.11,14.46l.24,0-.06.27-.23,0Z"/><path class="cls-4" d="M35,8.19,35,8.41l-.28-.09.07-.22Z"/><path class="cls-4" d="M4.33,15.88l-.07-.22.28-.08.06.22Z"/><path class="cls-4" d="M28.68,14.27l.07.32c-.1,0-.19,0-.23,0a.21.21,0,0,1,0-.19S28.59,14.31,28.68,14.27Z"/><path class="cls-4" d="M9.6,3.72,9.54,4,9.32,4l.06-.26Z"/><path class="cls-4" d="M27,16.42l.26.07,0,.21C26.86,16.64,26.86,16.64,27,16.42Z"/><path class="cls-4" d="M18.61,21.33c.22.59.17.72-.42.93a4,4,0,0,1-.57.16.44.44,0,0,1-.47-.13c-.12-.15-.07-.3,0-.46l.39-.84a.42.42,0,0,1,.36-.28,3,3,0,0,1,.67,0c.31,0,.38.24.18.48A1.14,1.14,0,0,1,18.61,21.33Zm-.37.31a4.24,4.24,0,0,0-.47.1c-.06,0-.1.1-.13.17a.19.19,0,0,0,.09.09C17.87,22,18.16,21.86,18.24,21.64Zm.08-.57C18.05,21,18,21,18,21.25Z"/><path class="cls-4" d="M22.41,21.71a4.12,4.12,0,0,1,.31.28.23.23,0,0,1-.08.37c-.09.05-.15,0-.23-.06a1.91,1.91,0,0,0-.38-.37.2.2,0,0,0-.32.07c-.08.12-.14.24-.22.34a.25.25,0,0,1-.43-.07.18.18,0,0,1,0-.16,2.37,2.37,0,0,0,.59-1.17.25.25,0,0,1,.1-.15,1.25,1.25,0,0,1,1-.08c.32.13.37.39.11.62S22.58,21.58,22.41,21.71Zm.21-.6,0-.05c-.36-.06-.46,0-.55.39Z"/><path class="cls-4" d="M27.8,20.65a4.17,4.17,0,0,1,.59.15.36.36,0,0,1,.21.53A1.93,1.93,0,0,1,27,22.41c-.19,0-.31-.12-.25-.3a6.85,6.85,0,0,1,.5-1.18C27.33,20.76,27.63,20.72,27.8,20.65Zm-.5,1.21,0,0a2.23,2.23,0,0,0,.81-.62s0-.17,0-.19a.46.46,0,0,0-.56.21Z"/><path class="cls-4" d="M8.58,22.1a.91.91,0,0,0-.81.26.18.18,0,0,1-.29,0c-.05-.05-.09-.21-.05-.26.22-.28.45-.55.69-.8a3.1,3.1,0,0,1,.56-.47.4.4,0,0,1,.35,0,.37.37,0,0,1,.14.31c0,.33-.09.67-.14,1,0,.13-.06.29-.24.25a.84.84,0,0,1-.24-.19Zm.09-.76-.29.33C8.7,21.68,8.71,21.67,8.67,21.34Z"/><path class="cls-4" d="M30,22.1a.91.91,0,0,0-.81.26.18.18,0,0,1-.29,0,.27.27,0,0,1,0-.27,1.24,1.24,0,0,1,.25-.35l.84-.81a.77.77,0,0,1,.29-.17.24.24,0,0,1,.35.24c0,.41-.11.82-.18,1.22,0,.06-.17.13-.24.12s-.13-.12-.19-.19Zm-.17-.43c.29,0,.32,0,.24-.3Z"/><path class="cls-4" d="M25.81,21.29a.34.34,0,0,0,.47-.29c0-.17.13-.28.33-.26s.18.08.14.2a4.22,4.22,0,0,1-.18.45c-.12.27-.25.53-.38.8,0,0-.05.12-.1.14a2,2,0,0,1-.26.06c0-.08-.06-.17,0-.25a3.69,3.69,0,0,1,.17-.42c-.37,0-.37,0-.51.27a1.75,1.75,0,0,1-.2.35.19.19,0,0,1-.31,0,.33.33,0,0,1-.05-.27c.23-.45.48-.88.73-1.31.06-.11.14-.2.27-.1s.19.19.06.34A1.48,1.48,0,0,0,25.81,21.29Z"/><path class="cls-4" d="M6.65,21.72c-.37,0-.37,0-.5.26a1.09,1.09,0,0,1-.22.36.33.33,0,0,1-.29,0,.3.3,0,0,1-.07-.26c.24-.46.5-.9.75-1.35.06-.11.15-.15.26-.06s.19.16.08.3a1.75,1.75,0,0,0-.16.27c.32,0,.34,0,.46-.27,0-.14.1-.28.3-.27s.23.06.17.23a4.47,4.47,0,0,1-.19.46c-.12.26-.24.51-.37.76,0,0,0,.12-.09.14a2,2,0,0,1-.26.06.53.53,0,0,1,0-.24A3.2,3.2,0,0,1,6.65,21.72Z"/><path class="cls-4" d="M12,22.5c-.11-.1-.21-.16-.25-.24s0-.14.08-.2A2.57,2.57,0,0,0,12.3,21a.34.34,0,0,1,.12-.18,1.27,1.27,0,0,1,1-.09c.34.13.41.41.12.64a4,4,0,0,1-.85.49.8.8,0,0,0-.46.38A2.26,2.26,0,0,1,12,22.5Zm1.31-1.39,0-.06c-.38,0-.47,0-.55.4Z"/><path class="cls-4" d="M11.55,21a1.76,1.76,0,0,1-.19.3,2.24,2.24,0,0,1-1,.56.4.4,0,0,0-.3.23,1,1,0,0,1-.22.28.21.21,0,0,1-.33,0c-.1-.1-.07-.17,0-.28A2.3,2.3,0,0,0,10.09,21a.31.31,0,0,1,.12-.19,1.16,1.16,0,0,1,1-.07A1.43,1.43,0,0,1,11.55,21Zm-1.11.38,0,.06.57-.35C10.63,21,10.58,21.05,10.44,21.39Z"/><path class="cls-4" d="M20,21.16l-.45,0c.1-.41.2-.49.61-.49h.51c.15,0,.18.09.19.2s0,.27-.13.26c-.3,0-.37.21-.47.41s-.13.23-.2.36h.24c0,.29-.08.41-.34.43l-.82.08c0-.3.08-.39.34-.46a.16.16,0,0,0,.09,0Z"/><path class="cls-4" d="M23.67,21.25c-.39,0-.41,0-.36-.4.43-.05.87-.11,1.32-.14.05,0,.14.1.15.17s0,.22-.11.25l-.11,0c-.34,0-.48.19-.6.45s-.15.36-.23.55,0,.12-.07.14-.2.14-.27.11-.15-.17-.1-.3l.25-.58Z"/><path class="cls-4" d="M14.33,21.54a3.43,3.43,0,0,1-.26-.5.35.35,0,0,1,.07-.28c.09-.09.2-.1.27,0s.14.26.21.39c.19-.19.35-.37.53-.52s.25-.17.36,0,0,.28-.1.35a4.64,4.64,0,0,0-1.13,1.25c-.07.1-.13.21-.26.09s-.19-.19,0-.34A4,4,0,0,0,14.33,21.54Z"/><path class="cls-4" d="M31.58,21.2c.18-.18.34-.35.52-.51s.24-.19.37,0,0,.28-.11.37a4.34,4.34,0,0,0-1.11,1.23c-.08.1-.14.22-.28.09s-.2-.2,0-.33a.44.44,0,0,0,.08-.1c.22-.22.33-.46.07-.74a.33.33,0,0,1-.07-.25.5.5,0,0,1,.19-.22s.13.08.17.14S31.51,21.08,31.58,21.2Z"/><path class="cls-4" d="M21.4,8.54c0-.46.29-.8.66-.77a.74.74,0,0,1,.55.88c-.06.42-.32.69-.63.67A.73.73,0,0,1,21.4,8.54Z"/><path class="cls-4" d="M14.24,8.8s0-.07,0-.13a.64.64,0,0,1,.67-.6.75.75,0,0,1,.54.8c0,.43-.3.77-.63.75S14.24,9.27,14.24,8.8Z"/><path class="cls-4" d="M12.41,13.32a3.28,3.28,0,0,1,.51,1.2c.07.43-.12.68-.54.7a.28.28,0,0,1-.21-.1,3.2,3.2,0,0,1-.27-.52A.66.66,0,0,1,12,14C12.14,13.77,12.27,13.54,12.41,13.32Z"/><path class="cls-4" d="M19.89,13.58c-.21-.13-.43-.24-.63-.37a.28.28,0,0,0-.37,0c-.19.15-.4.27-.6.4l-.65-.42c-.14-.08-.12-.19-.06-.3a.21.21,0,0,1,.31-.09l.09.06c.1.07.23.2.31.18a1.32,1.32,0,0,0,.46-.29c.11-.08.07-.45-.05-.56-.3-.28-.59-.56-.9-.83a.27.27,0,0,1-.09-.35s0,0,0-.06c.17-.5.2-.52.72-.52l1.36,0c.05,0,.12,0,.14,0,.13.23.27.46.38.7,0,0,0,.13-.1.18l-.83.87a.43.43,0,0,0,.08.66l.05,0c.31.19.32.19.61,0,.12-.09.24-.11.34,0a.19.19,0,0,1,0,.31Z"/></g></g></svg>