<svg xmlns="http://www.w3.org/2000/svg" viewBox="0 0 38.55 24.66"><defs><style>.cls-1{isolation:isolate;}.cls-2{opacity:0.15;}.cls-2,.cls-3{mix-blend-mode:multiply;}.cls-4{fill:#fff;}</style></defs><title>convert-FIX-SVG-03</title><g class="cls-1"><g id="Layer_1" data-name="Layer 1"><g class="cls-2"><path d="M28.53,12a2.68,2.68,0,0,0-1.23-.52v2l-.37,0c-.1-.87-.19-1.7-.28-2.53,0,0,0,0,0-.07-.27-.34-.07-.76-.2-1.14a10.34,10.34,0,0,1-.35-1.24.39.39,0,0,0-.31-.28A3.35,3.35,0,0,1,25.25,8a1.37,1.37,0,0,1-.4-.24.37.37,0,0,1-.07-.51c.1-.17.25-.21.48-.13l.07,0c0-.1,0-.24.11-.29a.54.54,0,0,1,.37-.13.52.52,0,0,1,.3.28.82.82,0,0,1,0,.44,1.15,1.15,0,0,0,.11.68c.18.54.32,1.09.48,1.64l0,.08A.27.27,0,0,0,27,9.59a22.64,22.64,0,0,0-.43-4.1.51.51,0,0,0-.2-.28c-.34-.24-.71-.42-1-.68a2.59,2.59,0,0,1-.65-.79.82.82,0,0,1,.59-1.16.76.76,0,0,1,.69.22,1.75,1.75,0,0,1,.16.19l.07-.25A.75.75,0,0,1,27,2.18a.85.85,0,0,1,.78.78,2.12,2.12,0,0,1-.24,1.11c-.16.32-.34.63-.52.94a1,1,0,0,0-.14.74,22.5,22.5,0,0,1,.36,3.57.38.38,0,0,0,0,.18c.06-.28.1-.55.17-.82.18-.7.37-1.39.55-2.08a1,1,0,0,0,0-.41c-.09-.33-.23-.66-.3-1a.64.64,0,0,1,.42-.79.53.53,0,0,1,.7.38c0,.06,0,.11,0,.19l.11-.06a.54.54,0,0,1,.71,0,.55.55,0,0,1,.08.75,3.16,3.16,0,0,1-.58.51.89.89,0,0,1-.34.16.94.94,0,0,0-.73.8c-.15.75-.34,1.49-.52,2.24v.12A14.09,14.09,0,0,0,30,9.37a2.37,2.37,0,0,1-.72-1.07,1.57,1.57,0,0,1,1.29-2.1A.73.73,0,0,0,31,6a2.78,2.78,0,0,1,1.36-.73.36.36,0,0,0,.21-.15.64.64,0,0,1,.67-.41.73.73,0,0,1,.69.5.29.29,0,0,0,.16.15l1.16.38a1.16,1.16,0,0,1,.74,1c0,.39.17.76.22,1.14a2.88,2.88,0,0,1-.78,2.65,2.33,2.33,0,0,1-.61.41.31.31,0,0,0-.2.35,9.35,9.35,0,0,1-.17,2.64,7.19,7.19,0,0,1-.79,2.19,1.12,1.12,0,0,0-.09.36,16.73,16.73,0,0,1-.47,4.17,7,7,0,0,1-.34.86,1.56,1.56,0,0,1-1.16.87,2.86,2.86,0,0,1-2-.22,2.09,2.09,0,0,1-.9-1,.72.72,0,0,0-.22-.24.8.8,0,0,1-.3-1.29,3.14,3.14,0,0,1,.34-.4,2.42,2.42,0,0,0,.68-2.28c0-.17-.08-.33-.12-.49a2.24,2.24,0,0,0-.44-1c-.11-.13-.19-.3-.29-.44a4,4,0,0,0-.42-.57.87.87,0,0,1,.1-1.41.74.74,0,0,0,.17-.25C28.33,12.51,28.44,12.22,28.53,12Zm2,5.9a1.58,1.58,0,0,1-.92,1.45,1.3,1.3,0,0,0-.54,1.93,1.8,1.8,0,0,0,1.61.9c1.28,0,1.7-.22,2-1.27A9.43,9.43,0,0,0,33.16,19c.1-.74.13-1.48.17-2.23a2.17,2.17,0,0,0-.28-1.32,1.08,1.08,0,0,0-1-.53c-.41.08-.81.18-1.22.25a.66.66,0,0,0-.55.54,2.49,2.49,0,0,0,.07,1.27C30.42,17.24,30.48,17.55,30.55,17.86Zm.07-8.44a6.14,6.14,0,0,0,2,1.26,2.78,2.78,0,0,0,1.66.15A2.48,2.48,0,0,0,35.9,7.6a2.58,2.58,0,0,1-1,1,.45.45,0,0,1-.73-.28.83.83,0,0,1,.07-.75.29.29,0,0,0,0-.16l-.12-.79a.3.3,0,0,1-.32-.27.63.63,0,0,1,.49-.62,2.82,2.82,0,0,0-3.25.56c.07.18.15.34.21.51a2,2,0,0,1-.31,2A5.09,5.09,0,0,0,30.62,9.42Zm-.34,5.5v-.05c.11,0,.22,0,.32,0l.34,0a4.51,4.51,0,0,0,2.64-1.21,1.69,1.69,0,0,0,.6-1.45,1.34,1.34,0,0,0-.25-.69,1.27,1.27,0,0,0-1.13-.36,3.06,3.06,0,0,0-1.55.68,4.09,4.09,0,0,1-1.45.71,3.09,3.09,0,0,0-1.47.75.9.9,0,0,0-.24.45.85.85,0,0,0,.75,1A13.9,13.9,0,0,0,30.28,14.92Zm.06-5.62c.22-.31.4-.57.57-.83.05-.08.1-.16.14-.24a2,2,0,0,0-.14-1.67.25.25,0,0,0-.16-.11,1.32,1.32,0,0,0-.85.39.46.46,0,0,1-.09.7.42.42,0,0,0-.13.53l.22-.13.19.28-.44.31Zm.28,1.11c-.14-.07-.26-.18-.41,0a9.19,9.19,0,0,0-.73.67,4.38,4.38,0,0,0-.89,1.52l0,.11c.49-.17,1-.32,1.48-.5.25-.1.49-.24.74-.36a.23.23,0,0,0,.08-.17c-.05-.26-.12-.52-.19-.82l-.27.36h0Zm-.48-.73-1.53.08-.9,0c-.12,0-.24,0-.26.17s.06.2.18.26a1.54,1.54,0,0,1,.95,1.49,1.92,1.92,0,0,0,.19-.17c.24-.3.47-.62.72-.91A2.42,2.42,0,0,0,30.14,9.68ZM28.58,20.59a1.68,1.68,0,0,1,1-1.57,1.21,1.21,0,0,0,.64-1.33A9.73,9.73,0,0,0,30,16.63s0-.07-.07-.09l-.53-.24.08.29A2.65,2.65,0,0,1,29.48,18a2.84,2.84,0,0,1-.81,1.41,1.46,1.46,0,0,0-.35.49C28.18,20.22,28.27,20.43,28.58,20.59ZM34.14,6.34l.27,0c.39,0,.6.17.55.57a1.5,1.5,0,0,1-.42.83.54.54,0,0,0,0,.66.26.26,0,0,0,.21,0,1.81,1.81,0,0,0,1-1.37A.91.91,0,0,0,34.67,6C34.45,6,34.21,6,34.14,6.34Zm-.61,9.44a6.29,6.29,0,0,0,.75-2.65,3.66,3.66,0,0,1-1.7,1.53C33.15,15,33.19,15,33.53,15.78ZM28.67,15a3.08,3.08,0,0,0,1.19,1.26l.27-1.08Zm3.41-4-1-.72c-.16.17-.15.34,0,.54A.69.69,0,0,0,32.08,11Zm1.59-5.75A.48.48,0,0,0,33.16,5c-.13,0-.25.07-.27.23ZM34,11.16l.37.53,0-.6Zm-2.91.38.25-.17-.34-.2Z"/><path d="M17.44,20.67c-.49-.33-1-.65-1.5-1a1.55,1.55,0,0,1-.65-.93.86.86,0,0,1,.44-.91.77.77,0,0,1,.92.16c0,.05.07.11.14.21.09-.42.23-.71.6-.82a.87.87,0,0,1,1.08.85,2.11,2.11,0,0,1-.28,1.07C18,19.76,17.7,20.21,17.44,20.67Z"/><path d="M6.33,6.41,5.26,5.74a2.63,2.63,0,0,1-1-1,.8.8,0,0,1,.09-1,.75.75,0,0,1,1.15-.09A2.29,2.29,0,0,1,5.68,4l.05-.21a.78.78,0,0,1,.83-.63.85.85,0,0,1,.78.79A2.35,2.35,0,0,1,7,5.19C6.79,5.6,6.55,6,6.33,6.41Z"/><path d="M16.62,4.44a.74.74,0,0,1,0-.14.76.76,0,0,1,.86-.6.82.82,0,0,1,.74.79,2.5,2.5,0,0,1-.38,1.38L17.25,7c-.5-.33-1-.65-1.52-1a2.51,2.51,0,0,1-.53-.64.84.84,0,0,1,.25-1.13.78.78,0,0,1,1.06.17.47.47,0,0,1,.06.09Z"/><path d="M3.79,16.6a2,2,0,0,0,.08-.38c0-.71,0-1.43,0-2.15a1.35,1.35,0,0,0-.09-.36h2a1.75,1.75,0,0,1,.4.05.68.68,0,0,1,.5.55.65.65,0,0,1-.28.7l-.06.05c.41.3.52.54.42.94a.8.8,0,0,1-.8.61C5.24,16.62,4.5,16.6,3.79,16.6Zm.73-.48c.46,0,.91,0,1.35,0,.21,0,.31-.18.3-.39s-.08-.37-.29-.38c-.45,0-.91,0-1.36,0Zm0-1.28H5.75a.3.3,0,0,0,.34-.31c0-.19-.08-.34-.27-.34-.43,0-.86,0-1.31,0Z"/><path d="M6.12,11.38c0-.15.06-.3.07-.45s0-.54,0-.83H4.5c.06.43-.12.87.13,1.29H3.79A2.07,2.07,0,0,0,3.87,11c0-.7,0-1.39,0-2.08a1.93,1.93,0,0,0-.08-.39h.85c-.26.35-.07.74-.15,1.11h1.7c-.05-.36.1-.73-.11-1.1h.81c0,.15-.06.29-.07.44V11a2.74,2.74,0,0,0,.08.37Z"/><path d="M8.53,14.25h.58c.44,0,.89,0,1.33,0a.57.57,0,0,1,.6.61.61.61,0,0,1-.51.67l-.16.06.76,1h-1c.2-.12.13-.23,0-.34s-.12-.16-.18-.24c-.28-.41-.28-.41-.83-.35,0,.31-.13.64.13.94H8.53a2.26,2.26,0,0,0,.07-.43c0-.49,0-1,0-1.46A2.71,2.71,0,0,0,8.53,14.25Zm.66,1h1a.24.24,0,0,0,.27-.25.24.24,0,0,0-.25-.28h-1Z"/><path d="M17.24,16.64a2.33,2.33,0,0,0,.09-.4q0-.76,0-1.53a2.87,2.87,0,0,0-.07-.46h.32c.47,0,1,0,1.42,0a.91.91,0,0,1,.87.88,1.72,1.72,0,0,1,0,.6.85.85,0,0,1-.75.78C18.48,16.62,17.85,16.61,17.24,16.64Zm.68-.45a6.51,6.51,0,0,0,.77,0,.64.64,0,0,0,.63-.68c0-.47-.16-.76-.56-.81a5.85,5.85,0,0,0-.84,0Z"/><path d="M16.72,14.27a1.64,1.64,0,0,0-.09.35q0,.8,0,1.59a2.16,2.16,0,0,0,.09.39h-.78c.24-.33.06-.68.14-1H14.72c.06.35-.1.71.14,1H14c.2-.16.14-.37.15-.56,0-.47,0-.93,0-1.4a1.72,1.72,0,0,0-.07-.37h.79c-.25.25-.09.55-.15.85H16a1,1,0,0,0-.12-.85Z"/><path d="M21.27,10.19c-.15-.46-.31-.92-.44-1.4A.72.72,0,0,1,21,8.08a.56.56,0,0,1,.58-.17A.56.56,0,0,1,22,8.5l.16-.09a.51.51,0,0,1,.67,0,.53.53,0,0,1,.11.72,2.32,2.32,0,0,1-.62.55A9.39,9.39,0,0,1,21.27,10.19Z"/><path d="M14,10.47c.07.32-.11.64.16.92h-.87c.22-.18.14-.41.14-.62,0-.45,0-.89,0-1.34a.59.59,0,0,0-.12-.35l0,0c.64,0,1.27,0,1.9,0a.62.62,0,0,1,.61.68.62.62,0,0,1-.59.67c-.35,0-.69,0-1,0ZM14,10h1a.23.23,0,0,0,.26-.25A.23.23,0,0,0,15,9.51H14Z"/><path d="M10.52,9.07c.61,0,1.26,0,1.9,0a.61.61,0,0,1,.58.68.62.62,0,0,1-.57.67c-.23,0-.47,0-.7,0h-.52a1.19,1.19,0,0,0,.1.92h-.86c.21-.17.15-.38.15-.58V9.43A2.33,2.33,0,0,0,10.52,9.07Zm.67.93h1a.23.23,0,0,0,.24-.24.21.21,0,0,0-.21-.24c-.34,0-.68,0-1,0Z"/><path d="M8.22,9.05h1c-.23.18-.12.33,0,.49.26.47.51,1,.77,1.41a4,4,0,0,0,.29.43H9.39a1.29,1.29,0,0,0,0-.34A.29.29,0,0,0,9,10.81a3.64,3.64,0,0,1-.66,0c-.2,0-.28.08-.32.24a2,2,0,0,0,0,.34H7.29c.1-.15.2-.29.28-.44.25-.49.49-1,.74-1.46C8.39,9.33,8.43,9.2,8.22,9.05Zm.48.68-.36.73h.74Z"/><path d="M23.05,16.6h-.94c.12-.12.17-.22.07-.38a.32.32,0,0,0-.34-.2,4.85,4.85,0,0,1-.66,0,.26.26,0,0,0-.33.23,1.4,1.4,0,0,0,0,.35h-.75c.39-.64.7-1.33,1-2,0-.08,0-.21,0-.33H22c-.23.23,0,.42.06.61.22.42.45.83.68,1.24C22.82,16.28,22.94,16.43,23.05,16.6ZM21.5,14.94l-.37.74h.75Z"/><path d="M24.13,15.1l.3-.42c.1-.13.22-.26,0-.42h1.09a6.15,6.15,0,0,0-.95,1.11.6.6,0,0,0-.15.45c0,.11,0,.22,0,.33s.05.3.08.45h-.78c.23-.31.09-.66.12-1a.18.18,0,0,0,0-.09c-.26-.35-.52-.7-.79-1a1.18,1.18,0,0,0-.26-.21h1.12c-.24.16-.11.29,0,.42Z"/><path d="M15.89,9H17c-.26.22-.06.36.05.52l.25.33.33-.46c.13-.18.13-.18,0-.37h1a5.59,5.59,0,0,0-.94,1.13.9.9,0,0,0-.13.4,1.48,1.48,0,0,0,0,.42,2.74,2.74,0,0,0,.08.37h-.74a1.36,1.36,0,0,0-.14-1.32c-.15-.17-.27-.36-.41-.53S16.05,9.22,15.89,9Z"/><path d="M13.75,14.17v.61c-.28-.21-.59-.07-.91-.12v.88c0,.22,0,.45,0,.68a2.74,2.74,0,0,0,.08.37h-.73a2.17,2.17,0,0,0,.08-.43c0-.49,0-1,0-1.49-.31,0-.61-.09-.9.1v-.59a1.51,1.51,0,0,0,.37.06h1.71A1.28,1.28,0,0,0,13.75,14.17Z"/><path d="M12.79,7.24a10.19,10.19,0,0,1-.43-1,.4.4,0,0,1,.4-.53c.18,0,.25.08.37.34l.13-.1a.38.38,0,0,1,.56.42,1.76,1.76,0,0,1-.4.5A5.27,5.27,0,0,1,12.79,7.24Z"/><path d="M25.9,16a1.36,1.36,0,0,1,.41-.1.37.37,0,0,1,.28.54,1.56,1.56,0,0,1-.41.44,5.23,5.23,0,0,1-.6.38c-.15-.34-.31-.67-.43-1a.39.39,0,0,1,.25-.51C25.64,15.6,25.8,15.7,25.9,16Z"/><path d="M8.15,18.28c.25-.2.43-.2.59,0a.41.41,0,0,1,0,.61,5,5,0,0,1-.51.4l-.38.24c-.14-.29-.3-.57-.42-.87a.51.51,0,0,1,0-.54C7.67,17.82,8,17.9,8.15,18.28Z"/><path d="M4.64,20.77c.28-.21.44-.22.6,0a.42.42,0,0,1,0,.62,10.41,10.41,0,0,1-.87.66c-.16-.35-.32-.65-.44-1a.43.43,0,0,1,.33-.61C4.45,20.4,4.56,20.55,4.64,20.77Z"/><path d="M10.7,4.78a6.84,6.84,0,0,1-.93-.34.64.64,0,0,1-.32-.38.36.36,0,0,1,.5-.41l.12.05c0-.22.06-.42.29-.43a.5.5,0,0,1,.4.14,1.08,1.08,0,0,1,.1.56A6.1,6.1,0,0,1,10.7,4.78Z"/><path d="M26.08,19.18c0-.2.05-.37.25-.43a.38.38,0,0,1,.52.31,2.41,2.41,0,0,1,0,.6c0,.2-.09.39-.14.6-.3-.1-.61-.19-.9-.32a.63.63,0,0,1-.32-.34.39.39,0,0,1,.08-.37c.07-.08.23-.09.36-.11A.82.82,0,0,1,26.08,19.18Z"/><path d="M21.78,20.26a1.51,1.51,0,0,1,.43-.11.38.38,0,0,1,.24.58,1.72,1.72,0,0,1-.42.43,5.46,5.46,0,0,1-.56.36,10.11,10.11,0,0,1-.43-1,.42.42,0,0,1,.35-.6C21.59,20,21.68,20,21.78,20.26Z"/><path d="M21.7,3.54c.33-.22.57-.18.69.12a.4.4,0,0,1-.12.44,5.29,5.29,0,0,1-.59.47c-.09.07-.19.12-.3.19-.15-.29-.3-.56-.42-.85A.5.5,0,0,1,21,3.33C21.25,3.1,21.51,3.19,21.7,3.54Z"/><path d="M11.87,21.09c.06-.4.33-.57.59-.38a.53.53,0,0,1,.2.38c0,.36-.08.71-.13,1.11-.36-.14-.69-.24-1-.38a.44.44,0,0,1-.29-.47C11.28,21.06,11.52,21,11.87,21.09Z"/><path d="M8,16.6h-.8c.21-.17.14-.39.14-.6,0-.46,0-.92,0-1.37a1.68,1.68,0,0,0-.08-.36H8c0,.17-.06.35-.07.53,0,.46,0,.91,0,1.37A2.31,2.31,0,0,0,8,16.6Z"/><path d="M32.24,16.24a.43.43,0,0,1-.44.46.47.47,0,0,1-.41-.49.47.47,0,0,1,.44-.48A.45.45,0,0,1,32.24,16.24Z"/><path d="M32.16,7.36a.45.45,0,0,1-.34.46c-.15,0-.19-.11-.19-.23A.41.41,0,0,1,32,7.16.19.19,0,0,1,32.16,7.36Z"/><path d="M32.79,12.36a.5.5,0,0,1,.45-.51c.2,0,.33.17.32.42a.49.49,0,0,1-.47.49C32.9,12.75,32.78,12.6,32.79,12.36Z"/><path d="M28.73,12.16a2.72,2.72,0,0,0-1.23-.52v2l-.37,0c-.1-.87-.19-1.7-.28-2.54,0,0,0,0,0-.06-.26-.34-.06-.77-.2-1.14s-.24-.82-.35-1.24A.36.36,0,0,0,26,8.4a3.35,3.35,0,0,1-.54-.16,1.63,1.63,0,0,1-.4-.24A.37.37,0,0,1,25,7.49c.1-.17.25-.21.48-.13l.07,0c0-.1,0-.24.11-.29A.54.54,0,0,1,26,7a.52.52,0,0,1,.3.28.79.79,0,0,1,0,.43,1.16,1.16,0,0,0,.11.69c.18.54.32,1.09.48,1.64l0,.08a.27.27,0,0,0,.2-.29,23.47,23.47,0,0,0-.43-4.1.57.57,0,0,0-.2-.29,12,12,0,0,1-1-.67,2.59,2.59,0,0,1-.65-.79.82.82,0,0,1,.59-1.16.75.75,0,0,1,.69.22,1.64,1.64,0,0,1,.16.18,1.84,1.84,0,0,1,.07-.24.75.75,0,0,1,.81-.56.84.84,0,0,1,.78.78,2.09,2.09,0,0,1-.24,1.1c-.16.33-.34.64-.52,1a1,1,0,0,0-.14.74,21.38,21.38,0,0,1,.35,3.57.35.35,0,0,0,0,.17c0-.27.1-.54.17-.81.17-.7.37-1.39.55-2.08a.82.82,0,0,0,0-.41c-.08-.34-.22-.66-.29-1a.64.64,0,0,1,.41-.79A.53.53,0,0,1,29,5c0,.06,0,.11,0,.19l.11-.07a.56.56,0,0,1,.79.78,3.53,3.53,0,0,1-.58.51,1.06,1.06,0,0,1-.34.16.92.92,0,0,0-.73.79c-.15.75-.34,1.5-.52,2.24a.57.57,0,0,0,0,.13,14.92,14.92,0,0,0,2.49-.14,2.4,2.4,0,0,1-.71-1.08A1.56,1.56,0,0,1,30.81,6.4a.73.73,0,0,0,.42-.21,2.78,2.78,0,0,1,1.36-.73.32.32,0,0,0,.2-.16.64.64,0,0,1,.68-.4.73.73,0,0,1,.69.5.29.29,0,0,0,.16.15l1.16.38a1.17,1.17,0,0,1,.74,1c0,.39.17.76.22,1.14a2.89,2.89,0,0,1-.78,2.65,2.83,2.83,0,0,1-.61.41.31.31,0,0,0-.2.35,9.26,9.26,0,0,1-.17,2.63,7.42,7.42,0,0,1-.79,2.2.77.77,0,0,0-.09.36,17.27,17.27,0,0,1-.47,4.17,5.75,5.75,0,0,1-.35.86,1.55,1.55,0,0,1-1.15.87,2.86,2.86,0,0,1-2-.22,2.11,2.11,0,0,1-.91-1,.49.49,0,0,0-.21-.24.81.81,0,0,1-.31-1.29,2.23,2.23,0,0,1,.35-.4,2.42,2.42,0,0,0,.68-2.28c0-.17-.08-.33-.12-.49a2.24,2.24,0,0,0-.44-1,5,5,0,0,1-.29-.45,5.56,5.56,0,0,0-.42-.57.86.86,0,0,1,.1-1.4.85.85,0,0,0,.17-.25C28.53,12.71,28.63,12.42,28.73,12.16Zm2,5.9a1.58,1.58,0,0,1-.92,1.45,1.3,1.3,0,0,0-.54,1.93,1.81,1.81,0,0,0,1.6.9c1.29,0,1.71-.22,2-1.27a10.16,10.16,0,0,0,.42-1.91c.1-.74.13-1.49.17-2.23a2.22,2.22,0,0,0-.28-1.33,1.06,1.06,0,0,0-1-.52c-.41.08-.81.18-1.22.25a.66.66,0,0,0-.55.54,2.29,2.29,0,0,0,.07,1.27C30.62,17.44,30.68,17.75,30.75,18.06Zm.07-8.44a6.31,6.31,0,0,0,2,1.26,2.78,2.78,0,0,0,1.66.15A2.49,2.49,0,0,0,36.1,7.79a2.5,2.5,0,0,1-1,1,.45.45,0,0,1-.72-.28.8.8,0,0,1,.07-.75.29.29,0,0,0,0-.16c0-.26-.07-.52-.11-.79a.3.3,0,0,1-.32-.27A.63.63,0,0,1,34.56,6a2.8,2.8,0,0,0-3.25.56,5.38,5.38,0,0,1,.2.51,2,2,0,0,1-.3,2A5.09,5.09,0,0,0,30.82,9.62Zm-.34,5.5v0h.32l.34,0a4.51,4.51,0,0,0,2.64-1.21,1.7,1.7,0,0,0,.6-1.45,1.27,1.27,0,0,0-.26-.69A1.24,1.24,0,0,0,33,11.33a3,3,0,0,0-1.55.68,4.09,4.09,0,0,1-1.45.71,3,3,0,0,0-1.47.75.83.83,0,0,0-.24.45.84.84,0,0,0,.75,1A13.9,13.9,0,0,0,30.48,15.12Zm.06-5.62c.22-.32.4-.57.57-.84a1,1,0,0,0,.13-.23,1.92,1.92,0,0,0-.13-1.67A.25.25,0,0,0,31,6.65,1.3,1.3,0,0,0,30.1,7a.46.46,0,0,1-.09.7.41.41,0,0,0-.13.53l.22-.13.18.28-.43.31Zm.28,1.11c-.14-.07-.26-.18-.41,0a9.24,9.24,0,0,0-.73.66,4.58,4.58,0,0,0-.89,1.52.5.5,0,0,1,0,.12c.49-.17,1-.32,1.49-.51A5.49,5.49,0,0,0,31,12a.18.18,0,0,0,.09-.16c-.05-.26-.12-.52-.19-.82l-.27.36h0Zm-.48-.73L28.81,10l-.91,0c-.12,0-.23,0-.25.17s.06.2.18.25a1.57,1.57,0,0,1,1,1.5,1.92,1.92,0,0,0,.19-.17c.24-.3.47-.62.72-.91A2.42,2.42,0,0,0,30.34,9.88ZM28.78,20.79a1.66,1.66,0,0,1,1-1.57,1.21,1.21,0,0,0,.64-1.33c-.07-.36-.18-.71-.28-1.06a.16.16,0,0,0-.07-.09l-.53-.24.08.29a2.64,2.64,0,0,1,.05,1.45,2.84,2.84,0,0,1-.81,1.41,1.46,1.46,0,0,0-.35.49C28.38,20.42,28.47,20.63,28.78,20.79ZM34.34,6.54l.27,0c.39,0,.6.17.55.57a1.5,1.5,0,0,1-.42.83.54.54,0,0,0,0,.66.23.23,0,0,0,.21,0,1.78,1.78,0,0,0,1-1.36.91.91,0,0,0-1.08-1.09C34.65,6.18,34.41,6.23,34.34,6.54ZM33.73,16a6.33,6.33,0,0,0,.75-2.65,3.72,3.72,0,0,1-1.7,1.53C33.35,15.2,33.38,15.24,33.73,16Zm-4.86-.79a3.08,3.08,0,0,0,1.19,1.26l.26-1.09Zm3.41-4-1.05-.72a.35.35,0,0,0,0,.54A.69.69,0,0,0,32.28,11.19Zm1.59-5.75a.48.48,0,0,0-.51-.27c-.14,0-.25.07-.27.23Zm.37,5.92.37.53,0-.6Zm-2.92.38.26-.17-.34-.2Z"/><path d="M17.64,20.87c-.49-.33-1-.65-1.5-1a1.51,1.51,0,0,1-.65-.94.85.85,0,0,1,.44-.9.76.76,0,0,1,.91.16,1.16,1.16,0,0,1,.15.21c.09-.42.23-.71.59-.82a.86.86,0,0,1,1.08.84,2.22,2.22,0,0,1-.27,1.08C18.15,20,17.89,20.41,17.64,20.87Z"/><path d="M6.53,6.61,5.46,5.94a2.63,2.63,0,0,1-1-1,.81.81,0,0,1,.08-1,.76.76,0,0,1,1.16-.09c0,.05.09.12.17.22,0-.12,0-.16,0-.21a.77.77,0,0,1,.83-.62.85.85,0,0,1,.78.78,2.47,2.47,0,0,1-.33,1.3C7,5.8,6.75,6.21,6.53,6.61Z"/><path d="M16.82,4.64l0-.14a.78.78,0,0,1,.87-.61.84.84,0,0,1,.74.8,2.59,2.59,0,0,1-.38,1.38L17.45,7.2c-.5-.33-1-.66-1.52-1a2.09,2.09,0,0,1-.54-.64.84.84,0,0,1,.26-1.12.77.77,0,0,1,1.06.17s0,.06.06.09Z"/><path d="M4,16.8a2,2,0,0,0,.08-.38c0-.72,0-1.43,0-2.15A1.27,1.27,0,0,0,4,13.91H6a1.33,1.33,0,0,1,.4,0,.71.71,0,0,1,.22,1.25l-.06.05c.41.3.52.54.41.94a.77.77,0,0,1-.8.6C5.44,16.82,4.7,16.8,4,16.8Zm.72-.48c.46,0,.91,0,1.36,0,.21,0,.31-.18.3-.39s-.08-.37-.29-.38c-.45,0-.91,0-1.37,0Zm0-1.29H5.94c.23,0,.35-.12.35-.32s-.08-.33-.27-.33c-.43,0-.87,0-1.31,0Z"/><path d="M6.32,11.58a3.47,3.47,0,0,0,.06-.45c0-.27,0-.55,0-.83H4.69c.07.43-.11.87.14,1.29H4a2.31,2.31,0,0,0,.08-.43q0-1,0-2.07A1.46,1.46,0,0,0,4,8.7h.85c-.26.35-.07.73-.14,1.11h1.7c0-.36.1-.74-.11-1.1h.81A3.35,3.35,0,0,0,7,9.15v2a2,2,0,0,0,.08.38Z"/><path d="M8.73,14.45h.58c.44,0,.89,0,1.33,0a.57.57,0,0,1,.6.6.62.62,0,0,1-.51.68l-.17.05.77,1h-1c.2-.12.13-.23,0-.34l-.17-.24c-.28-.41-.28-.41-.84-.35,0,.3-.12.63.14.94H8.73a2.26,2.26,0,0,0,.07-.43c0-.49,0-1,0-1.46A2.71,2.71,0,0,0,8.73,14.45Zm.66,1h1a.25.25,0,0,0,.28-.26.23.23,0,0,0-.25-.27c-.34,0-.67,0-1,0Z"/><path d="M17.44,16.83a2.07,2.07,0,0,0,.09-.39q0-.77,0-1.53a2.71,2.71,0,0,0-.07-.46h.32c.47,0,.95,0,1.41,0a.91.91,0,0,1,.88.87,1.79,1.79,0,0,1,0,.61.88.88,0,0,1-.76.78C18.68,16.82,18.05,16.81,17.44,16.83Zm.68-.44a6.54,6.54,0,0,0,.77,0,.64.64,0,0,0,.63-.69c0-.46-.16-.75-.56-.8a5.87,5.87,0,0,0-.84,0Z"/><path d="M16.92,14.46a1.89,1.89,0,0,0-.09.36q0,.79,0,1.59a1.89,1.89,0,0,0,.09.38h-.78c.23-.32.06-.68.14-1H14.92c.05.36-.1.72.14,1.05h-.85c.2-.16.14-.37.14-.56,0-.47,0-.94,0-1.4a1.76,1.76,0,0,0-.08-.37h.79c-.25.25-.09.55-.14.85h1.31a1,1,0,0,0-.11-.86Z"/><path d="M21.47,10.39c-.15-.46-.32-.93-.44-1.4a.74.74,0,0,1,.15-.71.58.58,0,0,1,.58-.17.55.55,0,0,1,.4.59l.15-.09a.53.53,0,0,1,.68,0,.54.54,0,0,1,.11.72,2.32,2.32,0,0,1-.62.55A10.39,10.39,0,0,1,21.47,10.39Z"/><path d="M14.2,10.67c.07.32-.11.64.16.92h-.87c.22-.18.14-.41.14-.63,0-.44,0-.89,0-1.33a.67.67,0,0,0-.12-.35l0,0c.64,0,1.27,0,1.9,0A.62.62,0,0,1,16,10a.62.62,0,0,1-.6.67c-.34,0-.68,0-1,0Zm0-.47c.34,0,.66,0,1,0,.14,0,.26-.07.26-.25a.23.23,0,0,0-.26-.24c-.32,0-.64,0-1,0Z"/><path d="M10.72,9.27c.61,0,1.25,0,1.9,0a.61.61,0,0,1,.58.68.64.64,0,0,1-.58.67c-.22,0-.46,0-.69,0h-.52a1.15,1.15,0,0,0,.1.92h-.86c.21-.17.14-.38.15-.58,0-.46,0-.92,0-1.38A2.29,2.29,0,0,0,10.72,9.27Zm.66.93c.34,0,.67,0,1,0a.23.23,0,0,0,.24-.25.23.23,0,0,0-.21-.24c-.34,0-.69,0-1,0Z"/><path d="M8.42,9.25h1c-.23.17-.12.33,0,.49l.77,1.41a4,4,0,0,0,.29.43H9.59a1.37,1.37,0,0,0,0-.35A.29.29,0,0,0,9.23,11a2.91,2.91,0,0,1-.66,0,.27.27,0,0,0-.32.25,1.24,1.24,0,0,0,0,.33H7.49a3.87,3.87,0,0,0,.27-.43c.26-.49.5-1,.75-1.47A.28.28,0,0,0,8.42,9.25Zm.48.68-.36.73h.74Z"/><path d="M23.24,16.8H22.3c.13-.12.18-.23.08-.38a.31.31,0,0,0-.34-.2,4.85,4.85,0,0,1-.66,0,.26.26,0,0,0-.33.23,1.4,1.4,0,0,0,0,.35h-.75c.38-.64.7-1.33,1-2,0-.08,0-.21,0-.33h.87c-.23.23,0,.42.06.61l.68,1.24C23,16.48,23.14,16.63,23.24,16.8ZM21.7,15.14l-.37.73h.75Z"/><path d="M24.33,15.3l.3-.42c.1-.13.21-.26,0-.42h1.09a5.77,5.77,0,0,0-.95,1.11.56.56,0,0,0-.15.44c0,.12,0,.23,0,.34s.05.29.07.45h-.77c.23-.31.08-.66.12-1a.18.18,0,0,0,0-.09l-.79-1.05a1.58,1.58,0,0,0-.26-.2H24c-.25.16-.11.29,0,.42Z"/><path d="M16.09,9.24h1.08c-.26.22-.06.36,0,.51s.16.22.25.34l.33-.46c.13-.19.12-.19,0-.37h1a4.84,4.84,0,0,0-.94,1.13.9.9,0,0,0-.13.4,1.48,1.48,0,0,0,0,.42,2.74,2.74,0,0,0,.08.37h-.74a1.39,1.39,0,0,0-.14-1.32c-.15-.17-.27-.36-.41-.54S16.25,9.41,16.09,9.24Z"/><path d="M14,14.37V15c-.28-.2-.59-.06-.91-.11v.88c0,.22,0,.45,0,.67a3.25,3.25,0,0,0,.08.38h-.73a2.14,2.14,0,0,0,.08-.44c0-.48,0-1,0-1.48-.31,0-.61-.09-.91.1v-.59a2.58,2.58,0,0,0,.37.06h1.72A1.41,1.41,0,0,0,14,14.37Z"/><path d="M13,7.44c-.15-.35-.32-.68-.43-1a.39.39,0,0,1,.4-.53c.17,0,.25.08.37.34l.13-.1a.32.32,0,0,1,.41,0c.13.1.23.25.15.4a1.92,1.92,0,0,1-.4.5A5.27,5.27,0,0,1,13,7.44Z"/><path d="M26.1,16.16a1.36,1.36,0,0,1,.41-.1.37.37,0,0,1,.28.54,1.71,1.71,0,0,1-.41.44,5.23,5.23,0,0,1-.6.38c-.15-.34-.31-.68-.43-1a.41.41,0,0,1,.25-.52C25.83,15.8,26,15.9,26.1,16.16Z"/><path d="M8.35,18.47c.25-.19.43-.2.59,0a.42.42,0,0,1,0,.61,5,5,0,0,1-.51.4L8,19.69c-.14-.29-.3-.57-.42-.87a.5.5,0,0,1,.05-.54C7.87,18,8.15,18.1,8.35,18.47Z"/><path d="M4.83,21c.28-.21.45-.22.61,0a.42.42,0,0,1-.05.62c-.26.23-.56.42-.87.65a10,10,0,0,1-.44-1,.43.43,0,0,1,.33-.61C4.65,20.6,4.76,20.75,4.83,21Z"/><path d="M10.9,5A6.84,6.84,0,0,1,10,4.64a.67.67,0,0,1-.32-.38.36.36,0,0,1,.5-.41l.12,0c0-.22.06-.42.29-.44a.52.52,0,0,1,.4.15,1.08,1.08,0,0,1,.1.56A6.43,6.43,0,0,1,10.9,5Z"/><path d="M26.28,19.38c0-.2,0-.37.24-.44a.4.4,0,0,1,.53.32,2,2,0,0,1,0,.6,4.62,4.62,0,0,1-.13.6c-.3-.1-.62-.19-.91-.32a.71.71,0,0,1-.32-.34.45.45,0,0,1,.09-.38.73.73,0,0,1,.36-.1S26.22,19.35,26.28,19.38Z"/><path d="M22,20.46a1.19,1.19,0,0,1,.42-.11.38.38,0,0,1,.25.58,2.14,2.14,0,0,1-.42.43,6,6,0,0,1-.56.35,10,10,0,0,1-.43-.95.42.42,0,0,1,.34-.6C21.79,20.15,21.88,20.22,22,20.46Z"/><path d="M21.9,3.74c.32-.22.57-.18.68.12a.38.38,0,0,1-.11.44,6.75,6.75,0,0,1-.59.47,2.81,2.81,0,0,1-.31.19c-.14-.29-.29-.57-.41-.86a.49.49,0,0,1,.07-.57C21.45,3.3,21.71,3.38,21.9,3.74Z"/><path d="M12.07,21.29c.06-.4.33-.58.59-.39a.59.59,0,0,1,.2.39c0,.35-.08.71-.13,1.11-.37-.14-.69-.24-1-.38a.43.43,0,0,1-.29-.47C11.48,21.26,11.71,21.16,12.07,21.29Z"/><path d="M8.19,16.8h-.8c.21-.17.14-.4.14-.6q0-.69,0-1.38a1.73,1.73,0,0,0-.08-.35h.73a3,3,0,0,0-.07.53c0,.45,0,.91,0,1.37A2.31,2.31,0,0,0,8.19,16.8Z"/><path d="M32.44,16.44a.43.43,0,0,1-.44.46.47.47,0,0,1-.41-.5.46.46,0,0,1,.44-.47A.45.45,0,0,1,32.44,16.44Z"/><path d="M32.35,7.56A.41.41,0,0,1,32,8c-.15,0-.19-.1-.2-.22a.43.43,0,0,1,.33-.43A.18.18,0,0,1,32.35,7.56Z"/><path d="M33,12.56a.5.5,0,0,1,.46-.51c.2,0,.33.17.32.41a.5.5,0,0,1-.47.5C33.09,13,33,12.8,33,12.56Z"/></g><g class="cls-3"><path d="M28.39,11.82a2.72,2.72,0,0,0-1.23-.52v2l-.37,0c-.1-.87-.19-1.7-.28-2.54,0,0,0,0,0-.06-.26-.34-.06-.77-.2-1.14s-.24-.82-.35-1.24a.36.36,0,0,0-.3-.28,3.35,3.35,0,0,1-.54-.16,1.63,1.63,0,0,1-.4-.24.37.37,0,0,1-.07-.51c.1-.17.25-.21.48-.13l.07,0c0-.1,0-.24.11-.29a.54.54,0,0,1,.37-.13.52.52,0,0,1,.3.28.79.79,0,0,1,0,.43,1.16,1.16,0,0,0,.11.69c.18.54.32,1.09.48,1.64l0,.08a.27.27,0,0,0,.2-.29,23.47,23.47,0,0,0-.43-4.1.57.57,0,0,0-.2-.29,12,12,0,0,1-1-.67,2.59,2.59,0,0,1-.65-.79.82.82,0,0,1,.59-1.16.75.75,0,0,1,.69.22,1.64,1.64,0,0,1,.16.18A1.84,1.84,0,0,1,26,2.6.77.77,0,0,1,26.83,2a.86.86,0,0,1,.78.79,2.09,2.09,0,0,1-.24,1.1c-.16.33-.34.64-.52,1a1,1,0,0,0-.14.74,21.38,21.38,0,0,1,.35,3.57.35.35,0,0,0,0,.17c0-.27.1-.54.17-.81.17-.7.37-1.39.55-2.08a.82.82,0,0,0,0-.41c-.08-.34-.22-.66-.29-1a.64.64,0,0,1,.41-.79.53.53,0,0,1,.71.38c0,.06,0,.11,0,.19l.11-.07a.56.56,0,0,1,.79.78,3.53,3.53,0,0,1-.58.51,1.06,1.06,0,0,1-.34.16.92.92,0,0,0-.73.79c-.16.75-.34,1.5-.52,2.24a.57.57,0,0,0,0,.13,14.92,14.92,0,0,0,2.49-.14,2.4,2.4,0,0,1-.71-1.08,1.56,1.56,0,0,1,1.29-2.09.73.73,0,0,0,.42-.21,2.78,2.78,0,0,1,1.36-.73.32.32,0,0,0,.2-.16.64.64,0,0,1,.68-.4.73.73,0,0,1,.69.5.29.29,0,0,0,.16.15l1.16.38a1.17,1.17,0,0,1,.74,1c0,.38.16.76.22,1.14a2.89,2.89,0,0,1-.78,2.65,2.83,2.83,0,0,1-.61.41.31.31,0,0,0-.2.35,9.28,9.28,0,0,1-.17,2.63,7.42,7.42,0,0,1-.79,2.2.77.77,0,0,0-.09.36A17.27,17.27,0,0,1,33,20.47a5.75,5.75,0,0,1-.35.86,1.55,1.55,0,0,1-1.15.87,2.85,2.85,0,0,1-2-.22,2.11,2.11,0,0,1-.91-1,.49.49,0,0,0-.21-.24.81.81,0,0,1-.31-1.29,2.23,2.23,0,0,1,.35-.4,2.42,2.42,0,0,0,.68-2.28c0-.17-.08-.33-.12-.49a2.18,2.18,0,0,0-.44-1,5,5,0,0,1-.29-.45,5.56,5.56,0,0,0-.42-.57.86.86,0,0,1,.09-1.4.72.72,0,0,0,.18-.25C28.19,12.37,28.29,12.08,28.39,11.82Zm2,5.9a1.58,1.58,0,0,1-.92,1.45A1.3,1.3,0,0,0,29,21.1a1.81,1.81,0,0,0,1.6.9c1.29,0,1.71-.22,2.05-1.27A10.16,10.16,0,0,0,33,18.82c.1-.74.13-1.49.17-2.23a2.22,2.22,0,0,0-.28-1.33,1.06,1.06,0,0,0-1-.52c-.41.08-.81.18-1.22.25a.66.66,0,0,0-.55.54,2.29,2.29,0,0,0,.07,1.27C30.28,17.1,30.34,17.41,30.41,17.72Zm.07-8.44a6.31,6.31,0,0,0,2,1.26,2.78,2.78,0,0,0,1.66.15,2.49,2.49,0,0,0,1.63-3.24,2.5,2.5,0,0,1-1,1,.45.45,0,0,1-.72-.28.8.8,0,0,1,.07-.75.29.29,0,0,0,0-.16c0-.26-.07-.52-.11-.79a.3.3,0,0,1-.32-.27.63.63,0,0,1,.49-.62A2.8,2.8,0,0,0,31,6.17a5.38,5.38,0,0,1,.2.51,2,2,0,0,1-.3,2A5.09,5.09,0,0,0,30.48,9.28Zm-.34,5.5v0h.32l.34,0a4.51,4.51,0,0,0,2.64-1.21A1.7,1.7,0,0,0,34,12a1.27,1.27,0,0,0-.26-.69A1.24,1.24,0,0,0,32.66,11a3,3,0,0,0-1.55.68,4.09,4.09,0,0,1-1.45.71,3,3,0,0,0-1.47.75.83.83,0,0,0-.24.45.84.84,0,0,0,.75,1C29.17,14.67,29.66,14.71,30.14,14.78Zm.06-5.62.57-.84a1,1,0,0,0,.13-.23,1.92,1.92,0,0,0-.13-1.67.25.25,0,0,0-.16-.11,1.3,1.3,0,0,0-.85.39.46.46,0,0,1-.09.7.41.41,0,0,0-.13.53l.22-.13.18.28-.43.31Zm.28,1.11c-.14-.07-.26-.18-.41,0a9.24,9.24,0,0,0-.73.66,4.58,4.58,0,0,0-.89,1.52c0,.05,0,.11,0,.12.49-.17,1-.32,1.49-.51a5.49,5.49,0,0,0,.73-.36.18.18,0,0,0,.09-.16c-.05-.26-.12-.52-.19-.82l-.27.36h0ZM30,9.54l-1.53.08-.91,0c-.12,0-.23,0-.25.17s.06.2.18.25a1.57,1.57,0,0,1,1,1.5,1.92,1.92,0,0,0,.19-.17c.24-.3.47-.62.72-.91A2.42,2.42,0,0,0,30,9.54ZM28.44,20.45a1.66,1.66,0,0,1,1-1.57,1.21,1.21,0,0,0,.64-1.33c-.07-.36-.18-.71-.28-1.06a.16.16,0,0,0-.07-.09l-.53-.24.08.29a2.64,2.64,0,0,1,.05,1.45,2.84,2.84,0,0,1-.81,1.41,1.46,1.46,0,0,0-.35.49C28,20.08,28.13,20.29,28.44,20.45ZM34,6.2l.27,0c.39,0,.6.17.55.57a1.5,1.5,0,0,1-.42.83.54.54,0,0,0,0,.66.23.23,0,0,0,.21,0,1.78,1.78,0,0,0,1-1.36.91.91,0,0,0-1.08-1.09C34.31,5.84,34.07,5.89,34,6.2Zm-.61,9.44A6.33,6.33,0,0,0,34.14,13a3.72,3.72,0,0,1-1.7,1.53C33,14.86,33,14.9,33.39,15.64Zm-4.86-.79a3.14,3.14,0,0,0,1.19,1.26L30,15Zm3.41-4-1.05-.72a.35.35,0,0,0,0,.54A.69.69,0,0,0,31.94,10.85ZM33.53,5.1A.48.48,0,0,0,33,4.83c-.14,0-.25.07-.27.23ZM33.9,11l.37.53,0-.6ZM31,11.4l.26-.17L30.9,11Z"/><path d="M17.3,20.53c-.49-.33-1-.65-1.5-1a1.51,1.51,0,0,1-.65-.94.85.85,0,0,1,.44-.9.76.76,0,0,1,.91.16,1.16,1.16,0,0,1,.15.21c.09-.42.23-.71.59-.82a.86.86,0,0,1,1.08.84,2.25,2.25,0,0,1-.27,1.08C17.81,19.62,17.55,20.07,17.3,20.53Z"/><path d="M6.19,6.27,5.12,5.6a2.63,2.63,0,0,1-1-1,.81.81,0,0,1,.08-1,.76.76,0,0,1,1.16-.09s.09.12.17.22a.91.91,0,0,1,0-.21A.77.77,0,0,1,6.42,3a.85.85,0,0,1,.78.78,2.47,2.47,0,0,1-.33,1.3C6.65,5.46,6.41,5.87,6.19,6.27Z"/><path d="M16.48,4.3l0-.14a.78.78,0,0,1,.87-.61.84.84,0,0,1,.74.8,2.59,2.59,0,0,1-.38,1.38l-.63,1.13c-.5-.33-1-.66-1.52-1a2.09,2.09,0,0,1-.54-.64.84.84,0,0,1,.26-1.12.77.77,0,0,1,1.06.17s0,.06.06.09Z"/><path d="M3.65,16.46a2,2,0,0,0,.08-.38c0-.72,0-1.44,0-2.15a1.27,1.27,0,0,0-.09-.36h2a1.33,1.33,0,0,1,.4,0,.63.63,0,0,1,.49.55.64.64,0,0,1-.27.7l-.06.05c.41.3.52.54.41.94a.77.77,0,0,1-.8.6C5.1,16.48,4.36,16.46,3.65,16.46ZM4.37,16c.46,0,.91,0,1.36,0,.21,0,.31-.18.3-.39s-.08-.37-.29-.38c-.45,0-.91,0-1.37,0Zm0-1.29H5.6c.23,0,.35-.12.35-.32S5.87,14,5.68,14c-.43,0-.87,0-1.31,0Z"/><path d="M6,11.24A2.34,2.34,0,0,0,6,10.79c0-.27,0-.55,0-.83H4.35c.07.43-.11.87.14,1.29H3.65a2.31,2.31,0,0,0,.08-.43q0-1,0-2.07a1.46,1.46,0,0,0-.09-.39h.85c-.26.35-.07.73-.14,1.11h1.7c0-.36.1-.74-.11-1.1h.81a3.35,3.35,0,0,0-.07.44v2a2,2,0,0,0,.08.38Z"/><path d="M8.39,14.1H9c.44,0,.89,0,1.33,0a.57.57,0,0,1,.6.6.62.62,0,0,1-.51.68l-.17.05.77,1H10c.2-.12.13-.23,0-.34l-.17-.24c-.28-.41-.28-.41-.84-.35.05.3-.12.63.14.94H8.39A2.26,2.26,0,0,0,8.46,16c0-.49,0-1,0-1.46A3,3,0,0,0,8.39,14.1Zm.66,1h1a.25.25,0,0,0,.28-.26.23.23,0,0,0-.25-.27c-.34,0-.67,0-1,0Z"/><path d="M17.1,16.49a2.07,2.07,0,0,0,.09-.39q0-.77,0-1.53a3,3,0,0,0-.07-.47h.32c.47,0,.95,0,1.41,0a.91.91,0,0,1,.88.87,1.79,1.79,0,0,1,0,.61.88.88,0,0,1-.76.78C18.34,16.48,17.71,16.47,17.1,16.49Zm.68-.44a6.54,6.54,0,0,0,.77,0,.64.64,0,0,0,.63-.69c0-.46-.16-.75-.56-.8a5.87,5.87,0,0,0-.84,0Z"/><path d="M16.58,14.12a1.89,1.89,0,0,0-.09.36q0,.79,0,1.59a1.89,1.89,0,0,0,.09.38H15.8c.23-.32.06-.68.14-1H14.58c.05.36-.11.72.14,1.05h-.85c.2-.16.14-.37.14-.56,0-.47,0-.94,0-1.4a1.76,1.76,0,0,0-.08-.37h.79c-.25.25-.09.55-.14.85h1.31a1,1,0,0,0-.11-.86Z"/><path d="M21.13,10.05c-.15-.46-.32-.93-.44-1.4a.74.74,0,0,1,.15-.71.58.58,0,0,1,.58-.17.55.55,0,0,1,.4.59L22,8.27a.53.53,0,0,1,.68,0,.54.54,0,0,1,.11.72,2.21,2.21,0,0,1-.63.55A9.22,9.22,0,0,1,21.13,10.05Z"/><path d="M13.86,10.33c.07.32-.11.64.16.92h-.87c.22-.18.14-.41.14-.63,0-.44,0-.89,0-1.33a.67.67,0,0,0-.12-.35l0,0c.64,0,1.27,0,1.9,0a.62.62,0,0,1,.61.68.62.62,0,0,1-.6.67c-.34,0-.68,0-1,0Zm0-.47h1c.14,0,.26-.07.26-.25a.23.23,0,0,0-.26-.24c-.32,0-.64,0-1,0Z"/><path d="M10.38,8.93c.61,0,1.25,0,1.9,0a.61.61,0,0,1,.58.68.64.64,0,0,1-.58.67c-.22,0-.46,0-.69,0h-.52a1.15,1.15,0,0,0,.1.92h-.86c.21-.17.14-.38.15-.59,0-.45,0-.91,0-1.37A2.29,2.29,0,0,0,10.38,8.93Zm.66.93h1a.23.23,0,0,0,.24-.25.23.23,0,0,0-.21-.24H11Z"/><path d="M8.08,8.91h1c-.23.17-.12.33,0,.49l.77,1.41a4,4,0,0,0,.29.43H9.25a1.37,1.37,0,0,0,0-.35.29.29,0,0,0-.36-.22,2.91,2.91,0,0,1-.66,0,.27.27,0,0,0-.32.25,1.24,1.24,0,0,0,0,.33H7.15a3.87,3.87,0,0,0,.27-.43c.26-.49.5-1,.75-1.47A.28.28,0,0,0,8.08,8.91Zm.48.68-.36.73h.74Z"/><path d="M22.9,16.46H22c.13-.12.18-.23.08-.38a.31.31,0,0,0-.34-.2,4.85,4.85,0,0,1-.66,0,.26.26,0,0,0-.33.23,1.4,1.4,0,0,0,0,.35H20c.38-.64.7-1.33,1-2,0-.08,0-.21,0-.33h.87c-.23.23,0,.42.06.61.22.41.44.83.68,1.24C22.68,16.14,22.8,16.29,22.9,16.46ZM21.36,14.8l-.37.73h.75Z"/><path d="M24,15l.3-.42c.1-.13.21-.26,0-.42h1.09a5.77,5.77,0,0,0-.95,1.11.56.56,0,0,0-.15.44c0,.12,0,.23,0,.34s.05.29.07.45h-.78c.24-.31.09-.66.13-1a.15.15,0,0,0,0-.09l-.79-1.05a1.58,1.58,0,0,0-.26-.2H23.7c-.25.16-.11.29,0,.42Z"/><path d="M15.75,8.9h1.08c-.26.22-.06.36.05.51s.16.22.25.34l.33-.46c.13-.19.12-.19,0-.37h1a4.84,4.84,0,0,0-.94,1.13.86.86,0,0,0-.13.4,1.48,1.48,0,0,0,0,.42,2.74,2.74,0,0,0,.08.37h-.74a1.39,1.39,0,0,0-.14-1.32c-.15-.17-.27-.36-.41-.54S15.91,9.07,15.75,8.9Z"/><path d="M13.61,14v.6c-.28-.2-.59-.06-.91-.11v.88c0,.22,0,.45,0,.67a3.25,3.25,0,0,0,.08.38h-.73a2.14,2.14,0,0,0,.08-.44c0-.48,0-1,0-1.48-.31,0-.61-.09-.91.09V14a2.58,2.58,0,0,0,.37.06h1.72A1.41,1.41,0,0,0,13.61,14Z"/><path d="M12.65,7.1c-.15-.35-.32-.68-.43-1a.39.39,0,0,1,.4-.53c.17,0,.25.08.37.34l.13-.1a.32.32,0,0,1,.41,0c.13.1.23.25.15.4a1.92,1.92,0,0,1-.4.5A5.27,5.27,0,0,1,12.65,7.1Z"/><path d="M25.76,15.82a1.36,1.36,0,0,1,.41-.1.37.37,0,0,1,.28.54,1.71,1.71,0,0,1-.41.44,5.23,5.23,0,0,1-.6.38c-.15-.34-.31-.68-.43-1a.41.41,0,0,1,.25-.52C25.49,15.46,25.66,15.56,25.76,15.82Z"/><path d="M8,18.13c.25-.19.43-.2.59,0a.42.42,0,0,1,0,.61,5,5,0,0,1-.51.4l-.38.24c-.14-.29-.3-.58-.42-.87a.5.5,0,0,1,0-.54C7.53,17.68,7.81,17.76,8,18.13Z"/><path d="M4.49,20.63c.28-.21.45-.22.61,0a.42.42,0,0,1,0,.62c-.26.23-.56.42-.87.65a10,10,0,0,1-.44-1,.43.43,0,0,1,.33-.61C4.31,20.26,4.42,20.41,4.49,20.63Z"/><path d="M10.56,4.64a6.84,6.84,0,0,1-.93-.34.67.67,0,0,1-.32-.38.36.36,0,0,1,.5-.41l.12.05c0-.22.06-.42.29-.44a.52.52,0,0,1,.4.15,1.08,1.08,0,0,1,.1.56A6.43,6.43,0,0,1,10.56,4.64Z"/><path d="M25.94,19c0-.2,0-.37.24-.44a.4.4,0,0,1,.53.32,2,2,0,0,1,0,.6,4.62,4.62,0,0,1-.13.6c-.3-.11-.62-.19-.91-.32a.71.71,0,0,1-.32-.34.45.45,0,0,1,.09-.38.72.72,0,0,1,.35-.1C25.82,19,25.88,19,25.94,19Z"/><path d="M21.64,20.12a1.19,1.19,0,0,1,.42-.11.38.38,0,0,1,.25.58,2.14,2.14,0,0,1-.42.43,6,6,0,0,1-.56.35,10,10,0,0,1-.43-.95.42.42,0,0,1,.34-.6C21.45,19.81,21.54,19.88,21.64,20.12Z"/><path d="M21.56,3.4c.32-.22.57-.18.68.12a.38.38,0,0,1-.11.44,6.75,6.75,0,0,1-.59.47l-.31.19c-.14-.29-.29-.57-.41-.86a.49.49,0,0,1,.07-.57C21.11,3,21.37,3,21.56,3.4Z"/><path d="M11.73,21c.06-.4.33-.58.59-.39a.59.59,0,0,1,.2.39c0,.35-.08.71-.13,1.1-.37-.13-.69-.23-1-.37a.43.43,0,0,1-.29-.47C11.14,20.91,11.37,20.82,11.73,21Z"/><path d="M7.85,16.46h-.8c.21-.17.14-.4.14-.6q0-.69,0-1.38a1.73,1.73,0,0,0-.08-.35h.73a3,3,0,0,0-.07.53c0,.45,0,.91,0,1.37A2.31,2.31,0,0,0,7.85,16.46Z"/><path d="M32.1,16.1a.44.44,0,0,1-.44.46.47.47,0,0,1-.41-.5.46.46,0,0,1,.44-.47A.45.45,0,0,1,32.1,16.1Z"/><path d="M32,7.22a.41.41,0,0,1-.33.45c-.15,0-.19-.1-.2-.22A.43.43,0,0,1,31.81,7,.18.18,0,0,1,32,7.22Z"/><path d="M32.64,12.22a.5.5,0,0,1,.46-.51c.2,0,.33.17.32.41a.5.5,0,0,1-.47.5C32.75,12.61,32.64,12.46,32.64,12.22Z"/></g><path class="cls-4" d="M28.59,12a2.85,2.85,0,0,0-1.23-.53v2l-.38,0c-.09-.87-.18-1.71-.27-2.54,0,0,0-.05,0-.06-.26-.34-.06-.77-.2-1.14a12.6,12.6,0,0,1-.35-1.24.36.36,0,0,0-.3-.28,5.7,5.7,0,0,1-.55-.16,1.58,1.58,0,0,1-.39-.24.37.37,0,0,1-.08-.51.36.36,0,0,1,.49-.13l.07,0c0-.11,0-.24.11-.29a.5.5,0,0,1,.37-.13.58.58,0,0,1,.3.28.78.78,0,0,1,0,.43,1.27,1.27,0,0,0,.12.69c.18.53.32,1.09.48,1.63l0,.09a.28.28,0,0,0,.2-.29,23.47,23.47,0,0,0-.43-4.1.53.53,0,0,0-.2-.29,12.13,12.13,0,0,1-1-.67,3.08,3.08,0,0,1-.65-.79.84.84,0,0,1,.59-1.17.79.79,0,0,1,.7.23,1.64,1.64,0,0,1,.16.18c0-.11,0-.17.06-.24A.79.79,0,0,1,27,2.23a.86.86,0,0,1,.78.79,2.19,2.19,0,0,1-.24,1.1c-.16.32-.34.64-.53,1a1,1,0,0,0-.13.74,21.38,21.38,0,0,1,.35,3.57.27.27,0,0,0,0,.17c.05-.27.1-.55.16-.82.18-.69.38-1.38.55-2.08a.68.68,0,0,0,0-.4c-.09-.34-.23-.66-.29-1a.63.63,0,0,1,.41-.78.53.53,0,0,1,.71.38c0,.06,0,.11,0,.19L29,5a.57.57,0,0,1,.72,0,.55.55,0,0,1,.08.75,3.53,3.53,0,0,1-.58.51,1.06,1.06,0,0,1-.34.16.91.91,0,0,0-.73.79C28,8,27.77,8.7,27.6,9.44a.56.56,0,0,0,0,.13,14.92,14.92,0,0,0,2.49-.14,2.4,2.4,0,0,1-.71-1.08,1.56,1.56,0,0,1,1.28-2.09.73.73,0,0,0,.42-.21,2.87,2.87,0,0,1,1.36-.73.34.34,0,0,0,.21-.16.64.64,0,0,1,.68-.4.72.72,0,0,1,.69.5.3.3,0,0,0,.16.15l1.16.38a1.16,1.16,0,0,1,.74,1c0,.38.16.76.22,1.14a2.86,2.86,0,0,1-.78,2.64,2.55,2.55,0,0,1-.61.42.3.3,0,0,0-.2.35,9.66,9.66,0,0,1-.17,2.63,7.53,7.53,0,0,1-.79,2.2.74.74,0,0,0-.09.36,16.66,16.66,0,0,1-.48,4.16,5.41,5.41,0,0,1-.34.87,1.51,1.51,0,0,1-1.15.86,2.85,2.85,0,0,1-2-.21,2,2,0,0,1-.91-1,.58.58,0,0,0-.21-.23.81.81,0,0,1-.31-1.29,2.66,2.66,0,0,1,.34-.4A2.4,2.4,0,0,0,29.28,17c0-.17-.08-.33-.12-.5a2.2,2.2,0,0,0-.44-.94,4.3,4.3,0,0,1-.29-.45c-.13-.19-.27-.39-.42-.57a.87.87,0,0,1,.09-1.41.61.61,0,0,0,.18-.24C28.39,12.57,28.49,12.28,28.59,12Zm2,5.89a1.62,1.62,0,0,1-.92,1.46,1.3,1.3,0,0,0-.54,1.93,1.81,1.81,0,0,0,1.6.9c1.29,0,1.7-.22,2-1.27A11.43,11.43,0,0,0,33.22,19c.1-.74.13-1.49.17-2.23a2.2,2.2,0,0,0-.28-1.33,1.09,1.09,0,0,0-1-.53l-1.22.26a.66.66,0,0,0-.55.54A2.29,2.29,0,0,0,30.38,17C30.48,17.3,30.53,17.61,30.61,17.91Zm.06-8.43a6.42,6.42,0,0,0,2,1.26,2.78,2.78,0,0,0,1.66.15A2.49,2.49,0,0,0,36,7.65a2.52,2.52,0,0,1-1,1,.44.44,0,0,1-.72-.27.83.83,0,0,1,.06-.75.24.24,0,0,0,0-.16c0-.26-.07-.53-.11-.79a.3.3,0,0,1-.32-.28.63.63,0,0,1,.49-.62,2.83,2.83,0,0,0-3.26.57,3.66,3.66,0,0,1,.21.51,2,2,0,0,1-.31,2C30.91,9,30.81,9.26,30.67,9.48ZM30.33,15v-.05h.32l.34,0a4.6,4.6,0,0,0,2.64-1.21,1.7,1.7,0,0,0,.6-1.45,1.24,1.24,0,0,0-.26-.69,1.25,1.25,0,0,0-1.12-.36,3,3,0,0,0-1.55.68,4.09,4.09,0,0,1-1.45.71,3,3,0,0,0-1.47.75.77.77,0,0,0-.24.44.84.84,0,0,0,.75,1C29.37,14.87,29.86,14.91,30.33,15Zm.07-5.62c.21-.32.39-.58.57-.84a.92.92,0,0,0,.13-.24A1.94,1.94,0,0,0,31,6.62a.25.25,0,0,0-.16-.11A1.34,1.34,0,0,0,30,6.9a.46.46,0,0,1-.08.7.4.4,0,0,0-.14.52L30,8l.18.28-.43.31Zm.28,1.11c-.14-.07-.27-.18-.41-.05a9.35,9.35,0,0,0-.73.67,4.48,4.48,0,0,0-.89,1.52.45.45,0,0,0,0,.11c.49-.16,1-.32,1.49-.5a5.49,5.49,0,0,0,.73-.36.18.18,0,0,0,.09-.16c-.05-.26-.12-.53-.19-.82l-.28.36h0Zm-.48-.73-1.53.08-.91,0c-.12,0-.23,0-.25.18s.06.2.18.25a1.57,1.57,0,0,1,.95,1.5,1.92,1.92,0,0,0,.19-.17c.24-.31.47-.62.72-.91A2.42,2.42,0,0,0,30.2,9.74ZM28.64,20.65a1.67,1.67,0,0,1,1-1.57,1.23,1.23,0,0,0,.65-1.34c-.07-.35-.18-.7-.28-1a.12.12,0,0,0-.08-.09l-.52-.25c0,.11.05.2.07.29a2.59,2.59,0,0,1,.06,1.46,2.84,2.84,0,0,1-.81,1.4,1.61,1.61,0,0,0-.35.5C28.24,20.28,28.33,20.48,28.64,20.65ZM34.19,6.4l.28,0c.39,0,.6.17.55.56a1.5,1.5,0,0,1-.42.84.53.53,0,0,0,0,.65.2.2,0,0,0,.21,0,1.79,1.79,0,0,0,1-1.36A.92.92,0,0,0,34.73,6,.54.54,0,0,0,34.19,6.4Zm-.6,9.44a6.33,6.33,0,0,0,.75-2.65,3.72,3.72,0,0,1-1.7,1.53C33.21,15.05,33.24,15.1,33.59,15.84Zm-4.86-.79a3.21,3.21,0,0,0,1.19,1.26l.26-1.09Zm3.41-4-1.05-.72a.35.35,0,0,0,0,.54A.69.69,0,0,0,32.14,11.05ZM33.73,5.3A.48.48,0,0,0,33.22,5a.25.25,0,0,0-.27.23Zm.37,5.91.37.54,0-.6Zm-2.92.39.26-.17-.34-.2Z"/><path class="cls-4" d="M17.5,20.73c-.5-.33-1-.65-1.5-1a1.46,1.46,0,0,1-.65-.93.84.84,0,0,1,.44-.9.77.77,0,0,1,.91.15,2,2,0,0,1,.15.22c.09-.42.23-.71.59-.82a.86.86,0,0,1,1.08.84,2.28,2.28,0,0,1-.27,1.08C18,19.82,17.75,20.27,17.5,20.73Z"/><path class="cls-4" d="M6.39,6.46,5.32,5.79a2.54,2.54,0,0,1-1-1,.83.83,0,0,1,.08-1,.75.75,0,0,1,1.15-.08A1.12,1.12,0,0,1,5.73,4l0-.21a.8.8,0,0,1,.84-.63A.85.85,0,0,1,7.39,4a2.32,2.32,0,0,1-.32,1.29C6.85,5.66,6.61,6.07,6.39,6.46Z"/><path class="cls-4" d="M16.68,4.5l0-.14a.77.77,0,0,1,.87-.61.84.84,0,0,1,.74.79,2.6,2.6,0,0,1-.38,1.39c-.21.37-.42.75-.64,1.12-.49-.32-1-.65-1.51-1a2.09,2.09,0,0,1-.54-.64.84.84,0,0,1,.26-1.12.77.77,0,0,1,1.06.17.7.7,0,0,1,.06.09Z"/><path class="cls-4" d="M3.84,16.66a1.48,1.48,0,0,0,.09-.38q0-1.08,0-2.16a1.29,1.29,0,0,0-.09-.35.22.22,0,0,1,.09,0H5.87a1.37,1.37,0,0,1,.4.05.63.63,0,0,1,.49.55.65.65,0,0,1-.27.7l-.06,0c.41.29.52.54.41.94a.77.77,0,0,1-.8.6C5.3,16.68,4.55,16.66,3.84,16.66Zm.73-.48c.46,0,.91,0,1.36,0,.21,0,.31-.18.3-.39s-.08-.37-.29-.38c-.46,0-.91,0-1.37,0Zm0-1.29H5.8c.23,0,.35-.12.35-.32a.28.28,0,0,0-.27-.34H4.57Z"/><path class="cls-4" d="M6.17,11.44A2.34,2.34,0,0,0,6.24,11c0-.27,0-.55,0-.83H4.55c.07.43-.11.87.13,1.28H3.85A2.07,2.07,0,0,0,3.93,11q0-1,0-2.07a2,2,0,0,0-.09-.39h.85c-.26.35-.07.73-.14,1.11h1.7c0-.36.1-.74-.11-1.11H7A3.5,3.5,0,0,0,6.88,9c0,.68,0,1.37,0,2.05a2,2,0,0,0,.08.38Z"/><path class="cls-4" d="M8.59,14.3h.58c.44,0,.89,0,1.33,0a.59.59,0,0,1,.6.61.61.61,0,0,1-.51.67l-.17.06.77,1h-1c.2-.12.13-.23,0-.34l-.17-.24c-.28-.41-.28-.41-.84-.36,0,.31-.12.64.14.95H8.59a3.49,3.49,0,0,0,.07-.43c0-.49,0-1,0-1.46A2.82,2.82,0,0,0,8.59,14.3Zm.66,1h1a.26.26,0,0,0,.28-.26.24.24,0,0,0-.25-.28h-1Z"/><path class="cls-4" d="M17.3,16.69a2,2,0,0,0,.09-.4c0-.5,0-1,0-1.52,0-.15-.05-.29-.07-.47h.32c.47,0,.95,0,1.41,0a.94.94,0,0,1,.88.88,2.49,2.49,0,0,1,0,.61.88.88,0,0,1-.76.78C18.54,16.68,17.9,16.67,17.3,16.69Zm.68-.44c.27,0,.52,0,.77,0a.65.65,0,0,0,.63-.69c0-.46-.17-.75-.56-.8a5.89,5.89,0,0,0-.84,0Z"/><path class="cls-4" d="M16.78,14.32a1.27,1.27,0,0,0-.09.36c0,.53,0,1.05,0,1.58a1.38,1.38,0,0,0,.09.39H16c.24-.32.07-.68.15-1H14.78c.05.36-.11.71.14,1.05h-.85c.2-.16.14-.37.14-.57,0-.46,0-.93,0-1.39a2,2,0,0,0-.08-.38h.79c-.25.25-.09.56-.14.86h1.31a1.05,1.05,0,0,0-.11-.86Z"/><path class="cls-4" d="M21.33,10.25c-.15-.47-.32-.93-.45-1.4A.74.74,0,0,1,21,8.14.56.56,0,0,1,21.62,8a.55.55,0,0,1,.4.58l.15-.08a.53.53,0,0,1,.68,0,.54.54,0,0,1,.11.72,2.38,2.38,0,0,1-.63.55C22,10,21.68,10.09,21.33,10.25Z"/><path class="cls-4" d="M14.06,10.53c.06.32-.11.64.16.92h-.87c.22-.18.14-.41.14-.63,0-.44,0-.89,0-1.33a.73.73,0,0,0-.12-.36s0,0,0,0c.63,0,1.27,0,1.9,0a.61.61,0,0,1,.61.68.61.61,0,0,1-.6.66,8.88,8.88,0,0,1-1,0Zm0-.47h1a.25.25,0,1,0,0-.5h-1Z"/><path class="cls-4" d="M10.58,9.13c.61,0,1.25,0,1.9,0a.61.61,0,0,1,.58.68.62.62,0,0,1-.58.66,5.21,5.21,0,0,1-.69,0h-.52a1.2,1.2,0,0,0,.09.92h-.85c.21-.17.14-.39.14-.59,0-.46,0-.91,0-1.37A2.29,2.29,0,0,0,10.58,9.13Zm.66.93c.34,0,.67,0,1,0a.24.24,0,0,0,0-.48h-1Z"/><path class="cls-4" d="M8.28,9.1h1c-.23.18-.13.34,0,.5L10,11a4,4,0,0,0,.29.43H9.45a2,2,0,0,0,0-.35.29.29,0,0,0-.36-.23,2.43,2.43,0,0,1-.66,0,.27.27,0,0,0-.32.25.93.93,0,0,0,0,.33H7.35c.09-.14.19-.28.27-.43.26-.49.5-1,.75-1.47A.29.29,0,0,0,8.28,9.1Zm.48.69-.36.73h.74Z"/><path class="cls-4" d="M23.1,16.65h-.94a.26.26,0,0,0,.08-.37c-.09-.15-.17-.22-.34-.2a4.85,4.85,0,0,1-.66,0c-.19,0-.3.06-.33.23a1.1,1.1,0,0,0,0,.36h-.75c.38-.64.7-1.33,1-2,0-.08,0-.21,0-.33h.88c-.23.23,0,.41.06.61.22.41.44.83.67,1.24C22.88,16.34,23,16.49,23.1,16.65ZM21.55,15l-.36.73h.74Z"/><path class="cls-4" d="M24.19,15.16l.3-.42c.1-.13.21-.26,0-.42h1.09a5.49,5.49,0,0,0-.95,1.11.56.56,0,0,0-.15.44c0,.11,0,.23,0,.34a3.79,3.79,0,0,0,.07.45h-.78c.24-.31.09-.66.13-1a.15.15,0,0,0,0-.09L23,14.53a2.32,2.32,0,0,0-.26-.21H23.9c-.25.16-.12.3,0,.43Z"/><path class="cls-4" d="M16,9.1H17c-.26.22-.06.36,0,.51s.15.22.24.34c.12-.16.23-.31.33-.46s.13-.19,0-.37h1a4.6,4.6,0,0,0-.94,1.13.86.86,0,0,0-.13.4,1.48,1.48,0,0,0,0,.42c0,.12.06.24.09.37h-.75a1.36,1.36,0,0,0-.13-1.32c-.15-.17-.27-.36-.41-.54S16.1,9.27,16,9.1Z"/><path class="cls-4" d="M13.81,14.23v.6c-.28-.2-.59-.06-.92-.11v.88c0,.22,0,.45,0,.67a2,2,0,0,0,.08.38h-.73a3.11,3.11,0,0,0,.08-.44c0-.48,0-1,0-1.48-.31,0-.62-.09-.91.09v-.58a2.58,2.58,0,0,0,.37.06h1.72A1.41,1.41,0,0,0,13.81,14.23Z"/><path class="cls-4" d="M12.85,7.3c-.15-.35-.32-.68-.44-1a.4.4,0,0,1,.41-.53c.17,0,.25.07.37.34l.13-.1a.33.33,0,0,1,.41,0c.13.11.23.26.15.41a1.91,1.91,0,0,1-.4.49A4.28,4.28,0,0,1,12.85,7.3Z"/><path class="cls-4" d="M26,16a1.36,1.36,0,0,1,.41-.1.36.36,0,0,1,.28.53,1.75,1.75,0,0,1-.41.45,6.28,6.28,0,0,1-.6.38c-.15-.35-.31-.68-.43-1a.41.41,0,0,1,.25-.52C25.69,15.66,25.85,15.76,26,16Z"/><path class="cls-4" d="M8.21,18.33c.25-.19.43-.2.59,0a.4.4,0,0,1,0,.6,3,3,0,0,1-.51.41l-.37.24c-.15-.29-.3-.58-.42-.87a.5.5,0,0,1,0-.54C7.73,17.88,8,18,8.21,18.33Z"/><path class="cls-4" d="M4.69,20.83c.28-.21.45-.22.61,0a.41.41,0,0,1-.06.62,10.7,10.7,0,0,1-.86.65,10,10,0,0,1-.44-1,.42.42,0,0,1,.33-.61C4.51,20.46,4.62,20.61,4.69,20.83Z"/><path class="cls-4" d="M10.75,4.84a9.15,9.15,0,0,1-.92-.34.67.67,0,0,1-.32-.38.36.36,0,0,1,.5-.41l.12,0c0-.21.06-.41.29-.43a.5.5,0,0,1,.4.15,1.17,1.17,0,0,1,.1.56A5.34,5.34,0,0,1,10.75,4.84Z"/><path class="cls-4" d="M26.14,19.24c0-.2,0-.37.24-.44a.4.4,0,0,1,.53.32,2.43,2.43,0,0,1,0,.6,5.46,5.46,0,0,1-.13.6c-.3-.11-.62-.19-.91-.32a.71.71,0,0,1-.32-.34.45.45,0,0,1,.09-.38c.07-.08.23-.08.35-.1S26.08,19.21,26.14,19.24Z"/><path class="cls-4" d="M21.84,20.31a1.16,1.16,0,0,1,.42-.1.38.38,0,0,1,.25.58,2.44,2.44,0,0,1-.42.43c-.17.13-.36.22-.56.35a9.09,9.09,0,0,1-.43-1,.41.41,0,0,1,.34-.59C21.64,20,21.74,20.08,21.84,20.31Z"/><path class="cls-4" d="M21.76,3.6c.32-.22.57-.18.68.12a.38.38,0,0,1-.11.44,5.66,5.66,0,0,1-.6.47l-.3.19c-.14-.29-.29-.57-.41-.86a.5.5,0,0,1,.06-.57C21.31,3.16,21.57,3.24,21.76,3.6Z"/><path class="cls-4" d="M11.93,21.15c.06-.4.32-.58.59-.39a.59.59,0,0,1,.2.39c0,.35-.08.7-.13,1.1-.37-.13-.69-.23-1-.37a.43.43,0,0,1-.29-.47C11.34,21.11,11.57,21,11.93,21.15Z"/><path class="cls-4" d="M8.05,16.66h-.8c.21-.17.14-.4.14-.6q0-.69,0-1.38a1.73,1.73,0,0,0-.08-.35H8a4.08,4.08,0,0,0-.06.53c0,.45,0,.91,0,1.37A2.31,2.31,0,0,0,8.05,16.66Z"/><path class="cls-4" d="M32.3,16.3a.44.44,0,0,1-.44.46.47.47,0,0,1-.41-.5.46.46,0,0,1,.44-.47A.45.45,0,0,1,32.3,16.3Z"/><path class="cls-4" d="M32.21,7.41c0,.25-.16.46-.33.46s-.19-.1-.2-.22A.43.43,0,0,1,32,7.22.17.17,0,0,1,32.21,7.41Z"/><path class="cls-4" d="M32.84,12.42a.5.5,0,0,1,.46-.51c.2,0,.32.17.31.41a.49.49,0,0,1-.46.5C33,12.81,32.84,12.66,32.84,12.42Z"/></g></g></svg>