<svg xmlns="http://www.w3.org/2000/svg" viewBox="0 0 38.55 24.66"><defs><style>.cls-1{isolation:isolate;}.cls-2{opacity:0.15;}.cls-2,.cls-3{mix-blend-mode:multiply;}.cls-4{fill:#fff;}</style></defs><title>convert-FIX-SVG-03</title><g class="cls-1"><g id="Layer_1" data-name="Layer 1"><g class="cls-2"><path d="M17.7,22.62H15.8a7.8,7.8,0,0,0-3.88-9.41A8,8,0,0,0,1.81,15.84v-.26c0-.77,0-1.54,0-2.31A.37.37,0,0,1,2,13a9.56,9.56,0,0,1,5.36-2.34,9.66,9.66,0,0,1,10.54,7.58,9.45,9.45,0,0,1-.12,4.36Z"/><path d="M12.52,10.82l.15-1.74.15-1.79c0-.16,0-.23.22-.27.34-.07.68-.18,1-.25a.54.54,0,0,1,.33.05c1.16.66,2.31,1.34,3.45,2a.4.4,0,0,1,.17.22c.11.36.2.73.29,1.1a.24.24,0,0,1-.08.2c-1,.68-2,1.35-3,2A8.48,8.48,0,0,0,12.52,10.82Z"/><path d="M28.45,15.26h1.37l0,.05s-.08.1-.13.11-.25.11-.19.28c.17.48.35,1,.54,1.49.21-.51.4-1,.56-1.44.05-.13.06-.3-.17-.33,0,0-.06-.08-.13-.16h3.07l0,.7-.05,0s-.12-.07-.13-.11c-.07-.33-.31-.46-.67-.46h-.39v1c.31.06.4,0,.48-.3A.45.45,0,0,1,32.8,16l.06,0v1.09l-.07,0c0-.05-.09-.09-.11-.15-.07-.29-.16-.36-.5-.34,0,.27,0,.55.06.83,0,.08.12.18.2.22a.72.72,0,0,0,1-.45c0-.08,0-.24.2-.16v.67c.29,0,.39-.07.39-.32,0-.55,0-1.11,0-1.66,0-.19-.07-.32-.28-.34-.05,0-.08-.07-.12-.11l0-.05c.5,0,1,0,1.48,0a.68.68,0,0,1,.26,1.32c.15.28.28.56.44.83a2.58,2.58,0,0,0,.32.34s0,.09.09.16h-.69a.25.25,0,0,1-.14-.13c-.16-.3-.3-.62-.48-.91-.05-.1-.19-.16-.28-.23l-.09.05c0,.29,0,.58.06.87,0,.07.17.12.25.18l.13.12,0,0H31.27l0,0c.05,0,.09-.11.14-.12a.3.3,0,0,0,.27-.34c0-.55,0-1.11,0-1.67a.37.37,0,0,0-.18-.29.59.59,0,0,0-.4.1.72.72,0,0,0-.19.32l-.8,1.89a.75.75,0,0,1-.15.16.61.61,0,0,1-.15-.17L29,15.83c-.08-.2-.15-.42-.44-.42C28.53,15.42,28.5,15.33,28.45,15.26Zm6.16,1.22a.5.5,0,0,0,.59-.23.56.56,0,0,0,0-.62.51.51,0,0,0-.55-.18Z"/><path d="M27.18,16.63c0,.25,0,.49,0,.73a.37.37,0,0,0,.35.36.71.71,0,0,0,.92-.56c0-.05.07-.09.11-.14l.05,0v.85H25.72a.26.26,0,0,1-.26-.18,9.1,9.1,0,0,0-.45-.88c-.06-.1-.19-.15-.33-.25a9.11,9.11,0,0,0,0,.92c0,.08.16.14.25.21l.14.1,0,.06H23.73l0,0s.08-.11.13-.11a.32.32,0,0,0,.28-.36c0-.54,0-1.08,0-1.63,0-.2-.07-.34-.3-.35,0,0-.07-.08-.14-.15.58,0,1.09,0,1.6,0a.64.64,0,0,1,.64.55.68.68,0,0,1-.43.76l.51,1a.32.32,0,0,0,.37.2.31.31,0,0,0,.26-.34q0-.82,0-1.65c0-.18-.07-.33-.29-.34-.05,0-.08-.07-.12-.11l0-.05h2.16l0,.69,0,.05c-.05,0-.11-.06-.13-.11a.58.58,0,0,0-.64-.46h-.42v1c.32.06.39,0,.48-.3,0-.05.08-.09.12-.13l0,0c0,.34,0,.69,0,1,0,0-.05.06-.08.09s-.08-.07-.09-.12C27.57,16.67,27.49,16.61,27.18,16.63Zm-2.51-.15a.48.48,0,0,0,.57-.23.53.53,0,0,0,0-.61.48.48,0,0,0-.54-.19Z"/><path d="M28.8,6.13c-.05,0-.1.1-.15.11s-.25.11-.2.26A13.54,13.54,0,0,0,29,7.94c.19-.47.38-.93.55-1.4a.22.22,0,0,0-.18-.31s-.08-.07-.12-.11l0,0h3c0,.23,0,.43,0,.64,0,0,0,.1-.06.1s-.11,0-.11-.06c-.09-.5-.47-.5-.84-.5h-.17l-.06,0v1c.33,0,.4,0,.48-.31a.79.79,0,0,1,.12-.15l.05,0V7.9c-.14.07-.16,0-.19-.12-.06-.28-.13-.33-.49-.34,0,.28,0,.57.07.85a.33.33,0,0,0,.17.2.74.74,0,0,0,1-.41.42.42,0,0,1,0-.12.28.28,0,0,1,.11-.08s.07.08.07.12c0,.24,0,.47,0,.73H30.2l0-.05s.08-.1.12-.11a.3.3,0,0,0,.29-.35V6.59c0-.16-.05-.29-.21-.33a.36.36,0,0,0-.42.13,2.11,2.11,0,0,0-.18.33C29.5,7.34,29.25,8,29,8.57c0,.07-.1.11-.15.17s-.13-.11-.15-.17c-.27-.65-.52-1.31-.78-2-.08-.2-.17-.38-.43-.38,0,0-.06-.09-.11-.15h1.4Z"/><path d="M13.55,2.78a3,3,0,0,1,.72-.22.69.69,0,0,1,.72.86,1.9,1.9,0,0,1-.4.77,5.87,5.87,0,0,1-.84.73.31.31,0,0,1-.25,0,3.31,3.31,0,0,1-1.05-1,1.15,1.15,0,0,1-.22-.76.76.76,0,0,1,1.21-.5Z"/><path d="M25,19.21a.86.86,0,0,1,.71-.29.72.72,0,0,1,.64,1,2.18,2.18,0,0,1-.44.75,4.66,4.66,0,0,1-.79.67.24.24,0,0,1-.22,0,3.21,3.21,0,0,1-1.06-1,1.73,1.73,0,0,1-.21-.53A.7.7,0,0,1,24,19a.83.83,0,0,1,.88.05Z"/><path d="M19.54,6.14a3.49,3.49,0,0,1,.33-.21.73.73,0,0,1,.81.09.74.74,0,0,1,.24.79,2,2,0,0,1-.77,1.08c-.7.54-.49.54-1.18,0a1.85,1.85,0,0,1-.77-1.08A.74.74,0,0,1,18.51,6a.84.84,0,0,1,.93.08Z"/><path d="M3.71,8a3,3,0,0,1,.65-.23.7.7,0,0,1,.76.93,1.83,1.83,0,0,1-.39.71,5.65,5.65,0,0,1-.83.71.25.25,0,0,1-.26,0,9.15,9.15,0,0,1-1-.89,1.21,1.21,0,0,1-.26-.56.69.69,0,0,1,.29-.8.8.8,0,0,1,.88,0Z"/><path d="M33.84,10.11a3.11,3.11,0,0,1,.61-.23.71.71,0,0,1,.79.94,2.51,2.51,0,0,1-.48.8,4.72,4.72,0,0,1-.73.61.3.3,0,0,1-.26,0,2.94,2.94,0,0,1-1-.93,1.7,1.7,0,0,1-.23-.56.66.66,0,0,1,.33-.78.77.77,0,0,1,.87,0A.89.89,0,0,1,33.84,10.11Z"/><path d="M24.51,7.4a1.45,1.45,0,0,1,2.9,0,1.46,1.46,0,0,1-1.47,1.42A1.4,1.4,0,0,1,24.51,7.4Zm.59.09a1.22,1.22,0,0,0,.29.85.72.72,0,0,0,1.15,0,1.62,1.62,0,0,0-.05-1.89.71.71,0,0,0-1.08,0A1.61,1.61,0,0,0,25.1,7.49Z"/><path d="M22.1,18a1.4,1.4,0,0,1-1.44-1.38,1.48,1.48,0,0,1,1.47-1.42,1.4,1.4,0,1,1,0,2.8ZM23,16.6a1.62,1.62,0,0,0-.3-1,.71.71,0,0,0-1.13,0,1.64,1.64,0,0,0,0,1.88.72.72,0,0,0,1.15,0A1.44,1.44,0,0,0,23,16.6Z"/><path d="M27.08,13.39A1.4,1.4,0,0,1,25.65,12a1.46,1.46,0,0,1,2.92,0A1.46,1.46,0,0,1,27.08,13.39ZM26.19,12a4.18,4.18,0,0,0,.25.73.72.72,0,0,0,1.34,0,1.55,1.55,0,0,0-.08-1.67.7.7,0,0,0-1.2,0A2.23,2.23,0,0,0,26.19,12Z"/><path d="M30,10.71c-.05,0-.08.11-.13.12-.22,0-.28.16-.28.35,0,.5,0,1,0,1.5a.47.47,0,0,0,.48.51,1.71,1.71,0,0,0,.5-.06.49.49,0,0,0,.36-.49V11.18a.3.3,0,0,0-.29-.35s-.07-.06-.11-.1.08-.08.12-.08h.87l0,0c0,.05-.08.12-.13.13-.24,0-.28.19-.28.39v1.25c0,.56-.21.82-.77.9a2.59,2.59,0,0,1-.83-.06.63.63,0,0,1-.52-.68V11.3c0-.23,0-.45-.33-.48,0,0-.05-.06-.08-.1s.09-.07.13-.07H30Z"/><path d="M18.44,17.85s.09-.09.14-.1a.29.29,0,0,0,.28-.32V15.72a.28.28,0,0,0-.29-.3s-.08-.07-.12-.11l0,0h2.09c0,.2,0,.41.05.61,0,0,0,.09-.06.09s-.1,0-.11-.05c-.17-.52-.58-.5-1-.48v.94A.42.42,0,0,0,20,16s.06-.07.09-.11.08.09.08.13c0,.33,0,.66,0,1,0,0,0,.09-.06.13S20,17.07,20,17c-.1-.36-.18-.43-.54-.42,0,.3,0,.61,0,.91,0,.08.17.15.25.23l.14.11,0,.05H18.5Z"/><path d="M22.89,10.65h1.22s.08.06.11.09-.07.08-.11.09c-.22.07-.23.09-.11.29s.3.47.47.73c.16-.25.32-.47.45-.71a.19.19,0,0,0-.14-.31s-.07-.07-.11-.1.08-.08.12-.08h.9a1.18,1.18,0,0,1-.11.18,4.47,4.47,0,0,0-.4.34c-.16.2-.29.44-.44.65a.78.78,0,0,0-.16.51c0,.15,0,.3,0,.44s.05.36.29.39c0,0,.08.08.11.13l0,.05h-1.2s-.08-.05-.11-.08.06-.09.09-.09c.27,0,.29-.21.31-.42a1.32,1.32,0,0,0-.28-1c-.16-.19-.27-.43-.44-.62a1.65,1.65,0,0,0-.36-.28.63.63,0,0,1-.11-.13Z"/><path d="M22.83,3.05,23,3a.51.51,0,0,1,.58,0,.5.5,0,0,1,.16.55,1.87,1.87,0,0,1-.88,1,.14.14,0,0,1-.14,0,2.08,2.08,0,0,1-.8-.81c-.19-.4,0-.8.37-.82A2.15,2.15,0,0,1,22.83,3.05Z"/><path d="M34.84,18.7a1.82,1.82,0,0,1,.32-.15.5.5,0,0,1,.64.61,1.5,1.5,0,0,1-.65.85c-.3.24-.3.24-.61,0a1.75,1.75,0,0,1-.6-.72.56.56,0,0,1,.15-.67.57.57,0,0,1,.67,0Z"/><path d="M19.54,12.9a1.75,1.75,0,0,1,.31-.15.5.5,0,0,1,.65.61,1.34,1.34,0,0,1-.54.77c-.47.36-.35.38-.8,0a2.37,2.37,0,0,1-.52-.69.48.48,0,0,1,.16-.62.56.56,0,0,1,.65,0Z"/><path d="M3.32,3.94a1.3,1.3,0,0,1,.32-.15.5.5,0,0,1,.63.65,1.8,1.8,0,0,1-.88,1,.14.14,0,0,1-.15,0c-.25-.24-.5-.47-.74-.72a.57.57,0,0,1-.11-.29.49.49,0,0,1,.16-.52.52.52,0,0,1,.56-.06Z"/><path d="M9.77,7.73a.54.54,0,0,1,1,.24.65.65,0,0,1-.12.47,6.47,6.47,0,0,1-.75.73.16.16,0,0,1-.15,0,1.93,1.93,0,0,1-.85-.91A.54.54,0,0,1,9,7.63a.59.59,0,0,1,.67,0S9.73,7.7,9.77,7.73Z"/><path d="M22.07,8.59c.33-.07.37-.11.37-.45,0-.5,0-1,0-1.52,0-.21-.06-.36-.29-.39,0,0-.08-.07-.12-.11l0,0c.42,0,.83,0,1.25,0a.13.13,0,0,1,.08.06s0,.1-.07.1c-.29,0-.33.23-.33.45,0,.48,0,1,0,1.44,0,.29.14.4.43.43A.67.67,0,0,0,24.26,8c0-.15,0-.15.2-.15V8.3c0,.14,0,.28,0,.44H22.22C22.11,8.74,22,8.74,22.07,8.59Z"/><path d="M22.49,9.94a1.25,1.25,0,0,1-.66.81.14.14,0,0,1-.09,0,4.61,4.61,0,0,1-.57-.6.35.35,0,0,1,.07-.48.39.39,0,0,1,.47,0,.31.31,0,0,0,.21,0A.38.38,0,0,1,22.49,9.94Z"/><path d="M8.07,4.79a.85.85,0,0,1-.36.56c-.37.31-.29.33-.68,0a1.52,1.52,0,0,1-.31-.44.37.37,0,0,1,.54-.46.2.2,0,0,0,.24,0A.37.37,0,0,1,8.07,4.79Z"/><path d="M31,20.94c.34-.21.64-.13.68.19a.41.41,0,0,1-.07.31A4.68,4.68,0,0,1,31,22a.16.16,0,0,1-.15,0,4.29,4.29,0,0,1-.49-.46.45.45,0,0,1,0-.6C30.52,20.77,30.69,20.78,31,20.94Z"/><path d="M28.13,3.44c.33-.21.61-.15.67.15a.44.44,0,0,1-.06.34,5.6,5.6,0,0,1-.54.55.14.14,0,0,1-.15,0,5.21,5.21,0,0,1-.56-.59.36.36,0,0,1,.08-.5.39.39,0,0,1,.49,0Z"/><path d="M20.5,20.55c.12,0,.21-.09.3-.11a.37.37,0,0,1,.38.54,1.33,1.33,0,0,1-.6.64.17.17,0,0,1-.14,0,3.63,3.63,0,0,1-.49-.47.46.46,0,0,1,0-.6C20.08,20.4,20.25,20.4,20.5,20.55Z"/><path d="M35,6.12a1,1,0,0,1,.21-.1.36.36,0,0,1,.48.39,1.29,1.29,0,0,1-.65.78.16.16,0,0,1-.12,0,5.67,5.67,0,0,1-.5-.48.44.44,0,0,1,0-.58C34.58,6,34.75,6,35,6.12Z"/><path d="M33.7,3a.92.92,0,0,1-.36.56c-.3.27-.35.28-.64,0A2.2,2.2,0,0,1,32.35,3a.29.29,0,0,1,.13-.4.67.67,0,0,1,.42,0,.24.24,0,0,0,.23,0A.37.37,0,0,1,33.7,3Z"/><path d="M17.9,22.81H16a7.79,7.79,0,0,0-3.88-9.4A8,8,0,0,0,2,16v-.25c0-.77,0-1.54,0-2.31a.4.4,0,0,1,.15-.33,9.54,9.54,0,0,1,5.36-2.33A9.65,9.65,0,0,1,18,18.39a9.31,9.31,0,0,1-.11,4.36Z"/><path d="M12.72,11c0-.59.1-1.16.14-1.74S13,8.09,13,7.49c0-.16.05-.23.22-.27.34-.07.67-.18,1-.25a.54.54,0,0,1,.33,0L18,9a.37.37,0,0,1,.17.22c.11.36.2.73.29,1.1a.24.24,0,0,1-.08.2c-1,.68-2,1.35-3.05,2A8.59,8.59,0,0,0,12.72,11Z"/><path d="M28.65,15.46H30l0,0s-.08.1-.14.11-.24.11-.18.28c.17.48.35,1,.54,1.49.21-.52.4-1,.56-1.44.05-.14.06-.31-.17-.33,0,0-.06-.08-.13-.16h3.07l0,.7,0,0c-.05,0-.12-.07-.13-.11-.07-.33-.31-.46-.67-.46h-.39v.95c.31.07.4,0,.48-.29,0-.05.07-.09.11-.13l0,0v1.09l-.06,0a1.43,1.43,0,0,1-.11-.15c-.07-.29-.17-.36-.5-.34,0,.27,0,.55.06.82a.38.38,0,0,0,.2.23.72.72,0,0,0,1-.45c0-.09,0-.24.2-.16v.66c.28,0,.38-.06.39-.32,0-.55,0-1.1,0-1.65,0-.19-.07-.32-.29-.34,0,0-.08-.08-.12-.11l0,0c.5,0,1,0,1.48,0a.69.69,0,0,1,.69.57c.06.31-.08.55-.43.75.15.28.28.56.44.83a3.4,3.4,0,0,0,.32.34.46.46,0,0,1,.08.16h-.68c-.05,0-.11-.08-.14-.13-.16-.3-.3-.62-.48-.92,0-.09-.19-.15-.28-.22l-.09,0c0,.29,0,.58.06.87,0,.07.16.12.25.18a.74.74,0,0,1,.13.12l0,0H31.47l0,0c.05,0,.09-.11.13-.12a.31.31,0,0,0,.28-.34c0-.56,0-1.11,0-1.67a.37.37,0,0,0-.18-.29.59.59,0,0,0-.4.1.72.72,0,0,0-.19.32c-.27.63-.53,1.26-.8,1.88a.61.61,0,0,1-.15.17A.61.61,0,0,1,30,18L29.19,16c-.08-.2-.15-.42-.44-.42C28.72,15.61,28.7,15.53,28.65,15.46Zm6.16,1.22a.5.5,0,0,0,.59-.23.58.58,0,0,0,0-.62.52.52,0,0,0-.55-.18Z"/><path d="M27.38,16.82c0,.26,0,.5,0,.74a.36.36,0,0,0,.35.36.7.7,0,0,0,.91-.56c0-.05.08-.09.11-.14l.06,0v.85H25.92c-.15,0-.2-.06-.26-.18a9.1,9.1,0,0,0-.45-.88c-.06-.1-.19-.15-.33-.25a9.11,9.11,0,0,0,0,.92c0,.07.16.14.25.21l.14.1,0,.06H23.93l0,0S24,18,24,18a.31.31,0,0,0,.29-.35V16c0-.2-.07-.34-.3-.35,0,0-.07-.08-.14-.15.58,0,1.09,0,1.6,0a.64.64,0,0,1,.64.55.68.68,0,0,1-.43.76l.51.95a.31.31,0,0,0,.37.2.29.29,0,0,0,.26-.33c0-.55,0-1.1,0-1.65,0-.19-.07-.33-.29-.34-.05,0-.09-.07-.13-.11l0,0h2.16l0,.69,0,.05c-.05,0-.12-.06-.13-.11a.59.59,0,0,0-.65-.46h-.41v1c.31.06.38,0,.47-.3,0-.05.08-.09.13-.14l.05,0c0,.34,0,.68,0,1,0,0-.05.06-.08.09s-.08-.08-.09-.12C27.77,16.87,27.69,16.81,27.38,16.82Zm-2.51-.14a.48.48,0,0,0,.57-.23.54.54,0,0,0,0-.62.52.52,0,0,0-.54-.19Z"/><path d="M29,6.33a.72.72,0,0,1-.15.11c-.15,0-.25.11-.2.26a14.44,14.44,0,0,0,.58,1.44c.18-.47.37-.93.54-1.41a.21.21,0,0,0-.17-.3s-.08-.07-.12-.11l0-.05h3c0,.22,0,.43,0,.64,0,0,0,.1-.05.1S32.4,7,32.4,7c-.09-.5-.47-.5-.84-.5h-.23v1c.32,0,.4,0,.48-.3,0-.06.08-.1.12-.15L32,7V8.1c-.14.07-.17,0-.19-.12-.06-.29-.13-.34-.49-.34,0,.28,0,.57.07.85a.35.35,0,0,0,.16.2.75.75,0,0,0,1-.41.42.42,0,0,1,0-.12s.07-.06.1-.08.08.08.08.12c0,.23,0,.47,0,.72H30.4l0,0s.08-.11.12-.11a.31.31,0,0,0,.29-.36V6.78a.29.29,0,0,0-.21-.32.36.36,0,0,0-.42.13,1.74,1.74,0,0,0-.18.33c-.26.62-.51,1.23-.78,1.85a1.14,1.14,0,0,1-.15.17c-.05-.06-.13-.11-.16-.17-.26-.66-.51-1.31-.77-2-.08-.2-.18-.38-.43-.38,0,0-.06-.09-.11-.16H29Z"/><path d="M13.75,3a4.13,4.13,0,0,1,.72-.22.69.69,0,0,1,.72.86,1.93,1.93,0,0,1-.4.78,5.87,5.87,0,0,1-.84.73.31.31,0,0,1-.25,0,3.46,3.46,0,0,1-1.06-1,1.2,1.2,0,0,1-.21-.76.76.76,0,0,1,1.21-.5Z"/><path d="M25.19,19.41a.9.9,0,0,1,.71-.3.73.73,0,0,1,.64,1,2.18,2.18,0,0,1-.44.75,5,5,0,0,1-.79.66.25.25,0,0,1-.22,0,3,3,0,0,1-1.06-1,1.58,1.58,0,0,1-.21-.52.7.7,0,0,1,.33-.78.79.79,0,0,1,.87.05Z"/><path d="M19.74,6.33c.13-.07.22-.15.33-.2a.73.73,0,0,1,.81.09.76.76,0,0,1,.24.79,2,2,0,0,1-.77,1.08c-.7.54-.49.54-1.18,0A1.94,1.94,0,0,1,18.39,7a.76.76,0,0,1,.32-.85.82.82,0,0,1,.93.08Z"/><path d="M3.91,8.15a2.94,2.94,0,0,1,.64-.23.71.71,0,0,1,.77.93,2.14,2.14,0,0,1-.39.71,5.65,5.65,0,0,1-.83.71.25.25,0,0,1-.26,0,10.35,10.35,0,0,1-1-.89,1.21,1.21,0,0,1-.26-.56A.68.68,0,0,1,2.89,8a.8.8,0,0,1,.88,0Z"/><path d="M34,10.31a2.64,2.64,0,0,1,.62-.23.71.71,0,0,1,.79.94,2.51,2.51,0,0,1-.48.8,4.72,4.72,0,0,1-.73.61.3.3,0,0,1-.26,0,3.14,3.14,0,0,1-1-.93,1.7,1.7,0,0,1-.23-.56.66.66,0,0,1,.32-.78.79.79,0,0,1,.88.05A.65.65,0,0,1,34,10.31Z"/><path d="M24.71,7.6a1.45,1.45,0,0,1,2.9,0A1.46,1.46,0,0,1,26.14,9,1.4,1.4,0,0,1,24.71,7.6Zm.58.09a1.28,1.28,0,0,0,.3.85.72.72,0,0,0,1.15,0,1.64,1.64,0,0,0,0-1.9.72.72,0,0,0-1.08,0A1.58,1.58,0,0,0,25.29,7.69Z"/><path d="M22.3,18.18a1.4,1.4,0,0,1-1.44-1.38,1.49,1.49,0,0,1,1.47-1.43,1.47,1.47,0,0,1,1.44,1.4A1.44,1.44,0,0,1,22.3,18.18Zm.89-1.39a1.59,1.59,0,0,0-.3-.94.71.71,0,0,0-1.13,0,1.62,1.62,0,0,0,0,1.88.72.72,0,0,0,1.15,0A1.45,1.45,0,0,0,23.19,16.79Z"/><path d="M27.28,13.59a1.4,1.4,0,0,1-1.43-1.39,1.46,1.46,0,1,1,1.43,1.39Zm-.89-1.35a3.49,3.49,0,0,0,.25.73A.72.72,0,0,0,28,13a1.54,1.54,0,0,0-.08-1.66.71.71,0,0,0-1.2,0A2.32,2.32,0,0,0,26.39,12.24Z"/><path d="M30.24,10.91s-.09.11-.13.12a.29.29,0,0,0-.28.35c0,.5,0,1,0,1.5a.49.49,0,0,0,.49.51,1.39,1.39,0,0,0,.49-.07.47.47,0,0,0,.37-.48V11.38a.3.3,0,0,0-.29-.35s-.07-.06-.11-.1.08-.08.12-.08h.87l0,.05s-.07.12-.12.13c-.24,0-.29.18-.28.39,0,.42,0,.83,0,1.25s-.2.82-.76.89a2.31,2.31,0,0,1-.83-.05.63.63,0,0,1-.52-.68c0-.45,0-.89,0-1.33,0-.23,0-.45-.32-.48,0,0-.05-.06-.08-.1s.09-.07.13-.07h1.18Z"/><path d="M18.64,18.05c.05,0,.09-.09.14-.1a.29.29,0,0,0,.28-.32V15.92a.29.29,0,0,0-.29-.3s-.08-.07-.12-.11l0,0h2.09c0,.21,0,.41.05.62,0,0,0,.09-.06.09a.16.16,0,0,1-.11-.05c-.17-.52-.58-.5-1-.48v.94a.43.43,0,0,0,.55-.38s.06-.08.08-.11.09.08.09.13c0,.33,0,.66,0,1,0,.05,0,.09-.06.13s-.1-.07-.11-.12c-.11-.35-.18-.42-.54-.41a9,9,0,0,0,0,.9c0,.09.16.16.25.24l.14.11,0,.05H18.69Z"/><path d="M23.08,10.85h1.23s.07.06.11.09-.07.08-.11.09c-.22.07-.23.09-.12.28l.48.74c.16-.25.32-.47.45-.71A.19.19,0,0,0,25,11s-.07-.07-.11-.1.08-.08.12-.08h.9a1.18,1.18,0,0,1-.11.18,4.47,4.47,0,0,0-.4.34c-.17.2-.29.44-.44.65a.73.73,0,0,0-.16.51c0,.15,0,.29,0,.44s.05.36.29.39c0,0,.07.08.11.13l0,0H24s-.08,0-.12-.08.06-.09.1-.09c.27,0,.29-.21.31-.42a1.31,1.31,0,0,0-.28-1c-.16-.2-.28-.43-.44-.62a1.65,1.65,0,0,0-.36-.28A1.42,1.42,0,0,1,23,10.9Z"/><path d="M23,3.25a.55.55,0,0,1,.14-.09.51.51,0,0,1,.57,0,.5.5,0,0,1,.17.56,1.89,1.89,0,0,1-.89,1s-.1,0-.13,0a2.1,2.1,0,0,1-.8-.82c-.19-.39,0-.79.36-.82A2.67,2.67,0,0,1,23,3.25Z"/><path d="M35,18.9a2.45,2.45,0,0,1,.33-.16.51.51,0,0,1,.64.61,1.56,1.56,0,0,1-.65.86c-.3.24-.3.24-.61,0a1.67,1.67,0,0,1-.6-.72.54.54,0,0,1,.15-.67.57.57,0,0,1,.67,0Z"/><path d="M19.74,13.1a1.47,1.47,0,0,1,.31-.15.5.5,0,0,1,.65.61,1.34,1.34,0,0,1-.55.77c-.46.36-.34.38-.79,0a2.37,2.37,0,0,1-.52-.69A.47.47,0,0,1,19,13a.56.56,0,0,1,.65,0Z"/><path d="M3.52,4.14A1.3,1.3,0,0,1,3.84,4a.5.5,0,0,1,.63.65,1.8,1.8,0,0,1-.88,1s-.12,0-.15,0c-.25-.23-.51-.46-.74-.71a.57.57,0,0,1-.11-.29.48.48,0,0,1,.16-.52A.53.53,0,0,1,3.3,4,1.59,1.59,0,0,1,3.52,4.14Z"/><path d="M10,7.93c.31-.31.88-.26.94.23a.62.62,0,0,1-.11.48,6.47,6.47,0,0,1-.75.73.16.16,0,0,1-.15,0,2,2,0,0,1-.85-.91.55.55,0,0,1,.15-.65.6.6,0,0,1,.68,0Z"/><path d="M22.26,8.79c.34-.07.38-.11.38-.45V6.82c0-.21-.06-.36-.29-.39-.05,0-.08-.07-.12-.11l0-.06H23.5a.16.16,0,0,1,.09.06s-.05.1-.07.1c-.29,0-.33.23-.33.45,0,.48,0,1,0,1.44,0,.29.14.4.43.43a.67.67,0,0,0,.82-.54c0-.15,0-.15.2-.16v.44c0,.14,0,.28,0,.45H22.42C22.31,8.94,22.22,8.94,22.26,8.79Z"/><path d="M22.69,10.14A1.25,1.25,0,0,1,22,11a.14.14,0,0,1-.09,0,5.34,5.34,0,0,1-.57-.6.35.35,0,0,1,.07-.48.39.39,0,0,1,.47,0,.31.31,0,0,0,.21,0A.38.38,0,0,1,22.69,10.14Z"/><path d="M8.27,5a.85.85,0,0,1-.36.56c-.37.31-.29.33-.68,0a1.52,1.52,0,0,1-.31-.44A.35.35,0,0,1,7,4.66a.36.36,0,0,1,.44,0,.21.21,0,0,0,.24,0A.37.37,0,0,1,8.27,5Z"/><path d="M31.16,21.14c.34-.21.64-.13.68.18a.48.48,0,0,1-.07.32,4.68,4.68,0,0,1-.54.55.16.16,0,0,1-.15,0,3,3,0,0,1-.49-.46.45.45,0,0,1,0-.6C30.72,21,30.89,21,31.16,21.14Z"/><path d="M28.33,3.64c.33-.21.61-.15.67.15a.49.49,0,0,1-.06.34,5.6,5.6,0,0,1-.54.55.2.2,0,0,1-.15,0,5.21,5.21,0,0,1-.56-.59.36.36,0,0,1,.08-.5.39.39,0,0,1,.49,0Z"/><path d="M20.7,20.75c.12,0,.21-.09.3-.11a.37.37,0,0,1,.38.54,1.43,1.43,0,0,1-.6.64.14.14,0,0,1-.14,0,3,3,0,0,1-.49-.46.46.46,0,0,1,0-.6C20.28,20.6,20.45,20.6,20.7,20.75Z"/><path d="M35.21,6.32a1.38,1.38,0,0,1,.22-.1.35.35,0,0,1,.47.39,1.25,1.25,0,0,1-.64.78.16.16,0,0,1-.12,0,4.56,4.56,0,0,1-.5-.48.44.44,0,0,1,0-.58C34.77,6.16,35,6.16,35.21,6.32Z"/><path d="M33.9,3.16a.92.92,0,0,1-.36.56c-.31.27-.35.28-.64,0a2,2,0,0,1-.35-.5.3.3,0,0,1,.13-.41.67.67,0,0,1,.42,0,.27.27,0,0,0,.23,0A.37.37,0,0,1,33.9,3.16Z"/></g><g class="cls-3"><path d="M17.56,22.47h-1.9a7.79,7.79,0,0,0-3.88-9.4A8,8,0,0,0,1.66,15.69v-.25c0-.77,0-1.54,0-2.31a.4.4,0,0,1,.15-.33,9.54,9.54,0,0,1,5.36-2.33A9.65,9.65,0,0,1,17.7,18.05a9.31,9.31,0,0,1-.11,4.36Z"/><path d="M12.38,10.68c0-.59.09-1.16.14-1.74s.11-1.19.16-1.79c0-.16.05-.23.22-.27.34-.07.67-.18,1-.25a.54.54,0,0,1,.33,0l3.45,2a.34.34,0,0,1,.17.22c.11.36.2.73.29,1.1a.24.24,0,0,1-.08.2c-1,.68-2,1.35-3,2A8.59,8.59,0,0,0,12.38,10.68Z"/><path d="M28.31,15.12h1.37l0,.05s-.08.1-.14.11-.24.11-.18.28c.17.48.35,1,.54,1.49.2-.52.4-1,.56-1.44.05-.14.06-.31-.17-.33,0,0-.06-.08-.13-.16h3.07l0,.7-.05,0s-.12-.07-.13-.11c-.07-.33-.31-.46-.67-.46h-.39v.95c.31.07.4,0,.48-.29,0,0,.07-.09.11-.14l.05,0v1.09l-.06,0a1.43,1.43,0,0,1-.11-.15c-.07-.29-.17-.36-.5-.34,0,.27,0,.55.06.82a.38.38,0,0,0,.2.23.73.73,0,0,0,1-.45c0-.09,0-.24.2-.16v.66c.28,0,.38-.06.39-.32,0-.55,0-1.1,0-1.65,0-.19-.07-.32-.29-.34,0,0-.08-.08-.12-.12l0,0c.49,0,1,0,1.48,0a.69.69,0,0,1,.69.57c.06.31-.08.55-.43.75.15.28.28.56.44.83a3.4,3.4,0,0,0,.32.34.46.46,0,0,1,.08.16h-.68s-.11-.08-.14-.13c-.16-.3-.3-.62-.48-.92,0-.09-.19-.15-.28-.22l-.09,0a8.48,8.48,0,0,0,.06.87c0,.07.16.12.25.18a.74.74,0,0,1,.13.12l0,0H31.13l0,0c.05,0,.08-.11.13-.12a.31.31,0,0,0,.28-.34c0-.56,0-1.11,0-1.67a.37.37,0,0,0-.18-.29.59.59,0,0,0-.4.1.72.72,0,0,0-.19.32c-.27.63-.53,1.26-.8,1.88a.61.61,0,0,1-.15.17.61.61,0,0,1-.15-.17l-.77-1.92c-.08-.2-.15-.42-.44-.42C28.38,15.27,28.36,15.19,28.31,15.12Zm6.16,1.22a.5.5,0,0,0,.59-.23.58.58,0,0,0,0-.62.5.5,0,0,0-.55-.18Z"/><path d="M27,16.48c0,.26,0,.5,0,.74a.36.36,0,0,0,.35.36A.7.7,0,0,0,28.3,17c0-.05.08-.09.11-.14l.06,0v.85H25.58c-.15,0-.2-.06-.26-.18a9.1,9.1,0,0,0-.45-.88c-.06-.1-.19-.15-.33-.25a8.87,8.87,0,0,0,0,.91c0,.08.16.15.25.22l.14.1,0,.06H23.59l0,0s.08-.11.12-.12a.31.31,0,0,0,.29-.35V15.63c0-.2-.07-.34-.3-.35,0,0-.07-.08-.14-.15.58,0,1.09,0,1.6,0a.64.64,0,0,1,.64.55.68.68,0,0,1-.43.76l.51.95a.31.31,0,0,0,.37.2.29.29,0,0,0,.26-.33c0-.55,0-1.1,0-1.65,0-.19-.07-.33-.29-.34-.05,0-.09-.07-.13-.11l0-.05h2.16l0,.69-.05,0s-.11-.06-.12-.11a.59.59,0,0,0-.65-.46H27v1c.31.06.38,0,.47-.3,0,0,.08-.09.12-.14l.06,0c0,.34,0,.68,0,1,0,0-.05.06-.08.09s-.08-.08-.09-.12C27.43,16.53,27.35,16.47,27,16.48Zm-2.51-.14a.48.48,0,0,0,.57-.23.54.54,0,0,0,0-.62.52.52,0,0,0-.54-.19Z"/><path d="M28.66,6a.72.72,0,0,1-.15.11c-.15,0-.25.11-.2.26a14.44,14.44,0,0,0,.58,1.44c.18-.47.37-.93.54-1.41a.21.21,0,0,0-.17-.3S29.18,6,29.14,6l0-.05h3c0,.22,0,.43,0,.64,0,0,0,.1,0,.1s-.11,0-.11-.06c-.09-.5-.47-.5-.84-.5H31v1c.32,0,.4,0,.48-.3,0-.06.08-.1.12-.15l.05,0v1.1c-.14.07-.17,0-.19-.12-.06-.29-.13-.34-.49-.34,0,.28,0,.57.07.85a.35.35,0,0,0,.16.2.75.75,0,0,0,1-.41.42.42,0,0,1,0-.12s.07-.06.1-.08.08.08.08.12c0,.23,0,.47,0,.72H30.06l0,0s.08-.11.12-.11a.31.31,0,0,0,.29-.36V6.44a.29.29,0,0,0-.21-.32.36.36,0,0,0-.42.13,1.74,1.74,0,0,0-.18.33c-.26.62-.51,1.23-.78,1.85a1.14,1.14,0,0,1-.15.17.83.83,0,0,1-.16-.17l-.77-2c-.08-.19-.18-.37-.43-.37,0,0-.06-.09-.11-.16h1.4Z"/><path d="M13.41,2.63a4.13,4.13,0,0,1,.72-.22.69.69,0,0,1,.72.86,1.93,1.93,0,0,1-.4.78,5.87,5.87,0,0,1-.84.73.28.28,0,0,1-.25,0,3.31,3.31,0,0,1-1.06-1A1.2,1.2,0,0,1,12.09,3a.76.76,0,0,1,1.21-.5Z"/><path d="M24.85,19.07a.9.9,0,0,1,.71-.3.73.73,0,0,1,.64,1,2.18,2.18,0,0,1-.44.75,5,5,0,0,1-.79.66.25.25,0,0,1-.22,0,3,3,0,0,1-1.06-1,1.58,1.58,0,0,1-.21-.52.7.7,0,0,1,.33-.78.79.79,0,0,1,.87.05Z"/><path d="M19.4,6c.13-.07.22-.15.33-.2a.73.73,0,0,1,.81.09.76.76,0,0,1,.24.79A2,2,0,0,1,20,7.75c-.7.54-.49.54-1.18,0a1.94,1.94,0,0,1-.78-1.08.76.76,0,0,1,.32-.85.82.82,0,0,1,.93.08Z"/><path d="M3.57,7.81a2.94,2.94,0,0,1,.64-.23A.71.71,0,0,1,5,8.51a2.14,2.14,0,0,1-.39.71,5.65,5.65,0,0,1-.83.71.25.25,0,0,1-.26,0,10.35,10.35,0,0,1-1-.89,1.21,1.21,0,0,1-.26-.56.68.68,0,0,1,.29-.8.8.8,0,0,1,.88,0Z"/><path d="M33.69,10a2.64,2.64,0,0,1,.62-.23.7.7,0,0,1,.78.94,2.19,2.19,0,0,1-.48.8,4.23,4.23,0,0,1-.72.61.3.3,0,0,1-.26,0,3.14,3.14,0,0,1-1-.93,1.7,1.7,0,0,1-.23-.56.66.66,0,0,1,.32-.78.79.79,0,0,1,.88.05A.65.65,0,0,1,33.69,10Z"/><path d="M24.37,7.26a1.45,1.45,0,0,1,2.9,0A1.46,1.46,0,0,1,25.8,8.67,1.4,1.4,0,0,1,24.37,7.26Zm.58.09a1.28,1.28,0,0,0,.3.85.72.72,0,0,0,1.15,0,1.64,1.64,0,0,0,0-1.9.72.72,0,0,0-1.08,0A1.58,1.58,0,0,0,25,7.35Z"/><path d="M22,17.84a1.4,1.4,0,0,1-1.44-1.38A1.49,1.49,0,0,1,22,15a1.47,1.47,0,0,1,1.44,1.4A1.45,1.45,0,0,1,22,17.84Zm.89-1.39a1.66,1.66,0,0,0-.3-.94.71.71,0,0,0-1.13,0,1.62,1.62,0,0,0,0,1.88.72.72,0,0,0,1.15,0A1.45,1.45,0,0,0,22.85,16.45Z"/><path d="M26.94,13.25a1.4,1.4,0,0,1-1.43-1.39,1.46,1.46,0,1,1,1.43,1.39Zm-.89-1.35a3.49,3.49,0,0,0,.25.73.72.72,0,0,0,1.34,0A1.54,1.54,0,0,0,27.56,11a.71.71,0,0,0-1.2,0A2.32,2.32,0,0,0,26.05,11.9Z"/><path d="M29.9,10.57s-.09.11-.13.12a.29.29,0,0,0-.28.35c0,.5,0,1,0,1.5a.49.49,0,0,0,.49.51,1.39,1.39,0,0,0,.49-.07.47.47,0,0,0,.37-.48V11a.3.3,0,0,0-.29-.35s-.07-.06-.11-.1.08-.08.12-.08h.87l0,.05s-.07.12-.12.13c-.24,0-.29.18-.28.39,0,.41,0,.83,0,1.25s-.2.82-.76.89a2.31,2.31,0,0,1-.83-.05.63.63,0,0,1-.52-.68c0-.45,0-.89,0-1.33,0-.23,0-.46-.32-.48,0,0-.05-.06-.08-.1s.09-.07.13-.07h1.18Z"/><path d="M18.3,17.71c.05,0,.09-.09.14-.1a.29.29,0,0,0,.28-.32V15.58a.29.29,0,0,0-.29-.3s-.08-.07-.12-.11l0-.05h2.09c0,.21,0,.41.05.62,0,0,0,.09-.06.09a.16.16,0,0,1-.11-.05c-.17-.52-.58-.5-1-.48v.94a.43.43,0,0,0,.55-.38s.06-.08.08-.11.09.08.09.13c0,.33,0,.66,0,1,0,.05,0,.09-.06.13s-.1-.07-.11-.12c-.11-.35-.18-.42-.54-.41a9,9,0,0,0,0,.9c0,.09.16.16.25.24l.14.11,0,.05H18.35Z"/><path d="M22.74,10.51H24s.07.06.11.09-.07.08-.11.09c-.22.07-.23.09-.12.28l.48.74c.16-.25.32-.47.45-.71s0-.27-.15-.31c0,0-.06-.07-.1-.1s.08-.08.12-.08h.9a1.18,1.18,0,0,1-.11.18A4.47,4.47,0,0,0,25,11c-.17.2-.29.44-.44.65a.73.73,0,0,0-.16.51c0,.15,0,.29,0,.44s.05.36.29.39c0,0,.07.08.11.13l0,0h-1.2s-.08,0-.12-.08.06-.09.1-.09c.27,0,.29-.21.31-.42a1.31,1.31,0,0,0-.28-1c-.16-.2-.28-.43-.44-.62a1.65,1.65,0,0,0-.36-.28,1.42,1.42,0,0,1-.12-.13Z"/><path d="M22.69,2.91a.55.55,0,0,1,.14-.09.51.51,0,0,1,.57.05.49.49,0,0,1,.17.55,1.88,1.88,0,0,1-.89,1s-.1,0-.13,0a2.1,2.1,0,0,1-.8-.82c-.19-.39,0-.79.36-.82A2.67,2.67,0,0,1,22.69,2.91Z"/><path d="M34.69,18.56A2.45,2.45,0,0,1,35,18.4a.51.51,0,0,1,.64.61,1.56,1.56,0,0,1-.65.86c-.3.24-.3.24-.61,0a1.67,1.67,0,0,1-.6-.72.54.54,0,0,1,.15-.67.56.56,0,0,1,.66,0Z"/><path d="M19.4,12.76a1.47,1.47,0,0,1,.31-.15.5.5,0,0,1,.65.61,1.34,1.34,0,0,1-.55.77c-.47.36-.34.38-.79,0a2.37,2.37,0,0,1-.52-.69.47.47,0,0,1,.16-.62.54.54,0,0,1,.65,0Z"/><path d="M3.18,3.8a1.3,1.3,0,0,1,.32-.15.5.5,0,0,1,.63.65,1.8,1.8,0,0,1-.88,1s-.12,0-.15,0c-.25-.23-.51-.46-.74-.71a.57.57,0,0,1-.11-.29.48.48,0,0,1,.16-.52A.53.53,0,0,1,3,3.67,1.59,1.59,0,0,1,3.18,3.8Z"/><path d="M9.63,7.59c.31-.31.88-.26.94.23a.67.67,0,0,1-.11.48A7.4,7.4,0,0,1,9.71,9a.16.16,0,0,1-.15,0,2,2,0,0,1-.85-.91.55.55,0,0,1,.15-.65.6.6,0,0,1,.68,0Z"/><path d="M21.92,8.45c.34-.07.38-.11.38-.45V6.48c0-.22-.06-.36-.29-.39-.05,0-.08-.07-.12-.11l0-.06h1.24a.16.16,0,0,1,.09.06s-.05.1-.07.1c-.29,0-.33.23-.33.45,0,.48,0,1,0,1.44,0,.29.14.4.43.43a.67.67,0,0,0,.82-.54c0-.15,0-.15.2-.16v.44c0,.14,0,.28,0,.45H22.08C22,8.6,21.88,8.6,21.92,8.45Z"/><path d="M22.35,9.8a1.25,1.25,0,0,1-.66.81.14.14,0,0,1-.09,0A5.34,5.34,0,0,1,21,10a.35.35,0,0,1,.07-.48.38.38,0,0,1,.47,0,.31.31,0,0,0,.21,0A.38.38,0,0,1,22.35,9.8Z"/><path d="M7.93,4.65a.85.85,0,0,1-.36.56c-.37.31-.29.33-.68,0a1.52,1.52,0,0,1-.31-.44.37.37,0,0,1,.54-.46.21.21,0,0,0,.24,0A.37.37,0,0,1,7.93,4.65Z"/><path d="M30.82,20.8c.34-.21.64-.13.68.18a.48.48,0,0,1-.07.32,5.62,5.62,0,0,1-.54.55.16.16,0,0,1-.15,0,3,3,0,0,1-.49-.46.45.45,0,0,1,0-.6C30.38,20.63,30.55,20.64,30.82,20.8Z"/><path d="M28,3.29c.33-.2.61-.14.67.16a.49.49,0,0,1-.06.34,5.6,5.6,0,0,1-.54.55.2.2,0,0,1-.15,0,6.21,6.21,0,0,1-.56-.59.36.36,0,0,1,.08-.5.38.38,0,0,1,.49,0Z"/><path d="M20.36,20.41c.12,0,.21-.09.3-.11a.38.38,0,0,1,.38.54,1.43,1.43,0,0,1-.6.64.14.14,0,0,1-.14,0,3,3,0,0,1-.49-.46.46.46,0,0,1,0-.6C19.94,20.26,20.11,20.26,20.36,20.41Z"/><path d="M34.87,6a1.38,1.38,0,0,1,.22-.1.35.35,0,0,1,.47.39,1.23,1.23,0,0,1-.65.78.15.15,0,0,1-.11,0,4.56,4.56,0,0,1-.5-.48.44.44,0,0,1,0-.58C34.43,5.82,34.61,5.82,34.87,6Z"/><path d="M33.56,2.82a.92.92,0,0,1-.36.56c-.31.27-.35.28-.64,0a2,2,0,0,1-.35-.5.3.3,0,0,1,.13-.41.67.67,0,0,1,.42,0,.27.27,0,0,0,.23,0A.37.37,0,0,1,33.56,2.82Z"/></g><path class="cls-4" d="M17.76,22.67h-1.9A7.79,7.79,0,0,0,12,13.27,8,8,0,0,0,1.86,15.89v-.25c0-.77,0-1.54,0-2.31A.4.4,0,0,1,2,13a9.6,9.6,0,0,1,5.37-2.33A9.65,9.65,0,0,1,17.9,18.25a9.45,9.45,0,0,1-.11,4.36Z"/><path class="cls-4" d="M12.58,10.88c.05-.59.09-1.17.14-1.74s.11-1.19.15-1.79c0-.16.06-.24.22-.27.35-.07.68-.18,1-.25a.43.43,0,0,1,.33,0q1.73,1,3.45,2a.38.38,0,0,1,.17.22c.11.36.2.73.28,1.1a.21.21,0,0,1-.07.2c-1,.68-2,1.35-3.05,2A8.71,8.71,0,0,0,12.58,10.88Z"/><path class="cls-4" d="M28.51,15.32h1.37l0,0c-.05,0-.09.1-.14.11s-.25.11-.18.28c.17.48.34,1,.54,1.49.2-.52.39-1,.56-1.44.05-.14.06-.31-.17-.34,0,0-.07-.07-.13-.15h3.07l0,.7,0,0c-.05,0-.12-.07-.13-.12-.07-.32-.31-.45-.67-.45h-.4v1c.32.07.41,0,.49-.29,0,0,.07-.09.11-.14l0,0v1.09l-.06,0a.72.72,0,0,1-.11-.15c-.07-.29-.17-.36-.5-.35,0,.28,0,.56.06.83a.35.35,0,0,0,.2.23.72.72,0,0,0,1-.46c0-.08,0-.24.2-.15v.66c.29,0,.39-.06.4-.32V15.82c0-.19-.07-.32-.29-.34,0,0-.08-.08-.12-.12l0,0c.49,0,1,0,1.48,0a.69.69,0,0,1,.69.57c.06.31-.08.55-.43.75.15.27.28.56.44.83a3.4,3.4,0,0,0,.32.34.46.46,0,0,1,.08.16c-.25,0-.47,0-.69,0,0,0-.1-.07-.13-.12-.16-.31-.31-.62-.48-.92-.06-.1-.19-.15-.29-.22l-.08,0a6.25,6.25,0,0,0,.06.87c0,.08.16.12.25.19a1.5,1.5,0,0,0,.13.11l0,0H31.33l0,0s.08-.11.13-.12a.31.31,0,0,0,.28-.34c0-.56,0-1.12,0-1.67,0-.11-.1-.27-.18-.29a.58.58,0,0,0-.4.1c-.1.06-.14.2-.19.32-.27.62-.53,1.25-.8,1.88,0,.07-.1.11-.16.17s-.12-.1-.14-.17l-.77-1.92c-.08-.2-.15-.43-.44-.42C28.58,15.47,28.55,15.39,28.51,15.32Zm6.16,1.22a.49.49,0,0,0,.58-.23.56.56,0,0,0,0-.62.5.5,0,0,0-.55-.19Z"/><path class="cls-4" d="M27.24,16.68c0,.26,0,.5,0,.74a.36.36,0,0,0,.35.35.69.69,0,0,0,.91-.55s.08-.09.11-.14l.06,0V18H25.78c-.15,0-.2-.06-.26-.18a9.1,9.1,0,0,0-.45-.88c-.06-.1-.19-.15-.33-.25a8.87,8.87,0,0,0,0,.91c0,.08.16.15.25.22l.14.1,0,.06H23.78l0,0s.08-.11.12-.12a.31.31,0,0,0,.29-.35V15.83c0-.2-.07-.34-.3-.36,0,0-.07-.07-.14-.14.57,0,1.09,0,1.6,0a.64.64,0,0,1,.64.55.66.66,0,0,1-.43.75c.17.33.34.64.5,1a.32.32,0,0,0,.38.2.29.29,0,0,0,.26-.33V15.82c0-.19-.08-.33-.3-.34,0,0-.08-.07-.12-.11l0,0h2.16l0,.69,0,0s-.11-.07-.13-.11c-.14-.36-.26-.45-.64-.46h-.41v1c.31.07.38,0,.47-.29,0-.06.08-.09.12-.14l.06,0c0,.34,0,.68,0,1,0,0-.05.06-.08.1s-.08-.08-.09-.12C27.62,16.73,27.55,16.66,27.24,16.68Zm-2.52-.14a.49.49,0,0,0,.58-.23.56.56,0,0,0,0-.62.51.51,0,0,0-.55-.19Z"/><path class="cls-4" d="M28.85,6.19c-.05,0-.09.09-.15.11s-.24.11-.19.26A14.44,14.44,0,0,0,29.09,8c.18-.47.37-.93.54-1.41a.21.21,0,0,0-.17-.3c-.05,0-.08-.08-.12-.11l0,0h3c0,.22,0,.43,0,.64,0,0,0,.1-.05.09a.19.19,0,0,1-.12-.05c-.08-.5-.46-.5-.84-.5h-.22v1c.32,0,.4,0,.48-.3,0-.06.08-.1.11-.15l.06,0V8c-.14.07-.17,0-.19-.12-.07-.29-.14-.34-.49-.35,0,.29,0,.57.06.85,0,.08.1.16.17.21a.75.75,0,0,0,1-.41.42.42,0,0,1,0-.12s.07-.06.1-.09.08.08.08.12l0,.73H30.26l0,0s.08-.11.12-.11c.21,0,.28-.17.28-.36,0-.54,0-1.08,0-1.63a.3.3,0,0,0-.2-.33.37.37,0,0,0-.42.14,1.74,1.74,0,0,0-.18.33L29,8.63a1.14,1.14,0,0,1-.15.17.83.83,0,0,1-.16-.17l-.78-2c-.07-.19-.17-.37-.42-.38,0,0-.06-.08-.11-.15h1.4Z"/><path class="cls-4" d="M13.61,2.83a4.13,4.13,0,0,1,.72-.22.69.69,0,0,1,.72.86,2.07,2.07,0,0,1-.4.78,5.8,5.8,0,0,1-.84.72.25.25,0,0,1-.25,0A3.31,3.31,0,0,1,12.5,4a1.14,1.14,0,0,1-.21-.76.76.76,0,0,1,1.2-.5Z"/><path class="cls-4" d="M25.05,19.26a.93.93,0,0,1,.71-.29.73.73,0,0,1,.64,1,2.14,2.14,0,0,1-.44.76,6.28,6.28,0,0,1-.79.66.26.26,0,0,1-.23,0,3.24,3.24,0,0,1-1.06-1,1.65,1.65,0,0,1-.2-.52.72.72,0,0,1,.32-.79.83.83,0,0,1,.88.06Z"/><path class="cls-4" d="M19.6,6.19a2.42,2.42,0,0,1,.33-.2.73.73,0,0,1,.81.09.75.75,0,0,1,.24.78A2,2,0,0,1,20.2,8c-.69.54-.48.54-1.17,0a1.94,1.94,0,0,1-.78-1.08A.77.77,0,0,1,18.56,6a.82.82,0,0,1,.93.08Z"/><path class="cls-4" d="M3.76,8a3.83,3.83,0,0,1,.65-.22.71.71,0,0,1,.77.93,2.14,2.14,0,0,1-.39.71,6.93,6.93,0,0,1-.83.71.29.29,0,0,1-.27,0,11.62,11.62,0,0,1-1-.89,1.24,1.24,0,0,1-.26-.57.68.68,0,0,1,.29-.79.77.77,0,0,1,.87,0Z"/><path class="cls-4" d="M33.89,10.17a2.64,2.64,0,0,1,.62-.23.7.7,0,0,1,.78.94,2.19,2.19,0,0,1-.48.8,3.89,3.89,0,0,1-.73.6.27.27,0,0,1-.26,0,3.27,3.27,0,0,1-1-.94,2.06,2.06,0,0,1-.23-.55A.68.68,0,0,1,32.9,10a.8.8,0,0,1,.88,0A.58.58,0,0,1,33.89,10.17Z"/><path class="cls-4" d="M24.56,7.46A1.48,1.48,0,0,1,26,6.05a1.45,1.45,0,0,1,1.42,1.4A1.45,1.45,0,0,1,26,8.87,1.42,1.42,0,0,1,24.56,7.46Zm.59.09a1.28,1.28,0,0,0,.3.85.71.71,0,0,0,1.15,0,1.62,1.62,0,0,0-.05-1.89.72.72,0,0,0-1.08,0A1.58,1.58,0,0,0,25.15,7.55Z"/><path class="cls-4" d="M22.16,18a1.4,1.4,0,0,1-1.44-1.38,1.48,1.48,0,0,1,1.47-1.43,1.47,1.47,0,0,1,1.44,1.4A1.45,1.45,0,0,1,22.16,18ZM23,16.65a1.58,1.58,0,0,0-.29-.94.71.71,0,0,0-1.13,0,1.61,1.61,0,0,0,0,1.87.72.72,0,0,0,1.15,0A1.39,1.39,0,0,0,23,16.65Z"/><path class="cls-4" d="M27.14,13.45a1.4,1.4,0,0,1-1.43-1.39,1.45,1.45,0,0,1,1.47-1.41,1.4,1.4,0,1,1,0,2.8Zm-.89-1.35a3.7,3.7,0,0,0,.25.73.72.72,0,0,0,1.34,0,1.54,1.54,0,0,0-.08-1.66.71.71,0,0,0-1.2,0A2.14,2.14,0,0,0,26.25,12.1Z"/><path class="cls-4" d="M30.09,10.77s-.08.11-.13.12c-.21,0-.28.15-.28.35,0,.5,0,1,0,1.5a.49.49,0,0,0,.49.51,1.39,1.39,0,0,0,.49-.07A.47.47,0,0,0,31,12.7V11.24c0-.19-.07-.33-.29-.35,0,0-.07-.07-.11-.1s.08-.08.12-.08c.29,0,.58,0,.86,0l0,0s-.07.12-.12.13c-.24,0-.29.18-.29.39,0,.41,0,.83,0,1.25s-.2.82-.76.89a2.38,2.38,0,0,1-.84-.05.64.64,0,0,1-.51-.68c0-.45,0-.89,0-1.34,0-.22,0-.45-.32-.47,0,0,0-.07-.08-.1s.09-.07.13-.07c.39,0,.79,0,1.18,0Z"/><path class="cls-4" d="M18.5,17.91c.05,0,.09-.09.14-.1a.31.31,0,0,0,.28-.32c0-.57,0-1.14,0-1.71a.27.27,0,0,0-.28-.3c-.05,0-.08-.07-.13-.11l0,0h2.09l.06.62s0,.09-.06.09a.14.14,0,0,1-.11-.06c-.17-.51-.58-.5-1-.48v1a.44.44,0,0,0,.55-.38.42.42,0,0,1,.08-.12c0,.05.09.09.09.14,0,.33,0,.66,0,1,0,0,0,.09-.06.13s-.1-.07-.11-.12c-.11-.35-.19-.42-.55-.41,0,.3,0,.6,0,.9,0,.09.16.16.25.23l.14.12,0,0h-1.3Z"/><path class="cls-4" d="M22.94,10.71c.41,0,.82,0,1.23,0,0,0,.07.06.11.09s-.07.08-.11.09c-.22.07-.24.09-.12.28l.48.74c.16-.25.32-.47.45-.71s.05-.27-.15-.31c0,0-.07-.07-.1-.1s.08-.08.12-.08c.28,0,.56,0,.9,0a1.18,1.18,0,0,1-.11.18,3.26,3.26,0,0,0-.4.34,7.4,7.4,0,0,0-.44.65.71.71,0,0,0-.16.51,3.23,3.23,0,0,1,0,.44c0,.21.05.36.29.39.05,0,.08.08.12.12l0,.05h-1.2s-.08-.05-.12-.08.06-.09.1-.09c.27,0,.29-.21.31-.42a1.35,1.35,0,0,0-.28-1c-.16-.2-.28-.43-.44-.62a1.5,1.5,0,0,0-.37-.28,1.71,1.71,0,0,1-.11-.14Z"/><path class="cls-4" d="M22.89,3.11A.55.55,0,0,1,23,3a.51.51,0,0,1,.57,0,.49.49,0,0,1,.17.55,1.82,1.82,0,0,1-.89,1,.15.15,0,0,1-.13,0,2.13,2.13,0,0,1-.81-.82c-.18-.4,0-.8.37-.82A2.28,2.28,0,0,1,22.89,3.11Z"/><path class="cls-4" d="M34.89,18.76a2.45,2.45,0,0,1,.33-.16.51.51,0,0,1,.64.61,1.6,1.6,0,0,1-.65.86c-.31.24-.31.24-.62,0a1.82,1.82,0,0,1-.6-.72.55.55,0,0,1,.16-.67.56.56,0,0,1,.66,0Z"/><path class="cls-4" d="M19.6,13a2.12,2.12,0,0,1,.31-.14.5.5,0,0,1,.65.6,1.33,1.33,0,0,1-.55.78c-.47.36-.34.38-.79,0a2.54,2.54,0,0,1-.53-.69.5.5,0,0,1,.17-.63.56.56,0,0,1,.65,0Z"/><path class="cls-4" d="M3.38,4a1.84,1.84,0,0,1,.31-.16.52.52,0,0,1,.64.66,1.8,1.8,0,0,1-.88,1,.16.16,0,0,1-.15,0,10,10,0,0,1-.74-.71.69.69,0,0,1-.12-.29.49.49,0,0,1,.17-.52.52.52,0,0,1,.55-.07A1.59,1.59,0,0,1,3.38,4Z"/><path class="cls-4" d="M9.83,7.78a.53.53,0,0,1,.94.24.72.72,0,0,1-.11.48,8.65,8.65,0,0,1-.75.73.16.16,0,0,1-.15,0,2,2,0,0,1-.85-.91.54.54,0,0,1,.15-.65.57.57,0,0,1,.67,0Z"/><path class="cls-4" d="M22.12,8.64c.34-.06.38-.1.38-.44V6.68c0-.22-.06-.36-.3-.39,0,0-.07-.07-.11-.11l0-.06h1.24s.09,0,.08.06a.13.13,0,0,1-.07.1c-.29,0-.32.22-.32.45,0,.48,0,1,0,1.44,0,.29.14.39.42.43a.67.67,0,0,0,.83-.54c0-.15,0-.15.2-.16,0,.15,0,.3,0,.44s0,.28,0,.45H22.28C22.17,8.8,22.07,8.8,22.12,8.64Z"/><path class="cls-4" d="M22.55,10a1.26,1.26,0,0,1-.66.8.1.1,0,0,1-.09,0,4.68,4.68,0,0,1-.57-.61.34.34,0,0,1,.07-.48.4.4,0,0,1,.47,0,.26.26,0,0,0,.21,0A.37.37,0,0,1,22.55,10Z"/><path class="cls-4" d="M8.13,4.84a.85.85,0,0,1-.36.57c-.37.31-.29.33-.68,0A1.67,1.67,0,0,1,6.78,5a.37.37,0,0,1,.53-.47.2.2,0,0,0,.24,0A.37.37,0,0,1,8.13,4.84Z"/><path class="cls-4" d="M31,21c.34-.21.64-.13.68.18a.48.48,0,0,1-.07.32,5.71,5.71,0,0,1-.55.55.14.14,0,0,1-.14,0,3.56,3.56,0,0,1-.49-.46.45.45,0,0,1,0-.6C30.57,20.83,30.74,20.83,31,21Z"/><path class="cls-4" d="M28.18,3.49c.34-.2.62-.14.68.16A.5.5,0,0,1,28.8,4a5.6,5.6,0,0,1-.54.55.19.19,0,0,1-.15,0A5.16,5.16,0,0,1,27.55,4a.36.36,0,0,1,.08-.5.36.36,0,0,1,.48,0Z"/><path class="cls-4" d="M20.56,20.61a2.85,2.85,0,0,1,.3-.11.37.37,0,0,1,.37.54,1.29,1.29,0,0,1-.59.63.14.14,0,0,1-.15,0A4.16,4.16,0,0,1,20,21.2a.45.45,0,0,1,0-.6C20.14,20.45,20.31,20.46,20.56,20.61Z"/><path class="cls-4" d="M35.07,6.18a1.38,1.38,0,0,1,.22-.1.35.35,0,0,1,.47.39,1.26,1.26,0,0,1-.65.78.12.12,0,0,1-.11,0,3.71,3.71,0,0,1-.5-.47.44.44,0,0,1,0-.58C34.63,6,34.81,6,35.07,6.18Z"/><path class="cls-4" d="M33.76,3a.92.92,0,0,1-.36.56c-.31.27-.36.27-.64,0a1.65,1.65,0,0,1-.35-.51.29.29,0,0,1,.13-.4.72.72,0,0,1,.41,0c.1,0,.15.05.24,0C33.47,2.49,33.76,2.66,33.76,3Z"/></g></g></svg>