<svg xmlns="http://www.w3.org/2000/svg" viewBox="0 0 38.55 24.66"><defs><style>.cls-1{isolation:isolate;}.cls-2{opacity:0.15;}.cls-2,.cls-3{mix-blend-mode:multiply;}.cls-4{fill:#fff;}</style></defs><title>convert-FIX-SVG-03</title><g class="cls-1"><g id="Layer_1" data-name="Layer 1"><g class="cls-2"><path d="M32.15,10.77a3.78,3.78,0,0,0,1.15,1.36H32c.26-.11.14-.22.06-.34-.2-.28-.4-.58-.61-.86a.43.43,0,0,0-.26-.13c-.24,0-.49,0-.76,0,0,.37,0,.73,0,1.09,0,.08.1.15.16.24H29.49c.26-.16.19-.4.19-.61q0-1.18,0-2.37a1.54,1.54,0,0,0-.11-.42h.1c.69,0,1.39,0,2.08,0a3.58,3.58,0,0,1,.84.17.59.59,0,0,1,.41.47C33.17,10.16,32.94,10.58,32.15,10.77ZM30.43,9.31v.9c.52,0,1,0,1.54,0,.27,0,.35-.17.35-.44s-.08-.43-.35-.44C31.46,9.29,31,9.31,30.43,9.31Z"/><path d="M16.06,10.77a3.68,3.68,0,0,0,1.14,1.36H15.88c.26-.11.14-.22.06-.34-.2-.28-.4-.58-.61-.86a.41.41,0,0,0-.25-.13c-.25,0-.49,0-.76,0,0,.37,0,.73,0,1.09,0,.08.1.15.16.24H13.4c.25-.16.19-.4.19-.61,0-.79,0-1.58,0-2.37a1.94,1.94,0,0,0-.1-.42h.09c.7,0,1.39,0,2.08,0a3.48,3.48,0,0,1,.84.17.59.59,0,0,1,.41.47C17.08,10.16,16.84,10.58,16.06,10.77Zm-1.74-.53h1.35a1,1,0,0,0,.23,0c.24-.06.32-.18.32-.44s-.08-.42-.33-.44c-.46,0-.92,0-1.39-.05h-.18Z"/><path d="M19.38,15.39a1.87,1.87,0,0,1,1.88,1.28,1.72,1.72,0,0,1-1.45,2.22,2.71,2.71,0,0,1-1.17-.06,1.71,1.71,0,0,1-1.23-1.76,1.66,1.66,0,0,1,1.31-1.57C18.94,15.45,19.16,15.43,19.38,15.39Zm-1.21,1.76a1.14,1.14,0,0,0,1.18,1.19,1.17,1.17,0,0,0,1.23-1.16A1.14,1.14,0,0,0,19.38,16,1.12,1.12,0,0,0,18.17,17.15Z"/><path d="M13,10.54a1.71,1.71,0,0,1-1.49,1.61,2.7,2.7,0,0,1-1.2-.05,1.71,1.71,0,0,1-1.23-1.74,1.66,1.66,0,0,1,1.29-1.59,2.45,2.45,0,0,1,1.56.07A1.7,1.7,0,0,1,13,10.54Zm-3.16-.11A1.13,1.13,0,0,0,11,11.6a1.16,1.16,0,0,0,1.22-1.16A1.14,1.14,0,0,0,11,9.27,1.13,1.13,0,0,0,9.82,10.43Z"/><path d="M25.8,8.72h2.86A2,2,0,0,0,29,8.64v.83c-.09-.27-.32-.2-.5-.2H26.66v.8h1.41c.06,0,.12-.09.2-.16v.89c-.1-.24-.27-.22-.44-.22H26.66v1h2c.17,0,.32,0,.39-.2v.83a2.57,2.57,0,0,0-.4-.08H25.77c.2-.17.14-.39.14-.59,0-.81,0-1.61,0-2.42A2.39,2.39,0,0,0,25.8,8.72Z"/><path d="M17.62,8.72h2.86a2,2,0,0,0,.38-.08v.83c-.09-.27-.31-.2-.5-.2H18.48v.8h1.41c.07,0,.13-.09.21-.16v.89c-.11-.24-.28-.22-.45-.22H18.48v1h2c.16,0,.32,0,.39-.2v.83a2.7,2.7,0,0,0-.41-.08H17.59c.2-.17.15-.39.15-.59,0-.81,0-1.61,0-2.42A1.75,1.75,0,0,0,17.62,8.72Z"/><path d="M24.45,15.46h.91a2.77,2.77,0,0,0-.09.54c0,.57,0,1.13,0,1.69,0,.74-.26,1-1,1.17a3.25,3.25,0,0,1-1.61-.06,1,1,0,0,1-.75-1c0-.64,0-1.29,0-1.93a2.19,2.19,0,0,0-.11-.4h1c-.2.13-.15.33-.15.51v1.53c0,.52.2.75.72.8a2.42,2.42,0,0,0,.71,0,.57.57,0,0,0,.51-.59c0-.64,0-1.29,0-1.94C24.58,15.67,24.5,15.58,24.45,15.46Z"/><path d="M34.69,2.43a.88.88,0,0,1,1.18.16.67.67,0,0,1-.09,1,1.84,1.84,0,0,1-1,.3l-1,.07c-.12,0-.17,0-.19-.13-.11-.42-.23-.84-.34-1.26a1.3,1.3,0,0,1,0-.87.65.65,0,0,1,.83-.39A.9.9,0,0,1,34.69,2.43Z"/><path d="M34.66,22.22a.84.84,0,0,1-.39,1,.69.69,0,0,1-1.13-.57A2.05,2.05,0,0,1,33.2,22c.1-.44.23-.87.35-1.33l1.08.08c.25,0,.49.08.73.12l.1,0c.5.2.71.61.51,1a.88.88,0,0,1-1.22.38Z"/><path d="M3.85,22.22a.91.91,0,0,1-1.14-.13A.68.68,0,0,1,2.79,21a1.91,1.91,0,0,1,1-.28l1.08-.06a.22.22,0,0,1,.17.11c.12.43.24.87.35,1.31a1.32,1.32,0,0,1,0,.83.65.65,0,0,1-.86.38A.89.89,0,0,1,3.85,22.22Z"/><path d="M3.88,2.41a.83.83,0,0,1,.41-1A.7.7,0,0,1,5.41,2a2.42,2.42,0,0,1-.06.66C5.24,3.1,5.12,3.53,5,4c-.63-.09-1.25-.13-1.86-.27a.7.7,0,0,1-.56-1,.89.89,0,0,1,1.23-.4Z"/><path d="M14.2,1.28a2.22,2.22,0,0,1,.11-.22A.76.76,0,0,1,15.2.67a.69.69,0,0,1,.46.78,1.53,1.53,0,0,1-.54,1,8.46,8.46,0,0,1-.81.67.23.23,0,0,1-.18,0A3.49,3.49,0,0,1,13,2a1.6,1.6,0,0,1-.2-.63.66.66,0,0,1,.51-.75.8.8,0,0,1,.85.42A1.61,1.61,0,0,1,14.2,1.28Z"/><path d="M24.35,23.36a1.76,1.76,0,0,1-.12.24.77.77,0,0,1-.88.37.69.69,0,0,1-.47-.78,1.62,1.62,0,0,1,.55-1c.25-.23.53-.44.8-.65a.24.24,0,0,1,.2,0,3.48,3.48,0,0,1,1.13,1.06,1.62,1.62,0,0,1,.23.67.65.65,0,0,1-.5.75.79.79,0,0,1-.86-.43A.81.81,0,0,1,24.35,23.36Z"/><path d="M37.34,12.33l.22.11a.77.77,0,0,1,.39.89.7.7,0,0,1-.77.46,1.21,1.21,0,0,1-.81-.36c-.31-.31-.59-.66-.88-1a.19.19,0,0,1,0-.18,3.54,3.54,0,0,1,1.07-1.14,1.74,1.74,0,0,1,.69-.22.62.62,0,0,1,.71.46.77.77,0,0,1-.38.88Z"/><path d="M24.36,1.28c.06-.11.1-.22.16-.31A.78.78,0,0,1,25.4.68a.7.7,0,0,1,.43.75,1.29,1.29,0,0,1-.38.84c-.31.3-.65.58-1,.85a.18.18,0,0,1-.19,0A3.55,3.55,0,0,1,23.12,2a1.64,1.64,0,0,1-.2-.65.65.65,0,0,1,.52-.74.79.79,0,0,1,.86.47Z"/><path d="M1.14,12.34a2.89,2.89,0,0,1-.47-.45.65.65,0,0,1,0-.74.71.71,0,0,1,.7-.3,1.24,1.24,0,0,1,.83.38c.3.31.57.64.85,1a.23.23,0,0,1,0,.18A3.69,3.69,0,0,1,2,13.56a1.74,1.74,0,0,1-.66.2.64.64,0,0,1-.71-.47A.78.78,0,0,1,1,12.41Z"/><path d="M14.2,23.39a3,3,0,0,1-.34.44.68.68,0,0,1-1.14-.61,1.51,1.51,0,0,1,.53-1c.26-.24.54-.45.82-.67a.19.19,0,0,1,.18,0,3.54,3.54,0,0,1,1.2,1.14,1.47,1.47,0,0,1,.17.62.63.63,0,0,1-.52.73.79.79,0,0,1-.86-.47C14.22,23.47,14.21,23.42,14.2,23.39Z"/><path d="M24.17,8.74h1.11c-.11.19-.24.39-.34.59-.37.78-.73,1.57-1.1,2.36-.08.16-.13.31.14.44H22.7c.28-.14.19-.3.11-.47-.38-.82-.75-1.64-1.14-2.45a3.31,3.31,0,0,0-.29-.47h1.21c-.26.13-.2.29-.13.44.3.64.59,1.28.9,2,.12-.26.22-.49.32-.72.2-.42.39-.85.58-1.27A.27.27,0,0,0,24.17,8.74Z"/><path d="M6.44,12.14h-1a3,3,0,0,0,.09-.49c0-.8,0-1.61,0-2.41,0-.18,0-.37-.16-.51H8.27a1.68,1.68,0,0,0,.36-.08v.82c-.09-.22-.28-.19-.46-.19H6.28v.85h1.2c.16,0,.32,0,.42-.16v.77a2.52,2.52,0,0,0-.46-.1c-.38,0-.76,0-1.17,0,0,.43,0,.85,0,1.27C6.28,12,6.37,12,6.44,12.14Z"/><path d="M1.74,5.55c.23.33.41.64.63.91s.48.51.71.76L1.43,8.62l-.78-.7a.31.31,0,0,1-.05-.2c0-.48.08-1,.13-1.43a.23.23,0,0,1,.1-.19Z"/><path d="M1.7,18.91l-.91-.6a.36.36,0,0,1-.11-.21c0-.46-.06-.92-.08-1.39a.35.35,0,0,1,.08-.22c.24-.23.5-.44.76-.67l1.67,1.45A5.36,5.36,0,0,0,1.7,18.91Z"/><path d="M35.46,17.43,37.11,16c.26.24.53.47.78.71a.2.2,0,0,1,0,.17c0,.49-.08,1-.13,1.47a.18.18,0,0,1-.08.16c-.31.2-.62.38-.93.57-.23-.33-.41-.64-.63-.92S35.69,17.67,35.46,17.43Z"/><path d="M37.1,8.83,35.44,7.38a5.43,5.43,0,0,0,1.4-1.64c.33.21.63.4.93.61a.26.26,0,0,1,.09.18c0,.47.06.94.08,1.41a.26.26,0,0,1-.06.19Z"/><path d="M7.52,23.12,9,21.44l.86,1c.18.19.35.39.52.58s.09.15,0,.24-.37.42-.57.62a.3.3,0,0,1-.21.1H8.39a.24.24,0,0,1-.18-.07C8,23.65,7.75,23.39,7.52,23.12Z"/><path d="M31,1.52,29.54,3.2c-.49-.55-1-1.07-1.42-1.61a.21.21,0,0,1,0-.17c.19-.23.38-.45.59-.66a.28.28,0,0,1,.2-.08c.4,0,.81,0,1.21,0a.31.31,0,0,1,.19.06Z"/><path d="M20.86,1.52,19.37,3.2,17.88,1.52l.71-.79a.2.2,0,0,1,.15,0H20a.26.26,0,0,1,.17.07C20.41,1,20.63,1.25,20.86,1.52Z"/><path d="M17.68,23.12l1.49-1.68,1.49,1.68c-.24.27-.46.53-.7.78a.24.24,0,0,1-.19.06h-1.2a.38.38,0,0,1-.24-.11C18.11,23.62,17.91,23.38,17.68,23.12Z"/><path d="M30.83,23.12l-.7.78A.22.22,0,0,1,30,24H28.67a.21.21,0,0,1-.13-.05l-.69-.79,1.48-1.68Z"/><path d="M10.7,1.52,9.21,3.2,7.72,1.52l.72-.8s.1,0,.16,0H9.82a.35.35,0,0,1,.18,0Z"/><path d="M15.59,18.87H14.51c.3-.22.15-.53.19-.8A1.41,1.41,0,0,0,14.35,17c-.28-.34-.51-.71-.77-1.06a4.86,4.86,0,0,0-.38-.41h1.37c-.31.14-.21.29-.1.45s.39.57.6.88c.24-.35.48-.67.69-1,0-.06,0-.19,0-.31H16.9c-.14.17-.3.34-.44.53-.32.43-.62.87-.93,1.3A2.16,2.16,0,0,0,15.59,18.87Z"/><path d="M32.35,11a3.73,3.73,0,0,0,1.14,1.35H32.18c.26-.1.14-.21.06-.33-.21-.29-.4-.58-.62-.86a.38.38,0,0,0-.25-.13c-.24,0-.49,0-.76,0,0,.38,0,.74,0,1.1,0,.07.09.15.16.24H29.69c.26-.16.19-.4.19-.61q0-1.19,0-2.37a2,2,0,0,0-.11-.42h.1c.69,0,1.38,0,2.07,0a3.54,3.54,0,0,1,.85.16.61.61,0,0,1,.41.48C33.37,10.36,33.14,10.78,32.35,11ZM30.62,9.51v.89c.53,0,1,0,1.55,0,.26,0,.35-.17.35-.44s-.08-.43-.35-.44C31.66,9.49,31.15,9.51,30.62,9.51Z"/><path d="M16.26,11a3.55,3.55,0,0,0,1.14,1.35H16.08c.26-.1.14-.21.06-.33-.2-.29-.4-.58-.61-.86a.43.43,0,0,0-.26-.13c-.24,0-.49,0-.75,0,0,.38,0,.74,0,1.1,0,.07.1.15.16.24H13.59c.26-.16.19-.4.19-.61q0-1.19,0-2.37a1.94,1.94,0,0,0-.1-.42h.09c.69,0,1.39,0,2.08,0a3.56,3.56,0,0,1,.84.16.61.61,0,0,1,.41.48C17.27,10.36,17,10.78,16.26,11Zm-1.74-.53h1.35a.85.85,0,0,0,.22,0,.38.38,0,0,0,.33-.44c0-.27-.08-.42-.33-.44-.46,0-.92,0-1.39,0h-.18Z"/><path d="M19.58,15.59a1.86,1.86,0,0,1,1.88,1.28A1.73,1.73,0,0,1,20,19.09,2.76,2.76,0,0,1,18.83,19a1.71,1.71,0,0,1-1.22-1.76,1.66,1.66,0,0,1,1.31-1.57C19.13,15.65,19.36,15.63,19.58,15.59Zm-1.21,1.76a1.14,1.14,0,0,0,1.18,1.19,1.16,1.16,0,0,0,1.22-1.16,1.14,1.14,0,0,0-1.19-1.18A1.13,1.13,0,0,0,18.37,17.35Z"/><path d="M13.17,10.74a1.7,1.7,0,0,1-1.49,1.61,2.52,2.52,0,0,1-1.19-.06,1.7,1.7,0,0,1-1.23-1.74A1.66,1.66,0,0,1,10.55,9,2.42,2.42,0,0,1,12.1,9,1.67,1.67,0,0,1,13.17,10.74ZM10,10.62a1.14,1.14,0,0,0,1.19,1.18,1.16,1.16,0,0,0,1.22-1.16,1.14,1.14,0,0,0-1.2-1.17A1.13,1.13,0,0,0,10,10.62Z"/><path d="M26,8.92h2.85a1.72,1.72,0,0,0,.38-.08v.83c-.09-.27-.31-.2-.49-.2H26.86v.8h1.41c.06,0,.12-.1.2-.16V11c-.1-.24-.27-.22-.44-.22H26.86v1h2c.16,0,.32,0,.39-.2v.83a1.89,1.89,0,0,0-.4-.08H26c.2-.17.14-.39.14-.59,0-.81,0-1.61,0-2.42A2,2,0,0,0,26,8.92Z"/><path d="M17.82,8.92h2.86a2,2,0,0,0,.38-.08v.83c-.09-.27-.31-.2-.5-.2H18.68v.8h1.41c.07,0,.13-.1.21-.16V11c-.11-.24-.28-.22-.45-.22H18.68v1h2c.17,0,.33,0,.4-.2v.83a2,2,0,0,0-.41-.08H17.79c.2-.17.15-.39.15-.59,0-.81,0-1.61,0-2.42A1.54,1.54,0,0,0,17.82,8.92Z"/><path d="M24.64,15.66h.91c0,.19-.08.37-.09.54,0,.56,0,1.13,0,1.69,0,.74-.26,1-1,1.17A3.25,3.25,0,0,1,22.85,19a1,1,0,0,1-.75-1c0-.65,0-1.29,0-1.93a1.56,1.56,0,0,0-.1-.4h1c-.2.13-.15.33-.15.51v1.53c0,.52.2.75.72.8a2.82,2.82,0,0,0,.71,0,.57.57,0,0,0,.51-.59c0-.65,0-1.29,0-1.94C24.78,15.87,24.7,15.78,24.64,15.66Z"/><path d="M34.89,2.63a.88.88,0,0,1,1.18.16.66.66,0,0,1-.1,1,1.81,1.81,0,0,1-1,.3l-1,.07a.15.15,0,0,1-.19-.13c-.1-.42-.23-.84-.33-1.26a1.39,1.39,0,0,1,0-.88.66.66,0,0,1,.84-.38A.91.91,0,0,1,34.89,2.63Z"/><path d="M34.86,22.42a.84.84,0,0,1-.39,1,.7.7,0,0,1-1.14-.57,2.36,2.36,0,0,1,.07-.65c.1-.44.23-.87.35-1.33.37,0,.72,0,1.08.08s.49.07.73.11l.1,0c.5.19.71.61.51,1a.88.88,0,0,1-1.22.39Z"/><path d="M4.05,22.42a.9.9,0,0,1-1.14-.13A.67.67,0,0,1,3,21.2a1.82,1.82,0,0,1,1-.28L5,20.85a.22.22,0,0,1,.16.12c.13.43.25.87.36,1.3a1.31,1.31,0,0,1,0,.83.65.65,0,0,1-.86.39A.89.89,0,0,1,4.05,22.42Z"/><path d="M4.08,2.61a.83.83,0,0,1,.41-1,.69.69,0,0,1,1.11.56,2.15,2.15,0,0,1-.06.67c-.1.44-.23.87-.36,1.36C4.55,4.14,3.93,4.1,3.32,4a.71.71,0,0,1-.56-1A.88.88,0,0,1,4,2.57Z"/><path d="M14.4,1.48c0-.1.07-.17.1-.23a.78.78,0,0,1,.9-.38.69.69,0,0,1,.46.78,1.56,1.56,0,0,1-.54,1c-.25.24-.54.45-.82.67a.19.19,0,0,1-.18,0,3.52,3.52,0,0,1-1.17-1.1A1.6,1.6,0,0,1,13,1.6a.65.65,0,0,1,.51-.75.8.8,0,0,1,.85.42Z"/><path d="M24.54,23.56c-.05.1-.07.17-.11.24a.78.78,0,0,1-.88.37.69.69,0,0,1-.47-.78,1.62,1.62,0,0,1,.55-1c.25-.23.53-.44.8-.65a.23.23,0,0,1,.2,0,3.37,3.37,0,0,1,1.13,1.06,1.78,1.78,0,0,1,.23.67.66.66,0,0,1-.51.75.78.78,0,0,1-.85-.43A1.37,1.37,0,0,1,24.54,23.56Z"/><path d="M37.54,12.53a2.22,2.22,0,0,1,.22.11.77.77,0,0,1,.39.89.7.7,0,0,1-.77.46,1.21,1.21,0,0,1-.81-.36c-.31-.31-.59-.66-.88-1a.19.19,0,0,1,0-.18,3.68,3.68,0,0,1,1.07-1.15,2.14,2.14,0,0,1,.69-.22.64.64,0,0,1,.71.47.78.78,0,0,1-.39.88Z"/><path d="M24.56,1.48c.06-.11.1-.22.16-.31A.78.78,0,0,1,25.6.88a.68.68,0,0,1,.42.75,1.21,1.21,0,0,1-.37.83c-.31.31-.65.58-1,.86a.19.19,0,0,1-.18,0,3.66,3.66,0,0,1-1.16-1.09,1.69,1.69,0,0,1-.2-.65.64.64,0,0,1,.52-.74.78.78,0,0,1,.86.47Z"/><path d="M1.33,12.54a3.93,3.93,0,0,1-.46-.45.65.65,0,0,1,0-.74.69.69,0,0,1,.7-.3,1.24,1.24,0,0,1,.83.38c.3.3.57.64.84,1a.2.2,0,0,1,0,.18,3.61,3.61,0,0,1-1.12,1.18,1.64,1.64,0,0,1-.65.2.64.64,0,0,1-.71-.47.78.78,0,0,1,.39-.88A.61.61,0,0,1,1.33,12.54Z"/><path d="M14.39,23.59a3,3,0,0,1-.33.44.69.69,0,0,1-1.14-.62,1.48,1.48,0,0,1,.53-1c.25-.24.54-.45.82-.67a.19.19,0,0,1,.18,0,3.51,3.51,0,0,1,1.19,1.14,1.35,1.35,0,0,1,.18.62.64.64,0,0,1-.52.73.79.79,0,0,1-.86-.47Z"/><path d="M24.37,8.93h1.11c-.12.2-.24.39-.34.6-.37.78-.73,1.57-1.1,2.35-.08.17-.13.32.14.45H22.89c.28-.14.2-.3.12-.47-.38-.82-.75-1.64-1.14-2.45a3.31,3.31,0,0,0-.29-.47h1.21c-.26.13-.2.28-.13.44l.9,2c.11-.27.22-.49.32-.72.19-.42.38-.85.58-1.27C24.53,9.19,24.55,9.06,24.37,8.93Z"/><path d="M6.64,12.33h-1a2.7,2.7,0,0,0,.09-.48c0-.8,0-1.61,0-2.41,0-.18,0-.38-.16-.51H8.47a1.68,1.68,0,0,0,.36-.08v.82c-.1-.22-.28-.19-.46-.19H6.48v.85H7.67c.17,0,.33,0,.43-.16v.77a2.52,2.52,0,0,0-.46-.1c-.38,0-.76,0-1.17,0,0,.44,0,.86,0,1.28C6.48,12.17,6.57,12.24,6.64,12.33Z"/><path d="M1.94,5.74c.23.34.41.64.63.92s.48.51.71.75L1.63,8.82c-.26-.23-.52-.46-.78-.71,0,0,0-.12,0-.19L.92,6.49A.27.27,0,0,1,1,6.3C1.33,6.1,1.64,5.93,1.94,5.74Z"/><path d="M1.9,19.1c-.32-.2-.62-.39-.91-.59a.33.33,0,0,1-.11-.21c0-.46-.06-.93-.08-1.39a.35.35,0,0,1,.08-.22c.24-.23.49-.44.76-.68l1.67,1.46A5.32,5.32,0,0,0,1.9,19.1Z"/><path d="M35.66,17.62l1.65-1.4c.26.23.53.47.78.71a.23.23,0,0,1,0,.17c0,.49-.08,1-.13,1.47a.23.23,0,0,1-.08.16c-.31.2-.62.38-.93.56-.23-.32-.41-.63-.63-.91S35.89,17.87,35.66,17.62Z"/><path d="M37.3,9,35.63,7.57A5.34,5.34,0,0,0,37,5.93c.32.22.63.41.93.62a.26.26,0,0,1,.09.18c0,.47.06.94.08,1.41a.31.31,0,0,1-.06.19Z"/><path d="M7.71,23.32,9.2,21.64l.87,1c.18.19.34.39.52.58s.09.15,0,.23-.37.43-.57.63a.3.3,0,0,1-.21.1c-.41,0-.82,0-1.23,0a.26.26,0,0,1-.19-.07C8.17,23.85,8,23.59,7.71,23.32Z"/><path d="M31.23,1.72,29.73,3.4,28.32,1.79s0-.13,0-.17c.19-.23.38-.45.59-.67a.32.32,0,0,1,.2-.07c.4,0,.8,0,1.21,0a.26.26,0,0,1,.19.06Z"/><path d="M21.06,1.72,19.57,3.4,18.08,1.72c.24-.27.47-.54.71-.79a.2.2,0,0,1,.15-.05c.42,0,.85,0,1.27,0a.26.26,0,0,1,.17.07Z"/><path d="M17.88,23.32l1.49-1.68,1.49,1.68c-.24.27-.46.53-.7.78a.29.29,0,0,1-.19.06c-.4,0-.8,0-1.21,0a.36.36,0,0,1-.23-.11C18.31,23.82,18.11,23.58,17.88,23.32Z"/><path d="M31,23.32l-.7.78a.25.25,0,0,1-.15.06H28.87a.18.18,0,0,1-.13-.06l-.7-.78,1.49-1.68Z"/><path d="M10.9,1.72,9.41,3.4,7.92,1.72c.24-.28.47-.54.72-.81,0,0,.1,0,.16,0,.4,0,.81,0,1.22,0a.23.23,0,0,1,.17.05C10.43,1.18,10.65,1.44,10.9,1.72Z"/><path d="M15.79,19.07H14.71c.3-.23.14-.53.18-.8a1.33,1.33,0,0,0-.35-1.12c-.27-.34-.5-.71-.76-1.06a4.86,4.86,0,0,0-.38-.41h1.37c-.31.14-.21.29-.1.45s.39.57.6.88c.24-.35.48-.68.69-1,0-.06,0-.2-.06-.31h1.2c-.14.17-.3.34-.44.53-.32.43-.63.87-.94,1.3A2.21,2.21,0,0,0,15.79,19.07Z"/></g><g class="cls-3"><path d="M32,10.63A3.73,3.73,0,0,0,33.15,12H31.84c.26-.1.14-.22.06-.33-.21-.29-.4-.58-.62-.86a.38.38,0,0,0-.25-.13c-.24,0-.49,0-.76,0,0,.38,0,.74,0,1.1,0,.07.09.15.16.24H29.35c.26-.16.19-.4.19-.61q0-1.19,0-2.37a2,2,0,0,0-.11-.42h.1c.69,0,1.38,0,2.07,0a3.54,3.54,0,0,1,.85.16.61.61,0,0,1,.41.48C33,10,32.8,10.44,32,10.63ZM30.28,9.17v.89c.53,0,1,0,1.55,0,.26,0,.35-.17.35-.44s-.08-.43-.35-.44C31.32,9.15,30.81,9.17,30.28,9.17Z"/><path d="M15.91,10.63A3.64,3.64,0,0,0,17.06,12H15.74c.26-.1.14-.21.06-.33-.2-.29-.4-.58-.61-.86a.43.43,0,0,0-.26-.13c-.24,0-.49,0-.75,0,0,.38,0,.74,0,1.1,0,.07.1.15.16.24H13.25c.26-.16.19-.4.19-.61q0-1.19,0-2.37a1.54,1.54,0,0,0-.11-.42h.1c.69,0,1.39,0,2.08,0a3.56,3.56,0,0,1,.84.16.61.61,0,0,1,.41.48C16.93,10,16.7,10.44,15.91,10.63Zm-1.73-.53h1.35a.85.85,0,0,0,.22,0,.38.38,0,0,0,.33-.44c0-.27-.08-.42-.33-.44-.46,0-.92,0-1.39,0h-.18Z"/><path d="M19.24,15.25a1.83,1.83,0,0,1,1.87,1.28,1.73,1.73,0,0,1-1.44,2.22,2.76,2.76,0,0,1-1.18-.06,1.73,1.73,0,0,1-1.23-1.77,1.68,1.68,0,0,1,1.32-1.56C18.79,15.31,19,15.29,19.24,15.25ZM18,17a1.14,1.14,0,0,0,1.18,1.19A1.16,1.16,0,0,0,20.43,17a1.14,1.14,0,0,0-1.19-1.18A1.13,1.13,0,0,0,18,17Z"/><path d="M12.83,10.4A1.7,1.7,0,0,1,11.34,12,2.52,2.52,0,0,1,10.15,12a1.7,1.7,0,0,1-1.23-1.74,1.66,1.66,0,0,1,1.29-1.58,2.42,2.42,0,0,1,1.55.07A1.67,1.67,0,0,1,12.83,10.4Zm-3.15-.12a1.14,1.14,0,0,0,1.19,1.18,1.16,1.16,0,0,0,1.22-1.16,1.14,1.14,0,0,0-1.2-1.17A1.13,1.13,0,0,0,9.68,10.28Z"/><path d="M25.66,8.58h2.85a1.72,1.72,0,0,0,.38-.08v.83c-.09-.27-.31-.2-.49-.2H26.52v.8h1.41c.06,0,.12-.1.2-.16v.89c-.11-.24-.27-.22-.44-.22H26.52v1h2c.16,0,.32,0,.39-.2v.82a2.79,2.79,0,0,0-.4-.07H25.63c.2-.17.14-.39.14-.59,0-.81,0-1.61,0-2.42A2,2,0,0,0,25.66,8.58Z"/><path d="M17.48,8.58h2.86a2,2,0,0,0,.38-.08v.83c-.09-.27-.31-.2-.5-.2H18.34v.8h1.41c.07,0,.13-.1.21-.16v.89c-.11-.24-.28-.22-.45-.22H18.34v1h2c.17,0,.33,0,.4-.2v.82a2.93,2.93,0,0,0-.41-.07H17.45c.2-.17.15-.39.15-.59,0-.81,0-1.61,0-2.42A1.54,1.54,0,0,0,17.48,8.58Z"/><path d="M24.3,15.32h.91c0,.19-.08.37-.09.54,0,.56,0,1.13,0,1.69,0,.74-.26,1-1,1.17a3.25,3.25,0,0,1-1.61-.06.94.94,0,0,1-.75-1c0-.65,0-1.29,0-1.93a1.56,1.56,0,0,0-.1-.4h1c-.2.13-.15.33-.15.51v1.53c0,.52.2.75.72.8a2.82,2.82,0,0,0,.71,0,.57.57,0,0,0,.51-.59c0-.65,0-1.29,0-1.94C24.44,15.53,24.36,15.44,24.3,15.32Z"/><path d="M34.55,2.29a.87.87,0,0,1,1.17.16.66.66,0,0,1-.09,1,1.81,1.81,0,0,1-1,.3l-1,.07a.15.15,0,0,1-.19-.13c-.1-.42-.23-.84-.33-1.27a1.37,1.37,0,0,1,0-.87.66.66,0,0,1,.84-.38A.9.9,0,0,1,34.55,2.29Z"/><path d="M34.52,22.08a.84.84,0,0,1-.39,1A.7.7,0,0,1,33,22.49a2.36,2.36,0,0,1,.07-.65c.1-.44.23-.87.35-1.33.37,0,.72,0,1.08.08s.49.07.73.11l.1,0c.5.19.71.61.51,1a.88.88,0,0,1-1.22.39Z"/><path d="M3.71,22.08A.9.9,0,0,1,2.57,22a.67.67,0,0,1,.08-1.09,1.82,1.82,0,0,1,1-.28c.36,0,.72-.06,1.08-.07a.22.22,0,0,1,.16.12c.13.43.25.87.36,1.3a1.31,1.31,0,0,1,0,.83.65.65,0,0,1-.87.39A.89.89,0,0,1,3.71,22.08Z"/><path d="M3.74,2.27a.83.83,0,0,1,.41-1,.68.68,0,0,1,1.11.56,2.15,2.15,0,0,1-.06.67C5.1,3,5,3.39,4.84,3.88A18.5,18.5,0,0,1,3,3.62a.71.71,0,0,1-.56-1,.88.88,0,0,1,1.23-.4Z"/><path d="M14.06,1.14c0-.1.07-.17.1-.23a.78.78,0,0,1,.9-.38.69.69,0,0,1,.46.78,1.56,1.56,0,0,1-.54,1c-.25.24-.54.45-.82.67A.19.19,0,0,1,14,3a3.52,3.52,0,0,1-1.17-1.1,1.6,1.6,0,0,1-.2-.63.65.65,0,0,1,.51-.75A.8.8,0,0,1,14,.93Z"/><path d="M24.2,23.22c-.05.1-.07.17-.11.24a.78.78,0,0,1-.88.37.69.69,0,0,1-.47-.78,1.62,1.62,0,0,1,.55-1c.25-.23.53-.44.8-.65a.23.23,0,0,1,.2,0,3.37,3.37,0,0,1,1.13,1.06,1.78,1.78,0,0,1,.23.67.66.66,0,0,1-.51.75.8.8,0,0,1-.86-.43Z"/><path d="M37.2,12.19l.22.11a.77.77,0,0,1,.39.89.7.7,0,0,1-.77.46,1.21,1.21,0,0,1-.81-.36c-.31-.31-.59-.66-.88-1a.19.19,0,0,1,0-.18A3.68,3.68,0,0,1,36.41,11a1.92,1.92,0,0,1,.69-.22.64.64,0,0,1,.71.47.78.78,0,0,1-.39.88Z"/><path d="M24.22,1.14c.06-.11.1-.22.16-.31a.77.77,0,0,1,.88-.29.68.68,0,0,1,.42.75,1.21,1.21,0,0,1-.37.83c-.31.31-.65.58-1,.86a.19.19,0,0,1-.18,0A3.66,3.66,0,0,1,23,1.9a1.69,1.69,0,0,1-.2-.65A.63.63,0,0,1,23.3.51a.78.78,0,0,1,.86.47Z"/><path d="M1,12.2a3.93,3.93,0,0,1-.46-.45.65.65,0,0,1,0-.74.69.69,0,0,1,.7-.3,1.24,1.24,0,0,1,.83.38c.3.3.57.64.84,1a.2.2,0,0,1,0,.18,3.61,3.61,0,0,1-1.12,1.18,1.48,1.48,0,0,1-.65.19.62.62,0,0,1-.71-.46.78.78,0,0,1,.39-.88A.61.61,0,0,1,1,12.2Z"/><path d="M14.05,23.25a3,3,0,0,1-.33.44.69.69,0,0,1-1.14-.62,1.48,1.48,0,0,1,.53-1c.25-.24.54-.45.82-.67a.19.19,0,0,1,.18,0A3.51,3.51,0,0,1,15.3,22.5a1.35,1.35,0,0,1,.18.62.64.64,0,0,1-.52.73.81.81,0,0,1-.86-.47Z"/><path d="M24,8.59h1.11c-.12.2-.24.39-.34.6-.37.78-.73,1.57-1.1,2.35-.08.17-.13.32.14.45H22.55c.28-.14.2-.3.12-.47-.38-.82-.75-1.64-1.14-2.45a3.31,3.31,0,0,0-.29-.47h1.21c-.26.13-.2.28-.13.44l.9,2c.11-.27.22-.49.32-.72.19-.42.38-.85.58-1.27C24.19,8.85,24.21,8.72,24,8.59Z"/><path d="M6.3,12h-1a2.7,2.7,0,0,0,.09-.48c0-.8,0-1.61,0-2.41,0-.18,0-.38-.16-.51H8.13a1.68,1.68,0,0,0,.36-.08v.82c-.1-.22-.28-.19-.46-.19H6.14V10H7.33c.17,0,.33,0,.43-.16v.77a1.9,1.9,0,0,0-.46-.1c-.38,0-.76,0-1.17,0,0,.44,0,.86,0,1.28C6.14,11.83,6.23,11.9,6.3,12Z"/><path d="M1.6,5.4c.23.34.41.64.63.92s.48.51.71.75L1.29,8.48C1,8.25.77,8,.51,7.77c0,0,0-.12,0-.19L.58,6.15A.27.27,0,0,1,.69,6C1,5.76,1.3,5.59,1.6,5.4Z"/><path d="M1.56,18.76c-.32-.2-.62-.39-.91-.59A.33.33,0,0,1,.54,18c0-.46-.06-.93-.08-1.39a.35.35,0,0,1,.08-.22c.24-.23.49-.44.76-.68L3,17.13A5.32,5.32,0,0,0,1.56,18.76Z"/><path d="M35.32,17.28,37,15.88c.26.23.53.47.78.71a.23.23,0,0,1,0,.17c0,.49-.08,1-.13,1.47a.23.23,0,0,1-.08.16c-.31.2-.62.38-.93.56-.23-.32-.41-.63-.63-.91S35.55,17.53,35.32,17.28Z"/><path d="M37,8.68,35.29,7.23A5.34,5.34,0,0,0,36.7,5.59l.93.62a.26.26,0,0,1,.09.17c0,.48.06,1,.08,1.42a.31.31,0,0,1-.06.19Z"/><path d="M7.37,23,8.86,21.3l.87,1c.17.19.34.39.52.58s.09.14,0,.23-.37.43-.57.63a.3.3,0,0,1-.21.1H8.25a.26.26,0,0,1-.19-.07C7.83,23.51,7.61,23.25,7.37,23Z"/><path d="M30.89,1.38l-1.5,1.68L28,1.45s0-.13,0-.17c.19-.23.38-.45.59-.67a.32.32,0,0,1,.2-.07c.4,0,.8,0,1.21,0a.26.26,0,0,1,.19.06Z"/><path d="M20.72,1.38,19.23,3.06,17.74,1.38c.24-.27.47-.54.71-.79a.2.2,0,0,1,.15,0c.42,0,.85,0,1.27,0A.26.26,0,0,1,20,.61Z"/><path d="M17.54,23,19,21.3,20.52,23c-.24.27-.46.53-.7.78a.29.29,0,0,1-.19.06H18.42a.41.41,0,0,1-.23-.11C18,23.48,17.77,23.24,17.54,23Z"/><path d="M30.68,23c-.24.27-.46.53-.69.78a.25.25,0,0,1-.15.06H28.53a.18.18,0,0,1-.13-.06L27.7,23l1.49-1.68Z"/><path d="M10.56,1.38,9.07,3.06,7.57,1.38,8.3.57s.1,0,.16,0c.4,0,.81,0,1.22,0a.23.23,0,0,1,.17,0C10.09.84,10.31,1.1,10.56,1.38Z"/><path d="M15.45,18.73H14.37c.3-.23.14-.53.18-.8a1.33,1.33,0,0,0-.35-1.12c-.27-.34-.5-.71-.76-1.06a4.86,4.86,0,0,0-.38-.41h1.37c-.31.14-.21.29-.1.45s.39.57.6.88c.24-.35.48-.68.69-1,0-.06,0-.2-.06-.31h1.2c-.14.17-.3.34-.44.53-.32.43-.63.87-.94,1.3A2.21,2.21,0,0,0,15.45,18.73Z"/></g><path class="cls-4" d="M32.21,10.83a3.73,3.73,0,0,0,1.14,1.35H32c.26-.11.14-.22.06-.33-.21-.29-.4-.58-.62-.86a.34.34,0,0,0-.25-.13c-.24,0-.49,0-.76,0,0,.38,0,.74,0,1.09,0,.08.09.16.15.25H29.55c.26-.17.19-.4.19-.61,0-.79,0-1.58,0-2.37a1.74,1.74,0,0,0-.11-.42h.1c.69,0,1.38,0,2.07,0a3.54,3.54,0,0,1,.85.16.61.61,0,0,1,.41.47C33.23,10.22,33,10.64,32.21,10.83ZM30.48,9.37v.89c.52,0,1,0,1.55,0,.26,0,.35-.16.35-.43s-.09-.43-.35-.44C31.52,9.35,31,9.37,30.48,9.37Z"/><path class="cls-4" d="M16.11,10.83a3.73,3.73,0,0,0,1.15,1.35H15.94c.26-.11.14-.22.06-.33-.2-.29-.4-.58-.61-.86a.38.38,0,0,0-.26-.13c-.24,0-.49,0-.76,0,0,.38,0,.74,0,1.09,0,.08.1.16.16.25H13.45c.26-.17.19-.4.19-.61q0-1.19,0-2.37a2,2,0,0,0-.11-.42h.1c.69,0,1.38,0,2.08,0a3.56,3.56,0,0,1,.84.16.61.61,0,0,1,.41.47C17.13,10.22,16.9,10.64,16.11,10.83Zm-1.73-.53h1.34a.85.85,0,0,0,.23,0c.24-.06.33-.18.33-.45S16.2,9.4,16,9.38c-.46,0-.93,0-1.39-.05h-.18Z"/><path class="cls-4" d="M19.44,15.45a1.83,1.83,0,0,1,1.87,1.28A1.73,1.73,0,0,1,19.86,19a2.89,2.89,0,0,1-1.17-.06,1.71,1.71,0,0,1-1.23-1.77,1.67,1.67,0,0,1,1.32-1.56C19,15.5,19.22,15.49,19.44,15.45Zm-1.22,1.76a1.14,1.14,0,0,0,1.19,1.18,1.17,1.17,0,1,0-1.19-1.18Z"/><path class="cls-4" d="M13,10.59a1.7,1.7,0,0,1-1.49,1.62,2.66,2.66,0,0,1-1.19-.06,1.7,1.7,0,0,1-1.23-1.74,1.65,1.65,0,0,1,1.29-1.58A2.42,2.42,0,0,1,12,8.89,1.71,1.71,0,0,1,13,10.59Zm-3.15-.11a1.14,1.14,0,0,0,1.19,1.18,1.16,1.16,0,0,0,1.22-1.16,1.14,1.14,0,0,0-1.2-1.17A1.12,1.12,0,0,0,9.88,10.48Z"/><path class="cls-4" d="M25.86,8.78h2.85a1.8,1.8,0,0,0,.38-.07v.83c-.09-.27-.31-.2-.5-.2H26.72v.8c.47,0,.94,0,1.41,0,.06,0,.12-.09.2-.15v.89c-.11-.24-.28-.22-.44-.22H26.71v1h2c.16,0,.32,0,.39-.2v.82a2.79,2.79,0,0,0-.4-.07c-.9,0-1.8,0-2.69,0h-.23c.2-.17.15-.39.15-.6,0-.8,0-1.6,0-2.41A2,2,0,0,0,25.86,8.78Z"/><path class="cls-4" d="M17.68,8.78h2.86a1.92,1.92,0,0,0,.38-.07v.83c-.09-.27-.32-.2-.5-.2H18.54v.8c.47,0,.94,0,1.41,0,.06,0,.13-.09.2-.15v.89c-.1-.24-.27-.22-.44-.22H18.54v1h2c.17,0,.32,0,.39-.2v.82a2.57,2.57,0,0,0-.4-.07c-.9,0-1.79,0-2.69,0h-.22c.2-.17.14-.39.15-.6,0-.8,0-1.6,0-2.41A1.54,1.54,0,0,0,17.68,8.78Z"/><path class="cls-4" d="M24.5,15.51h.89s.05,0,0,0c0,.19-.08.36-.09.54,0,.56,0,1.13,0,1.69,0,.74-.26,1-1,1.17a3.25,3.25,0,0,1-1.61-.06,1,1,0,0,1-.76-1c0-.64,0-1.28,0-1.92a1.56,1.56,0,0,0-.1-.4h1c-.2.13-.15.33-.15.51v1.52c0,.53.2.76.72.81a2.83,2.83,0,0,0,.71,0,.55.55,0,0,0,.51-.58c0-.65,0-1.3,0-1.94C24.63,15.72,24.56,15.64,24.5,15.51Z"/><path class="cls-4" d="M34.74,2.49a.88.88,0,0,1,1.18.16.66.66,0,0,1-.09,1,1.84,1.84,0,0,1-1,.3l-1,.07a.15.15,0,0,1-.19-.13c-.1-.42-.23-.84-.33-1.27a1.3,1.3,0,0,1,0-.87.65.65,0,0,1,.83-.38A.89.89,0,0,1,34.74,2.49Z"/><path class="cls-4" d="M34.72,22.28a.84.84,0,0,1-.39,1,.7.7,0,0,1-1.14-.57,2.35,2.35,0,0,1,.06-.65c.11-.44.23-.87.36-1.33.37,0,.72,0,1.08.08s.48.07.73.11l.1,0c.5.19.71.6.51,1a.89.89,0,0,1-1.22.39Z"/><path class="cls-4" d="M3.91,22.28a.9.9,0,0,1-1.14-.13.67.67,0,0,1,.08-1.09,1.79,1.79,0,0,1,1-.28c.36,0,.71-.06,1.07-.07a.22.22,0,0,1,.17.12c.13.43.25.87.36,1.3a1.31,1.31,0,0,1,0,.83.65.65,0,0,1-.87.38A.87.87,0,0,1,3.91,22.28Z"/><path class="cls-4" d="M3.94,2.47a.82.82,0,0,1,.41-1,.69.69,0,0,1,1.11.56,2.18,2.18,0,0,1-.06.67c-.1.44-.23.87-.36,1.36a18.5,18.5,0,0,1-1.86-.26.71.71,0,0,1-.56-1,.88.88,0,0,1,1.23-.4Z"/><path class="cls-4" d="M14.26,1.34l.1-.23a.77.77,0,0,1,.9-.38.69.69,0,0,1,.46.78,1.6,1.6,0,0,1-.54,1c-.26.24-.54.45-.82.67a.19.19,0,0,1-.18,0A3.52,3.52,0,0,1,13,2.09a1.6,1.6,0,0,1-.2-.64.64.64,0,0,1,.51-.74.8.8,0,0,1,.85.42A2.13,2.13,0,0,0,14.26,1.34Z"/><path class="cls-4" d="M24.4,23.42l-.11.24a.78.78,0,0,1-.88.37.69.69,0,0,1-.47-.78,1.62,1.62,0,0,1,.55-1c.25-.23.53-.44.8-.65a.23.23,0,0,1,.2,0,3.47,3.47,0,0,1,1.13,1.06,1.78,1.78,0,0,1,.23.67.64.64,0,0,1-.51.74.79.79,0,0,1-.86-.42C24.46,23.57,24.44,23.51,24.4,23.42Z"/><path class="cls-4" d="M37.39,12.39l.23.1a.8.8,0,0,1,.39.9.71.71,0,0,1-.77.46,1.24,1.24,0,0,1-.82-.36c-.31-.32-.59-.66-.87-1a.19.19,0,0,1,0-.18,3.57,3.57,0,0,1,1.07-1.15,1.86,1.86,0,0,1,.69-.22.64.64,0,0,1,.71.47.78.78,0,0,1-.39.88Z"/><path class="cls-4" d="M24.42,1.34A2.94,2.94,0,0,1,24.58,1a.75.75,0,0,1,.88-.29.69.69,0,0,1,.42.75,1.27,1.27,0,0,1-.37.83c-.31.31-.65.58-1,.86a.19.19,0,0,1-.18,0A3.56,3.56,0,0,1,23.18,2.1a1.69,1.69,0,0,1-.2-.66A.64.64,0,0,1,23.49.7a.8.8,0,0,1,.86.48C24.38,1.23,24.39,1.28,24.42,1.34Z"/><path class="cls-4" d="M1.19,12.39A3.21,3.21,0,0,1,.73,12a.65.65,0,0,1,0-.74.71.71,0,0,1,.71-.3,1.24,1.24,0,0,1,.83.38c.3.3.57.64.84,1a.17.17,0,0,1,0,.18A3.45,3.45,0,0,1,2,13.61a1.5,1.5,0,0,1-.65.2.62.62,0,0,1-.71-.47A.78.78,0,0,1,1,12.46Z"/><path class="cls-4" d="M14.25,23.45a3,3,0,0,1-.33.44.7.7,0,0,1-.79.1.68.68,0,0,1-.35-.72,1.45,1.45,0,0,1,.53-1,10.28,10.28,0,0,1,.81-.67.22.22,0,0,1,.19,0A3.51,3.51,0,0,1,15.5,22.7a1.48,1.48,0,0,1,.18.62.64.64,0,0,1-.52.73.81.81,0,0,1-.86-.47Z"/><path class="cls-4" d="M24.23,8.79h1.1c-.11.2-.24.39-.33.6-.37.78-.73,1.57-1.1,2.35-.08.17-.13.31.14.45H22.75c.28-.14.2-.31.12-.48-.38-.81-.75-1.63-1.14-2.45a4.43,4.43,0,0,0-.29-.46h1.21c-.26.13-.2.28-.13.44l.89,1.95c.12-.26.23-.48.33-.71.19-.42.38-.85.58-1.27C24.39,9.05,24.41,8.91,24.23,8.79Z"/><path class="cls-4" d="M6.49,12.19h-1a2.7,2.7,0,0,0,.09-.48c0-.81,0-1.61,0-2.41,0-.18.06-.38-.15-.51H8.33a1.75,1.75,0,0,0,.36-.07v.82c-.1-.22-.28-.2-.47-.19H6.34v.85H7.53c.16,0,.33,0,.43-.16v.77a2,2,0,0,0-.47-.1c-.38,0-.76,0-1.16,0,0,.44,0,.86,0,1.28C6.34,12,6.43,12.1,6.49,12.19Z"/><path class="cls-4" d="M1.8,5.6c.23.34.41.64.63.92s.48.51.71.75L1.49,8.68C1.23,8.44,1,8.21.71,8a.25.25,0,0,1,0-.19c0-.48.07-1,.12-1.43a.35.35,0,0,1,.1-.2Z"/><path class="cls-4" d="M1.76,19c-.32-.21-.62-.39-.91-.59a.33.33,0,0,1-.11-.21c0-.46-.06-.93-.08-1.39a.35.35,0,0,1,.08-.22c.24-.23.49-.44.75-.68l1.68,1.45A5.21,5.21,0,0,0,1.76,19Z"/><path class="cls-4" d="M35.52,17.48l1.65-1.4.78.7A.27.27,0,0,1,38,17c0,.49-.08,1-.13,1.47a.23.23,0,0,1-.08.16c-.31.19-.62.38-.94.56-.22-.33-.4-.63-.63-.91A10.16,10.16,0,0,0,35.52,17.48Z"/><path class="cls-4" d="M37.16,8.88,35.49,7.43A5.34,5.34,0,0,0,36.9,5.79l.93.61a.31.31,0,0,1,.09.18c0,.47.06.94.08,1.42a.28.28,0,0,1-.06.18C37.69,8.42,37.43,8.64,37.16,8.88Z"/><path class="cls-4" d="M7.57,23.18,9.06,21.5l.87,1c.17.19.34.39.52.58s.09.14,0,.23-.37.43-.57.63a.41.41,0,0,1-.21.1H8.45A.29.29,0,0,1,8.26,24Z"/><path class="cls-4" d="M31.08,1.58,29.59,3.26,28.18,1.65a.15.15,0,0,1,0-.17c.18-.23.38-.45.58-.67A.38.38,0,0,1,29,.74q.6,0,1.2,0a.31.31,0,0,1,.2.05Z"/><path class="cls-4" d="M20.92,1.58,19.43,3.25,17.94,1.58c.24-.27.47-.54.71-.8a.24.24,0,0,1,.15,0c.42,0,.85,0,1.27,0a.24.24,0,0,1,.16.07C20.46,1.05,20.68,1.31,20.92,1.58Z"/><path class="cls-4" d="M17.74,23.18l1.49-1.68,1.49,1.68L20,24a.31.31,0,0,1-.19.06c-.4,0-.81,0-1.21,0a.38.38,0,0,1-.23-.11C18.17,23.68,18,23.44,17.74,23.18Z"/><path class="cls-4" d="M30.88,23.18c-.24.27-.46.53-.69.77A.23.23,0,0,1,30,24H28.73A.22.22,0,0,1,28.6,24l-.7-.78,1.49-1.68Z"/><path class="cls-4" d="M10.76,1.57,9.26,3.25,7.77,1.57C8,1.3,8.25,1,8.5.77c0,0,.1,0,.15,0q.62,0,1.23,0a.23.23,0,0,1,.17.05C10.29,1,10.51,1.3,10.76,1.57Z"/><path class="cls-4" d="M15.65,18.93H14.57c.3-.23.14-.53.18-.8A1.33,1.33,0,0,0,14.4,17c-.27-.34-.5-.71-.76-1.06a5,5,0,0,0-.39-.41h1.38c-.32.13-.21.29-.1.45s.39.57.59.88c.25-.35.49-.68.7-1,0-.07,0-.2-.06-.31H17c-.14.17-.31.34-.44.52l-.94,1.31A2.16,2.16,0,0,0,15.65,18.93Z"/></g></g></svg>