<svg xmlns="http://www.w3.org/2000/svg" viewBox="0 0 38.55 24.66"><defs><style>.cls-1{isolation:isolate;}.cls-2{opacity:0.15;}.cls-2,.cls-3{mix-blend-mode:multiply;}.cls-4{fill:#fff;}</style></defs><title>convert-FIX-SVG-03</title><g class="cls-1"><g id="Layer_1" data-name="Layer 1"><g class="cls-2"><path d="M4.12,7.54c-.15-.25-.29-.47-.41-.7-.27-.52-.2-.79.21-1.08,0-.18,0-.32,0-.46s0-.28,0-.42a1.76,1.76,0,0,1,.68-1.76,2.73,2.73,0,0,1,1.77-.66.67.67,0,0,1,.61.22c.12-.17.21-.34.33-.48s.33-.28.55-.12a4.44,4.44,0,0,0,1.93.69.62.62,0,0,1,.23.14,1.76,1.76,0,0,1,.67,1.6c.3,0,.38,0,.44.32a6,6,0,0,1,.06.67,4,4,0,0,0,.59-.1,4,4,0,0,0,.78-.31A1,1,0,0,1,13.27,5a1.54,1.54,0,0,1,1,.7c.24-.14.35-.14.53.07a2,2,0,0,1,.39.55,9.53,9.53,0,0,1,.41,1.17,2.87,2.87,0,0,1,0,.66c.12,0,.14.15.12.3a6.69,6.69,0,0,1-.2,1,1.94,1.94,0,0,1-1.55,1.23,3,3,0,0,1-.58,0,1.88,1.88,0,0,1-1.9.6.17.17,0,0,0-.15.08,10.51,10.51,0,0,0-1.46,3.87,14.91,14.91,0,0,0-.15,1.64A7.79,7.79,0,0,0,9.76,18v.33H9.3a10.73,10.73,0,0,0-1.72-5.8,6.26,6.26,0,0,1-.9.36,2.94,2.94,0,0,1-2.24-.53c-.3-.19-.32-.47-.19-.83L4,11.18c-.09-.1-.16-.2-.25-.29a1.85,1.85,0,0,1-.43-2.17A2.53,2.53,0,0,1,4.12,7.54Zm.74,1.84A2.47,2.47,0,0,0,6,11.32a1.24,1.24,0,0,0,.32.12,2.51,2.51,0,0,0,2.28-.79.35.35,0,0,0,.07-.25,4.61,4.61,0,0,0-.32-.8.74.74,0,0,0-.53-.36l0,.32a1.08,1.08,0,0,1-.86,1,1.64,1.64,0,0,1-1.2-.19A2.38,2.38,0,0,1,4.86,9.38ZM4.18,5.46c.47.14.64,0,.76-.41C5,5,5,5,5,4.91A9.83,9.83,0,0,1,5.41,4,.83.83,0,0,1,6,3.57.69.69,0,0,0,6.66,3a.25.25,0,0,0-.12-.18.51.51,0,0,0-.25,0,2.62,2.62,0,0,0-1.71.72,1.35,1.35,0,0,0-.46,1.1C4.13,4.85,4.16,5.15,4.18,5.46Zm.12,5.65.25-.17a.35.35,0,0,0,.15-.48,6.91,6.91,0,0,1-.3-1,.92.92,0,0,1,.24-1,.65.65,0,0,0,.19-.69c-.07-.33-.15-.35-.43-.16a2.47,2.47,0,0,0-.93,1.39,1.5,1.5,0,0,0,.36,1.53Zm6.41-2.78a2.31,2.31,0,0,0,.9,1.5,1.45,1.45,0,0,0,.49.22,2.06,2.06,0,0,0,1.64-.46c.37-.25.4-.37.25-.78a1,1,0,0,0-.62-.68l-.06.37a1,1,0,0,1-.76.78A1.4,1.4,0,0,1,11.38,9C11.15,8.82,11,8.58,10.71,8.33ZM9.09,10.06a2.21,2.21,0,0,0,0-1.14A2.12,2.12,0,0,0,8.3,7.56a.62.62,0,0,0-.85,0,4.26,4.26,0,0,0-.51.53,2,2,0,0,0-.18.3,2.86,2.86,0,0,1,1.48.44C8.7,9.11,8.82,9.63,9.09,10.06ZM8.67,3.94a1.47,1.47,0,0,0-2.5.67,1.12,1.12,0,0,0,.36,1.24c0,.05.15,0,.23.06C6.47,5.33,6.54,5,7,4.66a2.32,2.32,0,0,1,.51-.29C7.89,4.22,8.28,4.09,8.67,3.94ZM7,9.93H6.78A.75.75,0,0,1,6,8.9a3.94,3.94,0,0,1,.75-1.36c.06-.09.13-.17.21-.28a1.59,1.59,0,0,0-1.66.91,1.51,1.51,0,0,0,.4,1.62A1.29,1.29,0,0,0,7,9.93Zm2.4-3.35a2.26,2.26,0,0,0,.19-1.53.68.68,0,0,0-.68-.58,2.23,2.23,0,0,0-1.11.26,2.49,2.49,0,0,1,1,1.83C9.07,6.38,9.12,6.38,9.43,6.58Zm-1.84,5.2A2,2,0,0,1,6,12a.83.83,0,0,1-.54-.41C5.13,11,5,11,4.62,11.45c0,0,0,0,0,0-.23.28-.2.52.12.68a7.39,7.39,0,0,0,1,.39,1.84,1.84,0,0,0,1.64-.33C7.52,12.12,7.65,12,7.59,11.78Zm1.88,0c-.5.21-1,.58-1.6.26l-.17.27.23-.11a14.41,14.41,0,0,1,1.23,2.57Zm.67-6.69a1.6,1.6,0,0,0,.07-1.46A1,1,0,0,0,9.58,3,4.42,4.42,0,0,1,7.7,2.34s-.16,0-.19,0-.22.32-.33.48c.39.09.74.16,1.09.26a2.8,2.8,0,0,1,1.35.78A1.91,1.91,0,0,1,10.14,5.13Zm-5,2.08c.51-.19,1-.39,1.46-.52A2.06,2.06,0,0,1,8.39,7a6.17,6.17,0,0,1,.47.44A1.64,1.64,0,0,0,7.77,6.05a.93.93,0,0,0-.59,0,5.14,5.14,0,0,1-2,.56.21.21,0,0,0-.13.13C5.08,6.88,5.1,7.05,5.1,7.21ZM14.41,8.8l.09,0a8.3,8.3,0,0,0-.05-.87,1.87,1.87,0,0,0-.63-1.19.59.59,0,0,0-.68-.15,2,2,0,0,0-.73.78,2.85,2.85,0,0,1,1.27.37A2.18,2.18,0,0,1,14.41,8.8ZM12.53,6.41a1.34,1.34,0,0,0-1.37.75,1.32,1.32,0,0,0,.31,1.4,1.08,1.08,0,0,0,1,.19l-.27-.05a.62.62,0,0,1-.51-.85,3.52,3.52,0,0,1,.3-.69A8.14,8.14,0,0,1,12.53,6.41ZM10.17,9.74c-.33.09-.59.23-.65.62a1,1,0,0,1-.72.83,1.59,1.59,0,0,0-.52.26c-.09.09-.1.27-.15.41.11,0,.22.07.32.05a2.85,2.85,0,0,0,.64-.22A2,2,0,0,0,10.17,9.74Zm.77,0a2.69,2.69,0,0,0-.39.33c-.21.25-.21.5.1.63a6,6,0,0,0,.8.31,1.57,1.57,0,0,0,1.46-.27c.11-.08.24-.15.21-.27a5.76,5.76,0,0,1-1,.13A1,1,0,0,1,11.1,10,1.64,1.64,0,0,0,10.94,9.72Zm0-3.36.23-.12c.31-.12.62-.27.94-.36a1.92,1.92,0,0,1,1.79.26l.24.22a1.27,1.27,0,0,0-.5-.85,1,1,0,0,0-1.1-.13,2.87,2.87,0,0,1-1.43.39.24.24,0,0,0-.17.11A3.82,3.82,0,0,0,10.94,6.36ZM9.63,13.88h0l1.22-2.77-.58-.3-.34.55a1.52,1.52,0,0,1,0,.32Zm0-4.43c.4-.2.55-.41.44-.77-.16-.53-.38-1-.59-1.57a1.85,1.85,0,0,0-.25-.32.29.29,0,0,0,0,.15c0,.31.07.62.1.94a2.64,2.64,0,0,0,0,.28c.05.2.12.39.16.59S9.59,9.21,9.64,9.45ZM4.89,5.91A4.88,4.88,0,0,0,4.18,6c-.32.08-.42.29-.28.6s.21.38.31.57.17.22.35.14a.43.43,0,0,1,.22,0ZM15.37,8.58a.65.65,0,0,0-.55.55.83.83,0,0,1-.58.69,2.43,2.43,0,0,0-.46.22.44.44,0,0,0-.16.23c0,.14,0,.21.17.19A1.81,1.81,0,0,0,15.37,8.58ZM14.64,6l0,0a10,10,0,0,0,.08,1.1c.06.37.18.73.27,1.09.34-.17.43-.34.32-.7s-.19-.62-.31-.92A4.83,4.83,0,0,0,14.64,6Zm-8.55.13a2.13,2.13,0,0,1-.36-1.78l-.05,0a2.44,2.44,0,0,0-.36,1.75s.1.1.15.1S5.86,6.21,6.09,6.17Zm4.13,1.92a3.81,3.81,0,0,1,.3-.61.68.68,0,0,0,.13-.71c-.05-.13-.13-.15-.22-.07s-.34.29-.5.44a.15.15,0,0,0,0,.13Zm.59-3.17c-.2.32-.41.61-.58.92s-.29.64-.43,1a3.84,3.84,0,0,1,.63-.39.29.29,0,0,0,.22-.3.78.78,0,0,1,0-.41A1,1,0,0,0,10.81,4.92Zm-3,.64c0-.32-.11-.44-.29-.43s-.35.15-.34.27.31.31.47.28S7.74,5.58,7.77,5.56Zm-1,3.81,0,.06.41-.27a1.8,1.8,0,0,0-.36-.32c-.1-.06-.27.17-.28.33S6.62,9.39,6.77,9.37ZM8.05,7.09A1.71,1.71,0,0,0,6.62,7c.26,0,.62-.14.74.26ZM9,4.14l.69.35a1.86,1.86,0,0,0-1.06-1C8.81,3.73,9.18,3.8,9,4.14ZM12.39,8.3,12.76,8c-.09-.08-.18-.23-.29-.24s-.23.12-.22.27S12.32,8.19,12.39,8.3Zm.62-2,.43-.1,0,0L12.54,6Zm-2.72,3,.25.2a.59.59,0,0,0-.13-.61ZM6.92,3.09l-.09.24.76-.14Zm.64,6h0c0,.27-.16.41-.38.52l.38.05Zm.81-3.34-.3-.43L8,5.79Zm.9,4.66-.24,0-.16.44,0,0ZM5.06,7.6l.08.27.25-.34,0,0Z"/><path d="M24.68,11.21V6.58l.19.08,2.62,1.2a.23.23,0,0,1,.17.26c0,.54,0,1.09,0,1.63,0,.11,0,.18-.13.23l-2.75,1.2Z"/><path d="M33.72,6.59v4.63l-1.11-.49c-.56-.24-1.11-.49-1.67-.72a.26.26,0,0,1-.18-.26c0-.55,0-1.1,0-1.65a.27.27,0,0,1,.12-.21l2.75-1.28Z"/><path d="M30.32,9.84H28.11V7.94h2.21Z"/><path d="M2.81,21.67c.29-.11.34-.17.34-.5,0-.54,0-1.09,0-1.63,0-.32-.06-.39-.36-.51h.78a6.94,6.94,0,0,1,.79,0,.57.57,0,0,1,.56.48.62.62,0,0,1-.43.72l.13.05a.69.69,0,0,1,.56.76.6.6,0,0,1-.63.61C4,21.69,3.38,21.67,2.81,21.67Zm.76-1.35c0,.27,0,.54,0,.81,0,.44.21.6.63.51A.59.59,0,0,0,4.72,21c0-.4-.15-.64-.5-.7A4.69,4.69,0,0,0,3.57,20.32Zm0-1.25v1.19c.31,0,.64,0,.83-.27a.62.62,0,0,0,0-.68C4.2,19,3.89,19.07,3.58,19.07Z"/><path d="M17.6,21.57a.77.77,0,0,1-1,0,.71.71,0,0,1-.09-.93c.12-.18.27-.34.42-.54-.32-.62-.29-.88.16-1a.38.38,0,0,0-.1.5c.08.16.18.31.28.47a.61.61,0,0,0,.3-.66.35.35,0,0,0-.38-.34c.32,0,.56.06.64.29.14.43-.23.56-.49.77l.11.16L18,21l.11-.15c-.11.18,0,.29.1.4s.17.17.26.24a.36.36,0,0,0,.54,0c-.08.29-.42.36-.74.18-.12-.07-.21-.18-.32-.25s-.11,0-.16,0,0-.15,0-.19c-.24-.32-.48-.62-.72-.93a.82.82,0,0,0-.27,1C16.93,21.56,17.15,21.65,17.6,21.57Z"/><path d="M22.76,19a1.64,1.64,0,0,0-.52,2.3.89.89,0,0,0,.8.38,1.23,1.23,0,0,1-1.51-1.07A1.34,1.34,0,0,1,22.76,19Z"/><path d="M11.64,21.68c-.2,0-.43.16-.64-.06l-.26.09a1.47,1.47,0,0,0,.16-1.58l.16,0a6,6,0,0,0-.05-.85c0-.09-.14-.16-.22-.24l.57-.08v2.29A.35.35,0,0,0,11.64,21.68Z"/><path d="M13.1,20.05a.6.6,0,0,1,.83.54H12.8a.84.84,0,0,0,.38,1c.31.14.54.05.76-.29,0,.32-.36.48-.67.47a.83.83,0,0,1-.85-.79.81.81,0,0,1,.69-.91.58.58,0,0,0-.32.5h.82C13.6,20.17,13.46,20,13.1,20.05Z"/><path d="M6.05,20.1,6.56,20l.05.22A3.48,3.48,0,0,1,7,20a.42.42,0,0,1,.25,0c.06,0,.1.1.14.16s0,.11-.07.11a.35.35,0,0,1-.18-.05c-.22-.17-.4-.15-.43.12a5.68,5.68,0,0,0,0,1.09c0,.08.12.16.19.23H6c.32-.08.31-.28.3-.48v-.72A.33.33,0,0,0,6.05,20.1Z"/><path d="M25.06,20.09l.48-.08.05.22A2.13,2.13,0,0,1,26,20a.33.33,0,0,1,.27.05s0,.13,0,.2a1.2,1.2,0,0,1-.19,0s0,0-.06-.05-.32-.12-.39.09a1.7,1.7,0,0,0-.08.45c0,.18,0,.35,0,.53a.35.35,0,0,0,.24.39h-.77C25.41,21.46,25.42,20.3,25.06,20.09Z"/><path d="M32.51,20.09,33,20l.08.23.15-.09s0,.05,0,.06a4.74,4.74,0,0,0-.15.5,3.13,3.13,0,0,0,0,.53c0,.18,0,.37.23.45h-.79c.23-.07.25-.25.25-.44v-.76C32.75,20.26,32.73,20.22,32.51,20.09Z"/><path d="M33.66,21.68c.2-.06.24-.22.24-.4s0-.49,0-.74-.11-.44-.43-.47c.27-.13.47-.08.71.21l.17-.1a2.32,2.32,0,0,0-.12,1.22c0,.1.12.19.18.28Z"/><path d="M34.55,20.07c.48-.18.79,0,.79.53,0,.22,0,.44,0,.66s0,.35.24.42h-.85a.39.39,0,0,0,.31-.45v-.61C35,20.2,35,20.12,34.55,20.07Z"/><path d="M8.06,20.09,8.61,20v1.23c0,.27,0,.3.25.45H8.07C8.41,21.47,8.43,20.3,8.06,20.09Z"/><path d="M10.63,20a.81.81,0,0,0-.58.87.78.78,0,0,0,.61.85.79.79,0,0,1-.8-.33.93.93,0,0,1,0-1A.77.77,0,0,1,10.63,20Z"/><path d="M28.22,21.72a1.13,1.13,0,0,0,.41-.75,1,1,0,0,0-.22-.74.51.51,0,0,0-.53-.18.85.85,0,0,1,.93.35.83.83,0,0,1,0,1A.92.92,0,0,1,28.22,21.72Z"/><path d="M30.93,21.72a1.13,1.13,0,0,0,.41-.75,1,1,0,0,0-.22-.74.51.51,0,0,0-.53-.18.85.85,0,0,1,.93.35.81.81,0,0,1,0,1A.92.92,0,0,1,30.93,21.72Z"/><path d="M24,21.45l-.77.28,0-.05a.63.63,0,0,0,.4-.69c0-.16-.1-.21-.42-.3h1.15C23.82,20.79,24,21.17,24,21.45Z"/><path d="M27.89,20a1,1,0,0,0,0,1.66.85.85,0,0,1-.79-.81A.88.88,0,0,1,27.89,20Z"/><path d="M30.6,20a1,1,0,0,0,0,1.66.84.84,0,0,1-.78-.81A.86.86,0,0,1,30.6,20Z"/><path d="M23.22,19.05c.24-.07.44.25.67,0v.82C23.74,19.52,23.61,19.19,23.22,19.05Z"/><path d="M18.23,20.54c0-.19.12-.41-.17-.52h.59Z"/><path d="M8.46,18.92c.08.1.17.17.16.22s-.09.12-.15.18-.14-.1-.14-.16S8.39,19,8.46,18.92Z"/><path d="M4.31,7.74c-.14-.25-.28-.47-.4-.7-.27-.52-.2-.8.21-1.08,0-.18,0-.32,0-.46a3,3,0,0,0,0-.42,1.78,1.78,0,0,1,.69-1.76,2.71,2.71,0,0,1,1.77-.66.67.67,0,0,1,.61.22c.11-.17.21-.34.33-.49s.33-.27.55-.12A4.46,4.46,0,0,0,9.92,3a.49.49,0,0,1,.24.14,1.76,1.76,0,0,1,.67,1.6c.3,0,.38,0,.44.32a6,6,0,0,1,.06.67,3.7,3.7,0,0,0,.58-.1,4.47,4.47,0,0,0,.79-.31,1,1,0,0,1,.77-.06,1.56,1.56,0,0,1,.95.7c.24-.14.35-.14.53.06a2,2,0,0,1,.38.55,8.74,8.74,0,0,1,.42,1.18,2.91,2.91,0,0,1,0,.66c.13,0,.15.15.13.3a6.7,6.7,0,0,1-.21,1,1.89,1.89,0,0,1-1.54,1.22,2,2,0,0,1-.58,0,1.87,1.87,0,0,1-1.9.61.19.19,0,0,0-.16.08A10.68,10.68,0,0,0,10,15.44a15,15,0,0,0-.16,1.63A9.81,9.81,0,0,0,10,18.15v.33H9.5a10.76,10.76,0,0,0-1.72-5.81,5.7,5.7,0,0,1-.9.37,2.94,2.94,0,0,1-2.24-.53c-.3-.2-.33-.47-.19-.83l-.29-.3a3.36,3.36,0,0,0-.24-.29,1.88,1.88,0,0,1-.44-2.18A2.57,2.57,0,0,1,4.31,7.74Zm.74,1.84a2.5,2.5,0,0,0,1.17,1.94,2,2,0,0,0,.31.12,2.52,2.52,0,0,0,2.29-.79.3.3,0,0,0,.06-.25,3.69,3.69,0,0,0-.31-.8A.78.78,0,0,0,8,9.43c0,.12,0,.22,0,.33a1.06,1.06,0,0,1-.85,1A1.68,1.68,0,0,1,6,10.55,2.54,2.54,0,0,1,5.05,9.58ZM4.38,5.66c.47.13.64,0,.76-.41a.57.57,0,0,1,0-.14,10,10,0,0,1,.43-.94.84.84,0,0,1,.62-.4.68.68,0,0,0,.62-.63A.2.2,0,0,0,6.74,3a.42.42,0,0,0-.25,0,2.6,2.6,0,0,0-1.71.72,1.35,1.35,0,0,0-.46,1.1C4.33,5.05,4.36,5.35,4.38,5.66Zm.12,5.65.25-.17a.35.35,0,0,0,.15-.48,5.82,5.82,0,0,1-.3-1,.92.92,0,0,1,.24-1A.65.65,0,0,0,5,8C5,7.7,4.87,7.67,4.6,7.86a2.53,2.53,0,0,0-.93,1.4A1.5,1.5,0,0,0,4,10.79Zm6.41-2.78a2.31,2.31,0,0,0,.9,1.5,1.43,1.43,0,0,0,.49.21,2,2,0,0,0,1.64-.45c.37-.25.39-.37.25-.78a1,1,0,0,0-.62-.68l-.06.37a1,1,0,0,1-.76.78,1.44,1.44,0,0,1-1.17-.26A8.85,8.85,0,0,1,10.91,8.53ZM9.29,10.25a2.17,2.17,0,0,0,0-1.13A2.17,2.17,0,0,0,8.5,7.75a.63.63,0,0,0-.85,0,4.26,4.26,0,0,0-.51.53A2.45,2.45,0,0,0,7,8.58,3,3,0,0,1,8.44,9C8.9,9.31,9,9.83,9.29,10.25ZM8.87,4.14a1.48,1.48,0,0,0-2.51.67,1.15,1.15,0,0,0,.37,1.24s.15,0,.23.06c-.29-.58-.23-.91.24-1.25a2.58,2.58,0,0,1,.51-.29Zm-1.64,6H7a.74.74,0,0,1-.75-1A3.7,3.7,0,0,1,7,7.74l.2-.28a1.58,1.58,0,0,0-1.65.91A1.52,1.52,0,0,0,5.93,10,1.29,1.29,0,0,0,7.23,10.13Zm2.4-3.35a2.33,2.33,0,0,0,.19-1.53.67.67,0,0,0-.69-.58A2.1,2.1,0,0,0,8,4.93a2.49,2.49,0,0,1,1,1.83C9.27,6.58,9.32,6.58,9.63,6.78ZM7.79,12a2.05,2.05,0,0,1-1.64.17.83.83,0,0,1-.54-.41c-.28-.55-.37-.56-.79-.09l0,0c-.23.28-.2.52.12.67a7.44,7.44,0,0,0,1,.4,1.81,1.81,0,0,0,1.63-.33C7.72,12.31,7.85,12.2,7.79,12Zm1.88,0c-.5.21-1,.58-1.6.26l-.17.27.23-.11A14.41,14.41,0,0,1,9.36,15Zm.67-6.69a1.63,1.63,0,0,0,.07-1.46,1,1,0,0,0-.63-.64A4.5,4.5,0,0,1,7.9,2.54c-.05,0-.17,0-.19,0s-.22.32-.33.48c.39.09.74.15,1.08.25a2.88,2.88,0,0,1,1.36.79A1.89,1.89,0,0,1,10.34,5.33ZM5.3,7.4c.51-.18,1-.39,1.46-.51a2.06,2.06,0,0,1,1.83.26,4.65,4.65,0,0,1,.47.44A1.64,1.64,0,0,0,8,6.25a.93.93,0,0,0-.59,0,5.14,5.14,0,0,1-2,.56.2.2,0,0,0-.14.13C5.28,7.08,5.29,7.25,5.3,7.4ZM14.61,9l.09,0c0-.29,0-.59,0-.87A1.94,1.94,0,0,0,14,6.92a.59.59,0,0,0-.68-.15,1.9,1.9,0,0,0-.73.78,2.76,2.76,0,0,1,1.27.37A2.24,2.24,0,0,1,14.61,9ZM12.73,6.61a1.34,1.34,0,0,0-1.37.75,1.32,1.32,0,0,0,.3,1.4A1.13,1.13,0,0,0,12.71,9l-.27,0a.62.62,0,0,1-.51-.85,2.83,2.83,0,0,1,.3-.69A8.14,8.14,0,0,1,12.73,6.61ZM10.37,9.93c-.33.1-.59.24-.65.63a1,1,0,0,1-.72.83,1.41,1.41,0,0,0-.52.26,1,1,0,0,0-.15.4c.1,0,.22.08.32,0a2.4,2.4,0,0,0,.64-.21A2,2,0,0,0,10.37,9.93Zm.77,0a2.69,2.69,0,0,0-.39.33c-.21.24-.21.5.1.63s.53.22.8.31a1.57,1.57,0,0,0,1.46-.27c.1-.08.24-.15.2-.28a5.56,5.56,0,0,1-1,.14,1,1,0,0,1-1-.62A1.24,1.24,0,0,0,11.14,9.92Zm0-3.36.24-.12c.31-.12.62-.27.94-.36a1.89,1.89,0,0,1,1.79.26l.24.22a1.27,1.27,0,0,0-.5-.85,1,1,0,0,0-1.1-.13A2.9,2.9,0,0,1,11.31,6a.24.24,0,0,0-.17.11A3.63,3.63,0,0,0,11.13,6.56ZM9.82,14.08h0l1.21-2.77L10.49,11l-.34.56a1.52,1.52,0,0,1,0,.32C10.07,12.62,10,13.35,9.82,14.08Zm0-4.44c.4-.19.55-.4.44-.76-.16-.53-.38-1.05-.59-1.57A1.85,1.85,0,0,0,9.44,7a.29.29,0,0,0,0,.15c0,.31.07.62.1.94a1.32,1.32,0,0,0,0,.28c.05.2.12.39.16.59S9.79,9.41,9.84,9.64ZM5.09,6.1a6.38,6.38,0,0,0-.71.08.37.37,0,0,0-.28.59c.09.2.21.39.31.58s.17.22.35.14a.43.43,0,0,1,.22,0ZM15.57,8.78a.64.64,0,0,0-.55.55.82.82,0,0,1-.59.69,2.08,2.08,0,0,0-.45.22.45.45,0,0,0-.16.22c-.05.15,0,.21.17.2A1.81,1.81,0,0,0,15.57,8.78Zm-.73-2.54,0,0c0,.37,0,.74.07,1.1s.19.73.28,1.09a.51.51,0,0,0,.32-.71c-.09-.3-.19-.61-.31-.91S15,6.44,14.84,6.24Zm-8.56.13a2.16,2.16,0,0,1-.35-1.78s0,0,0,0a2.48,2.48,0,0,0-.36,1.76s.1.1.15.09A5.31,5.31,0,0,0,6.28,6.37Zm4.14,1.92a4.78,4.78,0,0,1,.29-.61A.67.67,0,0,0,10.85,7c0-.13-.13-.15-.22-.08s-.34.3-.51.45a.18.18,0,0,0,0,.13ZM11,5.12c-.2.32-.41.61-.58.92s-.29.64-.43,1a3.84,3.84,0,0,1,.63-.39.29.29,0,0,0,.22-.3.78.78,0,0,1,.05-.41A1,1,0,0,0,11,5.12ZM8,5.75c0-.31-.1-.43-.28-.43s-.35.16-.34.28.31.31.47.28A.33.33,0,0,0,8,5.75ZM7,9.57l0,.06.41-.27A1.8,1.8,0,0,0,7.05,9c-.1-.06-.27.17-.28.33S6.82,9.59,7,9.57ZM8.25,7.29a1.67,1.67,0,0,0-1.43-.12c.26,0,.62-.15.74.26Zm1-2.95.69.35a1.86,1.86,0,0,0-1.06-1C9,3.93,9.38,4,9.22,4.34ZM12.59,8.5,13,8.23c-.1-.09-.18-.23-.29-.24s-.23.12-.22.27S12.52,8.39,12.59,8.5Zm.61-2,.44-.1v0l-.92-.14Zm-2.71,3,.25.2a.61.61,0,0,0-.13-.61ZM7.12,3.29,7,3.53l.76-.14Zm.64,6-.06,0c0,.28-.15.41-.37.53l.38,0ZM8.57,6l-.31-.43L8.2,6Zm.9,4.66-.25,0L9.07,11l0,0ZM5.25,7.8l.09.27.25-.34,0,0Z"/><path d="M24.88,11.4V6.78l.19.08,2.61,1.19c.13.06.19.12.18.27,0,.54,0,1.09,0,1.63,0,.11,0,.18-.13.23L25,11.38Z"/><path d="M33.92,6.79v4.63l-1.12-.49-1.66-.73A.23.23,0,0,1,31,9.94c0-.55,0-1.1,0-1.65a.27.27,0,0,1,.11-.2l2.76-1.28Z"/><path d="M30.52,10H28.31V8.14h2.21Z"/><path d="M3,21.87c.29-.11.34-.17.34-.5,0-.55,0-1.09,0-1.63,0-.32-.06-.39-.36-.51h.78a6.74,6.74,0,0,1,.78,0,.59.59,0,0,1,.57.48.61.61,0,0,1-.43.71l.13.06a.69.69,0,0,1,.56.76.6.6,0,0,1-.63.61C4.17,21.89,3.58,21.87,3,21.87Zm.76-1.35c0,.27,0,.54,0,.81,0,.43.2.6.63.51a.6.6,0,0,0,.52-.62c0-.4-.15-.64-.5-.7A4.69,4.69,0,0,0,3.77,20.52Zm0-1.25v1.19c.31,0,.63.05.83-.27a.62.62,0,0,0,0-.68C4.4,19.2,4.08,19.27,3.78,19.27Z"/><path d="M17.8,21.76a.77.77,0,0,1-1,0,.72.72,0,0,1-.08-.93c.12-.18.26-.34.42-.54-.32-.62-.3-.88.16-1a.37.37,0,0,0-.1.5,4.34,4.34,0,0,0,.28.46.59.59,0,0,0,.3-.65.38.38,0,0,0-.38-.35c.32,0,.56.07.64.3.14.43-.23.56-.49.76l.11.16c.17.24.35.48.54.73l.11-.15c-.12.17,0,.29.1.4s.17.17.26.24a.36.36,0,0,0,.54,0c-.08.29-.42.35-.74.18-.12-.07-.21-.18-.32-.25s-.11,0-.17,0,0-.15,0-.19q-.36-.48-.72-.93a.81.81,0,0,0-.27,1C17.13,21.76,17.35,21.85,17.8,21.76Z"/><path d="M23,19.23a1.63,1.63,0,0,0-.51,2.29.85.85,0,0,0,.8.38,1.22,1.22,0,0,1-1.51-1.06A1.34,1.34,0,0,1,23,19.23Z"/><path d="M11.84,21.88c-.2,0-.43.16-.64-.07l-.26.1a1.45,1.45,0,0,0,.15-1.58l.17,0a7.92,7.92,0,0,0,0-.85c0-.09-.14-.16-.22-.24l.57-.08v2.29A.36.36,0,0,0,11.84,21.88Z"/><path d="M13.3,20.24a.61.61,0,0,1,.83.55H13a.85.85,0,0,0,.38,1c.3.14.54,0,.76-.3,0,.33-.36.49-.67.48a.86.86,0,0,1-.16-1.7.58.58,0,0,0-.32.5h.82C13.8,20.37,13.66,20.24,13.3,20.24Z"/><path d="M6.24,20.3l.52-.09,0,.22a3.48,3.48,0,0,1,.38-.2.39.39,0,0,1,.24,0,.32.32,0,0,1,.14.16s0,.11-.06.11a.33.33,0,0,1-.19-.06c-.21-.16-.39-.14-.43.13a6.59,6.59,0,0,0,0,1.09c0,.08.12.16.19.23H6.22c.32-.08.31-.28.3-.49v-.72A.34.34,0,0,0,6.24,20.3Z"/><path d="M25.26,20.29l.47-.08.06.21a2.39,2.39,0,0,1,.43-.2.33.33,0,0,1,.27.05s0,.13,0,.2a1.21,1.21,0,0,1-.19,0s0,0-.06-.06c-.17-.14-.32-.11-.39.1a1.7,1.7,0,0,0-.08.45c0,.18,0,.35,0,.53a.36.36,0,0,0,.24.39h-.77C25.61,21.66,25.62,20.5,25.26,20.29Z"/><path d="M32.71,20.29l.52-.08.08.23.14-.09s0,0,0,.06a3.17,3.17,0,0,0-.15.5,2.35,2.35,0,0,0,0,.53c0,.18,0,.37.23.44h-.79c.22-.06.25-.24.25-.43s0-.51,0-.76S32.93,20.42,32.71,20.29Z"/><path d="M33.86,21.88c.2-.06.23-.22.23-.4s0-.49,0-.74-.11-.44-.44-.47c.28-.14.48-.08.72.2l.17-.09a2.32,2.32,0,0,0-.12,1.22c0,.1.12.19.18.28Z"/><path d="M34.75,20.26c.48-.17.79,0,.79.54v.65c0,.19,0,.36.24.43h-.85a.39.39,0,0,0,.31-.45c0-.2,0-.41,0-.61C35.22,20.4,35.15,20.32,34.75,20.26Z"/><path d="M8.26,20.29l.55-.08v1.23c0,.27,0,.3.25.44H8.27C8.61,21.67,8.63,20.5,8.26,20.29Z"/><path d="M10.83,20.21a.8.8,0,0,0-.58.87.77.77,0,0,0,.6.84.76.76,0,0,1-.79-.32.91.91,0,0,1,0-1A.76.76,0,0,1,10.83,20.21Z"/><path d="M28.42,21.92a1.12,1.12,0,0,0,.4-.75,1,1,0,0,0-.21-.74.55.55,0,0,0-.53-.19.86.86,0,0,1,.93.36.83.83,0,0,1,0,1A.92.92,0,0,1,28.42,21.92Z"/><path d="M31.13,21.92a1.17,1.17,0,0,0,.41-.75,1,1,0,0,0-.22-.74.55.55,0,0,0-.53-.19.85.85,0,0,1,.93.36.83.83,0,0,1,0,1A.92.92,0,0,1,31.13,21.92Z"/><path d="M24.15,21.65l-.77.28,0-.05a.63.63,0,0,0,.4-.69c0-.17-.1-.22-.42-.3h1.15C24,21,24.19,21.36,24.15,21.65Z"/><path d="M28.09,20.24a1,1,0,0,0,0,1.66.85.85,0,0,1-.79-.81A.88.88,0,0,1,28.09,20.24Z"/><path d="M30.8,20.24a1,1,0,0,0,0,1.66.85.85,0,0,1-.79-.81A.88.88,0,0,1,30.8,20.24Z"/><path d="M23.42,19.25c.24-.07.43.25.67,0v.82A1.27,1.27,0,0,0,23.42,19.25Z"/><path d="M18.43,20.73c0-.18.12-.4-.17-.51h.59Z"/><path d="M8.66,19.11c.08.11.17.18.16.23s-.1.12-.15.18-.14-.11-.15-.16S8.59,19.23,8.66,19.11Z"/></g><g class="cls-3"><path d="M4,7.4c-.14-.25-.28-.47-.4-.7-.27-.52-.2-.8.21-1.08,0-.18,0-.32,0-.46a3,3,0,0,0,0-.42A1.78,1.78,0,0,1,4.4,3a2.71,2.71,0,0,1,1.77-.66.67.67,0,0,1,.61.22c.11-.17.21-.34.33-.49s.33-.27.55-.12a4.42,4.42,0,0,0,1.92.7.56.56,0,0,1,.24.13,1.79,1.79,0,0,1,.67,1.61c.3,0,.38,0,.44.32a6,6,0,0,1,.06.67,3.7,3.7,0,0,0,.58-.1A4.47,4.47,0,0,0,12.36,5a1,1,0,0,1,.77-.06,1.56,1.56,0,0,1,.95.7c.24-.14.35-.14.53.06A2,2,0,0,1,15,6.2a8.28,8.28,0,0,1,.42,1.18,2.91,2.91,0,0,1,0,.66c.13,0,.15.15.13.3a6.7,6.7,0,0,1-.21,1,1.89,1.89,0,0,1-1.54,1.22,2,2,0,0,1-.58,0,1.87,1.87,0,0,1-1.9.61.19.19,0,0,0-.16.08A10.5,10.5,0,0,0,9.7,15.1a15,15,0,0,0-.16,1.63,9.81,9.81,0,0,0,.08,1.08v.33H9.16a10.73,10.73,0,0,0-1.72-5.81,5.7,5.7,0,0,1-.9.37,2.94,2.94,0,0,1-2.24-.53C4,12,4,11.7,4.11,11.34L3.82,11a3.36,3.36,0,0,0-.24-.29,1.87,1.87,0,0,1-.44-2.18A2.57,2.57,0,0,1,4,7.4Zm.74,1.84a2.5,2.5,0,0,0,1.17,1.94,2,2,0,0,0,.31.12,2.51,2.51,0,0,0,2.29-.8.33.33,0,0,0,.06-.25,3.81,3.81,0,0,0-.31-.79.78.78,0,0,0-.54-.37l0,.33a1.06,1.06,0,0,1-.85,1,1.68,1.68,0,0,1-1.2-.19A2.54,2.54,0,0,1,4.71,9.24ZM4,5.32c.47.13.64,0,.76-.41a.57.57,0,0,1,0-.14,10,10,0,0,1,.43-.94.84.84,0,0,1,.62-.4.68.68,0,0,0,.62-.63.2.2,0,0,0-.11-.17.42.42,0,0,0-.25,0,2.55,2.55,0,0,0-1.71.72A1.35,1.35,0,0,0,4,4.42C4,4.71,4,5,4,5.32ZM4.16,11l.25-.17a.35.35,0,0,0,.15-.48,5.82,5.82,0,0,1-.3-1,.92.92,0,0,1,.24-1,.65.65,0,0,0,.19-.69c-.08-.33-.16-.36-.43-.17a2.53,2.53,0,0,0-.93,1.4,1.5,1.5,0,0,0,.36,1.53Zm6.41-2.78a2.31,2.31,0,0,0,.9,1.5A1.43,1.43,0,0,0,12,9.9a2,2,0,0,0,1.64-.45c.37-.25.39-.37.25-.78A1,1,0,0,0,13.23,8l-.06.37a1,1,0,0,1-.76.78,1.44,1.44,0,0,1-1.17-.26A7.34,7.34,0,0,1,10.57,8.19ZM9,9.91A2.17,2.17,0,0,0,9,8.78a2.17,2.17,0,0,0-.81-1.37.63.63,0,0,0-.85,0A4.26,4.26,0,0,0,6.8,8a2.45,2.45,0,0,0-.18.29,3.09,3.09,0,0,1,1.48.44C8.56,9,8.68,9.49,9,9.91ZM8.53,3.8A1.48,1.48,0,0,0,6,4.47a1.15,1.15,0,0,0,.37,1.24c.05,0,.15,0,.23.06-.29-.58-.23-.91.24-1.25a2.58,2.58,0,0,1,.51-.29Zm-1.64,6H6.64a.74.74,0,0,1-.75-1A3.7,3.7,0,0,1,6.64,7.4l.2-.28A1.58,1.58,0,0,0,5.19,8a1.52,1.52,0,0,0,.4,1.62A1.29,1.29,0,0,0,6.89,9.79Zm2.4-3.35a2.33,2.33,0,0,0,.19-1.53.67.67,0,0,0-.69-.58,2.1,2.1,0,0,0-1.1.26,2.49,2.49,0,0,1,1,1.83C8.93,6.24,9,6.24,9.29,6.44Zm-1.84,5.2a2,2,0,0,1-1.64.16.78.78,0,0,1-.54-.4c-.28-.55-.37-.56-.79-.09l0,0c-.22.28-.19.52.13.67a7.44,7.44,0,0,0,1,.4,1.81,1.81,0,0,0,1.63-.33C7.38,12,7.51,11.86,7.45,11.64Zm1.88,0c-.5.21-1,.58-1.6.26l-.17.27.23-.11A14.41,14.41,0,0,1,9,14.67ZM10,5a1.63,1.63,0,0,0,.07-1.46,1,1,0,0,0-.63-.64A4.5,4.5,0,0,1,7.56,2.2s-.17,0-.19,0-.22.32-.33.48c.39.09.74.15,1.08.25a2.88,2.88,0,0,1,1.36.79A1.89,1.89,0,0,1,10,5ZM5,7.06c.51-.18,1-.39,1.45-.51a2.08,2.08,0,0,1,1.84.26,4.65,4.65,0,0,1,.47.44A1.65,1.65,0,0,0,7.63,5.91a1,1,0,0,0-.6,0,5,5,0,0,1-1.95.56.2.2,0,0,0-.14.13C4.94,6.74,5,6.91,5,7.06Zm9.31,1.6.09,0c0-.29,0-.58,0-.86a1.94,1.94,0,0,0-.63-1.19A.59.59,0,0,0,13,6.43a1.9,1.9,0,0,0-.73.78,2.76,2.76,0,0,1,1.27.37A2.24,2.24,0,0,1,14.27,8.66ZM12.39,6.27A1.34,1.34,0,0,0,11,7a1.32,1.32,0,0,0,.3,1.4,1.09,1.09,0,0,0,1,.18l-.27,0a.62.62,0,0,1-.51-.85,2.49,2.49,0,0,1,.3-.69A8.14,8.14,0,0,1,12.39,6.27ZM10,9.59c-.33.1-.59.24-.65.63a1,1,0,0,1-.72.83,1.41,1.41,0,0,0-.52.26,1.2,1.2,0,0,0-.16.4c.11,0,.23.08.33,0A2.4,2.4,0,0,0,9,11.55,2,2,0,0,0,10,9.59Zm.77,0a2.69,2.69,0,0,0-.39.33c-.21.24-.21.5.1.63s.53.22.8.31a1.57,1.57,0,0,0,1.46-.27c.1-.08.24-.15.2-.28a5.56,5.56,0,0,1-1,.14,1,1,0,0,1-1-.62A1.24,1.24,0,0,0,10.8,9.58Zm0-3.36L11,6.1c.31-.12.62-.27.94-.36A1.89,1.89,0,0,1,13.76,6l.24.22a1.25,1.25,0,0,0-.5-.85,1,1,0,0,0-1.1-.13A2.9,2.9,0,0,1,11,5.63a.24.24,0,0,0-.17.11A3.63,3.63,0,0,0,10.79,6.22ZM9.48,13.74h0L10.72,11l-.57-.31-.34.56a1.52,1.52,0,0,1,0,.32C9.73,12.28,9.61,13,9.48,13.74Zm0-4.44c.4-.19.55-.4.44-.76C9.78,8,9.56,7.49,9.35,7a1.85,1.85,0,0,0-.25-.32.28.28,0,0,0,0,.15c0,.31.07.62.1.94A1.32,1.32,0,0,0,9.2,8c.05.2.12.39.16.59S9.45,9.07,9.5,9.3ZM4.75,5.76A6.38,6.38,0,0,0,4,5.84a.37.37,0,0,0-.28.59c.09.2.21.39.31.58s.17.22.35.14a.43.43,0,0,1,.22,0ZM15.23,8.44a.64.64,0,0,0-.55.55.82.82,0,0,1-.59.69,1.7,1.7,0,0,0-.45.22.45.45,0,0,0-.16.22c-.05.15,0,.21.17.2A1.81,1.81,0,0,0,15.23,8.44ZM14.5,5.9l0,0c0,.36,0,.74.07,1.1s.19.73.28,1.09a.51.51,0,0,0,.32-.71c-.09-.3-.19-.61-.31-.91S14.61,6.1,14.5,5.9ZM5.94,6a2.16,2.16,0,0,1-.35-1.78l0,0A2.48,2.48,0,0,0,5.18,6s.1.1.15.09A5.31,5.31,0,0,0,5.94,6ZM10.08,8a4.78,4.78,0,0,1,.29-.61.67.67,0,0,0,.14-.71c0-.13-.13-.15-.22-.08s-.34.3-.51.45a.18.18,0,0,0,0,.13Zm.59-3.17c-.2.32-.41.61-.58.92s-.29.64-.44,1a4.39,4.39,0,0,1,.64-.39.29.29,0,0,0,.22-.3.78.78,0,0,1,.05-.41A1,1,0,0,0,10.67,4.78Zm-3,.63c0-.31-.1-.43-.28-.43S7,5.14,7,5.26s.32.31.48.28A.33.33,0,0,0,7.62,5.41Zm-1,3.82,0,.06L7.07,9a1.8,1.8,0,0,0-.36-.32c-.1-.06-.27.17-.28.33S6.48,9.25,6.63,9.23ZM7.91,7a1.67,1.67,0,0,0-1.43-.12c.26,0,.62-.15.74.26ZM8.88,4l.69.35a1.86,1.86,0,0,0-1.06-1C8.67,3.59,9,3.66,8.88,4Zm3.37,4.16.37-.27c-.1-.09-.18-.23-.29-.24s-.23.12-.22.27S12.18,8.05,12.25,8.16Zm.61-2,.44-.1V6l-.92-.14Zm-2.71,3,.25.2a.61.61,0,0,0-.13-.61ZM6.78,3l-.09.24.76-.14Zm.64,6-.06,0c0,.28-.15.41-.37.53l.38,0Zm.81-3.34-.31-.43-.06.46Zm.9,4.66-.25,0-.15.44,0,0ZM4.91,7.46,5,7.73l.25-.34,0,0Z"/><path d="M24.54,11.06V6.44l.19.08,2.61,1.19c.13.06.19.12.18.27,0,.54,0,1.09,0,1.63,0,.11,0,.18-.13.23L24.64,11Z"/><path d="M33.58,6.45v4.63l-1.12-.49L30.8,9.86a.23.23,0,0,1-.18-.26c0-.55,0-1.1,0-1.65a.24.24,0,0,1,.11-.2L33.5,6.47Z"/><path d="M30.18,9.7H28V7.8h2.21Z"/><path d="M2.67,21.53C3,21.42,3,21.36,3,21c0-.55,0-1.09,0-1.63,0-.32-.06-.39-.36-.51h.78a6.74,6.74,0,0,1,.78,0,.59.59,0,0,1,.57.48.61.61,0,0,1-.43.71l.13.06a.69.69,0,0,1,.56.76.61.61,0,0,1-.63.61C3.83,21.55,3.24,21.53,2.67,21.53Zm.76-1.36c0,.28,0,.55,0,.82,0,.43.2.6.63.51a.6.6,0,0,0,.52-.62c0-.4-.15-.64-.5-.7A4.63,4.63,0,0,0,3.43,20.17Zm0-1.24v1.19c.31,0,.63.05.83-.27a.62.62,0,0,0,0-.68C4.06,18.86,3.74,18.93,3.44,18.93Z"/><path d="M17.46,21.42a.77.77,0,0,1-1,0,.72.72,0,0,1-.08-.93c.12-.18.26-.34.42-.54-.32-.62-.3-.88.16-1.05a.38.38,0,0,0-.1.51,4.34,4.34,0,0,0,.28.46.59.59,0,0,0,.3-.65.38.38,0,0,0-.38-.35c.32,0,.56.07.63.3.15.43-.22.56-.48.76l.11.16c.17.24.35.48.54.73l.11-.15c-.12.17,0,.29.1.4s.17.17.26.24a.36.36,0,0,0,.54,0c-.08.29-.42.35-.74.18-.12-.07-.21-.18-.32-.25s-.11,0-.17,0,0-.15,0-.19q-.36-.48-.72-.93a.81.81,0,0,0-.27,1C16.79,21.42,17,21.51,17.46,21.42Z"/><path d="M22.61,18.89a1.63,1.63,0,0,0-.51,2.29.85.85,0,0,0,.8.38,1.22,1.22,0,0,1-1.51-1.06A1.34,1.34,0,0,1,22.61,18.89Z"/><path d="M11.5,21.54c-.2,0-.43.16-.64-.07l-.26.1A1.45,1.45,0,0,0,10.75,20l.17,0a7.92,7.92,0,0,0-.05-.85c0-.09-.14-.16-.22-.24l.57-.08v2.29A.36.36,0,0,0,11.5,21.54Z"/><path d="M13,19.9a.61.61,0,0,1,.83.55H12.66a.85.85,0,0,0,.38,1c.3.14.54,0,.76-.3,0,.33-.36.49-.67.48A.86.86,0,0,1,13,19.9a.58.58,0,0,0-.32.5h.82C13.46,20,13.32,19.9,13,19.9Z"/><path d="M5.9,20l.52-.08,0,.22a3.48,3.48,0,0,1,.38-.2.39.39,0,0,1,.24,0,.32.32,0,0,1,.14.16s0,.11-.06.11A.33.33,0,0,1,7,20.09c-.21-.17-.39-.14-.43.13a6.59,6.59,0,0,0,0,1.09c0,.08.12.16.19.23H5.88c.32-.08.31-.28.3-.49v-.72A.35.35,0,0,0,5.9,20Z"/><path d="M24.92,20l.47-.08.06.21a2.39,2.39,0,0,1,.43-.2.33.33,0,0,1,.27.05s0,.13,0,.2a1.21,1.21,0,0,1-.19,0s0,0-.06-.06c-.17-.14-.32-.11-.39.1a1.7,1.7,0,0,0-.08.45c0,.18,0,.35,0,.53a.36.36,0,0,0,.24.39h-.77C25.27,21.32,25.28,20.16,24.92,20Z"/><path d="M32.37,20l.52-.08.08.23.14-.09s0,0,0,.06a3.17,3.17,0,0,0-.15.5,2.26,2.26,0,0,0,0,.52c0,.19,0,.38.23.45h-.79c.22-.06.25-.24.25-.43s0-.51,0-.76S32.59,20.08,32.37,20Z"/><path d="M33.52,21.54c.2-.06.23-.22.23-.4s0-.49,0-.74-.11-.44-.44-.47c.28-.14.48-.08.72.2L34.2,20a2.32,2.32,0,0,0-.12,1.22c0,.1.12.19.18.28Z"/><path d="M34.41,19.92c.48-.17.79,0,.79.54v.65c0,.19,0,.36.24.43h-.85c.28-.07.3-.26.31-.45s0-.41,0-.61C34.88,20.06,34.81,20,34.41,19.92Z"/><path d="M7.92,20l.55-.08V21.1c0,.27,0,.3.25.44H7.93C8.27,21.33,8.29,20.16,7.92,20Z"/><path d="M10.49,19.87a.8.8,0,0,0-.58.87.77.77,0,0,0,.6.84.76.76,0,0,1-.79-.32.91.91,0,0,1,0-1A.76.76,0,0,1,10.49,19.87Z"/><path d="M28.08,21.58a1.12,1.12,0,0,0,.4-.75,1,1,0,0,0-.21-.74.55.55,0,0,0-.53-.19.86.86,0,0,1,.93.36.83.83,0,0,1,0,1A.92.92,0,0,1,28.08,21.58Z"/><path d="M30.79,21.58a1.17,1.17,0,0,0,.41-.75,1.1,1.1,0,0,0-.22-.74.55.55,0,0,0-.53-.19.85.85,0,0,1,.93.36.83.83,0,0,1,0,1A.92.92,0,0,1,30.79,21.58Z"/><path d="M23.81,21.31l-.77.28,0-.05a.63.63,0,0,0,.4-.69c0-.17-.1-.22-.42-.3h1.14C23.68,20.65,23.85,21,23.81,21.31Z"/><path d="M27.75,19.9a1,1,0,0,0,0,1.66.85.85,0,0,1-.79-.81A.88.88,0,0,1,27.75,19.9Z"/><path d="M30.46,19.9a1,1,0,0,0,0,1.66.85.85,0,0,1-.79-.81A.88.88,0,0,1,30.46,19.9Z"/><path d="M23.08,18.9c.24-.06.43.26.67,0v.82A1.29,1.29,0,0,0,23.08,18.9Z"/><path d="M18.09,20.39c0-.18.12-.4-.17-.51h.59Z"/><path d="M8.32,18.77c.08.11.17.18.16.23s-.1.12-.15.18-.14-.11-.15-.17S8.25,18.89,8.32,18.77Z"/></g><path class="cls-4" d="M4.17,7.59c-.14-.25-.29-.46-.41-.7C3.5,6.38,3.57,6.1,4,5.82c0-.18,0-.32,0-.46s0-.28,0-.42A1.78,1.78,0,0,1,4.6,3.18a2.7,2.7,0,0,1,1.76-.66A.69.69,0,0,1,7,2.74c.11-.18.21-.34.32-.49s.34-.27.55-.12a4.5,4.5,0,0,0,1.93.7A.56.56,0,0,1,10,3a1.79,1.79,0,0,1,.67,1.61c.3,0,.37,0,.43.31a4.45,4.45,0,0,1,.07.68,3.91,3.91,0,0,0,.58-.1,4.09,4.09,0,0,0,.78-.31,1,1,0,0,1,.78-.06,1.56,1.56,0,0,1,.95.7c.24-.14.34-.14.53.06a2,2,0,0,1,.38.55,7.17,7.17,0,0,1,.41,1.18,2.39,2.39,0,0,1,0,.66c.13,0,.15.15.12.3a5.54,5.54,0,0,1-.2,1,1.84,1.84,0,0,1-2.12,1.2,1.84,1.84,0,0,1-1.9.6.21.21,0,0,0-.16.08A10.61,10.61,0,0,0,9.9,15.3a15,15,0,0,0-.16,1.63c0,.36,0,.72.07,1.08,0,.1,0,.21,0,.33H9.36a10.73,10.73,0,0,0-1.72-5.81,4.83,4.83,0,0,1-.9.36,2.93,2.93,0,0,1-2.25-.53c-.29-.19-.32-.46-.18-.82L4,11.23A3.22,3.22,0,0,0,3.78,11a1.87,1.87,0,0,1-.44-2.18A2.66,2.66,0,0,1,4.17,7.59Zm.74,1.85a2.47,2.47,0,0,0,1.17,1.93,1.2,1.2,0,0,0,.31.13,2.5,2.5,0,0,0,2.28-.8.3.3,0,0,0,.07-.25,4.47,4.47,0,0,0-.31-.79.75.75,0,0,0-.54-.37c0,.12,0,.22,0,.33a1.07,1.07,0,0,1-.85,1,1.67,1.67,0,0,1-1.2-.19A2.54,2.54,0,0,1,4.91,9.44ZM4.24,5.52c.46.13.63,0,.76-.41A.8.8,0,0,1,5,5c.15-.31.27-.63.44-.93a.8.8,0,0,1,.61-.4A.69.69,0,0,0,6.71,3a.21.21,0,0,0-.11-.18.69.69,0,0,0-.25,0,2.59,2.59,0,0,0-1.71.73,1.38,1.38,0,0,0-.47,1.09C4.19,4.91,4.22,5.2,4.24,5.52Zm.11,5.65L4.61,11a.34.34,0,0,0,.14-.48,5.62,5.62,0,0,1-.29-1,.89.89,0,0,1,.24-.95.63.63,0,0,0,.18-.69c-.07-.33-.15-.36-.42-.17a2.45,2.45,0,0,0-.93,1.4,1.49,1.49,0,0,0,.35,1.52C4,10.81,4.18,11,4.35,11.17Zm6.41-2.78a2.42,2.42,0,0,0,.9,1.5,1.57,1.57,0,0,0,.5.21,2,2,0,0,0,1.64-.45c.36-.25.39-.37.25-.78a1,1,0,0,0-.63-.68c0,.13,0,.25-.05.36a.93.93,0,0,1-.77.78,1.38,1.38,0,0,1-1.16-.25A8.91,8.91,0,0,1,10.76,8.39ZM9.15,10.11A2.17,2.17,0,0,0,9.17,9a2.17,2.17,0,0,0-.81-1.37.63.63,0,0,0-.85,0A3.66,3.66,0,0,0,7,8.15a1.6,1.6,0,0,0-.18.29,3,3,0,0,1,1.47.44C8.76,9.17,8.88,9.69,9.15,10.11ZM8.72,4a1.47,1.47,0,0,0-2.5.67,1.15,1.15,0,0,0,.37,1.24s.15,0,.23.06c-.29-.58-.23-.92.24-1.25a2.58,2.58,0,0,1,.51-.29C8,4.27,8.33,4.14,8.72,4ZM7.08,10l-.24,0a.74.74,0,0,1-.75-1,4,4,0,0,1,.74-1.36L7,7.32a1.58,1.58,0,0,0-1.65.91,1.52,1.52,0,0,0,.4,1.62A1.28,1.28,0,0,0,7.08,10ZM9.49,6.64a2.27,2.27,0,0,0,.18-1.53A.66.66,0,0,0,9,4.53a2.1,2.1,0,0,0-1.1.26,2.49,2.49,0,0,1,1,1.83C9.13,6.44,9.18,6.44,9.49,6.64Zm-1.84,5.2A2.05,2.05,0,0,1,6,12a.78.78,0,0,1-.54-.4c-.28-.55-.37-.56-.79-.09l0,0c-.22.27-.19.52.13.67a6.3,6.3,0,0,0,1,.39,1.81,1.81,0,0,0,1.63-.32C7.58,12.17,7.71,12.06,7.65,11.84Zm1.88,0c-.5.22-1,.59-1.61.27l-.16.27L8,12.3a13.5,13.5,0,0,1,1.24,2.57Zm.67-6.68a1.63,1.63,0,0,0,.07-1.46,1,1,0,0,0-.63-.64A4.54,4.54,0,0,1,7.75,2.4a.24.24,0,0,0-.18,0c-.12.16-.23.33-.34.49.4.09.75.15,1.09.25a3,3,0,0,1,1.36.78A2,2,0,0,1,10.2,5.19Zm-5,2.07c.5-.18,1-.39,1.45-.51A2.08,2.08,0,0,1,8.45,7a5.9,5.9,0,0,1,.46.43A1.64,1.64,0,0,0,7.83,6.1a1,1,0,0,0-.6,0,5.1,5.1,0,0,1-1.95.56.2.2,0,0,0-.14.13A4,4,0,0,0,5.16,7.26Zm9.31,1.6.08,0a8.44,8.44,0,0,0,0-.87,1.94,1.94,0,0,0-.63-1.18.59.59,0,0,0-.68-.15,1.86,1.86,0,0,0-.74.78,2.58,2.58,0,0,1,1.27.37A2.2,2.2,0,0,1,14.47,8.86Zm-1.88-2.4a1.36,1.36,0,0,0-1.37.76,1.33,1.33,0,0,0,.3,1.4,1.09,1.09,0,0,0,1.05.18l-.27,0a.63.63,0,0,1-.52-.85,3.11,3.11,0,0,1,.31-.7C12.23,7,12.41,6.72,12.59,6.46ZM10.23,9.79c-.33.1-.59.24-.65.63a1,1,0,0,1-.72.82,1.61,1.61,0,0,0-.52.27c-.1.08-.11.26-.16.4.11,0,.23.08.33.05a2.74,2.74,0,0,0,.63-.21A2,2,0,0,0,10.23,9.79Zm.77,0a2.69,2.69,0,0,0-.39.33c-.21.24-.22.49.1.63s.53.22.8.31A1.63,1.63,0,0,0,13,10.78c.1-.08.24-.16.2-.28a6.74,6.74,0,0,1-1,.14A1,1,0,0,1,11.16,10,1.24,1.24,0,0,0,11,9.78Zm0-3.37.24-.11c.31-.12.62-.27.94-.36A1.89,1.89,0,0,1,14,6.2a2.4,2.4,0,0,1,.24.22,1.22,1.22,0,0,0-.51-.85,1,1,0,0,0-1.1-.13,2.84,2.84,0,0,1-1.43.39.24.24,0,0,0-.16.11A3.52,3.52,0,0,0,11,6.41ZM9.68,13.94h0l1.22-2.76-.57-.31-.34.56a1,1,0,0,1,0,.32C9.93,12.48,9.8,13.21,9.68,13.94Zm0-4.44c.41-.19.56-.4.45-.76-.17-.53-.38-1-.59-1.57a1.85,1.85,0,0,0-.25-.32.25.25,0,0,0,0,.14l.09.94a1.36,1.36,0,0,0,0,.29c0,.19.12.39.16.58S9.65,9.27,9.69,9.5ZM5,6A6.38,6.38,0,0,0,4.24,6,.37.37,0,0,0,4,6.63c.09.2.21.38.31.58s.17.22.35.13a.56.56,0,0,1,.22,0ZM15.43,8.63a.64.64,0,0,0-.55.56.85.85,0,0,1-.59.69,1.85,1.85,0,0,0-.45.21.48.48,0,0,0-.17.23c-.05.14,0,.21.17.2A1.83,1.83,0,0,0,15.43,8.63ZM14.7,6.1l0,0a10.32,10.32,0,0,0,.07,1.1A10.25,10.25,0,0,0,15,8.31a.51.51,0,0,0,.32-.71c-.1-.31-.2-.62-.32-.91A4.14,4.14,0,0,0,14.7,6.1Zm-8.56.13a2.16,2.16,0,0,1-.35-1.78l0,0a2.48,2.48,0,0,0-.36,1.76s.1.1.15.09Zm4.14,1.92a3.08,3.08,0,0,1,.29-.61.65.65,0,0,0,.13-.71c0-.13-.12-.16-.22-.08s-.33.29-.5.45a.18.18,0,0,0,0,.13ZM10.87,5a10.67,10.67,0,0,0-.58.92,10.26,10.26,0,0,0-.44.95,4.85,4.85,0,0,1,.64-.4.28.28,0,0,0,.22-.3c0-.14,0-.31,0-.4A1.1,1.1,0,0,0,10.87,5Zm-3,.63c0-.31-.1-.43-.28-.43s-.35.16-.35.28.31.3.48.27A.27.27,0,0,0,7.82,5.61Zm-1,3.82,0,.05.41-.26a2.24,2.24,0,0,0-.36-.33c-.11-.05-.27.17-.28.34S6.67,9.45,6.83,9.43ZM8.11,7.15A1.68,1.68,0,0,0,6.68,7c.26,0,.62-.15.74.25Zm1-2.95.69.35a1.86,1.86,0,0,0-1.06-1C8.86,3.78,9.24,3.86,9.08,4.2Zm3.37,4.16.37-.27c-.1-.09-.19-.23-.29-.24s-.24.11-.22.27A1.14,1.14,0,0,0,12.45,8.36Zm.61-2,.44-.11v0l-.92-.13Zm-2.71,3,.25.21A.59.59,0,0,0,10.46,9ZM7,3.15l-.09.23.76-.13Zm.64,6-.06,0c0,.28-.15.41-.37.52l.38.06Zm.81-3.34-.31-.43-.06.46Zm.9,4.66-.25,0-.15.44,0,0ZM5.11,7.66l.09.27.25-.34,0,0Z"/><path class="cls-4" d="M24.74,11.26V6.64l.19.08,2.61,1.19a.25.25,0,0,1,.18.27c0,.54,0,1.08,0,1.63,0,.1,0,.18-.13.23-.92.39-1.83.8-2.75,1.2Z"/><path class="cls-4" d="M33.78,6.65v4.63l-1.12-.49L31,10.06a.23.23,0,0,1-.18-.26c0-.55,0-1.1,0-1.65a.24.24,0,0,1,.11-.2c.92-.44,1.84-.86,2.76-1.28Z"/><path class="cls-4" d="M30.38,9.9H28.16V8h2.22Z"/><path class="cls-4" d="M2.87,21.72c.28-.1.34-.16.34-.49V19.6c0-.32-.06-.39-.36-.51.26,0,.52,0,.78,0a6.77,6.77,0,0,1,.78,0,.58.58,0,0,1,.57.48.61.61,0,0,1-.43.71l.13.06a.68.68,0,0,1,.56.76.62.62,0,0,1-.63.61C4,21.75,3.44,21.72,2.87,21.72Zm.75-1.35v.82c0,.43.21.6.64.51a.62.62,0,0,0,.52-.62c0-.4-.15-.64-.5-.7A4.77,4.77,0,0,0,3.62,20.37Zm0-1.24v1.19c.31,0,.63,0,.83-.27a.62.62,0,0,0,0-.68C4.26,19.06,3.94,19.13,3.64,19.13Z"/><path class="cls-4" d="M17.66,21.62a.77.77,0,0,1-1,0,.71.71,0,0,1-.08-.93c.12-.18.26-.34.42-.54-.32-.62-.3-.88.16-1.05a.39.39,0,0,0-.11.51c.09.16.19.31.29.46a.62.62,0,0,0,.3-.65.38.38,0,0,0-.39-.35c.33,0,.57.07.64.29.15.44-.22.57-.48.77l.11.16c.17.24.35.48.54.73l.11-.15c-.12.17,0,.29.1.4s.17.17.26.24.32.17.53,0c-.07.29-.42.35-.74.17a3.4,3.4,0,0,1-.31-.25.46.46,0,0,0-.17,0c0-.07,0-.15,0-.19-.23-.32-.47-.63-.71-.94a.8.8,0,0,0-.27,1C17,21.62,17.21,21.71,17.66,21.62Z"/><path class="cls-4" d="M22.81,19.08a1.64,1.64,0,0,0-.51,2.3.85.85,0,0,0,.8.38,1.22,1.22,0,0,1-1.51-1.06A1.36,1.36,0,0,1,22.81,19.08Z"/><path class="cls-4" d="M11.7,21.74c-.2,0-.43.16-.64-.07l-.26.09A1.43,1.43,0,0,0,11,20.19l.17,0a7.92,7.92,0,0,0,0-.85c0-.09-.14-.17-.22-.24l.57-.08v2.28A.36.36,0,0,0,11.7,21.74Z"/><path class="cls-4" d="M13.16,20.1a.61.61,0,0,1,.83.55H12.86a.84.84,0,0,0,.38,1c.3.15.54.06.76-.29,0,.33-.36.48-.67.47a.85.85,0,0,1-.16-1.69.56.56,0,0,0-.32.5h.82C13.66,20.23,13.52,20.09,13.16,20.1Z"/><path class="cls-4" d="M6.1,20.15l.52-.08,0,.22a3.48,3.48,0,0,1,.38-.2.33.33,0,0,1,.24,0,.32.32,0,0,1,.14.16s0,.11-.06.11a.31.31,0,0,1-.19-.06c-.21-.17-.39-.14-.43.13a6.56,6.56,0,0,0,0,1.09c0,.08.12.15.18.23H6.08c.31-.08.3-.29.3-.49v-.72A.34.34,0,0,0,6.1,20.15Z"/><path class="cls-4" d="M25.12,20.15l.47-.09.06.22a4.11,4.11,0,0,1,.42-.21.4.4,0,0,1,.28.06s0,.13,0,.19H26.2s0,0-.06-.06c-.17-.14-.32-.11-.4.09a1.83,1.83,0,0,0-.07.46c0,.17,0,.35,0,.53a.34.34,0,0,0,.24.38h-.77A1.37,1.37,0,0,0,25.12,20.15Z"/><path class="cls-4" d="M32.57,20.15l.52-.08.08.23.14-.09s0,0,0,.06a2.21,2.21,0,0,0-.15.5,3,3,0,0,0,0,.52c0,.19,0,.38.24.45h-.79c.22-.06.25-.24.24-.43s0-.51,0-.76S32.79,20.28,32.57,20.15Z"/><path class="cls-4" d="M33.72,21.74c.2-.06.23-.22.23-.4s0-.5,0-.74-.11-.44-.44-.47c.27-.14.48-.08.72.2l.17-.09a2.22,2.22,0,0,0-.12,1.22c0,.09.12.19.18.28Z"/><path class="cls-4" d="M34.61,20.12c.48-.18.79,0,.79.54v.65c0,.19,0,.36.24.43h-.85c.28-.08.3-.26.3-.45s0-.41,0-.61C35.08,20.26,35,20.18,34.61,20.12Z"/><path class="cls-4" d="M8.12,20.15l.55-.09v1.23c0,.28,0,.3.25.45H8.13C8.47,21.53,8.49,20.36,8.12,20.15Z"/><path class="cls-4" d="M10.69,20.07a.79.79,0,0,0-.58.86.77.77,0,0,0,.6.85.75.75,0,0,1-.79-.32.93.93,0,0,1,0-1A.77.77,0,0,1,10.69,20.07Z"/><path class="cls-4" d="M28.28,21.78a1.12,1.12,0,0,0,.4-.75,1.1,1.1,0,0,0-.21-.75.56.56,0,0,0-.53-.18.84.84,0,0,1,.92.36.81.81,0,0,1,0,1A.92.92,0,0,1,28.28,21.78Z"/><path class="cls-4" d="M31,21.78a1.12,1.12,0,0,0,.4-.75,1.05,1.05,0,0,0-.21-.75.56.56,0,0,0-.53-.18.84.84,0,0,1,.92.36.81.81,0,0,1,0,1A.92.92,0,0,1,31,21.78Z"/><path class="cls-4" d="M24,21.5l-.76.29,0-.05a.63.63,0,0,0,.4-.69c0-.17-.11-.22-.43-.31h1.15C23.88,20.85,24.05,21.22,24,21.5Z"/><path class="cls-4" d="M28,20.1a1,1,0,0,0,0,1.65.84.84,0,0,1-.79-.8A.86.86,0,0,1,28,20.1Z"/><path class="cls-4" d="M30.66,20.1a1,1,0,0,0,0,1.65.84.84,0,0,1-.79-.8A.86.86,0,0,1,30.66,20.1Z"/><path class="cls-4" d="M23.27,19.1c.25-.06.44.25.68,0v.82A1.28,1.28,0,0,0,23.27,19.1Z"/><path class="cls-4" d="M18.29,20.59c0-.18.12-.4-.18-.51h.6Z"/><path class="cls-4" d="M8.52,19c.08.11.17.18.16.23s-.1.12-.15.18-.14-.11-.15-.17S8.45,19.09,8.52,19Z"/></g></g></svg>