<svg xmlns="http://www.w3.org/2000/svg" viewBox="0 0 38.55 24.66"><defs><style>.cls-1{isolation:isolate;}.cls-2{opacity:0.15;}.cls-2,.cls-3{mix-blend-mode:multiply;}.cls-4{fill:#fff;}</style></defs><title>convert-FIX-SVG-03</title><g class="cls-1"><g id="Layer_1" data-name="Layer 1"><g class="cls-2"><path d="M23.27,5.56A6.49,6.49,0,0,0,21.1,3.89a5.29,5.29,0,0,0-2-.56A2.22,2.22,0,0,0,16.63,5.4a5,5,0,0,0,.58,2.67,12.61,12.61,0,0,0,1.64,2.51l.11.15s0,0,0,.06L17.74,12c-.18-.2-.35-.4-.52-.61A17.18,17.18,0,0,1,14.49,7.1a7.84,7.84,0,0,1-.63-2.66A3,3,0,0,1,15.94,1.3a4,4,0,0,1,2.09,0A8.58,8.58,0,0,1,22.69,4l.21.22A.48.48,0,0,1,23,4a3.2,3.2,0,0,1,2.35-1.17,6.73,6.73,0,0,1,5.72,2.47,7.28,7.28,0,0,1,1.81,3.46,6.53,6.53,0,0,1-.79,4.71,11.55,11.55,0,0,1-3.13,3.4,20.27,20.27,0,0,1-2.86,1.81.89.89,0,0,1-1-.16c-.34-.24-.67-.5-1-.75a41,41,0,0,1-4-3.43l-.23-.2,1.48-.93c.39.36.76.73,1.17,1,.8.65,1.62,1.28,2.43,1.9a.73.73,0,0,0,.89.05,12.92,12.92,0,0,0,3.42-2.59,5.92,5.92,0,0,0,1.45-2.71,4.73,4.73,0,0,0-.5-3.3,5.65,5.65,0,0,0-3.62-2.94A4.05,4.05,0,0,0,25,4.6,2.39,2.39,0,0,0,23.27,5.56Z"/><path d="M17.5,7.8l-.23-.7c.49-.22,1-.46,1.48-.66a8.51,8.51,0,0,1,3.66-.71,3.37,3.37,0,0,1,.83.15,1.4,1.4,0,0,1,1,1.65,4.86,4.86,0,0,1-1.1,2.21,17.48,17.48,0,0,1-3.81,3.42,45.74,45.74,0,0,1-7.88,4.33c-1.65.73-3.33,1.38-5,2.07a1.67,1.67,0,0,1-.3.08.48.48,0,0,1-.61-.28,8.85,8.85,0,0,1-1.11-4.21,8.17,8.17,0,0,1,1.29-4.29,12.3,12.3,0,0,1,3-3.27c.6-.46,1.2-.92,1.83-1.33a4.61,4.61,0,0,1,1.94-.69L13,7.27l-.71.19a8.73,8.73,0,0,0-5.58,4.71A5.62,5.62,0,0,0,7,17.49a.43.43,0,0,0,.25.15.8.8,0,0,0,.33-.06A48.75,48.75,0,0,0,15.32,14a17.51,17.51,0,0,0,3.93-3A5,5,0,0,0,20.3,9.41a1.64,1.64,0,0,0,.13-.9,1.14,1.14,0,0,0-1.15-.88A5.42,5.42,0,0,0,17.5,7.8Z"/><path d="M27.31,15.13A13.91,13.91,0,0,0,29,12.61a4.91,4.91,0,0,0,.56-1.91,3.54,3.54,0,0,0-1.24-2.95A8.56,8.56,0,0,0,25.12,6c-.48-.15-1-.27-1.47-.41a4,4,0,0,1,1.49-.52,4.42,4.42,0,0,1,3.66,1.3,5,5,0,0,1,1.51,3,5.07,5.07,0,0,1-1.43,4.36A16.5,16.5,0,0,1,27.51,15Z"/><path d="M24.42,6.88a3.56,3.56,0,0,1-.14,3,7.06,7.06,0,0,1-1.65,2,25.32,25.32,0,0,1-5.56,3.71,59.42,59.42,0,0,1-9.31,3.71h-.1l1.91-.78A59.5,59.5,0,0,0,20.3,12.73,12.52,12.52,0,0,0,23.56,9.5,4.07,4.07,0,0,0,24.42,6.88Z"/><path d="M17.62,12.05l-.6.47-.67-.71a15.9,15.9,0,0,1-3-4.37,7.56,7.56,0,0,1-.65-3.31A4,4,0,0,1,13,2.75,2.72,2.72,0,0,1,16.17,1c-.29.12-.61.22-.91.37A2.94,2.94,0,0,0,13.63,4a6.73,6.73,0,0,0,.71,3.08,18.86,18.86,0,0,0,3,4.59Z"/><path d="M6.69,12.85C7.07,10.71,10.3,8,13,7.59l.38.73c-.48.11-1,.2-1.44.33a8.58,8.58,0,0,0-3.66,1.93,6,6,0,0,0-1.5,2.1Z"/><path d="M23.39,21.65a4.25,4.25,0,0,1,.25.39c.13.24.24.49.38.73a2,2,0,0,0,.27.32,4.91,4.91,0,0,1-.54,0c-.05,0-.11-.08-.14-.15-.18-.33-.34-.67-.53-1a.45.45,0,0,0-.53-.22c0,.33,0,.66,0,1s.18.33.38.39H21.73c.34-.09.38-.34.38-.64,0-.53,0-1.07,0-1.6,0-.36-.05-.44-.33-.55.49,0,1,0,1.55,0a.65.65,0,0,1,.64.61.63.63,0,0,1-.52.71Zm-.85,0c.33,0,.64,0,.84-.3a.63.63,0,0,0,0-.73c-.19-.3-.5-.29-.82-.27Z"/><path d="M34.05,23.09H32.79c.38-.09.37-.39.37-.69V20.81c0-.33-.07-.41-.37-.57.56,0,1.12,0,1.68.08a.62.62,0,0,1,.55.61.63.63,0,0,1-.48.68l-.08,0c.09.17.19.33.28.49s.22.46.35.67a2.35,2.35,0,0,0,.26.29,5.28,5.28,0,0,1-.56,0s-.09-.08-.12-.14c-.18-.34-.34-.68-.53-1a.46.46,0,0,0-.53-.22c0,.33,0,.67,0,1S33.71,23,34.05,23.09Zm-.45-1.45a.76.76,0,0,0,.85-.31.65.65,0,0,0,0-.72c-.2-.29-.5-.28-.82-.26Z"/><path d="M7.11,20.26a1.46,1.46,0,0,0-.83,1.52,1.55,1.55,0,0,0,.32.94.89.89,0,0,0,1.46,0A1.85,1.85,0,0,0,8,20.55a3.43,3.43,0,0,0-.43-.32,1.49,1.49,0,0,1,1.27,1.15,1.44,1.44,0,0,1-1.07,1.68,1.45,1.45,0,1,1-.66-2.8Z"/><path d="M19.6,20.26a1.45,1.45,0,0,0-.82,1.52,1.55,1.55,0,0,0,.32.94.89.89,0,0,0,1.46,0,1.86,1.86,0,0,0-.06-2.18,3.43,3.43,0,0,0-.43-.32,1.47,1.47,0,0,1,1.26,1.15,1.42,1.42,0,0,1-1.06,1.68,1.45,1.45,0,1,1-.67-2.8Z"/><path d="M24.57,18.36a40.4,40.4,0,0,1-5.41-3.86l.51-.22a.22.22,0,0,1,.17.09,49.32,49.32,0,0,0,3.88,3.33Z"/><path d="M12.14,23.08c.34-.14.39-.21.39-.57V20.79c0-.31-.07-.4-.38-.53h2.19l.05.63c-.24-.77-.86-.56-1.41-.59v1.25c.45.08.58,0,.74-.48v1.1c-.17-.51-.29-.59-.77-.54,0,.35,0,.7.07,1a.53.53,0,0,0,.26.31.9.9,0,0,0,1.27-.55.23.23,0,0,1,.06-.12v.77Z"/><path d="M25.35,20.32v1.23c.46.07.56,0,.75-.47v1c-.09-.14-.14-.32-.26-.4a1.62,1.62,0,0,0-.53-.14c0,.4,0,.75.08,1.09a.56.56,0,0,0,.28.33.9.9,0,0,0,1.26-.59.14.14,0,0,1,.05-.09v.77H24.53c.35-.08.38-.34.37-.64V20.81c0-.33-.07-.42-.38-.55h2.19l.05.63C26.48,20.23,26.14,20.27,25.35,20.32Z"/><path d="M32.57,22.27v.81H30.12c.32-.07.38-.31.38-.6,0-.56,0-1.11,0-1.66,0-.34-.06-.42-.4-.55H32.3l.05.62c-.12-.26-.25-.52-.57-.56s-.55,0-.84,0v1.26c.42.1.61,0,.75-.43v1c-.09-.13-.14-.31-.26-.39a1.62,1.62,0,0,0-.52-.14c0,.4,0,.74.06,1.07a.5.5,0,0,0,.5.41.86.86,0,0,0,1.06-.7A.25.25,0,0,1,32.57,22.27Z"/><path d="M15.88,23.08c.35-.12.42-.21.42-.53V20.86c0-.29-.05-.52-.37-.59h2.13l.06.65c-.26-.67-.82-.59-1.37-.57v1.2c.46.06.63-.05.83-.53v1.13a1.43,1.43,0,0,0-.29-.42,1.66,1.66,0,0,0-.52-.15,11.68,11.68,0,0,0,0,1.19c0,.13.21.23.29.31Z"/><path d="M3.13,23.09c.34-.08.38-.33.38-.62,0-.54,0-1.07,0-1.61,0-.28,0-.52-.38-.59H4.34c-.32.06-.39.29-.39.58C4,21.4,4,22,4,22.5a.52.52,0,0,0,.54.55.89.89,0,0,0,1.08-.76v.8H3.13Z"/><path d="M10.48,23.09c-.06-.15-.13-.3-.19-.46l-.76-1.92a.6.6,0,0,0-.47-.44h1.27c-.37.15-.41.23-.26.61s.37,1,.56,1.48l.08.16c.11-.26.21-.48.3-.71s.28-.67.39-1,0-.4-.25-.52H12c-.32.1-.42.38-.54.65l-.83,2a1.86,1.86,0,0,1-.1.2Z"/><path d="M28.45,23.1a1.08,1.08,0,0,1-.08-.19c-.29-.71-.56-1.42-.85-2.14-.15-.37-.2-.4-.54-.5h1.25c-.07.06-.22.13-.25.24a.64.64,0,0,0,.06.4c.19.53.4,1.05.62,1.6l.08-.14c.18-.44.37-.89.54-1.33a1.5,1.5,0,0,0,.11-.34c0-.23,0-.32-.26-.43H30a.82.82,0,0,0-.49.54c-.29.7-.58,1.39-.88,2.08l-.09.21Z"/><path d="M23.47,5.75A6.76,6.76,0,0,0,21.3,4.08a5.47,5.47,0,0,0-2-.55A2.22,2.22,0,0,0,16.83,5.6a5.07,5.07,0,0,0,.58,2.67A13,13,0,0,0,19,10.78l.12.15s0,0,0,.06l-1.24,1.18c-.18-.21-.36-.4-.53-.61A17.63,17.63,0,0,1,14.69,7.3a7.61,7.61,0,0,1-.63-2.66A3,3,0,0,1,16.13,1.5a4.15,4.15,0,0,1,2.1-.05,8.67,8.67,0,0,1,4.66,2.71l.2.22a.61.61,0,0,1,.09-.16,3.2,3.2,0,0,1,2.35-1.17,6.73,6.73,0,0,1,5.72,2.47A7.28,7.28,0,0,1,33.06,9a6.54,6.54,0,0,1-.79,4.71,11.55,11.55,0,0,1-3.13,3.4,20.27,20.27,0,0,1-2.86,1.81.9.9,0,0,1-1-.16c-.34-.24-.67-.5-1-.75a42.44,42.44,0,0,1-4-3.43l-.23-.2,1.48-.93c.39.36.76.73,1.16,1.05.81.65,1.63,1.27,2.44,1.9a.73.73,0,0,0,.88.05,13.19,13.19,0,0,0,3.43-2.59,5.8,5.8,0,0,0,1.44-2.72,4.71,4.71,0,0,0-.49-3.29,5.65,5.65,0,0,0-3.62-2.94,4.26,4.26,0,0,0-1.55-.1A2.44,2.44,0,0,0,23.47,5.75Z"/><path d="M17.7,8l-.24-.7c.5-.22,1-.46,1.48-.66a8.58,8.58,0,0,1,3.67-.71,3.37,3.37,0,0,1,.83.15,1.4,1.4,0,0,1,1,1.65,4.86,4.86,0,0,1-1.1,2.21,17.72,17.72,0,0,1-3.81,3.42,45.74,45.74,0,0,1-7.88,4.33c-1.65.73-3.33,1.38-5,2.06a1.71,1.71,0,0,1-.3.09.48.48,0,0,1-.61-.28,8.85,8.85,0,0,1-1.11-4.21,8.05,8.05,0,0,1,1.29-4.29,12.3,12.3,0,0,1,3-3.27c.6-.46,1.2-.92,1.83-1.33a4.61,4.61,0,0,1,1.94-.69l.47,1.7-.71.19a8.73,8.73,0,0,0-5.58,4.71,5.6,5.6,0,0,0,.35,5.31.33.33,0,0,0,.24.15.62.62,0,0,0,.33,0,47.63,47.63,0,0,0,7.73-3.6,17.46,17.46,0,0,0,3.93-3A5.16,5.16,0,0,0,20.5,9.61a1.66,1.66,0,0,0,.13-.91,1.13,1.13,0,0,0-1.15-.87A5.42,5.42,0,0,0,17.7,8Z"/><path d="M27.51,15.33a13.91,13.91,0,0,0,1.73-2.52,5.08,5.08,0,0,0,.56-1.91A3.56,3.56,0,0,0,28.56,8a8.64,8.64,0,0,0-3.24-1.77c-.48-.16-1-.27-1.47-.42a4.19,4.19,0,0,1,1.49-.51A4.42,4.42,0,0,1,29,6.55a5,5,0,0,1,1.51,3,5.11,5.11,0,0,1-1.43,4.36,18.26,18.26,0,0,1-1.37,1.26Z"/><path d="M24.61,7.08a3.52,3.52,0,0,1-.13,3,7.23,7.23,0,0,1-1.65,2,24.93,24.93,0,0,1-5.56,3.7A58.88,58.88,0,0,1,8,19.46h-.1l1.91-.79A59.17,59.17,0,0,0,20.5,12.93,12.52,12.52,0,0,0,23.76,9.7,4,4,0,0,0,24.61,7.08Z"/><path d="M17.82,12.25l-.6.47L16.55,12a15.68,15.68,0,0,1-3-4.37,7.56,7.56,0,0,1-.65-3.31,3.92,3.92,0,0,1,.28-1.39,2.72,2.72,0,0,1,3.15-1.71c-.29.12-.61.22-.91.37a2.93,2.93,0,0,0-1.63,2.59,6.72,6.72,0,0,0,.7,3.08,19.47,19.47,0,0,0,3,4.59C17.6,12,17.7,12.1,17.82,12.25Z"/><path d="M6.89,13.05c.37-2.14,3.6-4.82,6.31-5.26l.37.72c-.48.12-1,.21-1.43.34a8.67,8.67,0,0,0-3.66,1.92A6.17,6.17,0,0,0,7,12.88Z"/><path d="M23.59,21.85c.09.13.17.26.25.39s.24.49.38.73a1.92,1.92,0,0,0,.26.32,4.77,4.77,0,0,1-.53,0c-.05,0-.11-.09-.14-.15-.18-.33-.34-.68-.53-1a.45.45,0,0,0-.53-.22c0,.33,0,.66,0,1s.19.32.39.38H21.93c.33-.08.38-.33.38-.63,0-.53,0-1.07,0-1.61,0-.36-.06-.44-.33-.55.49,0,1,0,1.55,0a.65.65,0,0,1,.64.61.63.63,0,0,1-.52.71Zm-.85,0c.33,0,.64,0,.84-.3a.63.63,0,0,0,0-.73c-.19-.3-.5-.3-.82-.27Z"/><path d="M34.25,23.29H33c.38-.09.37-.39.37-.69V21c0-.33-.07-.42-.37-.58.56,0,1.12,0,1.68.09a.61.61,0,0,1,.55.6.64.64,0,0,1-.48.69l-.08,0c.09.17.19.33.28.49s.22.45.35.67a2.26,2.26,0,0,0,.26.29,5.28,5.28,0,0,1-.56,0c-.05,0-.1-.09-.13-.14-.17-.34-.34-.68-.52-1a.46.46,0,0,0-.53-.22c0,.33,0,.67,0,1S33.91,23.16,34.25,23.29Zm-.45-1.45c.34,0,.66,0,.84-.31a.65.65,0,0,0,0-.72.79.79,0,0,0-.82-.26Z"/><path d="M7.31,20.45A1.46,1.46,0,0,0,6.48,22a1.55,1.55,0,0,0,.32,1,.89.89,0,0,0,1.46,0,1.85,1.85,0,0,0-.06-2.17,2.67,2.67,0,0,0-.43-.32A1.49,1.49,0,0,1,9,21.58,1.44,1.44,0,0,1,8,23.26a1.5,1.5,0,0,1-2-1.45A1.52,1.52,0,0,1,7.31,20.45Z"/><path d="M19.8,20.45A1.47,1.47,0,0,0,19,22a1.61,1.61,0,0,0,.31,1,.9.9,0,0,0,1.47,0,1.83,1.83,0,0,0-.07-2.17,2,2,0,0,0-.43-.32,1.48,1.48,0,0,1,1.27,1.15,1.43,1.43,0,0,1-1.06,1.68,1.46,1.46,0,1,1-.67-2.81Z"/><path d="M24.77,18.56a40.4,40.4,0,0,1-5.41-3.86c.19-.08.34-.16.51-.22s.12,0,.17.08a47.42,47.42,0,0,0,3.88,3.34Z"/><path d="M12.34,23.28c.34-.14.39-.21.39-.57V21c0-.31-.08-.41-.38-.53h2.19l.05.63c-.24-.77-.86-.56-1.41-.6v1.25c.45.08.58,0,.74-.47v1.1c-.17-.51-.29-.59-.78-.54,0,.34,0,.7.08,1a.51.51,0,0,0,.26.3.89.89,0,0,0,1.27-.55.24.24,0,0,1,.06-.11v.77Z"/><path d="M25.54,20.52v1.23c.46.06.57,0,.76-.47v1c-.09-.14-.14-.32-.26-.4a1.62,1.62,0,0,0-.53-.14c0,.4,0,.75.07,1.08a.61.61,0,0,0,.29.34.9.9,0,0,0,1.26-.59.11.11,0,0,1,.05-.09v.77H24.72c.36-.08.39-.34.38-.64V21c0-.33-.07-.42-.38-.55h2.19l.05.63C26.68,20.43,26.34,20.47,25.54,20.52Z"/><path d="M32.77,22.47v.8H30.31c.33-.07.39-.3.38-.6V21c0-.34-.06-.42-.4-.55H32.5l0,.62c-.12-.26-.25-.52-.57-.56s-.55,0-.85-.05v1.26c.43.1.62,0,.75-.43v1a1.38,1.38,0,0,0-.26-.4,1.88,1.88,0,0,0-.51-.13c0,.4,0,.74.06,1.07s.23.37.5.41a.86.86,0,0,0,1.06-.7A.25.25,0,0,1,32.77,22.47Z"/><path d="M16.07,23.27c.36-.11.42-.2.43-.52,0-.56,0-1.13,0-1.69,0-.29-.05-.52-.38-.59h2.14l.06.65c-.26-.67-.82-.59-1.37-.58v1.21c.46.06.63-.05.83-.53v1.13a1.43,1.43,0,0,0-.29-.42,1.66,1.66,0,0,0-.52-.15A11.68,11.68,0,0,0,17,23c0,.12.21.23.29.3Z"/><path d="M3.33,23.29c.34-.08.38-.33.38-.62,0-.54,0-1.07,0-1.61,0-.28,0-.52-.38-.6H4.54c-.32.07-.39.29-.39.58,0,.55,0,1.1,0,1.65a.52.52,0,0,0,.54.56.89.89,0,0,0,1.08-.76v.8H3.33Z"/><path d="M10.68,23.29c-.07-.15-.13-.31-.19-.46-.26-.64-.51-1.28-.76-1.92a.63.63,0,0,0-.47-.45h1.27c-.38.16-.41.23-.26.62s.37,1,.56,1.48l.08.16L11.2,22c.14-.34.28-.67.4-1s0-.4-.25-.52h.85c-.32.09-.42.38-.53.65-.28.66-.56,1.32-.83,2,0,.07-.07.13-.1.2Z"/><path d="M28.65,23.3l-.09-.19L27.72,21c-.15-.37-.2-.4-.54-.5h1.25c-.07.06-.22.13-.25.24a.65.65,0,0,0,.06.4c.19.52.4,1.05.62,1.6l.08-.14.54-1.33a1.5,1.5,0,0,0,.11-.34c0-.23,0-.32-.26-.43h.84a.8.8,0,0,0-.49.54c-.3.69-.59,1.39-.88,2.08l-.09.2Z"/></g><g class="cls-3"><path d="M23.13,5.41A6.76,6.76,0,0,0,21,3.74a5.47,5.47,0,0,0-2-.55,2.22,2.22,0,0,0-2.49,2.07,5.07,5.07,0,0,0,.58,2.67,13,13,0,0,0,1.63,2.51l.12.15s0,0,0,.06L17.6,11.83c-.18-.21-.36-.4-.53-.61A17.63,17.63,0,0,1,14.35,7a7.61,7.61,0,0,1-.63-2.66,3,3,0,0,1,2.07-3.14,4.15,4.15,0,0,1,2.1,0,8.67,8.67,0,0,1,4.66,2.71l.2.22a1.19,1.19,0,0,1,.08-.16,3.24,3.24,0,0,1,2.36-1.17,6.73,6.73,0,0,1,5.72,2.47,7.28,7.28,0,0,1,1.81,3.46,6.54,6.54,0,0,1-.79,4.71,11.55,11.55,0,0,1-3.13,3.4,20.27,20.27,0,0,1-2.86,1.81.9.9,0,0,1-1-.16c-.34-.24-.67-.5-1-.75a41.23,41.23,0,0,1-4-3.43l-.23-.2,1.48-.93c.39.36.76.73,1.16,1.05.81.65,1.62,1.27,2.44,1.9a.73.73,0,0,0,.88.05,13.19,13.19,0,0,0,3.43-2.59,5.8,5.8,0,0,0,1.44-2.72A4.71,4.71,0,0,0,30,7.49,5.65,5.65,0,0,0,26.4,4.55a4.26,4.26,0,0,0-1.55-.1A2.44,2.44,0,0,0,23.13,5.41Z"/><path d="M17.36,7.66,17.12,7c.5-.22,1-.46,1.48-.66a8.58,8.58,0,0,1,3.67-.71,2.83,2.83,0,0,1,.82.15,1.39,1.39,0,0,1,1,1.65A4.86,4.86,0,0,1,23,9.6,17.53,17.53,0,0,1,19.14,13a45.28,45.28,0,0,1-7.87,4.33c-1.65.73-3.33,1.38-5,2.06a1.71,1.71,0,0,1-.3.09.48.48,0,0,1-.61-.28A8.85,8.85,0,0,1,4.25,15a8.05,8.05,0,0,1,1.29-4.29,12.3,12.3,0,0,1,3-3.27c.6-.46,1.2-.92,1.83-1.33a4.61,4.61,0,0,1,1.94-.69l.47,1.7-.71.19A8.73,8.73,0,0,0,6.53,12a5.6,5.6,0,0,0,.35,5.31.33.33,0,0,0,.24.15.62.62,0,0,0,.33,0,47.63,47.63,0,0,0,7.73-3.6,17.46,17.46,0,0,0,3.93-3,5.16,5.16,0,0,0,1.05-1.56,1.66,1.66,0,0,0,.13-.91,1.13,1.13,0,0,0-1.15-.87A5.39,5.39,0,0,0,17.36,7.66Z"/><path d="M27.17,15a13.91,13.91,0,0,0,1.73-2.52,5.08,5.08,0,0,0,.56-1.91,3.56,3.56,0,0,0-1.24-2.95A8.64,8.64,0,0,0,25,5.84c-.48-.16-1-.27-1.47-.42A4.19,4.19,0,0,1,25,4.91a4.42,4.42,0,0,1,3.66,1.3,5,5,0,0,1,1.51,3,5.11,5.11,0,0,1-1.43,4.36,18.26,18.26,0,0,1-1.37,1.26Z"/><path d="M24.27,6.74a3.52,3.52,0,0,1-.13,3,7.23,7.23,0,0,1-1.65,2,24.93,24.93,0,0,1-5.56,3.7,58.88,58.88,0,0,1-9.31,3.72h-.1l1.91-.79a59.79,59.79,0,0,0,10.73-5.74,12.52,12.52,0,0,0,3.26-3.23A4,4,0,0,0,24.27,6.74Z"/><path d="M17.48,11.91l-.6.47-.67-.71a15.47,15.47,0,0,1-3-4.37A7.56,7.56,0,0,1,12.6,4a3.92,3.92,0,0,1,.28-1.39A2.71,2.71,0,0,1,16,.89c-.28.12-.6.22-.9.37a2.93,2.93,0,0,0-1.63,2.59,6.72,6.72,0,0,0,.7,3.08,19.47,19.47,0,0,0,3,4.59C17.26,11.64,17.36,11.76,17.48,11.91Z"/><path d="M6.55,12.71c.37-2.14,3.6-4.82,6.31-5.26l.37.72c-.48.11-1,.21-1.43.34a8.67,8.67,0,0,0-3.66,1.92,6.17,6.17,0,0,0-1.5,2.11Z"/><path d="M23.25,21.51c.09.13.17.26.25.39s.24.49.38.73a1.92,1.92,0,0,0,.26.32,4.77,4.77,0,0,1-.53,0c-.05,0-.11-.09-.14-.15-.18-.33-.34-.68-.53-1a.45.45,0,0,0-.53-.22c0,.33,0,.66,0,1s.19.32.39.38H21.59c.33-.08.38-.33.37-.63V20.7c0-.36-.06-.44-.33-.55.49,0,1,0,1.54,0a.65.65,0,0,1,.65.61c0,.36-.13.57-.52.71Zm-.85,0c.33,0,.64,0,.84-.3a.63.63,0,0,0,0-.73c-.19-.3-.5-.3-.82-.27Z"/><path d="M33.91,23H32.65c.38-.09.37-.39.37-.69V20.67c0-.33-.07-.42-.37-.58.56,0,1.12,0,1.68.09a.61.61,0,0,1,.55.6.64.64,0,0,1-.48.69l-.08,0c.09.17.19.33.27.49s.23.45.36.67a1.7,1.7,0,0,0,.26.29,5.28,5.28,0,0,1-.56,0s-.1-.09-.13-.14c-.17-.34-.34-.68-.52-1a.46.46,0,0,0-.53-.22c0,.33,0,.67,0,1S33.57,22.82,33.91,23Zm-.45-1.45c.34,0,.66,0,.84-.31a.65.65,0,0,0,0-.72.79.79,0,0,0-.82-.26Z"/><path d="M7,20.11a1.46,1.46,0,0,0-.83,1.52,1.55,1.55,0,0,0,.32.95.89.89,0,0,0,1.46,0,1.85,1.85,0,0,0-.06-2.17,2.67,2.67,0,0,0-.43-.32,1.47,1.47,0,0,1,1.26,1.15,1.42,1.42,0,0,1-1.06,1.68,1.5,1.5,0,0,1-2-1.45A1.52,1.52,0,0,1,7,20.11Z"/><path d="M19.46,20.11a1.47,1.47,0,0,0-.82,1.52,1.61,1.61,0,0,0,.31.95.9.9,0,0,0,1.47,0,1.83,1.83,0,0,0-.07-2.17,2,2,0,0,0-.43-.32,1.48,1.48,0,0,1,1.27,1.15,1.43,1.43,0,0,1-1.06,1.68,1.46,1.46,0,1,1-.67-2.81Z"/><path d="M24.43,18.22A40.4,40.4,0,0,1,19,14.36c.19-.08.34-.16.51-.22s.12,0,.17.08a47.42,47.42,0,0,0,3.88,3.34Z"/><path d="M12,22.94c.34-.14.39-.21.39-.57V20.65c0-.31-.08-.41-.38-.53H14.2l.05.63c-.24-.77-.86-.56-1.41-.6V21.4c.45.08.58,0,.74-.47V22c-.17-.51-.29-.59-.78-.54,0,.34,0,.69.08,1a.51.51,0,0,0,.26.3.89.89,0,0,0,1.27-.55.24.24,0,0,1,.06-.11v.77Z"/><path d="M25.2,20.17v1.24c.46.06.57,0,.76-.47v1c-.09-.14-.14-.32-.26-.4a1.62,1.62,0,0,0-.53-.14c0,.4,0,.75.07,1.08a.61.61,0,0,0,.29.34.9.9,0,0,0,1.26-.59.12.12,0,0,1,0-.09v.77H24.38c.36-.08.39-.34.38-.64,0-.55,0-1.09,0-1.63,0-.33-.07-.42-.38-.55h2.19l.05.63C26.34,20.09,26,20.13,25.2,20.17Z"/><path d="M32.43,22.13v.8H30c.33-.07.39-.3.38-.6V20.68c0-.34-.06-.42-.4-.55h2.21l.05.62c-.12-.26-.25-.52-.57-.56s-.55,0-.85-.05V21.4c.43.1.62,0,.75-.43v1a1.38,1.38,0,0,0-.26-.4,1.88,1.88,0,0,0-.51-.13c0,.4,0,.74.06,1.07s.23.37.5.41a.86.86,0,0,0,1.06-.7S32.4,22.18,32.43,22.13Z"/><path d="M15.73,22.93c.36-.11.42-.2.43-.52,0-.56,0-1.13,0-1.69,0-.29-.05-.52-.38-.59h2.14l.06.65c-.26-.67-.82-.59-1.37-.58v1.21c.46.05.63-.05.83-.53V22a1.43,1.43,0,0,0-.29-.42,1.66,1.66,0,0,0-.52-.15,11.68,11.68,0,0,0,0,1.19c0,.12.21.23.29.3Z"/><path d="M3,23c.34-.08.38-.33.38-.62,0-.54,0-1.07,0-1.61,0-.28-.05-.52-.38-.6H4.2c-.32.07-.39.29-.39.58,0,.55,0,1.1,0,1.65a.52.52,0,0,0,.54.56.89.89,0,0,0,1.08-.76V23H3Z"/><path d="M10.34,23c-.07-.15-.13-.31-.19-.46-.26-.64-.51-1.28-.76-1.92a.63.63,0,0,0-.47-.45h1.27c-.38.16-.41.23-.26.62s.37,1,.56,1.48l.08.16.29-.71c.14-.34.28-.67.4-1s0-.4-.25-.52h.85c-.32.09-.42.38-.53.65-.28.66-.56,1.32-.83,2,0,.07-.07.13-.1.2Z"/><path d="M28.31,23l-.09-.18-.84-2.14c-.15-.37-.2-.4-.54-.5h1.25c-.07.06-.22.13-.25.24a.65.65,0,0,0,.06.4c.19.52.4,1.05.62,1.6l.08-.14.54-1.33a1.5,1.5,0,0,0,.11-.34c0-.23,0-.32-.26-.43h.84a.78.78,0,0,0-.49.54c-.3.69-.59,1.39-.88,2.08l-.09.2Z"/></g><path class="cls-4" d="M23.32,5.61a6.72,6.72,0,0,0-2.16-1.67,5.33,5.33,0,0,0-2-.55,2.21,2.21,0,0,0-2.49,2.07,5.07,5.07,0,0,0,.58,2.67,12.56,12.56,0,0,0,1.63,2.51l.12.15s0,0,0,.06L17.79,12c-.17-.21-.35-.41-.52-.61a17.63,17.63,0,0,1-2.72-4.26,7.61,7.61,0,0,1-.63-2.66A3,3,0,0,1,16,1.35a4.23,4.23,0,0,1,2.09,0A8.64,8.64,0,0,1,22.74,4l.21.23A1.19,1.19,0,0,1,23,4.08,3.25,3.25,0,0,1,25.39,2.9a6.8,6.8,0,0,1,5.72,2.47,7.27,7.27,0,0,1,1.81,3.47,6.59,6.59,0,0,1-.79,4.71A11.55,11.55,0,0,1,29,17a20.27,20.27,0,0,1-2.86,1.81.92.92,0,0,1-1-.16c-.34-.24-.67-.5-1-.75a40.08,40.08,0,0,1-4-3.43l-.23-.2,1.48-.93c.39.36.76.73,1.16,1.05.8.65,1.62,1.27,2.44,1.9a.73.73,0,0,0,.88.05,13.17,13.17,0,0,0,3.43-2.6A5.72,5.72,0,0,0,30.71,11a4.71,4.71,0,0,0-.49-3.29A5.65,5.65,0,0,0,26.6,4.75,4.09,4.09,0,0,0,25,4.65,2.42,2.42,0,0,0,23.32,5.61Z"/><path class="cls-4" d="M17.56,7.86l-.24-.7c.5-.22,1-.46,1.48-.67a8.73,8.73,0,0,1,3.67-.7,2.89,2.89,0,0,1,.82.15,1.4,1.4,0,0,1,1,1.65,4.78,4.78,0,0,1-1.1,2.2,17.58,17.58,0,0,1-3.82,3.43,47.13,47.13,0,0,1-7.88,4.33c-1.64.72-3.33,1.38-5,2.06a1.58,1.58,0,0,1-.31.09.47.47,0,0,1-.6-.28,8.88,8.88,0,0,1-1.11-4.21,8.05,8.05,0,0,1,1.29-4.29,12.15,12.15,0,0,1,3-3.27c.59-.46,1.2-.92,1.83-1.33a4.56,4.56,0,0,1,1.94-.69L13,7.32l-.71.2a8.73,8.73,0,0,0-5.58,4.71,5.63,5.63,0,0,0,.34,5.31.35.35,0,0,0,.25.15.62.62,0,0,0,.33-.05A48.49,48.49,0,0,0,15.38,14a17.22,17.22,0,0,0,3.93-3,5.12,5.12,0,0,0,1.05-1.55,1.66,1.66,0,0,0,.13-.91,1.12,1.12,0,0,0-1.15-.87A5.39,5.39,0,0,0,17.56,7.86Z"/><path class="cls-4" d="M27.37,15.18a13,13,0,0,0,1.72-2.51,5.1,5.1,0,0,0,.57-1.91,3.54,3.54,0,0,0-1.25-2.95A8.39,8.39,0,0,0,25.18,6c-.48-.16-1-.28-1.48-.42a4.31,4.31,0,0,1,1.5-.51,4.36,4.36,0,0,1,3.65,1.3,4.94,4.94,0,0,1,1.52,3,5.11,5.11,0,0,1-1.43,4.36,18.26,18.26,0,0,1-1.37,1.26A1.37,1.37,0,0,1,27.37,15.18Z"/><path class="cls-4" d="M24.47,6.93a3.58,3.58,0,0,1-.13,3,7.23,7.23,0,0,1-1.65,2,24.93,24.93,0,0,1-5.56,3.7,59.26,59.26,0,0,1-9.31,3.72.12.12,0,0,1-.1,0c.63-.26,1.27-.51,1.9-.78a59.54,59.54,0,0,0,10.74-5.74,12.71,12.71,0,0,0,3.26-3.24A4,4,0,0,0,24.47,6.93Z"/><path class="cls-4" d="M17.68,12.1l-.6.48-.67-.71a15.66,15.66,0,0,1-3-4.38,7.51,7.51,0,0,1-.65-3.31,4.13,4.13,0,0,1,.27-1.38,2.71,2.71,0,0,1,3.15-1.71,8.17,8.17,0,0,0-.9.37,2.93,2.93,0,0,0-1.63,2.59,6.72,6.72,0,0,0,.7,3.08,19.16,19.16,0,0,0,3,4.59Z"/><path class="cls-4" d="M6.75,12.91c.37-2.14,3.6-4.82,6.31-5.26l.37.72c-.48.11-1,.21-1.43.34a8.56,8.56,0,0,0-3.66,1.92,6.4,6.4,0,0,0-1.51,2.1Z"/><path class="cls-4" d="M23.45,21.7c.08.14.17.27.24.4s.25.49.38.73a3.82,3.82,0,0,0,.27.32,4.77,4.77,0,0,1-.53,0c-.06,0-.11-.09-.15-.15-.18-.33-.34-.68-.52-1a.44.44,0,0,0-.53-.21c0,.33,0,.66,0,1s.19.32.39.38H21.78c.34-.08.39-.33.38-.63V20.9c0-.36-.06-.44-.34-.55.49,0,1,0,1.55,0A.64.64,0,0,1,24,21c0,.36-.13.57-.52.71Zm-.85,0c.33,0,.64,0,.83-.29a.62.62,0,0,0,0-.73.77.77,0,0,0-.82-.27Z"/><path class="cls-4" d="M34.11,23.15H32.84c.39-.1.38-.4.38-.7V20.87c0-.33-.07-.42-.38-.58.57,0,1.13,0,1.69.09a.61.61,0,0,1,.55.6.64.64,0,0,1-.48.69l-.09,0c.1.17.2.33.28.49s.23.45.36.67a2.18,2.18,0,0,0,.26.29,5.28,5.28,0,0,1-.56,0c-.05,0-.1-.09-.13-.14-.17-.34-.34-.68-.52-1a.47.47,0,0,0-.53-.23c0,.34,0,.68,0,1S33.77,23,34.11,23.15Zm-.46-1.45c.35,0,.66,0,.85-.31a.63.63,0,0,0,0-.72c-.19-.29-.5-.29-.82-.26Z"/><path class="cls-4" d="M7.16,20.31a1.47,1.47,0,0,0-.82,1.52,1.51,1.51,0,0,0,.32.94.88.88,0,0,0,1.46,0,1.86,1.86,0,0,0-.06-2.18,3.36,3.36,0,0,0-.43-.31,1.47,1.47,0,0,1,1.26,1.15,1.42,1.42,0,0,1-1.06,1.68,1.46,1.46,0,1,1-.67-2.81Z"/><path class="cls-4" d="M19.66,20.31a1.47,1.47,0,0,0-.82,1.52,1.56,1.56,0,0,0,.31.94.89.89,0,0,0,1.47,0,1.85,1.85,0,0,0-.07-2.18,2.78,2.78,0,0,0-.43-.31,1.48,1.48,0,0,1,1.27,1.15,1.43,1.43,0,0,1-1.06,1.68,1.46,1.46,0,1,1-.67-2.81Z"/><path class="cls-4" d="M24.63,18.42a41.32,41.32,0,0,1-5.41-3.86,4.36,4.36,0,0,1,.51-.22s.12,0,.17.08a49.45,49.45,0,0,0,3.88,3.34Z"/><path class="cls-4" d="M12.2,23.14c.33-.14.39-.21.39-.58V20.85c0-.31-.08-.41-.38-.54H14.4l0,.64c-.24-.77-.87-.57-1.42-.6V21.6c.45.08.59,0,.75-.47v1.1c-.18-.51-.29-.6-.78-.54a9.28,9.28,0,0,0,.08,1,.45.45,0,0,0,.26.3.89.89,0,0,0,1.27-.55.2.2,0,0,1,.06-.11v.77Z"/><path class="cls-4" d="M25.4,20.37v1.24c.46.06.57,0,.76-.48v1a1.38,1.38,0,0,0-.26-.4,1.62,1.62,0,0,0-.53-.14c0,.4,0,.75.07,1.08a.53.53,0,0,0,.29.33A.88.88,0,0,0,27,22.46a.2.2,0,0,1,.05-.09v.77H24.58c.36-.08.39-.35.38-.64,0-.55,0-1.09,0-1.64,0-.32-.07-.41-.38-.55h2.19l.05.64C26.54,20.29,26.2,20.33,25.4,20.37Z"/><path class="cls-4" d="M32.63,22.33v.8H30.17c.33-.07.39-.3.38-.6,0-.55,0-1.1,0-1.65,0-.34-.06-.42-.4-.55h2.21l0,.62c-.12-.26-.25-.52-.57-.56s-.56,0-.85-.05V21.6c.43.1.62,0,.75-.43v1a1.26,1.26,0,0,0-.26-.4,1.87,1.87,0,0,0-.52-.13c0,.4,0,.74.06,1.07s.23.37.51.41a.85.85,0,0,0,1-.7Z"/><path class="cls-4" d="M15.93,23.13c.35-.11.42-.2.43-.52,0-.56,0-1.13,0-1.69,0-.29-.05-.52-.38-.59h2.14l.06.65c-.26-.67-.82-.59-1.37-.58v1.21c.46.05.63-.05.83-.54V22.2a1.38,1.38,0,0,0-.29-.41,1.65,1.65,0,0,0-.53-.16,11.76,11.76,0,0,0,0,1.2c0,.12.21.22.29.3Z"/><path class="cls-4" d="M3.19,23.15c.34-.08.38-.33.38-.62,0-.54,0-1.08,0-1.61,0-.29,0-.52-.38-.6H4.4c-.32.07-.39.29-.39.58,0,.55,0,1.1,0,1.65a.5.5,0,0,0,.54.55.88.88,0,0,0,1.08-.75v.8H3.19Z"/><path class="cls-4" d="M10.54,23.15c-.07-.15-.13-.31-.19-.46l-.77-1.92a.59.59,0,0,0-.46-.45h1.26c-.37.16-.4.23-.26.62l.57,1.47.08.17.29-.71c.14-.34.28-.68.4-1s0-.41-.25-.52h.85c-.32.09-.42.38-.53.64l-.84,2a1.76,1.76,0,0,1-.09.2Z"/><path class="cls-4" d="M28.5,23.15a1.42,1.42,0,0,0-.08-.18c-.28-.71-.56-1.43-.85-2.14-.14-.37-.19-.4-.53-.5h1.25c-.07.06-.22.13-.26.23a.76.76,0,0,0,.07.41c.19.52.4,1,.61,1.6l.09-.14.54-1.33a1.4,1.4,0,0,0,.1-.35c0-.22,0-.31-.26-.43H30a.79.79,0,0,0-.49.55c-.3.69-.59,1.39-.88,2.08a1.24,1.24,0,0,1-.1.2Z"/></g></g></svg>