<svg xmlns="http://www.w3.org/2000/svg" viewBox="0 0 38.55 24.66"><defs><style>.cls-1{isolation:isolate;}.cls-2{opacity:0.15;}.cls-2,.cls-3{mix-blend-mode:multiply;}.cls-4{fill:#fff;}</style></defs><title>convert-FIX-SVG-03</title><g class="cls-1"><g id="Layer_1" data-name="Layer 1"><g class="cls-2"><path d="M34.73,9.92a9.39,9.39,0,0,1-2.8,7,6.49,6.49,0,0,1-4.69,1.88,6.7,6.7,0,0,1-5.09-2.43A8.81,8.81,0,0,1,20,11.35a9.3,9.3,0,0,1,1.92-7,6.83,6.83,0,0,1,4.19-2.63A6.38,6.38,0,0,1,31.34,3a8.33,8.33,0,0,1,3.11,5A18.49,18.49,0,0,1,34.73,9.92Zm-.29.11c0-.32-.06-.84-.15-1.35a8.3,8.3,0,0,0-2.81-5.19,6.1,6.1,0,0,0-6-1.31,6.92,6.92,0,0,0-4.05,3.3,9.22,9.22,0,0,0-1.09,6.63,8.26,8.26,0,0,0,2.89,5,6.19,6.19,0,0,0,4.83,1.42A6.48,6.48,0,0,0,32,16.46,9.17,9.17,0,0,0,34.44,10Z"/><path d="M18.48,9.92a9.35,9.35,0,0,1-2.34,6.46A6.79,6.79,0,0,1,12,18.64a6.53,6.53,0,0,1-5.16-1.47,8.39,8.39,0,0,1-3-5A9.33,9.33,0,0,1,5,5.22,7.12,7.12,0,0,1,9.25,1.89a6.41,6.41,0,0,1,6.07,1.29,8.45,8.45,0,0,1,3,5.31C18.42,9,18.44,9.61,18.48,9.92Zm-.29,0c0-.34-.06-.91-.16-1.46a8.23,8.23,0,0,0-2.73-5A6.14,6.14,0,0,0,9.41,2.14,6.85,6.85,0,0,0,5.24,5.42a9.1,9.1,0,0,0-1.16,6.31,8.2,8.2,0,0,0,2.8,5.1,6.23,6.23,0,0,0,4.85,1.56,6.36,6.36,0,0,0,3.87-1.87A9,9,0,0,0,18.19,10Z"/><path d="M2.34,19.24c.51,0,1,0,1.53,0a.6.6,0,0,1,.64.48c.07.34-.06.57-.44.77l.21.06a.7.7,0,0,1,.5.77.6.6,0,0,1-.59.58c-.61,0-1.23,0-1.82,0,.28,0,.35-.26.35-.54,0-.53,0-1.05,0-1.58C2.72,19.53,2.65,19.3,2.34,19.24Zm.81,1.33a.31.31,0,0,0,0,.08c0,.26,0,.51,0,.77s.22.55.63.48a.68.68,0,0,0,0-1.33A4.42,4.42,0,0,0,3.15,20.57Zm0-.06c.34,0,.67,0,.86-.29a.63.63,0,0,0,0-.72c-.2-.29-.51-.21-.81-.21Z"/><path d="M17.06,19.24a.58.58,0,0,1,.69.23c.14.26,0,.46-.49.83.22.29.43.59.66.87a5.29,5.29,0,0,0,.52.54.33.33,0,0,0,.51,0c-.19.42-.54.37-1.15-.14l-.12.09c0-.07.06-.17,0-.22-.24-.33-.49-.65-.74-1a.84.84,0,0,0-.29,1,.55.55,0,0,0,.68.39l.22-.07a.81.81,0,0,1-1.14,0c-.31-.38-.16-.82.46-1.32-.08-.17-.18-.32-.24-.49a.49.49,0,0,1,.4-.69.33.33,0,0,0-.17.46,5.7,5.7,0,0,0,.3.54h.08a2.71,2.71,0,0,0,.21-.37C17.61,19.49,17.43,19.24,17.06,19.24Z"/><path d="M23.12,21.92S23.06,22,23,22a1.28,1.28,0,0,1-1.48-1.06,1.44,1.44,0,0,1,1.09-1.69,2.07,2.07,0,0,1,.5,0l-.06,0a.86.86,0,0,0-.79.43,1.72,1.72,0,0,0,0,1.94.72.72,0,0,0,.81.31Z"/><path d="M11.41,21.93c-.55.07-.55.07-.64-.06l-.19,0a1.5,1.5,0,0,0,0-1.57l.21.08a5.72,5.72,0,0,0,0-.83c0-.11-.15-.21-.22-.31l.57-.08v2.31C11.12,21.72,11.17,21.88,11.41,21.93Z"/><path d="M12.85,20.31l-.29.49h.87c0-.3-.11-.47-.43-.52a.61.61,0,0,1,.77.56H12.62a.84.84,0,0,0,.4,1c.31.15.53.06.76-.3,0,.29-.25.47-.62.48a.82.82,0,0,1-.94-.74A.8.8,0,0,1,12.85,20.31Z"/><path d="M32.8,21.93c.21-.05.23-.22.23-.41v-.78a.34.34,0,0,0-.29-.39l.57-.08.12.28a3,3,0,0,0,0,1.17.36.36,0,0,0,.12.21Z"/><path d="M25.91,20.38c-.06.2-.14.39-.18.59a5,5,0,0,0,0,.55.37.37,0,0,0,.22.42h-.78c.23-.06.24-.24.24-.43s0-.53,0-.8a.32.32,0,0,0-.29-.35l.53-.1.06.25.2-.12Z"/><path d="M6.42,20.38a4.36,4.36,0,0,0-.17.59,3.37,3.37,0,0,0,0,.55c0,.18,0,.35.22.42H5.68c.23-.06.24-.24.24-.43v-.8a.32.32,0,0,0-.29-.35l.53-.1.06.25.2-.12Z"/><path d="M8.54,21.94H7.77c.23-.07.23-.26.23-.45s0-.52,0-.78a1.3,1.3,0,0,0-.16-.37l.48-.08v1.27C8.31,21.7,8.33,21.87,8.54,21.94Z"/><path d="M35.9,21.94h-.79c.23-.07.25-.25.25-.45s0-.41,0-.62c0-.41-.1-.51-.5-.54a.53.53,0,0,1,.81.51c0,.24,0,.48,0,.72S35.71,21.87,35.9,21.94Z"/><path d="M34.49,20.54l.17-.12a2.19,2.19,0,0,0-.13,1.23c0,.1.13.2.19.29h-.8c.26-.09.28-.28.28-.48s0-.43,0-.65-.11-.44-.46-.48C34,20.2,34.23,20.25,34.49,20.54Z"/><path d="M10.38,20.27a.76.76,0,0,0-.58.82c0,.49.18.79.55.88a.75.75,0,0,1-.76-.3.89.89,0,0,1,0-1A.79.79,0,0,1,10.38,20.27Z"/><path d="M30.82,20.3a1,1,0,0,0-.24,1.44.55.55,0,0,0,.54.21.87.87,0,0,1-.91-.29.79.79,0,0,1-.09-.92A.84.84,0,0,1,30.82,20.3Z"/><path d="M28.07,20.3a1,1,0,0,0-.24,1.44.54.54,0,0,0,.54.21.87.87,0,0,1-.91-.29.77.77,0,0,1-.09-.92A.81.81,0,0,1,28.07,20.3Z"/><path d="M28.36,22a1,1,0,0,0,0-1.65.86.86,0,0,1,.8.84A.84.84,0,0,1,28.36,22Z"/><path d="M31.11,22a1,1,0,0,0,0-1.65.88.88,0,0,1,.81.84A.86.86,0,0,1,31.11,22Z"/><path d="M23.12,21.92a.5.5,0,0,0,.44-.31c.17-.33,0-.57-.41-.66h1.22c-.5.08-.3.47-.34.74a1.51,1.51,0,0,1-.33.13,5.86,5.86,0,0,1-.58.1Z"/><path d="M24,19.22v.87c-.17-.34-.29-.69-.69-.82C23.52,19.18,23.72,19.52,24,19.22Z"/><path d="M18,20.27h.74c-.41.12-.46.46-.64.75C18.13,20.73,18.4,20.44,18,20.27Z"/><path d="M25.91,20.39a.39.39,0,0,1,.47-.09c.05,0,.07.13.1.2a.65.65,0,0,1-.24,0,2.26,2.26,0,0,1-.33-.13Z"/><path d="M6.42,20.39a.4.4,0,0,1,.48-.09s.06.13.09.2a.6.6,0,0,1-.23,0,2,2,0,0,1-.34-.13Z"/><path d="M8.35,19.4c-.06.05-.13.13-.2.12S8,19.43,8,19.38s.1-.16.16-.17.14.07.21.11Z"/><path d="M34,10.24a8.32,8.32,0,0,1-1.91,5.49A6.24,6.24,0,0,1,28,18a5.87,5.87,0,0,1-4.54-1.38,7.76,7.76,0,0,1-2.72-4.75,8.61,8.61,0,0,1,1-6.06,6.55,6.55,0,0,1,4-3.25,5.82,5.82,0,0,1,5.58,1.34,7.86,7.86,0,0,1,2.63,5c0,.21.06.42.07.63S34,10,34,10.24ZM23.48,11.51a4.44,4.44,0,0,1-1-2.74.56.56,0,0,0-.16-.41,2,2,0,0,1,.73-3.21,2.47,2.47,0,0,1,2,.2.41.41,0,0,0,.26,0,4.39,4.39,0,0,1,3-.09.39.39,0,0,0,.39,0,2.47,2.47,0,0,1,1.54-.41,2,2,0,0,1,1.8,1.38,2.76,2.76,0,0,1-.24,1.89.9.9,0,0,0-.08.36,5.19,5.19,0,0,1-.29,1.7,4.06,4.06,0,0,1-.9,1.39,2.84,2.84,0,0,1,1.49.88,4.69,4.69,0,0,1,.88,1.48l.06-.08.08-.17a8.5,8.5,0,0,0,.59-4.8A7.53,7.53,0,0,0,31,4.06a5.56,5.56,0,0,0-5-1.25,6.08,6.08,0,0,0-3.72,2.58A8.37,8.37,0,0,0,21,11.94c.06.32.15.63.23,1A4.22,4.22,0,0,1,23.48,11.51Zm5.3.77.17-.06a3.72,3.72,0,0,0,2.51-3.55.86.86,0,0,0-.17-.5,2.92,2.92,0,0,0-.82-.71,8.31,8.31,0,0,1-1-.92.48.48,0,0,0-.23-.1,1.16,1.16,0,0,1-1-.77.17.17,0,0,0-.11-.11,4,4,0,0,0-2.71.07c-.05,0-.08.09-.12.13-.18.23-.35.47-.54.69a3.58,3.58,0,0,1-.29.26,11.1,11.1,0,0,1-1,1c-.27.22-.6.35-.69.73,0,.08-.12.15-.12.22a4,4,0,0,0,.83,2.57,2.55,2.55,0,0,0,1.13.81,1,1,0,0,1-.12-.21A2.6,2.6,0,0,1,24.4,11,2,2,0,0,1,25.58,9.2a3.09,3.09,0,0,1,2.35-.08,1.69,1.69,0,0,1,.8.57A2.2,2.2,0,0,1,28.78,12.28ZM27,12.64v0l.5,0a1.51,1.51,0,0,0,1.34-1,1.92,1.92,0,0,0-.8-2.08,2.66,2.66,0,0,0-2.71.19,1.56,1.56,0,0,0-.61,1.61,1.39,1.39,0,0,0,1,1.08A11.53,11.53,0,0,0,27,12.64Zm-3.35-1,0,0,3.1,4.92,3-4.39-1.12.44.2,0a4,4,0,0,0-.1.57c0,.25,0,.27-.29.27h-.69a.88.88,0,0,1,.14.15c.09.16.17.31.25.48s-.12.21-.18.31-.27.21-.4,0-.3-.57-.48-.84-.25-.25-.43,0-.38.55-.58.81a.38.38,0,0,1-.23.11,1.22,1.22,0,0,1-.27-.09c0-.43.37-.69.59-1.07l-1.32.2.06-.93.79.11v-.05A5.61,5.61,0,0,1,23.65,11.65Zm-1-3.39c.2-.27.2-.32,0-.55a1.06,1.06,0,0,1,0-1.17,1.46,1.46,0,0,1,1.83-.36c.15.06.22.05.31,0s.21-.26.31-.39a1.92,1.92,0,0,0-2.46,0A1.68,1.68,0,0,0,22.63,8.26Zm6-2.52.49.35c.09.06.17,0,.27,0a1.28,1.28,0,0,1,1.91.13.92.92,0,0,1,.1,1.13.48.48,0,0,0,.18.69,1.93,1.93,0,0,0-.31-2.51A2.07,2.07,0,0,0,28.59,5.74ZM23.65,16.48l.05,0c0-.33,0-.67,0-1s-.11-.28-.3-.15a6.42,6.42,0,0,0-.54.45Zm7.24.06-.44-.66a2.11,2.11,0,0,0-.14,1,1,1,0,0,0,.17-.11Z"/><path d="M11.12,18a6.32,6.32,0,0,1-5-2.47,8,8,0,0,1-1.8-4.76A8.31,8.31,0,0,1,6,5a6.28,6.28,0,0,1,4.18-2.53,5.86,5.86,0,0,1,4.64,1.29,7.64,7.64,0,0,1,2.76,4.6,8.53,8.53,0,0,1-1.16,6.51,6.61,6.61,0,0,1-4.18,3l-.37.06ZM16,15l.05-.06.21-.31A8.3,8.3,0,0,0,17.4,8.73a7.46,7.46,0,0,0-2.6-4.68,5.65,5.65,0,0,0-4.61-1.32A6,6,0,0,0,6.35,5,8,8,0,0,0,4.63,9.51a8.29,8.29,0,0,0,1,4.73l.14.22a2.59,2.59,0,0,1,1.81-2.65A4.13,4.13,0,0,1,6.17,8.56a.46.46,0,0,0,0-.2c-.1-.27-.24-.53-.31-.8a1.93,1.93,0,0,1,.5-2A2.26,2.26,0,0,1,9,5.29a.7.7,0,0,0,.63.06,4.32,4.32,0,0,1,2.84,0,.34.34,0,0,0,.28,0A2.51,2.51,0,0,1,14.42,5,1.89,1.89,0,0,1,16,6.46a1.78,1.78,0,0,1-.45,1.91.41.41,0,0,0-.1.22c0,.21,0,.43,0,.65a3.89,3.89,0,0,1-1.09,2.42c-.1.1-.2.18-.32.28a4.15,4.15,0,0,1,1.24,1.37C15.51,13.86,15.74,14.43,16,15Zm-2.71-3c.19-.12.36-.21.51-.32a3.37,3.37,0,0,0,1.3-2.44,1.18,1.18,0,0,0-.18-1.07,2.4,2.4,0,0,0-.39-.39c-.4-.31-.77-.67-1.15-1-.09-.08-.16-.21-.26-.27a1.53,1.53,0,0,1-.68-.78.22.22,0,0,0-.12-.09,4.16,4.16,0,0,0-2.7,0,.23.23,0,0,0-.11.11,1.13,1.13,0,0,1-.91.79.46.46,0,0,0-.26.13,9.32,9.32,0,0,1-1,1,3,3,0,0,0-.67.62A.93.93,0,0,0,6.48,9c0,.07,0,.13,0,.19a3.67,3.67,0,0,0,1.37,2.43,3,3,0,0,0,.38.24l.85.43.05-.05a1.75,1.75,0,0,1-.36-1.37,2,2,0,0,1,1.36-1.77,3.24,3.24,0,0,1,1.95,0,1.93,1.93,0,0,1,1.19,2.82ZM10,14.37c-.08.13-.15.25-.23.36a2.69,2.69,0,0,1-.27.32.36.36,0,0,1-.61-.12,2.23,2.23,0,0,1-.12-.34c0,.05,0,.09-.07.11s-.2.21-.3.21-.19-.14-.25-.24A2.12,2.12,0,0,1,8,14.31c-.11.73-.22,1.41-.32,2.1a.28.28,0,0,0,.12.23,5.62,5.62,0,0,0,6.11.25.24.24,0,0,0,.15-.29C14,16.3,14,16,14,15.68s-.1-.85-.15-1.29c-.28.32-.42.36-.66.18a2.33,2.33,0,0,1-.26-.28l-.12-.13c-.06.18-.1.34-.16.49-.21.51-.57.56-.92.13a4.67,4.67,0,0,1-.3-.43c-.09.21-.16.41-.25.6s-.21.4-.48.39-.36-.22-.45-.42S10.08,14.57,10,14.37Zm1.14-5.1h-.31A1.74,1.74,0,0,0,9.1,10.76a1.4,1.4,0,0,0,1.12,1.8,3.76,3.76,0,0,0,1.53,0,1.85,1.85,0,0,0,1-.44,1.55,1.55,0,0,0-.23-2.47A2.36,2.36,0,0,0,11.14,9.27Zm-3.27,2.8a1.69,1.69,0,0,0-1,.46,2.59,2.59,0,0,0-.73,1.53,1.44,1.44,0,0,0,.45,1.48c.1.09.18.2.28.29l.57.53A27.18,27.18,0,0,0,7.87,12.07Zm6.49,4.54a6.34,6.34,0,0,0,1.38-1.28l-.16-.51A5.1,5.1,0,0,0,14,12.33l-.16-.1ZM12.73,5.76a5.23,5.23,0,0,0,.39.42.2.2,0,0,0,.18,0A1.74,1.74,0,0,1,14.5,6a1.06,1.06,0,0,1,.72,1.62.41.41,0,0,0,0,.56A1.64,1.64,0,0,0,15.3,5.8,1.92,1.92,0,0,0,12.73,5.76Zm-3.49,0a2.07,2.07,0,0,0-2.67-.14,1.94,1.94,0,0,0-.2,2.5c.28-.28.31-.42.13-.74a.91.91,0,0,1-.06-.85,1.3,1.3,0,0,1,2-.5c.24.19.27.2.52,0A2.5,2.5,0,0,0,9.24,5.81Zm4,6.55a5.8,5.8,0,0,1-2.16.56,7.57,7.57,0,0,1-2.25-.41A2.7,2.7,0,0,0,13.21,12.36Zm-5-.07a6,6,0,0,0,.26,2.28,3.64,3.64,0,0,0,.22-.71c.07-.26.06-.27.34-.19a2.48,2.48,0,0,0,.24,1.24A3.41,3.41,0,0,0,10,13.67,4.83,4.83,0,0,1,8.17,12.29Zm4.47,1.06a3.33,3.33,0,0,0,.82,1.09,6,6,0,0,0,.16-2Zm-1.17.52c.16.25.3.52.47.76s.3.21.38-.06a12,12,0,0,0,.28-1.18Zm-1.29-.1A3.86,3.86,0,0,0,10.55,15c.07.12.16.15.24,0a3,3,0,0,0,.4-1.07Z"/><path d="M29,9.26v-.1a.47.47,0,0,1,.39-.42.43.43,0,0,1,.38.36l0,.15a.48.48,0,0,1-.4.51C29.13,9.76,29,9.55,29,9.26Z"/><path d="M24.22,9.05a1.43,1.43,0,0,1,.14-.34.33.33,0,0,1,.56,0,.85.85,0,0,1,.12.37.46.46,0,0,1-.39.5C24.43,9.58,24.25,9.34,24.22,9.05Z"/><path d="M26.78,10.1a2.94,2.94,0,0,0,.42,0c.27,0,.33.13.42.31a.34.34,0,0,1-.1.46c-.16.12-.3.28-.46.41s-.19.23-.08.36.24.23.41.07a.2.2,0,0,1,.34,0,.21.21,0,0,1,0,.14c0,.17-.55.46-.68.34a.52.52,0,0,0-.79,0,.18.18,0,0,1-.27,0L25.79,12c-.12-.08-.16-.17-.06-.3s.22-.11.33,0,.2.06.31,0a.22.22,0,0,0,.13-.26.54.54,0,0,0-.1-.16c-.15-.16-.31-.33-.47-.48a.26.26,0,0,1-.06-.36l0,0a.4.4,0,0,1,.51-.3A2.16,2.16,0,0,0,26.78,10.1Z"/><path d="M9,9.34c0,.31-.16.52-.37.54a.46.46,0,0,1-.42-.45.62.62,0,0,1,0-.23.39.39,0,0,1,.36-.34c.23,0,.32.15.39.33S9,9.32,9,9.34Z"/><path d="M13.67,9.07a.46.46,0,0,1-.36.5.43.43,0,0,1-.41-.38.53.53,0,0,1,.26-.62C13.43,8.48,13.67,8.72,13.67,9.07Z"/><path d="M11.21,11.7c-.06-.08-.09-.15-.14-.21L10.53,11c-.11-.09-.15-.17-.09-.29a1.44,1.44,0,0,1,.13-.31.27.27,0,0,1,.19-.11c.36,0,.72,0,1.08-.05s.28.25.39.39,0,.22-.06.31a4.5,4.5,0,0,0-.46.52.37.37,0,0,0,0,.33c.09.1.23.23.39.06a.2.2,0,0,1,.33,0c.11.14,0,.23-.08.32-.33.27-.33.28-.69.06a.3.3,0,0,0-.38,0c-.1.09-.25.22-.35.2a1.29,1.29,0,0,1-.48-.3.28.28,0,0,1,0-.25.33.33,0,0,1,.27,0c.15.09.27.15.4,0A1.72,1.72,0,0,0,11.21,11.7Z"/><path d="M34.93,10.12a9.39,9.39,0,0,1-2.8,7A6.49,6.49,0,0,1,27.44,19a6.73,6.73,0,0,1-5.09-2.43,8.84,8.84,0,0,1-2.18-5.06,9.36,9.36,0,0,1,1.91-7,6.93,6.93,0,0,1,4.19-2.63,6.42,6.42,0,0,1,5.26,1.27,8.3,8.3,0,0,1,3.12,5A18.49,18.49,0,0,1,34.93,10.12Zm-.29.11c0-.32-.06-.84-.15-1.35a8.28,8.28,0,0,0-2.81-5.19,6.09,6.09,0,0,0-6-1.31,6.93,6.93,0,0,0-4,3.3,9.17,9.17,0,0,0-1.09,6.63,8.22,8.22,0,0,0,2.89,5,6.19,6.19,0,0,0,4.83,1.42,6.39,6.39,0,0,0,3.93-2.06A9.13,9.13,0,0,0,34.64,10.23Z"/><path d="M18.68,10.12a9.35,9.35,0,0,1-2.34,6.46,6.72,6.72,0,0,1-4.16,2.25A6.5,6.5,0,0,1,7,17.37a8.33,8.33,0,0,1-3-5A9.35,9.35,0,0,1,5.23,5.41,7.17,7.17,0,0,1,9.45,2.08a6.45,6.45,0,0,1,6.07,1.3,8.43,8.43,0,0,1,3,5.31C18.61,9.24,18.64,9.81,18.68,10.12Zm-.29,0c0-.34-.07-.91-.16-1.46a8.23,8.23,0,0,0-2.73-5,6.19,6.19,0,0,0-5.9-1.4A6.91,6.91,0,0,0,5.44,5.62a9,9,0,0,0-1.16,6.31A8.23,8.23,0,0,0,7.07,17a6.26,6.26,0,0,0,4.86,1.55,6.37,6.37,0,0,0,3.87-1.86A9,9,0,0,0,18.39,10.15Z"/><path d="M2.54,19.44c.51,0,1,0,1.53,0a.61.61,0,0,1,.64.48c.07.34-.06.56-.44.77l.21.06a.69.69,0,0,1,.5.76.61.61,0,0,1-.59.59c-.62,0-1.24,0-1.82,0,.28,0,.35-.26.35-.54V20C2.92,19.73,2.85,19.5,2.54,19.44Zm.81,1.33a.31.31,0,0,0,0,.08c0,.26,0,.51,0,.76,0,.42.22.56.63.49a.68.68,0,0,0,0-1.33A4.42,4.42,0,0,0,3.35,20.77Zm0-.06c.33,0,.67.05.86-.29a.63.63,0,0,0,0-.72c-.2-.29-.51-.21-.81-.21Z"/><path d="M17.26,19.44a.58.58,0,0,1,.69.23c.14.26,0,.45-.49.83.22.29.43.59.66.87a6.51,6.51,0,0,0,.51.54.34.34,0,0,0,.52,0c-.19.42-.54.37-1.15-.15l-.12.1c0-.07.06-.18,0-.22-.24-.33-.49-.65-.74-1a.84.84,0,0,0-.29,1,.56.56,0,0,0,.68.39l.22-.07a.81.81,0,0,1-1.14,0c-.32-.38-.16-.82.46-1.32-.08-.17-.18-.32-.24-.49a.49.49,0,0,1,.4-.69.33.33,0,0,0-.17.46,5.7,5.7,0,0,0,.3.54h.08a2.71,2.71,0,0,0,.21-.37C17.8,19.68,17.63,19.43,17.26,19.44Z"/><path d="M23.32,22.12s-.06.07-.09.07a1.28,1.28,0,0,1-1.48-1.07,1.42,1.42,0,0,1,1.09-1.68,1.67,1.67,0,0,1,.5,0l-.06,0a.86.86,0,0,0-.79.43,1.72,1.72,0,0,0,0,1.94.72.72,0,0,0,.81.31Z"/><path d="M11.61,22.13c-.55.07-.55.07-.64-.07l-.19.05a1.52,1.52,0,0,0,0-1.57l.2.08a5.71,5.71,0,0,0,0-.83c0-.11-.15-.21-.22-.31l.57-.08v2.31C11.32,21.92,11.37,22.08,11.61,22.13Z"/><path d="M13.05,20.51l-.3.48h.88c0-.29-.11-.46-.43-.51A.61.61,0,0,1,14,21H12.82a.85.85,0,0,0,.39,1c.32.14.54.06.77-.3,0,.28-.25.47-.62.48a.82.82,0,0,1-.94-.74A.8.8,0,0,1,13.05,20.51Z"/><path d="M33,22.13c.21-.05.23-.22.23-.41s0-.52,0-.78a.34.34,0,0,0-.3-.39l.58-.09.12.29a3,3,0,0,0-.06,1.17.5.5,0,0,0,.12.21Z"/><path d="M26.1,20.58c-.06.2-.13.39-.17.59a3.37,3.37,0,0,0,0,.55c0,.18,0,.34.22.41h-.78c.23-.05.24-.23.23-.42v-.8c0-.17-.05-.29-.28-.35l.53-.1.06.25.2-.12Z"/><path d="M6.62,20.58a4.36,4.36,0,0,0-.17.59,3.37,3.37,0,0,0,0,.55c0,.18,0,.34.22.41H5.88c.23-.05.24-.23.24-.42s0-.54,0-.8a.32.32,0,0,0-.29-.35l.53-.1.06.25.2-.12Z"/><path d="M8.73,22.14H8c.24-.07.24-.26.24-.45s0-.52,0-.78A1.34,1.34,0,0,0,8,20.54l.48-.08v1.27C8.51,21.9,8.52,22.07,8.73,22.14Z"/><path d="M36.1,22.14h-.79c.22-.07.25-.25.25-.45s0-.41,0-.62c0-.41-.1-.51-.5-.54a.52.52,0,0,1,.81.5c0,.24,0,.48,0,.72S35.91,22.07,36.1,22.14Z"/><path d="M34.68,20.74l.18-.13a2.22,2.22,0,0,0-.13,1.24c0,.1.13.2.19.29h-.8c.26-.09.28-.28.28-.48s0-.44,0-.65c0-.36-.1-.44-.45-.49A.56.56,0,0,1,34.68,20.74Z"/><path d="M10.58,20.47a.76.76,0,0,0-.58.82c0,.49.18.79.55.88a.74.74,0,0,1-.76-.3.91.91,0,0,1,0-1A.8.8,0,0,1,10.58,20.47Z"/><path d="M31,20.5a1,1,0,0,0-.24,1.44.54.54,0,0,0,.54.21.86.86,0,0,1-.91-.3.77.77,0,0,1-.09-.92A.8.8,0,0,1,31,20.5Z"/><path d="M28.27,20.5A1,1,0,0,0,28,21.94a.54.54,0,0,0,.54.21.86.86,0,0,1-.91-.3.77.77,0,0,1-.09-.92A.8.8,0,0,1,28.27,20.5Z"/><path d="M28.56,22.15a1,1,0,0,0,0-1.65.86.86,0,0,1,.8.84A.84.84,0,0,1,28.56,22.15Z"/><path d="M31.31,22.15a1,1,0,0,0,0-1.65.88.88,0,0,1,.81.84A.86.86,0,0,1,31.31,22.15Z"/><path d="M23.32,22.12a.5.5,0,0,0,.44-.31c.17-.33,0-.57-.41-.66h1.22c-.5.08-.3.47-.34.74a2.81,2.81,0,0,1-.33.13l-.58.1Z"/><path d="M24.17,19.42v.87c-.17-.35-.29-.69-.69-.82C23.72,19.38,23.92,19.72,24.17,19.42Z"/><path d="M18.18,20.46h.73c-.4.13-.45.47-.64.76C18.33,20.93,18.59,20.64,18.18,20.46Z"/><path d="M26.11,20.59a.37.37,0,0,1,.47-.09c.05,0,.06.13.1.2a1,1,0,0,1-.24,0c-.11,0-.22-.09-.34-.13Z"/><path d="M6.62,20.59a.38.38,0,0,1,.47-.09c.06,0,.07.13.1.2a1,1,0,0,1-.24,0c-.11,0-.22-.09-.33-.13Z"/><path d="M8.55,19.6c-.07,0-.13.12-.2.12s-.12-.09-.17-.14.1-.16.16-.17.14.07.21.11Z"/><path d="M34.24,10.44a8.28,8.28,0,0,1-1.92,5.49,6.19,6.19,0,0,1-4.14,2.31,5.92,5.92,0,0,1-4.55-1.38,7.75,7.75,0,0,1-2.71-4.75,8.64,8.64,0,0,1,1-6.07A6.56,6.56,0,0,1,26,2.8a5.85,5.85,0,0,1,5.58,1.33,8,8,0,0,1,2.63,5c0,.21.06.42.07.63S34.24,10.2,34.24,10.44ZM23.68,11.71a4.38,4.38,0,0,1-1-2.74.53.53,0,0,0-.17-.41,2,2,0,0,1,.74-3.21,2.51,2.51,0,0,1,2,.19.35.35,0,0,0,.26,0,4.39,4.39,0,0,1,3-.09.39.39,0,0,0,.39,0A2.47,2.47,0,0,1,30.47,5a2,2,0,0,1,1.8,1.38A2.76,2.76,0,0,1,32,8.31a.9.9,0,0,0-.08.36,5,5,0,0,1-.3,1.7,3.89,3.89,0,0,1-.89,1.39,2.89,2.89,0,0,1,1.49.87,5.06,5.06,0,0,1,.88,1.49s0-.06,0-.08l.09-.17a8.59,8.59,0,0,0,.59-4.8,7.5,7.5,0,0,0-2.63-4.81,5.56,5.56,0,0,0-5-1.25,6.08,6.08,0,0,0-3.72,2.58,8.37,8.37,0,0,0-1.33,6.55c.05.32.15.63.23,1A4.22,4.22,0,0,1,23.68,11.71Zm5.3.77.17-.06a3.74,3.74,0,0,0,2.51-3.55.86.86,0,0,0-.17-.5,3,3,0,0,0-.82-.72,10.36,10.36,0,0,1-1-.91.35.35,0,0,0-.22-.1,1.16,1.16,0,0,1-.95-.78.21.21,0,0,0-.11-.1,4,4,0,0,0-2.71.07c-.05,0-.08.08-.12.13-.18.23-.35.46-.54.69a3.58,3.58,0,0,1-.29.26c-.33.33-.62.68-1,1s-.6.35-.7.72c0,.09-.12.16-.12.23a4,4,0,0,0,.84,2.56,2.6,2.6,0,0,0,1.12.82,1.08,1.08,0,0,1-.11-.21,2.68,2.68,0,0,1-.22-.79A1.94,1.94,0,0,1,25.78,9.4a3.09,3.09,0,0,1,2.35-.08,1.67,1.67,0,0,1,.79.57A2.19,2.19,0,0,1,29,12.48Zm-1.78.36v0c.17,0,.34,0,.5-.06a1.5,1.5,0,0,0,1.34-1,1.92,1.92,0,0,0-.8-2.08,2.66,2.66,0,0,0-2.71.19,1.56,1.56,0,0,0-.61,1.61,1.39,1.39,0,0,0,1,1.08C26.32,12.7,26.76,12.75,27.2,12.84Zm-3.35-1,0,0,3.1,4.92,3-4.4-1.11.45.2,0a4,4,0,0,0-.1.57c0,.25,0,.27-.29.27h-.69a1.67,1.67,0,0,1,.14.15c.08.15.17.31.24.48s-.11.21-.17.31-.27.21-.4,0-.3-.57-.48-.84-.25-.25-.43,0-.38.54-.58.81a.33.33,0,0,1-.23.1.66.66,0,0,1-.27-.09c0-.42.37-.68.59-1.07l-1.32.2.06-.92.79.11v0A5.69,5.69,0,0,1,23.85,11.85Zm-1-3.39c.19-.27.2-.32,0-.56a1,1,0,0,1,0-1.17,1.46,1.46,0,0,1,1.83-.35c.15.06.22,0,.31,0s.2-.26.3-.39a1.89,1.89,0,0,0-2.45,0A1.68,1.68,0,0,0,22.83,8.46Zm6-2.53c.17.13.32.25.48.35a.2.2,0,0,0,.28,0,1.28,1.28,0,0,1,1.91.12.93.93,0,0,1,.1,1.14.48.48,0,0,0,.18.69,1.93,1.93,0,0,0-.31-2.51A2.05,2.05,0,0,0,28.79,5.93ZM23.85,16.68l0,0c0-.34,0-.67,0-1s-.11-.28-.3-.15a6.42,6.42,0,0,0-.54.45Zm7.24.06-.44-.66a2.11,2.11,0,0,0-.14,1.05l.17-.11Z"/><path d="M11.32,18.15a6.35,6.35,0,0,1-5-2.47,8,8,0,0,1-1.8-4.76,8.31,8.31,0,0,1,1.7-5.75,6.28,6.28,0,0,1,4.18-2.53,5.87,5.87,0,0,1,4.64,1.29,7.64,7.64,0,0,1,2.76,4.6A8.47,8.47,0,0,1,16.65,15a6.55,6.55,0,0,1-4.17,3c-.12,0-.25.05-.38.06Zm4.88-3,.05-.06.21-.31A8.35,8.35,0,0,0,17.6,8.93,7.43,7.43,0,0,0,15,4.25a5.58,5.58,0,0,0-4.61-1.32A6,6,0,0,0,6.55,5.24,7.93,7.93,0,0,0,4.83,9.71a8.31,8.31,0,0,0,1,4.73,2.06,2.06,0,0,0,.13.21A2.61,2.61,0,0,1,7.79,12,4.14,4.14,0,0,1,6.37,8.76a1.17,1.17,0,0,0,0-.2A7.94,7.94,0,0,1,6,7.75a1.92,1.92,0,0,1,.49-2,2.27,2.27,0,0,1,2.7-.24.71.71,0,0,0,.62.06,4.35,4.35,0,0,1,2.85,0,.39.39,0,0,0,.28,0,2.51,2.51,0,0,1,1.67-.33,1.87,1.87,0,0,1,1.56,1.42,1.79,1.79,0,0,1-.44,1.92.41.41,0,0,0-.1.21c0,.22,0,.44,0,.66a3.89,3.89,0,0,1-1.09,2.42l-.32.28a3.92,3.92,0,0,1,1.23,1.37C15.71,14.06,15.94,14.63,16.2,15.19Zm-2.71-3c.19-.12.36-.21.51-.32a3.42,3.42,0,0,0,1.3-2.45,1.19,1.19,0,0,0-.18-1.07A2.35,2.35,0,0,0,14.73,8c-.41-.31-.77-.67-1.15-1-.09-.08-.16-.21-.27-.27a1.55,1.55,0,0,1-.67-.78.27.27,0,0,0-.13-.1,4.07,4.07,0,0,0-2.69,0s-.1.06-.11.11a1.15,1.15,0,0,1-.91.79.46.46,0,0,0-.26.13,10.37,10.37,0,0,1-1,1,3.08,3.08,0,0,0-.68.62,1,1,0,0,0-.17.77,1.11,1.11,0,0,0,0,.19,3.63,3.63,0,0,0,1.37,2.42,2.26,2.26,0,0,0,.38.25l.85.43,0-.06A1.74,1.74,0,0,1,9,11.1a2,2,0,0,1,1.36-1.77,3.32,3.32,0,0,1,2,0,1.93,1.93,0,0,1,1.19,2.82ZM10.2,14.56c-.09.14-.15.26-.23.37a2,2,0,0,1-.27.31.35.35,0,0,1-.61-.12C9,15,9,14.92,9,14.79a.91.91,0,0,1-.06.11c-.1.08-.2.21-.3.21s-.19-.14-.25-.24a2.12,2.12,0,0,1-.13-.36c-.11.72-.23,1.41-.32,2.1a.28.28,0,0,0,.12.23,5.62,5.62,0,0,0,6.11.24.22.22,0,0,0,.14-.28c0-.3-.07-.61-.11-.92s-.1-.85-.15-1.29c-.28.32-.42.36-.66.17a1.66,1.66,0,0,1-.26-.27L13,14.36c-.06.18-.1.34-.16.49-.21.51-.58.56-.92.13a4.67,4.67,0,0,1-.3-.43c-.09.21-.16.41-.26.59s-.21.41-.47.4-.36-.23-.45-.42S10.27,14.76,10.2,14.56Zm1.14-5.09H11A1.74,1.74,0,0,0,9.3,11a1.38,1.38,0,0,0,1.12,1.79,3.76,3.76,0,0,0,1.53,0,1.87,1.87,0,0,0,1-.45,1.54,1.54,0,0,0-.23-2.46A2.36,2.36,0,0,0,11.34,9.47Zm-3.28,2.8a1.69,1.69,0,0,0-1,.46,2.53,2.53,0,0,0-.73,1.53,1.44,1.44,0,0,0,.45,1.48c.1.09.18.2.28.29l.57.53A26,26,0,0,0,8.06,12.27Zm6.49,4.54a6.65,6.65,0,0,0,1.39-1.28L15.78,15a5.1,5.1,0,0,0-1.55-2.49l-.16-.1ZM12.93,6c.13.14.25.29.39.42a.2.2,0,0,0,.18,0,1.74,1.74,0,0,1,1.2-.19,1.06,1.06,0,0,1,.72,1.62.41.41,0,0,0,0,.56A1.64,1.64,0,0,0,15.5,6,1.91,1.91,0,0,0,12.93,6ZM9.44,6a2.07,2.07,0,0,0-2.67-.14,1.93,1.93,0,0,0-.2,2.5c.28-.28.31-.43.13-.74a.91.91,0,0,1-.06-.85,1.3,1.3,0,0,1,2-.5c.24.19.27.2.52,0A3.71,3.71,0,0,0,9.44,6Zm4,6.55a5.8,5.8,0,0,1-2.16.56A7.57,7.57,0,0,1,9,12.71,2.71,2.71,0,0,0,13.41,12.56Zm-5-.07a6,6,0,0,0,.26,2.28,4.83,4.83,0,0,0,.22-.71c.07-.27.06-.27.34-.19a2.58,2.58,0,0,0,.23,1.24,3.23,3.23,0,0,0,.77-1.24A5,5,0,0,1,8.37,12.49Zm4.47,1.06a3.2,3.2,0,0,0,.82,1.09,6,6,0,0,0,.16-2Zm-1.17.52a8.65,8.65,0,0,0,.47.76c.16.22.3.21.38-.06a12,12,0,0,0,.28-1.18ZM10.38,14a3.6,3.6,0,0,0,.37,1.18c.07.12.16.14.24,0a3,3,0,0,0,.4-1.07Z"/><path d="M29.16,9.46V9.35a.46.46,0,0,1,.39-.41.43.43,0,0,1,.38.36.77.77,0,0,1,0,.15.47.47,0,0,1-.39.51C29.33,10,29.16,9.75,29.16,9.46Z"/><path d="M24.42,9.25a2,2,0,0,1,.13-.34.34.34,0,0,1,.57,0,.85.85,0,0,1,.12.37.46.46,0,0,1-.39.5C24.63,9.77,24.45,9.54,24.42,9.25Z"/><path d="M27,10.3a2,2,0,0,0,.42,0c.27,0,.33.14.41.32a.32.32,0,0,1-.09.46c-.16.12-.3.28-.46.41s-.19.23-.08.36.24.23.41.07a.22.22,0,0,1,.38.16c0,.18-.55.46-.68.35a.52.52,0,0,0-.79,0,.18.18,0,0,1-.27,0,2.15,2.15,0,0,0-.24-.18c-.12-.08-.16-.18-.06-.3s.22-.11.33,0,.2.06.31,0a.22.22,0,0,0,.12-.26.32.32,0,0,0-.09-.16c-.16-.16-.31-.33-.47-.48a.26.26,0,0,1-.06-.36s0,0,0-.06a.43.43,0,0,1,.52-.3A1.45,1.45,0,0,0,27,10.3Z"/><path d="M9.17,9.54c0,.3-.16.52-.37.53s-.39-.17-.42-.44a.62.62,0,0,1,0-.23.39.39,0,0,1,.36-.34c.22,0,.32.15.38.33S9.16,9.52,9.17,9.54Z"/><path d="M13.87,9.27a.46.46,0,0,1-.36.5.43.43,0,0,1-.41-.38.53.53,0,0,1,.26-.62C13.63,8.68,13.87,8.92,13.87,9.27Z"/><path d="M11.41,11.9a1.27,1.27,0,0,0-.15-.21l-.53-.47c-.11-.09-.15-.17-.09-.3a1.6,1.6,0,0,1,.13-.3A.33.33,0,0,1,11,10.5l1.08,0c.27,0,.27.24.39.38s0,.22-.06.32a5.8,5.8,0,0,0-.47.52.39.39,0,0,0,0,.33c.09.1.23.23.39.06a.2.2,0,0,1,.33,0c.11.14,0,.23-.08.32-.33.27-.33.28-.69.06a.3.3,0,0,0-.38,0c-.1.09-.25.22-.35.19a1.19,1.19,0,0,1-.48-.29s0-.21,0-.25a.29.29,0,0,1,.27,0c.14.09.27.15.4,0S11.35,12,11.41,11.9Z"/></g><g class="cls-3"><path d="M34.59,9.78a9.39,9.39,0,0,1-2.8,7A6.49,6.49,0,0,1,27.1,18.7,6.73,6.73,0,0,1,22,16.27a8.84,8.84,0,0,1-2.18-5.06,9.36,9.36,0,0,1,1.91-7A6.93,6.93,0,0,1,25.93,1.6a6.42,6.42,0,0,1,5.26,1.27,8.3,8.3,0,0,1,3.12,5A18.49,18.49,0,0,1,34.59,9.78Zm-.29.11c0-.32-.06-.84-.15-1.35a8.28,8.28,0,0,0-2.81-5.19,6.09,6.09,0,0,0-6-1.31,6.9,6.9,0,0,0-4,3.3A9.17,9.17,0,0,0,20.24,12a8.22,8.22,0,0,0,2.89,5A6.19,6.19,0,0,0,28,18.37a6.39,6.39,0,0,0,3.93-2.06A9.13,9.13,0,0,0,34.3,9.89Z"/><path d="M18.34,9.78A9.35,9.35,0,0,1,16,16.24a6.72,6.72,0,0,1-4.16,2.25A6.5,6.5,0,0,1,6.69,17a8.33,8.33,0,0,1-3-5A9.35,9.35,0,0,1,4.89,5.07,7.17,7.17,0,0,1,9.11,1.74,6.42,6.42,0,0,1,15.18,3a8.43,8.43,0,0,1,3,5.31C18.27,8.9,18.3,9.47,18.34,9.78Zm-.29,0c0-.34-.07-.91-.16-1.46a8.23,8.23,0,0,0-2.73-5A6.19,6.19,0,0,0,9.26,2,6.91,6.91,0,0,0,5.1,5.28a9,9,0,0,0-1.16,6.31,8.23,8.23,0,0,0,2.79,5.1,6.26,6.26,0,0,0,4.86,1.55,6.37,6.37,0,0,0,3.87-1.86A9,9,0,0,0,18.05,9.81Z"/><path d="M2.2,19.1c.51,0,1,0,1.53,0a.61.61,0,0,1,.64.48c.07.34-.06.56-.44.77l.21.06a.69.69,0,0,1,.5.76.61.61,0,0,1-.59.59c-.62,0-1.24,0-1.82,0,.28,0,.35-.26.35-.54V19.66C2.58,19.39,2.51,19.16,2.2,19.1ZM3,20.43a.24.24,0,0,0,0,.08c0,.26,0,.51,0,.76,0,.42.22.56.63.49a.62.62,0,0,0,.56-.64.62.62,0,0,0-.54-.69A4.42,4.42,0,0,0,3,20.43Zm0-.06c.33,0,.67.05.86-.29a.63.63,0,0,0,0-.72c-.2-.29-.51-.21-.81-.21Z"/><path d="M16.92,19.1a.58.58,0,0,1,.69.23c.14.26,0,.45-.49.83.22.29.43.59.66.87a6.51,6.51,0,0,0,.51.54.34.34,0,0,0,.52,0c-.19.42-.54.37-1.15-.15l-.12.1c0-.07.06-.18,0-.22-.24-.33-.49-.65-.74-1a.84.84,0,0,0-.29,1,.56.56,0,0,0,.68.39l.22-.07a.81.81,0,0,1-1.14,0c-.32-.38-.16-.82.46-1.32-.08-.17-.18-.32-.24-.49a.49.49,0,0,1,.4-.69.34.34,0,0,0-.18.46c.09.19.21.36.31.54h.08a2.71,2.71,0,0,0,.21-.37C17.46,19.34,17.29,19.09,16.92,19.1Z"/><path d="M23,21.78s-.06.07-.09.07a1.28,1.28,0,0,1-1.48-1.07A1.42,1.42,0,0,1,22.5,19.1a1.67,1.67,0,0,1,.5,0l-.06,0a.86.86,0,0,0-.79.43,1.72,1.72,0,0,0,0,1.94.72.72,0,0,0,.81.31Z"/><path d="M11.27,21.79c-.55.07-.55.07-.64-.07l-.19.05a1.52,1.52,0,0,0,0-1.57l.2.08a5.71,5.71,0,0,0,0-.83c0-.11-.15-.21-.22-.31l.57-.08v2.31C11,21.58,11,21.74,11.27,21.79Z"/><path d="M12.71,20.17l-.3.48h.88c0-.29-.11-.46-.43-.51a.61.61,0,0,1,.77.56H12.48a.85.85,0,0,0,.39,1c.32.14.54.06.77-.3,0,.28-.25.47-.62.48a.82.82,0,0,1-.94-.74A.8.8,0,0,1,12.71,20.17Z"/><path d="M32.65,21.79c.22-.05.24-.22.24-.41s0-.52,0-.78a.34.34,0,0,0-.3-.39l.58-.09.12.29a3,3,0,0,0-.06,1.17.5.5,0,0,0,.12.21Z"/><path d="M25.76,20.24c-.06.2-.13.39-.17.59a3.37,3.37,0,0,0,0,.55c0,.18,0,.34.22.41H25c.23-.05.24-.23.23-.42v-.8c0-.17-.05-.29-.28-.35l.53-.1.06.25.2-.13Z"/><path d="M6.28,20.24a4.36,4.36,0,0,0-.17.59,3.37,3.37,0,0,0,0,.55c0,.18,0,.34.22.41H5.54c.23-.05.24-.23.24-.42s0-.54,0-.8a.32.32,0,0,0-.29-.35l.53-.1.06.25.2-.13Z"/><path d="M8.39,21.8H7.62c.24-.07.24-.26.24-.45s0-.52,0-.78a1.34,1.34,0,0,0-.16-.37l.48-.08v1.27C8.17,21.56,8.18,21.73,8.39,21.8Z"/><path d="M35.76,21.8H35c.22-.07.25-.25.25-.45s0-.41,0-.62c0-.41-.09-.51-.49-.54a.52.52,0,0,1,.81.5c0,.24,0,.48,0,.72S35.57,21.73,35.76,21.8Z"/><path d="M34.34,20.4l.18-.13a2.22,2.22,0,0,0-.13,1.24c0,.1.13.2.19.29h-.8c.26-.09.28-.28.28-.48s0-.44,0-.65c0-.36-.1-.44-.45-.49C33.9,20.05,34.09,20.11,34.34,20.4Z"/><path d="M10.24,20.13a.76.76,0,0,0-.58.82c0,.49.18.79.55.88a.74.74,0,0,1-.76-.3.91.91,0,0,1,0-1A.8.8,0,0,1,10.24,20.13Z"/><path d="M30.68,20.16a1,1,0,0,0-.24,1.44.54.54,0,0,0,.54.21.86.86,0,0,1-.91-.3.77.77,0,0,1-.09-.92A.8.8,0,0,1,30.68,20.16Z"/><path d="M27.93,20.16a1,1,0,0,0-.24,1.44.54.54,0,0,0,.54.21.86.86,0,0,1-.91-.3.77.77,0,0,1-.09-.92A.8.8,0,0,1,27.93,20.16Z"/><path d="M28.22,21.81a1,1,0,0,0,0-1.65A.86.86,0,0,1,29,21,.84.84,0,0,1,28.22,21.81Z"/><path d="M31,21.81a1,1,0,0,0,0-1.65.88.88,0,0,1,.81.84A.86.86,0,0,1,31,21.81Z"/><path d="M23,21.78a.5.5,0,0,0,.44-.31c.17-.33,0-.57-.41-.66h1.22c-.5.08-.3.47-.34.74a2.81,2.81,0,0,1-.33.13l-.58.1Z"/><path d="M23.83,19.08V20c-.17-.35-.29-.69-.69-.82C23.38,19,23.58,19.38,23.83,19.08Z"/><path d="M17.84,20.12h.73c-.4.13-.45.47-.64.76C18,20.59,18.25,20.3,17.84,20.12Z"/><path d="M25.77,20.24a.38.38,0,0,1,.47-.08c.05,0,.06.13.09.2a.89.89,0,0,1-.23,0c-.12,0-.22-.09-.34-.13Z"/><path d="M6.28,20.24a.39.39,0,0,1,.47-.08c.06,0,.07.13.1.2a1,1,0,0,1-.24,0c-.11,0-.22-.09-.33-.13Z"/><path d="M8.21,19.26c-.07,0-.13.12-.2.12s-.12-.09-.18-.14.11-.16.17-.17.14.07.21.11Z"/><path d="M33.9,10.1A8.28,8.28,0,0,1,32,15.59a6.23,6.23,0,0,1-4.14,2.31,5.89,5.89,0,0,1-4.55-1.39,7.7,7.7,0,0,1-2.71-4.74,8.64,8.64,0,0,1,1-6.07,6.56,6.56,0,0,1,4-3.24,5.85,5.85,0,0,1,5.58,1.33,8,8,0,0,1,2.63,5c0,.21.06.42.07.63S33.9,9.86,33.9,10.1ZM23.34,11.37a4.38,4.38,0,0,1-1-2.74.53.53,0,0,0-.17-.41A2,2,0,0,1,22.91,5a2.51,2.51,0,0,1,2,.2.35.35,0,0,0,.26,0,4.45,4.45,0,0,1,3-.08.42.42,0,0,0,.39,0,2.47,2.47,0,0,1,1.54-.41,2,2,0,0,1,1.8,1.38A2.76,2.76,0,0,1,31.69,8a.9.9,0,0,0-.08.36,5,5,0,0,1-.3,1.7,3.89,3.89,0,0,1-.89,1.39,2.89,2.89,0,0,1,1.49.87,5.06,5.06,0,0,1,.88,1.49s.05-.06.05-.08l.09-.17a8.59,8.59,0,0,0,.59-4.8,7.5,7.5,0,0,0-2.63-4.81,5.53,5.53,0,0,0-5-1.25,6.08,6.08,0,0,0-3.72,2.58,8.37,8.37,0,0,0-1.33,6.55c.05.32.15.63.23,1A4.22,4.22,0,0,1,23.34,11.37Zm5.3.77.17-.06a3.74,3.74,0,0,0,2.51-3.55.86.86,0,0,0-.17-.5,3,3,0,0,0-.82-.72,10.36,10.36,0,0,1-1-.91.35.35,0,0,0-.22-.1,1.16,1.16,0,0,1-.95-.78.21.21,0,0,0-.11-.1,4,4,0,0,0-2.71.07c-.05,0-.08.08-.12.13-.18.23-.35.46-.54.69a3.58,3.58,0,0,1-.29.26c-.33.33-.62.68-1,1s-.6.35-.7.72c0,.08-.12.16-.12.23a4,4,0,0,0,.84,2.56,2.6,2.6,0,0,0,1.12.82.89.89,0,0,1-.11-.22,2.54,2.54,0,0,1-.22-.78,1.94,1.94,0,0,1,1.18-1.81A3.09,3.09,0,0,1,27.79,9a1.67,1.67,0,0,1,.79.57A2.19,2.19,0,0,1,28.64,12.14Zm-1.78.36v-.05a4.23,4.23,0,0,0,.5,0,1.5,1.5,0,0,0,1.34-1,1.94,1.94,0,0,0-.8-2.09,2.69,2.69,0,0,0-2.71.2,1.56,1.56,0,0,0-.61,1.61,1.39,1.39,0,0,0,1,1.08C26,12.36,26.42,12.41,26.86,12.5Zm-3.35-1,0,0,3.1,4.92,3-4.4-1.11.45.2,0a4,4,0,0,0-.1.57c0,.25,0,.27-.29.27h-.69a.92.92,0,0,1,.14.15c.08.15.17.31.24.48s-.11.21-.17.31-.27.21-.4,0-.3-.57-.48-.84-.25-.25-.43,0-.38.54-.58.81a.33.33,0,0,1-.23.1.66.66,0,0,1-.27-.09c0-.42.37-.68.59-1.07l-1.32.2.06-.92.79.11v-.05A5.69,5.69,0,0,1,23.51,11.51Zm-1-3.39c.19-.27.2-.32,0-.56a1,1,0,0,1,0-1.17A1.46,1.46,0,0,1,24.34,6c.15.06.22,0,.3,0s.21-.26.31-.39a1.89,1.89,0,0,0-2.45,0A1.68,1.68,0,0,0,22.49,8.12Zm6-2.53c.17.13.32.25.48.35a.2.2,0,0,0,.28,0A1.28,1.28,0,0,1,31.12,6a.93.93,0,0,1,.1,1.14.48.48,0,0,0,.18.69,1.93,1.93,0,0,0-.31-2.51A2.05,2.05,0,0,0,28.45,5.59ZM23.51,16.34l0,0c0-.34,0-.67,0-1s-.11-.28-.3-.15a6.42,6.42,0,0,0-.54.45Zm7.23.06-.43-.66a2.11,2.11,0,0,0-.14,1l.17-.11Z"/><path d="M11,17.81a6.35,6.35,0,0,1-5-2.47,8,8,0,0,1-1.8-4.76A8.31,8.31,0,0,1,5.9,4.83,6.28,6.28,0,0,1,10.08,2.3a5.87,5.87,0,0,1,4.64,1.29,7.64,7.64,0,0,1,2.76,4.6,8.47,8.47,0,0,1-1.17,6.5,6.55,6.55,0,0,1-4.17,3c-.13,0-.25.05-.38.06Zm4.88-3a.19.19,0,0,0,0-.06c.08-.1.15-.21.22-.31a8.35,8.35,0,0,0,1.14-5.89,7.43,7.43,0,0,0-2.6-4.68,5.58,5.58,0,0,0-4.61-1.32A6,6,0,0,0,6.21,4.9,7.93,7.93,0,0,0,4.49,9.37a8.31,8.31,0,0,0,1,4.73,2.06,2.06,0,0,0,.13.21,2.61,2.61,0,0,1,1.82-2.64A4.14,4.14,0,0,1,6,8.42a1.17,1.17,0,0,0,0-.2,7.94,7.94,0,0,1-.31-.81,1.92,1.92,0,0,1,.49-2,2.27,2.27,0,0,1,2.7-.24.71.71,0,0,0,.62.06,4.35,4.35,0,0,1,2.85,0,.39.39,0,0,0,.28,0,2.51,2.51,0,0,1,1.67-.33,1.87,1.87,0,0,1,1.56,1.42,1.79,1.79,0,0,1-.44,1.92.41.41,0,0,0-.1.21c0,.22,0,.44,0,.66a3.89,3.89,0,0,1-1.09,2.42l-.32.28a3.92,3.92,0,0,1,1.23,1.37C15.37,13.72,15.6,14.29,15.86,14.85Zm-2.71-3c.19-.12.36-.21.51-.32A3.42,3.42,0,0,0,15,9.12a1.19,1.19,0,0,0-.18-1.07,2,2,0,0,0-.39-.38c-.41-.31-.77-.67-1.15-1-.09-.08-.16-.21-.27-.27a1.55,1.55,0,0,1-.67-.78.27.27,0,0,0-.13-.1,4.07,4.07,0,0,0-2.69,0s-.1.06-.11.11a1.15,1.15,0,0,1-.91.79.46.46,0,0,0-.26.13,10.37,10.37,0,0,1-1,1,3.08,3.08,0,0,0-.68.62,1,1,0,0,0-.17.77,1.11,1.11,0,0,0,0,.19,3.63,3.63,0,0,0,1.37,2.42,2.26,2.26,0,0,0,.38.25l.85.43,0-.06a1.74,1.74,0,0,1-.36-1.37A2,2,0,0,1,10,9a3.24,3.24,0,0,1,2,0,1.93,1.93,0,0,1,1.19,2.82ZM9.86,14.22c-.09.14-.15.26-.23.37a2,2,0,0,1-.27.31.35.35,0,0,1-.61-.12c-.05-.1-.08-.21-.13-.33a.91.91,0,0,1-.06.11c-.1.08-.2.21-.3.21s-.19-.14-.25-.24a2.12,2.12,0,0,1-.13-.36c-.11.72-.23,1.41-.32,2.1a.28.28,0,0,0,.12.23,5.62,5.62,0,0,0,6.11.24.22.22,0,0,0,.14-.28c0-.3-.07-.61-.11-.92s-.1-.85-.15-1.29c-.28.32-.42.36-.66.17a1.66,1.66,0,0,1-.26-.27L12.63,14c-.06.18-.1.34-.16.49-.21.51-.58.56-.93.13-.1-.13-.19-.28-.29-.43-.09.21-.16.41-.26.59s-.21.41-.47.4-.36-.23-.45-.42S9.93,14.42,9.86,14.22ZM11,9.13h-.31A1.74,1.74,0,0,0,9,10.62a1.38,1.38,0,0,0,1.12,1.79,3.76,3.76,0,0,0,1.53,0,1.87,1.87,0,0,0,1-.45,1.54,1.54,0,0,0-.23-2.46A2.36,2.36,0,0,0,11,9.13Zm-3.28,2.8a1.69,1.69,0,0,0-1,.46A2.53,2.53,0,0,0,6,13.92a1.44,1.44,0,0,0,.45,1.48c.1.09.18.2.28.29l.57.53A26,26,0,0,0,7.72,11.93Zm6.49,4.54a6.65,6.65,0,0,0,1.39-1.28l-.16-.51a5.1,5.1,0,0,0-1.55-2.49l-.16-.1ZM12.59,5.62c.13.14.25.29.39.42a.2.2,0,0,0,.18,0,1.74,1.74,0,0,1,1.2-.19,1.06,1.06,0,0,1,.72,1.62.41.41,0,0,0,0,.56,1.64,1.64,0,0,0,.05-2.41A1.91,1.91,0,0,0,12.59,5.62Zm-3.49,0a2.07,2.07,0,0,0-2.67-.14A1.93,1.93,0,0,0,6.23,8c.28-.28.3-.43.13-.74a.91.91,0,0,1-.06-.85,1.3,1.3,0,0,1,2-.5c.24.19.27.19.52,0A3.71,3.71,0,0,0,9.1,5.67Zm4,6.55a5.8,5.8,0,0,1-2.16.56,7.57,7.57,0,0,1-2.25-.41A2.71,2.71,0,0,0,13.07,12.22Zm-5-.07a6,6,0,0,0,.26,2.28,4.83,4.83,0,0,0,.22-.71c.07-.27.06-.27.34-.19a2.58,2.58,0,0,0,.23,1.24,3.23,3.23,0,0,0,.77-1.24A5,5,0,0,1,8,12.15Zm4.47,1.06a3.3,3.3,0,0,0,.81,1.09,5.74,5.74,0,0,0,.17-2Zm-1.17.52a8.65,8.65,0,0,0,.47.76c.16.22.3.21.38-.06a12,12,0,0,0,.28-1.18ZM10,13.63a3.6,3.6,0,0,0,.37,1.18c.07.12.16.14.24,0a3,3,0,0,0,.4-1.07Z"/><path d="M28.82,9.12V9a.46.46,0,0,1,.39-.41.43.43,0,0,1,.38.36.77.77,0,0,1,0,.15.47.47,0,0,1-.39.51C29,9.62,28.82,9.41,28.82,9.12Z"/><path d="M24.08,8.91a2,2,0,0,1,.13-.34.34.34,0,0,1,.57,0,.85.85,0,0,1,.12.37.46.46,0,0,1-.39.5C24.29,9.43,24.11,9.2,24.08,8.91Z"/><path d="M26.64,10a2,2,0,0,0,.42,0c.27,0,.33.14.41.32a.32.32,0,0,1-.09.46c-.17.12-.3.28-.46.41s-.19.23-.08.36.24.23.41.07a.21.21,0,0,1,.34,0,.25.25,0,0,1,0,.14c0,.18-.55.46-.68.35a.52.52,0,0,0-.79,0,.18.18,0,0,1-.27,0,2.15,2.15,0,0,0-.24-.18c-.12-.08-.16-.18-.06-.3s.22-.11.33,0,.2.06.31,0a.22.22,0,0,0,.12-.26.32.32,0,0,0-.09-.16l-.47-.49a.25.25,0,0,1-.06-.35s0,0,0-.06a.43.43,0,0,1,.52-.3A1.43,1.43,0,0,0,26.64,10Z"/><path d="M8.83,9.2c0,.3-.16.52-.37.53S8.07,9.56,8,9.29a.62.62,0,0,1,0-.23.38.38,0,0,1,.36-.34c.22,0,.32.15.38.33S8.82,9.18,8.83,9.2Z"/><path d="M13.53,8.93a.46.46,0,0,1-.36.5.43.43,0,0,1-.41-.38A.53.53,0,0,1,13,8.43C13.29,8.34,13.53,8.58,13.53,8.93Z"/><path d="M11.06,11.56a.85.85,0,0,0-.14-.21c-.17-.16-.35-.32-.54-.47a.23.23,0,0,1-.08-.3,1.6,1.6,0,0,1,.13-.3.33.33,0,0,1,.19-.12l1.08,0c.27,0,.27.24.39.38s0,.22-.06.32a5.8,5.8,0,0,0-.47.52.39.39,0,0,0,0,.33c.09.1.23.23.39.06a.2.2,0,0,1,.33,0c.11.14,0,.23-.08.32-.33.27-.33.28-.69.06a.29.29,0,0,0-.38,0c-.1.09-.25.22-.35.19a1.19,1.19,0,0,1-.48-.29.25.25,0,0,1,0-.25.29.29,0,0,1,.27,0c.14.09.27.15.4,0Z"/></g><path class="cls-4" d="M34.79,10A9.39,9.39,0,0,1,32,17,6.49,6.49,0,0,1,27.3,18.9a6.73,6.73,0,0,1-5.09-2.43A8.87,8.87,0,0,1,20,11.4a9.33,9.33,0,0,1,1.91-7A6.93,6.93,0,0,1,26.13,1.8a6.38,6.38,0,0,1,5.26,1.27,8.35,8.35,0,0,1,3.12,5A19,19,0,0,1,34.79,10Zm-.29.11c0-.32-.06-.84-.15-1.36a8.28,8.28,0,0,0-2.81-5.18,6.12,6.12,0,0,0-6-1.32,6.92,6.92,0,0,0-4,3.31,9.15,9.15,0,0,0-1.09,6.63,8.17,8.17,0,0,0,2.89,5,6.19,6.19,0,0,0,4.83,1.42,6.44,6.44,0,0,0,3.93-2.06A9.13,9.13,0,0,0,34.5,10.09Z"/><path class="cls-4" d="M18.53,10a9.3,9.3,0,0,1-2.34,6.46A6.72,6.72,0,0,1,12,18.69a6.47,6.47,0,0,1-5.15-1.47,8.37,8.37,0,0,1-3-5A9.39,9.39,0,0,1,5.09,5.27,7.18,7.18,0,0,1,9.3,1.94a6.43,6.43,0,0,1,6.08,1.3,8.4,8.4,0,0,1,3,5.31C18.47,9.1,18.5,9.67,18.53,10Zm-.28,0c0-.34-.07-.91-.17-1.46a8.17,8.17,0,0,0-2.72-5,6.19,6.19,0,0,0-5.9-1.4A6.91,6.91,0,0,0,5.3,5.48a9,9,0,0,0-1.16,6.31,8.23,8.23,0,0,0,2.79,5.1,6.26,6.26,0,0,0,4.86,1.55,6.37,6.37,0,0,0,3.87-1.86A9,9,0,0,0,18.25,10Z"/><path class="cls-4" d="M2.39,19.3c.52,0,1,0,1.54,0a.63.63,0,0,1,.64.49c.07.34-.06.56-.44.77l.21.06a.67.67,0,0,1,.49.76.6.6,0,0,1-.58.59C3.63,22,3,22,2.43,22c.28,0,.35-.27.35-.54V19.85C2.78,19.59,2.71,19.36,2.39,19.3Zm.81,1.33s0,.05,0,.08c0,.25,0,.51,0,.76,0,.42.22.56.63.49a.63.63,0,0,0,.56-.64.61.61,0,0,0-.54-.69A4.56,4.56,0,0,0,3.2,20.63Zm0-.06c.33,0,.67.05.86-.29a.63.63,0,0,0,0-.72c-.21-.29-.52-.22-.81-.22Z"/><path class="cls-4" d="M17.11,19.3a.58.58,0,0,1,.7.23c.13.26,0,.45-.49.83.22.29.43.59.66.87a6.51,6.51,0,0,0,.51.54.33.33,0,0,0,.52,0c-.19.43-.54.38-1.15-.14l-.12.1c0-.08.06-.18,0-.22-.23-.33-.49-.65-.73-1a.84.84,0,0,0-.29,1,.57.57,0,0,0,.68.39l.22-.08a.81.81,0,0,1-1.14,0c-.32-.38-.16-.83.45-1.33a4.37,4.37,0,0,1-.23-.49.49.49,0,0,1,.4-.68.34.34,0,0,0-.18.46c.09.19.21.36.31.54h.08a2.24,2.24,0,0,0,.2-.37C17.66,19.54,17.49,19.29,17.11,19.3Z"/><path class="cls-4" d="M23.18,22s-.06.06-.09.07A1.28,1.28,0,0,1,21.61,21,1.42,1.42,0,0,1,22.7,19.3a1.67,1.67,0,0,1,.5,0,.07.07,0,0,1-.06,0,.87.87,0,0,0-.79.44,1.72,1.72,0,0,0,0,1.94.73.73,0,0,0,.81.31Z"/><path class="cls-4" d="M11.46,22c-.54.07-.54.07-.63-.07l-.19,0a1.52,1.52,0,0,0,0-1.57l.2.08a5.71,5.71,0,0,0,0-.83c0-.12-.15-.22-.22-.31l.57-.08v.23c0,.69,0,1.38,0,2.07C11.17,21.77,11.23,21.94,11.46,22Z"/><path class="cls-4" d="M12.91,20.37l-.3.48h.87c0-.3-.1-.46-.43-.51a.61.61,0,0,1,.78.56H12.68a.85.85,0,0,0,.39,1c.32.14.54.05.77-.3,0,.28-.25.47-.62.48a.83.83,0,0,1-.94-.74A.79.79,0,0,1,12.91,20.37Z"/><path class="cls-4" d="M32.85,22c.22,0,.24-.22.24-.41s0-.52,0-.78a.34.34,0,0,0-.3-.39l.58-.09.12.29a2.83,2.83,0,0,0-.06,1.17c0,.09.1.18.12.21Z"/><path class="cls-4" d="M26,20.44a4.36,4.36,0,0,0-.17.59,5,5,0,0,0,0,.55A.37.37,0,0,0,26,22h-.79c.23,0,.25-.23.24-.42v-.81c0-.16-.05-.28-.28-.35l.53-.09.06.24.2-.12Z"/><path class="cls-4" d="M6.48,20.44c-.06.2-.14.39-.18.59a5,5,0,0,0,0,.55c0,.18,0,.34.22.41H5.74c.23,0,.24-.23.24-.42s0-.54,0-.81-.06-.28-.29-.35l.53-.09.06.24.2-.12Z"/><path class="cls-4" d="M8.59,22H7.82c.23-.07.24-.26.24-.45s0-.52,0-.78a1.2,1.2,0,0,0-.15-.38l.48-.07c0,.2,0,.4,0,.59v.68C8.37,21.76,8.38,21.93,8.59,22Z"/><path class="cls-4" d="M36,22h-.79c.22-.08.25-.26.24-.45s0-.41,0-.62c0-.41-.09-.51-.49-.54a.52.52,0,0,1,.81.5c0,.24,0,.48,0,.72A.36.36,0,0,0,36,22Z"/><path class="cls-4" d="M34.54,20.6l.18-.13a2.23,2.23,0,0,0-.14,1.24c0,.1.13.2.2.29H34c.27-.09.29-.28.29-.48s0-.44,0-.65c0-.36-.1-.45-.45-.49C34.09,20.25,34.28,20.31,34.54,20.6Z"/><path class="cls-4" d="M10.44,20.33a.76.76,0,0,0-.58.82c0,.49.18.79.55.88a.76.76,0,0,1-.77-.3.91.91,0,0,1,0-1A.77.77,0,0,1,10.44,20.33Z"/><path class="cls-4" d="M30.88,20.36a1,1,0,0,0-.24,1.44.54.54,0,0,0,.54.21.88.88,0,0,1-.91-.3.77.77,0,0,1-.09-.92A.78.78,0,0,1,30.88,20.36Z"/><path class="cls-4" d="M28.12,20.36a1,1,0,0,0-.23,1.44.54.54,0,0,0,.54.21.9.9,0,0,1-.92-.3.77.77,0,0,1-.08-.92A.78.78,0,0,1,28.12,20.36Z"/><path class="cls-4" d="M28.42,22a1,1,0,0,0,0-1.66.88.88,0,0,1,.81.85A.85.85,0,0,1,28.42,22Z"/><path class="cls-4" d="M31.17,22a1,1,0,0,0,0-1.66.88.88,0,0,1,.8.85A.85.85,0,0,1,31.17,22Z"/><path class="cls-4" d="M23.18,22a.5.5,0,0,0,.44-.31c.16-.33,0-.57-.41-.66h1.22c-.5.08-.3.47-.35.74-.11,0-.21.1-.32.13l-.58.1Z"/><path class="cls-4" d="M24,19.28v.87c-.17-.35-.3-.69-.69-.82C23.58,19.24,23.78,19.58,24,19.28Z"/><path class="cls-4" d="M18,20.32h.74c-.4.13-.45.46-.64.76C18.19,20.79,18.45,20.5,18,20.32Z"/><path class="cls-4" d="M26,20.44a.38.38,0,0,1,.47-.08s.06.13.09.2a1.85,1.85,0,0,1-.23,0,3.42,3.42,0,0,1-.34-.13Z"/><path class="cls-4" d="M6.48,20.44A.38.38,0,0,1,7,20.36s.07.13.1.2a1.93,1.93,0,0,1-.24,0c-.11,0-.22-.09-.33-.13Z"/><path class="cls-4" d="M8.41,19.46c-.07,0-.14.12-.2.12s-.12-.09-.18-.14.11-.16.17-.17.14.07.21.11Z"/><path class="cls-4" d="M34.09,10.3a8.19,8.19,0,0,1-1.91,5.48A6.2,6.2,0,0,1,28,18.1a5.89,5.89,0,0,1-4.55-1.39A7.7,7.7,0,0,1,20.78,12a8.64,8.64,0,0,1,1-6.07,6.61,6.61,0,0,1,4-3.24A5.86,5.86,0,0,1,31.39,4,7.87,7.87,0,0,1,34,9a4.17,4.17,0,0,1,.08.63C34.1,9.81,34.09,10.06,34.09,10.3ZM23.54,11.56a4.36,4.36,0,0,1-1-2.74.56.56,0,0,0-.17-.4,2,2,0,0,1,.74-3.22,2.51,2.51,0,0,1,2,.2.35.35,0,0,0,.26,0,4.42,4.42,0,0,1,3-.08.44.44,0,0,0,.4-.05,2.53,2.53,0,0,1,1.54-.42,2,2,0,0,1,1.8,1.39,2.76,2.76,0,0,1-.24,1.89.9.9,0,0,0-.08.36,5,5,0,0,1-.3,1.7,4,4,0,0,1-.89,1.39,2.93,2.93,0,0,1,1.49.87A5.06,5.06,0,0,1,33,14l0-.08a1.3,1.3,0,0,0,.08-.17,8.63,8.63,0,0,0,.6-4.81,7.55,7.55,0,0,0-2.63-4.8,5.54,5.54,0,0,0-5-1.25,6.08,6.08,0,0,0-3.72,2.58A8.4,8.4,0,0,0,21.07,12c.06.32.16.63.24,1A4.22,4.22,0,0,1,23.54,11.56Zm5.3.78.17-.06a3.72,3.72,0,0,0,2.5-3.55.74.74,0,0,0-.17-.5,2.78,2.78,0,0,0-.81-.72,9.25,9.25,0,0,1-1-.91.3.3,0,0,0-.22-.1,1.19,1.19,0,0,1-1-.78.17.17,0,0,0-.1-.1,4,4,0,0,0-2.72.07s-.07.08-.11.13c-.18.23-.35.46-.54.69a3.58,3.58,0,0,1-.29.26c-.33.32-.62.68-1,1s-.59.35-.69.72c0,.08-.12.15-.12.23a3.94,3.94,0,0,0,.84,2.56,2.68,2.68,0,0,0,1.12.82,1.72,1.72,0,0,1-.12-.22,2.52,2.52,0,0,1-.21-.78,1.93,1.93,0,0,1,1.18-1.81A3,3,0,0,1,28,9.18a1.72,1.72,0,0,1,.79.57A2.19,2.19,0,0,1,28.84,12.34Zm-1.79.35,0,0a4.45,4.45,0,0,0,.5-.05,1.5,1.5,0,0,0,1.34-1,1.91,1.91,0,0,0-.81-2.08,2.67,2.67,0,0,0-2.7.2,1.56,1.56,0,0,0-.61,1.61,1.39,1.39,0,0,0,1,1.08A11.33,11.33,0,0,0,27.05,12.69Zm-3.35-1,0,.05,3.1,4.92,3-4.4-1.11.45.2,0a3.89,3.89,0,0,0-.1.56c0,.25,0,.28-.29.28h-.69l.14.14c.08.16.17.32.24.49s-.11.21-.17.31-.27.2-.4,0-.31-.57-.48-.84-.26-.26-.44,0-.37.54-.57.8a.3.3,0,0,1-.23.11.85.85,0,0,1-.27-.09c0-.42.37-.68.59-1.07l-1.32.2.06-.92.79.11v-.06A5.43,5.43,0,0,1,23.7,11.7Zm-1-3.38c.19-.27.19-.32,0-.56a1,1,0,0,1,0-1.17,1.44,1.44,0,0,1,1.83-.35c.14.06.22,0,.3,0l.31-.39a1.89,1.89,0,0,0-2.45,0A1.68,1.68,0,0,0,22.69,8.32Zm5.95-2.53.49.35c.1.07.18.05.28,0a1.26,1.26,0,0,1,1.9.13.93.93,0,0,1,.11,1.14.48.48,0,0,0,.18.69,1.93,1.93,0,0,0-.31-2.51A2.07,2.07,0,0,0,28.64,5.79ZM23.71,16.54l.05,0c0-.34,0-.68,0-1s-.11-.29-.3-.16-.34.29-.54.46Zm7.23.06-.43-.66a2.11,2.11,0,0,0-.15,1l.18-.11Z"/><path class="cls-4" d="M11.18,18a6.35,6.35,0,0,1-5-2.47,8.12,8.12,0,0,1-1.81-4.76A8.31,8.31,0,0,1,6.1,5,6.28,6.28,0,0,1,10.28,2.5a5.88,5.88,0,0,1,4.63,1.28,7.64,7.64,0,0,1,2.77,4.6,8.49,8.49,0,0,1-1.17,6.51,6.5,6.5,0,0,1-4.17,3,2.53,2.53,0,0,1-.38.07Zm4.88-3s0,0,0-.06a3.62,3.62,0,0,0,.22-.32,8.31,8.31,0,0,0,1.14-5.88,7.48,7.48,0,0,0-2.6-4.68,5.59,5.59,0,0,0-4.61-1.32A6,6,0,0,0,6.4,5.1,7.91,7.91,0,0,0,4.69,9.57a8.26,8.26,0,0,0,1,4.72,1.38,1.38,0,0,0,.13.22,2.61,2.61,0,0,1,1.82-2.64A4.15,4.15,0,0,1,6.22,8.62a.65.65,0,0,0,0-.2,7.94,7.94,0,0,1-.31-.81,1.91,1.91,0,0,1,.49-2,2.24,2.24,0,0,1,2.69-.24.74.74,0,0,0,.63.06,4.35,4.35,0,0,1,2.85,0,.39.39,0,0,0,.28,0,2.52,2.52,0,0,1,1.67-.34A1.89,1.89,0,0,1,16,6.51a1.77,1.77,0,0,1-.44,1.91.4.4,0,0,0-.1.22c0,.22,0,.44,0,.66a3.94,3.94,0,0,1-1.09,2.42l-.32.28a3.93,3.93,0,0,1,1.23,1.37C15.57,13.91,15.8,14.49,16.06,15.05Zm-2.71-3c.19-.12.36-.21.51-.32a3.42,3.42,0,0,0,1.3-2.45A1.19,1.19,0,0,0,15,8.25a2.34,2.34,0,0,0-.39-.38c-.41-.31-.77-.68-1.15-1-.1-.08-.16-.21-.27-.27a1.55,1.55,0,0,1-.67-.78.27.27,0,0,0-.13-.1,4.07,4.07,0,0,0-2.69,0,.18.18,0,0,0-.11.1,1.15,1.15,0,0,1-.91.8.46.46,0,0,0-.26.13,10.37,10.37,0,0,1-1,1,3.08,3.08,0,0,0-.68.62,1,1,0,0,0-.18.77l0,.19a3.65,3.65,0,0,0,1.37,2.42,1.92,1.92,0,0,0,.38.25l.85.43.05-.06A1.7,1.7,0,0,1,8.85,11,2,2,0,0,1,10.2,9.19a3.2,3.2,0,0,1,2,0A1.93,1.93,0,0,1,13.35,12Zm-3.29,2.33c-.09.14-.15.26-.23.36a1.43,1.43,0,0,1-.28.32A.34.34,0,0,1,9,15c0-.1-.08-.21-.13-.33a.91.91,0,0,1-.06.11c-.1.08-.2.2-.3.2s-.19-.14-.25-.23a2.12,2.12,0,0,1-.13-.36c-.12.72-.23,1.41-.32,2.09a.32.32,0,0,0,.11.24,5.64,5.64,0,0,0,6.12.24.22.22,0,0,0,.14-.28c-.05-.31-.07-.61-.11-.92l-.15-1.29c-.28.32-.43.35-.66.17a1.66,1.66,0,0,1-.26-.27l-.13-.13a4.7,4.7,0,0,1-.16.49c-.21.51-.57.56-.92.13l-.29-.43c-.09.21-.16.41-.26.59s-.21.41-.47.4-.36-.23-.45-.42S10.13,14.62,10.06,14.42Zm1.14-5.1-.32,0a1.73,1.73,0,0,0-1.72,1.48,1.38,1.38,0,0,0,1.12,1.79,3.94,3.94,0,0,0,1.53,0,1.9,1.9,0,0,0,1-.45,1.55,1.55,0,0,0-.24-2.47A2.31,2.31,0,0,0,11.2,9.32ZM7.92,12.13a1.74,1.74,0,0,0-1,.46,2.58,2.58,0,0,0-.72,1.53,1.42,1.42,0,0,0,.45,1.48c.1.09.18.2.28.29s.35.33.57.53A27.28,27.28,0,0,0,7.92,12.13Zm6.49,4.54a6.65,6.65,0,0,0,1.39-1.28l-.16-.51a5.1,5.1,0,0,0-1.55-2.49l-.16-.1ZM12.79,5.82c.13.14.25.29.38.42a.22.22,0,0,0,.19,0,1.74,1.74,0,0,1,1.2-.19,1.06,1.06,0,0,1,.72,1.62c-.17.23-.09.38,0,.56a1.63,1.63,0,0,0,0-2.41A1.9,1.9,0,0,0,12.79,5.82Zm-3.49,0a2.07,2.07,0,0,0-2.67-.14,1.93,1.93,0,0,0-.2,2.5c.28-.28.3-.43.13-.74a.92.92,0,0,1-.07-.85,1.3,1.3,0,0,1,2-.5c.25.19.28.19.53,0C9.1,6.07,9.19,6,9.3,5.87Zm4,6.55A5.81,5.81,0,0,1,11.1,13a7.56,7.56,0,0,1-2.24-.41A2.71,2.71,0,0,0,13.27,12.42Zm-5-.07a5.74,5.74,0,0,0,.26,2.27,5.68,5.68,0,0,0,.22-.7c.06-.27.06-.27.33-.19A2.59,2.59,0,0,0,9.28,15a3.23,3.23,0,0,0,.77-1.24A4.9,4.9,0,0,1,8.23,12.35Zm4.46,1.06a3.33,3.33,0,0,0,.82,1.09,5.74,5.74,0,0,0,.17-2Zm-1.16.52a8.65,8.65,0,0,0,.47.76c.16.22.29.21.38-.06s.18-.77.28-1.18Zm-1.3-.11A3.85,3.85,0,0,0,10.61,15c.07.12.15.14.24,0a3.23,3.23,0,0,0,.4-1.07Z"/><path class="cls-4" d="M29,9.32a.41.41,0,0,1,0-.11.45.45,0,0,1,.39-.41c.17,0,.32.14.38.36a.78.78,0,0,1,0,.14.45.45,0,0,1-.39.51C29.19,9.82,29,9.61,29,9.32Z"/><path class="cls-4" d="M24.28,9.11a2,2,0,0,1,.13-.34.33.33,0,0,1,.57,0,.67.67,0,0,1,.11.37.46.46,0,0,1-.38.5C24.49,9.63,24.31,9.4,24.28,9.11Z"/><path class="cls-4" d="M26.84,10.16a2,2,0,0,0,.42,0c.27-.05.33.14.41.32a.33.33,0,0,1-.09.46c-.17.12-.3.28-.46.41s-.19.23-.08.36.24.23.41.07a.2.2,0,0,1,.34,0,.37.37,0,0,1,0,.14c0,.18-.55.46-.68.35a.52.52,0,0,0-.79,0c-.09.09-.18.08-.28,0a2,2,0,0,0-.23-.18c-.12-.08-.16-.18-.06-.3a.19.19,0,0,1,.32,0c.12.12.21.06.32,0a.2.2,0,0,0,.12-.25.32.32,0,0,0-.09-.16c-.16-.17-.31-.33-.48-.49a.25.25,0,0,1-.05-.35s0,0,0-.06a.42.42,0,0,1,.52-.3A1.43,1.43,0,0,0,26.84,10.16Z"/><path class="cls-4" d="M9,9.4c0,.3-.15.51-.36.53s-.39-.17-.42-.44a.62.62,0,0,1,0-.23.38.38,0,0,1,.36-.34c.22,0,.32.15.38.33A.47.47,0,0,1,9,9.4Z"/><path class="cls-4" d="M13.73,9.13a.47.47,0,0,1-.36.5A.43.43,0,0,1,13,9.25a.53.53,0,0,1,.26-.62C13.49,8.54,13.73,8.78,13.73,9.13Z"/><path class="cls-4" d="M11.26,11.76a.85.85,0,0,0-.14-.21c-.17-.16-.35-.33-.54-.48a.21.21,0,0,1-.08-.29,2,2,0,0,1,.13-.31.33.33,0,0,1,.19-.11l1.08,0c.27,0,.27.24.39.38s0,.22-.06.32a4.6,4.6,0,0,0-.47.52.36.36,0,0,0,0,.33c.09.09.23.23.39.06a.2.2,0,0,1,.33,0c.11.14,0,.23-.08.32-.33.27-.33.28-.7.06a.28.28,0,0,0-.37,0c-.11.08-.25.22-.35.19a1.19,1.19,0,0,1-.48-.29.23.23,0,0,1,0-.25.29.29,0,0,1,.27,0c.14.08.27.15.4,0Z"/></g></g></svg>