<svg xmlns="http://www.w3.org/2000/svg" viewBox="0 0 38.55 24.66"><defs><style>.cls-1{isolation:isolate;}.cls-2{opacity:0.15;}.cls-2,.cls-3{mix-blend-mode:multiply;}.cls-4{fill:#fff;}</style></defs><title>convert-FIX-SVG-03</title><g class="cls-1"><g id="Layer_1" data-name="Layer 1"><g class="cls-2"><path d="M14.2,13.1c-.19-.17-.37-.33-.53-.5a4.53,4.53,0,0,1-1.21-2.69,9.16,9.16,0,0,1,0-2.28.36.36,0,0,0-.09-.24,3.05,3.05,0,0,1-.84-2.72,1.93,1.93,0,0,1,.83-1.16,3.8,3.8,0,0,1,2.17-.68,2.25,2.25,0,0,1,1.66.81.2.2,0,0,0,.25.07,6.48,6.48,0,0,1,4.15.19A.26.26,0,0,0,21,3.83a1.91,1.91,0,0,1,2.07-.58,4.42,4.42,0,0,1,1.79.88A1.82,1.82,0,0,1,25.48,6a3.66,3.66,0,0,1-.77,1.81.3.3,0,0,0,0,.19c0,.59,0,1.18-.05,1.77,0,.16,0,.32,0,.48h.09a.31.31,0,0,0,.05-.12c0-.22,0-.29.25-.28a9.45,9.45,0,0,1,1.06.08c.8.13,1.61.26,2.41.44a5.63,5.63,0,0,1,1.69.73.47.47,0,0,1,.26.53c-.07.41-.17.81-.25,1.22a3.83,3.83,0,0,0,0,.41c.31,0,.38.17.41.37a2.63,2.63,0,0,1-.28,1.66A3.53,3.53,0,0,1,30,16a1.85,1.85,0,0,1-1.92.84h-.11l-.34.49a1.81,1.81,0,0,1-.09.37A2.18,2.18,0,0,1,26,18.79a2.07,2.07,0,0,1-1.18-.12,2.77,2.77,0,0,1-.37-.28.46.46,0,0,0-.16.11,2.09,2.09,0,0,1-.93.68.26.26,0,0,0-.12.4A4.77,4.77,0,0,1,24.11,22c.05.34.08.68.12,1h-.29a7.52,7.52,0,0,0-.71-3c-.08.47-.13.92-.24,1.34s-.27.84-.41,1.27c.21.05.06.21.09.35H22a6.2,6.2,0,0,0,.93-3.62,3.19,3.19,0,0,1-.82,0,3.73,3.73,0,0,1-1.63-.89.5.5,0,0,0-.33-.14A12.44,12.44,0,0,1,17.29,18c-.07,0-.18.06-.26.09.16.18.29.31.4.46l.62.88a.22.22,0,0,1-.06.34c-.16.11-.37.19-.43.41a.31.31,0,0,1-.2,0,1.8,1.8,0,0,1-.8-1.35.15.15,0,0,0-.06-.13,1.43,1.43,0,0,0-.12.21c-.09.25-.15.51-.25.76a1.38,1.38,0,0,1-.85.95H15.2c0-.16-.14-.17-.29-.15a.4.4,0,0,1-.33-.11c-.05-.07,0-.24.07-.33a6.87,6.87,0,0,1,.48-.62.56.56,0,0,0-.59.22,1.18,1.18,0,0,0-.28,1.16A5.7,5.7,0,0,0,15.1,23h-.51l-.72-2.45a1.83,1.83,0,0,0-.26.5c-.14.64-.24,1.29-.36,1.95H13l.14-1.27h0l-.36.51h0c.09-.26.17-.52.27-.77s0-.21-.11-.26l-.19-.08a.34.34,0,0,1-.29-.37c0-.27-.25-.41-.45-.55a.3.3,0,0,1-.17-.38,1.55,1.55,0,0,1,.05-.23,1,1,0,0,0,.05-.81c-.06-.15,0-.23.16-.27l.74-.24a3,3,0,0,1-.32-2,4.61,4.61,0,0,1,.66-1.68c.29-.45.63-.88,1-1.31A.81.81,0,0,1,14.2,13.1ZM24.31,9.81A6.27,6.27,0,0,0,24.37,8a.5.5,0,0,0-.12-.24,1.33,1.33,0,0,1-.44-.87.37.37,0,0,0-.09-.2,5.22,5.22,0,0,0-1.66-1.51,10.75,10.75,0,0,1-1.14-.76c-.1-.06-.16-.19-.26-.23A6.14,6.14,0,0,0,16.54,4a.51.51,0,0,0-.16.09A6.83,6.83,0,0,1,14.83,5l-.09.06a6.74,6.74,0,0,0-1.26,1.5c-.14.23-.22.5-.48.66a.46.46,0,0,0-.19.29,8,8,0,0,0,0,2.68,4,4,0,0,0,2.2,3,6.54,6.54,0,0,0,3.37.63c.07,0,.14-.08.21-.12a10,10,0,0,1-1-.19,2.78,2.78,0,0,1-2.34-2.93A2.44,2.44,0,0,1,16.8,8.31a4.22,4.22,0,0,1,3.27,0,2.35,2.35,0,0,1,1.39,1.5c.05.14.08.28.12.43A2.21,2.21,0,0,1,24.31,9.81Zm-3.86,2.34-.12.1a11.18,11.18,0,0,0-3.21,4.84.47.47,0,0,0,.39.7c.24.06.49.1.74.14a21.93,21.93,0,0,0,3.53.12L22.5,18c-.19-.27-.39-.51-.56-.77a.56.56,0,0,1,0-.69s0-.09,0-.13c0-.25,0-.49,0-.73,0-.42-.06-.84-.08-1.26a.19.19,0,0,0-.15-.21,1.76,1.76,0,0,1-1.16-1.35A6.75,6.75,0,0,1,20.45,12.15Zm.7-.93a2.5,2.5,0,0,0,.16-.51,2.22,2.22,0,0,0-1.46-2.14,4,4,0,0,0-2.19-.21A2.51,2.51,0,0,0,16,9.27a2.53,2.53,0,0,0-.43,1.81,2.1,2.1,0,0,0,.85,1.59,3.77,3.77,0,0,0,2,.75A.63.63,0,0,0,19.1,13l-.61-.43a.23.23,0,0,0-.2,0c-.19.11-.36.25-.55.36s-.14.06-.18,0c-.32-.2-.63-.42-1-.64l.28-.35.37.26c.32.23.32.23.65,0a.44.44,0,0,0,0-.74L17,10.75c.12-.16.23-.31.36-.46a.19.19,0,0,1,.14-.07h1.84a.19.19,0,0,1,.14.07c.11.15.2.31.31.48l-.93.74a.45.45,0,0,0,0,.77.76.76,0,0,1,.16.11c.1.09.18.08.29,0s.36-.25.54-.38l.17.13a2.29,2.29,0,0,0,.47-.46A.74.74,0,0,1,21.15,11.22Zm-6.72,2.06a7.36,7.36,0,0,0-1.31,1.88,3.84,3.84,0,0,0-.42,1.6,2.49,2.49,0,0,0,.36,1.4l2.09-.37c-.32-.05-.63-.06-1-.08a6.48,6.48,0,0,1-.76-.06.33.33,0,0,1-.23-.16c0-.07,0-.19.08-.26a1,1,0,0,1,.21-.2l-.11-.2a1.57,1.57,0,0,1,.48-.13,4.29,4.29,0,0,1,.94.15,9.1,9.1,0,0,1,1,.44c0-.06,0-.11,0-.14L15.27,16c-.08-.17-.17-.34-.24-.51s0-.15.09-.17c.2-.06.41-.1.61-.15a.29.29,0,0,1,.36.15,2.62,2.62,0,0,0,.22.25l.06,0,.07-.71.71-.16,0-.07c-1.34-.79-2.5-.27-3.63.55l-.22-.24a11.67,11.67,0,0,1,1.23-.68,10.41,10.41,0,0,1,1.25-.35ZM13,6.83c-.67-.82-.74-1.35-.27-1.9s1.22-.77,2.16-.22l1.18-.77a2,2,0,0,0-1.8-.83,3.85,3.85,0,0,0-1.61.54,1.8,1.8,0,0,0-.88,1.23,2.85,2.85,0,0,0,.78,2.29ZM22.21,5a4.87,4.87,0,0,1,.52-.32,1.48,1.48,0,0,1,1.84,1,1.21,1.21,0,0,1-.34,1.14c-.06.06-.13.16-.11.22a1,1,0,0,0,.38.58,3.36,3.36,0,0,0,.7-2.35,1.19,1.19,0,0,0-.46-.85,4.26,4.26,0,0,0-2.15-1,1.53,1.53,0,0,0-1.51.76ZM13.19,21l.34-.48a6.86,6.86,0,0,1,2-2.12c.16-.09.17-.19.06-.34a12.33,12.33,0,0,0-3.45.67c.22.23.13.42.06.62s-.08.22-.11.32a.28.28,0,0,0,.11.33c.17.15.39.31.45.51a.5.5,0,0,0,.38.4ZM30,12.56l.06,0c.06-.29.11-.57.17-.86a.3.3,0,0,0-.17-.37,10.21,10.21,0,0,0-1.26-.58c-.75-.2-1.53-.32-2.29-.47-.28,0-.55-.08-.83-.11l0,0,.77,1s.13,0,.2,0a1.81,1.81,0,0,1,.52,0,2.35,2.35,0,0,1,.66.36,1.71,1.71,0,0,0,1,.44C29.25,12.08,29.7,12.1,30,12.56Zm-4.23,3.76a1,1,0,0,1-1.16.57,1.53,1.53,0,0,1-1.14-1.6,2.41,2.41,0,0,0-.15.63,1.44,1.44,0,0,0,.92,1.64,2.49,2.49,0,0,0,1.27.1.48.48,0,0,0,.32-.17A1,1,0,0,0,25.73,16.32ZM21.5,11.14c.33.29.38.28.7,0a6,6,0,0,1,.76-.56.7.7,0,0,1,.67-.05.58.58,0,0,0,.66-.12c.15-.11.13-.19,0-.28a2.15,2.15,0,0,0-1.34-.28,1.39,1.39,0,0,0-1.26.94C21.62,10.91,21.56,11,21.5,11.14Zm2.63,2.64a2,2,0,0,0-1.51.6c-.59.5-.46,1.12-.29,1.75.4.05.48,0,.56-.41a4.87,4.87,0,0,1,.29-.89.71.71,0,0,1,.51-.41A.55.55,0,0,0,24.13,13.78ZM22.88,11a6.51,6.51,0,0,0-.63.68,1.42,1.42,0,0,0,.28,2.14c.1.07.16.09.27,0a2.21,2.21,0,0,1,1.27-.39l.05,0v-.18l-.09,0a1.08,1.08,0,0,1-1.49-1.24A6.76,6.76,0,0,1,22.88,11Zm2.5,4.12v.09a1.79,1.79,0,0,1,.92,2.08,2,2,0,0,0,.57-1.08,1.54,1.54,0,0,0-.08-1,.5.5,0,0,0-.54-.33C26,15,25.66,15.09,25.38,15.16Zm0-3.29A1.3,1.3,0,0,0,24.23,11a1.36,1.36,0,0,0-1.18.76,1.05,1.05,0,0,0,.2,1l0-.13c-.14-.52,0-.82.57-.91a2.28,2.28,0,0,1,.69,0C24.77,11.75,25.06,11.82,25.37,11.87Zm.5,2.64a1.32,1.32,0,0,0-1.39-.08,1.23,1.23,0,0,0-.58,1.17,1.07,1.07,0,0,0,.82.84,1.53,1.53,0,0,0-.16-.13.6.6,0,0,1-.06-1,2.6,2.6,0,0,1,.54-.4C25.31,14.77,25.59,14.65,25.87,14.51Zm-4.11-2.74a4.31,4.31,0,0,0-.51-.23c-.26-.08-.42,0-.45.29a2.54,2.54,0,0,0,0,.55,1.61,1.61,0,0,0,.87,1.49,2.63,2.63,0,0,0,.3.08,2.49,2.49,0,0,1-.56-.95.88.88,0,0,1,.2-1A2.4,2.4,0,0,0,21.76,11.77Zm1.16,4.71c-.22.05-.41.07-.59.13s-.3.26-.15.45a5.87,5.87,0,0,0,.73.84,1.39,1.39,0,0,0,1.16.31,1.08,1.08,0,0,0,.3-.11V18a1.86,1.86,0,0,1-1.08-.44.81.81,0,0,1-.36-.78C22.93,16.73,22.92,16.64,22.92,16.48Zm-1.15,1.85c.09.24.16.45.25.66a.18.18,0,0,0,.13.11,2.34,2.34,0,0,0,1.72-.53L23,18.28l-.1,0ZM29,15.48a1.62,1.62,0,0,0,.38-1.77.61.61,0,0,0-.28-.23,1.26,1.26,0,0,0-.89.22A1.54,1.54,0,0,1,29,15.48Zm-1.71-.27a1.16,1.16,0,0,0-.11-1.07.85.85,0,0,0-.72-.44A3.3,3.3,0,0,1,25,13.34a.19.19,0,0,0-.18,0,2.37,2.37,0,0,0-.19.35c.33.05.64.06.93.12A1.91,1.91,0,0,1,27.28,15.21Zm-.1,2.42a.59.59,0,0,0-.67.15.9.9,0,0,1-.93.32,2,2,0,0,0-.42,0,.57.57,0,0,0-.23.08c-.16.13-.15.2,0,.28A1.8,1.8,0,0,0,27.18,17.63Zm-.91-5.35c.06,0,.17,0,.27-.08s.11-.1.1-.12a1.8,1.8,0,0,0-.24-.48c-.28-.34-.63-.63-.88-1s-.21-.38-.59-.16l-.05,0a10,10,0,0,1,.8.79A11.49,11.49,0,0,1,26.27,12.28Zm3.59,1.34a1,1,0,0,0-.07-.8.81.81,0,0,0-.68-.46,5.16,5.16,0,0,1-1.1-.25c-.31-.1-.36-.1-.42.24C28.53,12.43,29.46,12.53,29.86,13.62Zm-4.32-.35c.16,0,.31.05.45.09s.22,0,.31-.11a1,1,0,0,1,.39-.27.48.48,0,0,0,.37-.53A1.7,1.7,0,0,0,25.54,13.27Zm1.45.27.28.24L28.54,13A1,1,0,0,0,27,13.54Zm-1.71-.45a1.38,1.38,0,0,1,.23-.27c.12-.11.1-.2,0-.3a1.6,1.6,0,0,0-1-.36l.16.85Zm2.54,2.15h0c-.1.21-.21.41-.31.62a4.68,4.68,0,0,0-.19.45c0,.1-.06.21-.1.32s-.13.34-.2.52c.36,0,.54-.08.62-.41a6.18,6.18,0,0,0,.2-.93A3.6,3.6,0,0,0,27.82,15.24Zm1.9.58a.41.41,0,0,0-.52.11.88.88,0,0,1-.87.3c-.32-.05-.32,0-.33.29A1.5,1.5,0,0,0,29.72,15.82ZM16.79,14.1a1.44,1.44,0,0,1,1,.87l.5-.8Zm11.36,1.74a1,1,0,0,0,.37-.16.84.84,0,0,0,0-1c-.12.11-.25.23-.36.35a.11.11,0,0,0,0,.11C28.11,15.38,28.13,15.59,28.15,15.84Zm2.18-2-.09,0-.63,1.59c.33,0,.44-.07.51-.34s.12-.48.17-.73A4,4,0,0,0,30.33,13.8Zm-3-1.6.25-.43a1.15,1.15,0,0,0-.78-.28,1.16,1.16,0,0,1,.11.33A.37.37,0,0,0,27.29,12.2Zm-3.4,0c-.1.11-.22.21-.2.23a1.48,1.48,0,0,0,.25.31.72.72,0,0,0,.16-.28C24.1,12.36,24,12.29,23.89,12.17Zm1.25,3.9c.07-.09.15-.16.14-.18a1.12,1.12,0,0,0-.19-.29l-.28.2Zm2.54-1.78.39,0c0-.09,0-.23-.1-.26S27.74,14.09,27.68,14.29Zm-2-2.08.25.28.05,0-.18-.6Zm.72,2.17v.27l.37.11,0,0Z"/><path d="M1.65,12.08c0,.45,0,.9,0,1.35,0,.1.13.2.18.29H1.33c.23-.06.25-.25.25-.45V12.11c0-.25,0-.28-.31-.41a4.88,4.88,0,0,1,.56,0c.06,0,.12.09.15.15.16.39.32.79.49,1.19a2,2,0,0,0,.1.23c.2-.46.4-.9.57-1.34.07-.19.17-.27.37-.24s.2,0,.31,0c-.25,0-.28.23-.28.43v1.12c0,.2,0,.39.27.45H3c.26-.07.25-.29.25-.5V12.06H3.19l-.75,1.7-.75-1.68Z"/><path d="M31.77,12.08c0,.46,0,.92,0,1.38,0,.1.14.19.2.26h-.53c.25-.07.25-.28.25-.48v-1.1c0-.2,0-.37-.25-.44.14,0,.29,0,.43,0s.17,0,.22.15c.18.47.38.93.59,1.44L33.22,12c.15-.34.15-.34.51-.34a.86.86,0,0,1,.21,0c-.28,0-.27.27-.28.47,0,.37,0,.74,0,1.12s0,.28.3.42H33.1c.24-.07.26-.26.26-.45V12.06h0l-.75,1.7-.75-1.67Z"/><path d="M6.2,11.73c.42,0,.8,0,1.17,0a.47.47,0,0,1,.47.42.5.5,0,0,1-.36.53.09.09,0,0,0-.05,0l.58,1s0,0,0,0c-.4,0-.4,0-.56-.34a4.17,4.17,0,0,0-.26-.46.33.33,0,0,0-.4-.16c-.09.59,0,.81.31,1H7c-.26,0-.52,0-.79,0,.25-.05.27-.24.27-.43V12.16C6.5,12,6.48,11.77,6.2,11.73Zm.6,1a.55.55,0,0,0,.63-.22.48.48,0,0,0,0-.55.56.56,0,0,0-.6-.18Z"/><path d="M10.06,13.73a.78.78,0,0,1-.26,0,.31.31,0,0,1-.2-.13c-.12-.21-.21-.43-.34-.63a.33.33,0,0,0-.4-.19c-.13.52,0,.82.27,1H8.28c.26-.08.26-.3.26-.51v-1.1c0-.19,0-.35-.26-.4a9.2,9.2,0,0,1,1.05,0c.35,0,.51.19.54.44s-.09.4-.4.54c.1.18.18.36.28.53Zm-1.21-2v1c.46,0,.69-.15.68-.49S9.28,11.71,8.85,11.75Z"/><path d="M36,13.19l0,.53H34.15c.32-.08.32-.29.32-.51s0-.68,0-1,0-.35-.27-.48h1.55l0,.39c-.21-.47-.63-.35-1-.36v.87c.33.06.41,0,.53-.31V13c-.1-.29-.26-.4-.52-.34a4.09,4.09,0,0,0,0,.7.43.43,0,0,0,.26.27.63.63,0,0,0,.84-.4l0-.08Z"/><path d="M11.35,12.72l.09-.19.05,0c-.2.26-.12.54-.12.82s.06.23.3.34h-.88c.22-.06.26-.22.28-.43a1.15,1.15,0,0,0-.26-.84c-.11-.14-.19-.3-.3-.44l-.3-.3H11c-.06,0-.16.09-.18.15a.43.43,0,0,0,.08.23C11.06,12.29,11.19,12.48,11.35,12.72Z"/><path d="M4.5,12.93,5,11.64c.06.12.1.18.13.25.2.48.39.95.6,1.42a2.14,2.14,0,0,0,.29.41H5.25c.06-.06.18-.11.2-.19a.67.67,0,0,0-.06-.3c-.14-.35-.14-.35-.52-.35Zm.72-.09-.33-.77-.3.77Z"/><path d="M36.89,12.86A.75.75,0,0,0,37,12a.56.56,0,0,0-.32-.26c-.14,0-.17.12-.21.23s-.07.06-.11.09-.08-.09-.07-.14a.18.18,0,0,1,.08-.13.52.52,0,0,1,.56,0,.67.67,0,0,1,.39.58.48.48,0,0,1-.26.47Z"/><path d="M12.15,11.71l-.57.71c0-.24.49-.45,0-.71Z"/><path d="M36.47,13.81c-.08-.13-.16-.2-.15-.26s.09-.13.14-.2.15.12.17.2S36.55,13.68,36.47,13.81Z"/><path d="M4.4,13.27c0,.31,0,.31.19.45H4.05Z"/><path d="M36.49,12.51l.1.27c-.21.06-.05.26-.13.38v-.65Z"/><path d="M15.6,8.8c0,.4-.23.69-.53.67a.62.62,0,0,1-.47-.74s0-.06,0-.08a.54.54,0,0,1,.51-.48.55.55,0,0,1,.47.52A.45.45,0,0,1,15.6,8.8Z"/><path d="M22.2,8.77c0,.42-.23.71-.52.7a.59.59,0,0,1-.49-.66.44.44,0,0,1,0-.16c.07-.3.25-.48.48-.48s.42.18.49.48C22.19,8.7,22.2,8.76,22.2,8.77Z"/><path d="M14.4,13.3c-.19-.18-.37-.33-.54-.5a4.52,4.52,0,0,1-1.2-2.69,8.71,8.71,0,0,1,0-2.28.36.36,0,0,0-.09-.24,3,3,0,0,1-.84-2.72,1.93,1.93,0,0,1,.83-1.16A3.8,3.8,0,0,1,14.77,3a2.22,2.22,0,0,1,1.66.81.2.2,0,0,0,.25.07,6.42,6.42,0,0,1,4.15.19A.25.25,0,0,0,21.18,4a1.93,1.93,0,0,1,2.08-.58,4.48,4.48,0,0,1,1.79.88,1.81,1.81,0,0,1,.63,1.86A3.66,3.66,0,0,1,24.91,8s0,.12-.05.19c0,.59,0,1.18,0,1.77a2.42,2.42,0,0,0,0,.47H25a.31.31,0,0,0,.05-.12c0-.22,0-.29.25-.28a9.1,9.1,0,0,1,1.05.08c.81.13,1.62.26,2.41.43a5.85,5.85,0,0,1,1.7.74.48.48,0,0,1,.26.53c-.07.41-.17.81-.25,1.22a3.63,3.63,0,0,0-.06.41c.32,0,.39.17.42.37a2.78,2.78,0,0,1-.28,1.66,4.58,4.58,0,0,1-.33.71,1.85,1.85,0,0,1-1.92.84h-.11l-.34.48a1.28,1.28,0,0,1-.1.38A2.17,2.17,0,0,1,26.21,19,2.07,2.07,0,0,1,25,18.86a1.72,1.72,0,0,1-.37-.28s-.12.06-.17.12a2,2,0,0,1-.92.68.26.26,0,0,0-.12.4,4.77,4.77,0,0,1,.86,2.38c.05.34.08.68.12,1h-.29a7.61,7.61,0,0,0-.71-3c-.08.48-.13.92-.24,1.35s-.27.84-.41,1.27c.2,0,0,.21.09.35h-.68a6.2,6.2,0,0,0,.93-3.62,3.19,3.19,0,0,1-.82,0,3.73,3.73,0,0,1-1.63-.89.5.5,0,0,0-.33-.14,12.44,12.44,0,0,1-2.85-.31c-.08,0-.18.06-.26.09.16.18.29.31.4.46s.41.59.61.88a.21.21,0,0,1,0,.34c-.17.11-.37.18-.44.41a.29.29,0,0,1-.19,0,1.82,1.82,0,0,1-.8-1.35.18.18,0,0,0-.06-.13.88.88,0,0,0-.12.21c-.09.25-.15.51-.25.76a1.38,1.38,0,0,1-.85.95h-.09c0-.17-.13-.17-.28-.15a.4.4,0,0,1-.33-.11c0-.07,0-.24.06-.33s.32-.41.49-.62a.56.56,0,0,0-.59.22A1.18,1.18,0,0,0,14.46,21a5.6,5.6,0,0,0,.84,2.19h-.51l-.73-2.45a2.16,2.16,0,0,0-.26.5c-.13.64-.24,1.29-.36,2H13.2l.13-1.27h0l-.35.51h0c.09-.26.17-.52.27-.77s0-.21-.11-.26l-.19-.08a.34.34,0,0,1-.29-.37c0-.27-.26-.42-.46-.55A.31.31,0,0,1,12,20c0-.08,0-.16,0-.23a1,1,0,0,0,.06-.81c-.06-.16,0-.23.16-.27l.73-.24a3,3,0,0,1-.31-2,4.44,4.44,0,0,1,.66-1.68c.29-.45.63-.88.95-1.31A.86.86,0,0,1,14.4,13.3ZM24.51,10a6.72,6.72,0,0,0,.06-1.79A.52.52,0,0,0,24.44,8,1.34,1.34,0,0,1,24,7.12a.56.56,0,0,0-.09-.21A5.34,5.34,0,0,0,22.26,5.4a11.91,11.91,0,0,1-1.15-.75c-.09-.07-.15-.19-.25-.23a6.14,6.14,0,0,0-4.12-.23.7.7,0,0,0-.17.09A6.55,6.55,0,0,1,15,5.22l-.09.06a7.26,7.26,0,0,0-1.27,1.49c-.13.24-.21.51-.47.66a.51.51,0,0,0-.19.3,7.78,7.78,0,0,0,0,2.68,4,4,0,0,0,2.2,3,6.43,6.43,0,0,0,3.37.62c.07,0,.14-.07.21-.11-.37-.07-.71-.1-1-.19a2.77,2.77,0,0,1-2.34-2.93A2.44,2.44,0,0,1,17,8.51a4.24,4.24,0,0,1,3.28.05,2.35,2.35,0,0,1,1.39,1.5,3,3,0,0,1,.11.43A2.22,2.22,0,0,1,24.51,10Zm-3.86,2.34-.12.09a11.27,11.27,0,0,0-3.21,4.85.47.47,0,0,0,.39.7c.24.06.49.1.74.14a21.9,21.9,0,0,0,3.53.12l.72-.05c-.19-.27-.39-.51-.57-.78a.53.53,0,0,1,0-.68.33.33,0,0,0,0-.14c0-.24,0-.48,0-.72,0-.42-.06-.84-.08-1.26,0-.13,0-.17-.15-.22a1.73,1.73,0,0,1-1.16-1.34A6.75,6.75,0,0,1,20.65,12.35Zm.7-.93a2,2,0,0,0,.15-.51,2.22,2.22,0,0,0-1.45-2.15,4.09,4.09,0,0,0-2.19-.2,2.51,2.51,0,0,0-1.71.91,2.53,2.53,0,0,0-.43,1.81,2.12,2.12,0,0,0,.84,1.59,3.83,3.83,0,0,0,2,.75.63.63,0,0,0,.74-.39c-.2-.14-.4-.3-.61-.43a.23.23,0,0,0-.2,0c-.19.11-.37.25-.55.36s-.15.06-.19,0l-.95-.64.27-.35.37.25c.33.23.33.23.66,0a.45.45,0,0,0,0-.75L17.18,11c.12-.16.23-.32.35-.46a.21.21,0,0,1,.15-.07h1.84a.22.22,0,0,1,.14.06L20,11c-.33.25-.63.5-.93.74a.45.45,0,0,0,0,.77l.16.1a.2.2,0,0,0,.29,0c.17-.14.36-.26.53-.38l.18.13a2.29,2.29,0,0,0,.47-.46A.74.74,0,0,1,21.35,11.42Zm-6.72,2.06a7.24,7.24,0,0,0-1.31,1.87A3.93,3.93,0,0,0,12.9,17a2.43,2.43,0,0,0,.36,1.4L15.35,18c-.32,0-.64-.05-.95-.07s-.51,0-.76-.06a.31.31,0,0,1-.23-.17c0-.06,0-.18.08-.26a1.33,1.33,0,0,1,.21-.19l-.11-.2a1.59,1.59,0,0,1,.47-.13,4.28,4.28,0,0,1,.95.15,10,10,0,0,1,1,.43.31.31,0,0,0,0-.13l-.57-1.18a4.59,4.59,0,0,1-.24-.5.18.18,0,0,1,.09-.17c.2-.06.41-.1.61-.15a.3.3,0,0,1,.36.15,2.62,2.62,0,0,0,.22.25l.06,0,.07-.7.71-.16,0-.08c-1.34-.78-2.51-.26-3.63.56l-.22-.24a11.67,11.67,0,0,1,1.23-.68A10.41,10.41,0,0,1,16,14.07ZM13.24,7c-.67-.82-.74-1.35-.27-1.9.6-.71,1.22-.77,2.16-.22l1.17-.77a2,2,0,0,0-1.79-.83,3.8,3.8,0,0,0-1.61.54A1.77,1.77,0,0,0,12,5.08a2.86,2.86,0,0,0,.78,2.29Zm9.17-1.88a4.87,4.87,0,0,1,.52-.32,1.48,1.48,0,0,1,1.84,1A1.19,1.19,0,0,1,24.42,7c-.05.06-.12.16-.1.22a1,1,0,0,0,.38.58,3.36,3.36,0,0,0,.7-2.35,1.23,1.23,0,0,0-.46-.85,4.26,4.26,0,0,0-2.15-1,1.53,1.53,0,0,0-1.51.76Zm-9,16.07.34-.48a6.64,6.64,0,0,1,2-2.12c.16-.09.17-.19.06-.34a12.33,12.33,0,0,0-3.45.67c.22.22.12.42.06.62s-.08.21-.11.32a.28.28,0,0,0,.11.33,1.26,1.26,0,0,1,.44.51.55.55,0,0,0,.38.4A1,1,0,0,1,13.39,21.22Zm16.77-8.46.06,0c.06-.29.11-.58.17-.86a.3.3,0,0,0-.17-.37A9,9,0,0,0,29,10.93c-.75-.2-1.52-.33-2.29-.47-.27-.05-.54-.08-.82-.11l0,.05c.26.33.51.67.78,1,0,0,.13,0,.2,0a1.74,1.74,0,0,1,.51,0,1.92,1.92,0,0,1,.66.36,1.76,1.76,0,0,0,1.05.44C29.45,12.28,29.9,12.3,30.16,12.76Zm-4.24,3.76a1,1,0,0,1-1.15.57,1.53,1.53,0,0,1-1.15-1.6,2.85,2.85,0,0,0-.14.63,1.44,1.44,0,0,0,.92,1.64,2.38,2.38,0,0,0,1.27.09.47.47,0,0,0,.32-.16A1,1,0,0,0,25.92,16.52Zm-4.23-5.18c.33.29.39.28.71,0a4.66,4.66,0,0,1,.76-.56.67.67,0,0,1,.67,0,.58.58,0,0,0,.66-.12c.15-.11.13-.19,0-.28a2.15,2.15,0,0,0-1.34-.28,1.38,1.38,0,0,0-1.26.94C21.82,11.11,21.75,11.22,21.69,11.34ZM24.33,14a2,2,0,0,0-1.51.59c-.59.51-.46,1.13-.29,1.76.4.05.48,0,.56-.41a4.87,4.87,0,0,1,.29-.89.71.71,0,0,1,.51-.41A.55.55,0,0,0,24.33,14Zm-1.26-2.75c-.23.25-.45.45-.63.69a1.43,1.43,0,0,0,.29,2.14.19.19,0,0,0,.27,0,2.21,2.21,0,0,1,1.27-.39l.05,0v-.18l-.09,0a1.08,1.08,0,0,1-1.49-1.24A6.73,6.73,0,0,1,23.07,11.23Zm2.5,4.13v.08a1.82,1.82,0,0,1,.92,2.09,2,2,0,0,0,.57-1.08,1.47,1.47,0,0,0-.09-1,.47.47,0,0,0-.53-.33C26.15,15.2,25.86,15.29,25.57,15.36Zm0-3.29a1.3,1.3,0,0,0-1.14-.89,1.39,1.39,0,0,0-1.19.76,1.08,1.08,0,0,0,.21,1l0-.13c-.15-.52,0-.82.56-.91a2.73,2.73,0,0,1,.7,0C25,12,25.26,12,25.57,12.07Zm.5,2.64a1.32,1.32,0,0,0-1.39-.08,1.21,1.21,0,0,0-.58,1.17,1,1,0,0,0,.82.83l-.16-.12a.61.61,0,0,1-.06-1,2.32,2.32,0,0,1,.54-.39C25.51,15,25.79,14.85,26.07,14.71ZM22,12a5.19,5.19,0,0,0-.51-.23A.32.32,0,0,0,21,12a3.33,3.33,0,0,0,0,.55,1.62,1.62,0,0,0,.86,1.49,2.63,2.63,0,0,0,.3.08,2.45,2.45,0,0,1-.55-1,.88.88,0,0,1,.2-1A2.4,2.4,0,0,0,22,12Zm1.16,4.71a5.91,5.91,0,0,0-.59.13c-.23.08-.3.26-.15.45a5.8,5.8,0,0,0,.72.84,1.41,1.41,0,0,0,1.17.31,1.21,1.21,0,0,0,.3-.11l0-.07a1.75,1.75,0,0,1-1.07-.43.81.81,0,0,1-.36-.78C23.13,16.93,23.12,16.84,23.12,16.68ZM22,18.53c.1.24.17.45.26.66a.24.24,0,0,0,.13.11,2.38,2.38,0,0,0,1.72-.53l-.92-.29-.1,0Zm7.23-2.85a1.64,1.64,0,0,0,.38-1.77.61.61,0,0,0-.28-.23,1.24,1.24,0,0,0-.89.21A1.56,1.56,0,0,1,29.19,15.68Zm-1.71-.27a1.19,1.19,0,0,0-.11-1.07.89.89,0,0,0-.72-.45,3.16,3.16,0,0,1-1.44-.35.19.19,0,0,0-.18,0,2.37,2.37,0,0,0-.19.35c.33,0,.64.06.93.12A1.91,1.91,0,0,1,27.48,15.41Zm-.1,2.42a.58.58,0,0,0-.67.15.91.91,0,0,1-.93.32,2,2,0,0,0-.42,0,.45.45,0,0,0-.23.08c-.16.12-.15.2,0,.28A1.81,1.81,0,0,0,27.38,17.83Zm-.91-5.35c.06,0,.17,0,.27-.08s.1-.1.09-.13a1.58,1.58,0,0,0-.23-.47c-.28-.34-.63-.63-.88-1s-.21-.38-.59-.16l-.05,0a7.37,7.37,0,0,1,.79.79A8.53,8.53,0,0,1,26.47,12.48Zm3.59,1.34A1,1,0,0,0,30,13a.81.81,0,0,0-.68-.46,5.16,5.16,0,0,1-1.1-.25c-.31-.1-.36-.1-.42.24C28.73,12.63,29.66,12.73,30.06,13.82Zm-4.32-.35c.15,0,.31,0,.45.09s.22,0,.31-.12a1,1,0,0,1,.39-.26.48.48,0,0,0,.37-.53A1.69,1.69,0,0,0,25.74,13.47Zm1.44.27.28.24,1.28-.74A1,1,0,0,0,27.18,13.74Zm-1.7-.45a1.38,1.38,0,0,1,.23-.27.17.17,0,0,0,0-.3,1.6,1.6,0,0,0-1-.36l.16.85ZM28,15.44h0l-.3.61c-.07.15-.13.3-.19.46s-.06.21-.1.32-.14.34-.21.52c.37,0,.55-.09.63-.41s.15-.62.2-.93A3.6,3.6,0,0,0,28,15.44Zm1.9.58a.41.41,0,0,0-.52.11.89.89,0,0,1-.88.3c-.31-.06-.31,0-.32.28A1.49,1.49,0,0,0,29.92,16ZM17,14.3a1.47,1.47,0,0,1,1,.86l.49-.79ZM28.35,16a1,1,0,0,0,.37-.16.84.84,0,0,0,0-1l-.37.35a.18.18,0,0,0,0,.11C28.31,15.57,28.33,15.78,28.35,16Zm2.18-2-.09,0-.64,1.59c.33,0,.44-.07.52-.34s.12-.49.17-.73A4,4,0,0,0,30.53,14Zm-3-1.6.25-.43a1.17,1.17,0,0,0-.78-.28,1.6,1.6,0,0,1,.11.33A.37.37,0,0,0,27.49,12.4Zm-3.4,0c-.1.11-.22.21-.21.23a2.51,2.51,0,0,0,.26.31c.05-.09.15-.18.16-.28S24.19,12.48,24.09,12.37Zm1.25,3.9c.07-.09.15-.16.14-.18a1.45,1.45,0,0,0-.19-.29L25,16Zm2.53-1.78.4,0c0-.09,0-.24-.1-.26S27.94,14.29,27.87,14.49Zm-2-2.08.25.28.05,0L26,12.06Zm.72,2.17v.27l.37.11,0,0Z"/><path d="M1.85,12.28c0,.45,0,.9,0,1.35,0,.1.12.2.18.29H1.53c.23-.07.25-.25.25-.45,0-.39,0-.77,0-1.16s0-.28-.3-.41a5,5,0,0,1,.56,0c.06,0,.12.09.14.15.17.39.33.79.49,1.19,0,.07.07.13.11.23.2-.47.4-.9.57-1.35a.3.3,0,0,1,.37-.23H4c-.26.06-.28.24-.28.44v1.12c0,.2,0,.39.26.45H3.19c.26-.07.25-.29.25-.5V12.26h0L2.64,14l-.75-1.68Z"/><path d="M32,12.28c0,.46,0,.92,0,1.38,0,.1.14.18.2.26h-.53c.25-.07.25-.28.25-.48,0-.37,0-.74,0-1.1,0-.2,0-.37-.26-.44h.44c.12,0,.17,0,.21.15.19.47.39.93.6,1.44.18-.44.36-.84.53-1.25s.14-.34.51-.34h.21c-.28.06-.28.27-.28.47,0,.38,0,.75,0,1.13s0,.28.29.42H33.3c.24-.07.26-.26.26-.46V12.26h-.05L32.76,14,32,12.27Z"/><path d="M6.4,11.93c.42,0,.8,0,1.17,0a.46.46,0,0,1,.46.42c0,.23-.08.4-.35.53a.09.09,0,0,0,0,0l.58,1s0,0,0,0c-.39,0-.39,0-.55-.33a4.17,4.17,0,0,0-.26-.46A.33.33,0,0,0,7,13c-.09.59,0,.81.31.95h-.1c-.26,0-.52,0-.8,0,.26-.05.28-.24.28-.44V12.35C6.7,12.16,6.68,12,6.4,11.93Zm.6,1a.55.55,0,0,0,.63-.22.48.48,0,0,0,0-.55A.56.56,0,0,0,7,12Z"/><path d="M10.26,13.93a.76.76,0,0,1-.26,0,.35.35,0,0,1-.2-.13c-.12-.21-.22-.43-.34-.63a.33.33,0,0,0-.4-.19c-.13.52,0,.82.27,1H8.48c.26-.09.26-.3.26-.51s0-.73,0-1.1c0-.19,0-.35-.25-.4.35,0,.7,0,1,0s.51.19.54.44-.09.41-.4.55l.28.53C10,13.6,10.15,13.76,10.26,13.93ZM9.05,12v1c.45,0,.69-.16.68-.49S9.48,11.91,9.05,12Z"/><path d="M36.17,13.39l0,.53H34.35c.31-.08.32-.3.32-.52s0-.67,0-1,0-.35-.27-.48H36l0,.39c-.21-.48-.62-.35-1-.36v.87c.32.06.41,0,.53-.31v.73c-.1-.3-.27-.41-.52-.35a4.19,4.19,0,0,0,0,.71.43.43,0,0,0,.26.27.63.63,0,0,0,.84-.4l0-.08Z"/><path d="M11.54,12.92l.1-.19,0,0c-.19.26-.11.54-.11.82s.06.23.3.33H11c.23-.05.27-.21.29-.42a1.18,1.18,0,0,0-.26-.85c-.11-.13-.2-.29-.31-.43s-.2-.21-.29-.31h.82c-.05,0-.15.1-.17.16a.43.43,0,0,0,.08.23C11.26,12.49,11.39,12.68,11.54,12.92Z"/><path d="M4.7,13.13l.5-1.29a2.54,2.54,0,0,1,.14.25c.2.48.39.95.6,1.42a2.14,2.14,0,0,0,.29.41H5.45c.06-.06.17-.11.19-.19a.47.47,0,0,0-.06-.3c-.13-.35-.13-.35-.51-.35ZM5.42,13l-.33-.77-.3.77Z"/><path d="M37.09,13.06a.77.77,0,0,0,.11-.85.55.55,0,0,0-.32-.26c-.14,0-.17.12-.21.23s-.08.06-.12.09-.07-.1-.06-.14a.2.2,0,0,1,.08-.14.54.54,0,0,1,.56,0,.67.67,0,0,1,.39.58.48.48,0,0,1-.26.47Z"/><path d="M12.35,11.91l-.57.71c0-.24.49-.45,0-.71Z"/><path d="M36.67,14c-.08-.13-.16-.2-.15-.26s.09-.13.14-.2.15.12.17.19S36.75,13.88,36.67,14Z"/><path d="M4.6,13.47c0,.31,0,.31.19.45H4.24Z"/><path d="M36.68,12.71l.11.27c-.22.06,0,.25-.14.37v-.64Z"/><path d="M15.8,9c0,.41-.24.7-.54.68a.62.62,0,0,1-.46-.74s0-.06,0-.09c.07-.3.26-.48.51-.47a.55.55,0,0,1,.47.52A.41.41,0,0,1,15.8,9Z"/><path d="M22.4,9c0,.41-.23.71-.52.7A.59.59,0,0,1,21.39,9a1,1,0,0,1,0-.17.54.54,0,0,1,.49-.47c.24,0,.42.18.49.47Z"/></g><g class="cls-3"><path d="M14.06,13c-.19-.17-.37-.32-.54-.49a4.52,4.52,0,0,1-1.2-2.69,8.71,8.71,0,0,1,0-2.28.36.36,0,0,0-.09-.24,3,3,0,0,1-.84-2.72,1.93,1.93,0,0,1,.83-1.16,3.8,3.8,0,0,1,2.17-.68,2.22,2.22,0,0,1,1.66.81.2.2,0,0,0,.25.07,6.42,6.42,0,0,1,4.15.19.25.25,0,0,0,.35-.07,1.93,1.93,0,0,1,2.08-.58A4.48,4.48,0,0,1,24.71,4a1.81,1.81,0,0,1,.63,1.86,3.66,3.66,0,0,1-.77,1.81s0,.12-.05.19c0,.59,0,1.18,0,1.77a2.42,2.42,0,0,0,0,.47h.09a.31.31,0,0,0,.05-.12c0-.22,0-.29.25-.28A9.1,9.1,0,0,1,26,9.78c.81.13,1.62.26,2.41.43a5.85,5.85,0,0,1,1.7.74.48.48,0,0,1,.26.53c-.07.41-.17.81-.25,1.22a3.63,3.63,0,0,0-.06.41c.32,0,.39.17.42.37a2.78,2.78,0,0,1-.28,1.66,4.58,4.58,0,0,1-.33.71,1.85,1.85,0,0,1-1.92.84h-.12l-.33.48a1.28,1.28,0,0,1-.1.38,2.17,2.17,0,0,1-1.49,1.11,2.07,2.07,0,0,1-1.18-.13,1.72,1.72,0,0,1-.37-.28s-.12.06-.17.12a2,2,0,0,1-.92.68.26.26,0,0,0-.12.4A4.77,4.77,0,0,1,24,21.82c.05.34.08.68.12,1H23.8a7.61,7.61,0,0,0-.71-3c-.08.48-.13.92-.24,1.35s-.27.84-.41,1.27c.2,0,0,.21.09.35h-.68a6.2,6.2,0,0,0,.93-3.62,3.19,3.19,0,0,1-.82,0,3.73,3.73,0,0,1-1.63-.89A.5.5,0,0,0,20,18.2a12.44,12.44,0,0,1-2.85-.31c-.08,0-.18.06-.26.09.16.18.29.31.4.46s.41.59.61.88a.21.21,0,0,1,0,.34c-.17.11-.37.18-.44.41a.29.29,0,0,1-.19,0,1.82,1.82,0,0,1-.8-1.35.18.18,0,0,0-.06-.13.88.88,0,0,0-.12.21c-.09.25-.15.51-.25.76a1.38,1.38,0,0,1-.85.95h-.09c0-.17-.13-.17-.28-.15a.4.4,0,0,1-.33-.11c0-.07,0-.24.06-.33s.32-.41.49-.62a.56.56,0,0,0-.59.22,1.18,1.18,0,0,0-.28,1.16A5.6,5.6,0,0,0,15,22.85h-.51l-.73-2.45a2,2,0,0,0-.26.5c-.13.64-.24,1.29-.36,2h-.24L13,21.58h0l-.35.51h0c.09-.26.17-.52.27-.77s0-.22-.11-.26L12.55,21a.34.34,0,0,1-.29-.37c0-.27-.26-.42-.46-.55a.31.31,0,0,1-.16-.38,1.57,1.57,0,0,1,0-.23,1,1,0,0,0,.06-.81c-.06-.16,0-.23.16-.27l.73-.24a3,3,0,0,1-.31-2A4.44,4.44,0,0,1,13,14.41c.29-.45.63-.88.95-1.31ZM24.17,9.67a6.72,6.72,0,0,0,.06-1.79.52.52,0,0,0-.13-.24,1.34,1.34,0,0,1-.43-.86.56.56,0,0,0-.09-.21,5.34,5.34,0,0,0-1.66-1.51,11.91,11.91,0,0,1-1.15-.75c-.09-.07-.15-.19-.25-.23a6.08,6.08,0,0,0-4.12-.23.7.7,0,0,0-.17.09,6.55,6.55,0,0,1-1.54.94l-.09.06a7.26,7.26,0,0,0-1.27,1.49c-.13.24-.21.51-.47.66a.51.51,0,0,0-.19.3,7.78,7.78,0,0,0,0,2.68,4,4,0,0,0,2.2,3,6.43,6.43,0,0,0,3.37.62c.07,0,.14-.07.21-.11-.37-.07-.71-.1-1-.19a2.77,2.77,0,0,1-2.34-2.93,2.44,2.44,0,0,1,1.58-2.31,4.24,4.24,0,0,1,3.28.05,2.35,2.35,0,0,1,1.39,1.5,3,3,0,0,1,.11.43A2.22,2.22,0,0,1,24.17,9.67ZM20.31,12l-.12.09A11.27,11.27,0,0,0,17,17a.47.47,0,0,0,.39.7c.24.06.49.1.74.14a21.9,21.9,0,0,0,3.53.12l.72-.05c-.19-.27-.39-.52-.57-.78a.53.53,0,0,1,0-.68.33.33,0,0,0,0-.14c0-.24,0-.48,0-.72,0-.42-.06-.84-.08-1.26,0-.13,0-.17-.15-.22a1.73,1.73,0,0,1-1.16-1.34A6.75,6.75,0,0,1,20.31,12Zm.7-.93a2,2,0,0,0,.15-.51A2.22,2.22,0,0,0,19.7,8.42a4,4,0,0,0-2.18-.2,2.47,2.47,0,0,0-1.71.91,2.53,2.53,0,0,0-.43,1.81,2.12,2.12,0,0,0,.84,1.59,3.83,3.83,0,0,0,2,.75.63.63,0,0,0,.74-.39c-.2-.14-.4-.3-.61-.43a.23.23,0,0,0-.2,0c-.19.11-.37.25-.55.36s-.15.06-.19,0l-.95-.64.27-.35.37.25c.33.23.33.23.66,0a.45.45,0,0,0,0-.75l-.94-.76c.12-.16.23-.32.35-.46a.21.21,0,0,1,.14-.07h1.85a.22.22,0,0,1,.14.06l.31.49c-.33.25-.63.5-.93.74a.45.45,0,0,0,0,.77l.16.1a.2.2,0,0,0,.29,0c.17-.14.36-.26.53-.38l.18.13c.16-.16.37-.28.47-.46A.74.74,0,0,1,21,11.08Zm-6.72,2.06A7.07,7.07,0,0,0,13,15a3.93,3.93,0,0,0-.42,1.61,2.43,2.43,0,0,0,.36,1.4L15,17.64c-.32,0-.64-.05-.95-.07s-.51,0-.76-.06a.31.31,0,0,1-.23-.17c0-.06,0-.18.08-.26a1.33,1.33,0,0,1,.21-.19l-.11-.2a1.59,1.59,0,0,1,.47-.13,4.28,4.28,0,0,1,.95.15,10,10,0,0,1,1,.43.31.31,0,0,0,0-.13l-.57-1.18a4.59,4.59,0,0,1-.24-.5.18.18,0,0,1,.09-.17c.2-.06.41-.1.61-.15a.3.3,0,0,1,.36.15,2.62,2.62,0,0,0,.22.25l.06,0,.07-.7.71-.16,0-.08c-1.34-.78-2.51-.26-3.63.56l-.22-.24a11.67,11.67,0,0,1,1.23-.68,10.41,10.41,0,0,1,1.25-.35ZM12.9,6.69c-.67-.82-.74-1.35-.27-1.9.6-.71,1.22-.77,2.16-.22L16,3.8A2,2,0,0,0,14.17,3a3.8,3.8,0,0,0-1.61.54,1.77,1.77,0,0,0-.88,1.23A2.86,2.86,0,0,0,12.46,7Zm9.17-1.88a4.87,4.87,0,0,1,.52-.32,1.48,1.48,0,0,1,1.84,1,1.19,1.19,0,0,1-.35,1.14c0,.06-.12.16-.1.22a1,1,0,0,0,.38.58,3.36,3.36,0,0,0,.7-2.35,1.23,1.23,0,0,0-.46-.85,4.26,4.26,0,0,0-2.15-1,1.53,1.53,0,0,0-1.51.76Zm-9,16.07c.12-.17.22-.33.34-.48a6.64,6.64,0,0,1,2-2.12c.16-.09.17-.19.06-.34a12.33,12.33,0,0,0-3.45.67c.22.22.12.42.05.62s-.07.21-.1.32a.28.28,0,0,0,.11.33,1.26,1.26,0,0,1,.44.51.55.55,0,0,0,.38.4A1,1,0,0,1,13.05,20.88Zm16.77-8.46.06,0c.06-.29.11-.58.17-.86a.3.3,0,0,0-.17-.37,9,9,0,0,0-1.27-.58c-.75-.2-1.52-.33-2.29-.47-.27,0-.54-.08-.82-.11l0,.05c.26.33.51.67.78,1,0,0,.13,0,.2,0a2.15,2.15,0,0,1,.51,0,1.92,1.92,0,0,1,.66.36,1.76,1.76,0,0,0,1.05.44C29.11,11.94,29.56,12,29.82,12.42Zm-4.24,3.76a1,1,0,0,1-1.15.57,1.53,1.53,0,0,1-1.15-1.6,2.85,2.85,0,0,0-.14.63,1.44,1.44,0,0,0,.92,1.64,2.38,2.38,0,0,0,1.27.09.47.47,0,0,0,.32-.16A1,1,0,0,0,25.58,16.18ZM21.35,11c.33.29.39.28.71,0a4.66,4.66,0,0,1,.76-.56.67.67,0,0,1,.67,0,.58.58,0,0,0,.66-.12c.15-.11.13-.19,0-.28a2.15,2.15,0,0,0-1.34-.28,1.38,1.38,0,0,0-1.26.94C21.48,10.77,21.41,10.88,21.35,11ZM24,13.64a2,2,0,0,0-1.51.59c-.59.51-.46,1.13-.29,1.76.4,0,.47,0,.56-.41a4.87,4.87,0,0,1,.29-.89.71.71,0,0,1,.51-.41A.55.55,0,0,0,24,13.64Zm-1.26-2.75c-.23.25-.45.45-.63.69a1.43,1.43,0,0,0,.29,2.14.19.19,0,0,0,.27,0,2.21,2.21,0,0,1,1.27-.39l.05,0v-.18l-.09,0a1.08,1.08,0,0,1-1.49-1.24A5.78,5.78,0,0,1,22.73,10.89ZM25.23,15v.08a1.82,1.82,0,0,1,.92,2.09,2,2,0,0,0,.57-1.08,1.47,1.47,0,0,0-.09-1,.47.47,0,0,0-.53-.33C25.81,14.86,25.52,15,25.23,15Zm0-3.29a1.3,1.3,0,0,0-1.14-.89,1.39,1.39,0,0,0-1.19.76,1.08,1.08,0,0,0,.21,1l0-.13c-.15-.52,0-.82.56-.91a2.73,2.73,0,0,1,.7,0C24.63,11.61,24.92,11.68,25.23,11.73Zm.5,2.64a1.32,1.32,0,0,0-1.39-.08,1.21,1.21,0,0,0-.58,1.17,1,1,0,0,0,.82.83l-.16-.12a.61.61,0,0,1-.06-1,2.32,2.32,0,0,1,.54-.39C25.17,14.62,25.45,14.51,25.73,14.37Zm-4.11-2.74a5.19,5.19,0,0,0-.51-.23.32.32,0,0,0-.46.29,3.33,3.33,0,0,0,0,.55,1.62,1.62,0,0,0,.86,1.49,2.63,2.63,0,0,0,.3.08,2.45,2.45,0,0,1-.55-1,.88.88,0,0,1,.2-1A2.4,2.4,0,0,0,21.62,11.63Zm1.16,4.71c-.22.05-.42.07-.6.13a.27.27,0,0,0-.15.45,6.57,6.57,0,0,0,.73.84,1.41,1.41,0,0,0,1.17.31,1.21,1.21,0,0,0,.3-.11l0-.07a1.75,1.75,0,0,1-1.07-.43.81.81,0,0,1-.36-.78C22.79,16.59,22.78,16.5,22.78,16.34Zm-1.16,1.85c.1.24.17.45.26.65A.22.22,0,0,0,22,19a2.38,2.38,0,0,0,1.72-.53l-.92-.29-.1,0Zm7.23-2.85a1.62,1.62,0,0,0,.37-1.77.5.5,0,0,0-.27-.23,1.24,1.24,0,0,0-.89.21A1.56,1.56,0,0,1,28.85,15.34Zm-1.71-.27A1.19,1.19,0,0,0,27,14a.89.89,0,0,0-.72-.45,3.16,3.16,0,0,1-1.44-.35.19.19,0,0,0-.18,0,2.37,2.37,0,0,0-.19.35c.33,0,.64.06.93.12A1.91,1.91,0,0,1,27.14,15.07ZM27,17.49a.58.58,0,0,0-.67.15.91.91,0,0,1-.93.32,2,2,0,0,0-.42,0,.45.45,0,0,0-.23.08c-.16.12-.15.2,0,.28A1.81,1.81,0,0,0,27,17.49Zm-.91-5.35c.06,0,.17,0,.27-.08s.1-.1.09-.13a1.58,1.58,0,0,0-.23-.47c-.28-.34-.63-.63-.88-1s-.21-.38-.59-.16l-.05,0a7.37,7.37,0,0,1,.79.79A8.53,8.53,0,0,1,26.13,12.14Zm3.59,1.34a1,1,0,0,0-.07-.8.81.81,0,0,0-.68-.46A5.39,5.39,0,0,1,27.86,12c-.3-.1-.36-.1-.41.24C28.39,12.29,29.32,12.39,29.72,13.48Zm-4.32-.35c.15,0,.31,0,.45.09s.22,0,.31-.12a1,1,0,0,1,.39-.26.48.48,0,0,0,.37-.53A1.69,1.69,0,0,0,25.4,13.13Zm1.44.27.28.24,1.27-.74A1,1,0,0,0,26.84,13.4ZM25.14,13a1.38,1.38,0,0,1,.23-.27.17.17,0,0,0,0-.3,1.6,1.6,0,0,0-1-.36l.16.85Zm2.54,2.15h0l-.3.61c-.07.15-.13.3-.19.46s-.06.21-.1.32-.14.34-.21.52c.37,0,.55-.09.63-.41s.15-.62.2-.93A3.6,3.6,0,0,0,27.68,15.1Zm1.9.58a.41.41,0,0,0-.52.11.89.89,0,0,1-.88.3c-.31-.06-.31,0-.32.28A1.49,1.49,0,0,0,29.58,15.68ZM16.65,14a1.47,1.47,0,0,1,1,.86L18.1,14ZM28,15.7a1,1,0,0,0,.37-.16.84.84,0,0,0,0-1l-.37.35A.18.18,0,0,0,28,15C28,15.23,28,15.44,28,15.7Zm2.18-2-.09,0-.64,1.59c.33,0,.44-.07.52-.34s.12-.49.17-.73A4,4,0,0,0,30.19,13.66Zm-3-1.6.25-.43a1.12,1.12,0,0,0-.78-.28,1.6,1.6,0,0,1,.11.33A.36.36,0,0,0,27.15,12.06Zm-3.4,0c-.1.11-.22.21-.21.23a2.51,2.51,0,0,0,.26.31c.05-.09.15-.18.16-.28S23.85,12.14,23.75,12ZM25,15.93c.07-.09.15-.16.14-.18a1.45,1.45,0,0,0-.19-.29l-.28.2Zm2.53-1.78.4,0c0-.09,0-.24-.1-.26S27.6,14,27.53,14.15Zm-2-2.08.25.28.05,0-.18-.61Zm.72,2.17v.27l.37.11,0,0Z"/><path d="M1.51,11.94c0,.45,0,.9,0,1.35,0,.1.12.2.18.29H1.19c.23-.07.25-.25.25-.45,0-.39,0-.77,0-1.16s0-.28-.3-.41a5,5,0,0,1,.56,0c.06,0,.12.08.14.15.17.39.33.79.49,1.19,0,.07.07.13.11.23.2-.47.4-.9.57-1.35a.3.3,0,0,1,.37-.23h.31c-.26.06-.28.24-.28.44v1.12c0,.2,0,.39.26.45H2.85c.26-.07.25-.29.25-.5V11.92H3.05l-.75,1.7-.75-1.68Z"/><path d="M31.63,11.94c0,.46,0,.92,0,1.38,0,.1.14.18.2.26h-.53c.25-.07.25-.28.25-.48,0-.37,0-.74,0-1.1,0-.2,0-.37-.26-.44h.44c.12,0,.17,0,.21.15.19.47.39.93.6,1.44.18-.44.36-.84.53-1.25s.14-.34.51-.34h.21c-.28.06-.28.27-.28.47,0,.38,0,.75,0,1.13s0,.28.29.42H33c.24-.07.26-.26.26-.46V11.92h0l-.75,1.7-.75-1.68Z"/><path d="M6.06,11.59c.42,0,.8,0,1.17,0a.46.46,0,0,1,.46.42c0,.23-.08.4-.35.52l0,0,.58,1s0,0,0,0c-.39,0-.39,0-.55-.33a4.17,4.17,0,0,0-.26-.46.33.33,0,0,0-.4-.16c-.09.59,0,.81.31.95h-.1c-.26,0-.52,0-.8,0,.26-.05.28-.24.28-.44V12C6.36,11.82,6.34,11.63,6.06,11.59Zm.6,1a.55.55,0,0,0,.63-.22.48.48,0,0,0,0-.55.56.56,0,0,0-.6-.18Z"/><path d="M9.92,13.59a.83.83,0,0,1-.27,0,.36.36,0,0,1-.19-.13c-.12-.21-.22-.43-.34-.63a.33.33,0,0,0-.4-.19c-.13.52,0,.82.27,1H8.14c.26-.09.26-.3.26-.51,0-.36,0-.73,0-1.1,0-.19,0-.35-.25-.4.35,0,.7,0,1,0s.51.19.54.44-.09.41-.4.55l.28.53C9.7,13.26,9.81,13.42,9.92,13.59Zm-1.21-2v1c.45,0,.69-.16.68-.49S9.14,11.57,8.71,11.61Z"/><path d="M35.83,13.05l0,.53H34c.31-.08.32-.3.32-.52s0-.67,0-1,0-.35-.27-.48h1.55l0,.39c-.21-.48-.62-.35-1-.36v.87c.32.06.41,0,.53-.31v.73c-.1-.3-.27-.41-.52-.35a4.19,4.19,0,0,0,0,.71.43.43,0,0,0,.26.27.63.63,0,0,0,.84-.4l0-.08Z"/><path d="M11.2,12.58l.1-.19,0,0c-.19.26-.11.54-.11.82s.06.23.3.33h-.89c.23-.05.27-.21.29-.42a1.18,1.18,0,0,0-.26-.85c-.11-.13-.2-.29-.31-.43s-.2-.21-.29-.31h.82c-.05,0-.15.1-.17.16a.43.43,0,0,0,.08.23C10.92,12.15,11.05,12.34,11.2,12.58Z"/><path d="M4.36,12.79l.5-1.29a2.54,2.54,0,0,1,.14.25c.2.48.39.95.6,1.42a2.14,2.14,0,0,0,.29.41H5.11c.06-.06.17-.11.19-.19a.47.47,0,0,0-.06-.3c-.13-.35-.13-.35-.51-.35Zm.72-.09-.33-.77-.3.77Z"/><path d="M36.75,12.72a.77.77,0,0,0,.11-.85.55.55,0,0,0-.32-.26c-.14,0-.17.12-.21.23s-.08.06-.12.09-.07-.1-.06-.14a.2.2,0,0,1,.08-.14.54.54,0,0,1,.56,0,.66.66,0,0,1,.39.58.48.48,0,0,1-.26.47Z"/><path d="M12,11.57l-.57.71c0-.24.49-.45,0-.71Z"/><path d="M36.33,13.67c-.08-.13-.16-.2-.15-.26s.09-.13.14-.2.15.12.17.19S36.41,13.54,36.33,13.67Z"/><path d="M4.26,13.13c0,.31,0,.31.19.45H3.9Z"/><path d="M36.34,12.37l.11.27c-.22.06-.05.25-.14.37v-.64Z"/><path d="M15.46,8.65c0,.41-.24.7-.54.68a.62.62,0,0,1-.46-.74s0-.06,0-.09A.51.51,0,0,1,15,8a.55.55,0,0,1,.47.52A.41.41,0,0,1,15.46,8.65Z"/><path d="M22.06,8.63c0,.41-.23.71-.52.7a.59.59,0,0,1-.49-.66,1,1,0,0,1,0-.17A.54.54,0,0,1,21.55,8c.24,0,.42.18.49.47C22.05,8.56,22.06,8.62,22.06,8.63Z"/></g><path class="cls-4" d="M14.25,13.15c-.18-.17-.36-.32-.53-.49A4.55,4.55,0,0,1,12.52,10a9.16,9.16,0,0,1,0-2.28.39.39,0,0,0-.08-.25,3,3,0,0,1-.84-2.71,2,2,0,0,1,.83-1.17,3.86,3.86,0,0,1,2.17-.67,2.25,2.25,0,0,1,1.66.81.2.2,0,0,0,.25.07A6.42,6.42,0,0,1,20.69,4c.14,0,.23.07.35-.07a1.91,1.91,0,0,1,2.08-.58,4.67,4.67,0,0,1,1.79.87,1.85,1.85,0,0,1,.63,1.87,3.67,3.67,0,0,1-.77,1.8.33.33,0,0,0-.05.2c0,.59,0,1.18,0,1.77a3.75,3.75,0,0,0,0,.47h.09s.05-.08,0-.13c0-.21,0-.28.26-.27a9.1,9.1,0,0,1,1.05.08c.81.13,1.62.26,2.41.43a5.85,5.85,0,0,1,1.7.74.48.48,0,0,1,.26.53c-.07.4-.17.81-.25,1.21a4.23,4.23,0,0,0-.06.42c.32,0,.39.17.42.37a2.79,2.79,0,0,1-.28,1.66,5.05,5.05,0,0,1-.33.71,1.88,1.88,0,0,1-1.92.84H28l-.33.48a1.12,1.12,0,0,1-.1.37,2.16,2.16,0,0,1-1.49,1.12,2.1,2.1,0,0,1-1.19-.13,2,2,0,0,1-.36-.28s-.13.06-.17.12a2.08,2.08,0,0,1-.92.68.26.26,0,0,0-.12.4A4.87,4.87,0,0,1,24.17,22c0,.33.08.68.12,1H24a7.44,7.44,0,0,0-.72-3c-.08.48-.12.92-.23,1.35s-.27.84-.42,1.27c.21,0,.06.21.09.34h-.67A6.23,6.23,0,0,0,23,19.44a3.19,3.19,0,0,1-.82,0,3.84,3.84,0,0,1-1.63-.89.42.42,0,0,0-.33-.14,12.38,12.38,0,0,1-2.85-.31c-.08,0-.18.06-.26.09.15.18.29.31.4.45.21.29.41.6.61.89a.21.21,0,0,1-.06.34c-.16.11-.37.18-.43.41a.38.38,0,0,1-.19,0,1.84,1.84,0,0,1-.8-1.36s0-.06-.06-.12a1.06,1.06,0,0,0-.12.2c-.09.26-.15.52-.25.77a1.41,1.41,0,0,1-.86.95h-.08c0-.17-.13-.17-.28-.15a.4.4,0,0,1-.33-.11c-.05-.07,0-.24.06-.34s.32-.4.49-.61a.56.56,0,0,0-.59.22,1.18,1.18,0,0,0-.28,1.16,5.45,5.45,0,0,0,.84,2.19h-.51l-.73-2.46a2.23,2.23,0,0,0-.26.51c-.13.64-.24,1.28-.36,1.95h-.24l.13-1.27,0,0-.35.52,0,0c.09-.25.17-.51.27-.77s0-.21-.11-.25l-.2-.08a.34.34,0,0,1-.28-.37c0-.28-.26-.42-.46-.55a.31.31,0,0,1-.16-.38.85.85,0,0,1,0-.23,1,1,0,0,0,.06-.81c-.06-.16,0-.23.16-.27l.73-.24a2.91,2.91,0,0,1-.31-2,4.43,4.43,0,0,1,.65-1.68c.3-.46.64-.88,1-1.31ZM24.37,9.86a6.66,6.66,0,0,0,.06-1.78.52.52,0,0,0-.13-.24A1.41,1.41,0,0,1,23.86,7a.42.42,0,0,0-.08-.21,5.34,5.34,0,0,0-1.66-1.51A10.79,10.79,0,0,1,21,4.51c-.09-.07-.15-.19-.26-.23a6.05,6.05,0,0,0-4.11-.23l-.17.08a6.12,6.12,0,0,1-1.55.94s-.05,0-.08.07a7,7,0,0,0-1.27,1.49c-.13.23-.21.51-.47.66a.51.51,0,0,0-.19.3,8,8,0,0,0,0,2.67,4,4,0,0,0,2.21,3,6.43,6.43,0,0,0,3.37.62c.07,0,.14-.07.21-.11-.37-.07-.71-.1-1-.19a2.77,2.77,0,0,1-2.34-2.93,2.43,2.43,0,0,1,1.58-2.31,4.29,4.29,0,0,1,3.28,0,2.42,2.42,0,0,1,1.39,1.51c.05.14.07.28.11.43A2.22,2.22,0,0,1,24.37,9.86ZM20.5,12.21l-.11.09a11.27,11.27,0,0,0-3.21,4.85c-.13.38,0,.61.38.7s.5.1.75.13a20.81,20.81,0,0,0,3.53.12c.24,0,.48,0,.72,0-.2-.27-.39-.52-.57-.78a.56.56,0,0,1,0-.69.19.19,0,0,0,.05-.13c0-.24,0-.48-.05-.72,0-.42,0-.84-.07-1.27a.2.2,0,0,0-.15-.21,1.74,1.74,0,0,1-1.16-1.34C20.56,12.7,20.54,12.47,20.5,12.21Zm.7-.93a1.67,1.67,0,0,0,.16-.51A2.21,2.21,0,0,0,19.9,8.62a4,4,0,0,0-2.18-.2A2.47,2.47,0,0,0,16,9.33a2.53,2.53,0,0,0-.44,1.81,2.17,2.17,0,0,0,.85,1.59,3.83,3.83,0,0,0,2,.75.63.63,0,0,0,.74-.39c-.2-.14-.4-.3-.62-.43a.23.23,0,0,0-.2,0L17.8,13c-.05,0-.15.06-.19,0-.32-.2-.63-.42-.95-.64l.27-.36.37.26c.33.23.33.23.66,0a.45.45,0,0,0,0-.75L17,10.81c.13-.16.24-.32.36-.46a.21.21,0,0,1,.14-.07h1.85a.25.25,0,0,1,.14.06l.3.49-.92.74a.43.43,0,0,0,0,.76c.05,0,.11.07.15.11a.21.21,0,0,0,.3,0,6.42,6.42,0,0,1,.53-.38l.17.13a2.35,2.35,0,0,0,.48-.46A.72.72,0,0,1,21.2,11.28Zm-6.72,2.06a7.27,7.27,0,0,0-1.3,1.87,3.75,3.75,0,0,0-.43,1.6,2.53,2.53,0,0,0,.37,1.41l2.08-.38c-.31,0-.63-.06-.94-.07s-.51,0-.76-.06a.35.35,0,0,1-.24-.17c0-.06,0-.18.09-.26a1.33,1.33,0,0,1,.21-.19l-.11-.2a1.52,1.52,0,0,1,.47-.13,4.28,4.28,0,0,1,.95.15c.35.11.67.28,1,.43a.31.31,0,0,0,0-.13L15.33,16c-.08-.17-.18-.33-.25-.5s.05-.16.1-.17c.2-.06.41-.1.61-.15a.3.3,0,0,1,.36.15,2.62,2.62,0,0,0,.22.25l.06,0,.07-.7.71-.16,0-.08c-1.35-.78-2.51-.26-3.63.55L13.34,15a10.11,10.11,0,0,1,1.23-.68,10.41,10.41,0,0,1,1.25-.35ZM13.09,6.89c-.66-.83-.73-1.35-.26-1.91S14,4.22,15,4.76L16.16,4a2,2,0,0,0-1.79-.83,3.67,3.67,0,0,0-1.61.54,1.79,1.79,0,0,0-.89,1.23,2.84,2.84,0,0,0,.79,2.29ZM22.27,5a3.46,3.46,0,0,1,.52-.32,1.48,1.48,0,0,1,1.84,1,1.19,1.19,0,0,1-.35,1.14c-.05.06-.12.16-.11.22a1,1,0,0,0,.39.58,3.36,3.36,0,0,0,.7-2.35,1.23,1.23,0,0,0-.46-.85,4.21,4.21,0,0,0-2.15-1,1.52,1.52,0,0,0-1.51.76Zm-9,16.07.33-.48a6.86,6.86,0,0,1,2-2.12c.16-.09.18-.19.07-.34a12.26,12.26,0,0,0-3.45.67c.22.22.12.42.05.62s-.07.21-.1.32a.27.27,0,0,0,.11.32,1.35,1.35,0,0,1,.44.52.53.53,0,0,0,.38.4ZM30,12.62l.06,0c.05-.29.11-.58.16-.87a.28.28,0,0,0-.17-.36,7.93,7.93,0,0,0-1.26-.58c-.75-.2-1.52-.33-2.29-.47-.27-.06-.54-.08-.82-.12l0,.06c.26.33.51.67.78,1,0,0,.13,0,.2,0a2.15,2.15,0,0,1,.51,0,1.92,1.92,0,0,1,.66.36,1.73,1.73,0,0,0,1.05.44C29.31,12.14,29.75,12.16,30,12.62Zm-4.24,3.76a1,1,0,0,1-1.15.57,1.54,1.54,0,0,1-1.15-1.61,3.83,3.83,0,0,0-.15.63,1.46,1.46,0,0,0,.93,1.65,2.49,2.49,0,0,0,1.27.09.49.49,0,0,0,.32-.16A1,1,0,0,0,25.78,16.38ZM21.55,11.2c.33.29.39.27.71,0a4.66,4.66,0,0,1,.76-.56.67.67,0,0,1,.67-.05.58.58,0,0,0,.66-.12c.15-.11.13-.19,0-.28A2.15,2.15,0,0,0,23,9.91a1.38,1.38,0,0,0-1.26.93C21.68,11,21.61,11.08,21.55,11.2Zm2.64,2.64a2,2,0,0,0-1.52.59c-.58.51-.45,1.13-.28,1.76.4,0,.47,0,.56-.41a4.41,4.41,0,0,1,.29-.89.69.69,0,0,1,.51-.41A.56.56,0,0,0,24.19,13.84Zm-1.26-2.75c-.23.25-.45.45-.63.69a1.42,1.42,0,0,0,.29,2.13.18.18,0,0,0,.27,0,2.3,2.3,0,0,1,1.27-.4l.05,0v-.18l-.09,0a1.08,1.08,0,0,1-1.49-1.24A5.78,5.78,0,0,1,22.93,11.09Zm2.5,4.13v.08a1.82,1.82,0,0,1,.92,2.09,2.11,2.11,0,0,0,.57-1.08,1.47,1.47,0,0,0-.09-1A.48.48,0,0,0,26.3,15C26,15.06,25.72,15.15,25.43,15.22Zm0-3.29A1.31,1.31,0,0,0,24.28,11a1.37,1.37,0,0,0-1.18.76,1.06,1.06,0,0,0,.21,1,.5.5,0,0,0,0-.13c-.14-.52,0-.83.57-.91a2.73,2.73,0,0,1,.7,0C24.83,11.81,25.12,11.88,25.43,11.93Zm.5,2.64a1.32,1.32,0,0,0-1.39-.08A1.21,1.21,0,0,0,24,15.66a1,1,0,0,0,.82.83l-.16-.12a.6.6,0,0,1-.06-1,2.7,2.7,0,0,1,.54-.4C25.36,14.82,25.65,14.7,25.93,14.57Zm-4.11-2.75c-.2-.08-.35-.17-.52-.22s-.41,0-.45.29a3.25,3.25,0,0,0,0,.54,1.6,1.6,0,0,0,.86,1.49A1.49,1.49,0,0,0,22,14a2.41,2.41,0,0,1-.55-1,.88.88,0,0,1,.19-1A1.6,1.6,0,0,0,21.82,11.82ZM23,16.54a3.33,3.33,0,0,0-.6.13.27.27,0,0,0-.15.45A5.87,5.87,0,0,0,23,18a1.41,1.41,0,0,0,1.17.31,1.82,1.82,0,0,0,.3-.11l0-.07a1.75,1.75,0,0,1-1.07-.43.81.81,0,0,1-.36-.78C23,16.79,23,16.7,23,16.54Zm-1.16,1.85c.09.24.17.45.26.65a.23.23,0,0,0,.12.12,2.36,2.36,0,0,0,1.73-.54L23,18.34l-.1,0Zm7.23-2.85a1.64,1.64,0,0,0,.37-1.77.49.49,0,0,0-.28-.23,1.26,1.26,0,0,0-.89.21A1.55,1.55,0,0,1,29.05,15.54Zm-1.71-.27a1.19,1.19,0,0,0-.11-1.07.89.89,0,0,0-.72-.45,3.16,3.16,0,0,1-1.44-.35.19.19,0,0,0-.18,0,2.91,2.91,0,0,0-.2.35c.34,0,.64.06.94.12A1.91,1.91,0,0,1,27.34,15.27Zm-.11,2.42a.57.57,0,0,0-.67.15.89.89,0,0,1-.92.32,2,2,0,0,0-.42,0,.38.38,0,0,0-.23.08c-.17.12-.15.2,0,.28A1.79,1.79,0,0,0,27.23,17.69Zm-.9-5.35c.05,0,.17,0,.27-.08s.1-.1.09-.13a1.58,1.58,0,0,0-.23-.47c-.29-.34-.63-.63-.88-1s-.21-.38-.59-.16l0,0a8.5,8.5,0,0,1,.79.8A8.53,8.53,0,0,1,26.33,12.34Zm3.59,1.33a1,1,0,0,0-.08-.79.8.8,0,0,0-.67-.46,5.25,5.25,0,0,1-1.11-.25c-.31-.11-.36-.11-.41.24C28.59,12.49,29.51,12.59,29.92,13.67Zm-4.32-.34.45.09a.25.25,0,0,0,.31-.12,1.09,1.09,0,0,1,.39-.27.47.47,0,0,0,.37-.52A1.66,1.66,0,0,0,25.6,13.33ZM27,13.6l.28.24,1.27-.74A1,1,0,0,0,27,13.6Zm-1.7-.45a1.74,1.74,0,0,1,.22-.27c.13-.11.1-.21,0-.3a1.6,1.6,0,0,0-1-.36l.16.85Zm2.54,2.15h0l-.3.61a4.32,4.32,0,0,0-.19.45c0,.11-.06.22-.1.32l-.21.53c.37,0,.54-.09.63-.42a9.4,9.4,0,0,0,.2-.92A3.62,3.62,0,0,0,27.88,15.3Zm1.9.57a.44.44,0,0,0-.53.12.87.87,0,0,1-.87.3c-.31-.06-.31-.05-.32.28A1.48,1.48,0,0,0,29.78,15.87ZM16.85,14.16a1.49,1.49,0,0,1,1,.86l.49-.79ZM28.2,15.9a1,1,0,0,0,.38-.16.84.84,0,0,0,0-1l-.37.34a.25.25,0,0,0,0,.11C28.16,15.43,28.18,15.64,28.2,15.9Zm2.19-2.05-.09,0-.64,1.58c.33,0,.44-.07.52-.33s.12-.49.17-.74S30.38,14,30.39,13.85Zm-3-1.59.25-.43a1.18,1.18,0,0,0-.78-.29,1.9,1.9,0,0,1,.11.34A.36.36,0,0,0,27.35,12.26Zm-3.4,0c-.1.11-.22.2-.21.23a3.76,3.76,0,0,0,.25.31c.06-.09.16-.18.17-.28S24,12.34,24,12.23Zm1.24,3.89c.07-.08.16-.15.15-.17a1.89,1.89,0,0,0-.19-.3l-.28.21Zm2.54-1.77.4,0c0-.09-.05-.24-.11-.26S27.8,14.15,27.73,14.35Zm-2-2.09.24.29.06,0-.18-.61Zm.72,2.18v.27l.37.11,0,0Z"/><path class="cls-4" d="M1.71,12.14c0,.45,0,.9,0,1.35,0,.1.12.2.18.28H1.38c.24-.06.26-.24.26-.44,0-.39,0-.78,0-1.16s0-.28-.3-.41a5,5,0,0,1,.56,0c.05,0,.12.08.14.14.17.4.33.8.49,1.2,0,.06.07.13.11.23.2-.47.39-.9.57-1.35a.32.32,0,0,1,.37-.24,2.69,2.69,0,0,0,.31,0c-.26.06-.28.24-.28.44v1.12c0,.2,0,.39.26.45H3c.27-.07.26-.29.26-.5V12.12l0,0-.76,1.71-.74-1.68Z"/><path class="cls-4" d="M31.83,12.14c0,.46,0,.92,0,1.38,0,.09.14.18.2.26h-.53c.25-.08.25-.28.25-.48,0-.37,0-.74,0-1.1,0-.2,0-.37-.26-.44a3.23,3.23,0,0,0,.44,0c.12,0,.17.05.21.15.19.47.39.94.59,1.45l.54-1.25c.14-.34.14-.34.5-.34H34c-.29.06-.28.27-.28.47,0,.38,0,.75,0,1.12s0,.28.29.43h-.86c.24-.07.26-.26.26-.46V12.12h-.06l-.75,1.7-.74-1.68Z"/><path class="cls-4" d="M6.26,11.79c.42,0,.8,0,1.17,0a.48.48,0,0,1,.46.42.48.48,0,0,1-.35.53l0,0,.58,1s0,0,0,0c-.39,0-.39,0-.56-.33A3.37,3.37,0,0,0,7.27,13a.33.33,0,0,0-.4-.16c-.09.59,0,.81.3.95H7.08c-.26,0-.52,0-.8,0,.26,0,.28-.24.28-.44V12.21C6.56,12,6.54,11.83,6.26,11.79Zm.6,1c.26,0,.48,0,.62-.22a.45.45,0,0,0,0-.55.54.54,0,0,0-.59-.18Z"/><path class="cls-4" d="M10.11,13.79a1.17,1.17,0,0,1-.26,0,.33.33,0,0,1-.19-.13c-.13-.21-.22-.43-.34-.64a.37.37,0,0,0-.41-.19c-.12.52,0,.83.27,1H8.34c.26-.09.25-.3.25-.51v-1.1c0-.19,0-.35-.26-.4.36,0,.71,0,1.06,0s.51.19.54.44-.09.41-.4.55l.28.53C9.9,13.46,10,13.62,10.11,13.79Zm-1.2-2v1c.45,0,.69-.16.68-.49S9.34,11.77,8.91,11.81Z"/><path class="cls-4" d="M36,13.25l0,.53H34.21c.31-.08.32-.3.32-.52v-1c0-.31,0-.35-.27-.48h1.55l0,.39c-.21-.48-.62-.35-1-.36v.86c.32.06.41,0,.53-.3v.73c-.11-.3-.27-.41-.53-.35a4.18,4.18,0,0,0,0,.71.44.44,0,0,0,.25.27.64.64,0,0,0,.85-.41l0-.07Z"/><path class="cls-4" d="M11.4,12.78l.09-.19,0,0c-.19.25-.11.54-.11.81s.05.24.3.34h-.89c.23,0,.27-.22.28-.43a1.15,1.15,0,0,0-.25-.84c-.11-.13-.2-.29-.31-.43s-.2-.21-.29-.31h.82c-.05.05-.15.1-.17.16s0,.16.08.23S11.25,12.54,11.4,12.78Z"/><path class="cls-4" d="M4.55,13l.51-1.29A2.54,2.54,0,0,1,5.2,12c.2.47.38,1,.6,1.42a2.14,2.14,0,0,0,.29.41H5.3c.07-.06.18-.12.2-.19a.47.47,0,0,0-.06-.3c-.13-.35-.14-.35-.51-.35A2.47,2.47,0,0,0,4.55,13Zm.72-.1L5,12.13l-.3.76Z"/><path class="cls-4" d="M37,12.92a.75.75,0,0,0,.1-.85.5.5,0,0,0-.31-.26c-.15,0-.17.11-.21.23s-.08.06-.12.09-.07-.1-.07-.14a.26.26,0,0,1,.09-.14.54.54,0,0,1,.56,0,.66.66,0,0,1,.39.58.48.48,0,0,1-.26.47Z"/><path class="cls-4" d="M12.2,11.76l-.56.72c0-.24.49-.45,0-.72Z"/><path class="cls-4" d="M36.53,13.86c-.08-.12-.16-.19-.16-.25s.09-.13.14-.2.16.12.18.19S36.61,13.74,36.53,13.86Z"/><path class="cls-4" d="M4.45,13.33c0,.31,0,.31.2.45H4.1Z"/><path class="cls-4" d="M36.54,12.57l.11.27c-.22.06,0,.25-.14.37v-.64Z"/><path class="cls-4" d="M15.66,8.85c0,.41-.24.7-.54.67a.63.63,0,0,1-.47-.74.19.19,0,0,0,0-.08c.06-.3.26-.49.51-.47a.55.55,0,0,1,.47.51S15.66,8.83,15.66,8.85Z"/><path class="cls-4" d="M22.26,8.83c0,.41-.23.7-.52.7a.6.6,0,0,1-.5-.66,1,1,0,0,1,0-.17.53.53,0,0,1,.49-.47.54.54,0,0,1,.49.47A.9.9,0,0,0,22.26,8.83Z"/></g></g></svg>