<svg xmlns="http://www.w3.org/2000/svg" viewBox="0 0 38.55 24.66"><defs><style>.cls-1{isolation:isolate;}.cls-2{opacity:0.15;}.cls-2,.cls-3{mix-blend-mode:multiply;}.cls-4{fill:#fff;}</style></defs><title>convert-FIX-SVG-03</title><g class="cls-1"><g id="Layer_1" data-name="Layer 1"><g class="cls-2"><path d="M23,11.43l1.23.67c0-.39.06-.78.11-1.17a2.84,2.84,0,0,0,.11-.85c-.06-.25-.33-.45-.49-.7a3.47,3.47,0,0,1,0-4,2.27,2.27,0,0,1,2.19-1,4.48,4.48,0,0,1,1.56.43.41.41,0,0,0,.29,0A9.32,9.32,0,0,1,31.23,4c.35,0,.71,0,1.06-.05a.62.62,0,0,0,.31-.14,6,6,0,0,1,2.08-1.06,3.05,3.05,0,0,1,2.39.41c.09.06.11.23.16.34l-.06,0L37,3.46A2.75,2.75,0,0,0,34.2,3.2a13.23,13.23,0,0,0-1.49.88.22.22,0,0,0,0,.42,6.42,6.42,0,0,0,.94.39.39.39,0,0,0,.32-.1A1.69,1.69,0,0,1,36.48,5a3.54,3.54,0,0,1,.7,2,2.73,2.73,0,0,1,0,.75A.8.8,0,0,1,37,7.5.77.77,0,0,0,36.63,7c-.82-.55-1.62-1.13-2.42-1.7a.66.66,0,0,0-.41-.14,2,2,0,0,1-1.31-.5c-.12-.09-.16-.27-.26-.43h-.7a8.7,8.7,0,0,0-4.12,1.22A3.88,3.88,0,0,0,26.2,6.67,10.93,10.93,0,0,0,24.58,11a5.13,5.13,0,0,0,.63,3.55,4.08,4.08,0,0,0,1.13,1.18,5,5,0,0,1-1-4.59.73.73,0,0,1-.12-.89c0-.08.16-.19.22-.18s.16.13.22.22a.73.73,0,0,1,.05.25A3.17,3.17,0,0,1,27,9.65a4.59,4.59,0,0,1,2.19-.45,3.66,3.66,0,0,1,3.49,3.2,4.34,4.34,0,0,1-.33,2.38A2.61,2.61,0,0,1,31.23,16a.72.72,0,0,0,.26.07c.63-.07,1.25-.14,1.87-.23a3.84,3.84,0,0,0,.6-.2c.11.15.25,0,.39,0A8.94,8.94,0,0,1,37.12,8l.07,0v6.09a.29.29,0,0,1-.2.31,2,2,0,0,1-2.18-.21l-.2-.14c0,.43,0,.83,0,1.22a12.65,12.65,0,0,0,1.13,4.44,6.85,6.85,0,0,0,.72,1.19,5.68,5.68,0,0,0,.71.64V22a1.37,1.37,0,0,0-1.33,1.26H35.6A1.54,1.54,0,0,1,37,21.73a6.5,6.5,0,0,1-.7-.61,6.73,6.73,0,0,1-1.21-2.33,13.46,13.46,0,0,1-.65-2.59,1,1,0,0,0,0-.11,3.59,3.59,0,0,0-.35.08s-.08.09-.08.14c0,.37,0,.73,0,1.1a1,1,0,0,0,0,.17c0,.07.06.18,0,.19a.31.31,0,0,1-.23.06c-.41-.07-.83-.17-1.24-.22a7.89,7.89,0,0,0-1-.06.63.63,0,0,0-.21,0c.17.22.33.41.48.62a5.45,5.45,0,0,1,1.07,2.39,6.62,6.62,0,0,1,0,1.26.31.31,0,0,1-.17.22c-.29.17-.6.31-.92.47,0-.37.05-.71.05-1.06a7.79,7.79,0,0,0-.38-2.75A4.44,4.44,0,0,0,31,17.9a.41.41,0,0,0-.73,0,1.53,1.53,0,0,0-.27.56c-.18.73-.35,1.45-.47,2.19s-.17,1.42-.26,2.18A6.52,6.52,0,0,1,28.5,22c-.12-.17-.07-.46-.06-.7A5.08,5.08,0,0,1,29.79,18l.18-.2a1.16,1.16,0,0,0-.78.19,6,6,0,0,1-1.64,1l-.1-.82c0-.23-.06-.46-.08-.7s-.05-.2.1-.28.07-.19.09-.29a.73.73,0,0,0,0-.21,4.94,4.94,0,0,1-2.82-2.45c-.07.15-.12.26-.18.37a3.39,3.39,0,0,1-1.82,1.75A2.1,2.1,0,0,1,20.37,16l-.51-.48-.23.14c.37.5.72,1,1.09,1.45a14.13,14.13,0,0,0,3.51,2.83A11.94,11.94,0,0,0,27,21.33a7.18,7.18,0,0,0,.7.16l.12-1.79h.24L28,23.25h-.25V21.77a6.8,6.8,0,0,1-2.9-1.16,36.13,36.13,0,0,1-3-2,9.31,9.31,0,0,1-2.38-2.73l-.08-.1a8.15,8.15,0,0,1-5.44.87,4.08,4.08,0,0,0,.23,2.56l0,0c-.31-.25-.64-.5-.94-.78a8.19,8.19,0,0,1-1.62-2,.4.4,0,0,0-.29-.2,11.59,11.59,0,0,1-4.22-1.78A4.08,4.08,0,0,1,5.3,12,5.22,5.22,0,0,1,7.5,6.32a8.43,8.43,0,0,1,3.28-1.23A17.57,17.57,0,0,1,15.53,5a20.34,20.34,0,0,1,4.3.85,4.84,4.84,0,0,1,1.6.81,2.61,2.61,0,0,1,.41.47,8.44,8.44,0,0,1,1.22,2.8A2.64,2.64,0,0,1,23,11.43Zm-3.71,4.05a1.17,1.17,0,0,0-.05-.11,5.32,5.32,0,0,1-.59-2.27,1.71,1.71,0,0,1,.29-1.16,2.53,2.53,0,0,1,2.5-.9c.43.07.85.19,1.27.29a1.93,1.93,0,0,0,.12-1.18A8.26,8.26,0,0,0,21.7,7.43a1.78,1.78,0,0,0-.84-.81A15.19,15.19,0,0,0,19,5.91a21.05,21.05,0,0,0-4.46-.71,15.06,15.06,0,0,0-4.44.32A6.6,6.6,0,0,0,7,7.12,4.89,4.89,0,0,0,5.6,12a3.83,3.83,0,0,0,1.77,2.24,11.38,11.38,0,0,0,4.08,1.66.44.44,0,0,1,.32.24,9,9,0,0,0,1.68,2.11l.17.14a9.74,9.74,0,0,1,0-1.06,10.67,10.67,0,0,1,.14-1.06A8.11,8.11,0,0,0,19.27,15.48Zm9.43,1,.21-.08a2.1,2.1,0,0,1,.42-.15l1.23-.15a.6.6,0,0,0,.15-.09s.07-.12.11-.14a2.21,2.21,0,0,0,1.29-1.3,4.13,4.13,0,0,0,.31-1.52,3.42,3.42,0,0,0-3.8-3.61,4.4,4.4,0,0,0-2,.66A2.19,2.19,0,0,0,25.5,11.7a4.46,4.46,0,0,0,.84,3.58,2.38,2.38,0,0,0,1.53,1,5.08,5.08,0,0,0,.79.05Zm-4.15-6.8c.07-.25.13-.48.21-.69a.29.29,0,0,0-.1-.39,1.37,1.37,0,0,1-.56-1.3c.1-.73.32-1.28,1.22-1.42a1.78,1.78,0,0,1,.65,0,.64.64,0,0,0,.65-.19A9.76,9.76,0,0,1,27.55,5a10.1,10.1,0,0,0-1.29-.32,1.94,1.94,0,0,0-2,.7,3.09,3.09,0,0,0-.63,2.68A3.77,3.77,0,0,0,24.55,9.72Zm-4.87,5.52-.47-.7h0l.35.8Z"/><path d="M4.05,3.24a.92.92,0,0,1,.76-.61.88.88,0,0,1,.92,1.1,3.5,3.5,0,0,1-.38,1.1c-.46.81-.27.73-1.17.47a2.24,2.24,0,0,1-1.12-.65,1.28,1.28,0,0,1-.3-.56.82.82,0,0,1,1.05-.93Z"/><path d="M4.31,20.66a3.25,3.25,0,0,1,.57-.31c.59-.14,1,.37.85,1A2.39,2.39,0,0,1,5,22.47c-.42.41-.29.41-.8.1a4.89,4.89,0,0,1-.84-.66,1.16,1.16,0,0,1-.27-.5.68.68,0,0,1,.24-.76.78.78,0,0,1,.82-.08A1.13,1.13,0,0,1,4.31,20.66Z"/><path d="M18.82,20a3.06,3.06,0,0,1,.64-.17.68.68,0,0,1,.68.83,1.51,1.51,0,0,1-.61.91,6,6,0,0,1-.72.48.22.22,0,0,1-.19,0,2.68,2.68,0,0,1-1.09-1.43.73.73,0,0,1,.36-.85.79.79,0,0,1,.91.19Z"/><path d="M20.84,2.78a2.26,2.26,0,0,1,.44-.22.7.7,0,0,1,.85.92,1.83,1.83,0,0,1-.66.91c-.71.57-.5.56-1.22,0a1.85,1.85,0,0,1-.63-.85.73.73,0,0,1,.24-.89.78.78,0,0,1,.94.09Z"/><path d="M8.48,18.13a2.09,2.09,0,0,1,.22-.28.58.58,0,0,1,.64-.14.61.61,0,0,1,.4.52,1.88,1.88,0,0,1-.33,1.22c-.26.44-.17.38-.61.25a4.62,4.62,0,0,1-.88-.39.78.78,0,0,1-.25-.26.59.59,0,0,1,.52-1A1.45,1.45,0,0,1,8.48,18.13Z"/><path d="M12.84,2.43A1,1,0,0,1,13,2.28a.59.59,0,0,1,.63-.13.53.53,0,0,1,.33.54,1.53,1.53,0,0,1-.4,1c-.32.42-.33.43-.8.17a3,3,0,0,1-.61-.44A.64.64,0,0,1,12,2.53C12.17,2.3,12.47,2.26,12.84,2.43Z"/><path d="M4.16,15.33c.32-.28.59-.34.83-.16a.63.63,0,0,1,.1.86,5.65,5.65,0,0,1-.62.77.2.2,0,0,1-.2,0c-.28-.19-.55-.38-.81-.59a1,1,0,0,1-.2-.32.51.51,0,0,1,.14-.6A.56.56,0,0,1,4,15.25Z"/><path d="M32.46,10.13a.82.82,0,0,1-.81-.82.78.78,0,0,1,.78-.8.81.81,0,0,1,.8.84A.76.76,0,0,1,32.46,10.13Z"/><path d="M27.92,2.37l.09,0a.46.46,0,0,1,.53.2.45.45,0,0,1-.1.56,1.69,1.69,0,0,1-.92.44.14.14,0,0,1-.12,0A1.67,1.67,0,0,1,27,2.59a.45.45,0,0,1,.85-.27S27.9,2.35,27.92,2.37Z"/><path d="M13.71,21.29c.39-.06.58,0,.67.25a.55.55,0,0,1-.34.66,6.67,6.67,0,0,1-.79.27c-.13-.24-.27-.48-.39-.73a.72.72,0,0,1,0-.29.43.43,0,0,1,.31-.45.45.45,0,0,1,.5.19A.61.61,0,0,1,13.71,21.29Z"/><path d="M8.19,8.27H7.48a.22.22,0,0,0-.14.09c-.08.13-.14.28-.22.41a2.11,2.11,0,0,1-.31.45.39.39,0,0,1-.32,0S6.42,9,6.46,9c.4-.66.81-1.31,1.24-2,.11-.17.22-.12.36.16l-.46.72h.71s.1-.06.12-.11a3,3,0,0,0,.23-.48A.29.29,0,0,1,9,7.11c.13,0,.17.08.13.19a3.76,3.76,0,0,1-.2.46L8.19,9.11l-.07.1c-.09.08-.16.21-.3.11s-.06-.2,0-.3S8.06,8.53,8.19,8.27Z"/><path d="M12.72,8l-.23.21c-.3-.38-.62-.21-.93-.05a1.74,1.74,0,0,0-.42.35.41.41,0,0,0-.09.52.51.51,0,0,0,.5.24.65.65,0,0,0,.52-.47c-.19-.07-.46.15-.6-.19l.36-.09a6.06,6.06,0,0,1,.73-.09.34.34,0,0,1,.23.11s0,.15-.07.2-.37.33-.55.51A.93.93,0,0,1,11,9.41a.49.49,0,0,1-.3-.59,1.45,1.45,0,0,1,1.48-1.24A.58.58,0,0,1,12.72,8Z"/><path d="M10.69,11.92c.26.07.58-.2.8.22-.24,0-.45.12-.67.15a.56.56,0,0,0-.54.47l.7-.19a.19.19,0,0,1,.27.13c.05.12,0,.21-.12.25l-.94.23a.49.49,0,0,1-.21,0c-.22-.06-.27-.14-.17-.35l.61-1.23a.45.45,0,0,1,.43-.28c.21,0,.42-.05.63-.06s.23,0,.25.13-.05.2-.19.21l-.45,0C10.88,11.61,10.72,11.68,10.69,11.92Z"/><path d="M16.24,12.26c.26.07.58-.2.79.21a6.29,6.29,0,0,1-.66.16.55.55,0,0,0-.54.47c.23-.07.45-.13.68-.18.06,0,.15,0,.18,0a.43.43,0,0,1,.12.23s-.08.12-.13.14l-.95.24h-.18c-.23,0-.29-.15-.19-.36L16,11.93a.45.45,0,0,1,.44-.28l.63-.06c.1,0,.22,0,.24.13s-.06.2-.19.21a3.39,3.39,0,0,1-.45,0C16.43,12,16.27,12,16.24,12.26Z"/><path d="M13.06,9a.88.88,0,0,0,.85.3c.19,0,.26-.19.28-.36s-.07-.14-.13-.15c-.22,0-.46-.05-.68-.08A.65.65,0,0,1,13,8.62c0-.07,0-.24,0-.34a1.27,1.27,0,0,1,1.31-.49.85.85,0,0,1,.37.18.22.22,0,0,1-.11.37c-.06,0-.16,0-.17-.07A.34.34,0,0,0,14,8a1.78,1.78,0,0,0-.52.21s-.07.08-.07.12a.14.14,0,0,0,.11.07l.51,0a.49.49,0,0,1,.51.26.58.58,0,0,1-.2.65A1.21,1.21,0,0,1,13,9.53a1.6,1.6,0,0,1-.26-.26Z"/><path d="M14.22,13.5c-.25-.11-.49-.2-.71-.32-.07,0-.16-.14,0-.21s.17-.21.32-.05a.77.77,0,0,0,.78.17c.12,0,.19-.22.26-.35s-.09-.13-.14-.14c-.22,0-.45,0-.67-.08s-.3,0-.37-.14,0-.25.06-.36A1.3,1.3,0,0,1,15,11.56a.74.74,0,0,1,.37.17.21.21,0,0,1-.09.38s-.17,0-.18-.08-.17-.19-.3-.22a.93.93,0,0,0-.68.23c-.1.07-.06.16.06.17l.46,0q.49,0,.57.3a.54.54,0,0,1-.3.67A6.37,6.37,0,0,1,14.22,13.5Z"/><path d="M12.91,13a1.28,1.28,0,0,0-1.07.22c-.1.09-.2.14-.31,0s0-.21,0-.3a6.74,6.74,0,0,1,1.49-1.33.39.39,0,0,1,.35,0,.39.39,0,0,1,.1.31c-.07.4-.16.79-.25,1.18,0,.13-.07.27-.23.21s-.1-.16-.14-.24Zm.17-.83a.74.74,0,0,0-.61.46C13,12.7,13.1,12.63,13.08,12.16Z"/><path d="M9.62,7.55c-.19.39-.39.75-.56,1.13-.09.19,0,.28.21.25A.77.77,0,0,0,10,8.5a5,5,0,0,1,.51-.78c.15-.22.21-.21.4,0a5.17,5.17,0,0,0-.8,1.48.22.22,0,0,1-.38.1.39.39,0,0,0-.23-.07,2.85,2.85,0,0,0-.39.11c-.13,0-.25.1-.36,0a.42.42,0,0,1-.1-.47,3.48,3.48,0,0,1,.22-.43c.14-.27.28-.54.43-.8S9.45,7.41,9.62,7.55Z"/><path d="M7.79,11.08a4.25,4.25,0,0,1,.53.19.3.3,0,0,1,.06.53,2.63,2.63,0,0,1-1.24.61.4.4,0,0,0-.31.2,2.75,2.75,0,0,1-.23.33.2.2,0,0,1-.33,0c-.08-.08-.08-.14,0-.24A3,3,0,0,0,7,11.4a.23.23,0,0,1,.14-.16A4.65,4.65,0,0,1,7.79,11.08Zm.42.45c-.5-.24-.89,0-1.05.53A1.46,1.46,0,0,0,8.21,11.53Z"/><path d="M9,12.75c.17,0,.38.05.51-.18,0-.05.21,0,.36,0-.1.31-.22.5-.52.52s-.49.07-.73.08a.28.28,0,0,1-.23-.1s0-.16,0-.22l1-1.44c.05-.08.11-.18.23-.09s.11.17,0,.3c-.24.36-.46.73-.69,1.1Z"/><path d="M19,11.43l-.29.37c-.25.31-.49.61-.75.91a.26.26,0,0,1-.19.08,2.11,2.11,0,0,1-.33,0c.2-.45.4-.89.61-1.33a.21.21,0,0,1,.15-.11l.75,0Z"/><path d="M14.56,9.52a1.92,1.92,0,0,1,.36-.32.33.33,0,0,1,.29.06.3.3,0,0,1,0,.28,1.36,1.36,0,0,1-.28.31.51.51,0,0,1-.24.05C14.81,9.73,14.88,9.6,14.56,9.52Z"/><path d="M17.22,13.61c-.1,0-.17-.09-.16-.24a.45.45,0,0,1,.4-.36.23.23,0,0,1,.24.23C17.71,13.39,17.44,13.61,17.22,13.61Z"/><path d="M29.56,13.83l.47.34-.83.93-1.3-.6-.32.7-1.31-.66a.2.2,0,0,1-.05-.14,3.47,3.47,0,0,1,.1-.37l.95.41a.77.77,0,0,0,.11-.59,1.86,1.86,0,0,0-.67-1.13c-.18-.14-.32-.32-.49-.47a.16.16,0,0,1,0-.24c.09-.16.17-.34.27-.5a.48.48,0,0,1,.2-.15l1.5-.35a.18.18,0,0,1,.23.08,6.49,6.49,0,0,0,.36.55.17.17,0,0,1,0,.24c-.3.39-.6.78-.89,1.18a.45.45,0,0,0-.06.28,1,1,0,0,0,.74.92c.45.19.44.22.79-.14C29.4,14,29.47,13.93,29.56,13.83Z"/><path d="M23.18,11.63l1.23.67c0-.39.06-.78.1-1.17a2.57,2.57,0,0,0,.12-.85c-.06-.25-.33-.46-.49-.7a3.47,3.47,0,0,1,0-4,2.26,2.26,0,0,1,2.19-1A4.69,4.69,0,0,1,27.9,5a.41.41,0,0,0,.29,0,9.32,9.32,0,0,1,3.24-.82c.35,0,.7,0,1-.05A.66.66,0,0,0,32.8,4a6,6,0,0,1,2.08-1.06,3.05,3.05,0,0,1,2.39.41c.09.06.11.22.16.34l-.06,0-.14-.07A2.75,2.75,0,0,0,34.4,3.4a13.23,13.23,0,0,0-1.49.88.22.22,0,0,0,0,.42,7,7,0,0,0,.95.39.4.4,0,0,0,.32-.1,1.69,1.69,0,0,1,2.49.19,3.54,3.54,0,0,1,.7,2,3.18,3.18,0,0,1,0,.75.74.74,0,0,1-.11-.24c-.05-.24-.22-.35-.41-.48C36,6.66,35.21,6.08,34.4,5.5a.62.62,0,0,0-.4-.13,2,2,0,0,1-1.31-.5,1.37,1.37,0,0,1-.26-.43c-.2,0-.46,0-.71,0a8.7,8.7,0,0,0-4.11,1.22A3.78,3.78,0,0,0,26.4,6.87a10.88,10.88,0,0,0-1.62,4.36,5.14,5.14,0,0,0,.63,3.55A4.08,4.08,0,0,0,26.54,16a5,5,0,0,1-1-4.59.73.73,0,0,1-.12-.89c0-.08.16-.19.22-.18s.16.13.22.22,0,.14,0,.25a3.29,3.29,0,0,1,1.3-.93,4.7,4.7,0,0,1,2.19-.44,3.65,3.65,0,0,1,3.49,3.2A4.34,4.34,0,0,1,32.55,15a2.71,2.71,0,0,1-1.12,1.26c.12,0,.19.08.26.07.62-.07,1.25-.14,1.87-.23a3.07,3.07,0,0,0,.6-.21c.11.16.25,0,.39,0a8.93,8.93,0,0,1,2.77-7.71l.07,0v.2c0,2,0,3.92,0,5.89a.29.29,0,0,1-.2.31A2,2,0,0,1,35,14.38l-.2-.14c0,.43,0,.83,0,1.22A12.88,12.88,0,0,0,36,19.9a6.85,6.85,0,0,0,.72,1.19,4.47,4.47,0,0,0,.71.63v.47a1.37,1.37,0,0,0-1.33,1.26H35.8a1.54,1.54,0,0,1,1.39-1.52,7.83,7.83,0,0,1-.7-.61A6.73,6.73,0,0,1,35.28,19a12.85,12.85,0,0,1-.65-2.6.41.41,0,0,1,0-.1,2,2,0,0,0-.35.08s-.08.09-.08.14c0,.37,0,.73,0,1.1a.88.88,0,0,0,0,.16c0,.07.05.19,0,.2A.31.31,0,0,1,34,18c-.42-.07-.83-.17-1.25-.22s-.64,0-1-.07c-.05,0-.11,0-.2,0,.17.23.33.42.48.63a5.42,5.42,0,0,1,1.07,2.38,6.74,6.74,0,0,1,0,1.27.31.31,0,0,1-.17.22c-.29.17-.6.31-.92.47,0-.37,0-.72,0-1.06a8,8,0,0,0-.38-2.75,4.44,4.44,0,0,0-.43-.84.41.41,0,0,0-.73,0,1.78,1.78,0,0,0-.28.57c-.17.72-.34,1.45-.46,2.19s-.17,1.42-.26,2.18a6.61,6.61,0,0,1-.82-.86,1.34,1.34,0,0,1-.05-.7A5.13,5.13,0,0,1,30,18.19l.18-.2a1.16,1.16,0,0,0-.78.2,6.28,6.28,0,0,1-1.64,1l-.1-.82c0-.24-.06-.47-.08-.7s-.05-.2.1-.28.07-.19.09-.29a1.23,1.23,0,0,0,0-.21,4.94,4.94,0,0,1-2.82-2.45l-.18.37a3.46,3.46,0,0,1-1.82,1.75,2.11,2.11,0,0,1-2.33-.41l-.51-.48-.23.14c.37.5.72,1,1.09,1.44a14,14,0,0,0,3.51,2.84,12.9,12.9,0,0,0,2.79,1.43c.23.07.46.11.71.16l.12-1.79h.24l-.07,3.54H28V22a6.61,6.61,0,0,1-2.9-1.15,36.13,36.13,0,0,1-3-2A9.31,9.31,0,0,1,19.68,16l-.08-.1a8.21,8.21,0,0,1-5.44.87,4.08,4.08,0,0,0,.22,2.56l0,0c-.31-.26-.64-.5-.95-.78a8.58,8.58,0,0,1-1.61-2,.45.45,0,0,0-.29-.21,11.4,11.4,0,0,1-4.22-1.77,4.14,4.14,0,0,1-1.78-2.4A5.24,5.24,0,0,1,7.7,6.52,8.28,8.28,0,0,1,11,5.29a17.57,17.57,0,0,1,4.75-.09,20.34,20.34,0,0,1,4.3.85,4.7,4.7,0,0,1,1.59.81,2.08,2.08,0,0,1,.42.47,8.42,8.42,0,0,1,1.21,2.8A2.55,2.55,0,0,1,23.18,11.63Zm-3.71,4a1.17,1.17,0,0,0,0-.11,5.32,5.32,0,0,1-.59-2.28,1.67,1.67,0,0,1,.29-1.16,2.54,2.54,0,0,1,2.5-.89c.43.07.84.19,1.27.29A1.93,1.93,0,0,0,23,10.35,8.18,8.18,0,0,0,21.9,7.63a1.78,1.78,0,0,0-.84-.81,13.7,13.7,0,0,0-1.84-.71,20.43,20.43,0,0,0-4.46-.71,15.38,15.38,0,0,0-4.44.31A6.71,6.71,0,0,0,7.15,7.32,4.85,4.85,0,0,0,5.8,12.23a3.83,3.83,0,0,0,1.77,2.24,11.38,11.38,0,0,0,4.08,1.66.48.48,0,0,1,.32.23,8.83,8.83,0,0,0,1.68,2.12l.17.14a9.74,9.74,0,0,1-.05-1.06,10.29,10.29,0,0,1,.14-1.06A8.11,8.11,0,0,0,19.47,15.68Zm9.43,1,.21-.08a2.1,2.1,0,0,1,.42-.15l1.23-.15a.42.42,0,0,0,.14-.09c.05-.05.07-.12.12-.14a2.23,2.23,0,0,0,1.29-1.3,4.17,4.17,0,0,0,.31-1.52,3.42,3.42,0,0,0-3.8-3.61,4.4,4.4,0,0,0-2,.66A2.19,2.19,0,0,0,25.7,11.9a4.46,4.46,0,0,0,.84,3.58,2.38,2.38,0,0,0,1.53,1,6.66,6.66,0,0,0,.78.05ZM24.75,9.91A6,6,0,0,1,25,9.23a.28.28,0,0,0-.11-.39,1.35,1.35,0,0,1-.55-1.3c.09-.73.32-1.28,1.22-1.42a1.58,1.58,0,0,1,.65,0,.62.62,0,0,0,.65-.2c.27-.24.57-.44.93-.71-.47-.11-.87-.26-1.29-.32a2,2,0,0,0-1.95.71,3.09,3.09,0,0,0-.63,2.68A3.68,3.68,0,0,0,24.75,9.91Zm-4.87,5.53-.47-.71,0,0,.35.8Z"/><path d="M4.25,3.44A.92.92,0,0,1,5,2.83a.88.88,0,0,1,.92,1.1A3.5,3.5,0,0,1,5.55,5c-.46.81-.27.73-1.17.47a2.31,2.31,0,0,1-1.12-.65A1.17,1.17,0,0,1,3,4.28a.82.82,0,0,1,1-.92Z"/><path d="M4.51,20.86a2.7,2.7,0,0,1,.57-.31c.59-.14,1,.37.85,1a2.52,2.52,0,0,1-.72,1.12c-.43.41-.29.41-.8.1a4.5,4.5,0,0,1-.84-.67,1.07,1.07,0,0,1-.27-.49.68.68,0,0,1,.23-.76.79.79,0,0,1,.82-.08Z"/><path d="M19,20.21a3.31,3.31,0,0,1,.65-.17.68.68,0,0,1,.68.82,1.53,1.53,0,0,1-.61.92,6.93,6.93,0,0,1-.72.48.22.22,0,0,1-.19,0,2.63,2.63,0,0,1-1.09-1.43.73.73,0,0,1,.35-.85.78.78,0,0,1,.91.18S19,20.23,19,20.21Z"/><path d="M21,3a1.81,1.81,0,0,1,.44-.22.69.69,0,0,1,.85.91,1.81,1.81,0,0,1-.66.92c-.71.57-.5.56-1.22,0a1.83,1.83,0,0,1-.63-.86.74.74,0,0,1,.24-.89.79.79,0,0,1,.94.1Z"/><path d="M8.68,18.32c.08-.09.13-.19.21-.27a.62.62,0,0,1,1,.38,1.9,1.9,0,0,1-.33,1.22c-.26.44-.17.38-.62.25a6.21,6.21,0,0,1-.88-.39.76.76,0,0,1-.24-.26.57.57,0,0,1-.06-.65.6.6,0,0,1,.58-.32A2.89,2.89,0,0,1,8.68,18.32Z"/><path d="M13,2.62a1.79,1.79,0,0,1,.13-.14.59.59,0,0,1,.63-.13.52.52,0,0,1,.33.53,1.62,1.62,0,0,1-.4,1c-.33.42-.33.43-.8.17a3,3,0,0,1-.61-.44.64.64,0,0,1-.12-.84C12.37,2.5,12.67,2.46,13,2.62Z"/><path d="M4.36,15.53c.31-.29.59-.34.83-.16a.62.62,0,0,1,.09.86,5.57,5.57,0,0,1-.61.77.21.21,0,0,1-.2,0c-.28-.19-.55-.38-.81-.59a.83.83,0,0,1-.2-.32.51.51,0,0,1,.14-.6.55.55,0,0,1,.61-.07A.71.71,0,0,1,4.36,15.53Z"/><path d="M32.66,10.33a.82.82,0,0,1-.81-.82.77.77,0,0,1,.78-.8.8.8,0,0,1,.79.84A.75.75,0,0,1,32.66,10.33Z"/><path d="M28.11,2.57l.1,0a.46.46,0,0,1,.53.2.47.47,0,0,1-.1.56,1.69,1.69,0,0,1-.92.44.12.12,0,0,1-.12,0,1.61,1.61,0,0,1-.38-.92.45.45,0,0,1,.85-.26Z"/><path d="M13.91,21.49c.39-.06.58,0,.66.25a.52.52,0,0,1-.33.65,5.71,5.71,0,0,1-.79.28c-.13-.24-.27-.48-.39-.73a.72.72,0,0,1,0-.29.43.43,0,0,1,.31-.45.45.45,0,0,1,.5.19A.61.61,0,0,1,13.91,21.49Z"/><path d="M8.39,8.46H7.68a.22.22,0,0,0-.14.09c-.08.13-.14.28-.22.41A2.39,2.39,0,0,1,7,9.42a.39.39,0,0,1-.32,0,.3.3,0,0,1,0-.25c.41-.66.82-1.31,1.24-2,.11-.17.23-.12.37.15l-.46.73h.7A.18.18,0,0,0,8.63,8c.08-.16.16-.31.23-.48s.19-.2.35-.18.16.08.13.19A4.69,4.69,0,0,1,9.13,8c-.24.45-.5.9-.75,1.35a.61.61,0,0,1-.07.1c-.08.08-.16.21-.3.11s0-.2,0-.3S8.25,8.73,8.39,8.46Z"/><path d="M12.92,8.15l-.23.21c-.3-.38-.62-.21-.93,0a2,2,0,0,0-.42.34.41.41,0,0,0-.09.53.51.51,0,0,0,.5.24A.69.69,0,0,0,12.27,9c-.19-.07-.47.15-.6-.2L12,8.67a6.06,6.06,0,0,1,.73-.09.31.31,0,0,1,.23.11s0,.15-.07.19-.38.34-.55.52a1,1,0,0,1-1.19.21.49.49,0,0,1-.3-.59,1.45,1.45,0,0,1,1.48-1.24A.58.58,0,0,1,12.92,8.15Z"/><path d="M10.89,12.12c.26.07.58-.2.79.21a6.29,6.29,0,0,1-.66.16.54.54,0,0,0-.54.47l.7-.19a.2.2,0,0,1,.27.12c0,.13,0,.22-.12.25l-.94.23a.37.37,0,0,1-.21,0c-.22-.06-.27-.14-.17-.35l.61-1.23a.45.45,0,0,1,.43-.28l.63-.06c.1,0,.22,0,.25.13s-.06.2-.19.21-.3,0-.45,0S10.92,11.88,10.89,12.12Z"/><path d="M16.44,12.46c.26.07.58-.21.79.21-.24.06-.45.13-.66.16a.54.54,0,0,0-.54.46l.68-.17c.06,0,.15,0,.18,0a.43.43,0,0,1,.12.23s-.08.12-.14.14l-.94.23a.41.41,0,0,1-.19,0c-.22-.05-.28-.15-.18-.36.2-.42.41-.82.61-1.23a.45.45,0,0,1,.43-.28l.63-.06c.11,0,.23,0,.25.13s-.06.2-.2.21l-.44,0C16.62,12.15,16.47,12.22,16.44,12.46Z"/><path d="M13.26,9.24a.85.85,0,0,0,.85.29c.19,0,.26-.18.28-.35A.22.22,0,0,0,14.26,9C14,9,13.8,9,13.57,9a.64.64,0,0,1-.35-.13c-.05-.07,0-.24,0-.35A1.25,1.25,0,0,1,14.56,8a.76.76,0,0,1,.37.18.21.21,0,0,1-.1.37c-.06,0-.16,0-.17-.07a.34.34,0,0,0-.44-.23,1.83,1.83,0,0,0-.53.21s-.06.08-.06.12a.14.14,0,0,0,.11.07l.51,0c.21,0,.41.05.5.27a.58.58,0,0,1-.19.65,1.21,1.21,0,0,1-1.32.14A1.28,1.28,0,0,1,13,9.47Z"/><path d="M14.42,13.7c-.25-.11-.49-.2-.71-.32s-.16-.14,0-.22.16-.2.32-.05a.76.76,0,0,0,.78.18c.11,0,.19-.22.26-.35s-.09-.13-.14-.14c-.22,0-.45-.05-.67-.09s-.3,0-.37-.13,0-.26.06-.36a1.28,1.28,0,0,1,1.28-.46.74.74,0,0,1,.37.17.22.22,0,0,1-.09.38c-.05,0-.17,0-.18-.08S15.12,12,15,12a.89.89,0,0,0-.68.23c-.1.07-.06.15.06.17a3.55,3.55,0,0,0,.46,0c.33,0,.51.1.57.3a.56.56,0,0,1-.3.68A6.37,6.37,0,0,1,14.42,13.7Z"/><path d="M13.1,13.19a1.23,1.23,0,0,0-1.06.22c-.1.08-.2.14-.31,0s0-.21,0-.3a6.52,6.52,0,0,1,1.49-1.33.39.39,0,0,1,.35,0,.35.35,0,0,1,.09.31c-.06.4-.15.79-.24,1.18,0,.12-.07.27-.24.21s-.09-.16-.13-.24Zm.18-.83a.72.72,0,0,0-.61.46C13.2,12.9,13.29,12.83,13.28,12.36Z"/><path d="M9.82,7.75c-.2.38-.39.75-.56,1.13-.09.19,0,.28.2.25a.78.78,0,0,0,.71-.43,5,5,0,0,1,.51-.78c.15-.22.21-.21.4,0a5,5,0,0,0-.8,1.47.23.23,0,0,1-.38.11.33.33,0,0,0-.23-.07,1.9,1.9,0,0,0-.39.11c-.13,0-.25.1-.37,0A.43.43,0,0,1,8.82,9c.06-.15.14-.29.21-.44l.44-.79C9.58,7.62,9.65,7.61,9.82,7.75Z"/><path d="M8,11.28a3.09,3.09,0,0,1,.53.19.3.3,0,0,1,.06.53,2.63,2.63,0,0,1-1.24.61.38.38,0,0,0-.31.2,3.88,3.88,0,0,1-.23.33.2.2,0,0,1-.33,0c-.08-.08-.09-.14,0-.24a3.05,3.05,0,0,0,.75-1.32.22.22,0,0,1,.13-.16A5.26,5.26,0,0,1,8,11.28Zm.42.45c-.5-.24-.89,0-1,.53A1.49,1.49,0,0,0,8.41,11.73Z"/><path d="M9.16,13c.17,0,.37.05.51-.18,0-.06.21,0,.36,0-.1.31-.22.49-.52.51l-.73.09a.31.31,0,0,1-.24-.1s0-.16.05-.22l1-1.44c0-.08.11-.19.23-.09s.11.17,0,.3c-.24.36-.46.73-.69,1.1Z"/><path d="M19.22,11.63c-.09.12-.18.25-.28.37l-.75.91A.27.27,0,0,1,18,13a2,2,0,0,1-.33,0c.2-.45.4-.89.61-1.33a.21.21,0,0,1,.15-.11c.25,0,.5,0,.75,0Z"/><path d="M14.75,9.72a2.29,2.29,0,0,1,.37-.32.33.33,0,0,1,.29.06.28.28,0,0,1,0,.27,1.38,1.38,0,0,1-.28.31.35.35,0,0,1-.24.05C15,9.93,15.08,9.79,14.75,9.72Z"/><path d="M17.42,13.8c-.11,0-.17-.09-.16-.23a.45.45,0,0,1,.4-.36.23.23,0,0,1,.24.22C17.91,13.59,17.64,13.81,17.42,13.8Z"/><path d="M29.76,14l.46.34-.83.93-1.29-.6-.33.7-1.3-.66a.22.22,0,0,1,0-.14,3.47,3.47,0,0,1,.1-.37l.95.41a.82.82,0,0,0,.11-.59,1.91,1.91,0,0,0-.67-1.13c-.18-.14-.32-.32-.49-.47a.17.17,0,0,1,0-.24c.1-.16.18-.34.28-.5a.37.37,0,0,1,.2-.15l1.5-.35c.12,0,.17,0,.22.08s.24.37.37.55a.17.17,0,0,1,0,.24c-.3.39-.6.78-.89,1.18a.45.45,0,0,0-.06.28,1,1,0,0,0,.73.92c.46.19.45.22.8-.14C29.6,14.23,29.67,14.13,29.76,14Z"/></g><g class="cls-3"><path d="M22.84,11.29l1.23.67c0-.39.06-.78.1-1.17a2.57,2.57,0,0,0,.12-.85c-.06-.25-.33-.46-.49-.7a3.47,3.47,0,0,1,0-4,2.26,2.26,0,0,1,2.19-1,4.69,4.69,0,0,1,1.56.42.41.41,0,0,0,.29,0,9.32,9.32,0,0,1,3.24-.82c.35,0,.7,0,1.05-.05a.66.66,0,0,0,.32-.14A6,6,0,0,1,34.54,2.6,3.05,3.05,0,0,1,36.93,3c.09.06.11.22.16.34l-.06,0-.14-.07a2.75,2.75,0,0,0-2.83-.26,13.23,13.23,0,0,0-1.49.88.22.22,0,0,0,0,.42,7,7,0,0,0,1,.39.4.4,0,0,0,.32-.1,1.69,1.69,0,0,1,2.49.19,3.54,3.54,0,0,1,.7,2,3.18,3.18,0,0,1,0,.75.74.74,0,0,1-.11-.24c0-.24-.22-.35-.41-.48-.82-.55-1.62-1.13-2.43-1.71a.62.62,0,0,0-.4-.13,2,2,0,0,1-1.31-.5,1.37,1.37,0,0,1-.26-.43c-.21,0-.46,0-.71,0a8.7,8.7,0,0,0-4.11,1.22,3.78,3.78,0,0,0-1.21,1.21,10.88,10.88,0,0,0-1.62,4.36,5.14,5.14,0,0,0,.63,3.55,3.93,3.93,0,0,0,1.13,1.17,5,5,0,0,1-1-4.58.75.75,0,0,1-.11-.89c0-.08.16-.19.22-.18s.16.13.22.22,0,.14,0,.25a3.29,3.29,0,0,1,1.3-.93,4.7,4.7,0,0,1,2.19-.44,3.65,3.65,0,0,1,3.49,3.2,4.34,4.34,0,0,1-.33,2.38,2.71,2.71,0,0,1-1.12,1.26c.12,0,.19.08.26.07.62-.07,1.25-.14,1.87-.23a3.07,3.07,0,0,0,.6-.21c.11.16.25,0,.39,0A8.93,8.93,0,0,1,37,7.83l.07,0v.2c0,2,0,3.92,0,5.89a.29.29,0,0,1-.2.31A2,2,0,0,1,34.67,14l-.2-.14c0,.43,0,.83,0,1.22a12.88,12.88,0,0,0,1.14,4.44,6.85,6.85,0,0,0,.72,1.19,4.47,4.47,0,0,0,.71.63v.47a1.37,1.37,0,0,0-1.33,1.26h-.25a1.54,1.54,0,0,1,1.39-1.52,7.83,7.83,0,0,1-.7-.61,6.73,6.73,0,0,1-1.21-2.33,12.85,12.85,0,0,1-.65-2.6.41.41,0,0,1,0-.1,2,2,0,0,0-.35.08s-.08.09-.08.14c0,.36,0,.73,0,1.1a.88.88,0,0,0,0,.16c0,.07,0,.19,0,.2a.31.31,0,0,1-.23.06c-.42-.07-.83-.17-1.25-.22s-.64,0-1-.07c-.05,0-.11,0-.2,0,.17.23.33.42.48.63a5.42,5.42,0,0,1,1.07,2.38,7.69,7.69,0,0,1,0,1.27.31.31,0,0,1-.17.22c-.29.17-.6.31-.92.47,0-.37,0-.72.05-1.06a8,8,0,0,0-.38-2.75,4.44,4.44,0,0,0-.43-.84.41.41,0,0,0-.73,0,1.78,1.78,0,0,0-.28.57c-.17.72-.34,1.45-.46,2.19s-.17,1.42-.26,2.18a6.61,6.61,0,0,1-.82-.86,1.34,1.34,0,0,1-.05-.7,5.13,5.13,0,0,1,1.35-3.28l.18-.2a1.16,1.16,0,0,0-.78.2,6,6,0,0,1-1.64,1l-.1-.81c0-.24-.06-.47-.08-.7s-.05-.2.1-.28.07-.19.08-.29a.61.61,0,0,0,0-.21,4.94,4.94,0,0,1-2.82-2.45l-.18.37a3.46,3.46,0,0,1-1.82,1.75,2.13,2.13,0,0,1-2.34-.41l-.5-.48-.23.14c.37.5.71,1,1.09,1.44a14,14,0,0,0,3.51,2.84,12.9,12.9,0,0,0,2.79,1.43c.23.07.46.11.71.16l.12-1.8.24,0-.07,3.54h-.25v-1.5a6.61,6.61,0,0,1-2.9-1.15,36.13,36.13,0,0,1-3-2,9.31,9.31,0,0,1-2.38-2.73l-.08-.1a8.21,8.21,0,0,1-5.44.87A4.08,4.08,0,0,0,14,19l0,0c-.32-.26-.64-.5-.95-.78a8.78,8.78,0,0,1-1.61-2,.45.45,0,0,0-.29-.21,11.4,11.4,0,0,1-4.22-1.77,4.14,4.14,0,0,1-1.78-2.4A5.24,5.24,0,0,1,7.36,6.18,8.28,8.28,0,0,1,10.64,5a17.57,17.57,0,0,1,4.75-.09,20.34,20.34,0,0,1,4.3.85,4.7,4.7,0,0,1,1.59.81A2.08,2.08,0,0,1,21.7,7a8.42,8.42,0,0,1,1.21,2.8A2.55,2.55,0,0,1,22.84,11.29Zm-3.71,4.05a1.17,1.17,0,0,0-.05-.11A5.32,5.32,0,0,1,18.49,13a1.67,1.67,0,0,1,.29-1.16,2.54,2.54,0,0,1,2.5-.89c.43.07.84.19,1.27.29A1.93,1.93,0,0,0,22.67,10a8.18,8.18,0,0,0-1.11-2.72,1.78,1.78,0,0,0-.84-.81,13.7,13.7,0,0,0-1.84-.71,20.43,20.43,0,0,0-4.46-.71A15.38,15.38,0,0,0,10,5.37,6.71,6.71,0,0,0,6.81,7a4.85,4.85,0,0,0-1.35,4.91,3.83,3.83,0,0,0,1.77,2.24,11.38,11.38,0,0,0,4.08,1.66.48.48,0,0,1,.32.23,8.83,8.83,0,0,0,1.68,2.12l.17.14a9.74,9.74,0,0,1-.05-1.06,10.29,10.29,0,0,1,.14-1.06A8.11,8.11,0,0,0,19.13,15.34Zm9.43,1,.21-.08a2.1,2.1,0,0,1,.42-.15c.41-.07.82-.1,1.23-.15a.42.42,0,0,0,.14-.09c.05-.05.07-.12.12-.14A2.23,2.23,0,0,0,32,14.47,4.17,4.17,0,0,0,32.28,13a3.42,3.42,0,0,0-3.8-3.61,4.4,4.4,0,0,0-2,.66,2.19,2.19,0,0,0-1.15,1.56,4.46,4.46,0,0,0,.84,3.58,2.38,2.38,0,0,0,1.53,1,6.66,6.66,0,0,0,.78.05ZM24.41,9.57a6,6,0,0,1,.21-.68.28.28,0,0,0-.11-.39A1.35,1.35,0,0,1,24,7.2c.09-.73.32-1.28,1.22-1.42a1.58,1.58,0,0,1,.65,0,.62.62,0,0,0,.65-.2c.26-.24.57-.44.92-.71-.46-.11-.86-.26-1.28-.32a2,2,0,0,0-1.95.71,3.09,3.09,0,0,0-.63,2.68A3.68,3.68,0,0,0,24.41,9.57ZM19.54,15.1l-.47-.71,0,0,.35.8Z"/><path d="M3.91,3.1a.92.92,0,0,1,.76-.61.87.87,0,0,1,.92,1.1,3.5,3.5,0,0,1-.38,1.1c-.46.81-.27.73-1.17.47a2.31,2.31,0,0,1-1.12-.65,1.17,1.17,0,0,1-.3-.57.82.82,0,0,1,1-.92Z"/><path d="M4.17,20.52a2.7,2.7,0,0,1,.57-.31c.59-.14,1,.37.85,1a2.52,2.52,0,0,1-.72,1.12c-.43.41-.29.41-.8.1a4.5,4.5,0,0,1-.84-.67A1.07,1.07,0,0,1,3,21.27a.68.68,0,0,1,.23-.76A.79.79,0,0,1,4,20.43Z"/><path d="M18.67,19.87a3.31,3.31,0,0,1,.65-.17.68.68,0,0,1,.68.82,1.53,1.53,0,0,1-.61.92,6.93,6.93,0,0,1-.72.48.22.22,0,0,1-.19,0,2.63,2.63,0,0,1-1.09-1.43.73.73,0,0,1,.35-.85.78.78,0,0,1,.91.18S18.69,19.89,18.67,19.87Z"/><path d="M20.7,2.64a1.81,1.81,0,0,1,.44-.22.69.69,0,0,1,.85.91,1.81,1.81,0,0,1-.66.92c-.72.57-.5.56-1.22,0a1.83,1.83,0,0,1-.63-.86.74.74,0,0,1,.24-.89.79.79,0,0,1,.94.1Z"/><path d="M8.34,18c.08-.09.13-.19.21-.27a.62.62,0,0,1,1,.38,1.9,1.9,0,0,1-.33,1.22c-.26.44-.17.38-.62.25a6.21,6.21,0,0,1-.88-.39.76.76,0,0,1-.24-.26.57.57,0,0,1-.06-.65.6.6,0,0,1,.58-.32A2.89,2.89,0,0,1,8.34,18Z"/><path d="M12.7,2.28a1.79,1.79,0,0,1,.13-.14A.59.59,0,0,1,13.46,2a.52.52,0,0,1,.33.53,1.62,1.62,0,0,1-.4,1c-.33.42-.34.43-.8.17A3,3,0,0,1,12,3.23a.64.64,0,0,1-.12-.84C12,2.16,12.33,2.11,12.7,2.28Z"/><path d="M4,15.19c.31-.29.59-.34.83-.16a.62.62,0,0,1,.09.86,5.57,5.57,0,0,1-.61.77.24.24,0,0,1-.2,0c-.28-.19-.55-.38-.81-.59a.83.83,0,0,1-.2-.32.51.51,0,0,1,.14-.6.55.55,0,0,1,.61-.07Z"/><path d="M32.32,10a.82.82,0,0,1-.81-.82.77.77,0,0,1,.78-.8.8.8,0,0,1,.79.84A.75.75,0,0,1,32.32,10Z"/><path d="M27.77,2.23l.1,0a.46.46,0,0,1,.53.2.47.47,0,0,1-.1.56,1.69,1.69,0,0,1-.92.44.12.12,0,0,1-.12-.05,1.61,1.61,0,0,1-.38-.92.45.45,0,0,1,.85-.26Z"/><path d="M13.57,21.15c.39-.06.58,0,.66.25a.53.53,0,0,1-.33.65,5.71,5.71,0,0,1-.79.28c-.13-.24-.27-.48-.39-.73a.75.75,0,0,1,0-.3.43.43,0,0,1,.31-.44.45.45,0,0,1,.5.19A.61.61,0,0,1,13.57,21.15Z"/><path d="M8.05,8.12H7.34a.22.22,0,0,0-.14.09c-.08.13-.14.28-.22.41a3,3,0,0,1-.31.45.39.39,0,0,1-.32,0,.3.3,0,0,1,0-.25c.41-.66.82-1.31,1.24-2,.11-.17.23-.12.37.15l-.46.73h.7a.18.18,0,0,0,.13-.11c.08-.16.16-.31.23-.48S8.71,7,8.87,7s.16.08.13.19a4.69,4.69,0,0,1-.21.46c-.24.45-.5.9-.75,1.35a.61.61,0,0,1-.07.1c-.08.08-.16.21-.3.11s0-.2,0-.3Z"/><path d="M12.58,7.81,12.35,8c-.3-.38-.62-.21-.93,0a1.7,1.7,0,0,0-.42.34.41.41,0,0,0-.09.53.51.51,0,0,0,.5.24.69.69,0,0,0,.52-.47c-.19-.07-.47.15-.61-.2l.37-.08a6.06,6.06,0,0,1,.73-.09.31.31,0,0,1,.23.11s0,.15-.07.19-.38.34-.55.52a1,1,0,0,1-1.19.21.49.49,0,0,1-.3-.59A1.45,1.45,0,0,1,12,7.44.58.58,0,0,1,12.58,7.81Z"/><path d="M10.55,11.78c.26.07.58-.2.79.21a6.29,6.29,0,0,1-.66.16.54.54,0,0,0-.54.46l.7-.18a.2.2,0,0,1,.27.12c0,.13,0,.22-.12.25L10,13a.34.34,0,0,1-.2,0c-.22-.06-.27-.14-.17-.35l.61-1.23a.45.45,0,0,1,.43-.28l.63-.06c.1,0,.22,0,.25.13s-.06.2-.19.21-.3,0-.45,0S10.58,11.54,10.55,11.78Z"/><path d="M16.1,12.12c.26.07.58-.21.79.21a6.45,6.45,0,0,1-.67.16.54.54,0,0,0-.53.46l.68-.18c.06,0,.15,0,.18,0a.43.43,0,0,1,.12.23s-.08.12-.14.14l-.94.23a.41.41,0,0,1-.19,0c-.23-.05-.28-.15-.18-.36.2-.42.41-.82.61-1.23a.45.45,0,0,1,.43-.28l.63-.06c.1,0,.23,0,.25.13s-.06.2-.2.21l-.44,0C16.28,11.81,16.13,11.88,16.1,12.12Z"/><path d="M12.92,8.9a.85.85,0,0,0,.85.29c.19,0,.26-.18.28-.35a.22.22,0,0,0-.13-.15c-.23,0-.46,0-.69-.08a.64.64,0,0,1-.35-.13c-.05-.07,0-.24,0-.35a1.25,1.25,0,0,1,1.3-.48.84.84,0,0,1,.37.17.22.22,0,0,1-.1.38c-.06,0-.16,0-.17-.07a.34.34,0,0,0-.44-.23,1.83,1.83,0,0,0-.53.21s-.06.08-.06.12a.14.14,0,0,0,.11.07l.51,0c.21,0,.41.05.5.27a.58.58,0,0,1-.19.65,1.21,1.21,0,0,1-1.32.14,1.28,1.28,0,0,1-.26-.26Z"/><path d="M14.08,13.36c-.25-.11-.49-.2-.71-.32-.07,0-.16-.14,0-.22s.16-.2.32-.05a.76.76,0,0,0,.78.18c.11,0,.19-.22.26-.35s-.09-.13-.14-.14c-.22,0-.45-.05-.67-.09s-.3,0-.37-.13,0-.26.06-.36a1.3,1.3,0,0,1,1.28-.47.85.85,0,0,1,.37.18.22.22,0,0,1-.09.38c-.05,0-.17,0-.18-.08s-.17-.19-.3-.22a.89.89,0,0,0-.68.23c-.1.07-.06.15.06.17a3.55,3.55,0,0,0,.46,0c.33,0,.51.1.57.3a.56.56,0,0,1-.3.68A6.37,6.37,0,0,1,14.08,13.36Z"/><path d="M12.76,12.85a1.23,1.23,0,0,0-1.06.22c-.1.08-.2.14-.31,0s0-.21,0-.3a6.52,6.52,0,0,1,1.49-1.33.39.39,0,0,1,.35,0,.35.35,0,0,1,.09.31c-.06.4-.15.79-.24,1.18,0,.12-.07.27-.24.21s-.09-.16-.13-.24Zm.18-.83a.72.72,0,0,0-.61.46C12.86,12.56,13,12.49,12.94,12Z"/><path d="M9.48,7.41c-.2.38-.39.75-.56,1.13-.09.19,0,.28.2.25a.78.78,0,0,0,.71-.43,5,5,0,0,1,.51-.78c.15-.22.21-.21.4,0a5,5,0,0,0-.8,1.47.23.23,0,0,1-.38.11.33.33,0,0,0-.23-.07,1.9,1.9,0,0,0-.39.11c-.13,0-.25.1-.37,0a.43.43,0,0,1-.09-.47c.06-.15.14-.29.21-.44l.44-.79C9.24,7.28,9.31,7.27,9.48,7.41Z"/><path d="M7.65,10.94a3.09,3.09,0,0,1,.53.19.29.29,0,0,1,.05.53A2.56,2.56,0,0,1,7,12.27a.38.38,0,0,0-.31.2,3.88,3.88,0,0,1-.23.33.21.21,0,0,1-.33,0c-.08-.08-.09-.14,0-.24a3.05,3.05,0,0,0,.75-1.32A.26.26,0,0,1,7,11.09C7.22,11,7.42,11,7.65,10.94Zm.42.45c-.5-.24-.89,0-1.05.53A1.49,1.49,0,0,0,8.07,11.39Z"/><path d="M8.82,12.61c.17,0,.37.05.51-.18,0-.06.21,0,.36,0-.1.31-.22.49-.52.51s-.49.07-.73.09a.31.31,0,0,1-.24-.1s0-.16.05-.22l1-1.44c0-.08.11-.19.23-.09s.11.17,0,.3c-.24.36-.46.73-.69,1.1Z"/><path d="M18.88,11.29c-.09.12-.18.25-.28.37l-.75.91a.27.27,0,0,1-.19.08,2,2,0,0,1-.33,0c.2-.45.4-.89.61-1.33a.21.21,0,0,1,.15-.11c.25,0,.5,0,.75,0Z"/><path d="M14.41,9.38a2.29,2.29,0,0,1,.37-.32.33.33,0,0,1,.29.06.28.28,0,0,1,0,.27,1.38,1.38,0,0,1-.28.31.35.35,0,0,1-.24.05C14.67,9.59,14.74,9.45,14.41,9.38Z"/><path d="M17.08,13.46c-.11,0-.17-.09-.16-.23a.45.45,0,0,1,.4-.36.23.23,0,0,1,.24.22C17.57,13.25,17.3,13.47,17.08,13.46Z"/><path d="M29.42,13.69l.46.34-.83.93-1.29-.6-.33.7-1.3-.66a.22.22,0,0,1-.05-.14,3.47,3.47,0,0,1,.1-.37l.95.41a.82.82,0,0,0,.11-.59,1.91,1.91,0,0,0-.67-1.13c-.18-.14-.32-.32-.49-.47a.17.17,0,0,1,0-.24c.1-.16.18-.34.28-.5a.37.37,0,0,1,.2-.15l1.5-.36a.17.17,0,0,1,.22.09c.12.19.24.37.37.55a.17.17,0,0,1,0,.24c-.3.39-.6.78-.89,1.18a.45.45,0,0,0-.06.28,1,1,0,0,0,.73.92c.46.19.45.22.8-.14C29.26,13.89,29.33,13.79,29.42,13.69Z"/></g><path class="cls-4" d="M23,11.49l1.23.66c0-.38.06-.77.1-1.16a2.6,2.6,0,0,0,.12-.85c-.06-.26-.34-.46-.49-.7a3.46,3.46,0,0,1,0-4,2.27,2.27,0,0,1,2.19-1,5,5,0,0,1,1.56.43.41.41,0,0,0,.29,0,9.32,9.32,0,0,1,3.24-.82c.35,0,.7,0,1.05-.06a.64.64,0,0,0,.32-.13A6,6,0,0,1,34.74,2.8a3,3,0,0,1,2.38.41c.09.06.12.22.17.34l-.06,0-.14-.08a2.75,2.75,0,0,0-2.83-.25,13.23,13.23,0,0,0-1.49.88c-.2.12-.2.31,0,.41a6.59,6.59,0,0,0,.95.4.44.44,0,0,0,.32-.1A1.69,1.69,0,0,1,36.54,5a3.64,3.64,0,0,1,.7,2,3.7,3.7,0,0,1,0,.74.7.7,0,0,1-.11-.23c-.05-.25-.22-.35-.42-.48-.81-.56-1.61-1.13-2.42-1.71a.57.57,0,0,0-.4-.13,2.14,2.14,0,0,1-1.32-.5,1.57,1.57,0,0,1-.25-.43c-.21,0-.46,0-.71,0a8.63,8.63,0,0,0-4.11,1.22,3.78,3.78,0,0,0-1.21,1.21,10.73,10.73,0,0,0-1.62,4.36,5.19,5.19,0,0,0,.62,3.55,4,4,0,0,0,1.14,1.17,5,5,0,0,1-1-4.59.73.73,0,0,1-.12-.88c0-.08.16-.19.23-.18s.16.13.22.21a1.2,1.2,0,0,1,.05.26,3.29,3.29,0,0,1,1.3-.93,4.84,4.84,0,0,1,2.19-.45,3.67,3.67,0,0,1,3.49,3.21,4.35,4.35,0,0,1-.33,2.38,2.71,2.71,0,0,1-1.12,1.26c.12,0,.19.08.26.07.62-.07,1.25-.14,1.87-.23a4.63,4.63,0,0,0,.59-.21c.11.16.25,0,.4,0A8.92,8.92,0,0,1,37.18,8h.07v.21c0,2,0,3.92,0,5.88a.3.3,0,0,1-.21.32,2,2,0,0,1-2.17-.21l-.2-.14c0,.43,0,.83,0,1.22a12.88,12.88,0,0,0,1.14,4.44A6.29,6.29,0,0,0,36.53,21a4.52,4.52,0,0,0,.71.63v.47a1.35,1.35,0,0,0-1.33,1.25h-.25a1.53,1.53,0,0,1,1.39-1.51,8,8,0,0,1-.7-.61,6.65,6.65,0,0,1-1.21-2.33,13,13,0,0,1-.65-2.6l0-.1a2.09,2.09,0,0,0-.34.08s-.08.09-.08.14c0,.36,0,.73,0,1.1a.88.88,0,0,0,0,.16c0,.07.05.18,0,.2a.32.32,0,0,1-.23.05c-.42-.06-.83-.16-1.25-.22s-.64,0-1-.06a.88.88,0,0,0-.2,0c.17.23.33.42.48.62a5.5,5.5,0,0,1,1.07,2.39,7.57,7.57,0,0,1,0,1.26.33.33,0,0,1-.17.23l-.92.47c0-.37,0-.72,0-1.06a7.78,7.78,0,0,0-.37-2.75A4.52,4.52,0,0,0,31.1,18a.41.41,0,0,0-.73,0,1.78,1.78,0,0,0-.28.57c-.17.72-.34,1.45-.46,2.18s-.17,1.43-.26,2.19a6.57,6.57,0,0,1-.82-.86,1.37,1.37,0,0,1-.05-.71,5.08,5.08,0,0,1,1.35-3.27l.18-.2a1.15,1.15,0,0,0-.78.2,5.91,5.91,0,0,1-1.65,1l-.09-.82c0-.23-.06-.46-.08-.69s-.05-.21.1-.28.07-.19.08-.3a.56.56,0,0,0,0-.2,4.91,4.91,0,0,1-2.82-2.45c-.08.15-.13.26-.18.37a3.49,3.49,0,0,1-1.82,1.75A2.12,2.12,0,0,1,20.42,16l-.5-.47-.24.14c.38.49.72,1,1.1,1.44A14,14,0,0,0,24.29,20a12.46,12.46,0,0,0,2.79,1.43c.23.07.46.1.71.16l.12-1.8.24,0-.07,3.54h-.25v-1.5a6.61,6.61,0,0,1-2.9-1.15,34.55,34.55,0,0,1-3-2,9.31,9.31,0,0,1-2.38-2.73l-.08-.11a8.15,8.15,0,0,1-5.44.88,4,4,0,0,0,.22,2.56l0,0c-.32-.26-.65-.5-.95-.78a8.53,8.53,0,0,1-1.61-2,.43.43,0,0,0-.3-.21,11.36,11.36,0,0,1-4.21-1.77,4.17,4.17,0,0,1-1.78-2.4A5.24,5.24,0,0,1,7.56,6.38a8.28,8.28,0,0,1,3.28-1.23,17.18,17.18,0,0,1,4.75-.09,20.34,20.34,0,0,1,4.3.85,4.7,4.7,0,0,1,1.59.81,1.89,1.89,0,0,1,.42.47A8.42,8.42,0,0,1,23.11,10,2.55,2.55,0,0,1,23,11.49Zm-3.72,4a.56.56,0,0,0,0-.12,5.29,5.29,0,0,1-.6-2.27A1.73,1.73,0,0,1,19,12a2.54,2.54,0,0,1,2.5-.89c.42.07.84.19,1.27.29a1.94,1.94,0,0,0,.12-1.18,8.3,8.3,0,0,0-1.11-2.72,1.78,1.78,0,0,0-.84-.81A13.37,13.37,0,0,0,19.07,6a20.85,20.85,0,0,0-4.45-.7,15,15,0,0,0-4.44.31A6.71,6.71,0,0,0,7,7.18a4.87,4.87,0,0,0-1.36,4.91,3.94,3.94,0,0,0,1.77,2.24A11.5,11.5,0,0,0,11.51,16a.45.45,0,0,1,.32.23,8.36,8.36,0,0,0,1.68,2.11l.17.15c0-.37-.07-.72-.06-1.06s.1-.69.15-1.06A8.08,8.08,0,0,0,19.32,15.54Zm9.43,1L29,16.5a3.47,3.47,0,0,1,.41-.16c.41-.06.83-.09,1.24-.14a.33.33,0,0,0,.14-.1s.07-.11.12-.13a2.23,2.23,0,0,0,1.29-1.3,4.68,4.68,0,0,0,.31-1.52,3.42,3.42,0,0,0-3.8-3.61,4.51,4.51,0,0,0-2,.65,2.27,2.27,0,0,0-1.16,1.57,4.47,4.47,0,0,0,.85,3.57,2.36,2.36,0,0,0,1.53,1c.25,0,.51,0,.78.05ZM24.6,9.77c.08-.24.13-.47.22-.68a.28.28,0,0,0-.11-.39,1.35,1.35,0,0,1-.55-1.3c.09-.73.32-1.28,1.21-1.43A1.83,1.83,0,0,1,26,6a.66.66,0,0,0,.65-.2c.26-.24.57-.44.92-.71a12,12,0,0,0-1.28-.32,2,2,0,0,0-2,.71,3.08,3.08,0,0,0-.63,2.68A3.84,3.84,0,0,0,24.6,9.77ZM19.74,15.3l-.47-.71,0,0,.35.79Z"/><path class="cls-4" d="M4.11,3.3a.92.92,0,0,1,.76-.61.87.87,0,0,1,.92,1.09,3.48,3.48,0,0,1-.38,1.11c-.47.81-.27.73-1.17.47a2.27,2.27,0,0,1-1.12-.65,1.21,1.21,0,0,1-.3-.57.82.82,0,0,1,1.05-.92Z"/><path class="cls-4" d="M4.37,20.72a2.7,2.7,0,0,1,.57-.31c.58-.15,1,.37.85,1a2.46,2.46,0,0,1-.73,1.12c-.42.4-.29.41-.79.1A4.19,4.19,0,0,1,3.43,22a1.07,1.07,0,0,1-.27-.49.67.67,0,0,1,.23-.76.79.79,0,0,1,.82-.08Z"/><path class="cls-4" d="M18.87,20.07a3.31,3.31,0,0,1,.65-.17.68.68,0,0,1,.68.82,1.57,1.57,0,0,1-.61.91,7,7,0,0,1-.72.49.22.22,0,0,1-.19,0,2.62,2.62,0,0,1-1.09-1.44.72.72,0,0,1,.35-.84.78.78,0,0,1,.91.18S18.88,20.09,18.87,20.07Z"/><path class="cls-4" d="M20.89,2.83a2,2,0,0,1,.45-.21.69.69,0,0,1,.84.91,1.74,1.74,0,0,1-.65.92c-.72.57-.51.56-1.22,0a1.93,1.93,0,0,1-.63-.86.74.74,0,0,1,.24-.89.78.78,0,0,1,.93.1Z"/><path class="cls-4" d="M8.54,18.18a1.94,1.94,0,0,1,.21-.27.59.59,0,0,1,.64-.15.62.62,0,0,1,.41.53,1.9,1.9,0,0,1-.33,1.22c-.26.44-.18.37-.62.25A6.21,6.21,0,0,1,8,19.37a.75.75,0,0,1-.24-.26.58.58,0,0,1-.06-.65.59.59,0,0,1,.58-.32C8.34,18.14,8.44,18.17,8.54,18.18Z"/><path class="cls-4" d="M12.9,2.48,13,2.33a.57.57,0,0,1,.62-.12.51.51,0,0,1,.34.53,1.57,1.57,0,0,1-.4.95c-.33.43-.34.44-.8.18a3,3,0,0,1-.61-.44.64.64,0,0,1-.12-.85C12.22,2.35,12.53,2.31,12.9,2.48Z"/><path class="cls-4" d="M4.22,15.39c.31-.29.59-.34.83-.16a.63.63,0,0,1,.09.86,5.57,5.57,0,0,1-.61.77.21.21,0,0,1-.2,0,9.34,9.34,0,0,1-.82-.58A.89.89,0,0,1,3.32,16a.5.5,0,0,1,.14-.59.54.54,0,0,1,.61-.07Z"/><path class="cls-4" d="M32.52,10.19a.82.82,0,0,1-.81-.83.77.77,0,0,1,.78-.79.81.81,0,0,1,.79.84A.75.75,0,0,1,32.52,10.19Z"/><path class="cls-4" d="M28,2.43l.1,0a.48.48,0,0,1,.53.21.47.47,0,0,1-.1.56,1.76,1.76,0,0,1-.92.44.13.13,0,0,1-.12,0,1.61,1.61,0,0,1-.38-.92.45.45,0,0,1,.85-.26Z"/><path class="cls-4" d="M13.77,21.35c.39-.06.58,0,.66.25a.54.54,0,0,1-.33.65,5.71,5.71,0,0,1-.79.28c-.13-.24-.27-.48-.39-.74a.56.56,0,0,1,0-.29.45.45,0,0,1,.31-.45.46.46,0,0,1,.5.2A.86.86,0,0,1,13.77,21.35Z"/><path class="cls-4" d="M8.25,8.32H7.54a.19.19,0,0,0-.14.09c-.09.13-.15.28-.23.41a2.26,2.26,0,0,1-.31.45c-.05.05-.22,0-.31,0a.3.3,0,0,1,0-.25c.41-.66.82-1.32,1.24-2,.11-.16.23-.11.37.16l-.46.72h.7c.05,0,.1-.07.13-.11s.16-.32.23-.48.19-.2.35-.18.16.08.12.18a2.76,2.76,0,0,1-.2.47c-.24.45-.5.9-.75,1.34a.41.41,0,0,1-.07.11c-.08.08-.16.21-.3.11s0-.2,0-.3C8,8.83,8.11,8.59,8.25,8.32Z"/><path class="cls-4" d="M12.78,8l-.24.21c-.29-.38-.62-.21-.92-.05a1.53,1.53,0,0,0-.42.34.4.4,0,0,0-.09.52.48.48,0,0,0,.5.25.66.66,0,0,0,.51-.47c-.18-.07-.46.15-.6-.2l.37-.08a6.06,6.06,0,0,1,.73-.09.31.31,0,0,1,.23.11s0,.15-.08.19-.37.34-.54.52A1,1,0,0,1,11,9.47a.49.49,0,0,1-.3-.59,1.45,1.45,0,0,1,1.48-1.24A.6.6,0,0,1,12.78,8Z"/><path class="cls-4" d="M10.75,12c.25.07.58-.21.79.21a4.72,4.72,0,0,1-.66.15.55.55,0,0,0-.54.47l.69-.18a.2.2,0,0,1,.28.12c0,.13,0,.22-.12.25l-.95.23a.37.37,0,0,1-.21,0c-.22-.06-.26-.14-.16-.35.2-.42.41-.82.61-1.23a.45.45,0,0,1,.43-.28l.63-.06c.1,0,.22,0,.24.12s0,.21-.19.22l-.44,0C10.93,11.67,10.78,11.74,10.75,12Z"/><path class="cls-4" d="M16.3,12.31c.26.08.58-.2.79.22a4.54,4.54,0,0,1-.67.15.55.55,0,0,0-.53.47l.68-.18c.05,0,.14,0,.18,0a.43.43,0,0,1,.12.23s-.08.12-.14.14l-.94.23a.31.31,0,0,1-.19,0c-.23-.05-.28-.14-.18-.36.2-.41.41-.82.61-1.22a.45.45,0,0,1,.43-.28c.21,0,.42-.05.63-.07s.22,0,.24.13,0,.21-.19.22l-.44,0C16.48,12,16.33,12.08,16.3,12.31Z"/><path class="cls-4" d="M13.12,9.1a.85.85,0,0,0,.85.29c.18,0,.26-.18.28-.35a.22.22,0,0,0-.13-.15c-.23,0-.46-.05-.69-.09s-.29,0-.35-.12,0-.25,0-.35a1.25,1.25,0,0,1,1.3-.48.84.84,0,0,1,.37.17.22.22,0,0,1-.11.38s-.15,0-.16-.07a.36.36,0,0,0-.44-.24,1.75,1.75,0,0,0-.53.22.13.13,0,0,0-.06.11s.07.07.11.08l.51,0c.21,0,.41.05.5.27a.6.6,0,0,1-.19.65,1.22,1.22,0,0,1-1.33.14,1.29,1.29,0,0,1-.25-.27Z"/><path class="cls-4" d="M14.28,13.56c-.25-.11-.49-.2-.71-.32s-.16-.14,0-.22.16-.2.32,0a.76.76,0,0,0,.78.18c.11,0,.18-.23.25-.35s-.08-.14-.14-.15c-.22,0-.44,0-.66-.08s-.31,0-.37-.13,0-.26.06-.36a1.27,1.27,0,0,1,1.28-.47.85.85,0,0,1,.37.18.22.22,0,0,1-.09.38c-.06,0-.17,0-.18-.08a.32.32,0,0,0-.31-.22.88.88,0,0,0-.67.23c-.1.07-.06.15.06.17a3.44,3.44,0,0,0,.46,0c.33,0,.51.1.57.3a.56.56,0,0,1-.3.68C14.75,13.39,14.53,13.46,14.28,13.56Z"/><path class="cls-4" d="M13,13.05a1.26,1.26,0,0,0-1.06.21c-.11.09-.2.15-.31,0s0-.21,0-.29a6.52,6.52,0,0,1,1.49-1.33.39.39,0,0,1,.35,0,.35.35,0,0,1,.09.31c-.06.4-.15.79-.24,1.18,0,.12-.07.27-.24.21s-.09-.16-.14-.24Zm.18-.83a.73.73,0,0,0-.62.46C13.06,12.76,13.15,12.69,13.14,12.22Z"/><path class="cls-4" d="M9.68,7.6c-.2.39-.39.76-.56,1.13-.09.19,0,.28.2.26A.78.78,0,0,0,10,8.55a5.4,5.4,0,0,1,.51-.77c.15-.22.21-.22.4,0a5,5,0,0,0-.8,1.47.23.23,0,0,1-.39.11.31.31,0,0,0-.22-.07,2.79,2.79,0,0,0-.39.1c-.13,0-.25.11-.37,0a.43.43,0,0,1-.09-.47c.06-.15.14-.3.21-.44l.44-.79C9.44,7.48,9.51,7.47,9.68,7.6Z"/><path class="cls-4" d="M7.84,11.13a3,3,0,0,1,.54.2c.24.13.26.34,0,.53a2.56,2.56,0,0,1-1.23.61.41.41,0,0,0-.32.2,3.78,3.78,0,0,1-.22.33.21.21,0,0,1-.33,0c-.08-.08-.09-.15,0-.24a3,3,0,0,0,.75-1.33.23.23,0,0,1,.13-.16C7.41,11.23,7.61,11.19,7.84,11.13Zm.43.46c-.5-.24-.89,0-1,.53A1.51,1.51,0,0,0,8.27,11.59Z"/><path class="cls-4" d="M9,12.81c.17-.05.37,0,.51-.18,0-.06.21,0,.36,0-.1.32-.22.5-.52.52s-.49.07-.74.09a.34.34,0,0,1-.23-.1s0-.16,0-.22c.32-.49.64-1,1-1.44.05-.08.11-.19.23-.1s.1.18,0,.3c-.24.36-.46.74-.69,1.11Z"/><path class="cls-4" d="M19.08,11.48c-.09.13-.18.26-.28.38l-.75.91a.33.33,0,0,1-.19.08,2,2,0,0,1-.33,0l.6-1.33a.25.25,0,0,1,.16-.11c.25,0,.5,0,.75,0Z"/><path class="cls-4" d="M14.61,9.58A2.29,2.29,0,0,1,15,9.26a.33.33,0,0,1,.29.06.28.28,0,0,1,0,.27A1.38,1.38,0,0,1,15,9.9a.36.36,0,0,1-.24,0C14.87,9.79,14.94,9.65,14.61,9.58Z"/><path class="cls-4" d="M17.28,13.66c-.11,0-.17-.09-.17-.23a.46.46,0,0,1,.41-.36.23.23,0,0,1,.24.22C17.76,13.45,17.5,13.67,17.28,13.66Z"/><path class="cls-4" d="M29.62,13.88l.46.35-.83.92L28,14.56l-.33.69-1.3-.65a.15.15,0,0,1,0-.14,3.47,3.47,0,0,1,.1-.37l.95.4a.74.74,0,0,0,.1-.58,1.86,1.86,0,0,0-.67-1.13c-.17-.14-.32-.32-.48-.47a.17.17,0,0,1,0-.24c.1-.16.18-.34.28-.5a.34.34,0,0,1,.2-.15c.5-.13,1-.23,1.5-.36a.17.17,0,0,1,.22.09l.36.55a.16.16,0,0,1,0,.24c-.3.39-.61.78-.89,1.18a.39.39,0,0,0-.06.28,1,1,0,0,0,.73.92c.45.18.44.22.79-.14C29.45,14.09,29.53,14,29.62,13.88Z"/></g></g></svg>