<svg xmlns="http://www.w3.org/2000/svg" viewBox="0 0 38.55 24.66"><defs><style>.cls-1{isolation:isolate;}.cls-2{opacity:0.15;}.cls-2,.cls-3{mix-blend-mode:multiply;}.cls-4{fill:#fff;}</style></defs><title>convert-FIX-SVG-03</title><g class="cls-1"><g id="Layer_1" data-name="Layer 1"><g class="cls-2"><path d="M19.3,12.09a2.4,2.4,0,0,1-1,2.09,3.38,3.38,0,0,1-4-.06,2.23,2.23,0,0,1-.19-3.42,3.27,3.27,0,0,1,4.79.35A2,2,0,0,1,19.3,12.09Zm-4.57.12,0,0c0,.24,0,.47.06.71a1.51,1.51,0,0,0,1.81,1.44,1.07,1.07,0,0,0,1-.66,3.42,3.42,0,0,0,0-2.75,1.08,1.08,0,0,0-.73-.65,2.81,2.81,0,0,0-.71-.08,1.21,1.21,0,0,0-1.21.85A10.59,10.59,0,0,0,14.73,12.21Z"/><path d="M30.44,13.25h.26v1.36H26.15v-.24l0,0c.58-.08.66-.16.67-.75,0-.85,0-1.71,0-2.56,0-.61-.1-.73-.71-.81V10h4.25v1.17c-.19,0-.32,0-.39-.19a.84.84,0,0,0-.81-.6l-.87,0c-.18,0-.27.07-.26.29,0,.47,0,.94,0,1.41a.76.76,0,0,0,1-.52c.07-.22.18-.26.38-.2v1.85c-.17,0-.29,0-.36-.19-.13-.45-.45-.61-1-.55,0,.46,0,.92,0,1.39a.55.55,0,0,0,.59.44,4.16,4.16,0,0,0,.93-.06.91.91,0,0,0,.72-.64C30.37,13.45,30.4,13.35,30.44,13.25Z"/><path d="M7.82,10.3V10h2.67v.26l-.41.06a.32.32,0,0,0-.29.29,1.65,1.65,0,0,0,0,.31v2.38c0,.74.2,1,1,.95a2.69,2.69,0,0,0,.84-.14.94.94,0,0,0,.6-.64c.06-.21.17-.27.37-.22v1.34H7.83v-.27l.27,0a.45.45,0,0,0,.42-.5v-3c0-.26-.11-.37-.36-.42Z"/><path d="M19.84,10.26V10H22.5v.24l-.33.05c-.31.06-.38.19-.27.48.19.46.38.91.58,1.36s.33.78.51,1.19c0-.06.06-.1.08-.15.28-.63.57-1.25.84-1.89a2.85,2.85,0,0,0,.16-.59c0-.28,0-.34-.31-.4l-.32-.05V10h1.93v.25c-.52,0-.74.37-.93.78-.53,1.16-1.07,2.32-1.59,3.48a.3.3,0,0,1-.56,0c-.53-1.2-1.07-2.4-1.61-3.6C20.43,10.38,20.42,10.38,19.84,10.26Z"/><path d="M23.56,1.08A.91.91,0,0,1,24.67.9a.89.89,0,0,1,.4,1.1,3.32,3.32,0,0,1-1.44,1.63.19.19,0,0,1-.18,0A3.71,3.71,0,0,1,22.18,2.3,1,1,0,0,1,22.37,1,.89.89,0,0,1,23.56,1.08Zm-.3,1.62-.14-.12L23,2.49c-.16.15-.07.29.28.5l.29-.25.29.27c.12-.11.23-.2.32-.3s0-.12,0-.18a.78.78,0,0,0-.16,0c-.06,0-.11.1-.19.16-.44-.52.17-.69.3-1a.79.79,0,0,0-1.16,0l.33.38C23.53,2.32,23.52,2.47,23.26,2.7Z"/><path d="M15,23.49a.91.91,0,0,1-1.09.19.92.92,0,0,1-.41-1.15,2.52,2.52,0,0,1,.7-1,7.5,7.5,0,0,1,.68-.56.25.25,0,0,1,.24,0,3.71,3.71,0,0,1,1.26,1.29,1.12,1.12,0,0,1,.17.76.87.87,0,0,1-.59.72.83.83,0,0,1-.89-.21Zm-.57-.61a.78.78,0,0,0,1.16,0c-.12-.12-.23-.26-.35-.39s-.18-.41.08-.58l.23.2c.19-.15.1-.3-.27-.5l-.28.25-.3-.27c-.1.1-.2.17-.29.27a.74.74,0,0,0,0,.19.54.54,0,0,0,.19,0,.57.57,0,0,0,.18-.15c.06.11.14.18.15.27C14.89,22.49,14.51,22.6,14.38,22.88Z"/><path d="M27.87,1.09a.87.87,0,0,1,.85-.28A.89.89,0,0,1,29.38,2a1.92,1.92,0,0,1-.21.46A4.27,4.27,0,0,1,28,3.6a.21.21,0,0,1-.28,0A4.11,4.11,0,0,1,26.5,2.34a1.11,1.11,0,0,1-.17-.85A.89.89,0,0,1,27.87,1.09ZM28.16,3c.46-.37.46-.37.25-.51l-.23.2c-.28-.2-.29-.34-.08-.59l.35-.39a.78.78,0,0,0-1.16,0s0,0,0,0l.33.38a.33.33,0,0,1-.08.57l-.24-.2c-.18.14-.08.32.28.49l.26-.24Z"/><path d="M23.56,23.48a.87.87,0,0,1-.83.29.91.91,0,0,1-.67-1.22,2.72,2.72,0,0,1,.77-1.09,3.9,3.9,0,0,1,.38-.33c.35-.28.36-.28.7,0a4.11,4.11,0,0,1,1,1.13,1.17,1.17,0,0,1,.17.79.87.87,0,0,1-.58.7A.9.9,0,0,1,23.56,23.48Zm.31-1.6A.61.61,0,0,0,24,22a.86.86,0,0,0,.17,0c0-.07,0-.15,0-.19a2.74,2.74,0,0,0-.3-.28l-.29.26-.3-.25c-.45.35-.45.36-.25.5l.25-.2c.25.22.26.37,0,.61l-.33.38a.78.78,0,0,0,1.17,0l-.35-.39C23.61,22.25,23.62,22.08,23.87,21.88Z"/><path d="M10.65,1.09a.89.89,0,0,1,1-.24A.9.9,0,0,1,12.15,2a3.4,3.4,0,0,1-1.43,1.59.22.22,0,0,1-.19,0A3.74,3.74,0,0,1,9.24,2.25.94.94,0,0,1,9.78.81.9.9,0,0,1,10.65,1.09ZM10.93,3c.4-.26.45-.35.27-.5l-.25.2a.35.35,0,0,1-.07-.59l.36-.4a.75.75,0,0,0-1.16,0h0l.33.39c.21.23.18.41-.09.56l-.24-.2c-.17.16-.13.24.27.51l.29-.25Z"/><path d="M27.87,23.49a.92.92,0,0,1-.87.27.89.89,0,0,1-.66-1.12,2,2,0,0,1,.23-.52A4.16,4.16,0,0,1,27.72,21a.23.23,0,0,1,.3,0,3.77,3.77,0,0,1,1.2,1.25,1.74,1.74,0,0,1,.19.7.79.79,0,0,1-.51.78.84.84,0,0,1-.93-.14Zm.58-.62-.35-.4c-.21-.24-.19-.4.08-.58l.25.2c.16-.16.09-.28-.28-.5l-.28.24-.3-.26a2.74,2.74,0,0,0-.3.28s0,.11,0,.17a.47.47,0,0,0,.17,0,.65.65,0,0,0,.16-.13c.25.19.27.37.08.58l-.36.41A.8.8,0,0,0,28.45,22.87Z"/><path d="M15,1.09a.88.88,0,0,1,.86-.28A.9.9,0,0,1,16.45,2a2.81,2.81,0,0,1-.78,1.09,2.83,2.83,0,0,1-.37.32c-.34.27-.37.29-.69,0a12.41,12.41,0,0,1-1-1.06,1.09,1.09,0,0,1-.21-.88A.89.89,0,0,1,15,1.09ZM15.25,3l.3-.28c.13-.11.08-.18-.05-.24l-.24.2c-.26-.2-.27-.37-.06-.6l.34-.39a.78.78,0,0,0-1.17,0l.35.4a.34.34,0,0,1-.07.58l-.25-.2c-.18.16-.15.21.27.5L15,2.74Z"/><path d="M10.65,23.49c-.53.42-1.08.39-1.4-.09a.93.93,0,0,1-.07-.95A3.63,3.63,0,0,1,10.56,21a.23.23,0,0,1,.21,0,3.82,3.82,0,0,1,1.28,1.34,1,1,0,0,1,0,1.1A.89.89,0,0,1,10.65,23.49Zm-.32-1.61c.28.2.29.35.08.59l-.34.39a.76.76,0,0,0,1.16,0l-.36-.4c-.19-.22-.16-.4.08-.57l.25.19c.18-.14.08-.31-.28-.49l-.27.24-.3-.26c-.12.11-.24.21-.34.32S10,22,10,22a.17.17,0,0,0,.14,0A.9.9,0,0,0,10.33,21.88Z"/><path d="M6.38,1.09A.89.89,0,0,1,7.9,1.9a2,2,0,0,1-.62,1c-.26.25-.55.46-.83.69a.2.2,0,0,1-.28,0A4.11,4.11,0,0,1,5,2.3a1.1,1.1,0,0,1-.17-.79A.88.88,0,0,1,6.28,1ZM6.62,3a3,3,0,0,0,.32-.28s0-.11,0-.17a.43.43,0,0,0-.16,0,1,1,0,0,0-.16.13c-.25-.18-.27-.35-.07-.57s.25-.28.38-.41a.78.78,0,0,0-1.17,0l.32.39c.21.24.19.38-.07.6a1.14,1.14,0,0,0-.17-.15s-.11,0-.16,0,0,.14,0,.18A4.23,4.23,0,0,0,6,3l.31-.26Z"/><path d="M37.4,16.59a.89.89,0,0,1,.14,1.19.92.92,0,0,1-1.16.28,3.52,3.52,0,0,1-1.52-1.39.19.19,0,0,1,0-.18,3.88,3.88,0,0,1,1.38-1.32,1,1,0,0,1,1.3.26A.89.89,0,0,1,37.4,16.59Zm-1.92.3c.1.11.18.21.27.29a.41.41,0,0,0,.19.05.63.63,0,0,0,0-.19.49.49,0,0,0-.11-.14c.18-.24.36-.27.58-.08l.41.36a.77.77,0,0,0,0-1.16l0,0c-.13.1-.25.21-.37.32s-.39.17-.58-.08a.79.79,0,0,0,.14-.17s0-.11,0-.16-.13,0-.16,0-.2.22-.3.33l.27.29Z"/><path d="M6.38,23.49a.91.91,0,0,1-1.53-.93,3,3,0,0,1,.8-1.15A4.51,4.51,0,0,1,6.19,21a.24.24,0,0,1,.22,0,3.77,3.77,0,0,1,1.32,1.28A1.1,1.1,0,0,1,7.9,23a.88.88,0,0,1-1.42.54Zm.56-.62a.11.11,0,0,0,0-.05c-.11-.13-.23-.25-.34-.37s-.18-.41.07-.57a.53.53,0,0,0,.15.11A1,1,0,0,0,7,22c0-.07,0-.14,0-.18s-.2-.18-.31-.28l-.29.27L6,21.58c-.11.11-.23.2-.32.31a.16.16,0,0,0,0,.16s.1,0,.14,0A1.41,1.41,0,0,0,6,21.88c.26.22.28.36.07.61l-.33.39A.8.8,0,0,0,6.94,22.87Z"/><path d="M37.4,12.29a.89.89,0,0,1,.25,1,.91.91,0,0,1-1.26.5,3.52,3.52,0,0,1-1.53-1.38.21.21,0,0,1,0-.19,3.47,3.47,0,0,1,1.53-1.38.9.9,0,0,1,1.06.21.87.87,0,0,1,0,1.14Zm-1.61.3c.2-.25.37-.27.58-.08l.41.36a.73.73,0,0,0,0-1.15l0,0-.36.32c-.22.2-.4.17-.57-.09a.55.55,0,0,0,.12-.14,1,1,0,0,0,0-.18c-.06,0-.14,0-.18,0s-.19.2-.29.31l.27.3-.27.3a2.6,2.6,0,0,0,.28.29s.13,0,.19,0a1,1,0,0,0,0-.18A.87.87,0,0,0,35.79,12.59Z"/><path d="M37,21.37c.13.66-.14,1.13-.73,1.21a1,1,0,0,1-.91-.42,3.79,3.79,0,0,1-.68-1.86.24.24,0,0,1,.09-.17,3.7,3.7,0,0,1,1.89-.54.94.94,0,0,1,1,.76C37.68,20.79,37.46,21.14,37,21.37Zm-1.58-.45c.27-.14.44-.09.55.17s.14.35.2.52a.77.77,0,0,0,.52-1l-.5.13c-.3.07-.45,0-.48-.34a.61.61,0,0,0,.17-.07.78.78,0,0,0,.1-.15c-.06,0-.12-.07-.17-.05a3,3,0,0,0-.39.14l.09.39-.37.14a3.19,3.19,0,0,0,.12.4c0,.05.09.08.14.12a.52.52,0,0,0,.06-.16A.51.51,0,0,0,35.37,20.92Z"/><path d="M1.11,16.59a.89.89,0,0,1,.12-1.42.94.94,0,0,1,1,0,3.72,3.72,0,0,1,1.46,1.35.21.21,0,0,1,0,.17,3.31,3.31,0,0,1-1.73,1.46.88.88,0,0,1-1-.4.86.86,0,0,1,.13-1.07ZM3,16.3,2.78,16s0-.05,0-.05H2.57c0,.05,0,.11,0,.14a1,1,0,0,0,.16.19c-.22.24-.38.26-.6.06L1.73,16a.79.79,0,0,0,0,1.18c.14-.12.27-.25.41-.36a.34.34,0,0,1,.57.08.88.88,0,0,0-.12.15.47.47,0,0,0,0,.17.58.58,0,0,0,.19,0,2.61,2.61,0,0,0,.27-.3l-.26-.3Z"/><path d="M1.57,3.2A.9.9,0,0,1,2.3,2a.94.94,0,0,1,.88.4,3.61,3.61,0,0,1,.7,1.9s0,.13-.1.16A3.82,3.82,0,0,1,2,5a1,1,0,0,1-1-.71C.83,3.81,1,3.46,1.57,3.2Zm1.85.61a2.74,2.74,0,0,0-.11-.37c0-.06-.1-.1-.15-.15a.59.59,0,0,0-.05.22c0,.16-.07.29-.22.23a.55.55,0,0,1-.27-.23A3.6,3.6,0,0,1,2.4,3a.75.75,0,0,0-.52,1l.49-.13c.3-.08.43,0,.5.32a.81.81,0,0,0-.21.1s-.05.09-.07.14.11.06.15,0,.27-.1.41-.15L3.05,4Z"/><path d="M37,3.21A.9.9,0,0,1,36.75,5a3.54,3.54,0,0,1-2-.54.18.18,0,0,1-.09-.15,3.58,3.58,0,0,1,.73-1.93.92.92,0,0,1,1.45,0A1,1,0,0,1,37,3.21Zm-1.31,1c.08-.32.21-.4.51-.32l.5.13a.77.77,0,0,0-.53-1l-.21.52c-.1.25-.3.31-.54.14a.65.65,0,0,0,.05-.2s-.05-.1-.07-.15-.12,0-.14.1-.07.28-.11.42l.37.14-.1.39a2.57,2.57,0,0,0,.41.15s.1,0,.15-.06,0-.11-.08-.14A1.33,1.33,0,0,0,35.64,4.2Z"/><path d="M1.57,21.37C1,21.13.83,20.78.93,20.31a.91.91,0,0,1,.82-.71,3.44,3.44,0,0,1,2.05.54.19.19,0,0,1,.09.15,3.71,3.71,0,0,1-.71,1.89.92.92,0,0,1-1.34.2A.9.9,0,0,1,1.57,21.37Zm1.57-.45a1.62,1.62,0,0,0,0,.19.58.58,0,0,0,.06.17s.12-.06.14-.11.08-.27.12-.41l-.37-.14.1-.39-.41-.15s-.1,0-.15.06a.32.32,0,0,0,.08.14,1.21,1.21,0,0,0,.2.09c-.07.32-.2.4-.51.32l-.5-.12a.77.77,0,0,0,.54,1c.06-.16.12-.32.19-.48S2.85,20.77,3.14,20.92Z"/><path d="M32.13,1.08a.91.91,0,0,1,1.37,0,.89.89,0,0,1,.15,1A3.47,3.47,0,0,1,32.3,3.62a.21.21,0,0,1-.19,0,3.57,3.57,0,0,1-1.4-1.43.93.93,0,0,1,.4-1.3A.89.89,0,0,1,32.13,1.08ZM31.88,2.7c-.06,0-.1-.1-.16-.12a1,1,0,0,0-.18,0c0,.06,0,.13,0,.17s.22.19.36.31l.23-.32.37.3a3.65,3.65,0,0,0,.26-.32s0-.11,0-.17a.47.47,0,0,0-.17,0,1.22,1.22,0,0,0-.17.15c-.26-.23-.27-.36-.06-.61l.32-.39a.75.75,0,0,0-1.16.05l.36.38C32.14,2.34,32.13,2.51,31.88,2.7Z"/><path d="M37.4,8a.89.89,0,0,1,.24,1,.79.79,0,0,1-.75.56,1.72,1.72,0,0,1-.76-.2,3.62,3.62,0,0,1-1.24-1.22.26.26,0,0,1,0-.24,3.58,3.58,0,0,1,1.41-1.32.92.92,0,0,1,1.39.58A.91.91,0,0,1,37.4,8Zm-.62-.6-.4.36a.34.34,0,0,1-.58-.08A1.22,1.22,0,0,0,36,7.5s0-.13,0-.14a.22.22,0,0,0-.16,0c-.11.1-.2.22-.3.33l.26.3-.27.3c.11.12.21.24.32.34A.1.1,0,0,0,36,8.48a1.39,1.39,0,0,0-.15-.19c.19-.25.36-.27.58-.07l.4.35A.79.79,0,0,0,36.78,7.39Z"/><path d="M1.12,12.29a.89.89,0,0,1-.29-.83A.91.91,0,0,1,2,10.76a2.3,2.3,0,0,1,1,.64c.23.23.42.49.63.74a.19.19,0,0,1,0,.28,4,4,0,0,1-1.28,1.24,1.21,1.21,0,0,1-.83.17A.89.89,0,0,1,1,12.43Zm.62.58.4-.36c.23-.19.41-.17.57.09a1,1,0,0,0-.12.16s0,.1,0,.16.14,0,.18,0,.19-.21.29-.32l-.27-.29.14-.14L3,12a2.42,2.42,0,0,0-.27-.28s-.13,0-.2,0a.53.53,0,0,0,0,.18,1,1,0,0,0,.12.16c-.2.24-.36.26-.57.07l-.41-.35A.76.76,0,0,0,1.74,12.87Z"/><path d="M32.14,23.48A.89.89,0,0,1,30.6,23a1.22,1.22,0,0,1,.27-.86A4,4,0,0,1,32.06,21a.3.3,0,0,1,.26,0,3.47,3.47,0,0,1,1.29,1.47.92.92,0,0,1-.48,1.31A.88.88,0,0,1,32.14,23.48Zm-.57-.63a.78.78,0,0,0,1.17,0c-.11-.13-.22-.27-.34-.4s-.17-.4.09-.58c.28.23.28.23.36.08l-.35-.41-.31.27-.3-.28-.32.29s0,.1,0,.16a.53.53,0,0,0,.18,0,1,1,0,0,0,.16-.13c.24.19.26.37.07.57Z"/><path d="M1.11,8A.88.88,0,0,1,.87,7,.9.9,0,0,1,2,6.48,3.4,3.4,0,0,1,3.66,7.9a.19.19,0,0,1,0,.18A3.65,3.65,0,0,1,2.16,9.45.91.91,0,0,1,1.11,8Zm.63.59.41-.36c.21-.2.41-.16.56.09a1.49,1.49,0,0,0-.12.14,1,1,0,0,0,0,.18c.06,0,.14,0,.18,0s.18-.21.28-.31L2.77,8,3,7.68c-.11-.12-.2-.23-.31-.33s-.11,0-.16,0a.33.33,0,0,0,0,.14,1.22,1.22,0,0,0,.15.17c-.18.25-.36.27-.58.08l-.41-.36A.79.79,0,0,0,1.74,8.57Z"/><path d="M19.21,23.53a.87.87,0,0,1-1.32-.09.91.91,0,0,1-.11-1A3.45,3.45,0,0,1,19.18,21a.19.19,0,0,1,.18,0,3.69,3.69,0,0,1,1.35,1.45.91.91,0,0,1-.83,1.37A2.79,2.79,0,0,1,19.21,23.53ZM19,21.88c.26.21.27.36.07.59l-.34.39a.73.73,0,0,0,1.15,0l-.33-.38c-.21-.24-.2-.39.07-.59l.23.2c.19-.13.12-.27-.26-.5l-.28.26-.3-.27a3.26,3.26,0,0,0-.33.31s0,.1,0,.16a.7.7,0,0,0,.16,0A1,1,0,0,0,19,21.88Z"/><path d="M19.25,1.08a.9.9,0,0,1,1.39.06,1,1,0,0,1,.09,1,3.08,3.08,0,0,1-1,1.25c-.52.4-.4.42-.94,0a3.22,3.22,0,0,1-1-1.18A.92.92,0,0,1,18.4.81.88.88,0,0,1,19.25,1.08Zm.31,1.62c-.26-.22-.27-.36-.06-.61l.34-.38a.76.76,0,0,0-1.16,0L19,2.1c.22.24.2.38-.06.6a.8.8,0,0,0-.17-.15.42.42,0,0,0-.16,0c0,.06,0,.13,0,.16s.21.21.32.31l.3-.27.29.27c.12-.11.23-.2.33-.31s0-.11,0-.16a.43.43,0,0,0-.16,0C19.67,2.59,19.62,2.65,19.56,2.7Z"/><path d="M19.49,12.28a2.4,2.4,0,0,1-1,2.1,3.36,3.36,0,0,1-4-.07,2.22,2.22,0,0,1-.19-3.41,3.27,3.27,0,0,1,4.79.35A1.9,1.9,0,0,1,19.49,12.28Zm-4.56.13,0,0c0,.23,0,.47.06.71a1.51,1.51,0,0,0,1.81,1.44,1.09,1.09,0,0,0,1-.66,3.5,3.5,0,0,0,0-2.75,1.08,1.08,0,0,0-.73-.65,2.42,2.42,0,0,0-.71-.08,1.21,1.21,0,0,0-1.21.85A8.56,8.56,0,0,0,14.93,12.41Z"/><path d="M30.63,13.45h.26v1.36H26.34v-.25l0,0c.59-.08.67-.16.68-.75,0-.85,0-1.71,0-2.56,0-.61-.1-.73-.71-.81v-.24h4.24v1.16c-.19.06-.31,0-.38-.18a.83.83,0,0,0-.81-.6l-.87,0c-.18,0-.27.07-.26.28,0,.48,0,.95,0,1.42a.77.77,0,0,0,1-.52c.07-.23.18-.26.38-.2v1.85c-.17,0-.29,0-.36-.2-.13-.44-.45-.6-1-.54,0,.46,0,.92,0,1.38,0,.25.26.44.59.45a4.16,4.16,0,0,0,.93-.06.92.92,0,0,0,.72-.64Z"/><path d="M8,10.5v-.27h2.67v.27l-.41.06a.34.34,0,0,0-.3.29c0,.1,0,.21,0,.31v2.37c0,.75.2,1,1,1a2.7,2.7,0,0,0,.85-.14,1,1,0,0,0,.6-.64c.06-.21.17-.27.37-.22v1.33H8v-.27l.27,0c.3-.06.41-.18.41-.49,0-1,0-2,0-3a.38.38,0,0,0-.36-.41Z"/><path d="M20,10.45v-.24H22.7v.25l-.33,0c-.31.06-.38.19-.27.48.18.46.38.91.57,1.36s.34.78.51,1.19a.85.85,0,0,0,.09-.15c.28-.63.57-1.26.83-1.89a2.07,2.07,0,0,0,.16-.59c0-.28,0-.35-.3-.4l-.32,0v-.23h1.93v.25c-.52,0-.74.37-.93.78-.53,1.16-1.07,2.32-1.6,3.47-.06.13-.12.2-.27.2a.26.26,0,0,1-.28-.19c-.53-1.2-1.07-2.4-1.61-3.6C20.63,10.58,20.62,10.58,20,10.45Z"/><path d="M23.76,1.28a.91.91,0,0,1,1.11-.18.89.89,0,0,1,.4,1.1,3.32,3.32,0,0,1-1.44,1.63.22.22,0,0,1-.19,0A3.76,3.76,0,0,1,22.38,2.5a1,1,0,0,1,.19-1.34A.89.89,0,0,1,23.76,1.28Zm-.3,1.62a.75.75,0,0,0-.14-.12l-.12-.1c-.16.16-.08.29.28.51l.28-.26.3.27c.11-.1.23-.19.32-.29s0-.12,0-.18a.78.78,0,0,0-.16,0,2.31,2.31,0,0,0-.19.16c-.44-.52.17-.7.29-1a.78.78,0,0,0-1.15,0l.33.37C23.73,2.52,23.72,2.67,23.46,2.9Z"/><path d="M15.15,23.69a.9.9,0,0,1-1.5-1,2.52,2.52,0,0,1,.7-1,6.13,6.13,0,0,1,.68-.56.25.25,0,0,1,.24,0,3.79,3.79,0,0,1,1.26,1.29,1.12,1.12,0,0,1,.17.76.89.89,0,0,1-1.49.51Zm-.57-.61a.78.78,0,0,0,1.16,0l-.35-.39c-.21-.23-.18-.41.07-.59l.24.2c.19-.14.1-.29-.27-.49l-.28.24-.3-.26a2.5,2.5,0,0,0-.29.27s0,.12-.05.18a.4.4,0,0,0,.19,0,.75.75,0,0,0,.18-.15.82.82,0,0,1,.15.27C15.09,22.69,14.71,22.8,14.58,23.08Z"/><path d="M28.07,1.29A.89.89,0,0,1,28.92,1a.91.91,0,0,1,.66,1.18,1.92,1.92,0,0,1-.21.46A4.41,4.41,0,0,1,28.21,3.8a.21.21,0,0,1-.28,0A4.22,4.22,0,0,1,26.7,2.54a1.16,1.16,0,0,1-.18-.85A.9.9,0,0,1,28.07,1.29Zm.29,1.91c.46-.37.46-.37.25-.51l-.23.2c-.28-.2-.29-.35-.08-.59l.35-.39a.76.76,0,0,0-1.16,0s0,0,0,0l.33.38a.34.34,0,0,1-.08.58l-.24-.2c-.18.14-.08.32.28.49l.26-.24Z"/><path d="M23.76,23.68a.87.87,0,0,1-.83.29.9.9,0,0,1-.67-1.22,2.72,2.72,0,0,1,.77-1.1l.38-.33c.35-.27.36-.27.7,0a4.11,4.11,0,0,1,1,1.13,1.23,1.23,0,0,1,.17.79.84.84,0,0,1-.59.69A.87.87,0,0,1,23.76,23.68Zm.3-1.61c.06.05.1.11.15.13a.58.58,0,0,0,.18,0c0-.07,0-.15,0-.19s-.19-.18-.3-.28l-.3.26-.29-.25c-.45.35-.45.36-.25.5l.24-.2c.26.22.26.37.05.61s-.23.25-.34.38a.8.8,0,0,0,1.18,0L24,22.67C23.8,22.45,23.82,22.28,24.06,22.07Z"/><path d="M10.85,1.29a.87.87,0,0,1,1-.24.9.9,0,0,1,.5,1.19,3.33,3.33,0,0,1-1.42,1.59.21.21,0,0,1-.19,0,3.8,3.8,0,0,1-1.3-1.37A.93.93,0,0,1,10,1,.88.88,0,0,1,10.85,1.29Zm.28,1.9c.4-.26.45-.35.27-.5l-.26.2a.35.35,0,0,1-.06-.59l.35-.4a.75.75,0,0,0-1.15,0s0,0,0,0l.33.38c.21.24.18.42-.09.57l-.24-.2c-.18.16-.13.24.27.51l.29-.25Z"/><path d="M28.06,23.69a.9.9,0,0,1-.86.27.88.88,0,0,1-.66-1.12,2,2,0,0,1,.23-.52,4.12,4.12,0,0,1,1.14-1.14.24.24,0,0,1,.31,0,3.87,3.87,0,0,1,1.2,1.25,1.7,1.7,0,0,1,.19.7.79.79,0,0,1-.52.78.83.83,0,0,1-.92-.14Zm.59-.63-.35-.4c-.21-.23-.19-.39.08-.57l.25.2c.16-.17.09-.28-.28-.5l-.28.24-.3-.26c-.11.1-.22.18-.31.28s0,.11,0,.17a.47.47,0,0,0,.17,0,1,1,0,0,0,.16-.13c.25.18.27.36.08.58l-.36.41A.79.79,0,0,0,28.65,23.06Z"/><path d="M15.15,1.29A.87.87,0,0,1,16,1a.9.9,0,0,1,.65,1.23,2.92,2.92,0,0,1-.78,1.09,3.87,3.87,0,0,1-.37.32c-.34.27-.38.29-.69,0a12.41,12.41,0,0,1-1-1.06,1.06,1.06,0,0,1-.21-.88A.89.89,0,0,1,15.15,1.29Zm.3,1.91.3-.27c.13-.11.08-.18-.05-.25l-.24.21c-.26-.2-.27-.37-.06-.6l.34-.39a.78.78,0,0,0-1.17,0l.35.39c.19.22.17.4-.07.59l-.25-.21c-.19.17-.16.22.27.51l.28-.26Z"/><path d="M10.85,23.69a.9.9,0,0,1-1.41-.09,1,1,0,0,1-.06-1,3.63,3.63,0,0,1,1.38-1.5.24.24,0,0,1,.2,0,3.79,3.79,0,0,1,1.29,1.35,1,1,0,0,1,0,1.1A.89.89,0,0,1,10.85,23.69Zm-.32-1.61c.28.2.29.35.08.59l-.34.39a.76.76,0,0,0,1.16,0l-.36-.4c-.19-.23-.17-.41.08-.57l.24.19c.19-.14.08-.31-.27-.49l-.27.24-.31-.26c-.11.11-.23.2-.34.32s0,.11,0,.14a.17.17,0,0,0,.14,0A2.32,2.32,0,0,0,10.53,22.08Z"/><path d="M6.58,1.29A.89.89,0,0,1,8.1,2.1a2,2,0,0,1-.62,1c-.26.25-.55.46-.83.69a.21.21,0,0,1-.29,0A4.36,4.36,0,0,1,5.17,2.5,1.14,1.14,0,0,1,5,1.71.88.88,0,0,1,6.48,1.2Zm.24,1.92a2.89,2.89,0,0,0,.31-.28s0-.11,0-.17a.43.43,0,0,0-.16,0,.65.65,0,0,0-.16.13c-.26-.18-.28-.36-.07-.58l.38-.41A.79.79,0,0,0,6,1.9l.33.38c.21.25.19.39-.07.61a1.14,1.14,0,0,0-.17-.15s-.11,0-.16,0,0,.14,0,.17a2.94,2.94,0,0,0,.31.3l.31-.25Z"/><path d="M37.6,16.79A.88.88,0,0,1,37.73,18a.92.92,0,0,1-1.15.29,3.52,3.52,0,0,1-1.52-1.39.21.21,0,0,1,0-.19,3.77,3.77,0,0,1,1.38-1.31,1,1,0,0,1,1.3.25A.91.91,0,0,1,37.6,16.79Zm-1.92.3a3.84,3.84,0,0,0,.27.29s.13,0,.19.05a.63.63,0,0,0,0-.19A.38.38,0,0,0,36,17.1a.34.34,0,0,1,.58-.08l.4.36a.76.76,0,0,0,0-1.16h0l-.36.33c-.22.19-.4.17-.59-.08a.83.83,0,0,0,.15-.17s0-.11,0-.16-.13,0-.16,0a3.18,3.18,0,0,0-.3.33l.27.29Z"/><path d="M6.57,23.68a.88.88,0,0,1-1.06.24.91.91,0,0,1-.46-1.16,2.88,2.88,0,0,1,.8-1.15,4.51,4.51,0,0,1,.54-.44.22.22,0,0,1,.22,0,3.77,3.77,0,0,1,1.32,1.28,1.1,1.1,0,0,1,.17.79.88.88,0,0,1-1.42.54Zm.57-.62s0,0,0,0l-.35-.37c-.2-.21-.17-.4.08-.56,0,0,.09.09.15.11a.47.47,0,0,0,.17,0c0-.06,0-.14,0-.17a4.12,4.12,0,0,0-.31-.28l-.3.27-.3-.25c-.11.11-.23.2-.32.31a.16.16,0,0,0,0,.16s.1,0,.13,0a1.54,1.54,0,0,0,.19-.17c.26.22.27.36.07.61L6,23.08A.8.8,0,0,0,7.14,23.06Z"/><path d="M37.6,12.49a.89.89,0,0,1,.25,1,.92.92,0,0,1-1.26.5,3.53,3.53,0,0,1-1.53-1.38.21.21,0,0,1,0-.19A3.5,3.5,0,0,1,36.59,11a.93.93,0,0,1,1.07.2.88.88,0,0,1,.05,1.15Zm-1.61.3c.2-.25.37-.27.58-.08l.41.36a.73.73,0,0,0,0-1.15l0,0-.36.32c-.22.2-.4.17-.57-.09a.49.49,0,0,0,.11-.14.53.53,0,0,0,0-.18c-.06,0-.14,0-.18,0s-.19.2-.29.31l.27.29-.27.31a2.6,2.6,0,0,0,.28.29.49.49,0,0,0,.19,0,.42.42,0,0,0-.16-.33Z"/><path d="M37.15,21.57c.13.66-.15,1.13-.73,1.21a1,1,0,0,1-.91-.42,3.79,3.79,0,0,1-.68-1.86.2.2,0,0,1,.09-.17,3.61,3.61,0,0,1,1.89-.54.94.94,0,0,1,1,.75A.91.91,0,0,1,37.15,21.57Zm-1.58-.45c.27-.15.44-.09.55.17s.13.35.2.51a.76.76,0,0,0,.52-1l-.51.14c-.3.07-.44,0-.48-.34a.44.44,0,0,0,.17-.07.83.83,0,0,0,.11-.15c-.06,0-.12-.07-.17-.05a3,3,0,0,0-.39.14l.09.39-.37.14a3.19,3.19,0,0,0,.12.4c0,.05.09.08.14.12a.58.58,0,0,0,.06-.17A.46.46,0,0,0,35.57,21.12Z"/><path d="M1.31,16.79a.9.9,0,0,1,.11-1.42,1,1,0,0,1,1,0,3.63,3.63,0,0,1,1.45,1.35.17.17,0,0,1,0,.17,3.19,3.19,0,0,1-1.72,1.45.88.88,0,0,1-.88-1.46Zm1.92-.29L3,16.2s0,0,0,0a1,1,0,0,0-.17,0c0,.05,0,.11,0,.14a1.39,1.39,0,0,0,.15.19c-.21.24-.37.26-.6.06l-.39-.35a.79.79,0,0,0,0,1.18L2.34,17a.34.34,0,0,1,.57.09.88.88,0,0,0-.12.15.86.86,0,0,0,0,.17c.07,0,.15,0,.19,0s.18-.2.28-.3L3,16.79Z"/><path d="M1.77,3.4A.89.89,0,0,1,2.5,2.19a.94.94,0,0,1,.88.4,3.61,3.61,0,0,1,.7,1.89.19.19,0,0,1-.1.16,3.72,3.72,0,0,1-1.8.55,1,1,0,0,1-1.05-.71C1,4,1.22,3.66,1.77,3.4ZM3.62,4a2.74,2.74,0,0,0-.11-.37c0-.06-.1-.1-.15-.15a.59.59,0,0,0,0,.22c0,.16-.08.28-.22.23a.56.56,0,0,1-.27-.23,5.15,5.15,0,0,1-.23-.54.74.74,0,0,0-.51,1l.48-.12c.31-.08.44,0,.51.32a1.33,1.33,0,0,0-.21.09s0,.1-.07.15.11.06.15.05.27-.1.41-.15l-.1-.39Z"/><path d="M37.15,3.41a.88.88,0,0,1,.62.63A.9.9,0,0,1,37,5.17a3.4,3.4,0,0,1-2-.54.16.16,0,0,1-.09-.14,3.65,3.65,0,0,1,.72-1.93.92.92,0,0,1,1.45,0A1,1,0,0,1,37.15,3.41Zm-1.31,1c.08-.32.2-.4.51-.32l.5.13a.76.76,0,0,0-.53-1l-.21.52c-.1.25-.3.3-.54.14a.65.65,0,0,0,0-.2,1,1,0,0,0-.07-.15s-.12,0-.14.1A2.58,2.58,0,0,0,35.3,4l.36.14-.09.39a2.26,2.26,0,0,0,.41.15s.1,0,.15-.06,0-.11-.08-.14A1.33,1.33,0,0,0,35.84,4.4Z"/><path d="M1.77,21.57A.9.9,0,0,1,2,19.8,3.46,3.46,0,0,1,4,20.34a.18.18,0,0,1,.08.15,3.7,3.7,0,0,1-.7,1.89.92.92,0,0,1-1.34.2A.9.9,0,0,1,1.77,21.57Zm1.57-.46c0,.08,0,.14,0,.2a.58.58,0,0,0,.06.17c.05,0,.12-.07.14-.12a3.79,3.79,0,0,0,.12-.4l-.37-.14.1-.39-.41-.15s-.1,0-.15.06,0,.11.07.14a1.33,1.33,0,0,0,.21.09c-.07.32-.2.4-.51.32l-.5-.13a.78.78,0,0,0,.53,1c.07-.16.13-.32.2-.49S3.05,21,3.34,21.11Z"/><path d="M32.33,1.28a.91.91,0,0,1,1.37,0,.89.89,0,0,1,.15,1A3.57,3.57,0,0,1,32.5,3.82a.21.21,0,0,1-.19,0,3.63,3.63,0,0,1-1.4-1.43.92.92,0,0,1,.4-1.3A.89.89,0,0,1,32.33,1.28ZM32.07,2.9a.53.53,0,0,0-.15-.12,1,1,0,0,0-.18,0c0,.06,0,.13,0,.16a3.66,3.66,0,0,0,.35.31l.24-.31.37.3A3.65,3.65,0,0,0,33,2.9s0-.11,0-.17a.46.46,0,0,0-.17,0,1.22,1.22,0,0,0-.17.15c-.26-.23-.27-.36-.06-.61l.32-.39a.76.76,0,0,0-1.16,0l.36.39C32.34,2.54,32.33,2.7,32.07,2.9Z"/><path d="M37.6,8.18a.91.91,0,0,1,.24,1,.79.79,0,0,1-.75.56,1.65,1.65,0,0,1-.76-.2,3.62,3.62,0,0,1-1.24-1.22.29.29,0,0,1,0-.24,3.68,3.68,0,0,1,1.42-1.32.92.92,0,0,1,1.39.58A.89.89,0,0,1,37.6,8.18ZM37,7.59l-.4.36A.34.34,0,0,1,36,7.87a2.09,2.09,0,0,0,.14-.17s0-.13,0-.14-.13,0-.16,0-.2.22-.31.33l.27.3-.27.3.31.34s.12,0,.14,0a.12.12,0,0,0,0-.13A.74.74,0,0,0,36,8.49c.2-.25.37-.27.59-.08l.4.36A.79.79,0,0,0,37,7.59Z"/><path d="M1.31,12.48A.88.88,0,0,1,1,11.66.9.9,0,0,1,2.18,11a2.33,2.33,0,0,1,1,.64c.23.23.42.49.63.74a.2.2,0,0,1,0,.28,4.2,4.2,0,0,1-1.28,1.24,1.16,1.16,0,0,1-.83.16.88.88,0,0,1-.53-1.39Zm.63.59.4-.36c.22-.2.4-.17.57.09,0,0-.09.1-.13.16a.7.7,0,0,0,0,.16c.06,0,.14,0,.18,0s.19-.2.29-.31L3,12.48a.86.86,0,0,0,.13-.14l.14-.16c-.1-.1-.18-.21-.27-.29a.59.59,0,0,0-.2,0,.53.53,0,0,0,0,.18,1,1,0,0,0,.12.16c-.2.24-.37.26-.58.07l-.4-.35A.75.75,0,0,0,1.94,13.07Z"/><path d="M32.34,23.68a.89.89,0,0,1-1.54-.51,1.26,1.26,0,0,1,.27-.87,4.11,4.11,0,0,1,1.19-1.12.3.3,0,0,1,.26,0,3.62,3.62,0,0,1,1.29,1.48A.92.92,0,0,1,33.33,24,.89.89,0,0,1,32.34,23.68Zm-.57-.63a.78.78,0,0,0,1.17,0c-.11-.14-.23-.27-.34-.4s-.18-.4.09-.59c.28.24.28.24.35.09l-.35-.41-.3.26-.3-.27a3,3,0,0,0-.32.29s0,.1,0,.16.13,0,.18,0a.61.61,0,0,0,.16-.12c.24.19.26.37.07.57Z"/><path d="M1.31,8.18a.9.9,0,0,1,.93-1.5A3.35,3.35,0,0,1,3.86,8.1a.2.2,0,0,1,0,.17A3.52,3.52,0,0,1,2.36,9.64a.91.91,0,0,1-1.29-.49C1,8.83,1,8.58,1.31,8.18Zm.63.59.4-.37a.33.33,0,0,1,.57.1.81.81,0,0,0-.12.14,1,1,0,0,0,0,.18c.06,0,.14,0,.18,0s.18-.21.28-.32L3,8.18l.26-.3c-.11-.12-.2-.23-.31-.33s-.11,0-.16,0a.37.37,0,0,0,0,.15c0,.06.1.12.14.17A.34.34,0,0,1,2.33,8l-.4-.36A.79.79,0,0,0,1.94,8.77Z"/><path d="M19.41,23.73a.87.87,0,0,1-1.32-.09.91.91,0,0,1-.11-1,3.45,3.45,0,0,1,1.4-1.53.19.19,0,0,1,.18,0,3.62,3.62,0,0,1,1.35,1.45A.9.9,0,0,1,20.08,24,2.27,2.27,0,0,1,19.41,23.73Zm-.26-1.66c.26.22.27.37.07.6l-.34.39a.73.73,0,0,0,1.15,0l-.33-.38c-.22-.24-.2-.39.06-.59l.24.2c.19-.13.12-.27-.27-.5l-.28.25-.29-.27-.33.31s0,.11,0,.17a.7.7,0,0,0,.16,0A.76.76,0,0,0,19.15,22.07Z"/><path d="M19.45,1.28a.9.9,0,0,1,1.39.06,1,1,0,0,1,.09,1,3,3,0,0,1-1,1.25c-.52.41-.4.43-.94,0a3.22,3.22,0,0,1-1-1.18A.92.92,0,0,1,18.6,1,.88.88,0,0,1,19.45,1.28Zm.31,1.61c-.26-.22-.27-.35-.06-.6L20,1.9a.76.76,0,0,0-1.16,0l.33.37c.22.25.2.39-.06.6A1,1,0,0,0,19,2.75s-.11,0-.16,0,0,.13,0,.16.21.2.32.31l.3-.27.29.27c.12-.11.23-.2.33-.31s0-.11,0-.16a.42.42,0,0,0-.16,0Z"/></g><g class="cls-3"><path d="M19.15,11.94a2.4,2.4,0,0,1-1,2.1,3.36,3.36,0,0,1-4-.07A2.22,2.22,0,0,1,14,10.56a3.27,3.27,0,0,1,4.79.35A2,2,0,0,1,19.15,11.94Zm-4.56.13,0,0c0,.23,0,.47.06.71a1.51,1.51,0,0,0,1.81,1.44,1.09,1.09,0,0,0,1-.66,3.5,3.5,0,0,0,0-2.75,1.08,1.08,0,0,0-.73-.65,2.82,2.82,0,0,0-.71-.09,1.23,1.23,0,0,0-1.21.86A8.56,8.56,0,0,0,14.59,12.07Z"/><path d="M30.29,13.11h.26v1.36H26v-.25l0,0c.59-.08.67-.16.68-.75,0-.85,0-1.71,0-2.56,0-.61-.1-.73-.71-.81V9.84h4.24V11c-.19.06-.31,0-.38-.18a.83.83,0,0,0-.81-.6l-.87,0c-.18,0-.27.07-.26.28,0,.48,0,.95,0,1.42a.77.77,0,0,0,1-.52c.07-.23.18-.26.38-.2V13c-.17,0-.29,0-.36-.2-.13-.44-.45-.6-1-.54,0,.46,0,.92,0,1.38,0,.25.26.44.59.45a4.85,4.85,0,0,0,.93-.06.92.92,0,0,0,.72-.64Z"/><path d="M7.68,10.16V9.89h2.67v.27l-.41.06a.34.34,0,0,0-.3.29c0,.1,0,.21,0,.31v2.37c0,.75.2,1,1,1a2.7,2.7,0,0,0,.85-.14,1,1,0,0,0,.6-.64c.06-.21.17-.27.36-.22v1.33H7.69v-.27l.27,0c.3-.06.41-.18.41-.49,0-1,0-2,0-3A.38.38,0,0,0,8,10.22Z"/><path d="M19.7,10.11V9.87h2.66v.25l-.33.05c-.31.06-.38.19-.27.48.18.46.38.91.57,1.36l.51,1.19a.85.85,0,0,0,.09-.15c.28-.63.57-1.26.83-1.89a2.07,2.07,0,0,0,.16-.59c0-.28,0-.35-.3-.4l-.32-.05V9.89h1.93v.25c-.52,0-.74.36-.93.78-.53,1.16-1.07,2.32-1.6,3.47-.06.13-.12.2-.27.2a.26.26,0,0,1-.28-.19c-.53-1.2-1.08-2.4-1.61-3.6C20.29,10.24,20.28,10.24,19.7,10.11Z"/><path d="M23.42.94A.91.91,0,0,1,24.53.76a.89.89,0,0,1,.4,1.1,3.32,3.32,0,0,1-1.44,1.63.22.22,0,0,1-.19,0A3.76,3.76,0,0,1,22,2.16,1,1,0,0,1,22.23.81.9.9,0,0,1,23.42.94Zm-.3,1.62A.75.75,0,0,0,23,2.44l-.12-.1c-.16.16-.08.29.28.51l.28-.26.3.27c.11-.1.23-.19.32-.29s0-.12,0-.18a.78.78,0,0,0-.16,0,1.35,1.35,0,0,0-.19.16c-.44-.52.17-.7.29-1a.78.78,0,0,0-1.15,0l.33.37C23.39,2.18,23.38,2.33,23.12,2.56Z"/><path d="M14.81,23.35a.9.9,0,0,1-1.5-1,2.52,2.52,0,0,1,.7-1,6.13,6.13,0,0,1,.68-.56.25.25,0,0,1,.24,0,3.79,3.79,0,0,1,1.26,1.29,1.12,1.12,0,0,1,.17.76.85.85,0,0,1-.59.71.84.84,0,0,1-.9-.2Zm-.57-.61a.78.78,0,0,0,1.16,0l-.35-.39c-.21-.23-.18-.41.07-.59l.24.2c.19-.14.1-.29-.27-.49l-.28.24-.3-.26a2.5,2.5,0,0,0-.29.27s0,.12-.05.18a.4.4,0,0,0,.19,0,1,1,0,0,0,.18-.15.82.82,0,0,1,.15.27C14.75,22.35,14.37,22.46,14.24,22.74Z"/><path d="M27.73,1a.89.89,0,0,1,.85-.29.91.91,0,0,1,.66,1.18A1.92,1.92,0,0,1,29,2.3a4.41,4.41,0,0,1-1.16,1.16.21.21,0,0,1-.28,0A4.22,4.22,0,0,1,26.36,2.2a1.16,1.16,0,0,1-.18-.85A.9.9,0,0,1,27.73,1ZM28,2.86c.46-.37.46-.37.25-.51l-.23.2c-.28-.2-.29-.35-.08-.59l.34-.39a.75.75,0,0,0-1.15,0s0,0,0,0L27.5,2a.34.34,0,0,1-.08.58l-.24-.2c-.18.14-.08.32.28.49l.26-.24Z"/><path d="M23.42,23.34a.89.89,0,0,1-.83.29.9.9,0,0,1-.67-1.22,2.72,2.72,0,0,1,.77-1.1l.38-.33c.35-.27.36-.27.7,0a4.11,4.11,0,0,1,1,1.13,1.23,1.23,0,0,1,.17.79.84.84,0,0,1-.59.69A.87.87,0,0,1,23.42,23.34Zm.3-1.61c.06.05.1.11.15.13a.58.58,0,0,0,.18,0c0-.07,0-.15,0-.19a2.68,2.68,0,0,0-.3-.28l-.3.26-.29-.25c-.45.35-.45.36-.25.5l.24-.21c.26.23.26.38.05.62s-.23.25-.34.38a.8.8,0,0,0,1.18,0l-.35-.39C23.46,22.11,23.48,21.94,23.72,21.73Z"/><path d="M10.51,1a.87.87,0,0,1,1-.24A.9.9,0,0,1,12,1.9a3.38,3.38,0,0,1-1.42,1.59.21.21,0,0,1-.19,0A3.8,3.8,0,0,1,9.09,2.1.93.93,0,0,1,9.64.67.88.88,0,0,1,10.51,1Zm.28,1.9c.4-.26.45-.35.27-.5l-.26.2A.35.35,0,0,1,10.74,2l.35-.4a.75.75,0,0,0-1.15,0s0,0,0,0l.33.38c.21.24.18.42-.09.57L10,2.34c-.18.16-.13.24.27.51l.29-.25Z"/><path d="M27.72,23.35a.9.9,0,0,1-.86.27.88.88,0,0,1-.66-1.12,2,2,0,0,1,.23-.52,4.12,4.12,0,0,1,1.14-1.14.26.26,0,0,1,.31,0,4,4,0,0,1,1.2,1.26,1.7,1.7,0,0,1,.19.7.79.79,0,0,1-.52.78.83.83,0,0,1-.92-.14Zm.59-.63-.35-.4c-.21-.23-.19-.39.08-.57l.25.2c.16-.17.09-.28-.28-.5l-.28.24-.3-.26c-.11.1-.22.18-.31.28s0,.11,0,.17a.47.47,0,0,0,.17,0,1,1,0,0,0,.16-.13c.25.18.27.36.08.58l-.36.41A.79.79,0,0,0,28.31,22.72Z"/><path d="M14.81,1a.87.87,0,0,1,.85-.28.9.9,0,0,1,.65,1.23A2.92,2.92,0,0,1,15.53,3a3.87,3.87,0,0,1-.37.32c-.34.27-.38.29-.69,0a12.41,12.41,0,0,1-1-1.06,1.06,1.06,0,0,1-.21-.88A.89.89,0,0,1,14.81,1Zm.3,1.91.3-.27c.13-.11.08-.18-.05-.25l-.24.21c-.26-.2-.27-.37-.06-.6l.34-.39a.78.78,0,0,0-1.17,0l.35.39c.19.22.17.4-.07.59l-.25-.21c-.19.16-.16.22.27.51l.28-.26Z"/><path d="M10.51,23.35a.9.9,0,0,1-1.41-.09,1,1,0,0,1-.06-1,3.63,3.63,0,0,1,1.38-1.5.24.24,0,0,1,.2,0,3.79,3.79,0,0,1,1.29,1.35,1,1,0,0,1,0,1.1A.89.89,0,0,1,10.51,23.35Zm-.32-1.61c.28.2.29.35.08.59l-.34.39a.76.76,0,0,0,1.16,0l-.36-.4c-.19-.23-.17-.41.08-.57l.24.19c.19-.14.08-.31-.27-.49l-.27.24-.31-.26c-.11.11-.23.2-.34.32a.15.15,0,0,0,0,.13.14.14,0,0,0,.14,0A2.32,2.32,0,0,0,10.19,21.74Z"/><path d="M6.24,1a.89.89,0,0,1,1.52.81,2,2,0,0,1-.62,1c-.26.25-.55.46-.83.69a.21.21,0,0,1-.29,0,4.36,4.36,0,0,1-1.19-1.3,1.14,1.14,0,0,1-.16-.79A.88.88,0,0,1,6.14.86Zm.24,1.92a2.89,2.89,0,0,0,.31-.28s0-.11,0-.18a.88.88,0,0,0-.16,0,.65.65,0,0,0-.16.13c-.26-.18-.28-.36-.07-.58l.38-.41a.79.79,0,0,0-1.18,0L6,1.94c.21.25.19.39-.07.61a1.14,1.14,0,0,0-.17-.15s-.11,0-.16,0,0,.14,0,.17a2.94,2.94,0,0,0,.31.3l.31-.25Z"/><path d="M37.26,16.45a.88.88,0,0,1,.13,1.18.92.92,0,0,1-1.15.29,3.52,3.52,0,0,1-1.52-1.39.21.21,0,0,1,0-.19A3.69,3.69,0,0,1,36.11,15a.94.94,0,0,1,1.29.25A.89.89,0,0,1,37.26,16.45Zm-1.92.3a3.84,3.84,0,0,0,.27.29s.13,0,.19.05a.63.63,0,0,0,0-.19.38.38,0,0,0-.11-.14.34.34,0,0,1,.58-.08l.4.36a.76.76,0,0,0,0-1.16h0l-.36.33c-.22.19-.4.17-.59-.08A.83.83,0,0,0,35.8,16s0-.11,0-.16-.13,0-.16,0a3.18,3.18,0,0,0-.3.33l.27.29Z"/><path d="M6.23,23.34a.88.88,0,0,1-1.06.24.91.91,0,0,1-.46-1.16,2.88,2.88,0,0,1,.8-1.15,4.51,4.51,0,0,1,.54-.44.22.22,0,0,1,.22,0A3.77,3.77,0,0,1,7.59,22.1a1.1,1.1,0,0,1,.17.79.88.88,0,0,1-1.42.54Zm.57-.62s0,0,0,0l-.35-.37c-.2-.21-.17-.4.08-.56,0,0,.09.09.15.11a.47.47,0,0,0,.17,0c0-.06,0-.14,0-.17a4.12,4.12,0,0,0-.31-.28l-.3.27-.3-.25c-.11.11-.23.2-.32.31a.16.16,0,0,0,0,.16s.1,0,.13,0a1.54,1.54,0,0,0,.19-.17c.26.22.27.36.07.61l-.33.39A.8.8,0,0,0,6.8,22.72Z"/><path d="M37.26,12.15a.89.89,0,0,1,.25,1,.92.92,0,0,1-1.26.5,3.53,3.53,0,0,1-1.53-1.38.21.21,0,0,1,0-.19,3.5,3.5,0,0,1,1.52-1.38.93.93,0,0,1,1.07.2.88.88,0,0,1,0,1.15Zm-1.61.3c.2-.25.37-.27.58-.08l.41.36a.73.73,0,0,0,0-1.15l0,0-.36.32c-.22.2-.4.17-.57-.09a.49.49,0,0,0,.11-.14.53.53,0,0,0,0-.18c-.06,0-.14,0-.18,0s-.19.2-.29.31l.27.29-.27.31a2.6,2.6,0,0,0,.28.29s.12,0,.19,0a.42.42,0,0,0-.16-.33Z"/><path d="M36.81,21.22c.13.67-.15,1.14-.73,1.22a1,1,0,0,1-.91-.42,3.79,3.79,0,0,1-.68-1.86.2.2,0,0,1,.09-.17,3.61,3.61,0,0,1,1.89-.54.94.94,0,0,1,1,.75A.89.89,0,0,1,36.81,21.22Zm-1.58-.44c.27-.15.44-.09.55.17l.2.51a.76.76,0,0,0,.52-1l-.51.13c-.3.08-.44,0-.48-.33a.67.67,0,0,0,.17-.07.83.83,0,0,0,.11-.15c-.06,0-.12-.07-.17-.05a3.84,3.84,0,0,0-.4.14l.1.39-.37.14a3.19,3.19,0,0,0,.12.4c0,.05.09.08.14.12a.58.58,0,0,0,.06-.17A.46.46,0,0,0,35.23,20.78Z"/><path d="M1,16.45A.9.9,0,0,1,1.08,15a.94.94,0,0,1,1,0A3.63,3.63,0,0,1,3.5,16.35a.17.17,0,0,1,0,.17A3.19,3.19,0,0,1,1.8,18a.88.88,0,0,1-.88-1.46Zm1.92-.29-.26-.3s0,0,0,0H2.42s0,.11,0,.14a1.39,1.39,0,0,0,.15.19c-.21.24-.37.26-.6.06l-.39-.35a.79.79,0,0,0,0,1.18L2,16.67a.34.34,0,0,1,.57.09.88.88,0,0,0-.12.15.86.86,0,0,0,0,.17c.07,0,.15,0,.19,0s.18-.2.28-.3l-.26-.3Z"/><path d="M1.43,3.06a.89.89,0,0,1,.73-1.21.94.94,0,0,1,.88.4,3.61,3.61,0,0,1,.7,1.89.19.19,0,0,1-.1.16,3.72,3.72,0,0,1-1.8.55,1,1,0,0,1-1-.71C.68,3.67.88,3.32,1.43,3.06Zm1.85.61a2.74,2.74,0,0,0-.11-.37c0-.06-.1-.1-.15-.15a.59.59,0,0,0,0,.22c0,.16-.08.28-.22.23a.56.56,0,0,1-.27-.23,3.65,3.65,0,0,1-.23-.54.74.74,0,0,0-.51,1l.48-.12c.31-.08.44,0,.51.32a1.33,1.33,0,0,0-.21.09s0,.1-.07.14.11.07.15.06.27-.1.41-.15l-.1-.39Z"/><path d="M36.81,3.07a.88.88,0,0,1,.62.63.9.9,0,0,1-.83,1.13,3.37,3.37,0,0,1-2-.54.16.16,0,0,1-.09-.14,3.65,3.65,0,0,1,.72-1.93.92.92,0,0,1,1.45,0A1,1,0,0,1,36.81,3.07Zm-1.31,1c.08-.32.2-.4.51-.32l.5.13a.76.76,0,0,0-.53-1l-.21.52c-.1.25-.3.3-.54.14a.65.65,0,0,0,.05-.2,1,1,0,0,0-.07-.15c-.05,0-.12.05-.14.09a3,3,0,0,0-.11.43l.36.14-.09.39a2.26,2.26,0,0,0,.41.15s.1,0,.15-.06,0-.11-.08-.14A1.33,1.33,0,0,0,35.5,4.06Z"/><path d="M1.43,21.23a.9.9,0,0,1,.18-1.77A3.46,3.46,0,0,1,3.66,20a.18.18,0,0,1,.08.15A3.7,3.7,0,0,1,3,22a.92.92,0,0,1-1.34.2A.9.9,0,0,1,1.43,21.23ZM3,20.77c0,.08,0,.14,0,.2a.58.58,0,0,0,.06.17s.12-.07.14-.12a3.79,3.79,0,0,0,.12-.4l-.37-.14.1-.39-.41-.15s-.1,0-.15.06,0,.11.07.14a1.33,1.33,0,0,0,.21.09c-.07.32-.2.4-.51.32l-.5-.13a.78.78,0,0,0,.53,1c.07-.16.13-.32.2-.49S2.71,20.63,3,20.77Z"/><path d="M32,.94a.91.91,0,0,1,1.37,0,.89.89,0,0,1,.15,1,3.57,3.57,0,0,1-1.35,1.58.21.21,0,0,1-.19,0,3.63,3.63,0,0,1-1.4-1.43A.92.92,0,0,1,31,.75.89.89,0,0,1,32,.94Zm-.26,1.62a.53.53,0,0,0-.15-.12,1,1,0,0,0-.18,0c0,.06,0,.13,0,.16a3.66,3.66,0,0,0,.35.31L32,2.58l.37.3a3.65,3.65,0,0,0,.26-.32s0-.11,0-.17a.46.46,0,0,0-.17,0,1.22,1.22,0,0,0-.17.15c-.26-.23-.27-.36-.06-.61l.32-.39a.76.76,0,0,0-1.16,0L31.8,2C32,2.2,32,2.36,31.73,2.56Z"/><path d="M37.26,7.84a.91.91,0,0,1,.24,1,.79.79,0,0,1-.75.56,1.65,1.65,0,0,1-.76-.2A3.62,3.62,0,0,1,34.75,8a.29.29,0,0,1,0-.24,3.68,3.68,0,0,1,1.42-1.32A.92.92,0,0,1,37.54,7,.89.89,0,0,1,37.26,7.84Zm-.62-.59-.4.36a.34.34,0,0,1-.58-.08,2.09,2.09,0,0,0,.14-.17s0-.13,0-.14-.13,0-.16,0-.2.22-.31.33l.27.3-.27.3.31.34s.12,0,.14,0a.12.12,0,0,0,0-.13.74.74,0,0,0-.16-.19c.2-.25.37-.27.59-.08l.4.36A.79.79,0,0,0,36.64,7.25Z"/><path d="M1,12.14a.88.88,0,0,1-.28-.82.9.9,0,0,1,1.15-.7,2.39,2.39,0,0,1,1,.64c.23.23.42.49.63.74a.2.2,0,0,1,0,.28,4.2,4.2,0,0,1-1.28,1.24,1.16,1.16,0,0,1-.83.16.88.88,0,0,1-.53-1.39Zm.63.59.4-.36c.22-.2.4-.17.57.09a.7.7,0,0,0-.13.16.7.7,0,0,0,0,.16c.06,0,.14,0,.18,0s.19-.2.29-.31l-.27-.3A.86.86,0,0,0,2.75,12l.14-.16c-.1-.1-.18-.21-.27-.29a.59.59,0,0,0-.2,0,.53.53,0,0,0,0,.18,1,1,0,0,0,.12.16c-.2.24-.37.26-.58.07l-.4-.35A.75.75,0,0,0,1.6,12.73Z"/><path d="M32,23.34a.89.89,0,0,1-1.54-.51,1.26,1.26,0,0,1,.27-.87,4.11,4.11,0,0,1,1.19-1.12.3.3,0,0,1,.26,0,3.62,3.62,0,0,1,1.29,1.48A.92.92,0,0,1,33,23.61.88.88,0,0,1,32,23.34Zm-.57-.63a.78.78,0,0,0,1.17,0c-.11-.14-.23-.27-.34-.4s-.18-.4.09-.59c.28.24.28.24.35.09l-.35-.41-.3.26-.3-.27a3,3,0,0,0-.32.29s0,.1,0,.16.13,0,.18,0a.61.61,0,0,0,.16-.12c.24.19.26.36.07.57Z"/><path d="M1,7.84a.9.9,0,0,1,.93-1.5A3.35,3.35,0,0,1,3.52,7.76a.2.2,0,0,1,0,.17A3.52,3.52,0,0,1,2,9.3.91.91,0,0,1,1,7.84Zm.63.59L2,8.06c.22-.19.41-.16.57.1a.81.81,0,0,0-.12.14,1,1,0,0,0,0,.18c.06,0,.14,0,.18,0s.18-.21.28-.32l-.26-.29.26-.3c-.11-.12-.2-.23-.31-.33s-.11,0-.16,0a.37.37,0,0,0,0,.15c0,.06.1.12.14.17A.34.34,0,0,1,2,7.61l-.4-.36A.79.79,0,0,0,1.6,8.43Z"/><path d="M19.07,23.39a.87.87,0,0,1-1.32-.09.91.91,0,0,1-.11-1A3.53,3.53,0,0,1,19,20.8a.23.23,0,0,1,.18,0,3.62,3.62,0,0,1,1.35,1.45.9.9,0,0,1-.83,1.36A2.27,2.27,0,0,1,19.07,23.39Zm-.26-1.66c.26.22.27.37.07.6l-.34.39a.73.73,0,0,0,1.15,0l-.33-.38c-.22-.24-.2-.39.06-.59l.24.2c.19-.13.12-.27-.27-.5l-.28.25-.29-.27c-.12.11-.23.2-.33.31s0,.11,0,.17a.7.7,0,0,0,.16,0A.76.76,0,0,0,18.81,21.73Z"/><path d="M19.11.94A.9.9,0,0,1,20.5,1a1,1,0,0,1,.09,1,3,3,0,0,1-1,1.25c-.52.41-.4.43-.94,0a3.3,3.3,0,0,1-1-1.18.92.92,0,0,1,.6-1.35A.88.88,0,0,1,19.11.94Zm.31,1.61c-.26-.22-.27-.35-.06-.6l.34-.39a.76.76,0,0,0-1.16,0l.33.37c.22.25.2.39-.06.6a1,1,0,0,0-.17-.14c-.05,0-.11,0-.16,0s0,.13,0,.16.21.2.32.31l.3-.27.29.27c.12-.11.23-.2.33-.31s0-.11,0-.16a.42.42,0,0,0-.16,0Z"/></g><path class="cls-4" d="M19.35,12.14a2.41,2.41,0,0,1-1,2.1,3.36,3.36,0,0,1-4-.07,2.22,2.22,0,0,1-.19-3.41,3.27,3.27,0,0,1,4.78.34A2,2,0,0,1,19.35,12.14Zm-4.56.13h0c0,.24,0,.48.06.72a1.5,1.5,0,0,0,1.81,1.43,1.06,1.06,0,0,0,1-.65,3.5,3.5,0,0,0,0-2.75,1.07,1.07,0,0,0-.74-.65,2.74,2.74,0,0,0-.7-.09,1.22,1.22,0,0,0-1.21.85A9.06,9.06,0,0,0,14.79,12.27Z"/><path class="cls-4" d="M30.49,13.31h.26v1.36H26.2v-.25l0,0c.59-.08.67-.16.68-.75V11.09c0-.61-.1-.73-.71-.81V10h4.24V11.2c-.19.06-.31,0-.38-.18a.83.83,0,0,0-.81-.6l-.87,0c-.18,0-.27.07-.27.28,0,.47,0,.95,0,1.41a.75.75,0,0,0,1-.51c.07-.23.19-.27.39-.2V13.2c-.17.05-.29,0-.36-.19-.13-.44-.45-.6-1-.54,0,.46,0,.92,0,1.38,0,.25.26.44.59.45a4.69,4.69,0,0,0,.92-.06.89.89,0,0,0,.72-.64C30.43,13.5,30.46,13.41,30.49,13.31Z"/><path class="cls-4" d="M7.88,10.36v-.27h2.67v.27l-.41.06a.34.34,0,0,0-.3.29c0,.1,0,.21,0,.31v2.37c0,.75.2,1,.95,1a2.75,2.75,0,0,0,.85-.14,1,1,0,0,0,.6-.65c.06-.21.17-.26.36-.21v1.33H7.88v-.27l.27,0c.3-.06.42-.18.42-.49,0-1,0-2,0-3.05,0-.25-.1-.36-.35-.41A3,3,0,0,0,7.88,10.36Z"/><path class="cls-4" d="M19.9,10.31v-.24h2.66v.25a1.86,1.86,0,0,0-.34,0c-.3.06-.38.18-.26.48.18.45.38.9.57,1.36L23,13.4a.85.85,0,0,0,.09-.15c.28-.63.56-1.26.83-1.89a2.07,2.07,0,0,0,.16-.59c0-.28,0-.35-.3-.4l-.32,0v-.23h1.93v.24c-.52,0-.75.37-.93.79-.53,1.16-1.07,2.31-1.6,3.47-.06.13-.12.2-.27.2a.27.27,0,0,1-.28-.19L20.73,11C20.48,10.44,20.48,10.43,19.9,10.31Z"/><path class="cls-4" d="M23.61,1.14A.92.92,0,0,1,24.73,1a.89.89,0,0,1,.4,1.1,3.41,3.41,0,0,1-1.44,1.63.22.22,0,0,1-.19,0,4,4,0,0,1-1.27-1.31A1,1,0,0,1,22.43,1,.89.89,0,0,1,23.61,1.14Zm-.29,1.62-.14-.12-.12-.1c-.16.16-.08.29.28.51l.28-.26.29.27c.12-.1.23-.19.33-.29s0-.12,0-.18a.7.7,0,0,0-.16,0,1.35,1.35,0,0,0-.19.16c-.44-.52.17-.7.29-1a.79.79,0,0,0-1.16,0c.11.13.22.26.34.38S23.58,2.53,23.32,2.76Z"/><path class="cls-4" d="M15,23.55a.9.9,0,0,1-1.5-1,2.6,2.6,0,0,1,.69-1,7.34,7.34,0,0,1,.69-.56.25.25,0,0,1,.24,0,3.86,3.86,0,0,1,1.26,1.28,1.16,1.16,0,0,1,.17.77.87.87,0,0,1-.59.71.84.84,0,0,1-.9-.2Zm-.57-.61a.78.78,0,0,0,1.15,0l-.34-.39c-.21-.23-.19-.41.07-.59l.24.2c.18-.14.1-.29-.27-.5l-.28.25-.3-.26a2.52,2.52,0,0,0-.29.26.41.41,0,0,0-.05.19.62.62,0,0,0,.19,0,1.77,1.77,0,0,0,.18-.15,1.06,1.06,0,0,1,.15.27C15,22.54,14.56,22.65,14.44,22.94Z"/><path class="cls-4" d="M27.92,1.14a.94.94,0,0,1,.86-.28A.91.91,0,0,1,29.44,2a1.69,1.69,0,0,1-.21.45,4.31,4.31,0,0,1-1.16,1.17.21.21,0,0,1-.28,0A4.11,4.11,0,0,1,26.56,2.4a1.17,1.17,0,0,1-.18-.85A.9.9,0,0,1,27.92,1.14Zm.3,1.91c.45-.36.46-.36.25-.5l-.23.2c-.28-.2-.3-.35-.08-.59l.34-.39a.76.76,0,0,0-1.15,0s0,0,0,0l.34.38c.19.23.17.41-.08.57l-.24-.19c-.18.14-.08.32.27.49l.27-.24Z"/><path class="cls-4" d="M23.62,23.54a.92.92,0,0,1-.84.29.91.91,0,0,1-.67-1.22,2.85,2.85,0,0,1,.77-1.1c.12-.12.26-.22.39-.33.34-.27.36-.27.69,0a4,4,0,0,1,1,1.13,1.22,1.22,0,0,1,.17.79.86.86,0,0,1-.59.69A.88.88,0,0,1,23.62,23.54Zm.3-1.61c.06.05.1.11.15.13a.52.52,0,0,0,.18,0,.58.58,0,0,0,0-.19,3.85,3.85,0,0,0-.3-.27l-.3.26-.29-.26c-.45.36-.46.37-.26.51l.25-.21c.26.23.26.38.05.62s-.23.25-.34.37a.79.79,0,0,0,1.18,0l-.35-.39C23.66,22.31,23.68,22.13,23.92,21.93Z"/><path class="cls-4" d="M10.71,1.14a.88.88,0,0,1,1-.23.9.9,0,0,1,.5,1.19,3.35,3.35,0,0,1-1.43,1.59.19.19,0,0,1-.18,0A3.8,3.8,0,0,1,9.29,2.3.93.93,0,0,1,9.84.87.89.89,0,0,1,10.71,1.14ZM11,3.05c.4-.27.45-.35.27-.5l-.26.2c-.24-.19-.26-.37-.06-.59l.35-.4a.75.75,0,0,0-1.15,0s0,0,0,0l.33.38c.21.24.18.42-.1.57l-.23-.2c-.18.16-.13.24.27.51l.29-.25Z"/><path class="cls-4" d="M27.92,23.55a.92.92,0,0,1-.86.27.88.88,0,0,1-.66-1.12,2,2,0,0,1,.23-.52A4.12,4.12,0,0,1,27.77,21a.24.24,0,0,1,.31,0,4,4,0,0,1,1.2,1.26,1.7,1.7,0,0,1,.19.7.79.79,0,0,1-.52.78.84.84,0,0,1-.93-.14Zm.59-.63-.35-.4c-.21-.23-.19-.4.08-.58l.25.21c.16-.17.09-.29-.28-.51l-.29.25-.29-.26a2.8,2.8,0,0,0-.31.28s0,.11,0,.17a.49.49,0,0,0,.17,0,1,1,0,0,0,.16-.13c.24.18.27.36.07.58l-.35.4A.78.78,0,0,0,28.51,22.92Z"/><path class="cls-4" d="M15,1.15a.89.89,0,0,1,.85-.29.91.91,0,0,1,.65,1.24,2.92,2.92,0,0,1-.78,1.09,3.79,3.79,0,0,1-.37.31c-.35.28-.38.3-.69,0a9.87,9.87,0,0,1-1-1.06,1.07,1.07,0,0,1-.22-.88A.9.9,0,0,1,15,1.15Zm.3,1.91.3-.27c.13-.11.07-.18,0-.25l-.24.21c-.26-.2-.28-.37-.07-.6l.35-.39a.78.78,0,0,0-1.17,0l.35.39c.19.22.17.4-.07.59l-.25-.21c-.19.16-.16.22.27.51L15,2.79Z"/><path class="cls-4" d="M10.71,23.55a.9.9,0,0,1-1.41-.09,1,1,0,0,1-.06-.95A3.45,3.45,0,0,1,10.62,21s.15,0,.2,0a3.79,3.79,0,0,1,1.29,1.35,1,1,0,0,1,0,1.1A.89.89,0,0,1,10.71,23.55Zm-.32-1.61c.27.2.29.35.08.59l-.35.39a.78.78,0,0,0,1.17,0l-.36-.41a.33.33,0,0,1,.08-.57l.24.2c.18-.14.08-.32-.28-.49l-.26.24-.31-.26-.34.31s0,.12,0,.14a.14.14,0,0,0,.14,0A2.32,2.32,0,0,0,10.39,21.94Z"/><path class="cls-4" d="M6.43,1.14a.9.9,0,0,1,1-.21A.87.87,0,0,1,8,2a1.94,1.94,0,0,1-.62,1c-.25.25-.55.46-.82.69a.23.23,0,0,1-.29,0A4.22,4.22,0,0,1,5,2.36a1.16,1.16,0,0,1-.16-.79.88.88,0,0,1,1.47-.51Zm.25,1.93c.11-.1.22-.18.31-.28s0-.12,0-.18a.78.78,0,0,0-.16,0,1,1,0,0,0-.16.12c-.26-.17-.28-.35-.07-.57L7,1.77a.78.78,0,0,0-1.17,0l.33.38c.2.25.19.39-.08.61a.81.81,0,0,0-.16-.16.42.42,0,0,0-.16,0c0,.06,0,.14,0,.17a2.94,2.94,0,0,0,.31.3l.31-.25Z"/><path class="cls-4" d="M37.46,16.65a.89.89,0,0,1,.13,1.18.92.92,0,0,1-1.15.29,3.47,3.47,0,0,1-1.52-1.39.21.21,0,0,1,0-.19,3.69,3.69,0,0,1,1.38-1.31.94.94,0,0,1,1.29.25A.89.89,0,0,1,37.46,16.65Zm-1.92.3a3.84,3.84,0,0,0,.27.29.74.74,0,0,0,.19.05.54.54,0,0,0,0-.19c0-.06-.08-.1-.11-.14a.34.34,0,0,1,.58-.08l.4.36a.78.78,0,0,0,0-1.17l0,0-.36.32c-.22.2-.4.18-.59-.07a1.22,1.22,0,0,0,.15-.17A.43.43,0,0,0,36,16c-.06,0-.13,0-.16,0a3.18,3.18,0,0,0-.3.33l.27.29Z"/><path class="cls-4" d="M6.43,23.54a.88.88,0,0,1-1.06.24.91.91,0,0,1-.46-1.16,2.82,2.82,0,0,1,.8-1.15A5.85,5.85,0,0,1,6.25,21a.24.24,0,0,1,.22,0A3.94,3.94,0,0,1,7.79,22.3a1.1,1.1,0,0,1,.17.79.89.89,0,0,1-1.43.54ZM7,22.92s0,0,0-.05l-.35-.37c-.2-.22-.18-.4.08-.56,0,0,.09.08.15.11a.88.88,0,0,0,.17,0c0-.06,0-.14,0-.18a2.85,2.85,0,0,0-.32-.27l-.29.27-.3-.25a2.36,2.36,0,0,0-.32.31s0,.11,0,.16.1,0,.13,0a1.54,1.54,0,0,0,.19-.17c.26.22.27.36.07.61l-.33.39A.8.8,0,0,0,7,22.92Z"/><path class="cls-4" d="M37.46,12.35a.88.88,0,0,1,.24,1,.91.91,0,0,1-1.25.5,3.49,3.49,0,0,1-1.53-1.39.19.19,0,0,1,0-.18,3.46,3.46,0,0,1,1.53-1.38.93.93,0,0,1,1.07.2.87.87,0,0,1,0,1.14Zm-1.61.3c.2-.25.37-.27.58-.08l.4.35a.72.72,0,0,0,0-1.14l0,0-.36.32c-.23.2-.41.17-.57-.09a.49.49,0,0,0,.11-.14.53.53,0,0,0,0-.18c-.06,0-.14,0-.18,0s-.19.2-.29.31l.26.29-.26.31c.1.1.18.21.27.29a1,1,0,0,0,.2,0,.53.53,0,0,0,0-.18A.42.42,0,0,0,35.85,12.65Z"/><path class="cls-4" d="M37,21.42c.12.67-.15,1.13-.73,1.22a1,1,0,0,1-.91-.43,3.66,3.66,0,0,1-.68-1.86.19.19,0,0,1,.09-.16,3.7,3.7,0,0,1,1.88-.55,1,1,0,0,1,1,.76A.89.89,0,0,1,37,21.42ZM35.43,21c.27-.15.44-.09.54.17l.21.51a.77.77,0,0,0,.52-1l-.51.13c-.3.08-.44,0-.48-.33l.17-.07A.83.83,0,0,0,36,20.2c-.06,0-.12-.07-.17-.06s-.26.1-.4.15l.1.39-.37.14a3.19,3.19,0,0,0,.12.4c0,.05.09.08.13.12a.41.41,0,0,0,.07-.17C35.48,21.11,35.44,21.05,35.43,21Z"/><path class="cls-4" d="M1.17,16.64a.89.89,0,0,1,.11-1.41.94.94,0,0,1,1,0A3.69,3.69,0,0,1,3.7,16.55a.17.17,0,0,1,0,.17A3.19,3.19,0,0,1,2,18.17a.85.85,0,0,1-1-.4.85.85,0,0,1,.12-1.06Zm1.92-.29c-.09-.1-.18-.19-.26-.29l0,0H2.62s0,.11,0,.15a1.39,1.39,0,0,0,.15.19c-.21.24-.38.25-.6.06l-.39-.35a.78.78,0,0,0,0,1.17l.41-.36a.33.33,0,0,1,.57.09,1.49,1.49,0,0,0-.12.14,1.13,1.13,0,0,0,0,.18c.07,0,.15,0,.19,0A3.9,3.9,0,0,0,3.09,17l-.26-.3Z"/><path class="cls-4" d="M1.63,3.26a.89.89,0,0,1,.73-1.21.94.94,0,0,1,.88.4,3.61,3.61,0,0,1,.7,1.89s0,.13-.1.16A3.71,3.71,0,0,1,2,5a1,1,0,0,1-1-.7C.88,3.86,1.08,3.52,1.63,3.26Zm1.85.61a2.74,2.74,0,0,0-.11-.37c0-.06-.1-.1-.15-.15a.58.58,0,0,0-.05.21c0,.16-.08.29-.22.23a.54.54,0,0,1-.27-.22A3.65,3.65,0,0,1,2.45,3a.74.74,0,0,0-.51,1l.48-.12c.31-.08.44,0,.51.32a1.33,1.33,0,0,0-.21.09s-.05.1-.08.14.11.07.16.06a3.47,3.47,0,0,0,.41-.16L3.11,4Z"/><path class="cls-4" d="M37,3.27A.9.9,0,0,1,36.8,5a3.42,3.42,0,0,1-2-.54.17.17,0,0,1-.08-.14,3.62,3.62,0,0,1,.72-1.93.92.92,0,0,1,1.45,0A1,1,0,0,1,37,3.27Zm-1.31,1c.07-.32.2-.4.51-.32l.5.13a.78.78,0,0,0-.54-1c-.06.18-.13.35-.2.53s-.3.3-.54.14a.48.48,0,0,0,0-.2.47.47,0,0,0-.06-.15s-.12,0-.14.09-.08.28-.12.43l.37.14-.1.39.41.15c.05,0,.1,0,.16-.06a.48.48,0,0,0-.09-.14A1.21,1.21,0,0,0,35.7,4.26Z"/><path class="cls-4" d="M1.63,21.43c-.53-.25-.74-.6-.64-1.06a.91.91,0,0,1,.82-.71,3.48,3.48,0,0,1,2.05.54.17.17,0,0,1,.08.14,3.7,3.7,0,0,1-.7,1.9.92.92,0,0,1-1.34.2A.9.9,0,0,1,1.63,21.43ZM3.2,21a.5.5,0,0,0,0,.19.64.64,0,0,0,.06.18s.12-.07.14-.12a3.79,3.79,0,0,0,.12-.4l-.37-.14.1-.39a3,3,0,0,0-.41-.15s-.1,0-.16.05,0,.12.08.14a.81.81,0,0,0,.21.1c-.07.32-.2.4-.51.32l-.5-.13a.78.78,0,0,0,.53,1c.07-.16.13-.33.19-.49S2.91,20.83,3.2,21Z"/><path class="cls-4" d="M32.19,1.14a.91.91,0,0,1,1.52,1,3.57,3.57,0,0,1-1.35,1.58.21.21,0,0,1-.19,0,3.63,3.63,0,0,1-1.4-1.43.92.92,0,0,1,.4-1.3A.89.89,0,0,1,32.19,1.14Zm-.26,1.62a.53.53,0,0,0-.15-.12.36.36,0,0,0-.18,0c0,.06,0,.13,0,.16a3.82,3.82,0,0,0,.35.31l.24-.31.37.3c.09-.11.18-.21.26-.32s0-.12,0-.17a.53.53,0,0,0-.18,0,1.14,1.14,0,0,0-.16.15c-.26-.23-.27-.36-.06-.61l.32-.39a.76.76,0,0,0-1.16,0l.36.39C32.2,2.39,32.19,2.56,31.93,2.76Z"/><path class="cls-4" d="M37.45,8a.9.9,0,0,1,.25,1,.81.81,0,0,1-.75.56,1.65,1.65,0,0,1-.76-.2A3.62,3.62,0,0,1,35,8.17a.29.29,0,0,1,0-.24A3.63,3.63,0,0,1,36.35,6.6a.93.93,0,0,1,1.39.59A.87.87,0,0,1,37.45,8Zm-.61-.59-.4.36c-.22.19-.41.16-.59-.08,0-.06.11-.11.15-.17s0-.13,0-.14-.13,0-.16,0-.21.22-.31.33l.27.3-.27.29a3.49,3.49,0,0,0,.31.34.12.12,0,0,0,.14,0,.14.14,0,0,0,0-.14c0-.07-.11-.12-.16-.19.2-.25.37-.26.59-.07l.4.36A.79.79,0,0,0,36.84,7.45Z"/><path class="cls-4" d="M1.17,12.34a.92.92,0,0,1-.29-.83A.91.91,0,0,1,2,10.82a2.3,2.3,0,0,1,1,.64c.22.23.42.49.63.74a.2.2,0,0,1,0,.28,4.2,4.2,0,0,1-1.28,1.24,1.16,1.16,0,0,1-.83.16.88.88,0,0,1-.53-1.39Zm.62.58.41-.35c.22-.2.4-.17.57.08a1.83,1.83,0,0,0-.13.16.88.88,0,0,0,0,.16c.06,0,.14,0,.18,0s.19-.2.29-.31l-.27-.3L3,12.2,3.09,12c-.1-.11-.18-.21-.27-.29s-.13,0-.2,0a.53.53,0,0,0,0,.18c0,.06.08.1.12.15-.2.25-.37.27-.58.08l-.4-.36A.75.75,0,0,0,1.79,12.92Z"/><path class="cls-4" d="M32.2,23.54A.89.89,0,0,1,30.66,23a1.28,1.28,0,0,1,.26-.87A4,4,0,0,1,32.12,21a.3.3,0,0,1,.26,0,3.66,3.66,0,0,1,1.29,1.47.93.93,0,0,1-.49,1.32A.88.88,0,0,1,32.2,23.54Zm-.57-.63a.78.78,0,0,0,1.17,0l-.34-.41c-.2-.24-.18-.39.09-.58.28.24.28.24.35.08l-.35-.4-.31.26L32,21.62a3,3,0,0,0-.32.28s0,.11,0,.17a1,1,0,0,0,.18,0,.61.61,0,0,0,.16-.12c.24.19.26.36.07.57S31.76,22.76,31.63,22.91Z"/><path class="cls-4" d="M1.16,8a.92.92,0,0,1-.23-1A.89.89,0,0,1,2.1,6.54,3.34,3.34,0,0,1,3.72,8a.2.2,0,0,1,0,.17A3.52,3.52,0,0,1,2.22,9.5.92.92,0,0,1,.92,9,.93.93,0,0,1,1.16,8Zm.64.58.4-.36c.22-.19.41-.16.57.1,0,0-.1.08-.12.14a.52.52,0,0,0,0,.18c.06,0,.14,0,.17,0s.19-.21.29-.32L2.83,8l.26-.3c-.11-.12-.2-.23-.31-.33s-.11,0-.16,0a.37.37,0,0,0,0,.15,1,1,0,0,0,.14.17.34.34,0,0,1-.58.08l-.4-.36A.77.77,0,0,0,1.8,8.62Z"/><path class="cls-4" d="M19.26,23.59a.87.87,0,0,1-1.32-.09.9.9,0,0,1-.1-1A3.57,3.57,0,0,1,19.23,21a.25.25,0,0,1,.19,0,3.65,3.65,0,0,1,1.35,1.46.91.91,0,0,1-.83,1.36A2.65,2.65,0,0,1,19.26,23.59ZM19,21.93c.26.22.27.37.07.59l-.34.4a.74.74,0,0,0,1.15,0l-.34-.38c-.21-.24-.19-.39.07-.59l.24.2c.19-.13.12-.27-.27-.5l-.28.25L19,21.62c-.12.11-.23.2-.33.31s0,.11,0,.17a.78.78,0,0,0,.16,0A.76.76,0,0,0,19,21.93Z"/><path class="cls-4" d="M19.31,1.14a.89.89,0,0,1,1.38.06.93.93,0,0,1,.1,1,3,3,0,0,1-1,1.25c-.51.41-.39.43-.93,0a3.2,3.2,0,0,1-1-1.18.92.92,0,0,1,.6-1.35A.89.89,0,0,1,19.31,1.14Zm.31,1.61c-.26-.22-.27-.36-.06-.6l.34-.39a.76.76,0,0,0-1.16,0l.33.37c.21.25.2.39-.06.6a1,1,0,0,0-.17-.14c-.05,0-.11,0-.17,0s0,.13,0,.16a3.17,3.17,0,0,0,.32.31l.29-.27.3.26.33-.3s0-.11,0-.17-.12,0-.16,0A.58.58,0,0,0,19.62,2.75Z"/></g></g></svg>