<svg xmlns="http://www.w3.org/2000/svg" viewBox="0 0 38.55 24.66"><defs><style>.cls-1{isolation:isolate;}.cls-2{opacity:0.15;}.cls-2,.cls-3{mix-blend-mode:multiply;}.cls-4{fill:#fff;}</style></defs><title>convert-FIX-SVG-03</title><g class="cls-1"><g id="Layer_1" data-name="Layer 1"><g class="cls-2"><path d="M24.12,24.38h-.27l-.07-.75c-.18.08-.34.17-.51.23a.72.72,0,0,1-1-.5c-.14-.39-.29-.78-.44-1.16a.33.33,0,0,0-.21-.17c-.33-.06-.66-.09-1-.14.34.55.83.94.92,1.51l-.35.19c-.13.07-.18,0-.24-.12-.24-.36-.47-.72-.71-1.07a1.9,1.9,0,0,0-.19-.21c-.23-.23-.4-.24-.59,0s-.38.64-.56,1c-.08.13-.13.27-.22.39s-.15.16-.22.15-.16-.12-.23-.19a.91.91,0,0,0-.17-.17c-.11-.37-.06-.48.63-1.25l-.52,0h-.8c-.15,0-.21-.08-.21-.23a2.82,2.82,0,0,0-.09-.57,6.46,6.46,0,0,1-.45,1.83l-.09.19c-.2.47-.31.55-.84.6l-.07.39h-.26c0-.05,0-.09,0-.12,0-.33,0-.33-.26-.4a4.07,4.07,0,0,1-2.1-1.39,12.91,12.91,0,0,1-2.21-3.73c-.15-.35-.28-.71-.41-1.07a1.83,1.83,0,0,1,0-1.18.3.3,0,0,0-.05-.23,18.12,18.12,0,0,1-3.94-4.94L6.12,11l-.77.51V10.6a6.59,6.59,0,0,1-.87-.24A3.42,3.42,0,0,1,2.37,7.81a3.94,3.94,0,0,1,1.17-4,4.94,4.94,0,0,1,.57-.42A4.14,4.14,0,0,1,3.87.94H4L4.14,1a3.72,3.72,0,0,0,.19,2.14A2.75,2.75,0,0,0,6,4.86a3.59,3.59,0,0,0,.81.07A1.65,1.65,0,0,0,8,4.61a.23.23,0,0,0,.08-.18,3.3,3.3,0,0,1,.69-3c.14-.18.3-.36.46-.54l.2.19c-.16.2-.33.39-.48.59a3.47,3.47,0,0,0-.68,1.53A2.94,2.94,0,0,0,9,5.48l.08.1a2,2,0,0,0,1.4.82,5.14,5.14,0,0,0,1.3,0,2.17,2.17,0,0,0,1.37-.84,5.45,5.45,0,0,0,1.27-2.84A3.41,3.41,0,0,0,14.05,1l.23-.13A2.66,2.66,0,0,1,14.66,2a5,5,0,0,1-1.32,3.72,2.43,2.43,0,0,1-1.58,1,8.06,8.06,0,0,1-1.1,0l-.28,1.33h0l-.27-1H10c0,.2-.07.41-.09.61a12,12,0,0,0,.39,4.46,14.86,14.86,0,0,0,1.18,3c0,.07.14.17.2.16a2,2,0,0,1,1.65.53c.16.13.3.27.47.43a1.73,1.73,0,0,0-.06-.68,3.38,3.38,0,0,1-.35-2.35,2.51,2.51,0,0,1,2.46-1.75,3.07,3.07,0,0,1,1.68.56.42.42,0,0,0,.39.05,5.25,5.25,0,0,1,3.78.11.3.3,0,0,0,.24,0,3,3,0,0,1,2.15-.39A2.42,2.42,0,0,1,26,13.74a2.18,2.18,0,0,1-.63,2,.49.49,0,0,0-.18.42,3.89,3.89,0,0,1,0,.44l.13-.12c.35-.32.69-.67,1.07-1a4.75,4.75,0,0,1,.76-.34.26.26,0,0,0,.14-.15c.17-1.11.36-2.22.47-3.34a20.2,20.2,0,0,0,.05-2.2,2.41,2.41,0,0,0-.14-.73c-.07.17-.12.34-.2.49a2.94,2.94,0,0,1-.39.6.38.38,0,1,1-.61-.45A2.85,2.85,0,0,1,27,8.83a2.74,2.74,0,0,1,.45-.32c-.3,0-.56,0-.82-.08A2.07,2.07,0,0,1,26,8.2a.31.31,0,0,1-.14-.4.51.51,0,0,1,.36-.24,1.57,1.57,0,0,1,.64.18,5.19,5.19,0,0,1,.62.42c-.07-.31-.15-.62-.21-.94a1.08,1.08,0,0,1,0-.4.38.38,0,0,1,.35-.32.36.36,0,0,1,.37.29,1.33,1.33,0,0,1,0,.56c0,.28-.14.56-.22.86a5.12,5.12,0,0,1,.54-.41A2.43,2.43,0,0,1,29,7.53a.4.4,0,0,1,.47.18.38.38,0,0,1-.15.49,4.93,4.93,0,0,1-.76.28,3,3,0,0,1-.47,0,2.46,2.46,0,0,1,1.15.78A23,23,0,0,0,30,3.84c0,.07-.06.12-.09.16a6.61,6.61,0,0,1-.39.68.65.65,0,0,1-.31.26.58.58,0,0,1-.43,0,.32.32,0,0,1-.09-.44A2,2,0,0,1,29.11,4a5.28,5.28,0,0,1,.68-.44c-.3-.06-.6-.1-.89-.17a1.61,1.61,0,0,1-.44-.21.41.41,0,0,1-.17-.48.44.44,0,0,1,.47-.21,1.64,1.64,0,0,1,.85.45l.3.28c0-.36-.1-.72-.12-1.09a.56.56,0,0,1,.09-.36.35.35,0,0,1,.65,0,.78.78,0,0,1,0,.7c-.08.28-.19.55-.3.84a6.39,6.39,0,0,1,.58-.38,2.68,2.68,0,0,1,.67-.24.37.37,0,0,1,.24.7,3,3,0,0,1-.72.22c-.16,0-.33,0-.51,0l.18.1a5.6,5.6,0,0,1,.61.38,1.34,1.34,0,0,1,.32.35.39.39,0,0,1,0,.49.38.38,0,0,1-.47.06,1.22,1.22,0,0,1-.39-.32c-.17-.23-.3-.49-.46-.73a35.85,35.85,0,0,1-1.69,8.94,30.68,30.68,0,0,1,3.22-5.31c-.31.1-.58.22-.87.29a1,1,0,0,1-.53,0,.45.45,0,0,1-.26-.31.44.44,0,0,1,.22-.34,2.29,2.29,0,0,1,.74-.11,5.09,5.09,0,0,1,.73.1,6,6,0,0,1-.51-.46,2,2,0,0,1-.3-.5.37.37,0,0,1,.62-.4,3,3,0,0,1,.39.64,6,6,0,0,1,.21.64c0-.14.06-.25.1-.35A6.6,6.6,0,0,1,32.7,6a.67.67,0,0,1,.35-.29.43.43,0,0,1,.37,0,.44.44,0,0,1,.1.38,1.24,1.24,0,0,1-.3.52c-.19.21-.42.38-.65.59a8,8,0,0,1,1,0,1.09,1.09,0,0,1,.51.24.37.37,0,0,1,.1.36.55.55,0,0,1-.32.23,1.09,1.09,0,0,1-.78-.18c-.2-.1-.39-.22-.58-.33.1.31.21.62.28.93a1.15,1.15,0,0,1,0,.52A.37.37,0,0,1,32,9a3.75,3.75,0,0,1,0-.82c0-.14.06-.27.07-.43l-.15.18a29.59,29.59,0,0,0-4,7.33.16.16,0,0,0,.07.24,1.42,1.42,0,0,1,.62,1.13,3.67,3.67,0,0,1-.41,1.92,12.05,12.05,0,0,1-4,4.8.27.27,0,0,0-.13.28c0,.13,0,.25,0,.38S24.12,24.23,24.12,24.38Zm-6.59-3.67A2.13,2.13,0,0,1,17,18.79,2.5,2.5,0,0,1,18,17a3.53,3.53,0,0,1,3.91.21,2.29,2.29,0,0,1,.82,2.25,4.75,4.75,0,0,1-.38.94,3.35,3.35,0,0,0,1.35-.93,5.15,5.15,0,0,0,1.16-3.39.28.28,0,0,0-.09-.18,1.29,1.29,0,0,1-.31-.76,1,1,0,0,0-.1-.43A3.8,3.8,0,0,0,23,13.47a.29.29,0,0,0-.32,0,.42.42,0,0,1-.31,0,1.5,1.5,0,0,1-.74-.88.33.33,0,0,0-.19-.21A4.64,4.64,0,0,0,19.29,12c-.46,0-.91.16-1.36.24a.85.85,0,0,1,0,.33,1.49,1.49,0,0,1-1.13.74.37.37,0,0,0-.23.1c-.32.33-.62.67-.95,1a1.42,1.42,0,0,1-.83.47s-.09.06-.11.11a1.58,1.58,0,0,1-.51.69s-.05.11-.05.17a5.32,5.32,0,0,0,.35,2.09,1.41,1.41,0,0,0,.23.33.35.35,0,0,1,.06.14,1.43,1.43,0,0,0,.1.33,9.33,9.33,0,0,0,.8,1A4.43,4.43,0,0,0,17.53,20.71ZM6.27,5.86c0-.17,0-.32,0-.46s0-.16-.15-.19A2.35,2.35,0,0,1,5,4.6c-.28-.28-.52-.59-.79-.91-.1.07-.23.15-.35.25a3.81,3.81,0,0,0-.2,5.58,2.77,2.77,0,0,0,3.81,0,.27.27,0,0,0,.09-.33,11.76,11.76,0,0,1-.61-2.54l-.09-.88Zm4.32,10.71a1.5,1.5,0,0,0,0,1,15.15,15.15,0,0,0,2.14,4.2,5.24,5.24,0,0,0,1.71,1.57,3,3,0,0,0,1.29.37.42.42,0,0,0,.46-.3c.09-.25.2-.5.28-.75a3.33,3.33,0,0,0,.19-1.71.49.49,0,0,0-.28-.38,4.74,4.74,0,0,1-1.83-1.75.44.44,0,0,0-.08-.11,5,5,0,0,0-.62.22,1.45,1.45,0,0,1-1.45-.1l-.09,0c.4.7.78,1.4,1.18,2.08a1.83,1.83,0,0,0,.37.46.25.25,0,0,1,.05.39,1.31,1.31,0,0,1-.62-.63c-.69-1.27-1.38-2.54-2-3.82A1.34,1.34,0,0,0,10.59,16.57Zm9.05,4.56v-.05l.74,0a2.42,2.42,0,0,0,1.36-.51,1.94,1.94,0,0,0,.05-3,2.83,2.83,0,0,0-2.05-.69,2.9,2.9,0,0,0-1.41.33,2.33,2.33,0,0,0-1.1,2,1.65,1.65,0,0,0,1.2,1.72C18.83,21,19.24,21.05,19.64,21.13Zm4.83-2.19c-.18.24-.34.48-.53.7a3.87,3.87,0,0,1-2,1.19c-.09,0-.21,0-.13.21l.57-.06c0,.28.09.58.13.88s0,.33-.27.28h-.17c.14.37.27.71.39,1.05s.38.57.84.35l.14-.08A11.72,11.72,0,0,0,28,18.37a3.2,3.2,0,0,0,.36-1.8A3.46,3.46,0,0,0,28.2,16c0,.25,0,.48,0,.71a2.69,2.69,0,0,1-.72,1.87,1.61,1.61,0,0,0-.24.34,10,10,0,0,1-1.38,2.2,5.63,5.63,0,0,1-1.27,1.16l-.15-.22A8.15,8.15,0,0,0,26.86,19c-.43,0-.82.08-1.21.1A2,2,0,0,1,24.47,18.94ZM6.74,11.36a15.73,15.73,0,0,0,3.75,4.7l.49-.53c-.6-.94-1.24-1.86-1.79-2.82s-1-2-1.51-3l-1,.65L7,11.62l0,0Zm2-5.61s0,.06,0,.09a4.16,4.16,0,0,1-.71,3.41A.4.4,0,0,0,8,9.7a23.05,23.05,0,0,0,2.45,4.53c.24.37.5.72.76,1.08-2-4.67-1.64-5.22-1.56-8.26L9,7.1l.44-.7ZM25,15.72a2.18,2.18,0,0,0-.1-3.38,2.46,2.46,0,0,0-2.83,0c-.09.07-.11.14,0,.23l.24.32a.36.36,0,0,0,.42.15,8.33,8.33,0,0,1,1.22-.17,1,1,0,0,1,.81.31,1.81,1.81,0,0,1,.45,1.06.77.77,0,0,1-.29.79s-.09.13-.07.18S24.89,15.54,25,15.72Zm-10.9-.28.3-.47a.36.36,0,0,0,0-.46,1.08,1.08,0,0,1-.2-.94,1.52,1.52,0,0,1,1.15-1.08,1.5,1.5,0,0,1,1.42.4c.07.06.21.13.26.11a6.82,6.82,0,0,0,.62-.43c.11-.09.08-.19,0-.26a2.6,2.6,0,0,0-2.19-.58C13.5,12.16,13.23,13.89,14.06,15.44ZM7.81,9.1C8.72,8.12,8.92,5.81,8,5a.88.88,0,0,1-.24.11c-.18,0-.22.16-.2.33s0,.3,0,.46L7.16,5.8A11.31,11.31,0,0,0,7.81,9.1ZM27.54,15A41.31,41.31,0,0,0,29.1,9.81c-.56.16-.78-.29-1.09-.63A22.15,22.15,0,0,1,27.54,15ZM33.9,7.75A.83.83,0,0,0,33,7.51C33.28,7.65,33.54,7.86,33.9,7.75ZM32.35,8c-.16.43-.14.79,0,1C32.61,8.68,32.45,8.38,32.35,8Zm-.51-1.3c-.1-.29-.14-.63-.54-.8C31.31,6.37,31.6,6.54,31.84,6.74ZM30.79,4l-.08.09.5.57s.12,0,.18,0,0-.15,0-.18S31,4.2,30.79,4ZM28.54,2.75a.89.89,0,0,0,.88.37C29.15,2.92,28.93,2.69,28.54,2.75Zm4.16,4c.41-.32.57-.54.53-.76C33,6,32.78,6.26,32.7,6.71ZM29.55,4c-.42.19-.67.51-.56.7A1,1,0,0,0,29.55,4Zm1.84,3.37c-.34,0-.65-.13-.95.11A.84.84,0,0,0,31.39,7.38ZM30.2,1.78a.92.92,0,0,0,0,.91C30.37,2.26,30.39,2,30.2,1.78Zm.55,1.49c.55,0,.86-.09.9-.33C31.31,2.88,31.07,3.08,30.75,3.27Zm-3.09,4.4c.19-.48.18-.75,0-.88C27.45,7.1,27.6,7.38,27.66,7.67Zm1.28,1.9a.84.84,0,0,0-.7-.6C28.44,9.23,28.57,9.52,28.94,9.57ZM27.19,9c-.44.27-.59.49-.5.73C27,9.61,27.08,9.31,27.19,9Zm1.16-.85c.53,0,.75-.11.82-.36A1.13,1.13,0,0,0,28.35,8.18ZM27,8.17c-.25-.18-.47-.41-.87-.28A1.09,1.09,0,0,0,27,8.17ZM9.51,6.77l.82-.07v0L9.7,6.49ZM6.58,5.51c.23.07.44-.31.67,0V5.26l-.67,0Zm-.93,5.43.58-.39a.81.81,0,0,0-.31,0C5.64,10.6,5.63,10.6,5.65,10.94ZM17.39,21,17,20.84C17,21.07,17,21.07,17.39,21Z"/><path d="M16.81,9.86a.49.49,0,0,1-.43.32c-.33.06-.65.15-1,.19a.5.5,0,0,1-.36-.1s0-.23,0-.32c.36-.62.72-1.23,1.09-1.84.19-.31.29-.3.47,0l-.9,1.68a.62.62,0,0,0,.68-.2c.08-.08.24-.08.41-.13a2.12,2.12,0,0,1,.62-1.06,1.54,1.54,0,0,1,1.3-.47.78.78,0,0,1,.71,1,1.71,1.71,0,0,1-2.09,1.41A.64.64,0,0,1,16.81,9.86Zm1.75-1.51a1.31,1.31,0,0,0-1.19,1c-.08.43.17.67.61.59a.68.68,0,0,0,.25-.09A2.11,2.11,0,0,0,19,9.09C19.24,8.66,19.06,8.35,18.56,8.35Z"/><path d="M22.76,8.73c.22,0,.44-.05.64-.09s.31.08.39.29a7.51,7.51,0,0,1-.86.25.68.68,0,0,0-.62.63l.88-.29a.27.27,0,0,1,.4.24.26.26,0,0,1-.1.19c-.46.15-.92.31-1.39.42-.31.08-.5-.17-.38-.46.23-.55.48-1.11.72-1.66a.53.53,0,0,1,.45-.33c.32,0,.64-.08,1-.13.12,0,.21,0,.22.16s0,.25-.17.27a5,5,0,0,1-.65.08C23,8.29,22.82,8.44,22.76,8.73Z"/><path d="M4,19l.45,0c0,.25-.08.4-.29.42l-1.24.12c0-.36.1-.42.42-.48A.28.28,0,0,0,3.47,19c.25-.43.48-.87.75-1.35H3.54c.07-.39.22-.52.61-.53s.61,0,.91,0c.14,0,.19.06.19.17s.09.29-.12.36l-.1,0c-.3-.06-.42.13-.53.35S4.15,18.64,4,19Z"/><path d="M32.68,19.59c-.12,0-.24,0-.35-.06A.47.47,0,0,1,32,19a1.63,1.63,0,0,1,1.24-1.42.75.75,0,0,1,.78.26.71.71,0,0,1,0,.78A1.36,1.36,0,0,1,32.68,19.59Zm.13-.35a1.35,1.35,0,0,0,1-.8.31.31,0,0,0-.25-.47,1,1,0,0,0-1.1.79A.35.35,0,0,0,32.81,19.24Z"/><path d="M20.05,9.46a3.52,3.52,0,0,1,1.46-1.55l.14.12a1.36,1.36,0,0,1,.12.12.63.63,0,0,1-.45.44,1.06,1.06,0,0,0-.6.48c-.26.42-.51.85-.78,1.3l-.47-.22a3.92,3.92,0,0,0,.13-1.76c0-.17,0-.25.18-.31S20,8,20,8.21V9.44Z"/><path d="M35.54,19.51a2,2,0,0,0-.3-.11.41.41,0,0,0-.19,0c-.15,0-.28.11-.42.14s-.29.05-.34,0a.58.58,0,0,1-.15-.43c.18-.48.41-.94.63-1.4.07-.15.19-.13.32,0-.17.37-.34.73-.49,1.11s0,.34.26.3a.73.73,0,0,0,.64-.46,5.76,5.76,0,0,1,.48-.83c.13-.22.19-.23.37-.07Z"/><path d="M30.27,19.34c.16-.25.33-.47.47-.7a.31.31,0,0,0,0-.21,3.88,3.88,0,0,1-.24-.45.33.33,0,0,1,0-.26s.09-.08.15-.08.07.07.1.11l.31.55.58-.62a.65.65,0,0,1,.21-.16c.07,0,.19,0,.22,0s0,.15,0,.22-.06.08-.1.11a5.2,5.2,0,0,0-1.35,1.49C30.43,19.61,30.4,19.61,30.27,19.34Z"/><path d="M23,16.59c0,.41-.22.7-.49.69a.6.6,0,0,1-.48-.67.69.69,0,0,1,0-.2.5.5,0,0,1,.46-.4.49.49,0,0,1,.46.4A.69.69,0,0,1,23,16.59Z"/><path d="M17.22,16.88c0,.37-.22.65-.51.64a.6.6,0,0,1-.48-.66c0-.34.25-.62.5-.61S17.21,16.53,17.22,16.88Z"/><path d="M20.82,20.8c-.2-.11-.37-.23-.55-.31a.65.65,0,0,0-.24,0h0c-.53.35-.53.34-1,0a.2.2,0,0,1-.06-.31.2.2,0,0,1,.32-.06l.29.19c.14-.14.41-.16.37-.43a.44.44,0,0,0-.11-.25c-.22-.23-.45-.44-.68-.64a.26.26,0,0,1-.09-.33s0,0,0-.06c.15-.44.17-.45.62-.45h1.1c.07,0,.13.06.19.09a.05.05,0,0,1,0,0c.32.48.32.48-.07.89a4.83,4.83,0,0,1-.38.4.35.35,0,0,0-.12.43.69.69,0,0,0,.36.26c.06,0,.17-.07.24-.13a.21.21,0,0,1,.34,0,.17.17,0,0,1,0,.27Z"/><path d="M24.32,24.58h-.27L24,23.83c-.18.08-.34.17-.51.23a.73.73,0,0,1-1-.5c-.13-.39-.28-.78-.44-1.17a.3.3,0,0,0-.2-.16c-.33-.06-.66-.09-1-.14.34.55.83.94.92,1.51l-.35.19c-.13.06-.18,0-.25-.12-.23-.36-.47-.72-.71-1.08a1.12,1.12,0,0,0-.18-.2c-.23-.24-.4-.24-.59,0s-.38.64-.56,1c-.08.12-.13.27-.22.38a.33.33,0,0,1-.22.16c-.08,0-.16-.12-.23-.19a1,1,0,0,0-.17-.18c-.11-.36-.06-.47.63-1.24l-.52,0-.8,0c-.16,0-.21-.08-.22-.23a2.24,2.24,0,0,0-.08-.57,6.46,6.46,0,0,1-.45,1.83l-.09.19c-.2.47-.32.55-.84.6l-.07.39h-.26s0-.09,0-.13c0-.32,0-.32-.26-.39a4.2,4.2,0,0,1-2.11-1.39,13.52,13.52,0,0,1-2.21-3.73c-.14-.35-.27-.71-.4-1.07a1.83,1.83,0,0,1,0-1.18.26.26,0,0,0-.06-.23,18.27,18.27,0,0,1-3.93-4.94l-.2-.34-.76.5V10.8a6.2,6.2,0,0,1-.87-.24A3.42,3.42,0,0,1,2.57,8,3.9,3.9,0,0,1,3.74,4a6.53,6.53,0,0,1,.57-.43,4.1,4.1,0,0,1-.24-2.45h.12l.15.05a3.73,3.73,0,0,0,.19,2.14A2.77,2.77,0,0,0,6.17,5.06,3.54,3.54,0,0,0,7,5.13a1.65,1.65,0,0,0,1.21-.32.23.23,0,0,0,.08-.18A3.3,3.3,0,0,1,9,1.6c.14-.19.3-.36.46-.54l.2.19c-.16.2-.33.39-.48.59a3.47,3.47,0,0,0-.68,1.53,3,3,0,0,0,.71,2.31l.08.1a2,2,0,0,0,1.4.82,5.07,5.07,0,0,0,1.29,0,2.17,2.17,0,0,0,1.38-.84,5.36,5.36,0,0,0,1.26-2.84,3.27,3.27,0,0,0-.33-1.72l.23-.13a2.66,2.66,0,0,1,.38,1.15A5.05,5.05,0,0,1,13.53,6a2.43,2.43,0,0,1-1.57,1,8.06,8.06,0,0,1-1.1,0l-.28,1.32h0l-.27-1h-.07c0,.2-.07.4-.09.61a12,12,0,0,0,.39,4.46,14.86,14.86,0,0,0,1.18,3c0,.07.14.16.2.15a2,2,0,0,1,1.65.54c.16.13.29.27.47.43a1.73,1.73,0,0,0-.06-.68,3.4,3.4,0,0,1-.35-2.36,2.48,2.48,0,0,1,2.46-1.74,3.07,3.07,0,0,1,1.68.56.42.42,0,0,0,.39,0,5.25,5.25,0,0,1,3.78.11.3.3,0,0,0,.24,0,3,3,0,0,1,2.15-.39,2.39,2.39,0,0,1,1.86,2.06,2.15,2.15,0,0,1-.62,2,.51.51,0,0,0-.19.42,2.32,2.32,0,0,1,0,.44l.13-.12c.35-.32.69-.67,1.07-1a4.78,4.78,0,0,1,.76-.35.22.22,0,0,0,.14-.14c.16-1.11.35-2.23.47-3.35.07-.72.05-1.46.05-2.19A2.12,2.12,0,0,0,27.8,9a4.14,4.14,0,0,1-.19.49,4.12,4.12,0,0,1-.39.6.41.41,0,0,1-.54.09.44.44,0,0,1-.08-.55A3.94,3.94,0,0,1,27.15,9a3.5,3.5,0,0,1,.45-.31c-.3,0-.56,0-.82-.08a2.07,2.07,0,0,1-.58-.23.31.31,0,0,1-.14-.4.51.51,0,0,1,.36-.24,1.62,1.62,0,0,1,.64.18,5.41,5.41,0,0,1,.61.41c-.06-.3-.15-.62-.2-.93a1.08,1.08,0,0,1,0-.4.38.38,0,0,1,.35-.32.36.36,0,0,1,.37.29,1.31,1.31,0,0,1,0,.56c-.05.28-.14.56-.22.86A6.31,6.31,0,0,1,28.57,8a2.3,2.3,0,0,1,.6-.27.37.37,0,0,1,.32.67,4.14,4.14,0,0,1-.77.27,2.58,2.58,0,0,1-.46.06,2.46,2.46,0,0,1,1.15.78A23,23,0,0,0,30.19,4c0,.07-.06.12-.09.16-.13.23-.24.46-.39.68a.65.65,0,0,1-.31.26.58.58,0,0,1-.43,0,.31.31,0,0,1-.1-.43,1.89,1.89,0,0,1,.44-.53A5.34,5.34,0,0,1,30,3.71c-.3,0-.6-.09-.89-.16a1.48,1.48,0,0,1-.44-.21.4.4,0,0,1-.17-.48A.43.43,0,0,1,29,2.65a1.61,1.61,0,0,1,.84.45l.31.28c0-.36-.1-.73-.12-1.09a.56.56,0,0,1,.09-.36.46.46,0,0,1,.32-.22.5.5,0,0,1,.33.21.78.78,0,0,1,0,.7c-.08.28-.19.55-.3.84A6.39,6.39,0,0,1,31,3.08a2.68,2.68,0,0,1,.67-.24.36.36,0,0,1,.43.23.37.37,0,0,1-.19.47,3.14,3.14,0,0,1-.72.22c-.16,0-.33,0-.51,0l.18.1c.2.12.41.23.61.37a1.83,1.83,0,0,1,.32.36.39.39,0,0,1,0,.49.38.38,0,0,1-.48,0A1.13,1.13,0,0,1,31,4.86c-.17-.23-.3-.49-.46-.74a35.93,35.93,0,0,1-1.69,9A30.15,30.15,0,0,1,32,7.75a9,9,0,0,1-.87.3,1,1,0,0,1-.54,0,.45.45,0,0,1-.25-.32.43.43,0,0,1,.22-.33,2.29,2.29,0,0,1,.74-.11,5.29,5.29,0,0,1,.73.1,6,6,0,0,1-.51-.46,2.33,2.33,0,0,1-.31-.5.37.37,0,0,1,.14-.48.36.36,0,0,1,.49.08,3.42,3.42,0,0,1,.39.64,5.35,5.35,0,0,1,.21.64c0-.14.06-.25.1-.35a5.25,5.25,0,0,1,.33-.77.67.67,0,0,1,.35-.29.41.41,0,0,1,.36,0,.42.42,0,0,1,.11.38,1.31,1.31,0,0,1-.3.52c-.19.21-.42.38-.65.59a7.79,7.79,0,0,1,1,0,1,1,0,0,1,.52.24.43.43,0,0,1,.1.36.55.55,0,0,1-.32.23,1.12,1.12,0,0,1-.79-.18l-.57-.33c.1.31.21.62.28.93a1.15,1.15,0,0,1,0,.52.36.36,0,0,1-.37.29.35.35,0,0,1-.36-.31,3.75,3.75,0,0,1,0-.82c0-.14.06-.27.07-.43l-.15.18a30,30,0,0,0-4,7.33.17.17,0,0,0,.08.24,1.42,1.42,0,0,1,.62,1.12,3.68,3.68,0,0,1-.41,1.93,12.05,12.05,0,0,1-4,4.8.25.25,0,0,0-.13.28c0,.12,0,.25,0,.38S24.31,24.43,24.32,24.58Zm-6.59-3.67A2.13,2.13,0,0,1,17.19,19a2.47,2.47,0,0,1,1-1.79,3.53,3.53,0,0,1,3.91.21,2.3,2.3,0,0,1,.82,2.25,5.44,5.44,0,0,1-.38.94,3.35,3.35,0,0,0,1.35-.93,5.15,5.15,0,0,0,1.16-3.39A.34.34,0,0,0,25,16.1a1.26,1.26,0,0,1-.31-.76,1,1,0,0,0-.1-.43,3.8,3.8,0,0,0-1.34-1.24.29.29,0,0,0-.32,0,.47.47,0,0,1-.31,0,1.53,1.53,0,0,1-.74-.88.33.33,0,0,0-.19-.21,4.64,4.64,0,0,0-2.18-.31c-.46,0-.91.16-1.36.24a.8.8,0,0,1,0,.32,1.5,1.5,0,0,1-1.14.75.32.32,0,0,0-.22.1c-.32.33-.62.67-1,1a1.42,1.42,0,0,1-.84.47s-.08.06-.1.11a1.58,1.58,0,0,1-.51.69s0,.11,0,.17a5.53,5.53,0,0,0,.34,2.09,2.44,2.44,0,0,0,.23.33.37.37,0,0,1,.07.14,1.59,1.59,0,0,0,.1.33,8.2,8.2,0,0,0,.8.95A4.43,4.43,0,0,0,17.73,20.91ZM6.47,6.06c0-.17,0-.32,0-.47s0-.15-.15-.18A2.31,2.31,0,0,1,5.19,4.8c-.28-.28-.52-.59-.79-.91-.1.07-.23.15-.35.25a3.79,3.79,0,0,0-.2,5.57,2.75,2.75,0,0,0,3.81,0,.25.25,0,0,0,.09-.32,11.15,11.15,0,0,1-.61-2.55L7.05,6Zm4.32,10.71a1.41,1.41,0,0,0,0,1A15,15,0,0,0,12.91,22a5.27,5.27,0,0,0,1.72,1.57,3.09,3.09,0,0,0,1.29.37.43.43,0,0,0,.46-.3c.09-.26.2-.5.28-.75a3.33,3.33,0,0,0,.19-1.71.49.49,0,0,0-.28-.38A4.74,4.74,0,0,1,14.74,19l-.08-.12a5.85,5.85,0,0,0-.63.23,1.45,1.45,0,0,1-1.44-.1s0,0-.09,0c.4.71.78,1.41,1.18,2.09a1.83,1.83,0,0,0,.37.46c.13.13.16.23,0,.39a1.29,1.29,0,0,1-.62-.64c-.7-1.26-1.38-2.53-2.05-3.81A1.29,1.29,0,0,0,10.79,16.77Zm9.05,4.55v0l.73-.06a2.34,2.34,0,0,0,1.37-.5,2,2,0,0,0,.05-3A2.83,2.83,0,0,0,20,17a2.9,2.9,0,0,0-1.41.33,2.31,2.31,0,0,0-1.1,2,1.63,1.63,0,0,0,1.2,1.71A9.8,9.8,0,0,0,19.84,21.32Zm4.83-2.18c-.18.24-.34.48-.53.7a3.91,3.91,0,0,1-2,1.19c-.09,0-.21,0-.14.2l.58-.06c0,.29.09.59.13.89s0,.33-.27.28h-.17q.21.54.39,1.05c.16.47.38.57.83.35l.15-.08a11.83,11.83,0,0,0,4.5-5.08,3.2,3.2,0,0,0,.36-1.8,3.51,3.51,0,0,0-.15-.53c0,.25,0,.48,0,.71a2.71,2.71,0,0,1-.72,1.87,1.31,1.31,0,0,0-.24.34A10,10,0,0,1,26,21.36a5.63,5.63,0,0,1-1.27,1.16l-.16-.22a8.08,8.08,0,0,0,2.46-3.07c-.43,0-.82.08-1.22.1A2,2,0,0,1,24.67,19.14ZM6.94,11.56a15.73,15.73,0,0,0,3.75,4.7l.49-.53c-.6-.94-1.24-1.86-1.79-2.82s-1-2-1.51-2.95l-1,.65.38,1.21,0,0ZM9,6A.29.29,0,0,1,9,6a4.16,4.16,0,0,1-.71,3.41.4.4,0,0,0,0,.45,23.05,23.05,0,0,0,2.45,4.53c.24.37.5.72.75,1.08-2-4.67-1.64-5.22-1.55-8.26l-.72,0,.44-.7Zm16.19,10a2.2,2.2,0,0,0-.1-3.39,2.46,2.46,0,0,0-2.83,0c-.09.07-.11.14,0,.23l.24.32a.36.36,0,0,0,.42.15,8.33,8.33,0,0,1,1.22-.17,1,1,0,0,1,.8.3,1.81,1.81,0,0,1,.46,1.07.77.77,0,0,1-.29.79.27.27,0,0,0-.08.18C25,15.59,25.09,15.74,25.16,15.92Zm-10.9-.28.3-.47a.36.36,0,0,0,0-.46,1.06,1.06,0,0,1-.2-.94,1.52,1.52,0,0,1,1.15-1.08,1.5,1.5,0,0,1,1.42.4c.07.06.2.13.26.1a6.15,6.15,0,0,0,.62-.42c.11-.09.08-.19,0-.26a2.62,2.62,0,0,0-2.19-.59C13.69,12.36,13.43,14.09,14.26,15.64ZM8,9.3c.91-1,1.11-3.29.18-4.14A.88.88,0,0,1,8,5.27c-.18.05-.22.16-.21.33a3.49,3.49,0,0,1,0,.46L7.36,6A11,11,0,0,0,8,9.3Zm19.72,5.94A39.8,39.8,0,0,0,29.3,10c-.56.16-.78-.29-1.09-.63A21.78,21.78,0,0,1,27.73,15.24ZM34.09,8a.81.81,0,0,0-.91-.24C33.48,7.85,33.74,8.05,34.09,8Zm-1.54.29c-.16.43-.15.79.05,1C32.81,8.88,32.64,8.58,32.55,8.24ZM32,6.94c-.11-.29-.14-.63-.54-.8C31.51,6.56,31.8,6.74,32,6.94ZM31,4.23l-.09.09.51.58s.12,0,.18,0,0-.15,0-.18C31.38,4.56,31.18,4.4,31,4.23ZM28.74,3a.9.9,0,0,0,.87.37C29.35,3.12,29.13,2.89,28.74,3Zm4.16,4c.41-.32.57-.54.53-.77C33.18,6.16,33,6.46,32.9,6.91Zm-3.15-2.7c-.42.19-.67.51-.56.7A1,1,0,0,0,29.75,4.21Zm1.84,3.37c-.34,0-.65-.13-.95.11A.84.84,0,0,0,31.59,7.58ZM30.39,2a1,1,0,0,0,0,.91C30.57,2.45,30.58,2.17,30.39,2ZM31,3.47c.55,0,.86-.09.89-.33C31.51,3.08,31.26,3.28,31,3.47Zm-3.09,4.4c.19-.49.18-.75,0-.88C27.65,7.3,27.8,7.58,27.86,7.87Zm1.28,1.9a.82.82,0,0,0-.71-.6C28.63,9.43,28.77,9.72,29.14,9.77Zm-1.75-.54c-.44.27-.59.49-.5.73C27.2,9.81,27.28,9.51,27.39,9.23Zm1.16-.85c.53,0,.75-.11.82-.36A1.13,1.13,0,0,0,28.55,8.38Zm-1.39,0c-.25-.17-.47-.4-.88-.28A1.06,1.06,0,0,0,27.16,8.36ZM9.71,7l.81-.07v0l-.63-.18ZM6.77,5.7c.24.08.45-.3.68,0v-.3l-.68.06Zm-.92,5.44.58-.39a.81.81,0,0,0-.31,0C5.83,10.79,5.83,10.8,5.85,11.14ZM17.59,21.2,17.16,21C17.15,21.27,17.15,21.27,17.59,21.2Z"/><path d="M17,10.06a.49.49,0,0,1-.42.32c-.33.06-.65.15-1,.19a.46.46,0,0,1-.36-.11c-.05,0,0-.22.05-.31.36-.62.72-1.23,1.09-1.84.19-.31.29-.3.47,0L16,10a.63.63,0,0,0,.69-.2c.07-.08.24-.08.41-.13a2.07,2.07,0,0,1,.62-1.06A1.58,1.58,0,0,1,19,8.12a.79.79,0,0,1,.71,1,1.71,1.71,0,0,1-2.09,1.41A.66.66,0,0,1,17,10.06Zm1.76-1.52a1.34,1.34,0,0,0-1.19,1c-.08.43.17.67.61.59a.77.77,0,0,0,.25-.1,1.94,1.94,0,0,0,.76-.77C19.44,8.85,19.26,8.55,18.76,8.54Z"/><path d="M23,8.93c.22,0,.43,0,.64-.1s.3.09.38.3a6.83,6.83,0,0,1-.85.25.69.69,0,0,0-.63.63c.3-.1.59-.21.89-.29s.36,0,.39.24a.22.22,0,0,1-.09.19c-.46.15-.92.31-1.39.42-.31.08-.5-.17-.38-.46.23-.55.48-1.11.72-1.66a.5.5,0,0,1,.45-.33c.32,0,.64-.09,1-.13.12,0,.21,0,.22.16s0,.25-.17.27a3.69,3.69,0,0,1-.65.07C23.15,8.49,23,8.64,23,8.93Z"/><path d="M4.14,19.22l.45,0c0,.25-.07.39-.28.42l-1.24.12c0-.36.1-.42.42-.48a.28.28,0,0,0,.18-.09c.25-.43.48-.87.74-1.35H3.74c.07-.39.22-.52.61-.53h.91a.16.16,0,0,1,.19.17c0,.12.09.29-.12.35,0,0-.07,0-.1,0-.3-.05-.42.13-.53.36S4.35,18.84,4.14,19.22Z"/><path d="M32.88,19.79a2,2,0,0,1-.35-.07.45.45,0,0,1-.34-.49,1.63,1.63,0,0,1,1.23-1.42.74.74,0,0,1,.78.26.69.69,0,0,1,0,.78A1.37,1.37,0,0,1,32.88,19.79Zm.13-.35a1.32,1.32,0,0,0,1-.8.31.31,0,0,0-.24-.48,1,1,0,0,0-1.1.8A.35.35,0,0,0,33,19.44Z"/><path d="M20.25,9.66a3.47,3.47,0,0,1,1.46-1.55l.14.11.12.13a.63.63,0,0,1-.45.44,1,1,0,0,0-.6.48c-.26.42-.51.85-.78,1.29l-.47-.22a3.86,3.86,0,0,0,.12-1.75c0-.17.05-.25.19-.31s.21,0,.21.13c0,.37,0,.73,0,1.1v.13Z"/><path d="M35.74,19.71l-.3-.12a.41.41,0,0,0-.19,0c-.15,0-.28.11-.42.14s-.29.05-.34,0-.2-.32-.15-.43a14.61,14.61,0,0,1,.63-1.4c.07-.15.19-.13.32,0-.17.37-.34.73-.49,1.1s0,.35.26.3a.73.73,0,0,0,.64-.45,6.8,6.8,0,0,1,.47-.83c.14-.22.2-.23.38-.08Z"/><path d="M30.47,19.53c.16-.24.33-.46.47-.69a.26.26,0,0,0,0-.21c-.07-.15-.17-.29-.24-.45a.46.46,0,0,1,0-.26.21.21,0,0,1,.16-.08s.07.06.09.11l.32.55.57-.62a.82.82,0,0,1,.22-.16c.07,0,.18,0,.22,0s0,.15,0,.22-.06.08-.1.11a5.06,5.06,0,0,0-1.35,1.49C30.63,19.81,30.6,19.81,30.47,19.53Z"/><path d="M23.21,16.79c0,.41-.22.7-.5.69a.61.61,0,0,1-.48-.67,1.18,1.18,0,0,1,0-.2.5.5,0,0,1,.46-.4.49.49,0,0,1,.45.4A.47.47,0,0,1,23.21,16.79Z"/><path d="M17.41,17.08a.56.56,0,0,1-.5.64.61.61,0,0,1-.48-.67.6.6,0,0,1,.5-.61A.58.58,0,0,1,17.41,17.08Z"/><path d="M21,21c-.19-.11-.36-.23-.54-.32s-.16,0-.24,0h0c-.53.34-.53.34-1,0a.2.2,0,0,1-.06-.31.21.21,0,0,1,.32-.07l.29.2c.14-.14.4-.16.37-.43a.5.5,0,0,0-.11-.26c-.22-.22-.45-.43-.68-.63a.25.25,0,0,1-.09-.33s0-.05,0-.07c.15-.43.17-.44.62-.44s.73,0,1.1,0c.06,0,.13.06.19.09l0,0c.31.49.31.49-.07.9-.13.13-.24.28-.38.4a.35.35,0,0,0-.12.43.65.65,0,0,0,.36.26c.06,0,.17-.07.24-.13s.24-.09.34,0a.17.17,0,0,1,0,.27Z"/></g><g class="cls-3"><path d="M24,24.24h-.27l-.08-.75c-.17.08-.33.17-.5.23a.73.73,0,0,1-1-.5c-.13-.39-.28-.78-.44-1.17a.3.3,0,0,0-.2-.16c-.33-.06-.66-.09-1-.14.33.55.83.94.92,1.51l-.35.19c-.13.06-.18,0-.25-.12-.23-.36-.47-.72-.71-1.08a1.12,1.12,0,0,0-.18-.2c-.23-.24-.4-.24-.59,0s-.38.64-.56,1c-.08.12-.13.27-.22.38a.33.33,0,0,1-.22.16c-.08,0-.16-.12-.23-.19a1,1,0,0,0-.17-.18c-.11-.36-.06-.47.63-1.24L18,22l-.8,0C17,22,17,22,17,21.8a2.24,2.24,0,0,0-.08-.57,6.46,6.46,0,0,1-.45,1.83l-.09.19c-.2.47-.32.55-.84.6l-.07.39h-.26s0-.09,0-.13c0-.32,0-.32-.26-.39a4.2,4.2,0,0,1-2.11-1.39,13.52,13.52,0,0,1-2.21-3.73c-.14-.35-.27-.71-.4-1.07a1.83,1.83,0,0,1,0-1.18.26.26,0,0,0-.06-.23,18.27,18.27,0,0,1-3.93-4.94L6,10.84l-.76.5v-.88a6.2,6.2,0,0,1-.87-.24A3.42,3.42,0,0,1,2.23,7.67a3.9,3.9,0,0,1,1.17-4A6.53,6.53,0,0,1,4,3.25,4.1,4.1,0,0,1,3.73.8h.12L4,.86A3.73,3.73,0,0,0,4.19,3,2.79,2.79,0,0,0,5.83,4.72a3.54,3.54,0,0,0,.81.07,1.65,1.65,0,0,0,1.21-.32.23.23,0,0,0,.08-.18,3.3,3.3,0,0,1,.69-3c.14-.19.3-.36.46-.54l.2.18c-.16.21-.33.4-.48.6A3.47,3.47,0,0,0,8.12,3a3,3,0,0,0,.71,2.31l.08.1a2,2,0,0,0,1.4.82,5.07,5.07,0,0,0,1.29,0A2.17,2.17,0,0,0,13,5.44,5.36,5.36,0,0,0,14.24,2.6,3.27,3.27,0,0,0,13.91.88l.23-.13a2.66,2.66,0,0,1,.38,1.15,5.05,5.05,0,0,1-1.33,3.72,2.43,2.43,0,0,1-1.57,1,8.06,8.06,0,0,1-1.1,0L10.24,7.9h0l-.27-1H9.87c0,.2-.07.4-.09.61A12,12,0,0,0,10.17,12a14.86,14.86,0,0,0,1.18,3c0,.07.14.16.2.15a2,2,0,0,1,1.65.54l.47.43a1.73,1.73,0,0,0-.06-.68A3.4,3.4,0,0,1,13.26,13a2.48,2.48,0,0,1,2.46-1.74,3.07,3.07,0,0,1,1.68.56.42.42,0,0,0,.39,0,5.25,5.25,0,0,1,3.78.11.35.35,0,0,0,.24,0A3,3,0,0,1,24,11.54a2.39,2.39,0,0,1,1.86,2.06,2.15,2.15,0,0,1-.62,2,.51.51,0,0,0-.19.42,2.32,2.32,0,0,1,0,.44l.13-.12a13.84,13.84,0,0,1,1.07-1,4.78,4.78,0,0,1,.76-.35.22.22,0,0,0,.14-.14c.16-1.11.35-2.23.47-3.35.07-.72.05-1.46.05-2.19a2.12,2.12,0,0,0-.15-.73,4.14,4.14,0,0,1-.19.49,4.12,4.12,0,0,1-.39.6.41.41,0,0,1-.54.09.44.44,0,0,1-.08-.55,3.94,3.94,0,0,1,.55-.61,3.5,3.5,0,0,1,.45-.31c-.3,0-.56,0-.82-.08a2.07,2.07,0,0,1-.58-.23.31.31,0,0,1-.14-.41.53.53,0,0,1,.36-.23,1.62,1.62,0,0,1,.64.18,5.41,5.41,0,0,1,.61.41c-.07-.3-.15-.62-.2-.93a1.08,1.08,0,0,1,0-.4.38.38,0,0,1,.35-.32.37.37,0,0,1,.37.29,1.31,1.31,0,0,1,0,.56c-.05.28-.14.56-.22.86a6.31,6.31,0,0,1,.53-.41,2.4,2.4,0,0,1,.59-.27.39.39,0,0,1,.48.18.38.38,0,0,1-.15.49,4.14,4.14,0,0,1-.77.27,2.58,2.58,0,0,1-.46.06,2.46,2.46,0,0,1,1.15.78,23,23,0,0,0,.78-5.47c0,.07-.06.12-.09.16a7.33,7.33,0,0,1-.39.67.62.62,0,0,1-.31.27.58.58,0,0,1-.43,0,.31.31,0,0,1-.1-.43A1.89,1.89,0,0,1,29,3.82a5.34,5.34,0,0,1,.68-.45c-.31-.05-.6-.09-.89-.16A1.38,1.38,0,0,1,28.32,3a.4.4,0,0,1-.17-.48.43.43,0,0,1,.47-.21,1.61,1.61,0,0,1,.84.45l.31.28c0-.36-.1-.73-.12-1.09a.56.56,0,0,1,.09-.36.46.46,0,0,1,.32-.22.5.5,0,0,1,.33.21.78.78,0,0,1,0,.7c-.08.28-.19.55-.3.84a6.39,6.39,0,0,1,.58-.38,2.68,2.68,0,0,1,.67-.24.36.36,0,0,1,.43.23.37.37,0,0,1-.19.47,3.14,3.14,0,0,1-.72.22c-.16,0-.33,0-.51,0l.18.1c.2.12.41.23.61.37a1.83,1.83,0,0,1,.32.36.39.39,0,0,1,0,.49.38.38,0,0,1-.48,0,1.13,1.13,0,0,1-.38-.31c-.17-.23-.3-.49-.46-.74a35.93,35.93,0,0,1-1.69,9,30.15,30.15,0,0,1,3.22-5.32,9,9,0,0,1-.87.3,1,1,0,0,1-.54,0A.45.45,0,0,1,30,7.37.43.43,0,0,1,30.25,7,2.29,2.29,0,0,1,31,6.93a5.29,5.29,0,0,1,.73.1,6,6,0,0,1-.51-.46,2.33,2.33,0,0,1-.31-.5A.37.37,0,0,1,31,5.59a.36.36,0,0,1,.49.08,3.42,3.42,0,0,1,.39.64,5.35,5.35,0,0,1,.21.64c0-.14.06-.25.1-.35a5.25,5.25,0,0,1,.33-.77.67.67,0,0,1,.35-.29.41.41,0,0,1,.36,0,.42.42,0,0,1,.11.38,1.44,1.44,0,0,1-.3.52c-.19.21-.42.38-.65.59a7.79,7.79,0,0,1,1,0,1,1,0,0,1,.52.24.43.43,0,0,1,.1.36.55.55,0,0,1-.32.23,1.12,1.12,0,0,1-.79-.18l-.57-.33c.1.31.21.61.28.93a1.15,1.15,0,0,1,0,.52.36.36,0,0,1-.37.29.37.37,0,0,1-.37-.32,4.39,4.39,0,0,1,0-.81c0-.14.06-.27.07-.43l-.15.18a30,30,0,0,0-4,7.33.17.17,0,0,0,.08.24,1.42,1.42,0,0,1,.62,1.12,3.68,3.68,0,0,1-.41,1.93,12.05,12.05,0,0,1-4,4.8.25.25,0,0,0-.13.28c0,.12,0,.25,0,.38S24,24.09,24,24.24Zm-6.59-3.67a2.13,2.13,0,0,1-.54-1.92,2.47,2.47,0,0,1,1-1.79,3.53,3.53,0,0,1,3.91.21,2.3,2.3,0,0,1,.82,2.25,5.44,5.44,0,0,1-.38.94,3.35,3.35,0,0,0,1.35-.93,5.21,5.21,0,0,0,1.16-3.39.34.34,0,0,0-.09-.18,1.26,1.26,0,0,1-.31-.76,1,1,0,0,0-.1-.43,3.8,3.8,0,0,0-1.34-1.24.31.31,0,0,0-.32-.05.42.42,0,0,1-.31,0,1.53,1.53,0,0,1-.74-.88.33.33,0,0,0-.19-.21,4.66,4.66,0,0,0-2.18-.31c-.46,0-.91.16-1.36.24a.8.8,0,0,1,0,.32,1.5,1.5,0,0,1-1.14.75.32.32,0,0,0-.22.1c-.32.32-.62.67-1,1a1.42,1.42,0,0,1-.84.47s-.08.06-.1.11a1.58,1.58,0,0,1-.51.69s0,.11,0,.17a5.53,5.53,0,0,0,.34,2.09,2.44,2.44,0,0,0,.23.33.37.37,0,0,1,.07.14,1.59,1.59,0,0,0,.1.33,8.2,8.2,0,0,0,.8.95A4.43,4.43,0,0,0,17.39,20.57ZM6.13,5.72c0-.17,0-.32,0-.47s0-.15-.15-.18a2.31,2.31,0,0,1-1.14-.61c-.28-.28-.52-.59-.79-.91-.1.07-.23.15-.35.25a3.79,3.79,0,0,0-.2,5.57,2.75,2.75,0,0,0,3.81,0,.25.25,0,0,0,.09-.32A11.15,11.15,0,0,1,6.8,6.51l-.09-.87Zm4.32,10.71a1.41,1.41,0,0,0,0,1,15,15,0,0,0,2.13,4.21,5.27,5.27,0,0,0,1.72,1.57,3.09,3.09,0,0,0,1.29.37.43.43,0,0,0,.46-.3c.09-.26.2-.5.28-.75a3.33,3.33,0,0,0,.19-1.71.53.53,0,0,0-.28-.39,4.64,4.64,0,0,1-1.83-1.74l-.08-.12a5.85,5.85,0,0,0-.63.23,1.45,1.45,0,0,1-1.44-.1s0,0-.09,0c.4.71.78,1.41,1.18,2.09a1.83,1.83,0,0,0,.37.46c.13.13.16.23,0,.39a1.29,1.29,0,0,1-.62-.64c-.7-1.26-1.38-2.53-2.05-3.81A1.29,1.29,0,0,0,10.45,16.43ZM19.5,21v0l.73-.06a2.34,2.34,0,0,0,1.37-.5,2,2,0,0,0,.05-3,2.83,2.83,0,0,0-2.05-.69A2.9,2.9,0,0,0,18.2,17a2.31,2.31,0,0,0-1.1,2,1.63,1.63,0,0,0,1.2,1.71A9.8,9.8,0,0,0,19.5,21Zm4.83-2.19c-.18.25-.34.49-.53.71a3.91,3.91,0,0,1-2,1.19c-.09,0-.21,0-.14.2l.58-.06c0,.29.09.59.13.89s0,.33-.28.28H22q.21.54.39,1.05c.16.47.38.57.83.35l.15-.08a11.83,11.83,0,0,0,4.5-5.08,3.2,3.2,0,0,0,.36-1.8,3.51,3.51,0,0,0-.15-.53c0,.25,0,.48,0,.71a2.71,2.71,0,0,1-.72,1.87,1.31,1.31,0,0,0-.24.34A10,10,0,0,1,25.69,21a5.63,5.63,0,0,1-1.27,1.16L24.26,22a8,8,0,0,0,2.46-3.06c-.43,0-.82.08-1.22.1A1.91,1.91,0,0,1,24.33,18.79ZM6.6,11.22a15.73,15.73,0,0,0,3.75,4.7l.49-.53c-.6-1-1.24-1.86-1.79-2.82s-1-2-1.52-3l-1,.65.38,1.21,0,0Zm2-5.61a.29.29,0,0,1,0,.09,4.16,4.16,0,0,1-.71,3.41.4.4,0,0,0-.05.45,23.05,23.05,0,0,0,2.45,4.53c.24.37.5.72.75,1.08C9.13,10.5,9.45,10,9.54,6.91L8.82,7l.44-.7Zm16.19,10a2.2,2.2,0,0,0-.1-3.39,2.46,2.46,0,0,0-2.83,0c-.09.07-.11.14,0,.23l.24.32a.36.36,0,0,0,.42.15,8.33,8.33,0,0,1,1.22-.17,1,1,0,0,1,.8.3A1.81,1.81,0,0,1,25,14.13a.77.77,0,0,1-.29.79.27.27,0,0,0-.08.18C24.67,15.25,24.75,15.4,24.82,15.58Zm-10.9-.28.3-.47a.38.38,0,0,0,0-.46,1.06,1.06,0,0,1-.2-.94,1.55,1.55,0,0,1,2.57-.68c.07.06.2.13.26.1a6.15,6.15,0,0,0,.62-.42c.11-.09.08-.19,0-.26a2.62,2.62,0,0,0-2.19-.59C13.35,12,13.09,13.75,13.92,15.3ZM7.67,9c.91-1,1.11-3.29.18-4.14a.88.88,0,0,1-.24.11c-.18,0-.22.16-.21.33a3.49,3.49,0,0,1,0,.46L7,5.66A11,11,0,0,0,7.67,9ZM27.39,14.9A39.8,39.8,0,0,0,29,9.67c-.56.16-.78-.29-1.09-.63A21.78,21.78,0,0,1,27.39,14.9Zm6.36-7.29a.81.81,0,0,0-.91-.24C33.14,7.51,33.4,7.71,33.75,7.61Zm-1.54.28c-.16.44-.15.8,0,1C32.47,8.54,32.3,8.24,32.21,7.89ZM31.7,6.6c-.11-.29-.14-.63-.54-.8C31.17,6.22,31.46,6.4,31.7,6.6ZM30.65,3.89,30.56,4l.51.58s.12,0,.18,0,0-.15,0-.18C31,4.22,30.84,4.06,30.65,3.89ZM28.4,2.61a.9.9,0,0,0,.87.37C29,2.78,28.79,2.55,28.4,2.61Zm4.16,4c.41-.32.57-.54.53-.77C32.84,5.82,32.63,6.12,32.56,6.57Zm-3.15-2.7c-.42.19-.67.51-.56.7A1,1,0,0,0,29.41,3.87Zm1.84,3.37c-.34,0-.65-.13-.95.11A.84.84,0,0,0,31.25,7.24Zm-1.2-5.6a1,1,0,0,0,0,.91C30.23,2.11,30.24,1.83,30.05,1.64Zm.56,1.49c.55,0,.86-.09.89-.33C31.17,2.74,30.92,2.94,30.61,3.13Zm-3.09,4.4c.19-.49.18-.75,0-.88C27.31,7,27.46,7.24,27.52,7.53Zm1.28,1.9a.85.85,0,0,0-.71-.61C28.29,9.08,28.43,9.38,28.8,9.43Zm-1.75-.54c-.44.27-.59.49-.5.73C26.86,9.47,26.94,9.17,27.05,8.89ZM28.21,8c.53,0,.75-.11.82-.37A1.18,1.18,0,0,0,28.21,8ZM26.82,8c-.25-.17-.47-.4-.88-.28A1.06,1.06,0,0,0,26.82,8ZM9.37,6.63l.81-.07v0l-.63-.18ZM6.43,5.36c.24.08.45-.3.68,0v-.3l-.68.06ZM5.51,10.8l.58-.39a.81.81,0,0,0-.31,0C5.49,10.45,5.49,10.46,5.51,10.8ZM17.25,20.86l-.43-.16C16.81,20.93,16.81,20.93,17.25,20.86Z"/><path d="M16.66,9.72a.49.49,0,0,1-.42.32c-.33.06-.65.15-1,.19a.45.45,0,0,1-.35-.11c-.05,0,0-.22.05-.31.36-.62.72-1.23,1.09-1.84.19-.31.29-.3.47,0l-.91,1.68a.65.65,0,0,0,.69-.2c.07-.08.24-.08.41-.13a2.07,2.07,0,0,1,.62-1.06,1.58,1.58,0,0,1,1.3-.48.79.79,0,0,1,.71,1,1.71,1.71,0,0,1-2.09,1.41A.66.66,0,0,1,16.66,9.72ZM18.42,8.2a1.34,1.34,0,0,0-1.19,1c-.08.43.17.67.61.59a.77.77,0,0,0,.25-.1,1.94,1.94,0,0,0,.76-.77C19.1,8.51,18.92,8.21,18.42,8.2Z"/><path d="M22.62,8.59c.22,0,.43-.05.64-.1s.3.09.38.3a6.83,6.83,0,0,1-.85.25.69.69,0,0,0-.63.63c.3-.1.59-.21.89-.3s.36,0,.39.25a.22.22,0,0,1-.09.19c-.46.15-.92.31-1.39.42-.31.08-.5-.17-.38-.46.23-.55.48-1.11.72-1.66a.5.5,0,0,1,.45-.33c.32,0,.64-.09,1-.13.12,0,.21,0,.22.16s0,.24-.17.27a3.69,3.69,0,0,1-.65.07C22.81,8.15,22.68,8.3,22.62,8.59Z"/><path d="M3.8,18.88l.45,0c0,.25-.07.39-.28.42l-1.24.12c0-.36.1-.42.42-.48a.28.28,0,0,0,.18-.09c.25-.43.48-.87.74-1.35H3.4c.07-.39.22-.52.61-.53h.91a.16.16,0,0,1,.19.17c0,.12.09.29-.12.35,0,0-.07,0-.1,0-.3-.05-.42.13-.53.36S4,18.5,3.8,18.88Z"/><path d="M32.54,19.45a2,2,0,0,1-.35-.07.45.45,0,0,1-.34-.49,1.63,1.63,0,0,1,1.23-1.42.74.74,0,0,1,.78.26.69.69,0,0,1,0,.78A1.37,1.37,0,0,1,32.54,19.45Zm.13-.35a1.32,1.32,0,0,0,1-.8.31.31,0,0,0-.24-.48,1,1,0,0,0-1.1.8A.35.35,0,0,0,32.67,19.1Z"/><path d="M19.91,9.32a3.47,3.47,0,0,1,1.46-1.55l.14.11a1.42,1.42,0,0,0,.12.13.63.63,0,0,1-.45.44,1.05,1.05,0,0,0-.6.47l-.78,1.3L19.33,10a3.86,3.86,0,0,0,.12-1.75.28.28,0,0,1,.19-.31c.13-.06.21,0,.21.13,0,.37,0,.73,0,1.1V9.3Z"/><path d="M35.4,19.37l-.3-.12a.41.41,0,0,0-.19,0c-.15,0-.28.11-.42.14s-.29.05-.34,0-.2-.32-.15-.43a14.61,14.61,0,0,1,.63-1.4c.07-.15.19-.13.32,0-.17.37-.34.73-.49,1.1s0,.35.26.3a.73.73,0,0,0,.64-.45,6.8,6.8,0,0,1,.47-.83c.14-.22.2-.23.38-.08Z"/><path d="M30.12,19.19c.17-.24.34-.46.48-.69a.26.26,0,0,0,0-.21c-.07-.15-.17-.29-.24-.45a.46.46,0,0,1,0-.26.21.21,0,0,1,.16-.08s.07.06.09.11l.32.55c.2-.22.38-.43.57-.62a.65.65,0,0,1,.22-.16c.07,0,.18,0,.22,0s0,.15,0,.22-.06.08-.1.11a5.06,5.06,0,0,0-1.35,1.49C30.29,19.47,30.26,19.47,30.12,19.19Z"/><path d="M22.87,16.45c0,.41-.22.7-.5.69a.61.61,0,0,1-.48-.67,1.18,1.18,0,0,1,0-.2.5.5,0,0,1,.46-.4.49.49,0,0,1,.45.4A.47.47,0,0,1,22.87,16.45Z"/><path d="M17.07,16.74a.56.56,0,0,1-.5.64.61.61,0,0,1-.48-.67.6.6,0,0,1,.5-.61A.58.58,0,0,1,17.07,16.74Z"/><path d="M20.67,20.66c-.19-.11-.36-.23-.54-.32s-.16,0-.24,0h0c-.53.34-.53.34-1,0a.2.2,0,0,1-.06-.31.21.21,0,0,1,.32-.07l.29.2c.14-.14.4-.16.37-.43a.5.5,0,0,0-.11-.26c-.22-.22-.45-.43-.68-.63a.25.25,0,0,1-.09-.33s0-.05,0-.07c.15-.43.17-.44.62-.44s.73,0,1.1,0c.06,0,.13.06.19.09l0,0c.31.49.31.49-.07.9-.13.13-.24.28-.38.4a.35.35,0,0,0-.12.43.65.65,0,0,0,.36.26c.06,0,.17-.07.24-.13s.24-.09.34,0a.17.17,0,0,1,0,.27Z"/></g><path class="cls-4" d="M24.18,24.44h-.27l-.08-.75c-.18.08-.33.17-.5.23a.74.74,0,0,1-1-.5c-.14-.39-.28-.78-.44-1.17a.29.29,0,0,0-.2-.16c-.33-.06-.66-.09-1-.14.33.54.82.94.92,1.5l-.35.2c-.13.06-.19,0-.25-.12-.23-.36-.47-.72-.71-1.08a1.71,1.71,0,0,0-.18-.2c-.23-.24-.4-.24-.59,0s-.38.64-.57,1a2.93,2.93,0,0,1-.21.39c-.05.07-.16.16-.22.15s-.16-.11-.23-.18a1,1,0,0,0-.18-.18c-.11-.37,0-.47.64-1.24l-.52,0h-.8c-.16,0-.21-.07-.22-.22a4,4,0,0,0-.08-.58,6.14,6.14,0,0,1-.46,1.84,1.54,1.54,0,0,1-.08.19c-.2.46-.32.55-.84.6l-.07.39h-.26a.62.62,0,0,1,0-.13c0-.32,0-.32-.26-.39A4.27,4.27,0,0,1,13,22.53a13.52,13.52,0,0,1-2.21-3.73c-.15-.35-.28-.71-.4-1.07a1.83,1.83,0,0,1,0-1.18.26.26,0,0,0-.06-.23,18.08,18.08,0,0,1-3.93-4.94L6.17,11l-.76.51v-.88a7.36,7.36,0,0,1-.87-.24A3.44,3.44,0,0,1,2.42,7.87a3.92,3.92,0,0,1,1.18-4,6.53,6.53,0,0,1,.57-.43A4.18,4.18,0,0,1,3.92,1H4l.15.05A3.9,3.9,0,0,0,4.38,3.2,2.81,2.81,0,0,0,6,4.92a3.46,3.46,0,0,0,.8.07,1.7,1.7,0,0,0,1.22-.32.23.23,0,0,0,.08-.18,3.27,3.27,0,0,1,.69-3c.14-.19.3-.36.45-.55l.21.19c-.17.21-.33.4-.48.6a3.36,3.36,0,0,0-.68,1.53A2.92,2.92,0,0,0,9,5.54a.39.39,0,0,1,.08.1,1.91,1.91,0,0,0,1.4.81,5.07,5.07,0,0,0,1.29,0,2.14,2.14,0,0,0,1.38-.85A5.3,5.3,0,0,0,14.44,2.8a3.27,3.27,0,0,0-.33-1.72L14.34,1a2.48,2.48,0,0,1,.37,1.15,5,5,0,0,1-1.32,3.72,2.45,2.45,0,0,1-1.58.95,7.9,7.9,0,0,1-1.09,0L10.44,8.1h0l-.26-1h-.07c0,.2-.07.4-.09.61a11.78,11.78,0,0,0,.39,4.46,15.72,15.72,0,0,0,1.17,3c0,.07.15.16.21.15a2,2,0,0,1,1.65.54c.15.12.29.27.47.43,0-.25.05-.45-.07-.68a3.46,3.46,0,0,1-.34-2.36,2.46,2.46,0,0,1,2.45-1.74,3,3,0,0,1,1.68.55.41.41,0,0,0,.4.06,5.19,5.19,0,0,1,3.78.11.35.35,0,0,0,.24,0,2.9,2.9,0,0,1,2.15-.39A2.4,2.4,0,0,1,26,13.8a2.12,2.12,0,0,1-.63,2,.5.5,0,0,0-.18.43,2.32,2.32,0,0,1,0,.44l.13-.12a13.84,13.84,0,0,1,1.07-1,4.08,4.08,0,0,1,.76-.35.24.24,0,0,0,.14-.14c.16-1.11.35-2.23.47-3.35.07-.72,0-1.46,0-2.19a2.3,2.3,0,0,0-.14-.73,4.14,4.14,0,0,1-.19.49,3.55,3.55,0,0,1-.39.59.4.4,0,0,1-.54.09.41.41,0,0,1-.08-.54A4.45,4.45,0,0,1,27,8.88a3.94,3.94,0,0,1,.45-.31c-.29,0-.56,0-.81-.08a2.07,2.07,0,0,1-.58-.23.32.32,0,0,1-.14-.41.53.53,0,0,1,.36-.23,1.62,1.62,0,0,1,.64.18,6.49,6.49,0,0,1,.61.41c-.07-.31-.15-.62-.2-.93a1.08,1.08,0,0,1,0-.4.35.35,0,0,1,.34-.32.36.36,0,0,1,.38.28,1.33,1.33,0,0,1,0,.56c-.05.29-.15.57-.22.87a4,4,0,0,1,.53-.41A2.4,2.4,0,0,1,29,7.59a.39.39,0,0,1,.48.18.38.38,0,0,1-.15.48,3.55,3.55,0,0,1-.77.28,2.72,2.72,0,0,1-.46.06,2.46,2.46,0,0,1,1.15.78A23,23,0,0,0,30,3.9C30,4,30,4,30,4.06c-.13.22-.24.46-.39.67a.62.62,0,0,1-.31.27.6.6,0,0,1-.44,0,.32.32,0,0,1-.09-.43A2,2,0,0,1,29.16,4a7.26,7.26,0,0,1,.68-.45A8.55,8.55,0,0,1,29,3.4a1.17,1.17,0,0,1-.44-.2.39.39,0,0,1-.17-.48.43.43,0,0,1,.47-.22,1.63,1.63,0,0,1,.84.46l.31.28c0-.36-.1-.73-.13-1.1a.68.68,0,0,1,.1-.36.48.48,0,0,1,.32-.21.5.5,0,0,1,.33.21.78.78,0,0,1,0,.7c-.08.28-.19.55-.3.84a4.79,4.79,0,0,1,.58-.38,2.68,2.68,0,0,1,.67-.24.36.36,0,0,1,.43.23.38.38,0,0,1-.19.47,3.73,3.73,0,0,1-.72.22c-.16,0-.34,0-.51,0a1,1,0,0,1,.17.1,6.18,6.18,0,0,1,.61.37,1.42,1.42,0,0,1,.33.36A.37.37,0,0,1,31.2,5a1,1,0,0,1-.38-.31c-.17-.23-.31-.49-.46-.74a35.93,35.93,0,0,1-1.69,9,29.79,29.79,0,0,1,3.22-5.32c-.31.11-.59.23-.87.3a1,1,0,0,1-.54,0,.45.45,0,0,1-.25-.32.44.44,0,0,1,.22-.34,2.59,2.59,0,0,1,.74-.1,5,5,0,0,1,.72.1c-.18-.17-.36-.3-.5-.46a2.33,2.33,0,0,1-.31-.5.38.38,0,0,1,.14-.49.36.36,0,0,1,.48.09,3.2,3.2,0,0,1,.4.63,5.55,5.55,0,0,1,.21.65c0-.14.06-.25.1-.35A5.88,5.88,0,0,1,32.76,6a.7.7,0,0,1,.35-.28.41.41,0,0,1,.36,0,.45.45,0,0,1,.11.38,1.6,1.6,0,0,1-.3.52,7.84,7.84,0,0,1-.66.59,8,8,0,0,1,1,0,1,1,0,0,1,.52.24.38.38,0,0,1,.09.35.48.48,0,0,1-.31.24,1.18,1.18,0,0,1-.79-.18l-.57-.33c.1.31.21.61.28.93a1.25,1.25,0,0,1,0,.51.38.38,0,0,1-.74,0,4.39,4.39,0,0,1,0-.81c0-.14.06-.27.07-.43L32,8a30,30,0,0,0-4,7.33.17.17,0,0,0,.08.24,1.37,1.37,0,0,1,.61,1.12,3.7,3.7,0,0,1-.4,1.93,12.05,12.05,0,0,1-4,4.8.25.25,0,0,0-.13.28c0,.12,0,.25,0,.38S24.17,24.29,24.18,24.44Zm-6.59-3.67a2.11,2.11,0,0,1-.54-1.93,2.49,2.49,0,0,1,1-1.78,3.54,3.54,0,0,1,3.92.21,2.28,2.28,0,0,1,.81,2.25,4.71,4.71,0,0,1-.37.94,3.28,3.28,0,0,0,1.35-.94,5.12,5.12,0,0,0,1.15-3.38.27.27,0,0,0-.08-.18,1.2,1.2,0,0,1-.31-.76,1,1,0,0,0-.1-.43,4,4,0,0,0-1.34-1.25.35.35,0,0,0-.33,0,.39.39,0,0,1-.3,0,1.62,1.62,0,0,1-.75-.88.28.28,0,0,0-.18-.21,4.68,4.68,0,0,0-2.18-.32c-.46,0-.91.17-1.36.25a.8.8,0,0,1,0,.32,1.52,1.52,0,0,1-1.14.75.32.32,0,0,0-.22.1c-.32.32-.63.67-1,1a1.45,1.45,0,0,1-.84.47s-.08.06-.1.11a1.66,1.66,0,0,1-.51.69s-.05.11-.05.16a5.39,5.39,0,0,0,.34,2.1,2.35,2.35,0,0,0,.23.32,1,1,0,0,1,.07.15,1.59,1.59,0,0,0,.1.33,10.31,10.31,0,0,0,.8.95A4.43,4.43,0,0,0,17.59,20.77ZM6.33,5.91V5.45c0-.11,0-.15-.14-.18a2.31,2.31,0,0,1-1.14-.61c-.28-.28-.52-.59-.79-.91-.1.07-.24.15-.36.25a3.79,3.79,0,0,0-.19,5.57,2.77,2.77,0,0,0,3.81,0,.25.25,0,0,0,.08-.33A11.6,11.6,0,0,1,7,6.71l-.09-.87Zm4.32,10.72a1.35,1.35,0,0,0,0,1,15.18,15.18,0,0,0,2.13,4.21,5.28,5.28,0,0,0,1.72,1.57,3.05,3.05,0,0,0,1.29.37.41.41,0,0,0,.45-.31c.09-.25.21-.49.29-.75a3.39,3.39,0,0,0,.19-1.7.52.52,0,0,0-.28-.39,4.64,4.64,0,0,1-1.83-1.74l-.08-.12a5.85,5.85,0,0,0-.63.23,1.47,1.47,0,0,1-1.45-.1s0,0-.08,0c.4.71.78,1.4,1.18,2.09a1.83,1.83,0,0,0,.37.46.26.26,0,0,1,.05.39,1.33,1.33,0,0,1-.62-.64c-.7-1.26-1.38-2.53-2.05-3.81A1.26,1.26,0,0,0,10.65,16.63Zm9,4.55,0,0,.73-.06a2.52,2.52,0,0,0,1.37-.5,2,2,0,0,0,.05-3,2.85,2.85,0,0,0-2.05-.69,2.9,2.9,0,0,0-1.41.33,2.29,2.29,0,0,0-1.1,2,1.62,1.62,0,0,0,1.2,1.71C18.89,21.06,19.3,21.1,19.69,21.18ZM24.53,19c-.18.25-.34.49-.53.71a3.91,3.91,0,0,1-2,1.19c-.09,0-.21,0-.14.2l.58-.06c0,.29.09.59.13.89s0,.33-.28.28l-.16,0c.14.37.27.71.39,1.06s.38.57.83.35l.15-.08A11.83,11.83,0,0,0,28,18.43a3.3,3.3,0,0,0,.36-1.8,3.21,3.21,0,0,0-.15-.53c0,.25,0,.48,0,.71a2.75,2.75,0,0,1-.72,1.87,1.31,1.31,0,0,0-.24.34,10,10,0,0,1-1.38,2.2,5.87,5.87,0,0,1-1.27,1.16l-.16-.23a8.07,8.07,0,0,0,2.46-3.06c-.43,0-.82.08-1.22.1A2,2,0,0,1,24.53,19ZM6.8,11.41a15.65,15.65,0,0,0,3.75,4.71l.49-.54c-.6-.94-1.24-1.85-1.79-2.82s-1-2-1.52-2.95l-1,.66.38,1.21,0,0Zm2-5.6s0,.06,0,.08a4.17,4.17,0,0,1-.71,3.42.4.4,0,0,0-.05.45,23.55,23.55,0,0,0,2.44,4.53l.76,1.08c-2-4.68-1.64-5.22-1.55-8.26L9,7.15l.44-.7ZM25,15.78a2.2,2.2,0,0,0-.1-3.39,2.46,2.46,0,0,0-2.83,0c-.1.07-.11.13,0,.23l.24.32a.34.34,0,0,0,.41.15A8.69,8.69,0,0,1,23.93,13a1.07,1.07,0,0,1,.8.31,1.81,1.81,0,0,1,.46,1.07.78.78,0,0,1-.29.79.27.27,0,0,0-.08.17A4.61,4.61,0,0,0,25,15.78Zm-10.9-.28c.11-.18.2-.33.3-.47a.38.38,0,0,0,0-.46,1.06,1.06,0,0,1-.2-.94A1.55,1.55,0,0,1,16.77,13c.06.06.2.13.25.1a5.19,5.19,0,0,0,.62-.42c.11-.09.08-.19,0-.26a2.63,2.63,0,0,0-2.2-.59C13.55,12.22,13.29,14,14.12,15.5ZM7.87,9.16C8.78,8.17,9,5.87,8.05,5a1,1,0,0,1-.24.11c-.18,0-.22.16-.21.33s0,.3,0,.46l-.38-.06A11,11,0,0,0,7.87,9.16ZM27.59,15.1a39.93,39.93,0,0,0,1.57-5.24c-.56.17-.78-.28-1.09-.62A22.19,22.19,0,0,1,27.59,15.1ZM34,7.8A.81.81,0,0,0,33,7.57C33.34,7.71,33.6,7.91,34,7.8Zm-1.54.29c-.16.44-.15.79.05,1C32.66,8.73,32.5,8.44,32.41,8.09ZM31.9,6.8c-.11-.29-.14-.64-.54-.81C31.37,6.42,31.66,6.59,31.9,6.8Zm-1-2.71-.09.09c.17.19.33.39.51.57s.12,0,.17,0,0-.15,0-.18C31.24,4.42,31,4.26,30.85,4.09ZM28.59,2.81a.93.93,0,0,0,.88.37C29.21,3,29,2.74,28.59,2.81Zm4.16,4c.42-.32.57-.55.54-.77C33,6,32.83,6.31,32.75,6.77Zm-3.14-2.7c-.42.19-.68.5-.56.7A1,1,0,0,0,29.61,4.07Zm1.84,3.37c-.34,0-.66-.13-.95.11A.86.86,0,0,0,31.45,7.44Zm-1.2-5.6a1,1,0,0,0,0,.9C30.43,2.31,30.44,2,30.25,1.84Zm.56,1.48c.54,0,.86-.08.89-.32C31.36,2.94,31.12,3.14,30.81,3.32ZM27.72,7.73c.19-.49.18-.75,0-.88C27.51,7.15,27.66,7.44,27.72,7.73ZM29,9.63A.85.85,0,0,0,28.29,9C28.49,9.28,28.63,9.58,29,9.63Zm-1.75-.54c-.44.27-.59.49-.5.73A1.18,1.18,0,0,0,27.25,9.09Zm1.16-.85c.53,0,.74-.11.82-.37A1.14,1.14,0,0,0,28.41,8.24ZM27,8.22c-.25-.17-.48-.4-.88-.28A1,1,0,0,0,27,8.22ZM9.57,6.83l.81-.07v0l-.63-.18ZM6.63,5.56c.24.08.44-.3.68.05v-.3l-.68.06ZM5.71,11l.57-.39a.76.76,0,0,0-.3,0C5.69,10.65,5.69,10.65,5.71,11ZM17.45,21.06,17,20.9C17,21.13,17,21.13,17.45,21.06Z"/><path class="cls-4" d="M16.86,9.92a.49.49,0,0,1-.42.32c-.33.06-.65.15-1,.19a.45.45,0,0,1-.35-.11s0-.22.05-.31c.36-.62.72-1.23,1.09-1.84.19-.31.29-.3.47,0l-.91,1.68a.65.65,0,0,0,.69-.2c.07-.09.24-.08.41-.13a2,2,0,0,1,.62-1.06A1.52,1.52,0,0,1,18.83,8a.79.79,0,0,1,.71,1,1.71,1.71,0,0,1-2.09,1.41A.66.66,0,0,1,16.86,9.92ZM18.62,8.4a1.34,1.34,0,0,0-1.19,1c-.08.43.17.67.61.59a.87.87,0,0,0,.25-.1,2,2,0,0,0,.76-.77C19.3,8.71,19.12,8.41,18.62,8.4Z"/><path class="cls-4" d="M22.82,8.79c.22,0,.43,0,.64-.1s.3.09.38.3c-.29.08-.56.2-.85.25a.69.69,0,0,0-.63.63l.88-.3c.23-.06.36,0,.4.25a.22.22,0,0,1-.09.19c-.46.15-.92.31-1.4.42-.3.07-.49-.17-.37-.46.23-.56.48-1.11.72-1.66A.5.5,0,0,1,23,8c.32,0,.64-.09,1-.13.12,0,.21,0,.21.16s0,.24-.17.27a3.5,3.5,0,0,1-.65.07C23,8.35,22.87,8.5,22.82,8.79Z"/><path class="cls-4" d="M4,19.08l.45,0c0,.25-.08.39-.28.42l-1.24.12c0-.36.09-.42.42-.48A.28.28,0,0,0,3.53,19l.74-1.35H3.6c.07-.39.22-.52.61-.53h.91a.16.16,0,0,1,.19.17c0,.12.08.29-.12.35,0,0-.07,0-.1,0-.3-.06-.42.13-.53.36S4.21,18.7,4,19.08Z"/><path class="cls-4" d="M32.74,19.65a2,2,0,0,1-.35-.07.44.44,0,0,1-.34-.5,1.62,1.62,0,0,1,1.23-1.41.75.75,0,0,1,.78.26.68.68,0,0,1,0,.77A1.4,1.4,0,0,1,32.74,19.65Zm.13-.35a1.39,1.39,0,0,0,1-.8c.1-.25,0-.41-.25-.48a1,1,0,0,0-1.1.8C32.42,19.12,32.56,19.29,32.87,19.3Z"/><path class="cls-4" d="M20.11,9.52A3.44,3.44,0,0,1,21.57,8l.14.12.11.13a.63.63,0,0,1-.44.44,1,1,0,0,0-.6.47c-.27.42-.52.86-.78,1.3l-.47-.22a3.89,3.89,0,0,0,.12-1.76.27.27,0,0,1,.19-.3c.13-.06.21,0,.21.13,0,.37,0,.73,0,1.1V9.5Z"/><path class="cls-4" d="M35.6,19.57l-.3-.12a.34.34,0,0,0-.2,0c-.14,0-.27.11-.42.14s-.29,0-.34,0-.19-.31-.15-.42c.19-.48.41-.94.64-1.4.07-.15.19-.14.32,0-.17.37-.35.73-.49,1.1s0,.35.25.3a.74.74,0,0,0,.65-.45,6.8,6.8,0,0,1,.47-.83c.14-.23.2-.23.38-.08Z"/><path class="cls-4" d="M30.32,19.39c.17-.24.33-.46.48-.69a.26.26,0,0,0,0-.21c-.07-.16-.17-.29-.24-.45a.46.46,0,0,1,0-.26s.1-.08.15-.08.08.06.1.11.21.36.31.55c.21-.22.39-.43.58-.62a.65.65,0,0,1,.22-.16.24.24,0,0,1,.22,0,.44.44,0,0,1,0,.23.19.19,0,0,1-.1.1,5.19,5.19,0,0,0-1.35,1.49C30.49,19.66,30.46,19.67,30.32,19.39Z"/><path class="cls-4" d="M23.07,16.65c0,.41-.22.7-.5.69a.61.61,0,0,1-.48-.67,1.55,1.55,0,0,1,0-.21.49.49,0,0,1,.46-.4.51.51,0,0,1,.45.41A.82.82,0,0,1,23.07,16.65Z"/><path class="cls-4" d="M17.27,16.94c0,.37-.21.64-.5.63a.66.66,0,0,1,0-1.27C17.06,16.3,17.27,16.59,17.27,16.94Z"/><path class="cls-4" d="M20.87,20.86c-.19-.12-.36-.23-.54-.32a.49.49,0,0,0-.24,0h0c-.53.34-.53.34-1,0-.13-.1-.14-.2-.06-.31a.2.2,0,0,1,.32-.07l.29.2c.14-.14.4-.16.37-.44a.57.57,0,0,0-.11-.25c-.22-.22-.45-.43-.68-.63a.26.26,0,0,1-.09-.34s0,0,0-.06c.15-.43.17-.44.62-.44h1.1c.06,0,.13.06.19.09s0,0,0,0c.31.48.31.48-.08.9a3.5,3.5,0,0,1-.38.39.36.36,0,0,0-.11.44.7.7,0,0,0,.36.26c.05,0,.17-.08.24-.14s.24-.08.34,0a.17.17,0,0,1,0,.27Z"/></g></g></svg>