<svg xmlns="http://www.w3.org/2000/svg" viewBox="0 0 38.55 24.66"><defs><style>.cls-1{isolation:isolate;}.cls-2{opacity:0.15;}.cls-2,.cls-3{mix-blend-mode:multiply;}.cls-4{fill:#fff;}</style></defs><title>convert-FIX-SVG-03</title><g class="cls-1"><g id="Layer_1" data-name="Layer 1"><g class="cls-2"><path d="M19.35,4.87c.3-.29.61-.61.95-.9a7,7,0,0,1,3.4-1.66,11.1,11.1,0,0,1,2.07-.21A6.36,6.36,0,0,1,29.9,3.65a6.71,6.71,0,0,1,2.33,4.13,9,9,0,0,1-.56,4.69,15.63,15.63,0,0,1-2.48,4.25A32.29,32.29,0,0,1,23,22.55c-.65.49-1.32.95-2,1.42a.64.64,0,0,1-.33.1H18a.57.57,0,0,1-.29-.08,40.94,40.94,0,0,1-6.49-5.32A20.28,20.28,0,0,1,7.7,13.89a11,11,0,0,1-1.2-3.52A7.12,7.12,0,0,1,7.84,4.68a6.25,6.25,0,0,1,4-2.46,7.9,7.9,0,0,1,6.3,1.52A14.69,14.69,0,0,1,19.35,4.87Zm0,1.42a6.49,6.49,0,0,0-2-1.66A6.81,6.81,0,0,0,15,3.94a6.2,6.2,0,0,0-2,0A5.45,5.45,0,0,0,9.79,5.88,5.75,5.75,0,0,0,8.44,9.3a8,8,0,0,0,.61,3.47,15.65,15.65,0,0,0,3.32,4.92,26.6,26.6,0,0,0,3.31,3c1,.76,2.06,1.48,3.1,2.21a.92.92,0,0,0,1.09,0,33.56,33.56,0,0,0,7.24-6,14.91,14.91,0,0,0,2.36-3.58,7.89,7.89,0,0,0,.74-4.61A5.64,5.64,0,0,0,27.8,4.84a5.13,5.13,0,0,0-2.43-.92A10.37,10.37,0,0,0,23.7,4,6.25,6.25,0,0,0,21,4.83,6.1,6.1,0,0,0,19.36,6.29Z"/><path d="M28.48.47h.2c2,0,4,0,6,0a.41.41,0,0,1,.36.15,9.5,9.5,0,0,1,2.07,3.77A10.49,10.49,0,0,1,37.53,8a15.21,15.21,0,0,1-1.75,6,26.15,26.15,0,0,1-3,4.54,40.12,40.12,0,0,1-4.45,4.58l-1,.9a.39.39,0,0,1-.23.09c-1.16,0-2.32,0-3.51,0l.44-.34a41,41,0,0,0,5.12-4.55,22.33,22.33,0,0,0,4-5.56,12.62,12.62,0,0,0,1.19-3.67A8.38,8.38,0,0,0,32.94,3.6a7.61,7.61,0,0,0-4.28-3L28.47.5Z"/><path d="M10.31.49a7.77,7.77,0,0,0-3.1,1.56A7.86,7.86,0,0,0,4.58,6.24a8.76,8.76,0,0,0-.21,2.93,13.61,13.61,0,0,0,1.79,5.36,22.66,22.66,0,0,0,2.53,3.55,34.85,34.85,0,0,0,4.67,4.5c.57.47,1.16.92,1.74,1.37a.39.39,0,0,0,.11.06l0,.06H11.76a.55.55,0,0,1-.34-.13,41.72,41.72,0,0,1-4.1-3.88,26.85,26.85,0,0,1-4.75-6.9A16.05,16.05,0,0,1,1.32,9.1,11.56,11.56,0,0,1,1.2,6.61,9.54,9.54,0,0,1,3.67.6.39.39,0,0,1,3.92.48h6.27Z"/><path d="M8.09,24.07H4a.56.56,0,0,1-.34-.15q-1.5-1.65-3-3.31a.52.52,0,0,1-.11-.28c0-1.77,0-3.53,0-5.29,0,0,0-.06,0-.14A39.22,39.22,0,0,0,8.09,24.07Z"/><path d="M37.92,15.48v3.9c0,.38,0,.77,0,1.16a.65.65,0,0,1-.2.53C36.86,22,36,23,35.15,23.9a.53.53,0,0,1-.43.18H30.64A41.16,41.16,0,0,0,37.92,15.48Z"/><path d="M19.35,3.6A8.91,8.91,0,0,0,14.2.47h.91c1,0,2.06,0,3.09,0a.41.41,0,0,1,.35.15l.8.87c.29-.31.57-.61.86-.9a.34.34,0,0,1,.23-.11h4l.1,0A8.74,8.74,0,0,0,19.35,3.6Z"/><path d="M19.37,6.94c.29-.27.6-.59.95-.86A5.5,5.5,0,0,1,22.89,5a6.06,6.06,0,0,1,1.85-.08,4.78,4.78,0,0,1,2.4,1,5.08,5.08,0,0,1,2,3.26,6.75,6.75,0,0,1-.47,3.71,12.41,12.41,0,0,1-2,3.32,29.44,29.44,0,0,1-6.78,5.76.81.81,0,0,1-1,0c-1-.66-1.92-1.33-2.85-2a23,23,0,0,1-3-2.68,13.4,13.4,0,0,1-3.08-4.8A6.87,6.87,0,0,1,9.54,10a5.16,5.16,0,0,1,3.9-5,5.54,5.54,0,0,1,2.07-.07,5.66,5.66,0,0,1,2.69,1C18.61,6.24,19,6.61,19.37,6.94Zm-2.27,7c.2,0,.4,0,.6-.08a1.64,1.64,0,0,0,1.36-1.56,1.72,1.72,0,0,0-1.2-1.68,2.47,2.47,0,0,0-1.21-.06,1.65,1.65,0,0,0-1.35,2.17A1.72,1.72,0,0,0,17.1,13.94ZM27,13.17c-.1.06-.19.14-.27.14H24.69l-.05,0v-.86H25.7c.19,0,.4-.06.54.22v-.91c-.08.06-.14.15-.21.16H24.64v-.79h1.82c.18,0,.38,0,.51.22v-.85a1.59,1.59,0,0,1-.35.08H23.81a1.33,1.33,0,0,1,.09.34c0,.81,0,1.62,0,2.44a3.28,3.28,0,0,1-.08.52H26.3c.24,0,.5-.06.72.14Zm-3.7-2.59H22.21c.26.14.14.31.06.47-.24.55-.49,1.09-.73,1.64l-.11.21c-.3-.67-.59-1.3-.88-1.93a.26.26,0,0,1,.13-.39H19.49c.1.16.22.31.3.47.37.78.73,1.57,1.1,2.36.08.17.15.31-.12.45H22c-.27-.14-.1-.32,0-.46.37-.83.76-1.65,1.15-2.47A3.14,3.14,0,0,1,23.32,10.58Zm-11.64,0a1.89,1.89,0,0,1,.09.36c0,.83,0,1.65,0,2.48a2,2,0,0,1-.09.45h.18c.67,0,1.34,0,2,0,.31,0,.64-.1.93.12v-.84c-.11.18-.27.16-.44.16H12.5V11.13c0-.19-.06-.4.15-.55Z"/><path d="M17.16,11.1a1.07,1.07,0,0,1,1.15,1.12,1.17,1.17,0,0,1-2.34,0A1.09,1.09,0,0,1,17.16,11.1Z"/><path d="M19.55,5.07c.3-.29.61-.61.95-.91a7,7,0,0,1,3.4-1.65A11.1,11.1,0,0,1,26,2.3,6.38,6.38,0,0,1,30.1,3.85,6.71,6.71,0,0,1,32.43,8a9,9,0,0,1-.56,4.69,15.78,15.78,0,0,1-2.48,4.25,32.89,32.89,0,0,1-6.19,5.83c-.65.49-1.32.95-2,1.41a.65.65,0,0,1-.33.11H18.23a.57.57,0,0,1-.29-.08,40.94,40.94,0,0,1-6.49-5.32,20.52,20.52,0,0,1-3.56-4.78,11.55,11.55,0,0,1-1.2-3.52A7.15,7.15,0,0,1,8,4.88a6.25,6.25,0,0,1,4-2.46,7.91,7.91,0,0,1,6.3,1.52A14.69,14.69,0,0,1,19.55,5.07Zm0,1.42a6.49,6.49,0,0,0-2-1.66,6.88,6.88,0,0,0-2.3-.69,6.57,6.57,0,0,0-2,0A5.56,5.56,0,0,0,10,6.07,5.63,5.63,0,0,0,8.64,9.49,8,8,0,0,0,9.25,13a15.65,15.65,0,0,0,3.32,4.92,27.16,27.16,0,0,0,3.3,2.95c1,.77,2.07,1.49,3.11,2.22a.92.92,0,0,0,1.09,0,33.61,33.61,0,0,0,7.24-6.05,15,15,0,0,0,2.36-3.58,7.85,7.85,0,0,0,.74-4.6A5.64,5.64,0,0,0,28,5a5.13,5.13,0,0,0-2.43-.92,10.35,10.35,0,0,0-1.67,0A6.25,6.25,0,0,0,21.23,5,6,6,0,0,0,19.56,6.49Z"/><path d="M28.67.67h6.24a.43.43,0,0,1,.37.15,9.62,9.62,0,0,1,2.07,3.77,10.25,10.25,0,0,1,.37,3.61,15,15,0,0,1-1.75,6,25.55,25.55,0,0,1-3,4.54,40.12,40.12,0,0,1-4.45,4.58l-1,.9a.39.39,0,0,1-.23.09c-1.16,0-2.33,0-3.51,0l.44-.35a40.15,40.15,0,0,0,5.12-4.54,22.59,22.59,0,0,0,4-5.56,12.93,12.93,0,0,0,1.19-3.67A8.38,8.38,0,0,0,33.14,3.8a7.61,7.61,0,0,0-4.28-3L28.67.7Z"/><path d="M10.5.69A7.73,7.73,0,0,0,7.41,2.25,7.86,7.86,0,0,0,4.78,6.44a8.49,8.49,0,0,0-.21,2.93,13.45,13.45,0,0,0,1.79,5.36,22,22,0,0,0,2.53,3.55,34.85,34.85,0,0,0,4.67,4.5c.57.47,1.16.92,1.74,1.37a.39.39,0,0,0,.11.06l0,.06H12a.67.67,0,0,1-.34-.13,43,43,0,0,1-4.1-3.88,26.49,26.49,0,0,1-4.75-6.91,16.1,16.1,0,0,1-1.25-4,11.56,11.56,0,0,1-.13-2.49A9.55,9.55,0,0,1,3.87.8.39.39,0,0,1,4.11.68h6.27Z"/><path d="M8.28,24.27H4.16a.54.54,0,0,1-.34-.14q-1.5-1.65-3-3.32a.46.46,0,0,1-.11-.27c0-1.77,0-3.53,0-5.3a1.13,1.13,0,0,1,0-.14A39,39,0,0,0,8.28,24.27Z"/><path d="M38.12,15.68v3.89c0,.39,0,.78,0,1.17a.66.66,0,0,1-.2.52L35.34,24.1a.48.48,0,0,1-.42.17H30.84A41.67,41.67,0,0,0,38.12,15.68Z"/><path d="M19.55,3.8A8.94,8.94,0,0,0,14.4.67h.91c1,0,2.06,0,3.09,0a.42.42,0,0,1,.35.15l.8.87c.28-.31.56-.61.86-.91a.37.37,0,0,1,.23-.1h4l.1,0A8.8,8.8,0,0,0,19.55,3.8Z"/><path d="M19.57,7.14c.29-.27.6-.59.94-.86a5.58,5.58,0,0,1,2.58-1.11,6.06,6.06,0,0,1,1.85-.08,4.82,4.82,0,0,1,2.4,1,5.05,5.05,0,0,1,2,3.26,6.84,6.84,0,0,1-.47,3.71,12.2,12.2,0,0,1-2,3.31A29.48,29.48,0,0,1,20,22.13a.81.81,0,0,1-1,0c-1-.66-1.92-1.33-2.85-2a23,23,0,0,1-3-2.68,13.4,13.4,0,0,1-3.08-4.8,6.91,6.91,0,0,1-.4-2.42,5.13,5.13,0,0,1,3.9-5,5.54,5.54,0,0,1,2.07-.07,5.59,5.59,0,0,1,2.68,1C18.81,6.44,19.18,6.81,19.57,7.14Zm-2.28,7c.21,0,.41,0,.61-.08a1.64,1.64,0,0,0,1.36-1.57,1.72,1.72,0,0,0-1.2-1.67,2.48,2.48,0,0,0-1.21-.06,1.65,1.65,0,0,0-1.35,2.17A1.72,1.72,0,0,0,17.29,14.14Zm9.93-.77c-.1.06-.19.14-.28.14H24.89l-.05,0v-.87H25.9c.19,0,.4,0,.54.23v-.91c-.08.06-.14.15-.21.15-.46,0-.92,0-1.39,0v-.79h1.81c.19,0,.38-.05.52.22v-.85a1.73,1.73,0,0,1-.35.08H24a1.4,1.4,0,0,1,.1.34q0,1.21,0,2.43a3.23,3.23,0,0,1-.08.53H26.5c.24,0,.5-.06.72.14Zm-3.7-2.59H22.4c.27.14.14.31.07.47-.24.55-.49,1.09-.73,1.64l-.11.21-.88-1.94a.25.25,0,0,1,.13-.38H19.69c.1.16.22.31.3.47.37.78.73,1.57,1.1,2.35.08.17.15.32-.12.46h1.2c-.27-.14-.11-.32,0-.47.37-.82.76-1.64,1.15-2.46A1.82,1.82,0,0,1,23.52,10.78Zm-11.64,0a1.89,1.89,0,0,1,.09.36c0,.83,0,1.65,0,2.48a2.1,2.1,0,0,1-.09.45h2.18c.32,0,.64-.09.94.13v-.85c-.11.19-.28.17-.44.17H12.7V11.33c0-.19-.06-.4.14-.55Z"/><path d="M17.36,11.3a1.07,1.07,0,0,1,1.15,1.12,1.18,1.18,0,0,1-2.35,0A1.11,1.11,0,0,1,17.36,11.3Z"/></g><g class="cls-3"><path d="M19.21,4.73c.3-.29.61-.61.95-.91a7,7,0,0,1,3.4-1.65A11.1,11.1,0,0,1,25.63,2a6.38,6.38,0,0,1,4.13,1.55,6.71,6.71,0,0,1,2.33,4.13,9,9,0,0,1-.56,4.69,15.78,15.78,0,0,1-2.48,4.25,32.89,32.89,0,0,1-6.19,5.83c-.65.49-1.32.95-2,1.41a.65.65,0,0,1-.33.11H17.89a.57.57,0,0,1-.29-.08,40.94,40.94,0,0,1-6.49-5.32,20.52,20.52,0,0,1-3.56-4.78,11.55,11.55,0,0,1-1.2-3.52A7.15,7.15,0,0,1,7.7,4.54a6.25,6.25,0,0,1,4-2.46A7.91,7.91,0,0,1,18,3.6,14.69,14.69,0,0,1,19.21,4.73Zm0,1.42a6.36,6.36,0,0,0-2-1.66,6.88,6.88,0,0,0-2.3-.69,6.57,6.57,0,0,0-2,0A5.56,5.56,0,0,0,9.65,5.73,5.63,5.63,0,0,0,8.3,9.15a7.84,7.84,0,0,0,.61,3.48,15.65,15.65,0,0,0,3.32,4.92,26.43,26.43,0,0,0,3.3,2.95c1,.77,2.07,1.49,3.11,2.22a.92.92,0,0,0,1.09,0A33.61,33.61,0,0,0,27,16.71a15,15,0,0,0,2.36-3.58,7.85,7.85,0,0,0,.74-4.6A5.64,5.64,0,0,0,27.66,4.7a5.17,5.17,0,0,0-2.43-.92,10.35,10.35,0,0,0-1.67,0,6.25,6.25,0,0,0-2.67.88A6,6,0,0,0,19.22,6.15Z"/><path d="M28.33.33h6.24a.43.43,0,0,1,.37.15A9.62,9.62,0,0,1,37,4.25a10.25,10.25,0,0,1,.37,3.61,15,15,0,0,1-1.75,6,25.55,25.55,0,0,1-3,4.54,40.12,40.12,0,0,1-4.45,4.58l-1,.9a.39.39,0,0,1-.23.09c-1.16,0-2.33,0-3.52,0l.45-.35A40.15,40.15,0,0,0,29,19a22.59,22.59,0,0,0,4-5.56,12.89,12.89,0,0,0,1.19-3.68,8.37,8.37,0,0,0-1.32-6.3,7.61,7.61,0,0,0-4.28-3L28.33.36Z"/><path d="M10.16.35A7.73,7.73,0,0,0,7.07,1.91,7.86,7.86,0,0,0,4.44,6.1,8.49,8.49,0,0,0,4.23,9,13.45,13.45,0,0,0,6,14.39a22,22,0,0,0,2.53,3.55,34.85,34.85,0,0,0,4.67,4.5c.57.47,1.16.92,1.74,1.37a.39.39,0,0,0,.11.06l0,.06H11.62a.58.58,0,0,1-.34-.12,43,43,0,0,1-4.1-3.88A26.49,26.49,0,0,1,2.43,13,16.1,16.1,0,0,1,1.18,9a11.56,11.56,0,0,1-.13-2.49,9.55,9.55,0,0,1,2.48-6A.39.39,0,0,1,3.77.34H10Z"/><path d="M7.94,23.93H3.82a.54.54,0,0,1-.34-.14Q2,22.13.49,20.46a.46.46,0,0,1-.11-.27c0-1.77,0-3.53,0-5.3a1.13,1.13,0,0,1,0-.14A39,39,0,0,0,7.94,23.93Z"/><path d="M37.78,15.34v3.89c0,.39,0,.78,0,1.17a.66.66,0,0,1-.2.52L35,23.76a.48.48,0,0,1-.42.17H30.5A41.67,41.67,0,0,0,37.78,15.34Z"/><path d="M19.21,3.46A8.94,8.94,0,0,0,14.06.33h4a.42.42,0,0,1,.35.15l.8.87c.28-.31.56-.61.86-.91a.37.37,0,0,1,.23-.1h4l.1,0A8.8,8.8,0,0,0,19.21,3.46Z"/><path d="M19.22,6.8c.3-.27.61-.59,1-.86a5.58,5.58,0,0,1,2.58-1.11,6.06,6.06,0,0,1,1.85-.08,4.89,4.89,0,0,1,2.4,1A5.14,5.14,0,0,1,29,9a6.84,6.84,0,0,1-.47,3.71,12.2,12.2,0,0,1-2,3.31,29.48,29.48,0,0,1-6.78,5.77.83.83,0,0,1-1,0c-1-.66-1.92-1.33-2.85-2a23,23,0,0,1-3-2.68,13.4,13.4,0,0,1-3.08-4.8,6.91,6.91,0,0,1-.4-2.42,5.13,5.13,0,0,1,3.9-5,5.54,5.54,0,0,1,2.07-.07,5.59,5.59,0,0,1,2.68,1C18.47,6.1,18.84,6.47,19.22,6.8ZM17,13.8c.21,0,.41,0,.61-.08a1.64,1.64,0,0,0,1.36-1.57,1.71,1.71,0,0,0-1.2-1.67,2.48,2.48,0,0,0-1.21-.06,1.65,1.65,0,0,0-1.35,2.17A1.72,1.72,0,0,0,17,13.8ZM26.88,13c-.1.06-.19.14-.28.14H24.55l-.05,0v-.87h1.06c.19,0,.39,0,.54.23v-.92c-.08.07-.14.16-.21.16-.46,0-.92,0-1.39,0V11h1.81c.19,0,.38-.05.52.22v-.85a1.73,1.73,0,0,1-.35.08H23.66a1.4,1.4,0,0,1,.1.34q0,1.21,0,2.43a3.23,3.23,0,0,1-.08.53h2.48c.24,0,.5-.06.72.14Zm-3.7-2.59H22.06c.27.14.14.31.07.47-.24.55-.49,1.09-.73,1.64l-.11.21-.88-1.94a.25.25,0,0,1,.13-.38H19.35c.1.16.22.31.3.47.37.78.73,1.57,1.1,2.35.08.17.15.32-.12.46h1.2c-.27-.14-.11-.32,0-.47.37-.82.76-1.64,1.15-2.46A1.82,1.82,0,0,1,23.18,10.44Zm-11.64,0a1.89,1.89,0,0,1,.09.36c0,.83,0,1.65,0,2.48a2.1,2.1,0,0,1-.09.45h2.18c.32,0,.64-.09.94.13V13c-.11.19-.28.17-.44.17H12.36V11c0-.19-.06-.4.14-.55Z"/><path d="M17,11a1.08,1.08,0,0,1,1.16,1.12,1.18,1.18,0,0,1-2.35,0A1.1,1.1,0,0,1,17,11Z"/></g><path class="cls-4" d="M19.41,4.92c.29-.28.61-.6.95-.9a7,7,0,0,1,3.4-1.65,10.31,10.31,0,0,1,2.07-.21A6.33,6.33,0,0,1,30,3.71a6.65,6.65,0,0,1,2.34,4.13,8.91,8.91,0,0,1-.56,4.68,16.21,16.21,0,0,1-2.48,4.26,32.89,32.89,0,0,1-6.19,5.83c-.65.48-1.32.95-2,1.41a.56.56,0,0,1-.33.1H18.09a.7.7,0,0,1-.29-.08,40,40,0,0,1-6.49-5.33A20.26,20.26,0,0,1,7.75,14a11.38,11.38,0,0,1-1.2-3.52A7.12,7.12,0,0,1,7.9,4.74a6.21,6.21,0,0,1,4-2.46,7.91,7.91,0,0,1,6.3,1.52A16.36,16.36,0,0,1,19.41,4.92Zm0,1.42a6.35,6.35,0,0,0-2-1.66A7.1,7.1,0,0,0,15.08,4a6.26,6.26,0,0,0-2,0A5.56,5.56,0,0,0,9.85,5.93,5.7,5.7,0,0,0,8.49,9.35a8,8,0,0,0,.62,3.48,15.47,15.47,0,0,0,3.31,4.91,26.52,26.52,0,0,0,3.31,3c1,.77,2.07,1.49,3.11,2.22a.93.93,0,0,0,1.09,0,33.85,33.85,0,0,0,7.24-6.05,15,15,0,0,0,2.36-3.58,7.92,7.92,0,0,0,.74-4.6A5.62,5.62,0,0,0,27.85,4.9,5.09,5.09,0,0,0,25.42,4a10.23,10.23,0,0,0-1.66,0,6.33,6.33,0,0,0-4.35,2.33Z"/><path class="cls-4" d="M28.53.53h6.24a.44.44,0,0,1,.37.15,9.62,9.62,0,0,1,2.07,3.77,10.25,10.25,0,0,1,.37,3.61,15.26,15.26,0,0,1-1.75,6,25.06,25.06,0,0,1-3,4.54,40.09,40.09,0,0,1-4.45,4.58c-.34.3-.68.6-1,.89a.34.34,0,0,1-.22.09c-1.16,0-2.33,0-3.52,0l.45-.35a40.93,40.93,0,0,0,5.12-4.54,22.29,22.29,0,0,0,4-5.56A12.91,12.91,0,0,0,34.32,10,8.36,8.36,0,0,0,33,3.66a7.59,7.59,0,0,0-4.28-3L28.53.56Z"/><path class="cls-4" d="M10.36.55A7.64,7.64,0,0,0,7.27,2.1,7.82,7.82,0,0,0,4.64,6.3a8.49,8.49,0,0,0-.21,2.93,13.3,13.3,0,0,0,1.79,5.36,22.6,22.6,0,0,0,2.52,3.55,36.2,36.2,0,0,0,4.68,4.5c.57.47,1.16.91,1.74,1.37l.11.06,0,.06H11.82a.58.58,0,0,1-.34-.12,40.73,40.73,0,0,1-4.1-3.89,26.2,26.2,0,0,1-4.75-6.9A15.66,15.66,0,0,1,1.38,9.15a11.44,11.44,0,0,1-.13-2.48,9.55,9.55,0,0,1,2.48-6A.39.39,0,0,1,4,.54h6.27Z"/><path class="cls-4" d="M8.14,24.13H4A.5.5,0,0,1,3.68,24c-1-1.1-2-2.21-3-3.32a.47.47,0,0,1-.12-.28V15.09a1.13,1.13,0,0,1,0-.14A39,39,0,0,0,8.14,24.13Z"/><path class="cls-4" d="M38,15.54v3.89c0,.39,0,.78,0,1.17a.67.67,0,0,1-.2.52L35.2,24a.52.52,0,0,1-.42.17H30.7A41.62,41.62,0,0,0,38,15.54Z"/><path class="cls-4" d="M19.41,3.66A8.94,8.94,0,0,0,14.26.53h4a.42.42,0,0,1,.35.15c.26.29.53.57.8.86l.85-.9a.37.37,0,0,1,.24-.1h4l.1,0A8.77,8.77,0,0,0,19.41,3.66Z"/><path class="cls-4" d="M19.42,7c.3-.27.61-.59.95-.87A5.68,5.68,0,0,1,23,5,6.37,6.37,0,0,1,24.8,5a4.89,4.89,0,0,1,2.4,1,5.11,5.11,0,0,1,2,3.27,6.85,6.85,0,0,1-.48,3.71,12.07,12.07,0,0,1-2,3.31A29.48,29.48,0,0,1,19.89,22a.83.83,0,0,1-1,0c-1-.67-1.92-1.33-2.85-2a22.36,22.36,0,0,1-3-2.68A13.4,13.4,0,0,1,10,12.46,6.91,6.91,0,0,1,9.6,10a5.12,5.12,0,0,1,3.9-5A5.54,5.54,0,0,1,15.57,5a5.59,5.59,0,0,1,2.68,1A14.13,14.13,0,0,1,19.42,7Zm-2.27,7c.2,0,.41,0,.61-.07a1.63,1.63,0,0,0,1.35-1.57,1.69,1.69,0,0,0-1.19-1.67,2.48,2.48,0,0,0-1.21-.06,1.65,1.65,0,0,0-1.35,2.17A1.71,1.71,0,0,0,17.15,14Zm9.93-.76c-.11,0-.19.14-.28.14-.68,0-1.37,0-2.05,0l-.06,0v-.87h1.07c.19,0,.39-.05.54.23v-.92c-.08.07-.14.16-.21.16H24.7v-.79h1.81c.18,0,.38-.05.52.22v-.85a1.67,1.67,0,0,1-.35.07H23.86A1.28,1.28,0,0,1,24,11q0,1.21,0,2.43a3.4,3.4,0,0,1-.08.53h2.47c.25,0,.51-.06.73.14Zm-3.7-2.59H22.26c.26.14.14.31.07.47-.25.54-.49,1.09-.74,1.64a1.22,1.22,0,0,1-.1.2c-.31-.66-.59-1.3-.88-1.93a.25.25,0,0,1,.13-.38h-1.2a4.22,4.22,0,0,1,.31.47c.37.78.73,1.57,1.1,2.35.08.17.15.32-.13.45H22c-.27-.13-.11-.32,0-.46.37-.82.76-1.65,1.15-2.47A1.77,1.77,0,0,1,23.38,10.64Zm-11.64,0a2,2,0,0,1,.09.37c0,.82,0,1.65,0,2.47a2.07,2.07,0,0,1-.09.46h2.18c.31,0,.64-.09.94.13v-.85c-.11.18-.28.17-.44.17H12.55c0-.75,0-1.47,0-2.19,0-.19-.06-.4.14-.56Z"/><path class="cls-4" d="M17.21,11.16a1.08,1.08,0,0,1,1.16,1.12,1.18,1.18,0,0,1-2.35,0A1.09,1.09,0,0,1,17.21,11.16Z"/></g></g></svg>