<svg xmlns="http://www.w3.org/2000/svg" viewBox="0 0 38.55 24.66"><defs><style>.cls-1{isolation:isolate;}.cls-2{opacity:0.15;}.cls-2,.cls-3{mix-blend-mode:multiply;}.cls-4{fill:#fff;}</style></defs><title>convert-FIX-SVG-03</title><g class="cls-1"><g id="Layer_1" data-name="Layer 1"><g class="cls-2"><path d="M19.65,7a8.41,8.41,0,0,1,1.08-2.8,5.41,5.41,0,0,1,3.5-2.56,6.79,6.79,0,0,1,2.46-.07A7.77,7.77,0,0,1,32,4.7,6.4,6.4,0,0,1,33.3,9.2a8.34,8.34,0,0,1-.89,2.8,22.72,22.72,0,0,1-4.22,5.79c-.59.6-1.16,1.24-1.69,1.9a3.17,3.17,0,0,0-.35,3.62l.14.29c-.33-.29-.6-.55-.9-.78a22.29,22.29,0,0,0-5.3-3.13,33.43,33.43,0,0,0-6.64-2,5,5,0,0,1-4.17-4.3A7.18,7.18,0,0,1,10.7,7.58a5.17,5.17,0,0,1,2.84-1.81,7.17,7.17,0,0,1,2.95-.25,5.66,5.66,0,0,1,3,1.33Zm2.13,2.88a1.86,1.86,0,0,0-2-1.87,2.52,2.52,0,0,0-1.91,1.07,1.73,1.73,0,0,0-.34,1.37,1.9,1.9,0,0,0,1.9,1.62,2.51,2.51,0,0,0,1.82-.9A1.7,1.7,0,0,0,21.78,9.89ZM24,15.37a2.58,2.58,0,0,0,1.88-1,1.74,1.74,0,0,0,.25-2,1.78,1.78,0,0,0-1.69-1.1,2.44,2.44,0,0,0-1.95,1,1.72,1.72,0,0,0-.2,1.95A1.85,1.85,0,0,0,24,15.37Zm.28-10.64,0,.08c.27-.08.34.12.44.26.45.68.91,1.36,1.36,2.05.13.2.38.38.23.73l.21-.13c.8-.52,1.59-1,2.38-1.58.17-.11.33-.29.6-.2L29,5.17c-.08.13-.13.26-.23.32-.58.4-1.18.79-1.77,1.19l-.15.08-.55-.83,1-.69c.15-.1.3-.27.53-.11l0-.06-.53-.78c-.06.13-.07.25-.14.3-.41.29-.83.56-1.25.84l-.48-.72.16-.12,1.5-1c.17-.11.33-.28.6-.2l-.5-.75A2.6,2.6,0,0,1,27,3c-.52.36-1.06.71-1.58,1.06Zm4.52,3.38-.06,0-.9.61c.12.06.25.08.29.15.42.61.83,1.23,1.22,1.85a.57.57,0,0,1-.1.75,3.47,3.47,0,0,1-.69.52.71.71,0,0,1-1.07-.28c-.33-.48-.65-1-1-1.46-.11-.16-.28-.3-.1-.53l-.07,0-1,.64,0,.06c.35-.07.39.22.53.4s.34.53.53.79.45.67.7,1a.93.93,0,0,0,1,.28A3.73,3.73,0,0,0,30,11.7a1,1,0,0,0,.27-1,2.7,2.7,0,0,0-.31-.64c-.33-.51-.67-1-1-1.51C28.83,8.44,28.7,8.31,28.84,8.11Zm-4,.75V8.8c-.27,0-.31-.11-.33-.3-.11-.71-.24-1.42-.33-2.13a3.31,3.31,0,0,1-.1-1.48L23,5.61v.06c.31,0,.33.16.36.36l.06.39c.1.61.2,1.22.3,1.86l-.18-.11L21.79,7.09c-.17-.11-.4-.19-.2-.5h-.07l-1.08.72a2.69,2.69,0,0,1,.47.19c.89.53,1.77,1.07,2.65,1.61.16.1.34.19.15.43l.06,0Zm-5.52,5.57,0,0-1.2.79.78.22c.28.09.54.24.83.31a2.14,2.14,0,0,1,1.5,1.19c.08.18.27.32.11.56l.07,0,.92-.62a1.87,1.87,0,0,1-.32-.28,8.77,8.77,0,0,1-.54-.81.55.55,0,0,1-.09-.33,12.07,12.07,0,0,1,.18-2.53l-1.24.82c.33.07.34.08.35.26v1.29l-1.16-.48C19.21,14.7,19.21,14.67,19.31,14.43ZM13.7,11.79v.07c.22,0,.3.1.4.24.49.76,1,1.51,1.5,2.26.1.15.25.29.12.52a.67.67,0,0,0,.19-.1l2.35-1.55c.15-.11.3-.26.53-.11l0-.06-.53-.8c-.07.13-.09.26-.17.31-.61.43-1.24.83-1.87,1.26l-.11-.16-1.35-2c-.09-.15-.21-.28-.09-.48l0,0ZM11,13.58v.06c.21,0,.29.09.38.24l1.48,2.21c.11.17.3.31.15.57h.05l.91-.6a4,4,0,0,1-.36-.34c-.49-.71-1-1.43-1.44-2.16-.12-.18-.32-.34-.23-.62Z"/><path d="M3.09,13.35c0-.24,0-.47-.1-.69A1.91,1.91,0,0,0,1.8,11.29c-.43-.19-.89-.35-1.34-.51-.12,0-.16-.1-.16-.22V1.89A1.74,1.74,0,0,1,.57,1,5,5,0,0,1,1.9,2.18c.23-.36.45-.74.71-1.08A4,4,0,0,1,3.16.57a1.47,1.47,0,0,1,1-.36c1.08,0,2.17,0,3.26,0a.56.56,0,0,1,.31.09,4.46,4.46,0,0,1,2,3.42A3,3,0,0,1,8.56,6.36a20,20,0,0,0-3.72,3.8A12.12,12.12,0,0,0,3.13,13.3Z"/><path d="M6.8,22.46a10.16,10.16,0,0,0-3.25-1.34A16.06,16.06,0,0,0,1,20.76a3.2,3.2,0,0,1-.54-.08.23.23,0,0,1-.13-.17c0-1.59,0-3.18,0-4.76,0-.14.08-.16.18-.2a2.63,2.63,0,0,1,2.45.2H3a7.18,7.18,0,0,1,.2-.92A2.45,2.45,0,0,1,5.69,13,3.29,3.29,0,0,1,8.79,15a3,3,0,0,1,0,2.19,10.74,10.74,0,0,1-1.67,3c-.1.14-.2.29-.29.44A1.5,1.5,0,0,0,6.8,22.46Z"/><path d="M33,20.83a7.31,7.31,0,0,0-1.43-3.37,1.37,1.37,0,0,1,0-1.76A1.79,1.79,0,0,1,33.49,15a1.75,1.75,0,0,1,1.27,1.47,5.44,5.44,0,0,1,.54-.27,1.66,1.66,0,0,1,2.15.94,1.9,1.9,0,0,1-1,2.71,8.24,8.24,0,0,1-2.3.41,1.83,1.83,0,0,0-.67.15A2.38,2.38,0,0,0,33,20.83Z"/><path d="M13.14,23.56A1,1,0,0,0,12.2,23a8,8,0,0,1-2-.33,1.72,1.72,0,0,1-1-2.59,1.48,1.48,0,0,1,2.17-.57l.18.11a1.47,1.47,0,0,1,.54-1,1.54,1.54,0,0,1,2.29.28,1.26,1.26,0,0,1,0,1.65,6.87,6.87,0,0,0-1.22,2.68Z"/><path d="M19,4.65a8.15,8.15,0,0,0-3.36-2.38A1.6,1.6,0,0,1,14.75.33s.08-.08.13-.1a.32.32,0,0,1,.14,0h7a1.73,1.73,0,0,1-.25,1.14,5.58,5.58,0,0,1-1.66,1.69l-.52.37A1.12,1.12,0,0,0,19,4.65Z"/><path d="M36.92,10c.52-.82.84-1.09,1.33-1.13V9c0,1.45,0,2.91,0,4.36a.35.35,0,0,1-.14.31.84.84,0,0,0-.36.93,13.24,13.24,0,0,0-1.23-1.09,8.54,8.54,0,0,0-1.71-1A1.57,1.57,0,0,1,34,10.33,1.71,1.71,0,0,1,36.92,10Z"/><path d="M35.68,5.43a5.71,5.71,0,0,0-2.61-1.2,1.13,1.13,0,0,1-.9-1.38A1.32,1.32,0,0,1,34.33,2a2.29,2.29,0,0,1,.09-.28A1.23,1.23,0,0,1,36.12,1,1.4,1.4,0,0,1,37,3.05a10,10,0,0,1-.87,1.21c-.09.12-.2.22-.3.33A.73.73,0,0,0,35.68,5.43Z"/><path d="M11.81,2a1.12,1.12,0,0,1,1-1A1.22,1.22,0,0,1,14,2a.89.89,0,0,1-.18.72A5.24,5.24,0,0,0,13,4.32c0,.15-.06.31-.1.52a.7.7,0,0,0-.74-.43,4.3,4.3,0,0,1-1.5-.29A1.15,1.15,0,0,1,10,3a1.27,1.27,0,0,1,.86-1.18,1,1,0,0,1,.76.1Z"/><path d="M29.44,20.54a1.12,1.12,0,0,1,.64-.86,1.09,1.09,0,0,1,1.33.32.93.93,0,0,1,0,1.24,4.65,4.65,0,0,0-.82,1.81c0,.09,0,.18-.05.31-.24-.55-.73-.39-1.14-.48a7.27,7.27,0,0,1-1.12-.26,1.09,1.09,0,0,1-.69-1.17,1.26,1.26,0,0,1,.87-1.13A1.18,1.18,0,0,1,29.44,20.54Z"/><path d="M17.45,23.47a.6.6,0,0,0-.24-.69,4,4,0,0,1-.93-1.06,1,1,0,0,1,.11-1.2,1.21,1.21,0,0,1,1.22-.4c.27.09.44.28.63.72l.15-.11a1,1,0,0,1,1.21.08,1.06,1.06,0,0,1,.2,1.28,1,1,0,0,1-.48.35A4.48,4.48,0,0,0,17.45,23.47Z"/><path d="M1.43,23.09,1.49,23a.85.85,0,0,1,.88-.5,1.11,1.11,0,0,1,1,.84,1,1,0,0,1-.33,1s-.08.06-.11.05a8.76,8.76,0,0,1-1.45-.09A1.61,1.61,0,0,1,.3,22.89c0-.13,0-.17.17-.18A1,1,0,0,1,1.43,23.09Z"/><path d="M6,24.43a.94.94,0,0,1,1.48-.78.74.74,0,0,0,0-.14.85.85,0,0,1,.68-.7,1.11,1.11,0,0,1,1.17.46,1,1,0,0,1,0,1.1.19.19,0,0,1-.13.07H6Z"/><path d="M20.21,11.4a3.5,3.5,0,0,0-1.46-.66.67.67,0,0,1-.47-.94.73.73,0,0,1,1-.44l.21.1,0,0a.72.72,0,0,1,1-.52A.8.8,0,0,1,21,10.05a6.2,6.2,0,0,1-.58.77A.55.55,0,0,0,20.21,11.4Z"/><path d="M24.51,12.77a.83.83,0,0,1,.68-.14.78.78,0,0,1,.45,1.19.72.72,0,0,1-.37.25,3.59,3.59,0,0,0-1.54.7c.1-.28-.06-.44-.19-.61a5.08,5.08,0,0,1-.61-.85.79.79,0,0,1,.48-1.11.73.73,0,0,1,1.05.47A.93.93,0,0,0,24.51,12.77Z"/><path d="M19.85,7.21a8.41,8.41,0,0,1,1.08-2.8,5.38,5.38,0,0,1,3.5-2.56,6.79,6.79,0,0,1,2.46-.07A7.79,7.79,0,0,1,32.24,4.9a6.35,6.35,0,0,1,1.25,4.5,8,8,0,0,1-.89,2.8A22.42,22.42,0,0,1,28.38,18c-.58.6-1.15,1.23-1.68,1.89a3.19,3.19,0,0,0-.35,3.63l.14.29c-.33-.29-.61-.55-.9-.79a22.59,22.59,0,0,0-5.3-3.12,32.15,32.15,0,0,0-6.64-2,5,5,0,0,1-4.17-4.3,7.24,7.24,0,0,1,1.41-5.82A5.28,5.28,0,0,1,13.73,6a7.23,7.23,0,0,1,3-.25,5.55,5.55,0,0,1,3,1.33ZM22,10.09A1.88,1.88,0,0,0,20,8.21a2.55,2.55,0,0,0-1.91,1.08,1.73,1.73,0,0,0-.34,1.37,1.9,1.9,0,0,0,1.9,1.62,2.51,2.51,0,0,0,1.82-.9A1.7,1.7,0,0,0,22,10.09Zm2.25,5.48a2.58,2.58,0,0,0,1.89-1,1.76,1.76,0,0,0,.25-2,1.77,1.77,0,0,0-1.69-1.1,2.47,2.47,0,0,0-2,1,1.76,1.76,0,0,0-.2,2A1.88,1.88,0,0,0,24.23,15.57Zm.28-10.64V5c.27-.08.34.12.44.26l1.36,2c.13.21.38.39.23.74l.21-.13,2.38-1.58c.17-.12.33-.29.6-.21l-.52-.76a1.77,1.77,0,0,1-.23.32L27.19,6.88,27.05,7l-.56-.83c.36-.24.69-.47,1-.69.15-.1.29-.27.53-.11l0-.06-.53-.78c-.06.12-.07.25-.14.3-.41.29-.83.56-1.25.84l-.48-.72.16-.12,1.5-1c.17-.11.33-.29.6-.2l-.5-.75a2.6,2.6,0,0,1-.29.33L25.56,4.23ZM29,8.31l-.06,0-.9.61c.12.06.24.07.29.14.42.62.82,1.23,1.22,1.86a.56.56,0,0,1-.11.75,2.82,2.82,0,0,1-.68.51.7.7,0,0,1-1.07-.27c-.33-.49-.65-1-1-1.46-.1-.16-.27-.3-.1-.53l-.06,0-1,.63,0,.07c.36-.07.4.22.53.4s.35.53.53.79.46.67.71,1a1,1,0,0,0,1,.28,3.83,3.83,0,0,0,1.76-1.12,1,1,0,0,0,.27-1,3.15,3.15,0,0,0-.31-.64c-.33-.51-.67-1-1-1.51C29,8.64,28.89,8.51,29,8.31Zm-4,.75V9c-.27.06-.31-.1-.34-.29-.1-.71-.23-1.42-.32-2.13a3.32,3.32,0,0,1-.1-1.48l-1.08.72v.06c.31,0,.33.15.35.35s.05.27.07.4c.1.61.2,1.22.3,1.86l-.18-.11L22,7.29c-.18-.11-.4-.19-.2-.5h-.07l-1.08.72a4.7,4.7,0,0,1,.47.18l2.65,1.62c.16.1.33.18.15.43l.06,0Zm-5.52,5.57,0-.05-1.2.8c.28.08.53.13.78.22s.54.23.83.31a2.14,2.14,0,0,1,1.5,1.19c.08.18.27.32.11.56h.06l.93-.62a2.52,2.52,0,0,1-.33-.27,8.67,8.67,0,0,1-.53-.81.56.56,0,0,1-.1-.33,13,13,0,0,1,.19-2.54l-1.24.83c.33.07.34.08.34.26,0,.42,0,.83,0,1.29L19.66,15C19.41,14.89,19.41,14.87,19.51,14.63ZM13.89,12l0,.07c.22-.05.3.1.39.24l1.5,2.26c.11.15.26.29.13.52a.67.67,0,0,0,.19-.1l2.34-1.55c.16-.11.31-.27.54-.12l0-.05-.53-.8c-.07.13-.09.26-.17.31-.61.42-1.24.83-1.87,1.25a1.58,1.58,0,0,1-.12-.15c-.44-.67-.89-1.34-1.34-2-.1-.15-.21-.29-.09-.48l-.05,0Zm-2.68,1.79v.06c.21,0,.29.09.38.23l1.48,2.22c.11.17.3.31.15.57h0l.91-.61a2.35,2.35,0,0,1-.36-.33c-.49-.71-1-1.44-1.44-2.16-.13-.18-.32-.34-.23-.63Z"/><path d="M3.29,13.55c0-.24,0-.47-.1-.69A1.94,1.94,0,0,0,2,11.49c-.43-.2-.89-.36-1.34-.52a.19.19,0,0,1-.16-.22V2.09a1.62,1.62,0,0,1,.27-.88A5.18,5.18,0,0,1,2.1,2.38c.23-.36.45-.74.71-1.08A4,4,0,0,1,3.36.77a1.41,1.41,0,0,1,1-.36c1.08,0,2.17,0,3.26,0A.6.6,0,0,1,8,.52a4.46,4.46,0,0,1,2,3.42A3,3,0,0,1,8.76,6.56,20,20,0,0,0,5,10.36,11.68,11.68,0,0,0,3.33,13.5Z"/><path d="M7,22.66a10,10,0,0,0-3.25-1.34A16.06,16.06,0,0,0,1.18,21a3.05,3.05,0,0,1-.54-.08.23.23,0,0,1-.13-.17c0-1.59,0-3.18,0-4.76,0-.14.08-.17.17-.2a2.65,2.65,0,0,1,2.46.2h0a7.18,7.18,0,0,1,.2-.92,2.44,2.44,0,0,1,2.52-1.82A3.31,3.31,0,0,1,9,15.15a3.06,3.06,0,0,1,0,2.19,10.74,10.74,0,0,1-1.67,3l-.3.44A1.5,1.5,0,0,0,7,22.66Z"/><path d="M33.17,21a7.41,7.41,0,0,0-1.43-3.37,1.37,1.37,0,0,1,0-1.76,1.78,1.78,0,0,1,1.94-.75A1.72,1.72,0,0,1,35,16.62c.19-.09.36-.2.55-.27a1.64,1.64,0,0,1,2.15.94,1.91,1.91,0,0,1-1,2.71,8.11,8.11,0,0,1-2.29.41,1.83,1.83,0,0,0-.67.15A2.38,2.38,0,0,0,33.17,21Z"/><path d="M13.34,23.76a1,1,0,0,0-.94-.59,7.58,7.58,0,0,1-2.05-.34,1.7,1.7,0,0,1-.95-2.58,1.47,1.47,0,0,1,2.17-.57l.18.1a1.45,1.45,0,0,1,.54-1,1.53,1.53,0,0,1,2.29.28,1.26,1.26,0,0,1,0,1.65,6.87,6.87,0,0,0-1.22,2.68Z"/><path d="M19.22,4.85a8.29,8.29,0,0,0-3.36-2.38A1.6,1.6,0,0,1,15,.53s.08-.09.13-.11a.65.65,0,0,1,.14,0h7A1.73,1.73,0,0,1,22,1.56a5.81,5.81,0,0,1-1.66,1.69l-.52.37A1.11,1.11,0,0,0,19.22,4.85Z"/><path d="M37.12,10.15c.52-.82.84-1.09,1.33-1.13v4.57a.32.32,0,0,1-.13.3.89.89,0,0,0-.37.94,12.07,12.07,0,0,0-1.23-1.09,8.2,8.2,0,0,0-1.7-1,1.57,1.57,0,0,1-.84-2.24A1.71,1.71,0,0,1,37.12,10.15Z"/><path d="M35.88,5.63a5.71,5.71,0,0,0-2.61-1.2,1.14,1.14,0,0,1-.91-1.38,1.33,1.33,0,0,1,2.17-.86c0-.09,0-.18.09-.27a1.24,1.24,0,0,1,1.7-.75,1.41,1.41,0,0,1,.84,2.08,11.19,11.19,0,0,1-.87,1.21c-.09.11-.2.22-.3.33A.71.71,0,0,0,35.88,5.63Z"/><path d="M12,2.22a1.13,1.13,0,0,1,1.05-1,1.21,1.21,0,0,1,1.16.9.89.89,0,0,1-.18.72,5.08,5.08,0,0,0-.81,1.63c0,.16-.06.32-.11.53a.7.7,0,0,0-.73-.44,4.3,4.3,0,0,1-1.5-.29,1.14,1.14,0,0,1-.71-1.12A1.29,1.29,0,0,1,11,2a1.07,1.07,0,0,1,.76.11Z"/><path d="M29.64,20.74a1.13,1.13,0,0,1,.63-.86,1.09,1.09,0,0,1,1.33.32.92.92,0,0,1,0,1.24,4.82,4.82,0,0,0-.83,1.81c0,.09,0,.18,0,.31-.24-.55-.73-.39-1.14-.48a10.7,10.7,0,0,1-1.12-.26,1.12,1.12,0,0,1-.7-1.17,1.29,1.29,0,0,1,.88-1.14A1.22,1.22,0,0,1,29.64,20.74Z"/><path d="M17.65,23.67a.62.62,0,0,0-.24-.69,4.1,4.1,0,0,1-.93-1.06,1,1,0,0,1,.11-1.2,1.18,1.18,0,0,1,1.21-.4c.28.09.45.28.64.71l.14-.1A1,1,0,0,1,19.8,21a1,1,0,0,1,.2,1.27,1,1,0,0,1-.48.36A4.48,4.48,0,0,0,17.65,23.67Z"/><path d="M1.63,23.29l.06-.07a.85.85,0,0,1,.88-.5,1.12,1.12,0,0,1,1,.84,1,1,0,0,1-.34,1,.19.19,0,0,1-.1.05,8.69,8.69,0,0,1-1.45-.09A1.62,1.62,0,0,1,.5,23.09c0-.13.05-.17.17-.18A1,1,0,0,1,1.63,23.29Z"/><path d="M6.24,24.62a.94.94,0,0,1,1.48-.78l0-.13A.86.86,0,0,1,8.43,23a1.15,1.15,0,0,1,1.18.46,1,1,0,0,1,0,1.1.17.17,0,0,1-.13.08H6.24Z"/><path d="M20.41,11.6A3.5,3.5,0,0,0,19,10.94a.67.67,0,0,1-.47-.94.73.73,0,0,1,1-.44,1,1,0,0,1,.21.1l0,0a.72.72,0,0,1,1-.52.79.79,0,0,1,.45,1.14,5.88,5.88,0,0,1-.57.77A.55.55,0,0,0,20.41,11.6Z"/><path d="M24.7,13a.82.82,0,0,1,.69-.14A.78.78,0,0,1,25.84,14a.64.64,0,0,1-.38.24,3.86,3.86,0,0,0-1.53.7c.09-.27-.06-.43-.19-.6a5.08,5.08,0,0,1-.61-.85.79.79,0,0,1,.48-1.11.73.73,0,0,1,1.05.46S24.69,12.93,24.7,13Z"/></g><g class="cls-3"><path d="M19.51,6.87a8.41,8.41,0,0,1,1.08-2.8,5.38,5.38,0,0,1,3.5-2.56,6.79,6.79,0,0,1,2.46-.07A7.75,7.75,0,0,1,31.9,4.56a6.35,6.35,0,0,1,1.25,4.5,8,8,0,0,1-.89,2.8A22.42,22.42,0,0,1,28,17.65c-.58.6-1.15,1.23-1.68,1.89A3.19,3.19,0,0,0,26,23.17l.14.29c-.33-.29-.61-.55-.9-.79A22.59,22.59,0,0,0,20,19.55a32.15,32.15,0,0,0-6.64-2,5,5,0,0,1-4.17-4.3,7.24,7.24,0,0,1,1.41-5.82,5.28,5.28,0,0,1,2.84-1.8,7.23,7.23,0,0,1,3-.25,5.55,5.55,0,0,1,3,1.33Zm2.13,2.88a1.88,1.88,0,0,0-1.95-1.88A2.55,2.55,0,0,0,17.78,9a1.72,1.72,0,0,0-.34,1.37,1.9,1.9,0,0,0,1.9,1.62,2.51,2.51,0,0,0,1.82-.9A1.7,1.7,0,0,0,21.64,9.75Zm2.25,5.48a2.58,2.58,0,0,0,1.89-1,1.76,1.76,0,0,0,.25-2,1.77,1.77,0,0,0-1.69-1.1,2.47,2.47,0,0,0-2,1,1.76,1.76,0,0,0-.2,2A1.88,1.88,0,0,0,23.89,15.23Zm.28-10.64v.08c.27-.08.34.12.44.26L26,7c.13.21.38.39.23.74l.21-.13L28.78,6c.17-.12.33-.29.6-.21L28.86,5a1.77,1.77,0,0,1-.23.32L26.85,6.54l-.14.07-.56-.82,1-.69c.16-.1.3-.27.54-.11l0-.06-.53-.78c-.06.12-.07.25-.14.3-.41.29-.83.56-1.25.84l-.48-.72.16-.12,1.5-1c.17-.11.33-.29.6-.2l-.5-.75a2.6,2.6,0,0,1-.29.33L25.22,3.89ZM28.7,8l-.06,0-.9.61c.12.06.24.07.29.14.42.62.82,1.23,1.22,1.86a.56.56,0,0,1-.11.75,2.82,2.82,0,0,1-.68.51.7.7,0,0,1-1.07-.27c-.33-.49-.65-1-1-1.46-.1-.16-.27-.3-.1-.53l-.06,0-1,.63,0,.07c.36-.07.4.22.53.4s.35.53.53.79.46.67.71,1a1,1,0,0,0,1,.28,3.83,3.83,0,0,0,1.76-1.12,1,1,0,0,0,.27-1,3.15,3.15,0,0,0-.31-.64c-.33-.51-.67-1-1-1.51C28.69,8.3,28.55,8.17,28.7,8Zm-4,.75V8.65c-.27.06-.31-.1-.34-.29-.1-.71-.23-1.42-.32-2.13a3.32,3.32,0,0,1-.1-1.48l-1.08.72v.06c.31,0,.33.15.35.35s.05.27.07.4c.1.61.2,1.22.3,1.86L23.39,8,21.65,7c-.18-.11-.4-.19-.2-.5h-.07l-1.08.72a4.7,4.7,0,0,1,.47.18L23.42,9c.16.1.33.18.15.43l.06,0Zm-5.52,5.57,0,0-1.2.8c.28.08.53.13.78.22s.54.23.83.31A2.14,2.14,0,0,1,21,16.76c.08.18.27.32.11.56h.06l.93-.62a2.52,2.52,0,0,1-.33-.27,8.67,8.67,0,0,1-.53-.81.56.56,0,0,1-.1-.33,13,13,0,0,1,.19-2.54l-1.24.83c.33.07.34.08.34.26,0,.42,0,.83,0,1.29l-1.16-.48C19.07,14.55,19.07,14.53,19.17,14.29Zm-5.62-2.64,0,.07c.22-.05.3.1.39.24l1.5,2.25c.11.16.26.3.13.53a.67.67,0,0,0,.19-.1l2.34-1.55c.16-.11.31-.27.54-.12l0-.05-.53-.8c-.07.13-.09.26-.17.31-.61.42-1.24.83-1.87,1.25a1.58,1.58,0,0,1-.12-.15c-.44-.67-.89-1.34-1.34-2-.1-.15-.21-.29-.09-.48l-.05,0Zm-2.68,1.79v.06c.21,0,.29.09.38.23L12.74,16c.11.17.3.31.15.57h0l.91-.61a2.35,2.35,0,0,1-.36-.33c-.49-.71-1-1.44-1.44-2.16-.13-.18-.32-.34-.23-.63Z"/><path d="M3,13.21c0-.24-.05-.47-.1-.7a1.94,1.94,0,0,0-1.19-1.36c-.43-.2-.89-.36-1.34-.52a.19.19,0,0,1-.16-.22V1.75A1.59,1.59,0,0,1,.43.87,5.18,5.18,0,0,1,1.76,2C2,1.68,2.21,1.3,2.47,1A4,4,0,0,1,3,.43a1.41,1.41,0,0,1,1-.36c1.08,0,2.17,0,3.26,0a.6.6,0,0,1,.31.1,4.46,4.46,0,0,1,2,3.42A3,3,0,0,1,8.42,6.22,20,20,0,0,0,4.7,10,11.68,11.68,0,0,0,3,13.16Z"/><path d="M6.66,22.32A10,10,0,0,0,3.41,21a16.06,16.06,0,0,0-2.57-.36,3.05,3.05,0,0,1-.54-.08.23.23,0,0,1-.13-.17c0-1.59,0-3.18,0-4.77,0-.13.08-.16.17-.19a2.65,2.65,0,0,1,2.46.2h0c.07-.31.11-.62.21-.92a2.44,2.44,0,0,1,2.52-1.82,3.31,3.31,0,0,1,3.1,1.93,3.06,3.06,0,0,1,0,2.19A10.74,10.74,0,0,1,7,20l-.3.44A1.5,1.5,0,0,0,6.66,22.32Z"/><path d="M32.83,20.69a7.41,7.41,0,0,0-1.43-3.37,1.37,1.37,0,0,1,0-1.76,1.78,1.78,0,0,1,1.94-.75,1.72,1.72,0,0,1,1.26,1.47c.19-.09.36-.2.55-.27a1.64,1.64,0,0,1,2.15.94,1.91,1.91,0,0,1-1,2.71,8.11,8.11,0,0,1-2.29.41,1.83,1.83,0,0,0-.67.15A2.38,2.38,0,0,0,32.83,20.69Z"/><path d="M13,23.42a1,1,0,0,0-.94-.59A7.58,7.58,0,0,1,10,22.49a1.7,1.7,0,0,1-.95-2.58,1.47,1.47,0,0,1,2.17-.57l.18.1a1.45,1.45,0,0,1,.54-1,1.53,1.53,0,0,1,2.29.28,1.26,1.26,0,0,1,0,1.65,6.87,6.87,0,0,0-1.22,2.68Z"/><path d="M18.88,4.51a8.29,8.29,0,0,0-3.36-2.38A1.59,1.59,0,0,1,14.61.19s.08-.09.13-.11h7.17a1.73,1.73,0,0,1-.25,1.14A5.81,5.81,0,0,1,20,2.91l-.52.37A1.11,1.11,0,0,0,18.88,4.51Z"/><path d="M36.78,9.81c.52-.82.84-1.09,1.33-1.13v4.57a.32.32,0,0,1-.13.3.89.89,0,0,0-.37.94,12.07,12.07,0,0,0-1.23-1.09,8.2,8.2,0,0,0-1.7-1,1.57,1.57,0,0,1-.84-2.24A1.71,1.71,0,0,1,36.78,9.81Z"/><path d="M35.54,5.29a5.71,5.71,0,0,0-2.61-1.2A1.14,1.14,0,0,1,32,2.71a1.33,1.33,0,0,1,2.17-.86c0-.09.05-.18.09-.27A1.24,1.24,0,0,1,36,.83a1.41,1.41,0,0,1,.84,2.08A11.19,11.19,0,0,1,36,4.12c-.09.11-.2.22-.3.33A.71.71,0,0,0,35.54,5.29Z"/><path d="M11.66,1.88a1.13,1.13,0,0,1,1.05-1,1.21,1.21,0,0,1,1.16.9.89.89,0,0,1-.18.72,5.08,5.08,0,0,0-.81,1.63c0,.16-.06.32-.11.53A.7.7,0,0,0,12,4.26,4.3,4.3,0,0,1,10.54,4a1.14,1.14,0,0,1-.71-1.12,1.29,1.29,0,0,1,.86-1.19,1.07,1.07,0,0,1,.76.11Z"/><path d="M29.3,20.4a1.13,1.13,0,0,1,.63-.86,1.09,1.09,0,0,1,1.33.32.92.92,0,0,1,0,1.24,4.82,4.82,0,0,0-.83,1.81c0,.09,0,.18,0,.31-.24-.55-.73-.39-1.14-.48a10.7,10.7,0,0,1-1.12-.26,1.12,1.12,0,0,1-.7-1.17,1.29,1.29,0,0,1,.88-1.14A1.22,1.22,0,0,1,29.3,20.4Z"/><path d="M17.31,23.33a.62.62,0,0,0-.24-.69,4.1,4.1,0,0,1-.93-1.06,1,1,0,0,1,.11-1.2,1.18,1.18,0,0,1,1.21-.4c.28.09.45.28.64.71l.14-.1a1,1,0,0,1,1.22.07,1.06,1.06,0,0,1,.2,1.28,1,1,0,0,1-.48.36A4.48,4.48,0,0,0,17.31,23.33Z"/><path d="M1.29,23l.06-.07a.85.85,0,0,1,.88-.5,1.12,1.12,0,0,1,1,.84,1,1,0,0,1-.34,1,.19.19,0,0,1-.1.05,8.69,8.69,0,0,1-1.45-.09A1.62,1.62,0,0,1,.16,22.75c0-.13,0-.17.17-.18A1,1,0,0,1,1.29,23Z"/><path d="M5.9,24.28a.94.94,0,0,1,1.48-.78l0-.13a.86.86,0,0,1,.67-.71,1.15,1.15,0,0,1,1.18.46,1,1,0,0,1,0,1.1.17.17,0,0,1-.13.08H5.9Z"/><path d="M20.07,11.26a3.5,3.5,0,0,0-1.46-.66.67.67,0,0,1-.47-.94.74.74,0,0,1,1-.45l.2.11,0,0a.72.72,0,0,1,1-.52.78.78,0,0,1,.45,1.13,5.37,5.37,0,0,1-.57.78A.55.55,0,0,0,20.07,11.26Z"/><path d="M24.36,12.63a.82.82,0,0,1,.69-.14.78.78,0,0,1,.45,1.19.67.67,0,0,1-.38.24,3.86,3.86,0,0,0-1.53.7c.09-.27-.06-.43-.19-.6a5.08,5.08,0,0,1-.61-.85.79.79,0,0,1,.48-1.11.73.73,0,0,1,1.05.46S24.35,12.59,24.36,12.63Z"/></g><path class="cls-4" d="M19.71,7.07a8.2,8.2,0,0,1,1.08-2.8,5.38,5.38,0,0,1,3.5-2.56,6.78,6.78,0,0,1,2.46-.08,7.76,7.76,0,0,1,5.34,3.13,6.31,6.31,0,0,1,1.26,4.5,8,8,0,0,1-.89,2.8,22.2,22.2,0,0,1-4.22,5.78c-.58.61-1.15,1.24-1.68,1.9a3.17,3.17,0,0,0-.35,3.62l.14.3c-.33-.29-.61-.55-.9-.79a22.59,22.59,0,0,0-5.3-3.12,32.15,32.15,0,0,0-6.64-2,5,5,0,0,1-4.17-4.3,7.24,7.24,0,0,1,1.41-5.82,5.25,5.25,0,0,1,2.84-1.8,7,7,0,0,1,2.95-.25,5.58,5.58,0,0,1,3,1.33ZM21.84,10a1.88,1.88,0,0,0-1.95-1.88A2.53,2.53,0,0,0,18,9.15a1.72,1.72,0,0,0-.34,1.37,1.92,1.92,0,0,0,1.9,1.62,2.52,2.52,0,0,0,1.82-.91A1.7,1.7,0,0,0,21.84,10Zm2.25,5.48a2.56,2.56,0,0,0,1.89-1,1.74,1.74,0,0,0,.25-2,1.79,1.79,0,0,0-1.69-1.11,2.51,2.51,0,0,0-2,1,1.71,1.71,0,0,0-.2,1.94A1.87,1.87,0,0,0,24.09,15.43Zm.28-10.64v.08c.27-.08.34.12.43.26.46.68.92,1.36,1.36,2,.14.21.39.38.24.74l.21-.13c.79-.53,1.58-1.06,2.38-1.58.17-.12.33-.29.6-.21l-.52-.76a1.77,1.77,0,0,1-.23.32L27.05,6.73a.53.53,0,0,1-.15.08L26.35,6l1-.69c.16-.1.3-.27.54-.11l0-.06-.53-.79c-.06.13-.07.26-.14.31L26,5.49l-.48-.73.16-.12,1.5-1c.17-.11.33-.29.6-.2l-.51-.76A1.71,1.71,0,0,1,27,3c-.52.36-1.05.7-1.58,1.06ZM28.9,8.17l-.06,0-.91.61c.13.05.25.07.3.14.41.61.82,1.23,1.22,1.86a.56.56,0,0,1-.11.75,2.87,2.87,0,0,1-.69.51.7.7,0,0,1-1.06-.28c-.33-.48-.66-1-1-1.46-.1-.15-.28-.29-.1-.53h-.06l-1,.63,0,.07c.36-.07.4.22.53.4s.35.53.53.79.45.66.71,1a.93.93,0,0,0,1,.29A3.75,3.75,0,0,0,30,11.76a1,1,0,0,0,.28-1,2.56,2.56,0,0,0-.32-.64c-.32-.51-.66-1-1-1.52C28.89,8.5,28.75,8.37,28.9,8.17Zm-4,.75V8.85c-.27.06-.31-.1-.34-.29-.11-.71-.24-1.42-.32-2.13A3.48,3.48,0,0,1,24.12,5l-1.07.72v.06c.32-.05.33.15.36.35s0,.27.07.4c.1.61.2,1.22.3,1.86l-.19-.11L21.85,7.14c-.18-.1-.41-.18-.21-.49h-.06l-1.08.72c.18.08.34.12.47.19l2.65,1.62c.16.09.33.18.15.43l.06,0Zm-5.52,5.57,0-.05-1.2.8a7.78,7.78,0,0,1,.77.22c.28.09.55.23.83.31A2.15,2.15,0,0,1,21.24,17c.08.18.27.31.11.56h.06l.93-.62a1.64,1.64,0,0,1-.33-.27q-.29-.39-.54-.81a.63.63,0,0,1-.09-.33A13.75,13.75,0,0,1,21.56,13l-1.24.82c.34.08.35.08.35.27,0,.42,0,.83,0,1.29l-1.15-.48C19.27,14.75,19.26,14.73,19.37,14.49Zm-5.62-2.64v.06c.23,0,.31.11.4.25l1.5,2.25c.1.16.25.3.12.53a.62.62,0,0,0,.2-.1l2.34-1.56c.16-.1.31-.26.54-.11l0-.05-.54-.81c-.06.14-.08.27-.16.32L16.3,13.88l-.11-.15-1.34-2c-.1-.14-.21-.28-.09-.47l0,0Zm-2.68,1.79v.06c.2,0,.29.09.38.23l1.48,2.22c.11.16.3.31.14.57h.06l.91-.61a2,2,0,0,1-.36-.33l-1.45-2.16c-.12-.18-.32-.34-.22-.63Z"/><path class="cls-4" d="M3.14,13.41c0-.24,0-.47-.09-.7a1.94,1.94,0,0,0-1.19-1.36c-.44-.2-.89-.36-1.34-.52a.19.19,0,0,1-.16-.22V2a1.58,1.58,0,0,1,.26-.88A4.87,4.87,0,0,1,2,2.24c.24-.36.46-.74.72-1.08A3.87,3.87,0,0,1,3.21.63a1.44,1.44,0,0,1,1-.36c1.09,0,2.18,0,3.27,0a.59.59,0,0,1,.31.09,4.5,4.5,0,0,1,2,3.43A3,3,0,0,1,8.62,6.42a19.7,19.7,0,0,0-3.72,3.8,11.68,11.68,0,0,0-1.71,3.14Z"/><path class="cls-4" d="M6.86,22.52a10,10,0,0,0-3.25-1.34A16,16,0,0,0,1,20.82a2.54,2.54,0,0,1-.54-.09.22.22,0,0,1-.12-.16c0-1.59,0-3.18,0-4.77,0-.13.08-.16.17-.19A2.65,2.65,0,0,1,3,15.8H3a9.24,9.24,0,0,1,.21-.91,2.44,2.44,0,0,1,2.52-1.82A3.3,3.3,0,0,1,8.85,15a3.12,3.12,0,0,1,0,2.19,10.74,10.74,0,0,1-1.67,3l-.3.44A1.5,1.5,0,0,0,6.86,22.52Z"/><path class="cls-4" d="M33,20.89a7.5,7.5,0,0,0-1.43-3.38,1.36,1.36,0,0,1,0-1.75A1.78,1.78,0,0,1,33.54,15a1.74,1.74,0,0,1,1.27,1.47,4.65,4.65,0,0,1,.55-.27,1.63,1.63,0,0,1,2.14.94,1.9,1.9,0,0,1-1,2.71,8.55,8.55,0,0,1-2.29.41,1.64,1.64,0,0,0-.67.15A2.14,2.14,0,0,0,33,20.89Z"/><path class="cls-4" d="M13.2,23.62a.94.94,0,0,0-.94-.59,7.65,7.65,0,0,1-2.06-.34,1.71,1.71,0,0,1-.94-2.58,1.47,1.47,0,0,1,2.17-.57l.18.1a1.44,1.44,0,0,1,.53-1,1.54,1.54,0,0,1,2.29.29,1.24,1.24,0,0,1,0,1.65,7,7,0,0,0-1.21,2.67Z"/><path class="cls-4" d="M19.08,4.71a8.4,8.4,0,0,0-3.36-2.39A1.58,1.58,0,0,1,14.81.39s.07-.09.12-.11a.38.38,0,0,1,.15,0h7a1.8,1.8,0,0,1-.25,1.14A5.81,5.81,0,0,1,20.2,3.11l-.52.37A1.11,1.11,0,0,0,19.08,4.71Z"/><path class="cls-4" d="M37,10c.52-.81.84-1.08,1.33-1.12v4.57a.33.33,0,0,1-.13.3.88.88,0,0,0-.37.94,13.31,13.31,0,0,0-1.23-1.1,8.63,8.63,0,0,0-1.7-1A1.57,1.57,0,0,1,34,10.38,1.72,1.72,0,0,1,37,10Z"/><path class="cls-4" d="M35.74,5.49a5.71,5.71,0,0,0-2.61-1.2,1.14,1.14,0,0,1-.91-1.38,1.33,1.33,0,0,1,2.17-.86c0-.09,0-.19.08-.27A1.25,1.25,0,0,1,36.18,1,1.41,1.41,0,0,1,37,3.11a11.19,11.19,0,0,1-.87,1.21c-.09.11-.2.21-.3.32A.71.71,0,0,0,35.74,5.49Z"/><path class="cls-4" d="M11.86,2.08a1.13,1.13,0,0,1,1.05-1A1.22,1.22,0,0,1,14.07,2a.86.86,0,0,1-.18.71,5,5,0,0,0-.81,1.64c0,.16-.07.32-.11.53a.71.71,0,0,0-.73-.44,4.31,4.31,0,0,1-1.51-.29A1.14,1.14,0,0,1,10,3.05a1.28,1.28,0,0,1,.86-1.19,1,1,0,0,1,.75.11Z"/><path class="cls-4" d="M29.5,20.6a1.13,1.13,0,0,1,.63-.86,1.08,1.08,0,0,1,1.33.32.92.92,0,0,1,0,1.23,4.93,4.93,0,0,0-.83,1.82c0,.08,0,.18,0,.31-.24-.55-.73-.4-1.14-.48a8.31,8.31,0,0,1-1.12-.27,1.09,1.09,0,0,1-.7-1.16,1.3,1.3,0,0,1,.87-1.14A1.25,1.25,0,0,1,29.5,20.6Z"/><path class="cls-4" d="M17.5,23.52a.6.6,0,0,0-.23-.68,3.92,3.92,0,0,1-.93-1.06,1,1,0,0,1,.11-1.2,1.18,1.18,0,0,1,1.21-.4c.28.09.45.28.64.71l.14-.1a1,1,0,0,1,1.22.07,1.06,1.06,0,0,1,.2,1.28,1,1,0,0,1-.48.36A4.61,4.61,0,0,0,17.5,23.52Z"/><path class="cls-4" d="M1.49,23.15l.06-.07a.88.88,0,0,1,.88-.51,1.14,1.14,0,0,1,1,.85,1,1,0,0,1-.34,1,.15.15,0,0,1-.1.06,8.69,8.69,0,0,1-1.45-.09A1.62,1.62,0,0,1,.36,23c0-.13,0-.17.17-.18A1,1,0,0,1,1.49,23.15Z"/><path class="cls-4" d="M6.1,24.48a.94.94,0,0,1,1.48-.78l0-.13a.85.85,0,0,1,.67-.71,1.13,1.13,0,0,1,1.17.46,1,1,0,0,1,0,1.1.18.18,0,0,1-.13.08H6.1Z"/><path class="cls-4" d="M20.27,11.46a3.43,3.43,0,0,0-1.46-.66.67.67,0,0,1-.47-.94.74.74,0,0,1,1-.45l.2.1,0,0a.72.72,0,0,1,1-.52A.78.78,0,0,1,21,10.1a5.37,5.37,0,0,1-.57.78C20.32,11,20.17,11.19,20.27,11.46Z"/><path class="cls-4" d="M24.56,12.83a.81.81,0,0,1,.69-.14.78.78,0,0,1,.45,1.19.73.73,0,0,1-.38.24,3.73,3.73,0,0,0-1.53.7c.09-.28-.06-.43-.2-.6a6.9,6.9,0,0,1-.6-.85.79.79,0,0,1,.48-1.11.72.72,0,0,1,1,.46A.58.58,0,0,1,24.56,12.83Z"/></g></g></svg>