<svg xmlns="http://www.w3.org/2000/svg" viewBox="0 0 38.55 24.66"><defs><style>.cls-1{isolation:isolate;}.cls-2{opacity:0.15;}.cls-2,.cls-3{mix-blend-mode:multiply;}.cls-4{fill:#fff;}</style></defs><title>convert-FIX-SVG-03</title><g class="cls-1"><g id="Layer_1" data-name="Layer 1"><g class="cls-2"><path d="M31.44,10.92a2.32,2.32,0,0,1-.76-1.13A1.55,1.55,0,0,1,31,8.23a1.74,1.74,0,0,1,1.09-.51.68.68,0,0,0,.27-.13,2.63,2.63,0,0,1,1.43-.76.31.31,0,0,0,.24-.2.64.64,0,0,1,.64-.39.77.77,0,0,1,.73.52.27.27,0,0,0,.14.14c.39.13.78.23,1.17.37a1.11,1.11,0,0,1,.77,1c.07.45.19.9.26,1.35a2.71,2.71,0,0,1-1.53,2.91c-.12,0-.11.12-.11.23a8.68,8.68,0,0,1-.71,4.33A3.69,3.69,0,0,0,35,18.64a13,13,0,0,1-.29,2.85,10.27,10.27,0,0,1-.42,1.33A1.65,1.65,0,0,1,33,23.87a2.91,2.91,0,0,1-2-.25,2.14,2.14,0,0,1-.9-1,.54.54,0,0,0-.21-.24.8.8,0,0,1-.3-1.31,1.88,1.88,0,0,1,.28-.34,2.42,2.42,0,0,0,.71-2.49A3.15,3.15,0,0,0,30,16.89c-.11-.13-.17-.29-.27-.43a4.83,4.83,0,0,0-.34-.45.86.86,0,0,1,.06-1.43.71.71,0,0,0,.18-.27c.12-.27.22-.56.31-.82a2.17,2.17,0,0,0-1-.45,1.32,1.32,0,0,1-.88-.7c-.05-.13-.2-.2-.15-.38a1.18,1.18,0,0,1,.38-.61,1.82,1.82,0,0,1,1.1-.32L31,11A3.09,3.09,0,0,0,31.44,10.92Zm.8,12.75c1.24-.07,1.61-.26,2-1.38a13.59,13.59,0,0,0,.42-2.11c.09-.6.1-1.22.13-1.83a2.42,2.42,0,0,0-.21-1.3,1.14,1.14,0,0,0-1.15-.64q-.57.14-1.14.24a.67.67,0,0,0-.63.6,2.28,2.28,0,0,0,.11,1.29,1.7,1.7,0,0,1-.85,2.36,1.23,1.23,0,0,0-.51,1.71A2,2,0,0,0,32.24,23.67Zm3.63-16.4c-.27-.07-.46-.13-.67-.17a2.87,2.87,0,0,0-2.39.46c-.32.25-.31.24-.16.62a2,2,0,0,1-.25,2.16A5,5,0,0,0,32,11a5.86,5.86,0,0,0,2.51,1.4,2.38,2.38,0,0,0,2.94-2.87,1.08,1.08,0,0,0,0-.19,1.36,1.36,0,0,0-.06-.2,2.27,2.27,0,0,1-1,1.06.44.44,0,0,1-.66-.12.93.93,0,0,1,0-.86.66.66,0,0,0,.06-.31c0-.23-.07-.45-.1-.67l0,0c-.09-.11-.25-.2-.27-.32C35.28,7.58,35.52,7.41,35.87,7.27Zm-4.2,9.18a5.48,5.48,0,0,0,2.88-.9,2.26,2.26,0,0,0,1-1.31c.21-.94-.16-1.55-1.17-1.57a2.81,2.81,0,0,0-1.78.68,4,4,0,0,1-1.41.69,3.47,3.47,0,0,0-1.56.77A.78.78,0,0,0,29.8,16a1.33,1.33,0,0,0,.42.19C30.7,16.32,31.19,16.38,31.67,16.45Zm.06-5.61.58-.84c0-.08.1-.16.14-.24a1.93,1.93,0,0,0-.15-1.67.21.21,0,0,0-.13-.1,1.42,1.42,0,0,0-.89.39.46.46,0,0,1-.08.69.42.42,0,0,0-.15.54l.23-.12.19.27-.44.31Zm.35,1.53-.29.39h0L32,12a.34.34,0,0,0-.53,0,3.45,3.45,0,0,1-.28.26,4.22,4.22,0,0,0-1.3,2c.46-.16.93-.31,1.38-.49a9.1,9.1,0,0,0,.9-.4.19.19,0,0,0,.08-.16C32.22,12.91,32.15,12.65,32.08,12.37Zm-.55-1.18c-.25,0-.5.07-.74.08-.56,0-1.12,0-1.67.05a1.14,1.14,0,0,0-.86.37,1.23,1.23,0,0,1,1.19.39A1.23,1.23,0,0,1,30,13.19a.43.43,0,0,0,.19-.13c.22-.28.43-.58.68-.85A2.52,2.52,0,0,0,31.53,11.19Zm-.8,6.63c0,.11,0,.21.07.3a2.66,2.66,0,0,1-.25,2.22,3.65,3.65,0,0,1-.39.49,5.93,5.93,0,0,0-.48.64.4.4,0,0,0,.25.61,1.64,1.64,0,0,1,1-1.53,1.27,1.27,0,0,0,.65-1.38c-.07-.34-.18-.68-.28-1a.19.19,0,0,0-.1-.1Zm4.84-10,0,0,.2,0c.43-.06.66.15.61.58a1.43,1.43,0,0,1-.43.83.51.51,0,0,0,0,.65.22.22,0,0,0,.22,0,1.81,1.81,0,0,0,1-1.3.93.93,0,0,0-.35-1,1,1,0,0,0-1.08,0A.89.89,0,0,0,35.57,7.84Zm.21,6.74A3.72,3.72,0,0,1,34,16.19a1.61,1.61,0,0,1,1,1.12A6.75,6.75,0,0,0,35.78,14.58ZM30,16.51a3.17,3.17,0,0,0,1.22,1.27l.26-1.09Zm3.47-4-1.08-.71c-.16.2-.14.37.06.57C32.85,12.74,33.16,12.79,33.5,12.52ZM35.14,6.8a.51.51,0,0,0-.55-.27.8.8,0,0,0-.3.16l0,0Zm.34,5.89.39.53,0-.59Zm-2.94.39.25-.17-.35-.21Z"/><path d="M10.08,10.44a4.3,4.3,0,0,1-.7,2.08.62.62,0,0,0-.06.71,2.68,2.68,0,0,1,.24.79,1,1,0,0,1-1.34,1.21A4.26,4.26,0,0,1,7.1,14.7.62.62,0,0,1,6.84,14l.09-.28-.76-.23a.12.12,0,0,0-.08,0,6.64,6.64,0,0,1-1.77.25l-.1,0A8,8,0,0,1,4,14.8a1.23,1.23,0,0,1-1.6.83,2.32,2.32,0,0,1-1.59-2.8,1.7,1.7,0,0,1,.76-1c.65-.38,1.32-.72,2-1.07.19-.1.4-.17.6-.27a.28.28,0,0,0,.12-.17c0-.16.06-.33.11-.49A9.42,9.42,0,0,0,4.88,8,1.61,1.61,0,0,1,6,6.62a.19.19,0,0,0,0-.07,2.1,2.1,0,0,1-.1-2.37,8.56,8.56,0,0,0,.73-1.45,1.79,1.79,0,0,1,.82-.94A1.17,1.17,0,0,1,9,2.06a.43.43,0,0,0,.36.18,2.45,2.45,0,0,1,1.3.5.36.36,0,0,0,.26.07,1.11,1.11,0,0,1,1.24.36,1.35,1.35,0,0,1,.14,1.49s0,.09-.06.11c-.39.32-.31.77-.34,1.18a.37.37,0,0,0,.05.18A1.17,1.17,0,0,1,11.8,7.7l-.08.1L13,8.06a1.17,1.17,0,0,1,1,.85,1.22,1.22,0,0,1-.49,1.29,2.75,2.75,0,0,1-1.31.43A3.09,3.09,0,0,1,10.08,10.44ZM9.36,2.5c.14.4.11.47-.27.55a.92.92,0,0,1-.33,0c-.07,0-.15,0-.2,0-.33.19-.65.4-1,.61,0,0,0,.06,0,.08a2.56,2.56,0,0,1-.43.44c-.38.24-.58.15-.72-.27,0,0,0,0-.05,0a2.26,2.26,0,0,0-.48,1.79A1.81,1.81,0,0,0,6.86,7a.82.82,0,0,0,.58.1A2.08,2.08,0,0,1,9.2,7a1.72,1.72,0,0,1,2.46-1.45,3.06,3.06,0,0,0-.53-1.92A2.34,2.34,0,0,0,9.36,2.5ZM3.21,13.57l1.4-.17a12.12,12.12,0,0,0,1.21-.15c.33-.07.4-.32.23-.62l-.84-1.58a.54.54,0,0,0-.69-.34,4.35,4.35,0,0,0-.83.3c-.67.35-1.35.7-2,1.08a1.47,1.47,0,0,0-.64.82,2.17,2.17,0,0,0,1.09,2.36c.87.32,1.42.09,1.66-.8a6.66,6.66,0,0,0,.11-.73l-.57.11ZM4.92,9.11l-.13.39c-.09.25-.17.49-.24.74,0,.09,0,.19.11.18a.86.86,0,0,1,.85.61,12,12,0,0,0,.63,1.24c.19.3.37.58.21,1a2.39,2.39,0,0,0,1.49.11,2.39,2.39,0,0,0,1.34-1,3.86,3.86,0,0,0,.63-2.16c0-.31,0-.63,0-.94H9.71l-.05,0a4,4,0,0,1-3.28,1A1.73,1.73,0,0,1,4.92,9.11ZM6.79,7.25a1.27,1.27,0,0,1-.23-.16.6.6,0,0,0-.89,0,1.52,1.52,0,0,0-.54,1A1.47,1.47,0,0,0,6.29,9.94a2.31,2.31,0,0,0,1.94-.29c.31-.22.66-.39.95-.63A1.07,1.07,0,0,0,9.56,7.8a1.1,1.1,0,0,0-.94-.69,1.9,1.9,0,0,0-1,.16,2.78,2.78,0,0,1-1.07.28l0-.24Zm5.32,3.12L12,10.31a1,1,0,0,1-.52-1.25.91.91,0,0,1,1.13-.65c.43.1.9.19,1,.73a.5.5,0,0,0,0-.21A.88.88,0,0,0,13,8.34c-.48-.12-1-.2-1.44-.3a.21.21,0,0,0-.14,0,1.86,1.86,0,0,1-1.33.27A4.94,4.94,0,0,0,10,9a7.93,7.93,0,0,1,.07.84.46.46,0,0,0,.37.5l.18.06A3.4,3.4,0,0,0,12.11,10.37ZM11.05,7.86c-.37.28-.55,0-.84-.25.18-.05.34-.14.43-.1s.33,0,.45-.13A.23.23,0,0,0,11.14,7c0-.06-.06-.14-.1-.19a.48.48,0,0,1,0-.56,1.22,1.22,0,0,0,.3.08c.22,0,.44,0,.52.29-.09-.27-.18-.51-.28-.75,0,0,0,0,0,0a1,1,0,0,0-.9-.24,2,2,0,0,0-1,.84.91.91,0,0,0-.13.72c0,.09.11.16.17.25a1.84,1.84,0,0,1,.25.39.36.36,0,0,0,.39.24A1,1,0,0,0,11.05,7.86ZM8.74,13.14a2,2,0,0,1-1.37.52.24.24,0,0,0-.12,0,.59.59,0,0,0,0,.8A2.59,2.59,0,0,0,8.39,15a.78.78,0,0,0,.91-.85,5,5,0,0,0-.21-.83l-.37,0ZM9.18,2.72a7.42,7.42,0,0,0-.48-.6.82.82,0,0,0-.89-.22,1.85,1.85,0,0,0-1.12,2c0,.11.06.17.2.11a.51.51,0,0,0,.39-.57,1,1,0,0,1,.57-1,.81.81,0,0,1,.94.28C8.9,2.82,9,2.84,9.18,2.72ZM11.9,4.8A1.16,1.16,0,0,0,12,3.4a.79.79,0,0,0-1-.31l.26.36a.72.72,0,0,0,.37.34.26.26,0,0,1,.17.36C11.75,4.38,11.84,4.57,11.9,4.8Zm-.51,2.78.08,0a1.06,1.06,0,0,0,.45-.8l-.05,0Z"/><path d="M28.48,2.94a7.69,7.69,0,0,1,1.08-.53,1.12,1.12,0,0,1,1.52,1.12,2.63,2.63,0,0,1-.81,1.83,5.22,5.22,0,0,1-1.63,1.16.26.26,0,0,1-.21,0,5.18,5.18,0,0,1-2-1.54A2.58,2.58,0,0,1,26,3.77a1.34,1.34,0,0,1,.41-1.17,1,1,0,0,1,.94-.24A2.88,2.88,0,0,1,28.48,2.94Z"/><path d="M8.38,18.81a7.31,7.31,0,0,1,.79-.4.94.94,0,0,1,1.27,1.06A2.33,2.33,0,0,1,9.53,21a11.61,11.61,0,0,1-1,.67.31.31,0,0,1-.23,0,3.94,3.94,0,0,1-1.64-1.33,2,2,0,0,1-.33-1,.92.92,0,0,1,1.29-1A6.8,6.8,0,0,1,8.38,18.81Z"/><path d="M20.74,8.41h.94c-.26.2-.18.44-.18.66,0,.52,0,1,0,1.58a1.53,1.53,0,0,0,.09.4h-.9c.15-.13.07-.22,0-.32L19.18,9.3v.83c0,.17,0,.34,0,.5a3.59,3.59,0,0,0,.11.41h-.84c.23-.19.14-.45.14-.68,0-.51,0-1,0-1.54a2,2,0,0,0-.08-.4h1c-.22.16-.07.26,0,.36L20.75,10a1.31,1.31,0,0,0,.16.14c0-.51,0-1,0-1.46C20.9,8.56,20.81,8.5,20.74,8.41Z"/><path d="M19.7,16a4.17,4.17,0,0,1-.49-.08,1.3,1.3,0,0,1-1.08-1.34,1.31,1.31,0,0,1,1.12-1.29,2,2,0,0,1,1.05,0,1.3,1.3,0,0,1,1,1.42,1.35,1.35,0,0,1-1.13,1.2C20,16,19.86,16,19.7,16Zm0-.52a.87.87,0,1,0,0-1.74.87.87,0,1,0,0,1.74Z"/><path d="M16.39,11.12c-.16,0-.33,0-.49-.08A1.34,1.34,0,0,1,16,8.4a2,2,0,0,1,1,0,1.3,1.3,0,0,1,1,1.42,1.33,1.33,0,0,1-1.13,1.2C16.71,11.09,16.56,11.1,16.39,11.12Zm0-.52a.88.88,0,0,0,.94-.85.87.87,0,0,0-.92-.89.87.87,0,1,0,0,1.74Z"/><path d="M23.86,13.28h.91c-.23.16-.17.37-.18.57,0,.44,0,.89,0,1.33a.71.71,0,0,1-.56.69,2.69,2.69,0,0,1-1.54,0,.79.79,0,0,1-.61-.86c0-.44,0-.89,0-1.33a2,2,0,0,0-.1-.39h.84a3.94,3.94,0,0,0-.1.47c0,.3,0,.59,0,.89,0,.74.36.88,1,.8a.51.51,0,0,0,.51-.58q0-.64,0-1.29C24,13.48,23.91,13.39,23.86,13.28Z"/><path d="M34.94,3.84a3.94,3.94,0,0,1,.46-.23.5.5,0,0,1,.68.52,1,1,0,0,1-.32.74,6.12,6.12,0,0,1-.7.53.19.19,0,0,1-.18,0,1.69,1.69,0,0,1-1.06-1.19.52.52,0,0,1,.73-.6A3.72,3.72,0,0,1,34.94,3.84Z"/><path d="M17.63,5.49a3,3,0,0,1,.44-.22.5.5,0,0,1,.69.5,1,1,0,0,1-.3.72,5.73,5.73,0,0,1-.73.57.21.21,0,0,1-.17,0,1.84,1.84,0,0,1-1-.88,1,1,0,0,1-.07-.59.45.45,0,0,1,.62-.35A4.23,4.23,0,0,1,17.63,5.49Z"/><path d="M13.86,16.49a4.66,4.66,0,0,1,.45-.22.48.48,0,0,1,.67.47,1.44,1.44,0,0,1-.19.63,1.81,1.81,0,0,1-.83.69.21.21,0,0,1-.17,0,2,2,0,0,1-1-.86.79.79,0,0,1,0-.7.44.44,0,0,1,.59-.26A3.54,3.54,0,0,1,13.86,16.49Z"/><path d="M25.75,21.33a3.71,3.71,0,0,1,.45-.22.5.5,0,0,1,.69.49,1,1,0,0,1-.31.75,6.32,6.32,0,0,1-.71.54.23.23,0,0,1-.16,0,1.77,1.77,0,0,1-1.08-1.21.52.52,0,0,1,.73-.6C25.5,21.18,25.62,21.26,25.75,21.33Z"/><path d="M3.66,21.06c.14-.07.27-.16.4-.21a.51.51,0,0,1,.73.55,1.11,1.11,0,0,1-.43.81c-.73.6-.66.59-1.37,0a1.09,1.09,0,0,1-.46-.85.51.51,0,0,1,.75-.53A3.48,3.48,0,0,1,3.66,21.06Z"/><path d="M3.76,2.54a4.17,4.17,0,0,1-.26.57,1.26,1.26,0,0,1-.29.32c-.67.51-.59.51-1.28,0a1.18,1.18,0,0,1-.47-.78A.58.58,0,0,1,1.67,2a.45.45,0,0,1,.56,0,.6.6,0,0,0,.71,0C3.35,1.81,3.72,2.06,3.76,2.54Z"/><path d="M20.46,2.19c.15-.07.28-.16.42-.21a.51.51,0,0,1,.72.5,1,1,0,0,1-.26.68c-.81.82-.93.83-1.73,0a1.09,1.09,0,0,1-.26-.6A.51.51,0,0,1,20.11,2C20.23,2.05,20.34,2.13,20.46,2.19Z"/><path d="M16.27,15.92c0-.16.06-.3.08-.44a1.44,1.44,0,0,0-.42-1.3c-.18-.18-.31-.41-.47-.6a3.19,3.19,0,0,0-.32-.29h1.25c-.3.19-.11.34,0,.5s.2.28.33.44a6.1,6.1,0,0,0,.44-.64c0-.07,0-.19-.05-.3h1.11a7.38,7.38,0,0,0-1.16,1.41.32.32,0,0,0,0,.19,5,5,0,0,0,0,.55,4.37,4.37,0,0,0,.08.48Z"/><path d="M24.32,8.41h1.27c-.29.18-.15.33,0,.48l.35.47a7.36,7.36,0,0,0,.44-.64c0-.07,0-.2-.05-.31h1.13a6.09,6.09,0,0,0-1.11,1.34.77.77,0,0,0-.12.34,2.36,2.36,0,0,0,0,.46c0,.17.05.33.08.5h-.87c.26-.36.09-.76.13-1.14,0,0,0-.06-.05-.09l-.86-1.15C24.55,8.58,24.44,8.52,24.32,8.41Z"/><path d="M22.18,11.06a2,2,0,0,0,.1-.41q0-.9,0-1.8a1.74,1.74,0,0,0-.09-.43h.9c-.24.19-.15.44-.15.67,0,.5,0,1,0,1.51h1.43l.31-.11v.66a3.25,3.25,0,0,0-.45-.08h-2Z"/><path d="M13.36,3.2c0-.39.31-.6.64-.43a.56.56,0,0,0,.66,0,.38.38,0,0,1,.48,0,.49.49,0,0,1,.17.51,1.55,1.55,0,0,1-.91,1,.12.12,0,0,1-.1,0,1.59,1.59,0,0,1-.91-.92A1.81,1.81,0,0,1,13.36,3.2Z"/><path d="M6.13,16.45a1.14,1.14,0,0,1-.44.76c-.43.38-.6.38-1,0a1.14,1.14,0,0,1-.44-.7A.5.5,0,0,1,4.37,16a.42.42,0,0,1,.48,0l0,0a.42.42,0,0,0,.55,0A.44.44,0,0,1,6.13,16.45Z"/><path d="M16.88,21.43c.12-.06.23-.13.36-.18a.43.43,0,0,1,.6.43.9.9,0,0,1-.34.7c-.63.54-.62.53-1.25,0a.88.88,0,0,1-.33-.64.43.43,0,0,1,.65-.46Z"/><path d="M28.52,17.45a1,1,0,0,1-.45.83c-.52.39-.45.39-1,0a1.16,1.16,0,0,1-.45-.65.51.51,0,0,1,.17-.54.41.41,0,0,1,.49,0,.44.44,0,0,0,.54,0A.42.42,0,0,1,28.52,17.45Z"/><path d="M23.08,5.2,23.42,5a.42.42,0,0,1,.6.44,1,1,0,0,1-.4.74c-.56.43-.51.45-1.08,0a1.63,1.63,0,0,1-.36-.56.46.46,0,0,1,.14-.55.44.44,0,0,1,.53,0Z"/><path d="M3.26,5.86c.25.22.55.09.86,0s.36.19.35.41a1.26,1.26,0,0,1-.77.89.12.12,0,0,1-.1,0,1.3,1.3,0,0,1-.71-.71A.4.4,0,0,1,3.26,5.86Z"/><path d="M20.66,18.31a1.11,1.11,0,0,1-.71.84h-.06a1.14,1.14,0,0,1-.71-.8.34.34,0,0,1,.53-.35.39.39,0,0,0,.43,0A.33.33,0,0,1,20.66,18.31Z"/><path d="M10.4,14.06a.32.32,0,0,1,.5-.31c.16.08.28.12.43,0a.3.3,0,0,1,.4,0,.41.41,0,0,1,.11.43,1.14,1.14,0,0,1-.67.69h-.08A1.08,1.08,0,0,1,10.4,14.06Z"/><path d="M25.37,12.69h1c-.25.31-.17.7-.24,1.05a5.54,5.54,0,0,0-.07.57c0,.16-.09.34.12.46h-.62c.29-.27.09-.57.08-.85a6.61,6.61,0,0,0-.11-.88A2.08,2.08,0,0,0,25.37,12.69Z"/><path d="M25.83,16a.37.37,0,0,1-.38-.39.39.39,0,0,1,.77,0A.37.37,0,0,1,25.83,16Z"/><path d="M33.67,17.75a.47.47,0,0,1-.43.48.46.46,0,0,1-.44-.5.47.47,0,0,1,.43-.48A.47.47,0,0,1,33.67,17.75Z"/><path d="M33,9.19c0-.28.19-.5.35-.49s.2.11.2.25-.19.44-.35.41S33.07,9.23,33,9.19Z"/><path d="M34.66,13.39a.33.33,0,0,1,.34.37.51.51,0,0,1-.46.53c-.2,0-.32-.14-.33-.36A.5.5,0,0,1,34.66,13.39Z"/><path d="M9.19,5.09a.39.39,0,0,1,0,.76.35.35,0,0,1-.31-.37A.36.36,0,0,1,9.19,5.09Z"/><path d="M5,12.51s-.12.14-.21.15-.42-.25-.43-.49,0-.24.19-.25S5,12.2,5,12.51Z"/><path d="M5.76,7.88a3.55,3.55,0,0,1-.19.53.24.24,0,0,1-.22.1.27.27,0,0,1-.14-.2,1.67,1.67,0,0,1,.08-.49c0-.13.11-.28.27-.22S5.7,7.78,5.76,7.88Z"/><path d="M31.64,11.12A2.26,2.26,0,0,1,30.88,10a1.53,1.53,0,0,1,.33-1.56,1.81,1.81,0,0,1,1.09-.52.43.43,0,0,0,.26-.13A2.84,2.84,0,0,1,34,7a.28.28,0,0,0,.24-.19.63.63,0,0,1,.64-.39.76.76,0,0,1,.73.51.23.23,0,0,0,.14.15c.39.13.78.23,1.16.37a1.11,1.11,0,0,1,.78,1c.07.45.19.89.25,1.35a2.69,2.69,0,0,1-1.52,2.91c-.12.05-.11.12-.11.23a8.7,8.7,0,0,1-.71,4.33,3.51,3.51,0,0,0-.39,1.58,14.45,14.45,0,0,1-.29,2.86A10.27,10.27,0,0,1,34.5,23a1.65,1.65,0,0,1-1.35,1.05,3,3,0,0,1-2-.25,2.14,2.14,0,0,1-.9-1,.55.55,0,0,0-.21-.24.8.8,0,0,1-.3-1.32,2.22,2.22,0,0,1,.28-.33,2.4,2.4,0,0,0,.7-2.49,3,3,0,0,0-.6-1.37,3.87,3.87,0,0,1-.27-.43,4.94,4.94,0,0,0-.35-.45.87.87,0,0,1,.07-1.43.71.71,0,0,0,.18-.27c.12-.28.21-.56.31-.82a2.34,2.34,0,0,0-1-.46,1.25,1.25,0,0,1-.88-.7c-.05-.12-.2-.19-.15-.37a1.12,1.12,0,0,1,.38-.61,1.82,1.82,0,0,1,1.1-.32l1.69-.05Zm.8,12.75c1.23-.08,1.61-.26,2-1.38a13.59,13.59,0,0,0,.42-2.11c.09-.6.1-1.22.13-1.83a2.42,2.42,0,0,0-.21-1.3,1.11,1.11,0,0,0-1.15-.64q-.57.13-1.14.24a.65.65,0,0,0-.63.6,2.28,2.28,0,0,0,.11,1.29,1.71,1.71,0,0,1-.85,2.36,1.23,1.23,0,0,0-.51,1.71A2,2,0,0,0,32.44,23.87Zm3.63-16.4c-.27-.07-.46-.13-.67-.17A2.87,2.87,0,0,0,33,7.76c-.32.25-.31.24-.16.62a2,2,0,0,1-.25,2.16,4.33,4.33,0,0,0-.39.62,5.81,5.81,0,0,0,2.51,1.4,2.47,2.47,0,0,0,1.69-.17,2.49,2.49,0,0,0,1.25-2.71,1.13,1.13,0,0,0,0-.18,1.36,1.36,0,0,0-.06-.2,2.32,2.32,0,0,1-1,1.06.44.44,0,0,1-.66-.12.93.93,0,0,1,0-.86.68.68,0,0,0,.06-.32c0-.22-.07-.44-.11-.66l0,0c-.09-.11-.25-.2-.27-.32C35.48,7.78,35.72,7.61,36.07,7.47Zm-4.2,9.18a5.51,5.51,0,0,0,2.88-.9,2.33,2.33,0,0,0,1-1.31c.21-.94-.17-1.55-1.17-1.58a2.82,2.82,0,0,0-1.78.69,3.91,3.91,0,0,1-1.42.69,3.39,3.39,0,0,0-1.55.77A.78.78,0,0,0,30,16.24a1.56,1.56,0,0,0,.42.19ZM31.93,11l.58-.83a1.41,1.41,0,0,0,.13-.24,1.89,1.89,0,0,0-.14-1.67.21.21,0,0,0-.14-.1,1.42,1.42,0,0,0-.88.39.46.46,0,0,1-.08.69.42.42,0,0,0-.15.54l.23-.13.19.28-.45.31Zm.35,1.53L32,13h0l.25-.79a.33.33,0,0,0-.52,0,2.18,2.18,0,0,1-.28.25,4.32,4.32,0,0,0-1.31,2c.47-.16.93-.31,1.39-.49s.6-.26.9-.4a.19.19,0,0,0,.08-.16Zm-.55-1.17c-.26,0-.5.07-.74.08-.56,0-1.12,0-1.67,0a1.13,1.13,0,0,0-.86.36,1.27,1.27,0,0,1,1.19.39c.29.31.6.61.51,1.12a.35.35,0,0,0,.18-.13c.23-.28.44-.58.69-.86A2.42,2.42,0,0,0,31.73,11.39ZM30.93,18a2.21,2.21,0,0,0,.07.3,2.74,2.74,0,0,1-.25,2.22,3.65,3.65,0,0,1-.39.49,4.86,4.86,0,0,0-.48.64.4.4,0,0,0,.25.61,1.66,1.66,0,0,1,1-1.54,1.24,1.24,0,0,0,.65-1.37c-.06-.34-.18-.68-.27-1a.22.22,0,0,0-.1-.09ZM35.77,8l0,.05.2,0c.43-.06.66.15.61.58a1.46,1.46,0,0,1-.43.82.54.54,0,0,0,0,.66.22.22,0,0,0,.22,0,1.76,1.76,0,0,0,1-1.3.94.94,0,0,0-.35-1,1,1,0,0,0-1.08,0C35.89,7.86,35.84,8,35.77,8Zm.2,6.74a3.69,3.69,0,0,1-1.79,1.61,1.6,1.6,0,0,1,1,1.12A6.65,6.65,0,0,0,36,14.78Zm-5.74,1.93A3.29,3.29,0,0,0,31.44,18l.27-1.09Zm3.47-4L32.62,12a.38.38,0,0,0,.06.58C33.05,12.94,33.36,13,33.7,12.72ZM35.34,7a.52.52,0,0,0-.55-.26.8.8,0,0,0-.3.16l0,.05Zm.34,5.9.38.53,0-.59Zm-3,.39.26-.17-.36-.21Z"/><path d="M10.27,10.64a4.22,4.22,0,0,1-.69,2.08.62.62,0,0,0-.06.71,2.68,2.68,0,0,1,.24.79,1,1,0,0,1-1.34,1.21A4.26,4.26,0,0,1,7.3,14.9.63.63,0,0,1,7,14.15l.09-.28-.76-.22a.12.12,0,0,0-.08,0,6.64,6.64,0,0,1-1.77.25l-.1,0A6.71,6.71,0,0,1,4.17,15a1.22,1.22,0,0,1-1.59.83A2.32,2.32,0,0,1,1,13a1.67,1.67,0,0,1,.76-1c.65-.38,1.32-.72,2-1.07.19-.1.4-.17.6-.27a.31.31,0,0,0,.12-.17c0-.16,0-.33.11-.49a10.14,10.14,0,0,0,.51-1.89,1.63,1.63,0,0,1,1.1-1.35l0-.06a2.1,2.1,0,0,1-.1-2.37,8.29,8.29,0,0,0,.73-1.46A1.81,1.81,0,0,1,7.61,2a1.17,1.17,0,0,1,1.62.27.45.45,0,0,0,.36.18,2.4,2.4,0,0,1,1.3.5.41.41,0,0,0,.26.07,1.13,1.13,0,0,1,1.24.35,1.37,1.37,0,0,1,.14,1.5.39.39,0,0,1-.06.11c-.39.32-.31.76-.34,1.18a.58.58,0,0,0,0,.18A1.16,1.16,0,0,1,12,7.9l-.08.1c.43.09.85.16,1.26.26a1.16,1.16,0,0,1,1,.85,1.2,1.2,0,0,1-.49,1.28,2.8,2.8,0,0,1-1.31.44A3.19,3.19,0,0,1,10.27,10.64ZM9.56,2.7c.14.4.11.47-.28.55a.87.87,0,0,1-.32,0,.67.67,0,0,0-.2,0c-.33.2-.65.41-1,.62,0,0,0,.05,0,.07a2.31,2.31,0,0,1-.43.45c-.38.24-.58.15-.72-.28h0a2.23,2.23,0,0,0-.48,1.79,1.78,1.78,0,0,0,1,1.27.82.82,0,0,0,.58.1,2,2,0,0,1,1.75,0,1.73,1.73,0,0,1,2.46-1.46,3,3,0,0,0-.52-1.92A2.35,2.35,0,0,0,9.56,2.7ZM3.41,13.77l1.4-.18A10,10,0,0,0,6,13.45c.33-.07.4-.32.23-.62l-.84-1.58a.54.54,0,0,0-.69-.34,4.12,4.12,0,0,0-.83.3c-.67.35-1.35.7-2,1.08a1.42,1.42,0,0,0-.63.82,2.17,2.17,0,0,0,1.09,2.36c.87.32,1.42.09,1.66-.8a6.66,6.66,0,0,0,.11-.73l-.57.1ZM5.12,9.31c0,.15-.1.27-.14.39s-.16.49-.23.74c0,.09,0,.19.11.18a.86.86,0,0,1,.85.61,12,12,0,0,0,.63,1.24c.19.3.37.58.21.95A2.46,2.46,0,0,0,8,13.53a2.39,2.39,0,0,0,1.34-1A3.86,3.86,0,0,0,10,10.33c0-.31,0-.63,0-.94H9.91l-.05,0a4,4,0,0,1-3.28,1A1.73,1.73,0,0,1,5.12,9.31ZM7,7.45a1.27,1.27,0,0,1-.23-.16.6.6,0,0,0-.89,0,1.48,1.48,0,0,0-.54,1c-.1,1,.24,1.64,1.16,1.83a2.31,2.31,0,0,0,1.94-.29c.31-.22.66-.39,1-.63A1.07,1.07,0,0,0,9.76,8a1.1,1.1,0,0,0-.94-.69,1.8,1.8,0,0,0-1,.16,3,3,0,0,1-1.07.28l0-.24Zm5.32,3.12-.07-.06a1,1,0,0,1-.52-1.25.92.92,0,0,1,1.13-.66c.43.11.9.2,1.05.74a.49.49,0,0,0,0-.21.88.88,0,0,0-.71-.59c-.48-.12-1-.2-1.44-.3a.21.21,0,0,0-.14,0,1.87,1.87,0,0,1-1.33.27,3.52,3.52,0,0,0-.06.63c0,.28.08.56.07.83a.45.45,0,0,0,.37.51l.18.06A3.55,3.55,0,0,0,12.31,10.57ZM11.25,8.05c-.37.29-.55,0-.84-.24.18,0,.34-.15.43-.1s.33,0,.45-.13a.26.26,0,0,0,.05-.36s-.06-.13-.1-.18a.46.46,0,0,1,0-.56,1.28,1.28,0,0,0,.29.08c.23,0,.45,0,.52.28-.08-.26-.17-.5-.27-.75l0,0a.94.94,0,0,0-.9-.24,2.05,2.05,0,0,0-1,.84,1,1,0,0,0-.12.72c0,.09.11.16.17.25a1.62,1.62,0,0,1,.25.39.37.37,0,0,0,.39.24A1,1,0,0,0,11.25,8.05ZM8.94,13.34a1.93,1.93,0,0,1-1.37.51.17.17,0,0,0-.12,0,.59.59,0,0,0,0,.8,2.47,2.47,0,0,0,1.12.5.78.78,0,0,0,.92-.84,6.28,6.28,0,0,0-.21-.83l-.37,0ZM9.37,2.92a5.66,5.66,0,0,0-.47-.6A.79.79,0,0,0,8,2.1a1.85,1.85,0,0,0-1.13,2c0,.11.07.17.21.11a.5.5,0,0,0,.38-.57,1,1,0,0,1,.57-1,.8.8,0,0,1,1,.28C9.1,3,9.2,3,9.37,2.92ZM12.1,5a1.17,1.17,0,0,0,.13-1.4.78.78,0,0,0-1-.31c.09.12.18.23.26.36A.72.72,0,0,0,11.9,4a.26.26,0,0,1,.17.36C12,4.58,12,4.77,12.1,5Zm-.51,2.78.08,0a1.06,1.06,0,0,0,.45-.8l0,0Z"/><path d="M28.68,3.14a8.16,8.16,0,0,1,1.07-.53,1.12,1.12,0,0,1,1.53,1.12,2.63,2.63,0,0,1-.81,1.83,5.56,5.56,0,0,1-1.63,1.16.3.3,0,0,1-.21,0,5.1,5.1,0,0,1-2-1.54A2.58,2.58,0,0,1,26.17,4a1.34,1.34,0,0,1,.41-1.17,1,1,0,0,1,.94-.24A2.88,2.88,0,0,1,28.68,3.14Z"/><path d="M8.58,19a5.85,5.85,0,0,1,.79-.4.94.94,0,0,1,1.27,1.05,2.37,2.37,0,0,1-.91,1.55,11.61,11.61,0,0,1-1,.67.31.31,0,0,1-.23,0,3.94,3.94,0,0,1-1.64-1.33,1.86,1.86,0,0,1-.33-1,.92.92,0,0,1,1.29-1A7.79,7.79,0,0,1,8.58,19Z"/><path d="M20.94,8.61h.94c-.26.19-.18.43-.18.65q0,.79,0,1.59a1.53,1.53,0,0,0,.09.4h-.91c.15-.13.08-.22,0-.32L19.38,9.5v.83c0,.17,0,.34,0,.5s.07.26.1.41h-.83c.22-.19.14-.45.14-.68,0-.52,0-1,0-1.55a2.08,2.08,0,0,0-.08-.39h1c-.23.16-.07.26,0,.36L21,10.15l.16.14c0-.51,0-1,0-1.46C21.1,8.76,21,8.7,20.94,8.61Z"/><path d="M19.9,16.19c-.16,0-.33,0-.49-.08a1.32,1.32,0,0,1-1.09-1.34,1.33,1.33,0,0,1,1.13-1.29,2,2,0,0,1,1,0,1.33,1.33,0,0,1,1,1.43,1.35,1.35,0,0,1-1.13,1.2C20.22,16.16,20.06,16.17,19.9,16.19Zm0-.52a.87.87,0,1,0,0-1.74.87.87,0,1,0,0,1.74Z"/><path d="M16.59,11.32c-.16,0-.33,0-.49-.08A1.32,1.32,0,0,1,15,9.89,1.34,1.34,0,0,1,16.15,8.6a2.15,2.15,0,0,1,1,0,1.31,1.31,0,0,1,1,1.43,1.33,1.33,0,0,1-1.13,1.2C16.91,11.29,16.76,11.3,16.59,11.32Zm0-.52a.88.88,0,0,0,.94-.85.87.87,0,0,0-.92-.89.85.85,0,0,0-.93.87A.86.86,0,0,0,16.6,10.8Z"/><path d="M24.06,13.48H25c-.23.16-.17.37-.18.57,0,.44,0,.88,0,1.33a.72.72,0,0,1-.56.68,2.61,2.61,0,0,1-1.54,0,.79.79,0,0,1-.61-.86c0-.44,0-.89,0-1.33a1.46,1.46,0,0,0-.09-.39h.84a3.56,3.56,0,0,0-.1.47c0,.29,0,.59,0,.89-.05.74.36.88,1,.8a.51.51,0,0,0,.52-.58c0-.43,0-.87,0-1.3A1.26,1.26,0,0,0,24.06,13.48Z"/><path d="M35.14,4a3.21,3.21,0,0,1,.46-.22.5.5,0,0,1,.68.52,1,1,0,0,1-.32.73,6.2,6.2,0,0,1-.7.54.19.19,0,0,1-.18,0A1.67,1.67,0,0,1,34,4.43a.52.52,0,0,1,.73-.6C34.88,3.88,35,4,35.14,4Z"/><path d="M17.83,5.69a3,3,0,0,1,.44-.22A.49.49,0,0,1,19,6a.91.91,0,0,1-.29.72,6.8,6.8,0,0,1-.73.57.21.21,0,0,1-.17,0,1.8,1.8,0,0,1-1-.88,1.09,1.09,0,0,1-.08-.59.45.45,0,0,1,.63-.35A4.23,4.23,0,0,1,17.83,5.69Z"/><path d="M14.06,16.69a3.11,3.11,0,0,1,.45-.22.48.48,0,0,1,.67.47,1.44,1.44,0,0,1-.19.63,1.87,1.87,0,0,1-.83.69.23.23,0,0,1-.18,0,2,2,0,0,1-1-.87.76.76,0,0,1,0-.69.44.44,0,0,1,.59-.26A3.54,3.54,0,0,1,14.06,16.69Z"/><path d="M26,21.53a3.61,3.61,0,0,1,.44-.22.5.5,0,0,1,.7.49,1,1,0,0,1-.31.74,5.48,5.48,0,0,1-.72.55.19.19,0,0,1-.15,0,1.74,1.74,0,0,1-1.08-1.2.52.52,0,0,1,.73-.6C25.7,21.38,25.82,21.46,26,21.53Z"/><path d="M3.85,21.26a3.19,3.19,0,0,1,.41-.21A.51.51,0,0,1,5,21.6a1.11,1.11,0,0,1-.43.81c-.73.59-.67.59-1.37,0a1.11,1.11,0,0,1-.46-.85.51.51,0,0,1,.75-.53A2.64,2.64,0,0,1,3.85,21.26Z"/><path d="M4,2.74a4.79,4.79,0,0,1-.26.56,1.15,1.15,0,0,1-.29.33c-.67.5-.59.51-1.28,0a1.18,1.18,0,0,1-.47-.78.57.57,0,0,1,.21-.58.44.44,0,0,1,.56,0,.6.6,0,0,0,.71,0C3.55,2,3.92,2.26,4,2.74Z"/><path d="M20.66,2.39c.15-.07.28-.16.42-.21a.5.5,0,0,1,.72.5.94.94,0,0,1-.26.67c-.81.83-.93.84-1.74,0a1.15,1.15,0,0,1-.25-.6.51.51,0,0,1,.76-.55C20.43,2.25,20.54,2.33,20.66,2.39Z"/><path d="M16.46,16.12a4.31,4.31,0,0,0,.09-.44,1.48,1.48,0,0,0-.43-1.3c-.17-.18-.3-.41-.46-.6s-.2-.19-.32-.3h1.25c-.31.2-.12.35,0,.51s.21.28.34.44a6.1,6.1,0,0,0,.44-.64c0-.07,0-.19-.05-.3h1.11a7.38,7.38,0,0,0-1.16,1.41.3.3,0,0,0-.05.19,3.37,3.37,0,0,0,0,.55,4.37,4.37,0,0,0,.08.48Z"/><path d="M24.52,8.61h1.27c-.29.17-.15.32,0,.48l.36.47c.16-.23.32-.43.44-.64s0-.2-.05-.31h1.13a6.28,6.28,0,0,0-1.11,1.33.7.7,0,0,0-.12.35,2.36,2.36,0,0,0,0,.46c0,.16.05.32.08.5h-.87c.25-.36.09-.76.13-1.14,0,0,0-.06,0-.09-.29-.39-.57-.77-.87-1.15A2.08,2.08,0,0,0,24.52,8.61Z"/><path d="M22.38,11.26a2.79,2.79,0,0,0,.1-.42c0-.59,0-1.19,0-1.79a4.31,4.31,0,0,0-.09-.44h.9c-.24.19-.15.45-.16.68V10.8H24.3a1,1,0,0,0,.25,0,2,2,0,0,0,.32-.1v.66a3.26,3.26,0,0,0-.45-.09h-2Z"/><path d="M13.56,3.4c0-.39.31-.6.64-.43a.57.57,0,0,0,.66,0,.39.39,0,0,1,.48,0,.54.54,0,0,1,.17.52,1.54,1.54,0,0,1-.92,1,.1.1,0,0,1-.09,0,1.59,1.59,0,0,1-.91-.92A1.81,1.81,0,0,1,13.56,3.4Z"/><path d="M6.33,16.65a1.11,1.11,0,0,1-.44.75c-.43.38-.6.39-1,0a1.16,1.16,0,0,1-.44-.7.5.5,0,0,1,.16-.49.42.42,0,0,1,.48,0l0,0a.44.44,0,0,0,.56,0A.44.44,0,0,1,6.33,16.65Z"/><path d="M17.08,21.63a2.91,2.91,0,0,1,.35-.18.43.43,0,0,1,.61.43.91.91,0,0,1-.34.7c-.63.54-.62.53-1.25,0a.88.88,0,0,1-.33-.64.43.43,0,0,1,.64-.46C16.87,21.51,17,21.58,17.08,21.63Z"/><path d="M28.71,17.65a1,1,0,0,1-.45.83c-.51.39-.45.39-1,0a1.16,1.16,0,0,1-.45-.65A.51.51,0,0,1,27,17.3a.41.41,0,0,1,.49,0,.44.44,0,0,0,.54,0A.41.41,0,0,1,28.71,17.65Z"/><path d="M23.28,5.4c.12-.06.22-.13.34-.18a.42.42,0,0,1,.6.44,1,1,0,0,1-.4.74c-.56.43-.51.45-1.08,0a1.5,1.5,0,0,1-.36-.55.44.44,0,0,1,.14-.55c.17-.15.35-.09.53,0A1.71,1.71,0,0,1,23.28,5.4Z"/><path d="M3.46,6.05c.25.23.54.1.86,0s.36.19.34.41a1.22,1.22,0,0,1-.76.89.12.12,0,0,1-.1,0,1.3,1.3,0,0,1-.71-.71A.41.41,0,0,1,3.46,6.05Z"/><path d="M20.86,18.51a1.11,1.11,0,0,1-.71.84h-.06a1.16,1.16,0,0,1-.71-.81.34.34,0,0,1,.53-.34.39.39,0,0,0,.43,0A.33.33,0,0,1,20.86,18.51Z"/><path d="M10.6,14.26a.32.32,0,0,1,.5-.31c.16.08.27.12.43,0a.29.29,0,0,1,.39,0,.4.4,0,0,1,.12.43,1.17,1.17,0,0,1-.67.69h-.08A1.08,1.08,0,0,1,10.6,14.26Z"/><path d="M25.57,12.89h1c-.25.31-.17.7-.24,1,0,.19-.05.38-.08.57s-.08.34.12.46h-.61c.29-.27.09-.57.08-.85a6.41,6.41,0,0,0-.11-.88A2.91,2.91,0,0,0,25.57,12.89Z"/><path d="M26,16.17a.38.38,0,1,1,0-.75.38.38,0,1,1,0,.75Z"/><path d="M33.87,18a.45.45,0,0,1-.44.47.44.44,0,0,1-.43-.49.47.47,0,0,1,.43-.48A.48.48,0,0,1,33.87,18Z"/><path d="M33.23,9.39c0-.28.19-.5.35-.49s.2.11.2.24-.19.45-.35.41S33.27,9.43,33.23,9.39Z"/><path d="M34.86,13.59a.33.33,0,0,1,.34.37.52.52,0,0,1-.47.53c-.19,0-.31-.14-.32-.36A.5.5,0,0,1,34.86,13.59Z"/><path d="M9.39,5.29a.36.36,0,0,1,.32.37.38.38,0,0,1-.31.39.39.39,0,0,1,0-.76Z"/><path d="M5.23,12.71c-.05,0-.12.14-.21.15s-.43-.25-.43-.49,0-.24.19-.25S5.23,12.4,5.23,12.71Z"/><path d="M6,8.08a4,4,0,0,1-.19.53.27.27,0,0,1-.22.1.27.27,0,0,1-.14-.2A2.07,2.07,0,0,1,5.48,8c0-.13.12-.28.28-.22S5.9,8,6,8.08Z"/></g><g class="cls-3"><path d="M31.3,10.78a2.26,2.26,0,0,1-.76-1.13,1.53,1.53,0,0,1,.33-1.56A1.81,1.81,0,0,1,32,7.57a.46.46,0,0,0,.26-.13,2.84,2.84,0,0,1,1.44-.76.28.28,0,0,0,.24-.19.63.63,0,0,1,.64-.39.76.76,0,0,1,.73.51.23.23,0,0,0,.14.15c.39.13.78.23,1.16.37a1.11,1.11,0,0,1,.78,1c.06.45.19.89.25,1.35a2.67,2.67,0,0,1-1.52,2.9c-.12.06-.12.13-.11.24a8.7,8.7,0,0,1-.71,4.33,3.51,3.51,0,0,0-.39,1.58,14.45,14.45,0,0,1-.29,2.86,10.31,10.31,0,0,1-.43,1.33,1.62,1.62,0,0,1-1.34,1.05,3,3,0,0,1-2-.25,2.14,2.14,0,0,1-.9-1,.55.55,0,0,0-.21-.24.8.8,0,0,1-.3-1.32,2.22,2.22,0,0,1,.28-.33,2.4,2.4,0,0,0,.7-2.49,3,3,0,0,0-.6-1.37,3.87,3.87,0,0,1-.27-.43,4.94,4.94,0,0,0-.35-.45.87.87,0,0,1,.07-1.43.71.71,0,0,0,.18-.27c.12-.28.21-.56.31-.82a2.34,2.34,0,0,0-1-.46,1.25,1.25,0,0,1-.88-.7c-.05-.12-.2-.19-.15-.37a1.12,1.12,0,0,1,.38-.61,1.82,1.82,0,0,1,1.1-.32l1.69-.05Zm.8,12.75c1.23-.08,1.61-.26,2-1.38A13.59,13.59,0,0,0,34.49,20c.09-.6.1-1.22.13-1.83a2.42,2.42,0,0,0-.21-1.3,1.11,1.11,0,0,0-1.15-.64q-.57.14-1.14.24a.65.65,0,0,0-.63.6,2.28,2.28,0,0,0,.11,1.29,1.71,1.71,0,0,1-.85,2.36,1.23,1.23,0,0,0-.51,1.71A2,2,0,0,0,32.1,23.53Zm3.63-16.4c-.27-.07-.46-.13-.67-.17a2.87,2.87,0,0,0-2.39.46c-.32.25-.31.24-.16.62a2,2,0,0,1-.25,2.16,4.33,4.33,0,0,0-.39.62,5.81,5.81,0,0,0,2.51,1.4,2.47,2.47,0,0,0,1.69-.17,2.49,2.49,0,0,0,1.25-2.71,1.13,1.13,0,0,0,0-.18,1.36,1.36,0,0,0-.06-.2,2.32,2.32,0,0,1-1,1.06.44.44,0,0,1-.66-.12.93.93,0,0,1,0-.86.68.68,0,0,0,.06-.32c0-.22-.07-.44-.11-.66l0,0c-.09-.11-.25-.2-.27-.32C35.14,7.44,35.38,7.27,35.73,7.13Zm-4.2,9.18a5.51,5.51,0,0,0,2.88-.9,2.33,2.33,0,0,0,1-1.31c.21-.94-.17-1.55-1.18-1.58a2.82,2.82,0,0,0-1.77.69,3.91,3.91,0,0,1-1.42.69,3.39,3.39,0,0,0-1.55.77.78.78,0,0,0,.12,1.23,1.56,1.56,0,0,0,.42.19Zm.06-5.62.58-.84a1,1,0,0,0,.13-.23A1.89,1.89,0,0,0,32.16,8a.21.21,0,0,0-.14-.1,1.42,1.42,0,0,0-.88.39.46.46,0,0,1-.08.69.42.42,0,0,0-.15.54l.23-.13.19.28-.45.31Zm.35,1.53-.29.4h0l.25-.79a.33.33,0,0,0-.52,0,2.18,2.18,0,0,1-.28.25,4.32,4.32,0,0,0-1.31,2c.47-.17.93-.31,1.39-.49s.6-.26.9-.4a.19.19,0,0,0,.08-.16Zm-.55-1.17c-.26,0-.5.07-.74.08-.56,0-1.12,0-1.67,0a1.13,1.13,0,0,0-.86.36,1.27,1.27,0,0,1,1.19.39c.29.31.6.61.51,1.12a.35.35,0,0,0,.18-.13c.23-.28.44-.58.69-.86A2.42,2.42,0,0,0,31.39,11.05Zm-.8,6.63a2.21,2.21,0,0,0,.07.3,2.74,2.74,0,0,1-.25,2.22,3.65,3.65,0,0,1-.39.49,4.86,4.86,0,0,0-.48.64.4.4,0,0,0,.25.61,1.66,1.66,0,0,1,1-1.54A1.24,1.24,0,0,0,31.47,19c-.06-.34-.18-.68-.27-1a.22.22,0,0,0-.1-.09Zm4.84-10,0,0,.2,0c.43-.06.66.15.61.58a1.46,1.46,0,0,1-.43.82.54.54,0,0,0,0,.66.22.22,0,0,0,.22,0,1.79,1.79,0,0,0,1-1.3.94.94,0,0,0-.35-1,1,1,0,0,0-1.08,0C35.55,7.52,35.5,7.62,35.43,7.7Zm.2,6.74a3.69,3.69,0,0,1-1.79,1.61,1.62,1.62,0,0,1,1,1.12A6.8,6.8,0,0,0,35.63,14.44Zm-5.74,1.93a3.29,3.29,0,0,0,1.21,1.27l.27-1.09Zm3.47-4-1.08-.72a.38.38,0,0,0,.06.58C32.71,12.6,33,12.64,33.36,12.38ZM35,6.65a.52.52,0,0,0-.55-.26c-.11,0-.2.1-.3.15l0,.06Zm.34,5.9.38.53,0-.59Zm-3,.39.26-.17-.36-.21Z"/><path d="M9.93,10.3a4.22,4.22,0,0,1-.69,2.08.62.62,0,0,0-.06.71,2.68,2.68,0,0,1,.24.79,1,1,0,0,1-1.34,1.21A4.26,4.26,0,0,1,7,14.56a.64.64,0,0,1-.26-.75l.09-.28L6,13.3s-.06,0-.08,0a6.64,6.64,0,0,1-1.77.25l-.1,0a7,7,0,0,1-.25,1.09,1.22,1.22,0,0,1-1.59.83,2.32,2.32,0,0,1-1.59-2.8,1.67,1.67,0,0,1,.76-1c.65-.38,1.32-.72,2-1.07.19-.1.4-.17.6-.27a.31.31,0,0,0,.12-.17c0-.16,0-.33.11-.49a10.14,10.14,0,0,0,.51-1.89,1.63,1.63,0,0,1,1.1-1.35l0-.06A2.1,2.1,0,0,1,5.72,4a8.29,8.29,0,0,0,.73-1.46,1.81,1.81,0,0,1,.82-.93,1.17,1.17,0,0,1,1.62.27.45.45,0,0,0,.36.18,2.4,2.4,0,0,1,1.3.5.41.41,0,0,0,.26.07A1.13,1.13,0,0,1,12.05,3a1.37,1.37,0,0,1,.14,1.5.39.39,0,0,1-.06.11c-.39.32-.31.76-.34,1.18a.58.58,0,0,0,0,.18,1.16,1.16,0,0,1-.17,1.57l-.08.1c.43.09.85.16,1.26.26a1.16,1.16,0,0,1,1,.85,1.2,1.2,0,0,1-.49,1.28,2.8,2.8,0,0,1-1.31.44A3.19,3.19,0,0,1,9.93,10.3ZM9.22,2.36c.14.4.11.47-.28.55a.87.87,0,0,1-.32,0,.67.67,0,0,0-.2,0l-1,.62s0,0,0,.07A2.31,2.31,0,0,1,7,4c-.38.24-.58.15-.72-.28h0a2.23,2.23,0,0,0-.48,1.79,1.78,1.78,0,0,0,1,1.27.82.82,0,0,0,.58.1,2,2,0,0,1,1.75,0,1.73,1.73,0,0,1,2.46-1.46A3,3,0,0,0,11,3.49,2.37,2.37,0,0,0,9.22,2.36ZM3.07,13.43l1.4-.18a10,10,0,0,0,1.21-.14c.33-.07.4-.32.23-.62l-.84-1.58a.54.54,0,0,0-.69-.34,4.12,4.12,0,0,0-.83.3c-.67.35-1.35.7-2,1.08a1.42,1.42,0,0,0-.63.82A2.17,2.17,0,0,0,2,15.13c.87.32,1.42.09,1.66-.8a6.66,6.66,0,0,0,.11-.73l-.57.1ZM4.78,9c0,.15-.1.27-.14.39l-.24.74c0,.09,0,.19.12.18a.86.86,0,0,1,.85.61A12,12,0,0,0,6,12.13c.19.3.37.58.21.95a2.46,2.46,0,0,0,1.49.11,2.39,2.39,0,0,0,1.34-1A3.86,3.86,0,0,0,9.67,10c0-.31,0-.63,0-.94H9.57l-.05,0a4,4,0,0,1-3.29,1A1.73,1.73,0,0,1,4.78,9ZM6.65,7.11A1.27,1.27,0,0,1,6.42,7a.6.6,0,0,0-.89,0A1.48,1.48,0,0,0,5,8c-.1,1,.24,1.64,1.16,1.83a2.31,2.31,0,0,0,1.94-.29c.31-.22.66-.39.95-.63a1.07,1.07,0,0,0,.38-1.22A1.1,1.1,0,0,0,8.48,7a1.8,1.8,0,0,0-1,.16,3,3,0,0,1-1.07.28l0-.24ZM12,10.23l-.07-.06a1,1,0,0,1-.52-1.25.92.92,0,0,1,1.13-.66c.43.11.9.2,1.05.74a.49.49,0,0,0,0-.21.88.88,0,0,0-.71-.59c-.48-.12-1-.2-1.44-.3a.21.21,0,0,0-.14,0,1.87,1.87,0,0,1-1.33.27,3.52,3.52,0,0,0-.06.63c0,.28.08.56.07.83a.45.45,0,0,0,.37.51l.18.06A3.55,3.55,0,0,0,12,10.23ZM10.91,7.71c-.37.29-.55,0-.84-.24.18,0,.34-.15.43-.1s.33,0,.45-.13A.26.26,0,0,0,11,6.88s-.06-.13-.1-.18a.45.45,0,0,1,0-.56,2.16,2.16,0,0,0,.29.08c.23,0,.45,0,.52.28-.08-.26-.17-.5-.27-.75l0,0a.94.94,0,0,0-.9-.24,2.09,2.09,0,0,0-1,.83,1,1,0,0,0-.12.73c0,.09.11.16.17.25a1.62,1.62,0,0,1,.25.39.37.37,0,0,0,.39.24A1,1,0,0,0,10.91,7.71ZM8.6,13a1.93,1.93,0,0,1-1.37.51.17.17,0,0,0-.12,0,.59.59,0,0,0,0,.8,2.47,2.47,0,0,0,1.12.5A.78.78,0,0,0,9.16,14,6.28,6.28,0,0,0,9,13.18l-.37,0ZM9,2.58A7.35,7.35,0,0,0,8.56,2a.79.79,0,0,0-.89-.22,1.85,1.85,0,0,0-1.13,2c0,.11.07.17.21.11a.5.5,0,0,0,.38-.57,1,1,0,0,1,.57-1,.8.8,0,0,1,1,.28C8.76,2.68,8.86,2.69,9,2.58Zm2.73,2.08a1.17,1.17,0,0,0,.13-1.4.78.78,0,0,0-1-.31c.09.12.18.23.26.36a.72.72,0,0,0,.37.34.26.26,0,0,1,.17.36C11.61,4.24,11.7,4.43,11.76,4.66Zm-.51,2.78.08,0a1.06,1.06,0,0,0,.45-.8l0,0Z"/><path d="M28.34,2.8a8.16,8.16,0,0,1,1.07-.53,1.12,1.12,0,0,1,1.53,1.12,2.63,2.63,0,0,1-.81,1.83A5.56,5.56,0,0,1,28.5,6.38a.3.3,0,0,1-.21,0,5.1,5.1,0,0,1-2-1.54,2.58,2.58,0,0,1-.5-1.22,1.34,1.34,0,0,1,.41-1.17,1,1,0,0,1,.94-.24A2.88,2.88,0,0,1,28.34,2.8Z"/><path d="M8.24,18.67a5.85,5.85,0,0,1,.79-.4.94.94,0,0,1,1.27,1.05,2.37,2.37,0,0,1-.91,1.55,11.61,11.61,0,0,1-1,.67.31.31,0,0,1-.23,0,3.94,3.94,0,0,1-1.64-1.33,1.86,1.86,0,0,1-.33-1,.92.92,0,0,1,1.29-1A7.79,7.79,0,0,1,8.24,18.67Z"/><path d="M20.6,8.27h.94c-.26.19-.18.43-.18.65q0,.79,0,1.59a2,2,0,0,0,.08.4h-.9c.15-.13.08-.22,0-.32L19,9.16V10c0,.16,0,.34,0,.5s.07.26.1.41h-.83c.22-.19.14-.45.14-.68,0-.52,0-1,0-1.55a2.08,2.08,0,0,0-.08-.39h1c-.23.16-.07.26,0,.36l1.22,1.17.16.14c0-.51,0-1,0-1.46C20.76,8.42,20.67,8.36,20.6,8.27Z"/><path d="M19.56,15.85c-.16,0-.33,0-.49-.08A1.32,1.32,0,0,1,18,14.43a1.35,1.35,0,0,1,1.13-1.3,2.15,2.15,0,0,1,1,0,1.33,1.33,0,0,1,1,1.43A1.35,1.35,0,0,1,20,15.79C19.88,15.82,19.72,15.83,19.56,15.85Zm0-.52a.87.87,0,1,0,0-1.74.87.87,0,1,0,0,1.74Z"/><path d="M16.25,11c-.16,0-.33,0-.49-.08a1.32,1.32,0,0,1-1.08-1.35,1.34,1.34,0,0,1,1.13-1.29,2.15,2.15,0,0,1,1,0,1.31,1.31,0,0,1,1,1.43,1.33,1.33,0,0,1-1.13,1.2Zm0-.52a.88.88,0,0,0,.94-.85.87.87,0,0,0-.92-.89.85.85,0,0,0-.93.87A.86.86,0,0,0,16.26,10.46Z"/><path d="M23.72,13.14h.91c-.23.16-.18.37-.18.57,0,.44,0,.88,0,1.33a.72.72,0,0,1-.56.68,2.61,2.61,0,0,1-1.54,0,.79.79,0,0,1-.61-.86c0-.44,0-.89,0-1.33a1.46,1.46,0,0,0-.09-.39h.84a2.46,2.46,0,0,0-.1.47c0,.29,0,.59,0,.89-.05.74.36.88,1,.8a.52.52,0,0,0,.52-.59c0-.42,0-.86,0-1.29A1.26,1.26,0,0,0,23.72,13.14Z"/><path d="M34.8,3.69a3.21,3.21,0,0,1,.46-.22.5.5,0,0,1,.68.52,1,1,0,0,1-.32.73,6.2,6.2,0,0,1-.7.54.19.19,0,0,1-.18,0,1.67,1.67,0,0,1-1.06-1.19.52.52,0,0,1,.73-.6C34.54,3.54,34.67,3.63,34.8,3.69Z"/><path d="M17.49,5.35a3.48,3.48,0,0,1,.43-.22.49.49,0,0,1,.69.5.91.91,0,0,1-.29.72,6.8,6.8,0,0,1-.73.57.21.21,0,0,1-.17,0,1.8,1.8,0,0,1-1-.88,1.09,1.09,0,0,1-.08-.59A.45.45,0,0,1,17,5.12,4.23,4.23,0,0,1,17.49,5.35Z"/><path d="M13.72,16.35a3.11,3.11,0,0,1,.45-.22.48.48,0,0,1,.67.47,1.44,1.44,0,0,1-.19.63,1.87,1.87,0,0,1-.83.69.23.23,0,0,1-.18,0,2,2,0,0,1-1-.87.76.76,0,0,1,0-.69.44.44,0,0,1,.59-.26A3.54,3.54,0,0,1,13.72,16.35Z"/><path d="M25.61,21.19a3.61,3.61,0,0,1,.44-.22.5.5,0,0,1,.7.49,1,1,0,0,1-.31.74,5.48,5.48,0,0,1-.72.55.19.19,0,0,1-.15,0,1.74,1.74,0,0,1-1.08-1.2.52.52,0,0,1,.73-.6C25.36,21,25.48,21.12,25.61,21.19Z"/><path d="M3.51,20.92a3.19,3.19,0,0,1,.41-.21.51.51,0,0,1,.73.55,1.11,1.11,0,0,1-.43.81c-.73.59-.67.59-1.37,0a1.11,1.11,0,0,1-.46-.85.51.51,0,0,1,.75-.53A2.64,2.64,0,0,1,3.51,20.92Z"/><path d="M3.62,2.4A4.79,4.79,0,0,1,3.36,3a1.15,1.15,0,0,1-.29.33c-.67.5-.59.51-1.28,0a1.18,1.18,0,0,1-.47-.78.57.57,0,0,1,.21-.58.44.44,0,0,1,.56,0,.6.6,0,0,0,.71,0C3.21,1.67,3.58,1.92,3.62,2.4Z"/><path d="M20.32,2.05c.15-.07.28-.16.42-.21a.5.5,0,0,1,.72.5A.94.94,0,0,1,21.2,3c-.81.83-.93.84-1.74,0a1.15,1.15,0,0,1-.25-.61c-.06-.47.31-.73.76-.54C20.09,1.91,20.2,2,20.32,2.05Z"/><path d="M16.12,15.78a4.31,4.31,0,0,0,.09-.44,1.48,1.48,0,0,0-.43-1.3c-.17-.18-.3-.41-.46-.6a3.13,3.13,0,0,0-.32-.3h1.25c-.31.2-.12.35,0,.51s.21.28.34.44a6.1,6.1,0,0,0,.44-.64c0-.07,0-.2-.05-.3h1.11a7.38,7.38,0,0,0-1.16,1.41.3.3,0,0,0-.05.19,3.37,3.37,0,0,0,0,.55,4.37,4.37,0,0,0,.08.48Z"/><path d="M24.18,8.27h1.27c-.29.17-.15.32,0,.48l.36.47c.16-.23.32-.43.44-.64s0-.2-.05-.31h1.13A6.28,6.28,0,0,0,26.18,9.6a.7.7,0,0,0-.12.35,2.36,2.36,0,0,0,0,.46,4.53,4.53,0,0,0,.08.49h-.87c.25-.35.09-.75.13-1.13,0,0,0-.06,0-.09-.29-.39-.57-.77-.87-1.15A2.08,2.08,0,0,0,24.18,8.27Z"/><path d="M22,10.92a2.79,2.79,0,0,0,.1-.42V8.71a4.31,4.31,0,0,0-.09-.44H23c-.24.19-.15.45-.16.68,0,.49,0,1,0,1.51H24a1,1,0,0,0,.25,0,2,2,0,0,0,.32-.1V11a3.26,3.26,0,0,0-.45-.09H22Z"/><path d="M13.22,3.06c0-.39.31-.6.64-.43a.57.57,0,0,0,.66,0,.39.39,0,0,1,.48,0,.54.54,0,0,1,.17.52,1.54,1.54,0,0,1-.92,1,.1.1,0,0,1-.09,0,1.59,1.59,0,0,1-.91-.92A1.81,1.81,0,0,1,13.22,3.06Z"/><path d="M6,16.31a1.11,1.11,0,0,1-.44.75c-.43.38-.6.39-1,0a1.16,1.16,0,0,1-.44-.7.5.5,0,0,1,.16-.49.42.42,0,0,1,.48,0l0,0a.44.44,0,0,0,.56,0A.44.44,0,0,1,6,16.31Z"/><path d="M16.74,21.29a2.91,2.91,0,0,1,.35-.18.43.43,0,0,1,.61.43.91.91,0,0,1-.34.7c-.63.54-.62.53-1.25,0a.85.85,0,0,1-.33-.64.43.43,0,0,1,.64-.46C16.53,21.17,16.63,21.24,16.74,21.29Z"/><path d="M28.37,17.31a1,1,0,0,1-.45.83c-.51.39-.45.39-1,0a1.16,1.16,0,0,1-.45-.65.51.51,0,0,1,.17-.54.41.41,0,0,1,.49,0,.44.44,0,0,0,.54,0A.41.41,0,0,1,28.37,17.31Z"/><path d="M22.94,5.06c.12-.06.22-.13.34-.18a.42.42,0,0,1,.6.44,1,1,0,0,1-.4.74c-.56.43-.51.45-1.08,0A1.5,1.5,0,0,1,22,5.48a.44.44,0,0,1,.14-.55c.17-.15.35-.09.53,0A1.71,1.71,0,0,1,22.94,5.06Z"/><path d="M3.12,5.71c.25.23.54.1.86,0s.36.19.34.41A1.22,1.22,0,0,1,3.56,7a.12.12,0,0,1-.1,0,1.3,1.3,0,0,1-.71-.71A.41.41,0,0,1,3.12,5.71Z"/><path d="M20.52,18.17a1.11,1.11,0,0,1-.71.84h-.06A1.16,1.16,0,0,1,19,18.2a.34.34,0,0,1,.53-.34.39.39,0,0,0,.43,0A.33.33,0,0,1,20.52,18.17Z"/><path d="M10.26,13.92a.32.32,0,0,1,.5-.31.36.36,0,0,0,.43,0,.29.29,0,0,1,.39,0,.4.4,0,0,1,.12.43,1.17,1.17,0,0,1-.67.69H11A1.08,1.08,0,0,1,10.26,13.92Z"/><path d="M25.23,12.55h1c-.25.31-.17.7-.24,1,0,.19-.05.38-.08.57s-.08.34.12.46h-.61c.29-.27.09-.57.08-.85a6.41,6.41,0,0,0-.11-.88A2.91,2.91,0,0,0,25.23,12.55Z"/><path d="M25.69,15.83a.38.38,0,1,1,0-.75.38.38,0,1,1,0,.75Z"/><path d="M33.53,17.61a.45.45,0,0,1-.44.47.44.44,0,0,1-.43-.49.47.47,0,0,1,.43-.48A.48.48,0,0,1,33.53,17.61Z"/><path d="M32.89,9.05c0-.28.19-.5.35-.49s.2.11.2.24-.19.45-.35.41S32.93,9.09,32.89,9.05Z"/><path d="M34.52,13.25a.33.33,0,0,1,.34.37.52.52,0,0,1-.47.53c-.19,0-.31-.14-.32-.36A.5.5,0,0,1,34.52,13.25Z"/><path d="M9.05,5a.35.35,0,0,1,.32.37.38.38,0,0,1-.31.39.39.39,0,0,1,0-.76Z"/><path d="M4.89,12.37s-.12.14-.21.15-.43-.25-.43-.49,0-.24.19-.25S4.89,12.06,4.89,12.37Z"/><path d="M5.62,7.74a4,4,0,0,1-.19.53.27.27,0,0,1-.22.1.27.27,0,0,1-.14-.2,2.07,2.07,0,0,1,.07-.49c0-.13.12-.28.28-.22S5.56,7.64,5.62,7.74Z"/></g><path class="cls-4" d="M31.49,11a2.23,2.23,0,0,1-.75-1.12,1.53,1.53,0,0,1,.33-1.56,1.78,1.78,0,0,1,1.08-.52.46.46,0,0,0,.27-.13,2.84,2.84,0,0,1,1.44-.76.28.28,0,0,0,.24-.19.63.63,0,0,1,.64-.39.74.74,0,0,1,.72.51.28.28,0,0,0,.15.15c.39.12.78.23,1.16.37a1.1,1.1,0,0,1,.78,1c.06.45.19.89.25,1.34a2.68,2.68,0,0,1-1.52,2.91c-.13.06-.12.13-.11.23a8.73,8.73,0,0,1-.72,4.34,3.8,3.8,0,0,0-.39,1.58,13.1,13.1,0,0,1-.29,2.86,8.8,8.8,0,0,1-.42,1.32A1.63,1.63,0,0,1,33,23.93a3,3,0,0,1-2-.25,2.11,2.11,0,0,1-.9-1,.67.67,0,0,0-.21-.23.81.81,0,0,1-.31-1.32c.09-.12.19-.23.29-.34a2.38,2.38,0,0,0,.7-2.48A3,3,0,0,0,30,17a3.87,3.87,0,0,1-.27-.43,3.17,3.17,0,0,0-.35-.45.87.87,0,0,1,.06-1.43.64.64,0,0,0,.19-.27c.11-.28.21-.56.31-.82a2.34,2.34,0,0,0-1-.46,1.25,1.25,0,0,1-.88-.7c-.05-.12-.2-.19-.15-.37a1.18,1.18,0,0,1,.38-.62,1.81,1.81,0,0,1,1.1-.31L31.06,11C31.19,11,31.31,11,31.49,11Zm.81,12.76c1.23-.08,1.61-.26,2-1.39a12.22,12.22,0,0,0,.43-2.1c.09-.6.09-1.22.13-1.83a2.42,2.42,0,0,0-.21-1.3,1.12,1.12,0,0,0-1.16-.64l-1.13.24a.65.65,0,0,0-.63.6,2.16,2.16,0,0,0,.11,1.28A1.71,1.71,0,0,1,31,21a1.23,1.23,0,0,0-.51,1.71A2,2,0,0,0,32.3,23.73Zm3.62-16.4c-.26-.07-.46-.13-.66-.17a2.86,2.86,0,0,0-2.39.46c-.32.24-.31.24-.16.62a2,2,0,0,1-.26,2.16,5.39,5.39,0,0,0-.38.62,6,6,0,0,0,2.51,1.4,2.47,2.47,0,0,0,1.69-.17,2.5,2.5,0,0,0,1.25-2.71l0-.18a1.36,1.36,0,0,0-.06-.2,2.32,2.32,0,0,1-1,1.06.43.43,0,0,1-.66-.13.91.91,0,0,1,0-.85.68.68,0,0,0,0-.32c0-.22-.06-.44-.1-.66l0,0c-.1-.11-.25-.2-.27-.32C35.34,7.64,35.58,7.46,35.92,7.33ZM31.73,16.5a5.42,5.42,0,0,0,2.88-.89,2.32,2.32,0,0,0,1-1.32c.21-.93-.17-1.54-1.18-1.57a2.86,2.86,0,0,0-1.78.69,4.12,4.12,0,0,1-1.41.69,3.47,3.47,0,0,0-1.55.76.79.79,0,0,0,.12,1.24,1.43,1.43,0,0,0,.42.19Zm.06-5.61.58-.84a1,1,0,0,0,.13-.23,1.89,1.89,0,0,0-.14-1.67c0-.05-.09-.11-.14-.1a1.39,1.39,0,0,0-.88.39.45.45,0,0,1-.09.69.43.43,0,0,0-.14.54l.23-.13.19.28-.45.31Zm.34,1.53-.29.4,0,0,.25-.78a.33.33,0,0,0-.52,0l-.28.25a4.26,4.26,0,0,0-1.31,2c.47-.16.93-.31,1.39-.48.31-.12.6-.26.9-.4a.2.2,0,0,0,.07-.16C32.27,13,32.2,12.71,32.13,12.42Zm-.54-1.18c-.26,0-.5.08-.74.09l-1.68,0a1.18,1.18,0,0,0-.85.37,1.28,1.28,0,0,1,1.19.39c.29.31.6.61.51,1.12a.42.42,0,0,0,.18-.13c.23-.28.44-.59.68-.86A2.33,2.33,0,0,0,31.59,11.24Zm-.81,6.63c0,.12,0,.22.08.31a2.71,2.71,0,0,1-.26,2.22,2.93,2.93,0,0,1-.38.49,4,4,0,0,0-.48.63.41.41,0,0,0,.25.62,1.66,1.66,0,0,1,1-1.54,1.25,1.25,0,0,0,.65-1.37,9.67,9.67,0,0,0-.28-1,.16.16,0,0,0-.09-.09Zm4.85-10,0,0,.2,0c.42-.06.66.15.61.57a1.45,1.45,0,0,1-.43.83A.54.54,0,0,0,36,10a.25.25,0,0,0,.22,0,1.8,1.8,0,0,0,1-1.3.94.94,0,0,0-.35-1,1,1,0,0,0-1.08,0C35.75,7.72,35.7,7.82,35.63,7.9Zm.2,6.74A3.69,3.69,0,0,1,34,16.25a1.63,1.63,0,0,1,1,1.11A6.91,6.91,0,0,0,35.83,14.64Zm-5.75,1.93a3.29,3.29,0,0,0,1.22,1.26l.27-1.08Zm3.47-4-1.07-.72a.38.38,0,0,0,.06.58C32.91,12.8,33.22,12.84,33.55,12.58ZM35.2,6.85a.52.52,0,0,0-.56-.26c-.1,0-.19.1-.29.15l0,.06Zm.34,5.9.38.53,0-.59Zm-2.95.39.26-.17-.36-.21Z"/><path class="cls-4" d="M10.13,10.5a4.36,4.36,0,0,1-.69,2.08.62.62,0,0,0-.06.71,2.41,2.41,0,0,1,.23.78,1,1,0,0,1-1.34,1.22,4.71,4.71,0,0,1-1.11-.53A.64.64,0,0,1,6.9,14c0-.09.06-.18.09-.28l-.76-.23H6.15a6.69,6.69,0,0,1-1.77.25h-.1A10,10,0,0,1,4,14.86a1.22,1.22,0,0,1-1.6.83,2.33,2.33,0,0,1-1.58-2.8,1.68,1.68,0,0,1,.76-1c.65-.37,1.32-.72,2-1.06.2-.11.41-.17.6-.27a.31.31,0,0,0,.13-.17c0-.16,0-.34.1-.49A9.45,9.45,0,0,0,4.94,8,1.62,1.62,0,0,1,6,6.67s0,0,0-.06a2.11,2.11,0,0,1-.1-2.38,7.26,7.26,0,0,0,.72-1.45,1.79,1.79,0,0,1,.83-.93,1.17,1.17,0,0,1,1.62.27.45.45,0,0,0,.36.18,2.33,2.33,0,0,1,1.3.5.38.38,0,0,0,.26.07,1.13,1.13,0,0,1,1.24.35,1.39,1.39,0,0,1,.14,1.5.67.67,0,0,1-.07.11c-.38.31-.3.76-.33,1.18a.33.33,0,0,0,0,.17,1.18,1.18,0,0,1-.17,1.58.44.44,0,0,0-.08.1c.43.09.84.16,1.26.26A1.14,1.14,0,0,1,14,9a1.22,1.22,0,0,1-.49,1.28,2.84,2.84,0,0,1-1.31.44A3.19,3.19,0,0,1,10.13,10.5ZM9.41,2.56c.15.39.11.46-.27.55a1.74,1.74,0,0,1-.32,0c-.07,0-.15,0-.2,0l-1,.62s0,0,0,.07a2.24,2.24,0,0,1-.42.45c-.38.24-.58.15-.72-.28h0a2.22,2.22,0,0,0-.48,1.79A1.76,1.76,0,0,0,6.92,7a.87.87,0,0,0,.58.1,2,2,0,0,1,1.75,0,1.72,1.72,0,0,1,2.46-1.46,3,3,0,0,0-.53-1.92A2.33,2.33,0,0,0,9.41,2.56ZM3.26,13.63l1.4-.18c.41,0,.82-.06,1.22-.14s.4-.32.23-.62L5.27,11.1a.55.55,0,0,0-.69-.33,4.12,4.12,0,0,0-.83.3c-.68.34-1.35.7-2,1.07a1.47,1.47,0,0,0-.63.83A2.17,2.17,0,0,0,2.2,15.33c.87.32,1.41.09,1.66-.8A6.66,6.66,0,0,0,4,13.8l-.58.1ZM5,9.17c-.05.15-.1.27-.14.39l-.24.74c0,.09,0,.19.12.18a.85.85,0,0,1,.85.61,9.5,9.5,0,0,0,.63,1.23c.19.31.37.59.21,1a2.38,2.38,0,0,0,1.49.1,2.36,2.36,0,0,0,1.33-1,3.74,3.74,0,0,0,.64-2.15c0-.32,0-.63,0-.94H9.77a.1.1,0,0,0,0,0,4,4,0,0,1-3.29,1A1.72,1.72,0,0,1,5,9.17ZM6.85,7.31a1.91,1.91,0,0,1-.24-.17.59.59,0,0,0-.88,0,1.48,1.48,0,0,0-.54,1A1.46,1.46,0,0,0,6.34,10a2.36,2.36,0,0,0,1.95-.29c.31-.22.66-.39,1-.63a1.05,1.05,0,0,0-.56-1.91,1.78,1.78,0,0,0-1,.16,3,3,0,0,1-1.07.28l0-.24Zm5.32,3.12s-.06-.06-.08-.06a1,1,0,0,1-.51-1.26.92.92,0,0,1,1.13-.65c.43.11.9.2,1,.74a.68.68,0,0,0,0-.21A.86.86,0,0,0,13,8.4c-.48-.12-1-.2-1.45-.3a.17.17,0,0,0-.14,0,1.84,1.84,0,0,1-1.32.27,4.71,4.71,0,0,0-.07.62c0,.28.09.57.08.84a.45.45,0,0,0,.36.51l.18.06A3.6,3.6,0,0,0,12.17,10.43ZM11.1,7.91c-.36.29-.55,0-.83-.25.18,0,.34-.14.43-.09s.33,0,.45-.13a.26.26,0,0,0,0-.36s-.06-.13-.1-.18a.45.45,0,0,1,0-.56,1.11,1.11,0,0,0,.29.07c.23,0,.44,0,.52.29-.08-.26-.17-.5-.27-.75l0,0a1,1,0,0,0-.9-.23,2,2,0,0,0-1,.83,1,1,0,0,0-.13.73c0,.09.12.16.18.24a2.34,2.34,0,0,1,.25.39.35.35,0,0,0,.39.25A1,1,0,0,0,11.1,7.91ZM8.8,13.2a1.93,1.93,0,0,1-1.37.51.17.17,0,0,0-.12,0,.58.58,0,0,0,0,.8,2.53,2.53,0,0,0,1.12.5.78.78,0,0,0,.92-.84,6.28,6.28,0,0,0-.21-.83l-.37,0ZM9.23,2.77c-.16-.2-.3-.42-.47-.6A.8.8,0,0,0,7.87,2a1.84,1.84,0,0,0-1.13,2c0,.12.07.18.21.12a.51.51,0,0,0,.38-.57,1,1,0,0,1,.57-1,.8.8,0,0,1,.95.28C9,2.88,9.06,2.89,9.23,2.77ZM12,4.85a1.14,1.14,0,0,0,.12-1.39.76.76,0,0,0-.95-.31c.09.12.18.23.26.35a.7.7,0,0,0,.37.35.26.26,0,0,1,.17.36A.79.79,0,0,0,12,4.85Zm-.51,2.79.08.05a1.06,1.06,0,0,0,.45-.8l-.05,0Z"/><path class="cls-4" d="M28.54,3a11.78,11.78,0,0,1,1.07-.53,1.13,1.13,0,0,1,1.53,1.13,2.65,2.65,0,0,1-.81,1.83A5.7,5.7,0,0,1,28.7,6.58a.3.3,0,0,1-.21,0,5.1,5.1,0,0,1-2-1.54A2.58,2.58,0,0,1,26,3.83a1.34,1.34,0,0,1,.41-1.17,1,1,0,0,1,.94-.25A3.17,3.17,0,0,1,28.54,3Z"/><path class="cls-4" d="M8.44,18.87a5.85,5.85,0,0,1,.79-.4.93.93,0,0,1,1.26,1.05,2.36,2.36,0,0,1-.9,1.55,9.6,9.6,0,0,1-1,.66.29.29,0,0,1-.24,0,4,4,0,0,1-1.63-1.33,1.86,1.86,0,0,1-.33-1,.92.92,0,0,1,1.29-1A7.79,7.79,0,0,1,8.44,18.87Z"/><path class="cls-4" d="M20.8,8.46h.94c-.26.2-.18.44-.18.66q0,.8,0,1.59a2.18,2.18,0,0,0,.08.4h-.9c.15-.13.08-.23,0-.33-.49-.45-1-.91-1.48-1.41v.82a4.34,4.34,0,0,0,0,.51,4,4,0,0,0,.1.41h-.83c.22-.2.14-.45.14-.68,0-.52,0-1,0-1.55a1.55,1.55,0,0,0-.09-.39h1c-.23.16-.08.25,0,.36L20.81,10l.15.14c0-.52,0-1,0-1.46C21,8.62,20.87,8.56,20.8,8.46Z"/><path class="cls-4" d="M19.76,16.05c-.16,0-.33,0-.49-.08a1.33,1.33,0,0,1-1.09-1.35,1.35,1.35,0,0,1,1.13-1.29,2.15,2.15,0,0,1,1,0,1.31,1.31,0,0,1,1,1.43A1.34,1.34,0,0,1,20.23,16Zm0-.52a.87.87,0,1,0,0-1.74.87.87,0,1,0,0,1.74Z"/><path class="cls-4" d="M16.45,11.17A4.13,4.13,0,0,1,16,11.1a1.32,1.32,0,0,1-1.08-1.35A1.33,1.33,0,0,1,16,8.46a2.16,2.16,0,0,1,1,0,1.34,1.34,0,0,1-.13,2.62C16.77,11.14,16.61,11.15,16.45,11.17Zm0-.51a.88.88,0,0,0,.94-.86.93.93,0,0,0-1.86,0A.88.88,0,0,0,16.46,10.66Z"/><path class="cls-4" d="M23.92,13.33h.9c-.22.17-.17.38-.17.57,0,.45,0,.89,0,1.34a.72.72,0,0,1-.56.68,2.61,2.61,0,0,1-1.54,0,.78.78,0,0,1-.61-.86c0-.45,0-.89,0-1.33a2,2,0,0,0-.09-.39h.84a2.46,2.46,0,0,0-.1.47c0,.29,0,.59,0,.88,0,.75.36.89,1,.81.37,0,.5-.22.52-.59s0-.86,0-1.29A.94.94,0,0,0,23.92,13.33Z"/><path class="cls-4" d="M35,3.89a3.21,3.21,0,0,1,.46-.22.5.5,0,0,1,.68.52,1,1,0,0,1-.32.73,7.38,7.38,0,0,1-.71.54.21.21,0,0,1-.17,0,1.73,1.73,0,0,1-1.07-1.19.52.52,0,0,1,.74-.6A3.6,3.6,0,0,1,35,3.89Z"/><path class="cls-4" d="M17.68,5.55a3.61,3.61,0,0,1,.44-.22.5.5,0,0,1,.69.5.92.92,0,0,1-.29.72,6.8,6.8,0,0,1-.73.57.21.21,0,0,1-.17,0,1.8,1.8,0,0,1-1-.88,1.09,1.09,0,0,1-.08-.59.45.45,0,0,1,.63-.35A2.92,2.92,0,0,1,17.68,5.55Z"/><path class="cls-4" d="M13.92,16.54a3.68,3.68,0,0,1,.45-.21.48.48,0,0,1,.67.47,1.44,1.44,0,0,1-.19.63,1.87,1.87,0,0,1-.83.69.19.19,0,0,1-.18,0,1.94,1.94,0,0,1-.95-.86.76.76,0,0,1,0-.69.44.44,0,0,1,.59-.26C13.61,16.38,13.76,16.47,13.92,16.54Z"/><path class="cls-4" d="M25.81,21.39a3,3,0,0,1,.44-.22.49.49,0,0,1,.69.49,1,1,0,0,1-.3.74,6.51,6.51,0,0,1-.72.55.2.2,0,0,1-.15,0,1.77,1.77,0,0,1-1.09-1.2.52.52,0,0,1,.74-.6A3.72,3.72,0,0,1,25.81,21.39Z"/><path class="cls-4" d="M3.71,21.12a3.19,3.19,0,0,1,.41-.21.51.51,0,0,1,.73.54,1.09,1.09,0,0,1-.44.82c-.72.59-.66.59-1.37,0a1.13,1.13,0,0,1-.45-.85.51.51,0,0,1,.75-.53A2.64,2.64,0,0,1,3.71,21.12Z"/><path class="cls-4" d="M3.82,2.59a4.94,4.94,0,0,1-.26.57,1,1,0,0,1-.3.33C2.6,4,2.68,4,2,3.46a1.2,1.2,0,0,1-.47-.78.6.6,0,0,1,.21-.59.47.47,0,0,1,.56,0,.58.58,0,0,0,.71,0C3.41,1.87,3.78,2.12,3.82,2.59Z"/><path class="cls-4" d="M20.52,2.25c.15-.07.28-.16.42-.21a.5.5,0,0,1,.72.5,1,1,0,0,1-.26.67c-.81.83-.94.83-1.74,0a1.15,1.15,0,0,1-.25-.61c-.07-.48.31-.73.76-.54A3,3,0,0,1,20.52,2.25Z"/><path class="cls-4" d="M16.32,16c0-.15.07-.29.09-.43a1.47,1.47,0,0,0-.43-1.3c-.17-.18-.3-.41-.46-.6a2.46,2.46,0,0,0-.33-.3h1.25c-.3.2-.11.35,0,.51l.33.44a5.8,5.8,0,0,0,.45-.64c0-.07,0-.2,0-.31h1.11a8,8,0,0,0-1.16,1.41.33.33,0,0,0-.05.2,3.37,3.37,0,0,0,0,.55c0,.16.05.31.07.47Z"/><path class="cls-4" d="M24.37,8.47h1.28c-.29.17-.15.32,0,.47l.36.48a7.46,7.46,0,0,0,.44-.65c0-.06,0-.19-.05-.3h1.12A6.94,6.94,0,0,0,26.37,9.8a.8.8,0,0,0-.11.35,2.36,2.36,0,0,0,0,.46,4.53,4.53,0,0,0,.08.49h-.87c.25-.36.09-.75.12-1.13,0,0,0-.07,0-.09-.29-.39-.57-.77-.87-1.15A1.76,1.76,0,0,0,24.37,8.47Z"/><path class="cls-4" d="M22.24,11.12a1.87,1.87,0,0,0,.09-.42c0-.6,0-1.19,0-1.79a2.57,2.57,0,0,0-.08-.44h.9c-.24.19-.15.45-.16.68,0,.49,0,1,0,1.51h1.17a1,1,0,0,0,.25,0c.11,0,.21-.07.32-.1v.66a3.26,3.26,0,0,0-.45-.09h-2Z"/><path class="cls-4" d="M13.42,3.26c0-.39.31-.61.64-.44a.56.56,0,0,0,.66,0,.38.38,0,0,1,.48,0,.51.51,0,0,1,.16.52,1.52,1.52,0,0,1-.91,1,.16.16,0,0,1-.1,0,1.62,1.62,0,0,1-.9-.93A.67.67,0,0,1,13.42,3.26Z"/><path class="cls-4" d="M6.19,16.51a1.11,1.11,0,0,1-.44.75c-.44.38-.6.39-1,0a1.16,1.16,0,0,1-.44-.7.52.52,0,0,1,.16-.5.44.44,0,0,1,.48,0l0,0c.19.16.35.12.56,0A.44.44,0,0,1,6.19,16.51Z"/><path class="cls-4" d="M16.93,21.49a3,3,0,0,1,.36-.18.42.42,0,0,1,.6.43.9.9,0,0,1-.33.7c-.64.54-.62.53-1.26,0a.91.91,0,0,1-.33-.64.44.44,0,0,1,.65-.46A3,3,0,0,1,16.93,21.49Z"/><path class="cls-4" d="M28.57,17.51a1,1,0,0,1-.45.83c-.51.38-.45.39-1,0a1.19,1.19,0,0,1-.45-.65.52.52,0,0,1,.16-.54.41.41,0,0,1,.5,0,.44.44,0,0,0,.54,0A.41.41,0,0,1,28.57,17.51Z"/><path class="cls-4" d="M23.14,5.26a2.79,2.79,0,0,1,.34-.18.42.42,0,0,1,.6.44,1,1,0,0,1-.4.74c-.56.43-.51.44-1.08,0a1.5,1.5,0,0,1-.36-.55.46.46,0,0,1,.14-.56c.17-.15.35-.08.53,0Z"/><path class="cls-4" d="M3.32,5.91c.25.23.54.1.85,0s.37.19.35.41a1.24,1.24,0,0,1-.76.89h-.1A1.3,1.3,0,0,1,3,6.5.4.4,0,0,1,3.32,5.91Z"/><path class="cls-4" d="M20.72,18.36a1.1,1.1,0,0,1-.71.85H20a1.16,1.16,0,0,1-.71-.81.33.33,0,0,1,.52-.34.41.41,0,0,0,.44,0A.33.33,0,0,1,20.72,18.36Z"/><path class="cls-4" d="M10.46,14.12a.32.32,0,0,1,.5-.31.35.35,0,0,0,.43,0,.3.3,0,0,1,.39,0,.39.39,0,0,1,.11.43,1.15,1.15,0,0,1-.66.69h-.08A1.08,1.08,0,0,1,10.46,14.12Z"/><path class="cls-4" d="M25.43,12.74h.95c-.25.32-.16.71-.24,1.06,0,.19-.05.38-.07.56s-.08.35.12.47h-.62c.3-.27.09-.57.09-.85a6.41,6.41,0,0,0-.11-.88A3.79,3.79,0,0,0,25.43,12.74Z"/><path class="cls-4" d="M25.88,16a.39.39,0,0,1-.38-.39.4.4,0,0,1,.41-.37.38.38,0,1,1,0,.76Z"/><path class="cls-4" d="M33.72,17.81a.44.44,0,0,1-.43.47.44.44,0,0,1-.43-.49.47.47,0,0,1,.43-.48A.46.46,0,0,1,33.72,17.81Z"/><path class="cls-4" d="M33.09,9.25c0-.28.19-.5.35-.5s.19.12.19.25-.19.45-.34.41S33.13,9.29,33.09,9.25Z"/><path class="cls-4" d="M34.72,13.44a.34.34,0,0,1,.34.38.52.52,0,0,1-.47.53.33.33,0,0,1-.32-.37A.51.51,0,0,1,34.72,13.44Z"/><path class="cls-4" d="M9.25,5.15a.35.35,0,0,1,.32.37c0,.2-.15.39-.31.38a.35.35,0,0,1-.32-.36A.38.38,0,0,1,9.25,5.15Z"/><path class="cls-4" d="M5.08,12.57s-.12.14-.2.15-.43-.25-.43-.49,0-.24.19-.25S5.09,12.25,5.08,12.57Z"/><path class="cls-4" d="M5.82,7.93a3.55,3.55,0,0,1-.19.53.29.29,0,0,1-.22.11.23.23,0,0,1-.14-.2,2.07,2.07,0,0,1,.07-.49c0-.13.12-.28.27-.22S5.76,7.84,5.82,7.93Z"/></g></g></svg>