<svg xmlns="http://www.w3.org/2000/svg" viewBox="0 0 38.55 24.66"><defs><style>.cls-1{isolation:isolate;}.cls-2{opacity:0.15;}.cls-2,.cls-3{mix-blend-mode:multiply;}.cls-4{fill:#fff;}</style></defs><title>convert-FIX-SVG-03</title><g class="cls-1"><g id="Layer_1" data-name="Layer 1"><g class="cls-2"><path d="M26.71,11.27a4.58,4.58,0,0,0-.45-.35,1.67,1.67,0,0,0-.4-.09c-.18.44-.34.88-.53,1.3a16.62,16.62,0,0,1-3.13,4.52,36.72,36.72,0,0,1-6.57,5.42l-.39.26a1,1,0,0,1-1.18,0,37.19,37.19,0,0,1-6.81-5.51A17.3,17.3,0,0,1,4,12.22a9,9,0,0,1-.91-4.47,6,6,0,0,1,5.2-5.58A6.83,6.83,0,0,1,14.4,4.4l.12.13.14.17a1.45,1.45,0,0,1,.1-.18,6.78,6.78,0,0,1,4.42-2.34A6,6,0,0,1,26.11,7.1c.08.42.1.85.15,1.32l2.17-.1.07-.14a.51.51,0,0,1-.17-.07,2.51,2.51,0,0,1-.77-1.38,1.83,1.83,0,0,1,1.63-2.18.74.74,0,0,0,.43-.22,3.17,3.17,0,0,1,1.57-.84.35.35,0,0,0,.32-.24.7.7,0,0,1,.79-.43.83.83,0,0,1,.78.58.35.35,0,0,0,.17.17c.46.15.93.28,1.38.45a1.26,1.26,0,0,1,.86,1.08c.07.43.18.84.26,1.26a3.62,3.62,0,0,1-.37,2.52,2.81,2.81,0,0,1-1.33,1.2.22.22,0,0,0-.16.27,10.24,10.24,0,0,1-1.17,5.8.55.55,0,0,0-.06.28,20.36,20.36,0,0,1-.49,4.67,6.93,6.93,0,0,1-.33,1,2,2,0,0,1-1.61,1.3,3.2,3.2,0,0,1-2.54-.47A2.11,2.11,0,0,1,27,22a.59.59,0,0,0-.33-.36.67.67,0,0,1-.14-.09.79.79,0,0,1-.33-1.05,2.3,2.3,0,0,1,.52-.75,3,3,0,0,0,.79-1.32,2.71,2.71,0,0,0,0-1.69,3.41,3.41,0,0,0-.65-1.47,2.65,2.65,0,0,1-.26-.39c-.17-.24-.34-.49-.54-.72a1,1,0,0,1,.11-1.58,1.15,1.15,0,0,0,.25-.37C26.5,11.88,26.6,11.56,26.71,11.27Zm5.61,6.15c0-.42,0-.84,0-1.26a1.65,1.65,0,0,0-.43-1.06,1.19,1.19,0,0,0-1.11-.43c-.43.08-.85.19-1.28.27a.8.8,0,0,0-.78.75,2.54,2.54,0,0,0,.13,1.44,2,2,0,0,1-1,2.78,1.18,1.18,0,0,0-.39.35,1.61,1.61,0,0,0,.36,2.33,2.85,2.85,0,0,0,2.48.45,1.33,1.33,0,0,0,1-.6,6.29,6.29,0,0,0,.53-1.15A15.77,15.77,0,0,0,32.32,17.42ZM29.15,8.31A6.5,6.5,0,0,0,32.31,10a2.57,2.57,0,0,0,2.62-1,2.76,2.76,0,0,0,.56-1.86c0-.31-.05-.62-.08-.94-.06,0-.07,0-.07,0a.43.43,0,0,0,0,.07A2.59,2.59,0,0,1,34.17,7.4a.5.5,0,0,1-.72-.16,1,1,0,0,1,0-1,.36.36,0,0,0,0-.22c0-.3-.08-.6-.12-.91-.18,0-.35-.08-.37-.29,0-.41.22-.62.6-.76a4.61,4.61,0,0,0-1.65-.3,3,3,0,0,0-2.11.84.2.2,0,0,0,0,.27,4,4,0,0,1,.28.75,2.15,2.15,0,0,1-.41,2A8.67,8.67,0,0,0,29.15,8.31Zm-.36,6.39c.42-.06.87-.09,1.31-.18a5.1,5.1,0,0,0,2.6-1.37,1.94,1.94,0,0,0,.62-1.8,1.36,1.36,0,0,0-.26-.63,1.45,1.45,0,0,0-1-.42,3.3,3.3,0,0,0-2.16.8,4.55,4.55,0,0,1-1.67.81,4.2,4.2,0,0,0-1.7.82.93.93,0,0,0,.16,1.56,2.54,2.54,0,0,0,.65.24C27.8,14.6,28.28,14.64,28.79,14.7Zm-14.73,2,.54-.07a1.46,1.46,0,0,0,1.2-1.23A1.44,1.44,0,0,0,15,13.86a2.16,2.16,0,0,0-1.35-.12,1.43,1.43,0,0,0-1.2,1.32,1.4,1.4,0,0,0,1.06,1.51A4.65,4.65,0,0,0,14.06,16.68Zm.31-9.32-.56.07a1.45,1.45,0,0,0-.12,2.84,2.28,2.28,0,0,0,1.13,0A1.46,1.46,0,0,0,16,9,1.41,1.41,0,0,0,15,7.5,4.49,4.49,0,0,0,14.37,7.36Zm6.31,1.77c.28,0,.55,0,.82,0a4.33,4.33,0,0,1,.5.08V8.48c-.44.22-.88.07-1.32.12V8H22c.23,0,.47-.08.67.14V7.35a2.78,2.78,0,0,1-.48.07H19.8a1,1,0,0,1,.17.7c0,.45,0,.9,0,1.35,0,.27.11.56-.21.8h2.49a3.12,3.12,0,0,1,.51.07V9.67a3.43,3.43,0,0,1-.42.08,2.64,2.64,0,0,1-.4,0H20.68ZM10.17,16.55l0,0h1.16c-.27-.17-.21-.39-.22-.6s0-.45,0-.67a.69.69,0,0,1,.11-.35,12.09,12.09,0,0,1,1.45-1.84h-1.4c.08.13.27.17.15.35s-.46.64-.71,1l-.56-.8c-.11-.16-.32-.33,0-.53H8.81c.16.18.33.34.48.53s.33.51.54.73A1.91,1.91,0,0,1,10.37,16C10.34,16.23,10.42,16.44,10.17,16.55Zm6-2.8,0,0c.24.14.18.35.18.55,0,.46,0,.92,0,1.37a.8.8,0,0,0,.68.85,2.8,2.8,0,0,0,1.57,0,.79.79,0,0,0,.64-.7c0-.43,0-.86,0-1.29,0-.27-.11-.58.2-.81h-1c.07.1.17.18.17.26,0,.55,0,1.09,0,1.63,0,.32-.29.46-.76.46s-.72-.15-.77-.46a1.32,1.32,0,0,1,0-.28c0-.24,0-.48,0-.72s-.12-.63.19-.9Zm-3.87-3.36V9.63a2.89,2.89,0,0,1-.47.08H9.94c0-.75,0-1.47,0-2.19,0-.24-.1-.5.21-.7H9L9,6.85c.28.13.2.36.2.56,0,.74,0,1.48,0,2.22,0,.22.06.47-.24.66h3A2.47,2.47,0,0,1,12.35,10.39Zm4.82-.11H18.4c-.17-.13-.26-.23-.17-.4.36-.71.7-1.43,1.06-2.14a1.93,1.93,0,0,1,.24-.29H18.39c.26.17.14.36.05.54L18,9l-.17.35L17.17,8c-.09-.19-.24-.38,0-.57H16.06a4.3,4.3,0,0,1,.3.49c.3.58.58,1.16.86,1.74C17.32,9.87,17.49,10.07,17.17,10.28ZM28.54,6.92a3.22,3.22,0,0,0-.36.24.19.19,0,0,0,0,.19,1.9,1.9,0,0,0,.73.78c.21-.3.4-.59.59-.89a1.79,1.79,0,0,0,.22-.38A2.25,2.25,0,0,0,29.49,5s-.1-.11-.14-.1a1.56,1.56,0,0,0-1,.44c.05.11.15.22.14.3a.66.66,0,0,1-.31.57.46.46,0,0,0-.11.58l.27-.15Zm.63,2.55c-.18-.11-.34-.21-.52,0s-.54.45-.78.71a5.31,5.31,0,0,0-1.12,1.92s0,.06,0,.11a8,8,0,0,1,1.71-.66,4.65,4.65,0,0,0,.93-.44.2.2,0,0,0,.08-.17c-.06-.31-.15-.62-.23-1l-.32.44,0,0Zm-1.5,6.84c0,.1,0,.18.07.27a3.12,3.12,0,0,1,.11,1.66,3.4,3.4,0,0,1-1,1.74,1.74,1.74,0,0,0-.44.66.48.48,0,0,0,.34.66v-.14a1.79,1.79,0,0,1,1-1.58,1.5,1.5,0,0,0,.89-1.81c-.07-.36-.19-.72-.29-1.07a.24.24,0,0,0-.1-.1Zm.93-7.69-2,.09c-.38,0-.35,0-.42.36a.79.79,0,0,0,.24.81.93.93,0,0,1,.32,1c.12.09.17,0,.24-.07.25-.35.5-.7.78-1A3,3,0,0,0,28.6,8.62ZM6,6.81a2.67,2.67,0,0,1,.1.49c0,.8,0,1.59,0,2.39,0,.2.06.42-.22.59H7a3.44,3.44,0,0,1-.1-.48V7.41c0-.2-.06-.42.22-.6ZM33.25,4.74l.33-.06a.54.54,0,0,1,.68.62,1.64,1.64,0,0,1-.44,1,.63.63,0,0,0-.13.75c.06.15.16.21.31.12a2.36,2.36,0,0,0,1-1,1.6,1.6,0,0,0,.13-1.23,1.12,1.12,0,0,0-1.7-.47C33.36,4.5,33.33,4.61,33.25,4.74Zm.26,7.82a4.35,4.35,0,0,1-2.08,1.86,1.9,1.9,0,0,1,1.15,1.33A8.92,8.92,0,0,0,33.51,12.56Zm-5.23,3.71.3-1.27-1.71-.21A3.72,3.72,0,0,0,28.28,16.27Zm1.37-7a.46.46,0,0,0,.09.72c.46.4.85.44,1.14.11-.21-.13-.42-.24-.62-.38S29.86,9.44,29.65,9.28Zm3.1-5.83a.59.59,0,0,0-.57-.33.38.38,0,0,0-.37.27Zm.82,6.81-.39.07.42.6Zm-3.51.33-.41-.25.11.44Z"/><path d="M31.07,16.23a.52.52,0,0,1-.5.56.54.54,0,0,1-.5-.56.56.56,0,0,1,.5-.58A.54.54,0,0,1,31.07,16.23Z"/><path d="M31,5.92c0,.28-.19.53-.39.53s-.22-.13-.23-.28a.49.49,0,0,1,.4-.49C30.92,5.68,31,5.8,31,5.92Z"/><path d="M32.61,11.59a.59.59,0,0,1-.54.61c-.22,0-.37-.19-.37-.45a.61.61,0,0,1,.54-.62C32.47,11.14,32.61,11.32,32.61,11.59Z"/><path d="M14.1,16.11a.94.94,0,1,1,1-.93A.92.92,0,0,1,14.1,16.11Z"/><path d="M15.28,8.87a1,1,0,1,1-1-.94A.91.91,0,0,1,15.28,8.87Z"/><path d="M26.91,11.47a3.43,3.43,0,0,0-.45-.35,1.67,1.67,0,0,0-.4-.09c-.18.44-.34.88-.53,1.3a16.62,16.62,0,0,1-3.13,4.52,36.72,36.72,0,0,1-6.57,5.42l-.39.25a1,1,0,0,1-1.18,0A38.1,38.1,0,0,1,7.44,17a17.15,17.15,0,0,1-3.25-4.62,9,9,0,0,1-.91-4.47,5.94,5.94,0,0,1,5.2-5.57A6.84,6.84,0,0,1,14.6,4.6a.69.69,0,0,1,.11.13,1.27,1.27,0,0,1,.15.16,1,1,0,0,1,.1-.17,6.73,6.73,0,0,1,4.41-2.34A6,6,0,0,1,26.31,7.3c.08.41.09.85.15,1.32l2.17-.11.07-.13a.44.44,0,0,1-.17-.07,2.51,2.51,0,0,1-.77-1.38,1.83,1.83,0,0,1,1.63-2.18.74.74,0,0,0,.43-.22,3.1,3.1,0,0,1,1.57-.84.35.35,0,0,0,.32-.24A.71.71,0,0,1,32.5,3a.85.85,0,0,1,.78.59.35.35,0,0,0,.17.17c.46.15.93.28,1.38.45a1.26,1.26,0,0,1,.86,1.08c.06.42.18.84.25,1.26a3.57,3.57,0,0,1-.37,2.52,2.75,2.75,0,0,1-1.32,1.2.22.22,0,0,0-.16.27,10.25,10.25,0,0,1-1.17,5.8.55.55,0,0,0-.06.28,20.78,20.78,0,0,1-.49,4.66,10.24,10.24,0,0,1-.33,1,2,2,0,0,1-1.61,1.3,3.19,3.19,0,0,1-2.55-.48,2.11,2.11,0,0,1-.72-.92.63.63,0,0,0-.33-.35l-.15-.09a.8.8,0,0,1-.32-1.05,2.3,2.3,0,0,1,.52-.75,3.07,3.07,0,0,0,.79-1.33,2.75,2.75,0,0,0,0-1.68A3.22,3.22,0,0,0,27,15.45a3.73,3.73,0,0,1-.25-.39c-.17-.24-.34-.49-.54-.72a1,1,0,0,1,.11-1.58,1.15,1.15,0,0,0,.25-.37C26.69,12.08,26.8,11.76,26.91,11.47Zm5.6,6.15c0-.42,0-.84,0-1.27a1.64,1.64,0,0,0-.43-1.05A1.16,1.16,0,0,0,31,14.87c-.43.08-.85.19-1.28.27a.8.8,0,0,0-.78.75A2.58,2.58,0,0,0,29,17.32a2,2,0,0,1-1,2.79,1.09,1.09,0,0,0-.39.35A1.62,1.62,0,0,0,28,22.79a2.83,2.83,0,0,0,2.47.44,1.31,1.31,0,0,0,1-.59A6.24,6.24,0,0,0,32,21.49,14.86,14.86,0,0,0,32.51,17.62ZM29.35,8.51a6.4,6.4,0,0,0,3.16,1.67,2.56,2.56,0,0,0,2.62-1,2.77,2.77,0,0,0,.56-1.86c0-.31,0-.62-.08-.94l-.07,0a.16.16,0,0,0,0,.07A2.7,2.7,0,0,1,34.37,7.6a.49.49,0,0,1-.72-.16,1,1,0,0,1,0-1.05.31.31,0,0,0,0-.21c0-.3-.08-.6-.13-.91-.17,0-.34-.08-.36-.29,0-.41.22-.62.6-.77a4.83,4.83,0,0,0-1.65-.29A3,3,0,0,0,30,4.76.2.2,0,0,0,30,5a4,4,0,0,1,.28.75,2.18,2.18,0,0,1-.41,2A7.45,7.45,0,0,0,29.35,8.51ZM29,14.89c.42-.05.87-.08,1.31-.17a5.1,5.1,0,0,0,2.6-1.37,2,2,0,0,0,.62-1.81,1.24,1.24,0,0,0-.27-.62,1.41,1.41,0,0,0-1-.42,3.34,3.34,0,0,0-2.16.79,4.42,4.42,0,0,1-1.67.82,4.2,4.2,0,0,0-1.7.82.93.93,0,0,0,.16,1.56,2.1,2.1,0,0,0,.65.23C28,14.8,28.48,14.84,29,14.89Zm-14.73,2,.54-.07A1.46,1.46,0,0,0,16,15.58a1.43,1.43,0,0,0-.84-1.52,2.16,2.16,0,0,0-1.35-.12,1.45,1.45,0,0,0-1.21,1.32,1.42,1.42,0,0,0,1.07,1.51A4.65,4.65,0,0,0,14.26,16.88Zm.31-9.32L14,7.63a1.45,1.45,0,0,0-.12,2.84,2.24,2.24,0,0,0,1.12,0A1.46,1.46,0,0,0,16.2,9.23a1.41,1.41,0,0,0-1-1.53A4.49,4.49,0,0,0,14.57,7.56Zm6.31,1.77c.28,0,.55,0,.82,0a4.17,4.17,0,0,1,.49.08V8.68c-.43.22-.87.06-1.31.12V8.17H22.2c.23,0,.47-.07.67.15V7.55a2.93,2.93,0,0,1-.48.07H20a1,1,0,0,1,.17.69c0,.46,0,.91,0,1.36,0,.27.11.56-.22.8h2.5a3.27,3.27,0,0,1,.51.07V9.86a2.26,2.26,0,0,1-.42.09,2.67,2.67,0,0,1-.4,0H20.88ZM10.37,16.75l0,0h1.15c-.27-.17-.21-.39-.21-.6s0-.45,0-.67a.69.69,0,0,1,.11-.35,11.5,11.5,0,0,1,1.45-1.84h-1.4c.07.12.27.17.14.34l-.7,1-.56-.8c-.11-.16-.32-.33,0-.53H9a5.89,5.89,0,0,1,.48.53c.19.23.34.51.55.72a1.94,1.94,0,0,1,.54,1.66C10.54,16.43,10.62,16.64,10.37,16.75Zm6-2.8,0,0c.24.13.19.35.19.55,0,.45,0,.91,0,1.37a.8.8,0,0,0,.68.85,2.8,2.8,0,0,0,1.57,0,.79.79,0,0,0,.64-.71c0-.42,0-.85,0-1.28,0-.28-.12-.58.2-.82h-1c.07.11.17.19.17.27,0,.55,0,1.09,0,1.63,0,.32-.29.46-.76.46s-.72-.15-.77-.47a1.23,1.23,0,0,1,0-.27c0-.24,0-.48,0-.72s-.12-.63.19-.9Zm-3.86-3.36V9.83a4.63,4.63,0,0,1-.47.08H10.14c0-.75,0-1.47,0-2.19,0-.24-.1-.5.21-.71H9.19l0,0c.28.13.2.36.2.56q0,1.11,0,2.22c0,.22.07.46-.23.66h3A2.47,2.47,0,0,1,12.55,10.59Zm4.81-.12H18.6c-.17-.12-.26-.22-.17-.39.36-.71.7-1.43,1.06-2.14a1.28,1.28,0,0,1,.24-.29H18.59c.26.17.14.35.05.54l-.48,1L18,9.57l-.62-1.35c-.09-.19-.24-.38,0-.57H16.26a5.3,5.3,0,0,1,.3.48c.29.58.58,1.17.86,1.75C17.51,10.07,17.68,10.27,17.36,10.47ZM28.74,7.11a3.74,3.74,0,0,0-.36.25.19.19,0,0,0,0,.19,2,2,0,0,0,.73.78c.2-.31.4-.59.59-.89a1.79,1.79,0,0,0,.22-.38,2.25,2.25,0,0,0-.19-1.91c0-.05-.1-.11-.14-.1a1.61,1.61,0,0,0-1,.44c.06.11.16.21.15.3a.68.68,0,0,1-.31.57.45.45,0,0,0-.11.57l.27-.14Zm.63,2.55c-.18-.1-.34-.2-.52,0s-.54.45-.78.7A5.35,5.35,0,0,0,27,12.26a.31.31,0,0,0,0,.11,8,8,0,0,1,1.71-.66,5.27,5.27,0,0,0,.93-.44.2.2,0,0,0,.08-.17c-.07-.31-.15-.62-.23-1l-.33.44h0Zm-1.5,6.85a2.68,2.68,0,0,1,.07.27,3.12,3.12,0,0,1,.11,1.66,3.4,3.4,0,0,1-1,1.74,1.8,1.8,0,0,0-.45.66.48.48,0,0,0,.35.66v-.15a1.79,1.79,0,0,1,1-1.57A1.52,1.52,0,0,0,28.88,18a10.87,10.87,0,0,0-.3-1.08.19.19,0,0,0-.09-.09Zm.92-7.69-2,.08c-.37,0-.34,0-.42.37a.82.82,0,0,0,.25.81.93.93,0,0,1,.32,1c.12.1.17,0,.24-.06.25-.35.5-.7.78-1A3,3,0,0,0,28.79,8.82ZM6.19,7a3.56,3.56,0,0,1,.1.49c0,.79,0,1.59,0,2.39,0,.2.06.42-.22.58h1.1A3,3,0,0,1,7.08,10c0-.8,0-1.6,0-2.39,0-.2-.06-.43.22-.6ZM33.45,4.94l.33-.06a.53.53,0,0,1,.68.62,1.64,1.64,0,0,1-.44,1,.64.64,0,0,0-.14.75c.07.14.17.21.32.12a2.36,2.36,0,0,0,1-1,1.56,1.56,0,0,0,.12-1.23,1.11,1.11,0,0,0-1.69-.47C33.56,4.7,33.53,4.81,33.45,4.94Zm.26,7.82a4.39,4.39,0,0,1-2.08,1.86A1.87,1.87,0,0,1,32.77,16,8.74,8.74,0,0,0,33.71,12.76Zm-5.23,3.7.3-1.26L27.07,15A3.63,3.63,0,0,0,28.48,16.46Zm1.37-7a.46.46,0,0,0,.09.72c.46.39.85.44,1.14.11l-.63-.38ZM33,3.64a.6.6,0,0,0-.58-.32.36.36,0,0,0-.36.27Zm.82,6.82-.4.07.43.6Zm-3.51.32-.41-.24L30,11Z"/><path d="M31.27,16.43a.5.5,0,1,1-1,0,.55.55,0,0,1,.5-.58A.54.54,0,0,1,31.27,16.43Z"/><path d="M31.16,6.12c0,.28-.19.53-.39.53s-.22-.13-.23-.28a.48.48,0,0,1,.4-.49C31.12,5.88,31.15,6,31.16,6.12Z"/><path d="M32.81,11.79a.6.6,0,0,1-.54.61c-.22,0-.37-.19-.37-.45a.6.6,0,0,1,.54-.62A.41.41,0,0,1,32.81,11.79Z"/><path d="M14.3,16.31a.92.92,0,0,1-1-.94,1,1,0,1,1,1,.94Z"/><path d="M15.48,9.07a1,1,0,0,1-2,0,1,1,0,0,1,2,0Z"/></g><g class="cls-3"><path d="M26.57,11.13a3.43,3.43,0,0,0-.45-.35,1.79,1.79,0,0,0-.4-.09c-.18.44-.34.88-.53,1.3a16.62,16.62,0,0,1-3.13,4.52,37.15,37.15,0,0,1-6.57,5.42l-.39.25a1,1,0,0,1-1.18,0A38.1,38.1,0,0,1,7.1,16.69a17.41,17.41,0,0,1-3.26-4.62A9.17,9.17,0,0,1,2.93,7.6,6,6,0,0,1,8.14,2a6.87,6.87,0,0,1,6.12,2.24.69.69,0,0,1,.11.13,1.27,1.27,0,0,1,.15.16,1,1,0,0,1,.1-.17A6.73,6.73,0,0,1,19,2,6,6,0,0,1,26,7c.08.41.09.85.15,1.32l2.17-.11L28.36,8A.44.44,0,0,1,28.19,8a2.45,2.45,0,0,1-.77-1.38,1.83,1.83,0,0,1,1.63-2.18.74.74,0,0,0,.43-.22,3.1,3.1,0,0,1,1.57-.84.35.35,0,0,0,.32-.24.71.71,0,0,1,.79-.44.85.85,0,0,1,.78.59.35.35,0,0,0,.17.17c.46.15.93.28,1.38.45A1.26,1.26,0,0,1,35.35,5c.06.42.18.84.25,1.26a3.57,3.57,0,0,1-.37,2.52,2.73,2.73,0,0,1-1.33,1.2c-.13.06-.16.12-.15.27A10.25,10.25,0,0,1,32.58,16a.55.55,0,0,0-.06.28A20.78,20.78,0,0,1,32,21a10.24,10.24,0,0,1-.33,1,2,2,0,0,1-1.61,1.3,3.19,3.19,0,0,1-2.55-.48,2.11,2.11,0,0,1-.72-.92.63.63,0,0,0-.33-.35l-.15-.09A.8.8,0,0,1,26,20.34a2.3,2.3,0,0,1,.52-.75,3.07,3.07,0,0,0,.79-1.33,2.75,2.75,0,0,0,0-1.68,3.22,3.22,0,0,0-.66-1.47,3.73,3.73,0,0,1-.25-.39c-.17-.24-.34-.49-.54-.72A1,1,0,0,1,26,12.41a1,1,0,0,0,.25-.36C26.35,11.74,26.46,11.42,26.57,11.13Zm5.6,6.15c0-.42,0-.84,0-1.27A1.64,1.64,0,0,0,31.74,15a1.16,1.16,0,0,0-1.11-.43c-.43.08-.85.19-1.28.27a.8.8,0,0,0-.78.75A2.58,2.58,0,0,0,28.69,17a2,2,0,0,1-1,2.79,1.09,1.09,0,0,0-.39.35,1.62,1.62,0,0,0,.36,2.33,2.83,2.83,0,0,0,2.47.44,1.31,1.31,0,0,0,1-.59,6.24,6.24,0,0,0,.52-1.15A14.86,14.86,0,0,0,32.17,17.28ZM29,8.17a6.4,6.4,0,0,0,3.16,1.67,2.56,2.56,0,0,0,2.62-1A2.77,2.77,0,0,0,35.35,7c0-.31-.05-.62-.08-.94l-.07,0a.16.16,0,0,0,0,.07A2.7,2.7,0,0,1,34,7.26a.49.49,0,0,1-.72-.16,1,1,0,0,1,0-1,.31.31,0,0,0,.05-.21c0-.3-.08-.6-.13-.91a.34.34,0,0,1-.36-.29c-.05-.41.22-.62.6-.77a4.83,4.83,0,0,0-1.65-.29,3,3,0,0,0-2.11.84.2.2,0,0,0-.05.27,4,4,0,0,1,.28.75,2.18,2.18,0,0,1-.41,1.95A7.45,7.45,0,0,0,29,8.17Zm-.36,6.38c.42-.05.87-.08,1.31-.17A5.1,5.1,0,0,0,32.56,13a2,2,0,0,0,.62-1.81,1.24,1.24,0,0,0-.27-.62,1.41,1.41,0,0,0-1-.42,3.34,3.34,0,0,0-2.16.79,4.39,4.39,0,0,1-1.68.82,4.16,4.16,0,0,0-1.69.82.93.93,0,0,0,.16,1.56,2.1,2.1,0,0,0,.65.23C27.66,14.46,28.14,14.5,28.65,14.55Zm-14.73,2,.54-.07a1.46,1.46,0,0,0,1.2-1.23,1.42,1.42,0,0,0-.84-1.52,2.16,2.16,0,0,0-1.35-.12,1.45,1.45,0,0,0-1.21,1.32,1.42,1.42,0,0,0,1.07,1.51A4.65,4.65,0,0,0,13.92,16.54Zm.31-9.32-.56.07a1.45,1.45,0,0,0-.12,2.84,2.36,2.36,0,0,0,1.12,0,1.46,1.46,0,0,0,1.19-1.27,1.41,1.41,0,0,0-1-1.53A4.49,4.49,0,0,0,14.23,7.22ZM20.54,9c.28,0,.55,0,.82,0a4.17,4.17,0,0,1,.49.08V8.34c-.43.22-.87.06-1.31.12V7.83h1.32c.23,0,.47-.07.67.15V7.21a2.93,2.93,0,0,1-.48.07H19.66a1,1,0,0,1,.17.69c0,.46,0,.91,0,1.36,0,.26.11.56-.22.8h2.5a3.27,3.27,0,0,1,.51.07V9.52a2.26,2.26,0,0,1-.42.09,2.67,2.67,0,0,1-.4,0H20.54ZM10,16.41l0,0h1.15c-.27-.17-.21-.39-.21-.6s0-.45,0-.67a.61.61,0,0,1,.11-.35A11.5,11.5,0,0,1,12.58,13h-1.4c.07.12.27.17.14.34l-.7,1-.56-.8c-.11-.16-.32-.33,0-.53H8.66a5.89,5.89,0,0,1,.48.53c.19.23.34.5.55.72a1.94,1.94,0,0,1,.54,1.66C10.2,16.09,10.28,16.3,10,16.41Zm6-2.8,0,0c.24.13.19.35.19.55,0,.45,0,.91,0,1.37a.8.8,0,0,0,.68.85,2.89,2.89,0,0,0,1.57,0,.79.79,0,0,0,.64-.71c0-.42,0-.86,0-1.28s-.12-.58.2-.82h-1c.07.11.17.19.17.27,0,.55,0,1.09,0,1.63,0,.32-.29.46-.76.46S17,15.82,17,15.5a1.23,1.23,0,0,1,0-.27c0-.24,0-.48,0-.72s-.12-.63.19-.9ZM12.2,10.25V9.49a4,4,0,0,1-.46.08H9.8c0-.75,0-1.47,0-2.19,0-.24-.1-.5.21-.71H8.85l0,0c.28.13.2.36.2.56Q9,8.38,9,9.49c0,.22.07.46-.23.66h3A2.21,2.21,0,0,1,12.2,10.25ZM17,10.13h1.24c-.17-.12-.26-.22-.17-.39.36-.71.7-1.43,1.06-2.14a1.28,1.28,0,0,1,.24-.29H18.24c.27.17.15.35.06.54l-.48,1-.17.35L17,7.88c-.09-.19-.24-.38,0-.57H15.92a5.3,5.3,0,0,1,.3.48c.29.58.58,1.17.86,1.75C17.17,9.73,17.34,9.93,17,10.13ZM28.4,6.77A3.74,3.74,0,0,0,28,7a.19.19,0,0,0,0,.19,2,2,0,0,0,.73.78c.2-.31.4-.59.59-.89a1.79,1.79,0,0,0,.22-.38,2.25,2.25,0,0,0-.19-1.91s-.1-.11-.14-.1a1.61,1.61,0,0,0-1,.44c.06.11.16.21.15.3A.68.68,0,0,1,28,6a.45.45,0,0,0-.11.57l.27-.14ZM29,9.32c-.18-.1-.34-.2-.52,0s-.54.45-.78.7a5.35,5.35,0,0,0-1.12,1.93.31.31,0,0,0,0,.11,8,8,0,0,1,1.71-.66,5.27,5.27,0,0,0,.93-.44.2.2,0,0,0,.08-.17c-.07-.31-.15-.62-.23-1l-.33.44h0Zm-1.5,6.85a2.68,2.68,0,0,1,.07.27,3.12,3.12,0,0,1,.11,1.66,3.34,3.34,0,0,1-1,1.74,1.91,1.91,0,0,0-.44.66.48.48,0,0,0,.35.66V21a1.79,1.79,0,0,1,1-1.57,1.52,1.52,0,0,0,.89-1.81,10.87,10.87,0,0,0-.3-1.08.19.19,0,0,0-.09-.09Zm.92-7.69-2,.08c-.37,0-.34,0-.42.37a.82.82,0,0,0,.25.81.93.93,0,0,1,.32,1c.12.1.17,0,.24-.06.25-.35.5-.7.78-1A3.08,3.08,0,0,0,28.45,8.48ZM5.85,6.67a3.56,3.56,0,0,1,.1.49C6,8,6,8.75,6,9.55c0,.2.06.42-.22.58h1.1a3,3,0,0,1-.09-.47c0-.8,0-1.6,0-2.39,0-.2-.06-.43.22-.6ZM33.11,4.6l.33-.06a.53.53,0,0,1,.68.62,1.64,1.64,0,0,1-.44,1,.64.64,0,0,0-.14.75c.07.14.17.21.32.12a2.36,2.36,0,0,0,1-1A1.56,1.56,0,0,0,35,4.78a1.11,1.11,0,0,0-1.69-.47C33.22,4.36,33.19,4.47,33.11,4.6Zm.26,7.82a4.39,4.39,0,0,1-2.08,1.86,1.87,1.87,0,0,1,1.14,1.33A8.8,8.8,0,0,0,33.37,12.42Zm-5.23,3.7.3-1.26-1.71-.21A3.63,3.63,0,0,0,28.14,16.12Zm1.37-7a.46.46,0,0,0,.09.72c.46.39.85.44,1.14.11l-.63-.38Zm3.1-5.84A.6.6,0,0,0,32,3a.36.36,0,0,0-.36.27Zm.82,6.82-.4.07.43.6Zm-3.51.32-.41-.24.11.44Z"/><path d="M30.93,16.09a.5.5,0,1,1-1,0,.55.55,0,0,1,.5-.58A.54.54,0,0,1,30.93,16.09Z"/><path d="M30.82,5.78c0,.28-.19.53-.39.53s-.22-.13-.23-.28.2-.5.4-.49S30.81,5.66,30.82,5.78Z"/><path d="M32.47,11.44a.6.6,0,0,1-.54.62c-.22,0-.37-.19-.37-.45A.6.6,0,0,1,32.1,11,.4.4,0,0,1,32.47,11.44Z"/><path d="M14,16A.92.92,0,0,1,13,15a.91.91,0,0,1,1-.93A.94.94,0,1,1,14,16Z"/><path d="M15.14,8.73a1,1,0,0,1-2,0,.91.91,0,0,1,1-.94A.91.91,0,0,1,15.14,8.73Z"/></g><path class="cls-4" d="M26.77,11.33a3.43,3.43,0,0,0-.45-.35,1.79,1.79,0,0,0-.4-.09c-.18.44-.34.88-.53,1.3a16.85,16.85,0,0,1-3.13,4.52,36.73,36.73,0,0,1-6.58,5.41l-.38.26a1,1,0,0,1-1.18,0A38.1,38.1,0,0,1,7.3,16.89,17.41,17.41,0,0,1,4,12.27,9.17,9.17,0,0,1,3.13,7.8,6,6,0,0,1,8.34,2.22a6.87,6.87,0,0,1,6.12,2.24l.11.13.15.16a.91.91,0,0,1,.09-.17,6.74,6.74,0,0,1,4.42-2.34,6,6,0,0,1,3.65.52,5.93,5.93,0,0,1,3.28,4.39,13.17,13.17,0,0,1,.15,1.33l2.18-.11.07-.13a.44.44,0,0,1-.17-.07,2.45,2.45,0,0,1-.77-1.39,1.82,1.82,0,0,1,1.63-2.17.74.74,0,0,0,.43-.22,3.06,3.06,0,0,1,1.57-.84.37.37,0,0,0,.32-.24.71.71,0,0,1,.79-.44.84.84,0,0,1,.78.58.29.29,0,0,0,.17.17c.46.16.92.29,1.38.46a1.25,1.25,0,0,1,.86,1.08c.06.42.18.84.25,1.26a3.57,3.57,0,0,1-.37,2.52,2.77,2.77,0,0,1-1.33,1.2c-.13.06-.16.12-.15.27a10.19,10.19,0,0,1-1.18,5.8.88.88,0,0,0-.06.28,20.26,20.26,0,0,1-.48,4.66,8.1,8.1,0,0,1-.34,1,2,2,0,0,1-1.61,1.3A3.17,3.17,0,0,1,27.74,23,2.11,2.11,0,0,1,27,22a.63.63,0,0,0-.33-.35,1.19,1.19,0,0,1-.15-.09.79.79,0,0,1-.32-1.05,2.1,2.1,0,0,1,.52-.75,3.07,3.07,0,0,0,.79-1.33,2.75,2.75,0,0,0,0-1.68,3.22,3.22,0,0,0-.66-1.47,3.73,3.73,0,0,1-.25-.39,7.51,7.51,0,0,0-.54-.72,1,1,0,0,1,.11-1.59,1,1,0,0,0,.25-.36C26.55,11.94,26.66,11.62,26.77,11.33Zm5.6,6.15c0-.42,0-.85,0-1.27a1.69,1.69,0,0,0-.43-1.06,1.16,1.16,0,0,0-1.11-.42c-.43.07-.85.18-1.28.26s-.69.27-.78.76a2.59,2.59,0,0,0,.12,1.43,2,2,0,0,1-1,2.79,1.16,1.16,0,0,0-.39.34,1.63,1.63,0,0,0,.36,2.34,2.83,2.83,0,0,0,2.47.44,1.31,1.31,0,0,0,1-.59,6.24,6.24,0,0,0,.52-1.15A15.3,15.3,0,0,0,32.37,17.48ZM29.21,8.37A6.36,6.36,0,0,0,32.37,10,2.57,2.57,0,0,0,35,9a2.84,2.84,0,0,0,.56-1.87c0-.31,0-.62-.08-.93H35.4l0,.07a2.67,2.67,0,0,1-1.13,1.15.49.49,0,0,1-.72-.16,1,1,0,0,1,0-1,.31.31,0,0,0,0-.21c0-.3-.08-.6-.13-.91a.34.34,0,0,1-.36-.29c0-.41.22-.62.6-.77A4.41,4.41,0,0,0,32,3.78a3,3,0,0,0-2.1.84c-.1.09-.1.15-.05.27a4,4,0,0,1,.28.75,2.18,2.18,0,0,1-.42,2C29.52,7.82,29.38,8.1,29.21,8.37Zm-.36,6.38a12.46,12.46,0,0,0,1.31-.18,5,5,0,0,0,2.6-1.36,2,2,0,0,0,.62-1.81,1.24,1.24,0,0,0-.27-.62,1.34,1.34,0,0,0-1-.42,3.26,3.26,0,0,0-2.15.79,4.62,4.62,0,0,1-1.68.82,4,4,0,0,0-1.69.82.92.92,0,0,0,.15,1.55,2,2,0,0,0,.66.24C27.86,14.66,28.34,14.7,28.85,14.75Zm-14.73,2,.54-.07a1.46,1.46,0,0,0,1.2-1.24A1.42,1.42,0,0,0,15,13.92a2.16,2.16,0,0,0-1.35-.12,1.44,1.44,0,0,0-1.21,1.32,1.42,1.42,0,0,0,1.07,1.51C13.73,16.69,13.94,16.7,14.12,16.74Zm.31-9.32a4.06,4.06,0,0,0-.56.07,1.43,1.43,0,0,0-1.21,1.28,1.41,1.41,0,0,0,1.08,1.55,2.28,2.28,0,0,0,1.13,0,1.44,1.44,0,0,0,1.18-1.27,1.39,1.39,0,0,0-1-1.52A3.83,3.83,0,0,0,14.43,7.42Zm6.3,1.77c.29,0,.56,0,.82,0a2.74,2.74,0,0,1,.5.08V8.54c-.43.22-.88.06-1.31.12V8h1.32c.23,0,.47-.07.67.15V7.41a4.64,4.64,0,0,1-.48.07H19.86a1,1,0,0,1,.17.7c0,.45,0,.91,0,1.36,0,.26.11.56-.22.8h2.49a5.06,5.06,0,0,1,.52.08V9.72a2.26,2.26,0,0,1-.42.09H20.73ZM10.22,16.61l0,0h1.16c-.27-.18-.21-.4-.21-.6s0-.45,0-.68a.66.66,0,0,1,.12-.34,11.5,11.5,0,0,1,1.45-1.84H11.37c.08.12.28.17.15.34-.23.32-.46.64-.7,1l-.56-.8c-.11-.16-.33-.33,0-.54H8.86c.17.19.34.35.48.53s.34.51.55.73a1.89,1.89,0,0,1,.53,1.66C10.4,16.28,10.48,16.5,10.22,16.61Zm6-2.8,0,0c.24.13.19.35.19.54,0,.46,0,.92,0,1.38a.82.82,0,0,0,.69.85,2.89,2.89,0,0,0,1.57,0,.77.77,0,0,0,.63-.71c0-.43,0-.86,0-1.29,0-.27-.11-.57.2-.81h-1c.07.11.17.19.17.27,0,.54,0,1.09,0,1.63,0,.32-.29.46-.76.46s-.72-.15-.77-.47a1.23,1.23,0,0,1,0-.27,5.77,5.77,0,0,1,0-.72c0-.3-.12-.63.19-.9ZM12.4,10.45V9.69a2.57,2.57,0,0,1-.46.07H10C10,9,10,8.3,10,7.58c0-.24-.1-.51.21-.71H9.05l0,0c.28.12.2.35.2.56q0,1.11,0,2.22c0,.22.07.46-.23.65l.29,0H12A4,4,0,0,1,12.4,10.45Zm4.82-.12h1.24c-.17-.13-.26-.22-.17-.4.36-.71.7-1.42,1.06-2.14a1.89,1.89,0,0,1,.23-.28H18.44c.27.17.15.35.06.54l-.48,1-.17.35-.62-1.35c-.09-.19-.24-.38,0-.57H16.11a5.5,5.5,0,0,1,.31.48c.29.58.57,1.17.86,1.75C17.37,9.93,17.54,10.13,17.22,10.33ZM28.6,7a3.74,3.74,0,0,0-.36.25.21.21,0,0,0,0,.18,2.09,2.09,0,0,0,.74.79l.59-.89a1.79,1.79,0,0,0,.22-.38A2.22,2.22,0,0,0,29.54,5a.19.19,0,0,0-.14-.11,1.72,1.72,0,0,0-1,.44c.06.12.16.22.15.31a.68.68,0,0,1-.31.57.44.44,0,0,0-.11.57l.27-.14Zm.63,2.55c-.19-.1-.34-.2-.52,0s-.54.45-.78.7a5.17,5.17,0,0,0-1.12,1.92.38.38,0,0,0,0,.12,7,7,0,0,1,1.71-.66,5.32,5.32,0,0,0,.93-.45.19.19,0,0,0,.08-.16c-.07-.31-.15-.63-.23-1l-.33.44,0,0Zm-1.5,6.84c0,.1.05.19.07.28a3.12,3.12,0,0,1,.11,1.66,3.34,3.34,0,0,1-1,1.74,1.91,1.91,0,0,0-.44.66.48.48,0,0,0,.35.66v-.15a1.77,1.77,0,0,1,1-1.57,1.52,1.52,0,0,0,.89-1.81,10.17,10.17,0,0,0-.3-1.08s-.06-.07-.1-.09Zm.92-7.68-2,.08c-.37,0-.34,0-.42.37a.82.82,0,0,0,.25.81.93.93,0,0,1,.32,1c.12.1.17,0,.23-.06.26-.35.51-.7.79-1A3.08,3.08,0,0,0,28.65,8.68ZM6.05,6.87a3.31,3.31,0,0,1,.09.48c0,.8,0,1.6,0,2.4,0,.2,0,.42-.22.58H7a3,3,0,0,1-.09-.47c0-.8,0-1.6,0-2.39,0-.21-.06-.43.22-.6ZM33.31,4.8l.32-.06a.54.54,0,0,1,.69.62,1.62,1.62,0,0,1-.45,1,.65.65,0,0,0-.13.75c.07.14.17.21.32.12a2.34,2.34,0,0,0,1-1A1.52,1.52,0,0,0,35.18,5a1.11,1.11,0,0,0-1.69-.47C33.42,4.56,33.39,4.66,33.31,4.8Zm.26,7.82a4.37,4.37,0,0,1-2.08,1.85,1.88,1.88,0,0,1,1.14,1.34A8.8,8.8,0,0,0,33.57,12.62Zm-5.23,3.7.3-1.27-1.71-.21A3.54,3.54,0,0,0,28.34,16.32Zm1.37-7a.46.46,0,0,0,.09.72c.45.39.85.43,1.14.11l-.63-.38C30.11,9.65,29.92,9.5,29.71,9.34ZM32.8,3.5a.56.56,0,0,0-.57-.32.36.36,0,0,0-.36.27Zm.83,6.81-.4.08.43.6Zm-3.51.33-.42-.24.12.44Z"/><path class="cls-4" d="M31.13,16.28a.54.54,0,0,1-.51.57.53.53,0,0,1-.49-.56.5.5,0,1,1,1,0Z"/><path class="cls-4" d="M31,6c0,.27-.2.53-.39.53s-.22-.13-.23-.28.2-.5.4-.49S31,5.86,31,6Z"/><path class="cls-4" d="M32.67,11.64a.6.6,0,0,1-.54.62.4.4,0,0,1-.37-.45.6.6,0,0,1,.54-.62A.4.4,0,0,1,32.67,11.64Z"/><path class="cls-4" d="M14.16,16.17a.94.94,0,1,1,1-.93A.92.92,0,0,1,14.16,16.17Z"/><path class="cls-4" d="M15.33,8.93a1,1,0,1,1-1-.95A.91.91,0,0,1,15.33,8.93Z"/></g></g></svg>