<svg xmlns="http://www.w3.org/2000/svg" viewBox="0 0 38.55 24.66"><defs><style>.cls-1{isolation:isolate;}.cls-2{opacity:0.15;}.cls-2,.cls-3{mix-blend-mode:multiply;}.cls-4{fill:#fff;}</style></defs><title>convert-FIX-SVG-03</title><g class="cls-1"><g id="Layer_1" data-name="Layer 1"><g class="cls-2"><path d="M4.78,13.3a7.85,7.85,0,0,1-.38-1.09,2.58,2.58,0,0,1,.27-1.76,4.88,4.88,0,0,1,.9-1.22A.59.59,0,0,0,5.72,9,1.25,1.25,0,0,1,6.62,8a.66.66,0,0,1,.65.53v.16l.52.14A2.63,2.63,0,0,1,9.35,10c0,.07.13.1.19.16a6,6,0,0,1,.76.66.92.92,0,0,1,.14,1,2.25,2.25,0,0,1-.72,1.13l1.88-.39-.82-5-2.66.44L7.34,3.23l1-.17,2.5-.41H13.4L14.11,7l-2.79.46c0,.42.1.81.16,1.21.16,1.19.33,2.37.49,3.56,0,.13,0,.25,0,.38a.26.26,0,0,0,.07.14c.44.17.43.55.42.92a.53.53,0,0,1-.07.31c-.25.36-.12.74-.07,1.12s0,.3-.28.43L12,14.72l-1.8,1a3.68,3.68,0,0,1-.1,2.47.54.54,0,0,0,.73-.13,1.4,1.4,0,0,1,1.08-.58,1,1,0,0,1,1,1.06,5.32,5.32,0,0,1-.35,2.09,1,1,0,0,1-1,.62,5.55,5.55,0,0,1-.89-.16C10,21,9.45,20.9,8.89,20.78a12,12,0,0,1-1.16-.36c-.1,0-.2-.13-.3,0s-.18.27-.1.44a2.83,2.83,0,0,1,.21.55,1.28,1.28,0,0,1-.8,1.52,1.43,1.43,0,0,1-.89-.07,3.5,3.5,0,0,1-1.42-1,1.2,1.2,0,0,1-.18-1.2,4.4,4.4,0,0,1,1-1.56l.16-.18a4.43,4.43,0,0,1-.43-2.6,2.16,2.16,0,0,1-.23.08c-.62.16-1.24.33-1.86.46a1.35,1.35,0,0,1-.89-.2.75.75,0,0,1-.41-1,2,2,0,0,1,.51-.71A9,9,0,0,1,4.78,13.3Zm1.9-3.14a1.17,1.17,0,0,0,.16-.85A1.1,1.1,0,0,1,7,8.62c.1-.18-.1-.21-.2-.28s-.16,0-.17.1A2.49,2.49,0,0,0,6.5,9c0,.37.12.75.18,1.12l.09.2c-.26.13-.35.12-.49-.08s-.36-.53-.55-.8a3.65,3.65,0,0,0-1,1.49A2.33,2.33,0,0,0,5,13.05c0,.06.12.13.17.12L6.54,13a4.94,4.94,0,0,1,0-2.4l.23,0c0,.09,0,.16,0,.23,0,.47-.07.95-.07,1.43a2.47,2.47,0,0,0,.16.65.41.41,0,0,0,.22.16l.77.21a.36.36,0,0,0,.14,0l1.28-.55c-.06-.19-.12-.35-.16-.51a5.14,5.14,0,0,1,0-1.75s0-.11,0-.12.05-.13,0-.19A2.58,2.58,0,0,0,7.22,9L7,10.23ZM5.54,15.94V16h1.7a1,1,0,0,0,1-.77c.31-1.1,0-1.65-1.09-1.85a3.87,3.87,0,0,0-1.76,0,8.34,8.34,0,0,0-3.24,1.73,1.58,1.58,0,0,0-.38.59A.44.44,0,0,0,2,16.3a1.29,1.29,0,0,0,1,.25c.4-.08.79-.16,1.18-.26a5.13,5.13,0,0,0,1.57-.78l.16.22ZM12.39,18a.64.64,0,0,0-.89-.21,1.92,1.92,0,0,0-.5.4.88.88,0,0,1-.92.28l-.82-.2a7,7,0,0,0-2-.28.7.7,0,0,0-.74.64,1.11,1.11,0,0,0,.69,1.27,11.47,11.47,0,0,0,1.71.58c.72.18,1.45.31,2.18.42a2.73,2.73,0,0,0,.8-.09c.06,0,.13-.13.14-.2.07-.68.13-1.36.21-2C12.29,18.41,12.35,18.23,12.39,18ZM8.74,13.9H8.67a.45.45,0,0,0-.07.18,8.26,8.26,0,0,1,0,.86,1.36,1.36,0,0,1-1.2,1.33,5.87,5.87,0,0,1-.84,0H5.24a3.72,3.72,0,0,0,.43,2.56,4.4,4.4,0,0,0,.58.56l.06-.05a1,1,0,0,1,0-.18c-.1-.69.07-1.42,1.13-1.44h.21c.57.1,1.15.19,1.72.3s.48.11.61-.39a3.56,3.56,0,0,0,0-1.59,6.94,6.94,0,0,0-.54-1.65l-.23.22A2.07,2.07,0,0,1,9,14.37C8.91,14.22,8.82,14.06,8.74,13.9ZM5.53,19.13a4,4,0,0,0-1,1.66.86.86,0,0,0,.12.82,3.06,3.06,0,0,0,1.5,1.05.84.84,0,0,0,1.1-.56,1.18,1.18,0,0,0-.11-1.05.6.6,0,0,1,0-.67,1.3,1.3,0,0,1,.06-.12,3.76,3.76,0,0,0-.67-.5A2.58,2.58,0,0,1,5.53,19.13Zm5.72-4.3a1.39,1.39,0,0,1-.78-1.76l-1.22.24c.15.36.3.69.43,1s.27.67.41,1Zm0-8.39a2.16,2.16,0,0,1-.12-.39c-.09-.63-.17-1.26-.24-1.88a3.49,3.49,0,0,1,0-.46l-.74.09a2.45,2.45,0,0,1,.13.38c.07.54.14,1.08.2,1.61,0,.24,0,.49.05.75ZM9.55,12.65a1.54,1.54,0,0,0,.57-.82,1.43,1.43,0,0,0-.06-.49c0-.05,0-.1,0-.16a.83.83,0,0,0-.67-.76A4.06,4.06,0,0,0,9.55,12.65Zm-3.35-4a.81.81,0,0,0,.08,1.16Zm2.3,4.75-.29.13c.13.08.18.32.38.11Z"/><path d="M33.46,8l-2.65.41L30.08,3.7l6-.93.73,4.72-2.73.42c.1.5.2,1,.3,1.46.22,1,.44,2.08.67,3.12a.4.4,0,0,0,.18.24c.36.19.34.52.35.85a.46.46,0,0,1,0,.23,1.35,1.35,0,0,0,0,1.06l-.37.14c0-.13-.08-.25-.11-.36h0a6,6,0,0,1-1.65.93c-.15.06-.16.13-.13.27a3.62,3.62,0,0,1-.14,2.32.52.52,0,0,0,.72-.13,1.52,1.52,0,0,1,.93-.57,1,1,0,0,1,1.12.83,4.36,4.36,0,0,1-.35,2.39,1,1,0,0,1-1,.54,2.28,2.28,0,0,1-.52,0c-.52-.09-1-.18-1.55-.3s-1.14-.31-1.71-.47c-.1,0-.2-.11-.3,0s-.17.25-.09.42a3.37,3.37,0,0,1,.23.65,1.27,1.27,0,0,1-.82,1.43,1.39,1.39,0,0,1-.9-.08,3.57,3.57,0,0,1-1.42-1,1.23,1.23,0,0,1-.15-1.24,4.2,4.2,0,0,1,1-1.54.22.22,0,0,0,0-.31A3.39,3.39,0,0,1,28,17.26c0-.31,0-.63,0-.92l-1.57.42A1.84,1.84,0,0,1,25,16.59a.77.77,0,0,1-.37-.91,1.61,1.61,0,0,1,.55-.83,10.14,10.14,0,0,1,2.76-1.56l-.06-.13a2.72,2.72,0,0,1-.08-2.73,4.78,4.78,0,0,1,.9-1.2A.57.57,0,0,0,28.79,9,1.23,1.23,0,0,1,29.71,8a.63.63,0,0,1,.63.68c.29.09.59.17.88.29a2.42,2.42,0,0,1,1.2,1,.55.55,0,0,0,.22.18,1.63,1.63,0,0,1,.89,1,1.14,1.14,0,0,1,0,.52A2.52,2.52,0,0,1,32.79,13c.29-.08.57-.18.86-.24s.6-.1.92-.15Zm-3.62,2.58a6.74,6.74,0,0,0-.09,1,7.09,7.09,0,0,0,.12,1.21.43.43,0,0,0,.24.27c.26.1.54.15.81.23a.26.26,0,0,0,.12,0l1.29-.56a1.7,1.7,0,0,1-.15-.43c0-.52,0-1-.06-1.54a.55.55,0,0,1,.05-.37c.1-.12,0-.19,0-.28a2.44,2.44,0,0,0-1.45-1c-.44-.13-.46-.11-.49.35,0,.26-.09.52-.13.8l-.24-.11a4.78,4.78,0,0,0,.07-.82A1.17,1.17,0,0,1,30,8.62c.11-.18-.1-.21-.2-.28s-.16.06-.17.1a3.19,3.19,0,0,0-.08.75c.05.4.15.79.23,1.19a.33.33,0,0,1-.48-.12c-.18-.25-.35-.51-.52-.78a3.93,3.93,0,0,0-1,1.47,2.36,2.36,0,0,0,.26,2.11s.12.12.17.11l1.34-.2a5.29,5.29,0,0,1,0-2.41Zm-1.22,5.35,0,0,1.5,0a1.1,1.1,0,0,0,1.26-1,1.17,1.17,0,0,0-1-1.58,4.07,4.07,0,0,0-1.77,0,8.22,8.22,0,0,0-3.44,1.78,1.5,1.5,0,0,0-.36.55.45.45,0,0,0,.16.6,1.32,1.32,0,0,0,1,.25,5.9,5.9,0,0,0,2.75-1l.16.22ZM35.46,18a.62.62,0,0,0-.81-.23,2,2,0,0,0-.57.42.87.87,0,0,1-.91.29l-.84-.2a6.88,6.88,0,0,0-2-.28.72.72,0,0,0-.76.63,1.12,1.12,0,0,0,.7,1.28A11.47,11.47,0,0,0,32,20.5c.72.18,1.45.31,2.18.42a2.73,2.73,0,0,0,.8-.09.23.23,0,0,0,.14-.16c.06-.65.11-1.29.18-1.94A6.42,6.42,0,0,1,35.46,18Zm-6.08,1.36c0-.12,0-.21-.05-.3a1.06,1.06,0,0,1,1.1-1.35h.28l1.68.3c.5.09.51.1.63-.39a.09.09,0,0,0,0-.05,5.54,5.54,0,0,0-.56-3.22l0,.05-.19.2a1.4,1.4,0,0,1-.16-.2c-.08-.13-.14-.28-.22-.41s-.09-.05-.14-.08,0,.11,0,.16a6.53,6.53,0,0,1,0,1,1.26,1.26,0,0,1-1.1,1.17,11.11,11.11,0,0,1-1.29,0h-1c0,.18,0,.33,0,.48a4,4,0,0,0,.31,1.8A1.66,1.66,0,0,0,29.38,19.37Zm.88.9a3.28,3.28,0,0,0-.66-.5,2.68,2.68,0,0,1-1-.64,4.25,4.25,0,0,0-1,1.58.92.92,0,0,0,.1.91,3,3,0,0,0,1.51,1,.82.82,0,0,0,1.09-.56,1,1,0,0,0-.07-1A.7.7,0,0,1,30.26,20.27ZM31.78,4.65a4.59,4.59,0,0,1,.14.45c.08.45.14.91.22,1.36a.84.84,0,0,0,.88.79,3.07,3.07,0,0,0,1.24-.19.83.83,0,0,0,.6-1c-.07-.49-.15-1-.22-1.48a2.38,2.38,0,0,1,0-.37l-.71.11a2.11,2.11,0,0,1,.13.34c.07.4.11.81.2,1.21.12.59-.11.77-.65.88a1.45,1.45,0,0,1-.36,0,.48.48,0,0,1-.53-.46q-.12-.66-.21-1.32a3.23,3.23,0,0,1,0-.44Zm.56,8.66.83,2.06,1.14-.54a1.39,1.39,0,0,1-.76-1.76Zm.11-3a5.42,5.42,0,0,0,0,1.7c0,.2.12.4.19.63a1.44,1.44,0,0,0,.6-.94,1.57,1.57,0,0,0-.18-.89C32.93,10.66,32.67,10.53,32.45,10.35ZM29.36,9.8l-.09-1.18C29,8.83,29,9.4,29.36,9.8Zm1.94,3.69c.21.26.21.26.36.1l-.1-.21Z"/><path d="M23.06,15.8l0-.82-1.41.68a3.92,3.92,0,0,1-.1,2.51.54.54,0,0,0,.72-.14,1.53,1.53,0,0,1,.85-.56,1,1,0,0,1,1.22.93A4.94,4.94,0,0,1,24,20.62a1,1,0,0,1-1,.6,2.28,2.28,0,0,1-.58,0c-.49-.09-1-.21-1.47-.28a7.93,7.93,0,0,1-1.75-.47c-.1,0-.2-.12-.3,0a.42.42,0,0,0-.09.45,4.57,4.57,0,0,1,.24.74,1.2,1.2,0,0,1-.86,1.31,1.71,1.71,0,0,1-.84-.07,3.24,3.24,0,0,1-1.44-1,1.21,1.21,0,0,1-.2-1.16,4,4,0,0,1,1-1.63c.1-.12.13-.19,0-.34a4.18,4.18,0,0,1-.37-2.06c0-.11,0-.22,0-.37l-.23.09c-.61.15-1.22.32-1.84.44a1.29,1.29,0,0,1-.93-.21.77.77,0,0,1-.4-1,1.67,1.67,0,0,1,.57-.79,10,10,0,0,1,2.6-1.48l.09-.05c-.12-.31-.27-.61-.36-.93a2.58,2.58,0,0,1,.32-2,12.93,12.93,0,0,1,.84-1.11A.7.7,0,0,0,17.26,9,1.21,1.21,0,0,1,18.17,8a.62.62,0,0,1,.62.69l.4.1a2.68,2.68,0,0,1,1.7,1.2c0,.06.12.09.18.14a5.78,5.78,0,0,1,.71.58A1,1,0,0,1,22,11.83a2.26,2.26,0,0,1-.71,1.09,6.31,6.31,0,0,1,2-.29l.21-3.54-2.79-.32L21.19,4l6,.67L26.7,9.44l-2.82-.31c0,.54-.09,1-.13,1.57s-.09,1.19-.15,1.79a.25.25,0,0,0,.12.27.75.75,0,0,1,.29.39,1.32,1.32,0,0,1-.39,1.35.63.63,0,0,0-.22.5c0,.18,0,.36,0,.54S23.27,15.81,23.06,15.8ZM18.75,9.05l-.2,1.2-.21-.08c0-.38,0-.72,0-1.06a1.21,1.21,0,0,1,.12-.46c.11-.22-.08-.24-.18-.31s-.19,0-.2.13a3.9,3.9,0,0,0-.05.83,9.66,9.66,0,0,0,.22,1.07c-.23.12-.31.11-.46-.09s-.37-.53-.55-.79a3.57,3.57,0,0,0-1,1.66,2.29,2.29,0,0,0,.32,1.92.22.22,0,0,0,.17.1l1.34-.2a4.91,4.91,0,0,1,0-2.41l.24,0c0,.51-.08,1-.07,1.48a2.77,2.77,0,0,0,.16.8.47.47,0,0,0,.24.19l.75.21a.36.36,0,0,0,.14,0l1.31-.56a2.45,2.45,0,0,1-.26-1.26c0-.34,0-.68.06-1,0-.08.08-.18.05-.24A2.39,2.39,0,0,0,18.75,9.05Zm-1.67,6.89,0,0h1.79a.83.83,0,0,0,.76-.46,2.2,2.2,0,0,0,.23-.74,1,1,0,0,0-.35-1.08,1.81,1.81,0,0,0-.52-.26,4.11,4.11,0,0,0-2.09,0,8.37,8.37,0,0,0-3.22,1.72,1.72,1.72,0,0,0-.39.64.41.41,0,0,0,.18.52,1.25,1.25,0,0,0,.87.26,6.05,6.05,0,0,0,2.6-.88l.25-.16.16.21ZM23.93,18a.66.66,0,0,0-.94-.19,1.91,1.91,0,0,0-.46.39.87.87,0,0,1-.88.28l-.86-.22a7.24,7.24,0,0,0-2-.27.72.72,0,0,0-.77.75,1.09,1.09,0,0,0,.71,1.16,13.71,13.71,0,0,0,1.74.59c.7.17,1.43.3,2.15.41a2.31,2.31,0,0,0,.78-.08.29.29,0,0,0,.16-.21c.08-.68.13-1.37.2-2.05C23.82,18.41,23.88,18.24,23.93,18ZM20.28,13.9h-.07a.71.71,0,0,0-.08.18c0,.3,0,.62,0,.92a1.35,1.35,0,0,1-1.48,1.28h-1.9A4.34,4.34,0,0,0,17,18.5a1.66,1.66,0,0,0,.84.87,1.91,1.91,0,0,1,0-.21,1.08,1.08,0,0,1,1.12-1.44h.26c.57.1,1.15.19,1.72.31s.43.1.55-.34a3.68,3.68,0,0,0-.07-2c-.12-.44-.28-.87-.43-1.31l-.25.23c-.06-.08-.13-.15-.18-.23S20.36,14.06,20.28,13.9ZM24,5.72a.41.41,0,0,0-.1-.11,1,1,0,0,0-1-.26.89.89,0,0,0-.62.76,1.43,1.43,0,0,0,.2.95,4.39,4.39,0,0,0,1.14,1.32.32.32,0,0,0,.27,0c.36-.22.73-.43,1.06-.68a1.82,1.82,0,0,0,.72-1,.89.89,0,0,0-.9-1.15A3.82,3.82,0,0,0,24,5.72Zm-6.9,13.41a3.94,3.94,0,0,0-1,1.76.83.83,0,0,0,.15.73,3.07,3.07,0,0,0,1.48,1,.82.82,0,0,0,1.07-.43,1.11,1.11,0,0,0,0-1.06.71.71,0,0,1,0-.89,3.89,3.89,0,0,0-.68-.51A2.69,2.69,0,0,1,17.06,19.13Zm3.74-5.82.83,2.06,1.07-.5a8,8,0,0,1-.66-.8,1.16,1.16,0,0,1,0-1Zm.29-.65a1.85,1.85,0,0,0,.6-.93s0-.09,0-.14L21.55,11a.2.2,0,0,0-.06-.13c-.17-.15-.36-.3-.54-.44l-.06,0A3.89,3.89,0,0,0,21.09,12.66ZM17.76,8.6c-.38.28-.23.93.08,1.21,0-.19-.06-.39-.08-.59S17.76,8.81,17.76,8.6Zm2,4.88c.2.26.2.26.35.11L20,13.38Z"/><path d="M7.35,14.12a.46.46,0,0,1,.51.43.49.49,0,0,1-.5.44.46.46,0,0,1-.49-.43A.45.45,0,0,1,7.35,14.12Z"/><path d="M8.78,10.61s0,0,0,0-.11.19-.17.29a1.1,1.1,0,0,1-.18-.26,1,1,0,0,1,0-.35c0-.05,0-.13.07-.14a.17.17,0,0,1,.14.05,4.05,4.05,0,0,1,.21.35Z"/><path d="M7.37,18.77a.48.48,0,0,1,.5.44.33.33,0,0,1-.34.33A.48.48,0,0,1,7,19.11.33.33,0,0,1,7.37,18.77Z"/><path d="M31.85,10.61a.15.15,0,0,1,0,.07l-.14.26c-.06-.08-.16-.15-.19-.24a1,1,0,0,1,0-.38c0-.14.09-.2.2-.09a2.16,2.16,0,0,1,.22.36Z"/><path d="M30.42,14.12a.47.47,0,0,1,.51.43.5.5,0,0,1-1,0A.45.45,0,0,1,30.42,14.12Z"/><path d="M30.58,19.54a.47.47,0,0,1-.48-.43.32.32,0,0,1,.35-.34.49.49,0,0,1,.5.44A.34.34,0,0,1,30.58,19.54Z"/><path d="M19.91,10.42l.09-.24c.08.05.21.09.23.15a2.07,2.07,0,0,1,0,.5s-.07.1-.11.1a.16.16,0,0,1-.13-.09C20,10.71,20,10.56,19.91,10.42Z"/><path d="M18.9,14.12a.46.46,0,0,1,.49.44.47.47,0,0,1-.49.43.46.46,0,0,1-.49-.44A.44.44,0,0,1,18.9,14.12Z"/><path d="M18.93,18.77a.49.49,0,0,1,.48.44.33.33,0,0,1-.36.33.5.5,0,0,1-.5-.45A.34.34,0,0,1,18.93,18.77Z"/><path d="M5,13.5a9.34,9.34,0,0,1-.37-1.09,2.58,2.58,0,0,1,.27-1.76,4.64,4.64,0,0,1,.9-1.22.59.59,0,0,0,.15-.28,1.24,1.24,0,0,1,.9-.92.65.65,0,0,1,.65.53,1,1,0,0,1,0,.16L8,9.06a2.63,2.63,0,0,1,1.56,1.15c0,.07.13.1.19.15a6.92,6.92,0,0,1,.76.66.94.94,0,0,1,.14,1,2.32,2.32,0,0,1-.72,1.13l1.88-.39L11,7.7l-2.66.43-.79-4.7,1-.17L11,2.85H13.6l.71,4.31-2.79.46c.05.42.1.81.16,1.21.16,1.19.32,2.37.49,3.56,0,.12,0,.25.05.38a.26.26,0,0,0,.07.14c.44.17.43.55.42.92a.55.55,0,0,1-.07.31c-.25.36-.12.74-.08,1.11s0,.31-.27.44l-.14-.76-1.8,1a3.69,3.69,0,0,1-.1,2.47.53.53,0,0,0,.73-.14,1.39,1.39,0,0,1,1.08-.57,1,1,0,0,1,1,1.06,5.13,5.13,0,0,1-.34,2.09,1,1,0,0,1-1,.62,5.36,5.36,0,0,1-.89-.16c-.56-.09-1.13-.16-1.69-.28a12.14,12.14,0,0,1-1.17-.36c-.09,0-.19-.13-.29,0a.39.39,0,0,0-.1.44,3.66,3.66,0,0,1,.21.55,1.29,1.29,0,0,1-.8,1.52,1.51,1.51,0,0,1-.89-.07,3.43,3.43,0,0,1-1.42-1,1.18,1.18,0,0,1-.18-1.2,4.26,4.26,0,0,1,1-1.56l.16-.18a4.43,4.43,0,0,1-.43-2.6l-.23.08c-.62.16-1.24.32-1.86.45a1.29,1.29,0,0,1-.89-.19.75.75,0,0,1-.41-1,1.82,1.82,0,0,1,.51-.71A9.09,9.09,0,0,1,5,13.5Zm1.91-3.14A1.17,1.17,0,0,0,7,9.51a1.1,1.1,0,0,1,.12-.69c.1-.18-.1-.21-.2-.28s-.16,0-.18.1a3.09,3.09,0,0,0-.08.6c0,.37.12.75.18,1.12l.09.2c-.26.13-.35.12-.49-.08s-.36-.53-.55-.8a3.78,3.78,0,0,0-1,1.49,2.36,2.36,0,0,0,.26,2.08c0,.06.12.13.17.12l1.34-.2a5.05,5.05,0,0,1,0-2.4l.23,0c0,.09,0,.15,0,.22,0,.48-.07,1-.07,1.44A2.14,2.14,0,0,0,7,13.1a.35.35,0,0,0,.22.15c.25.09.51.15.77.22.05,0,.1,0,.14,0l1.28-.55c-.06-.18-.12-.34-.16-.5a5.14,5.14,0,0,1,0-1.75s0-.11,0-.12,0-.13,0-.2A2.6,2.6,0,0,0,7.42,9.21l-.2,1.22ZM5.74,16.14v.05H7.44a1,1,0,0,0,1-.77c.31-1.1,0-1.65-1.09-1.86a4,4,0,0,0-1.76,0,8.34,8.34,0,0,0-3.24,1.73,1.6,1.6,0,0,0-.39.59.43.43,0,0,0,.16.56,1.29,1.29,0,0,0,1,.26c.39-.08.79-.16,1.17-.26a5.07,5.07,0,0,0,1.58-.78l.16.22Zm6.85,2.08A.64.64,0,0,0,11.7,18a2,2,0,0,0-.51.4.86.86,0,0,1-.91.28l-.82-.2a6.63,6.63,0,0,0-2-.28.69.69,0,0,0-.74.64,1.12,1.12,0,0,0,.69,1.27,11.47,11.47,0,0,0,1.71.58,19.76,19.76,0,0,0,2.17.41,2.51,2.51,0,0,0,.81-.08c.06,0,.13-.13.14-.2.07-.68.13-1.36.2-2A5,5,0,0,1,12.59,18.22ZM8.94,14.09H8.87a.56.56,0,0,0-.07.19,8.26,8.26,0,0,1,0,.86,1.36,1.36,0,0,1-1.2,1.33,7.82,7.82,0,0,1-.84,0H5.44A3.72,3.72,0,0,0,5.87,19a5.14,5.14,0,0,0,.58.56l0-.05,0-.18c-.1-.69.07-1.42,1.13-1.44a1.47,1.47,0,0,1,.21,0c.57.1,1.15.18,1.72.3s.48.1.61-.39a3.56,3.56,0,0,0,0-1.59,6.79,6.79,0,0,0-.54-1.65l-.23.22a1.31,1.31,0,0,1-.17-.24A4.45,4.45,0,0,1,8.94,14.09ZM5.73,19.32A4.13,4.13,0,0,0,4.7,21a.86.86,0,0,0,.12.82,3.06,3.06,0,0,0,1.5,1.05.84.84,0,0,0,1.1-.56,1.18,1.18,0,0,0-.11-1.05.59.59,0,0,1,0-.67l.06-.12a3.76,3.76,0,0,0-.67-.5A2.49,2.49,0,0,1,5.73,19.32ZM11.44,15a1.39,1.39,0,0,1-.77-1.76l-1.22.24.43,1c.14.34.27.68.41,1Zm0-8.39a1.58,1.58,0,0,1-.12-.39C11.2,5.62,11.12,5,11,4.36c0-.14,0-.29,0-.46L10.3,4a1.65,1.65,0,0,1,.12.38c.08.54.15,1.07.21,1.61,0,.24,0,.48,0,.74ZM9.75,12.85a1.48,1.48,0,0,0,.56-.82,1.22,1.22,0,0,0-.06-.49s0-.11,0-.16a.83.83,0,0,0-.67-.76A4.06,4.06,0,0,0,9.75,12.85Zm-3.35-4A.82.82,0,0,0,6.47,10Zm2.3,4.75-.29.13c.13.08.18.32.38.11Z"/><path d="M33.66,8.21,31,8.61,30.28,3.9l6-.93L37,7.69l-2.73.42c.1.5.2,1,.3,1.46.22,1,.44,2.08.67,3.11a.42.42,0,0,0,.18.25c.36.19.34.52.35.85a.53.53,0,0,1,0,.22,1.33,1.33,0,0,0,0,1.07l-.38.14c0-.13-.07-.25-.1-.36h0a6.25,6.25,0,0,1-1.65.93c-.15.06-.17.13-.14.27a3.55,3.55,0,0,1-.13,2.32.52.52,0,0,0,.72-.13,1.48,1.48,0,0,1,.93-.57,1,1,0,0,1,1.12.83,4.36,4.36,0,0,1-.35,2.39,1,1,0,0,1-1,.54,2.28,2.28,0,0,1-.52,0c-.52-.1-1-.18-1.55-.31s-1.14-.3-1.71-.46c-.11,0-.21-.11-.3,0a.41.41,0,0,0-.1.42,3.19,3.19,0,0,1,.24.65A1.28,1.28,0,0,1,30,23.14a1.44,1.44,0,0,1-.89-.08,3.57,3.57,0,0,1-1.42-1,1.23,1.23,0,0,1-.15-1.24,4.19,4.19,0,0,1,1-1.55.21.21,0,0,0,0-.3,3.43,3.43,0,0,1-.36-1.47c0-.31,0-.63,0-.92L26.62,17a1.84,1.84,0,0,1-1.47-.17.78.78,0,0,1-.38-.91,1.53,1.53,0,0,1,.56-.83,9.89,9.89,0,0,1,2.76-1.56c0-.05,0-.09-.07-.13A2.74,2.74,0,0,1,28,10.63a5,5,0,0,1,.89-1.2A.51.51,0,0,0,29,9.15a1.26,1.26,0,0,1,.92-.93.64.64,0,0,1,.63.69c.29.09.59.17.88.29a2.42,2.42,0,0,1,1.2,1,.56.56,0,0,0,.22.18,1.66,1.66,0,0,1,.89,1,1.1,1.1,0,0,1,0,.51A2.51,2.51,0,0,1,33,13.16c.28-.08.57-.18.86-.24s.59-.1.92-.16ZM30,10.79a6.74,6.74,0,0,0-.09,1A8.25,8.25,0,0,0,30.06,13a.47.47,0,0,0,.25.27,7.44,7.44,0,0,0,.81.22.27.27,0,0,0,.12,0l1.29-.56a1.76,1.76,0,0,1-.15-.44q0-.76-.06-1.53a.55.55,0,0,1,0-.37c.1-.12,0-.19,0-.28a2.39,2.39,0,0,0-1.44-1c-.44-.13-.46-.11-.5.35,0,.26-.08.52-.13.8L30,10.35a4.83,4.83,0,0,0,.08-.82,1.15,1.15,0,0,1,.11-.71c.1-.18-.1-.22-.2-.28s-.16.05-.17.1a3.11,3.11,0,0,0-.08.74,12.1,12.1,0,0,0,.23,1.2.33.33,0,0,1-.48-.12c-.18-.25-.35-.52-.53-.79a3.87,3.87,0,0,0-1,1.48,2.3,2.3,0,0,0,.26,2.1c0,.06.12.13.17.12l1.34-.2a5.16,5.16,0,0,1,0-2.41Zm-1.22,5.35,0,0,1.5,0a1.1,1.1,0,0,0,1.26-1,1.17,1.17,0,0,0-1-1.58,4.07,4.07,0,0,0-1.77,0,8,8,0,0,0-3.44,1.78,1.39,1.39,0,0,0-.36.55.45.45,0,0,0,.16.6,1.32,1.32,0,0,0,1,.25,5.86,5.86,0,0,0,2.74-1l.17.22Zm6.83,2.06a.62.62,0,0,0-.8-.22,2,2,0,0,0-.57.42.87.87,0,0,1-.91.29l-.84-.21a7.24,7.24,0,0,0-2-.27.7.7,0,0,0-.76.62,1.13,1.13,0,0,0,.7,1.29,11.47,11.47,0,0,0,1.71.58c.72.18,1.45.31,2.18.42a2.74,2.74,0,0,0,.8-.1c.06,0,.13-.09.14-.15.06-.65.11-1.29.18-1.94C35.54,18.71,35.6,18.49,35.65,18.2Zm-6.07,1.36c0-.11,0-.2,0-.29a1.06,1.06,0,0,1,1.1-1.35,2.62,2.62,0,0,1,.28,0c.56.09,1.12.18,1.68.29s.51.1.63-.39a.08.08,0,0,1,0,0,5.54,5.54,0,0,0-.56-3.22l-.05,0-.18.2a1.4,1.4,0,0,1-.16-.2c-.08-.14-.14-.28-.22-.41s-.09,0-.14-.08a.49.49,0,0,0-.05.16,8.18,8.18,0,0,1,0,1,1.27,1.27,0,0,1-1.1,1.17,9.26,9.26,0,0,1-1.29,0h-1c0,.19,0,.34,0,.49a4,4,0,0,0,.31,1.8A1.6,1.6,0,0,0,29.58,19.56Zm.88.91a3.28,3.28,0,0,0-.66-.5,2.72,2.72,0,0,1-1-.64,4.23,4.23,0,0,0-1,1.58.92.92,0,0,0,.1.91,3,3,0,0,0,1.51,1,.83.83,0,0,0,1.09-.56,1,1,0,0,0-.07-1A.7.7,0,0,1,30.46,20.47ZM32,4.85a4.59,4.59,0,0,1,.14.45c.08.45.14.9.22,1.36a.83.83,0,0,0,.88.79,2.92,2.92,0,0,0,1.24-.2.82.82,0,0,0,.6-1c-.07-.5-.16-1-.22-1.48a1.54,1.54,0,0,1,0-.37l-.72.11a1.53,1.53,0,0,1,.14.34c.07.4.11.81.19,1.21.13.59-.1.77-.64.87a1.09,1.09,0,0,1-.36,0,.48.48,0,0,1-.53-.47c-.08-.43-.15-.87-.21-1.31a3.16,3.16,0,0,1,0-.44Zm.55,8.66.84,2.06L34.51,15a1.39,1.39,0,0,1-.76-1.76Zm.12-3a5.49,5.49,0,0,0,0,1.71c0,.2.12.39.19.62a1.39,1.39,0,0,0,.6-.93,1.66,1.66,0,0,0-.18-.89C33.13,10.85,32.87,10.73,32.65,10.54ZM29.55,10l-.08-1.18C29.18,9,29.21,9.6,29.55,10Zm1.95,3.69c.21.25.21.25.36.1l-.1-.21Z"/><path d="M23.26,16l0-.82-1.41.69a3.83,3.83,0,0,1-.11,2.5.53.53,0,0,0,.73-.14,1.56,1.56,0,0,1,.85-.55,1,1,0,0,1,1.22.93,4.94,4.94,0,0,1-.35,2.22,1,1,0,0,1-1,.6,2.84,2.84,0,0,1-.58-.05c-.5-.09-1-.21-1.47-.28a7.93,7.93,0,0,1-1.75-.47c-.1,0-.2-.12-.3,0a.44.44,0,0,0-.1.45,3.94,3.94,0,0,1,.25.73,1.21,1.21,0,0,1-.86,1.32,1.76,1.76,0,0,1-.85-.07,3.21,3.21,0,0,1-1.43-1,1.16,1.16,0,0,1-.2-1.15,3.92,3.92,0,0,1,1-1.63c.1-.12.13-.2.05-.34a4.18,4.18,0,0,1-.37-2.06c0-.11,0-.23,0-.37l-.23.09c-.62.15-1.23.32-1.84.44a1.38,1.38,0,0,1-.94-.21.78.78,0,0,1-.39-1,1.56,1.56,0,0,1,.57-.79,10,10,0,0,1,2.6-1.49l.09,0c-.12-.32-.27-.61-.36-.93a2.58,2.58,0,0,1,.32-2,12.93,12.93,0,0,1,.84-1.11.78.78,0,0,0,.14-.27,1.23,1.23,0,0,1,.91-.93.63.63,0,0,1,.62.7l.4.1a2.7,2.7,0,0,1,1.7,1.19.9.9,0,0,0,.18.15,5.78,5.78,0,0,1,.71.58A1,1,0,0,1,22.16,12a2.3,2.3,0,0,1-.71,1.09,6.62,6.62,0,0,1,2-.3l.21-3.54L20.86,9l.53-4.74,6,.67L26.9,9.64l-2.82-.31c0,.54-.09,1.05-.13,1.56s-.09,1.2-.15,1.8a.25.25,0,0,0,.12.27.75.75,0,0,1,.29.39,1.32,1.32,0,0,1-.39,1.35.65.65,0,0,0-.23.49c0,.19,0,.37,0,.55S23.46,16,23.26,16ZM19,9.24l-.2,1.21-.21-.08c0-.38,0-.72,0-1.06a1.21,1.21,0,0,1,.12-.46c.11-.22-.09-.24-.18-.31s-.19,0-.2.13a3.9,3.9,0,0,0,0,.83,8.13,8.13,0,0,0,.22,1.07c-.24.12-.32.11-.47-.09s-.36-.53-.54-.8a3.76,3.76,0,0,0-1,1.67,2.34,2.34,0,0,0,.33,1.92.22.22,0,0,0,.17.1l1.34-.2a4.91,4.91,0,0,1,0-2.41l.24,0c0,.51-.08,1-.08,1.48a3.17,3.17,0,0,0,.17.8c0,.08.15.15.24.19l.75.21a.36.36,0,0,0,.14,0L21,12.93a2.47,2.47,0,0,1-.26-1.26c0-.34,0-.69.06-1,0-.08.07-.18.05-.24A2.44,2.44,0,0,0,19,9.24Zm-1.67,6.9,0,0c.59,0,1.19,0,1.79,0a.85.85,0,0,0,.76-.46,2.45,2.45,0,0,0,.23-.74,1,1,0,0,0-.35-1.08,1.74,1.74,0,0,0-.53-.26,4,4,0,0,0-2.09,0,8.33,8.33,0,0,0-3.21,1.72,1.72,1.72,0,0,0-.39.64.41.41,0,0,0,.18.52,1.25,1.25,0,0,0,.87.26,6.06,6.06,0,0,0,2.6-.89l.25-.16.16.22Zm6.85,2.08a.66.66,0,0,0-.94-.19,2.17,2.17,0,0,0-.47.39.83.83,0,0,1-.87.27c-.29-.06-.57-.14-.86-.21a7.24,7.24,0,0,0-2-.27.72.72,0,0,0-.77.75A1.11,1.11,0,0,0,19,20.12a13.06,13.06,0,0,0,1.73.59c.71.17,1.43.3,2.16.41a2.64,2.64,0,0,0,.78-.09c.07,0,.15-.13.16-.21.07-.68.13-1.36.2-2A3.67,3.67,0,0,1,24.13,18.22Zm-3.66-4.13h-.06a.48.48,0,0,0-.08.18c0,.31,0,.62,0,.93a1.35,1.35,0,0,1-1.48,1.28H17a4.3,4.3,0,0,0,.26,2.23,1.64,1.64,0,0,0,.84.88c0-.09,0-.15,0-.21a1.08,1.08,0,0,1,1.12-1.44,2.08,2.08,0,0,1,.25,0c.58.1,1.16.19,1.73.3s.43.1.55-.33a3.67,3.67,0,0,0-.07-2c-.12-.45-.28-.88-.43-1.31l-.25.23a2.15,2.15,0,0,1-.18-.24C20.64,14.42,20.56,14.25,20.47,14.09Zm3.69-8.18s-.05-.06-.1-.1a1,1,0,0,0-1-.26.91.91,0,0,0-.63.76,1.52,1.52,0,0,0,.21,1,4.39,4.39,0,0,0,1.14,1.32.32.32,0,0,0,.27,0,12,12,0,0,0,1.06-.69,1.79,1.79,0,0,0,.72-1,.89.89,0,0,0-.9-1.14A4.31,4.31,0,0,0,24.16,5.91Zm-6.9,13.42a3.94,3.94,0,0,0-1.05,1.76.83.83,0,0,0,.14.73,3.12,3.12,0,0,0,1.49,1,.8.8,0,0,0,1.06-.44,1,1,0,0,0,0-1.05.71.71,0,0,1,0-.89,4.31,4.31,0,0,0-.68-.51A2.61,2.61,0,0,1,17.26,19.33ZM21,13.51l.83,2.06,1.07-.5c-.23-.28-.48-.52-.67-.8a1.2,1.2,0,0,1,0-1Zm.29-.65a1.85,1.85,0,0,0,.6-.93s0-.09,0-.14c0-.21-.08-.42-.13-.63a.17.17,0,0,0,0-.13c-.18-.16-.36-.3-.54-.45l-.06,0A3.92,3.92,0,0,0,21.29,12.86ZM18,8.8c-.38.27-.23.93.08,1.21A5.59,5.59,0,0,1,18,9.42C18,9.21,18,9,18,8.8Zm2,4.88c.21.26.21.26.36.11l-.09-.21Z"/><path d="M7.55,14.31a.44.44,0,1,1-.49.45A.47.47,0,0,1,7.55,14.31Z"/><path d="M9,10.81s0,0,0,0-.11.19-.17.29a1.1,1.1,0,0,1-.18-.26,1,1,0,0,1,0-.35s0-.13.07-.14a.13.13,0,0,1,.14,0,4.05,4.05,0,0,1,.21.35Z"/><path d="M7.57,19a.48.48,0,0,1,.5.44.34.34,0,0,1-.34.33.49.49,0,0,1-.51-.44C7.21,19.11,7.35,19,7.57,19Z"/><path d="M32.05,10.81a.17.17,0,0,1,0,.07l-.14.26c-.06-.08-.16-.15-.19-.24a1,1,0,0,1,0-.38c0-.14.09-.2.2-.09a2.16,2.16,0,0,1,.22.36Z"/><path d="M30.62,14.31a.44.44,0,1,1,0,.88.5.5,0,0,1-.5-.43A.48.48,0,0,1,30.62,14.31Z"/><path d="M30.78,19.74a.47.47,0,0,1-.48-.44c0-.2.13-.32.35-.33a.49.49,0,0,1,.5.44A.34.34,0,0,1,30.78,19.74Z"/><path d="M20.11,10.62l.08-.24c.08,0,.22.08.23.15a1.67,1.67,0,0,1,0,.5s-.07.1-.1.1a.16.16,0,0,1-.13-.09C20.18,10.91,20.15,10.76,20.11,10.62Z"/><path d="M19.1,14.31a.44.44,0,1,1,0,.88.44.44,0,1,1,0-.88Z"/><path d="M19.12,19a.48.48,0,0,1,.49.44.34.34,0,0,1-.36.33.49.49,0,0,1-.5-.45A.34.34,0,0,1,19.12,19Z"/></g><g class="cls-3"><path d="M4.63,13.16a10,10,0,0,1-.37-1.09,2.58,2.58,0,0,1,.27-1.76,4.64,4.64,0,0,1,.9-1.22.76.76,0,0,0,.15-.28,1.24,1.24,0,0,1,.9-.92.65.65,0,0,1,.65.53,1,1,0,0,1,0,.16l.53.14A2.63,2.63,0,0,1,9.21,9.87c0,.07.13.1.19.15a6.92,6.92,0,0,1,.76.66.94.94,0,0,1,.14,1,2.32,2.32,0,0,1-.72,1.13l1.88-.39-.82-5L8,7.79l-.79-4.7,1-.17,2.51-.41h2.59L14,6.8l-2.79.47c.05.42.1.81.16,1.21.16,1.19.32,2.37.49,3.56,0,.12,0,.25.05.38s0,.12.07.14c.44.17.43.55.42.92a.55.55,0,0,1-.07.31c-.25.36-.12.74-.08,1.11s0,.31-.27.44l-.14-.76-1.8,1A3.69,3.69,0,0,1,9.91,18a.52.52,0,0,0,.72-.14,1.38,1.38,0,0,1,1.09-.57,1,1,0,0,1,1,1.06,5.13,5.13,0,0,1-.34,2.09,1,1,0,0,1-1,.62,5.36,5.36,0,0,1-.89-.16c-.56-.09-1.13-.16-1.69-.28a12.14,12.14,0,0,1-1.17-.36c-.09,0-.19-.13-.29,0a.39.39,0,0,0-.1.44,3.66,3.66,0,0,1,.21.55,1.29,1.29,0,0,1-.8,1.52,1.44,1.44,0,0,1-.89-.08,3.33,3.33,0,0,1-1.42-1,1.18,1.18,0,0,1-.18-1.2,4.26,4.26,0,0,1,.95-1.56l.16-.18a4.43,4.43,0,0,1-.43-2.6l-.23.08c-.62.16-1.24.32-1.86.45a1.31,1.31,0,0,1-.9-.19.76.76,0,0,1-.4-1,1.82,1.82,0,0,1,.51-.71A9.09,9.09,0,0,1,4.63,13.16ZM6.54,10a1.17,1.17,0,0,0,.16-.85,1.1,1.1,0,0,1,.12-.69c.1-.18-.1-.22-.2-.28s-.16,0-.18.1a3.09,3.09,0,0,0-.08.6c0,.37.12.74.18,1.12l.09.2c-.26.13-.35.12-.49-.08s-.36-.53-.55-.8a3.82,3.82,0,0,0-1,1.48,2.38,2.38,0,0,0,.26,2.09c0,.05.12.13.17.12l1.34-.2a5.05,5.05,0,0,1,0-2.4l.23,0c0,.09,0,.15,0,.22,0,.48-.07,1-.07,1.44a2.14,2.14,0,0,0,.16.65.35.35,0,0,0,.22.15c.25.09.51.15.77.22,0,0,.1,0,.14,0l1.28-.55c-.06-.18-.12-.34-.16-.5a5.14,5.14,0,0,1,0-1.75s0-.11,0-.12,0-.13,0-.2A2.6,2.6,0,0,0,7.08,8.87l-.2,1.22ZM5.4,15.8v0H7.1a1,1,0,0,0,1-.77c.31-1.1,0-1.65-1.09-1.86a4,4,0,0,0-1.76,0A8.34,8.34,0,0,0,2,15a1.6,1.6,0,0,0-.39.59.44.44,0,0,0,.16.56,1.29,1.29,0,0,0,1,.26c.39-.08.79-.16,1.17-.26a5.07,5.07,0,0,0,1.58-.78l.16.22Zm6.85,2.08a.64.64,0,0,0-.89-.21,2,2,0,0,0-.51.4.86.86,0,0,1-.91.28l-.82-.2a6.63,6.63,0,0,0-2-.28.69.69,0,0,0-.74.64,1.12,1.12,0,0,0,.69,1.27,11.47,11.47,0,0,0,1.71.58,19.76,19.76,0,0,0,2.17.41,2.51,2.51,0,0,0,.81-.08c.06,0,.13-.13.14-.2.07-.68.13-1.36.2-2A5,5,0,0,1,12.25,17.88ZM8.6,13.75H8.53a.56.56,0,0,0-.07.19,8.26,8.26,0,0,1,0,.86,1.36,1.36,0,0,1-1.2,1.33,7.85,7.85,0,0,1-.84,0H5.1a3.72,3.72,0,0,0,.43,2.56,5.14,5.14,0,0,0,.58.56l0-.05,0-.18c-.1-.69.07-1.42,1.13-1.44h.21c.57.1,1.15.18,1.72.3s.48.1.61-.39a3.56,3.56,0,0,0,0-1.59,7.26,7.26,0,0,0-.54-1.65L9,14.47a1.31,1.31,0,0,1-.17-.24A4.45,4.45,0,0,1,8.6,13.75ZM5.39,19a4.13,4.13,0,0,0-1,1.67.86.86,0,0,0,.12.82A3.06,3.06,0,0,0,6,22.52.84.84,0,0,0,7.08,22,1.18,1.18,0,0,0,7,20.91a.6.6,0,0,1,0-.68L7,20.12a3.76,3.76,0,0,0-.67-.5A2.49,2.49,0,0,1,5.39,19Zm5.71-4.29a1.39,1.39,0,0,1-.77-1.76l-1.22.24.43,1c.14.34.27.68.41,1Zm0-8.39A1.58,1.58,0,0,1,11,5.91c-.09-.63-.17-1.26-.25-1.89,0-.14,0-.29,0-.46l-.74.1a1.65,1.65,0,0,1,.12.38c.08.54.15,1.07.21,1.61,0,.24,0,.48.05.74ZM9.41,12.51a1.48,1.48,0,0,0,.56-.82,1.22,1.22,0,0,0-.06-.49s0-.11,0-.16a.83.83,0,0,0-.67-.76A4.06,4.06,0,0,0,9.41,12.51Zm-3.35-4a.82.82,0,0,0,.07,1.16Zm2.3,4.75-.29.13c.13.08.18.32.38.1Z"/><path d="M33.32,7.87l-2.65.4-.73-4.71,6-.93.74,4.72L34,7.77c.1.5.2,1,.3,1.46.22,1,.44,2.08.67,3.11a.42.42,0,0,0,.18.25c.36.19.34.52.35.85a.53.53,0,0,1,0,.22,1.33,1.33,0,0,0,0,1.07l-.38.14c0-.13-.07-.25-.1-.36h0a6.25,6.25,0,0,1-1.65.93c-.15.06-.17.13-.14.27A3.55,3.55,0,0,1,33,18a.53.53,0,0,0,.72-.13,1.48,1.48,0,0,1,.93-.57,1,1,0,0,1,1.12.83,4.36,4.36,0,0,1-.35,2.39,1,1,0,0,1-1,.54,2.28,2.28,0,0,1-.52,0c-.52-.1-1-.18-1.55-.31s-1.14-.3-1.71-.46c-.11,0-.21-.11-.3,0a.41.41,0,0,0-.1.42,3.19,3.19,0,0,1,.24.65,1.28,1.28,0,0,1-.83,1.43,1.44,1.44,0,0,1-.89-.08,3.57,3.57,0,0,1-1.42-1,1.23,1.23,0,0,1-.15-1.24,4.19,4.19,0,0,1,1-1.55.21.21,0,0,0,0-.3,3.43,3.43,0,0,1-.36-1.47c0-.31,0-.63,0-.92-.52.14-1,.29-1.57.42a1.83,1.83,0,0,1-1.46-.17.78.78,0,0,1-.38-.91,1.53,1.53,0,0,1,.56-.83,9.89,9.89,0,0,1,2.76-1.56c0-.05,0-.09-.07-.13a2.74,2.74,0,0,1-.07-2.73,5,5,0,0,1,.89-1.2.51.51,0,0,0,.15-.28,1.26,1.26,0,0,1,.92-.93.64.64,0,0,1,.63.69c.29.09.59.17.88.29a2.42,2.42,0,0,1,1.2,1,.56.56,0,0,0,.22.18,1.66,1.66,0,0,1,.89,1,1.1,1.1,0,0,1,0,.51,2.51,2.51,0,0,1-.75,1.28c.28-.08.57-.18.86-.24s.59-.1.92-.16ZM29.7,10.45a6.74,6.74,0,0,0-.09,1,8.25,8.25,0,0,0,.11,1.21.47.47,0,0,0,.25.27,7.44,7.44,0,0,0,.81.22.27.27,0,0,0,.12,0l1.29-.56a1.76,1.76,0,0,1-.15-.44c0-.51-.05-1-.06-1.53a.55.55,0,0,1,.05-.37c.1-.12,0-.19,0-.28a2.39,2.39,0,0,0-1.44-1c-.44-.13-.46-.11-.5.35,0,.26-.08.52-.13.8L29.7,10a4.83,4.83,0,0,0,.08-.82,1.15,1.15,0,0,1,.11-.71c.1-.18-.1-.22-.2-.28s-.16.05-.17.1a3.11,3.11,0,0,0-.08.74,12.1,12.1,0,0,0,.23,1.2.33.33,0,0,1-.48-.12c-.18-.25-.35-.52-.53-.79a3.87,3.87,0,0,0-1,1.48,2.3,2.3,0,0,0,.26,2.1c0,.06.12.13.17.12l1.34-.2a5.16,5.16,0,0,1,0-2.41ZM28.48,15.8l0,0,1.5,0a1.1,1.1,0,0,0,1.26-1,1.17,1.17,0,0,0-1-1.58,4.07,4.07,0,0,0-1.77,0A8,8,0,0,0,25.09,15a1.39,1.39,0,0,0-.36.55.45.45,0,0,0,.16.6,1.32,1.32,0,0,0,1,.25,5.86,5.86,0,0,0,2.74-1l.17.22Zm6.83,2.06a.62.62,0,0,0-.8-.22,2,2,0,0,0-.57.42.87.87,0,0,1-.91.29l-.84-.21a7.24,7.24,0,0,0-2-.27.7.7,0,0,0-.76.62,1.13,1.13,0,0,0,.7,1.29,11.47,11.47,0,0,0,1.71.58c.72.18,1.45.31,2.18.42a2.79,2.79,0,0,0,.8-.1.21.21,0,0,0,.14-.15c.06-.65.11-1.29.18-1.94C35.2,18.37,35.26,18.15,35.31,17.86Zm-6.07,1.36c0-.11,0-.2,0-.29a1.06,1.06,0,0,1,1.1-1.35h.28c.56.09,1.12.18,1.68.29s.51.1.63-.39a.08.08,0,0,1,0,0,5.54,5.54,0,0,0-.56-3.22l0,0-.18.2a1.4,1.4,0,0,1-.16-.2c-.08-.14-.14-.28-.22-.41s-.09,0-.14-.08a.49.49,0,0,0,0,.16,8.18,8.18,0,0,1,0,1,1.27,1.27,0,0,1-1.1,1.17,9.26,9.26,0,0,1-1.29,0h-1c0,.19,0,.34,0,.49a4,4,0,0,0,.31,1.8A1.6,1.6,0,0,0,29.24,19.22Zm.88.91a3.28,3.28,0,0,0-.66-.5,2.72,2.72,0,0,1-1-.64,4.23,4.23,0,0,0-1,1.58.92.92,0,0,0,.1.91,3,3,0,0,0,1.51,1A.83.83,0,0,0,30.15,22a1,1,0,0,0-.07-1A.7.7,0,0,1,30.12,20.13ZM31.64,4.51a4.59,4.59,0,0,1,.14.45c.08.45.14.9.22,1.36a.83.83,0,0,0,.88.79,2.92,2.92,0,0,0,1.24-.2.82.82,0,0,0,.6-1c-.07-.5-.16-1-.22-1.48a1.54,1.54,0,0,1,0-.37l-.72.11a1.53,1.53,0,0,1,.14.34c.07.4.11.81.19,1.21.13.59-.1.77-.64.87a1.09,1.09,0,0,1-.36,0,.48.48,0,0,1-.53-.47c-.08-.43-.15-.87-.21-1.31a3.16,3.16,0,0,1,0-.44Zm.55,8.66L33,15.23l1.14-.54a1.38,1.38,0,0,1-.76-1.76Zm.11-3a5.79,5.79,0,0,0,0,1.71c0,.2.12.39.19.62a1.39,1.39,0,0,0,.6-.93,1.66,1.66,0,0,0-.18-.89C32.79,10.51,32.53,10.39,32.3,10.2Zm-3.09-.54-.08-1.18C28.84,8.69,28.87,9.26,29.21,9.66Zm1.95,3.69c.21.25.21.25.36.1l-.1-.21Z"/><path d="M22.92,15.65l0-.82-1.41.69a3.83,3.83,0,0,1-.11,2.5.53.53,0,0,0,.73-.14,1.56,1.56,0,0,1,.85-.55,1,1,0,0,1,1.22.93,4.94,4.94,0,0,1-.35,2.22,1,1,0,0,1-1,.6,2.84,2.84,0,0,1-.58,0c-.5-.09-1-.21-1.47-.28a7.93,7.93,0,0,1-1.75-.47c-.1,0-.2-.12-.3,0a.44.44,0,0,0-.1.45,3.94,3.94,0,0,1,.25.73,1.21,1.21,0,0,1-.86,1.32,1.76,1.76,0,0,1-.85-.07,3.21,3.21,0,0,1-1.43-1,1.16,1.16,0,0,1-.2-1.15,3.92,3.92,0,0,1,1-1.63.26.26,0,0,0,.05-.34,4.18,4.18,0,0,1-.37-2.06c0-.11,0-.23,0-.37l-.23.09c-.62.15-1.23.32-1.84.44a1.38,1.38,0,0,1-.94-.21.78.78,0,0,1-.39-1,1.56,1.56,0,0,1,.57-.79,9.75,9.75,0,0,1,2.6-1.49l.09,0c-.12-.32-.27-.61-.36-.93a2.58,2.58,0,0,1,.32-2A12.93,12.93,0,0,1,17,9.08a.78.78,0,0,0,.14-.27A1.22,1.22,0,0,1,18,7.88a.63.63,0,0,1,.62.7l.4.1a2.73,2.73,0,0,1,1.7,1.19.9.9,0,0,0,.18.15,5.78,5.78,0,0,1,.71.58,1,1,0,0,1,.18,1.09,2.3,2.3,0,0,1-.71,1.09,6.62,6.62,0,0,1,2-.3l.21-3.54-2.79-.31.53-4.74,6,.67L26.56,9.3,23.74,9c0,.54-.09,1-.13,1.56s-.09,1.2-.15,1.8a.25.25,0,0,0,.12.27.75.75,0,0,1,.29.39,1.32,1.32,0,0,1-.39,1.35.65.65,0,0,0-.23.49c0,.19,0,.37,0,.55S23.12,15.67,22.92,15.65ZM18.61,8.9l-.2,1.21L18.2,10c0-.38,0-.73,0-1.06a1.21,1.21,0,0,1,.12-.46c.11-.22-.09-.24-.18-.31s-.19,0-.2.13a3.9,3.9,0,0,0,0,.83,8.13,8.13,0,0,0,.22,1.07c-.24.12-.32.11-.47-.09s-.36-.53-.54-.8a3.76,3.76,0,0,0-1,1.67,2.34,2.34,0,0,0,.33,1.92.22.22,0,0,0,.17.1l1.34-.2a4.91,4.91,0,0,1,0-2.41l.24,0c0,.51-.08,1-.08,1.48a3.17,3.17,0,0,0,.17.8c0,.08.15.15.24.19l.75.21a.36.36,0,0,0,.14,0l1.31-.56a2.47,2.47,0,0,1-.26-1.26c0-.34,0-.69.06-1,0-.08.07-.18.05-.24A2.44,2.44,0,0,0,18.61,8.9Zm-1.67,6.9,0,0h1.79a.85.85,0,0,0,.76-.46,2.45,2.45,0,0,0,.23-.74,1,1,0,0,0-.35-1.08,1.74,1.74,0,0,0-.53-.26,4,4,0,0,0-2.09,0A8.33,8.33,0,0,0,13.56,15a1.72,1.72,0,0,0-.39.64.41.41,0,0,0,.18.52,1.25,1.25,0,0,0,.87.26,6.06,6.06,0,0,0,2.6-.89l.25-.16.16.22Zm6.85,2.08a.66.66,0,0,0-.94-.19,2.17,2.17,0,0,0-.47.39.83.83,0,0,1-.87.27c-.29-.06-.57-.14-.86-.21a7.24,7.24,0,0,0-2-.27.72.72,0,0,0-.77.75,1.11,1.11,0,0,0,.71,1.16,13.06,13.06,0,0,0,1.73.59c.71.17,1.43.3,2.16.41a2.64,2.64,0,0,0,.78-.09c.07,0,.15-.13.16-.21.07-.68.12-1.36.2-2A3.67,3.67,0,0,1,23.79,17.88Zm-3.66-4.13h-.06a.48.48,0,0,0-.08.18c0,.31,0,.62,0,.93a1.36,1.36,0,0,1-1.48,1.28H16.61a4.3,4.3,0,0,0,.26,2.23,1.64,1.64,0,0,0,.84.88c0-.09,0-.15,0-.21a1.08,1.08,0,0,1,1.12-1.44H19c.58.1,1.16.19,1.73.3s.43.1.55-.33a3.71,3.71,0,0,0-.07-2c-.12-.44-.29-.87-.43-1.3l-.25.23a2.15,2.15,0,0,1-.18-.24C20.3,14.08,20.22,13.91,20.13,13.75Zm3.69-8.18s-.05-.06-.1-.1a1,1,0,0,0-1-.26.91.91,0,0,0-.63.76,1.52,1.52,0,0,0,.21,1,4.26,4.26,0,0,0,1.14,1.32.32.32,0,0,0,.27,0,12,12,0,0,0,1.06-.69,1.84,1.84,0,0,0,.72-1,.89.89,0,0,0-.9-1.14A4.31,4.31,0,0,0,23.82,5.57ZM16.92,19a3.94,3.94,0,0,0-1.05,1.76.8.8,0,0,0,.14.72,3.07,3.07,0,0,0,1.49,1,.8.8,0,0,0,1.06-.44,1,1,0,0,0,0-1.05.71.71,0,0,1,0-.89,4.31,4.31,0,0,0-.68-.51A2.61,2.61,0,0,1,16.92,19Zm3.74-5.82.83,2.06,1.07-.5c-.23-.28-.48-.52-.67-.8a1.2,1.2,0,0,1,0-1Zm.29-.65a1.85,1.85,0,0,0,.6-.93s0-.09,0-.14c0-.21-.08-.42-.13-.63a.17.17,0,0,0,0-.13c-.18-.16-.36-.3-.54-.45l-.06,0A3.92,3.92,0,0,0,21,12.52ZM17.62,8.46c-.38.27-.23.93.08,1.21a5.44,5.44,0,0,1-.08-.6C17.61,8.87,17.62,8.67,17.62,8.46Zm2,4.88c.21.26.21.26.36.11l-.09-.21Z"/><path d="M7.21,14a.44.44,0,1,1-.49.45A.47.47,0,0,1,7.21,14Z"/><path d="M8.64,10.47s0,0,0,0-.11.19-.17.29a1.1,1.1,0,0,1-.18-.26,1.08,1.08,0,0,1,0-.36s0-.12.07-.13a.13.13,0,0,1,.14,0,4.05,4.05,0,0,1,.21.35Z"/><path d="M7.23,18.63a.48.48,0,0,1,.5.44.34.34,0,0,1-.35.33.49.49,0,0,1-.5-.44C6.87,18.77,7,18.64,7.23,18.63Z"/><path d="M31.71,10.47a.17.17,0,0,1,0,.07l-.14.26c-.06-.08-.16-.15-.19-.24a1,1,0,0,1,0-.38c0-.14.09-.2.2-.09a2.16,2.16,0,0,1,.22.36Z"/><path d="M30.28,14a.44.44,0,1,1,0,.88.5.5,0,0,1-.5-.43A.48.48,0,0,1,30.28,14Z"/><path d="M30.44,19.4A.47.47,0,0,1,30,19c0-.2.13-.32.34-.33a.5.5,0,0,1,.51.44A.34.34,0,0,1,30.44,19.4Z"/><path d="M19.77,10.28l.08-.24c.08.05.22.08.23.15a1.67,1.67,0,0,1,0,.5s-.07.1-.11.1a.16.16,0,0,1-.12-.09C19.84,10.57,19.81,10.42,19.77,10.28Z"/><path d="M18.76,14a.44.44,0,1,1,0,.88.44.44,0,1,1,0-.88Z"/><path d="M18.78,18.63a.48.48,0,0,1,.49.44.35.35,0,0,1-.36.33.49.49,0,0,1-.5-.45A.34.34,0,0,1,18.78,18.63Z"/></g><path class="cls-4" d="M4.83,13.36c-.13-.38-.29-.72-.38-1.09a2.64,2.64,0,0,1,.28-1.76,4.49,4.49,0,0,1,.9-1.22A.8.8,0,0,0,5.78,9a1.23,1.23,0,0,1,.9-.91.64.64,0,0,1,.65.52,1.09,1.09,0,0,1,0,.17l.53.14a2.59,2.59,0,0,1,1.56,1.15c0,.06.13.1.19.15a6.92,6.92,0,0,1,.76.66,1,1,0,0,1,.14,1A2.36,2.36,0,0,1,9.77,13l1.89-.39-.82-5L8.18,8l-.79-4.7,1-.17,2.51-.41h2.59L14.17,7l-2.8.47c.06.41.11.81.16,1.21.17,1.18.33,2.37.5,3.56a2.35,2.35,0,0,0,.05.37c0,.05,0,.13.07.14.44.18.43.56.42.93a.55.55,0,0,1-.07.31,1.43,1.43,0,0,0-.08,1.11c0,.31.05.31-.28.43L12,14.78l-1.8,1a3.69,3.69,0,0,1-.1,2.47.53.53,0,0,0,.72-.14,1.38,1.38,0,0,1,1.09-.57,1,1,0,0,1,1,1,5,5,0,0,1-.35,2.1,1,1,0,0,1-1,.61,5.4,5.4,0,0,1-.88-.15C10.07,21,9.51,21,9,20.84c-.4-.09-.78-.24-1.17-.36-.1,0-.19-.13-.3,0a.4.4,0,0,0-.09.44,3.66,3.66,0,0,1,.21.55A1.28,1.28,0,0,1,6.8,23a1.35,1.35,0,0,1-.89-.07,3.51,3.51,0,0,1-1.43-1,1.21,1.21,0,0,1-.17-1.2,4.1,4.1,0,0,1,1-1.56L5.41,19A4.43,4.43,0,0,1,5,16.35l-.23.08c-.62.15-1.24.32-1.86.45a1.26,1.26,0,0,1-.9-.2.74.74,0,0,1-.4-1,2.08,2.08,0,0,1,.5-.71A9.45,9.45,0,0,1,4.83,13.36Zm1.91-3.14a1.17,1.17,0,0,0,.16-.85A1.1,1.1,0,0,1,7,8.68c.1-.18-.1-.22-.2-.29s-.16,0-.18.1a2.13,2.13,0,0,0-.08.61c0,.37.12.74.18,1.12l.09.19c-.27.14-.35.13-.5-.07S6,9.81,5.79,9.53a3.93,3.93,0,0,0-1,1.49,2.35,2.35,0,0,0,.26,2.09c0,.05.12.13.17.12.45-.06.9-.13,1.34-.21a4.88,4.88,0,0,1,0-2.39l.23,0c0,.08,0,.15,0,.22,0,.48-.06,1-.06,1.44A2.21,2.21,0,0,0,6.9,13a.35.35,0,0,0,.22.15l.77.22a.23.23,0,0,0,.14,0l1.28-.55a4.2,4.2,0,0,1-.16-.51,5.08,5.08,0,0,1,0-1.74s0-.11,0-.12.06-.13,0-.2A2.62,2.62,0,0,0,7.28,9.07l-.2,1.21ZM5.6,16v.05H7.3a1,1,0,0,0,1-.76c.31-1.1,0-1.65-1.09-1.86a4.07,4.07,0,0,0-1.77.05,8.48,8.48,0,0,0-3.23,1.72,1.64,1.64,0,0,0-.39.6.44.44,0,0,0,.16.56,1.29,1.29,0,0,0,1,.25c.39-.07.78-.16,1.17-.26a4.79,4.79,0,0,0,1.57-.77l.17.22Zm6.85,2.08a.64.64,0,0,0-.89-.21,2,2,0,0,0-.51.4.83.83,0,0,1-.91.27l-.82-.2a7,7,0,0,0-2-.27.69.69,0,0,0-.74.64A1.11,1.11,0,0,0,7.28,20,12.88,12.88,0,0,0,9,20.56a19.76,19.76,0,0,0,2.17.41,2.52,2.52,0,0,0,.81-.09.23.23,0,0,0,.13-.19c.08-.68.14-1.36.21-2A5,5,0,0,1,12.45,18.08ZM8.79,14H8.72a.73.73,0,0,0-.07.19,6.21,6.21,0,0,1,0,.86,1.36,1.36,0,0,1-1.2,1.33,7.85,7.85,0,0,1-.84,0H5.3a3.64,3.64,0,0,0,.43,2.55,5.11,5.11,0,0,0,.57.57l.06-.05c0-.06,0-.12,0-.18-.09-.69.08-1.43,1.13-1.44a1.62,1.62,0,0,1,.22,0c.57.09,1.15.18,1.72.3s.48.1.61-.39a3.46,3.46,0,0,0,0-1.6,6.45,6.45,0,0,0-.54-1.64l-.22.22a2.15,2.15,0,0,1-.18-.24Zm-3.2,5.23a4,4,0,0,0-1,1.66.9.9,0,0,0,.11.83,3,3,0,0,0,1.51,1,.83.83,0,0,0,1.09-.56,1.12,1.12,0,0,0-.11-1.05.64.64,0,0,1,0-.68s0-.09.07-.11a3.64,3.64,0,0,0-.67-.5A2.6,2.6,0,0,1,5.59,19.18Zm5.71-4.29a1.39,1.39,0,0,1-.77-1.76l-1.22.24.43,1c.14.34.27.68.41,1Zm0-8.39a3,3,0,0,1-.13-.39L10.9,4.22a3.52,3.52,0,0,1,0-.46l-.74.1a2.34,2.34,0,0,1,.12.38c.08.54.15,1.07.21,1.61,0,.24,0,.48,0,.74ZM9.61,12.71a1.48,1.48,0,0,0,.56-.82,1.2,1.2,0,0,0-.06-.49.9.9,0,0,1,0-.16.82.82,0,0,0-.67-.76A4,4,0,0,0,9.61,12.71Zm-3.35-4a.82.82,0,0,0,.07,1.16Zm2.29,4.75-.28.13c.13.08.18.32.38.1Z"/><path class="cls-4" d="M33.52,8.07l-2.65.4-.73-4.72,6-.92.74,4.71L34.15,8l.3,1.45c.22,1,.44,2.08.67,3.12a.45.45,0,0,0,.18.25c.35.19.34.52.35.84a.56.56,0,0,1,0,.23,1.3,1.3,0,0,0,0,1.06l-.38.14c0-.12-.07-.24-.11-.36h0a6.16,6.16,0,0,1-1.66.93c-.14,0-.16.13-.13.27a3.56,3.56,0,0,1-.13,2.32.53.53,0,0,0,.72-.13,1.45,1.45,0,0,1,.93-.57,1,1,0,0,1,1.12.82,4.38,4.38,0,0,1-.36,2.4,1,1,0,0,1-1,.54,2.41,2.41,0,0,1-.53,0c-.51-.1-1-.19-1.55-.31s-1.14-.3-1.7-.46c-.11,0-.21-.11-.3,0a.41.41,0,0,0-.1.42,3.91,3.91,0,0,1,.24.65A1.28,1.28,0,0,1,29.86,23a1.44,1.44,0,0,1-.89-.08,3.57,3.57,0,0,1-1.42-1,1.26,1.26,0,0,1-.16-1.24,4.35,4.35,0,0,1,1-1.55.22.22,0,0,0,0-.3,3.43,3.43,0,0,1-.36-1.47c0-.31,0-.63,0-.93-.52.15-1,.3-1.57.43A1.81,1.81,0,0,1,25,16.64a.76.76,0,0,1-.37-.9,1.53,1.53,0,0,1,.56-.83,9.83,9.83,0,0,1,2.75-1.56.39.39,0,0,0-.06-.13,2.72,2.72,0,0,1-.07-2.73,4.74,4.74,0,0,1,.89-1.2A.59.59,0,0,0,28.85,9a1.25,1.25,0,0,1,.92-.93.65.65,0,0,1,.63.69c.29.09.59.17.88.28a2.5,2.5,0,0,1,1.2,1,.56.56,0,0,0,.22.18,1.67,1.67,0,0,1,.89,1,1,1,0,0,1,0,.52A2.38,2.38,0,0,1,32.84,13c.29-.08.58-.17.87-.23s.59-.1.92-.16Zm-3.63,2.58c0,.33-.09.66-.09,1a9.91,9.91,0,0,0,.12,1.21.47.47,0,0,0,.25.27,7.44,7.44,0,0,0,.81.22s.09,0,.12,0l1.29-.55a1.76,1.76,0,0,1-.15-.44c0-.51-.05-1-.07-1.53a.71.71,0,0,1,0-.37c.11-.13.05-.2,0-.28a2.31,2.31,0,0,0-1.44-1c-.44-.13-.46-.11-.5.35,0,.26-.08.52-.13.8l-.24-.11A4.93,4.93,0,0,0,30,9.39a1.09,1.09,0,0,1,.11-.71c.1-.18-.1-.22-.2-.28s-.16,0-.17.1a2.67,2.67,0,0,0-.08.74c0,.4.15.8.23,1.2a.33.33,0,0,1-.48-.12c-.18-.25-.35-.52-.53-.79a3.87,3.87,0,0,0-1,1.48,2.31,2.31,0,0,0,.26,2.1c0,.06.11.13.16.12l1.35-.2a5.16,5.16,0,0,1,0-2.41ZM28.68,16v0l1.51,0a1.09,1.09,0,0,0,1.25-1,1.16,1.16,0,0,0-1-1.58,4,4,0,0,0-1.76,0,8,8,0,0,0-3.44,1.77,1.52,1.52,0,0,0-.37.56.45.45,0,0,0,.17.6,1.31,1.31,0,0,0,1,.25,5.77,5.77,0,0,0,2.74-1l.17.23Zm6.83,2.06a.62.62,0,0,0-.8-.22,2,2,0,0,0-.57.42.87.87,0,0,1-.91.29c-.28-.07-.56-.15-.85-.21a6.77,6.77,0,0,0-2-.27.7.7,0,0,0-.75.62A1.14,1.14,0,0,0,30.36,20a13.38,13.38,0,0,0,1.72.58,20.4,20.4,0,0,0,2.18.41,2.49,2.49,0,0,0,.8-.09.22.22,0,0,0,.13-.15c.07-.65.12-1.3.19-1.94C35.4,18.56,35.46,18.34,35.51,18.06Zm-6.07,1.36c0-.11,0-.2-.05-.29a1.06,1.06,0,0,1,1.1-1.35,1.31,1.31,0,0,1,.28,0c.56.09,1.12.18,1.68.29s.51.1.63-.39a.06.06,0,0,1,0,0,5.47,5.47,0,0,0-.57-3.22l0,.05-.19.2c0-.07-.11-.13-.15-.2s-.14-.28-.22-.41-.09-.06-.14-.08a.49.49,0,0,0-.05.16c0,.33,0,.66,0,1a1.27,1.27,0,0,1-1.11,1.18,10.9,10.9,0,0,1-1.28,0h-1c0,.18,0,.34,0,.49a4,4,0,0,0,.32,1.8A1.6,1.6,0,0,0,29.44,19.42Zm.88.91a3.78,3.78,0,0,0-.66-.51,2.57,2.57,0,0,1-1-.63,4.23,4.23,0,0,0-1,1.58.92.92,0,0,0,.1.91,3.08,3.08,0,0,0,1.51,1,.83.83,0,0,0,1.09-.57,1,1,0,0,0-.07-.95A.7.7,0,0,1,30.32,20.33ZM31.84,4.71a4.59,4.59,0,0,1,.14.45l.21,1.35a.85.85,0,0,0,.89.8,2.94,2.94,0,0,0,1.24-.2.82.82,0,0,0,.6-1c-.07-.5-.16-1-.23-1.48a2.36,2.36,0,0,1,0-.37L34,4.37a1.53,1.53,0,0,1,.14.34c.07.4.11.81.19,1.21.13.58-.11.77-.65.87a1.35,1.35,0,0,1-.35,0,.48.48,0,0,1-.53-.47c-.08-.43-.15-.87-.21-1.31a3.16,3.16,0,0,1,0-.44Zm.55,8.66.83,2.06,1.15-.54a1.38,1.38,0,0,1-.76-1.76Zm.11-3a5.79,5.79,0,0,0,0,1.71,4.75,4.75,0,0,0,.19.62,1.43,1.43,0,0,0,.6-.93,1.57,1.57,0,0,0-.19-.89C33,10.71,32.73,10.59,32.5,10.4Zm-3.09-.54-.08-1.18C29,8.88,29.07,9.46,29.41,9.86Zm1.94,3.69c.22.25.22.25.37.09l-.1-.2Z"/><path class="cls-4" d="M23.12,15.85l0-.82-1.4.69a3.83,3.83,0,0,1-.11,2.5.54.54,0,0,0,.73-.14,1.51,1.51,0,0,1,.85-.55,1,1,0,0,1,1.22.93,4.94,4.94,0,0,1-.35,2.22,1,1,0,0,1-1,.6,3,3,0,0,1-.59-.05c-.49-.09-1-.21-1.47-.28a8.23,8.23,0,0,1-1.75-.47c-.09,0-.19-.12-.29,0a.43.43,0,0,0-.1.45,3.12,3.12,0,0,1,.24.73A1.21,1.21,0,0,1,18.31,23a1.76,1.76,0,0,1-.85-.07,3.16,3.16,0,0,1-1.43-1,1.17,1.17,0,0,1-.2-1.15,4,4,0,0,1,1-1.64.25.25,0,0,0,.06-.34,4,4,0,0,1-.37-2.05c0-.12,0-.23,0-.37a1.6,1.6,0,0,1-.23.08c-.62.16-1.23.32-1.85.45a1.35,1.35,0,0,1-.93-.21.77.77,0,0,1-.39-1,1.56,1.56,0,0,1,.57-.79,9.75,9.75,0,0,1,2.6-1.49l.09,0a9.84,9.84,0,0,1-.36-.93,2.57,2.57,0,0,1,.32-2c.24-.39.56-.73.84-1.1A.78.78,0,0,0,17.32,9a1.22,1.22,0,0,1,.91-.93.63.63,0,0,1,.62.7l.4.1A2.73,2.73,0,0,1,21,10.07a.75.75,0,0,0,.17.14,6.85,6.85,0,0,1,.72.59A1,1,0,0,1,22,11.89,2.3,2.3,0,0,1,21.31,13a6.32,6.32,0,0,1,2-.3l.2-3.54-2.79-.31.54-4.75,6,.68L26.76,9.5l-2.82-.31c-.05.54-.09,1.05-.13,1.56l-.15,1.8a.25.25,0,0,0,.12.27.75.75,0,0,1,.28.38,1.35,1.35,0,0,1-.38,1.36.62.62,0,0,0-.23.49,5.09,5.09,0,0,1,0,.55C23.41,15.79,23.32,15.87,23.12,15.85ZM18.81,9.1l-.2,1.21-.21-.08c0-.39,0-.73,0-1.07a1.45,1.45,0,0,1,.13-.45c.11-.22-.09-.24-.19-.31s-.18,0-.19.13a4.64,4.64,0,0,0-.06.83,10.22,10.22,0,0,0,.23,1.07c-.24.11-.32.11-.47-.09s-.36-.53-.54-.8a3.76,3.76,0,0,0-1,1.67,2.31,2.31,0,0,0,.33,1.91.23.23,0,0,0,.17.11c.45-.06.89-.14,1.34-.21a4.87,4.87,0,0,1,0-2.4l.23,0c0,.51-.07,1-.07,1.48a3.17,3.17,0,0,0,.17.8c0,.08.15.15.24.18a7,7,0,0,0,.75.21.18.18,0,0,0,.14,0l1.31-.56a2.41,2.41,0,0,1-.26-1.25c0-.34,0-.69.06-1,0-.08.07-.18,0-.24A2.41,2.41,0,0,0,18.81,9.1ZM17.14,16v0c.6,0,1.2,0,1.8,0a.84.84,0,0,0,.76-.47,2.3,2.3,0,0,0,.23-.73,1,1,0,0,0-.35-1.09,1.72,1.72,0,0,0-.53-.25,3.9,3.9,0,0,0-2.09,0,8.33,8.33,0,0,0-3.21,1.72,1.6,1.6,0,0,0-.39.64.41.41,0,0,0,.18.52,1.25,1.25,0,0,0,.87.26,6.06,6.06,0,0,0,2.6-.89l.25-.16.16.22ZM24,18.08a.67.67,0,0,0-.94-.19,2.17,2.17,0,0,0-.47.39.83.83,0,0,1-.87.27c-.29-.06-.58-.15-.86-.21a6.87,6.87,0,0,0-2-.27.72.72,0,0,0-.77.75A1.11,1.11,0,0,0,18.83,20a11.72,11.72,0,0,0,1.73.58,19.59,19.59,0,0,0,2.16.41,2.33,2.33,0,0,0,.78-.08c.07,0,.15-.13.16-.21.07-.68.12-1.36.19-2A5.08,5.08,0,0,1,24,18.08ZM20.33,14h-.07c0,.06-.07.12-.07.18,0,.31,0,.62,0,.93a1.36,1.36,0,0,1-1.48,1.28H16.81a4.3,4.3,0,0,0,.26,2.23,1.64,1.64,0,0,0,.84.88c0-.09,0-.15,0-.21A1.08,1.08,0,0,1,19,17.78a2.09,2.09,0,0,1,.25,0c.58.1,1.16.19,1.73.3s.43.1.55-.33a3.71,3.71,0,0,0-.07-2c-.12-.44-.29-.87-.43-1.3l-.25.23a2.15,2.15,0,0,1-.18-.24C20.5,14.28,20.42,14.11,20.33,14ZM24,5.77s-.05-.06-.1-.11a1,1,0,0,0-1-.25.88.88,0,0,0-.63.75,1.53,1.53,0,0,0,.21,1,4.37,4.37,0,0,0,1.14,1.32.3.3,0,0,0,.26,0A10.84,10.84,0,0,0,25,7.76a1.88,1.88,0,0,0,.72-1,.89.89,0,0,0-.91-1.14A3.66,3.66,0,0,0,24,5.77Zm-6.9,13.42A3.88,3.88,0,0,0,16.07,21a.8.8,0,0,0,.14.72,3.07,3.07,0,0,0,1.49,1,.81.81,0,0,0,1.06-.44,1,1,0,0,0,0-1.05.71.71,0,0,1,0-.89,3.55,3.55,0,0,0-.68-.51A2.84,2.84,0,0,1,17.12,19.19Zm3.73-5.82.84,2.06,1.07-.51a6.85,6.85,0,0,1-.67-.79,1.2,1.2,0,0,1,0-1Zm.3-.65a1.85,1.85,0,0,0,.6-.93s0-.09,0-.14c0-.21-.08-.42-.13-.64a.29.29,0,0,0-.05-.13L21,10.44l-.06,0A3.84,3.84,0,0,0,21.15,12.72ZM17.82,8.65c-.38.28-.23.94.08,1.22,0-.2-.07-.4-.08-.6S17.82,8.87,17.82,8.65Zm2,4.89c.21.26.21.26.36.11l-.09-.21Z"/><path class="cls-4" d="M7.41,14.17a.48.48,0,0,1,.51.43.51.51,0,0,1-1,0A.46.46,0,0,1,7.41,14.17Z"/><path class="cls-4" d="M8.84,10.67s0,0,0,0a2.61,2.61,0,0,1-.17.28,1.05,1.05,0,0,1-.18-.25.87.87,0,0,1,0-.36s0-.12.06-.13a.15.15,0,0,1,.15.05,4.05,4.05,0,0,1,.21.35Z"/><path class="cls-4" d="M7.43,18.83a.46.46,0,0,1,.49.44.31.31,0,0,1-.34.32.49.49,0,0,1-.51-.43A.33.33,0,0,1,7.43,18.83Z"/><path class="cls-4" d="M31.91,10.67s0,.05,0,.06a2.15,2.15,0,0,1-.14.26c-.07-.08-.16-.14-.19-.24a1.14,1.14,0,0,1-.05-.37c0-.14.1-.21.21-.09a2.16,2.16,0,0,1,.22.36Z"/><path class="cls-4" d="M30.48,14.17a.46.46,0,0,1,.5.43.46.46,0,0,1-.49.44.44.44,0,1,1,0-.87Z"/><path class="cls-4" d="M30.64,19.59a.47.47,0,0,1-.49-.43.32.32,0,0,1,.35-.33.48.48,0,0,1,.5.44A.33.33,0,0,1,30.64,19.59Z"/><path class="cls-4" d="M20,10.47l.08-.23c.08,0,.21.08.23.15a1.67,1.67,0,0,1,0,.5.12.12,0,0,1-.23,0C20,10.76,20,10.62,20,10.47Z"/><path class="cls-4" d="M19,14.17a.46.46,0,0,1,.48.45A.44.44,0,0,1,19,15a.46.46,0,0,1-.5-.44A.47.47,0,0,1,19,14.17Z"/><path class="cls-4" d="M19,18.83a.48.48,0,0,1,.49.43.33.33,0,0,1-.36.33.49.49,0,0,1-.5-.44A.33.33,0,0,1,19,18.83Z"/></g></g></svg>