<svg xmlns="http://www.w3.org/2000/svg" viewBox="0 0 38.55 24.66"><defs><style>.cls-1{isolation:isolate;}.cls-2{opacity:0.15;}.cls-2,.cls-3{mix-blend-mode:multiply;}.cls-4{fill:#fff;}</style></defs><title>convert-FIX-SVG-03</title><g class="cls-1"><g id="Layer_1" data-name="Layer 1"><g class="cls-2"><path d="M18.64,12.52A2.5,2.5,0,0,1,16.51,15a3.56,3.56,0,0,1-2.3-.2,2.41,2.41,0,0,1-1.42-2.12A2.51,2.51,0,0,1,15.2,9.92a3.79,3.79,0,0,1,1.83.2A2.53,2.53,0,0,1,18.58,12,4.12,4.12,0,0,1,18.64,12.52Zm-2.93,1.69a1.74,1.74,0,0,0,1.64-2.51,1.76,1.76,0,0,0-1.79-.94A1.72,1.72,0,0,0,14,13,1.74,1.74,0,0,0,15.71,14.21Z"/><path d="M30.78,9.77v1.28a.56.56,0,0,1-.13-.09.28.28,0,0,0-.3-.18H27.28l-.09,0V12H29c.23,0,.49.08.62-.24a.5.5,0,0,1,0,.13q0,.5,0,1a.83.83,0,0,1,0,.15l-.12-.1c-.07,0-.13-.12-.2-.13H27.19v1.39h3c.23,0,.44,0,.54-.27l.07,0v1.3h0a.83.83,0,0,0-.72-.21H25.85l0,0c.33-.13.27-.4.27-.65,0-1.22,0-2.44,0-3.66,0-.24.12-.53-.29-.62l.06-.06H30c.25,0,.54.11.7-.24Z"/><path d="M21.36,15v0c.28-.27.29-.27.12-.64-.61-1.29-1.21-2.59-1.83-3.88a2.44,2.44,0,0,0-.37-.45h1.82s0,.08-.05.09c-.24,0-.2.21-.16.37a1.43,1.43,0,0,0,.08.22l1.26,2.75.08.13.1-.2,1.26-2.82c.1-.2.06-.3-.12-.41a.94.94,0,0,1-.13-.14h1.77a.18.18,0,0,1,0,.06c-.29.14-.38.43-.51.69-.53,1.14-1.05,2.28-1.58,3.41a1.42,1.42,0,0,0-.08.18c-.17.39-.17.39.12.67Z"/><path d="M37.37,3.88l-1.92-.13a.61.61,0,0,0-.64.58v.6h.75a.75.75,0,0,1,.21,0c.15.06.28.17.22.33a.46.46,0,0,1-.29.26c-.5,0-1,0-1.53,0V4.33H32.94V3.47c0-.2,0-.41,0-.61a.31.31,0,1,1,.62,0c0,.28,0,.56,0,.85.28,0,.52,0,.76,0s.46-.39.45-.58c0-.64-.1-1.28-.15-1.94h1.08c.05,0,.1.05.14.09l1.43,1.41a.25.25,0,0,1,.1.17C37.37,3.19,37.37,3.53,37.37,3.88Z"/><path d="M3.63,4.93c0-.27,0-.5,0-.72S3.24,3.73,3,3.74l-2,.14c0-.36,0-.7,0-1a.39.39,0,0,1,.11-.17L2.59,1.29a.38.38,0,0,1,.21-.12c.33,0,.66,0,1,0,0,.38,0,.77-.08,1.15a3.64,3.64,0,0,1,0,.57.56.56,0,0,0,.24.67.71.71,0,0,0,.31.13c.19,0,.39,0,.63,0V2.91c0-.25.14-.4.32-.4s.31.17.3.43V4.32H4.28V5.51c-.53,0-1,0-1.54,0a.3.3,0,0,1-.3-.32.33.33,0,0,1,.35-.3Z"/><path d="M4.27,19.07v1.22H5.49v.54c0,.3,0,.61,0,.91a.35.35,0,0,1-.3.38.33.33,0,0,1-.32-.35c0-.27,0-.55,0-.84-.28,0-.53,0-.77,0s-.45.41-.43.62c0,.63.09,1.26.14,1.9h-1a.36.36,0,0,1-.18-.1L1.18,22a.32.32,0,0,1-.11-.17c0-.34,0-.68,0-1l1.21.07.78.06a.72.72,0,0,0,.56-.45,5,5,0,0,0,0-.55,1.28,1.28,0,0,0,0-.18H2.76a.34.34,0,0,1-.32-.33.31.31,0,0,1,.33-.29Z"/><path d="M34.62,23.46c0-.62.08-1.23.13-1.83a.62.62,0,0,0-.63-.7h-.56c0,.27,0,.53,0,.79s-.14.4-.32.4-.3-.18-.3-.41c0-.39,0-.78,0-1.17a2.32,2.32,0,0,1,0-.24h1.19V19.07h1.52a.32.32,0,0,1,.32.3.34.34,0,0,1-.33.32c-.28,0-.56,0-.86,0,0,.27,0,.51,0,.74a.73.73,0,0,0,.6.44l2-.14c0,.37,0,.71,0,1.05a.26.26,0,0,1-.09.16l-1.44,1.41a.34.34,0,0,1-.18.09Z"/><path d="M12.13,13.9v1.3s-.08,0-.08,0c-.15-.22-.37-.2-.59-.2H7.28l0,0c.35-.18.25-.49.25-.77,0-1.11,0-2.23,0-3.34,0-.3.17-.66-.22-.88H8.85s0,.11-.07.12c-.19.06-.2.21-.2.37,0,1.16,0,2.31,0,3.47v.25h3c.22,0,.41,0,.49-.27Z"/><path d="M18.84,12.72a2.5,2.5,0,0,1-2.13,2.47,3.56,3.56,0,0,1-2.3-.2A2.41,2.41,0,0,1,13,12.87a2.51,2.51,0,0,1,2.41-2.75,3.79,3.79,0,0,1,1.83.2,2.5,2.5,0,0,1,1.55,1.87A4.52,4.52,0,0,1,18.84,12.72Zm-2.93,1.69a1.74,1.74,0,0,0,1.64-2.51A1.76,1.76,0,0,0,15.76,11a1.71,1.71,0,0,0-1.61,2.2A1.74,1.74,0,0,0,15.91,14.41Z"/><path d="M31,10v1.28a.56.56,0,0,1-.13-.09.28.28,0,0,0-.3-.18H27.48l-.09,0v1.2h1.82c.23,0,.5.08.63-.24a.53.53,0,0,1,0,.12c0,.34,0,.67,0,1a.44.44,0,0,1-.05.15l-.11-.1c-.07,0-.13-.13-.2-.13H27.39v1.39h3.05c.23,0,.44,0,.54-.27l.07,0v1.3H31c-.19-.23-.45-.21-.71-.21-1.34,0-2.68,0-4,0h-.22l0,0c.34-.14.27-.4.27-.65,0-1.22,0-2.44,0-3.66,0-.24.12-.53-.29-.62l.06-.06h4.19c.25,0,.54.1.7-.24Z"/><path d="M21.55,15.18v0c.28-.27.29-.27.12-.64-.61-1.3-1.21-2.59-1.83-3.88a2.93,2.93,0,0,0-.37-.45h1.81s0,.08,0,.09c-.24,0-.2.21-.16.37a1.43,1.43,0,0,0,.08.22l1.26,2.74.07.14a1.31,1.31,0,0,0,.1-.21c.43-.93.85-1.87,1.27-2.81a.28.28,0,0,0-.12-.42.51.51,0,0,1-.13-.13h1.77a.18.18,0,0,1,0,.06c-.29.14-.38.43-.51.69L23.3,14.33l-.08.17c-.17.39-.17.39.12.68Z"/><path d="M37.57,4.08,35.65,4a.61.61,0,0,0-.64.58c0,.19,0,.37,0,.59h.75a.65.65,0,0,1,.2,0c.15.06.29.17.23.33a.49.49,0,0,1-.29.26c-.5,0-1,0-1.53,0V4.53H33.14V3.67c0-.2,0-.41,0-.61a.33.33,0,0,1,.3-.35.32.32,0,0,1,.32.33c0,.28,0,.56,0,.85h.76c.18,0,.46-.39.45-.59l-.15-1.93h1.08s.1.05.14.09c.48.46,1,.93,1.43,1.41a.25.25,0,0,1,.1.17C37.57,3.39,37.57,3.72,37.57,4.08Z"/><path d="M3.83,5.13c0-.27,0-.5,0-.72s-.38-.48-.59-.47l-2,.14c0-.36,0-.7,0-1a.27.27,0,0,1,.11-.17c.47-.47.93-.93,1.41-1.38A.35.35,0,0,1,3,1.37c.33,0,.66,0,1,0,0,.38,0,.76-.07,1.15a3.64,3.64,0,0,1,0,.57.55.55,0,0,0,.23.67.8.8,0,0,0,.32.13c.19,0,.39,0,.63,0,0-.27,0-.52,0-.78s.14-.4.32-.4.3.17.3.43V4.52H4.48V5.71l-1.54,0a.32.32,0,0,1-.31-.32A.34.34,0,0,1,3,5.13Z"/><path d="M4.47,19.27v1.22H5.69V21c0,.3,0,.61,0,.91a.34.34,0,0,1-.29.38A.35.35,0,0,1,5.08,22c0-.27,0-.55,0-.84-.28,0-.53,0-.77,0s-.45.41-.43.62c.05.63.09,1.26.14,1.89-.37,0-.71,0-1,0a.36.36,0,0,1-.18-.1l-1.42-1.4s-.1-.11-.1-.17c0-.34,0-.68,0-1L2.48,21l.78.06a.72.72,0,0,0,.56-.45,5,5,0,0,0,0-.55,1.28,1.28,0,0,0,0-.18H3a.35.35,0,0,1-.32-.34A.35.35,0,0,1,3,19.27Z"/><path d="M34.81,23.65c0-.61.09-1.22.14-1.82a.62.62,0,0,0-.63-.7h-.57c0,.27,0,.53,0,.79s-.14.4-.32.4-.3-.18-.3-.42,0-.77,0-1.16c0-.08,0-.15,0-.24h1.2V19.27h1.52a.31.31,0,1,1,0,.62H35c0,.27,0,.51,0,.74s.41.45.6.44l2-.14c0,.36,0,.71,0,1a.28.28,0,0,1-.1.16L36,23.56a.34.34,0,0,1-.18.09C35.52,23.66,35.18,23.65,34.81,23.65Z"/><path d="M12.33,14.09V15.4h-.09c-.14-.22-.36-.2-.58-.2-1.32,0-2.64,0-4,0H7.48l0,0c.35-.18.25-.49.25-.76,0-1.11,0-2.23,0-3.34,0-.3.17-.66-.22-.88H9.05c0,.05,0,.11-.07.12-.19.06-.2.2-.2.37v3.72h3c.22,0,.41,0,.49-.27Z"/></g><g class="cls-3"><path d="M18.5,12.38a2.5,2.5,0,0,1-2.13,2.47,3.56,3.56,0,0,1-2.3-.2,2.41,2.41,0,0,1-1.42-2.12,2.51,2.51,0,0,1,2.41-2.75,3.8,3.8,0,0,1,1.83.2,2.5,2.5,0,0,1,1.55,1.87A4.52,4.52,0,0,1,18.5,12.38Zm-2.93,1.69a1.74,1.74,0,0,0,1.64-2.51,1.76,1.76,0,0,0-1.79-.94,1.71,1.71,0,0,0-1.61,2.2A1.74,1.74,0,0,0,15.57,14.07Z"/><path d="M30.64,9.63v1.28a.56.56,0,0,1-.13-.09.28.28,0,0,0-.3-.18H27.14l-.09,0v1.2h1.82c.23,0,.5.08.63-.24a.53.53,0,0,1,0,.12c0,.34,0,.67,0,1a.44.44,0,0,1-.05.15.52.52,0,0,0-.11-.1c-.07,0-.13-.13-.2-.13H27.05v1.39h.24c.93,0,1.87,0,2.81,0,.23,0,.44,0,.54-.27l.07,0v1.3h-.05c-.19-.23-.45-.21-.71-.21H25.71l0,0c.34-.14.27-.4.27-.65,0-1.22,0-2.44,0-3.66,0-.24.12-.53-.29-.62l.06-.06H29.9c.25,0,.54.1.7-.24Z"/><path d="M21.21,14.84v0c.28-.27.29-.27.12-.64-.61-1.3-1.21-2.59-1.83-3.88a2.93,2.93,0,0,0-.37-.45h1.81s0,.08,0,.09c-.24,0-.2.21-.16.37a1.43,1.43,0,0,0,.08.22l1.26,2.74.07.14a1.31,1.31,0,0,0,.1-.21c.43-.93.85-1.87,1.27-2.81A.28.28,0,0,0,23.4,10a.51.51,0,0,1-.13-.13H25a.18.18,0,0,1,0,.06c-.29.14-.38.43-.51.69L23,14l-.08.17c-.17.39-.17.39.12.68Z"/><path d="M37.23,3.74l-1.92-.13a.61.61,0,0,0-.64.58c0,.19,0,.37,0,.59h.75a1.2,1.2,0,0,1,.2,0c.15.06.29.17.22.33a.45.45,0,0,1-.28.26c-.5,0-1,0-1.53,0V4.19H32.8V3.33c0-.2,0-.41,0-.61a.33.33,0,0,1,.3-.35.32.32,0,0,1,.32.33c0,.28,0,.56,0,.85.28,0,.52,0,.76,0s.46-.39.45-.59L34.47,1h1.08c.05,0,.1.05.14.08.48.47,1,.94,1.43,1.42a.25.25,0,0,1,.1.17C37.23,3.05,37.23,3.38,37.23,3.74Z"/><path d="M3.49,4.79c0-.27,0-.5,0-.72s-.38-.48-.59-.47l-2,.14c0-.36,0-.7,0-1A.27.27,0,0,1,1,2.53c.47-.47.93-.93,1.41-1.38A.3.3,0,0,1,2.66,1c.33,0,.66,0,1,0,0,.38,0,.76-.07,1.15a3.64,3.64,0,0,1,0,.57.55.55,0,0,0,.23.67.8.8,0,0,0,.32.13c.19,0,.39,0,.63,0,0-.27,0-.53,0-.78s.14-.4.32-.4.3.17.3.43V4.18H4.14V5.37l-1.54,0a.33.33,0,0,1-.31-.32.34.34,0,0,1,.35-.3Z"/><path d="M4.13,18.93v1.22H5.35v.54c0,.3,0,.61,0,.91a.34.34,0,0,1-.29.38.35.35,0,0,1-.33-.35c0-.27,0-.55,0-.84-.28,0-.53,0-.77,0s-.45.41-.43.62c0,.63.09,1.26.14,1.89-.37,0-.71,0-1.05,0a.36.36,0,0,1-.18-.1L1,21.81s-.1-.11-.1-.17c0-.34,0-.68,0-1l1.21.08.78.06a.72.72,0,0,0,.56-.45,5,5,0,0,0,0-.55,1.28,1.28,0,0,0,0-.18H2.61a.35.35,0,0,1-.32-.34.35.35,0,0,1,.34-.29Z"/><path d="M34.47,23.31c.05-.61.09-1.22.14-1.82a.61.61,0,0,0-.63-.7h-.57c0,.27,0,.53,0,.79s-.14.4-.32.4-.3-.18-.3-.42,0-.77,0-1.16c0-.08,0-.15,0-.24H34V18.93h1.52a.31.31,0,1,1,0,.62h-.85c0,.27,0,.51,0,.74s.41.45.6.44l1.95-.14c0,.36,0,.71,0,1a.28.28,0,0,1-.1.16l-1.43,1.41a.34.34,0,0,1-.18.09C35.18,23.32,34.84,23.31,34.47,23.31Z"/><path d="M12,13.75v1.31H11.9c-.14-.22-.36-.2-.58-.2H7.14l0,0c.35-.18.25-.49.25-.76,0-1.11,0-2.23,0-3.34,0-.3.17-.66-.22-.88H8.71c0,.05,0,.11-.07.12-.19.06-.2.2-.2.37v3.72H8.7c.9,0,1.81,0,2.71,0,.22,0,.41,0,.49-.27Z"/></g><path class="cls-4" d="M18.7,12.57a2.5,2.5,0,0,1-2.14,2.48,3.6,3.6,0,0,1-2.29-.2,2.41,2.41,0,0,1-1.42-2.13A2.51,2.51,0,0,1,15.26,10a3.8,3.8,0,0,1,1.83.2,2.5,2.5,0,0,1,1.55,1.87A4.6,4.6,0,0,1,18.7,12.57Zm-2.94,1.7a1.75,1.75,0,0,0,1.65-2.52,1.77,1.77,0,0,0-1.79-.93,1.73,1.73,0,1,0,.14,3.45Z"/><path class="cls-4" d="M30.84,9.83v1.28c-.06,0-.12-.06-.13-.09a.29.29,0,0,0-.3-.18H27.34l-.09,0v1.2h1.82c.23,0,.5.08.63-.23a.53.53,0,0,1,0,.12v1a.34.34,0,0,1-.05.14L29.57,13c-.07-.05-.14-.13-.2-.13H27.25v1.39H30.3c.23,0,.44,0,.53-.27l.08,0v1.3h-.05c-.19-.24-.45-.21-.71-.21H25.91l0-.05c.33-.13.27-.4.27-.64,0-1.22,0-2.44,0-3.66,0-.24.12-.54-.3-.63L25.9,10h4.2c.25,0,.54.11.7-.23Z"/><path class="cls-4" d="M21.41,15v0c.28-.27.28-.28.11-.64-.6-1.3-1.21-2.59-1.82-3.88a2.93,2.93,0,0,0-.37-.45h1.81s0,.08,0,.08c-.24.05-.2.22-.16.38a1,1,0,0,0,.08.22l1.26,2.74.07.14.1-.21c.43-.93.85-1.87,1.27-2.81a.28.28,0,0,0-.12-.42.51.51,0,0,1-.13-.13h1.77a.12.12,0,0,0,0,.05,1.27,1.27,0,0,0-.51.7l-1.59,3.41a1.3,1.3,0,0,1-.08.17c-.16.39-.16.39.13.68Z"/><path class="cls-4" d="M37.42,3.94l-1.91-.13a.62.62,0,0,0-.65.58V5h.76a.44.44,0,0,1,.2,0c.15.06.29.17.22.33a.45.45,0,0,1-.28.26c-.51,0-1,0-1.53,0V4.39H33V3.53c0-.2,0-.41,0-.61a.33.33,0,0,1,.3-.35.32.32,0,0,1,.32.32c0,.29,0,.57,0,.86h.76a.75.75,0,0,0,.45-.59l-.15-1.93h1.08a.42.42,0,0,1,.14.09l1.43,1.41a.3.3,0,0,1,.1.18C37.43,3.25,37.42,3.58,37.42,3.94Z"/><path class="cls-4" d="M3.68,5c0-.26,0-.49,0-.71s-.39-.48-.59-.47l-2,.14c0-.36,0-.7,0-1,0-.05.06-.12.11-.17l1.4-1.38a.39.39,0,0,1,.22-.11c.33,0,.66,0,1,0,0,.38-.05.76-.07,1.15a3.43,3.43,0,0,1,0,.56A.58.58,0,0,0,4,3.62a1,1,0,0,0,.32.13c.19,0,.39,0,.63,0,0-.27,0-.53,0-.79s.14-.4.32-.39.3.17.3.43V4.38H4.33V5.57L2.8,5.6a.31.31,0,0,1-.31-.31A.34.34,0,0,1,2.84,5Z"/><path class="cls-4" d="M4.33,19.13v1.22H5.55c0,.19,0,.36,0,.54s0,.6,0,.91a.34.34,0,0,1-.29.37.33.33,0,0,1-.33-.34c0-.28,0-.55,0-.84a6.47,6.47,0,0,0-.77,0c-.2,0-.45.41-.43.62,0,.63.09,1.26.14,1.89H2.82s-.12-.06-.17-.11L1.23,22a.36.36,0,0,1-.1-.18c0-.33,0-.67,0-1l1.21.08.78.06c.18,0,.55-.28.56-.45a5.09,5.09,0,0,0,0-.55,1.28,1.28,0,0,0,0-.18H2.81a.33.33,0,0,1-.32-.33.34.34,0,0,1,.34-.29Z"/><path class="cls-4" d="M34.67,23.51c0-.62.08-1.22.14-1.82a.61.61,0,0,0-.63-.7h-.57c0,.27,0,.53,0,.79s-.14.4-.32.39S33,22,33,21.76c0-.39,0-.77,0-1.16,0-.08,0-.15,0-.24h1.2V19.13h1.52a.33.33,0,0,1,.32.31.33.33,0,0,1-.34.31c-.28,0-.56,0-.85,0,0,.28,0,.51,0,.75s.4.45.6.44l2-.14c0,.36,0,.71,0,1.05,0,0-.06.11-.1.15-.47.48-1,.95-1.43,1.41a.3.3,0,0,1-.18.1Z"/><path class="cls-4" d="M12.18,14v1.31H12.1c-.14-.22-.36-.2-.58-.2H7.34l0,0c.35-.18.25-.49.25-.76,0-1.12,0-2.23,0-3.34,0-.3.17-.66-.22-.89H8.91c0,.05,0,.11-.07.12-.19.07-.2.21-.2.38v3.72h3c.22,0,.41,0,.49-.27Z"/></g></g></svg>