<svg xmlns="http://www.w3.org/2000/svg" viewBox="0 0 38.55 24.66"><defs><style>.cls-1{isolation:isolate;}.cls-2{opacity:0.15;}.cls-2,.cls-3{mix-blend-mode:multiply;}.cls-4{fill:#fff;}</style></defs><title>convert-FIX-SVG-03</title><g class="cls-1"><g id="Layer_1" data-name="Layer 1"><g class="cls-2"><path d="M19.21,24.32c-1.43,0-2.87,0-4.3,0a5.55,5.55,0,0,1-1.72-.25A17.45,17.45,0,0,1,7,20.84a11.75,11.75,0,0,1-4-5.9A9.88,9.88,0,0,1,4.4,6.6,14.36,14.36,0,0,1,10,1.75,18.61,18.61,0,0,1,14,.26a1.36,1.36,0,0,1,.29,0q5,0,9.93,0a3.88,3.88,0,0,1,1.09.24A17.09,17.09,0,0,1,31.72,4a11.47,11.47,0,0,1,3.81,6,9.87,9.87,0,0,1-1.32,7.77,14,14,0,0,1-5.28,4.83,18.16,18.16,0,0,1-4.45,1.75l-.29,0Zm0-23.54a23.76,23.76,0,0,0-3.34.28A18.6,18.6,0,0,0,9.69,3.19,12.87,12.87,0,0,0,5.05,7.5,8.65,8.65,0,0,0,3.81,14a9.89,9.89,0,0,0,2.75,5,15.08,15.08,0,0,0,5.27,3.42A20.23,20.23,0,0,0,22,23.57a18.45,18.45,0,0,0,5.89-1.75A13.53,13.53,0,0,0,33,17.62a9.06,9.06,0,0,0,1.8-5.21,8.82,8.82,0,0,0-1.45-5A13,13,0,0,0,28.45,3,19.44,19.44,0,0,0,19.21.78Z"/><path d="M.76,24l4-3.89.43.48-.07.08C4,21.79,2.77,22.93,1.6,24.09a.36.36,0,0,1-.5.08A3.4,3.4,0,0,0,.76,24Z"/><path d="M.77.58.93.47c.4-.24.43-.24.76.09L5.11,3.87,5.27,4l-.49.48Z"/><path d="M33.67,4.47,33.2,4l2.35-2.28c.44-.43.9-.85,1.33-1.3A.31.31,0,0,1,37.3.36l.4.21Z"/><path d="M37.71,24a5,5,0,0,1-.54.25.24.24,0,0,1-.2-.05c-1.26-1.2-2.51-2.42-3.77-3.64l.48-.45Z"/><path d="M38.33,22.7,34.2,19.47l.41-.52L36,20l2.16,1.7a.34.34,0,0,1,.17.35C38.32,22.26,38.33,22.46,38.33,22.7Z"/><path d="M.14,22.69c-.05-.8-.05-.8.52-1.25L3.84,19l.42.51Z"/><path d="M34.61,5.59l-.41-.51,4.13-3.23c0,.29,0,.54,0,.79,0,0,0,.09-.09.12Z"/><path d="M.12,1.85,4.25,5.08l-.41.51L2,4.18.3,2.83a.39.39,0,0,1-.18-.37C.14,2.27.12,2.09.12,1.85Z"/><path d="M32.05,21.54l.5-.42,2.73,3.2h-.83s-.07,0-.1-.07Z"/><path d="M3.17,24.32l2.73-3.2.51.42L5.28,22.87,4.16,24.19a.33.33,0,0,1-.29.14Z"/><path d="M6.39,3l-.49.41L3.18.22H4a.2.2,0,0,1,.14.08L6.36,3Z"/><path d="M32.55,3.43,32.05,3l.87-1c.46-.53.91-1.08,1.38-1.61a.46.46,0,0,1,.28-.13c.21,0,.43,0,.7,0Z"/><path d="M38.33,4.24c0,.25,0,.47,0,.69a.26.26,0,0,1-.08.13L35.43,6.8l-.35-.56Z"/><path d="M35.08,18.31l.35-.56.22.14,2.53,1.55a.26.26,0,0,1,.15.27c0,.19,0,.38,0,.6Z"/><path d="M3,17.75l.36.56-3.26,2c0-.25,0-.47,0-.68a.24.24,0,0,1,.09-.15Z"/><path d="M3.38,6.24,3,6.79,2.88,6.7.29,5.11a.29.29,0,0,1-.17-.3c0-.18,0-.35,0-.57Z"/><path d="M36.08,8l-.27-.56,2.52-1.17c0,.23,0,.43,0,.63a.24.24,0,0,1-.1.14L36.14,8S36.1,8,36.08,8Z"/><path d="M.12,6.31,2.65,7.48l-.28.59-.66-.3L.27,7.1c-.1,0-.16-.09-.15-.21S.12,6.52.12,6.31Z"/><path d="M2.37,16.48l.27.59L.14,18.23a.28.28,0,0,1,0-.08.7.7,0,0,1,.55-.91C1.25,17,1.79,16.74,2.37,16.48Z"/><path d="M38.33,18.23l-2.52-1.16.28-.59.33.15,1.76.81c.11,0,.16.1.15.23S38.33,18,38.33,18.23Z"/><path d="M30.83,22.45l.55-.38L33,24.32h-.74a.21.21,0,0,1-.12-.07Z"/><path d="M31.38,2.48l-.55-.38.36-.52c.29-.4.57-.82.87-1.22a.41.41,0,0,1,.25-.13c.2,0,.41,0,.65,0Z"/><path d="M7.62,2.1l-.54.37L5.49.22h.75A.16.16,0,0,1,6.35.3C6.78.9,7.2,1.49,7.62,2.1Z"/><path d="M5.49,24.32l1.59-2.25.54.37L7.25,23c-.29.41-.57.82-.87,1.22a.34.34,0,0,1-.22.12Z"/><path d="M.13,8.85V8.17l2,.61-.2.62Z"/><path d="M36.37,8.78l2-.61v.68l-1.74.55Z"/><path d="M38.32,15.7v.68l-2-.62.2-.61Z"/><path d="M.13,16.38V15.7l1.75-.56.2.62Z"/><path d="M.15,9.79l1.54.27-.11.64-.95-.16C.07,10.43,0,10.39.15,9.79Z"/><path d="M38.32,14.76l-1.56-.28.11-.64,1.45.25Z"/><path d="M1.58,13.84l.12.64-1.56.28v-.67Z"/><path d="M36.87,10.7l-.11-.63,1.57-.28c0,.2,0,.38,0,.56s0,.11-.09.11C37.79,10.55,37.35,10.62,36.87,10.7Z"/><path d="M8.37,22.9l.58.32c-.21.36-.41.71-.62,1.05,0,0-.08.05-.13.05H7.54Z"/><path d="M9,1.33l-.58.32L7.54.22h.67a.23.23,0,0,1,.16.1C8.56.65,8.74,1,9,1.33Z"/><path d="M30.08,1.65l-.57-.32.6-1a.17.17,0,0,1,.13-.07h.67Z"/><path d="M30.91,24.32h-.68a.15.15,0,0,1-.12-.07l-.6-1,.57-.33Z"/><path d="M38.31,13.28H37v-.62h1.33Z"/><path d="M.14,12.66H1.47v.61l-1.33.05Z"/><path d="M.14,11.26H1.47v.63H.14Z"/><path d="M37,11.88v-.61h1.34v.61Z"/><path d="M28.09.6c.18-.42.18-.42.9-.36l-.3.63Z"/><path d="M10.35,23.94c-.13.38-.13.38-.5.38H9.46l.31-.65Z"/><path d="M29,24.32a2,2,0,0,0-.36,0c-.29,0-.49,0-.53-.39l.58-.27Z"/><path d="M10.4.58l-.63.3L9.46.22a2.74,2.74,0,0,1,.65,0C10.22.27,10.29.45,10.4.58Z"/><path d="M15.17,11.34c.17,0,.35.05.53.1A1.32,1.32,0,0,1,15.59,14a2.93,2.93,0,0,1-1,0,1.24,1.24,0,0,1-1-1.34,1.28,1.28,0,0,1,1.06-1.23C14.82,11.38,15,11.37,15.17,11.34Zm.76,1.38a.8.8,0,1,0-.8.7A.75.75,0,0,0,15.93,12.72Z"/><path d="M15.37,9l.83,1h-1c.22-.12.11-.23,0-.35a2,2,0,0,1-.21-.3c-.18-.4-.5-.46-.92-.36,0,.32-.09.68.11,1h-.83a1.53,1.53,0,0,0,.09-.4q0-.9,0-1.8a2,2,0,0,0-.08-.38h0c.68,0,1.36,0,2,0a.7.7,0,0,1,.69,1,.62.62,0,0,1-.4.43Zm-1.48-.53h.91a2.91,2.91,0,0,0,.42,0,.24.24,0,0,0,.23-.28c0-.08-.11-.21-.17-.21-.46,0-.92,0-1.39,0Z"/><path d="M24,14h-.82c0-.09,0-.19,0-.24-.48-.48-1-1-1.48-1.42A5.72,5.72,0,0,0,21.73,14H21a1.66,1.66,0,0,0,.09-.37c0-.61,0-1.22,0-1.82a1.49,1.49,0,0,0-.1-.39h1c-.15.11-.13.2,0,.3L23.22,13l.07,0a2.81,2.81,0,0,0-.13-1.61H24a3.7,3.7,0,0,0-.09.48c0,.58,0,1.16,0,1.74A2,2,0,0,0,24,14Z"/><path d="M21,15.4c0,.11,0,.23.06.28L22.36,17s0,0,.08,0c0-.47,0-.94,0-1.4,0-.07-.08-.13-.13-.21h.8a1.75,1.75,0,0,0-.09.38c0,.61,0,1.22,0,1.84a1.73,1.73,0,0,0,.08.35H22.3c0-.09,0-.2-.07-.25-.47-.48-.95-.94-1.44-1.41a3.56,3.56,0,0,0,.1,1.66H20.1a2.57,2.57,0,0,0,.08-.38c0-.61,0-1.21,0-1.82a1.33,1.33,0,0,0-.09-.37Z"/><path d="M26.24,17c-.28,0-.56-.1-.82.12v-.59c.16,0,.32.06.48.07.33,0,.65,0,1,0a.94.94,0,0,0,0,1,2.63,2.63,0,0,1-2.4.24,1.33,1.33,0,0,1,.64-2.5,2.78,2.78,0,0,1,1.15.14c.12,0,.24,0,.38.09l-.3.62a.86.86,0,0,0-.66-.35,2.3,2.3,0,0,0-.74.07.79.79,0,0,0-.5.9.81.81,0,0,0,.81.72,2.47,2.47,0,0,0,.61,0C26.27,17.44,26.28,17.41,26.24,17Z"/><path d="M27.55,11.61l-.29.61A1.27,1.27,0,0,0,26,11.88a.85.85,0,0,0-.7.87.82.82,0,0,0,.75.81,2.56,2.56,0,0,0,.73,0c.35-.06.37-.11.31-.51-.26,0-.55-.1-.81.13v-.6a1.84,1.84,0,0,0,.38.08h1.09a1,1,0,0,0,0,1,2.57,2.57,0,0,1-2.44.22,1.23,1.23,0,0,1-.59-.79,1.34,1.34,0,0,1,1.09-1.65,2.43,2.43,0,0,1,1.31.1C27.26,11.55,27.39,11.57,27.55,11.61Z"/><path d="M17.63,8.5c.41-.07.82.08,1.21-.11v.66c-.39-.22-.8-.05-1.21-.13v.66h1.68c.07,0,.13-.07.21-.12v.67a1.72,1.72,0,0,0-.37-.07c-.69,0-1.38,0-2.08,0H16.9a2.18,2.18,0,0,0,.08-.4c0-.61,0-1.23,0-1.84a1.31,1.31,0,0,0-.08-.36h2.22a1.65,1.65,0,0,0,.33-.09V8a2.37,2.37,0,0,0-.36-.09H17.63Z"/><path d="M14.71,15.39h.84c-.26.3-.08.65-.15,1h1.51c-.06-.32.1-.66-.13-1h.83a3.25,3.25,0,0,0-.08.43v1.8a2,2,0,0,0,.09.33H16.8c.21-.34.05-.71.11-1.09h-1.5c.06.37-.11.74.12,1.1h-.82a2.83,2.83,0,0,0,.08-.4v-1.8A3.25,3.25,0,0,0,14.71,15.39Z"/><path d="M10.64,9c.08.39-.09.74.14,1.08H10A2.36,2.36,0,0,0,10,9.58q0-.87,0-1.74a1.55,1.55,0,0,0-.09-.39h0c.65,0,1.31,0,2,0a.72.72,0,0,1,.72,1,.71.71,0,0,1-.72.51C11.53,9,11.11,9,10.64,9Zm0-.51h1.31a.26.26,0,0,0,.26-.28c0-.08-.1-.22-.17-.22-.46,0-.92,0-1.4,0Z"/><path d="M17.35,11.42h.81a1.72,1.72,0,0,0-.08.38c0,.42,0,.83,0,1.25a.43.43,0,0,0,.38.48,1.89,1.89,0,0,0,.67,0,.44.44,0,0,0,.4-.49c0-.45,0-.89,0-1.34a1.24,1.24,0,0,0-.11-.28h.76a4.6,4.6,0,0,0-.06.52c0,.46,0,.92,0,1.37a.7.7,0,0,1-.55.66A2.54,2.54,0,0,1,18,14a.73.73,0,0,1-.56-.76c0-.46,0-.91,0-1.37A2,2,0,0,0,17.35,11.42Z"/><path d="M10.48,11.41h1.07l.13,0c-.27.11-.19.24-.09.38s.25.33.39.53c.16-.23.31-.43.44-.64s0-.18,0-.28h1a8.71,8.71,0,0,0-1.12,1.4s0,.12,0,.18c0,.23,0,.45,0,.68a1,1,0,0,0,.09.31h-.88c.25-.19.12-.44.16-.67a1,1,0,0,0-.27-.81c-.16-.19-.29-.4-.44-.59Z"/><path d="M26.07,7.45h1.05c-.26.16-.15.29,0,.43l.36.5c.16-.23.32-.44.45-.67,0,0,0-.16-.06-.25h1.05a8.71,8.71,0,0,0-1.12,1.4.27.27,0,0,0,0,.18c0,.22,0,.44,0,.66a1.54,1.54,0,0,0,.1.33H27c0-.13.07-.26.1-.39a1.48,1.48,0,0,0-.43-1.32,4.49,4.49,0,0,1-.38-.51Z"/><path d="M24.74,10H24A2.85,2.85,0,0,0,24,9.52C24,9,24,8.46,24,7.9c-.34.06-.68-.11-1,.14V7.35a2,2,0,0,0,.35.09h1.94a1.56,1.56,0,0,0,.34-.09V8c-.31-.25-.65-.08-1-.14v.4c0,.44,0,.87,0,1.31A2.07,2.07,0,0,0,24.74,10Z"/><path d="M21,7.9c-.34.06-.68-.1-1,.13V7.36a1.55,1.55,0,0,0,.36.08h1.91a1.68,1.68,0,0,0,.36-.08V8c-.31-.25-.65-.08-1-.14V9.18c0,.16,0,.33,0,.49a1.72,1.72,0,0,0,.09.36H21A2.44,2.44,0,0,0,21,9.56C21.05,9,21,8.48,21,7.9Z"/><path d="M11.45,15.3a1.51,1.51,0,0,0,.34.08h2a1.65,1.65,0,0,0,.34-.08V16c-.31-.25-.65-.07-1-.14v.89c0,.29,0,.58,0,.87,0,.12.05.24.07.37h-.78c0-.13.07-.25.08-.37V15.85c-.34.05-.68-.11-1,.12Z"/><path d="M7,9.84a.83.83,0,0,1-.87.8.76.76,0,0,1-.78-.79A.84.84,0,0,1,6.21,9,.85.85,0,0,1,7,9.84Z"/><path d="M13.45,4.12a.85.85,0,0,1-.87-.81.88.88,0,0,1,.87-.82.79.79,0,0,1,.82.79A.83.83,0,0,1,13.45,4.12Z"/><path d="M22.57,2.8A.81.81,0,0,1,23.4,2a.84.84,0,0,1,.85.82.84.84,0,0,1-1.68,0Z"/><path d="M25,20.43a.84.84,0,0,1,.84.81.85.85,0,0,1-.88.81.78.78,0,0,1-.8-.8A.82.82,0,0,1,25,20.43Z"/><path d="M15.88,21.74a.8.8,0,0,1-.81.8.82.82,0,1,1,0-1.64A.84.84,0,0,1,15.88,21.74Z"/><path d="M32.25,15.56a.85.85,0,0,1-.82-.85.83.83,0,0,1,.86-.8.77.77,0,0,1,.79.78A.85.85,0,0,1,32.25,15.56Z"/><path d="M20.09,1.54a.84.84,0,0,1,.83.82.85.85,0,0,1-1.69,0A.83.83,0,0,1,20.09,1.54Z"/><path d="M19.23,22.21a.85.85,0,0,1-1.69,0,.85.85,0,0,1,1.69,0Z"/><path d="M6.89,15.43a.81.81,0,0,1,.84.8.85.85,0,0,1-.8.85.89.89,0,0,1-.86-.88A.77.77,0,0,1,6.89,15.43Z"/><path d="M31.57,9.12a.8.8,0,0,1-.84-.81.85.85,0,0,1,.81-.84.89.89,0,0,1,.85.86A.78.78,0,0,1,31.57,9.12Z"/><path d="M17.54,2.49a.82.82,0,0,1-.83.83.83.83,0,0,1-.85-.82.82.82,0,0,1,.86-.8A.79.79,0,0,1,17.54,2.49Z"/><path d="M7.87,7.76A.79.79,0,0,1,7,7a.89.89,0,0,1,.86-.86A.82.82,0,0,1,8.7,7,.8.8,0,0,1,7.87,7.76Z"/><path d="M9.08,18a.8.8,0,0,1,.81.82.78.78,0,0,1-.8.8.87.87,0,0,1-.87-.85A.81.81,0,0,1,9.08,18Z"/><path d="M9.57,4.79A.87.87,0,0,1,10.43,4a.79.79,0,0,1,.81.82.84.84,0,0,1-1.67,0Z"/><path d="M28.88,19.76a.87.87,0,0,1-.86.84.79.79,0,0,1-.8-.83.83.83,0,0,1,1.66,0Z"/><path d="M30.58,16.78a.81.81,0,0,1,.84.77.9.9,0,0,1-.86.88.83.83,0,0,1-.81-.84A.82.82,0,0,1,30.58,16.78Z"/><path d="M21.73,22.84a.78.78,0,0,1-.81-.79.82.82,0,0,1,.83-.83.84.84,0,0,1,.84.83A.82.82,0,0,1,21.73,22.84Z"/><path d="M32.68,12.26a.84.84,0,0,1-.89-.8.89.89,0,0,1,.85-.86.83.83,0,0,1,.8.87A.77.77,0,0,1,32.68,12.26Z"/><path d="M29.39,6.58a.82.82,0,1,1,0-1.63.89.89,0,0,1,.87.84A.82.82,0,0,1,29.39,6.58Z"/><path d="M26.57,3.14a.84.84,0,0,1,.85.85.83.83,0,0,1-.86.77.8.8,0,0,1-.81-.84A.77.77,0,0,1,26.57,3.14Z"/><path d="M11.89,21.41a.85.85,0,0,1-.85-.84.84.84,0,0,1,1.67.05A.79.79,0,0,1,11.89,21.41Z"/><path d="M5,13.07a.78.78,0,0,1,.78-.79.86.86,0,0,1,.87.81.89.89,0,0,1-.86.85A.82.82,0,0,1,5,13.07Z"/><path d="M18.46,18a2,2,0,0,0,.08-.4q0-.9,0-1.8a1.55,1.55,0,0,0-.08-.36h.79a2.41,2.41,0,0,0-.07.37c0,.61,0,1.21,0,1.82a1.72,1.72,0,0,0,.07.37Z"/><path d="M19.41,24.52c-1.44,0-2.87,0-4.3,0a5.24,5.24,0,0,1-1.72-.26A17.27,17.27,0,0,1,7.21,21a11.75,11.75,0,0,1-4-5.9A9.85,9.85,0,0,1,4.6,6.8,14.36,14.36,0,0,1,10.2,2a18.74,18.74,0,0,1,4-1.49,1.54,1.54,0,0,1,.3,0c3.31,0,6.62,0,9.93,0a4.13,4.13,0,0,1,1.08.25,17.06,17.06,0,0,1,6.45,3.47,11.54,11.54,0,0,1,3.81,6,9.84,9.84,0,0,1-1.32,7.76,14.12,14.12,0,0,1-5.28,4.84,18.32,18.32,0,0,1-4.45,1.75l-.29,0ZM19.41,1a22.36,22.36,0,0,0-3.34.28A18.17,18.17,0,0,0,9.89,3.39a12.85,12.85,0,0,0-4.64,4.3A8.68,8.68,0,0,0,4,14.18a9.89,9.89,0,0,0,2.75,5A15,15,0,0,0,12,22.58a20.23,20.23,0,0,0,10.16,1.19A18.4,18.4,0,0,0,28.07,22a13.48,13.48,0,0,0,5.15-4.2A9,9,0,0,0,35,12.61a8.87,8.87,0,0,0-1.44-5,13,13,0,0,0-4.92-4.42A19.47,19.47,0,0,0,19.41,1Z"/><path d="M1,24.17l4-3.89.43.48-.07.08C4.16,22,3,23.13,1.79,24.29a.35.35,0,0,1-.49.08Z"/><path d="M1,.78,1.13.67c.39-.24.42-.24.76.08L5.31,4.07l.16.12L5,4.66Z"/><path d="M33.87,4.66l-.47-.45,2.35-2.28c.44-.43.9-.85,1.33-1.3A.31.31,0,0,1,37.5.55l.39.22Z"/><path d="M37.9,24.18a4.14,4.14,0,0,1-.53.25.24.24,0,0,1-.2-.05L33.4,20.74l.48-.45Z"/><path d="M38.53,22.9,34.4,19.66l.41-.51,1.38,1.08,2.17,1.69a.36.36,0,0,1,.17.35C38.52,22.46,38.53,22.65,38.53,22.9Z"/><path d="M.33,22.89c0-.8,0-.8.53-1.25L4,19.15l.41.51Z"/><path d="M34.81,5.79l-.41-.51,4.13-3.23c0,.29,0,.54,0,.78a.2.2,0,0,1-.09.13Z"/><path d="M.32,2.05,4.45,5.28,4,5.79,2.23,4.38C1.66,3.93,1.08,3.47.5,3a.37.37,0,0,1-.18-.37C.34,2.47.32,2.28.32,2.05Z"/><path d="M32.24,21.74l.51-.42,2.73,3.2h-.83s-.07,0-.1-.07Z"/><path d="M3.37,24.52l2.73-3.2.51.42L5.48,23.07,4.35,24.39a.31.31,0,0,1-.28.14Z"/><path d="M6.59,3.21l-.49.42L3.37.42h.8A.23.23,0,0,1,4.31.5L6.56,3.15A.16.16,0,0,1,6.59,3.21Z"/><path d="M32.75,3.63l-.5-.42.87-1c.46-.54.91-1.08,1.38-1.61a.46.46,0,0,1,.28-.13c.21,0,.43,0,.7,0Z"/><path d="M38.53,4.44v.68a.21.21,0,0,1-.09.13L35.63,7l-.36-.55Z"/><path d="M35.27,18.5l.36-.55.22.14c.84.52,1.68,1,2.53,1.55a.26.26,0,0,1,.15.27c0,.19,0,.38,0,.6Z"/><path d="M3.22,18l.36.55-3.26,2c0-.25,0-.47,0-.68a.24.24,0,0,1,.09-.15Z"/><path d="M3.58,6.44,3.23,7,3.08,6.9.48,5.31A.3.3,0,0,1,.32,5c0-.18,0-.36,0-.57Z"/><path d="M36.27,8.24,36,7.68l2.52-1.17c0,.23,0,.43,0,.63a.19.19,0,0,1-.09.14l-2.09,1Z"/><path d="M.32,6.51,2.84,7.67l-.27.6L1.91,8,.47,7.3a.19.19,0,0,1-.15-.22C.33,6.9.32,6.72.32,6.51Z"/><path d="M2.57,16.67l.27.6L.34,18.42a.64.64,0,0,0,0-.07.71.71,0,0,1,.56-.91C1.45,17.24,2,16.94,2.57,16.67Z"/><path d="M38.53,18.43,36,17.27l.27-.59.34.15,1.76.81c.11.05.16.1.15.23S38.53,18.22,38.53,18.43Z"/><path d="M31,22.64l.54-.37,1.59,2.25h-.74a.21.21,0,0,1-.12-.07Z"/><path d="M31.57,2.67,31,2.3l.36-.52c.29-.41.57-.82.87-1.22a.38.38,0,0,1,.25-.13c.2,0,.41,0,.65,0Z"/><path d="M7.82,2.3l-.54.37L5.69.42h.75A.15.15,0,0,1,6.55.5Z"/><path d="M5.69,24.52l1.59-2.25.54.37-.37.54L6.58,24.4a.37.37,0,0,1-.22.12C6.15,24.53,5.94,24.52,5.69,24.52Z"/><path d="M.33,9.05V8.36L2.28,9l-.2.62Z"/><path d="M36.57,9l2-.61v.68l-1.75.55Z"/><path d="M38.52,15.89v.69l-2-.62.2-.62Z"/><path d="M.33,16.58v-.69l1.75-.55.2.62Z"/><path d="M.35,10l1.54.27-.11.64-1-.16C.27,10.63.24,10.59.35,10Z"/><path d="M38.52,15,37,14.68l.11-.64,1.45.25Z"/><path d="M1.78,14l.11.64L.34,15v-.67Z"/><path d="M37.07,10.9,37,10.26,38.53,10c0,.21,0,.39,0,.57s0,.11-.08.11Z"/><path d="M8.57,23.09l.58.33c-.21.35-.41.71-.62,1a.19.19,0,0,1-.13.05H7.74Z"/><path d="M9.15,1.52l-.58.33L7.74.42h.67a.23.23,0,0,1,.16.1C8.76.85,8.94,1.18,9.15,1.52Z"/><path d="M30.28,1.85l-.57-.33q.3-.53.6-1a.17.17,0,0,1,.13-.07h.67Z"/><path d="M31.11,24.52c-.25,0-.47,0-.68,0a.19.19,0,0,1-.12-.07l-.6-1,.57-.33Z"/><path d="M38.51,13.48H37.18v-.62h1.33Z"/><path d="M.34,12.86H1.67v.6l-1.33.06Z"/><path d="M.33,11.46H1.67v.63H.33Z"/><path d="M37.18,12.08v-.61h1.33v.61Z"/><path d="M28.29.8c.18-.42.18-.42.9-.36l-.3.63Z"/><path d="M10.55,24.14c-.13.38-.13.38-.51.38H9.66l.31-.65Z"/><path d="M29.2,24.52h-.36c-.29,0-.49,0-.53-.38l.57-.27Z"/><path d="M10.59.78,10,1.07,9.66.42a2.3,2.3,0,0,1,.65,0C10.42.47,10.49.65,10.59.78Z"/><path d="M15.37,11.54c.17,0,.35.05.53.1a1.32,1.32,0,0,1-.11,2.58,2.93,2.93,0,0,1-1,0,1.26,1.26,0,0,1-1-1.34,1.3,1.3,0,0,1,1.06-1.23C15,11.58,15.19,11.57,15.37,11.54Zm.76,1.38a.79.79,0,0,0-1.58,0,.8.8,0,0,0,1.58,0Z"/><path d="M15.57,9.16l.83,1.06h-1c.22-.12.11-.24,0-.36a1.54,1.54,0,0,1-.21-.29c-.18-.4-.5-.46-.92-.37.05.33-.09.69.11,1h-.83a2,2,0,0,0,.09-.41c0-.6,0-1.2,0-1.79a2,2,0,0,0-.08-.38s0,0,0,0c.68,0,1.36,0,2,0a.7.7,0,0,1,.7.94.61.61,0,0,1-.4.44Zm-1.48-.52H15a3,3,0,0,0,.42,0,.24.24,0,0,0,.23-.28c0-.08-.11-.21-.17-.21-.46,0-.92,0-1.39,0Z"/><path d="M24.19,14.21h-.82c0-.09,0-.2,0-.24-.48-.48-1-1-1.48-1.43a5.77,5.77,0,0,0,.07,1.66h-.76a1.86,1.86,0,0,0,.1-.37q0-.91,0-1.83a2,2,0,0,0-.1-.38h1c-.15.11-.14.2,0,.3l1.3,1.27.07.05a2.89,2.89,0,0,0-.13-1.61h.81c0,.15-.07.32-.08.48q0,.87,0,1.74A1.52,1.52,0,0,0,24.19,14.21Z"/><path d="M21.17,15.6c0,.11,0,.22.06.28l1.33,1.3.08,0c0-.47,0-.94,0-1.4,0-.07-.08-.13-.13-.21h.8a2.93,2.93,0,0,0-.1.37v1.85a2.46,2.46,0,0,0,.09.34h-.8c0-.08,0-.19-.06-.25L21,16.5a3.41,3.41,0,0,0,.1,1.66h-.8a1.66,1.66,0,0,0,.09-.37c0-.61,0-1.22,0-1.82a1.81,1.81,0,0,0-.09-.37Z"/><path d="M26.44,17.19c-.28,0-.57-.1-.82.12v-.59c.16,0,.32.06.48.07.32,0,.65,0,1,0a1,1,0,0,0,0,1,2.61,2.61,0,0,1-2.39.24,1.31,1.31,0,0,1-.6-.69,1.37,1.37,0,0,1,1.24-1.82,2.79,2.79,0,0,1,1.15.15c.11,0,.24.05.38.09l-.3.62a.86.86,0,0,0-.66-.35,2.05,2.05,0,0,0-.74.07.78.78,0,0,0-.5.9.81.81,0,0,0,.81.72,3.12,3.12,0,0,0,.61,0C26.47,17.64,26.48,17.61,26.44,17.19Z"/><path d="M27.75,11.8l-.3.62a1.26,1.26,0,0,0-1.23-.34.84.84,0,0,0-.69.86.81.81,0,0,0,.74.81,2.61,2.61,0,0,0,.74,0c.35-.06.37-.11.31-.51-.26,0-.55-.1-.81.12v-.59a1.84,1.84,0,0,0,.38.08H28a1,1,0,0,0,0,1,2.57,2.57,0,0,1-2.44.22,1.23,1.23,0,0,1-.59-.8A1.35,1.35,0,0,1,26,11.6a2.55,2.55,0,0,1,1.31.11A3.19,3.19,0,0,0,27.75,11.8Z"/><path d="M17.83,8.69c.41-.06.82.09,1.21-.1v.65c-.39-.22-.8,0-1.21-.12v.66h1.68c.06,0,.13-.07.21-.12v.67a1.72,1.72,0,0,0-.37-.07H17.1a2.18,2.18,0,0,0,.08-.4c0-.61,0-1.23,0-1.84a1.82,1.82,0,0,0-.08-.36h2.22a1.57,1.57,0,0,0,.33-.08V8.2a1.58,1.58,0,0,0-.36-.09H17.83Z"/><path d="M14.91,15.59h.84c-.26.3-.08.64-.15,1h1.51c-.06-.32.1-.66-.13-1h.82a3.21,3.21,0,0,0-.07.43c0,.6,0,1.2,0,1.8a1.09,1.09,0,0,0,.09.33H17c.21-.34,0-.72.11-1.09h-1.5c.06.37-.11.74.12,1.09h-.82a2.44,2.44,0,0,0,.07-.39q0-.9,0-1.8A1.92,1.92,0,0,0,14.91,15.59Z"/><path d="M10.84,9.15c.08.39-.1.74.14,1.07h-.83a2.11,2.11,0,0,0,.08-.45c0-.57,0-1.15,0-1.73a2,2,0,0,0-.09-.39h0c.66,0,1.32,0,2,0a.72.72,0,0,1,.72.95.71.71,0,0,1-.72.52C11.73,9.16,11.31,9.15,10.84,9.15Zm0-.51h1.31a.24.24,0,0,0,.26-.27c0-.08-.11-.22-.17-.22-.46,0-.92,0-1.4,0Z"/><path d="M17.54,11.62h.82a2.62,2.62,0,0,0-.09.38c0,.42,0,.83,0,1.25a.42.42,0,0,0,.38.48,1.89,1.89,0,0,0,.67,0,.43.43,0,0,0,.39-.49c0-.45,0-.89,0-1.34a.86.86,0,0,0-.1-.28h.76c0,.17-.06.34-.07.52,0,.46,0,.92,0,1.37a.69.69,0,0,1-.55.65,2.54,2.54,0,0,1-1.52,0,.73.73,0,0,1-.56-.76c0-.46,0-.92,0-1.37A2,2,0,0,0,17.54,11.62Z"/><path d="M10.68,11.61h1.07l.12,0c-.26.11-.18.24-.08.38l.39.53c.16-.23.31-.43.44-.65,0-.06,0-.17,0-.27h1A8.29,8.29,0,0,0,12.5,13a.27.27,0,0,0,0,.18c0,.23,0,.45,0,.68a1.29,1.29,0,0,0,.08.31h-.87c.25-.19.12-.45.15-.67a.93.93,0,0,0-.26-.81c-.16-.19-.29-.4-.44-.59S10.84,11.79,10.68,11.61Z"/><path d="M26.27,7.65h1.05c-.26.15-.15.29,0,.43l.36.5c.16-.23.32-.44.45-.67,0,0,0-.16-.06-.25h1A8,8,0,0,0,28,9.06a.34.34,0,0,0,0,.18c0,.22,0,.44,0,.66a1.46,1.46,0,0,0,.1.32H27.2c0-.12.07-.25.09-.38a1.5,1.5,0,0,0-.42-1.33,3.66,3.66,0,0,1-.38-.5A2.92,2.92,0,0,1,26.27,7.65Z"/><path d="M24.94,10.23h-.79a4.18,4.18,0,0,0,.07-.51c0-.53,0-1.06,0-1.62-.34.06-.68-.11-1,.14V7.55a1.59,1.59,0,0,0,.35.08h1.95a1.32,1.32,0,0,0,.33-.08v.69c-.3-.25-.65-.08-1-.15V8.5c0,.44,0,.87,0,1.31A2.07,2.07,0,0,0,24.94,10.23Z"/><path d="M21.24,8.1c-.34.05-.68-.1-1,.13V7.56a2.33,2.33,0,0,0,.36.08h1.9a2.83,2.83,0,0,0,.37-.09v.69c-.31-.25-.65-.08-1-.14V9.38c0,.16,0,.32,0,.49a2.61,2.61,0,0,0,.08.36h-.8a3.55,3.55,0,0,0,.09-.47C21.25,9.22,21.24,8.68,21.24,8.1Z"/><path d="M11.65,15.5a1.4,1.4,0,0,0,.34.08h1.95a1.44,1.44,0,0,0,.33-.08v.67c-.3-.24-.65-.06-1-.13v.89c0,.29,0,.58,0,.87a1.72,1.72,0,0,0,.07.37h-.79a1.76,1.76,0,0,0,.08-.37c0-.57,0-1.14,0-1.75-.34.05-.68-.11-1,.12Z"/><path d="M7.23,10a.84.84,0,0,1-.87.8.76.76,0,0,1-.78-.79.83.83,0,0,1,.83-.86A.85.85,0,0,1,7.23,10Z"/><path d="M13.64,4.32a.86.86,0,0,1-.86-.81.87.87,0,0,1,.86-.82.79.79,0,0,1,.83.78A.85.85,0,0,1,13.64,4.32Z"/><path d="M22.77,3a.79.79,0,0,1,.83-.79.84.84,0,0,1,.85.82.87.87,0,0,1-.86.82A.85.85,0,0,1,22.77,3Z"/><path d="M25.23,20.63a.84.84,0,0,1,.84.8.85.85,0,0,1-.88.82.79.79,0,0,1-.81-.8A.84.84,0,0,1,25.23,20.63Z"/><path d="M16.08,21.94a.81.81,0,0,1-.81.8.82.82,0,1,1,0-1.64A.84.84,0,0,1,16.08,21.94Z"/><path d="M32.45,15.76a.85.85,0,0,1-.82-.85.82.82,0,0,1,.85-.8.77.77,0,0,1,.8.78A.85.85,0,0,1,32.45,15.76Z"/><path d="M20.29,1.74a.84.84,0,0,1,.83.82.87.87,0,0,1-.87.82.86.86,0,0,1-.82-.86A.82.82,0,0,1,20.29,1.74Z"/><path d="M19.42,22.41a.82.82,0,0,1-.84.8.84.84,0,0,1-.84-.79.86.86,0,0,1,.85-.85A.84.84,0,0,1,19.42,22.41Z"/><path d="M7.09,15.63a.81.81,0,0,1,.84.8.84.84,0,0,1-.81.84.89.89,0,0,1-.86-.87A.77.77,0,0,1,7.09,15.63Z"/><path d="M31.77,9.32a.8.8,0,0,1-.84-.81.85.85,0,0,1,.81-.84.89.89,0,0,1,.85.86A.78.78,0,0,1,31.77,9.32Z"/><path d="M17.74,2.69a.82.82,0,0,1-.83.83.83.83,0,0,1-.85-.82.82.82,0,0,1,.86-.8A.79.79,0,0,1,17.74,2.69Z"/><path d="M8.07,8a.8.8,0,0,1-.84-.78.9.9,0,0,1,.87-.86.82.82,0,0,1,.8.84A.8.8,0,0,1,8.07,8Z"/><path d="M9.28,18.16a.82.82,0,0,1,.81.83.78.78,0,0,1-.8.8.87.87,0,0,1-.87-.85A.83.83,0,0,1,9.28,18.16Z"/><path d="M9.77,5a.87.87,0,0,1,.86-.84.79.79,0,0,1,.81.82A.84.84,0,0,1,9.77,5Z"/><path d="M29.08,20a.86.86,0,0,1-.86.83.78.78,0,0,1-.8-.82.82.82,0,0,1,.82-.82A.83.83,0,0,1,29.08,20Z"/><path d="M30.78,17a.8.8,0,0,1,.84.77.9.9,0,0,1-.86.88.83.83,0,0,1-.81-.84A.81.81,0,0,1,30.78,17Z"/><path d="M21.93,23a.78.78,0,0,1-.81-.79.82.82,0,0,1,.83-.83.83.83,0,0,1,.84.82A.82.82,0,0,1,21.93,23Z"/><path d="M32.88,12.46a.86.86,0,0,1-.9-.8.9.9,0,0,1,.86-.86.82.82,0,0,1,.79.87A.76.76,0,0,1,32.88,12.46Z"/><path d="M29.59,6.78A.81.81,0,0,1,28.76,6a.8.8,0,0,1,.81-.82.87.87,0,0,1,.86.84A.81.81,0,0,1,29.59,6.78Z"/><path d="M26.77,3.34a.83.83,0,0,1,.84.84.82.82,0,0,1-.85.78A.8.8,0,0,1,26,4.11.76.76,0,0,1,26.77,3.34Z"/><path d="M12.09,21.61a.84.84,0,0,1-.85-.84.82.82,0,0,1,.85-.79.81.81,0,0,1,.81.84A.77.77,0,0,1,12.09,21.61Z"/><path d="M5.22,13.27A.76.76,0,0,1,6,12.48a.86.86,0,0,1,.87.81.89.89,0,0,1-.86.85A.82.82,0,0,1,5.22,13.27Z"/><path d="M18.66,18.17a2,2,0,0,0,.08-.4q0-.9,0-1.8a1.76,1.76,0,0,0-.08-.37h.79a2.57,2.57,0,0,0-.08.38V17.8a2.74,2.74,0,0,0,.08.37Z"/></g><g class="cls-3"><path d="M19.07,24.18c-1.44,0-2.87,0-4.3,0a5.24,5.24,0,0,1-1.72-.26A17.43,17.43,0,0,1,6.87,20.7a11.69,11.69,0,0,1-4-5.9A9.81,9.81,0,0,1,4.26,6.46a14.36,14.36,0,0,1,5.6-4.85,18.74,18.74,0,0,1,4-1.49,1.54,1.54,0,0,1,.3,0c3.31,0,6.62,0,9.93,0a4.13,4.13,0,0,1,1.08.25,17.06,17.06,0,0,1,6.45,3.47,11.54,11.54,0,0,1,3.81,6,9.84,9.84,0,0,1-1.32,7.76,14.12,14.12,0,0,1-5.28,4.84,18.32,18.32,0,0,1-4.45,1.75l-.29,0Zm0-23.54a22.36,22.36,0,0,0-3.34.28A18.17,18.17,0,0,0,9.55,3.05a12.85,12.85,0,0,0-4.64,4.3,8.67,8.67,0,0,0-1.24,6.48,9.88,9.88,0,0,0,2.75,5,14.83,14.83,0,0,0,5.27,3.41,20.12,20.12,0,0,0,10.16,1.2,18.4,18.4,0,0,0,5.88-1.75,13.58,13.58,0,0,0,5.15-4.2,9,9,0,0,0,1.79-5.21,8.87,8.87,0,0,0-1.44-5,13,13,0,0,0-4.92-4.42A19.47,19.47,0,0,0,19.07.64Z"/><path d="M.62,23.83l4-3.89.43.48L5,20.5C3.82,21.65,2.63,22.79,1.45,24A.35.35,0,0,1,1,24Z"/><path d="M.63.44.78.33c.4-.24.43-.24.77.08L5,3.73l.16.12-.49.47Z"/><path d="M33.53,4.32l-.47-.45,2.35-2.28c.44-.43.9-.85,1.33-1.3a.31.31,0,0,1,.42-.08l.39.22Z"/><path d="M37.56,23.84a4.14,4.14,0,0,1-.53.25.24.24,0,0,1-.2-.05L33.06,20.4l.48-.45Z"/><path d="M38.19,22.56l-4.13-3.24.41-.51,1.38,1.08L38,21.58a.36.36,0,0,1,.17.35C38.18,22.12,38.19,22.31,38.19,22.56Z"/><path d="M0,22.55c0-.8,0-.8.53-1.25L3.7,18.81l.41.51Z"/><path d="M34.47,5.45l-.41-.51,4.13-3.23c0,.29,0,.54,0,.78a.2.2,0,0,1-.09.13Z"/><path d="M0,1.71,4.11,4.94l-.41.51L1.89,4C1.32,3.59.74,3.13.16,2.69A.37.37,0,0,1,0,2.32C0,2.13,0,1.94,0,1.71Z"/><path d="M31.9,21.4l.51-.42,2.73,3.2h-.83s-.07,0-.1-.07Z"/><path d="M3,24.18,5.76,21l.51.42L5.14,22.73,4,24.05a.29.29,0,0,1-.28.13Z"/><path d="M6.25,2.87l-.49.42L3,.08h.8A.23.23,0,0,1,4,.16L6.22,2.81A.16.16,0,0,1,6.25,2.87Z"/><path d="M32.41,3.28l-.5-.41.87-1c.46-.54.91-1.08,1.38-1.61a.46.46,0,0,1,.28-.13c.21,0,.43,0,.7,0Z"/><path d="M38.19,4.1c0,.25,0,.47,0,.68a.17.17,0,0,1-.08.13L35.29,6.65l-.36-.55Z"/><path d="M34.93,18.16l.36-.55.22.13c.84.53,1.68,1.05,2.53,1.56a.26.26,0,0,1,.15.27c0,.19,0,.37,0,.6Z"/><path d="M2.88,17.61l.36.55L0,20.17c0-.25,0-.47,0-.68a.21.21,0,0,1,.09-.15Z"/><path d="M3.24,6.1l-.35.55-.15-.09L.14,5A.3.3,0,0,1,0,4.67c0-.18,0-.36,0-.57Z"/><path d="M35.93,7.9l-.26-.57,2.52-1.16c0,.23,0,.43,0,.63a.19.19,0,0,1-.09.14L36,7.9Z"/><path d="M0,6.17,2.5,7.33l-.27.6-.66-.31L.13,7A.19.19,0,0,1,0,6.74C0,6.56,0,6.38,0,6.17Z"/><path d="M2.23,16.33l.27.6L0,18.08A.64.64,0,0,0,0,18a.71.71,0,0,1,.56-.91C1.11,16.9,1.65,16.6,2.23,16.33Z"/><path d="M38.19,18.09l-2.52-1.16.27-.59.34.15L38,17.3c.11.05.16.1.15.23S38.19,17.88,38.19,18.09Z"/><path d="M30.69,22.3l.54-.37,1.59,2.25h-.74a.19.19,0,0,1-.12-.07Z"/><path d="M31.23,2.33,30.69,2l.36-.52c.29-.41.57-.82.87-1.22a.38.38,0,0,1,.25-.13c.2,0,.41,0,.65,0Z"/><path d="M7.48,2l-.54.37L5.35.08h.74a.15.15,0,0,1,.12.07Z"/><path d="M5.35,24.18l1.59-2.25.54.37-.37.54-.87,1.22a.37.37,0,0,1-.22.12C5.81,24.19,5.6,24.18,5.35,24.18Z"/><path d="M0,8.71V8l2,.62-.2.62Z"/><path d="M36.23,8.64l2-.62v.69l-1.75.55Z"/><path d="M38.18,15.55v.69l-2-.62.2-.62Z"/><path d="M0,16.24v-.69L1.74,15l.2.62Z"/><path d="M0,9.65l1.54.27-.11.64-1-.16C-.07,10.29-.1,10.25,0,9.65Z"/><path d="M38.18,14.62l-1.56-.28.11-.64,1.45.25Z"/><path d="M1.44,13.7l.11.64L0,14.62V14Z"/><path d="M36.73,10.56l-.11-.64,1.57-.28c0,.21,0,.39,0,.57a.13.13,0,0,1-.08.11Z"/><path d="M8.23,22.75l.58.33c-.21.35-.41.71-.62,1.05a.19.19,0,0,1-.13.05H7.4Z"/><path d="M8.81,1.18l-.58.33L7.4.08h.67a.23.23,0,0,1,.16.1Z"/><path d="M29.94,1.51l-.57-.33.6-1A.17.17,0,0,1,30.1.09h.67Z"/><path d="M30.77,24.18c-.25,0-.47,0-.68,0a.19.19,0,0,1-.12-.07l-.6-1,.57-.33Z"/><path d="M38.17,13.14H36.84v-.62h1.33Z"/><path d="M0,12.52H1.32v.6L0,13.18Z"/><path d="M0,11.12H1.33v.63H0Z"/><path d="M36.84,11.74v-.61h1.33v.61Z"/><path d="M28,.46c.18-.42.18-.42.9-.36l-.3.63Z"/><path d="M10.21,23.8c-.13.38-.13.38-.51.38H9.32l.31-.65Z"/><path d="M28.85,24.18H28.5c-.29,0-.49,0-.53-.38l.57-.27Z"/><path d="M10.25.44,9.63.73,9.32.08A2.3,2.3,0,0,1,10,.1C10.08.13,10.15.31,10.25.44Z"/><path d="M15,11.2c.17,0,.35.05.53.1a1.32,1.32,0,0,1-.11,2.58,2.93,2.93,0,0,1-1,0,1.26,1.26,0,0,1-1-1.34,1.3,1.3,0,0,1,1.06-1.23C14.68,11.24,14.85,11.23,15,11.2Zm.76,1.38a.79.79,0,0,0-1.58,0,.8.8,0,0,0,1.58,0Z"/><path d="M15.23,8.82l.83,1.06H15c.22-.12.11-.24,0-.36a1.54,1.54,0,0,1-.21-.29c-.18-.4-.5-.46-.92-.37.05.33-.09.69.11,1h-.83a2,2,0,0,0,.09-.41c0-.6,0-1.2,0-1.79a2,2,0,0,0-.08-.38h0c.68,0,1.36,0,2,0a.7.7,0,0,1,.7.94.61.61,0,0,1-.4.44ZM13.75,8.3h.91a3,3,0,0,0,.42,0A.24.24,0,0,0,15.31,8c0-.08-.11-.21-.17-.21-.46,0-.92,0-1.39,0Z"/><path d="M23.85,13.87H23c0-.09,0-.2,0-.24-.48-.48-1-1-1.48-1.43a5.77,5.77,0,0,0,.07,1.66h-.76a1.86,1.86,0,0,0,.1-.37q0-.91,0-1.83a2,2,0,0,0-.1-.38h1c-.15.11-.14.2,0,.3l1.3,1.27.07.05A2.89,2.89,0,0,0,23,11.29h.81c0,.15-.07.32-.08.48q0,.87,0,1.74A1.52,1.52,0,0,0,23.85,13.87Z"/><path d="M20.83,15.26c0,.11,0,.22.06.28l1.33,1.3.08,0c0-.47,0-.94,0-1.4,0-.07-.08-.13-.13-.21H23a2.93,2.93,0,0,0-.1.37v1.85a2.46,2.46,0,0,0,.09.34h-.8c0-.08,0-.19-.06-.25l-1.44-1.41a3.41,3.41,0,0,0,.1,1.66H20a1.66,1.66,0,0,0,.09-.37c0-.61,0-1.22,0-1.82a1.81,1.81,0,0,0-.09-.37Z"/><path d="M26.1,16.85c-.28,0-.57-.1-.82.12v-.59c.16,0,.32.06.48.07.32,0,.65,0,1,0a1,1,0,0,0,0,1,2.61,2.61,0,0,1-2.39.24,1.31,1.31,0,0,1-.6-.69A1.37,1.37,0,0,1,25,15.2a2.79,2.79,0,0,1,1.15.15c.11,0,.24.05.38.09l-.3.62a.83.83,0,0,0-.66-.35,2.05,2.05,0,0,0-.74.07.78.78,0,0,0-.5.9.81.81,0,0,0,.81.72,3.12,3.12,0,0,0,.61,0C26.13,17.3,26.14,17.27,26.1,16.85Z"/><path d="M27.41,11.46l-.3.62a1.27,1.27,0,0,0-1.23-.34.84.84,0,0,0-.69.86.81.81,0,0,0,.74.81,2.63,2.63,0,0,0,.74,0c.35-.06.37-.11.31-.51-.27,0-.55-.1-.81.12V12.4a1.84,1.84,0,0,0,.38.08h1.09a1,1,0,0,0,0,1,2.57,2.57,0,0,1-2.44.22,1.23,1.23,0,0,1-.59-.8,1.35,1.35,0,0,1,1.09-1.65,2.55,2.55,0,0,1,1.31.11A3.19,3.19,0,0,0,27.41,11.46Z"/><path d="M17.49,8.35c.41-.06.82.09,1.21-.1V8.9c-.39-.22-.8,0-1.21-.12v.66h1.68c.06,0,.13-.07.21-.12V10A1.72,1.72,0,0,0,19,9.91H16.76a1.93,1.93,0,0,0,.08-.39c0-.61,0-1.23,0-1.84a1.68,1.68,0,0,0-.08-.36H19a1.57,1.57,0,0,0,.33-.08v.65A1.58,1.58,0,0,0,19,7.77H17.49Z"/><path d="M14.56,15.25h.85c-.26.3-.08.64-.15,1h1.51c-.06-.32.1-.66-.13-1h.82a3.21,3.21,0,0,0-.07.43c0,.6,0,1.2,0,1.8a1.09,1.09,0,0,0,.09.33h-.82c.2-.34,0-.72.11-1.09h-1.5c.06.37-.11.74.12,1.09h-.82a2.44,2.44,0,0,0,.07-.39q0-.9,0-1.8A1.44,1.44,0,0,0,14.56,15.25Z"/><path d="M10.5,8.81c.08.39-.1.74.14,1.07H9.81a2.11,2.11,0,0,0,.08-.45c0-.57,0-1.15,0-1.73a2,2,0,0,0-.09-.39h0c.66,0,1.32,0,2,0a.72.72,0,0,1,.72.95.71.71,0,0,1-.72.52C11.39,8.82,11,8.81,10.5,8.81Zm0-.51h1.31A.24.24,0,0,0,12,8c0-.08-.11-.22-.17-.22-.46,0-.92,0-1.4,0Z"/><path d="M17.2,11.28H18a2.62,2.62,0,0,0-.09.38c0,.42,0,.83,0,1.25a.42.42,0,0,0,.38.48,1.89,1.89,0,0,0,.67,0,.43.43,0,0,0,.39-.49c0-.45,0-.89,0-1.34a.86.86,0,0,0-.1-.28H20c0,.17-.06.34-.07.52,0,.46,0,.92,0,1.37a.69.69,0,0,1-.55.65,2.54,2.54,0,0,1-1.52,0,.73.73,0,0,1-.56-.76c0-.46,0-.92,0-1.38A2.13,2.13,0,0,0,17.2,11.28Z"/><path d="M10.34,11.27h1.07l.12,0c-.26.11-.18.24-.08.38l.39.53c.16-.23.31-.43.44-.65,0-.06,0-.17,0-.27h1a7.91,7.91,0,0,0-1.12,1.4.27.27,0,0,0,0,.18c0,.23,0,.45,0,.68a1.29,1.29,0,0,0,.08.31h-.87c.25-.19.12-.45.15-.67a.93.93,0,0,0-.26-.81c-.16-.19-.29-.4-.44-.59S10.5,11.45,10.34,11.27Z"/><path d="M25.93,7.31H27c-.26.15-.15.29,0,.43l.36.5c.16-.23.32-.44.45-.67,0-.05,0-.16-.06-.25h1a8,8,0,0,0-1.13,1.4.34.34,0,0,0,0,.18c0,.22,0,.44,0,.66a1.46,1.46,0,0,0,.1.32h-.82c0-.12.07-.25.09-.38a1.48,1.48,0,0,0-.43-1.33,4.62,4.62,0,0,1-.37-.5A2.92,2.92,0,0,1,25.93,7.31Z"/><path d="M24.6,9.89h-.79a4.18,4.18,0,0,0,.07-.51c0-.53,0-1.06,0-1.62-.34.06-.68-.11-1,.14V7.21a1.59,1.59,0,0,0,.35.08h1.95a1.32,1.32,0,0,0,.33-.08V7.9c-.3-.25-.65-.08-1-.15v.41c0,.44,0,.87,0,1.31A3.15,3.15,0,0,0,24.6,9.89Z"/><path d="M20.9,7.76c-.34,0-.68-.1-1,.13V7.22a2.33,2.33,0,0,0,.36.08h1.9a1.76,1.76,0,0,0,.37-.08V7.9c-.31-.25-.65-.08-1-.14V9c0,.16,0,.32,0,.49a2.61,2.61,0,0,0,.08.36h-.8a3.55,3.55,0,0,0,.09-.47C20.91,8.88,20.9,8.34,20.9,7.76Z"/><path d="M11.31,15.16a1.4,1.4,0,0,0,.34.08H13.6a1.44,1.44,0,0,0,.33-.08v.67c-.3-.24-.65-.06-1-.13v.89c0,.29,0,.58,0,.87a1.72,1.72,0,0,0,.07.37h-.79a1.76,1.76,0,0,0,.08-.37c0-.57,0-1.14,0-1.75-.34,0-.68-.11-1,.12Z"/><path d="M6.89,9.7a.84.84,0,0,1-.87.8.76.76,0,0,1-.78-.79.83.83,0,0,1,.83-.86A.85.85,0,0,1,6.89,9.7Z"/><path d="M13.3,4a.86.86,0,0,1-.86-.81.86.86,0,0,1,.86-.82.8.8,0,0,1,.83.78A.85.85,0,0,1,13.3,4Z"/><path d="M22.43,2.66a.79.79,0,0,1,.83-.79.84.84,0,0,1,.85.82.87.87,0,0,1-.86.82A.84.84,0,0,1,22.43,2.66Z"/><path d="M24.89,20.29a.84.84,0,0,1,.84.8.85.85,0,0,1-.88.82.79.79,0,0,1-.81-.8A.84.84,0,0,1,24.89,20.29Z"/><path d="M15.74,21.6a.8.8,0,0,1-.81.79.84.84,0,0,1-.87-.8.86.86,0,0,1,.85-.83A.84.84,0,0,1,15.74,21.6Z"/><path d="M32.11,15.42a.85.85,0,0,1-.82-.85.82.82,0,0,1,.85-.8.77.77,0,0,1,.8.78A.85.85,0,0,1,32.11,15.42Z"/><path d="M20,1.4a.82.82,0,0,1,.82.82.84.84,0,0,1-1.68,0A.82.82,0,0,1,20,1.4Z"/><path d="M19.08,22.07a.82.82,0,0,1-.84.8.84.84,0,0,1-.84-.79.86.86,0,0,1,.85-.85A.84.84,0,0,1,19.08,22.07Z"/><path d="M6.75,15.29a.81.81,0,0,1,.84.8.85.85,0,0,1-.81.84.89.89,0,0,1-.86-.87A.77.77,0,0,1,6.75,15.29Z"/><path d="M31.43,9a.8.8,0,0,1-.84-.81.85.85,0,0,1,.81-.84.89.89,0,0,1,.85.86A.78.78,0,0,1,31.43,9Z"/><path d="M17.4,2.35a.83.83,0,0,1-.83.83.84.84,0,0,1-.85-.82.82.82,0,0,1,.86-.8A.79.79,0,0,1,17.4,2.35Z"/><path d="M7.73,7.62a.8.8,0,0,1-.84-.78A.9.9,0,0,1,7.76,6a.82.82,0,0,1,.8.84A.8.8,0,0,1,7.73,7.62Z"/><path d="M8.94,17.82a.82.82,0,0,1,.81.83.78.78,0,0,1-.8.8.87.87,0,0,1-.87-.85A.83.83,0,0,1,8.94,17.82Z"/><path d="M9.43,4.65a.87.87,0,0,1,.86-.84.79.79,0,0,1,.81.82.84.84,0,0,1-1.67,0Z"/><path d="M28.74,19.62a.86.86,0,0,1-.86.83.78.78,0,0,1-.8-.82.82.82,0,0,1,.82-.82A.83.83,0,0,1,28.74,19.62Z"/><path d="M30.44,16.64a.8.8,0,0,1,.84.77.9.9,0,0,1-.86.88.83.83,0,0,1-.81-.84A.81.81,0,0,1,30.44,16.64Z"/><path d="M21.59,22.7a.78.78,0,0,1-.81-.79.82.82,0,0,1,.83-.83.83.83,0,0,1,.84.82A.82.82,0,0,1,21.59,22.7Z"/><path d="M32.54,12.12a.86.86,0,0,1-.9-.8.9.9,0,0,1,.86-.86.82.82,0,0,1,.79.87A.76.76,0,0,1,32.54,12.12Z"/><path d="M29.25,6.44a.81.81,0,0,1-.83-.81.8.8,0,0,1,.81-.82.87.87,0,0,1,.86.84A.81.81,0,0,1,29.25,6.44Z"/><path d="M26.43,3a.83.83,0,0,1,.84.84.82.82,0,0,1-.85.78.8.8,0,0,1-.81-.85A.76.76,0,0,1,26.43,3Z"/><path d="M11.75,21.27a.84.84,0,0,1-.85-.84.82.82,0,0,1,.85-.79.81.81,0,0,1,.81.84A.77.77,0,0,1,11.75,21.27Z"/><path d="M4.88,12.93a.76.76,0,0,1,.78-.79.86.86,0,0,1,.87.81.89.89,0,0,1-.86.85A.82.82,0,0,1,4.88,12.93Z"/><path d="M18.32,17.83a2,2,0,0,0,.08-.4q0-.9,0-1.8a1.76,1.76,0,0,0-.08-.37h.79a2.57,2.57,0,0,0-.08.38v1.82a2.74,2.74,0,0,0,.08.37Z"/></g><path class="cls-4" d="M19.27,24.38c-1.44,0-2.87,0-4.3,0a5.63,5.63,0,0,1-1.73-.26,17.49,17.49,0,0,1-6.17-3.24,11.67,11.67,0,0,1-4-5.89A9.81,9.81,0,0,1,4.46,6.66a14.28,14.28,0,0,1,5.6-4.85A18,18,0,0,1,14,.32a1.55,1.55,0,0,1,.29,0c3.31,0,6.63,0,9.94,0a3.76,3.76,0,0,1,1.08.25A16.92,16.92,0,0,1,31.78,4a11.5,11.5,0,0,1,3.81,6,9.84,9.84,0,0,1-1.32,7.76A14.12,14.12,0,0,1,29,22.6a18.45,18.45,0,0,1-4.45,1.74,1,1,0,0,1-.3,0Zm0-23.54a22.25,22.25,0,0,0-3.34.28A18,18,0,0,0,9.75,3.25a12.77,12.77,0,0,0-4.64,4.3A8.67,8.67,0,0,0,3.87,14a9.88,9.88,0,0,0,2.75,5,14.83,14.83,0,0,0,5.27,3.41,20.12,20.12,0,0,0,10.16,1.2,18.4,18.4,0,0,0,5.88-1.75,13.58,13.58,0,0,0,5.15-4.2,9,9,0,0,0,1.79-5.22,8.81,8.81,0,0,0-1.44-5,13,13,0,0,0-4.92-4.42A19.47,19.47,0,0,0,19.27.84Z"/><path class="cls-4" d="M.82,24l4-3.9.44.49-.07.08C4,21.85,2.83,23,1.65,24.15a.35.35,0,0,1-.49.07Z"/><path class="cls-4" d="M.83.64,1,.53c.4-.25.43-.24.77.08L5.17,3.93s.1.07.16.12l-.49.47Z"/><path class="cls-4" d="M33.73,4.52l-.48-.45L35.6,1.79c.45-.43.9-.86,1.34-1.3a.31.31,0,0,1,.42-.08l.39.22Z"/><path class="cls-4" d="M37.76,24c-.19.09-.36.18-.53.25a.24.24,0,0,1-.2-.05L33.26,20.6l.48-.45Z"/><path class="cls-4" d="M38.39,22.76l-4.13-3.24.41-.51,1.38,1.08,2.17,1.69a.36.36,0,0,1,.17.35C38.38,22.32,38.39,22.51,38.39,22.76Z"/><path class="cls-4" d="M.19,22.75c0-.8,0-.8.53-1.25L3.9,19l.41.51Z"/><path class="cls-4" d="M34.67,5.65l-.41-.51L38.39,1.9c0,.29,0,.54,0,.79a.2.2,0,0,1-.09.13Z"/><path class="cls-4" d="M.18,1.9,4.31,5.14l-.41.51L2.09,4.24C1.51,3.79.94,3.33.36,2.89a.37.37,0,0,1-.18-.37C.19,2.33.18,2.14.18,1.9Z"/><path class="cls-4" d="M32.1,21.6l.51-.42,2.73,3.2h-.83a.14.14,0,0,1-.1-.07Z"/><path class="cls-4" d="M3.23,24.38,6,21.18l.5.42L5.33,22.93,4.21,24.25a.29.29,0,0,1-.28.13Z"/><path class="cls-4" d="M6.45,3.07,6,3.48,3.23.28H4a.29.29,0,0,1,.14.08L6.42,3S6.43,3,6.45,3.07Z"/><path class="cls-4" d="M32.61,3.48l-.51-.42L33,2c.46-.54.91-1.08,1.38-1.61a.46.46,0,0,1,.27-.13c.22,0,.44,0,.71,0Z"/><path class="cls-4" d="M38.39,4.29c0,.26,0,.48,0,.69a.17.17,0,0,1-.08.13L35.49,6.85l-.36-.55Z"/><path class="cls-4" d="M35.13,18.36l.36-.55.21.13c.85.52,1.69,1,2.54,1.56a.26.26,0,0,1,.15.27c0,.19,0,.37,0,.6Z"/><path class="cls-4" d="M3.08,17.81l.35.55-3.25,2c0-.25,0-.47,0-.69a.18.18,0,0,1,.09-.14Z"/><path class="cls-4" d="M3.43,6.3l-.34.54-.15-.08C2.07,6.23,1.21,5.69.34,5.17a.3.3,0,0,1-.16-.31c0-.17,0-.35,0-.57Z"/><path class="cls-4" d="M36.13,8.1l-.27-.57,2.53-1.16c0,.23,0,.43,0,.63a.22.22,0,0,1-.09.14l-2.09,1Z"/><path class="cls-4" d="M.18,6.37,2.7,7.53l-.28.6-.65-.31L.33,7.16a.19.19,0,0,1-.15-.22C.19,6.76.18,6.58.18,6.37Z"/><path class="cls-4" d="M2.42,16.53l.28.6L.2,18.28a.31.31,0,0,0,0-.07.71.71,0,0,1,.56-.91A17.9,17.9,0,0,0,2.42,16.53Z"/><path class="cls-4" d="M38.39,18.29l-2.52-1.16.27-.59.34.14,1.76.82a.2.2,0,0,1,.15.23C38.38,17.9,38.39,18.08,38.39,18.29Z"/><path class="cls-4" d="M30.89,22.5l.54-.37L33,24.38h-.75a.15.15,0,0,1-.11-.08C31.73,23.71,31.31,23.11,30.89,22.5Z"/><path class="cls-4" d="M31.43,2.53l-.54-.37.36-.52c.29-.41.57-.82.87-1.22a.38.38,0,0,1,.25-.13c.2,0,.4,0,.65,0Z"/><path class="cls-4" d="M7.68,2.16l-.54.37L5.55.28h.74a.23.23,0,0,1,.12.08Z"/><path class="cls-4" d="M5.55,24.38l1.58-2.25.55.37L7.3,23c-.28.4-.57.82-.86,1.22a.37.37,0,0,1-.22.12C6,24.39,5.8,24.38,5.55,24.38Z"/><path class="cls-4" d="M.19,8.91V8.22l2,.62-.2.62Z"/><path class="cls-4" d="M36.43,8.84l2-.62v.69l-1.75.55Z"/><path class="cls-4" d="M38.38,15.75v.69l-2-.62.2-.62Z"/><path class="cls-4" d="M.19,16.44v-.69l1.75-.55.2.62Z"/><path class="cls-4" d="M.21,9.85l1.54.27-.11.64-1-.17C.12,10.49.1,10.45.21,9.85Z"/><path class="cls-4" d="M38.38,14.82l-1.56-.28.11-.64,1.45.25Z"/><path class="cls-4" d="M1.64,13.9l.11.64-1.56.28v-.67Z"/><path class="cls-4" d="M36.93,10.76l-.12-.64,1.58-.28c0,.2,0,.39,0,.57a.15.15,0,0,1-.08.11Z"/><path class="cls-4" d="M8.43,23l.58.32-.62,1.06a.19.19,0,0,1-.13.05H7.6Z"/><path class="cls-4" d="M9,1.38l-.57.33L7.6.28c.25,0,.46,0,.66,0a.21.21,0,0,1,.16.1C8.62.71,8.8,1,9,1.38Z"/><path class="cls-4" d="M30.14,1.71l-.58-.33c.21-.35.4-.69.61-1A.2.2,0,0,1,30.3.28H31Z"/><path class="cls-4" d="M31,24.38h-.69a.16.16,0,0,1-.11-.07l-.61-1,.58-.33Z"/><path class="cls-4" d="M38.37,13.34H37v-.62h1.33Z"/><path class="cls-4" d="M.2,12.72H1.52v.6L.2,13.38Z"/><path class="cls-4" d="M.19,11.32H1.53v.62H.19Z"/><path class="cls-4" d="M37,11.94v-.61h1.33v.61Z"/><path class="cls-4" d="M28.15.66c.18-.42.18-.42.9-.37l-.31.64Z"/><path class="cls-4" d="M10.41,24c-.14.38-.14.38-.51.38H9.52l.3-.65Z"/><path class="cls-4" d="M29.05,24.38H28.7c-.29,0-.49,0-.53-.39l.57-.26Z"/><path class="cls-4" d="M10.45.64,9.83.93,9.51.28a2.35,2.35,0,0,1,.66,0C10.28.33,10.35.51,10.45.64Z"/><path class="cls-4" d="M15.23,11.4c.17,0,.35,0,.53.1a1.28,1.28,0,0,1,1,1.4,1.26,1.26,0,0,1-1.1,1.17,2.64,2.64,0,0,1-1,0,1.26,1.26,0,0,1-1-1.35,1.3,1.3,0,0,1,1.06-1.23ZM16,12.78a.75.75,0,0,0-.78-.72.71.71,0,1,0,0,1.42A.74.74,0,0,0,16,12.78Z"/><path class="cls-4" d="M15.42,9l.84,1.06H15.21c.22-.12.11-.24,0-.36a1.49,1.49,0,0,1-.2-.29c-.18-.41-.5-.46-.92-.37.05.33-.1.69.11,1h-.83a3,3,0,0,0,.09-.41q0-.9,0-1.8a1.42,1.42,0,0,0-.09-.37h0c.68,0,1.36,0,2,0a.71.71,0,0,1,.7,1,.65.65,0,0,1-.4.44ZM14,8.5h.91a3,3,0,0,0,.42,0,.24.24,0,0,0,.23-.28c0-.08-.11-.21-.17-.21-.46,0-.92,0-1.39,0Z"/><path class="cls-4" d="M24.05,14.06h-.82c0-.08,0-.19,0-.23-.48-.48-1-1-1.48-1.43a5.79,5.79,0,0,0,.07,1.66H21a1.75,1.75,0,0,0,.09-.38c0-.6,0-1.21,0-1.82a1.39,1.39,0,0,0-.09-.38h1c-.15.11-.14.19,0,.3l1.3,1.27.07,0a2.77,2.77,0,0,0-.14-1.6H24A3.7,3.7,0,0,0,24,12q0,.87,0,1.74A1.34,1.34,0,0,0,24.05,14.06Z"/><path class="cls-4" d="M21,15.46c0,.11,0,.22.06.27.43.45.88.88,1.33,1.31l.07,0c0-.48,0-.94,0-1.4,0-.07-.08-.13-.13-.21h.8a1.7,1.7,0,0,0-.1.37c0,.62,0,1.23,0,1.84a1.5,1.5,0,0,0,.09.35h-.8c0-.08,0-.2-.06-.25l-1.44-1.41A3.41,3.41,0,0,0,21,18h-.8a2.49,2.49,0,0,0,.09-.37V15.83a2.83,2.83,0,0,0-.09-.37Z"/><path class="cls-4" d="M26.29,17c-.27,0-.56-.09-.81.13v-.6a2.42,2.42,0,0,0,.47.07c.33,0,.66,0,1,0a.93.93,0,0,0,0,1,2.55,2.55,0,0,1-2.39.24,1.21,1.21,0,0,1-.6-.68,1.37,1.37,0,0,1,1.24-1.82,2.83,2.83,0,0,1,1.15.15l.38.08-.3.63a.85.85,0,0,0-.66-.35A2,2,0,0,0,25,16a.79.79,0,0,0-.51.9.83.83,0,0,0,.82.72,2.51,2.51,0,0,0,.61,0C26.33,17.5,26.34,17.47,26.29,17Z"/><path class="cls-4" d="M27.61,11.66l-.3.62a1.27,1.27,0,0,0-1.23-.34.84.84,0,0,0-.69.86.8.8,0,0,0,.74.81,2.63,2.63,0,0,0,.74,0c.35-.06.37-.11.31-.51-.27,0-.55-.1-.81.12v-.6a1.89,1.89,0,0,0,.38.09h1.09a.94.94,0,0,0,0,1,2.56,2.56,0,0,1-2.45.21,1.25,1.25,0,0,1-.59-.79,1.36,1.36,0,0,1,1.09-1.65,2.69,2.69,0,0,1,1.32.1A3.08,3.08,0,0,0,27.61,11.66Z"/><path class="cls-4" d="M17.68,8.55c.42-.06.83.09,1.22-.11V9.1c-.39-.22-.8,0-1.21-.12v.66h1.67c.07,0,.14-.08.22-.12v.67a1.69,1.69,0,0,0-.38-.07H17A1.93,1.93,0,0,0,17,9.71c0-.62,0-1.23,0-1.84A1.68,1.68,0,0,0,17,7.51h2.21a1,1,0,0,0,.33-.09v.66A1.13,1.13,0,0,0,19.15,8H17.68Z"/><path class="cls-4" d="M14.76,15.45h.85c-.26.3-.08.64-.15,1H17c-.06-.33.11-.66-.13-1h.83a3,3,0,0,0-.07.43q0,.9,0,1.8a1.44,1.44,0,0,0,.08.33h-.81c.2-.34,0-.72.11-1.09H15.46c.07.36-.1.74.13,1.09h-.82a2.44,2.44,0,0,0,.07-.39q0-.9,0-1.8A2,2,0,0,0,14.76,15.45Z"/><path class="cls-4" d="M10.7,9c.07.39-.1.74.14,1.07H10c0-.14.07-.29.08-.45,0-.58,0-1.15,0-1.73A3.1,3.1,0,0,0,10,7.51h0c.66,0,1.31,0,2,0A.74.74,0,1,1,12,9C11.59,9,11.17,9,10.7,9Zm0-.51H12a.24.24,0,0,0,.26-.27c0-.08-.11-.22-.17-.22-.46,0-.93,0-1.4,0Z"/><path class="cls-4" d="M17.4,11.48h.82a1.75,1.75,0,0,0-.09.38c0,.41,0,.83,0,1.25a.42.42,0,0,0,.38.48,1.89,1.89,0,0,0,.67,0,.43.43,0,0,0,.39-.5c0-.44,0-.89,0-1.33a.86.86,0,0,0-.1-.28h.76c0,.17-.06.34-.07.52,0,.46,0,.91,0,1.37a.69.69,0,0,1-.55.65,2.47,2.47,0,0,1-1.52,0,.72.72,0,0,1-.56-.75c0-.46,0-.92,0-1.38A2.13,2.13,0,0,0,17.4,11.48Z"/><path class="cls-4" d="M10.53,11.47h1.08l.12,0c-.26.11-.18.24-.08.37l.39.54c.16-.23.31-.43.44-.65,0-.06,0-.17,0-.27h1a8,8,0,0,0-1.13,1.4.34.34,0,0,0,0,.18c0,.22,0,.45,0,.68a2,2,0,0,0,.09.3h-.87c.25-.18.12-.44.15-.67a1,1,0,0,0-.26-.81c-.16-.18-.29-.39-.45-.59S10.69,11.65,10.53,11.47Z"/><path class="cls-4" d="M26.13,7.51h1.05c-.26.15-.16.29-.05.43l.37.49c.16-.23.32-.43.45-.66,0,0,0-.16-.06-.26h1.05a8.42,8.42,0,0,0-1.13,1.41.34.34,0,0,0,0,.18q0,.33,0,.66a2.23,2.23,0,0,0,.09.32h-.81c0-.12.07-.25.09-.38a1.47,1.47,0,0,0-.43-1.33,4.7,4.7,0,0,1-.38-.5C26.25,7.73,26.17,7.59,26.13,7.51Z"/><path class="cls-4" d="M24.8,10.09H24c0-.17.06-.34.07-.51,0-.53,0-1.06,0-1.62-.34.06-.68-.11-1,.14V7.41a1.47,1.47,0,0,0,.35.08h1.95a1.32,1.32,0,0,0,.33-.08v.68c-.3-.24-.65-.07-1-.14v.41c0,.43,0,.87,0,1.31A3.15,3.15,0,0,0,24.8,10.09Z"/><path class="cls-4" d="M21.1,8c-.35,0-.68-.1-1,.13V7.42a2.29,2.29,0,0,0,.36.07h1.9a1.76,1.76,0,0,0,.37-.08V8.1c-.31-.25-.66-.08-1-.14V9.24a3.85,3.85,0,0,0,0,.48,2.74,2.74,0,0,0,.08.37H21a3.55,3.55,0,0,0,.09-.47C21.11,9.08,21.1,8.54,21.1,8Z"/><path class="cls-4" d="M11.5,15.36a1.59,1.59,0,0,0,.35.08h2a1.17,1.17,0,0,0,.33-.09V16c-.3-.24-.65-.07-1-.14v.9c0,.29,0,.57,0,.86a1.69,1.69,0,0,0,.07.38h-.79a1.76,1.76,0,0,0,.08-.37c0-.57,0-1.14,0-1.75-.34,0-.68-.11-1,.12Z"/><path class="cls-4" d="M7.08,9.9a.83.83,0,0,1-.86.8.78.78,0,0,1-.79-.8.83.83,0,1,1,1.65,0Z"/><path class="cls-4" d="M13.5,4.18a.86.86,0,0,1-.86-.82.84.84,0,0,1,.86-.81.79.79,0,0,1,.83.78A.85.85,0,0,1,13.5,4.18Z"/><path class="cls-4" d="M22.63,2.85a.79.79,0,0,1,.82-.78.85.85,0,0,1,.86.81.86.86,0,0,1-.86.82A.83.83,0,0,1,22.63,2.85Z"/><path class="cls-4" d="M25.08,20.49a.84.84,0,0,1,.85.8.86.86,0,0,1-.88.82.79.79,0,0,1-.81-.8A.83.83,0,0,1,25.08,20.49Z"/><path class="cls-4" d="M15.94,21.8a.8.8,0,0,1-.82.79.84.84,0,0,1-.86-.81.85.85,0,0,1,.85-.82A.84.84,0,0,1,15.94,21.8Z"/><path class="cls-4" d="M32.31,15.62a.85.85,0,0,1-.83-.85.84.84,0,0,1,.86-.81.77.77,0,0,1,.79.79A.84.84,0,0,1,32.31,15.62Z"/><path class="cls-4" d="M20.14,1.6a.82.82,0,0,1,.83.81.84.84,0,0,1-1.68,0A.82.82,0,0,1,20.14,1.6Z"/><path class="cls-4" d="M19.28,22.27a.82.82,0,0,1-.84.79.83.83,0,0,1-.84-.78.85.85,0,0,1,.84-.85A.85.85,0,0,1,19.28,22.27Z"/><path class="cls-4" d="M7,15.49a.8.8,0,0,1,.83.79.84.84,0,0,1-.8.85.89.89,0,0,1-.86-.87A.77.77,0,0,1,7,15.49Z"/><path class="cls-4" d="M31.63,9.18a.82.82,0,0,1-.85-.81.85.85,0,0,1,.82-.84.89.89,0,0,1,.85.86A.8.8,0,0,1,31.63,9.18Z"/><path class="cls-4" d="M17.59,2.55a.82.82,0,0,1-.83.83.83.83,0,0,1-.84-.82.82.82,0,0,1,.86-.8A.78.78,0,0,1,17.59,2.55Z"/><path class="cls-4" d="M7.93,7.82A.8.8,0,0,1,7.09,7,.91.91,0,0,1,8,6.17a.84.84,0,0,1,.8.85A.8.8,0,0,1,7.93,7.82Z"/><path class="cls-4" d="M9.14,18a.81.81,0,0,1,.81.83.8.8,0,0,1-.81.8.87.87,0,0,1-.86-.86A.82.82,0,0,1,9.14,18Z"/><path class="cls-4" d="M9.63,4.85A.87.87,0,0,1,10.49,4a.8.8,0,0,1,.81.82.84.84,0,0,1-1.67,0Z"/><path class="cls-4" d="M28.94,19.82a.86.86,0,0,1-.86.83.79.79,0,0,1-.81-.82.84.84,0,0,1,1.67,0Z"/><path class="cls-4" d="M30.63,16.84a.8.8,0,0,1,.85.77.9.9,0,0,1-.86.87.82.82,0,0,1-.81-.83A.8.8,0,0,1,30.63,16.84Z"/><path class="cls-4" d="M21.79,22.9a.79.79,0,0,1-.82-.79.83.83,0,0,1,.83-.83.84.84,0,0,1,.85.82A.82.82,0,0,1,21.79,22.9Z"/><path class="cls-4" d="M32.73,12.32a.86.86,0,0,1-.89-.8.89.89,0,0,1,.86-.86.82.82,0,0,1,.79.87A.77.77,0,0,1,32.73,12.32Z"/><path class="cls-4" d="M29.45,6.64a.81.81,0,0,1-.83-.81A.8.8,0,0,1,29.43,5a.87.87,0,0,1,.86.84A.81.81,0,0,1,29.45,6.64Z"/><path class="cls-4" d="M26.63,3.2a.81.81,0,1,1,0,1.62.8.8,0,0,1-.8-.85A.76.76,0,0,1,26.63,3.2Z"/><path class="cls-4" d="M12,21.46a.83.83,0,0,1-.85-.83.82.82,0,0,1,.84-.79.8.8,0,0,1,.82.84A.76.76,0,0,1,12,21.46Z"/><path class="cls-4" d="M5.08,13.13a.76.76,0,0,1,.78-.79.84.84,0,0,1,.86.81.88.88,0,0,1-.85.85A.82.82,0,0,1,5.08,13.13Z"/><path class="cls-4" d="M18.52,18a2,2,0,0,0,.08-.41c0-.59,0-1.19,0-1.79a1.33,1.33,0,0,0-.09-.37h.8a1.72,1.72,0,0,0-.08.38c0,.6,0,1.21,0,1.82a1.76,1.76,0,0,0,.08.37Z"/></g></g></svg>