<svg xmlns="http://www.w3.org/2000/svg" viewBox="0 0 38.55 24.66"><defs><style>.cls-1{isolation:isolate;}.cls-2{opacity:0.15;}.cls-2,.cls-3{mix-blend-mode:multiply;}.cls-4{fill:#fff;}</style></defs><title>convert-FIX-SVG-03</title><g class="cls-1"><g id="Layer_1" data-name="Layer 1"><g class="cls-2"><path d="M1.5,2.79a.33.33,0,0,1,.15-.42,3.19,3.19,0,0,1,3.41-.24c.47.23.9.55,1.35.82a.72.72,0,0,0,.35.11A10.36,10.36,0,0,1,11.11,4a.36.36,0,0,0,.27,0A4.89,4.89,0,0,1,13,3.53a2.27,2.27,0,0,1,2.25,1.05,3.6,3.6,0,0,1-.42,4.55.43.43,0,0,0-.1.36c.08.6.14,1.21.21,1.82l0,.15a4.21,4.21,0,0,1,1.54-.8l1.68-.44a.24.24,0,0,0,0-.12c-.2-.41,0-.82,0-1.22V8.55L17.81,9a1.19,1.19,0,0,1-.29.21A.42.42,0,0,1,17,9.12a.41.41,0,0,1,0-.53,2.13,2.13,0,0,1,.43-.47,1.89,1.89,0,0,1,.33-.21,3.46,3.46,0,0,1-.49-.17,1.55,1.55,0,0,1-.43-.29A.36.36,0,0,1,16.71,7a.69.69,0,0,1,.4-.22,1,1,0,0,1,.72.31l.18.17a3.84,3.84,0,0,1,0-.49,2,2,0,0,1,.08-.41A.47.47,0,0,1,18.56,6a.48.48,0,0,1,.41.45,2.91,2.91,0,0,1-.09.58c0,.09-.07.18-.12.32.43-.17.83-.44,1.31-.05l.76-2.67-.06,0a1.07,1.07,0,0,1-.16.14,2.19,2.19,0,0,1-.44.31.42.42,0,0,1-.52-.13.48.48,0,0,1,0-.54,1.42,1.42,0,0,1,.64-.5l.2-.1c-.24-.11-.45-.2-.65-.31a.84.84,0,0,1-.27-.26.41.41,0,0,1,0-.48A.47.47,0,0,1,20,2.55a.71.71,0,0,1,.22.07.62.62,0,0,0,.61.09,3.13,3.13,0,0,1,.19-.54.45.45,0,0,1,.51-.25.5.5,0,0,1,.32.5,5.23,5.23,0,0,1-.18.68c0,.06-.06.11-.1.2.21-.06.37-.13.53-.16a1.2,1.2,0,0,1,.5,0c.13.06.29.21.3.33a.48.48,0,0,1-.2.42,2.67,2.67,0,0,1-.7.18h-.15a3.22,3.22,0,0,1,.37.39,1.15,1.15,0,0,1,.23.47.55.55,0,0,1-.16.4.37.37,0,0,1-.49,0,2.66,2.66,0,0,1-.41-.47,1.57,1.57,0,0,1-.13-.23l-.64,2.43C21,6.82,21.4,7,21.82,7a1,1,0,0,1-.16-.24,1.86,1.86,0,0,1-.15-.64.43.43,0,0,1,.27-.33.55.55,0,0,1,.45.13,2.39,2.39,0,0,1,.31.57c0,.08,0,.18.07.28.17-.22.3-.42.47-.6a.64.64,0,0,1,.3-.17.4.4,0,0,1,.46.12.39.39,0,0,1,0,.49,4,4,0,0,1-.48.53,2.07,2.07,0,0,1-.2.15,5.13,5.13,0,0,1,.66.21.59.59,0,0,1,.32.26.64.64,0,0,1,0,.45.4.4,0,0,1-.49.21A6.14,6.14,0,0,1,23,8.12L22.87,8a2.46,2.46,0,0,1,0,.52,1.82,1.82,0,0,1-.13.57.41.41,0,0,1-.43.24A.42.42,0,0,1,22,9a1.94,1.94,0,0,1,0-.42,2.58,2.58,0,0,0,0-.29,19.44,19.44,0,0,0-2.18,2.49l.15.09a1.84,1.84,0,0,1,.64,1.8A7.84,7.84,0,0,1,18,17.37,16.12,16.12,0,0,1,15,19.64a24.28,24.28,0,0,1-2.31,1.23,9,9,0,0,1-1.33.42v.62c0,.16,0,.32,0,.49s-.08.21-.22.16L11,19.15l.22,0L11.33,21a4.68,4.68,0,0,0,.54-.09,8.39,8.39,0,0,0,2.35-1.09A33.46,33.46,0,0,0,17,17.9a9.25,9.25,0,0,0,3-3.81.6.6,0,0,0,0-.24,10.56,10.56,0,0,1-.62.87,7.35,7.35,0,0,1-.86.81,1.81,1.81,0,0,1-1.57.35,1.43,1.43,0,0,0-.23,0l-.25.45s-.07,0-.09,0-.33-.13-.4-.25,0-.27.08-.44a4,4,0,0,1-1.68-2,5.07,5.07,0,0,1-2.92,2.53.88.88,0,0,0,0,.23c0,.11.09.22.14.33s.07.11.06.16c0,.46-.09.93-.14,1.4,0,.06,0,.11-.08.2a4.93,4.93,0,0,1-.46-.23,9.24,9.24,0,0,1-1-.69,1.41,1.41,0,0,0-1-.32l.53.64a5.22,5.22,0,0,1,1.05,3.37.66.66,0,0,1-.22.5c-.23.21-.43.44-.68.71-.05-.44-.08-.81-.12-1.18A15.81,15.81,0,0,0,9,17.93a1.91,1.91,0,0,0-.26-.56,1,1,0,0,0-.37-.29.25.25,0,0,0-.34.1,4.27,4.27,0,0,0-.77,2,10.53,10.53,0,0,0-.09,2.57c0,.1,0,.2,0,.33l-1-.53s-.05-.09-.06-.14A4.11,4.11,0,0,1,6.42,19a7.18,7.18,0,0,1,1.13-1.8L7.7,17a1.48,1.48,0,0,0-.32,0l-1.93.24c-.11,0-.22.05-.33.06s-.18,0-.15-.18A1.14,1.14,0,0,0,5,16.72c0-.32,0-.63,0-.95s0-.28-.23-.29a1.14,1.14,0,0,1-.24-.05c-.08.38-.14.75-.23,1.12a13,13,0,0,1-1.13,3.2,3.49,3.49,0,0,1-.94,1.18,7.36,7.36,0,0,1-.75.39V21a1.93,1.93,0,0,0,1.19-.92,9.62,9.62,0,0,0,1.11-2.52,12.07,12.07,0,0,0,.58-4,1.28,1.28,0,0,0,0-.19l0-.06L4,13.57a2.09,2.09,0,0,1-2.4,0,.34.34,0,0,1-.13-.25V7.05a1.89,1.89,0,0,1,.09-.38c.08-.39.17-.78.25-1.17a2.86,2.86,0,0,1,.91-1.67,1.69,1.69,0,0,1,2.21.09A.47.47,0,0,0,5.3,4a6,6,0,0,0,1-.42.23.23,0,0,0,0-.41A5.36,5.36,0,0,0,4,2.06a2.86,2.86,0,0,0-2.26.53Zm.15,4.29a9.09,9.09,0,0,1,2.92,8l.47,0c.16,0,.31.11.47.13.65.1,1.3.19,2,.26a1.28,1.28,0,0,0,.32-.06,2.91,2.91,0,0,1-1.07-1.22,4.46,4.46,0,0,1-.35-2.76,3.76,3.76,0,0,1,4.23-3A4.43,4.43,0,0,1,13.4,9.83a2.23,2.23,0,0,1,.13-.39.18.18,0,0,1,.32,0,.77.77,0,0,1-.06,1,5,5,0,0,1-1.08,4.71h0l.07,0A4.23,4.23,0,0,0,14,13.8a5.52,5.52,0,0,0,.53-3.72,11.29,11.29,0,0,0-1.66-4.32,3.38,3.38,0,0,0-1-1,8.71,8.71,0,0,0-1-.58,8.83,8.83,0,0,0-3-.79c-.42,0-.83,0-1.21-.07-.08.16-.1.33-.19.41a2.2,2.2,0,0,1-1.44.58.74.74,0,0,0-.3.08L2,6.3a.32.32,0,0,0-.1.13C1.83,6.65,1.74,6.87,1.65,7.08Zm8.77,8.58a2.49,2.49,0,0,0,2.42-1.09,4.74,4.74,0,0,0,.87-3.26,2.24,2.24,0,0,0-.92-1.72,4.32,4.32,0,0,0-3.18-.87,3.44,3.44,0,0,0-2.69,1.86,3.94,3.94,0,0,0-.25,2.74,2.51,2.51,0,0,0,1.58,2s.07,0,.07,0c-.05.16.07.15.15.16.44.05.87.09,1.3.15a1.28,1.28,0,0,1,.33.11,2,2,0,0,1,.25.13ZM11.56,4.18c.3.23.61.43.88.67a.64.64,0,0,0,.7.23,1.3,1.3,0,0,1,.34,0c1.3,0,1.66,1,1.52,2a1.5,1.5,0,0,1-.58.86.28.28,0,0,0-.1.2c.07.29.17.57.26.86l.05,0A3.47,3.47,0,0,0,15.54,6a3.05,3.05,0,0,0-1-1.81A2.81,2.81,0,0,0,11.56,4.18Zm9,3.28a1.28,1.28,0,0,0-.07.16c-.36.89-.71,1.78-1.06,2.67a.62.62,0,0,0,0,.19.71.71,0,0,0,.17-.11c.55-.65,1.08-1.3,1.63-1.94.16-.19.35-.37.56-.6C21.23,7.89,20.79,8,20.51,7.46Zm-1.28,2L18.6,9l-.12.87a.35.35,0,0,0,.37.37s.06,0,.07-.06C19,9.91,19.14,9.66,19.23,9.43ZM19.79,8l-.62.1.4.47Z"/><path d="M31.22,7.56a6.64,6.64,0,0,1,.62-.67,3.32,3.32,0,0,1,.76-.47.46.46,0,0,1,.42.09A.33.33,0,0,1,33,7a3.29,3.29,0,0,1-.77.5,2.68,2.68,0,0,1-.68.21c-.15,0-.17.1-.18.23s.07.15.17.18c.38.13.75.24,1.11.4a1.09,1.09,0,0,1,.39.35.27.27,0,0,1-.22.46.94.94,0,0,1-.55-.13,7.59,7.59,0,0,1-.9-.79c-.1-.09-.16-.17-.3-.1a1.13,1.13,0,0,1-.32,0,6,6,0,0,1-.14.69,4.27,4.27,0,0,1-.32.84.46.46,0,0,1-.56.28.52.52,0,0,1-.13-.63,2.82,2.82,0,0,1,.83-1.13c.17-.15.21-.28.08-.46-.3,0-.61.08-.92.08a4.11,4.11,0,0,1-.86-.07.44.44,0,0,1-.38-.42c0-.16.24-.31.49-.32a2.72,2.72,0,0,1,1.25.37l.44.23.23-.31c-.14-.34-.3-.71-.43-1.09a1.06,1.06,0,0,1,0-.5.43.43,0,0,1,.22-.32.38.38,0,0,1,.36.13,1.63,1.63,0,0,1,.24.68,4.24,4.24,0,0,1,0,.94C31,7.43,31.05,7.51,31.22,7.56Z"/><path d="M21.19,19.78c-.1.42-.18.79-.26,1.16,0,.06,0,.12,0,.18s-.15.24-.3.21a.25.25,0,0,1-.21-.3c0-.25.1-.5.16-.75.09-.42.19-.84.3-1.27a1.26,1.26,0,0,1,.13-.37.44.44,0,0,1,.28-.17c.08,0,.2.12.23.21.09.3.14.61.21.92s.1.43.16.65h.06c.14-.48.27-1,.41-1.44a1.07,1.07,0,0,1,.09-.27c.06-.08.16-.17.24-.16a.31.31,0,0,1,.24.16A2.72,2.72,0,0,1,23,19c.14.65.27,1.29.41,1.94.05.22,0,.35-.16.39s-.3-.1-.34-.25c-.09-.32-.16-.65-.23-1a1.73,1.73,0,0,0-.11-.37c-.12.32-.23.65-.35,1a1.16,1.16,0,0,1-.14.34.47.47,0,0,1-.3.19.37.37,0,0,1-.23-.23c-.12-.35-.21-.72-.31-1.08A1.73,1.73,0,0,0,21.19,19.78Z"/><path d="M30.59,19.59A1.78,1.78,0,0,1,30.05,21a1.31,1.31,0,0,1-2.15-.51,1.63,1.63,0,0,1,1.53-2C30.1,18.5,30.61,18.77,30.59,19.59ZM29.37,19a.75.75,0,0,0-.59.23,1.17,1.17,0,0,0-.4,1,.78.78,0,0,0,.23.45.8.8,0,0,0,1.15-.09,1.44,1.44,0,0,0,.29-.58C30.18,19.32,30,18.94,29.37,19Z"/><path d="M32.26,20.24c.22.18.43.34.63.53a.27.27,0,0,1,0,.41c-.15.12-.27.06-.39-.05a2.91,2.91,0,0,0-1.16-.72V21c0,.17-.05.31-.24.33s-.26-.12-.26-.34c0-.72,0-1.45,0-2.17,0-.33.15-.42.47-.4a1.81,1.81,0,0,1,1.08.37,1.64,1.64,0,0,1,.29.3.7.7,0,0,1-.21,1ZM31.39,20a4.91,4.91,0,0,0,.78-.2c.24-.11.26-.3.09-.5a1,1,0,0,0-.87-.37Z"/><path d="M33.75,20.41V21c0,.2-.09.32-.25.32s-.25-.12-.25-.32c0-.74,0-1.47,0-2.2,0-.33.14-.41.48-.38a1.73,1.73,0,0,1,1.07.36,2.54,2.54,0,0,1,.28.29.71.71,0,0,1-.22,1.06l-.26.15.5.38a.9.9,0,0,1,.2.19.25.25,0,0,1,0,.36c-.11.11-.23.08-.34,0a3.08,3.08,0,0,0-1-.7Zm0-.46a5.1,5.1,0,0,0,.77-.19c.25-.11.28-.31.1-.51a1,1,0,0,0-.87-.37Z"/><path d="M26.1,21.35a2.75,2.75,0,0,1-.57-.21.66.66,0,0,1-.26-.38c0-.07.06-.23.14-.28a.31.31,0,0,1,.29.08.53.53,0,0,0,.61.26,2.34,2.34,0,0,0,.64-.18c.08,0,.18-.18.16-.26a.34.34,0,0,0-.22-.22,6.39,6.39,0,0,0-.75-.09.86.86,0,0,1-.23-.06.53.53,0,0,1-.31-.83,1.27,1.27,0,0,1,1.72-.46c.07,0,.14.22.11.24a.49.49,0,0,1-.3.16c-.16,0-.34-.08-.5-.06a1.19,1.19,0,0,0-.51.2.15.15,0,0,0,.05.28,2.76,2.76,0,0,0,.57.06.86.86,0,0,1,.89.62.7.7,0,0,1-.3.81A2.35,2.35,0,0,1,26.1,21.35Z"/><path d="M26,13.1l.14-.18c-.08-.21-.18-.43-.26-.66a.53.53,0,0,1,0-.27,1.34,1.34,0,0,1,.17-.31c.1.07.26.12.28.21a4.41,4.41,0,0,1,.08.73,1.49,1.49,0,0,0,0,.21.39.39,0,0,0,0,.14.39.39,0,0,0,.13-.06c.17-.16.31-.33.49-.48a.78.78,0,0,1,.33-.16.27.27,0,0,1,.24.06.29.29,0,0,1,0,.27,1.4,1.4,0,0,1-.36.28,2,2,0,0,1-.52.17c-.16,0-.2.1-.15.25l.56.17a.8.8,0,0,1,.23.11c.24.13.34.31.26.44s-.32.12-.52,0a1.85,1.85,0,0,1-.42-.36.4.4,0,0,0-.52-.17c-.05.21-.1.45-.17.67a1.14,1.14,0,0,1-.23.38.27.27,0,0,1-.24.06.27.27,0,0,1-.12-.22,1.31,1.31,0,0,1,.16-.43c.11-.17.26-.3.39-.47a1.78,1.78,0,0,0,.12-.27c-.36,0-.64,0-.93,0a.66.66,0,0,1-.32-.07c-.09-.05-.13-.17-.19-.25.09-.06.17-.17.26-.18a1.22,1.22,0,0,1,.46.06C25.55,12.88,25.77,13,26,13.1Z"/><path d="M18.11,19c-.12,0-.24,0-.36,0a.24.24,0,0,1-.26-.22.22.22,0,0,1,.23-.25l.9,0,.48,0c.19,0,.28.11.26.29a.25.25,0,0,1-.3.22L18.64,19v1.7h.43c.17,0,.29.07.29.26s-.13.25-.3.25h-.88c-.14,0-.27,0-.4,0a.26.26,0,0,1-.29-.27.26.26,0,0,1,.28-.28h.34Z"/><path d="M36.7,19.85l.53-1.16c.07-.16.16-.28.35-.21s.21.19.11.4c-.35.73-.7,1.46-1.06,2.18a.35.35,0,0,1-.15.2.39.39,0,0,1-.3,0,.31.31,0,0,1-.07-.27,3,3,0,0,1,.24-.47.26.26,0,0,0,0-.35l-.81-1.27c-.09-.14-.14-.28,0-.4s.28-.06.4.14l.53.88A3.74,3.74,0,0,0,36.7,19.85Z"/><path d="M34.74,15.08l.41.33a.49.49,0,0,1,.14.19.83.83,0,0,1,0,.27c-.09,0-.22,0-.26,0a1.74,1.74,0,0,1-.3-.46c-.06-.15-.13-.27-.31-.27-.13.17-.25.36-.39.52s-.25.23-.38.09,0-.29.12-.37.32-.18.47-.28.09-.09.14-.14a1.3,1.3,0,0,0-.15-.1,3.77,3.77,0,0,1-.59-.22c-.08-.05-.17-.22-.14-.28s.22-.12.33,0,.4.33.62.51c.12,0,.13-.11.13-.24a2.19,2.19,0,0,1,0-.57c0-.07.13-.11.2-.17s.15.16.13.23a4.31,4.31,0,0,1-.19.61l0,.16.16,0c.22-.07.42-.16.64-.21.06,0,.15.08.23.12s-.1.2-.16.21a3.49,3.49,0,0,1-.65,0C34.8,15,34.8,14.93,34.74,15.08Z"/><path d="M19.59,18.92a2,2,0,0,1,.07-.43.35.35,0,0,1,.23-.19.32.32,0,0,1,.19.23A2.25,2.25,0,0,1,20,19c0,.16-.08.3-.27.28S19.59,19.07,19.59,18.92Z"/><path d="M5.75,8.56a.82.82,0,0,1,.82-.85.81.81,0,0,1,.78.81.86.86,0,0,1-.82.86A.78.78,0,0,1,5.75,8.56Z"/><path d="M11.52,14.52l-.33-.71-.59.27c-.21.1-.41.2-.62.28-.05,0-.15,0-.18,0-.26-.27-.5-.55-.77-.84l.43-.31.59.66c.38-.19.71-.36,1-.54.06,0,.07-.14.11-.22A.86.86,0,0,0,11,12a10.41,10.41,0,0,1-.75-1c.15-.23.29-.45.44-.66a.23.23,0,0,1,.2-.08c.53.11,1,.23,1.57.36.06,0,.12.08.16.14s.17.33.27.5,0,.17,0,.25c-.27.25-.53.5-.78.77a1.83,1.83,0,0,0-.26.42c-.05.11-.05.24-.1.35a.71.71,0,0,0,.09.71l1-.4c.16.43.16.43-.24.63Z"/><path d="M1.7,3a.34.34,0,0,1,.15-.42,3.21,3.21,0,0,1,3.41-.23c.47.23.9.55,1.35.82A.72.72,0,0,0,7,3.26a10.37,10.37,0,0,1,4.36.91.42.42,0,0,0,.27,0,4.65,4.65,0,0,1,1.58-.43,2.27,2.27,0,0,1,2.25,1.05A3.6,3.6,0,0,1,15,9.33a.39.39,0,0,0-.1.36c.08.6.14,1.21.21,1.82l0,.14a4.54,4.54,0,0,1,1.54-.8l1.68-.44a.2.2,0,0,0,0-.11c-.2-.41,0-.82,0-1.22V8.75c-.13.16-.22.29-.33.41a1,1,0,0,1-.28.21.42.42,0,0,1-.53,0,.41.41,0,0,1-.06-.53,2.45,2.45,0,0,1,.44-.47,1.57,1.57,0,0,1,.33-.21,3.46,3.46,0,0,1-.49-.17A1.62,1.62,0,0,1,17,7.65a.36.36,0,0,1-.07-.47.66.66,0,0,1,.4-.22.91.91,0,0,1,.71.31,1.37,1.37,0,0,1,.19.17,3.84,3.84,0,0,1,0-.49,1.86,1.86,0,0,1,.08-.41.49.49,0,0,1,.46-.34.47.47,0,0,1,.4.46,2.32,2.32,0,0,1-.08.58,2.69,2.69,0,0,1-.12.31c.43-.16.83-.43,1.31,0L21,4.84,21,4.8a2,2,0,0,1-.16.14,2.19,2.19,0,0,1-.44.31.42.42,0,0,1-.52-.13.48.48,0,0,1,0-.54,1.39,1.39,0,0,1,.64-.51l.2-.09c-.24-.11-.45-.2-.65-.31a.84.84,0,0,1-.27-.26.41.41,0,0,1,0-.48.47.47,0,0,1,.47-.18.81.81,0,0,1,.22.07.58.58,0,0,0,.6.08,4.15,4.15,0,0,1,.2-.53.44.44,0,0,1,.5-.25.49.49,0,0,1,.33.5,5.69,5.69,0,0,1-.18.68c0,.06-.06.11-.1.2a3.44,3.44,0,0,1,.53-.16,1.05,1.05,0,0,1,.5,0c.13.06.29.21.3.33a.53.53,0,0,1-.2.42,3.27,3.27,0,0,1-.7.18h-.15a3.22,3.22,0,0,1,.37.39,1,1,0,0,1,.22.47.5.5,0,0,1-.15.4.37.37,0,0,1-.49,0,3.8,3.8,0,0,1-.42-.47,1.61,1.61,0,0,1-.12-.23l-.64,2.43c.38-.26.75-.12,1.17-.06A1.59,1.59,0,0,1,21.85,7a2.48,2.48,0,0,1-.15-.64A.47.47,0,0,1,22,6a.56.56,0,0,1,.45.13,2.15,2.15,0,0,1,.3.56,2.45,2.45,0,0,1,.08.29c.17-.22.3-.42.46-.6a.73.73,0,0,1,.31-.17.4.4,0,0,1,.46.12.39.39,0,0,1,0,.49,6,6,0,0,1-.48.53,2.07,2.07,0,0,1-.2.15,5.13,5.13,0,0,1,.66.21.67.67,0,0,1,.32.25.61.61,0,0,1,0,.46.39.39,0,0,1-.48.21,6.14,6.14,0,0,1-.69-.32l-.17-.12a2.6,2.6,0,0,1,0,.53A1.89,1.89,0,0,1,23,9.3a.4.4,0,0,1-.44.23.4.4,0,0,1-.35-.34,1.48,1.48,0,0,1,0-.42c0-.09,0-.19,0-.29A18.78,18.78,0,0,0,20,11l.15.09a1.84,1.84,0,0,1,.64,1.8,7.92,7.92,0,0,1-2.61,4.71,15.65,15.65,0,0,1-3,2.26,22.28,22.28,0,0,1-2.31,1.24,10.42,10.42,0,0,1-1.33.42v.62c0,.16,0,.32,0,.48s-.08.22-.22.17l-.09-3.41.22,0,.12,1.84a5.07,5.07,0,0,0,.54-.09A8.39,8.39,0,0,0,14.42,20a33.46,33.46,0,0,0,2.8-1.89,9.4,9.4,0,0,0,3-3.81.64.64,0,0,0,.05-.24c-.21.29-.39.6-.62.86a6.67,6.67,0,0,1-.86.82,1.83,1.83,0,0,1-1.58.35,1.29,1.29,0,0,0-.23,0l-.24.45s-.07,0-.09,0-.33-.13-.4-.25,0-.27.08-.44a4,4,0,0,1-1.68-2,5.09,5.09,0,0,1-2.93,2.53.75.75,0,0,0,0,.22,2,2,0,0,0,.14.34c0,.05.07.1.06.15,0,.47-.09.94-.14,1.41a.91.91,0,0,1-.08.2,4.93,4.93,0,0,1-.46-.23,9.24,9.24,0,0,1-1-.69,1.42,1.42,0,0,0-1-.32c.19.22.37.42.53.64a5.1,5.1,0,0,1,1.05,3.36.64.64,0,0,1-.21.51c-.23.2-.43.44-.69.71,0-.44-.07-.81-.11-1.18a16,16,0,0,0-.59-3.28A2,2,0,0,0,9,17.57a1,1,0,0,0-.37-.29.25.25,0,0,0-.34.1,4.27,4.27,0,0,0-.77,2,10.53,10.53,0,0,0-.09,2.57v.33l-1-.53s0-.09-.06-.15a4.08,4.08,0,0,1,.33-2.41,7,7,0,0,1,1.13-1.8l.15-.2a2.31,2.31,0,0,0-.32,0l-1.93.24-.33.06c-.12,0-.19-.05-.15-.18a1.2,1.2,0,0,0,.06-.32c0-.32,0-.64,0-1s0-.28-.23-.29a1.14,1.14,0,0,1-.24,0c-.08.38-.14.75-.23,1.12a12.53,12.53,0,0,1-1.14,3.19,3.29,3.29,0,0,1-.93,1.19c-.22.15-.47.24-.75.39v-.31a1.93,1.93,0,0,0,1.19-.92A9.62,9.62,0,0,0,4,17.77a12.11,12.11,0,0,0,.58-4,1.21,1.21,0,0,0,0-.19l0-.06-.31.2a2.09,2.09,0,0,1-2.4,0,.36.36,0,0,1-.13-.25c0-2.08,0-4.15,0-6.23a1.75,1.75,0,0,1,.09-.38c.08-.39.17-.78.25-1.17A2.78,2.78,0,0,1,2.93,4a1.69,1.69,0,0,1,2.21.09.46.46,0,0,0,.35.12,6.69,6.69,0,0,0,1-.42.24.24,0,0,0,0-.42A5.6,5.6,0,0,0,4.24,2.25,2.9,2.9,0,0,0,2,2.79Zm.15,4.3a9.09,9.09,0,0,1,2.92,8l.47,0c.16,0,.31.11.47.13.65.1,1.3.18,2,.26A1.28,1.28,0,0,0,8,15.63,2.94,2.94,0,0,1,6.9,14.41a4.55,4.55,0,0,1-.34-2.77,3.78,3.78,0,0,1,4.23-3A4.53,4.53,0,0,1,13.6,10c0-.13.07-.26.12-.38s.21-.16.33,0a.75.75,0,0,1-.07,1,5,5,0,0,1-1.07,4.72h0l.07,0a4.25,4.25,0,0,0,1.2-1.3,5.58,5.58,0,0,0,.53-3.72A11.15,11.15,0,0,0,13.08,6a3.23,3.23,0,0,0-1-1,8.71,8.71,0,0,0-1-.58,8.83,8.83,0,0,0-3-.79c-.41-.05-.82-.05-1.21-.08-.07.17-.09.33-.19.42a2.16,2.16,0,0,1-1.43.58.52.52,0,0,0-.3.08L2.23,6.5a.32.32,0,0,0-.1.13C2,6.84,1.94,7.06,1.85,7.28Zm8.77,8.58A2.49,2.49,0,0,0,13,14.77a4.74,4.74,0,0,0,.87-3.26A2.24,2.24,0,0,0,13,9.79a4.28,4.28,0,0,0-3.18-.87,3.43,3.43,0,0,0-2.69,1.86,3.93,3.93,0,0,0-.25,2.74,2.47,2.47,0,0,0,1.58,2l.07.06c0,.16.07.15.15.16l1.3.14a1.46,1.46,0,0,1,.33.12,2,2,0,0,1,.25.13ZM11.76,4.38c.3.23.61.42.88.67a.64.64,0,0,0,.7.23,1,1,0,0,1,.34,0c1.3,0,1.66,1,1.52,2a1.52,1.52,0,0,1-.58.85c-.06.05-.12.15-.1.21.07.29.17.57.26.86l.05,0a3.45,3.45,0,0,0,.9-2.9,3,3,0,0,0-1-1.81A2.79,2.79,0,0,0,11.76,4.38ZM20.7,7.66a1.44,1.44,0,0,1-.07.16l-1.05,2.67a.58.58,0,0,0,0,.19c.05,0,.13-.06.17-.12.55-.64,1.08-1.29,1.63-1.93.16-.2.35-.37.56-.6C21.43,8.09,21,8.19,20.7,7.66Zm-1.27,2-.63-.44-.12.87a.35.35,0,0,0,.37.37.2.2,0,0,0,.07-.06ZM20,8.21l-.62.1.4.47Z"/><path d="M31.42,7.76A6.64,6.64,0,0,1,32,7.09a3.32,3.32,0,0,1,.76-.47.44.44,0,0,1,.41.09.32.32,0,0,1-.05.46,4.42,4.42,0,0,1-.77.5,2.68,2.68,0,0,1-.68.21c-.15,0-.17.1-.18.23s.07.15.17.18a11.32,11.32,0,0,1,1.11.4.91.91,0,0,1,.38.35.26.26,0,0,1-.21.45,1,1,0,0,1-.56-.12,9.71,9.71,0,0,1-.9-.8c-.09-.08-.15-.16-.29-.1a.84.84,0,0,1-.32,0c-.05.22-.07.46-.14.69a6.59,6.59,0,0,1-.32.84.46.46,0,0,1-.56.28.54.54,0,0,1-.14-.63,2.94,2.94,0,0,1,.84-1.13c.16-.15.2-.28.08-.46-.31,0-.61.08-.92.08a4.11,4.11,0,0,1-.86-.07.44.44,0,0,1-.38-.42c0-.17.24-.31.49-.32a2.75,2.75,0,0,1,1.25.37l.44.23.23-.31c-.14-.34-.3-.71-.43-1.1a1,1,0,0,1,0-.49.47.47,0,0,1,.22-.33.43.43,0,0,1,.36.13,1.74,1.74,0,0,1,.24.68,4.3,4.3,0,0,1-.05,1A.22.22,0,0,0,31.42,7.76Z"/><path d="M21.39,20c-.1.43-.18.8-.26,1.17,0,.06,0,.12-.05.18a.24.24,0,0,1-.29.21.25.25,0,0,1-.21-.3c0-.25.1-.5.15-.75.1-.42.2-.84.31-1.27a1.08,1.08,0,0,1,.13-.37.4.4,0,0,1,.28-.17c.08,0,.2.12.23.21.08.3.14.61.21.92s.1.43.16.65h.06c.13-.47.27-.95.41-1.43a.78.78,0,0,1,.09-.27c.06-.08.16-.17.24-.17a.32.32,0,0,1,.24.17,2.52,2.52,0,0,1,.13.49c.13.64.27,1.29.41,1.94.05.22,0,.35-.16.38s-.3-.09-.34-.24c-.09-.32-.16-.66-.23-1a1.58,1.58,0,0,0-.11-.37c-.12.32-.23.65-.35,1a1.28,1.28,0,0,1-.14.34.42.42,0,0,1-.3.18c-.08,0-.2-.13-.24-.22-.11-.36-.2-.72-.3-1.08C21.45,20.13,21.43,20.08,21.39,20Z"/><path d="M30.79,19.79a1.82,1.82,0,0,1-.54,1.38,1.31,1.31,0,0,1-2.15-.51,1.63,1.63,0,0,1,1.52-2C30.3,18.69,30.81,19,30.79,19.79Zm-1.22-.63a.71.71,0,0,0-.59.23,1.14,1.14,0,0,0-.4,1,.73.73,0,0,0,.23.45A.81.81,0,0,0,30,20.75a1.44,1.44,0,0,0,.29-.58C30.38,19.51,30.24,19.14,29.57,19.16Z"/><path d="M32.46,20.44c.21.18.43.34.63.53a.25.25,0,0,1,0,.4c-.14.13-.26.07-.38-.05a3,3,0,0,0-1.16-.71v.54c0,.18,0,.31-.24.34s-.26-.12-.26-.34c0-.72,0-1.45,0-2.18,0-.33.15-.42.47-.39a1.74,1.74,0,0,1,1.08.37,2.06,2.06,0,0,1,.29.3.7.7,0,0,1-.21,1Zm-.87-.29a4.91,4.91,0,0,0,.78-.2c.24-.11.26-.3.09-.5a1,1,0,0,0-.87-.37Z"/><path d="M34,20.61v.55c0,.21-.1.33-.25.33s-.25-.12-.25-.33c0-.73,0-1.46,0-2.2,0-.32.15-.4.48-.38A1.81,1.81,0,0,1,35,19a1.48,1.48,0,0,1,.27.29.7.7,0,0,1-.21,1.06l-.26.14.5.39a.86.86,0,0,1,.19.19.24.24,0,0,1,0,.36.23.23,0,0,1-.34,0,3.18,3.18,0,0,0-1-.7Zm0-.47a4.72,4.72,0,0,0,.76-.18c.26-.11.28-.31.11-.52a1,1,0,0,0-.87-.36Z"/><path d="M26.3,21.55a2.56,2.56,0,0,1-.57-.21.61.61,0,0,1-.26-.38c0-.07.06-.23.14-.28a.31.31,0,0,1,.29.08.53.53,0,0,0,.61.26,2.76,2.76,0,0,0,.64-.18c.08,0,.18-.18.16-.26a.34.34,0,0,0-.23-.22,6.15,6.15,0,0,0-.75-.09.9.9,0,0,1-.22-.06.53.53,0,0,1-.31-.83,1.28,1.28,0,0,1,1.72-.47c.07.05.14.23.11.25a.55.55,0,0,1-.3.16c-.17,0-.34-.09-.5-.06a1.28,1.28,0,0,0-.52.2.15.15,0,0,0,.06.28,3.55,3.55,0,0,0,.56.06.87.87,0,0,1,.9.62.7.7,0,0,1-.3.81A2.41,2.41,0,0,1,26.3,21.55Z"/><path d="M26.2,13.29l.14-.17c-.08-.21-.18-.44-.26-.67a.48.48,0,0,1,0-.26,1.34,1.34,0,0,1,.17-.31c.09.07.26.12.28.21a3.48,3.48,0,0,1,.07.73,1.49,1.49,0,0,1,0,.21,1.47,1.47,0,0,0,.06.14s.1,0,.13-.07.31-.32.48-.47a.76.76,0,0,1,.34-.16c.07,0,.21,0,.24,0a.28.28,0,0,1,0,.27.9.9,0,0,1-.36.28,1.55,1.55,0,0,1-.51.18c-.16,0-.2.1-.16.25l.57.17a1.15,1.15,0,0,1,.23.1c.23.14.34.32.26.45s-.33.12-.53,0a1.73,1.73,0,0,1-.41-.35c-.15-.17-.29-.27-.52-.18-.06.22-.1.46-.18.68a1,1,0,0,1-.22.38.3.3,0,0,1-.24.06.25.25,0,0,1-.12-.22,1,1,0,0,1,.16-.43,5.71,5.71,0,0,1,.39-.47,2.38,2.38,0,0,0,.12-.27c-.36,0-.65,0-.93,0a.72.72,0,0,1-.33-.07,1.14,1.14,0,0,1-.18-.25c.09-.06.17-.17.26-.18a1.22,1.22,0,0,1,.46.06C25.75,13.08,26,13.19,26.2,13.29Z"/><path d="M18.31,19.2c-.12,0-.24,0-.36,0s-.25-.07-.26-.22a.21.21,0,0,1,.22-.25l.91,0a3.88,3.88,0,0,1,.48,0c.19,0,.28.11.26.29s-.15.22-.31.21-.26,0-.42,0v1.7h.44c.17,0,.29.07.29.25s-.13.25-.3.26h-.89l-.39,0a.25.25,0,0,1-.29-.27A.26.26,0,0,1,18,20.9h.34Z"/><path d="M36.9,20.05l.53-1.17c.07-.15.15-.28.35-.2s.21.19.11.4c-.35.73-.7,1.46-1.06,2.18,0,.08-.08.17-.15.2a.45.45,0,0,1-.3,0,.28.28,0,0,1-.07-.27,1.74,1.74,0,0,1,.24-.47.29.29,0,0,0,0-.36c-.28-.41-.54-.84-.81-1.26-.09-.14-.15-.28,0-.4s.28-.06.4.13.35.6.53.89A3.74,3.74,0,0,0,36.9,20.05Z"/><path d="M34.94,15.28l.41.33a.41.41,0,0,1,.13.19.82.82,0,0,1,0,.27c-.09,0-.22,0-.27-.05a1.7,1.7,0,0,1-.29-.46c-.06-.16-.13-.27-.31-.27a6.4,6.4,0,0,1-.4.51c-.09.11-.25.24-.38.1s0-.29.13-.37.32-.19.47-.28l.14-.14a.86.86,0,0,0-.16-.1,5.83,5.83,0,0,1-.58-.23.35.35,0,0,1-.15-.28c.07-.14.23-.11.33,0s.4.32.63.51c.12,0,.13-.11.12-.25a2.65,2.65,0,0,1,.05-.56c0-.07.13-.12.2-.17s.14.16.13.23a4.31,4.31,0,0,1-.19.61.8.8,0,0,0,0,.15.44.44,0,0,0,.16,0c.21-.06.42-.16.64-.2.06,0,.15.07.23.12s-.1.2-.17.21a3.39,3.39,0,0,1-.64,0C35,15.15,35,15.13,34.94,15.28Z"/><path d="M19.79,19.12a2.13,2.13,0,0,1,.07-.44.34.34,0,0,1,.23-.18c.07,0,.17.14.19.22a2.12,2.12,0,0,1,0,.44c0,.17-.08.31-.27.29S19.79,19.27,19.79,19.12Z"/><path d="M6,8.76a.82.82,0,0,1,.82-.85.81.81,0,0,1,.78.81.86.86,0,0,1-.82.86A.78.78,0,0,1,6,8.76Z"/><path d="M11.71,14.72,11.39,14l-.59.27-.62.28s-.15,0-.18,0c-.26-.27-.5-.55-.77-.84l.43-.31.59.66c.38-.19.71-.36,1-.54.06,0,.07-.15.11-.22a.86.86,0,0,0-.18-1.09,10.41,10.41,0,0,1-.75-1c.15-.23.29-.45.44-.66a.23.23,0,0,1,.2-.08l1.56.36a.29.29,0,0,1,.17.14c.1.16.17.33.27.5s.05.16,0,.25c-.27.25-.53.5-.78.77a1.64,1.64,0,0,0-.26.42c0,.11,0,.24-.1.35A.68.68,0,0,0,12,14l1-.41c.16.43.16.43-.25.63Z"/></g><g class="cls-3"><path d="M1.36,2.64a.34.34,0,0,1,.15-.42A3.2,3.2,0,0,1,4.91,2c.48.23.91.55,1.36.82a.72.72,0,0,0,.34.11A10.37,10.37,0,0,1,11,3.83a.42.42,0,0,0,.27,0,4.65,4.65,0,0,1,1.58-.43,2.28,2.28,0,0,1,2.25,1A3.62,3.62,0,0,1,14.65,9a.39.39,0,0,0-.1.36c.08.6.14,1.21.21,1.82l0,.14a4.54,4.54,0,0,1,1.54-.8L18,10.07A.2.2,0,0,0,18,10c-.2-.41,0-.82,0-1.22V8.41c-.13.16-.22.29-.33.41a1,1,0,0,1-.28.21.42.42,0,0,1-.53,0,.41.41,0,0,1-.06-.53A2.45,2.45,0,0,1,17.23,8a1.57,1.57,0,0,1,.33-.21,3.46,3.46,0,0,1-.49-.17,1.62,1.62,0,0,1-.43-.29.36.36,0,0,1-.07-.47.66.66,0,0,1,.4-.22.91.91,0,0,1,.71.31,1.37,1.37,0,0,1,.19.17,3.84,3.84,0,0,1,0-.49A1.42,1.42,0,0,1,18,6.2a.49.49,0,0,1,.46-.34.47.47,0,0,1,.4.46,2.32,2.32,0,0,1-.08.58,2.69,2.69,0,0,1-.12.31c.43-.16.83-.43,1.31,0l.76-2.68-.07,0c-.05,0-.09.1-.15.14a2.19,2.19,0,0,1-.44.31.42.42,0,0,1-.52-.13.48.48,0,0,1,0-.54,1.39,1.39,0,0,1,.64-.51l.2-.09c-.24-.11-.45-.2-.65-.31a.84.84,0,0,1-.27-.26.41.41,0,0,1,0-.48.47.47,0,0,1,.47-.18.81.81,0,0,1,.22.07.57.57,0,0,0,.6.08c.07-.18.11-.37.19-.53a.46.46,0,0,1,.51-.25.49.49,0,0,1,.33.5,5.69,5.69,0,0,1-.18.68c0,.06-.06.11-.1.2A3.44,3.44,0,0,1,22,3a1.05,1.05,0,0,1,.5,0c.13.06.29.21.3.33a.53.53,0,0,1-.2.42,3.27,3.27,0,0,1-.7.18h-.15a3.22,3.22,0,0,1,.37.39,1.07,1.07,0,0,1,.22.47.5.5,0,0,1-.15.4.37.37,0,0,1-.49,0,3.8,3.8,0,0,1-.42-.47,1.61,1.61,0,0,1-.12-.23l-.64,2.43c.38-.26.75-.12,1.17-.06a1.59,1.59,0,0,1-.17-.24A2.48,2.48,0,0,1,21.36,6a.47.47,0,0,1,.28-.33.56.56,0,0,1,.45.13,2.15,2.15,0,0,1,.3.56,2.45,2.45,0,0,1,.08.29c.17-.22.3-.42.46-.6a.73.73,0,0,1,.31-.17A.4.4,0,0,1,23.7,6a.39.39,0,0,1,0,.49,6,6,0,0,1-.48.53,2.07,2.07,0,0,1-.2.15c.24.07.46.12.66.2a.75.75,0,0,1,.32.26.61.61,0,0,1,0,.46.39.39,0,0,1-.48.21A6.14,6.14,0,0,1,22.9,8a.91.91,0,0,1-.17-.12,2.6,2.6,0,0,1,0,.53,1.89,1.89,0,0,1-.13.57.42.42,0,0,1-.79-.11,1.48,1.48,0,0,1,0-.42c0-.09,0-.19,0-.3a19.53,19.53,0,0,0-2.18,2.5l.15.09a1.84,1.84,0,0,1,.64,1.8,7.92,7.92,0,0,1-2.61,4.71,15.65,15.65,0,0,1-3,2.26,22.28,22.28,0,0,1-2.31,1.24,10.42,10.42,0,0,1-1.33.42v.62c0,.16,0,.32,0,.48s-.08.22-.22.17L10.85,19l.22,0,.12,1.85a5.07,5.07,0,0,0,.54-.09,8.39,8.39,0,0,0,2.35-1.09,33.46,33.46,0,0,0,2.8-1.89,9.4,9.4,0,0,0,3-3.81.64.64,0,0,0,.05-.24c-.21.29-.39.6-.62.86a6.67,6.67,0,0,1-.86.82,1.83,1.83,0,0,1-1.58.35,1.43,1.43,0,0,0-.23,0l-.24.45s-.07,0-.09,0-.33-.13-.4-.25,0-.27.08-.44a4,4,0,0,1-1.68-2,5.12,5.12,0,0,1-2.93,2.53.75.75,0,0,0,0,.22,2,2,0,0,0,.14.34.47.47,0,0,1,.06.15c0,.47-.09.94-.14,1.41a.91.91,0,0,1-.08.2A4.93,4.93,0,0,1,10.9,18a9.24,9.24,0,0,1-1-.69,1.42,1.42,0,0,0-1-.32c.19.22.37.42.53.64A5.1,5.1,0,0,1,10.48,21a.64.64,0,0,1-.21.51c-.23.2-.43.44-.69.71,0-.44-.07-.81-.11-1.18a16,16,0,0,0-.59-3.28,2,2,0,0,0-.26-.55,1,1,0,0,0-.37-.29.25.25,0,0,0-.34.1,4.27,4.27,0,0,0-.77,2,10.53,10.53,0,0,0-.09,2.57v.33l-1-.53s0-.09-.06-.15a4.08,4.08,0,0,1,.33-2.41A7.23,7.23,0,0,1,7.41,17s.07-.09.15-.19a2.31,2.31,0,0,0-.32,0L5.31,17c-.11,0-.22.05-.33.06s-.19,0-.15-.18a1.2,1.2,0,0,0,.06-.32c0-.32,0-.64,0-.95s0-.29-.23-.29a1.14,1.14,0,0,1-.24-.05c-.08.38-.14.75-.23,1.12A12.92,12.92,0,0,1,3,19.6a3.29,3.29,0,0,1-.93,1.19c-.22.15-.47.24-.75.39v-.31A1.93,1.93,0,0,0,2.53,20a9.62,9.62,0,0,0,1.11-2.52,12.11,12.11,0,0,0,.58-4,1.21,1.21,0,0,0,0-.19l0-.06-.31.2a2.09,2.09,0,0,1-2.4,0,.36.36,0,0,1-.13-.25c0-2.08,0-4.15,0-6.23a2.57,2.57,0,0,1,.08-.38c.09-.39.18-.78.26-1.17a2.75,2.75,0,0,1,.91-1.67,1.69,1.69,0,0,1,2.21.09.46.46,0,0,0,.35.12,6.69,6.69,0,0,0,1-.42.24.24,0,0,0,0-.42A5.6,5.6,0,0,0,3.9,1.91a2.9,2.9,0,0,0-2.26.54Zm.15,4.3a9.09,9.09,0,0,1,2.92,8l.47,0c.16,0,.31.11.47.13.65.1,1.3.18,2,.26a1.28,1.28,0,0,0,.32-.06,2.94,2.94,0,0,1-1.08-1.22,4.55,4.55,0,0,1-.34-2.77,3.78,3.78,0,0,1,4.23-3,4.53,4.53,0,0,1,2.81,1.37c0-.13.07-.26.12-.38s.21-.16.33,0a.75.75,0,0,1-.07,1A5,5,0,0,1,12.57,15h0l.07,0a4.25,4.25,0,0,0,1.2-1.3,5.58,5.58,0,0,0,.53-3.72,11.15,11.15,0,0,0-1.67-4.32,3.23,3.23,0,0,0-1-1,8.71,8.71,0,0,0-1-.58,8.83,8.83,0,0,0-3-.79c-.41-.05-.82-.05-1.21-.08-.07.17-.09.33-.19.42A2.16,2.16,0,0,1,5,4.16a.52.52,0,0,0-.3.08L1.89,6.16a.32.32,0,0,0-.1.13C1.69,6.5,1.6,6.72,1.51,6.94Zm8.77,8.58a2.49,2.49,0,0,0,2.42-1.09,4.8,4.8,0,0,0,.87-3.26,2.24,2.24,0,0,0-.92-1.72,4.28,4.28,0,0,0-3.18-.87,3.43,3.43,0,0,0-2.69,1.86,4,4,0,0,0-.26,2.74,2.49,2.49,0,0,0,1.59,2l.07.06c0,.16.07.15.15.16l1.3.14a1.46,1.46,0,0,1,.33.12,2,2,0,0,1,.25.13ZM11.42,4c.3.23.61.42.88.67a.65.65,0,0,0,.7.23,1,1,0,0,1,.34,0c1.3,0,1.66,1,1.52,2a1.52,1.52,0,0,1-.58.85c-.06,0-.12.15-.1.21.07.29.17.57.26.86l.05,0a3.45,3.45,0,0,0,.9-2.9,3,3,0,0,0-1-1.81A2.79,2.79,0,0,0,11.42,4Zm8.94,3.28a1.44,1.44,0,0,1-.07.16l-1.05,2.67a.58.58,0,0,0,0,.19c.05,0,.13-.06.17-.12.55-.64,1.08-1.29,1.63-1.93.16-.2.35-.37.56-.6C21.09,7.75,20.65,7.85,20.36,7.32Zm-1.27,2-.63-.44-.12.87a.35.35,0,0,0,.37.37.2.2,0,0,0,.07-.06Zm.56-1.42L19,8l.4.47Z"/><path d="M31.08,7.42a5.66,5.66,0,0,1,.62-.67,3.32,3.32,0,0,1,.76-.47.44.44,0,0,1,.41.09.32.32,0,0,1,0,.46,4.42,4.42,0,0,1-.77.5,2.68,2.68,0,0,1-.68.21c-.15,0-.17.1-.18.23s.07.15.17.18a11.32,11.32,0,0,1,1.11.4.91.91,0,0,1,.38.35.26.26,0,0,1-.21.45A1,1,0,0,1,32.08,9a9.71,9.71,0,0,1-.9-.8c-.09-.08-.15-.16-.29-.1a.84.84,0,0,1-.32,0c-.05.22-.07.46-.14.69a6.59,6.59,0,0,1-.32.84.46.46,0,0,1-.56.28.54.54,0,0,1-.14-.63,2.94,2.94,0,0,1,.84-1.13c.16-.15.2-.28.08-.46-.31,0-.61.08-.92.08a4.11,4.11,0,0,1-.86-.07c-.25,0-.41-.26-.38-.42s.24-.31.49-.32a2.75,2.75,0,0,1,1.25.37l.44.23.23-.31c-.14-.34-.3-.71-.43-1.1a.91.91,0,0,1,0-.49.47.47,0,0,1,.22-.33.43.43,0,0,1,.36.13,1.74,1.74,0,0,1,.24.68,4.3,4.3,0,0,1-.05,1A.22.22,0,0,0,31.08,7.42Z"/><path d="M21.05,19.63c-.1.43-.18.8-.26,1.17,0,.06,0,.12-.05.18a.25.25,0,0,1-.3.21.25.25,0,0,1-.2-.3c0-.25.1-.5.15-.75.1-.42.2-.85.31-1.27a1.08,1.08,0,0,1,.13-.37.4.4,0,0,1,.28-.17c.08,0,.2.12.23.21.08.3.14.61.21.92s.1.43.16.65h.06c.13-.47.27-.95.41-1.43a.78.78,0,0,1,.09-.27c.06-.08.16-.17.24-.17a.32.32,0,0,1,.24.17,2.52,2.52,0,0,1,.13.49c.13.64.27,1.29.41,1.94.05.22,0,.35-.16.38s-.3-.09-.34-.24c-.09-.32-.16-.66-.23-1a1.58,1.58,0,0,0-.11-.37c-.12.32-.23.65-.35,1A1.28,1.28,0,0,1,22,21a.42.42,0,0,1-.3.18c-.08,0-.2-.13-.24-.22-.11-.36-.2-.72-.3-1.08C21.1,19.79,21.09,19.74,21.05,19.63Z"/><path d="M30.45,19.45a1.82,1.82,0,0,1-.54,1.38,1.31,1.31,0,0,1-2.15-.51,1.63,1.63,0,0,1,1.52-2C30,18.35,30.47,18.63,30.45,19.45Zm-1.22-.63a.71.71,0,0,0-.59.23,1.14,1.14,0,0,0-.4,1,.73.73,0,0,0,.23.45.81.81,0,0,0,1.15-.09,1.44,1.44,0,0,0,.29-.58C30,19.17,29.9,18.8,29.23,18.82Z"/><path d="M32.12,20.1c.21.18.43.34.63.53a.25.25,0,0,1,0,.4c-.14.13-.26.07-.38-.05a3.16,3.16,0,0,0-1.16-.72v.55c0,.18,0,.31-.24.34s-.26-.12-.26-.34c0-.72,0-1.45,0-2.18,0-.33.15-.42.47-.39a1.74,1.74,0,0,1,1.08.37,2.06,2.06,0,0,1,.29.3.7.7,0,0,1-.21,1Zm-.87-.29a4.91,4.91,0,0,0,.78-.2c.24-.11.26-.3.09-.5a1,1,0,0,0-.87-.37Z"/><path d="M33.61,20.27v.55c0,.21-.1.33-.25.33s-.25-.12-.25-.33c0-.73,0-1.46,0-2.2,0-.32.15-.4.48-.38a1.81,1.81,0,0,1,1.08.37,1.48,1.48,0,0,1,.27.29A.7.7,0,0,1,34.74,20l-.26.14.5.39a.86.86,0,0,1,.19.19.24.24,0,0,1,0,.36.23.23,0,0,1-.34,0,3.18,3.18,0,0,0-1-.7Zm0-.47a4.72,4.72,0,0,0,.76-.18c.26-.11.28-.31.11-.52a1,1,0,0,0-.87-.36Z"/><path d="M26,21.21a2.56,2.56,0,0,1-.57-.21.64.64,0,0,1-.26-.38c0-.07.06-.23.14-.28a.31.31,0,0,1,.29.08.53.53,0,0,0,.61.26,2.76,2.76,0,0,0,.64-.18c.08,0,.18-.18.16-.26a.34.34,0,0,0-.23-.22,6.15,6.15,0,0,0-.75-.09.9.9,0,0,1-.22-.06.53.53,0,0,1-.31-.83,1.28,1.28,0,0,1,1.72-.47c.07.05.14.23.11.25A.55.55,0,0,1,27,19c-.17,0-.34-.09-.5-.06a1.28,1.28,0,0,0-.52.2.15.15,0,0,0,.06.28,3.55,3.55,0,0,0,.56.06.87.87,0,0,1,.9.62.7.7,0,0,1-.3.81A2.51,2.51,0,0,1,26,21.21Z"/><path d="M25.86,13l.14-.17c-.08-.21-.18-.44-.26-.67a.4.4,0,0,1,0-.26,1.34,1.34,0,0,1,.17-.31c.09.07.26.12.28.21a3.48,3.48,0,0,1,.07.73,1.49,1.49,0,0,1,0,.21,1.47,1.47,0,0,0,.06.14s.1,0,.13-.07.31-.32.48-.47a.76.76,0,0,1,.34-.16c.07,0,.21,0,.24,0a.28.28,0,0,1,0,.27.9.9,0,0,1-.36.28,1.55,1.55,0,0,1-.51.18c-.16,0-.2.1-.16.25l.57.17a1.15,1.15,0,0,1,.23.1c.23.14.34.32.26.45s-.33.12-.53,0a1.73,1.73,0,0,1-.41-.35c-.15-.17-.29-.27-.52-.18-.06.22-.1.46-.18.68a1,1,0,0,1-.22.38.3.3,0,0,1-.24.06.25.25,0,0,1-.12-.22,1,1,0,0,1,.16-.43,5.71,5.71,0,0,1,.39-.47,2.38,2.38,0,0,0,.12-.27c-.36,0-.65,0-.93,0a.72.72,0,0,1-.33-.07,1.14,1.14,0,0,1-.18-.25c.09-.07.17-.17.26-.18a1.22,1.22,0,0,1,.46.06C25.41,12.74,25.62,12.85,25.86,13Z"/><path d="M18,18.86c-.12,0-.24,0-.36,0s-.25-.07-.26-.22.07-.25.22-.25l.91,0a3.88,3.88,0,0,1,.48,0c.19,0,.28.11.26.29s-.15.22-.31.21-.26,0-.42,0v1.7h.44c.17,0,.29.07.29.25s-.13.25-.3.26H18c-.13,0-.26,0-.39,0a.25.25,0,0,1-.29-.27.26.26,0,0,1,.28-.28H18Z"/><path d="M36.56,19.71l.53-1.17c.07-.15.15-.28.35-.2s.21.19.11.4c-.35.73-.7,1.46-1.06,2.18,0,.08-.08.17-.15.2a.45.45,0,0,1-.3,0,.28.28,0,0,1-.07-.27,1.74,1.74,0,0,1,.24-.47.29.29,0,0,0,0-.36c-.28-.41-.54-.84-.81-1.26-.09-.14-.15-.28,0-.4s.28-.06.4.13.35.6.53.89A3.74,3.74,0,0,0,36.56,19.71Z"/><path d="M34.6,14.94l.41.33a.41.41,0,0,1,.13.19.82.82,0,0,1,0,.27c-.09,0-.22,0-.27-.05a1.7,1.7,0,0,1-.29-.46c-.06-.16-.13-.27-.31-.27a6.4,6.4,0,0,1-.4.51c-.09.11-.25.24-.38.09s0-.28.13-.36.32-.19.47-.28l.14-.14a.86.86,0,0,0-.16-.1,5.83,5.83,0,0,1-.58-.23.35.35,0,0,1-.15-.28c.07-.14.23-.11.33,0s.4.32.63.51c.12,0,.13-.11.12-.25a2.65,2.65,0,0,1,0-.56c0-.07.13-.12.2-.17s.14.16.13.23a6.17,6.17,0,0,1-.19.61.8.8,0,0,0,0,.15.44.44,0,0,0,.16,0,4.75,4.75,0,0,1,.64-.2c.06,0,.15.07.23.12s-.1.2-.17.21a3.39,3.39,0,0,1-.64,0C34.66,14.81,34.66,14.79,34.6,14.94Z"/><path d="M19.45,18.78a2.13,2.13,0,0,1,.07-.44.34.34,0,0,1,.23-.18c.07,0,.17.14.19.22a2.12,2.12,0,0,1,0,.44c0,.17-.08.31-.27.29S19.45,18.93,19.45,18.78Z"/><path d="M5.61,8.42a.82.82,0,0,1,.82-.85.81.81,0,0,1,.78.81.86.86,0,0,1-.82.86A.78.78,0,0,1,5.61,8.42Z"/><path d="M11.37,14.38l-.32-.71-.59.27-.62.28c-.05,0-.15,0-.18,0-.26-.27-.5-.55-.77-.84l.43-.31.59.66c.38-.19.71-.36,1-.54.06,0,.07-.15.11-.22a.86.86,0,0,0-.18-1.09,10.41,10.41,0,0,1-.75-1c.15-.23.28-.45.44-.66a.27.27,0,0,1,.2-.09l1.56.37a.29.29,0,0,1,.17.14c.1.16.17.33.27.5s.05.16,0,.25c-.27.25-.53.5-.78.77a1.64,1.64,0,0,0-.26.42c0,.11,0,.24-.1.35a.68.68,0,0,0,.09.71l1-.41c.16.43.16.43-.25.63Z"/></g><path class="cls-4" d="M1.56,2.84a.32.32,0,0,1,.15-.42,3.2,3.2,0,0,1,3.4-.23c.48.23.9.55,1.36.81a.64.64,0,0,0,.34.12,10.39,10.39,0,0,1,4.36.9.36.36,0,0,0,.27,0A4.77,4.77,0,0,1,13,3.58a2.29,2.29,0,0,1,2.25,1,3.62,3.62,0,0,1-.42,4.56.37.37,0,0,0-.1.35c.08.61.14,1.22.21,1.83v.14a4.5,4.5,0,0,1,1.55-.8l1.68-.44a.15.15,0,0,0,0-.11c-.19-.41,0-.82,0-1.23V8.61c-.13.16-.22.29-.33.4a1,1,0,0,1-.28.22.44.44,0,0,1-.53-.05A.41.41,0,0,1,17,8.65a2.85,2.85,0,0,1,.44-.48,2.61,2.61,0,0,1,.32-.2c-.18-.07-.34-.1-.48-.17a1.62,1.62,0,0,1-.43-.29A.36.36,0,0,1,16.77,7a.59.59,0,0,1,.4-.22.94.94,0,0,1,.71.3l.19.17c0-.18,0-.33,0-.48a1.87,1.87,0,0,1,.09-.41.48.48,0,0,1,.46-.34.47.47,0,0,1,.4.46,2.32,2.32,0,0,1-.08.58,1.74,1.74,0,0,1-.13.31c.44-.16.84-.44,1.32,0l.75-2.68-.06,0c-.05,0-.09.1-.15.14a2,2,0,0,1-.45.31A.4.4,0,0,1,19.71,5a.47.47,0,0,1,0-.53,1.39,1.39,0,0,1,.64-.51l.19-.09c-.23-.11-.44-.2-.64-.31a.87.87,0,0,1-.27-.27.38.38,0,0,1,0-.47.45.45,0,0,1,.47-.18.57.57,0,0,1,.22.07.57.57,0,0,0,.6.08c.07-.18.11-.37.19-.53A.45.45,0,0,1,21.61,2a.49.49,0,0,1,.33.49,4.15,4.15,0,0,1-.19.69,1,1,0,0,1-.09.2,2.61,2.61,0,0,1,.53-.16.9.9,0,0,1,.49,0c.13,0,.3.21.31.33a.53.53,0,0,1-.2.42,2.76,2.76,0,0,1-.7.17h-.15a4.26,4.26,0,0,1,.37.39,1.09,1.09,0,0,1,.22.46.51.51,0,0,1-.15.41.37.37,0,0,1-.49,0,3.13,3.13,0,0,1-.42-.47,1.61,1.61,0,0,1-.12-.23l-.64,2.43c.38-.26.74-.12,1.16-.07a1.24,1.24,0,0,1-.16-.24,2.38,2.38,0,0,1-.15-.64.45.45,0,0,1,.28-.32.54.54,0,0,1,.45.13,2.15,2.15,0,0,1,.3.56,2,2,0,0,1,.08.29c.16-.22.3-.42.46-.6a.87.87,0,0,1,.31-.18.43.43,0,0,1,.46.13.38.38,0,0,1,0,.49,4.69,4.69,0,0,1-.47.53,1.51,1.51,0,0,1-.21.14c.25.08.47.13.67.21a.75.75,0,0,1,.32.26.59.59,0,0,1,0,.45.38.38,0,0,1-.48.21,4.71,4.71,0,0,1-.69-.31.91.91,0,0,1-.17-.12,3.59,3.59,0,0,1,0,.53,2.24,2.24,0,0,1-.13.57.4.4,0,0,1-.44.23A.41.41,0,0,1,22,9.05a2,2,0,0,1,0-.42,2.66,2.66,0,0,0,0-.3,21.23,21.23,0,0,0-2.18,2.5.83.83,0,0,1,.16.09,1.84,1.84,0,0,1,.64,1.8,7.92,7.92,0,0,1-2.61,4.71,15.65,15.65,0,0,1-3,2.26,24.36,24.36,0,0,1-2.31,1.24,10.1,10.1,0,0,1-1.34.42c0,.16,0,.39,0,.62s0,.32,0,.48-.08.22-.22.17l-.09-3.41.22,0L11.39,21a5.07,5.07,0,0,0,.54-.09,8.68,8.68,0,0,0,2.35-1.09,33.57,33.57,0,0,0,2.8-1.9,9.28,9.28,0,0,0,3-3.8.71.71,0,0,0,.06-.24,9,9,0,0,1-.63.86,7.3,7.3,0,0,1-.85.82,1.83,1.83,0,0,1-1.58.35l-.23,0-.25.46-.08,0c-.14-.08-.33-.13-.4-.25s0-.27.07-.45a4,4,0,0,1-1.68-2,5.07,5.07,0,0,1-2.92,2.53.75.75,0,0,0,0,.22,2,2,0,0,0,.14.34.47.47,0,0,1,.06.15c0,.47-.09.94-.14,1.41a1.32,1.32,0,0,1-.08.19,3.25,3.25,0,0,1-.46-.22,8.22,8.22,0,0,1-1-.7,1.44,1.44,0,0,0-1-.31c.18.22.37.42.53.64a5.1,5.1,0,0,1,1,3.36.64.64,0,0,1-.21.5c-.23.21-.43.45-.69.71,0-.43-.07-.8-.11-1.17A16.6,16.6,0,0,0,9.08,18a2.14,2.14,0,0,0-.26-.55,1.06,1.06,0,0,0-.37-.29.24.24,0,0,0-.34.1,4.28,4.28,0,0,0-.77,2,10.63,10.63,0,0,0-.1,2.58,3.11,3.11,0,0,1,0,.32c-.36-.17-.7-.34-1-.52,0,0,0-.1-.06-.15A4.08,4.08,0,0,1,6.48,19,7.2,7.2,0,0,1,7.6,17.21L7.76,17a1.39,1.39,0,0,0-.32,0c-.65.07-1.29.16-1.93.24l-.33.06c-.13,0-.19-.05-.15-.18a1.28,1.28,0,0,0,.06-.32c0-.32,0-.64,0-1s0-.29-.24-.29l-.23,0c-.08.38-.14.75-.23,1.12A12.92,12.92,0,0,1,3.23,19.8,3.21,3.21,0,0,1,2.29,21a5.64,5.64,0,0,1-.74.38v-.3a1.93,1.93,0,0,0,1.19-.92,9.54,9.54,0,0,0,1.11-2.53,12,12,0,0,0,.58-4c0-.06,0-.13,0-.19l0-.06-.31.2a2.11,2.11,0,0,1-2.4,0,.36.36,0,0,1-.13-.25c0-2.08,0-4.15,0-6.23a2.57,2.57,0,0,1,.08-.38c.09-.39.17-.78.26-1.17a2.7,2.7,0,0,1,.91-1.67A1.69,1.69,0,0,1,5,4a.4.4,0,0,0,.35.11,6.08,6.08,0,0,0,1-.41.24.24,0,0,0,0-.42A5.6,5.6,0,0,0,4.1,2.11a2.94,2.94,0,0,0-2.26.53Zm.15,4.3a9.09,9.09,0,0,1,2.92,8l.47,0c.15,0,.31.1.47.13.65.1,1.3.18,1.95.26a1.28,1.28,0,0,0,.32-.06,2.94,2.94,0,0,1-1.08-1.22,4.55,4.55,0,0,1-.34-2.77,3.78,3.78,0,0,1,4.23-3,4.48,4.48,0,0,1,2.81,1.37,2.11,2.11,0,0,1,.12-.38c.08-.15.21-.16.33,0a.75.75,0,0,1-.07,1,5,5,0,0,1-1.07,4.72s0,0,0,0a.18.18,0,0,0,.07,0,3.9,3.9,0,0,0,1.19-1.3,5.43,5.43,0,0,0,.53-3.71,10.92,10.92,0,0,0-1.66-4.32,3.37,3.37,0,0,0-1-1,8.64,8.64,0,0,0-1-.57,9.08,9.08,0,0,0-3-.8c-.41,0-.83-.05-1.21-.07-.07.17-.09.33-.19.42a2.21,2.21,0,0,1-1.43.58.52.52,0,0,0-.3.08C3.94,5.07,3,5.72,2.09,6.36a.38.38,0,0,0-.1.12C1.89,6.7,1.8,6.92,1.71,7.14Zm8.77,8.58a2.52,2.52,0,0,0,2.41-1.09,4.69,4.69,0,0,0,.87-3.26,2.2,2.2,0,0,0-.91-1.72,4.28,4.28,0,0,0-3.18-.87A3.41,3.41,0,0,0,7,10.64a3.93,3.93,0,0,0-.26,2.74,2.48,2.48,0,0,0,1.58,2,.18.18,0,0,1,.08.06c-.05.15.07.14.15.15.43.06.87.1,1.3.15a1.46,1.46,0,0,1,.33.12,1.41,1.41,0,0,1,.24.13ZM11.62,4.24a9.71,9.71,0,0,1,.88.67.65.65,0,0,0,.7.22,1.28,1.28,0,0,1,.34,0c1.3,0,1.66,1,1.52,2a1.52,1.52,0,0,1-.58.85c-.06,0-.12.15-.1.21.07.28.17.57.26.86l0,0a3.45,3.45,0,0,0,.9-2.9,2.92,2.92,0,0,0-1-1.81A2.78,2.78,0,0,0,11.62,4.24Zm8.94,3.28c0,.08,0,.12-.07.16l-1,2.67a1,1,0,0,0,0,.18.54.54,0,0,0,.18-.11c.54-.64,1.08-1.29,1.63-1.93.16-.2.34-.38.55-.6C21.29,7.94,20.85,8,20.56,7.52Zm-1.27,2-.63-.44c0,.29-.08.58-.13.87s.19.41.37.37a.14.14,0,0,0,.08-.07Zm.56-1.43-.62.11.4.47Z"/><path class="cls-4" d="M31.28,7.61A6.45,6.45,0,0,1,31.9,7a3.32,3.32,0,0,1,.76-.47.44.44,0,0,1,.41.09A.32.32,0,0,1,33,7a4.83,4.83,0,0,1-.77.5,3.16,3.16,0,0,1-.68.21c-.15,0-.17.1-.18.23s.07.15.17.18a11.32,11.32,0,0,1,1.11.4.89.89,0,0,1,.38.34c.15.22.05.45-.21.46a1,1,0,0,1-.56-.12,9.71,9.71,0,0,1-.9-.8c-.09-.09-.15-.16-.3-.1a.82.82,0,0,1-.32,0,5.43,5.43,0,0,1-.13.68,6.19,6.19,0,0,1-.32.85.48.48,0,0,1-.56.28c-.17-.08-.23-.37-.14-.64a3,3,0,0,1,.84-1.12.32.32,0,0,0,.08-.47,7.34,7.34,0,0,1-.92.09,3.53,3.53,0,0,1-.86-.08.43.43,0,0,1-.39-.41.51.51,0,0,1,.5-.32,2.87,2.87,0,0,1,1.25.36l.43.24.23-.31c-.13-.34-.29-.71-.42-1.1a.94.94,0,0,1,0-.5.52.52,0,0,1,.23-.32.4.4,0,0,1,.36.13,1.74,1.74,0,0,1,.24.68,4.33,4.33,0,0,1-.05,1C31.07,7.49,31.11,7.57,31.28,7.61Z"/><path class="cls-4" d="M21.25,19.83c-.1.43-.18.8-.27,1.17a1.16,1.16,0,0,1,0,.18.25.25,0,0,1-.5-.1c0-.25.1-.49.15-.74l.3-1.27A1.35,1.35,0,0,1,21,18.7a.38.38,0,0,1,.28-.17.31.31,0,0,1,.22.2c.09.31.15.62.22.93s.1.43.15.65H22c.13-.47.27-.95.41-1.43a.71.71,0,0,1,.09-.28c.06-.07.16-.16.24-.16a.34.34,0,0,1,.24.17,2.52,2.52,0,0,1,.13.49c.13.64.27,1.29.41,1.93,0,.23,0,.35-.17.39s-.29-.09-.33-.24c-.09-.33-.16-.66-.23-1a1.92,1.92,0,0,0-.11-.37c-.12.33-.23.66-.35,1a1.22,1.22,0,0,1-.14.35c-.08.09-.2.19-.3.18s-.21-.13-.24-.22c-.12-.36-.2-.72-.3-1.08A1,1,0,0,1,21.25,19.83Z"/><path class="cls-4" d="M30.65,19.65A1.87,1.87,0,0,1,30.11,21,1.32,1.32,0,0,1,28,20.52a1.63,1.63,0,0,1,1.52-2C30.16,18.55,30.67,18.83,30.65,19.65ZM29.43,19a.71.71,0,0,0-.6.23,1.16,1.16,0,0,0-.39,1,.77.77,0,0,0,.22.45.8.8,0,0,0,1.15-.1,1.31,1.31,0,0,0,.3-.57C30.24,19.37,30.09,19,29.43,19Z"/><path class="cls-4" d="M32.32,20.3c.21.17.43.34.63.53a.25.25,0,0,1,0,.4c-.14.13-.26.07-.38-.05a3.11,3.11,0,0,0-1.16-.72V21c0,.18-.05.31-.24.34s-.26-.12-.26-.34c0-.73,0-1.45,0-2.18,0-.33.15-.42.47-.39a1.8,1.8,0,0,1,1.08.36,2.13,2.13,0,0,1,.29.31.7.7,0,0,1-.21,1ZM31.45,20a3.91,3.91,0,0,0,.77-.21c.25-.1.27-.3.1-.49a1,1,0,0,0-.87-.37Z"/><path class="cls-4" d="M33.81,20.47V21c0,.2-.1.33-.25.33s-.25-.12-.25-.33c0-.73,0-1.46,0-2.2,0-.32.15-.4.48-.38a1.81,1.81,0,0,1,1.08.37,1.48,1.48,0,0,1,.27.29.7.7,0,0,1-.21,1.06l-.27.14c.18.13.35.25.51.38a1.19,1.19,0,0,1,.19.2.24.24,0,0,1,0,.36.23.23,0,0,1-.34,0,3.22,3.22,0,0,0-1-.7Zm0-.47a4.22,4.22,0,0,0,.76-.19c.26-.11.28-.3.11-.51a1,1,0,0,0-.87-.36Z"/><path class="cls-4" d="M26.16,21.4a2.45,2.45,0,0,1-.57-.2.7.7,0,0,1-.27-.38.35.35,0,0,1,.15-.28.29.29,0,0,1,.28.07.54.54,0,0,0,.62.27,2.78,2.78,0,0,0,.64-.19.32.32,0,0,0,.16-.25.37.37,0,0,0-.23-.23c-.24-.05-.5-.05-.75-.08a.9.9,0,0,1-.22-.06.53.53,0,0,1-.31-.83,1.28,1.28,0,0,1,1.72-.47.33.33,0,0,1,.11.25.48.48,0,0,1-.3.15c-.17,0-.34-.08-.5-.06a1.46,1.46,0,0,0-.52.21c-.13.08-.1.24.06.28a3.43,3.43,0,0,0,.56.06.87.87,0,0,1,.9.62.7.7,0,0,1-.31.81A2.34,2.34,0,0,1,26.16,21.4Z"/><path class="cls-4" d="M26.06,13.15,26.2,13c-.08-.21-.18-.44-.27-.67a.47.47,0,0,1,0-.26,1.34,1.34,0,0,1,.17-.31c.09.07.25.12.28.21a4.28,4.28,0,0,1,.07.72,1.49,1.49,0,0,1,0,.21.35.35,0,0,0,.06.14s.1,0,.13-.06.31-.33.48-.47a.84.84,0,0,1,.34-.17c.07,0,.21,0,.24.06a.29.29,0,0,1,0,.27.9.9,0,0,1-.36.28,2.38,2.38,0,0,1-.51.18c-.16,0-.21.1-.16.25s.38.1.57.17a1.07,1.07,0,0,1,.22.1c.24.13.35.32.27.45s-.33.12-.53,0a2,2,0,0,1-.42-.35c-.14-.17-.28-.27-.51-.18-.06.22-.1.46-.18.68a.87.87,0,0,1-.22.37.26.26,0,0,1-.25.06.25.25,0,0,1-.11-.21,1.05,1.05,0,0,1,.15-.43c.11-.17.27-.31.39-.47a1,1,0,0,0,.12-.27c-.35,0-.64,0-.92,0a.62.62,0,0,1-.33-.08c-.08-.05-.12-.16-.18-.25s.17-.16.26-.17a1.14,1.14,0,0,1,.45.06C25.61,12.94,25.82,13.05,26.06,13.15Z"/><path class="cls-4" d="M18.17,19.06c-.12,0-.24,0-.36,0s-.25-.07-.26-.22.07-.25.22-.25c.3,0,.61,0,.91,0a3.88,3.88,0,0,1,.48,0c.19,0,.28.11.26.28s-.15.23-.31.22l-.42-.05v1.71h.44c.17,0,.29.06.29.25s-.13.25-.3.25h-.89l-.39,0a.25.25,0,0,1-.29-.27.26.26,0,0,1,.28-.28c.1,0,.21,0,.34,0Z"/><path class="cls-4" d="M36.76,19.91l.53-1.17c.07-.15.15-.28.35-.2s.21.19.11.4c-.35.73-.71,1.45-1.06,2.18,0,.07-.09.17-.15.2a.39.39,0,0,1-.3,0,.27.27,0,0,1-.07-.26,1.74,1.74,0,0,1,.24-.47.29.29,0,0,0,0-.36c-.28-.41-.54-.84-.81-1.26-.09-.14-.15-.28,0-.41s.28,0,.4.14.35.6.53.89C36.6,19.69,36.67,19.78,36.76,19.91Z"/><path class="cls-4" d="M34.8,15.13c.14.12.28.22.41.34a.55.55,0,0,1,.13.18,1.22,1.22,0,0,1,0,.27c-.09,0-.22,0-.27-.05a1.65,1.65,0,0,1-.29-.45c-.07-.16-.13-.27-.31-.27a6.4,6.4,0,0,1-.4.51c-.1.11-.25.23-.38.09s0-.28.13-.37a5.26,5.26,0,0,1,.47-.27.86.86,0,0,0,.13-.14.78.78,0,0,0-.15-.1,5.83,5.83,0,0,1-.58-.23c-.08,0-.18-.21-.15-.28s.23-.11.33,0,.4.32.62.51c.12,0,.14-.11.13-.25a2.64,2.64,0,0,1,0-.56c0-.07.13-.12.2-.18s.15.17.14.24a6.17,6.17,0,0,1-.19.61.8.8,0,0,0,0,.15.44.44,0,0,0,.16,0c.21-.07.42-.16.64-.21.06,0,.15.08.23.13s-.1.2-.17.21A3.44,3.44,0,0,1,35,15C34.86,15,34.86,15,34.8,15.13Z"/><path class="cls-4" d="M19.65,19a2.13,2.13,0,0,1,.07-.44.32.32,0,0,1,.23-.18.31.31,0,0,1,.18.22,2.17,2.17,0,0,1,0,.44c0,.17-.08.31-.27.29S19.64,19.13,19.65,19Z"/><path class="cls-4" d="M5.81,8.62a.82.82,0,0,1,.81-.85.81.81,0,0,1,.79.81.86.86,0,0,1-.82.86A.78.78,0,0,1,5.81,8.62Z"/><path class="cls-4" d="M11.57,14.58l-.32-.72-.6.28-.61.28a.22.22,0,0,1-.18,0c-.26-.27-.5-.55-.77-.84l.42-.32.6.67c.37-.19.71-.36,1-.54.06,0,.07-.15.11-.22a.86.86,0,0,0-.18-1.09,11.43,11.43,0,0,1-.75-1c.15-.23.28-.45.44-.66a.27.27,0,0,1,.2-.09c.52.11,1,.24,1.56.37a.36.36,0,0,1,.17.13c.09.17.17.34.27.5a.18.18,0,0,1,0,.26c-.27.25-.54.5-.78.77a1.64,1.64,0,0,0-.26.42c-.05.11-.05.24-.1.34a.7.7,0,0,0,.09.72l1-.41c.16.43.16.43-.24.63Z"/></g></g></svg>