<svg xmlns="http://www.w3.org/2000/svg" viewBox="0 0 38.55 24.66"><defs><style>.cls-1{isolation:isolate;}.cls-2{opacity:0.15;}.cls-2,.cls-3{mix-blend-mode:multiply;}.cls-4{fill:#fff;}</style></defs><title>convert-FIX-SVG-03</title><g class="cls-1"><g id="Layer_1" data-name="Layer 1"><g class="cls-2"><path d="M13.45,13.9l-.26,0,.3-1.85-.37.21-1.25.58c-.13.06-.17.11-.13.26a4.76,4.76,0,0,1,.06,2.22c-.06.21-.15.41-.22.61a.73.73,0,0,0,1-.2,1.71,1.71,0,0,1,1-.62A1.17,1.17,0,0,1,15,16.22a5.63,5.63,0,0,1-.41,2.5,1.16,1.16,0,0,1-1.16.7,3.42,3.42,0,0,1-.83-.1C12,19.23,11.52,19.11,11,19a9,9,0,0,1-2.16-.56c-.15-.05-.29-.14-.42.05a.47.47,0,0,0-.08.58,1.64,1.64,0,0,1,.17,1.46,1.29,1.29,0,0,1-1.66.87,3.79,3.79,0,0,1-2-1.32,1.38,1.38,0,0,1-.17-1.4,5.06,5.06,0,0,1,1.2-1.83.24.24,0,0,0,0-.35,4.15,4.15,0,0,1-.46-1.89c0-.33,0-.66,0-1l-.22.06a8.38,8.38,0,0,1-2.37.57A1.79,1.79,0,0,1,1.76,14a.86.86,0,0,1-.4-1.09A1.8,1.8,0,0,1,2,12a12.12,12.12,0,0,1,3.28-1.82l.06,0A11.18,11.18,0,0,1,4.87,9a3,3,0,0,1,.3-2.21A5.42,5.42,0,0,1,6.29,5.34a.46.46,0,0,0,.13-.27A1.42,1.42,0,0,1,7.5,4a.7.7,0,0,1,.71.81l.46.11a3.19,3.19,0,0,1,2.11,1.43.35.35,0,0,0,.18.13,2.62,2.62,0,0,1,.93.75A1.19,1.19,0,0,1,12,8.45a4.92,4.92,0,0,1-.3.61,1.24,1.24,0,0,1-.86.68l-.13,0v.05A8.4,8.4,0,0,0,12,9.58a4.58,4.58,0,0,1,1.74-.21c0-.17,0-.34,0-.5,0-.74-.08-1.48-.13-2.22a.51.51,0,0,0-.17-.29c-.45-.35-.92-.68-1.36-1a2.77,2.77,0,0,1-.91-1.2,1.08,1.08,0,0,1,.5-1.33A1,1,0,0,1,13,3a2.8,2.8,0,0,1,.22.25,1.12,1.12,0,0,0,.05-.13,1,1,0,0,1,1.28-.76,1.14,1.14,0,0,1,.87,1.33,4.12,4.12,0,0,1-.86,1.77c-.21.28-.42.57-.61.86a.5.5,0,0,0-.07.27c0,.88.09,1.76.13,2.64,0,.14,0,.22.16.27a.68.68,0,0,1,.42.61A1.68,1.68,0,0,1,14,11.65a.61.61,0,0,0-.21.39C13.66,12.66,13.55,13.28,13.45,13.9ZM10.81,6.67s-.06.08-.06.12c0,.58-.05,1.15,0,1.73a1.3,1.3,0,0,0,.34.9,2.09,2.09,0,0,0,.75-1.14.27.27,0,0,0,0-.12l-.15-.78a.33.33,0,0,0-.11-.19c-.23-.18-.47-.35-.71-.52-.08,0-.19-.07-.22-.14A2.84,2.84,0,0,0,8.75,5.18c-.61-.18-.65-.13-.68.51a7.42,7.42,0,0,1-.15.86l-.26-.12a2.6,2.6,0,0,0,.13-1.17,1.71,1.71,0,0,1,.12-.57c0-.07.07-.18,0-.2a1.36,1.36,0,0,0-.39-.25s-.17.18-.2.29a2.53,2.53,0,0,0,0,1.28c.07.3.15.6.23.9a.35.35,0,0,1-.47-.1c-.25-.33-.48-.68-.72-1A4.7,4.7,0,0,0,5.23,7.31a2.75,2.75,0,0,0,.22,2.46c.18.29.18.27.51.22l1.5-.18A5.43,5.43,0,0,1,7.37,7H7.6c0,.53-.11,1.06-.1,1.58a4.89,4.89,0,0,0,.21,1.13c0,.1.17.2.29.23.31.11.63.18.95.26a.47.47,0,0,0,.16,0l1.63-.68a4.94,4.94,0,0,1-.24-2.84ZM6,13.3l0,0H8.33a1.14,1.14,0,0,0,1.13-.84,4,4,0,0,0,.16-1.09.94.94,0,0,0-.49-.86,2,2,0,0,0-.55-.26,4.75,4.75,0,0,0-2.51-.06,10,10,0,0,0-4,2,1.85,1.85,0,0,0-.47.67.59.59,0,0,0,.31.83A1.58,1.58,0,0,0,3,14,7.41,7.41,0,0,0,6.2,12.88s.11-.06.17-.1l.14.2Zm8.52,2.46a.86.86,0,0,0-1.13-.37,2.5,2.5,0,0,0-.67.5,1,1,0,0,1-1.07.32l-1.74-.4a5.35,5.35,0,0,0-1.78-.15.85.85,0,0,0-.81.76A1.35,1.35,0,0,0,8.16,18a9.64,9.64,0,0,0,2.39.76,14.75,14.75,0,0,1,2.28.42A1.47,1.47,0,0,0,13.92,19a.29.29,0,0,0,.15-.16c.08-.85.15-1.71.24-2.56C14.33,16.11,14.33,15.89,14.55,15.76Zm-4.49-5-.08,0c-.06.08-.17.17-.15.24a2.6,2.6,0,0,1,0,1.11,1.57,1.57,0,0,1-1.26,1.44,2.28,2.28,0,0,1-.52,0H6c-.13,0-.21,0-.21.17s0,.54,0,.8a4.06,4.06,0,0,0,.45,1.9,2,2,0,0,0,1,.9c0-.17-.08-.31-.1-.45a1.2,1.2,0,0,1,1-1.49,2.82,2.82,0,0,1,.82,0c.76.12,1.51.27,2.26.42.13,0,.21,0,.25-.12a5.33,5.33,0,0,0,.25-1,6.67,6.67,0,0,0-.75-3.28,1.5,1.5,0,0,0-.11-.17c0,.09,0,.15,0,.18s-.11.16-.16.24a1.12,1.12,0,0,1-.17-.21ZM6.17,16.94a5,5,0,0,0-1.29,2A1,1,0,0,0,5,20,3.79,3.79,0,0,0,6.89,21.2a1,1,0,0,0,1.37-.73,1.33,1.33,0,0,0-.15-1.21.69.69,0,0,1,.05-.82l.07-.1-.77-.59a.19.19,0,0,0-.09-.05A2.42,2.42,0,0,1,6.17,16.94Zm6.94-5c-.85-.51-1.33-1.15-.95-2.14l-1.54.29,1,2.52Zm-6-7.49c-.61.37-.49,1.15.12,1.79A3.5,3.5,0,0,1,7.1,4.48Zm2.68,5.7-.42.17c.31.37.31.37.56.17Zm.59.43c.2-.19.07-.33,0-.51l-.22.26Z"/><path d="M36.08,19.3l-.16-.43c-.09.47-.43.54-.8.56a3.4,3.4,0,0,1-1.3-.23c-.83-.26-1.65-.54-2.49-.74a3.28,3.28,0,0,0-3,.62l-.09,0v-.25c0-.36,0-.72,0-1.08,0-.14,0-.2.18-.22.53-.08,1.07-.17,1.6-.27-.48,0-1,.05-1.45.12-2.24.33-4.48.69-6.73,1a20.4,20.4,0,0,1-3.74.33,13,13,0,0,1-1.5-.23,1.8,1.8,0,0,1-.21-.08.71.71,0,0,1-.52-.77c0-4.08,0-8.16,0-12.24V5.21h.24a1.13,1.13,0,0,0,.55.59,5.83,5.83,0,0,0,1.83.62,14.77,14.77,0,0,0,4,.19,52.39,52.39,0,0,0,5.59-.87c1.28-.24,2.57-.47,3.86-.64a6.82,6.82,0,0,1,3.14.19,6.48,6.48,0,0,1,.8.38.33.33,0,0,1,.18.34c0,2.55,0,5.11,0,7.66V19.3ZM16.17,5.77c0,.06,0,.1,0,.15q0,6,0,12a.28.28,0,0,0,.17.28,3.22,3.22,0,0,0,1.29.35,11.74,11.74,0,0,0,3-.14c2-.29,3.92-.62,5.89-.93A28.42,28.42,0,0,1,31.13,17a8.18,8.18,0,0,1,4.73,1.1V18q0-6,0-12a.38.38,0,0,0-.14-.25,4.15,4.15,0,0,0-2-.55A16.71,16.71,0,0,0,30,5.65c-1.74.31-3.46.66-5.2.95a18.43,18.43,0,0,1-5,.25A7.2,7.2,0,0,1,16.17,5.77ZM28.51,18.6c.29-.13.56-.26.83-.35a4.48,4.48,0,0,1,2.59.07c.78.22,1.54.5,2.31.74a1.88,1.88,0,0,0,1.1.08c.1,0,.24-.1.26-.17a.39.39,0,0,0-.14-.3,4.66,4.66,0,0,0-.85-.46,11,11,0,0,0-3.05-.63,11.55,11.55,0,0,0-2.93.21.22.22,0,0,0-.12.11C28.5,18.13,28.51,18.36,28.51,18.6Zm1.68-1.31.09,0c.17,0,.34,0,.5,0a11.34,11.34,0,0,1,3.66.57,2.64,2.64,0,0,1,1.4.8.9.9,0,0,0-.43-.54,5.18,5.18,0,0,0-.86-.4A12,12,0,0,0,30.19,17.29Z"/><path d="M23.88,4.91c0,.42,0,.84,0,1.26,0,0-.1.11-.17.13a12.31,12.31,0,0,1-3.09.21A9.26,9.26,0,0,1,17,5.79a3.44,3.44,0,0,1-.53-.3A.46.46,0,0,1,16.25,5a.5.5,0,0,1,.38-.36,1.81,1.81,0,0,1,1.08,0c.64.19,1.27.44,1.91.62a13,13,0,0,0,1.75.37A3,3,0,0,0,23.73,5l.1-.07Zm-.26.53c-.4.13-.76.3-1.15.39A4.8,4.8,0,0,1,20,5.63c-.72-.21-1.42-.47-2.14-.7a2,2,0,0,0-1.1-.07.4.4,0,0,0-.25.2.37.37,0,0,0,.16.26,5.39,5.39,0,0,0,.68.34,8.45,8.45,0,0,0,2.77.57,14.24,14.24,0,0,0,2.92-.07c.61-.09.6-.1.57-.72Z"/><path d="M7.13,23c-.23.08-.29,0-.34-.17-.11-.43-.26-.86-.4-1.3l.24-.09Z"/><path d="M26.55,21.52l.25-.09L27.29,23c-.25.11-.27.09-.33-.14C26.84,22.4,26.69,22,26.55,21.52Z"/><path d="M27.93,23l-.22,0a2.6,2.6,0,0,1,.39-1.38l.1.08s.05.06,0,.09Z"/><path d="M7.54,23a2.81,2.81,0,0,1,.4-1.4l.14.13L7.77,23Z"/><path d="M32.09,23c-.22.07-.3,0-.36-.14s-.25-.57-.38-.86l.23-.12Z"/><path d="M34.53,22l.23-.12L35.27,23c-.2.06-.29.06-.35-.13A9.35,9.35,0,0,0,34.53,22Z"/><path d="M3.18,23H2.9l-.47-1,.23-.14Z"/><path d="M10.1,22l.23-.13.5,1.12c-.22.09-.29,0-.35-.13S10.23,22.29,10.1,22Z"/><path d="M15.12,23h-.28l-.47-1,.23-.13Z"/><path d="M22.59,22l.24-.13.5,1.12c-.23.09-.3,0-.36-.14S22.73,22.29,22.59,22Z"/><path d="M19.11,23h-.23l-.47-1,.22-.12A4,4,0,0,1,19.11,23Z"/><path d="M20.09,22.15l-.3.88-.23,0A1.6,1.6,0,0,1,20,22Z"/><path d="M32.92,22l.11.15-.31.87h-.08l-.1,0A1.25,1.25,0,0,1,32.92,22Z"/><path d="M35.69,23a1.56,1.56,0,0,1,.4-1l.13.16L35.9,23Z"/><path d="M11.47,23l-.23,0a1.52,1.52,0,0,1,.43-1l.11.15Z"/><path d="M15.74,23l-.21,0a1.56,1.56,0,0,1,.4-1l.12.16Z"/><path d="M24.16,22l.12.15L24,23l-.22,0A1.49,1.49,0,0,1,24.16,22Z"/><path d="M4,22l.11.15-.3.88-.23,0A1.55,1.55,0,0,1,4,22Z"/><path d="M7.38,23H7.14V22h.24Z"/><path d="M27.54,23H27.3V22h.24Z"/><path d="M19.42,23c-.22.07-.31,0-.28-.19s0-.26,0-.38a.19.19,0,0,1,.13-.12.16.16,0,0,1,.13.12A5.42,5.42,0,0,1,19.42,23Z"/><path d="M3.41,23H3.17v-.71h.24Z"/><path d="M10.84,22.31h.24V23h-.24Z"/><path d="M15.11,23v-.7h.24V23Z"/><path d="M23.34,22.31h.24V23h-.24Z"/><path d="M32.34,22.3V23H32.1v-.7Z"/><path d="M35.28,22.31h.23V23h-.23Z"/><path d="M9.6,6.73l.11-.26a.93.93,0,0,1,.26.15.53.53,0,0,1,.07.61s-.09.12-.14.12a.19.19,0,0,1-.16-.1C9.68,7.09,9.65,6.91,9.6,6.73Z"/><path d="M9,11.62a.53.53,0,0,1-.59.5.55.55,0,0,1-.6-.52.58.58,0,0,1,.6-.5A.54.54,0,0,1,9,11.62Z"/><path d="M8.55,17.48A.59.59,0,0,1,8,17a.41.41,0,0,1,.44-.38.59.59,0,0,1,.6.53A.4.4,0,0,1,8.55,17.48Z"/><path d="M27.82,10.11c.67,0,1.34,0,2,0a.84.84,0,0,1,.69,1.28,1.06,1.06,0,0,1-.82.46c.61.19.82.7,1.12,1.12.14.21.28.44.58.48,0,0,.06.07.12.16-.3,0-.55,0-.81,0a.28.28,0,0,1-.16-.11L30,12.79l-.27-.43a.76.76,0,0,0-.9-.4v1.1c0,.29.08.37.37.4.11,0,.19,0,.12.17h-2.3a.27.27,0,0,1-.18-.12c-.17-.23-.33-.47-.48-.71s-.19-.31-.29-.45c-.25-.38-.38-.43-.87-.38,0,.42,0,.85,0,1.28,0,.18.2.2.36.22a.89.89,0,0,1,.16.09l0,.08H24.2l-.05-.05c.05,0,.08-.11.13-.11.36-.06.41-.1.41-.46V10.68c0-.34-.06-.4-.4-.44a.42.42,0,0,1-.14-.09l0-.08h.26c.57,0,1.13,0,1.69,0a.85.85,0,0,1,.84.94.79.79,0,0,1-.42.65,4.9,4.9,0,0,1-.46.18c.51.14.72.59,1,1l.26.36a.67.67,0,0,0,.76.2.25.25,0,0,0,.22-.27c0-.87,0-1.75,0-2.62,0-.23-.17-.29-.36-.3S27.77,10.22,27.82,10.11Zm-2.58,1.66c.37,0,.79.14,1-.27a.88.88,0,0,0,0-1c-.26-.38-.67-.27-1-.28Zm3.64,0c.39,0,.83.13,1.07-.31a.9.9,0,0,0,0-1c-.26-.36-.66-.25-1-.26Z"/><path d="M20.06,11.85a1.89,1.89,0,0,1,3.77,0,1.89,1.89,0,0,1-3.77,0ZM22,10.15a1.1,1.1,0,0,0-1.09.7,2.47,2.47,0,0,0,.05,2.09,1.19,1.19,0,0,0,2.07,0A2.49,2.49,0,0,0,23,10.87,1.1,1.1,0,0,0,22,10.15Z"/><path d="M19.18,10.2l.17-.18.06,0v.89s0,.07-.06.06a.12.12,0,0,1-.1-.05c0-.08-.05-.16-.08-.24a.8.8,0,0,0-.92-.54.52.52,0,0,0-.44.35A.45.45,0,0,0,18,11a2.64,2.64,0,0,0,.47.33c.19.11.4.19.6.3a1.1,1.1,0,0,1,.5,1.48,1.08,1.08,0,0,1-1.43.5,4.67,4.67,0,0,1-.49-.27c-.16.26-.16.26-.29.25V12.7s0-.11,0-.16c.16-.07.16.05.19.14a1.1,1.1,0,0,0,.77.8.77.77,0,0,0,.95-.49.57.57,0,0,0-.16-.58,2.68,2.68,0,0,0-.52-.36c-.2-.12-.43-.2-.63-.33a.93.93,0,0,1-.48-1.16A1,1,0,0,1,18.57,10,6.16,6.16,0,0,1,19.18,10.2Z"/><path d="M33.87,13.62H32.33l0,0c.05,0,.09-.1.14-.1.35-.06.39-.13.43-.48a2.15,2.15,0,0,0-.5-1.7,6.2,6.2,0,0,1-.44-.69.69.69,0,0,0-.5-.36s-.08-.07-.12-.11l0-.06h1.48l0,.06c-.05,0-.09.1-.14.1-.29,0-.32.1-.18.35.23.41.47.81.73,1.25.08-.13.16-.24.23-.36L34,10.6c.16-.25.11-.34-.2-.36s-.17,0-.17-.16h1.3c-.08.08-.12.15-.16.16a.74.74,0,0,0-.55.38c-.26.44-.53.87-.79,1.3a.51.51,0,0,0-.07.24c0,.3,0,.6,0,.91s.1.36.37.39C33.84,13.47,33.92,13.47,33.87,13.62Z"/><path d="M13.65,14.1l-.26,0,.3-1.85-.37.21c-.42.19-.83.39-1.25.57-.13.06-.17.12-.13.27A4.76,4.76,0,0,1,12,15.49c-.06.21-.15.41-.22.61a.75.75,0,0,0,1-.2,1.74,1.74,0,0,1,1.05-.63,1.19,1.19,0,0,1,1.36,1.14,5.8,5.8,0,0,1-.41,2.51,1.16,1.16,0,0,1-1.16.7,4.82,4.82,0,0,1-.83-.1c-.53-.09-1-.21-1.58-.28A8.92,8.92,0,0,1,9,18.68c-.15-.06-.29-.14-.43.05s-.19.37-.07.58a1.64,1.64,0,0,1,.17,1.46A1.3,1.3,0,0,1,7,21.64a3.85,3.85,0,0,1-2-1.32,1.38,1.38,0,0,1-.17-1.4,5.17,5.17,0,0,1,1.19-1.83.24.24,0,0,0,.05-.35,4.15,4.15,0,0,1-.46-1.89c0-.33,0-.66,0-1l-.22.06a8.38,8.38,0,0,1-2.37.57A1.84,1.84,0,0,1,2,14.17a.84.84,0,0,1-.39-1.09,1.74,1.74,0,0,1,.63-.88,12.12,12.12,0,0,1,3.28-1.82l.06,0A12.27,12.27,0,0,1,5.06,9.2,3,3,0,0,1,5.37,7,5.12,5.12,0,0,1,6.49,5.54a.46.46,0,0,0,.13-.27A1.45,1.45,0,0,1,7.7,4.17.71.71,0,0,1,8.41,5l.46.11A3.19,3.19,0,0,1,11,6.53a.35.35,0,0,0,.18.13,2.51,2.51,0,0,1,.93.75,1.21,1.21,0,0,1,.14,1.24,4.2,4.2,0,0,1-.3.6,1.25,1.25,0,0,1-.86.69l-.13.05v0a10.34,10.34,0,0,0,1.23-.26,4.58,4.58,0,0,1,1.74-.21c0-.17,0-.34,0-.5,0-.74-.08-1.48-.14-2.22a.4.4,0,0,0-.17-.29c-.44-.36-.91-.68-1.36-1a2.78,2.78,0,0,1-.9-1.21A1.08,1.08,0,0,1,11.84,3a1,1,0,0,1,1.33.21,2.76,2.76,0,0,1,.21.25.49.49,0,0,0,.06-.13,1,1,0,0,1,1.28-.76,1.14,1.14,0,0,1,.87,1.33,4.36,4.36,0,0,1-.86,1.77c-.21.28-.42.57-.62.86a.6.6,0,0,0-.06.27c0,.88.09,1.76.13,2.64,0,.14,0,.22.16.27a.66.66,0,0,1,.41.61,1.63,1.63,0,0,1-.61,1.54.64.64,0,0,0-.2.39C13.86,12.86,13.75,13.48,13.65,14.1ZM11,6.86S11,7,11,7c0,.58,0,1.15,0,1.73a1.32,1.32,0,0,0,.34.9A2.15,2.15,0,0,0,12,8.48a.27.27,0,0,0,0-.12l-.15-.78a.4.4,0,0,0-.11-.2c-.23-.18-.47-.34-.71-.51-.08,0-.19-.08-.22-.14A2.84,2.84,0,0,0,9,5.38c-.61-.18-.66-.13-.69.51a7.3,7.3,0,0,1-.14.86l-.26-.12A2.49,2.49,0,0,0,8,5.45a1.74,1.74,0,0,1,.13-.56c0-.07.07-.18,0-.2a1.28,1.28,0,0,0-.4-.25s-.16.18-.19.29A2.49,2.49,0,0,0,7.58,6c.07.31.15.61.23.91a.35.35,0,0,1-.47-.1c-.25-.33-.48-.68-.72-1A4.82,4.82,0,0,0,5.43,7.51,2.72,2.72,0,0,0,5.65,10c.18.3.17.28.51.23.49-.08,1-.12,1.5-.18a5.34,5.34,0,0,1-.09-2.86H7.8c0,.53-.11,1.06-.1,1.58a4.89,4.89,0,0,0,.21,1.13c0,.1.17.2.28.23.32.1.64.18,1,.26a.44.44,0,0,0,.16,0l1.62-.68a5,5,0,0,1-.23-2.84ZM6.23,13.5l0,0c.76,0,1.52,0,2.28,0a1.13,1.13,0,0,0,1.13-.83,4,4,0,0,0,.16-1.09,1,1,0,0,0-.49-.87,2.77,2.77,0,0,0-.55-.26,5,5,0,0,0-2.51-.06,10.26,10.26,0,0,0-4,2.05,1.86,1.86,0,0,0-.46.67.59.59,0,0,0,.31.83,1.62,1.62,0,0,0,1.09.23A7.54,7.54,0,0,0,6.4,13.08l.16-.1.15.2ZM14.75,16a.86.86,0,0,0-1.13-.37,2.5,2.5,0,0,0-.67.5,1,1,0,0,1-1.07.32L10.14,16a5.14,5.14,0,0,0-1.79-.15.84.84,0,0,0-.8.76,1.34,1.34,0,0,0,.81,1.53,9.94,9.94,0,0,0,2.39.76,15,15,0,0,1,2.28.42,1.48,1.48,0,0,0,1.09-.09c.06,0,.14-.1.14-.16.09-.85.16-1.71.24-2.56C14.52,16.31,14.53,16.09,14.75,16Zm-4.49-5-.09,0c-.05.08-.16.18-.15.24a2.82,2.82,0,0,1,0,1.12,1.59,1.59,0,0,1-1.26,1.44,2.32,2.32,0,0,1-.53,0l-2.11,0c-.13,0-.22,0-.21.18s0,.54,0,.8a4.06,4.06,0,0,0,.45,1.9,1.94,1.94,0,0,0,1,.89c0-.16-.08-.3-.11-.44a1.2,1.2,0,0,1,1-1.49,2.82,2.82,0,0,1,.82,0c.76.12,1.51.27,2.26.41.13,0,.21,0,.25-.11a5.43,5.43,0,0,0,.25-1,6.66,6.66,0,0,0-.75-3.27L11,11.42c0,.09,0,.15,0,.18s-.11.16-.16.24a1.81,1.81,0,0,1-.18-.21C10.48,11.42,10.38,11.2,10.26,11ZM6.37,17.14a4.83,4.83,0,0,0-1.29,2,1,1,0,0,0,.16,1A3.74,3.74,0,0,0,7.09,21.4a1,1,0,0,0,1.37-.73,1.36,1.36,0,0,0-.15-1.21.71.71,0,0,1,0-.83.43.43,0,0,0,.06-.09L7.66,18a.26.26,0,0,0-.09-.05A2.49,2.49,0,0,1,6.37,17.14Zm6.94-5c-.85-.51-1.33-1.14-1-2.13l-1.54.29,1,2.51Zm-6-7.48c-.6.37-.48,1.15.12,1.79A3.75,3.75,0,0,1,7.29,4.68ZM10,10.38l-.43.17c.32.37.32.37.57.16Zm.59.43c.2-.19.07-.33,0-.51l-.22.26Z"/><path d="M36.28,19.5l-.16-.43c-.1.47-.43.54-.8.56A3.56,3.56,0,0,1,34,19.4c-.83-.26-1.65-.55-2.49-.74a3.24,3.24,0,0,0-3,.62l-.1,0v-.25c0-.36,0-.72,0-1.08,0-.14,0-.2.18-.22.53-.08,1.06-.17,1.6-.28-.49,0-1,.06-1.45.13-2.25.33-4.49.69-6.73,1A20.4,20.4,0,0,1,18.3,19a13,13,0,0,1-1.5-.23,1.28,1.28,0,0,1-.22-.09.69.69,0,0,1-.51-.76c0-4.08,0-8.16,0-12.24V5.41h.24a1.1,1.1,0,0,0,.54.58,5.77,5.77,0,0,0,1.83.63,14.86,14.86,0,0,0,4.05.19,52.39,52.39,0,0,0,5.59-.87c1.28-.24,2.57-.48,3.86-.65a6.82,6.82,0,0,1,3.14.2c.27.09.53.25.8.37a.33.33,0,0,1,.18.34q0,3.84,0,7.67V19.5ZM16.37,6a.81.81,0,0,0,0,.15c0,4,0,8,0,11.94a.29.29,0,0,0,.17.29,3.22,3.22,0,0,0,1.29.35,11.76,11.76,0,0,0,3-.14c2-.29,3.92-.63,5.88-.93a27.55,27.55,0,0,1,4.62-.41,8.18,8.18,0,0,1,4.73,1.1v-.1c0-4,0-8,0-11.94A.38.38,0,0,0,35.92,6a4.05,4.05,0,0,0-2-.55,16.12,16.12,0,0,0-3.73.37c-1.74.31-3.46.66-5.2,1a18.52,18.52,0,0,1-5,.25A7.3,7.3,0,0,1,16.37,6ZM28.71,18.8c.29-.13.56-.26.83-.35a4.48,4.48,0,0,1,2.59.07c.77.22,1.54.5,2.31.74a1.88,1.88,0,0,0,1.1.08c.1,0,.24-.1.25-.17a.33.33,0,0,0-.14-.3,4.27,4.27,0,0,0-.84-.46,10.7,10.7,0,0,0-3.05-.63,11.52,11.52,0,0,0-2.93.21s-.12.07-.12.11C28.7,18.33,28.71,18.56,28.71,18.8Zm1.67-1.31.1,0H31a11.61,11.61,0,0,1,3.66.56,2.72,2.72,0,0,1,1.4.81.93.93,0,0,0-.43-.54,4.78,4.78,0,0,0-.86-.4A12,12,0,0,0,30.38,17.49Z"/><path d="M24.08,5.11c0,.42,0,.84,0,1.26,0,0-.1.11-.17.13a12.31,12.31,0,0,1-3.09.21A9.26,9.26,0,0,1,17.21,6a4.68,4.68,0,0,1-.54-.3.46.46,0,0,1-.22-.49.5.5,0,0,1,.38-.37,1.81,1.81,0,0,1,1.08,0c.64.19,1.27.44,1.91.62a13,13,0,0,0,1.75.37,3,3,0,0,0,2.36-.65L24,5.1Zm-.27.53c-.39.13-.75.3-1.14.39a4.79,4.79,0,0,1-2.46-.2c-.72-.21-1.43-.47-2.14-.7A1.88,1.88,0,0,0,17,5.06c-.1,0-.23.11-.25.19a.35.35,0,0,0,.16.26,4.27,4.27,0,0,0,.67.35,8.56,8.56,0,0,0,2.78.57,14.87,14.87,0,0,0,2.91-.07c.62-.09.61-.1.57-.73Z"/><path d="M7.33,23.19c-.23.07-.29,0-.34-.17-.11-.44-.27-.86-.41-1.3l.25-.09Z"/><path d="M26.75,21.72l.25-.09.49,1.53c-.25.11-.27.09-.33-.13C27,22.6,26.89,22.17,26.75,21.72Z"/><path d="M28.13,23.23l-.22,0a2.6,2.6,0,0,1,.39-1.38l.1.08s.05.06,0,.09Z"/><path d="M7.74,23.21a2.68,2.68,0,0,1,.4-1.39l.14.13L8,23.22Z"/><path d="M32.29,23.19c-.22.07-.3,0-.37-.14a8.06,8.06,0,0,0-.38-.86l.24-.13Z"/><path d="M34.73,22.19l.23-.13.51,1.13c-.2.06-.29.06-.36-.13A9.2,9.2,0,0,0,34.73,22.19Z"/><path d="M3.38,23.22H3.1l-.47-1,.23-.14Z"/><path d="M10.3,22.19l.23-.13.5,1.12c-.22.09-.29,0-.35-.13S10.43,22.48,10.3,22.19Z"/><path d="M15.32,23.22H15l-.46-1,.23-.13Z"/><path d="M22.79,22.19l.23-.13.51,1.12c-.23.09-.3,0-.36-.14S22.93,22.49,22.79,22.19Z"/><path d="M19.31,23.22h-.23l-.47-1,.22-.12A4.18,4.18,0,0,1,19.31,23.22Z"/><path d="M20.29,22.35l-.3.87h-.23a1.58,1.58,0,0,1,.42-1Z"/><path d="M33.12,22.2l.11.15-.31.87h-.08l-.1,0A1.21,1.21,0,0,1,33.12,22.2Z"/><path d="M35.88,23.21a1.6,1.6,0,0,1,.41-1l.12.16-.31.88Z"/><path d="M11.67,23.23l-.23,0a1.52,1.52,0,0,1,.43-1l.11.15Z"/><path d="M15.94,23.23l-.21,0a1.51,1.51,0,0,1,.4-1l.12.16Z"/><path d="M24.36,22.19l.12.16-.31.88-.22,0A1.54,1.54,0,0,1,24.36,22.19Z"/><path d="M4.2,22.19l.11.16L4,23.23l-.22,0A1.55,1.55,0,0,1,4.2,22.19Z"/><path d="M7.58,23.22H7.34v-1h.24Z"/><path d="M27.74,23.22H27.5v-1h.24Z"/><path d="M19.62,23.2c-.22.06-.31,0-.28-.19s0-.26,0-.38.08-.13.13-.12a.16.16,0,0,1,.13.12A5.42,5.42,0,0,1,19.62,23.2Z"/><path d="M3.61,23.22H3.37v-.71h.24Z"/><path d="M11,22.5h.24v.71H11Z"/><path d="M15.31,23.21v-.7h.24v.7Z"/><path d="M23.54,22.51h.24v.7h-.24Z"/><path d="M32.54,22.49v.72H32.3v-.7Z"/><path d="M35.48,22.51h.23v.7h-.23Z"/><path d="M9.8,6.93l.11-.26a.93.93,0,0,1,.26.15.54.54,0,0,1,.07.61c0,.05-.09.12-.14.12a.21.21,0,0,1-.16-.1C9.88,7.28,9.85,7.11,9.8,6.93Z"/><path d="M9.17,11.82a.54.54,0,0,1-.59.5A.55.55,0,0,1,8,11.8a.58.58,0,0,1,.6-.51A.56.56,0,0,1,9.17,11.82Z"/><path d="M8.75,17.68a.58.58,0,0,1-.59-.52.4.4,0,0,1,.44-.38.58.58,0,0,1,.6.53A.4.4,0,0,1,8.75,17.68Z"/><path d="M28,10.31c.67,0,1.33,0,2,0a.84.84,0,0,1,.69,1.28,1.06,1.06,0,0,1-.82.46c.61.19.81.69,1.11,1.12.15.21.29.44.59.48,0,0,.06.07.12.16h-.81c-.06,0-.12-.06-.16-.11L30.24,13,30,12.56a.77.77,0,0,0-.9-.4v1.1c0,.29.08.37.37.4.11,0,.18,0,.12.17h-2.3a.27.27,0,0,1-.18-.12c-.17-.23-.33-.47-.49-.72s-.18-.3-.28-.44c-.25-.38-.38-.43-.87-.38,0,.42,0,.85,0,1.27,0,.18.21.21.37.23a.6.6,0,0,1,.15.09l0,.08H24.4l0-.05s.08-.11.13-.12c.36-.05.41-.1.41-.45V10.88c0-.34-.07-.4-.4-.44a.6.6,0,0,1-.15-.09l0-.08h.27c.56,0,1.13,0,1.69.05a.85.85,0,0,1,.84.94.76.76,0,0,1-.43.64,2.65,2.65,0,0,1-.45.19c.51.14.71.59,1,1l.26.36a.69.69,0,0,0,.77.2.25.25,0,0,0,.22-.27c0-.87,0-1.75,0-2.62,0-.23-.17-.29-.36-.3S28,10.42,28,10.31ZM25.43,12c.38,0,.8.14,1.05-.27a.88.88,0,0,0,0-1c-.26-.38-.67-.27-1.05-.28Zm3.65,0c.39-.05.83.12,1.06-.32a.88.88,0,0,0,0-1c-.26-.36-.66-.25-1-.26Z"/><path d="M20.26,12.05a1.89,1.89,0,0,1,3.77,0,1.89,1.89,0,0,1-3.77,0Zm1.89-1.7a1.08,1.08,0,0,0-1.09.7,2.44,2.44,0,0,0,0,2.08,1.2,1.2,0,0,0,2.08,0,2.46,2.46,0,0,0,.05-2.07A1.08,1.08,0,0,0,22.15,10.35Z"/><path d="M19.38,10.4l.16-.19.07,0v.9s-.05.06-.06.06a.12.12,0,0,1-.1,0l-.08-.24a.81.81,0,0,0-.92-.54.49.49,0,0,0-.44.34.46.46,0,0,0,.14.52,2.17,2.17,0,0,0,.47.32c.19.12.4.2.6.31a1.1,1.1,0,0,1,.5,1.48,1.07,1.07,0,0,1-1.43.49,4,4,0,0,1-.5-.26c-.15.26-.15.26-.28.25V12.9a.86.86,0,0,1,0-.16c.16-.07.16,0,.19.14a1.1,1.1,0,0,0,.77.8.77.77,0,0,0,.95-.49.59.59,0,0,0-.16-.58,3,3,0,0,0-.52-.36c-.2-.12-.43-.21-.64-.33a.92.92,0,0,1-.47-1.16,1,1,0,0,1,1.12-.56A5.55,5.55,0,0,1,19.38,10.4Z"/><path d="M34.07,13.82H32.53l0-.05s.09-.1.14-.11c.35-.05.39-.12.42-.47a2.14,2.14,0,0,0-.49-1.7,6.2,6.2,0,0,1-.44-.69.69.69,0,0,0-.5-.36s-.08-.07-.12-.11l0-.06H33l0,.06s-.08.09-.13.1c-.29,0-.32.1-.18.35.23.41.47.81.73,1.25l.23-.36.52-.87c.15-.25.11-.34-.2-.36s-.18,0-.18-.16h1.31c-.08.08-.12.15-.16.16a.71.71,0,0,0-.55.38c-.26.44-.53.87-.79,1.3a.51.51,0,0,0-.07.24c0,.3,0,.6,0,.91s.1.36.37.39C34,13.67,34.12,13.67,34.07,13.82Z"/></g><g class="cls-3"><path d="M13.31,13.76l-.26,0,.3-1.86-.37.22c-.42.19-.83.39-1.25.57-.13.06-.17.12-.13.27a4.76,4.76,0,0,1,.06,2.22c-.06.21-.15.41-.22.61a.75.75,0,0,0,1-.2,1.74,1.74,0,0,1,1.05-.63,1.19,1.19,0,0,1,1.36,1.14,5.8,5.8,0,0,1-.41,2.51,1.16,1.16,0,0,1-1.16.7,4.82,4.82,0,0,1-.83-.1c-.53-.09-1-.21-1.58-.28a8.92,8.92,0,0,1-2.16-.56c-.15-.06-.29-.14-.43.05a.46.46,0,0,0-.07.58,1.67,1.67,0,0,1,.17,1.46,1.3,1.3,0,0,1-1.66.87A3.85,3.85,0,0,1,4.7,20a1.36,1.36,0,0,1-.17-1.4,5.17,5.17,0,0,1,1.19-1.83.24.24,0,0,0,0-.35,4.15,4.15,0,0,1-.46-1.89c0-.33,0-.66,0-1a1.8,1.8,0,0,0-.22.06,8.38,8.38,0,0,1-2.37.57,1.84,1.84,0,0,1-1.11-.29.84.84,0,0,1-.39-1.09,1.74,1.74,0,0,1,.63-.88A12,12,0,0,1,5.13,10l0,0c-.15-.4-.35-.77-.46-1.16A3,3,0,0,1,5,6.65,5.12,5.12,0,0,1,6.15,5.2a.46.46,0,0,0,.13-.27,1.45,1.45,0,0,1,1.08-1.1.71.71,0,0,1,.71.82l.46.11a3.19,3.19,0,0,1,2.11,1.43.35.35,0,0,0,.18.13,2.51,2.51,0,0,1,.93.75,1.21,1.21,0,0,1,.14,1.24,4.2,4.2,0,0,1-.3.6,1.25,1.25,0,0,1-.86.69l-.13.05v0a10.34,10.34,0,0,0,1.23-.26,4.58,4.58,0,0,1,1.74-.21c0-.17,0-.34,0-.5,0-.74-.08-1.48-.14-2.22a.4.4,0,0,0-.17-.29c-.44-.36-.91-.68-1.36-1A2.78,2.78,0,0,1,11,4a1.08,1.08,0,0,1,.49-1.32,1,1,0,0,1,1.33.21,2.76,2.76,0,0,1,.21.25A.49.49,0,0,0,13.1,3a1,1,0,0,1,1.28-.76,1.14,1.14,0,0,1,.87,1.33,4.36,4.36,0,0,1-.86,1.77c-.21.28-.42.57-.62.86a.6.6,0,0,0-.06.27c0,.88.09,1.76.13,2.64,0,.14,0,.22.16.27a.66.66,0,0,1,.41.61,1.63,1.63,0,0,1-.61,1.54.64.64,0,0,0-.2.39C13.52,12.52,13.41,13.14,13.31,13.76ZM10.67,6.52c0,.05-.06.09-.06.13,0,.58,0,1.15,0,1.73a1.32,1.32,0,0,0,.34.9,2.15,2.15,0,0,0,.75-1.14.25.25,0,0,0,0-.12l-.15-.78a.4.4,0,0,0-.11-.2c-.23-.18-.47-.34-.71-.51-.08,0-.19-.08-.22-.14A2.84,2.84,0,0,0,8.61,5c-.61-.18-.66-.13-.69.5a7.13,7.13,0,0,1-.14.87l-.27-.12a2.37,2.37,0,0,0,.13-1.18,1.74,1.74,0,0,1,.13-.56c0-.07.07-.18,0-.2a1.28,1.28,0,0,0-.4-.25s-.16.18-.19.29a2.49,2.49,0,0,0,0,1.27c.07.31.15.61.23.91A.36.36,0,0,1,7,6.47c-.25-.33-.48-.68-.72-1A4.82,4.82,0,0,0,5.09,7.17a2.72,2.72,0,0,0,.22,2.45c.18.3.17.28.51.23s1-.12,1.5-.18a5.34,5.34,0,0,1-.09-2.86h.23c0,.53-.11,1.06-.1,1.58a4.89,4.89,0,0,0,.21,1.13c0,.1.17.2.28.23.32.1.64.18,1,.26A.44.44,0,0,0,9,10l1.62-.68a5,5,0,0,1-.23-2.84ZM5.89,13.16l0,0c.76,0,1.52,0,2.28,0a1.13,1.13,0,0,0,1.13-.83,4,4,0,0,0,.16-1.09A1,1,0,0,0,9,10.4a2.77,2.77,0,0,0-.55-.26,5,5,0,0,0-2.51-.06,10.26,10.26,0,0,0-4,2.05,1.78,1.78,0,0,0-.46.67.59.59,0,0,0,.31.83,1.62,1.62,0,0,0,1.09.23,7.54,7.54,0,0,0,3.18-1.12l.16-.1.15.2Zm8.52,2.46a.86.86,0,0,0-1.13-.37,2.5,2.5,0,0,0-.67.5,1,1,0,0,1-1.07.32l-1.74-.4A5.14,5.14,0,0,0,8,15.52a.83.83,0,0,0-.8.76A1.34,1.34,0,0,0,8,17.81a9.94,9.94,0,0,0,2.39.76,15,15,0,0,1,2.28.42,1.53,1.53,0,0,0,1.09-.09c.06,0,.14-.1.14-.16.09-.85.16-1.71.24-2.56C14.18,16,14.19,15.75,14.41,15.62Zm-4.49-5-.09,0c-.05.08-.16.18-.15.24a2.82,2.82,0,0,1,0,1.12,1.59,1.59,0,0,1-1.26,1.44,2.32,2.32,0,0,1-.53,0l-2.11,0c-.13,0-.22,0-.21.18s0,.54,0,.8A4.06,4.06,0,0,0,6,16.32a1.94,1.94,0,0,0,1,.89c0-.16-.08-.3-.11-.44a1.2,1.2,0,0,1,1-1.49,2.82,2.82,0,0,1,.82,0c.76.12,1.51.27,2.26.41.13,0,.21,0,.25-.11a5.43,5.43,0,0,0,.25-1,6.72,6.72,0,0,0-.75-3.28l-.11-.16a.68.68,0,0,1,0,.18c0,.09-.11.16-.16.24a1.81,1.81,0,0,1-.18-.21C10.14,11.08,10,10.86,9.92,10.64ZM6,16.8a4.83,4.83,0,0,0-1.29,2,1,1,0,0,0,.16,1,3.74,3.74,0,0,0,1.85,1.24,1.06,1.06,0,0,0,1.37-.73A1.36,1.36,0,0,0,8,19.12a.71.71,0,0,1,0-.83.43.43,0,0,0,.06-.09l-.76-.59a.26.26,0,0,0-.09-.05A2.49,2.49,0,0,1,6,16.8Zm6.94-5c-.85-.51-1.33-1.14-1-2.13L10.48,10l1,2.51ZM7,4.34c-.6.37-.48,1.15.12,1.79A3.75,3.75,0,0,1,7,4.34ZM9.64,10l-.43.17c.32.37.32.37.57.16Zm.59.43c.2-.19.07-.33,0-.51l-.22.26Z"/><path d="M35.94,19.16l-.16-.43c-.1.47-.43.54-.8.56a3.56,3.56,0,0,1-1.3-.23c-.83-.26-1.65-.55-2.49-.74a3.24,3.24,0,0,0-3,.62l-.1,0v-.25c0-.36,0-.72,0-1.08,0-.14,0-.2.18-.22.53-.08,1.06-.17,1.6-.28-.49,0-1,.06-1.45.13-2.25.33-4.49.69-6.73,1a20.4,20.4,0,0,1-3.74.33,13,13,0,0,1-1.5-.23,1.28,1.28,0,0,1-.22-.09.69.69,0,0,1-.51-.76c0-4.08,0-8.16,0-12.24V5.07H16a1.1,1.1,0,0,0,.54.58,5.77,5.77,0,0,0,1.83.63,14.86,14.86,0,0,0,4.05.19A52.39,52.39,0,0,0,28,5.6c1.28-.24,2.57-.48,3.86-.65a6.82,6.82,0,0,1,3.14.2c.27.09.53.25.8.37a.33.33,0,0,1,.18.34q0,3.84,0,7.67v5.63ZM16,5.62a1,1,0,0,0,0,.16c0,4,0,8,0,11.94a.29.29,0,0,0,.17.29,3.22,3.22,0,0,0,1.29.35,11.76,11.76,0,0,0,3-.14c2-.29,3.92-.63,5.88-.93A27.55,27.55,0,0,1,31,16.88,8.18,8.18,0,0,1,35.72,18v-.1c0-4,0-8,0-11.94a.35.35,0,0,0-.14-.25,4.05,4.05,0,0,0-2-.55,16.26,16.26,0,0,0-3.74.37c-1.73.31-3.45.66-5.19,1a18.52,18.52,0,0,1-5,.25A7.21,7.21,0,0,1,16,5.62ZM28.37,18.45c.29-.12.55-.25.83-.34a4.48,4.48,0,0,1,2.59.07c.77.22,1.54.5,2.31.74a1.88,1.88,0,0,0,1.1.08c.1,0,.24-.1.25-.17a.33.33,0,0,0-.14-.3,4.57,4.57,0,0,0-.84-.46,10.7,10.7,0,0,0-3-.63,11.52,11.52,0,0,0-2.93.21s-.12.07-.12.11C28.36,18,28.37,18.22,28.37,18.45ZM30,17.15l.1,0h.5a11.61,11.61,0,0,1,3.66.56,2.72,2.72,0,0,1,1.4.81.93.93,0,0,0-.43-.54,4.78,4.78,0,0,0-.86-.4A12,12,0,0,0,30,17.15Z"/><path d="M23.74,4.77c0,.42,0,.84,0,1.26,0,0-.11.11-.17.13a12.34,12.34,0,0,1-3.09.21,9.26,9.26,0,0,1-3.6-.72,4.68,4.68,0,0,1-.54-.3.46.46,0,0,1-.22-.49.5.5,0,0,1,.38-.37,1.81,1.81,0,0,1,1.08,0c.64.19,1.26.44,1.91.62a13,13,0,0,0,1.75.37,3,3,0,0,0,2.36-.65l.1-.07Zm-.27.53c-.39.13-.75.3-1.14.39a4.79,4.79,0,0,1-2.46-.2c-.72-.21-1.43-.47-2.14-.7a1.88,1.88,0,0,0-1.1-.07c-.1,0-.23.11-.25.19a.35.35,0,0,0,.16.26,4.27,4.27,0,0,0,.67.35A8.56,8.56,0,0,0,20,6.09,14.87,14.87,0,0,0,22.9,6c.61-.09.61-.1.57-.73Z"/><path d="M7,22.85c-.23.07-.3,0-.34-.17-.11-.44-.27-.86-.41-1.3l.25-.09Z"/><path d="M26.41,21.38l.25-.09.49,1.53c-.25.11-.27.09-.33-.13C26.69,22.26,26.55,21.83,26.41,21.38Z"/><path d="M27.79,22.89l-.22,0A2.6,2.6,0,0,1,28,21.49l.1.08s.05.06,0,.09Z"/><path d="M7.4,22.87a2.68,2.68,0,0,1,.4-1.39l.14.13-.32,1.27Z"/><path d="M32,22.85c-.22.07-.3,0-.37-.14a8.06,8.06,0,0,0-.38-.86l.24-.13Z"/><path d="M34.39,21.85l.23-.13.51,1.13c-.2.06-.29.06-.36-.13A9.2,9.2,0,0,0,34.39,21.85Z"/><path d="M3,22.88H2.76l-.47-1,.23-.14Z"/><path d="M10,21.85l.23-.13.5,1.12c-.22.09-.29,0-.35-.13S10.09,22.14,10,21.85Z"/><path d="M15,22.88h-.29l-.46-1,.23-.13Z"/><path d="M22.45,21.85l.23-.13.51,1.12c-.23.09-.3,0-.36-.14S22.59,22.15,22.45,21.85Z"/><path d="M19,22.88h-.23l-.47-1,.22-.12A4.18,4.18,0,0,1,19,22.88Z"/><path d="M20,22l-.3.87h-.23a1.58,1.58,0,0,1,.42-1Z"/><path d="M32.78,21.86l.11.15-.31.87H32.5l-.1,0A1.21,1.21,0,0,1,32.78,21.86Z"/><path d="M35.54,22.87a1.6,1.6,0,0,1,.41-1l.12.16-.31.88Z"/><path d="M11.33,22.89l-.23,0a1.52,1.52,0,0,1,.43-1l.11.15Z"/><path d="M15.6,22.89l-.21,0a1.51,1.51,0,0,1,.4-1l.12.16Z"/><path d="M24,21.85l.12.16-.31.88-.22,0A1.52,1.52,0,0,1,24,21.85Z"/><path d="M3.86,21.85,4,22l-.31.88-.22,0A1.55,1.55,0,0,1,3.86,21.85Z"/><path d="M7.24,22.88H7v-1h.24Z"/><path d="M27.4,22.88h-.24v-1h.24Z"/><path d="M19.28,22.86c-.22.06-.31,0-.28-.19s0-.26,0-.38.08-.13.13-.13.13.08.13.13S19.28,22.67,19.28,22.86Z"/><path d="M3.27,22.88H3v-.71h.24Z"/><path d="M10.7,22.16h.24v.71H10.7Z"/><path d="M15,22.87v-.7h.24v.7Z"/><path d="M23.2,22.17h.24v.7H23.2Z"/><path d="M32.2,22.15v.72H32v-.7Z"/><path d="M35.14,22.17h.23v.7h-.23Z"/><path d="M9.46,6.59l.11-.26c.09,0,.2.07.26.15a.54.54,0,0,1,.07.61s-.09.12-.14.12a.21.21,0,0,1-.16-.1C9.54,6.94,9.51,6.77,9.46,6.59Z"/><path d="M8.83,11.48a.54.54,0,0,1-.59.5.55.55,0,0,1-.6-.52.58.58,0,0,1,.6-.51A.56.56,0,0,1,8.83,11.48Z"/><path d="M8.41,17.34a.58.58,0,0,1-.59-.52.4.4,0,0,1,.44-.38.58.58,0,0,1,.6.53A.4.4,0,0,1,8.41,17.34Z"/><path d="M27.68,10c.67,0,1.33,0,2,0a.84.84,0,0,1,.69,1.28,1.06,1.06,0,0,1-.82.46c.61.19.81.69,1.11,1.12.15.21.29.44.59.48,0,0,.06.07.12.16h-.81c-.06,0-.12-.06-.16-.11l-.49-.72-.27-.43a.77.77,0,0,0-.9-.4v.65c0,.15,0,.3,0,.45s.08.37.37.4c.11,0,.18,0,.12.17h-2.3a.27.27,0,0,1-.18-.12c-.17-.23-.33-.48-.49-.72s-.18-.3-.28-.44c-.25-.38-.38-.43-.87-.38,0,.42,0,.85,0,1.27,0,.18.21.21.37.23a.6.6,0,0,1,.15.09l0,.08H24.06l0-.05s.08-.11.13-.12c.36-.05.4-.1.41-.45V10.54c0-.34-.07-.4-.4-.44A.6.6,0,0,1,24,10l0-.08h.27c.56,0,1.13,0,1.69.05a.85.85,0,0,1,.84.94.76.76,0,0,1-.43.64,2.65,2.65,0,0,1-.45.19c.51.14.71.59,1,1l.26.36a.69.69,0,0,0,.77.2.25.25,0,0,0,.22-.27c0-.87,0-1.75,0-2.62,0-.23-.17-.29-.36-.3S27.63,10.08,27.68,10Zm-2.59,1.66c.38,0,.8.14,1.05-.27a.88.88,0,0,0,0-1c-.26-.38-.67-.27-1.05-.28Zm3.65,0c.39-.05.83.12,1.06-.32a.88.88,0,0,0,0-1c-.26-.36-.66-.25-1-.26Z"/><path d="M19.92,11.71a1.89,1.89,0,0,1,3.77,0,1.89,1.89,0,0,1-3.77,0ZM21.81,10a1.08,1.08,0,0,0-1.09.7,2.44,2.44,0,0,0,0,2.08,1.2,1.2,0,0,0,2.08,0,2.46,2.46,0,0,0,.05-2.07A1.08,1.08,0,0,0,21.81,10Z"/><path d="M19,10.06l.16-.19.07,0v.9s-.05.06-.06.06a.12.12,0,0,1-.1,0c0-.08-.05-.16-.08-.24a.81.81,0,0,0-.92-.54.49.49,0,0,0-.44.34.46.46,0,0,0,.14.52,2.17,2.17,0,0,0,.47.32c.19.12.4.2.6.31a1.1,1.1,0,0,1,.5,1.48,1.07,1.07,0,0,1-1.43.49,4,4,0,0,1-.5-.26c-.15.26-.15.26-.28.25v-.91a.86.86,0,0,1,0-.16c.16-.07.16,0,.19.14a1.1,1.1,0,0,0,.77.8.77.77,0,0,0,.95-.49.59.59,0,0,0-.16-.58,3,3,0,0,0-.52-.36c-.2-.12-.43-.21-.64-.33a.92.92,0,0,1-.47-1.16,1,1,0,0,1,1.12-.56A5.55,5.55,0,0,1,19,10.06Z"/><path d="M33.73,13.48H32.19l0-.05c.05,0,.09-.1.14-.11.35-.05.39-.12.42-.47a2.14,2.14,0,0,0-.49-1.7,6.2,6.2,0,0,1-.44-.69.69.69,0,0,0-.5-.36S31.2,10,31.16,10l0-.06h1.47l0,.06s-.08.09-.13.1c-.29,0-.32.1-.18.35.23.41.47.81.73,1.25l.23-.36.52-.87c.15-.25.11-.34-.2-.36s-.18,0-.18-.16H34.8c-.08.08-.12.15-.16.16a.71.71,0,0,0-.55.38c-.26.44-.53.87-.79,1.3a.51.51,0,0,0-.07.24c0,.3,0,.6,0,.91s.1.36.37.39C33.69,13.32,33.78,13.33,33.73,13.48Z"/></g><path class="cls-4" d="M13.51,14l-.26,0,.3-1.86-.37.22c-.42.19-.83.39-1.25.57-.14.06-.17.12-.14.27a4.51,4.51,0,0,1,.06,2.22,6.26,6.26,0,0,1-.21.61.75.75,0,0,0,1-.2,1.7,1.7,0,0,1,1-.63A1.19,1.19,0,0,1,15,16.27a5.82,5.82,0,0,1-.41,2.51,1.19,1.19,0,0,1-1.16.7,4.59,4.59,0,0,1-.83-.1c-.53-.09-1.05-.21-1.58-.28a9.4,9.4,0,0,1-2.16-.56c-.15-.06-.29-.14-.43.05a.46.46,0,0,0-.07.58,1.65,1.65,0,0,1,.17,1.45,1.3,1.3,0,0,1-1.67.88,3.86,3.86,0,0,1-2-1.32,1.36,1.36,0,0,1-.17-1.4A5.08,5.08,0,0,1,5.92,17a.25.25,0,0,0,0-.36,4.12,4.12,0,0,1-.46-1.89c0-.33,0-.66,0-1a.9.9,0,0,0-.22.06,8.38,8.38,0,0,1-2.37.57A1.89,1.89,0,0,1,1.81,14a.84.84,0,0,1-.39-1.09,1.74,1.74,0,0,1,.63-.88,12,12,0,0,1,3.28-1.82l0,0a11,11,0,0,1-.46-1.15,3,3,0,0,1,.31-2.21A5.31,5.31,0,0,1,6.35,5.39a.43.43,0,0,0,.13-.26A1.45,1.45,0,0,1,7.56,4a.7.7,0,0,1,.7.82l.47.1a3.2,3.2,0,0,1,2.1,1.44.59.59,0,0,0,.18.13,2.63,2.63,0,0,1,.94.75,1.23,1.23,0,0,1,.14,1.24,5.59,5.59,0,0,1-.3.6,1.25,1.25,0,0,1-.87.69l-.13,0,0,.05A10.34,10.34,0,0,0,12,9.64a4.39,4.39,0,0,1,1.74-.21c0-.17,0-.34,0-.51,0-.74-.08-1.47-.14-2.21a.44.44,0,0,0-.17-.29c-.44-.36-.91-.68-1.36-1a2.7,2.7,0,0,1-.9-1.21,1.08,1.08,0,0,1,.49-1.33A1,1,0,0,1,13,3.05l.21.26a.84.84,0,0,0,.06-.14,1,1,0,0,1,1.28-.75,1.11,1.11,0,0,1,.86,1.32,4.2,4.2,0,0,1-.85,1.78c-.21.28-.42.56-.62.86a.49.49,0,0,0-.06.27c0,.88.09,1.76.12,2.64,0,.13,0,.21.16.27a.65.65,0,0,1,.42.6A1.62,1.62,0,0,1,14,11.7a.57.57,0,0,0-.2.4C13.71,12.72,13.61,13.34,13.51,14ZM10.87,6.72s-.06.09-.06.13c0,.57-.06,1.15,0,1.73a1.34,1.34,0,0,0,.34.9,2.19,2.19,0,0,0,.75-1.14s0-.08,0-.13c-.05-.25-.1-.52-.16-.77a.35.35,0,0,0-.1-.2c-.23-.18-.47-.34-.71-.52-.08,0-.19-.07-.23-.13A2.76,2.76,0,0,0,8.8,5.24c-.6-.18-.65-.13-.68.5A7.45,7.45,0,0,1,8,6.61l-.27-.12a2.49,2.49,0,0,0,.13-1.18A1.68,1.68,0,0,1,8,4.75c0-.07.07-.18,0-.2a1.28,1.28,0,0,0-.4-.25s-.16.18-.19.29a2.49,2.49,0,0,0,0,1.27c.07.31.15.61.23.91a.36.36,0,0,1-.47-.1c-.25-.34-.48-.68-.73-1A4.71,4.71,0,0,0,5.29,7.37a2.72,2.72,0,0,0,.22,2.45c.17.3.17.28.5.23.5-.08,1-.13,1.51-.19A5.3,5.3,0,0,1,7.43,7h.23c0,.53-.11,1.05-.1,1.58a4.42,4.42,0,0,0,.21,1.13c0,.1.17.19.28.23.32.1.64.17,1,.26a.29.29,0,0,0,.16,0l1.62-.67a5,5,0,0,1-.23-2.84ZM6.09,13.35l0,.05c.76,0,1.52,0,2.28,0a1.13,1.13,0,0,0,1.13-.83,4.06,4.06,0,0,0,.16-1.1,1,1,0,0,0-.49-.86,2.77,2.77,0,0,0-.55-.26,5,5,0,0,0-2.51-.06,10.19,10.19,0,0,0-4,2.05,1.78,1.78,0,0,0-.46.67.59.59,0,0,0,.31.83,1.61,1.61,0,0,0,1.09.23,7.54,7.54,0,0,0,3.18-1.12l.16-.1.15.19Zm8.52,2.46a.87.87,0,0,0-1.13-.36,2.35,2.35,0,0,0-.67.5,1,1,0,0,1-1.07.32c-.58-.14-1.16-.28-1.75-.4a5.06,5.06,0,0,0-1.78-.15.83.83,0,0,0-.8.75A1.35,1.35,0,0,0,8.22,18a9.94,9.94,0,0,0,2.39.76,15,15,0,0,1,2.28.42,1.48,1.48,0,0,0,1.09-.1c.06,0,.14-.09.14-.15.09-.85.16-1.71.24-2.56C14.38,16.17,14.38,16,14.61,15.81Zm-4.49-5-.09,0c0,.08-.16.18-.15.24a2.81,2.81,0,0,1,0,1.12,1.6,1.6,0,0,1-1.26,1.44,3.08,3.08,0,0,1-.53,0L6,13.64c-.13,0-.22,0-.22.18s0,.53,0,.8a4,4,0,0,0,.45,1.89,1.92,1.92,0,0,0,1,.9c0-.16-.08-.3-.11-.44a1.2,1.2,0,0,1,1-1.49,2.51,2.51,0,0,1,.82,0c.75.11,1.51.27,2.26.41.13,0,.21,0,.24-.11a4.8,4.8,0,0,0,.26-1,6.71,6.71,0,0,0-.76-3.28l-.1-.16a.68.68,0,0,1,0,.18l-.17.24c-.05-.07-.12-.13-.17-.21S10.23,11.06,10.12,10.84ZM6.23,17a4.83,4.83,0,0,0-1.29,2,1,1,0,0,0,.15,1A3.64,3.64,0,0,0,7,21.25a1,1,0,0,0,1.37-.72,1.36,1.36,0,0,0-.15-1.21.71.71,0,0,1,.05-.83.64.64,0,0,0,.06-.1l-.76-.58s-.06,0-.09,0A2.45,2.45,0,0,1,6.23,17Zm6.94-5c-.86-.51-1.33-1.14-.95-2.14l-1.54.3,1,2.51Zm-6-7.48c-.6.37-.48,1.15.12,1.79A3.75,3.75,0,0,1,7.15,4.54Zm2.69,5.7-.43.17c.32.37.32.37.57.16Zm.59.43c.2-.19.06-.33,0-.51l-.22.26Z"/><path class="cls-4" d="M36.14,19.36,36,18.92c-.1.47-.43.55-.8.57a3.65,3.65,0,0,1-1.31-.23c-.82-.26-1.64-.55-2.48-.75a3.3,3.3,0,0,0-3,.62l-.1.05v-.25c0-.36,0-.72,0-1.08,0-.14,0-.21.18-.23.53-.07,1.06-.16,1.6-.27-.49,0-1,0-1.45.13-2.25.33-4.49.69-6.73,1a19.64,19.64,0,0,1-3.74.34,12.63,12.63,0,0,1-1.5-.23,1.45,1.45,0,0,1-.22-.09.71.71,0,0,1-.51-.77q0-6.12,0-12.24V5.27h.25a1,1,0,0,0,.54.58,5.77,5.77,0,0,0,1.83.63,14.86,14.86,0,0,0,4.05.19,52.79,52.79,0,0,0,5.59-.87c1.28-.24,2.56-.48,3.85-.65a6.86,6.86,0,0,1,3.15.19c.27.1.53.26.8.38a.33.33,0,0,1,.18.34c0,2.56,0,5.11,0,7.67v5.62ZM16.23,5.82a.92.92,0,0,0,0,.16q0,6,0,11.94a.27.27,0,0,0,.17.28,3.24,3.24,0,0,0,1.29.36,12.73,12.73,0,0,0,3-.14c2-.29,3.92-.63,5.88-.93a27.43,27.43,0,0,1,4.61-.41,8,8,0,0,1,4.74,1.1v-12a.35.35,0,0,0-.14-.25,4,4,0,0,0-2-.55A16.82,16.82,0,0,0,30,5.7c-1.73.32-3.46.66-5.19,1a18.93,18.93,0,0,1-5,.25A7.21,7.21,0,0,1,16.23,5.82ZM28.56,18.65c.3-.12.56-.25.84-.34a4.48,4.48,0,0,1,2.59.07c.77.22,1.53.5,2.3.74a1.91,1.91,0,0,0,1.11.08c.1,0,.24-.1.25-.18a.34.34,0,0,0-.14-.29,4.09,4.09,0,0,0-.84-.47,11,11,0,0,0-3.05-.62,11.51,11.51,0,0,0-2.93.2c-.05,0-.12.08-.12.12C28.56,18.19,28.56,18.42,28.56,18.65Zm1.68-1.31.09,0h.51a11.66,11.66,0,0,1,3.66.56,2.72,2.72,0,0,1,1.4.81.9.9,0,0,0-.43-.54,4.78,4.78,0,0,0-.86-.4A12.25,12.25,0,0,0,30.24,17.34Z"/><path class="cls-4" d="M23.93,5c0,.41,0,.83,0,1.25a.26.26,0,0,1-.17.13,12.4,12.4,0,0,1-3.1.22,9.33,9.33,0,0,1-3.6-.72,5.54,5.54,0,0,1-.53-.3.46.46,0,0,1-.22-.49.48.48,0,0,1,.38-.37,1.81,1.81,0,0,1,1.08,0c.64.19,1.26.44,1.91.62a13,13,0,0,0,1.75.37A3.06,3.06,0,0,0,23.79,5l.1-.07Zm-.26.52a9,9,0,0,1-1.14.39,4.78,4.78,0,0,1-2.46-.19c-.72-.21-1.43-.47-2.14-.7a1.91,1.91,0,0,0-1.11-.07c-.09,0-.22.11-.24.19s.08.21.16.26a4.27,4.27,0,0,0,.67.35,8.56,8.56,0,0,0,2.78.57,14.15,14.15,0,0,0,2.91-.08c.61-.08.61-.09.57-.72Z"/><path class="cls-4" d="M7.19,23c-.23.08-.3,0-.35-.16-.1-.44-.26-.86-.4-1.3l.25-.09Z"/><path class="cls-4" d="M26.61,21.58l.24-.09.5,1.53c-.26.11-.27.09-.33-.13C26.89,22.46,26.75,22,26.61,21.58Z"/><path class="cls-4" d="M28,23.09l-.22,0a2.68,2.68,0,0,1,.38-1.38l.11.08s0,.06,0,.09Z"/><path class="cls-4" d="M7.6,23.07A2.68,2.68,0,0,1,8,21.68l.14.13-.32,1.27Z"/><path class="cls-4" d="M32.15,23c-.22.08-.3,0-.37-.14s-.25-.56-.38-.85l.23-.13Z"/><path class="cls-4" d="M34.59,22.05l.23-.13.51,1.13c-.2.06-.29.05-.36-.14S34.72,22.35,34.59,22.05Z"/><path class="cls-4" d="M3.24,23.08H3l-.47-1,.23-.14Z"/><path class="cls-4" d="M10.15,22.05l.24-.13.5,1.12c-.22.09-.29,0-.35-.14S10.29,22.34,10.15,22.05Z"/><path class="cls-4" d="M15.18,23.07h-.29l-.47-1,.24-.13Z"/><path class="cls-4" d="M22.65,22.05l.23-.13.5,1.12c-.22.09-.29,0-.35-.14S22.79,22.35,22.65,22.05Z"/><path class="cls-4" d="M19.17,23.08h-.23l-.47-1,.22-.12A4.18,4.18,0,0,1,19.17,23.08Z"/><path class="cls-4" d="M20.15,22.21l-.3.87h-.23a1.58,1.58,0,0,1,.42-1Z"/><path class="cls-4" d="M33,22.06l.1.15-.3.87a.19.19,0,0,1-.08,0h-.1A1.21,1.21,0,0,1,33,22.06Z"/><path class="cls-4" d="M35.74,23.07a1.6,1.6,0,0,1,.41-1l.12.16-.31.87Z"/><path class="cls-4" d="M11.53,23.09l-.23,0a1.52,1.52,0,0,1,.43-1l.11.15Z"/><path class="cls-4" d="M15.8,23.09l-.22,0a1.52,1.52,0,0,1,.41-1l.12.16Z"/><path class="cls-4" d="M24.22,22.05l.11.16-.31.88-.22,0A1.58,1.58,0,0,1,24.22,22.05Z"/><path class="cls-4" d="M4.06,22.05l.11.16-.31.88-.22,0A1.55,1.55,0,0,1,4.06,22.05Z"/><path class="cls-4" d="M7.44,23.08H7.2v-1h.24Z"/><path class="cls-4" d="M27.6,23.07h-.24v-1h.24Z"/><path class="cls-4" d="M19.47,23.06c-.21.06-.3,0-.27-.19s0-.26,0-.38a.17.17,0,0,1,.13-.13s.12.08.13.13S19.47,22.87,19.47,23.06Z"/><path class="cls-4" d="M3.47,23.07H3.23v-.7h.24Z"/><path class="cls-4" d="M10.9,22.36h.24v.71H10.9Z"/><path class="cls-4" d="M15.17,23.07v-.7h.24v.7Z"/><path class="cls-4" d="M23.39,22.36h.24v.71h-.24Z"/><path class="cls-4" d="M32.39,22.35v.72h-.23v-.7Z"/><path class="cls-4" d="M35.34,22.36h.23v.71h-.23Z"/><path class="cls-4" d="M9.66,6.79l.11-.26c.08,0,.2.07.26.14a.55.55,0,0,1,.07.61c0,.06-.09.13-.14.13A.2.2,0,0,1,9.8,7.3C9.74,7.14,9.71,7,9.66,6.79Z"/><path class="cls-4" d="M9,11.68a.55.55,0,0,1-.59.5.52.52,0,1,1,.59-.5Z"/><path class="cls-4" d="M8.61,17.54A.58.58,0,0,1,8,17a.4.4,0,0,1,.44-.38.57.57,0,0,1,.6.53A.41.41,0,0,1,8.61,17.54Z"/><path class="cls-4" d="M27.87,10.17c.68,0,1.34,0,2,0a.84.84,0,0,1,.68,1.29,1.08,1.08,0,0,1-.81.46c.61.18.81.69,1.11,1.12.15.21.29.44.59.47,0,0,.06.08.12.16h-.81a.21.21,0,0,1-.16-.12c-.17-.23-.33-.47-.49-.71s-.19-.29-.27-.43a.77.77,0,0,0-.9-.4v.65c0,.15,0,.3,0,.45s.08.37.37.39c.11,0,.18,0,.12.18h-2.3a.27.27,0,0,1-.18-.12l-.49-.72c-.09-.14-.18-.3-.28-.44-.26-.38-.39-.44-.88-.39,0,.43,0,.86,0,1.28,0,.18.2.21.36.23a.51.51,0,0,1,.16.09l0,.08H24.26l-.05,0s.08-.11.13-.12c.36-.06.4-.1.4-.45,0-.78,0-1.56,0-2.33,0-.34-.06-.4-.39-.45-.05,0-.1,0-.15-.09l0-.07h.27c.56,0,1.13,0,1.69,0a.85.85,0,0,1,.84.94.76.76,0,0,1-.43.64,4,4,0,0,1-.46.19c.51.14.72.59,1,1l.26.36a.7.7,0,0,0,.77.2.25.25,0,0,0,.22-.27V10.6c0-.24-.18-.29-.36-.3S27.83,10.28,27.87,10.17Zm-2.58,1.66c.38,0,.8.13,1.05-.27a.89.89,0,0,0,0-1c-.26-.38-.67-.27-1.05-.28Zm3.65,0c.39,0,.83.13,1.06-.31a.88.88,0,0,0,0-1c-.26-.36-.66-.25-1-.26Z"/><path class="cls-4" d="M20.12,11.91A1.89,1.89,0,1,1,22,13.77,1.8,1.8,0,0,1,20.12,11.91ZM22,10.21a1.08,1.08,0,0,0-1.08.69A2.46,2.46,0,0,0,21,13,1.2,1.2,0,0,0,23,13a2.53,2.53,0,0,0,.05-2.07A1.07,1.07,0,0,0,22,10.21Z"/><path class="cls-4" d="M19.24,10.26l.16-.19.07,0c0,.3,0,.6,0,.9a.09.09,0,0,1-.06.06.13.13,0,0,1-.09-.05c0-.08,0-.16-.08-.24a.83.83,0,0,0-.92-.55.52.52,0,0,0-.44.35.46.46,0,0,0,.14.52,2.17,2.17,0,0,0,.47.32c.19.12.4.2.6.31a1.09,1.09,0,0,1,.5,1.48,1.08,1.08,0,0,1-1.43.49,4,4,0,0,1-.5-.26c-.15.25-.15.25-.28.25V12.6c.17-.08.17.05.2.14a1.08,1.08,0,0,0,.77.8.77.77,0,0,0,.95-.49.58.58,0,0,0-.16-.58,3,3,0,0,0-.52-.36c-.21-.12-.43-.21-.64-.33a.92.92,0,0,1-.47-1.16,1,1,0,0,1,1.12-.56A4.43,4.43,0,0,1,19.24,10.26Z"/><path class="cls-4" d="M33.93,13.68H32.39l0,0s.08-.1.13-.11c.36,0,.4-.12.43-.47a2.17,2.17,0,0,0-.49-1.71,5.86,5.86,0,0,1-.45-.69.68.68,0,0,0-.49-.36s-.08-.06-.12-.1l0-.06h1.47l0,0s-.08.1-.14.11c-.28,0-.32.1-.17.35.23.41.47.81.72,1.25.09-.13.16-.25.23-.36.18-.29.36-.58.53-.87s.1-.34-.2-.36-.18,0-.18-.16H35c-.08.08-.12.15-.17.15a.77.77,0,0,0-.55.39L33.5,12a.53.53,0,0,0-.08.23v.91c0,.27.1.37.37.39C33.89,13.52,34,13.52,33.93,13.68Z"/></g></g></svg>