<svg xmlns="http://www.w3.org/2000/svg" viewBox="0 0 38.55 24.66"><defs><style>.cls-1{isolation:isolate;}.cls-2{opacity:0.15;}.cls-2,.cls-3{mix-blend-mode:multiply;}.cls-4{fill:#fff;}</style></defs><title>convert-FIX-SVG-03</title><g class="cls-1"><g id="Layer_1" data-name="Layer 1"><g class="cls-2"><path d="M24.27,22.89H24s-.06,0,0,0c0-.76,0-1.5,0-2.23a22.68,22.68,0,0,0-.82-5.3c0-.11-.08-.15-.2-.19a4.79,4.79,0,0,1-.9-.31.56.56,0,0,1-.36-.45,1.81,1.81,0,0,1-1.77-.72,5.56,5.56,0,0,1-.58-1.14.56.56,0,0,1,.34-.72c.08-.68-.09-1.41.5-1.94a2.34,2.34,0,0,1,2.11-.62,2,2,0,0,1,.37.17,3.73,3.73,0,0,1,.28-.31c.18-.19.35-.23.54,0A4.44,4.44,0,0,0,25,9.85a1.13,1.13,0,0,1,.62.88,4,4,0,0,1,0,.7c.26.06.31.09.3.39a2.23,2.23,0,0,1-.11.73,6.9,6.9,0,0,1-.49,1.07,2.86,2.86,0,0,1-.45.48c.06.1,0,.19-.11.29a2.52,2.52,0,0,1-1.31.76A21.75,21.75,0,0,1,24.27,22.89Zm-2.94-12a1.34,1.34,0,0,0-.4.77,1.55,1.55,0,0,0,.4,1.72,2.3,2.3,0,0,0,1.14.5c.62.12.72,0,.94-.61a.75.75,0,0,0-.08-.68l-.07,0a1.06,1.06,0,0,1-1.71-.14A1.47,1.47,0,0,1,21.3,12,1.82,1.82,0,0,1,21.33,10.88Zm-1.4.71c.48.14.5.11.69-.31a5.73,5.73,0,0,1,.46-.8.71.71,0,0,1,.64-.32.53.53,0,0,0,.52-.32c.14-.24.11-.31-.16-.34a2.22,2.22,0,0,0-1.66.49,1.07,1.07,0,0,0-.43.72C20,11,20,11.3,19.93,11.59Zm3.74,2.18a2.18,2.18,0,0,0,1-1.78c0-.46-.19-.71-.59-.74a8.43,8.43,0,0,0-.86.05l0,.08a2.55,2.55,0,0,1,.65,1.11A2.53,2.53,0,0,1,23.67,13.77ZM22.3,12.45l-.08-.11c-.38-.47-.31-.88.23-1.15a4.4,4.4,0,0,1,.79-.29c.22-.06.45-.09.72-.15a1.45,1.45,0,0,0-1.48-.41,1.25,1.25,0,0,0-.83,1.11A1.06,1.06,0,0,0,22.3,12.45Zm-1.83-.38a5.43,5.43,0,0,0-.55,0c-.32,0-.46.2-.34.5a5,5,0,0,0,.41.84,1.6,1.6,0,0,0,1.28.76,1.3,1.3,0,0,0,.33-.07V14a1.8,1.8,0,0,1-1.12-.86.75.75,0,0,1-.08-.71A1.56,1.56,0,0,0,20.47,12.07Zm4.66-.21a1.3,1.3,0,0,0,.09-1.37.93.93,0,0,0-.37-.39,4.11,4.11,0,0,1-1.57-.8.17.17,0,0,0-.17,0,1.83,1.83,0,0,0-.27.3c.44.2.89.35,1.29.58A1.77,1.77,0,0,1,25.13,11.86Zm-.62,2.41a.65.65,0,0,0-.81,0,.86.86,0,0,1-.9.08c-.14-.06-.29-.09-.44-.14a.37.37,0,0,0-.43.16A1.76,1.76,0,0,0,24.51,14.27Zm-.13-.52c.41.09.58.05.74-.28s.35-.78.51-1.18a1.67,1.67,0,0,0,.07-.41A10.91,10.91,0,0,0,24.38,13.75ZM23,12c0-.22,0-.38-.22-.34s-.18.13-.27.21c.12.08.24.17.36.24S23,12,23,12Zm1.32-1,.4.21.05,0-.55-.67Z"/><path d="M4.68,13.21c0-.12-.07-.26-.1-.39s0-.41.27-.45a4,4,0,0,0,1.54-.76,1,1,0,0,1,.92,0,6.55,6.55,0,0,1,.78.42c.09-.17.28-.16.43,0a3.63,3.63,0,0,1,.64.66,3.74,3.74,0,0,1,.46.83,4,4,0,0,1,.17.7c.2,0,.14.27.17.44a2.08,2.08,0,0,1-.39,1.62,2,2,0,0,1-1.05.72A1.88,1.88,0,0,1,8,17L8,17.11,8.15,17a10.17,10.17,0,0,1,2.46,4.76l-.41.09a9.61,9.61,0,0,0-2.34-4.54A6.28,6.28,0,0,1,7,17.8a2.66,2.66,0,0,1-1.84-.16c-.29-.12-.36-.32-.32-.68-.51-.46-1.19-.76-1.26-1.55a2.3,2.3,0,0,1,.72-2A2.11,2.11,0,0,1,4.68,13.21Zm.41,1.92a1.56,1.56,0,0,0,.42.79A1.58,1.58,0,0,0,7,16.57,2.2,2.2,0,0,0,8.13,16c.47-.44.47-.53.1-1.09a.82.82,0,0,0-.6-.37,3.05,3.05,0,0,1,0,.62,1.13,1.13,0,0,1-1.38.71A1.89,1.89,0,0,1,5.09,15.13Zm-.28,1.45c.37-.22.39-.32.18-.68a4.48,4.48,0,0,1-.31-.62.89.89,0,0,1,0-.93.53.53,0,0,0,0-.61c-.11-.24-.17-.25-.35-.06a2.13,2.13,0,0,0-.6,1.53,1.19,1.19,0,0,0,.46,1ZM6.55,13.9a2.74,2.74,0,0,1,1.31.15c.43.17.63.57.91.89a2,2,0,0,0-.49-1.48A2.58,2.58,0,0,0,7.63,13a.44.44,0,0,0-.51.06A2,2,0,0,0,6.55,13.9Zm0-.93a1.38,1.38,0,0,0-1.19.86,1.33,1.33,0,0,0,.44,1.37,1.14,1.14,0,0,0,1.17,0H6.82c-.64.07-1-.27-.83-.9a6.64,6.64,0,0,1,.28-.86C6.34,13.3,6.43,13.14,6.51,13Zm1.25,3.77c-.17.08-.32.19-.49.25a2.14,2.14,0,0,1-.56.11.92.92,0,0,1-1-.39,1.79,1.79,0,0,0-.24-.26,5.16,5.16,0,0,0-.38.51.28.28,0,0,0,.18.45,3.25,3.25,0,0,0,.63.17,1.75,1.75,0,0,0,1.64-.45C7.68,17,7.82,16.92,7.76,16.74ZM5,13.18,5.17,13a3.81,3.81,0,0,1,1.41-.7A1.66,1.66,0,0,1,8,12.61l.13.08a1.5,1.5,0,0,0-.64-.75,1,1,0,0,0-1.17,0,4.6,4.6,0,0,1-1.1.57c-.41.14-.44,0-.3.55Zm4.68,1.4a.6.6,0,0,0-.44.62.86.86,0,0,1-.49.8,1.42,1.42,0,0,0-.39.29,1,1,0,0,0-.1.36.8.8,0,0,0,.31,0A1.76,1.76,0,0,0,9.66,14.58ZM8.46,12.2c.08.39.15.71.22,1a.21.21,0,0,0,0,.07l.37.82a1.7,1.7,0,0,1,.09.24c.33-.26.38-.43.22-.77a8.6,8.6,0,0,0-.47-.84A5.19,5.19,0,0,0,8.46,12.2ZM6.64,14.83l.38-.3c-.1-.07-.2-.19-.31-.21s-.16.16-.2.26S6.58,14.71,6.64,14.83Zm-.2-2.23.5.2.44-.19v0Z"/><path d="M34,16.68a.59.59,0,0,1-.17.87,2.56,2.56,0,0,1-1.75.71,4.63,4.63,0,0,1-.76-.15,8.72,8.72,0,0,0-.59,4.77H30.3a12.79,12.79,0,0,1-.09-1.38,9.41,9.41,0,0,1,.68-3.4c0-.07.1-.12.17-.2L31,17.82a.87.87,0,0,1-.88.17,2,2,0,0,1-1.73-1.57,1.55,1.55,0,0,0-.05-.23.21.21,0,0,1,.11-.32,1.06,1.06,0,0,1-.16-.91c.07-.38.12-.76.22-1.14a1.48,1.48,0,0,1,.25-.46c.1-.15.25-.22.41-.09a3.24,3.24,0,0,1,.44-.59,1.16,1.16,0,0,1,1.2-.35,3.07,3.07,0,0,0,1.38.1c.37-.07.5.05.55.43,0,.1,0,.2.05.31a1.31,1.31,0,0,1,1.12.45A2.2,2.2,0,0,1,34.65,15a1.51,1.51,0,0,1-.18.88c-.1.21-.21.42-.32.63A2.31,2.31,0,0,1,34,16.68Zm-3.52-1.29c-.09.1-.19.17-.27.27a1.09,1.09,0,0,0-.2.8.38.38,0,0,0,.14.28,3.66,3.66,0,0,0,.79.33A1.56,1.56,0,0,0,33,15.89a2.74,2.74,0,0,0,.09-.39,2.67,2.67,0,0,0,0-.4.35.35,0,0,0-.1.16,1.62,1.62,0,0,1-1.29,1.09,1,1,0,0,1-1-.52C30.6,15.7,30.56,15.56,30.49,15.39Zm3.37,1c.12-.2.23-.37.33-.55a1.21,1.21,0,0,0,.18-.85,2,2,0,0,0-.75-1.19,2.31,2.31,0,0,0-.53-.31.21.21,0,0,0-.19,0,.56.56,0,0,0,.14.66,1,1,0,0,1,.48,1c0,.27-.06.55-.08.82a.22.22,0,0,0,.06.2A1.73,1.73,0,0,0,33.86,16.35Zm-4.27-.1a2.45,2.45,0,0,1,.53-1.17,2.86,2.86,0,0,1,1.15-.62L31,14.21a2,2,0,0,0-.3-.21.63.63,0,0,0-1,.23A2.1,2.1,0,0,0,29.59,16.25Zm1.46-2.7c.19.22.41.45.6.71a3.2,3.2,0,0,1,.43.71.54.54,0,0,1-.31.73,2.3,2.3,0,0,1-.35.15,1.16,1.16,0,0,0,1.09-.5,1.25,1.25,0,0,0-1.46-1.8Zm.17,4,0,.05c.06.07.11.16.19.19A2.1,2.1,0,0,0,32,18a2.27,2.27,0,0,0,1.78-.71.28.28,0,0,0,0-.45c-.17-.13-.36-.22-.59-.36-.1.48-.25.85-.7,1A2,2,0,0,1,31.22,17.54Zm1.27-4.33-.06-.39c0-.12-.08-.16-.18-.13a3.67,3.67,0,0,1-1.65-.12.65.65,0,0,0-.31,0,1.33,1.33,0,0,0-.94,1.32C30.17,12.68,31.3,12.93,32.49,13.21Zm-3.87,3.05a2,2,0,0,0,.57,1,1.81,1.81,0,0,0,1.31.46c.23,0,.27-.1.15-.29a.38.38,0,0,0-.16-.12,2.11,2.11,0,0,0-.43-.12.92.92,0,0,1-.82-.63A.54.54,0,0,0,28.62,16.26Zm.26-2.64a.93.93,0,0,0-.13.29c-.09.46-.17.92-.22,1.39,0,.32.11.46.45.54a10.24,10.24,0,0,0,.05-1.1C29,14.37,28.93,14,28.88,13.62Zm2.47,1.76c.09-.09.22-.14.22-.21s-.1-.29-.23-.26-.18.17-.27.27Zm-.48-2.15-.81.27,0,.06.41,0Z"/><path d="M13.39,21.77H13a9.7,9.7,0,0,1,.84-4.71c-.39-.15-.88-.22-.76-.81-.43-.43-1-.74-1-1.43a2,2,0,0,1,.74-1.72,2,2,0,0,1,.33-.16,2.5,2.5,0,0,1,0-.29c-.05-.27,0-.44.32-.47a2.54,2.54,0,0,0,1.13-.45,1.11,1.11,0,0,1,1.3,0,2,2,0,0,1,.34.27.34.34,0,0,1,.5.05,2.64,2.64,0,0,1,.43.52,6.4,6.4,0,0,1,.41.83,4.86,4.86,0,0,1,.1.55,1.45,1.45,0,0,1,.11.29,3.76,3.76,0,0,1,0,.82,1.7,1.7,0,0,1-1.24,1.3,1.91,1.91,0,0,1-.5,0,1.68,1.68,0,0,1-1.66.71A9.46,9.46,0,0,0,13.39,21.77Zm2.27-7.52v.23a.87.87,0,0,1-.79.87,1.43,1.43,0,0,1-1.3-.49l-.07-.08-.07,0a1.88,1.88,0,0,0,.59.91A1.19,1.19,0,0,0,15,16a2,2,0,0,0,1.34-.77.28.28,0,0,0,.06-.15A1,1,0,0,0,15.66,14.25Zm-2.55,1.64c.32-.22.31-.25.14-.59a4.16,4.16,0,0,1-.28-.74.67.67,0,0,1,.13-.62.48.48,0,0,0-.06-.69,1.75,1.75,0,0,0-.72,1.21C12.18,15.14,12.61,15.53,13.11,15.89Zm3.5-1.28a1.8,1.8,0,0,0-.6-1.54.57.57,0,0,0-1,.1,4.42,4.42,0,0,0-.28.45A1.76,1.76,0,0,1,16.61,14.61Zm-1.75.25c-.59-.06-.8-.33-.64-.92.09-.3.25-.58.37-.87l.13-.24a1.21,1.21,0,0,0-1,.65,1.06,1.06,0,0,0,.2,1.15A.86.86,0,0,0,14.86,14.86Zm-1.14,1a3.67,3.67,0,0,0-.34.41.24.24,0,0,0,.12.39,2.35,2.35,0,0,0,.51.17,1.51,1.51,0,0,0,1.47-.3,1.64,1.64,0,0,0,.2-.26C14.94,16.54,14.25,16.73,13.72,15.84Zm-.35-3c.46-.19.9-.42,1.36-.56a1.61,1.61,0,0,1,1.4.26,2.14,2.14,0,0,0-.45-.53.87.87,0,0,0-1,0,2.44,2.44,0,0,1-1.16.48q-.2,0-.15.21C13.35,12.73,13.36,12.81,13.37,12.84Zm4,1.58a.48.48,0,0,0-.37.45.83.83,0,0,1-.52.76,1.48,1.48,0,0,0-.27.16.3.3,0,0,0-.13.35A1.45,1.45,0,0,0,17.41,14.42ZM17,14.15c.28-.19.35-.33.23-.58s-.34-.68-.52-1a1.62,1.62,0,0,0-.18-.2l-.05,0Zm-1.89.15v-.1c-.1-.09-.18-.25-.34-.13s0,.18-.06.28Zm.28-1.74v0h-.46l.2.16Z"/><path d="M18.27,23.43A9.92,9.92,0,0,1,19,21.09c-.39-.16-.88-.23-.76-.81-.43-.43-1-.74-1-1.43a2,2,0,0,1,.74-1.72,1.46,1.46,0,0,1,.33-.17c0-.08,0-.18-.06-.29,0-.26.06-.43.33-.46a2.45,2.45,0,0,0,1.13-.46,1.11,1.11,0,0,1,1.28,0,2.93,2.93,0,0,1,.36.28.34.34,0,0,1,.49,0,3.18,3.18,0,0,1,.44.53,5.18,5.18,0,0,1,.4.82,3.38,3.38,0,0,1,.11.6c.17,0,.11.24.12.39a1.77,1.77,0,0,1-.72,1.7,2,2,0,0,1-.56.28,1.91,1.91,0,0,1-.51.05,1.68,1.68,0,0,1-1.65.7,9.43,9.43,0,0,0-.74,2.27Zm.34-4.69a1.9,1.9,0,0,0,.71,1,1.07,1.07,0,0,0,1,.18,3.28,3.28,0,0,0,.86-.47c.37-.27.38-.45.13-.84a.74.74,0,0,0-.52-.38v.23a.87.87,0,0,1-.75.87A1.38,1.38,0,0,1,18.9,19C18.8,19,18.71,18.84,18.61,18.74Zm-.39-1.47a1.73,1.73,0,0,0-.74,1.28c-.11.67.35,1,.8,1.36.32-.23.31-.24.14-.59a4,4,0,0,1-.28-.75.63.63,0,0,1,.12-.6C18.44,17.73,18.44,17.56,18.22,17.27Zm3.54,1.39.06,0c0-.1,0-.21,0-.31A1.81,1.81,0,0,0,21.05,17a.5.5,0,0,0-.5-.1,1.42,1.42,0,0,0-.62.74A1.7,1.7,0,0,1,21.76,18.66ZM20,18.87h-.1a.56.56,0,0,1-.59-.69,2.64,2.64,0,0,1,.2-.66c.09-.22.21-.42.33-.66a1.15,1.15,0,0,0-1,.64,1,1,0,0,0,.19,1.16A.84.84,0,0,0,20,18.87Zm-1.14,1a4.47,4.47,0,0,0-.32.35c-.16.22-.11.37.13.47a4.42,4.42,0,0,0,.48.15,1.49,1.49,0,0,0,1.46-.31,1.64,1.64,0,0,0,.2-.26C20.1,20.56,19.41,20.75,18.9,19.87Zm-.35-2.95c.87-.53,1.72-1,2.75-.32a1.19,1.19,0,0,0-.47-.58.9.9,0,0,0-1,0,4.73,4.73,0,0,1-1,.45c-.31.09-.32,0-.24.38Zm4,1.52a.52.52,0,0,0-.39.47.77.77,0,0,1-.51.73,2.68,2.68,0,0,0-.28.18.29.29,0,0,0-.12.35A1.48,1.48,0,0,0,22.59,18.44Zm-.88-2.07-.06,0,.52,1.77c.25-.16.32-.26.26-.46A3.63,3.63,0,0,0,21.71,16.37Zm-1.42,1.88c-.1-.12-.19-.26-.34-.16s-.1.24-.07.26S20.16,18.35,20.29,18.25Zm0-1.53.27-.13v0h-.46Z"/><path d="M26.68,6.11l.75-.65c.32-.28.65-.55,1-.84a.34.34,0,0,1,.5,0,.87.87,0,0,0,.18.11,19.82,19.82,0,0,0-1,2.52s0,.09-.05.08l-.45-.13a.17.17,0,0,1-.11-.24l.27-.82a1.2,1.2,0,0,0,0-.2l-.08,0-.79.86c-.08.1-.13.24-.21.34a.39.39,0,0,1-.49.12c-.2-.09-.16-.24-.13-.4s.09-.53.12-.79c0-.07-.06-.15-.09-.23s-.15.07-.18.13l-.68,1.3a1,1,0,0,1-.17.18c-.07-.07-.19-.14-.2-.22A.91.91,0,0,1,25,6.68c.35-.61.73-1.21,1.1-1.81a.56.56,0,0,1,.68-.13c.07,0,.07.2.06.3C26.76,5.41,26.72,5.78,26.68,6.11Z"/><path d="M14.5,5.32a.75.75,0,0,0-1.07-.22,2.22,2.22,0,0,0-.9.68.65.65,0,0,0,0,.9.75.75,0,0,0,1,.08A4.88,4.88,0,0,0,14,6.23l0-.08-.47.06c-.08,0-.18,0-.24,0A.76.76,0,0,1,13,6c.06,0,.11-.13.18-.14.35-.08.71-.13,1.06-.2l.27-.06c.31-.09.38-.06.51.3a3.15,3.15,0,0,0-.41.31,2,2,0,0,0-.36.41,1.56,1.56,0,0,1-1.07.75,1.46,1.46,0,0,1-1.09-.26.71.71,0,0,1-.27-.73,2.19,2.19,0,0,1,2-1.94.89.89,0,0,1,.81.31c.11.12.14.21,0,.33A1.54,1.54,0,0,0,14.5,5.32Z"/><path d="M6.41,7.4c-.85,0-1.16-.43-.92-1.24A2.28,2.28,0,0,1,7.35,4.53,1,1,0,0,1,8.43,5.94a4.24,4.24,0,0,1-.6,1A1.4,1.4,0,0,1,7,7.32C6.77,7.36,6.59,7.37,6.41,7.4Zm.18-.49A2,2,0,0,0,7,6.81a2.19,2.19,0,0,0,1-1,.46.46,0,0,0-.4-.71A1.47,1.47,0,0,0,6,6.28C6,6.69,6.16,6.88,6.59,6.91Z"/><path d="M11.07,7.33a1.81,1.81,0,0,0-.89-.88.48.48,0,0,0-.57.15c-.13.21-.25.42-.38.61a.32.32,0,0,1-.47.14c-.19-.12-.2-.25,0-.41A2,2,0,0,0,9,6.5c.21-.38.4-.78.59-1.17,0-.11,0-.25.06-.37s.09-.23.17-.26a2.09,2.09,0,0,1,1.47-.19l.22.08c.45.22.52.55.15.87S11,6,10.6,6.25a2.09,2.09,0,0,1,.27.16,2,2,0,0,1,.4.3C11.54,7,11.46,7.21,11.07,7.33ZM10,5.87A2,2,0,0,0,11.44,5C10.9,4.65,10.11,5.1,10,5.87Z"/><path d="M21.65,5.47l.65-.1c.08,0,.19,0,.25,0a1.28,1.28,0,0,1,.26.26c-.06,0-.11.13-.19.15-.33.11-.65.21-1,.29a.48.48,0,0,0-.39.33,2.48,2.48,0,0,1-.16.35l.6-.22a6.06,6.06,0,0,1,.61-.16c.23,0,.27.16.32.31s-.06.21-.18.24L21,7.35a.63.63,0,0,1-.52-.09.19.19,0,0,1-.1-.27c.31-.71.62-1.43.94-2.14a.44.44,0,0,1,.36-.29c.4,0,.79-.12,1.19-.18.15,0,.28,0,.3.2s0,.29-.24.31-.51.08-.76.09S21.71,5.17,21.65,5.47Z"/><path d="M30.23,5.47,31,5.36a.3.3,0,0,1,.21,0c.21.18.19.3-.08.38s-.66.21-1,.29a.42.42,0,0,0-.35.29c0,.12-.1.23-.16.38l.72-.26c.14-.05.3-.08.45-.12a.24.24,0,0,1,.28.13c.15.25.13.35-.16.44-.46.14-.93.27-1.39.42a.59.59,0,0,1-.52-.1A.29.29,0,0,1,28.94,7c.31-.74.62-1.47,1-2.19a.51.51,0,0,1,.33-.24c.4-.09.81-.14,1.21-.2.16,0,.28,0,.29.21s0,.28-.24.3S31,5,30.8,5,30.24,5.09,30.23,5.47Z"/><path d="M4,5.47l.8-.11A.31.31,0,0,1,5,5.42c.2.19.17.28-.09.36s-.72.2-1.07.32a.43.43,0,0,0-.23.19c-.16.29-.3.6-.44.91-.06.13-.14.22-.3.16S2.6,7.18,2.67,7c.31-.74.63-1.47,1-2.2A.54.54,0,0,1,4,4.57c.41-.08.82-.13,1.23-.19.15,0,.24,0,.25.2s0,.28-.2.3S4.77,5,4.52,5A.51.51,0,0,0,4,5.47Z"/><path d="M16.3,6.79l.51,0c0,.37-.14.49-.47.52L15,7.38,15.11,7a.25.25,0,0,1,.28-.17.39.39,0,0,0,.41-.24c.24-.46.49-.92.76-1.42h-.79c.13-.49.29-.62.78-.62h1c.22,0,.22.14.23.27s0,.29-.15.34a.5.5,0,0,1-.21,0c-.23,0-.35.09-.45.29-.18.36-.39.71-.58,1.07A1.61,1.61,0,0,0,16.3,6.79Z"/><path d="M18.31,7.36l-.24-.1c-.1,0-.24-.08-.28-.16s.08-.19.1-.29a2.12,2.12,0,0,0,0-.44c0-.45,0-.89,0-1.33a.34.34,0,0,1,.36-.35s.1.1.1.15c0,.41,0,.81,0,1.21a.69.69,0,0,0,0,.24,4.34,4.34,0,0,1,1.73-1.77l.29.28a.71.71,0,0,1-.51.51,1.22,1.22,0,0,0-.71.57C18.91,6.36,18.62,6.85,18.31,7.36Z"/><path d="M32,7.38a.33.33,0,0,1-.28-.49,1.53,1.53,0,0,1,.44-.4c.16-.1.32,0,.43.14a.3.3,0,0,1,0,.39A.83.83,0,0,1,32,7.38Z"/><path d="M35.44,6.8a.76.76,0,0,1-.69.58.33.33,0,0,1-.23-.49,1.27,1.27,0,0,1,.46-.4A.34.34,0,0,1,35.44,6.8Z"/><path d="M33.43,7.38a.32.32,0,0,1-.31-.48,1.27,1.27,0,0,1,.45-.41c.15-.09.3,0,.41.13A.3.3,0,0,1,34,7,.84.84,0,0,1,33.43,7.38Z"/><path d="M24.47,23.08c-.13,0-.23,0-.32,0h0c0-.76,0-1.5,0-2.24a22.52,22.52,0,0,0-.82-5.29.23.23,0,0,0-.21-.19,5,5,0,0,1-.89-.31.59.59,0,0,1-.37-.45,1.82,1.82,0,0,1-1.77-.72,5.87,5.87,0,0,1-.57-1.15c-.12-.3,0-.55.34-.71.08-.68-.09-1.41.5-1.94a2.36,2.36,0,0,1,2.1-.63,2.58,2.58,0,0,1,.38.18,3.54,3.54,0,0,1,.28-.32c.18-.18.35-.22.54,0a4.44,4.44,0,0,0,1.55.78,1.1,1.1,0,0,1,.62.88,4,4,0,0,1,.05.7c.26.06.31.09.3.39a2.23,2.23,0,0,1-.11.73,6.9,6.9,0,0,1-.49,1.07,2.86,2.86,0,0,1-.45.48c.06.09,0,.19-.11.29a2.56,2.56,0,0,1-1.31.76A21.92,21.92,0,0,1,24.47,23.08Zm-2.94-12a1.34,1.34,0,0,0-.4.77,1.54,1.54,0,0,0,.39,1.72,2.34,2.34,0,0,0,1.15.5c.62.11.72,0,.94-.61a.73.73,0,0,0-.09-.68l-.06,0a1.06,1.06,0,0,1-1.71-.14,1.69,1.69,0,0,1-.26-.52A1.82,1.82,0,0,1,21.53,11.08Zm-1.4.7c.48.14.5.12.69-.3a5.73,5.73,0,0,1,.46-.8.74.74,0,0,1,.64-.33.52.52,0,0,0,.52-.31c.14-.24.1-.31-.17-.34a2.23,2.23,0,0,0-1.65.48,1.17,1.17,0,0,0-.44.73C20.14,11.2,20.15,11.5,20.13,11.78ZM23.87,14a2.2,2.2,0,0,0,1-1.78c0-.46-.19-.71-.59-.74a6.29,6.29,0,0,0-.86.05l0,.07A2.59,2.59,0,0,1,24,12.69,2.54,2.54,0,0,1,23.87,14ZM22.5,12.65l-.08-.11c-.38-.47-.31-.88.23-1.15a4.4,4.4,0,0,1,.79-.29c.22-.06.45-.1.72-.15a1.44,1.44,0,0,0-1.49-.41,1.24,1.24,0,0,0-.82,1.11A1.07,1.07,0,0,0,22.5,12.65Zm-1.83-.38a5.43,5.43,0,0,0-.55,0c-.32,0-.46.2-.34.49a4.77,4.77,0,0,0,.41.85,1.6,1.6,0,0,0,1.28.76,1.3,1.3,0,0,0,.33-.07v-.07a1.75,1.75,0,0,1-1.12-.85.75.75,0,0,1-.08-.71A2.49,2.49,0,0,0,20.67,12.27Zm4.66-.21a1.3,1.3,0,0,0,.08-1.37.86.86,0,0,0-.36-.39,4,4,0,0,1-1.57-.8.19.19,0,0,0-.18,0,2.32,2.32,0,0,0-.26.3c.44.2.89.35,1.29.58A1.76,1.76,0,0,1,25.33,12.06Zm-.63,2.4a.66.66,0,0,0-.8,0,.84.84,0,0,1-.9.09c-.14-.06-.3-.09-.44-.14a.35.35,0,0,0-.43.16A1.74,1.74,0,0,0,24.7,14.46Zm-.12-.52c.41.1.57.05.74-.27s.35-.78.51-1.18a1.67,1.67,0,0,0,.07-.41A10.68,10.68,0,0,0,24.58,13.94Zm-1.39-1.73c0-.22,0-.38-.22-.34s-.18.13-.27.2a2.9,2.9,0,0,0,.36.25S23.17,12.23,23.19,12.21Zm1.32-1,.4.21.05,0-.55-.67Z"/><path d="M4.87,13.41c0-.12-.06-.26-.09-.4s0-.4.27-.44a4.19,4.19,0,0,0,1.54-.76,1,1,0,0,1,.92,0,6,6,0,0,1,.78.42c.09-.17.28-.16.43,0a4.06,4.06,0,0,1,.64.67,3.74,3.74,0,0,1,.46.83,4,4,0,0,1,.17.7c.19,0,.14.26.16.44a2,2,0,0,1-1.43,2.34,1.88,1.88,0,0,1-.48,0l-.07.16.18-.09A10.17,10.17,0,0,1,10.81,22l-.41.09a9.79,9.79,0,0,0-2.34-4.54,6.88,6.88,0,0,1-.88.47,2.66,2.66,0,0,1-1.84-.16c-.29-.12-.36-.32-.32-.68-.52-.46-1.19-.77-1.26-1.55a2.32,2.32,0,0,1,.71-2A3,3,0,0,1,4.87,13.41Zm.42,1.92a1.49,1.49,0,0,0,.42.79,1.58,1.58,0,0,0,1.48.65,2.13,2.13,0,0,0,1.13-.61c.47-.44.48-.53.11-1.09a.82.82,0,0,0-.6-.37,4,4,0,0,1,0,.62A1.14,1.14,0,0,1,6.4,16,1.89,1.89,0,0,1,5.29,15.33ZM5,16.78c.37-.22.39-.32.18-.68a4,4,0,0,1-.31-.62.89.89,0,0,1,0-.93.53.53,0,0,0,0-.61c-.11-.24-.17-.25-.36-.07A2.14,2.14,0,0,0,4,15.41a1.2,1.2,0,0,0,.46,1ZM6.75,14.1a2.74,2.74,0,0,1,1.31.15c.43.17.63.57.91.89a2,2,0,0,0-.49-1.48,2.58,2.58,0,0,0-.65-.49.44.44,0,0,0-.51.06A1.87,1.87,0,0,0,6.75,14.1Zm0-.93A1.34,1.34,0,0,0,5.52,14,1.33,1.33,0,0,0,6,15.4a1.14,1.14,0,0,0,1.17,0H7c-.63.07-1-.27-.82-.9a6.17,6.17,0,0,1,.28-.86C6.54,13.5,6.63,13.34,6.71,13.17ZM8,16.94a3.69,3.69,0,0,1-.49.24,2.15,2.15,0,0,1-.56.12.92.92,0,0,1-1-.39,1.79,1.79,0,0,0-.24-.26,4.21,4.21,0,0,0-.38.51.28.28,0,0,0,.18.45,4.16,4.16,0,0,0,.63.17,1.75,1.75,0,0,0,1.64-.45C7.88,17.22,8,17.12,8,16.94ZM5.18,13.38l.19-.15a3.81,3.81,0,0,1,1.41-.7,1.66,1.66,0,0,1,1.43.28l.12.07a1.41,1.41,0,0,0-.63-.74,1,1,0,0,0-1.17,0,4.79,4.79,0,0,1-1.1.57c-.41.14-.44,0-.3.55C5.13,13.31,5.15,13.32,5.18,13.38Zm4.68,1.4a.62.62,0,0,0-.45.62.83.83,0,0,1-.48.8,1.42,1.42,0,0,0-.39.29.9.9,0,0,0-.1.36,1.06,1.06,0,0,0,.31,0A1.76,1.76,0,0,0,9.86,14.78Zm-1.2-2.39c.08.39.15.72.22,1,0,0,0,.05,0,.08.13.27.25.55.37.82a1.7,1.7,0,0,1,.09.24c.33-.26.38-.43.22-.77s-.3-.57-.47-.84S8.83,12.61,8.66,12.39ZM6.84,15l.38-.3c-.11-.07-.2-.19-.31-.21s-.16.16-.2.26S6.78,14.91,6.84,15Zm-.2-2.23.5.2.44-.19v-.05Z"/><path d="M34.2,16.88a.58.58,0,0,1-.16.87,2.56,2.56,0,0,1-1.75.71,4.73,4.73,0,0,1-.77-.15,8.81,8.81,0,0,0-.58,4.77h-.45c0-.46-.09-.92-.09-1.38a9.74,9.74,0,0,1,.69-3.41c0-.06.1-.11.17-.19L31.17,18c-.24.29-.57.23-.87.18a2,2,0,0,1-1.73-1.58,1.8,1.8,0,0,0-.06-.22.22.22,0,0,1,.12-.32,1.06,1.06,0,0,1-.16-.91c.07-.38.12-.77.22-1.14a1.68,1.68,0,0,1,.24-.46c.11-.16.26-.22.41-.09a4.53,4.53,0,0,1,.44-.59A1.16,1.16,0,0,1,31,12.53a3.07,3.07,0,0,0,1.38.1c.37-.07.5,0,.55.43,0,.1,0,.2,0,.31a1.31,1.31,0,0,1,1.12.45,2.22,2.22,0,0,1,.76,1.36,1.51,1.51,0,0,1-.18.88l-.32.63A1.25,1.25,0,0,1,34.2,16.88Zm-3.51-1.29a3.44,3.44,0,0,0-.27.27,1.08,1.08,0,0,0-.2.8.36.36,0,0,0,.14.27,3.25,3.25,0,0,0,.79.34,1.57,1.57,0,0,0,2.06-1.18,2.74,2.74,0,0,0,.09-.39c0-.14,0-.27,0-.4a.35.35,0,0,0-.1.16,1.6,1.6,0,0,1-1.29,1.08,1,1,0,0,1-1-.51C30.8,15.9,30.76,15.76,30.69,15.59Zm3.37,1,.33-.55a1.21,1.21,0,0,0,.18-.85A2,2,0,0,0,33.82,14a2.82,2.82,0,0,0-.53-.31s-.17,0-.19,0a.57.57,0,0,0,.14.66,1,1,0,0,1,.48,1c0,.27-.06.54-.08.82a.24.24,0,0,0,.06.2A1.73,1.73,0,0,0,34.06,16.55Zm-4.27-.1a2.45,2.45,0,0,1,.53-1.17,2.79,2.79,0,0,1,1.15-.62l-.27-.26-.29-.21a.64.64,0,0,0-1,.24A2.1,2.1,0,0,0,29.79,16.45Zm1.46-2.7c.19.22.41.45.6.7a3.52,3.52,0,0,1,.43.72.54.54,0,0,1-.31.73,2.3,2.3,0,0,1-.35.15,1.14,1.14,0,0,0,1.08-.5,1.32,1.32,0,0,0-.1-1.38A1.35,1.35,0,0,0,31.25,13.75Zm.17,4-.05.05c.07.06.12.16.2.19a2.14,2.14,0,0,0,.59.19A2.25,2.25,0,0,0,34,17.45a.27.27,0,0,0,0-.44,6.89,6.89,0,0,0-.59-.37c-.1.49-.26.86-.71,1A2,2,0,0,1,31.42,17.74Zm1.26-4.33c0-.14,0-.26,0-.39s-.08-.16-.18-.13a3.67,3.67,0,0,1-1.65-.12.65.65,0,0,0-.31,0,1.33,1.33,0,0,0-.94,1.32C30.37,12.88,31.5,13.13,32.68,13.41Zm-3.86,3.05a2,2,0,0,0,.57,1A1.81,1.81,0,0,0,30.7,18c.23,0,.27-.1.14-.29a.3.3,0,0,0-.15-.12,1.73,1.73,0,0,0-.43-.12.9.9,0,0,1-.82-.63A.53.53,0,0,0,28.82,16.46Zm.26-2.64a.93.93,0,0,0-.13.29,13,13,0,0,0-.22,1.39c0,.32.11.46.45.54a10.31,10.31,0,0,0,.05-1.11C29.21,14.57,29.13,14.21,29.08,13.82Zm2.46,1.76c.1-.09.22-.14.23-.21a.23.23,0,0,0-.23-.27c-.11,0-.18.18-.27.28Zm-.47-2.15-.81.27,0,.06.41,0Z"/><path d="M13.59,22h-.41A9.68,9.68,0,0,1,14,17.26c-.39-.15-.88-.22-.76-.81-.43-.43-1-.74-1-1.43A2,2,0,0,1,13,13.3a1.45,1.45,0,0,1,.33-.16l-.06-.29c0-.27.06-.44.33-.47a2.46,2.46,0,0,0,1.12-.45A1.14,1.14,0,0,1,16,12a2.79,2.79,0,0,1,.34.28c.17-.17.35-.09.5,0a2.64,2.64,0,0,1,.43.52,4.88,4.88,0,0,1,.4.83,2.43,2.43,0,0,1,.1.55,1,1,0,0,1,.12.29,3.76,3.76,0,0,1,0,.82,1.7,1.7,0,0,1-1.24,1.3,2,2,0,0,1-.5,0,1.66,1.66,0,0,1-1.66.7A9.38,9.38,0,0,0,13.59,22Zm2.27-7.52v.22a.88.88,0,0,1-.79.88,1.43,1.43,0,0,1-1.3-.49L13.7,15l-.07-.05a1.92,1.92,0,0,0,.59.91,1.19,1.19,0,0,0,.94.34,2,2,0,0,0,1.34-.77.27.27,0,0,0,.05-.15A1,1,0,0,0,15.86,14.45Zm-2.55,1.64c.31-.22.31-.25.14-.59a4,4,0,0,1-.28-.75.63.63,0,0,1,.13-.61.48.48,0,0,0-.06-.69,1.73,1.73,0,0,0-.72,1.2C12.38,15.34,12.81,15.73,13.31,16.09Zm3.5-1.28a1.8,1.8,0,0,0-.6-1.54.57.57,0,0,0-1,.1,4.42,4.42,0,0,0-.28.45A1.74,1.74,0,0,1,16.81,14.81Zm-1.75.25c-.59-.07-.8-.33-.64-.92.09-.3.25-.58.37-.87a2,2,0,0,1,.13-.24,1.21,1.21,0,0,0-1,.65,1,1,0,0,0,.2,1.14A.84.84,0,0,0,15.06,15.06Zm-1.14,1a4.89,4.89,0,0,0-.34.4.25.25,0,0,0,.11.4,3.5,3.5,0,0,0,.52.17,1.51,1.51,0,0,0,1.47-.3,2.56,2.56,0,0,0,.2-.26C15.13,16.73,14.45,16.92,13.92,16Zm-.35-3c.46-.19.9-.42,1.36-.56a1.56,1.56,0,0,1,1.39.26,1.92,1.92,0,0,0-.44-.53.85.85,0,0,0-1-.05,2.37,2.37,0,0,1-1.16.47c-.13,0-.19.08-.15.22S13.56,13,13.57,13Zm4,1.57a.5.5,0,0,0-.37.46.8.8,0,0,1-.52.75,1.53,1.53,0,0,0-.27.17.28.28,0,0,0-.13.34A1.44,1.44,0,0,0,17.61,14.61Zm-.41-.26c.28-.19.35-.33.23-.59s-.34-.67-.52-1a.86.86,0,0,0-.18-.2l-.05,0Zm-1.9.15v-.11c-.1-.08-.18-.24-.34-.12s0,.18-.06.27Zm.29-1.74v0h-.46l.2.16Z"/><path d="M18.47,23.62a10,10,0,0,1,.72-2.33c-.39-.16-.88-.23-.76-.82-.44-.42-1-.73-1-1.42a2,2,0,0,1,.75-1.72,1.38,1.38,0,0,1,.32-.17c0-.08,0-.19-.05-.29,0-.26.06-.44.33-.47A2.35,2.35,0,0,0,19.86,16a1.13,1.13,0,0,1,1.29,0,2.93,2.93,0,0,1,.36.28.31.31,0,0,1,.48,0,2.81,2.81,0,0,1,.45.53,5.18,5.18,0,0,1,.4.82,4.05,4.05,0,0,1,.11.6c.17,0,.11.23.12.38a1.77,1.77,0,0,1-.72,1.71,2,2,0,0,1-.56.28,2.51,2.51,0,0,1-.51.05,1.68,1.68,0,0,1-1.65.7,9.5,9.5,0,0,0-.74,2.26Zm.34-4.68a1.83,1.83,0,0,0,.71,1,1.07,1.07,0,0,0,1,.19,3.6,3.6,0,0,0,.86-.47c.37-.27.38-.45.13-.84a.73.73,0,0,0-.53-.38,1.76,1.76,0,0,1,0,.23.86.86,0,0,1-.74.87,1.38,1.38,0,0,1-1.18-.33A4.11,4.11,0,0,1,18.81,18.94Zm-.39-1.47a1.73,1.73,0,0,0-.74,1.28c-.11.67.35,1,.8,1.36.32-.23.31-.25.14-.59a4.85,4.85,0,0,1-.29-.75.66.66,0,0,1,.13-.6C18.64,17.93,18.64,17.76,18.42,17.47ZM22,18.86l.06,0c0-.1,0-.21,0-.31a1.89,1.89,0,0,0-.75-1.32.48.48,0,0,0-.5-.09,1.34,1.34,0,0,0-.62.74A1.68,1.68,0,0,1,22,18.86Zm-1.71.21h-.11a.55.55,0,0,1-.58-.68,2.52,2.52,0,0,1,.2-.66c.09-.22.21-.42.33-.67a1.18,1.18,0,0,0-1,.65,1,1,0,0,0,.19,1.16A.85.85,0,0,0,20.24,19.07Zm-1.15,1a4.35,4.35,0,0,0-.31.35c-.16.22-.11.37.13.47a3.82,3.82,0,0,0,.48.15,1.5,1.5,0,0,0,1.46-.31c.08-.08.13-.18.2-.26C20.3,20.76,19.61,21,19.09,20.07Zm-.34-2.95c.87-.53,1.72-1,2.74-.32a1.12,1.12,0,0,0-.46-.58.92.92,0,0,0-1,0,4.33,4.33,0,0,1-1,.46c-.31.09-.32.05-.24.38Zm4,1.52a.52.52,0,0,0-.39.47.79.79,0,0,1-.51.73,2.68,2.68,0,0,0-.28.18.29.29,0,0,0-.12.35A1.48,1.48,0,0,0,22.79,18.64Zm-.88-2.07-.06,0,.52,1.77c.25-.16.32-.26.26-.46A3.56,3.56,0,0,0,21.91,16.57Zm-1.43,1.88c-.09-.13-.18-.26-.33-.16s-.1.24-.07.26S20.35,18.55,20.48,18.45Zm0-1.53.27-.13v0h-.46Z"/><path d="M26.88,6.3l.74-.64c.33-.28.66-.55,1-.84a.34.34,0,0,1,.5,0l.18.11a19.26,19.26,0,0,0-1,2.52s0,.09,0,.08l-.45-.13a.17.17,0,0,1-.11-.24L28,6.31a1.2,1.2,0,0,0,0-.2l-.08-.05-.79.86c-.08.1-.13.24-.21.34a.39.39,0,0,1-.49.12c-.2-.09-.16-.25-.13-.4s.09-.53.12-.79c0-.07-.06-.15-.09-.23s-.15.07-.18.13c-.23.43-.45.87-.68,1.29a.81.81,0,0,1-.18.19c-.06-.07-.18-.14-.19-.23a.8.8,0,0,1,0-.46c.35-.61.72-1.21,1.1-1.81a.56.56,0,0,1,.68-.13c.07,0,.07.2.06.3C27,5.61,26.91,6,26.88,6.3Z"/><path d="M14.7,5.52a.75.75,0,0,0-1.07-.22,2.16,2.16,0,0,0-.9.68.65.65,0,0,0,0,.9.75.75,0,0,0,1,.08c.18-.16.33-.36.49-.53l0-.08-.46.05a.52.52,0,0,1-.25,0,.91.91,0,0,1-.19-.2c.06-.05.11-.13.18-.14.35-.08.7-.14,1.06-.2l.26-.07c.32-.08.39,0,.51.31a3.9,3.9,0,0,0-.4.31,2.79,2.79,0,0,0-.37.4,1.46,1.46,0,0,1-2.15.5.69.69,0,0,1-.27-.73,2.2,2.2,0,0,1,2-1.95.93.93,0,0,1,.81.32c.11.12.14.21,0,.33A1.14,1.14,0,0,0,14.7,5.52Z"/><path d="M6.61,7.59c-.85,0-1.16-.42-.92-1.23A2.27,2.27,0,0,1,7.55,4.73,1,1,0,0,1,8.63,6.14a4.31,4.31,0,0,1-.6,1,1.36,1.36,0,0,1-.88.42A5,5,0,0,1,6.61,7.59Zm.18-.49A2.22,2.22,0,0,0,7.16,7a2.28,2.28,0,0,0,1-1c.17-.39,0-.65-.41-.71A1.46,1.46,0,0,0,6.24,6.48C6.19,6.89,6.36,7.07,6.79,7.1Z"/><path d="M11.26,7.53a1.75,1.75,0,0,0-.88-.88.5.5,0,0,0-.58.15c-.12.2-.24.41-.37.61A.32.32,0,0,1,9,7.55c-.2-.13-.2-.25-.05-.41a2.3,2.3,0,0,0,.33-.44c.21-.38.4-.78.58-1.17,0-.11,0-.26.07-.37s.09-.23.17-.26a2.08,2.08,0,0,1,1.47-.19l.22.08c.45.22.52.54.14.87a12.65,12.65,0,0,1-1.09.79l.27.15a2.5,2.5,0,0,1,.4.31C11.74,7.18,11.66,7.41,11.26,7.53Zm-1.1-1.46a2,2,0,0,0,1.48-.84C11.1,4.85,10.31,5.29,10.16,6.07Z"/><path d="M21.85,5.67l.65-.1c.08,0,.19-.05.25,0a1.28,1.28,0,0,1,.26.26c-.06,0-.12.13-.19.15-.33.1-.66.21-1,.29a.48.48,0,0,0-.39.33,3.12,3.12,0,0,1-.16.35l.6-.22a4.21,4.21,0,0,1,.61-.16c.23,0,.26.16.32.31s-.06.21-.18.24c-.48.15-1,.28-1.43.44a.67.67,0,0,1-.52-.09.19.19,0,0,1-.1-.27c.31-.71.62-1.43.94-2.14a.44.44,0,0,1,.36-.29l1.19-.18c.15,0,.28,0,.3.2s0,.29-.24.31-.51.08-.76.09S21.91,5.37,21.85,5.67Z"/><path d="M30.42,5.67c.27,0,.53-.09.8-.12a.38.38,0,0,1,.21,0c.21.18.18.3-.08.38l-1,.29a.42.42,0,0,0-.34.29,3.8,3.8,0,0,1-.17.38c.27-.1.5-.19.73-.26s.3-.08.44-.12a.22.22,0,0,1,.28.13c.16.25.13.35-.15.44-.47.14-.93.27-1.39.42a.57.57,0,0,1-.52-.11.26.26,0,0,1-.09-.24c.31-.73.62-1.46,1-2.18a.53.53,0,0,1,.33-.25c.4-.08.8-.13,1.21-.19.16,0,.28,0,.28.21s0,.28-.23.3-.46.07-.69.08S30.44,5.29,30.42,5.67Z"/><path d="M4.15,5.67c.27,0,.53-.09.8-.11a.29.29,0,0,1,.22.06c.21.19.18.28-.08.36s-.72.2-1.08.32a.43.43,0,0,0-.22.18c-.16.3-.3.61-.44.92-.06.13-.14.21-.3.16s-.25-.18-.18-.35c.31-.74.63-1.47,1-2.2a.54.54,0,0,1,.34-.24c.4-.08.82-.13,1.23-.19.15,0,.24,0,.25.2s0,.28-.2.3-.49.08-.74.09A.51.51,0,0,0,4.15,5.67Z"/><path d="M16.5,7l.51,0c0,.36-.14.49-.47.51l-1.36.13.13-.38A.26.26,0,0,1,15.59,7,.38.38,0,0,0,16,6.79c.24-.46.49-.92.76-1.42H16c.13-.49.29-.62.78-.62.33,0,.67,0,1,0S18,4.89,18,5s0,.29-.15.34a.52.52,0,0,1-.21,0c-.24,0-.35.09-.45.28-.18.37-.39.72-.58,1.08A1.94,1.94,0,0,0,16.5,7Z"/><path d="M18.5,7.56l-.23-.1c-.1,0-.24-.08-.28-.16s.08-.19.1-.29a2.25,2.25,0,0,0,0-.44c0-.45,0-.89,0-1.34a.35.35,0,0,1,.35-.35c.05,0,.11.11.11.16,0,.4,0,.81,0,1.21a.72.72,0,0,0,0,.24,4.28,4.28,0,0,1,1.73-1.77l.29.28a.73.73,0,0,1-.51.51,1.25,1.25,0,0,0-.71.56C19.1,6.56,18.82,7.05,18.5,7.56Z"/><path d="M32.19,7.58a.33.33,0,0,1-.27-.49,1.31,1.31,0,0,1,.44-.4.34.34,0,0,1,.4.53A.83.83,0,0,1,32.19,7.58Z"/><path d="M35.64,7a.77.77,0,0,1-.69.58.33.33,0,0,1-.23-.49,1.21,1.21,0,0,1,.46-.41A.35.35,0,0,1,35.64,7Z"/><path d="M33.63,7.58a.32.32,0,0,1-.31-.48,1.27,1.27,0,0,1,.45-.41c.15-.1.3,0,.41.13a.29.29,0,0,1,0,.39A.82.82,0,0,1,33.63,7.58Z"/></g><g class="cls-3"><path d="M24.13,22.74c-.13,0-.23,0-.32,0h0c0-.76,0-1.5,0-2.24A22.52,22.52,0,0,0,23,15.21a.23.23,0,0,0-.21-.19,5,5,0,0,1-.89-.31.59.59,0,0,1-.37-.45,1.82,1.82,0,0,1-1.77-.72,5.87,5.87,0,0,1-.57-1.15c-.12-.3,0-.55.34-.71.08-.68-.09-1.41.5-1.94a2.36,2.36,0,0,1,2.1-.63,2.58,2.58,0,0,1,.38.18A3.54,3.54,0,0,1,22.75,9c.18-.18.35-.22.54,0a4.44,4.44,0,0,0,1.55.78,1.1,1.1,0,0,1,.62.88,4,4,0,0,1,.05.7c.26.06.31.09.3.39a2.23,2.23,0,0,1-.11.73,6.9,6.9,0,0,1-.49,1.07,2.86,2.86,0,0,1-.45.48c.06.09,0,.19-.11.29a2.56,2.56,0,0,1-1.31.76A21.92,21.92,0,0,1,24.13,22.74Zm-2.94-12a1.34,1.34,0,0,0-.4.77,1.54,1.54,0,0,0,.39,1.72,2.34,2.34,0,0,0,1.15.5c.62.11.72,0,.94-.61a.73.73,0,0,0-.09-.68l-.06,0a1.06,1.06,0,0,1-1.71-.14,1.69,1.69,0,0,1-.26-.52A1.82,1.82,0,0,1,21.19,10.74Zm-1.4.7c.48.14.5.12.69-.3a5.73,5.73,0,0,1,.46-.8.74.74,0,0,1,.64-.33.53.53,0,0,0,.52-.31c.14-.24.1-.31-.17-.34a2.23,2.23,0,0,0-1.65.48,1.17,1.17,0,0,0-.44.73C19.8,10.86,19.81,11.16,19.79,11.44Zm3.74,2.19a2.21,2.21,0,0,0,1-1.78c0-.46-.19-.71-.59-.74a6.29,6.29,0,0,0-.86.05l0,.07a2.59,2.59,0,0,1,.65,1.12A2.54,2.54,0,0,1,23.53,13.63Zm-1.37-1.32-.08-.11c-.38-.47-.31-.88.23-1.15a4.4,4.4,0,0,1,.79-.29c.22-.06.45-.1.72-.15a1.42,1.42,0,0,0-1.49-.41,1.24,1.24,0,0,0-.82,1.11A1.07,1.07,0,0,0,22.16,12.31Zm-1.83-.38a5.43,5.43,0,0,0-.55,0c-.32,0-.46.2-.34.49a4.77,4.77,0,0,0,.41.85,1.6,1.6,0,0,0,1.28.76,1.3,1.3,0,0,0,.33-.07v-.07A1.79,1.79,0,0,1,20.33,13a.75.75,0,0,1-.08-.71A2.49,2.49,0,0,0,20.33,11.93ZM25,11.72a1.3,1.3,0,0,0,.08-1.37.86.86,0,0,0-.36-.39,4,4,0,0,1-1.57-.8.19.19,0,0,0-.18,0,2.32,2.32,0,0,0-.26.3c.44.2.89.35,1.29.58A1.76,1.76,0,0,1,25,11.72Zm-.63,2.4a.68.68,0,0,0-.81,0,.82.82,0,0,1-.89.09c-.14-.06-.3-.09-.44-.14a.37.37,0,0,0-.44.16A1.75,1.75,0,0,0,24.36,14.12Zm-.12-.52c.41.1.57.05.74-.27s.35-.78.51-1.18a1.67,1.67,0,0,0,.07-.41A10.68,10.68,0,0,0,24.24,13.6Zm-1.39-1.73c0-.22,0-.38-.22-.34s-.18.13-.27.2a2.9,2.9,0,0,0,.36.25S22.83,11.89,22.85,11.87Zm1.32-1,.4.21.05,0-.55-.67Z"/><path d="M4.53,13.07c0-.12-.06-.26-.09-.4a.33.33,0,0,1,.27-.45,4.09,4.09,0,0,0,1.54-.75,1,1,0,0,1,.92,0,6,6,0,0,1,.78.42c.09-.17.28-.16.43,0a4.06,4.06,0,0,1,.64.67,4.19,4.19,0,0,1,.46.83,4,4,0,0,1,.17.7c.19,0,.14.26.16.44A2,2,0,0,1,8.38,16.8a1.92,1.92,0,0,1-.48,0L7.83,17,8,16.88a10.17,10.17,0,0,1,2.46,4.76l-.41.09a9.79,9.79,0,0,0-2.34-4.54,6.77,6.77,0,0,1-.88.46A2.6,2.6,0,0,1,5,17.5c-.29-.12-.36-.32-.32-.68-.52-.46-1.19-.77-1.26-1.55a2.32,2.32,0,0,1,.71-2A3,3,0,0,1,4.53,13.07ZM5,15a1.49,1.49,0,0,0,.42.79,1.58,1.58,0,0,0,1.48.65A2.13,2.13,0,0,0,8,15.82c.47-.44.48-.53.11-1.09a.82.82,0,0,0-.6-.37,4,4,0,0,1,0,.62,1.14,1.14,0,0,1-1.38.71A1.89,1.89,0,0,1,5,15Zm-.28,1.45c.37-.22.39-.32.18-.68a4,4,0,0,1-.31-.62.89.89,0,0,1,0-.93.53.53,0,0,0,0-.61c-.11-.24-.17-.26-.36-.07a2.14,2.14,0,0,0-.59,1.54,1.2,1.2,0,0,0,.46,1Zm1.74-2.68a2.74,2.74,0,0,1,1.31.15c.43.17.63.57.91.89a2,2,0,0,0-.49-1.48,2.58,2.58,0,0,0-.65-.49.44.44,0,0,0-.51.06A1.8,1.8,0,0,0,6.41,13.76Zm0-.93a1.34,1.34,0,0,0-1.19.86,1.33,1.33,0,0,0,.44,1.37,1.14,1.14,0,0,0,1.17,0H6.67c-.63.07-1-.27-.82-.9a6.17,6.17,0,0,1,.28-.86C6.2,13.16,6.29,13,6.37,12.83ZM7.62,16.6a3.69,3.69,0,0,1-.49.24,2.15,2.15,0,0,1-.56.12.92.92,0,0,1-1-.39,1.79,1.79,0,0,0-.24-.26,4.21,4.21,0,0,0-.38.51.28.28,0,0,0,.18.45,4.16,4.16,0,0,0,.63.17A1.75,1.75,0,0,0,7.44,17C7.54,16.88,7.68,16.78,7.62,16.6ZM4.84,13,5,12.89a3.81,3.81,0,0,1,1.41-.7,1.66,1.66,0,0,1,1.43.28l.12.07a1.46,1.46,0,0,0-.63-.74,1,1,0,0,0-1.17,0,4.79,4.79,0,0,1-1.1.57c-.41.14-.44,0-.3.55C4.79,13,4.81,13,4.84,13Zm4.68,1.4a.62.62,0,0,0-.45.62.83.83,0,0,1-.48.8,1.24,1.24,0,0,0-.39.29.9.9,0,0,0-.1.36,1.06,1.06,0,0,0,.31,0A1.77,1.77,0,0,0,9.52,14.44Zm-1.2-2.39c.08.39.15.72.22,1,0,0,0,.05,0,.08.13.27.25.55.37.82,0,.08.06.15.09.24.33-.26.38-.43.22-.77s-.3-.57-.47-.84S8.49,12.27,8.32,12.05ZM6.5,14.69l.37-.3c-.1-.08-.19-.19-.3-.21s-.16.16-.2.26S6.44,14.57,6.5,14.69Zm-.2-2.23.5.2.44-.19v-.05Z"/><path d="M33.86,16.54a.58.58,0,0,1-.16.87,2.56,2.56,0,0,1-1.75.71,4.73,4.73,0,0,1-.77-.15,8.81,8.81,0,0,0-.58,4.77h-.45c0-.46-.09-.92-.09-1.38A9.74,9.74,0,0,1,30.75,18c0-.06.1-.11.17-.19l-.09-.09a.83.83,0,0,1-.87.18,2,2,0,0,1-1.73-1.58,1.8,1.8,0,0,0-.06-.22.22.22,0,0,1,.12-.32,1.06,1.06,0,0,1-.16-.91c.07-.38.12-.77.22-1.14a1.68,1.68,0,0,1,.24-.46c.11-.16.26-.22.41-.09a4.53,4.53,0,0,1,.44-.59,1.16,1.16,0,0,1,1.21-.35,3.07,3.07,0,0,0,1.38.1c.37-.07.5.05.55.43,0,.1,0,.2.05.31a1.31,1.31,0,0,1,1.12.45,2.22,2.22,0,0,1,.76,1.36,1.51,1.51,0,0,1-.18.88l-.32.63A1.25,1.25,0,0,1,33.86,16.54Zm-3.51-1.29a3.44,3.44,0,0,0-.27.27,1.08,1.08,0,0,0-.2.8.36.36,0,0,0,.14.27,3.25,3.25,0,0,0,.79.34,1.57,1.57,0,0,0,2.06-1.18,2.74,2.74,0,0,0,.09-.39c0-.14,0-.27,0-.4a.35.35,0,0,0-.1.16,1.6,1.6,0,0,1-1.29,1.08,1,1,0,0,1-1-.51C30.46,15.56,30.42,15.42,30.35,15.25Zm3.37,1,.33-.55a1.21,1.21,0,0,0,.18-.85,2,2,0,0,0-.75-1.19,2.82,2.82,0,0,0-.53-.31c-.05,0-.17,0-.19,0a.57.57,0,0,0,.14.66,1,1,0,0,1,.48,1c0,.27-.06.54-.08.82a.24.24,0,0,0,.06.2A2.42,2.42,0,0,0,33.72,16.21Zm-4.27-.1A2.45,2.45,0,0,1,30,14.94a2.79,2.79,0,0,1,1.15-.62l-.27-.26a2.16,2.16,0,0,0-.29-.21.64.64,0,0,0-1,.24A2.1,2.1,0,0,0,29.45,16.11Zm1.46-2.7c.19.22.41.45.6.7a3.52,3.52,0,0,1,.43.72.54.54,0,0,1-.31.73,2.3,2.3,0,0,1-.35.15,1.14,1.14,0,0,0,1.08-.5,1.32,1.32,0,0,0-.1-1.38A1.35,1.35,0,0,0,30.91,13.41Zm.17,4,0,.05c.07.06.12.16.2.19a2.14,2.14,0,0,0,.59.19,2.25,2.25,0,0,0,1.79-.72.27.27,0,0,0,0-.44A6.89,6.89,0,0,0,33,16.3c-.1.49-.26.86-.71,1A2.11,2.11,0,0,1,31.08,17.4Zm1.26-4.33c0-.14,0-.26-.05-.39s-.08-.16-.18-.13a3.67,3.67,0,0,1-1.65-.12.65.65,0,0,0-.31,0,1.33,1.33,0,0,0-.94,1.32C30,12.54,31.16,12.79,32.34,13.07Zm-3.86,3a2,2,0,0,0,.57,1,1.81,1.81,0,0,0,1.31.46c.23,0,.27-.1.14-.29a.3.3,0,0,0-.15-.12,1.73,1.73,0,0,0-.43-.12.9.9,0,0,1-.82-.63A.54.54,0,0,0,28.48,16.11Zm.26-2.63a1.46,1.46,0,0,0-.14.28c-.08.47-.17.93-.21,1.4,0,.32.11.46.45.54a10.31,10.31,0,0,0,.05-1.11C28.87,14.23,28.79,13.87,28.74,13.48Zm2.46,1.76c.1-.09.22-.14.23-.21a.23.23,0,0,0-.23-.27c-.11,0-.18.18-.27.28Zm-.47-2.15-.81.27,0,.06.41,0Z"/><path d="M13.25,21.63h-.41a9.68,9.68,0,0,1,.84-4.71c-.39-.15-.88-.22-.76-.81-.44-.43-1-.74-1-1.43A2,2,0,0,1,12.63,13,1.45,1.45,0,0,1,13,12.8l-.06-.29c0-.27.06-.44.33-.47a2.46,2.46,0,0,0,1.12-.45,1.14,1.14,0,0,1,1.31,0,2.79,2.79,0,0,1,.34.28c.17-.17.35-.09.5,0a2.64,2.64,0,0,1,.43.52,4.88,4.88,0,0,1,.4.83,2.43,2.43,0,0,1,.1.55,1,1,0,0,1,.12.29,3.76,3.76,0,0,1,0,.82,1.7,1.7,0,0,1-1.24,1.3,2,2,0,0,1-.5,0,1.66,1.66,0,0,1-1.66.7A9.38,9.38,0,0,0,13.25,21.63Zm2.27-7.52v.22a.88.88,0,0,1-.79.88,1.43,1.43,0,0,1-1.3-.49l-.07-.08-.07-.05a1.92,1.92,0,0,0,.59.91,1.19,1.19,0,0,0,.94.34,2,2,0,0,0,1.34-.77.27.27,0,0,0,.05-.15A1,1,0,0,0,15.52,14.11ZM13,15.75c.31-.22.31-.25.14-.59a4,4,0,0,1-.28-.75A.63.63,0,0,1,13,13.8a.48.48,0,0,0-.06-.69,1.73,1.73,0,0,0-.72,1.2C12,15,12.47,15.38,13,15.75Zm3.5-1.28a1.8,1.8,0,0,0-.6-1.54.57.57,0,0,0-1,.1,4.42,4.42,0,0,0-.28.45A1.74,1.74,0,0,1,16.47,14.47Zm-1.75.25c-.59-.07-.8-.33-.64-.92.09-.3.25-.58.37-.87a2,2,0,0,1,.13-.24,1.21,1.21,0,0,0-1,.65,1,1,0,0,0,.2,1.14A.84.84,0,0,0,14.72,14.72Zm-1.14,1a4.89,4.89,0,0,0-.34.4.25.25,0,0,0,.11.4,3.5,3.5,0,0,0,.52.17,1.51,1.51,0,0,0,1.47-.3,2.56,2.56,0,0,0,.2-.26C14.79,16.39,14.11,16.58,13.58,15.7Zm-.35-3a14.42,14.42,0,0,1,1.36-.56A1.56,1.56,0,0,1,16,12.4a1.92,1.92,0,0,0-.44-.53.85.85,0,0,0-1,0,2.37,2.37,0,0,1-1.16.47c-.13,0-.19.08-.15.22S13.22,12.66,13.23,12.7Zm4,1.57a.5.5,0,0,0-.37.46.8.8,0,0,1-.52.75,1.53,1.53,0,0,0-.27.17A.28.28,0,0,0,16,16,1.44,1.44,0,0,0,17.27,14.27ZM16.86,14c.28-.19.35-.33.23-.59s-.34-.67-.52-1a.86.86,0,0,0-.18-.2l-.05,0Zm-1.9.15v-.11c-.1-.08-.18-.24-.34-.12s0,.18-.06.27Zm.29-1.74v0h-.46l.2.16Z"/><path d="M18.13,23.28A10,10,0,0,1,18.85,21c-.39-.16-.88-.23-.76-.82-.44-.42-1-.73-1-1.42A2,2,0,0,1,17.8,17a1.2,1.2,0,0,1,.32-.17c0-.08,0-.19-.05-.29,0-.26.06-.44.33-.47a2.35,2.35,0,0,0,1.12-.45,1.13,1.13,0,0,1,1.29,0,2.93,2.93,0,0,1,.36.28.31.31,0,0,1,.48,0,2.81,2.81,0,0,1,.45.53,5.18,5.18,0,0,1,.4.82,4.05,4.05,0,0,1,.11.6c.17,0,.11.23.12.38A1.77,1.77,0,0,1,22,20a2,2,0,0,1-.56.28,2.51,2.51,0,0,1-.51.05,1.68,1.68,0,0,1-1.65.7,9.07,9.07,0,0,0-.74,2.26Zm.34-4.68a1.83,1.83,0,0,0,.71,1,1.07,1.07,0,0,0,1,.19,3.6,3.6,0,0,0,.86-.47c.37-.27.38-.45.13-.84a.73.73,0,0,0-.53-.38v.23a.86.86,0,0,1-.74.87,1.41,1.41,0,0,1-1.18-.33A4.11,4.11,0,0,1,18.47,18.6Zm-.39-1.47a1.73,1.73,0,0,0-.74,1.28c-.11.67.35,1,.8,1.36.32-.23.31-.25.14-.59a4.85,4.85,0,0,1-.29-.75.66.66,0,0,1,.13-.6C18.3,17.59,18.3,17.42,18.08,17.13Zm3.53,1.39.06,0c0-.1,0-.21,0-.31a1.89,1.89,0,0,0-.75-1.32.48.48,0,0,0-.5-.09,1.34,1.34,0,0,0-.62.74A1.69,1.69,0,0,1,21.61,18.52Zm-1.71.21h-.11a.55.55,0,0,1-.58-.68,2.52,2.52,0,0,1,.2-.66c.09-.22.21-.42.33-.67a1.18,1.18,0,0,0-1,.65,1,1,0,0,0,.19,1.16A.85.85,0,0,0,19.9,18.73Zm-1.15,1a4.35,4.35,0,0,0-.31.35c-.16.22-.11.37.13.47a3.82,3.82,0,0,0,.48.15,1.5,1.5,0,0,0,1.46-.31c.08-.08.13-.18.2-.26C20,20.42,19.27,20.61,18.75,19.73Zm-.34-2.95c.87-.53,1.72-1,2.74-.32a1.12,1.12,0,0,0-.46-.58.92.92,0,0,0-1,0,3.93,3.93,0,0,1-1,.45c-.31.1-.32.06-.24.39Zm4,1.52a.52.52,0,0,0-.39.47.79.79,0,0,1-.51.73,2.68,2.68,0,0,0-.28.18.29.29,0,0,0-.12.35A1.49,1.49,0,0,0,22.45,18.3Zm-.88-2.07-.06,0L22,18c.24-.16.32-.26.26-.46A3.56,3.56,0,0,0,21.57,16.23Zm-1.43,1.88c-.09-.13-.18-.26-.33-.16s-.1.24-.07.26S20,18.21,20.14,18.11Zm0-1.53.27-.13v0H20Z"/><path d="M26.54,6l.74-.64c.33-.28.66-.55,1-.84a.34.34,0,0,1,.5,0l.18.11a19.26,19.26,0,0,0-1,2.52s0,.09,0,.08L27.47,7a.17.17,0,0,1-.11-.24L27.63,6a1.2,1.2,0,0,0,0-.2l-.08,0-.79.86c-.09.1-.13.24-.21.34a.4.4,0,0,1-.5.12c-.19-.09-.15-.25-.12-.4s.09-.53.12-.79c0-.08-.06-.15-.09-.23s-.15.07-.18.13c-.23.43-.45.87-.68,1.29a.81.81,0,0,1-.18.19c-.06-.08-.18-.14-.19-.23a.8.8,0,0,1,0-.46c.35-.61.72-1.21,1.1-1.81a.56.56,0,0,1,.68-.13c.07.05.07.2.06.3C26.62,5.27,26.57,5.63,26.54,6Z"/><path d="M14.36,5.18A.75.75,0,0,0,13.29,5a2.16,2.16,0,0,0-.9.68.65.65,0,0,0,0,.9.75.75,0,0,0,1,.08c.18-.16.33-.36.49-.53l0-.08-.46,0a.52.52,0,0,1-.25,0,.91.91,0,0,1-.19-.2c.06,0,.11-.13.18-.14.35-.08.7-.14,1.06-.2l.26-.07c.32-.09.39-.05.51.31a3.9,3.9,0,0,0-.4.31,2.79,2.79,0,0,0-.37.4,1.55,1.55,0,0,1-1.07.76A1.53,1.53,0,0,1,12,7a.69.69,0,0,1-.27-.73,2.2,2.2,0,0,1,2-1.95.93.93,0,0,1,.81.32c.11.12.14.21,0,.33A1.14,1.14,0,0,0,14.36,5.18Z"/><path d="M6.27,7.25c-.85,0-1.16-.42-.92-1.23A2.27,2.27,0,0,1,7.21,4.39,1,1,0,0,1,8.29,5.8a4.31,4.31,0,0,1-.6,1,1.36,1.36,0,0,1-.88.42A5,5,0,0,1,6.27,7.25Zm.18-.49a1.9,1.9,0,0,0,.36-.09,2.25,2.25,0,0,0,1-1c.17-.39,0-.65-.41-.71A1.46,1.46,0,0,0,5.9,6.14C5.85,6.55,6,6.73,6.45,6.76Z"/><path d="M10.92,7.19A1.75,1.75,0,0,0,10,6.31a.5.5,0,0,0-.58.15c-.12.2-.24.41-.37.61a.31.31,0,0,1-.47.13c-.2-.12-.2-.24,0-.4a2.3,2.3,0,0,0,.33-.44c.21-.38.4-.78.58-1.17,0-.11,0-.26.07-.37a.47.47,0,0,1,.17-.27,2.13,2.13,0,0,1,1.47-.18l.22.08c.45.22.52.54.14.87a12.65,12.65,0,0,1-1.09.79l.27.15a2.5,2.5,0,0,1,.4.31C11.4,6.84,11.32,7.07,10.92,7.19ZM9.82,5.73a2,2,0,0,0,1.48-.84C10.76,4.51,10,5,9.82,5.73Z"/><path d="M21.51,5.33l.65-.1c.08,0,.19-.05.25,0a1.28,1.28,0,0,1,.26.26c-.06,0-.12.13-.19.15-.33.1-.66.21-1,.29a.48.48,0,0,0-.39.33,3.12,3.12,0,0,1-.16.35l.6-.22a4.21,4.21,0,0,1,.61-.16c.23,0,.26.16.32.31s-.06.21-.18.24c-.48.15-1,.28-1.43.44a.67.67,0,0,1-.52-.09.19.19,0,0,1-.1-.27l.93-2.14a.46.46,0,0,1,.37-.29l1.19-.18c.15,0,.28,0,.3.2s0,.29-.25.31-.5.08-.75.09S21.57,5,21.51,5.33Z"/><path d="M30.08,5.33c.27,0,.53-.09.8-.12a.38.38,0,0,1,.21,0c.21.18.18.3-.08.38l-1,.29a.42.42,0,0,0-.34.29,3.8,3.8,0,0,1-.17.38c.27-.1.5-.19.73-.26s.3-.08.44-.12a.22.22,0,0,1,.28.13c.16.25.13.35-.15.44l-1.4.42a.55.55,0,0,1-.51-.11.26.26,0,0,1-.09-.24c.31-.73.62-1.46,1-2.18a.53.53,0,0,1,.33-.25c.4-.08.8-.13,1.21-.19.15,0,.28,0,.28.21s0,.28-.23.3-.46.07-.69.08S30.1,5,30.08,5.33Z"/><path d="M3.81,5.33c.27,0,.53-.09.8-.11a.29.29,0,0,1,.22.06c.21.19.18.28-.08.36S4,5.84,3.67,6a.43.43,0,0,0-.22.18c-.16.3-.3.61-.44.92-.06.13-.14.21-.3.16S2.46,7,2.53,6.87c.31-.74.63-1.47,1-2.2a.54.54,0,0,1,.34-.24c.4-.08.82-.13,1.23-.19.15,0,.24,0,.25.2s0,.28-.21.3-.48.08-.73.09A.51.51,0,0,0,3.81,5.33Z"/><path d="M16.16,6.64l.5,0c0,.36-.13.49-.46.51l-1.36.13L15,6.86a.26.26,0,0,1,.28-.18.38.38,0,0,0,.41-.23c.24-.46.49-.92.76-1.42h-.79c.13-.49.29-.62.78-.62.33,0,.67,0,1,0s.21.15.23.28,0,.29-.15.34a.52.52,0,0,1-.21,0c-.24,0-.35.09-.45.28-.18.37-.39.72-.58,1.08A1.94,1.94,0,0,0,16.16,6.64Z"/><path d="M18.16,7.22l-.23-.1c-.1,0-.24-.08-.28-.16s.08-.19.1-.29a2.25,2.25,0,0,0,0-.44c0-.45,0-.89,0-1.34a.35.35,0,0,1,.35-.35c.05,0,.11.11.11.16,0,.4,0,.81,0,1.21a.72.72,0,0,0,0,.24A4.28,4.28,0,0,1,20,4.38l.29.28a.73.73,0,0,1-.51.51,1.25,1.25,0,0,0-.71.56C18.76,6.22,18.47,6.71,18.16,7.22Z"/><path d="M31.85,7.24a.33.33,0,0,1-.27-.49,1.31,1.31,0,0,1,.44-.4.32.32,0,0,1,.42.13.3.3,0,0,1,0,.39A.81.81,0,0,1,31.85,7.24Z"/><path d="M35.3,6.66a.77.77,0,0,1-.69.58.33.33,0,0,1-.23-.49,1.21,1.21,0,0,1,.46-.41A.35.35,0,0,1,35.3,6.66Z"/><path d="M33.29,7.24A.32.32,0,0,1,33,6.76a1.4,1.4,0,0,1,.45-.42c.15-.09.3,0,.41.14a.29.29,0,0,1,0,.39A.82.82,0,0,1,33.29,7.24Z"/></g><path class="cls-4" d="M24.33,22.94H24s-.05,0,0,0c0-.76,0-1.5,0-2.24a22,22,0,0,0-.81-5.29.23.23,0,0,0-.21-.19,7.22,7.22,0,0,1-.89-.31.59.59,0,0,1-.37-.45,1.8,1.8,0,0,1-1.77-.73,5.06,5.06,0,0,1-.57-1.14c-.13-.3,0-.55.34-.71.08-.68-.09-1.41.5-1.94a2.36,2.36,0,0,1,2.1-.63,1.57,1.57,0,0,1,.37.18c.08-.09.18-.21.29-.32s.35-.22.53,0A4.58,4.58,0,0,0,25,9.91a1.1,1.1,0,0,1,.62.88,5.24,5.24,0,0,1,.05.7c.25.06.3.09.3.39a2.17,2.17,0,0,1-.11.72,7,7,0,0,1-.49,1.08,2.86,2.86,0,0,1-.45.48c.06.09,0,.18-.11.29a2.63,2.63,0,0,1-1.31.76A21.92,21.92,0,0,1,24.33,22.94Zm-2.94-12a1.35,1.35,0,0,0-.4.76,1.56,1.56,0,0,0,.39,1.73,2.24,2.24,0,0,0,1.15.49c.62.12.72,0,.93-.6a.72.72,0,0,0-.08-.68l-.06,0a1.06,1.06,0,0,1-1.71-.14,1.69,1.69,0,0,1-.26-.52A1.74,1.74,0,0,1,21.39,10.94Zm-1.4.7c.48.14.5.12.69-.31a4.79,4.79,0,0,1,.46-.79.73.73,0,0,1,.63-.33.55.55,0,0,0,.53-.31c.13-.24.1-.31-.17-.34a2.22,2.22,0,0,0-1.65.48,1.08,1.08,0,0,0-.44.73A8.46,8.46,0,0,0,20,11.64Zm3.74,2.19a2.24,2.24,0,0,0,1-1.78c0-.46-.19-.71-.59-.74a6.2,6.2,0,0,0-.86,0l0,.07a2.59,2.59,0,0,1,.65,1.12A2.56,2.56,0,0,1,23.73,13.83ZM22.36,12.5l-.09-.1a.67.67,0,0,1,.24-1.15A4.13,4.13,0,0,1,23.3,11a6.3,6.3,0,0,1,.71-.15,1.41,1.41,0,0,0-1.48-.41,1.23,1.23,0,0,0-.82,1.1A1,1,0,0,0,22.36,12.5Zm-1.84-.37a5.32,5.32,0,0,0-.54,0c-.32,0-.46.21-.34.5a5.12,5.12,0,0,0,.41.85,1.59,1.59,0,0,0,1.28.76,1.06,1.06,0,0,0,.33-.08v-.06a1.77,1.77,0,0,1-1.12-.86.72.72,0,0,1-.08-.7A2.62,2.62,0,0,0,20.52,12.13Zm4.66-.21a1.31,1.31,0,0,0,.09-1.37.81.81,0,0,0-.36-.39,4.18,4.18,0,0,1-1.57-.8.19.19,0,0,0-.18,0c-.1.1-.19.22-.27.31a14.14,14.14,0,0,1,1.3.58A1.75,1.75,0,0,1,25.18,11.92Zm-.62,2.4a.68.68,0,0,0-.81,0,.82.82,0,0,1-.89.09,4.43,4.43,0,0,0-.44-.14.37.37,0,0,0-.44.16A1.75,1.75,0,0,0,24.56,14.32Zm-.12-.52c.4.1.57,0,.74-.28s.35-.77.51-1.17a1.67,1.67,0,0,0,.07-.41A10.31,10.31,0,0,0,24.44,13.8Zm-1.39-1.73c0-.22,0-.38-.22-.34s-.18.13-.27.2a2.9,2.9,0,0,0,.36.25S23,12.09,23.05,12.07Zm1.32-1,.4.22.05,0-.56-.68Z"/><path class="cls-4" d="M4.73,13.27a4,4,0,0,1-.09-.4c0-.24,0-.4.26-.45a4.22,4.22,0,0,0,1.55-.75,1,1,0,0,1,.92,0,6,6,0,0,1,.78.42c.09-.17.28-.16.43,0a4.06,4.06,0,0,1,.64.67,4.77,4.77,0,0,1,.46.83,4,4,0,0,1,.17.7c.19,0,.14.26.16.44a2.12,2.12,0,0,1-.38,1.62A2.19,2.19,0,0,1,8.58,17a1.92,1.92,0,0,1-.48,0L8,17.17l.17-.1a10.07,10.07,0,0,1,2.46,4.77l-.4.08a9.88,9.88,0,0,0-2.34-4.54,5.82,5.82,0,0,1-.88.47A2.6,2.6,0,0,1,5.2,17.7c-.29-.12-.36-.33-.32-.68-.52-.46-1.19-.77-1.26-1.56a2.32,2.32,0,0,1,.71-2A1.89,1.89,0,0,1,4.73,13.27Zm.42,1.92a1.42,1.42,0,0,0,.42.79A1.57,1.57,0,0,0,7,16.63,2.11,2.11,0,0,0,8.18,16c.47-.44.48-.52.11-1.08a.82.82,0,0,0-.6-.37,4,4,0,0,1-.05.62,1.15,1.15,0,0,1-1.38.71A1.91,1.91,0,0,1,5.15,15.19Zm-.28,1.45c.37-.22.39-.32.18-.68a4,4,0,0,1-.31-.62.89.89,0,0,1,0-.93.53.53,0,0,0,.06-.61c-.11-.24-.17-.26-.36-.07a2.1,2.1,0,0,0-.59,1.54,1.17,1.17,0,0,0,.46.95C4.51,16.37,4.69,16.5,4.87,16.64ZM6.6,14a2.61,2.61,0,0,1,1.31.15c.44.17.64.57.92.89a2,2,0,0,0-.5-1.49A2.59,2.59,0,0,0,7.69,13a.44.44,0,0,0-.51.07A1.89,1.89,0,0,0,6.6,14Zm0-.93a1.33,1.33,0,0,0-1.19.86,1.32,1.32,0,0,0,.44,1.37,1.14,1.14,0,0,0,1.17,0H6.87c-.63.07-1-.28-.82-.9a5.08,5.08,0,0,1,.28-.86C6.39,13.36,6.49,13.2,6.57,13Zm1.25,3.76a4.55,4.55,0,0,1-.49.25,2.66,2.66,0,0,1-.56.12.93.93,0,0,1-1-.39,1.39,1.39,0,0,0-.24-.26,5.09,5.09,0,0,0-.38.5.29.29,0,0,0,.17.46,4.64,4.64,0,0,0,.64.17,1.77,1.77,0,0,0,1.64-.45C7.74,17.08,7.87,17,7.82,16.79ZM5,13.23l.2-.14a3.47,3.47,0,0,1,1.41-.7,1.67,1.67,0,0,1,1.43.28l.12.07A1.43,1.43,0,0,0,7.55,12a1,1,0,0,0-1.16,0,5.22,5.22,0,0,1-1.1.57c-.41.14-.44,0-.3.54C5,13.16,5,13.18,5,13.23Zm4.69,1.41a.62.62,0,0,0-.45.61.86.86,0,0,1-.48.81,1.39,1.39,0,0,0-.39.28c-.08.09-.07.24-.1.37a1.45,1.45,0,0,0,.3,0A1.77,1.77,0,0,0,9.72,14.64Zm-1.2-2.39c.08.39.15.72.21,1,0,0,0,.05,0,.08l.37.82a1.55,1.55,0,0,1,.08.23c.33-.25.39-.42.22-.76A7.9,7.9,0,0,0,9,12.81C8.85,12.63,8.69,12.46,8.52,12.25ZM6.7,14.89l.37-.3c-.1-.08-.19-.19-.3-.21s-.16.16-.2.26S6.63,14.77,6.7,14.89Zm-.2-2.23.5.2.44-.19v-.06Z"/><path class="cls-4" d="M34.06,16.74a.58.58,0,0,1-.17.87,2.57,2.57,0,0,1-1.74.71,6.12,6.12,0,0,1-.77-.15,8.77,8.77,0,0,0-.58,4.76h-.45c0-.46-.09-.92-.09-1.38a10,10,0,0,1,.68-3.4c0-.07.11-.11.18-.19L31,17.87c-.25.29-.57.22-.87.18a2,2,0,0,1-1.73-1.58,1.8,1.8,0,0,0-.06-.22.21.21,0,0,1,.11-.32,1.09,1.09,0,0,1-.15-.91c.06-.38.12-.77.21-1.14a1.38,1.38,0,0,1,.25-.46c.11-.16.26-.22.41-.09a4.64,4.64,0,0,1,.44-.6,1.2,1.2,0,0,1,1.21-.35,3.07,3.07,0,0,0,1.38.11c.37-.07.5,0,.55.42,0,.11,0,.21,0,.31a1.3,1.3,0,0,1,1.12.46A2.2,2.2,0,0,1,34.7,15a1.46,1.46,0,0,1-.17.87l-.32.64C34.17,16.62,34.11,16.67,34.06,16.74Zm-3.51-1.29a1.72,1.72,0,0,0-.27.27,1.08,1.08,0,0,0-.2.8.36.36,0,0,0,.14.27,3.25,3.25,0,0,0,.79.34,1.56,1.56,0,0,0,2.05-1.19,2.22,2.22,0,0,0,.1-.39c0-.13,0-.26,0-.4a.38.38,0,0,0-.1.17,1.6,1.6,0,0,1-1.29,1.08,1,1,0,0,1-1.05-.51C30.66,15.76,30.62,15.62,30.55,15.45Zm3.37,1,.32-.55a1.17,1.17,0,0,0,.18-.85,2.14,2.14,0,0,0-.74-1.2,3.44,3.44,0,0,0-.53-.3.23.23,0,0,0-.2,0,.55.55,0,0,0,.15.65,1,1,0,0,1,.48,1c0,.27-.06.54-.08.82a.24.24,0,0,0,.06.2C33.67,16.3,33.8,16.35,33.92,16.41Zm-4.27-.1a2.41,2.41,0,0,1,.53-1.17,2.79,2.79,0,0,1,1.15-.62c-.11-.1-.18-.19-.27-.26a3.06,3.06,0,0,0-.29-.21.64.64,0,0,0-1,.23A2.12,2.12,0,0,0,29.65,16.31Zm1.46-2.7c.19.22.41.45.59.7a3.33,3.33,0,0,1,.44.71.55.55,0,0,1-.31.74c-.11.06-.22.09-.36.15a1.15,1.15,0,0,0,1.09-.5,1.34,1.34,0,0,0-.1-1.38A1.36,1.36,0,0,0,31.11,13.61Zm.17,4-.05,0c.07.06.12.15.19.19A2.78,2.78,0,0,0,32,18a2.25,2.25,0,0,0,1.79-.72.27.27,0,0,0,0-.44,5.38,5.38,0,0,0-.58-.37c-.1.49-.26.86-.71,1A2.11,2.11,0,0,1,31.28,17.6Zm1.26-4.33c0-.14,0-.27,0-.39s-.08-.16-.19-.14a3.5,3.5,0,0,1-1.64-.11.54.54,0,0,0-.31,0A1.33,1.33,0,0,0,29.41,14C30.23,12.74,31.36,13,32.54,13.27Zm-3.86,3a2,2,0,0,0,.57,1,1.84,1.84,0,0,0,1.3.46c.24,0,.28-.1.15-.29a.35.35,0,0,0-.16-.13,1.53,1.53,0,0,0-.42-.11.9.9,0,0,1-.82-.63A.55.55,0,0,0,28.68,16.31Zm.25-2.63a2.28,2.28,0,0,0-.13.28c-.08.47-.17.93-.21,1.39s.11.47.45.55a10.31,10.31,0,0,0,.05-1.11C29.07,14.43,29,14.07,28.93,13.68Zm2.47,1.76c.1-.09.22-.15.23-.22A.22.22,0,0,0,31.4,15c-.11,0-.19.18-.27.28Zm-.47-2.15-.81.27,0,.06.41,0Z"/><path class="cls-4" d="M13.45,21.83H13a9.81,9.81,0,0,1,.85-4.71c-.4-.15-.88-.23-.76-.81-.44-.43-1-.74-1-1.43a2.05,2.05,0,0,1,.75-1.72,1.91,1.91,0,0,1,.32-.17c0-.08,0-.18-.05-.28,0-.27.06-.44.33-.47a2.46,2.46,0,0,0,1.12-.45,1.13,1.13,0,0,1,1.31,0,2.79,2.79,0,0,1,.34.28c.17-.17.35-.1.5.05a2.43,2.43,0,0,1,.43.52,4.88,4.88,0,0,1,.4.83,2.43,2.43,0,0,1,.1.55.79.79,0,0,1,.11.29,3.64,3.64,0,0,1,0,.81,1.69,1.69,0,0,1-1.24,1.31,2,2,0,0,1-.5,0,1.69,1.69,0,0,1-1.66.7A9.38,9.38,0,0,0,13.45,21.83Zm2.26-7.52a1.61,1.61,0,0,1,0,.22.86.86,0,0,1-.78.88,1.47,1.47,0,0,1-1.31-.49.27.27,0,0,0-.07-.08l-.06-.06a2,2,0,0,0,.59.92A1.19,1.19,0,0,0,15,16a2,2,0,0,0,1.34-.77.27.27,0,0,0,.05-.15A1,1,0,0,0,15.71,14.31Zm-2.54,1.63c.31-.21.31-.24.14-.58a4,4,0,0,1-.28-.75.62.62,0,0,1,.13-.61.48.48,0,0,0-.06-.69,1.68,1.68,0,0,0-.72,1.2C12.24,15.2,12.67,15.58,13.17,15.94Zm3.5-1.27a1.83,1.83,0,0,0-.6-1.55.58.58,0,0,0-1,.11,4.42,4.42,0,0,0-.28.45A1.74,1.74,0,0,1,16.67,14.67Zm-1.75.25c-.6-.07-.8-.34-.64-.92a6,6,0,0,1,.37-.87,2,2,0,0,1,.13-.24,1.2,1.2,0,0,0-1,.65A1.06,1.06,0,0,0,14,14.68.88.88,0,0,0,14.92,14.92Zm-1.14,1a3.47,3.47,0,0,0-.34.4.25.25,0,0,0,.11.4,3.16,3.16,0,0,0,.52.17,1.49,1.49,0,0,0,1.46-.3c.08-.08.14-.18.21-.26C15,16.59,14.3,16.78,13.78,15.9Zm-.35-3a12.17,12.17,0,0,1,1.36-.56,1.53,1.53,0,0,1,1.39.26,1.79,1.79,0,0,0-.45-.53.84.84,0,0,0-1-.05,2.57,2.57,0,0,1-1.16.47c-.13,0-.19.08-.16.21Zm4,1.57a.52.52,0,0,0-.38.46.78.78,0,0,1-.52.75,1.45,1.45,0,0,0-.26.17.3.3,0,0,0-.14.34A1.44,1.44,0,0,0,17.47,14.47Zm-.41-.27c.28-.18.34-.32.23-.58s-.34-.68-.52-1a1.18,1.18,0,0,0-.18-.21l-.05,0Zm-1.9.15v-.1c-.1-.08-.18-.24-.34-.12s-.05.18-.06.27Zm.28-1.73v0H15l.2.16Z"/><path class="cls-4" d="M18.33,23.48a9.53,9.53,0,0,1,.72-2.33c-.39-.16-.89-.23-.76-.82-.44-.42-1-.73-1-1.42A2.08,2.08,0,0,1,18,17.18a2,2,0,0,1,.33-.16c0-.09,0-.19-.05-.29,0-.27.06-.44.33-.47a2.35,2.35,0,0,0,1.12-.45,1.11,1.11,0,0,1,1.29,0,2.93,2.93,0,0,1,.36.28.31.31,0,0,1,.48,0,2.81,2.81,0,0,1,.45.53,5.12,5.12,0,0,1,.39.82,3,3,0,0,1,.12.6c.16,0,.11.23.12.38a1.78,1.78,0,0,1-.72,1.71,2.44,2.44,0,0,1-.56.28,2.51,2.51,0,0,1-.51.05,1.68,1.68,0,0,1-1.65.7,8.94,8.94,0,0,0-.74,2.26Zm.33-4.68a1.89,1.89,0,0,0,.72,1,1.09,1.09,0,0,0,1,.19,3.6,3.6,0,0,0,.86-.47c.37-.27.38-.45.13-.84a.73.73,0,0,0-.53-.38v.23a.84.84,0,0,1-.74.86A1.37,1.37,0,0,1,19,19.1C18.85,19,18.76,18.9,18.66,18.8Zm-.38-1.48a1.77,1.77,0,0,0-.74,1.29c-.11.67.34,1,.8,1.36.31-.23.31-.25.13-.6a4.7,4.7,0,0,1-.28-.74.66.66,0,0,1,.12-.6C18.5,17.79,18.5,17.62,18.28,17.32Zm3.53,1.39.06,0c0-.11,0-.21,0-.31a1.89,1.89,0,0,0-.75-1.32.48.48,0,0,0-.5-.09,1.34,1.34,0,0,0-.62.74A1.69,1.69,0,0,1,21.81,18.71Zm-1.72.22H20c-.42,0-.64-.26-.58-.68a2.52,2.52,0,0,1,.2-.66c.09-.22.21-.43.33-.67a1.22,1.22,0,0,0-1,.64,1,1,0,0,0,.2,1.16A.85.85,0,0,0,20.09,18.93Zm-1.14,1c-.12.13-.23.23-.32.35s-.1.37.14.46a2.46,2.46,0,0,0,.48.16,1.51,1.51,0,0,0,1.46-.32,2.43,2.43,0,0,0,.2-.25C20.16,20.61,19.47,20.81,19,19.93ZM18.61,17c.87-.53,1.72-1,2.74-.32a1.18,1.18,0,0,0-.46-.58.92.92,0,0,0-1,0,4.47,4.47,0,0,1-1,.45c-.31.1-.33.06-.25.38Zm4,1.52a.5.5,0,0,0-.39.47.79.79,0,0,1-.51.73,1.67,1.67,0,0,0-.28.18.29.29,0,0,0-.12.35A1.49,1.49,0,0,0,22.65,18.5Zm-.88-2.07-.06,0,.52,1.77c.24-.16.32-.26.26-.46A3.56,3.56,0,0,0,21.77,16.43Zm-1.43,1.88c-.09-.13-.18-.26-.34-.16a.29.29,0,0,0-.06.26C20.09,18.53,20.21,18.41,20.34,18.31Zm0-1.53.27-.14v0h-.46Z"/><path class="cls-4" d="M26.73,6.16l.75-.64,1-.84a.34.34,0,0,1,.5,0l.18.11a19.31,19.31,0,0,0-1,2.52l0,.08a3.88,3.88,0,0,1-.45-.14A.17.17,0,0,1,27.55,7c.1-.27.19-.55.28-.82a1.2,1.2,0,0,0,0-.2l-.09,0c-.26.29-.53.57-.78.86a3.87,3.87,0,0,0-.21.34.4.4,0,0,1-.5.12c-.19-.09-.15-.25-.13-.4s.1-.53.13-.79c0-.08-.06-.16-.09-.23S26,5.89,26,6l-.68,1.29a1.07,1.07,0,0,1-.18.19c-.07-.08-.18-.15-.19-.23A.79.79,0,0,1,25,6.74c.35-.61.72-1.21,1.1-1.81a.54.54,0,0,1,.68-.13c.06,0,.07.2.06.3C26.82,5.47,26.77,5.83,26.73,6.16Z"/><path class="cls-4" d="M14.56,5.38a.76.76,0,0,0-1.07-.23,2.27,2.27,0,0,0-.9.69.65.65,0,0,0,0,.9.74.74,0,0,0,1,.07,5,5,0,0,0,.49-.53L14,6.21l-.46,0a.52.52,0,0,1-.25,0,.73.73,0,0,1-.19-.2c.06,0,.11-.13.18-.15l1.05-.19.27-.07c.32-.09.39,0,.51.3-.13.1-.28.2-.41.32a3.42,3.42,0,0,0-.36.4,1.58,1.58,0,0,1-1.07.76,1.53,1.53,0,0,1-1.08-.26.7.7,0,0,1-.27-.73,2.18,2.18,0,0,1,2-1.95.94.94,0,0,1,.82.32c.11.12.14.21,0,.33A1.14,1.14,0,0,0,14.56,5.38Z"/><path class="cls-4" d="M6.47,7.45c-.85,0-1.16-.42-.92-1.23A2.27,2.27,0,0,1,7.41,4.59,1,1,0,0,1,8.49,6a4.81,4.81,0,0,1-.6,1A1.43,1.43,0,0,1,7,7.38,5,5,0,0,1,6.47,7.45ZM6.65,7A2.11,2.11,0,0,0,7,6.87a2.23,2.23,0,0,0,1-1c.18-.39,0-.65-.4-.72A1.47,1.47,0,0,0,6.1,6.34C6.05,6.74,6.22,6.93,6.65,7Z"/><path class="cls-4" d="M11.12,7.39a1.75,1.75,0,0,0-.88-.88.5.5,0,0,0-.58.15c-.12.2-.24.41-.37.61s-.31.24-.48.13-.19-.24,0-.41a2.34,2.34,0,0,0,.33-.43c.21-.39.4-.78.58-1.17.05-.11,0-.26.07-.37a.46.46,0,0,1,.16-.27,2.11,2.11,0,0,1,1.48-.18.83.83,0,0,1,.22.08c.45.21.52.54.14.87s-.72.53-1.09.79l.27.15a2.5,2.5,0,0,1,.4.31C11.59,7,11.52,7.27,11.12,7.39ZM10,5.93a2,2,0,0,0,1.49-.84C11,4.71,10.17,5.15,10,5.93Z"/><path class="cls-4" d="M21.71,5.53l.65-.1c.08,0,.19,0,.25,0a1.6,1.6,0,0,1,.26.26.9.9,0,0,1-.19.15c-.33.1-.66.21-1,.29a.46.46,0,0,0-.39.33c0,.1-.09.2-.16.35l.6-.22a4.21,4.21,0,0,1,.61-.16c.23,0,.26.15.32.31s-.07.21-.18.24c-.48.15-1,.28-1.43.44a.63.63,0,0,1-.52-.1.18.18,0,0,1-.1-.26l.93-2.15a.45.45,0,0,1,.37-.28l1.19-.18c.15,0,.28,0,.29.19s0,.3-.24.32-.5.08-.75.08S21.77,5.23,21.71,5.53Z"/><path class="cls-4" d="M30.28,5.53l.79-.12a.4.4,0,0,1,.22,0c.21.18.18.3-.08.38s-.66.2-1,.28a.45.45,0,0,0-.34.3,3.8,3.8,0,0,1-.17.38c.27-.1.5-.19.73-.26s.29-.08.44-.12a.22.22,0,0,1,.28.12c.16.26.13.35-.15.45-.47.14-.94.27-1.4.42a.55.55,0,0,1-.51-.11A.26.26,0,0,1,29,7.06c.31-.73.62-1.46.95-2.18a.58.58,0,0,1,.34-.25c.4-.08.8-.13,1.21-.19.15,0,.27,0,.28.2s0,.29-.23.31-.46.06-.69.08S30.3,5.15,30.28,5.53Z"/><path class="cls-4" d="M4,5.53c.27,0,.53-.09.8-.12A.4.4,0,0,1,5,5.47c.21.2.18.29-.09.37s-.71.2-1.07.32a.43.43,0,0,0-.22.18c-.16.3-.3.61-.44.92-.06.12-.15.21-.3.15s-.26-.17-.18-.34c.31-.74.63-1.48,1-2.2A.5.5,0,0,1,4,4.63c.4-.09.82-.13,1.23-.19.15,0,.24,0,.25.2s0,.28-.21.3S4.82,5,4.58,5A.51.51,0,0,0,4,5.53Z"/><path class="cls-4" d="M16.35,6.84l.51,0c0,.36-.14.48-.47.51L15,7.44c.05-.14.09-.26.14-.38a.26.26,0,0,1,.28-.18.36.36,0,0,0,.4-.23l.77-1.42h-.79c.13-.5.29-.62.77-.63s.68,0,1,0,.21.14.23.28,0,.29-.16.34a.68.68,0,0,1-.2,0,.4.4,0,0,0-.45.28c-.18.37-.39.72-.58,1.08C16.42,6.67,16.4,6.74,16.35,6.84Z"/><path class="cls-4" d="M18.36,7.42l-.23-.11c-.1,0-.24-.07-.29-.15s.09-.19.11-.29a2.28,2.28,0,0,0,0-.45l0-1.33a.34.34,0,0,1,.35-.35.22.22,0,0,1,.11.16c0,.4,0,.81,0,1.21a.72.72,0,0,0,0,.24A4.18,4.18,0,0,1,20.2,4.57l.29.29a.77.77,0,0,1-.51.51,1.18,1.18,0,0,0-.71.56C19,6.41,18.67,6.91,18.36,7.42Z"/><path class="cls-4" d="M32.05,7.44A.32.32,0,0,1,31.78,7a1.21,1.21,0,0,1,.44-.4.31.31,0,0,1,.42.13.3.3,0,0,1,0,.39A.81.81,0,0,1,32.05,7.44Z"/><path class="cls-4" d="M35.5,6.86a.77.77,0,0,1-.69.57A.32.32,0,0,1,34.57,7,1.32,1.32,0,0,1,35,6.54.35.35,0,0,1,35.5,6.86Z"/><path class="cls-4" d="M33.48,7.44A.33.33,0,0,1,33.17,7a1.54,1.54,0,0,1,.46-.42c.15-.09.3,0,.41.14a.3.3,0,0,1,0,.39A.82.82,0,0,1,33.48,7.44Z"/></g></g></svg>