<svg xmlns="http://www.w3.org/2000/svg" viewBox="0 0 38.55 24.66"><defs><style>.cls-1{isolation:isolate;}.cls-2{opacity:0.15;}.cls-2,.cls-3{mix-blend-mode:multiply;}.cls-4{fill:#fff;}</style></defs><title>convert-FIX-SVG-03</title><g class="cls-1"><g id="Layer_1" data-name="Layer 1"><g class="cls-2"><path d="M11,17.31H9.45c.06.25.12.48.18.71a12.94,12.94,0,0,1,.46,1.91,2.16,2.16,0,0,1-1.91,2.42,2.85,2.85,0,0,1-.87.07A1.34,1.34,0,0,1,6.1,21.14a5,5,0,0,1,.21-2.21,5.85,5.85,0,0,0,.2-1.33c0-.72,0-1.45.1-2.17A3.12,3.12,0,0,1,7,14.11c.13-.22.1-.37-.13-.47a1.72,1.72,0,0,1-.75-1.78,3.87,3.87,0,0,1,1-1.9l.16-.19a6.42,6.42,0,0,1-.51-.54A3.11,3.11,0,0,1,6.14,7.4c0-.37,0-.73,0-1.1A.4.4,0,0,0,6.1,6a2.44,2.44,0,0,1-.56-1.23,1.3,1.3,0,0,1,.55-1.24,2.37,2.37,0,0,1,1.65-.48,1.53,1.53,0,0,1,.92.48.36.36,0,0,0,.23.06,4.28,4.28,0,0,1,2.6.12.26.26,0,0,0,.33-.07,1.25,1.25,0,0,1,1.36-.32,5.6,5.6,0,0,1,1.15.57,1.12,1.12,0,0,1,.44,1.2,2.17,2.17,0,0,1-.43,1.09.54.54,0,0,0-.1.39,4.19,4.19,0,0,1-.4,2.18,11.07,11.07,0,0,1-.65,1c.11.13.25.29.38.47A3.61,3.61,0,0,1,14.33,12a1.67,1.67,0,0,1-.92,1.71c-.15.07-.17.15-.08.27a3.07,3.07,0,0,1,.55,1.65c.06.75,0,1.51.1,2.26a7.2,7.2,0,0,0,.24,1.21,4.57,4.57,0,0,1,.08,2.32,1.32,1.32,0,0,1-1.59,1,4.45,4.45,0,0,1-1.1-.29,2,2,0,0,1-1.23-1.75,5.49,5.49,0,0,1,.44-2.33C10.9,17.81,11,17.57,11,17.31Zm1-10h0l.06.17a1.77,1.77,0,0,1,.18,1,1.88,1.88,0,0,1-1.57,1.66l-.44.07v.07c.4,0,.81,0,1.21-.06a2.69,2.69,0,0,0,2.3-1.72A4.32,4.32,0,0,0,14,6.62a1.06,1.06,0,0,0-.15-.35c-.07-.15-.15-.29-.23-.44a1.2,1.2,0,0,0-.13-.28,3.93,3.93,0,0,0-1.2-1,5.75,5.75,0,0,0-.75-.5,3.26,3.26,0,0,0-3,.1,5.81,5.81,0,0,0-.83.52,8,8,0,0,0-.8.93c-.12.14-.24.28-.35.43a.51.51,0,0,0-.07.17c0,.36-.07.72-.07,1.08a2.75,2.75,0,0,0,2.22,2.83,4.17,4.17,0,0,0,1.41.12.35.35,0,0,0-.13-.05,6.64,6.64,0,0,1-1-.33A1.64,1.64,0,0,1,8,8.36a2.53,2.53,0,0,1,.21-1h0a2,2,0,0,1,1.11-.78,3.13,3.13,0,0,1,1.58,0A2.08,2.08,0,0,1,12,7.27Zm-.76,5.78a4.7,4.7,0,0,0,.3-.41,1.79,1.79,0,0,0,.19-.45.81.81,0,0,0-.86-1h-.21l.45-.68H9.26a1,1,0,0,1,.53.73.93.93,0,0,0-1.11.35l.11-.71.39-.08v-.08a4.24,4.24,0,0,0-.61-.17,2.34,2.34,0,0,0-1.67.58l-.2-.18a6.69,6.69,0,0,0-.3,1,1.4,1.4,0,0,0,1.15,1.73c.32.06.38,0,.5-.28l.53-1.46a1.92,1.92,0,0,0,.61,1.25,2.1,2.1,0,0,1-1.84.71,3.53,3.53,0,0,0,.78,2.53,1.82,1.82,0,0,0,.92.57,4.76,4.76,0,0,0,.52.1,3.55,3.55,0,0,0,2-.2,2.06,2.06,0,0,0,.86-.74A3.79,3.79,0,0,0,13,13.87,2.19,2.19,0,0,1,11.22,13.05Zm2.1,1.39c-.15.47-.29,1-.44,1.42a.31.31,0,0,0,0,.08,2.56,2.56,0,0,1,0,.39c-.06.65-.17,1.29-.17,1.94,0,.82.09,1.63.13,2.45,0,.34,0,.69,0,1l-.1,0c0-.07-.13-.14-.13-.21,0-.49,0-1-.07-1.48a12.4,12.4,0,0,1,0-2.79c0-.31.06-.63.09-.94a2.9,2.9,0,0,1-1.27.83.15.15,0,0,0-.09.1c-.13.45-.26.9-.38,1.35a4.74,4.74,0,0,0-.25,1.67A1.82,1.82,0,0,0,11.7,21.9a4.48,4.48,0,0,0,.93.27,1.12,1.12,0,0,0,1.45-.91A3.76,3.76,0,0,0,14,19.21a5.81,5.81,0,0,1-.26-1.43c0-.71,0-1.43-.08-2.15A3.37,3.37,0,0,0,13.32,14.44Zm-5.44,2c0,.06,0,.08,0,.1l0,.27A13,13,0,0,1,8,19.31c-.07.75-.08,1.51-.11,2.26,0,.17-.11.16-.27.2,0-.27,0-.51,0-.76.05-.68.14-1.36.14-2a9.9,9.9,0,0,0-.44-3.63,6,6,0,0,1-.18-.76s0,0,0,.05a2.25,2.25,0,0,0-.08.24A7.08,7.08,0,0,0,6.77,17,6,6,0,0,1,6.55,19a4.21,4.21,0,0,0-.19,2.11,1.1,1.1,0,0,0,1.31,1,4,4,0,0,0,.89-.2,1.78,1.78,0,0,0,1.26-1.57,5.16,5.16,0,0,0-.37-2.19c-.09-.27-.14-.55-.23-.83a.26.26,0,0,0-.13-.17A2.54,2.54,0,0,1,7.88,16.45Zm2.29-9.79-.58.07a1.41,1.41,0,0,0-1.28,1,1.52,1.52,0,0,0,.37,1.66,2.11,2.11,0,0,0,2.59.22A1.53,1.53,0,0,0,12,8.08,1.37,1.37,0,0,0,10.87,6.8C10.62,6.73,10.36,6.7,10.17,6.66Zm1.52,4.19a1.76,1.76,0,0,0,0,.33c.23.72.45,1.44.69,2.16.1.31.17.34.49.28a1.31,1.31,0,0,0,1.1-.93A2.15,2.15,0,0,0,13.72,11l-.16.14a2,2,0,0,0-2.28-.32ZM7.82,4.28l.72-.46a1.27,1.27,0,0,0-1-.5,2.41,2.41,0,0,0-1.14.34A1.17,1.17,0,0,0,5.8,4.88a2.08,2.08,0,0,0,.5,1l.22-.17c-.42-.58-.45-.93-.1-1.3A1,1,0,0,1,7.82,4.28Zm4.78.17.16-.13a.9.9,0,0,1,1.18.22A.78.78,0,0,1,14,5.63c-.17.21-.15.31.1.51a2.16,2.16,0,0,0,.43-1.38.88.88,0,0,0-.33-.64A2.85,2.85,0,0,0,13,3.57,1,1,0,0,0,11.9,4ZM7.48,9.9l-.67.89,1.35-.57Zm4.84.32,1.35.58L13,9.88Z"/><path d="M23.07,14.07c.71,0,1.42,0,2.13.08A.87.87,0,0,1,26,15.24a1,1,0,0,1-.76.72l-.14,0a.08.08,0,0,1,0,0c.48.12.7.53.95.9.13.19.26.37.4.55a.63.63,0,0,0,.73.17.27.27,0,0,0,.22-.29c0-.93,0-1.85,0-2.78,0-.21-.12-.29-.39-.32a.76.76,0,0,1-.18-.09l0-.08h1.39a6.66,6.66,0,0,1,.78.05.94.94,0,0,1,.82.89,1,1,0,0,1-.78.93l-.22.05a1.53,1.53,0,0,1,.93.8l.33.49a.83.83,0,0,0,.53.4s.06.08.13.17h-.83a.25.25,0,0,1-.17-.1c-.16-.22-.32-.44-.47-.67s-.26-.39-.37-.59a.78.78,0,0,0-.93-.4c0,.44,0,.89,0,1.34,0,.21.23.22.4.25s.13,0,.14.18H26.23a.44.44,0,0,1-.3-.14,5.39,5.39,0,0,1-.43-.6c-.14-.21-.27-.42-.4-.64a.77.77,0,0,0-.92-.38c0,.44,0,.88,0,1.32,0,.23.22.25.4.27s.18,0,.13.17H23.06l0-.06c.05,0,.09-.09.14-.1.38-.06.44-.12.44-.49V14.73c0-.36-.07-.43-.42-.47a.39.39,0,0,1-.16-.1Zm1.09.2c0,.51,0,1,0,1.5,0,0,.09.12.14.12a2.79,2.79,0,0,0,.5,0,.63.63,0,0,0,.61-.61,1.93,1.93,0,0,0,0-.34.65.65,0,0,0-.59-.66C24.61,14.25,24.4,14.27,24.16,14.27Zm3.81,0c0,.54,0,1,0,1.55,0,0,.09.1.13.1a3.58,3.58,0,0,0,.57,0,.5.5,0,0,0,.48-.39,2.34,2.34,0,0,0,0-.7.53.53,0,0,0-.46-.47A6,6,0,0,0,28,14.24Z"/><path d="M20.65,14a2,2,0,1,1,0,3.95,2,2,0,1,1,0-3.95Zm-1.36,1.68A3.27,3.27,0,0,0,19.5,17a1.18,1.18,0,0,0,1.16.73A1.15,1.15,0,0,0,21.81,17a2.73,2.73,0,0,0,0-2.08,1.14,1.14,0,0,0-1.14-.78,1.17,1.17,0,0,0-1.19.77A5.31,5.31,0,0,0,19.29,15.68Z"/><path d="M18.77,8.83a5.8,5.8,0,0,0,.61-.13c.16,0,.24,0,.26.15a.24.24,0,0,0,0,.07,4.55,4.55,0,0,1,.78-.28.66.66,0,0,1,.73.34l.17-.11a2.72,2.72,0,0,1,.5-.22.68.68,0,0,1,.93.67c0,.35,0,.69,0,1s0,.46.32.52c0,0,0,.09.08.17H21.89c.06-.09.08-.17.13-.18a.35.35,0,0,0,.28-.37,10.84,10.84,0,0,0,0-1.14c0-.38-.22-.5-.61-.44a.47.47,0,0,0-.46.53v1a.36.36,0,0,0,.27.4c.05,0,.08.08.16.16H20.31c.08-.09.11-.17.16-.18a.34.34,0,0,0,.27-.37c0-.38,0-.75,0-1.13s-.24-.5-.59-.45-.5.22-.5.57v1c0,.21.06.37.29.42,0,0,.08.08.15.16H18.76c.06-.07.09-.15.14-.16a.35.35,0,0,0,.28-.39c0-.37,0-.73,0-1.1A.38.38,0,0,0,18.9,9S18.82,8.9,18.77,8.83Z"/><path d="M17.68,14.25l.23-.22,0,0v1a1.8,1.8,0,0,1-.17-.14,2.73,2.73,0,0,0-.33-.58.74.74,0,0,0-.82-.2.52.52,0,0,0-.23.89,2,2,0,0,0,.5.35c.22.13.47.23.69.36A1.17,1.17,0,0,1,18,17.52a1.19,1.19,0,0,1-1.45.33,4.53,4.53,0,0,1-.48-.27c-.13.05,0,.33-.31.27V16.7l.07,0a.61.61,0,0,1,.12.16,1.18,1.18,0,0,0,.91.9.76.76,0,0,0,1-.74.72.72,0,0,0-.38-.58c-.3-.18-.61-.32-.91-.49a1.16,1.16,0,0,1-.66-.71,1,1,0,0,1,.8-1.19A1.38,1.38,0,0,1,17.68,14.25Z"/><path d="M33.28,17.86H31.66l0-.05s.08-.1.13-.11c.39-.08.41-.14.45-.53a2.38,2.38,0,0,0-.53-1.82,6.13,6.13,0,0,1-.48-.73.69.69,0,0,0-.51-.36c-.05,0-.08-.07-.12-.11l0-.05h1.56c0,.14,0,.14-.11.16-.3,0-.34.1-.2.35.25.45.52.89.79,1.35l.86-1.43c.07-.11,0-.2-.1-.23l-.19,0L33,14.17a.64.64,0,0,1,.19-.08,9.4,9.4,0,0,1,1.16.05s-.08.11-.12.12a.79.79,0,0,0-.59.41c-.27.46-.56.92-.84,1.39a0,0,0,0,0,0,0c0,.48,0,1,0,1.44,0,.07.24.12.37.18l.14.11Z"/><path d="M15.6,7.28h1.73c-.08.08-.11.15-.16.16-.42.07-.46.1-.46.53v2.39c0,.4.06.45.45.52.05,0,.09.07.14.11l0,0c-.52,0-1.05,0-1.57,0,0,0-.08-.07-.13-.1l0-.06h.1c.36,0,.45-.11.45-.47V7.9c0-.35-.07-.41-.43-.46-.06,0-.1-.07-.15-.1Z"/><path d="M17.68,8.68l.17-.15a.74.74,0,0,0,.28-.59c0-.11,0-.17-.16-.16a.27.27,0,0,1-.33-.23c0-.1,0-.27.12-.3a.51.51,0,0,1,.4,0,.62.62,0,0,1,.23.31A.9.9,0,0,1,17.68,8.68Z"/><path d="M8.18,7.31c-.15.08-.3.16-.46,0a.48.48,0,0,1-.06-.55.39.39,0,0,1,.27-.19.4.4,0,0,1,.27.18.59.59,0,0,1,0,.56Z"/><path d="M12,7.27a2.08,2.08,0,0,1,0-.43c0-.15.13-.3.3-.26a.44.44,0,0,1,.29.24.56.56,0,0,1,0,.4c-.1.23-.29.24-.54,0Z"/><path d="M10.19,12.28c0-.14.07-.27.1-.4a.63.63,0,0,1,.79-.45.54.54,0,0,1,.35.73,1.81,1.81,0,0,1-.38.64,6.09,6.09,0,0,1-.77.66.19.19,0,0,1-.19,0c-.34-.3-.69-.6-1-.93a1,1,0,0,1-.2-.46.53.53,0,0,1,.37-.66.64.64,0,0,1,.77.39c.05.15.09.31.13.46Z"/><path d="M9.6,9.77l-.73-.49L9.09,9a2.4,2.4,0,0,1,.31.21c.14.14.24,0,.36,0s.11-.2.1-.32-.08-.09-.13-.13l-.6-.48a.58.58,0,0,1,.65-.4,2.09,2.09,0,0,0,.66,0c.33-.05.47.13.58.41-.19.15-.39.32-.59.46a.25.25,0,0,0-.12.34.71.71,0,0,0,.28.23s.11-.05.16-.08L11.07,9l.22.28-.74.49C10.24,9.39,9.92,9.4,9.6,9.77Z"/><path d="M11.22,17.51H9.65c.06.25.12.48.18.71a14.34,14.34,0,0,1,.46,1.91,2.16,2.16,0,0,1-1.91,2.42,3.24,3.24,0,0,1-.88.07,1.34,1.34,0,0,1-1.2-1.28,5,5,0,0,1,.21-2.21,6.57,6.57,0,0,0,.2-1.33c0-.72,0-1.45.1-2.18a3.12,3.12,0,0,1,.43-1.31c.13-.22.1-.37-.13-.47a1.72,1.72,0,0,1-.76-1.78,3.93,3.93,0,0,1,1-1.9L7.48,10A6.42,6.42,0,0,1,7,9.43,3.11,3.11,0,0,1,6.34,7.6c0-.37,0-.74,0-1.1a.47.47,0,0,0-.08-.26A2.39,2.39,0,0,1,5.74,5a1.31,1.31,0,0,1,.54-1.24,2.4,2.4,0,0,1,1.65-.48,1.6,1.6,0,0,1,.93.47.27.27,0,0,0,.23.06,4.36,4.36,0,0,1,2.6.13A.28.28,0,0,0,12,3.88a1.21,1.21,0,0,1,1.36-.32,5.56,5.56,0,0,1,1.15.56A1.14,1.14,0,0,1,15,5.33a2.3,2.3,0,0,1-.43,1.09.54.54,0,0,0-.1.39A4.21,4.21,0,0,1,14,9c-.18.34-.43.64-.65,1,.11.14.25.3.38.48a3.57,3.57,0,0,1,.76,1.76,1.66,1.66,0,0,1-.92,1.7c-.15.08-.17.16-.08.28a3.07,3.07,0,0,1,.55,1.65c.06.75,0,1.5.1,2.26a7.4,7.4,0,0,0,.24,1.21,4.56,4.56,0,0,1,.08,2.32,1.33,1.33,0,0,1-1.59,1,4.47,4.47,0,0,1-1.1-.3,2,2,0,0,1-1.23-1.74A5.46,5.46,0,0,1,11,18.25C11.1,18,11.15,17.76,11.22,17.51Zm1-10h0a1.34,1.34,0,0,1,.07.18,1.68,1.68,0,0,1,.17,1,1.86,1.86,0,0,1-1.56,1.66l-.45.07v.07c.4,0,.81,0,1.21-.06a2.66,2.66,0,0,0,2.29-1.72,4.2,4.2,0,0,0,.28-1.85A1.32,1.32,0,0,0,14,6.47c-.07-.15-.16-.3-.23-.45a2.24,2.24,0,0,0-.13-.27,4.05,4.05,0,0,0-1.2-1,5.75,5.75,0,0,0-.75-.5,3.26,3.26,0,0,0-3,.1,5.92,5.92,0,0,0-.84.52,10,10,0,0,0-.79.92c-.12.15-.24.29-.35.44a.51.51,0,0,0-.07.17c0,.36-.07.72-.07,1.08a2.75,2.75,0,0,0,2.22,2.83,4.17,4.17,0,0,0,1.41.12.35.35,0,0,0-.13-.05,8.06,8.06,0,0,1-1-.33,1.64,1.64,0,0,1-.94-1.47,2.38,2.38,0,0,1,.21-1.05h0a1.89,1.89,0,0,1,1.11-.78,3.13,3.13,0,0,1,1.58,0A2.12,2.12,0,0,1,12.18,7.47Zm-.76,5.78a4.77,4.77,0,0,0,.3-.42,1.89,1.89,0,0,0,.19-.44.81.81,0,0,0-.86-1h-.21l.45-.68H9.45a1.09,1.09,0,0,1,.54.74.93.93,0,0,0-1.11.35L9,11.05,9.38,11v-.08a3.25,3.25,0,0,0-.61-.17,2.38,2.38,0,0,0-1.67.57l-.2-.17a7,7,0,0,0-.3,1,1.41,1.41,0,0,0,1.14,1.74c.33.06.39,0,.51-.28l.53-1.46a1.87,1.87,0,0,0,.61,1.25A2.11,2.11,0,0,1,7.56,14a3.53,3.53,0,0,0,.78,2.53,1.89,1.89,0,0,0,.92.57l.51.1a3.5,3.5,0,0,0,2-.21,2,2,0,0,0,.86-.73,3.9,3.9,0,0,0,.57-2.23A2.19,2.19,0,0,1,11.42,13.25Zm2.1,1.39c-.15.47-.3.95-.44,1.42a.24.24,0,0,0,0,.08,2.56,2.56,0,0,1,0,.39c-.06.65-.17,1.29-.17,1.94,0,.81.09,1.63.13,2.45,0,.34,0,.69,0,1L13,22c0-.07-.13-.14-.14-.21,0-.5,0-1-.06-1.48a13,13,0,0,1,0-2.79c0-.31.07-.63.1-1a2.89,2.89,0,0,1-1.27.84.14.14,0,0,0-.09.09c-.13.46-.26.91-.38,1.36a4.52,4.52,0,0,0-.25,1.67A1.82,1.82,0,0,0,11.9,22.1a4.31,4.31,0,0,0,.93.27,1.13,1.13,0,0,0,1.45-.91,3.86,3.86,0,0,0-.11-2.05A5.38,5.38,0,0,1,13.91,18c0-.72,0-1.44-.08-2.15A3.37,3.37,0,0,0,13.52,14.64Zm-5.44,2c0,.06,0,.08,0,.1l0,.27a13.8,13.8,0,0,1,.09,2.49c-.07.75-.09,1.51-.11,2.26,0,.17-.11.16-.27.2,0-.27,0-.51,0-.76,0-.68.14-1.36.14-2.05a9.67,9.67,0,0,0-.45-3.62c-.09-.24-.11-.5-.18-.77l0,.06a2.25,2.25,0,0,0-.08.24A6.77,6.77,0,0,0,7,17.17a6,6,0,0,1-.22,2.07,4.18,4.18,0,0,0-.19,2.1,1.1,1.1,0,0,0,1.31,1,3.75,3.75,0,0,0,.88-.2A1.79,1.79,0,0,0,10,20.61a5,5,0,0,0-.38-2.19c-.08-.27-.14-.56-.22-.83a.29.29,0,0,0-.13-.17A2.49,2.49,0,0,1,8.08,16.65Zm2.29-9.79-.58.06a1.42,1.42,0,0,0-1.28,1,1.5,1.5,0,0,0,.37,1.66,2.09,2.09,0,0,0,2.58.22,1.52,1.52,0,0,0,.7-1.51A1.37,1.37,0,0,0,11.07,7C10.82,6.93,10.56,6.9,10.37,6.86Zm1.51,4.19a3.31,3.31,0,0,0,0,.33q.33,1.08.69,2.16c.1.31.17.34.49.28a1.31,1.31,0,0,0,1.1-.93,2.15,2.15,0,0,0-.28-1.74l-.17.14A2,2,0,0,0,11.48,11ZM8,4.48,8.74,4a1.27,1.27,0,0,0-1-.5,2.41,2.41,0,0,0-1.14.34A1.16,1.16,0,0,0,6,5.08a2,2,0,0,0,.5,1l.22-.16c-.42-.58-.45-.93-.1-1.31A1,1,0,0,1,8,4.48Zm4.78.16L13,4.52a.88.88,0,0,1,1.17.22.77.77,0,0,1,.07,1.09c-.17.21-.15.31.1.51A2.16,2.16,0,0,0,14.73,5a.88.88,0,0,0-.33-.64,3,3,0,0,0-1.18-.56,1,1,0,0,0-1.12.43ZM7.68,10.1,7,11l1.35-.57Zm4.84.32,1.34.57-.69-.91Z"/><path d="M23.27,14.27c.71,0,1.42,0,2.13.08a.87.87,0,0,1,.81,1.09,1,1,0,0,1-.76.72l-.14,0a.08.08,0,0,1,0,0c.48.12.7.53.95.9.13.18.25.37.4.55a.64.64,0,0,0,.73.17.27.27,0,0,0,.22-.29c0-.93,0-1.85,0-2.78,0-.21-.12-.29-.39-.32a.76.76,0,0,1-.18-.09l0-.08h1.39a6.66,6.66,0,0,1,.78.05.94.94,0,0,1,.82.89,1,1,0,0,1-.78.93l-.23.05A1.52,1.52,0,0,1,30,17c.11.16.21.33.33.49a.84.84,0,0,0,.52.4s.07.08.14.16c-.32,0-.57,0-.83,0A.25.25,0,0,1,30,18l-.47-.67c-.13-.2-.26-.39-.37-.6a.8.8,0,0,0-.93-.4c0,.45,0,.9,0,1.35,0,.21.23.22.39.25s.14,0,.15.17h-.57c-.58,0-1.16,0-1.74,0a.44.44,0,0,1-.3-.14,5.39,5.39,0,0,1-.43-.6c-.14-.21-.27-.43-.4-.65a.77.77,0,0,0-.92-.37c0,.44,0,.88,0,1.32,0,.23.22.25.4.27s.18,0,.13.16H23.25l0-.05c.05,0,.09-.1.14-.11.38-.06.43-.11.43-.48,0-.83,0-1.65,0-2.48,0-.36-.06-.43-.41-.47-.06,0-.11-.07-.16-.1Zm1.08.2c0,.51,0,1,0,1.5,0,0,.09.12.14.12a4.21,4.21,0,0,0,.5,0,.63.63,0,0,0,.61-.61,1.93,1.93,0,0,0,0-.34.66.66,0,0,0-.6-.66C24.81,14.45,24.59,14.47,24.35,14.47Zm3.82,0V16s.09.1.14.1a3.62,3.62,0,0,0,.57,0,.51.51,0,0,0,.48-.39,2.34,2.34,0,0,0,0-.7.53.53,0,0,0-.46-.47A6.12,6.12,0,0,0,28.17,14.44Z"/><path d="M20.85,14.2a2,2,0,1,1,0,3.95,1.93,1.93,0,0,1-2-2A1.91,1.91,0,0,1,20.85,14.2Zm-1.36,1.68a3.12,3.12,0,0,0,.21,1.36,1.17,1.17,0,0,0,1.16.73A1.16,1.16,0,0,0,22,17.22a2.7,2.7,0,0,0,0-2.07,1.13,1.13,0,0,0-1.14-.78,1.18,1.18,0,0,0-1.2.77A6.77,6.77,0,0,0,19.49,15.88Z"/><path d="M19,9a5.51,5.51,0,0,0,.62-.13c.16-.05.24,0,.26.15a.24.24,0,0,0,0,.07,4.55,4.55,0,0,1,.78-.28.66.66,0,0,1,.73.34l.17-.11a2.72,2.72,0,0,1,.5-.22.67.67,0,0,1,.93.67c0,.35,0,.69,0,1s0,.46.31.52c0,0,0,.08.09.16H22.09c.06-.08.08-.16.12-.17a.35.35,0,0,0,.29-.37,10.84,10.84,0,0,0,0-1.14c0-.39-.22-.5-.61-.44a.47.47,0,0,0-.46.53v1a.36.36,0,0,0,.27.4s.08.08.16.16H20.51c.08-.09.11-.16.15-.17a.35.35,0,0,0,.28-.38c0-.37,0-.74,0-1.12a.46.46,0,0,0-.6-.45.5.5,0,0,0-.49.57v1c0,.21.06.38.29.43.05,0,.08.08.15.16H19c.06-.07.09-.15.13-.16a.36.36,0,0,0,.29-.39c0-.37,0-.74,0-1.1a.38.38,0,0,0-.28-.4C19.05,9.16,19,9.09,19,9Z"/><path d="M17.88,14.45l.23-.22,0,0v1c-.08-.07-.14-.1-.17-.15a3.53,3.53,0,0,0-.33-.57.74.74,0,0,0-.82-.2.52.52,0,0,0-.23.89,2.43,2.43,0,0,0,.49.35c.23.13.48.23.7.36a1.17,1.17,0,0,1,.38,1.73,1.19,1.19,0,0,1-1.45.33c-.17-.07-.32-.18-.49-.27s0,.33-.3.27V16.9l.07,0a.61.61,0,0,1,.12.16,1.17,1.17,0,0,0,.91.9.73.73,0,0,0,.58-1.33c-.3-.17-.61-.32-.92-.48A1.17,1.17,0,0,1,16,15.4a1,1,0,0,1,.8-1.19A1.38,1.38,0,0,1,17.88,14.45Z"/><path d="M33.48,18.06H31.86l0,0s.08-.11.13-.12c.39-.07.41-.13.45-.52a2.35,2.35,0,0,0-.54-1.82,6.07,6.07,0,0,1-.47-.73.69.69,0,0,0-.51-.36c-.05,0-.08-.08-.12-.12l0,0h1.56c0,.14,0,.14-.11.16-.3,0-.35.09-.2.35.25.44.51.89.79,1.35l.86-1.43c.07-.12,0-.2-.1-.24a1.25,1.25,0,0,1-.19,0,.69.69,0,0,1-.19-.1c.06,0,.12-.07.18-.07a9.48,9.48,0,0,1,1.17.05s-.08.11-.13.12a.79.79,0,0,0-.58.41c-.27.46-.56.92-.84,1.39h0c0,.48,0,1,0,1.44,0,.07.24.12.37.18l.14.11Z"/><path d="M15.8,7.48h1.72c-.07.08-.11.15-.15.16-.42.07-.46.1-.46.52v2.4c0,.4.06.45.45.52.05,0,.09.07.13.11l0,.05H15.89s-.08-.07-.13-.1l0-.06h.1c.36,0,.44-.11.45-.47V8.1c0-.35-.07-.41-.43-.46-.06,0-.1-.07-.15-.1Z"/><path d="M17.88,8.88l.17-.15a.78.78,0,0,0,.28-.59c0-.11,0-.17-.17-.16a.27.27,0,0,1-.32-.23c0-.1,0-.27.11-.3a.53.53,0,0,1,.41,0,.55.55,0,0,1,.22.31A.89.89,0,0,1,17.88,8.88Z"/><path d="M8.38,7.51c-.15.08-.31.16-.46,0A.47.47,0,0,1,7.86,7a.38.38,0,0,1,.26-.19A.4.4,0,0,1,8.4,7a.59.59,0,0,1,0,.56Z"/><path d="M12.18,7.47a2.08,2.08,0,0,1,0-.43c0-.15.13-.3.29-.27a.49.49,0,0,1,.3.24.55.55,0,0,1,0,.4c-.1.24-.29.25-.55,0Z"/><path d="M10.39,12.48c0-.14.06-.27.1-.4a.63.63,0,0,1,.79-.45.54.54,0,0,1,.35.73,2.17,2.17,0,0,1-.38.64,6.09,6.09,0,0,1-.77.66.19.19,0,0,1-.19,0,12.64,12.64,0,0,1-1-.93.92.92,0,0,1-.2-.46.53.53,0,0,1,.37-.66.64.64,0,0,1,.77.39c0,.15.08.31.13.46Z"/><path d="M9.8,10l-.73-.49.22-.28a2.6,2.6,0,0,1,.3.22c.15.14.25,0,.37,0s.11-.21.09-.32S10,9,9.93,8.94s-.4-.33-.6-.48a.57.57,0,0,1,.65-.4,2.36,2.36,0,0,0,.65,0c.33-.05.47.13.59.41l-.59.46a.26.26,0,0,0-.13.34.74.74,0,0,0,.29.23s.11-.05.16-.08l.32-.22.22.28-.74.49C10.44,9.59,10.12,9.6,9.8,10Z"/></g><g class="cls-3"><path d="M10.88,17.16H9.31c.06.26.12.49.18.72A14.34,14.34,0,0,1,10,19.79,2.16,2.16,0,0,1,8,22.21a3.24,3.24,0,0,1-.88.07A1.33,1.33,0,0,1,6,21a5,5,0,0,1,.21-2.21,6.57,6.57,0,0,0,.2-1.33c0-.72,0-1.45.1-2.18A3.12,3.12,0,0,1,6.9,14c.13-.23.1-.37-.13-.47A1.72,1.72,0,0,1,6,11.72a3.93,3.93,0,0,1,1-1.9c0-.07.11-.13.16-.19a6.42,6.42,0,0,1-.51-.54A3.14,3.14,0,0,1,6,7.26c0-.37,0-.74,0-1.1A.47.47,0,0,0,6,5.9,2.39,2.39,0,0,1,5.4,4.67a1.31,1.31,0,0,1,.54-1.24A2.4,2.4,0,0,1,7.59,3a1.6,1.6,0,0,1,.93.47.27.27,0,0,0,.23.06,4.36,4.36,0,0,1,2.6.13.28.28,0,0,0,.33-.07A1.21,1.21,0,0,1,13,3.22a5.56,5.56,0,0,1,1.15.56A1.14,1.14,0,0,1,14.63,5a2.3,2.3,0,0,1-.43,1.09.54.54,0,0,0-.1.39,4.21,4.21,0,0,1-.4,2.18c-.18.34-.43.64-.65,1,.11.14.25.3.38.48a3.57,3.57,0,0,1,.76,1.76,1.66,1.66,0,0,1-.92,1.7c-.15.08-.17.16-.08.28a3.07,3.07,0,0,1,.55,1.65c.06.75,0,1.5.1,2.26A7.4,7.4,0,0,0,14.08,19a4.56,4.56,0,0,1,.08,2.32,1.33,1.33,0,0,1-1.59,1,4.47,4.47,0,0,1-1.1-.3,2,2,0,0,1-1.23-1.74,5.46,5.46,0,0,1,.44-2.33C10.76,17.67,10.81,17.42,10.88,17.16Zm1-10h0a1.34,1.34,0,0,1,.07.18,1.68,1.68,0,0,1,.17,1A1.86,1.86,0,0,1,10.51,10l-.45.07v.07c.4,0,.81,0,1.21-.06a2.66,2.66,0,0,0,2.29-1.72,4.2,4.2,0,0,0,.28-1.85,1.19,1.19,0,0,0-.15-.35c-.08-.15-.16-.3-.23-.45a2.24,2.24,0,0,0-.13-.27,4.05,4.05,0,0,0-1.2-1,5.75,5.75,0,0,0-.75-.5,3.26,3.26,0,0,0-3,.1,5.92,5.92,0,0,0-.84.52,10,10,0,0,0-.79.92c-.12.15-.24.29-.35.44A.51.51,0,0,0,6.32,6c0,.36-.07.72-.07,1.08A2.75,2.75,0,0,0,8.47,10a4.17,4.17,0,0,0,1.41.12A.35.35,0,0,0,9.75,10a8.06,8.06,0,0,1-1-.33,1.64,1.64,0,0,1-.94-1.47A2.38,2.38,0,0,1,8,7.17H8A1.89,1.89,0,0,1,9.14,6.4a3.13,3.13,0,0,1,1.58,0A2.12,2.12,0,0,1,11.84,7.13Zm-.76,5.78a4.77,4.77,0,0,0,.3-.42,1.89,1.89,0,0,0,.19-.44.81.81,0,0,0-.86-1H10.5l.45-.68H9.11a1.09,1.09,0,0,1,.54.74.93.93,0,0,0-1.11.35l.11-.71L9,10.63v-.08a3.25,3.25,0,0,0-.61-.17A2.38,2.38,0,0,0,6.77,11l-.2-.17a7,7,0,0,0-.3,1,1.41,1.41,0,0,0,1.14,1.74c.33.06.39,0,.51-.28l.53-1.46A1.87,1.87,0,0,0,9.06,13a2.11,2.11,0,0,1-1.84.71A3.53,3.53,0,0,0,8,16.23a1.89,1.89,0,0,0,.92.57l.51.1a3.5,3.5,0,0,0,2-.21,2,2,0,0,0,.86-.73,3.9,3.9,0,0,0,.57-2.23A2.19,2.19,0,0,1,11.08,12.91Zm2.1,1.39c-.15.47-.3.95-.44,1.42a.24.24,0,0,0,0,.08,2.56,2.56,0,0,1,0,.39c-.06.65-.17,1.29-.17,1.94,0,.81.09,1.63.13,2.45,0,.34,0,.69,0,1l-.1,0c0-.07-.13-.14-.14-.21,0-.5,0-1-.06-1.48a13,13,0,0,1,0-2.79c0-.31.07-.63.1-1a2.89,2.89,0,0,1-1.27.84.14.14,0,0,0-.09.09c-.13.46-.26.91-.38,1.36a4.5,4.5,0,0,0-.25,1.66,1.82,1.82,0,0,0,1.07,1.59,4.31,4.31,0,0,0,.93.27,1.13,1.13,0,0,0,1.45-.91,3.86,3.86,0,0,0-.11-2.05,5.38,5.38,0,0,1-.26-1.43c0-.72,0-1.44-.08-2.15A3.37,3.37,0,0,0,13.18,14.3Zm-5.44,2c0,.06,0,.08,0,.1l0,.27a12.94,12.94,0,0,1,.08,2.49c-.06.75-.08,1.51-.1,2.26,0,.17-.11.16-.27.2,0-.27,0-.51,0-.76,0-.68.13-1.36.14-2.05a9.67,9.67,0,0,0-.45-3.62C7.06,15,7,14.7,7,14.43l0,.06-.09.24a7.43,7.43,0,0,0-.22,2.1,5.78,5.78,0,0,1-.21,2.07A4.18,4.18,0,0,0,6.22,21a1.1,1.1,0,0,0,1.31,1,3.75,3.75,0,0,0,.88-.2,1.79,1.79,0,0,0,1.27-1.57,5,5,0,0,0-.38-2.19c-.08-.27-.14-.56-.22-.83A.29.29,0,0,0,9,17.08,2.49,2.49,0,0,1,7.74,16.31ZM10,6.52l-.57.06a1.42,1.42,0,0,0-1.28,1,1.5,1.5,0,0,0,.37,1.66,2.09,2.09,0,0,0,2.58.22,1.52,1.52,0,0,0,.7-1.51,1.37,1.37,0,0,0-1.09-1.28C10.48,6.59,10.22,6.56,10,6.52Zm1.52,4.19a3.31,3.31,0,0,0,0,.33q.33,1.08.69,2.16c.1.31.17.34.49.28a1.31,1.31,0,0,0,1.1-.93,2.15,2.15,0,0,0-.28-1.74l-.17.14a2,2,0,0,0-2.27-.33ZM7.68,4.14l.72-.46a1.27,1.27,0,0,0-1-.5,2.41,2.41,0,0,0-1.14.34,1.16,1.16,0,0,0-.58,1.22,2,2,0,0,0,.5,1l.22-.16C6,5,5.93,4.63,6.28,4.25A1,1,0,0,1,7.68,4.14Zm4.78.16.16-.12a.88.88,0,0,1,1.17.22.77.77,0,0,1,.07,1.09c-.17.21-.15.31.1.51a2.16,2.16,0,0,0,.43-1.38A.88.88,0,0,0,14.06,4a3,3,0,0,0-1.18-.56,1,1,0,0,0-1.13.43ZM7.34,9.76l-.67.89L8,10.08Zm4.84.32,1.34.57-.69-.91Z"/><path d="M22.93,13.93c.71,0,1.42,0,2.13.08a.87.87,0,0,1,.81,1.09,1,1,0,0,1-.76.72l-.14,0,0,0c.49.12.71.53,1,.9.13.18.25.37.4.55a.64.64,0,0,0,.73.17.27.27,0,0,0,.22-.29c0-.93,0-1.85,0-2.78,0-.21-.12-.29-.39-.32a.76.76,0,0,1-.18-.09l0-.08h1.39a6.66,6.66,0,0,1,.78.05.94.94,0,0,1,.82.89,1,1,0,0,1-.78.93l-.23,0a1.52,1.52,0,0,1,.94.8c.11.16.21.33.33.49a.84.84,0,0,0,.52.4s.07.08.14.16c-.32,0-.58,0-.83,0a.25.25,0,0,1-.17-.1L29.16,17c-.13-.2-.26-.39-.37-.6a.8.8,0,0,0-.93-.4c0,.45,0,.9,0,1.35,0,.21.23.22.39.25s.14,0,.15.17h-.57c-.58,0-1.16,0-1.74,0a.44.44,0,0,1-.3-.14,5.39,5.39,0,0,1-.43-.6c-.14-.21-.27-.43-.4-.65A.77.77,0,0,0,24,16c0,.44,0,.88,0,1.32,0,.23.22.25.4.27s.18,0,.13.16H22.91l0-.05c.05,0,.09-.1.14-.11.38-.06.43-.11.43-.48,0-.83,0-1.65,0-2.48,0-.36-.06-.43-.41-.47-.06,0-.11-.07-.16-.1Zm1.08.2c0,.51,0,1,0,1.5,0,0,.09.12.14.12a4.21,4.21,0,0,0,.5,0,.63.63,0,0,0,.61-.61,1.93,1.93,0,0,0,0-.34.66.66,0,0,0-.6-.66C24.47,14.11,24.25,14.13,24,14.13Zm3.82,0c0,.54,0,1.05,0,1.55,0,0,.09.1.14.1a3.62,3.62,0,0,0,.57,0,.51.51,0,0,0,.48-.39,2.05,2.05,0,0,0,0-.7.51.51,0,0,0-.45-.47A6.12,6.12,0,0,0,27.83,14.1Z"/><path d="M20.51,13.86a2,2,0,1,1,0,3.95,1.93,1.93,0,0,1-2-2A1.91,1.91,0,0,1,20.51,13.86Zm-1.36,1.68a3.12,3.12,0,0,0,.21,1.36,1.17,1.17,0,0,0,1.16.73,1.16,1.16,0,0,0,1.15-.75,2.7,2.7,0,0,0,0-2.07A1.13,1.13,0,0,0,20.54,14a1.18,1.18,0,0,0-1.2.77A6.77,6.77,0,0,0,19.15,15.54Z"/><path d="M18.62,8.69a5.51,5.51,0,0,0,.62-.13c.16-.05.24,0,.26.15a.24.24,0,0,0,0,.07,4.55,4.55,0,0,1,.78-.28.66.66,0,0,1,.73.34l.17-.11a2.72,2.72,0,0,1,.5-.22.67.67,0,0,1,.93.67c0,.35,0,.69,0,1s0,.46.31.52c0,0,0,.08.09.16H21.75c.06-.08.08-.16.12-.17a.35.35,0,0,0,.29-.37,10.84,10.84,0,0,0,0-1.14c0-.39-.22-.5-.61-.44a.47.47,0,0,0-.46.53v1a.36.36,0,0,0,.27.4s.08.08.16.16H20.17c.08-.09.11-.16.15-.17a.35.35,0,0,0,.28-.38c0-.37,0-.75,0-1.12a.46.46,0,0,0-.6-.45.5.5,0,0,0-.49.57v1c0,.21.06.38.29.43.05,0,.08.08.15.16H18.62c.06-.07.09-.15.13-.16a.36.36,0,0,0,.29-.39c0-.37,0-.74,0-1.1a.38.38,0,0,0-.28-.4C18.71,8.82,18.68,8.75,18.62,8.69Z"/><path d="M17.54,14.11l.23-.22,0,0v1c-.08-.07-.14-.1-.17-.15a3.53,3.53,0,0,0-.33-.57.74.74,0,0,0-.82-.2.52.52,0,0,0-.23.89,2.43,2.43,0,0,0,.49.35c.23.13.48.23.7.36a1.17,1.17,0,0,1,.38,1.73,1.19,1.19,0,0,1-1.45.33c-.17-.07-.32-.18-.49-.27s0,.33-.3.27V16.56l.07,0a.61.61,0,0,1,.12.16,1.17,1.17,0,0,0,.91.9.73.73,0,0,0,.58-1.33c-.3-.17-.61-.32-.92-.48a1.17,1.17,0,0,1-.65-.71,1,1,0,0,1,.8-1.19A1.38,1.38,0,0,1,17.54,14.11Z"/><path d="M33.14,17.72H31.52l0,0s.08-.11.13-.12c.39-.07.41-.13.45-.52a2.35,2.35,0,0,0-.54-1.82,6.07,6.07,0,0,1-.47-.73.69.69,0,0,0-.51-.36c-.05,0-.08-.08-.12-.12l0,0H32c0,.14,0,.14-.11.16-.3,0-.35.09-.2.35.25.44.51.89.79,1.35l.86-1.43c.07-.12,0-.2-.1-.24a1.25,1.25,0,0,1-.19,0,.69.69,0,0,1-.19-.1c.06,0,.12-.07.18-.07a9.48,9.48,0,0,1,1.17.05s-.08.11-.13.12a.79.79,0,0,0-.58.41l-.84,1.39h0c0,.48,0,1,0,1.44,0,.07.24.12.37.18l.14.11Z"/><path d="M15.46,7.14h1.72c-.07.08-.11.15-.15.16-.42.07-.46.1-.46.52v2.4c0,.4.06.45.45.52.05,0,.09.07.13.11l0,.05H15.55s-.08-.07-.13-.1l0-.06h.1c.36,0,.44-.11.45-.47V7.76c0-.36-.07-.41-.43-.46-.06,0-.1-.07-.15-.1Z"/><path d="M17.54,8.54l.17-.15A.78.78,0,0,0,18,7.8c0-.11,0-.17-.17-.16a.27.27,0,0,1-.32-.23c0-.1,0-.27.11-.3a.53.53,0,0,1,.41,0,.55.55,0,0,1,.22.31A.89.89,0,0,1,17.54,8.54Z"/><path d="M8,7.17c-.15.08-.31.16-.46,0a.48.48,0,0,1-.06-.55.39.39,0,0,1,.26-.18.4.4,0,0,1,.28.18c.12.18,0,.37,0,.56Z"/><path d="M11.84,7.13a2.08,2.08,0,0,1,0-.43c0-.15.13-.3.29-.27a.49.49,0,0,1,.3.24.55.55,0,0,1,0,.4c-.1.24-.29.25-.55,0Z"/><path d="M10.05,12.14c0-.14.06-.27.1-.4a.63.63,0,0,1,.79-.45.54.54,0,0,1,.35.73,2.17,2.17,0,0,1-.38.64,6.09,6.09,0,0,1-.77.66.19.19,0,0,1-.19,0,12.64,12.64,0,0,1-1-.93.92.92,0,0,1-.2-.46.53.53,0,0,1,.37-.66.64.64,0,0,1,.77.39c0,.15.08.31.13.46Z"/><path d="M9.46,9.63l-.73-.49L9,8.86a2.6,2.6,0,0,1,.3.22c.15.14.25,0,.37,0s.11-.21.09-.32-.07-.09-.12-.13L9,8.12a.56.56,0,0,1,.65-.4,2.36,2.36,0,0,0,.65,0c.33,0,.47.13.59.41-.2.15-.39.31-.6.46a.26.26,0,0,0-.12.34.74.74,0,0,0,.29.23s.11-.05.16-.08l.32-.22.22.28-.74.49C10.1,9.25,9.78,9.26,9.46,9.63Z"/></g><path class="cls-4" d="M11.08,17.36H9.51c.06.26.12.49.18.72a15.92,15.92,0,0,1,.46,1.9A2.15,2.15,0,0,1,8.24,22.4a2.92,2.92,0,0,1-.88.08,1.34,1.34,0,0,1-1.2-1.28A5.18,5.18,0,0,1,6.36,19a6,6,0,0,0,.21-1.33c0-.73,0-1.45.1-2.18a3.07,3.07,0,0,1,.43-1.31c.13-.23.1-.37-.13-.48a1.7,1.7,0,0,1-.76-1.77,3.93,3.93,0,0,1,1-1.9,1.46,1.46,0,0,1,.16-.19c-.18-.19-.36-.35-.51-.54A3,3,0,0,1,6.2,7.45c0-.36,0-.73,0-1.09a.47.47,0,0,0-.08-.26A2.39,2.39,0,0,1,5.6,4.87a1.34,1.34,0,0,1,.54-1.25,2.38,2.38,0,0,1,1.65-.47,1.6,1.6,0,0,1,.93.47A.27.27,0,0,0,9,3.68a4.44,4.44,0,0,1,2.6.12.25.25,0,0,0,.32-.06,1.23,1.23,0,0,1,1.37-.32A5.56,5.56,0,0,1,14.39,4a1.14,1.14,0,0,1,.44,1.21,2.34,2.34,0,0,1-.43,1.09.54.54,0,0,0-.1.39,4.21,4.21,0,0,1-.4,2.18,11.1,11.1,0,0,1-.66,1c.11.14.26.3.39.48a3.53,3.53,0,0,1,.76,1.76,1.66,1.66,0,0,1-.92,1.7c-.15.08-.17.16-.08.28a3.07,3.07,0,0,1,.55,1.64c.06.76,0,1.51.09,2.26a8.52,8.52,0,0,0,.25,1.22,4.68,4.68,0,0,1,.08,2.32,1.34,1.34,0,0,1-1.6,1,4.51,4.51,0,0,1-1.09-.3,2,2,0,0,1-1.23-1.75,5.45,5.45,0,0,1,.44-2.32C11,17.87,11,17.62,11.08,17.36Zm1-10h0a1.34,1.34,0,0,1,.07.18,1.73,1.73,0,0,1,.17,1,1.86,1.86,0,0,1-1.57,1.67l-.44.07v.07c.4,0,.81,0,1.21-.06a2.66,2.66,0,0,0,2.29-1.73A4,4,0,0,0,14,6.68a1,1,0,0,0-.14-.35c-.08-.15-.16-.3-.23-.45a2.39,2.39,0,0,0-.13-.28,4,4,0,0,0-1.2-1,4.25,4.25,0,0,0-.75-.5,3.23,3.23,0,0,0-3,.1,6.94,6.94,0,0,0-.84.51,10,10,0,0,0-.79.93c-.12.15-.24.29-.35.44a.36.36,0,0,0-.07.17,9.77,9.77,0,0,0-.07,1.07,2.74,2.74,0,0,0,2.22,2.84,4.17,4.17,0,0,0,1.41.12.75.75,0,0,0-.13-.06,6.24,6.24,0,0,1-1-.32A1.61,1.61,0,0,1,8,8.42a2.38,2.38,0,0,1,.21-1h0A1.85,1.85,0,0,1,9.34,6.6a3.25,3.25,0,0,1,1.58,0A2.2,2.2,0,0,1,12,7.33Zm-.76,5.78a4.77,4.77,0,0,0,.3-.42,1.85,1.85,0,0,0,.18-.44.8.8,0,0,0-.85-1H10.7l.45-.68H9.31a1.09,1.09,0,0,1,.54.74.93.93,0,0,0-1.11.35l.11-.71.39-.09v-.07a3.73,3.73,0,0,0-.61-.17A2.36,2.36,0,0,0,7,11.15L6.77,11a5.55,5.55,0,0,0-.3,1,1.39,1.39,0,0,0,1.14,1.73c.33.07.39,0,.5-.27.18-.47.35-.94.54-1.46a1.87,1.87,0,0,0,.61,1.25,2.12,2.12,0,0,1-1.85.71,3.56,3.56,0,0,0,.79,2.52,1.91,1.91,0,0,0,.92.58l.51.1a3.5,3.5,0,0,0,2-.21,1.89,1.89,0,0,0,.85-.73,3.83,3.83,0,0,0,.58-2.23A2.19,2.19,0,0,1,11.28,13.11Zm2.1,1.39c-.15.47-.3.95-.44,1.42a.24.24,0,0,0,0,.08,2.56,2.56,0,0,1,0,.39c-.06.64-.17,1.29-.17,1.94,0,.81.09,1.63.13,2.45,0,.34,0,.69,0,1l-.1,0c-.05-.07-.13-.14-.14-.21,0-.5,0-1-.06-1.48a13,13,0,0,1,0-2.79c.05-.31.07-.63.1-.95a2.79,2.79,0,0,1-1.27.83.18.18,0,0,0-.09.1c-.13.45-.27.91-.38,1.36a4.73,4.73,0,0,0-.26,1.66A1.85,1.85,0,0,0,11.76,22a4.15,4.15,0,0,0,.93.27,1.13,1.13,0,0,0,1.45-.91A4,4,0,0,0,14,19.27a5,5,0,0,1-.26-1.43c0-.72,0-1.44-.08-2.15A3.37,3.37,0,0,0,13.38,14.5Zm-5.44,2a.81.81,0,0,0,0,.09l0,.28A12.94,12.94,0,0,1,8,19.37c-.06.75-.08,1.51-.1,2.26,0,.17-.11.16-.27.2,0-.27,0-.52,0-.76,0-.68.13-1.36.14-2.05a9.67,9.67,0,0,0-.45-3.62,5.79,5.79,0,0,1-.18-.77s0,0,0,.06L7,14.93A7.43,7.43,0,0,0,6.82,17a5.78,5.78,0,0,1-.21,2.07,4.17,4.17,0,0,0-.19,2.1,1.1,1.1,0,0,0,1.31,1,3.75,3.75,0,0,0,.88-.2,1.8,1.8,0,0,0,1.27-1.57,5,5,0,0,0-.38-2.19c-.08-.28-.14-.56-.22-.83,0-.07-.08-.16-.14-.17A2.59,2.59,0,0,1,7.94,16.51Zm2.28-9.79c-.23,0-.4,0-.57.06a1.42,1.42,0,0,0-1.28,1,1.5,1.5,0,0,0,.37,1.66,2.11,2.11,0,0,0,2.58.22A1.53,1.53,0,0,0,12,8.13a1.39,1.39,0,0,0-1.1-1.27C10.68,6.79,10.42,6.76,10.22,6.72Zm1.52,4.19a1.75,1.75,0,0,0,0,.33c.22.72.45,1.44.68,2.15.11.32.17.35.5.28a1.28,1.28,0,0,0,1.1-.93A2.12,2.12,0,0,0,13.78,11l-.17.14a1.94,1.94,0,0,0-2.27-.33ZM7.88,4.34l.71-.46a1.24,1.24,0,0,0-1-.5,2.41,2.41,0,0,0-1.14.34,1.15,1.15,0,0,0-.58,1.22,1.92,1.92,0,0,0,.5,1l.22-.16c-.43-.58-.45-.93-.1-1.31A1,1,0,0,1,7.88,4.34Zm4.78.16.16-.12A.87.87,0,0,1,14,4.6a.78.78,0,0,1,.07,1.09c-.17.21-.16.31.1.51a2.16,2.16,0,0,0,.43-1.38.86.86,0,0,0-.34-.64,3,3,0,0,0-1.17-.56A1,1,0,0,0,12,4.05ZM7.54,10l-.67.89,1.35-.57Zm4.84.32,1.34.57L13,9.94Z"/><path class="cls-4" d="M23.13,14.13c.71,0,1.42,0,2.13.08a.86.86,0,0,1,.8,1.09,1,1,0,0,1-.75.72l-.14,0,0,0c.49.12.7.53,1,.9.13.18.25.37.4.54a.63.63,0,0,0,.73.18.28.28,0,0,0,.22-.29c0-.93,0-1.85,0-2.78,0-.21-.12-.29-.39-.32a.76.76,0,0,1-.18-.09l0-.08h1.39a5.11,5.11,0,0,1,.78,0,.93.93,0,0,1,.82.89,1,1,0,0,1-.79.93l-.22.05a1.56,1.56,0,0,1,.94.79c.11.17.21.34.33.5a.82.82,0,0,0,.52.39s.07.09.13.17H30a.3.3,0,0,1-.17-.1c-.17-.22-.32-.45-.47-.68s-.26-.39-.37-.59a.81.81,0,0,0-.94-.4c0,.45,0,.9,0,1.35,0,.21.23.22.39.25s.14,0,.14.17h-2.3a.47.47,0,0,1-.3-.14c-.16-.19-.29-.4-.43-.6s-.28-.43-.4-.65a.78.78,0,0,0-.92-.38c0,.45,0,.89,0,1.33,0,.23.23.25.4.26s.19,0,.13.17H23.11l0-.05s.09-.1.14-.11c.37-.06.43-.11.43-.48,0-.83,0-1.66,0-2.48,0-.36-.06-.43-.42-.47-.05,0-.1-.07-.15-.1Zm1.08.2c0,.51,0,1,0,1.49a.17.17,0,0,0,.13.13,4.34,4.34,0,0,0,.51,0,.63.63,0,0,0,.61-.62,1.82,1.82,0,0,0,0-.33.66.66,0,0,0-.6-.66C24.66,14.31,24.45,14.33,24.21,14.33Zm3.82,0c0,.54,0,1,0,1.55,0,0,.09.1.14.1a3.62,3.62,0,0,0,.57,0,.51.51,0,0,0,.48-.39,2.06,2.06,0,0,0,0-.7.54.54,0,0,0-.45-.48C28.56,14.32,28.3,14.32,28,14.3Z"/><path class="cls-4" d="M20.71,14.06a1.9,1.9,0,0,1,2,2,2,2,0,1,1-2-2Zm-1.36,1.68a3,3,0,0,0,.21,1.36,1.27,1.27,0,0,0,2.31,0,2.73,2.73,0,0,0,0-2.08,1.14,1.14,0,0,0-1.15-.77,1.17,1.17,0,0,0-1.19.77A5,5,0,0,0,19.35,15.74Z"/><path class="cls-4" d="M18.82,8.88a4,4,0,0,0,.62-.12c.16,0,.24,0,.25.15l0,.07a4.55,4.55,0,0,1,.78-.28.66.66,0,0,1,.73.34l.17-.11a2.45,2.45,0,0,1,.5-.22.66.66,0,0,1,.92.67c0,.34,0,.69,0,1s0,.46.31.52c0,0,.05.08.09.16H21.94c.07-.08.09-.16.13-.17a.36.36,0,0,0,.29-.37,10.84,10.84,0,0,0,0-1.14c0-.39-.22-.5-.61-.44a.47.47,0,0,0-.46.53v1a.36.36,0,0,0,.27.4s.08.08.16.16H20.37c.08-.09.11-.16.15-.17a.35.35,0,0,0,.28-.38c0-.37,0-.75,0-1.12A.46.46,0,0,0,20.2,9a.5.5,0,0,0-.49.57v.95c0,.21.06.38.29.43,0,0,.08.08.15.16H18.82c.06-.08.09-.15.13-.16a.36.36,0,0,0,.29-.39c0-.37,0-.74,0-1.1A.38.38,0,0,0,19,9C18.91,9,18.88,9,18.82,8.88Z"/><path class="cls-4" d="M17.74,14.31l.22-.22.05,0v1.05c-.08-.07-.14-.1-.17-.15a4.13,4.13,0,0,0-.33-.58.75.75,0,0,0-.82-.19.52.52,0,0,0-.23.89,2.18,2.18,0,0,0,.49.35c.23.13.47.22.7.36A1.16,1.16,0,0,1,18,17.58a1.18,1.18,0,0,1-1.45.32,4.76,4.76,0,0,1-.48-.27c-.12.05,0,.34-.3.28V16.75l.06,0a.48.48,0,0,1,.13.16,1.2,1.2,0,0,0,.91.9.76.76,0,0,0,.95-.75.73.73,0,0,0-.37-.58c-.3-.17-.61-.32-.92-.48a1.14,1.14,0,0,1-.65-.71.93.93,0,0,1,.8-1.19A1.3,1.3,0,0,1,17.74,14.31Z"/><path class="cls-4" d="M33.34,17.91H31.71l0,0s.09-.11.14-.12c.39-.07.4-.13.45-.53a2.34,2.34,0,0,0-.54-1.81,7,7,0,0,1-.47-.73.68.68,0,0,0-.51-.36s-.08-.08-.12-.12l0,0h1.56c0,.14,0,.14-.11.15-.29,0-.34.1-.19.36L32.69,16l.87-1.43c.07-.12,0-.2-.1-.24a1.25,1.25,0,0,1-.19,0,.69.69,0,0,1-.19-.1c.06,0,.12-.07.18-.07a9.4,9.4,0,0,1,1.17,0c0,.05-.08.12-.13.13a.81.81,0,0,0-.58.4c-.28.47-.56.93-.85,1.39a0,0,0,0,1,0,0c0,.48,0,1,0,1.44,0,.06.24.11.36.18a.53.53,0,0,1,.14.11Z"/><path class="cls-4" d="M15.66,7.34h1.72c-.07.08-.11.15-.15.16-.43.07-.46.1-.46.52,0,.8,0,1.6,0,2.39,0,.41.06.46.45.52.05,0,.09.08.13.12l0,0H15.75s-.09-.07-.13-.11l0-.05h.1c.36,0,.44-.11.44-.47,0-.83,0-1.67,0-2.5,0-.36-.06-.42-.43-.46,0,0-.09-.07-.14-.11Z"/><path class="cls-4" d="M17.74,8.73a1.07,1.07,0,0,0,.16-.14A.75.75,0,0,0,18.19,8c0-.11,0-.17-.17-.16a.27.27,0,0,1-.32-.23c0-.1,0-.27.11-.3a.49.49,0,0,1,.41,0,.55.55,0,0,1,.22.31A.87.87,0,0,1,17.74,8.73Z"/><path class="cls-4" d="M8.24,7.37c-.16.08-.31.16-.46,0a.5.5,0,0,1-.07-.55A.45.45,0,0,1,8,6.63a.41.41,0,0,1,.28.19c.12.18,0,.37,0,.56Z"/><path class="cls-4" d="M12,7.33a2.08,2.08,0,0,1,0-.43c0-.15.13-.3.29-.27a.48.48,0,0,1,.3.24.55.55,0,0,1,0,.4c-.1.24-.29.25-.55.05Z"/><path class="cls-4" d="M10.25,12.34c0-.14.06-.27.1-.41a.63.63,0,0,1,.79-.44.54.54,0,0,1,.35.72,2.1,2.1,0,0,1-.38.65,6.88,6.88,0,0,1-.77.66.24.24,0,0,1-.2,0c-.34-.3-.68-.6-1-.93A1,1,0,0,1,9,12.15a.53.53,0,0,1,.37-.66.63.63,0,0,1,.77.39c.05.15.08.3.12.46Z"/><path class="cls-4" d="M9.66,9.83l-.74-.49.23-.28a2.6,2.6,0,0,1,.3.22c.15.14.24,0,.37,0s.11-.21.09-.32-.07-.1-.12-.14l-.6-.48a.56.56,0,0,1,.65-.39,2.36,2.36,0,0,0,.65,0c.33-.06.47.13.58.41-.19.15-.38.31-.59.46a.26.26,0,0,0-.12.34.68.68,0,0,0,.29.23s.11,0,.16-.08l.31-.22.22.28-.73.49A.54.54,0,0,0,9.66,9.83Z"/></g></g></svg>