<svg xmlns="http://www.w3.org/2000/svg" viewBox="0 0 38.55 24.66"><defs><style>.cls-1{isolation:isolate;}.cls-2{opacity:0.15;}.cls-2,.cls-3{mix-blend-mode:multiply;}.cls-4{fill:#fff;}</style></defs><title>convert-FIX-SVG-03</title><g class="cls-1"><g id="Layer_1" data-name="Layer 1"><g class="cls-2"><path d="M19.34,4.94c.51-.45,1-.92,1.51-1.32a7.53,7.53,0,0,1,3.79-1.41,6.83,6.83,0,0,1,3.63.47,6.61,6.61,0,0,1,3.95,5A9,9,0,0,1,31.48,13,17.89,17.89,0,0,1,28.19,18,39.27,39.27,0,0,1,21,24a.62.62,0,0,1-.29.09c-.91,0-1.81,0-2.72,0a.52.52,0,0,1-.29-.09A40,40,0,0,1,11,18.42,18.47,18.47,0,0,1,7.3,13a10.13,10.13,0,0,1-.87-4.17,6.65,6.65,0,0,1,5.33-6.52,7.66,7.66,0,0,1,7.47,2.5Zm0,1.34-.11-.12A6.53,6.53,0,0,0,13.17,4a5.61,5.61,0,0,0-4.7,5.21A7.88,7.88,0,0,0,9,12.73a15.18,15.18,0,0,0,3.16,4.79,34.72,34.72,0,0,0,6.66,5.42,1.15,1.15,0,0,0,.25.12,1.12,1.12,0,0,0,1-.2,37.28,37.28,0,0,0,6.18-4.95,16.85,16.85,0,0,0,3.14-4.31,8.1,8.1,0,0,0,.9-4.66,5.67,5.67,0,0,0-6.26-5,6.68,6.68,0,0,0-3.61,1.37C20.05,5.6,19.72,5.94,19.36,6.28Z"/><path d="M28.51.52h6.24a.44.44,0,0,1,.35.14,9.66,9.66,0,0,1,2.34,5,12.73,12.73,0,0,1-.82,6.49,22.28,22.28,0,0,1-3.48,5.94A40.58,40.58,0,0,1,27.32,24a.46.46,0,0,1-.25.1c-1.12,0-2.24,0-3.36,0l-.13,0,.21-.17a41.51,41.51,0,0,0,5.4-4.77,21.67,21.67,0,0,0,4.24-6.21,11.57,11.57,0,0,0,1-4.68A7.91,7.91,0,0,0,29.54.89C29.23.75,28.9.66,28.51.52Z"/><path d="M10.26.52c-.38.13-.72.23-1,.37A7.73,7.73,0,0,0,4.52,6.67a10.16,10.16,0,0,0,.62,5.69,18.84,18.84,0,0,0,3.23,5.37A38.64,38.64,0,0,0,15,23.9l.22.17-.21,0c-1.08,0-2.15,0-3.22,0a.58.58,0,0,1-.33-.12,40.46,40.46,0,0,1-5.57-5.61,21.85,21.85,0,0,1-4-7.06A13.13,13.13,0,0,1,1.22,7,9.71,9.71,0,0,1,3.64.71.51.51,0,0,1,4.07.52h6.19Z"/><path d="M.54,15a40.16,40.16,0,0,0,7.52,9,1.39,1.39,0,0,1-.23,0H4a.48.48,0,0,1-.39-.16L.72,20.71a.62.62,0,0,1-.17-.49c0-1.64,0-3.28,0-4.91Z"/><path d="M30.71,24.09a39.89,39.89,0,0,0,7.22-8.6c0,.12,0,.18,0,.24,0,1.65,0,3.3,0,4.95a.48.48,0,0,1-.12.31l-2.67,3a.44.44,0,0,1-.37.16H30.71Z"/><path d="M14.3.52h4a.4.4,0,0,1,.22.1l.87.92c.14-.15.28-.32.42-.48C20.3.52,20.3.52,21,.52h3.45a8.93,8.93,0,0,0-5.09,3.11A8.93,8.93,0,0,0,14.3.52Z"/><path d="M19.36,7c.35-.32.67-.65,1-.93a6,6,0,0,1,3.84-1.18A5,5,0,0,1,29.09,9a7.08,7.08,0,0,1-.7,4.43,15.16,15.16,0,0,1-3.21,4.32A34,34,0,0,1,19.86,22a.83.83,0,0,1-.93,0A28.67,28.67,0,0,1,12,16.06,11.08,11.08,0,0,1,9.8,11.83a5.62,5.62,0,0,1,.57-4.51,4.83,4.83,0,0,1,4.38-2.4A5.9,5.9,0,0,1,19.1,6.73l.14.16Zm1.73,5.76-.8-1,.24-.08A.62.62,0,0,0,21,11a.6.6,0,0,0-.54-.6,1.35,1.35,0,0,0-.28,0H18.46l-.08,0a2,2,0,0,1,.08.4c0,.49,0,1,0,1.48a4.61,4.61,0,0,1-.07.5h.83c-.28-.31-.1-.66-.17-1,.25.07.53-.12.68.12s.53.47.4.89Zm1.23,0c-.28-.33-.11-.67-.17-1,.25.08.52-.11.66.12s.54.48.43.9h1l-.8-1,.26-.09a.62.62,0,0,0,.43-.66.6.6,0,0,0-.51-.59,2.58,2.58,0,0,0-.4,0H21.48a3.44,3.44,0,0,1,.07.51c0,.43,0,.86,0,1.29,0,.2.06.43-.17.61Zm-5.87.07a4.81,4.81,0,0,0,.48-.06,1.23,1.23,0,0,0,1-1.14A1.21,1.21,0,0,0,17,10.42a1.77,1.77,0,0,0-1.16,0,1.21,1.21,0,0,0,0,2.3A3.33,3.33,0,0,0,16.45,12.87Zm-1.74-2.2c-.15-.05-.28-.08-.4-.13a1.87,1.87,0,0,0-1.45-.09.71.71,0,0,0-.52.78c.05.36.26.55.68.61s.64.06,1,.11c.08,0,.14.1.2.15s-.1.18-.17.2A1.55,1.55,0,0,1,12.53,12l-.23.55.29.06a5.09,5.09,0,0,0,.67.18,1.76,1.76,0,0,0,1.13-.16.63.63,0,0,0,.38-.65.64.64,0,0,0-.48-.58,1.57,1.57,0,0,0-.31-.08c-.28,0-.57,0-.86-.09a.6.6,0,0,1-.25-.15c.07-.07.12-.19.2-.23a1.29,1.29,0,0,1,1.36.32Zm10.84.56-.24-.32c-.12-.15-.32-.29-.06-.5H24.1a7,7,0,0,1,1.07,1.26.12.12,0,0,1,0,.09c0,.34.12.71-.14,1h.83a3.83,3.83,0,0,1-.08-.42c0-.13,0-.27,0-.4a.59.59,0,0,1,.15-.44,5.77,5.77,0,0,1,1-1.12H25.79c.3.16.16.29.06.43Z"/><path d="M19.07,11.35v-.51h1.08c.14,0,.22.1.22.25a.22.22,0,0,1-.23.25Z"/><path d="M22.17,11.36v-.53h1c.15,0,.27.06.27.25s-.12.27-.28.27C22.85,11.37,22.52,11.36,22.17,11.36Z"/><path d="M16.5,12.38a.78.78,0,1,1,.83-.77A.78.78,0,0,1,16.5,12.38Z"/><path d="M19.54,5.14c.51-.45,1-.93,1.5-1.32a7.6,7.6,0,0,1,3.8-1.41,6.83,6.83,0,0,1,3.63.47,6.63,6.63,0,0,1,4,5,9,9,0,0,1-.74,5.32,18,18,0,0,1-3.29,5,39.68,39.68,0,0,1-7.15,6,.62.62,0,0,1-.3.09H18.23a.5.5,0,0,1-.29-.09,40.48,40.48,0,0,1-6.73-5.58A18.6,18.6,0,0,1,7.5,13.2,10.13,10.13,0,0,1,6.63,9,6.64,6.64,0,0,1,12,2.51,7.62,7.62,0,0,1,19.42,5Zm0,1.34-.11-.12A6.52,6.52,0,0,0,13.36,4.2a5.62,5.62,0,0,0-4.7,5.21,8,8,0,0,0,.57,3.51,15.12,15.12,0,0,0,3.16,4.8,34.72,34.72,0,0,0,6.66,5.42.8.8,0,0,0,.25.11,1.08,1.08,0,0,0,1-.19,36.36,36.36,0,0,0,6.17-5,16.66,16.66,0,0,0,3.15-4.3,8.12,8.12,0,0,0,.9-4.67,5.65,5.65,0,0,0-6.27-5,6.62,6.62,0,0,0-3.6,1.37C20.24,5.8,19.92,6.14,19.56,6.48Z"/><path d="M28.71.72h6.23a.42.42,0,0,1,.35.14,9.51,9.51,0,0,1,2.34,5,12.63,12.63,0,0,1-.82,6.49,22.4,22.4,0,0,1-3.47,5.94,41.61,41.61,0,0,1-5.82,5.9.49.49,0,0,1-.25.1H23.9l-.12,0L24,24.1a41.5,41.5,0,0,0,5.4-4.78,21.62,21.62,0,0,0,4.24-6.2,11.74,11.74,0,0,0,1-4.68,7.94,7.94,0,0,0-4.89-7.36C29.42,1,29.09.85,28.71.72Z"/><path d="M10.45.72c-.37.13-.71.23-1,.37A7.73,7.73,0,0,0,4.72,6.87a10.16,10.16,0,0,0,.61,5.69,18.87,18.87,0,0,0,3.24,5.37,38.64,38.64,0,0,0,6.61,6.17l.22.17-.22,0c-1.07,0-2.14,0-3.22,0a.58.58,0,0,1-.32-.12,40.46,40.46,0,0,1-5.57-5.61,21.85,21.85,0,0,1-4-7.06,13.17,13.17,0,0,1-.66-4.35A9.66,9.66,0,0,1,3.84.91.51.51,0,0,1,4.27.72h6.18Z"/><path d="M.74,15.24a40.61,40.61,0,0,0,7.51,9,1.15,1.15,0,0,1-.22,0l-3.81,0a.47.47,0,0,1-.39-.15L.92,20.91a.68.68,0,0,1-.18-.49c0-1.64,0-3.28,0-4.92Z"/><path d="M30.9,24.29a39.66,39.66,0,0,0,7.23-8.6c0,.12,0,.18,0,.24v4.95a.52.52,0,0,1-.12.31l-2.67,2.95a.45.45,0,0,1-.37.16H30.9Z"/><path d="M14.5.72h4a.36.36,0,0,1,.21.11l.88.92L20,1.27c.49-.55.49-.55,1.21-.55h3.45a8.9,8.9,0,0,0-5.09,3.11A8.93,8.93,0,0,0,14.5.72Z"/><path d="M19.56,7.23c.35-.32.66-.65,1-.93a6,6,0,0,1,3.84-1.18,5,5,0,0,1,4.86,4.11,7.18,7.18,0,0,1-.7,4.44A15,15,0,0,1,25.37,18a33.1,33.1,0,0,1-5.32,4.18.81.81,0,0,1-.92,0,28.53,28.53,0,0,1-6.9-5.92A11.08,11.08,0,0,1,10,12a5.57,5.57,0,0,1,.56-4.51A4.84,4.84,0,0,1,15,5.12,5.86,5.86,0,0,1,19.3,6.93l.14.16ZM21.29,13l-.8-1,.24-.08a.62.62,0,0,0,.46-.66.61.61,0,0,0-.55-.6,1.17,1.17,0,0,0-.27,0H18.66l-.09,0a1.55,1.55,0,0,1,.09.39c0,.5,0,1,0,1.48a4.46,4.46,0,0,1-.07.51h.83c-.28-.31-.1-.66-.17-1,.25.07.53-.12.67.12s.54.47.41.89Zm1.22,0c-.27-.32-.1-.66-.16-1,.24.08.52-.11.66.12s.54.48.43.89h.94l-.8-1,.27-.1a.65.65,0,0,0-.08-1.24,1.75,1.75,0,0,0-.4,0H21.68a3.44,3.44,0,0,1,.07.51c0,.43,0,.86,0,1.29,0,.2.06.43-.17.6Zm-5.86.08.48-.07a1.22,1.22,0,0,0,1-1.13,1.2,1.2,0,0,0-.91-1.25,1.77,1.77,0,0,0-1.16,0,1.15,1.15,0,0,0-.82,1.15A1.16,1.16,0,0,0,16.09,13,3.33,3.33,0,0,0,16.65,13.07Zm-1.74-2.2c-.15,0-.28-.08-.4-.13a1.86,1.86,0,0,0-1.46-.09.71.71,0,0,0-.51.78.67.67,0,0,0,.68.6l1,.12c.07,0,.14.1.2.15s-.1.18-.17.2a1.58,1.58,0,0,1-1.49-.26l-.22.55.29.06a5.09,5.09,0,0,0,.67.18,1.76,1.76,0,0,0,1.13-.16.63.63,0,0,0,.38-.65.64.64,0,0,0-.48-.58,1.09,1.09,0,0,0-.31-.08l-.86-.09c-.09,0-.17-.1-.25-.15s.11-.19.2-.23a1.28,1.28,0,0,1,1.36.32Zm10.84.56-.25-.32c-.11-.15-.31-.29-.05-.5H24.3a7,7,0,0,1,1.07,1.26.12.12,0,0,1,.05.09c0,.34.12.71-.14,1h.83a3.83,3.83,0,0,1-.08-.42c0-.13,0-.27,0-.4a.58.58,0,0,1,.15-.44,5.21,5.21,0,0,1,1-1.12H26c.3.16.16.29.06.42Z"/><path d="M19.27,11.54V11h1.08c.14,0,.22.09.22.25a.22.22,0,0,1-.23.25C20,11.55,19.64,11.54,19.27,11.54Z"/><path d="M22.37,11.55V11h1a.24.24,0,0,1,.27.25c0,.2-.12.26-.28.27Z"/><path d="M16.7,12.58a.79.79,0,0,1-.84-.79.84.84,0,0,1,1.67,0A.77.77,0,0,1,16.7,12.58Z"/></g><g class="cls-3"><path d="M19.2,4.8c.51-.45,1-.93,1.5-1.32a7.6,7.6,0,0,1,3.8-1.41,6.73,6.73,0,0,1,3.63.47,6.63,6.63,0,0,1,3.95,5,9,9,0,0,1-.74,5.32,18,18,0,0,1-3.29,4.95,39.68,39.68,0,0,1-7.15,6,.62.62,0,0,1-.3.09H17.89a.5.5,0,0,1-.29-.09,40.48,40.48,0,0,1-6.73-5.58,18.6,18.6,0,0,1-3.71-5.42,10.13,10.13,0,0,1-.87-4.17,6.64,6.64,0,0,1,5.33-6.52,7.62,7.62,0,0,1,7.46,2.5Zm0,1.34L19.11,6A6.52,6.52,0,0,0,13,3.86a5.62,5.62,0,0,0-4.7,5.21,8,8,0,0,0,.57,3.51A15.26,15.26,0,0,0,12,17.38a35.09,35.09,0,0,0,6.67,5.42.8.8,0,0,0,.25.11,1.08,1.08,0,0,0,1-.19,36.36,36.36,0,0,0,6.17-5,16.66,16.66,0,0,0,3.15-4.3,8.12,8.12,0,0,0,.9-4.67,5.65,5.65,0,0,0-6.27-5,6.62,6.62,0,0,0-3.6,1.37C19.9,5.46,19.58,5.8,19.22,6.14Z"/><path d="M28.37.38H34.6A.42.42,0,0,1,35,.52a9.51,9.51,0,0,1,2.34,5A12.63,12.63,0,0,1,36.47,12,22.4,22.4,0,0,1,33,18a41.61,41.61,0,0,1-5.82,5.9.49.49,0,0,1-.25.1H23.56l-.12,0,.21-.17A41.5,41.5,0,0,0,29.05,19a21.62,21.62,0,0,0,4.24-6.2,11.74,11.74,0,0,0,1-4.68A7.94,7.94,0,0,0,29.4.74C29.08.61,28.75.51,28.37.38Z"/><path d="M10.11.38c-.37.13-.71.23-1,.37A7.73,7.73,0,0,0,4.38,6.53,10.16,10.16,0,0,0,5,12.22a18.87,18.87,0,0,0,3.24,5.37,38.64,38.64,0,0,0,6.61,6.17l.22.17-.22,0c-1.07,0-2.14,0-3.22,0a.58.58,0,0,1-.32-.12,40.46,40.46,0,0,1-5.57-5.61,21.85,21.85,0,0,1-4-7.06,13.17,13.17,0,0,1-.66-4.35A9.66,9.66,0,0,1,3.5.57.51.51,0,0,1,3.93.38h6.18Z"/><path d="M.4,14.9a40.84,40.84,0,0,0,7.51,9,1.15,1.15,0,0,1-.22,0L3.88,24a.47.47,0,0,1-.39-.15L.58,20.57a.68.68,0,0,1-.18-.49c0-1.64,0-3.28,0-4.92Z"/><path d="M30.56,24a39.66,39.66,0,0,0,7.23-8.6c0,.12,0,.18,0,.24v4.95a.52.52,0,0,1-.12.31L35,23.8a.45.45,0,0,1-.37.16H30.56Z"/><path d="M14.16.38h4a.31.31,0,0,1,.21.11l.88.92.42-.48c.49-.55.49-.55,1.21-.55h3.45a8.9,8.9,0,0,0-5.09,3.11A8.93,8.93,0,0,0,14.16.38Z"/><path d="M19.22,6.89c.35-.32.66-.65,1-.93a6,6,0,0,1,3.84-1.18A5,5,0,0,1,29,8.89a7.18,7.18,0,0,1-.7,4.44A15,15,0,0,1,25,17.65a33.1,33.1,0,0,1-5.32,4.18.81.81,0,0,1-.92,0,28.53,28.53,0,0,1-6.9-5.92,11.08,11.08,0,0,1-2.23-4.22,5.57,5.57,0,0,1,.56-4.51,4.84,4.84,0,0,1,4.39-2.4A5.86,5.86,0,0,1,19,6.59l.14.16ZM21,12.65l-.8-1,.24-.08a.62.62,0,0,0,.46-.66.61.61,0,0,0-.55-.6,1.26,1.26,0,0,0-.27,0h-1.8a1.73,1.73,0,0,1,.09.4c0,.5,0,1,0,1.48a4.46,4.46,0,0,1-.07.51h.83c-.28-.31-.1-.66-.17-1,.25.07.53-.12.67.12s.54.47.41.89Zm1.22,0c-.27-.32-.1-.66-.16-1,.24.08.52-.11.66.12s.54.48.43.89H24l-.8-1,.27-.1a.65.65,0,0,0-.08-1.24,1.75,1.75,0,0,0-.4,0H21.34a3.44,3.44,0,0,1,.07.51c0,.43,0,.86,0,1.29,0,.2.06.43-.17.6Zm-5.86.08.48-.07a1.22,1.22,0,0,0,.11-2.38,1.77,1.77,0,0,0-1.16,0,1.15,1.15,0,0,0-.82,1.15,1.16,1.16,0,0,0,.83,1.15A3.13,3.13,0,0,0,16.31,12.73Zm-1.74-2.2c-.15,0-.28-.08-.4-.13a1.81,1.81,0,0,0-1.46-.09.71.71,0,0,0-.51.78.67.67,0,0,0,.68.6l1,.12c.07,0,.14.1.2.15s-.1.18-.17.2a1.58,1.58,0,0,1-1.49-.26l-.22.55.29.06a5.09,5.09,0,0,0,.67.18,1.76,1.76,0,0,0,1.13-.16.63.63,0,0,0,.38-.65.66.66,0,0,0-.48-.59,1.73,1.73,0,0,0-.31-.07L13,11.13c-.09,0-.17-.1-.25-.15s.11-.19.2-.23a1.28,1.28,0,0,1,1.36.32Zm10.84.56-.25-.32c-.11-.15-.31-.29-.05-.5H24A7,7,0,0,1,25,11.53a.12.12,0,0,1,0,.09c0,.34.12.71-.14,1h.83a3.83,3.83,0,0,1-.08-.42c0-.13,0-.27,0-.4a.58.58,0,0,1,.15-.44,5.21,5.21,0,0,1,1-1.12H25.65c.3.16.16.29.06.42Z"/><path d="M18.93,11.2v-.51H20c.14,0,.22.09.22.25a.22.22,0,0,1-.23.25C19.65,11.21,19.3,11.2,18.93,11.2Z"/><path d="M22,11.21v-.53h1a.24.24,0,0,1,.27.25c0,.2-.12.26-.28.27Z"/><path d="M16.36,12.24a.79.79,0,0,1-.84-.8.84.84,0,1,1,.84.8Z"/></g><path class="cls-4" d="M19.4,5c.51-.45,1-.93,1.5-1.32a7.53,7.53,0,0,1,3.8-1.41,6.7,6.7,0,0,1,7.58,5.49,9,9,0,0,1-.74,5.32A17.84,17.84,0,0,1,28.25,18a39.33,39.33,0,0,1-7.15,6,.65.65,0,0,1-.3.09H18.09a.58.58,0,0,1-.29-.09,40.05,40.05,0,0,1-6.73-5.59,18.65,18.65,0,0,1-3.72-5.41,10.28,10.28,0,0,1-.86-4.17,6.65,6.65,0,0,1,5.33-6.53,7.65,7.65,0,0,1,7.46,2.51Zm0,1.34-.11-.12a6.55,6.55,0,0,0-6.09-2.17,5.63,5.63,0,0,0-4.7,5.21,8,8,0,0,0,.57,3.52,15.09,15.09,0,0,0,3.15,4.8A35.09,35.09,0,0,0,18.91,23a.71.71,0,0,0,.25.11,1.06,1.06,0,0,0,.95-.19,36,36,0,0,0,6.18-5,16.4,16.4,0,0,0,3.14-4.3A8.08,8.08,0,0,0,30.34,9a5.66,5.66,0,0,0-6.27-5,6.69,6.69,0,0,0-3.6,1.36C20.1,5.66,19.78,6,19.42,6.34Z"/><path class="cls-4" d="M28.57.58H34.8a.39.39,0,0,1,.35.14,9.51,9.51,0,0,1,2.34,5,12.63,12.63,0,0,1-.82,6.49,22.17,22.17,0,0,1-3.48,5.94,41.09,41.09,0,0,1-5.82,5.9.43.43,0,0,1-.24.1H23.76l-.12,0,.21-.17a41.5,41.5,0,0,0,5.4-4.78A21.39,21.39,0,0,0,33.48,13a11.65,11.65,0,0,0,1-4.68A7.94,7.94,0,0,0,29.6.94C29.28.81,29,.71,28.57.58Z"/><path class="cls-4" d="M10.31.58c-.37.13-.71.23-1,.37A7.71,7.71,0,0,0,4.58,6.73a10,10,0,0,0,.61,5.68,18.92,18.92,0,0,0,3.24,5.38A38.28,38.28,0,0,0,15,24l.21.17-.21,0H11.82A.6.6,0,0,1,11.5,24a41,41,0,0,1-5.57-5.61,21.79,21.79,0,0,1-4-7.07A12.82,12.82,0,0,1,1.28,7,9.64,9.64,0,0,1,3.7.77a.52.52,0,0,1,.43-.2h6.18Z"/><path class="cls-4" d="M.6,15.1a40.84,40.84,0,0,0,7.51,9l-.22,0H4.08A.45.45,0,0,1,3.69,24L.78,20.77a.68.68,0,0,1-.18-.49c0-1.64,0-3.28,0-4.92Z"/><path class="cls-4" d="M30.76,24.15A39.66,39.66,0,0,0,38,15.55c0,.12,0,.17,0,.23v5a.52.52,0,0,1-.12.31L35.21,24a.48.48,0,0,1-.37.15H30.76Z"/><path class="cls-4" d="M14.36.58h4a.31.31,0,0,1,.21.11c.29.29.57.6.88.92.13-.16.28-.32.42-.48.48-.55.48-.55,1.21-.55h3.45a8.9,8.9,0,0,0-5.09,3.11A8.93,8.93,0,0,0,14.36.58Z"/><path class="cls-4" d="M19.42,7.08c.34-.31.66-.65,1-.92A6,6,0,0,1,24.29,5a5.05,5.05,0,0,1,4.86,4.11,7.18,7.18,0,0,1-.7,4.44,15.15,15.15,0,0,1-3.22,4.32A33,33,0,0,1,19.91,22,.8.8,0,0,1,19,22a28.75,28.75,0,0,1-6.9-5.92,10.91,10.91,0,0,1-2.23-4.23,5.55,5.55,0,0,1,.56-4.5A4.84,4.84,0,0,1,14.81,5a5.82,5.82,0,0,1,4.34,1.81L19.3,7Zm1.73,5.77-.8-1,.24-.08a.6.6,0,0,0,.45-.65.61.61,0,0,0-.54-.61l-.27,0h-1.8a1.73,1.73,0,0,1,.09.4c0,.5,0,1,0,1.48a3,3,0,0,1-.08.51h.84c-.28-.32-.1-.66-.17-1,.25.08.53-.12.67.13s.54.47.41.89Zm1.22,0c-.27-.32-.1-.66-.17-1,.25.08.53-.12.67.12s.54.48.43.89h.94l-.8-1,.27-.1a.65.65,0,0,0-.08-1.24,1.81,1.81,0,0,0-.4,0h-1.7a3.23,3.23,0,0,1,.08.5q0,.65,0,1.29c0,.21.07.43-.16.61Zm-5.86.08.48-.07a1.22,1.22,0,0,0,.11-2.38,1.77,1.77,0,0,0-1.16,0,1.15,1.15,0,0,0-.82,1.15A1.16,1.16,0,0,0,16,12.81C16.14,12.87,16.34,12.89,16.51,12.93Zm-1.74-2.2a3.09,3.09,0,0,1-.4-.14,1.85,1.85,0,0,0-1.46-.08.7.7,0,0,0-.51.78.67.67,0,0,0,.68.6L14,12c.07,0,.13.09.2.15s-.1.18-.18.2a1.56,1.56,0,0,1-1.48-.26l-.22.55.29.06a5.09,5.09,0,0,0,.67.18,1.78,1.78,0,0,0,1.13-.16.65.65,0,0,0,.38-.66.66.66,0,0,0-.48-.58,1.73,1.73,0,0,0-.31-.07c-.29,0-.58-.05-.86-.09a.92.92,0,0,1-.25-.15c.06-.08.11-.19.2-.23a1.28,1.28,0,0,1,1.36.32Zm10.84.56c-.09-.13-.17-.22-.25-.32s-.31-.3-.05-.5H24.16a7.32,7.32,0,0,1,1.07,1.25.24.24,0,0,1,.05.1c0,.34.12.7-.14,1H26a3.68,3.68,0,0,1-.08-.41c0-.14,0-.27,0-.41a.59.59,0,0,1,.15-.44,5.73,5.73,0,0,1,1-1.12H25.85c.3.17.15.3,0,.43Z"/><path class="cls-4" d="M19.13,11.4v-.51h1.08c.14,0,.22.09.22.25a.23.23,0,0,1-.23.25Z"/><path class="cls-4" d="M22.23,11.41v-.53c.34,0,.68,0,1,0a.24.24,0,0,1,.27.25c0,.2-.13.26-.28.27Z"/><path class="cls-4" d="M16.56,12.44a.8.8,0,0,1-.84-.8.84.84,0,1,1,.84.8Z"/></g></g></svg>