<svg xmlns="http://www.w3.org/2000/svg" viewBox="0 0 38.55 24.66"><defs><style>.cls-1{isolation:isolate;}.cls-2{opacity:0.15;}.cls-2,.cls-3{mix-blend-mode:multiply;}.cls-4{fill:#fff;}</style></defs><title>convert-FIX-SVG-03</title><g class="cls-1"><g id="Layer_1" data-name="Layer 1"><g class="cls-2"><path d="M22.38,14.68V14.5l.07,0c.55,0,.63-.13.63-.67v-3c0-.51-.09-.61-.61-.65l-.09,0s0-.05,0-.08a.49.49,0,0,1,0-.11h1.87a4.5,4.5,0,0,1,.9.08,1.13,1.13,0,0,1,1,1.19,1.23,1.23,0,0,1-1.07,1.1.27.27,0,0,0-.14,0c.68.17.95.75,1.3,1.25a4.57,4.57,0,0,0,.45.61.85.85,0,0,0,1,.16.43.43,0,0,0,.19-.32c0-1.16,0-2.32,0-3.47a.36.36,0,0,0-.34-.39l-.35-.06V10s0,0,.05,0c.84,0,1.68,0,2.51,0a1.17,1.17,0,0,1,.12,2.33l-.18,0,.17.07a1.44,1.44,0,0,1,.74.57c.21.3.4.61.61.91a1.09,1.09,0,0,0,.83.59v.18l0,0c-.3,0-.61,0-.91,0a.35.35,0,0,1-.23-.12c-.18-.24-.37-.5-.54-.75s-.32-.52-.47-.78a1,1,0,0,0-1.23-.55v.22c0,.4,0,.8,0,1.2s.1.52.52.57h.16l0,.18-.07,0h-3a.34.34,0,0,1-.23-.11q-.3-.4-.57-.81c-.18-.26-.34-.52-.49-.79a1,1,0,0,0-1.18-.5c0,.55,0,1.1,0,1.66a.34.34,0,0,0,.29.3c.12,0,.25,0,.39.06v.19Zm6.24-4.54v2.09c.3,0,.58,0,.86,0a.68.68,0,0,0,.65-.57,2.61,2.61,0,0,0,0-.79.69.69,0,0,0-.59-.61A7,7,0,0,0,28.62,10.14ZM23.8,12.2a7.24,7.24,0,0,0,.81,0c.45,0,.65-.27.74-.76a1,1,0,0,0-.41-1.13.5.5,0,0,0-.2-.08l-.94-.08Z"/><path d="M8.08,14.78a2.4,2.4,0,0,1-2.5-2.51A2.38,2.38,0,0,1,8.12,9.82a2.41,2.41,0,0,1,2.5,2.48A2.44,2.44,0,0,1,8.08,14.78Zm1.71-2.53a3.22,3.22,0,0,0-.26-1.31A1.46,1.46,0,0,0,8.15,10a1.44,1.44,0,0,0-1.48.88,3.25,3.25,0,0,0,0,2.84,1.39,1.39,0,0,0,1.39.79,1.44,1.44,0,0,0,1.38-.8A3.12,3.12,0,0,0,9.79,12.25Z"/><path d="M19.38,14.78a2.4,2.4,0,0,1-2.49-2.51,2.38,2.38,0,0,1,2.54-2.45,2.4,2.4,0,0,1,2.5,2.49A2.43,2.43,0,0,1,19.38,14.78Zm1.72-2.49a3.36,3.36,0,0,0-.26-1.36,1.6,1.6,0,0,0-2.86,0A3.26,3.26,0,0,0,18,13.76a1.38,1.38,0,0,0,1.37.78,1.43,1.43,0,0,0,1.39-.8A3.13,3.13,0,0,0,21.1,12.29Z"/><path d="M2,13.19l.09,0h.08s0,0,0,.06a1.69,1.69,0,0,0,.47.88,1.17,1.17,0,0,0,1.32.29A.83.83,0,0,0,4.26,13a3.16,3.16,0,0,0-.64-.44c-.26-.15-.54-.25-.79-.39A1.34,1.34,0,0,1,2,11.12a1.2,1.2,0,0,1,1.18-1.3,1.67,1.67,0,0,1,1.17.32c.14-.05.1-.33.34-.24v1.22c-.15.08-.2,0-.24-.13a1.17,1.17,0,0,0-.83-.93,1,1,0,0,0-.72.06.63.63,0,0,0-.2,1,2.63,2.63,0,0,0,.59.45c.28.16.59.29.88.45a1.45,1.45,0,0,1,.72,1.88,1.41,1.41,0,0,1-1.84.79,4.83,4.83,0,0,1-.79-.39c-.13.08,0,.41-.36.33V13.38C1.94,13.31,1.94,13.25,2,13.19Z"/><path d="M15.7,10.14c.13-.07.09-.32.33-.25v1.24c-.16.07-.2,0-.24-.15-.13-.44-.34-.82-.82-.91a1.23,1.23,0,0,0-.71.06.61.61,0,0,0-.21,1,2.33,2.33,0,0,0,.59.44c.29.17.61.3.9.46a1.46,1.46,0,0,1,.27,2.43,1.5,1.5,0,0,1-1.65.15,5.89,5.89,0,0,1-.54-.32c-.15.08,0,.42-.36.35V13.2c.14-.07.18,0,.23.13a3.33,3.33,0,0,0,.44.78,1.12,1.12,0,0,0,1.29.31A.83.83,0,0,0,15.56,13a3.42,3.42,0,0,0-.62-.43c-.26-.14-.54-.25-.8-.39a1.33,1.33,0,0,1-.8-1.09,1.2,1.2,0,0,1,1.19-1.28A1.72,1.72,0,0,1,15.7,10.14Z"/><path d="M33.88,10v.18l-.16,0c-.34,0-.42.13-.25.44s.31.53.47.8l.52.9.38-.61c.22-.37.45-.74.66-1.11s.11-.33-.17-.39l-.38,0,0-.18h1.69v.2a1.11,1.11,0,0,0-1,.7c-.31.54-.64,1.05-1,1.58a.7.7,0,0,0-.09.29c0,.37,0,.75,0,1.12s.11.58.56.62h.12l0,0v.16h-2.1v-.19c.68-.1.66-.14.71-.82a2.67,2.67,0,0,0-.59-2,9,9,0,0,1-.63-1,.91.91,0,0,0-.81-.54V10Z"/><path d="M20.56,19.42a.52.52,0,1,1,.52-.52A.52.52,0,0,1,20.56,19.42Z"/><path d="M2.67,19.42a.53.53,0,0,1-.52-.53.53.53,0,0,1,1.05,0A.53.53,0,0,1,2.67,19.42Z"/><path d="M28.75,18.89a.54.54,0,0,1-.52.53.53.53,0,0,1-.53-.52.53.53,0,0,1,1.05,0Z"/><path d="M36.42,18.9a.54.54,0,0,1-.53.52.52.52,0,0,1,0-1A.55.55,0,0,1,36.42,18.9Z"/><path d="M13.42,18.9a.52.52,0,0,1-.53.52.52.52,0,1,1,.53-.52Z"/><path d="M9.82,18.91a.52.52,0,0,1,.52-.53.53.53,0,0,1,.52.53.52.52,0,0,1-1,0Z"/><path d="M5.75,18.9a.52.52,0,1,1-1,0,.54.54,0,0,1,.53-.52A.53.53,0,0,1,5.75,18.9Z"/><path d="M18,18.38a.52.52,0,1,1,0,1,.52.52,0,0,1,0-1Z"/><path d="M25.68,21.21a.51.51,0,1,1-.53.51A.51.51,0,0,1,25.68,21.21Z"/><path d="M15.44,4.9a.5.5,0,0,1-.5-.53.48.48,0,0,1,.52-.49.49.49,0,0,1,.5.51A.5.5,0,0,1,15.44,4.9Z"/><path d="M7.78,4.9a.51.51,0,1,1,0-1,.51.51,0,1,1,0,1Z"/><path d="M2.68,1.05a.52.52,0,0,1,.52.53.52.52,0,0,1-.54.5.51.51,0,0,1-.51-.51A.53.53,0,0,1,2.68,1.05Z"/><path d="M13.42,1.58a.53.53,0,0,1-1.05,0,.53.53,0,0,1,1.05,0Z"/><path d="M18,1.05a.52.52,0,0,1,.53.52.51.51,0,0,1-.52.51.5.5,0,0,1-.52-.49A.53.53,0,0,1,18,1.05Z"/><path d="M20.56,2.08a.52.52,0,1,1,0-1,.52.52,0,0,1,.53.52A.51.51,0,0,1,20.56,2.08Z"/><path d="M28.23,2.08a.52.52,0,0,1-.53-.51.53.53,0,0,1,.53-.52.53.53,0,0,1,.52.5A.51.51,0,0,1,28.23,2.08Z"/><path d="M23.63,4.38a.5.5,0,0,1-.52.52.5.5,0,0,1-.51-.5.5.5,0,0,1,.52-.52A.49.49,0,0,1,23.63,4.38Z"/><path d="M18,22.23a.5.5,0,0,1-.51-.51.51.51,0,0,1,.52-.51.51.51,0,1,1,0,1Z"/><path d="M5.24,1.05a.53.53,0,0,1,.51.54.51.51,0,0,1-.53.49.51.51,0,0,1-.51-.51A.52.52,0,0,1,5.24,1.05Z"/><path d="M10.34,1.05a.52.52,0,0,1,.52.51.52.52,0,0,1-1,0A.52.52,0,0,1,10.34,1.05Z"/><path d="M2.66,22.23a.51.51,0,0,1-.51-.51.53.53,0,0,1,1.05,0A.51.51,0,0,1,2.66,22.23Z"/><path d="M30.78,22.23a.51.51,0,1,1,0-1,.51.51,0,1,1,0,1Z"/><path d="M10.34,4.9a.52.52,0,0,1-.52-.52.52.52,0,0,1,1,0A.52.52,0,0,1,10.34,4.9Z"/><path d="M26.19,18.9a.52.52,0,1,1-.51-.52A.53.53,0,0,1,26.19,18.9Z"/><path d="M26.19,4.4a.52.52,0,0,1-1,0,.52.52,0,0,1,1,0Z"/><path d="M28.24,4.9a.51.51,0,1,1,0-1,.5.5,0,0,1,.53.51A.51.51,0,0,1,28.24,4.9Z"/><path d="M33.85,21.73a.49.49,0,0,1-.53.5.51.51,0,1,1,.53-.5Z"/><path d="M35.9,4.9a.52.52,0,0,1-.53-.51.52.52,0,0,1,1,0A.51.51,0,0,1,35.9,4.9Z"/><path d="M12.88,22.23a.51.51,0,0,1-.51-.51.53.53,0,0,1,1.05,0A.51.51,0,0,1,12.88,22.23Z"/><path d="M10.34,22.23a.5.5,0,0,1-.52-.52.51.51,0,0,1,.52-.5.51.51,0,1,1,0,1Z"/><path d="M35.88,22.23a.51.51,0,1,1,.53-.5A.51.51,0,0,1,35.88,22.23Z"/><path d="M8.3,1.57a.52.52,0,0,1-1,0,.52.52,0,1,1,1,0Z"/><path d="M12.9,4.9a.51.51,0,1,1,0-1,.51.51,0,0,1,.53.51A.53.53,0,0,1,12.9,4.9Z"/><path d="M18,4.9a.5.5,0,0,1-.52-.52.5.5,0,0,1,.51-.5.51.51,0,1,1,0,1Z"/><path d="M35.89,2.08a.52.52,0,0,1-.52-.52.52.52,0,0,1,1,0A.52.52,0,0,1,35.89,2.08Z"/><path d="M33.85,4.39a.52.52,0,0,1-1,0,.52.52,0,0,1,1,0Z"/><path d="M28.21,22.23a.51.51,0,0,1-.51-.51.53.53,0,0,1,.54-.51.52.52,0,0,1,.51.51A.51.51,0,0,1,28.21,22.23Z"/><path d="M23.11,21.21a.5.5,0,0,1,.52.52.52.52,0,1,1-.52-.52Z"/><path d="M20.54,22.23a.5.5,0,0,1-.5-.51.52.52,0,0,1,1,0A.51.51,0,0,1,20.54,22.23Z"/><path d="M5.24,22.23a.5.5,0,0,1-.53-.51.52.52,0,0,1,1,0A.5.5,0,0,1,5.24,22.23Z"/><path d="M15.45,2.08a.49.49,0,0,1-.51-.5.51.51,0,1,1,1,0A.49.49,0,0,1,15.45,2.08Z"/><path d="M23.63,1.57a.52.52,0,0,1-1,0,.52.52,0,1,1,1,0Z"/><path d="M26.19,1.57a.51.51,0,0,1-.51.51.51.51,0,0,1-.53-.52.51.51,0,0,1,.51-.51A.52.52,0,0,1,26.19,1.57Z"/><path d="M20.56,4.9a.51.51,0,1,1,0-1,.5.5,0,0,1,.52.52A.51.51,0,0,1,20.56,4.9Z"/><path d="M33.85,1.57a.52.52,0,0,1-1,0,.52.52,0,1,1,1,0Z"/><path d="M30.79,3.88a.51.51,0,1,1-.52.49A.49.49,0,0,1,30.79,3.88Z"/><path d="M8.3,18.91a.52.52,0,0,1-1,0,.53.53,0,0,1,.51-.52A.52.52,0,0,1,8.3,18.91Z"/><path d="M16,18.89a.5.5,0,0,1-.51.53.52.52,0,1,1,.51-.53Z"/><path d="M23.63,18.89a.52.52,0,1,1-.51-.51A.51.51,0,0,1,23.63,18.89Z"/><path d="M30.27,18.89a.51.51,0,0,1,.51-.51.52.52,0,1,1,0,1A.5.5,0,0,1,30.27,18.89Z"/><path d="M2.67,4.9a.53.53,0,0,1-.52-.51.51.51,0,0,1,.53-.51.51.51,0,0,1,.52.5A.52.52,0,0,1,2.67,4.9Z"/><path d="M5.22,3.88a.5.5,0,0,1,.53.51.51.51,0,0,1-.51.51.51.51,0,1,1,0-1Z"/><path d="M32.82,18.89a.52.52,0,0,1,.52-.51.51.51,0,0,1,.51.53.52.52,0,1,1-1,0Z"/><path d="M31.3,1.56a.5.5,0,0,1-.52.52.49.49,0,0,1-.51-.5.5.5,0,0,1,.51-.53A.53.53,0,0,1,31.3,1.56Z"/><path d="M16,21.73a.48.48,0,0,1-.52.5.51.51,0,1,1,.52-.5Z"/><path d="M7.78,21.21a.51.51,0,1,1-.51.5A.49.49,0,0,1,7.78,21.21Z"/><path d="M24.41,23.5a.37.37,0,0,1-.36-.36.35.35,0,0,1,.36-.36.35.35,0,0,1,.36.36A.36.36,0,0,1,24.41,23.5Z"/><path d="M14.48,23.13a.37.37,0,0,1-.36.37.35.35,0,0,1-.36-.36.34.34,0,0,1,.35-.36A.37.37,0,0,1,14.48,23.13Z"/><path d="M1.6,20.38a.36.36,0,0,1-.36.36.37.37,0,0,1-.36-.37A.36.36,0,0,1,1.25,20,.34.34,0,0,1,1.6,20.38Z"/><path d="M3.79,6.17a.37.37,0,0,1-.33-.42.36.36,0,0,1,.41-.3.35.35,0,0,1,.31.38A.37.37,0,0,1,3.79,6.17Z"/><path d="M3.82,20a.35.35,0,0,1,.36.36.37.37,0,0,1-.36.36.37.37,0,0,1-.36-.37A.34.34,0,0,1,3.82,20Z"/><path d="M3.81,22.78a.35.35,0,0,1,.37.35.37.37,0,0,1-.36.37.36.36,0,0,1-.36-.36A.34.34,0,0,1,3.81,22.78Z"/><path d="M11.55,22.78a.34.34,0,0,1,.35.36.35.35,0,0,1-.37.36.37.37,0,0,1-.35-.37A.35.35,0,0,1,11.55,22.78Z"/><path d="M16.7,20.74a.37.37,0,0,1-.37-.36.34.34,0,0,1,.35-.36.37.37,0,0,1,.38.35A.39.39,0,0,1,16.7,20.74Z"/><path d="M26.63,23.11a.35.35,0,0,1,.39-.33.37.37,0,0,1,.33.39.38.38,0,0,1-.39.33A.36.36,0,0,1,26.63,23.11Z"/><path d="M34.72,23.5a.37.37,0,0,1-.37-.36.34.34,0,0,1,.35-.36.35.35,0,0,1,.37.35A.37.37,0,0,1,34.72,23.5Z"/><path d="M34.7,6.17a.37.37,0,0,1-.35-.37.36.36,0,0,1,.72,0A.37.37,0,0,1,34.7,6.17Z"/><path d="M37.28,20.74a.35.35,0,0,1-.35-.37.34.34,0,0,1,.36-.35.35.35,0,0,1,.36.36A.38.38,0,0,1,37.28,20.74Z"/><path d="M34.7,20a.35.35,0,0,1,.37.35.36.36,0,1,1-.72,0A.35.35,0,0,1,34.7,20Z"/><path d="M17.06,5.79a.4.4,0,0,1-.36.38.37.37,0,0,1-.37-.36.34.34,0,0,1,.35-.36A.36.36,0,0,1,17.06,5.79Z"/><path d="M32.12,5.45a.34.34,0,0,1,.37.34.37.37,0,0,1-.35.38.38.38,0,0,1-.37-.36A.35.35,0,0,1,32.12,5.45Z"/><path d="M11.9,3a.36.36,0,1,1-.72,0,.35.35,0,0,1,.36-.35A.34.34,0,0,1,11.9,3Z"/><path d="M14.48,20.37a.37.37,0,0,1-.36.37.36.36,0,0,1-.36-.36.34.34,0,0,1,.35-.36A.35.35,0,0,1,14.48,20.37Z"/><path d="M27,6.17a.37.37,0,0,1-.35-.37A.34.34,0,0,1,27,5.45a.35.35,0,0,1,.36.36A.37.37,0,0,1,27,6.17Z"/><path d="M11.55,20a.34.34,0,0,1,.35.36.36.36,0,1,1-.72,0A.35.35,0,0,1,11.55,20Z"/><path d="M22.19,5.81a.36.36,0,0,1-.36.36.38.38,0,0,1-.36-.38.36.36,0,0,1,.38-.34A.33.33,0,0,1,22.19,5.81Z"/><path d="M1.6,5.81a.36.36,0,0,1-.36.36A.38.38,0,0,1,.88,5.8a.35.35,0,0,1,.37-.35A.34.34,0,0,1,1.6,5.81Z"/><path d="M37.27,22.78a.37.37,0,0,1,.38.35.38.38,0,0,1-.36.37.35.35,0,0,1-.36-.35A.34.34,0,0,1,37.27,22.78Z"/><path d="M1.6,23.13a.36.36,0,0,1-.35.37.38.38,0,0,1-.37-.36.36.36,0,0,1,.36-.36A.34.34,0,0,1,1.6,23.13Z"/><path d="M22.19,20.38a.35.35,0,0,1-.35.36.38.38,0,0,1-.37-.36.36.36,0,0,1,.37-.36A.34.34,0,0,1,22.19,20.38Z"/><path d="M9.33,23.13A.37.37,0,0,1,9,23.5a.38.38,0,0,1-.38-.35A.37.37,0,0,1,9,22.78.36.36,0,0,1,9.33,23.13Z"/><path d="M14.11,6.17a.36.36,0,0,1-.35-.37.34.34,0,0,1,.36-.35.35.35,0,0,1,.36.36A.38.38,0,0,1,14.11,6.17Z"/><path d="M24.41,6.17a.37.37,0,0,1-.36-.37.36.36,0,0,1,.72,0A.37.37,0,0,1,24.41,6.17Z"/><path d="M19.63,23.14a.37.37,0,0,1-.37.36.37.37,0,0,1-.36-.37.37.37,0,0,1,.73,0Z"/><path d="M27,2.69a.36.36,0,1,1,0,.71.36.36,0,1,1,0-.71Z"/><path d="M24.77,20.38a.36.36,0,0,1-.36.36.37.37,0,0,1-.36-.37.35.35,0,0,1,.37-.35A.34.34,0,0,1,24.77,20.38Z"/><path d="M27.35,20.37a.37.37,0,0,1-.36.37.36.36,0,0,1-.36-.36A.34.34,0,0,1,27,20,.35.35,0,0,1,27.35,20.37Z"/><path d="M9,6.17A.39.39,0,0,1,8.6,5.8.36.36,0,0,1,9,5.45a.35.35,0,0,1,.36.36A.37.37,0,0,1,9,6.17Z"/><path d="M6.76,5.8a.38.38,0,0,1-.37.37A.36.36,0,0,1,6,5.79a.33.33,0,0,1,.35-.34A.36.36,0,0,1,6.76,5.8Z"/><path d="M1.24,3.4A.37.37,0,0,1,.88,3a.35.35,0,0,1,.38-.34A.33.33,0,0,1,1.6,3,.35.35,0,0,1,1.24,3.4Z"/><path d="M3.81,2.69A.35.35,0,0,1,4.18,3a.36.36,0,0,1-.35.36.35.35,0,0,1-.37-.35A.34.34,0,0,1,3.81,2.69Z"/><path d="M14.48,3.05a.36.36,0,0,1-.37.35A.35.35,0,0,1,13.76,3a.33.33,0,0,1,.35-.34A.35.35,0,0,1,14.48,3.05Z"/><path d="M37.65,3.05a.37.37,0,0,1-.38.35A.35.35,0,0,1,36.93,3a.34.34,0,0,1,.36-.33A.35.35,0,0,1,37.65,3.05Z"/><path d="M19.27,2.69a.34.34,0,0,1,.35.36.35.35,0,0,1-.35.35A.36.36,0,0,1,18.9,3,.35.35,0,0,1,19.27,2.69Z"/><path d="M24.77,3.05a.35.35,0,0,1-.37.35A.36.36,0,0,1,24.05,3a.35.35,0,0,1,.37-.35A.34.34,0,0,1,24.77,3.05Z"/><path d="M6.76,23.13a.39.39,0,0,1-.36.37A.35.35,0,0,1,6,23.14a.33.33,0,0,1,.35-.36A.37.37,0,0,1,6.76,23.13Z"/><path d="M34.71,3.4A.36.36,0,0,1,34.35,3a.34.34,0,0,1,.36-.35.35.35,0,0,1,.36.35A.36.36,0,0,1,34.71,3.4Z"/><path d="M6.4,20.74A.36.36,0,0,1,6,20.38.34.34,0,0,1,6.38,20a.37.37,0,0,1,.38.35A.38.38,0,0,1,6.4,20.74Z"/><path d="M9.33,20.38a.38.38,0,0,1-.37.36.39.39,0,0,1-.36-.37A.37.37,0,0,1,9,20,.36.36,0,0,1,9.33,20.38Z"/><path d="M16.69,22.78a.36.36,0,1,1,0,.72.35.35,0,0,1-.36-.36A.35.35,0,0,1,16.69,22.78Z"/><path d="M19.62,20.37a.36.36,0,0,1-.36.37.38.38,0,0,1-.36-.37.37.37,0,0,1,.36-.35A.35.35,0,0,1,19.62,20.37Z"/><path d="M21.84,23.5a.39.39,0,0,1-.37-.36.36.36,0,0,1,.36-.36.36.36,0,0,1,0,.72Z"/><path d="M11.54,5.45a.34.34,0,0,1,.36.35.36.36,0,0,1-.36.37.37.37,0,0,1-.36-.37A.34.34,0,0,1,11.54,5.45Z"/><path d="M37.28,6.17a.37.37,0,0,1-.35-.37.34.34,0,0,1,.36-.35.35.35,0,0,1,.36.36A.39.39,0,0,1,37.28,6.17Z"/><path d="M29.56,22.78a.37.37,0,0,1,.37.36.38.38,0,0,1-.38.36.37.37,0,0,1-.35-.36A.35.35,0,0,1,29.56,22.78Z"/><path d="M32.49,20.39a.35.35,0,0,1-.36.35.37.37,0,0,1-.36-.37.36.36,0,0,1,.37-.35A.35.35,0,0,1,32.49,20.39Z"/><path d="M19.62,5.79a.37.37,0,0,1-.35.38.38.38,0,0,1-.37-.37.35.35,0,0,1,.35-.35A.34.34,0,0,1,19.62,5.79Z"/><path d="M21.83,2.69a.36.36,0,1,1,0,.71.37.37,0,0,1-.36-.35A.36.36,0,0,1,21.83,2.69Z"/><path d="M9,3.4a.37.37,0,0,1-.37-.35A.36.36,0,0,1,9,2.69.35.35,0,0,1,9.33,3,.36.36,0,0,1,9,3.4Z"/><path d="M32.49,23.13a.36.36,0,0,1-.35.37.37.37,0,0,1-.37-.36.36.36,0,0,1,.36-.36A.34.34,0,0,1,32.49,23.13Z"/><path d="M29.57,5.45a.36.36,0,0,1,.36.36.4.4,0,0,1-.36.36.37.37,0,0,1-.37-.37A.35.35,0,0,1,29.57,5.45Z"/><path d="M32.49,3.06a.35.35,0,0,1-.38.34A.36.36,0,0,1,31.77,3a.35.35,0,0,1,.37-.35A.34.34,0,0,1,32.49,3.06Z"/><path d="M6.76,3a.37.37,0,0,1-.36.37A.34.34,0,0,1,6,3.06a.33.33,0,0,1,.34-.37A.35.35,0,0,1,6.76,3Z"/><path d="M29.57,20a.36.36,0,0,1,.35.37.37.37,0,0,1-.36.35.36.36,0,1,1,0-.72Z"/><path d="M17.06,3.05a.37.37,0,0,1-.37.35A.35.35,0,0,1,16.33,3a.35.35,0,0,1,.37-.35A.36.36,0,0,1,17.06,3.05Z"/><path d="M29.93,3.05a.37.37,0,0,1-.38.35A.36.36,0,0,1,29.2,3a.35.35,0,0,1,.36-.34A.36.36,0,0,1,29.93,3.05Z"/><path d="M22.57,14.88v-.19l.08,0c.55,0,.63-.13.63-.68V11c0-.52-.09-.61-.61-.65l-.09,0a.22.22,0,0,1,0-.08.57.57,0,0,1,0-.12c.63,0,1.25,0,1.87,0a4.56,4.56,0,0,1,.9.08,1.13,1.13,0,0,1,1,1.19,1.23,1.23,0,0,1-1.07,1.09l-.15,0c.69.18,1,.76,1.31,1.26a5.32,5.32,0,0,0,.45.61.85.85,0,0,0,1,.16.43.43,0,0,0,.19-.32c0-1.16,0-2.32,0-3.47a.38.38,0,0,0-.34-.4l-.35-.05,0-.16.05,0c.84,0,1.68,0,2.52,0a1.17,1.17,0,0,1,.12,2.33l-.18,0,.17.07a1.44,1.44,0,0,1,.74.57c.21.3.4.61.61.91a1.08,1.08,0,0,0,.83.59v.18l0,0h-.91a.35.35,0,0,1-.23-.12c-.19-.25-.37-.5-.54-.76s-.32-.51-.47-.77a1,1,0,0,0-1.23-.56v.23c0,.4,0,.8,0,1.2s.1.52.52.57h.16l0,.18-.07,0h-3a.31.31,0,0,1-.23-.12c-.2-.26-.39-.53-.58-.8s-.33-.53-.48-.8A1,1,0,0,0,24,12.67c0,.55,0,1.1,0,1.66a.32.32,0,0,0,.29.29,2.26,2.26,0,0,0,.39.07v.19Zm6.25-4.55v2.1c.3,0,.58,0,.86,0a.69.69,0,0,0,.65-.57,2.61,2.61,0,0,0,0-.79.7.7,0,0,0-.59-.61A9.09,9.09,0,0,0,28.82,10.33ZM24,12.4a7.24,7.24,0,0,0,.81,0c.45-.05.65-.27.74-.76a1,1,0,0,0-.41-1.13.39.39,0,0,0-.2-.08c-.31,0-.62-.06-.94-.09Z"/><path d="M8.28,15a2.4,2.4,0,0,1-2.5-2.51A2.39,2.39,0,0,1,8.32,10a2.49,2.49,0,1,1,0,5ZM10,12.45a3.22,3.22,0,0,0-.26-1.31,1.45,1.45,0,0,0-1.38-.91,1.45,1.45,0,0,0-1.49.88,3.29,3.29,0,0,0,0,2.84,1.39,1.39,0,0,0,1.39.79,1.43,1.43,0,0,0,1.38-.81A3.17,3.17,0,0,0,10,12.45Z"/><path d="M19.58,15a2.39,2.39,0,0,1-2.49-2.51A2.39,2.39,0,0,1,19.63,10a2.49,2.49,0,1,1-.05,5Zm1.72-2.49A3.36,3.36,0,0,0,21,11.13a1.6,1.6,0,0,0-2.86,0A3.26,3.26,0,0,0,18.23,14a1.4,1.4,0,0,0,1.37.78,1.44,1.44,0,0,0,1.39-.8A3.13,3.13,0,0,0,21.3,12.49Z"/><path d="M2.14,13.38h.18l0,.06a1.74,1.74,0,0,0,.46.88,1.21,1.21,0,0,0,1.33.29.83.83,0,0,0,.31-1.39,2.74,2.74,0,0,0-.63-.44c-.26-.15-.54-.25-.8-.4a1.35,1.35,0,0,1-.8-1.07A1.22,1.22,0,0,1,3.41,10a1.69,1.69,0,0,1,1.17.33c.14-.05.1-.34.34-.25v1.23c-.15.08-.2,0-.24-.13a1.18,1.18,0,0,0-.83-.94,1,1,0,0,0-.72.07.63.63,0,0,0-.2,1,2.57,2.57,0,0,0,.58.45c.29.16.6.28.89.44a1.46,1.46,0,0,1,.71,1.89,1.4,1.4,0,0,1-1.83.79,6.55,6.55,0,0,1-.8-.39c-.12.08,0,.41-.35.33V13.57C2.13,13.51,2.14,13.45,2.14,13.38Z"/><path d="M15.9,10.34c.13-.07.09-.32.33-.25v1.24c-.17.07-.21,0-.24-.16a1.12,1.12,0,0,0-.82-.9,1.23,1.23,0,0,0-.71.06.61.61,0,0,0-.21,1,2.28,2.28,0,0,0,.58.44c.3.17.61.29.91.46A1.46,1.46,0,0,1,16,14.67a1.48,1.48,0,0,1-1.65.14,5.79,5.79,0,0,1-.54-.31c-.15.08,0,.42-.36.35V13.39c.14-.06.17,0,.23.14a3.33,3.33,0,0,0,.44.78,1.12,1.12,0,0,0,1.29.31.83.83,0,0,0,.34-1.41,3,3,0,0,0-.62-.43c-.26-.15-.54-.25-.8-.39a1.33,1.33,0,0,1-.8-1.09A1.21,1.21,0,0,1,14.73,10,1.73,1.73,0,0,1,15.9,10.34Z"/><path d="M34.08,10.15v.19l-.17,0c-.34,0-.41.13-.24.43s.31.54.47.81l.52.9.38-.62c.22-.36.45-.73.66-1.1s.11-.33-.17-.39l-.38-.05,0-.18h1.69v.2a1.11,1.11,0,0,0-1,.7c-.31.53-.64,1-1,1.57a.64.64,0,0,0-.08.3c0,.37,0,.75,0,1.12s.11.57.56.62h.12s0,0,0,0v.15h-2.1v-.18c.67-.11.66-.14.71-.83a2.66,2.66,0,0,0-.59-2,8.19,8.19,0,0,1-.63-1,.92.92,0,0,0-.81-.53v-.21Z"/><path d="M20.76,19.62a.52.52,0,0,1,0-1,.52.52,0,1,1,0,1Z"/><path d="M2.87,19.62a.53.53,0,0,1-.52-.53.53.53,0,0,1,1,0A.53.53,0,0,1,2.87,19.62Z"/><path d="M29,19.09a.53.53,0,1,1-.54-.51A.54.54,0,0,1,29,19.09Z"/><path d="M36.61,19.1a.52.52,0,1,1-1,0,.52.52,0,0,1,1,0Z"/><path d="M13.61,19.1a.52.52,0,0,1-.52.52.52.52,0,1,1,.52-.52Z"/><path d="M10,19.11a.52.52,0,0,1,.52-.53.53.53,0,0,1,.52.53.52.52,0,0,1-1,0Z"/><path d="M6,19.1a.52.52,0,1,1-1,0,.52.52,0,1,1,1,0Z"/><path d="M18.21,18.58a.52.52,0,1,1-.52.52A.52.52,0,0,1,18.21,18.58Z"/><path d="M25.88,21.41a.51.51,0,1,1-.53.51A.5.5,0,0,1,25.88,21.41Z"/><path d="M15.64,5.1a.49.49,0,0,1-.5-.53.51.51,0,0,1,1,0A.5.5,0,0,1,15.64,5.1Z"/><path d="M8,5.1a.5.5,0,0,1-.51-.53A.49.49,0,0,1,8,4.08a.5.5,0,0,1,.51.53A.5.5,0,0,1,8,5.1Z"/><path d="M2.88,1.25a.53.53,0,0,1,.52.52.53.53,0,0,1-.54.51.52.52,0,0,1-.51-.51A.53.53,0,0,1,2.88,1.25Z"/><path d="M13.61,1.78a.51.51,0,0,1-.54.5.52.52,0,0,1-.5-.52.52.52,0,1,1,1,0Z"/><path d="M18.19,1.25a.52.52,0,0,1,.53.52.52.52,0,0,1-1,0A.51.51,0,0,1,18.19,1.25Z"/><path d="M20.75,2.28a.52.52,0,0,1,0-1,.52.52,0,0,1,.53.52A.52.52,0,0,1,20.75,2.28Z"/><path d="M28.43,2.28a.52.52,0,0,1-.53-.51.53.53,0,0,1,1.05,0A.52.52,0,0,1,28.43,2.28Z"/><path d="M23.83,4.58a.5.5,0,0,1-.52.52.51.51,0,1,1,0-1A.49.49,0,0,1,23.83,4.58Z"/><path d="M18.19,22.43a.5.5,0,0,1-.5-.51.49.49,0,0,1,.52-.51.51.51,0,1,1,0,1Z"/><path d="M5.44,1.25A.52.52,0,0,1,6,1.79a.51.51,0,0,1-.53.49.51.51,0,0,1-.51-.51A.52.52,0,0,1,5.44,1.25Z"/><path d="M10.54,1.25a.52.52,0,1,1,0,1A.51.51,0,0,1,10,1.77.52.52,0,0,1,10.54,1.25Z"/><path d="M2.86,22.43a.51.51,0,1,1,.54-.51A.51.51,0,0,1,2.86,22.43Z"/><path d="M31,22.43a.49.49,0,0,1-.51-.5.49.49,0,0,1,.51-.52.5.5,0,0,1,.51.5A.49.49,0,0,1,31,22.43Z"/><path d="M10.54,5.1A.51.51,0,0,1,10,4.58a.5.5,0,0,1,.52-.5.51.51,0,0,1,.52.52A.52.52,0,0,1,10.54,5.1Z"/><path d="M26.39,19.1a.53.53,0,0,1-.51.52.52.52,0,1,1,0-1A.53.53,0,0,1,26.39,19.1Z"/><path d="M26.39,4.59a.52.52,0,0,1-1,0,.52.52,0,0,1,1,0Z"/><path d="M28.43,5.1a.51.51,0,1,1,0-1,.51.51,0,0,1,.53.51A.52.52,0,0,1,28.43,5.1Z"/><path d="M34.05,21.93a.49.49,0,0,1-.53.5.51.51,0,0,1-.5-.52.5.5,0,0,1,.53-.5A.51.51,0,0,1,34.05,21.93Z"/><path d="M36.1,5.1a.52.52,0,0,1-.53-.52.52.52,0,0,1,1,0A.51.51,0,0,1,36.1,5.1Z"/><path d="M13.08,22.43a.51.51,0,1,1,0-1,.5.5,0,0,1,.5.51A.5.5,0,0,1,13.08,22.43Z"/><path d="M10.54,22.43a.51.51,0,1,1,0-1,.52.52,0,0,1,.52.5A.51.51,0,0,1,10.54,22.43Z"/><path d="M36.08,22.43a.51.51,0,1,1,0-1,.51.51,0,1,1,0,1Z"/><path d="M8.5,1.76a.52.52,0,1,1-1,0,.52.52,0,1,1,1,0Z"/><path d="M13.1,5.1a.52.52,0,0,1-.53-.52.51.51,0,0,1,.52-.5.49.49,0,0,1,.52.51A.51.51,0,0,1,13.1,5.1Z"/><path d="M18.21,5.1a.51.51,0,0,1-.52-.52.52.52,0,0,1,1,0A.51.51,0,0,1,18.21,5.1Z"/><path d="M36.09,2.28a.51.51,0,0,1-.52-.52.52.52,0,1,1,.52.52Z"/><path d="M34.05,4.59a.52.52,0,0,1-1,0,.52.52,0,0,1,1,0Z"/><path d="M28.41,22.43a.51.51,0,1,1,.54-.51A.51.51,0,0,1,28.41,22.43Z"/><path d="M23.31,21.41a.5.5,0,0,1,.52.52.49.49,0,0,1-.51.5.5.5,0,0,1-.52-.52A.49.49,0,0,1,23.31,21.41Z"/><path d="M20.74,22.43a.51.51,0,0,1-.5-.52.51.51,0,0,1,.54-.5.52.52,0,0,1,.5.52A.51.51,0,0,1,20.74,22.43Z"/><path d="M5.44,22.43a.51.51,0,0,1-.53-.51.5.5,0,0,1,.51-.51.51.51,0,1,1,0,1Z"/><path d="M15.65,2.28a.49.49,0,0,1-.51-.5.51.51,0,1,1,1,0A.5.5,0,0,1,15.65,2.28Z"/><path d="M23.83,1.76a.52.52,0,1,1-1,0,.52.52,0,0,1,1,0Z"/><path d="M26.39,1.77a.51.51,0,0,1-.51.51.51.51,0,0,1-.53-.52.51.51,0,0,1,.51-.51A.52.52,0,0,1,26.39,1.77Z"/><path d="M20.76,5.1a.51.51,0,1,1,0-1,.5.5,0,0,1,.52.51A.52.52,0,0,1,20.76,5.1Z"/><path d="M34.05,1.76a.52.52,0,0,1-1,0,.52.52,0,0,1,1,0Z"/><path d="M31,4.08a.51.51,0,1,1-.52.49A.48.48,0,0,1,31,4.08Z"/><path d="M8.5,19.11a.52.52,0,0,1-.51.51.52.52,0,0,1,0-1A.53.53,0,0,1,8.5,19.11Z"/><path d="M16.16,19.09a.51.51,0,1,1-1,0,.5.5,0,0,1,.51-.53A.51.51,0,0,1,16.16,19.09Z"/><path d="M23.83,19.09a.52.52,0,0,1-.52.53.51.51,0,0,1-.51-.51.52.52,0,0,1,.52-.53A.51.51,0,0,1,23.83,19.09Z"/><path d="M30.47,19.09a.51.51,0,0,1,.51-.51.52.52,0,1,1,0,1A.52.52,0,0,1,30.47,19.09Z"/><path d="M2.87,5.1a.52.52,0,0,1-.52-.51.5.5,0,0,1,.53-.51.52.52,0,0,1,.52.5A.52.52,0,0,1,2.87,5.1Z"/><path d="M5.42,4.08A.5.5,0,0,1,6,4.59a.51.51,0,0,1-.51.51.51.51,0,1,1,0-1Z"/><path d="M33,19.09a.52.52,0,1,1,1,0,.53.53,0,0,1-.52.51A.52.52,0,0,1,33,19.09Z"/><path d="M31.49,1.76a.51.51,0,0,1-1,0,.51.51,0,1,1,1,0Z"/><path d="M16.16,21.92a.49.49,0,0,1-.53.51.48.48,0,0,1-.49-.51.51.51,0,1,1,1,0Z"/><path d="M8,21.41a.51.51,0,1,1-.51.5A.49.49,0,0,1,8,21.41Z"/><path d="M24.61,23.7a.37.37,0,0,1-.36-.37.35.35,0,0,1,.36-.35.35.35,0,0,1,.36.36A.36.36,0,0,1,24.61,23.7Z"/><path d="M14.67,23.33a.36.36,0,1,1-.71,0,.34.34,0,0,1,.35-.36A.35.35,0,0,1,14.67,23.33Z"/><path d="M1.8,20.58a.36.36,0,0,1-.36.36.38.38,0,0,1-.36-.37.35.35,0,0,1,.37-.35A.34.34,0,0,1,1.8,20.58Z"/><path d="M4,6.36A.37.37,0,0,1,3.66,6,.36.36,0,0,1,4.38,6,.37.37,0,0,1,4,6.36Z"/><path d="M4,20.22a.35.35,0,0,1,.36.36.37.37,0,0,1-.37.36.37.37,0,0,1-.35-.37A.34.34,0,0,1,4,20.22Z"/><path d="M4,23a.35.35,0,0,1,.37.35A.37.37,0,0,1,4,23.7a.36.36,0,0,1-.36-.36A.34.34,0,0,1,4,23Z"/><path d="M11.75,23a.34.34,0,0,1,.35.36.36.36,0,0,1-.37.36.39.39,0,0,1-.36-.37A.37.37,0,0,1,11.75,23Z"/><path d="M16.9,20.94a.37.37,0,0,1-.37-.36.34.34,0,0,1,.35-.36.35.35,0,0,1,.37.35A.37.37,0,0,1,16.9,20.94Z"/><path d="M26.83,23.3a.34.34,0,0,1,.39-.32.36.36,0,0,1,.33.39.38.38,0,0,1-.4.33A.36.36,0,0,1,26.83,23.3Z"/><path d="M34.92,23.7a.37.37,0,0,1-.37-.36.36.36,0,0,1,.72,0A.37.37,0,0,1,34.92,23.7Z"/><path d="M34.9,6.37A.37.37,0,0,1,34.55,6a.34.34,0,0,1,.36-.35.35.35,0,0,1,.36.36A.37.37,0,0,1,34.9,6.37Z"/><path d="M37.48,20.94a.36.36,0,0,1-.35-.37.34.34,0,0,1,.36-.35.36.36,0,0,1,.36.36A.39.39,0,0,1,37.48,20.94Z"/><path d="M34.9,20.22a.35.35,0,0,1,.37.35.36.36,0,1,1-.72,0A.34.34,0,0,1,34.9,20.22Z"/><path d="M17.25,6a.37.37,0,0,1-.35.37A.36.36,0,0,1,16.53,6a.36.36,0,0,1,.72,0Z"/><path d="M32.32,5.65a.34.34,0,0,1,.37.34.35.35,0,0,1-.35.37A.37.37,0,0,1,32,6,.35.35,0,0,1,32.32,5.65Z"/><path d="M12.1,3.24a.36.36,0,0,1-.36.36.35.35,0,0,1-.36-.36.34.34,0,0,1,.36-.35A.34.34,0,0,1,12.1,3.24Z"/><path d="M14.67,20.57a.36.36,0,0,1-.35.37.36.36,0,0,1-.36-.36.33.33,0,0,1,.35-.36A.34.34,0,0,1,14.67,20.57Z"/><path d="M27.18,6.36A.35.35,0,0,1,26.83,6a.34.34,0,0,1,.36-.35.35.35,0,0,1,.36.36A.37.37,0,0,1,27.18,6.36Z"/><path d="M11.75,20.22a.34.34,0,0,1,.35.36.36.36,0,1,1-.72,0A.35.35,0,0,1,11.75,20.22Z"/><path d="M22.39,6a.35.35,0,0,1-.36.35A.37.37,0,0,1,21.67,6a.35.35,0,0,1,.38-.34A.33.33,0,0,1,22.39,6Z"/><path d="M1.8,6a.35.35,0,0,1-.36.35A.37.37,0,0,1,1.08,6a.34.34,0,0,1,.37-.34A.34.34,0,0,1,1.8,6Z"/><path d="M37.47,23a.34.34,0,0,1,.37.34.37.37,0,0,1-.35.38.35.35,0,0,1-.36-.35A.34.34,0,0,1,37.47,23Z"/><path d="M1.8,23.33a.36.36,0,1,1-.72,0A.35.35,0,0,1,1.44,23,.34.34,0,0,1,1.8,23.33Z"/><path d="M22.39,20.57a.35.35,0,0,1-.35.37.37.37,0,0,1-.37-.36.36.36,0,0,1,.36-.36A.34.34,0,0,1,22.39,20.57Z"/><path d="M9.53,23.33a.37.37,0,0,1-.36.37.38.38,0,0,1-.37-.36A.36.36,0,0,1,9.16,23,.35.35,0,0,1,9.53,23.33Z"/><path d="M14.31,6.36A.35.35,0,0,1,14,6a.36.36,0,0,1,.71,0A.36.36,0,0,1,14.31,6.36Z"/><path d="M24.61,6.37A.37.37,0,0,1,24.25,6a.34.34,0,0,1,.36-.35A.34.34,0,0,1,25,6,.37.37,0,0,1,24.61,6.37Z"/><path d="M19.82,23.34a.36.36,0,0,1-.36.36.37.37,0,0,1-.36-.37.36.36,0,0,1,.36-.35A.35.35,0,0,1,19.82,23.34Z"/><path d="M27.19,2.89a.36.36,0,0,1,.36.36.37.37,0,0,1-.37.35.36.36,0,0,1,0-.71Z"/><path d="M25,20.58a.37.37,0,0,1-.36.36.37.37,0,0,1-.36-.37.35.35,0,0,1,.36-.35A.35.35,0,0,1,25,20.58Z"/><path d="M27.55,20.57a.38.38,0,0,1-.36.37.36.36,0,0,1-.36-.36.34.34,0,0,1,.35-.36A.35.35,0,0,1,27.55,20.57Z"/><path d="M9.16,6.36A.37.37,0,0,1,8.8,6a.37.37,0,0,1,.73,0A.37.37,0,0,1,9.16,6.36Z"/><path d="M7,6a.37.37,0,0,1-.37.36A.35.35,0,0,1,6.24,6a.33.33,0,0,1,.35-.34A.36.36,0,0,1,7,6Z"/><path d="M1.44,3.6a.36.36,0,0,1-.36-.37.35.35,0,0,1,.38-.34.33.33,0,0,1,.34.35A.35.35,0,0,1,1.44,3.6Z"/><path d="M4,2.89a.34.34,0,0,1,.37.35A.36.36,0,0,1,4,3.6a.35.35,0,0,1-.36-.35A.34.34,0,0,1,4,2.89Z"/><path d="M14.67,3.24a.36.36,0,1,1-.71,0,.36.36,0,0,1,.71,0Z"/><path d="M37.85,3.25a.37.37,0,0,1-.38.35.36.36,0,0,1-.34-.38.33.33,0,0,1,.36-.33A.36.36,0,0,1,37.85,3.25Z"/><path d="M19.47,2.89a.34.34,0,0,1,.35.36.35.35,0,0,1-.35.35.36.36,0,0,1-.37-.36A.35.35,0,0,1,19.47,2.89Z"/><path d="M25,3.25a.35.35,0,0,1-.37.35.36.36,0,0,1-.35-.36.36.36,0,0,1,.72,0Z"/><path d="M7,23.33a.39.39,0,0,1-.36.37.35.35,0,0,1-.36-.36A.33.33,0,0,1,6.59,23,.37.37,0,0,1,7,23.33Z"/><path d="M34.91,3.6a.36.36,0,0,1-.36-.36.36.36,0,0,1,.72,0A.36.36,0,0,1,34.91,3.6Z"/><path d="M6.6,20.94a.36.36,0,0,1-.36-.36.34.34,0,0,1,.34-.36.35.35,0,0,1,.38.35A.39.39,0,0,1,6.6,20.94Z"/><path d="M9.53,20.58a.37.37,0,1,1-.73,0,.36.36,0,0,1,.37-.35A.35.35,0,0,1,9.53,20.58Z"/><path d="M16.89,23a.36.36,0,0,1,.36.35.37.37,0,0,1-.36.37.36.36,0,0,1-.36-.36A.35.35,0,0,1,16.89,23Z"/><path d="M19.82,20.57a.37.37,0,0,1-.36.37.37.37,0,0,1-.36-.37.36.36,0,0,1,.72,0Z"/><path d="M22,23.7a.38.38,0,0,1-.37-.36A.36.36,0,0,1,22,23a.34.34,0,0,1,.36.35A.36.36,0,0,1,22,23.7Z"/><path d="M11.74,5.65A.34.34,0,0,1,12.1,6a.35.35,0,0,1-.36.36A.38.38,0,0,1,11.37,6,.35.35,0,0,1,11.74,5.65Z"/><path d="M37.48,6.36A.34.34,0,0,1,37.13,6a.34.34,0,0,1,.36-.35.35.35,0,0,1,.36.35A.37.37,0,0,1,37.48,6.36Z"/><path d="M29.76,23a.35.35,0,0,1,.36.36.37.37,0,0,1-.37.36.36.36,0,0,1-.35-.36A.35.35,0,0,1,29.76,23Z"/><path d="M32.69,20.58a.37.37,0,0,1-.37.36.37.37,0,0,1-.35-.37.35.35,0,0,1,.37-.35A.34.34,0,0,1,32.69,20.58Z"/><path d="M19.82,6a.35.35,0,0,1-.35.37A.36.36,0,0,1,19.1,6a.35.35,0,0,1,.35-.35A.34.34,0,0,1,19.82,6Z"/><path d="M22,2.89a.33.33,0,0,1,.36.35A.35.35,0,0,1,22,3.6a.37.37,0,0,1-.36-.35A.36.36,0,0,1,22,2.89Z"/><path d="M9.17,3.6a.37.37,0,0,1-.37-.35.35.35,0,0,1,.36-.36.35.35,0,0,1,.37.34A.37.37,0,0,1,9.17,3.6Z"/><path d="M32.69,23.33a.36.36,0,1,1-.72,0,.36.36,0,0,1,.36-.36A.34.34,0,0,1,32.69,23.33Z"/><path d="M29.76,5.65a.35.35,0,0,1,.36.36.36.36,0,0,1-.35.35A.35.35,0,0,1,29.4,6,.34.34,0,0,1,29.76,5.65Z"/><path d="M32.69,3.26a.36.36,0,0,1-.38.34A.37.37,0,0,1,32,3.24a.35.35,0,0,1,.37-.35A.34.34,0,0,1,32.69,3.26Z"/><path d="M7,3.23a.38.38,0,0,1-.36.37.34.34,0,0,1-.36-.34.33.33,0,0,1,.34-.37A.35.35,0,0,1,7,3.23Z"/><path d="M29.77,20.22a.36.36,0,0,1,.35.37.36.36,0,0,1-.72,0A.35.35,0,0,1,29.77,20.22Z"/><path d="M17.25,3.25a.37.37,0,0,1-.37.35.35.35,0,0,1-.35-.36.36.36,0,0,1,.72,0Z"/><path d="M30.12,3.24a.36.36,0,1,1-.72,0,.35.35,0,0,1,.36-.34A.34.34,0,0,1,30.12,3.24Z"/></g><g class="cls-3"><path d="M22.23,14.54v-.19l.08,0c.55,0,.63-.13.63-.68v-3c0-.52-.09-.61-.61-.65l-.09,0a.22.22,0,0,1,0-.08.57.57,0,0,1,0-.12c.63,0,1.25,0,1.87,0a4.56,4.56,0,0,1,.9.08,1.13,1.13,0,0,1,1,1.19,1.23,1.23,0,0,1-1.07,1.09l-.15,0c.68.18,1,.76,1.31,1.26a5.32,5.32,0,0,0,.45.61.85.85,0,0,0,1,.16.43.43,0,0,0,.19-.32c0-1.16,0-2.32,0-3.47a.38.38,0,0,0-.34-.4L27.07,10l0-.16.05,0c.84,0,1.68,0,2.52,0a1.17,1.17,0,0,1,.12,2.33l-.18,0,.17.07a1.44,1.44,0,0,1,.74.57c.21.3.4.61.61.91a1.08,1.08,0,0,0,.83.59v.18l-.05,0c-.31,0-.61,0-.91,0a.35.35,0,0,1-.23-.12c-.19-.25-.37-.5-.54-.76s-.32-.51-.47-.77a1,1,0,0,0-1.23-.56v.23c0,.4,0,.8,0,1.2s.1.52.51.57h.17l0,.18-.07,0c-1,0-2,0-3,0a.31.31,0,0,1-.23-.12c-.2-.26-.39-.53-.58-.8s-.33-.53-.48-.8a1,1,0,0,0-1.18-.5c0,.56,0,1.11,0,1.67,0,.17.14.25.29.29a2.26,2.26,0,0,0,.39.07v.19ZM28.48,10v2.1l.86,0a.69.69,0,0,0,.65-.57,2.33,2.33,0,0,0,0-.79.68.68,0,0,0-.58-.61A9.09,9.09,0,0,0,28.48,10Zm-4.82,2.07a7.24,7.24,0,0,0,.81,0c.45-.05.65-.27.74-.76a1,1,0,0,0-.41-1.13.42.42,0,0,0-.2-.08c-.31,0-.62-.06-.94-.09Z"/><path d="M7.94,14.64a2.4,2.4,0,0,1-2.5-2.51A2.39,2.39,0,0,1,8,9.67a2.49,2.49,0,1,1,0,5Zm1.71-2.53a3.22,3.22,0,0,0-.26-1.31A1.45,1.45,0,0,0,8,9.89a1.45,1.45,0,0,0-1.49.88,3.29,3.29,0,0,0,.05,2.84A1.39,1.39,0,0,0,8,14.4a1.43,1.43,0,0,0,1.38-.81A3.17,3.17,0,0,0,9.65,12.11Z"/><path d="M19.24,14.64a2.39,2.39,0,0,1-2.49-2.51,2.39,2.39,0,0,1,2.54-2.46,2.49,2.49,0,1,1-.05,5ZM21,12.15a3.21,3.21,0,0,0-.27-1.36,1.42,1.42,0,0,0-1.36-.9,1.45,1.45,0,0,0-1.49.87,3.26,3.26,0,0,0,.05,2.86,1.4,1.4,0,0,0,1.37.78,1.44,1.44,0,0,0,1.39-.8A3.13,3.13,0,0,0,21,12.15Z"/><path d="M1.8,13H2l0,.06a1.74,1.74,0,0,0,.46.88,1.21,1.21,0,0,0,1.33.29.83.83,0,0,0,.31-1.39,2.74,2.74,0,0,0-.63-.44c-.26-.15-.54-.25-.8-.4A1.35,1.35,0,0,1,1.88,11a1.22,1.22,0,0,1,1.19-1.3A1.71,1.71,0,0,1,4.24,10c.14-.05.1-.34.34-.25V11c-.15.08-.2,0-.24-.13a1.18,1.18,0,0,0-.83-.94,1,1,0,0,0-.72.07.63.63,0,0,0-.2,1,2.57,2.57,0,0,0,.58.45c.29.16.6.28.89.44a1.46,1.46,0,0,1,.71,1.89,1.4,1.4,0,0,1-1.83.79,6.55,6.55,0,0,1-.8-.39c-.12.07,0,.41-.35.33V13.23C1.79,13.17,1.8,13.11,1.8,13Z"/><path d="M15.56,10c.13-.07.09-.32.33-.25V11c-.17.07-.21,0-.24-.16a1.12,1.12,0,0,0-.82-.9,1.31,1.31,0,0,0-.71.05.62.62,0,0,0-.21,1,2.28,2.28,0,0,0,.58.44c.3.17.61.29.91.46a1.46,1.46,0,0,1,.27,2.43,1.48,1.48,0,0,1-1.65.14,5.79,5.79,0,0,1-.54-.31c-.15.08,0,.42-.36.34V13.05c.14-.06.17,0,.23.14a3.33,3.33,0,0,0,.44.78,1.12,1.12,0,0,0,1.29.31.83.83,0,0,0,.34-1.41,3,3,0,0,0-.62-.43c-.26-.15-.54-.25-.8-.39A1.36,1.36,0,0,1,13.19,11a1.23,1.23,0,0,1,1.2-1.29A1.73,1.73,0,0,1,15.56,10Z"/><path d="M33.74,9.81V10l-.17,0c-.34,0-.41.13-.24.43s.31.54.47.81l.52.9.38-.62c.22-.36.45-.73.66-1.1s.11-.33-.17-.39L34.81,10l0-.18h1.69V10a1.11,1.11,0,0,0-1,.7c-.31.53-.64,1-1,1.57a.64.64,0,0,0-.08.3c0,.37,0,.75,0,1.12s.11.57.56.62h.12s0,0,0,0v.15h-2.1v-.18c.67-.11.66-.14.71-.83a2.66,2.66,0,0,0-.59-2,8.19,8.19,0,0,1-.63-1,.92.92,0,0,0-.81-.53V9.81Z"/><path d="M20.42,19.28a.52.52,0,0,1,0-1,.52.52,0,1,1,0,1Z"/><path d="M2.53,19.28A.53.53,0,0,1,2,18.75a.54.54,0,0,1,.54-.51.52.52,0,0,1,0,1Z"/><path d="M28.61,18.75a.53.53,0,1,1-.54-.51A.54.54,0,0,1,28.61,18.75Z"/><path d="M36.27,18.76a.52.52,0,1,1-1,0,.52.52,0,0,1,1,0Z"/><path d="M13.27,18.76a.52.52,0,0,1-.52.52.52.52,0,1,1,.52-.52Z"/><path d="M9.68,18.77a.52.52,0,0,1,.52-.53.52.52,0,0,1,0,1A.52.52,0,0,1,9.68,18.77Z"/><path d="M5.61,18.76a.52.52,0,1,1-1,0,.52.52,0,1,1,1,0Z"/><path d="M17.87,18.24a.52.52,0,1,1-.52.52A.52.52,0,0,1,17.87,18.24Z"/><path d="M25.54,21.07a.51.51,0,1,1-.53.51A.5.5,0,0,1,25.54,21.07Z"/><path d="M15.3,4.76a.49.49,0,0,1-.5-.53.51.51,0,0,1,1,0A.5.5,0,0,1,15.3,4.76Z"/><path d="M7.64,4.76a.5.5,0,0,1-.51-.53.49.49,0,0,1,.52-.49.5.5,0,0,1,.51.53A.5.5,0,0,1,7.64,4.76Z"/><path d="M2.54.91a.53.53,0,0,1,.52.52.53.53,0,0,1-.54.51A.52.52,0,0,1,2,1.43.53.53,0,0,1,2.54.91Z"/><path d="M13.27,1.44a.51.51,0,0,1-.54.5.52.52,0,0,1-.5-.52.52.52,0,1,1,1,0Z"/><path d="M17.85.91a.52.52,0,0,1,.53.52.52.52,0,0,1-1,0A.5.5,0,0,1,17.85.91Z"/><path d="M20.41,1.94a.52.52,0,0,1,0-1,.52.52,0,0,1,.53.52A.52.52,0,0,1,20.41,1.94Z"/><path d="M28.09,1.94a.52.52,0,0,1-.53-.51.53.53,0,0,1,1.05,0A.52.52,0,0,1,28.09,1.94Z"/><path d="M23.49,4.24a.52.52,0,1,1-1,0A.49.49,0,0,1,23,3.74.49.49,0,0,1,23.49,4.24Z"/><path d="M17.85,22.09a.51.51,0,0,1-.51-.51.52.52,0,1,1,.51.51Z"/><path d="M5.1.91a.52.52,0,0,1,.51.54.51.51,0,0,1-.53.49.51.51,0,0,1-.51-.51A.52.52,0,0,1,5.1.91Z"/><path d="M10.2.91a.52.52,0,1,1,0,1,.51.51,0,0,1-.51-.51A.52.52,0,0,1,10.2.91Z"/><path d="M2.52,22.09a.51.51,0,1,1,.54-.51A.51.51,0,0,1,2.52,22.09Z"/><path d="M30.64,22.09a.51.51,0,1,1,0-1,.51.51,0,1,1,0,1Z"/><path d="M10.2,4.76a.51.51,0,0,1-.52-.52.5.5,0,0,1,.52-.5.51.51,0,0,1,.52.52A.52.52,0,0,1,10.2,4.76Z"/><path d="M26.05,18.76a.53.53,0,0,1-.51.52.52.52,0,1,1,0-1A.53.53,0,0,1,26.05,18.76Z"/><path d="M26.05,4.25a.51.51,0,0,1-.54.51.52.52,0,0,1-.5-.52.52.52,0,0,1,1,0Z"/><path d="M28.09,4.76a.51.51,0,1,1,0-1,.51.51,0,0,1,.53.51A.52.52,0,0,1,28.09,4.76Z"/><path d="M33.71,21.59a.49.49,0,0,1-.53.5.51.51,0,1,1,0-1A.51.51,0,0,1,33.71,21.59Z"/><path d="M35.76,4.76a.52.52,0,0,1-.53-.52.52.52,0,0,1,1,0A.51.51,0,0,1,35.76,4.76Z"/><path d="M12.74,22.09a.51.51,0,1,1,0-1,.5.5,0,0,1,.5.51A.5.5,0,0,1,12.74,22.09Z"/><path d="M10.2,22.09a.51.51,0,1,1,0-1,.52.52,0,0,1,.52.5A.51.51,0,0,1,10.2,22.09Z"/><path d="M35.74,22.09a.51.51,0,1,1,0-1,.51.51,0,1,1,0,1Z"/><path d="M8.16,1.42a.52.52,0,0,1-1,0,.52.52,0,1,1,1,0Z"/><path d="M12.76,4.76a.52.52,0,0,1-.53-.52.51.51,0,0,1,.52-.5.49.49,0,0,1,.52.51A.51.51,0,0,1,12.76,4.76Z"/><path d="M17.87,4.76a.52.52,0,0,1-.53-.52.51.51,0,0,1,.52-.5.5.5,0,0,1,.52.51A.51.51,0,0,1,17.87,4.76Z"/><path d="M35.75,1.94a.51.51,0,0,1-.52-.52.52.52,0,1,1,.52.52Z"/><path d="M33.71,4.25a.52.52,0,0,1-1,0,.52.52,0,0,1,1,0Z"/><path d="M28.07,22.09a.51.51,0,1,1,.54-.51A.51.51,0,0,1,28.07,22.09Z"/><path d="M23,21.07a.5.5,0,0,1,.52.52.49.49,0,0,1-.51.5.5.5,0,0,1-.52-.52A.49.49,0,0,1,23,21.07Z"/><path d="M20.4,22.09a.51.51,0,1,1,0-1,.52.52,0,0,1,.51.52A.51.51,0,0,1,20.4,22.09Z"/><path d="M5.1,22.09a.51.51,0,0,1-.53-.51.5.5,0,0,1,.51-.51.51.51,0,1,1,0,1Z"/><path d="M15.31,1.94a.49.49,0,0,1-.51-.5.51.51,0,1,1,1,0A.5.5,0,0,1,15.31,1.94Z"/><path d="M23.49,1.42a.52.52,0,1,1-1,0,.52.52,0,0,1,1,0Z"/><path d="M26.05,1.43a.51.51,0,0,1-.51.51A.51.51,0,0,1,25,1.42a.51.51,0,0,1,.51-.51A.52.52,0,0,1,26.05,1.43Z"/><path d="M20.42,4.76a.51.51,0,1,1,0-1,.5.5,0,0,1,.52.51A.52.52,0,0,1,20.42,4.76Z"/><path d="M33.71,1.42a.51.51,0,0,1-.53.52.5.5,0,0,1-.5-.51.52.52,0,0,1,1,0Z"/><path d="M30.65,3.74a.51.51,0,1,1-.52.49A.48.48,0,0,1,30.65,3.74Z"/><path d="M8.16,18.77a.52.52,0,0,1-.51.51.52.52,0,0,1,0-1A.53.53,0,0,1,8.16,18.77Z"/><path d="M15.82,18.75a.51.51,0,1,1-1,0,.5.5,0,0,1,.51-.53A.51.51,0,0,1,15.82,18.75Z"/><path d="M23.49,18.75a.52.52,0,0,1-.52.53.51.51,0,0,1-.51-.51.52.52,0,0,1,.52-.53A.51.51,0,0,1,23.49,18.75Z"/><path d="M30.13,18.75a.51.51,0,0,1,.51-.51.52.52,0,1,1-.51.51Z"/><path d="M2.53,4.76A.52.52,0,0,1,2,4.25a.5.5,0,0,1,.53-.51.52.52,0,0,1,.52.5A.52.52,0,0,1,2.53,4.76Z"/><path d="M5.08,3.74a.5.5,0,0,1,.53.51.51.51,0,0,1-.51.51.51.51,0,0,1-.53-.52A.5.5,0,0,1,5.08,3.74Z"/><path d="M32.68,18.75a.52.52,0,1,1,1,0,.53.53,0,0,1-.52.51A.52.52,0,0,1,32.68,18.75Z"/><path d="M31.15,1.42a.5.5,0,0,1-.51.52.52.52,0,1,1,0-1A.51.51,0,0,1,31.15,1.42Z"/><path d="M15.82,21.58a.49.49,0,0,1-.53.51.48.48,0,0,1-.49-.51.51.51,0,1,1,1,0Z"/><path d="M7.64,21.07a.51.51,0,1,1-.51.5A.49.49,0,0,1,7.64,21.07Z"/><path d="M24.27,23.36a.37.37,0,0,1-.36-.37.35.35,0,0,1,.36-.35.35.35,0,0,1,.36.36A.36.36,0,0,1,24.27,23.36Z"/><path d="M14.33,23a.36.36,0,1,1-.71,0,.34.34,0,0,1,.35-.36A.34.34,0,0,1,14.33,23Z"/><path d="M1.46,20.24a.36.36,0,0,1-.36.36.38.38,0,0,1-.36-.37.35.35,0,0,1,.37-.35A.34.34,0,0,1,1.46,20.24Z"/><path d="M3.65,6a.37.37,0,0,1-.33-.41.35.35,0,0,1,.41-.3A.35.35,0,0,1,4,5.69.37.37,0,0,1,3.65,6Z"/><path d="M3.68,19.88a.35.35,0,0,1,.36.36.37.37,0,0,1-.37.36.37.37,0,0,1-.35-.37A.34.34,0,0,1,3.68,19.88Z"/><path d="M3.67,22.64A.35.35,0,0,1,4,23a.37.37,0,0,1-.36.37A.36.36,0,0,1,3.32,23,.34.34,0,0,1,3.67,22.64Z"/><path d="M11.41,22.64a.34.34,0,0,1,.35.36.37.37,0,0,1-.37.36A.39.39,0,0,1,11,23,.37.37,0,0,1,11.41,22.64Z"/><path d="M16.56,20.6a.37.37,0,0,1-.37-.36.34.34,0,0,1,.35-.36.35.35,0,0,1,.37.35A.37.37,0,0,1,16.56,20.6Z"/><path d="M26.49,23a.34.34,0,0,1,.39-.32.36.36,0,0,1,.33.39.38.38,0,0,1-.4.33A.36.36,0,0,1,26.49,23Z"/><path d="M34.58,23.36a.37.37,0,0,1-.37-.36.36.36,0,0,1,.72,0A.37.37,0,0,1,34.58,23.36Z"/><path d="M34.56,6a.36.36,0,0,1-.35-.36.34.34,0,0,1,.36-.35.35.35,0,0,1,.36.36A.36.36,0,0,1,34.56,6Z"/><path d="M37.14,20.6a.36.36,0,0,1-.35-.37.34.34,0,0,1,.36-.35.36.36,0,0,1,.36.36A.39.39,0,0,1,37.14,20.6Z"/><path d="M34.56,19.88a.35.35,0,0,1,.37.35.36.36,0,1,1-.72,0A.34.34,0,0,1,34.56,19.88Z"/><path d="M16.91,5.65a.37.37,0,0,1-.35.37.36.36,0,0,1-.37-.35.36.36,0,0,1,.72,0Z"/><path d="M32,5.31a.34.34,0,0,1,.37.34A.35.35,0,0,1,32,6a.37.37,0,0,1-.37-.35A.35.35,0,0,1,32,5.31Z"/><path d="M11.76,2.9a.36.36,0,0,1-.36.36A.37.37,0,0,1,11,2.9a.36.36,0,0,1,.37-.35A.34.34,0,0,1,11.76,2.9Z"/><path d="M14.33,20.23a.36.36,0,0,1-.35.37.36.36,0,0,1-.36-.36.33.33,0,0,1,.35-.36A.34.34,0,0,1,14.33,20.23Z"/><path d="M26.84,6a.35.35,0,0,1-.35-.36.33.33,0,0,1,.36-.35.35.35,0,0,1,.36.36A.37.37,0,0,1,26.84,6Z"/><path d="M11.41,19.88a.34.34,0,0,1,.35.36.37.37,0,0,1-.37.36.39.39,0,0,1-.36-.37A.37.37,0,0,1,11.41,19.88Z"/><path d="M22.05,5.67a.35.35,0,0,1-.36.35.37.37,0,0,1-.36-.37.35.35,0,0,1,.38-.34A.33.33,0,0,1,22.05,5.67Z"/><path d="M1.46,5.67A.35.35,0,0,1,1.1,6a.37.37,0,0,1-.36-.37.34.34,0,0,1,.37-.34A.34.34,0,0,1,1.46,5.67Z"/><path d="M37.13,22.64a.34.34,0,0,1,.37.34.37.37,0,0,1-.35.38.35.35,0,0,1-.36-.35A.34.34,0,0,1,37.13,22.64Z"/><path d="M1.46,23a.37.37,0,0,1-.35.37A.37.37,0,0,1,.74,23a.35.35,0,0,1,.36-.36A.33.33,0,0,1,1.46,23Z"/><path d="M22.05,20.23a.35.35,0,0,1-.35.37.37.37,0,0,1-.37-.36.36.36,0,0,1,.36-.36A.34.34,0,0,1,22.05,20.23Z"/><path d="M9.19,23a.37.37,0,0,1-.36.37A.38.38,0,0,1,8.46,23a.36.36,0,0,1,.36-.36A.35.35,0,0,1,9.19,23Z"/><path d="M14,6a.35.35,0,0,1-.35-.37.36.36,0,0,1,.71,0A.36.36,0,0,1,14,6Z"/><path d="M24.27,6a.36.36,0,0,1-.36-.36.34.34,0,0,1,.36-.35.34.34,0,0,1,.36.35A.36.36,0,0,1,24.27,6Z"/><path d="M19.48,23a.36.36,0,0,1-.36.36.37.37,0,0,1-.36-.37.36.36,0,0,1,.36-.35A.35.35,0,0,1,19.48,23Z"/><path d="M26.85,2.55a.36.36,0,0,1,.36.36.37.37,0,0,1-.37.35.35.35,0,0,1-.35-.35A.34.34,0,0,1,26.85,2.55Z"/><path d="M24.63,20.24a.37.37,0,0,1-.36.36.37.37,0,0,1-.36-.37.35.35,0,0,1,.36-.35A.35.35,0,0,1,24.63,20.24Z"/><path d="M27.21,20.23a.38.38,0,0,1-.36.37.36.36,0,0,1-.36-.36.34.34,0,0,1,.35-.36A.35.35,0,0,1,27.21,20.23Z"/><path d="M8.82,6a.37.37,0,0,1-.36-.36.37.37,0,0,1,.73,0A.37.37,0,0,1,8.82,6Z"/><path d="M6.62,5.66A.37.37,0,0,1,6.25,6a.35.35,0,0,1-.35-.37.33.33,0,0,1,.35-.34A.36.36,0,0,1,6.62,5.66Z"/><path d="M1.1,3.26a.36.36,0,0,1-.36-.37.35.35,0,0,1,.38-.34.33.33,0,0,1,.34.35A.35.35,0,0,1,1.1,3.26Z"/><path d="M3.67,2.55A.34.34,0,0,1,4,2.9a.36.36,0,0,1-.36.36.35.35,0,0,1-.36-.35A.34.34,0,0,1,3.67,2.55Z"/><path d="M14.33,2.9a.36.36,0,1,1-.71,0,.36.36,0,0,1,.71,0Z"/><path d="M37.51,2.91a.37.37,0,0,1-.38.35.36.36,0,0,1-.34-.38.33.33,0,0,1,.36-.33A.36.36,0,0,1,37.51,2.91Z"/><path d="M19.13,2.55a.34.34,0,0,1,.35.36.35.35,0,0,1-.35.35.36.36,0,0,1-.37-.36A.35.35,0,0,1,19.13,2.55Z"/><path d="M24.63,2.91a.35.35,0,0,1-.37.35.36.36,0,0,1-.35-.36.36.36,0,0,1,.72,0Z"/><path d="M6.62,23a.39.39,0,0,1-.36.37A.35.35,0,0,1,5.9,23a.33.33,0,0,1,.35-.36A.37.37,0,0,1,6.62,23Z"/><path d="M34.57,3.26a.36.36,0,0,1-.36-.36.36.36,0,0,1,.72,0A.36.36,0,0,1,34.57,3.26Z"/><path d="M6.26,20.6a.36.36,0,0,1-.36-.37.34.34,0,0,1,.34-.35.35.35,0,0,1,.38.35A.39.39,0,0,1,6.26,20.6Z"/><path d="M9.19,20.24a.37.37,0,1,1-.73,0,.36.36,0,0,1,.37-.35A.35.35,0,0,1,9.19,20.24Z"/><path d="M16.55,22.64a.36.36,0,0,1,.36.35.37.37,0,0,1-.36.37.36.36,0,0,1-.36-.36A.35.35,0,0,1,16.55,22.64Z"/><path d="M19.48,20.23a.37.37,0,0,1-.36.37.37.37,0,0,1-.36-.37.35.35,0,0,1,.35-.35A.35.35,0,0,1,19.48,20.23Z"/><path d="M21.7,23.36a.38.38,0,0,1-.37-.36.36.36,0,0,1,.36-.36.34.34,0,0,1,.36.35A.36.36,0,0,1,21.7,23.36Z"/><path d="M11.4,5.31a.34.34,0,0,1,.36.35A.35.35,0,0,1,11.4,6,.37.37,0,0,1,11,5.66.35.35,0,0,1,11.4,5.31Z"/><path d="M37.14,6a.34.34,0,0,1-.35-.36.34.34,0,0,1,.36-.35.35.35,0,0,1,.36.35A.37.37,0,0,1,37.14,6Z"/><path d="M29.42,22.64a.35.35,0,0,1,.36.36.37.37,0,0,1-.37.36.36.36,0,0,1-.35-.36A.35.35,0,0,1,29.42,22.64Z"/><path d="M32.35,20.24a.37.37,0,0,1-.37.36.37.37,0,0,1-.35-.37.35.35,0,0,1,.37-.35A.34.34,0,0,1,32.35,20.24Z"/><path d="M19.48,5.65a.35.35,0,0,1-.35.37.36.36,0,0,1-.37-.36.35.35,0,0,1,.35-.35A.34.34,0,0,1,19.48,5.65Z"/><path d="M21.69,2.55a.33.33,0,0,1,.36.35.35.35,0,0,1-.36.36.37.37,0,0,1-.36-.35A.36.36,0,0,1,21.69,2.55Z"/><path d="M8.83,3.26a.37.37,0,0,1-.37-.35.35.35,0,0,1,.36-.36.35.35,0,0,1,.37.34A.37.37,0,0,1,8.83,3.26Z"/><path d="M32.35,23a.36.36,0,1,1-.72,0,.36.36,0,0,1,.36-.36A.34.34,0,0,1,32.35,23Z"/><path d="M29.42,5.31a.35.35,0,0,1,.36.36.36.36,0,0,1-.35.35.35.35,0,0,1-.37-.36A.34.34,0,0,1,29.42,5.31Z"/><path d="M32.35,2.92a.36.36,0,0,1-.38.34.37.37,0,0,1-.34-.36A.35.35,0,0,1,32,2.55.34.34,0,0,1,32.35,2.92Z"/><path d="M6.62,2.89a.38.38,0,0,1-.36.37.35.35,0,0,1-.36-.34.33.33,0,0,1,.34-.37A.35.35,0,0,1,6.62,2.89Z"/><path d="M29.43,19.88a.36.36,0,0,1,.35.37.36.36,0,0,1-.72,0A.35.35,0,0,1,29.43,19.88Z"/><path d="M16.91,2.91a.37.37,0,0,1-.37.35.35.35,0,0,1-.35-.36.34.34,0,0,1,.36-.35A.35.35,0,0,1,16.91,2.91Z"/><path d="M29.78,2.9a.36.36,0,1,1-.72,0,.35.35,0,0,1,.36-.34A.34.34,0,0,1,29.78,2.9Z"/></g><path class="cls-4" d="M22.43,14.74v-.19l.08,0c.55,0,.62-.13.62-.68v-3c0-.52-.08-.61-.6-.65l-.09,0a.24.24,0,0,1,0-.08s0-.07,0-.12c.64,0,1.26,0,1.88,0a4.56,4.56,0,0,1,.9.08,1.11,1.11,0,0,1,1,1.19,1.22,1.22,0,0,1-1.06,1.09l-.15,0c.68.18,1,.76,1.3,1.26a7,7,0,0,0,.46.61.85.85,0,0,0,1,.16.47.47,0,0,0,.19-.32c0-1.16,0-2.32,0-3.48a.37.37,0,0,0-.34-.39l-.35-.05,0-.17.05,0c.84,0,1.68,0,2.52,0a1.16,1.16,0,0,1,.12,2.32l-.18,0,.16.08a1.46,1.46,0,0,1,.75.56c.21.3.4.62.61.92a1.08,1.08,0,0,0,.83.59v.18l0,0h-.91a.35.35,0,0,1-.23-.12c-.19-.25-.37-.5-.54-.76s-.32-.51-.47-.77a1,1,0,0,0-1.24-.56v.22c0,.41,0,.81,0,1.21s.1.52.51.56l.17,0,0,.17-.07,0h-3a.35.35,0,0,1-.22-.12c-.2-.26-.39-.53-.58-.81s-.33-.52-.49-.79a1,1,0,0,0-1.17-.5c0,.56,0,1.11,0,1.67,0,.17.14.25.29.29l.38.07v.19Zm6.24-4.55v2.1l.86,0a.69.69,0,0,0,.65-.57,2.1,2.1,0,0,0,0-.79.71.71,0,0,0-.59-.62A8.69,8.69,0,0,0,28.67,10.19Zm-4.82,2.07a7.38,7.38,0,0,0,.82,0c.45-.05.65-.28.74-.76A1.05,1.05,0,0,0,25,10.35a.44.44,0,0,0-.19-.07c-.31,0-.62-.06-.95-.09Z"/><path class="cls-4" d="M8.13,14.84a2.39,2.39,0,0,1-2.49-2.51A2.39,2.39,0,0,1,8.17,9.87a2.41,2.41,0,0,1,2.5,2.49A2.43,2.43,0,0,1,8.13,14.84Zm1.72-2.53A3.22,3.22,0,0,0,9.59,11a1.45,1.45,0,0,0-1.38-.91A1.45,1.45,0,0,0,6.72,11a3.29,3.29,0,0,0,0,2.84,1.39,1.39,0,0,0,1.39.79,1.44,1.44,0,0,0,1.38-.81A3.2,3.2,0,0,0,9.85,12.31Z"/><path class="cls-4" d="M19.44,14.84A2.39,2.39,0,0,1,17,12.33a2.38,2.38,0,0,1,2.54-2.46A2.41,2.41,0,0,1,22,12.36,2.43,2.43,0,0,1,19.44,14.84Zm1.72-2.49A3.18,3.18,0,0,0,20.89,11a1.43,1.43,0,0,0-1.36-.9A1.45,1.45,0,0,0,18,11a3.26,3.26,0,0,0,0,2.86,1.41,1.41,0,0,0,1.38.78,1.45,1.45,0,0,0,1.38-.8A3,3,0,0,0,21.16,12.35Z"/><path class="cls-4" d="M2,13.24h.18l0,0a1.78,1.78,0,0,0,.46.89A1.17,1.17,0,0,0,4,14.46a.81.81,0,0,0,.32-1.38,3.14,3.14,0,0,0-.63-.45c-.26-.14-.54-.24-.8-.39a1.35,1.35,0,0,1-.8-1.07,1.22,1.22,0,0,1,1.19-1.3,1.71,1.71,0,0,1,1.17.33c.14,0,.1-.34.34-.25v1.23c-.15.08-.21,0-.24-.13a1.19,1.19,0,0,0-.83-.94,1,1,0,0,0-.72.07.62.62,0,0,0-.2,1,2.28,2.28,0,0,0,.58.44c.29.17.6.29.89.45A1.45,1.45,0,0,1,5,14a1.4,1.4,0,0,1-1.83.8,8.43,8.43,0,0,1-.8-.39c-.12.07,0,.41-.35.33V13.43C2,13.37,2,13.31,2,13.24Z"/><path class="cls-4" d="M15.75,10.2c.14-.07.1-.33.34-.25v1.24c-.17.07-.21,0-.25-.16a1.12,1.12,0,0,0-.81-.91,1.47,1.47,0,0,0-.72.06.62.62,0,0,0-.2,1,2.28,2.28,0,0,0,.58.44c.29.17.61.29.9.46a1.45,1.45,0,0,1,.28,2.43,1.48,1.48,0,0,1-1.65.14,6,6,0,0,1-.55-.31c-.14.08,0,.41-.35.34V13.25c.14-.06.17,0,.23.14a3.69,3.69,0,0,0,.43.78,1.16,1.16,0,0,0,1.3.31.83.83,0,0,0,.34-1.41,2.87,2.87,0,0,0-.62-.43c-.26-.15-.54-.25-.8-.39a1.36,1.36,0,0,1-.81-1.09,1.21,1.21,0,0,1,1.2-1.29A1.7,1.7,0,0,1,15.75,10.2Z"/><path class="cls-4" d="M33.94,10v.19h-.17c-.34,0-.41.14-.24.44l.46.81.53.9.38-.62.66-1.1c.15-.25.1-.34-.17-.39L35,10.2,35,10h1.69v.19a1.12,1.12,0,0,0-1,.71c-.3.53-.63,1.05-.95,1.57a.64.64,0,0,0-.08.3c0,.37,0,.74,0,1.12s.11.57.55.62h.13l0,0a.81.81,0,0,1,0,.16h-2.1v-.18c.67-.11.66-.14.71-.83a2.66,2.66,0,0,0-.59-2,8.19,8.19,0,0,1-.63-1,.92.92,0,0,0-.81-.53V10Z"/><path class="cls-4" d="M20.61,19.48a.54.54,0,0,1-.52-.53.53.53,0,1,1,.52.53Z"/><path class="cls-4" d="M2.73,19.48A.52.52,0,0,1,2.21,19a.54.54,0,0,1,.54-.51.52.52,0,0,1,0,1Z"/><path class="cls-4" d="M28.81,19a.53.53,0,1,1-.54-.51A.54.54,0,0,1,28.81,19Z"/><path class="cls-4" d="M36.47,19a.53.53,0,0,1-.53.52.52.52,0,1,1,0-1A.53.53,0,0,1,36.47,19Z"/><path class="cls-4" d="M13.47,19a.52.52,0,1,1-.52-.52A.52.52,0,0,1,13.47,19Z"/><path class="cls-4" d="M9.88,19a.52.52,0,0,1,.52-.52.52.52,0,0,1,0,1A.52.52,0,0,1,9.88,19Z"/><path class="cls-4" d="M5.81,19a.52.52,0,0,1-.53.52.52.52,0,0,1,0-1A.53.53,0,0,1,5.81,19Z"/><path class="cls-4" d="M18.06,18.44a.52.52,0,1,1-.52.52A.52.52,0,0,1,18.06,18.44Z"/><path class="cls-4" d="M25.74,21.27a.5.5,0,0,1,.51.51.51.51,0,0,1-.53.51.51.51,0,1,1,0-1Z"/><path class="cls-4" d="M15.5,5A.52.52,0,1,1,16,4.44.5.5,0,0,1,15.5,5Z"/><path class="cls-4" d="M7.83,5a.52.52,0,1,1,.52-.5A.5.5,0,0,1,7.83,5Z"/><path class="cls-4" d="M2.74,1.11a.53.53,0,0,1,.52.52.53.53,0,0,1-.54.51.51.51,0,0,1-.51-.51A.52.52,0,0,1,2.74,1.11Z"/><path class="cls-4" d="M13.47,1.63a.51.51,0,0,1-.54.51.52.52,0,1,1,.54-.51Z"/><path class="cls-4" d="M18.05,1.11a.52.52,0,0,1,.53.52.53.53,0,0,1-.51.51.51.51,0,0,1-.53-.49A.52.52,0,0,1,18.05,1.11Z"/><path class="cls-4" d="M20.61,2.14a.52.52,0,0,1-.52-.53.53.53,0,0,1,.52-.5.52.52,0,0,1,.53.51A.52.52,0,0,1,20.61,2.14Z"/><path class="cls-4" d="M28.29,2.14a.52.52,0,0,1-.53-.51.53.53,0,0,1,1,0A.53.53,0,0,1,28.29,2.14Z"/><path class="cls-4" d="M23.69,4.44a.52.52,0,0,1-1,0,.49.49,0,0,1,.52-.52A.51.51,0,0,1,23.69,4.44Z"/><path class="cls-4" d="M18.05,22.29a.51.51,0,1,1,0-1,.51.51,0,1,1,0,1Z"/><path class="cls-4" d="M5.3,1.11a.52.52,0,1,1-.53.52A.52.52,0,0,1,5.3,1.11Z"/><path class="cls-4" d="M10.4,1.11a.53.53,0,0,1,.52.51.53.53,0,0,1-.53.52.52.52,0,1,1,0-1Z"/><path class="cls-4" d="M2.72,22.29a.51.51,0,1,1,0-1,.51.51,0,1,1,0,1Z"/><path class="cls-4" d="M30.83,22.29a.5.5,0,0,1-.51-.5.5.5,0,0,1,.52-.52.51.51,0,1,1,0,1Z"/><path class="cls-4" d="M10.4,5a.52.52,0,1,1,0-1,.52.52,0,1,1,0,1Z"/><path class="cls-4" d="M26.25,19a.53.53,0,0,1-.51.52.52.52,0,1,1,0-1A.53.53,0,0,1,26.25,19Z"/><path class="cls-4" d="M26.25,4.45a.51.51,0,0,1-.54.51.52.52,0,0,1-.5-.52.5.5,0,0,1,.53-.51A.52.52,0,0,1,26.25,4.45Z"/><path class="cls-4" d="M28.29,5a.52.52,0,1,1,.52-.51A.52.52,0,0,1,28.29,5Z"/><path class="cls-4" d="M33.91,21.79a.51.51,0,0,1-.54.5.51.51,0,1,1,.54-.5Z"/><path class="cls-4" d="M36,5a.52.52,0,1,1,0-1,.52.52,0,1,1,0,1Z"/><path class="cls-4" d="M12.94,22.29a.51.51,0,1,1,0-1,.51.51,0,1,1,0,1Z"/><path class="cls-4" d="M10.4,22.29a.51.51,0,1,1,0-1,.52.52,0,0,1,.52.5A.51.51,0,0,1,10.4,22.29Z"/><path class="cls-4" d="M35.93,22.29a.51.51,0,1,1,0-1,.52.52,0,0,1,.51.51A.51.51,0,0,1,35.93,22.29Z"/><path class="cls-4" d="M8.35,1.62a.5.5,0,0,1-.52.52.49.49,0,0,1-.5-.51.5.5,0,0,1,.52-.52A.5.5,0,0,1,8.35,1.62Z"/><path class="cls-4" d="M13,5a.52.52,0,1,1,0-1,.5.5,0,0,1,.52.52A.51.51,0,0,1,13,5Z"/><path class="cls-4" d="M18.07,5a.52.52,0,1,1,0-1,.52.52,0,0,1,0,1Z"/><path class="cls-4" d="M36,2.14a.52.52,0,0,1-.53-.52A.53.53,0,0,1,36,1.11a.52.52,0,1,1,0,1Z"/><path class="cls-4" d="M33.91,4.45a.52.52,0,0,1-1,0,.5.5,0,0,1,.52-.52A.51.51,0,0,1,33.91,4.45Z"/><path class="cls-4" d="M28.27,22.29a.52.52,0,0,1-.51-.51.53.53,0,0,1,1,0A.52.52,0,0,1,28.27,22.29Z"/><path class="cls-4" d="M23.17,21.27a.51.51,0,1,1-.51.5A.49.49,0,0,1,23.17,21.27Z"/><path class="cls-4" d="M20.6,22.29a.51.51,0,1,1,0-1,.51.51,0,1,1,0,1Z"/><path class="cls-4" d="M5.29,22.29a.51.51,0,0,1-.52-.51.52.52,0,0,1,1,0A.51.51,0,0,1,5.29,22.29Z"/><path class="cls-4" d="M15.51,2.14a.52.52,0,1,1,0-1,.51.51,0,0,1,.52.5A.5.5,0,0,1,15.51,2.14Z"/><path class="cls-4" d="M23.69,1.62a.51.51,0,0,1-.52.52.5.5,0,0,1-.51-.51.5.5,0,0,1,.52-.52A.51.51,0,0,1,23.69,1.62Z"/><path class="cls-4" d="M26.25,1.63a.52.52,0,0,1-.52.51.52.52,0,1,1,0-1A.52.52,0,0,1,26.25,1.63Z"/><path class="cls-4" d="M20.62,5a.52.52,0,1,1,0-1,.52.52,0,0,1,.53.52A.53.53,0,0,1,20.62,5Z"/><path class="cls-4" d="M33.91,1.62a.52.52,0,1,1-.51-.51A.51.51,0,0,1,33.91,1.62Z"/><path class="cls-4" d="M30.85,3.93a.5.5,0,0,1,.5.51.5.5,0,0,1-.52.52.5.5,0,0,1-.51-.53A.51.51,0,0,1,30.85,3.93Z"/><path class="cls-4" d="M8.35,19a.51.51,0,0,1-.5.52A.52.52,0,0,1,7.33,19a.51.51,0,0,1,.51-.51A.5.5,0,0,1,8.35,19Z"/><path class="cls-4" d="M16,19a.52.52,0,0,1-.52.53.52.52,0,0,1,0-1A.51.51,0,0,1,16,19Z"/><path class="cls-4" d="M23.69,19a.52.52,0,0,1-.52.53.52.52,0,0,1,0-1A.53.53,0,0,1,23.69,19Z"/><path class="cls-4" d="M30.32,19a.52.52,0,1,1,1,0,.51.51,0,0,1-.51.51A.52.52,0,0,1,30.32,19Z"/><path class="cls-4" d="M2.73,5a.52.52,0,1,1,0-1,.53.53,0,0,1,.52.51A.52.52,0,0,1,2.73,5Z"/><path class="cls-4" d="M5.28,3.93a.51.51,0,0,1,.53.52.52.52,0,0,1-1,0A.51.51,0,0,1,5.28,3.93Z"/><path class="cls-4" d="M32.88,19a.51.51,0,0,1,.51-.51.52.52,0,1,1,0,1A.51.51,0,0,1,32.88,19Z"/><path class="cls-4" d="M31.35,1.61a.5.5,0,0,1-.51.53.52.52,0,1,1,0-1A.5.5,0,0,1,31.35,1.61Z"/><path class="cls-4" d="M16,21.78a.52.52,0,0,1-1,0,.5.5,0,0,1,.53-.51A.49.49,0,0,1,16,21.78Z"/><path class="cls-4" d="M7.84,21.27a.51.51,0,1,1,0,1,.51.51,0,1,1,0-1Z"/><path class="cls-4" d="M24.47,23.55a.36.36,0,0,1-.36-.36.35.35,0,0,1,.36-.35.36.36,0,1,1,0,.71Z"/><path class="cls-4" d="M14.53,23.19a.35.35,0,0,1-.35.36.36.36,0,0,1-.37-.35.35.35,0,0,1,.35-.36A.34.34,0,0,1,14.53,23.19Z"/><path class="cls-4" d="M1.66,20.44a.37.37,0,0,1-.37.36.38.38,0,0,1-.35-.37.35.35,0,0,1,.37-.35A.34.34,0,0,1,1.66,20.44Z"/><path class="cls-4" d="M3.85,6.22a.37.37,0,0,1-.33-.41.34.34,0,0,1,.41-.3.35.35,0,0,1,.31.38A.37.37,0,0,1,3.85,6.22Z"/><path class="cls-4" d="M3.88,20.08a.35.35,0,0,1,.36.36.36.36,0,1,1-.72,0A.34.34,0,0,1,3.88,20.08Z"/><path class="cls-4" d="M3.87,22.84a.35.35,0,0,1,.37.35.36.36,0,0,1-.36.36.34.34,0,0,1-.36-.35A.34.34,0,0,1,3.87,22.84Z"/><path class="cls-4" d="M11.6,22.84a.33.33,0,0,1,.35.36.34.34,0,0,1-.36.35.37.37,0,0,1-.36-.36A.36.36,0,0,1,11.6,22.84Z"/><path class="cls-4" d="M16.75,20.8a.36.36,0,0,1-.36-.36.34.34,0,0,1,.35-.36.35.35,0,0,1,.37.35A.37.37,0,0,1,16.75,20.8Z"/><path class="cls-4" d="M26.69,23.16a.33.33,0,0,1,.38-.32.36.36,0,0,1,.34.38.37.37,0,0,1-.4.33A.34.34,0,0,1,26.69,23.16Z"/><path class="cls-4" d="M34.77,23.55a.36.36,0,0,1-.37-.35.35.35,0,0,1,.36-.36.33.33,0,0,1,.36.35A.34.34,0,0,1,34.77,23.55Z"/><path class="cls-4" d="M34.76,6.22a.37.37,0,0,1-.36-.37.34.34,0,0,1,.37-.34.33.33,0,0,1,.35.36A.35.35,0,0,1,34.76,6.22Z"/><path class="cls-4" d="M37.34,20.8a.37.37,0,0,1-.36-.37.35.35,0,0,1,.37-.35.34.34,0,0,1,.35.36A.37.37,0,0,1,37.34,20.8Z"/><path class="cls-4" d="M34.76,20.08a.34.34,0,0,1,.36.35.36.36,0,0,1-.35.37.39.39,0,0,1-.37-.36A.35.35,0,0,1,34.76,20.08Z"/><path class="cls-4" d="M17.11,5.85a.37.37,0,0,1-.35.37.35.35,0,0,1-.37-.35.34.34,0,0,1,.35-.36A.34.34,0,0,1,17.11,5.85Z"/><path class="cls-4" d="M32.18,5.51a.34.34,0,0,1,.37.34.35.35,0,0,1-.35.37.37.37,0,0,1-.37-.35A.34.34,0,0,1,32.18,5.51Z"/><path class="cls-4" d="M12,3.1a.35.35,0,0,1-.35.36.37.37,0,0,1-.37-.36.36.36,0,0,1,.37-.36A.34.34,0,0,1,12,3.1Z"/><path class="cls-4" d="M14.53,20.43a.37.37,0,0,1-.36.37.37.37,0,0,1-.36-.37.36.36,0,0,1,.72,0Z"/><path class="cls-4" d="M27,6.22a.35.35,0,0,1-.35-.36.33.33,0,0,1,.36-.35.36.36,0,0,1,.36.35A.37.37,0,0,1,27,6.22Z"/><path class="cls-4" d="M11.6,20.08a.33.33,0,0,1,.35.36.36.36,0,0,1-.36.36.39.39,0,0,1-.36-.37A.37.37,0,0,1,11.6,20.08Z"/><path class="cls-4" d="M22.25,5.87a.35.35,0,0,1-.37.35.37.37,0,0,1-.35-.37.35.35,0,0,1,.37-.34A.33.33,0,0,1,22.25,5.87Z"/><path class="cls-4" d="M1.66,5.87a.35.35,0,0,1-.37.35.36.36,0,0,1-.35-.37.34.34,0,0,1,.37-.34A.34.34,0,0,1,1.66,5.87Z"/><path class="cls-4" d="M37.33,22.84a.34.34,0,0,1,.37.34.36.36,0,1,1-.72,0A.34.34,0,0,1,37.33,22.84Z"/><path class="cls-4" d="M1.66,23.19a.35.35,0,0,1-.35.36.36.36,0,0,1-.37-.35.35.35,0,0,1,.36-.36A.34.34,0,0,1,1.66,23.19Z"/><path class="cls-4" d="M22.25,20.43a.36.36,0,0,1-.35.37.38.38,0,0,1-.37-.37.36.36,0,0,1,.36-.35A.34.34,0,0,1,22.25,20.43Z"/><path class="cls-4" d="M9.38,23.18a.35.35,0,0,1-.35.37.36.36,0,1,1,0-.71A.34.34,0,0,1,9.38,23.18Z"/><path class="cls-4" d="M14.17,6.22a.37.37,0,0,1-.36-.37.34.34,0,0,1,.37-.34.33.33,0,0,1,.35.36A.36.36,0,0,1,14.17,6.22Z"/><path class="cls-4" d="M24.47,6.22a.36.36,0,0,1-.36-.36.34.34,0,0,1,.36-.35.33.33,0,0,1,.36.35A.36.36,0,0,1,24.47,6.22Z"/><path class="cls-4" d="M19.68,23.2a.35.35,0,0,1-.36.35.36.36,0,0,1-.36-.36.36.36,0,0,1,.72,0Z"/><path class="cls-4" d="M27,2.74a.36.36,0,0,1,.37.36.38.38,0,0,1-.38.36.35.35,0,0,1-.34-.35A.34.34,0,0,1,27,2.74Z"/><path class="cls-4" d="M24.83,20.44a.36.36,0,1,1-.72,0,.36.36,0,0,1,.72,0Z"/><path class="cls-4" d="M27.41,20.43a.39.39,0,0,1-.36.37.36.36,0,0,1-.36-.36.33.33,0,0,1,.35-.36A.37.37,0,0,1,27.41,20.43Z"/><path class="cls-4" d="M9,6.22a.37.37,0,0,1-.36-.36A.35.35,0,0,1,9,5.51a.34.34,0,0,1,.35.35A.36.36,0,0,1,9,6.22Z"/><path class="cls-4" d="M6.82,5.86a.38.38,0,0,1-.37.36.35.35,0,0,1-.36-.37.34.34,0,0,1,.35-.34A.36.36,0,0,1,6.82,5.86Z"/><path class="cls-4" d="M1.3,3.46a.36.36,0,1,1,0-.72.35.35,0,0,1,.34.36A.36.36,0,0,1,1.3,3.46Z"/><path class="cls-4" d="M3.87,2.74a.36.36,0,0,1,.37.35.37.37,0,0,1-.36.37.36.36,0,0,1-.36-.36A.35.35,0,0,1,3.87,2.74Z"/><path class="cls-4" d="M14.53,3.1a.36.36,0,1,1-.72,0,.36.36,0,0,1,.36-.35A.35.35,0,0,1,14.53,3.1Z"/><path class="cls-4" d="M37.7,3.11a.36.36,0,1,1-.35-.37A.36.36,0,0,1,37.7,3.11Z"/><path class="cls-4" d="M19.33,2.74a.36.36,0,0,1,.35.37.35.35,0,0,1-.35.35A.37.37,0,0,1,19,3.1.36.36,0,0,1,19.33,2.74Z"/><path class="cls-4" d="M24.83,3.11a.37.37,0,0,1-.38.35.36.36,0,1,1,.38-.35Z"/><path class="cls-4" d="M6.82,23.19a.37.37,0,0,1-.37.36.36.36,0,1,1,0-.71A.37.37,0,0,1,6.82,23.19Z"/><path class="cls-4" d="M34.77,3.46a.37.37,0,0,1-.37-.36.36.36,0,0,1,.36-.36.35.35,0,0,1,.36.36A.35.35,0,0,1,34.77,3.46Z"/><path class="cls-4" d="M6.46,20.8a.36.36,0,0,1-.37-.37.36.36,0,0,1,.72,0A.37.37,0,0,1,6.46,20.8Z"/><path class="cls-4" d="M9.38,20.44A.36.36,0,0,1,9,20.8a.37.37,0,0,1-.36-.37A.36.36,0,0,1,9,20.08.34.34,0,0,1,9.38,20.44Z"/><path class="cls-4" d="M16.74,22.84a.36.36,0,0,1,.37.35.37.37,0,0,1-.36.36.36.36,0,1,1,0-.71Z"/><path class="cls-4" d="M19.68,20.43a.37.37,0,0,1-.36.37.37.37,0,0,1-.36-.37.35.35,0,0,1,.35-.35A.35.35,0,0,1,19.68,20.43Z"/><path class="cls-4" d="M21.9,23.55a.37.37,0,0,1-.37-.35.36.36,0,0,1,.36-.36.33.33,0,0,1,.36.35A.35.35,0,0,1,21.9,23.55Z"/><path class="cls-4" d="M11.6,5.51a.33.33,0,0,1,.35.35.35.35,0,0,1-.35.36.37.37,0,0,1-.37-.36A.35.35,0,0,1,11.6,5.51Z"/><path class="cls-4" d="M37.34,6.22A.36.36,0,0,1,37,5.86a.36.36,0,0,1,.72,0A.36.36,0,0,1,37.34,6.22Z"/><path class="cls-4" d="M29.62,22.84a.35.35,0,0,1,.36.36.36.36,0,0,1-.37.35.36.36,0,1,1,0-.71Z"/><path class="cls-4" d="M32.55,20.44a.36.36,0,1,1-.72,0,.35.35,0,0,1,.37-.35A.34.34,0,0,1,32.55,20.44Z"/><path class="cls-4" d="M19.68,5.85a.36.36,0,1,1-.72,0,.35.35,0,0,1,.34-.35A.35.35,0,0,1,19.68,5.85Z"/><path class="cls-4" d="M21.89,2.74a.36.36,0,0,1,0,.72.36.36,0,1,1,0-.72Z"/><path class="cls-4" d="M9,3.46a.37.37,0,0,1-.37-.35A.36.36,0,0,1,9,2.74a.36.36,0,0,1,0,.72Z"/><path class="cls-4" d="M32.55,23.19a.35.35,0,0,1-.35.36.36.36,0,1,1,0-.71A.35.35,0,0,1,32.55,23.19Z"/><path class="cls-4" d="M29.62,5.51a.35.35,0,0,1,.36.36.36.36,0,0,1-.36.35.36.36,0,0,1-.36-.36A.33.33,0,0,1,29.62,5.51Z"/><path class="cls-4" d="M32.55,3.11a.36.36,0,1,1-.35-.37A.35.35,0,0,1,32.55,3.11Z"/><path class="cls-4" d="M6.81,3.09a.37.37,0,0,1-.36.37.36.36,0,1,1,.36-.37Z"/><path class="cls-4" d="M29.63,20.08a.35.35,0,0,1,.35.37.36.36,0,0,1-.72,0A.34.34,0,0,1,29.63,20.08Z"/><path class="cls-4" d="M17.11,3.11a.37.37,0,0,1-.37.35.35.35,0,0,1-.35-.37.34.34,0,0,1,.36-.35A.36.36,0,0,1,17.11,3.11Z"/><path class="cls-4" d="M30,3.1a.37.37,0,0,1-.37.36.35.35,0,0,1-.35-.37.36.36,0,0,1,.36-.35A.36.36,0,0,1,30,3.1Z"/></g></g></svg>