<svg xmlns="http://www.w3.org/2000/svg" viewBox="0 0 6.52 6.52"><defs><style>.cls-1{isolation:isolate;}.cls-2{opacity:0.15;}.cls-2,.cls-3{mix-blend-mode:multiply;}.cls-3{opacity:0.7;}.cls-4{fill:#fff;}</style></defs><title>test2</title><g class="cls-1"><g id="Layer_1" data-name="Layer 1"><g class="cls-2"><path d="M6.05,3.07h0L3.56.58a.42.42,0,0,0-.6,0L.47,3.07a.43.43,0,0,0,0,.61.45.45,0,0,0,.61,0L3.26,1.49,5.44,3.68a.45.45,0,0,0,.61,0A.43.43,0,0,0,6.05,3.07Z"/><path d="M3.26,1.77l-2,2v2a.28.28,0,0,0,.3.27h.82A.07.07,0,0,0,2.44,6V4.64a.82.82,0,0,1,1.64,0V6a.07.07,0,0,0,.07.07H5a.28.28,0,0,0,.3-.27v-2Z"/><path d="M6.19,3.21h0L3.71.72a.45.45,0,0,0-.61,0L.61,3.21a.43.43,0,0,0,.61.61L3.4,1.63,5.58,3.82a.43.43,0,0,0,.61-.61Z"/><path d="M3.4,1.91l-2,2v2a.3.3,0,0,0,.3.28h.83a.08.08,0,0,0,.07-.07V4.78A.81.81,0,0,1,3.4,4a.82.82,0,0,1,.82.81V6.14a.08.08,0,0,0,.07.07h.82a.29.29,0,0,0,.3-.28v-2Z"/></g><g class="cls-3"><path d="M5.91,2.93h0L3.42.44a.43.43,0,0,0-.61,0L.33,2.93a.42.42,0,0,0,0,.6.43.43,0,0,0,.61,0L3.12,1.35,5.3,3.53a.43.43,0,0,0,.61,0A.42.42,0,0,0,5.91,2.93Z"/><path d="M3.12,1.63l-2,2v2a.3.3,0,0,0,.31.28h.82a.07.07,0,0,0,.07-.07V4.5a.82.82,0,0,1,.82-.82.82.82,0,0,1,.81.82V5.85A.08.08,0,0,0,4,5.92h.83a.29.29,0,0,0,.3-.28v-2Z"/></g><path class="cls-4" d="M6.05,3.07h0L3.56.58a.42.42,0,0,0-.6,0L.47,3.07a.43.43,0,0,0,0,.61.45.45,0,0,0,.61,0L3.26,1.49,5.44,3.68a.45.45,0,0,0,.61,0A.43.43,0,0,0,6.05,3.07Z"/><path class="cls-4" d="M3.26,1.77l-2,2v2a.28.28,0,0,0,.3.27h.82A.07.07,0,0,0,2.44,6V4.64a.82.82,0,0,1,1.64,0V6a.07.07,0,0,0,.07.07H5a.28.28,0,0,0,.3-.27v-2Z"/></g></g></svg>