<svg xmlns="http://www.w3.org/2000/svg" viewBox="0 0 6.52 6.52"><defs><style>.cls-1{isolation:isolate;}.cls-2{opacity:0.15;}.cls-2,.cls-3{mix-blend-mode:multiply;}.cls-3{opacity:0.7;}.cls-4{fill:#fff;}</style></defs><title>test2</title><g class="cls-1"><g id="Layer_1" data-name="Layer 1"><g class="cls-2"><path d="M4.63,3.1a1.55,1.55,0,0,0-1.18.54c.1.16.22.38.39.68a.85.85,0,0,1,.79-.54.87.87,0,0,1,.86.86.85.85,0,0,1-.85.85A.93.93,0,0,1,3.81,5C3.27,4.11,3.33,3.9,3,3.55A1.52,1.52,0,0,0,1.89,3.1a1.54,1.54,0,1,0,0,3.08A1.53,1.53,0,0,0,3,5.65C3,5.52,3,5.62,2.68,5a.86.86,0,1,1-.79-1.2A.9.9,0,0,1,2.5,4c.14.15.66,1.13.76,1.31h0A1.54,1.54,0,1,0,4.63,3.1Z"/><path d="M3.92.34a.92.92,0,0,0-.68.27A.94.94,0,0,0,2.55.34a.91.91,0,0,0-.85,1C1.7,2,2.34,2.35,3.13,3l.11.1L3.35,3C4.16,2.33,4.78,2,4.78,1.29A.91.91,0,0,0,3.92.34Z"/><path d="M4.77,3.24a1.51,1.51,0,0,0-1.17.55c.1.15.22.37.38.67a.86.86,0,1,1,.8,1.17A.91.91,0,0,1,4,5.09c-.54-.84-.48-1-.83-1.4A1.54,1.54,0,1,0,2,6.32,1.53,1.53,0,0,0,3.19,5.8l-.37-.68a.85.85,0,1,1-.18-.94,13.82,13.82,0,0,1,.76,1.3h0A1.54,1.54,0,1,0,4.77,3.24Z"/><path d="M4.06.48a.92.92,0,0,0-.68.27A.92.92,0,0,0,2.7.48a.91.91,0,0,0-.86,1c0,.66.65,1.06,1.43,1.75l.11.1.11-.1c.81-.71,1.43-1.09,1.43-1.75A.91.91,0,0,0,4.06.48Z"/></g><g class="cls-3"><path d="M4.49,3a1.54,1.54,0,0,0-1.18.54c.1.16.22.38.39.68a.85.85,0,0,1,.79-.54.86.86,0,1,1,0,1.71,1,1,0,0,1-.84-.55c-.53-.83-.47-1-.82-1.39A1.52,1.52,0,0,0,1.75,3,1.54,1.54,0,1,0,1.75,6,1.52,1.52,0,0,0,2.9,5.51c-.08-.13,0,0-.37-.67a.85.85,0,0,1-.78.51.86.86,0,1,1,.61-1.46C2.5,4,3,5,3.12,5.2h0A1.54,1.54,0,1,0,4.49,3Z"/><path d="M3.78.2A.9.9,0,0,0,3.1.47.94.94,0,0,0,2.41.2a.9.9,0,0,0-.85.94c0,.67.64,1.07,1.42,1.76L3.1,3l.11-.09C4,2.19,4.63,1.8,4.63,1.14A.9.9,0,0,0,3.78.2Z"/></g><path class="cls-4" d="M4.63,3.1a1.55,1.55,0,0,0-1.18.54c.1.16.22.38.39.68a.85.85,0,0,1,.79-.54.87.87,0,0,1,.86.86.85.85,0,0,1-.85.85A.93.93,0,0,1,3.81,5C3.27,4.11,3.33,3.9,3,3.55A1.52,1.52,0,0,0,1.89,3.1a1.54,1.54,0,1,0,0,3.08A1.53,1.53,0,0,0,3,5.65C3,5.52,3,5.62,2.68,5a.86.86,0,1,1-.79-1.2A.9.9,0,0,1,2.5,4c.14.15.66,1.13.76,1.31h0A1.54,1.54,0,1,0,4.63,3.1Z"/><path class="cls-4" d="M3.92.34a.92.92,0,0,0-.68.27A.94.94,0,0,0,2.55.34a.91.91,0,0,0-.85,1C1.7,2,2.34,2.35,3.13,3l.11.1L3.35,3C4.16,2.33,4.78,2,4.78,1.29A.91.91,0,0,0,3.92.34Z"/></g></g></svg>