<svg xmlns="http://www.w3.org/2000/svg" viewBox="0 0 38.55 24.66"><defs><style>.cls-1{isolation:isolate;}.cls-2{opacity:0.15;}.cls-2,.cls-3{mix-blend-mode:multiply;}.cls-4{fill:#fff;}</style></defs><title>convert-CUSTOMIZE-SVG-03</title><g class="cls-1"><g id="Layer_1" data-name="Layer 1"><g class="cls-2"><path d="M5.47,15.42a9.76,9.76,0,0,0-1.53,2.13,5.4,5.4,0,0,0-.65,2.06,2.94,2.94,0,0,0,.77,2.45,2.55,2.55,0,0,0,2.22.77.26.26,0,0,0,.18-.16A33.12,33.12,0,0,0,7.9,18.21a6.26,6.26,0,0,0,.1-.74l1-.25c-1-.83-2.76-1-4.66.57l-.2-.2c1.26-.95,2.58-1.59,4.2-1.06A2,2,0,0,1,9.73,18.2a.43.43,0,0,1,0,.11s0,.05,0,.1a3.61,3.61,0,0,0-.57,0A1.46,1.46,0,0,0,8,20.31a5.42,5.42,0,0,0,.54,1.11c.06.12.07.19,0,.29a2.91,2.91,0,0,1-1.35,1l-.13.06a2,2,0,0,1-1.75.29l-.18,0,0,0,0,.22H4.86s0,0,0,0c.06-.28-.11-.4-.34-.5a2.7,2.7,0,0,1-1.44-2.14,4.81,4.81,0,0,1,.57-3,9.69,9.69,0,0,1,1.35-2l.27-.31a5.92,5.92,0,0,1-2.24-5,16.08,16.08,0,0,1,.13-1.83c0-.22-.13-.27-.22-.39a5.27,5.27,0,0,1-.87-1.53,2.65,2.65,0,0,1,.8-3.08,4.26,4.26,0,0,1,1.79-.83,3.17,3.17,0,0,1,1.47-.07,3,3,0,0,1,1.57,1l.13.15a7.18,7.18,0,0,1,2.83-.37,8.3,8.3,0,0,1,2.77.65l.11-.13a2.36,2.36,0,0,1,2.59-.81,5.83,5.83,0,0,1,2.25,1.13A2.16,2.16,0,0,1,19.13,6a4.28,4.28,0,0,1-.84,2.36,1.23,1.23,0,0,0-.19.9,9.25,9.25,0,0,1-.39,3.22A5.76,5.76,0,0,1,16,15.17c.29.36.59.71.86,1.07a7,7,0,0,1,1.34,2.87,3.65,3.65,0,0,1-.64,3,2.66,2.66,0,0,1-1,.71c-.28.14-.28.13-.31.42H16l0-.16H14.86a5.47,5.47,0,0,1-2-1.18l-.1-.13.25-.33a2.84,2.84,0,0,0,.58-1.3,1.47,1.47,0,0,0-1.9-1.69l-.2.05a2.7,2.7,0,0,1,.42-1.25A2.5,2.5,0,0,1,13,16.48a5.48,5.48,0,0,1-.57.05H10.65c-.43,0-.86,0-1.29,0a7.52,7.52,0,0,1-3.81-1.09Zm5.33.81a7.68,7.68,0,0,0,2.44-.08,5.1,5.1,0,0,0,3.9-3,8.62,8.62,0,0,0,.65-4.43s-.06-.11-.11-.15a1.67,1.67,0,0,1-.57-1A.77.77,0,0,0,17,7.24a6.46,6.46,0,0,0-2.06-1.9,17.32,17.32,0,0,1-1.45-1,.94.94,0,0,1-.1-.1,1.17,1.17,0,0,0-.24-.21,7.27,7.27,0,0,0-2.71-.57,4.31,4.31,0,0,0-2.94.69c-.3.24-.64.42-1,.63s-.33.32-.59.27c0,0-.07,0-.1.07A8.36,8.36,0,0,0,4.23,7.1a1.73,1.73,0,0,1-.7.88s-.08.11-.09.17a10.27,10.27,0,0,0,0,3.41,5.27,5.27,0,0,0,1.49,3,6.28,6.28,0,0,0,4,1.66C9.5,16.28,10.15,16.23,10.8,16.23Zm2.48,1.23c0,.25,0,.5.09.74a32.36,32.36,0,0,0,1.45,4.47.27.27,0,0,0,.2.16,3.18,3.18,0,0,0,.82,0,2.59,2.59,0,0,0,1.51-.87A3.35,3.35,0,0,0,17.9,19a7.35,7.35,0,0,0-1.44-2.84c-.22-.29-.45-.56-.67-.82-.33.19-.66.4-1,.56s-.7.28-1,.42a4.79,4.79,0,0,1,3.41,1.26L17,17.8c-1.84-1.49-3.64-1.45-4.66-.57ZM6.05,4.81l1.55-1A2.61,2.61,0,0,0,5.8,2.71a4.24,4.24,0,0,0-2.29.56A2.37,2.37,0,0,0,2.21,6a4.36,4.36,0,0,0,1,1.91c.12-.09.23-.15.32-.23l.28-.27C3,6.46,2.87,5.74,3.46,5a1.85,1.85,0,0,1,1.12-.71A1.66,1.66,0,0,1,6.05,4.81Zm7.56-.68.76.49.75.5.25-.22a1.39,1.39,0,0,1,1.21-.28,2,2,0,0,1,1,.68,1.41,1.41,0,0,1,0,2c-.24.26-.24.28-.07.6a1.72,1.72,0,0,0,.22.33c.14.18.22.17.35,0a4.54,4.54,0,0,0,.77-2.06,2,2,0,0,0-1-2.11,12.68,12.68,0,0,0-1.42-.73,2.57,2.57,0,0,0-1.62-.16A2,2,0,0,0,13.61,4.13Z"/><path d="M10.84,20.39c.06-.26.11-.52.18-.78a1.16,1.16,0,0,1,1.17-.79,1,1,0,0,1,1,.73,1.47,1.47,0,0,1-.1,1,3.6,3.6,0,0,1-1,1.32c-.37.33-.77.63-1.16.93a.27.27,0,0,1-.23,0A6.83,6.83,0,0,1,8.83,21a2,2,0,0,1-.42-1.22,1,1,0,0,1,.89-1,1.18,1.18,0,0,1,1.29.79c.08.26.13.53.2.79Z"/><path d="M10.38,8.91a5.34,5.34,0,0,1,1.94.4,3.11,3.11,0,0,1,2,3.15,3.52,3.52,0,0,1-3.1,3.43A4.38,4.38,0,0,1,7.65,15,2.91,2.91,0,0,1,6.49,12.7a4.1,4.1,0,0,1,.18-1.63,3.07,3.07,0,0,1,2.44-2C9.52,9,10,9,10.38,8.91ZM6.76,12.46a2.7,2.7,0,0,0,1.08,2.3,4,4,0,0,0,3.48.82,3.23,3.23,0,0,0,2.44-1.92A3,3,0,0,0,11.7,9.38a5.27,5.27,0,0,0-2.37-.07A3.23,3.23,0,0,0,7.71,10,2.86,2.86,0,0,0,6.76,12.46Z"/><path d="M13.78,9.9A2.55,2.55,0,0,1,14,9.39a.54.54,0,0,1,1,0,1,1,0,0,1,0,1.08.52.52,0,0,1-.93,0A2.77,2.77,0,0,1,13.78,9.9Z"/><path d="M7,9.91a3.14,3.14,0,0,1-.29.61.5.5,0,0,1-.79,0,1,1,0,0,1,0-1.28.51.51,0,0,1,.81,0A4.11,4.11,0,0,1,7,9.91Z"/><path d="M8.67,12.32c.15-.2.27-.37.41-.54a.25.25,0,0,1,.18-.08h2.22a.27.27,0,0,1,.18.07c.12.18.23.37.35.57l-1.21,1a.63.63,0,0,0,0,.89c.17.11.34.3.51.31s.33-.2.49-.32l.36-.25.29.37-.6.42c-.21.14-.41.37-.62.37s-.39-.25-.59-.39l-.3-.21c-.27.18-.54.36-.8.55a.23.23,0,0,1-.3,0c-.32-.23-.66-.46-1-.68l-.06-.06.28-.37.85.6c.21-.14.41-.27.6-.41A.35.35,0,0,0,10,14a.75.75,0,0,0-.35-.82C9.34,12.9,9,12.6,8.67,12.32Z"/><path d="M5.67,15.62a9.44,9.44,0,0,0-1.53,2.13,5.4,5.4,0,0,0-.65,2.06,2.94,2.94,0,0,0,.77,2.45A2.56,2.56,0,0,0,6.47,23a.31.31,0,0,0,.19-.16A33.12,33.12,0,0,0,8.1,18.41c.05-.24.06-.5.09-.75l1-.24c-1-.83-2.76-1-4.67.57l-.19-.2c1.26-.95,2.58-1.59,4.2-1.06A2,2,0,0,1,9.93,18.4s0,.07,0,.11,0,0,0,.1a3.61,3.61,0,0,0-.57,0,1.46,1.46,0,0,0-1.13,1.9,5.94,5.94,0,0,0,.53,1.11c.07.12.08.19,0,.29a3.09,3.09,0,0,1-1.35,1,.38.38,0,0,0-.13.06,2,2,0,0,1-1.75.29l-.18,0h0l0,.23H5.06l0,0c.06-.28-.11-.4-.34-.51a2.67,2.67,0,0,1-1.44-2.13,4.81,4.81,0,0,1,.57-3,9.62,9.62,0,0,1,1.35-2c.09-.1.18-.19.27-.3a5.87,5.87,0,0,1-2.24-5,15.92,15.92,0,0,1,.13-1.83c0-.22-.13-.27-.22-.39a5.27,5.27,0,0,1-.87-1.53,2.67,2.67,0,0,1,.8-3.09,4.37,4.37,0,0,1,1.79-.82A3.14,3.14,0,0,1,6.3,2.68a3,3,0,0,1,1.58,1L8,3.8a7.18,7.18,0,0,1,2.83-.37,8.3,8.3,0,0,1,2.77.65L13.72,4a2.35,2.35,0,0,1,2.58-.81,5.67,5.67,0,0,1,2.26,1.13,2.15,2.15,0,0,1,.77,1.94,4.28,4.28,0,0,1-.84,2.36,1.22,1.22,0,0,0-.19.9,8.94,8.94,0,0,1-.4,3.21,5.69,5.69,0,0,1-1.71,2.69c.29.36.59.71.86,1.07a7.14,7.14,0,0,1,1.34,2.87,3.65,3.65,0,0,1-.64,3,2.45,2.45,0,0,1-1,.71c-.28.14-.29.14-.31.42h-.24l0-.15H15.05a5.43,5.43,0,0,1-2-1.18L13,22l.25-.33a3,3,0,0,0,.58-1.3,1.47,1.47,0,0,0-1.9-1.69l-.2.05a2.59,2.59,0,0,1,.42-1.25,2.5,2.5,0,0,1,1.07-.77,5.48,5.48,0,0,1-.57.05H10.85c-.43,0-.86,0-1.29,0a7.58,7.58,0,0,1-3.82-1.09Zm5.33.81a7.41,7.41,0,0,0,2.44-.09,5.08,5.08,0,0,0,3.89-3A8.47,8.47,0,0,0,18,9c0-.05-.06-.11-.11-.16a1.7,1.7,0,0,1-.58-1,.65.65,0,0,0-.11-.34,6.53,6.53,0,0,0-2.07-1.91,16.25,16.25,0,0,1-1.44-1l-.1-.1a1.17,1.17,0,0,0-.24-.21,7.29,7.29,0,0,0-2.72-.58,4.31,4.31,0,0,0-2.93.7c-.3.23-.64.42-1,.62s-.32.33-.59.28a.26.26,0,0,0-.1.07A8.32,8.32,0,0,0,4.43,7.3a1.83,1.83,0,0,1-.7.88s-.08.11-.09.17a10.27,10.27,0,0,0-.05,3.41,5.27,5.27,0,0,0,1.49,3,6.26,6.26,0,0,0,4,1.66C9.7,16.48,10.35,16.43,11,16.43Zm2.48,1.23c0,.25,0,.5.09.73A33.39,33.39,0,0,0,15,22.87a.31.31,0,0,0,.21.16A3.73,3.73,0,0,0,16,23a2.56,2.56,0,0,0,1.5-.87,3.36,3.36,0,0,0,.56-2.89,7.46,7.46,0,0,0-1.44-2.85c-.22-.28-.45-.55-.67-.81-.33.19-.66.4-1,.56s-.7.28-1.06.42a4.75,4.75,0,0,1,3.41,1.26l-.15.19c-1.83-1.49-3.63-1.45-4.65-.57ZM6.25,5,7.8,4A2.63,2.63,0,0,0,6,2.91a4.22,4.22,0,0,0-2.28.56,2.35,2.35,0,0,0-1.3,2.7,4.26,4.26,0,0,0,1,1.91l.32-.24A3.45,3.45,0,0,0,4,7.58c-.82-.92-.92-1.64-.34-2.34a1.87,1.87,0,0,1,1.13-.71A1.63,1.63,0,0,1,6.25,5Zm7.55-.68c.27.17.52.32.77.49l.74.5.26-.22a1.39,1.39,0,0,1,1.21-.28,2,2,0,0,1,1,.68,1.41,1.41,0,0,1,0,2c-.24.26-.25.28-.08.59a2.84,2.84,0,0,0,.22.34c.15.18.23.17.36,0a4.46,4.46,0,0,0,.77-2,2,2,0,0,0-1-2.12,11.13,11.13,0,0,0-1.42-.72A2.58,2.58,0,0,0,15,3.38,2,2,0,0,0,13.8,4.33Z"/><path d="M11,20.59c.06-.26.12-.52.19-.78a1.14,1.14,0,0,1,1.17-.8,1,1,0,0,1,1,.74,1.48,1.48,0,0,1-.1,1,3.62,3.62,0,0,1-1,1.32c-.36.33-.76.62-1.15.92a.26.26,0,0,1-.24,0A6.93,6.93,0,0,1,9,21.24,2,2,0,0,1,8.61,20a1,1,0,0,1,.88-1,1.17,1.17,0,0,1,1.3.79c.08.26.13.52.2.79Z"/><path d="M10.58,9.1a5.61,5.61,0,0,1,1.94.41,3.11,3.11,0,0,1,2,3.15,3.52,3.52,0,0,1-3.1,3.43,4.45,4.45,0,0,1-3.54-.93A2.91,2.91,0,0,1,6.69,12.9a4.1,4.1,0,0,1,.18-1.63,3.07,3.07,0,0,1,2.43-2C9.72,9.19,10.15,9.16,10.58,9.1ZM7,12.66A2.7,2.7,0,0,0,8,15a4,4,0,0,0,3.48.82A3.2,3.2,0,0,0,14,13.86a3,3,0,0,0-2-4.28A5.42,5.42,0,0,0,9.53,9.5a3.32,3.32,0,0,0-1.62.72A2.89,2.89,0,0,0,7,12.66Z"/><path d="M14,10.1a2.55,2.55,0,0,1,.18-.51.54.54,0,0,1,1,0,1,1,0,0,1,0,1.08.52.52,0,0,1-.93,0A2.41,2.41,0,0,1,14,10.1Z"/><path d="M7.18,10.1a3,3,0,0,1-.29.62.5.5,0,0,1-.79,0,1,1,0,0,1,0-1.28.51.51,0,0,1,.81,0A4.45,4.45,0,0,1,7.18,10.1Z"/><path d="M8.87,12.52A6.33,6.33,0,0,1,9.28,12a.25.25,0,0,1,.18-.08h2.22a.27.27,0,0,1,.18.07c.12.18.23.37.35.56l-1.21,1a.62.62,0,0,0,0,.89c.17.11.34.3.51.3s.33-.2.49-.31l.36-.25.29.37-.6.42c-.21.14-.42.37-.62.37s-.39-.25-.59-.39l-.31-.21c-.26.18-.53.35-.79.54a.22.22,0,0,1-.3,0l-1-.69-.06-.05.27-.38.86.61.6-.41a.35.35,0,0,0,.09-.17.75.75,0,0,0-.35-.82C9.53,13.1,9.22,12.8,8.87,12.52Z"/></g><g class="cls-3"><path d="M5.33,15.28A9.44,9.44,0,0,0,3.8,17.41a5.4,5.4,0,0,0-.65,2.06,2.94,2.94,0,0,0,.77,2.45,2.56,2.56,0,0,0,2.21.77.29.29,0,0,0,.19-.17,32.53,32.53,0,0,0,1.44-4.45c0-.24.06-.5.09-.75l1-.24c-1-.83-2.76-1-4.67.57L4,17.45c1.26-.95,2.58-1.59,4.2-1.06a2,2,0,0,1,1.43,1.67s0,.07,0,.11,0,0,0,.1a3.61,3.61,0,0,0-.57,0,1.46,1.46,0,0,0-1.13,1.9,5.94,5.94,0,0,0,.53,1.11c.07.12.08.19,0,.29a3.09,3.09,0,0,1-1.35,1,.38.38,0,0,0-.13.06,2,2,0,0,1-1.75.29l-.18,0H5l0,.23H4.72s0,0,0,0c.06-.28-.11-.4-.34-.51a2.67,2.67,0,0,1-1.44-2.13,4.81,4.81,0,0,1,.57-3,9.62,9.62,0,0,1,1.35-2l.27-.3a5.87,5.87,0,0,1-2.24-5A15.92,15.92,0,0,1,3,8.24C3,8,2.87,8,2.78,7.85a5.27,5.27,0,0,1-.87-1.53,2.67,2.67,0,0,1,.8-3.09A4.37,4.37,0,0,1,4.5,2.41,3.14,3.14,0,0,1,6,2.34a3,3,0,0,1,1.58,1l.13.15a7.18,7.18,0,0,1,2.83-.37,8.3,8.3,0,0,1,2.77.65l.11-.13A2.35,2.35,0,0,1,16,2.8a5.67,5.67,0,0,1,2.26,1.13A2.15,2.15,0,0,1,19,5.87a4.28,4.28,0,0,1-.84,2.36,1.22,1.22,0,0,0-.19.9,8.94,8.94,0,0,1-.4,3.21A5.69,5.69,0,0,1,15.85,15c.29.36.59.71.86,1.07A7.14,7.14,0,0,1,18.05,19a3.65,3.65,0,0,1-.64,3,2.45,2.45,0,0,1-1,.71c-.28.14-.29.14-.31.42h-.24l0-.15H14.71a5.43,5.43,0,0,1-2-1.18l-.1-.13.25-.33a3,3,0,0,0,.58-1.3,1.47,1.47,0,0,0-1.9-1.69l-.2.05a2.59,2.59,0,0,1,.42-1.25,2.44,2.44,0,0,1,1.07-.77,5.48,5.48,0,0,1-.57.05H10.51c-.43,0-.86,0-1.29,0A7.58,7.58,0,0,1,5.4,15.3Zm5.33.81A7.41,7.41,0,0,0,13.1,16,5.08,5.08,0,0,0,17,13a8.47,8.47,0,0,0,.66-4.42s-.06-.11-.11-.16a1.7,1.7,0,0,1-.58-1,.65.65,0,0,0-.11-.34,6.53,6.53,0,0,0-2.07-1.91,16.25,16.25,0,0,1-1.44-1l-.1-.1A1.17,1.17,0,0,0,13,3.93a7.29,7.29,0,0,0-2.72-.58,4.31,4.31,0,0,0-2.93.7c-.3.23-.64.42-1,.62S6.07,5,5.8,5A.26.26,0,0,0,5.7,5,8.32,8.32,0,0,0,4.09,7a1.83,1.83,0,0,1-.7.88c-.05,0-.08.11-.09.17a10.27,10.27,0,0,0,0,3.41,5.27,5.27,0,0,0,1.49,3,6.26,6.26,0,0,0,4,1.66C9.36,16.14,10,16.09,10.66,16.09Zm2.48,1.23c0,.25,0,.5.09.73a32.8,32.8,0,0,0,1.44,4.47.29.29,0,0,0,.21.17,3.73,3.73,0,0,0,.82,0,2.56,2.56,0,0,0,1.5-.87,3.36,3.36,0,0,0,.56-2.89A7.46,7.46,0,0,0,16.32,16c-.22-.28-.45-.55-.67-.81-.33.19-.66.4-1,.56s-.7.28-1.06.42A4.75,4.75,0,0,1,17,17.47l-.15.19c-1.83-1.49-3.63-1.45-4.65-.57ZM5.91,4.67l1.55-1A2.63,2.63,0,0,0,5.65,2.57a4.22,4.22,0,0,0-2.28.56,2.37,2.37,0,0,0-1.31,2.7,4.38,4.38,0,0,0,1,1.91l.32-.24a3.45,3.45,0,0,0,.28-.26c-.82-.92-.92-1.64-.34-2.34a1.87,1.87,0,0,1,1.13-.71A1.63,1.63,0,0,1,5.91,4.67ZM13.46,4c.27.17.52.32.77.49L15,5l.26-.22a1.39,1.39,0,0,1,1.21-.28,2,2,0,0,1,1,.68,1.41,1.41,0,0,1,0,2c-.24.26-.25.28-.08.59a2.84,2.84,0,0,0,.22.34c.15.18.23.17.36,0a4.46,4.46,0,0,0,.77-2,2,2,0,0,0-1-2.12,11.13,11.13,0,0,0-1.42-.72A2.58,2.58,0,0,0,14.7,3,2,2,0,0,0,13.46,4Z"/><path d="M10.69,20.25c.06-.26.12-.52.19-.78a1.14,1.14,0,0,1,1.17-.8,1,1,0,0,1,1,.74,1.41,1.41,0,0,1-.09,1,3.62,3.62,0,0,1-1,1.32c-.36.33-.76.62-1.15.92a.26.26,0,0,1-.24,0A6.93,6.93,0,0,1,8.69,20.9a2,2,0,0,1-.42-1.22,1,1,0,0,1,.88-1,1.17,1.17,0,0,1,1.3.79c.08.26.13.52.2.79Z"/><path d="M10.24,8.76a5.61,5.61,0,0,1,1.94.41,3.11,3.11,0,0,1,2,3.15,3.52,3.52,0,0,1-3.1,3.43,4.45,4.45,0,0,1-3.54-.93,2.93,2.93,0,0,1-1.16-2.26,4.1,4.1,0,0,1,.18-1.63A3.07,3.07,0,0,1,9,8.94C9.38,8.85,9.81,8.82,10.24,8.76ZM6.62,12.31A2.7,2.7,0,0,0,7.7,14.62a4,4,0,0,0,3.48.82,3.2,3.2,0,0,0,2.43-1.92,3,3,0,0,0-2-4.28,5.42,5.42,0,0,0-2.37-.08,3.32,3.32,0,0,0-1.62.72A2.88,2.88,0,0,0,6.62,12.31Z"/><path d="M13.64,9.76a2.55,2.55,0,0,1,.18-.51.54.54,0,0,1,1,0,1,1,0,0,1,0,1.08.53.53,0,0,1-.93,0A2.41,2.41,0,0,1,13.64,9.76Z"/><path d="M6.84,9.76a3,3,0,0,1-.29.62.5.5,0,0,1-.79,0,1,1,0,0,1,0-1.28.51.51,0,0,1,.81,0A4.45,4.45,0,0,1,6.84,9.76Z"/><path d="M8.53,12.18a6.33,6.33,0,0,1,.41-.54.25.25,0,0,1,.18-.08h2.22a.27.27,0,0,1,.18.07c.12.18.23.37.35.56l-1.21,1a.62.62,0,0,0,0,.89c.17.11.34.3.51.3s.33-.2.49-.31l.36-.25.29.37-.6.42c-.21.14-.42.37-.62.37s-.4-.25-.59-.39l-.31-.21c-.26.18-.53.35-.79.54a.22.22,0,0,1-.3,0l-1-.69-.06-.05.27-.38.86.61.6-.41a.35.35,0,0,0,.09-.17A.75.75,0,0,0,9.55,13C9.19,12.76,8.88,12.46,8.53,12.18Z"/></g><path class="cls-4" d="M5.53,15.47A9.86,9.86,0,0,0,4,17.61a5.77,5.77,0,0,0-.65,2.06,3,3,0,0,0,.77,2.45,2.59,2.59,0,0,0,2.22.77.32.32,0,0,0,.19-.17A33,33,0,0,0,8,18.27c0-.24.06-.5.09-.75l1-.24c-1-.83-2.76-1-4.67.57l-.19-.2a4.37,4.37,0,0,1,4.2-1.06,2,2,0,0,1,1.43,1.67.34.34,0,0,1,0,.1v.11a3.74,3.74,0,0,0-.58,0,1.45,1.45,0,0,0-1.12,1.9,5.37,5.37,0,0,0,.53,1.11c.07.12.08.19,0,.29a3.09,3.09,0,0,1-1.35,1,.38.38,0,0,0-.13.06,2,2,0,0,1-1.75.29l-.19,0h0l0,.23H4.92s0,0,0,0c0-.29-.11-.4-.34-.51a2.69,2.69,0,0,1-1.44-2.14,4.82,4.82,0,0,1,.57-3A9.56,9.56,0,0,1,5,15.6l.27-.3a5.91,5.91,0,0,1-2.25-5c0-.61.07-1.23.14-1.84,0-.21-.13-.26-.22-.38a5.33,5.33,0,0,1-.87-1.54,2.66,2.66,0,0,1,.8-3.08A4.31,4.31,0,0,1,4.7,2.61a3.14,3.14,0,0,1,1.46-.07,3,3,0,0,1,1.58,1l.13.15a7.16,7.16,0,0,1,2.83-.37,8.3,8.3,0,0,1,2.77.65l.11-.13A2.35,2.35,0,0,1,16.16,3a5.57,5.57,0,0,1,2.25,1.13,2.13,2.13,0,0,1,.78,1.94,4.28,4.28,0,0,1-.84,2.36,1.22,1.22,0,0,0-.19.9,9.17,9.17,0,0,1-.4,3.21,5.69,5.69,0,0,1-1.71,2.69c.29.36.59.7.86,1.07a7.28,7.28,0,0,1,1.34,2.87,3.65,3.65,0,0,1-.64,3,2.48,2.48,0,0,1-1,.71c-.27.14-.28.14-.31.42h-.23l0-.15H14.91a5.43,5.43,0,0,1-2-1.18l-.11-.13.26-.33a3,3,0,0,0,.58-1.3,1.48,1.48,0,0,0-1.91-1.7l-.19.06A2.59,2.59,0,0,1,12,17.31a2.44,2.44,0,0,1,1.07-.77l-.58.05H10.71c-.43,0-.86,0-1.29,0A7.68,7.68,0,0,1,5.6,15.5Zm5.33.82a7.41,7.41,0,0,0,2.44-.09,5.08,5.08,0,0,0,3.89-3,8.57,8.57,0,0,0,.66-4.42c0-.06-.06-.11-.11-.16a1.7,1.7,0,0,1-.58-1A.58.58,0,0,0,17,7.3,6.5,6.5,0,0,0,15,5.39a16.37,16.37,0,0,1-1.44-1,.32.32,0,0,1-.1-.1,1,1,0,0,0-.25-.2,7.2,7.2,0,0,0-2.71-.58,4.31,4.31,0,0,0-2.93.7c-.3.23-.64.41-1,.62s-.32.33-.59.28c0,0-.07,0-.1.07A8.12,8.12,0,0,0,4.29,7.16a1.76,1.76,0,0,1-.7.87.28.28,0,0,0-.09.18,10.27,10.27,0,0,0,0,3.41,5.27,5.27,0,0,0,1.49,3,6.31,6.31,0,0,0,4,1.66C9.56,16.34,10.21,16.29,10.86,16.29Zm2.48,1.23c0,.25,0,.49.09.73a32.8,32.8,0,0,0,1.44,4.47.32.32,0,0,0,.21.17,3.21,3.21,0,0,0,.82-.05A2.5,2.5,0,0,0,17.4,22,3.39,3.39,0,0,0,18,19.09a7.46,7.46,0,0,0-1.44-2.85c-.22-.28-.46-.55-.67-.81-.33.19-.66.39-1,.56s-.7.28-1.06.41a4.81,4.81,0,0,1,3.41,1.27l-.15.19c-1.83-1.49-3.63-1.45-4.65-.57ZM6.11,4.87l1.55-1A2.63,2.63,0,0,0,5.85,2.77a4.28,4.28,0,0,0-2.29.56A2.37,2.37,0,0,0,2.26,6a4.29,4.29,0,0,0,1,1.9l.32-.23a3.45,3.45,0,0,0,.28-.26C3,6.52,2.93,5.8,3.51,5.09a1.91,1.91,0,0,1,1.12-.7A1.62,1.62,0,0,1,6.11,4.87Zm7.55-.69.77.49.74.51L15.43,5a1.39,1.39,0,0,1,1.21-.28,1.88,1.88,0,0,1,1,.68,1.4,1.4,0,0,1,0,2c-.24.27-.25.29-.08.6a2.46,2.46,0,0,0,.22.34c.15.18.22.17.36,0a4.5,4.5,0,0,0,.77-2,2,2,0,0,0-1-2.12,11.13,11.13,0,0,0-1.42-.72,2.58,2.58,0,0,0-1.62-.16A2,2,0,0,0,13.66,4.18Z"/><path class="cls-4" d="M10.89,20.45c.06-.26.12-.52.19-.78a1.13,1.13,0,0,1,1.16-.8,1,1,0,0,1,1,.74,1.41,1.41,0,0,1-.09,1,3.62,3.62,0,0,1-1,1.32c-.36.33-.76.62-1.15.92a.26.26,0,0,1-.24,0A6.92,6.92,0,0,1,8.88,21.1a2,2,0,0,1-.41-1.22,1,1,0,0,1,.88-1,1.17,1.17,0,0,1,1.3.79c.07.26.13.52.19.79Z"/><path class="cls-4" d="M10.44,9a5.39,5.39,0,0,1,1.94.41,3.13,3.13,0,0,1,2,3.15A3.53,3.53,0,0,1,11.25,16,4.48,4.48,0,0,1,7.7,15a3,3,0,0,1-1.15-2.27,3.88,3.88,0,0,1,.18-1.62,3.1,3.1,0,0,1,2.43-2C9.58,9,10,9,10.44,9ZM6.82,12.51A2.68,2.68,0,0,0,7.9,14.82a4.07,4.07,0,0,0,3.48.82,3.21,3.21,0,0,0,2.43-1.92,3,3,0,0,0-2.05-4.28,5.42,5.42,0,0,0-2.37-.08,3.32,3.32,0,0,0-1.62.72A2.88,2.88,0,0,0,6.82,12.51Z"/><path class="cls-4" d="M13.84,10A3.39,3.39,0,0,1,14,9.45a.54.54,0,0,1,1,0,1,1,0,0,1,0,1.07.53.53,0,0,1-.94,0A3,3,0,0,1,13.84,10Z"/><path class="cls-4" d="M7,10a4.52,4.52,0,0,1-.29.62.5.5,0,0,1-.79,0A1,1,0,0,1,6,9.32a.51.51,0,0,1,.81,0A4,4,0,0,1,7,10Z"/><path class="cls-4" d="M8.72,12.37c.15-.19.28-.37.42-.53a.25.25,0,0,1,.18-.08h2.22a.24.24,0,0,1,.17.07c.13.18.24.37.36.56l-1.21,1a.6.6,0,0,0,0,.88c.17.12.34.31.51.31s.33-.2.49-.31l.35-.25.3.37-.61.42c-.2.13-.41.36-.61.36s-.4-.24-.59-.38l-.31-.22c-.27.19-.54.36-.8.55a.21.21,0,0,1-.29,0l-1-.69-.07-.06L8.55,14l.86.61.59-.41a.3.3,0,0,0,.1-.17.76.76,0,0,0-.35-.83A12.31,12.31,0,0,1,8.72,12.37Z"/></g></g></svg>