<svg xmlns="http://www.w3.org/2000/svg" viewBox="0 0 38.55 24.66"><defs><style>.cls-1{isolation:isolate;}.cls-2{opacity:0.15;}.cls-2,.cls-3{mix-blend-mode:multiply;}.cls-4{fill:#fff;}</style></defs><title>convert-CUSTOMIZE-SVG-03</title><g class="cls-1"><g id="Layer_1" data-name="Layer 1"><g class="cls-2"><path d="M5.09,18H4.82l-.06.24a2.58,2.58,0,0,1-2,2,1.55,1.55,0,0,1-1.58-.53,2.89,2.89,0,0,1,.7-4.32,4.92,4.92,0,0,1,1-.32l3-.92a.26.26,0,0,0,.14-.13c.12-.36.24-.72.35-1.08a.31.31,0,0,0,0-.23,3.93,3.93,0,0,1-.44-2.64,8.3,8.3,0,0,1,.69-2.5A3.41,3.41,0,0,1,7.86,6a.26.26,0,0,0,.08-.19,2.33,2.33,0,0,1,2.27-2.42A1.76,1.76,0,0,1,11.58,4a2.67,2.67,0,0,0,1.3.75,4.55,4.55,0,0,1,1.49.75.6.6,0,0,0,.24,0,5.45,5.45,0,0,1,1,0,1.48,1.48,0,0,1,1.09,1.76,2.15,2.15,0,0,1-.86,1.41.44.44,0,0,0-.14.25c0,.27-.06.54-.09.85l.45-.11a3.26,3.26,0,0,1,1.49,0,2.13,2.13,0,0,1,.35.14,1.08,1.08,0,0,1,.58,1.36A3.76,3.76,0,0,1,17.08,13a9,9,0,0,1-2.94,1.37,4.63,4.63,0,0,1-1.61.29s-.12.1-.14.16a10.18,10.18,0,0,1-.77,2.08,4.42,4.42,0,0,1-1.25,1.53,2.85,2.85,0,0,1-1.16.49A.45.45,0,0,0,9,19.1a4.07,4.07,0,0,1-1.08,1.29,2,2,0,0,1-1.59.4,1,1,0,0,1-.66-.41,2.93,2.93,0,0,1-.54-2c0-.11,0-.21,0-.32Zm1.06-.29a6,6,0,0,0,2,.92,2.47,2.47,0,0,0,2.47-.74,5.18,5.18,0,0,0,.74-1,9.67,9.67,0,0,0,.95-2.77.81.81,0,0,0-.24-.9,2.09,2.09,0,0,1-.2-.22l-1-.92A.21.21,0,0,0,10.7,12a1.9,1.9,0,0,0-.53.09c-.44.17-.89.35-1.32.55-.15.07-.27.16-.35,0a5.42,5.42,0,0,1-.79.66.69.69,0,0,1-1-.11.71.71,0,0,1-.1-.14l-.07,0-.35,1h.25a.93.93,0,0,1,.92.84,2.7,2.7,0,0,1,.07.41,2,2,0,0,1-.92,2.1Zm-2.82,2a.32.32,0,0,1-.16-.42c.08-.3.15-.6.24-.9a.82.82,0,0,1,.7-.62,2.51,2.51,0,0,1,.67,0,2.33,2.33,0,0,0,1.7-.56,1.51,1.51,0,0,0,.64-1.1,6,6,0,0,0-.07-1.2.51.51,0,0,0-.5-.45,2.43,2.43,0,0,0-.85.06c-1.15.33-2.29.7-3.43,1a1.66,1.66,0,0,0-.33.15,2.64,2.64,0,0,0-.58,3.88A1.32,1.32,0,0,0,2.71,20,2.29,2.29,0,0,0,4.47,18.3a2.65,2.65,0,0,0,.06-.3.72.72,0,0,0-.91.56l-.15.57C3.42,19.31,3.38,19.5,3.33,19.7Zm8-8.34v0a1.42,1.42,0,0,1-.65-.93,2.38,2.38,0,0,1,.18-1.51,2.1,2.1,0,0,1,2.38-1.15,2.59,2.59,0,0,1,1.64,1.06l.22-.09a1.43,1.43,0,0,1,.09.27.84.84,0,0,1-.09.23.44.44,0,0,0-.05.15,2.58,2.58,0,0,1-.46,1.57l-.16.24a.4.4,0,0,0,.2-.12,2.43,2.43,0,0,0,.61-1,5,5,0,0,0,0-2.49,2.76,2.76,0,0,0-1-1.75,5.6,5.6,0,0,0-2-.92s-.13,0-.15,0a1.09,1.09,0,0,1-1,.26.77.77,0,0,0-.26,0c-.46.19-.92.39-1.39.56a.73.73,0,0,0-.48.39A4.6,4.6,0,0,1,9.9,8.36a5.93,5.93,0,0,1-.23,2c0,.06,0,.18.05.2.42.24.85.47,1.28.69A1.29,1.29,0,0,0,11.35,11.36Zm-2.9-5.3c-.13.05-.22.07-.3.11a2.34,2.34,0,0,0-.9.78,6.86,6.86,0,0,0-1.12,4.59,2.5,2.5,0,0,0,.81,1.57.36.36,0,0,0,.46.08A2.07,2.07,0,0,0,8,12.75a6.4,6.4,0,0,0,1.46-2.68c0-.1,0-.19.07-.32a1.28,1.28,0,0,1-1.49-.34A.42.42,0,0,1,7.9,9C8,8.51,8,8,8.14,7.5S8.34,6.58,8.45,6.06Zm2.94,5.31c.48,0,.87.22,1.34.22A1.87,1.87,0,0,0,14,11.23a2.39,2.39,0,0,0,.8-1.48,1.1,1.1,0,0,0-.26-1A2.2,2.2,0,0,0,12.36,8,1.66,1.66,0,0,0,11,9.3a1.54,1.54,0,0,0,.49,1.81s0,0,0,0Zm1.1,3c1,.28,4.58-1.3,5.16-2.31-.52.37-1,.68-1.64.39a2,2,0,0,1-1-1.41,2.87,2.87,0,0,1-1.68.91l-.45,1.1c-.09.18.14.46-.23.57,0,0,0,0,0,.07C12.57,13.92,12.53,14.15,12.49,14.38Zm-5,4.43.21.18-.43.8-.41.76A2.62,2.62,0,0,0,8.69,19c-.32-.07-.64-.11-.95-.2a7.6,7.6,0,0,1-.89-.37c-.29-.14-.56-.32-.85-.48a.33.33,0,0,0-.19-.06c-.43.06-.44.07-.46.51a5,5,0,0,0,0,.55,2.25,2.25,0,0,0,.46,1.25c.09.12.26.3.32.27.21-.08.5,0,.64-.27l.2-.37C7.15,19.5,7.32,19.17,7.5,18.81Zm4.44-14a1.9,1.9,0,0,0-2.46-.9,1.81,1.81,0,0,0-1.25,2,1.42,1.42,0,0,1,.36,0A.31.31,0,0,0,9,5.69l.08-.2a2,2,0,0,1,.64-.92,1,1,0,0,1,1.41.18s.11.12.16.12S11.7,4.81,11.94,4.77Zm3.77,3.68a1.66,1.66,0,0,0,.59-2,1.26,1.26,0,0,0-1.55-.61,3.47,3.47,0,0,0,.42.5c.09.08.27.06.4.08l.12,0a.71.71,0,0,1,.54.61.84.84,0,0,1-.35.93A.33.33,0,0,0,15.71,8.45Zm-3.9,3.3-.31.56,1.25.43.17-.58Zm-2.25-.88-.1.31a.24.24,0,0,0,.17.36l.56.24c.15.07.23,0,.25-.14s0-.31,0-.35A8.41,8.41,0,0,0,9.56,10.87Zm1.15.84a3,3,0,0,1,.37.24c.2.16.27.16.37-.08a1.72,1.72,0,0,0,.07-.21l-.76-.19Zm-1.44-.06-.37.65,0,0L9.84,12l0-.05Zm3.29,1.69c0-.37-.12-.52-.56-.52C12.22,13,12.29,13.25,12.56,13.34Z"/><path d="M15.38,4.89A4,4,0,0,0,14.57,3a.85.85,0,0,1-.12-1.05,1.08,1.08,0,0,1,1.06-.57,1,1,0,0,1,.91.75.78.78,0,0,0,0,.14l.12-.06a1,1,0,0,1,1.51.5,1.06,1.06,0,0,1-.59,1.53,7.36,7.36,0,0,1-1.24.25C15.93,4.51,15.57,4.46,15.38,4.89Z"/><path d="M14.59,20.16A4.72,4.72,0,0,0,13,18.43a.72.72,0,0,1-.29-.65,1.15,1.15,0,0,1,.81-1,1.12,1.12,0,0,1,1.18.48l0,.08s.06,0,.08-.07a1,1,0,0,1,1-.36,1.23,1.23,0,0,1,.9.88.94.94,0,0,1-.34,1.08,8.08,8.08,0,0,1-1,.59,1.71,1.71,0,0,1-.34.13A.66.66,0,0,0,14.59,20.16Z"/><path d="M3.32,9.12A.6.6,0,0,0,3.38,9a.79.79,0,0,1,1-.49.93.93,0,0,1,.75,1A.87.87,0,0,1,5,9.93c-.23.28-.48.54-.73.8s-.32.3-.25.53c-.35-.2-.7-.41-1.06-.59a3.46,3.46,0,0,0-.54-.19.7.7,0,0,1-.54-.73.84.84,0,0,1,.63-.83A.89.89,0,0,1,3.32,9.12Z"/><path d="M10.17,21.44a.87.87,0,0,1,.81-.2.73.73,0,0,1,.52.67.57.57,0,0,1-.42.67,3.46,3.46,0,0,0-1.34.86c0-.32-.19-.43-.37-.59a3.64,3.64,0,0,1-.62-.62A.76.76,0,0,1,9,21.09a.75.75,0,0,1,1.12.26Z"/><path d="M3.14,6.31l-.39-.07c-.17,0-.34,0-.5-.08a.49.49,0,0,1-.34-.65.47.47,0,0,1,.66-.3l.07,0,.06-.13a.48.48,0,0,1,.67-.2.42.42,0,0,1,.13.64C3.36,5.8,3.26,6.07,3.14,6.31Z"/><path d="M6.52,3.53c.41-.16.74,0,.74.39a.39.39,0,0,1-.33.42L6,4.62l-.23-.35a4.13,4.13,0,0,1-.25-.38.48.48,0,0,1,.23-.68.47.47,0,0,1,.68.24Z"/><path d="M17.69,14.6c.2-.39.5-.49.79-.27a.39.39,0,0,1,.1.56c-.14.26-.27.54-.39.79l-.49-.07a2.7,2.7,0,0,1-.39-.08A.47.47,0,0,1,17,14.9a.46.46,0,0,1,.65-.31Z"/><path d="M2,21.8l.2-.06a.45.45,0,0,1,.54.36c0,.28-.07.44-.36.52s-.57.18-.84.27l-.21-.31a4,4,0,0,1-.28-.4.48.48,0,0,1,.22-.69.48.48,0,0,1,.7.25A.33.33,0,0,1,2,21.8Z"/><path d="M17.42,21.58a.83.83,0,0,1,.24,0,.32.32,0,0,1,.28.34.32.32,0,0,1-.26.33c-.23.06-.44.14-.67.22-.11-.15-.25-.33-.38-.52s-.13-.29,0-.4a.68.68,0,0,1,.41-.19C17.15,21.34,17.26,21.48,17.42,21.58Z"/><path d="M2.52,13.4c.09,0,.17,0,.25,0a.33.33,0,0,1,.34.31.31.31,0,0,1-.26.37l-.66.22c-.11-.15-.26-.31-.38-.5a.4.4,0,0,1,.31-.63C2.33,13.1,2.44,13.23,2.52,13.4Z"/><path d="M5.59,16.43a.4.4,0,0,1-.44-.38.64.64,0,0,1,.67-.57.4.4,0,0,1,.43.39A.65.65,0,0,1,5.59,16.43Z"/><path d="M11.42,7a.41.41,0,0,1,.41.44.46.46,0,0,1-.47.44A.43.43,0,0,1,11,7.43.48.48,0,0,1,11.42,7Z"/><path d="M13.58,10.71l.57-.1c.09.33.08.36-.23.43l-.65.14-.1-.39-.64.12a.25.25,0,0,1-.17-.06L12,10.27l.37-.16.06.07c.24.36.24.36.66.23a.4.4,0,0,0,.23-.52c-.11-.24-.22-.49-.35-.75.13-.11.24-.23.38-.33a.18.18,0,0,1,.16,0c.26.11.51.24.76.36s.17.33.22.5-.11.14-.18.18c-.27.18-.59.3-.7.64C13.61,10.54,13.6,10.61,13.58,10.71Z"/><path d="M5.29,18.2H5c0,.07,0,.16,0,.24a2.58,2.58,0,0,1-2,2A1.57,1.57,0,0,1,1.38,20a2.89,2.89,0,0,1,.7-4.32A5.08,5.08,0,0,1,3,15.3l3-.91a.26.26,0,0,0,.14-.13c.12-.36.24-.72.35-1.08a.37.37,0,0,0,0-.23,4,4,0,0,1-.44-2.65,8.32,8.32,0,0,1,.69-2.49A3.48,3.48,0,0,1,8.06,6.23a.23.23,0,0,0,.08-.18,2.32,2.32,0,0,1,2.27-2.42,1.76,1.76,0,0,1,1.37.56,2.67,2.67,0,0,0,1.3.75,4.52,4.52,0,0,1,1.49.74.39.39,0,0,0,.24.05,6.52,6.52,0,0,1,1,0,1.48,1.48,0,0,1,1.09,1.76A2.15,2.15,0,0,1,16,8.91a.51.51,0,0,0-.14.26c0,.27-.06.54-.09.84l.45-.1a3,3,0,0,1,1.48,0,1.92,1.92,0,0,1,.36.14,1.06,1.06,0,0,1,.57,1.36,3.68,3.68,0,0,1-1.38,1.82,9,9,0,0,1-2.94,1.37,4.69,4.69,0,0,1-1.62.29s-.12.1-.13.16a10.18,10.18,0,0,1-.77,2.08,4.51,4.51,0,0,1-1.25,1.53,2.91,2.91,0,0,1-1.16.49.45.45,0,0,0-.25.18,4.07,4.07,0,0,1-1.08,1.29A2,2,0,0,1,6.49,21a1,1,0,0,1-.67-.41,2.89,2.89,0,0,1-.54-2l0-.32A.39.39,0,0,0,5.29,18.2Zm1.06-.29a5.74,5.74,0,0,0,2,.91,2.45,2.45,0,0,0,2.47-.73,5.5,5.5,0,0,0,.74-1,9.67,9.67,0,0,0,1-2.77.82.82,0,0,0-.24-.9,2.09,2.09,0,0,1-.2-.22l-1-.92a.21.21,0,0,0-.15,0,1.84,1.84,0,0,0-.53.09c-.45.16-.89.35-1.32.55-.15.07-.27.16-.35,0a7.08,7.08,0,0,1-.79.66.7.7,0,0,1-1-.11l-.09-.14-.07,0-.36,1h.26a.94.94,0,0,1,.92.83,3.07,3.07,0,0,1,.07.42,2.06,2.06,0,0,1-.92,2.1Zm-2.82,2a.33.33,0,0,1-.17-.42c.09-.3.16-.6.25-.9a.81.81,0,0,1,.7-.62,3,3,0,0,1,.67,0,2.24,2.24,0,0,0,1.7-.56,1.49,1.49,0,0,0,.64-1.1,5.34,5.34,0,0,0-.08-1.19.52.52,0,0,0-.49-.46,2.7,2.7,0,0,0-.85.07c-1.15.33-2.29.69-3.44,1.05a1,1,0,0,0-.32.15,2.64,2.64,0,0,0-.58,3.88,1.32,1.32,0,0,0,1.35.46A2.29,2.29,0,0,0,4.67,18.5c0-.1,0-.2.06-.3a.72.72,0,0,0-.91.56l-.15.57C3.62,19.51,3.58,19.69,3.53,19.9Zm8-8.34V11.5a1.4,1.4,0,0,1-.65-.92,2.32,2.32,0,0,1,.18-1.51,2.08,2.08,0,0,1,2.38-1.15A2.59,2.59,0,0,1,15.11,9l.22-.09a.87.87,0,0,1,.08.26c0,.08-.05.16-.08.24a.44.44,0,0,0-.05.15,2.58,2.58,0,0,1-.46,1.57l-.16.23a.34.34,0,0,0,.2-.12,2.47,2.47,0,0,0,.61-1.05,5,5,0,0,0,0-2.48,2.76,2.76,0,0,0-1-1.75,5.68,5.68,0,0,0-2-.92.23.23,0,0,0-.15,0,1.1,1.1,0,0,1-1,.27.74.74,0,0,0-.26,0c-.47.18-.92.39-1.39.55a.77.77,0,0,0-.48.4,4.45,4.45,0,0,1,.84,2.27,5.92,5.92,0,0,1-.22,2c0,.06,0,.18,0,.2.43.24.85.47,1.29.69A1.79,1.79,0,0,0,11.55,11.56Zm-2.9-5.3c-.13,0-.22.07-.3.11a2.2,2.2,0,0,0-.9.78,6.78,6.78,0,0,0-1.12,4.59,2.46,2.46,0,0,0,.81,1.56.36.36,0,0,0,.46.09A2.07,2.07,0,0,0,8.21,13a6.37,6.37,0,0,0,1.46-2.69c0-.09,0-.18.07-.31a1.28,1.28,0,0,1-1.49-.34.42.42,0,0,1-.15-.39c.07-.51.14-1,.23-1.53S8.54,6.78,8.65,6.26Zm2.94,5.31c.48,0,.87.22,1.34.22a1.84,1.84,0,0,0,1.27-.37A2.42,2.42,0,0,0,15,10a1.12,1.12,0,0,0-.26-1,2.18,2.18,0,0,0-2.18-.75A1.66,1.66,0,0,0,11.22,9.5a1.52,1.52,0,0,0,.49,1.81s0,0,0,0Zm1.1,3c1,.29,4.57-1.29,5.16-2.3-.52.37-1,.68-1.64.38a1.92,1.92,0,0,1-1-1.4,2.92,2.92,0,0,1-1.68.91l-.45,1.1c-.09.18.14.46-.23.56,0,0,0,0,0,.07C12.76,14.12,12.73,14.35,12.69,14.57ZM7.7,19l.21.18-.43.8-.42.76a2.62,2.62,0,0,0,1.83-1.56c-.32-.07-.64-.11-1-.2a7.6,7.6,0,0,1-.89-.37c-.29-.14-.57-.32-.85-.48A.35.35,0,0,0,6,18.08c-.44.06-.44.07-.46.51a5,5,0,0,0,0,.55A2.25,2.25,0,0,0,6,20.39c.09.11.26.3.32.27.21-.09.5,0,.64-.27l.2-.37ZM12.14,5a1.9,1.9,0,0,0-2.46-.9A1.8,1.8,0,0,0,8.43,6a1.29,1.29,0,0,1,.35,0,.31.31,0,0,0,.43-.2c0-.06,0-.12.08-.19a1.93,1.93,0,0,1,.64-.92,1,1,0,0,1,1.4.18c.05,0,.11.12.16.12C11.7,5.05,11.9,5,12.14,5ZM15.9,8.65a1.66,1.66,0,0,0,.6-2A1.26,1.26,0,0,0,15,6a3.37,3.37,0,0,0,.42.5c.09.08.26,0,.4.08l.12,0a.73.73,0,0,1,.54.61.84.84,0,0,1-.35.93A.34.34,0,0,0,15.9,8.65ZM12,12l-.3.56,1.25.43.17-.58Zm-2.24-.88c0,.11-.07.21-.11.31s0,.29.17.36l.57.24c.15.07.23,0,.25-.14s0-.31,0-.35A8.41,8.41,0,0,0,9.76,11.07Zm1.15.84a3,3,0,0,1,.37.24c.2.16.27.16.37-.08,0-.07,0-.15.07-.21L11,11.67Zm-1.44-.06-.37.65,0,0,.9-.36a.11.11,0,0,0,0-.05Zm3.29,1.69c0-.38-.12-.52-.56-.52C12.41,13.18,12.49,13.45,12.76,13.54Z"/><path d="M15.58,5.09a4.23,4.23,0,0,0-.81-1.93.85.85,0,0,1-.12-1.05,1.08,1.08,0,0,1,1.06-.56,1,1,0,0,1,.91.75,1.21,1.21,0,0,0,.05.14l.12-.06a1,1,0,0,1,1.51.5,1.06,1.06,0,0,1-.59,1.53,7.36,7.36,0,0,1-1.24.25C16.13,4.71,15.77,4.66,15.58,5.09Z"/><path d="M14.79,20.36a4.72,4.72,0,0,0-1.55-1.73A.74.74,0,0,1,13,18a1.16,1.16,0,0,1,.81-1,1.12,1.12,0,0,1,1.17.48l.06.09s.06,0,.08-.07a1,1,0,0,1,1-.36A1.23,1.23,0,0,1,17,18a1,1,0,0,1-.34,1.08,8.91,8.91,0,0,1-1,.59,2,2,0,0,1-.34.13A.66.66,0,0,0,14.79,20.36Z"/><path d="M3.52,9.32l0-.11a.81.81,0,0,1,1-.49.93.93,0,0,1,.75,1,.8.8,0,0,1-.17.45,9,9,0,0,1-.72.79c-.15.16-.32.31-.26.54-.35-.2-.69-.41-1.05-.6a3.42,3.42,0,0,0-.54-.18.71.71,0,0,1-.54-.74.83.83,0,0,1,.63-.82A.89.89,0,0,1,3.52,9.32Z"/><path d="M10.37,21.64a.86.86,0,0,1,.81-.2.73.73,0,0,1,.52.67.57.57,0,0,1-.42.67,3.46,3.46,0,0,0-1.34.86c0-.32-.19-.43-.37-.59A4,4,0,0,1,9,22.43a.76.76,0,0,1,.24-1.14.75.75,0,0,1,1.12.26Z"/><path d="M3.34,6.51,3,6.44a4,4,0,0,1-.5-.09.48.48,0,0,1-.34-.64.46.46,0,0,1,.65-.3l.07,0a.75.75,0,0,0,.07-.12.47.47,0,0,1,.66-.2.42.42,0,0,1,.14.64C3.56,6,3.45,6.27,3.34,6.51Z"/><path d="M6.71,3.73c.42-.16.75,0,.75.39a.39.39,0,0,1-.33.42c-.31.08-.6.19-.89.28L6,4.47a3.3,3.3,0,0,1-.26-.39A.48.48,0,0,1,6,3.41a.47.47,0,0,1,.68.24Z"/><path d="M17.88,14.8c.21-.39.51-.5.8-.27a.39.39,0,0,1,.1.56c-.14.26-.27.53-.39.79l-.49-.07a2.7,2.7,0,0,1-.39-.08.47.47,0,0,1-.35-.63.46.46,0,0,1,.65-.31Z"/><path d="M2.19,22a1.52,1.52,0,0,1,.2-.06.45.45,0,0,1,.54.36c0,.28-.07.44-.36.52s-.57.18-.84.27l-.21-.31c-.09-.13-.2-.26-.28-.4a.48.48,0,0,1,.22-.69.48.48,0,0,1,.7.25A.33.33,0,0,1,2.19,22Z"/><path d="M17.61,21.78a.91.91,0,0,1,.25,0,.31.31,0,0,1,.28.34.32.32,0,0,1-.27.33c-.22.06-.43.14-.66.22-.11-.16-.25-.33-.38-.52a.31.31,0,0,1,0-.41.68.68,0,0,1,.41-.19C17.34,21.54,17.46,21.68,17.61,21.78Z"/><path d="M2.71,13.6a1.38,1.38,0,0,1,.26,0,.32.32,0,0,1,.34.31.31.31,0,0,1-.26.37l-.66.22A5.43,5.43,0,0,1,2,14a.39.39,0,0,1,.31-.63C2.53,13.3,2.64,13.43,2.71,13.6Z"/><path d="M5.79,16.62a.39.39,0,0,1-.44-.37A.63.63,0,0,1,6,15.68a.4.4,0,0,1,.44.39A.64.64,0,0,1,5.79,16.62Z"/><path d="M11.62,7.18a.42.42,0,0,1,.41.44.46.46,0,0,1-.47.44.43.43,0,0,1-.41-.43A.48.48,0,0,1,11.62,7.18Z"/><path d="M13.77,10.9l.58-.09c.09.33.08.36-.23.42l-.66.15-.1-.39-.63.11a.21.21,0,0,1-.17,0c-.12-.18-.22-.37-.34-.59l.36-.15.07.07c.24.36.24.36.66.23a.41.41,0,0,0,.23-.52l-.35-.75L13.56,9a.2.2,0,0,1,.17,0c.26.11.51.24.76.36s.17.32.22.5-.11.14-.18.18c-.27.18-.59.3-.7.64C13.81,10.74,13.8,10.81,13.77,10.9Z"/></g><g class="cls-3"><path d="M5,17.86H4.67c0,.07,0,.16,0,.24a2.58,2.58,0,0,1-2,2A1.56,1.56,0,0,1,1,19.61a2.89,2.89,0,0,1,.7-4.32,5.08,5.08,0,0,1,1-.33l3-.91a.26.26,0,0,0,.14-.13c.12-.36.24-.72.35-1.08a.37.37,0,0,0,0-.23A4,4,0,0,1,5.72,10a8.32,8.32,0,0,1,.69-2.49A3.48,3.48,0,0,1,7.72,5.89a.23.23,0,0,0,.08-.18,2.32,2.32,0,0,1,2.27-2.42,1.76,1.76,0,0,1,1.37.56,2.67,2.67,0,0,0,1.3.75,4.52,4.52,0,0,1,1.49.74.39.39,0,0,0,.24,0,6.52,6.52,0,0,1,1,0,1.48,1.48,0,0,1,1.09,1.76,2.15,2.15,0,0,1-.86,1.4.51.51,0,0,0-.14.26c0,.27-.06.54-.09.84l.45-.1a3,3,0,0,1,1.48,0,1.92,1.92,0,0,1,.36.14A1.06,1.06,0,0,1,18.32,11a3.68,3.68,0,0,1-1.38,1.82A9,9,0,0,1,14,14.23a4.69,4.69,0,0,1-1.62.29s-.12.1-.13.16a10.18,10.18,0,0,1-.77,2.08,4.38,4.38,0,0,1-1.25,1.52,2.79,2.79,0,0,1-1.16.5.45.45,0,0,0-.25.18,4.07,4.07,0,0,1-1.08,1.29,2,2,0,0,1-1.59.39,1,1,0,0,1-.67-.41,2.89,2.89,0,0,1-.54-2l0-.32A.39.39,0,0,0,5,17.86ZM6,17.57a5.74,5.74,0,0,0,2,.91,2.45,2.45,0,0,0,2.47-.73,5.5,5.5,0,0,0,.74-1,9.67,9.67,0,0,0,1-2.77.82.82,0,0,0-.24-.9,2.09,2.09,0,0,1-.2-.22l-1-.92a.17.17,0,0,0-.15,0A2.26,2.26,0,0,0,10,12c-.45.17-.89.36-1.32.56-.15.07-.27.16-.35,0a7.08,7.08,0,0,1-.79.66.7.7,0,0,1-1-.11l-.09-.14-.07,0L6,14h.26a.94.94,0,0,1,.92.83,3.07,3.07,0,0,1,.07.42,2.07,2.07,0,0,1-.92,2.1Zm-2.82,2A.33.33,0,0,1,3,19.14c.09-.3.16-.6.25-.9a.8.8,0,0,1,.7-.62,3,3,0,0,1,.67,0A2.24,2.24,0,0,0,6.34,17,1.49,1.49,0,0,0,7,15.93a5.34,5.34,0,0,0-.08-1.19.52.52,0,0,0-.49-.46,2.7,2.7,0,0,0-.85.07c-1.15.33-2.29.69-3.44,1.05a1,1,0,0,0-.32.15,2.63,2.63,0,0,0-.58,3.87,1.3,1.3,0,0,0,1.35.47,2.29,2.29,0,0,0,1.76-1.73c0-.1,0-.2.06-.3a.72.72,0,0,0-.91.56L3.33,19C3.28,19.17,3.24,19.35,3.19,19.56Zm8-8.34v-.06a1.4,1.4,0,0,1-.65-.92,2.32,2.32,0,0,1,.18-1.51,2.08,2.08,0,0,1,2.38-1.15,2.59,2.59,0,0,1,1.64,1.06L15,8.55a.87.87,0,0,1,.08.26c0,.08-.05.16-.08.24a.44.44,0,0,0-.05.15,2.58,2.58,0,0,1-.46,1.57l-.16.23a.34.34,0,0,0,.2-.12,2.47,2.47,0,0,0,.61-1.05,5,5,0,0,0,0-2.48,2.76,2.76,0,0,0-1-1.75,5.68,5.68,0,0,0-2-.92.23.23,0,0,0-.15,0A1.1,1.1,0,0,1,11,5a.74.74,0,0,0-.26,0c-.47.18-.92.39-1.39.55a.77.77,0,0,0-.48.4,4.45,4.45,0,0,1,.84,2.27,5.92,5.92,0,0,1-.22,2c0,.06,0,.18,0,.2.43.24.85.47,1.29.69A1.79,1.79,0,0,0,11.21,11.22Zm-2.9-5.3C8.18,6,8.09,6,8,6a2.2,2.2,0,0,0-.9.78A6.78,6.78,0,0,0,6,11.4,2.46,2.46,0,0,0,6.8,13a.36.36,0,0,0,.46.09,2.07,2.07,0,0,0,.61-.44A6.37,6.37,0,0,0,9.33,9.92c0-.09,0-.18.07-.31a1.28,1.28,0,0,1-1.49-.34.42.42,0,0,1-.15-.39c.07-.51.14-1,.23-1.53S8.2,6.44,8.31,5.92Zm2.94,5.31c.48,0,.87.22,1.34.22a1.84,1.84,0,0,0,1.27-.37,2.42,2.42,0,0,0,.8-1.47,1.12,1.12,0,0,0-.26-1,2.18,2.18,0,0,0-2.18-.75,1.66,1.66,0,0,0-1.34,1.31A1.52,1.52,0,0,0,11.37,11s0,0,0,0Zm1.1,3c1,.29,4.57-1.29,5.16-2.3-.52.37-1,.68-1.64.38a1.92,1.92,0,0,1-1-1.4,2.92,2.92,0,0,1-1.68.91l-.45,1.1c-.09.18.14.46-.23.56,0,0,0,0,0,.07C12.42,13.78,12.39,14,12.35,14.23Zm-5,4.44.21.18-.43.8-.42.76a2.62,2.62,0,0,0,1.83-1.56c-.32-.07-.64-.11-1-.2a7.6,7.6,0,0,1-.89-.37c-.29-.14-.57-.32-.85-.48a.35.35,0,0,0-.19-.06c-.44.06-.44.07-.46.51a5,5,0,0,0,0,.55,2.25,2.25,0,0,0,.46,1.25c.09.11.26.3.32.27.21-.09.5,0,.64-.27l.2-.37Zm4.44-14a1.9,1.9,0,0,0-2.46-.9,1.8,1.8,0,0,0-1.25,2,1.9,1.9,0,0,1,.35,0,.3.3,0,0,0,.43-.19c0-.06.05-.12.08-.19a1.93,1.93,0,0,1,.64-.92,1,1,0,0,1,1.4.18s.11.12.16.12C11.36,4.71,11.56,4.67,11.8,4.63Zm3.76,3.68a1.66,1.66,0,0,0,.6-2,1.26,1.26,0,0,0-1.55-.61,3.37,3.37,0,0,0,.42.5c.09.08.26,0,.4.08l.12,0a.73.73,0,0,1,.54.61.84.84,0,0,1-.35.93A.34.34,0,0,0,15.56,8.31Zm-3.9,3.3-.3.56,1.25.43.17-.58Zm-2.24-.88c0,.11-.07.21-.11.31s0,.29.17.36l.57.24c.15.07.23,0,.25-.14s0-.31,0-.35A8.41,8.41,0,0,0,9.42,10.73Zm1.15.84a3,3,0,0,1,.37.24c.2.16.27.16.37-.08,0-.07,0-.15.07-.21l-.76-.19Zm-1.45-.06-.36.65,0,0,.9-.36a.11.11,0,0,0,0-.05Zm3.3,1.69c0-.38-.12-.52-.56-.52C12.07,12.84,12.15,13.11,12.42,13.2Z"/><path d="M15.24,4.75a4.23,4.23,0,0,0-.81-1.93.85.85,0,0,1-.12-1,1.08,1.08,0,0,1,1.06-.56,1,1,0,0,1,.91.75,1.21,1.21,0,0,0,0,.14L16.45,2a1,1,0,0,1,1.51.5,1.05,1.05,0,0,1-.59,1.52,6.51,6.51,0,0,1-1.24.26C15.79,4.37,15.43,4.32,15.24,4.75Z"/><path d="M14.45,20a4.72,4.72,0,0,0-1.55-1.73.74.74,0,0,1-.29-.65,1.16,1.16,0,0,1,.81-1,1.12,1.12,0,0,1,1.17.48l.06.09s.06,0,.08-.07a1,1,0,0,1,1-.36,1.23,1.23,0,0,1,.9.88,1,1,0,0,1-.34,1.08,8.91,8.91,0,0,1-1,.59,2,2,0,0,1-.34.13A.66.66,0,0,0,14.45,20Z"/><path d="M3.18,9l0-.11a.81.81,0,0,1,1-.49.93.93,0,0,1,.75,1,.8.8,0,0,1-.17.45,9,9,0,0,1-.72.79c-.15.16-.32.31-.26.54-.35-.2-.69-.41-1.05-.6a3.42,3.42,0,0,0-.54-.18.71.71,0,0,1-.54-.74.83.83,0,0,1,.63-.82A.89.89,0,0,1,3.18,9Z"/><path d="M10,21.3a.86.86,0,0,1,.81-.2.73.73,0,0,1,.52.67.57.57,0,0,1-.42.67,3.46,3.46,0,0,0-1.34.86c0-.32-.19-.43-.37-.59a4,4,0,0,1-.62-.62A.76.76,0,0,1,8.85,21a.75.75,0,0,1,1.12.26Z"/><path d="M3,6.17,2.61,6.1A4,4,0,0,1,2.11,6a.48.48,0,0,1-.34-.64.46.46,0,0,1,.65-.3l.07,0A.75.75,0,0,0,2.56,5a.47.47,0,0,1,.66-.2.42.42,0,0,1,.14.64C3.22,5.66,3.11,5.93,3,6.17Z"/><path d="M6.37,3.39c.42-.16.75,0,.75.39a.39.39,0,0,1-.33.42c-.31.08-.6.19-.89.28l-.23-.35a3.3,3.3,0,0,1-.26-.39.48.48,0,0,1,.24-.67.47.47,0,0,1,.68.24A.59.59,0,0,0,6.37,3.39Z"/><path d="M17.54,14.46c.21-.39.51-.5.8-.27a.39.39,0,0,1,.1.56c-.15.26-.27.53-.4.79l-.48-.07a2.7,2.7,0,0,1-.39-.08.47.47,0,0,1-.35-.63.46.46,0,0,1,.65-.31Z"/><path d="M1.85,21.66a1.52,1.52,0,0,1,.2-.06.45.45,0,0,1,.54.36c.05.28-.07.44-.36.52s-.57.18-.84.27l-.21-.31c-.09-.13-.2-.26-.28-.4a.48.48,0,0,1,.22-.69.48.48,0,0,1,.7.25A.33.33,0,0,1,1.85,21.66Z"/><path d="M17.27,21.44a.91.91,0,0,1,.25,0,.31.31,0,0,1,.28.34.32.32,0,0,1-.27.33c-.22.06-.43.14-.66.22-.11-.16-.25-.33-.38-.52a.31.31,0,0,1,0-.41.68.68,0,0,1,.41-.19C17,21.2,17.12,21.34,17.27,21.44Z"/><path d="M2.37,13.26a1.38,1.38,0,0,1,.26,0,.32.32,0,0,1,.34.31.31.31,0,0,1-.26.37l-.66.22a5.43,5.43,0,0,1-.38-.5A.39.39,0,0,1,2,13C2.19,13,2.3,13.09,2.37,13.26Z"/><path d="M5.45,16.28A.39.39,0,0,1,5,15.91a.63.63,0,0,1,.66-.57.4.4,0,0,1,.44.39A.65.65,0,0,1,5.45,16.28Z"/><path d="M11.28,6.84a.42.42,0,0,1,.41.44.46.46,0,0,1-.47.44.42.42,0,0,1-.41-.43A.48.48,0,0,1,11.28,6.84Z"/><path d="M13.43,10.56l.58-.09c.09.33.08.36-.23.42l-.66.15-.1-.39-.63.11a.21.21,0,0,1-.17,0c-.12-.18-.22-.37-.34-.59l.36-.15.06.07c.25.36.25.36.67.23a.41.41,0,0,0,.23-.52L12.85,9l.37-.34a.2.2,0,0,1,.17,0c.26.11.51.24.76.36s.17.32.22.5-.11.14-.18.18c-.27.18-.59.3-.7.64C13.47,10.4,13.46,10.47,13.43,10.56Z"/></g><path class="cls-4" d="M5.15,18.05H4.87c0,.08,0,.16,0,.24a2.58,2.58,0,0,1-2,2.05,1.56,1.56,0,0,1-1.58-.53,2.88,2.88,0,0,1,.7-4.32,5.08,5.08,0,0,1,1-.33l3-.92A.22.22,0,0,0,6,14.12q.2-.54.36-1.08a.33.33,0,0,0,0-.24,4,4,0,0,1-.43-2.64,8.46,8.46,0,0,1,.69-2.5,3.55,3.55,0,0,1,1.3-1.57A.24.24,0,0,0,8,5.91a2.32,2.32,0,0,1,2.26-2.42,1.77,1.77,0,0,1,1.38.56,2.63,2.63,0,0,0,1.3.75,4.38,4.38,0,0,1,1.48.74.43.43,0,0,0,.25,0,6.52,6.52,0,0,1,1,0,1.48,1.48,0,0,1,1.09,1.76,2.21,2.21,0,0,1-.86,1.4.51.51,0,0,0-.14.26c0,.27-.06.54-.09.84l.45-.1a3,3,0,0,1,1.48,0,1.58,1.58,0,0,1,.36.14,1.06,1.06,0,0,1,.57,1.36,3.68,3.68,0,0,1-1.38,1.82,9.29,9.29,0,0,1-2.94,1.37,4.69,4.69,0,0,1-1.62.29s-.12.1-.14.16A9.83,9.83,0,0,1,11.67,17a4.36,4.36,0,0,1-1.24,1.52,2.79,2.79,0,0,1-1.16.5.45.45,0,0,0-.25.18,4.21,4.21,0,0,1-1.08,1.29,2,2,0,0,1-1.59.39,1,1,0,0,1-.67-.41,2.9,2.9,0,0,1-.54-2l0-.31S5.16,18.09,5.15,18.05Zm1.06-.28a5.93,5.93,0,0,0,2,.91A2.45,2.45,0,0,0,10.64,18a5.2,5.2,0,0,0,.73-1,9.24,9.24,0,0,0,1-2.76.8.8,0,0,0-.25-.9c-.07-.06-.12-.15-.19-.22l-1-.92a.24.24,0,0,0-.15-.06,2.26,2.26,0,0,0-.53.09c-.45.17-.89.36-1.32.56-.16.07-.27.16-.35,0a7,7,0,0,1-.79.67.72.72,0,0,1-1-.11,1.1,1.1,0,0,1-.09-.14H6.58l-.36,1h.26A.94.94,0,0,1,7.4,15c0,.14,0,.28.07.42a2.06,2.06,0,0,1-.93,2.1Zm-2.82,2a.33.33,0,0,1-.17-.42c.09-.3.16-.6.25-.9a.8.8,0,0,1,.7-.62,3,3,0,0,1,.67,0,2.26,2.26,0,0,0,1.7-.56,1.49,1.49,0,0,0,.64-1.1,5.3,5.3,0,0,0-.08-1.19.52.52,0,0,0-.49-.46,2.7,2.7,0,0,0-.85.07c-1.15.33-2.29.69-3.44,1a1,1,0,0,0-.32.15,2.63,2.63,0,0,0-.58,3.87,1.32,1.32,0,0,0,1.35.47,2.33,2.33,0,0,0,1.76-1.73,1.57,1.57,0,0,0,0-.3.71.71,0,0,0-.9.56l-.15.57C3.48,19.37,3.44,19.55,3.39,19.76Zm8-8.34,0-.06a1.36,1.36,0,0,1-.65-.92,2.38,2.38,0,0,1,.17-1.51,2.1,2.1,0,0,1,2.39-1.15A2.61,2.61,0,0,1,15,8.84l.22-.09a.79.79,0,0,1,.08.26.75.75,0,0,1-.08.24c0,.05-.06.1,0,.15A2.65,2.65,0,0,1,14.68,11l-.16.23a.37.37,0,0,0,.2-.12,2.35,2.35,0,0,0,.6-1.05,5,5,0,0,0,0-2.49,2.76,2.76,0,0,0-1-1.74,5.48,5.48,0,0,0-2-.92s-.12,0-.14,0a1.1,1.1,0,0,1-1,.27.74.74,0,0,0-.26,0c-.47.18-.92.39-1.4.55a.78.78,0,0,0-.47.4A4.51,4.51,0,0,1,10,8.42a5.92,5.92,0,0,1-.22,2,.23.23,0,0,0,0,.2c.42.24.85.47,1.28.69A2.3,2.3,0,0,0,11.4,11.42ZM8.51,6.12c-.13,0-.22.07-.3.11A2.29,2.29,0,0,0,7.3,7,6.83,6.83,0,0,0,6.19,11.6,2.43,2.43,0,0,0,7,13.16a.37.37,0,0,0,.46.09,2.51,2.51,0,0,0,.61-.44,6.43,6.43,0,0,0,1.46-2.69c0-.09,0-.18.07-.31a1.28,1.28,0,0,1-1.49-.34A.44.44,0,0,1,8,9.07c.07-.5.14-1,.23-1.52S8.4,6.63,8.51,6.12Zm2.94,5.3c.48,0,.87.23,1.34.22a1.78,1.78,0,0,0,1.27-.36,2.42,2.42,0,0,0,.8-1.47,1.12,1.12,0,0,0-.26-1,2.19,2.19,0,0,0-2.18-.75,1.67,1.67,0,0,0-1.35,1.31,1.52,1.52,0,0,0,.5,1.8.06.06,0,0,1,0,0Zm1.1,3c1,.29,4.57-1.29,5.15-2.3-.51.37-1,.68-1.63.38a1.91,1.91,0,0,1-1-1.4,2.83,2.83,0,0,1-1.67.9l-.45,1.11c-.09.18.14.46-.23.56,0,0,0,.05,0,.07C12.62,14,12.59,14.21,12.55,14.43Zm-5,4.44.21.18c-.15.28-.29.54-.44.8l-.41.76A2.65,2.65,0,0,0,8.75,19a7.63,7.63,0,0,1-1-.2,5.83,5.83,0,0,1-.9-.36c-.29-.14-.56-.32-.84-.48a.29.29,0,0,0-.19-.06c-.44.06-.44.07-.46.51a3.37,3.37,0,0,0,0,.55,2.25,2.25,0,0,0,.46,1.25c.09.11.26.3.32.27s.5,0,.64-.27S7,20,7,19.88ZM12,4.83a1.9,1.9,0,0,0-2.47-.9,1.8,1.8,0,0,0-1.24,2,1.87,1.87,0,0,1,.35,0,.29.29,0,0,0,.42-.19l.09-.19a1.93,1.93,0,0,1,.64-.92,1,1,0,0,1,1.4.18c0,.05.11.12.16.12C11.56,4.91,11.76,4.87,12,4.83Zm3.76,3.68a1.66,1.66,0,0,0,.6-2,1.26,1.26,0,0,0-1.55-.61,3.37,3.37,0,0,0,.42.5c.09.07.26,0,.4.08l.12,0a.71.71,0,0,1,.54.61.85.85,0,0,1-.35.93A.34.34,0,0,0,15.76,8.51Zm-3.9,3.3-.3.55,1.25.44.17-.59Zm-2.24-.88c0,.11-.07.21-.11.31s0,.29.17.36l.57.24c.14.07.22,0,.25-.14s0-.31,0-.35A8.41,8.41,0,0,0,9.62,10.93Zm1.15.84a3,3,0,0,1,.37.23c.2.17.26.16.37-.07,0-.07.05-.15.07-.21l-.76-.19Zm-1.45-.06L9,12.35l0,0L9.9,12a.11.11,0,0,0,0,0Zm3.3,1.69c0-.38-.12-.53-.56-.53C12.27,13,12.35,13.31,12.62,13.4Z"/><path class="cls-4" d="M15.43,4.94A4.12,4.12,0,0,0,14.63,3a.85.85,0,0,1-.12-1,1.07,1.07,0,0,1,1.06-.56,1,1,0,0,1,.91.75,1.21,1.21,0,0,0,.05.14l.12-.06a1,1,0,0,1,1.51.5,1.05,1.05,0,0,1-.6,1.52,6.41,6.41,0,0,1-1.23.26C16,4.56,15.62,4.52,15.43,4.94Z"/><path class="cls-4" d="M14.65,20.22a4.72,4.72,0,0,0-1.55-1.73.74.74,0,0,1-.29-.65,1.17,1.17,0,0,1,.8-1,1.13,1.13,0,0,1,1.18.48l.05.08.09-.06A1,1,0,0,1,16,17a1.24,1.24,0,0,1,.9.87,1,1,0,0,1-.34,1.09,9.94,9.94,0,0,1-1,.59l-.34.13A.66.66,0,0,0,14.65,20.22Z"/><path class="cls-4" d="M3.38,9.18l.05-.11a.8.8,0,0,1,1-.49.92.92,0,0,1,.75,1A.88.88,0,0,1,5,10a9,9,0,0,1-.72.79c-.15.16-.32.3-.26.53-.35-.19-.69-.4-1-.59a3.42,3.42,0,0,0-.54-.18.7.7,0,0,1-.54-.74A.83.83,0,0,1,2.55,9,.87.87,0,0,1,3.38,9.18Z"/><path class="cls-4" d="M10.23,21.5a.84.84,0,0,1,.81-.2.74.74,0,0,1,.52.67.58.58,0,0,1-.42.67,3.43,3.43,0,0,0-1.34.85c0-.31-.19-.43-.37-.58a4.61,4.61,0,0,1-.63-.62.78.78,0,0,1,.25-1.15.74.74,0,0,1,1.12.27A.35.35,0,0,1,10.23,21.5Z"/><path class="cls-4" d="M3.2,6.37,2.81,6.3a4,4,0,0,1-.5-.09A.47.47,0,0,1,2,5.57a.46.46,0,0,1,.65-.3l.07,0,.07-.13A.46.46,0,0,1,3.42,5a.42.42,0,0,1,.14.64C3.42,5.86,3.31,6.13,3.2,6.37Z"/><path class="cls-4" d="M6.57,3.59c.42-.16.75,0,.75.39A.39.39,0,0,1,7,4.4c-.3.08-.59.18-.88.27l-.23-.34a3.3,3.3,0,0,1-.26-.39.51.51,0,0,1,.92-.44Z"/><path class="cls-4" d="M17.74,14.66c.2-.4.51-.5.8-.27a.4.4,0,0,1,.1.56c-.15.26-.27.53-.4.79l-.48-.07c-.13,0-.26,0-.39-.08a.5.5,0,1,1,.29-.95Z"/><path class="cls-4" d="M2.05,21.86a1.52,1.52,0,0,1,.2-.06.45.45,0,0,1,.54.36c0,.28-.07.44-.36.52s-.57.18-.84.27l-.21-.31c-.09-.14-.2-.26-.28-.4a.48.48,0,0,1,.22-.69.47.47,0,0,1,.7.25Z"/><path class="cls-4" d="M17.47,21.64a1.38,1.38,0,0,1,.25,0A.33.33,0,0,1,18,22a.32.32,0,0,1-.27.33c-.22.06-.43.14-.66.22-.12-.16-.26-.33-.38-.52a.31.31,0,0,1,0-.41.68.68,0,0,1,.41-.19C17.2,21.4,17.32,21.54,17.47,21.64Z"/><path class="cls-4" d="M2.57,13.46a1.27,1.27,0,0,1,.26,0,.35.35,0,0,1,.08.68l-.66.22a4.09,4.09,0,0,1-.38-.5.39.39,0,0,1,.31-.63C2.39,13.16,2.5,13.29,2.57,13.46Z"/><path class="cls-4" d="M5.65,16.48a.39.39,0,0,1-.44-.37.65.65,0,0,1,.66-.58c.26,0,.44.17.43.39A.63.63,0,0,1,5.65,16.48Z"/><path class="cls-4" d="M11.48,7a.42.42,0,0,1,.41.44.47.47,0,0,1-.48.44.41.41,0,0,1-.4-.43A.47.47,0,0,1,11.48,7Z"/><path class="cls-4" d="M13.63,10.76l.58-.09c.09.33.08.35-.23.42l-.66.15-.1-.39-.63.11a.21.21,0,0,1-.17-.05c-.12-.18-.22-.37-.34-.59l.36-.15s.05,0,.06.07c.25.36.25.36.67.22A.41.41,0,0,0,13.4,10l-.35-.75.37-.34a.2.2,0,0,1,.17,0c.25.11.51.23.76.36s.17.32.21.49-.1.14-.18.19c-.26.18-.58.29-.69.64A.94.94,0,0,0,13.63,10.76Z"/></g></g></svg>