<svg xmlns="http://www.w3.org/2000/svg" viewBox="0 0 38.55 24.66"><defs><style>.cls-1{isolation:isolate;}.cls-2{opacity:0.15;}.cls-2,.cls-3{mix-blend-mode:multiply;}.cls-4{fill:#fff;}</style></defs><title>convert-CUSTOMIZE-SVG-03</title><g class="cls-1"><g id="Layer_1" data-name="Layer 1"><g class="cls-2"><path d="M2.13,16.92l.13,0a2.17,2.17,0,0,0,.88,0,2.18,2.18,0,0,0,.67-.68.46.46,0,0,0,.06-.33c-.05-.66-.12-1.32-.18-2V13.8c.36,0,.72.07,1.07.12a.3.3,0,0,1,.17.1l1.51,1.43a.36.36,0,0,1,.11.17q.08.51.15,1.05H6.29c-.6,0-1.2-.06-1.8-.07a.43.43,0,0,0-.3.13,6.88,6.88,0,0,0-.53.55.28.28,0,0,0-.09.17c0,.3.05.6.08.92l1,.05a.93.93,0,0,1,.23,0,.26.26,0,0,1,.22.29.26.26,0,0,1-.27.27l-1.42-.06c-.2,0-.26-.16-.28-.34,0-.35-.06-.69-.1-1.09H2c-.37,0-.43-.09-.46-.46s-.07-.75-.11-1.13a.31.31,0,0,1,.25-.38c.18,0,.3.1.32.32S2.1,16.56,2.13,16.92Z"/><path d="M35.34,9.27l.91-.3a.9.9,0,0,1,.22-.06.26.26,0,0,1,.29.2.24.24,0,0,1-.14.33c-.47.16-.93.32-1.41.46-.14,0-.25-.06-.31-.19-.16-.32-.32-.64-.48-1-.35.11-.69.21-1,.33A.3.3,0,0,1,33,8.89L32.4,7.71a.28.28,0,0,1,.11-.41c.16-.08.3,0,.4.16s.31.65.48,1l.91-.29A.37.37,0,0,0,34.41,8a3.09,3.09,0,0,1,.14-.32,1,1,0,0,0,0-1.13c-.29-.5-.52-1-.79-1.59.39-.09.75-.21,1.12-.27.12,0,.26.09.39.14l1.65.7a.42.42,0,0,1,.18.14c.17.3.33.6.51.93L36.48,7l-1,.34a.63.63,0,0,0-.21.19.75.75,0,0,0-.06.13C34.84,8.45,34.84,8.48,35.34,9.27Z"/><path d="M35.53,14.53a1,1,0,0,1-.41-1.31.88.88,0,0,1,1.33-.33,2.26,2.26,0,0,1,.94,1.21,10.87,10.87,0,0,1,.36,1.1.18.18,0,0,1,0,.18,4.69,4.69,0,0,1-2,1,1.25,1.25,0,0,1-1-.24.76.76,0,0,1-.3-.83,1,1,0,0,1,.76-.76A2.58,2.58,0,0,1,35.53,14.53Z"/><path d="M35.16,2.27a1,1,0,0,1,1,0,.83.83,0,0,1,.27,1.38,1.49,1.49,0,0,1-1,.48A6,6,0,0,1,33.62,4a.24.24,0,0,1-.22-.24,4.26,4.26,0,0,1,0-2.07A1.84,1.84,0,0,1,33.81,1a.82.82,0,0,1,1-.19,1,1,0,0,1,.5,1C35.27,1.94,35.21,2.1,35.16,2.27Z"/><path d="M2.88,10.07a1,1,0,0,1,.5.72.84.84,0,0,1-.34.87.88.88,0,0,1-1,0,1.76,1.76,0,0,1-.78-.92A10.89,10.89,0,0,1,.84,9.47a.22.22,0,0,1,.05-.19,4.58,4.58,0,0,1,1.76-.92,1.37,1.37,0,0,1,.85.06A.79.79,0,0,1,4,9.36a1,1,0,0,1-.94.73Z"/><path d="M2.8,20.87A.94.94,0,0,1,4,20.92a.74.74,0,0,1,.18.95,1.36,1.36,0,0,1-1,.69,4.84,4.84,0,0,1-1.74,0,.16.16,0,0,1-.12-.09,3.79,3.79,0,0,1-.17-2.28,1.34,1.34,0,0,1,.22-.36.78.78,0,0,1,.83-.34.85.85,0,0,1,.64.71A3.29,3.29,0,0,1,2.8,20.87Z"/><path d="M6.62,20.33a.76.76,0,0,1,0,.76.59.59,0,0,1-.91.14.91.91,0,0,1-.35-.72c0-.43.08-.87.13-1.3a.23.23,0,0,1,.15-.14,3.05,3.05,0,0,1,1.44,0,1.25,1.25,0,0,1,.44.27.58.58,0,0,1,.15.78.74.74,0,0,1-.84.27Z"/><path d="M36.74,10.94a.66.66,0,0,1,.84,0,.56.56,0,0,1,.12.83,1,1,0,0,1-.8.42,8.08,8.08,0,0,1-1.1,0,.15.15,0,0,1-.12-.08,2.94,2.94,0,0,1-.14-1.58,1.08,1.08,0,0,1,.08-.19.63.63,0,0,1,.81-.36.67.67,0,0,1,.34.85A.49.49,0,0,1,36.74,10.94Z"/><path d="M2,13.2A1.86,1.86,0,0,1,2.42,13a.55.55,0,0,1,.55.27.48.48,0,0,1,0,.61,1.14,1.14,0,0,1-.5.4,7.8,7.8,0,0,1-1.11.24s-.14,0-.15-.06A2.52,2.52,0,0,1,.8,13a1.05,1.05,0,0,1,0-.19.59.59,0,0,1,.67-.39.67.67,0,0,1,.46.7S2,13.18,2,13.2Z"/><path d="M29.8,1.26a.64.64,0,0,1,.65,0,.48.48,0,0,1,.2.7.87.87,0,0,1-.69.42,6.28,6.28,0,0,1-1,0,.15.15,0,0,1-.12-.08A2.33,2.33,0,0,1,28.76.89a1,1,0,0,1,.12-.23.5.5,0,0,1,.64-.21.57.57,0,0,1,.31.66S29.82,1.18,29.8,1.26Z"/><path d="M5.08,23.71a2.42,2.42,0,0,1-.56-1.24c0-.37.18-.63.46-.66s.53.23.58.61a1.7,1.7,0,0,1,.22-.15.56.56,0,0,1,.64.11.49.49,0,0,1,0,.63,2.26,2.26,0,0,1-.63.47A3.83,3.83,0,0,1,5.08,23.71Z"/><path d="M1.46,6.66a1.59,1.59,0,0,1,.15-.21.47.47,0,0,1,.54-.12.43.43,0,0,1,.26.47.92.92,0,0,1-.36.67c-.71.58-.54.59-1.22,0A.87.87,0,0,1,.5,6.75.43.43,0,0,1,.78,6.3a.49.49,0,0,1,.53.15A1.59,1.59,0,0,1,1.46,6.66Z"/><path d="M36.66,17.19l.06-.11a.5.5,0,0,1,.64-.24.47.47,0,0,1,.23.61,1.87,1.87,0,0,1-.91.95s-.1,0-.13,0c-.24-.23-.49-.45-.71-.69a.64.64,0,0,1-.13-.34A.45.45,0,0,1,36,16.8a.5.5,0,0,1,.59.28Z"/><path d="M8,23.17a.54.54,0,0,1,.3-.59.41.41,0,0,1,.6.3,3.06,3.06,0,0,1,0,.74.61.61,0,0,1-.05.12c-.32.72-.13.59-.91.44a1.83,1.83,0,0,1-.58-.28.51.51,0,0,1-.14-.71A.52.52,0,0,1,8,23.13Z"/><path d="M31.92,3.33c0-.09,0-.17,0-.24a.47.47,0,0,1,.31-.44.4.4,0,0,1,.47.19,1.22,1.22,0,0,1,.15.43.93.93,0,0,1,0,.29c0,.63-.13.73-.76.69a1.54,1.54,0,0,1-.57-.14.46.46,0,0,1-.27-.59.48.48,0,0,1,.61-.22Z"/><path d="M2.33,17.12l.13,0a2.12,2.12,0,0,0,.87,0A2.21,2.21,0,0,0,4,16.46a.52.52,0,0,0,.06-.33c-.05-.66-.12-1.32-.18-2a.74.74,0,0,1,0-.15L5,14.11a.36.36,0,0,1,.17.11c.51.47,1,.95,1.51,1.43a.36.36,0,0,1,.11.17c0,.34.1.68.15,1-.15,0-.28,0-.41,0-.6,0-1.2-.05-1.8-.06a.47.47,0,0,0-.31.12c-.18.17-.35.37-.52.55a.24.24,0,0,0-.09.18c0,.3,0,.6.08.92l1,.05a.93.93,0,0,1,.23,0,.26.26,0,0,1,.22.29.25.25,0,0,1-.28.26q-.71,0-1.41-.06c-.2,0-.27-.15-.28-.33,0-.35-.06-.69-.1-1.09h-1c-.37,0-.43-.09-.47-.46s-.07-.76-.1-1.14a.3.3,0,0,1,.25-.37c.17,0,.3.1.32.31S2.29,16.75,2.33,17.12Z"/><path d="M35.54,9.46l.91-.29a.9.9,0,0,1,.22-.06A.26.26,0,0,1,37,9.3a.25.25,0,0,1-.14.34l-1.41.46c-.14,0-.25-.06-.31-.19l-.48-1c-.35.11-.69.21-1,.33a.31.31,0,0,1-.42-.17L32.6,7.91a.29.29,0,0,1,.11-.42.29.29,0,0,1,.4.17c.16.32.31.64.48,1,.31-.1.61-.19.9-.3,0,0,.09-.08.12-.14a3.27,3.27,0,0,1,.14-.33,1,1,0,0,0,0-1.12c-.29-.5-.52-1-.79-1.59.38-.1.75-.21,1.12-.27.11,0,.26.08.39.14l1.65.7a.34.34,0,0,1,.17.14c.18.3.34.6.52.93l-1.1.36-1,.34a.55.55,0,0,0-.21.19.52.52,0,0,0-.06.13C35,8.64,35,8.68,35.54,9.46Z"/><path d="M35.73,14.73a1,1,0,0,1-.42-1.31.89.89,0,0,1,1.34-.33,2.26,2.26,0,0,1,.94,1.21A10.1,10.1,0,0,1,38,15.4a.19.19,0,0,1,0,.18,4.69,4.69,0,0,1-2,1,1.31,1.31,0,0,1-1-.24.77.77,0,0,1-.29-.83,1,1,0,0,1,.76-.77A2.6,2.6,0,0,1,35.73,14.73Z"/><path d="M35.36,2.47a1,1,0,0,1,1,0,.83.83,0,0,1,.28,1.38,1.49,1.49,0,0,1-1,.48,6,6,0,0,1-1.74-.13.26.26,0,0,1-.23-.24,4.39,4.39,0,0,1,0-2.07A1.84,1.84,0,0,1,34,1.21.78.78,0,0,1,35,1a1,1,0,0,1,.5,1A3.24,3.24,0,0,1,35.36,2.47Z"/><path d="M3.08,10.27a1,1,0,0,1,.5.72.86.86,0,0,1-.34.87.88.88,0,0,1-1,0,1.76,1.76,0,0,1-.78-.92c-.18-.41-.31-.83-.45-1.25a.22.22,0,0,1,.06-.19,4.38,4.38,0,0,1,1.76-.92,1.37,1.37,0,0,1,.85.06.79.79,0,0,1,.51.93,1,1,0,0,1-.94.74Z"/><path d="M3,21.07a.94.94,0,0,1,1.17.05.74.74,0,0,1,.18.95,1.38,1.38,0,0,1-1,.69,5.09,5.09,0,0,1-1.74,0s-.12-.05-.13-.09a3.79,3.79,0,0,1-.16-2.28,1.62,1.62,0,0,1,.21-.36.8.8,0,0,1,.83-.34.85.85,0,0,1,.65.71A2.64,2.64,0,0,1,3,21.07Z"/><path d="M6.82,20.53a.76.76,0,0,1,0,.76.59.59,0,0,1-.91.14.91.91,0,0,1-.35-.72c0-.44.07-.87.13-1.3,0-.05.09-.13.14-.14a3.09,3.09,0,0,1,1.45,0,1.25,1.25,0,0,1,.44.27.58.58,0,0,1,.15.77.73.73,0,0,1-.84.28Z"/><path d="M36.93,11.14a.69.69,0,0,1,.85,0,.56.56,0,0,1,.11.84,1,1,0,0,1-.79.42,10.09,10.09,0,0,1-1.1,0,.17.17,0,0,1-.12-.08,2.94,2.94,0,0,1-.14-1.58,1.67,1.67,0,0,1,.08-.2.64.64,0,0,1,.8-.36A.69.69,0,0,1,37,11,.79.79,0,0,1,36.93,11.14Z"/><path d="M2.16,13.39a3,3,0,0,1,.45-.15.55.55,0,0,1,.56.27.48.48,0,0,1,0,.61,1.29,1.29,0,0,1-.5.4,7.8,7.8,0,0,1-1.11.24.26.26,0,0,1-.16-.06A2.6,2.6,0,0,1,1,13.18,1.21,1.21,0,0,1,1.05,13a.58.58,0,0,1,.67-.39.66.66,0,0,1,.46.7A.15.15,0,0,1,2.16,13.39Z"/><path d="M30,1.46a.64.64,0,0,1,.65,0,.48.48,0,0,1,.2.7.87.87,0,0,1-.69.42,7.85,7.85,0,0,1-1,0s-.12,0-.13-.08A2.41,2.41,0,0,1,29,1.09a1,1,0,0,1,.12-.23.5.5,0,0,1,.63-.22.59.59,0,0,1,.32.67A1,1,0,0,0,30,1.46Z"/><path d="M5.28,23.91a2.46,2.46,0,0,1-.56-1.24c0-.37.18-.64.45-.66s.54.23.59.61A1.7,1.7,0,0,1,6,22.47a.54.54,0,0,1,.64.11.5.5,0,0,1,0,.63,2.41,2.41,0,0,1-.63.47A4.78,4.78,0,0,1,5.28,23.91Z"/><path d="M1.65,6.86a1.91,1.91,0,0,1,.15-.21.49.49,0,0,1,.55-.12A.44.44,0,0,1,2.61,7a.86.86,0,0,1-.37.66c-.7.59-.53.6-1.21,0A.87.87,0,0,1,.7,7,.43.43,0,0,1,1,6.5a.47.47,0,0,1,.54.15A1,1,0,0,1,1.65,6.86Z"/><path d="M36.86,17.39l0-.11a.52.52,0,0,1,.65-.24.47.47,0,0,1,.23.61,1.87,1.87,0,0,1-.91,1s-.1,0-.13,0c-.24-.23-.49-.45-.71-.69a.71.71,0,0,1-.13-.35.44.44,0,0,1,.3-.55.52.52,0,0,1,.6.29Z"/><path d="M8.22,23.37a.53.53,0,0,1,.3-.59.41.41,0,0,1,.6.3,2.64,2.64,0,0,1,0,.74.28.28,0,0,1,0,.12c-.32.71-.14.59-.91.43a1.42,1.42,0,0,1-.58-.28.5.5,0,0,1-.14-.71.53.53,0,0,1,.72-.05Z"/><path d="M32.12,3.53c0-.09,0-.17,0-.24a.46.46,0,0,1,.31-.44.4.4,0,0,1,.47.18,1.38,1.38,0,0,1,.15.43,1.51,1.51,0,0,1,0,.3c0,.63-.13.73-.77.69a1.77,1.77,0,0,1-.56-.14.45.45,0,0,1-.27-.59A.48.48,0,0,1,32,3.5.13.13,0,0,1,32.12,3.53Z"/></g><g class="cls-3"><path d="M2,16.78l.13,0a2.12,2.12,0,0,0,.87,0,2.21,2.21,0,0,0,.68-.68.52.52,0,0,0,.06-.33c0-.66-.12-1.32-.18-2a.74.74,0,0,1,0-.15l1.07.11a.36.36,0,0,1,.17.11c.51.47,1,.95,1.51,1.43a.36.36,0,0,1,.11.17c0,.34.1.68.15,1-.15,0-.28,0-.41,0-.6,0-1.2-.05-1.8-.06a.47.47,0,0,0-.31.12c-.18.17-.35.37-.52.55a.24.24,0,0,0-.09.18c0,.3,0,.6.08.92l1,.05a.93.93,0,0,1,.23,0,.26.26,0,0,1,.22.29.25.25,0,0,1-.28.26q-.7,0-1.41-.06c-.2,0-.27-.15-.28-.33,0-.35-.06-.69-.1-1.09h-1c-.37,0-.43-.09-.47-.46s-.07-.76-.1-1.14a.3.3,0,0,1,.25-.37c.17,0,.3.1.32.31S2,16.41,2,16.78Z"/><path d="M35.2,9.12l.91-.29a.9.9,0,0,1,.22-.06.26.26,0,0,1,.29.19.25.25,0,0,1-.14.34l-1.41.46c-.14,0-.25-.06-.31-.19l-.48-1c-.35.11-.69.21-1,.33a.31.31,0,0,1-.42-.17c-.19-.39-.39-.78-.57-1.18a.29.29,0,0,1,.11-.42.29.29,0,0,1,.4.17l.48,1c.31-.1.61-.19.9-.3.05,0,.09-.08.12-.14a1.92,1.92,0,0,1,.14-.33,1,1,0,0,0,0-1.12c-.29-.5-.52-1-.79-1.59.38-.1.75-.21,1.12-.27.11,0,.26.08.39.14l1.65.7a.34.34,0,0,1,.17.14c.18.3.34.6.52.93l-1.1.36-1,.34c-.08,0-.14.12-.2.19a.52.52,0,0,0-.06.13C34.7,8.3,34.7,8.34,35.2,9.12Z"/><path d="M35.39,14.39A1,1,0,0,1,35,13.08a.88.88,0,0,1,1.34-.33A2.26,2.26,0,0,1,37.25,14a10.1,10.1,0,0,1,.36,1.1.19.19,0,0,1,0,.18,4.69,4.69,0,0,1-2,1,1.31,1.31,0,0,1-1-.24.75.75,0,0,1-.29-.83,1,1,0,0,1,.76-.77A2.6,2.6,0,0,1,35.39,14.39Z"/><path d="M35,2.13a1,1,0,0,1,.95,0,.83.83,0,0,1,.28,1.38,1.49,1.49,0,0,1-1,.48,6,6,0,0,1-1.74-.13.26.26,0,0,1-.23-.24,4.39,4.39,0,0,1,0-2.07,1.84,1.84,0,0,1,.39-.64.78.78,0,0,1,1-.19,1,1,0,0,1,.5,1A3.24,3.24,0,0,1,35,2.13Z"/><path d="M2.74,9.93a1,1,0,0,1,.5.72.86.86,0,0,1-.34.87.88.88,0,0,1-1,0,1.76,1.76,0,0,1-.78-.92C1,10.17.83,9.75.69,9.33a.22.22,0,0,1,.06-.19,4.38,4.38,0,0,1,1.76-.92,1.37,1.37,0,0,1,.85.06.79.79,0,0,1,.51.93,1,1,0,0,1-.94.74Z"/><path d="M2.65,20.73a.94.94,0,0,1,1.17.05.74.74,0,0,1,.18.95,1.38,1.38,0,0,1-1,.69,5.09,5.09,0,0,1-1.74,0c-.05,0-.12-.05-.13-.09A3.79,3.79,0,0,1,1,20.09a1.62,1.62,0,0,1,.21-.36A.8.8,0,0,1,2,19.39a.85.85,0,0,1,.65.71A2.64,2.64,0,0,1,2.65,20.73Z"/><path d="M6.48,20.19a.76.76,0,0,1,0,.76.59.59,0,0,1-.91.14.91.91,0,0,1-.35-.72c0-.44.07-.87.13-1.3,0-.05.09-.13.14-.14a3.09,3.09,0,0,1,1.45,0,1.12,1.12,0,0,1,.44.27.58.58,0,0,1,.15.77.74.74,0,0,1-.85.28Z"/><path d="M36.59,10.8a.69.69,0,0,1,.85,0,.56.56,0,0,1,.11.84,1,1,0,0,1-.79.42,10.09,10.09,0,0,1-1.1,0,.17.17,0,0,1-.12-.08,2.94,2.94,0,0,1-.14-1.58,1.67,1.67,0,0,1,.08-.2.64.64,0,0,1,.8-.36.69.69,0,0,1,.35.86A.79.79,0,0,1,36.59,10.8Z"/><path d="M1.82,13.05a3,3,0,0,1,.45-.15.55.55,0,0,1,.56.27.48.48,0,0,1,0,.61,1.29,1.29,0,0,1-.5.4,7.8,7.8,0,0,1-1.11.24A.26.26,0,0,1,1,14.36a2.6,2.6,0,0,1-.36-1.52,1.21,1.21,0,0,1,0-.18.58.58,0,0,1,.67-.39.66.66,0,0,1,.46.7A.15.15,0,0,1,1.82,13.05Z"/><path d="M29.66,1.12a.64.64,0,0,1,.65,0,.48.48,0,0,1,.2.7.87.87,0,0,1-.69.42,7.85,7.85,0,0,1-1,0s-.12,0-.13-.08a2.44,2.44,0,0,1-.1-1.39,1.19,1.19,0,0,1,.12-.22A.5.5,0,0,1,29.37.3a.59.59,0,0,1,.32.67A1,1,0,0,0,29.66,1.12Z"/><path d="M4.94,23.57a2.46,2.46,0,0,1-.56-1.24c0-.37.18-.64.45-.66s.54.23.59.61a1.7,1.7,0,0,1,.22-.15.54.54,0,0,1,.64.11.5.5,0,0,1,0,.63,2.41,2.41,0,0,1-.63.47A4.78,4.78,0,0,1,4.94,23.57Z"/><path d="M1.31,6.52a1.91,1.91,0,0,1,.15-.21A.49.49,0,0,1,2,6.19a.44.44,0,0,1,.26.47.86.86,0,0,1-.37.66c-.7.59-.53.6-1.21,0a.87.87,0,0,1-.33-.69.43.43,0,0,1,.27-.45.47.47,0,0,1,.54.15A1,1,0,0,1,1.31,6.52Z"/><path d="M36.52,17.05l0-.11a.52.52,0,0,1,.65-.24.47.47,0,0,1,.23.61,1.87,1.87,0,0,1-.91,1s-.1,0-.13,0c-.24-.23-.49-.45-.71-.69a.71.71,0,0,1-.13-.35.44.44,0,0,1,.3-.55.51.51,0,0,1,.59.29Z"/><path d="M7.88,23a.53.53,0,0,1,.3-.59.41.41,0,0,1,.6.3,2.64,2.64,0,0,1,0,.74.28.28,0,0,1,0,.12c-.32.71-.14.59-.91.43a1.42,1.42,0,0,1-.58-.28A.51.51,0,0,1,7.09,23,.53.53,0,0,1,7.81,23Z"/><path d="M31.78,3.19c0-.09,0-.17,0-.24a.46.46,0,0,1,.31-.44.4.4,0,0,1,.47.18,1.38,1.38,0,0,1,.15.43,1.51,1.51,0,0,1,0,.3c0,.63-.13.73-.77.69A1.77,1.77,0,0,1,31.36,4a.45.45,0,0,1-.27-.59.48.48,0,0,1,.61-.22A.13.13,0,0,1,31.78,3.19Z"/></g><path class="cls-4" d="M2.19,17h.13c.29,0,.63.12.87,0a2.44,2.44,0,0,0,.68-.68A.52.52,0,0,0,3.93,16c-.05-.66-.12-1.32-.18-2a.74.74,0,0,1,0-.15L4.82,14a.36.36,0,0,1,.17.11L6.5,15.51a.39.39,0,0,1,.11.17c0,.34.1.68.15,1-.15,0-.28,0-.41,0l-1.8-.07a.53.53,0,0,0-.31.13,6.76,6.76,0,0,0-.52.55.24.24,0,0,0-.09.18c0,.3.05.6.08.92l1,0,.23,0a.27.27,0,0,1,.22.3.24.24,0,0,1-.27.26q-.7,0-1.41-.06c-.2,0-.27-.16-.28-.34,0-.34-.06-.68-.1-1.08h-1c-.37,0-.44-.09-.47-.46s-.07-.76-.11-1.14a.3.3,0,0,1,.26-.37c.17,0,.3.1.32.31S2.15,16.61,2.19,17Z"/><path class="cls-4" d="M35.39,9.32l.92-.3.22,0a.25.25,0,0,1,.29.19.25.25,0,0,1-.14.33c-.47.17-.94.32-1.41.47-.15,0-.25-.06-.31-.19l-.49-1-1,.33A.3.3,0,0,1,33,9c-.19-.39-.39-.78-.57-1.18a.29.29,0,0,1,.11-.42.28.28,0,0,1,.39.17c.17.32.32.64.49,1,.31-.1.61-.19.9-.3a.26.26,0,0,0,.11-.14,3.31,3.31,0,0,1,.15-.33,1,1,0,0,0,0-1.13c-.28-.5-.51-1-.78-1.58.38-.1.74-.21,1.11-.27.12,0,.27.08.4.14L37,5.6a.39.39,0,0,1,.17.14c.18.3.34.6.52.92L36.53,7l-1,.34c-.08,0-.14.12-.2.19a.52.52,0,0,0-.06.13C34.9,8.5,34.9,8.54,35.39,9.32Z"/><path class="cls-4" d="M35.59,14.59a1.05,1.05,0,0,1-.42-1.32.9.9,0,0,1,1.34-.33,2.32,2.32,0,0,1,.94,1.22,10.1,10.1,0,0,1,.36,1.1.19.19,0,0,1,0,.18,4.67,4.67,0,0,1-2,1,1.34,1.34,0,0,1-1-.24.75.75,0,0,1-.29-.83,1,1,0,0,1,.76-.77A2.5,2.5,0,0,1,35.59,14.59Z"/><path class="cls-4" d="M35.22,2.33a1,1,0,0,1,1,0,.83.83,0,0,1,.28,1.38,1.56,1.56,0,0,1-1,.48A6,6,0,0,1,33.68,4a.26.26,0,0,1-.23-.24,4.39,4.39,0,0,1,0-2.07,1.63,1.63,0,0,1,.39-.64.78.78,0,0,1,1-.19,1,1,0,0,1,.5,1A3.07,3.07,0,0,1,35.22,2.33Z"/><path class="cls-4" d="M2.94,10.13a1,1,0,0,1,.5.71.87.87,0,0,1-.34.88.89.89,0,0,1-1,0,1.74,1.74,0,0,1-.78-.91C1.16,10.37,1,10,.89,9.53A.19.19,0,0,1,1,9.34a4.53,4.53,0,0,1,1.76-.93,1.46,1.46,0,0,1,.85.07.79.79,0,0,1,.51.93,1,1,0,0,1-.94.74Z"/><path class="cls-4" d="M2.85,20.93A.94.94,0,0,1,4,21a.75.75,0,0,1,.18.95,1.41,1.41,0,0,1-1,.69,5.14,5.14,0,0,1-1.75,0,.15.15,0,0,1-.12-.08,3.79,3.79,0,0,1-.16-2.28,1.17,1.17,0,0,1,.21-.36.77.77,0,0,1,.83-.34.84.84,0,0,1,.65.71A2.67,2.67,0,0,1,2.85,20.93Z"/><path class="cls-4" d="M6.68,20.38a.78.78,0,0,1,0,.77.59.59,0,0,1-.91.14.9.9,0,0,1-.34-.72c0-.44.07-.87.13-1.3,0-.05.09-.13.14-.14a2.92,2.92,0,0,1,1.44,0,1.15,1.15,0,0,1,.45.27.57.57,0,0,1,.14.77.7.7,0,0,1-.84.27A1,1,0,0,1,6.68,20.38Z"/><path class="cls-4" d="M36.79,11a.69.69,0,0,1,.85,0,.57.57,0,0,1,.11.84,1,1,0,0,1-.8.42c-.36,0-.73,0-1.09,0a.17.17,0,0,1-.13-.08,2.94,2.94,0,0,1-.13-1.58,1.19,1.19,0,0,1,.08-.2.63.63,0,0,1,.8-.36.69.69,0,0,1,.35.86Z"/><path class="cls-4" d="M2,13.25a2.64,2.64,0,0,1,.45-.15.54.54,0,0,1,.56.27A.5.5,0,0,1,3,14a1.29,1.29,0,0,1-.5.4,7.06,7.06,0,0,1-1.11.23.21.21,0,0,1-.16,0A2.6,2.6,0,0,1,.86,13a.61.61,0,0,1,.05-.18.58.58,0,0,1,.67-.39.66.66,0,0,1,.46.7A.45.45,0,0,0,2,13.25Z"/><path class="cls-4" d="M29.86,1.32a.62.62,0,0,1,.64,0,.48.48,0,0,1,.21.7.89.89,0,0,1-.7.42c-.31,0-.64,0-1,0a.15.15,0,0,1-.13-.08,2.44,2.44,0,0,1-.1-1.39,1.51,1.51,0,0,1,.11-.22A.51.51,0,0,1,29.57.5a.6.6,0,0,1,.32.67A.75.75,0,0,0,29.86,1.32Z"/><path class="cls-4" d="M5.14,23.77a2.38,2.38,0,0,1-.56-1.24c0-.38.17-.64.45-.66s.54.23.58.61c.08-.05.15-.11.23-.15a.54.54,0,0,1,.64.11.48.48,0,0,1,0,.62,2.45,2.45,0,0,1-.63.48A4.78,4.78,0,0,1,5.14,23.77Z"/><path class="cls-4" d="M1.51,6.72a.87.87,0,0,1,.15-.21.49.49,0,0,1,.55-.12.43.43,0,0,1,.26.46.91.91,0,0,1-.37.67c-.7.59-.53.6-1.22,0a.93.93,0,0,1-.33-.69.45.45,0,0,1,.28-.45.48.48,0,0,1,.54.14A1.18,1.18,0,0,1,1.51,6.72Z"/><path class="cls-4" d="M36.72,17.25l.05-.11a.52.52,0,0,1,.65-.25.49.49,0,0,1,.23.62,1.91,1.91,0,0,1-.91.95.13.13,0,0,1-.13,0c-.24-.22-.49-.44-.71-.68a.63.63,0,0,1-.13-.35.44.44,0,0,1,.3-.55.51.51,0,0,1,.59.29Z"/><path class="cls-4" d="M8.07,23.23a.55.55,0,0,1,.3-.59.42.42,0,0,1,.61.3,2.64,2.64,0,0,1,0,.74.56.56,0,0,1,0,.12c-.32.71-.14.59-.91.43A1.42,1.42,0,0,1,7.43,24a.5.5,0,0,1-.14-.71.53.53,0,0,1,.72,0Z"/><path class="cls-4" d="M32,3.39c0-.09,0-.17,0-.24a.46.46,0,0,1,.31-.44.38.38,0,0,1,.47.18,1.3,1.3,0,0,1,.15.43,1,1,0,0,1,0,.3c0,.63-.13.73-.76.69a1.77,1.77,0,0,1-.56-.14.44.44,0,0,1-.27-.59.48.48,0,0,1,.61-.22Z"/></g></g></svg>