<svg xmlns="http://www.w3.org/2000/svg" viewBox="0 0 38.55 24.66"><defs><style>.cls-1{isolation:isolate;}.cls-2{opacity:0.15;}.cls-2,.cls-3{mix-blend-mode:multiply;}.cls-4{fill:#fff;}</style></defs><title>convert-CUSTOMIZE-SVG-03</title><g class="cls-1"><g id="Layer_1" data-name="Layer 1"><g class="cls-2"><path d="M9,9a22.48,22.48,0,0,0,2.85.17c-.08-.41-.14-.8-.23-1.17-.16-.65-.35-1.28-.52-1.92a.46.46,0,0,0-.31-.34,4.28,4.28,0,0,1-.69-.31A3.23,3.23,0,0,1,9.4,5a.67.67,0,0,1,0-1c.24-.26.54-.26.89,0l.07,0a.69.69,0,0,1,.38-.64.68.68,0,0,1,.93.62,2.09,2.09,0,0,1-.26,1.18,1.08,1.08,0,0,0,0,.88c.28,1,.53,2,.77,3a.88.88,0,0,0,0-.16c.11-1.17.2-2.35.31-3.52a2.94,2.94,0,0,1,.1-.58.81.81,0,0,0-.1-.68c-.21-.36-.42-.72-.61-1.09a2.49,2.49,0,0,1-.32-1.19,1,1,0,0,1,.89-1,.87.87,0,0,1,1,.78s0,.05,0,.08l.06.06a.89.89,0,0,1,.08-.17.89.89,0,0,1,1.15-.19,1,1,0,0,1,.39,1.18,2,2,0,0,1-.73.9c-.38.27-.78.51-1.19.76a.55.55,0,0,0-.25.36,25.22,25.22,0,0,0-.45,4.67c0,.1.09.21.17.36.15-.56.29-1,.42-1.53l0-.1a2.37,2.37,0,0,0,.28-1.43.49.49,0,0,1,.31-.55c.33-.11.54.07.59.49l.15-.06a.39.39,0,0,1,.47.13.4.4,0,0,1,0,.54,2.2,2.2,0,0,1-.58.37c-.2.09-.43.12-.64.2a.4.4,0,0,0-.22.22c-.19.64-.36,1.29-.52,1.94a.93.93,0,0,0,0,.33c0,.13,0,.25-.1.33s0,.1,0,.15a16.74,16.74,0,0,0-.26,2.94l-.48,0V11.35c-.5.19-1,.2-1.4.61.12.34.24.71.38,1.07,0,.08.13.13.2.19a1,1,0,0,1,.12,1.49,3.63,3.63,0,0,0-.59.82,2.12,2.12,0,0,1-.23.35A3.63,3.63,0,0,0,9.82,18a2.61,2.61,0,0,0,.81,2.12,2.85,2.85,0,0,1,.55.74A.78.78,0,0,1,10.84,22a1.13,1.13,0,0,0-.47.52,2.4,2.4,0,0,1-1.88,1.29,3.77,3.77,0,0,1-1.42-.08,1.71,1.71,0,0,1-1.21-.91,6.19,6.19,0,0,1-.63-1.92,19.78,19.78,0,0,1-.3-3.17c0-.26,0-.52,0-.78a.68.68,0,0,0-.08-.24A8.54,8.54,0,0,1,3.75,13c0-.66,0-1.32,0-2,0-.11,0-.17-.12-.21A3,3,0,0,1,1.87,7.69,11.3,11.3,0,0,1,2.12,6.4c0-.13,0-.28,0-.42A1.29,1.29,0,0,1,3.22,4.84c.41-.1.8-.25,1.2-.39,0,0,.07-.08.08-.13a.79.79,0,0,1,.75-.58A.7.7,0,0,1,6,4.16a.33.33,0,0,0,.28.23,3.13,3.13,0,0,1,1.61.88.57.57,0,0,0,.27.13A2,2,0,0,1,9.41,6a1.66,1.66,0,0,1,.45,1.37,2.53,2.53,0,0,1-.75,1.52Zm-3.8,8.16h0c0,.25,0,.49,0,.74.09.94.15,1.88.27,2.82a5,5,0,0,0,.63,1.91,1.21,1.21,0,0,0,.59.59,3.13,3.13,0,0,0,2.07.12,2,2,0,0,0,1.31-1.09,1.46,1.46,0,0,0-.67-2,1.75,1.75,0,0,1-1-1.39,2.55,2.55,0,0,1,.18-1.25,2.73,2.73,0,0,0,.15-1.33.85.85,0,0,0-.83-.82c-.38-.06-.75-.16-1.12-.23a1.34,1.34,0,0,0-.49,0,1.21,1.21,0,0,0-.91.82C5.29,16.45,5.24,16.83,5.16,17.19ZM4.24,5.94c0,.27-.09.53-.12.79a.53.53,0,0,0,0,.28,1,1,0,0,1,.07.85.51.51,0,0,1-.82.31A2.5,2.5,0,0,1,2.34,7.05s0,0-.07,0a4.06,4.06,0,0,0,0,1.59,2.59,2.59,0,0,0,3.07,2.12,6,6,0,0,0,2.3-1.06c.24-.17.46-.36.72-.57-.2-.29-.38-.57-.56-.85a2.75,2.75,0,0,1-.24-.41,2.44,2.44,0,0,1,.15-2.06.26.26,0,0,0-.07-.37A3.38,3.38,0,0,0,4,4.91c.35.13.6.33.57.73C4.57,5.85,4.4,5.92,4.24,5.94Zm4.49,9.33c.34,0,.75,0,1.15-.11a2.88,2.88,0,0,0,.8-.26.9.9,0,0,0,.18-1.5,3.62,3.62,0,0,0-1.23-.68,8.67,8.67,0,0,1-1-.33c-.45-.23-.88-.53-1.31-.8A2.8,2.8,0,0,0,5.43,11c-.73.09-1.13.4-1.19,1.14a2,2,0,0,0,.63,1.62A5.43,5.43,0,0,0,8.73,15.27Zm.4-9.14a6,6,0,0,0-.55-.31c-.48-.2-.59-.14-.77.34l0,.08A2.08,2.08,0,0,0,7.89,7.9c.2.35.45.66.69,1A1.91,1.91,0,0,0,9.34,8l-.45-.31.21-.31.28.14A.51.51,0,0,0,9.21,7,.53.53,0,0,1,9.13,6.13Zm-.91,4.53c-.08.33-.15.62-.21.92a.21.21,0,0,0,.06.18,6.38,6.38,0,0,0,.87.43c.56.21,1.14.39,1.69.57l0-.13a5.35,5.35,0,0,0-1.78-2.44.38.38,0,0,0-.52,0l.28.87,0,0Zm.56-1.27c.17.24.33.51.52.75s.53.58.78.89.23.35.35.52a.45.45,0,0,0,.14.06s0-.09,0-.13a.78.78,0,0,1,.17-.67,2,2,0,0,1,1.11-.91c0-.39,0-.4-.36-.41Zm1.83,12.33c.32-.15.45-.4.3-.69a6.35,6.35,0,0,0-.54-.74,2.54,2.54,0,0,1-.28-.29,3.14,3.14,0,0,1-.51-2.51c.05-.2.09-.41.14-.62l-.59.27a.22.22,0,0,0-.09.1c-.09.27-.18.55-.25.83a1.56,1.56,0,0,0,.87,2,1.71,1.71,0,0,1,.53.44A1.82,1.82,0,0,1,10.61,21.72ZM4.29,5.59c0-.27-.23-.33-.42-.4a1,1,0,0,0-1.41,1A2,2,0,0,0,3.63,7.94a.27.27,0,0,0,.25-.07.63.63,0,0,0-.06-.75A1.52,1.52,0,0,1,3.35,6a.46.46,0,0,1,.46-.46A4.26,4.26,0,0,1,4.29,5.59ZM6.09,15a4.34,4.34,0,0,1-2-1.76A8.42,8.42,0,0,0,5,16.32,1.83,1.83,0,0,1,6.09,15Zm2.76.57.29,1.23a3.44,3.44,0,0,0,1.36-1.44ZM6.61,10.87c.19.08.35.27.57.17a1.71,1.71,0,0,0,.59-.36c.22-.22.3-.48.05-.63ZM5.74,4.3A.4.4,0,0,0,5.28,4c-.19,0-.39.09-.47.32ZM4,11.64l.41-.59L4.05,11a.44.44,0,0,0,0,.15C4,11.3,4,11.47,4,11.64Zm3.83-.59-.4.25.29.18Z"/><path d="M11.52,17.88c-.06-.35-.15-.69-.18-1a1,1,0,0,1,.15-.53.39.39,0,0,1,.46-.13c.24.07.28.26.3.48h.07a.43.43,0,0,1,.59.14.43.43,0,0,1-.14.61,3.59,3.59,0,0,1-.62.31A6.24,6.24,0,0,1,11.52,17.88Z"/><path d="M15.47,14.05c-.26-.17-.51-.32-.75-.5a1.37,1.37,0,0,1-.33-.35.45.45,0,0,1,.09-.59.41.41,0,0,1,.57,0l.07.06s0,0,0-.06c.12-.27.29-.38.52-.32a.46.46,0,0,1,.34.57,4,4,0,0,1-.23.63C15.69,13.69,15.57,13.87,15.47,14.05Z"/><path d="M8,3.74c-.27-.18-.53-.34-.78-.52a1.27,1.27,0,0,1-.3-.35A.42.42,0,0,1,7,2.29a.4.4,0,0,1,.56,0l.09.08C7.72,2.18,7.81,2,8,2a.41.41,0,0,1,.5.39,3.23,3.23,0,0,1-.15.67.6.6,0,0,1-.06.11Z"/><path d="M6.44,16.78a.51.51,0,0,1,.49-.55.54.54,0,0,1,.49.54.54.54,0,0,1-.49.56A.51.51,0,0,1,6.44,16.78Z"/><path d="M7.14,7c0,.12,0,.25-.21.26a.48.48,0,0,1-.39-.48c0-.14,0-.26.21-.27S7.14,6.74,7.14,7Z"/><path d="M5.84,12.43a.4.4,0,0,1-.36.44.62.62,0,0,1-.54-.6.4.4,0,0,1,.39-.44A.59.59,0,0,1,5.84,12.43Z"/><path d="M9.16,9.22A20.67,20.67,0,0,0,12,9.4c-.08-.41-.14-.8-.23-1.18-.16-.64-.35-1.27-.52-1.91A.47.47,0,0,0,11,6a3.92,3.92,0,0,1-.69-.31,3.23,3.23,0,0,1-.66-.49.66.66,0,0,1,0-1c.24-.26.54-.26.89,0l.06,0a.71.71,0,0,1,.39-.64.68.68,0,0,1,.93.62,2.09,2.09,0,0,1-.26,1.18,1.12,1.12,0,0,0,0,.88c.29,1,.54,2,.78,3a.88.88,0,0,0,0-.16c.1-1.17.2-2.35.31-3.52a2.7,2.7,0,0,1,.1-.58.81.81,0,0,0-.1-.68c-.21-.36-.43-.72-.62-1.09a2.6,2.6,0,0,1-.31-1.19,1,1,0,0,1,.89-1,.89.89,0,0,1,1,.78s0,.06,0,.09l.06.05a.48.48,0,0,1,.08-.16.89.89,0,0,1,1.15-.19,1,1,0,0,1,.39,1.18,2.07,2.07,0,0,1-.73.9c-.38.27-.79.51-1.19.76a.53.53,0,0,0-.25.36,25.22,25.22,0,0,0-.45,4.67c0,.1.09.2.17.36.15-.56.28-1.05.42-1.54l0-.1a2.34,2.34,0,0,0,.28-1.43.46.46,0,0,1,.31-.54c.33-.11.54.07.59.49l.15-.06a.4.4,0,0,1,.47.12.41.41,0,0,1,0,.55,2.49,2.49,0,0,1-.58.37c-.2.09-.43.12-.64.2a.4.4,0,0,0-.22.22c-.19.64-.36,1.29-.52,1.93a.78.78,0,0,0,0,.34c0,.13,0,.25-.1.33s-.05.1-.06.15a17.67,17.67,0,0,0-.25,2.94l-.48,0V11.55c-.51.19-1,.2-1.41.61.12.33.25.71.39,1.07,0,.08.12.13.19.19a.94.94,0,0,1,.12,1.49,3.93,3.93,0,0,0-.58.82,2.12,2.12,0,0,1-.23.35A3.63,3.63,0,0,0,10,18.21a2.55,2.55,0,0,0,.81,2.11,2.9,2.9,0,0,1,.55.75A.78.78,0,0,1,11,22.16a1.21,1.21,0,0,0-.48.52A2.37,2.37,0,0,1,8.69,24a4.06,4.06,0,0,1-1.43-.08A1.7,1.7,0,0,1,6.06,23a6.19,6.19,0,0,1-.63-1.92,19.89,19.89,0,0,1-.3-3.17c0-.26,0-.53,0-.79A.63.63,0,0,0,5,16.87,8.48,8.48,0,0,1,4,13.21c-.05-.66,0-1.32,0-2,0-.1,0-.16-.12-.2A3,3,0,0,1,2.07,7.88c0-.43.16-.85.24-1.28a3,3,0,0,0,.06-.42A1.32,1.32,0,0,1,3.42,5c.4-.09.8-.25,1.2-.38,0,0,.06-.09.08-.13a.78.78,0,0,1,.74-.58.69.69,0,0,1,.78.42.33.33,0,0,0,.28.23,3.11,3.11,0,0,1,1.61.87.5.5,0,0,0,.27.14,2,2,0,0,1,1.23.59,1.66,1.66,0,0,1,.45,1.37,2.53,2.53,0,0,1-.75,1.52Zm-3.8,8.17h0c0,.25,0,.49,0,.74.08.94.15,1.88.27,2.82a5,5,0,0,0,.62,1.91,1.27,1.27,0,0,0,.6.59A3.13,3.13,0,0,0,9,23.58a2,2,0,0,0,1.3-1.09,1.46,1.46,0,0,0-.66-2,1.73,1.73,0,0,1-1-1.38,2.55,2.55,0,0,1,.18-1.25,2.61,2.61,0,0,0,.14-1.33.84.84,0,0,0-.82-.83c-.38-.05-.75-.15-1.12-.22a1.21,1.21,0,0,0-1.4.81A10.08,10.08,0,0,0,5.36,17.39ZM4.44,6.14c0,.27-.09.53-.12.78a.56.56,0,0,0,0,.29,1,1,0,0,1,.07.85.51.51,0,0,1-.83.31A2.66,2.66,0,0,1,2.53,7.25s0,0-.06,0a4.06,4.06,0,0,0-.05,1.59,2.59,2.59,0,0,0,3.07,2.12,6,6,0,0,0,2.3-1.06c.23-.17.46-.36.72-.57L8,8.43A3.38,3.38,0,0,1,7.71,8,2.44,2.44,0,0,1,7.86,6a.26.26,0,0,0-.07-.37,3.38,3.38,0,0,0-3.57-.48c.35.13.6.33.57.73C4.77,6.05,4.6,6.12,4.44,6.14Zm4.48,9.33c.34,0,.76,0,1.16-.11a3.26,3.26,0,0,0,.8-.26.9.9,0,0,0,.18-1.5,3.46,3.46,0,0,0-1.23-.68,8.67,8.67,0,0,1-1-.33c-.46-.23-.88-.53-1.31-.8a2.86,2.86,0,0,0-1.87-.57c-.73.1-1.14.41-1.19,1.15A2,2,0,0,0,5.07,14,5.43,5.43,0,0,0,8.92,15.47Zm.41-9.14A6,6,0,0,0,8.78,6c-.49-.2-.59-.15-.77.34l0,.08A2.08,2.08,0,0,0,8.09,8.1c.2.35.45.66.69,1a1.91,1.91,0,0,0,.76-.87l-.45-.31.21-.31.27.14a.49.49,0,0,0-.16-.6A.53.53,0,0,1,9.33,6.33Zm-.91,4.53c-.08.33-.15.62-.21.92a.22.22,0,0,0,.06.18,7.8,7.8,0,0,0,.87.43c.56.21,1.14.39,1.69.57,0,0,0-.07,0-.14A5.38,5.38,0,0,0,9,10.39a.39.39,0,0,0-.53,0l.28.87,0,0ZM9,9.59c.16.24.33.51.52.75s.52.58.78.89c.13.16.23.35.35.52s.09,0,.14.05,0-.08,0-.12A.77.77,0,0,1,11,11a2,2,0,0,1,1.11-.91c0-.39,0-.4-.36-.41ZM10.8,21.92c.33-.15.46-.4.31-.69a4.89,4.89,0,0,0-.55-.74,3.71,3.71,0,0,1-.27-.29,3.2,3.2,0,0,1-.52-2.51c.06-.2.1-.41.15-.62l-.59.27a.18.18,0,0,0-.09.1c-.09.27-.18.55-.25.83a1.55,1.55,0,0,0,.87,2,1.71,1.71,0,0,1,.53.44A1.75,1.75,0,0,1,10.8,21.92ZM4.48,5.79c0-.27-.22-.33-.41-.4a1,1,0,0,0-1.41,1A2,2,0,0,0,3.83,8.14a.24.24,0,0,0,.24-.07A.61.61,0,0,0,4,7.32a1.57,1.57,0,0,1-.46-1.1A.46.46,0,0,1,4,5.76,2.58,2.58,0,0,1,4.48,5.79Zm1.81,9.43a4.26,4.26,0,0,1-2-1.77,8.41,8.41,0,0,0,.9,3.07A1.81,1.81,0,0,1,6.29,15.22Zm2.76.57L9.34,17a3.44,3.44,0,0,0,1.36-1.44ZM6.8,11.07c.2.08.36.27.58.17A1.83,1.83,0,0,0,8,10.88c.22-.22.31-.49.06-.63ZM5.94,4.5a.4.4,0,0,0-.46-.26c-.19,0-.39.09-.47.31ZM4.19,11.84l.41-.6-.36-.06c0,.06,0,.1,0,.15S4.2,11.67,4.19,11.84ZM8,11.25l-.4.25.29.18Z"/><path d="M11.72,18.08c-.06-.35-.15-.7-.18-1a1,1,0,0,1,.15-.53.39.39,0,0,1,.46-.13c.24.07.28.26.3.48h.07c.27-.11.46-.07.59.14a.43.43,0,0,1-.14.61,3.59,3.59,0,0,1-.62.31A6.24,6.24,0,0,1,11.72,18.08Z"/><path d="M15.67,14.25c-.26-.17-.52-.32-.75-.5a1.37,1.37,0,0,1-.33-.35.46.46,0,0,1,.09-.6.42.42,0,0,1,.57,0l.07.06s0,0,0-.06c.12-.27.29-.38.51-.32a.46.46,0,0,1,.35.57,2.94,2.94,0,0,1-.24.62A5.86,5.86,0,0,1,15.67,14.25Z"/><path d="M8.2,3.93c-.27-.18-.53-.33-.78-.51a1.27,1.27,0,0,1-.3-.35.42.42,0,0,1,.09-.58.4.4,0,0,1,.56,0l.09.08c.06-.2.15-.37.37-.4a.43.43,0,0,1,.5.4,4.27,4.27,0,0,1-.15.67.6.6,0,0,1-.06.11C8.42,3.55,8.31,3.74,8.2,3.93Z"/><path d="M6.64,17a.5.5,0,0,1,.49-.54.51.51,0,0,1,.48.54.53.53,0,0,1-.49.56A.51.51,0,0,1,6.64,17Z"/><path d="M7.34,7.2c0,.13,0,.26-.21.26S6.74,7.22,6.74,7s0-.26.21-.27S7.34,6.94,7.34,7.2Z"/><path d="M6,12.63a.39.39,0,0,1-.35.44.62.62,0,0,1-.54-.6A.4.4,0,0,1,5.52,12,.58.58,0,0,1,6,12.63Z"/></g><g class="cls-3"><path d="M8.82,8.88a20.67,20.67,0,0,0,2.85.18c-.08-.41-.14-.8-.23-1.18-.16-.64-.35-1.27-.52-1.91a.47.47,0,0,0-.31-.34,4.38,4.38,0,0,1-.7-.31,3.46,3.46,0,0,1-.65-.49.66.66,0,0,1,0-1c.24-.26.54-.26.89,0l.06,0a.71.71,0,0,1,.39-.64.68.68,0,0,1,.93.62,2.09,2.09,0,0,1-.26,1.18,1.12,1.12,0,0,0,0,.88c.29,1,.54,2,.78,3a.88.88,0,0,0,0-.16c.1-1.17.2-2.35.31-3.52a2.7,2.7,0,0,1,.1-.58.81.81,0,0,0-.1-.68c-.21-.36-.43-.72-.62-1.09a2.6,2.6,0,0,1-.31-1.19,1,1,0,0,1,.89-1,.89.89,0,0,1,1,.78s0,.06,0,.09l.06,0a.48.48,0,0,1,.08-.16.89.89,0,0,1,1.15-.19A1,1,0,0,1,15,2.49a2.07,2.07,0,0,1-.73.9c-.38.27-.79.51-1.19.76a.53.53,0,0,0-.25.36,25.22,25.22,0,0,0-.45,4.67c0,.1.09.2.16.36.16-.56.29-1,.43-1.54l0-.1a2.34,2.34,0,0,0,.28-1.43.46.46,0,0,1,.31-.54c.33-.11.54.07.59.49l.15-.06a.4.4,0,0,1,.47.12.41.41,0,0,1,0,.55,2.49,2.49,0,0,1-.58.37c-.2.09-.43.12-.64.2a.4.4,0,0,0-.22.22c-.19.64-.36,1.29-.52,1.93a.78.78,0,0,0,0,.34c0,.13,0,.25-.1.33s-.05.1-.06.15a17.67,17.67,0,0,0-.25,2.94l-.48,0V11.21c-.51.19-1,.2-1.41.61.12.33.25.71.39,1.07,0,.08.12.13.19.19a.94.94,0,0,1,.12,1.49,4.38,4.38,0,0,0-.59.82,1.59,1.59,0,0,1-.22.35,3.63,3.63,0,0,0-.73,2.13A2.55,2.55,0,0,0,10.49,20a2.9,2.9,0,0,1,.55.75.78.78,0,0,1-.34,1.09,1.21,1.21,0,0,0-.48.52,2.37,2.37,0,0,1-1.87,1.29,4.06,4.06,0,0,1-1.43-.08,1.7,1.7,0,0,1-1.2-.91,6.19,6.19,0,0,1-.63-1.92,19.89,19.89,0,0,1-.3-3.17c0-.27,0-.53,0-.79a.63.63,0,0,0-.08-.23,8.48,8.48,0,0,1-1.08-3.66c0-.66,0-1.32,0-2,0-.1,0-.16-.12-.2A3,3,0,0,1,1.73,7.54c0-.43.16-.85.24-1.28A3,3,0,0,0,2,5.84,1.32,1.32,0,0,1,3.08,4.69c.4-.09.8-.25,1.2-.38,0,0,.06-.09.08-.13A.78.78,0,0,1,5.1,3.6.69.69,0,0,1,5.88,4a.33.33,0,0,0,.28.23,3.11,3.11,0,0,1,1.61.87A.5.5,0,0,0,8,5.26a1.91,1.91,0,0,1,1.23.59,1.66,1.66,0,0,1,.45,1.37A2.53,2.53,0,0,1,9,8.74ZM5,17.05h.05c0,.25,0,.49,0,.74.08.94.15,1.88.27,2.82A5,5,0,0,0,6,22.53a1.27,1.27,0,0,0,.6.59,3.13,3.13,0,0,0,2.07.12A2,2,0,0,0,10,22.15a1.46,1.46,0,0,0-.66-2,1.73,1.73,0,0,1-1-1.38,2.44,2.44,0,0,1,.18-1.25A2.61,2.61,0,0,0,8.6,16.2a.85.85,0,0,0-.82-.83c-.38,0-.75-.16-1.12-.22a1.21,1.21,0,0,0-1.4.81A10.08,10.08,0,0,0,5,17.05ZM4.1,5.8c0,.27-.09.53-.12.78a.56.56,0,0,0,0,.29,1,1,0,0,1,.07.85A.51.51,0,0,1,3.25,8,2.66,2.66,0,0,1,2.19,6.91s0,0-.06,0a4.27,4.27,0,0,0-.06,1.59,2.6,2.6,0,0,0,3.08,2.12,6,6,0,0,0,2.3-1.06c.23-.17.46-.36.72-.57l-.56-.85a3.38,3.38,0,0,1-.24-.41,2.46,2.46,0,0,1,.15-2.07.25.25,0,0,0-.07-.36,3.38,3.38,0,0,0-3.57-.48c.35.13.6.33.57.73C4.43,5.71,4.26,5.78,4.1,5.8Zm4.48,9.33c.34,0,.76,0,1.16-.11a3.26,3.26,0,0,0,.8-.26.9.9,0,0,0,.18-1.5,3.46,3.46,0,0,0-1.23-.68,8.67,8.67,0,0,1-1-.33c-.46-.23-.88-.53-1.31-.8a2.86,2.86,0,0,0-1.87-.57c-.73.1-1.14.41-1.19,1.15a2,2,0,0,0,.63,1.62A5.43,5.43,0,0,0,8.58,15.13ZM9,6a6,6,0,0,0-.55-.31c-.49-.2-.59-.15-.77.34l0,.08a2.08,2.08,0,0,0,.11,1.66c.2.35.45.66.69,1a1.91,1.91,0,0,0,.76-.87l-.45-.31L9,7.27l.27.14a.49.49,0,0,0-.16-.6A.53.53,0,0,1,9,6Zm-.91,4.53c-.08.33-.15.62-.21.92a.22.22,0,0,0,.06.18,7.8,7.8,0,0,0,.87.43c.56.21,1.14.39,1.69.57l0-.14a5.38,5.38,0,0,0-1.78-2.43.39.39,0,0,0-.53,0l.28.87,0,0Zm.55-1.27c.17.24.34.51.53.75s.52.58.78.89c.13.16.23.35.35.52s.09,0,.14.05,0-.08,0-.12a.77.77,0,0,1,.17-.67,2,2,0,0,1,1.11-.91c0-.39,0-.4-.36-.41Zm1.83,12.33c.33-.15.46-.4.31-.69a4.89,4.89,0,0,0-.55-.74,3.71,3.71,0,0,1-.27-.29,3.2,3.2,0,0,1-.52-2.51c.06-.2.1-.41.15-.62L9,17a.18.18,0,0,0-.09.1c-.09.27-.18.55-.25.83a1.55,1.55,0,0,0,.87,2,1.71,1.71,0,0,1,.53.44A1.75,1.75,0,0,1,10.46,21.58ZM4.14,5.44c0-.26-.22-.32-.41-.39A1,1,0,0,0,2.32,6,2,2,0,0,0,3.49,7.8a.24.24,0,0,0,.24-.07A.61.61,0,0,0,3.67,7a1.57,1.57,0,0,1-.46-1.1.46.46,0,0,1,.46-.46A3.86,3.86,0,0,1,4.14,5.44ZM6,14.88a4.26,4.26,0,0,1-2-1.77,8.41,8.41,0,0,0,.9,3.07A1.81,1.81,0,0,1,6,14.88Zm2.76.57L9,16.68a3.44,3.44,0,0,0,1.36-1.44ZM6.46,10.73c.2.08.36.27.58.17a1.83,1.83,0,0,0,.58-.36c.22-.22.31-.49.06-.63ZM5.6,4.16a.4.4,0,0,0-.46-.26c-.19,0-.39.09-.47.31ZM3.85,11.5l.41-.6-.36-.06,0,.15C3.86,11.16,3.86,11.33,3.85,11.5Zm3.83-.59-.4.25.29.18Z"/><path d="M11.38,17.74c-.06-.35-.15-.7-.18-1a1,1,0,0,1,.15-.53.39.39,0,0,1,.46-.13c.24.07.28.26.3.48h.07c.27-.11.46-.07.59.14a.43.43,0,0,1-.14.61,3.59,3.59,0,0,1-.62.31A6.24,6.24,0,0,1,11.38,17.74Z"/><path d="M15.33,13.91c-.26-.17-.52-.32-.75-.5a1.37,1.37,0,0,1-.33-.35.46.46,0,0,1,.09-.6.42.42,0,0,1,.57,0l.07.06s0,0,0-.06c.12-.27.29-.38.51-.32a.46.46,0,0,1,.35.57,2.94,2.94,0,0,1-.24.62A5.86,5.86,0,0,1,15.33,13.91Z"/><path d="M7.86,3.59c-.27-.18-.54-.33-.78-.51a1.27,1.27,0,0,1-.3-.35.44.44,0,0,1,.09-.59.42.42,0,0,1,.56,0l.09.08c.06-.2.15-.37.37-.4a.43.43,0,0,1,.5.4,4.27,4.27,0,0,1-.15.67A.6.6,0,0,1,8.18,3Z"/><path d="M6.3,16.63a.5.5,0,0,1,.49-.54.51.51,0,0,1,.48.54.53.53,0,0,1-.49.56A.51.51,0,0,1,6.3,16.63Z"/><path d="M7,6.86c0,.13,0,.26-.21.26s-.39-.24-.39-.47,0-.26.21-.27S7,6.6,7,6.86Z"/><path d="M5.69,12.29a.39.39,0,0,1-.35.44.62.62,0,0,1-.54-.6.4.4,0,0,1,.38-.44A.58.58,0,0,1,5.69,12.29Z"/></g><path class="cls-4" d="M9,9.08a20.92,20.92,0,0,0,2.86.18c-.08-.41-.14-.8-.24-1.18-.16-.64-.34-1.27-.51-1.91a.47.47,0,0,0-.31-.34,5.51,5.51,0,0,1-.7-.31A3.46,3.46,0,0,1,9.46,5a.67.67,0,0,1,0-1c.24-.25.54-.25.89,0,0,0,0,0,.06,0a.71.71,0,0,1,.39-.63.68.68,0,0,1,.93.62,2.18,2.18,0,0,1-.26,1.18,1.12,1.12,0,0,0,0,.88c.29,1,.54,2,.78,3,0-.06,0-.11,0-.16.1-1.18.2-2.35.31-3.52a2.7,2.7,0,0,1,.1-.58.8.8,0,0,0-.11-.69c-.2-.36-.42-.71-.61-1.08A2.62,2.62,0,0,1,11.59,2a1,1,0,0,1,.89-1,.88.88,0,0,1,1,.78.25.25,0,0,1,0,.08l.07.06a.48.48,0,0,1,.08-.16.88.88,0,0,1,1.15-.19,1,1,0,0,1,.39,1.18,2,2,0,0,1-.73.89c-.38.28-.79.52-1.19.77a.5.5,0,0,0-.25.36,25.22,25.22,0,0,0-.45,4.67c0,.1.09.2.16.36.16-.57.29-1.05.43-1.54l0-.1a2.42,2.42,0,0,0,.28-1.43.45.45,0,0,1,.31-.54c.32-.11.54.07.58.49l.15-.06a.43.43,0,0,1,.49.67,2.49,2.49,0,0,1-.58.37c-.2.09-.44.11-.64.2a.41.41,0,0,0-.23.22c-.18.64-.35,1.28-.51,1.93a.78.78,0,0,0,0,.34c0,.13,0,.25-.1.33s-.05.1-.06.15a17.64,17.64,0,0,0-.26,2.93l-.47,0V11.41c-.51.19-1,.2-1.41.61.12.33.25.7.39,1.07,0,.07.12.13.19.19a.94.94,0,0,1,.12,1.49,4.19,4.19,0,0,0-.59.81,1.69,1.69,0,0,1-.23.36,3.64,3.64,0,0,0-.72,2.12,2.57,2.57,0,0,0,.81,2.12,3,3,0,0,1,.55.74A.78.78,0,0,1,10.9,22a1.23,1.23,0,0,0-.48.53,2.38,2.38,0,0,1-1.87,1.29,4.06,4.06,0,0,1-1.43-.08,1.76,1.76,0,0,1-1.21-.91,6.46,6.46,0,0,1-.63-1.92A21.12,21.12,0,0,1,5,17.74c0-.26,0-.52,0-.78a.63.63,0,0,0-.08-.23A8.64,8.64,0,0,1,3.8,13.07c0-.66,0-1.32,0-2,0-.1,0-.16-.12-.21A3,3,0,0,1,1.93,7.74c0-.43.16-.85.24-1.28,0-.14,0-.28.06-.42a1.31,1.31,0,0,1,1-1.15c.41-.09.81-.25,1.21-.38a.37.37,0,0,0,.08-.14.79.79,0,0,1,.74-.58.71.71,0,0,1,.78.43.33.33,0,0,0,.28.23A3.15,3.15,0,0,1,8,5.32a.54.54,0,0,0,.27.14,1.94,1.94,0,0,1,1.23.59,1.68,1.68,0,0,1,.45,1.36,2.59,2.59,0,0,1-.75,1.53ZM5.22,17.25h0l.06.74c.08.94.15,1.88.27,2.82a4.83,4.83,0,0,0,.62,1.91,1.3,1.3,0,0,0,.59.59,3.23,3.23,0,0,0,2.08.12,2,2,0,0,0,1.3-1.1,1.46,1.46,0,0,0-.66-2,1.76,1.76,0,0,1-1-1.39,2.64,2.64,0,0,1,.18-1.24A2.51,2.51,0,0,0,8.8,16.4.85.85,0,0,0,8,15.57c-.37-.06-.74-.16-1.11-.22a1.21,1.21,0,0,0-1.4.81A9.58,9.58,0,0,0,5.22,17.25ZM4.3,6c0,.27-.09.52-.12.78a.52.52,0,0,0,0,.28,1,1,0,0,1,.07.86.51.51,0,0,1-.83.31A2.66,2.66,0,0,1,2.39,7.11s0,0-.06-.05a4.06,4.06,0,0,0-.06,1.59,2.6,2.6,0,0,0,3.07,2.12A5.94,5.94,0,0,0,7.65,9.71c.23-.17.46-.36.72-.57l-.56-.85a2.44,2.44,0,0,1-.24-.41,2.46,2.46,0,0,1,.15-2.07.26.26,0,0,0-.08-.37A3.37,3.37,0,0,0,4.08,5c.35.13.6.33.57.73C4.63,5.91,4.46,6,4.3,6Zm4.48,9.33c.34,0,.75,0,1.16-.11a3.05,3.05,0,0,0,.79-.26.89.89,0,0,0,.19-1.5,3.46,3.46,0,0,0-1.23-.68,10.15,10.15,0,0,1-1-.33c-.46-.24-.88-.53-1.31-.81a2.89,2.89,0,0,0-1.87-.56c-.74.09-1.14.4-1.19,1.15a2,2,0,0,0,.63,1.62A5.41,5.41,0,0,0,8.78,15.33Zm.41-9.14a5.09,5.09,0,0,0-.55-.31c-.49-.2-.59-.15-.77.34l0,.08A2,2,0,0,0,8,8a10.51,10.51,0,0,0,.69,1,2.09,2.09,0,0,0,.76-.87L9,7.78l.21-.32.27.15A.49.49,0,0,0,9.27,7,.53.53,0,0,1,9.19,6.19Zm-.91,4.53c-.08.33-.16.62-.21.92a.23.23,0,0,0,.06.18,7,7,0,0,0,.87.43c.56.21,1.14.38,1.69.57l0-.14a5.39,5.39,0,0,0-1.78-2.43.39.39,0,0,0-.53,0l.28.87h0Zm.55-1.27c.17.24.33.51.53.75s.52.58.77.88.24.36.36.53.09,0,.14.05,0-.08,0-.12a.8.8,0,0,1,.16-.67A2.05,2.05,0,0,1,11.94,10c0-.39,0-.4-.36-.41Zm1.83,12.33c.32-.15.46-.4.31-.69a4.89,4.89,0,0,0-.55-.74,3.71,3.71,0,0,1-.27-.29,3.2,3.2,0,0,1-.52-2.51c.06-.21.1-.42.15-.63l-.59.28a.18.18,0,0,0-.09.1c-.09.27-.18.54-.25.82a1.56,1.56,0,0,0,.87,2,1.71,1.71,0,0,1,.53.44A1.8,1.8,0,0,1,10.66,21.78ZM4.34,5.64c0-.26-.22-.32-.41-.39a1,1,0,0,0-1.41,1A2,2,0,0,0,3.69,8a.26.26,0,0,0,.24-.06.6.6,0,0,0-.06-.75,1.59,1.59,0,0,1-.46-1.1.45.45,0,0,1,.46-.46A3.86,3.86,0,0,1,4.34,5.64Zm1.81,9.44a4.27,4.27,0,0,1-2-1.77,8.41,8.41,0,0,0,.9,3.07A1.81,1.81,0,0,1,6.15,15.08Zm2.76.56.29,1.24a3.56,3.56,0,0,0,1.36-1.44ZM6.66,10.92c.2.09.36.27.58.18a2,2,0,0,0,.58-.36c.22-.22.3-.49.06-.63ZM5.79,4.35a.38.38,0,0,0-.45-.25.52.52,0,0,0-.48.31ZM4.05,11.7l.41-.6L4.1,11l0,.15C4.06,11.36,4.06,11.52,4.05,11.7Zm3.83-.59-.4.25.29.18Z"/><path class="cls-4" d="M11.58,17.94a9.85,9.85,0,0,1-.18-1,1,1,0,0,1,.15-.53.36.36,0,0,1,.45-.13c.24.07.29.26.31.48h.07c.27-.11.46-.07.58.14a.43.43,0,0,1-.13.61,3,3,0,0,1-.62.3A4.34,4.34,0,0,1,11.58,17.94Z"/><path class="cls-4" d="M15.53,14.11c-.26-.17-.52-.32-.75-.5a1.37,1.37,0,0,1-.33-.35.46.46,0,0,1,.09-.6.42.42,0,0,1,.57,0l.07.06,0-.06q.18-.4.51-.33a.47.47,0,0,1,.35.57,2.82,2.82,0,0,1-.24.63A5.86,5.86,0,0,1,15.53,14.11Z"/><path class="cls-4" d="M8.06,3.79c-.28-.18-.54-.33-.78-.51A1.27,1.27,0,0,1,7,2.93a.43.43,0,0,1,.09-.59.42.42,0,0,1,.56,0l.09.07c.06-.19.14-.36.37-.39a.41.41,0,0,1,.49.39,3.29,3.29,0,0,1-.14.68.6.6,0,0,1-.06.11Z"/><path class="cls-4" d="M6.5,16.83A.49.49,0,0,1,7,16.29a.51.51,0,0,1,.48.54.53.53,0,0,1-.49.56A.51.51,0,0,1,6.5,16.83Z"/><path class="cls-4" d="M7.2,7.06c0,.13,0,.26-.21.26s-.4-.24-.39-.47,0-.26.2-.27S7.19,6.79,7.2,7.06Z"/><path class="cls-4" d="M5.89,12.48a.4.4,0,0,1-.35.45.61.61,0,0,1-.54-.6.39.39,0,0,1,.38-.44A.57.57,0,0,1,5.89,12.48Z"/></g></g></svg>