<svg xmlns="http://www.w3.org/2000/svg" viewBox="0 0 38.55 24.66"><defs><style>.cls-1{isolation:isolate;}.cls-2{opacity:0.15;}.cls-2,.cls-3{mix-blend-mode:multiply;}.cls-4{fill:#fff;}</style></defs><title>convert-CUSTOMIZE-SVG-03</title><g class="cls-1"><g id="Layer_1" data-name="Layer 1"><g class="cls-2"><path d="M10.56,17.55a3.11,3.11,0,0,0-1.33-1.06c-.83-.41-1.67-.82-2.47-1.28a8.19,8.19,0,0,1-1.19-.94,2.84,2.84,0,0,1-.27-4A3.27,3.27,0,0,1,7.21,9a2.17,2.17,0,0,1,2.06.66,7.68,7.68,0,0,1,.82,1.06,5.5,5.5,0,0,1,.3.5c.09-.24.17-.45.24-.66a2.33,2.33,0,0,1,2-1.62,2.66,2.66,0,0,1,3.09,2.21,2,2,0,0,1-.94,2.33,14.85,14.85,0,0,0-4,3.71Z"/><path d="M12.6,16.49l.21-.17.16.15,5,4.89a.23.23,0,0,0,.29.06A.69.69,0,0,1,19,22.54a.71.71,0,0,1-.86.11.68.68,0,0,1-.28-.83.22.22,0,0,0-.06-.27l-5.16-5-.07-.05Z"/><path d="M7.41,16.68l.24.12L3,21.64c.17.5.1.81-.22,1a.71.71,0,0,1-.86-.11.7.7,0,0,1-.09-.86.73.73,0,0,1,1-.21Z"/><path d="M6.45,8.28l-.24.11-1.6-2L2.78,4a.24.24,0,0,0-.27-.1.68.68,0,0,1-.76-.39.7.7,0,0,1,1.1-.8A.67.67,0,0,1,3,3.56c-.1.14-.06.22,0,.34L6.35,8.14Z"/><path d="M14.63,8.32l-.24-.11L18,3.69a.7.7,0,0,1,.85-1.08.69.69,0,0,1,.33.86.66.66,0,0,1-.8.42c-.16-.05-.22,0-.31.12L14.81,8.1Z"/><path d="M12.6,16.49a1,1,0,0,0,.09.18l2.79,4.56c.06.11.12.17.26.15a.67.67,0,0,1,.75.47.69.69,0,0,1-.31.81.71.71,0,0,1-.85-.13.69.69,0,0,1-.05-.89l.08-.11-2.95-4.81.19-.23Z"/><path d="M13.1,16c.1-.19.22-.17.37-.07l4.31,2.76.24.15a.75.75,0,0,1,.77-.16.69.69,0,1,1-.94.54c0-.14,0-.19-.13-.26l-4.43-2.83Z"/><path d="M5.41,21.46,8.15,17l.24.11L7.05,19.31c-.46.73-.91,1.46-1.36,2.19a.39.39,0,0,0,0,.26.71.71,0,0,1-.24.87.7.7,0,0,1-.87-.08.69.69,0,0,1,.74-1.13Z"/><path d="M10.3,9.22V4.12a.25.25,0,0,0-.17-.28.67.67,0,0,1-.38-.77.71.71,0,0,1,.68-.53.68.68,0,0,1,.67.53.64.64,0,0,1-.37.77c-.16.07-.18.16-.18.31,0,1.52,0,3,0,4.57A.51.51,0,0,1,10.3,9.22Z"/><path d="M5.23,3.9a.73.73,0,0,1-.86-.44.71.71,0,0,1,.33-.84.69.69,0,0,1,.86.16.74.74,0,0,1-.09,1L7.68,8c-.17.07-.27.05-.36-.12C6.67,6.63,6,5.37,5.35,4.11A2,2,0,0,1,5.23,3.9Z"/><path d="M15.46,3.83a.74.74,0,0,1-.31-.72.7.7,0,0,1,1.37,0,.64.64,0,0,1-.5.76c-.3,0-.41.21-.53.44-.63,1.17-1.27,2.33-1.89,3.5a.25.25,0,0,1-.37.13Z"/><path d="M9.15,8.42a.38.38,0,0,1-.34-.33c-.34-1.38-.68-2.76-1-4.14l-.22-.06A.68.68,0,0,1,7,3.21a.7.7,0,0,1,.56-.66.68.68,0,0,1,.75.35.67.67,0,0,1-.15.84.27.27,0,0,0-.12.34c.36,1.38.7,2.76,1,4.15Z"/><path d="M3,18.94a3.4,3.4,0,0,1,0,.64.67.67,0,0,1-.88.44.68.68,0,0,1-.43-.85.65.65,0,0,1,.86-.45A.4.4,0,0,0,3,18.64L6.31,16.3c.16-.11.28-.13.41,0Z"/><path d="M11.61,8.28c.17-.66.35-1.31.52-2s.41-1.54.62-2.31a.21.21,0,0,0-.07-.27.66.66,0,0,1-.16-.84.69.69,0,0,1,1.3.36.63.63,0,0,1-.56.64c-.21,0-.26.13-.3.3-.33,1.26-.68,2.51-1,3.77A.36.36,0,0,1,11.61,8.28Z"/><path d="M11.83,17.44l1,3.95.23,0a.69.69,0,0,1,.7.47.7.7,0,0,1-.28.8.71.71,0,0,1-.86-.09.67.67,0,0,1-.11-.83.43.43,0,0,0,0-.38l-.9-3.45A.37.37,0,0,1,11.83,17.44Z"/><path d="M9.19,17.55c.2.05.22.15.15.33q-.64,1.76-1.29,3.54l.15.13a.69.69,0,0,1,.13.85A.69.69,0,0,1,7,22a.67.67,0,0,1,.58-.63c.15,0,.2-.09.24-.21l1.25-3.41A1.8,1.8,0,0,1,9.19,17.55Z"/><path d="M14,15.29a.29.29,0,0,1,.4-.13l3.35,1.11c.13,0,.21.06.32-.07a.66.66,0,0,1,.83-.12.68.68,0,0,1,.34.75.68.68,0,0,1-.68.53.62.62,0,0,1-.65-.51c0-.26-.18-.32-.38-.38l-3.33-1.1Z"/><path d="M15.44,8.93l-.18-.17,1.46-1.35,1.06-1a.25.25,0,0,0,.1-.32.66.66,0,0,1,.45-.85.69.69,0,0,1,.86.45.65.65,0,0,1-.44.85.91.91,0,0,1-.49,0,.24.24,0,0,0-.29.07L15.62,8.77Z"/><path d="M2.82,6.47a.74.74,0,0,1-.69.09.68.68,0,0,1-.39-.87.68.68,0,0,1,.85-.43.67.67,0,0,1,.46.83c-.06.16,0,.24.11.34L5.71,8.65l-.22.15Z"/><path d="M5.58,15.56l-2.49.92a2,2,0,0,1,0,.37.65.65,0,0,1-.64.51.66.66,0,0,1-.68-.47.68.68,0,0,1,1.09-.74.26.26,0,0,0,.31,0c.68-.25,1.35-.49,2-.75C5.33,15.37,5.46,15.36,5.58,15.56Z"/><path d="M15.61,14.11a.53.53,0,0,1,.46-.26h1.61a.2.2,0,0,0,.22-.14.69.69,0,0,1,.78-.41.69.69,0,0,1,0,1.36.67.67,0,0,1-.76-.41c0-.13-.13-.15-.25-.15h-2Z"/><path d="M16.28,10l-.13-.22,1.54-1a.33.33,0,0,0,.14-.22.72.72,0,0,1,.62-.68.7.7,0,0,1,.73.45.69.69,0,0,1-.28.83A.7.7,0,0,1,18,9.07L17.93,9Z"/><path d="M3.06,8.84l1.49.85L4.4,9.9,2.94,9.07c-.47.29-.79.29-1,0A.69.69,0,0,1,2.63,8,.73.73,0,0,1,3.06,8.84Z"/><path d="M10.61,19.62v1.76a.72.72,0,0,1,.49.51.69.69,0,1,1-1.35.31.75.75,0,0,1,.43-.78.21.21,0,0,0,.16-.23,3.26,3.26,0,0,1,.21-1.45,1.17,1.17,0,0,1,0-.11Z"/><path d="M16.73,11.93v-.27c.27-.07.54-.16.81-.22a.36.36,0,0,0,.34-.32.64.64,0,0,1,.72-.51A.69.69,0,0,1,18.74,12a.72.72,0,0,1-.84-.35Z"/><path d="M4.1,14c-.29,0-.57.06-.85.07-.11,0-.17,0-.21.15a.69.69,0,0,1-.74.48A.72.72,0,0,1,1.69,14a.7.7,0,0,1,.51-.72.67.67,0,0,1,.8.36.2.2,0,0,0,.23.12c.19,0,.39,0,.59-.05S4.07,13.79,4.1,14Z"/><path d="M3.73,11.39l0,.24-.64-.16a.7.7,0,0,1-.7.51.68.68,0,0,1-.23-1.32.63.63,0,0,1,.82.27.63.63,0,0,0,.54.38Z"/><path d="M10.76,17.75a3.17,3.17,0,0,0-1.33-1.06c-.83-.41-1.67-.82-2.47-1.28a8.94,8.94,0,0,1-1.19-.94,2.82,2.82,0,0,1-.27-4A3.27,3.27,0,0,1,7.4,9.24a2.2,2.2,0,0,1,2.07.65A8.43,8.43,0,0,1,10.29,11a5.5,5.5,0,0,1,.3.5c.09-.24.17-.45.24-.66a2.33,2.33,0,0,1,2-1.62,2.67,2.67,0,0,1,3.09,2.21A2,2,0,0,1,15,13.72a14.85,14.85,0,0,0-4,3.71C10.91,17.53,10.84,17.62,10.76,17.75Z"/><path d="M12.8,16.68l.2-.16.17.15,5,4.88a.22.22,0,0,0,.29.07.67.67,0,0,1,.83.26.7.7,0,0,1-.08.86.71.71,0,0,1-.86.11.68.68,0,0,1-.29-.83.2.2,0,0,0,0-.27l-5.16-5-.07-.06Z"/><path d="M7.61,16.88l.24.12L3.17,21.84c.17.5.1.81-.23,1a.69.69,0,0,1-.94-1,.72.72,0,0,1,1-.21Z"/><path d="M6.65,8.48l-.24.1-1.6-2C4.2,5.77,3.58,5,3,4.2a.24.24,0,0,0-.27-.1A.67.67,0,0,1,2,3.7a.7.7,0,0,1,.22-.83.71.71,0,0,1,.88,0,.67.67,0,0,1,.14.85c-.1.14-.06.22,0,.34L6.54,8.34Z"/><path d="M14.83,8.52l-.24-.11L18.2,3.89a.72.72,0,0,1,0-.86A.69.69,0,0,1,19,2.81a.68.68,0,0,1,.34.86.67.67,0,0,1-.8.42.24.24,0,0,0-.31.12L15,8.29C15,8.37,14.9,8.43,14.83,8.52Z"/><path d="M12.8,16.68a1.11,1.11,0,0,0,.09.19l2.79,4.56c.06.11.12.17.26.15a.66.66,0,0,1,.75.47.68.68,0,0,1-.31.8.69.69,0,0,1-.9-1,.76.76,0,0,1,.08-.11l-3-4.81.19-.24Z"/><path d="M13.29,16.24c.11-.19.22-.17.38-.07L18,18.93l.24.15a.75.75,0,0,1,.77-.16.69.69,0,0,1,.4.85.69.69,0,0,1-.81.47.68.68,0,0,1-.53-.78c0-.15,0-.19-.13-.26l-4.44-2.84Z"/><path d="M5.61,21.66l2.74-4.43.24.1L7.25,19.5c-.46.73-.91,1.46-1.36,2.2a.34.34,0,0,0,0,.26.7.7,0,0,1-.24.86.69.69,0,1,1-.14-1.21Z"/><path d="M10.5,9.42V9.17c0-1.62,0-3.23,0-4.85,0-.14,0-.22-.17-.28A.67.67,0,0,1,10,3.27a.71.71,0,0,1,.68-.54.69.69,0,0,1,.67.54.65.65,0,0,1-.37.77.27.27,0,0,0-.18.3c0,1.53,0,3.05,0,4.57A.51.51,0,0,1,10.5,9.42Z"/><path d="M5.43,4.1a.73.73,0,0,1-.86-.44.7.7,0,0,1,.33-.84A.69.69,0,0,1,5.76,3c.24.28.21.63-.09,1L7.88,8.22c-.18.07-.27,0-.36-.12-.65-1.27-1.32-2.53-2-3.79C5.51,4.24,5.47,4.18,5.43,4.1Z"/><path d="M15.66,4a.75.75,0,0,1-.31-.73A.7.7,0,0,1,16,2.73a.69.69,0,0,1,.67.59.63.63,0,0,1-.49.76c-.3,0-.41.21-.53.44C15.06,5.68,14.42,6.85,13.8,8a.25.25,0,0,1-.38.14Z"/><path d="M9.35,8.61A.36.36,0,0,1,9,8.29c-.34-1.38-.69-2.76-1-4.14l-.22-.06a.69.69,0,0,1-.53-.68.7.7,0,0,1,.56-.66.69.69,0,0,1,.75.35.66.66,0,0,1-.16.84.27.27,0,0,0-.11.33c.36,1.39.7,2.77,1,4.16A1.16,1.16,0,0,1,9.35,8.61Z"/><path d="M3.24,19.14a2.67,2.67,0,0,1,0,.64.67.67,0,0,1-.87.44.69.69,0,0,1-.44-.85.66.66,0,0,1,.87-.45.4.4,0,0,0,.43-.08L6.51,16.5c.16-.12.27-.13.41,0Z"/><path d="M11.81,8.48c.17-.67.34-1.32.52-2S12.74,5,13,4.21a.22.22,0,0,0-.07-.27.66.66,0,0,1-.16-.84.69.69,0,0,1,1.3.36.65.65,0,0,1-.56.64c-.21,0-.26.13-.3.3-.33,1.26-.68,2.51-1,3.77A.36.36,0,0,1,11.81,8.48Z"/><path d="M12,17.63l1,4,.23,0A.68.68,0,0,1,14,22a.69.69,0,0,1-1.14.71.66.66,0,0,1-.12-.83.4.4,0,0,0,0-.38c-.3-1.15-.6-2.3-.91-3.45A.4.4,0,0,1,12,17.63Z"/><path d="M9.39,17.75c.2.05.22.15.15.33-.44,1.17-.86,2.35-1.3,3.54l.16.13a.69.69,0,0,1,.13.85.7.7,0,0,1-.8.32.72.72,0,0,1-.5-.71.69.69,0,0,1,.59-.63c.15,0,.2-.09.24-.21.41-1.14.83-2.28,1.24-3.41Z"/><path d="M14.17,15.49a.29.29,0,0,1,.4-.14l3.34,1.12c.13,0,.22.06.33-.07a.67.67,0,0,1,.83-.13.7.7,0,0,1,.34.76.69.69,0,0,1-.68.53.63.63,0,0,1-.66-.51c0-.26-.17-.32-.37-.38l-3.33-1.11Z"/><path d="M15.64,9.13,15.46,9,16.92,7.6l1.06-1a.25.25,0,0,0,.1-.32.68.68,0,0,1,.44-.86.71.71,0,0,1,.87.45.66.66,0,0,1-.44.86.91.91,0,0,1-.49,0,.26.26,0,0,0-.29.06L15.82,9Z"/><path d="M3,6.67a.75.75,0,0,1-.69.09.7.7,0,0,1-.4-.88.72.72,0,0,1,.86-.43.69.69,0,0,1,.46.84.25.25,0,0,0,.11.33L5.9,8.85,5.68,9Z"/><path d="M5.78,15.76l-2.49.92a2,2,0,0,1,0,.37.65.65,0,0,1-.65.51.66.66,0,0,1-.67-.47A.68.68,0,0,1,3,16.35a.26.26,0,0,0,.31,0c.67-.25,1.35-.49,2-.75C5.53,15.57,5.66,15.56,5.78,15.76Z"/><path d="M15.8,14.31a.56.56,0,0,1,.47-.26h1.61a.19.19,0,0,0,.22-.14.68.68,0,0,1,.77-.4.69.69,0,0,1,0,1.35.66.66,0,0,1-.76-.4c-.05-.14-.13-.15-.25-.15H15.8Z"/><path d="M16.47,10.21,16.34,10c.53-.33,1-.64,1.55-1A.33.33,0,0,0,18,8.8a.71.71,0,0,1,.61-.68.7.7,0,0,1,.74.45.67.67,0,0,1-.28.82.68.68,0,0,1-.89-.13l-.08-.08Z"/><path d="M3.26,9l1.48.85-.14.21L3.14,9.27c-.47.29-.79.29-1.05,0a.69.69,0,0,1,.74-1.13A.74.74,0,0,1,3.26,9Z"/><path d="M10.81,19.82v1.76a.72.72,0,0,1,.49.51.69.69,0,0,1-.51.84A.71.71,0,0,1,10,22.4a.73.73,0,0,1,.43-.78.21.21,0,0,0,.15-.23,3.27,3.27,0,0,1,.22-1.45.61.61,0,0,1,.05-.12Z"/><path d="M16.93,12.12v-.26c.27-.07.54-.16.81-.22a.35.35,0,0,0,.33-.32.66.66,0,0,1,.73-.51.68.68,0,0,1,.62.62.67.67,0,0,1-.49.72.7.7,0,0,1-.83-.34Z"/><path d="M4.3,14.18c-.29,0-.57.06-.85.07a.18.18,0,0,0-.21.15.68.68,0,0,1-.74.47.69.69,0,0,1-.1-1.35.68.68,0,0,1,.8.35.19.19,0,0,0,.23.13c.19,0,.39,0,.59-.05S4.26,14,4.3,14.18Z"/><path d="M3.93,11.58l0,.25-.63-.16a.7.7,0,0,1-.7.51.68.68,0,0,1-.67-.56.71.71,0,0,1,.43-.77.65.65,0,0,1,.83.28.63.63,0,0,0,.54.38Z"/></g><g class="cls-3"><path d="M10.42,17.41a3.17,3.17,0,0,0-1.33-1.06c-.83-.41-1.67-.82-2.47-1.28a8.94,8.94,0,0,1-1.19-.94,2.82,2.82,0,0,1-.27-4A3.27,3.27,0,0,1,7.06,8.9a2.2,2.2,0,0,1,2.07.65A8.43,8.43,0,0,1,10,10.62a5.5,5.5,0,0,1,.3.5c.09-.24.17-.45.24-.66a2.33,2.33,0,0,1,2-1.62,2.67,2.67,0,0,1,3.09,2.21,2,2,0,0,1-.94,2.33,14.85,14.85,0,0,0-4,3.71C10.57,17.19,10.5,17.28,10.42,17.41Z"/><path d="M12.46,16.34l.2-.16.17.15,5,4.88a.22.22,0,0,0,.29.07.67.67,0,0,1,.83.26.7.7,0,0,1-.08.86.71.71,0,0,1-.86.11.68.68,0,0,1-.29-.83.2.2,0,0,0,0-.27l-5.16-5-.07-.06Z"/><path d="M7.27,16.54l.24.12L2.83,21.5c.17.5.1.81-.23,1a.69.69,0,0,1-.94-1,.72.72,0,0,1,1-.21Z"/><path d="M6.31,8.14l-.24.1-1.6-2c-.61-.78-1.23-1.56-1.83-2.35a.24.24,0,0,0-.27-.1.67.67,0,0,1-.76-.4.69.69,0,0,1,1.1-.79.67.67,0,0,1,.14.85c-.1.14-.06.22,0,.34L6.2,8Z"/><path d="M14.49,8.18l-.24-.11,3.61-4.53a.71.71,0,0,1,0-.85.69.69,0,0,1,.88-.22.68.68,0,0,1,.34.86.67.67,0,0,1-.8.42.24.24,0,0,0-.31.12L14.67,8Z"/><path d="M12.46,16.34a1.11,1.11,0,0,0,.09.19l2.79,4.56c.06.11.12.17.26.15a.66.66,0,0,1,.75.47.68.68,0,0,1-.31.8.69.69,0,0,1-.9-1,.76.76,0,0,1,.08-.11l-3-4.81.19-.24Z"/><path d="M13,15.9c.11-.19.22-.17.38-.07l4.31,2.76.24.15a.75.75,0,0,1,.77-.16.69.69,0,0,1,.4.85.69.69,0,0,1-.81.47.68.68,0,0,1-.53-.78c0-.15,0-.19-.13-.26L13.14,16Z"/><path d="M5.27,21.32,8,16.89l.24.1L6.91,19.16c-.46.73-.91,1.46-1.36,2.2a.34.34,0,0,0,0,.26.7.7,0,0,1-.24.86.69.69,0,1,1-.14-1.21Z"/><path d="M10.16,9.08V8.83c0-1.62,0-3.23,0-4.85,0-.14,0-.22-.17-.28a.67.67,0,0,1-.38-.77.71.71,0,0,1,.68-.54.69.69,0,0,1,.67.54.65.65,0,0,1-.37.77.27.27,0,0,0-.18.3c0,1.53,0,3.05,0,4.57A.51.51,0,0,1,10.16,9.08Z"/><path d="M5.09,3.76a.73.73,0,0,1-.86-.44.7.7,0,0,1,.33-.84.69.69,0,0,1,.86.16c.24.28.21.63-.09,1L7.54,7.88c-.18.07-.27,0-.36-.12C6.53,6.49,5.86,5.23,5.2,4,5.17,3.9,5.13,3.84,5.09,3.76Z"/><path d="M15.32,3.69A.75.75,0,0,1,15,3a.7.7,0,0,1,.69-.57.69.69,0,0,1,.67.59.64.64,0,0,1-.49.76c-.3,0-.41.21-.53.44-.63,1.16-1.27,2.33-1.89,3.49a.25.25,0,0,1-.38.14Z"/><path d="M9,8.27A.36.36,0,0,1,8.67,8c-.34-1.38-.69-2.76-1-4.14l-.22-.06a.69.69,0,0,1-.53-.68.7.7,0,0,1,.56-.66.69.69,0,0,1,.75.35A.66.66,0,0,1,8,3.6a.27.27,0,0,0-.11.33c.36,1.39.7,2.77,1,4.16A1.16,1.16,0,0,1,9,8.27Z"/><path d="M2.9,18.8a2.68,2.68,0,0,1,0,.64.67.67,0,0,1-.87.44A.69.69,0,0,1,1.58,19a.66.66,0,0,1,.87-.45.4.4,0,0,0,.43-.08l3.29-2.34c.16-.12.27-.14.41,0Z"/><path d="M11.47,8.14c.17-.67.34-1.32.52-2s.41-1.53.62-2.3a.22.22,0,0,0-.07-.27.66.66,0,0,1-.16-.84.69.69,0,0,1,1.3.36.66.66,0,0,1-.57.64c-.2,0-.25.13-.29.3-.33,1.26-.68,2.51-1,3.77A.36.36,0,0,1,11.47,8.14Z"/><path d="M11.68,17.29l1,4,.23,0a.68.68,0,0,1,.7.47.69.69,0,0,1-1.14.71.66.66,0,0,1-.12-.83.4.4,0,0,0,0-.38c-.3-1.15-.6-2.3-.91-3.45A.4.4,0,0,1,11.68,17.29Z"/><path d="M9.05,17.41c.2.05.22.15.15.33-.44,1.17-.86,2.35-1.3,3.54l.16.13a.69.69,0,0,1,.13.85.7.7,0,0,1-.8.32.72.72,0,0,1-.5-.71.69.69,0,0,1,.59-.63c.15,0,.2-.09.24-.21.41-1.14.83-2.28,1.24-3.41Z"/><path d="M13.83,15.15a.29.29,0,0,1,.4-.14l3.34,1.12c.13,0,.22.06.33-.07a.67.67,0,0,1,.83-.13.7.7,0,0,1,.34.76.69.69,0,0,1-.68.53.63.63,0,0,1-.66-.51c0-.26-.17-.32-.37-.38L14,15.22Z"/><path d="M15.3,8.79l-.18-.18,1.46-1.35,1.06-1A.24.24,0,0,0,17.73,6a.69.69,0,0,1,.45-.86.71.71,0,0,1,.87.45.66.66,0,0,1-.44.86.91.91,0,0,1-.49,0,.26.26,0,0,0-.29.06L15.48,8.63Z"/><path d="M2.68,6.33a.76.76,0,0,1-.7.09.71.71,0,0,1-.39-.88.72.72,0,0,1,.86-.43A.69.69,0,0,1,2.91,6,.25.25,0,0,0,3,6.28L5.56,8.51l-.22.15Z"/><path d="M5.44,15.42,3,16.34a2,2,0,0,1,0,.37.65.65,0,0,1-.65.51.66.66,0,0,1-.67-.47A.68.68,0,0,1,2.68,16a.26.26,0,0,0,.31,0c.67-.25,1.35-.49,2-.75C5.19,15.23,5.32,15.22,5.44,15.42Z"/><path d="M15.46,14a.56.56,0,0,1,.47-.26h1.61a.19.19,0,0,0,.22-.14.68.68,0,0,1,.77-.4.69.69,0,0,1,0,1.35.66.66,0,0,1-.76-.4c-.05-.14-.13-.15-.25-.15H15.46Z"/><path d="M16.13,9.87,16,9.65c.53-.33,1-.64,1.55-1a.33.33,0,0,0,.14-.22.71.71,0,0,1,.61-.68.7.7,0,0,1,.74.45.67.67,0,0,1-.28.82.68.68,0,0,1-.89-.13l-.08-.08Z"/><path d="M2.92,8.7l1.48.85-.14.21L2.8,8.93c-.47.28-.79.29-1,0a.69.69,0,0,1,.74-1.13A.75.75,0,0,1,2.92,8.7Z"/><path d="M10.47,19.48v1.76a.72.72,0,0,1,.49.51.69.69,0,0,1-.51.84.71.71,0,0,1-.84-.53.72.72,0,0,1,.43-.78.21.21,0,0,0,.15-.23,3.27,3.27,0,0,1,.22-1.45.61.61,0,0,1,.05-.12Z"/><path d="M16.59,11.78v-.26c.27-.07.54-.16.81-.22a.35.35,0,0,0,.33-.32.66.66,0,0,1,.73-.51.68.68,0,0,1,.62.62.67.67,0,0,1-.49.72.7.7,0,0,1-.83-.34Z"/><path d="M4,13.84c-.29,0-.57.06-.85.07a.18.18,0,0,0-.21.15.68.68,0,0,1-.74.47.69.69,0,0,1-.1-1.35.68.68,0,0,1,.8.35.19.19,0,0,0,.23.13c.19,0,.39,0,.58-.05S3.92,13.65,4,13.84Z"/><path d="M3.59,11.24l0,.25-.63-.16a.7.7,0,0,1-.7.51.68.68,0,0,1-.67-.56A.71.71,0,0,1,2,10.51a.65.65,0,0,1,.83.28.63.63,0,0,0,.54.38Z"/></g><path class="cls-4" d="M10.62,17.6a3.23,3.23,0,0,0-1.33-1.05c-.83-.42-1.67-.82-2.47-1.29a8.12,8.12,0,0,1-1.19-.93,2.82,2.82,0,0,1-.27-4A3.23,3.23,0,0,1,7.26,9.1a2.19,2.19,0,0,1,2.07.65,8.43,8.43,0,0,1,.82,1.07,5.5,5.5,0,0,1,.3.5c.09-.25.17-.45.24-.66a2.33,2.33,0,0,1,2-1.62,2.67,2.67,0,0,1,3.09,2.2,2,2,0,0,1-.94,2.34,14.69,14.69,0,0,0-4,3.71Z"/><path class="cls-4" d="M12.66,16.54l.2-.17.17.16,5,4.88a.22.22,0,0,0,.29.07.67.67,0,0,1,.83.26.68.68,0,0,1-.08.85.71.71,0,0,1-.86.12.68.68,0,0,1-.29-.83.2.2,0,0,0-.05-.27l-5.17-5-.06-.06Z"/><path class="cls-4" d="M7.46,16.74l.25.12L3,21.69c.17.5.1.82-.23,1A.71.71,0,0,1,2,22.6a.68.68,0,0,1-.09-.86.73.73,0,0,1,1-.22Z"/><path class="cls-4" d="M6.51,8.34l-.24.1-1.6-2c-.61-.79-1.23-1.57-1.84-2.35A.21.21,0,0,0,2.57,4,.69.69,0,0,1,2,2.73a.69.69,0,0,1,.88,0,.67.67,0,0,1,.14.84.24.24,0,0,0,0,.35Q4.75,6.08,6.4,8.2Z"/><path class="cls-4" d="M14.68,8.38l-.23-.12,3.61-4.52a.71.71,0,0,1,0-.85.68.68,0,0,1,.88-.22.69.69,0,0,1,.34.86.67.67,0,0,1-.8.42.24.24,0,0,0-.31.12L14.87,8.15Z"/><path class="cls-4" d="M12.66,16.54a1.11,1.11,0,0,0,.09.19l2.79,4.56c.06.11.11.17.26.15a.65.65,0,0,1,.75.47.69.69,0,0,1-.31.8.69.69,0,0,1-.9-1,.86.86,0,0,0,.07-.1l-2.94-4.81.19-.24Z"/><path class="cls-4" d="M13.15,16.1c.11-.19.22-.17.38-.07,1.43.93,2.87,1.84,4.31,2.76l.24.15a.74.74,0,0,1,.76-.16.69.69,0,0,1,.41.85.67.67,0,0,1-.81.46.66.66,0,0,1-.53-.77c0-.15,0-.2-.13-.26l-4.44-2.84Z"/><path class="cls-4" d="M5.46,21.52l2.75-4.43.24.1c-.46.74-.9,1.46-1.35,2.17l-1.35,2.2a.34.34,0,0,0,0,.26.71.71,0,0,1-.24.86.69.69,0,0,1-1-.92.69.69,0,0,1,.84-.29Z"/><path class="cls-4" d="M10.35,9.27V9c0-1.61,0-3.23,0-4.84,0-.14,0-.22-.18-.28a.67.67,0,0,1-.37-.77.7.7,0,0,1,.68-.54.69.69,0,0,1,.67.54.66.66,0,0,1-.37.77c-.17.06-.18.16-.18.3,0,1.53,0,3.05,0,4.57A.49.49,0,0,1,10.35,9.27Z"/><path class="cls-4" d="M5.29,4a.73.73,0,0,1-.86-.44.7.7,0,0,1,1.19-.68.75.75,0,0,1-.09,1L7.74,8.08c-.18.07-.27.05-.36-.13l-2-3.78C5.37,4.1,5.33,4,5.29,4Z"/><path class="cls-4" d="M15.52,3.89a.75.75,0,0,1-.31-.73.69.69,0,0,1,1.36,0,.63.63,0,0,1-.49.75c-.31,0-.41.22-.53.45-.63,1.16-1.27,2.32-1.89,3.49a.26.26,0,0,1-.38.14Z"/><path class="cls-4" d="M9.21,8.47a.35.35,0,0,1-.34-.32c-.34-1.38-.69-2.76-1-4.15L7.61,4a.69.69,0,0,1-.52-.68A.7.7,0,0,1,8.4,3a.66.66,0,0,1-.16.84.27.27,0,0,0-.11.33c.35,1.39.7,2.77,1,4.15A1.06,1.06,0,0,1,9.21,8.47Z"/><path class="cls-4" d="M3.1,19a2.75,2.75,0,0,1,0,.65.67.67,0,0,1-.87.44.69.69,0,0,1-.44-.85.67.67,0,0,1,.87-.46.38.38,0,0,0,.43-.07l3.28-2.34c.16-.12.28-.14.42,0Z"/><path class="cls-4" d="M11.66,8.34c.18-.67.35-1.32.53-2s.41-1.53.62-2.3a.22.22,0,0,0-.07-.27A.66.66,0,0,1,12.58,3a.68.68,0,0,1,.77-.35.67.67,0,0,1,.52.7.63.63,0,0,1-.56.64c-.21,0-.25.14-.29.31-.34,1.25-.68,2.51-1,3.77A.38.38,0,0,1,11.66,8.34Z"/><path class="cls-4" d="M11.88,17.49l1,4,.23,0a.68.68,0,0,1,.7.47.7.7,0,0,1-1.15.71.68.68,0,0,1-.11-.84.44.44,0,0,0,.05-.37c-.31-1.15-.6-2.3-.91-3.45A.39.39,0,0,1,11.88,17.49Z"/><path class="cls-4" d="M9.24,17.61c.21.05.22.15.16.33-.44,1.17-.86,2.35-1.3,3.53l.16.14a.69.69,0,0,1,.13.85.7.7,0,0,1-1.3-.39.67.67,0,0,1,.59-.63.26.26,0,0,0,.24-.21c.41-1.14.83-2.28,1.24-3.41Z"/><path class="cls-4" d="M14,15.35a.29.29,0,0,1,.4-.14l3.34,1.12a.27.27,0,0,0,.33-.07.67.67,0,0,1,.83-.13.69.69,0,0,1-.34,1.29.63.63,0,0,1-.66-.51c0-.26-.17-.32-.37-.39l-3.33-1.1Z"/><path class="cls-4" d="M15.5,9l-.18-.17,1.46-1.35,1.06-1a.25.25,0,0,0,.09-.32.69.69,0,0,1,.45-.86.7.7,0,0,1,.87.45.66.66,0,0,1-.44.86.91.91,0,0,1-.49,0,.26.26,0,0,0-.29.06L15.68,8.83Z"/><path class="cls-4" d="M2.88,6.53a.74.74,0,0,1-.7.08.69.69,0,0,1-.39-.87.71.71,0,0,1,.86-.43.67.67,0,0,1,.45.84.26.26,0,0,0,.11.33L5.76,8.71l-.22.15Z"/><path class="cls-4" d="M5.63,15.61l-2.48.93a2,2,0,0,1,0,.37.66.66,0,0,1-.65.51A.66.66,0,0,1,1.79,17a.69.69,0,0,1,.26-.79.71.71,0,0,1,.83,0,.25.25,0,0,0,.31.05l2-.76C5.38,15.43,5.52,15.42,5.63,15.61Z"/><path class="cls-4" d="M15.66,14.17a.56.56,0,0,1,.47-.26h1.61a.19.19,0,0,0,.22-.14.67.67,0,0,1,.77-.4.68.68,0,0,1,.55.68.68.68,0,0,1-.56.67.66.66,0,0,1-.76-.4c-.06-.14-.13-.15-.25-.15H15.66Z"/><path class="cls-4" d="M16.33,10.07l-.13-.22c.52-.33,1-.64,1.55-1a.35.35,0,0,0,.14-.22A.71.71,0,0,1,18.5,8a.7.7,0,0,1,.74.44.69.69,0,0,1-1.17.7L18,9Z"/><path class="cls-4" d="M3.12,8.9l1.48.84L4.45,10,3,9.13c-.48.28-.79.29-1,0A.69.69,0,0,1,2.69,8,.74.74,0,0,1,3.12,8.9Z"/><path class="cls-4" d="M10.67,19.68v1.76a.7.7,0,0,1,.49.51.69.69,0,0,1-.51.84.71.71,0,0,1-.84-.53.72.72,0,0,1,.43-.78.21.21,0,0,0,.15-.23,3.24,3.24,0,0,1,.21-1.45.61.61,0,0,0,.05-.12Z"/><path class="cls-4" d="M16.79,12v-.26c.27-.08.54-.16.81-.22a.35.35,0,0,0,.33-.32.65.65,0,0,1,.73-.51.69.69,0,0,1,.62.62.68.68,0,0,1-.49.72.7.7,0,0,1-.83-.34Z"/><path class="cls-4" d="M4.16,14l-.85.07a.18.18,0,0,0-.21.15.68.68,0,0,1-.74.47.69.69,0,0,1-.1-1.35.68.68,0,0,1,.8.35.19.19,0,0,0,.22.13c.2,0,.4,0,.59,0S4.12,13.85,4.16,14Z"/><path class="cls-4" d="M3.79,11.44l0,.25-.63-.17a.69.69,0,0,1-.7.52.69.69,0,0,1-.67-.56.71.71,0,0,1,.43-.77A.65.65,0,0,1,3,11a.62.62,0,0,0,.54.38Z"/></g></g></svg>