<svg xmlns="http://www.w3.org/2000/svg" viewBox="0 0 38.55 24.66"><defs><style>.cls-1{isolation:isolate;}.cls-2{opacity:0.15;}.cls-2,.cls-3{mix-blend-mode:multiply;}.cls-4{fill:#fff;}</style></defs><title>convert-CUSTOMIZE-SVG-03</title><g class="cls-1"><g id="Layer_1" data-name="Layer 1"><g class="cls-2"><path d="M6.65,17.75a5.87,5.87,0,0,1-.59-3.53c-.1,0-.18,0-.25.07a9.71,9.71,0,0,1-2.53.65,2,2,0,0,1-1.48-.39,1,1,0,0,1-.34-1.15,2.06,2.06,0,0,1,.69-1,13.24,13.24,0,0,1,3.68-2.08l.11,0-.07-.12a3.57,3.57,0,0,1-.09-3.81A6.21,6.21,0,0,1,7,4.84a.54.54,0,0,0,.15-.3,1.36,1.36,0,0,1,.64-1,2.38,2.38,0,0,1,.31-.17.78.78,0,0,1,1,.36,1.42,1.42,0,0,1,.05.48l.52.12a3.62,3.62,0,0,1,2.11,1.32,2.05,2.05,0,0,0,.63.58A4,4,0,0,1,13.2,7a1.3,1.3,0,0,1,.16,1.38c-.1.23-.21.45-.33.67a1.43,1.43,0,0,1-1,.81l-.18.07,0,.05c.5-.11,1-.18,1.51-.34a4.55,4.55,0,0,1,1.75-.21h.09a.79.79,0,0,0,0-.13c-.05-1-.1-2-.16-3A.45.45,0,0,0,14.92,6c-.47-.37-.95-.71-1.41-1.08a3.56,3.56,0,0,1-1-1.24,1.24,1.24,0,0,1,.2-1.54,1.16,1.16,0,0,1,1.74,0c.08.09.15.19.23.29l.06-.14a1.16,1.16,0,0,1,1.42-.88,1.28,1.28,0,0,1,1,1.49,4.78,4.78,0,0,1-1,2.11c-.21.29-.42.58-.62.88a.51.51,0,0,0-.07.3,18.89,18.89,0,0,1,.15,3.1.27.27,0,0,0,.14.19.78.78,0,0,1,.48.6,1.82,1.82,0,0,1-.6,1.79,1,1,0,0,0-.31.62c-.09.65-.2,1.29-.3,1.94l0,.07-.25-.06L15,12.41l-.21.11c-.54.27-1.08.54-1.63.79-.13.06-.15.12-.12.26a5.32,5.32,0,0,1,.06,2.57c-.06.23-.15.45-.23.67A.82.82,0,0,0,14,16.55a1.94,1.94,0,0,1,1.21-.69A1.31,1.31,0,0,1,16.6,17a5.86,5.86,0,0,1-.18,2.28c-.05.2-.13.4-.19.6a1.28,1.28,0,0,1-1.12.93,2.73,2.73,0,0,1-1.17-.08,12.73,12.73,0,0,0-1.61-.32,9.93,9.93,0,0,1-2.47-.61c-.17-.06-.34-.24-.52,0a.54.54,0,0,0-.08.73,1.9,1.9,0,0,1,.15,1.64,1.44,1.44,0,0,1-1.83,1,4.31,4.31,0,0,1-2.26-1.53A1.56,1.56,0,0,1,5.15,20a5.83,5.83,0,0,1,1.35-2.1A.75.75,0,0,1,6.65,17.75ZM7.16,5.07l-.11.09a5.61,5.61,0,0,0-1.19,1.7A3.23,3.23,0,0,0,6.14,10a.2.2,0,0,0,.27.11A3.46,3.46,0,0,1,7.05,10l1.22-.1a6.23,6.23,0,0,1-.1-3.29l.24,0c0,.66-.11,1.3-.1,1.93a5.73,5.73,0,0,0,.22,1.14c0,.17.19.24.37.28.34.06.67.17,1,.25a.4.4,0,0,0,.24,0c.6-.24,1.19-.5,1.77-.75a5.87,5.87,0,0,1-.27-3.21h.19A3.47,3.47,0,0,0,9.1,4.52c-.26.54-.07,1.15-.38,1.66l-.25-.1.08,0a7.4,7.4,0,0,0,.07-1.15,1.23,1.23,0,0,1,.17-.84c0-.05.06-.15,0-.17a1.88,1.88,0,0,0-.43-.31s-.18.17-.22.28a2.77,2.77,0,0,0,0,1.43c.07.36.18.73.27,1.09a.4.4,0,0,1-.52-.09A3.51,3.51,0,0,1,7.16,5.07Zm-.49,8.78v.06c.87,0,1.73,0,2.6,0a1.27,1.27,0,0,0,1.22-1,5.6,5.6,0,0,0,.17-1.16,1,1,0,0,0-.46-1,2.33,2.33,0,0,0-.7-.36,5.33,5.33,0,0,0-3,0,11.59,11.59,0,0,0-4.25,2.27,1.56,1.56,0,0,0-.56.9.64.64,0,0,0,.23.7,1.74,1.74,0,0,0,1.27.37,8.17,8.17,0,0,0,3.67-1.29l.16-.1.16.22-.27.19Zm9.49,2.79a.92.92,0,0,0-.72-.49,1.46,1.46,0,0,0-1.28.62,1.1,1.1,0,0,1-1.19.39c-.61-.14-1.21-.3-1.82-.43A5.73,5.73,0,0,0,9,16.54a.93.93,0,0,0-.88.89,1.64,1.64,0,0,0,1.16,1.82c.4.15.8.3,1.21.43a10.92,10.92,0,0,0,1.37.33,14.46,14.46,0,0,1,2.36.45,1.68,1.68,0,0,0,1.26-.12c.06,0,.13-.1.13-.16.09-1,.17-1.95.27-2.92C15.91,17,15.91,16.78,16.16,16.64ZM6.35,14.18c0,.59,0,1.15,0,1.7a3.42,3.42,0,0,0,.73,1.95,2,2,0,0,0,.86.62c0-.18-.09-.34-.11-.5a2.09,2.09,0,0,1,0-.5A1.24,1.24,0,0,1,9,16.24a5.53,5.53,0,0,1,1.72.11l1.83.4a9.6,9.6,0,0,0,.29-1.05,5.38,5.38,0,0,0-.23-2.42c-.18-.6-.41-1.17-.62-1.76l-.07,0a.64.64,0,0,1,0,.24,1.51,1.51,0,0,1-.17.2,1,1,0,0,1-.17-.19c-.14-.26-.27-.53-.41-.81l-.29.17a3,3,0,0,1,.07,1.35,1.83,1.83,0,0,1-2,1.71l-1.88,0ZM6.83,18a5.75,5.75,0,0,0-1.42,2.2,1.22,1.22,0,0,0,.15,1.21,4.07,4.07,0,0,0,2,1.41A1.16,1.16,0,0,0,9.14,22,1.52,1.52,0,0,0,9,20.61a.79.79,0,0,1,0-.93l.09-.11-.87-.68a.24.24,0,0,0-.11-.06A2.63,2.63,0,0,1,6.83,18Zm5-7.72,1.15,2.84,1.62-.76c-1-.57-1.49-1.3-1.06-2.42ZM12,6.31l-.07.05A7.14,7.14,0,0,0,12,8.8a5.4,5.4,0,0,0,.25.67l.13,0a4.33,4.33,0,0,0,.3-.41A8,8,0,0,0,13,8.35a.65.65,0,0,0,0-.34c0-.29-.1-.58-.16-.86A.3.3,0,0,0,12.82,7ZM8,5.88a4.4,4.4,0,0,1-.15-2C7.22,4.27,7.28,5.13,8,5.88Zm2.86,4.44-.49.2c.37.42.41.43.63.17Zm.65-.09-.24.29.24.3C11.73,10.59,11.56,10.43,11.5,10.23Z"/><path d="M11.2,6.76s0,.15-.07.24-.25.19-.31,0a3.61,3.61,0,0,1-.13-.8c0-.12.11-.15.22-.08A.64.64,0,0,1,11.2,6.76Z"/><path d="M9.29,12.52a.58.58,0,1,1,0-1.15.58.58,0,1,1,0,1.15Z"/><path d="M9.33,17.56a.68.68,0,0,1,.65.61.47.47,0,0,1-.51.43A.66.66,0,0,1,8.82,18,.47.47,0,0,1,9.33,17.56Z"/><path d="M6.85,17.94a5.84,5.84,0,0,1-.59-3.52L6,14.49a10.05,10.05,0,0,1-2.52.65A2.05,2.05,0,0,1,2,14.74a.93.93,0,0,1-.34-1.14,2,2,0,0,1,.69-1A13.24,13.24,0,0,1,6,10.52l.1,0-.06-.11A3.57,3.57,0,0,1,6,6.55,6.26,6.26,0,0,1,7.16,5a.54.54,0,0,0,.15-.3,1.34,1.34,0,0,1,.64-1,1.87,1.87,0,0,1,.31-.17.77.77,0,0,1,1,.36,2.12,2.12,0,0,1,.05.47l.52.12A3.61,3.61,0,0,1,12,5.86a2.4,2.4,0,0,0,.64.59,4.32,4.32,0,0,1,.81.73,1.32,1.32,0,0,1,.16,1.38c-.1.23-.22.45-.33.67a1.43,1.43,0,0,1-1,.81L12,10.1l0,.06c.5-.11,1-.18,1.51-.34a4.53,4.53,0,0,1,1.75-.21h.09a.53.53,0,0,0,0-.12c0-1-.1-2-.16-3a.46.46,0,0,0-.17-.29c-.46-.37-.94-.71-1.4-1.08a3.8,3.8,0,0,1-1.05-1.24,1.26,1.26,0,0,1,.21-1.54,1.16,1.16,0,0,1,1.74,0,3.67,3.67,0,0,1,.23.29l.06-.14a1.15,1.15,0,0,1,1.42-.88,1.27,1.27,0,0,1,1,1.49,4.78,4.78,0,0,1-1,2.11c-.21.29-.42.58-.62.88a.51.51,0,0,0-.07.3,18.89,18.89,0,0,1,.15,3.1.29.29,0,0,0,.14.19.75.75,0,0,1,.47.6,1.79,1.79,0,0,1-.6,1.79,1,1,0,0,0-.3.62c-.09.65-.2,1.29-.3,1.94l0,.07-.25-.06.33-2.08-.21.11c-.54.26-1.08.54-1.63.79-.13.06-.16.12-.12.26a5.32,5.32,0,0,1,.06,2.57c-.06.23-.15.45-.23.67a.82.82,0,0,0,1.11-.26,1.9,1.9,0,0,1,1.21-.69,1.31,1.31,0,0,1,1.43,1.09,5.73,5.73,0,0,1-.19,2.29c-.05.2-.12.4-.18.6a1.28,1.28,0,0,1-1.12.93,2.73,2.73,0,0,1-1.17-.09,12.7,12.7,0,0,0-1.61-.31A10.11,10.11,0,0,1,10.05,20c-.16-.06-.33-.24-.52,0a.55.55,0,0,0-.07.73,1.86,1.86,0,0,1,.14,1.64,1.44,1.44,0,0,1-1.82,1,4.31,4.31,0,0,1-2.26-1.53,1.54,1.54,0,0,1-.17-1.55A5.82,5.82,0,0,1,6.7,18.1ZM7.36,5.27l-.11.08A5.65,5.65,0,0,0,6.06,7.06a3.18,3.18,0,0,0,.28,3.18.2.2,0,0,0,.27.11,3.46,3.46,0,0,1,.64-.13c.4-.05.81-.07,1.22-.1a6.23,6.23,0,0,1-.1-3.29l.24,0c0,.66-.11,1.29-.1,1.93a5.51,5.51,0,0,0,.22,1.13c0,.18.18.25.37.29.34.06.67.17,1,.25a.4.4,0,0,0,.24,0l1.77-.75a5.87,5.87,0,0,1-.27-3.21H12A3.45,3.45,0,0,0,9.3,4.72c-.27.53-.08,1.15-.38,1.66l-.25-.1.08,0a7.4,7.4,0,0,0,.07-1.15A1.28,1.28,0,0,1,9,4.27S9,4.12,9,4.1a1.88,1.88,0,0,0-.43-.31s-.18.17-.22.28a2.63,2.63,0,0,0,0,1.42c.08.37.19.74.28,1.1a.4.4,0,0,1-.52-.09A3.7,3.7,0,0,1,7.36,5.27Zm-.49,8.78v.06c.86,0,1.73,0,2.59,0a1.27,1.27,0,0,0,1.23-1A5.8,5.8,0,0,0,10.87,12a1,1,0,0,0-.46-1,2.61,2.61,0,0,0-.7-.37,5.33,5.33,0,0,0-3,0,11.71,11.71,0,0,0-4.26,2.27,1.57,1.57,0,0,0-.55.9.63.63,0,0,0,.23.7,1.74,1.74,0,0,0,1.27.37,8.07,8.07,0,0,0,3.67-1.3l.16-.09.16.22-.27.19Zm9.49,2.79a.93.93,0,0,0-.73-.49,1.45,1.45,0,0,0-1.27.62,1.1,1.1,0,0,1-1.19.39c-.61-.14-1.21-.3-1.82-.43a6,6,0,0,0-2.14-.2.94.94,0,0,0-.88.9,1.64,1.64,0,0,0,1.16,1.82c.4.15.8.3,1.21.42a9.45,9.45,0,0,0,1.37.34,14.66,14.66,0,0,1,2.36.45,1.68,1.68,0,0,0,1.26-.12.29.29,0,0,0,.13-.16c.09-1,.17-1.95.27-2.92C16.11,17.23,16.11,17,16.36,16.84ZM6.55,14.37c0,.6,0,1.16,0,1.71a3.48,3.48,0,0,0,.72,2,2.11,2.11,0,0,0,.87.62c0-.19-.09-.34-.11-.5a2.79,2.79,0,0,1,0-.5,1.25,1.25,0,0,1,1.19-1.21,5.57,5.57,0,0,1,1.73.11l1.83.4a10.27,10.27,0,0,0,.29-1,5.38,5.38,0,0,0-.23-2.42c-.18-.6-.41-1.18-.62-1.76l-.07,0a.86.86,0,0,1-.05.23,1.12,1.12,0,0,1-.17.21,1.45,1.45,0,0,1-.17-.19c-.14-.26-.27-.53-.41-.81l-.29.17a2.81,2.81,0,0,1,.06,1.35,1.82,1.82,0,0,1-2,1.71l-1.88,0ZM7,18.18a5.78,5.78,0,0,0-1.43,2.2,1.27,1.27,0,0,0,.15,1.21A4.12,4.12,0,0,0,7.8,23a1.15,1.15,0,0,0,1.54-.79,1.52,1.52,0,0,0-.16-1.39.81.81,0,0,1,.05-.93l.09-.12-.87-.67A.24.24,0,0,0,8.34,19,2.63,2.63,0,0,1,7,18.18Zm5-7.72,1.16,2.84,1.62-.76c-1-.58-1.49-1.3-1.06-2.42Zm.22-4-.06,0a7.14,7.14,0,0,0,0,2.44,4.17,4.17,0,0,0,.25.67l.13.05a4.33,4.33,0,0,0,.3-.41c.14-.25.29-.5.41-.76a.77.77,0,0,0,0-.34c0-.29-.1-.58-.16-.86A.3.3,0,0,0,13,7.16Zm-4-.43a4.44,4.44,0,0,1-.15-2C7.42,4.46,7.47,5.33,8.19,6.08Zm2.86,4.44-.49.2c.37.42.41.42.63.17Zm.65-.09-.24.29.24.3C11.93,10.78,11.76,10.62,11.7,10.43Z"/><path d="M11.4,7s0,.16-.07.25-.25.19-.31,0a3.43,3.43,0,0,1-.13-.79c0-.13.11-.15.22-.08A.65.65,0,0,1,11.4,7Z"/><path d="M9.49,12.72a.58.58,0,1,1,0-1.15.58.58,0,1,1,0,1.15Z"/><path d="M9.53,17.76a.68.68,0,0,1,.65.61.47.47,0,0,1-.51.43A.68.68,0,0,1,9,18.18.49.49,0,0,1,9.53,17.76Z"/></g><g class="cls-3"><path d="M6.51,17.6a5.84,5.84,0,0,1-.59-3.52l-.26.07a10.05,10.05,0,0,1-2.52.65,2.05,2.05,0,0,1-1.48-.4.93.93,0,0,1-.34-1.14,2,2,0,0,1,.69-1,13.24,13.24,0,0,1,3.68-2.08l.1,0L5.73,10a3.57,3.57,0,0,1-.09-3.81A6.26,6.26,0,0,1,6.82,4.69.54.54,0,0,0,7,4.39a1.34,1.34,0,0,1,.64-1,1.87,1.87,0,0,1,.31-.17.77.77,0,0,1,1,.36A2.12,2.12,0,0,1,9,4.08l.52.12a3.61,3.61,0,0,1,2.1,1.32,2.4,2.4,0,0,0,.64.59,4.32,4.32,0,0,1,.81.73,1.32,1.32,0,0,1,.16,1.38c-.1.23-.22.45-.33.67a1.43,1.43,0,0,1-1,.81l-.17.06,0,.06c.5-.11,1-.18,1.51-.34A4.53,4.53,0,0,1,15,9.27h.09a.53.53,0,0,0,0-.12c0-1-.1-2-.16-3a.46.46,0,0,0-.17-.29c-.46-.37-.94-.71-1.4-1.08a3.8,3.8,0,0,1-1-1.24A1.26,1.26,0,0,1,12.53,2a1.16,1.16,0,0,1,1.74,0,3.67,3.67,0,0,1,.23.29,1,1,0,0,1,.06-.14A1.15,1.15,0,0,1,16,1.32a1.27,1.27,0,0,1,1,1.49,4.78,4.78,0,0,1-1,2.11c-.21.29-.42.58-.62.88a.51.51,0,0,0-.07.3,18.89,18.89,0,0,1,.15,3.1.29.29,0,0,0,.14.19A.75.75,0,0,1,16,10a1.79,1.79,0,0,1-.6,1.79,1,1,0,0,0-.3.62c-.09.64-.2,1.29-.3,1.94l0,.07-.25-.06.33-2.08-.21.11L13,13.17c-.13.06-.16.12-.12.26A5.32,5.32,0,0,1,12.94,16c-.06.23-.15.45-.23.67a.82.82,0,0,0,1.11-.26A1.9,1.9,0,0,1,15,15.72a1.31,1.31,0,0,1,1.43,1.09,5.73,5.73,0,0,1-.19,2.29c-.05.2-.12.4-.18.6a1.28,1.28,0,0,1-1.12.93,2.73,2.73,0,0,1-1.17-.09,12.7,12.7,0,0,0-1.61-.31,10.11,10.11,0,0,1-2.48-.61c-.16-.06-.33-.24-.52,0a.55.55,0,0,0-.07.73A1.86,1.86,0,0,1,9.26,22a1.44,1.44,0,0,1-1.82,1,4.31,4.31,0,0,1-2.26-1.53A1.54,1.54,0,0,1,5,19.87a5.82,5.82,0,0,1,1.35-2.11ZM7,4.92,6.91,5A5.48,5.48,0,0,0,5.72,6.72,3.18,3.18,0,0,0,6,9.9a.2.2,0,0,0,.27.11,3.46,3.46,0,0,1,.64-.13c.4-.05.81-.07,1.22-.1A6.23,6.23,0,0,1,8,6.49l.24,0c0,.66-.11,1.29-.1,1.93a5.51,5.51,0,0,0,.22,1.13c0,.18.18.25.37.29.34.06.67.17,1,.25a.4.4,0,0,0,.24,0l1.77-.75a5.87,5.87,0,0,1-.27-3.21h.19A3.45,3.45,0,0,0,9,4.38c-.27.53-.08,1.15-.38,1.66l-.25-.1.08,0a7.4,7.4,0,0,0,.07-1.15,1.28,1.28,0,0,1,.16-.84c0-.05.06-.15,0-.17a1.88,1.88,0,0,0-.43-.31s-.18.17-.22.28A2.63,2.63,0,0,0,8,5.15c.08.37.19.74.28,1.1a.4.4,0,0,1-.52-.09A3.65,3.65,0,0,1,7,4.92Zm-.49,8.79v.06c.86,0,1.73,0,2.59,0a1.27,1.27,0,0,0,1.23-1,5.8,5.8,0,0,0,.17-1.17,1,1,0,0,0-.46-.95,2.61,2.61,0,0,0-.7-.37,5.33,5.33,0,0,0-3,0,11.71,11.71,0,0,0-4.26,2.27,1.57,1.57,0,0,0-.55.9.63.63,0,0,0,.23.7,1.74,1.74,0,0,0,1.27.37,8.07,8.07,0,0,0,3.67-1.3l.16-.09.16.22-.27.19ZM16,16.5a.93.93,0,0,0-.73-.49,1.45,1.45,0,0,0-1.27.62,1.1,1.1,0,0,1-1.19.39c-.61-.14-1.21-.31-1.82-.43a6,6,0,0,0-2.14-.2.94.94,0,0,0-.88.9,1.64,1.64,0,0,0,1.16,1.82c.4.15.8.3,1.21.42a9.45,9.45,0,0,0,1.37.34,14.66,14.66,0,0,1,2.36.45,1.68,1.68,0,0,0,1.26-.12.29.29,0,0,0,.13-.16c.09-1,.17-1.95.27-2.92C15.77,16.89,15.77,16.63,16,16.5ZM6.21,14c0,.6,0,1.16,0,1.71a3.48,3.48,0,0,0,.72,2,2.11,2.11,0,0,0,.87.62c0-.19-.09-.34-.11-.5a2.79,2.79,0,0,1,0-.5A1.25,1.25,0,0,1,8.88,16.1a5.57,5.57,0,0,1,1.73.11l1.83.4a10.27,10.27,0,0,0,.29-1,5.38,5.38,0,0,0-.23-2.42c-.18-.6-.41-1.18-.62-1.76l-.07,0a.86.86,0,0,1-.05.23,1.73,1.73,0,0,1-.17.21,1.45,1.45,0,0,1-.17-.19c-.14-.26-.27-.53-.41-.81l-.29.17a2.81,2.81,0,0,1,.06,1.35,1.82,1.82,0,0,1-2,1.71L6.93,14Zm.48,3.81A5.78,5.78,0,0,0,5.26,20a1.27,1.27,0,0,0,.15,1.21,4.12,4.12,0,0,0,2.05,1.4A1.15,1.15,0,0,0,9,21.86a1.52,1.52,0,0,0-.16-1.39.81.81,0,0,1,.05-.93L9,19.42l-.87-.67A.24.24,0,0,0,8,18.69,2.63,2.63,0,0,1,6.69,17.84Zm5-7.72L12.8,13l1.62-.76c-1-.58-1.49-1.3-1.06-2.42Zm.22-3.95-.06,0a7.14,7.14,0,0,0,0,2.44,4.17,4.17,0,0,0,.25.67l.13.05a4.33,4.33,0,0,0,.3-.41c.14-.25.29-.5.41-.76a.77.77,0,0,0,0-.34c0-.29-.1-.58-.16-.87a.3.3,0,0,0-.08-.18Zm-4-.43a4.44,4.44,0,0,1-.15-2C7.08,4.12,7.13,5,7.85,5.74Zm2.86,4.44-.49.2c.37.42.41.42.63.17Zm.65-.09-.24.29.24.3C11.59,10.44,11.42,10.28,11.36,10.09Z"/><path d="M11.06,6.61s0,.16-.07.25-.25.19-.31,0a3.43,3.43,0,0,1-.13-.79c0-.13.11-.15.22-.08A.65.65,0,0,1,11.06,6.61Z"/><path d="M9.15,12.38a.58.58,0,1,1,0-1.15.58.58,0,1,1,0,1.15Z"/><path d="M9.19,17.42a.68.68,0,0,1,.65.61.47.47,0,0,1-.51.43.68.68,0,0,1-.66-.62A.49.49,0,0,1,9.19,17.42Z"/></g><path class="cls-4" d="M6.71,17.8a5.86,5.86,0,0,1-.6-3.52c-.1,0-.18,0-.25.07A10.46,10.46,0,0,1,3.33,15a2,2,0,0,1-1.47-.4,1,1,0,0,1-.34-1.15,1.91,1.91,0,0,1,.69-1,13,13,0,0,1,3.68-2.08l.1-.05-.06-.12A3.55,3.55,0,0,1,5.84,6.4,6.41,6.41,0,0,1,7,4.89a.54.54,0,0,0,.15-.3,1.32,1.32,0,0,1,.64-1,1.54,1.54,0,0,1,.31-.17.77.77,0,0,1,1,.36,2.12,2.12,0,0,1,0,.47l.52.12a3.57,3.57,0,0,1,2.1,1.32,2.52,2.52,0,0,0,.63.59,3.53,3.53,0,0,1,.81.73,1.3,1.3,0,0,1,.16,1.38c-.09.23-.21.44-.32.66a1.44,1.44,0,0,1-1,.82,1.15,1.15,0,0,0-.17.06V10c.51-.11,1-.19,1.52-.34a4.53,4.53,0,0,1,1.75-.21h.09a.25.25,0,0,0,0-.12c0-1-.09-2-.15-3A.44.44,0,0,0,15,6.07C14.51,5.7,14,5.35,13.56,5a3.86,3.86,0,0,1-1-1.23,1.24,1.24,0,0,1,.21-1.54,1.15,1.15,0,0,1,1.74,0c.08.09.14.18.23.29,0-.06,0-.1.05-.14a1.16,1.16,0,0,1,1.43-.88,1.28,1.28,0,0,1,1,1.49,4.89,4.89,0,0,1-1,2.11c-.21.29-.42.58-.62.88a.51.51,0,0,0-.07.3,20.06,20.06,0,0,1,.15,3.1.26.26,0,0,0,.14.19.75.75,0,0,1,.47.59,1.8,1.8,0,0,1-.6,1.8,1,1,0,0,0-.3.61c-.09.65-.2,1.3-.31,1.95,0,0,0,0,0,.07l-.25-.06L15,12.47l-.21.11-1.63.79c-.13.06-.16.12-.13.25a5.24,5.24,0,0,1,.07,2.58c-.06.23-.16.45-.23.67A.82.82,0,0,0,14,16.61a1.87,1.87,0,0,1,1.2-.69A1.31,1.31,0,0,1,16.66,17a5.66,5.66,0,0,1-.19,2.28c0,.21-.12.41-.18.61a1.28,1.28,0,0,1-1.12.93A2.73,2.73,0,0,1,14,20.74a12.7,12.7,0,0,0-1.61-.31,10,10,0,0,1-2.48-.61c-.16-.07-.33-.24-.52,0a.55.55,0,0,0-.07.73,1.86,1.86,0,0,1,.14,1.64,1.43,1.43,0,0,1-1.82.95,4.26,4.26,0,0,1-2.26-1.52,1.54,1.54,0,0,1-.17-1.55A5.93,5.93,0,0,1,6.55,18ZM7.22,5.12l-.11.09A5.32,5.32,0,0,0,5.92,6.92,3.18,3.18,0,0,0,6.2,10.1a.2.2,0,0,0,.27.11,3.3,3.3,0,0,1,.64-.13c.4-.05.81-.07,1.21-.11a6.39,6.39,0,0,1-.1-3.28l.25,0c0,.65-.11,1.29-.1,1.93a4.89,4.89,0,0,0,.21,1.13c.05.18.19.25.38.29s.67.17,1,.25a.5.5,0,0,0,.24,0L12,9.6a5.9,5.9,0,0,1-.27-3.22h.19a3.47,3.47,0,0,0-2.73-1.8c-.27.53-.08,1.14-.38,1.66l-.25-.1.07,0A7.5,7.5,0,0,0,8.68,5a1.28,1.28,0,0,1,.16-.84S8.9,4,8.88,4a1.94,1.94,0,0,0-.44-.31.62.62,0,0,0-.21.28,2.63,2.63,0,0,0,0,1.42c.08.37.18.74.28,1.1A.39.39,0,0,1,8,6.35,3.51,3.51,0,0,1,7.22,5.12Zm-.49,8.79V14c.86,0,1.73,0,2.59,0a1.28,1.28,0,0,0,1.23-1,5.6,5.6,0,0,0,.17-1.16,1.06,1.06,0,0,0-.46-1,2.61,2.61,0,0,0-.7-.37,5.43,5.43,0,0,0-3,0,11.93,11.93,0,0,0-4.26,2.27,1.57,1.57,0,0,0-.55.91.62.62,0,0,0,.23.7,1.77,1.77,0,0,0,1.27.37,8.19,8.19,0,0,0,3.67-1.3l.16-.1.16.23L7,13.74Zm9.49,2.79a.94.94,0,0,0-.73-.5,1.48,1.48,0,0,0-1.27.63,1.12,1.12,0,0,1-1.19.39c-.61-.15-1.21-.31-1.83-.44a6.1,6.1,0,0,0-2.13-.19.93.93,0,0,0-.88.9,1.64,1.64,0,0,0,1.16,1.82c.4.15.8.3,1.21.42a9.45,9.45,0,0,0,1.37.34,14.66,14.66,0,0,1,2.36.45,1.65,1.65,0,0,0,1.25-.12.27.27,0,0,0,.14-.16c.09-1,.17-1.95.26-2.93C16,17.08,16,16.83,16.22,16.7ZM6.41,14.23c0,.6,0,1.15,0,1.7a3.51,3.51,0,0,0,.72,2,2.13,2.13,0,0,0,.87.62A3.82,3.82,0,0,1,7.9,18a2.9,2.9,0,0,1,0-.51,1.25,1.25,0,0,1,1.19-1.2,5.57,5.57,0,0,1,1.73.11l1.83.39a10.09,10.09,0,0,0,.29-1,5.35,5.35,0,0,0-.23-2.42c-.18-.6-.42-1.18-.63-1.76H12a1.69,1.69,0,0,1,0,.24.86.86,0,0,1-.18.2,1.37,1.37,0,0,1-.16-.18c-.14-.26-.28-.53-.41-.81l-.3.17A2.81,2.81,0,0,1,11,12.56a1.81,1.81,0,0,1-2,1.7l-1.89,0ZM6.88,18a5.68,5.68,0,0,0-1.42,2.2,1.25,1.25,0,0,0,.15,1.21,4.16,4.16,0,0,0,2,1.4,1.17,1.17,0,0,0,1.55-.79A1.57,1.57,0,0,0,9,20.66a.78.78,0,0,1,.05-.92l.09-.12L8.31,19a.24.24,0,0,0-.11-.06A2.7,2.7,0,0,1,6.88,18Zm5-7.72L13,13.16l1.61-.76c-1-.58-1.48-1.3-1-2.42Zm.22-3.95-.06,0a7.4,7.4,0,0,0,0,2.44,4.62,4.62,0,0,0,.26.67l.13.05c.1-.14.21-.27.3-.41a7.88,7.88,0,0,0,.4-.76.65.65,0,0,0,0-.34c0-.29-.1-.58-.16-.87A.37.37,0,0,0,12.88,7ZM8,5.94a4.43,4.43,0,0,1-.14-2C7.28,4.32,7.33,5.18,8,5.94Zm2.87,4.44-.49.2c.37.41.4.42.63.17Zm.64-.09-.23.28.24.31C11.79,10.64,11.62,10.48,11.55,10.29Z"/><path class="cls-4" d="M11.25,6.81a1.42,1.42,0,0,1-.07.25c-.07.17-.24.19-.3,0a3.43,3.43,0,0,1-.13-.79c0-.13.11-.15.22-.09A.65.65,0,0,1,11.25,6.81Z"/><path class="cls-4" d="M9.35,12.58A.63.63,0,0,1,8.67,12a.61.61,0,0,1,.66-.57.58.58,0,1,1,0,1.15Z"/><path class="cls-4" d="M9.39,17.62a.69.69,0,0,1,.65.61.47.47,0,0,1-.51.43A.67.67,0,0,1,8.87,18,.49.49,0,0,1,9.39,17.62Z"/></g></g></svg>