<svg xmlns="http://www.w3.org/2000/svg" viewBox="0 0 38.55 24.66"><defs><style>.cls-1{isolation:isolate;}.cls-2{opacity:0.15;}.cls-2,.cls-3{mix-blend-mode:multiply;}.cls-4{fill:#fff;}</style></defs><title>convert-CUSTOMIZE-SVG-03</title><g class="cls-1"><g id="Layer_1" data-name="Layer 1"><g class="cls-2"><path d="M18.59,23c-.14-.44-.25-.9-.43-1.33a7.08,7.08,0,0,0-.64-1.14,1.28,1.28,0,0,1,.76-2.05,1.34,1.34,0,0,1,1.59.94c0,.06,0,.12.05.17.22-.08.43-.18.64-.24a1,1,0,0,1,.91.18A1.59,1.59,0,0,1,22.14,21a1.37,1.37,0,0,1-1,1.22,5.32,5.32,0,0,1-1.62.29C19.12,22.56,18.75,22.6,18.59,23Z"/><path d="M35.23,23.7c-.18-.42-.53-.41-.86-.43A3.33,3.33,0,0,1,33,23a1.1,1.1,0,0,1-.6-1.1,1.16,1.16,0,0,1,.89-1.06,2.14,2.14,0,0,1,.65.1.92.92,0,0,1,.2.1,1.1,1.1,0,0,1,.62-.82,1,1,0,0,1,1.25.33.87.87,0,0,1,0,1.16A4.44,4.44,0,0,0,35.23,23.7Z"/><path d="M34.19,6.23a4.58,4.58,0,0,0-.82-1.94.91.91,0,0,1,.2-1.38A1,1,0,0,1,35,3.05a3.07,3.07,0,0,1,.28.51l.08,0a1,1,0,0,1,1.58.69,1.1,1.1,0,0,1-.69,1.39,4.23,4.23,0,0,1-1.32.25C34.63,5.87,34.34,5.9,34.19,6.23Z"/><path d="M13.23,2.54a2.67,2.67,0,0,1,.21-.45,1,1,0,0,1,1.22-.38,1,1,0,0,1,.68,1.1.84.84,0,0,1-.12.31,4.79,4.79,0,0,0-.91,2.14.62.62,0,0,0-.63-.43,4.5,4.5,0,0,1-1.41-.25,1,1,0,0,1-.74-.93,1.22,1.22,0,0,1,.58-1.21.88.88,0,0,1,.82,0Z"/><path d="M10.37,22.23c.07-.32-.1-.47-.26-.64a7.29,7.29,0,0,1-.73-.85.81.81,0,0,1,0-1,1,1,0,0,1,1-.41c.35.05.52.31.64.64a.86.86,0,0,1,1.46.67.71.71,0,0,1-.55.71A3.87,3.87,0,0,0,10.37,22.23Z"/><path d="M29.6,22.61a3.6,3.6,0,0,0-1.39-.89.62.62,0,0,1-.31-.82.7.7,0,0,1,.79-.53,2.91,2.91,0,0,1,.51.19l0,0a.71.71,0,0,1,1.07-.3.78.78,0,0,1,.31,1.14,4.77,4.77,0,0,1-.74.75A.65.65,0,0,0,29.6,22.61Z"/><path d="M26.32,6.53c.05-.21-.07-.34-.22-.47a7,7,0,0,1-.73-.71.75.75,0,0,1,0-.93.88.88,0,0,1,.9-.38.77.77,0,0,1,.52.49.81.81,0,0,1,.82-.2.79.79,0,0,1,.51.73.62.62,0,0,1-.43.63,5.91,5.91,0,0,0-.71.36C26.73,6.19,26.54,6.37,26.32,6.53Z"/><path d="M3.6,1.53a.18.18,0,0,0,0-.07.72.72,0,0,1,1.1-.29A.79.79,0,0,1,5,2.34a6,6,0,0,1-.71.71A.56.56,0,0,0,4,3.58a3.44,3.44,0,0,0-1.39-.9A.62.62,0,0,1,2.29,2a.75.75,0,0,1,.56-.64A.89.89,0,0,1,3.6,1.53Z"/><path d="M25,20.09a2.79,2.79,0,0,0-.19-.24c-.12-.12-.26-.22-.37-.35a.5.5,0,0,1,.06-.79c.27-.19.52-.14.74.17a2.07,2.07,0,0,1,.33-.1.41.41,0,0,1,.48.37c.06.23,0,.38-.27.5S25.27,20,25,20.09Z"/><path d="M7.82,4.45c.38-.14.61,0,.72.28a.51.51,0,0,1-.42.69c-.15,0-.31,0-.46,0a2.22,2.22,0,0,0-.33.09C7.22,5.3,7.1,5,7,4.75a.43.43,0,0,1,.17-.64.45.45,0,0,1,.63.19S7.79,4.39,7.82,4.45Z"/><path d="M3.94,22.21a.47.47,0,0,1,.53-.3.48.48,0,0,1,.41.38.55.55,0,0,1-.06.4,2.31,2.31,0,0,1-.37.4l-.27.29c-.24-.13-.49-.29-.75-.42a.44.44,0,0,1-.25-.64.46.46,0,0,1,.65-.19Z"/><path d="M30.91,1.69c.4-.22.7-.13.8.24a.4.4,0,0,1-.24.5c-.28.14-.55.3-.81.45a2.18,2.18,0,0,0-.22-.26c-.12-.12-.26-.23-.37-.36a.51.51,0,0,1,.09-.76.47.47,0,0,1,.72.16Z"/><path d="M14.93,22.19c.4-.25.76-.12.81.3a.4.4,0,0,1-.23.43c-.29.14-.57.3-.83.45l-.21-.25c-.11-.11-.25-.21-.35-.33a.5.5,0,0,1,.06-.79C14.45,21.8,14.7,21.86,14.93,22.19Z"/><path d="M18.73,5.26l.08-.16a.45.45,0,0,1,.62-.16.43.43,0,0,1,.16.63c-.14.26-.26.54-.38.8l-.38-.08a3.11,3.11,0,0,1-.44-.06A.51.51,0,0,1,18,5.57c.1-.33.32-.43.68-.31Z"/><path d="M6,19.27c-.25-.14-.51-.3-.78-.44a.42.42,0,0,1-.23-.6A.45.45,0,0,1,5.59,18l.14.09A.48.48,0,0,1,6.55,18a.45.45,0,0,1,.08.61,3.51,3.51,0,0,1-.42.44C6.12,19.1,6.05,19.2,6,19.27Z"/><path d="M21.91,2.16c.22-.31.46-.38.72-.22a.49.49,0,0,1,.16.72,3.73,3.73,0,0,1-.39.41l-.25.26-.83-.45a.43.43,0,0,1-.17-.59.44.44,0,0,1,.6-.22Z"/><path d="M2.55,5.62c.43-.25.8-.08.81.35a.38.38,0,0,1-.25.39c-.28.14-.54.3-.8.44L2,6.51c-.1-.11-.23-.21-.32-.33a.48.48,0,0,1,.1-.75c.26-.19.5-.13.71.16Z"/><path d="M18.79,23.21c-.14-.44-.25-.9-.43-1.33a7.08,7.08,0,0,0-.64-1.14,1.28,1.28,0,0,1,.75-2,1.34,1.34,0,0,1,1.6.94,1.36,1.36,0,0,1,0,.17c.23-.08.43-.18.65-.24a1,1,0,0,1,.9.18,1.57,1.57,0,0,1,.68,1.49,1.39,1.39,0,0,1-1,1.22,5.32,5.32,0,0,1-1.62.29C19.32,22.76,19,22.8,18.79,23.21Z"/><path d="M35.43,23.9c-.18-.42-.53-.42-.86-.43a3.46,3.46,0,0,1-1.35-.31,1.08,1.08,0,0,1-.6-1.1A1.16,1.16,0,0,1,33.5,21a2.21,2.21,0,0,1,.66.1.92.92,0,0,1,.2.1,1.08,1.08,0,0,1,.62-.82,1,1,0,0,1,1.25.33.87.87,0,0,1,0,1.16A4.44,4.44,0,0,0,35.43,23.9Z"/><path d="M34.39,6.43a4.71,4.71,0,0,0-.82-1.94.91.91,0,0,1,.2-1.38,1,1,0,0,1,1.43.14,3.07,3.07,0,0,1,.28.51l.08,0a1,1,0,0,1,1.58.7,1.12,1.12,0,0,1-.69,1.39,4,4,0,0,1-1.32.24C34.83,6.07,34.54,6.1,34.39,6.43Z"/><path d="M13.43,2.73a4.48,4.48,0,0,1,.2-.44A1.05,1.05,0,0,1,15.54,3a.76.76,0,0,1-.13.31,4.74,4.74,0,0,0-.9,2.13A.63.63,0,0,0,13.87,5a4.49,4.49,0,0,1-1.4-.25,1.06,1.06,0,0,1-.75-.94,1.24,1.24,0,0,1,.59-1.2.88.88,0,0,1,.82-.05Z"/><path d="M10.57,22.43c.07-.32-.11-.47-.27-.64a8.3,8.3,0,0,1-.72-.85.81.81,0,0,1,0-1,1,1,0,0,1,1-.41.84.84,0,0,1,.64.63.91.91,0,0,1,.89-.18.86.86,0,0,1,.56.85.7.7,0,0,1-.54.72A3.81,3.81,0,0,0,10.57,22.43Z"/><path d="M29.79,22.81a3.5,3.5,0,0,0-1.38-.89.63.63,0,0,1-.31-.83.7.7,0,0,1,.78-.53,2.78,2.78,0,0,1,.52.2l0-.05a.71.71,0,0,1,1.07-.3.78.78,0,0,1,.31,1.14,5.82,5.82,0,0,1-.74.75A.62.62,0,0,0,29.79,22.81Z"/><path d="M26.52,6.73a.49.49,0,0,0-.22-.47,7.17,7.17,0,0,1-.74-.72.75.75,0,0,1,0-.92.9.9,0,0,1,.9-.39.81.81,0,0,1,.52.5.76.76,0,0,1,1.33.53.64.64,0,0,1-.43.63,5.91,5.91,0,0,0-.71.36A5.53,5.53,0,0,0,26.52,6.73Z"/><path d="M3.8,1.73a.18.18,0,0,0,.05-.07A.72.72,0,0,1,5,1.37a.78.78,0,0,1,.26,1.16,5.36,5.36,0,0,1-.71.72.55.55,0,0,0-.27.52,3.74,3.74,0,0,0-1.39-.9c-.29-.11-.39-.35-.35-.71a.74.74,0,0,1,.56-.64A.89.89,0,0,1,3.8,1.73Z"/><path d="M25.22,20.29a1.8,1.8,0,0,0-.19-.24c-.12-.12-.26-.22-.37-.35a.5.5,0,0,1,.06-.79c.27-.2.52-.14.74.17a2.07,2.07,0,0,1,.33-.1.45.45,0,0,1,.21.87C25.73,20,25.47,20.15,25.22,20.29Z"/><path d="M8,4.65c.38-.14.61-.05.72.27a.51.51,0,0,1-.43.69,3.2,3.2,0,0,1-.46.06l-.32.08c-.11-.25-.23-.53-.37-.8a.43.43,0,0,1,.17-.64A.44.44,0,0,1,8,4.5,1.07,1.07,0,0,1,8,4.65Z"/><path d="M4.14,22.41a.47.47,0,0,1,.53-.3.49.49,0,0,1,.41.38.61.61,0,0,1-.06.4,2.31,2.31,0,0,1-.37.4l-.28.29c-.23-.14-.48-.29-.74-.42a.44.44,0,0,1-.25-.64A.46.46,0,0,1,4,22.33Z"/><path d="M31.11,1.89c.39-.23.7-.13.79.24a.39.39,0,0,1-.24.49l-.8.45c-.06-.06-.13-.16-.22-.25a4.31,4.31,0,0,1-.37-.37.5.5,0,0,1,.09-.75.47.47,0,0,1,.72.16S31.1,1.88,31.11,1.89Z"/><path d="M15.13,22.39c.39-.25.76-.12.81.3a.4.4,0,0,1-.23.43c-.29.14-.57.3-.83.45-.05-.07-.13-.16-.21-.25s-.25-.21-.35-.33a.5.5,0,0,1,.06-.79C14.65,22,14.9,22.06,15.13,22.39Z"/><path d="M18.93,5.46A.85.85,0,0,1,19,5.29a.45.45,0,0,1,.62-.15.43.43,0,0,1,.16.63c-.14.26-.26.54-.38.8L19,6.49c-.14,0-.29,0-.43-.06a.51.51,0,0,1-.39-.66c.1-.33.32-.43.68-.31Z"/><path d="M6.18,19.47c-.25-.14-.51-.3-.78-.44a.42.42,0,0,1-.23-.6.44.44,0,0,1,.61-.23l.15.09a.48.48,0,0,1,.82-.13.44.44,0,0,1,.07.61,3.44,3.44,0,0,1-.41.44C6.32,19.3,6.25,19.39,6.18,19.47Z"/><path d="M22.11,2.36c.22-.31.46-.38.72-.22a.5.5,0,0,1,.16.72,5,5,0,0,1-.39.41l-.25.26-.84-.46a.42.42,0,0,1-.16-.58.43.43,0,0,1,.6-.22Z"/><path d="M2.75,5.82c.43-.25.8-.09.81.35a.39.39,0,0,1-.25.39c-.28.14-.54.3-.8.44l-.28-.29a3.31,3.31,0,0,1-.32-.33A.48.48,0,0,1,2,5.63c.26-.19.5-.13.71.16Z"/></g><g class="cls-3"><path d="M18.45,22.87c-.14-.44-.25-.9-.43-1.33a7.08,7.08,0,0,0-.64-1.14,1.28,1.28,0,0,1,.75-2,1.34,1.34,0,0,1,1.6.93c0,.07,0,.13,0,.18.23-.08.43-.18.65-.24a1,1,0,0,1,.9.18A1.57,1.57,0,0,1,22,20.89a1.39,1.39,0,0,1-1,1.22,5.64,5.64,0,0,1-1.62.29C19,22.42,18.61,22.46,18.45,22.87Z"/><path d="M35.09,23.56c-.18-.42-.53-.42-.86-.43a3.46,3.46,0,0,1-1.35-.31,1.08,1.08,0,0,1-.6-1.1,1.16,1.16,0,0,1,.88-1.06,2.21,2.21,0,0,1,.66.1.92.92,0,0,1,.2.1,1.08,1.08,0,0,1,.62-.82,1,1,0,0,1,1.25.33.87.87,0,0,1,0,1.16A4.44,4.44,0,0,0,35.09,23.56Z"/><path d="M34.05,6.09a4.71,4.71,0,0,0-.82-1.94.91.91,0,0,1,.2-1.38,1,1,0,0,1,1.43.14,3.07,3.07,0,0,1,.28.51l.08,0a1,1,0,0,1,1.58.7,1.12,1.12,0,0,1-.69,1.39,4,4,0,0,1-1.32.24C34.49,5.73,34.2,5.76,34.05,6.09Z"/><path d="M13.09,2.39a4.48,4.48,0,0,1,.2-.44,1.05,1.05,0,0,1,1.91.72.67.67,0,0,1-.13.3,4.82,4.82,0,0,0-.9,2.14.63.63,0,0,0-.64-.42,4.49,4.49,0,0,1-1.4-.25,1.06,1.06,0,0,1-.75-.94A1.24,1.24,0,0,1,12,2.3a.88.88,0,0,1,.82,0Z"/><path d="M10.23,22.09c.07-.32-.11-.47-.27-.64a8.3,8.3,0,0,1-.72-.85.81.81,0,0,1,0-1,1,1,0,0,1,1-.41.84.84,0,0,1,.64.63.91.91,0,0,1,.89-.18.86.86,0,0,1,.56.85.7.7,0,0,1-.54.72A3.81,3.81,0,0,0,10.23,22.09Z"/><path d="M29.45,22.47a3.5,3.5,0,0,0-1.38-.89.63.63,0,0,1-.31-.83.7.7,0,0,1,.78-.53,2.78,2.78,0,0,1,.52.2l0-.06a.72.72,0,0,1,1.07-.29.78.78,0,0,1,.31,1.14,5.82,5.82,0,0,1-.74.75A.62.62,0,0,0,29.45,22.47Z"/><path d="M26.18,6.39A.49.49,0,0,0,26,5.92a7.17,7.17,0,0,1-.74-.72.75.75,0,0,1,0-.92.9.9,0,0,1,.89-.39.8.8,0,0,1,.53.5A.76.76,0,0,1,28,4.92a.64.64,0,0,1-.43.63,5.91,5.91,0,0,0-.71.36A5.53,5.53,0,0,0,26.18,6.39Z"/><path d="M3.46,1.39l0-.07A.72.72,0,0,1,4.61,1a.78.78,0,0,1,.26,1.16,5.36,5.36,0,0,1-.71.72.55.55,0,0,0-.27.52,3.74,3.74,0,0,0-1.39-.9c-.29-.11-.39-.35-.35-.71a.73.73,0,0,1,.56-.64A.89.89,0,0,1,3.46,1.39Z"/><path d="M24.88,20a1.8,1.8,0,0,0-.19-.24c-.12-.12-.26-.22-.37-.35a.5.5,0,0,1,.06-.79c.27-.2.52-.14.74.17a2.07,2.07,0,0,1,.33-.1.45.45,0,0,1,.21.87C25.39,19.64,25.13,19.81,24.88,20Z"/><path d="M7.68,4.31c.38-.14.61,0,.72.27A.51.51,0,0,1,8,5.27a3.4,3.4,0,0,1-.46.06l-.32.08c-.11-.25-.23-.53-.37-.8A.43.43,0,0,1,7,4a.44.44,0,0,1,.62.19A1.07,1.07,0,0,1,7.68,4.31Z"/><path d="M3.8,22.07a.47.47,0,0,1,.53-.3.49.49,0,0,1,.41.38.61.61,0,0,1-.06.4,2.31,2.31,0,0,1-.37.4L4,23.24c-.23-.14-.48-.29-.74-.42A.44.44,0,0,1,3,22.18.45.45,0,0,1,3.69,22Z"/><path d="M30.77,1.55c.39-.23.7-.14.79.24a.39.39,0,0,1-.24.49l-.8.45c-.06-.06-.13-.16-.22-.25a4.31,4.31,0,0,1-.37-.37A.5.5,0,0,1,30,1.36a.47.47,0,0,1,.72.16S30.76,1.54,30.77,1.55Z"/><path d="M14.79,22.05c.39-.25.76-.12.81.3a.42.42,0,0,1-.23.43c-.29.14-.57.3-.83.45,0-.07-.13-.16-.21-.25s-.25-.21-.35-.33a.5.5,0,0,1,.06-.79C14.31,21.66,14.56,21.72,14.79,22.05Z"/><path d="M18.59,5.12A.85.85,0,0,1,18.67,5a.45.45,0,0,1,.62-.15.43.43,0,0,1,.16.63c-.14.26-.26.54-.38.8l-.39-.08c-.14,0-.29,0-.43-.06a.5.5,0,0,1-.39-.66c.1-.33.32-.43.67-.31Z"/><path d="M5.84,19.13c-.25-.14-.51-.3-.78-.44a.42.42,0,0,1-.23-.6.44.44,0,0,1,.61-.23l.15.09a.48.48,0,0,1,.82-.13.44.44,0,0,1,.07.61,3.44,3.44,0,0,1-.41.44C6,19,5.91,19.05,5.84,19.13Z"/><path d="M21.77,2c.22-.31.46-.38.72-.22a.5.5,0,0,1,.16.72,5,5,0,0,1-.39.41L22,3.19l-.84-.46A.42.42,0,0,1,21,2.15a.43.43,0,0,1,.6-.22Z"/><path d="M2.41,5.48c.43-.25.8-.09.81.35A.39.39,0,0,1,3,6.22c-.28.14-.54.3-.8.44l-.28-.29A3.31,3.31,0,0,1,1.57,6a.48.48,0,0,1,.1-.75c.26-.19.5-.13.71.16Z"/></g><path class="cls-4" d="M18.65,23.07a12.18,12.18,0,0,0-.44-1.33,7,7,0,0,0-.63-1.14,1.28,1.28,0,0,1,.75-2.05,1.34,1.34,0,0,1,1.6.93,1.49,1.49,0,0,1,0,.18c.22-.08.43-.18.65-.24a1,1,0,0,1,.9.18,1.57,1.57,0,0,1,.68,1.48,1.39,1.39,0,0,1-1,1.23,5.51,5.51,0,0,1-1.61.29C19.18,22.62,18.8,22.66,18.65,23.07Z"/><path class="cls-4" d="M35.29,23.76c-.19-.43-.53-.42-.86-.43A3.46,3.46,0,0,1,33.08,23a1.07,1.07,0,0,1-.6-1.1,1.16,1.16,0,0,1,.88-1.06A1.93,1.93,0,0,1,34,21a.92.92,0,0,1,.2.1,1.08,1.08,0,0,1,.62-.82,1,1,0,0,1,1.25.32.87.87,0,0,1,0,1.16A4.47,4.47,0,0,0,35.29,23.76Z"/><path class="cls-4" d="M34.25,6.29a4.66,4.66,0,0,0-.82-1.94A.93.93,0,0,1,33.62,3a1,1,0,0,1,1.44.15,2.72,2.72,0,0,1,.28.51l.08,0a1,1,0,0,1,1.58.7,1.1,1.1,0,0,1-.69,1.38A3.78,3.78,0,0,1,35,5.91C34.69,5.93,34.4,6,34.25,6.29Z"/><path class="cls-4" d="M13.29,2.59a4.48,4.48,0,0,1,.2-.44,1,1,0,0,1,1.23-.38,1,1,0,0,1,.68,1.1.88.88,0,0,1-.13.3,4.82,4.82,0,0,0-.9,2.14.63.63,0,0,0-.64-.42,4.8,4.8,0,0,1-1.4-.25,1.06,1.06,0,0,1-.75-.94,1.24,1.24,0,0,1,.59-1.2.86.86,0,0,1,.81,0Z"/><path class="cls-4" d="M10.43,22.29c.07-.32-.11-.47-.27-.64a9.53,9.53,0,0,1-.72-.85.81.81,0,0,1,0-1,1,1,0,0,1,1-.42c.34.05.52.32.64.64a.91.91,0,0,1,.89-.18.86.86,0,0,1,.56.85.7.7,0,0,1-.54.72A3.81,3.81,0,0,0,10.43,22.29Z"/><path class="cls-4" d="M29.65,22.66a3.74,3.74,0,0,0-1.38-.88A.64.64,0,0,1,28,21a.7.7,0,0,1,.78-.53,2.22,2.22,0,0,1,.52.2.3.3,0,0,0,0-.06.72.72,0,0,1,1.08-.29.79.79,0,0,1,.31,1.14,5.82,5.82,0,0,1-.74.75A.62.62,0,0,0,29.65,22.66Z"/><path class="cls-4" d="M26.38,6.59a.49.49,0,0,0-.22-.47,6.29,6.29,0,0,1-.74-.72.74.74,0,0,1,0-.92.89.89,0,0,1,.89-.39.77.77,0,0,1,.52.5.83.83,0,0,1,.83-.21.81.81,0,0,1,.51.73.64.64,0,0,1-.43.64,6.91,6.91,0,0,0-.72.36A6.48,6.48,0,0,0,26.38,6.59Z"/><path class="cls-4" d="M3.66,1.59l0-.07a.72.72,0,0,1,1.1-.29.78.78,0,0,1,.26,1.16,4.77,4.77,0,0,1-.71.71c-.15.14-.3.26-.27.53a3.62,3.62,0,0,0-1.39-.9A.59.59,0,0,1,2.35,2a.72.72,0,0,1,.56-.64A.86.86,0,0,1,3.66,1.59Z"/><path class="cls-4" d="M25.08,20.14a2.84,2.84,0,0,0-.19-.23c-.12-.12-.26-.22-.37-.35a.51.51,0,0,1,.05-.79c.27-.2.53-.14.75.17a1.26,1.26,0,0,1,.33-.1.42.42,0,0,1,.48.36.41.41,0,0,1-.27.5C25.59,19.84,25.33,20,25.08,20.14Z"/><path class="cls-4" d="M7.88,4.51c.38-.14.61,0,.72.27a.51.51,0,0,1-.43.69c-.15,0-.3,0-.46.06s-.23.06-.32.08c-.12-.25-.23-.53-.38-.8a.43.43,0,0,1,.17-.64.45.45,0,0,1,.63.19A1.07,1.07,0,0,1,7.88,4.51Z"/><path class="cls-4" d="M4,22.27c.12-.22.28-.36.53-.3a.49.49,0,0,1,.41.38.68.68,0,0,1-.06.4,2.31,2.31,0,0,1-.37.4l-.28.29A7.5,7.5,0,0,0,3.49,23a.44.44,0,0,1-.25-.64.45.45,0,0,1,.65-.19Z"/><path class="cls-4" d="M31,1.74c.4-.22.7-.13.8.25a.39.39,0,0,1-.24.49l-.8.45c-.06-.06-.13-.16-.22-.25a3.23,3.23,0,0,1-.37-.37.49.49,0,0,1,.09-.75.47.47,0,0,1,.72.16S31,1.73,31,1.74Z"/><path class="cls-4" d="M15,22.25c.39-.25.76-.12.81.29a.4.4,0,0,1-.24.43l-.82.45-.21-.24a3.68,3.68,0,0,1-.35-.33.51.51,0,0,1,.05-.79C14.51,21.85,14.76,21.91,15,22.25Z"/><path class="cls-4" d="M18.78,5.32l.08-.17A.47.47,0,0,1,19.49,5a.43.43,0,0,1,.16.63c-.14.26-.26.54-.38.79l-.39-.07c-.14,0-.29,0-.43-.07a.48.48,0,0,1-.39-.65c.1-.33.32-.43.67-.31Z"/><path class="cls-4" d="M6,19.33c-.25-.14-.51-.3-.78-.44a.43.43,0,0,1-.24-.6.44.44,0,0,1,.62-.23.67.67,0,0,1,.14.09A.49.49,0,0,1,6.61,18a.44.44,0,0,1,.07.61,5.77,5.77,0,0,1-.42.44Z"/><path class="cls-4" d="M22,2.22c.22-.31.46-.38.71-.22a.48.48,0,0,1,.17.71,3,3,0,0,1-.39.41l-.25.27-.84-.46a.42.42,0,0,1-.17-.58.44.44,0,0,1,.61-.22Z"/><path class="cls-4" d="M2.61,5.67c.43-.24.8-.08.81.35a.4.4,0,0,1-.26.4c-.27.14-.53.29-.79.44l-.28-.29a3.31,3.31,0,0,1-.32-.33.48.48,0,0,1,.1-.75c.26-.19.5-.14.71.16Z"/></g></g></svg>