<svg xmlns="http://www.w3.org/2000/svg" viewBox="0 0 38.55 24.66"><defs><style>.cls-1{isolation:isolate;}.cls-2{opacity:0.15;}.cls-2,.cls-3{mix-blend-mode:multiply;}.cls-4{fill:#fff;}</style></defs><title>convert-CUSTOMIZE-SVG-03</title><g class="cls-1"><g id="Layer_1" data-name="Layer 1"><g class="cls-2"><path d="M38.54,23.16c-.1-.41-.21-.82-.29-1.23-.26-1.22-.53-2.44-.77-3.66-.32-1.63-.63-3.26-.93-4.9-.23-1.29-.44-2.59-.67-3.89-.19-1.11-.4-2.22-.6-3.32a.65.65,0,0,1,0-.14l.34-.09.24,1c.33,1.41.65,2.82,1,4.23.52,2.19,1.07,4.38,1.61,6.57a1.8,1.8,0,0,0,.08.21Z"/><path d="M38.54,13.67c-.14-.44-.3-.88-.41-1.32-.44-1.82-.86-3.63-1.28-5.44-.05-.2-.08-.39-.14-.58s-.16-.46-.25-.71a.62.62,0,0,1,.78,0A2.23,2.23,0,0,1,38.33,7.1l.21.85Z"/><path d="M32.86,0c.07.31.12.62.19.93a.33.33,0,0,1-.09.37,2.3,2.3,0,0,0-.51,2.13c0,.17.07.33.1.49a1.91,1.91,0,0,1-.45-1c-.19-1-.37-2-.55-3Z"/><path d="M34.43,0l.2,1L34.1.84A.12.12,0,0,1,34,.76C34,.51,33.9.25,33.84,0Z"/><path d="M4,17.33a1.53,1.53,0,0,1,.8-.8,1.48,1.48,0,0,1,1.6.25,1.49,1.49,0,0,1,.2,1.63,3.2,3.2,0,0,1-1.43,1.48c-.58.33-1.21.6-1.82.89a.17.17,0,0,1-.17,0,7.79,7.79,0,0,1-1.82-2.54,2.21,2.21,0,0,1-.11-1.39,1.25,1.25,0,0,1,.9-1,1.44,1.44,0,0,1,1.47.5A1.54,1.54,0,0,1,4,17.33Z"/><path d="M35.31,2.89A4.1,4.1,0,0,1,36,2.41a1.36,1.36,0,0,1,1.74.66,1.4,1.4,0,0,1-.22,1.36A2.75,2.75,0,0,1,36,5.51c-.63.21-1.29.33-1.94.49-.14,0-.21,0-.28-.13a8.24,8.24,0,0,1-1.06-2.41,2.3,2.3,0,0,1,.14-1.59A1.18,1.18,0,0,1,34,1.11,1.38,1.38,0,0,1,35.24,2,1.27,1.27,0,0,1,35.31,2.89Z"/><path d="M8.8,24.64H7.16s-.11-.09-.13-.15c-.26-.76-.51-1.53-.76-2.3s-.44-1.38-.67-2.07a.18.18,0,0,1,.07-.23c.32-.27.62-.55,1-.84a1.94,1.94,0,0,1,.57.63,8.41,8.41,0,0,1,.69,1.83l.9,3A.84.84,0,0,0,8.8,24.64Z"/><path d="M2.9,15.53a4.38,4.38,0,0,1-.52,0s-.09-.09-.11-.15c-.35-1-.68-2-1-3S.44,10.14,0,9a.59.59,0,0,1,0-.22V4.68A.24.24,0,0,1,0,4.6C.79,8.29,1.91,11.89,2.9,15.53Z"/><path d="M3.11,21.09c.13,0,.27,0,.39-.08l1-.42,1.32,4H5l-.59-2.26h0l-.1,1H4.27l-.74-1-.8,1-.06,0,.38-2.27Z"/><path d="M2,19.8c.35.38.64.71.93,1a.14.14,0,0,1,0,.14,7.07,7.07,0,0,1-1,2,4.18,4.18,0,0,1-.31.34l-.07-1.77-1.15.35,0-.06Z"/><path d="M0,12.46c.18.61.37,1.21.55,1.81s.37,1.29.55,1.93a.3.3,0,0,1,0,.16A2.51,2.51,0,0,0,1,17.67,2.5,2.5,0,0,1,0,17.19.25.25,0,0,1,0,17V12.47Z"/><path d="M35.22,6.05a5.29,5.29,0,0,1-.15,2.59c-.23-.28-.45-.54-.65-.81a.24.24,0,0,0-.32-.09,1.63,1.63,0,0,0-.8.51,9.82,9.82,0,0,1,.35-2A5.19,5.19,0,0,0,35.22,6.05Z"/><path d="M31.52,4.57l1.17-.24c.2.4.4.79.59,1.18l.09.15c.23.4.24.41-.07.75a7.82,7.82,0,0,1-.72.69,1.6,1.6,0,0,1-.27.16c.07-.56.12-1.08.2-1.6a.36.36,0,0,0-.16-.39C32.08,5.07,31.82,4.83,31.52,4.57Z"/><path d="M11,22.09s0,0,0,0c.2-.24.39-.3.58-.2a.49.49,0,0,1,.16.62,1.8,1.8,0,0,1-.69.83.14.14,0,0,1-.14,0,1.88,1.88,0,0,1-.72-.86.43.43,0,0,1,.11-.52.48.48,0,0,1,.39-.08C10.8,21.89,10.89,22,11,22.09Z"/><path d="M24.19,22.12c.16-.25.35-.34.55-.26a.44.44,0,0,1,.24.55,1.72,1.72,0,0,1-.74.94.14.14,0,0,1-.11,0,1.87,1.87,0,0,1-.71-.84.48.48,0,0,1,.18-.63C23.8,21.78,24,21.85,24.19,22.12Z"/><path d="M13.51,22.11c.07-.07.13-.19.21-.21a.64.64,0,0,1,.41,0,.52.52,0,0,1,.18.41,1.55,1.55,0,0,1-.27.6,5.81,5.81,0,0,1-.5.49,1.89,1.89,0,0,1-.8-.95.44.44,0,0,1,.21-.58C13.15,21.78,13.34,21.86,13.51,22.11Z"/><path d="M21.65,22.11c.06-.07.12-.18.2-.2a.64.64,0,0,1,.41,0c.18.07.21.25.2.43a1.23,1.23,0,0,1-.44.75c-.43.38-.3.39-.74,0a2.21,2.21,0,0,1-.36-.49.53.53,0,0,1,.11-.7C21.23,21.77,21.44,21.84,21.65,22.11Z"/><path d="M16.07,22.12a.54.54,0,0,1,.07-.13.41.41,0,0,1,.46-.13.36.36,0,0,1,.25.35,1,1,0,0,1-.36.8c-.5.47-.37.47-.85,0a1.42,1.42,0,0,1-.32-.46.5.5,0,0,1,.13-.68C15.65,21.77,15.85,21.85,16.07,22.12Z"/><path d="M18.62,22.07l.08-.1a.35.35,0,0,1,.44-.1.5.5,0,0,1,.24.33.9.9,0,0,1-.13.51,4,4,0,0,1-.56.6.21.21,0,0,1-.17,0,1.78,1.78,0,0,1-.71-.87.48.48,0,0,1,.12-.54.38.38,0,0,1,.46,0A2.68,2.68,0,0,1,18.62,22.07Z"/><path d="M35.36,22.08c.12-.08.22-.2.35-.22a.51.51,0,0,1,.37.11.5.5,0,0,1,.06.56,2.1,2.1,0,0,1-.76.86,2.06,2.06,0,0,1-.76-.87.51.51,0,0,1,.15-.64C35,21.77,35.18,21.84,35.36,22.08Z"/><path d="M32.29,22.08a1.5,1.5,0,0,1,.25-.19.37.37,0,0,1,.57.32,2.32,2.32,0,0,1-.19.6.47.47,0,0,1-.06.09c-.46.55-.65.55-1.08,0a1.68,1.68,0,0,1-.25-.5.43.43,0,0,1,.21-.52.41.41,0,0,1,.54.2S32.31,22.1,32.29,22.08Z"/><path d="M26.73,22.11c.11-.21.28-.33.49-.26a.45.45,0,0,1,.28.29.83.83,0,0,1-.1.54,4.34,4.34,0,0,1-.58.63.19.19,0,0,1-.18,0,1.84,1.84,0,0,1-.67-.79.49.49,0,0,1,.15-.65C26.32,21.77,26.52,21.85,26.73,22.11Z"/><path d="M29.26,22.11c.19-.26.4-.34.6-.23a.47.47,0,0,1,.16.61,1.82,1.82,0,0,1-.7.85.14.14,0,0,1-.14,0q-.34-.36-.66-.75a.6.6,0,0,1-.06-.27.39.39,0,0,1,.24-.44.42.42,0,0,1,.51.19A.13.13,0,0,0,29.26,22.11Z"/><path d="M2.93,1.76c.23-.24.4-.29.57-.17a.47.47,0,0,1,.08.65A8.14,8.14,0,0,1,3,3a2,2,0,0,1-.7-.76c-.12-.28-.09-.51.1-.63S2.72,1.53,2.93,1.76Z"/><path d="M5.19,3c-.22-.25-.42-.48-.61-.73A.55.55,0,0,1,4.5,2a.36.36,0,0,1,.23-.41.37.37,0,0,1,.43.15l.06.09.06-.07a.35.35,0,0,1,.45-.16A.36.36,0,0,1,5.94,2a2.66,2.66,0,0,1-.34.59A3.15,3.15,0,0,1,5.19,3Z"/><path d="M9.8,1.78c.2-.24.38-.3.55-.2a.44.44,0,0,1,.14.58,1.62,1.62,0,0,1-.61.71.15.15,0,0,1-.16,0,1.54,1.54,0,0,1-.6-.71.7.7,0,0,1,0-.35.35.35,0,0,1,.61-.16Z"/><path d="M22.21,1.79l.06-.09a.35.35,0,0,1,.44-.14.37.37,0,0,1,.22.44,1.31,1.31,0,0,1-.51.77,1.93,1.93,0,0,1-.21.17,1.84,1.84,0,0,1-.67-.74.46.46,0,0,1,.12-.62C21.84,1.47,22,1.54,22.21,1.79Z"/><path d="M7.5,1.78c.08-.08.14-.17.21-.19s.3-.05.37,0A.58.58,0,0,1,8.23,2a1.55,1.55,0,0,1-.75,1c-.18-.2-.38-.39-.55-.61A.83.83,0,0,1,6.79,2,.37.37,0,0,1,7,1.55C7.19,1.48,7.35,1.56,7.5,1.78Z"/><path d="M25,1.79c.18-.25.36-.32.54-.22a.44.44,0,0,1,.15.57,1.82,1.82,0,0,1-.72.82c-.2-.22-.4-.42-.57-.64a.73.73,0,0,1-.12-.3.4.4,0,0,1,.2-.46C24.63,1.48,24.8,1.56,25,1.79Z"/><path d="M27.75,1.75c.17-.21.37-.28.54-.17a.48.48,0,0,1,.14.57,1.75,1.75,0,0,1-.62.73.14.14,0,0,1-.15,0A1.66,1.66,0,0,1,27,2.1a.45.45,0,0,1,.12-.5.35.35,0,0,1,.42,0Z"/><path d="M19.44,1.79c.17-.24.36-.31.54-.22a.46.46,0,0,1,.15.58,1.74,1.74,0,0,1-.63.74.14.14,0,0,1-.14,0c-.19-.19-.37-.4-.55-.6a.41.41,0,0,1-.07-.15.45.45,0,0,1,.17-.56C19.09,1.48,19.27,1.55,19.44,1.79Z"/><path d="M17.16,1.77c.17-.23.35-.29.53-.2a.46.46,0,0,1,.15.58,1.8,1.8,0,0,1-.61.73s-.13,0-.15,0a5.34,5.34,0,0,1-.59-.67.45.45,0,0,1,.1-.63C16.76,1.47,16.94,1.53,17.16,1.77Z"/><path d="M14.86,1.79c0-.06.07-.13.11-.14s.27-.12.38-.08a.36.36,0,0,1,.22.29,1.29,1.29,0,0,1-.19.58c-.4.57-.62.56-1,0a1.3,1.3,0,0,1-.19-.37.41.41,0,0,1,.2-.52C14.53,1.48,14.7,1.56,14.86,1.79Z"/><path d="M12.57,1.78c.19-.24.37-.3.55-.2a.45.45,0,0,1,.14.56,1.7,1.7,0,0,1-.61.74s-.14,0-.16,0c-.2-.2-.39-.42-.57-.64a.25.25,0,0,1,0-.07A.48.48,0,0,1,12,1.57C12.2,1.48,12.38,1.54,12.57,1.78Z"/><path d="M38.74,23.36c-.1-.41-.21-.82-.29-1.23-.26-1.22-.53-2.44-.77-3.66-.32-1.63-.63-3.26-.93-4.9-.23-1.29-.44-2.59-.67-3.89-.2-1.11-.4-2.22-.61-3.32V6.22l.34-.09c.09.34.17.67.25,1,.33,1.42.64,2.83,1,4.24.53,2.19,1.08,4.38,1.62,6.56a1.43,1.43,0,0,0,.08.22Z"/><path d="M38.74,13.87c-.14-.44-.3-.88-.41-1.33-.44-1.81-.86-3.62-1.29-5.44,0-.19-.07-.38-.13-.57s-.16-.46-.25-.71a.62.62,0,0,1,.77-.06,2.26,2.26,0,0,1,1.1,1.53l.21.86Z"/><path d="M33.06.18c.06.31.12.63.19.93a.36.36,0,0,1-.09.38,2.29,2.29,0,0,0-.51,2.13c0,.16.07.33.09.49a1.89,1.89,0,0,1-.44-1c-.19-1-.37-2-.55-3Z"/><path d="M34.63.18l.2,1L34.29,1A.16.16,0,0,1,34.21,1C34.15.7,34.09.44,34,.18Z"/><path d="M4.22,17.53a1.53,1.53,0,0,1,.8-.8,1.48,1.48,0,0,1,1.6.25,1.46,1.46,0,0,1,.19,1.62,3.11,3.11,0,0,1-1.42,1.49c-.59.33-1.21.6-1.82.89a.17.17,0,0,1-.17,0,7.65,7.65,0,0,1-1.82-2.54A2.29,2.29,0,0,1,1.46,17a1.27,1.27,0,0,1,.91-1,1.42,1.42,0,0,1,1.46.5A1.53,1.53,0,0,1,4.22,17.53Z"/><path d="M35.51,3.08a3.89,3.89,0,0,1,.72-.47A1.33,1.33,0,0,1,38,3.27a1.39,1.39,0,0,1-.21,1.36A2.8,2.8,0,0,1,36.2,5.71c-.63.21-1.29.33-1.94.49-.14,0-.21,0-.28-.13a8.24,8.24,0,0,1-1.06-2.41,2.3,2.3,0,0,1,.14-1.59,1.17,1.17,0,0,1,1.13-.77,1.4,1.4,0,0,1,1.25.88A1.3,1.3,0,0,1,35.51,3.08Z"/><path d="M9,24.84H7.36c-.05,0-.11-.09-.13-.15-.26-.76-.51-1.53-.76-2.3S6,21,5.8,20.31a.18.18,0,0,1,.07-.23l1-.84a1.94,1.94,0,0,1,.57.63,8.41,8.41,0,0,1,.69,1.83c.29,1,.6,2,.89,3A.41.41,0,0,1,9,24.84Z"/><path d="M3.1,15.73a4.38,4.38,0,0,1-.52,0s-.09-.09-.11-.15c-.35-1-.68-2-1-3S.64,10.34.24,9.23A.59.59,0,0,1,.19,9V4.88a.12.12,0,0,1,0-.08C1,8.49,2.11,12.08,3.1,15.73Z"/><path d="M3.31,21.29a2.74,2.74,0,0,0,.39-.09c.32-.12.65-.27,1-.41l1.32,4H5.24l-.6-2.26h0l-.1,1h0l-.75-1-.79.95H2.87l.37-2.27Z"/><path d="M2.18,20l.92,1a.21.21,0,0,1,0,.15,7.07,7.07,0,0,1-1,2,4.55,4.55,0,0,1-.32.34l-.06-1.77-1.15.35L.59,22Z"/><path d="M.24,12.66c.18.6.37,1.21.54,1.81s.37,1.29.56,1.93a.3.3,0,0,1,0,.16,2.51,2.51,0,0,0-.18,1.31,2.5,2.5,0,0,1-.93-.48.25.25,0,0,1,0-.15V12.67Z"/><path d="M35.42,6.25a5.43,5.43,0,0,1-.15,2.59c-.23-.29-.45-.54-.65-.81a.24.24,0,0,0-.32-.09,1.63,1.63,0,0,0-.8.51,9.82,9.82,0,0,1,.35-2A5.19,5.19,0,0,0,35.42,6.25Z"/><path d="M31.72,4.76l1.17-.24c.2.4.39.8.59,1.19a1.09,1.09,0,0,1,.08.15c.24.4.25.41-.06.75s-.48.46-.72.69a1.6,1.6,0,0,1-.27.16c.07-.56.12-1.08.2-1.6a.37.37,0,0,0-.16-.39C32.27,5.26,32,5,31.72,4.76Z"/><path d="M11.2,22.28h0c.2-.24.38-.31.58-.2a.48.48,0,0,1,.16.62,1.8,1.8,0,0,1-.69.83.2.2,0,0,1-.15,0,1.92,1.92,0,0,1-.71-.86.45.45,0,0,1,.11-.53.5.5,0,0,1,.38-.07C11,22.09,11.09,22.2,11.2,22.28Z"/><path d="M24.39,22.32c.16-.25.35-.34.55-.27a.46.46,0,0,1,.24.55,1.7,1.7,0,0,1-.74.94.11.11,0,0,1-.11,0,1.87,1.87,0,0,1-.71-.84.48.48,0,0,1,.18-.63C24,22,24.2,22.05,24.39,22.32Z"/><path d="M13.71,22.31c.07-.08.13-.19.21-.21s.32-.07.41,0a.51.51,0,0,1,.18.41,1.71,1.71,0,0,1-.27.6,4.78,4.78,0,0,1-.51.49,1.92,1.92,0,0,1-.79-1,.45.45,0,0,1,.2-.58Q13.45,21.94,13.71,22.31Z"/><path d="M21.85,22.3c.06-.07.12-.18.2-.2a.72.72,0,0,1,.41,0c.18.06.21.25.19.43a1.18,1.18,0,0,1-.43.75c-.43.38-.31.39-.74,0a2.15,2.15,0,0,1-.36-.48.52.52,0,0,1,.11-.7C21.43,22,21.64,22,21.85,22.3Z"/><path d="M16.26,22.32l.08-.13a.42.42,0,0,1,.46-.14.37.37,0,0,1,.25.36,1,1,0,0,1-.36.8c-.5.47-.37.47-.86,0a1.7,1.7,0,0,1-.32-.47.5.5,0,0,1,.14-.67C15.85,22,16.05,22,16.26,22.32Z"/><path d="M18.82,22.27l.08-.1a.35.35,0,0,1,.44-.11.54.54,0,0,1,.24.34.9.9,0,0,1-.13.51,4.53,4.53,0,0,1-.56.6.19.19,0,0,1-.18,0,1.75,1.75,0,0,1-.7-.86.46.46,0,0,1,.12-.54.39.39,0,0,1,.46,0Z"/><path d="M35.56,22.28c.12-.08.22-.2.34-.22a.52.52,0,0,1,.38.11.48.48,0,0,1,.06.55,2.06,2.06,0,0,1-.76.87,2,2,0,0,1-.76-.87.51.51,0,0,1,.15-.64C35.17,22,35.38,22,35.56,22.28Z"/><path d="M32.48,22.28a2.07,2.07,0,0,1,.25-.19.37.37,0,0,1,.58.31,2.27,2.27,0,0,1-.19.61.47.47,0,0,1-.06.09c-.46.55-.65.55-1.08,0a1.71,1.71,0,0,1-.26-.5.42.42,0,0,1,.22-.52.4.4,0,0,1,.53.2Z"/><path d="M26.93,22.31c.11-.21.28-.33.49-.26a.45.45,0,0,1,.28.29.83.83,0,0,1-.1.54,4.92,4.92,0,0,1-.58.63.19.19,0,0,1-.18,0,1.93,1.93,0,0,1-.68-.79.5.5,0,0,1,.16-.65C26.51,22,26.72,22.05,26.93,22.31Z"/><path d="M29.46,22.31c.19-.26.4-.34.6-.23a.47.47,0,0,1,.16.61,1.74,1.74,0,0,1-.7.84.14.14,0,0,1-.15,0c-.22-.25-.44-.49-.65-.76a.44.44,0,0,1-.06-.26.39.39,0,0,1,.24-.44.42.42,0,0,1,.51.19Z"/><path d="M3.13,2c.23-.24.4-.29.57-.17a.46.46,0,0,1,.07.65,6.62,6.62,0,0,1-.6.73,2.09,2.09,0,0,1-.7-.76c-.13-.28-.09-.51.1-.63S2.92,1.73,3.13,2Z"/><path d="M5.39,3.18c-.22-.26-.42-.48-.61-.73a.59.59,0,0,1-.09-.3.36.36,0,0,1,.24-.4.37.37,0,0,1,.43.15A.35.35,0,0,1,5.42,2a.35.35,0,0,0,0-.08.37.37,0,0,1,.67.31,2.66,2.66,0,0,1-.34.59A3.15,3.15,0,0,1,5.39,3.18Z"/><path d="M10,2c.19-.24.37-.31.55-.21a.47.47,0,0,1,.14.59,1.68,1.68,0,0,1-.61.71.15.15,0,0,1-.16,0,1.56,1.56,0,0,1-.6-.72.66.66,0,0,1,0-.34.35.35,0,0,1,.61-.16Z"/><path d="M22.41,2l.06-.09a.34.34,0,0,1,.44-.14.37.37,0,0,1,.22.43,1.3,1.3,0,0,1-.51.78,1.93,1.93,0,0,1-.21.17,1.84,1.84,0,0,1-.67-.74.46.46,0,0,1,.11-.62C22,1.67,22.22,1.74,22.41,2Z"/><path d="M7.7,2c.08-.07.13-.17.21-.18s.3-.05.37,0a.61.61,0,0,1,.15.41,1.58,1.58,0,0,1-.75,1,8,8,0,0,1-.55-.61A.74.74,0,0,1,7,2.16a.36.36,0,0,1,.22-.41C7.39,1.68,7.54,1.76,7.7,2Z"/><path d="M25.17,2c.18-.25.36-.32.54-.22a.45.45,0,0,1,.15.56,1.81,1.81,0,0,1-.73.83c-.19-.22-.39-.42-.57-.65a.68.68,0,0,1-.11-.29.39.39,0,0,1,.2-.46C24.83,1.68,25,1.75,25.17,2Z"/><path d="M28,2c.17-.21.36-.28.54-.17a.47.47,0,0,1,.13.57,1.73,1.73,0,0,1-.61.73.19.19,0,0,1-.15,0,1.66,1.66,0,0,1-.63-.78.43.43,0,0,1,.12-.5.33.33,0,0,1,.42,0Z"/><path d="M19.64,2c.17-.23.36-.31.53-.21a.44.44,0,0,1,.16.57,1.71,1.71,0,0,1-.63.75.16.16,0,0,1-.15,0L19,2.47a.39.39,0,0,1-.06-.15.45.45,0,0,1,.17-.56C19.29,1.68,19.47,1.75,19.64,2Z"/><path d="M17.36,2c.17-.23.35-.29.53-.2a.46.46,0,0,1,.15.58,1.75,1.75,0,0,1-.62.73s-.12,0-.14,0a4.71,4.71,0,0,1-.59-.68.44.44,0,0,1,.1-.62C17,1.67,17.14,1.73,17.36,2Z"/><path d="M15.05,2c0-.06.07-.13.12-.14a.6.6,0,0,1,.38-.08.38.38,0,0,1,.22.29,1.19,1.19,0,0,1-.2.58c-.4.57-.61.56-1,0a1.3,1.3,0,0,1-.19-.37.42.42,0,0,1,.2-.53C14.73,1.68,14.9,1.76,15.05,2Z"/><path d="M12.77,2c.18-.23.37-.3.54-.2a.46.46,0,0,1,.15.57,1.67,1.67,0,0,1-.61.73s-.14,0-.16,0c-.2-.21-.39-.42-.57-.64a.25.25,0,0,1,0-.07.48.48,0,0,1,.14-.59C12.4,1.67,12.58,1.74,12.77,2Z"/></g><g class="cls-3"><path d="M38.4,23c-.1-.41-.21-.82-.29-1.23-.26-1.22-.53-2.44-.77-3.66-.32-1.63-.63-3.26-.93-4.9-.23-1.29-.44-2.59-.67-3.89-.2-1.11-.4-2.22-.61-3.33V5.88l.34-.09c.09.34.17.67.25,1,.33,1.42.64,2.83,1,4.24.53,2.19,1.08,4.38,1.62,6.56a1.43,1.43,0,0,0,.08.22Z"/><path d="M38.4,13.53c-.14-.44-.3-.88-.41-1.33-.44-1.81-.86-3.62-1.29-5.44,0-.19-.07-.38-.13-.57s-.16-.46-.25-.71a.62.62,0,0,1,.77-.06A2.26,2.26,0,0,1,38.19,7l.21.86Z"/><path d="M32.72-.16c.06.31.12.63.19.93a.36.36,0,0,1-.09.38,2.29,2.29,0,0,0-.51,2.13c0,.16.07.32.09.49a1.89,1.89,0,0,1-.44-1c-.19-1-.37-2-.55-3Z"/><path d="M34.29-.16l.2,1L34,.7a.16.16,0,0,1-.08-.08c-.06-.26-.12-.52-.17-.78Z"/><path d="M3.88,17.19a1.53,1.53,0,0,1,.8-.8,1.48,1.48,0,0,1,1.6.25,1.46,1.46,0,0,1,.19,1.62,3.11,3.11,0,0,1-1.42,1.49c-.59.33-1.21.6-1.82.89a.17.17,0,0,1-.17,0,7.65,7.65,0,0,1-1.82-2.54,2.29,2.29,0,0,1-.12-1.39,1.27,1.27,0,0,1,.91-1,1.42,1.42,0,0,1,1.46.5A1.53,1.53,0,0,1,3.88,17.19Z"/><path d="M35.17,2.74a3.89,3.89,0,0,1,.72-.47,1.33,1.33,0,0,1,1.73.66,1.39,1.39,0,0,1-.21,1.36,2.8,2.8,0,0,1-1.55,1.08c-.63.21-1.29.33-1.94.49-.14,0-.21,0-.28-.13a8.24,8.24,0,0,1-1.06-2.41,2.3,2.3,0,0,1,.14-1.59A1.17,1.17,0,0,1,33.85,1a1.4,1.4,0,0,1,1.25.88A1.3,1.3,0,0,1,35.17,2.74Z"/><path d="M8.66,24.5H7s-.11-.09-.13-.15c-.26-.76-.51-1.53-.76-2.3S5.69,20.66,5.46,20a.18.18,0,0,1,.07-.23l1-.84a1.94,1.94,0,0,1,.57.63,8.41,8.41,0,0,1,.69,1.83c.29,1,.59,2,.89,3A.41.41,0,0,1,8.66,24.5Z"/><path d="M2.76,15.39a4.22,4.22,0,0,1-.52,0s-.09-.09-.11-.15c-.35-1-.68-2-1-3S.3,10-.1,8.89a.59.59,0,0,1,0-.23V4.54a.12.12,0,0,1,0-.08C.65,8.15,1.77,11.74,2.76,15.39Z"/><path d="M3,21a2.74,2.74,0,0,0,.39-.09c.32-.12.65-.27,1-.41l1.32,4H4.9l-.6-2.26h0l-.1,1h0l-.75-1-.79.95H2.53l.37-2.27Z"/><path d="M1.84,19.66l.92,1a.21.21,0,0,1,0,.15,7.07,7.07,0,0,1-1,2,4.55,4.55,0,0,1-.32.34l-.06-1.78L.3,21.75l0-.06Z"/><path d="M-.1,12.32c.18.6.37,1.21.54,1.81s.37,1.29.56,1.93a.3.3,0,0,1,0,.16,2.51,2.51,0,0,0-.18,1.31,2.5,2.5,0,0,1-.93-.48.25.25,0,0,1,0-.15V12.33Z"/><path d="M35.08,5.91a5.43,5.43,0,0,1-.15,2.59c-.23-.29-.45-.54-.65-.81A.24.24,0,0,0,34,7.6a1.63,1.63,0,0,0-.8.51,9.82,9.82,0,0,1,.35-2A5.19,5.19,0,0,0,35.08,5.91Z"/><path d="M31.38,4.42l1.17-.24c.2.4.39.8.59,1.19a1.09,1.09,0,0,1,.08.15c.24.4.25.41-.06.75s-.48.46-.72.69a1.6,1.6,0,0,1-.27.16c.07-.56.12-1.08.2-1.6a.37.37,0,0,0-.16-.39C31.93,4.92,31.68,4.69,31.38,4.42Z"/><path d="M10.86,21.94h0c.2-.24.38-.31.58-.2a.49.49,0,0,1,.16.62,1.8,1.8,0,0,1-.69.83.2.2,0,0,1-.15,0,1.92,1.92,0,0,1-.71-.86.45.45,0,0,1,.11-.53.5.5,0,0,1,.38-.07C10.66,21.75,10.75,21.86,10.86,21.94Z"/><path d="M24.05,22c.16-.25.35-.34.55-.27a.44.44,0,0,1,.23.55,1.67,1.67,0,0,1-.73.94.11.11,0,0,1-.11,0,1.87,1.87,0,0,1-.71-.84.48.48,0,0,1,.18-.63C23.66,21.63,23.86,21.71,24.05,22Z"/><path d="M13.37,22c.07-.08.13-.19.21-.21s.32-.07.41,0a.51.51,0,0,1,.18.41,1.71,1.71,0,0,1-.27.6,4.78,4.78,0,0,1-.51.49,1.92,1.92,0,0,1-.79-1,.45.45,0,0,1,.2-.58Q13.11,21.6,13.37,22Z"/><path d="M21.51,22c.06-.07.12-.18.2-.2a.72.72,0,0,1,.41,0c.18.06.21.25.19.43a1.18,1.18,0,0,1-.43.75c-.43.38-.31.39-.74,0a2.15,2.15,0,0,1-.36-.48.52.52,0,0,1,.11-.7C21.09,21.62,21.3,21.7,21.51,22Z"/><path d="M15.92,22l.08-.13a.42.42,0,0,1,.46-.14.37.37,0,0,1,.25.36,1,1,0,0,1-.36.8c-.5.47-.37.47-.86,0a1.7,1.7,0,0,1-.32-.47.5.5,0,0,1,.14-.67C15.51,21.63,15.71,21.7,15.92,22Z"/><path d="M18.48,21.93l.08-.1a.35.35,0,0,1,.44-.11.54.54,0,0,1,.24.34.9.9,0,0,1-.13.51,4.53,4.53,0,0,1-.56.6.19.19,0,0,1-.18,0,1.75,1.75,0,0,1-.7-.86.46.46,0,0,1,.12-.54.39.39,0,0,1,.46,0Z"/><path d="M35.22,21.94c.12-.08.22-.2.34-.22a.52.52,0,0,1,.38.11.47.47,0,0,1,.05.55,2,2,0,0,1-.75.87,2,2,0,0,1-.76-.87.51.51,0,0,1,.15-.64C34.83,21.63,35,21.7,35.22,21.94Z"/><path d="M32.14,21.94a2.07,2.07,0,0,1,.25-.19.37.37,0,0,1,.58.31,2.27,2.27,0,0,1-.19.61.47.47,0,0,1-.06.09c-.46.55-.65.55-1.08,0a1.64,1.64,0,0,1-.26-.51.41.41,0,0,1,.22-.51.4.4,0,0,1,.53.2Z"/><path d="M26.59,22c.11-.21.28-.33.49-.26a.45.45,0,0,1,.28.29.83.83,0,0,1-.1.54,4.92,4.92,0,0,1-.58.63.19.19,0,0,1-.18,0,1.93,1.93,0,0,1-.68-.79.5.5,0,0,1,.16-.65C26.17,21.63,26.38,21.71,26.59,22Z"/><path d="M29.12,22c.19-.26.4-.34.59-.23a.46.46,0,0,1,.17.61,1.74,1.74,0,0,1-.7.84.14.14,0,0,1-.15,0c-.22-.25-.44-.49-.65-.76a.44.44,0,0,1-.06-.26.39.39,0,0,1,.24-.44.42.42,0,0,1,.51.19Z"/><path d="M2.79,1.62c.23-.24.4-.29.57-.17a.46.46,0,0,1,.07.65,6.62,6.62,0,0,1-.6.73,2.09,2.09,0,0,1-.7-.76c-.13-.28-.09-.51.1-.63S2.58,1.39,2.79,1.62Z"/><path d="M5.05,2.84c-.22-.26-.42-.48-.61-.73a.59.59,0,0,1-.09-.3.35.35,0,0,1,.24-.4A.37.37,0,0,1,5,1.56a.35.35,0,0,1,.06.09.35.35,0,0,0,0-.08.37.37,0,0,1,.67.31,2.66,2.66,0,0,1-.34.59A3.15,3.15,0,0,1,5.05,2.84Z"/><path d="M9.66,1.64c.19-.24.37-.31.55-.21a.47.47,0,0,1,.14.59,1.68,1.68,0,0,1-.61.71.15.15,0,0,1-.16,0A1.56,1.56,0,0,1,9,2a.66.66,0,0,1,0-.34.35.35,0,0,1,.61-.16Z"/><path d="M22.07,1.65l.06-.09a.34.34,0,0,1,.44-.14.37.37,0,0,1,.22.43,1.3,1.3,0,0,1-.51.78,1.93,1.93,0,0,1-.21.17,1.94,1.94,0,0,1-.68-.74.48.48,0,0,1,.12-.62C21.7,1.33,21.88,1.4,22.07,1.65Z"/><path d="M7.36,1.63c.08-.07.13-.17.21-.18s.3-.05.37,0a.61.61,0,0,1,.15.41,1.58,1.58,0,0,1-.75.95,8,8,0,0,1-.55-.61.74.74,0,0,1-.14-.39.36.36,0,0,1,.22-.41C7.05,1.34,7.2,1.42,7.36,1.63Z"/><path d="M24.83,1.65c.18-.25.36-.32.54-.22a.45.45,0,0,1,.15.56,1.81,1.81,0,0,1-.73.83c-.19-.22-.39-.42-.57-.65a.68.68,0,0,1-.11-.29.39.39,0,0,1,.2-.46C24.49,1.34,24.66,1.41,24.83,1.65Z"/><path d="M27.61,1.61c.17-.21.36-.28.54-.17a.47.47,0,0,1,.13.57,1.73,1.73,0,0,1-.61.73.19.19,0,0,1-.15,0A1.66,1.66,0,0,1,26.89,2a.43.43,0,0,1,.12-.5.33.33,0,0,1,.42,0Z"/><path d="M19.3,1.64c.17-.23.36-.31.53-.21A.44.44,0,0,1,20,2a1.71,1.71,0,0,1-.63.75.16.16,0,0,1-.15,0l-.55-.6A.38.38,0,0,1,18.6,2a.44.44,0,0,1,.17-.55C19,1.34,19.13,1.41,19.3,1.64Z"/><path d="M17,1.63c.17-.23.35-.29.53-.2A.46.46,0,0,1,17.7,2a1.75,1.75,0,0,1-.62.73s-.12,0-.14,0a4.71,4.71,0,0,1-.59-.68.44.44,0,0,1,.1-.62C16.62,1.33,16.8,1.39,17,1.63Z"/><path d="M14.71,1.65c0-.06.07-.13.12-.14a.6.6,0,0,1,.38-.08.38.38,0,0,1,.22.29,1.19,1.19,0,0,1-.2.58c-.4.57-.61.56-1,0A1.3,1.3,0,0,1,14,1.94a.42.42,0,0,1,.2-.53C14.39,1.34,14.56,1.42,14.71,1.65Z"/><path d="M12.43,1.63c.18-.23.37-.3.54-.2a.46.46,0,0,1,.15.57,1.67,1.67,0,0,1-.61.73s-.14,0-.16,0c-.2-.21-.39-.42-.57-.64a.25.25,0,0,1,0-.07.48.48,0,0,1,.14-.59C12.06,1.33,12.24,1.4,12.43,1.63Z"/></g><path class="cls-4" d="M38.6,23.21c-.1-.4-.21-.81-.3-1.22-.26-1.22-.52-2.44-.76-3.66-.32-1.63-.63-3.26-.93-4.9-.24-1.29-.44-2.6-.67-3.89-.2-1.11-.41-2.22-.61-3.33V6.08l.34-.1c.09.35.17.68.25,1,.33,1.42.64,2.83,1,4.24.53,2.19,1.08,4.38,1.62,6.56a.9.9,0,0,0,.08.21Z"/><path class="cls-4" d="M38.6,13.73c-.14-.45-.3-.88-.41-1.33-.44-1.81-.86-3.62-1.29-5.44,0-.19-.07-.38-.13-.57s-.16-.46-.25-.71a.61.61,0,0,1,.77-.06,2.25,2.25,0,0,1,1.09,1.53c.07.29.15.57.22.86Z"/><path class="cls-4" d="M32.92,0c.06.31.12.62.19.93a.39.39,0,0,1-.09.38,2.29,2.29,0,0,0-.51,2.13c0,.16.07.32.09.49a1.89,1.89,0,0,1-.44-1c-.19-1-.37-2-.55-3Z"/><path class="cls-4" d="M34.49,0l.2,1L34.15.9a.16.16,0,0,1-.08-.08L33.89,0Z"/><path class="cls-4" d="M4.07,17.39a1.54,1.54,0,0,1,.81-.8,1.48,1.48,0,0,1,1.6.25,1.48,1.48,0,0,1,.19,1.62,3.05,3.05,0,0,1-1.42,1.48c-.59.34-1.21.61-1.82.9a.19.19,0,0,1-.18,0,7.87,7.87,0,0,1-1.81-2.54,2.29,2.29,0,0,1-.12-1.39,1.26,1.26,0,0,1,.91-1,1.43,1.43,0,0,1,1.46.49A1.5,1.5,0,0,1,4.07,17.39Z"/><path class="cls-4" d="M35.37,2.94a3.89,3.89,0,0,1,.72-.47,1.33,1.33,0,0,1,1.73.66,1.4,1.4,0,0,1-.21,1.36,2.8,2.8,0,0,1-1.55,1.08c-.63.2-1.29.33-1.94.49-.14,0-.21,0-.28-.14a8.18,8.18,0,0,1-1.06-2.4,2.3,2.3,0,0,1,.13-1.59,1.2,1.2,0,0,1,1.14-.77A1.4,1.4,0,0,1,35.3,2,1.3,1.3,0,0,1,35.37,2.94Z"/><path class="cls-4" d="M8.85,24.7H7.22s-.12-.09-.14-.15c-.25-.77-.51-1.53-.75-2.3s-.44-1.39-.67-2.07a.18.18,0,0,1,.07-.23l.95-.84a1.82,1.82,0,0,1,.56.63,8,8,0,0,1,.7,1.83c.29,1,.59,2,.89,3A.56.56,0,0,1,8.85,24.7Z"/><path class="cls-4" d="M3,15.59l-.52,0s-.1-.1-.12-.15c-.34-1-.67-2-1-3L.09,9.09a.85.85,0,0,1,0-.23V4.73a.1.1,0,0,1,0-.07C.85,8.34,2,11.94,3,15.59Z"/><path class="cls-4" d="M3.16,21.15a2.59,2.59,0,0,0,.4-.09c.32-.12.64-.27,1-.42l1.32,4.05H5.1l-.6-2.26h0l-.09,1h0l-.75-1-.79.95-.06,0,.37-2.26Z"/><path class="cls-4" d="M2,19.86c.34.38.64.7.92,1A.21.21,0,0,1,3,21a6.88,6.88,0,0,1-1,2,4.47,4.47,0,0,1-.32.35l-.06-1.78L.5,21.94l-.06-.05Z"/><path class="cls-4" d="M.09,12.52c.19.6.37,1.21.55,1.81s.37,1.29.55,1.93a.23.23,0,0,1,0,.16A2.42,2.42,0,0,0,1,17.73a2.57,2.57,0,0,1-.93-.48.25.25,0,0,1,0-.15V12.53Z"/><path class="cls-4" d="M35.28,6.11a5.56,5.56,0,0,1-.15,2.59c-.24-.29-.45-.54-.66-.81a.24.24,0,0,0-.32-.09,1.64,1.64,0,0,0-.79.51,9.82,9.82,0,0,1,.35-2A5.19,5.19,0,0,0,35.28,6.11Z"/><path class="cls-4" d="M31.57,4.62l1.17-.24.6,1.19a1.09,1.09,0,0,0,.08.15c.23.4.24.41-.06.75s-.48.46-.72.68a1.14,1.14,0,0,1-.27.17c.07-.56.12-1.08.2-1.61a.36.36,0,0,0-.16-.38C32.13,5.12,31.88,4.89,31.57,4.62Z"/><path class="cls-4" d="M11.06,22.14h0c.19-.23.38-.3.58-.19a.48.48,0,0,1,.16.61,1.87,1.87,0,0,1-.69.83.16.16,0,0,1-.15,0,1.84,1.84,0,0,1-.71-.87.43.43,0,0,1,.11-.52.55.55,0,0,1,.38-.08C10.86,21.94,11,22.06,11.06,22.14Z"/><path class="cls-4" d="M24.25,22.18c.16-.25.35-.34.55-.27a.44.44,0,0,1,.23.55,1.67,1.67,0,0,1-.73.94.11.11,0,0,1-.11,0,1.87,1.87,0,0,1-.71-.84.48.48,0,0,1,.18-.63C23.86,21.83,24.05,21.91,24.25,22.18Z"/><path class="cls-4" d="M13.57,22.17c.07-.08.13-.19.21-.21a.53.53,0,0,1,.41,0,.54.54,0,0,1,.18.41,1.57,1.57,0,0,1-.28.6,3.88,3.88,0,0,1-.5.49,1.9,1.9,0,0,1-.79-1,.46.46,0,0,1,.2-.58C13.21,21.83,13.39,21.91,13.57,22.17Z"/><path class="cls-4" d="M21.71,22.16c.06-.07.12-.18.19-.2a.86.86,0,0,1,.42,0,.39.39,0,0,1,.19.44,1.18,1.18,0,0,1-.43.75c-.43.38-.31.39-.74,0a1.89,1.89,0,0,1-.36-.48.53.53,0,0,1,.11-.71C21.29,21.82,21.5,21.9,21.71,22.16Z"/><path class="cls-4" d="M16.12,22.17a1.25,1.25,0,0,1,.08-.12.42.42,0,0,1,.46-.14.36.36,0,0,1,.25.36,1,1,0,0,1-.36.8c-.5.47-.38.47-.86,0a1.7,1.7,0,0,1-.32-.47.5.5,0,0,1,.14-.67C15.71,21.83,15.91,21.9,16.12,22.17Z"/><path class="cls-4" d="M18.67,22.13l.09-.1a.35.35,0,0,1,.44-.11.55.55,0,0,1,.24.33.87.87,0,0,1-.14.52,4.37,4.37,0,0,1-.55.59.17.17,0,0,1-.18,0,1.79,1.79,0,0,1-.7-.86A.46.46,0,0,1,18,22a.36.36,0,0,1,.45,0A1.21,1.21,0,0,1,18.67,22.13Z"/><path class="cls-4" d="M35.41,22.14c.13-.08.23-.2.35-.22a.43.43,0,0,1,.43.66,1.9,1.9,0,0,1-.75.86,1.86,1.86,0,0,1-.76-.86.51.51,0,0,1,.15-.64C35,21.83,35.24,21.9,35.41,22.14Z"/><path class="cls-4" d="M32.34,22.14a1.38,1.38,0,0,1,.25-.19.37.37,0,0,1,.58.31,2.27,2.27,0,0,1-.19.61.18.18,0,0,1-.07.08c-.45.56-.64.56-1.08,0a1.67,1.67,0,0,1-.25-.5.43.43,0,0,1,.22-.52.42.42,0,0,1,.53.21Z"/><path class="cls-4" d="M26.79,22.17c.11-.21.28-.33.49-.26a.45.45,0,0,1,.28.29.86.86,0,0,1-.11.54,4.22,4.22,0,0,1-.57.63.19.19,0,0,1-.18,0,1.86,1.86,0,0,1-.68-.79.51.51,0,0,1,.16-.66C26.37,21.83,26.58,21.9,26.79,22.17Z"/><path class="cls-4" d="M29.31,22.17c.2-.26.41-.34.6-.23a.47.47,0,0,1,.17.61,1.71,1.71,0,0,1-.71.84.12.12,0,0,1-.14,0c-.22-.25-.45-.5-.65-.76a.44.44,0,0,1-.07-.26.4.4,0,0,1,.25-.44.42.42,0,0,1,.51.19Z"/><path class="cls-4" d="M3,1.82c.24-.24.41-.29.58-.17a.46.46,0,0,1,.07.65A8,8,0,0,1,3,3a2,2,0,0,1-.7-.76c-.13-.28-.09-.51.1-.63S2.78,1.59,3,1.82Z"/><path class="cls-4" d="M5.25,3c-.22-.26-.42-.49-.61-.73A.59.59,0,0,1,4.55,2a.35.35,0,0,1,.24-.4.34.34,0,0,1,.42.15s0,.05.07.09a.35.35,0,0,0,0-.08.37.37,0,0,1,.46-.15A.37.37,0,0,1,6,2.07a3,3,0,0,1-.34.6A4.09,4.09,0,0,1,5.25,3Z"/><path class="cls-4" d="M9.86,1.84c.19-.24.37-.31.55-.21a.45.45,0,0,1,.13.59,1.59,1.59,0,0,1-.6.71.15.15,0,0,1-.16,0,1.56,1.56,0,0,1-.6-.72.7.7,0,0,1,0-.35.35.35,0,0,1,.61-.15Z"/><path class="cls-4" d="M22.27,1.84l.06-.08a.34.34,0,0,1,.44-.14.36.36,0,0,1,.22.43,1.35,1.35,0,0,1-.51.78c-.07.06-.14.1-.21.17a1.93,1.93,0,0,1-.68-.74.48.48,0,0,1,.12-.63C21.9,1.53,22.07,1.59,22.27,1.84Z"/><path class="cls-4" d="M7.56,1.83c.08-.07.13-.17.21-.18s.3,0,.36,0a.5.5,0,0,1,.15.4,1.52,1.52,0,0,1-.74,1c-.19-.21-.39-.4-.55-.61A.84.84,0,0,1,6.84,2a.38.38,0,0,1,.23-.41C7.24,1.54,7.4,1.61,7.56,1.83Z"/><path class="cls-4" d="M25,1.84c.17-.24.36-.31.54-.21a.44.44,0,0,1,.15.56A1.81,1.81,0,0,1,25,3c-.19-.22-.39-.43-.57-.65a.68.68,0,0,1-.11-.29.39.39,0,0,1,.2-.46C24.69,1.54,24.86,1.61,25,1.84Z"/><path class="cls-4" d="M27.81,1.81c.17-.21.36-.28.53-.18a.46.46,0,0,1,.14.57,1.65,1.65,0,0,1-.62.74.17.17,0,0,1-.14,0,1.61,1.61,0,0,1-.63-.78.43.43,0,0,1,.12-.5.33.33,0,0,1,.41,0A1.35,1.35,0,0,1,27.81,1.81Z"/><path class="cls-4" d="M19.5,1.84c.17-.23.36-.31.53-.21a.43.43,0,0,1,.15.57,1.63,1.63,0,0,1-.62.75.16.16,0,0,1-.15,0l-.55-.6a.38.38,0,0,1-.06-.16A.43.43,0,0,1,19,1.62C19.15,1.54,19.33,1.61,19.5,1.84Z"/><path class="cls-4" d="M17.22,1.83c.17-.23.35-.3.52-.2a.44.44,0,0,1,.16.57,1.72,1.72,0,0,1-.62.74.17.17,0,0,1-.14,0,4.71,4.71,0,0,1-.59-.68.43.43,0,0,1,.1-.62C16.82,1.53,17,1.59,17.22,1.83Z"/><path class="cls-4" d="M14.91,1.85c.05-.06.07-.13.12-.14a.69.69,0,0,1,.38-.09.38.38,0,0,1,.21.3,1.18,1.18,0,0,1-.19.58c-.4.56-.61.56-1,0a1.3,1.3,0,0,1-.19-.37.42.42,0,0,1,.2-.53C14.58,1.54,14.76,1.62,14.91,1.85Z"/><path class="cls-4" d="M12.62,1.83c.19-.23.38-.3.55-.2a.45.45,0,0,1,.14.57,1.61,1.61,0,0,1-.61.73.15.15,0,0,1-.16,0L12,2.29l0-.08a.47.47,0,0,1,.14-.58C12.25,1.53,12.44,1.6,12.62,1.83Z"/></g></g></svg>