<svg xmlns="http://www.w3.org/2000/svg" viewBox="0 0 38.55 24.66"><defs><style>.cls-1{isolation:isolate;}.cls-2{opacity:0.15;}.cls-2,.cls-3{mix-blend-mode:multiply;}.cls-4{fill:#fff;}</style></defs><title>convert-CUSTOMIZE-SVG-03</title><g class="cls-1"><g id="Layer_1" data-name="Layer 1"><g class="cls-2"><path d="M25.35,2.16a6.8,6.8,0,0,1,.76-.39.88.88,0,0,1,1.22.86,2,2,0,0,1-.49,1.28,4,4,0,0,1-1.36,1,.33.33,0,0,1-.26,0,3.35,3.35,0,0,1-.37-.2c-.17.19-.32.38-.49.56s-.35.31-.54.48l-.15-.2,1-1-.27-.23A2.44,2.44,0,0,1,23.42,3a1.26,1.26,0,0,1,0-.58.83.83,0,0,1,1.22-.63A5.9,5.9,0,0,1,25.35,2.16Z"/><path d="M28.37,20.91a5.85,5.85,0,0,1,.79-.4.87.87,0,0,1,1.19.86,2,2,0,0,1-.47,1.26l-.11.15v0l.85.23-.05.27-.86-.23a.34.34,0,0,0-.36.06,9.48,9.48,0,0,1-.85.55.22.22,0,0,1-.21,0,3.71,3.71,0,0,1-1.54-1.26,1.52,1.52,0,0,1-.3-1.33.83.83,0,0,1,1.21-.6A5.92,5.92,0,0,1,28.37,20.91Z"/><path d="M9,4.16c.84-.6,1.35-.63,1.79-.09l.62-.17.06.26a4.21,4.21,0,0,0-.42.12.23.23,0,0,0-.12.14,1.79,1.79,0,0,1-.47,1.48A4,4,0,0,1,9.07,7a.28.28,0,0,1-.22,0A3.73,3.73,0,0,1,7.37,5.76a1.86,1.86,0,0,1-.38-1,.9.9,0,0,1,1.28-1C8.51,3.88,8.73,4,9,4.16Z"/><path d="M3.84,19.48a7.31,7.31,0,0,1,.79-.4.87.87,0,0,1,1.18.85,1.91,1.91,0,0,1-.44,1.25A4.06,4.06,0,0,1,4,22.29a.25.25,0,0,1-.19,0A3.78,3.78,0,0,1,2.19,21a1.93,1.93,0,0,1-.32-1,.88.88,0,0,1,1.24-.87C3.37,19.2,3.6,19.36,3.84,19.48Z"/><path d="M15.06,22.16l.4-.16.13.28c-.54,0-.76.47-1.1.75-.67.54-.59.52-1.25,0a1.31,1.31,0,0,1-.56-1c0-.49.36-.77.79-.54a.68.68,0,0,0,.76,0C14.67,21.3,15,21.55,15.06,22.16Z"/><path d="M15.79,4.81,15.6,4.7l.07-.17a3.53,3.53,0,0,1,.57,0c.24,0,.47.15.75.24a2.75,2.75,0,0,1,.39-.2.53.53,0,0,1,.74.59,1.45,1.45,0,0,1-.66,1c-.58.39-.46.39-1,0a1.39,1.39,0,0,1-.67-1A2.89,2.89,0,0,1,15.79,4.81Z"/><path d="M23.21,19.84a2.1,2.1,0,0,0-.27.19c-.76.6-.7.6-1.47,0a1.21,1.21,0,0,1-.42-.76.63.63,0,0,1,.2-.61.51.51,0,0,1,.59,0c.13.06.25.14.38.21s.25-.16.39-.22a.53.53,0,0,1,.78.53,2.05,2.05,0,0,1-.09.43C23.27,19.65,23.24,19.76,23.21,19.84Z"/><path d="M34.84,5.09l.08.15.06,0A2.21,2.21,0,0,1,35.32,5a.52.52,0,0,1,.75.52,1,1,0,0,1-.27.72,8.21,8.21,0,0,1-.8.63.19.19,0,0,1-.19,0,2,2,0,0,1-.91-.77,1.65,1.65,0,0,1-.18-.57A.52.52,0,0,1,34.48,5a3,3,0,0,0,.32.09Z"/><path d="M37.75,19.61a1.32,1.32,0,0,1-.39.79l0,0c-.24.2-.51.56-.8.47a1.64,1.64,0,0,1-1.1-1.09.82.82,0,0,1,0-.38.49.49,0,0,1,.76-.4A.72.72,0,0,0,37,19C37.38,18.81,37.77,19.1,37.75,19.61Z"/><path d="M3.69,2.07a1.18,1.18,0,0,1-.41.81c-.78.67-.76.68-1.52,0a1.75,1.75,0,0,1-.41-.7.57.57,0,0,1,.21-.66.48.48,0,0,1,.61,0,.56.56,0,0,0,.69,0C3.3,1.27,3.7,1.54,3.69,2.07Z"/><path d="M28.76,1.45l-1.38.08-.06-.21a3.53,3.53,0,0,1,1.44-.1.28.28,0,0,1,0,.08A.76.76,0,0,1,28.76,1.45Z"/><path d="M21,6.63V6.35l1.39-.17.07.26Z"/><path d="M4.67,5.14l.14-.24,1.28.57L6,5.73Z"/><path d="M30.15,1.79l.08-.26,1.34.58-.13.24Z"/><path d="M12.86,3.74c.46.07.89.13,1.32.21.21,0,.07.17.06.27L12.85,4Z"/><path d="M32.66,3.11l.16-.22L34,3.84,33.72,4Z"/><path d="M19.58,6.22l-.06.26-1.4-.38.09-.26Z"/><path d="M34.69,22.8l-.15-.23,1-.87.22.17Z"/><path d="M12.87,22.75l0,.25H11.51l0-.25Z"/><path d="M32,23.5v-.27l1.33-.14.07.26Z"/><path d="M19.23,20.36l-.09-.26,1.32-.39.06.26Z"/><path d="M16.83,21.64l-.14-.24,1.18-.69L18,21Z"/><path d="M24.54,20.2l.08-.26,1.29.53-.13.24Z"/><path d="M8.88,22.2l1.3.38-.06.26-1.33-.39Z"/><path d="M6.36,21.12l1.25.55-.11.25-1.24-.55Z"/><path d="M3.66,4.05l-.17.21L3,3.77l.23-.16Z"/><path d="M25.55,2.36A6.8,6.8,0,0,1,26.31,2a.88.88,0,0,1,1.22.86A2,2,0,0,1,27,4.11a3.9,3.9,0,0,1-1.37,1,.31.31,0,0,1-.25,0,2.64,2.64,0,0,1-.37-.2c-.17.19-.32.38-.49.56S24.2,5.82,24,6l-.14-.2,1-1-.28-.22a2.47,2.47,0,0,1-.93-1.39,1.42,1.42,0,0,1,0-.58A.84.84,0,0,1,24.84,2,7.92,7.92,0,0,1,25.55,2.36Z"/><path d="M28.57,21.1a8.1,8.1,0,0,1,.78-.39.86.86,0,0,1,1.19.85,1.89,1.89,0,0,1-.46,1.27L30,23s0,0,0,0l.85.23-.05.26c-.29-.07-.58-.14-.86-.23a.37.37,0,0,0-.36.07,9.48,9.48,0,0,1-.85.55.26.26,0,0,1-.21,0A3.79,3.79,0,0,1,27,22.66a1.52,1.52,0,0,1-.3-1.33.83.83,0,0,1,1.21-.6C28.11,20.83,28.35,21,28.57,21.1Z"/><path d="M9.17,4.36c.84-.6,1.34-.64,1.79-.1l.62-.16.06.25-.43.13a.21.21,0,0,0-.11.14,1.79,1.79,0,0,1-.47,1.48,3.84,3.84,0,0,1-1.36,1,.28.28,0,0,1-.22,0A3.91,3.91,0,0,1,7.57,6a2,2,0,0,1-.39-1A.91.91,0,0,1,8.47,4C8.71,4.08,8.93,4.23,9.17,4.36Z"/><path d="M4,19.68a7.46,7.46,0,0,1,.8-.4A.87.87,0,0,1,6,20.13a1.87,1.87,0,0,1-.44,1.24,3.84,3.84,0,0,1-1.42,1.11.23.23,0,0,1-.2,0A3.76,3.76,0,0,1,2.39,21.2a1.87,1.87,0,0,1-.32-1A.87.87,0,0,1,3.3,19.3,7.15,7.15,0,0,1,4,19.68Z"/><path d="M15.26,22.36l.4-.16.13.27c-.54,0-.76.48-1.1.76-.67.54-.59.52-1.25,0a1.28,1.28,0,0,1-.56-1,.52.52,0,0,1,.79-.54.7.7,0,0,0,.76,0C14.87,21.5,15.19,21.75,15.26,22.36Z"/><path d="M16,5l-.2-.11.08-.17a2.66,2.66,0,0,1,.57,0c.24,0,.47.15.75.24a2.75,2.75,0,0,1,.39-.2.53.53,0,0,1,.74.59,1.4,1.4,0,0,1-.67,1c-.57.4-.45.4-1,0a1.36,1.36,0,0,1-.67-1A2.82,2.82,0,0,1,16,5Z"/><path d="M23.41,20a2.51,2.51,0,0,0-.27.18c-.77.61-.7.61-1.47,0a1.21,1.21,0,0,1-.42-.76.61.61,0,0,1,.2-.61.5.5,0,0,1,.59,0l.38.2a3.58,3.58,0,0,1,.39-.21.52.52,0,0,1,.78.53,2.05,2.05,0,0,1-.09.43C23.47,19.85,23.43,20,23.41,20Z"/><path d="M35,5.29l.08.15.06,0a2.59,2.59,0,0,1,.33-.17.52.52,0,0,1,.76.52,1,1,0,0,1-.27.71,8,8,0,0,1-.8.64.23.23,0,0,1-.2,0,2,2,0,0,1-.9-.77,1.46,1.46,0,0,1-.18-.57.52.52,0,0,1,.76-.54l.32.09Z"/><path d="M38,19.81a1.32,1.32,0,0,1-.39.79l0,0c-.25.2-.51.56-.8.46A1.61,1.61,0,0,1,35.63,20a.71.71,0,0,1,0-.38.49.49,0,0,1,.76-.4.72.72,0,0,0,.81,0C37.58,19,38,19.3,38,19.81Z"/><path d="M3.89,2.27a1.18,1.18,0,0,1-.41.81c-.79.67-.76.67-1.53,0a1.86,1.86,0,0,1-.4-.7.57.57,0,0,1,.21-.66.48.48,0,0,1,.61,0,.57.57,0,0,0,.69,0C3.49,1.47,3.9,1.74,3.89,2.27Z"/><path d="M29,1.65l-1.38.08-.06-.21A3.52,3.52,0,0,1,29,1.42a.28.28,0,0,1,0,.08A.76.76,0,0,1,29,1.65Z"/><path d="M21.2,6.83V6.55l1.38-.17.08.26Z"/><path d="M4.87,5.34,5,5.1l1.27.57-.07.26Z"/><path d="M30.35,2l.08-.26,1.34.58-.13.24Z"/><path d="M13.06,3.94c.46.07.89.13,1.31.21.22,0,.08.17.07.27l-1.39-.2Z"/><path d="M32.86,3.3,33,3.09l1.13,1-.24.16Z"/><path d="M19.78,6.41l-.06.26-1.4-.37L18.41,6Z"/><path d="M34.89,23l-.16-.23,1-.87.22.16Z"/><path d="M13.07,23l0,.25H11.71l0-.25Z"/><path d="M32.17,23.7v-.27l1.32-.14.08.26Z"/><path d="M19.43,20.56l-.09-.26,1.32-.39.06.26Z"/><path d="M17,21.84l-.14-.24,1.18-.69.13.23Z"/><path d="M24.74,20.4l.08-.26,1.29.53-.13.24Z"/><path d="M9.08,22.39l1.29.39-.06.26L9,22.65Z"/><path d="M6.56,21.32l1.25.55-.11.25-1.24-.55Z"/><path d="M3.86,4.25l-.17.21L3.16,4l.22-.16Z"/></g><g class="cls-3"><path d="M25.21,2A6.8,6.8,0,0,1,26,1.63a.88.88,0,0,1,1.22.86,2,2,0,0,1-.49,1.28,4,4,0,0,1-1.37,1,.31.31,0,0,1-.25,0,3.48,3.48,0,0,1-.38-.2c-.16.19-.31.38-.48.56s-.36.31-.55.48l-.14-.2,1-1-.28-.22a2.47,2.47,0,0,1-.93-1.39,1.42,1.42,0,0,1,0-.58.84.84,0,0,1,1.23-.63A7.92,7.92,0,0,1,25.21,2Z"/><path d="M28.23,20.76a8.1,8.1,0,0,1,.78-.39.86.86,0,0,1,1.19.85,1.89,1.89,0,0,1-.46,1.27l-.11.15s0,0,0,0l.85.23-.05.26c-.29-.07-.58-.14-.86-.23a.37.37,0,0,0-.36.07,9.48,9.48,0,0,1-.85.55.26.26,0,0,1-.21,0,3.79,3.79,0,0,1-1.54-1.26,1.52,1.52,0,0,1-.3-1.33.83.83,0,0,1,1.21-.6C27.77,20.49,28,20.65,28.23,20.76Z"/><path d="M8.83,4c.84-.6,1.34-.64,1.79-.1l.62-.16L11.3,4l-.43.13a.21.21,0,0,0-.11.14,1.79,1.79,0,0,1-.47,1.48,3.84,3.84,0,0,1-1.36,1,.28.28,0,0,1-.22,0A4,4,0,0,1,7.22,5.62a2,2,0,0,1-.38-1,.91.91,0,0,1,1.29-1C8.37,3.74,8.59,3.89,8.83,4Z"/><path d="M3.69,19.34a7.46,7.46,0,0,1,.8-.4.87.87,0,0,1,1.18.85A1.87,1.87,0,0,1,5.23,21a4,4,0,0,1-1.42,1.11.23.23,0,0,1-.2,0,3.76,3.76,0,0,1-1.56-1.29,1.87,1.87,0,0,1-.32-1A.87.87,0,0,1,3,19,7.15,7.15,0,0,1,3.69,19.34Z"/><path d="M14.92,22l.4-.16.13.27c-.54,0-.76.48-1.1.76-.67.54-.59.52-1.25,0a1.25,1.25,0,0,1-.56-1,.52.52,0,0,1,.79-.54.7.7,0,0,0,.76,0C14.53,21.16,14.85,21.41,14.92,22Z"/><path d="M15.65,4.67l-.2-.11.08-.17a2.66,2.66,0,0,1,.57,0c.24,0,.47.15.75.24a2.75,2.75,0,0,1,.39-.2A.53.53,0,0,1,18,5a1.4,1.4,0,0,1-.67,1c-.57.4-.45.4-1,0a1.36,1.36,0,0,1-.67-1A2.82,2.82,0,0,1,15.65,4.67Z"/><path d="M23.07,19.7a2.51,2.51,0,0,0-.27.18c-.77.61-.7.61-1.47,0a1.21,1.21,0,0,1-.42-.76.61.61,0,0,1,.2-.61.5.5,0,0,1,.59,0l.38.2a3.58,3.58,0,0,1,.39-.21.52.52,0,0,1,.78.53,2.2,2.2,0,0,1-.09.43C23.13,19.51,23.09,19.61,23.07,19.7Z"/><path d="M34.7,5l.08.15.06,0a2.59,2.59,0,0,1,.33-.17.52.52,0,0,1,.76.52,1,1,0,0,1-.27.71,8,8,0,0,1-.8.64.23.23,0,0,1-.2,0,2,2,0,0,1-.9-.77,1.46,1.46,0,0,1-.18-.57.52.52,0,0,1,.76-.54l.32.09Z"/><path d="M37.61,19.47a1.32,1.32,0,0,1-.39.79l0,0c-.25.2-.51.56-.8.46a1.61,1.61,0,0,1-1.1-1.08.83.83,0,0,1,0-.38.5.5,0,0,1,.77-.4.72.72,0,0,0,.81,0C37.24,18.67,37.63,19,37.61,19.47Z"/><path d="M3.55,1.93a1.18,1.18,0,0,1-.41.81c-.79.67-.76.67-1.53,0a1.86,1.86,0,0,1-.4-.7.57.57,0,0,1,.21-.66.48.48,0,0,1,.61,0,.57.57,0,0,0,.69,0C3.15,1.13,3.56,1.4,3.55,1.93Z"/><path d="M28.62,1.31l-1.38.08-.06-.21a3.52,3.52,0,0,1,1.44-.1.28.28,0,0,1,0,.08A.76.76,0,0,1,28.62,1.31Z"/><path d="M20.86,6.49V6.21L22.24,6l.08.26Z"/><path d="M4.53,5l.14-.24,1.27.57-.07.26Z"/><path d="M30,1.64l.08-.25L31.43,2l-.13.24Z"/><path d="M12.72,3.6c.46.07.89.13,1.31.21.22,0,.08.17.07.27l-1.39-.2Z"/><path d="M32.52,3l.16-.21,1.13,1-.24.16Z"/><path d="M19.44,6.07l-.06.26L18,6l.09-.26Z"/><path d="M34.55,22.66l-.16-.23,1-.87.22.16Z"/><path d="M12.73,22.61l0,.25H11.37l0-.25Z"/><path d="M31.83,23.36v-.27L33.15,23l.08.26Z"/><path d="M19.09,20.22,19,20l1.31-.39.07.26Z"/><path d="M16.69,21.5l-.14-.24,1.18-.69.13.23Z"/><path d="M24.4,20.06l.08-.26,1.29.53-.13.24Z"/><path d="M8.74,22.05l1.29.39L10,22.7l-1.32-.39Z"/><path d="M6.22,21l1.25.55-.11.25-1.24-.55Z"/><path d="M3.52,3.91l-.17.21-.53-.49L3,3.47Z"/></g><path class="cls-4" d="M25.41,2.22a6.8,6.8,0,0,1,.76-.39.87.87,0,0,1,1.22.86A2,2,0,0,1,26.9,4a4,4,0,0,1-1.37,1,.43.43,0,0,1-.25,0,3.48,3.48,0,0,1-.38-.2c-.16.19-.31.38-.48.55s-.36.32-.55.49l-.15-.2,1-1-.28-.22a2.47,2.47,0,0,1-.93-1.39,1.47,1.47,0,0,1,0-.59.84.84,0,0,1,1.23-.63A8,8,0,0,1,25.41,2.22Z"/><path class="cls-4" d="M28.42,21c.27-.13.52-.29.79-.39a.86.86,0,0,1,1.19.85,2,2,0,0,1-.46,1.27l-.11.15s0,0,0,0l.85.23-.05.26c-.3-.07-.58-.14-.86-.23a.37.37,0,0,0-.36.07c-.27.2-.56.37-.85.55a.31.31,0,0,1-.21,0,3.79,3.79,0,0,1-1.54-1.26,1.56,1.56,0,0,1-.31-1.33.84.84,0,0,1,1.22-.6A6.6,6.6,0,0,1,28.42,21Z"/><path class="cls-4" d="M9,4.22c.83-.61,1.34-.64,1.78-.1L11.44,4l.06.26-.43.13c-.05,0-.12.1-.11.14A1.86,1.86,0,0,1,10.49,6,3.78,3.78,0,0,1,9.12,7a.26.26,0,0,1-.21,0A4,4,0,0,1,7.42,5.82a2.07,2.07,0,0,1-.38-1,.9.9,0,0,1,1.29-1C8.57,3.94,8.79,4.09,9,4.22Z"/><path class="cls-4" d="M3.89,19.54a5,5,0,0,1,.8-.4A.87.87,0,0,1,5.87,20a1.92,1.92,0,0,1-.44,1.24A4,4,0,0,1,4,22.34a.28.28,0,0,1-.2,0,3.84,3.84,0,0,1-1.56-1.29,1.72,1.72,0,0,1-.32-1,.87.87,0,0,1,1.23-.87A5.59,5.59,0,0,1,3.89,19.54Z"/><path class="cls-4" d="M15.12,22.22l.4-.16.13.27c-.54,0-.76.48-1.11.76-.66.53-.58.52-1.24,0a1.27,1.27,0,0,1-.57-1,.53.53,0,0,1,.8-.55.68.68,0,0,0,.76,0C14.73,21.35,15.05,21.61,15.12,22.22Z"/><path class="cls-4" d="M15.85,4.87l-.2-.11.07-.17a2.76,2.76,0,0,1,.58,0,7.72,7.72,0,0,1,.75.23c.09,0,.23-.13.39-.19a.53.53,0,0,1,.74.59,1.43,1.43,0,0,1-.67,1c-.57.4-.45.4-1,0a1.36,1.36,0,0,1-.67-1A2.82,2.82,0,0,1,15.85,4.87Z"/><path class="cls-4" d="M23.27,19.9a2.51,2.51,0,0,0-.27.18c-.77.61-.7.61-1.47,0a1.27,1.27,0,0,1-.43-.76.64.64,0,0,1,.21-.61.5.5,0,0,1,.59,0c.13.06.25.13.37.2s.26-.15.4-.21a.52.52,0,0,1,.78.53,3.29,3.29,0,0,1-.09.43C23.33,19.71,23.29,19.81,23.27,19.9Z"/><path class="cls-4" d="M34.89,5.15,35,5.3l.06,0a2.59,2.59,0,0,1,.33-.17.52.52,0,0,1,.76.52,1,1,0,0,1-.27.71,7.12,7.12,0,0,1-.81.64.25.25,0,0,1-.19,0,2,2,0,0,1-.9-.77,1.31,1.31,0,0,1-.18-.57.53.53,0,0,1,.76-.55,3,3,0,0,0,.32.09Z"/><path class="cls-4" d="M37.81,19.66a1.38,1.38,0,0,1-.39.79l0,0c-.25.21-.51.56-.81.47a1.61,1.61,0,0,1-1.09-1.09.77.77,0,0,1,0-.37.5.5,0,0,1,.77-.4.74.74,0,0,0,.81,0C37.44,18.87,37.83,19.16,37.81,19.66Z"/><path class="cls-4" d="M3.75,2.12a1.16,1.16,0,0,1-.42.82c-.78.67-.75.67-1.52,0a1.86,1.86,0,0,1-.4-.7.57.57,0,0,1,.2-.66.5.5,0,0,1,.62,0,.54.54,0,0,0,.68,0A.55.55,0,0,1,3.75,2.12Z"/><path class="cls-4" d="M28.82,1.51l-1.39.08-.06-.21a3.58,3.58,0,0,1,1.45-.1s0,.06,0,.08S28.82,1.46,28.82,1.51Z"/><path class="cls-4" d="M21.06,6.69V6.41l1.38-.17.08.26Z"/><path class="cls-4" d="M4.72,5.2,4.87,5l1.27.57-.07.26Z"/><path class="cls-4" d="M30.21,1.84l.08-.25,1.33.58-.12.24Z"/><path class="cls-4" d="M12.92,3.8c.46.07.89.13,1.31.21.22,0,.07.17.07.27l-1.39-.2Z"/><path class="cls-4" d="M32.71,3.16,32.88,3,34,3.9l-.24.16Z"/><path class="cls-4" d="M19.64,6.27l-.06.26-1.4-.37.08-.26Z"/><path class="cls-4" d="M34.75,22.85l-.16-.22,1-.88.23.17Z"/><path class="cls-4" d="M12.93,22.81l0,.25H11.57l0-.25Z"/><path class="cls-4" d="M32,23.56v-.27l1.32-.14.07.26Z"/><path class="cls-4" d="M19.29,20.41l-.1-.25,1.32-.39.07.26Z"/><path class="cls-4" d="M16.89,21.69l-.14-.23,1.18-.7.13.24Z"/><path class="cls-4" d="M24.6,20.26l.08-.26,1.28.53-.12.24Z"/><path class="cls-4" d="M8.94,22.25l1.29.38-.06.27-1.32-.39Z"/><path class="cls-4" d="M6.42,21.18l1.25.55L7.56,22l-1.24-.55Z"/><path class="cls-4" d="M3.72,4.11l-.18.2L3,3.83l.23-.17Z"/></g></g></svg>