<svg xmlns="http://www.w3.org/2000/svg" viewBox="0 0 38.55 24.66"><defs><style>.cls-1{isolation:isolate;}.cls-2{opacity:0.15;}.cls-2,.cls-3{mix-blend-mode:multiply;}.cls-4{fill:#fff;}</style></defs><title>convert-CUSTOMIZE-SVG-03</title><g class="cls-1"><g id="Layer_1" data-name="Layer 1"><g class="cls-2"><path d="M9.2,0a4.9,4.9,0,0,1,1.53,1.14,4.31,4.31,0,0,1,1.18,2.93s0,.1,0,.18H4.51c-.21,0-.26.06-.26.27,0,2.24,0,4.49,0,6.73v.27L.17,9.86A.24.24,0,0,1,0,9.6C0,7,0,4.33,0,1.7a1.68,1.68,0,0,1,.3-1A.4.4,0,0,1,.66.53,3.94,3.94,0,0,1,3.59,1.76c.18.17.33.35.51.54a3.7,3.7,0,0,1,1-1.44A4.27,4.27,0,0,1,6.34.07,1.11,1.11,0,0,0,6.53,0Z"/><path d="M24.11,0a2.05,2.05,0,0,1-.38,1.74A7.58,7.58,0,0,1,22,3.34a1.83,1.83,0,0,0-.82.83c0,.1-.43.1-.54,0a8.87,8.87,0,0,0-2.87-1.84A1.53,1.53,0,0,1,16.84.6c0-.21.1-.41.15-.62Z"/><path d="M38.55,19.72a6.86,6.86,0,0,1-1.81.3h-.31a1,1,0,0,0-1,.69,7.09,7.09,0,0,0-1.09-2.92.54.54,0,0,1,0-.22c0-.74,0-1.49,0-2.23a.42.42,0,0,1,.14-.27,1.7,1.7,0,0,1,2.74,1.11.13.13,0,0,0,0,0,2,2,0,0,1,1.32-.37Z"/><path d="M38.55,4.26c-.26.29-.53.58-.79.88a.67.67,0,0,0-.16.77,11.84,11.84,0,0,0-1.09-.63,10.79,10.79,0,0,0-1.46-.47,1.1,1.1,0,0,1-.92-1.07,1.29,1.29,0,0,1,1.79-1.38,1.78,1.78,0,0,1,.36.19,3.69,3.69,0,0,1,.17-.42,1.25,1.25,0,0,1,1.73-.55l.37.18Z"/><path d="M38.55,13.5c-.52-.34-1-.7-1.57-1a7.94,7.94,0,0,0-.72-.34,1.4,1.4,0,0,1-.88-1.51,1.86,1.86,0,0,1,.9-1.48,1.8,1.8,0,0,1,2.12.34s.1,0,.15.08Z"/><path d="M38.55,23.24c-.07.17-.12.34-.2.5a1.59,1.59,0,0,1-1.13.85.3.3,0,0,1-.24-.05,4.63,4.63,0,0,1-1.17-1.43,1.7,1.7,0,0,1,1-2.37,1.5,1.5,0,0,1,1.74.34Z"/><path d="M30.89,20.42a1.84,1.84,0,0,1-.4,1.09A11.5,11.5,0,0,0,29,24.15c-.06.15-.11.31-.18.49h-4.8a1.32,1.32,0,0,1-.58-.15,2.47,2.47,0,0,1-1.22-2.75,2.86,2.86,0,0,1,.56-1.21.31.31,0,0,1,.2-.11h7.8Z"/><path d="M9.14,20.39c-.62,1.26-.62,1.36-.19,2.13l-.14-.06A9.74,9.74,0,0,0,5,21c-.65-.1-1.31-.14-2-.22a2.15,2.15,0,0,1-1.9-1.58,3.1,3.1,0,0,1,.17-2.46,2.57,2.57,0,0,1,2-1.33,7.06,7.06,0,0,1,.8,0c.17,0,.21.08.21.24,0,1.48,0,3,0,4.45v.27Z"/><path d="M32.52,4.22H22.88a2.81,2.81,0,0,1,1.73-1,2.57,2.57,0,0,1,1.92.38A6.45,6.45,0,0,1,26.65,3a2.43,2.43,0,0,1,2-2,3.3,3.3,0,0,1,3.8,2.16A2.8,2.8,0,0,1,32.52,4.22Z"/><path d="M11,20.41H16.3a7,7,0,0,0-1.1,2.78,1,1,0,0,0-1-.59,7,7,0,0,1-2-.33A1.66,1.66,0,0,1,11,20.55.78.78,0,0,1,11,20.41Z"/><path d="M32.56,21a.9.9,0,0,1,0-.19c.08-.31.17-.38.49-.38h1.06a.79.79,0,0,0,.23-.08.9.9,0,0,1,.21,1.28,5.08,5.08,0,0,0-.83,1.72,4.39,4.39,0,0,0-.09.47.67.67,0,0,0-.67-.43,4.89,4.89,0,0,1-1.47-.26,1.13,1.13,0,0,1-.8-1.08,1.28,1.28,0,0,1,.7-1.21,1,1,0,0,1,.92.05Z"/><path d="M19.38,21c0-.61.41-.61.83-.58s.63,0,.93,0a.38.38,0,0,1,.26.13.86.86,0,0,1,0,1.06,4.64,4.64,0,0,0-.91,2.18c-.21-.46-.61-.4-1-.45a9.13,9.13,0,0,1-1.18-.24,1.08,1.08,0,0,1-.8-1,1.3,1.3,0,0,1,.71-1.25,1,1,0,0,1,.91.05Z"/><path d="M15.12,4.23c-.68,0-1.43,0-2.18,0a.9.9,0,0,1-.69-.51A1.35,1.35,0,0,1,12.74,2a1,1,0,0,1,1,0l.22.12a1.14,1.14,0,0,1,.78-.92,1.12,1.12,0,0,1,1.21.43.92.92,0,0,1,0,1.14C15.67,3.22,15.41,3.71,15.12,4.23Z"/><path d="M9.87,23.1l.05-.19a1.09,1.09,0,0,1,1.56-.78,1.23,1.23,0,0,1,.73,1.8c-.32.71-.32.71-1.08.71-.92,0-1.83,0-2.75,0a.22.22,0,0,1-.26-.2,1.26,1.26,0,0,1,.36-1.31A1.18,1.18,0,0,1,9.87,23.1Z"/><path d="M9.39.18a4.91,4.91,0,0,1,1.54,1.13,4.41,4.41,0,0,1,1.18,2.94s0,.09,0,.18H4.71c-.22,0-.26.06-.26.28v7L.36,10.05A.23.23,0,0,1,.2,9.8c0-2.63,0-5.27,0-7.9a1.68,1.68,0,0,1,.3-1A.4.4,0,0,1,.86.73,3.94,3.94,0,0,1,3.79,2c.18.17.33.35.51.53a3.63,3.63,0,0,1,1-1.43A4.08,4.08,0,0,1,6.54.27,1.63,1.63,0,0,0,6.73.18Z"/><path d="M24.31.18a2.06,2.06,0,0,1-.39,1.74,7,7,0,0,1-1.77,1.61,1.93,1.93,0,0,0-.81.84c0,.1-.43.09-.54,0a8.83,8.83,0,0,0-2.88-1.85A1.52,1.52,0,0,1,17,.79c0-.2.1-.4.15-.61Z"/><path d="M38.75,19.92a6.46,6.46,0,0,1-1.81.29l-.31,0a1,1,0,0,0-1,.69A7.28,7.28,0,0,0,34.56,18a.51.51,0,0,1-.05-.22c0-.74,0-1.48,0-2.22a.38.38,0,0,1,.14-.27,1.7,1.7,0,0,1,2.74,1.11l0,.05a2,2,0,0,1,1.33-.37Z"/><path d="M38.75,4.46,38,5.33a.66.66,0,0,0-.16.78,11.84,11.84,0,0,0-1.09-.63A9.55,9.55,0,0,0,35.25,5a1.13,1.13,0,0,1-.93-1.07,1.3,1.3,0,0,1,1.8-1.38,1.78,1.78,0,0,1,.36.19,3.07,3.07,0,0,1,.17-.42,1.25,1.25,0,0,1,1.73-.55l.37.18Z"/><path d="M38.75,13.7c-.52-.35-1-.7-1.57-1a6.74,6.74,0,0,0-.72-.34,1.38,1.38,0,0,1-.88-1.51,1.86,1.86,0,0,1,.9-1.48,1.78,1.78,0,0,1,2.11.34s.11.05.16.08Z"/><path d="M38.75,23.44a4.4,4.4,0,0,1-.21.5,1.57,1.57,0,0,1-1.12.85.3.3,0,0,1-.24-.05A4.75,4.75,0,0,1,36,23.31a1.7,1.7,0,0,1,1-2.37,1.51,1.51,0,0,1,1.75.34Z"/><path d="M31.09,20.62a1.81,1.81,0,0,1-.4,1.08,11.56,11.56,0,0,0-1.45,2.65l-.18.48h-.23c-1.52,0-3,0-4.57,0a1.28,1.28,0,0,1-.58-.15,2.47,2.47,0,0,1-1.23-2.75A3,3,0,0,1,23,20.72a.3.3,0,0,1,.2-.12H31Z"/><path d="M9.34,20.59c-.62,1.26-.63,1.35-.19,2.13L9,22.66a9.74,9.74,0,0,0-3.86-1.42c-.65-.11-1.32-.14-2-.22a2.16,2.16,0,0,1-1.9-1.58A3.1,3.1,0,0,1,1.45,17a2.57,2.57,0,0,1,2-1.33,5.31,5.31,0,0,1,.8,0c.17,0,.2.08.2.24v4.72Z"/><path d="M32.72,4.42H23.08a2.79,2.79,0,0,1,1.73-1,2.54,2.54,0,0,1,1.92.38,6.45,6.45,0,0,1,.12-.66,2.43,2.43,0,0,1,2-2,3.3,3.3,0,0,1,3.8,2.16A2.8,2.8,0,0,1,32.72,4.42Z"/><path d="M11.24,20.61H16.5a7,7,0,0,0-1.1,2.78,1,1,0,0,0-1-.6,6.6,6.6,0,0,1-2-.32,1.67,1.67,0,0,1-1.22-1.73A.69.69,0,0,1,11.24,20.61Z"/><path d="M32.76,21.17c0-.08,0-.13,0-.19.09-.32.18-.38.5-.38h1.06c.06,0,.13-.05.23-.08a.9.9,0,0,1,.21,1.28A5.08,5.08,0,0,0,34,23.52c0,.14-.06.28-.1.47a.67.67,0,0,0-.66-.44,4.58,4.58,0,0,1-1.47-.25,1.14,1.14,0,0,1-.8-1.08,1.26,1.26,0,0,1,.7-1.21,1,1,0,0,1,.92,0Z"/><path d="M19.58,21.17c0-.61.4-.6.83-.57s.62,0,.93,0a.38.38,0,0,1,.26.13.86.86,0,0,1,0,1.06A4.77,4.77,0,0,0,20.68,24c-.2-.46-.6-.4-1-.46a7.69,7.69,0,0,1-1.18-.23,1.07,1.07,0,0,1-.8-1A1.3,1.3,0,0,1,18.45,21a1,1,0,0,1,.91,0Z"/><path d="M15.31,4.43c-.68,0-1.42,0-2.17,0a.92.92,0,0,1-.69-.51,1.33,1.33,0,0,1,.49-1.74,1,1,0,0,1,1,0l.22.12a1.1,1.1,0,0,1,2-.49.93.93,0,0,1,0,1.14C15.87,3.42,15.61,3.9,15.31,4.43Z"/><path d="M10.07,23.29l0-.18a1.09,1.09,0,0,1,1.56-.78,1.22,1.22,0,0,1,.72,1.79c-.31.71-.31.71-1.07.71H8.58a.22.22,0,0,1-.26-.2,1.25,1.25,0,0,1,.36-1.31A1.2,1.2,0,0,1,10.07,23.29Z"/></g><g class="cls-3"><path d="M9.05-.16A4.91,4.91,0,0,1,10.59,1a4.39,4.39,0,0,1,1.18,2.94s0,.09,0,.18H4.37c-.22,0-.26.06-.26.28v7L0,9.71a.23.23,0,0,1-.16-.25c0-2.63,0-5.27,0-7.9a1.68,1.68,0,0,1,.3-1A.4.4,0,0,1,.52.39,3.94,3.94,0,0,1,3.45,1.62c.18.17.33.35.51.53a3.63,3.63,0,0,1,1-1.43A4.08,4.08,0,0,1,6.2-.07a1.63,1.63,0,0,0,.19-.09Z"/><path d="M24-.16a2.06,2.06,0,0,1-.39,1.74,7,7,0,0,1-1.77,1.61A1.93,1.93,0,0,0,21,4c0,.1-.43.09-.54,0a8.83,8.83,0,0,0-2.88-1.85A1.51,1.51,0,0,1,16.7.45c0-.2.1-.4.15-.61Z"/><path d="M38.41,19.58a6.46,6.46,0,0,1-1.81.29l-.31,0a1,1,0,0,0-1,.69,7.22,7.22,0,0,0-1.09-2.93.4.4,0,0,1,0-.22c0-.74,0-1.48,0-2.22a.38.38,0,0,1,.14-.27,1.7,1.7,0,0,1,2.74,1.11l0,.05a2,2,0,0,1,1.33-.37Z"/><path d="M38.41,4.12,37.62,5a.66.66,0,0,0-.16.78,11.84,11.84,0,0,0-1.09-.63,9.55,9.55,0,0,0-1.46-.47A1.13,1.13,0,0,1,34,3.6a1.3,1.3,0,0,1,1.8-1.38,1.78,1.78,0,0,1,.36.19A3.07,3.07,0,0,1,36.31,2,1.25,1.25,0,0,1,38,1.44l.37.18Z"/><path d="M38.41,13.36c-.52-.35-1-.7-1.57-1a6.74,6.74,0,0,0-.72-.34,1.38,1.38,0,0,1-.88-1.51A1.86,1.86,0,0,1,36.14,9a1.78,1.78,0,0,1,2.11.34s.11.05.16.08Z"/><path d="M38.41,23.1a4.4,4.4,0,0,1-.21.5,1.57,1.57,0,0,1-1.12.85.3.3,0,0,1-.24-.05A4.75,4.75,0,0,1,35.67,23a1.7,1.7,0,0,1,1-2.37,1.51,1.51,0,0,1,1.75.34Z"/><path d="M30.75,20.28a1.81,1.81,0,0,1-.4,1.08A11.71,11.71,0,0,0,28.9,24l-.18.49h-.23c-1.52,0-3,0-4.57,0a1.28,1.28,0,0,1-.58-.15,2.47,2.47,0,0,1-1.23-2.75,3,3,0,0,1,.57-1.21.3.3,0,0,1,.2-.12h7.8Z"/><path d="M9,20.25c-.62,1.26-.63,1.35-.19,2.13l-.14-.06A9.74,9.74,0,0,0,4.81,20.9c-.65-.11-1.32-.14-2-.22A2.16,2.16,0,0,1,.94,19.1a3.1,3.1,0,0,1,.17-2.46,2.55,2.55,0,0,1,2-1.33,5.31,5.31,0,0,1,.8,0c.17,0,.2.08.2.24v4.72Z"/><path d="M32.38,4.08H22.74a2.79,2.79,0,0,1,1.73-1,2.54,2.54,0,0,1,1.92.38,6.45,6.45,0,0,1,.12-.66,2.43,2.43,0,0,1,2-2A3.3,3.3,0,0,1,32.29,3,2.8,2.8,0,0,1,32.38,4.08Z"/><path d="M10.89,20.27h5.27a7,7,0,0,0-1.1,2.78,1,1,0,0,0-1-.6,6.6,6.6,0,0,1-2-.32,1.67,1.67,0,0,1-1.22-1.73S10.89,20.32,10.89,20.27Z"/><path d="M32.42,20.83c0-.08,0-.13,0-.19.09-.32.18-.38.5-.38H34c.06,0,.13-.05.23-.08a.9.9,0,0,1,.21,1.28,5.08,5.08,0,0,0-.83,1.72c0,.14-.06.28-.1.47a.67.67,0,0,0-.66-.44A4.58,4.58,0,0,1,31.39,23a1.14,1.14,0,0,1-.8-1.08,1.26,1.26,0,0,1,.7-1.21,1,1,0,0,1,.92,0Z"/><path d="M19.24,20.83c0-.61.4-.6.83-.57s.62,0,.93,0a.34.34,0,0,1,.25.13.84.84,0,0,1,0,1.06,4.73,4.73,0,0,0-.92,2.18c-.2-.46-.6-.4-1-.46A7.69,7.69,0,0,1,18.2,23a1.07,1.07,0,0,1-.8-1,1.3,1.3,0,0,1,.71-1.25,1,1,0,0,1,.91,0Z"/><path d="M15,4.09c-.68,0-1.42,0-2.17,0a.92.92,0,0,1-.69-.51,1.33,1.33,0,0,1,.49-1.74,1,1,0,0,1,1,0l.22.12a1.1,1.1,0,0,1,2-.49.92.92,0,0,1,0,1.13C15.53,3.08,15.27,3.56,15,4.09Z"/><path d="M9.73,23l0-.18A1.09,1.09,0,0,1,11.34,22a1.22,1.22,0,0,1,.72,1.79c-.31.71-.31.71-1.07.71H8.24A.22.22,0,0,1,8,24.3,1.25,1.25,0,0,1,8.34,23,1.2,1.2,0,0,1,9.73,23Z"/></g><path class="cls-4" d="M9.25,0a4.91,4.91,0,0,1,1.54,1.13A4.33,4.33,0,0,1,12,4.11a1.44,1.44,0,0,1,0,.18H4.57c-.22,0-.27.06-.27.27,0,2.25,0,4.49,0,6.74v.26L.22,9.91a.23.23,0,0,1-.16-.25V1.76a1.73,1.73,0,0,1,.31-1A.38.38,0,0,1,.71.59,4,4,0,0,1,3.65,1.82c.17.16.33.35.51.53a3.56,3.56,0,0,1,1-1.43A4.08,4.08,0,0,1,6.4.13L6.58,0Z"/><path class="cls-4" d="M24.16,0a2,2,0,0,1-.38,1.73A7,7,0,0,1,22,3.39a1.93,1.93,0,0,0-.81.84c0,.1-.44.09-.54,0a8.83,8.83,0,0,0-2.88-1.85A1.5,1.5,0,0,1,16.9.65c0-.2.1-.41.15-.61Z"/><path class="cls-4" d="M38.61,19.78a6.58,6.58,0,0,1-1.81.29l-.32,0a1,1,0,0,0-1,.69,7.22,7.22,0,0,0-1.09-2.93.4.4,0,0,1-.05-.22c0-.74,0-1.48,0-2.22a.36.36,0,0,1,.14-.27,1.7,1.7,0,0,1,2.74,1.11s0,0,0,.05a2,2,0,0,1,1.33-.37Z"/><path class="cls-4" d="M38.61,4.32c-.27.29-.54.58-.79.87a.65.65,0,0,0-.16.78,10.8,10.8,0,0,0-1.1-.63,9.2,9.2,0,0,0-1.46-.47,1.13,1.13,0,0,1-.92-1.07A1.3,1.3,0,0,1,36,2.41c.12,0,.23.13.36.2,0-.14.1-.29.16-.42a1.26,1.26,0,0,1,1.74-.55l.37.18Z"/><path class="cls-4" d="M38.61,13.55c-.52-.34-1-.69-1.57-1a6.07,6.07,0,0,0-.73-.34,1.39,1.39,0,0,1-.87-1.51,1.83,1.83,0,0,1,.9-1.48,1.77,1.77,0,0,1,2.11.34.46.46,0,0,0,.16.07Z"/><path class="cls-4" d="M38.61,23.3a4.4,4.4,0,0,1-.21.5,1.59,1.59,0,0,1-1.12.85.34.34,0,0,1-.24,0,4.87,4.87,0,0,1-1.17-1.43,1.71,1.71,0,0,1,1-2.38,1.53,1.53,0,0,1,1.75.35Z"/><path class="cls-4" d="M31,20.48a1.81,1.81,0,0,1-.4,1.08A11.33,11.33,0,0,0,29.1,24.2l-.18.49h-4.8a1.42,1.42,0,0,1-.58-.15,2.46,2.46,0,0,1-1.23-2.75,2.91,2.91,0,0,1,.57-1.22.31.31,0,0,1,.2-.11h7.79Z"/><path class="cls-4" d="M9.2,20.44c-.62,1.26-.63,1.36-.2,2.14l-.13-.06A9.8,9.8,0,0,0,5,21.1C4.36,21,3.69,21,3,20.88A2.18,2.18,0,0,1,1.13,19.3a3.14,3.14,0,0,1,.18-2.46,2.55,2.55,0,0,1,2-1.33,5.31,5.31,0,0,1,.8,0c.17,0,.2.08.2.24v4.71Z"/><path class="cls-4" d="M32.58,4.27H22.94a2.77,2.77,0,0,1,1.73-1,2.54,2.54,0,0,1,1.92.38c0-.23.06-.45.11-.66a2.43,2.43,0,0,1,2-2,3.3,3.3,0,0,1,3.8,2.16A2.76,2.76,0,0,1,32.58,4.27Z"/><path class="cls-4" d="M11.09,20.47h5.27a6.85,6.85,0,0,0-1.1,2.78,1,1,0,0,0-1-.6,6.6,6.6,0,0,1-2-.32,1.67,1.67,0,0,1-1.22-1.73S11.09,20.52,11.09,20.47Z"/><path class="cls-4" d="M32.62,21c0-.08,0-.14,0-.19.09-.32.17-.38.5-.38h1.06a.9.9,0,0,0,.22-.07.88.88,0,0,1,.21,1.28,5.18,5.18,0,0,0-.83,1.72c0,.14-.05.28-.09.47a.66.66,0,0,0-.66-.44,4.88,4.88,0,0,1-1.47-.25,1.14,1.14,0,0,1-.8-1.08,1.24,1.24,0,0,1,.7-1.21,1,1,0,0,1,.91,0Z"/><path class="cls-4" d="M19.44,21c0-.61.4-.6.83-.58s.62,0,.93,0a.39.39,0,0,1,.25.14.84.84,0,0,1,0,1.06,4.74,4.74,0,0,0-.92,2.17c-.2-.45-.6-.39-1-.45a9.12,9.12,0,0,1-1.18-.23,1.07,1.07,0,0,1-.8-1,1.3,1.3,0,0,1,.7-1.25,1,1,0,0,1,.92.05Z"/><path class="cls-4" d="M15.17,4.28c-.68,0-1.43,0-2.17,0a.87.87,0,0,1-.69-.5A1.33,1.33,0,0,1,12.8,2a1,1,0,0,1,1,0l.22.12a1.1,1.1,0,0,1,2-.49A.92.92,0,0,1,16,2.8C15.73,3.27,15.47,3.76,15.17,4.28Z"/><path class="cls-4" d="M9.93,23.15,10,23a1.09,1.09,0,0,1,1.56-.78A1.23,1.23,0,0,1,12.26,24c-.31.71-.31.71-1.07.71H8.44c-.16,0-.23-.05-.26-.2a1.23,1.23,0,0,1,.36-1.31A1.18,1.18,0,0,1,9.93,23.15Z"/></g></g></svg>