<svg xmlns="http://www.w3.org/2000/svg" viewBox="0 0 38.55 24.66"><defs><style>.cls-1{isolation:isolate;}.cls-2{opacity:0.15;}.cls-2,.cls-3{mix-blend-mode:multiply;}.cls-4{fill:#fff;}</style></defs><title>convert-CUSTOMIZE-SVG-03</title><g class="cls-1"><g id="Layer_1" data-name="Layer 1"><g class="cls-2"><path d="M15.31,1.25a6.86,6.86,0,0,1,.76-.4.92.92,0,0,1,1.31.92,2.14,2.14,0,0,1-.61,1.42,4.36,4.36,0,0,1-1.34,1,.26.26,0,0,1-.21,0,4,4,0,0,1-1.56-1.24,1.94,1.94,0,0,1-.4-1.24A1,1,0,0,1,14,.78a1.38,1.38,0,0,1,.63.09A4.84,4.84,0,0,1,15.31,1.25Z"/><path d="M35.59,3.77c.18-.1.4-.24.64-.35a.88.88,0,0,1,1,0,1.08,1.08,0,0,1,.39,1A2.35,2.35,0,0,1,36.72,6a10.27,10.27,0,0,1-1,.69.27.27,0,0,1-.23,0A4.19,4.19,0,0,1,33.91,5.5a2.09,2.09,0,0,1-.41-1,1.13,1.13,0,0,1,.25-.85.7.7,0,0,1,.82-.27A9,9,0,0,1,35.59,3.77Z"/><path d="M23.42,23.44a7.1,7.1,0,0,1-.83.41A.9.9,0,0,1,21.35,23a2,2,0,0,1,.57-1.44,4.38,4.38,0,0,1,1.38-1,.26.26,0,0,1,.21,0A4.12,4.12,0,0,1,25,21.69,2,2,0,0,1,25.47,23a1,1,0,0,1-.72.93,1.36,1.36,0,0,1-.63-.09A5.83,5.83,0,0,1,23.42,23.44Z"/><path d="M3.14,20.91a7.37,7.37,0,0,1-.69.38.94.94,0,0,1-1.34-.95,2.1,2.1,0,0,1,.48-1.24A4.24,4.24,0,0,1,3.07,18a.21.21,0,0,1,.19,0,4,4,0,0,1,1.58,1.27,2,2,0,0,1,.39,1A1.22,1.22,0,0,1,5,21a.75.75,0,0,1-.87.35A9.06,9.06,0,0,1,3.14,20.91Z"/><path d="M23.4,1.24a7.1,7.1,0,0,1,.83-.41.9.9,0,0,1,1.24.88,2,2,0,0,1-.57,1.44,4.38,4.38,0,0,1-1.38,1,.21.21,0,0,1-.19,0A3.91,3.91,0,0,1,21.66,2.8a1.58,1.58,0,0,1-.26-1.33A.87.87,0,0,1,22.68.86,7.09,7.09,0,0,1,23.4,1.24Z"/><path d="M3.15,3.79A8.68,8.68,0,0,1,4,3.38a.94.94,0,0,1,1.29,1A2.36,2.36,0,0,1,4.35,6a9.65,9.65,0,0,1-1,.71.28.28,0,0,1-.25,0A4.29,4.29,0,0,1,1.63,5.63a2.29,2.29,0,0,1-.5-1.08,1.17,1.17,0,0,1,.12-.78.82.82,0,0,1,1-.44,2.65,2.65,0,0,1,.49.2C2.88,3.61,3,3.71,3.15,3.79Z"/><path d="M35.53,20.92a6.92,6.92,0,0,1-.77.39.93.93,0,0,1-1.27-1,2.25,2.25,0,0,1,.85-1.58A11.69,11.69,0,0,1,35.43,18a.22.22,0,0,1,.21,0,4,4,0,0,1,1.57,1.25,2.36,2.36,0,0,1,.4,1,1.17,1.17,0,0,1-.25.9.74.74,0,0,1-.83.28A10.87,10.87,0,0,1,35.53,20.92Z"/><path d="M15.32,23.44a6.27,6.27,0,0,1-.82.41A.9.9,0,0,1,13.26,23a2,2,0,0,1,.42-1.24,4.08,4.08,0,0,1,1.54-1.22.21.21,0,0,1,.19,0A3.92,3.92,0,0,1,17,21.81,1.94,1.94,0,0,1,17.38,23a.91.91,0,0,1-1.25.87A5.59,5.59,0,0,1,15.32,23.44Z"/><path d="M31.5,1.25a5.91,5.91,0,0,1,.79-.41.9.9,0,0,1,1.27.9A2.09,2.09,0,0,1,33,3.16a4.54,4.54,0,0,1-1.36,1,.33.33,0,0,1-.22,0,3.85,3.85,0,0,1-1.68-1.44,1.55,1.55,0,0,1-.24-1.27.88.88,0,0,1,1.3-.62A6.1,6.1,0,0,1,31.5,1.25Z"/><path d="M11.26,20.9a8,8,0,0,1-.71.38,1,1,0,0,1-1.34-1.07A2.25,2.25,0,0,1,10,18.79,10.45,10.45,0,0,1,11.14,18a.24.24,0,0,1,.22,0,4.21,4.21,0,0,1,1.55,1.22,2.22,2.22,0,0,1,.42,1.11.94.94,0,0,1-1.27,1A7.53,7.53,0,0,1,11.26,20.9Z"/><path d="M27.47,3.78a5.92,5.92,0,0,1,.71-.38,1,1,0,0,1,1.34,1.08,2.22,2.22,0,0,1-.76,1.4,13.73,13.73,0,0,1-1.17.83.27.27,0,0,1-.23,0,4.1,4.1,0,0,1-1.54-1.23,2.14,2.14,0,0,1-.43-1.11.93.93,0,0,1,1.28-1A8.52,8.52,0,0,1,27.47,3.78Z"/><path d="M7.23,23.44a8.52,8.52,0,0,1-.8.4A.9.9,0,0,1,5.16,23a2.06,2.06,0,0,1,.57-1.42,4.22,4.22,0,0,1,1.37-1,.28.28,0,0,1,.2,0A3.82,3.82,0,0,1,9,22a1.54,1.54,0,0,1,.21,1.22A.88.88,0,0,1,8,23.83C7.7,23.72,7.46,23.56,7.23,23.44Z"/><path d="M11.29,3.76a7.88,7.88,0,0,1,.77-.38.93.93,0,0,1,1.27,1A2.31,2.31,0,0,1,12.45,6a11,11,0,0,1-1.06.72.22.22,0,0,1-.21,0A3.65,3.65,0,0,1,9.62,5.46a3.75,3.75,0,0,1-.39-.92,1,1,0,0,1,.19-.88.75.75,0,0,1,.87-.34C10.63,3.44,11,3.61,11.29,3.76Z"/><path d="M27.46,20.9a7.63,7.63,0,0,1-.75.39.94.94,0,0,1-1.31-1.05A2.32,2.32,0,0,1,26,19a4.38,4.38,0,0,1,1.36-1,.26.26,0,0,1,.21,0,4,4,0,0,1,1.6,1.28,2.19,2.19,0,0,1,.38,1,1,1,0,0,1-1.34,1.07C27.93,21.18,27.7,21,27.46,20.9Z"/><path d="M19.34,20.91a5.59,5.59,0,0,1-.73.38,1,1,0,0,1-1.31-1.06A2.28,2.28,0,0,1,17.85,19,4.44,4.44,0,0,1,19.24,18a.28.28,0,0,1,.22,0A3.77,3.77,0,0,1,21,19.22a3.79,3.79,0,0,1,.38.93.93.93,0,0,1-.16.82.75.75,0,0,1-.92.38A10.55,10.55,0,0,1,19.34,20.91Z"/><path d="M31.5,23.44a6.54,6.54,0,0,1-.79.41A.92.92,0,0,1,29.44,23a2.13,2.13,0,0,1,.61-1.47,4.49,4.49,0,0,1,1.34-1,.25.25,0,0,1,.19,0,3.81,3.81,0,0,1,1.7,1.45,1.5,1.5,0,0,1,.2,1.39.83.83,0,0,1-1.16.52A7.84,7.84,0,0,1,31.5,23.44Z"/><path d="M7.22,1.24A7.46,7.46,0,0,1,8,.84a.9.9,0,0,1,1.26.89,2.1,2.1,0,0,1-.61,1.46,4.1,4.1,0,0,1-1.34,1,.21.21,0,0,1-.19,0,3.81,3.81,0,0,1-1.7-1.45,1.53,1.53,0,0,1-.19-1.39A.83.83,0,0,1,6.41.83,8.76,8.76,0,0,1,7.22,1.24Z"/><path d="M19.36,3.79a6,6,0,0,1,.75-.4.94.94,0,0,1,1.31,1.07,2.34,2.34,0,0,1-.5,1.15,4.26,4.26,0,0,1-1.45,1.11.25.25,0,0,1-.19,0,3.93,3.93,0,0,1-1.67-1.4,1.66,1.66,0,0,1-.28-1.26.89.89,0,0,1,1.33-.67C18.9,3.51,19.13,3.66,19.36,3.79Z"/><path d="M34.94,1.8a1,1,0,0,1,.6-.73h.06a1,1,0,0,1,.62.72.29.29,0,0,1-.43.3.4.4,0,0,0-.42,0C35.14,2.22,34.93,2.07,34.94,1.8Z"/><path d="M3.78,22.9a.94.94,0,0,1-.59.71s-.06,0-.08,0a1,1,0,0,1-.59-.67.39.39,0,0,1,.12-.33.35.35,0,0,1,.33,0,.34.34,0,0,0,.36,0C3.59,22.46,3.8,22.61,3.78,22.9Z"/><path d="M11.22,2c-.06,0-.1.08-.15.09s-.29.06-.35,0a.49.49,0,0,1-.12-.37.92.92,0,0,1,.57-.63.17.17,0,0,1,.1,0,1.07,1.07,0,0,1,.55.56.36.36,0,0,1-.07.43c-.13.12-.27.06-.41,0Z"/><path d="M19.34,2a.71.71,0,0,1-.21.11c-.1,0-.25,0-.31,0a.44.44,0,0,1-.11-.33.94.94,0,0,1,.58-.66.14.14,0,0,1,.09,0,.9.9,0,0,1,.57.63.41.41,0,0,1-.1.35c-.08.06-.24,0-.36,0S19.39,2,19.34,2Z"/><path d="M19.07,22.54c.2.21.44.07.69,0s.31.2.26.4a1,1,0,0,1-.58.65.12.12,0,0,1-.08,0,1,1,0,0,1-.61-.73A.31.31,0,0,1,19.07,22.54Z"/><path d="M28.14,22.89a.94.94,0,0,1-.6.72h0a1,1,0,0,1-.63-.8.28.28,0,0,1,.45-.22.33.33,0,0,0,.38,0C28,22.46,28.15,22.61,28.14,22.89Z"/><path d="M3.73,1.81a.28.28,0,0,1-.44.28.33.33,0,0,0-.38,0,.33.33,0,0,1-.32,0,.46.46,0,0,1-.12-.33,1,1,0,0,1,.59-.67s0,0,.06,0A1,1,0,0,1,3.73,1.81Z"/><path d="M32.16,6a.28.28,0,0,1-.44.28.33.33,0,0,0-.38,0,.36.36,0,0,1-.32,0,.45.45,0,0,1-.12-.34,1,1,0,0,1,.59-.66h.06A1,1,0,0,1,32.16,6Z"/><path d="M6.56,18.69A.28.28,0,0,1,7,18.41a.35.35,0,0,0,.38,0,.35.35,0,0,1,.33,0,.4.4,0,0,1,.12.31,1,1,0,0,1-.59.68H7.17A1,1,0,0,1,6.56,18.69Z"/><path d="M36.27,22.89a1,1,0,0,1-.62.72h0c-.3,0-.73-.6-.62-.88a.27.27,0,0,1,.42-.15.35.35,0,0,0,.39,0C36.07,22.46,36.27,22.61,36.27,22.89Z"/><path d="M28.09,1.81a.28.28,0,0,1-.44.28.33.33,0,0,0-.38,0c-.26.15-.48,0-.45-.32a1,1,0,0,1,.6-.69h.06A1,1,0,0,1,28.09,1.81Z"/><path d="M16,18.68a1,1,0,0,1-.61.75h0a.92.92,0,0,1-.62-.81c0-.23.23-.32.46-.2a.3.3,0,0,0,.34,0C15.77,18.28,16,18.41,16,18.68Z"/><path d="M24.13,18.68a1,1,0,0,1-.6.74h-.08a.92.92,0,0,1-.58-.65.38.38,0,0,1,.1-.33.33.33,0,0,1,.32,0,.38.38,0,0,0,.4,0A.29.29,0,0,1,24.13,18.68Z"/><path d="M22.75,6a.93.93,0,0,1,.61-.73.12.12,0,0,1,.08,0,1,1,0,0,1,.56.59.32.32,0,0,1-.1.4.48.48,0,0,1-.37,0,.29.29,0,0,0-.3,0C23,6.4,22.75,6.28,22.75,6Z"/><path d="M15.88,6a.3.3,0,0,1-.46.27.33.33,0,0,0-.36,0,.39.39,0,0,1-.32,0,.4.4,0,0,1-.12-.35c0-.33.3-.5.57-.65h.08A1,1,0,0,1,15.88,6Z"/><path d="M11.91,22.9a1,1,0,0,1-.6.71s0,0-.06,0a1,1,0,0,1-.62-.74.28.28,0,0,1,.43-.28.38.38,0,0,0,.41,0C11.71,22.46,11.92,22.62,11.91,22.9Z"/><path d="M7.73,6a.28.28,0,0,1-.45.26.38.38,0,0,0-.37,0,.4.4,0,0,1-.34,0,.44.44,0,0,1-.1-.36A1,1,0,0,1,7,5.26h.08A1,1,0,0,1,7.73,6Z"/><path d="M31,18.68a.28.28,0,0,1,.43-.27.4.4,0,0,0,.42,0,.29.29,0,0,1,.3,0,.43.43,0,0,1,.11.34.94.94,0,0,1-.58.65H31.6A1,1,0,0,1,31,18.68Z"/><path d="M15.51,1.45a5.51,5.51,0,0,1,.76-.4.91.91,0,0,1,1.3.91A2.11,2.11,0,0,1,17,3.39a4.49,4.49,0,0,1-1.34,1,.26.26,0,0,1-.21,0,4.1,4.1,0,0,1-1.56-1.24,2,2,0,0,1-.41-1.24A1,1,0,0,1,14.16,1a1.28,1.28,0,0,1,.64.09A4.84,4.84,0,0,1,15.51,1.45Z"/><path d="M35.78,4c.19-.1.41-.25.65-.35a.84.84,0,0,1,1,0,1.07,1.07,0,0,1,.4,1,2.35,2.35,0,0,1-.88,1.5,10.41,10.41,0,0,1-1,.69.24.24,0,0,1-.22,0A4.11,4.11,0,0,1,34.11,5.7a2.09,2.09,0,0,1-.41-1A1.13,1.13,0,0,1,34,3.8a.72.72,0,0,1,.82-.28A10,10,0,0,1,35.78,4Z"/><path d="M23.62,23.64a7.1,7.1,0,0,1-.83.41.9.9,0,0,1-1.24-.88,2,2,0,0,1,.57-1.44,4.23,4.23,0,0,1,1.38-1,.26.26,0,0,1,.21,0,4.12,4.12,0,0,1,1.52,1.19,2,2,0,0,1,.44,1.27,1,1,0,0,1-.72.94,1.51,1.51,0,0,1-.63-.09A5.83,5.83,0,0,1,23.62,23.64Z"/><path d="M3.34,21.11a7.37,7.37,0,0,1-.69.38.94.94,0,0,1-1.34-.95,2,2,0,0,1,.48-1.24,4.24,4.24,0,0,1,1.48-1.14.25.25,0,0,1,.19,0A4.11,4.11,0,0,1,5,19.43a2.15,2.15,0,0,1,.39,1,1.18,1.18,0,0,1-.2.78.75.75,0,0,1-.87.36A9.06,9.06,0,0,1,3.34,21.11Z"/><path d="M23.6,1.44A7.1,7.1,0,0,1,24.43,1a.9.9,0,0,1,1.24.88,2.14,2.14,0,0,1-.57,1.44,4.38,4.38,0,0,1-1.38,1,.21.21,0,0,1-.19,0A3.91,3.91,0,0,1,21.86,3a1.58,1.58,0,0,1-.26-1.33.86.86,0,0,1,1.28-.61A7.09,7.09,0,0,1,23.6,1.44Z"/><path d="M3.35,4a6.75,6.75,0,0,1,.8-.41.93.93,0,0,1,1.28,1A2.31,2.31,0,0,1,4.55,6.2c-.33.26-.69.48-1,.71a.36.36,0,0,1-.25,0A4.29,4.29,0,0,1,1.83,5.83a2.29,2.29,0,0,1-.5-1.08A1.17,1.17,0,0,1,1.45,4a.82.82,0,0,1,1-.44,3,3,0,0,1,.49.2A4.28,4.28,0,0,1,3.35,4Z"/><path d="M35.73,21.12a7.88,7.88,0,0,1-.77.38.93.93,0,0,1-1.27-1,2.2,2.2,0,0,1,.85-1.58,11.69,11.69,0,0,1,1.09-.75.22.22,0,0,1,.21,0,4,4,0,0,1,1.57,1.25,2.3,2.3,0,0,1,.4,1,1.14,1.14,0,0,1-.25.89.73.73,0,0,1-.83.29C36.39,21.44,36.07,21.27,35.73,21.12Z"/><path d="M15.51,23.64a6.82,6.82,0,0,1-.81.41.91.91,0,0,1-1.25-.89,2,2,0,0,1,.42-1.24,4,4,0,0,1,1.55-1.22.25.25,0,0,1,.19,0A4.09,4.09,0,0,1,17.21,22a1.92,1.92,0,0,1,.36,1.18.9.9,0,0,1-1.24.87A6.27,6.27,0,0,1,15.51,23.64Z"/><path d="M31.7,1.44a7.31,7.31,0,0,1,.79-.4.91.91,0,0,1,1.27.9,2.05,2.05,0,0,1-.57,1.41,4.16,4.16,0,0,1-1.37,1,.26.26,0,0,1-.21,0A3.77,3.77,0,0,1,29.93,3a1.55,1.55,0,0,1-.24-1.27A.87.87,0,0,1,31,1.06,7,7,0,0,1,31.7,1.44Z"/><path d="M11.46,21.1a8,8,0,0,1-.71.38,1,1,0,0,1-1.34-1.07A2.19,2.19,0,0,1,10.18,19a13.31,13.31,0,0,1,1.15-.82.31.31,0,0,1,.23,0,4.11,4.11,0,0,1,1.55,1.22,2.22,2.22,0,0,1,.42,1.11.94.94,0,0,1-1.27,1C12,21.4,11.72,21.23,11.46,21.1Z"/><path d="M27.67,4a6.64,6.64,0,0,1,.7-.38,1,1,0,0,1,1.34,1.08A2.16,2.16,0,0,1,29,6.08c-.37.31-.78.56-1.17.83a.31.31,0,0,1-.23,0A4.14,4.14,0,0,1,26,5.69a2.22,2.22,0,0,1-.42-1.11.94.94,0,0,1,1.28-1C27.14,3.68,27.39,3.84,27.67,4Z"/><path d="M7.43,23.64a7.61,7.61,0,0,1-.81.4.9.9,0,0,1-1.26-.88,2,2,0,0,1,.56-1.42,4.37,4.37,0,0,1,1.38-1,.24.24,0,0,1,.2,0,3.82,3.82,0,0,1,1.73,1.5,1.52,1.52,0,0,1,.2,1.21A.88.88,0,0,1,8.15,24C7.89,23.92,7.66,23.76,7.43,23.64Z"/><path d="M11.49,4a6.92,6.92,0,0,1,.77-.39.94.94,0,0,1,1.27,1,2.34,2.34,0,0,1-.88,1.58,11.11,11.11,0,0,1-1.07.72.22.22,0,0,1-.21,0A3.77,3.77,0,0,1,9.81,5.66a3.79,3.79,0,0,1-.38-.93,1,1,0,0,1,.19-.88.76.76,0,0,1,.87-.33C10.83,3.64,11.15,3.81,11.49,4Z"/><path d="M27.66,21.1a7.63,7.63,0,0,1-.75.39.94.94,0,0,1-1.31-1,2.25,2.25,0,0,1,.57-1.25,4.38,4.38,0,0,1,1.36-1,.31.31,0,0,1,.21,0,4.11,4.11,0,0,1,1.6,1.29,2.19,2.19,0,0,1,.38,1,1,1,0,0,1-1.34,1.06A7.09,7.09,0,0,1,27.66,21.1Z"/><path d="M19.54,21.11a7.15,7.15,0,0,1-.73.38,1,1,0,0,1-1.31-1.06,2.28,2.28,0,0,1,.55-1.21,4.33,4.33,0,0,1,1.39-1,.26.26,0,0,1,.21,0,3.65,3.65,0,0,1,1.56,1.26,4.17,4.17,0,0,1,.39.92,1,1,0,0,1-.16.83.76.76,0,0,1-.92.38A10.55,10.55,0,0,1,19.54,21.11Z"/><path d="M31.7,23.64a7.31,7.31,0,0,1-.79.4.91.91,0,0,1-1.27-.89,2.1,2.1,0,0,1,.61-1.46,4.32,4.32,0,0,1,1.34-1,.21.21,0,0,1,.19,0,3.85,3.85,0,0,1,1.7,1.44,1.52,1.52,0,0,1,.19,1.4.83.83,0,0,1-1.16.52C32.23,23.94,32,23.77,31.7,23.64Z"/><path d="M7.42,1.44A7.53,7.53,0,0,1,8.22,1a.91.91,0,0,1,1.26.9,2.1,2.1,0,0,1-.61,1.46,4.1,4.1,0,0,1-1.34,1,.21.21,0,0,1-.19,0,3.81,3.81,0,0,1-1.7-1.45,1.53,1.53,0,0,1-.19-1.39A.82.82,0,0,1,6.61,1,6.82,6.82,0,0,1,7.42,1.44Z"/><path d="M19.56,4a7.48,7.48,0,0,1,.74-.39,1,1,0,0,1,1.32,1.07,2.34,2.34,0,0,1-.5,1.15,4.49,4.49,0,0,1-1.45,1.11.31.31,0,0,1-.19,0,3.93,3.93,0,0,1-1.67-1.4,1.63,1.63,0,0,1-.28-1.27.89.89,0,0,1,1.33-.66C19.1,3.71,19.33,3.86,19.56,4Z"/><path d="M35.14,2a1,1,0,0,1,.6-.73s0,0,.06,0a1,1,0,0,1,.62.72.29.29,0,0,1-.44.3.36.36,0,0,0-.41,0C35.33,2.42,35.13,2.27,35.14,2Z"/><path d="M4,23.09a.93.93,0,0,1-.59.71H3.31a.93.93,0,0,1-.59-.66.39.39,0,0,1,.12-.33.38.38,0,0,1,.33,0,.32.32,0,0,0,.36,0C3.79,22.66,4,22.8,4,23.09Z"/><path d="M11.42,2.18c-.06,0-.1.08-.16.09s-.28.06-.34,0a.45.45,0,0,1-.12-.37.9.9,0,0,1,.57-.63.12.12,0,0,1,.1,0,1.09,1.09,0,0,1,.55.55.36.36,0,0,1-.07.43c-.13.13-.27.06-.41,0Z"/><path d="M19.54,2.18a.71.71,0,0,1-.21.11c-.1,0-.25,0-.31,0a.42.42,0,0,1-.11-.33,1,1,0,0,1,.57-.66.17.17,0,0,1,.1,0,.9.9,0,0,1,.57.63.42.42,0,0,1-.1.35c-.08.06-.24,0-.37,0S19.59,2.21,19.54,2.18Z"/><path d="M19.27,22.74c.2.21.44.07.69,0s.31.2.26.4a1,1,0,0,1-.59.65h-.07a1,1,0,0,1-.61-.73A.31.31,0,0,1,19.27,22.74Z"/><path d="M28.34,23.08a.94.94,0,0,1-.6.73h0a1,1,0,0,1-.63-.8.28.28,0,0,1,.45-.22.35.35,0,0,0,.37,0A.28.28,0,0,1,28.34,23.08Z"/><path d="M3.93,2a.28.28,0,0,1-.44.28.35.35,0,0,0-.38,0,.33.33,0,0,1-.32,0,.48.48,0,0,1-.12-.33,1,1,0,0,1,.59-.67s0,0,.06,0A1,1,0,0,1,3.93,2Z"/><path d="M32.36,6.19a.28.28,0,0,1-.44.28.33.33,0,0,0-.38,0,.33.33,0,0,1-.32,0,.41.41,0,0,1-.12-.33,1,1,0,0,1,.59-.66h.06A1,1,0,0,1,32.36,6.19Z"/><path d="M6.76,18.89a.28.28,0,0,1,.44-.28.35.35,0,0,0,.38,0,.35.35,0,0,1,.33,0,.4.4,0,0,1,.12.31,1,1,0,0,1-.6.68H7.37A1,1,0,0,1,6.76,18.89Z"/><path d="M36.46,23.09a1,1,0,0,1-.61.72h0c-.3,0-.73-.6-.62-.89a.28.28,0,0,1,.42-.14.35.35,0,0,0,.39,0C36.27,22.66,36.47,22.81,36.46,23.09Z"/><path d="M28.29,2a.28.28,0,0,1-.44.27.35.35,0,0,0-.38,0c-.26.14-.48,0-.45-.32a1,1,0,0,1,.6-.69s0,0,.06,0A1,1,0,0,1,28.29,2Z"/><path d="M16.18,18.88a1,1,0,0,1-.61.74h0a.92.92,0,0,1-.62-.81.28.28,0,0,1,.46-.2.3.3,0,0,0,.34,0A.29.29,0,0,1,16.18,18.88Z"/><path d="M24.33,18.87a1,1,0,0,1-.61.75h-.08a1,1,0,0,1-.58-.65.45.45,0,0,1,.11-.34.36.36,0,0,1,.32,0,.36.36,0,0,0,.4,0A.29.29,0,0,1,24.33,18.87Z"/><path d="M23,6.19a.94.94,0,0,1,.6-.74.11.11,0,0,1,.08,0,1,1,0,0,1,.57.59.3.3,0,0,1-.1.39.48.48,0,0,1-.37,0,.29.29,0,0,0-.3,0C23.16,6.6,23,6.48,23,6.19Z"/><path d="M16.08,6.2a.29.29,0,0,1-.46.26.36.36,0,0,0-.36,0,.38.38,0,0,1-.33,0,.45.45,0,0,1-.11-.35c0-.33.3-.5.57-.65h.08A1,1,0,0,1,16.08,6.2Z"/><path d="M12.1,23.1a1,1,0,0,1-.6.71s0,0-.06,0a1,1,0,0,1-.61-.74c0-.26.2-.4.42-.28a.4.4,0,0,0,.42,0C11.91,22.66,12.12,22.82,12.1,23.1Z"/><path d="M7.92,6.2c0,.27-.2.39-.45.26a.38.38,0,0,0-.36,0,.37.37,0,0,1-.34,0,.47.47,0,0,1-.1-.36,1,1,0,0,1,.57-.63h.08A.92.92,0,0,1,7.92,6.2Z"/><path d="M31.2,18.88a.28.28,0,0,1,.43-.27.4.4,0,0,0,.42,0,.29.29,0,0,1,.3,0,.42.42,0,0,1,.11.33,1,1,0,0,1-.58.66H31.8A.93.93,0,0,1,31.2,18.88Z"/></g><g class="cls-3"><path d="M15.17,1.11a5.51,5.51,0,0,1,.76-.4.91.91,0,0,1,1.3.91,2.11,2.11,0,0,1-.6,1.43,4.49,4.49,0,0,1-1.34,1,.26.26,0,0,1-.21,0A4.1,4.1,0,0,1,13.52,2.8a2.05,2.05,0,0,1-.41-1.24,1,1,0,0,1,.71-.92,1.28,1.28,0,0,1,.64.09A4.84,4.84,0,0,1,15.17,1.11Z"/><path d="M35.44,3.63a5.59,5.59,0,0,1,.65-.35.84.84,0,0,1,1,0,1.07,1.07,0,0,1,.4,1.05,2.32,2.32,0,0,1-.89,1.5,10.27,10.27,0,0,1-1,.69.24.24,0,0,1-.22,0,4.11,4.11,0,0,1-1.55-1.22,2.09,2.09,0,0,1-.41-1.05,1.17,1.17,0,0,1,.24-.85.74.74,0,0,1,.83-.28A10,10,0,0,1,35.44,3.63Z"/><path d="M23.28,23.3a7.1,7.1,0,0,1-.83.41.9.9,0,0,1-1.24-.88,2,2,0,0,1,.57-1.44,4.23,4.23,0,0,1,1.38-1,.26.26,0,0,1,.21,0,4.12,4.12,0,0,1,1.52,1.19,2,2,0,0,1,.44,1.27,1,1,0,0,1-.72.94,1.51,1.51,0,0,1-.63-.09A5.83,5.83,0,0,1,23.28,23.3Z"/><path d="M3,20.77a6.48,6.48,0,0,1-.7.38A.93.93,0,0,1,1,20.2,2,2,0,0,1,1.45,19a4.24,4.24,0,0,1,1.48-1.14.25.25,0,0,1,.19,0A4.19,4.19,0,0,1,4.7,19.09a2.15,2.15,0,0,1,.39,1,1.18,1.18,0,0,1-.2.78.75.75,0,0,1-.87.36A9.06,9.06,0,0,1,3,20.77Z"/><path d="M23.26,1.1a7.1,7.1,0,0,1,.83-.41.9.9,0,0,1,1.24.88A2.14,2.14,0,0,1,24.76,3a4.38,4.38,0,0,1-1.38,1,.25.25,0,0,1-.19,0,3.91,3.91,0,0,1-1.67-1.39,1.58,1.58,0,0,1-.26-1.33A.87.87,0,0,1,22.54.71C22.79.82,23,1,23.26,1.1Z"/><path d="M3,3.65a6.75,6.75,0,0,1,.8-.41.93.93,0,0,1,1.28,1,2.31,2.31,0,0,1-.88,1.61c-.33.26-.69.48-1,.71a.36.36,0,0,1-.25,0A4.29,4.29,0,0,1,1.49,5.49,2.29,2.29,0,0,1,1,4.41a1.17,1.17,0,0,1,.12-.78.82.82,0,0,1,1-.44,3,3,0,0,1,.49.2A4.28,4.28,0,0,1,3,3.65Z"/><path d="M35.39,20.78a7.88,7.88,0,0,1-.77.38.93.93,0,0,1-1.27-1,2.2,2.2,0,0,1,.85-1.58,11.69,11.69,0,0,1,1.09-.75.22.22,0,0,1,.21,0,4.08,4.08,0,0,1,1.57,1.25,2.3,2.3,0,0,1,.4,1,1.14,1.14,0,0,1-.25.89.73.73,0,0,1-.83.29C36.05,21.1,35.73,20.93,35.39,20.78Z"/><path d="M15.17,23.3a6.82,6.82,0,0,1-.81.41.91.91,0,0,1-1.25-.89,2,2,0,0,1,.42-1.24,4,4,0,0,1,1.55-1.22.25.25,0,0,1,.19,0,4.09,4.09,0,0,1,1.6,1.31,1.92,1.92,0,0,1,.36,1.18.9.9,0,0,1-1.24.87A6.27,6.27,0,0,1,15.17,23.3Z"/><path d="M31.36,1.1a7.31,7.31,0,0,1,.79-.4.91.91,0,0,1,1.27.9A2.05,2.05,0,0,1,32.85,3a4.16,4.16,0,0,1-1.37,1,.26.26,0,0,1-.21,0,3.77,3.77,0,0,1-1.68-1.43,1.55,1.55,0,0,1-.24-1.27A.87.87,0,0,1,30.64.72,7,7,0,0,1,31.36,1.1Z"/><path d="M11.12,20.76a8,8,0,0,1-.71.38,1,1,0,0,1-1.34-1.07,2.19,2.19,0,0,1,.77-1.42A13.31,13.31,0,0,1,11,17.83a.31.31,0,0,1,.23,0A4.11,4.11,0,0,1,12.77,19a2.22,2.22,0,0,1,.42,1.11.94.94,0,0,1-1.27,1C11.64,21.06,11.38,20.89,11.12,20.76Z"/><path d="M27.33,3.64a5.21,5.21,0,0,1,.7-.38,1,1,0,0,1,1.34,1.08,2.16,2.16,0,0,1-.75,1.4c-.37.31-.78.56-1.17.83a.31.31,0,0,1-.23,0,4.14,4.14,0,0,1-1.55-1.23,2.22,2.22,0,0,1-.42-1.11.94.94,0,0,1,1.28-1C26.8,3.34,27.05,3.5,27.33,3.64Z"/><path d="M7.09,23.3a8.69,8.69,0,0,1-.81.4A.9.9,0,0,1,5,22.82a2,2,0,0,1,.56-1.42,4.37,4.37,0,0,1,1.38-1,.24.24,0,0,1,.2,0,3.82,3.82,0,0,1,1.73,1.5,1.52,1.52,0,0,1,.2,1.21.88.88,0,0,1-1.28.63C7.55,23.58,7.32,23.42,7.09,23.3Z"/><path d="M11.15,3.62a6.92,6.92,0,0,1,.77-.39.94.94,0,0,1,1.27,1,2.34,2.34,0,0,1-.88,1.59,11.11,11.11,0,0,1-1.07.72.22.22,0,0,1-.21,0A3.77,3.77,0,0,1,9.47,5.32a3.79,3.79,0,0,1-.38-.93,1,1,0,0,1,.19-.88.76.76,0,0,1,.87-.33C10.49,3.3,10.81,3.47,11.15,3.62Z"/><path d="M27.32,20.76a7.63,7.63,0,0,1-.75.39.94.94,0,0,1-1.31-1,2.25,2.25,0,0,1,.57-1.25,4.38,4.38,0,0,1,1.36-1,.31.31,0,0,1,.21,0A4.11,4.11,0,0,1,29,19.1a2.19,2.19,0,0,1,.38,1A1,1,0,0,1,28,21.14,7.09,7.09,0,0,1,27.32,20.76Z"/><path d="M19.2,20.77a7.15,7.15,0,0,1-.73.38,1,1,0,0,1-1.31-1.06,2.28,2.28,0,0,1,.55-1.21,4.19,4.19,0,0,1,1.39-1.05.26.26,0,0,1,.21,0,3.65,3.65,0,0,1,1.56,1.26,4.17,4.17,0,0,1,.39.92,1,1,0,0,1-.16.83.76.76,0,0,1-.92.38A10.55,10.55,0,0,1,19.2,20.77Z"/><path d="M31.36,23.3a7.31,7.31,0,0,1-.79.4.91.91,0,0,1-1.27-.89,2.1,2.1,0,0,1,.61-1.46,4.32,4.32,0,0,1,1.34-1,.21.21,0,0,1,.19,0,3.85,3.85,0,0,1,1.7,1.44,1.52,1.52,0,0,1,.19,1.4.83.83,0,0,1-1.16.52C31.89,23.6,31.62,23.43,31.36,23.3Z"/><path d="M7.08,1.1a7.53,7.53,0,0,1,.8-.41.91.91,0,0,1,1.26.9,2.1,2.1,0,0,1-.61,1.46A4.1,4.1,0,0,1,7.19,4a.21.21,0,0,1-.19,0A3.81,3.81,0,0,1,5.3,2.6a1.53,1.53,0,0,1-.19-1.39A.82.82,0,0,1,6.27.69,6.82,6.82,0,0,1,7.08,1.1Z"/><path d="M19.22,3.64A7.48,7.48,0,0,1,20,3.25a1,1,0,0,1,1.32,1.07,2.34,2.34,0,0,1-.5,1.15,4.49,4.49,0,0,1-1.45,1.11.31.31,0,0,1-.19,0,3.93,3.93,0,0,1-1.67-1.4,1.59,1.59,0,0,1-.28-1.27.89.89,0,0,1,1.33-.66C18.76,3.37,19,3.52,19.22,3.64Z"/><path d="M34.8,1.66a1,1,0,0,1,.6-.73s0,0,.06,0a1,1,0,0,1,.62.72.29.29,0,0,1-.44.3.36.36,0,0,0-.41,0C35,2.08,34.79,1.93,34.8,1.66Z"/><path d="M3.64,22.75a.93.93,0,0,1-.59.71H3a.93.93,0,0,1-.59-.66.39.39,0,0,1,.12-.33.38.38,0,0,1,.33,0,.32.32,0,0,0,.36,0C3.45,22.32,3.66,22.46,3.64,22.75Z"/><path d="M11.08,1.84c-.06,0-.1.08-.16.08s-.28.07-.34,0a.45.45,0,0,1-.12-.37A.9.9,0,0,1,11,.94a.12.12,0,0,1,.1,0,1.09,1.09,0,0,1,.55.55.36.36,0,0,1-.07.43c-.13.13-.27.06-.41,0Z"/><path d="M19.2,1.84A.71.71,0,0,1,19,2a.45.45,0,0,1-.31,0,.42.42,0,0,1-.11-.33,1,1,0,0,1,.57-.66h.1a.9.9,0,0,1,.57.63.42.42,0,0,1-.1.35c-.08.06-.24,0-.37,0S19.25,1.87,19.2,1.84Z"/><path d="M18.93,22.4c.2.21.44.07.69,0s.31.2.26.4a1,1,0,0,1-.59.65h-.07a1,1,0,0,1-.61-.73A.31.31,0,0,1,18.93,22.4Z"/><path d="M28,22.74a.94.94,0,0,1-.6.73h0a1,1,0,0,1-.63-.8.28.28,0,0,1,.45-.22.35.35,0,0,0,.37,0A.28.28,0,0,1,28,22.74Z"/><path d="M3.59,1.67A.29.29,0,0,1,3.15,2a.35.35,0,0,0-.38,0,.33.33,0,0,1-.32,0,.48.48,0,0,1-.12-.33A1,1,0,0,1,2.92.93s0,0,.06,0A1,1,0,0,1,3.59,1.67Z"/><path d="M32,5.85a.28.28,0,0,1-.44.28.33.33,0,0,0-.38,0,.33.33,0,0,1-.32,0,.41.41,0,0,1-.12-.33,1,1,0,0,1,.59-.66h.06A1,1,0,0,1,32,5.85Z"/><path d="M6.42,18.55a.28.28,0,0,1,.44-.28.35.35,0,0,0,.38,0,.35.35,0,0,1,.33,0,.4.4,0,0,1,.12.31,1,1,0,0,1-.6.68H7A1,1,0,0,1,6.42,18.55Z"/><path d="M36.12,22.75a1,1,0,0,1-.61.72h0c-.3,0-.73-.6-.62-.89a.27.27,0,0,1,.41-.14.36.36,0,0,0,.4,0C35.93,22.32,36.13,22.47,36.12,22.75Z"/><path d="M28,1.67a.28.28,0,0,1-.44.27.35.35,0,0,0-.38,0c-.26.14-.48,0-.45-.32a1,1,0,0,1,.6-.69s0,0,.06,0A1,1,0,0,1,28,1.67Z"/><path d="M15.84,18.54a1,1,0,0,1-.61.74h0a.92.92,0,0,1-.62-.81.28.28,0,0,1,.46-.2.3.3,0,0,0,.34,0A.29.29,0,0,1,15.84,18.54Z"/><path d="M24,18.53a1,1,0,0,1-.61.75H23.3a1,1,0,0,1-.58-.65.45.45,0,0,1,.11-.34.36.36,0,0,1,.32,0,.36.36,0,0,0,.4,0A.29.29,0,0,1,24,18.53Z"/><path d="M22.61,5.85a.94.94,0,0,1,.6-.74.11.11,0,0,1,.08,0,1,1,0,0,1,.57.59.3.3,0,0,1-.1.39.48.48,0,0,1-.37,0,.29.29,0,0,0-.3,0C22.82,6.26,22.61,6.14,22.61,5.85Z"/><path d="M15.74,5.86a.29.29,0,0,1-.46.26.36.36,0,0,0-.36,0,.38.38,0,0,1-.33,0,.5.5,0,0,1-.12-.35.94.94,0,0,1,.58-.65h.08A1,1,0,0,1,15.74,5.86Z"/><path d="M11.76,22.76a1,1,0,0,1-.6.71H11.1a1,1,0,0,1-.61-.74c0-.26.2-.4.42-.28a.4.4,0,0,0,.42,0C11.57,22.32,11.78,22.48,11.76,22.76Z"/><path d="M7.58,5.86c0,.27-.2.39-.45.26a.38.38,0,0,0-.36,0,.37.37,0,0,1-.34,0,.47.47,0,0,1-.1-.36,1,1,0,0,1,.57-.63H7A.92.92,0,0,1,7.58,5.86Z"/><path d="M30.86,18.54a.28.28,0,0,1,.43-.27.4.4,0,0,0,.42,0,.29.29,0,0,1,.3,0,.41.41,0,0,1,.11.33,1,1,0,0,1-.58.66h-.08A.93.93,0,0,1,30.86,18.54Z"/></g><path class="cls-4" d="M15.37,1.3a6.8,6.8,0,0,1,.76-.39.91.91,0,0,1,1.3.91,2.13,2.13,0,0,1-.6,1.43,4.45,4.45,0,0,1-1.34,1,.26.26,0,0,1-.21,0A4,4,0,0,1,13.72,3a2,2,0,0,1-.41-1.24A1,1,0,0,1,14,.84a1.4,1.4,0,0,1,.64.08A8,8,0,0,1,15.37,1.3Z"/><path class="cls-4" d="M35.64,3.83c.19-.11.41-.25.64-.36a.87.87,0,0,1,1,0,1.1,1.1,0,0,1,.4,1.06,2.32,2.32,0,0,1-.89,1.49,8.89,8.89,0,0,1-1,.7.26.26,0,0,1-.23,0A4.26,4.26,0,0,1,34,5.56a2.24,2.24,0,0,1-.42-1,1.18,1.18,0,0,1,.25-.85.74.74,0,0,1,.83-.28A8.93,8.93,0,0,1,35.64,3.83Z"/><path class="cls-4" d="M23.48,23.5a8,8,0,0,1-.83.41A.9.9,0,0,1,21.41,23,2,2,0,0,1,22,21.59a4.13,4.13,0,0,1,1.38-1,.26.26,0,0,1,.21,0,4,4,0,0,1,1.51,1.19A2,2,0,0,1,25.53,23a1,1,0,0,1-.72.94,1.56,1.56,0,0,1-.64-.09A5.7,5.7,0,0,1,23.48,23.5Z"/><path class="cls-4" d="M3.2,21a5.09,5.09,0,0,1-.7.37.92.92,0,0,1-1.33-.94,2,2,0,0,1,.48-1.24A4.24,4.24,0,0,1,3.13,18a.25.25,0,0,1,.19,0A4.09,4.09,0,0,1,4.9,19.29a2.15,2.15,0,0,1,.39,1,1.19,1.19,0,0,1-.2.78.76.76,0,0,1-.88.36C3.87,21.3,3.55,21.13,3.2,21Z"/><path class="cls-4" d="M23.46,1.3a8.06,8.06,0,0,1,.83-.42.91.91,0,0,1,1.24.88A2.1,2.1,0,0,1,25,3.2a4.26,4.26,0,0,1-1.38,1,.31.31,0,0,1-.19,0,3.86,3.86,0,0,1-1.67-1.4,1.59,1.59,0,0,1-.27-1.32A.88.88,0,0,1,22.74.91C23,1,23.22,1.17,23.46,1.3Z"/><path class="cls-4" d="M3.21,3.85A6.75,6.75,0,0,1,4,3.44a.93.93,0,0,1,1.28,1,2.28,2.28,0,0,1-.89,1.6,9.09,9.09,0,0,1-1,.71.31.31,0,0,1-.25,0A4.19,4.19,0,0,1,1.69,5.68a2.22,2.22,0,0,1-.51-1.07,1.24,1.24,0,0,1,.13-.78.8.8,0,0,1,1-.44,3,3,0,0,1,.49.2A3,3,0,0,1,3.21,3.85Z"/><path class="cls-4" d="M35.59,21a6.94,6.94,0,0,1-.77.39.93.93,0,0,1-1.27-1,2.19,2.19,0,0,1,.85-1.57A10.58,10.58,0,0,1,35.49,18a.3.3,0,0,1,.21,0,4.2,4.2,0,0,1,1.57,1.26,2.16,2.16,0,0,1,.39,1,1.09,1.09,0,0,1-.24.89.71.71,0,0,1-.83.28A8.7,8.7,0,0,1,35.59,21Z"/><path class="cls-4" d="M15.37,23.5a8.76,8.76,0,0,1-.81.41A.91.91,0,0,1,13.31,23a2,2,0,0,1,.42-1.24,4.1,4.1,0,0,1,1.54-1.23.34.34,0,0,1,.2,0,4.09,4.09,0,0,1,1.6,1.31A1.89,1.89,0,0,1,17.43,23a.9.9,0,0,1-1.24.88A6.27,6.27,0,0,1,15.37,23.5Z"/><path class="cls-4" d="M31.55,1.3a7.46,7.46,0,0,1,.8-.4.9.9,0,0,1,1.27.9,2.05,2.05,0,0,1-.57,1.41,4.16,4.16,0,0,1-1.37,1,.26.26,0,0,1-.21,0,3.77,3.77,0,0,1-1.68-1.43,1.55,1.55,0,0,1-.24-1.27A.87.87,0,0,1,30.84.92,8,8,0,0,1,31.55,1.3Z"/><path class="cls-4" d="M11.32,21a8,8,0,0,1-.71.38,1,1,0,0,1-1.34-1.08A2.14,2.14,0,0,1,10,18.85,10.41,10.41,0,0,1,11.19,18a.27.27,0,0,1,.23,0A4.08,4.08,0,0,1,13,19.24a2.14,2.14,0,0,1,.43,1.11.93.93,0,0,1-1.27,1A7.46,7.46,0,0,1,11.32,21Z"/><path class="cls-4" d="M27.52,3.84a8.06,8.06,0,0,1,.71-.39,1,1,0,0,1,1.34,1.08,2.24,2.24,0,0,1-.76,1.41,10.66,10.66,0,0,1-1.17.82.26.26,0,0,1-.23,0,4.18,4.18,0,0,1-1.54-1.23,2.22,2.22,0,0,1-.42-1.11.94.94,0,0,1,1.27-1A6.71,6.71,0,0,1,27.52,3.84Z"/><path class="cls-4" d="M7.28,23.49a6,6,0,0,1-.8.41A.9.9,0,0,1,5.22,23a2.08,2.08,0,0,1,.56-1.42,4.38,4.38,0,0,1,1.38-1,.26.26,0,0,1,.19,0,3.8,3.8,0,0,1,1.73,1.51,1.48,1.48,0,0,1,.21,1.21A.87.87,0,0,1,8,23.88,6.37,6.37,0,0,1,7.28,23.49Z"/><path class="cls-4" d="M11.35,3.82a6.92,6.92,0,0,1,.77-.39.94.94,0,0,1,1.27,1,2.34,2.34,0,0,1-.88,1.59,11.11,11.11,0,0,1-1.07.72.26.26,0,0,1-.21,0A3.77,3.77,0,0,1,9.67,5.52a3.79,3.79,0,0,1-.38-.93,1,1,0,0,1,.19-.88.75.75,0,0,1,.86-.33A10,10,0,0,1,11.35,3.82Z"/><path class="cls-4" d="M27.52,21a6,6,0,0,1-.75.4,1,1,0,0,1-1.32-1.05A2.26,2.26,0,0,1,26,19.05a4.13,4.13,0,0,1,1.36-1,.26.26,0,0,1,.21,0,4.11,4.11,0,0,1,1.6,1.29,2.13,2.13,0,0,1,.37,1,1,1,0,0,1-1.33,1.06A5.5,5.5,0,0,1,27.52,21Z"/><path class="cls-4" d="M19.4,21a7.15,7.15,0,0,1-.73.38,1,1,0,0,1-1.31-1.06,2.28,2.28,0,0,1,.55-1.21A4.36,4.36,0,0,1,19.3,18a.38.38,0,0,1,.21,0,3.8,3.8,0,0,1,1.56,1.27,4.17,4.17,0,0,1,.39.92,1,1,0,0,1-.16.83.76.76,0,0,1-.92.38A9.49,9.49,0,0,1,19.4,21Z"/><path class="cls-4" d="M31.56,23.5a6.63,6.63,0,0,1-.8.4A.9.9,0,0,1,29.5,23a2.13,2.13,0,0,1,.61-1.47,4.22,4.22,0,0,1,1.34-1,.21.21,0,0,1,.19,0A3.79,3.79,0,0,1,33.34,22a1.53,1.53,0,0,1,.19,1.39.83.83,0,0,1-1.16.53C32.09,23.8,31.82,23.63,31.56,23.5Z"/><path class="cls-4" d="M7.28,1.3A7.37,7.37,0,0,1,8.07.89a.92.92,0,0,1,1.27.89,2.13,2.13,0,0,1-.61,1.47,4.49,4.49,0,0,1-1.34,1,.31.31,0,0,1-.19,0A3.81,3.81,0,0,1,5.5,2.8a1.53,1.53,0,0,1-.19-1.39A.82.82,0,0,1,6.47.89,6.15,6.15,0,0,1,7.28,1.3Z"/><path class="cls-4" d="M19.42,3.84a7.48,7.48,0,0,1,.74-.39,1,1,0,0,1,1.32,1.07A2.27,2.27,0,0,1,21,5.66a4.39,4.39,0,0,1-1.45,1.12.28.28,0,0,1-.2,0,3.94,3.94,0,0,1-1.66-1.39,1.61,1.61,0,0,1-.28-1.27.88.88,0,0,1,1.32-.66A6.94,6.94,0,0,1,19.42,3.84Z"/><path class="cls-4" d="M35,1.85a.94.94,0,0,1,.6-.72h.06a1,1,0,0,1,.62.72.29.29,0,0,1-.44.3.36.36,0,0,0-.41,0C35.19,2.27,35,2.12,35,1.85Z"/><path class="cls-4" d="M3.84,23a1,1,0,0,1-.59.71.11.11,0,0,1-.08,0A.93.93,0,0,1,2.58,23a.41.41,0,0,1,.12-.33.4.4,0,0,1,.32,0,.33.33,0,0,0,.36,0C3.64,22.52,3.85,22.66,3.84,23Z"/><path class="cls-4" d="M11.28,2c-.06,0-.11.08-.16.08s-.28.07-.34,0a.43.43,0,0,1-.12-.36c.05-.33.3-.49.57-.63,0,0,.07,0,.1,0a1.09,1.09,0,0,1,.55.55.38.38,0,0,1-.07.43c-.13.13-.27.06-.41,0A.52.52,0,0,1,11.28,2Z"/><path class="cls-4" d="M19.4,2a.71.71,0,0,1-.21.11c-.1,0-.25,0-.31,0a.43.43,0,0,1-.11-.34.93.93,0,0,1,.57-.65.12.12,0,0,1,.1,0,.92.92,0,0,1,.57.63.42.42,0,0,1-.1.35c-.08.06-.24,0-.37,0S19.45,2.07,19.4,2Z"/><path class="cls-4" d="M19.12,22.6c.21.21.45.06.7,0s.31.19.26.4a1,1,0,0,1-.59.65h-.08a1,1,0,0,1-.6-.73A.3.3,0,0,1,19.12,22.6Z"/><path class="cls-4" d="M28.2,22.94a1,1,0,0,1-.6.73h-.05a1,1,0,0,1-.63-.79.29.29,0,0,1,.46-.23.33.33,0,0,0,.37,0A.28.28,0,0,1,28.2,22.94Z"/><path class="cls-4" d="M3.79,1.87a.28.28,0,0,1-.44.27.33.33,0,0,0-.38,0,.36.36,0,0,1-.32,0,.44.44,0,0,1-.12-.33.94.94,0,0,1,.59-.67h.06A1,1,0,0,1,3.79,1.87Z"/><path class="cls-4" d="M32.22,6.05a.28.28,0,0,1-.44.28.33.33,0,0,0-.38,0,.35.35,0,0,1-.33,0A.42.42,0,0,1,31,6a.94.94,0,0,1,.58-.66h.07A1,1,0,0,1,32.22,6.05Z"/><path class="cls-4" d="M6.62,18.74a.28.28,0,0,1,.44-.27.35.35,0,0,0,.38,0,.38.38,0,0,1,.33,0,.48.48,0,0,1,.12.32,1,1,0,0,1-.6.68H7.23A1,1,0,0,1,6.62,18.74Z"/><path class="cls-4" d="M36.32,23a1,1,0,0,1-.61.72h0c-.3,0-.73-.59-.62-.88a.27.27,0,0,1,.41-.14.35.35,0,0,0,.4,0C36.12,22.52,36.33,22.67,36.32,23Z"/><path class="cls-4" d="M28.15,1.87a.28.28,0,0,1-.44.27.35.35,0,0,0-.38,0c-.26.14-.48,0-.45-.32a1,1,0,0,1,.6-.69h.06A1,1,0,0,1,28.15,1.87Z"/><path class="cls-4" d="M16,18.74a1,1,0,0,1-.61.74h0a.94.94,0,0,1-.63-.81c0-.24.24-.33.47-.2a.3.3,0,0,0,.34,0A.29.29,0,0,1,16,18.74Z"/><path class="cls-4" d="M24.19,18.73a1,1,0,0,1-.61.75H23.5a1,1,0,0,1-.58-.65.45.45,0,0,1,.11-.34.36.36,0,0,1,.32,0,.36.36,0,0,0,.4,0A.29.29,0,0,1,24.19,18.73Z"/><path class="cls-4" d="M22.8,6.05a1,1,0,0,1,.61-.74h.08a1.05,1.05,0,0,1,.57.6c0,.15,0,.32-.1.39a.48.48,0,0,1-.37,0,.31.31,0,0,0-.31,0C23,6.46,22.8,6.33,22.8,6.05Z"/><path class="cls-4" d="M15.94,6.06a.29.29,0,0,1-.46.26.36.36,0,0,0-.36,0,.38.38,0,0,1-.33,0A.5.5,0,0,1,14.67,6a.94.94,0,0,1,.58-.65h.08A1,1,0,0,1,15.94,6.06Z"/><path class="cls-4" d="M12,23a1,1,0,0,1-.6.7H11.3a1,1,0,0,1-.61-.74c0-.26.19-.4.42-.29a.38.38,0,0,0,.42,0C11.77,22.52,12,22.68,12,23Z"/><path class="cls-4" d="M7.78,6.06a.28.28,0,0,1-.45.26.36.36,0,0,0-.36,0,.37.37,0,0,1-.34,0A.43.43,0,0,1,6.53,6a.94.94,0,0,1,.57-.63h.08A.94.94,0,0,1,7.78,6.06Z"/><path class="cls-4" d="M31.06,18.74a.28.28,0,0,1,.43-.28.35.35,0,0,0,.41,0,.34.34,0,0,1,.31,0,.41.41,0,0,1,.11.33,1,1,0,0,1-.58.65.08.08,0,0,1-.08,0A.93.93,0,0,1,31.06,18.74Z"/></g></g></svg>