<svg xmlns="http://www.w3.org/2000/svg" viewBox="0 0 38.55 24.66"><defs><style>.cls-1{isolation:isolate;}.cls-2{opacity:0.15;}.cls-2,.cls-3{mix-blend-mode:multiply;}.cls-4{fill:#fff;}</style></defs><title>convert-CUSTOMIZE-SVG-03</title><g class="cls-1"><g id="Layer_1" data-name="Layer 1"><g class="cls-2"><path d="M34.69,2.42a.88.88,0,0,1,1.15.13.67.67,0,0,1-.08,1.07,1.88,1.88,0,0,1-1,.29l-1,.07c-.11,0-.16,0-.18-.13-.11-.42-.23-.84-.34-1.26a1.33,1.33,0,0,1,0-.88.65.65,0,0,1,.83-.38A.9.9,0,0,1,34.69,2.42Z"/><path d="M3.84,22.21a.89.89,0,0,1-1.16-.16.66.66,0,0,1,.08-1,1.73,1.73,0,0,1,1-.31l1.09-.07c.06,0,.15.05.16.09.14.53.29,1.07.39,1.62a1.06,1.06,0,0,1-.08.55.62.62,0,0,1-.84.38A.9.9,0,0,1,3.84,22.21Z"/><path d="M34.66,22.22a.86.86,0,0,1-.4,1,.7.7,0,0,1-1.12-.58A2.05,2.05,0,0,1,33.2,22c.1-.43.23-.87.35-1.33.36,0,.71,0,1.06.08s.48.07.73.11l.08,0a.86.86,0,0,1,.62.63.75.75,0,0,1-.39.75.78.78,0,0,1-.91,0Z"/><path d="M3.88,2.42a.89.89,0,0,1,.42-1A.7.7,0,0,1,5.41,2a2.35,2.35,0,0,1-.06.65c-.1.44-.23.88-.37,1.37-.63-.08-1.24-.12-1.85-.25a.73.73,0,0,1-.62-.85.89.89,0,0,1,1.23-.58Z"/><path d="M14.2,1.28l.08-.18a.78.78,0,0,1,.9-.45.72.72,0,0,1,.48.84,1.67,1.67,0,0,1-.57,1c-.24.22-.51.42-.77.62a.21.21,0,0,1-.2,0A3.43,3.43,0,0,1,13,2a1.7,1.7,0,0,1-.21-.66.64.64,0,0,1,.5-.73A.76.76,0,0,1,14.1,1,2.21,2.21,0,0,1,14.2,1.28Z"/><path d="M37.39,12.3a2.54,2.54,0,0,1,.46.4.66.66,0,0,1,0,.77.7.7,0,0,1-.72.31,1.49,1.49,0,0,1-1-.52,10.7,10.7,0,0,1-.68-.83.17.17,0,0,1,0-.18,3.58,3.58,0,0,1,1.11-1.18,1.48,1.48,0,0,1,.65-.19.62.62,0,0,1,.72.48.78.78,0,0,1-.41.87Z"/><path d="M24.34,23.35a1.94,1.94,0,0,1-.11.24.78.78,0,0,1-.88.37.69.69,0,0,1-.47-.78,1.56,1.56,0,0,1,.54-1c.25-.24.54-.45.82-.67a.23.23,0,0,1,.18,0,3.54,3.54,0,0,1,1.18,1.13,1.45,1.45,0,0,1,.19.61.65.65,0,0,1-.51.75.78.78,0,0,1-.84-.41C24.41,23.51,24.39,23.45,24.34,23.35Z"/><path d="M24.34,1.23a3.28,3.28,0,0,1,.37-.45.66.66,0,0,1,.77-.07.71.71,0,0,1,.35.7,1.18,1.18,0,0,1-.37.83c-.31.32-.66.59-1,.88a.19.19,0,0,1-.18,0A3.5,3.5,0,0,1,23.13,2a1.75,1.75,0,0,1-.21-.67.64.64,0,0,1,.52-.73.79.79,0,0,1,.85.46Z"/><path d="M1.21,12.3,1,12.2a.8.8,0,0,1-.39-.9.71.71,0,0,1,.77-.46,1.58,1.58,0,0,1,1,.54c.23.25.44.53.65.81a.19.19,0,0,1,0,.19A3.51,3.51,0,0,1,2,13.52a1.94,1.94,0,0,1-.69.23.64.64,0,0,1-.72-.49.79.79,0,0,1,.4-.87Z"/><path d="M14.18,23.33a2.05,2.05,0,0,0-.08.2.79.79,0,0,1-.87.45.7.7,0,0,1-.51-.79,1.23,1.23,0,0,1,.35-.8c.32-.31.67-.6,1-.89a.19.19,0,0,1,.18,0,3.5,3.5,0,0,1,1.15,1.08,1.7,1.7,0,0,1,.21.66.64.64,0,0,1-.53.75.8.8,0,0,1-.84-.47Z"/><path d="M3.08,7.21,1.43,8.61l-.78-.7A.27.27,0,0,1,.6,7.73c0-.49.08-1,.13-1.47A.23.23,0,0,1,.81,6.1c.31-.2.63-.38.93-.56.23.32.41.63.63.91S2.85,7,3.08,7.21Z"/><path d="M1.44,15.81l1.67,1.45A5.42,5.42,0,0,0,1.7,18.89c-.33-.21-.64-.41-.94-.62-.05,0-.07-.12-.08-.18,0-.46-.06-.93-.08-1.39a.31.31,0,0,1,.07-.21Z"/><path d="M37.11,8.82,35.43,7.36a5.3,5.3,0,0,0,1.41-1.63c.32.2.62.39.92.6a.29.29,0,0,1,.1.19c0,.47.06.94.08,1.41a.31.31,0,0,1-.06.19C37.63,8.36,37.37,8.58,37.11,8.82Z"/><path d="M36.77,19.1a5.37,5.37,0,0,0-1.32-1.67L37.11,16c.26.23.53.46.78.71a.24.24,0,0,1,0,.19c0,.48-.07.95-.12,1.43a.29.29,0,0,1-.1.19Z"/><path d="M7.52,23.11,9,21.43c.48.55,1,1.07,1.41,1.61a.15.15,0,0,1,0,.17c-.18.23-.38.45-.58.67a.38.38,0,0,1-.21.07q-.6,0-1.2,0a.27.27,0,0,1-.2-.06Q7.87,23.52,7.52,23.11Z"/><path d="M31,1.51,29.54,3.19,28.05,1.51c.24-.28.48-.54.72-.81a.21.21,0,0,1,.12,0h1.29a.26.26,0,0,1,.16.07Z"/><path d="M20.86,1.51,19.37,3.19,17.88,1.51l.71-.79a.21.21,0,0,1,.13,0H20a.26.26,0,0,1,.17.07C20.41,1,20.63,1.24,20.86,1.51Z"/><path d="M17.68,23.11l1.49-1.68,1.49,1.68c-.24.28-.47.54-.71.8a.33.33,0,0,1-.17,0c-.41,0-.81,0-1.21,0a.43.43,0,0,1-.24-.1Z"/><path d="M30.83,23.11c-.25.28-.46.53-.69.77a.32.32,0,0,1-.2.07c-.41,0-.81,0-1.21,0a.36.36,0,0,1-.22-.09c-.22-.24-.43-.48-.66-.75l1.48-1.68Z"/><path d="M9.21,3.19,7.72,1.51l.7-.78A.25.25,0,0,1,8.59.67H9.84A.25.25,0,0,1,10,.73c.23.25.45.51.69.78Z"/><path d="M34.89,2.62A.88.88,0,0,1,36,2.75.67.67,0,0,1,36,3.82a1.88,1.88,0,0,1-1,.29l-1,.07a.15.15,0,0,1-.19-.13c-.1-.42-.23-.84-.33-1.27a1.24,1.24,0,0,1,0-.87.65.65,0,0,1,.83-.38A.91.91,0,0,1,34.89,2.62Z"/><path d="M4,22.4a.88.88,0,0,1-1.16-.15.67.67,0,0,1,.08-1,1.79,1.79,0,0,1,1-.3L5,20.84s.15,0,.16.09c.14.53.28,1.07.39,1.61a1.21,1.21,0,0,1-.08.56.62.62,0,0,1-.84.38C4.19,23.32,4,23,4,22.4Z"/><path d="M34.86,22.42a.86.86,0,0,1-.4,1,.7.7,0,0,1-1.13-.58,2.86,2.86,0,0,1,.06-.65c.11-.43.23-.87.36-1.33.36,0,.71,0,1.06.08s.48.07.73.11l.08,0a.86.86,0,0,1,.62.63.73.73,0,0,1-.39.74.77.77,0,0,1-.91,0Z"/><path d="M4.07,2.61a.87.87,0,0,1,.43-1,.69.69,0,0,1,1.11.58,2.35,2.35,0,0,1-.06.65c-.11.44-.24.88-.37,1.37C4.55,4.13,3.93,4.08,3.33,4a.75.75,0,0,1-.63-.85.9.9,0,0,1,1.24-.58Z"/><path d="M14.4,1.48c0-.1,0-.14.07-.18a.8.8,0,0,1,.91-.45.72.72,0,0,1,.48.84,1.72,1.72,0,0,1-.57,1c-.24.22-.51.42-.77.62a.24.24,0,0,1-.2,0,3.46,3.46,0,0,1-1.16-1.09A1.61,1.61,0,0,1,13,1.58a.64.64,0,0,1,.49-.73.77.77,0,0,1,.86.39A2.21,2.21,0,0,1,14.4,1.48Z"/><path d="M37.59,12.5a2.18,2.18,0,0,1,.45.4.64.64,0,0,1,0,.77.7.7,0,0,1-.72.31,1.49,1.49,0,0,1-1-.52c-.25-.26-.47-.55-.69-.83a.21.21,0,0,1,0-.19,3.52,3.52,0,0,1,1.1-1.17,1.69,1.69,0,0,1,.66-.2.65.65,0,0,1,.72.49.81.81,0,0,1-.41.87Z"/><path d="M24.54,23.55l-.11.24a.79.79,0,0,1-.89.37.69.69,0,0,1-.46-.78,1.56,1.56,0,0,1,.54-1c.25-.24.54-.45.81-.67a.23.23,0,0,1,.18,0,3.55,3.55,0,0,1,1.19,1.12,1.54,1.54,0,0,1,.19.62.65.65,0,0,1-.51.75.8.8,0,0,1-.85-.42A2.13,2.13,0,0,0,24.54,23.55Z"/><path d="M24.54,1.43A2.69,2.69,0,0,1,24.91,1a.66.66,0,0,1,.77-.07.68.68,0,0,1,.34.7,1.17,1.17,0,0,1-.36.83c-.31.31-.66.59-1,.88a.19.19,0,0,1-.18,0,3.5,3.5,0,0,1-1.15-1.08,1.75,1.75,0,0,1-.21-.67.64.64,0,0,1,.52-.74.81.81,0,0,1,.85.46Z"/><path d="M1.41,12.5c-.1-.05-.17-.07-.23-.11a.77.77,0,0,1-.39-.89A.7.7,0,0,1,1.56,11a1.58,1.58,0,0,1,1,.54c.23.25.44.53.65.8a.21.21,0,0,1,0,.2A3.62,3.62,0,0,1,2.2,13.72a1.74,1.74,0,0,1-.69.22.64.64,0,0,1-.73-.48.79.79,0,0,1,.41-.87Z"/><path d="M14.38,23.53a2.05,2.05,0,0,0-.08.2.81.81,0,0,1-.87.45.7.7,0,0,1-.51-.79,1.23,1.23,0,0,1,.35-.8c.32-.32.67-.6,1-.89a.19.19,0,0,1,.18,0,3.57,3.57,0,0,1,1.15,1.07,1.75,1.75,0,0,1,.21.67.65.65,0,0,1-.53.75.81.81,0,0,1-.85-.48C14.42,23.66,14.41,23.61,14.38,23.53Z"/><path d="M3.28,7.4,1.63,8.81c-.26-.24-.53-.47-.78-.71a.23.23,0,0,1,0-.17c0-.49.08-1,.13-1.47A.21.21,0,0,1,1,6.3c.31-.2.62-.38.93-.57.23.33.41.64.63.92S3.05,7.16,3.28,7.4Z"/><path d="M1.64,16l1.67,1.46A5.3,5.3,0,0,0,1.9,19.09c-.33-.21-.64-.41-.94-.62,0,0-.07-.12-.08-.18,0-.47-.06-.93-.08-1.39a.31.31,0,0,1,.07-.21C1.11,16.46,1.37,16.24,1.64,16Z"/><path d="M37.3,9,35.63,7.56A5.3,5.3,0,0,0,37,5.93c.32.2.62.39.92.6a.29.29,0,0,1,.1.19c0,.47.06.94.08,1.41a.31.31,0,0,1-.06.19Z"/><path d="M37,19.3a5.37,5.37,0,0,0-1.32-1.67l1.66-1.42c.26.23.53.46.78.7a.31.31,0,0,1,0,.2L38,18.54a.27.27,0,0,1-.11.19Z"/><path d="M7.71,23.31,9.2,21.63c.49.55,1,1.07,1.42,1.61a.15.15,0,0,1,0,.17c-.19.23-.38.45-.59.66a.28.28,0,0,1-.2.08c-.4,0-.8,0-1.21,0a.31.31,0,0,1-.19-.06Z"/><path d="M31.23,1.71l-1.5,1.68L28.25,1.71q.36-.42.72-.81a.18.18,0,0,1,.11,0c.43,0,.86,0,1.3,0a.26.26,0,0,1,.16.07Z"/><path d="M21.06,1.71,19.57,3.39,18.08,1.71c.24-.27.47-.54.71-.79a.19.19,0,0,1,.13-.05c.43,0,.86,0,1.29,0a.26.26,0,0,1,.17.07Z"/><path d="M17.88,23.31l1.49-1.68,1.49,1.68c-.24.27-.47.54-.71.79a.27.27,0,0,1-.18,0c-.4,0-.8,0-1.2,0a.43.43,0,0,1-.24-.1C18.31,23.82,18.11,23.57,17.88,23.31Z"/><path d="M31,23.31c-.24.27-.45.52-.68.76a.32.32,0,0,1-.2.08c-.41,0-.81,0-1.21,0a.34.34,0,0,1-.22-.09L28,23.31l1.49-1.68Z"/><path d="M9.41,3.39,7.92,1.71c.24-.27.46-.53.7-.79A.29.29,0,0,1,8.79.87c.41,0,.83,0,1.25,0a.23.23,0,0,1,.16.06c.23.25.46.5.7.78Z"/></g><g class="cls-3"><path d="M34.55,2.28a.88.88,0,0,1,1.15.13.67.67,0,0,1-.08,1.07,1.88,1.88,0,0,1-1,.29l-1,.07a.15.15,0,0,1-.19-.13c-.1-.42-.23-.84-.33-1.27a1.24,1.24,0,0,1,0-.87.65.65,0,0,1,.83-.38A.91.91,0,0,1,34.55,2.28Z"/><path d="M3.7,22.06a.88.88,0,0,1-1.16-.15.67.67,0,0,1,.08-1,1.79,1.79,0,0,1,1-.3l1.09-.07s.15,0,.16.09c.14.53.28,1.07.39,1.61a1.21,1.21,0,0,1-.08.56.62.62,0,0,1-.84.38C3.85,23,3.66,22.65,3.7,22.06Z"/><path d="M34.52,22.08a.86.86,0,0,1-.4,1A.7.7,0,0,1,33,22.48a2.86,2.86,0,0,1,.06-.65c.11-.44.23-.87.36-1.33.36,0,.71,0,1.06.08s.48.07.73.11l.08,0a.86.86,0,0,1,.62.63.73.73,0,0,1-.39.74.77.77,0,0,1-.91,0Z"/><path d="M3.73,2.27a.87.87,0,0,1,.43-1,.7.7,0,0,1,1.11.58,2.39,2.39,0,0,1-.06.65c-.11.44-.24.88-.37,1.37C4.21,3.79,3.59,3.74,3,3.62a.75.75,0,0,1-.63-.85A.9.9,0,0,1,3.6,2.19Z"/><path d="M14.06,1.14c0-.1,0-.14.07-.18A.8.8,0,0,1,15,.51a.72.72,0,0,1,.48.84,1.72,1.72,0,0,1-.57,1c-.24.22-.51.42-.77.62A.24.24,0,0,1,14,3a3.46,3.46,0,0,1-1.16-1.09,1.61,1.61,0,0,1-.21-.65A.64.64,0,0,1,13.1.51.77.77,0,0,1,14,.9,2.21,2.21,0,0,1,14.06,1.14Z"/><path d="M37.25,12.16a2.18,2.18,0,0,1,.45.4.64.64,0,0,1,0,.77.7.7,0,0,1-.72.31,1.49,1.49,0,0,1-1-.52c-.25-.26-.47-.55-.69-.83a.21.21,0,0,1,0-.19,3.52,3.52,0,0,1,1.1-1.17,1.69,1.69,0,0,1,.66-.2.65.65,0,0,1,.72.49.81.81,0,0,1-.41.87Z"/><path d="M24.2,23.21l-.11.24a.79.79,0,0,1-.89.37.69.69,0,0,1-.46-.78,1.56,1.56,0,0,1,.54-1,10.28,10.28,0,0,1,.81-.67.23.23,0,0,1,.18,0,3.55,3.55,0,0,1,1.19,1.12,1.54,1.54,0,0,1,.19.62.65.65,0,0,1-.51.75.8.8,0,0,1-.85-.42A2.13,2.13,0,0,0,24.2,23.21Z"/><path d="M24.2,1.09a2.69,2.69,0,0,1,.37-.45.66.66,0,0,1,.77-.07.68.68,0,0,1,.34.7,1.22,1.22,0,0,1-.36.83c-.31.31-.66.59-1,.88a.19.19,0,0,1-.18,0A3.5,3.5,0,0,1,23,1.9a1.75,1.75,0,0,1-.21-.67A.64.64,0,0,1,23.3.49a.81.81,0,0,1,.85.46Z"/><path d="M1.07,12.16c-.1-.05-.17-.07-.23-.11a.77.77,0,0,1-.39-.89.7.7,0,0,1,.77-.46,1.58,1.58,0,0,1,1,.54c.23.25.44.53.65.8a.21.21,0,0,1,0,.2,3.54,3.54,0,0,1-1.07,1.14,1.65,1.65,0,0,1-.68.22.64.64,0,0,1-.73-.48.79.79,0,0,1,.41-.87Z"/><path d="M14,23.19a2.05,2.05,0,0,0-.08.2.81.81,0,0,1-.87.45.7.7,0,0,1-.51-.79,1.23,1.23,0,0,1,.35-.8c.32-.32.67-.6,1-.89a.19.19,0,0,1,.18,0,3.57,3.57,0,0,1,1.15,1.07,1.75,1.75,0,0,1,.21.67.65.65,0,0,1-.54.75.81.81,0,0,1-.84-.48C14.08,23.32,14.07,23.27,14,23.19Z"/><path d="M2.94,7.06,1.29,8.47C1,8.23.76,8,.51,7.76a.23.23,0,0,1,0-.17c0-.49.08-1,.13-1.47A.21.21,0,0,1,.67,6l.93-.57c.23.33.41.64.63.92S2.71,6.82,2.94,7.06Z"/><path d="M1.3,15.66,3,17.12a5.3,5.3,0,0,0-1.41,1.63c-.33-.21-.64-.41-.94-.62A.23.23,0,0,1,.54,18c0-.47-.06-.93-.08-1.39a.31.31,0,0,1,.07-.21C.77,16.12,1,15.9,1.3,15.66Z"/><path d="M37,8.67,35.29,7.22A5.3,5.3,0,0,0,36.7,5.59c.32.2.62.39.92.6a.29.29,0,0,1,.1.19c0,.47.06.94.08,1.41a.31.31,0,0,1-.06.19Z"/><path d="M36.63,19a5.37,5.37,0,0,0-1.32-1.67L37,15.87c.26.23.53.46.78.7a.31.31,0,0,1,0,.2l-.12,1.43a.27.27,0,0,1-.11.19Z"/><path d="M7.37,23l1.49-1.68c.49.55,1,1.07,1.42,1.61,0,0,0,.13,0,.17-.19.23-.38.45-.59.66a.28.28,0,0,1-.2.08c-.4,0-.8,0-1.21,0a.31.31,0,0,1-.19-.06Z"/><path d="M30.89,1.37l-1.5,1.68L27.91,1.37q.36-.42.72-.81a.18.18,0,0,1,.11,0c.43,0,.86,0,1.29,0A.26.26,0,0,1,30.2.6Z"/><path d="M20.72,1.37,19.23,3.05,17.74,1.37c.24-.27.47-.54.71-.79a.19.19,0,0,1,.13,0c.43,0,.86,0,1.29,0A.26.26,0,0,1,20,.6Z"/><path d="M17.54,23,19,21.29,20.52,23c-.24.27-.47.54-.71.79a.27.27,0,0,1-.18,0c-.4,0-.8,0-1.2,0a.38.38,0,0,1-.24-.11C18,23.48,17.77,23.23,17.54,23Z"/><path d="M30.68,23c-.24.27-.45.52-.68.76a.32.32,0,0,1-.21.08q-.6,0-1.2,0a.34.34,0,0,1-.22-.09L27.7,23l1.49-1.68Z"/><path d="M9.07,3.05,7.58,1.37c.24-.27.46-.53.7-.79a.29.29,0,0,1,.17,0c.41,0,.83,0,1.25,0a.23.23,0,0,1,.16.06c.23.25.46.5.7.78Z"/></g><path class="cls-4" d="M34.75,2.48a.86.86,0,0,1,1.14.13.66.66,0,0,1-.08,1.07,1.83,1.83,0,0,1-1,.29l-1,.07c-.12,0-.16,0-.19-.13-.11-.43-.23-.85-.33-1.27a1.3,1.3,0,0,1,0-.87.66.66,0,0,1,.84-.38A.9.9,0,0,1,34.75,2.48Z"/><path class="cls-4" d="M3.9,22.26a.87.87,0,0,1-1.16-.16.66.66,0,0,1,.08-1,1.79,1.79,0,0,1,1-.3l1.1-.07a.23.23,0,0,1,.16.08c.14.54.28,1.08.39,1.62a1.21,1.21,0,0,1-.08.56.62.62,0,0,1-.84.38C4.05,23.18,3.86,22.85,3.9,22.26Z"/><path class="cls-4" d="M34.72,22.28a.85.85,0,0,1-.41,1,.7.7,0,0,1-1.12-.58,2.39,2.39,0,0,1,.06-.65c.1-.44.23-.87.36-1.33.36,0,.71,0,1,.08s.49.07.73.11l.08,0c.31.12.57.28.62.63a.71.71,0,0,1-.38.74.78.78,0,0,1-.91,0Z"/><path class="cls-4" d="M3.93,2.47a.87.87,0,0,1,.43-1,.69.69,0,0,1,1.1.58,2.38,2.38,0,0,1,0,.65c-.11.44-.24.88-.37,1.37C4.41,4,3.79,3.94,3.19,3.81A.74.74,0,0,1,2.56,3,.9.9,0,0,1,3.8,2.39Z"/><path class="cls-4" d="M14.26,1.33c0-.09.05-.13.07-.18a.79.79,0,0,1,.91-.44.71.71,0,0,1,.47.84,1.63,1.63,0,0,1-.56,1,9.2,9.2,0,0,1-.77.63.24.24,0,0,1-.2,0A3.46,3.46,0,0,1,13,2.09a1.66,1.66,0,0,1-.21-.65A.65.65,0,0,1,13.3.7a.79.79,0,0,1,.86.4Z"/><path class="cls-4" d="M37.45,12.35a3,3,0,0,1,.45.4.66.66,0,0,1,0,.78.7.7,0,0,1-.72.31,1.58,1.58,0,0,1-1-.52c-.24-.26-.46-.55-.68-.84a.23.23,0,0,1,0-.18,3.65,3.65,0,0,1,1.11-1.17,1.69,1.69,0,0,1,.66-.2.63.63,0,0,1,.71.49.79.79,0,0,1-.4.87Z"/><path class="cls-4" d="M24.4,23.41l-.11.24a.79.79,0,0,1-.89.37.69.69,0,0,1-.46-.78,1.58,1.58,0,0,1,.54-1,8.63,8.63,0,0,1,.81-.66.19.19,0,0,1,.18,0,3.55,3.55,0,0,1,1.19,1.12,1.66,1.66,0,0,1,.19.62.67.67,0,0,1-.51.75.8.8,0,0,1-.85-.42A1.61,1.61,0,0,1,24.4,23.41Z"/><path class="cls-4" d="M24.4,1.29a2.69,2.69,0,0,1,.37-.45.68.68,0,0,1,.77-.08.7.7,0,0,1,.34.7,1.22,1.22,0,0,1-.36.84c-.32.31-.66.59-1,.87a.17.17,0,0,1-.18,0A3.5,3.5,0,0,1,23.19,2.1,1.59,1.59,0,0,1,23,1.43.64.64,0,0,1,23.5.69a.81.81,0,0,1,.85.46Z"/><path class="cls-4" d="M1.26,12.36,1,12.25a.78.78,0,0,1-.39-.9.69.69,0,0,1,.77-.45,1.54,1.54,0,0,1,1,.54,10,10,0,0,1,.66.8.24.24,0,0,1,0,.2,3.41,3.41,0,0,1-1.06,1.14,1.65,1.65,0,0,1-.69.22.63.63,0,0,1-.72-.48.78.78,0,0,1,.41-.87Z"/><path class="cls-4" d="M14.23,23.39l-.07.19a.81.81,0,0,1-.87.46.7.7,0,0,1-.51-.79,1.18,1.18,0,0,1,.35-.8,12.35,12.35,0,0,1,1-.89.19.19,0,0,1,.18,0,3.57,3.57,0,0,1,1.15,1.07,1.75,1.75,0,0,1,.21.67.64.64,0,0,1-.54.74.79.79,0,0,1-.84-.47A1.57,1.57,0,0,0,14.23,23.39Z"/><path class="cls-4" d="M3.14,7.26,1.49,8.67C1.23,8.43,1,8.2.71,8a.2.2,0,0,1,0-.17c0-.49.08-1,.13-1.48a.21.21,0,0,1,.08-.16l.93-.56c.22.33.41.64.63.92S2.91,7,3.14,7.26Z"/><path class="cls-4" d="M1.49,15.86l1.68,1.46A5.19,5.19,0,0,0,1.76,19l-.95-.62a.27.27,0,0,1-.07-.18c0-.47-.06-.93-.08-1.39a.3.3,0,0,1,.07-.21C1,16.32,1.23,16.1,1.49,15.86Z"/><path class="cls-4" d="M37.16,8.87,35.49,7.42A5.42,5.42,0,0,0,36.9,5.79l.92.59a.35.35,0,0,1,.1.2c0,.47.06.94.08,1.41a.31.31,0,0,1-.06.19Z"/><path class="cls-4" d="M36.83,19.16a5.15,5.15,0,0,0-1.33-1.67l1.67-1.42.78.7a.31.31,0,0,1,0,.2c0,.47-.08,1-.13,1.43a.23.23,0,0,1-.1.19Z"/><path class="cls-4" d="M7.57,23.17l1.49-1.68c.49.55,1,1.07,1.42,1.6a.23.23,0,0,1,0,.18c-.19.23-.38.45-.59.66a.28.28,0,0,1-.2.08H8.46A.31.31,0,0,1,8.27,24Z"/><path class="cls-4" d="M31.08,1.57,29.59,3.25,28.1,1.56c.25-.27.48-.54.73-.8,0,0,.07,0,.11,0q.64,0,1.29,0A.26.26,0,0,1,30.4.8C30.63,1,30.85,1.3,31.08,1.57Z"/><path class="cls-4" d="M20.92,1.57,19.43,3.25,17.94,1.57c.24-.27.47-.54.71-.8,0,0,.08,0,.13,0q.64,0,1.29,0a.22.22,0,0,1,.16.07C20.46,1,20.68,1.3,20.92,1.57Z"/><path class="cls-4" d="M17.74,23.17l1.49-1.68,1.49,1.68c-.24.27-.47.54-.71.79a.27.27,0,0,1-.18.05h-1.2a.44.44,0,0,1-.24-.11C18.17,23.67,18,23.43,17.74,23.17Z"/><path class="cls-4" d="M30.88,23.17l-.68.76A.32.32,0,0,1,30,24h-1.2a.4.4,0,0,1-.22-.09l-.67-.75,1.49-1.68Z"/><path class="cls-4" d="M9.27,3.25,7.77,1.56C8,1.29,8.24,1,8.48.78A.23.23,0,0,1,8.65.73c.41,0,.83,0,1.25,0a.23.23,0,0,1,.16.06l.69.77Z"/></g></g></svg>