<svg xmlns="http://www.w3.org/2000/svg" viewBox="0 0 38.55 24.66"><defs><style>.cls-1{isolation:isolate;}.cls-2{opacity:0.15;}.cls-2,.cls-3{mix-blend-mode:multiply;}.cls-4{fill:#fff;}</style></defs><title>convert-CUSTOMIZE-SVG-03</title><g class="cls-1"><g id="Layer_1" data-name="Layer 1"><g class="cls-2"><path d="M5.49,17.45a5.56,5.56,0,0,1-.55-3.34c-.09,0-.18,0-.25.06a9.25,9.25,0,0,1-2.32.62A1.87,1.87,0,0,1,1,14.41a.88.88,0,0,1-.32-1,1.88,1.88,0,0,1,.68-1,12.19,12.19,0,0,1,3.38-1.93l.12-.05-.09-.16a3.32,3.32,0,0,1-.22-3.2A5.48,5.48,0,0,1,5.77,5.28.56.56,0,0,0,5.92,5,1.46,1.46,0,0,1,7,3.83a.7.7,0,0,1,.72.75v.11c.3.08.59.14.88.24a3.11,3.11,0,0,1,1.77,1.39.49.49,0,0,0,.19.16,2.59,2.59,0,0,1,1,.8,1.31,1.31,0,0,1,.15,1.31c-.07.18-.17.36-.25.53a1.46,1.46,0,0,1-1,.88,1.07,1.07,0,0,0-.19.07v.06a14.24,14.24,0,0,0,1.44-.32A4.66,4.66,0,0,1,13,9.58h.17L13,9.38a4.36,4.36,0,0,1-1.05-2,2,2,0,0,1,.61-2,2.09,2.09,0,0,1,2.75.15,1.9,1.9,0,0,1,.18.2A2.16,2.16,0,0,1,16.75,5,1.91,1.91,0,0,1,19,7.26a4.39,4.39,0,0,1-1.17,2.23,11.64,11.64,0,0,1-2.2,1.82.35.35,0,0,1-.43,0l-.88-.62c0,.14,0,.27-.07.39a1.92,1.92,0,0,1-.66,1,6.24,6.24,0,0,1-1.56,1l-.71.31a4.72,4.72,0,0,1-.14,3.23.8.8,0,0,0,1-.17,3,3,0,0,1,.78-.6,1.16,1.16,0,0,1,1.66.82,3.61,3.61,0,0,1,0,1.18,11.28,11.28,0,0,1-.35,1.61,1.15,1.15,0,0,1-1.18.9,4.24,4.24,0,0,1-.94-.11c-.45-.08-.89-.21-1.35-.26a8.92,8.92,0,0,1-2.49-.62c-.14,0-.28-.18-.43,0a.57.57,0,0,0-.13.66,4.08,4.08,0,0,1,.28.9,1.41,1.41,0,0,1-1.74,1.6A3.84,3.84,0,0,1,4.23,21a1.43,1.43,0,0,1-.15-1.36,5.42,5.42,0,0,1,1.26-2ZM7.13,7a.37.37,0,0,1,0,.11C7.08,7.66,7,8.21,7,8.77a5.16,5.16,0,0,0,.21,1.15.35.35,0,0,0,.31.24c.34.07.67.18,1,.27a.25.25,0,0,0,.19,0c.57-.23,1.12-.48,1.67-.71a5.47,5.47,0,0,1-.26-3.05l.24,0c0,.09,0,.17,0,.25,0,.56,0,1.12,0,1.68a1.55,1.55,0,0,0,.38,1,3.3,3.3,0,0,0,.36-.41,4.52,4.52,0,0,0,.36-.69.58.58,0,0,0,0-.32,5.18,5.18,0,0,1-.14-.66.55.55,0,0,0-.21-.47,2.18,2.18,0,0,0-.34-.26,2.23,2.23,0,0,1-.8-.73A3.22,3.22,0,0,0,7.78,5L7.7,5,7.44,6.56l-.25-.12a2.7,2.7,0,0,0,.12-1.32,1.66,1.66,0,0,1,.13-.52c0-.09.08-.22,0-.26a1.11,1.11,0,0,0-.39-.26s-.16.14-.2.23A2.19,2.19,0,0,0,6.83,5.5c.07.42.18.82.28,1.25a.32.32,0,0,1-.45-.13c-.27-.36-.51-.74-.76-1.12A5.35,5.35,0,0,0,4.77,7.08,3,3,0,0,0,5,10.18a.26.26,0,0,0,.18.13L7,10a6.12,6.12,0,0,1-.09-3Zm-1.69,6.8,0,.05c.79,0,1.59,0,2.38,0A1.28,1.28,0,0,0,9.06,13a2.94,2.94,0,0,0,.17-1.25A1.1,1.1,0,0,0,8.92,11a1.83,1.83,0,0,0-1-.52,5.37,5.37,0,0,0-2.84.12,11,11,0,0,0-3.67,2.06,2,2,0,0,0-.5.74.65.65,0,0,0,.34.9,1.64,1.64,0,0,0,1.2.23,13.32,13.32,0,0,0,1.76-.44,18.24,18.24,0,0,0,1.67-.81l.11.15Zm8.9,2.61A.92.92,0,0,0,13,16.06a2.47,2.47,0,0,0-.58.48,1,1,0,0,1-1.09.34l-1.89-.44a5.1,5.1,0,0,0-1.74-.15.91.91,0,0,0-.88.82,1.56,1.56,0,0,0,1.07,1.76c.35.14.71.27,1.07.38a9.67,9.67,0,0,0,1.28.34,18.74,18.74,0,0,1,2.33.44,2.22,2.22,0,0,0,.85,0c.32-.06.35-.11.38-.43.08-.86.15-1.72.24-2.57C14.08,16.78,14.08,16.53,14.34,16.4ZM6.7,18.14c0-.23-.1-.44-.12-.64a1.2,1.2,0,0,1,1-1.43,3.7,3.7,0,0,1,1.15,0c.69.1,1.36.26,2,.41.14,0,.22,0,.26-.12a5.66,5.66,0,0,0,.26-1.06,7.44,7.44,0,0,0-.85-3.73l-.06,0a1.38,1.38,0,0,1,0,.22,1.14,1.14,0,0,1-.15.23.82.82,0,0,1-.17-.2c-.13-.24-.25-.48-.38-.74l-.29.17a2.69,2.69,0,0,1,.05,1.35,1.66,1.66,0,0,1-1.83,1.52c-.73,0-1.45,0-2.18,0H5.16c0,.46,0,.9,0,1.34a4.18,4.18,0,0,0,.43,1.69A2.11,2.11,0,0,0,6.7,18.14Zm-1.11-.43a4.92,4.92,0,0,0-1.32,2.17,1.14,1.14,0,0,0,.17,1,3.87,3.87,0,0,0,1.95,1.35,1.08,1.08,0,0,0,1.39-.69,1.49,1.49,0,0,0-.13-1.42.72.72,0,0,1,0-.83l.12-.17a3.16,3.16,0,0,1-.56-.36,2.75,2.75,0,0,0-.69-.43C6.23,18.17,5.93,17.93,5.59,17.71Zm6.25-7.66-1.61.33,1.09,2.71,1.51-.73C11.72,11.55,11.56,11.19,11.84,10.05ZM6.72,6.28c0-.33-.13-.64-.16-1s0-.65,0-1C6,4.71,6.06,5.59,6.72,6.28Zm2.7,4.14-.52.21.35.37.3-.19a1.07,1.07,0,0,1-.09-.19A.88.88,0,0,1,9.42,10.42Zm.57.5c.17-.21.17-.31,0-.56l-.23.28Z"/><path d="M9.19,6.77l.12-.29a.88.88,0,0,1,.29.2.62.62,0,0,1,0,.63c-.07.16-.21.18-.29,0A3.05,3.05,0,0,1,9.19,6.77Z"/><path d="M7.92,12.52A.56.56,0,0,1,7.31,12a.59.59,0,0,1,.62-.56.61.61,0,0,1,.62.55A.59.59,0,0,1,7.92,12.52Z"/><path d="M7.94,17.28a.61.61,0,0,1,.62.54.41.41,0,0,1-.44.43.61.61,0,0,1-.63-.54A.43.43,0,0,1,7.94,17.28Z"/><path d="M5.69,17.65a5.56,5.56,0,0,1-.55-3.34,1.31,1.31,0,0,0-.25.06A9.36,9.36,0,0,1,2.57,15a1.91,1.91,0,0,1-1.4-.38.87.87,0,0,1-.32-1,1.88,1.88,0,0,1,.68-1,12.19,12.19,0,0,1,3.38-1.93L5,10.61l-.09-.16a3.35,3.35,0,0,1-.23-3.2A5.67,5.67,0,0,1,6,5.48a.63.63,0,0,0,.15-.32A1.46,1.46,0,0,1,7.22,4a.71.71,0,0,1,.72.75v.1c.3.09.59.15.88.25a3.07,3.07,0,0,1,1.77,1.39.49.49,0,0,0,.19.16,2.59,2.59,0,0,1,1,.8,1.34,1.34,0,0,1,.15,1.31c-.07.18-.17.35-.25.53a1.48,1.48,0,0,1-1.05.88.67.67,0,0,0-.18.07v.06c.48-.1,1-.18,1.44-.32a4.66,4.66,0,0,1,1.28-.23h.17l-.16-.19a4.36,4.36,0,0,1-1.05-2,2,2,0,0,1,.61-2,2.1,2.1,0,0,1,2.75.14l.18.21A2.16,2.16,0,0,1,17,5.23a1.91,1.91,0,0,1,2.28,2.23,4.33,4.33,0,0,1-1.18,2.23,11.27,11.27,0,0,1-2.19,1.82.35.35,0,0,1-.43,0l-.88-.62c0,.14,0,.27-.07.39a2,2,0,0,1-.66,1,5.93,5.93,0,0,1-1.56,1l-.71.31a4.72,4.72,0,0,1-.14,3.23.8.8,0,0,0,1-.16,3,3,0,0,1,.78-.6,1.16,1.16,0,0,1,1.66.82,3.89,3.89,0,0,1,0,1.18,11.28,11.28,0,0,1-.35,1.61,1.16,1.16,0,0,1-1.19.9,4.92,4.92,0,0,1-.93-.11c-.45-.08-.9-.21-1.35-.26a9.07,9.07,0,0,1-2.5-.62c-.13-.05-.27-.19-.42,0a.57.57,0,0,0-.13.66,4.08,4.08,0,0,1,.28.9,1.42,1.42,0,0,1-1.74,1.6A3.81,3.81,0,0,1,4.43,21.2a1.41,1.41,0,0,1-.15-1.35,5.34,5.34,0,0,1,1.26-2ZM7.33,7.19s0,.08,0,.11c0,.55-.12,1.11-.12,1.66a5.79,5.79,0,0,0,.22,1.16.36.36,0,0,0,.31.24c.34.07.66.18,1,.27a.41.41,0,0,0,.19,0l1.67-.72a5.43,5.43,0,0,1-.26-3l.24,0c0,.09,0,.17,0,.25,0,.56-.05,1.12,0,1.68a1.55,1.55,0,0,0,.37,1,2.7,2.7,0,0,0,.37-.4,4.52,4.52,0,0,0,.36-.69.7.7,0,0,0,0-.32,5.18,5.18,0,0,1-.14-.66.58.58,0,0,0-.21-.47A2,2,0,0,0,11,7.07a2.33,2.33,0,0,1-.8-.73A3.27,3.27,0,0,0,8,5.17l-.08,0L7.64,6.76l-.25-.12a2.83,2.83,0,0,0,.12-1.32,1.66,1.66,0,0,1,.13-.52c0-.09.08-.23,0-.26a1.11,1.11,0,0,0-.39-.26s-.17.13-.2.23A2.1,2.1,0,0,0,7,5.7c.07.41.18.82.28,1.24-.2.14-.36,0-.45-.12-.28-.36-.51-.74-.76-1.12A5.1,5.1,0,0,0,5,7.28a3.05,3.05,0,0,0,.22,3.1c0,.06.13.13.19.12.6-.08,1.21-.17,1.8-.27a6.12,6.12,0,0,1-.09-3ZM5.64,14v0c.8,0,1.6,0,2.39,0a1.26,1.26,0,0,0,1.21-.86,2.8,2.8,0,0,0,.18-1.25,1.13,1.13,0,0,0-.31-.72,1.83,1.83,0,0,0-1-.52,5.27,5.27,0,0,0-2.84.12,11,11,0,0,0-3.67,2,2.15,2.15,0,0,0-.5.75.64.64,0,0,0,.34.9,1.64,1.64,0,0,0,1.2.23,12,12,0,0,0,1.76-.45,16.8,16.8,0,0,0,1.66-.8l.12.14Zm8.89,2.61a.91.91,0,0,0-1.31-.34,2.07,2.07,0,0,0-.58.48,1,1,0,0,1-1.09.34l-1.89-.45a5.65,5.65,0,0,0-1.74-.15.92.92,0,0,0-.88.83A1.56,1.56,0,0,0,8.1,19.07c.36.14.71.27,1.08.38a9.67,9.67,0,0,0,1.28.34,18.74,18.74,0,0,1,2.33.44,2,2,0,0,0,.85,0c.32-.05.34-.11.37-.43.09-.85.16-1.71.25-2.56C14.28,17,14.28,16.73,14.53,16.6ZM6.9,18.34a5.63,5.63,0,0,1-.12-.65,1.19,1.19,0,0,1,1-1.42,3.76,3.76,0,0,1,1.16,0c.68.1,1.36.26,2,.41.14,0,.22,0,.26-.12a5.66,5.66,0,0,0,.26-1.06,7.44,7.44,0,0,0-.85-3.73s0,0-.06,0a1.38,1.38,0,0,1,0,.22c0,.08-.1.15-.15.23a.82.82,0,0,1-.17-.2c-.13-.24-.25-.48-.38-.74l-.29.17a2.69,2.69,0,0,1,0,1.35,1.66,1.66,0,0,1-1.83,1.52c-.73,0-1.45,0-2.18,0H5.36c0,.46,0,.9,0,1.34a4.18,4.18,0,0,0,.43,1.69A2.11,2.11,0,0,0,6.9,18.34ZM5.79,17.9a5,5,0,0,0-1.32,2.18,1.14,1.14,0,0,0,.17,1,3.93,3.93,0,0,0,2,1.35A1.1,1.1,0,0,0,8,21.75a1.52,1.52,0,0,0-.13-1.42.72.72,0,0,1,0-.83L8,19.33A4.17,4.17,0,0,1,7.45,19a2.65,2.65,0,0,0-.69-.43A10.1,10.1,0,0,1,5.79,17.9ZM12,10.25l-1.61.33,1.08,2.71L13,12.56C11.91,11.75,11.76,11.39,12,10.25ZM6.92,6.48c-.06-.33-.13-.64-.16-1s0-.64,0-1C6.16,4.91,6.26,5.79,6.92,6.48Zm2.7,4.13-.53.21.36.38.3-.19a1.07,1.07,0,0,1-.09-.19A.87.87,0,0,1,9.62,10.61Zm.57.51c.17-.21.17-.31,0-.56l-.23.28Z"/><path d="M9.38,7l.13-.3c.1.07.23.12.29.21a.6.6,0,0,1,0,.62c-.07.17-.21.19-.29,0A3.57,3.57,0,0,1,9.38,7Z"/><path d="M8.12,12.72a.57.57,0,0,1-.61-.54.62.62,0,0,1,1.23,0A.57.57,0,0,1,8.12,12.72Z"/><path d="M8.14,17.48a.61.61,0,0,1,.62.54.41.41,0,0,1-.44.43.61.61,0,0,1-.63-.54A.43.43,0,0,1,8.14,17.48Z"/></g><g class="cls-3"><path d="M5.35,17.3A5.52,5.52,0,0,1,4.8,14a1.31,1.31,0,0,0-.25.06,9.36,9.36,0,0,1-2.32.62,1.91,1.91,0,0,1-1.4-.38.87.87,0,0,1-.32-1,1.88,1.88,0,0,1,.68-1,12.19,12.19,0,0,1,3.38-1.93l.12-.05-.09-.16a3.35,3.35,0,0,1-.23-3.2A5.81,5.81,0,0,1,5.62,5.14a.65.65,0,0,0,.16-.32,1.46,1.46,0,0,1,1.1-1.13.71.71,0,0,1,.72.75v.1c.3.09.59.15.88.25a3.07,3.07,0,0,1,1.77,1.39.49.49,0,0,0,.19.16,2.59,2.59,0,0,1,1,.8,1.34,1.34,0,0,1,.15,1.31c-.07.18-.17.35-.25.53a1.48,1.48,0,0,1-1.05.88.67.67,0,0,0-.18.07V10c.48-.1,1-.18,1.44-.32a4.66,4.66,0,0,1,1.28-.23H13l-.16-.19a4.36,4.36,0,0,1-1.05-2,2,2,0,0,1,.61-2,2.1,2.1,0,0,1,2.75.14l.18.2a2.19,2.19,0,0,1,1.3-.75,1.91,1.91,0,0,1,2.28,2.23,4.33,4.33,0,0,1-1.18,2.23,11.27,11.27,0,0,1-2.19,1.82.35.35,0,0,1-.43,0l-.88-.62c0,.14,0,.27-.07.39a2,2,0,0,1-.66,1,5.93,5.93,0,0,1-1.56.95l-.71.31a4.72,4.72,0,0,1-.14,3.23.8.8,0,0,0,1-.16,3,3,0,0,1,.78-.6,1.16,1.16,0,0,1,1.66.82,3.89,3.89,0,0,1,0,1.18,11.28,11.28,0,0,1-.35,1.61,1.17,1.17,0,0,1-1.19.9,4.92,4.92,0,0,1-.93-.11c-.45-.08-.9-.21-1.35-.26a9.07,9.07,0,0,1-2.5-.62c-.13-.05-.27-.19-.42,0a.57.57,0,0,0-.13.66,4.08,4.08,0,0,1,.28.9,1.42,1.42,0,0,1-1.74,1.6,3.81,3.81,0,0,1-2.16-1.48,1.41,1.41,0,0,1-.15-1.35,5.34,5.34,0,0,1,1.26-2ZM7,6.84S7,6.93,7,7c0,.55-.12,1.11-.12,1.66a5.79,5.79,0,0,0,.22,1.16.36.36,0,0,0,.31.24c.34.07.66.18,1,.27a.41.41,0,0,0,.19,0l1.67-.72a5.43,5.43,0,0,1-.26-3l.24,0c0,.09,0,.17,0,.25,0,.56-.05,1.12,0,1.68a1.57,1.57,0,0,0,.37,1,2.7,2.7,0,0,0,.37-.4,5.64,5.64,0,0,0,.36-.69.7.7,0,0,0,0-.32,5.18,5.18,0,0,1-.14-.66A.58.58,0,0,0,11,7a2.56,2.56,0,0,0-.34-.26A2.33,2.33,0,0,1,9.82,6,3.27,3.27,0,0,0,7.64,4.83l-.08,0L7.3,6.42,7.05,6.3A2.83,2.83,0,0,0,7.17,5a1.66,1.66,0,0,1,.13-.52c0-.09.08-.23,0-.26a1.07,1.07,0,0,0-.4-.26s-.16.13-.19.23a2.1,2.1,0,0,0-.06,1.19c.07.41.18.82.28,1.24-.2.14-.36,0-.45-.12-.28-.36-.51-.74-.76-1.12A5.1,5.1,0,0,0,4.63,6.94,3.05,3.05,0,0,0,4.85,10c0,.06.13.13.19.12l1.8-.27a6.15,6.15,0,0,1-.09-3.05ZM5.3,13.65v0c.8,0,1.6,0,2.39,0a1.26,1.26,0,0,0,1.21-.86,2.8,2.8,0,0,0,.18-1.25,1.13,1.13,0,0,0-.31-.72,1.83,1.83,0,0,0-1-.52,5.27,5.27,0,0,0-2.84.12,11,11,0,0,0-3.67,2,2.15,2.15,0,0,0-.5.75.64.64,0,0,0,.34.9,1.64,1.64,0,0,0,1.2.23,12,12,0,0,0,1.76-.45,18,18,0,0,0,1.66-.8l.12.14Zm8.89,2.61a.91.91,0,0,0-1.31-.34,2.07,2.07,0,0,0-.58.48,1,1,0,0,1-1.09.34l-1.89-.45a5.65,5.65,0,0,0-1.74-.15A.92.92,0,0,0,6.7,17a1.56,1.56,0,0,0,1.06,1.76c.36.14.71.27,1.08.38a9.67,9.67,0,0,0,1.28.34,18.74,18.74,0,0,1,2.33.44,2,2,0,0,0,.85,0c.32-.05.34-.11.37-.43.09-.85.16-1.71.25-2.56C13.94,16.64,13.94,16.39,14.19,16.26ZM6.56,18a5.63,5.63,0,0,1-.12-.65,1.19,1.19,0,0,1,1-1.42,3.76,3.76,0,0,1,1.16,0c.68.1,1.36.26,2,.41.14,0,.22,0,.26-.12a5.66,5.66,0,0,0,.26-1.06,7.44,7.44,0,0,0-.85-3.73s0,0-.06,0a1.5,1.5,0,0,1,0,.22c0,.08-.1.15-.15.23a.82.82,0,0,1-.17-.2c-.13-.24-.25-.48-.38-.74l-.29.17a2.69,2.69,0,0,1,0,1.35A1.66,1.66,0,0,1,7.45,14c-.73,0-1.45,0-2.18,0H5c0,.46,0,.9,0,1.33A4.1,4.1,0,0,0,5.45,17,2.09,2.09,0,0,0,6.56,18Zm-1.11-.44a5,5,0,0,0-1.32,2.17,1.16,1.16,0,0,0,.17,1,3.93,3.93,0,0,0,2,1.35,1.1,1.1,0,0,0,1.39-.69A1.52,1.52,0,0,0,7.51,20a.72.72,0,0,1,0-.83L7.67,19a4.17,4.17,0,0,1-.56-.36,2.65,2.65,0,0,0-.69-.43A10.1,10.1,0,0,1,5.45,17.56ZM11.7,9.91l-1.61.33L11.17,13l1.51-.73C11.57,11.41,11.42,11,11.7,9.91ZM6.58,6.14c-.06-.33-.13-.64-.16-1s0-.64,0-1C5.82,4.57,5.92,5.45,6.58,6.14Zm2.7,4.13-.53.21.36.38.3-.19a1.54,1.54,0,0,1-.09-.19A.87.87,0,0,1,9.28,10.27Zm.57.51c.17-.21.17-.31,0-.56l-.23.28Z"/><path d="M9,6.63l.13-.3c.1.07.23.12.29.21a.6.6,0,0,1,0,.62c-.07.17-.21.19-.29,0A3.57,3.57,0,0,1,9,6.63Z"/><path d="M7.78,12.38a.57.57,0,0,1-.61-.54.62.62,0,0,1,1.23,0A.57.57,0,0,1,7.78,12.38Z"/><path d="M7.8,17.14a.61.61,0,0,1,.62.54.41.41,0,0,1-.44.43.61.61,0,0,1-.63-.54A.43.43,0,0,1,7.8,17.14Z"/></g><path class="cls-4" d="M5.55,17.5A5.61,5.61,0,0,1,5,14.17a1.4,1.4,0,0,0-.24.06,9.36,9.36,0,0,1-2.32.62A2,2,0,0,1,1,14.47a.87.87,0,0,1-.32-1,1.86,1.86,0,0,1,.67-1,12,12,0,0,1,3.39-1.93l.12,0-.09-.16a3.35,3.35,0,0,1-.23-3.2A5.53,5.53,0,0,1,5.82,5.34.65.65,0,0,0,6,5a1.48,1.48,0,0,1,1.1-1.14.73.73,0,0,1,.72.76.34.34,0,0,0,0,.1c.3.09.59.15.87.25a3.09,3.09,0,0,1,1.78,1.39.4.4,0,0,0,.19.15,2.72,2.72,0,0,1,1,.81,1.32,1.32,0,0,1,.15,1.3c-.08.19-.17.36-.25.54a1.45,1.45,0,0,1-1,.87l-.18.08v.06c.48-.11,1-.18,1.44-.32A4.66,4.66,0,0,1,13,9.64h.17L13,9.44a4.36,4.36,0,0,1-1-2,1.94,1.94,0,0,1,.61-2,2.09,2.09,0,0,1,2.74.14l.19.2a2.19,2.19,0,0,1,1.3-.75,1.91,1.91,0,0,1,2.28,2.23,4.37,4.37,0,0,1-1.18,2.23,11.58,11.58,0,0,1-2.19,1.82.35.35,0,0,1-.43,0l-.88-.62c0,.14,0,.27-.07.39a2,2,0,0,1-.66,1,5.93,5.93,0,0,1-1.56,1l-.71.31a4.78,4.78,0,0,1-.14,3.23.8.8,0,0,0,1-.16,3,3,0,0,1,.78-.6,1.16,1.16,0,0,1,1.66.82,3.89,3.89,0,0,1,0,1.18,10,10,0,0,1-.34,1.61,1.17,1.17,0,0,1-1.19.9,4.92,4.92,0,0,1-.93-.11c-.45-.08-.9-.21-1.35-.26a9.07,9.07,0,0,1-2.5-.62c-.13-.05-.27-.19-.43,0A.6.6,0,0,0,7.9,20a3.7,3.7,0,0,1,.29.89,1.42,1.42,0,0,1-1.74,1.61,3.78,3.78,0,0,1-2.16-1.48,1.43,1.43,0,0,1-.15-1.36,5.38,5.38,0,0,1,1.26-2ZM7.19,7s0,.08,0,.12c0,.55-.13,1.11-.12,1.66A5.69,5.69,0,0,0,7.28,10a.34.34,0,0,0,.31.25c.34.06.66.18,1,.27a.45.45,0,0,0,.2,0l1.67-.72a5.46,5.46,0,0,1-.26-3l.24,0a2.09,2.09,0,0,0,0,.24c0,.57-.05,1.13,0,1.69a1.57,1.57,0,0,0,.37,1,2.7,2.7,0,0,0,.37-.4,6.47,6.47,0,0,0,.36-.69.61.61,0,0,0,0-.33c0-.22-.12-.43-.13-.65a.56.56,0,0,0-.22-.47,2,2,0,0,0-.33-.26,2.18,2.18,0,0,1-.8-.74A3.26,3.26,0,0,0,7.83,5s0,0-.07,0L7.5,6.62l-.26-.13a2.66,2.66,0,0,0,.13-1.31,1.78,1.78,0,0,1,.13-.53c0-.08.08-.22,0-.25a1.09,1.09,0,0,0-.4-.27S7,4.27,7,4.37a2.09,2.09,0,0,0-.06,1.19c.07.41.18.82.28,1.24-.2.14-.36,0-.46-.12-.27-.36-.5-.74-.75-1.12A5,5,0,0,0,4.82,7.14a3.08,3.08,0,0,0,.23,3.1c0,.06.13.13.19.12L7,10.09A6.16,6.16,0,0,1,7,7ZM5.5,13.85v0c.8,0,1.59,0,2.39,0A1.26,1.26,0,0,0,9.11,13a2.8,2.8,0,0,0,.18-1.25A1.13,1.13,0,0,0,9,11.06a1.9,1.9,0,0,0-1-.52,5.37,5.37,0,0,0-2.84.11,11.17,11.17,0,0,0-3.67,2.06,2.11,2.11,0,0,0-.5.74.65.65,0,0,0,.34.91,1.64,1.64,0,0,0,1.2.23,11.52,11.52,0,0,0,1.75-.45,16,16,0,0,0,1.67-.81l.11.15Zm8.89,2.6a.92.92,0,0,0-1.32-.33,2.39,2.39,0,0,0-.58.48,1,1,0,0,1-1.08.34c-.63-.15-1.26-.31-1.89-.45a5.36,5.36,0,0,0-1.74-.15.91.91,0,0,0-.88.82A1.57,1.57,0,0,0,8,18.93c.36.14.71.27,1.08.38a9.67,9.67,0,0,0,1.28.34,18.74,18.74,0,0,1,2.33.44,2,2,0,0,0,.85,0c.32,0,.34-.11.37-.43.08-.85.16-1.71.25-2.57C14.14,16.84,14.14,16.59,14.39,16.45ZM6.76,18.19a5.48,5.48,0,0,1-.12-.64,1.21,1.21,0,0,1,1-1.43,4.1,4.1,0,0,1,1.16,0c.68.1,1.36.26,2,.41.14,0,.22,0,.26-.12a7.11,7.11,0,0,0,.26-1.06,7.44,7.44,0,0,0-.85-3.73s0,0-.06,0a1.5,1.5,0,0,1,0,.22c0,.08-.1.15-.15.23a1.06,1.06,0,0,1-.17-.2c-.13-.24-.25-.49-.38-.74l-.29.17a2.69,2.69,0,0,1,.05,1.35,1.66,1.66,0,0,1-1.83,1.52c-.73,0-1.46,0-2.18,0H5.22c0,.46,0,.9,0,1.33a4.13,4.13,0,0,0,.42,1.69A2.09,2.09,0,0,0,6.76,18.19Zm-1.11-.43a5,5,0,0,0-1.32,2.17,1.1,1.1,0,0,0,.17,1,3.81,3.81,0,0,0,2,1.35,1.07,1.07,0,0,0,1.38-.69,1.48,1.48,0,0,0-.12-1.41.72.72,0,0,1,0-.83l.12-.17a4.17,4.17,0,0,1-.56-.36,2.65,2.65,0,0,0-.69-.43C6.29,18.22,6,18,5.65,17.76Zm6.25-7.65-1.61.32,1.08,2.72,1.51-.73C11.77,11.61,11.62,11.24,11.9,10.11ZM6.78,6.34c-.06-.33-.13-.64-.16-1s0-.65,0-1C6,4.77,6.12,5.65,6.78,6.34Zm2.69,4.13L9,10.68l.36.38.3-.19a1.82,1.82,0,0,1-.1-.19C9.49,10.62,9.49,10.56,9.47,10.47Zm.58.51c.17-.21.16-.31,0-.56l-.23.28Z"/><path class="cls-4" d="M9.24,6.83l.13-.3c.1.07.23.12.29.21a.6.6,0,0,1,0,.62c-.07.17-.21.19-.29,0A3.57,3.57,0,0,1,9.24,6.83Z"/><path class="cls-4" d="M8,12.58A.58.58,0,0,1,7.36,12,.6.6,0,0,1,8,11.48.59.59,0,0,1,8.6,12,.58.58,0,0,1,8,12.58Z"/><path class="cls-4" d="M8,17.34a.6.6,0,0,1,.62.54.41.41,0,0,1-.45.43.63.63,0,0,1-.62-.54A.42.42,0,0,1,8,17.34Z"/></g></g></svg>