<svg xmlns="http://www.w3.org/2000/svg" viewBox="0 0 38.55 24.66"><defs><style>.cls-1{isolation:isolate;}.cls-2{opacity:0.15;}.cls-2,.cls-3{mix-blend-mode:multiply;}.cls-4{fill:#fff;}</style></defs><title>convert-CUSTOMIZE-SVG-03</title><g class="cls-1"><g id="Layer_1" data-name="Layer 1"><g class="cls-2"><path d="M12.68,18.53a2.8,2.8,0,0,1,1.51.64c.32.25.3.25.62,0a2.62,2.62,0,0,1,1.36-.62.8.8,0,0,1,.77.38,1.5,1.5,0,0,1,.16,1.39,3.75,3.75,0,0,1-1.43,1.87c-.33.24-.7.45-1.05.66a.23.23,0,0,1-.21,0,5.7,5.7,0,0,1-2.15-1.78,2.71,2.71,0,0,1-.46-1.23,1.23,1.23,0,0,1,.49-1.17A1.34,1.34,0,0,1,12.68,18.53Z"/><path d="M5.09,2.45A9.61,9.61,0,0,1,6,1.85a2.33,2.33,0,0,1,.9-.25c.47,0,.89.52.9,1.07A2.76,2.76,0,0,1,7,4.57,5.85,5.85,0,0,1,5.22,5.9a.3.3,0,0,1-.21,0A5.7,5.7,0,0,1,3,4.23a2.53,2.53,0,0,1-.53-1.42,1.35,1.35,0,0,1,.3-.91.8.8,0,0,1,1-.26,8.49,8.49,0,0,1,1.08.56A2.81,2.81,0,0,1,5.09,2.45Z"/><path d="M33.27,2.47c.13-.11.25-.23.38-.32a4.86,4.86,0,0,1,.77-.43A1.06,1.06,0,0,1,36,2.91,3.21,3.21,0,0,1,34.68,5c-.4.32-.85.58-1.28.86a.36.36,0,0,1-.25,0,5.73,5.73,0,0,1-2-1.63A2.73,2.73,0,0,1,30.57,3a1.55,1.55,0,0,1,0-.48,1,1,0,0,1,1.53-.75,4.83,4.83,0,0,1,.59.32C32.9,2.17,33.07,2.32,33.27,2.47Z"/><path d="M30.55,19.68a1.33,1.33,0,0,1,.32-.83.83.83,0,0,1,.93-.27,3,3,0,0,1,1.22.65c.27.22.17.23.5,0a4.45,4.45,0,0,1,1-.59A1,1,0,0,1,36,19.79,3,3,0,0,1,35,21.66a6.34,6.34,0,0,1-1.66,1.2.3.3,0,0,1-.21,0,5.82,5.82,0,0,1-2.07-1.68A2.74,2.74,0,0,1,30.55,19.68Z"/><path d="M14.48,2.46c.26-.18.48-.36.71-.51a3.06,3.06,0,0,1,.55-.26,1,1,0,0,1,1.45,1.18,2.91,2.91,0,0,1-.74,1.63,5.88,5.88,0,0,1-1.84,1.4.26.26,0,0,1-.21,0,5.68,5.68,0,0,1-2.13-1.76,2.61,2.61,0,0,1-.47-1.23,1.31,1.31,0,0,1,.38-1.1.77.77,0,0,1,.9-.18,11.7,11.7,0,0,1,1.11.58A1.68,1.68,0,0,1,14.48,2.46Z"/><path d="M23.85,2.45a9.61,9.61,0,0,1,.92-.6,2.59,2.59,0,0,1,.9-.26,1,1,0,0,1,.9,1.08,2.79,2.79,0,0,1-.84,2A5.94,5.94,0,0,1,24,5.9a.26.26,0,0,1-.21,0A5.62,5.62,0,0,1,21.69,4.2a2.61,2.61,0,0,1-.51-1.37,1.35,1.35,0,0,1,.3-.93.87.87,0,0,1,1-.27,3.34,3.34,0,0,1,1.23.69Z"/><path d="M23.85,19.41a7.51,7.51,0,0,1,.94-.61,2.92,2.92,0,0,1,.84-.25.66.66,0,0,1,.62.29,1.42,1.42,0,0,1,.25,1.39,3.25,3.25,0,0,1-1.15,1.71c-.42.34-.89.61-1.34.91a.26.26,0,0,1-.21,0,5.45,5.45,0,0,1-2.17-1.81,2.5,2.5,0,0,1-.45-1.28,1.38,1.38,0,0,1,.34-1,.83.83,0,0,1,.89-.23,3,3,0,0,1,1.16.59Z"/><path d="M5.11,19.42A6.86,6.86,0,0,1,5.74,19a4.77,4.77,0,0,1,.83-.37A.84.84,0,0,1,7.63,19a1.62,1.62,0,0,1,0,1.47,3.71,3.71,0,0,1-1.32,1.64c-.34.26-.72.47-1.08.7a.26.26,0,0,1-.21,0A5.51,5.51,0,0,1,2.82,21a2.43,2.43,0,0,1-.4-1.25,1.3,1.3,0,0,1,.33-.93.75.75,0,0,1,.91-.23,8.43,8.43,0,0,1,1.12.57A2,2,0,0,1,5.11,19.42Z"/><path d="M5.63,6.51a1.09,1.09,0,0,1,.76-.25h6.84a1.12,1.12,0,0,1,.76.25Z"/><path d="M15,6.5a1.09,1.09,0,0,1,.73-.24h6.84a1.12,1.12,0,0,1,.78.24Z"/><path d="M24.39,6.51a1.1,1.1,0,0,1,.77-.25h6.92a1.09,1.09,0,0,1,.67.25Z"/><path d="M14,23.47H5.61a1.18,1.18,0,0,1,.63-.26h7A1,1,0,0,1,14,23.47Z"/><path d="M24.39,23.46a1.19,1.19,0,0,1,.68-.25H32a1.07,1.07,0,0,1,.74.25Z"/><path d="M15,23.46a1,1,0,0,1,.69-.25H22.6a1.05,1.05,0,0,1,.75.25Z"/><path d="M25.53,5.78a.65.65,0,0,1,.56-.27H31a.69.69,0,0,1,.6.27Z"/><path d="M12.82,5.79H6.76c.14-.15.24-.28.45-.28H12.4a1.73,1.73,0,0,1,.45.19Z"/><path d="M16.15,5.78a.66.66,0,0,1,.55-.27h5a.66.66,0,0,1,.56.27Z"/><path d="M6.76,22.74a.67.67,0,0,1,.54-.27q2.51,0,5,0a.65.65,0,0,1,.54.27Z"/><path d="M25.53,22.73a.64.64,0,0,1,.53-.26q2.49,0,5,0a.63.63,0,0,1,.56.26Z"/><path d="M16.15,22.73a.64.64,0,0,1,.53-.26c1.66,0,3.32,0,5,0a.64.64,0,0,1,.55.26Z"/><path d="M17,22a.4.4,0,0,1,.43-.27H21a.42.42,0,0,1,.42.27Z"/><path d="M30.81,22H26.35c.11-.25.13-.26.38-.26h3.66A.42.42,0,0,1,30.81,22Z"/><path d="M12,22H7.56A.42.42,0,0,1,8,21.73h3.65A.39.39,0,0,1,12,22Z"/><path d="M21.27,18.07a.66.66,0,0,1-.61.26H17.71a.64.64,0,0,1-.61-.26Z"/><path d="M26.47,18.06h4.19a.61.61,0,0,1-.47.27H27.1A.69.69,0,0,1,26.47,18.06Z"/><path d="M7.71,18.06H11.9a.61.61,0,0,1-.47.27H8.34A.69.69,0,0,1,7.71,18.06Z"/><path d="M17,5a.4.4,0,0,1,.44-.25H21a.43.43,0,0,1,.41.25Z"/><path d="M26.34,5a.37.37,0,0,1,.39-.25h3.66A.37.37,0,0,1,30.8,5Z"/><path d="M12.05,5H7.57A.38.38,0,0,1,8,4.78h3.71A.41.41,0,0,1,12.05,5Z"/><path d="M17.09,1.11h4.19a.63.63,0,0,1-.53.26q-1.56,0-3.12,0A.67.67,0,0,1,17.09,1.11Z"/><path d="M7.72,1.11H11.9a.69.69,0,0,1-.54.26q-1.54,0-3.09,0A.6.6,0,0,1,7.72,1.11Z"/><path d="M30.65,1.12a.62.62,0,0,1-.58.25c-1,0-2,0-3,0-.24,0-.46,0-.59-.24Z"/><path d="M33.77,6.51a1,1,0,0,1,.71-.25h3v.25Z"/><path d="M.91,6.5V6.26h2.9a1.06,1.06,0,0,1,.78.24Z"/><path d="M33.78,23.46a1.06,1.06,0,0,1,.7-.25h3v.25Z"/><path d="M.91,23.46v-.25h2.9a1.09,1.09,0,0,1,.78.25Z"/><path d="M11.28,1.84c0,.22-.11.27-.31.27H8.65c-.2,0-.31,0-.32-.27Z"/><path d="M17.71,1.84h2.95c0,.18-.08.28-.3.27H18C17.81,2.12,17.72,2,17.71,1.84Z"/><path d="M30,1.84c0,.21-.1.28-.3.27H27.39c-.21,0-.27-.09-.31-.27Z"/><path d="M17.48,4.31c0-.22.15-.27.35-.27h2.73a.3.3,0,0,1,.34.27Z"/><path d="M26.86,4.31c0-.21.15-.27.34-.27h2.73c.2,0,.31.06.34.27Z"/><path d="M8.1,4.31c0-.19.12-.27.33-.27h2.75a.29.29,0,0,1,.33.27Z"/><path d="M26.87,21.25c0-.18.11-.25.31-.25C28.1,21,29,21,30,21c.19,0,.29.05.32.25Z"/><path d="M17.48,21.25c0-.2.15-.25.34-.25.91,0,1.83,0,2.75,0,.18,0,.29.05.32.25Z"/><path d="M8.11,21.26c0-.18.1-.26.29-.26q1.39,0,2.79,0c.19,0,.29.06.32.26Z"/><path d="M20.58,20.53H17.8c0-.21.06-.28.27-.27h2.22C20.49,20.25,20.59,20.31,20.58,20.53Z"/><path d="M30,20.53H27.18c0-.19,0-.28.25-.27H29.7C29.9,20.25,30,20.33,30,20.53Z"/><path d="M8.41,20.53c0-.22.09-.28.29-.27h2.24c.2,0,.27.07.25.27Z"/><path d="M11.27,18.81c0,.2-.09.26-.28.25H8.64c-.18,0-.3,0-.31-.25Z"/><path d="M17.72,18.81h3l-.09.25H18C17.8,19.09,17.73,19,17.72,18.81Z"/><path d="M27.1,18.8H30c0,.18-.07.27-.27.26H27.4C27.21,19.07,27.11,19,27.1,18.8Z"/><path d="M34.91,5.78a.66.66,0,0,1,.6-.27c.65,0,1.31,0,2,0v.26Z"/><path d="M.91,5.78V5.52h.91c.36,0,.72,0,1.08,0a.64.64,0,0,1,.56.27Z"/><path d="M11.19,3.56H8.41l.05-.26h1.4c.36,0,.73,0,1.1,0C11.15,3.29,11.2,3.38,11.19,3.56Z"/><path d="M20.57,3.56H17.81c0-.19,0-.26.23-.26.75,0,1.51,0,2.26,0C20.5,3.3,20.59,3.35,20.57,3.56Z"/><path d="M30,3.56h-2.8l0-.25H29.9Z"/><path d="M17.9,19.78v-.24h2.55v.24Z"/><path d="M17.91,2.82V2.59h2.55v.23Z"/><path d="M8.53,2.82V2.59h2.54l0,.23Z"/><path d="M11.07,19.54v.24H8.54v-.24Z"/><path d="M29.83,2.59v.24H27.3V2.59Z"/><path d="M27.3,19.77v-.23h2.53v.23Z"/><path d="M34.92,22.73a.64.64,0,0,1,.6-.26c.65,0,1.3,0,2,0v.25Z"/><path d="M.91,22.73v-.25H1.4c.5,0,1,0,1.5,0a.64.64,0,0,1,.56.26Z"/><path d="M37.49,22H35.71c.08-.17.17-.28.38-.27.46,0,.93,0,1.4,0Z"/><path d="M2.67,22H.91v-.26h.94a2.17,2.17,0,0,0,.36,0A.43.43,0,0,1,2.67,22Z"/><path d="M37.49,18.06v.26c-.35,0-.7,0-1.05,0a.62.62,0,0,1-.58-.27Z"/><path d="M2.51,18.06a.64.64,0,0,1-.62.27c-.32,0-.64,0-1,0v-.26Z"/><path d="M35.72,5a.38.38,0,0,1,.42-.25h1.35V5Z"/><path d="M.91,5V4.79h1.5c.09,0,.17.13.24.24Z"/><path d="M37.49,1.11v.25c-.44,0-.88,0-1.32,0-.11,0-.2-.13-.35-.24Z"/><path d="M2.51,1.11A.58.58,0,0,1,2,1.37c-.35,0-.7,0-1.08,0V1.11Z"/><path d="M15.21,18.07a1.15,1.15,0,0,1-1.47,0Z"/><path d="M32.52,18.06H34A1.08,1.08,0,0,1,32.52,18.06Z"/><path d="M23.15,18.06H24.6A1.1,1.1,0,0,1,23.15,18.06Z"/><path d="M5.85,18.06a1.12,1.12,0,0,1-1.47,0Z"/><path d="M36.24,4.3A.29.29,0,0,1,36.58,4c.3,0,.59,0,.91,0V4.3Z"/><path d="M37.49,21v.24H36.25c0-.16.1-.26.3-.25S37.16,21,37.49,21Z"/><path d="M.91,4.3V4.05c.35,0,.69,0,1,0,.07,0,.14.14.23.24Z"/><path d="M.91,21.26V21c.35,0,.69,0,1,0,.08,0,.15.12.22.19l0,.05Z"/><path d="M36.4,1.84h1.09v.27c-.29,0-.58,0-.86,0C36.56,2.09,36.51,2,36.4,1.84Z"/><path d="M.91,2.11V1.84h1c0,.19-.09.3-.3.28S1.15,2.11.91,2.11Z"/><path d="M23.15,1.11h1.42A1.09,1.09,0,0,1,23.15,1.11Z"/><path d="M4.34,1.11H5.83C5.46,1.45,5,1.46,4.34,1.11Z"/><path d="M32.54,1.11H34A1.1,1.1,0,0,1,32.54,1.11Z"/><path d="M15.21,1.12a1.16,1.16,0,0,1-1.45,0Z"/><path d="M37.49,20.26v.26h-.92c0-.21.06-.28.27-.26Z"/><path d="M.91,20.26a6,6,0,0,1,.74,0c.08,0,.14.13.21.21l-.05.05H.91Z"/><path d="M37.49,18.81v.25c-.28,0-.56,0-.84,0-.07,0-.14-.12-.2-.18l0-.06Z"/><path d="M.91,19.05v-.24h1l-.1.24Z"/><path d="M37.48,3.56h-.92l0-.24h.88Z"/><path d="M1.77,3.32l.05.24H.91V3.32Z"/><path d="M36.67,2.83V2.59h.82v.24Z"/><path d="M37.49,19.54v.24h-.81v-.24Z"/><path d="M1.69,2.59v.24H.92V2.59Z"/><path d="M.91,19.78v-.24h.78v.24Z"/><path d="M12.88,18.73a2.8,2.8,0,0,1,1.51.64c.32.25.3.24.62,0a2.54,2.54,0,0,1,1.36-.62.77.77,0,0,1,.77.38,1.46,1.46,0,0,1,.15,1.39,3.66,3.66,0,0,1-1.42,1.86c-.34.25-.7.46-1,.67a.31.31,0,0,1-.21,0,5.7,5.7,0,0,1-2.15-1.78A2.71,2.71,0,0,1,12,20.06a1.25,1.25,0,0,1,.49-1.18A1.29,1.29,0,0,1,12.88,18.73Z"/><path d="M5.29,2.65a9.49,9.49,0,0,1,.91-.6,2.44,2.44,0,0,1,.9-.26A1.06,1.06,0,0,1,8,2.87a2.76,2.76,0,0,1-.8,1.9A6,6,0,0,1,5.42,6.1a.26.26,0,0,1-.21,0A5.58,5.58,0,0,1,3.15,4.43,2.65,2.65,0,0,1,2.61,3a1.35,1.35,0,0,1,.31-.9.79.79,0,0,1,1-.26A8.49,8.49,0,0,1,5,2.4,2.81,2.81,0,0,1,5.29,2.65Z"/><path d="M33.47,2.67a2.23,2.23,0,0,1,.38-.32,4.86,4.86,0,0,1,.77-.43,1.06,1.06,0,0,1,1.53,1.19,3.22,3.22,0,0,1-1.28,2.12,12.21,12.21,0,0,1-1.27.85.32.32,0,0,1-.25,0,5.75,5.75,0,0,1-2-1.63,2.73,2.73,0,0,1-.55-1.31,1.29,1.29,0,0,1,0-.48,1,1,0,0,1,1.53-.75,3.09,3.09,0,0,1,.59.32A6.28,6.28,0,0,1,33.47,2.67Z"/><path d="M30.75,19.88a1.33,1.33,0,0,1,.32-.83.81.81,0,0,1,.93-.27,3,3,0,0,1,1.22.65c.27.22.17.22.49,0a4.74,4.74,0,0,1,1-.59A1,1,0,0,1,36.16,20a3.07,3.07,0,0,1-.93,1.87,6.34,6.34,0,0,1-1.66,1.2.26.26,0,0,1-.21,0,5.69,5.69,0,0,1-2.07-1.67A2.66,2.66,0,0,1,30.75,19.88Z"/><path d="M14.68,2.66c.25-.18.48-.36.71-.51a2.31,2.31,0,0,1,.55-.26,1,1,0,0,1,1.45,1.18,2.91,2.91,0,0,1-.74,1.63,6,6,0,0,1-1.84,1.4.26.26,0,0,1-.21,0,5.7,5.7,0,0,1-2.13-1.76A2.69,2.69,0,0,1,12,3.11,1.33,1.33,0,0,1,12.38,2a.78.78,0,0,1,.9-.17,11.7,11.7,0,0,1,1.11.58A1.68,1.68,0,0,1,14.68,2.66Z"/><path d="M24.05,2.65a9.61,9.61,0,0,1,.92-.6,2.34,2.34,0,0,1,.9-.26c.47,0,.9.53.9,1.07a2.79,2.79,0,0,1-.84,1.95A5.8,5.8,0,0,1,24.19,6.1a.31.31,0,0,1-.21,0,5.73,5.73,0,0,1-2.1-1.71A2.68,2.68,0,0,1,21.38,3a1.34,1.34,0,0,1,.3-.93.85.85,0,0,1,1-.27,3.22,3.22,0,0,1,1.22.69Z"/><path d="M24.05,19.6A9.72,9.72,0,0,1,25,19a3.12,3.12,0,0,1,.84-.25.68.68,0,0,1,.63.28,1.47,1.47,0,0,1,.25,1.4,3.25,3.25,0,0,1-1.15,1.7,16,16,0,0,1-1.35.92.24.24,0,0,1-.2,0,5.45,5.45,0,0,1-2.17-1.81A2.53,2.53,0,0,1,21.38,20a1.38,1.38,0,0,1,.34-1,.85.85,0,0,1,.89-.24,3,3,0,0,1,1.15.6Z"/><path d="M5.31,19.62a6.86,6.86,0,0,1,.63-.47,4.3,4.3,0,0,1,.82-.37.85.85,0,0,1,1.07.46,1.63,1.63,0,0,1,0,1.46,3.76,3.76,0,0,1-1.32,1.65A12.32,12.32,0,0,1,5.45,23a.23.23,0,0,1-.21,0A5.45,5.45,0,0,1,3,21.2,2.54,2.54,0,0,1,2.61,20,1.4,1.4,0,0,1,3,19a.76.76,0,0,1,.91-.22A8.36,8.36,0,0,1,5,19.35,2.78,2.78,0,0,1,5.31,19.62Z"/><path d="M5.83,6.71a1,1,0,0,1,.76-.25h6.84a1.19,1.19,0,0,1,.76.26Z"/><path d="M15.21,6.7a1.13,1.13,0,0,1,.73-.25h6.84a1,1,0,0,1,.77.24Z"/><path d="M24.59,6.71a1,1,0,0,1,.76-.25h6.92a1.11,1.11,0,0,1,.68.26Z"/><path d="M14.17,23.66H5.81a1.25,1.25,0,0,1,.63-.25q3.48,0,7,0A1.07,1.07,0,0,1,14.17,23.66Z"/><path d="M24.59,23.66a1.12,1.12,0,0,1,.68-.25q3.45,0,6.92,0a1.07,1.07,0,0,1,.74.25Z"/><path d="M15.23,23.65a1,1,0,0,1,.69-.24c2.29,0,4.59,0,6.88,0a1.07,1.07,0,0,1,.74.24Z"/><path d="M25.73,6a.65.65,0,0,1,.56-.27h4.92A.67.67,0,0,1,31.8,6Z"/><path d="M13,6H7c.14-.15.24-.28.45-.28h5.18c.16,0,.31.13.46.19Z"/><path d="M16.34,6a.69.69,0,0,1,.56-.27h5a.69.69,0,0,1,.56.27Z"/><path d="M7,22.93a.69.69,0,0,1,.54-.26h5a.61.61,0,0,1,.53.26Z"/><path d="M25.73,22.93a.64.64,0,0,1,.53-.26h5a.65.65,0,0,1,.57.26Z"/><path d="M16.35,22.93a.61.61,0,0,1,.53-.26h5a.64.64,0,0,1,.55.26Z"/><path d="M17.14,22.2a.42.42,0,0,1,.44-.27q1.82,0,3.63,0a.42.42,0,0,1,.42.27Z"/><path d="M31,22.2H26.55c.1-.25.13-.27.38-.27,1.22,0,2.44,0,3.65,0A.4.4,0,0,1,31,22.2Z"/><path d="M12.24,22.2H7.76a.42.42,0,0,1,.41-.27q1.83,0,3.66,0A.4.4,0,0,1,12.24,22.2Z"/><path d="M21.47,18.27a.67.67,0,0,1-.61.26c-1,0-2,0-2.95,0a.63.63,0,0,1-.61-.26Z"/><path d="M26.67,18.26h4.19c-.14.14-.25.27-.47.27q-1.55,0-3.09,0A.69.69,0,0,1,26.67,18.26Z"/><path d="M7.91,18.26H12.1a.61.61,0,0,1-.48.27q-1.54,0-3.09,0A.67.67,0,0,1,7.91,18.26Z"/><path d="M17.15,5.23A.4.4,0,0,1,17.59,5h3.63a.43.43,0,0,1,.41.25Z"/><path d="M26.54,5.23A.37.37,0,0,1,26.93,5h3.66a.37.37,0,0,1,.4.25Z"/><path d="M12.24,5.23H7.77A.38.38,0,0,1,8.15,5h3.71A.4.4,0,0,1,12.24,5.23Z"/><path d="M17.29,1.31h4.19a.65.65,0,0,1-.54.26c-1,0-2.07,0-3.11,0A.66.66,0,0,1,17.29,1.31Z"/><path d="M7.92,1.31H12.1a.69.69,0,0,1-.54.26c-1,0-2.06,0-3.09,0A.58.58,0,0,1,7.92,1.31Z"/><path d="M30.85,1.32a.6.6,0,0,1-.58.24c-1,0-2,0-3,0-.24,0-.46,0-.59-.24Z"/><path d="M34,6.71a1.11,1.11,0,0,1,.71-.26c1,0,2,0,3,0v.25Z"/><path d="M1.11,6.7V6.46H4a1.06,1.06,0,0,1,.78.24Z"/><path d="M34,23.66a1.06,1.06,0,0,1,.7-.25c1,0,2,0,3,0v.25Z"/><path d="M1.11,23.65v-.24h.23c.89,0,1.78,0,2.66,0a1.09,1.09,0,0,1,.79.24Z"/><path d="M11.48,2c0,.21-.12.27-.31.27-.77,0-1.55,0-2.32,0-.2,0-.31-.05-.32-.27Z"/><path d="M17.91,2h2.95c0,.19-.08.28-.3.28q-1.17,0-2.34,0C18,2.31,17.92,2.24,17.91,2Z"/><path d="M30.24,2c0,.21-.1.27-.3.27-.79,0-1.57,0-2.35,0-.21,0-.27-.09-.31-.27Z"/><path d="M17.68,4.51c0-.22.15-.27.34-.27h2.74a.3.3,0,0,1,.34.27Z"/><path d="M27.06,4.5c0-.2.14-.26.34-.26h2.73c.2,0,.31.06.34.26Z"/><path d="M8.3,4.51c0-.19.12-.27.33-.27h2.75c.2,0,.3.07.33.27Z"/><path d="M27.07,21.45c0-.18.11-.25.3-.25.93,0,1.85,0,2.78,0,.18,0,.29.05.32.25Z"/><path d="M17.68,21.45c0-.2.15-.25.33-.25.92,0,1.84,0,2.75,0,.19,0,.29.05.32.25Z"/><path d="M8.31,21.45a.25.25,0,0,1,.29-.25q1.39,0,2.79,0c.19,0,.29.06.31.25Z"/><path d="M20.78,20.73H18c0-.22.06-.28.27-.28.73,0,1.47,0,2.21,0C20.69,20.45,20.79,20.51,20.78,20.73Z"/><path d="M30.15,20.73H27.38c0-.19,0-.28.25-.28.76,0,1.51,0,2.27,0C30.1,20.45,30.16,20.53,30.15,20.73Z"/><path d="M8.61,20.72c0-.21.09-.27.28-.27q1.13,0,2.25,0c.2,0,.26.08.24.27Z"/><path d="M11.47,19c0,.19-.1.26-.28.25-.78,0-1.57,0-2.35,0-.18,0-.3,0-.31-.25Z"/><path d="M17.92,19h2.95l-.1.26H18.49c-.1,0-.2,0-.3,0S17.92,19.19,17.92,19Z"/><path d="M27.29,19h2.94c0,.18-.06.27-.26.26q-1.18,0-2.37,0C27.41,19.27,27.31,19.22,27.29,19Z"/><path d="M35.11,6a.67.67,0,0,1,.6-.26h2V6Z"/><path d="M1.11,6V5.71H2c.36,0,.72,0,1.08,0A.63.63,0,0,1,3.66,6Z"/><path d="M11.38,3.76H8.6l.06-.26h2.49C11.35,3.49,11.4,3.58,11.38,3.76Z"/><path d="M20.77,3.76H18c0-.19,0-.26.23-.26H20.5C20.7,3.5,20.79,3.55,20.77,3.76Z"/><path d="M30.17,3.76H27.36l.06-.25H30.1Z"/><path d="M18.1,20v-.24h2.55V20Z"/><path d="M18.11,3V2.79h2.55V3Z"/><path d="M8.73,3V2.79h2.53l0,.23Z"/><path d="M11.27,19.74V20H8.74v-.24Z"/><path d="M30,2.79V3H27.5V2.79Z"/><path d="M27.5,20v-.23H30V20Z"/><path d="M35.12,22.93a.64.64,0,0,1,.6-.26c.65,0,1.3,0,2,0v.25Z"/><path d="M1.11,22.93v-.25H1.6c.5,0,1,0,1.5,0a.66.66,0,0,1,.56.26Z"/><path d="M37.69,22.2H35.91c.08-.17.17-.28.38-.27.46,0,.93,0,1.4,0Z"/><path d="M2.87,22.2H1.11v-.27h.94a2.16,2.16,0,0,0,.36,0A.41.41,0,0,1,2.87,22.2Z"/><path d="M37.69,18.26v.26c-.35,0-.7,0-1,0a.62.62,0,0,1-.58-.27Z"/><path d="M2.71,18.26a.64.64,0,0,1-.62.27c-.32,0-.64,0-1,0v-.26Z"/><path d="M35.91,5.23A.39.39,0,0,1,36.34,5h1.35v.25Z"/><path d="M1.11,5.22V5c.51,0,1,0,1.5,0,.09,0,.17.13.24.23Z"/><path d="M37.69,1.31v.25c-.44,0-.89,0-1.33,0-.1,0-.2-.14-.34-.24Z"/><path d="M2.71,1.31a.55.55,0,0,1-.52.25c-.35,0-.71,0-1.08,0V1.31Z"/><path d="M15.41,18.26a1.12,1.12,0,0,1-1.47,0Z"/><path d="M32.72,18.26h1.45A1.08,1.08,0,0,1,32.72,18.26Z"/><path d="M23.35,18.26H24.8A1.1,1.1,0,0,1,23.35,18.26Z"/><path d="M6.05,18.26a1.14,1.14,0,0,1-1.48,0Z"/><path d="M36.44,4.5a.29.29,0,0,1,.34-.26c.3,0,.59,0,.91,0V4.5Z"/><path d="M37.69,21.2v.25H36.45c0-.17.1-.26.3-.25S37.36,21.2,37.69,21.2Z"/><path d="M1.11,4.5V4.25c.35,0,.69,0,1,0,.08,0,.14.14.24.24Z"/><path d="M1.11,21.45v-.24c.35,0,.69,0,1,0,.08,0,.15.13.22.2l0,0Z"/><path d="M36.6,2h1.09V2.3a8.19,8.19,0,0,1-.86,0C36.76,2.29,36.7,2.16,36.6,2Z"/><path d="M1.11,2.31V2h1c0,.19-.09.3-.3.28S1.35,2.31,1.11,2.31Z"/><path d="M23.34,1.31h1.43A1.11,1.11,0,0,1,23.34,1.31Z"/><path d="M4.54,1.3H6C5.66,1.65,5.18,1.66,4.54,1.3Z"/><path d="M32.74,1.31h1.43A1.1,1.1,0,0,1,32.74,1.31Z"/><path d="M15.41,1.31a1.14,1.14,0,0,1-1.45,0Z"/><path d="M37.69,20.46v.26h-.93c0-.21.07-.28.28-.26Z"/><path d="M1.11,20.46a6,6,0,0,1,.74,0c.07,0,.14.13.21.2l-.05,0h-.9Z"/><path d="M37.69,19v.25c-.29,0-.57,0-.84,0-.08,0-.14-.12-.21-.19l0,0Z"/><path d="M1.11,19.25V19h1l-.1.24Z"/><path d="M37.68,3.76h-.92l0-.24h.88Z"/><path d="M2,3.52,2,3.76H1.11V3.52Z"/><path d="M36.87,3V2.79h.81V3Z"/><path d="M37.69,19.74V20h-.81v-.23Z"/><path d="M1.89,2.79V3H1.12V2.79Z"/><path d="M1.11,20v-.24h.78V20Z"/></g><g class="cls-3"><path d="M12.54,18.39a2.8,2.8,0,0,1,1.51.64c.31.25.3.24.61,0A2.61,2.61,0,0,1,16,18.41a.77.77,0,0,1,.77.38A1.46,1.46,0,0,1,17,20.18,3.66,3.66,0,0,1,15.53,22c-.34.25-.7.46-1,.67a.31.31,0,0,1-.21,0A5.7,5.7,0,0,1,12.12,21a2.6,2.6,0,0,1-.46-1.23,1.25,1.25,0,0,1,.49-1.18A1.29,1.29,0,0,1,12.54,18.39Z"/><path d="M5,2.31a7.91,7.91,0,0,1,.91-.6,2.27,2.27,0,0,1,.9-.26,1.06,1.06,0,0,1,.91,1.08,2.76,2.76,0,0,1-.8,1.9A6,6,0,0,1,5.08,5.76a.26.26,0,0,1-.21,0A5.58,5.58,0,0,1,2.81,4.09a2.65,2.65,0,0,1-.54-1.43,1.4,1.4,0,0,1,.3-.9.8.8,0,0,1,1-.26,8.49,8.49,0,0,1,1.08.56A2.81,2.81,0,0,1,5,2.31Z"/><path d="M33.13,2.33A2.23,2.23,0,0,1,33.51,2a4.86,4.86,0,0,1,.77-.43,1.06,1.06,0,0,1,1.53,1.19,3.18,3.18,0,0,1-1.28,2.11,10.89,10.89,0,0,1-1.27.86.32.32,0,0,1-.25,0,5.75,5.75,0,0,1-2-1.63,2.73,2.73,0,0,1-.55-1.31,1.29,1.29,0,0,1,0-.48A1,1,0,0,1,32,1.59a3.09,3.09,0,0,1,.59.32A6.28,6.28,0,0,1,33.13,2.33Z"/><path d="M30.41,19.54a1.33,1.33,0,0,1,.32-.83.81.81,0,0,1,.93-.27,3,3,0,0,1,1.22.65c.27.22.17.22.49,0a5.16,5.16,0,0,1,1-.58,1,1,0,0,1,1.43,1.15,3.07,3.07,0,0,1-.93,1.87,6.34,6.34,0,0,1-1.66,1.2.26.26,0,0,1-.21,0A5.8,5.8,0,0,1,31,21.05,2.66,2.66,0,0,1,30.41,19.54Z"/><path d="M14.34,2.32c.25-.18.48-.36.71-.51a2.31,2.31,0,0,1,.55-.26,1,1,0,0,1,1.45,1.18,2.91,2.91,0,0,1-.74,1.63,6,6,0,0,1-1.84,1.4.26.26,0,0,1-.21,0A5.7,5.7,0,0,1,12.13,4a2.69,2.69,0,0,1-.47-1.24A1.33,1.33,0,0,1,12,1.67a.78.78,0,0,1,.9-.17,11.7,11.7,0,0,1,1.11.58A1.68,1.68,0,0,1,14.34,2.32Z"/><path d="M23.71,2.31a9.61,9.61,0,0,1,.92-.6,2.34,2.34,0,0,1,.9-.26c.47,0,.9.53.9,1.07a2.79,2.79,0,0,1-.84,1.95,5.8,5.8,0,0,1-1.74,1.29.31.31,0,0,1-.21,0,5.66,5.66,0,0,1-2.1-1.72A2.62,2.62,0,0,1,21,2.69a1.34,1.34,0,0,1,.3-.93.85.85,0,0,1,1-.27,3.22,3.22,0,0,1,1.22.69Z"/><path d="M23.71,19.26a9.72,9.72,0,0,1,.93-.6,3.12,3.12,0,0,1,.84-.25.68.68,0,0,1,.63.28,1.47,1.47,0,0,1,.25,1.4,3.25,3.25,0,0,1-1.15,1.7,16,16,0,0,1-1.35.92.24.24,0,0,1-.2,0,5.45,5.45,0,0,1-2.17-1.81A2.53,2.53,0,0,1,21,19.64a1.38,1.38,0,0,1,.34-1,.85.85,0,0,1,.89-.24,3,3,0,0,1,1.15.6Z"/><path d="M5,19.28a6.86,6.86,0,0,1,.63-.47,4.3,4.3,0,0,1,.82-.37.85.85,0,0,1,1.07.46,1.63,1.63,0,0,1,0,1.46A3.76,3.76,0,0,1,6.19,22a12.32,12.32,0,0,1-1.08.69.23.23,0,0,1-.21,0,5.38,5.38,0,0,1-2.22-1.87,2.54,2.54,0,0,1-.41-1.25,1.4,1.4,0,0,1,.34-.94.76.76,0,0,1,.91-.22A8.36,8.36,0,0,1,4.64,19,2.78,2.78,0,0,1,5,19.28Z"/><path d="M5.49,6.37a1.1,1.1,0,0,1,.76-.26h6.84a1.19,1.19,0,0,1,.76.26Z"/><path d="M14.87,6.36a1.13,1.13,0,0,1,.73-.25h6.84a1,1,0,0,1,.77.24Z"/><path d="M24.25,6.37A1.1,1.1,0,0,1,25,6.11h6.92a1.11,1.11,0,0,1,.68.26Z"/><path d="M13.83,23.32H5.47a1.22,1.22,0,0,1,.63-.25h7A1.07,1.07,0,0,1,13.83,23.32Z"/><path d="M24.25,23.32a1.12,1.12,0,0,1,.68-.25h6.92a1,1,0,0,1,.74.25Z"/><path d="M14.89,23.31a1,1,0,0,1,.69-.24h6.88a1.07,1.07,0,0,1,.74.24Z"/><path d="M25.39,5.64A.65.65,0,0,1,26,5.37h4.92a.67.67,0,0,1,.59.27Z"/><path d="M12.68,5.65H6.62c.14-.15.24-.28.45-.28h5.18c.16,0,.31.13.46.19Z"/><path d="M16,5.64a.69.69,0,0,1,.56-.27h5a.69.69,0,0,1,.56.27Z"/><path d="M6.62,22.59a.69.69,0,0,1,.54-.26q2.5,0,5,0a.61.61,0,0,1,.53.26Z"/><path d="M25.39,22.59a.63.63,0,0,1,.53-.26c1.66,0,3.32,0,5,0a.65.65,0,0,1,.57.26Z"/><path d="M16,22.59a.61.61,0,0,1,.52-.26c1.67,0,3.33,0,5,0a.64.64,0,0,1,.55.26Z"/><path d="M16.8,21.86a.41.41,0,0,1,.43-.27c1.22,0,2.43,0,3.64,0a.42.42,0,0,1,.42.27Z"/><path d="M30.66,21.86H26.21c.1-.25.13-.27.38-.27,1.22,0,2.43,0,3.65,0A.4.4,0,0,1,30.66,21.86Z"/><path d="M11.9,21.86H7.42a.42.42,0,0,1,.41-.27q1.83,0,3.66,0A.4.4,0,0,1,11.9,21.86Z"/><path d="M21.13,17.93a.68.68,0,0,1-.62.26q-1.47,0-2.94,0a.63.63,0,0,1-.61-.26Z"/><path d="M26.33,17.92h4.19c-.14.14-.25.27-.47.27q-1.55,0-3.09,0A.69.69,0,0,1,26.33,17.92Z"/><path d="M7.57,17.92h4.19a.61.61,0,0,1-.48.27q-1.54,0-3.09,0A.67.67,0,0,1,7.57,17.92Z"/><path d="M16.81,4.89a.4.4,0,0,1,.43-.25c1.22,0,2.43,0,3.64,0a.43.43,0,0,1,.41.25Z"/><path d="M26.2,4.89a.37.37,0,0,1,.39-.25q1.83,0,3.66,0a.37.37,0,0,1,.4.25Z"/><path d="M11.9,4.89H7.43a.38.38,0,0,1,.38-.25c1.24,0,2.47,0,3.71,0A.4.4,0,0,1,11.9,4.89Z"/><path d="M17,1h4.19a.65.65,0,0,1-.54.26c-1,0-2.07,0-3.11,0A.62.62,0,0,1,17,1Z"/><path d="M7.58,1h4.18a.69.69,0,0,1-.54.26c-1,0-2.06,0-3.09,0A.58.58,0,0,1,7.58,1Z"/><path d="M30.51,1a.6.6,0,0,1-.58.24c-1,0-2,0-3,0-.24,0-.46,0-.59-.24Z"/><path d="M33.63,6.37a1.11,1.11,0,0,1,.71-.26c1,0,2,0,3,0v.25Z"/><path d="M.77,6.36V6.12H1c.89,0,1.78,0,2.67,0a1.11,1.11,0,0,1,.78.25Z"/><path d="M33.64,23.32a1.06,1.06,0,0,1,.7-.25h3v.25Z"/><path d="M.77,23.31v-.24H3.66a1.09,1.09,0,0,1,.79.24Z"/><path d="M11.14,1.7c0,.21-.12.27-.31.27-.77,0-1.55,0-2.32,0-.2,0-.31-.05-.32-.27Z"/><path d="M17.57,1.69h2.95c0,.19-.09.28-.3.28q-1.17,0-2.34,0C17.67,2,17.58,1.9,17.57,1.69Z"/><path d="M29.9,1.7c0,.21-.1.27-.3.27C28.81,2,28,2,27.25,2,27,2,27,1.88,26.94,1.7Z"/><path d="M17.34,4.17c0-.22.15-.27.34-.27.92,0,1.83,0,2.74,0a.3.3,0,0,1,.34.27Z"/><path d="M26.72,4.16c0-.2.14-.26.34-.26q1.36,0,2.73,0c.2,0,.31.06.34.26Z"/><path d="M8,4.17c0-.19.12-.27.33-.27.91,0,1.83,0,2.75,0,.2,0,.3.07.33.27Z"/><path d="M26.73,21.11c0-.18.11-.25.3-.25.93,0,1.85,0,2.78,0,.18,0,.29.05.32.25Z"/><path d="M17.34,21.11c0-.2.15-.25.33-.25.92,0,1.84,0,2.75,0,.19,0,.29.05.32.25Z"/><path d="M8,21.11a.25.25,0,0,1,.29-.25q1.39,0,2.79,0c.19,0,.29.06.31.25Z"/><path d="M20.44,20.39H17.66c0-.22.06-.28.27-.28.73,0,1.47,0,2.21,0C20.35,20.11,20.45,20.17,20.44,20.39Z"/><path d="M29.81,20.39H27c0-.19,0-.28.25-.28.76,0,1.51,0,2.27,0C29.76,20.11,29.82,20.19,29.81,20.39Z"/><path d="M8.27,20.38c0-.21.09-.27.28-.27.75,0,1.5,0,2.25,0,.2,0,.26.08.24.27Z"/><path d="M11.13,18.67c0,.19-.1.25-.28.25-.78,0-1.57,0-2.35,0-.18,0-.3,0-.31-.25Z"/><path d="M17.58,18.66h3l-.1.26H18.15c-.1,0-.2,0-.3,0S17.58,18.85,17.58,18.66Z"/><path d="M27,18.66h2.94c0,.18-.06.27-.26.26q-1.18,0-2.37,0C27.07,18.93,27,18.88,27,18.66Z"/><path d="M34.77,5.63a.67.67,0,0,1,.6-.26h2v.26Z"/><path d="M.77,5.63V5.37h.91c.36,0,.72,0,1.08,0a.63.63,0,0,1,.56.26Z"/><path d="M11,3.42H8.26l.06-.26h2.49C11,3.15,11.06,3.24,11,3.42Z"/><path d="M20.43,3.42H17.67c0-.19,0-.26.23-.26h2.26C20.36,3.16,20.45,3.21,20.43,3.42Z"/><path d="M29.83,3.42H27l.06-.25h2.68Z"/><path d="M17.76,19.64V19.4h2.55v.24Z"/><path d="M17.77,2.68V2.45h2.55v.23Z"/><path d="M8.39,2.68V2.45h2.53l0,.23Z"/><path d="M10.93,19.4v.24H8.4V19.4Z"/><path d="M29.69,2.45v.23H27.16V2.45Z"/><path d="M27.16,19.63V19.4h2.53v.23Z"/><path d="M34.78,22.59a.64.64,0,0,1,.6-.26c.65,0,1.29,0,2,0v.25Z"/><path d="M.77,22.59v-.25h.49c.5,0,1,0,1.5,0a.63.63,0,0,1,.56.26Z"/><path d="M37.35,21.86H35.57c.08-.17.17-.28.38-.27.46,0,.93,0,1.4,0Z"/><path d="M2.53,21.86H.77v-.27h.94a2.16,2.16,0,0,0,.36,0A.41.41,0,0,1,2.53,21.86Z"/><path d="M37.35,17.92v.26c-.35,0-.7,0-1.05,0a.62.62,0,0,1-.58-.27Z"/><path d="M2.37,17.92a.64.64,0,0,1-.62.27c-.32,0-.64,0-1,0v-.26Z"/><path d="M35.57,4.89A.39.39,0,0,1,36,4.64c.44,0,.88,0,1.35,0v.25Z"/><path d="M.77,4.88V4.64c.51,0,1,0,1.5,0,.09,0,.17.13.24.23Z"/><path d="M37.35,1v.25c-.44,0-.89,0-1.33,0-.1,0-.2-.14-.34-.24Z"/><path d="M2.37,1a.57.57,0,0,1-.52.25c-.35,0-.71,0-1.08,0V1Z"/><path d="M15.07,17.92a1.12,1.12,0,0,1-1.47,0Z"/><path d="M32.38,17.92h1.45A1.09,1.09,0,0,1,32.38,17.92Z"/><path d="M23,17.92h1.45A1.1,1.1,0,0,1,23,17.92Z"/><path d="M5.71,17.92a1.14,1.14,0,0,1-1.48,0Z"/><path d="M36.1,4.16a.29.29,0,0,1,.34-.26c.3,0,.59,0,.91,0v.26Z"/><path d="M37.35,20.86v.25H36.11c0-.17.1-.26.3-.25S37,20.86,37.35,20.86Z"/><path d="M.77,4.16V3.91c.35,0,.69,0,1,0,.08,0,.14.14.24.24Z"/><path d="M.77,21.11v-.25c.35,0,.69,0,1,0,.08,0,.15.13.22.2l0,0Z"/><path d="M36.26,1.7h1.09V2a8.19,8.19,0,0,1-.86,0C36.42,2,36.36,1.82,36.26,1.7Z"/><path d="M.77,2V1.7h1c0,.19-.09.3-.3.28S1,2,.77,2Z"/><path d="M23,1h1.43A1.11,1.11,0,0,1,23,1Z"/><path d="M4.2,1H5.68C5.32,1.31,4.84,1.32,4.2,1Z"/><path d="M32.4,1h1.43A1.1,1.1,0,0,1,32.4,1Z"/><path d="M15.07,1a1.14,1.14,0,0,1-1.45,0Z"/><path d="M37.35,20.12v.26h-.93c0-.21.07-.28.28-.26Z"/><path d="M.77,20.12a6,6,0,0,1,.74,0c.07,0,.14.13.21.2l-.05.05H.77Z"/><path d="M37.35,18.67v.25c-.29,0-.57,0-.84,0-.08,0-.14-.12-.21-.19l0,0Z"/><path d="M.77,18.91v-.24h1l-.1.24Z"/><path d="M37.34,3.42h-.92l0-.24h.88Z"/><path d="M1.63,3.18l.05.23H.77V3.18Z"/><path d="M36.53,2.68V2.45h.81v.23Z"/><path d="M37.35,19.4v.23h-.81V19.4Z"/><path d="M1.55,2.45v.24H.78V2.45Z"/><path d="M.77,19.64V19.4h.78v.24Z"/></g><path class="cls-4" d="M12.74,18.59a2.74,2.74,0,0,1,1.5.64c.32.24.31.24.62,0a2.62,2.62,0,0,1,1.37-.63A.8.8,0,0,1,17,19a1.51,1.51,0,0,1,.15,1.4,3.67,3.67,0,0,1-1.43,1.86c-.33.25-.69.45-1.05.67a.26.26,0,0,1-.21,0,5.49,5.49,0,0,1-2.14-1.77,2.6,2.6,0,0,1-.46-1.23,1.27,1.27,0,0,1,.48-1.18A1.44,1.44,0,0,1,12.74,18.59Z"/><path class="cls-4" d="M5.15,2.51a7.13,7.13,0,0,1,.91-.6A2.27,2.27,0,0,1,7,1.65c.48,0,.9.53.91,1.07a2.8,2.8,0,0,1-.8,1.91A6.15,6.15,0,0,1,5.28,6a.26.26,0,0,1-.21,0A5.69,5.69,0,0,1,3,4.29a2.72,2.72,0,0,1-.53-1.43,1.38,1.38,0,0,1,.3-.9.79.79,0,0,1,1-.26,8.49,8.49,0,0,1,1.08.56A2,2,0,0,1,5.15,2.51Z"/><path class="cls-4" d="M33.33,2.52a2.72,2.72,0,0,1,.38-.31,5.88,5.88,0,0,1,.77-.44A1.06,1.06,0,0,1,36,3a3.2,3.2,0,0,1-1.28,2.12,10.22,10.22,0,0,1-1.28.86.29.29,0,0,1-.24,0,5.66,5.66,0,0,1-2-1.63A2.73,2.73,0,0,1,30.63,3a1.29,1.29,0,0,1,0-.48,1,1,0,0,1,1.52-.75,3.41,3.41,0,0,1,.6.31C33,2.22,33.13,2.37,33.33,2.52Z"/><path class="cls-4" d="M30.61,19.74a1.33,1.33,0,0,1,.32-.83.81.81,0,0,1,.93-.27,3,3,0,0,1,1.22.65c.27.22.17.22.49,0a5.16,5.16,0,0,1,1-.58A1,1,0,0,1,36,19.85a3.13,3.13,0,0,1-.93,1.87,6.08,6.08,0,0,1-1.66,1.19.26.26,0,0,1-.21,0,5.8,5.8,0,0,1-2.07-1.67A2.72,2.72,0,0,1,30.61,19.74Z"/><path class="cls-4" d="M14.54,2.52c.25-.19.47-.36.71-.51a2.81,2.81,0,0,1,.55-.27,1.06,1.06,0,0,1,1.45,1.19,3,3,0,0,1-.74,1.63A6.16,6.16,0,0,1,14.67,6a.31.31,0,0,1-.21,0A5.63,5.63,0,0,1,12.33,4.2,2.61,2.61,0,0,1,11.86,3a1.29,1.29,0,0,1,.38-1.1.78.78,0,0,1,.9-.17c.38.16.74.38,1.11.58A1.68,1.68,0,0,1,14.54,2.52Z"/><path class="cls-4" d="M23.91,2.51a7.91,7.91,0,0,1,.91-.6,2.27,2.27,0,0,1,.9-.26c.48,0,.9.53.91,1.07a2.79,2.79,0,0,1-.84,1.95A6,6,0,0,1,24,6a.23.23,0,0,1-.2,0,5.54,5.54,0,0,1-2.1-1.71,2.6,2.6,0,0,1-.5-1.37,1.28,1.28,0,0,1,.3-.92.83.83,0,0,1,1-.27,3.22,3.22,0,0,1,1.22.69Z"/><path class="cls-4" d="M23.91,19.46c.32-.21.61-.44.93-.61a3.51,3.51,0,0,1,.84-.24.67.67,0,0,1,.63.28,1.47,1.47,0,0,1,.25,1.4A3.31,3.31,0,0,1,25.41,22a16,16,0,0,1-1.35.92.3.3,0,0,1-.21,0,5.59,5.59,0,0,1-2.17-1.81,2.52,2.52,0,0,1-.44-1.28,1.28,1.28,0,0,1,.34-1,.81.81,0,0,1,.89-.24,2.89,2.89,0,0,1,1.15.6Z"/><path class="cls-4" d="M5.16,19.48A7,7,0,0,1,5.8,19a4.3,4.3,0,0,1,.82-.37.85.85,0,0,1,1.07.46,1.63,1.63,0,0,1,0,1.46,3.81,3.81,0,0,1-1.32,1.65,11.14,11.14,0,0,1-1.09.69.21.21,0,0,1-.2,0,5.33,5.33,0,0,1-2.22-1.88,2.48,2.48,0,0,1-.41-1.25,1.37,1.37,0,0,1,.34-.93.77.77,0,0,1,.9-.23,10,10,0,0,1,1.13.57A2.08,2.08,0,0,1,5.16,19.48Z"/><path class="cls-4" d="M5.69,6.57a1.09,1.09,0,0,1,.76-.26q3.42,0,6.84,0a1.21,1.21,0,0,1,.76.26Z"/><path class="cls-4" d="M15.07,6.56a1.13,1.13,0,0,1,.73-.25q3.42,0,6.83,0a1.11,1.11,0,0,1,.78.25Z"/><path class="cls-4" d="M24.45,6.57a1.1,1.1,0,0,1,.76-.26q3.46,0,6.92,0a1.11,1.11,0,0,1,.68.26Z"/><path class="cls-4" d="M14,23.52H5.67a1.14,1.14,0,0,1,.63-.25h7A1,1,0,0,1,14,23.52Z"/><path class="cls-4" d="M24.45,23.52a1.14,1.14,0,0,1,.67-.26h6.93a1.08,1.08,0,0,1,.74.26Z"/><path class="cls-4" d="M15.08,23.51a1.07,1.07,0,0,1,.7-.25h6.88a1,1,0,0,1,.74.24Z"/><path class="cls-4" d="M25.59,5.83a.63.63,0,0,1,.56-.26h4.91a.69.69,0,0,1,.6.26Z"/><path class="cls-4" d="M12.88,5.84H6.82c.14-.14.24-.27.45-.27h5.18a1.29,1.29,0,0,1,.46.19Z"/><path class="cls-4" d="M16.2,5.83a.66.66,0,0,1,.55-.26h5a.69.69,0,0,1,.57.26Z"/><path class="cls-4" d="M6.82,22.79a.66.66,0,0,1,.54-.26h5a.61.61,0,0,1,.53.26Z"/><path class="cls-4" d="M25.59,22.78a.64.64,0,0,1,.53-.25h5a.65.65,0,0,1,.57.25Z"/><path class="cls-4" d="M16.21,22.79a.6.6,0,0,1,.52-.26h5a.64.64,0,0,1,.56.26Z"/><path class="cls-4" d="M17,22.05a.41.41,0,0,1,.43-.26c1.22,0,2.43,0,3.64,0a.4.4,0,0,1,.41.26Z"/><path class="cls-4" d="M30.86,22.06H26.4c.11-.25.14-.27.39-.27,1.21,0,2.43,0,3.65,0A.39.39,0,0,1,30.86,22.06Z"/><path class="cls-4" d="M12.1,22.05H7.62A.41.41,0,0,1,8,21.79q1.83,0,3.66,0A.39.39,0,0,1,12.1,22.05Z"/><path class="cls-4" d="M21.33,18.12a.66.66,0,0,1-.62.27q-1.47,0-2.94,0a.64.64,0,0,1-.61-.27Z"/><path class="cls-4" d="M26.53,18.12h4.19c-.14.14-.25.27-.47.27-1,0-2.06,0-3.09,0A.69.69,0,0,1,26.53,18.12Z"/><path class="cls-4" d="M7.77,18.11H12a.61.61,0,0,1-.48.28c-1,0-2.06,0-3.09,0A.65.65,0,0,1,7.77,18.11Z"/><path class="cls-4" d="M17,5.09a.4.4,0,0,1,.43-.25h3.64a.41.41,0,0,1,.41.25Z"/><path class="cls-4" d="M26.4,5.09a.35.35,0,0,1,.39-.25h3.66a.37.37,0,0,1,.4.25Z"/><path class="cls-4" d="M12.1,5.09H7.63A.35.35,0,0,1,8,4.84h3.71C11.91,4.83,12,4.92,12.1,5.09Z"/><path class="cls-4" d="M17.15,1.17h4.18a.61.61,0,0,1-.53.25c-1,0-2.07,0-3.11,0A.61.61,0,0,1,17.15,1.17Z"/><path class="cls-4" d="M7.78,1.17H12a.65.65,0,0,1-.54.25q-1.54,0-3.09,0A.58.58,0,0,1,7.78,1.17Z"/><path class="cls-4" d="M30.7,1.17a.59.59,0,0,1-.57.25c-1,0-2,0-3,0-.23,0-.45,0-.58-.25Z"/><path class="cls-4" d="M33.83,6.56a1.16,1.16,0,0,1,.71-.25c1,0,2,0,3,0l0,.24Z"/><path class="cls-4" d="M1,6.56V6.32H1.2c.89,0,1.78,0,2.67,0a1.13,1.13,0,0,1,.78.25Z"/><path class="cls-4" d="M33.84,23.52a1.1,1.1,0,0,1,.7-.26c1,0,2,0,3,0l0,.25Z"/><path class="cls-4" d="M1,23.51v-.24H1.2c.89,0,1.78,0,2.66,0a1.13,1.13,0,0,1,.78.25Z"/><path class="cls-4" d="M11.33,1.9c0,.21-.11.27-.3.27H8.71c-.2,0-.31,0-.32-.27Z"/><path class="cls-4" d="M17.77,1.89h2.95c0,.19-.09.28-.3.28H18.07C17.86,2.17,17.78,2.1,17.77,1.89Z"/><path class="cls-4" d="M30.1,1.9c0,.2-.11.27-.3.27-.79,0-1.57,0-2.35,0-.21,0-.27-.09-.31-.27Z"/><path class="cls-4" d="M17.54,4.36c0-.21.15-.26.34-.26.91,0,1.82,0,2.74,0a.3.3,0,0,1,.34.26Z"/><path class="cls-4" d="M26.92,4.36c0-.2.14-.26.34-.26q1.36,0,2.73,0c.19,0,.31.05.34.26Z"/><path class="cls-4" d="M8.15,4.37a.28.28,0,0,1,.33-.27q1.38,0,2.76,0a.28.28,0,0,1,.33.27Z"/><path class="cls-4" d="M26.92,21.31c0-.18.11-.25.31-.25.93,0,1.85,0,2.77,0,.19,0,.3.05.32.25Z"/><path class="cls-4" d="M17.54,21.31c0-.2.15-.25.33-.25.92,0,1.84,0,2.75,0,.19,0,.29.05.32.25Z"/><path class="cls-4" d="M8.16,21.31a.26.26,0,0,1,.3-.25q1.39,0,2.79,0c.19,0,.28.06.31.25Z"/><path class="cls-4" d="M20.63,20.58H17.86c0-.21.06-.27.26-.27q1.11,0,2.22,0C20.55,20.31,20.64,20.37,20.63,20.58Z"/><path class="cls-4" d="M30,20.59H27.24c0-.19,0-.28.25-.28.75,0,1.51,0,2.27,0C30,20.31,30,20.39,30,20.59Z"/><path class="cls-4" d="M8.47,20.58c0-.22.09-.27.28-.27q1.13,0,2.25,0c.2,0,.26.08.24.27Z"/><path class="cls-4" d="M11.33,18.87c0,.19-.1.25-.28.25-.79,0-1.57,0-2.35,0-.18,0-.3,0-.31-.25Z"/><path class="cls-4" d="M17.77,18.86h3l-.1.26H18.35c-.1,0-.2,0-.3,0S17.78,19.05,17.77,18.86Z"/><path class="cls-4" d="M27.15,18.86h2.94c0,.18-.07.26-.27.26-.78,0-1.57,0-2.36,0C27.27,19.12,27.16,19.07,27.15,18.86Z"/><path class="cls-4" d="M35,5.83a.67.67,0,0,1,.6-.26h2v.26Z"/><path class="cls-4" d="M1,5.83V5.57h.91c.36,0,.72,0,1.08,0a.63.63,0,0,1,.56.26Z"/><path class="cls-4" d="M11.24,3.62H8.46l.06-.26h1.4c.36,0,.73,0,1.09,0C11.21,3.35,11.26,3.44,11.24,3.62Z"/><path class="cls-4" d="M20.63,3.62H17.87c0-.19,0-.27.22-.26.76,0,1.51,0,2.27,0C20.55,3.35,20.65,3.4,20.63,3.62Z"/><path class="cls-4" d="M30,3.62H27.22l.06-.25H30Z"/><path class="cls-4" d="M18,19.84V19.6h2.54v.24Z"/><path class="cls-4" d="M18,2.88V2.65h2.55v.23Z"/><path class="cls-4" d="M8.59,2.88V2.65h2.53l0,.23Z"/><path class="cls-4" d="M11.13,19.6v.24H8.6V19.6Z"/><path class="cls-4" d="M29.89,2.65v.23H27.36V2.65Z"/><path class="cls-4" d="M27.36,19.83V19.6h2.53v.23Z"/><path class="cls-4" d="M35,22.78a.64.64,0,0,1,.6-.25h2v.24Z"/><path class="cls-4" d="M1,22.79v-.25h.49c.5,0,1,0,1.5,0a.64.64,0,0,1,.56.26Z"/><path class="cls-4" d="M37.55,22.06H35.77c.08-.17.17-.28.38-.27.46,0,.92,0,1.4,0Z"/><path class="cls-4" d="M2.72,22.06H1v-.27h.94c.12,0,.24,0,.36,0A.39.39,0,0,1,2.72,22.06Z"/><path class="cls-4" d="M37.55,18.12v.26c-.35,0-.7,0-1,0a.64.64,0,0,1-.59-.27Z"/><path class="cls-4" d="M2.57,18.12a.64.64,0,0,1-.62.27c-.32,0-.65,0-1,0v-.26Z"/><path class="cls-4" d="M35.77,5.09a.39.39,0,0,1,.43-.25h1.34l0,.25Z"/><path class="cls-4" d="M1,5.08V4.84c.51,0,1,0,1.5,0,.09,0,.17.13.24.23Z"/><path class="cls-4" d="M37.55,1.17v.24c-.45,0-.89,0-1.33,0-.1,0-.2-.13-.34-.23Z"/><path class="cls-4" d="M2.57,1.17A.59.59,0,0,1,2,1.42c-.35,0-.7,0-1.07,0V1.17Z"/><path class="cls-4" d="M15.27,18.12a1.12,1.12,0,0,1-1.47,0Z"/><path class="cls-4" d="M32.58,18.12H34A1.11,1.11,0,0,1,32.58,18.12Z"/><path class="cls-4" d="M23.2,18.12h1.45A1.1,1.1,0,0,1,23.2,18.12Z"/><path class="cls-4" d="M5.91,18.12a1.14,1.14,0,0,1-1.48,0Z"/><path class="cls-4" d="M36.3,4.36c0-.21.15-.27.34-.26s.59,0,.91,0v.26Z"/><path class="cls-4" d="M37.55,21.06v.25H36.31c0-.17.09-.26.29-.25S37.22,21.06,37.55,21.06Z"/><path class="cls-4" d="M1,4.36V4.11c.35,0,.69,0,1,0,.08,0,.14.14.24.24Z"/><path class="cls-4" d="M1,21.31v-.25c.35,0,.68,0,1,0,.08,0,.14.13.22.2l0,0Z"/><path class="cls-4" d="M36.46,1.9h1.09v.26a8.19,8.19,0,0,1-.86,0C36.62,2.15,36.56,2,36.46,1.9Z"/><path class="cls-4" d="M1,2.16V1.9H2c0,.19-.09.3-.31.28S1.21,2.16,1,2.16Z"/><path class="cls-4" d="M23.2,1.17h1.43A1.11,1.11,0,0,1,23.2,1.17Z"/><path class="cls-4" d="M4.4,1.16H5.88C5.52,1.51,5,1.52,4.4,1.16Z"/><path class="cls-4" d="M32.6,1.17H34A1.12,1.12,0,0,1,32.6,1.17Z"/><path class="cls-4" d="M15.27,1.17a1.14,1.14,0,0,1-1.45,0Z"/><path class="cls-4" d="M37.55,20.32v.26h-.93c0-.21.07-.28.28-.27S37.31,20.32,37.55,20.32Z"/><path class="cls-4" d="M1,20.32a5.84,5.84,0,0,1,.73,0c.08,0,.15.13.22.2l0,0H1Z"/><path class="cls-4" d="M37.55,18.87v.25c-.29,0-.57,0-.85,0-.07,0-.13-.12-.2-.19l0-.05Z"/><path class="cls-4" d="M1,19.11v-.24H2l-.1.24Z"/><path class="cls-4" d="M37.54,3.62h-.93l0-.25h.88Z"/><path class="cls-4" d="M1.83,3.37l0,.24H1V3.37Z"/><path class="cls-4" d="M36.73,2.88V2.65h.81v.23Z"/><path class="cls-4" d="M37.55,19.6v.23h-.81V19.6Z"/><path class="cls-4" d="M1.75,2.65v.23H1V2.65Z"/><path class="cls-4" d="M1,19.84V19.6h.78v.24Z"/></g></g></svg>