<svg xmlns="http://www.w3.org/2000/svg" viewBox="0 0 38.55 24.66"><defs><style>.cls-1{isolation:isolate;}.cls-2{opacity:0.15;}.cls-2,.cls-3{mix-blend-mode:multiply;}.cls-4{fill:#fff;}</style></defs><title>convert-CUSTOMIZE-SVG-03</title><g class="cls-1"><g id="Layer_1" data-name="Layer 1"><g class="cls-2"><path d="M5,3.39A3.22,3.22,0,0,0,5.61,2c0-.07,0-.17-.09-.24A1.2,1.2,0,0,1,5.32.59.31.31,0,0,1,5.65.36c.65,0,1.3,0,1.95,0A.33.33,0,0,1,8,.64c0,.18,0,.37.07.53l.82-.1V.39H9.4c0,.28,0,.57.08.85a.34.34,0,0,0,.5.23,3.32,3.32,0,0,1,.93-.36,1.24,1.24,0,0,1,1.34,1.32A2.57,2.57,0,0,1,11.6,4l-.13.15v.06a11,11,0,0,0,.94.64c.33.19.69.33,1.05.5A7.92,7.92,0,0,0,16.7,2.65,3.52,3.52,0,0,0,17.31.39h.58l-.11,1.25a2.07,2.07,0,0,1,1.33.44l1.12-.5A1.91,1.91,0,0,0,20,.37a4,4,0,0,1,.5,0,.19.19,0,0,1,.14.12c.07.25.12.51.18.79a1.19,1.19,0,0,1,1-.65l0-.26h.52s0,0,0,0c0,.3.21.39.42.53a.51.51,0,0,0,.65,0,1.56,1.56,0,0,1,1-.28A1.28,1.28,0,0,1,25.53,1.9a2.47,2.47,0,0,1-.67,1.71l-.17.19c.32.2.62.4.94.59.65.38.65.38,1.31,0l.27-.16a1.16,1.16,0,0,0,.59-.67,1.09,1.09,0,0,1,1.12-.8c.07,0,.14-.06.23-.1A4.49,4.49,0,0,1,28.39.38h.53c0,.18,0,.36.08.53a4.38,4.38,0,0,0,1.17,2.15.21.21,0,0,0,.19,0c.27-.1.53-.22.8-.34A2.67,2.67,0,0,1,31,2.5a1.23,1.23,0,0,1-.26-.92A.76.76,0,0,1,31.91,1a.39.39,0,0,0,.39,0,.8.8,0,0,1,1.16.32c0-.07,0-.14,0-.22V.9c0-.46.06-.53.52-.53h.16s0,0,0,0a1.19,1.19,0,0,0,.05,1.26,3.49,3.49,0,0,0,1.6,1.46.17.17,0,0,0,.17,0A3.76,3.76,0,0,0,37.4,1.92a1.81,1.81,0,0,0,.34-1,.46.46,0,0,1,.28.4,1.48,1.48,0,0,1-.48,1.33l-.06.09c.58.14.58.14.53.67a6.73,6.73,0,0,0-.88-.09,1.84,1.84,0,0,0-.68.2,5.69,5.69,0,0,0-1.21.66A10.55,10.55,0,0,1,33.16,5.5a.5.5,0,0,1-.54,0c-.13-.08-.27-.14-.38-.2-.27.29-.53.57-.81.84s-.25.23-.1.53.21.36.32.57H31.1a.28.28,0,0,1-.14-.1l-.25-.47a3.29,3.29,0,0,1-.42.21.52.52,0,0,1-.35,0c-.42-.23-.81-.48-1.23-.73a1.47,1.47,0,0,1-.86,1.06,1.57,1.57,0,0,1-1.07,0,1.31,1.31,0,0,1-.62-1.89l-.28-.14c-.48-.29-1-.58-1.44-.88a.24.24,0,0,0-.32,0c-.26.18-.55.34-.83.5a.32.32,0,0,1-.39,0l-1.34-.92-.11-.1a4.27,4.27,0,0,1-2.1,2,.38.38,0,0,1-.4,0,1.55,1.55,0,0,0-.22-.12c-.45-.24-.45-.25-.84.11a.93.93,0,0,1,.55,1.35.2.2,0,0,1-.23.15h-.49c.09-.17.18-.32.25-.48a.31.31,0,0,0-.08-.4.44.44,0,0,0-.35,0,2.33,2.33,0,0,0-.38.26,4.43,4.43,0,0,0-.46-.29c-.08,0-.23-.06-.27,0a.42.42,0,0,0-.11.31,4,4,0,0,0,.24.58,5.32,5.32,0,0,1-.56,0s-.11-.07-.12-.12c-.06-.24-.11-.48-.17-.77l-1.27-.81c-.11-.07-.73.31-.73.44a1.55,1.55,0,0,1-.59,1.15.56.56,0,0,1-.3.12h-1a.59.59,0,0,1-.26-.1,1.57,1.57,0,0,1-.61-1c-.33.1-.56.54-1,.25-.1.24-.2.46-.28.68a.26.26,0,0,1-.32.19H9l.42-1a.27.27,0,0,0-.08-.36A1.44,1.44,0,0,1,8.8,4.82a.23.23,0,0,0-.08-.16,4.11,4.11,0,0,1-1-1.07.29.29,0,0,0-.25-.06,4.67,4.67,0,0,0-1.57.84l-.3.25-.46-.37c-.51.44-1,.9-1.51,1.29s-1.11.71-1.69,1.07l.31.63a4.77,4.77,0,0,1-.54,0,.17.17,0,0,1-.13-.1,1.36,1.36,0,0,1-.17-.39.67.67,0,0,0-.46-.5L.81,6.17a.67.67,0,0,1-.45-.93l.3.2L1.6,6a.31.31,0,0,0,.23,0A8.73,8.73,0,0,0,4.48,4.06a.2.2,0,0,0,0-.09Zm25.11.54a1,1,0,0,0-.23-.18c-.29-.15-.58-.31-.88-.43a.47.47,0,0,0-.54.2.92.92,0,0,0-.21.69,1.9,1.9,0,0,0,.38,1A3.84,3.84,0,0,0,30,6.3a.27.27,0,0,0,.23,0,4.12,4.12,0,0,0,1.22-.93,2.08,2.08,0,0,0,.5-.92.91.91,0,0,0-.28-1c-.3-.24-.62-.09-.91.07A7.66,7.66,0,0,0,30.09,3.93Zm-7-2.13a6.57,6.57,0,0,0-.75-.46,1.12,1.12,0,0,0-.56-.13.77.77,0,0,0-.57,1,2.85,2.85,0,0,0,.34.83A3.59,3.59,0,0,0,23,4.19a.31.31,0,0,0,.23,0,10.78,10.78,0,0,0,.95-.67A2.14,2.14,0,0,0,25,2.2a.9.9,0,0,0-.31-.9.75.75,0,0,0-.8,0l-.1,0Zm-4,1c-.11-.08-.23-.19-.36-.28a3.88,3.88,0,0,0-.45-.24A.71.71,0,0,0,17.27,3a1.79,1.79,0,0,0,.38,1A4.11,4.11,0,0,0,19,5.15a.27.27,0,0,0,.33,0c.3-.21.62-.41.91-.64a2.42,2.42,0,0,0,.71-1,.56.56,0,0,0,0-.52,1.83,1.83,0,0,1-.18-.46c-.09-.31-.15-.37-.49-.32a1.18,1.18,0,0,0-.36.12ZM9.06,4.23a.85.85,0,0,1,1-.06c.07,0,.14.08.2.07a2,2,0,0,0,.6-.24,2.07,2.07,0,0,0,.87-1.6.69.69,0,0,0-1-.69,5,5,0,0,0-.71.41c-.06,0-.12.1-.18.15-.14-.11-.27-.22-.41-.31a3,3,0,0,0-.47-.25.72.72,0,0,0-1,.8A2.51,2.51,0,0,0,9.06,4.23Zm23.23-.94a1.59,1.59,0,0,1,.17,1.39.14.14,0,0,0,0,.11.55.55,0,0,0,.58.14c.47-.28,1-.56,1.4-.86.26-.17.5-.39.73-.57-.34-.29-.69-.54-1-.84a11.89,11.89,0,0,1-.7-1C33.46,2.32,33.35,2.48,32.29,3.29ZM16.8,3.56,14.94,5.21l.78.48a.56.56,0,0,0,.64.1c.06,0,.16,0,.24,0a1.11,1.11,0,0,0,.19,0l1.1-.68A3.22,3.22,0,0,1,16.8,3.56ZM7.37,2.16l-.52.31a.36.36,0,0,1-.43,0,1.76,1.76,0,0,0-.27-.14L5.45,3.8l.12.08s0,0,0,0l0,0L7.42,2.9ZM32.1,1.78a2.87,2.87,0,0,0-.43-.28c-.09,0-.25-.06-.3,0a.39.39,0,0,0-.09.33,1.24,1.24,0,0,0,.27.49c.43.49.71.49,1.13,0a1.36,1.36,0,0,0,.26-.54c.05-.27-.14-.4-.39-.27A4.82,4.82,0,0,0,32.1,1.78ZM10.2,4.94a2.41,2.41,0,0,0-.41-.27c-.1,0-.28-.07-.32,0A.4.4,0,0,0,9.38,5a1.6,1.6,0,0,0,.34.54c.5.44.45.44,1,0A1.61,1.61,0,0,0,11,5a.41.41,0,0,0-.1-.32.34.34,0,0,0-.28,0A4.3,4.3,0,0,0,10.2,4.94ZM27.33,6a4.68,4.68,0,0,0-.4-.27c-.1,0-.26-.08-.31,0a.36.36,0,0,0-.1.33,1.64,1.64,0,0,0,.37.61c.49.41.4.4.9,0a.93.93,0,0,0,.39-.65c0-.27-.14-.39-.38-.28S27.49,5.85,27.33,6Zm-15,.11a5.81,5.81,0,0,0-.51-.31.21.21,0,0,0-.33.19.53.53,0,0,0,.06.33,1.8,1.8,0,0,0,.41.5c.4.31.31.32.74,0a1,1,0,0,0,.45-.66.46.46,0,0,0-.1-.34s-.21,0-.3,0A3.74,3.74,0,0,0,12.31,6.06ZM6.64,1a3.12,3.12,0,0,0-.4-.27c-.1,0-.28-.08-.32,0a.43.43,0,0,0-.1.37,1.88,1.88,0,0,0,.43.61c.41.35.35.34.78,0A1,1,0,0,0,7.47,1a.4.4,0,0,0-.1-.32s-.2,0-.29,0S6.79.91,6.64,1ZM27.72,4.56l-.83.49c.26.16.5.28.77.07a1.25,1.25,0,0,1,.23-.07Z"/><path d="M5,19.53a3.35,3.35,0,0,0,.64-1.41c0-.06,0-.14-.07-.21s-.18-.31-.29-.52a4.07,4.07,0,0,1,.51,0c.06,0,.12.06.16.1.2.17.38.36.58.52a.3.3,0,0,0,.26,0c.2-.16.38-.35.58-.52a.36.36,0,0,1,.18-.1c.55,0,1.09,0,1.63,0,.25,0,.37.16.55.25a.26.26,0,0,0,.21,0,1.25,1.25,0,0,1,.86-.23,4.73,4.73,0,0,0,.65,0,.54.54,0,0,1,.46.22,1.57,1.57,0,0,1,.27,1.53,3,3,0,0,1-.73,1.22l.14.08,1.65,1a.28.28,0,0,0,.25,0,8.19,8.19,0,0,0,3-2.43,4.16,4.16,0,0,0,.7-1.47c0-.15.09-.21.24-.19s.22,0,.35,0l-.06.38a2.1,2.1,0,0,1,1.36.44l1.12-.5,0-.3h1.28a1.14,1.14,0,0,0-.12,1.47,2,2,0,0,0,.41.57c.37.31.77.58,1.16.87a.26.26,0,0,0,.21,0,3.79,3.79,0,0,0,1.45-1.21,2.77,2.77,0,0,0,.26-.55,1,1,0,0,0-.28-1.17h.66s.09.08.11.13a1.56,1.56,0,0,1,0,1.35,12.08,12.08,0,0,1-.65,1.1l1.48.84a.24.24,0,0,0,.2,0l1.15-.67A.45.45,0,0,0,27.7,20,1.24,1.24,0,0,1,29,18.9c.15,0,.18-.1.11-.25-.17-.34-.32-.7-.48-1a.8.8,0,0,1-.06-.2,3.41,3.41,0,0,1,.46,0,.2.2,0,0,1,.15.13,5,5,0,0,0,1,1.63.17.17,0,0,0,.25,0c.25-.12.51-.22.78-.34-.05-.07-.13-.15-.19-.25a1.18,1.18,0,0,1-.21-1.06A.2.2,0,0,1,31,17.4c.74,0,1.49,0,2.24,0a3.31,3.31,0,0,1,.77,0,3.24,3.24,0,0,0,1.71,1.83.27.27,0,0,0,.23,0,3.59,3.59,0,0,0,1.55-1.36c.09-.16.15-.33.23-.51H38a1.33,1.33,0,0,1-.51,1.43c.19.07.43.08.51.2s0,.35,0,.5a4,4,0,0,0-.83-.1,2.07,2.07,0,0,0-.77.22,5.18,5.18,0,0,0-1.16.62,10,10,0,0,1-2.11,1.36.49.49,0,0,1-.53,0c-.13-.08-.28-.14-.37-.19-.34.33-.66.65-1,1a.26.26,0,0,0,0,.23,5,5,0,0,0,1,1.42l.18.19h-.7s-.11-.06-.14-.11c-.31-.43-.6-.87-.91-1.32a.41.41,0,0,0-.11.06.7.7,0,0,1-.92,0c-.3-.21-.61-.4-.92-.6a2.14,2.14,0,0,1-1.22,1.31.35.35,0,0,1-.24,0A2.18,2.18,0,0,1,26,22.44a1,1,0,0,1,.14-1c-.2-.1-.4-.19-.58-.3-.39-.24-.77-.47-1.14-.73a.24.24,0,0,0-.31,0c-.28.18-.57.34-.85.51a.32.32,0,0,1-.36,0l-1.18-.71a2.51,2.51,0,0,1,.27.49.86.86,0,0,0,.69.68c.19,0,.36.25.54.26s.34-.19.51-.27a1.22,1.22,0,0,1,1.84.76,1.59,1.59,0,0,1,0,.89A2.71,2.71,0,0,1,25,24.17a.26.26,0,0,1-.19.09h-.69l.2-.19a2.39,2.39,0,0,0,.82-1.35,1,1,0,0,0-.19-.76.48.48,0,0,0-.57-.21,9.79,9.79,0,0,0-.92.45,1.35,1.35,0,0,0-.19.16,4.13,4.13,0,0,0-.42-.31,2.52,2.52,0,0,0-.49-.25.68.68,0,0,0-1,.68A2,2,0,0,0,22,23.88c.12.13.24.24.38.37H20.79c.09-.13.17-.26.27-.38a.24.24,0,0,0,0-.29,2,2,0,0,1-.25-1.34,1.34,1.34,0,0,1,.86-1l-.48-.84-.3.36a4.71,4.71,0,0,1-1.62,1.17.32.32,0,0,1-.27,0c-.47-.28-.94-.59-1.4-.89s-.7-.47-1.07-.68-.27-.15-.48.09c.16.25.34.49.48.76a2.92,2.92,0,0,1,0,2.53c-.28.71-.1.54-.87.55l.11-.2a3.55,3.55,0,0,0,.49-1.8,2.12,2.12,0,0,0-.65-1.46,3.79,3.79,0,0,1-.35.25l-1.7,1a.33.33,0,0,1-.37,0c-.53-.3-1.06-.58-1.59-.87,0,.09-.07.22-.13.34a2.28,2.28,0,0,1-1.19,1.06.35.35,0,0,1-.26,0,2.05,2.05,0,0,1-1.23-1.5C8,22.2,8.42,23.22,9,24.25H8.29c0-.08,0-.16-.07-.23a4.49,4.49,0,0,1-.39-1.42,2.7,2.7,0,0,1,.6-2C8.18,20.31,8,20,7.7,19.7a.28.28,0,0,0-.22,0,4.44,4.44,0,0,0-1.58.83l-.31.25-.5-.4a9.79,9.79,0,0,1-3.2,2.37c.17.28.31.56.48.81s.36.48.57.74c-.23,0-.43,0-.63,0s-.13-.07-.18-.12a5.45,5.45,0,0,1-.81-1.43.43.43,0,0,0-.2-.22,4.77,4.77,0,0,0-.62-.36.29.29,0,0,1-.17-.32c0-.13,0-.27,0-.45a2.86,2.86,0,0,0,.3.19l1,.56a.23.23,0,0,0,.21,0A8.73,8.73,0,0,0,4.48,20.2a.2.2,0,0,0,0-.09Zm25.09.52a1.05,1.05,0,0,0-.22-.17,8.72,8.72,0,0,0-.87-.42.45.45,0,0,0-.51.17.89.89,0,0,0-.24.72,1.8,1.8,0,0,0,.34.89A3.86,3.86,0,0,0,30,22.45a.26.26,0,0,0,.21,0,4.23,4.23,0,0,0,1.23-1,2,2,0,0,0,.53-1.2.7.7,0,0,0-1-.76A8.68,8.68,0,0,0,30.07,20.05ZM19.14,18.93c-.13-.09-.25-.2-.39-.29a2.38,2.38,0,0,0-.45-.23.66.66,0,0,0-1,.5,1.29,1.29,0,0,0,0,.48,2.35,2.35,0,0,0,1.09,1.5c.88.61.63.6,1.51,0a3,3,0,0,0,.33-.27,2.58,2.58,0,0,0,.71-1,.54.54,0,0,0,0-.52,1.92,1.92,0,0,1-.18-.45c-.09-.32-.17-.39-.5-.32a1.37,1.37,0,0,0-.44.16C19.58,18.63,19.37,18.78,19.14,18.93Zm-9.31-.56A8,8,0,0,0,9,17.86a.72.72,0,0,0-1,.8,2.51,2.51,0,0,0,1.13,1.71.84.84,0,0,1,1,0s.12.06.16.05a2.2,2.2,0,0,0,.63-.26,2.18,2.18,0,0,0,.82-1.25.92.92,0,0,0-.29-1,.75.75,0,0,0-.89.06A6.19,6.19,0,0,0,9.83,18.37Zm22.45,1.05a1.55,1.55,0,0,1,.18,1.38.17.17,0,0,0,0,.12.64.64,0,0,0,.56.17c.58-.36,1.15-.73,1.72-1.1a4,4,0,0,0,.46-.39,3.85,3.85,0,0,1-1.69-1.89C33.47,18.48,33.25,18.77,32.28,19.42ZM7.37,18.28c-.38.27-.76.64-1.21.17l-.71,1.49.13.08s0,0,0,0l0,0L7.42,19Zm24.73-.37c-.15-.09-.29-.21-.44-.28a.37.37,0,0,0-.29,0,.44.44,0,0,0-.1.32,1.41,1.41,0,0,0,.28.51c.43.49.71.49,1.12,0a1.35,1.35,0,0,0,.27-.58c0-.23-.15-.35-.36-.24S32.27,17.81,32.1,17.91ZM10.2,21.08a2.44,2.44,0,0,0-.43-.28c-.09,0-.25-.07-.3,0a.43.43,0,0,0-.1.34,1.14,1.14,0,0,0,.29.5c.55.52.52.52,1.08,0a1.4,1.4,0,0,0,.29-.52.38.38,0,0,0-.09-.32.37.37,0,0,0-.31,0A3.49,3.49,0,0,0,10.2,21.08Zm17.13,1a2.22,2.22,0,0,0-.35-.25c-.12-.05-.33-.09-.38,0a.45.45,0,0,0-.07.4,1.91,1.91,0,0,0,.43.58c.41.34.33.32.76,0a1,1,0,0,0,.44-.67.42.42,0,0,0-.1-.33c0-.05-.21,0-.3,0A3.49,3.49,0,0,0,27.33,22.1Zm.39-1.4-.81.48c.32.35.65.13,1,0Z"/><path d="M5,3.39,4.53,4a11.58,11.58,0,0,1-1,.74c-.76.44-.54.43-1.3,0A4,4,0,0,1,.87,3.47,2.05,2.05,0,0,1,.5,1.83,1.2,1.2,0,0,1,2.2,1c.2.08.37.2.57.28a.33.33,0,0,0,.24,0A6.61,6.61,0,0,1,3.94.88,1,1,0,0,1,5,1.3,1.68,1.68,0,0,1,5.14,3,3.73,3.73,0,0,1,5,3.39ZM2.85,2a1.41,1.41,0,0,0-.17-.14c-.29-.15-.59-.32-.89-.45a.47.47,0,0,0-.51.13A.92.92,0,0,0,1,2.19a1.75,1.75,0,0,0,.33,1A3.83,3.83,0,0,0,2.79,4.39a.26.26,0,0,0,.21,0,4,4,0,0,0,1.3-1,1.75,1.75,0,0,0,.47-1.19.68.68,0,0,0-1-.69A8,8,0,0,0,2.85,2Z"/><path d="M5,19.53l-.45.58a11.58,11.58,0,0,1-1,.74c-.76.44-.54.43-1.3,0A3.86,3.86,0,0,1,.9,19.65,2.27,2.27,0,0,1,.46,18.3a1,1,0,0,1,0-.35c.14-.5.21-.55.72-.55H4.8a.3.3,0,0,1,.31.18,1.74,1.74,0,0,1,0,1.7A2.72,2.72,0,0,1,5,19.53ZM2.85,18.14A.63.63,0,0,0,2.68,18a7.16,7.16,0,0,0-.87-.45.47.47,0,0,0-.61.22,1.09,1.09,0,0,0-.18.58,2.33,2.33,0,0,0,.29.89,3.42,3.42,0,0,0,1.5,1.29.21.21,0,0,0,.19,0,4.29,4.29,0,0,0,1.3-1,1.9,1.9,0,0,0,.47-1.2.68.68,0,0,0-1-.69A8.88,8.88,0,0,0,2.85,18.14Z"/><path d="M23.23,6.22l-.45-.33-.32-.17c-.27-.11-.55-.22-.81,0a.86.86,0,0,0-.29.9,6.14,6.14,0,0,0,.19.62h-.49s-.11,0-.12-.09a1.64,1.64,0,0,1,.14-1.63,1.1,1.1,0,0,1,1.25-.42,2.62,2.62,0,0,1,.62.26.41.41,0,0,0,.54,0,1.53,1.53,0,0,1,1.05-.31,1.32,1.32,0,0,1,1.11,1.53s0,.06,0,.08c-.15.7-.05.57-.72.56.06-.22.14-.44.18-.66a.79.79,0,0,0-.54-1A1.48,1.48,0,0,0,24,5.7a2.22,2.22,0,0,0-.43.23C23.47,6,23.35,6.13,23.23,6.22Z"/><path d="M22.3,17.4h1.59l-.79.54Z"/><path d="M35.86.77,35.37.39h1Z"/><path d="M2.1.39,1.74.68,1.38.39Z"/><path d="M5.18,3.59a3.27,3.27,0,0,0,.63-1.41c0-.07,0-.17-.09-.24A1.21,1.21,0,0,1,5.52.78.3.3,0,0,1,5.85.56q1,0,2,0a.34.34,0,0,1,.38.28c0,.18.05.37.07.53l.82-.1V.58h.52c0,.29,0,.58.08.86a.35.35,0,0,0,.51.22,3.29,3.29,0,0,1,.93-.35,1.23,1.23,0,0,1,1.34,1.32,2.57,2.57,0,0,1-.65,1.59l-.13.15v.06c.3.21.6.45.93.64s.69.33,1.06.5A7.92,7.92,0,0,0,16.9,2.85,3.58,3.58,0,0,0,17.51.59h.58L18,1.84a2.07,2.07,0,0,1,1.33.44l1.12-.5A1.91,1.91,0,0,0,20.22.57a4,4,0,0,1,.5,0,.19.19,0,0,1,.14.12c.07.25.12.51.18.79a1.19,1.19,0,0,1,1-.65V.58h.52s0,0,0,0c0,.29.21.39.42.52a.51.51,0,0,0,.65,0,1.56,1.56,0,0,1,1-.28A1.28,1.28,0,0,1,25.73,2.1a2.47,2.47,0,0,1-.67,1.71L24.89,4c.32.21.62.41.93.59.66.39.66.39,1.32,0l.27-.16A1.16,1.16,0,0,0,28,3.76,1.1,1.1,0,0,1,29.11,3a.65.65,0,0,0,.24-.09A4.51,4.51,0,0,1,28.58.58h.53l.09.53a4.38,4.38,0,0,0,1.17,2.15.24.24,0,0,0,.19,0c.26-.1.53-.22.8-.34a3,3,0,0,1-.18-.24,1.2,1.2,0,0,1-.26-.91.77.77,0,0,1,1.19-.58.37.37,0,0,0,.39,0,.8.8,0,0,1,1.15.33l0-.22c0-.07,0-.14,0-.21,0-.46.07-.53.53-.53h.16s0,0,0,.05a1.21,1.21,0,0,0,0,1.26A3.59,3.59,0,0,0,36,3.34a.19.19,0,0,0,.18,0A3.83,3.83,0,0,0,37.6,2.12a1.84,1.84,0,0,0,.34-1,.49.49,0,0,1,.28.41,1.48,1.48,0,0,1-.48,1.33.2.2,0,0,0-.06.09c.58.14.58.14.53.67a6.71,6.71,0,0,0-.89-.09,1.62,1.62,0,0,0-.67.2,5.08,5.08,0,0,0-1.21.66,10.07,10.07,0,0,1-2.08,1.33.5.5,0,0,1-.55,0,3.48,3.48,0,0,0-.38-.2c-.27.29-.52.57-.8.84s-.25.23-.1.53.21.36.32.57a5,5,0,0,1-.55,0,.22.22,0,0,1-.14-.09l-.25-.47a4.11,4.11,0,0,1-.42.21.55.55,0,0,1-.36,0c-.41-.23-.81-.48-1.22-.73a1.49,1.49,0,0,1-.86,1.06,1.6,1.6,0,0,1-1.08,0,1.32,1.32,0,0,1-.61-1.9,1.47,1.47,0,0,1-.28-.14c-.49-.29-1-.57-1.45-.88a.24.24,0,0,0-.31,0c-.26.18-.55.33-.83.5a.32.32,0,0,1-.39,0L21.76,4l-.12-.11a4.23,4.23,0,0,1-2.09,2,.38.38,0,0,1-.4,0,2.39,2.39,0,0,0-.22-.12c-.45-.25-.45-.25-.85.11a.93.93,0,0,1,.56,1.34c-.05.11-.1.17-.23.16s-.32,0-.49,0c.09-.17.18-.32.25-.48a.31.31,0,0,0-.09-.4.42.42,0,0,0-.34,0,2,2,0,0,0-.38.26c-.16-.1-.3-.22-.46-.3s-.23,0-.27,0a.39.39,0,0,0-.11.31,3.41,3.41,0,0,0,.24.58H16.2s-.11-.07-.12-.12c-.06-.24-.11-.48-.17-.77-.39-.25-.83-.54-1.27-.81-.11-.07-.73.3-.74.44a1.54,1.54,0,0,1-.59,1.15.5.5,0,0,1-.3.11,8.85,8.85,0,0,1-1,0,.51.51,0,0,1-.27-.09,1.66,1.66,0,0,1-.6-1c-.33.1-.56.54-1,.25-.1.24-.2.45-.28.68a.26.26,0,0,1-.32.19c-.13,0-.26,0-.38,0,.14-.34.28-.66.42-1a.27.27,0,0,0-.08-.36A1.45,1.45,0,0,1,9,5a.22.22,0,0,0-.08-.15,4.11,4.11,0,0,1-1-1.07.3.3,0,0,0-.25-.06,4.64,4.64,0,0,0-1.58.84l-.29.24-.46-.36c-.51.44-1,.9-1.52,1.29s-1.1.71-1.68,1.07l.31.63a4.77,4.77,0,0,1-.54,0,.19.19,0,0,1-.13-.1,2,2,0,0,1-.18-.39.66.66,0,0,0-.45-.5S1.05,6.38,1,6.37a.67.67,0,0,1-.45-.93l.3.19c.31.18.62.36.94.53a.28.28,0,0,0,.23,0A8.73,8.73,0,0,0,4.68,4.26a.2.2,0,0,0,.05-.09Zm25.11.54A1,1,0,0,0,30.06,4a7.94,7.94,0,0,0-.88-.43.47.47,0,0,0-.54.2.91.91,0,0,0-.21.69,1.81,1.81,0,0,0,.38,1A3.84,3.84,0,0,0,30.2,6.5a.27.27,0,0,0,.23,0,4.12,4.12,0,0,0,1.22-.93,2.08,2.08,0,0,0,.5-.92.93.93,0,0,0-.28-1c-.3-.24-.62-.09-.91.07A7.66,7.66,0,0,0,30.29,4.13ZM23.3,2a7.11,7.11,0,0,0-.74-.47A1.11,1.11,0,0,0,22,1.41a.76.76,0,0,0-.57,1,2.8,2.8,0,0,0,.34.84A3.59,3.59,0,0,0,23.2,4.39a.27.27,0,0,0,.23,0,10.09,10.09,0,0,0,.95-.66,2.16,2.16,0,0,0,.79-1.32.89.89,0,0,0-.31-.89c-.26-.2-.54-.09-.8,0l-.1.05Zm-4,1c-.11-.08-.23-.19-.37-.28a3.75,3.75,0,0,0-.44-.24.7.7,0,0,0-1.05.73,1.74,1.74,0,0,0,.38,1,4,4,0,0,0,1.34,1.12.27.27,0,0,0,.33,0c.3-.21.62-.41.91-.65a2.32,2.32,0,0,0,.71-1,.56.56,0,0,0,0-.53,2,2,0,0,1-.17-.45c-.09-.32-.16-.37-.49-.32a1.18,1.18,0,0,0-.36.12ZM9.26,4.43a.85.85,0,0,1,1-.06c.06,0,.14.08.19.07A1.94,1.94,0,0,0,11,4.2a2,2,0,0,0,.86-1.6.68.68,0,0,0-1-.69,5,5,0,0,0-.71.41L10,2.47a3.68,3.68,0,0,0-.41-.31,3,3,0,0,0-.47-.25.72.72,0,0,0-1,.8A2.51,2.51,0,0,0,9.26,4.43Zm23.23-.95a1.61,1.61,0,0,1,.17,1.4.14.14,0,0,0,0,.11.55.55,0,0,0,.58.14c.47-.28.94-.56,1.4-.86.26-.17.49-.39.73-.57a10.5,10.5,0,0,1-1-.85,11.77,11.77,0,0,1-.7-1C33.66,2.52,33.55,2.68,32.49,3.48ZM17,3.76,15.13,5.41l.79.48c.2.13.39.24.63.1a.69.69,0,0,1,.25,0c.06,0,.14,0,.18,0,.37-.21.72-.43,1.1-.67A3.32,3.32,0,0,1,17,3.76ZM7.57,2.36c-.17.09-.35.2-.52.31a.36.36,0,0,1-.43,0l-.27-.15L5.65,4l.12.08h0l0,0,1.85-1ZM32.3,2a3.49,3.49,0,0,0-.43-.28c-.09,0-.26-.07-.3,0a.42.42,0,0,0-.09.34,1.31,1.31,0,0,0,.27.49c.43.49.7.49,1.12,0A1.25,1.25,0,0,0,33.14,2c0-.27-.14-.4-.39-.28A5,5,0,0,0,32.3,2ZM10.4,5.14A2.41,2.41,0,0,0,10,4.87c-.1,0-.28-.07-.33,0a.41.41,0,0,0-.08.35,1.42,1.42,0,0,0,.34.54c.5.44.45.45,1,0a1.61,1.61,0,0,0,.35-.58.41.41,0,0,0-.1-.32.37.37,0,0,0-.29,0C10.69,4.93,10.55,5,10.4,5.14Zm17.13,1a3.62,3.62,0,0,0-.41-.27c-.09,0-.25-.08-.3,0a.38.38,0,0,0-.11.33,1.8,1.8,0,0,0,.38.61c.48.41.4.4.9,0a1,1,0,0,0,.39-.65c0-.27-.14-.4-.38-.28S27.69,6.05,27.53,6.15Zm-15,.11A5.81,5.81,0,0,0,12,6c-.18-.08-.32,0-.33.19a.61.61,0,0,0,.05.33,2.24,2.24,0,0,0,.41.5c.41.31.32.32.74,0a1,1,0,0,0,.46-.66.49.49,0,0,0-.1-.34s-.21,0-.3,0A3.83,3.83,0,0,0,12.51,6.26Zm-5.67-5a3.12,3.12,0,0,0-.4-.27c-.1,0-.29-.08-.32,0a.45.45,0,0,0-.1.37,1.79,1.79,0,0,0,.42.61c.42.36.36.34.79,0a1,1,0,0,0,.44-.68.43.43,0,0,0-.1-.31c-.05-.05-.21,0-.29,0A3,3,0,0,0,6.84,1.21ZM27.92,4.76l-.83.49c.26.16.5.27.77.07a1.25,1.25,0,0,1,.23-.07Z"/><path d="M5.18,19.73a3.27,3.27,0,0,0,.63-1.41c0-.06,0-.15-.06-.21l-.3-.52a4.19,4.19,0,0,1,.52,0c.06,0,.11.06.16.1s.38.36.58.52a.3.3,0,0,0,.26,0c.2-.16.38-.35.58-.52a.3.3,0,0,1,.18-.1c.55,0,1.09,0,1.63,0,.25,0,.37.16.54.25a.33.33,0,0,0,.22,0,1.25,1.25,0,0,1,.85-.24,3.64,3.64,0,0,0,.66,0,.51.51,0,0,1,.45.22,1.55,1.55,0,0,1,.28,1.53,3,3,0,0,1-.74,1.22l.15.08,1.65,1a.28.28,0,0,0,.25,0,8.19,8.19,0,0,0,3-2.43,4.21,4.21,0,0,0,.7-1.48c0-.14.09-.2.23-.19a2.14,2.14,0,0,0,.36,0L18,18a2.11,2.11,0,0,1,1.36.44l1.12-.5,0-.3h1.28a1.14,1.14,0,0,0-.12,1.47,1.8,1.8,0,0,0,.41.56c.37.32.77.59,1.16.87a.22.22,0,0,0,.21,0,3.76,3.76,0,0,0,1.44-1.21,2.81,2.81,0,0,0,.27-.55,1,1,0,0,0-.28-1.17c.25,0,.45,0,.66,0,0,0,.09.08.11.13a1.52,1.52,0,0,1,0,1.35,10,10,0,0,1-.64,1.1l1.48.84a.21.21,0,0,0,.19,0c.39-.22.78-.44,1.15-.67a.33.33,0,0,0,.14-.19,1.25,1.25,0,0,1,1.26-1c.15,0,.18-.1.11-.25q-.26-.53-.48-1.05a1,1,0,0,1-.06-.2,3.52,3.52,0,0,1,.46,0,.23.23,0,0,1,.15.14,5.09,5.09,0,0,0,1,1.63.17.17,0,0,0,.25,0c.25-.12.51-.22.78-.34-.05-.07-.13-.15-.19-.25A1.19,1.19,0,0,1,31,17.76a.2.2,0,0,1,.22-.17c.75,0,1.5,0,2.25,0a2.84,2.84,0,0,1,.77,0,3.24,3.24,0,0,0,1.71,1.83.27.27,0,0,0,.23,0,3.71,3.71,0,0,0,1.55-1.36c.09-.16.15-.33.23-.51h.26A1.34,1.34,0,0,1,37.67,19c.19.07.43.08.51.19s0,.35,0,.51a4,4,0,0,0-.83-.1,2.17,2.17,0,0,0-.78.22,5.65,5.65,0,0,0-1.16.62,9.69,9.69,0,0,1-2.1,1.36.49.49,0,0,1-.53,0c-.13-.08-.28-.14-.37-.19-.34.33-.66.64-1,1a.23.23,0,0,0,0,.23,4.81,4.81,0,0,0,1,1.42l.18.19h-.7a.39.39,0,0,1-.15-.11c-.3-.43-.59-.87-.9-1.32a.8.8,0,0,0-.11,0,.69.69,0,0,1-.92,0c-.3-.21-.61-.4-.92-.6a2.14,2.14,0,0,1-1.22,1.31.34.34,0,0,1-.24,0,2.1,2.1,0,0,1-1.24-1.17,1,1,0,0,1,.14-1,5.33,5.33,0,0,1-.58-.31c-.39-.23-.77-.47-1.15-.72a.23.23,0,0,0-.31,0c-.27.18-.56.34-.85.51a.32.32,0,0,1-.35,0l-1.18-.72a2.94,2.94,0,0,1,.27.5.87.87,0,0,0,.68.68c.2,0,.36.25.54.25s.34-.18.52-.26a1.22,1.22,0,0,1,1.84.75,1.62,1.62,0,0,1,0,.9,2.64,2.64,0,0,1-.63,1.16.28.28,0,0,1-.19.09h-.7l.21-.19a2.32,2.32,0,0,0,.81-1.35,1,1,0,0,0-.18-.76.49.49,0,0,0-.58-.21,8.53,8.53,0,0,0-.91.45,1.35,1.35,0,0,0-.19.16c-.14-.11-.28-.23-.42-.32a3.17,3.17,0,0,0-.49-.24.68.68,0,0,0-1,.68,2,2,0,0,0,.62,1.39c.11.12.24.23.38.37H21a2.84,2.84,0,0,1,.27-.38.24.24,0,0,0,0-.29A1.91,1.91,0,0,1,21,22.44a1.32,1.32,0,0,1,.85-1l-.47-.85-.3.37a4.81,4.81,0,0,1-1.62,1.16.32.32,0,0,1-.27,0l-1.4-.89c-.36-.23-.7-.47-1.07-.69s-.27-.14-.49.09a9.06,9.06,0,0,1,.49.77,2.92,2.92,0,0,1,0,2.53c-.28.71-.1.54-.87.55l.11-.21a3.52,3.52,0,0,0,.49-1.79A2.12,2.12,0,0,0,15.81,21l-.35.25-1.7,1a.33.33,0,0,1-.37,0c-.53-.3-1.06-.58-1.6-.87a2.36,2.36,0,0,1-.12.34,2.28,2.28,0,0,1-1.19,1.06.41.41,0,0,1-.26,0A2,2,0,0,1,9,21.26c-.75,1.14-.37,2.16.17,3.19H8.48a2.1,2.1,0,0,0-.06-.24A4.36,4.36,0,0,1,8,22.8a2.62,2.62,0,0,1,.6-2c-.25-.32-.48-.63-.74-.93,0,0-.15,0-.22,0a4.61,4.61,0,0,0-1.58.83l-.3.25-.5-.4a9.79,9.79,0,0,1-3.2,2.37c.17.28.31.55.48.81a8.6,8.6,0,0,0,.57.73H2.51a.36.36,0,0,1-.18-.12,5.33,5.33,0,0,1-.81-1.43.63.63,0,0,0-.2-.23c-.2-.13-.41-.25-.62-.36A.27.27,0,0,1,.53,22c0-.14,0-.27,0-.45.12.07.2.14.3.19l1,.56a.26.26,0,0,0,.21,0A8.86,8.86,0,0,0,4.68,20.4a.2.2,0,0,0,.05-.09Zm25.09.52a1.4,1.4,0,0,0-.22-.17,8.72,8.72,0,0,0-.87-.42.45.45,0,0,0-.51.17.88.88,0,0,0-.24.71,1.8,1.8,0,0,0,.34.9,3.86,3.86,0,0,0,1.45,1.21.26.26,0,0,0,.21,0,4.23,4.23,0,0,0,1.23-.95,2,2,0,0,0,.53-1.2.7.7,0,0,0-1-.76A7.77,7.77,0,0,0,30.27,20.25ZM19.33,19.13,19,18.84a3.21,3.21,0,0,0-.45-.24.67.67,0,0,0-1,.51,1,1,0,0,0,0,.48,2.37,2.37,0,0,0,1.08,1.5c.89.61.64.6,1.52,0a2.69,2.69,0,0,0,.33-.26,2.65,2.65,0,0,0,.71-1,.54.54,0,0,0,0-.52,2.29,2.29,0,0,1-.17-.46c-.09-.32-.17-.38-.51-.31a1.12,1.12,0,0,0-.43.16C19.78,18.82,19.57,19,19.33,19.13ZM10,18.57a7.26,7.26,0,0,0-.89-.51.71.71,0,0,0-1,.8,2.54,2.54,0,0,0,1.13,1.71.86.86,0,0,1,1-.05c.05,0,.12.07.16.06a2.53,2.53,0,0,0,.63-.26,2.21,2.21,0,0,0,.82-1.25.92.92,0,0,0-.29-1c-.3-.23-.61-.1-.9.05S10.24,18.43,10,18.57Zm22.45,1.05A1.57,1.57,0,0,1,32.66,21a.17.17,0,0,0,0,.12.64.64,0,0,0,.56.17c.58-.36,1.15-.73,1.72-1.1a5.3,5.3,0,0,0,.46-.39,3.83,3.83,0,0,1-1.69-1.9C33.66,18.68,33.45,19,32.48,19.62ZM7.56,18.48c-.37.27-.75.63-1.2.17l-.71,1.49.12.08h0l0,0,1.85-.93Zm24.74-.37a3,3,0,0,0-.45-.28c-.08,0-.23-.06-.28,0a.39.39,0,0,0-.1.32,1.41,1.41,0,0,0,.28.51c.42.49.7.49,1.12,0a1.4,1.4,0,0,0,.27-.58c0-.24-.15-.35-.37-.24S32.47,18,32.3,18.11ZM10.4,21.28A3.49,3.49,0,0,0,10,21c-.09,0-.25-.07-.3,0a.4.4,0,0,0-.1.34,1.14,1.14,0,0,0,.29.5c.55.52.52.52,1.07,0a1.42,1.42,0,0,0,.3-.52.37.37,0,0,0-.09-.32.37.37,0,0,0-.31,0A3.49,3.49,0,0,0,10.4,21.28Zm17.13,1a1.54,1.54,0,0,0-.36-.25c-.11-.05-.32-.1-.37,0a.44.44,0,0,0-.07.4,1.76,1.76,0,0,0,.43.58c.41.34.33.32.76,0a1,1,0,0,0,.44-.67.46.46,0,0,0-.1-.34c-.05,0-.21,0-.3,0A3.49,3.49,0,0,0,27.53,22.3Zm.39-1.4-.81.48c.32.35.64.13,1,0Z"/><path d="M5.18,3.59l-.45.58a11.58,11.58,0,0,1-1,.74c-.76.44-.54.43-1.3,0A3.88,3.88,0,0,1,1.07,3.67,2,2,0,0,1,.7,2a1.2,1.2,0,0,1,1.7-.87c.2.07.37.2.57.28a.31.31,0,0,0,.23,0,9.15,9.15,0,0,1,.94-.37,1,1,0,0,1,1.07.43,1.66,1.66,0,0,1,.13,1.74C5.29,3.36,5.23,3.47,5.18,3.59ZM3.05,2.2a1.41,1.41,0,0,0-.17-.14c-.3-.15-.59-.32-.9-.45a.46.46,0,0,0-.5.13.92.92,0,0,0-.28.64,1.75,1.75,0,0,0,.33,1A3.83,3.83,0,0,0,3,4.59a.26.26,0,0,0,.21,0,4.06,4.06,0,0,0,1.3-1A1.85,1.85,0,0,0,5,2.37a.69.69,0,0,0-1-.7C3.66,1.81,3.38,2,3.05,2.2Z"/><path d="M5.18,19.73l-.45.58a11.58,11.58,0,0,1-1,.74c-.76.44-.54.43-1.3,0a3.91,3.91,0,0,1-1.35-1.21A2.28,2.28,0,0,1,.66,18.5a1,1,0,0,1,0-.35c.14-.5.21-.55.72-.55H5a.33.33,0,0,1,.32.19,1.74,1.74,0,0,1,0,1.7A2.72,2.72,0,0,1,5.18,19.73ZM3.05,18.34a1.41,1.41,0,0,0-.17-.14c-.29-.15-.57-.32-.87-.44A.47.47,0,0,0,1.4,18a1.07,1.07,0,0,0-.18.58,2.57,2.57,0,0,0,.28.89A3.51,3.51,0,0,0,3,20.74a.21.21,0,0,0,.19,0,4.18,4.18,0,0,0,1.3-1A1.85,1.85,0,0,0,5,18.51a.69.69,0,0,0-1-.7A8.1,8.1,0,0,0,3.05,18.34Z"/><path d="M23.43,6.42,23,6.09l-.32-.17c-.27-.11-.55-.23-.81,0a.86.86,0,0,0-.29.9c0,.2.12.4.18.62h-.48a.15.15,0,0,1-.12-.08,1.6,1.6,0,0,1,.14-1.63,1.1,1.1,0,0,1,1.25-.42,2.4,2.4,0,0,1,.62.26.41.41,0,0,0,.54,0,1.58,1.58,0,0,1,1-.32,1.33,1.33,0,0,1,1.11,1.54s0,.06,0,.08c-.16.7,0,.57-.72.56.06-.22.14-.44.18-.66a.78.78,0,0,0-.55-1,1.34,1.34,0,0,0-.51.09,1.72,1.72,0,0,0-.42.23A3.8,3.8,0,0,0,23.43,6.42Z"/><path d="M22.5,17.6h1.59l-.79.54Z"/><path d="M36.05,1,35.56.59h1Z"/><path d="M2.3.58l-.36.3L1.58.58Z"/></g><g class="cls-3"><path d="M4.84,3.25a3.27,3.27,0,0,0,.63-1.41c0-.07,0-.17-.09-.24A1.19,1.19,0,0,1,5.18.44.3.3,0,0,1,5.51.22q1,0,2,0A.34.34,0,0,1,7.84.5c0,.18,0,.37.07.53l.82-.1V.24h.52c0,.29,0,.58.08.86a.35.35,0,0,0,.51.22A3.29,3.29,0,0,1,10.77,1a1.23,1.23,0,0,1,1.34,1.32,2.57,2.57,0,0,1-.65,1.59L11.33,4v.06c.3.21.6.45.93.64s.69.33,1.06.5a7.92,7.92,0,0,0,3.24-2.72A3.58,3.58,0,0,0,17.17.25h.58L17.64,1.5A2.07,2.07,0,0,1,19,1.94l1.12-.5A1.91,1.91,0,0,0,19.88.23a4,4,0,0,1,.5,0,.19.19,0,0,1,.14.12c.07.25.12.51.18.79a1.19,1.19,0,0,1,1-.65V.24h.52s0,0,0,0c0,.29.21.39.42.52a.51.51,0,0,0,.65,0,1.56,1.56,0,0,1,1-.28,1.28,1.28,0,0,1,1.13,1.25,2.49,2.49,0,0,1-.67,1.71l-.17.18c.32.21.62.41.93.59.66.39.66.39,1.32,0l.27-.16a1.16,1.16,0,0,0,.59-.67,1.1,1.1,0,0,1,1.11-.81A.65.65,0,0,0,29,2.52,4.51,4.51,0,0,1,28.24.24h.53l.09.53A4.38,4.38,0,0,0,30,2.92a.24.24,0,0,0,.19,0c.26-.1.53-.22.8-.34a3,3,0,0,1-.18-.24,1.2,1.2,0,0,1-.26-.91A.77.77,0,0,1,31.77.86a.39.39,0,0,0,.39,0,.8.8,0,0,1,1.15.33l0-.22c0-.07,0-.14,0-.21,0-.46.07-.53.53-.53H34s0,0,0,.05a1.21,1.21,0,0,0,0,1.26A3.59,3.59,0,0,0,35.62,3a.19.19,0,0,0,.18,0,3.83,3.83,0,0,0,1.46-1.22,1.84,1.84,0,0,0,.34-1,.49.49,0,0,1,.28.41,1.48,1.48,0,0,1-.48,1.33.2.2,0,0,0-.06.09c.58.14.58.14.53.67A6.71,6.71,0,0,0,37,3.16a1.62,1.62,0,0,0-.67.2A5.34,5.34,0,0,0,35.09,4,9.75,9.75,0,0,1,33,5.35a.5.5,0,0,1-.55,0,3.48,3.48,0,0,0-.38-.2c-.27.29-.52.57-.8.84s-.25.23-.1.53.21.36.32.57a5,5,0,0,1-.55,0A.22.22,0,0,1,30.82,7l-.25-.47a4.11,4.11,0,0,1-.42.21.55.55,0,0,1-.36,0c-.41-.23-.81-.48-1.22-.73a1.46,1.46,0,0,1-.86,1,1.54,1.54,0,0,1-1.08,0A1.32,1.32,0,0,1,26,5.14,1.47,1.47,0,0,1,25.74,5c-.49-.29-1-.57-1.45-.88a.24.24,0,0,0-.31,0c-.26.18-.55.33-.83.5a.32.32,0,0,1-.39,0L21.42,3.7l-.12-.11a4.23,4.23,0,0,1-2.09,2,.38.38,0,0,1-.4,0,2.39,2.39,0,0,0-.22-.12c-.45-.25-.45-.25-.85.11a.93.93,0,0,1,.56,1.34c-.05.11-.1.17-.23.16h-.49c.09-.17.18-.32.25-.48a.31.31,0,0,0-.09-.4.42.42,0,0,0-.34,0,2,2,0,0,0-.38.26c-.16-.1-.3-.22-.46-.3a.32.32,0,0,0-.27,0,.39.39,0,0,0-.11.31,3.41,3.41,0,0,0,.24.58h-.56S15.75,7,15.74,7c-.06-.24-.11-.48-.17-.77-.39-.25-.83-.54-1.27-.81-.11-.07-.73.3-.74.44A1.54,1.54,0,0,1,13,7a.5.5,0,0,1-.3.11,8.85,8.85,0,0,1-1,0A.51.51,0,0,1,11.37,7a1.61,1.61,0,0,1-.6-1c-.33.1-.56.54-1,.25-.1.24-.2.45-.28.68a.27.27,0,0,1-.32.19H8.81c.14-.34.28-.66.42-1a.27.27,0,0,0-.08-.36,1.45,1.45,0,0,1-.49-1.09.22.22,0,0,0-.08-.15,4.11,4.11,0,0,1-1-1.07.3.3,0,0,0-.25-.06,4.64,4.64,0,0,0-1.58.84l-.29.24L5,4.11C4.48,4.55,4,5,3.47,5.4s-1.1.71-1.68,1.07l.31.63a4.77,4.77,0,0,1-.54,0A.19.19,0,0,1,1.43,7a2,2,0,0,1-.18-.39A.66.66,0,0,0,.8,6.1C.75,6.08.71,6,.67,6A.67.67,0,0,1,.22,5.1l.3.19c.31.18.62.36.94.53a.28.28,0,0,0,.23,0A8.73,8.73,0,0,0,4.34,3.92a.2.2,0,0,0,0-.09ZM30,3.79a1,1,0,0,0-.23-.18,7.94,7.94,0,0,0-.88-.43.47.47,0,0,0-.54.2.91.91,0,0,0-.21.69,1.81,1.81,0,0,0,.38.95,3.84,3.84,0,0,0,1.39,1.14.27.27,0,0,0,.23,0,4.12,4.12,0,0,0,1.22-.93,2.08,2.08,0,0,0,.5-.92.93.93,0,0,0-.28-1c-.3-.24-.62-.09-.91.07A7.66,7.66,0,0,0,30,3.79ZM23,1.66a7.11,7.11,0,0,0-.74-.47,1.11,1.11,0,0,0-.56-.12.76.76,0,0,0-.57,1,2.8,2.8,0,0,0,.34.84,3.59,3.59,0,0,0,1.43,1.19.27.27,0,0,0,.23,0A10.09,10.09,0,0,0,24,3.37a2.16,2.16,0,0,0,.79-1.32.89.89,0,0,0-.31-.89c-.26-.2-.54-.09-.8,0l-.1.05Zm-4,1c-.11-.08-.23-.19-.37-.28a3.75,3.75,0,0,0-.44-.24.7.7,0,0,0-1.05.73,1.74,1.74,0,0,0,.38,1A3.92,3.92,0,0,0,18.85,5a.27.27,0,0,0,.33,0c.3-.21.62-.41.91-.65a2.32,2.32,0,0,0,.71-1,.56.56,0,0,0,0-.53,2,2,0,0,1-.17-.45c-.09-.32-.16-.37-.49-.32a1.18,1.18,0,0,0-.36.12C19.5,2.31,19.25,2.48,19,2.65ZM8.92,4.09a.85.85,0,0,1,1-.06c.06,0,.14.08.19.07a1.94,1.94,0,0,0,.61-.24,2,2,0,0,0,.86-1.6.68.68,0,0,0-1-.69A5,5,0,0,0,9.86,2a1.3,1.3,0,0,0-.18.15,3.68,3.68,0,0,0-.41-.31,3,3,0,0,0-.47-.25.72.72,0,0,0-1,.8A2.51,2.51,0,0,0,8.92,4.09Zm23.23-.95a1.61,1.61,0,0,1,.17,1.4.14.14,0,0,0,0,.11.55.55,0,0,0,.58.14c.47-.28.94-.56,1.4-.86.26-.17.49-.39.73-.57a10.5,10.5,0,0,1-1-.85,11.77,11.77,0,0,1-.7-1C33.32,2.18,33.21,2.34,32.15,3.14Zm-15.49.28L14.79,5.07l.79.48c.2.13.39.24.63.1a.69.69,0,0,1,.25,0c.06,0,.14,0,.18,0,.37-.21.72-.43,1.1-.67A3.32,3.32,0,0,1,16.66,3.42ZM7.23,2c-.17.09-.35.2-.52.31a.36.36,0,0,1-.43,0L6,2.18l-.7,1.48a1.23,1.23,0,0,1,.12.08h0l0,0,1.85-1ZM32,1.64a3.49,3.49,0,0,0-.43-.28c-.09,0-.26-.07-.3,0a.42.42,0,0,0-.09.34,1.31,1.31,0,0,0,.27.49c.43.49.7.49,1.12,0a1.25,1.25,0,0,0,.27-.54c.05-.27-.14-.4-.39-.28A5,5,0,0,0,32,1.64ZM10.06,4.8a2.41,2.41,0,0,0-.41-.27c-.1,0-.28-.07-.33,0a.41.41,0,0,0-.08.35,1.42,1.42,0,0,0,.34.54c.5.44.45.45,1,0a1.61,1.61,0,0,0,.35-.58.41.41,0,0,0-.1-.32s-.2,0-.29,0S10.21,4.7,10.06,4.8Zm17.13,1a3.62,3.62,0,0,0-.41-.27c-.09,0-.25-.08-.3,0a.38.38,0,0,0-.11.33,1.8,1.8,0,0,0,.38.61c.48.41.4.4.9,0A1,1,0,0,0,28,5.8c0-.27-.14-.4-.38-.28S27.35,5.71,27.19,5.81Zm-15,.11a4.74,4.74,0,0,0-.52-.31.21.21,0,0,0-.32.19.61.61,0,0,0,.05.33,2.24,2.24,0,0,0,.41.5c.41.31.32.32.74,0A1,1,0,0,0,13,6a.49.49,0,0,0-.1-.34s-.21,0-.3,0A2.79,2.79,0,0,0,12.17,5.92ZM6.5.87A2.35,2.35,0,0,0,6.1.6c-.1,0-.29-.08-.32,0a.45.45,0,0,0-.1.37,1.79,1.79,0,0,0,.42.61c.42.36.36.34.79,0A1,1,0,0,0,7.33.88a.43.43,0,0,0-.1-.31c-.05,0-.21,0-.29,0A3,3,0,0,0,6.5.87ZM27.58,4.42l-.83.49c.26.16.5.27.77.07a1.25,1.25,0,0,1,.23-.07Z"/><path d="M4.84,19.39A3.27,3.27,0,0,0,5.47,18c0-.06,0-.15-.06-.21l-.3-.52a4.19,4.19,0,0,1,.52,0c.06,0,.11.06.16.1s.38.36.58.52a.3.3,0,0,0,.26,0c.2-.16.38-.35.58-.52a.3.3,0,0,1,.18-.1c.55,0,1.09,0,1.63,0,.25,0,.37.16.54.25a.33.33,0,0,0,.22,0,1.25,1.25,0,0,1,.85-.24,3.64,3.64,0,0,0,.66,0,.51.51,0,0,1,.45.22A1.55,1.55,0,0,1,12,19a3,3,0,0,1-.74,1.22l.15.08,1.65,1a.28.28,0,0,0,.25,0,8.08,8.08,0,0,0,3-2.43,4.06,4.06,0,0,0,.71-1.48c0-.14.09-.2.23-.19a2.14,2.14,0,0,0,.36,0l-.06.38a2.11,2.11,0,0,1,1.36.44l1.12-.5,0-.3H21.4a1.14,1.14,0,0,0-.12,1.47,1.8,1.8,0,0,0,.41.56c.37.32.77.59,1.16.87a.22.22,0,0,0,.21,0A3.76,3.76,0,0,0,24.5,19a2.81,2.81,0,0,0,.27-.55,1,1,0,0,0-.28-1.17c.25,0,.45,0,.66,0,0,0,.09.08.11.13a1.52,1.52,0,0,1,0,1.35,10,10,0,0,1-.64,1.1l1.48.84a.21.21,0,0,0,.19,0L27.41,20a.33.33,0,0,0,.14-.19,1.25,1.25,0,0,1,1.26-1c.15,0,.18-.1.11-.25-.17-.35-.33-.7-.49-1.05,0-.06,0-.12-.05-.2a3.52,3.52,0,0,1,.46,0,.23.23,0,0,1,.15.14A5.09,5.09,0,0,0,30,19a.17.17,0,0,0,.25,0c.25-.12.51-.22.78-.34-.05-.07-.13-.16-.19-.25a1.19,1.19,0,0,1-.21-1.06.2.2,0,0,1,.22-.17c.75,0,1.5,0,2.25,0a2.84,2.84,0,0,1,.77,0,3.24,3.24,0,0,0,1.71,1.83.27.27,0,0,0,.23,0,3.71,3.71,0,0,0,1.55-1.36c.09-.16.15-.33.23-.51h.26a1.34,1.34,0,0,1-.51,1.43c.19.07.43.08.51.19s0,.35,0,.51a4,4,0,0,0-.83-.1,2.17,2.17,0,0,0-.78.22,5.65,5.65,0,0,0-1.16.62A9.69,9.69,0,0,1,33,21.5a.49.49,0,0,1-.53,0c-.13-.08-.28-.14-.37-.19-.34.33-.66.64-1,1a.23.23,0,0,0,0,.23,4.81,4.81,0,0,0,1,1.42l.18.19h-.7a.39.39,0,0,1-.15-.11l-.9-1.32a.8.8,0,0,0-.11,0,.69.69,0,0,1-.92,0c-.3-.21-.61-.4-.92-.6a2.14,2.14,0,0,1-1.22,1.31.34.34,0,0,1-.24,0,2.1,2.1,0,0,1-1.24-1.17,1,1,0,0,1,.14-1,5.33,5.33,0,0,1-.58-.31c-.39-.23-.77-.47-1.15-.72a.22.22,0,0,0-.31,0c-.27.18-.56.34-.85.51a.32.32,0,0,1-.35,0l-1.18-.72a2.94,2.94,0,0,1,.27.5.87.87,0,0,0,.68.68c.19,0,.36.25.54.25s.34-.18.52-.26a1.22,1.22,0,0,1,1.84.75,1.62,1.62,0,0,1,0,.9A2.64,2.64,0,0,1,24.82,24a.28.28,0,0,1-.19.09h-.7l.21-.18A2.32,2.32,0,0,0,25,22.59a1,1,0,0,0-.18-.76.49.49,0,0,0-.58-.21,8.53,8.53,0,0,0-.91.45,1.35,1.35,0,0,0-.19.16c-.14-.11-.28-.23-.42-.32a3.17,3.17,0,0,0-.49-.24.68.68,0,0,0-1,.68,2,2,0,0,0,.62,1.39c.11.12.24.23.38.37H20.65a2.84,2.84,0,0,1,.27-.38.24.24,0,0,0,0-.29,1.91,1.91,0,0,1-.25-1.34,1.3,1.3,0,0,1,.85-1l-.47-.85-.3.37a4.81,4.81,0,0,1-1.62,1.16.32.32,0,0,1-.27,0l-1.4-.89c-.36-.23-.7-.47-1.07-.69s-.27-.14-.49.09a9.06,9.06,0,0,1,.49.77,2.92,2.92,0,0,1,0,2.53c-.28.71-.1.54-.87.55l.11-.21a3.54,3.54,0,0,0,.49-1.79,2.16,2.16,0,0,0-.65-1.47l-.35.26-1.7,1a.35.35,0,0,1-.38,0c-.52-.3-1-.58-1.59-.87a2.36,2.36,0,0,1-.12.34,2.28,2.28,0,0,1-1.19,1.06.41.41,0,0,1-.26,0,2,2,0,0,1-1.23-1.5c-.75,1.13-.37,2.16.17,3.19H8.14a2.1,2.1,0,0,0-.06-.24,4.36,4.36,0,0,1-.39-1.41,2.64,2.64,0,0,1,.6-2c-.25-.31-.48-.62-.74-.92,0,0-.15,0-.22,0a4.61,4.61,0,0,0-1.58.83l-.3.25-.5-.4a9.79,9.79,0,0,1-3.2,2.37c.17.28.31.55.48.81a8.6,8.6,0,0,0,.57.73H2.17A.36.36,0,0,1,2,24a5.07,5.07,0,0,1-.81-1.43.63.63,0,0,0-.2-.23c-.2-.13-.41-.25-.62-.36a.27.27,0,0,1-.17-.31c0-.14,0-.27,0-.45.12.07.2.14.3.19l1,.56a.26.26,0,0,0,.21,0,8.86,8.86,0,0,0,2.65-1.93.41.41,0,0,0,0-.09Zm25.09.52a1.4,1.4,0,0,0-.22-.17c-.29-.15-.57-.3-.87-.42a.45.45,0,0,0-.51.17.88.88,0,0,0-.24.71,1.8,1.8,0,0,0,.34.9,3.86,3.86,0,0,0,1.45,1.21.23.23,0,0,0,.21,0,4,4,0,0,0,1.23-.94,2,2,0,0,0,.53-1.2.7.7,0,0,0-1-.76A7.77,7.77,0,0,0,29.93,19.91ZM19,18.79l-.38-.29a3.21,3.21,0,0,0-.45-.24.67.67,0,0,0-1,.51,1,1,0,0,0,0,.48,2.37,2.37,0,0,0,1.08,1.5c.89.61.64.6,1.52,0a2.69,2.69,0,0,0,.33-.26,2.65,2.65,0,0,0,.71-1,.54.54,0,0,0,0-.52,2.29,2.29,0,0,1-.17-.46c-.09-.32-.17-.38-.51-.31a1.3,1.3,0,0,0-.43.15C19.44,18.48,19.23,18.64,19,18.79Zm-9.3-.56a7.26,7.26,0,0,0-.89-.51.71.71,0,0,0-1,.8,2.54,2.54,0,0,0,1.13,1.71.86.86,0,0,1,1-.05c.05,0,.12.07.16.06a2.53,2.53,0,0,0,.63-.26,2.21,2.21,0,0,0,.82-1.25.92.92,0,0,0-.29-1c-.3-.23-.61-.1-.9.05S9.9,18.09,9.69,18.23Zm22.45,1.05a1.57,1.57,0,0,1,.18,1.38.17.17,0,0,0,0,.12.64.64,0,0,0,.56.17c.58-.36,1.15-.73,1.72-1.1a5.3,5.3,0,0,0,.46-.39,3.83,3.83,0,0,1-1.69-1.9C33.32,18.34,33.11,18.63,32.14,19.28ZM7.22,18.14c-.37.27-.75.63-1.2.17L5.31,19.8l.12.08h0l0-.05,1.85-.93ZM32,17.77a3,3,0,0,0-.45-.28c-.08,0-.23-.06-.28,0a.39.39,0,0,0-.1.32,1.41,1.41,0,0,0,.28.51c.42.49.7.49,1.12,0a1.4,1.4,0,0,0,.27-.58c0-.24-.15-.35-.37-.24S32.13,17.67,32,17.77Zm-21.9,3.17a3.49,3.49,0,0,0-.43-.28c-.09,0-.25-.07-.3,0a.4.4,0,0,0-.1.34,1.14,1.14,0,0,0,.29.5c.55.52.52.52,1.07,0a1.42,1.42,0,0,0,.3-.52.37.37,0,0,0-.09-.32.37.37,0,0,0-.31,0A3.49,3.49,0,0,0,10.06,20.94Zm17.13,1a1.54,1.54,0,0,0-.36-.25c-.11-.05-.32-.1-.37,0a.44.44,0,0,0-.07.4,1.76,1.76,0,0,0,.43.58c.41.33.33.32.76,0A1,1,0,0,0,28,22a.46.46,0,0,0-.1-.34c-.05,0-.21,0-.3,0A3.49,3.49,0,0,0,27.19,22Zm.39-1.4-.81.48c.32.35.64.13,1,0Z"/><path d="M4.84,3.25l-.45.58a11.58,11.58,0,0,1-1,.74c-.76.44-.54.43-1.3,0A3.88,3.88,0,0,1,.73,3.33,2,2,0,0,1,.36,1.69,1.2,1.2,0,0,1,2.06.82c.2.07.37.2.57.28a.3.3,0,0,0,.23,0A9.15,9.15,0,0,1,3.8.73a1,1,0,0,1,1.07.43A1.66,1.66,0,0,1,5,2.9C5,3,4.89,3.13,4.84,3.25ZM2.71,1.86a1.41,1.41,0,0,0-.17-.14c-.3-.15-.59-.32-.9-.45a.46.46,0,0,0-.5.13A.92.92,0,0,0,.86,2a1.75,1.75,0,0,0,.33,1A3.83,3.83,0,0,0,2.65,4.25a.26.26,0,0,0,.21,0,4.18,4.18,0,0,0,1.3-1A1.85,1.85,0,0,0,4.63,2a.69.69,0,0,0-1-.7A8.94,8.94,0,0,0,2.71,1.86Z"/><path d="M4.84,19.39,4.39,20a10.33,10.33,0,0,1-1,.74c-.75.44-.53.43-1.29,0A3.82,3.82,0,0,1,.75,19.5a2.28,2.28,0,0,1-.43-1.34,1,1,0,0,1,0-.35c.14-.5.21-.55.72-.55H4.65a.33.33,0,0,1,.32.19,1.74,1.74,0,0,1,0,1.7A2.72,2.72,0,0,1,4.84,19.39ZM2.71,18a1.41,1.41,0,0,0-.17-.14c-.29-.15-.57-.32-.87-.44a.47.47,0,0,0-.61.22,1,1,0,0,0-.18.58,2.57,2.57,0,0,0,.28.89A3.45,3.45,0,0,0,2.67,20.4a.21.21,0,0,0,.19,0,4.18,4.18,0,0,0,1.3-1,1.85,1.85,0,0,0,.47-1.19.69.69,0,0,0-1-.7A8.1,8.1,0,0,0,2.71,18Z"/><path d="M23.08,6.08c-.15-.11-.29-.23-.44-.33l-.32-.17c-.27-.11-.55-.23-.81,0a.86.86,0,0,0-.29.9c0,.2.12.4.18.62h-.48A.15.15,0,0,1,20.8,7a1.6,1.6,0,0,1,.14-1.63A1.1,1.1,0,0,1,22.19,5a2.4,2.4,0,0,1,.62.26.41.41,0,0,0,.54,0,1.58,1.58,0,0,1,1-.32,1.33,1.33,0,0,1,1.11,1.54s0,.06,0,.08c-.16.7,0,.57-.72.56.06-.22.14-.44.18-.66a.78.78,0,0,0-.55-1,1.34,1.34,0,0,0-.51.09,1.72,1.72,0,0,0-.42.23C23.33,5.88,23.21,6,23.08,6.08Z"/><path d="M22.16,17.26h1.59L23,17.8Z"/><path d="M35.71.63,35.22.25h1Z"/><path d="M2,.24,1.6.54,1.24.24Z"/></g><path class="cls-4" d="M5,3.45A3.27,3.27,0,0,0,5.67,2c0-.07,0-.17-.09-.25A1.17,1.17,0,0,1,5.38.64.3.3,0,0,1,5.71.42c.65,0,1.3,0,1.94,0,.23,0,.34.09.38.27a3.64,3.64,0,0,1,.07.54l.83-.1V.44h.52c0,.29,0,.57.08.86a.34.34,0,0,0,.5.22A3.47,3.47,0,0,1,11,1.17a1.23,1.23,0,0,1,1.34,1.32,2.55,2.55,0,0,1-.66,1.59l-.12.15v.06c.3.21.61.45.94.64s.69.32,1.06.49A7.85,7.85,0,0,0,16.76,2.7a3.48,3.48,0,0,0,.6-2.25H18l-.11,1.24a2.16,2.16,0,0,1,1.33.45l1.11-.5a1.9,1.9,0,0,0-.2-1.21,4.09,4.09,0,0,1,.5,0,.19.19,0,0,1,.14.11c.07.26.12.52.18.79a1.18,1.18,0,0,1,1-.64V.44h.51l0,0c0,.29.21.39.42.52a.51.51,0,0,0,.65,0,1.56,1.56,0,0,1,1-.28A1.28,1.28,0,0,1,25.59,2a2.45,2.45,0,0,1-.67,1.7l-.17.19c.32.2.62.41.93.59.66.39.66.39,1.32,0l.27-.17a1.11,1.11,0,0,0,.59-.66A1.09,1.09,0,0,1,29,2.81a.72.72,0,0,0,.24-.09A4.41,4.41,0,0,1,28.44.44H29c0,.18.05.35.09.53a4.31,4.31,0,0,0,1.17,2.14s.13,0,.19,0c.26-.1.52-.22.8-.34L31,2.55a1.25,1.25,0,0,1-.27-.91A.78.78,0,0,1,32,1.06a.37.37,0,0,0,.38,0,.81.81,0,0,1,1.16.33l0-.22a1.48,1.48,0,0,1,0-.21c0-.47.07-.53.53-.53h.16l0,0a1.23,1.23,0,0,0,0,1.27,3.59,3.59,0,0,0,1.6,1.46.23.23,0,0,0,.18,0A3.92,3.92,0,0,0,37.46,2a1.84,1.84,0,0,0,.34-1,.49.49,0,0,1,.28.41,1.48,1.48,0,0,1-.48,1.33.24.24,0,0,0-.06.08c.58.15.58.15.52.68a6.56,6.56,0,0,0-.88-.09,1.58,1.58,0,0,0-.67.2,5.72,5.72,0,0,0-1.22.65,9.41,9.41,0,0,1-2.07,1.34.5.5,0,0,1-.55,0l-.38-.19c-.27.28-.52.57-.8.84s-.26.22-.1.52l.32.58h-.55A.22.22,0,0,1,31,7.2c-.09-.15-.16-.3-.25-.47a2.39,2.39,0,0,1-.43.2.43.43,0,0,1-.35,0c-.41-.22-.81-.48-1.22-.72a1.51,1.51,0,0,1-.87,1,1.46,1.46,0,0,1-1.07,0,1.3,1.3,0,0,1-.61-1.89,1.22,1.22,0,0,1-.28-.14l-1.45-.88c-.12-.07-.19-.09-.31,0s-.55.33-.83.5a.35.35,0,0,1-.39,0L21.62,3.9l-.12-.11a4.15,4.15,0,0,1-2.1,2,.35.35,0,0,1-.39,0l-.22-.11c-.45-.25-.45-.25-.85.11a.93.93,0,0,1,.56,1.34.22.22,0,0,1-.24.16h-.48A4.29,4.29,0,0,0,18,6.82a.3.3,0,0,0-.08-.4.42.42,0,0,0-.34,0,3.22,3.22,0,0,0-.39.25,5.16,5.16,0,0,0-.46-.29c-.07,0-.22-.06-.26,0a.38.38,0,0,0-.11.31,3.41,3.41,0,0,0,.24.58h-.56s-.11-.07-.12-.12c-.06-.24-.11-.48-.17-.77l-1.28-.82c-.11-.07-.72.31-.73.45a1.54,1.54,0,0,1-.59,1.15.55.55,0,0,1-.3.11c-.34,0-.69,0-1,0a.45.45,0,0,1-.27-.1,1.56,1.56,0,0,1-.6-1c-.33.09-.56.54-1,.25-.1.24-.2.45-.29.68a.26.26,0,0,1-.32.19H9l.41-1A.27.27,0,0,0,9.35,6a1.45,1.45,0,0,1-.49-1.09.22.22,0,0,0-.08-.15,4.28,4.28,0,0,1-1-1.07.28.28,0,0,0-.25-.06,4.39,4.39,0,0,0-1.58.84c-.1.07-.19.16-.29.24L5.19,4.3c-.51.45-1,.91-1.52,1.3S2.57,6.3,2,6.67l.31.63H1.76a.18.18,0,0,1-.13-.11,1.33,1.33,0,0,1-.18-.38A.67.67,0,0,0,1,6.3C1,6.28.91,6.24.87,6.23A.67.67,0,0,1,.42,5.3l.3.19c.31.18.62.36.94.53a.27.27,0,0,0,.23,0A9,9,0,0,0,4.54,4.12a.41.41,0,0,0,0-.09ZM30.15,4c-.08,0-.14-.13-.23-.18A7.23,7.23,0,0,0,29,3.38a.48.48,0,0,0-.54.2,1,1,0,0,0-.21.69,2,2,0,0,0,.38,1,4,4,0,0,0,1.4,1.14.31.31,0,0,0,.23,0,4.12,4.12,0,0,0,1.22-.93A2.18,2.18,0,0,0,32,4.5a.93.93,0,0,0-.28-1c-.31-.24-.62-.09-.91.06S30.38,3.83,30.15,4Zm-7-2.13c-.24-.15-.48-.33-.74-.46a1.25,1.25,0,0,0-.57-.13.76.76,0,0,0-.56,1,2.74,2.74,0,0,0,.34.83,3.62,3.62,0,0,0,1.43,1.2.27.27,0,0,0,.23,0,10.09,10.09,0,0,0,.95-.66A2.24,2.24,0,0,0,25,2.25a.89.89,0,0,0-.31-.89c-.26-.21-.54-.09-.8,0l-.1,0Zm-4,1c-.11-.08-.23-.18-.37-.27a3.75,3.75,0,0,0-.44-.24.71.71,0,0,0-1.06.73,1.77,1.77,0,0,0,.39,1,4,4,0,0,0,1.34,1.12.27.27,0,0,0,.33,0c.3-.21.62-.41.91-.65a2.35,2.35,0,0,0,.71-1A.54.54,0,0,0,21,3a1.61,1.61,0,0,1-.17-.45c-.09-.32-.16-.37-.49-.32a1.18,1.18,0,0,0-.36.12C19.7,2.51,19.45,2.68,19.19,2.84ZM9.12,4.29a.84.84,0,0,1,1-.06c.06,0,.14.08.19.06a1.67,1.67,0,0,0,.6-.23,2,2,0,0,0,.87-1.6.68.68,0,0,0-1-.69,4.21,4.21,0,0,0-.71.41.84.84,0,0,0-.18.15A3.9,3.9,0,0,0,9.46,2,2.51,2.51,0,0,0,9,1.77a.72.72,0,0,0-1,.8A2.51,2.51,0,0,0,9.12,4.29Zm23.22-1a1.56,1.56,0,0,1,.17,1.39.16.16,0,0,0,0,.12.61.61,0,0,0,.59.14c.47-.28.94-.56,1.4-.86.26-.17.49-.39.73-.58a9.15,9.15,0,0,1-1-.84,9.81,9.81,0,0,1-.7-1C33.52,2.38,33.4,2.54,32.34,3.34Zm-15.48.28L15,5.27l.79.48c.2.13.39.24.63.09a1,1,0,0,1,.25,0,.36.36,0,0,0,.18,0l1.1-.67A3.18,3.18,0,0,1,16.86,3.62ZM7.42,2.21l-.51.32a.36.36,0,0,1-.43,0,2.7,2.7,0,0,0-.27-.15l-.7,1.48.12.08h0l0,0L7.48,3Zm24.74-.38a2.54,2.54,0,0,0-.43-.27c-.09-.05-.26-.07-.3,0a.42.42,0,0,0-.09.34,1.18,1.18,0,0,0,.27.49c.43.49.7.48,1.12,0A1.25,1.25,0,0,0,33,1.82c0-.27-.14-.4-.39-.28S32.32,1.73,32.16,1.83ZM10.25,5a2.07,2.07,0,0,0-.41-.27c-.09-.05-.27-.08-.32,0a.41.41,0,0,0-.08.35,1.31,1.31,0,0,0,.34.54c.5.44.45.45,1,0A1.7,1.7,0,0,0,11.09,5,.39.39,0,0,0,11,4.7c-.05,0-.2,0-.29,0A3.39,3.39,0,0,0,10.25,5ZM27.39,6A3.62,3.62,0,0,0,27,5.74c-.09,0-.26-.08-.31,0a.41.41,0,0,0-.1.33,1.8,1.8,0,0,0,.38.61c.48.41.4.4.9,0A.9.9,0,0,0,28.23,6c0-.26-.14-.39-.37-.27A4,4,0,0,0,27.39,6Zm-15,.1c-.18-.1-.34-.22-.52-.3a.21.21,0,0,0-.32.19.61.61,0,0,0,.05.33,2,2,0,0,0,.41.5c.41.31.32.32.74,0a1,1,0,0,0,.45-.66.43.43,0,0,0-.09-.34s-.21,0-.3,0A3.74,3.74,0,0,0,12.37,6.11ZM6.69,1.06A2.94,2.94,0,0,0,6.3.8C6.2.75,6,.72,6,.76a.45.45,0,0,0-.1.37,1.66,1.66,0,0,0,.42.61c.42.36.36.34.79,0a1,1,0,0,0,.44-.67.43.43,0,0,0-.1-.31c0-.05-.21,0-.29,0A3.68,3.68,0,0,0,6.69,1.06ZM27.78,4.62,27,5.11c.25.15.5.27.77.07A.78.78,0,0,1,28,5.11Z"/><path class="cls-4" d="M5,19.59a3.52,3.52,0,0,0,.63-1.41c0-.06,0-.15-.06-.21l-.3-.52h.52c.06,0,.11.07.16.11s.37.36.58.52a.3.3,0,0,0,.26,0c.2-.16.38-.35.58-.52a.3.3,0,0,1,.18-.1c.54,0,1.09,0,1.63,0,.25,0,.36.16.54.24a.24.24,0,0,0,.22,0,1.24,1.24,0,0,1,.85-.23,3.64,3.64,0,0,0,.66,0,.47.47,0,0,1,.45.22,1.57,1.57,0,0,1,.28,1.53,3.09,3.09,0,0,1-.74,1.22l.15.08,1.65,1a.31.31,0,0,0,.25,0,8.18,8.18,0,0,0,3-2.43,4.14,4.14,0,0,0,.71-1.48c0-.15.08-.2.23-.19h.36l-.06.38a2.11,2.11,0,0,1,1.36.44l1.12-.5,0-.31H21.6A1.16,1.16,0,0,0,21.48,19a1.76,1.76,0,0,0,.41.56,14,14,0,0,0,1.16.87.26.26,0,0,0,.21,0,3.7,3.7,0,0,0,1.44-1.22,2.48,2.48,0,0,0,.27-.54,1,1,0,0,0-.28-1.17c.25,0,.45,0,.66,0,0,0,.08.08.11.13a1.52,1.52,0,0,1,0,1.35,10,10,0,0,1-.64,1.1l1.48.84a.21.21,0,0,0,.19,0l1.15-.67a.32.32,0,0,0,.14-.2A1.25,1.25,0,0,1,29,19c.16,0,.19-.09.12-.24-.17-.35-.33-.7-.49-1.05,0-.06,0-.12-.05-.2a3.53,3.53,0,0,1,.46,0,.24.24,0,0,1,.14.14,5.3,5.3,0,0,0,1,1.63c.08.09.14.09.25,0s.51-.23.78-.34c0-.07-.13-.16-.19-.25a1.19,1.19,0,0,1-.21-1.06.2.2,0,0,1,.22-.17c.75,0,1.5,0,2.25,0a4,4,0,0,1,.77,0,3.24,3.24,0,0,0,1.7,1.84.3.3,0,0,0,.24,0A3.77,3.77,0,0,0,37.55,18c.09-.16.15-.34.23-.51H38a1.36,1.36,0,0,1-.51,1.43c.19.06.42.08.51.19s0,.35,0,.51a4.08,4.08,0,0,0-.83-.1,2,2,0,0,0-.78.22,4.8,4.8,0,0,0-1.16.62A9.52,9.52,0,0,1,33.2,21.7a.47.47,0,0,1-.52,0c-.14-.08-.28-.13-.37-.18-.34.33-.66.64-1,1a.23.23,0,0,0,0,.23,4.94,4.94,0,0,0,1,1.42l.17.19h-.7c-.05,0-.1-.07-.14-.12l-.91-1.31a.42.42,0,0,0-.1.05.7.7,0,0,1-.93,0c-.3-.21-.61-.4-.92-.6a2.08,2.08,0,0,1-1.22,1.31.31.31,0,0,1-.23,0,2.13,2.13,0,0,1-1.24-1.17,1,1,0,0,1,.14-1c-.2-.11-.4-.2-.58-.31-.39-.23-.77-.47-1.15-.72a.22.22,0,0,0-.31,0c-.27.18-.56.34-.85.51A.32.32,0,0,1,23,21l-1.18-.72a3.27,3.27,0,0,1,.27.49.86.86,0,0,0,.68.69c.19,0,.36.25.54.25s.34-.18.52-.26a1.22,1.22,0,0,1,1.84.75,1.62,1.62,0,0,1,0,.9A2.64,2.64,0,0,1,25,24.23a.31.31,0,0,1-.19.09h-.7l.21-.18a2.37,2.37,0,0,0,.81-1.36A1,1,0,0,0,25,22a.51.51,0,0,0-.58-.22c-.31.13-.61.3-.91.46a1.35,1.35,0,0,0-.19.16,4.35,4.35,0,0,0-.43-.32,3.62,3.62,0,0,0-.48-.25.69.69,0,0,0-1,.69A2,2,0,0,0,22,23.94c.11.12.24.23.38.36H20.85c.09-.13.17-.26.26-.38a.21.21,0,0,0,0-.28,1.92,1.92,0,0,1-.25-1.34,1.3,1.3,0,0,1,.85-1l-.47-.85-.3.36A4.8,4.8,0,0,1,19.34,22a.32.32,0,0,1-.27,0l-1.41-.89c-.35-.23-.7-.47-1.06-.69s-.28-.14-.49.09c.17.26.35.5.49.76a2.94,2.94,0,0,1,0,2.54c-.28.71-.11.54-.87.55l.11-.21a3.65,3.65,0,0,0,.49-1.79,2.19,2.19,0,0,0-.65-1.47c-.13.09-.23.18-.35.25l-1.7,1a.33.33,0,0,1-.38,0l-1.59-.87a3.66,3.66,0,0,1-.12.35,2.22,2.22,0,0,1-1.19,1,.35.35,0,0,1-.26,0,2,2,0,0,1-1.23-1.49c-.75,1.13-.37,2.16.17,3.19H8.34a2.1,2.1,0,0,0-.06-.24,4.62,4.62,0,0,1-.4-1.42,2.68,2.68,0,0,1,.61-2c-.25-.31-.49-.62-.74-.92,0,0-.15-.05-.22,0A4.82,4.82,0,0,0,6,20.56c-.1.07-.19.16-.3.25l-.51-.4A9.75,9.75,0,0,1,2,22.78c.16.28.3.55.48.81s.36.47.57.73H2.37a.29.29,0,0,1-.18-.13,4.89,4.89,0,0,1-.81-1.42.63.63,0,0,0-.2-.23c-.2-.13-.41-.25-.62-.36a.29.29,0,0,1-.18-.32,3,3,0,0,0,0-.44l.29.19c.33.19.66.38,1,.56a.26.26,0,0,0,.21,0,9,9,0,0,0,2.65-1.93l0-.09Zm25.09.52a1.42,1.42,0,0,0-.22-.18c-.29-.14-.57-.3-.87-.41a.46.46,0,0,0-.51.16,1,1,0,0,0-.25.72,2.06,2.06,0,0,0,.34.9,4,4,0,0,0,1.45,1.21.34.34,0,0,0,.22,0,4.16,4.16,0,0,0,1.23-.94,2,2,0,0,0,.53-1.2.7.7,0,0,0-1-.76A7.77,7.77,0,0,0,30.13,20.11ZM19.19,19l-.38-.29a4.92,4.92,0,0,0-.45-.24.66.66,0,0,0-1,.51,1.11,1.11,0,0,0,0,.48A2.42,2.42,0,0,0,18.44,21c.88.6.63.6,1.52,0a2.69,2.69,0,0,0,.33-.26,2.65,2.65,0,0,0,.71-1,.59.59,0,0,0,0-.53,2,2,0,0,1-.17-.45c-.09-.32-.17-.38-.51-.32a1.59,1.59,0,0,0-.43.16C19.63,18.68,19.42,18.84,19.19,19Zm-9.3-.56A7.26,7.26,0,0,0,9,17.92a.71.71,0,0,0-1,.8,2.52,2.52,0,0,0,1.13,1.71.86.86,0,0,1,1-.05c.05,0,.11.07.15.06a2.45,2.45,0,0,0,.64-.26,2.15,2.15,0,0,0,.81-1.25.89.89,0,0,0-.29-1c-.29-.24-.6-.1-.89.05S10.1,18.29,9.89,18.43Zm22.45,1.05a1.61,1.61,0,0,1,.18,1.38.26.26,0,0,0,0,.12.7.7,0,0,0,.57.17l1.72-1.1a5.3,5.3,0,0,0,.46-.39,3.79,3.79,0,0,1-1.69-1.9C33.52,18.53,33.31,18.83,32.34,19.48ZM7.42,18.34c-.37.27-.75.63-1.21.17L5.51,20l.12.08h0l0,0,1.85-.93ZM32.16,18a3,3,0,0,0-.45-.28c-.08,0-.24-.06-.28,0a.39.39,0,0,0-.1.32,1.67,1.67,0,0,0,.27.51c.43.49.71.49,1.13,0a1.27,1.27,0,0,0,.26-.58c0-.24-.14-.35-.36-.25S32.32,17.87,32.16,18Zm-21.9,3.16a5.08,5.08,0,0,0-.43-.27c-.09,0-.26-.07-.3,0a.4.4,0,0,0-.1.34,1.3,1.3,0,0,0,.28.5c.56.52.53.52,1.08,0a1.46,1.46,0,0,0,.3-.53.33.33,0,0,0-.1-.31.32.32,0,0,0-.3,0A3.39,3.39,0,0,0,10.26,21.13Zm17.13,1a1.67,1.67,0,0,0-.36-.25c-.11-.05-.32-.1-.37,0a.44.44,0,0,0-.07.4,1.76,1.76,0,0,0,.43.58c.41.33.33.32.75,0a.94.94,0,0,0,.45-.66.51.51,0,0,0-.1-.34c-.05-.05-.22,0-.31,0A2.79,2.79,0,0,0,27.39,22.16Zm.39-1.4-.81.48c.32.35.64.13,1,0Z"/><path class="cls-4" d="M5,3.45,4.59,4a12.3,12.3,0,0,1-1,.74c-.75.43-.53.43-1.29,0A3.88,3.88,0,0,1,.93,3.53,2,2,0,0,1,.56,1.89,1.19,1.19,0,0,1,2.26,1c.19.07.37.2.57.28a.3.3,0,0,0,.23,0A9.15,9.15,0,0,1,4,.93a1,1,0,0,1,1.07.43A1.64,1.64,0,0,1,5.19,3.1C5.15,3.22,5.09,3.33,5,3.45ZM2.91,2.06a1.41,1.41,0,0,0-.17-.14c-.3-.16-.59-.32-.9-.45a.46.46,0,0,0-.5.13.88.88,0,0,0-.28.64,1.75,1.75,0,0,0,.33,1A3.84,3.84,0,0,0,2.85,4.45a.26.26,0,0,0,.21,0,4.33,4.33,0,0,0,1.3-1,1.89,1.89,0,0,0,.47-1.19.69.69,0,0,0-1-.7A8.94,8.94,0,0,0,2.91,2.06Z"/><path class="cls-4" d="M5,19.59l-.45.58a12.3,12.3,0,0,1-1,.74c-.75.43-.53.43-1.29,0A3.92,3.92,0,0,1,1,19.7a2.36,2.36,0,0,1-.44-1.34A2.23,2.23,0,0,1,.56,18c.15-.49.22-.54.73-.54H4.85a.33.33,0,0,1,.32.19,1.77,1.77,0,0,1,0,1.7C5.11,19.42,5.08,19.5,5,19.59ZM2.91,18.2a1.41,1.41,0,0,0-.17-.14c-.29-.15-.57-.32-.87-.44a.47.47,0,0,0-.61.22,1,1,0,0,0-.18.58,2.37,2.37,0,0,0,.28.89,3.62,3.62,0,0,0,1.5,1.29.31.31,0,0,0,.19,0,4.1,4.1,0,0,0,1.31-1,1.85,1.85,0,0,0,.47-1.19.69.69,0,0,0-1-.7A6.84,6.84,0,0,0,2.91,18.2Z"/><path class="cls-4" d="M23.28,6.28c-.15-.11-.29-.23-.45-.33a1.17,1.17,0,0,0-.31-.17c-.27-.12-.55-.23-.81,0a.86.86,0,0,0-.3.89c.05.21.12.4.19.63h-.48A.14.14,0,0,1,21,7.21a1.62,1.62,0,0,1,.13-1.63,1.1,1.1,0,0,1,1.26-.42,2.4,2.4,0,0,1,.62.26.42.42,0,0,0,.53,0,1.62,1.62,0,0,1,1.06-.32,1.33,1.33,0,0,1,1.11,1.54.24.24,0,0,0,0,.08c-.16.7-.06.57-.73.55a5.31,5.31,0,0,0,.19-.65.79.79,0,0,0-.55-1,1.34,1.34,0,0,0-.51.09,1.72,1.72,0,0,0-.42.23C23.53,6.08,23.41,6.18,23.28,6.28Z"/><path class="cls-4" d="M22.36,17.46H24l-.79.54Z"/><path class="cls-4" d="M35.91.83,35.42.45h1Z"/><path class="cls-4" d="M2.16.44,1.8.74,1.44.44Z"/></g></g></svg>