<svg xmlns="http://www.w3.org/2000/svg" viewBox="0 0 38.55 24.66"><defs><style>.cls-1{isolation:isolate;}.cls-2{opacity:0.15;}.cls-2,.cls-3{mix-blend-mode:multiply;}.cls-4{fill:#fff;}</style></defs><title>convert-CUSTOMIZE-SVG-03</title><g class="cls-1"><g id="Layer_1" data-name="Layer 1"><g class="cls-2"><path d="M23.53,1.09A.91.91,0,0,1,24.74,1,.92.92,0,0,1,25,2.12a3.55,3.55,0,0,1-1.39,1.51.21.21,0,0,1-.2,0,3.79,3.79,0,0,1-1.26-1.29A1.06,1.06,0,0,1,22,1.53.87.87,0,0,1,23.45,1Zm0,1.64.29.27a2.89,2.89,0,0,0,.31-.28s0-.11,0-.17a.41.41,0,0,0-.19,0,.61.61,0,0,0-.15.13c-.24-.21-.25-.38-.06-.6a4.4,4.4,0,0,1,.35-.39.79.79,0,0,0-1.18,0l.35.39c.21.23.19.41-.08.59L23,2.49c-.18.14-.1.29.27.5Z"/><path d="M27.84,1.08a.92.92,0,0,1,.87-.27A.88.88,0,0,1,29.35,2a2.73,2.73,0,0,1-.51.83A8,8,0,0,1,28,3.6a.23.23,0,0,1-.21,0A3.27,3.27,0,0,1,26.33,2a.88.88,0,0,1,.37-1A.86.86,0,0,1,27.79,1Zm-.59.63.37.4c.19.22.16.4-.08.58l-.24-.2c-.19.14-.1.29.27.49l.28-.24.15.14.14.11c.45-.37.47-.39.25-.5l-.25.2c-.26-.22-.27-.36-.05-.6l.33-.38A.77.77,0,0,0,27.25,1.71Z"/><path d="M14.93,23.48a.9.9,0,0,1-.84.29.87.87,0,0,1-.68-1.12,2,2,0,0,1,.34-.69c.28-.32.61-.6.91-.9a.35.35,0,0,1,.53,0,4.22,4.22,0,0,1,1.08,1.15,1.21,1.21,0,0,1,.22.78.89.89,0,0,1-.58.75A.88.88,0,0,1,14.93,23.48Zm-.3-1.91a3,3,0,0,0-.31.29s0,.11,0,.17a.43.43,0,0,0,.16,0,.89.89,0,0,0,.19-.17,1.08,1.08,0,0,1,.16.26c.06.37-.33.49-.45.76a.78.78,0,0,0,1.16,0l-.35-.39c-.21-.23-.19-.4.07-.6l.24.21c.17-.16.12-.26-.27-.51l-.28.26Z"/><path d="M23.54,23.48a.88.88,0,0,1-.84.29.9.9,0,0,1-.67-1.2,2,2,0,0,1,.22-.46A4.41,4.41,0,0,1,23.39,21a.23.23,0,0,1,.29,0,4.2,4.2,0,0,1,1.24,1.28,1.17,1.17,0,0,1,.17.79A.89.89,0,0,1,23.54,23.48Zm-.3-1.61c.26.23.26.38,0,.62l-.33.38a.79.79,0,0,0,1.17,0l-.36-.4a.34.34,0,0,1,.09-.58A1.66,1.66,0,0,0,24,22a.52.52,0,0,0,.18,0c0-.06,0-.14,0-.18a4,4,0,0,0-.3-.28l-.3.26-.29-.25c-.45.36-.46.36-.26.5Z"/><path d="M27.84,23.49a.9.9,0,0,1-1.54-.41,1.16,1.16,0,0,1,.18-.85A3.86,3.86,0,0,1,27.73,21,.25.25,0,0,1,28,21a4,4,0,0,1,1.26,1.31,1.12,1.12,0,0,1,.14.84.87.87,0,0,1-1.37.49Zm.57-.62a.06.06,0,0,0,0,0l-.32-.36c-.21-.24-.19-.4.08-.59l.24.21c.17-.17.12-.26-.27-.51l-.29.25-.29-.26a2.46,2.46,0,0,0-.33.31s0,.1,0,.16.1,0,.14,0a1.3,1.3,0,0,0,.18-.15c.24.18.27.36.08.58s-.25.27-.36.41A.77.77,0,0,0,28.41,22.87Z"/><path d="M10.63,1.08a.88.88,0,0,1,1-.23A.9.9,0,0,1,12.12,2a3.35,3.35,0,0,1-1.43,1.59.19.19,0,0,1-.18,0,3.8,3.8,0,0,1-1.3-1.37.92.92,0,0,1,1.42-1.16Zm.3,1.61c-.25-.19-.27-.36-.07-.59l.35-.4a.75.75,0,0,0-1.16,0l.35.4c.21.23.18.41-.1.56l-.23-.2c-.18.16-.13.24.27.51l.28-.25.15.13.14.12c.4-.26.45-.35.26-.5Z"/><path d="M14.93,1.09a.87.87,0,0,1,.85-.28A.91.91,0,0,1,16.43,2a2.92,2.92,0,0,1-.78,1.09c-.12.11-.24.22-.37.32-.35.27-.38.29-.69,0a9.87,9.87,0,0,1-1-1.06,1.07,1.07,0,0,1-.22-.88A.9.9,0,0,1,14.93,1.09Zm.54,1.4-.24.21c-.25-.22-.26-.38-.06-.61l.35-.39a.79.79,0,0,0-1.18,0l.37.41a.34.34,0,0,1-.1.57.58.58,0,0,0-.14-.13.47.47,0,0,0-.17,0c0,.06,0,.14,0,.19a2.61,2.61,0,0,0,.3.27l.29-.26.15.12.15.14C15.67,2.64,15.67,2.63,15.47,2.49Z"/><path d="M10.63,23.49a.94.94,0,0,1-.85.28.9.9,0,0,1-.67-1.17,1.83,1.83,0,0,1,.23-.49A4.19,4.19,0,0,1,10.47,21a.21.21,0,0,1,.29,0A3.92,3.92,0,0,1,12,22.28a1,1,0,0,1-.28,1.39A.89.89,0,0,1,10.63,23.49Zm-.31-1.62c.27.23.28.37.06.61l-.34.39a.76.76,0,0,0,1.16,0l-.35-.39c-.19-.22-.17-.4.08-.58a.65.65,0,0,0,.16.13.65.65,0,0,0,.16,0c0-.06,0-.14,0-.18l-.32-.29-.3.26-.3-.26c-.11.11-.22.19-.32.3s0,.1,0,.16.12,0,.17,0A.76.76,0,0,0,10.32,21.87Z"/><path d="M6.35,1.09a.91.91,0,0,1,1-.23.89.89,0,0,1,.55,1,1.94,1.94,0,0,1-.62,1c-.25.25-.55.46-.83.69a.2.2,0,0,1-.28,0A3.8,3.8,0,0,1,5,2.29a1.45,1.45,0,0,1-.16-.76A.87.87,0,0,1,6.26,1Zm-.6.6.36.43A.32.32,0,0,1,6,2.67s-.07-.09-.12-.11a.63.63,0,0,0-.19,0,.58.58,0,0,0,0,.19A3.71,3.71,0,0,0,6,3l.3-.25L6.59,3l.14-.1a1.62,1.62,0,0,0,.19-.17s0-.11,0-.17-.13,0-.18,0a.61.61,0,0,0-.16.12c-.24-.19-.26-.36-.07-.57l.38-.41A.78.78,0,0,0,5.75,1.69Z"/><path d="M37.38,16.59a.91.91,0,0,1,.2,1.08.85.85,0,0,1-.89.47,1.9,1.9,0,0,1-.78-.34,11.14,11.14,0,0,1-1-1,.23.23,0,0,1,0-.33,4.12,4.12,0,0,1,1.25-1.21,1.1,1.1,0,0,1,.81-.17.87.87,0,0,1,.5,1.46A.28.28,0,0,0,37.38,16.59ZM36.76,16l-.41.36a.33.33,0,0,1-.57-.08,1,1,0,0,0,.13-.16.88.88,0,0,0,0-.16c-.06,0-.14,0-.18,0a3,3,0,0,0-.29.32l.26.29-.26.3c.11.12.2.23.3.32s.11,0,.16,0,0-.11,0-.16a1.15,1.15,0,0,0-.16-.19.8.8,0,0,1,.25-.16c.38-.06.49.33.77.45A.78.78,0,0,0,36.76,16Z"/><path d="M37.38,12.29a.9.9,0,0,1-1,1.49,3.41,3.41,0,0,1-1.57-1.41.21.21,0,0,1,0-.19,3.71,3.71,0,0,1,1.42-1.33.94.94,0,0,1,1.1.1C37.78,11.3,37.78,11.78,37.38,12.29ZM35.77,12a2,2,0,0,0,.14-.16.88.88,0,0,0,0-.17c-.06,0-.14,0-.18,0s-.19.2-.29.31l.26.3-.27.3.31.32a.46.46,0,0,0,.17,0,.7.7,0,0,0,0-.16,1.27,1.27,0,0,0-.14-.17c.2-.26.36-.27.59-.07l.39.34a.72.72,0,0,0,0-1.15l-.38.34C36.14,12.25,36,12.24,35.77,12Z"/><path d="M6.36,23.49a.9.9,0,0,1-1.39,0,.86.86,0,0,1-.13-.91A3.48,3.48,0,0,1,6.2,21a.19.19,0,0,1,.18,0,3.63,3.63,0,0,1,1.33,1.31,1.42,1.42,0,0,1,.17.72.88.88,0,0,1-1.44.58ZM6,21.88c.27.22.28.36.08.61l-.33.39a.77.77,0,0,0,1.17,0l-.38-.39c-.2-.22-.18-.4.08-.57l.14.11a.55.55,0,0,0,.18,0c0-.06,0-.14,0-.17a2.92,2.92,0,0,0-.32-.28l-.29.27L6,21.58a3.17,3.17,0,0,0-.32.31s0,.11,0,.16.11,0,.14,0A.72.72,0,0,0,6,21.88Z"/><path d="M36.92,21.37a.88.88,0,0,1-.71,1.2.9.9,0,0,1-.9-.39,3.61,3.61,0,0,1-.7-1.89c0-.05,0-.13.1-.16a3.76,3.76,0,0,1,1.82-.55,1,1,0,0,1,1,.71C37.66,20.77,37.46,21.11,36.92,21.37Zm-.82.24a.77.77,0,0,0,.52-1l-.51.13c-.3.07-.44,0-.48-.34a.67.67,0,0,0,.17-.07.83.83,0,0,0,.11-.15c-.06,0-.13-.07-.17-.05a3.17,3.17,0,0,0-.4.14l.1.39-.37.14a3.56,3.56,0,0,0,.12.42c0,.05.09.07.14.1a1,1,0,0,0,.07-.15.8.8,0,0,0,0-.21c.27-.15.44-.09.54.17Z"/><path d="M1.09,16.59a.91.91,0,0,1-.24-1A.79.79,0,0,1,1.6,15a1.73,1.73,0,0,1,.74.19A3.62,3.62,0,0,1,3.6,16.46a.29.29,0,0,1,0,.24A3.61,3.61,0,0,1,2.18,18a.92.92,0,0,1-1.3-.39A.87.87,0,0,1,1.09,16.59ZM1.71,16a.74.74,0,0,0,0,1.16l.38-.34c.22-.19.4-.17.59.08a.61.61,0,0,0-.15.17s0,.1,0,.16.13,0,.16,0A2.89,2.89,0,0,0,3,16.89l-.26-.3L3,16.3a3.28,3.28,0,0,0-.3-.33s-.1,0-.16,0,0,.12,0,.16a1.27,1.27,0,0,0,.14.17c-.18.25-.36.27-.58.08Z"/><path d="M1.54,3.2a.9.9,0,0,1,1.52-.92,3.56,3.56,0,0,1,.8,2s0,.12-.1.14A3.73,3.73,0,0,1,1.92,5a1,1,0,0,1-1-.73C.81,3.8,1,3.45,1.54,3.2Zm1.86.61c0-.13-.06-.25-.1-.35s-.11-.11-.16-.17a.59.59,0,0,0-.05.22c0,.16-.08.28-.22.23a.71.71,0,0,1-.28-.23A5.09,5.09,0,0,1,2.37,3a.75.75,0,0,0-.52,1h0l.47-.12c.31-.08.44,0,.51.32a1.33,1.33,0,0,0-.21.09s-.05.1-.08.15.1.07.14.06l.43-.16L3,4Z"/><path d="M36.92,3.21A.9.9,0,0,1,36.7,5a3.46,3.46,0,0,1-2-.55.18.18,0,0,1-.09-.16,3.74,3.74,0,0,1,.69-1.88.91.91,0,0,1,1.62.82Zm-.29.8a.77.77,0,0,0-.53-1h0l-.21.51c-.1.25-.3.3-.53.14a.51.51,0,0,0,0-.2.34.34,0,0,0-.07-.15s-.11,0-.13.08-.08.29-.11.44l.36.14-.1.39c.14,0,.26.11.38.14s.12,0,.19-.05a.83.83,0,0,0-.11-.15.84.84,0,0,0-.19-.08c.09-.33.21-.4.52-.32Z"/><path d="M1.55,21.37A.9.9,0,0,1,.91,20.3a.92.92,0,0,1,.81-.7,3.49,3.49,0,0,1,2.06.54.18.18,0,0,1,.08.15,3.62,3.62,0,0,1-.71,1.9.92.92,0,0,1-1.4.13A.9.9,0,0,1,1.55,21.37ZM3,20.62l.1-.39-.4-.15c-.05,0-.11,0-.16.06s0,.11.08.14a1.33,1.33,0,0,0,.21.09c-.07.32-.2.4-.51.32l-.5-.13a.78.78,0,0,0,.53,1l.21-.53c.1-.25.3-.3.54-.14a.39.39,0,0,0,0,.18.58.58,0,0,0,.06.17s.12-.07.14-.12a3.79,3.79,0,0,0,.12-.4Z"/><path d="M32.12,23.48a.89.89,0,0,1-1,.19.92.92,0,0,1-.4-1.25,3.48,3.48,0,0,1,1-1.19l.07-.05c.52-.36.4-.37.89,0a3.28,3.28,0,0,1,1,1.22.91.91,0,0,1-.51,1.31A.86.86,0,0,1,32.12,23.48Zm.59-.59v0l-.33-.39c-.2-.25-.18-.4.08-.59.28.24.28.24.37.08l-.36-.39-.31.25-.29-.27a3.31,3.31,0,0,0-.34.3s0,.11,0,.16a.37.37,0,0,0,.15,0l.17-.14c.25.19.27.36.08.57s-.26.27-.38.41A.78.78,0,0,0,32.71,22.89Z"/><path d="M32.12,1.09a.91.91,0,0,1,.71-.32.9.9,0,0,1,.85,1.06,2.58,2.58,0,0,1-.84,1.33,4.6,4.6,0,0,1-.54.45.24.24,0,0,1-.2,0,3.49,3.49,0,0,1-1.41-1.44.91.91,0,0,1,.43-1.3A.88.88,0,0,1,32.12,1.09Zm.34,1.6c-.26-.23-.28-.36-.07-.61l.33-.4a.77.77,0,0,0-1.16.05l.37.4c.2.21.17.41-.09.56a1,1,0,0,0-.16-.13s-.1,0-.16,0,0,.13,0,.16.21.19.32.29l.29-.27.35.29c.09-.12.18-.21.26-.33s0-.11,0-.17a.63.63,0,0,0-.19,0S32.52,2.64,32.46,2.69Z"/><path d="M37.38,8a.9.9,0,0,1-.09,1.41.92.92,0,0,1-.93.07,3.58,3.58,0,0,1-1.52-1.39.21.21,0,0,1,0-.19,3.61,3.61,0,0,1,1.43-1.34.93.93,0,0,1,1.38.59A.9.9,0,0,1,37.38,8Zm-.62.59a.77.77,0,0,0,0-1.17c-.13.12-.27.25-.41.36s-.39.15-.57-.09a1,1,0,0,0,.14-.15.44.44,0,0,0,0-.16c-.06,0-.14,0-.17,0s-.2.21-.3.32l.27.3-.27.3c.1.11.19.23.29.32s.11,0,.17,0,0-.12,0-.16a1.22,1.22,0,0,0-.15-.17c.19-.25.37-.27.59-.08Z"/><path d="M1.09,12.28a.92.92,0,0,1-.29-.83A.91.91,0,0,1,2,10.76a2.4,2.4,0,0,1,1,.67c.22.22.4.47.6.71a.2.2,0,0,1,0,.28,4.2,4.2,0,0,1-1.28,1.24,1.14,1.14,0,0,1-.88.15A.88.88,0,0,1,1,12.4ZM3,12a3,3,0,0,0-.29-.31s-.12,0-.18,0a1,1,0,0,0,0,.18A1,1,0,0,0,2.7,12c-.2.25-.37.26-.59.06l-.4-.34a.76.76,0,0,0,0,1.16l.41-.36c.22-.19.4-.17.57.09a.7.7,0,0,0-.13.16.39.39,0,0,0,0,.16c.06,0,.14,0,.18,0s.19-.2.29-.31l-.27-.29Z"/><path d="M1.09,8A.91.91,0,0,1,2.16,6.53a3.08,3.08,0,0,1,1.18,1c.43.53.46.42,0,1a4.93,4.93,0,0,1-1,.85,1.48,1.48,0,0,1-.75.2A.8.8,0,0,1,.85,9,.89.89,0,0,1,1.09,8Zm.62.58.41-.37a.33.33,0,0,1,.57.1s-.1.09-.12.14a.52.52,0,0,0,0,.18c.06,0,.14,0,.18,0s.18-.21.28-.32L2.74,8,3,7.68c-.1-.11-.18-.21-.28-.3s-.12,0-.18,0a.63.63,0,0,0,0,.19.38.38,0,0,0,.11.14.34.34,0,0,1-.58.08l-.4-.36A.79.79,0,0,0,1.71,8.57Z"/><path d="M19.18,23.53a.87.87,0,0,1-1.32-.09.9.9,0,0,1-.1-1,3.57,3.57,0,0,1,1.39-1.54.25.25,0,0,1,.19,0,3.61,3.61,0,0,1,1.34,1.43.92.92,0,0,1-.82,1.39A3.16,3.16,0,0,1,19.18,23.53Zm-.25-1.66c.26.22.27.37.07.6l-.34.39a.73.73,0,0,0,1.15,0l-.34-.38c-.21-.24-.19-.39.07-.59l.24.2c.19-.13.12-.27-.27-.5l-.28.25-.29-.27-.33.31s0,.11,0,.17a.78.78,0,0,0,.16,0A.76.76,0,0,0,18.93,21.87Z"/><path d="M19.23,1.08a.89.89,0,0,1,1.38.06.93.93,0,0,1,.1,1,3.08,3.08,0,0,1-1,1.25c-.52.42-.4.43-.94,0a3.39,3.39,0,0,1-1-1.18A.93.93,0,0,1,18.37.81.91.91,0,0,1,19.23,1.08Zm.56,1.4-.26.21c-.25-.22-.26-.36-.06-.59l.35-.39a.76.76,0,0,0-1.16,0c.11.14.23.27.35.41s.17.39-.09.57c-.05,0-.09-.1-.14-.12a.53.53,0,0,0-.18,0c0,.06,0,.14,0,.18a2.94,2.94,0,0,0,.31.3l.3-.27.29.26C20,2.66,20,2.65,19.79,2.48Z"/><path d="M23.73,1.29a.91.91,0,0,1,1.21-.13.92.92,0,0,1,.26,1.16,3.51,3.51,0,0,1-1.38,1.5.21.21,0,0,1-.2,0,3.79,3.79,0,0,1-1.26-1.29,1.15,1.15,0,0,1-.17-.79.88.88,0,0,1,1.46-.51Zm0,1.64L24,3.2a2.89,2.89,0,0,0,.31-.28s0-.12,0-.18a.54.54,0,0,0-.19,0,.44.44,0,0,0-.15.12c-.24-.2-.26-.37-.06-.6l.34-.39a.78.78,0,0,0-1.17,0l.35.39c.21.23.19.41-.08.58l-.23-.19c-.18.14-.1.28.27.5Z"/><path d="M28,1.28A.92.92,0,0,1,28.91,1a.89.89,0,0,1,.64,1.19A3,3,0,0,1,29,3a9,9,0,0,1-.86.78.23.23,0,0,1-.21,0,3.31,3.31,0,0,1-1.44-1.65.89.89,0,0,1,.37-1.06A.87.87,0,0,1,28,1.24Zm-.59.63.36.4c.2.22.17.4-.07.58l-.24-.2c-.19.14-.11.29.27.49L28,2.94c.07.05.11.1.16.14l.14.11c.45-.37.46-.39.25-.5l-.25.2c-.26-.22-.27-.36-.05-.6l.33-.38A.77.77,0,0,0,27.45,1.91Z"/><path d="M15.13,23.68a.92.92,0,0,1-.84.29.88.88,0,0,1-.69-1.12,2.14,2.14,0,0,1,.35-.69c.27-.32.6-.6.91-.9a.35.35,0,0,1,.53,0,4.22,4.22,0,0,1,1.08,1.15,1.14,1.14,0,0,1,.21.78.86.86,0,0,1-.57.75A.9.9,0,0,1,15.13,23.68Zm-.3-1.91a3.09,3.09,0,0,0-.32.29s0,.11,0,.17a.4.4,0,0,0,.16,0,1.4,1.4,0,0,0,.2-.17c.06.1.14.17.15.26.07.37-.32.49-.45.76a.79.79,0,0,0,1.17,0l-.35-.39c-.21-.24-.19-.4.07-.6l.24.21c.17-.16.11-.26-.27-.51l-.28.25Z"/><path d="M23.73,23.68a.88.88,0,0,1-.83.29.9.9,0,0,1-.67-1.2,1.62,1.62,0,0,1,.22-.46,4.12,4.12,0,0,1,1.14-1.14.23.23,0,0,1,.29,0,4.06,4.06,0,0,1,1.23,1.28,1.17,1.17,0,0,1,.17.79A.89.89,0,0,1,23.73,23.68Zm-.29-1.61c.25.23.26.38,0,.62l-.33.38a.79.79,0,0,0,1.17,0L24,22.65a.33.33,0,0,1,.09-.57c.05,0,.09.1.14.12a.52.52,0,0,0,.18,0c0-.06,0-.14,0-.19a2.5,2.5,0,0,0-.29-.27l-.3.26-.3-.26c-.45.36-.45.37-.25.51Z"/><path d="M28,23.68a.89.89,0,0,1-1.54-.4,1.16,1.16,0,0,1,.18-.85,3.89,3.89,0,0,1,1.25-1.27.29.29,0,0,1,.24,0,4,4,0,0,1,1.26,1.31,1.11,1.11,0,0,1,.14.83.89.89,0,0,1-1.38.5Zm.57-.61s0,0,0,0-.22-.24-.32-.37-.2-.39.07-.58l.25.21c.17-.17.12-.26-.27-.51L28,22l-.3-.26-.33.3s0,.11,0,.16.1,0,.14,0a.79.79,0,0,0,.18-.14c.24.18.27.36.07.58l-.36.4A.77.77,0,0,0,28.61,23.07Z"/><path d="M10.83,1.28a.88.88,0,0,1,1-.23.9.9,0,0,1,.5,1.19,3.35,3.35,0,0,1-1.43,1.59.22.22,0,0,1-.19,0A3.77,3.77,0,0,1,9.41,2.44.93.93,0,0,1,10,1C10.24.93,10.46,1,10.83,1.28Zm.29,1.61c-.24-.19-.26-.37-.06-.59l.35-.4a.75.75,0,0,0-1.16,0l.35.39c.2.24.17.42-.1.57l-.23-.2c-.18.16-.13.24.26.51l.29-.25.15.13.13.12c.41-.26.45-.35.27-.5Z"/><path d="M15.13,1.29A.89.89,0,0,1,16,1a.91.91,0,0,1,.64,1.24,2.79,2.79,0,0,1-.77,1.09l-.37.32c-.35.27-.38.29-.69,0a9.1,9.1,0,0,1-1-1.07,1,1,0,0,1-.22-.87A.9.9,0,0,1,15.13,1.29Zm.54,1.4-.24.21c-.25-.22-.26-.39-.06-.61l.35-.39a.79.79,0,0,0-1.18,0l.36.41a.33.33,0,0,1-.09.57.44.44,0,0,0-.14-.13.86.86,0,0,0-.17,0c0,.07,0,.15,0,.19a2.74,2.74,0,0,0,.3.28l.29-.26.15.12.15.13C15.87,2.84,15.87,2.83,15.67,2.69Z"/><path d="M10.82,23.68a.89.89,0,0,1-1.51-.88,1.83,1.83,0,0,1,.23-.49,4.05,4.05,0,0,1,1.13-1.13.21.21,0,0,1,.28,0,4,4,0,0,1,1.26,1.32,1,1,0,0,1-.28,1.38A.88.88,0,0,1,10.82,23.68Zm-.3-1.61c.27.23.27.37.06.61l-.34.39a.76.76,0,0,0,1.16,0l-.35-.39c-.19-.22-.17-.4.08-.58a1,1,0,0,0,.16.13.65.65,0,0,0,.16,0c0-.06,0-.14,0-.18a2.89,2.89,0,0,0-.32-.29l-.3.26-.3-.26a2.31,2.31,0,0,0-.32.3s0,.1,0,.15.12,0,.17,0A.53.53,0,0,0,10.52,22.07Z"/><path d="M6.55,1.29a.9.9,0,0,1,1-.23.88.88,0,0,1,.56,1,2,2,0,0,1-.62,1c-.26.25-.55.46-.83.69a.2.2,0,0,1-.28,0,3.59,3.59,0,0,1-1.18-1.3A1.3,1.3,0,0,1,5,1.73.87.87,0,0,1,6.46,1.2Zm-.6.6.36.43a.32.32,0,0,1-.13.55s-.07-.09-.12-.11a.65.65,0,0,0-.19,0c0,.07,0,.15,0,.2a3.71,3.71,0,0,0,.29.27l.3-.25.29.26.14-.1a1.09,1.09,0,0,0,.19-.18s0-.1,0-.16a.53.53,0,0,0-.18,0,1,1,0,0,0-.16.13c-.24-.19-.26-.36-.07-.57s.25-.27.38-.41A.78.78,0,0,0,6,1.89Z"/><path d="M37.57,16.78a.9.9,0,0,1,.21,1.08.85.85,0,0,1-.89.48A2,2,0,0,1,36.1,18a12.4,12.4,0,0,1-1-1,.22.22,0,0,1,0-.33,4.12,4.12,0,0,1,1.25-1.21,1.15,1.15,0,0,1,.81-.18.88.88,0,0,1,.5,1.47ZM37,16.2l-.4.36c-.22.19-.4.17-.58-.08a1.07,1.07,0,0,0,.14-.16.88.88,0,0,0,0-.16c-.06,0-.15,0-.18,0s-.19.22-.29.33l.26.29-.26.3c.11.12.2.23.3.32s.11,0,.16,0,0-.11,0-.16a1.2,1.2,0,0,0-.17-.2c.1-.06.18-.14.26-.15.37-.06.49.33.77.45A.77.77,0,0,0,37,16.2Z"/><path d="M37.58,12.49a.9.9,0,0,1-1,1.49A3.5,3.5,0,0,1,35,12.56a.23.23,0,0,1,0-.18,3.67,3.67,0,0,1,1.41-1.33,1,1,0,0,1,1.11.1C38,11.5,38,12,37.58,12.49ZM36,12.18A1,1,0,0,0,36.1,12s0-.1,0-.16-.14,0-.18,0a2.87,2.87,0,0,0-.29.31l.26.29-.27.31c.12.11.21.22.31.31s.11,0,.17,0a.7.7,0,0,0,0-.16,1.27,1.27,0,0,0-.14-.17c.2-.26.36-.27.59-.07l.39.34a.73.73,0,0,0,0-1.15l-.38.33C36.33,12.45,36.17,12.44,36,12.18Z"/><path d="M6.55,23.68a.89.89,0,0,1-1.38,0A.9.9,0,0,1,5,22.74,3.53,3.53,0,0,1,6.4,21.15a.19.19,0,0,1,.18,0,3.71,3.71,0,0,1,1.33,1.31,1.42,1.42,0,0,1,.17.72.88.88,0,0,1-1.44.58Zm-.35-1.6c.27.22.28.36.08.6l-.33.4a.76.76,0,0,0,1.16,0l-.37-.4c-.2-.21-.18-.4.08-.57a.81.81,0,0,0,.14.12.52.52,0,0,0,.18,0c0-.06,0-.14,0-.17a2.92,2.92,0,0,0-.32-.28L6.5,22l-.3-.25a2.36,2.36,0,0,0-.32.31s0,.11,0,.16.1,0,.14,0A1.36,1.36,0,0,0,6.2,22.08Z"/><path d="M37.12,21.57a.89.89,0,0,1-.71,1.2.91.91,0,0,1-.9-.39,3.71,3.71,0,0,1-.71-1.89.23.23,0,0,1,.11-.16,3.66,3.66,0,0,1,1.82-.55,1,1,0,0,1,1,.71C37.86,21,37.66,21.31,37.12,21.57Zm-.82.23a.76.76,0,0,0,.51-1l-.5.13c-.3.08-.44,0-.48-.33l.17-.07a.49.49,0,0,0,.1-.15c-.05,0-.12-.07-.17-.06s-.26.1-.39.15l.1.39-.37.14a4.21,4.21,0,0,0,.12.42c0,.05.09.07.13.1a.34.34,0,0,0,.07-.15,1.7,1.7,0,0,0,0-.22c.27-.14.44-.08.54.18Z"/><path d="M1.29,16.78a.89.89,0,0,1-.24-1,.79.79,0,0,1,.75-.56,1.6,1.6,0,0,1,.74.19A3.62,3.62,0,0,1,3.8,16.66a.26.26,0,0,1,0,.24,3.59,3.59,0,0,1-1.43,1.33.92.92,0,0,1-1.3-.39A.89.89,0,0,1,1.29,16.78Zm.62-.58a.74.74,0,0,0,0,1.16L2.31,17c.22-.19.4-.17.58.08a.79.79,0,0,0-.14.17s0,.1,0,.16.13,0,.16,0,.2-.21.29-.32l-.26-.3.27-.3c-.11-.12-.2-.23-.3-.32s-.1,0-.16,0,0,.12,0,.16a1.15,1.15,0,0,0,.14.17c-.19.25-.36.27-.58.07Z"/><path d="M1.74,3.4a.91.91,0,0,1,.73-1.21.85.85,0,0,1,.78.29,3.47,3.47,0,0,1,.81,2s0,.12-.1.14a3.62,3.62,0,0,1-1.84.54,1,1,0,0,1-1-.72C1,4,1.21,3.65,1.74,3.4ZM3.6,4c0-.14-.06-.25-.1-.35a.91.91,0,0,0-.17-.17.85.85,0,0,0,0,.22c0,.15-.08.28-.22.23a.66.66,0,0,1-.28-.24,4.2,4.2,0,0,1-.22-.53.74.74,0,0,0-.52,1h0l.47-.12c.31-.08.44,0,.5.32a1.76,1.76,0,0,0-.2.09s0,.1-.08.14.1.08.14.07l.42-.17-.1-.38Z"/><path d="M37.12,3.41a.9.9,0,0,1-.22,1.77,3.59,3.59,0,0,1-2-.55.19.19,0,0,1-.08-.16,3.74,3.74,0,0,1,.69-1.88A.93.93,0,0,1,37,2.53,1,1,0,0,1,37.12,3.41Zm-.29.8a.77.77,0,0,0-.53-1h0l-.21.51c-.1.25-.3.3-.53.14a1.77,1.77,0,0,0,0-.2.34.34,0,0,0-.07-.15s-.11,0-.13.08-.08.29-.12.44l.37.14-.1.39c.14,0,.26.11.38.14s.12,0,.18,0a.49.49,0,0,0-.1-.15.54.54,0,0,0-.19-.08c.09-.33.21-.4.52-.32Z"/><path d="M1.75,21.57a.89.89,0,0,1-.64-1.07.91.91,0,0,1,.8-.7A3.5,3.5,0,0,1,4,20.34a.17.17,0,0,1,.08.15,3.62,3.62,0,0,1-.71,1.9.92.92,0,0,1-1.4.13A.9.9,0,0,1,1.75,21.57Zm1.47-.75.1-.39a2.26,2.26,0,0,0-.41-.15s-.1,0-.15.06,0,.11.08.14a1.33,1.33,0,0,0,.21.09c-.08.32-.2.4-.51.32L2,20.76a.78.78,0,0,0,.53,1l.21-.53c.1-.25.3-.3.54-.14a.39.39,0,0,0,0,.18.7.7,0,0,0,.06.17c.05,0,.12-.07.14-.12a2.62,2.62,0,0,0,.11-.4Z"/><path d="M32.32,23.68a.9.9,0,0,1-1.06.19.93.93,0,0,1-.39-1.25,3.39,3.39,0,0,1,1-1.19l.07-.05c.52-.36.4-.37.89,0a3.33,3.33,0,0,1,1,1.21A.92.92,0,0,1,33.28,24,.86.86,0,0,1,32.32,23.68Zm.59-.59s0,0,0,0l-.32-.39c-.2-.25-.18-.4.08-.59.28.23.28.23.36.08l-.35-.4-.31.26-.29-.27a3.31,3.31,0,0,0-.34.3s0,.1,0,.16a.37.37,0,0,0,.15,0l.17-.14c.25.19.27.36.08.57s-.26.27-.38.41A.78.78,0,0,0,32.91,23.09Z"/><path d="M32.32,1.29A.88.88,0,0,1,33,1,.9.9,0,0,1,33.88,2,2.6,2.6,0,0,1,33,3.36a4.42,4.42,0,0,1-.53.44.23.23,0,0,1-.21,0,3.64,3.64,0,0,1-1.41-1.45.91.91,0,0,1,.44-1.29A.88.88,0,0,1,32.32,1.29Zm.34,1.6c-.26-.23-.28-.36-.07-.61l.33-.4a.78.78,0,0,0-1.17.05l.38.4c.2.21.17.41-.09.56a1,1,0,0,0-.16-.13s-.11,0-.16,0,0,.13,0,.16.22.19.33.29l.29-.27.35.28A3.49,3.49,0,0,0,33,2.9s0-.11,0-.17a.55.55,0,0,0-.19,0A.66.66,0,0,0,32.66,2.89Z"/><path d="M37.58,8.18a.9.9,0,0,1-.1,1.41,1,1,0,0,1-.92.07A3.6,3.6,0,0,1,35,8.26a.17.17,0,0,1,0-.18,3.61,3.61,0,0,1,1.43-1.34.92.92,0,0,1,1.37.58A.88.88,0,0,1,37.58,8.18ZM37,8.77A.77.77,0,0,0,37,7.6L36.54,8q-.32.27-.57-.09a.65.65,0,0,0,.13-.16s0-.1,0-.15-.14,0-.17,0-.2.21-.3.32l.26.3-.26.29c.1.12.19.23.29.33s.11,0,.16,0,0-.12,0-.16A.58.58,0,0,0,36,8.49c.19-.25.37-.27.59-.08Z"/><path d="M1.29,12.48A.93.93,0,0,1,1,11.65.91.91,0,0,1,2.16,11a2.31,2.31,0,0,1,1,.67c.21.22.4.47.6.71a.2.2,0,0,1,0,.28,4.13,4.13,0,0,1-1.29,1.24,1.11,1.11,0,0,1-.87.15.88.88,0,0,1-.46-1.41Zm1.92-.29a3,3,0,0,0-.29-.31s-.12,0-.18,0a1,1,0,0,0,0,.18.88.88,0,0,0,.12.15c-.19.25-.36.27-.58.07l-.4-.35a.77.77,0,0,0,0,1.17l.41-.36c.22-.2.4-.17.57.08a1,1,0,0,0-.13.16.44.44,0,0,0,0,.16c.06,0,.14,0,.18,0s.19-.2.29-.31l-.27-.3Z"/><path d="M1.29,8.18A.91.91,0,0,1,1,7.35a.92.92,0,0,1,1.36-.62,3.08,3.08,0,0,1,1.18,1c.43.53.46.42,0,1a4.58,4.58,0,0,1-1,.84,1.39,1.39,0,0,1-.75.21.79.79,0,0,1-.75-.56A.91.91,0,0,1,1.29,8.18Zm.62.59.41-.37a.33.33,0,0,1,.57.1.53.53,0,0,0-.12.14.36.36,0,0,0,0,.18c.06,0,.14,0,.17,0a2.79,2.79,0,0,0,.28-.32l-.26-.29.26-.3a2,2,0,0,0-.28-.3s-.11,0-.17,0a.63.63,0,0,0,0,.19.49.49,0,0,0,.11.14c-.18.25-.36.27-.58.08L1.9,7.59A.8.8,0,0,0,1.91,8.77Z"/><path d="M19.38,23.73a.87.87,0,0,1-1.32-.09.93.93,0,0,1-.11-1,3.65,3.65,0,0,1,1.4-1.54.19.19,0,0,1,.19,0,3.68,3.68,0,0,1,1.34,1.43A.91.91,0,0,1,20.06,24,2.65,2.65,0,0,1,19.38,23.73Zm-.25-1.66c.25.22.27.37.07.59l-.35.4a.73.73,0,0,0,1.15,0l-.33-.38c-.21-.24-.19-.39.07-.59l.24.2c.19-.13.11-.27-.27-.5l-.28.25-.29-.27c-.12.11-.23.2-.33.31s0,.11,0,.17a.78.78,0,0,0,.16,0A.76.76,0,0,0,19.13,22.07Z"/><path d="M19.43,1.28a.89.89,0,0,1,1.38.06.92.92,0,0,1,.1,1,3.08,3.08,0,0,1-1,1.25c-.52.41-.4.43-.94,0a3.27,3.27,0,0,1-1-1.17A.93.93,0,0,1,18.57,1,.91.91,0,0,1,19.43,1.28ZM20,2.68l-.26.21c-.25-.22-.26-.36-.06-.59L20,1.91a.76.76,0,0,0-1.16,0l.36.41c.19.22.17.39-.09.57-.05,0-.09-.1-.14-.12a.58.58,0,0,0-.18,0c0,.06,0,.14,0,.18s.2.19.31.3l.3-.27.29.26C20.15,2.86,20.16,2.84,20,2.68Z"/></g><g class="cls-3"><path d="M23.39,1A.91.91,0,0,1,24.6.82.92.92,0,0,1,24.86,2a3.51,3.51,0,0,1-1.38,1.5.21.21,0,0,1-.2,0A3.79,3.79,0,0,1,22,2.17a1.15,1.15,0,0,1-.17-.79A.88.88,0,0,1,23.31.87Zm0,1.64.29.27A2.89,2.89,0,0,0,24,2.58s0-.12,0-.18a.54.54,0,0,0-.19,0,.44.44,0,0,0-.15.12c-.24-.2-.26-.37-.06-.6L24,1.56a.78.78,0,0,0-1.17,0l.35.39c.21.23.19.41-.08.58l-.23-.19c-.18.14-.1.28.27.5Z"/><path d="M27.7.94a.92.92,0,0,1,.87-.28.89.89,0,0,1,.64,1.19,3,3,0,0,1-.51.83,9,9,0,0,1-.86.78.23.23,0,0,1-.21,0,3.31,3.31,0,0,1-1.44-1.65A.89.89,0,0,1,26.56.78.87.87,0,0,1,27.65.9Zm-.59.63.36.4c.2.22.17.4-.07.58l-.24-.2c-.19.14-.11.29.27.49l.27-.24c.07,0,.11.1.16.14l.14.11c.45-.37.46-.39.25-.5l-.25.2c-.26-.22-.27-.36-.05-.6l.33-.38A.77.77,0,0,0,27.11,1.57Z"/><path d="M14.79,23.34a.92.92,0,0,1-.84.29.88.88,0,0,1-.69-1.12,2,2,0,0,1,.35-.69c.27-.32.6-.6.91-.9a.35.35,0,0,1,.53,0,4.22,4.22,0,0,1,1.08,1.15,1.14,1.14,0,0,1,.21.78.86.86,0,0,1-.57.75A.9.9,0,0,1,14.79,23.34Zm-.3-1.91a3.09,3.09,0,0,0-.32.29s0,.11,0,.17a.4.4,0,0,0,.16,0,1.4,1.4,0,0,0,.2-.17c.06.1.14.17.15.26.07.37-.32.49-.45.76a.79.79,0,0,0,1.17,0L15,22.34c-.21-.24-.19-.4.07-.6l.24.21c.17-.16.11-.26-.27-.51l-.28.25Z"/><path d="M23.39,23.34a.88.88,0,0,1-.83.29.9.9,0,0,1-.67-1.2,1.62,1.62,0,0,1,.22-.46,4.12,4.12,0,0,1,1.14-1.14.23.23,0,0,1,.29,0,4.06,4.06,0,0,1,1.23,1.28,1.16,1.16,0,0,1,.17.79A.89.89,0,0,1,23.39,23.34Zm-.29-1.61c.25.23.26.38,0,.62l-.33.38a.79.79,0,0,0,1.17,0l-.36-.41a.33.33,0,0,1,.09-.57c.05,0,.09.1.14.12a.52.52,0,0,0,.18,0c0-.06,0-.14,0-.19a2,2,0,0,0-.3-.27l-.29.26-.3-.26c-.45.36-.45.37-.25.51Z"/><path d="M27.7,23.34a.89.89,0,0,1-1.54-.4,1.16,1.16,0,0,1,.18-.85,3.89,3.89,0,0,1,1.25-1.27.29.29,0,0,1,.24,0,4,4,0,0,1,1.26,1.31,1.11,1.11,0,0,1,.14.83.89.89,0,0,1-1.38.5Zm.57-.61a.08.08,0,0,0,0,0c-.1-.12-.21-.24-.31-.37s-.2-.39.07-.58l.25.21c.17-.17.12-.26-.27-.51l-.29.25-.3-.26-.33.3s0,.11,0,.16.1,0,.14,0a.79.79,0,0,0,.18-.14c.24.18.27.36.07.58l-.36.4A.77.77,0,0,0,28.27,22.73Z"/><path d="M10.49.94a.88.88,0,0,1,1-.23A.9.9,0,0,1,12,1.9a3.35,3.35,0,0,1-1.43,1.59.22.22,0,0,1-.19,0A3.77,3.77,0,0,1,9.07,2.1.93.93,0,0,1,9.62.67C9.9.59,10.12.66,10.49.94Zm.29,1.61c-.24-.19-.26-.37-.06-.59l.35-.4a.75.75,0,0,0-1.16,0l.35.39c.2.24.17.42-.1.57l-.23-.2c-.18.16-.13.24.26.51l.29-.25.15.13.13.12c.41-.27.45-.35.27-.5Z"/><path d="M14.79,1a.89.89,0,0,1,.85-.29.91.91,0,0,1,.64,1.24A2.79,2.79,0,0,1,15.51,3l-.37.31c-.35.28-.38.3-.69,0a9.1,9.1,0,0,1-1-1.07,1,1,0,0,1-.22-.87A.9.9,0,0,1,14.79,1Zm.54,1.4-.24.21c-.25-.22-.26-.39-.06-.61l.35-.39a.79.79,0,0,0-1.18,0l.36.4a.34.34,0,0,1-.09.58.44.44,0,0,0-.14-.13.86.86,0,0,0-.17,0c0,.07,0,.15,0,.19a2.74,2.74,0,0,0,.3.28l.29-.26.15.12.15.13C15.53,2.5,15.53,2.49,15.33,2.35Z"/><path d="M10.48,23.34A.89.89,0,0,1,9,22.46,1.83,1.83,0,0,1,9.2,22a4.05,4.05,0,0,1,1.13-1.13.21.21,0,0,1,.28,0,4,4,0,0,1,1.26,1.32,1,1,0,0,1-.28,1.38A.88.88,0,0,1,10.48,23.34Zm-.3-1.61c.26.23.27.37.06.61l-.34.39a.76.76,0,0,0,1.16,0l-.35-.39c-.19-.22-.17-.4.08-.58a1,1,0,0,0,.16.13.65.65,0,0,0,.16,0c0-.06,0-.14,0-.18a2.89,2.89,0,0,0-.32-.29l-.3.26-.3-.26a3.09,3.09,0,0,0-.32.29s0,.11,0,.16.12,0,.17,0A.53.53,0,0,0,10.18,21.73Z"/><path d="M6.21,1a.9.9,0,0,1,1-.23.88.88,0,0,1,.56,1,2,2,0,0,1-.62,1c-.26.25-.55.46-.83.69a.2.2,0,0,1-.28,0,3.59,3.59,0,0,1-1.18-1.3,1.3,1.3,0,0,1-.16-.76A.87.87,0,0,1,6.12.86Zm-.6.6L6,2a.32.32,0,0,1-.13.55s-.07-.09-.12-.11a.65.65,0,0,0-.19,0c0,.07,0,.15,0,.2a2.5,2.5,0,0,0,.29.27l.3-.25.29.26.14-.1a1.09,1.09,0,0,0,.19-.18s0-.1,0-.16a.53.53,0,0,0-.18,0,1,1,0,0,0-.16.13C6.23,2.37,6.21,2.2,6.4,2s.25-.27.38-.41A.78.78,0,0,0,5.61,1.55Z"/><path d="M37.23,16.44a.9.9,0,0,1,.21,1.08.87.87,0,0,1-.9.48,2,2,0,0,1-.78-.34,12.4,12.4,0,0,1-1-1,.22.22,0,0,1,0-.33A4.12,4.12,0,0,1,36,15.08a1.15,1.15,0,0,1,.81-.18.88.88,0,0,1,.5,1.47Zm-.62-.58-.4.36c-.22.19-.4.17-.58-.08a2,2,0,0,0,.14-.16.88.88,0,0,0,0-.16c-.06,0-.15,0-.18,0s-.19.22-.29.33l.26.29-.26.3c.11.12.2.23.3.32s.11,0,.16,0,0-.11,0-.16a1.2,1.2,0,0,0-.17-.2c.1-.06.18-.14.26-.15.37-.06.49.33.77.45A.77.77,0,0,0,36.61,15.86Z"/><path d="M37.24,12.15a.9.9,0,0,1-1,1.49,3.5,3.5,0,0,1-1.58-1.42.23.23,0,0,1,0-.18,3.67,3.67,0,0,1,1.41-1.33,1,1,0,0,1,1.11.1C37.64,11.16,37.64,11.64,37.24,12.15Zm-1.61-.31a1,1,0,0,0,.13-.17s0-.1,0-.16-.14,0-.18,0a2.87,2.87,0,0,0-.29.31l.26.29-.27.31.31.31s.11,0,.17,0a.7.7,0,0,0,0-.16,1.27,1.27,0,0,0-.14-.17c.2-.26.36-.27.59-.07l.39.34a.73.73,0,0,0,0-1.15l-.38.33C36,12.11,35.83,12.09,35.63,11.84Z"/><path d="M6.21,23.34a.89.89,0,0,1-1.38,0,.9.9,0,0,1-.14-.92,3.53,3.53,0,0,1,1.37-1.59.19.19,0,0,1,.18,0,3.71,3.71,0,0,1,1.33,1.31,1.42,1.42,0,0,1,.17.72.88.88,0,0,1-1.44.58Zm-.35-1.6c.27.22.28.36.08.6l-.33.4a.76.76,0,0,0,1.16,0l-.37-.4c-.2-.21-.18-.4.08-.57a.81.81,0,0,0,.14.12.52.52,0,0,0,.18,0c0-.06,0-.14,0-.17a2.92,2.92,0,0,0-.32-.28l-.29.27-.3-.25a3.26,3.26,0,0,0-.33.31.23.23,0,0,0,0,.16s.1,0,.14,0A1.36,1.36,0,0,0,5.86,21.74Z"/><path d="M36.78,21.23a.89.89,0,0,1-.71,1.2.91.91,0,0,1-.9-.39,3.71,3.71,0,0,1-.71-1.89.25.25,0,0,1,.1-.16,3.72,3.72,0,0,1,1.83-.55,1,1,0,0,1,1,.71C37.52,20.63,37.32,21,36.78,21.23Zm-.82.23a.76.76,0,0,0,.51-1l-.5.13c-.3.08-.44,0-.48-.33l.17-.07a.49.49,0,0,0,.1-.15s-.12-.07-.17-.06-.26.1-.39.15l.1.39-.37.14a4.21,4.21,0,0,0,.12.42c0,.05.09.07.13.1a.34.34,0,0,0,.07-.15,1.7,1.7,0,0,0,0-.22c.27-.14.44-.08.54.18Z"/><path d="M1,16.44a.89.89,0,0,1-.24-1,.79.79,0,0,1,.75-.56,1.6,1.6,0,0,1,.74.19,3.62,3.62,0,0,1,1.26,1.23.25.25,0,0,1,0,.24A3.59,3.59,0,0,1,2,17.89a.92.92,0,0,1-1.3-.39A.89.89,0,0,1,1,16.44Zm.62-.58a.74.74,0,0,0,0,1.16c.12-.12.25-.23.38-.34s.4-.17.58.08a.79.79,0,0,0-.14.17s0,.1,0,.16.12,0,.16,0,.2-.21.29-.32l-.26-.3.27-.3c-.11-.12-.2-.23-.3-.32s-.1,0-.16,0,0,.12,0,.16a1.15,1.15,0,0,0,.14.17c-.19.25-.36.27-.58.07Z"/><path d="M1.4,3.06a.91.91,0,0,1,.73-1.21.85.85,0,0,1,.78.29,3.47,3.47,0,0,1,.81,2s-.05.11-.1.14a3.62,3.62,0,0,1-1.84.54,1,1,0,0,1-1-.72C.67,3.65.87,3.31,1.4,3.06Zm1.86.61c0-.14-.06-.25-.1-.35A.91.91,0,0,0,3,3.15a.85.85,0,0,0,0,.22c0,.15-.08.28-.22.22a.58.58,0,0,1-.28-.23,4.2,4.2,0,0,1-.22-.53.74.74,0,0,0-.52,1h0l.47-.12c.31-.08.44,0,.5.32a1.76,1.76,0,0,0-.2.09s0,.1-.08.14.1.08.14.07L3,4.19l-.1-.38Z"/><path d="M36.78,3.07a.9.9,0,0,1-.22,1.77,3.59,3.59,0,0,1-2-.55.19.19,0,0,1-.08-.16,3.74,3.74,0,0,1,.69-1.88.93.93,0,0,1,1.49-.06A1,1,0,0,1,36.78,3.07Zm-.29.8a.77.77,0,0,0-.53-1h0l-.21.51c-.1.25-.3.3-.53.14a1.77,1.77,0,0,0,0-.2.34.34,0,0,0-.07-.15s-.11,0-.13.08-.08.29-.12.44l.37.14-.1.39c.14,0,.26.11.38.14s.12,0,.18,0a.49.49,0,0,0-.1-.15.54.54,0,0,0-.19-.08c.09-.33.21-.4.52-.32Z"/><path d="M1.41,21.23a.89.89,0,0,1-.64-1.07.91.91,0,0,1,.8-.7A3.5,3.5,0,0,1,3.64,20a.19.19,0,0,1,.08.15A3.62,3.62,0,0,1,3,22.05a.92.92,0,0,1-1.4.13A.9.9,0,0,1,1.41,21.23Zm1.47-.75.1-.39a2.26,2.26,0,0,0-.41-.15s-.1,0-.15.06,0,.11.08.14a1.33,1.33,0,0,0,.21.09c-.08.32-.2.4-.51.32l-.5-.13a.78.78,0,0,0,.53,1l.21-.53c.1-.25.3-.3.54-.14a.39.39,0,0,0,0,.18.7.7,0,0,0,.06.17s.12-.07.14-.12a2.62,2.62,0,0,0,.11-.4Z"/><path d="M32,23.34a.9.9,0,0,1-1.06.19.93.93,0,0,1-.39-1.25,3.39,3.39,0,0,1,1-1.19L31.6,21c.52-.36.4-.37.89,0a3.33,3.33,0,0,1,1,1.21.92.92,0,0,1-.51,1.32A.86.86,0,0,1,32,23.34Zm.59-.59s0,0,0,0l-.32-.39c-.2-.25-.18-.4.08-.59.28.23.28.23.36.08l-.35-.4-.31.26-.29-.27a3.31,3.31,0,0,0-.34.3s0,.1,0,.16a.37.37,0,0,0,.15,0l.17-.14c.25.19.27.36.08.57s-.26.27-.38.41A.78.78,0,0,0,32.57,22.75Z"/><path d="M32,1a.88.88,0,0,1,.71-.32.9.9,0,0,1,.85,1.06A2.6,2.6,0,0,1,32.69,3a4.42,4.42,0,0,1-.53.44.23.23,0,0,1-.21,0A3.64,3.64,0,0,1,30.54,2,.91.91,0,0,1,31,.74.88.88,0,0,1,32,1Zm.34,1.6c-.26-.23-.28-.36-.07-.61l.33-.4a.78.78,0,0,0-1.17.05l.38.4c.2.21.17.41-.09.56a1,1,0,0,0-.16-.13s-.11,0-.16,0,0,.13,0,.16.22.19.33.29L32,2.6l.35.28a3.49,3.49,0,0,0,.25-.32s0-.11,0-.17a.55.55,0,0,0-.19,0A.66.66,0,0,0,32.32,2.55Z"/><path d="M37.24,7.84a.9.9,0,0,1-.1,1.41,1,1,0,0,1-.92.07,3.67,3.67,0,0,1-1.52-1.4.17.17,0,0,1,0-.18A3.61,3.61,0,0,1,36.14,6.4.92.92,0,0,1,37.51,7,.88.88,0,0,1,37.24,7.84Zm-.62.59a.77.77,0,0,0,0-1.17l-.41.36q-.31.27-.57-.09a.65.65,0,0,0,.13-.16s0-.1,0-.16-.14,0-.17,0-.2.21-.3.32l.26.3-.26.29c.1.12.19.23.29.33s.11,0,.16,0,0-.12,0-.16a.58.58,0,0,0-.14-.17c.19-.25.37-.27.59-.08Z"/><path d="M1,12.14a.93.93,0,0,1-.29-.83.91.91,0,0,1,1.16-.69,2.31,2.31,0,0,1,1,.67c.21.22.4.47.6.71a.2.2,0,0,1,0,.28,4.13,4.13,0,0,1-1.29,1.24,1.11,1.11,0,0,1-.87.15.88.88,0,0,1-.46-1.41Zm1.92-.29a3,3,0,0,0-.29-.31s-.12,0-.18,0a1,1,0,0,0,0,.18.88.88,0,0,0,.12.15c-.19.25-.36.27-.58.07l-.4-.35a.77.77,0,0,0,0,1.17L2,12.37c.22-.2.4-.17.57.08a1,1,0,0,0-.13.16.44.44,0,0,0,0,.16c.06,0,.14,0,.18,0s.19-.2.29-.31l-.27-.3Z"/><path d="M1,7.84A.91.91,0,0,1,.66,7,.92.92,0,0,1,2,6.39a3.08,3.08,0,0,1,1.18,1c.43.53.46.42,0,1a4.58,4.58,0,0,1-1,.84,1.48,1.48,0,0,1-.75.21.79.79,0,0,1-.75-.56A.91.91,0,0,1,1,7.84Zm.62.59L2,8.06a.33.33,0,0,1,.57.1s-.1.08-.12.14a.36.36,0,0,0,0,.18c.06,0,.14,0,.17,0a2.79,2.79,0,0,0,.28-.32L2.6,7.84l.26-.3a2,2,0,0,0-.28-.3s-.11,0-.17,0a.63.63,0,0,0,0,.19.49.49,0,0,0,.11.14c-.18.25-.36.27-.58.08l-.41-.36A.8.8,0,0,0,1.57,8.43Z"/><path d="M19,23.39a.87.87,0,0,1-1.32-.09.93.93,0,0,1-.11-1A3.65,3.65,0,0,1,19,20.8a.19.19,0,0,1,.19,0,3.68,3.68,0,0,1,1.34,1.43.91.91,0,0,1-.82,1.38A2.65,2.65,0,0,1,19,23.39Zm-.25-1.66c.25.22.27.37.07.59l-.35.4a.74.74,0,0,0,1.15,0l-.33-.38c-.21-.24-.19-.39.07-.59l.24.2c.19-.13.11-.27-.27-.5l-.28.25-.29-.27c-.12.11-.23.2-.33.31s0,.11,0,.17a.88.88,0,0,0,.16,0A.76.76,0,0,0,18.79,21.73Z"/><path d="M19.09.94A.89.89,0,0,1,20.47,1a1,1,0,0,1,.1,1,3.08,3.08,0,0,1-1,1.25c-.52.41-.4.43-.94,0a3.27,3.27,0,0,1-1-1.17A.93.93,0,0,1,18.23.67.91.91,0,0,1,19.09.94Zm.56,1.4-.26.21c-.25-.22-.26-.36-.06-.59l.34-.39a.76.76,0,0,0-1.16,0l.36.41c.19.22.17.39-.09.56a.67.67,0,0,0-.14-.11.58.58,0,0,0-.18,0c0,.06,0,.14,0,.18s.2.19.31.3l.3-.27.29.26C19.81,2.52,19.82,2.5,19.65,2.34Z"/></g><path class="cls-4" d="M23.59,1.14A.92.92,0,0,1,24.8,1a.93.93,0,0,1,.26,1.16,3.51,3.51,0,0,1-1.38,1.5.23.23,0,0,1-.21,0,3.86,3.86,0,0,1-1.25-1.29,1.1,1.1,0,0,1-.17-.79.88.88,0,0,1,1.45-.51Zm0,1.65.29.27c.11-.1.22-.18.31-.28a.48.48,0,0,0,0-.18.54.54,0,0,0-.19,0,.61.61,0,0,0-.16.12.36.36,0,0,1-.05-.6l.34-.39a.78.78,0,0,0-1.17,0l.35.4c.21.23.19.41-.08.58l-.23-.2c-.18.15-.1.29.27.5Z"/><path class="cls-4" d="M27.9,1.14a.91.91,0,0,1,.86-.28A.87.87,0,0,1,29.4,2a2.49,2.49,0,0,1-.51.84,6.3,6.3,0,0,1-.86.77.21.21,0,0,1-.2,0A3.25,3.25,0,0,1,26.39,2a.88.88,0,0,1,.37-1,.86.86,0,0,1,1.08.12Zm-.59.62c.13.15.25.27.36.41a.34.34,0,0,1-.07.57l-.24-.19c-.19.14-.11.29.26.49l.28-.24.16.13.14.12c.44-.37.46-.39.25-.5l-.25.2c-.26-.22-.27-.36-.05-.6l.33-.38A.77.77,0,0,0,27.31,1.76Z"/><path class="cls-4" d="M15,23.54a.91.91,0,0,1-.83.29.88.88,0,0,1-.69-1.12,2,2,0,0,1,.35-.69c.27-.32.6-.6.91-.9a.35.35,0,0,1,.53,0,4.38,4.38,0,0,1,1.08,1.15,1.13,1.13,0,0,1,.21.78.85.85,0,0,1-.57.74A.91.91,0,0,1,15,23.54Zm-.29-1.92a3.13,3.13,0,0,0-.32.3s0,.11,0,.17a.4.4,0,0,0,.16,0,1.4,1.4,0,0,0,.2-.17c.06.1.14.17.15.25.07.38-.32.5-.45.77a.78.78,0,0,0,1.16,0l-.34-.39c-.21-.23-.19-.4.06-.59l.25.21c.17-.16.11-.26-.27-.51l-.29.25Z"/><path class="cls-4" d="M23.59,23.54a.91.91,0,0,1-.83.29.9.9,0,0,1-.67-1.2,1.59,1.59,0,0,1,.21-.46A4.3,4.3,0,0,1,23.45,21a.23.23,0,0,1,.29,0A4.07,4.07,0,0,1,25,22.31a1.15,1.15,0,0,1,.17.79A.89.89,0,0,1,23.59,23.54Zm-.29-1.61c.25.23.26.38,0,.62l-.33.37a.78.78,0,0,0,1.17,0l-.36-.41a.33.33,0,0,1,.09-.57c.05,0,.09.1.14.12a.52.52,0,0,0,.18,0c0-.06,0-.15,0-.19a2.74,2.74,0,0,0-.3-.28l-.29.27-.3-.26c-.45.36-.45.37-.25.51Z"/><path class="cls-4" d="M27.9,23.54a.89.89,0,0,1-1.54-.4,1.2,1.2,0,0,1,.17-.85A3.92,3.92,0,0,1,27.79,21,.33.33,0,0,1,28,21a4,4,0,0,1,1.26,1.32,1.11,1.11,0,0,1,.14.83.89.89,0,0,1-1.38.5Zm.57-.61s0,0,0,0l-.32-.37c-.21-.23-.19-.39.08-.58l.25.21c.17-.17.11-.26-.27-.51l-.29.25-.3-.26c-.11.1-.23.19-.33.3s0,.11,0,.16a.33.33,0,0,0,.14,0,.75.75,0,0,0,.17-.14c.25.18.27.36.08.58l-.36.4A.77.77,0,0,0,28.47,22.93Z"/><path class="cls-4" d="M10.69,1.14a.88.88,0,0,1,1-.23.9.9,0,0,1,.5,1.19,3.44,3.44,0,0,1-1.43,1.59.22.22,0,0,1-.19,0A3.77,3.77,0,0,1,9.27,2.3.94.94,0,0,1,9.82.86C10.1.79,10.31.86,10.69,1.14ZM11,2.75c-.24-.2-.26-.37-.06-.59s.23-.27.35-.4a.75.75,0,0,0-1.16,0l.35.39c.2.23.17.41-.1.57l-.23-.2c-.18.16-.14.24.26.51l.29-.25.15.12a1.59,1.59,0,0,0,.13.13c.4-.27.45-.35.27-.5Z"/><path class="cls-4" d="M15,1.15a.89.89,0,0,1,.85-.29.9.9,0,0,1,.64,1.24,2.89,2.89,0,0,1-.77,1.09l-.37.31c-.35.27-.38.3-.7,0a10,10,0,0,1-1-1.07,1.05,1.05,0,0,1-.22-.88A.9.9,0,0,1,15,1.15Zm.54,1.4-.24.2c-.25-.22-.26-.38-.06-.6l.34-.39a.78.78,0,0,0-1.17,0l.36.41a.33.33,0,0,1-.09.57.81.81,0,0,0-.14-.12,1,1,0,0,0-.18,0c0,.07,0,.15,0,.19a2.74,2.74,0,0,0,.3.28L15,2.79l.15.13.15.13C15.73,2.7,15.73,2.69,15.53,2.55Z"/><path class="cls-4" d="M10.68,23.54a.89.89,0,0,1-1.52-.88,2.1,2.1,0,0,1,.24-.5A4,4,0,0,1,10.53,21a.21.21,0,0,1,.28,0,4,4,0,0,1,1.26,1.32,1,1,0,0,1-.28,1.38A.88.88,0,0,1,10.68,23.54Zm-.3-1.61c.26.23.27.36,0,.61l-.33.39a.76.76,0,0,0,1.16,0l-.35-.39a.34.34,0,0,1,.07-.58,1.92,1.92,0,0,0,.17.13.66.66,0,0,0,.15,0c0-.06,0-.15,0-.18a4.2,4.2,0,0,0-.32-.29l-.3.25-.3-.25a3.09,3.09,0,0,0-.32.29s0,.11,0,.16.12,0,.17,0A1.77,1.77,0,0,0,10.38,21.93Z"/><path class="cls-4" d="M6.41,1.14a.91.91,0,0,1,1-.22.88.88,0,0,1,.56,1,2,2,0,0,1-.62,1c-.26.25-.55.46-.83.69a.2.2,0,0,1-.28,0A3.67,3.67,0,0,1,5,2.35a1.3,1.3,0,0,1-.16-.76.87.87,0,0,1,1.46-.53Zm-.6.61.36.43A.32.32,0,0,1,6,2.73a.68.68,0,0,0-.12-.12,1.25,1.25,0,0,0-.19,0c0,.07,0,.15,0,.19a2.57,2.57,0,0,0,.29.28l.3-.26.29.27L6.79,3A1,1,0,0,0,7,2.78s0-.1,0-.16a.53.53,0,0,0-.18,0,1,1,0,0,0-.16.12c-.25-.18-.27-.36-.08-.56L7,1.78A.78.78,0,0,0,5.81,1.75Z"/><path class="cls-4" d="M37.43,16.64a.89.89,0,0,1,.2,1.08.83.83,0,0,1-.89.47,1.94,1.94,0,0,1-.78-.33,14.32,14.32,0,0,1-1-1,.24.24,0,0,1,0-.34,4.24,4.24,0,0,1,1.26-1.2,1.09,1.09,0,0,1,.8-.18.87.87,0,0,1,.5,1.47Zm-.62-.58-.4.36c-.22.19-.4.16-.58-.09a.61.61,0,0,0,.13-.15A.32.32,0,0,0,36,16c-.06,0-.14,0-.17,0a3,3,0,0,0-.29.33l.26.29-.26.3c.11.12.2.23.3.32s.11,0,.16,0a.42.42,0,0,0,0-.16,1.2,1.2,0,0,0-.17-.2c.1-.06.17-.14.26-.15.37-.06.49.33.77.45A.77.77,0,0,0,36.81,16.06Z"/><path class="cls-4" d="M37.44,12.34a.9.9,0,0,1,.06,1.27.88.88,0,0,1-1,.22,3.33,3.33,0,0,1-1.58-1.41.19.19,0,0,1,0-.18,3.7,3.7,0,0,1,1.42-1.33,1,1,0,0,1,1.11.1C37.83,11.36,37.84,11.83,37.44,12.34ZM35.83,12a1,1,0,0,0,.13-.17s0-.1,0-.16-.14,0-.18,0a3.13,3.13,0,0,0-.3.32l.27.29-.27.3a3.17,3.17,0,0,0,.31.32s.11,0,.16,0a.32.32,0,0,0,0-.17,1,1,0,0,0-.13-.16c.2-.26.36-.27.59-.07l.39.34a.73.73,0,0,0,0-1.15l-.38.33C36.19,12.3,36,12.29,35.83,12Z"/><path class="cls-4" d="M6.41,23.54a.89.89,0,0,1-1.38,0,.9.9,0,0,1-.14-.92A3.59,3.59,0,0,1,6.25,21a.21.21,0,0,1,.19,0,3.56,3.56,0,0,1,1.33,1.31,1.29,1.29,0,0,1,.16.72.87.87,0,0,1-1.43.58Zm-.35-1.6c.26.21.28.36.08.6l-.34.4A.78.78,0,0,0,7,22.9c-.12-.13-.25-.26-.37-.4s-.18-.4.07-.57a.88.88,0,0,0,.15.12,1,1,0,0,0,.18,0c0-.06,0-.14,0-.18a4.15,4.15,0,0,0-.32-.27l-.29.27-.31-.26L5.73,22a.2.2,0,0,0,0,.15s.1,0,.14,0S6,22,6.06,21.94Z"/><path class="cls-4" d="M37,21.43a.9.9,0,0,1-.71,1.2.91.91,0,0,1-.9-.39,3.71,3.71,0,0,1-.71-1.9.23.23,0,0,1,.1-.16,3.81,3.81,0,0,1,1.82-.54,1,1,0,0,1,1,.71C37.72,20.83,37.52,21.17,37,21.43Zm-.83.23a.77.77,0,0,0,.52-1l-.5.13c-.3.08-.45,0-.48-.33a.89.89,0,0,0,.17-.08.5.5,0,0,0,.1-.14c-.06,0-.12-.07-.17-.06s-.26.1-.39.15l.1.39-.37.14a4.21,4.21,0,0,0,.12.42s.09.07.13.1a.34.34,0,0,0,.07-.15,1.7,1.7,0,0,0,0-.22c.27-.14.44-.08.54.18S36.08,21.48,36.15,21.66Z"/><path class="cls-4" d="M1.15,16.64a.87.87,0,0,1-.24-1,.79.79,0,0,1,.75-.56,1.6,1.6,0,0,1,.74.19,3.59,3.59,0,0,1,1.26,1.22.28.28,0,0,1,0,.25,3.55,3.55,0,0,1-1.44,1.33.93.93,0,0,1-1.3-.4A.88.88,0,0,1,1.15,16.64Zm.62-.58a.72.72,0,0,0,0,1.15l.38-.33c.22-.19.4-.17.58.08a.58.58,0,0,0-.14.17.26.26,0,0,0,0,.15c.05,0,.12,0,.16,0s.19-.22.29-.32l-.26-.31.27-.29c-.11-.12-.2-.23-.3-.32s-.11,0-.16,0a.43.43,0,0,0,0,.16,1,1,0,0,0,.14.17c-.19.25-.36.27-.58.07Z"/><path class="cls-4" d="M1.6,3.26a.9.9,0,0,1,.73-1.21.86.86,0,0,1,.78.29,3.47,3.47,0,0,1,.81,2,.22.22,0,0,1-.1.14A3.65,3.65,0,0,1,2,5a1,1,0,0,1-1-.72C.86,3.85,1.07,3.51,1.6,3.26Zm1.85.61a1.46,1.46,0,0,0-.1-.35.52.52,0,0,0-.16-.17.86.86,0,0,0,0,.21c0,.16-.08.29-.23.23a.6.6,0,0,1-.27-.23A3.49,3.49,0,0,1,2.43,3a.74.74,0,0,0-.52,1h0l.47-.13c.31-.07.44,0,.5.33a1.21,1.21,0,0,0-.2.09.32.32,0,0,0-.08.14s.1.08.14.07l.42-.17L3.08,4Z"/><path class="cls-4" d="M37,3.26a.92.92,0,0,1,.64.63A.91.91,0,0,1,36.76,5a3.5,3.5,0,0,1-2-.54.26.26,0,0,1-.09-.16,3.75,3.75,0,0,1,.7-1.88.93.93,0,0,1,1.49-.06A.91.91,0,0,1,37,3.26Zm-.28.81a.76.76,0,0,0-.53-1h0c-.06.17-.13.34-.2.51a.31.31,0,0,1-.53.14,1.55,1.55,0,0,0,0-.21c0-.05-.05-.09-.07-.14s-.12,0-.13.07-.08.3-.12.45L35.5,4l-.1.39a2.14,2.14,0,0,0,.38.13s.12,0,.18,0a.56.56,0,0,0-.1-.15.64.64,0,0,0-.19-.08c.09-.33.21-.4.52-.32Z"/><path class="cls-4" d="M1.61,21.42A.89.89,0,0,1,1,20.36a.92.92,0,0,1,.81-.7,3.43,3.43,0,0,1,2.07.54.2.2,0,0,1,.08.15,3.68,3.68,0,0,1-.71,1.89.93.93,0,0,1-1.41.14A.93.93,0,0,1,1.61,21.42Zm1.47-.74.1-.39a2.57,2.57,0,0,0-.41-.15s-.1,0-.15.05,0,.11.08.14a.81.81,0,0,0,.21.1c-.08.32-.2.4-.51.32l-.5-.13a.76.76,0,0,0,.53,1l.21-.52c.1-.25.29-.3.53-.14a1,1,0,0,0,0,.17,1.34,1.34,0,0,0,.07.18s.12-.07.14-.12a2.62,2.62,0,0,0,.11-.4Z"/><path class="cls-4" d="M32.17,23.54a.9.9,0,0,1-1.05.19.93.93,0,0,1-.39-1.26,3.34,3.34,0,0,1,1-1.18l.07-.05c.52-.37.4-.38.89,0a3.25,3.25,0,0,1,1,1.21.93.93,0,0,1-.51,1.32A.88.88,0,0,1,32.17,23.54Zm.6-.6a0,0,0,0,0,0,0l-.32-.4c-.2-.24-.18-.39.08-.58.28.23.28.23.36.08l-.35-.4-.31.26-.29-.27a3.31,3.31,0,0,0-.34.3s0,.1,0,.16a.37.37,0,0,0,.15,0l.17-.14c.25.18.27.36.08.56l-.39.42A.78.78,0,0,0,32.77,22.94Z"/><path class="cls-4" d="M32.17,1.14a.94.94,0,0,1,.72-.31.9.9,0,0,1,.85,1.06,2.66,2.66,0,0,1-.85,1.33,4.42,4.42,0,0,1-.53.44.23.23,0,0,1-.21,0,3.64,3.64,0,0,1-1.41-1.45.92.92,0,0,1,.44-1.3A.9.9,0,0,1,32.17,1.14Zm.35,1.61c-.27-.23-.28-.36-.07-.61l.33-.4a.78.78,0,0,0-1.17.05l.38.4c.19.21.17.4-.09.56a1,1,0,0,0-.16-.13.43.43,0,0,0-.16,0s0,.13,0,.16.22.19.33.29l.29-.28.34.29a2.44,2.44,0,0,0,.26-.32.47.47,0,0,0,0-.17.55.55,0,0,0-.19,0A.49.49,0,0,0,32.52,2.75Z"/><path class="cls-4" d="M37.44,8a.89.89,0,0,1-.1,1.4.92.92,0,0,1-.92.08,3.55,3.55,0,0,1-1.52-1.4.21.21,0,0,1,0-.19A3.55,3.55,0,0,1,36.34,6.6.91.91,0,0,1,37.44,8Zm-.63.59a.78.78,0,0,0,0-1.17l-.41.36q-.32.27-.57-.09A1,1,0,0,0,36,7.57s0-.1,0-.16-.14,0-.17,0-.2.21-.3.32l.26.3-.27.29.3.33s.11,0,.16,0,0-.12,0-.16a.79.79,0,0,0-.14-.18c.19-.25.36-.27.58-.07S36.68,8.5,36.81,8.63Z"/><path class="cls-4" d="M1.15,12.34a.88.88,0,0,1-.29-.83A.91.91,0,0,1,2,10.82a2.31,2.31,0,0,1,1,.67c.21.22.4.47.6.71a.21.21,0,0,1,0,.28,4.13,4.13,0,0,1-1.29,1.24,1.11,1.11,0,0,1-.87.15.88.88,0,0,1-.46-1.41ZM3.07,12c-.11-.11-.19-.22-.29-.3s-.12,0-.18,0a1.13,1.13,0,0,0,0,.18.88.88,0,0,0,.12.15c-.2.25-.36.27-.59.06l-.39-.34a.76.76,0,0,0,0,1.16l.41-.35c.22-.2.4-.17.57.08a.65.65,0,0,0-.13.16.9.9,0,0,0,0,.16c.07,0,.15,0,.18,0a2.94,2.94,0,0,0,.3-.31l-.27-.3Z"/><path class="cls-4" d="M1.15,8a.91.91,0,0,1-.29-.83.93.93,0,0,1,1.36-.63,3.28,3.28,0,0,1,1.18,1c.42.54.46.43,0,1a4.53,4.53,0,0,1-1,.84,1.41,1.41,0,0,1-.75.2A.78.78,0,0,1,.91,9,.88.88,0,0,1,1.15,8Zm.62.59.41-.37c.22-.19.41-.16.57.1,0,0-.1.08-.12.14a.36.36,0,0,0,0,.18c.06,0,.13,0,.17,0a2.8,2.8,0,0,0,.28-.31L2.8,8l.26-.3a2.74,2.74,0,0,0-.28-.3s-.11,0-.17,0a1.23,1.23,0,0,0,0,.19.81.81,0,0,0,.12.14c-.18.24-.36.27-.58.08l-.41-.36A.8.8,0,0,0,1.77,8.63Z"/><path class="cls-4" d="M19.24,23.59a.87.87,0,0,1-1.32-.09.91.91,0,0,1-.11-1A3.42,3.42,0,0,1,19.21,21a.21.21,0,0,1,.19,0,3.79,3.79,0,0,1,1.34,1.44.91.91,0,0,1-.83,1.38A3.22,3.22,0,0,1,19.24,23.59ZM19,21.93c.25.22.27.36.07.59s-.23.27-.35.39a.73.73,0,0,0,1.15,0l-.33-.38c-.21-.24-.19-.4.07-.59l.24.2c.19-.13.11-.27-.27-.5l-.28.25-.3-.27c-.11.11-.23.2-.32.31s0,.11,0,.16a.43.43,0,0,0,.16,0A2,2,0,0,0,19,21.93Z"/><path class="cls-4" d="M19.29,1.14a.9.9,0,0,1,1.38.05,1,1,0,0,1,.1,1,3.17,3.17,0,0,1-1,1.25c-.53.41-.4.43-.94,0a3.27,3.27,0,0,1-1-1.17A.92.92,0,0,1,18.43.87.89.89,0,0,1,19.29,1.14Zm.56,1.4-.26.21c-.25-.22-.26-.37-.06-.6l.34-.39a.76.76,0,0,0-1.16,0l.36.41c.19.22.17.39-.09.56a1.49,1.49,0,0,0-.14-.12,1.13,1.13,0,0,0-.18,0c0,.06,0,.14,0,.18s.2.19.31.29l.3-.26.29.25C20,2.72,20,2.7,19.85,2.54Z"/></g></g></svg>