<svg xmlns="http://www.w3.org/2000/svg" viewBox="0 0 38.55 24.66"><defs><style>.cls-1{isolation:isolate;}.cls-2{opacity:0.15;}.cls-2,.cls-3{mix-blend-mode:multiply;}.cls-4{fill:#fff;}</style></defs><title>convert-CUSTOMIZE-SVG-03</title><g class="cls-1"><g id="Layer_1" data-name="Layer 1"><g class="cls-2"><path d="M8.8,22a5.25,5.25,0,0,1-3.37-1.14A5,5,0,0,1,3.8,18.28a7.77,7.77,0,0,1-.25-3.14,5.14,5.14,0,0,1,.77-2,.59.59,0,0,1,.18-.13c0,.06.13.13.13.2a4.24,4.24,0,0,1,0,.71,4.51,4.51,0,0,0,1.61,3.92,3.24,3.24,0,0,0,2.94.83,2.54,2.54,0,0,0,1.58-1.29,4.22,4.22,0,0,0,.32-.68c.16-.41.39-.48.73-.19a3,3,0,0,1,1,1.42,4.71,4.71,0,0,1-.07,2.83.55.55,0,0,1-.19.24,3.62,3.62,0,0,1-1.81.75C10.1,21.91,9.45,22,8.8,22Z"/><path d="M15.39,16a7.73,7.73,0,0,1-1,3.89,3.27,3.27,0,0,1-.35.48c-.25.27-.49.23-.58-.13A10.17,10.17,0,0,1,13.25,19a10.26,10.26,0,0,0-.13-1.36,4.36,4.36,0,0,0-1.51-2.26A6,6,0,0,0,10,14.28,1.22,1.22,0,0,1,9.51,14a.36.36,0,0,1,.07-.59,6.69,6.69,0,0,1,2.49-1.3,2.08,2.08,0,0,1,2.53,1,5,5,0,0,1,.76,2.39C15.38,15.65,15.38,15.86,15.39,16Z"/><path d="M9,10.4a5.77,5.77,0,0,1,2.57.53,1.82,1.82,0,0,1,.39.35,2.41,2.41,0,0,1-.36.29,14.25,14.25,0,0,0-3.19,2.25A5.36,5.36,0,0,0,7.51,15a1.3,1.3,0,0,0,.39,1.8,3.28,3.28,0,0,0,1.35.66,2.11,2.11,0,0,1,.48.17c.17.08.18.21,0,.29a2.22,2.22,0,0,1-1.56.26,5.11,5.11,0,0,1-2-1,3.06,3.06,0,0,1-1.06-2.29A4.48,4.48,0,0,1,5.94,12,3.67,3.67,0,0,1,9,10.4Z"/><path d="M1.19,18.34v-.27c0-2.07,0-4.13,0-6.2a.64.64,0,0,1,.18-.45,6.55,6.55,0,0,1,3.32-2,2.81,2.81,0,0,1,.71-.07A.57.57,0,0,1,6,9.89a2.9,2.9,0,0,1-.44,1.88,1.43,1.43,0,0,1-.79.57,1.75,1.75,0,0,0-1.06.88,4.7,4.7,0,0,0-.53,1.9c0,.49,0,1,0,1.48,0,.31-.05.63-.09.94a.45.45,0,0,1-.33.4l-1.25.37A1.56,1.56,0,0,1,1.19,18.34Z"/><path d="M16.23,12.32A4.9,4.9,0,0,1,16,13.88a1.55,1.55,0,0,1-.23.31,1.8,1.8,0,0,1-.26-.3,2.45,2.45,0,0,1-.18-.54,4.32,4.32,0,0,0-2.72-3.07A8.75,8.75,0,0,0,8.8,9.69c-.67,0-1.34.13-2,.21-.18,0-.29,0-.29-.22A2.92,2.92,0,0,1,6.59,9,8.68,8.68,0,0,1,7,7.9a.56.56,0,0,1,.76-.38c.42.11.83.28,1.25.39a9.17,9.17,0,0,0,2.56.2c.53,0,1.06-.07,1.59-.1a.49.49,0,0,1,.24,0,4.15,4.15,0,0,1,2.8,3.55C16.2,11.84,16.21,12.08,16.23,12.32Z"/><path d="M6.17,23.67H4.24a.84.84,0,0,1-.34-.08,8.67,8.67,0,0,1-2.62-2,.36.36,0,0,1-.08-.25c0-.72,0-1.45,0-2.18a.32.32,0,0,1,.13-.24,5,5,0,0,1,1.8-.58.36.36,0,0,1,.4.26,7.68,7.68,0,0,1,.26,1c0,.2,0,.41,0,.61a1.32,1.32,0,0,0,.22.53,3.72,3.72,0,0,0,.67.7,5,5,0,0,0,2.92,1,4.5,4.5,0,0,0,.81-.11l.35-.06c.18,0,.27.12.22.26a7,7,0,0,1-.46,1,.57.57,0,0,1-.52.23C7.43,23.66,6.8,23.67,6.17,23.67Z"/><path d="M17.38,19.76c-.13.3-.25.56-.37.82a6.42,6.42,0,0,1-2.5,3,1,1,0,0,1-.47.13l-4.44,0c-.21,0-.27-.09-.25-.27a.89.89,0,0,1,.08-.32,1.48,1.48,0,0,1,1.33-1c.47,0,.93-.07,1.39-.05a2.19,2.19,0,0,0,2-1.07,3.54,3.54,0,0,1,.53-.68A1.92,1.92,0,0,1,16,19.83l1.2-.08A.68.68,0,0,1,17.38,19.76Z"/><path d="M18.08,15.18c-.07.73-.13,1.68-.26,2.61a1.68,1.68,0,0,1-1.42,1.49c-.22,0-.43.12-.66.16s-.45-.06-.42-.36a8.54,8.54,0,0,1,.18-1,9.34,9.34,0,0,0,.32-2.57,1.14,1.14,0,0,1,.24-.73,4,4,0,0,0,.53-1.53c.08-.4.13-.81.22-1.21,0-.16.12-.4.24-.45s.29.17.39.32A3.74,3.74,0,0,1,18,13.62C18,14.07,18,14.52,18.08,15.18Z"/><path d="M9.52,16.67a6,6,0,0,1-.95-.24.68.68,0,0,1-.45-.93,1.29,1.29,0,0,1,1.08-1,.8.8,0,0,1,.77.25,1.9,1.9,0,0,1,.48,1,.65.65,0,0,1-.6.85l-.32,0Z"/><path d="M9,22.23a5.28,5.28,0,0,1-3.37-1.14A4.93,4.93,0,0,1,4,18.47a7.57,7.57,0,0,1-.25-3.14,5.16,5.16,0,0,1,.77-1.94c0-.06.12-.09.18-.14s.12.13.13.21a3.35,3.35,0,0,1,0,.71,4.54,4.54,0,0,0,1.62,3.92,3.24,3.24,0,0,0,2.94.83A2.54,2.54,0,0,0,11,17.63a6,6,0,0,0,.32-.68c.16-.41.39-.48.73-.19a3,3,0,0,1,1,1.42A4.79,4.79,0,0,1,13,21a.61.61,0,0,1-.19.24,3.8,3.8,0,0,1-1.82.75C10.3,22.1,9.65,22.15,9,22.23Z"/><path d="M15.59,16.17a7.73,7.73,0,0,1-1,3.89,3.27,3.27,0,0,1-.35.48c-.25.27-.49.23-.58-.13a8.77,8.77,0,0,1-.19-1.25,10.26,10.26,0,0,0-.13-1.36,4.38,4.38,0,0,0-1.51-2.26,6,6,0,0,0-1.65-1.06,1.22,1.22,0,0,1-.45-.33.37.37,0,0,1,.07-.6,7,7,0,0,1,2.49-1.3,2.1,2.1,0,0,1,2.53,1,5.14,5.14,0,0,1,.76,2.39C15.58,15.85,15.58,16.06,15.59,16.17Z"/><path d="M9.18,10.6a5.7,5.7,0,0,1,2.56.53,1.44,1.44,0,0,1,.39.35,2.68,2.68,0,0,1-.36.29A14.15,14.15,0,0,0,8.59,14a5.11,5.11,0,0,0-.88,1.14A1.3,1.3,0,0,0,8.1,17a3.41,3.41,0,0,0,1.35.66,2.7,2.7,0,0,1,.48.16c.17.09.18.22,0,.29a2.29,2.29,0,0,1-1.56.27,5,5,0,0,1-2-1A3.06,3.06,0,0,1,5.35,15a4.46,4.46,0,0,1,.79-2.84A3.67,3.67,0,0,1,9.18,10.6Z"/><path d="M1.39,18.54V12.07a.61.61,0,0,1,.18-.45,6.59,6.59,0,0,1,3.32-2,3.35,3.35,0,0,1,.71-.06.56.56,0,0,1,.58.53A2.83,2.83,0,0,1,5.75,12a1.47,1.47,0,0,1-.79.57,1.72,1.72,0,0,0-1.06.88,4.7,4.7,0,0,0-.53,1.9c-.05.49,0,1-.05,1.48,0,.31,0,.63-.09.94a.45.45,0,0,1-.33.4l-1.25.37A1.56,1.56,0,0,1,1.39,18.54Z"/><path d="M16.43,12.51a4.81,4.81,0,0,1-.25,1.56,1.14,1.14,0,0,1-.23.31,1.42,1.42,0,0,1-.26-.29,2.47,2.47,0,0,1-.19-.54,4.29,4.29,0,0,0-2.71-3.07A8.75,8.75,0,0,0,9,9.89c-.67,0-1.34.13-2,.2-.18,0-.29,0-.29-.21a3.07,3.07,0,0,1,.08-.67c.11-.37.24-.75.38-1.11a.57.57,0,0,1,.77-.38c.42.11.82.28,1.25.39a9.56,9.56,0,0,0,2.56.2c.53,0,1.06-.07,1.58-.1a.53.53,0,0,1,.25,0,4.15,4.15,0,0,1,2.8,3.55C16.4,12,16.41,12.28,16.43,12.51Z"/><path d="M6.37,23.87H4.44a1,1,0,0,1-.34-.08,8.55,8.55,0,0,1-2.62-2,.36.36,0,0,1-.08-.25c0-.72,0-1.45,0-2.18a.34.34,0,0,1,.13-.25,5.19,5.19,0,0,1,1.8-.57.36.36,0,0,1,.4.25c.1.32.19.65.26,1s0,.41,0,.61a1.39,1.39,0,0,0,.22.53,3.72,3.72,0,0,0,.67.7,5.07,5.07,0,0,0,2.92,1,4.5,4.5,0,0,0,.81-.11L9,22.43c.18,0,.27.12.22.26a8.46,8.46,0,0,1-.46,1,.55.55,0,0,1-.52.22C7.62,23.86,7,23.87,6.37,23.87Z"/><path d="M17.57,20l-.36.81a6.39,6.39,0,0,1-2.5,3,1,1,0,0,1-.47.13H9.79c-.21,0-.26-.09-.24-.26a.89.89,0,0,1,.08-.32,1.48,1.48,0,0,1,1.33-1c.46,0,.93-.07,1.39,0a2.21,2.21,0,0,0,2-1.07,3.54,3.54,0,0,1,.53-.68A1.92,1.92,0,0,1,16.19,20l1.2-.08A.61.61,0,0,1,17.57,20Z"/><path d="M18.27,15.38c-.07.73-.12,1.68-.25,2.61a1.68,1.68,0,0,1-1.42,1.49c-.22.05-.44.12-.66.16s-.45-.06-.42-.36a9.09,9.09,0,0,1,.18-1A9.63,9.63,0,0,0,16,15.69a1.12,1.12,0,0,1,.24-.72,4.16,4.16,0,0,0,.53-1.53c.08-.4.13-.81.22-1.21,0-.16.12-.4.24-.45s.29.17.39.32a3.74,3.74,0,0,1,.54,1.72C18.23,14.26,18.24,14.72,18.27,15.38Z"/><path d="M9.72,16.87a9.42,9.42,0,0,1-1-.24.68.68,0,0,1-.45-.93,1.29,1.29,0,0,1,1.08-1,.78.78,0,0,1,.76.25,1.92,1.92,0,0,1,.49,1,.66.66,0,0,1-.61.86l-.31,0Z"/></g><g class="cls-3"><path d="M8.65,21.89a5.28,5.28,0,0,1-3.36-1.14,4.93,4.93,0,0,1-1.63-2.62A7.57,7.57,0,0,1,3.41,15a5.16,5.16,0,0,1,.77-1.94c0-.06.12-.09.18-.14s.12.13.13.21a3.35,3.35,0,0,1,0,.71,4.54,4.54,0,0,0,1.62,3.92,3.24,3.24,0,0,0,2.94.83,2.54,2.54,0,0,0,1.58-1.29,6,6,0,0,0,.32-.68c.16-.41.39-.48.73-.19a3,3,0,0,1,1,1.42,4.79,4.79,0,0,1-.07,2.83.61.61,0,0,1-.19.24,3.8,3.8,0,0,1-1.82.75C10,21.76,9.31,21.81,8.65,21.89Z"/><path d="M15.25,15.83a7.73,7.73,0,0,1-1,3.89,3.27,3.27,0,0,1-.35.48c-.25.27-.49.23-.58-.13a7.55,7.55,0,0,1-.19-1.25A10.26,10.26,0,0,0,13,17.46a4.38,4.38,0,0,0-1.51-2.26,6,6,0,0,0-1.65-1.06,1.22,1.22,0,0,1-.45-.33.37.37,0,0,1,.07-.6,6.91,6.91,0,0,1,2.49-1.3,2.1,2.1,0,0,1,2.53,1,5.14,5.14,0,0,1,.76,2.38C15.24,15.51,15.24,15.72,15.25,15.83Z"/><path d="M8.84,10.26a5.7,5.7,0,0,1,2.56.53,1.44,1.44,0,0,1,.39.35,2.68,2.68,0,0,1-.36.29,14.15,14.15,0,0,0-3.18,2.24,5.11,5.11,0,0,0-.88,1.14,1.29,1.29,0,0,0,.39,1.79,3.24,3.24,0,0,0,1.35.67,2.7,2.7,0,0,1,.48.16c.17.09.18.22,0,.29A2.29,2.29,0,0,1,8,18a5,5,0,0,1-2-1A3.06,3.06,0,0,1,5,14.67a4.46,4.46,0,0,1,.79-2.84A3.67,3.67,0,0,1,8.84,10.26Z"/><path d="M1.05,18.2V11.73a.61.61,0,0,1,.18-.45,6.59,6.59,0,0,1,3.32-2,3.35,3.35,0,0,1,.71-.06.56.56,0,0,1,.58.53,2.83,2.83,0,0,1-.43,1.88,1.47,1.47,0,0,1-.79.57,1.72,1.72,0,0,0-1.06.88A4.7,4.7,0,0,0,3,15c0,.49,0,1,0,1.48,0,.31,0,.63-.09.94a.45.45,0,0,1-.33.4l-1.25.37A1.56,1.56,0,0,1,1.05,18.2Z"/><path d="M16.09,12.17a4.81,4.81,0,0,1-.25,1.56,1.14,1.14,0,0,1-.23.31,1.42,1.42,0,0,1-.26-.29,2.47,2.47,0,0,1-.19-.54,4.29,4.29,0,0,0-2.71-3.07,8.75,8.75,0,0,0-3.79-.59c-.67,0-1.34.13-2,.2-.18,0-.29,0-.29-.21a3.07,3.07,0,0,1,.08-.67,10.36,10.36,0,0,1,.38-1.11.57.57,0,0,1,.77-.38c.42.11.82.28,1.25.39A9.56,9.56,0,0,0,11.4,8c.53,0,1.06-.07,1.58-.1a.55.55,0,0,1,.25,0A4.15,4.15,0,0,1,16,11.46C16.06,11.7,16.07,11.94,16.09,12.17Z"/><path d="M6,23.53H4.1a1,1,0,0,1-.34-.08,8.55,8.55,0,0,1-2.62-2,.36.36,0,0,1-.08-.25c0-.72,0-1.45,0-2.18a.34.34,0,0,1,.13-.25A5.19,5.19,0,0,1,3,18.16a.36.36,0,0,1,.4.25c.1.32.19.65.26,1s0,.41.05.61a1.39,1.39,0,0,0,.22.53,3.72,3.72,0,0,0,.67.7,5.07,5.07,0,0,0,2.92,1,4.5,4.5,0,0,0,.81-.11c.12,0,.23,0,.35-.06s.27.12.22.26a8.46,8.46,0,0,1-.46,1,.55.55,0,0,1-.52.22C7.28,23.52,6.66,23.53,6,23.53Z"/><path d="M17.23,19.62l-.36.81a6.39,6.39,0,0,1-2.5,3,1,1,0,0,1-.47.13H9.45c-.21,0-.26-.09-.24-.26A.89.89,0,0,1,9.29,23a1.48,1.48,0,0,1,1.33-1c.46,0,.93-.07,1.39,0a2.21,2.21,0,0,0,2-1.07,3.54,3.54,0,0,1,.53-.68,1.92,1.92,0,0,1,1.28-.48l1.2-.08A.61.61,0,0,1,17.23,19.62Z"/><path d="M17.93,15c-.07.73-.12,1.68-.25,2.61a1.68,1.68,0,0,1-1.42,1.49c-.22.05-.44.12-.66.15s-.45-.05-.42-.35a9.09,9.09,0,0,1,.18-1,9.63,9.63,0,0,0,.32-2.57,1.12,1.12,0,0,1,.24-.72,4.16,4.16,0,0,0,.53-1.53c.08-.4.13-.81.22-1.21,0-.16.12-.4.24-.45s.29.17.39.32a3.74,3.74,0,0,1,.54,1.72C17.89,13.92,17.9,14.38,17.93,15Z"/><path d="M9.38,16.53a9.42,9.42,0,0,1-1-.24A.68.68,0,0,1,8,15.36a1.29,1.29,0,0,1,1.08-1,.78.78,0,0,1,.76.25,1.88,1.88,0,0,1,.49,1,.66.66,0,0,1-.61.86l-.31,0Z"/></g><path class="cls-4" d="M8.85,22.09A5.38,5.38,0,0,1,5.48,21a5,5,0,0,1-1.62-2.62,7.58,7.58,0,0,1-.25-3.14,5.11,5.11,0,0,1,.77-1.95,1.4,1.4,0,0,1,.18-.13c.05.07.12.13.13.2a3.48,3.48,0,0,1,0,.72A4.55,4.55,0,0,0,6.34,18a3.29,3.29,0,0,0,2.95.83,2.53,2.53,0,0,0,1.57-1.29,5.47,5.47,0,0,0,.33-.69c.16-.41.39-.47.73-.18a3,3,0,0,1,1,1.42,4.79,4.79,0,0,1-.07,2.83.61.61,0,0,1-.19.24,3.8,3.8,0,0,1-1.82.75C10.16,22,9.5,22,8.85,22.09Z"/><path class="cls-4" d="M15.45,16a7.64,7.64,0,0,1-1,3.89,2.25,2.25,0,0,1-.34.47c-.25.28-.5.24-.59-.12A8.75,8.75,0,0,1,13.31,19a10.26,10.26,0,0,0-.13-1.36,4.34,4.34,0,0,0-1.52-2.26A5.6,5.6,0,0,0,10,14.33,1.2,1.2,0,0,1,9.56,14a.37.37,0,0,1,.08-.6,6.91,6.91,0,0,1,2.49-1.3,2.11,2.11,0,0,1,2.53,1,5.21,5.21,0,0,1,.76,2.39C15.44,15.7,15.44,15.92,15.45,16Z"/><path class="cls-4" d="M9,10.45A5.74,5.74,0,0,1,11.6,11a2.07,2.07,0,0,1,.39.34,2.6,2.6,0,0,1-.36.3,14.44,14.44,0,0,0-3.19,2.24A5.58,5.58,0,0,0,7.57,15,1.29,1.29,0,0,0,8,16.8a3.3,3.3,0,0,0,1.35.67,2.26,2.26,0,0,1,.48.16c.17.09.18.22,0,.29a2.23,2.23,0,0,1-1.56.26,4.91,4.91,0,0,1-2-1,3,3,0,0,1-1.06-2.28A4.46,4.46,0,0,1,6,12,3.69,3.69,0,0,1,9,10.45Z"/><path class="cls-4" d="M1.25,18.39V11.93a.57.57,0,0,1,.18-.45,6.47,6.47,0,0,1,3.31-2,2.88,2.88,0,0,1,.72-.06A.56.56,0,0,1,6,10a2.86,2.86,0,0,1-.43,1.87,1.43,1.43,0,0,1-.79.58,1.72,1.72,0,0,0-1.06.88,4.88,4.88,0,0,0-.54,1.9c0,.49,0,1-.05,1.47,0,.32,0,.64-.08,1a.46.46,0,0,1-.33.4l-1.25.37A1.84,1.84,0,0,1,1.25,18.39Z"/><path class="cls-4" d="M16.29,12.37A4.82,4.82,0,0,1,16,13.93a.93.93,0,0,1-.22.31,1.39,1.39,0,0,1-.26-.29,2.67,2.67,0,0,1-.19-.54,4.32,4.32,0,0,0-2.71-3.08,8.75,8.75,0,0,0-3.79-.58c-.67,0-1.35.13-2,.2-.18,0-.28,0-.28-.21a2.93,2.93,0,0,1,.08-.67A10.36,10.36,0,0,1,7,8a.56.56,0,0,1,.77-.38c.42.11.82.28,1.24.39a9.27,9.27,0,0,0,2.57.19c.53,0,1.05-.06,1.58-.09a.55.55,0,0,1,.25,0,4.15,4.15,0,0,1,2.8,3.55C16.26,11.89,16.27,12.13,16.29,12.37Z"/><path class="cls-4" d="M6.23,23.73H4.3A.81.81,0,0,1,4,23.64a8.52,8.52,0,0,1-2.62-2,.45.45,0,0,1-.09-.25c0-.73,0-1.45,0-2.18a.33.33,0,0,1,.13-.25,5,5,0,0,1,1.8-.57.36.36,0,0,1,.4.25c.1.32.19.65.26,1s0,.41,0,.6a1.29,1.29,0,0,0,.22.54,4.44,4.44,0,0,0,.67.7,5,5,0,0,0,2.92,1,3.78,3.78,0,0,0,.81-.12l.35-.05c.18,0,.27.12.21.26a7,7,0,0,1-.46,1,.52.52,0,0,1-.51.22C7.48,23.72,6.85,23.73,6.23,23.73Z"/><path class="cls-4" d="M17.43,19.82c-.13.29-.24.55-.36.81a6.39,6.39,0,0,1-2.5,3,1,1,0,0,1-.47.13H9.65c-.21,0-.26-.09-.24-.26a.89.89,0,0,1,.08-.32,1.48,1.48,0,0,1,1.33-1c.46,0,.93-.07,1.39-.05a2.24,2.24,0,0,0,2-1.07,3.94,3.94,0,0,1,.52-.68A2,2,0,0,1,16,19.88l1.2-.08Z"/><path class="cls-4" d="M18.13,15.23c-.07.74-.12,1.69-.25,2.62a1.7,1.7,0,0,1-1.42,1.49c-.22.05-.44.11-.66.15s-.45,0-.42-.35a9.09,9.09,0,0,1,.18-1,9.68,9.68,0,0,0,.32-2.57,1.16,1.16,0,0,1,.24-.73,4.3,4.3,0,0,0,.53-1.52c.08-.4.13-.81.22-1.21,0-.17.12-.4.24-.45s.29.17.39.32A3.86,3.86,0,0,1,18,13.67C18.08,14.12,18.09,14.58,18.13,15.23Z"/><path class="cls-4" d="M9.58,16.73c-.32-.08-.65-.13-1-.24a.68.68,0,0,1-.44-.93,1.28,1.28,0,0,1,1.08-1,.78.78,0,0,1,.76.25,1.92,1.92,0,0,1,.49,1,.66.66,0,0,1-.61.86l-.31,0Z"/></g></g></svg>