<svg xmlns="http://www.w3.org/2000/svg" viewBox="0 0 38.55 24.66"><defs><style>.cls-1{isolation:isolate;}.cls-2{opacity:0.15;}.cls-2,.cls-3{mix-blend-mode:multiply;}.cls-4{fill:#fff;}</style></defs><title>convert-CUSTOMIZE-SVG-03</title><g class="cls-1"><g id="Layer_1" data-name="Layer 1"><g class="cls-2"><path d="M10,13.64l.93,1.1a4.71,4.71,0,0,0-.17.88,2.74,2.74,0,0,0,1,2l.14.13a.79.79,0,0,0,0,.09c-.12,0-.2-.05-.26-.08a3.57,3.57,0,0,0-1.43-.61,1.6,1.6,0,0,0-1.67.8,2.4,2.4,0,0,0-.1,2.18c.09.22.21.43.32.68l-.8.46c-.75.42-.76.42-1.51,0a12,12,0,0,1-3.86-3.15,5.55,5.55,0,0,1-1.3-3.62,2.91,2.91,0,0,1,1.2-2.26.22.22,0,0,1,.33,0,7.44,7.44,0,0,0,1.84,1.19.35.35,0,0,0,.37,0c.33-.19.66-.36,1-.55a.23.23,0,0,1,.28,0c.34.27.67.55,1,.79s.7.43,1,.62a.36.36,0,0,0,.32,0C9.16,14.13,9.56,13.88,10,13.64Z"/><path d="M15.9,15.17c-.05-.1-.07-.16-.1-.22a1.24,1.24,0,0,0-1.61-.72,4,4,0,0,0-.7.32.26.26,0,0,1-.3,0,5,5,0,0,0-.71-.32,1.25,1.25,0,0,0-1,0,.21.21,0,0,1-.19,0c-.31-.34-.6-.69-.91-1l.26-.33a2.6,2.6,0,0,0,.5-1.37.81.81,0,0,0,0-.35.32.32,0,0,1,.17-.45,5.51,5.51,0,0,0,1.38-1.21.16.16,0,0,1,.25,0l1.21.8c.31-.22.63-.47,1-.68A3.66,3.66,0,0,1,16.63,9a1.51,1.51,0,0,1,1.6.82A2.59,2.59,0,0,1,18.39,12a5.61,5.61,0,0,1-1.65,2.42C16.48,14.7,16.19,14.92,15.9,15.17Z"/><path d="M5.94,4.07A5.16,5.16,0,0,1,7.71,3,2.2,2.2,0,0,1,9,2.79a1.51,1.51,0,0,1,1,.82,3.2,3.2,0,0,0-1,1.82,1.65,1.65,0,0,0-1.8.32,2.05,2.05,0,0,0-.59,1.77A3.88,3.88,0,0,0,5,8.16a.31.31,0,0,1-.23,0,3.58,3.58,0,0,0-1.26-.57,5,5,0,0,0-.67,0c-.09,0-.21,0-.26-.08A4.27,4.27,0,0,1,1.52,4.71a2.11,2.11,0,0,1,.79-1.64,1.48,1.48,0,0,1,1.42-.25,5.28,5.28,0,0,1,2,1.06Z"/><path d="M14.15,9.39l-.93-.58c.12-.33.25-.65.34-1a2.17,2.17,0,0,0-.11-1.44,1.64,1.64,0,0,0-2.14-1,8.21,8.21,0,0,0-1.08.52c-.11.06-.18.09-.29,0-.41-.27-.41-.27-.25-.74a3.16,3.16,0,0,1,.22-.5,1.53,1.53,0,0,1,1.88-.82,5.07,5.07,0,0,1,2,1.09l.18.15.22-.18a4.61,4.61,0,0,1,2.19-1.1,1.44,1.44,0,0,1,1.46.55,2.52,2.52,0,0,1,.36,2.48,4.65,4.65,0,0,1-.72,1.4.19.19,0,0,1-.16.09,3.15,3.15,0,0,0-2.06.38C14.9,8.93,14.53,9.17,14.15,9.39Z"/><path d="M10.76,10.3a1.36,1.36,0,0,0-1.51-.23l-.07,0a1.37,1.37,0,0,1-.72-.66A2,2,0,0,0,7.32,7.61a.27.27,0,0,1-.13-.17,1.45,1.45,0,0,1,.32-1.13A.94.94,0,0,1,8.57,6a3.46,3.46,0,0,1,1.28.69l.21.17c.29-.19.55-.41.85-.57A3.91,3.91,0,0,1,11.8,6a.81.81,0,0,1,.85.34,1.6,1.6,0,0,1,.23,1.56,4,4,0,0,1-1.41,1.91C11.25,10,11,10.12,10.76,10.3Z"/><path d="M4.88,9.05c.34-.22.66-.45,1-.64a1.45,1.45,0,0,1,1-.23,1,1,0,0,1,.53.27A1.44,1.44,0,0,1,7.71,10l-.3,0A1.35,1.35,0,0,0,6,11.4c0,.2.07.4.08.6a.24.24,0,0,1-.08.22c-.31.21-.63.4-1,.58a.26.26,0,0,1-.21,0A6.15,6.15,0,0,1,2.54,11,2.53,2.53,0,0,1,2,9.49a1.75,1.75,0,0,1,.14-.67,1,1,0,0,1,1.29-.6,3.46,3.46,0,0,1,1.26.69Z"/><path d="M11.85,18.73l.45-.37c.32.38.6.76.93,1.1s.73.62,1.13.95c-.11.15-.23.33-.37.5a6.35,6.35,0,0,1-2,1.54.26.26,0,0,1-.21,0,6,6,0,0,1-2.37-2A2.76,2.76,0,0,1,9,19.17a1.43,1.43,0,0,1,.4-1.08.92.92,0,0,1,1-.23,3.46,3.46,0,0,1,1.29.7Z"/><path d="M13.39,18.68c.43-.28.87-.54,1.27-.84a3.21,3.21,0,0,0,1.18-1.58.28.28,0,0,1,.11-.15,3.33,3.33,0,0,1,1.16-.54.92.92,0,0,1,1,.41,1.6,1.6,0,0,1,.18,1.47A3.64,3.64,0,0,1,17,19.26c-.43.34-.92.62-1.38.92a.27.27,0,0,1-.23,0,6.42,6.42,0,0,1-2-1.49S13.38,18.67,13.39,18.68Z"/><path d="M13.32,15.46a7.26,7.26,0,0,1,.74-.49c.29-.16.62-.31.93-.05a1,1,0,0,1,.26,1,2.12,2.12,0,0,1-.7,1.14,12,12,0,0,1-1.09.78.27.27,0,0,1-.23,0,4,4,0,0,1-1.46-1.19,1.63,1.63,0,0,1-.38-1,1.41,1.41,0,0,1,.19-.59.5.5,0,0,1,.6-.23,2.27,2.27,0,0,1,1,.52Z"/><path d="M8.57,11.24c.26-.17.5-.35.76-.49a.79.79,0,0,1,.89-.06.91.91,0,0,1,.28,1,2.57,2.57,0,0,1-1.15,1.54c-.9.61-.62.61-1.53,0a2.56,2.56,0,0,1-1.16-1.58,1.2,1.2,0,0,1,0-.5.65.65,0,0,1,1-.5,4.36,4.36,0,0,1,.72.42Z"/><path d="M10.18,13.84l.92,1.1a4.67,4.67,0,0,0-.16.88,2.74,2.74,0,0,0,1.05,2l.14.13s0,0,0,.09a1.26,1.26,0,0,1-.26-.09,3.55,3.55,0,0,0-1.43-.6,1.61,1.61,0,0,0-1.68.8,2.4,2.4,0,0,0-.09,2.18c.09.22.2.43.32.68l-.8.46c-.76.42-.76.42-1.51,0a12,12,0,0,1-3.86-3.15,5.5,5.5,0,0,1-1.3-3.62,2.88,2.88,0,0,1,1.2-2.26.22.22,0,0,1,.33,0,7.88,7.88,0,0,0,1.83,1.19.37.37,0,0,0,.38,0c.32-.19.66-.36,1-.55a.23.23,0,0,1,.28,0c.34.27.67.54,1,.79a11.12,11.12,0,0,0,1.05.62.34.34,0,0,0,.31,0C9.36,14.33,9.76,14.08,10.18,13.84Z"/><path d="M16.1,15.37,16,15.14a1.23,1.23,0,0,0-1.6-.72,3.72,3.72,0,0,0-.7.33.26.26,0,0,1-.3,0,6.51,6.51,0,0,0-.71-.33,1.35,1.35,0,0,0-.95,0,.18.18,0,0,1-.19,0c-.31-.34-.61-.69-.91-1l.25-.33a2.53,2.53,0,0,0,.51-1.37.81.81,0,0,0,0-.35c-.09-.22,0-.33.17-.45a5.51,5.51,0,0,0,1.38-1.21c.09-.11.15-.1.25,0l1.21.8c.31-.22.63-.47,1-.68a3.53,3.53,0,0,1,1.46-.56,1.52,1.52,0,0,1,1.61.82,2.59,2.59,0,0,1,.16,2.24,5.61,5.61,0,0,1-1.65,2.42C16.68,14.9,16.39,15.12,16.1,15.37Z"/><path d="M6.13,4.27A5.3,5.3,0,0,1,7.91,3.15,2.11,2.11,0,0,1,9.15,3a1.45,1.45,0,0,1,1,.82,3.24,3.24,0,0,0-1,1.82A1.65,1.65,0,0,0,7.34,6a2,2,0,0,0-.59,1.77,3.82,3.82,0,0,0-1.54.64.27.27,0,0,1-.23,0,4,4,0,0,0-1.26-.57c-.22,0-.45,0-.67,0s-.21,0-.26-.08A4.29,4.29,0,0,1,1.72,4.91a2.1,2.1,0,0,1,.79-1.65A1.51,1.51,0,0,1,3.93,3a5.08,5.08,0,0,1,2,1.06Z"/><path d="M14.35,9.59,13.42,9c.11-.33.25-.65.33-1a2,2,0,0,0-.11-1.44,1.63,1.63,0,0,0-2.13-1,7.12,7.12,0,0,0-1.08.52c-.11.06-.18.09-.29,0-.41-.27-.41-.27-.25-.74a4.4,4.4,0,0,1,.21-.5A1.55,1.55,0,0,1,12,4.08a5.07,5.07,0,0,1,2,1.09l.18.15.22-.19A4.65,4.65,0,0,1,16.6,4a1.46,1.46,0,0,1,1.47.54,2.52,2.52,0,0,1,.36,2.48,4.7,4.7,0,0,1-.72,1.41.19.19,0,0,1-.16.09,3.14,3.14,0,0,0-2.06.38C15.1,9.13,14.73,9.37,14.35,9.59Z"/><path d="M11,10.49a1.36,1.36,0,0,0-1.51-.22.19.19,0,0,1-.08,0,1.39,1.39,0,0,1-.71-.66A1.94,1.94,0,0,0,7.51,7.81a.3.3,0,0,1-.12-.17A1.48,1.48,0,0,1,7.7,6.51a1,1,0,0,1,1.07-.32,3.68,3.68,0,0,1,1.28.68c.07.07.15.13.21.18a7.42,7.42,0,0,1,.85-.57A3.35,3.35,0,0,1,12,6.17a.81.81,0,0,1,.85.34,1.62,1.62,0,0,1,.23,1.56A4,4,0,0,1,11.67,10C11.44,10.16,11.2,10.32,11,10.49Z"/><path d="M5.08,9.25c.34-.22.66-.45,1-.64a1.45,1.45,0,0,1,1-.23,1.08,1.08,0,0,1,.53.27,1.44,1.44,0,0,1,.3,1.54l-.3,0a1.36,1.36,0,0,0-1.44,1.44c0,.21.08.41.09.61a.24.24,0,0,1-.08.22c-.31.21-.63.4-1,.58A.26.26,0,0,1,5,13a6,6,0,0,1-2.27-1.85,2.53,2.53,0,0,1-.52-1.47A1.75,1.75,0,0,1,2.36,9a1,1,0,0,1,1.28-.6,3.42,3.42,0,0,1,1.27.69Z"/><path d="M12.05,18.93l.45-.37c.32.37.6.76.93,1.1s.73.62,1.13.94c-.12.16-.23.34-.37.51a6.35,6.35,0,0,1-2,1.54.31.31,0,0,1-.21,0,6,6,0,0,1-2.37-2,2.76,2.76,0,0,1-.44-1.31,1.42,1.42,0,0,1,.39-1.08.94.94,0,0,1,1-.23,3.46,3.46,0,0,1,1.29.7Z"/><path d="M13.58,18.87c.44-.28.88-.53,1.28-.83A3.19,3.19,0,0,0,16,16.45a.3.3,0,0,1,.11-.14,3.09,3.09,0,0,1,1.16-.54.93.93,0,0,1,1,.41,1.63,1.63,0,0,1,.18,1.47,3.58,3.58,0,0,1-1.27,1.8,14.63,14.63,0,0,1-1.39.93.25.25,0,0,1-.22,0,6.42,6.42,0,0,1-2-1.49A.15.15,0,0,1,13.58,18.87Z"/><path d="M13.52,15.65a7.73,7.73,0,0,1,.74-.48c.29-.16.62-.31.92-.05a.93.93,0,0,1,.27,1,2.1,2.1,0,0,1-.7,1.13,10.41,10.41,0,0,1-1.09.79.27.27,0,0,1-.23,0A4.12,4.12,0,0,1,12,16.88a1.63,1.63,0,0,1-.38-1,1.56,1.56,0,0,1,.18-.59.51.51,0,0,1,.61-.23,2.33,2.33,0,0,1,1,.52Z"/><path d="M8.77,11.44c.26-.17.5-.35.75-.49s.6-.29.9-.06a.93.93,0,0,1,.28,1,2.6,2.6,0,0,1-1.15,1.54c-.9.6-.62.61-1.53,0a2.52,2.52,0,0,1-1.16-1.58,1.2,1.2,0,0,1,0-.5.65.65,0,0,1,1-.5,4.81,4.81,0,0,1,.72.42Z"/></g><g class="cls-3"><path d="M9.84,13.5l.92,1.1a4.67,4.67,0,0,0-.16.88,2.74,2.74,0,0,0,1.05,2,.86.86,0,0,0,.14.13s0,0,0,.09a1.26,1.26,0,0,1-.26-.09,3.55,3.55,0,0,0-1.43-.6,1.61,1.61,0,0,0-1.68.8A2.4,2.4,0,0,0,8.37,20c.09.22.2.43.32.68l-.8.46c-.76.42-.76.42-1.51,0A12,12,0,0,1,2.52,18a5.51,5.51,0,0,1-1.3-3.63,2.86,2.86,0,0,1,1.2-2.25.22.22,0,0,1,.33,0,7.88,7.88,0,0,0,1.83,1.19.37.37,0,0,0,.38,0c.32-.19.66-.36,1-.55a.23.23,0,0,1,.28,0c.34.27.67.54,1,.79a11.12,11.12,0,0,0,1,.62.34.34,0,0,0,.31,0C9,14,9.42,13.74,9.84,13.5Z"/><path d="M15.76,15l-.11-.23a1.23,1.23,0,0,0-1.6-.72,3.72,3.72,0,0,0-.7.33.26.26,0,0,1-.3,0,6.51,6.51,0,0,0-.71-.33,1.35,1.35,0,0,0-.95,0,.18.18,0,0,1-.19,0c-.31-.34-.61-.69-.91-1l.25-.33a2.53,2.53,0,0,0,.51-1.37A.81.81,0,0,0,11,11c-.09-.22,0-.33.17-.45a5.51,5.51,0,0,0,1.38-1.21c.09-.11.15-.1.25,0l1.21.8c.31-.22.63-.47,1-.68a3.53,3.53,0,0,1,1.46-.56,1.52,1.52,0,0,1,1.61.82,2.59,2.59,0,0,1,.16,2.24,5.61,5.61,0,0,1-1.65,2.42C16.34,14.56,16.05,14.78,15.76,15Z"/><path d="M5.79,3.93A5.3,5.3,0,0,1,7.57,2.81a2.11,2.11,0,0,1,1.24-.16,1.45,1.45,0,0,1,1,.82,3.24,3.24,0,0,0-1,1.82A1.65,1.65,0,0,0,7,5.61a2,2,0,0,0-.59,1.77A3.82,3.82,0,0,0,4.87,8a.27.27,0,0,1-.23,0,4,4,0,0,0-1.26-.57c-.22,0-.45,0-.67,0a.5.5,0,0,1-.26-.08A4.29,4.29,0,0,1,1.38,4.57a2.1,2.1,0,0,1,.79-1.65,1.51,1.51,0,0,1,1.42-.24,5.08,5.08,0,0,1,2,1.06Z"/><path d="M14,9.25l-.93-.58c.11-.33.25-.65.33-1a2,2,0,0,0-.11-1.44,1.63,1.63,0,0,0-2.13-1,6.69,6.69,0,0,0-1.08.52c-.11.06-.18.09-.29,0-.41-.27-.42-.27-.25-.74a4.4,4.4,0,0,1,.21-.5,1.55,1.55,0,0,1,1.89-.82,5.07,5.07,0,0,1,2,1.09l.17.15a2.11,2.11,0,0,0,.23-.19A4.65,4.65,0,0,1,16.26,3.7a1.46,1.46,0,0,1,1.47.54,2.52,2.52,0,0,1,.36,2.48,4.7,4.7,0,0,1-.72,1.41.19.19,0,0,1-.16.09,3.14,3.14,0,0,0-2.06.38C14.76,8.79,14.39,9,14,9.25Z"/><path d="M10.62,10.15a1.34,1.34,0,0,0-1.51-.22A.19.19,0,0,1,9,10a1.45,1.45,0,0,1-.72-.66A1.92,1.92,0,0,0,7.17,7.47a.3.3,0,0,1-.12-.17,1.48,1.48,0,0,1,.31-1.13,1,1,0,0,1,1.07-.32,3.68,3.68,0,0,1,1.28.68c.07.07.15.13.21.18a7.42,7.42,0,0,1,.85-.57,3.35,3.35,0,0,1,.89-.31.81.81,0,0,1,.85.34,1.62,1.62,0,0,1,.23,1.56,4,4,0,0,1-1.41,1.91C11.1,9.82,10.86,10,10.62,10.15Z"/><path d="M4.74,8.91c.34-.22.66-.45,1-.64a1.45,1.45,0,0,1,1-.23,1.08,1.08,0,0,1,.53.27,1.44,1.44,0,0,1,.3,1.54l-.3,0a1.36,1.36,0,0,0-1.44,1.44c0,.21.08.41.09.61a.24.24,0,0,1-.08.22c-.31.21-.63.4-1,.58a.26.26,0,0,1-.21,0A6,6,0,0,1,2.4,10.82a2.53,2.53,0,0,1-.52-1.47A1.75,1.75,0,0,1,2,8.68,1,1,0,0,1,3.3,8.07a3.44,3.44,0,0,1,1.27.7Z"/><path d="M11.71,18.59l.45-.37c.32.37.6.76.93,1.1s.73.62,1.13.94c-.12.16-.23.34-.37.51a6.35,6.35,0,0,1-2,1.54.26.26,0,0,1-.21,0,5.8,5.8,0,0,1-2.37-2A2.69,2.69,0,0,1,8.81,19,1.42,1.42,0,0,1,9.2,18a.93.93,0,0,1,1-.23,3.46,3.46,0,0,1,1.29.7Z"/><path d="M13.24,18.53c.44-.28.88-.53,1.28-.83a3.19,3.19,0,0,0,1.18-1.59.3.3,0,0,1,.11-.14A3.09,3.09,0,0,1,17,15.43a.93.93,0,0,1,1,.41,1.63,1.63,0,0,1,.18,1.47,3.58,3.58,0,0,1-1.27,1.8A16,16,0,0,1,15.5,20a.25.25,0,0,1-.22,0,6.42,6.42,0,0,1-2-1.49A.15.15,0,0,1,13.24,18.53Z"/><path d="M13.18,15.31a7.73,7.73,0,0,1,.74-.48c.29-.16.62-.31.92-.05a.93.93,0,0,1,.27,1,2.1,2.1,0,0,1-.7,1.13,10.41,10.41,0,0,1-1.09.79.27.27,0,0,1-.23,0,4.12,4.12,0,0,1-1.46-1.19,1.65,1.65,0,0,1-.38-1,1.56,1.56,0,0,1,.18-.59.51.51,0,0,1,.61-.23,2.33,2.33,0,0,1,1,.52Z"/><path d="M8.43,11.1c.26-.17.5-.35.75-.49s.6-.29.9-.06a.93.93,0,0,1,.28,1,2.6,2.6,0,0,1-1.15,1.54c-.9.6-.62.61-1.53,0a2.52,2.52,0,0,1-1.16-1.58,1.2,1.2,0,0,1,0-.5.65.65,0,0,1,1-.5,4.81,4.81,0,0,1,.72.42Z"/></g><path class="cls-4" d="M10,13.7,11,14.8a4.67,4.67,0,0,0-.16.88,2.74,2.74,0,0,0,1,2l.14.13,0,.09a1.37,1.37,0,0,1-.25-.09,3.55,3.55,0,0,0-1.43-.6,1.6,1.6,0,0,0-1.68.8,2.4,2.4,0,0,0-.09,2.18,6.69,6.69,0,0,0,.32.67l-.8.47c-.76.42-.76.42-1.52,0a12.21,12.21,0,0,1-3.85-3.15,5.51,5.51,0,0,1-1.3-3.63,2.86,2.86,0,0,1,1.2-2.25.22.22,0,0,1,.33,0,7.61,7.61,0,0,0,1.83,1.2.39.39,0,0,0,.38,0l1-.55a.21.21,0,0,1,.29,0c.33.27.67.54,1,.78a11.22,11.22,0,0,0,1,.63.37.37,0,0,0,.31,0C9.22,14.19,9.62,13.94,10,13.7Z"/><path class="cls-4" d="M16,15.23l-.1-.23a1.23,1.23,0,0,0-1.6-.72,3.72,3.72,0,0,0-.7.33.27.27,0,0,1-.31,0,4.47,4.47,0,0,0-.7-.33,1.3,1.3,0,0,0-.95,0,.23.23,0,0,1-.2,0l-.9-1,.25-.33a2.56,2.56,0,0,0,.51-1.37.73.73,0,0,0,0-.36c-.08-.21,0-.32.18-.44a5.92,5.92,0,0,0,1.38-1.21c.08-.11.15-.1.25,0l1.21.8c.31-.22.63-.47,1-.68A3.69,3.69,0,0,1,16.68,9a1.54,1.54,0,0,1,1.61.83,2.59,2.59,0,0,1,.16,2.24,5.61,5.61,0,0,1-1.65,2.42C16.54,14.76,16.25,15,16,15.23Z"/><path class="cls-4" d="M6,4.13A5.3,5.3,0,0,1,7.77,3,2,2,0,0,1,9,2.85a1.45,1.45,0,0,1,1,.82A3.24,3.24,0,0,0,9,5.49a1.65,1.65,0,0,0-1.8.32,2,2,0,0,0-.6,1.77,3.84,3.84,0,0,0-1.53.64.27.27,0,0,1-.23,0,3.93,3.93,0,0,0-1.27-.57c-.21,0-.44,0-.67,0a.49.49,0,0,1-.25-.08A4.24,4.24,0,0,1,1.58,4.77a2.1,2.1,0,0,1,.79-1.65,1.5,1.5,0,0,1,1.42-.24,5,5,0,0,1,2,1.06C5.83,4,5.91,4.05,6,4.13Z"/><path class="cls-4" d="M14.21,9.45l-.93-.58c.11-.33.25-.65.33-1a2.08,2.08,0,0,0-.11-1.45,1.63,1.63,0,0,0-2.13-1A6.31,6.31,0,0,0,10.29,6c-.11.06-.18.09-.3,0-.4-.27-.41-.27-.25-.74a2.81,2.81,0,0,1,.22-.5,1.54,1.54,0,0,1,1.89-.82,5.07,5.07,0,0,1,2,1.09l.17.15L14.28,5A4.65,4.65,0,0,1,16.46,3.9a1.46,1.46,0,0,1,1.47.54,2.55,2.55,0,0,1,.36,2.48,5,5,0,0,1-.72,1.41s-.12.1-.16.09a3.13,3.13,0,0,0-2.06.37C15,9,14.59,9.23,14.21,9.45Z"/><path class="cls-4" d="M10.82,10.35a1.34,1.34,0,0,0-1.51-.22l-.08,0a1.45,1.45,0,0,1-.72-.66A1.92,1.92,0,0,0,7.37,7.67a.3.3,0,0,1-.12-.17,1.48,1.48,0,0,1,.31-1.13,1,1,0,0,1,1.07-.32,3.26,3.26,0,0,1,1.27.68l.22.18A7.42,7.42,0,0,1,11,6.34,3.86,3.86,0,0,1,11.85,6a.84.84,0,0,1,.86.35,1.59,1.59,0,0,1,.22,1.56,3.94,3.94,0,0,1-1.4,1.91C11.3,10,11.06,10.18,10.82,10.35Z"/><path class="cls-4" d="M4.94,9.11c.34-.22.65-.45,1-.64a1.4,1.4,0,0,1,1-.23,1,1,0,0,1,.53.27,1.46,1.46,0,0,1,.3,1.54,1.54,1.54,0,0,0-.3,0A1.36,1.36,0,0,0,6,11.45c0,.21.07.4.09.61a.29.29,0,0,1-.08.22c-.31.2-.63.4-1,.58a.26.26,0,0,1-.21,0A5.92,5.92,0,0,1,2.6,11a2.46,2.46,0,0,1-.52-1.47,2,2,0,0,1,.13-.67A1,1,0,0,1,3.5,8.27,3.44,3.44,0,0,1,4.77,9Z"/><path class="cls-4" d="M11.91,18.79l.45-.37c.31.37.6.76.93,1.1s.73.61,1.12.94c-.11.16-.22.34-.36.51a6.35,6.35,0,0,1-2,1.54.26.26,0,0,1-.21,0,5.8,5.8,0,0,1-2.37-2A2.62,2.62,0,0,1,9,19.23a1.42,1.42,0,0,1,.39-1.08.93.93,0,0,1,1-.23,3.34,3.34,0,0,1,1.28.7Z"/><path class="cls-4" d="M13.44,18.73c.43-.28.87-.53,1.28-.83a3.25,3.25,0,0,0,1.18-1.59.25.25,0,0,1,.11-.14,2.88,2.88,0,0,1,1.16-.54.93.93,0,0,1,1,.41,1.63,1.63,0,0,1,.18,1.47,3.58,3.58,0,0,1-1.27,1.8,16,16,0,0,1-1.39.93.27.27,0,0,1-.23,0,6.37,6.37,0,0,1-2-1.5Z"/><path class="cls-4" d="M13.37,15.51a7.85,7.85,0,0,1,.75-.48c.29-.16.62-.32.92-.06a1,1,0,0,1,.27,1,2.1,2.1,0,0,1-.7,1.13,12.09,12.09,0,0,1-1.09.79.27.27,0,0,1-.23,0,4.12,4.12,0,0,1-1.46-1.19,1.67,1.67,0,0,1-.39-1.06,1.33,1.33,0,0,1,.19-.58.52.52,0,0,1,.61-.24,2.45,2.45,0,0,1,1,.52Z"/><path class="cls-4" d="M8.62,11.3c.27-.17.5-.35.76-.49s.6-.29.89-.06a.94.94,0,0,1,.29,1A2.55,2.55,0,0,1,9.41,13.3c-.9.61-.62.62-1.53,0a2.47,2.47,0,0,1-1.16-1.57,1.2,1.2,0,0,1,0-.5.66.66,0,0,1,1-.51,6,6,0,0,1,.72.43A1,1,0,0,1,8.62,11.3Z"/></g></g></svg>