<svg xmlns="http://www.w3.org/2000/svg" viewBox="0 0 38.55 24.66"><defs><style>.cls-1{isolation:isolate;}.cls-2{opacity:0.15;}.cls-2,.cls-3{mix-blend-mode:multiply;}.cls-4{fill:#fff;}</style></defs><title>convert-CUSTOMIZE-SVG-03</title><g class="cls-1"><g id="Layer_1" data-name="Layer 1"><g class="cls-2"><path d="M38.55,17.55l-2.38-.13c0,.12,0,.24,0,.37,0,.4,0,.8,0,1.2a.24.24,0,0,0,.06.18,1.39,1.39,0,0,1,.47,1.44,2.78,2.78,0,0,1-1.37,1.79,10,10,0,0,1-2.78,1.15.18.18,0,0,1-.17-.06l-.71-.93a.36.36,0,0,0-.21-.13,3.43,3.43,0,0,1-3-2.8,4.66,4.66,0,0,1-.09-.75c0-.14-.05-.21-.2-.24a3.81,3.81,0,0,1-1.71-.75,1.52,1.52,0,0,1,.7-2.81,2.21,2.21,0,0,1,1.35.32c-.06.17-.15.23-.32.17a1.15,1.15,0,0,0-1.19.17,1.18,1.18,0,0,0-.19,1.48,2.47,2.47,0,0,0,1.43,1l.15,0c.15-.25.29-.52.45-.76a.88.88,0,0,1,.77-.42.41.41,0,0,1,.43.48,1,1,0,0,1-.48.79,6.4,6.4,0,0,1-.74.38,2.83,2.83,0,0,0,2,2.57,10.24,10.24,0,0,1-.34-1.15,2.16,2.16,0,0,1,.47-1.94,1.4,1.4,0,0,1,1.77-.2,1.72,1.72,0,0,1,.87,1.75,1.78,1.78,0,0,1,1.82-.92c0-.21.1-.43.12-.65s0-.45,0-.68,0-.16-.17-.18c-.59-.13-1.19-.25-1.77-.42a3,3,0,0,1-1.38-.81,1.21,1.21,0,0,1-.36-.72.83.83,0,0,1,.88-1,2.93,2.93,0,0,1,1.81.65A4,4,0,0,1,36,16.71a.23.23,0,0,0,.25.16l2.35,0Zm-3.08-.76a1.09,1.09,0,0,0,0-.14,3.93,3.93,0,0,0-.92-1.07,2.18,2.18,0,0,0-1.2-.5.37.37,0,0,0-.43.28.64.64,0,0,0,.26.7A4.13,4.13,0,0,0,35.47,16.79Z"/><path d="M22.69,18.77a2.1,2.1,0,0,1,2-.46,1.94,1.94,0,0,1,1.56,1.88,2.18,2.18,0,0,1-.52,1.25,3.62,3.62,0,0,1-2.24,1.23,11.78,11.78,0,0,1-2.78.17c-.36,0-.71-.05-1.07-.09a.23.23,0,0,1-.24-.19A13.56,13.56,0,0,1,18.71,19a3.84,3.84,0,0,1,.65-2.51,2,2,0,0,1,1.82-.93,1.91,1.91,0,0,1,1.43.94A2.13,2.13,0,0,1,22.69,18.77Z"/><path d="M16.67,17.9a1.88,1.88,0,0,1,1-1.91,1.58,1.58,0,0,1,1.71,0c-.12.16-.23.31-.33.46a4,4,0,0,0-.6,2.1,10.22,10.22,0,0,0,.27,2.53.38.38,0,0,1,0,.24c-.19.26-.39.51-.59.76a.26.26,0,0,1-.23.08,10.64,10.64,0,0,1-3.34-1.47,3,3,0,0,1-1.27-1.89,1.59,1.59,0,0,1,1.5-1.92A1.91,1.91,0,0,1,16.67,17.9Z"/><path d="M10,16.12a2.16,2.16,0,0,1,1.71-.27,1.57,1.57,0,0,1,.78,2.5,3.57,3.57,0,0,1-2,1.1c-.21.05-.35.09-.36.37a4.14,4.14,0,0,1-.4,1.57,3.46,3.46,0,0,1-2.61,2A4.2,4.2,0,0,1,3.7,22.6a3.73,3.73,0,0,1-1.54-2.74c0-.54,0-1.09,0-1.65l-.93.06v-.61c.27,0,.53,0,.79,0a.47.47,0,0,0,.51-.33A3.71,3.71,0,0,1,5.1,15.15a1.53,1.53,0,0,1,1,.07.88.88,0,0,1,.37,1.14A2.23,2.23,0,0,1,5.21,17.5a7.63,7.63,0,0,1-2.27.61c-.14,0-.21.06-.22.23a3.73,3.73,0,0,0,2.41,3.83,3.73,3.73,0,0,0,3-.08,2.83,2.83,0,0,0,1.48-1.76c.09-.25.14-.53.22-.81a1.52,1.52,0,0,1-1.18-.71,1.1,1.1,0,0,1-.16-.53c0-.35.41-.52.78-.36a1.78,1.78,0,0,1,.82.95l.09.21A2.36,2.36,0,0,0,12,17.67a1.12,1.12,0,0,0-1.29-1.44l-.29.06C10.16,16.34,10.16,16.34,10,16.12ZM2.93,17.55a5.28,5.28,0,0,0,1.61-.28,2.2,2.2,0,0,0,1-.62A.65.65,0,0,0,5.61,16,.48.48,0,0,0,5,15.81c-.1,0-.2,0-.3.08A3.41,3.41,0,0,0,2.93,17.55Z"/><path d="M6.29,19a1,1,0,0,1,.87-.66.88.88,0,0,1,1,1.14,2.12,2.12,0,0,1-.93,1.26,10.28,10.28,0,0,1-1.06.64.28.28,0,0,1-.25,0A5.3,5.3,0,0,1,4.64,20a1.61,1.61,0,0,1-.21-1.17.85.85,0,0,1,.81-.7,1.09,1.09,0,0,1,.94.6C6.22,18.8,6.25,18.9,6.29,19Z"/><path d="M35.81,11.7a1.07,1.07,0,0,1,1-1,1,1,0,0,1,.87,1.17,3.19,3.19,0,0,1-.84,1.55,5.41,5.41,0,0,1-.54.53.18.18,0,0,1-.19,0,5,5,0,0,1-1.71-1.11,1.55,1.55,0,0,1-.41-1,.86.86,0,0,1,1.22-.78A1.07,1.07,0,0,1,35.81,11.7Z"/><path d="M3.24,11.84A1.05,1.05,0,0,1,3.71,11,.85.85,0,0,1,5,11.47a2,2,0,0,1-.32,1.58A11.73,11.73,0,0,1,4,14a.21.21,0,0,1-.19.07,4.21,4.21,0,0,1-2-1,1.22,1.22,0,0,1-.36-1,.75.75,0,0,1,.57-.64.93.93,0,0,1,.94.18A2.89,2.89,0,0,1,3.24,11.84Z"/><path d="M36,7.93a.57.57,0,0,1,.59-.15.46.46,0,0,1,.14.79,1.88,1.88,0,0,1-1.06.55.17.17,0,0,1-.14-.07,1.9,1.9,0,0,1-.47-1,.83.83,0,0,1,0-.38.38.38,0,0,1,.37-.29.49.49,0,0,1,.46.3A1.5,1.5,0,0,1,36,7.93Z"/><path d="M38.74,17.75l-2.37-.13c0,.12,0,.24.05.37,0,.4,0,.8,0,1.2a.26.26,0,0,0,.06.18A1.39,1.39,0,0,1,37,20.81a2.74,2.74,0,0,1-1.37,1.78,10,10,0,0,1-2.79,1.16s-.13,0-.17-.06l-.7-.93a.43.43,0,0,0-.21-.14,3.41,3.41,0,0,1-3-2.79,4.66,4.66,0,0,1-.09-.75c0-.14-.05-.21-.2-.24a3.82,3.82,0,0,1-1.71-.75,1.53,1.53,0,0,1,.69-2.81,2.15,2.15,0,0,1,1.36.32c-.06.17-.15.23-.32.16a1.12,1.12,0,0,0-1.38,1.66,2.52,2.52,0,0,0,1.43,1l.15,0c.15-.26.28-.52.45-.76a.87.87,0,0,1,.76-.42.4.4,0,0,1,.44.47,1,1,0,0,1-.48.8,6.4,6.4,0,0,1-.74.38,2.82,2.82,0,0,0,2,2.57,10.9,10.9,0,0,1-.34-1.15,2.15,2.15,0,0,1,.46-1.94,1.41,1.41,0,0,1,1.78-.2A1.7,1.7,0,0,1,34,20,1.78,1.78,0,0,1,35.78,19a4.64,4.64,0,0,0,.11-.65c0-.23,0-.45,0-.68s0-.16-.17-.19c-.59-.12-1.19-.24-1.77-.41a3.12,3.12,0,0,1-1.38-.81,1.21,1.21,0,0,1-.36-.72.84.84,0,0,1,.88-1,2.89,2.89,0,0,1,1.8.66,4,4,0,0,1,1.26,1.64.23.23,0,0,0,.25.16l2.34,0ZM35.67,17a1.09,1.09,0,0,0-.05-.14,3.79,3.79,0,0,0-.92-1.07,2.18,2.18,0,0,0-1.2-.5.37.37,0,0,0-.43.28.64.64,0,0,0,.26.7A4.18,4.18,0,0,0,35.67,17Z"/><path d="M22.89,19a2.12,2.12,0,0,1,2-.45,1.94,1.94,0,0,1,1.56,1.87,2.18,2.18,0,0,1-.52,1.26,3.67,3.67,0,0,1-2.24,1.23,11.78,11.78,0,0,1-2.78.17c-.36,0-.71-.06-1.07-.09a.23.23,0,0,1-.24-.19,14,14,0,0,1-.67-3.57,3.9,3.9,0,0,1,.66-2.51,1.94,1.94,0,0,1,1.82-.93,1.85,1.85,0,0,1,1.42.94A2.14,2.14,0,0,1,22.89,19Z"/><path d="M16.87,18.1a1.88,1.88,0,0,1,1-1.91,1.56,1.56,0,0,1,1.71,0c-.12.16-.24.31-.34.46a4.08,4.08,0,0,0-.59,2.1,9.86,9.86,0,0,0,.27,2.53.35.35,0,0,1,0,.23c-.19.27-.39.52-.6.77a.27.27,0,0,1-.23.08,10.48,10.48,0,0,1-3.33-1.48A3,3,0,0,1,13.48,19,1.58,1.58,0,0,1,15,17.11,1.92,1.92,0,0,1,16.87,18.1Z"/><path d="M10.24,16.32A2.15,2.15,0,0,1,12,16.05a1.56,1.56,0,0,1,.78,2.49,3.52,3.52,0,0,1-2,1.11c-.22.05-.35.08-.36.36a4.14,4.14,0,0,1-.4,1.58,3.46,3.46,0,0,1-2.62,2A4.19,4.19,0,0,1,3.9,22.8a3.73,3.73,0,0,1-1.54-2.74c0-.54,0-1.09,0-1.65l-.93.06v-.61h.79a.47.47,0,0,0,.51-.33A3.71,3.71,0,0,1,5.3,15.35a1.47,1.47,0,0,1,1,.07.88.88,0,0,1,.37,1.14A2.23,2.23,0,0,1,5.41,17.7a8,8,0,0,1-2.27.61c-.14,0-.21.06-.23.23a3.75,3.75,0,0,0,2.42,3.83,3.69,3.69,0,0,0,2.95-.09,2.84,2.84,0,0,0,1.48-1.75c.09-.26.14-.53.22-.81A1.55,1.55,0,0,1,8.8,19a1,1,0,0,1-.16-.53c0-.35.41-.52.78-.36a1.72,1.72,0,0,1,.81.95,2,2,0,0,1,.1.21,2.37,2.37,0,0,0,1.82-1.41,1.13,1.13,0,0,0-1.3-1.44,2.8,2.8,0,0,0-.28.06C10.36,16.54,10.36,16.54,10.24,16.32ZM3.12,17.75a5.29,5.29,0,0,0,1.62-.28,2.25,2.25,0,0,0,1-.62.65.65,0,0,0,.08-.69A.48.48,0,0,0,5.24,16a1.47,1.47,0,0,0-.3.08A3.43,3.43,0,0,0,3.12,17.75Z"/><path d="M6.49,19.21a1,1,0,0,1,.87-.66.88.88,0,0,1,1,1.14A2.12,2.12,0,0,1,7.39,21a11.47,11.47,0,0,1-1.06.64.3.3,0,0,1-.26,0,5.44,5.44,0,0,1-1.23-1.39A1.62,1.62,0,0,1,4.63,19a.84.84,0,0,1,.81-.69,1.1,1.1,0,0,1,.94.6C6.42,19,6.45,19.1,6.49,19.21Z"/><path d="M36,11.9a1.07,1.07,0,0,1,1-1,1,1,0,0,1,.87,1.17,3.12,3.12,0,0,1-.84,1.54,4.59,4.59,0,0,1-.54.54.22.22,0,0,1-.19.05,5.1,5.1,0,0,1-1.71-1.11,1.52,1.52,0,0,1-.41-1,.86.86,0,0,1,1.22-.78A1.07,1.07,0,0,1,36,11.9Z"/><path d="M3.44,12a1.05,1.05,0,0,1,.47-.88.85.85,0,0,1,1.33.51,2,2,0,0,1-.32,1.58c-.21.34-.46.66-.7,1a.22.22,0,0,1-.2.07,4.16,4.16,0,0,1-2-1.05,1.17,1.17,0,0,1-.36-1,.75.75,0,0,1,.56-.64.94.94,0,0,1,1,.18A2.94,2.94,0,0,1,3.44,12Z"/><path d="M36.2,8.13A.57.57,0,0,1,36.79,8c.33.11.4.48.14.79a1.88,1.88,0,0,1-1.07.55s-.1,0-.13-.07a1.82,1.82,0,0,1-.47-.95,1,1,0,0,1,0-.38.4.4,0,0,1,.38-.29.47.47,0,0,1,.46.3A1.5,1.5,0,0,1,36.2,8.13Z"/></g><g class="cls-3"><path d="M38.4,17.41,36,17.28c0,.12,0,.24,0,.37,0,.4,0,.8,0,1.2a.26.26,0,0,0,.06.18,1.39,1.39,0,0,1,.47,1.44,2.74,2.74,0,0,1-1.37,1.78,10,10,0,0,1-2.79,1.16.21.21,0,0,1-.17-.07l-.7-.92a.43.43,0,0,0-.21-.14,3.41,3.41,0,0,1-3-2.79,4.66,4.66,0,0,1-.09-.75c0-.14-.05-.21-.2-.24a3.82,3.82,0,0,1-1.71-.75,1.53,1.53,0,0,1,.69-2.81,2.15,2.15,0,0,1,1.36.32c-.06.17-.15.23-.32.16a1.12,1.12,0,0,0-1.38,1.66,2.52,2.52,0,0,0,1.43,1l.15,0c.15-.26.28-.52.45-.76a.87.87,0,0,1,.76-.42.4.4,0,0,1,.44.47,1,1,0,0,1-.48.8,6.4,6.4,0,0,1-.74.38,2.82,2.82,0,0,0,2,2.57A9,9,0,0,1,30.51,20,2.15,2.15,0,0,1,31,18.07a1.41,1.41,0,0,1,1.78-.2,1.7,1.7,0,0,1,.86,1.75,1.78,1.78,0,0,1,1.83-.92,4.64,4.64,0,0,0,.11-.65c0-.23,0-.45,0-.68s0-.16-.17-.19c-.59-.12-1.19-.24-1.77-.41A3.12,3.12,0,0,1,32.23,16a1.21,1.21,0,0,1-.36-.72.84.84,0,0,1,.88-1,2.89,2.89,0,0,1,1.8.66,4,4,0,0,1,1.26,1.64.23.23,0,0,0,.25.16l2.34,0Zm-3.07-.76a1.09,1.09,0,0,0,0-.14,3.79,3.79,0,0,0-.92-1.07,2.18,2.18,0,0,0-1.2-.5.37.37,0,0,0-.43.28.64.64,0,0,0,.26.7A4.18,4.18,0,0,0,35.33,16.65Z"/><path d="M22.55,18.62a2.12,2.12,0,0,1,2-.45A1.94,1.94,0,0,1,26.08,20a2.18,2.18,0,0,1-.52,1.26,3.67,3.67,0,0,1-2.24,1.23,11.78,11.78,0,0,1-2.78.17c-.36,0-.71-.06-1.07-.09a.24.24,0,0,1-.24-.19,14,14,0,0,1-.67-3.57,3.9,3.9,0,0,1,.66-2.51A1.94,1.94,0,0,1,21,15.41a1.85,1.85,0,0,1,1.42.94A2.14,2.14,0,0,1,22.55,18.62Z"/><path d="M16.53,17.76a1.88,1.88,0,0,1,1-1.91,1.56,1.56,0,0,1,1.71,0c-.12.16-.24.31-.34.46a4.08,4.08,0,0,0-.59,2.1A10.31,10.31,0,0,0,18.59,21a.3.3,0,0,1,0,.23c-.19.27-.39.52-.6.77a.27.27,0,0,1-.23.08,10.48,10.48,0,0,1-3.33-1.48,3,3,0,0,1-1.27-1.89,1.58,1.58,0,0,1,1.5-1.91A1.92,1.92,0,0,1,16.53,17.76Z"/><path d="M9.9,16a2.15,2.15,0,0,1,1.71-.27,1.56,1.56,0,0,1,.78,2.49,3.52,3.52,0,0,1-2,1.11c-.22.05-.35.08-.36.36a4.14,4.14,0,0,1-.4,1.58,3.46,3.46,0,0,1-2.62,2,4.19,4.19,0,0,1-3.47-.79A3.73,3.73,0,0,1,2,19.72c-.05-.54,0-1.09,0-1.65l-.93.06v-.61h.79a.47.47,0,0,0,.51-.33A3.71,3.71,0,0,1,5,15a1.47,1.47,0,0,1,1,.07.88.88,0,0,1,.37,1.14,2.23,2.23,0,0,1-1.27,1.14A8,8,0,0,1,2.8,18c-.14,0-.21.06-.23.23A3.75,3.75,0,0,0,5,22a3.69,3.69,0,0,0,3-.09,2.84,2.84,0,0,0,1.48-1.75c.09-.26.14-.53.22-.81a1.55,1.55,0,0,1-1.18-.71,1,1,0,0,1-.16-.53c0-.35.41-.52.78-.36a1.72,1.72,0,0,1,.81.95,2,2,0,0,1,.1.21,2.37,2.37,0,0,0,1.82-1.41,1.13,1.13,0,0,0-1.3-1.44,2.8,2.8,0,0,0-.28.06C10,16.2,10,16.2,9.9,16ZM2.78,17.41a5.29,5.29,0,0,0,1.62-.28,2.25,2.25,0,0,0,1-.62.65.65,0,0,0,.08-.69.48.48,0,0,0-.57-.15l-.3.07A3.48,3.48,0,0,0,2.78,17.41Z"/><path d="M6.15,18.87A1,1,0,0,1,7,18.21a.88.88,0,0,1,1,1.14,2.12,2.12,0,0,1-.93,1.26A11.47,11.47,0,0,1,6,21.25a.3.3,0,0,1-.26,0A5.44,5.44,0,0,1,4.5,19.83a1.62,1.62,0,0,1-.21-1.18A.84.84,0,0,1,5.1,18a1.1,1.1,0,0,1,.94.6C6.08,18.66,6.11,18.76,6.15,18.87Z"/><path d="M35.67,11.56a1.07,1.07,0,0,1,1-1,1,1,0,0,1,.87,1.17,3.12,3.12,0,0,1-.84,1.54,4.59,4.59,0,0,1-.54.54.22.22,0,0,1-.19.05,5.1,5.1,0,0,1-1.71-1.11,1.52,1.52,0,0,1-.41-1A.86.86,0,0,1,35.08,11,1.07,1.07,0,0,1,35.67,11.56Z"/><path d="M3.1,11.7a1.05,1.05,0,0,1,.47-.88.85.85,0,0,1,1.33.51,2,2,0,0,1-.32,1.58c-.21.34-.46.66-.7,1a.22.22,0,0,1-.2.07,4.16,4.16,0,0,1-2-1.05,1.17,1.17,0,0,1-.36-1,.75.75,0,0,1,.56-.64.94.94,0,0,1,1,.18A2.94,2.94,0,0,1,3.1,11.7Z"/><path d="M35.86,7.79a.55.55,0,0,1,.59-.15c.33.11.4.48.14.79A1.88,1.88,0,0,1,35.52,9s-.1,0-.13-.07a1.82,1.82,0,0,1-.47-1,1,1,0,0,1,0-.38.4.4,0,0,1,.38-.29.47.47,0,0,1,.46.3A1.5,1.5,0,0,1,35.86,7.79Z"/></g><path class="cls-4" d="M38.6,17.6l-2.37-.12c0,.11,0,.24,0,.37,0,.4,0,.8,0,1.2a.23.23,0,0,0,.06.18,1.39,1.39,0,0,1,.47,1.44,2.74,2.74,0,0,1-1.37,1.78,10,10,0,0,1-2.79,1.16.2.2,0,0,1-.17-.07c-.24-.3-.46-.62-.7-.92a.38.38,0,0,0-.21-.14,3.41,3.41,0,0,1-3-2.79,4.82,4.82,0,0,1-.1-.75c0-.15,0-.21-.19-.24A3.82,3.82,0,0,1,26.65,18a1.59,1.59,0,0,1-.71-1.35,1.57,1.57,0,0,1,1.4-1.46,2.23,2.23,0,0,1,1.36.31c-.07.18-.15.23-.33.17a1.15,1.15,0,0,0-1.19.17A1.19,1.19,0,0,0,27,17.28a2.52,2.52,0,0,0,1.43,1l.14,0c.15-.26.29-.52.46-.77a.88.88,0,0,1,.76-.41.41.41,0,0,1,.44.47,1,1,0,0,1-.48.8,6.38,6.38,0,0,1-.74.37,2.82,2.82,0,0,0,2,2.58,11.59,11.59,0,0,1-.33-1.15,2.11,2.11,0,0,1,.46-1.94,1.41,1.41,0,0,1,1.78-.2,1.7,1.7,0,0,1,.86,1.75,1.8,1.8,0,0,1,1.83-.93c0-.2.09-.42.11-.64s0-.46,0-.68,0-.16-.17-.19A17.52,17.52,0,0,1,33.81,17a3,3,0,0,1-1.38-.8,1.27,1.27,0,0,1-.36-.72.84.84,0,0,1,.88-1,2.89,2.89,0,0,1,1.8.66A4,4,0,0,1,36,16.77a.23.23,0,0,0,.25.16l2.34,0Zm-3.07-.76a.53.53,0,0,0-.06-.13,3.6,3.6,0,0,0-.91-1.07,2.11,2.11,0,0,0-1.2-.5.36.36,0,0,0-.43.28.65.65,0,0,0,.26.7A4.1,4.1,0,0,0,35.53,16.84Z"/><path class="cls-4" d="M22.74,18.82a2.14,2.14,0,0,1,2-.45,1.92,1.92,0,0,1,1.55,1.87,2.12,2.12,0,0,1-.52,1.26,3.62,3.62,0,0,1-2.23,1.23,11.27,11.27,0,0,1-2.78.16c-.36,0-.72-.05-1.07-.08a.24.24,0,0,1-.24-.19,14.07,14.07,0,0,1-.67-3.57,3.84,3.84,0,0,1,.66-2.51,1.94,1.94,0,0,1,1.82-.93,1.86,1.86,0,0,1,1.42.94A2.12,2.12,0,0,1,22.74,18.82Z"/><path class="cls-4" d="M16.73,18a1.88,1.88,0,0,1,1-1.91,1.56,1.56,0,0,1,1.71,0c-.12.16-.24.3-.34.46a4.18,4.18,0,0,0-.6,2.09,10.86,10.86,0,0,0,.27,2.54.3.3,0,0,1,0,.23c-.18.26-.38.52-.59.77a.27.27,0,0,1-.23.08,10.48,10.48,0,0,1-3.33-1.48,2.94,2.94,0,0,1-1.28-1.89A1.59,1.59,0,0,1,14.84,17,1.93,1.93,0,0,1,16.73,18Z"/><path class="cls-4" d="M10.1,16.18a2.15,2.15,0,0,1,1.71-.27,1.56,1.56,0,0,1,.78,2.49,3.52,3.52,0,0,1-2,1.11c-.22,0-.35.08-.37.36a4,4,0,0,1-.39,1.58,3.45,3.45,0,0,1-2.62,2,4.19,4.19,0,0,1-3.47-.78,3.74,3.74,0,0,1-1.55-2.74c0-.55,0-1.09,0-1.66l-.93.07v-.62h.79a.47.47,0,0,0,.51-.34,3.72,3.72,0,0,1,2.57-2.17,1.44,1.44,0,0,1,1,.07.88.88,0,0,1,.38,1.14,2.29,2.29,0,0,1-1.27,1.14,7.78,7.78,0,0,1-2.27.6.23.23,0,0,0-.23.23,3.73,3.73,0,0,0,2.42,3.83,3.65,3.65,0,0,0,3-.08,2.84,2.84,0,0,0,1.48-1.75c.09-.26.14-.53.21-.81a1.53,1.53,0,0,1-1.17-.71,1.06,1.06,0,0,1-.16-.54c0-.34.41-.51.77-.35a1.74,1.74,0,0,1,.82.95,1.86,1.86,0,0,1,.1.2A2.35,2.35,0,0,0,12,17.72a1.13,1.13,0,0,0-1.3-1.44l-.28.07C10.22,16.4,10.22,16.4,10.1,16.18ZM3,17.61a5.29,5.29,0,0,0,1.62-.28,2.16,2.16,0,0,0,1-.62A.63.63,0,0,0,5.67,16a.48.48,0,0,0-.57-.15l-.31.07A3.5,3.5,0,0,0,3,17.61Z"/><path class="cls-4" d="M6.35,19.07a1,1,0,0,1,.87-.66.88.88,0,0,1,1,1.14,2.11,2.11,0,0,1-.93,1.25c-.34.24-.7.44-1.06.65a.3.3,0,0,1-.26,0A5.36,5.36,0,0,1,4.69,20a1.63,1.63,0,0,1-.2-1.17.83.83,0,0,1,.81-.69,1.09,1.09,0,0,1,.94.6C6.28,18.85,6.31,19,6.35,19.07Z"/><path class="cls-4" d="M35.87,11.76a1.06,1.06,0,0,1,1-1A1,1,0,0,1,37.75,12a3.12,3.12,0,0,1-.84,1.54,6.88,6.88,0,0,1-.54.54.22.22,0,0,1-.19,0A5,5,0,0,1,34.47,13a1.58,1.58,0,0,1-.42-1,.87.87,0,0,1,1.23-.78A1.11,1.11,0,0,1,35.87,11.76Z"/><path class="cls-4" d="M3.3,11.9A1,1,0,0,1,3.77,11a.84.84,0,0,1,1.33.5,2,2,0,0,1-.32,1.59c-.21.34-.46.66-.71,1a.22.22,0,0,1-.19.07,4.24,4.24,0,0,1-2-1.05,1.19,1.19,0,0,1-.35-1,.76.76,0,0,1,.56-.65,1,1,0,0,1,1,.19A2.94,2.94,0,0,1,3.3,11.9Z"/><path class="cls-4" d="M36.06,8a.58.58,0,0,1,.59-.16.47.47,0,0,1,.14.8,2,2,0,0,1-1.07.55s-.1,0-.13-.07a1.91,1.91,0,0,1-.48-.95,1,1,0,0,1,0-.38.42.42,0,0,1,.38-.3.5.5,0,0,1,.46.31A1.11,1.11,0,0,1,36.06,8Z"/></g></g></svg>